<?xml version="1.0" encoding="utf-8" standalone="no"?>
<!DOCTYPE svg PUBLIC "-//W3C//DTD SVG 1.1//EN"
  "http://www.w3.org/Graphics/SVG/1.1/DTD/svg11.dtd">
<!-- Created with matplotlib (https://matplotlib.org/) -->
<svg height="288pt" version="1.1" viewBox="0 0 720 288" width="720pt" xmlns="http://www.w3.org/2000/svg" xmlns:xlink="http://www.w3.org/1999/xlink">
 <defs>
  <style type="text/css">
*{stroke-linecap:butt;stroke-linejoin:round;}
  </style>
 </defs>
 <g id="figure_1">
  <g id="patch_1">
   <path d="M 0 288 
L 720 288 
L 720 0 
L 0 0 
z
" style="fill:#ffffff;"/>
  </g>
  <g id="axes_1">
   <g id="line2d_1">
    <path clip-path="url(#pba9e0e318f)" d="M 99.481335 232.241495 
L 84.611515 229.484613 
L 74.822574 227.786125 
L 71.320258 227.373021 
L 68.071683 227.184941 
L 65.526333 227.199543 
L 62.379794 227.431446 
L 58.844844 227.965897 
L 54.294187 229.01573 
L 50.07417 230.279153 
L 47.240627 231.356651 
L 45.891186 232.064856 
L 45.237373 232.600253 
L 45.156004 232.880363 
L 45.344142 233.129933 
L 46.23899 233.505139 
L 47.865478 233.877042 
L 51.355737 234.393823 
L 54.962972 234.705547 
L 59.765845 234.860395 
L 65.194717 234.784001 
L 72.651637 234.430846 
L 84.394065 233.628844 
L 96.309717 232.581386 
L 99.548292 232.271571 
L 99.548292 232.271571 
" style="fill:none;stroke:#000000;stroke-linecap:square;stroke-opacity:0.7;stroke-width:1.2;"/>
   </g>
   <g id="line2d_2">
    <path clip-path="url(#pba9e0e318f)" d="M 99.491639 189.201528 
L 78.367878 184.686204 
L 73.829156 183.952147 
L 70.070586 183.550756 
L 66.925533 183.410989 
L 63.32306 183.505396 
L 59.789636 183.868949 
L 56.14133 184.510799 
L 52.509154 185.410066 
L 49.837314 186.268118 
L 47.950957 187.031657 
L 45.976905 188.108535 
L 44.939333 188.934547 
L 44.528408 189.530513 
L 44.564732 189.865167 
L 44.893683 190.13246 
L 45.501958 190.337114 
L 47.354414 190.592069 
L 50.519726 190.714253 
L 55.876744 190.652331 
L 94.496923 189.492727 
L 99.542898 189.253465 
L 99.542898 189.253465 
" style="fill:none;stroke:#000000;stroke-linecap:square;stroke-opacity:0.7;stroke-width:1.2;"/>
   </g>
   <g id="line2d_3">
    <path clip-path="url(#pba9e0e318f)" d="M 99.779973 145.917099 
L 79.277368 140.721305 
L 75.03782 139.836891 
L 71.551741 139.290372 
L 68.083004 138.981918 
L 65.086343 138.954732 
L 62.018629 139.185684 
L 59.21256 139.623332 
L 56.11192 140.330757 
L 52.902905 141.300905 
L 50.843034 142.112862 
L 49.224216 142.988965 
L 48.376053 143.639427 
L 47.555725 144.548895 
L 46.965109 145.605291 
L 46.768005 146.309452 
L 46.816688 146.913084 
L 47.017048 147.209632 
L 47.500326 147.464258 
L 48.411441 147.58869 
L 50.230184 147.551229 
L 57.015788 147.312384 
L 62.635694 147.370054 
L 72.550749 147.780133 
L 78.342801 147.885629 
L 83.284165 147.734261 
L 87.728271 147.383662 
L 92.762137 146.782526 
L 99.671306 145.733693 
L 99.671306 145.733693 
" style="fill:none;stroke:#000000;stroke-linecap:square;stroke-opacity:0.7;stroke-width:1.2;"/>
   </g>
   <g id="line2d_4">
    <path clip-path="url(#pba9e0e318f)" d="M 99.380941 102.928015 
L 91.611776 102.077113 
L 85.137158 101.169314 
L 79.118918 100.092154 
L 72.876558 98.973159 
L 69.559049 98.596035 
L 66.288621 98.454469 
L 63.233858 98.527581 
L 60.083398 98.785931 
L 55.368924 99.466957 
L 52.274995 100.098978 
L 48.901472 101.02342 
L 47.272676 101.636276 
L 45.682357 102.46311 
L 44.777344 103.172245 
L 44.586124 103.480573 
L 44.625119 103.704204 
L 44.904074 103.897028 
L 45.786142 104.122646 
L 47.663664 104.368345 
L 53.457489 104.844143 
L 59.726308 105.105673 
L 67.847166 105.175332 
L 76.40548 105.022583 
L 83.357972 104.671051 
L 89.457883 104.135817 
L 97.59997 103.165354 
L 99.427591 102.92574 
L 99.427591 102.92574 
" style="fill:none;stroke:#000000;stroke-linecap:square;stroke-opacity:0.7;stroke-width:1.2;"/>
   </g>
   <g id="line2d_5">
    <path clip-path="url(#pba9e0e318f)" d="M 99.333007 59.766277 
L 91.50149 59.260562 
L 85.329274 58.660205 
L 80.542644 57.959623 
L 70.439549 56.257399 
L 67.104571 56.059565 
L 63.656777 56.083914 
L 59.815183 56.329469 
L 55.595802 56.83231 
L 51.786199 57.531383 
L 49.064648 58.244119 
L 46.285455 59.212858 
L 44.803907 59.900596 
L 44.672748 60.137807 
L 44.943631 60.270112 
L 45.650018 60.374607 
L 48.394614 60.472574 
L 53.918922 60.393492 
L 69.470376 60.061698 
L 80.297275 60.151575 
L 88.071899 60.115313 
L 95.078419 59.864615 
L 99.345288 59.635186 
L 99.345288 59.635186 
" style="fill:none;stroke:#000000;stroke-linecap:square;stroke-opacity:0.7;stroke-width:1.2;"/>
   </g>
   <g id="line2d_6">
    <path clip-path="url(#pba9e0e318f)" d="M 243.426566 232.277158 
L 234.34615 229.798581 
L 224.437103 227.333999 
L 219.674204 226.325296 
L 215.750167 225.706383 
L 212.393361 225.404851 
L 209.048944 225.36576 
L 206.281182 225.547065 
L 202.995226 226.006481 
L 199.778361 226.705159 
L 197.839607 227.265937 
L 195.331383 228.238994 
L 193.320824 229.33568 
L 190.557518 231.201559 
L 189.886244 231.814325 
L 189.780461 232.138301 
L 189.937276 232.376203 
L 190.316141 232.588913 
L 191.633382 232.976726 
L 193.898239 233.403292 
L 197.767093 233.907698 
L 202.62091 234.310415 
L 208.213226 234.54475 
L 214.055099 234.582938 
L 220.235835 234.429012 
L 226.344433 234.078436 
L 233.453292 233.424234 
L 242.345338 232.349899 
L 243.444845 232.205448 
L 243.444845 232.205448 
" style="fill:none;stroke:#000000;stroke-linecap:square;stroke-opacity:0.7;stroke-width:1.2;"/>
   </g>
   <g id="line2d_7">
    <path clip-path="url(#pba9e0e318f)" d="M 243.370513 189.122651 
L 236.499285 187.246392 
L 229.714189 185.647531 
L 223.812567 184.477671 
L 219.083856 183.722089 
L 214.318953 183.180654 
L 210.510681 182.956222 
L 206.894056 182.960102 
L 203.45137 183.197466 
L 200.453836 183.612581 
L 197.415668 184.257856 
L 195.336736 184.871305 
L 193.186928 185.757169 
L 191.481408 186.76321 
L 190.205047 187.777461 
L 189.906556 188.173186 
L 189.865488 188.432624 
L 190.060783 188.692677 
L 190.949838 189.006552 
L 192.388369 189.195167 
L 194.959028 189.291333 
L 199.675385 189.177489 
L 214.534966 188.639649 
L 220.697064 188.704543 
L 240.411895 189.097597 
L 243.356554 189.118522 
L 243.356554 189.118522 
" style="fill:none;stroke:#000000;stroke-linecap:square;stroke-opacity:0.7;stroke-width:1.2;"/>
   </g>
   <g id="line2d_8">
    <path clip-path="url(#pba9e0e318f)" d="M 243.437855 146.038783 
L 230.551993 144.367203 
L 224.020856 143.294045 
L 217.177858 142.139369 
L 214.083564 141.822415 
L 210.869704 141.718635 
L 207.443935 141.859249 
L 203.594621 142.273512 
L 199.209775 142.995626 
L 195.241159 143.865071 
L 192.757183 144.60987 
L 191.139521 145.327406 
L 190.129353 145.982626 
L 189.614595 146.440744 
L 189.170849 147.207303 
L 189.23892 147.512008 
L 189.635099 147.853928 
L 190.391948 148.145123 
L 192.155418 148.543027 
L 196.566192 149.230749 
L 201.183803 149.701709 
L 206.162086 149.966302 
L 211.533836 150.026512 
L 217.23277 149.876371 
L 223.335569 149.466177 
L 228.821094 148.836256 
L 233.940801 148.011156 
L 240.645995 146.666958 
L 243.45295 146.052243 
L 243.45295 146.052243 
" style="fill:none;stroke:#000000;stroke-linecap:square;stroke-opacity:0.7;stroke-width:1.2;"/>
   </g>
   <g id="line2d_9">
    <path clip-path="url(#pba9e0e318f)" d="M 243.388161 102.903299 
L 217.932041 98.374407 
L 213.590481 97.910839 
L 210.211606 97.738754 
L 206.235144 97.783774 
L 202.737099 98.052578 
L 199.308324 98.515482 
L 196.66332 99.012066 
L 193.625915 99.80899 
L 191.674933 100.58179 
L 190.42349 101.283766 
L 189.469887 102.034298 
L 189.213739 102.43106 
L 189.269261 102.636893 
L 189.606948 102.792407 
L 190.548611 102.862796 
L 192.505746 102.738725 
L 196.606499 102.20732 
L 204.560668 101.125713 
L 208.215678 100.836669 
L 211.815562 100.75976 
L 215.791672 100.909908 
L 221.303132 101.369107 
L 231.471627 102.223347 
L 240.059798 102.685821 
L 243.408952 102.826389 
L 243.408952 102.826389 
" style="fill:none;stroke:#000000;stroke-linecap:square;stroke-opacity:0.7;stroke-width:1.2;"/>
   </g>
   <g id="line2d_10">
    <path clip-path="url(#pba9e0e318f)" d="M 243.649239 59.630552 
L 234.794187 58.090758 
L 219.024264 55.284235 
L 214.181184 54.695734 
L 210.075031 54.42863 
L 207.026877 54.409207 
L 203.49847 54.612668 
L 200.124471 55.056749 
L 196.527635 55.812165 
L 193.626342 56.658064 
L 191.406225 57.533207 
L 190.200568 58.244536 
L 189.723409 58.76037 
L 189.606003 59.23215 
L 189.743539 59.63267 
L 190.231342 60.142848 
L 191.231722 60.681601 
L 192.269913 60.987923 
L 193.423421 61.159838 
L 195.437688 61.189651 
L 198.255572 60.934947 
L 202.734607 60.544157 
L 206.458035 60.473689 
L 211.072627 60.655531 
L 221.816949 61.21242 
L 225.861183 61.176093 
L 231.150392 60.862233 
L 236.209417 60.344667 
L 243.662138 59.377532 
L 243.662138 59.377532 
" style="fill:none;stroke:#000000;stroke-linecap:square;stroke-opacity:0.7;stroke-width:1.2;"/>
   </g>
   <g id="line2d_11">
    <path clip-path="url(#pba9e0e318f)" d="M 387.142398 232.368381 
L 379.733754 230.518213 
L 372.036039 228.83736 
L 365.291414 227.556881 
L 360.882951 226.925948 
L 357.425594 226.633208 
L 353.551966 226.572461 
L 350.162766 226.752602 
L 346.7201 227.133157 
L 343.069236 227.752677 
L 337.164649 229.146196 
L 333.567042 230.096623 
L 332.674944 230.487187 
L 332.345802 230.866414 
L 332.444292 231.107337 
L 332.861132 231.369127 
L 333.762252 231.650796 
L 335.510007 231.950129 
L 338.21123 232.197101 
L 343.511294 232.400103 
L 367.012904 232.737126 
L 375.841787 232.707068 
L 384.052627 232.436944 
L 387.060324 232.295435 
L 387.060324 232.295435 
" style="fill:none;stroke:#000000;stroke-linecap:square;stroke-opacity:0.7;stroke-width:1.2;"/>
   </g>
   <g id="line2d_12">
    <path clip-path="url(#pba9e0e318f)" d="M 387.373238 189.080505 
L 362.572838 183.95696 
L 358.644564 183.459176 
L 355.102159 183.271594 
L 351.879864 183.354887 
L 348.575276 183.702158 
L 345.058053 184.348987 
L 341.971926 185.1314 
L 338.594562 186.212151 
L 336.155076 187.180521 
L 334.62607 187.949126 
L 333.717871 188.583833 
L 333.241261 189.221156 
L 333.228744 189.619226 
L 333.512022 189.997135 
L 334.023365 190.259157 
L 335.310767 190.526245 
L 337.45324 190.637568 
L 340.93123 190.546312 
L 351.651252 190.120277 
L 358.579705 190.150122 
L 368.544353 190.234792 
L 375.118199 190.026078 
L 381.361058 189.618762 
L 387.432633 189.121801 
L 387.432633 189.121801 
" style="fill:none;stroke:#000000;stroke-linecap:square;stroke-opacity:0.7;stroke-width:1.2;"/>
   </g>
   <g id="line2d_13">
    <path clip-path="url(#pba9e0e318f)" d="M 387.575878 145.910163 
L 373.198677 141.515431 
L 367.157436 139.898291 
L 362.818311 138.962607 
L 359.594389 138.451599 
L 356.309097 138.142774 
L 353.292693 138.091521 
L 350.715599 138.254787 
L 348.28765 138.60223 
L 345.5924 139.219125 
L 343.078268 140.014004 
L 340.265446 141.146537 
L 337.236696 142.654644 
L 335.118893 143.933705 
L 333.740455 144.975246 
L 333.109391 145.637156 
L 332.827653 146.11194 
L 332.741788 146.745218 
L 332.864704 147.086032 
L 333.199604 147.478125 
L 334.090141 147.973776 
L 335.483702 148.325505 
L 337.927552 148.483117 
L 340.496161 148.347219 
L 345.296673 147.805471 
L 351.742788 147.13112 
L 356.797758 146.82841 
L 362.641085 146.713775 
L 376.037126 146.554732 
L 383.433797 146.179771 
L 387.649754 145.899573 
L 387.649754 145.899573 
" style="fill:none;stroke:#000000;stroke-linecap:square;stroke-opacity:0.7;stroke-width:1.2;"/>
   </g>
   <g id="line2d_14">
    <path clip-path="url(#pba9e0e318f)" d="M 387.551748 102.655919 
L 379.803333 100.137571 
L 373.173446 98.213191 
L 367.767505 96.869982 
L 363.146623 95.923609 
L 358.904688 95.256917 
L 355.436628 94.896832 
L 353.08087 94.772533 
L 349.639093 94.807563 
L 346.863926 95.056433 
L 344.077667 95.532437 
L 341.823056 96.105471 
L 339.839959 96.781507 
L 338.109042 97.564087 
L 336.638875 98.490871 
L 335.667962 99.415339 
L 335.24444 100.015746 
L 334.753626 101.131321 
L 334.531883 102.077249 
L 334.522118 103.083387 
L 334.642085 103.434673 
L 334.956682 103.846576 
L 335.730947 104.347971 
L 337.303464 104.991379 
L 340.709701 106.12134 
L 343.310448 106.841953 
L 347.32053 107.684978 
L 350.546793 108.118942 
L 353.898036 108.344557 
L 357.432157 108.352202 
L 361.220453 108.129285 
L 365.129189 107.686083 
L 369.224709 107.02727 
L 374.582324 105.927454 
L 381.744597 104.185796 
L 387.523703 102.680507 
L 387.523703 102.680507 
" style="fill:none;stroke:#000000;stroke-linecap:square;stroke-opacity:0.7;stroke-width:1.2;"/>
   </g>
   <g id="line2d_15">
    <path clip-path="url(#pba9e0e318f)" d="M 387.480364 59.549903 
L 378.259527 57.309337 
L 369.32489 55.35403 
L 362.753762 54.119506 
L 358.489003 53.519414 
L 354.851732 53.208916 
L 351.583267 53.140762 
L 348.495955 53.296425 
L 345.558252 53.662139 
L 342.580135 54.256422 
L 339.447166 55.139886 
L 337.139793 56.011566 
L 335.940816 56.588023 
L 334.504647 57.508067 
L 333.638841 58.347016 
L 333.119771 59.219935 
L 333.019597 59.925085 
L 333.058148 60.100185 
L 333.482988 60.664708 
L 333.817461 60.862592 
L 335.141885 61.226416 
L 336.899092 61.363572 
L 340.061592 61.301283 
L 357.652496 60.483395 
L 387.529519 59.563447 
L 387.529519 59.563447 
" style="fill:none;stroke:#000000;stroke-linecap:square;stroke-opacity:0.7;stroke-width:1.2;"/>
   </g>
   <g id="line2d_16">
    <path clip-path="url(#pba9e0e318f)" d="M 531.209428 232.34245 
L 508.866656 228.410434 
L 504.594794 227.806384 
L 501.888578 227.574414 
L 498.218454 227.496918 
L 494.694885 227.674727 
L 491.541401 228.017685 
L 487.724868 228.635295 
L 484.116069 229.422871 
L 480.876131 230.361616 
L 478.620363 231.273022 
L 477.281406 232.075629 
L 476.750777 232.63035 
L 476.680249 232.891393 
L 476.883098 233.194181 
L 477.431255 233.4158 
L 479.462778 233.72823 
L 485.092302 234.210267 
L 491.460777 234.521996 
L 498.394055 234.614718 
L 505.582961 234.505691 
L 512.07813 234.234884 
L 519.405229 233.683687 
L 526.586656 232.901427 
L 531.222652 232.317733 
L 531.222652 232.317733 
" style="fill:none;stroke:#000000;stroke-linecap:square;stroke-opacity:0.7;stroke-width:1.2;"/>
   </g>
   <g id="line2d_17">
    <path clip-path="url(#pba9e0e318f)" d="M 531.53888 188.94321 
L 522.057879 185.6531 
L 515.479085 183.59375 
L 510.375136 182.22971 
L 506.117218 181.34057 
L 502.502755 180.840886 
L 499.463883 180.660426 
L 496.212698 180.75954 
L 493.182868 181.141938 
L 490.358323 181.735249 
L 487.085139 182.668189 
L 483.311634 184.032815 
L 480.263407 185.408188 
L 478.574123 186.373111 
L 477.059343 187.603766 
L 476.607024 188.187057 
L 476.204329 189.16949 
L 476.185237 189.668035 
L 476.399386 190.226698 
L 476.738157 190.550964 
L 477.468258 190.876514 
L 479.258445 191.110095 
L 481.764117 191.037874 
L 495.847368 190.042178 
L 501.437704 190.053497 
L 512.029459 190.112619 
L 518.417721 189.88049 
L 524.621458 189.468903 
L 531.516796 188.889691 
L 531.516796 188.889691 
" style="fill:none;stroke:#000000;stroke-linecap:square;stroke-opacity:0.7;stroke-width:1.2;"/>
   </g>
   <g id="line2d_18">
    <path clip-path="url(#pba9e0e318f)" d="M 531.252976 146.086257 
L 520.25295 144.54976 
L 512.15227 143.196924 
L 505.437341 142.127176 
L 501.583274 141.75498 
L 498.054601 141.656016 
L 494.631083 141.801295 
L 490.829342 142.227591 
L 486.875912 142.926751 
L 482.536839 143.9485 
L 479.346289 144.901733 
L 477.608334 145.625214 
L 476.900425 146.138038 
L 476.727211 146.538749 
L 476.867964 146.818654 
L 476.985907 146.914197 
L 477.824103 147.223172 
L 479.262935 147.388345 
L 481.753547 147.371732 
L 488.274375 146.937471 
L 494.515263 146.661845 
L 500.81657 146.615685 
L 520.166786 146.686315 
L 527.024223 146.312129 
L 531.310662 145.998585 
L 531.310662 145.998585 
" style="fill:none;stroke:#000000;stroke-linecap:square;stroke-opacity:0.7;stroke-width:1.2;"/>
   </g>
   <g id="line2d_19">
    <path clip-path="url(#pba9e0e318f)" d="M 531.428848 102.623483 
L 520.78154 99.731015 
L 512.033051 97.445966 
L 506.996542 96.364777 
L 502.319609 95.631805 
L 499.900379 95.388887 
L 495.894636 95.245639 
L 493.312102 95.353569 
L 490.208702 95.7142 
L 487.073956 96.341272 
L 484.916405 96.924765 
L 481.786035 97.997243 
L 479.299685 99.076988 
L 478.434166 99.520153 
L 476.279816 100.925399 
L 475.369248 101.920941 
L 475.115512 102.558716 
L 475.110892 102.953371 
L 475.23401 103.336966 
L 475.669626 103.888854 
L 476.599844 104.486968 
L 477.5187 104.83885 
L 478.90302 105.145985 
L 479.853279 105.248174 
L 482.395273 105.209353 
L 484.683962 104.914363 
L 496.708792 102.962228 
L 499.247129 102.790446 
L 503.647121 102.737223 
L 519.978421 102.901286 
L 529.87041 102.57375 
L 531.472808 102.508577 
L 531.472808 102.508577 
" style="fill:none;stroke:#000000;stroke-linecap:square;stroke-opacity:0.7;stroke-width:1.2;"/>
   </g>
   <g id="line2d_20">
    <path clip-path="url(#pba9e0e318f)" d="M 531.310539 59.676527 
L 520.590511 57.408467 
L 508.175953 54.981896 
L 503.460623 54.315376 
L 500.185841 54.039216 
L 496.555011 53.963735 
L 493.761722 54.090925 
L 490.260847 54.484735 
L 487.255377 55.030071 
L 484.267234 55.790491 
L 482.249735 56.5024 
L 480.916784 57.158298 
L 479.846596 57.926311 
L 479.154042 58.679608 
L 478.719009 59.501637 
L 478.697225 60.005035 
L 478.799774 60.222844 
L 479.25945 60.58745 
L 480.173103 60.91624 
L 485.628516 62.258248 
L 489.956261 63.224554 
L 493.700207 63.8112 
L 497.520876 64.153766 
L 501.170864 64.260886 
L 505.429436 64.148076 
L 509.11441 63.866693 
L 513.509982 63.329627 
L 519.061021 62.383781 
L 525.50079 61.034347 
L 531.342756 59.710123 
L 531.342756 59.710123 
" style="fill:none;stroke:#000000;stroke-linecap:square;stroke-opacity:0.7;stroke-width:1.2;"/>
   </g>
   <g id="line2d_21">
    <path clip-path="url(#pba9e0e318f)" d="M 675.275435 232.351236 
L 646.728146 227.731481 
L 643.372987 227.494752 
L 640.290532 227.465114 
L 636.674121 227.66299 
L 632.779945 228.120669 
L 628.659729 228.856863 
L 626.06535 229.525792 
L 623.970677 230.342784 
L 622.350765 231.274715 
L 621.52535 231.914348 
L 621.274843 232.314833 
L 621.333822 232.464655 
L 621.783305 232.677405 
L 623.162148 232.91717 
L 628.260011 233.473265 
L 633.686477 233.856802 
L 640.429245 234.095868 
L 648.913929 234.157497 
L 656.278245 233.998253 
L 662.651873 233.623513 
L 668.77157 233.048831 
L 675.254603 232.282543 
L 675.254603 232.282543 
" style="fill:none;stroke:#000000;stroke-linecap:square;stroke-opacity:0.7;stroke-width:1.2;"/>
   </g>
   <g id="line2d_22">
    <path clip-path="url(#pba9e0e318f)" d="M 675.414 189.196416 
L 656.299798 184.735927 
L 650.891048 183.754224 
L 646.864656 183.246223 
L 643.077164 183.005439 
L 639.720117 183.030882 
L 636.375652 183.32047 
L 633.505837 183.805003 
L 630.716654 184.500711 
L 628.171766 185.339375 
L 625.381887 186.50733 
L 623.65678 187.4023 
L 622.191754 188.378582 
L 621.551973 189.066342 
L 621.447906 189.51192 
L 621.71471 189.93263 
L 622.415777 190.341492 
L 623.543654 190.726674 
L 625.355907 191.105669 
L 627.781866 191.343892 
L 630.781401 191.373676 
L 652.176564 190.885451 
L 660.028305 190.532851 
L 667.669988 189.944248 
L 675.490909 189.19313 
L 675.490909 189.19313 
" style="fill:none;stroke:#000000;stroke-linecap:square;stroke-opacity:0.7;stroke-width:1.2;"/>
   </g>
   <g id="line2d_23">
    <path clip-path="url(#pba9e0e318f)" d="M 675.209472 145.940184 
L 659.940196 142.88694 
L 650.13722 140.948495 
L 646.080732 140.372693 
L 642.425784 140.088557 
L 639.056803 140.071048 
L 636.365265 140.23575 
L 633.326536 140.606855 
L 630.059178 141.219092 
L 626.9533 142.043925 
L 625.035675 142.759529 
L 624.113885 143.225182 
L 622.997371 144.051109 
L 622.320222 144.91984 
L 622.025997 145.589096 
L 621.992745 146.222311 
L 622.205364 146.577055 
L 622.694036 146.894638 
L 623.52959 147.181383 
L 625.599478 147.605673 
L 628.943098 148.067586 
L 633.951853 148.523993 
L 638.805541 148.764652 
L 644.648489 148.82334 
L 649.984719 148.67474 
L 656.230631 148.269728 
L 662.897468 147.588677 
L 671.983422 146.402827 
L 675.283224 145.94218 
L 675.283224 145.94218 
" style="fill:none;stroke:#000000;stroke-linecap:square;stroke-opacity:0.7;stroke-width:1.2;"/>
   </g>
   <g id="line2d_24">
    <path clip-path="url(#pba9e0e318f)" d="M 675.078607 102.703546 
L 669.762221 101.28368 
L 664.181085 100.032569 
L 655.651207 98.386904 
L 648.989009 97.258448 
L 645.535191 96.850336 
L 642.629855 96.68476 
L 639.44044 96.739451 
L 636.421861 97.027951 
L 633.198673 97.578939 
L 630.099306 98.335225 
L 623.20433 100.303339 
L 621.101118 101.108149 
L 620.231389 101.675147 
L 620.027967 101.92179 
L 619.924417 102.299211 
L 620.100937 102.710754 
L 620.708921 103.192176 
L 621.730146 103.646383 
L 623.658767 104.181641 
L 626.041578 104.602003 
L 629.676227 104.980237 
L 633.512402 105.163987 
L 638.401826 105.181427 
L 644.977743 104.955458 
L 655.789992 104.310666 
L 667.801086 103.406491 
L 675.128003 102.739903 
L 675.128003 102.739903 
" style="fill:none;stroke:#000000;stroke-linecap:square;stroke-opacity:0.7;stroke-width:1.2;"/>
   </g>
   <g id="line2d_25">
    <path clip-path="url(#pba9e0e318f)" d="M 675.281588 59.705204 
L 662.194214 57.787044 
L 648.979703 55.833212 
L 645.354376 55.553638 
L 641.801676 55.50535 
L 637.826812 55.731476 
L 634.030971 56.193942 
L 629.768905 56.945498 
L 626.115188 57.780106 
L 623.612927 58.56351 
L 622.426066 59.164217 
L 621.908866 59.631482 
L 621.744827 59.995126 
L 621.808727 60.270021 
L 622.106796 60.51248 
L 622.901487 60.742587 
L 624.389392 60.905146 
L 630.634112 61.462235 
L 637.714979 62.072816 
L 643.692283 62.353065 
L 649.618802 62.415437 
L 654.940816 62.263302 
L 660.001045 61.894072 
L 665.115368 61.28651 
L 670.700855 60.412362 
L 675.35314 59.585481 
L 675.35314 59.585481 
" style="fill:none;stroke:#000000;stroke-linecap:square;stroke-opacity:0.7;stroke-width:1.2;"/>
   </g>
  </g>
 </g>
 <defs>
  <clipPath id="pba9e0e318f">
   <rect height="262.08" width="694.08" x="12.96" y="12.96"/>
  </clipPath>
 </defs>
</svg>
