<?xml version="1.0" encoding="utf-8" standalone="no"?>
<!DOCTYPE svg PUBLIC "-//W3C//DTD SVG 1.1//EN"
  "http://www.w3.org/Graphics/SVG/1.1/DTD/svg11.dtd">
<!-- Created with matplotlib (https://matplotlib.org/) -->
<svg height="288pt" version="1.1" viewBox="0 0 720 288" width="720pt" xmlns="http://www.w3.org/2000/svg" xmlns:xlink="http://www.w3.org/1999/xlink">
 <defs>
  <style type="text/css">
*{stroke-linecap:butt;stroke-linejoin:round;}
  </style>
 </defs>
 <g id="figure_1">
  <g id="patch_1">
   <path d="M 0 288 
L 720 288 
L 720 0 
L 0 0 
z
" style="fill:#ffffff;"/>
  </g>
  <g id="axes_1">
   <g id="line2d_1">
    <path clip-path="url(#pe80266019f)" d="M 145.662626 226.253929 
L 140.439438 224.965942 
L 121.585965 220.092857 
L 115.426392 218.84733 
L 108.700636 217.735966 
L 100.2772 216.605881 
L 92.561529 215.805489 
L 86.053066 215.338275 
L 79.321771 215.102143 
L 73.620296 215.130767 
L 68.503958 215.372586 
L 64.108014 215.809677 
L 61.039998 216.305791 
L 57.992201 217.032481 
L 55.278734 217.958352 
L 52.98637 219.023642 
L 50.804404 220.371748 
L 49.447365 221.442942 
L 48.135109 222.744446 
L 47.30048 223.812733 
L 46.690106 224.881729 
L 46.369754 225.922184 
L 46.376034 226.552823 
L 46.695838 227.251891 
L 47.40646 227.829711 
L 48.609197 228.335066 
L 50.995933 228.90581 
L 54.722203 229.453346 
L 60.044425 229.970261 
L 67.302825 230.414416 
L 74.442083 230.609816 
L 82.704698 230.579327 
L 103.76133 230.231881 
L 111.802438 229.927314 
L 118.419429 229.473384 
L 126.559805 228.674859 
L 138.102044 227.299884 
L 145.673501 226.313031 
L 145.673501 226.313031 
" style="fill:none;stroke:#000000;stroke-linecap:square;stroke-opacity:0.7;stroke-width:1.2;"/>
   </g>
   <g id="line2d_2">
    <path clip-path="url(#pe80266019f)" d="M 145.662601 186.511997 
L 140.897558 185.431754 
L 130.744777 182.797609 
L 116.368524 179.05475 
L 109.099232 177.396004 
L 101.686767 175.912737 
L 95.416916 174.856774 
L 89.341295 174.075686 
L 83.988305 173.657221 
L 79.506221 173.547203 
L 75.291529 173.665717 
L 71.141936 174.004418 
L 66.824439 174.613353 
L 63.65465 175.257435 
L 60.22773 176.186273 
L 57.772831 177.030355 
L 54.431607 178.468286 
L 51.510027 180.060891 
L 49.04568 181.729376 
L 47.361836 183.121498 
L 45.631044 184.950874 
L 44.839097 186.154256 
L 44.550743 186.909389 
L 44.514683 187.479134 
L 44.635665 187.844741 
L 45.13855 188.32075 
L 46.263584 188.689815 
L 48.08153 188.874785 
L 51.507268 188.858277 
L 57.487524 188.486485 
L 67.81047 187.526551 
L 76.480726 186.737801 
L 82.126297 186.473092 
L 90.992423 186.353957 
L 104.975306 186.420298 
L 137.339082 186.689128 
L 145.656304 186.576513 
L 145.656304 186.576513 
" style="fill:none;stroke:#000000;stroke-linecap:square;stroke-opacity:0.7;stroke-width:1.2;"/>
   </g>
   <g id="line2d_3">
    <path clip-path="url(#pe80266019f)" d="M 145.676343 146.783038 
L 131.292191 142.049629 
L 125.871751 140.468621 
L 120.521262 139.146071 
L 114.231394 137.871923 
L 107.426821 136.721384 
L 99.598418 135.618997 
L 92.528789 134.849538 
L 86.930948 134.449145 
L 82.554683 134.306379 
L 77.286226 134.372643 
L 72.375628 134.696468 
L 67.617022 135.28807 
L 63.7904 136.017091 
L 61.237736 136.671311 
L 58.355127 137.623777 
L 55.915414 138.657579 
L 54.167653 139.561895 
L 51.664716 141.177383 
L 49.890968 142.671011 
L 48.921511 143.726459 
L 48.188206 144.886345 
L 48.057357 145.316412 
L 48.057374 145.655621 
L 48.279151 146.039756 
L 48.841402 146.330521 
L 49.810226 146.522337 
L 51.603647 146.650352 
L 56.784633 146.687732 
L 71.802492 146.432755 
L 81.097368 146.377137 
L 93.658716 146.591591 
L 121.251806 147.14103 
L 133.916333 147.061241 
L 145.676204 146.844405 
L 145.676204 146.844405 
" style="fill:none;stroke:#000000;stroke-linecap:square;stroke-opacity:0.7;stroke-width:1.2;"/>
   </g>
   <g id="line2d_4">
    <path clip-path="url(#pe80266019f)" d="M 145.657637 107.048805 
L 141.278072 106.468412 
L 135.941736 105.476148 
L 117.367723 101.863632 
L 109.622855 100.742039 
L 100.709698 99.689786 
L 91.463998 98.822614 
L 83.561868 98.311042 
L 77.130372 98.108339 
L 70.782391 98.153326 
L 65.829493 98.428679 
L 61.677395 98.908001 
L 58.156761 99.568766 
L 55.324245 100.323981 
L 52.281709 101.424036 
L 49.956472 102.538271 
L 48.008219 103.753056 
L 46.524239 105.004395 
L 45.870969 105.773813 
L 45.476993 106.471749 
L 45.339518 107.211632 
L 45.4506 107.620486 
L 45.828832 108.071646 
L 46.704132 108.537116 
L 47.970179 108.891671 
L 49.91991 109.212181 
L 53.725405 109.565356 
L 59.864166 109.855 
L 68.315646 109.997153 
L 79.135625 109.911725 
L 95.302391 109.802324 
L 110.180128 109.640354 
L 118.50501 109.317093 
L 127.14909 108.744043 
L 139.756519 107.670776 
L 145.662639 107.109425 
L 145.662639 107.109425 
" style="fill:none;stroke:#000000;stroke-linecap:square;stroke-opacity:0.7;stroke-width:1.2;"/>
   </g>
   <g id="line2d_5">
    <path clip-path="url(#pe80266019f)" d="M 145.651946 67.322401 
L 139.171673 65.888486 
L 123.079269 62.218066 
L 116.590615 61.008124 
L 107.945884 59.653973 
L 99.232151 58.531437 
L 92.181238 57.840994 
L 86.452489 57.486417 
L 81.531229 57.378108 
L 76.12667 57.507196 
L 70.864315 57.908491 
L 66.239498 58.519943 
L 62.017128 59.353715 
L 58.501502 60.319493 
L 55.337737 61.464658 
L 52.563256 62.752944 
L 50.288601 64.110822 
L 49.20888 64.935773 
L 48.233267 66.007706 
L 48.046842 66.60582 
L 48.162456 66.907162 
L 48.537824 67.184043 
L 49.364531 67.430875 
L 51.041496 67.639393 
L 54.54945 67.809318 
L 64.296004 67.968542 
L 79.299266 68.008563 
L 115.564992 67.856242 
L 131.20049 67.699126 
L 145.653917 67.387406 
L 145.653917 67.387406 
" style="fill:none;stroke:#000000;stroke-linecap:square;stroke-opacity:0.7;stroke-width:1.2;"/>
   </g>
   <g id="line2d_6">
    <path clip-path="url(#pe80266019f)" d="M 278.105698 226.247277 
L 273.558925 225.628212 
L 267.177015 224.434063 
L 245.842957 220.2589 
L 236.837858 218.873862 
L 228.10077 217.762952 
L 221.844014 217.158152 
L 216.139874 216.809594 
L 210.69824 216.713748 
L 205.439371 216.881951 
L 200.843881 217.27429 
L 196.50975 217.910807 
L 193.383766 218.579035 
L 189.838124 219.605054 
L 187.38738 220.514939 
L 184.49978 221.852358 
L 182.262657 223.163643 
L 180.611889 224.399064 
L 179.715348 225.281179 
L 179.166884 226.061941 
L 178.968386 226.806216 
L 179.060289 227.159723 
L 179.457448 227.582065 
L 180.437214 227.999638 
L 181.893764 228.300775 
L 184.975139 228.620463 
L 190.467012 228.881199 
L 198.212414 229.011768 
L 205.98637 228.953751 
L 212.177454 228.707431 
L 221.987471 228.029342 
L 243.678234 226.530237 
L 252.218147 226.132367 
L 259.918737 225.994825 
L 269.393878 226.067946 
L 278.107757 226.302027 
L 278.107757 226.302027 
" style="fill:none;stroke:#000000;stroke-linecap:square;stroke-opacity:0.7;stroke-width:1.2;"/>
   </g>
   <g id="line2d_7">
    <path clip-path="url(#pe80266019f)" d="M 278.087535 186.507857 
L 274.740319 186.228487 
L 268.948093 185.349763 
L 261.647697 183.996072 
L 245.883048 181.002703 
L 237.098385 179.630004 
L 229.436051 178.66411 
L 223.890176 178.152208 
L 218.125849 177.852739 
L 213.256638 177.826826 
L 209.26187 177.971763 
L 203.55616 178.425532 
L 198.088215 179.112611 
L 192.921921 180.012851 
L 188.766238 180.990094 
L 185.178063 182.125094 
L 182.91066 183.075685 
L 180.788598 184.300451 
L 179.906681 185.056278 
L 179.444935 185.692827 
L 179.301538 186.32926 
L 179.486613 186.84031 
L 179.930179 187.290397 
L 180.842527 187.820547 
L 182.356007 188.406621 
L 185.307301 189.233622 
L 189.299364 190.104519 
L 193.842687 190.922198 
L 200.086807 191.82583 
L 205.615748 192.395948 
L 210.720637 192.673976 
L 216.65313 192.73156 
L 226.573899 192.548202 
L 236.497498 192.142107 
L 243.344619 191.662072 
L 249.339667 191.035147 
L 257.254112 189.942516 
L 270.590512 187.807117 
L 278.091015 186.561803 
L 278.091015 186.561803 
" style="fill:none;stroke:#000000;stroke-linecap:square;stroke-opacity:0.7;stroke-width:1.2;"/>
   </g>
   <g id="line2d_8">
    <path clip-path="url(#pe80266019f)" d="M 278.096756 146.7739 
L 273.856959 146.433298 
L 268.020468 145.60928 
L 248.294636 142.589509 
L 240.58835 141.804141 
L 231.799989 141.139172 
L 221.479557 140.580504 
L 212.02784 140.305987 
L 205.321115 140.304101 
L 199.946709 140.471008 
L 195.165915 140.808564 
L 191.207077 141.276554 
L 187.766744 141.864533 
L 184.25444 142.696029 
L 181.403908 143.624152 
L 179.744099 144.340346 
L 178.414057 145.09699 
L 177.181239 146.265413 
L 177.001349 146.81326 
L 177.154939 147.313313 
L 177.48006 147.630886 
L 178.395981 148.077955 
L 179.351203 148.354193 
L 181.528793 148.755143 
L 185.455902 149.18615 
L 191.728733 149.578825 
L 198.783926 149.791921 
L 207.043753 149.791129 
L 230.928628 149.457045 
L 244.770397 149.265551 
L 252.135401 148.958799 
L 261.856676 148.294265 
L 274.736309 147.161437 
L 278.095158 146.836183 
L 278.095158 146.836183 
" style="fill:none;stroke:#000000;stroke-linecap:square;stroke-opacity:0.7;stroke-width:1.2;"/>
   </g>
   <g id="line2d_9">
    <path clip-path="url(#pe80266019f)" d="M 278.119125 107.049634 
L 272.500746 105.762969 
L 261.066868 103.078227 
L 255.792183 102.065551 
L 250.854475 101.340641 
L 245.239758 100.733473 
L 236.928934 100.093835 
L 226.786488 99.5578 
L 217.158013 99.247877 
L 208.583457 99.180582 
L 202.859598 99.315386 
L 197.815143 99.651565 
L 193.582742 100.188272 
L 190.009395 100.893955 
L 187.39607 101.597861 
L 184.780927 102.51123 
L 182.216784 103.709985 
L 181.029423 104.440377 
L 179.963503 105.297211 
L 179.357912 106.008832 
L 179.056204 106.785888 
L 179.082105 107.095575 
L 179.443149 107.626243 
L 179.979901 107.948136 
L 181.36609 108.368088 
L 183.454142 108.694351 
L 186.864897 108.986719 
L 192.716121 109.236062 
L 200.443683 109.323769 
L 207.630443 109.169294 
L 213.241648 108.831335 
L 246.093379 106.43911 
L 253.028513 106.209313 
L 260.399024 106.220818 
L 268.777569 106.512278 
L 278.120073 107.097277 
L 278.120073 107.097277 
" style="fill:none;stroke:#000000;stroke-linecap:square;stroke-opacity:0.7;stroke-width:1.2;"/>
   </g>
   <g id="line2d_10">
    <path clip-path="url(#pe80266019f)" d="M 278.094931 67.312965 
L 273.39195 66.630345 
L 264.616817 64.950089 
L 254.534492 63.023685 
L 247.762683 61.951939 
L 239.038143 60.799495 
L 228.636305 59.642492 
L 218.880689 58.777304 
L 211.458366 58.337138 
L 205.629406 58.1949 
L 200.97138 58.279687 
L 196.848856 58.587832 
L 193.950305 58.991208 
L 190.803382 59.650508 
L 187.689924 60.569743 
L 185.286765 61.492378 
L 183.421797 62.364686 
L 181.23782 63.622834 
L 179.871024 64.617892 
L 178.694311 65.770157 
L 178.179562 66.643042 
L 178.11412 67.096898 
L 178.316334 67.58924 
L 178.568879 67.819221 
L 179.239223 68.152805 
L 180.914663 68.554164 
L 183.495543 68.858729 
L 189.297509 69.181864 
L 197.237711 69.365695 
L 218.196898 69.713375 
L 245.193137 70.607857 
L 250.763696 70.476687 
L 256.538592 70.098136 
L 264.327132 69.302355 
L 272.796525 68.184573 
L 278.102945 67.374279 
L 278.102945 67.374279 
" style="fill:none;stroke:#000000;stroke-linecap:square;stroke-opacity:0.7;stroke-width:1.2;"/>
   </g>
   <g id="line2d_11">
    <path clip-path="url(#pe80266019f)" d="M 410.558263 226.241368 
L 405.896061 225.305219 
L 396.806089 223.100348 
L 386.842918 220.724017 
L 380.16922 219.413429 
L 372.151251 218.133934 
L 364.34379 217.10314 
L 356.303285 216.252235 
L 349.372847 215.737343 
L 342.923772 215.497435 
L 336.949646 215.532653 
L 332.868639 215.743729 
L 328.481095 216.215209 
L 325.625166 216.707607 
L 322.94421 217.337496 
L 319.664839 218.370017 
L 316.932253 219.492659 
L 314.008751 221.035694 
L 312.175085 222.266656 
L 310.611163 223.610942 
L 309.842122 224.50071 
L 309.399034 225.256304 
L 309.251331 226.031875 
L 309.392117 226.43619 
L 309.823305 226.83264 
L 310.804676 227.198307 
L 312.707124 227.471475 
L 316.044792 227.602718 
L 321.622572 227.54365 
L 332.240442 227.153381 
L 342.714903 226.806463 
L 350.886243 226.800014 
L 369.666422 227.093569 
L 382.988707 227.206959 
L 392.769354 227.02279 
L 404.621659 226.583377 
L 410.569663 226.303891 
L 410.569663 226.303891 
" style="fill:none;stroke:#000000;stroke-linecap:square;stroke-opacity:0.7;stroke-width:1.2;"/>
   </g>
   <g id="line2d_12">
    <path clip-path="url(#pe80266019f)" d="M 410.562191 186.520724 
L 405.66146 185.250367 
L 388.286626 180.615713 
L 382.546358 179.364103 
L 375.676981 178.093894 
L 367.01259 176.717242 
L 359.047214 175.635965 
L 351.494715 174.816223 
L 345.645893 174.376559 
L 339.884073 174.172872 
L 335.551579 174.220817 
L 331.879403 174.451754 
L 328.238077 174.933348 
L 325.526351 175.525188 
L 322.915243 176.348625 
L 320.361009 177.458141 
L 318.752979 178.343432 
L 316.569458 179.83133 
L 314.632672 181.520764 
L 313.428487 182.852508 
L 312.588308 184.044638 
L 312.099904 185.041045 
L 311.939888 185.957856 
L 312.03258 186.325138 
L 312.15651 186.52329 
L 312.687922 186.901225 
L 313.73341 187.172498 
L 315.997678 187.326056 
L 320.114447 187.267889 
L 329.36887 186.817245 
L 342.807352 186.160047 
L 349.890698 186.07219 
L 360.955319 186.167311 
L 400.566597 186.712154 
L 410.564768 186.583718 
L 410.564768 186.583718 
" style="fill:none;stroke:#000000;stroke-linecap:square;stroke-opacity:0.7;stroke-width:1.2;"/>
   </g>
   <g id="line2d_13">
    <path clip-path="url(#pe80266019f)" d="M 410.563164 146.778594 
L 406.266206 145.898128 
L 397.043659 143.681198 
L 386.650264 141.243488 
L 380.507534 140.05123 
L 374.447033 139.078029 
L 366.325402 138.01921 
L 358.919252 137.292438 
L 353.277695 136.930569 
L 347.887851 136.784085 
L 342.71909 136.856666 
L 337.544069 137.153065 
L 332.402484 137.689656 
L 327.793065 138.430386 
L 323.973685 139.306458 
L 320.547777 140.376874 
L 318.120238 141.355629 
L 315.571311 142.658209 
L 313.770176 143.835528 
L 312.538991 144.857637 
L 311.630903 145.864133 
L 311.20503 146.570779 
L 311.023061 147.312402 
L 311.104306 147.71968 
L 311.319386 148.041068 
L 311.836478 148.406708 
L 313.006316 148.798645 
L 314.610013 149.072825 
L 318.267081 149.38116 
L 324.447704 149.593692 
L 332.652842 149.636766 
L 340.404937 149.458552 
L 346.108695 149.111121 
L 380.255509 146.509526 
L 387.759927 146.287197 
L 395.793602 146.308706 
L 403.649503 146.522139 
L 410.557025 146.827313 
L 410.557025 146.827313 
" style="fill:none;stroke:#000000;stroke-linecap:square;stroke-opacity:0.7;stroke-width:1.2;"/>
   </g>
   <g id="line2d_14">
    <path clip-path="url(#pe80266019f)" d="M 410.548424 107.037684 
L 406.368454 106.641174 
L 401.310347 105.861702 
L 392.02616 104.161447 
L 382.183836 102.374522 
L 373.618466 101.058862 
L 365.129336 99.960662 
L 357.414353 99.162633 
L 352.459201 98.79286 
L 346.38575 98.550424 
L 340.598895 98.575952 
L 335.341079 98.833283 
L 330.305537 99.321331 
L 326.724071 99.856818 
L 323.238472 100.578191 
L 320.730382 101.250038 
L 317.957896 102.178252 
L 315.461512 103.230879 
L 313.570305 104.227281 
L 312.155878 105.162761 
L 311.007731 106.201217 
L 310.499985 107.057156 
L 310.526549 107.614545 
L 310.740025 107.914291 
L 311.220661 108.240438 
L 312.569904 108.699265 
L 315.271408 109.180655 
L 319.428561 109.62967 
L 326.129734 110.102451 
L 334.732309 110.469162 
L 342.982749 110.588093 
L 364.46208 110.498236 
L 374.949828 110.300662 
L 381.875773 109.966852 
L 389.755135 109.334328 
L 401.046751 108.171978 
L 410.551941 107.089368 
L 410.551941 107.089368 
" style="fill:none;stroke:#000000;stroke-linecap:square;stroke-opacity:0.7;stroke-width:1.2;"/>
   </g>
   <g id="line2d_15">
    <path clip-path="url(#pe80266019f)" d="M 410.537447 67.315045 
L 407.511696 67.020644 
L 401.131126 66.055277 
L 376.235579 61.958559 
L 367.225138 60.898247 
L 358.1575 60.069169 
L 350.953633 59.632497 
L 345.491486 59.478304 
L 338.729554 59.533748 
L 332.99197 59.816523 
L 328.124864 60.27369 
L 324.425826 60.812064 
L 320.533507 61.636065 
L 317.855655 62.416865 
L 315.306285 63.395129 
L 313.226778 64.462298 
L 311.937749 65.355538 
L 311.067222 66.222193 
L 310.713411 66.842341 
L 310.671586 67.443063 
L 310.806361 67.735779 
L 311.328337 68.200257 
L 312.332905 68.649961 
L 314.312003 69.173942 
L 317.434841 69.723349 
L 322.029437 70.313766 
L 329.347198 71.004253 
L 337.314615 71.508028 
L 346.238867 71.817054 
L 371.448723 72.447258 
L 377.178937 72.35845 
L 382.667981 72.019862 
L 387.201795 71.539344 
L 393.158452 70.694896 
L 401.176079 69.290447 
L 409.183084 67.658461 
L 410.523976 67.365122 
L 410.523976 67.365122 
" style="fill:none;stroke:#000000;stroke-linecap:square;stroke-opacity:0.7;stroke-width:1.2;"/>
   </g>
   <g id="line2d_16">
    <path clip-path="url(#pe80266019f)" d="M 542.99658 226.250678 
L 521.949131 221.271117 
L 516.500316 220.405095 
L 510.340687 219.705198 
L 502.516862 219.087015 
L 493.88572 218.629486 
L 485.457711 218.393848 
L 477.859941 218.423653 
L 471.264144 218.708965 
L 465.562427 219.205639 
L 460.96407 219.826033 
L 456.774337 220.613364 
L 452.787189 221.613208 
L 449.654901 222.623037 
L 447.130012 223.642464 
L 444.79166 224.867943 
L 443.6834 225.654754 
L 442.916898 226.499199 
L 442.806011 227.009655 
L 442.946031 227.245049 
L 443.380401 227.47848 
L 444.377703 227.652266 
L 446.312322 227.693374 
L 449.769827 227.525998 
L 457.164785 226.903082 
L 477.880267 224.97813 
L 485.681236 224.670222 
L 496.731227 224.490047 
L 507.827646 224.527736 
L 516.088376 224.772296 
L 527.675897 225.397687 
L 542.994471 226.315572 
L 542.994471 226.315572 
" style="fill:none;stroke:#000000;stroke-linecap:square;stroke-opacity:0.7;stroke-width:1.2;"/>
   </g>
   <g id="line2d_17">
    <path clip-path="url(#pe80266019f)" d="M 542.9858 186.50969 
L 538.195823 185.486498 
L 527.624559 182.835627 
L 518.495139 180.623123 
L 511.744045 179.239338 
L 503.480076 177.798481 
L 495.885065 176.668242 
L 488.534987 175.784614 
L 482.42358 175.274716 
L 476.732427 175.044603 
L 471.421526 175.080941 
L 466.948491 175.334461 
L 463.867456 175.662541 
L 460.81397 176.152478 
L 457.867888 176.823663 
L 455.251205 177.617666 
L 452.734047 178.58454 
L 450.153578 179.812868 
L 447.711811 181.241571 
L 445.967254 182.473055 
L 444.055041 184.163423 
L 443.118521 185.319386 
L 442.799163 185.963162 
L 442.728247 186.402274 
L 442.912855 186.873809 
L 443.272322 187.141291 
L 444.122346 187.407833 
L 445.535473 187.571581 
L 448.162789 187.622216 
L 453.695682 187.435064 
L 475.421287 186.404616 
L 481.800986 186.480788 
L 493.379729 186.896196 
L 515.467096 187.756522 
L 522.056545 187.719492 
L 529.565574 187.455819 
L 538.272177 186.937113 
L 542.985686 186.57239 
L 542.985686 186.57239 
" style="fill:none;stroke:#000000;stroke-linecap:square;stroke-opacity:0.7;stroke-width:1.2;"/>
   </g>
   <g id="line2d_18">
    <path clip-path="url(#pe80266019f)" d="M 543.041047 146.780955 
L 527.576416 141.457801 
L 517.987854 138.361715 
L 511.684092 136.548947 
L 506.360217 135.214503 
L 501.385765 134.146668 
L 496.164778 133.238799 
L 492.567494 132.763159 
L 487.778477 132.354411 
L 483.761065 132.235073 
L 479.263265 132.362992 
L 475.603937 132.673905 
L 471.165279 133.292415 
L 467.316005 134.033822 
L 463.345432 134.996621 
L 459.004669 136.302732 
L 456.0731 137.370075 
L 453.467041 138.48544 
L 450.311834 140.128144 
L 448.433797 141.323275 
L 446.898973 142.477388 
L 445.437493 143.797455 
L 444.181203 145.220563 
L 443.25193 146.637054 
L 442.789164 147.700682 
L 442.602844 148.766178 
L 442.694089 149.377947 
L 443.003043 149.949761 
L 443.137753 150.101259 
L 444.361609 150.864438 
L 446.1942 151.422968 
L 448.30049 151.820075 
L 451.806734 152.257102 
L 457.376994 152.685938 
L 463.341969 152.930064 
L 469.409224 152.971573 
L 474.57103 152.797868 
L 480.867573 152.328592 
L 493.354499 151.098893 
L 505.832438 149.682025 
L 521.646133 147.842171 
L 527.620075 147.360675 
L 535.7014 146.961511 
L 543.01967 146.819592 
L 543.01967 146.819592 
" style="fill:none;stroke:#000000;stroke-linecap:square;stroke-opacity:0.7;stroke-width:1.2;"/>
   </g>
   <g id="line2d_19">
    <path clip-path="url(#pe80266019f)" d="M 543.023225 107.044453 
L 536.973656 104.625917 
L 529.881487 102.034007 
L 524.928691 100.457001 
L 520.517227 99.294252 
L 516.142481 98.379359 
L 511.541192 97.625034 
L 505.600609 96.873298 
L 497.949822 96.167068 
L 490.880589 95.744535 
L 485.498595 95.591525 
L 479.986132 95.623826 
L 474.931704 95.853425 
L 469.351648 96.35745 
L 465.228616 96.923554 
L 461.296777 97.657306 
L 457.5995 98.578479 
L 454.063834 99.746813 
L 451.186069 100.982409 
L 448.616157 102.394924 
L 446.909682 103.581796 
L 445.406184 104.943736 
L 444.772846 105.745611 
L 444.429993 106.547748 
L 444.486456 106.939853 
L 444.762525 107.207553 
L 445.430832 107.411183 
L 446.835358 107.496542 
L 449.34885 107.401852 
L 456.219673 106.834372 
L 475.718153 105.090444 
L 484.647441 104.650614 
L 495.943155 104.342286 
L 505.942933 104.289444 
L 512.612905 104.450142 
L 519.038069 104.836731 
L 528.563508 105.68615 
L 543.025998 107.0829 
L 543.025998 107.0829 
" style="fill:none;stroke:#000000;stroke-linecap:square;stroke-opacity:0.7;stroke-width:1.2;"/>
   </g>
   <g id="line2d_20">
    <path clip-path="url(#pe80266019f)" d="M 542.980337 67.319712 
L 540.014633 66.809645 
L 532.280053 65.118316 
L 516.074147 61.447833 
L 508.748924 60.103319 
L 501.519268 59.005236 
L 494.33758 58.145166 
L 488.470715 57.665859 
L 482.913378 57.460155 
L 477.475081 57.534345 
L 472.822409 57.815983 
L 468.601602 58.232672 
L 462.653281 59.076077 
L 458.749685 59.824472 
L 454.451677 60.90534 
L 450.945793 62.079971 
L 448.399499 63.180923 
L 446.664139 64.111677 
L 444.998004 65.228226 
L 443.903924 66.179408 
L 443.064015 67.213409 
L 442.71605 68.042525 
L 442.711185 68.539099 
L 442.859639 68.907336 
L 443.357344 69.381467 
L 443.812107 69.619809 
L 445.289999 70.060695 
L 447.239928 70.374474 
L 450.200294 70.648793 
L 456.229372 70.917225 
L 464.119365 70.995241 
L 472.419049 70.837572 
L 511.202473 69.36165 
L 523.027324 68.748433 
L 539.120941 67.666152 
L 542.975114 67.380822 
L 542.975114 67.380822 
" style="fill:none;stroke:#000000;stroke-linecap:square;stroke-opacity:0.7;stroke-width:1.2;"/>
   </g>
   <g id="line2d_21">
    <path clip-path="url(#pe80266019f)" d="M 675.439779 226.248767 
L 672.55072 226.077566 
L 666.928911 225.393332 
L 655.600445 223.677861 
L 647.75362 222.60061 
L 639.986844 221.774933 
L 632.577442 221.167002 
L 623.206619 220.620255 
L 616.152956 220.416708 
L 609.708672 220.444871 
L 603.028554 220.711173 
L 596.23163 221.203465 
L 589.90276 221.885929 
L 585.506195 222.571871 
L 581.827591 223.386397 
L 579.369054 224.159799 
L 577.838986 224.841474 
L 577.004147 225.379504 
L 576.614798 225.757484 
L 576.376756 226.309431 
L 576.46352 226.63657 
L 576.940803 227.078667 
L 577.969935 227.526323 
L 579.981446 228.044812 
L 584.113691 228.74371 
L 590.521785 229.513739 
L 596.922504 230.077299 
L 602.983029 230.41389 
L 607.665662 230.481638 
L 613.791481 230.312791 
L 630.609371 229.487819 
L 645.997655 228.568374 
L 665.851843 227.04791 
L 675.433002 226.317785 
L 675.433002 226.317785 
" style="fill:none;stroke:#000000;stroke-linecap:square;stroke-opacity:0.7;stroke-width:1.2;"/>
   </g>
   <g id="line2d_22">
    <path clip-path="url(#pe80266019f)" d="M 675.450433 186.505449 
L 670.959608 185.919427 
L 664.84917 184.80607 
L 650.889608 182.1655 
L 643.54943 181.098789 
L 635.627166 180.212364 
L 627.953206 179.553179 
L 620.433687 179.103629 
L 613.987666 178.916407 
L 608.158832 178.942906 
L 601.320082 179.232491 
L 595.146261 179.759833 
L 590.248386 180.426165 
L 586.922402 181.059585 
L 583.764279 181.847803 
L 581.182582 182.678327 
L 578.890268 183.62861 
L 577.297505 184.493366 
L 576.063866 185.424768 
L 575.473976 186.153238 
L 575.318251 186.579353 
L 575.394984 187.107889 
L 575.901172 187.619663 
L 576.214718 187.793096 
L 577.677883 188.282722 
L 580.268786 188.759416 
L 584.556811 189.240684 
L 590.140161 189.653146 
L 597.733039 190.004543 
L 605.071622 190.126062 
L 612.062187 189.999577 
L 627.797001 189.410688 
L 640.833801 188.743977 
L 675.449517 186.56071 
L 675.449517 186.56071 
" style="fill:none;stroke:#000000;stroke-linecap:square;stroke-opacity:0.7;stroke-width:1.2;"/>
   </g>
   <g id="line2d_23">
    <path clip-path="url(#pe80266019f)" d="M 675.4334 146.779309 
L 670.773902 145.995621 
L 662.855913 144.330494 
L 648.605321 141.271858 
L 640.650418 139.833776 
L 631.726531 138.456803 
L 624.616439 137.559228 
L 618.432915 136.985989 
L 612.319726 136.689011 
L 606.830006 136.705379 
L 601.482164 137.003112 
L 598.452052 137.308306 
L 594.066796 137.971877 
L 590.33671 138.811312 
L 587.139519 139.791098 
L 583.71989 141.163443 
L 581.009505 142.548462 
L 578.968322 143.834896 
L 578.245272 144.365352 
L 576.535701 145.933988 
L 575.913186 146.880183 
L 575.805979 147.511377 
L 575.927072 147.833888 
L 576.296031 148.175994 
L 576.815316 148.414564 
L 578.441119 148.758219 
L 580.847795 148.958707 
L 585.952506 149.0729 
L 594.822706 148.996055 
L 628.56655 148.511504 
L 645.756776 148.301648 
L 655.871626 147.915259 
L 672.916135 146.982894 
L 675.429908 146.833941 
L 675.429908 146.833941 
" style="fill:none;stroke:#000000;stroke-linecap:square;stroke-opacity:0.7;stroke-width:1.2;"/>
   </g>
   <g id="line2d_24">
    <path clip-path="url(#pe80266019f)" d="M 675.490909 107.047704 
L 673.06422 105.901747 
L 666.503721 103.131726 
L 659.69059 100.506812 
L 653.93123 98.517361 
L 649.285101 97.115186 
L 643.987731 95.74875 
L 638.023705 94.456536 
L 631.244065 93.234411 
L 624.758035 92.289692 
L 619.547118 91.707457 
L 614.222324 91.310068 
L 609.168006 91.157208 
L 605.137284 91.220029 
L 600.640579 91.516289 
L 597.360823 91.91132 
L 594.234407 92.464217 
L 591.655299 93.086866 
L 589.168751 93.87466 
L 586.995343 94.760228 
L 585.454532 95.529314 
L 583.742843 96.554175 
L 581.921927 97.887491 
L 580.661449 98.991672 
L 579.204447 100.500191 
L 577.472012 102.729132 
L 576.36689 104.528936 
L 575.621517 106.060776 
L 575.208769 107.190537 
L 574.993837 108.17333 
L 575.052808 109.159727 
L 575.539164 109.862214 
L 576.596264 110.358828 
L 578.038806 110.636116 
L 580.811264 110.835708 
L 584.449797 110.877729 
L 591.968386 110.692203 
L 615.993187 109.858957 
L 647.625832 109.475556 
L 653.991454 109.092495 
L 665.40614 108.128666 
L 675.488983 107.107559 
L 675.488983 107.107559 
" style="fill:none;stroke:#000000;stroke-linecap:square;stroke-opacity:0.7;stroke-width:1.2;"/>
   </g>
   <g id="line2d_25">
    <path clip-path="url(#pe80266019f)" d="M 675.436905 67.317522 
L 670.270506 66.212923 
L 649.291517 61.402584 
L 641.630323 60.052631 
L 633.57066 58.883993 
L 625.590799 58.006179 
L 620.995848 57.677924 
L 615.793277 57.524353 
L 610.964447 57.634224 
L 607.136623 57.906531 
L 601.8445 58.540238 
L 596.608877 59.438579 
L 592.289849 60.392689 
L 588.25175 61.506673 
L 584.892659 62.660365 
L 582.43382 63.694132 
L 580.031401 64.954713 
L 578.798647 65.781608 
L 577.94804 66.529783 
L 577.540651 67.069145 
L 577.421615 67.656661 
L 577.51011 67.848537 
L 577.831545 68.118801 
L 578.600412 68.39523 
L 580.044623 68.630216 
L 583.480254 68.858451 
L 590.620691 69.008588 
L 603.001095 69.02517 
L 624.388254 68.785323 
L 648.451368 68.407837 
L 662.881977 67.915726 
L 675.431562 67.374551 
L 675.431562 67.374551 
" style="fill:none;stroke:#000000;stroke-linecap:square;stroke-opacity:0.7;stroke-width:1.2;"/>
   </g>
  </g>
 </g>
 <defs>
  <clipPath id="pe80266019f">
   <rect height="262.08" width="694.08" x="12.96" y="12.96"/>
  </clipPath>
 </defs>
</svg>
