<?xml version="1.0" encoding="utf-8" standalone="no"?>
<!DOCTYPE svg PUBLIC "-//W3C//DTD SVG 1.1//EN"
  "http://www.w3.org/Graphics/SVG/1.1/DTD/svg11.dtd">
<!-- Created with matplotlib (https://matplotlib.org/) -->
<svg height="288pt" version="1.1" viewBox="0 0 720 288" width="720pt" xmlns="http://www.w3.org/2000/svg" xmlns:xlink="http://www.w3.org/1999/xlink">
 <defs>
  <style type="text/css">
*{stroke-linecap:butt;stroke-linejoin:round;}
  </style>
 </defs>
 <g id="figure_1">
  <g id="patch_1">
   <path d="M 0 288 
L 720 288 
L 720 0 
L 0 0 
z
" style="fill:#ffffff;"/>
  </g>
  <g id="axes_1">
   <g id="line2d_1">
    <path clip-path="url(#p1a8dcb7ea9)" d="M 85.631904 233.499158 
L 82.842179 233.001664 
L 77.262107 232.202581 
L 71.13232 231.532976 
L 65.138352 231.129072 
L 61.289929 231.100028 
L 58.304104 231.259752 
L 54.295426 231.655706 
L 50.954503 232.202737 
L 48.71799 232.804144 
L 47.814171 233.211951 
L 47.357874 233.756508 
L 47.506837 233.952291 
L 48.154098 234.143196 
L 50.333622 234.562982 
L 51.714391 234.829131 
L 53.28431 234.798774 
L 59.937483 234.366586 
L 63.541797 234.074763 
L 72.686177 233.264369 
L 80.703357 232.800806 
L 85.046546 232.641204 
L 85.046546 232.641204 
" style="fill:none;stroke:#000000;stroke-linecap:square;stroke-opacity:0.7;stroke-width:1.2;"/>
   </g>
   <g id="line2d_2">
    <path clip-path="url(#p1a8dcb7ea9)" d="M 86.196981 188.019737 
L 70.721955 185.785823 
L 64.995678 185.315873 
L 61.648995 185.253306 
L 59.118769 185.431458 
L 56.165576 185.822671 
L 52.864814 186.416382 
L 50.52162 186.946433 
L 47.535371 187.817703 
L 45.53041 188.680714 
L 45.0176 189.029477 
L 44.698283 189.563848 
L 44.803085 189.754351 
L 45.074452 189.918182 
L 46.200415 190.152485 
L 51.541932 190.64076 
L 54.493391 190.393653 
L 57.483341 190.27802 
L 61.647911 190.216989 
L 65.740423 189.801447 
L 85.622672 187.459454 
L 85.622672 187.459454 
" style="fill:none;stroke:#000000;stroke-linecap:square;stroke-opacity:0.7;stroke-width:1.2;"/>
   </g>
   <g id="line2d_3">
    <path clip-path="url(#p1a8dcb7ea9)" d="M 84.35151 144.586601 
L 74.292915 142.888781 
L 67.514319 142.033491 
L 63.543566 141.74776 
L 61.684885 141.840812 
L 59.814695 142.19717 
L 54.381354 143.413247 
L 51.690569 143.44158 
L 50.496256 143.565426 
L 47.734361 144.13522 
L 45.891392 144.80332 
L 44.917931 145.372122 
L 44.728639 145.540161 
L 44.545358 146.090574 
L 44.751549 146.281306 
L 45.102435 146.420999 
L 46.584541 146.627519 
L 49.166329 146.683638 
L 55.594011 146.513507 
L 59.716395 146.217885 
L 74.938018 144.786032 
L 83.902714 144.219017 
L 83.902714 144.219017 
" style="fill:none;stroke:#000000;stroke-linecap:square;stroke-opacity:0.7;stroke-width:1.2;"/>
   </g>
   <g id="line2d_4">
    <path clip-path="url(#p1a8dcb7ea9)" d="M 85.194165 100.396526 
L 79.399866 99.349508 
L 72.376226 98.310475 
L 67.731086 97.795436 
L 64.528994 97.651262 
L 62.718632 97.78035 
L 59.332167 98.294393 
L 53.819533 99.339707 
L 50.86817 100.063256 
L 48.22424 100.98882 
L 48.242547 101.130573 
L 48.643231 101.440322 
L 49.369862 101.684562 
L 50.510927 101.806856 
L 53.194205 101.670833 
L 67.440868 100.420674 
L 75.657476 99.937444 
L 83.836647 99.685351 
L 84.539658 99.675317 
L 84.539658 99.675317 
" style="fill:none;stroke:#000000;stroke-linecap:square;stroke-opacity:0.7;stroke-width:1.2;"/>
   </g>
   <g id="line2d_5">
    <path clip-path="url(#p1a8dcb7ea9)" d="M 86.444925 55.591305 
L 80.949822 54.72104 
L 75.394943 54.069639 
L 69.272402 53.606106 
L 64.403241 53.491853 
L 60.889053 53.640573 
L 55.530194 54.118109 
L 52.305582 54.574273 
L 49.699885 55.084842 
L 47.458894 55.689383 
L 45.965167 56.268842 
L 45.034301 56.870817 
L 44.813787 57.271067 
L 44.92427 57.544745 
L 45.114258 57.687371 
L 46.106399 57.973775 
L 47.960058 58.105303 
L 51.209104 58.041439 
L 56.625316 57.668902 
L 58.779398 57.338793 
L 61.445678 56.915212 
L 64.39042 56.739884 
L 85.451091 55.013177 
L 85.750154 54.992969 
L 85.750154 54.992969 
" style="fill:none;stroke:#000000;stroke-linecap:square;stroke-opacity:0.7;stroke-width:1.2;"/>
   </g>
   <g id="line2d_6">
    <path clip-path="url(#p1a8dcb7ea9)" d="M 229.845637 233.036493 
L 228.173929 232.533014 
L 224.564052 231.535726 
L 221.598504 230.856023 
L 218.188357 230.265589 
L 215.201582 230.001877 
L 214.513882 229.998039 
L 212.803562 230.190976 
L 212.161237 230.444206 
L 211.691966 230.922199 
L 211.559515 231.508734 
L 211.515456 231.709645 
L 211.453366 231.645772 
L 210.863817 230.942873 
L 209.645927 230.13653 
L 207.845266 229.477 
L 203.597525 228.816452 
L 199.45446 228.833033 
L 197.624631 229.012575 
L 194.005864 229.723277 
L 192.98224 230.03677 
L 191.0357 230.871852 
L 189.712901 231.925406 
L 189.478802 232.634538 
L 190.081304 233.486923 
L 191.246262 234.056254 
L 192.552157 234.44552 
L 193.503221 234.65823 
L 197.951921 235.260819 
L 201.765776 235.35926 
L 204.72196 235.133 
L 217.797847 233.864724 
L 228.526476 232.96522 
L 228.526476 232.96522 
" style="fill:none;stroke:#000000;stroke-linecap:square;stroke-opacity:0.7;stroke-width:1.2;"/>
   </g>
   <g id="line2d_7">
    <path clip-path="url(#p1a8dcb7ea9)" d="M 232.734953 189.199667 
L 227.225681 188.435378 
L 221.131626 187.788098 
L 215.762676 187.420799 
L 211.239763 187.331396 
L 207.665589 187.493343 
L 203.701749 187.679532 
L 199.412093 187.86874 
L 196.041336 188.227879 
L 194.236005 188.556491 
L 192.969868 188.912891 
L 192.165283 189.378166 
L 192.140394 189.543185 
L 192.469239 189.761421 
L 193.835084 189.93691 
L 196.595838 189.892679 
L 204.3849 189.568435 
L 208.113983 189.868735 
L 211.067807 189.737966 
L 226.327952 188.75027 
L 232.219315 188.536382 
L 232.219315 188.536382 
" style="fill:none;stroke:#000000;stroke-linecap:square;stroke-opacity:0.7;stroke-width:1.2;"/>
   </g>
   <g id="line2d_8">
    <path clip-path="url(#p1a8dcb7ea9)" d="M 234.029568 143.746687 
L 228.704991 142.802273 
L 222.443038 141.9416 
L 215.880672 141.286142 
L 210.429744 140.964965 
L 206.444557 140.940234 
L 203.684867 141.108836 
L 200.546579 141.529733 
L 197.910264 142.119011 
L 197.252158 142.312286 
L 193.70861 144.240402 
L 193.580573 144.575135 
L 193.689534 144.925226 
L 194.243369 145.239171 
L 195.446659 145.456052 
L 200.926795 146.02205 
L 203.612157 145.863487 
L 207.999432 145.569542 
L 211.088781 145.348477 
L 233.196326 143.063356 
L 233.196326 143.063356 
" style="fill:none;stroke:#000000;stroke-linecap:square;stroke-opacity:0.7;stroke-width:1.2;"/>
   </g>
   <g id="line2d_9">
    <path clip-path="url(#p1a8dcb7ea9)" d="M 232.218545 100.752737 
L 229.673109 100.613887 
L 219.307757 99.854659 
L 213.839226 99.266926 
L 210.737105 98.716305 
L 207.82736 98.055696 
L 206.101429 98.015001 
L 204.114253 98.158508 
L 199.220189 98.889081 
L 195.677371 99.670603 
L 191.385656 101.181915 
L 190.727014 101.820766 
L 190.722584 101.952658 
L 191.235612 102.378734 
L 192.100027 102.601562 
L 193.874908 102.809914 
L 199.068407 103.04223 
L 201.077498 102.98569 
L 201.897104 102.885647 
L 204.143771 102.321825 
L 207.750221 101.23964 
L 209.033746 101.121904 
L 222.262785 100.43656 
L 230.047189 100.177323 
L 231.56614 100.175809 
L 231.56614 100.175809 
" style="fill:none;stroke:#000000;stroke-linecap:square;stroke-opacity:0.7;stroke-width:1.2;"/>
   </g>
   <g id="line2d_10">
    <path clip-path="url(#p1a8dcb7ea9)" d="M 232.16371 55.94775 
L 224.062539 54.76728 
L 220.359636 54.48527 
L 216.585509 54.449567 
L 214.182582 54.638423 
L 211.928574 55.092858 
L 209.938373 55.589676 
L 208.714981 55.591278 
L 202.934941 55.319218 
L 198.726456 55.232249 
L 196.138125 55.620261 
L 194.986146 55.913282 
L 192.931539 56.71235 
L 192.3558 57.080714 
L 192.021282 57.481544 
L 192.059823 57.754589 
L 192.358944 57.95675 
L 192.992142 58.118956 
L 194.322037 58.239715 
L 197.842893 58.238407 
L 203.191882 57.995242 
L 207.522969 57.588865 
L 218.760373 56.242804 
L 225.588302 55.763256 
L 231.653387 55.491448 
L 231.653387 55.491448 
" style="fill:none;stroke:#000000;stroke-linecap:square;stroke-opacity:0.7;stroke-width:1.2;"/>
   </g>
   <g id="line2d_11">
    <path clip-path="url(#p1a8dcb7ea9)" d="M 380.831235 233.076826 
L 377.634309 232.429834 
L 372.624549 231.653123 
L 367.291312 231.082747 
L 362.762343 230.836434 
L 359.162893 230.863456 
L 348.894896 231.433195 
L 346.811053 231.723688 
L 344.571956 232.217483 
L 343.135571 232.786516 
L 342.75334 233.204619 
L 342.832334 233.38883 
L 343.411323 233.75139 
L 345.144035 234.571876 
L 346.204787 234.597154 
L 352.437923 234.25975 
L 357.289427 234.119926 
L 365.1671 233.477754 
L 377.943437 232.543563 
L 380.352611 232.370349 
L 380.352611 232.370349 
" style="fill:none;stroke:#000000;stroke-linecap:square;stroke-opacity:0.7;stroke-width:1.2;"/>
   </g>
   <g id="line2d_12">
    <path clip-path="url(#p1a8dcb7ea9)" d="M 381.062649 188.749525 
L 375.412604 188.043783 
L 357.157505 186.107474 
L 354.056277 185.881259 
L 352.369546 185.913464 
L 349.232483 186.245157 
L 346.363581 186.77113 
L 343.147329 187.626641 
L 341.217503 188.396832 
L 340.253587 189.061181 
L 340.137186 189.68721 
L 340.310568 189.844075 
L 341.031221 190.104276 
L 342.1631 190.238857 
L 343.904082 190.265203 
L 350.892526 190.00099 
L 352.458616 189.816257 
L 353.926849 189.950672 
L 355.86844 190.065719 
L 358.580819 189.929598 
L 366.312332 189.214672 
L 378.196111 188.197656 
L 379.964205 188.070725 
L 379.964205 188.070725 
" style="fill:none;stroke:#000000;stroke-linecap:square;stroke-opacity:0.7;stroke-width:1.2;"/>
   </g>
   <g id="line2d_13">
    <path clip-path="url(#p1a8dcb7ea9)" d="M 380.188367 144.600024 
L 372.90774 143.783162 
L 365.816763 143.243715 
L 359.185135 142.968229 
L 354.38454 142.967528 
L 350.856378 143.19309 
L 347.532559 143.649295 
L 345.492666 144.13338 
L 344.019948 144.716387 
L 342.954222 145.212091 
L 341.663973 145.540468 
L 341.534184 145.754537 
L 341.56164 145.84362 
L 341.931948 146.085012 
L 342.987492 146.291582 
L 346.447477 146.43173 
L 352.738787 146.365387 
L 355.815418 146.11911 
L 366.834373 144.86807 
L 374.361549 144.350542 
L 379.724364 144.115639 
L 379.724364 144.115639 
" style="fill:none;stroke:#000000;stroke-linecap:square;stroke-opacity:0.7;stroke-width:1.2;"/>
   </g>
   <g id="line2d_14">
    <path clip-path="url(#p1a8dcb7ea9)" d="M 377.286224 100.596162 
L 376.057382 100.217295 
L 371.987802 99.037222 
L 369.160313 98.369921 
L 365.659579 97.789814 
L 363.043021 97.652439 
L 360.754778 98.063432 
L 359.849924 98.661796 
L 359.099217 99.180529 
L 358.493248 99.291075 
L 357.806505 99.191773 
L 357.119605 98.894504 
L 354.844458 97.70729 
L 352.52746 97.02867 
L 349.069243 96.5708 
L 346.888912 96.518547 
L 342.706732 96.884653 
L 340.136895 97.483941 
L 338.385915 98.177853 
L 337.41048 98.801988 
L 336.824657 99.565417 
L 337.1522 100.581199 
L 337.780067 101.006743 
L 339.278691 101.574407 
L 342.442649 102.215852 
L 344.564766 102.46806 
L 348.453486 102.665521 
L 350.838837 102.573465 
L 355.252953 102.090101 
L 362.345658 101.38158 
L 374.511151 100.458086 
L 376.388658 100.301822 
L 376.388658 100.301822 
" style="fill:none;stroke:#000000;stroke-linecap:square;stroke-opacity:0.7;stroke-width:1.2;"/>
   </g>
   <g id="line2d_15">
    <path clip-path="url(#p1a8dcb7ea9)" d="M 380.316609 56.394368 
L 374.466557 55.32737 
L 368.806508 54.49142 
L 363.927859 53.964205 
L 359.833175 53.746573 
L 357.088068 53.821707 
L 354.664133 54.108761 
L 349.698793 54.70662 
L 344.393845 55.420856 
L 341.996139 55.906228 
L 340.183078 56.501238 
L 339.602866 56.985998 
L 339.660951 57.177929 
L 340.144308 57.40761 
L 341.061626 57.548658 
L 344.534145 57.704724 
L 347.523118 57.821592 
L 349.199027 57.653861 
L 354.255818 56.971481 
L 367.667526 55.987145 
L 375.746843 55.64404 
L 379.859398 55.573956 
L 379.859398 55.573956 
" style="fill:none;stroke:#000000;stroke-linecap:square;stroke-opacity:0.7;stroke-width:1.2;"/>
   </g>
   <g id="line2d_16">
    <path clip-path="url(#p1a8dcb7ea9)" d="M 527.14141 232.492888 
L 518.624328 231.869433 
L 511.124827 231.562886 
L 504.419569 231.508576 
L 501.148989 231.66873 
L 497.845355 232.116898 
L 495.218993 232.723996 
L 493.387393 233.370668 
L 492.414038 233.366295 
L 490.19149 232.954703 
L 488.689843 232.926693 
L 487.840264 233.05178 
L 487.116058 233.37352 
L 486.999117 233.743 
L 487.065352 233.847823 
L 488.033079 234.312826 
L 488.382164 234.39547 
L 491.923782 234.733093 
L 494.998249 234.743954 
L 499.197799 234.538243 
L 502.987501 234.108783 
L 510.426727 233.136768 
L 516.384868 232.63369 
L 524.00921 232.231639 
L 526.622571 232.140397 
L 526.622571 232.140397 
" style="fill:none;stroke:#000000;stroke-linecap:square;stroke-opacity:0.7;stroke-width:1.2;"/>
   </g>
   <g id="line2d_17">
    <path clip-path="url(#p1a8dcb7ea9)" d="M 527.291255 189.266892 
L 517.975488 188.225442 
L 503.394344 186.78106 
L 500.176715 187.025335 
L 495.35101 187.673167 
L 493.041345 188.11024 
L 491.202743 188.590587 
L 489.976199 189.16896 
L 489.738675 189.535804 
L 489.805725 189.873125 
L 490.149844 190.324938 
L 490.67143 190.670972 
L 491.165823 190.79868 
L 492.406259 190.78146 
L 500.726127 190.005402 
L 506.775952 189.593124 
L 515.59439 188.964345 
L 523.435642 188.64581 
L 526.567318 188.585424 
L 526.567318 188.585424 
" style="fill:none;stroke:#000000;stroke-linecap:square;stroke-opacity:0.7;stroke-width:1.2;"/>
   </g>
   <g id="line2d_18">
    <path clip-path="url(#p1a8dcb7ea9)" d="M 528.209709 143.975555 
L 525.18583 143.538063 
L 517.705514 142.534913 
L 511.903712 141.953699 
L 507.057275 141.69709 
L 504.037124 141.766458 
L 501.098389 142.07943 
L 497.250585 142.725883 
L 494.836522 143.270002 
L 491.645822 144.243726 
L 489.972369 145.051595 
L 489.655395 145.392182 
L 489.735493 145.515696 
L 490.224488 145.559089 
L 492.031109 145.588733 
L 493.535637 145.768823 
L 504.650172 145.851595 
L 508.102927 145.486982 
L 519.459855 144.194281 
L 527.860564 143.453746 
L 527.860564 143.453746 
" style="fill:none;stroke:#000000;stroke-linecap:square;stroke-opacity:0.7;stroke-width:1.2;"/>
   </g>
   <g id="line2d_19">
    <path clip-path="url(#p1a8dcb7ea9)" d="M 527.919768 100.499633 
L 522.327105 99.544652 
L 514.898829 98.503 
L 508.201672 97.783587 
L 504.921405 97.637688 
L 502.715181 97.758466 
L 499.766183 98.123547 
L 495.929372 98.820085 
L 493.159532 99.551313 
L 491.780209 100.134406 
L 491.455776 100.452501 
L 491.479138 100.78728 
L 491.655798 101.080266 
L 491.926765 101.244186 
L 492.842192 101.418369 
L 499.629839 101.951237 
L 502.677168 102.033493 
L 505.50577 101.847434 
L 527.34289 99.816387 
L 527.34289 99.816387 
" style="fill:none;stroke:#000000;stroke-linecap:square;stroke-opacity:0.7;stroke-width:1.2;"/>
   </g>
   <g id="line2d_20">
    <path clip-path="url(#p1a8dcb7ea9)" d="M 528.176146 55.727788 
L 519.509628 54.35407 
L 508.091072 52.841711 
L 505.139277 52.622538 
L 503.292804 52.741445 
L 501.155406 53.130958 
L 498.031826 53.929836 
L 494.46558 55.090244 
L 493.263614 55.469009 
L 491.960691 55.576818 
L 490.464175 55.681784 
L 489.615945 55.938425 
L 489.256104 56.269699 
L 489.28319 56.535283 
L 489.537147 56.759589 
L 490.176161 57.003825 
L 492.051568 57.308084 
L 495.220556 57.528963 
L 499.481493 57.640993 
L 502.875164 57.532061 
L 506.987735 57.117569 
L 517.285824 56.035344 
L 526.861563 55.291457 
L 527.216853 55.267078 
L 527.216853 55.267078 
" style="fill:none;stroke:#000000;stroke-linecap:square;stroke-opacity:0.7;stroke-width:1.2;"/>
   </g>
   <g id="line2d_21">
    <path clip-path="url(#p1a8dcb7ea9)" d="M 675.490909 232.5903 
L 669.548152 231.477554 
L 663.423911 230.587385 
L 657.815038 230.013825 
L 654.374756 229.856621 
L 651.795029 229.954384 
L 648.767756 230.281483 
L 643.175317 231.135435 
L 639.834901 231.855233 
L 637.346427 232.674978 
L 636.625121 233.104241 
L 636.405751 233.408257 
L 636.457411 233.592807 
L 636.856647 233.744946 
L 637.594298 233.947538 
L 638.810611 234.46251 
L 640.131123 234.625681 
L 643.209055 234.601557 
L 649.389937 234.27483 
L 654.124105 233.758748 
L 662.711924 232.859932 
L 671.217993 232.206643 
L 675.055255 231.981092 
L 675.055255 231.981092 
" style="fill:none;stroke:#000000;stroke-linecap:square;stroke-opacity:0.7;stroke-width:1.2;"/>
   </g>
   <g id="line2d_22">
    <path clip-path="url(#p1a8dcb7ea9)" d="M 675.119441 188.209984 
L 666.408902 185.747691 
L 659.831603 184.329586 
L 656.172603 183.776083 
L 653.040495 183.549444 
L 650.818254 183.630507 
L 648.493341 183.93788 
L 645.960054 184.498753 
L 644.313467 185.054291 
L 643.105944 185.670834 
L 641.824427 186.51415 
L 640.06504 186.905808 
L 638.100577 187.627463 
L 637.326939 188.038317 
L 636.382684 188.807732 
L 636.237387 189.203472 
L 636.380665 189.487085 
L 636.817977 189.758142 
L 637.843636 190.08084 
L 640.707082 190.625124 
L 644.670216 191.160231 
L 647.100544 191.271107 
L 649.442172 191.118167 
L 654.199638 190.509269 
L 671.313797 188.286479 
L 674.660859 187.833017 
L 674.660859 187.833017 
" style="fill:none;stroke:#000000;stroke-linecap:square;stroke-opacity:0.7;stroke-width:1.2;"/>
   </g>
   <g id="line2d_23">
    <path clip-path="url(#p1a8dcb7ea9)" d="M 674.552336 144.847012 
L 667.098432 143.208602 
L 662.403242 142.421933 
L 658.362149 141.954478 
L 655.042812 141.796524 
L 652.55046 141.905387 
L 649.726025 142.313394 
L 641.987179 143.5255 
L 641.030988 143.453146 
L 639.412897 143.606989 
L 638.611892 143.80109 
L 637.354279 144.327519 
L 636.782227 144.837098 
L 636.760389 145.16276 
L 637.106449 145.451211 
L 637.527426 145.609191 
L 640.208168 146.066249 
L 644.301973 146.423689 
L 647.535592 146.500035 
L 650.175379 146.311321 
L 667.408592 144.477309 
L 674.037387 144.027083 
L 674.037387 144.027083 
" style="fill:none;stroke:#000000;stroke-linecap:square;stroke-opacity:0.7;stroke-width:1.2;"/>
   </g>
   <g id="line2d_24">
    <path clip-path="url(#p1a8dcb7ea9)" d="M 674.410922 100.943406 
L 667.973635 99.87429 
L 663.663265 99.363004 
L 659.209184 99.060669 
L 656.086682 99.065219 
L 653.723676 99.286758 
L 650.692293 99.651375 
L 646.951214 99.701036 
L 642.915187 99.834223 
L 640.617964 100.080811 
L 639.04809 100.427502 
L 636.427876 101.389483 
L 636.222177 101.676647 
L 636.238823 101.891781 
L 636.386347 102.045731 
L 637.094463 102.261475 
L 638.580653 102.338716 
L 642.49712 102.212235 
L 651.207641 101.715627 
L 661.742233 100.825891 
L 669.709914 100.438787 
L 674.233252 100.307903 
L 674.233252 100.307903 
" style="fill:none;stroke:#000000;stroke-linecap:square;stroke-opacity:0.7;stroke-width:1.2;"/>
   </g>
   <g id="line2d_25">
    <path clip-path="url(#p1a8dcb7ea9)" d="M 674.680757 56.149338 
L 669.817407 55.554297 
L 663.243621 54.97799 
L 656.368436 54.60311 
L 650.464775 54.499961 
L 647.382878 54.630398 
L 644.568154 54.945019 
L 642.133887 55.441734 
L 640.685624 55.803234 
L 638.194583 55.596725 
L 637.5894 55.724227 
L 636.992461 56.055701 
L 636.857597 56.358965 
L 636.950709 56.586385 
L 637.162085 56.767677 
L 638.031576 57.109023 
L 639.613842 57.40746 
L 642.330445 57.683653 
L 646.21427 57.848423 
L 649.134598 57.753133 
L 653.100653 57.332797 
L 660.315463 56.593342 
L 668.802962 55.99913 
L 674.15051 55.711296 
L 674.15051 55.711296 
" style="fill:none;stroke:#000000;stroke-linecap:square;stroke-opacity:0.7;stroke-width:1.2;"/>
   </g>
  </g>
 </g>
 <defs>
  <clipPath id="p1a8dcb7ea9">
   <rect height="262.08" width="694.08" x="12.96" y="12.96"/>
  </clipPath>
 </defs>
</svg>
