<?xml version="1.0" encoding="utf-8" standalone="no"?>
<!DOCTYPE svg PUBLIC "-//W3C//DTD SVG 1.1//EN"
  "http://www.w3.org/Graphics/SVG/1.1/DTD/svg11.dtd">
<!-- Created with matplotlib (https://matplotlib.org/) -->
<svg height="288pt" version="1.1" viewBox="0 0 720 288" width="720pt" xmlns="http://www.w3.org/2000/svg" xmlns:xlink="http://www.w3.org/1999/xlink">
 <defs>
  <style type="text/css">
*{stroke-linecap:butt;stroke-linejoin:round;}
  </style>
 </defs>
 <g id="figure_1">
  <g id="patch_1">
   <path d="M 0 288 
L 720 288 
L 720 0 
L 0 0 
z
" style="fill:#ffffff;"/>
  </g>
  <g id="axes_1">
   <g id="line2d_1">
    <path clip-path="url(#pfa97d71183)" d="M 90.181363 235.623171 
L 78.52927 232.516274 
L 73.676569 231.354635 
L 70.350372 230.761924 
L 67.011482 230.392682 
L 63.912684 230.276602 
L 60.828743 230.39857 
L 57.982538 230.744131 
L 55.679385 231.205083 
L 52.628648 232.084049 
L 49.615209 233.237384 
L 46.260996 234.781632 
L 44.821674 235.639013 
L 44.509091 236.064214 
L 44.685562 236.28015 
L 45.073104 236.393125 
L 46.294477 236.475543 
L 53.615565 236.57808 
L 57.839385 237.103631 
L 61.515492 237.283799 
L 66.640235 237.319764 
L 74.147001 237.127476 
L 81.380443 236.700466 
L 90.040335 235.950743 
L 90.040335 235.950743 
" style="fill:none;stroke:#000000;stroke-linecap:square;stroke-opacity:0.7;stroke-width:1.2;"/>
   </g>
   <g id="line2d_2">
    <path clip-path="url(#pfa97d71183)" d="M 89.893637 191.76222 
L 81.547126 188.729853 
L 77.691561 187.524308 
L 74.407021 186.742501 
L 71.532549 186.305736 
L 69.013798 186.109036 
L 65.696342 186.071357 
L 61.341233 186.297565 
L 53.695976 187.004844 
L 51.972245 187.260189 
L 50.702838 187.574641 
L 49.604815 187.999546 
L 48.342291 188.736856 
L 47.126586 189.745543 
L 46.68774 190.288986 
L 46.709973 190.535356 
L 46.861431 190.714301 
L 47.716507 191.194317 
L 49.078236 191.681272 
L 51.642378 192.334238 
L 54.329355 192.805058 
L 57.845416 193.1827 
L 62.064305 193.387166 
L 67.099635 193.415788 
L 74.782753 193.214941 
L 82.250735 192.801261 
L 89.827047 192.1855 
L 89.827047 192.1855 
" style="fill:none;stroke:#000000;stroke-linecap:square;stroke-opacity:0.7;stroke-width:1.2;"/>
   </g>
   <g id="line2d_3">
    <path clip-path="url(#pfa97d71183)" d="M 89.496631 147.927 
L 81.586533 145.136282 
L 76.951106 143.73171 
L 74.162061 143.105748 
L 71.297568 142.68327 
L 67.855883 142.434408 
L 64.308949 142.40079 
L 59.375489 142.621231 
L 55.822623 142.950229 
L 53.142138 143.405599 
L 51.106208 144.00571 
L 45.242671 146.250878 
L 45.114433 146.602383 
L 45.216689 146.930652 
L 45.552197 147.306802 
L 46.568391 147.914176 
L 47.452362 148.261933 
L 50.275589 148.950985 
L 53.039843 149.295456 
L 56.432559 149.468949 
L 61.348091 149.458563 
L 73.573765 149.089854 
L 82.425153 148.693961 
L 89.376492 148.189671 
L 89.376492 148.189671 
" style="fill:none;stroke:#000000;stroke-linecap:square;stroke-opacity:0.7;stroke-width:1.2;"/>
   </g>
   <g id="line2d_4">
    <path clip-path="url(#pfa97d71183)" d="M 89.76575 103.955545 
L 83.820303 101.631352 
L 79.551126 100.14882 
L 75.917027 99.128277 
L 72.633152 98.477393 
L 69.479253 98.082602 
L 65.567408 97.843547 
L 61.768057 97.827949 
L 57.569842 98.046098 
L 54.596342 98.402864 
L 52.568246 98.840928 
L 50.984222 99.405263 
L 49.588032 100.143139 
L 46.645361 101.914066 
L 45.324408 102.550106 
L 45.262575 102.748584 
L 45.365197 102.956238 
L 45.810617 103.274858 
L 46.563872 103.586096 
L 48.207044 104.026272 
L 51.127056 104.512085 
L 54.499246 104.834624 
L 59.236084 105.029315 
L 64.816803 105.035655 
L 76.974106 104.775724 
L 86.911353 104.375475 
L 89.738096 104.223661 
L 89.738096 104.223661 
" style="fill:none;stroke:#000000;stroke-linecap:square;stroke-opacity:0.7;stroke-width:1.2;"/>
   </g>
   <g id="line2d_5">
    <path clip-path="url(#pfa97d71183)" d="M 89.682802 60.176296 
L 84.989143 57.482707 
L 80.384538 55.111919 
L 77.410372 53.802595 
L 74.544219 52.795448 
L 71.869431 52.104274 
L 69.337225 51.632873 
L 65.171004 51.110032 
L 60.304715 50.748169 
L 56.585534 50.682018 
L 54.152867 50.869885 
L 52.951104 51.108524 
L 51.602305 51.591294 
L 50.628068 52.173861 
L 49.585041 53.152565 
L 48.29058 54.972707 
L 47.557788 55.976487 
L 45.646071 58.142804 
L 45.619296 58.636371 
L 45.828618 59.093666 
L 46.485361 59.693483 
L 47.781901 60.320616 
L 49.225572 60.746962 
L 51.738172 61.198455 
L 54.650733 61.478197 
L 58.180098 61.600955 
L 63.335874 61.533991 
L 82.33414 60.91616 
L 89.466358 60.586198 
L 89.466358 60.586198 
" style="fill:none;stroke:#000000;stroke-linecap:square;stroke-opacity:0.7;stroke-width:1.2;"/>
   </g>
   <g id="line2d_6">
    <path clip-path="url(#pfa97d71183)" d="M 236.160294 235.445043 
L 229.628863 232.930033 
L 224.69067 231.2436 
L 221.326711 230.32607 
L 218.213812 229.73909 
L 215.512453 229.450791 
L 212.37362 229.35557 
L 209.110255 229.503164 
L 205.921187 229.872691 
L 202.994522 230.402523 
L 199.610406 231.246782 
L 196.579516 232.242243 
L 194.786073 232.976784 
L 192.461357 234.162993 
L 191.632709 234.662415 
L 191.982227 234.560575 
L 192.978664 234.450251 
L 195.113357 234.471584 
L 202.536923 234.868437 
L 220.964166 235.915622 
L 227.145134 235.987109 
L 234.340366 235.826371 
L 236.121366 235.753802 
L 236.121366 235.753802 
" style="fill:none;stroke:#000000;stroke-linecap:square;stroke-opacity:0.7;stroke-width:1.2;"/>
   </g>
   <g id="line2d_7">
    <path clip-path="url(#pfa97d71183)" d="M 236.261177 191.787156 
L 227.229034 188.976044 
L 222.928908 187.830867 
L 220.019178 187.248224 
L 216.616997 186.829427 
L 213.272925 186.686178 
L 210.143614 186.761367 
L 206.228263 187.094655 
L 201.778182 187.724678 
L 196.457846 188.691773 
L 194.535228 189.219352 
L 193.412256 189.667594 
L 192.2077 190.373673 
L 191.777723 190.981112 
L 191.914901 191.187214 
L 192.328003 191.414021 
L 193.207203 191.690256 
L 195.498191 192.074534 
L 198.204113 192.23349 
L 202.215472 192.200716 
L 213.551513 191.966207 
L 221.488063 192.143527 
L 228.873456 192.240034 
L 235.314237 192.075145 
L 236.133003 192.036481 
L 236.133003 192.036481 
" style="fill:none;stroke:#000000;stroke-linecap:square;stroke-opacity:0.7;stroke-width:1.2;"/>
   </g>
   <g id="line2d_8">
    <path clip-path="url(#pfa97d71183)" d="M 236.524612 147.684065 
L 225.352762 143.197104 
L 221.185418 141.73848 
L 218.346155 140.915906 
L 214.934343 140.17117 
L 212.056894 139.778939 
L 209.609919 139.634464 
L 206.799601 139.712122 
L 204.351037 140.028686 
L 202.132344 140.554824 
L 200.016948 141.301857 
L 197.753262 142.382087 
L 195.649434 143.627718 
L 193.589179 145.08466 
L 192.138825 146.433333 
L 191.718249 147.205134 
L 191.758363 147.529024 
L 192.297451 147.961732 
L 193.712587 148.407566 
L 197.207169 149.219482 
L 200.031924 149.632978 
L 202.749182 149.772311 
L 207.652782 149.729482 
L 217.740048 149.387901 
L 226.858067 148.864517 
L 236.275333 148.11537 
L 236.275333 148.11537 
" style="fill:none;stroke:#000000;stroke-linecap:square;stroke-opacity:0.7;stroke-width:1.2;"/>
   </g>
   <g id="line2d_9">
    <path clip-path="url(#pfa97d71183)" d="M 236.144258 104.07041 
L 227.572312 101.036006 
L 222.796526 99.575936 
L 219.346124 98.761086 
L 215.82323 98.17025 
L 212.28354 97.789249 
L 207.715503 97.555504 
L 203.538829 97.575516 
L 200.473204 97.797434 
L 199.093114 98.031817 
L 197.405236 98.580146 
L 196.586157 99.003518 
L 195.262861 99.923533 
L 192.181658 102.527938 
L 192.304282 102.749006 
L 192.90338 103.043004 
L 193.8302 103.237858 
L 195.486 103.397728 
L 199.942038 103.519856 
L 214.856323 103.759778 
L 231.631097 104.365468 
L 236.008559 104.383879 
L 236.008559 104.383879 
" style="fill:none;stroke:#000000;stroke-linecap:square;stroke-opacity:0.7;stroke-width:1.2;"/>
   </g>
   <g id="line2d_10">
    <path clip-path="url(#pfa97d71183)" d="M 236.507508 59.948791 
L 227.066327 56.571249 
L 222.513134 55.1156 
L 218.916626 54.207157 
L 215.657544 53.638015 
L 212.594819 53.336846 
L 209.827377 53.262198 
L 206.974479 53.389603 
L 204.043509 53.755661 
L 201.282219 54.346105 
L 198.473669 55.217635 
L 195.81685 56.289058 
L 193.16607 57.596567 
L 191.799163 58.49988 
L 191.335101 59.02144 
L 191.278984 59.315304 
L 191.35688 59.463686 
L 192.056012 59.755125 
L 193.303304 59.869215 
L 197.313304 59.875868 
L 206.440554 59.87594 
L 212.668304 60.437707 
L 218.47101 60.827752 
L 223.381297 60.929697 
L 228.918148 60.814942 
L 235.247243 60.463229 
L 236.28987 60.386742 
L 236.28987 60.386742 
" style="fill:none;stroke:#000000;stroke-linecap:square;stroke-opacity:0.7;stroke-width:1.2;"/>
   </g>
   <g id="line2d_11">
    <path clip-path="url(#pfa97d71183)" d="M 382.596894 235.644397 
L 376.441192 233.179814 
L 371.790865 231.558151 
L 368.765843 230.724404 
L 365.698993 230.120822 
L 362.495527 229.742444 
L 359.910521 229.601782 
L 355.92066 229.638983 
L 352.287028 229.926459 
L 348.5875 230.475068 
L 345.719691 231.105997 
L 343.324352 231.848373 
L 341.524468 232.653315 
L 338.702001 234.281253 
L 338.729152 234.480796 
L 339.007559 234.772367 
L 339.530627 235.07621 
L 341.017118 235.596585 
L 342.972935 236.008581 
L 346.050246 236.380393 
L 349.85755 236.583576 
L 354.950433 236.612818 
L 366.239875 236.368997 
L 382.421845 235.942805 
L 382.421845 235.942805 
" style="fill:none;stroke:#000000;stroke-linecap:square;stroke-opacity:0.7;stroke-width:1.2;"/>
   </g>
   <g id="line2d_12">
    <path clip-path="url(#pfa97d71183)" d="M 382.54947 191.775205 
L 375.411235 188.785279 
L 369.75869 186.660939 
L 366.256999 185.565351 
L 362.697635 184.697658 
L 359.958829 184.215933 
L 356.583426 183.863513 
L 353.77833 183.799522 
L 351.636553 183.91545 
L 348.661359 184.368951 
L 346.988643 184.81264 
L 345.143621 185.516453 
L 343.918157 186.153325 
L 342.495936 187.121427 
L 338.10979 190.714282 
L 338.106158 191.008258 
L 338.377647 191.484623 
L 339.026121 191.964947 
L 340.529852 192.546624 
L 342.51102 192.946071 
L 345.248347 193.185648 
L 348.8738 193.206941 
L 353.908127 192.988099 
L 364.031844 192.524235 
L 379.184313 192.234906 
L 382.328822 192.159089 
L 382.328822 192.159089 
" style="fill:none;stroke:#000000;stroke-linecap:square;stroke-opacity:0.7;stroke-width:1.2;"/>
   </g>
   <g id="line2d_13">
    <path clip-path="url(#pfa97d71183)" d="M 382.098294 147.857554 
L 378.970918 145.908252 
L 375.979351 144.25222 
L 372.012319 142.387398 
L 370.055684 141.653665 
L 367.178486 140.830285 
L 364.336776 140.276873 
L 361.073736 139.864277 
L 356.328623 139.511545 
L 350.81101 139.327061 
L 349.176422 139.4378 
L 348.329245 139.672497 
L 347.665419 140.135561 
L 346.84288 140.949126 
L 346.174145 141.203865 
L 341.91105 142.018469 
L 340.120874 142.632589 
L 338.770408 143.2991 
L 337.986481 143.820858 
L 336.845992 145.1126 
L 336.745563 145.372355 
L 336.67829 145.910354 
L 336.782019 146.376874 
L 337.045606 146.837737 
L 337.838681 147.567871 
L 339.325671 148.346467 
L 340.856006 148.866814 
L 343.329465 149.414135 
L 345.616498 149.715194 
L 349.130273 149.918768 
L 353.25143 149.894254 
L 359.847994 149.588533 
L 378.830304 148.461465 
L 382.076864 148.220536 
L 382.076864 148.220536 
" style="fill:none;stroke:#000000;stroke-linecap:square;stroke-opacity:0.7;stroke-width:1.2;"/>
   </g>
   <g id="line2d_14">
    <path clip-path="url(#pfa97d71183)" d="M 382.70955 103.806402 
L 377.100844 102.300064 
L 364.813426 98.911822 
L 362.019654 98.411689 
L 358.987764 98.110728 
L 356.209597 98.086206 
L 353.730354 98.287846 
L 351.118892 98.750399 
L 348.824168 99.385879 
L 346.043784 100.442412 
L 337.986474 104.021476 
L 338.153588 104.166055 
L 339.069847 104.370265 
L 343.131545 104.875836 
L 346.033596 105.035782 
L 349.388708 104.909714 
L 355.636842 104.658621 
L 362.907103 104.611078 
L 373.264933 104.53113 
L 380.770742 104.205531 
L 382.579953 104.093427 
L 382.579953 104.093427 
" style="fill:none;stroke:#000000;stroke-linecap:square;stroke-opacity:0.7;stroke-width:1.2;"/>
   </g>
   <g id="line2d_15">
    <path clip-path="url(#pfa97d71183)" d="M 382.637326 60.184572 
L 375.938162 57.146118 
L 371.324743 55.267197 
L 367.814745 54.072192 
L 364.529533 53.206569 
L 361.567544 52.640086 
L 358.232476 52.228694 
L 354.807513 52.043862 
L 351.29381 52.106904 
L 348.459781 52.359124 
L 345.829591 52.782846 
L 343.922493 53.239959 
L 341.457805 54.130251 
L 340.399181 54.689111 
L 339.169567 55.590856 
L 338.340855 56.503443 
L 337.869038 57.341239 
L 337.689525 58.179874 
L 337.792597 58.677135 
L 338.112407 59.074873 
L 339.264578 59.526061 
L 340.818153 59.759379 
L 343.497852 59.94874 
L 350.369582 60.090251 
L 374.470704 60.682541 
L 382.546198 60.541586 
L 382.546198 60.541586 
" style="fill:none;stroke:#000000;stroke-linecap:square;stroke-opacity:0.7;stroke-width:1.2;"/>
   </g>
   <g id="line2d_16">
    <path clip-path="url(#pfa97d71183)" d="M 528.976867 235.616029 
L 522.396683 234.05538 
L 510.432216 231.108542 
L 507.428396 230.654945 
L 504.682048 230.442311 
L 501.693486 230.454836 
L 499.025461 230.698657 
L 496.435651 231.161523 
L 493.950225 231.820544 
L 489.590089 233.306895 
L 484.74004 235.038484 
L 484.245611 235.467291 
L 484.367432 235.68681 
L 484.936328 235.828246 
L 486.25119 235.89478 
L 494.57152 236.108904 
L 509.800085 236.515027 
L 516.703366 236.494219 
L 523.137731 236.251378 
L 528.814118 235.893772 
L 528.814118 235.893772 
" style="fill:none;stroke:#000000;stroke-linecap:square;stroke-opacity:0.7;stroke-width:1.2;"/>
   </g>
   <g id="line2d_17">
    <path clip-path="url(#pfa97d71183)" d="M 528.469867 191.721017 
L 525.562626 189.859021 
L 522.275117 187.992025 
L 520.061881 186.890899 
L 517.220968 185.728606 
L 514.969024 185.050512 
L 512.401325 184.507381 
L 496.68124 181.894343 
L 495.643326 182.006405 
L 494.719072 182.294862 
L 493.549977 182.962561 
L 490.359849 185.290101 
L 488.74212 185.966715 
L 485.962938 187.041724 
L 485.206601 187.455643 
L 484.548989 187.93097 
L 483.884809 188.768377 
L 483.807076 189.02423 
L 483.888135 189.644212 
L 484.547844 190.350757 
L 485.514428 190.849176 
L 486.156039 191.079695 
L 488.776981 191.68702 
L 491.504655 192.036932 
L 494.752761 192.250856 
L 499.899336 192.332505 
L 525.494348 192.153313 
L 528.39592 192.074733 
L 528.39592 192.074733 
" style="fill:none;stroke:#000000;stroke-linecap:square;stroke-opacity:0.7;stroke-width:1.2;"/>
   </g>
   <g id="line2d_18">
    <path clip-path="url(#pfa97d71183)" d="M 528.805013 147.839283 
L 524.097435 145.261595 
L 519.93108 143.209779 
L 516.475018 141.770108 
L 513.495548 140.798825 
L 510.52864 140.084777 
L 507.409308 139.560346 
L 503.722858 139.178562 
L 499.952016 139.02176 
L 496.503422 139.100892 
L 493.863687 139.357618 
L 491.466559 139.834869 
L 489.866165 140.375552 
L 488.671096 140.966626 
L 487.791778 141.54721 
L 486.521157 142.687943 
L 485.508856 143.946461 
L 484.66874 145.356104 
L 484.3862 146.124597 
L 484.461694 146.489687 
L 484.868214 146.761403 
L 486.123687 147.074056 
L 488.165011 147.281116 
L 491.98846 147.365472 
L 496.963686 147.525419 
L 512.74941 148.358938 
L 519.741909 148.397783 
L 528.64949 148.204494 
L 528.64949 148.204494 
" style="fill:none;stroke:#000000;stroke-linecap:square;stroke-opacity:0.7;stroke-width:1.2;"/>
   </g>
   <g id="line2d_19">
    <path clip-path="url(#pfa97d71183)" d="M 528.975908 103.89331 
L 513.406651 99.123206 
L 510.162611 98.473373 
L 507.488108 98.128602 
L 504.571362 97.962102 
L 502.431981 97.981913 
L 499.350914 98.225942 
L 496.492971 98.685281 
L 493.312226 99.463629 
L 490.219464 100.482319 
L 487.147521 101.743791 
L 484.440055 103.146565 
L 483.444488 103.852432 
L 483.026831 104.389806 
L 483.074661 104.600531 
L 483.415991 104.749525 
L 484.108734 104.790141 
L 491.108973 104.669499 
L 500.214554 105.224528 
L 505.932377 105.246287 
L 513.74893 105.050429 
L 523.279667 104.568251 
L 528.859292 104.237253 
L 528.859292 104.237253 
" style="fill:none;stroke:#000000;stroke-linecap:square;stroke-opacity:0.7;stroke-width:1.2;"/>
   </g>
   <g id="line2d_20">
    <path clip-path="url(#pfa97d71183)" d="M 528.498693 60.132283 
L 523.818441 58.344464 
L 519.118367 56.781891 
L 515.651003 55.868887 
L 512.956985 55.371869 
L 510.017217 55.045285 
L 506.439156 54.895915 
L 502.282494 54.981699 
L 497.88662 55.310411 
L 493.026985 55.91458 
L 487.475677 56.699329 
L 484.7787 56.892012 
L 483.753826 57.174643 
L 483.345355 57.406459 
L 483.060825 57.81678 
L 483.135891 58.13555 
L 483.231512 58.257603 
L 484.13076 58.77609 
L 485.392839 59.125761 
L 486.969055 59.38223 
L 491.030592 59.686383 
L 496.176002 59.779148 
L 508.409719 59.932782 
L 527.322216 60.479005 
L 528.325412 60.489616 
L 528.325412 60.489616 
" style="fill:none;stroke:#000000;stroke-linecap:square;stroke-opacity:0.7;stroke-width:1.2;"/>
   </g>
   <g id="line2d_21">
    <path clip-path="url(#pfa97d71183)" d="M 675.352671 235.634959 
L 664.185684 231.958183 
L 660.545587 230.967221 
L 657.51228 230.344417 
L 654.335104 229.921948 
L 651.358599 229.733948 
L 647.985819 229.745624 
L 644.475959 229.989707 
L 640.606085 230.496759 
L 636.272967 231.307311 
L 633.983814 231.944026 
L 632.372885 232.615598 
L 631.410974 233.166195 
L 630.52338 233.870317 
L 630.106012 234.496481 
L 630.193183 234.861119 
L 630.491345 235.048429 
L 630.979973 235.184127 
L 632.07843 235.314917 
L 634.876556 235.341031 
L 638.749733 235.075195 
L 643.280103 234.752376 
L 646.143966 234.77071 
L 649.765272 235.037762 
L 660.778514 236.009863 
L 666.008986 236.176382 
L 672.201367 236.134117 
L 675.112351 236.039168 
L 675.112351 236.039168 
" style="fill:none;stroke:#000000;stroke-linecap:square;stroke-opacity:0.7;stroke-width:1.2;"/>
   </g>
   <g id="line2d_22">
    <path clip-path="url(#pfa97d71183)" d="M 675.490909 191.720232 
L 666.77198 189.20794 
L 661.32757 187.845156 
L 657.827564 187.162519 
L 653.911062 186.637607 
L 650.256991 186.39074 
L 646.829068 186.386978 
L 643.716628 186.598344 
L 641.28504 186.928585 
L 638.372716 187.545604 
L 635.635904 188.355516 
L 632.552789 189.495646 
L 631.214193 190.245476 
L 631.074978 190.544459 
L 631.249479 190.680039 
L 632.061579 190.844428 
L 638.41888 191.683786 
L 642.247699 191.711132 
L 653.143391 191.699737 
L 673.251474 192.064096 
L 675.308604 192.012163 
L 675.308604 192.012163 
" style="fill:none;stroke:#000000;stroke-linecap:square;stroke-opacity:0.7;stroke-width:1.2;"/>
   </g>
   <g id="line2d_23">
    <path clip-path="url(#pfa97d71183)" d="M 674.904195 148.032774 
L 667.270855 144.952279 
L 662.869462 143.359855 
L 659.166694 142.265421 
L 656.21625 141.612246 
L 653.525553 141.179014 
L 649.680882 140.78813 
L 645.741248 140.633806 
L 642.963989 140.682161 
L 640.30152 140.888474 
L 637.713635 141.327147 
L 636.254404 141.750432 
L 635.197022 142.184116 
L 633.515268 143.205816 
L 632.429501 144.157414 
L 630.320764 146.460757 
L 630.517289 146.625572 
L 631.549609 146.967524 
L 632.524002 147.167346 
L 635.79248 147.549284 
L 652.804146 148.728529 
L 658.932025 148.914551 
L 665.314262 148.868849 
L 672.581847 148.586078 
L 674.797972 148.459971 
L 674.797972 148.459971 
" style="fill:none;stroke:#000000;stroke-linecap:square;stroke-opacity:0.7;stroke-width:1.2;"/>
   </g>
   <g id="line2d_24">
    <path clip-path="url(#pfa97d71183)" d="M 675.302956 103.912569 
L 668.642849 101.447313 
L 664.127669 100.007834 
L 661.06103 99.24925 
L 657.95145 98.723011 
L 655.40189 98.473817 
L 652.411895 98.372133 
L 649.039616 98.482966 
L 645.574387 98.833739 
L 641.943059 99.458393 
L 638.373209 100.324976 
L 634.25476 101.577803 
L 630.311901 103.005393 
L 630.166224 103.065528 
L 630.513017 103.029526 
L 634.219274 102.799316 
L 639.839181 102.211424 
L 644.820055 101.799558 
L 648.655279 101.697198 
L 652.663277 101.819514 
L 656.879871 102.188023 
L 675.151507 104.119858 
L 675.151507 104.119858 
" style="fill:none;stroke:#000000;stroke-linecap:square;stroke-opacity:0.7;stroke-width:1.2;"/>
   </g>
   <g id="line2d_25">
    <path clip-path="url(#pfa97d71183)" d="M 674.867523 60.126429 
L 660.068353 55.558195 
L 657.354965 55.010947 
L 654.658726 54.648964 
L 651.224856 54.412855 
L 647.596178 54.379592 
L 643.697688 54.559989 
L 640.321221 54.94769 
L 637.828316 55.467842 
L 635.832692 56.091024 
L 633.875837 56.890839 
L 630.321048 58.575225 
L 630.336874 58.606947 
L 630.660859 58.835001 
L 631.585887 59.16459 
L 632.488088 59.388723 
L 634.998936 59.811199 
L 638.886486 60.178725 
L 644.318935 60.427475 
L 658.842433 60.758188 
L 666.058722 60.761381 
L 672.802485 60.553865 
L 674.801017 60.457914 
L 674.801017 60.457914 
" style="fill:none;stroke:#000000;stroke-linecap:square;stroke-opacity:0.7;stroke-width:1.2;"/>
   </g>
  </g>
 </g>
 <defs>
  <clipPath id="pfa97d71183">
   <rect height="262.08" width="694.08" x="12.96" y="12.96"/>
  </clipPath>
 </defs>
</svg>
