<svg viewBox="0 0 1496 400" xmlns="http://www.w3.org/2000/svg"><g><g><g><g><g><line x1="50" y1="378" x2="45" y2="378" style="visibility: inherit;" fill="rgb(0, 0, 0)" stroke="rgb(204, 204, 204)" stroke-width="1px"></line><line x1="50" y1="346.5" x2="45" y2="346.5" style="visibility: inherit;" fill="rgb(0, 0, 0)" stroke="rgb(204, 204, 204)" stroke-width="1px"></line><line x1="50" y1="315" x2="45" y2="315" style="visibility: inherit;" fill="rgb(0, 0, 0)" stroke="rgb(204, 204, 204)" stroke-width="1px"></line><line x1="50" y1="283.5" x2="45" y2="283.5" style="visibility: inherit;" fill="rgb(0, 0, 0)" stroke="rgb(204, 204, 204)" stroke-width="1px"></line><line x1="50" y1="252.00000000000003" x2="45" y2="252.00000000000003" style="visibility: inherit;" fill="rgb(0, 0, 0)" stroke="rgb(204, 204, 204)" stroke-width="1px"></line><line x1="50" y1="220.5" x2="45" y2="220.5" style="visibility: inherit;" fill="rgb(0, 0, 0)" stroke="rgb(204, 204, 204)" stroke-width="1px"></line><line x1="50" y1="189.00000000000003" x2="45" y2="189.00000000000003" style="visibility: inherit;" fill="rgb(0, 0, 0)" stroke="rgb(204, 204, 204)" stroke-width="1px"></line><line x1="50" y1="157.50000000000003" x2="45" y2="157.50000000000003" style="visibility: inherit;" fill="rgb(0, 0, 0)" stroke="rgb(204, 204, 204)" stroke-width="1px"></line><line x1="50" y1="126.00000000000006" x2="45" y2="126.00000000000006" style="visibility: inherit;" fill="rgb(0, 0, 0)" stroke="rgb(204, 204, 204)" stroke-width="1px"></line><line x1="50" y1="94.50000000000004" x2="45" y2="94.50000000000004" style="visibility: inherit;" fill="rgb(0, 0, 0)" stroke="rgb(204, 204, 204)" stroke-width="1px"></line><line x1="50" y1="63.00000000000003" x2="45" y2="63.00000000000003" style="visibility: inherit;" fill="rgb(0, 0, 0)" stroke="rgb(204, 204, 204)" stroke-width="1px"></line><line x1="50" y1="31.500000000000014" x2="45" y2="31.500000000000014" style="visibility: inherit;" fill="rgb(0, 0, 0)" stroke="rgb(204, 204, 204)" stroke-width="1px"></line><line x1="50" y1="0" x2="45" y2="0" style="visibility: inherit;" fill="rgb(0, 0, 0)" stroke="rgb(204, 204, 204)" stroke-width="1px"></line></g><g transform="translate(40, 0)"><text x="0" y="378" dx="0em" dy="0.3em" style="text-anchor: end; visibility: hidden; font-family: Roboto, sans-serif; font-size: 12px; font-weight: 200;" fill="rgb(50, 49, 63)" stroke="none" stroke-width="1px">-0.2</text><text x="0" y="346.5" dx="0em" dy="0.3em" style="text-anchor: end; visibility: inherit; font-family: Roboto, sans-serif; font-size: 12px; font-weight: 200;" fill="rgb(50, 49, 63)" stroke="none" stroke-width="1px">0</text><text x="0" y="315" dx="0em" dy="0.3em" style="text-anchor: end; visibility: inherit; font-family: Roboto, sans-serif; font-size: 12px; font-weight: 200;" fill="rgb(50, 49, 63)" stroke="none" stroke-width="1px">0.2</text><text x="0" y="283.5" dx="0em" dy="0.3em" style="text-anchor: end; visibility: inherit; font-family: Roboto, sans-serif; font-size: 12px; font-weight: 200;" fill="rgb(50, 49, 63)" stroke="none" stroke-width="1px">0.4</text><text x="0" y="252.00000000000003" dx="0em" dy="0.3em" style="text-anchor: end; visibility: inherit; font-family: Roboto, sans-serif; font-size: 12px; font-weight: 200;" fill="rgb(50, 49, 63)" stroke="none" stroke-width="1px">0.6</text><text x="0" y="220.5" dx="0em" dy="0.3em" style="text-anchor: end; visibility: inherit; font-family: Roboto, sans-serif; font-size: 12px; font-weight: 200;" fill="rgb(50, 49, 63)" stroke="none" stroke-width="1px">0.8</text><text x="0" y="189.00000000000003" dx="0em" dy="0.3em" style="text-anchor: end; visibility: inherit; font-family: Roboto, sans-serif; font-size: 12px; font-weight: 200;" fill="rgb(50, 49, 63)" stroke="none" stroke-width="1px">1</text><text x="0" y="157.50000000000003" dx="0em" dy="0.3em" style="text-anchor: end; visibility: inherit; font-family: Roboto, sans-serif; font-size: 12px; font-weight: 200;" fill="rgb(50, 49, 63)" stroke="none" stroke-width="1px">1.2</text><text x="0" y="126.00000000000006" dx="0em" dy="0.3em" style="text-anchor: end; visibility: inherit; font-family: Roboto, sans-serif; font-size: 12px; font-weight: 200;" fill="rgb(50, 49, 63)" stroke="none" stroke-width="1px">1.4</text><text x="0" y="94.50000000000004" dx="0em" dy="0.3em" style="text-anchor: end; visibility: inherit; font-family: Roboto, sans-serif; font-size: 12px; font-weight: 200;" fill="rgb(50, 49, 63)" stroke="none" stroke-width="1px">1.6</text><text x="0" y="63.00000000000003" dx="0em" dy="0.3em" style="text-anchor: end; visibility: inherit; font-family: Roboto, sans-serif; font-size: 12px; font-weight: 200;" fill="rgb(50, 49, 63)" stroke="none" stroke-width="1px">1.8</text><text x="0" y="31.500000000000014" dx="0em" dy="0.3em" style="text-anchor: end; visibility: inherit; font-family: Roboto, sans-serif; font-size: 12px; font-weight: 200;" fill="rgb(50, 49, 63)" stroke="none" stroke-width="1px">2</text><text x="0" y="0" dx="0em" dy="0.3em" style="text-anchor: end; visibility: hidden; font-family: Roboto, sans-serif; font-size: 12px; font-weight: 200;" fill="rgb(50, 49, 63)" stroke="none" stroke-width="1px">2.2</text></g><line x1="50" y1="0" x2="50" y2="378" fill="rgb(0, 0, 0)" stroke="rgb(204, 204, 204)" stroke-width="1px"></line></g></g><g transform="translate(50, 0)" clip-path="url(#clip_0)"><clipPath id="clip_0"><rect width="1446" height="378"></rect></clipPath><g><g><g><line x1="0" y1="0" x2="0" y2="378" fill="rgb(0, 0, 0)" stroke="rgb(60, 60, 60)" stroke-width="1px" opacity="0.25"></line><line x1="144.6" y1="0" x2="144.6" y2="378" fill="rgb(0, 0, 0)" stroke="rgb(60, 60, 60)" stroke-width="1px" opacity="0.25"></line><line x1="289.2" y1="0" x2="289.2" y2="378" fill="rgb(0, 0, 0)" stroke="rgb(60, 60, 60)" stroke-width="1px" opacity="0.25"></line><line x1="433.8" y1="0" x2="433.8" y2="378" fill="rgb(0, 0, 0)" stroke="rgb(60, 60, 60)" stroke-width="1px" opacity="0.25"></line><line x1="578.4" y1="0" x2="578.4" y2="378" fill="rgb(0, 0, 0)" stroke="rgb(60, 60, 60)" stroke-width="1px" opacity="0.25"></line><line x1="723" y1="0" x2="723" y2="378" fill="rgb(0, 0, 0)" stroke="rgb(60, 60, 60)" stroke-width="1px" opacity="0.25"></line><line x1="867.6" y1="0" x2="867.6" y2="378" fill="rgb(0, 0, 0)" stroke="rgb(60, 60, 60)" stroke-width="1px" opacity="0.25"></line><line x1="1012.1999999999999" y1="0" x2="1012.1999999999999" y2="378" fill="rgb(0, 0, 0)" stroke="rgb(60, 60, 60)" stroke-width="1px" opacity="0.25"></line><line x1="1156.8" y1="0" x2="1156.8" y2="378" fill="rgb(0, 0, 0)" stroke="rgb(60, 60, 60)" stroke-width="1px" opacity="0.25"></line><line x1="1301.4" y1="0" x2="1301.4" y2="378" fill="rgb(0, 0, 0)" stroke="rgb(60, 60, 60)" stroke-width="1px" opacity="0.25"></line><line x1="1446" y1="0" x2="1446" y2="378" fill="rgb(0, 0, 0)" stroke="rgb(60, 60, 60)" stroke-width="1px" opacity="0.25"></line></g><g><line x1="0" y1="378" x2="1446" y2="378" fill="rgb(0, 0, 0)" stroke="rgb(60, 60, 60)" stroke-width="1px" opacity="0.25"></line><line x1="0" y1="346.5" x2="1446" y2="346.5" fill="rgb(0, 0, 0)" stroke="rgb(60, 60, 60)" stroke-width="1px" opacity="0.25"></line><line x1="0" y1="315" x2="1446" y2="315" fill="rgb(0, 0, 0)" stroke="rgb(60, 60, 60)" stroke-width="1px" opacity="0.25"></line><line x1="0" y1="283.5" x2="1446" y2="283.5" fill="rgb(0, 0, 0)" stroke="rgb(60, 60, 60)" stroke-width="1px" opacity="0.25"></line><line x1="0" y1="252.00000000000003" x2="1446" y2="252.00000000000003" fill="rgb(0, 0, 0)" stroke="rgb(60, 60, 60)" stroke-width="1px" opacity="0.25"></line><line x1="0" y1="220.5" x2="1446" y2="220.5" fill="rgb(0, 0, 0)" stroke="rgb(60, 60, 60)" stroke-width="1px" opacity="0.25"></line><line x1="0" y1="189.00000000000003" x2="1446" y2="189.00000000000003" fill="rgb(0, 0, 0)" stroke="rgb(60, 60, 60)" stroke-width="1px" opacity="0.25"></line><line x1="0" y1="157.50000000000003" x2="1446" y2="157.50000000000003" fill="rgb(0, 0, 0)" stroke="rgb(60, 60, 60)" stroke-width="1px" opacity="0.25"></line><line x1="0" y1="126.00000000000006" x2="1446" y2="126.00000000000006" fill="rgb(0, 0, 0)" stroke="rgb(60, 60, 60)" stroke-width="1px" opacity="0.25"></line><line x1="0" y1="94.50000000000004" x2="1446" y2="94.50000000000004" fill="rgb(0, 0, 0)" stroke="rgb(60, 60, 60)" stroke-width="1px" opacity="0.25"></line><line x1="0" y1="63.00000000000003" x2="1446" y2="63.00000000000003" fill="rgb(0, 0, 0)" stroke="rgb(60, 60, 60)" stroke-width="1px" opacity="0.25"></line><line x1="0" y1="31.500000000000014" x2="1446" y2="31.500000000000014" fill="rgb(0, 0, 0)" stroke="rgb(60, 60, 60)" stroke-width="1px" opacity="0.25"></line><line x1="0" y1="0" x2="1446" y2="0" fill="rgb(0, 0, 0)" stroke="rgb(60, 60, 60)" stroke-width="1px" opacity="0.25"></line></g></g></g><g><g><line x1="0" y1="346.5" x2="1446" y2="346.5" fill="rgb(0, 0, 0)" stroke="rgb(153, 153, 153)" stroke-width="1.5px"></line></g></g><g><g><line x1="144.6" y1="0" x2="144.6" y2="378" fill="rgb(0, 0, 0)" stroke="rgb(153, 153, 153)" stroke-width="1.5px"></line></g></g><g><g><g><g><g><path stroke="rgb(51, 187, 238)" stroke-width="2px" d="M146.04600000000002,73.1425877809525L148.938,128.29111719131473L149.8056,134.1985162496567L151.54080000000002,151.6896438002587L156.168,173.74108725786215L156.7464,174.95313727855685L157.32479999999998,180.19556576013568L157.614,177.5331299901009L158.1924,178.90165472030645L159.9276,184.09143680334094L160.2168,187.15405279397967L160.7952,184.91233760118487L163.398,194.10468229651457L165.1332,199.0659012794495L165.4224,197.81012320518496L165.7116,200.61544024944308L166.0008,200.92280396819118L167.4468,203.34910073876384L169.7604,204.29097184538847L171.7848,210.58089280128482L174.0984,217.34064155817038L174.966,213.88150656223297L175.2552,211.96883136034015L177.2796,219.29885664582258L178.72560000000001,223.59474831819537L181.03920000000002,221.65039891004568L181.9068,226.98580348491674L182.196,225.52355164289474L184.7988,231.1382224559784L185.37720000000002,231.86396920681003L185.66639999999998,229.5604733526707L187.98000000000002,234.0760942697525L189.42600000000002,236.77197852730757L190.2936,237.06436881423002L192.8964,242.37883874773982L193.1856,242.11422675848013L195.7884,246.2750853002072L196.0776,247.72625961899757L197.5236,248.74271625280386L198.102,246.63369664549828L198.39119999999997,247.61814111471176L199.54800000000003,247.1459663808346L201.8616,250.9655714929104L204.1752,254.97326919436455L204.46439999999998,253.65257495641714L204.7536,252.93404737114912L205.9104,254.27028769254684L209.0916,257.2233582437039L210.82680000000002,261.49684140086174L212.27280000000002,261.9350231587887L213.1404,261.33032181859016L216.61079999999998,266.02166229486465L218.346,266.64156237244606L219.792,266.14546769857407L220.6596,269.5349926650524L221.81640000000002,269.7894940674305L222.9732,270.1701149493456L223.55159999999998,269.640369951725L229.0464,275.2480891495943L230.49239999999998,276.7458172291517L230.7816,275.5042709559202L232.2276,276.96732544898987L233.38439999999997,279.2863345295191L233.6736,277.65426801145077L234.252,280.1555117368698L236.5656,279.56311301887035L236.8548,281.6229878515005L238.59,282.3083861321211L238.87920000000003,282.72581630945206L239.1684,283.5201263576746L240.036,282.3007726818323L242.6388,285.2940978258848L244.95239999999998,288.02339302003384L249.5796,288.9207803606987L250.7364,290.1432695388794L252.4716,291.4483613669872L253.6284,292.0114844441414L254.20680000000002,291.71203458309174L257.67719999999997,293.6119847148657L257.9664,295.9107397645712L262.59360000000004,297.5399007797241L266.3532,300.3733387738466L266.6424,299.48491202294827L267.2208,299.2671776711941L268.956,301.3539201915264L271.5588,301.76177018880844L272.1372,303.35432843863964L272.4264,303.8084130138159L273.294,302.77529315650463L275.0292,303.962869361043L277.632,306.1712252497673L278.4996,304.5826286226511L278.7888,305.8804731220007L281.3916,305.54507763683796L281.6808,306.43090867996216L286.0188,307.428132198751L286.5972,307.6503280699253L287.1756,307.4257359802723L291.2244,309.1656651869416L292.6704,310.4838270843029L293.2488,310.8880369886756L294.1164,311.572390884161L296.43,309.5212701112032L298.16519999999997,312.0331266671419L298.7436,311.3687780275941L299.6112,311.9493176937103L301.3464,312.2451016455889L302.7924,312.9115273207426L305.6844,312.39930452406406L306.26279999999997,313.82581961899996L307.4196,313.2767124250531L309.15479999999997,314.114738792181L310.3116,312.8926837965846L310.6008,315.5316291153431L312.04679999999996,314.0675067678094L312.6252,314.8938289806247L312.9144,315.75060499459505L313.4928,315.7982641607523L314.07120000000003,314.5537959560752L314.3604,315.79880160838366L315.8064,315.8964833021164L316.0956,316.9235762357712L318.6984,315.268681101501L320.4336,315.39416456222534L321.012,316.5274843722582L322.458,317.41504745185375L323.904,317.40926226228476L324.4824,316.20405120402575L327.9528,317.2103432714939L329.9772,318.4531850516796L330.2664,317.94351337105036L330.8448,317.8954223692417L331.134,318.61953330785036L331.4232,318.2298063263297L331.7124,319.14606300741434L332.2908,318.0698839724064L333.1584,318.2124179005623L334.3152,318.19836211949587L335.7612,319.5797363072634L336.6288,319.3618963435292L337.7856,319.29039703309536L338.65319999999997,319.7982709631324L338.9424,318.68116611242294L339.5208,318.83981877565384L339.81,320.57753247767687L340.6776,319.66890332847834L340.96680000000003,320.72806710004807L341.8344,319.65127082169056L342.1236,321.1344291418791L343.5696,320.45078871399164L343.85880000000003,321.0813110098243L345.8832,320.725154556334L346.7508,321.6062846928835L347.9076,321.45932679623365L348.7752,321.35716715455055L349.35360000000003,320.8687070533633L349.932,322.14356099814177L351.0888,321.39068135619164L352.2456,322.087025731802L353.1132,321.893370911479L353.4024,321.3899232968688L353.6916,323.2812977358699L355.716,322.035672493279L357.45120000000003,322.21962509304285L358.02959999999996,321.65390630811453L358.3188,322.51585261523724L359.4756,323.64698273688555L360.6324,323.67855133116245L361.5,322.28317768871784L361.7892,323.5447526872158L362.07840000000004,321.78926331549883L362.65680000000003,322.75604946166277L363.23519999999996,323.2324486747384L365.838,324.0199643522501L366.12719999999996,323.2476075142622L366.99480000000005,323.99197483062744L367.284,323.7121899202466L367.5732,324.3472629189491L368.1516,324.0735119730234L368.4408,323.4685759395361L370.176,324.00489704310894L371.33279999999996,323.1164092719555L371.622,324.37682488560677L372.2004,324.41473254561424L372.7788,323.76940110325813L373.6464,324.1941044256091L373.9356,324.68383421748877L374.22479999999996,324.069768615067L374.514,324.5987907573581L375.3816,323.86563708633184L376.5384,324.01644395291805L377.98440000000005,324.4574326425791L378.2736,323.9464114755392L378.5628,324.8758673071861L380.298,324.9650085121393L382.03319999999997,325.6194789111614L383.19,324.87940882891417L384.0576,323.91081554442644L385.2144,324.45051857829094L386.3712,324.81850826740265L386.94960000000003,325.244629137218L388.3956,325.49368800222874L389.2632,325.2562394142151L395.33639999999997,326.38597076386213L395.91479999999996,325.82834655046463L396.204,325.4193395152688L397.3608,325.32517352700233L397.9392,326.036435008049L399.09600000000006,325.4063023030758L399.6744,325.41121443361044L401.98800000000006,325.65447872132063L403.7232,325.9912987947464L404.88000000000005,326.1685743704438L406.90439999999995,327.2089392095804L407.1936,326.38671239465475L407.4828,326.9258322156966L407.77199999999993,325.7010747268796L409.21799999999996,326.9379846341908L409.7964,326.8371263667941L410.664,326.473232075572L410.95320000000004,327.28921370208263L411.5316,326.70725414156914L413.84520000000003,326.99864111468196L414.13439999999997,326.31192972511053L415.00199999999995,327.12818007543683L417.02639999999997,327.0534924566746L417.89399999999995,326.82585522159934L420.4968,327.34991712123156L421.0752,327.491873703897L421.3644,327.0235502868891L421.65360000000004,327.5207409784198L422.5212,326.9034037515521L422.8104,327.9099903590977L423.96720000000005,327.1113173626363L425.4132,326.85597341135144L425.7024,327.94882975146174L426.85920000000004,326.8775053471327L427.1484,326.8826568648219L427.4376,328.1893211379647L427.7268,326.9343797452748L428.88359999999994,326.9813747294247L429.1728,327.76628179103136L430.0404,326.8276377171278L430.32959999999997,327.8859589397907L432.64320000000004,327.470347635448L433.8,328.0813598781824L434.3784,327.8647919520736L434.95680000000004,327.8094383664429L435.246,327.19130670279264L437.2704,328.2141070961952L437.5596,327.73619059100747L437.84880000000004,328.14657762274146L438.7164,326.8501365892589L441.03,327.0317035317421L441.6084,327.3334616012871L442.76520000000005,327.94395634531975L443.0544,328.466099627316L443.92199999999997,327.64341750741005L444.5004,327.2948240451515L446.5248,328.5018516294658L449.706,328.03916085138917L450.2844,327.6346963047981L452.01959999999997,328.3305830284953L452.3088,328.62814712896943L452.88719999999995,328.7706129960716L453.4656,328.59661139175296L454.6224,329.05408376455307L455.77919999999995,328.9348947778344L456.3576,328.6003336273134L457.8036,328.9345873296261L458.0928,329.0059258751571L458.382,328.5533984899521L460.6956,328.186401553452L462.4308,328.0930605120957L463.5876,328.2266185954213L463.87679999999995,329.1434573158622L464.166,328.495287258178L466.76879999999994,329.2669623121619L467.3472,329.3241993114352L468.21479999999997,328.8361921682954L469.95,328.4340428709984L470.2392,329.25209214538336L472.2636,328.4925037957728L472.84200000000004,328.87976767122746L478.62600000000003,329.02350088208914L478.91519999999997,329.57912316173315L480.072,329.99675634875894L480.3612,329.30609272420406L480.65039999999993,329.7159164920449L485.85600000000005,329.80966003239155L486.72360000000003,329.1440475694835L487.302,329.28417237102985L489.3264,329.7315118610859L489.61560000000003,328.8024597018957L491.3508,329.90477300807834L491.9292,329.844015609473L493.3752,330.064101587981L493.9536,330.3582767173648L494.53200000000004,330.0718687623739L495.6888,329.98858315497637L498.5808,330.6985233128071L500.89439999999996,330.53571071103215L501.1836,330.03292375802994L501.4728,330.434967443347L502.0512,330.3356123864651L502.9188,329.60163259506226L504.3648,330.79089859128L505.2324,329.4385852999985L506.96760000000006,330.38099268078804L507.546,329.9979732334614L508.1244,330.013052277267L508.41360000000003,330.7113129235804L509.2812,330.40484573319554L509.85960000000006,330.0916146822274L510.72720000000004,331.0006334222853L513.0408,330.86471784487367L515.0652,329.98990447819233L516.8004,330.5040400251746L517.9572000000001,330.9826183654368L518.2464,331.13725542649627L518.5355999999999,330.18978571146727L518.8248,331.1328889578581L520.56,331.2234218940139L521.4276,330.8919622153044L523.452,331.5297224521637L524.0304,331.33773278072476L524.898,330.74252478405833L525.1872000000001,331.2402740456164L526.0548,330.8439204990864L527.79,331.3825286887586L528.3684,330.7701141536236L529.236,331.60161839425564L530.1036,331.22170393913984L530.3928,331.7045149728656L530.9712000000001,331.69547106698155L531.2604,330.8990112282336L532.9956,330.9607860222459L536.466,331.0768817514181L539.6472,332.21007013320923L540.804,331.92314233258367L543.4068000000001,331.1131653338671L544.8528,331.9437354952097L545.142,331.24368765950203L546.0096,331.9599750973284L546.2988,331.39500146359205L546.8772,331.6229320652783L547.1664000000001,332.0555070005357L548.034,331.38127190619707L552.9504000000001,332.07182053104043L553.2396,331.24110720679164L553.5287999999999,332.22256051003933L554.9748,331.9821231029928L555.8424,332.0928760394454L556.9992,332.1181877106428L557.2884,331.3738157004118L557.5776,331.99389297142625L558.7344,332.1883492693305L559.0236,331.49585973098874L559.8912,332.17599384114146L561.048,332.34002332761884L561.6264,332.32729591056705L565.6752,332.2975661382079L568.278,331.72525599226356L568.5672,332.3904401399195L571.7484,331.74603808298707L574.062,331.53802355378866L574.3512,332.66359144449234L575.2188,331.5718721933663L575.7972,331.91015792638063L576.0863999999999,332.3872037194669L578.4,332.47399681806564L578.6892,332.3958897180855L578.9784,332.34979712963104L580.1352,332.51503528654575L580.7136,332.3625315874815L581.292,332.6183695681393L583.6056,332.3194172568619L585.0516,331.9322719015181L585.3408,332.4331202879548L586.2084,332.1748696602881L588.2328,332.48881769925356L591.7032,332.8191191665828L593.1492000000001,331.96292401850224L593.4384,332.530184738338L594.0168,332.74813735485077L594.3059999999999,331.8702541999519L596.0412,332.3045212738216L598.0656,332.6171104386449L598.3548,331.80425023287535L600.9576000000001,333.0429344214499L602.1143999999999,332.55282912030816L602.6928,332.6911632120609L603.8496,332.6593880876899L606.4524,332.3046925999224L608.4768,332.76693746075034L608.766,332.10649763792753L610.212,332.78081722185016L612.5255999999999,332.78337420523167L613.1039999999999,332.8865899667144L615.1284,332.21969255805016L615.4176,333.00017565116286L616.5744,332.7209716066718L618.0204,332.1064941175282L618.888,332.82399844005704L619.4664,332.8242190517485L620.334,331.9485502280295L621.2016,332.8235865533352L622.3584,333.0302445553243L624.672,333.04789231717587L626.9856,332.8735128566623L627.564,332.8821789063513L628.1424000000001,332.78142742440104L629.01,332.13302267342806L629.2991999999999,332.7991174310446L631.0344,333.12329809740186L631.3235999999999,332.4338314086199L633.6372,332.3043299987912L634.5048,333.01211332529783L634.794,332.4230366908014L635.0831999999999,332.93843488767743L635.3724,332.2041476480663L635.9508000000001,332.24645111337304L636.8184,333.0112965926528L638.8428,332.44635346904397L639.1320000000001,333.0544062294066L641.1564000000001,332.6474316380918L641.4456,333.18586146086454L641.7348,332.75074479728937L644.3376,333.03523882851005L645.4944,333.1918109357357L646.0727999999999,333.05542127788067L646.362,333.00289222598076L646.9404000000001,332.5291321389377L648.3864,333.1045625321567L648.6756,332.28152015805244L649.254,332.47814854234457L649.5432,333.29006058722734L649.8324,332.50512770935893L651.2784,333.06186712905765L655.3272,333.21087976545095L657.9300000000001,332.7056930735707L659.6652,332.3835378102958L661.6896,333.2256325855851L661.9788,332.68790332227945L664.5816,333.19224981218576L666.606,332.5049434751272L668.9196000000001,332.5362046211958L669.2088,333.3513307906687L670.0763999999999,332.8405020721257L672.1007999999999,333.3339799158275L672.6792,333.2677177861333L673.836,333.3203477561474L676.7280000000001,333.3282158486545L677.0172,332.6019469052553L677.8848,333.24930257722735L679.3308,332.5094519332051L680.4876,332.6416699178517L684.2472,333.5520369708538L684.8256,333.3919526785612L685.1148,332.6232324130833L686.85,332.79460310563445L687.1392,333.5153285935521L687.4284,332.85579351335764L688.0068,332.94220758229494L688.5852,332.70282512158155L692.0556,332.702239561826L694.6584,333.43677205592394L695.8152,333.32137336581945L697.2612,332.7950419820845L698.9964,332.8581099361181L700.7316,332.74931786209345L701.0208,333.61148478090763L702.756,333.6401865966618L703.9128000000001,333.57739792764187L704.4912,333.5147571153939L705.0695999999999,333.3102230876684L706.8048,333.4430794380605L707.6724,332.815279584378L708.2508,333.0500397607684L709.1184,333.45357374846935L709.986,332.76978546380997L710.8536,333.4378880225122L711.432,333.5044693350792L713.4564,332.93376683816314L714.0348,332.8206434994936L717.5052,333.03938468545675L717.7944,333.63241942226887L718.0835999999999,332.8568425923586L722.1324,333.028102979064L723.2891999999999,333.216485414654L724.446,332.9629263058305L725.6028,332.9976597391069L725.892,333.60521494969726L726.7596000000001,332.8751404546201L727.338,333.3838616274297L727.9164,333.34540243819356L730.23,332.85492514818907L730.8083999999999,332.8416485488415L731.676,333.5216653123498L732.5436000000001,332.9247651770711L733.4112,333.8093699477613L733.9896000000001,333.60325291380286L734.8572,332.8804832473397L735.7248000000001,333.5825494453311L736.014,333.13504919037223L740.352,333.6834722533822L742.3764,333.2266957461834L743.8223999999999,333.611749984324L744.1116,333.17297679930925L744.4008,333.7025340422988L744.9792,333.6621092967689L745.2683999999999,333.3090038560331L745.8468,333.10336676985025L746.4252,333.0854678861797L747.582,333.15399715304375L748.7388000000001,333.03645688667893L750.1848000000001,333.77244917303324L750.7632,333.7239110805094L752.7875999999999,333.1956657730043L753.366,332.9526033215225L753.6552,333.63010182604194L754.5228000000001,333.14095524698496L755.1012,333.1573438793421L756.258,333.4600348547101L757.1256,333.67548564076424L757.7040000000001,333.80528745800257L758.2823999999999,333.75569089874625L758.5716,333.1078916564584L761.4635999999999,333.54262224957347L761.7528000000001,333.8862366937101L762.9096,333.6943573281169L763.7772,333.0500949136913L764.6448,333.8254593461752L764.9340000000001,333.11972019821405L765.8015999999999,333.79990476742387L766.0908000000001,333.25569562241435L766.6692,333.087672829628L768.1152,333.8290536738932L768.4044,333.31147752329707L770.4288,333.94602950289845L770.7180000000001,333.1699386946857L771.8748,333.1765617392957L772.4532,333.37516858801246L773.0315999999999,333.02498859912157L774.1884,333.39023941755295L777.0803999999999,333.2793397977948L777.6587999999999,333.3302717618644L778.2372,333.43242436274886L778.5264,333.8782395198941L779.6832,333.8233553208411L780.5507999999999,333.24133356660604L782.8643999999999,333.374937415123L784.0212,333.29419353604317L784.8888,333.8609144613147L788.07,333.40559187904L789.2267999999999,333.0928665921092L789.8052,333.4354624673724L790.6727999999999,333.84895683825016L791.2512,333.95527993887663L791.5404,333.46502912789583L792.1188,333.3003002554178L792.6972000000001,333.3424089252949L792.9864,333.9571058526635L793.5647999999999,333.89726727828383L794.1432,333.88884061574936L794.4324,333.4372461363673L795.5892,333.2555289901793L795.8784,333.8830695077777L796.4567999999999,333.8114786669612L797.3244,333.9662448093295L798.7704,333.23170410096645L802.2407999999999,333.87936018034816L803.3976,333.99159168452024L804.2652,333.418660774827L807.1572,333.76748540997505L808.8924000000001,333.3461053445935L809.1816,333.984040427953L809.7600000000001,333.9295540340245L810.6276,333.435072876513L811.4952000000001,333.99356193467975L811.7844,333.4837623462081L812.0735999999999,334.0046030804515L814.9656,333.85566437244415L815.2547999999999,333.3570221029222L815.5439999999999,333.96096421033144L816.1224,333.97631315141916L819.5928,333.9375453405082L819.882,333.37409369274974L820.1712,333.954591114074L820.4604,333.37946816906333L822.7739999999999,333.55348620191216L825.3768,334.00784888863564L826.8227999999999,333.4632818363607L829.1364,333.48972824960947L829.4256,334.03277096897364L830.2932000000001,333.3808000534773L833.4744000000001,334.0771139189601L834.342,333.66237215325236L835.2096,334.02958266064525L835.4988,333.2553083784878L835.7879999999999,334.1007217168808L836.3664,334.03172306343913L838.68,334.05396142601967L839.2584,334.1532847993076L839.8367999999999,334.0549037195742L840.4152,333.96828781440854L843.3072000000001,334.04077166318893L845.6208,334.14520313590765L845.91,333.43866016343236L847.356,334.20402079448104L849.0912000000001,334.03590412437916L851.4048,333.99180994927883L853.14,334.180420037359L853.4291999999999,333.49732644483447L853.7184000000001,334.08670818060637L854.0076,333.75646186619997L854.586,333.5398880727589L856.0319999999999,334.0700602121651L861.5268,333.59323151037097L862.1052,333.6923765167594L863.262,333.53193079680204L863.5511999999999,334.1636007428169L866.4431999999999,334.17290281131864L867.0216,334.1719605177641L867.8892,333.46515703573823L868.1784,334.31719107180834L868.4676000000001,333.5758501254022L871.3596,333.4401164352894L871.6488,334.11535132303834L872.5164000000001,333.5969490520656L873.0948,333.7033237852156L874.2516,333.7842800617218L874.8299999999999,333.5647268369794L875.6976000000001,334.18779879435897L876.276,334.26771068573L876.8544,334.24950670078397L877.4328,334.18193263560534L880.0356,333.7688947431743L881.1924,333.8386291600764L882.3492,333.54246500506997L882.9276000000001,333.68649979680777L883.7951999999999,334.1225305907428L884.6628000000001,333.59432166069746L886.398,333.95558151975274L886.6872,334.2102342993021L887.8439999999999,334.3041773289442L888.7116000000001,333.61755629628897L889.5791999999999,334.03489024937153L890.1576,334.1470149680972L891.6036,333.79165529832244L892.7603999999999,333.76421143859625L893.628,334.20862782374024L893.9172,333.66306449845433L894.2063999999999,334.2561813779175L894.4956000000001,333.6714665181935L895.3632,334.12863965705037L896.52,334.13982279226184L898.2552,334.1826754398644L898.5443999999999,333.64974800124764L899.412,334.3859679400921L901.7256000000001,334.07504627108574L903.1716,333.70876045525074L904.0391999999999,334.23257475346327L904.9068000000001,333.80744898319244L905.196,334.33029517158866L905.7743999999999,334.334804803133L906.642,333.7295390255749L906.9312,334.3159953095019L907.5096000000001,334.33713296055794L909.2448,334.29899060726166L910.1124,333.95186749845743L910.98,334.2583581581712L911.2692,333.7709494829178L912.426,333.75796507671475L914.1612,333.86515771597624L917.9208000000001,334.2293758839369L919.0776000000001,334.32393615692854L919.6560000000001,334.30403768643737L921.102,333.98215701431036L922.548,334.196800455451L925.1508,333.73757727071643L926.3076,333.7127748839557L927.4644,333.82428001239896L928.332,334.29802249744534L932.6700000000001,333.701670370996L935.562,333.74770311266184L935.8512,334.36507554352283L936.1404,333.8926672898233L937.008,334.4733794555068L938.7432,334.3541329689324L940.4784,334.4307098686695L940.7675999999999,333.80438623577356L941.0568000000001,334.4105485416949L941.346,333.76482398808L941.6352,334.4009800963104L941.9244,333.7704836167395L942.2135999999999,334.32983047887683L944.5272,334.3579619899392L951.1788,333.93037428706884L951.4680000000001,334.37839556112885L951.7572,333.79356452822685L953.7815999999999,334.3049928881228L956.9628000000001,333.9400694668293L957.5412,334.1957865804434L958.6980000000001,333.7673211246729L961.0115999999999,333.8896761238575L961.3007999999999,334.4465105943382L962.1684,333.86715964972973L962.7467999999999,333.92460787296295L963.0360000000001,334.50833232700825L963.6143999999999,334.38751808926463L969.1092,333.8924642801285L970.5552,334.3789517842233L971.4227999999999,333.69981042668223L972.2904,334.47932893037796L974.8932,333.83259754255414L975.1824,334.50800492987037L976.9176,334.4172807186842L977.4960000000001,334.4173933714628L977.7852,334.00728914514184L979.5204,333.94133211672306L980.388,334.54597713053226L980.6772000000001,333.7394207865L982.1232,334.4811982624233L982.7016,334.5142688937485L983.2800000000001,334.3904799185693L984.1476,333.9056939408183L984.4368,334.6026825495064L986.7504,334.54810931906104L988.1964,333.864020626992L988.7747999999999,333.8906219378114L989.0640000000001,334.38231963291764L989.3532,333.89581217989326L992.5344,334.46917609870434L995.4264000000001,334.05166847258806L997.7399999999999,333.9331248924136L1002.6564000000001,334.36997124552727L1004.1024,333.9249470047653L1004.6808,334.0780843757093L1004.9699999999999,334.504481010139L1005.8376,333.9357182532549L1008.7296,334.0947147421539L1010.4648,333.92688205093145L1011.6216,334.02389604225755L1013.0676,334.5088322237134L1013.646,334.5851791240275L1014.2244000000001,334.58925222605467L1014.8027999999999,334.6169718503952L1015.3812,334.5941080302L1016.5379999999999,334.46008760109544L1016.8272000000001,333.95087357237935L1017.6948,334.39946515113115L1017.9839999999999,334.22616762667894L1018.2732000000001,334.5383824557066L1019.43,334.32105999067426L1020.0084,334.5094928853214L1020.876,334.0011695176363L1021.1652,334.5102826282382L1021.7436,334.4451787099242L1023.1896,333.90962505340576L1023.7679999999999,333.97981360182166L1024.0572,334.6148197129369L1024.3464000000001,334.1393956504762L1026.0816,334.03882605582476L1026.6599999999999,334.0483229197562L1027.5276000000001,334.6237005069852L1030.1304,334.0836888514459L1030.998,334.4672445729375L1031.5764000000001,334.69933980703354L1032.1548,334.5493027344346L1032.7332,334.56584978476167L1033.3116,334.57372257113457L1035.9144000000001,334.14812272042036L1037.0711999999999,333.9832776747644L1037.6496,333.98618552461267L1038.5172,334.6836071424186L1040.8308,334.55708633735776L1041.9876,334.5785912834108L1043.1444000000001,334.59120604768395L1044.8796,334.5314484424889L1046.904,334.07248224690557L1047.4824,334.2166461199522L1048.9284,334.6043430045247L1050.9528,334.3946492448449L1051.8204,334.6157455779612L1052.1096,334.0818676315248L1053.5556000000001,334.6790341436863L1053.8448,334.04032926633954L1054.134,334.57765133678913L1054.7124000000001,334.6421368382871L1055.58,334.18157003447413L1057.026,334.61604481190443L1057.8936,334.0558155030012L1058.1828,334.5750837922096L1058.7612,334.41923688724637L1060.4964,334.655469764024L1063.3884,334.6606494449079L1065.4128,334.0328448973596L1066.2804,334.5729692056775L1066.5696,334.14254288747907L1068.594,334.5493027344346L1068.8832,334.07615871727467L1069.1724,334.6075876392424L1069.4616,334.1438372209668L1070.9076,334.6348014995456L1071.7752,334.1484407298267L1078.716,334.1996824890375L1079.5836000000002,334.645535197109L1080.162,334.6981980241835L1081.608,334.1792970299721L1082.4756,334.5142548121512L1082.7648,333.9337667785585L1083.3432,334.12475196272135L1083.6324,334.6686313636601L1085.6568,334.3330258280039L1086.2352,334.3817422874272L1086.8136000000002,334.1932542398572L1089.4163999999998,334.7468041777611L1090.8624,334.1407498307526L1091.1516000000001,334.63549384474754L1092.8868,334.66288255155087L1093.4651999999999,334.71595726534724L1094.0436,334.6732970662415L1094.622,334.6045354530215L1095.7788,334.68905672058463L1096.6463999999999,334.25181725621223L1097.8032,334.2970367856324L1100.406,334.71403043344617L1100.6951999999999,334.295598115772L1100.9844,334.66144270822406L1102.7196,334.5091607943177L1105.0332,334.78045450150967L1106.19,334.7030878588557L1106.7684,334.6657739728689L1107.0575999999999,334.2048891596496L1107.3468,334.69667134433985L1108.5036,334.75892608612776L1109.9496,334.10354859754443L1111.974,334.67261293530464L1114.2875999999999,334.74515311047435L1115.4443999999999,334.6948114000261L1116.6012,334.731274522841L1117.1796,334.5912154354155L1118.9148,334.6601718440652L1119.7824,334.0790208019316L1120.3608000000002,334.2457187511027L1120.9392,334.27522556483746L1121.5176,334.101618245244L1122.3852,334.7880914211273L1122.9636,334.77384553849697L1123.8312,334.1265426725149L1124.988,334.4791517369449L1125.5664,334.3042277880013L1127.3016,334.1423621736467L1128.7476,334.6255193799734L1129.0368,334.2337083220482L1130.1935999999998,334.20039008930326L1132.218,334.63693955540657L1135.3992,334.3389025479555L1136.2668,334.7454523444176L1136.556,334.2121482230723L1137.4235999999999,334.7862936705351L1138.8696,334.1923072524369L1140.6047999999998,334.2450557425618L1140.894,334.80631300807L1142.0508,334.7060309126973L1142.6292,334.54204132407904L1144.3644,334.7300998829305L1144.6535999999999,334.2631388604641L1145.232,334.46382626518607L1146.3888,334.3600143827498L1148.4132,334.6843558140099L1150.1484,334.79438120126724L1151.016,334.3163508698344L1152.7512,334.2311595529318L1155.0647999999999,334.2855145186186L1155.9324,334.70203760638833L1156.5108,334.84060756489635L1156.8,334.37260215729475L1158.246,334.7018240354955L1158.5352,334.2321229688823L1159.4027999999998,334.7790698111057L1159.9812,334.7230074517429L1160.2704,334.4098186455667L1160.8488,334.4010974429548L1162.2948,334.7290918752551L1165.1868,334.76057832688093L1166.922,334.8607595041394L1167.5004,334.7675381563604L1167.7896,334.16851522028446L1168.9464,334.3782606124878L1169.2356,334.62552876770496L1170.3924,334.77849715948105L1170.9708,334.83312436938286L1172.7060000000001,334.8620726130903L1172.9952,334.30130233615637L1173.8627999999999,334.7596583291888L1175.0196,334.8459221944213L1178.49,334.77782241627574L1179.936,334.3261751309037L1180.2252,334.79691940918565L1180.8036,334.91460049152374L1183.4064,334.21225148811936L1183.6956,334.8174574188888L1185.4307999999999,334.8511312119663L1185.72,334.34438498318195L1186.2984000000001,334.3137798048556L1189.7688,334.3090718574822L1190.9256,334.31289618462324L1191.504,334.2920472063124L1192.0824,334.29501138255L1192.95,334.76222587376833L1193.8176,334.41989754885435L1196.4204,334.8970618620515L1198.1556,334.75336737558246L1198.734,334.8461252041161L1201.9152000000001,334.2855520695448L1202.2044,334.94347128644586L1203.9396,334.7511694729328L1205.964,334.35885617136955L1212.9048,334.4287102818489L1213.194,334.8408363908529L1213.7724,334.8964469656348L1214.6399999999999,334.567132383585L1215.2184,334.42712258175015L1221.2916,334.80085756257176L1222.1591999999998,334.22784216329455L1223.316,334.32642625272274L1223.6052,334.7426184229553L1223.8944000000001,334.50213407725096L1224.4728,334.39980662986636L1225.6296,334.2957600541413L1226.4972,334.72196893393993L1227.0756000000001,334.65888572484255L1227.654,334.7422675564885L1229.6784,334.4312801733613L1230.546,334.8753867633641L1230.8352,334.3363080136478L1231.7028,334.9047058224678L1233.1488,334.2918148599565L1235.4624000000001,334.59398364275694L1236.6191999999999,334.3885225765407L1237.1976,334.55058885365725L1237.776,334.28592171147466L1238.0652,334.78601555898786L1239.8004,334.8128210529685L1240.9572,334.94649413600564L1241.5356,334.8378604799509L1242.114,334.9346104413271L1242.9816,334.33668234944344L1245.5844000000002,334.75408436357975L1246.1628,334.78542061150074L1246.452,334.4593354091048L1247.6088,334.31252888962626L1249.0548000000001,334.825386531651L1249.6332,334.8511910587549L1252.5252,334.8280714228749L1253.1036000000001,334.90805020183325L1253.682,334.9424890950322L1257.4416,334.6173321045935L1258.5983999999999,334.41172904893756L1259.1768,334.5333248153329L1262.0688,334.5165184289217L1263.5148,334.8859256654978L1265.5392,334.5773274600506L1266.4068,334.7965931855142L1266.9852,334.9276811219752L1268.7204,334.900446139276L1270.7448,334.4576198011637L1272.7692,334.93049861490726L1273.0584,334.50475208088756L1273.3476,334.93511620536447L1273.926,334.91361477971077L1274.7936,334.6289071775973L1275.372,334.50013214349747L1277.1072,334.3356391377747L1278.2640000000001,334.47102430835366L1278.5532,334.9074857644737L1280.2884,334.8714943751693L1280.5776,334.54779248312116L1280.8668,334.8540531434119L1282.3128000000002,334.5903482437134L1282.602,334.8376152254641L1283.7588,334.9297135658562L1286.94,334.4632993787527L1288.6752,334.5504069663584L1289.832,334.4830417782068L1290.4104,334.6555577740073L1291.278,334.834839977324L1291.8564,334.9434748068452L1293.5916,334.9606179781258L1294.4592,334.4174403101206L1295.616,334.60491213575006L1296.7728,334.68475713953376L1297.3512,334.5292434990406L1298.2188,334.908128824085L1298.7972,334.84447883069515L1299.954,334.891045499593L1300.5324,334.9795917570591L1301.1108000000002,334.9253330156207" style="fill: none;" fill="none"></path></g></g></g></g></g><g><g opacity="0.99215"><span fill="rgb(0, 0, 0)" stroke="none" stroke-width="1px">Alt + Scroll to Zoom</span></g></g></g><g transform="translate(50, 378)" clip-path="url(#clip_1)"><clipPath id="clip_1"><rect width="1446" height="22"></rect></clipPath><g><g><line x1="0" y1="0" x2="0" y2="5" style="visibility: inherit;" fill="rgb(0, 0, 0)" stroke="rgb(204, 204, 204)" stroke-width="1px"></line><line x1="144.6" y1="0" x2="144.6" y2="5" style="visibility: inherit;" fill="rgb(0, 0, 0)" stroke="rgb(204, 204, 204)" stroke-width="1px"></line><line x1="289.2" y1="0" x2="289.2" y2="5" style="visibility: inherit;" fill="rgb(0, 0, 0)" stroke="rgb(204, 204, 204)" stroke-width="1px"></line><line x1="433.8" y1="0" x2="433.8" y2="5" style="visibility: inherit;" fill="rgb(0, 0, 0)" stroke="rgb(204, 204, 204)" stroke-width="1px"></line><line x1="578.4" y1="0" x2="578.4" y2="5" style="visibility: inherit;" fill="rgb(0, 0, 0)" stroke="rgb(204, 204, 204)" stroke-width="1px"></line><line x1="723" y1="0" x2="723" y2="5" style="visibility: inherit;" fill="rgb(0, 0, 0)" stroke="rgb(204, 204, 204)" stroke-width="1px"></line><line x1="867.6" y1="0" x2="867.6" y2="5" style="visibility: inherit;" fill="rgb(0, 0, 0)" stroke="rgb(204, 204, 204)" stroke-width="1px"></line><line x1="1012.1999999999999" y1="0" x2="1012.1999999999999" y2="5" style="visibility: inherit;" fill="rgb(0, 0, 0)" stroke="rgb(204, 204, 204)" stroke-width="1px"></line><line x1="1156.8" y1="0" x2="1156.8" y2="5" style="visibility: inherit;" fill="rgb(0, 0, 0)" stroke="rgb(204, 204, 204)" stroke-width="1px"></line><line x1="1301.4" y1="0" x2="1301.4" y2="5" style="visibility: inherit;" fill="rgb(0, 0, 0)" stroke="rgb(204, 204, 204)" stroke-width="1px"></line><line x1="1446" y1="0" x2="1446" y2="5" style="visibility: inherit;" fill="rgb(0, 0, 0)" stroke="rgb(204, 204, 204)" stroke-width="1px"></line></g><g transform="translate(0, 8)"><text x="0" y="0" dx="0em" dy="0.95em" style="text-anchor: middle; visibility: hidden; font-family: Roboto, sans-serif; font-size: 12px; font-weight: 200;" fill="rgb(50, 49, 63)" stroke="none" stroke-width="1px">-500</text><text x="144.6" y="0" dx="0em" dy="0.95em" style="text-anchor: middle; visibility: inherit; font-family: Roboto, sans-serif; font-size: 12px; font-weight: 200;" fill="rgb(50, 49, 63)" stroke="none" stroke-width="1px">0</text><text x="289.2" y="0" dx="0em" dy="0.95em" style="text-anchor: middle; visibility: inherit; font-family: Roboto, sans-serif; font-size: 12px; font-weight: 200;" fill="rgb(50, 49, 63)" stroke="none" stroke-width="1px">500</text><text x="433.8" y="0" dx="0em" dy="0.95em" style="text-anchor: middle; visibility: inherit; font-family: Roboto, sans-serif; font-size: 12px; font-weight: 200;" fill="rgb(50, 49, 63)" stroke="none" stroke-width="1px">1k</text><text x="578.4" y="0" dx="0em" dy="0.95em" style="text-anchor: middle; visibility: inherit; font-family: Roboto, sans-serif; font-size: 12px; font-weight: 200;" fill="rgb(50, 49, 63)" stroke="none" stroke-width="1px">1.5k</text><text x="723" y="0" dx="0em" dy="0.95em" style="text-anchor: middle; visibility: inherit; font-family: Roboto, sans-serif; font-size: 12px; font-weight: 200;" fill="rgb(50, 49, 63)" stroke="none" stroke-width="1px">2k</text><text x="867.6" y="0" dx="0em" dy="0.95em" style="text-anchor: middle; visibility: inherit; font-family: Roboto, sans-serif; font-size: 12px; font-weight: 200;" fill="rgb(50, 49, 63)" stroke="none" stroke-width="1px">2.5k</text><text x="1012.1999999999999" y="0" dx="0em" dy="0.95em" style="text-anchor: middle; visibility: inherit; font-family: Roboto, sans-serif; font-size: 12px; font-weight: 200;" fill="rgb(50, 49, 63)" stroke="none" stroke-width="1px">3k</text><text x="1156.8" y="0" dx="0em" dy="0.95em" style="text-anchor: middle; visibility: inherit; font-family: Roboto, sans-serif; font-size: 12px; font-weight: 200;" fill="rgb(50, 49, 63)" stroke="none" stroke-width="1px">3.5k</text><text x="1301.4" y="0" dx="0em" dy="0.95em" style="text-anchor: middle; visibility: inherit; font-family: Roboto, sans-serif; font-size: 12px; font-weight: 200;" fill="rgb(50, 49, 63)" stroke="none" stroke-width="1px">4k</text><text x="1446" y="0" dx="0em" dy="0.95em" style="text-anchor: middle; visibility: hidden; font-family: Roboto, sans-serif; font-size: 12px; font-weight: 200;" fill="rgb(50, 49, 63)" stroke="none" stroke-width="1px">4.5k</text></g><line x1="0" y1="0" x2="1446" y2="0" fill="rgb(0, 0, 0)" stroke="rgb(204, 204, 204)" stroke-width="1px"></line></g></g></g></g></svg>