<?xml version="1.0" encoding="utf-8" standalone="no"?>
<!DOCTYPE svg PUBLIC "-//W3C//DTD SVG 1.1//EN"
  "http://www.w3.org/Graphics/SVG/1.1/DTD/svg11.dtd">
<!-- Created with matplotlib (https://matplotlib.org/) -->
<svg height="288pt" version="1.1" viewBox="0 0 720 288" width="720pt" xmlns="http://www.w3.org/2000/svg" xmlns:xlink="http://www.w3.org/1999/xlink">
 <metadata>
  <rdf:RDF xmlns:cc="http://creativecommons.org/ns#" xmlns:dc="http://purl.org/dc/elements/1.1/" xmlns:rdf="http://www.w3.org/1999/02/22-rdf-syntax-ns#">
   <cc:Work>
    <dc:type rdf:resource="http://purl.org/dc/dcmitype/StillImage"/>
    <dc:date>2021-04-26T15:39:38.540725</dc:date>
    <dc:format>image/svg+xml</dc:format>
    <dc:creator>
     <cc:Agent>
      <dc:title>Matplotlib v3.3.4, https://matplotlib.org/</dc:title>
     </cc:Agent>
    </dc:creator>
   </cc:Work>
  </rdf:RDF>
 </metadata>
 <defs>
  <style type="text/css">*{stroke-linecap:butt;stroke-linejoin:round;}</style>
 </defs>
 <g id="figure_1">
  <g id="patch_1">
   <path d="M 0 288 
L 720 288 
L 720 0 
L 0 0 
z
" style="fill:#ffffff;"/>
  </g>
  <g id="axes_1">
   <g id="line2d_1">
    <path clip-path="url(#pd19225a303)" d="M 148.689174 225.009512 
L 125.533818 220.216888 
L 104.584622 215.868723 
L 96.781967 214.50851 
L 90.739152 213.678028 
L 85.178748 213.141058 
L 79.752404 212.875537 
L 75.336953 212.880984 
L 70.577236 213.140368 
L 65.893017 213.685128 
L 62.314201 214.323253 
L 58.584748 215.233172 
L 55.906258 216.078677 
L 52.882555 217.294255 
L 51.11375 218.186403 
L 49.296604 219.31849 
L 47.604588 220.71492 
L 46.485149 222.04708 
L 45.947052 223.035466 
L 45.659151 224.013915 
L 45.6136 224.841054 
L 45.783419 225.7318 
L 46.327443 226.804454 
L 47.397082 227.949478 
L 49.189634 229.139078 
L 51.013999 229.984799 
L 53.755087 230.923779 
L 56.904814 231.723999 
L 60.756376 232.452618 
L 65.465539 233.086553 
L 70.464785 233.525825 
L 75.539363 233.77199 
L 81.564566 233.843514 
L 87.790418 233.695863 
L 93.986161 233.338014 
L 99.867269 232.799688 
L 106.146714 232.009795 
L 113.825045 230.80199 
L 132.775813 227.459697 
L 148.635148 224.754122 
L 148.635148 224.754122 
" style="fill:none;stroke:#000000;stroke-linecap:square;stroke-opacity:0.7;stroke-width:1.2;"/>
   </g>
   <g id="line2d_2">
    <path clip-path="url(#pd19225a303)" d="M 149.059761 185.904589 
L 144.095304 184.645073 
L 136.16114 182.851136 
L 126.646069 180.932678 
L 116.927623 179.193309 
L 108.221546 177.836703 
L 100.346598 176.814187 
L 93.021873 176.089635 
L 86.711731 175.696458 
L 82.070588 175.584657 
L 77.032644 175.672794 
L 72.333776 175.980723 
L 67.356811 176.56941 
L 62.62467 177.403206 
L 58.838974 178.286267 
L 55.696399 179.190217 
L 52.251472 180.40477 
L 49.144426 181.786038 
L 46.918716 183.075837 
L 45.772972 183.988782 
L 45.282379 184.597724 
L 45.162744 185.13448 
L 45.279204 185.360001 
L 45.595703 185.576152 
L 46.158815 185.733379 
L 47.069975 185.813377 
L 49.191737 185.73068 
L 53.419014 185.233364 
L 69.623781 183.047066 
L 75.883998 182.462374 
L 82.916052 182.036045 
L 90.820524 181.801399 
L 99.550029 181.764158 
L 109.139879 181.951814 
L 117.710052 182.347343 
L 126.681727 183.006163 
L 135.142305 183.842359 
L 144.100939 184.945775 
L 149.033806 185.655281 
L 149.033806 185.655281 
" style="fill:none;stroke:#000000;stroke-linecap:square;stroke-opacity:0.7;stroke-width:1.2;"/>
   </g>
   <g id="line2d_3">
    <path clip-path="url(#pd19225a303)" d="M 149.170586 146.920133 
L 142.936444 146.873514 
L 132.001899 146.557356 
L 118.307575 145.926065 
L 106.198054 145.146837 
L 95.216894 144.206209 
L 75.0617 142.359018 
L 69.326159 142.14166 
L 64.587463 142.156159 
L 59.705258 142.368805 
L 54.655205 142.820888 
L 51.152938 143.306926 
L 47.720032 144.005257 
L 45.716943 144.649739 
L 45.016503 145.016997 
L 44.61617 145.412464 
L 44.558317 145.679176 
L 44.782802 146.057533 
L 45.17087 146.32492 
L 46.009053 146.681352 
L 47.449379 147.083809 
L 50.532994 147.645858 
L 54.065555 148.080836 
L 60.177001 148.594389 
L 69.560251 149.118557 
L 86.268116 149.797286 
L 94.843386 149.962949 
L 102.981538 149.891791 
L 111.240014 149.559741 
L 121.957408 148.860878 
L 149.181079 146.789278 
L 149.181079 146.789278 
" style="fill:none;stroke:#000000;stroke-linecap:square;stroke-opacity:0.7;stroke-width:1.2;"/>
   </g>
   <g id="line2d_4">
    <path clip-path="url(#pd19225a303)" d="M 148.843539 106.310559 
L 141.779272 104.981313 
L 129.954735 102.984027 
L 116.016758 100.868603 
L 104.051624 99.27524 
L 93.528103 98.104913 
L 86.300749 97.495903 
L 80.359747 97.201286 
L 75.314672 97.172617 
L 70.924117 97.36288 
L 66.628583 97.776115 
L 62.55774 98.39993 
L 58.921037 99.172133 
L 55.070582 100.251461 
L 52.224307 101.270683 
L 50.231671 102.140421 
L 47.857583 103.450082 
L 46.559892 104.417914 
L 45.573263 105.574259 
L 45.36349 106.24556 
L 45.466814 106.761596 
L 45.757992 107.138125 
L 46.375114 107.531399 
L 47.450945 107.887459 
L 48.814082 108.124666 
L 52.208601 108.332983 
L 56.51164 108.301894 
L 68.953949 107.839946 
L 80.329785 107.549669 
L 104.332529 107.075902 
L 134.245147 105.991036 
L 144.239383 105.965412 
L 148.809431 106.028894 
L 148.809431 106.028894 
" style="fill:none;stroke:#000000;stroke-linecap:square;stroke-opacity:0.7;stroke-width:1.2;"/>
   </g>
   <g id="line2d_5">
    <path clip-path="url(#pd19225a303)" d="M 149.020382 67.496446 
L 143.846047 65.950204 
L 135.308456 63.650135 
L 124.995461 61.125007 
L 116.101189 59.156014 
L 108.270564 57.618769 
L 101.032605 56.396144 
L 93.020157 55.292211 
L 86.6586 54.633362 
L 81.206724 54.268507 
L 76.087858 54.153271 
L 71.193818 54.31625 
L 67.209775 54.697678 
L 63.680376 55.261054 
L 61.036329 55.845312 
L 57.65247 56.83138 
L 54.786335 57.916581 
L 51.696104 59.411849 
L 49.324612 60.866416 
L 47.186359 62.528485 
L 45.374794 64.477173 
L 44.753851 65.528519 
L 44.516647 66.362176 
L 44.546079 66.889142 
L 44.838872 67.444813 
L 45.604433 67.944686 
L 46.94175 68.250423 
L 49.100695 68.319827 
L 52.455459 68.086368 
L 71.649354 66.097906 
L 78.022044 65.822855 
L 84.620545 65.783139 
L 93.480544 65.989839 
L 112.98045 66.514317 
L 141.258713 67.072753 
L 148.984995 67.330248 
L 148.984995 67.330248 
" style="fill:none;stroke:#000000;stroke-linecap:square;stroke-opacity:0.7;stroke-width:1.2;"/>
   </g>
   <g id="line2d_6">
    <path clip-path="url(#pd19225a303)" d="M 280.114532 224.682629 
L 272.801279 222.494011 
L 261.325948 219.274543 
L 247.794003 215.697613 
L 238.014709 213.350739 
L 231.853651 212.066711 
L 226.388443 211.108262 
L 220.596234 210.322575 
L 215.995966 209.900558 
L 210.848518 209.681543 
L 207.284442 209.712122 
L 203.707841 209.914669 
L 200.411683 210.272755 
L 196.246047 210.994046 
L 193.616665 211.626865 
L 190.59042 212.555799 
L 187.783262 213.64826 
L 185.276846 214.861707 
L 182.533174 216.545576 
L 180.968912 217.750612 
L 179.404292 219.250147 
L 178.284917 220.652663 
L 177.455382 222.119967 
L 177.021494 223.429503 
L 176.90795 224.36314 
L 177.01846 225.456264 
L 177.295987 226.244835 
L 177.865353 227.136 
L 179.227577 228.331773 
L 180.817994 229.174018 
L 182.266013 229.7135 
L 185.03936 230.435647 
L 188.385536 231.009196 
L 192.995532 231.511058 
L 197.600583 231.809288 
L 203.773003 231.994104 
L 211.158129 231.969489 
L 218.853652 231.701339 
L 225.818633 231.250796 
L 233.523217 230.516537 
L 241.908785 229.484974 
L 280.047936 224.441774 
L 280.047936 224.441774 
" style="fill:none;stroke:#000000;stroke-linecap:square;stroke-opacity:0.7;stroke-width:1.2;"/>
   </g>
   <g id="line2d_7">
    <path clip-path="url(#pd19225a303)" d="M 280.812186 186.568162 
L 217.06416 179.054037 
L 209.958968 178.551636 
L 203.804569 178.395411 
L 198.762954 178.523289 
L 194.883422 178.803141 
L 191.300833 179.217952 
L 187.476791 179.85089 
L 183.893779 180.666021 
L 180.866319 181.594028 
L 178.761266 182.455259 
L 177.400216 183.195987 
L 176.374476 183.984573 
L 175.823335 184.697918 
L 175.6562 185.428871 
L 175.823521 185.968467 
L 176.11149 186.347588 
L 176.660477 186.793259 
L 178.12056 187.500116 
L 179.649189 187.972398 
L 182.646086 188.577873 
L 186.319939 189.038849 
L 191.851901 189.451012 
L 200.281664 189.791571 
L 216.997627 190.192166 
L 227.783531 190.248918 
L 236.250388 190.056614 
L 244.473771 189.634389 
L 255.459054 188.818321 
L 271.713194 187.376317 
L 280.828301 186.465654 
L 280.828301 186.465654 
" style="fill:none;stroke:#000000;stroke-linecap:square;stroke-opacity:0.7;stroke-width:1.2;"/>
   </g>
   <g id="line2d_8">
    <path clip-path="url(#pd19225a303)" d="M 280.112724 145.572987 
L 255.67042 142.008231 
L 234.059334 138.847181 
L 224.432581 137.687474 
L 217.388629 137.048122 
L 211.508045 136.724312 
L 206.871404 136.656686 
L 202.326348 136.791036 
L 197.653285 137.170966 
L 193.163667 137.802964 
L 189.853642 138.4671 
L 186.791406 139.267233 
L 183.406645 140.433092 
L 181.485107 141.291249 
L 179.606245 142.373276 
L 178.394791 143.340262 
L 177.657096 144.277704 
L 177.466721 144.78074 
L 177.453986 145.274285 
L 177.612713 145.687795 
L 177.973731 146.094726 
L 178.193186 146.257021 
L 179.395876 146.793942 
L 181.021733 147.167576 
L 183.931784 147.497067 
L 188.052537 147.690074 
L 198.010181 147.840162 
L 213.125315 148.135506 
L 226.888644 148.387304 
L 234.204367 148.299887 
L 241.569976 147.987262 
L 252.303417 147.281308 
L 280.093848 145.289225 
L 280.093848 145.289225 
" style="fill:none;stroke:#000000;stroke-linecap:square;stroke-opacity:0.7;stroke-width:1.2;"/>
   </g>
   <g id="line2d_9">
    <path clip-path="url(#pd19225a303)" d="M 280.651828 107.018448 
L 273.91193 105.561718 
L 261.506281 103.12083 
L 248.78257 100.841129 
L 239.098055 99.333918 
L 231.442693 98.360297 
L 224.46709 97.676651 
L 218.261514 97.254684 
L 212.642183 97.056542 
L 207.369865 97.072002 
L 202.048704 97.335101 
L 198.032407 97.730936 
L 194.285046 98.279112 
L 190.204377 99.107741 
L 186.902032 99.996025 
L 183.603981 101.143437 
L 180.930528 102.358051 
L 179.05355 103.476634 
L 177.651566 104.630365 
L 177.085687 105.314084 
L 176.727033 106.058046 
L 176.667927 106.571269 
L 176.858247 107.18116 
L 177.248178 107.63369 
L 178.556836 108.344084 
L 179.897278 108.726006 
L 181.785148 109.04979 
L 185.128203 109.34965 
L 189.411439 109.505772 
L 197.837929 109.531743 
L 216.536076 109.279873 
L 232.230206 108.900412 
L 245.480369 108.34773 
L 272.572637 107.174737 
L 280.632832 106.894423 
L 280.632832 106.894423 
" style="fill:none;stroke:#000000;stroke-linecap:square;stroke-opacity:0.7;stroke-width:1.2;"/>
   </g>
   <g id="line2d_10">
    <path clip-path="url(#pd19225a303)" d="M 280.178755 66.97626 
L 266.716129 65.04148 
L 234.774459 60.620458 
L 225.017728 59.537865 
L 217.630546 58.942928 
L 212.012812 58.694199 
L 206.970413 58.675865 
L 202.056769 58.885145 
L 197.078852 59.360041 
L 193.079181 59.957979 
L 189.27914 60.731796 
L 186.157679 61.546639 
L 182.748221 62.677126 
L 180.477973 63.630166 
L 178.679096 64.581736 
L 177.689415 65.265292 
L 177.028586 65.997292 
L 176.993573 66.339536 
L 177.097085 66.48217 
L 177.640727 66.698143 
L 178.616159 66.776299 
L 180.687368 66.682613 
L 186.768473 66.046877 
L 195.135509 65.209469 
L 201.374911 64.780336 
L 207.650885 64.549582 
L 215.093486 64.514051 
L 225.570114 64.752256 
L 271.547257 66.281409 
L 280.16274 66.755278 
L 280.16274 66.755278 
" style="fill:none;stroke:#000000;stroke-linecap:square;stroke-opacity:0.7;stroke-width:1.2;"/>
   </g>
   <g id="line2d_11">
    <path clip-path="url(#pd19225a303)" d="M 412.447811 225.998674 
L 407.343423 224.523438 
L 400.388269 222.733431 
L 391.429396 220.680038 
L 382.964927 218.971156 
L 375.84014 217.724965 
L 368.707508 216.689659 
L 361.767874 215.921399 
L 355.62813 215.461592 
L 349.884494 215.240485 
L 344.435106 215.244698 
L 339.804537 215.435085 
L 335.631327 215.769739 
L 330.556149 216.404644 
L 326.307204 217.149708 
L 321.988699 218.141715 
L 317.895602 219.363795 
L 314.809964 220.548401 
L 312.883503 221.469931 
L 311.292891 222.410417 
L 310.063028 223.347796 
L 309.197331 224.268409 
L 308.697061 225.152431 
L 308.552022 226.114546 
L 308.655474 226.60727 
L 309.062103 227.343458 
L 309.350295 227.67131 
L 310.463194 228.529174 
L 312.30135 229.430465 
L 313.067321 229.719326 
L 316.344643 230.662166 
L 319.897432 231.370932 
L 324.525592 232.009216 
L 329.212601 232.420631 
L 334.109283 232.637492 
L 339.082704 232.648985 
L 343.703009 232.483697 
L 349.742373 232.052059 
L 356.732644 231.332837 
L 368.168587 229.892596 
L 382.023871 228.16403 
L 391.520504 227.204363 
L 400.963368 226.456907 
L 410.864395 225.889293 
L 412.443851 225.820058 
L 412.443851 225.820058 
" style="fill:none;stroke:#000000;stroke-linecap:square;stroke-opacity:0.7;stroke-width:1.2;"/>
   </g>
   <g id="line2d_12">
    <path clip-path="url(#pd19225a303)" d="M 412.47376 186.512125 
L 406.534372 185.521373 
L 397.790875 184.289451 
L 385.442496 182.795453 
L 374.599893 181.7082 
L 365.741717 181.038723 
L 356.886601 180.612063 
L 348.687589 180.434854 
L 340.255671 180.48218 
L 333.26717 180.741973 
L 327.197333 181.18289 
L 322.535571 181.700994 
L 317.935503 182.428326 
L 315.032605 183.055997 
L 312.345174 183.841842 
L 310.922475 184.409077 
L 309.782187 185.037904 
L 309.173006 185.551085 
L 308.814988 186.270849 
L 308.905024 186.700334 
L 309.328178 187.183607 
L 310.128707 187.646379 
L 311.462243 188.114346 
L 314.23732 188.698662 
L 318.461028 189.212873 
L 324.318618 189.619744 
L 332.835775 189.918868 
L 342.80591 190.026307 
L 354.020334 189.928224 
L 363.377258 189.658022 
L 372.566517 189.174303 
L 385.574501 188.217713 
L 404.873842 186.818178 
L 412.482157 186.357772 
L 412.482157 186.357772 
" style="fill:none;stroke:#000000;stroke-linecap:square;stroke-opacity:0.7;stroke-width:1.2;"/>
   </g>
   <g id="line2d_13">
    <path clip-path="url(#pd19225a303)" d="M 412.157688 145.955032 
L 406.043389 144.932126 
L 395.581628 143.420536 
L 383.590557 141.932588 
L 372.485305 140.766124 
L 360.699852 139.757504 
L 351.694236 139.183308 
L 344.632772 138.952111 
L 338.890108 138.998954 
L 334.470986 139.218991 
L 329.053729 139.733904 
L 324.675332 140.362752 
L 319.628377 141.353562 
L 315.3265 142.482512 
L 311.883004 143.685139 
L 309.890254 144.635334 
L 308.80614 145.38237 
L 308.24432 146.123139 
L 308.219622 146.543808 
L 308.417864 146.8989 
L 309.080335 147.360608 
L 310.58021 147.861239 
L 313.518576 148.351628 
L 316.904298 148.650172 
L 323.222825 148.90889 
L 331.147548 148.96633 
L 339.637144 148.801169 
L 348.104475 148.413895 
L 357.531776 147.752861 
L 385.941367 145.543759 
L 393.447285 145.318513 
L 400.779515 145.302545 
L 409.301512 145.536427 
L 412.141673 145.675381 
L 412.141673 145.675381 
" style="fill:none;stroke:#000000;stroke-linecap:square;stroke-opacity:0.7;stroke-width:1.2;"/>
   </g>
   <g id="line2d_14">
    <path clip-path="url(#pd19225a303)" d="M 412.339785 107.096456 
L 407.629447 105.611559 
L 400.7527 103.700731 
L 392.447164 101.643621 
L 383.258118 99.613902 
L 373.770987 97.771184 
L 365.099338 96.315779 
L 357.161889 95.198537 
L 350.870774 94.520555 
L 345.092616 94.153212 
L 340.674501 94.104777 
L 336.95153 94.257944 
L 333.339467 94.599491 
L 329.190157 95.250565 
L 325.152563 96.177254 
L 321.791259 97.197526 
L 318.473062 98.464883 
L 316.337861 99.445524 
L 313.456829 101.03705 
L 311.568476 102.318356 
L 309.857851 103.76755 
L 308.940237 104.794624 
L 308.36084 105.763245 
L 308.195323 106.404602 
L 308.289591 106.997239 
L 308.596688 107.413891 
L 309.139551 107.761726 
L 310.135157 108.076071 
L 311.597967 108.276179 
L 313.538435 108.348833 
L 317.781048 108.213241 
L 325.184454 107.675396 
L 342.300095 106.381868 
L 355.028879 105.693434 
L 368.758283 105.176239 
L 378.010316 105.028652 
L 386.119466 105.112979 
L 394.776637 105.447136 
L 403.222826 106.014234 
L 410.827639 106.732354 
L 412.309562 106.896654 
L 412.309562 106.896654 
" style="fill:none;stroke:#000000;stroke-linecap:square;stroke-opacity:0.7;stroke-width:1.2;"/>
   </g>
   <g id="line2d_15">
    <path clip-path="url(#pd19225a303)" d="M 412.315994 67.890182 
L 401.933555 65.890359 
L 387.29414 63.294966 
L 375.159235 61.361681 
L 365.992505 60.141741 
L 358.543102 59.368715 
L 351.034775 58.825383 
L 345.349482 58.604257 
L 340.062056 58.581917 
L 334.454999 58.791321 
L 329.241522 59.237016 
L 324.367093 59.908349 
L 320.104085 60.740945 
L 316.733766 61.612829 
L 313.539239 62.698671 
L 311.847935 63.43962 
L 309.9893 64.513504 
L 308.868068 65.479664 
L 308.408195 66.113698 
L 308.140501 66.972419 
L 308.227882 67.639007 
L 308.631836 68.355117 
L 309.245478 68.95876 
L 310.866575 69.946297 
L 312.560922 70.64459 
L 314.98128 71.385104 
L 318.722742 72.215357 
L 322.251286 72.787891 
L 326.940806 73.334376 
L 331.593303 73.686391 
L 337.619306 73.903476 
L 343.769599 73.888004 
L 350.714144 73.647277 
L 359.352504 73.111468 
L 368.709698 72.311479 
L 383.177855 70.81029 
L 412.311946 67.719382 
L 412.311946 67.719382 
" style="fill:none;stroke:#000000;stroke-linecap:square;stroke-opacity:0.7;stroke-width:1.2;"/>
   </g>
   <g id="line2d_16">
    <path clip-path="url(#pd19225a303)" d="M 544.158021 226.115726 
L 538.257453 224.469496 
L 529.164912 222.166774 
L 518.347919 219.674966 
L 509.106323 217.73966 
L 498.467266 215.748491 
L 490.897273 214.510014 
L 483.582105 213.518521 
L 478.460773 213.015857 
L 473.019691 212.742001 
L 469.472108 212.748766 
L 465.310934 212.975256 
L 461.596342 213.396716 
L 457.882561 214.043361 
L 454.416478 214.871093 
L 451.261917 215.839328 
L 448.356551 216.947691 
L 445.257936 218.425757 
L 442.743914 219.951319 
L 442.15456 220.372163 
L 440.285837 221.988408 
L 439.262359 223.286708 
L 438.765181 224.63739 
L 438.834909 225.361114 
L 439.157906 225.95962 
L 439.8238 226.546341 
L 440.589011 226.949712 
L 442.811633 227.605779 
L 444.873107 227.940929 
L 448.751164 228.294449 
L 455.298042 228.56998 
L 469.79781 228.84849 
L 488.461621 229.061275 
L 497.523198 228.946847 
L 507.57215 228.564196 
L 519.683077 227.848912 
L 537.662246 226.543445 
L 544.133885 226.021291 
L 544.133885 226.021291 
" style="fill:none;stroke:#000000;stroke-linecap:square;stroke-opacity:0.7;stroke-width:1.2;"/>
   </g>
   <g id="line2d_17">
    <path clip-path="url(#pd19225a303)" d="M 543.340391 184.897266 
L 538.848969 183.734021 
L 530.442366 181.783034 
L 520.068393 179.608353 
L 511.509176 178.015864 
L 504.763592 176.950179 
L 498.414489 176.161424 
L 492.596124 175.653105 
L 485.951918 175.326244 
L 479.466557 175.251695 
L 473.490715 175.391325 
L 467.327398 175.768748 
L 462.659207 176.252703 
L 458.106788 176.945591 
L 454.338305 177.744411 
L 451.310324 178.592394 
L 448.457813 179.633379 
L 445.962749 180.843054 
L 444.356579 181.874616 
L 443.01064 183.048151 
L 442.178767 184.144785 
L 441.869269 184.834537 
L 441.737819 185.619687 
L 441.817994 186.212288 
L 442.026141 186.705925 
L 442.495512 187.306507 
L 443.106577 187.796331 
L 444.68344 188.565762 
L 446.250807 189.038447 
L 448.892894 189.550033 
L 452.144996 189.936712 
L 457.564523 190.299299 
L 463.863216 190.49624 
L 472.628307 190.528809 
L 480.810306 190.338153 
L 488.929102 189.912725 
L 496.586849 189.264333 
L 505.934683 188.198039 
L 522.964946 186.19286 
L 532.94564 185.268314 
L 542.376279 184.621365 
L 543.240517 184.572916 
L 543.240517 184.572916 
" style="fill:none;stroke:#000000;stroke-linecap:square;stroke-opacity:0.7;stroke-width:1.2;"/>
   </g>
   <g id="line2d_18">
    <path clip-path="url(#pd19225a303)" d="M 544.137155 147.026866 
L 541.03356 145.934756 
L 535.760134 144.311556 
L 528.986355 142.498068 
L 522.250919 140.916035 
L 514.220031 139.27993 
L 506.733015 138.001083 
L 499.467468 137.008303 
L 492.846064 136.340096 
L 486.610987 135.944618 
L 480.58109 135.818717 
L 475.91509 135.928057 
L 471.16875 136.249143 
L 466.5344 136.778937 
L 461.836689 137.538592 
L 457.788388 138.377467 
L 454.037527 139.31759 
L 449.679703 140.639285 
L 445.82839 142.083586 
L 443.08284 143.374566 
L 441.468126 144.33868 
L 440.713987 144.905191 
L 440.060137 145.55275 
L 439.626807 146.438066 
L 439.708763 146.938552 
L 440.002282 147.319948 
L 440.661653 147.738823 
L 441.613319 148.08238 
L 443.394499 148.44937 
L 446.48872 148.756349 
L 450.470036 148.888679 
L 456.639067 148.822062 
L 464.685572 148.459781 
L 473.062264 147.845598 
L 483.511333 146.845604 
L 499.917623 145.257382 
L 506.629796 144.834757 
L 512.590389 144.66475 
L 518.59326 144.700714 
L 524.927767 144.947371 
L 532.375698 145.480715 
L 540.130559 146.286906 
L 544.1146 146.792659 
L 544.1146 146.792659 
" style="fill:none;stroke:#000000;stroke-linecap:square;stroke-opacity:0.7;stroke-width:1.2;"/>
   </g>
   <g id="line2d_19">
    <path clip-path="url(#pd19225a303)" d="M 543.96781 107.41058 
L 522.252356 104.124471 
L 505.193678 101.707226 
L 495.085535 100.466505 
L 486.638289 99.653899 
L 479.899392 99.239971 
L 474.055554 99.124748 
L 469.717116 99.221744 
L 464.773046 99.545023 
L 460.241925 100.05326 
L 455.81873 100.75987 
L 451.403542 101.703994 
L 447.984269 102.646688 
L 445.584266 103.469886 
L 442.911202 104.674176 
L 441.609868 105.530956 
L 441.135881 105.996555 
L 440.796943 106.705818 
L 440.869014 107.121868 
L 441.190856 107.521518 
L 441.676422 107.836899 
L 442.791843 108.261231 
L 444.522967 108.644962 
L 447.873035 109.055554 
L 452.310393 109.336823 
L 460.180502 109.569249 
L 474.642568 109.734604 
L 486.136051 109.662438 
L 495.220646 109.387595 
L 506.819215 108.774775 
L 524.303241 107.834038 
L 535.960624 107.433249 
L 543.970584 107.274681 
L 543.970584 107.274681 
" style="fill:none;stroke:#000000;stroke-linecap:square;stroke-opacity:0.7;stroke-width:1.2;"/>
   </g>
   <g id="line2d_20">
    <path clip-path="url(#pd19225a303)" d="M 544.139696 68.558711 
L 527.687131 67.053731 
L 480.118639 62.518002 
L 472.535661 62.119562 
L 466.672091 62.032254 
L 460.804773 62.194136 
L 456.271234 62.514433 
L 451.93463 63.006917 
L 448.001937 63.657481 
L 445.35948 64.258345 
L 442.791686 65.084051 
L 441.479803 65.736493 
L 440.926411 66.174701 
L 440.686615 66.494892 
L 440.600526 67.02108 
L 440.852498 67.479666 
L 441.403334 67.919673 
L 442.416774 68.41176 
L 443.907397 68.903057 
L 445.645634 69.326852 
L 448.98902 69.925226 
L 453.692868 70.518215 
L 460.036098 71.071988 
L 467.779899 71.523084 
L 477.434904 71.859386 
L 487.854873 71.988152 
L 497.165833 71.868552 
L 505.427472 71.540624 
L 516.293263 70.842745 
L 531.634379 69.603249 
L 544.151105 68.458967 
L 544.151105 68.458967 
" style="fill:none;stroke:#000000;stroke-linecap:square;stroke-opacity:0.7;stroke-width:1.2;"/>
   </g>
   <g id="line2d_21">
    <path clip-path="url(#pd19225a303)" d="M 675.047375 224.63225 
L 670.708391 223.110382 
L 663.964251 220.998837 
L 656.021238 218.749559 
L 647.722424 216.626357 
L 640.448286 214.982557 
L 634.358091 213.814397 
L 628.499851 212.920464 
L 622.905659 212.306189 
L 617.364254 211.937786 
L 612.252702 211.815111 
L 606.753569 211.931975 
L 601.761499 212.288477 
L 596.935186 212.894681 
L 593.104248 213.587708 
L 588.921053 214.596114 
L 585.105528 215.792582 
L 582.011708 217.008431 
L 579.337462 218.296673 
L 577.050566 219.649938 
L 575.08403 221.122155 
L 573.97184 222.206353 
L 573.121838 223.398867 
L 572.857468 224.142005 
L 572.875214 224.713258 
L 573.073375 225.098566 
L 573.588399 225.491215 
L 574.661338 225.803886 
L 576.564755 225.928816 
L 579.205507 225.826455 
L 585.867997 225.246078 
L 596.149687 224.383228 
L 605.455302 223.842785 
L 617.333015 223.404704 
L 636.996093 222.932715 
L 647.064324 222.916786 
L 656.874977 223.159021 
L 665.811477 223.610309 
L 674.979405 224.312645 
L 674.979405 224.312645 
" style="fill:none;stroke:#000000;stroke-linecap:square;stroke-opacity:0.7;stroke-width:1.2;"/>
   </g>
   <g id="line2d_22">
    <path clip-path="url(#pd19225a303)" d="M 675.261753 185.231553 
L 669.374112 184.102333 
L 660.120749 182.563721 
L 649.709901 181.053564 
L 639.934448 179.843664 
L 631.14871 178.957311 
L 622.110236 178.256132 
L 613.914318 177.807055 
L 606.441218 177.601957 
L 600.174895 177.668282 
L 595.334114 177.933427 
L 590.500259 178.433284 
L 586.309229 179.092436 
L 582.051571 180.021732 
L 578.477769 181.062016 
L 575.698775 182.106663 
L 573.756575 183.036193 
L 572.320748 183.931461 
L 571.37117 184.803664 
L 571.069227 185.348152 
L 571.049026 185.718556 
L 571.320139 186.141658 
L 571.684625 186.366436 
L 572.515334 186.623487 
L 574.060399 186.80474 
L 576.729527 186.804544 
L 580.588528 186.534974 
L 588.045154 185.697545 
L 601.676105 184.109399 
L 608.830419 183.539435 
L 615.881704 183.213866 
L 625.041107 183.059588 
L 637.43199 183.106587 
L 648.927615 183.340194 
L 659.220666 183.771359 
L 668.199576 184.357823 
L 675.236431 184.98002 
L 675.236431 184.98002 
" style="fill:none;stroke:#000000;stroke-linecap:square;stroke-opacity:0.7;stroke-width:1.2;"/>
   </g>
   <g id="line2d_23">
    <path clip-path="url(#pd19225a303)" d="M 675.269365 145.622261 
L 671.888556 144.313623 
L 666.301406 142.386071 
L 659.410161 140.252528 
L 651.699757 138.099108 
L 643.620585 136.080589 
L 635.989785 134.407911 
L 628.772854 133.059075 
L 622.16146 132.049524 
L 616.760962 131.415872 
L 611.625786 131.012241 
L 606.909113 130.854991 
L 602.221898 130.946819 
L 599.119057 131.166451 
L 595.171661 131.653868 
L 592.024618 132.227609 
L 587.924633 133.251791 
L 584.617196 134.336566 
L 582.393082 135.215563 
L 578.802966 136.940598 
L 577.046826 137.956179 
L 574.957119 139.366869 
L 572.725207 141.252365 
L 571.320141 142.852304 
L 570.563569 144.095334 
L 570.128538 145.465862 
L 570.099035 146.144675 
L 570.303215 147.068237 
L 570.728191 147.824391 
L 571.57291 148.679252 
L 572.386531 149.23066 
L 574.233205 150.082487 
L 576.334361 150.72215 
L 579.711664 151.385594 
L 583.046844 151.787089 
L 588.000139 152.098522 
L 592.293581 152.174652 
L 598.470402 152.044172 
L 604.750738 151.675935 
L 611.559334 151.066379 
L 620.329395 150.044814 
L 633.391607 148.240888 
L 643.485781 146.92148 
L 650.867656 146.172093 
L 658.201443 145.655185 
L 665.388734 145.379127 
L 672.938837 145.344017 
L 675.265763 145.387106 
L 675.265763 145.387106 
" style="fill:none;stroke:#000000;stroke-linecap:square;stroke-opacity:0.7;stroke-width:1.2;"/>
   </g>
   <g id="line2d_24">
    <path clip-path="url(#pd19225a303)" d="M 674.962135 106.212851 
L 644.959282 102.640935 
L 626.249681 100.352952 
L 617.734873 99.541273 
L 610.657353 99.079183 
L 605.283679 98.907659 
L 599.615939 98.940943 
L 593.990594 99.231594 
L 589.289665 99.700785 
L 585.06744 100.328172 
L 581.362156 101.079289 
L 577.630428 102.104714 
L 574.813486 103.185309 
L 573.568886 103.831563 
L 572.655701 104.455628 
L 571.913273 105.243176 
L 571.709125 105.700642 
L 571.708163 106.209681 
L 571.838442 106.510652 
L 572.309774 107.001174 
L 573.275051 107.517331 
L 574.574873 107.927275 
L 576.237591 108.260762 
L 579.778854 108.655498 
L 584.757793 108.894117 
L 593.103892 109.0172 
L 623.873568 109.154913 
L 630.890159 108.904341 
L 640.298264 108.317428 
L 668.777186 106.351934 
L 674.970086 106.026192 
L 674.970086 106.026192 
" style="fill:none;stroke:#000000;stroke-linecap:square;stroke-opacity:0.7;stroke-width:1.2;"/>
   </g>
   <g id="line2d_25">
    <path clip-path="url(#pd19225a303)" d="M 675.490909 67.626702 
L 671.067225 66.421315 
L 662.669207 64.397414 
L 653.246876 62.378559 
L 644.396463 60.717928 
L 637.658598 59.646571 
L 630.645597 58.749738 
L 624.758 58.181086 
L 618.07916 57.735049 
L 611.404919 57.499029 
L 605.007676 57.491694 
L 599.085536 57.722607 
L 594.442978 58.108131 
L 589.834139 58.718336 
L 585.783185 59.495776 
L 582.858125 60.24089 
L 580.060141 61.146765 
L 577.406263 62.25002 
L 575.993763 62.977152 
L 574.174052 64.144327 
L 572.805571 65.349698 
L 572.09461 66.284795 
L 571.775245 67.009408 
L 571.699353 67.772533 
L 571.897279 68.414535 
L 572.235414 68.877635 
L 573.157772 69.560172 
L 575.046776 70.28265 
L 577.116987 70.724871 
L 579.885975 71.072728 
L 583.974292 71.332583 
L 589.536283 71.436372 
L 596.590565 71.34768 
L 606.657111 70.989651 
L 620.07717 70.281443 
L 637.108776 69.140028 
L 651.489477 68.240543 
L 662.295048 67.782796 
L 674.262762 67.514831 
L 675.476676 67.499044 
L 675.476676 67.499044 
" style="fill:none;stroke:#000000;stroke-linecap:square;stroke-opacity:0.7;stroke-width:1.2;"/>
   </g>
  </g>
 </g>
 <defs>
  <clipPath id="pd19225a303">
   <rect height="262.08" width="694.08" x="12.96" y="12.96"/>
  </clipPath>
 </defs>
</svg>
