<?xml version="1.0" encoding="utf-8" standalone="no"?>
<!DOCTYPE svg PUBLIC "-//W3C//DTD SVG 1.1//EN"
  "http://www.w3.org/Graphics/SVG/1.1/DTD/svg11.dtd">
<!-- Created with matplotlib (https://matplotlib.org/) -->
<svg height="288pt" version="1.1" viewBox="0 0 720 288" width="720pt" xmlns="http://www.w3.org/2000/svg" xmlns:xlink="http://www.w3.org/1999/xlink">
 <metadata>
  <rdf:RDF xmlns:cc="http://creativecommons.org/ns#" xmlns:dc="http://purl.org/dc/elements/1.1/" xmlns:rdf="http://www.w3.org/1999/02/22-rdf-syntax-ns#">
   <cc:Work>
    <dc:type rdf:resource="http://purl.org/dc/dcmitype/StillImage"/>
    <dc:date>2021-04-26T15:35:33.030061</dc:date>
    <dc:format>image/svg+xml</dc:format>
    <dc:creator>
     <cc:Agent>
      <dc:title>Matplotlib v3.3.4, https://matplotlib.org/</dc:title>
     </cc:Agent>
    </dc:creator>
   </cc:Work>
  </rdf:RDF>
 </metadata>
 <defs>
  <style type="text/css">*{stroke-linecap:butt;stroke-linejoin:round;}</style>
 </defs>
 <g id="figure_1">
  <g id="patch_1">
   <path d="M 0 288 
L 720 288 
L 720 0 
L 0 0 
z
" style="fill:#ffffff;"/>
  </g>
  <g id="axes_1">
   <g id="line2d_1">
    <path clip-path="url(#pd7ec21950f)" d="M 147.241492 227.425563 
L 133.903044 226.131203 
L 109.924964 223.810351 
L 100.262546 223.09361 
L 90.342317 222.584695 
L 78.216698 222.192203 
L 69.002597 222.107577 
L 62.855681 222.267464 
L 58.614914 222.563902 
L 55.626191 222.920097 
L 53.286214 223.325756 
L 50.888248 223.911973 
L 48.549031 224.747275 
L 47.201118 225.432789 
L 46.503454 225.893383 
L 45.434028 226.920916 
L 45.093489 227.518058 
L 44.968463 228.327898 
L 45.175682 228.952297 
L 45.545433 229.417667 
L 45.894691 229.708808 
L 46.924196 230.274543 
L 48.66343 230.83815 
L 50.776751 231.249647 
L 52.774349 231.50148 
L 57.773936 231.847476 
L 65.343149 232.052878 
L 97.687708 232.495763 
L 104.2847 232.318408 
L 111.622567 231.900607 
L 120.775564 231.132327 
L 133.074405 229.857177 
L 147.238021 228.258384 
L 147.238021 228.258384 
" style="fill:none;stroke:#000000;stroke-linecap:square;stroke-opacity:0.7;stroke-width:1.2;"/>
   </g>
   <g id="line2d_2">
    <path clip-path="url(#pd7ec21950f)" d="M 148.312193 189.498685 
L 133.647683 186.487162 
L 118.737073 183.505792 
L 109.553108 181.897015 
L 102.566245 180.896077 
L 95.793219 180.153707 
L 88.785527 179.627245 
L 81.913312 179.356512 
L 76.366406 179.340123 
L 70.700773 179.552013 
L 65.819946 179.968123 
L 62.16766 180.461527 
L 58.159712 181.241356 
L 54.689763 182.194264 
L 52.615163 182.936692 
L 50.519336 183.872578 
L 49.018661 184.705047 
L 47.678832 185.623376 
L 46.196947 187.005042 
L 45.436036 188.157634 
L 45.193129 188.966054 
L 45.236384 189.716411 
L 45.521812 190.326532 
L 46.152414 190.962716 
L 46.572629 191.240593 
L 48.102158 191.903736 
L 50.190806 192.438953 
L 53.150431 192.904569 
L 58.026672 193.353666 
L 64.607878 193.686583 
L 73.420276 193.887595 
L 82.54085 193.86373 
L 92.016406 193.596424 
L 103.677523 193.007352 
L 132.607272 191.399352 
L 144.299307 191.034925 
L 148.349305 190.963442 
L 148.349305 190.963442 
" style="fill:none;stroke:#000000;stroke-linecap:square;stroke-opacity:0.7;stroke-width:1.2;"/>
   </g>
   <g id="line2d_3">
    <path clip-path="url(#pd7ec21950f)" d="M 148.412445 149.927531 
L 139.529908 147.614879 
L 131.595704 145.746871 
L 122.479041 143.843234 
L 115.123057 142.527992 
L 108.306282 141.535433 
L 102.215568 140.872187 
L 95.830187 140.421742 
L 90.674837 140.239889 
L 84.306344 140.237498 
L 78.581835 140.452549 
L 73.296896 140.847855 
L 67.637333 141.502623 
L 62.243382 142.383404 
L 57.668278 143.374295 
L 54.029732 144.377481 
L 50.421242 145.654735 
L 47.443588 147.085023 
L 45.974565 148.063372 
L 45.121422 148.858353 
L 44.613519 149.650083 
L 44.509091 150.094445 
L 44.588703 150.587289 
L 45.018846 151.143695 
L 45.358392 151.380644 
L 46.618416 151.890895 
L 48.16235 152.221661 
L 51.116049 152.525699 
L 55.664948 152.649861 
L 62.38002 152.532887 
L 74.108994 152.041359 
L 97.910648 151.0015 
L 109.445524 150.750308 
L 119.214564 150.760294 
L 132.949252 151.027544 
L 148.440213 151.424287 
L 148.440213 151.424287 
" style="fill:none;stroke:#000000;stroke-linecap:square;stroke-opacity:0.7;stroke-width:1.2;"/>
   </g>
   <g id="line2d_4">
    <path clip-path="url(#pd7ec21950f)" d="M 148.412526 110.555712 
L 141.678208 108.000251 
L 134.672411 105.539397 
L 127.199179 103.141719 
L 120.938923 101.34443 
L 115.295566 99.933339 
L 111.252472 99.072259 
L 106.721198 98.279441 
L 101.557262 97.615543 
L 97.129547 97.251247 
L 92.628809 97.066003 
L 86.856824 97.082346 
L 82.210094 97.291328 
L 76.516947 97.784207 
L 72.031699 98.368223 
L 67.686732 99.120986 
L 63.112029 100.152984 
L 59.186744 101.289477 
L 56.152197 102.382337 
L 53.743191 103.433351 
L 51.214752 104.78931 
L 49.793109 105.721213 
L 48.33987 106.880727 
L 47.160281 108.113884 
L 46.472211 109.164033 
L 46.205674 109.872289 
L 46.18436 110.786189 
L 46.467061 111.386588 
L 46.815118 111.746614 
L 47.50092 112.170799 
L 48.83936 112.623935 
L 50.079938 112.861484 
L 52.832659 113.122889 
L 56.774004 113.216574 
L 63.341177 113.098151 
L 81.19526 112.410428 
L 99.619809 111.812326 
L 111.52246 111.63254 
L 123.19826 111.687858 
L 141.300177 112.034668 
L 148.450557 112.1832 
L 148.450557 112.1832 
" style="fill:none;stroke:#000000;stroke-linecap:square;stroke-opacity:0.7;stroke-width:1.2;"/>
   </g>
   <g id="line2d_5">
    <path clip-path="url(#pd7ec21950f)" d="M 147.938702 69.186123 
L 125.243705 64.92389 
L 114.72132 63.227683 
L 106.813697 62.160343 
L 100.002323 61.443105 
L 93.614004 60.972458 
L 86.732398 60.691271 
L 79.931202 60.642463 
L 73.844291 60.807864 
L 68.362244 61.164852 
L 64.052891 61.629305 
L 59.994067 62.271244 
L 56.773584 62.9771 
L 53.712744 63.87866 
L 51.157947 64.884685 
L 49.277092 65.852973 
L 47.444352 67.116842 
L 46.504035 67.999751 
L 45.622582 69.199478 
L 45.25011 70.109011 
L 45.143653 71.016981 
L 45.266772 71.742506 
L 45.659483 72.563792 
L 46.447289 73.457962 
L 46.89038 73.819062 
L 48.939456 74.988916 
L 51.086853 75.810069 
L 53.138465 76.408504 
L 56.550465 77.17371 
L 60.995825 77.906123 
L 66.083267 78.498912 
L 72.223997 78.937395 
L 78.512301 79.102808 
L 84.420801 79.022847 
L 91.383068 78.676376 
L 98.761371 78.04671 
L 106.112123 77.174306 
L 114.04625 76.007905 
L 127.465463 73.75277 
L 144.695007 70.871693 
L 148.016172 70.386849 
L 148.016172 70.386849 
" style="fill:none;stroke:#000000;stroke-linecap:square;stroke-opacity:0.7;stroke-width:1.2;"/>
   </g>
   <g id="line2d_6">
    <path clip-path="url(#pd7ec21950f)" d="M 280.039145 227.904476 
L 268.782539 226.249789 
L 255.422472 224.373489 
L 245.794973 223.235281 
L 237.499 222.480752 
L 230.149443 222.025544 
L 222.422541 221.758365 
L 214.258452 221.705143 
L 206.841801 221.9009 
L 201.114994 222.256224 
L 195.716917 222.791516 
L 190.398803 223.552634 
L 185.70417 224.479229 
L 182.11632 225.425717 
L 179.551002 226.315772 
L 177.362005 227.36995 
L 176.484151 227.987246 
L 175.76624 228.862517 
L 175.658035 229.274469 
L 175.777668 229.84524 
L 176.095871 230.275113 
L 176.765204 230.788977 
L 177.703416 231.266464 
L 179.496952 231.904237 
L 181.732118 232.483745 
L 185.044386 233.139592 
L 190.455828 233.950066 
L 197.165314 234.693629 
L 202.57163 235.118915 
L 209.242394 235.404473 
L 215.088682 235.411314 
L 221.380118 235.182322 
L 229.455754 234.627754 
L 241.039464 233.561742 
L 261.795594 231.384968 
L 280.093236 229.377245 
L 280.093236 229.377245 
" style="fill:none;stroke:#000000;stroke-linecap:square;stroke-opacity:0.7;stroke-width:1.2;"/>
   </g>
   <g id="line2d_7">
    <path clip-path="url(#pd7ec21950f)" d="M 279.491291 187.223039 
L 265.939682 183.933329 
L 255.02293 181.542885 
L 244.847475 179.539145 
L 234.136742 177.643322 
L 225.425557 176.303582 
L 218.814813 175.502076 
L 213.50584 175.068107 
L 209.266405 174.898981 
L 204.848161 174.928782 
L 200.673228 175.188532 
L 197.828332 175.517841 
L 194.309075 176.127285 
L 190.594287 177.061067 
L 188.038961 177.914178 
L 184.654395 179.377991 
L 181.983495 180.887555 
L 179.881448 182.400911 
L 178.100527 184.07697 
L 177.173287 185.259198 
L 176.828642 185.828686 
L 176.284557 187.31432 
L 176.245447 188.1274 
L 176.29916 188.48505 
L 176.704594 189.440324 
L 177.20167 190.039145 
L 178.684473 191.069463 
L 180.71477 191.885006 
L 182.350337 192.335833 
L 186.238842 193.058531 
L 190.169037 193.525199 
L 195.234193 193.918914 
L 202.314869 194.231902 
L 210.182978 194.344137 
L 217.888425 194.227498 
L 225.529132 193.86789 
L 232.534504 193.3224 
L 243.702058 192.166188 
L 275.430402 188.701464 
L 279.507684 188.338019 
L 279.507684 188.338019 
" style="fill:none;stroke:#000000;stroke-linecap:square;stroke-opacity:0.7;stroke-width:1.2;"/>
   </g>
   <g id="line2d_8">
    <path clip-path="url(#pd7ec21950f)" d="M 279.616777 147.938669 
L 257.09437 143.170889 
L 247.101542 141.353326 
L 238.681642 140.042664 
L 230.939617 139.061031 
L 223.809888 138.399986 
L 217.981304 138.097594 
L 213.218148 138.061648 
L 208.811873 138.23205 
L 204.889493 138.567682 
L 200.329955 139.194116 
L 195.697348 140.114061 
L 191.652281 141.179946 
L 188.123685 142.343499 
L 185.030816 143.581757 
L 182.026863 145.0409 
L 179.316696 146.695816 
L 178.020291 147.716507 
L 177.089257 148.745041 
L 176.783382 149.478769 
L 176.897512 149.998419 
L 177.235162 150.320228 
L 177.738555 150.553109 
L 179.061595 150.818759 
L 181.092218 150.914781 
L 184.228237 150.807552 
L 188.843135 150.438524 
L 208.948172 148.575853 
L 216.525039 148.216812 
L 225.666924 148.049137 
L 242.988052 148.033203 
L 259.363962 148.200932 
L 270.201861 148.505802 
L 278.787094 148.966046 
L 279.625819 149.029517 
L 279.625819 149.029517 
" style="fill:none;stroke:#000000;stroke-linecap:square;stroke-opacity:0.7;stroke-width:1.2;"/>
   </g>
   <g id="line2d_9">
    <path clip-path="url(#pd7ec21950f)" d="M 279.907962 108.85081 
L 272.573075 106.536899 
L 265.207081 104.457216 
L 257.853186 102.616927 
L 250.519425 101.010848 
L 243.835902 99.75749 
L 238.061499 98.854671 
L 231.812978 98.091083 
L 226.235278 97.620122 
L 220.753529 97.374634 
L 216.180106 97.353547 
L 211.259756 97.536079 
L 207.008776 97.877604 
L 202.596198 98.424251 
L 197.754598 99.268842 
L 193.64896 100.21323 
L 190.161713 101.212292 
L 186.516698 102.5014 
L 183.719945 103.717791 
L 181.062439 105.143126 
L 179.614702 106.090586 
L 177.681024 107.713162 
L 176.975409 108.520216 
L 176.228873 109.805092 
L 176.009907 110.789662 
L 176.102502 111.602019 
L 176.348736 112.18461 
L 176.597229 112.557207 
L 177.121945 113.11493 
L 178.35942 113.971873 
L 180.438525 114.884964 
L 183.107404 115.66768 
L 186.781434 116.413816 
L 191.00257 117.019064 
L 196.597541 117.573009 
L 202.847623 117.939288 
L 208.836888 118.04998 
L 214.307192 117.94977 
L 220.613848 117.629295 
L 228.873616 116.958944 
L 238.256325 115.955985 
L 250.114097 114.442401 
L 267.56528 111.952418 
L 279.932844 110.18011 
L 279.932844 110.18011 
" style="fill:none;stroke:#000000;stroke-linecap:square;stroke-opacity:0.7;stroke-width:1.2;"/>
   </g>
   <g id="line2d_10">
    <path clip-path="url(#pd7ec21950f)" d="M 279.50205 69.338275 
L 265.71412 67.188267 
L 250.581765 64.93359 
L 241.117015 63.718096 
L 232.188065 62.787508 
L 223.918685 62.151955 
L 217.130084 61.833424 
L 210.559339 61.762617 
L 205.845879 61.895073 
L 200.880162 62.233401 
L 196.033611 62.794778 
L 192.561451 63.363892 
L 188.820939 64.16784 
L 185.747938 65.014208 
L 182.635551 66.10227 
L 180.015995 67.292143 
L 178.054654 68.516078 
L 177.216767 69.306856 
L 176.865727 69.935024 
L 176.860056 70.405722 
L 177.079817 70.772309 
L 177.696472 71.18293 
L 179.417284 71.657135 
L 182.206893 71.940249 
L 186.256584 72.027365 
L 192.838793 71.894339 
L 214.429462 71.297881 
L 279.519902 70.374359 
L 279.519902 70.374359 
" style="fill:none;stroke:#000000;stroke-linecap:square;stroke-opacity:0.7;stroke-width:1.2;"/>
   </g>
   <g id="line2d_11">
    <path clip-path="url(#pd7ec21950f)" d="M 411.567889 226.80891 
L 401.635081 223.808257 
L 392.560379 221.306573 
L 383.394693 219.014932 
L 374.375615 216.983703 
L 366.064808 215.326851 
L 359.313097 214.188123 
L 353.718545 213.450055 
L 349.039949 213.027272 
L 343.969546 212.823684 
L 340.720896 212.858119 
L 336.876841 213.088864 
L 333.545926 213.473529 
L 330.071464 214.078294 
L 326.422417 214.965944 
L 322.67297 216.193143 
L 319.481478 217.545199 
L 317.83345 218.380249 
L 315.703579 219.633593 
L 313.613481 221.114199 
L 311.725255 222.773021 
L 310.41092 224.244148 
L 309.63077 225.370896 
L 309.00064 226.656132 
L 308.741785 227.606041 
L 308.720325 228.692023 
L 308.964984 229.507448 
L 309.415609 230.186079 
L 310.203608 230.860889 
L 311.334115 231.441986 
L 313.26279 232.015754 
L 315.477706 232.381918 
L 318.847301 232.666025 
L 323.876029 232.828627 
L 354.592855 233.192687 
L 361.994028 233.029815 
L 368.221767 232.68443 
L 376.248482 231.984938 
L 387.605504 230.715139 
L 408.095124 228.376024 
L 411.585044 228.04258 
L 411.585044 228.04258 
" style="fill:none;stroke:#000000;stroke-linecap:square;stroke-opacity:0.7;stroke-width:1.2;"/>
   </g>
   <g id="line2d_12">
    <path clip-path="url(#pd7ec21950f)" d="M 411.300342 187.912631 
L 401.123082 186.813668 
L 380.684063 184.624385 
L 369.587615 183.674503 
L 359.414509 183.043581 
L 350.454291 182.694361 
L 343.612015 182.5993 
L 336.578981 182.734006 
L 330.759939 183.084036 
L 325.440788 183.638661 
L 321.131416 184.28826 
L 317.17089 185.084311 
L 313.989263 185.906406 
L 311.588973 186.680375 
L 309.537337 187.514214 
L 308.018598 188.359972 
L 307.388179 188.926097 
L 307.212979 189.440818 
L 307.413795 189.763278 
L 307.857557 190.015951 
L 308.809823 190.27661 
L 311.012303 190.52763 
L 315.436192 190.637286 
L 322.976228 190.500353 
L 350.486276 189.796895 
L 369.218702 189.674734 
L 390.040059 189.524363 
L 407.22138 189.128429 
L 411.305976 189.028012 
L 411.305976 189.028012 
" style="fill:none;stroke:#000000;stroke-linecap:square;stroke-opacity:0.7;stroke-width:1.2;"/>
   </g>
   <g id="line2d_13">
    <path clip-path="url(#pd7ec21950f)" d="M 411.655817 148.21031 
L 404.143881 147.383204 
L 382.917209 144.971389 
L 372.515664 144.031192 
L 355.988533 142.800777 
L 345.753259 142.204446 
L 339.823069 142.050293 
L 334.603636 142.115559 
L 329.609941 142.401431 
L 325.352156 142.845601 
L 320.383453 143.63671 
L 318.338345 144.063648 
L 313.534487 145.37934 
L 311.067941 146.309148 
L 308.834421 147.451972 
L 307.452628 148.560062 
L 306.962374 149.416486 
L 306.972617 149.981408 
L 307.288421 150.516757 
L 307.85449 150.975114 
L 309.180365 151.593394 
L 310.464 151.988754 
L 313.388359 152.611129 
L 318.139461 153.289143 
L 326.306866 154.11567 
L 337.809486 155.012995 
L 346.48064 155.488856 
L 353.317019 155.663067 
L 360.213647 155.608208 
L 365.788074 155.376992 
L 372.229478 154.910243 
L 380.686798 154.040118 
L 390.89199 152.726424 
L 402.388602 150.995884 
L 411.64922 149.41786 
L 411.64922 149.41786 
" style="fill:none;stroke:#000000;stroke-linecap:square;stroke-opacity:0.7;stroke-width:1.2;"/>
   </g>
   <g id="line2d_14">
    <path clip-path="url(#pd7ec21950f)" d="M 411.227104 108.436196 
L 403.361623 107.02675 
L 376.878881 102.132483 
L 370.452474 101.202213 
L 364.871954 100.590492 
L 359.660922 100.209203 
L 353.610405 100.00231 
L 347.821945 100.043473 
L 342.300647 100.310115 
L 336.658658 100.829434 
L 330.984526 101.629238 
L 326.350198 102.518029 
L 321.808295 103.635266 
L 318.395271 104.673157 
L 315.16207 105.858082 
L 312.169141 107.190731 
L 309.929428 108.409623 
L 308.314368 109.506203 
L 307.242011 110.54604 
L 306.999662 111.135214 
L 307.146732 111.47423 
L 307.580139 111.704379 
L 308.46265 111.848804 
L 310.604159 111.822789 
L 315.01267 111.384164 
L 335.536196 108.948282 
L 342.797492 108.375221 
L 351.133002 107.973349 
L 359.428088 107.80518 
L 369.000648 107.817893 
L 383.191686 108.075355 
L 396.918748 108.53645 
L 406.238009 109.042117 
L 411.248672 109.442511 
L 411.248672 109.442511 
" style="fill:none;stroke:#000000;stroke-linecap:square;stroke-opacity:0.7;stroke-width:1.2;"/>
   </g>
   <g id="line2d_15">
    <path clip-path="url(#pd7ec21950f)" d="M 411.446258 68.975256 
L 403.019561 67.514529 
L 379.836647 63.431885 
L 370.901296 62.089414 
L 363.056234 61.160426 
L 356.220358 60.595359 
L 350.876207 60.325959 
L 344.402934 60.218477 
L 338.632028 60.35293 
L 333.706458 60.674568 
L 329.57879 61.124974 
L 325.828404 61.712973 
L 322.606206 62.390091 
L 319.207764 63.329644 
L 316.520818 64.294005 
L 314.655362 65.12339 
L 312.91712 66.064653 
L 311.164775 67.273755 
L 309.901547 68.465374 
L 309.34684 69.20044 
L 308.952034 70.004721 
L 308.818463 70.865682 
L 309.004158 71.583132 
L 309.532862 72.254711 
L 310.093471 72.654509 
L 311.130483 73.122394 
L 312.623526 73.527558 
L 314.942439 73.87893 
L 318.811801 74.144934 
L 325.123425 74.28588 
L 340.116168 74.559376 
L 357.021619 74.93867 
L 364.248837 74.857536 
L 371.409718 74.549434 
L 379.154793 73.984274 
L 389.030215 73.00807 
L 401.36522 71.531625 
L 411.50602 70.208391 
L 411.50602 70.208391 
" style="fill:none;stroke:#000000;stroke-linecap:square;stroke-opacity:0.7;stroke-width:1.2;"/>
   </g>
   <g id="line2d_16">
    <path clip-path="url(#pd7ec21950f)" d="M 543.75404 227.480015 
L 526.951863 223.766823 
L 518.454424 222.11516 
L 510.807841 220.838309 
L 503.904899 219.918698 
L 497.218647 219.284215 
L 490.541107 218.911466 
L 484.254027 218.792127 
L 477.64222 218.919282 
L 471.994131 219.260573 
L 467.454884 219.71231 
L 463.080755 220.314393 
L 457.989712 221.246538 
L 454.176252 222.133017 
L 449.498564 223.492662 
L 446.294573 224.650175 
L 443.334369 225.957864 
L 441.958838 226.684563 
L 439.978933 228.000308 
L 439.148716 228.869583 
L 438.99032 229.230486 
L 439.065389 229.655875 
L 439.339029 229.893263 
L 440.258541 230.176172 
L 441.727691 230.300155 
L 444.803439 230.230661 
L 448.47798 229.953083 
L 458.671459 228.8726 
L 471.959816 227.459183 
L 479.293442 226.908591 
L 487.32227 226.534413 
L 498.179199 226.268791 
L 507.57681 226.229418 
L 514.73688 226.353773 
L 523.688882 226.724509 
L 532.108901 227.307768 
L 539.121426 227.996215 
L 543.740759 228.583091 
L 543.740759 228.583091 
" style="fill:none;stroke:#000000;stroke-linecap:square;stroke-opacity:0.7;stroke-width:1.2;"/>
   </g>
   <g id="line2d_17">
    <path clip-path="url(#pd7ec21950f)" d="M 543.930869 188.758158 
L 538.314362 188.206648 
L 528.403361 186.989179 
L 488.719517 181.854521 
L 481.437199 181.207654 
L 475.505886 180.903633 
L 470.374748 180.867877 
L 465.210834 181.083233 
L 460.485041 181.521721 
L 455.648155 182.234704 
L 452.203723 182.932419 
L 448.142282 184.017036 
L 446.286792 184.640239 
L 443.766219 185.683966 
L 441.672074 186.863245 
L 440.665514 187.680163 
L 440.094464 188.410024 
L 439.885352 189.083264 
L 439.996909 189.647147 
L 440.191625 189.953311 
L 441.028062 190.615659 
L 441.881897 191.012979 
L 443.663688 191.561539 
L 445.986858 192.038637 
L 450.018503 192.602095 
L 455.79526 193.155598 
L 464.572285 193.733159 
L 474.061301 194.103912 
L 482.588495 194.192353 
L 491.659435 194.036339 
L 500.461399 193.676429 
L 512.007266 192.967528 
L 526.106133 191.863135 
L 541.570111 190.424215 
L 543.953469 190.182597 
L 543.953469 190.182597 
" style="fill:none;stroke:#000000;stroke-linecap:square;stroke-opacity:0.7;stroke-width:1.2;"/>
   </g>
   <g id="line2d_18">
    <path clip-path="url(#pd7ec21950f)" d="M 543.447185 148.744521 
L 528.51158 143.506339 
L 520.187116 140.843787 
L 513.038742 138.800112 
L 508.18034 137.585699 
L 502.476893 136.389961 
L 496.701265 135.469385 
L 491.840816 134.931909 
L 486.388119 134.589994 
L 481.792945 134.524223 
L 476.846977 134.697537 
L 472.314512 135.097056 
L 467.906599 135.724421 
L 463.10946 136.69789 
L 459.908968 137.532117 
L 455.649391 138.902375 
L 452.224073 140.256202 
L 448.712842 141.936648 
L 445.664708 143.720948 
L 443.855955 144.989442 
L 441.623968 146.932569 
L 440.367952 148.436789 
L 439.703076 149.676152 
L 439.5021 150.450978 
L 439.578359 151.483019 
L 439.804284 151.985106 
L 440.394183 152.671949 
L 441.355464 153.309161 
L 442.382191 153.752864 
L 445.038056 154.445937 
L 448.83077 154.948141 
L 453.262685 155.210897 
L 460.079328 155.280471 
L 468.388544 155.081756 
L 479.888876 154.552286 
L 493.094461 153.717793 
L 509.124731 152.451471 
L 538.175866 150.119598 
L 543.443594 149.75497 
L 543.443594 149.75497 
" style="fill:none;stroke:#000000;stroke-linecap:square;stroke-opacity:0.7;stroke-width:1.2;"/>
   </g>
   <g id="line2d_19">
    <path clip-path="url(#pd7ec21950f)" d="M 543.46825 108.616679 
L 533.136554 106.623655 
L 524.030058 105.11712 
L 515.431368 103.929567 
L 506.628653 102.953504 
L 497.307731 102.187175 
L 488.672988 101.719793 
L 481.221393 101.518986 
L 475.281465 101.527474 
L 468.547851 101.775833 
L 463.005483 102.225573 
L 458.481992 102.801891 
L 454.638107 103.478775 
L 451.499969 104.194122 
L 448.305057 105.121354 
L 445.862451 106.017073 
L 443.802868 106.958984 
L 442.048464 107.984049 
L 440.626834 109.146155 
L 439.980014 110.074191 
L 439.890525 110.68093 
L 440.051683 111.061114 
L 440.474548 111.419953 
L 441.254014 111.722001 
L 442.502185 111.932451 
L 444.447552 112.016896 
L 447.857255 111.89088 
L 454.708916 111.310232 
L 464.356069 110.478041 
L 470.98988 110.112291 
L 478.148834 109.936779 
L 494.229402 109.889704 
L 511.431316 109.698981 
L 528.746814 109.568365 
L 540.078576 109.714082 
L 543.48648 109.816847 
L 543.48648 109.816847 
" style="fill:none;stroke:#000000;stroke-linecap:square;stroke-opacity:0.7;stroke-width:1.2;"/>
   </g>
   <g id="line2d_20">
    <path clip-path="url(#pd7ec21950f)" d="M 543.591825 70.001796 
L 536.197207 66.746038 
L 529.762254 64.136325 
L 523.448512 61.791189 
L 516.518777 59.470035 
L 511.235472 57.886502 
L 504.500506 56.11616 
L 498.76997 54.843838 
L 494.193094 53.99654 
L 488.302516 53.159634 
L 483.978317 52.759546 
L 480.17615 52.583662 
L 475.821482 52.611627 
L 471.425095 52.915869 
L 467.973652 53.36688 
L 464.186325 54.094767 
L 460.741954 54.986946 
L 457.484513 56.053434 
L 454.629753 57.187026 
L 451.968132 58.433886 
L 448.747663 60.231189 
L 446.361354 61.814757 
L 443.894266 63.759471 
L 441.726301 65.879759 
L 440.635753 67.22396 
L 439.539258 69.076776 
L 439.140298 70.230762 
L 439.01633 71.419927 
L 439.137163 72.222938 
L 439.226261 72.50497 
L 439.90432 73.663402 
L 440.547535 74.30511 
L 441.984475 75.255533 
L 443.943223 76.095835 
L 446.234677 76.765671 
L 448.826768 77.295615 
L 452.708209 77.810246 
L 456.632861 78.097295 
L 461.662721 78.205063 
L 466.850951 78.05412 
L 471.696318 77.698367 
L 478.285082 76.950646 
L 502.466285 73.825874 
L 510.981651 73.088599 
L 523.698893 72.239128 
L 538.166301 71.484681 
L 543.578406 71.302089 
L 543.578406 71.302089 
" style="fill:none;stroke:#000000;stroke-linecap:square;stroke-opacity:0.7;stroke-width:1.2;"/>
   </g>
   <g id="line2d_21">
    <path clip-path="url(#pd7ec21950f)" d="M 675.435272 227.719122 
L 661.321829 225.127486 
L 645.722825 222.373376 
L 635.913366 220.862555 
L 627.743571 219.840383 
L 620.93348 219.197257 
L 614.443978 218.783964 
L 608.212667 218.599847 
L 603.299772 218.631788 
L 598.704393 218.833702 
L 594.208067 219.228097 
L 589.685821 219.872664 
L 586.510831 220.516244 
L 583.265031 221.388936 
L 580.470973 222.372925 
L 578.277789 223.355881 
L 576.835043 224.146329 
L 575.322937 225.161884 
L 573.820787 226.534513 
L 573.094441 227.589467 
L 572.831702 228.427381 
L 572.876718 229.074777 
L 573.116129 229.580947 
L 573.671972 230.135725 
L 574.581082 230.63814 
L 576.091099 231.121026 
L 577.932062 231.468356 
L 581.263596 231.807078 
L 585.519599 231.99511 
L 593.074665 232.062709 
L 610.19369 231.904787 
L 621.969046 231.619892 
L 630.574757 231.218524 
L 643.603206 230.344903 
L 657.884214 229.421959 
L 667.009857 229.059532 
L 674.471614 228.981852 
L 675.490909 228.989939 
L 675.490909 228.989939 
" style="fill:none;stroke:#000000;stroke-linecap:square;stroke-opacity:0.7;stroke-width:1.2;"/>
   </g>
   <g id="line2d_22">
    <path clip-path="url(#pd7ec21950f)" d="M 674.766741 187.350647 
L 648.907286 182.724834 
L 637.635141 180.928494 
L 629.564642 179.835918 
L 623.467929 179.187499 
L 616.488546 178.677657 
L 609.563067 178.439735 
L 603.668665 178.478752 
L 598.854868 178.71272 
L 594.227807 179.151643 
L 589.647945 179.847997 
L 585.814204 180.689518 
L 582.902387 181.532482 
L 579.783092 182.691685 
L 578.042899 183.48848 
L 575.80957 184.730305 
L 573.944625 186.06003 
L 573.238149 186.687463 
L 572.093936 188.091119 
L 571.811408 188.776522 
L 571.814037 189.47444 
L 572.114678 189.967387 
L 572.419195 190.205657 
L 572.840959 190.415736 
L 574.294855 190.759065 
L 576.789814 190.889959 
L 580.966787 190.735388 
L 598.288118 189.741328 
L 606.395745 189.617014 
L 618.303021 189.729921 
L 628.886309 189.743346 
L 637.715868 189.533528 
L 674.786958 188.33784 
L 674.786958 188.33784 
" style="fill:none;stroke:#000000;stroke-linecap:square;stroke-opacity:0.7;stroke-width:1.2;"/>
   </g>
   <g id="line2d_23">
    <path clip-path="url(#pd7ec21950f)" d="M 674.823567 147.974608 
L 661.997855 146.457103 
L 645.23479 144.548349 
L 636.622172 143.763933 
L 628.694866 143.258661 
L 620.035888 142.955195 
L 608.971347 142.816491 
L 600.565768 142.877369 
L 593.927103 143.096912 
L 587.842677 143.514719 
L 582.458182 144.150387 
L 578.134456 144.947521 
L 575.652035 145.594681 
L 573.053872 146.546857 
L 571.698555 147.274999 
L 570.506897 148.348945 
L 570.195415 149.135896 
L 570.275529 149.713453 
L 570.492214 150.106024 
L 570.979188 150.603069 
L 571.915697 151.188056 
L 573.653022 151.862989 
L 574.764464 152.167851 
L 577.668143 152.728592 
L 581.017297 153.135044 
L 586.519521 153.515939 
L 595.423276 153.795908 
L 620.906941 154.2086 
L 627.416154 154.122047 
L 634.586379 153.792297 
L 640.842824 153.301596 
L 649.176406 152.414875 
L 659.216383 151.104169 
L 674.75663 148.817747 
L 674.75663 148.817747 
" style="fill:none;stroke:#000000;stroke-linecap:square;stroke-opacity:0.7;stroke-width:1.2;"/>
   </g>
   <g id="line2d_24">
    <path clip-path="url(#pd7ec21950f)" d="M 674.647562 108.039181 
L 641.371267 105.280304 
L 633.42262 104.961562 
L 626.426777 104.910533 
L 618.854243 105.082567 
L 603.318803 105.744466 
L 588.948515 106.442904 
L 582.480231 106.977506 
L 578.333857 107.526743 
L 575.817768 108.010955 
L 573.333143 108.712578 
L 572.305369 109.142563 
L 571.321377 109.802416 
L 571.006998 110.372193 
L 571.066091 110.731596 
L 571.305112 111.059975 
L 572.225294 111.647711 
L 573.571482 112.139598 
L 576.336507 112.773166 
L 580.44327 113.355295 
L 585.708374 113.809154 
L 591.996085 114.097371 
L 599.323417 114.185219 
L 608.140406 114.021217 
L 618.504433 113.56658 
L 631.308986 112.755617 
L 643.497684 111.770896 
L 659.97606 110.198324 
L 674.630465 108.782172 
L 674.630465 108.782172 
" style="fill:none;stroke:#000000;stroke-linecap:square;stroke-opacity:0.7;stroke-width:1.2;"/>
   </g>
   <g id="line2d_25">
    <path clip-path="url(#pd7ec21950f)" d="M 675.140257 69.308504 
L 666.256299 67.969887 
L 643.99246 64.520915 
L 636.836201 63.652519 
L 631.061202 63.173072 
L 625.928423 62.953121 
L 620.255584 62.928747 
L 613.090923 63.154548 
L 604.157474 63.687288 
L 594.894083 64.45562 
L 587.922005 65.267659 
L 583.132805 66.057645 
L 579.556223 66.872834 
L 576.534441 67.829159 
L 575.10811 68.429119 
L 573.625429 69.24495 
L 572.758166 69.910139 
L 572.180602 70.577442 
L 571.939348 71.100504 
L 571.900964 71.606402 
L 572.049907 72.051121 
L 572.624675 72.679915 
L 573.583323 73.221275 
L 574.141687 73.441287 
L 576.121441 73.981693 
L 578.289875 74.360053 
L 583.251546 74.876141 
L 589.995013 75.252502 
L 599.615108 75.541681 
L 611.868241 75.683644 
L 620.900021 75.577114 
L 629.082172 75.248054 
L 636.689134 74.723389 
L 645.904943 73.86245 
L 659.086168 72.387148 
L 675.191059 70.500902 
L 675.191059 70.500902 
" style="fill:none;stroke:#000000;stroke-linecap:square;stroke-opacity:0.7;stroke-width:1.2;"/>
   </g>
  </g>
 </g>
 <defs>
  <clipPath id="pd7ec21950f">
   <rect height="262.08" width="694.08" x="12.96" y="12.96"/>
  </clipPath>
 </defs>
</svg>
