<?xml version="1.0" encoding="utf-8" standalone="no"?>
<!DOCTYPE svg PUBLIC "-//W3C//DTD SVG 1.1//EN"
  "http://www.w3.org/Graphics/SVG/1.1/DTD/svg11.dtd">
<!-- Created with matplotlib (https://matplotlib.org/) -->
<svg height="288pt" version="1.1" viewBox="0 0 720 288" width="720pt" xmlns="http://www.w3.org/2000/svg" xmlns:xlink="http://www.w3.org/1999/xlink">
 <metadata>
  <rdf:RDF xmlns:cc="http://creativecommons.org/ns#" xmlns:dc="http://purl.org/dc/elements/1.1/" xmlns:rdf="http://www.w3.org/1999/02/22-rdf-syntax-ns#">
   <cc:Work>
    <dc:type rdf:resource="http://purl.org/dc/dcmitype/StillImage"/>
    <dc:date>2021-04-26T15:40:07.595427</dc:date>
    <dc:format>image/svg+xml</dc:format>
    <dc:creator>
     <cc:Agent>
      <dc:title>Matplotlib v3.3.4, https://matplotlib.org/</dc:title>
     </cc:Agent>
    </dc:creator>
   </cc:Work>
  </rdf:RDF>
 </metadata>
 <defs>
  <style type="text/css">*{stroke-linecap:butt;stroke-linejoin:round;}</style>
 </defs>
 <g id="figure_1">
  <g id="patch_1">
   <path d="M 0 288 
L 720 288 
L 720 0 
L 0 0 
z
" style="fill:#ffffff;"/>
  </g>
  <g id="axes_1">
   <g id="line2d_1">
    <path clip-path="url(#pcd34d76b10)" d="M 148.851984 223.689148 
L 141.561811 221.814435 
L 132.088239 219.606968 
L 122.922861 217.691875 
L 114.758886 216.18451 
L 106.868736 214.931306 
L 99.183347 213.917011 
L 92.011814 213.163087 
L 85.697528 212.695983 
L 80.563903 212.516919 
L 75.822817 212.575034 
L 71.578842 212.854567 
L 68.283323 213.241903 
L 64.181716 213.953816 
L 60.761359 214.760426 
L 57.087484 215.86855 
L 54.118794 216.977193 
L 50.923777 218.445313 
L 48.562199 219.810733 
L 47.276187 220.749433 
L 46.336345 221.667254 
L 45.909966 222.349969 
L 45.81122 222.861043 
L 45.895151 223.196068 
L 46.358775 223.688271 
L 47.157892 224.044663 
L 48.762936 224.362578 
L 50.549728 224.494654 
L 53.497157 224.50178 
L 58.005363 224.296651 
L 72.931149 223.449012 
L 80.372082 223.318356 
L 89.524933 223.434826 
L 117.806746 224.045636 
L 145.352723 224.370543 
L 148.883756 224.463243 
L 148.883756 224.463243 
" style="fill:none;stroke:#000000;stroke-linecap:square;stroke-opacity:0.7;stroke-width:1.2;"/>
   </g>
   <g id="line2d_2">
    <path clip-path="url(#pcd34d76b10)" d="M 148.468574 183.133106 
L 143.924716 181.666209 
L 136.68805 179.571712 
L 128.676766 177.460544 
L 119.195925 175.186708 
L 110.296549 173.288644 
L 102.48866 171.862728 
L 95.277671 170.794039 
L 89.342336 170.125689 
L 84.600476 169.759068 
L 79.016048 169.572687 
L 74.403739 169.673707 
L 70.087371 170.025046 
L 66.545912 170.528853 
L 63.47957 171.142443 
L 59.761029 172.137037 
L 56.428722 173.30077 
L 53.478369 174.597569 
L 50.68586 176.136387 
L 48.377436 177.761443 
L 46.71751 179.296926 
L 45.702014 180.580018 
L 45.022824 181.89669 
L 44.799138 182.72136 
L 44.746713 183.527187 
L 44.962745 184.586691 
L 45.742656 185.851679 
L 46.110417 186.226456 
L 46.880764 186.838025 
L 48.528918 187.744416 
L 50.635262 188.512302 
L 52.215401 188.929142 
L 55.61485 189.554453 
L 59.998053 190.039035 
L 66.338361 190.418578 
L 75.704682 190.707876 
L 87.730085 190.893585 
L 94.705372 190.835555 
L 100.965652 190.575065 
L 106.49528 190.136823 
L 113.319877 189.351497 
L 121.129968 188.231431 
L 136.230264 185.788383 
L 148.476954 183.809409 
L 148.476954 183.809409 
" style="fill:none;stroke:#000000;stroke-linecap:square;stroke-opacity:0.7;stroke-width:1.2;"/>
   </g>
   <g id="line2d_3">
    <path clip-path="url(#pcd34d76b10)" d="M 148.954506 144.958343 
L 145.593221 143.682852 
L 139.628915 141.651188 
L 133.463474 139.756811 
L 126.361521 137.778564 
L 118.218026 135.761246 
L 111.593907 134.330693 
L 105.093682 133.135458 
L 99.428098 132.282233 
L 93.446056 131.588271 
L 87.390111 131.122548 
L 81.463182 130.934875 
L 77.096367 131.001495 
L 72.87375 131.265139 
L 69.22802 131.67742 
L 65.503306 132.304023 
L 62.407984 133.006779 
L 58.84333 134.055991 
L 56.517562 134.903632 
L 53.719667 136.132569 
L 50.930045 137.655311 
L 48.602109 139.274123 
L 47.238363 140.491749 
L 46.069745 141.926487 
L 45.566029 142.945826 
L 45.411585 143.612575 
L 45.422764 144.273816 
L 45.676193 145.016972 
L 45.808393 145.233728 
L 46.66741 146.088244 
L 47.562538 146.61461 
L 49.455907 147.304881 
L 51.461316 147.743411 
L 54.222192 148.0987 
L 58.679177 148.348393 
L 64.478192 148.377326 
L 80.652179 148.06272 
L 103.785704 147.592163 
L 116.058421 147.028943 
L 135.039317 146.139404 
L 147.759513 145.794741 
L 148.994012 145.774444 
L 148.994012 145.774444 
" style="fill:none;stroke:#000000;stroke-linecap:square;stroke-opacity:0.7;stroke-width:1.2;"/>
   </g>
   <g id="line2d_4">
    <path clip-path="url(#pcd34d76b10)" d="M 149.048447 105.593578 
L 142.533305 104.059061 
L 133.595565 102.200151 
L 124.409293 100.533499 
L 116.00662 99.241937 
L 108.726533 98.337739 
L 101.681305 97.67588 
L 94.046845 97.191186 
L 86.542821 96.941732 
L 79.855824 96.939231 
L 73.61376 97.183577 
L 68.212044 97.638003 
L 63.410853 98.265935 
L 58.962602 99.067299 
L 54.489 100.137533 
L 50.97299 101.24344 
L 48.801636 102.1257 
L 46.876379 103.201523 
L 46.203746 103.766959 
L 45.767628 104.387178 
L 45.69466 105.043214 
L 45.965916 105.568513 
L 46.617736 106.120268 
L 47.495631 106.578977 
L 48.726314 107.032221 
L 50.829549 107.578112 
L 54.037842 108.137839 
L 58.041348 108.585691 
L 62.654422 108.890307 
L 69.288932 109.070359 
L 77.466557 109.040166 
L 93.33988 108.703009 
L 109.043239 108.18137 
L 128.955866 107.211477 
L 145.425676 106.514612 
L 149.085569 106.396778 
L 149.085569 106.396778 
" style="fill:none;stroke:#000000;stroke-linecap:square;stroke-opacity:0.7;stroke-width:1.2;"/>
   </g>
   <g id="line2d_5">
    <path clip-path="url(#pcd34d76b10)" d="M 148.989728 65.921253 
L 143.233552 64.412419 
L 134.609915 62.392005 
L 125.339349 60.458578 
L 116.598832 58.856042 
L 107.826969 57.493709 
L 100.141869 56.527631 
L 92.39704 55.777337 
L 85.724721 55.337175 
L 79.563576 55.164995 
L 74.776586 55.244193 
L 70.072442 55.54857 
L 65.709684 56.061588 
L 61.089324 56.876656 
L 56.713222 57.945344 
L 53.240361 59.048024 
L 50.457242 60.15603 
L 47.908728 61.454977 
L 47.19962 61.898602 
L 45.593428 63.190523 
L 44.828437 64.196653 
L 44.519862 65.149258 
L 44.582578 65.909192 
L 44.977811 66.727005 
L 45.774469 67.574533 
L 47.249677 68.559019 
L 48.943806 69.356648 
L 51.202484 70.161131 
L 54.785525 71.102529 
L 58.52283 71.810978 
L 62.849973 72.385812 
L 68.062041 72.803496 
L 73.197716 72.973404 
L 79.274806 72.929989 
L 86.662624 72.627964 
L 96.003122 72.004537 
L 106.622078 71.064723 
L 120.16257 69.600806 
L 141.694448 67.268669 
L 148.993567 66.617917 
L 148.993567 66.617917 
" style="fill:none;stroke:#000000;stroke-linecap:square;stroke-opacity:0.7;stroke-width:1.2;"/>
   </g>
   <g id="line2d_6">
    <path clip-path="url(#pcd34d76b10)" d="M 280.218473 223.031186 
L 268.851136 221.19667 
L 256.448849 219.411279 
L 245.337284 218.027042 
L 234.562917 216.916578 
L 223.092472 215.966565 
L 215.02128 215.495967 
L 209.885481 215.377796 
L 205.427999 215.451547 
L 200.58065 215.759732 
L 195.804168 216.322164 
L 191.53346 217.060191 
L 187.357754 218.021021 
L 184.43345 218.862174 
L 181.064524 220.071579 
L 179.108831 220.975688 
L 177.73915 221.823026 
L 177.059789 222.468312 
L 176.7948 223.073284 
L 176.928948 223.56074 
L 177.303952 223.929438 
L 177.926203 224.270218 
L 179.238214 224.701519 
L 181.707821 225.166671 
L 185.091163 225.519366 
L 190.425715 225.778242 
L 197.076208 225.852679 
L 211.645546 225.712431 
L 232.978844 225.358904 
L 244.773795 224.893053 
L 266.657726 223.961383 
L 277.54245 223.730954 
L 280.262596 223.715031 
L 280.262596 223.715031 
" style="fill:none;stroke:#000000;stroke-linecap:square;stroke-opacity:0.7;stroke-width:1.2;"/>
   </g>
   <g id="line2d_7">
    <path clip-path="url(#pcd34d76b10)" d="M 280.665941 184.833344 
L 244.013292 177.034584 
L 228.028493 173.964933 
L 219.364243 172.50114 
L 214.4179 171.86543 
L 209.842882 171.509754 
L 206.113502 171.437513 
L 201.968475 171.622333 
L 198.577887 171.993903 
L 195.404802 172.525757 
L 192.044822 173.28698 
L 189.077558 174.135806 
L 185.219908 175.513732 
L 182.221971 176.847733 
L 180.3247 177.858649 
L 178.571273 178.976651 
L 177.303357 179.988753 
L 176.196155 181.254111 
L 175.788083 182.162233 
L 175.75796 182.998082 
L 175.934648 183.517722 
L 176.086914 183.778658 
L 176.950765 184.654088 
L 178.131771 185.371055 
L 180.157487 186.196674 
L 182.123697 186.77523 
L 185.905311 187.575145 
L 189.611233 188.121909 
L 194.526124 188.620664 
L 200.682941 189.007137 
L 209.581967 189.300003 
L 223.010176 189.480215 
L 233.351132 189.419304 
L 240.98415 189.173484 
L 248.558699 188.73798 
L 259.470953 187.860902 
L 271.467819 186.6648 
L 280.659066 185.611461 
L 280.659066 185.611461 
" style="fill:none;stroke:#000000;stroke-linecap:square;stroke-opacity:0.7;stroke-width:1.2;"/>
   </g>
   <g id="line2d_8">
    <path clip-path="url(#pcd34d76b10)" d="M 280.39788 144.396639 
L 268.543124 142.806935 
L 253.821371 141.053928 
L 240.02931 139.627028 
L 216.278567 137.445199 
L 211.204141 137.135281 
L 206.25607 137.021131 
L 201.675728 137.141305 
L 196.966246 137.529576 
L 193.073051 138.067102 
L 188.522423 138.9544 
L 184.972602 139.85364 
L 181.159758 141.057592 
L 178.79625 141.972206 
L 176.394853 143.143003 
L 175.149992 143.997082 
L 174.581544 144.63084 
L 174.406042 145.236119 
L 174.617337 145.748886 
L 174.775863 145.91882 
L 175.762882 146.513041 
L 177.517073 147.073214 
L 179.37748 147.44712 
L 183.156024 147.908345 
L 187.552316 148.181411 
L 193.862814 148.309568 
L 205.214226 148.231477 
L 237.383998 147.794834 
L 246.677686 147.320913 
L 264.128536 146.123949 
L 280.415268 145.058651 
L 280.415268 145.058651 
" style="fill:none;stroke:#000000;stroke-linecap:square;stroke-opacity:0.7;stroke-width:1.2;"/>
   </g>
   <g id="line2d_9">
    <path clip-path="url(#pcd34d76b10)" d="M 280.268843 104.584173 
L 274.992177 103.463574 
L 267.171265 102.025097 
L 258.091466 100.589056 
L 249.016817 99.368383 
L 239.216962 98.26516 
L 227.320094 97.147796 
L 217.168735 96.388788 
L 210.714658 96.117596 
L 205.765113 96.113434 
L 201.170347 96.325402 
L 197.527706 96.668097 
L 194.142211 97.140505 
L 189.402336 98.076938 
L 185.470485 99.133011 
L 182.205804 100.252381 
L 179.329763 101.504022 
L 177.634856 102.444819 
L 176.70224 103.095186 
L 176.001831 103.733619 
L 175.627323 104.241555 
L 175.464682 104.923622 
L 175.632482 105.327656 
L 176.112041 105.728703 
L 176.735723 106.002054 
L 177.871504 106.282488 
L 179.653102 106.495174 
L 183.087118 106.585224 
L 187.525182 106.433388 
L 198.112435 105.724322 
L 205.376355 105.341501 
L 211.237628 105.21532 
L 218.216017 105.264269 
L 243.641712 105.693665 
L 258.776383 105.516821 
L 280.266485 105.252426 
L 280.266485 105.252426 
" style="fill:none;stroke:#000000;stroke-linecap:square;stroke-opacity:0.7;stroke-width:1.2;"/>
   </g>
   <g id="line2d_10">
    <path clip-path="url(#pcd34d76b10)" d="M 280.636352 66.30381 
L 250.402634 62.604286 
L 240.449905 61.677286 
L 229.891158 60.925132 
L 215.307512 60.106686 
L 207.796045 59.884009 
L 201.91927 59.951404 
L 196.671185 60.264118 
L 191.696279 60.813241 
L 187.478326 61.490429 
L 183.279987 62.389358 
L 179.666372 63.41358 
L 177.454427 64.270915 
L 176.398667 64.905136 
L 176.113613 65.28539 
L 176.191451 65.616648 
L 176.608676 65.891538 
L 177.239142 66.095138 
L 178.343888 66.302333 
L 181.59572 66.586266 
L 186.293182 66.715474 
L 194.34309 66.674884 
L 218.166173 66.386941 
L 230.481526 66.581826 
L 256.85885 67.101683 
L 273.821723 67.139818 
L 280.658181 67.090328 
L 280.658181 67.090328 
" style="fill:none;stroke:#000000;stroke-linecap:square;stroke-opacity:0.7;stroke-width:1.2;"/>
   </g>
   <g id="line2d_11">
    <path clip-path="url(#pcd34d76b10)" d="M 411.752464 223.413147 
L 400.733817 221.415955 
L 385.89736 218.900889 
L 375.525685 217.358071 
L 368.118205 216.486063 
L 361.871111 215.955676 
L 355.983342 215.633057 
L 348.601264 215.444441 
L 340.532509 215.479534 
L 333.246599 215.744865 
L 327.37883 216.177655 
L 322.825825 216.704028 
L 318.161832 217.490141 
L 314.589379 218.345079 
L 312.102457 219.150055 
L 310.49621 219.823802 
L 308.925595 220.697485 
L 307.707476 221.708165 
L 307.477462 221.978589 
L 306.924174 223.048725 
L 306.860405 223.888557 
L 307.15079 224.831038 
L 307.659548 225.596755 
L 308.275861 226.24088 
L 309.015387 226.846986 
L 310.811054 227.968461 
L 313.126565 229.051371 
L 315.895988 230.057363 
L 318.854754 230.907985 
L 322.691009 231.759933 
L 326.28985 232.350132 
L 330.817841 232.844333 
L 335.973913 233.109366 
L 341.215942 233.10522 
L 347.414231 232.835837 
L 355.53877 232.223591 
L 366.297655 231.193776 
L 375.648945 230.099708 
L 385.20235 228.735687 
L 395.954336 226.966891 
L 411.716991 224.110387 
L 411.78012 224.098662 
L 411.78012 224.098662 
" style="fill:none;stroke:#000000;stroke-linecap:square;stroke-opacity:0.7;stroke-width:1.2;"/>
   </g>
   <g id="line2d_12">
    <path clip-path="url(#pcd34d76b10)" d="M 412.170706 184.809973 
L 382.86675 181.211626 
L 370.702483 180.012274 
L 354.268507 178.650603 
L 345.058075 178.014077 
L 339.009275 177.808106 
L 334.231588 177.856253 
L 329.438887 178.132301 
L 325.468995 178.546401 
L 321.116516 179.203167 
L 316.694916 180.108911 
L 313.369817 180.986586 
L 310.69495 181.887838 
L 309.322641 182.50597 
L 308.697707 182.919041 
L 308.45714 183.265055 
L 308.546176 183.517529 
L 308.866622 183.711223 
L 309.708139 183.928854 
L 311.769338 184.13549 
L 315.776408 184.213029 
L 323.328727 184.041126 
L 336.215443 183.719397 
L 343.475692 183.784379 
L 351.963536 184.103925 
L 372.773693 185.036336 
L 385.187195 185.256559 
L 412.192849 185.509958 
L 412.192849 185.509958 
" style="fill:none;stroke:#000000;stroke-linecap:square;stroke-opacity:0.7;stroke-width:1.2;"/>
   </g>
   <g id="line2d_13">
    <path clip-path="url(#pcd34d76b10)" d="M 412.18822 144.736355 
L 409.553365 143.491522 
L 405.387027 141.731621 
L 400.616504 139.920438 
L 394.748504 137.913743 
L 388.55666 136.019509 
L 382.458732 134.361983 
L 376.529202 132.944909 
L 370.031812 131.612102 
L 363.58929 130.517646 
L 357.095146 129.655972 
L 352.271824 129.198603 
L 346.794137 128.915541 
L 341.723822 128.935674 
L 338.07857 129.154919 
L 334.367622 129.583727 
L 330.669951 130.24437 
L 327.341297 131.061875 
L 323.68489 132.232629 
L 320.361588 133.578278 
L 317.329472 135.080847 
L 314.725613 136.628417 
L 312.575511 138.142272 
L 310.413071 139.994458 
L 309.427408 141.034634 
L 308.513661 142.260055 
L 307.986333 143.384015 
L 307.884274 144.274229 
L 308.101932 144.95067 
L 308.354947 145.289192 
L 309.148524 145.875758 
L 310.095639 146.272829 
L 311.992643 146.727118 
L 314.644734 147.045787 
L 318.165372 147.21451 
L 322.732327 147.215946 
L 330.058606 146.95542 
L 343.376837 146.167498 
L 360.163533 145.228028 
L 371.435424 144.805589 
L 381.959884 144.650623 
L 392.317037 144.736973 
L 403.249326 145.071715 
L 412.19448 145.54866 
L 412.19448 145.54866 
" style="fill:none;stroke:#000000;stroke-linecap:square;stroke-opacity:0.7;stroke-width:1.2;"/>
   </g>
   <g id="line2d_14">
    <path clip-path="url(#pcd34d76b10)" d="M 412.375462 106.462079 
L 400.989394 104.788121 
L 379.158537 101.607388 
L 364.180491 99.661989 
L 351.012959 98.146214 
L 344.358903 97.591455 
L 339.332532 97.388977 
L 334.683791 97.435352 
L 330.155122 97.729794 
L 326.730701 98.123937 
L 322.711794 98.779305 
L 318.671469 99.65895 
L 315.171823 100.626438 
L 312.191612 101.653638 
L 309.633736 102.808198 
L 308.534622 103.508874 
L 307.998111 104.030069 
L 307.771874 104.541626 
L 307.817256 104.85361 
L 308.082168 105.212315 
L 308.468778 105.486993 
L 309.559251 105.947593 
L 310.850713 106.297791 
L 313.826569 106.825287 
L 318.671763 107.346684 
L 324.308106 107.713942 
L 333.551507 108.05698 
L 363.016335 108.756156 
L 373.588838 108.775511 
L 383.500844 108.570692 
L 397.135986 108.054877 
L 410.840881 107.335899 
L 412.381521 107.239695 
L 412.381521 107.239695 
" style="fill:none;stroke:#000000;stroke-linecap:square;stroke-opacity:0.7;stroke-width:1.2;"/>
   </g>
   <g id="line2d_15">
    <path clip-path="url(#pcd34d76b10)" d="M 411.977267 65.645403 
L 404.828977 64.370235 
L 395.246737 62.890301 
L 385.46925 61.592427 
L 375.407958 60.483154 
L 363.523112 59.438125 
L 350.340193 58.489018 
L 342.563977 58.123759 
L 336.265308 58.081594 
L 331.399029 58.278786 
L 326.178491 58.76072 
L 321.847107 59.400886 
L 317.252712 60.357779 
L 313.605521 61.378574 
L 310.511238 62.525534 
L 309.227187 63.136299 
L 307.791774 64.039872 
L 307.206537 64.622386 
L 306.997222 65.098894 
L 307.061986 65.424125 
L 307.520208 65.80037 
L 308.296441 66.03246 
L 309.70962 66.174281 
L 312.451459 66.11863 
L 317.256172 65.67559 
L 332.92204 63.986232 
L 338.709933 63.687374 
L 344.667112 63.651209 
L 351.213524 63.874535 
L 362.151585 64.541672 
L 372.511347 65.108991 
L 384.281772 65.500609 
L 410.97116 66.278611 
L 411.995157 66.325572 
L 411.995157 66.325572 
" style="fill:none;stroke:#000000;stroke-linecap:square;stroke-opacity:0.7;stroke-width:1.2;"/>
   </g>
   <g id="line2d_16">
    <path clip-path="url(#pcd34d76b10)" d="M 543.36699 223.11576 
L 535.360643 221.802852 
L 523.669073 220.099213 
L 512.43847 218.672106 
L 503.373512 217.728878 
L 495.172841 217.101793 
L 486.911811 216.700073 
L 477.973428 216.499361 
L 470.611077 216.561276 
L 464.927039 216.819768 
L 461.324405 217.107348 
L 455.852631 217.765236 
L 451.108808 218.594681 
L 447.404357 219.462316 
L 444.208854 220.453504 
L 442.15226 221.337263 
L 441.000021 222.085207 
L 440.469055 222.734517 
L 440.373835 223.136216 
L 440.532788 223.656028 
L 440.940793 224.100726 
L 441.823281 224.643828 
L 443.058765 225.135241 
L 445.921275 225.855365 
L 448.379415 226.257608 
L 452.608661 226.711873 
L 457.813812 227.032485 
L 465.584332 227.242882 
L 475.698946 227.269434 
L 487.249906 227.090932 
L 497.70205 226.692658 
L 508.119365 226.031314 
L 534.750598 224.189175 
L 543.403887 223.790561 
L 543.403887 223.790561 
" style="fill:none;stroke:#000000;stroke-linecap:square;stroke-opacity:0.7;stroke-width:1.2;"/>
   </g>
   <g id="line2d_17">
    <path clip-path="url(#pcd34d76b10)" d="M 543.095649 182.984653 
L 535.762388 181.883151 
L 524.124789 180.386792 
L 510.488512 178.863774 
L 495.262027 177.390446 
L 482.092773 176.317506 
L 475.275701 175.966743 
L 469.714643 175.910583 
L 464.769773 176.113732 
L 460.502154 176.522413 
L 456.463711 177.130712 
L 453.316859 177.765219 
L 450.030067 178.591187 
L 446.25309 179.779385 
L 443.231917 180.978538 
L 441.107299 182.059509 
L 440.092194 182.746876 
L 439.397851 183.503124 
L 439.309394 183.973408 
L 439.487843 184.2906 
L 439.961815 184.605285 
L 441.220531 184.984675 
L 443.301544 185.276202 
L 447.215015 185.499613 
L 453.501664 185.581067 
L 470.382391 185.705836 
L 495.518884 186.162484 
L 502.971409 185.965795 
L 512.683396 185.433577 
L 541.957607 183.611416 
L 543.117485 183.561666 
L 543.117485 183.561666 
" style="fill:none;stroke:#000000;stroke-linecap:square;stroke-opacity:0.7;stroke-width:1.2;"/>
   </g>
   <g id="line2d_18">
    <path clip-path="url(#pcd34d76b10)" d="M 543.090913 143.949218 
L 533.309268 142.097802 
L 518.198729 139.457124 
L 506.548515 137.622898 
L 497.730428 136.466134 
L 489.897426 135.688222 
L 482.7072 135.205472 
L 476.047442 134.980011 
L 469.662369 135.021362 
L 465.044197 135.256382 
L 460.472871 135.700646 
L 456.388793 136.312719 
L 453.538694 136.885802 
L 450.117453 137.775208 
L 447.479663 138.664429 
L 445.054407 139.724663 
L 443.637644 140.525077 
L 442.292199 141.527937 
L 441.456662 142.422296 
L 440.869949 143.511135 
L 440.728994 144.325665 
L 440.831502 145.100999 
L 441.079893 145.711577 
L 441.736 146.612055 
L 442.327426 147.163966 
L 443.856149 148.173585 
L 445.657274 148.998939 
L 447.49896 149.628521 
L 450.485687 150.376284 
L 453.588917 150.924634 
L 458.201358 151.467861 
L 463.644772 151.845017 
L 470.718853 152.091433 
L 481.331583 152.210497 
L 490.875055 152.115853 
L 497.024887 151.866812 
L 502.426068 151.460632 
L 509.116013 150.703145 
L 516.559719 149.60543 
L 526.533518 147.885219 
L 543.142074 144.749713 
L 543.142074 144.749713 
" style="fill:none;stroke:#000000;stroke-linecap:square;stroke-opacity:0.7;stroke-width:1.2;"/>
   </g>
   <g id="line2d_19">
    <path clip-path="url(#pcd34d76b10)" d="M 543.530477 105.441785 
L 519.551657 102.355687 
L 509.128885 101.212536 
L 499.251736 100.364745 
L 488.653079 99.711306 
L 476.778668 99.200995 
L 469.399732 99.108649 
L 464.591578 99.229484 
L 459.502426 99.561682 
L 454.914501 100.066199 
L 450.216022 100.814056 
L 447.017484 101.490747 
L 444.066375 102.296296 
L 442.405898 102.884283 
L 440.831363 103.651637 
L 440.051283 104.271189 
L 439.753013 104.758044 
L 439.722606 105.166501 
L 439.956594 105.649899 
L 440.310094 105.992808 
L 441.302393 106.575021 
L 442.798708 107.135319 
L 445.439994 107.792828 
L 448.754139 108.344465 
L 453.368889 108.846688 
L 459.072927 109.212493 
L 466.1092 109.422269 
L 476.429218 109.47005 
L 494.986741 109.298345 
L 504.997656 109.036107 
L 514.779916 108.552935 
L 525.787906 107.772183 
L 538.796329 106.613107 
L 543.546655 106.135091 
L 543.546655 106.135091 
" style="fill:none;stroke:#000000;stroke-linecap:square;stroke-opacity:0.7;stroke-width:1.2;"/>
   </g>
   <g id="line2d_20">
    <path clip-path="url(#pcd34d76b10)" d="M 543.697308 65.79593 
L 537.787355 64.170252 
L 528.903348 61.988624 
L 519.580631 59.936322 
L 511.059064 58.28204 
L 503.381717 57.023841 
L 497.125364 56.199067 
L 490.403556 55.527952 
L 484.443933 55.118086 
L 477.67237 54.879131 
L 472.060095 54.903971 
L 467.526515 55.109689 
L 463.23848 55.487223 
L 458.701073 56.111294 
L 454.148687 57.008603 
L 451.247761 57.749706 
L 448.031635 58.765304 
L 444.964611 59.992788 
L 442.315756 61.384311 
L 440.745973 62.495785 
L 439.644511 63.60457 
L 439.20716 64.280569 
L 438.915351 65.213982 
L 438.992259 66.057258 
L 439.385268 66.83577 
L 439.953414 67.461996 
L 440.907679 68.174272 
L 442.24961 68.893954 
L 444.826041 69.884391 
L 447.6542 70.684848 
L 451.224897 71.465088 
L 456.61221 72.347773 
L 462.558375 73.04662 
L 468.398473 73.525234 
L 476.080343 73.909371 
L 483.481447 74.052281 
L 490.196066 73.981271 
L 496.841735 73.684612 
L 502.970073 73.181567 
L 510.063069 72.343004 
L 518.094482 71.154817 
L 529.482544 69.215158 
L 543.686355 66.578304 
L 543.686355 66.578304 
" style="fill:none;stroke:#000000;stroke-linecap:square;stroke-opacity:0.7;stroke-width:1.2;"/>
   </g>
   <g id="line2d_21">
    <path clip-path="url(#pcd34d76b10)" d="M 675.18641 223.604787 
L 671.422684 222.25963 
L 665.65247 220.422112 
L 658.514436 218.395978 
L 651.357453 216.572384 
L 643.575087 214.789908 
L 634.574037 212.960887 
L 626.146404 211.46131 
L 618.852289 210.364278 
L 613.066042 209.697424 
L 608.60719 209.365466 
L 603.788965 209.24518 
L 599.382396 209.401318 
L 595.407288 209.794697 
L 592.105452 210.322761 
L 588.229274 211.19704 
L 585.167414 212.100231 
L 581.7419 213.362412 
L 578.654705 214.771408 
L 576.514731 215.941716 
L 574.748281 217.072653 
L 573.113683 218.321709 
L 571.565207 219.85567 
L 570.865174 220.844409 
L 570.482032 221.707369 
L 570.362438 222.619316 
L 570.498241 223.254099 
L 570.821414 223.829381 
L 571.607901 224.567325 
L 572.601488 225.129769 
L 574.650015 225.84335 
L 576.998735 226.338608 
L 580.385222 226.761895 
L 585.02564 227.040211 
L 590.941114 227.105668 
L 598.33322 226.919271 
L 608.787936 226.393904 
L 644.178928 224.42278 
L 655.073261 224.148564 
L 665.209375 224.112119 
L 675.176355 224.311884 
L 675.176355 224.311884 
" style="fill:none;stroke:#000000;stroke-linecap:square;stroke-opacity:0.7;stroke-width:1.2;"/>
   </g>
   <g id="line2d_22">
    <path clip-path="url(#pcd34d76b10)" d="M 674.708332 183.52889 
L 667.520442 181.907375 
L 657.623183 179.890563 
L 647.648023 178.055926 
L 638.898692 176.65197 
L 631.079851 175.62309 
L 623.732771 174.887533 
L 616.028382 174.354931 
L 609.566213 174.095983 
L 603.233872 174.044216 
L 597.649175 174.224741 
L 592.967057 174.592536 
L 588.543392 175.167034 
L 584.229494 175.989642 
L 580.307762 177.027073 
L 577.111683 178.158428 
L 574.538726 179.36501 
L 573.094568 180.24428 
L 571.714692 181.367254 
L 570.917844 182.345079 
L 570.524963 183.230184 
L 570.445867 183.826771 
L 570.561535 184.529533 
L 570.84108 185.102 
L 571.337898 185.700993 
L 571.810168 186.105611 
L 572.603645 186.622392 
L 574.710043 187.541852 
L 576.826398 188.148613 
L 580.258233 188.795973 
L 583.640752 189.193128 
L 588.575853 189.509114 
L 594.233085 189.624575 
L 601.524137 189.547409 
L 618.35823 189.058929 
L 630.24748 188.571903 
L 639.131035 187.973416 
L 648.953391 187.073813 
L 664.268586 185.420779 
L 674.730625 184.234922 
L 674.730625 184.234922 
" style="fill:none;stroke:#000000;stroke-linecap:square;stroke-opacity:0.7;stroke-width:1.2;"/>
   </g>
   <g id="line2d_23">
    <path clip-path="url(#pcd34d76b10)" d="M 674.652096 143.726489 
L 665.920775 143.307712 
L 649.224914 142.250456 
L 631.837048 140.947812 
L 619.266664 139.771991 
L 607.540243 138.669973 
L 602.22153 138.369409 
L 597.53561 138.304175 
L 593.05425 138.449824 
L 588.145905 138.859593 
L 583.52591 139.499617 
L 579.906659 140.197669 
L 576.381458 141.099427 
L 573.977108 141.926016 
L 572.288355 142.762162 
L 571.632983 143.299512 
L 571.394791 143.706814 
L 571.389857 144.042215 
L 571.641388 144.441163 
L 572.348966 144.906385 
L 573.864274 145.445409 
L 575.702934 145.859864 
L 579.526311 146.411516 
L 584.628112 146.865115 
L 594.096491 147.414638 
L 623.786259 148.877991 
L 630.259831 148.856281 
L 635.910612 148.62384 
L 643.316172 148.063302 
L 652.185532 147.146176 
L 666.111824 145.454719 
L 674.6876 144.379869 
L 674.6876 144.379869 
" style="fill:none;stroke:#000000;stroke-linecap:square;stroke-opacity:0.7;stroke-width:1.2;"/>
   </g>
   <g id="line2d_24">
    <path clip-path="url(#pcd34d76b10)" d="M 675.13976 105.17239 
L 671.945161 103.807411 
L 667.131995 101.975303 
L 661.514793 100.062633 
L 654.185804 97.834317 
L 646.860396 95.851952 
L 638.639709 93.872619 
L 629.770769 91.977074 
L 621.47234 90.422798 
L 615.4918 89.505076 
L 611.148427 89.013374 
L 607.163372 88.746131 
L 603.35121 88.701101 
L 599.647056 88.894203 
L 596.098749 89.329545 
L 592.876759 89.959105 
L 590.51307 90.573497 
L 587.152559 91.685436 
L 583.841263 93.078179 
L 580.801278 94.648075 
L 578.260756 96.209602 
L 575.651365 98.111207 
L 574.050031 99.483921 
L 572.269904 101.325175 
L 571.306032 102.639977 
L 570.772413 103.801523 
L 570.69642 104.519629 
L 570.78664 104.882415 
L 571.182815 105.391297 
L 571.42888 105.55526 
L 572.450886 105.908329 
L 573.93088 106.075508 
L 575.654397 106.076955 
L 579.338238 105.801917 
L 585.195002 105.080202 
L 600.586123 103.067913 
L 608.054841 102.367069 
L 615.140642 101.937132 
L 622.888507 101.706306 
L 631.209847 101.703854 
L 639.124913 101.933446 
L 646.902292 102.386773 
L 654.27477 103.020133 
L 662.070516 103.896521 
L 669.622972 104.9498 
L 675.12384 105.855798 
L 675.12384 105.855798 
" style="fill:none;stroke:#000000;stroke-linecap:square;stroke-opacity:0.7;stroke-width:1.2;"/>
   </g>
   <g id="line2d_25">
    <path clip-path="url(#pcd34d76b10)" d="M 675.490909 66.768702 
L 672.017674 65.49621 
L 666.810478 63.821828 
L 660.347613 62.00637 
L 654.041687 60.456085 
L 647.744486 59.107757 
L 640.714394 57.840647 
L 634.293287 56.909142 
L 627.306596 56.131958 
L 619.640537 55.529108 
L 613.496905 55.221948 
L 606.911574 55.099884 
L 602.049888 55.198036 
L 596.885284 55.540372 
L 592.438006 56.078989 
L 587.93062 56.895282 
L 583.609212 57.970921 
L 580.134234 59.079687 
L 576.74527 60.425856 
L 574.012907 61.79019 
L 572.347117 62.846728 
L 571.168281 63.856839 
L 570.703063 64.462562 
L 570.474286 65.070723 
L 570.499645 65.50815 
L 570.666706 65.858389 
L 570.994492 66.205085 
L 571.945255 66.746266 
L 573.020482 67.10933 
L 575.311359 67.576468 
L 578.035439 67.888054 
L 582.632662 68.127821 
L 587.883605 68.160529 
L 595.27307 67.965192 
L 608.72933 67.320554 
L 628.21375 66.440912 
L 638.7836 66.168809 
L 647.826803 66.158171 
L 656.729434 66.374286 
L 666.139581 66.838638 
L 675.482974 67.528532 
L 675.482974 67.528532 
" style="fill:none;stroke:#000000;stroke-linecap:square;stroke-opacity:0.7;stroke-width:1.2;"/>
   </g>
  </g>
 </g>
 <defs>
  <clipPath id="pcd34d76b10">
   <rect height="262.08" width="694.08" x="12.96" y="12.96"/>
  </clipPath>
 </defs>
</svg>
