<?xml version="1.0" encoding="utf-8" standalone="no"?>
<!DOCTYPE svg PUBLIC "-//W3C//DTD SVG 1.1//EN"
  "http://www.w3.org/Graphics/SVG/1.1/DTD/svg11.dtd">
<!-- Created with matplotlib (https://matplotlib.org/) -->
<svg height="288pt" version="1.1" viewBox="0 0 720 288" width="720pt" xmlns="http://www.w3.org/2000/svg" xmlns:xlink="http://www.w3.org/1999/xlink">
 <metadata>
  <rdf:RDF xmlns:cc="http://creativecommons.org/ns#" xmlns:dc="http://purl.org/dc/elements/1.1/" xmlns:rdf="http://www.w3.org/1999/02/22-rdf-syntax-ns#">
   <cc:Work>
    <dc:type rdf:resource="http://purl.org/dc/dcmitype/StillImage"/>
    <dc:date>2021-04-26T15:31:33.913400</dc:date>
    <dc:format>image/svg+xml</dc:format>
    <dc:creator>
     <cc:Agent>
      <dc:title>Matplotlib v3.3.4, https://matplotlib.org/</dc:title>
     </cc:Agent>
    </dc:creator>
   </cc:Work>
  </rdf:RDF>
 </metadata>
 <defs>
  <style type="text/css">*{stroke-linecap:butt;stroke-linejoin:round;}</style>
 </defs>
 <g id="figure_1">
  <g id="patch_1">
   <path d="M 0 288 
L 720 288 
L 720 0 
L 0 0 
z
" style="fill:#ffffff;"/>
  </g>
  <g id="axes_1">
   <g id="line2d_1">
    <path clip-path="url(#p42183db0c7)" d="M 145.857185 229.904988 
L 144.693181 228.674081 
L 143.699023 227.865423 
L 141.829922 226.721361 
L 139.941267 225.873558 
L 137.68311 225.097329 
L 134.104682 224.14708 
L 114.740035 219.506985 
L 104.811587 217.091619 
L 98.379256 215.752197 
L 93.591737 214.958826 
L 89.279117 214.455287 
L 85.364696 214.219729 
L 82.955129 214.196109 
L 79.341958 214.345702 
L 75.295906 214.766147 
L 70.663158 215.505535 
L 63.127485 216.99981 
L 55.975469 218.5666 
L 51.604587 219.691103 
L 49.033942 220.516528 
L 46.818335 221.472913 
L 45.853976 222.066741 
L 44.996236 222.915185 
L 44.745914 223.476762 
L 44.736145 224.053886 
L 44.855094 224.421961 
L 45.511954 225.298649 
L 46.276173 225.915276 
L 47.658051 226.731679 
L 49.865997 227.711711 
L 52.911786 228.761913 
L 56.279931 229.701399 
L 60.491863 230.671412 
L 65.306628 231.587153 
L 70.768832 232.406323 
L 75.306716 232.85377 
L 80.676863 233.127546 
L 88.33727 233.19732 
L 96.601953 232.996995 
L 107.19445 232.481902 
L 120.646264 231.830267 
L 129.726206 231.412574 
L 134.403408 230.977113 
L 137.409964 230.521765 
L 140.469107 229.83845 
L 143.678662 228.775421 
L 145.493235 227.980094 
L 145.493235 227.980094 
" style="fill:none;stroke:#000000;stroke-linecap:square;stroke-opacity:0.7;stroke-width:1.2;"/>
   </g>
   <g id="line2d_2">
    <path clip-path="url(#p42183db0c7)" d="M 148.037383 191.644085 
L 146.328993 190.442772 
L 143.512298 188.779385 
L 139.955892 187.022329 
L 136.494118 185.509015 
L 130.191939 183.017666 
L 122.687162 180.338324 
L 116.296773 178.30738 
L 111.53711 176.992997 
L 107.231066 175.983567 
L 102.645517 175.116473 
L 97.569512 174.416456 
L 93.253924 174.037417 
L 87.873958 173.842682 
L 82.672753 173.94718 
L 78.375961 174.249712 
L 73.975069 174.763319 
L 68.910614 175.634342 
L 67.313156 175.98822 
L 63.523011 177.110612 
L 61.909697 177.894708 
L 61.287254 178.353356 
L 59.030788 180.521181 
L 54.533905 184.097675 
L 54.272429 184.375456 
L 53.557088 185.58166 
L 53.571246 186.116675 
L 53.933094 186.646534 
L 54.831703 187.143733 
L 56.169098 187.489792 
L 57.185752 187.633099 
L 59.752159 187.770637 
L 62.770066 187.691966 
L 66.427744 187.357816 
L 69.971121 186.775118 
L 72.162378 186.371754 
L 73.417485 186.904643 
L 74.424763 187.216079 
L 76.797569 187.773747 
L 82.091094 188.618915 
L 87.550106 189.190975 
L 94.725455 189.651417 
L 100.623304 189.84105 
L 109.223663 189.870504 
L 117.01635 189.677275 
L 125.905122 189.221106 
L 134.674962 188.523459 
L 142.427097 187.685799 
L 147.846861 187.00094 
L 147.846861 187.00094 
" style="fill:none;stroke:#000000;stroke-linecap:square;stroke-opacity:0.7;stroke-width:1.2;"/>
   </g>
   <g id="line2d_3">
    <path clip-path="url(#p42183db0c7)" d="M 147.805605 155.885756 
L 146.635526 154.528111 
L 144.657081 152.695915 
L 142.209278 150.901216 
L 139.010665 149.000543 
L 135.878893 147.443821 
L 132.137419 145.853106 
L 127.875237 144.305039 
L 123.907658 143.062098 
L 119.142253 141.775749 
L 114.76151 140.764819 
L 108.744621 139.624268 
L 103.809339 138.909917 
L 98.761337 138.406743 
L 93.945676 138.159711 
L 88.904282 138.152062 
L 83.471048 138.417297 
L 79.07077 138.816578 
L 72.45609 139.67735 
L 66.042589 140.764418 
L 54.666235 142.879195 
L 50.886552 143.920293 
L 49.320928 144.544755 
L 48.660358 144.864857 
L 46.055009 146.954908 
L 45.791196 147.435422 
L 45.603552 148.074857 
L 45.623324 148.911985 
L 45.881791 149.65362 
L 47.361839 151.388326 
L 49.125707 152.57413 
L 51.238218 153.600854 
L 53.982992 154.601686 
L 56.193756 155.226757 
L 59.875987 155.999046 
L 63.490665 156.478017 
L 65.993868 156.658761 
L 70.597368 156.708979 
L 88.060283 156.445939 
L 96.910765 156.287924 
L 103.459454 155.953938 
L 108.550065 155.487453 
L 113.54381 154.801582 
L 118.695111 153.843839 
L 134.243465 150.604459 
L 137.076895 150.312089 
L 139.030282 150.246097 
L 141.548113 150.381482 
L 143.600583 150.731065 
L 145.826393 151.425081 
L 147.538528 152.225878 
L 147.538528 152.225878 
" style="fill:none;stroke:#000000;stroke-linecap:square;stroke-opacity:0.7;stroke-width:1.2;"/>
   </g>
   <g id="line2d_4">
    <path clip-path="url(#p42183db0c7)" d="M 145.65836 110.155097 
L 140.905823 108.533228 
L 132.56391 105.928638 
L 122.900348 103.094915 
L 116.153092 101.350658 
L 111.379773 100.316525 
L 105.873487 99.363915 
L 100.281283 98.66341 
L 94.350444 98.186609 
L 86.16363 97.82026 
L 77.439906 97.575802 
L 73.247821 97.699204 
L 70.315883 97.977967 
L 67.669658 98.374546 
L 64.3312 99.063694 
L 61.594695 99.781393 
L 57.209998 101.233695 
L 54.763505 102.235576 
L 52.481639 103.338521 
L 50.296465 104.626042 
L 48.524525 105.98373 
L 47.621815 106.930958 
L 46.910675 108.142092 
L 46.760491 109.056618 
L 46.822686 109.464125 
L 47.056138 110.009734 
L 47.70069 110.735386 
L 48.579975 111.306853 
L 50.304647 111.977126 
L 52.151471 112.399188 
L 54.921477 112.740666 
L 58.829114 112.889665 
L 64.532362 112.79334 
L 68.891555 112.770059 
L 86.135557 113.133875 
L 95.026665 112.925371 
L 112.02081 112.236865 
L 120.831213 111.723761 
L 126.742781 111.150912 
L 132.238516 110.342786 
L 135.713977 109.646695 
L 139.562668 108.652929 
L 142.712608 107.604738 
L 145.37492 106.485442 
L 145.37492 106.485442 
" style="fill:none;stroke:#000000;stroke-linecap:square;stroke-opacity:0.7;stroke-width:1.2;"/>
   </g>
   <g id="line2d_5">
    <path clip-path="url(#p42183db0c7)" d="M 145.617148 72.265343 
L 144.281573 70.768837 
L 143.052168 69.662863 
L 141.524265 68.576292 
L 139.586742 67.544346 
L 137.630075 66.79103 
L 135.603506 66.233109 
L 132.895109 65.732079 
L 129.05981 65.299057 
L 116.66423 64.143142 
L 95.072196 61.66057 
L 87.670449 61.193677 
L 68.261394 60.169754 
L 64.217079 60.009625 
L 59.985214 60.194476 
L 56.818947 60.63511 
L 54.744785 61.066378 
L 51.594094 61.949543 
L 48.985116 62.939994 
L 47.306563 63.772733 
L 45.622948 64.93859 
L 45.006548 65.59103 
L 44.591943 66.348686 
L 44.509091 66.767294 
L 44.543629 67.215062 
L 44.719038 67.670261 
L 45.32665 68.396286 
L 46.088781 68.939665 
L 47.371011 69.564577 
L 48.905315 70.094801 
L 51.639732 70.745326 
L 56.184716 71.37738 
L 60.87175 71.676805 
L 65.503774 71.737837 
L 71.960877 71.594592 
L 85.083245 71.269667 
L 101.684418 71.177331 
L 133.378621 71.007207 
L 139.555201 70.689431 
L 145.314632 70.375196 
L 146.045673 70.456724 
L 146.045673 70.456724 
" style="fill:none;stroke:#000000;stroke-linecap:square;stroke-opacity:0.7;stroke-width:1.2;"/>
   </g>
   <g id="line2d_6">
    <path clip-path="url(#p42183db0c7)" d="M 278.575138 225.854788 
L 276.697318 225.119624 
L 273.405345 224.087852 
L 265.202996 221.860881 
L 256.973153 219.552663 
L 245.249674 216.195663 
L 240.669539 215.115747 
L 235.326362 214.115814 
L 229.959262 213.401173 
L 224.76401 212.975856 
L 219.572072 212.789052 
L 213.541443 212.820191 
L 206.946859 213.09273 
L 202.035495 213.469408 
L 197.963397 213.968941 
L 194.071929 214.703588 
L 192.100093 215.203818 
L 187.500994 216.791423 
L 184.817995 218.057332 
L 182.777521 219.255257 
L 181.332995 220.283593 
L 179.9215 221.524247 
L 178.552801 223.198526 
L 177.970035 224.339101 
L 177.690939 225.42178 
L 177.65826 225.885674 
L 177.965346 227.420029 
L 178.693582 228.57489 
L 179.536708 229.387838 
L 181.128881 230.406889 
L 182.793816 231.125779 
L 184.75387 231.717204 
L 187.658211 232.272301 
L 190.977362 232.597405 
L 195.484021 232.734877 
L 203.029878 232.894359 
L 210.375489 233.319767 
L 221.147235 233.902073 
L 228.83125 234.09125 
L 235.712574 234.020932 
L 241.13665 233.748775 
L 246.31758 233.261629 
L 250.759693 232.638677 
L 255.725781 231.691659 
L 259.203188 230.85312 
L 263.047409 229.732589 
L 266.947189 228.347518 
L 269.594706 227.231216 
L 272.757597 225.660436 
L 275.557659 223.99892 
L 278.384654 222.020501 
L 278.384654 222.020501 
" style="fill:none;stroke:#000000;stroke-linecap:square;stroke-opacity:0.7;stroke-width:1.2;"/>
   </g>
   <g id="line2d_7">
    <path clip-path="url(#p42183db0c7)" d="M 277.597437 188.493052 
L 275.712156 188.129714 
L 268.515134 186.398851 
L 263.487316 185.524801 
L 257.882181 184.80173 
L 245.586419 183.336876 
L 240.488562 182.475079 
L 223.534568 179.331571 
L 219.588054 178.961181 
L 217.35184 178.866118 
L 212.858949 178.92741 
L 207.010131 179.339564 
L 194.848681 180.387954 
L 190.815083 180.995549 
L 186.663636 181.855814 
L 183.551083 182.71057 
L 180.838059 183.684996 
L 179.204368 184.455064 
L 177.693909 185.448579 
L 177.129949 186.010176 
L 176.789609 186.548322 
L 176.66592 187.348112 
L 176.866911 187.893008 
L 177.633781 188.68429 
L 178.810877 189.352452 
L 180.382492 189.945315 
L 182.537392 190.514774 
L 184.639874 190.92107 
L 189.109958 191.504067 
L 193.722001 191.863657 
L 203.047276 192.273819 
L 209.272966 192.618122 
L 229.609818 194.020857 
L 234.960883 194.042961 
L 239.590005 193.802129 
L 243.26781 193.409341 
L 247.970447 192.6595 
L 253.703846 191.459469 
L 261.275162 189.578478 
L 269.234811 187.369209 
L 276.977163 185.201552 
L 277.736887 185.055605 
L 277.736887 185.055605 
" style="fill:none;stroke:#000000;stroke-linecap:square;stroke-opacity:0.7;stroke-width:1.2;"/>
   </g>
   <g id="line2d_8">
    <path clip-path="url(#p42183db0c7)" d="M 277.352747 151.999839 
L 276.114799 151.959476 
L 274.348105 151.541699 
L 272.31835 150.740572 
L 270.288293 149.744355 
L 265.091398 146.844327 
L 260.475869 144.302064 
L 256.675416 142.439572 
L 252.470991 140.690734 
L 248.894798 139.450672 
L 244.185979 138.114796 
L 239.404016 137.045263 
L 234.295916 136.171454 
L 228.535269 135.48039 
L 223.641403 135.122966 
L 218.596726 134.971108 
L 213.400029 135.048679 
L 208.640856 135.339562 
L 203.991406 135.845193 
L 199.417941 136.575254 
L 195.199699 137.459132 
L 190.534461 138.672614 
L 187.662963 139.560083 
L 183.524086 141.123964 
L 181.828609 141.932487 
L 180.291244 142.838815 
L 179.062354 143.827669 
L 178.422884 144.624961 
L 178.091036 145.531813 
L 178.138059 146.247212 
L 178.385465 146.828681 
L 178.724891 147.295035 
L 179.429483 147.954867 
L 181.351157 149.112249 
L 183.454655 149.985875 
L 186.400902 150.90442 
L 189.321781 151.609794 
L 193.945314 152.451257 
L 198.73693 153.047507 
L 202.696044 153.342191 
L 206.049989 153.432188 
L 216.665616 153.350779 
L 223.508692 153.427377 
L 231.437933 153.289346 
L 239.958242 152.898387 
L 247.665149 152.351595 
L 260.494183 151.195564 
L 268.704811 150.288343 
L 277.570415 149.122131 
L 277.570415 149.122131 
" style="fill:none;stroke:#000000;stroke-linecap:square;stroke-opacity:0.7;stroke-width:1.2;"/>
   </g>
   <g id="line2d_9">
    <path clip-path="url(#p42183db0c7)" d="M 279.090367 110.230193 
L 277.854277 109.313384 
L 276.676384 108.615452 
L 275.467989 108.027284 
L 273.035629 107.110346 
L 270.023942 106.289026 
L 266.420967 105.558994 
L 253.752342 103.247031 
L 230.569677 98.365242 
L 223.871254 97.286859 
L 216.863144 96.402244 
L 210.683772 95.870478 
L 205.618127 95.657549 
L 201.375333 95.689672 
L 199.547884 95.781418 
L 194.978807 96.28808 
L 191.830241 96.932703 
L 187.903823 98.137933 
L 184.188487 99.666774 
L 180.913259 101.301856 
L 178.620986 102.69819 
L 177.270018 103.808668 
L 176.964675 104.158598 
L 176.627352 104.724034 
L 176.525478 105.343629 
L 176.759106 105.945706 
L 177.179805 106.384689 
L 177.793679 106.793038 
L 178.291794 107.044629 
L 180.999972 107.959027 
L 183.782293 108.583026 
L 189.000702 109.444393 
L 199.12165 110.750635 
L 207.689789 111.985516 
L 211.505072 112.488084 
L 213.820983 112.5961 
L 217.657205 112.517769 
L 222.62838 112.187802 
L 232.077824 111.313085 
L 241.745328 110.45154 
L 246.693542 110.186199 
L 254.121403 110.098281 
L 267.646474 110.105388 
L 271.732527 109.81179 
L 273.391954 109.58976 
L 276.52229 108.896646 
L 278.035134 108.358556 
L 278.801161 108.006066 
L 278.801161 108.006066 
" style="fill:none;stroke:#000000;stroke-linecap:square;stroke-opacity:0.7;stroke-width:1.2;"/>
   </g>
   <g id="line2d_10">
    <path clip-path="url(#p42183db0c7)" d="M 279.331985 70.255682 
L 274.78387 68.292733 
L 266.898196 65.117855 
L 259.212411 62.305091 
L 253.135291 60.343013 
L 248.212046 58.966479 
L 243.572064 57.87253 
L 239.714175 57.130889 
L 235.637705 56.528244 
L 230.552502 56.055126 
L 225.946939 55.901092 
L 221.802233 55.979079 
L 216.973045 56.306218 
L 213.164458 56.721778 
L 207.0571 57.634778 
L 201.757504 58.650787 
L 196.504232 59.900834 
L 192.982494 60.995078 
L 190.731308 61.957179 
L 182.629834 66.097039 
L 180.885368 67.101457 
L 179.383596 68.250281 
L 178.936421 68.854882 
L 178.837373 69.253 
L 178.911195 69.571827 
L 179.092272 69.819301 
L 179.580604 70.156908 
L 180.787237 70.567196 
L 181.78813 70.758498 
L 184.279006 71.004978 
L 188.274476 71.084596 
L 192.565693 70.954127 
L 199.884743 70.455398 
L 212.092683 69.512012 
L 218.147353 69.346578 
L 238.194015 68.965163 
L 245.984511 68.568527 
L 251.757893 68.081476 
L 258.62327 67.286426 
L 271.778353 65.656511 
L 274.846941 65.467461 
L 277.108983 65.493611 
L 279.277564 65.779601 
L 279.277564 65.779601 
" style="fill:none;stroke:#000000;stroke-linecap:square;stroke-opacity:0.7;stroke-width:1.2;"/>
   </g>
   <g id="line2d_11">
    <path clip-path="url(#p42183db0c7)" d="M 409.989717 231.087074 
L 406.955901 229.335582 
L 403.637676 227.748412 
L 399.865843 226.273549 
L 395.234367 224.777156 
L 389.744223 223.30322 
L 383.004931 221.767131 
L 367.576347 218.569875 
L 361.011498 217.42201 
L 356.261042 216.810018 
L 353.064919 216.52861 
L 348.488404 216.32314 
L 342.703047 216.388491 
L 336.565919 216.748189 
L 328.215954 217.387976 
L 324.261184 217.934062 
L 321.884043 218.365537 
L 317.779513 219.313062 
L 312.909463 220.884482 
L 311.145575 221.650474 
L 309.937933 222.285073 
L 308.185267 223.53562 
L 307.399913 224.485647 
L 307.211711 224.892431 
L 307.105171 225.467129 
L 307.157362 225.908251 
L 307.666757 226.810346 
L 308.81009 227.705833 
L 310.146472 228.350563 
L 312.081998 228.992647 
L 314.444753 229.534755 
L 317.480502 230.002064 
L 321.089128 230.338161 
L 326.588712 230.544585 
L 341.504986 230.772412 
L 350.872218 230.977228 
L 359.081143 230.924115 
L 367.195796 230.64056 
L 377.79309 229.997778 
L 387.426628 229.441288 
L 394.40595 229.281609 
L 401.120437 229.367291 
L 409.7361 229.519505 
L 410.488924 229.467998 
L 410.488924 229.467998 
" style="fill:none;stroke:#000000;stroke-linecap:square;stroke-opacity:0.7;stroke-width:1.2;"/>
   </g>
   <g id="line2d_12">
    <path clip-path="url(#p42183db0c7)" d="M 410.395823 193.706603 
L 408.509227 191.755601 
L 407.096913 190.502767 
L 405.072787 188.96544 
L 402.308409 187.246966 
L 400.280052 186.201719 
L 397.005443 184.805367 
L 393.465413 183.594357 
L 389.032101 182.365534 
L 384.774855 181.373817 
L 378.683482 180.17072 
L 372.110838 179.137649 
L 367.43295 178.592284 
L 362.187048 178.192161 
L 357.296223 178.028295 
L 350.893047 178.100232 
L 344.637991 178.428321 
L 336.665436 179.103488 
L 329.9381 179.859198 
L 325.685927 180.494858 
L 321.1092 181.43462 
L 316.970192 182.561468 
L 313.328806 183.812026 
L 311.845121 184.426426 
L 309.569201 185.618144 
L 308.47669 186.499581 
L 308.088033 187.09212 
L 308.032469 187.645578 
L 308.103596 187.856974 
L 308.491843 188.336512 
L 309.312213 188.836053 
L 311.119176 189.437802 
L 313.546216 189.900131 
L 316.500429 190.233974 
L 320.926738 190.490544 
L 327.748335 190.594533 
L 338.490038 190.717807 
L 350.982626 191.016715 
L 359.162465 191.001688 
L 366.627053 190.809314 
L 373.771707 190.434412 
L 379.172817 189.993905 
L 386.595906 189.120494 
L 398.326916 187.560823 
L 401.315837 187.445405 
L 403.66787 187.587462 
L 404.616246 187.729767 
L 406.660569 188.275796 
L 408.15384 188.970976 
L 409.346546 189.808722 
L 410.170738 190.616443 
L 410.170738 190.616443 
" style="fill:none;stroke:#000000;stroke-linecap:square;stroke-opacity:0.7;stroke-width:1.2;"/>
   </g>
   <g id="line2d_13">
    <path clip-path="url(#p42183db0c7)" d="M 408.92584 146.289053 
L 407.306252 146.823481 
L 405.314045 147.246531 
L 403.044895 147.392119 
L 400.303195 147.191394 
L 397.744215 146.736898 
L 394.676547 145.96065 
L 390.225091 144.569709 
L 378.80582 140.850955 
L 374.427999 139.638006 
L 367.863137 138.085548 
L 361.894788 136.956592 
L 356.130333 136.174357 
L 351.589238 135.832992 
L 347.692659 135.785389 
L 343.626784 136.029014 
L 339.494364 136.600976 
L 332.014314 138.014749 
L 323.848979 139.687205 
L 318.199699 141.21354 
L 315.122399 142.331786 
L 312.989564 143.342704 
L 311.953993 143.962117 
L 310.335883 145.325959 
L 310.000077 145.763653 
L 309.52657 146.940706 
L 309.509469 147.355986 
L 309.779651 148.316837 
L 310.793002 149.535603 
L 311.81529 150.268434 
L 313.35565 151.065887 
L 316.199855 152.089981 
L 319.092133 152.812031 
L 321.534996 153.26325 
L 324.165386 153.629023 
L 330.555339 154.136361 
L 336.742127 154.299443 
L 340.247981 154.427687 
L 344.373332 154.969687 
L 348.295418 155.487422 
L 351.67531 155.728093 
L 356.604467 155.809993 
L 361.57691 155.625733 
L 365.107 155.337469 
L 369.273681 154.812765 
L 373.26599 154.10182 
L 377.634866 153.092663 
L 383.325056 151.506821 
L 393.464229 148.352184 
L 400.546588 146.20068 
L 404.935905 145.090164 
L 407.361818 144.693115 
L 408.866012 144.631685 
L 409.763802 144.733248 
L 409.763802 144.733248 
" style="fill:none;stroke:#000000;stroke-linecap:square;stroke-opacity:0.7;stroke-width:1.2;"/>
   </g>
   <g id="line2d_14">
    <path clip-path="url(#p42183db0c7)" d="M 410.756782 111.760926 
L 409.074482 112.07949 
L 408.446855 112.130837 
L 406.856599 112.112991 
L 404.653838 111.816619 
L 402.43098 111.301112 
L 398.780554 110.171779 
L 392.909872 108.004765 
L 383.713616 104.546049 
L 377.959354 102.662048 
L 372.973648 101.303471 
L 368.245281 100.269889 
L 363.34431 99.453434 
L 358.059989 98.836002 
L 352.155255 98.417377 
L 345.388089 98.211679 
L 339.499564 98.214313 
L 331.746143 98.442175 
L 327.360518 98.717839 
L 323.580721 99.11713 
L 320.576857 99.640071 
L 318.456164 100.18678 
L 314.156939 101.817951 
L 311.148975 103.332329 
L 309.95247 104.047681 
L 308.498195 105.080653 
L 307.55091 105.951944 
L 306.879049 106.840004 
L 306.518733 107.818051 
L 306.592631 108.773592 
L 307.721418 110.30821 
L 308.892862 111.112002 
L 310.132212 111.736864 
L 312.440075 112.608062 
L 313.091619 112.81049 
L 316.520499 113.675162 
L 318.989541 114.14582 
L 323.542399 114.778112 
L 327.958373 115.155529 
L 331.815967 115.313039 
L 336.557644 115.275783 
L 341.350936 114.919699 
L 344.597072 114.538662 
L 346.081321 114.674563 
L 352.612212 116.100189 
L 356.969141 116.749589 
L 361.180103 117.185952 
L 365.807953 117.46776 
L 369.743777 117.539205 
L 374.198085 117.409242 
L 378.905482 116.986285 
L 383.051683 116.346632 
L 387.405329 115.433678 
L 393.518857 113.878083 
L 402.12645 111.417478 
L 408.337486 109.446889 
L 411.067728 108.417505 
L 411.067728 108.417505 
" style="fill:none;stroke:#000000;stroke-linecap:square;stroke-opacity:0.7;stroke-width:1.2;"/>
   </g>
   <g id="line2d_15">
    <path clip-path="url(#p42183db0c7)" d="M 410.687435 74.067324 
L 407.045043 71.847487 
L 402.987145 69.750539 
L 398.000898 67.53064 
L 391.842866 65.118536 
L 384.880403 62.676336 
L 377.472713 60.359587 
L 371.854136 58.832413 
L 367.664815 57.85181 
L 362.069362 56.784016 
L 356.76702 56.051387 
L 352.187552 55.648561 
L 347.576178 55.460751 
L 342.988901 55.488402 
L 338.294506 55.735055 
L 334.238594 56.128652 
L 328.391443 57.025896 
L 325.256623 57.715624 
L 322.759571 58.425975 
L 320.597999 59.227302 
L 318.468434 60.30268 
L 316.843481 61.393902 
L 314.672445 63.198926 
L 313.54845 64.294826 
L 312.606897 65.373507 
L 311.692734 66.811722 
L 311.34316 67.922809 
L 311.330204 68.626219 
L 311.533706 69.363971 
L 311.884024 69.94295 
L 312.46832 70.543064 
L 313.690001 71.330383 
L 314.965539 71.87377 
L 317.476792 72.565255 
L 320.501741 73.039363 
L 322.8937 73.239561 
L 325.44891 73.324394 
L 330.006349 73.190687 
L 333.30558 72.858261 
L 336.365124 72.296675 
L 339.87631 71.409701 
L 341.304152 71.354082 
L 361.179568 70.938901 
L 372.171012 70.764046 
L 381.328386 70.875488 
L 400.178136 71.286963 
L 410.319104 71.210762 
L 410.319104 71.210762 
" style="fill:none;stroke:#000000;stroke-linecap:square;stroke-opacity:0.7;stroke-width:1.2;"/>
   </g>
   <g id="line2d_16">
    <path clip-path="url(#p42183db0c7)" d="M 541.416568 229.893388 
L 540.20673 229.077338 
L 538.78134 228.371412 
L 537.017271 227.712427 
L 534.686392 227.042759 
L 530.911216 226.226843 
L 525.525575 225.384781 
L 519.956823 224.746492 
L 510.305619 223.909143 
L 496.492229 222.889437 
L 490.592176 222.682422 
L 484.846907 222.755277 
L 476.130144 223.01625 
L 473.933958 222.723516 
L 473.455266 222.591224 
L 471.45411 221.706267 
L 469.838195 220.870221 
L 467.424124 219.988997 
L 466.077375 219.690468 
L 463.061801 219.376896 
L 462.147322 219.357306 
L 458.082854 219.593709 
L 454.54821 220.164057 
L 451.110252 221.031781 
L 448.68788 221.864045 
L 446.377619 222.916538 
L 444.728505 223.994797 
L 444.284362 224.414231 
L 443.786365 225.250493 
L 443.796856 225.725537 
L 443.974894 226.04707 
L 444.933803 226.645574 
L 445.479691 226.811971 
L 447.093994 227.069188 
L 449.288685 227.149811 
L 451.214548 227.090232 
L 464.529506 226.237814 
L 467.379031 226.301449 
L 472.781919 226.68281 
L 481.789105 227.683341 
L 494.130815 229.042246 
L 500.863534 229.558516 
L 507.711666 229.843263 
L 515.034201 229.899851 
L 521.641779 229.746312 
L 527.145296 229.432083 
L 531.228937 229.039813 
L 535.096911 228.475369 
L 538.105211 227.829416 
L 540.574432 227.076328 
L 541.487596 226.72347 
L 541.487596 226.72347 
" style="fill:none;stroke:#000000;stroke-linecap:square;stroke-opacity:0.7;stroke-width:1.2;"/>
   </g>
   <g id="line2d_17">
    <path clip-path="url(#p42183db0c7)" d="M 541.736202 189.344806 
L 540.323504 189.28317 
L 538.176793 188.891541 
L 523.694929 185.616398 
L 517.53599 184.647905 
L 509.618327 183.671329 
L 490.356996 181.57253 
L 484.308091 181.16089 
L 479.250677 181.061391 
L 474.42562 181.228651 
L 470.665922 181.566959 
L 466.964627 182.143357 
L 460.824456 183.520967 
L 452.509919 185.582276 
L 447.409912 187.051398 
L 445.079414 187.892802 
L 444.005845 188.470297 
L 443.85565 188.886111 
L 444.173586 189.054371 
L 444.879208 189.184165 
L 446.425422 189.260594 
L 450.294086 189.147266 
L 456.608014 188.694214 
L 466.903304 187.868665 
L 468.99759 187.808314 
L 471.522062 187.921299 
L 479.743507 188.685036 
L 485.595173 188.9181 
L 493.159089 188.988013 
L 521.629522 188.882758 
L 526.918517 188.506598 
L 531.438811 187.942016 
L 535.395146 187.195431 
L 538.34385 186.419982 
L 540.895502 185.509933 
L 541.566141 185.211856 
L 541.566141 185.211856 
" style="fill:none;stroke:#000000;stroke-linecap:square;stroke-opacity:0.7;stroke-width:1.2;"/>
   </g>
   <g id="line2d_18">
    <path clip-path="url(#p42183db0c7)" d="M 542.553998 150.339528 
L 540.39411 148.655622 
L 538.022214 147.11053 
L 535.159214 145.587826 
L 533.197793 144.709445 
L 529.536331 143.348856 
L 525.862673 142.283694 
L 522.34969 141.502251 
L 518.866113 140.927092 
L 513.637128 140.37332 
L 505.932129 139.952627 
L 499.10782 139.534751 
L 494.336566 139.055749 
L 484.602079 137.753787 
L 479.735801 137.201489 
L 475.357526 136.951578 
L 471.647845 137.024933 
L 466.941733 137.631849 
L 464.377491 138.262611 
L 461.443291 139.280201 
L 456.353574 141.617663 
L 454.703728 142.376413 
L 452.182949 143.392334 
L 449.303308 144.330999 
L 447.295277 144.881951 
L 437.569814 147.287473 
L 435.86863 147.969569 
L 435.580027 148.17648 
L 435.402427 148.487274 
L 435.598131 148.797193 
L 435.841813 148.939623 
L 437.780388 149.436603 
L 439.636349 149.669099 
L 443.424886 149.922244 
L 448.736831 150.042524 
L 453.869587 150.014403 
L 468.612203 149.782126 
L 471.328875 150.08598 
L 474.004061 150.929009 
L 476.197363 151.694608 
L 477.872319 152.141797 
L 481.500685 152.784301 
L 486.288238 153.205386 
L 491.106679 153.321697 
L 496.664455 153.180425 
L 502.734618 152.751284 
L 508.955526 152.0616 
L 516.992316 150.924774 
L 531.077115 148.675721 
L 542.674252 146.803334 
L 542.674252 146.803334 
" style="fill:none;stroke:#000000;stroke-linecap:square;stroke-opacity:0.7;stroke-width:1.2;"/>
   </g>
   <g id="line2d_19">
    <path clip-path="url(#p42183db0c7)" d="M 541.372636 111.31976 
L 539.007168 109.31723 
L 536.709177 107.666655 
L 533.985722 106.036198 
L 530.826973 104.470784 
L 527.835471 103.229552 
L 523.990992 101.893943 
L 519.534971 100.610608 
L 513.958488 99.251882 
L 505.392409 97.417467 
L 498.456338 96.129445 
L 493.028868 95.337696 
L 488.266283 94.860782 
L 484.694233 94.656089 
L 479.306819 94.607523 
L 475.103213 94.791098 
L 471.505886 95.114755 
L 467.542779 95.696485 
L 464.372691 96.415367 
L 462.304935 97.057281 
L 458.955406 98.386309 
L 455.509651 99.951868 
L 446.498071 104.297267 
L 443.545604 105.936554 
L 442.30592 106.773345 
L 441.279629 107.799806 
L 441.143052 108.250843 
L 441.182149 108.433174 
L 441.427181 108.728901 
L 442.226059 109.069033 
L 443.333673 109.257488 
L 445.329354 109.351211 
L 448.822662 109.210106 
L 453.134552 108.767078 
L 458.530036 107.941667 
L 466.889846 106.473298 
L 469.829183 106.23693 
L 473.989436 106.233973 
L 509.084399 107.247017 
L 515.628511 107.794455 
L 523.586882 108.730437 
L 531.774027 109.671225 
L 535.686304 109.9122 
L 538.233196 109.868746 
L 540.352508 109.550756 
L 541.369797 109.158756 
L 541.369797 109.158756 
" style="fill:none;stroke:#000000;stroke-linecap:square;stroke-opacity:0.7;stroke-width:1.2;"/>
   </g>
   <g id="line2d_20">
    <path clip-path="url(#p42183db0c7)" d="M 542.97442 73.84649 
L 541.354479 72.4117 
L 539.399241 70.947618 
L 536.568619 69.183638 
L 532.795458 67.225864 
L 529.509202 65.751409 
L 524.43367 63.756801 
L 519.079589 61.924224 
L 513.22671 60.165734 
L 505.444789 58.14525 
L 498.66462 56.62534 
L 491.805171 55.286138 
L 486.129092 54.387033 
L 481.505961 53.945737 
L 478.848601 53.90212 
L 476.4206 54.055774 
L 474.961792 54.258708 
L 473.526074 54.555136 
L 470.643296 55.511748 
L 470.035708 55.789904 
L 466.170023 58.50026 
L 463.266453 61.35504 
L 462.479569 61.945853 
L 459.899698 63.298329 
L 457.937117 64.013458 
L 455.103362 64.866467 
L 449.227385 66.623881 
L 447.298795 67.457726 
L 446.506494 68.05253 
L 446.359527 68.28661 
L 446.376636 68.697161 
L 446.621818 68.967457 
L 447.298188 69.310247 
L 448.718484 69.669209 
L 450.992408 69.939422 
L 453.743596 70.044924 
L 457.55782 69.955367 
L 462.175898 69.578381 
L 466.057196 69.069295 
L 472.935422 68.032607 
L 474.9215 68.080003 
L 476.6933 68.406509 
L 483.309088 69.997516 
L 488.75577 70.985836 
L 493.741569 71.63061 
L 496.607346 71.905782 
L 504.264246 72.374285 
L 512.594084 72.614273 
L 521.876648 72.645752 
L 527.743201 72.44218 
L 531.751646 72.141148 
L 535.843081 71.638506 
L 539.064925 71.050951 
L 542.554948 70.158634 
L 543.04893 70.007991 
L 543.04893 70.007991 
" style="fill:none;stroke:#000000;stroke-linecap:square;stroke-opacity:0.7;stroke-width:1.2;"/>
   </g>
   <g id="line2d_21">
    <path clip-path="url(#p42183db0c7)" d="M 673.216484 229.945435 
L 671.551207 229.807614 
L 667.22158 229.099414 
L 659.964899 227.951829 
L 652.597867 227.002707 
L 637.942373 225.415252 
L 626.062507 224.268134 
L 618.582942 223.793911 
L 604.04763 223.117571 
L 600.238366 222.795613 
L 597.704499 222.782534 
L 593.655643 223.064939 
L 589.958284 223.561436 
L 585.999193 224.303734 
L 582.068306 225.281906 
L 579.395099 226.161492 
L 577.446932 227.054125 
L 576.806046 227.482294 
L 576.236247 228.215977 
L 576.430895 228.830563 
L 577.127873 229.264992 
L 578.269545 229.6157 
L 580.131605 229.916254 
L 583.440089 230.115583 
L 586.443171 230.092829 
L 590.586953 229.836579 
L 594.820488 229.335136 
L 599.767005 228.470066 
L 604.948904 227.531098 
L 609.088782 227.120293 
L 613.156448 227.010299 
L 618.24619 227.113572 
L 625.353224 227.496983 
L 635.579303 228.312177 
L 647.252896 229.244545 
L 652.45756 229.446631 
L 657.510397 229.432715 
L 662.164607 229.197952 
L 666.690422 228.712137 
L 669.665524 228.203209 
L 672.461223 227.505518 
L 673.321754 227.217829 
L 673.321754 227.217829 
" style="fill:none;stroke:#000000;stroke-linecap:square;stroke-opacity:0.7;stroke-width:1.2;"/>
   </g>
   <g id="line2d_22">
    <path clip-path="url(#p42183db0c7)" d="M 674.493036 188.77441 
L 657.206584 183.671407 
L 649.158165 181.689873 
L 634.703983 178.408525 
L 625.768698 176.562939 
L 619.930441 175.546808 
L 614.348339 174.823891 
L 610.043126 174.518349 
L 606.647686 174.487714 
L 604.266904 174.59654 
L 599.088282 175.22577 
L 597.606514 175.500712 
L 593.014329 176.586335 
L 589.717981 177.55575 
L 585.193428 179.117471 
L 581.850967 180.453309 
L 578.330773 182.089385 
L 575.554798 183.686765 
L 574.027635 184.872174 
L 573.295505 185.748787 
L 573.044839 186.498461 
L 573.132224 186.961735 
L 573.45841 187.40078 
L 573.869414 187.698772 
L 574.846805 188.114959 
L 576.162464 188.430505 
L 578.829912 188.728713 
L 581.875071 188.801743 
L 585.158221 188.705414 
L 591.09701 188.277564 
L 597.877461 187.77606 
L 601.185543 187.778312 
L 603.979945 188.00015 
L 606.786095 188.393788 
L 615.015075 189.92162 
L 621.790407 191.104979 
L 627.899077 191.929328 
L 632.576701 192.347436 
L 637.197569 192.541583 
L 641.933145 192.498389 
L 647.064565 192.188312 
L 651.899683 191.665382 
L 656.232182 191.00663 
L 661.234061 189.997497 
L 664.989285 189.030508 
L 668.755351 187.832844 
L 673.002221 186.163876 
L 674.2299 185.674454 
L 674.2299 185.674454 
" style="fill:none;stroke:#000000;stroke-linecap:square;stroke-opacity:0.7;stroke-width:1.2;"/>
   </g>
   <g id="line2d_23">
    <path clip-path="url(#p42183db0c7)" d="M 672.517966 149.571412 
L 671.092406 149.18803 
L 666.125242 147.40502 
L 657.614962 144.412961 
L 650.362386 142.079295 
L 644.341468 140.339411 
L 638.551446 138.893436 
L 633.239421 137.803643 
L 628.573942 137.062592 
L 623.742482 136.547197 
L 619.647845 136.356679 
L 616.530976 136.400083 
L 612.94827 136.698496 
L 609.550356 137.265358 
L 600.41997 139.25156 
L 587.924596 141.204703 
L 584.246795 142.015459 
L 580.620394 143.060281 
L 577.952154 144.105507 
L 576.345035 144.969644 
L 575.203045 145.853943 
L 574.59121 146.64511 
L 574.363228 147.457704 
L 574.372491 147.675855 
L 574.638631 148.420279 
L 575.220334 149.100789 
L 576.399441 149.915944 
L 577.782072 150.563711 
L 579.233732 151.079306 
L 582.150254 151.839846 
L 585.359865 152.421943 
L 588.659934 152.838019 
L 593.800346 153.22124 
L 601.474535 153.462218 
L 608.129757 153.563957 
L 619.288041 153.442111 
L 638.078732 152.916583 
L 652.168378 152.430392 
L 658.241973 151.962031 
L 662.27543 151.441332 
L 665.9895 150.710059 
L 668.810445 149.880936 
L 670.854044 149.01999 
L 672.169825 148.267722 
L 672.944011 147.711826 
L 672.944011 147.711826 
" style="fill:none;stroke:#000000;stroke-linecap:square;stroke-opacity:0.7;stroke-width:1.2;"/>
   </g>
   <g id="line2d_24">
    <path clip-path="url(#p42183db0c7)" d="M 675.490909 109.907805 
L 673.333131 109.03097 
L 664.841688 105.93241 
L 656.069903 102.914118 
L 649.520648 100.905271 
L 643.075769 99.193167 
L 634.364889 97.147981 
L 626.747501 95.573091 
L 620.768717 94.567587 
L 615.511616 93.940136 
L 612.062055 93.696548 
L 607.904361 93.613907 
L 604.077982 93.770608 
L 600.712535 94.116522 
L 599.059665 94.364339 
L 594.741173 95.274416 
L 592.143114 96.012391 
L 587.075887 97.828723 
L 582.1275 99.918792 
L 577.622084 102.019063 
L 575.204705 103.33212 
L 571.641205 106.339873 
L 571.300069 107.003253 
L 571.120384 108.047293 
L 571.248472 108.727688 
L 571.35653 109.000585 
L 571.924429 109.865835 
L 573.265493 111.020658 
L 574.80906 111.898886 
L 575.701308 112.301908 
L 578.11517 113.163956 
L 580.471256 113.786636 
L 583.837279 114.412603 
L 587.048524 114.773893 
L 589.601649 114.908942 
L 593.365149 114.853454 
L 596.42037 114.561883 
L 599.924868 113.954443 
L 604.174813 113.170362 
L 608.17621 112.877267 
L 611.730063 112.900279 
L 621.082298 113.308525 
L 628.680937 113.511504 
L 633.583766 113.441069 
L 638.296287 113.168503 
L 643.122641 112.673934 
L 649.193969 111.804987 
L 656.129102 110.583779 
L 664.344716 108.886585 
L 675.133797 106.374712 
L 675.133797 106.374712 
" style="fill:none;stroke:#000000;stroke-linecap:square;stroke-opacity:0.7;stroke-width:1.2;"/>
   </g>
   <g id="line2d_25">
    <path clip-path="url(#p42183db0c7)" d="M 674.166572 71.22874 
L 672.522128 69.885636 
L 670.037985 68.367652 
L 666.984923 66.923968 
L 663.023967 65.413754 
L 659.093218 64.166971 
L 654.684384 62.981918 
L 649.817302 61.885937 
L 644.670936 60.947019 
L 639.935367 60.28699 
L 634.613199 59.802324 
L 629.958007 59.623978 
L 625.653858 59.675536 
L 621.354239 59.940638 
L 616.133287 60.552734 
L 611.199009 61.414615 
L 604.695605 62.687949 
L 603.927379 62.735827 
L 602.688723 62.63296 
L 601.153844 62.248984 
L 597.608342 61.446827 
L 594.128414 61.117471 
L 590.382583 61.174908 
L 586.827357 61.591814 
L 584.225438 62.141111 
L 582.069801 62.789825 
L 579.800227 63.738158 
L 577.821557 64.946173 
L 576.426953 66.338882 
L 575.943091 67.25927 
L 575.796865 68.027282 
L 575.956193 68.965627 
L 576.282841 69.570153 
L 577.230673 70.502292 
L 578.00764 70.978468 
L 579.553409 71.598568 
L 582.089481 72.096623 
L 584.334557 72.180743 
L 586.498122 72.002884 
L 589.421699 71.453182 
L 591.872106 71.013893 
L 594.661406 70.782829 
L 597.627198 70.696972 
L 621.913475 70.503612 
L 629.452485 70.688819 
L 636.160732 71.07728 
L 653.316675 72.255959 
L 657.270838 72.337685 
L 661.699881 72.212371 
L 664.408542 71.967606 
L 666.901259 71.576203 
L 669.180199 71.018142 
L 671.796936 70.010901 
L 673.375067 69.102608 
L 673.375067 69.102608 
" style="fill:none;stroke:#000000;stroke-linecap:square;stroke-opacity:0.7;stroke-width:1.2;"/>
   </g>
  </g>
 </g>
 <defs>
  <clipPath id="p42183db0c7">
   <rect height="262.08" width="694.08" x="12.96" y="12.96"/>
  </clipPath>
 </defs>
</svg>
