<?xml version="1.0" encoding="utf-8" standalone="no"?>
<!DOCTYPE svg PUBLIC "-//W3C//DTD SVG 1.1//EN"
  "http://www.w3.org/Graphics/SVG/1.1/DTD/svg11.dtd">
<!-- Created with matplotlib (https://matplotlib.org/) -->
<svg height="288pt" version="1.1" viewBox="0 0 720 288" width="720pt" xmlns="http://www.w3.org/2000/svg" xmlns:xlink="http://www.w3.org/1999/xlink">
 <metadata>
  <rdf:RDF xmlns:cc="http://creativecommons.org/ns#" xmlns:dc="http://purl.org/dc/elements/1.1/" xmlns:rdf="http://www.w3.org/1999/02/22-rdf-syntax-ns#">
   <cc:Work>
    <dc:type rdf:resource="http://purl.org/dc/dcmitype/StillImage"/>
    <dc:date>2021-04-26T15:45:22.736139</dc:date>
    <dc:format>image/svg+xml</dc:format>
    <dc:creator>
     <cc:Agent>
      <dc:title>Matplotlib v3.3.4, https://matplotlib.org/</dc:title>
     </cc:Agent>
    </dc:creator>
   </cc:Work>
  </rdf:RDF>
 </metadata>
 <defs>
  <style type="text/css">*{stroke-linecap:butt;stroke-linejoin:round;}</style>
 </defs>
 <g id="figure_1">
  <g id="patch_1">
   <path d="M 0 288 
L 720 288 
L 720 0 
L 0 0 
z
" style="fill:#ffffff;"/>
  </g>
  <g id="axes_1">
   <g id="line2d_1">
    <path clip-path="url(#p123f7c812b)" d="M 101.665111 230.781173 
L 98.403882 229.904049 
L 93.86442 228.900932 
L 88.844791 227.98785 
L 83.59844 227.247168 
L 79.056072 226.818928 
L 74.825243 226.635994 
L 70.335313 226.674661 
L 65.595473 226.935285 
L 60.468598 227.43014 
L 56.089042 228.054198 
L 52.405121 228.803078 
L 49.614364 229.602127 
L 47.405452 230.495111 
L 45.892592 231.398673 
L 45.226616 232.052556 
L 45.068209 232.507686 
L 45.198521 232.755604 
L 45.568965 232.940447 
L 46.242919 233.047903 
L 47.922981 233.037767 
L 51.488756 232.71791 
L 59.846388 231.686042 
L 73.680497 229.968494 
L 78.068234 229.624918 
L 82.318418 229.494441 
L 87.346335 229.580278 
L 93.444646 229.939269 
L 100.30258 230.5795 
L 101.650113 230.730333 
L 101.650113 230.730333 
" style="fill:none;stroke:#000000;stroke-linecap:square;stroke-opacity:0.7;stroke-width:1.2;"/>
   </g>
   <g id="line2d_2">
    <path clip-path="url(#p123f7c812b)" d="M 101.84773 211.974857 
L 98.968676 210.94278 
L 94.847473 209.724298 
L 89.961911 208.539439 
L 85.196057 207.61357 
L 80.500572 206.919167 
L 75.816116 206.445468 
L 71.240319 206.194841 
L 67.131069 206.161764 
L 63.571953 206.310559 
L 59.873854 206.683917 
L 56.759084 207.208039 
L 53.599517 207.974845 
L 50.852513 208.881381 
L 48.7368 209.788179 
L 46.780645 210.890297 
L 45.680801 211.740395 
L 45.02823 212.504092 
L 44.829084 213.092875 
L 44.896862 213.397316 
L 45.198332 213.714901 
L 45.893462 213.993364 
L 47.250286 214.182301 
L 49.790711 214.200912 
L 53.622969 213.958076 
L 58.932657 213.376299 
L 65.644117 212.389518 
L 74.657815 211.058728 
L 79.077795 210.650784 
L 83.060486 210.51011 
L 87.671879 210.589792 
L 92.992329 210.930219 
L 98.972723 211.569578 
L 101.843506 211.968654 
L 101.843506 211.968654 
" style="fill:none;stroke:#000000;stroke-linecap:square;stroke-opacity:0.7;stroke-width:1.2;"/>
   </g>
   <g id="line2d_3">
    <path clip-path="url(#p123f7c812b)" d="M 101.948032 193.079779 
L 99.176663 192.130108 
L 95.139417 191.002255 
L 90.402649 189.927742 
L 85.519889 189.059199 
L 81.211418 188.495757 
L 77.09445 188.145744 
L 72.527961 187.975845 
L 67.753125 188.031236 
L 63.44101 188.279572 
L 59.092471 188.7375 
L 55.183237 189.367686 
L 52.455302 189.970623 
L 49.491919 190.850413 
L 47.382975 191.716708 
L 46.07305 192.465149 
L 45.278409 193.141602 
L 44.936727 193.734869 
L 44.989716 194.17444 
L 45.173156 194.397768 
L 45.538354 194.626391 
L 46.674943 194.95061 
L 48.801466 195.156082 
L 52.026799 195.169381 
L 56.346351 194.958287 
L 61.612108 194.4852 
L 68.89185 193.567894 
L 77.523345 192.486255 
L 81.878032 192.157345 
L 86.137228 192.048195 
L 90.798481 192.140905 
L 96.46586 192.491701 
L 101.936244 193.043866 
L 101.936244 193.043866 
" style="fill:none;stroke:#000000;stroke-linecap:square;stroke-opacity:0.7;stroke-width:1.2;"/>
   </g>
   <g id="line2d_4">
    <path clip-path="url(#p123f7c812b)" d="M 101.465607 173.247557 
L 97.846341 172.411288 
L 91.318259 171.144254 
L 84.151668 169.977746 
L 79.174365 169.373454 
L 75.29859 169.1062 
L 71.128933 169.062855 
L 66.408346 169.279013 
L 61.492952 169.715956 
L 56.313915 170.378044 
L 52.498494 171.063227 
L 49.615143 171.792477 
L 47.509548 172.554485 
L 46.008938 173.362693 
L 45.164683 174.098652 
L 44.827367 174.681627 
L 44.795028 175.153197 
L 45.002992 175.576782 
L 45.490228 175.96983 
L 46.246771 176.293784 
L 47.454561 176.582218 
L 49.517178 176.822189 
L 52.556787 176.928793 
L 56.962307 176.833277 
L 62.358822 176.474768 
L 69.469141 175.738547 
L 84.363701 174.083959 
L 91.559822 173.564296 
L 99.531956 173.206569 
L 101.45427 173.14821 
L 101.45427 173.14821 
" style="fill:none;stroke:#000000;stroke-linecap:square;stroke-opacity:0.7;stroke-width:1.2;"/>
   </g>
   <g id="line2d_5">
    <path clip-path="url(#p123f7c812b)" d="M 101.687654 154.353413 
L 97.619434 153.461048 
L 90.928986 152.21986 
L 84.327893 151.202968 
L 79.378654 150.634769 
L 74.624902 150.318381 
L 70.161675 150.235119 
L 64.786146 150.358861 
L 59.817723 150.676043 
L 55.930523 151.111909 
L 52.417123 151.739355 
L 50.035268 152.371389 
L 47.965542 153.153544 
L 46.606591 153.883255 
L 45.63441 154.643878 
L 45.19169 155.187444 
L 44.956037 155.871134 
L 45.101454 156.43373 
L 45.456094 156.822135 
L 46.264881 157.271414 
L 47.45849 157.642541 
L 49.706997 158.031421 
L 52.772772 158.290432 
L 56.151114 158.373128 
L 60.227305 158.254836 
L 64.636116 157.896605 
L 70.356356 157.172096 
L 84.305308 155.255558 
L 89.941342 154.755938 
L 96.106646 154.420615 
L 101.682459 154.286775 
L 101.682459 154.286775 
" style="fill:none;stroke:#000000;stroke-linecap:square;stroke-opacity:0.7;stroke-width:1.2;"/>
   </g>
   <g id="line2d_6">
    <path clip-path="url(#p123f7c812b)" d="M 101.955859 135.84246 
L 97.682936 134.753855 
L 91.80323 133.501373 
L 86.46613 132.571023 
L 80.924812 131.842552 
L 76.341578 131.456362 
L 71.033252 131.252999 
L 65.601695 131.282936 
L 60.852469 131.514422 
L 56.691949 131.925565 
L 52.859299 132.554861 
L 50.045856 133.255623 
L 48.038224 133.970868 
L 46.716343 134.632922 
L 45.688778 135.419197 
L 45.276136 136.042867 
L 45.237573 136.539719 
L 45.417421 136.905564 
L 45.875308 137.296793 
L 46.625455 137.648935 
L 48.303405 138.086345 
L 50.652046 138.416605 
L 54.321386 138.669283 
L 58.977759 138.737364 
L 64.141344 138.558955 
L 70.028625 138.092411 
L 80.807397 136.915286 
L 87.368249 136.326986 
L 93.839603 135.968302 
L 101.096154 135.803616 
L 101.95456 135.798298 
L 101.95456 135.798298 
" style="fill:none;stroke:#000000;stroke-linecap:square;stroke-opacity:0.7;stroke-width:1.2;"/>
   </g>
   <g id="line2d_7">
    <path clip-path="url(#p123f7c812b)" d="M 101.778927 116.308322 
L 98.516523 115.459666 
L 93.554969 114.397758 
L 87.983415 113.432129 
L 83.110741 112.77831 
L 78.301109 112.332762 
L 73.325874 112.099388 
L 67.906627 112.09156 
L 63.052332 112.291379 
L 58.743237 112.65742 
L 54.647322 113.220456 
L 51.505879 113.849332 
L 49.083008 114.511381 
L 47.144764 115.231523 
L 45.981493 115.823672 
L 45.129577 116.443273 
L 44.618547 117.098623 
L 44.509091 117.532188 
L 44.623717 118.009291 
L 45.046345 118.498156 
L 45.930028 119.011478 
L 47.523424 119.532196 
L 49.833842 119.968726 
L 52.883097 120.287408 
L 56.787529 120.446332 
L 60.810751 120.388332 
L 65.655585 120.075003 
L 70.844106 119.526495 
L 93.712222 116.826325 
L 101.773704 116.283774 
L 101.773704 116.283774 
" style="fill:none;stroke:#000000;stroke-linecap:square;stroke-opacity:0.7;stroke-width:1.2;"/>
   </g>
   <g id="line2d_8">
    <path clip-path="url(#p123f7c812b)" d="M 101.907689 97.474459 
L 97.20572 96.359792 
L 90.318763 94.972117 
L 83.958682 93.918621 
L 79.163162 93.321869 
L 74.124486 92.932435 
L 69.436064 92.795606 
L 64.760231 92.871414 
L 60.658724 93.130323 
L 56.899922 93.555094 
L 53.096206 94.212547 
L 50.127054 94.94915 
L 47.889662 95.726472 
L 46.513828 96.401254 
L 45.615082 97.054109 
L 45.231745 97.499396 
L 45.027502 97.972088 
L 45.089053 98.588567 
L 45.36167 99.005937 
L 45.967546 99.502665 
L 46.775887 99.927407 
L 48.318103 100.470766 
L 50.423483 100.961573 
L 53.243926 101.386891 
L 56.213706 101.649686 
L 60.14016 101.767787 
L 64.233915 101.650809 
L 69.255958 101.252033 
L 75.388861 100.528417 
L 94.353503 98.124475 
L 101.906328 97.441821 
L 101.906328 97.441821 
" style="fill:none;stroke:#000000;stroke-linecap:square;stroke-opacity:0.7;stroke-width:1.2;"/>
   </g>
   <g id="line2d_9">
    <path clip-path="url(#p123f7c812b)" d="M 102.043696 78.652393 
L 97.294801 77.583279 
L 90.407102 76.246914 
L 84.299064 75.260426 
L 78.840683 74.603746 
L 74.171159 74.262437 
L 68.871005 74.121211 
L 63.671785 74.216442 
L 59.053746 74.512704 
L 55.492884 74.916031 
L 52.177106 75.485759 
L 49.804442 76.07092 
L 47.869925 76.741144 
L 46.631685 77.351905 
L 45.717821 78.041442 
L 45.384519 78.470138 
L 45.218029 79.009583 
L 45.368414 79.583458 
L 45.712456 80.000436 
L 46.332345 80.44838 
L 47.224165 80.885775 
L 48.91415 81.461586 
L 51.725985 82.105548 
L 54.933557 82.59 
L 58.749702 82.922212 
L 62.727435 83.020765 
L 66.884108 82.889404 
L 72.05732 82.471697 
L 78.027507 81.743513 
L 99.255207 78.886787 
L 102.038754 78.586236 
L 102.038754 78.586236 
" style="fill:none;stroke:#000000;stroke-linecap:square;stroke-opacity:0.7;stroke-width:1.2;"/>
   </g>
   <g id="line2d_10">
    <path clip-path="url(#p123f7c812b)" d="M 101.959789 59.452621 
L 96.694151 58.343779 
L 89.945929 57.135869 
L 83.82574 56.239109 
L 78.802441 55.701577 
L 73.952581 55.402227 
L 68.864797 55.314708 
L 63.383081 55.446238 
L 58.334677 55.787307 
L 54.168598 56.282594 
L 50.696575 56.924842 
L 48.385268 57.558046 
L 46.606283 58.291516 
L 45.745701 58.851783 
L 45.311567 59.313188 
L 45.08889 59.860113 
L 45.122237 60.279505 
L 45.396559 60.788335 
L 45.887642 61.264137 
L 46.600051 61.73293 
L 48.396742 62.542867 
L 50.674171 63.265238 
L 53.483548 63.923899 
L 56.586965 64.43904 
L 59.962576 64.767232 
L 63.523769 64.85691 
L 66.870447 64.727687 
L 71.345119 64.309568 
L 77.031678 63.513855 
L 89.929107 61.357044 
L 101.951303 59.392552 
L 101.951303 59.392552 
" style="fill:none;stroke:#000000;stroke-linecap:square;stroke-opacity:0.7;stroke-width:1.2;"/>
   </g>
   <g id="line2d_11">
    <path clip-path="url(#p123f7c812b)" d="M 165.334983 230.665619 
L 162.097502 229.888658 
L 156.823948 228.847401 
L 150.627542 227.864313 
L 145.375582 227.238205 
L 140.260303 226.847747 
L 135.248613 226.69447 
L 129.920795 226.764384 
L 124.728561 227.069841 
L 120.303987 227.579417 
L 117.245496 228.127753 
L 114.20507 228.908552 
L 112.004021 229.700238 
L 110.491478 230.435086 
L 109.549141 231.048663 
L 108.785254 231.831836 
L 108.672386 232.292196 
L 108.862337 232.567601 
L 109.347898 232.766817 
L 110.440867 232.879814 
L 112.73113 232.795454 
L 117.746457 232.297299 
L 139.710657 229.896243 
L 144.860111 229.631682 
L 149.541422 229.591856 
L 155.260365 229.772339 
L 161.518989 230.20484 
L 165.321001 230.575294 
L 165.321001 230.575294 
" style="fill:none;stroke:#000000;stroke-linecap:square;stroke-opacity:0.7;stroke-width:1.2;"/>
   </g>
   <g id="line2d_12">
    <path clip-path="url(#p123f7c812b)" d="M 165.756124 212.427076 
L 163.142184 211.461013 
L 159.712199 210.416024 
L 155.064208 209.25768 
L 150.334719 208.326327 
L 145.455928 207.612477 
L 140.793698 207.166228 
L 135.866312 206.941439 
L 130.938195 206.962748 
L 126.31858 207.219079 
L 122.568469 207.627337 
L 118.830529 208.26474 
L 115.955102 208.968127 
L 113.314158 209.8579 
L 111.414251 210.736596 
L 110.262282 211.454371 
L 109.412257 212.206963 
L 109.027999 212.862871 
L 109.046996 213.243177 
L 109.329497 213.551018 
L 109.755219 213.730438 
L 110.862182 213.895646 
L 113.110586 213.880665 
L 116.983619 213.572352 
L 125.908426 212.581862 
L 138.755203 211.193265 
L 143.811108 210.870097 
L 148.241153 210.814265 
L 152.774293 210.984775 
L 158.045013 211.415559 
L 164.233148 212.16977 
L 165.751643 212.391141 
L 165.751643 212.391141 
" style="fill:none;stroke:#000000;stroke-linecap:square;stroke-opacity:0.7;stroke-width:1.2;"/>
   </g>
   <g id="line2d_13">
    <path clip-path="url(#p123f7c812b)" d="M 165.430551 192.622867 
L 161.35759 191.72082 
L 155.747145 190.702306 
L 149.843852 189.83496 
L 143.761662 189.167371 
L 138.431869 188.800927 
L 132.938628 188.653421 
L 127.740931 188.750462 
L 123.643828 189.032773 
L 119.792538 189.513959 
L 116.540182 190.130045 
L 113.726633 190.876027 
L 111.335179 191.758508 
L 109.723554 192.619396 
L 109.075227 193.131369 
L 108.641127 193.741378 
L 108.624965 194.168452 
L 108.863477 194.500342 
L 109.484782 194.831785 
L 110.354383 195.059205 
L 112.144754 195.276855 
L 115.227748 195.372631 
L 119.089994 195.274176 
L 123.613746 194.953669 
L 128.90234 194.34077 
L 144.880631 192.218735 
L 149.174997 191.998756 
L 154.406768 191.974916 
L 159.738882 192.169477 
L 165.432705 192.585334 
L 165.432705 192.585334 
" style="fill:none;stroke:#000000;stroke-linecap:square;stroke-opacity:0.7;stroke-width:1.2;"/>
   </g>
   <g id="line2d_14">
    <path clip-path="url(#p123f7c812b)" d="M 165.558742 173.913995 
L 161.779216 172.874479 
L 155.866723 171.47305 
L 149.781478 170.252061 
L 144.947384 169.480404 
L 140.933134 169.026662 
L 136.651485 168.77057 
L 132.316362 168.749287 
L 127.649414 168.960621 
L 123.287615 169.359016 
L 119.354942 169.905485 
L 115.940477 170.58655 
L 113.208074 171.367972 
L 111.310527 172.145714 
L 110.005704 172.915097 
L 109.139402 173.700303 
L 108.72812 174.450878 
L 108.73893 175.012742 
L 109.003859 175.43444 
L 109.518119 175.801671 
L 110.395973 176.138919 
L 112.424533 176.51506 
L 114.936278 176.70946 
L 118.946873 176.774558 
L 124.343283 176.603233 
L 130.180773 176.178703 
L 138.950424 175.270072 
L 147.046655 174.490063 
L 153.550248 174.095451 
L 160.443429 173.896739 
L 165.554918 173.872406 
L 165.554918 173.872406 
" style="fill:none;stroke:#000000;stroke-linecap:square;stroke-opacity:0.7;stroke-width:1.2;"/>
   </g>
   <g id="line2d_15">
    <path clip-path="url(#p123f7c812b)" d="M 165.765574 155.159763 
L 162.296851 154.152025 
L 157.667952 153.025887 
L 152.204294 151.918371 
L 146.782476 151.046045 
L 141.665687 150.463383 
L 136.860651 150.15655 
L 132.295152 150.081006 
L 127.716897 150.223529 
L 123.509018 150.575627 
L 119.908742 151.076088 
L 116.288046 151.807325 
L 113.215182 152.677657 
L 111.257609 153.432501 
L 109.8169 154.198238 
L 109.089992 154.767514 
L 108.727922 155.25277 
L 108.66784 155.750864 
L 108.830846 156.03973 
L 109.327696 156.392973 
L 110.458485 156.765649 
L 112.188447 157.044876 
L 114.918536 157.246081 
L 118.87177 157.316875 
L 123.802568 157.186276 
L 128.49863 156.860929 
L 134.934881 156.170797 
L 144.424728 155.122069 
L 149.414793 154.8163 
L 154.79845 154.729824 
L 160.890446 154.866249 
L 165.758806 155.111443 
L 165.758806 155.111443 
" style="fill:none;stroke:#000000;stroke-linecap:square;stroke-opacity:0.7;stroke-width:1.2;"/>
   </g>
   <g id="line2d_16">
    <path clip-path="url(#p123f7c812b)" d="M 165.636326 135.675019 
L 161.545053 134.624149 
L 155.588409 133.341578 
L 149.621603 132.289733 
L 144.064438 131.555203 
L 139.240358 131.162 
L 134.647344 131.016867 
L 129.792668 131.086834 
L 125.198615 131.34997 
L 120.97019 131.781607 
L 117.361723 132.345632 
L 115.008461 132.857343 
L 112.566672 133.579508 
L 110.765342 134.329491 
L 109.350923 135.217302 
L 108.839056 135.745548 
L 108.60446 136.201043 
L 108.590645 136.653783 
L 108.763688 137.002875 
L 109.221075 137.402631 
L 110.299548 137.879406 
L 111.984125 138.280792 
L 114.300877 138.589784 
L 118.223379 138.832336 
L 122.847067 138.85867 
L 127.914683 138.637455 
L 133.526167 138.150112 
L 143.953042 136.942068 
L 150.598734 136.286778 
L 156.780354 135.886311 
L 163.389766 135.67292 
L 165.640199 135.648023 
L 165.640199 135.648023 
" style="fill:none;stroke:#000000;stroke-linecap:square;stroke-opacity:0.7;stroke-width:1.2;"/>
   </g>
   <g id="line2d_17">
    <path clip-path="url(#p123f7c812b)" d="M 165.268879 116.032971 
L 159.674897 115.090724 
L 151.708809 113.959383 
L 144.811096 113.18212 
L 138.996495 112.750168 
L 133.404769 112.574169 
L 127.963706 112.620457 
L 123.432492 112.835015 
L 118.762039 113.284461 
L 115.297367 113.844287 
L 113.285874 114.30997 
L 111.130815 115.009314 
L 109.761809 115.66928 
L 109.074875 116.158265 
L 108.5914 116.720396 
L 108.43056 117.343033 
L 108.565251 117.774627 
L 108.932654 118.20882 
L 109.616438 118.664086 
L 110.902863 119.191212 
L 112.96675 119.719199 
L 116.051114 120.19832 
L 119.48062 120.490911 
L 123.116736 120.599415 
L 127.665703 120.486888 
L 132.788095 120.096966 
L 138.912124 119.3903 
L 165.261179 115.967203 
L 165.261179 115.967203 
" style="fill:none;stroke:#000000;stroke-linecap:square;stroke-opacity:0.7;stroke-width:1.2;"/>
   </g>
   <g id="line2d_18">
    <path clip-path="url(#p123f7c812b)" d="M 165.410923 97.184514 
L 159.941321 96.240178 
L 152.052359 95.090282 
L 145.771961 94.363376 
L 140.334165 93.94119 
L 135.117209 93.766113 
L 129.765321 93.805261 
L 123.601222 94.089287 
L 119.05225 94.495188 
L 115.45859 95.010321 
L 112.77761 95.598989 
L 111.016073 96.174927 
L 109.624219 96.890958 
L 108.995754 97.484607 
L 108.815369 97.887376 
L 108.859343 98.354156 
L 109.09081 98.710099 
L 109.737117 99.201143 
L 110.551704 99.579864 
L 111.814204 99.982715 
L 114.521934 100.532388 
L 117.3863 100.887218 
L 121.659254 101.165751 
L 126.006071 101.213548 
L 130.730415 101.036039 
L 136.209507 100.588128 
L 143.261943 99.758017 
L 159.856502 97.737393 
L 165.415523 97.153469 
L 165.415523 97.153469 
" style="fill:none;stroke:#000000;stroke-linecap:square;stroke-opacity:0.7;stroke-width:1.2;"/>
   </g>
   <g id="line2d_19">
    <path clip-path="url(#p123f7c812b)" d="M 165.657756 78.439261 
L 160.742664 77.41449 
L 154.052213 76.238433 
L 147.361502 75.282845 
L 141.932022 74.723141 
L 137.282301 74.441456 
L 132.517291 74.343333 
L 127.108557 74.45 
L 122.383434 74.758458 
L 118.773517 75.178438 
L 115.789271 75.699365 
L 112.974539 76.415916 
L 111.007702 77.150724 
L 109.811127 77.804922 
L 109.052471 78.455086 
L 108.694997 79.123228 
L 108.689365 79.508124 
L 108.937901 80.033007 
L 109.392425 80.469862 
L 110.088972 80.90268 
L 111.447438 81.481304 
L 113.911708 82.195082 
L 117.209838 82.843924 
L 120.662813 83.280628 
L 124.434215 83.509846 
L 128.578547 83.492003 
L 132.795404 83.245009 
L 137.992344 82.712038 
L 144.248011 81.826171 
L 165.651577 78.38877 
L 165.651577 78.38877 
" style="fill:none;stroke:#000000;stroke-linecap:square;stroke-opacity:0.7;stroke-width:1.2;"/>
   </g>
   <g id="line2d_20">
    <path clip-path="url(#p123f7c812b)" d="M 165.357052 58.88534 
L 158.321789 57.779748 
L 148.666173 56.452987 
L 142.646669 55.813456 
L 137.857287 55.505663 
L 132.665008 55.402798 
L 127.352442 55.518773 
L 122.180643 55.851061 
L 118.130829 56.310457 
L 114.977994 56.849161 
L 112.231416 57.535703 
L 110.248629 58.287816 
L 109.049142 59.031503 
L 108.485427 59.718136 
L 108.367277 60.174051 
L 108.500842 60.767059 
L 108.866322 61.273978 
L 109.598047 61.873358 
L 110.98916 62.624038 
L 112.852007 63.338959 
L 115.47567 64.079748 
L 118.282017 64.650686 
L 121.441585 65.065197 
L 124.515721 65.246274 
L 127.931546 65.207243 
L 131.694013 64.920576 
L 136.018872 64.362776 
L 142.326394 63.285881 
L 160.087128 59.857624 
L 165.371485 58.856916 
L 165.371485 58.856916 
" style="fill:none;stroke:#000000;stroke-linecap:square;stroke-opacity:0.7;stroke-width:1.2;"/>
   </g>
   <g id="line2d_21">
    <path clip-path="url(#p123f7c812b)" d="M 229.027047 230.66918 
L 225.644593 229.828838 
L 219.665385 228.595783 
L 213.419588 227.524593 
L 207.837213 226.797568 
L 203.278994 226.443068 
L 198.854699 226.337137 
L 193.901714 226.461994 
L 188.575721 226.840495 
L 184.319308 227.353042 
L 180.703902 228.010974 
L 177.906006 228.747485 
L 176.069704 229.406312 
L 174.607524 230.094439 
L 173.302985 230.931905 
L 172.553453 231.660818 
L 172.313607 232.202503 
L 172.390113 232.446386 
L 172.703269 232.642935 
L 173.478929 232.74941 
L 174.858268 232.682958 
L 177.959181 232.273502 
L 190.133963 230.50216 
L 195.482894 229.991179 
L 201.135859 229.668564 
L 207.064194 229.544466 
L 213.747044 229.643898 
L 221.04413 229.986856 
L 229.020567 230.585045 
L 229.020567 230.585045 
" style="fill:none;stroke:#000000;stroke-linecap:square;stroke-opacity:0.7;stroke-width:1.2;"/>
   </g>
   <g id="line2d_22">
    <path clip-path="url(#p123f7c812b)" d="M 229.060278 211.589049 
L 225.639876 210.751778 
L 220.378302 209.682633 
L 214.191883 208.661825 
L 208.880878 207.998693 
L 203.497821 207.565336 
L 198.074667 207.381208 
L 192.768684 207.42752 
L 187.722475 207.702235 
L 183.954158 208.112412 
L 180.427949 208.727655 
L 177.525488 209.47725 
L 175.349695 210.260455 
L 173.604799 211.128921 
L 172.545795 211.891462 
L 172.013039 212.543835 
L 171.922872 212.973706 
L 172.068011 213.275193 
L 172.320009 213.464545 
L 172.871603 213.660402 
L 173.8043 213.787617 
L 175.472976 213.79452 
L 178.711769 213.523381 
L 186.663652 212.503178 
L 192.630147 211.864296 
L 198.236973 211.488558 
L 205.262661 211.255844 
L 214.13618 211.190844 
L 223.674228 211.340102 
L 229.048032 211.523064 
L 229.048032 211.523064 
" style="fill:none;stroke:#000000;stroke-linecap:square;stroke-opacity:0.7;stroke-width:1.2;"/>
   </g>
   <g id="line2d_23">
    <path clip-path="url(#p123f7c812b)" d="M 229.156031 192.734342 
L 225.284607 191.837357 
L 219.226735 190.662156 
L 213.333716 189.735726 
L 207.36041 189.025647 
L 201.831602 188.595225 
L 196.710067 188.402895 
L 191.949519 188.424116 
L 187.564813 188.66746 
L 183.939329 189.092094 
L 180.895107 189.658966 
L 178.67685 190.234561 
L 176.256024 191.092667 
L 174.437656 192.012377 
L 173.571328 192.634455 
L 173.014612 193.229137 
L 172.782509 193.83188 
L 172.861731 194.155267 
L 173.13898 194.441634 
L 173.763271 194.709956 
L 174.731464 194.883171 
L 176.396078 194.961545 
L 179.575714 194.858107 
L 187.169386 194.31396 
L 203.816715 193.147286 
L 211.916849 192.781099 
L 219.922003 192.640394 
L 228.594057 192.709794 
L 229.159155 192.721892 
L 229.159155 192.721892 
" style="fill:none;stroke:#000000;stroke-linecap:square;stroke-opacity:0.7;stroke-width:1.2;"/>
   </g>
   <g id="line2d_24">
    <path clip-path="url(#p123f7c812b)" d="M 229.357257 174.023026 
L 224.818273 172.91021 
L 218.490617 171.583966 
L 212.116134 170.479517 
L 206.650241 169.761708 
L 201.449049 169.314956 
L 195.998964 169.096149 
L 191.211891 169.124113 
L 187.386245 169.327921 
L 183.219094 169.787914 
L 179.736199 170.426975 
L 176.861892 171.215923 
L 175.00498 171.936941 
L 173.719261 172.620708 
L 172.758008 173.364151 
L 172.366014 173.857895 
L 172.19732 174.4153 
L 172.308494 174.809494 
L 172.720265 175.21044 
L 173.338432 175.502654 
L 175.012385 175.873937 
L 177.504931 176.074788 
L 181.676427 176.103681 
L 187.649844 175.893997 
L 195.719912 175.386123 
L 215.635689 173.99659 
L 222.093242 173.890516 
L 229.362268 174.004675 
L 229.362268 174.004675 
" style="fill:none;stroke:#000000;stroke-linecap:square;stroke-opacity:0.7;stroke-width:1.2;"/>
   </g>
   <g id="line2d_25">
    <path clip-path="url(#p123f7c812b)" d="M 229.412055 155.007025 
L 225.629169 153.997332 
L 220.114209 152.770935 
L 214.11055 151.67215 
L 208.859766 150.918119 
L 203.673311 150.395006 
L 198.722288 150.109222 
L 193.549383 150.03845 
L 189.450833 150.189487 
L 185.70515 150.535593 
L 182.705533 150.983322 
L 179.128924 151.755603 
L 176.626488 152.501607 
L 174.73832 153.245948 
L 173.341576 153.99742 
L 172.437316 154.751931 
L 172.174221 155.167707 
L 172.117247 155.595487 
L 172.276397 155.94254 
L 172.781979 156.339988 
L 173.702961 156.696692 
L 175.18401 157.009874 
L 177.751524 157.289571 
L 181.49793 157.448977 
L 186.283014 157.415157 
L 190.715822 157.193412 
L 196.614442 156.664382 
L 212.428934 155.061339 
L 217.946275 154.848232 
L 224.187984 154.835141 
L 229.405677 154.970478 
L 229.405677 154.970478 
" style="fill:none;stroke:#000000;stroke-linecap:square;stroke-opacity:0.7;stroke-width:1.2;"/>
   </g>
   <g id="line2d_26">
    <path clip-path="url(#p123f7c812b)" d="M 229.397399 135.79666 
L 225.29323 134.775077 
L 219.234954 133.509695 
L 212.99976 132.441531 
L 207.643544 131.74872 
L 203.016264 131.366681 
L 198.081676 131.192215 
L 193.236995 131.233809 
L 188.108009 131.523037 
L 184.0339 131.986464 
L 180.291392 132.662237 
L 177.3641 133.43398 
L 175.159499 134.253571 
L 173.722128 135.011794 
L 173.200473 135.38469 
L 172.499748 136.169968 
L 172.370346 136.598748 
L 172.427248 136.947801 
L 172.828499 137.4369 
L 173.307901 137.725563 
L 174.367761 138.107353 
L 176.22025 138.481077 
L 178.703808 138.751162 
L 182.222259 138.916196 
L 186.345565 138.901504 
L 191.178311 138.653365 
L 196.868636 138.119849 
L 214.232726 136.313349 
L 220.967284 135.955135 
L 228.727248 135.777419 
L 229.39137 135.771047 
L 229.39137 135.771047 
" style="fill:none;stroke:#000000;stroke-linecap:square;stroke-opacity:0.7;stroke-width:1.2;"/>
   </g>
   <g id="line2d_27">
    <path clip-path="url(#p123f7c812b)" d="M 229.166825 116.28079 
L 223.613771 115.169758 
L 216.454969 113.95406 
L 209.91191 113.05015 
L 204.058076 112.467602 
L 198.813458 112.153961 
L 193.835506 112.046819 
L 189.101024 112.166811 
L 185.041325 112.509437 
L 181.862303 112.979154 
L 178.731492 113.665886 
L 176.121802 114.480477 
L 174.444197 115.198163 
L 173.20528 115.92803 
L 172.560854 116.478065 
L 172.160844 117.066774 
L 172.095221 117.575656 
L 172.255901 117.955138 
L 172.666737 118.349582 
L 173.607506 118.824976 
L 174.872605 119.209875 
L 177.284033 119.667628 
L 180.561684 120.036239 
L 184.712908 120.25946 
L 189.279616 120.251516 
L 194.051857 120.003865 
L 199.912364 119.462904 
L 209.458967 118.306866 
L 220.892499 116.984607 
L 229.149172 116.224907 
L 229.149172 116.224907 
" style="fill:none;stroke:#000000;stroke-linecap:square;stroke-opacity:0.7;stroke-width:1.2;"/>
   </g>
   <g id="line2d_28">
    <path clip-path="url(#p123f7c812b)" d="M 229.447634 97.791516 
L 225.662943 96.848508 
L 219.91732 95.660019 
L 214.138877 94.693506 
L 208.682827 94.011445 
L 203.688271 93.623541 
L 198.866917 93.470051 
L 193.527759 93.52755 
L 188.276862 93.82074 
L 183.678823 94.315062 
L 179.967615 94.931984 
L 176.829034 95.687181 
L 174.783578 96.398681 
L 173.496823 97.076733 
L 172.877455 97.661486 
L 172.727696 98.095251 
L 172.814303 98.425877 
L 173.151017 98.791533 
L 173.95175 99.217292 
L 175.441158 99.656031 
L 177.791086 100.056637 
L 181.498685 100.404173 
L 186.139668 100.590074 
L 191.417902 100.563653 
L 196.949427 100.308899 
L 203.920903 99.745589 
L 219.055848 98.416508 
L 229.441185 97.756142 
L 229.441185 97.756142 
" style="fill:none;stroke:#000000;stroke-linecap:square;stroke-opacity:0.7;stroke-width:1.2;"/>
   </g>
   <g id="line2d_29">
    <path clip-path="url(#p123f7c812b)" d="M 229.155334 78.083186 
L 221.196556 76.743262 
L 212.744482 75.508371 
L 206.383844 74.790615 
L 201.101994 74.430974 
L 196.168876 74.308205 
L 190.663128 74.396559 
L 186.108828 74.68124 
L 182.212549 75.139934 
L 178.905652 75.755339 
L 176.175839 76.512512 
L 174.288599 77.288552 
L 173.074702 78.071301 
L 172.566301 78.653725 
L 172.389094 79.27714 
L 172.505542 79.720438 
L 172.978435 80.288088 
L 173.860536 80.8537 
L 175.057784 81.359733 
L 176.829556 81.893866 
L 179.895555 82.533643 
L 183.199136 82.982862 
L 187.027031 83.261057 
L 190.993542 83.303607 
L 195.043185 83.126573 
L 199.828382 82.692748 
L 205.744389 81.904507 
L 214.999723 80.378666 
L 229.142575 78.053252 
L 229.142575 78.053252 
" style="fill:none;stroke:#000000;stroke-linecap:square;stroke-opacity:0.7;stroke-width:1.2;"/>
   </g>
   <g id="line2d_30">
    <path clip-path="url(#p123f7c812b)" d="M 229.394262 59.368191 
L 225.940249 58.492293 
L 220.3175 57.313331 
L 214.573729 56.333875 
L 209.492242 55.662026 
L 204.121039 55.184706 
L 198.756649 54.957396 
L 193.351838 54.9685 
L 188.849787 55.180809 
L 184.808317 55.568745 
L 181.025834 56.15066 
L 177.963481 56.838089 
L 175.709575 57.544246 
L 174.175056 58.212371 
L 173.10079 58.902668 
L 172.643534 59.375429 
L 172.402168 59.8833 
L 172.442184 60.430672 
L 172.744346 60.902685 
L 173.412878 61.435692 
L 174.867503 62.128763 
L 176.518133 62.665664 
L 179.480137 63.355082 
L 183.074094 63.923632 
L 186.397486 64.249039 
L 190.328711 64.413563 
L 194.87626 64.359704 
L 199.608628 64.088897 
L 205.0124 63.541372 
L 210.595875 62.733441 
L 219.92433 61.114288 
L 229.387187 59.345839 
L 229.387187 59.345839 
" style="fill:none;stroke:#000000;stroke-linecap:square;stroke-opacity:0.7;stroke-width:1.2;"/>
   </g>
   <g id="line2d_31">
    <path clip-path="url(#p123f7c812b)" d="M 293.057801 231.319272 
L 288.897064 230.249538 
L 283.481798 229.076661 
L 277.765059 228.052297 
L 271.987265 227.266443 
L 267.09633 226.834101 
L 262.109169 226.612356 
L 256.6916 226.597114 
L 252.033536 226.796284 
L 248.10434 227.185647 
L 244.872833 227.732522 
L 242.638207 228.28296 
L 240.49412 229.002804 
L 238.341942 230.022313 
L 237.183522 230.798322 
L 236.485059 231.467219 
L 236.191109 231.992175 
L 236.242013 232.360832 
L 236.466059 232.544775 
L 237.011189 232.696691 
L 238.151125 232.747015 
L 241.156369 232.529417 
L 263.579024 230.334848 
L 269.719012 230.075088 
L 275.155943 230.069322 
L 281.237005 230.300386 
L 288.210849 230.800285 
L 293.040667 231.262294 
L 293.040667 231.262294 
" style="fill:none;stroke:#000000;stroke-linecap:square;stroke-opacity:0.7;stroke-width:1.2;"/>
   </g>
   <g id="line2d_32">
    <path clip-path="url(#p123f7c812b)" d="M 293.070908 212.153925 
L 288.983961 211.168269 
L 283.463896 210.059163 
L 277.631027 209.113538 
L 271.661266 208.38222 
L 266.222581 207.92761 
L 260.394689 207.667683 
L 255.191684 207.673263 
L 251.23652 207.892489 
L 247.545159 208.334809 
L 244.53419 208.92001 
L 241.672295 209.725409 
L 239.614654 210.51523 
L 237.754958 211.478279 
L 236.711997 212.245202 
L 236.263836 212.78703 
L 236.194713 213.140458 
L 236.333886 213.358635 
L 236.622548 213.512804 
L 237.642058 213.681328 
L 239.839975 213.668666 
L 244.557471 213.310523 
L 255.644964 212.165172 
L 265.96922 211.177341 
L 271.60464 210.86963 
L 276.281057 210.835385 
L 281.54838 211.029038 
L 287.52445 211.489753 
L 293.062716 212.109351 
L 293.062716 212.109351 
" style="fill:none;stroke:#000000;stroke-linecap:square;stroke-opacity:0.7;stroke-width:1.2;"/>
   </g>
   <g id="line2d_33">
    <path clip-path="url(#p123f7c812b)" d="M 292.675196 192.33942 
L 285.616132 191.143114 
L 274.782019 189.517954 
L 268.143269 188.731103 
L 262.786401 188.309845 
L 257.301917 188.107689 
L 252.841829 188.171063 
L 249.00074 188.47231 
L 245.984101 188.926409 
L 243.267547 189.545742 
L 241.186345 190.196043 
L 239.028733 191.104054 
L 237.482598 192.008996 
L 236.565704 192.787764 
L 236.103046 193.512196 
L 236.110551 193.977368 
L 236.34604 194.267405 
L 236.856246 194.516054 
L 237.933627 194.727458 
L 240.300214 194.847675 
L 245.847463 194.785552 
L 262.653186 194.312882 
L 270.006062 193.864187 
L 292.647594 192.276982 
L 292.647594 192.276982 
" style="fill:none;stroke:#000000;stroke-linecap:square;stroke-opacity:0.7;stroke-width:1.2;"/>
   </g>
   <g id="line2d_34">
    <path clip-path="url(#p123f7c812b)" d="M 293.150984 174.149415 
L 290.045063 173.216962 
L 285.594015 172.116065 
L 280.678715 171.117205 
L 275.41038 170.272083 
L 270.507702 169.705837 
L 265.536828 169.357364 
L 260.311577 169.221413 
L 255.565153 169.305039 
L 251.289638 169.589391 
L 247.33873 170.083553 
L 244.362997 170.644998 
L 241.374703 171.431021 
L 239.191764 172.21834 
L 237.634872 172.980773 
L 236.674025 173.643117 
L 236.160664 174.20477 
L 236.003225 174.730509 
L 236.108628 175.009573 
L 236.567291 175.356802 
L 237.609943 175.649941 
L 239.494774 175.821412 
L 242.503361 175.821959 
L 247.870095 175.56399 
L 257.204518 174.861329 
L 270.33387 173.864446 
L 276.075025 173.664687 
L 282.190631 173.67697 
L 289.99612 173.941761 
L 293.139394 174.104262 
L 293.139394 174.104262 
" style="fill:none;stroke:#000000;stroke-linecap:square;stroke-opacity:0.7;stroke-width:1.2;"/>
   </g>
   <g id="line2d_35">
    <path clip-path="url(#p123f7c812b)" d="M 293.091141 154.93792 
L 289.074068 153.920426 
L 283.345398 152.707869 
L 277.35987 151.671512 
L 271.632621 150.920682 
L 266.746526 150.506559 
L 262.185558 150.318108 
L 256.954423 150.323839 
L 252.27217 150.550487 
L 248.492365 150.933086 
L 244.884427 151.521474 
L 241.726612 152.284523 
L 239.736004 152.945685 
L 238.215553 153.611592 
L 236.994245 154.357 
L 236.276371 155.091198 
L 236.112459 155.543418 
L 236.197994 155.932077 
L 236.544158 156.288778 
L 237.024763 156.538678 
L 238.299036 156.883368 
L 240.588428 157.148295 
L 243.922807 157.260629 
L 248.877755 157.178697 
L 254.807848 156.851438 
L 263.072286 156.150006 
L 273.489891 155.288539 
L 280.02969 154.989554 
L 287.836553 154.873142 
L 293.08084 154.899088 
L 293.08084 154.899088 
" style="fill:none;stroke:#000000;stroke-linecap:square;stroke-opacity:0.7;stroke-width:1.2;"/>
   </g>
   <g id="line2d_36">
    <path clip-path="url(#p123f7c812b)" d="M 292.93541 135.431936 
L 286.670863 134.215779 
L 277.319068 132.600984 
L 271.322928 131.746567 
L 266.603857 131.26946 
L 261.55347 130.992652 
L 256.205275 130.950729 
L 251.514105 131.151314 
L 247.897507 131.511275 
L 244.764179 132.02125 
L 242.135446 132.644298 
L 240.00052 133.342941 
L 238.496771 134.001844 
L 237.076594 134.875421 
L 236.274597 135.691617 
L 236.064422 136.132845 
L 236.046552 136.593488 
L 236.210659 136.949887 
L 236.548121 137.281693 
L 237.4461 137.74408 
L 238.849009 138.139927 
L 241.315637 138.527556 
L 244.910471 138.809433 
L 249.576028 138.911038 
L 254.87637 138.765942 
L 261.016775 138.343834 
L 269.616164 137.494607 
L 283.536815 136.093033 
L 292.932166 135.398258 
L 292.932166 135.398258 
" style="fill:none;stroke:#000000;stroke-linecap:square;stroke-opacity:0.7;stroke-width:1.2;"/>
   </g>
   <g id="line2d_37">
    <path clip-path="url(#p123f7c812b)" d="M 292.865444 116.339388 
L 286.847902 115.226937 
L 278.213105 113.832416 
L 271.914309 113.0206 
L 267.346933 112.638228 
L 263.014847 112.47383 
L 257.517118 112.50525 
L 251.573997 112.784512 
L 246.916828 113.22167 
L 243.504951 113.749311 
L 240.760887 114.398793 
L 239.017185 114.998931 
L 237.562023 115.725488 
L 236.658753 116.440074 
L 236.237304 117.107615 
L 236.2211 117.63938 
L 236.513484 118.111348 
L 237.114847 118.526674 
L 237.949432 118.857467 
L 239.614475 119.243956 
L 242.326976 119.581407 
L 246.434269 119.814289 
L 251.372075 119.859443 
L 257.103061 119.675621 
L 263.744939 119.211533 
L 272.951695 118.293914 
L 292.149443 116.354977 
L 292.858208 116.286821 
L 292.858208 116.286821 
" style="fill:none;stroke:#000000;stroke-linecap:square;stroke-opacity:0.7;stroke-width:1.2;"/>
   </g>
   <g id="line2d_38">
    <path clip-path="url(#p123f7c812b)" d="M 292.963784 97.304897 
L 286.923288 96.19019 
L 279.263031 94.981541 
L 272.780877 94.156235 
L 267.301794 93.660022 
L 261.612328 93.372678 
L 256.281834 93.318568 
L 251.819413 93.475055 
L 247.826773 93.830994 
L 244.633349 94.307747 
L 241.534825 94.98922 
L 239.306826 95.677385 
L 237.763056 96.324921 
L 236.498303 97.093959 
L 235.956451 97.640749 
L 235.736328 98.135262 
L 235.781882 98.579899 
L 236.159292 99.087001 
L 237.014838 99.62519 
L 238.558994 100.194076 
L 241.153593 100.794117 
L 244.436331 101.280268 
L 248.328609 101.61576 
L 252.15125 101.731072 
L 256.645817 101.624295 
L 261.816782 101.256495 
L 268.626805 100.525754 
L 280.061967 99.018367 
L 292.961662 97.28628 
L 292.961662 97.28628 
" style="fill:none;stroke:#000000;stroke-linecap:square;stroke-opacity:0.7;stroke-width:1.2;"/>
   </g>
   <g id="line2d_39">
    <path clip-path="url(#p123f7c812b)" d="M 292.923618 78.124469 
L 281.511016 76.755445 
L 269.451204 75.376435 
L 263.234607 74.891091 
L 256.49675 74.599346 
L 251.388769 74.59533 
L 247.669646 74.793637 
L 244.655147 75.137703 
L 241.68042 75.702971 
L 239.372363 76.376561 
L 237.582898 77.161636 
L 236.648837 77.784294 
L 236.137794 78.323197 
L 235.883218 78.993131 
L 235.949147 79.393992 
L 236.205238 79.799198 
L 236.504689 80.076344 
L 237.225379 80.519043 
L 238.884015 81.152942 
L 241.125331 81.710495 
L 244.363284 82.256127 
L 248.284176 82.670829 
L 252.104392 82.867838 
L 256.407419 82.872654 
L 260.97386 82.663742 
L 266.05636 82.215463 
L 271.82493 81.477273 
L 281.447562 79.965992 
L 292.933571 78.096708 
L 292.933571 78.096708 
" style="fill:none;stroke:#000000;stroke-linecap:square;stroke-opacity:0.7;stroke-width:1.2;"/>
   </g>
   <g id="line2d_40">
    <path clip-path="url(#p123f7c812b)" d="M 292.897752 59.01495 
L 278.795709 57.084109 
L 270.086613 56.006919 
L 264.180155 55.519984 
L 258.296529 55.277364 
L 253.116293 55.279204 
L 248.66532 55.515935 
L 244.970362 55.95661 
L 241.742849 56.602888 
L 239.368047 57.324555 
L 237.957648 57.934138 
L 236.692091 58.760357 
L 236.163891 59.393877 
L 236.011317 59.890701 
L 236.098064 60.391784 
L 236.456396 60.910494 
L 237.017526 61.371376 
L 237.738915 61.791784 
L 239.456511 62.508664 
L 241.941022 63.247923 
L 245.079141 63.925867 
L 248.121574 64.384249 
L 251.467156 64.681156 
L 255.469024 64.771032 
L 259.561585 64.613933 
L 264.229878 64.200425 
L 269.440441 63.501884 
L 275.735751 62.407346 
L 287.737622 60.027095 
L 292.902715 58.986458 
L 292.902715 58.986458 
" style="fill:none;stroke:#000000;stroke-linecap:square;stroke-opacity:0.7;stroke-width:1.2;"/>
   </g>
   <g id="line2d_41">
    <path clip-path="url(#p123f7c812b)" d="M 356.37886 230.704043 
L 352.643655 229.83986 
L 346.690843 228.695409 
L 340.062708 227.638512 
L 334.497367 226.954787 
L 329.946246 226.584249 
L 324.462748 226.391013 
L 319.423443 226.44893 
L 315.01062 226.704388 
L 310.936393 227.162115 
L 307.484581 227.779862 
L 304.47066 228.573468 
L 302.384665 229.347187 
L 301.124175 229.973223 
L 299.928665 230.813453 
L 299.478929 231.335497 
L 299.352205 231.820279 
L 299.498786 232.055454 
L 299.96286 232.240163 
L 300.872717 232.285317 
L 303.346581 232.020444 
L 312.863274 230.738359 
L 318.044174 230.328608 
L 322.605399 230.1695 
L 328.698926 230.186577 
L 356.365004 230.658502 
L 356.365004 230.658502 
" style="fill:none;stroke:#000000;stroke-linecap:square;stroke-opacity:0.7;stroke-width:1.2;"/>
   </g>
   <g id="line2d_42">
    <path clip-path="url(#p123f7c812b)" d="M 356.604909 211.8995 
L 351.184486 210.788209 
L 343.588583 209.458719 
L 337.244334 208.563527 
L 331.57787 207.981653 
L 325.551555 207.604408 
L 320.452507 207.484288 
L 316.234554 207.575194 
L 312.626332 207.85452 
L 309.319668 208.33348 
L 306.490936 208.969924 
L 304.122209 209.730119 
L 302.034793 210.674888 
L 300.753695 211.505254 
L 300.047186 212.209805 
L 299.839172 212.638706 
L 299.883932 212.984882 
L 300.080636 213.181103 
L 300.541185 213.356734 
L 301.212604 213.445057 
L 302.976574 213.418286 
L 306.925801 213.034628 
L 316.328186 212.068679 
L 321.970463 211.726622 
L 329.049773 211.543679 
L 339.418683 211.523296 
L 351.518046 211.722278 
L 356.599154 211.866736 
L 356.599154 211.866736 
" style="fill:none;stroke:#000000;stroke-linecap:square;stroke-opacity:0.7;stroke-width:1.2;"/>
   </g>
   <g id="line2d_43">
    <path clip-path="url(#p123f7c812b)" d="M 356.861452 193.170375 
L 352.877925 192.080702 
L 347.017355 190.728468 
L 341.061148 189.581151 
L 335.537945 188.735128 
L 330.258756 188.167262 
L 325.533736 187.886293 
L 320.926664 187.835481 
L 316.511084 188.02811 
L 313.047038 188.385496 
L 309.505122 188.991608 
L 306.693343 189.702119 
L 304.18433 190.584707 
L 302.371401 191.458504 
L 301.080791 192.317886 
L 300.288327 193.13158 
L 300.043861 193.781985 
L 300.178986 194.171646 
L 300.545464 194.459094 
L 301.524686 194.760228 
L 302.86805 194.914509 
L 305.30746 194.970522 
L 310.38064 194.800497 
L 318.987536 194.240972 
L 339.325893 192.802502 
L 345.390878 192.721035 
L 351.522646 192.870533 
L 356.86471 193.162564 
L 356.86471 193.162564 
" style="fill:none;stroke:#000000;stroke-linecap:square;stroke-opacity:0.7;stroke-width:1.2;"/>
   </g>
   <g id="line2d_44">
    <path clip-path="url(#p123f7c812b)" d="M 356.931709 174.343388 
L 351.458399 173.091394 
L 344.045685 171.620436 
L 337.379688 170.529861 
L 332.117502 169.900948 
L 326.814944 169.517031 
L 321.652016 169.372165 
L 317.215666 169.449029 
L 313.284789 169.730782 
L 310.233907 170.136937 
L 307.536037 170.677171 
L 305.12137 171.360761 
L 303.120656 172.149644 
L 301.822325 172.854301 
L 300.834331 173.626455 
L 300.386154 174.230979 
L 300.30471 174.749726 
L 300.458516 175.04971 
L 300.873357 175.350486 
L 301.377606 175.541801 
L 302.859821 175.818538 
L 305.097523 175.98418 
L 309.481556 176.043861 
L 315.629506 175.873014 
L 322.091276 175.465122 
L 342.542543 173.950588 
L 347.920784 173.931479 
L 353.996873 174.127055 
L 356.925762 174.28421 
L 356.925762 174.28421 
" style="fill:none;stroke:#000000;stroke-linecap:square;stroke-opacity:0.7;stroke-width:1.2;"/>
   </g>
   <g id="line2d_45">
    <path clip-path="url(#p123f7c812b)" d="M 356.455114 154.347166 
L 347.998986 152.973184 
L 339.47453 151.806605 
L 333.089007 151.153151 
L 327.211088 150.782361 
L 321.28073 150.628143 
L 316.174709 150.694408 
L 312.369244 150.930984 
L 308.813042 151.377515 
L 305.800434 152.006438 
L 303.402194 152.762668 
L 301.947409 153.410358 
L 300.610264 154.282677 
L 300.043337 154.91493 
L 299.859564 155.511043 
L 299.97058 155.873141 
L 300.209016 156.139158 
L 300.994761 156.541147 
L 302.003561 156.789787 
L 303.68508 156.990272 
L 306.950924 157.105167 
L 312.674958 157.037363 
L 322.867315 156.683507 
L 331.484387 156.193548 
L 348.691148 154.878151 
L 356.45278 154.297007 
L 356.45278 154.297007 
" style="fill:none;stroke:#000000;stroke-linecap:square;stroke-opacity:0.7;stroke-width:1.2;"/>
   </g>
   <g id="line2d_46">
    <path clip-path="url(#p123f7c812b)" d="M 356.666894 135.585115 
L 352.455291 134.529239 
L 345.856925 133.114543 
L 339.477001 131.980012 
L 334.093726 131.264461 
L 329.744925 130.903436 
L 325.686294 130.755915 
L 321.0848 130.792333 
L 315.902363 131.068935 
L 311.50715 131.521995 
L 307.9105 132.111926 
L 305.463678 132.693785 
L 303.021938 133.521902 
L 301.573701 134.22238 
L 300.391463 135.054478 
L 299.900264 135.597895 
L 299.626559 136.208824 
L 299.711319 136.813679 
L 300.075579 137.246922 
L 300.773712 137.653122 
L 302.014015 138.045059 
L 303.959173 138.372274 
L 307.311105 138.622409 
L 312.178101 138.689196 
L 318.518054 138.524387 
L 326.772223 138.07753 
L 336.062341 137.346791 
L 356.670815 135.579437 
L 356.670815 135.579437 
" style="fill:none;stroke:#000000;stroke-linecap:square;stroke-opacity:0.7;stroke-width:1.2;"/>
   </g>
   <g id="line2d_47">
    <path clip-path="url(#p123f7c812b)" d="M 356.716415 116.606152 
L 348.745518 114.97987 
L 340.640213 113.510793 
L 334.556768 112.622125 
L 329.652166 112.133236 
L 325.050574 111.887161 
L 320.602551 111.839607 
L 315.943596 112.008915 
L 312.098445 112.363814 
L 309.036633 112.831094 
L 306.080998 113.494435 
L 303.857744 114.196177 
L 301.949481 115.040022 
L 300.618946 115.926771 
L 300.004857 116.631582 
L 299.819277 117.158393 
L 299.874887 117.593271 
L 300.244133 118.097472 
L 300.897214 118.515886 
L 301.860481 118.882198 
L 303.412991 119.246145 
L 305.835822 119.579372 
L 309.418554 119.830967 
L 314.069342 119.920929 
L 319.758847 119.78129 
L 326.096529 119.400729 
L 335.038619 118.61684 
L 356.722239 116.591617 
L 356.722239 116.591617 
" style="fill:none;stroke:#000000;stroke-linecap:square;stroke-opacity:0.7;stroke-width:1.2;"/>
   </g>
   <g id="line2d_48">
    <path clip-path="url(#p123f7c812b)" d="M 356.835617 97.698921 
L 348.598481 96.301446 
L 338.647967 94.805514 
L 332.139311 94.035733 
L 326.060917 93.562776 
L 320.555659 93.362431 
L 316.10572 93.40952 
L 312.147838 93.675124 
L 309.050714 94.076505 
L 305.918178 94.714075 
L 303.754926 95.35345 
L 302.105144 96.028541 
L 300.847522 96.774448 
L 300.163206 97.44696 
L 299.971211 97.823703 
L 299.939219 98.231471 
L 300.188402 98.713284 
L 300.580137 99.036971 
L 301.57306 99.500097 
L 303.029949 99.904392 
L 305.6233 100.347397 
L 309.199873 100.706507 
L 313.468025 100.914446 
L 318.226145 100.926622 
L 323.798512 100.701495 
L 330.23491 100.209213 
L 341.642648 99.047077 
L 354.496684 97.846001 
L 356.835453 97.646135 
L 356.835453 97.646135 
" style="fill:none;stroke:#000000;stroke-linecap:square;stroke-opacity:0.7;stroke-width:1.2;"/>
   </g>
   <g id="line2d_49">
    <path clip-path="url(#p123f7c812b)" d="M 356.643619 78.253225 
L 331.846543 74.807766 
L 326.573048 74.435326 
L 321.43888 74.28778 
L 317.057328 74.348556 
L 312.986829 74.601847 
L 309.262732 75.047587 
L 306.056189 75.65469 
L 303.874227 76.250408 
L 302.217736 76.880906 
L 300.961748 77.585137 
L 300.245132 78.268273 
L 300.03933 78.669862 
L 300.040917 79.281783 
L 300.301877 79.721137 
L 300.827716 80.163646 
L 301.506565 80.528052 
L 303.112753 81.080287 
L 305.500017 81.58274 
L 308.998983 82.023865 
L 313.01573 82.290315 
L 317.487673 82.368703 
L 322.309285 82.245222 
L 328.199203 81.861115 
L 334.58488 81.205191 
L 344.601473 79.902903 
L 356.646073 78.226512 
L 356.646073 78.226512 
" style="fill:none;stroke:#000000;stroke-linecap:square;stroke-opacity:0.7;stroke-width:1.2;"/>
   </g>
   <g id="line2d_50">
    <path clip-path="url(#p123f7c812b)" d="M 356.794477 59.350608 
L 349.545887 58.024873 
L 341.160565 56.707313 
L 334.857442 55.924234 
L 328.936507 55.413413 
L 322.996143 55.114988 
L 318.008791 55.068821 
L 314.043426 55.242431 
L 310.772769 55.577794 
L 307.489052 56.134148 
L 304.821749 56.80015 
L 303.012017 57.416485 
L 301.451122 58.142639 
L 300.349489 58.93078 
L 299.927002 59.507341 
L 299.850147 60.035321 
L 299.981753 60.382882 
L 300.414944 60.84651 
L 301.277399 61.354179 
L 302.986972 61.978002 
L 305.580873 62.60907 
L 308.537105 63.122691 
L 312.637408 63.605261 
L 316.963035 63.869246 
L 321.484624 63.908744 
L 326.18454 63.735373 
L 331.485915 63.304054 
L 337.206437 62.586206 
L 345.700448 61.25267 
L 356.782019 59.320548 
L 356.782019 59.320548 
" style="fill:none;stroke:#000000;stroke-linecap:square;stroke-opacity:0.7;stroke-width:1.2;"/>
   </g>
   <g id="line2d_51">
    <path clip-path="url(#p123f7c812b)" d="M 420.499659 231.337813 
L 414.799886 230.11501 
L 407.751574 228.824466 
L 401.91387 227.950028 
L 395.900576 227.270208 
L 389.585189 226.800212 
L 383.861574 226.598124 
L 379.357256 226.661046 
L 375.908563 226.915777 
L 372.911989 227.343685 
L 370.121805 227.980682 
L 367.944831 228.704786 
L 366.028918 229.595611 
L 364.862452 230.336831 
L 363.922975 231.215969 
L 363.704096 231.681503 
L 363.817507 231.974994 
L 364.171457 232.130857 
L 365.041968 232.196034 
L 367.251358 232.030639 
L 381.678403 230.522582 
L 387.774784 230.218986 
L 394.93498 230.098982 
L 402.843527 230.188917 
L 409.980301 230.492787 
L 417.519934 231.035964 
L 420.503371 231.308789 
L 420.503371 231.308789 
" style="fill:none;stroke:#000000;stroke-linecap:square;stroke-opacity:0.7;stroke-width:1.2;"/>
   </g>
   <g id="line2d_52">
    <path clip-path="url(#p123f7c812b)" d="M 420.410783 211.93771 
L 415.455949 210.836401 
L 407.701743 209.349227 
L 400.391516 208.18213 
L 394.32971 207.447291 
L 389.456586 207.055224 
L 384.947691 206.892697 
L 381.111361 206.963475 
L 377.887992 207.217541 
L 374.58971 207.698034 
L 371.243015 208.454875 
L 368.499045 209.33257 
L 366.27984 210.290396 
L 364.718121 211.198079 
L 363.719355 212.020623 
L 363.254447 212.709192 
L 363.255164 213.148463 
L 363.466755 213.393727 
L 363.895718 213.587974 
L 364.799131 213.737547 
L 366.424396 213.764812 
L 369.897785 213.543195 
L 377.521792 212.762122 
L 390.660677 211.415131 
L 396.573614 211.026901 
L 401.900079 210.896633 
L 407.035547 210.973447 
L 412.969322 211.271465 
L 419.673479 211.840966 
L 420.409077 211.917869 
L 420.409077 211.917869 
" style="fill:none;stroke:#000000;stroke-linecap:square;stroke-opacity:0.7;stroke-width:1.2;"/>
   </g>
   <g id="line2d_53">
    <path clip-path="url(#p123f7c812b)" d="M 420.617521 193.392644 
L 415.185478 192.088789 
L 408.221613 190.663233 
L 401.47037 189.516577 
L 395.893487 188.766451 
L 390.456841 188.231128 
L 385.415276 187.951418 
L 381.468628 187.947247 
L 378.18535 188.145015 
L 374.838654 188.580995 
L 372.033156 189.163156 
L 369.483196 189.903776 
L 367.256642 190.77365 
L 365.295863 191.821996 
L 364.277313 192.588127 
L 363.670319 193.300053 
L 363.526461 193.690985 
L 363.639939 194.132475 
L 364.012026 194.415807 
L 364.840876 194.668468 
L 366.411036 194.844703 
L 369.713126 194.903933 
L 375.175275 194.753927 
L 381.993553 194.356177 
L 390.727203 193.587651 
L 398.870519 192.919126 
L 404.214455 192.731768 
L 409.424123 192.766859 
L 415.468277 193.011072 
L 420.614268 193.347582 
L 420.614268 193.347582 
" style="fill:none;stroke:#000000;stroke-linecap:square;stroke-opacity:0.7;stroke-width:1.2;"/>
   </g>
   <g id="line2d_54">
    <path clip-path="url(#p123f7c812b)" d="M 420.534862 174.047423 
L 416.892482 173.151905 
L 411.286729 172.02654 
L 405.661614 171.124439 
L 400.553143 170.493801 
L 394.936857 170.015554 
L 389.381612 169.761076 
L 383.867119 169.724787 
L 379.420397 169.889762 
L 375.326391 170.258521 
L 371.744508 170.824847 
L 368.700004 171.57265 
L 366.488363 172.364966 
L 364.878508 173.194957 
L 363.897946 173.998803 
L 363.618432 174.532408 
L 363.695378 174.899137 
L 364.065222 175.205779 
L 364.95725 175.488566 
L 366.671851 175.685664 
L 369.876121 175.743601 
L 376.479835 175.560809 
L 398.768566 174.633705 
L 410.384773 174.172724 
L 419.639841 174.039787 
L 420.539046 174.036859 
L 420.539046 174.036859 
" style="fill:none;stroke:#000000;stroke-linecap:square;stroke-opacity:0.7;stroke-width:1.2;"/>
   </g>
   <g id="line2d_55">
    <path clip-path="url(#p123f7c812b)" d="M 420.395173 154.678624 
L 414.2856 153.452327 
L 406.315462 152.056644 
L 399.852933 151.117263 
L 394.417978 150.540514 
L 389.245435 150.208412 
L 383.976051 150.094853 
L 379.552271 150.230471 
L 375.751018 150.589154 
L 372.723436 151.0848 
L 370.022303 151.729254 
L 368.002046 152.378818 
L 366.038782 153.217712 
L 364.783122 153.942225 
L 363.796724 154.765469 
L 363.37167 155.446268 
L 363.378126 155.982684 
L 363.634233 156.333733 
L 364.296794 156.713133 
L 365.631518 157.063903 
L 367.416466 157.287421 
L 371.202787 157.457457 
L 376.397049 157.421342 
L 383.259562 157.122333 
L 393.037848 156.445096 
L 411.656295 155.120445 
L 420.386161 154.660163 
L 420.386161 154.660163 
" style="fill:none;stroke:#000000;stroke-linecap:square;stroke-opacity:0.7;stroke-width:1.2;"/>
   </g>
   <g id="line2d_56">
    <path clip-path="url(#p123f7c812b)" d="M 420.246011 135.264755 
L 415.723839 134.344776 
L 408.362553 133.068948 
L 401.944066 132.150656 
L 396.553562 131.572894 
L 390.947987 131.209488 
L 385.823924 131.097976 
L 381.277406 131.210136 
L 377.60429 131.49636 
L 374.356036 131.936887 
L 371.169206 132.583327 
L 368.474697 133.350661 
L 366.334851 134.183377 
L 365.02031 134.877422 
L 364.321506 135.371338 
L 363.761901 135.956533 
L 363.556721 136.530768 
L 363.680842 136.906989 
L 363.942044 137.164787 
L 364.637907 137.506045 
L 365.788207 137.796465 
L 368.228789 138.095028 
L 372.195385 138.284716 
L 377.587274 138.305967 
L 384.741022 138.085524 
L 393.045672 137.597612 
L 403.325873 136.745904 
L 420.243126 135.27639 
L 420.243126 135.27639 
" style="fill:none;stroke:#000000;stroke-linecap:square;stroke-opacity:0.7;stroke-width:1.2;"/>
   </g>
   <g id="line2d_57">
    <path clip-path="url(#p123f7c812b)" d="M 420.42336 116.635284 
L 410.537958 114.992044 
L 401.275798 113.653947 
L 395.422573 113.005407 
L 389.810344 112.602772 
L 384.452618 112.445039 
L 379.839311 112.526757 
L 376.140322 112.778749 
L 372.318641 113.26108 
L 369.310955 113.854433 
L 367.121824 114.467502 
L 365.184641 115.244725 
L 363.973499 116.010289 
L 363.507985 116.5365 
L 363.374424 117.124696 
L 363.568855 117.522484 
L 364.096915 117.931912 
L 365.200767 118.365425 
L 367.011001 118.75215 
L 369.869014 119.080056 
L 373.894633 119.292378 
L 379.243464 119.325847 
L 384.909001 119.135656 
L 392.342331 118.636958 
L 415.395081 116.880564 
L 420.415708 116.580502 
L 420.415708 116.580502 
" style="fill:none;stroke:#000000;stroke-linecap:square;stroke-opacity:0.7;stroke-width:1.2;"/>
   </g>
   <g id="line2d_58">
    <path clip-path="url(#p123f7c812b)" d="M 420.621777 97.869894 
L 405.567027 95.322372 
L 398.54077 94.352886 
L 393.36109 93.8542 
L 388.155126 93.56032 
L 382.502374 93.47111 
L 378.214461 93.61752 
L 374.40505 93.972325 
L 371.331364 94.463958 
L 368.302826 95.201334 
L 366.191124 95.95948 
L 364.830024 96.669796 
L 363.963434 97.397584 
L 363.677543 97.94161 
L 363.725074 98.405177 
L 364.021873 98.789991 
L 364.575857 99.151025 
L 365.457336 99.504182 
L 367.201897 99.943106 
L 369.540782 100.318315 
L 373.397072 100.697165 
L 378.23539 100.917164 
L 382.897216 100.913455 
L 388.800657 100.663729 
L 395.94852 100.111031 
L 420.616585 97.824326 
L 420.616585 97.824326 
" style="fill:none;stroke:#000000;stroke-linecap:square;stroke-opacity:0.7;stroke-width:1.2;"/>
   </g>
   <g id="line2d_59">
    <path clip-path="url(#p123f7c812b)" d="M 420.563537 78.617754 
L 400.278441 75.763323 
L 393.853727 75.133321 
L 387.419576 74.744136 
L 382.317234 74.628625 
L 377.789336 74.747949 
L 374.069819 75.072629 
L 371.060791 75.530806 
L 368.475292 76.112794 
L 366.370942 76.785453 
L 364.959215 77.428919 
L 364.023102 78.089043 
L 363.647635 78.616584 
L 363.623798 79.069986 
L 363.898898 79.489544 
L 364.326171 79.79901 
L 365.287437 80.219138 
L 367.078009 80.699484 
L 369.871479 81.177674 
L 373.733097 81.600597 
L 378.669781 81.894048 
L 383.665594 81.957505 
L 388.798808 81.81745 
L 395.297349 81.406255 
L 402.892753 80.679637 
L 416.097321 79.153659 
L 420.561815 78.581725 
L 420.561815 78.581725 
" style="fill:none;stroke:#000000;stroke-linecap:square;stroke-opacity:0.7;stroke-width:1.2;"/>
   </g>
   <g id="line2d_60">
    <path clip-path="url(#p123f7c812b)" d="M 420.519137 59.437343 
L 396.711163 56.400271 
L 390.947601 56.022249 
L 385.023474 55.868019 
L 379.518294 55.932278 
L 374.954568 56.20496 
L 371.102702 56.66861 
L 368.039698 57.272576 
L 365.830716 57.939794 
L 364.504039 58.542814 
L 363.693825 59.122574 
L 363.286162 59.72904 
L 363.261297 60.107129 
L 363.455466 60.524783 
L 363.867619 60.911554 
L 364.676391 61.362137 
L 366.46701 61.971458 
L 369.036936 62.525795 
L 372.336558 62.992983 
L 376.269011 63.327318 
L 380.491607 63.468572 
L 384.89539 63.407603 
L 390.111988 63.118902 
L 396.598909 62.527618 
L 405.559203 61.46149 
L 418.788393 59.6545 
L 420.512394 59.396668 
L 420.512394 59.396668 
" style="fill:none;stroke:#000000;stroke-linecap:square;stroke-opacity:0.7;stroke-width:1.2;"/>
   </g>
   <g id="line2d_61">
    <path clip-path="url(#p123f7c812b)" d="M 484.25917 231.428585 
L 480.16632 230.303561 
L 474.518583 228.991522 
L 468.620886 227.858176 
L 462.932183 226.999348 
L 457.50014 226.398459 
L 452.012478 225.989342 
L 446.779446 225.81641 
L 443.009773 225.900651 
L 439.945555 226.163633 
L 437.355623 226.565331 
L 434.44542 227.26852 
L 432.21143 228.047576 
L 430.42831 228.88277 
L 429.123538 229.680207 
L 428.301757 230.323616 
L 427.48869 231.247888 
L 427.309143 231.716271 
L 427.420829 232.098195 
L 427.585486 232.222656 
L 428.324244 232.38546 
L 429.697166 232.327809 
L 432.954684 231.840611 
L 441.495067 230.473656 
L 446.01002 230.008843 
L 450.592028 229.773587 
L 456.367138 229.740142 
L 464.441956 229.960838 
L 472.724819 230.412024 
L 481.450259 231.127951 
L 484.247795 231.39895 
L 484.247795 231.39895 
" style="fill:none;stroke:#000000;stroke-linecap:square;stroke-opacity:0.7;stroke-width:1.2;"/>
   </g>
   <g id="line2d_62">
    <path clip-path="url(#p123f7c812b)" d="M 484.10675 211.964196 
L 479.304988 210.954262 
L 472.166246 209.669453 
L 464.922426 208.589228 
L 458.893564 207.911133 
L 452.83515 207.4622 
L 447.3224 207.2788 
L 443.517545 207.342996 
L 440.243344 207.587234 
L 437.110692 208.03803 
L 434.209163 208.698479 
L 431.828841 209.472407 
L 429.710945 210.420999 
L 428.214335 211.355516 
L 427.415364 212.092084 
L 427.124443 212.619829 
L 427.152266 212.915609 
L 427.378041 213.139391 
L 427.913745 213.315507 
L 429.024843 213.404651 
L 431.551975 213.299059 
L 437.29816 212.752351 
L 446.333419 211.93292 
L 452.658691 211.593558 
L 460.574473 211.410532 
L 469.084537 211.425718 
L 477.712672 211.654051 
L 484.111562 211.953336 
L 484.111562 211.953336 
" style="fill:none;stroke:#000000;stroke-linecap:square;stroke-opacity:0.7;stroke-width:1.2;"/>
   </g>
   <g id="line2d_63">
    <path clip-path="url(#p123f7c812b)" d="M 484.059608 192.725796 
L 477.928469 191.528462 
L 470.335186 190.273128 
L 463.9232 189.412771 
L 457.937385 188.813009 
L 452.100044 188.436735 
L 446.905783 188.318497 
L 443.051498 188.435553 
L 439.834624 188.722913 
L 436.739668 189.204459 
L 433.794754 189.893901 
L 431.04205 190.811157 
L 429.389358 191.55213 
L 428.008435 192.373739 
L 427.066399 193.241775 
L 426.855518 193.723622 
L 426.926416 194.039161 
L 427.239655 194.307839 
L 428.029252 194.546269 
L 429.360492 194.659203 
L 431.720838 194.607296 
L 436.348857 194.233999 
L 448.049543 193.21086 
L 454.95356 192.86644 
L 464.738415 192.629044 
L 475.53132 192.591707 
L 484.072213 192.720312 
L 484.072213 192.720312 
" style="fill:none;stroke:#000000;stroke-linecap:square;stroke-opacity:0.7;stroke-width:1.2;"/>
   </g>
   <g id="line2d_64">
    <path clip-path="url(#p123f7c812b)" d="M 484.255393 173.983515 
L 478.379105 172.7217 
L 470.496014 171.257652 
L 464.006054 170.268023 
L 458.881721 169.68571 
L 453.227988 169.278309 
L 448.346821 169.134201 
L 443.922357 169.225821 
L 440.420152 169.50786 
L 437.039535 170.006263 
L 433.85611 170.732381 
L 431.653219 171.432425 
L 429.848675 172.19158 
L 428.343372 173.06755 
L 427.558952 173.759542 
L 427.2889 174.15576 
L 427.186717 174.523922 
L 427.369357 174.994882 
L 427.652706 175.209754 
L 428.611834 175.528967 
L 430.157052 175.720619 
L 433.773873 175.811871 
L 440.820273 175.682514 
L 450.756391 175.283962 
L 460.941499 174.63177 
L 469.999679 174.105249 
L 477.178358 173.931719 
L 484.254822 173.971528 
L 484.254822 173.971528 
" style="fill:none;stroke:#000000;stroke-linecap:square;stroke-opacity:0.7;stroke-width:1.2;"/>
   </g>
   <g id="line2d_65">
    <path clip-path="url(#p123f7c812b)" d="M 484.126259 154.759652 
L 471.933121 152.78447 
L 463.799476 151.69191 
L 457.132036 151.016298 
L 451.27409 150.63723 
L 446.592466 150.52876 
L 442.654938 150.640658 
L 439.157209 150.954833 
L 435.977452 151.461257 
L 432.965974 152.189075 
L 430.68925 152.968393 
L 429.227356 153.643946 
L 427.976493 154.470351 
L 427.475727 155.04304 
L 427.355866 155.44435 
L 427.47107 155.784392 
L 427.884434 156.109908 
L 428.725574 156.396816 
L 430.147247 156.618281 
L 432.610232 156.764721 
L 437.364 156.791652 
L 446.234043 156.596432 
L 456.947209 156.137643 
L 484.136078 154.747398 
L 484.136078 154.747398 
" style="fill:none;stroke:#000000;stroke-linecap:square;stroke-opacity:0.7;stroke-width:1.2;"/>
   </g>
   <g id="line2d_66">
    <path clip-path="url(#p123f7c812b)" d="M 484.369301 136.201908 
L 479.177491 135.023011 
L 472.705936 133.766741 
L 466.17014 132.715528 
L 460.292327 132.002496 
L 454.723102 131.577022 
L 449.426857 131.402296 
L 444.760097 131.455042 
L 440.567222 131.727277 
L 436.912285 132.204697 
L 434.135116 132.768178 
L 431.934969 133.384011 
L 429.952234 134.132747 
L 428.626431 134.813722 
L 427.850163 135.359526 
L 427.226479 136.11681 
L 427.190865 136.579072 
L 427.386212 136.878158 
L 427.802606 137.149827 
L 428.862384 137.478717 
L 431.184642 137.782229 
L 435.101578 137.963442 
L 441.193939 137.990098 
L 447.880302 137.806905 
L 456.597343 137.322607 
L 469.588819 136.575539 
L 480.390411 136.243674 
L 484.361591 136.15257 
L 484.361591 136.15257 
" style="fill:none;stroke:#000000;stroke-linecap:square;stroke-opacity:0.7;stroke-width:1.2;"/>
   </g>
   <g id="line2d_67">
    <path clip-path="url(#p123f7c812b)" d="M 484.289243 116.862013 
L 475.624281 115.257277 
L 467.001005 113.873853 
L 461.197321 113.137582 
L 454.985289 112.589497 
L 448.943785 112.30308 
L 444.378972 112.305827 
L 440.529575 112.533801 
L 437.596861 112.89014 
L 434.354045 113.514353 
L 431.891593 114.201889 
L 429.769525 115.027245 
L 428.437459 115.763565 
L 427.674127 116.407748 
L 427.354996 117.004695 
L 427.395924 117.343303 
L 427.661574 117.674249 
L 428.11718 117.942069 
L 429.25925 118.291114 
L 431.460822 118.6115 
L 435.085308 118.83897 
L 441.411303 118.952592 
L 449.709974 118.876819 
L 457.033662 118.604563 
L 465.274664 118.053158 
L 479.111586 117.123285 
L 484.285206 116.834092 
L 484.285206 116.834092 
" style="fill:none;stroke:#000000;stroke-linecap:square;stroke-opacity:0.7;stroke-width:1.2;"/>
   </g>
   <g id="line2d_68">
    <path clip-path="url(#p123f7c812b)" d="M 484.100174 97.373634 
L 459.089445 94.122809 
L 452.520545 93.605255 
L 447.333184 93.387003 
L 442.922384 93.409947 
L 439.184777 93.656421 
L 436.059282 94.073037 
L 433.030634 94.717181 
L 430.791967 95.415173 
L 429.204896 96.10821 
L 428.059562 96.838601 
L 427.483206 97.477035 
L 427.351198 97.894081 
L 427.448785 98.283804 
L 427.8543 98.689503 
L 428.382446 98.968891 
L 429.509326 99.331587 
L 431.719342 99.740284 
L 435.190348 100.100991 
L 440.259481 100.374327 
L 446.602683 100.470839 
L 453.127376 100.340841 
L 459.36876 100.003752 
L 466.525905 99.380579 
L 477.216412 98.202663 
L 484.099268 97.352767 
L 484.099268 97.352767 
" style="fill:none;stroke:#000000;stroke-linecap:square;stroke-opacity:0.7;stroke-width:1.2;"/>
   </g>
   <g id="line2d_69">
    <path clip-path="url(#p123f7c812b)" d="M 484.223303 78.588605 
L 466.540348 75.75351 
L 460.764249 75.044696 
L 455.533888 74.615753 
L 450.222055 74.399749 
L 445.351321 74.403682 
L 441.082521 74.609593 
L 437.009395 75.04675 
L 434.157047 75.547291 
L 431.573521 76.214734 
L 429.515753 77.012295 
L 428.228457 77.801446 
L 427.697643 78.349751 
L 427.45548 78.947532 
L 427.532485 79.392669 
L 427.882108 79.835659 
L 428.509216 80.234932 
L 429.761013 80.691287 
L 431.366602 81.04795 
L 434.568378 81.469586 
L 438.64327 81.758002 
L 444.15586 81.903708 
L 450.061234 81.833227 
L 456.405355 81.5437 
L 462.595346 81.050524 
L 471.975375 80.036491 
L 484.224958 78.558124 
L 484.224958 78.558124 
" style="fill:none;stroke:#000000;stroke-linecap:square;stroke-opacity:0.7;stroke-width:1.2;"/>
   </g>
   <g id="line2d_70">
    <path clip-path="url(#p123f7c812b)" d="M 484.186542 59.311739 
L 474.76814 57.943149 
L 465.875881 56.856614 
L 458.586075 56.179948 
L 452.315271 55.789638 
L 446.983142 55.645663 
L 442.357969 55.746015 
L 438.732736 56.025804 
L 435.351122 56.482835 
L 432.358905 57.094482 
L 430.058299 57.781081 
L 428.467125 58.512274 
L 427.731819 59.127904 
L 427.557474 59.513165 
L 427.581883 59.799172 
L 427.822429 60.162641 
L 428.183439 60.440072 
L 428.875573 60.78294 
L 430.570334 61.30509 
L 432.706442 61.731473 
L 436.560086 62.237253 
L 441.359057 62.618494 
L 446.868603 62.814577 
L 452.370995 62.782369 
L 458.016295 62.522682 
L 464.174804 61.989715 
L 472.274901 61.025853 
L 482.33057 59.596722 
L 484.191996 59.304175 
L 484.191996 59.304175 
" style="fill:none;stroke:#000000;stroke-linecap:square;stroke-opacity:0.7;stroke-width:1.2;"/>
   </g>
   <g id="line2d_71">
    <path clip-path="url(#p123f7c812b)" d="M 547.78651 231.0889 
L 542.534929 229.997832 
L 535.282736 228.713302 
L 528.373953 227.710072 
L 522.488771 227.073833 
L 516.304605 226.644608 
L 510.891036 226.489905 
L 506.907941 226.575367 
L 503.603978 226.841322 
L 500.692216 227.272795 
L 498.213229 227.826519 
L 495.658782 228.634683 
L 493.702991 229.487956 
L 492.177096 230.398184 
L 491.241661 231.245851 
L 491.047869 231.747088 
L 491.231989 231.985273 
L 491.741555 232.117077 
L 492.743207 232.1175 
L 495.616515 231.780801 
L 503.990753 230.656219 
L 508.004774 230.340057 
L 512.558332 230.215283 
L 518.396424 230.31431 
L 542.63908 230.968403 
L 547.790556 231.078679 
L 547.790556 231.078679 
" style="fill:none;stroke:#000000;stroke-linecap:square;stroke-opacity:0.7;stroke-width:1.2;"/>
   </g>
   <g id="line2d_72">
    <path clip-path="url(#p123f7c812b)" d="M 547.818364 212.018282 
L 541.288487 210.714193 
L 533.521072 209.389351 
L 526.988608 208.475456 
L 520.130295 207.746525 
L 514.316303 207.35727 
L 509.769299 207.277102 
L 506.304461 207.414431 
L 503.099947 207.740836 
L 499.996038 208.279415 
L 496.963074 209.069627 
L 494.791684 209.851115 
L 492.778916 210.828333 
L 491.580637 211.640031 
L 490.928426 212.341055 
L 490.811678 212.736853 
L 490.924537 212.975201 
L 491.271562 213.167643 
L 492.155104 213.2982 
L 493.547246 213.273773 
L 497.051561 212.925421 
L 506.96823 211.812145 
L 512.226115 211.48879 
L 517.976012 211.385239 
L 526.12111 211.503674 
L 547.829964 212.019919 
L 547.829964 212.019919 
" style="fill:none;stroke:#000000;stroke-linecap:square;stroke-opacity:0.7;stroke-width:1.2;"/>
   </g>
   <g id="line2d_73">
    <path clip-path="url(#p123f7c812b)" d="M 547.687643 192.739149 
L 532.59526 190.459257 
L 524.543231 189.456327 
L 518.46253 188.895428 
L 512.792693 188.581316 
L 508.190401 188.53149 
L 504.29579 188.709135 
L 501.379796 189.027809 
L 498.632457 189.518733 
L 496.393369 190.096602 
L 494.062823 190.939158 
L 492.721553 191.60078 
L 491.420943 192.507553 
L 490.857351 193.217646 
L 490.807865 193.645003 
L 491.04457 193.954147 
L 491.564084 194.17412 
L 492.647608 194.323833 
L 495.091523 194.314163 
L 512.909903 193.622584 
L 528.493637 193.469187 
L 542.593052 192.924225 
L 547.68805 192.698463 
L 547.68805 192.698463 
" style="fill:none;stroke:#000000;stroke-linecap:square;stroke-opacity:0.7;stroke-width:1.2;"/>
   </g>
   <g id="line2d_74">
    <path clip-path="url(#p123f7c812b)" d="M 548.073372 174.374644 
L 542.278499 173.071247 
L 534.987842 171.657618 
L 527.915134 170.511015 
L 522.246255 169.797009 
L 516.927351 169.33687 
L 511.933068 169.134117 
L 507.981273 169.19185 
L 504.13712 169.498422 
L 500.916416 169.988492 
L 498.068966 170.636502 
L 495.666656 171.384871 
L 493.355629 172.362643 
L 492.023441 173.131174 
L 491.304545 173.689176 
L 490.762268 174.373288 
L 490.697514 174.782743 
L 490.896418 175.11762 
L 491.271874 175.348538 
L 491.978639 175.564444 
L 493.64368 175.779126 
L 496.566593 175.874024 
L 501.81162 175.792403 
L 509.431939 175.450981 
L 520.206437 174.700236 
L 527.999222 174.24764 
L 534.733052 174.109171 
L 542.484995 174.186149 
L 548.068348 174.330032 
L 548.068348 174.330032 
" style="fill:none;stroke:#000000;stroke-linecap:square;stroke-opacity:0.7;stroke-width:1.2;"/>
   </g>
   <g id="line2d_75">
    <path clip-path="url(#p123f7c812b)" d="M 547.861066 154.803422 
L 527.910247 151.937848 
L 520.833373 151.157596 
L 514.987428 150.727425 
L 510.01186 150.577142 
L 505.710279 150.689217 
L 502.107375 151.019374 
L 498.833165 151.556323 
L 496.194495 152.202952 
L 493.876002 153.003009 
L 492.103329 153.885846 
L 491.205865 154.587505 
L 490.910908 155.036489 
L 490.892366 155.378113 
L 491.1238 155.698951 
L 491.768424 156.018585 
L 493.030795 156.299402 
L 495.518345 156.543166 
L 500.182218 156.70254 
L 507.349386 156.702947 
L 515.454902 156.490523 
L 524.97686 155.998696 
L 544.064454 154.938316 
L 547.864121 154.774796 
L 547.864121 154.774796 
" style="fill:none;stroke:#000000;stroke-linecap:square;stroke-opacity:0.7;stroke-width:1.2;"/>
   </g>
   <g id="line2d_76">
    <path clip-path="url(#p123f7c812b)" d="M 548.045039 136.052897 
L 541.373905 134.769683 
L 533.33876 133.456554 
L 526.390279 132.554027 
L 520.552892 132.010822 
L 514.742275 131.668312 
L 509.448477 131.566201 
L 505.222973 131.716899 
L 501.44549 132.105235 
L 498.370471 132.650798 
L 495.76301 133.330919 
L 493.825779 134.032551 
L 492.134782 134.914321 
L 491.445798 135.470743 
L 491.073029 136.08484 
L 491.149613 136.501835 
L 491.378312 136.731404 
L 492.021214 137.022055 
L 493.330534 137.271004 
L 495.703392 137.420395 
L 500.868706 137.431075 
L 522.903548 137.114225 
L 548.045842 136.035674 
L 548.045842 136.035674 
" style="fill:none;stroke:#000000;stroke-linecap:square;stroke-opacity:0.7;stroke-width:1.2;"/>
   </g>
   <g id="line2d_77">
    <path clip-path="url(#p123f7c812b)" d="M 548.021975 116.927449 
L 537.662249 115.099074 
L 529.546936 113.891188 
L 522.837995 113.104319 
L 517.034789 112.62496 
L 511.882059 112.403094 
L 507.852508 112.433129 
L 504.123223 112.686798 
L 501.029994 113.098571 
L 497.979318 113.715549 
L 494.977415 114.586659 
L 493.021316 115.37564 
L 491.721179 116.104163 
L 491.089701 116.630016 
L 490.765187 117.200356 
L 490.808009 117.516798 
L 491.128519 117.860588 
L 491.670423 118.123225 
L 493.141366 118.474918 
L 495.772996 118.75979 
L 500.146475 118.952551 
L 506.666506 118.992028 
L 513.761455 118.809253 
L 522.899761 118.321284 
L 543.107355 117.147846 
L 548.015099 116.895394 
L 548.015099 116.895394 
" style="fill:none;stroke:#000000;stroke-linecap:square;stroke-opacity:0.7;stroke-width:1.2;"/>
   </g>
   <g id="line2d_78">
    <path clip-path="url(#p123f7c812b)" d="M 548.129492 98.162935 
L 537.742772 96.315342 
L 528.668618 94.899962 
L 522.879042 94.197567 
L 517.467032 93.769466 
L 512.562737 93.602034 
L 508.387664 93.659425 
L 504.509633 93.915504 
L 500.686634 94.38762 
L 497.04478 95.077982 
L 494.428201 95.780109 
L 492.562497 96.475433 
L 491.281921 97.202125 
L 490.782967 97.7747 
L 490.78242 98.226574 
L 491.096648 98.576388 
L 491.910449 98.974402 
L 493.342088 99.358642 
L 495.888875 99.764563 
L 499.928352 100.139421 
L 504.560036 100.351224 
L 509.930984 100.356972 
L 515.653566 100.114045 
L 523.622611 99.511625 
L 534.489757 98.706154 
L 545.096422 98.199403 
L 548.125107 98.078393 
L 548.125107 98.078393 
" style="fill:none;stroke:#000000;stroke-linecap:square;stroke-opacity:0.7;stroke-width:1.2;"/>
   </g>
   <g id="line2d_79">
    <path clip-path="url(#p123f7c812b)" d="M 547.957792 78.558882 
L 539.000906 77.108681 
L 529.834451 75.831373 
L 523.42647 75.143956 
L 517.272086 74.69956 
L 511.374478 74.485644 
L 506.613961 74.523664 
L 503.038003 74.737209 
L 499.37514 75.184958 
L 496.231578 75.831026 
L 494.245161 76.434795 
L 492.459378 77.223534 
L 491.600528 77.801236 
L 491.172878 78.262281 
L 490.997578 78.809811 
L 491.137164 79.186373 
L 491.429603 79.472582 
L 492.004511 79.789578 
L 493.119215 80.150675 
L 495.620724 80.59085 
L 498.549188 80.870784 
L 503.956591 81.139258 
L 513.05344 81.332319 
L 519.894286 81.275377 
L 525.399334 80.994808 
L 532.085031 80.381194 
L 544.737882 78.926003 
L 547.962174 78.535603 
L 547.962174 78.535603 
" style="fill:none;stroke:#000000;stroke-linecap:square;stroke-opacity:0.7;stroke-width:1.2;"/>
   </g>
   <g id="line2d_80">
    <path clip-path="url(#p123f7c812b)" d="M 547.909851 59.372277 
L 542.040665 58.712805 
L 529.436996 57.014174 
L 521.236399 56.016135 
L 515.482097 55.529613 
L 510.857166 55.334501 
L 507.051778 55.365936 
L 503.779694 55.569321 
L 500.632201 55.942608 
L 497.283596 56.568831 
L 494.672872 57.28775 
L 492.595771 58.132076 
L 491.439655 58.891155 
L 490.986622 59.472904 
L 490.909355 59.879328 
L 491.064485 60.300382 
L 491.431335 60.672385 
L 492.167905 61.100801 
L 493.509536 61.594619 
L 495.919154 62.182037 
L 499.237571 62.741044 
L 503.353333 63.208895 
L 507.710574 63.478408 
L 512.246858 63.535782 
L 517.346333 63.377798 
L 522.496796 63.022074 
L 528.698951 62.366416 
L 536.10626 61.344553 
L 544.922614 59.891323 
L 547.909003 59.342609 
L 547.909003 59.342609 
" style="fill:none;stroke:#000000;stroke-linecap:square;stroke-opacity:0.7;stroke-width:1.2;"/>
   </g>
   <g id="line2d_81">
    <path clip-path="url(#p123f7c812b)" d="M 611.678197 231.394259 
L 606.816928 230.335021 
L 600.078358 229.08352 
L 592.600047 227.932515 
L 586.18725 227.17997 
L 580.785982 226.762685 
L 576.138007 226.596828 
L 572.24464 226.637458 
L 568.572785 226.875626 
L 565.385873 227.283418 
L 562.25577 227.916698 
L 559.784921 228.63274 
L 557.748373 229.426439 
L 556.040271 230.314618 
L 554.779294 231.251791 
L 554.425115 231.740016 
L 554.427158 231.958854 
L 554.658469 232.131324 
L 555.204449 232.214129 
L 556.674377 232.148766 
L 560.967081 231.628151 
L 568.953984 230.683108 
L 574.632911 230.223366 
L 580.49468 229.960906 
L 587.114946 229.887362 
L 593.398905 230.031039 
L 600.778705 230.434492 
L 609.025022 231.101455 
L 611.677732 231.358483 
L 611.677732 231.358483 
" style="fill:none;stroke:#000000;stroke-linecap:square;stroke-opacity:0.7;stroke-width:1.2;"/>
   </g>
   <g id="line2d_82">
    <path clip-path="url(#p123f7c812b)" d="M 611.292215 211.662099 
L 600.108787 209.925531 
L 590.767904 208.629628 
L 584.451585 207.976803 
L 578.449561 207.595865 
L 573.300344 207.472393 
L 569.387494 207.567934 
L 566.316595 207.813604 
L 563.104275 208.287829 
L 560.724948 208.828431 
L 558.312285 209.611146 
L 556.794499 210.289989 
L 555.438345 211.130638 
L 554.776985 211.771732 
L 554.597486 212.224861 
L 554.679766 212.42499 
L 555.079087 212.623434 
L 555.844506 212.699035 
L 557.881389 212.591661 
L 566.597154 211.906957 
L 570.938585 211.823524 
L 576.189191 211.977004 
L 589.001975 212.517362 
L 595.301598 212.440011 
L 603.742766 212.097584 
L 611.281965 211.651986 
L 611.281965 211.651986 
" style="fill:none;stroke:#000000;stroke-linecap:square;stroke-opacity:0.7;stroke-width:1.2;"/>
   </g>
   <g id="line2d_83">
    <path clip-path="url(#p123f7c812b)" d="M 611.706999 193.285507 
L 607.026118 192.243027 
L 600.324965 190.972379 
L 593.318238 189.878371 
L 587.374076 189.165229 
L 581.346699 188.664977 
L 576.105199 188.438461 
L 571.905441 188.465649 
L 567.99356 188.733937 
L 564.543468 189.219262 
L 561.901835 189.783238 
L 558.985962 190.658191 
L 557.064938 191.449061 
L 555.704492 192.199929 
L 554.754331 192.977858 
L 554.480707 193.414423 
L 554.485718 193.76301 
L 554.672394 193.974595 
L 555.191696 194.182736 
L 556.477611 194.31851 
L 558.781118 194.262917 
L 564.387531 193.825428 
L 572.129613 193.277141 
L 579.022862 193.027421 
L 589.024976 192.904299 
L 600.188951 192.982887 
L 611.701834 193.249048 
L 611.701834 193.249048 
" style="fill:none;stroke:#000000;stroke-linecap:square;stroke-opacity:0.7;stroke-width:1.2;"/>
   </g>
   <g id="line2d_84">
    <path clip-path="url(#p123f7c812b)" d="M 611.57217 173.915565 
L 599.273652 171.867277 
L 590.992901 170.713107 
L 584.16783 169.985384 
L 578.542069 169.598486 
L 574.069515 169.485523 
L 570.221117 169.588572 
L 566.614436 169.911091 
L 563.432512 170.425622 
L 560.502768 171.14586 
L 558.009294 172.02592 
L 556.149134 172.965872 
L 555.161097 173.712002 
L 554.727551 174.318422 
L 554.710931 174.68346 
L 554.930248 174.967953 
L 555.48026 175.218656 
L 556.312848 175.381662 
L 558.126623 175.502493 
L 562.310246 175.484434 
L 591.271844 174.777894 
L 611.573753 173.887624 
L 611.573753 173.887624 
" style="fill:none;stroke:#000000;stroke-linecap:square;stroke-opacity:0.7;stroke-width:1.2;"/>
   </g>
   <g id="line2d_85">
    <path clip-path="url(#p123f7c812b)" d="M 611.597195 154.829728 
L 596.71316 152.495436 
L 587.625694 151.203903 
L 580.53918 150.410316 
L 575.396955 150.04205 
L 571.456661 149.988168 
L 568.127009 150.177226 
L 565.135497 150.574992 
L 562.635332 151.099467 
L 560.157886 151.825679 
L 558.002063 152.678313 
L 556.143051 153.680273 
L 554.948096 154.641254 
L 554.539322 155.301146 
L 554.544965 155.657029 
L 554.784226 155.968591 
L 555.196488 156.189885 
L 556.562853 156.492471 
L 558.982516 156.664333 
L 564.261968 156.715821 
L 580.910561 156.549152 
L 588.593726 156.26768 
L 599.352836 155.580349 
L 611.597431 154.793504 
L 611.597431 154.793504 
" style="fill:none;stroke:#000000;stroke-linecap:square;stroke-opacity:0.7;stroke-width:1.2;"/>
   </g>
   <g id="line2d_86">
    <path clip-path="url(#p123f7c812b)" d="M 611.570608 135.665095 
L 605.854515 134.627977 
L 597.879438 133.397277 
L 590.824243 132.515392 
L 584.59813 131.933219 
L 578.303138 131.559952 
L 573.61299 131.469143 
L 569.717662 131.578594 
L 565.858241 131.919896 
L 562.864025 132.393619 
L 560.203928 133.018157 
L 557.994005 133.745118 
L 556.05942 134.649488 
L 555.03722 135.372797 
L 554.654207 135.82375 
L 554.527604 136.216202 
L 554.612711 136.518318 
L 554.865619 136.773399 
L 555.321247 137.008088 
L 556.158494 137.248523 
L 558.328623 137.542463 
L 561.98679 137.720502 
L 568.537147 137.761498 
L 579.47012 137.585238 
L 588.168303 137.239569 
L 599.323217 136.528135 
L 611.581887 135.653475 
L 611.581887 135.653475 
" style="fill:none;stroke:#000000;stroke-linecap:square;stroke-opacity:0.7;stroke-width:1.2;"/>
   </g>
   <g id="line2d_87">
    <path clip-path="url(#p123f7c812b)" d="M 611.604205 116.661794 
L 599.042989 114.618731 
L 591.049028 113.518591 
L 584.715692 112.871649 
L 579.35608 112.520949 
L 573.898328 112.38758 
L 569.923936 112.500955 
L 566.176824 112.836742 
L 563.1462 113.311071 
L 560.085739 114.026361 
L 557.663482 114.8408 
L 556.124865 115.568693 
L 555.030933 116.35549 
L 554.63063 116.957618 
L 554.621563 117.304935 
L 554.792148 117.606071 
L 555.370555 117.997399 
L 556.298064 118.311555 
L 558.033567 118.631156 
L 560.926845 118.902331 
L 565.937031 119.093265 
L 572.549899 119.10653 
L 580.880361 118.891876 
L 589.645785 118.439802 
L 600.541127 117.624802 
L 611.602117 116.639145 
L 611.602117 116.639145 
" style="fill:none;stroke:#000000;stroke-linecap:square;stroke-opacity:0.7;stroke-width:1.2;"/>
   </g>
   <g id="line2d_88">
    <path clip-path="url(#p123f7c812b)" d="M 611.798701 98.037417 
L 603.953579 96.618329 
L 595.285387 95.243099 
L 588.972804 94.42617 
L 583.429186 93.927133 
L 577.823757 93.659348 
L 573.107129 93.632463 
L 568.823951 93.819407 
L 565.351279 94.16843 
L 562.075718 94.703268 
L 559.15182 95.404572 
L 556.626725 96.287021 
L 555.51039 96.849352 
L 554.632515 97.551125 
L 554.458082 97.844447 
L 554.481118 98.309115 
L 554.7539 98.610359 
L 555.344747 98.925743 
L 556.60319 99.293825 
L 559.072184 99.69497 
L 562.311224 100.001724 
L 567.627942 100.260028 
L 573.278966 100.299441 
L 580.087739 100.104402 
L 589.672836 99.566874 
L 609.841379 98.150292 
L 611.794303 97.985996 
L 611.794303 97.985996 
" style="fill:none;stroke:#000000;stroke-linecap:square;stroke-opacity:0.7;stroke-width:1.2;"/>
   </g>
   <g id="line2d_89">
    <path clip-path="url(#p123f7c812b)" d="M 611.150814 77.81831 
L 602.978076 77.189893 
L 579.879891 75.304165 
L 573.689673 75.140328 
L 568.832692 75.220728 
L 564.544574 75.51953 
L 561.260072 75.951607 
L 558.612873 76.495073 
L 556.731694 77.072759 
L 555.566197 77.613801 
L 554.951719 78.072976 
L 554.639436 78.67 
L 554.714006 78.993969 
L 555.128 79.42499 
L 555.838512 79.791614 
L 556.999162 80.156487 
L 559.19828 80.582132 
L 562.521626 80.981145 
L 567.308803 81.338823 
L 573.282009 81.557508 
L 578.59497 81.550386 
L 583.928885 81.330627 
L 588.887937 80.924702 
L 595.657107 80.140462 
L 604.815137 78.835681 
L 611.149457 77.79943 
L 611.149457 77.79943 
" style="fill:none;stroke:#000000;stroke-linecap:square;stroke-opacity:0.7;stroke-width:1.2;"/>
   </g>
   <g id="line2d_90">
    <path clip-path="url(#p123f7c812b)" d="M 611.384202 59.003343 
L 595.096636 57.207151 
L 584.813824 56.160714 
L 578.158294 55.710051 
L 572.707719 55.56327 
L 568.280691 55.683452 
L 565.080136 55.951051 
L 561.334476 56.509511 
L 558.899096 57.06655 
L 556.920789 57.703865 
L 555.468269 58.385403 
L 554.643312 59.002258 
L 554.365683 59.362643 
L 554.237606 59.815959 
L 554.328582 60.180298 
L 554.749808 60.656716 
L 555.454827 61.070468 
L 556.758664 61.540869 
L 558.571437 61.967245 
L 561.150322 62.37814 
L 565.165071 62.786331 
L 570.115522 63.03988 
L 575.005654 63.075075 
L 580.587093 62.899983 
L 586.453363 62.493772 
L 592.659718 61.827908 
L 600.526024 60.748738 
L 610.649106 59.127653 
L 611.395658 58.997892 
L 611.395658 58.997892 
" style="fill:none;stroke:#000000;stroke-linecap:square;stroke-opacity:0.7;stroke-width:1.2;"/>
   </g>
   <g id="line2d_91">
    <path clip-path="url(#p123f7c812b)" d="M 675.379322 231.434244 
L 664.964852 229.501197 
L 656.633819 228.157621 
L 650.231648 227.337095 
L 644.235219 226.781337 
L 639.242219 226.503137 
L 635.187884 226.477742 
L 631.685384 226.685541 
L 628.784159 227.075242 
L 626.221216 227.623121 
L 623.971046 228.29787 
L 621.857374 229.143689 
L 620.066008 230.08853 
L 618.724749 231.064312 
L 618.326737 231.632695 
L 618.438752 231.820329 
L 618.744828 231.897575 
L 619.791891 231.864152 
L 624.00176 231.310198 
L 629.385125 230.678891 
L 634.47673 230.317472 
L 639.184202 230.210612 
L 645.337642 230.317122 
L 673.092438 231.304776 
L 675.368398 231.388888 
L 675.368398 231.388888 
" style="fill:none;stroke:#000000;stroke-linecap:square;stroke-opacity:0.7;stroke-width:1.2;"/>
   </g>
   <g id="line2d_92">
    <path clip-path="url(#p123f7c812b)" d="M 675.490909 212.613845 
L 669.889343 211.427852 
L 661.878171 209.937504 
L 655.128075 208.886836 
L 649.797373 208.268348 
L 643.941803 207.82416 
L 637.8014 207.581712 
L 633.29343 207.599592 
L 629.459119 207.855013 
L 626.599405 208.275471 
L 624.296837 208.821045 
L 622.332163 209.489781 
L 620.728761 210.228722 
L 619.164541 211.206274 
L 618.348059 211.936644 
L 618.100739 212.400568 
L 618.237322 212.624975 
L 618.623146 212.735575 
L 619.637461 212.765659 
L 624.803475 212.444416 
L 630.291431 212.19129 
L 635.986674 212.145214 
L 645.76361 212.378434 
L 653.713895 212.468567 
L 675.48081 212.525364 
L 675.48081 212.525364 
" style="fill:none;stroke:#000000;stroke-linecap:square;stroke-opacity:0.7;stroke-width:1.2;"/>
   </g>
   <g id="line2d_93">
    <path clip-path="url(#p123f7c812b)" d="M 675.240457 192.886629 
L 657.393478 190.292078 
L 648.838176 189.291531 
L 642.436636 188.751934 
L 637.365747 188.54582 
L 633.87951 188.597369 
L 630.30525 188.887049 
L 627.14569 189.396971 
L 624.684553 189.999384 
L 622.397298 190.768316 
L 620.717482 191.513695 
L 619.567495 192.167087 
L 618.602273 192.921134 
L 618.250047 193.465021 
L 618.332162 193.76401 
L 618.721034 193.957176 
L 619.696251 194.062586 
L 621.966787 193.977484 
L 636.24015 192.994687 
L 641.882649 192.943411 
L 665.453949 193.063774 
L 675.256568 192.886337 
L 675.256568 192.886337 
" style="fill:none;stroke:#000000;stroke-linecap:square;stroke-opacity:0.7;stroke-width:1.2;"/>
   </g>
   <g id="line2d_94">
    <path clip-path="url(#p123f7c812b)" d="M 675.437855 174.255914 
L 665.661908 172.495211 
L 657.193127 171.201548 
L 649.272448 170.223518 
L 643.383707 169.676322 
L 638.490806 169.412091 
L 634.527611 169.416523 
L 630.979455 169.663557 
L 627.900152 170.114842 
L 625.089081 170.765557 
L 622.741427 171.538303 
L 620.664511 172.483178 
L 619.367386 173.308734 
L 618.68486 173.983147 
L 618.542921 174.377719 
L 618.624414 174.583414 
L 619.038315 174.818777 
L 619.617063 174.937141 
L 621.739138 175.033516 
L 628.763976 174.888595 
L 638.649838 174.779196 
L 654.178192 174.647083 
L 675.433917 174.224693 
L 675.433917 174.224693 
" style="fill:none;stroke:#000000;stroke-linecap:square;stroke-opacity:0.7;stroke-width:1.2;"/>
   </g>
   <g id="line2d_95">
    <path clip-path="url(#p123f7c812b)" d="M 674.91525 154.316576 
L 660.800007 152.569555 
L 649.271491 151.323632 
L 641.768607 150.724799 
L 635.957221 150.476011 
L 631.960922 150.504178 
L 628.155122 150.76643 
L 625.242441 151.184071 
L 623.153787 151.645434 
L 620.912653 152.367412 
L 619.523595 153.015117 
L 618.443526 153.76054 
L 617.969684 154.319991 
L 617.830778 154.848041 
L 617.992963 155.238572 
L 618.298816 155.506017 
L 619.00615 155.82684 
L 620.670399 156.183872 
L 623.542393 156.446138 
L 628.875562 156.624489 
L 638.697048 156.687915 
L 646.855016 156.559319 
L 653.596982 156.228328 
L 661.974713 155.572834 
L 673.272443 154.463351 
L 674.909043 154.277736 
L 674.909043 154.277736 
" style="fill:none;stroke:#000000;stroke-linecap:square;stroke-opacity:0.7;stroke-width:1.2;"/>
   </g>
   <g id="line2d_96">
    <path clip-path="url(#p123f7c812b)" d="M 675.081416 135.385794 
L 666.40225 134.285012 
L 648.762745 131.972473 
L 642.909024 131.522693 
L 637.805956 131.348324 
L 633.746614 131.407034 
L 630.017077 131.680767 
L 626.953264 132.116428 
L 624.409982 132.671675 
L 622.111346 133.391345 
L 620.610621 134.039758 
L 619.42795 134.742383 
L 618.667968 135.435611 
L 618.385008 136.029994 
L 618.444974 136.382155 
L 618.678189 136.657338 
L 619.07434 136.886299 
L 620.157681 137.188997 
L 621.815532 137.390621 
L 625.560686 137.537772 
L 636.722706 137.588324 
L 648.144999 137.526123 
L 654.545437 137.244956 
L 662.438306 136.641531 
L 672.641973 135.622258 
L 675.071512 135.346619 
L 675.071512 135.346619 
" style="fill:none;stroke:#000000;stroke-linecap:square;stroke-opacity:0.7;stroke-width:1.2;"/>
   </g>
   <g id="line2d_97">
    <path clip-path="url(#p123f7c812b)" d="M 675.182727 116.484056 
L 667.143938 115.508822 
L 646.913396 112.896446 
L 641.041995 112.492293 
L 636.320815 112.363055 
L 632.462448 112.44687 
L 629.087167 112.717996 
L 625.970546 113.187584 
L 623.246089 113.83615 
L 621.101108 114.588381 
L 619.831227 115.212914 
L 618.802337 115.951653 
L 618.339065 116.56388 
L 618.27161 116.993012 
L 618.420247 117.32769 
L 618.899659 117.703271 
L 619.899829 118.067432 
L 621.63451 118.381868 
L 625.019757 118.660603 
L 630.158174 118.821445 
L 639.503321 118.873892 
L 647.635276 118.715442 
L 654.681038 118.329163 
L 663.950437 117.568672 
L 675.177473 116.447235 
L 675.177473 116.447235 
" style="fill:none;stroke:#000000;stroke-linecap:square;stroke-opacity:0.7;stroke-width:1.2;"/>
   </g>
   <g id="line2d_98">
    <path clip-path="url(#p123f7c812b)" d="M 675.443549 97.833564 
L 662.9745 96.016074 
L 652.862252 94.648466 
L 645.514963 93.887343 
L 639.707483 93.491821 
L 635.882096 93.407154 
L 632.50876 93.512873 
L 629.620441 93.77078 
L 626.312112 94.288742 
L 623.868219 94.858447 
L 621.745167 95.536163 
L 619.935626 96.354269 
L 618.922398 97.074425 
L 618.571212 97.555358 
L 618.522093 97.90562 
L 618.668017 98.208441 
L 619.102184 98.532957 
L 619.960613 98.849564 
L 621.970563 99.219876 
L 625.181093 99.516718 
L 631.272577 99.798884 
L 638.755304 99.920406 
L 646.093797 99.805698 
L 653.424069 99.457786 
L 665.949994 98.583924 
L 675.440917 97.801922 
L 675.440917 97.801922 
" style="fill:none;stroke:#000000;stroke-linecap:square;stroke-opacity:0.7;stroke-width:1.2;"/>
   </g>
   <g id="line2d_99">
    <path clip-path="url(#p123f7c812b)" d="M 675.430783 78.691948 
L 668.957488 77.973336 
L 643.700939 74.977316 
L 638.480174 74.678105 
L 634.668916 74.641817 
L 630.734396 74.842052 
L 627.698936 75.203178 
L 624.430014 75.843382 
L 621.841804 76.610871 
L 619.970378 77.433639 
L 619.102548 78.019702 
L 618.681966 78.549147 
L 618.657628 78.929423 
L 618.848357 79.211369 
L 619.395212 79.543463 
L 620.569854 79.907354 
L 622.622577 80.272235 
L 626.181445 80.657508 
L 631.436472 80.99341 
L 637.909031 81.171568 
L 645.067218 81.126052 
L 652.307691 80.838864 
L 659.789905 80.301115 
L 669.467994 79.362909 
L 675.43213 78.658528 
L 675.43213 78.658528 
" style="fill:none;stroke:#000000;stroke-linecap:square;stroke-opacity:0.7;stroke-width:1.2;"/>
   </g>
   <g id="line2d_100">
    <path clip-path="url(#p123f7c812b)" d="M 675.072253 58.958081 
L 670.573937 58.68201 
L 661.746114 57.906314 
L 635.865004 55.475043 
L 631.850676 55.490046 
L 628.667533 55.729486 
L 625.564058 56.198182 
L 622.939936 56.824432 
L 621.286199 57.376043 
L 619.647844 58.141132 
L 618.796129 58.746555 
L 618.299781 59.433369 
L 618.299386 59.921241 
L 618.568409 60.309236 
L 619.133932 60.684817 
L 619.939813 61.005449 
L 621.644961 61.428953 
L 624.559286 61.880453 
L 629.319328 62.366406 
L 635.557045 62.770459 
L 641.679926 62.929705 
L 646.834101 62.840904 
L 651.430162 62.546164 
L 656.885977 61.945245 
L 663.482623 60.978531 
L 671.745803 59.540584 
L 675.066238 58.913043 
L 675.066238 58.913043 
" style="fill:none;stroke:#000000;stroke-linecap:square;stroke-opacity:0.7;stroke-width:1.2;"/>
   </g>
  </g>
 </g>
 <defs>
  <clipPath id="p123f7c812b">
   <rect height="262.08" width="694.08" x="12.96" y="12.96"/>
  </clipPath>
 </defs>
</svg>
