<?xml version="1.0" encoding="utf-8" standalone="no"?>
<!DOCTYPE svg PUBLIC "-//W3C//DTD SVG 1.1//EN"
  "http://www.w3.org/Graphics/SVG/1.1/DTD/svg11.dtd">
<!-- Created with matplotlib (https://matplotlib.org/) -->
<svg height="288pt" version="1.1" viewBox="0 0 720 288" width="720pt" xmlns="http://www.w3.org/2000/svg" xmlns:xlink="http://www.w3.org/1999/xlink">
 <metadata>
  <rdf:RDF xmlns:cc="http://creativecommons.org/ns#" xmlns:dc="http://purl.org/dc/elements/1.1/" xmlns:rdf="http://www.w3.org/1999/02/22-rdf-syntax-ns#">
   <cc:Work>
    <dc:type rdf:resource="http://purl.org/dc/dcmitype/StillImage"/>
    <dc:date>2021-04-26T15:41:50.467228</dc:date>
    <dc:format>image/svg+xml</dc:format>
    <dc:creator>
     <cc:Agent>
      <dc:title>Matplotlib v3.3.4, https://matplotlib.org/</dc:title>
     </cc:Agent>
    </dc:creator>
   </cc:Work>
  </rdf:RDF>
 </metadata>
 <defs>
  <style type="text/css">*{stroke-linecap:butt;stroke-linejoin:round;}</style>
 </defs>
 <g id="figure_1">
  <g id="patch_1">
   <path d="M 0 288 
L 720 288 
L 720 0 
L 0 0 
z
" style="fill:#ffffff;"/>
  </g>
  <g id="axes_1">
   <g id="line2d_1">
    <path clip-path="url(#p8eb016c7d8)" d="M 148.942713 226.992002 
L 126.232862 222.992957 
L 118.022248 221.77266 
L 110.560684 220.888691 
L 104.851152 220.418226 
L 98.42886 220.12913 
L 91.288822 220.065774 
L 83.473056 220.219207 
L 74.611252 220.609508 
L 66.195415 221.2151 
L 59.459947 221.93585 
L 54.272068 222.722934 
L 50.338649 223.563608 
L 48.671861 224.037344 
L 46.703977 224.782534 
L 45.410452 225.550868 
L 44.973774 226.004969 
L 44.771972 226.517118 
L 44.815349 226.864062 
L 45.096435 227.310545 
L 45.52601 227.675116 
L 45.974364 227.94834 
L 47.491852 228.587958 
L 49.627161 229.193354 
L 53.26892 229.906024 
L 58.033154 230.533513 
L 62.489687 230.921726 
L 67.608375 231.17941 
L 73.884207 231.248422 
L 79.936598 231.086286 
L 88.055011 230.61713 
L 121.775715 228.36497 
L 142.547238 227.352124 
L 148.970364 227.082799 
L 148.970364 227.082799 
" style="fill:none;stroke:#000000;stroke-linecap:square;stroke-opacity:0.7;stroke-width:1.2;"/>
   </g>
   <g id="line2d_2">
    <path clip-path="url(#p8eb016c7d8)" d="M 148.528171 186.555068 
L 137.332691 183.210908 
L 126.622031 180.234773 
L 116.159105 177.546353 
L 104.707954 174.84804 
L 95.969346 172.988104 
L 89.713258 171.868953 
L 85.265252 171.263398 
L 80.70202 170.87494 
L 76.923697 170.776633 
L 73.2333 170.911387 
L 69.879257 171.257822 
L 66.555424 171.835066 
L 64.256072 172.383381 
L 60.966469 173.400549 
L 59.018325 174.144084 
L 56.050784 175.502933 
L 53.576208 176.874285 
L 50.789537 178.736371 
L 48.682783 180.443147 
L 47.09589 181.996002 
L 45.678068 183.799861 
L 45.092545 184.940034 
L 44.89516 185.845979 
L 44.982525 186.463602 
L 45.395566 187.083897 
L 46.163547 187.56046 
L 47.235864 187.881135 
L 49.160733 188.117497 
L 51.930391 188.164613 
L 56.328691 187.981309 
L 78.304753 186.719419 
L 88.034258 186.54154 
L 108.002657 186.523333 
L 141.691545 186.548999 
L 148.552609 186.643499 
L 148.552609 186.643499 
" style="fill:none;stroke:#000000;stroke-linecap:square;stroke-opacity:0.7;stroke-width:1.2;"/>
   </g>
   <g id="line2d_3">
    <path clip-path="url(#p8eb016c7d8)" d="M 148.409455 147.010431 
L 134.297529 143.86347 
L 123.589442 141.700631 
L 114.82772 140.159857 
L 107.855186 139.154871 
L 101.116382 138.428368 
L 94.264067 137.960838 
L 87.649353 137.768588 
L 81.825406 137.817973 
L 75.894868 138.102386 
L 71.071883 138.531305 
L 66.595951 139.1103 
L 62.000051 139.915847 
L 57.800144 140.881152 
L 54.549929 141.82445 
L 51.227649 143.042788 
L 48.682256 144.258459 
L 47.206391 145.17497 
L 45.957761 146.241953 
L 45.348658 147.10765 
L 45.187207 147.622907 
L 45.205569 148.132986 
L 45.418715 148.610853 
L 45.82878 149.053225 
L 46.184019 149.309973 
L 47.72531 149.99753 
L 49.311222 150.419872 
L 52.444035 150.927778 
L 56.721288 151.294308 
L 61.518098 151.467184 
L 67.4591 151.45498 
L 74.686839 151.190668 
L 83.860201 150.588939 
L 106.672973 148.940562 
L 123.685941 148.061155 
L 144.580057 147.19762 
L 148.428636 147.065725 
L 148.428636 147.065725 
" style="fill:none;stroke:#000000;stroke-linecap:square;stroke-opacity:0.7;stroke-width:1.2;"/>
   </g>
   <g id="line2d_4">
    <path clip-path="url(#p8eb016c7d8)" d="M 148.998824 108.734744 
L 123.051434 105.41185 
L 114.104709 104.569195 
L 105.96357 104.047283 
L 98.032871 103.776046 
L 88.295454 103.676788 
L 78.956438 103.773232 
L 71.082173 104.056378 
L 64.048951 104.53213 
L 57.995974 105.155063 
L 52.555748 105.932838 
L 48.190212 106.793129 
L 45.799716 107.49758 
L 45.090818 107.869484 
L 44.892423 108.1836 
L 45.073752 108.451041 
L 45.680176 108.738875 
L 47.313351 109.139573 
L 50.207364 109.567443 
L 55.088443 110.029758 
L 61.203154 110.388892 
L 68.637413 110.607212 
L 76.892712 110.633139 
L 90.866773 110.402584 
L 129.116436 109.544565 
L 149.019586 108.810327 
L 149.019586 108.810327 
" style="fill:none;stroke:#000000;stroke-linecap:square;stroke-opacity:0.7;stroke-width:1.2;"/>
   </g>
   <g id="line2d_5">
    <path clip-path="url(#p8eb016c7d8)" d="M 149.026933 69.101229 
L 140.04482 66.785929 
L 130.288756 64.507042 
L 122.128932 62.808653 
L 114.187843 61.384411 
L 107.329175 60.387132 
L 101.514103 59.736892 
L 94.577578 59.192987 
L 87.474168 58.879692 
L 81.465484 58.815449 
L 75.329715 58.976065 
L 70.422093 59.305736 
L 66.426222 59.733384 
L 61.874351 60.42976 
L 57.984779 61.240981 
L 54.664225 62.134884 
L 51.763219 63.118672 
L 48.901722 64.362411 
L 46.916687 65.498616 
L 45.671115 66.455725 
L 44.971629 67.217357 
L 44.549683 68.062517 
L 44.540791 68.679832 
L 44.689238 69.040342 
L 45.122866 69.520636 
L 46.03791 70.045339 
L 47.384483 70.485024 
L 49.716258 70.917283 
L 53.328332 71.256168 
L 57.912527 71.439917 
L 65.720893 71.50159 
L 100.179117 71.31523 
L 111.437434 71.025924 
L 125.74577 70.391015 
L 149.035704 69.206787 
L 149.035704 69.206787 
" style="fill:none;stroke:#000000;stroke-linecap:square;stroke-opacity:0.7;stroke-width:1.2;"/>
   </g>
   <g id="line2d_6">
    <path clip-path="url(#p8eb016c7d8)" d="M 280.489179 226.429617 
L 276.651643 224.803342 
L 270.654598 222.527575 
L 264.682706 220.500093 
L 258.630692 218.653772 
L 251.947227 216.849471 
L 245.632207 215.378837 
L 238.961316 214.08974 
L 233.115186 213.195367 
L 227.325867 212.533741 
L 221.624937 212.114604 
L 216.985321 211.965058 
L 211.787815 212.035024 
L 206.758161 212.381724 
L 202.818753 212.875669 
L 199.11538 213.544833 
L 195.664152 214.373118 
L 192.485679 215.338305 
L 189.170751 216.59034 
L 186.291686 217.92661 
L 183.634755 219.423064 
L 181.335349 220.996439 
L 179.979683 222.09987 
L 178.436839 223.629571 
L 177.434068 225.010343 
L 177.085378 225.884376 
L 177.0795 226.490434 
L 177.300985 226.915921 
L 177.841951 227.287706 
L 178.785772 227.538173 
L 179.887311 227.631609 
L 182.263397 227.571061 
L 186.300591 227.176704 
L 211.088382 224.224281 
L 218.892877 223.648889 
L 227.124328 223.255214 
L 234.198285 223.090438 
L 242.155932 223.119337 
L 249.369769 223.358259 
L 256.891641 223.814941 
L 265.191701 224.542312 
L 272.798565 225.402867 
L 280.482396 226.466282 
L 280.482396 226.466282 
" style="fill:none;stroke:#000000;stroke-linecap:square;stroke-opacity:0.7;stroke-width:1.2;"/>
   </g>
   <g id="line2d_7">
    <path clip-path="url(#p8eb016c7d8)" d="M 280.143484 186.303387 
L 257.376568 183.296243 
L 245.109434 181.910061 
L 233.027133 180.771807 
L 216.794241 179.453662 
L 209.789611 179.116193 
L 205.00995 179.080537 
L 199.718839 179.293037 
L 196.290973 179.59926 
L 191.796615 180.235871 
L 188.179836 180.975551 
L 184.488257 181.991131 
L 181.280091 183.161273 
L 178.824399 184.337001 
L 177.392793 185.243472 
L 176.700115 185.887871 
L 176.596408 186.262991 
L 176.743428 186.386153 
L 177.402357 186.464997 
L 179.006395 186.310141 
L 196.414668 183.850398 
L 201.686052 183.457364 
L 207.066909 183.288814 
L 213.449933 183.383849 
L 220.723281 183.790644 
L 243.967212 185.390705 
L 255.765902 185.835425 
L 277.667431 186.372043 
L 280.194438 186.433075 
L 280.194438 186.433075 
" style="fill:none;stroke:#000000;stroke-linecap:square;stroke-opacity:0.7;stroke-width:1.2;"/>
   </g>
   <g id="line2d_8">
    <path clip-path="url(#p8eb016c7d8)" d="M 280.382535 147.562432 
L 272.958635 145.828796 
L 262.1122 143.511774 
L 252.366594 141.63484 
L 244.959911 140.39754 
L 238.763337 139.560734 
L 233.015431 139.004044 
L 227.467688 138.688628 
L 221.621147 138.573196 
L 214.113934 138.685445 
L 206.818802 139.014654 
L 199.574976 139.550676 
L 193.773717 140.182863 
L 189.706275 140.793569 
L 185.548743 141.649088 
L 183.044146 142.343352 
L 180.427024 143.309186 
L 178.733471 144.15628 
L 177.124862 145.290768 
L 176.209715 146.305388 
L 175.75433 147.240665 
L 175.653627 148.146819 
L 175.753621 148.686684 
L 176.079085 149.407457 
L 176.650263 150.144923 
L 177.121944 150.592891 
L 178.868996 151.777751 
L 180.779191 152.691155 
L 183.073225 153.535109 
L 186.296613 154.449342 
L 189.807081 155.208425 
L 193.910976 155.868923 
L 199.04176 156.420345 
L 204.118057 156.712814 
L 209.294077 156.792219 
L 215.869929 156.638049 
L 222.526903 156.26048 
L 230.931891 155.533261 
L 239.193019 154.567145 
L 248.057828 153.289117 
L 260.221155 151.276254 
L 277.801205 148.10429 
L 280.379423 147.629967 
L 280.379423 147.629967 
" style="fill:none;stroke:#000000;stroke-linecap:square;stroke-opacity:0.7;stroke-width:1.2;"/>
   </g>
   <g id="line2d_9">
    <path clip-path="url(#p8eb016c7d8)" d="M 280.793425 109.33365 
L 267.233593 107.141037 
L 251.246383 104.628024 
L 243.202025 103.554162 
L 236.89572 102.895796 
L 231.107515 102.467566 
L 222.544424 102.105774 
L 214.068813 101.977111 
L 206.580743 102.037653 
L 199.323342 102.307385 
L 193.796298 102.708941 
L 189.441248 103.188068 
L 185.190039 103.84728 
L 181.690935 104.603989 
L 179.554399 105.22684 
L 177.558465 106.037468 
L 176.44938 106.757336 
L 176.007165 107.324942 
L 175.985556 107.954038 
L 176.254239 108.360728 
L 176.7526 108.759929 
L 178.114866 109.411348 
L 180.042072 110.010145 
L 183.320874 110.722116 
L 187.568956 111.384901 
L 192.562524 111.961245 
L 200.267127 112.580319 
L 208.071259 112.973331 
L 218.855884 113.264159 
L 230.688317 113.355049 
L 240.180159 113.21313 
L 248.551175 112.856451 
L 257.352845 112.231391 
L 265.834433 111.406152 
L 275.12861 110.265046 
L 280.813697 109.446811 
L 280.813697 109.446811 
" style="fill:none;stroke:#000000;stroke-linecap:square;stroke-opacity:0.7;stroke-width:1.2;"/>
   </g>
   <g id="line2d_10">
    <path clip-path="url(#p8eb016c7d8)" d="M 280.556721 69.145506 
L 253.146965 63.92846 
L 243.738715 62.398067 
L 235.57982 61.313361 
L 227.81048 60.524973 
L 219.56965 59.923434 
L 212.646943 59.627638 
L 207.191846 59.587276 
L 202.378497 59.742805 
L 197.088175 60.17268 
L 192.59936 60.794087 
L 188.028232 61.723404 
L 184.685724 62.64126 
L 181.324905 63.840729 
L 179.492793 64.663231 
L 177.720875 65.6474 
L 176.495903 66.548744 
L 175.907133 67.174993 
L 175.632151 67.717401 
L 175.657013 68.193252 
L 175.956829 68.5682 
L 176.528446 68.880968 
L 177.517 69.165047 
L 178.860692 69.376484 
L 182.075962 69.594257 
L 187.924393 69.635683 
L 202.909021 69.32438 
L 211.953117 69.293237 
L 220.242796 69.483328 
L 244.422192 70.211352 
L 254.527891 70.156525 
L 266.776229 69.845149 
L 280.567557 69.261482 
L 280.567557 69.261482 
" style="fill:none;stroke:#000000;stroke-linecap:square;stroke-opacity:0.7;stroke-width:1.2;"/>
   </g>
   <g id="line2d_11">
    <path clip-path="url(#p8eb016c7d8)" d="M 412.409655 227.687127 
L 403.366826 225.111119 
L 393.365292 222.485704 
L 383.611655 220.167079 
L 375.774613 218.543548 
L 370.028803 217.546914 
L 364.155367 216.736592 
L 358.348583 216.149413 
L 351.913182 215.731579 
L 345.525769 215.551842 
L 339.06352 215.631991 
L 333.339156 215.968791 
L 328.630396 216.478764 
L 324.246724 217.191528 
L 320.176307 218.119491 
L 317.349267 218.965214 
L 314.804042 219.922315 
L 312.278957 221.144935 
L 310.683532 222.150592 
L 309.379814 223.243034 
L 308.552222 224.273802 
L 308.227086 224.98656 
L 308.134586 225.687864 
L 308.205555 226.111394 
L 308.486506 226.691995 
L 309.269329 227.468146 
L 310.108838 227.980478 
L 311.975359 228.738609 
L 314.736577 229.470317 
L 318.82812 230.193947 
L 323.665965 230.779645 
L 329.59156 231.283964 
L 338.861444 231.835982 
L 354.405956 232.510038 
L 363.853549 232.701143 
L 369.975898 232.634389 
L 376.099125 232.376344 
L 383.557169 231.814779 
L 391.00131 231.028091 
L 399.864851 229.847188 
L 408.549048 228.452318 
L 412.402452 227.757376 
L 412.402452 227.757376 
" style="fill:none;stroke:#000000;stroke-linecap:square;stroke-opacity:0.7;stroke-width:1.2;"/>
   </g>
   <g id="line2d_12">
    <path clip-path="url(#p8eb016c7d8)" d="M 411.782665 186.637385 
L 404.50485 185.024274 
L 395.790969 183.302697 
L 386.432907 181.688887 
L 378.433392 180.530072 
L 370.386876 179.619622 
L 363.037396 179.041373 
L 354.881826 178.660375 
L 347.39717 178.519672 
L 340.032713 178.599238 
L 334.169658 178.871307 
L 329.227033 179.294386 
L 324.516747 179.912331 
L 320.882426 180.574266 
L 317.048458 181.509521 
L 314.24141 182.41651 
L 311.86726 183.423439 
L 310.200342 184.37917 
L 309.082265 185.303657 
L 308.500586 186.121236 
L 308.334271 186.722 
L 308.418536 187.336445 
L 308.720259 187.861019 
L 309.488573 188.547256 
L 310.721509 189.211874 
L 312.453157 189.841719 
L 315.563496 190.606955 
L 318.802911 191.155828 
L 323.951472 191.73911 
L 329.586188 192.108069 
L 335.935942 192.276475 
L 342.698707 192.238575 
L 350.953097 191.980103 
L 360.547156 191.472123 
L 370.577244 190.724095 
L 384.665924 189.401343 
L 411.780105 186.698618 
L 411.780105 186.698618 
" style="fill:none;stroke:#000000;stroke-linecap:square;stroke-opacity:0.7;stroke-width:1.2;"/>
   </g>
   <g id="line2d_13">
    <path clip-path="url(#p8eb016c7d8)" d="M 412.001788 147.777101 
L 407.993046 145.894801 
L 402.177578 143.44155 
L 396.345578 141.227739 
L 390.53449 139.2371 
L 384.778459 137.473075 
L 379.026563 135.926985 
L 373.057363 134.571805 
L 367.889133 133.62062 
L 362.882534 132.903235 
L 356.959949 132.310403 
L 351.412999 132.001313 
L 346.43065 131.932598 
L 341.458899 132.079713 
L 336.950162 132.424618 
L 333.178548 132.89183 
L 329.007598 133.632674 
L 325.702531 134.421115 
L 322.979749 135.235207 
L 320.409524 136.173171 
L 317.433055 137.527218 
L 314.972359 138.947781 
L 313.123043 140.280864 
L 311.49361 141.753423 
L 310.302743 143.136103 
L 309.377288 144.592824 
L 308.819525 145.969372 
L 308.658611 146.719714 
L 308.646754 147.882938 
L 308.696891 148.173822 
L 309.228975 149.425214 
L 309.785702 150.0877 
L 310.809518 150.867052 
L 312.563749 151.683681 
L 314.696156 152.294971 
L 316.78061 152.68907 
L 320.087338 153.085127 
L 324.511714 153.357544 
L 330.124424 153.448284 
L 337.484245 153.296176 
L 346.334556 152.86384 
L 357.787028 152.07913 
L 373.840639 150.744828 
L 395.567887 148.948224 
L 410.471383 147.936832 
L 412.00106 147.843323 
L 412.00106 147.843323 
" style="fill:none;stroke:#000000;stroke-linecap:square;stroke-opacity:0.7;stroke-width:1.2;"/>
   </g>
   <g id="line2d_14">
    <path clip-path="url(#p8eb016c7d8)" d="M 412.295274 108.996195 
L 404.180789 107.18208 
L 395.246442 105.381082 
L 386.315942 103.802147 
L 379.330421 102.766769 
L 373.156089 102.048204 
L 367.648727 101.59499 
L 360.776676 101.274569 
L 352.771865 101.156007 
L 343.431704 101.23317 
L 334.891317 101.52298 
L 328.524263 101.971747 
L 323.500582 102.542463 
L 318.71726 103.335506 
L 315.110486 104.154914 
L 312.367784 104.955848 
L 309.804335 105.909708 
L 307.746274 106.942893 
L 306.885207 107.632666 
L 306.778836 107.982876 
L 306.962979 108.161417 
L 307.538614 108.301811 
L 308.3575 108.342227 
L 310.904861 108.214268 
L 317.923601 107.49124 
L 332.269848 105.99466 
L 339.884859 105.451551 
L 345.816015 105.233344 
L 352.194766 105.211363 
L 359.505898 105.414552 
L 369.285481 105.942385 
L 387.499097 107.231049 
L 412.308889 109.059678 
L 412.308889 109.059678 
" style="fill:none;stroke:#000000;stroke-linecap:square;stroke-opacity:0.7;stroke-width:1.2;"/>
   </g>
   <g id="line2d_15">
    <path clip-path="url(#p8eb016c7d8)" d="M 412.13149 69.10579 
L 406.855474 68.626428 
L 393.188514 67.115918 
L 378.628221 65.562312 
L 369.989984 64.844708 
L 361.306144 64.35346 
L 349.020748 63.9248 
L 338.791223 63.747333 
L 331.715561 63.8288 
L 325.494642 64.126404 
L 320.532816 64.560326 
L 315.204714 65.283262 
L 312.044373 65.899057 
L 309.633441 66.543083 
L 308.331743 67.028807 
L 307.40666 67.553507 
L 307.016917 68.017528 
L 306.982521 68.268488 
L 307.092665 68.540248 
L 307.542178 68.935104 
L 308.668299 69.443068 
L 310.860469 70.036064 
L 313.96151 70.598914 
L 318.662251 71.202923 
L 324.757821 71.759261 
L 332.498166 72.234745 
L 341.081159 72.524944 
L 350.162979 72.606818 
L 360.878526 72.48363 
L 372.825108 72.120648 
L 384.418667 71.526049 
L 395.465854 70.74078 
L 408.099451 69.616081 
L 412.162266 69.214234 
L 412.162266 69.214234 
" style="fill:none;stroke:#000000;stroke-linecap:square;stroke-opacity:0.7;stroke-width:1.2;"/>
   </g>
   <g id="line2d_16">
    <path clip-path="url(#p8eb016c7d8)" d="M 543.676569 226.70703 
L 519.087487 222.771056 
L 509.68794 221.488968 
L 500.856266 220.516498 
L 492.850232 219.885659 
L 484.507174 219.46811 
L 476.143242 219.286324 
L 469.424368 219.366781 
L 463.464624 219.674159 
L 458.298656 220.168828 
L 453.755139 220.817845 
L 448.929841 221.785601 
L 445.284458 222.783462 
L 442.266667 223.906105 
L 440.847618 224.62217 
L 439.848269 225.310746 
L 439.250505 225.976202 
L 439.076843 226.451229 
L 439.118142 226.837865 
L 439.307231 227.170025 
L 439.934217 227.678636 
L 441.084313 228.181711 
L 443.255845 228.731852 
L 446.481788 229.205999 
L 450.775 229.564529 
L 456.858535 229.810454 
L 464.857509 229.885378 
L 476.076427 229.756661 
L 494.5858 229.305021 
L 509.141738 228.724249 
L 529.565547 227.634189 
L 543.715953 226.831254 
L 543.715953 226.831254 
" style="fill:none;stroke:#000000;stroke-linecap:square;stroke-opacity:0.7;stroke-width:1.2;"/>
   </g>
   <g id="line2d_17">
    <path clip-path="url(#p8eb016c7d8)" d="M 542.801632 186.019955 
L 531.393404 184.751181 
L 510.194488 182.134053 
L 498.616779 180.825472 
L 490.882885 180.190475 
L 482.873893 179.778504 
L 475.198711 179.604171 
L 468.500605 179.657667 
L 462.204915 179.93791 
L 457.113701 180.374122 
L 452.076177 181.0436 
L 448.021155 181.812653 
L 445.299499 182.492448 
L 442.11366 183.560669 
L 440.608668 184.255174 
L 439.323939 185.094549 
L 438.712666 185.792584 
L 438.564804 186.25875 
L 438.626565 186.639873 
L 438.988525 187.117376 
L 439.415104 187.415003 
L 440.723922 187.951144 
L 442.826757 188.438595 
L 446.350221 188.916714 
L 451.665413 189.350768 
L 462.232438 189.912445 
L 483.426052 190.799559 
L 491.925716 190.927407 
L 498.553772 190.795055 
L 504.560091 190.484473 
L 512.818282 189.827734 
L 522.969445 188.783798 
L 535.747301 187.231019 
L 542.831002 186.259104 
L 542.831002 186.259104 
" style="fill:none;stroke:#000000;stroke-linecap:square;stroke-opacity:0.7;stroke-width:1.2;"/>
   </g>
   <g id="line2d_18">
    <path clip-path="url(#p8eb016c7d8)" d="M 543.391591 147.108008 
L 538.461526 145.346133 
L 530.94488 142.901403 
L 523.072532 140.577505 
L 514.408268 138.276247 
L 507.41939 136.629878 
L 500.904039 135.290439 
L 493.966678 134.101114 
L 487.526226 133.238771 
L 482.187639 132.726804 
L 476.846759 132.440089 
L 472.002175 132.420397 
L 468.323331 132.588139 
L 464.544109 132.951698 
L 461.018885 133.491583 
L 457.384734 134.284271 
L 454.407951 135.143746 
L 450.969517 136.423121 
L 447.841246 137.925187 
L 445.845287 139.104902 
L 443.853755 140.518423 
L 443.100788 141.135642 
L 441.216699 142.994902 
L 440.166649 144.402192 
L 439.499357 145.734292 
L 439.229594 146.913577 
L 439.264191 147.704776 
L 439.559135 148.560704 
L 439.764965 148.893178 
L 440.285649 149.478125 
L 440.841602 149.917027 
L 442.407836 150.732435 
L 444.492246 151.397687 
L 446.616222 151.845849 
L 450.060687 152.312992 
L 454.83387 152.659478 
L 459.521546 152.789755 
L 466.36224 152.726062 
L 474.111276 152.393131 
L 483.772054 151.726732 
L 497.191932 150.543694 
L 520.49151 148.428594 
L 531.346422 147.713884 
L 540.844939 147.296285 
L 543.421356 147.217127 
L 543.421356 147.217127 
" style="fill:none;stroke:#000000;stroke-linecap:square;stroke-opacity:0.7;stroke-width:1.2;"/>
   </g>
   <g id="line2d_19">
    <path clip-path="url(#p8eb016c7d8)" d="M 543.527122 107.830912 
L 535.387445 106.488571 
L 511.537782 102.496264 
L 501.476247 101.061273 
L 492.504958 100.005828 
L 485.002313 99.312603 
L 477.933296 98.879934 
L 472.366353 98.763088 
L 467.523297 98.877858 
L 462.712145 99.234336 
L 458.942836 99.707248 
L 454.399863 100.53525 
L 450.833056 101.415072 
L 447.630692 102.416535 
L 444.256178 103.76453 
L 441.797831 105.050621 
L 440.254093 106.14056 
L 439.489865 106.930369 
L 439.140454 107.661251 
L 439.139252 107.985826 
L 439.387181 108.459936 
L 440.013096 108.896849 
L 441.123977 109.285241 
L 442.982993 109.633432 
L 446.07538 109.930817 
L 451.943985 110.166452 
L 461.664266 110.260843 
L 487.616429 110.210168 
L 498.056064 110.020749 
L 509.139342 109.597279 
L 543.547633 107.918521 
L 543.547633 107.918521 
" style="fill:none;stroke:#000000;stroke-linecap:square;stroke-opacity:0.7;stroke-width:1.2;"/>
   </g>
   <g id="line2d_20">
    <path clip-path="url(#p8eb016c7d8)" d="M 543.68221 69.159298 
L 531.577861 65.710668 
L 519.706797 62.524299 
L 510.615939 60.275062 
L 503.942205 58.804719 
L 497.667372 57.626997 
L 491.682051 56.719483 
L 485.205157 55.977674 
L 479.275545 55.521274 
L 474.798945 55.334211 
L 469.325131 55.327525 
L 464.931135 55.539389 
L 460.767214 55.962857 
L 457.359427 56.508433 
L 454.174502 57.219696 
L 451.015382 58.168695 
L 448.937885 58.961463 
L 445.897512 60.44842 
L 444.219824 61.498622 
L 442.652882 62.701625 
L 441.1892 64.144593 
L 440.853113 64.54985 
L 440.111267 65.638496 
L 439.536661 66.992751 
L 439.402792 67.862679 
L 439.528154 68.84989 
L 439.758111 69.403697 
L 440.161444 69.995067 
L 440.816949 70.629049 
L 442.05577 71.420136 
L 443.741615 72.142603 
L 445.90666 72.795704 
L 448.770264 73.41426 
L 451.843832 73.89747 
L 457.296018 74.473033 
L 462.075595 74.773665 
L 468.676922 74.960971 
L 475.762443 74.942489 
L 485.948783 74.647588 
L 496.183779 74.122921 
L 506.46445 73.372723 
L 518.15403 72.276279 
L 531.644055 70.77856 
L 543.683923 69.246027 
L 543.683923 69.246027 
" style="fill:none;stroke:#000000;stroke-linecap:square;stroke-opacity:0.7;stroke-width:1.2;"/>
   </g>
   <g id="line2d_21">
    <path clip-path="url(#p8eb016c7d8)" d="M 675.48471 227.326997 
L 672.120437 225.514507 
L 667.363681 223.243505 
L 661.720148 220.855839 
L 655.52422 218.536444 
L 649.902609 216.676744 
L 644.258116 215.040455 
L 639.128724 213.764406 
L 633.896727 212.686808 
L 628.802339 211.870503 
L 623.71354 211.291295 
L 618.053453 210.920105 
L 612.62967 210.8287 
L 607.247574 211.000557 
L 602.387847 211.401259 
L 597.768554 212.02913 
L 594.056886 212.736737 
L 590.038165 213.74518 
L 586.819327 214.770485 
L 583.507461 216.073813 
L 580.505982 217.528854 
L 578.892762 218.44718 
L 576.754364 219.857063 
L 574.965538 221.270483 
L 573.648842 222.529667 
L 573.034149 223.225889 
L 571.998524 224.755184 
L 571.591471 225.800685 
L 571.510532 226.761649 
L 571.66776 227.392346 
L 572.040265 227.997726 
L 573.050778 228.800617 
L 574.218861 229.311505 
L 576.055712 229.787395 
L 578.795429 230.163158 
L 581.994067 230.354657 
L 586.626767 230.389245 
L 593.36833 230.169517 
L 602.535723 229.612959 
L 639.334646 227.103951 
L 648.282959 226.858622 
L 657.690819 226.833505 
L 666.309406 227.003331 
L 675.490909 227.379364 
L 675.490909 227.379364 
" style="fill:none;stroke:#000000;stroke-linecap:square;stroke-opacity:0.7;stroke-width:1.2;"/>
   </g>
   <g id="line2d_22">
    <path clip-path="url(#p8eb016c7d8)" d="M 674.927955 186.742436 
L 668.46911 186.046448 
L 657.839294 184.674296 
L 632.533707 181.320852 
L 623.830098 180.456961 
L 614.545439 179.763537 
L 606.693426 179.381957 
L 600.343207 179.290848 
L 595.093767 179.431427 
L 590.29173 179.781504 
L 585.878844 180.332461 
L 581.98397 181.044106 
L 578.575462 181.890258 
L 576.511376 182.538133 
L 573.864119 183.593668 
L 572.333624 184.403592 
L 571.254744 185.187484 
L 570.671075 185.901929 
L 570.558954 186.311965 
L 570.653645 186.693211 
L 570.961567 187.034623 
L 571.608671 187.389903 
L 572.650915 187.71354 
L 574.600421 188.058416 
L 577.491135 188.341722 
L 583.02843 188.618033 
L 595.797905 188.932892 
L 611.756133 189.425245 
L 623.649593 189.745228 
L 631.344993 189.737464 
L 639.243179 189.510886 
L 649.220243 188.980243 
L 660.772341 188.128832 
L 673.772639 186.931741 
L 674.943346 186.812433 
L 674.943346 186.812433 
" style="fill:none;stroke:#000000;stroke-linecap:square;stroke-opacity:0.7;stroke-width:1.2;"/>
   </g>
   <g id="line2d_23">
    <path clip-path="url(#p8eb016c7d8)" d="M 674.970727 147.041008 
L 672.283224 145.72393 
L 667.217822 143.492084 
L 662.079005 141.466287 
L 655.799956 139.254275 
L 649.970221 137.438406 
L 644.573726 135.96048 
L 639.631332 134.785487 
L 633.633383 133.603929 
L 628.823357 132.860372 
L 623.21886 132.227656 
L 618.22027 131.874693 
L 612.565227 131.720381 
L 607.617641 131.815656 
L 602.665732 132.15638 
L 598.091152 132.726866 
L 594.153355 133.452037 
L 590.849649 134.259813 
L 587.28465 135.378113 
L 584.263013 136.571724 
L 581.415013 137.956559 
L 579.232263 139.234133 
L 576.813032 140.939652 
L 575.316029 142.202882 
L 573.516644 144.058139 
L 572.461107 145.494171 
L 571.82937 146.804065 
L 571.674301 147.738057 
L 571.87059 148.518057 
L 572.196111 148.947194 
L 572.951911 149.456224 
L 574.61483 149.962475 
L 576.197569 150.177223 
L 579.284831 150.301617 
L 583.46775 150.179317 
L 588.576223 149.796426 
L 595.219585 149.063488 
L 603.5196 147.904774 
L 623.072989 145.031199 
L 629.419967 144.393291 
L 635.255179 144.057771 
L 640.33648 143.971452 
L 646.174365 144.084406 
L 652.609374 144.428287 
L 660.277733 145.085626 
L 667.201189 145.881041 
L 674.961441 146.992422 
L 674.961441 146.992422 
" style="fill:none;stroke:#000000;stroke-linecap:square;stroke-opacity:0.7;stroke-width:1.2;"/>
   </g>
   <g id="line2d_24">
    <path clip-path="url(#p8eb016c7d8)" d="M 675.41174 108.742365 
L 664.252739 106.019216 
L 653.746627 103.686626 
L 644.346396 101.84252 
L 637.298131 100.665696 
L 630.217523 99.719307 
L 623.354617 99.056453 
L 617.409745 98.678508 
L 610.409012 98.458231 
L 603.995341 98.489035 
L 598.014813 98.76004 
L 593.088086 99.200512 
L 588.485246 99.833742 
L 584.82135 100.532069 
L 581.640619 101.32182 
L 578.831053 102.214532 
L 576.689376 103.07472 
L 574.425461 104.269485 
L 573.003579 105.330092 
L 572.140715 106.325928 
L 571.768977 107.223407 
L 571.768561 107.90603 
L 572.029445 108.568567 
L 572.378112 109.028174 
L 573.147984 109.689865 
L 574.441831 110.438199 
L 576.18158 111.166321 
L 578.212981 111.826601 
L 581.551094 112.67844 
L 585.956008 113.546378 
L 591.345522 114.350707 
L 596.661644 114.928805 
L 602.971208 115.380426 
L 609.942013 115.636422 
L 617.964179 115.682544 
L 625.546071 115.500314 
L 632.197286 115.133139 
L 639.50961 114.483853 
L 646.868025 113.601442 
L 655.556131 112.336033 
L 665.797688 110.602788 
L 675.391217 108.767863 
L 675.391217 108.767863 
" style="fill:none;stroke:#000000;stroke-linecap:square;stroke-opacity:0.7;stroke-width:1.2;"/>
   </g>
   <g id="line2d_25">
    <path clip-path="url(#p8eb016c7d8)" d="M 675.294536 69.078467 
L 662.196059 66.207443 
L 647.802455 63.156677 
L 638.573995 61.407858 
L 630.607815 60.132654 
L 623.818729 59.2642 
L 616.945928 58.595432 
L 609.781862 58.143625 
L 604.075417 58.013347 
L 598.74802 58.134966 
L 593.905288 58.500021 
L 590.072025 58.99386 
L 586.415994 59.662452 
L 582.915423 60.516111 
L 579.272453 61.679582 
L 576.688068 62.728718 
L 574.750478 63.687083 
L 572.533052 65.080479 
L 571.259321 66.190052 
L 570.590708 67.10647 
L 570.398792 67.758722 
L 570.450703 68.172746 
L 570.732175 68.623519 
L 571.332435 69.048057 
L 572.397923 69.436365 
L 574.453389 69.803777 
L 577.563852 70.043201 
L 583.536282 70.184022 
L 605.848612 70.484297 
L 628.40086 70.978676 
L 638.045455 70.901895 
L 648.649402 70.585133 
L 662.952173 69.926907 
L 675.305065 69.221764 
L 675.305065 69.221764 
" style="fill:none;stroke:#000000;stroke-linecap:square;stroke-opacity:0.7;stroke-width:1.2;"/>
   </g>
  </g>
 </g>
 <defs>
  <clipPath id="p8eb016c7d8">
   <rect height="262.08" width="694.08" x="12.96" y="12.96"/>
  </clipPath>
 </defs>
</svg>
