<?xml version="1.0" encoding="utf-8" standalone="no"?>
<!DOCTYPE svg PUBLIC "-//W3C//DTD SVG 1.1//EN"
  "http://www.w3.org/Graphics/SVG/1.1/DTD/svg11.dtd">
<!-- Created with matplotlib (https://matplotlib.org/) -->
<svg height="288pt" version="1.1" viewBox="0 0 720 288" width="720pt" xmlns="http://www.w3.org/2000/svg" xmlns:xlink="http://www.w3.org/1999/xlink">
 <metadata>
  <rdf:RDF xmlns:cc="http://creativecommons.org/ns#" xmlns:dc="http://purl.org/dc/elements/1.1/" xmlns:rdf="http://www.w3.org/1999/02/22-rdf-syntax-ns#">
   <cc:Work>
    <dc:type rdf:resource="http://purl.org/dc/dcmitype/StillImage"/>
    <dc:date>2021-04-26T15:32:57.989175</dc:date>
    <dc:format>image/svg+xml</dc:format>
    <dc:creator>
     <cc:Agent>
      <dc:title>Matplotlib v3.3.4, https://matplotlib.org/</dc:title>
     </cc:Agent>
    </dc:creator>
   </cc:Work>
  </rdf:RDF>
 </metadata>
 <defs>
  <style type="text/css">*{stroke-linecap:butt;stroke-linejoin:round;}</style>
 </defs>
 <g id="figure_1">
  <g id="patch_1">
   <path d="M 0 288 
L 720 288 
L 720 0 
L 0 0 
z
" style="fill:#ffffff;"/>
  </g>
  <g id="axes_1">
   <g id="line2d_1">
    <path clip-path="url(#p92becc4cf8)" d="M 149.979663 224.148537 
L 145.706315 223.667971 
L 137.876864 223.022134 
L 125.59019 222.283094 
L 107.007789 221.153304 
L 94.621068 220.137995 
L 81.874087 219.113879 
L 76.100547 218.910907 
L 71.570673 218.999478 
L 67.094675 219.358161 
L 63.579366 219.839941 
L 59.248626 220.669175 
L 54.436 221.886134 
L 51.685136 222.733503 
L 48.258613 224.027979 
L 46.632374 224.863489 
L 45.716771 225.617158 
L 45.511758 226.006536 
L 45.54405 226.431021 
L 45.913928 226.87668 
L 46.293765 227.126608 
L 47.345547 227.578771 
L 49.960716 228.243722 
L 52.93411 228.712163 
L 57.881147 229.180153 
L 63.748381 229.439324 
L 72.105377 229.509037 
L 83.831861 229.598353 
L 92.67809 229.937201 
L 105.102257 230.468075 
L 111.9484 230.526322 
L 117.772173 230.365623 
L 124.067205 229.961751 
L 130.626446 229.292458 
L 136.725624 228.452649 
L 143.114509 227.360411 
L 149.963332 225.979486 
L 149.963332 225.979486 
" style="fill:none;stroke:#000000;stroke-linecap:square;stroke-opacity:0.7;stroke-width:1.2;"/>
   </g>
   <g id="line2d_2">
    <path clip-path="url(#p92becc4cf8)" d="M 149.593578 184.50383 
L 144.350373 183.101742 
L 137.770931 181.565308 
L 130.000116 179.984163 
L 121.334675 178.446255 
L 112.960882 177.164658 
L 104.693304 176.108966 
L 96.183985 175.260681 
L 88.445128 174.728212 
L 82.478427 174.51987 
L 77.714571 174.531236 
L 73.459748 174.722157 
L 69.553821 175.087427 
L 66.678806 175.49354 
L 62.035557 176.433065 
L 58.737689 177.342478 
L 55.022471 178.652694 
L 51.793804 180.1038 
L 49.46526 181.413223 
L 48.047351 182.388853 
L 46.943731 183.322613 
L 46.083444 184.292084 
L 45.542852 185.336837 
L 45.50822 186.301437 
L 45.845484 186.966186 
L 46.497195 187.551934 
L 46.702847 187.682193 
L 48.406289 188.384944 
L 49.747865 188.703625 
L 53.062397 189.089951 
L 57.258476 189.104678 
L 59.725776 188.938904 
L 64.012684 188.4062 
L 68.84578 187.526471 
L 77.487674 185.799533 
L 82.020102 185.161435 
L 86.049377 184.861508 
L 90.660164 184.827301 
L 94.886946 185.038335 
L 101.122524 185.617682 
L 113.824488 186.877219 
L 120.528767 187.275342 
L 126.805295 187.437863 
L 133.459642 187.398714 
L 141.037551 187.109561 
L 148.965333 186.563001 
L 149.649691 186.506105 
L 149.649691 186.506105 
" style="fill:none;stroke:#000000;stroke-linecap:square;stroke-opacity:0.7;stroke-width:1.2;"/>
   </g>
   <g id="line2d_3">
    <path clip-path="url(#p92becc4cf8)" d="M 148.073004 144.825508 
L 141.604674 144.148636 
L 133.581367 143.101338 
L 101.659658 138.665596 
L 93.229918 137.879243 
L 86.223705 137.423056 
L 79.804782 137.205648 
L 74.438016 137.240094 
L 69.232777 137.538511 
L 64.810175 138.057772 
L 61.079182 138.735596 
L 58.144373 139.463918 
L 55.704224 140.239317 
L 54.09532 140.862131 
L 51.868781 141.938201 
L 50.398392 142.876429 
L 49.898359 143.270283 
L 48.663832 144.65731 
L 48.387112 145.248805 
L 48.264627 146.159309 
L 48.389263 146.74333 
L 48.772784 147.460325 
L 49.378947 148.135074 
L 50.445784 148.949632 
L 51.111691 149.351136 
L 53.404013 150.444072 
L 56.470552 151.56272 
L 60.982578 152.880737 
L 65.790676 154.037445 
L 70.103199 154.901233 
L 75.71281 155.78297 
L 81.522368 156.407688 
L 86.47349 156.708917 
L 90.905127 156.787952 
L 96.20758 156.621979 
L 99.548448 156.362542 
L 105.087642 155.676064 
L 110.753859 154.693348 
L 118.16038 153.117164 
L 128.888746 150.544194 
L 144.617612 146.771427 
L 148.368917 146.005318 
L 148.368917 146.005318 
" style="fill:none;stroke:#000000;stroke-linecap:square;stroke-opacity:0.7;stroke-width:1.2;"/>
   </g>
   <g id="line2d_4">
    <path clip-path="url(#p92becc4cf8)" d="M 149.651977 105.525048 
L 145.835022 103.945311 
L 140.724381 102.08201 
L 136.093452 100.615918 
L 130.586764 99.110001 
L 124.909451 97.796909 
L 119.070505 96.674218 
L 112.779124 95.693528 
L 105.407832 94.798335 
L 97.508524 94.082688 
L 90.463249 93.631337 
L 83.144347 93.382739 
L 77.934521 93.403786 
L 73.799476 93.588547 
L 69.64014 93.972017 
L 66.247738 94.467628 
L 63.980642 94.908405 
L 59.554622 96.07678 
L 56.393738 97.220348 
L 54.370759 98.124509 
L 51.421688 99.756917 
L 49.489836 101.100298 
L 47.731469 102.610201 
L 46.34311 104.131673 
L 45.199435 105.88616 
L 45.149331 105.986399 
L 44.610432 107.505385 
L 44.567361 109.158784 
L 45.01084 110.383493 
L 45.635939 111.22994 
L 46.614786 112.076184 
L 47.753677 112.755268 
L 49.325724 113.422114 
L 51.649836 114.088061 
L 54.47854 114.594434 
L 57.588767 114.908858 
L 60.837307 115.058503 
L 66.503244 115.06609 
L 81.518367 114.900472 
L 102.699073 114.964583 
L 109.912759 114.60139 
L 115.130259 114.146565 
L 121.694422 113.356532 
L 129.411065 112.147161 
L 136.747872 110.739727 
L 143.934582 109.13346 
L 149.698384 107.734381 
L 149.698384 107.734381 
" style="fill:none;stroke:#000000;stroke-linecap:square;stroke-opacity:0.7;stroke-width:1.2;"/>
   </g>
   <g id="line2d_5">
    <path clip-path="url(#p92becc4cf8)" d="M 150.078833 68.717846 
L 145.84305 68.29588 
L 136.031772 67.046347 
L 122.111021 65.306832 
L 111.972139 64.258919 
L 96.806122 62.971289 
L 82.542268 61.906585 
L 77.815688 61.732328 
L 73.648686 61.757828 
L 68.729434 62.04529 
L 64.065815 62.582542 
L 59.973686 63.267097 
L 56.168988 64.092421 
L 51.795563 65.310257 
L 48.789495 66.394448 
L 46.62536 67.438238 
L 45.414298 68.356802 
L 45.090685 68.970347 
L 45.152586 69.336938 
L 45.257386 69.498617 
L 46.002286 70.008851 
L 46.646001 70.24851 
L 48.733944 70.703838 
L 51.877375 71.056027 
L 57.785425 71.33756 
L 64.32689 71.396548 
L 73.796383 71.229687 
L 85.129947 70.778504 
L 100.875022 70.16314 
L 110.096721 70.080534 
L 120.227469 70.26794 
L 138.813589 70.668437 
L 150.121552 70.662826 
L 150.121552 70.662826 
" style="fill:none;stroke:#000000;stroke-linecap:square;stroke-opacity:0.7;stroke-width:1.2;"/>
   </g>
   <g id="line2d_6">
    <path clip-path="url(#p92becc4cf8)" d="M 281.044487 225.093519 
L 274.462603 223.360033 
L 259.318568 219.340516 
L 253.017468 217.860748 
L 246.729181 216.587309 
L 240.640222 215.587587 
L 235.241865 214.899015 
L 228.847679 214.303576 
L 222.131677 213.902436 
L 215.823827 213.722549 
L 209.866018 213.757718 
L 204.427344 214.031283 
L 199.934285 214.497383 
L 196.155102 215.102384 
L 192.068396 216.015574 
L 189.088671 216.873396 
L 185.680675 218.078721 
L 182.540533 219.435924 
L 179.80293 220.869701 
L 178.220904 221.855939 
L 177.373598 222.459938 
L 175.80124 223.865682 
L 175.08133 224.903648 
L 174.873062 225.670875 
L 174.986886 226.327402 
L 175.451277 226.973999 
L 176.2303 227.53043 
L 177.253407 227.996397 
L 179.339941 228.605908 
L 181.584529 229.031063 
L 185.378735 229.486767 
L 189.450132 229.765448 
L 195.970992 229.93947 
L 205.288926 229.881788 
L 217.785797 229.834979 
L 231.523072 229.819889 
L 238.698917 229.545341 
L 246.267039 229.026545 
L 268.786035 227.315073 
L 275.781581 227.025714 
L 281.122554 226.955027 
L 281.122554 226.955027 
" style="fill:none;stroke:#000000;stroke-linecap:square;stroke-opacity:0.7;stroke-width:1.2;"/>
   </g>
   <g id="line2d_7">
    <path clip-path="url(#p92becc4cf8)" d="M 281.268701 186.632798 
L 272.265317 185.495758 
L 263.277706 184.581875 
L 254.32376 183.896052 
L 246.508912 183.502448 
L 238.345976 183.297296 
L 216.255023 182.917406 
L 200.79168 182.133385 
L 195.77672 182.238616 
L 191.586871 182.573523 
L 188.502697 182.984316 
L 184.699289 183.716679 
L 182.623906 184.247486 
L 179.874562 185.159142 
L 177.891931 186.076788 
L 176.659767 186.928347 
L 176.082962 187.627951 
L 175.931444 188.157474 
L 176.103662 188.750157 
L 176.33406 189.028112 
L 177.175873 189.586217 
L 178.158892 189.96846 
L 180.431987 190.485675 
L 183.340678 190.8287 
L 187.92564 191.043916 
L 193.496854 191.035407 
L 201.110437 190.762024 
L 209.573202 190.219201 
L 220.666271 189.254662 
L 233.809722 188.118916 
L 240.797327 187.706819 
L 247.246208 187.508446 
L 255.822517 187.489168 
L 266.545867 187.712622 
L 277.970257 188.139602 
L 281.264731 188.325351 
L 281.264731 188.325351 
" style="fill:none;stroke:#000000;stroke-linecap:square;stroke-opacity:0.7;stroke-width:1.2;"/>
   </g>
   <g id="line2d_8">
    <path clip-path="url(#p92becc4cf8)" d="M 280.527103 144.093744 
L 275.562815 143.045973 
L 269.243405 141.96123 
L 262.203776 140.992711 
L 254.975005 140.222269 
L 247.439939 139.659551 
L 240.200022 139.352198 
L 232.247074 139.245134 
L 221.392415 139.355713 
L 209.189497 139.683657 
L 201.862151 140.092091 
L 196.384576 140.635071 
L 191.345724 141.400255 
L 187.69777 142.159659 
L 184.215428 143.095143 
L 181.633297 143.974955 
L 179.045075 145.133895 
L 177.866156 145.861115 
L 177.048174 146.593275 
L 176.694254 147.17859 
L 176.631284 147.627841 
L 176.768758 148.060301 
L 177.210877 148.559523 
L 177.92544 149.01187 
L 178.987316 149.457525 
L 181.199122 150.070258 
L 184.720745 150.690879 
L 189.232908 151.195098 
L 194.644415 151.559347 
L 201.317011 151.771604 
L 209.128568 151.793633 
L 218.155216 151.614938 
L 226.684752 151.21501 
L 233.768261 150.628387 
L 241.355401 149.742997 
L 269.152733 146.180656 
L 274.669565 145.766932 
L 279.222621 145.610543 
L 280.667301 145.611163 
L 280.667301 145.611163 
" style="fill:none;stroke:#000000;stroke-linecap:square;stroke-opacity:0.7;stroke-width:1.2;"/>
   </g>
   <g id="line2d_9">
    <path clip-path="url(#p92becc4cf8)" d="M 280.854262 104.35391 
L 276.621272 103.153755 
L 271.421305 101.926744 
L 266.160941 100.912362 
L 260.088658 99.980715 
L 253.798335 99.249414 
L 246.070196 98.616702 
L 237.467205 98.156145 
L 226.372902 97.798603 
L 216.402616 97.679506 
L 209.829101 97.776586 
L 204.451621 98.047102 
L 199.368629 98.542091 
L 195.347995 99.144231 
L 191.236193 99.98288 
L 187.26838 101.030879 
L 183.685813 102.213307 
L 180.999016 103.29586 
L 179.202788 104.16462 
L 177.077777 105.503758 
L 176.24474 106.288721 
L 175.882633 106.831393 
L 175.725819 107.422609 
L 175.978018 108.179919 
L 176.144578 108.37418 
L 177.250126 109.092089 
L 179.077383 109.697917 
L 181.527062 110.154977 
L 184.441497 110.456143 
L 188.759717 110.642862 
L 194.917164 110.633578 
L 209.148751 110.469915 
L 218.657405 110.646118 
L 234.290255 111.011416 
L 241.682643 110.9349 
L 248.204443 110.64552 
L 254.999276 110.120117 
L 262.413074 109.30825 
L 270.423713 108.175674 
L 278.036696 106.871601 
L 280.909511 106.333059 
L 280.909511 106.333059 
" style="fill:none;stroke:#000000;stroke-linecap:square;stroke-opacity:0.7;stroke-width:1.2;"/>
   </g>
   <g id="line2d_10">
    <path clip-path="url(#p92becc4cf8)" d="M 281.018938 67.582988 
L 270.078356 66.31085 
L 252.717554 64.284295 
L 242.427961 63.330842 
L 233.993258 62.757612 
L 221.564 62.163524 
L 204.756357 61.51482 
L 200.273812 61.546439 
L 195.990581 61.7624 
L 192.417471 62.108267 
L 188.201875 62.741251 
L 184.903656 63.440446 
L 182.268715 64.169266 
L 179.38589 65.245485 
L 178.322564 65.781479 
L 176.980197 66.76377 
L 176.604658 67.268503 
L 176.457975 67.808431 
L 176.465869 67.947878 
L 176.77209 68.59381 
L 177.232184 69.011053 
L 177.933353 69.428714 
L 179.191421 69.943308 
L 180.89031 70.432186 
L 184.343626 71.104295 
L 188.805889 71.667922 
L 194.262296 72.116436 
L 202.144427 72.489153 
L 210.742677 72.658904 
L 223.088751 72.679853 
L 235.241577 72.498636 
L 244.238392 72.142502 
L 252.767261 71.578315 
L 262.716044 70.67554 
L 281.03289 68.857178 
L 281.03289 68.857178 
" style="fill:none;stroke:#000000;stroke-linecap:square;stroke-opacity:0.7;stroke-width:1.2;"/>
   </g>
   <g id="line2d_11">
    <path clip-path="url(#p92becc4cf8)" d="M 411.988619 225.117051 
L 407.037738 224.802925 
L 401.347907 224.189184 
L 394.409771 223.179259 
L 384.135149 221.417464 
L 371.876904 219.369983 
L 364.108288 218.332727 
L 357.128081 217.634418 
L 348.733755 217.051336 
L 342.060037 216.778032 
L 337.102212 216.761866 
L 332.942761 216.947561 
L 328.77033 217.35996 
L 325.295067 217.887806 
L 321.120697 218.748543 
L 317.117739 219.829888 
L 313.959218 220.927977 
L 311.578295 222.031212 
L 311.288587 222.19721 
L 309.797128 223.344226 
L 309.521613 223.701528 
L 309.252526 224.448544 
L 309.254979 224.663765 
L 309.604649 225.473224 
L 310.250274 226.082171 
L 311.521498 226.810544 
L 313.214492 227.456304 
L 315.555688 228.075518 
L 319.274086 228.704137 
L 323.080266 229.066212 
L 328.447712 229.274593 
L 336.776689 229.291082 
L 345.787366 229.385211 
L 369.678234 229.899777 
L 375.42585 229.681265 
L 382.022706 229.225801 
L 390.594506 228.410666 
L 412.090613 226.146953 
L 412.090613 226.146953 
" style="fill:none;stroke:#000000;stroke-linecap:square;stroke-opacity:0.7;stroke-width:1.2;"/>
   </g>
   <g id="line2d_12">
    <path clip-path="url(#p92becc4cf8)" d="M 411.59574 185.395002 
L 405.530833 183.457714 
L 399.668393 181.837784 
L 394.392694 180.610658 
L 388.856863 179.556483 
L 383.301288 178.733025 
L 377.507854 178.115092 
L 371.672077 177.72668 
L 365.576807 177.548582 
L 359.153208 177.576412 
L 351.449844 177.832493 
L 343.125996 178.290912 
L 334.733099 178.960892 
L 328.644434 179.69922 
L 324.316515 180.429003 
L 320.221696 181.333907 
L 316.113697 182.530579 
L 314.171453 183.240721 
L 311.813136 184.303126 
L 309.85684 185.499688 
L 308.983253 186.261193 
L 308.58414 186.740359 
L 308.22631 187.417885 
L 308.134397 188.216966 
L 308.362238 188.896393 
L 308.859986 189.534339 
L 309.351218 189.952569 
L 310.571565 190.687071 
L 311.920612 191.272405 
L 314.099628 191.980324 
L 317.19639 192.71571 
L 321.559198 193.446108 
L 325.543137 193.907436 
L 330.676041 194.278958 
L 336.080884 194.425388 
L 341.447021 194.32865 
L 346.583183 194.025529 
L 353.62264 193.355935 
L 363.058497 192.220795 
L 397.813439 187.855656 
L 405.344347 187.230346 
L 411.697358 186.936243 
L 411.697358 186.936243 
" style="fill:none;stroke:#000000;stroke-linecap:square;stroke-opacity:0.7;stroke-width:1.2;"/>
   </g>
   <g id="line2d_13">
    <path clip-path="url(#p92becc4cf8)" d="M 411.63581 145.163629 
L 397.86247 145.357146 
L 388.262107 145.224594 
L 374.905892 144.778924 
L 356.488141 144.199965 
L 330.798858 143.594303 
L 322.496268 143.706932 
L 316.549863 143.996295 
L 312.68533 144.391354 
L 310.085561 144.881983 
L 308.85744 145.283036 
L 308.004014 145.810256 
L 307.782933 146.269814 
L 307.851325 146.556843 
L 308.093395 146.871064 
L 308.61984 147.255451 
L 309.348553 147.616779 
L 311.105493 148.216863 
L 314.185262 148.90571 
L 318.519975 149.523352 
L 323.09736 149.926942 
L 328.780119 150.199711 
L 336.11746 150.296222 
L 344.646811 150.170676 
L 357.931832 149.711395 
L 385.765369 148.467753 
L 398.233457 147.713573 
L 411.700521 146.659967 
L 411.700521 146.659967 
" style="fill:none;stroke:#000000;stroke-linecap:square;stroke-opacity:0.7;stroke-width:1.2;"/>
   </g>
   <g id="line2d_14">
    <path clip-path="url(#p92becc4cf8)" d="M 412.844785 107.923392 
L 393.529214 103.900899 
L 386.685401 102.760355 
L 379.583666 101.777261 
L 371.482034 100.883564 
L 361.815664 100.051672 
L 351.986878 99.422117 
L 346.670001 99.231587 
L 341.147974 99.245543 
L 336.607931 99.483787 
L 332.026587 99.965726 
L 327.257956 100.737332 
L 323.254315 101.604907 
L 318.742946 102.844601 
L 315.844825 103.814445 
L 312.431042 105.200022 
L 309.820536 106.587625 
L 308.69864 107.432893 
L 308.242666 107.960984 
L 308.054679 108.48614 
L 308.132554 108.820031 
L 308.453503 109.160842 
L 309.425081 109.573787 
L 310.897712 109.844354 
L 313.086987 109.999468 
L 316.071288 110.008594 
L 320.856405 109.794726 
L 328.198749 109.217253 
L 344.790106 107.825584 
L 351.589613 107.501472 
L 358.202647 107.374802 
L 365.571766 107.440359 
L 374.58227 107.792471 
L 385.494016 108.48874 
L 402.060356 109.546193 
L 412.8758 110.039587 
L 412.8758 110.039587 
" style="fill:none;stroke:#000000;stroke-linecap:square;stroke-opacity:0.7;stroke-width:1.2;"/>
   </g>
   <g id="line2d_15">
    <path clip-path="url(#p92becc4cf8)" d="M 411.281192 65.074344 
L 403.203913 64.215653 
L 393.598433 63.442434 
L 383.464379 62.864431 
L 372.588145 62.486703 
L 343.562696 61.895513 
L 336.787053 61.871603 
L 332.25007 62.043522 
L 327.327548 62.474436 
L 322.609214 63.160586 
L 318.132245 64.083384 
L 314.893154 64.942804 
L 312.101856 65.855014 
L 309.524051 66.928894 
L 308.056643 67.753592 
L 306.984502 68.720151 
L 306.782434 69.150803 
L 306.804517 69.60409 
L 307.003623 69.928051 
L 307.57977 70.358337 
L 308.615982 70.773524 
L 310.316982 71.165583 
L 313.300936 71.534319 
L 317.523658 71.761897 
L 323.709922 71.80796 
L 332.550204 71.58694 
L 358.420708 70.524617 
L 368.552856 69.92734 
L 378.439696 69.083193 
L 404.244543 66.695459 
L 410.672815 66.397708 
L 411.368764 66.384302 
L 411.368764 66.384302 
" style="fill:none;stroke:#000000;stroke-linecap:square;stroke-opacity:0.7;stroke-width:1.2;"/>
   </g>
   <g id="line2d_16">
    <path clip-path="url(#p92becc4cf8)" d="M 544.247051 224.78005 
L 530.546556 221.535208 
L 520.834855 219.475782 
L 510.090616 217.415606 
L 500.429192 215.75903 
L 491.376389 214.408125 
L 484.590351 213.577559 
L 479.205902 213.092664 
L 474.867674 212.869462 
L 469.954987 212.868078 
L 465.781998 213.133083 
L 461.680594 213.67428 
L 459.36756 214.114502 
L 455.709189 215.026063 
L 451.964626 216.257425 
L 448.663656 217.629188 
L 444.78105 219.685377 
L 442.694926 221.102394 
L 441.281175 222.330918 
L 440.491056 223.273248 
L 440.107519 223.981912 
L 439.989704 224.379929 
L 440.0306 225.203019 
L 440.398303 225.823228 
L 441.12859 226.405751 
L 442.036261 226.841792 
L 442.59858 227.041095 
L 444.978407 227.597075 
L 447.143994 227.887421 
L 451.29746 228.158518 
L 456.478609 228.194103 
L 462.764539 227.957195 
L 469.19723 227.505541 
L 489.933316 225.876001 
L 500.471097 225.35578 
L 511.013847 225.068171 
L 518.892654 225.060069 
L 527.213121 225.292149 
L 535.529817 225.795243 
L 541.587103 226.351057 
L 544.217382 226.654307 
L 544.217382 226.654307 
" style="fill:none;stroke:#000000;stroke-linecap:square;stroke-opacity:0.7;stroke-width:1.2;"/>
   </g>
   <g id="line2d_17">
    <path clip-path="url(#p92becc4cf8)" d="M 543.851987 186.858695 
L 532.908286 183.57832 
L 518.877895 179.395719 
L 511.17816 177.362279 
L 504.697418 175.912302 
L 499.220687 174.902953 
L 492.847932 173.977915 
L 486.640542 173.319982 
L 481.1748 172.929641 
L 474.288829 172.699769 
L 469.166387 172.752596 
L 464.896778 172.985547 
L 460.625919 173.443648 
L 457.430849 173.975215 
L 453.889113 174.805489 
L 450.280325 175.983087 
L 447.488146 177.188062 
L 445.424305 178.288186 
L 442.543319 180.22668 
L 440.84509 181.699976 
L 440.140381 182.430364 
L 438.710309 184.354283 
L 438.070752 185.7989 
L 437.876454 187.338069 
L 437.998707 188.070203 
L 438.199521 188.617886 
L 438.570831 189.254534 
L 439.276671 190.039446 
L 439.930242 190.557058 
L 441.928107 191.611601 
L 443.900463 192.267241 
L 446.290038 192.789582 
L 449.355765 193.186599 
L 452.523908 193.379017 
L 456.522646 193.40334 
L 462.662422 193.143086 
L 478.82942 192.225763 
L 499.89306 191.470594 
L 507.990809 190.789432 
L 528.677538 188.879946 
L 536.278842 188.486351 
L 543.924544 188.367924 
L 543.924544 188.367924 
" style="fill:none;stroke:#000000;stroke-linecap:square;stroke-opacity:0.7;stroke-width:1.2;"/>
   </g>
   <g id="line2d_18">
    <path clip-path="url(#p92becc4cf8)" d="M 543.33521 147.085479 
L 537.984719 145.528583 
L 530.688989 143.655078 
L 524.887296 142.352884 
L 519.251437 141.254874 
L 512.46713 140.172693 
L 506.579737 139.460826 
L 500.355502 138.938512 
L 494.390273 138.642317 
L 486.644381 138.500826 
L 476.860793 138.580872 
L 467.495993 138.861415 
L 461.1884 139.277657 
L 456.47075 139.817332 
L 452.784235 140.434469 
L 448.849766 141.340073 
L 446.075993 142.172919 
L 443.067144 143.320797 
L 440.597312 144.550494 
L 438.734489 145.812048 
L 437.86072 146.647167 
L 437.432738 147.221946 
L 437.068617 148.140374 
L 437.070355 148.753198 
L 437.352164 149.453385 
L 437.969005 150.13459 
L 439.299194 150.9578 
L 439.940272 151.237083 
L 442.088175 151.91828 
L 444.914988 152.486142 
L 447.779146 152.844762 
L 451.031359 153.076829 
L 455.272937 153.176939 
L 461.011537 153.045322 
L 468.069619 152.604031 
L 492.680539 150.790899 
L 507.687519 150.092566 
L 543.468526 148.691786 
L 543.468526 148.691786 
" style="fill:none;stroke:#000000;stroke-linecap:square;stroke-opacity:0.7;stroke-width:1.2;"/>
   </g>
   <g id="line2d_19">
    <path clip-path="url(#p92becc4cf8)" d="M 543.740387 106.727163 
L 533.153822 104.098156 
L 525.98732 102.535574 
L 519.401848 101.299689 
L 512.431669 100.22517 
L 506.312077 99.492126 
L 499.404637 98.894731 
L 492.69491 98.519527 
L 483.738161 98.268464 
L 475.869742 98.255642 
L 469.765063 98.433744 
L 464.093344 98.845598 
L 459.409799 99.440066 
L 454.994622 100.268183 
L 451.543114 101.133892 
L 447.537068 102.438155 
L 444.616975 103.666679 
L 442.478119 104.818459 
L 441.238369 105.692791 
L 440.279542 106.706459 
L 439.994603 107.372803 
L 440.009288 107.885768 
L 440.279924 108.408977 
L 440.83288 108.911926 
L 441.772284 109.434725 
L 443.182067 109.967658 
L 446.281765 110.760324 
L 450.057692 111.435205 
L 455.870061 112.1659 
L 461.156831 112.589866 
L 465.690105 112.77657 
L 470.875942 112.786152 
L 476.754676 112.556148 
L 485.215581 111.923989 
L 511.04061 109.767954 
L 524.420157 108.951992 
L 536.33379 108.443902 
L 543.782304 108.338278 
L 543.782304 108.338278 
" style="fill:none;stroke:#000000;stroke-linecap:square;stroke-opacity:0.7;stroke-width:1.2;"/>
   </g>
   <g id="line2d_20">
    <path clip-path="url(#p92becc4cf8)" d="M 544.355989 67.933909 
L 532.729095 64.880587 
L 523.670425 62.753651 
L 515.009918 60.967891 
L 506.988733 59.547671 
L 497.891533 58.196977 
L 488.920423 57.12059 
L 481.174465 56.444648 
L 475.307269 56.171631 
L 469.661203 56.197721 
L 465.34348 56.467205 
L 461.52201 56.920439 
L 458.390294 57.460909 
L 454.374873 58.405121 
L 451.040626 59.438654 
L 450.09372 59.780664 
L 445.587699 61.798223 
L 444.032155 62.711834 
L 441.984035 64.291135 
L 441.157208 65.299525 
L 440.977645 65.658184 
L 440.862973 66.448177 
L 441.052147 66.945386 
L 441.433792 67.368144 
L 442.401134 67.938651 
L 443.755909 68.405307 
L 445.666749 68.829322 
L 448.087003 69.185679 
L 452.608361 69.574367 
L 457.938782 69.750642 
L 464.980369 69.697047 
L 474.516709 69.567833 
L 480.577777 69.71731 
L 486.680938 70.095531 
L 509.727644 71.89204 
L 516.758494 72.062388 
L 523.287258 72.003917 
L 530.15992 71.724981 
L 537.400182 71.194131 
L 544.394688 70.444966 
L 544.394688 70.444966 
" style="fill:none;stroke:#000000;stroke-linecap:square;stroke-opacity:0.7;stroke-width:1.2;"/>
   </g>
   <g id="line2d_21">
    <path clip-path="url(#p92becc4cf8)" d="M 674.203347 224.664889 
L 669.190135 222.780862 
L 660.63392 219.824291 
L 652.202061 217.142923 
L 644.689031 214.974761 
L 638.259725 213.342204 
L 631.673345 211.931863 
L 625.935066 210.937138 
L 619.732021 210.104194 
L 614.239247 209.569193 
L 608.728326 209.232122 
L 604.492649 209.136359 
L 599.417751 209.27266 
L 596.145685 209.552847 
L 592.429298 210.109675 
L 589.056544 210.888093 
L 586.414656 211.717036 
L 583.675477 212.813936 
L 580.985903 214.160243 
L 579.202071 215.221363 
L 576.52189 217.124364 
L 574.472986 218.933689 
L 572.80084 220.858235 
L 571.876683 222.409775 
L 571.593989 223.142948 
L 571.385337 224.591491 
L 571.491591 225.332198 
L 571.936249 226.362744 
L 572.493744 227.081174 
L 573.551743 227.97856 
L 574.328397 228.461708 
L 575.795675 229.165343 
L 578.611547 230.098106 
L 581.204147 230.684087 
L 585.116979 231.274596 
L 589.58074 231.661697 
L 593.85568 231.829893 
L 599.997782 231.820313 
L 607.096941 231.551232 
L 615.586006 230.984835 
L 624.742178 230.135862 
L 634.597814 228.991973 
L 651.169503 227.03623 
L 658.74487 226.381572 
L 665.834251 225.999969 
L 671.83126 225.899184 
L 674.28911 225.929261 
L 674.28911 225.929261 
" style="fill:none;stroke:#000000;stroke-linecap:square;stroke-opacity:0.7;stroke-width:1.2;"/>
   </g>
   <g id="line2d_22">
    <path clip-path="url(#p92becc4cf8)" d="M 673.384802 184.808311 
L 662.67335 183.088884 
L 651.367486 181.475019 
L 642.282997 180.401224 
L 633.863311 179.645313 
L 624.501658 179.05721 
L 605.171008 178.16446 
L 598.762561 178.032592 
L 594.40472 178.148915 
L 590.015711 178.518237 
L 586.683942 178.994132 
L 582.696018 179.799536 
L 579.427482 180.660705 
L 576.64729 181.551225 
L 573.09475 182.960471 
L 570.737543 184.171757 
L 569.822172 184.765513 
L 568.625989 185.877878 
L 568.358287 186.572874 
L 568.43656 186.904337 
L 568.740643 187.245249 
L 569.500207 187.602719 
L 570.476643 187.818296 
L 572.422724 187.975921 
L 576.819634 187.854801 
L 583.034361 187.324186 
L 593.443742 186.424544 
L 600.177127 186.096242 
L 607.024782 185.998745 
L 617.557488 186.124356 
L 631.491079 186.253018 
L 645.571666 186.114051 
L 664.503526 185.967224 
L 673.474072 186.027705 
L 673.474072 186.027705 
" style="fill:none;stroke:#000000;stroke-linecap:square;stroke-opacity:0.7;stroke-width:1.2;"/>
   </g>
   <g id="line2d_23">
    <path clip-path="url(#p92becc4cf8)" d="M 675.016582 146.530401 
L 667.39492 146.175667 
L 658.851373 145.520026 
L 646.037095 144.269598 
L 632.684756 143.021681 
L 621.794282 142.22883 
L 610.352653 141.594711 
L 603.368304 141.400946 
L 598.748838 141.458767 
L 594.528957 141.687796 
L 589.840616 142.152851 
L 585.461198 142.780109 
L 581.102976 143.578859 
L 576.218993 144.709765 
L 573.490945 145.562839 
L 572.380888 146.080982 
L 571.883895 146.492345 
L 571.773981 146.853729 
L 571.819108 146.992223 
L 572.464221 147.523832 
L 573.495063 147.935339 
L 576.411108 148.633948 
L 579.789737 149.141815 
L 584.865946 149.580345 
L 589.96981 149.72317 
L 595.345756 149.620806 
L 603.958392 149.172064 
L 612.861103 148.785563 
L 618.861287 148.724376 
L 626.705939 148.88564 
L 643.536713 149.397484 
L 651.152495 149.344207 
L 658.991433 149.071048 
L 670.530285 148.400149 
L 674.999455 148.110249 
L 674.999455 148.110249 
" style="fill:none;stroke:#000000;stroke-linecap:square;stroke-opacity:0.7;stroke-width:1.2;"/>
   </g>
   <g id="line2d_24">
    <path clip-path="url(#p92becc4cf8)" d="M 675.454033 108.047261 
L 664.348863 105.618984 
L 649.192905 102.358738 
L 639.445869 100.47464 
L 629.777388 98.828409 
L 620.085456 97.402809 
L 613.232588 96.576224 
L 608.391259 96.14867 
L 604.104532 95.938111 
L 599.456637 95.950151 
L 595.39991 96.208273 
L 591.680424 96.675352 
L 587.700131 97.446113 
L 584.943155 98.162197 
L 581.062788 99.461901 
L 577.926107 100.819089 
L 575.194458 102.3193 
L 572.692449 104.184838 
L 571.690984 105.283246 
L 571.141456 106.257486 
L 570.991232 106.840586 
L 571.071288 107.727905 
L 571.503231 108.492395 
L 571.702757 108.713606 
L 572.802411 109.539486 
L 574.267086 110.241406 
L 576.27596 110.921136 
L 579.957131 111.791279 
L 584.497747 112.533891 
L 588.489016 113.002397 
L 593.775382 113.408848 
L 598.452696 113.566981 
L 602.962316 113.535568 
L 609.159903 113.235463 
L 618.609574 112.482608 
L 634.599486 111.231382 
L 646.930388 110.485895 
L 657.082902 110.065343 
L 666.12754 109.889771 
L 675.490909 109.938486 
L 675.490909 109.938486 
" style="fill:none;stroke:#000000;stroke-linecap:square;stroke-opacity:0.7;stroke-width:1.2;"/>
   </g>
   <g id="line2d_25">
    <path clip-path="url(#p92becc4cf8)" d="M 673.583505 66.718869 
L 667.686212 65.665283 
L 648.426328 62.075049 
L 640.170597 60.803719 
L 632.743693 59.84839 
L 622.788173 58.814303 
L 613.025651 58.032237 
L 606.92936 57.720476 
L 603.295954 57.660881 
L 598.83921 57.776818 
L 594.537135 58.122116 
L 590.520608 58.665784 
L 585.774164 59.596759 
L 582.072418 60.564017 
L 578.59238 61.718263 
L 575.62855 62.987437 
L 573.894339 63.96038 
L 572.417497 65.14964 
L 571.949253 65.787741 
L 571.776949 66.78934 
L 572.150311 67.442398 
L 572.703457 67.879374 
L 573.578327 68.304448 
L 575.043079 68.745658 
L 576.670633 69.051681 
L 579.953395 69.380356 
L 583.845573 69.505745 
L 589.021337 69.444601 
L 609.608725 68.903163 
L 618.675443 69.089442 
L 630.211263 69.335508 
L 637.242665 69.272905 
L 647.332103 68.939293 
L 667.474496 68.186241 
L 673.659556 68.148783 
L 673.659556 68.148783 
" style="fill:none;stroke:#000000;stroke-linecap:square;stroke-opacity:0.7;stroke-width:1.2;"/>
   </g>
  </g>
 </g>
 <defs>
  <clipPath id="p92becc4cf8">
   <rect height="262.08" width="694.08" x="12.96" y="12.96"/>
  </clipPath>
 </defs>
</svg>
