<?xml version="1.0" encoding="utf-8" standalone="no"?>
<!DOCTYPE svg PUBLIC "-//W3C//DTD SVG 1.1//EN"
  "http://www.w3.org/Graphics/SVG/1.1/DTD/svg11.dtd">
<!-- Created with matplotlib (https://matplotlib.org/) -->
<svg height="288pt" version="1.1" viewBox="0 0 720 288" width="720pt" xmlns="http://www.w3.org/2000/svg" xmlns:xlink="http://www.w3.org/1999/xlink">
 <metadata>
  <rdf:RDF xmlns:cc="http://creativecommons.org/ns#" xmlns:dc="http://purl.org/dc/elements/1.1/" xmlns:rdf="http://www.w3.org/1999/02/22-rdf-syntax-ns#">
   <cc:Work>
    <dc:type rdf:resource="http://purl.org/dc/dcmitype/StillImage"/>
    <dc:date>2021-04-26T15:37:11.346532</dc:date>
    <dc:format>image/svg+xml</dc:format>
    <dc:creator>
     <cc:Agent>
      <dc:title>Matplotlib v3.3.4, https://matplotlib.org/</dc:title>
     </cc:Agent>
    </dc:creator>
   </cc:Work>
  </rdf:RDF>
 </metadata>
 <defs>
  <style type="text/css">*{stroke-linecap:butt;stroke-linejoin:round;}</style>
 </defs>
 <g id="figure_1">
  <g id="patch_1">
   <path d="M 0 288 
L 720 288 
L 720 0 
L 0 0 
z
" style="fill:#ffffff;"/>
  </g>
  <g id="axes_1">
   <g id="line2d_1">
    <path clip-path="url(#pf9fc38d62b)" d="M 149.399777 229.176566 
L 144.380535 227.430348 
L 136.264477 224.856582 
L 127.909177 222.44793 
L 118.941304 220.106876 
L 110.760109 218.218517 
L 103.865236 216.855309 
L 97.282232 215.790505 
L 92.15258 215.147545 
L 86.604387 214.67006 
L 81.717106 214.475271 
L 76.394982 214.55473 
L 72.051833 214.881933 
L 68.685796 215.316195 
L 65.598388 215.864259 
L 61.31504 216.882383 
L 57.500553 218.073494 
L 54.394452 219.283086 
L 51.419342 220.711973 
L 48.567463 222.488743 
L 47.162701 223.674503 
L 46.203457 224.857405 
L 45.83385 225.769468 
L 45.835491 226.455083 
L 46.009837 226.90342 
L 46.401667 227.380913 
L 47.334312 227.970933 
L 48.628889 228.410192 
L 50.548397 228.749386 
L 52.907318 228.921743 
L 56.815369 228.915914 
L 63.353594 228.579078 
L 73.128743 228.080138 
L 79.675151 227.968825 
L 90.82118 228.050256 
L 106.396543 228.133968 
L 121.999869 228.195676 
L 130.590531 228.457585 
L 138.216759 228.885457 
L 145.673007 229.503779 
L 149.396642 229.900343 
L 149.396642 229.900343 
" style="fill:none;stroke:#000000;stroke-linecap:square;stroke-opacity:0.7;stroke-width:1.2;"/>
   </g>
   <g id="line2d_2">
    <path clip-path="url(#pf9fc38d62b)" d="M 149.143754 189.223371 
L 142.728564 186.87098 
L 135.183025 184.314556 
L 125.466904 181.26672 
L 115.721444 178.428516 
L 105.624719 175.71257 
L 99.038935 174.119869 
L 93.264002 172.92428 
L 88.768942 172.189944 
L 84.07428 171.674009 
L 80.783831 171.501141 
L 76.577412 171.54449 
L 73.529284 171.779345 
L 70.084122 172.263865 
L 66.555332 173.010646 
L 63.445591 173.88611 
L 60.199796 175.026783 
L 57.415442 176.202919 
L 54.142562 177.849225 
L 51.242125 179.602794 
L 49.462937 180.866544 
L 47.43876 182.583493 
L 46.480864 183.579729 
L 45.461742 184.952731 
L 45.040762 185.814984 
L 44.842906 186.802362 
L 44.962149 187.483581 
L 45.17261 187.874477 
L 45.56182 188.28417 
L 46.548942 188.825738 
L 48.166193 189.216805 
L 49.710797 189.35841 
L 53.189099 189.316434 
L 57.991882 188.910733 
L 71.983466 187.504368 
L 78.400462 187.143026 
L 85.627651 186.974398 
L 96.093232 186.977385 
L 113.193497 187.185445 
L 123.107294 187.529918 
L 132.036397 188.075272 
L 140.749628 188.846374 
L 147.880308 189.677411 
L 149.146125 189.846771 
L 149.146125 189.846771 
" style="fill:none;stroke:#000000;stroke-linecap:square;stroke-opacity:0.7;stroke-width:1.2;"/>
   </g>
   <g id="line2d_3">
    <path clip-path="url(#pf9fc38d62b)" d="M 149.346817 150.439965 
L 140.61243 149.428961 
L 120.473533 146.822399 
L 95.160649 143.577561 
L 86.964402 142.710805 
L 81.378527 142.306769 
L 76.43405 142.151413 
L 71.297524 142.233493 
L 66.20854 142.567717 
L 62.118831 143.012517 
L 56.643049 143.852575 
L 52.069681 144.806768 
L 49.440226 145.524746 
L 47.397616 146.304784 
L 46.565611 146.893871 
L 46.459801 147.254307 
L 46.688077 147.564922 
L 47.169604 147.826705 
L 48.34643 148.17452 
L 50.618161 148.551771 
L 54.924552 148.952965 
L 62.48749 149.362605 
L 100.269587 150.976884 
L 111.131828 150.987738 
L 140.675831 150.851273 
L 149.339756 150.977796 
L 149.339756 150.977796 
" style="fill:none;stroke:#000000;stroke-linecap:square;stroke-opacity:0.7;stroke-width:1.2;"/>
   </g>
   <g id="line2d_4">
    <path clip-path="url(#pf9fc38d62b)" d="M 149.527462 111.358366 
L 145.39749 109.906621 
L 138.811104 107.827996 
L 131.170805 105.663015 
L 122.725511 103.513638 
L 114.486114 101.669394 
L 108.089999 100.447552 
L 101.580902 99.439212 
L 95.589344 98.754128 
L 90.889412 98.395444 
L 84.962935 98.188821 
L 79.683971 98.261796 
L 74.629796 98.582223 
L 69.41724 99.184066 
L 64.52177 100.006496 
L 59.755609 101.05686 
L 55.394427 102.263593 
L 51.735945 103.515668 
L 49.097675 104.629993 
L 46.846438 105.843901 
L 45.252555 107.074421 
L 44.670492 107.82747 
L 44.509091 108.235179 
L 44.592537 108.985017 
L 44.970578 109.41801 
L 45.648453 109.797349 
L 46.980932 110.171276 
L 48.597705 110.380345 
L 51.081472 110.474407 
L 54.510724 110.386155 
L 60.676501 109.959947 
L 75.27749 108.863486 
L 83.432487 108.550894 
L 93.998329 108.424796 
L 106.41489 108.507515 
L 115.746394 108.776953 
L 124.22178 109.25502 
L 131.535958 109.863313 
L 140.580683 110.860393 
L 149.552977 112.094864 
L 149.552977 112.094864 
" style="fill:none;stroke:#000000;stroke-linecap:square;stroke-opacity:0.7;stroke-width:1.2;"/>
   </g>
   <g id="line2d_5">
    <path clip-path="url(#pf9fc38d62b)" d="M 149.500694 71.894449 
L 141.550189 69.169322 
L 131.247856 65.882833 
L 121.976179 63.127979 
L 113.06242 60.688832 
L 105.357378 58.81482 
L 99.670777 57.623698 
L 93.354225 56.545189 
L 87.862736 55.867262 
L 83.046079 55.517396 
L 78.194386 55.43865 
L 73.668692 55.644308 
L 69.784054 56.05354 
L 65.734515 56.723928 
L 62.34674 57.490098 
L 58.35676 58.662067 
L 55.098219 59.879296 
L 52.242141 61.202369 
L 50.584269 62.124912 
L 48.420574 63.600506 
L 47.021829 64.848769 
L 46.251677 65.748095 
L 45.454154 67.156972 
L 45.202415 68.292756 
L 45.238996 68.968889 
L 45.425311 69.622933 
L 45.600288 69.985526 
L 46.177397 70.765037 
L 47.041684 71.511708 
L 49.017011 72.580317 
L 50.908415 73.247514 
L 53.047606 73.79292 
L 56.064825 74.344641 
L 59.869509 74.82954 
L 65.183831 75.29494 
L 75.018094 75.88126 
L 86.799815 76.375519 
L 95.782305 76.541329 
L 103.012792 76.468746 
L 109.75466 76.203783 
L 118.66926 75.597155 
L 131.546367 74.438623 
L 149.498336 72.580212 
L 149.498336 72.580212 
" style="fill:none;stroke:#000000;stroke-linecap:square;stroke-opacity:0.7;stroke-width:1.2;"/>
   </g>
   <g id="line2d_6">
    <path clip-path="url(#pf9fc38d62b)" d="M 280.768569 229.125385 
L 273.568299 228.797405 
L 263.460281 228.115807 
L 250.881867 227.038327 
L 232.02114 225.16643 
L 216.370554 223.676705 
L 210.198661 223.287669 
L 204.32057 223.137255 
L 198.530955 223.217097 
L 192.283666 223.52583 
L 185.569342 224.091005 
L 181.227274 224.642059 
L 178.594949 225.163106 
L 177.169291 225.653339 
L 176.668937 225.970809 
L 176.401592 226.450297 
L 176.542167 226.846389 
L 176.894922 227.19405 
L 177.462512 227.552197 
L 178.733987 228.10812 
L 180.559324 228.68565 
L 183.923061 229.469136 
L 188.754919 230.294777 
L 194.613906 231.052283 
L 202.518442 231.83419 
L 211.414022 232.477288 
L 219.623892 232.837705 
L 227.054535 232.939965 
L 234.203365 232.828322 
L 243.046745 232.440259 
L 255.090571 231.643512 
L 280.765897 229.665655 
L 280.765897 229.665655 
" style="fill:none;stroke:#000000;stroke-linecap:square;stroke-opacity:0.7;stroke-width:1.2;"/>
   </g>
   <g id="line2d_7">
    <path clip-path="url(#pf9fc38d62b)" d="M 280.629151 189.035068 
L 237.082858 181.585657 
L 228.104651 180.306344 
L 220.44639 179.445531 
L 215.217787 179.037997 
L 210.425635 178.840663 
L 206.053256 178.841948 
L 201.604843 179.046434 
L 197.059157 179.487102 
L 192.735491 180.145603 
L 188.579338 181.036933 
L 185.065487 182.048395 
L 182.267892 183.104294 
L 180.404989 184.012382 
L 178.774042 185.080888 
L 177.862302 185.997916 
L 177.535011 186.666589 
L 177.517198 187.043802 
L 177.815905 187.58817 
L 178.251368 187.882961 
L 179.221988 188.195514 
L 181.31128 188.386613 
L 183.890648 188.297938 
L 188.398079 187.835492 
L 198.83336 186.597529 
L 204.608534 186.179455 
L 210.578722 186.034994 
L 215.802312 186.11209 
L 224.757971 186.503571 
L 252.470136 187.873192 
L 268.141646 188.739883 
L 279.149418 189.548989 
L 280.644903 189.67983 
L 280.644903 189.67983 
" style="fill:none;stroke:#000000;stroke-linecap:square;stroke-opacity:0.7;stroke-width:1.2;"/>
   </g>
   <g id="line2d_8">
    <path clip-path="url(#pf9fc38d62b)" d="M 280.854756 149.784738 
L 277.005023 148.175027 
L 270.913119 145.889541 
L 263.51738 143.396127 
L 256.261648 141.176295 
L 248.556224 139.039269 
L 241.713796 137.341165 
L 234.353818 135.762935 
L 228.554588 134.745418 
L 223.046811 134.011993 
L 217.671755 133.56796 
L 213.629236 133.446125 
L 208.671322 133.585423 
L 204.40217 133.989708 
L 200.059433 134.696255 
L 196.156525 135.605752 
L 192.374438 136.758251 
L 189.091215 138.002301 
L 185.855792 139.492594 
L 183.206604 140.967684 
L 180.981392 142.473649 
L 179.173702 144.033058 
L 178.069948 145.374409 
L 177.575141 146.416822 
L 177.481289 147.061116 
L 177.646495 147.781879 
L 178.12231 148.394236 
L 178.832823 148.862579 
L 179.969553 149.287142 
L 181.899522 149.654047 
L 184.453428 149.843083 
L 187.691973 149.860628 
L 193.715566 149.63251 
L 204.842519 149.160178 
L 212.905572 149.06281 
L 258.583704 149.216432 
L 266.811946 149.537627 
L 275.181549 150.092135 
L 280.881224 150.629767 
L 280.881224 150.629767 
" style="fill:none;stroke:#000000;stroke-linecap:square;stroke-opacity:0.7;stroke-width:1.2;"/>
   </g>
   <g id="line2d_9">
    <path clip-path="url(#pf9fc38d62b)" d="M 280.769585 110.275132 
L 270.767218 107.845445 
L 255.580658 104.396629 
L 242.145749 101.549389 
L 233.021215 99.836668 
L 226.092597 98.754045 
L 219.756499 98.005245 
L 214.530514 97.621502 
L 210.328892 97.505782 
L 206.18967 97.587845 
L 202.073547 97.882204 
L 197.469077 98.480992 
L 193.051542 99.342667 
L 189.451089 100.277515 
L 185.68554 101.527559 
L 182.277142 102.996489 
L 180.096163 104.221488 
L 178.618057 105.313441 
L 177.551113 106.462558 
L 177.139856 107.252655 
L 177.031499 107.949464 
L 177.21567 108.65681 
L 177.5496 109.137082 
L 178.151584 109.654451 
L 179.39367 110.301967 
L 181.047017 110.832546 
L 183.394407 111.298823 
L 186.81638 111.677164 
L 191.983478 111.912476 
L 199.803782 111.968171 
L 214.37558 112.083844 
L 227.272775 112.177713 
L 235.935246 112.002573 
L 248.639728 111.455473 
L 261.066014 111.000651 
L 270.859318 110.868998 
L 279.445164 110.959638 
L 280.784671 110.991773 
L 280.784671 110.991773 
" style="fill:none;stroke:#000000;stroke-linecap:square;stroke-opacity:0.7;stroke-width:1.2;"/>
   </g>
   <g id="line2d_10">
    <path clip-path="url(#pf9fc38d62b)" d="M 280.816475 70.858126 
L 273.432318 68.413345 
L 264.012476 65.541252 
L 253.226848 62.502743 
L 243.299262 59.940965 
L 236.084006 58.271296 
L 229.24282 56.909495 
L 223.202422 55.954537 
L 217.993598 55.376105 
L 213.504253 55.104707 
L 208.895447 55.086143 
L 205.518368 55.261625 
L 201.905866 55.64399 
L 198.3685 56.230215 
L 195.108531 56.974842 
L 192.029221 57.882337 
L 188.964797 59.019977 
L 186.374466 60.21327 
L 184.303044 61.374994 
L 182.022441 62.978674 
L 180.438856 64.445353 
L 179.416757 65.725334 
L 178.828941 66.767676 
L 178.441706 67.9371 
L 178.362227 68.988917 
L 178.486998 69.757695 
L 178.75891 70.463201 
L 179.328644 71.317643 
L 180.208521 72.156096 
L 181.872698 73.176691 
L 183.626368 73.896793 
L 185.440861 74.440243 
L 188.77977 75.134428 
L 192.424378 75.62824 
L 198.039674 76.102136 
L 205.508156 76.477812 
L 216.327686 76.788687 
L 224.305028 76.824305 
L 231.880437 76.62127 
L 238.066411 76.244869 
L 245.745574 75.542326 
L 259.293451 74.001162 
L 278.233944 71.871644 
L 280.82336 71.614787 
L 280.82336 71.614787 
" style="fill:none;stroke:#000000;stroke-linecap:square;stroke-opacity:0.7;stroke-width:1.2;"/>
   </g>
   <g id="line2d_11">
    <path clip-path="url(#pf9fc38d62b)" d="M 411.961242 227.582065 
L 353.570646 220.893323 
L 345.930473 220.326228 
L 340.80662 220.143462 
L 335.8459 220.179064 
L 330.985469 220.44843 
L 325.674375 221.017636 
L 321.660845 221.638757 
L 317.373777 222.503685 
L 313.764093 223.462241 
L 311.672699 224.200445 
L 310.13049 224.948481 
L 309.2588 225.58658 
L 308.758381 226.299909 
L 308.719724 226.844282 
L 308.916935 227.276443 
L 309.382571 227.738895 
L 310.330673 228.2749 
L 311.668259 228.745864 
L 314.693716 229.361933 
L 317.206362 229.653844 
L 321.874076 229.947154 
L 328.848888 230.119499 
L 350.200885 230.322307 
L 358.566882 230.216448 
L 366.931886 229.877173 
L 380.345374 229.031141 
L 391.70416 228.394589 
L 402.057992 228.04686 
L 409.817869 227.987295 
L 411.953479 228.01098 
L 411.953479 228.01098 
" style="fill:none;stroke:#000000;stroke-linecap:square;stroke-opacity:0.7;stroke-width:1.2;"/>
   </g>
   <g id="line2d_12">
    <path clip-path="url(#pf9fc38d62b)" d="M 411.973864 188.471663 
L 406.282498 186.573031 
L 398.157612 184.094793 
L 388.561702 181.387152 
L 377.206767 178.415246 
L 367.537248 176.104829 
L 360.794245 174.690271 
L 355.034553 173.69176 
L 350.305034 173.076293 
L 346.063967 172.725706 
L 342.199106 172.60446 
L 337.824674 172.729217 
L 334.163104 173.071167 
L 330.977677 173.559889 
L 326.99282 174.441771 
L 322.984676 175.661962 
L 320.027667 176.805704 
L 317.484612 177.98585 
L 314.728644 179.526892 
L 312.947156 180.724934 
L 310.84844 182.478788 
L 309.740907 183.70137 
L 308.979427 184.869886 
L 308.60155 185.851638 
L 308.520021 186.347624 
L 308.55873 187.041804 
L 308.9588 187.933305 
L 309.141832 188.154338 
L 310.029652 188.833629 
L 311.593621 189.444152 
L 313.309177 189.782092 
L 315.101224 189.953768 
L 317.394627 190.021103 
L 321.545858 189.914622 
L 343.158768 188.885873 
L 353.943252 188.817946 
L 371.919695 188.711761 
L 388.759705 188.592937 
L 399.797455 188.741541 
L 409.702693 189.091559 
L 412.010603 189.216784 
L 412.010603 189.216784 
" style="fill:none;stroke:#000000;stroke-linecap:square;stroke-opacity:0.7;stroke-width:1.2;"/>
   </g>
   <g id="line2d_13">
    <path clip-path="url(#pf9fc38d62b)" d="M 412.355861 150.402726 
L 401.386527 147.808064 
L 388.55863 145.019501 
L 377.943282 142.926112 
L 369.196398 141.420336 
L 361.886602 140.385213 
L 355.013813 139.651037 
L 348.617733 139.224581 
L 343.895907 139.103546 
L 338.406791 139.205338 
L 333.167865 139.566685 
L 328.970374 140.048254 
L 324.855281 140.692836 
L 321.076099 141.454113 
L 316.965348 142.52807 
L 314.743286 143.275906 
L 312.86209 144.076154 
L 310.798262 145.365056 
L 310.034549 146.213028 
L 309.803088 146.681404 
L 309.700657 147.22397 
L 309.85512 147.978714 
L 310.326121 148.686002 
L 310.844637 149.169494 
L 312.011936 149.921271 
L 313.594301 150.628743 
L 315.780013 151.332667 
L 318.526466 151.978946 
L 322.225836 152.618358 
L 327.732296 153.313346 
L 335.041507 154.01449 
L 343.823794 154.669537 
L 352.884207 155.102496 
L 359.573579 155.208314 
L 366.323696 155.087488 
L 372.850675 154.74411 
L 381.464105 154.033938 
L 404.762998 151.728161 
L 412.345796 151.022844 
L 412.345796 151.022844 
" style="fill:none;stroke:#000000;stroke-linecap:square;stroke-opacity:0.7;stroke-width:1.2;"/>
   </g>
   <g id="line2d_14">
    <path clip-path="url(#pf9fc38d62b)" d="M 412.383369 110.224682 
L 407.488294 108.895049 
L 400.270969 107.158982 
L 391.917543 105.368225 
L 382.360636 103.553461 
L 373.415844 102.08365 
L 365.368254 100.968192 
L 356.870564 100.018942 
L 349.724076 99.43795 
L 343.379849 99.159764 
L 338.673399 99.156953 
L 333.898655 99.382299 
L 329.289297 99.858453 
L 325.401331 100.486845 
L 321.586991 101.337913 
L 319.163524 102.023192 
L 316.249228 103.039177 
L 313.452228 104.301908 
L 311.601786 105.417915 
L 311.206705 105.711072 
L 310.030577 106.873934 
L 309.685706 107.520811 
L 309.614547 107.987257 
L 309.786517 108.522764 
L 310.290164 108.993636 
L 310.932864 109.295977 
L 313.042388 109.707325 
L 315.296635 109.798911 
L 319.506902 109.627353 
L 328.040053 108.893189 
L 336.346408 108.26307 
L 342.872883 107.96748 
L 352.175467 107.789411 
L 371.970134 107.708775 
L 381.635151 107.827588 
L 389.5554 108.144136 
L 396.685648 108.651457 
L 403.14433 109.318496 
L 409.668745 110.222045 
L 412.353346 110.672109 
L 412.353346 110.672109 
" style="fill:none;stroke:#000000;stroke-linecap:square;stroke-opacity:0.7;stroke-width:1.2;"/>
   </g>
   <g id="line2d_15">
    <path clip-path="url(#pf9fc38d62b)" d="M 412.2089 71.293145 
L 389.117672 67.436544 
L 377.111663 65.633625 
L 368.66403 64.587454 
L 361.531651 63.918706 
L 354.220852 63.461024 
L 347.03416 63.256844 
L 342.277534 63.282 
L 336.394728 63.520535 
L 330.649975 63.984471 
L 325.188832 64.624627 
L 318.47595 65.65546 
L 314.390871 66.429995 
L 310.403348 67.387202 
L 308.287389 68.14713 
L 307.668804 68.56686 
L 307.591665 68.860854 
L 307.992698 69.133253 
L 308.537178 69.264433 
L 310.620605 69.413362 
L 313.643369 69.353354 
L 318.416422 69.05608 
L 335.320392 67.86996 
L 342.446601 67.674299 
L 349.969166 67.733956 
L 359.491329 68.062126 
L 376.808041 68.912033 
L 388.308953 69.685511 
L 400.58604 70.751216 
L 411.092094 71.880925 
L 412.275291 72.026195 
L 412.275291 72.026195 
" style="fill:none;stroke:#000000;stroke-linecap:square;stroke-opacity:0.7;stroke-width:1.2;"/>
   </g>
   <g id="line2d_16">
    <path clip-path="url(#pf9fc38d62b)" d="M 543.55619 228.486462 
L 535.952667 228.115216 
L 526.608378 227.419045 
L 516.733966 226.453202 
L 504.549199 225.008319 
L 483.343754 222.419096 
L 476.431189 221.843564 
L 470.925829 221.625199 
L 465.876492 221.654002 
L 459.839452 221.971267 
L 454.470399 222.495225 
L 449.863573 223.144164 
L 446.475077 223.792718 
L 444.062106 224.415794 
L 442.14896 225.120389 
L 441.020872 225.786901 
L 440.568974 226.281965 
L 440.433127 226.768125 
L 440.525522 227.113113 
L 440.858255 227.527077 
L 441.610778 228.018591 
L 443.21762 228.625482 
L 445.007113 229.061734 
L 448.491345 229.62613 
L 452.921811 230.107259 
L 462.883964 230.889792 
L 482.008865 232.186263 
L 489.003966 232.454853 
L 495.808817 232.483228 
L 502.160256 232.281806 
L 510.014622 231.797221 
L 522.986639 230.726705 
L 543.525446 228.919105 
L 543.525446 228.919105 
" style="fill:none;stroke:#000000;stroke-linecap:square;stroke-opacity:0.7;stroke-width:1.2;"/>
   </g>
   <g id="line2d_17">
    <path clip-path="url(#pf9fc38d62b)" d="M 543.169196 188.564188 
L 532.08838 187.113822 
L 518.621254 185.116075 
L 488.641621 180.493373 
L 481.456877 179.703968 
L 475.966899 179.339053 
L 471.742057 179.253304 
L 467.138496 179.38766 
L 462.886298 179.734578 
L 459.786942 180.121413 
L 454.589937 181.018771 
L 450.624121 181.922143 
L 447.132561 182.909471 
L 444.329799 183.896432 
L 442.076539 184.92595 
L 440.510688 185.955617 
L 440.140338 186.309406 
L 439.664365 187.078633 
L 439.625085 187.534985 
L 439.864481 188.070412 
L 440.54913 188.629659 
L 441.742338 189.136632 
L 443.427529 189.557643 
L 446.410497 189.98431 
L 450.725767 190.307551 
L 458.350386 190.578658 
L 477.073985 190.933597 
L 488.677526 190.969644 
L 498.04505 190.765962 
L 511.438078 190.204598 
L 531.515605 189.392473 
L 543.21963 189.082679 
L 543.21963 189.082679 
" style="fill:none;stroke:#000000;stroke-linecap:square;stroke-opacity:0.7;stroke-width:1.2;"/>
   </g>
   <g id="line2d_18">
    <path clip-path="url(#pf9fc38d62b)" d="M 543.224144 149.044858 
L 533.037589 147.696081 
L 519.762866 145.710333 
L 505.732026 143.391974 
L 487.29906 140.322431 
L 481.291309 139.56709 
L 476.374466 139.161474 
L 471.970794 139.009528 
L 467.356661 139.096581 
L 463.129444 139.411444 
L 458.720958 139.982571 
L 455.368693 140.582457 
L 451.37486 141.488874 
L 447.009492 142.754515 
L 443.780686 143.973542 
L 441.841851 144.963667 
L 440.554687 145.966737 
L 440.035798 146.789483 
L 440.019934 147.640033 
L 440.151284 147.955152 
L 440.730594 148.663202 
L 441.53053 149.248034 
L 442.687635 149.842111 
L 444.696886 150.570338 
L 446.894926 151.143778 
L 450.831671 151.865436 
L 454.813397 152.369712 
L 461.394134 152.940968 
L 470.410975 153.463447 
L 480.621461 153.831631 
L 488.44038 153.901214 
L 494.956173 153.757248 
L 501.169405 153.426332 
L 509.882666 152.707114 
L 543.240736 149.533415 
L 543.240736 149.533415 
" style="fill:none;stroke:#000000;stroke-linecap:square;stroke-opacity:0.7;stroke-width:1.2;"/>
   </g>
   <g id="line2d_19">
    <path clip-path="url(#pf9fc38d62b)" d="M 543.960685 111.090136 
L 503.905116 103.025038 
L 496.724843 101.92971 
L 491.669549 101.322241 
L 484.638186 100.722554 
L 478.254088 100.435632 
L 472.549861 100.399749 
L 467.764573 100.54141 
L 462.531251 100.889443 
L 457.220221 101.476423 
L 452.598059 102.232483 
L 448.883802 103.081604 
L 445.990709 103.980275 
L 444.225745 104.694387 
L 442.768733 105.442856 
L 441.796548 106.080244 
L 440.616166 107.205433 
L 440.154201 108.088408 
L 440.084449 108.560297 
L 440.202329 109.17712 
L 440.520201 109.703827 
L 441.225862 110.333276 
L 442.772157 111.112141 
L 443.325312 111.30957 
L 445.516291 111.89436 
L 448.92435 112.47876 
L 453.01382 112.943109 
L 460.93557 113.565377 
L 477.722131 114.607023 
L 485.972552 114.940599 
L 492.982886 115.027108 
L 498.55253 114.939881 
L 506.282679 114.606687 
L 517.255875 113.868322 
L 543.979509 111.806832 
L 543.979509 111.806832 
" style="fill:none;stroke:#000000;stroke-linecap:square;stroke-opacity:0.7;stroke-width:1.2;"/>
   </g>
   <g id="line2d_20">
    <path clip-path="url(#pf9fc38d62b)" d="M 543.928567 71.629583 
L 534.89666 69.488835 
L 523.150178 66.944445 
L 513.556263 65.07571 
L 506.253866 63.841268 
L 499.069429 62.858641 
L 493.5197 62.291557 
L 487.878939 61.898493 
L 481.239258 61.681071 
L 475.479434 61.726434 
L 469.583278 62.027184 
L 464.263229 62.534683 
L 458.979637 63.258915 
L 453.087389 64.326231 
L 448.208549 65.460122 
L 444.974182 66.416551 
L 443.201904 67.079699 
L 441.828889 67.752101 
L 441.004909 68.35383 
L 440.678163 68.801735 
L 440.639455 69.235068 
L 440.754248 69.469903 
L 441.303715 69.915828 
L 442.231305 70.295179 
L 444.33802 70.762207 
L 447.488874 71.121479 
L 452.422266 71.37354 
L 458.807723 71.458101 
L 469.245802 71.350683 
L 481.340237 71.014034 
L 510.212398 70.000978 
L 517.706169 70.122367 
L 525.227217 70.487714 
L 532.470727 71.043611 
L 541.226647 71.955393 
L 543.938243 72.286975 
L 543.938243 72.286975 
" style="fill:none;stroke:#000000;stroke-linecap:square;stroke-opacity:0.7;stroke-width:1.2;"/>
   </g>
   <g id="line2d_21">
    <path clip-path="url(#pf9fc38d62b)" d="M 675.478744 229.562442 
L 667.08527 228.663831 
L 653.00996 226.918281 
L 624.102634 223.233347 
L 615.566839 222.409868 
L 609.059495 221.985149 
L 602.847825 221.818977 
L 597.07826 221.914775 
L 590.962253 222.280717 
L 585.086867 222.872764 
L 579.821624 223.615743 
L 575.516777 224.451846 
L 573.09092 225.144016 
L 572.056071 225.6071 
L 571.5541 226.021957 
L 571.482589 226.396725 
L 571.716602 226.684412 
L 572.120414 226.911088 
L 573.21254 227.246765 
L 575.436688 227.592107 
L 578.336282 227.808745 
L 583.697323 227.951687 
L 600.85088 228.220856 
L 608.651151 228.646062 
L 625.985257 229.693491 
L 635.988226 229.999124 
L 649.375497 230.135744 
L 675.490909 230.259926 
L 675.490909 230.259926 
" style="fill:none;stroke:#000000;stroke-linecap:square;stroke-opacity:0.7;stroke-width:1.2;"/>
   </g>
   <g id="line2d_22">
    <path clip-path="url(#pf9fc38d62b)" d="M 675.362377 189.654271 
L 669.448698 189.286532 
L 660.90267 188.504672 
L 650.824493 187.326308 
L 641.366677 186.009286 
L 631.710929 184.448817 
L 609.892218 180.74582 
L 605.367025 180.269088 
L 601.541495 180.047133 
L 596.728847 180.036359 
L 593.168791 180.226264 
L 588.526875 180.721884 
L 584.0968 181.455764 
L 579.941444 182.399765 
L 577.803774 183.008919 
L 574.612545 184.185118 
L 573.300676 184.872717 
L 572.348662 185.664025 
L 572.099259 186.156375 
L 572.115013 186.550024 
L 572.439911 187.04576 
L 573.151893 187.542604 
L 574.247946 188.016158 
L 575.648337 188.442787 
L 578.69142 189.0848 
L 582.799326 189.669376 
L 589.202393 190.307164 
L 603.43142 191.629597 
L 619.220326 193.237951 
L 625.014866 193.584668 
L 631.182981 193.707383 
L 637.643908 193.563043 
L 644.590839 193.170222 
L 654.829859 192.334642 
L 669.378664 190.889911 
L 675.352131 190.244897 
L 675.352131 190.244897 
" style="fill:none;stroke:#000000;stroke-linecap:square;stroke-opacity:0.7;stroke-width:1.2;"/>
   </g>
   <g id="line2d_23">
    <path clip-path="url(#pf9fc38d62b)" d="M 675.041412 149.356274 
L 665.606301 148.547418 
L 653.703447 147.29659 
L 639.757189 145.591211 
L 620.245558 143.173181 
L 612.126729 142.385705 
L 606.12897 142.017408 
L 600.765896 141.91876 
L 595.267423 142.08802 
L 590.304913 142.490213 
L 585.995682 143.041714 
L 581.520631 143.846329 
L 578.344102 144.613675 
L 575.747874 145.444445 
L 573.764578 146.349398 
L 572.929375 146.951379 
L 572.612583 147.366003 
L 572.558815 147.746127 
L 572.68701 147.990765 
L 573.004736 148.235967 
L 573.491812 148.437327 
L 574.555353 148.664523 
L 576.521861 148.818808 
L 579.884186 148.801883 
L 587.728025 148.413536 
L 594.564305 148.137602 
L 600.179113 148.10214 
L 607.249851 148.328667 
L 618.301221 149.001735 
L 628.049447 149.491612 
L 636.309549 149.663954 
L 648.974257 149.657784 
L 669.224329 149.669601 
L 675.026325 149.755305 
L 675.026325 149.755305 
" style="fill:none;stroke:#000000;stroke-linecap:square;stroke-opacity:0.7;stroke-width:1.2;"/>
   </g>
   <g id="line2d_24">
    <path clip-path="url(#pf9fc38d62b)" d="M 674.728829 109.535784 
L 655.557872 106.229398 
L 629.398165 101.596055 
L 621.860128 100.554368 
L 615.709485 99.922948 
L 610.63781 99.589687 
L 605.145988 99.461431 
L 600.169438 99.587191 
L 595.556499 99.928794 
L 590.614832 100.547339 
L 586.10409 101.354387 
L 582.007116 102.318408 
L 578.990168 103.209982 
L 575.8836 104.370612 
L 574.045613 105.251591 
L 572.40717 106.279758 
L 571.340088 107.240975 
L 570.731456 108.159386 
L 570.550385 108.792278 
L 570.565502 109.380322 
L 570.792162 110.008202 
L 571.404867 110.776966 
L 572.100763 111.319792 
L 572.982036 111.820741 
L 574.935969 112.58982 
L 577.81363 113.309801 
L 581.262951 113.844918 
L 585.9247 114.259607 
L 591.899762 114.510842 
L 601.42071 114.625217 
L 614.787127 114.551621 
L 623.817742 114.298594 
L 632.022457 113.84164 
L 642.897126 112.969596 
L 674.732849 110.069727 
L 674.732849 110.069727 
" style="fill:none;stroke:#000000;stroke-linecap:square;stroke-opacity:0.7;stroke-width:1.2;"/>
   </g>
   <g id="line2d_25">
    <path clip-path="url(#pf9fc38d62b)" d="M 675.297359 71.129033 
L 656.765022 67.581837 
L 643.614799 65.2702 
L 634.295303 63.864577 
L 627.702785 63.057045 
L 619.650987 62.313183 
L 612.879795 61.900021 
L 606.128386 61.706137 
L 600.370472 61.755592 
L 595.361162 61.996088 
L 589.673527 62.526558 
L 585.151132 63.17278 
L 580.862769 64.022874 
L 577.59694 64.915045 
L 576.288769 65.377269 
L 574.649489 66.120662 
L 573.625341 66.772168 
L 573.218886 67.118825 
L 572.547546 68.039115 
L 572.386026 68.743045 
L 572.479237 69.402315 
L 572.723603 69.949249 
L 573.207093 70.60276 
L 574.024093 71.356769 
L 574.464434 71.681649 
L 576.643269 72.902314 
L 578.851717 73.791809 
L 582.149974 74.778078 
L 585.968333 75.603178 
L 590.60132 76.306414 
L 595.987711 76.84648 
L 601.988121 77.213652 
L 609.406427 77.440498 
L 616.518939 77.46867 
L 624.545817 77.261235 
L 632.025718 76.800053 
L 639.271148 76.115347 
L 650.524213 74.785829 
L 675.298005 71.745986 
L 675.298005 71.745986 
" style="fill:none;stroke:#000000;stroke-linecap:square;stroke-opacity:0.7;stroke-width:1.2;"/>
   </g>
  </g>
 </g>
 <defs>
  <clipPath id="pf9fc38d62b">
   <rect height="262.08" width="694.08" x="12.96" y="12.96"/>
  </clipPath>
 </defs>
</svg>
