<?xml version="1.0" encoding="utf-8" standalone="no"?>
<!DOCTYPE svg PUBLIC "-//W3C//DTD SVG 1.1//EN"
  "http://www.w3.org/Graphics/SVG/1.1/DTD/svg11.dtd">
<!-- Created with matplotlib (https://matplotlib.org/) -->
<svg height="288pt" version="1.1" viewBox="0 0 720 288" width="720pt" xmlns="http://www.w3.org/2000/svg" xmlns:xlink="http://www.w3.org/1999/xlink">
 <metadata>
  <rdf:RDF xmlns:cc="http://creativecommons.org/ns#" xmlns:dc="http://purl.org/dc/elements/1.1/" xmlns:rdf="http://www.w3.org/1999/02/22-rdf-syntax-ns#">
   <cc:Work>
    <dc:type rdf:resource="http://purl.org/dc/dcmitype/StillImage"/>
    <dc:date>2021-04-26T15:40:50.118956</dc:date>
    <dc:format>image/svg+xml</dc:format>
    <dc:creator>
     <cc:Agent>
      <dc:title>Matplotlib v3.3.4, https://matplotlib.org/</dc:title>
     </cc:Agent>
    </dc:creator>
   </cc:Work>
  </rdf:RDF>
 </metadata>
 <defs>
  <style type="text/css">*{stroke-linecap:butt;stroke-linejoin:round;}</style>
 </defs>
 <g id="figure_1">
  <g id="patch_1">
   <path d="M 0 288 
L 720 288 
L 720 0 
L 0 0 
z
" style="fill:#ffffff;"/>
  </g>
  <g id="axes_1">
   <g id="line2d_1">
    <path clip-path="url(#p86fb9da603)" d="M 149.119909 229.558823 
L 122.559895 225.857166 
L 107.393162 223.922573 
L 97.607231 222.908247 
L 90.828906 222.40492 
L 84.432563 222.145942 
L 78.328399 222.146347 
L 72.584183 222.39912 
L 67.889839 222.802609 
L 63.138731 223.41006 
L 58.153551 224.305695 
L 54.122049 225.295644 
L 51.529247 226.128448 
L 49.538712 226.947445 
L 48.083782 227.735101 
L 46.894508 228.696921 
L 46.493006 229.334546 
L 46.439764 229.802863 
L 46.695064 230.311988 
L 47.293637 230.745105 
L 48.124005 231.071784 
L 49.652713 231.416894 
L 51.471782 231.650657 
L 54.97724 231.877292 
L 61.537895 232.001363 
L 76.690775 231.943849 
L 96.545474 231.70604 
L 108.1044 231.33039 
L 139.358965 230.161239 
L 149.149635 229.972268 
L 149.149635 229.972268 
" style="fill:none;stroke:#000000;stroke-linecap:square;stroke-opacity:0.7;stroke-width:1.2;"/>
   </g>
   <g id="line2d_2">
    <path clip-path="url(#p86fb9da603)" d="M 149.146939 190.069232 
L 143.536455 188.310221 
L 134.699035 185.779375 
L 123.721126 182.869099 
L 113.446782 180.350421 
L 104.659204 178.408247 
L 98.335043 177.200023 
L 92.548053 176.298948 
L 87.100187 175.692664 
L 83.124828 175.437177 
L 79.369536 175.367896 
L 75.239417 175.511944 
L 71.657838 175.846374 
L 68.122919 176.390103 
L 64.713115 177.141356 
L 61.990885 177.923978 
L 58.181473 179.345342 
L 55.702744 180.522635 
L 52.931749 182.151206 
L 50.6465 183.841647 
L 48.973193 185.393121 
L 47.700423 186.908936 
L 46.979427 188.095607 
L 46.58961 189.286136 
L 46.580669 189.800798 
L 46.745576 190.340082 
L 47.026511 190.708852 
L 47.265881 190.903784 
L 48.298489 191.348243 
L 49.779614 191.591408 
L 52.426558 191.66153 
L 57.107526 191.432658 
L 75.65262 190.207544 
L 84.440141 189.919043 
L 95.422307 189.809826 
L 123.658377 189.849428 
L 137.482597 190.089475 
L 149.134201 190.490632 
L 149.134201 190.490632 
" style="fill:none;stroke:#000000;stroke-linecap:square;stroke-opacity:0.7;stroke-width:1.2;"/>
   </g>
   <g id="line2d_3">
    <path clip-path="url(#p86fb9da603)" d="M 149.456534 151.319224 
L 131.243997 148.484123 
L 114.648313 146.093343 
L 104.199256 144.800857 
L 95.287249 143.916244 
L 87.492239 143.356534 
L 81.240804 143.105929 
L 75.072776 143.087027 
L 69.555593 143.302099 
L 64.025219 143.774447 
L 59.165377 144.442091 
L 55.739239 145.090661 
L 52.22736 145.963481 
L 49.595559 146.824195 
L 47.644683 147.658407 
L 46.383469 148.366537 
L 45.298651 149.223271 
L 44.718736 149.991929 
L 44.509091 150.769208 
L 44.646502 151.450484 
L 44.881024 151.860554 
L 45.500949 152.509619 
L 46.394876 153.125997 
L 46.945625 153.425291 
L 48.980469 154.277346 
L 52.41778 155.281374 
L 56.243807 156.09532 
L 61.372038 156.914716 
L 66.890322 157.570478 
L 72.874101 158.078968 
L 79.297083 158.417742 
L 86.106877 158.554489 
L 92.5711 158.47351 
L 99.395136 158.153725 
L 105.805208 157.622792 
L 112.749166 156.82494 
L 124.701877 155.164256 
L 146.288599 152.143054 
L 149.445846 151.749792 
L 149.445846 151.749792 
" style="fill:none;stroke:#000000;stroke-linecap:square;stroke-opacity:0.7;stroke-width:1.2;"/>
   </g>
   <g id="line2d_4">
    <path clip-path="url(#p86fb9da603)" d="M 149.017185 111.2549 
L 140.230779 110.902609 
L 127.391084 110.148968 
L 111.298218 108.962428 
L 93.834798 107.689253 
L 85.382804 107.278145 
L 77.628777 107.137974 
L 71.275183 107.242027 
L 64.879342 107.57387 
L 59.118243 108.095631 
L 53.974861 108.795973 
L 50.564608 109.462983 
L 48.043009 110.194076 
L 46.930295 110.701656 
L 46.216172 111.304867 
L 46.091481 111.703152 
L 46.247331 112.093862 
L 46.741099 112.502832 
L 47.564551 112.883423 
L 49.635892 113.446671 
L 53.284376 114.021777 
L 58.470148 114.527657 
L 66.203942 115.021957 
L 77.120355 115.476525 
L 87.555451 115.6907 
L 95.588736 115.648107 
L 102.523955 115.411426 
L 110.519048 114.906083 
L 123.576778 113.790897 
L 148.993082 111.589199 
L 148.993082 111.589199 
" style="fill:none;stroke:#000000;stroke-linecap:square;stroke-opacity:0.7;stroke-width:1.2;"/>
   </g>
   <g id="line2d_5">
    <path clip-path="url(#p86fb9da603)" d="M 149.313083 71.675491 
L 145.8914 70.112668 
L 140.232622 67.752633 
L 133.427069 65.160833 
L 125.818212 62.513719 
L 118.747277 60.274529 
L 111.843538 58.305249 
L 105.429022 56.700476 
L 100.797596 55.710253 
L 95.894647 54.85863 
L 91.215498 54.278737 
L 86.862336 53.981067 
L 83.25357 53.932906 
L 79.157578 54.115875 
L 76.155081 54.421197 
L 72.338253 55.032418 
L 69.001612 55.785818 
L 65.17624 56.925328 
L 61.585232 58.296869 
L 58.150671 59.929155 
L 55.608348 61.380014 
L 52.38313 63.599071 
L 49.788515 65.810264 
L 48.157709 67.510832 
L 46.771099 69.33601 
L 45.980226 70.845417 
L 45.702011 72.028833 
L 45.745714 72.631122 
L 46.116092 73.403543 
L 46.441169 73.726223 
L 47.367729 74.245559 
L 48.896645 74.652505 
L 51.215291 74.888054 
L 54.312505 74.906128 
L 58.302796 74.696702 
L 64.697629 74.087552 
L 72.9538 73.02426 
L 83.946177 71.335872 
L 97.750661 69.212371 
L 103.867314 68.502404 
L 109.416786 68.104742 
L 114.039123 67.981527 
L 118.753652 68.045215 
L 124.628772 68.363014 
L 131.084705 68.975431 
L 137.569656 69.834069 
L 144.625258 71.026697 
L 149.284072 71.964852 
L 149.284072 71.964852 
" style="fill:none;stroke:#000000;stroke-linecap:square;stroke-opacity:0.7;stroke-width:1.2;"/>
   </g>
   <g id="line2d_6">
    <path clip-path="url(#p86fb9da603)" d="M 281.32284 231.125515 
L 273.395668 229.599906 
L 262.479185 227.734296 
L 252.662337 226.28046 
L 244.339352 225.2644 
L 236.213684 224.52325 
L 228.227461 224.039583 
L 218.562386 223.706451 
L 210.712149 223.643591 
L 203.874435 223.817882 
L 198.680447 224.148389 
L 193.617226 224.679364 
L 189.048283 225.381823 
L 185.882109 226.032754 
L 182.615031 226.908166 
L 180.116675 227.806572 
L 178.414257 228.656934 
L 177.684765 229.179297 
L 177.16576 229.864032 
L 177.201667 230.291306 
L 177.487246 230.575188 
L 177.927818 230.779564 
L 178.812019 230.986042 
L 180.136549 231.114889 
L 183.378112 231.110085 
L 189.399063 230.702016 
L 212.128415 228.768927 
L 219.181297 228.501271 
L 227.336296 228.419858 
L 238.423178 228.54313 
L 248.392548 228.840645 
L 257.589247 229.329984 
L 266.624524 230.031739 
L 275.477941 230.921903 
L 281.325561 231.613602 
L 281.325561 231.613602 
" style="fill:none;stroke:#000000;stroke-linecap:square;stroke-opacity:0.7;stroke-width:1.2;"/>
   </g>
   <g id="line2d_7">
    <path clip-path="url(#p86fb9da603)" d="M 281.273707 191.614244 
L 263.556962 187.673024 
L 251.424316 185.190547 
L 242.339932 183.551535 
L 234.199959 182.323709 
L 226.550631 181.413468 
L 219.813471 180.836351 
L 213.775564 180.545463 
L 208.078692 180.521816 
L 203.64495 180.704803 
L 199.152084 181.094938 
L 194.508832 181.745299 
L 191.191304 182.39348 
L 187.903232 183.228869 
L 184.947326 184.204337 
L 182.659902 185.176833 
L 180.655171 186.288439 
L 180.248473 186.56098 
L 178.683726 187.903217 
L 178.008528 188.851415 
L 177.759331 189.534225 
L 177.759798 190.316649 
L 178.008031 190.90422 
L 178.563836 191.516075 
L 179.437035 192.075954 
L 181.532032 192.843049 
L 183.543515 193.281733 
L 186.768204 193.71903 
L 191.135824 194.047732 
L 197.506367 194.261926 
L 207.171463 194.32447 
L 222.142903 194.172648 
L 232.083704 193.879402 
L 243.883134 193.280133 
L 258.347092 192.567394 
L 269.854794 192.242064 
L 281.278634 192.122066 
L 281.278634 192.122066 
" style="fill:none;stroke:#000000;stroke-linecap:square;stroke-opacity:0.7;stroke-width:1.2;"/>
   </g>
   <g id="line2d_8">
    <path clip-path="url(#p86fb9da603)" d="M 281.030848 151.247544 
L 275.185654 149.595536 
L 266.190089 147.283108 
L 256.09536 144.932787 
L 247.506949 143.167426 
L 240.642609 141.984589 
L 235.062364 141.233748 
L 229.144489 140.68818 
L 223.782101 140.42815 
L 219.038595 140.376872 
L 213.157397 140.530154 
L 206.815684 140.951868 
L 201.575387 141.508343 
L 196.373598 142.277269 
L 191.961696 143.145968 
L 189.000928 143.880107 
L 185.795602 144.871408 
L 183.179038 145.91202 
L 181.288391 146.882666 
L 180.373086 147.464309 
L 178.853541 148.755142 
L 177.994609 149.992581 
L 177.685271 151.080184 
L 177.730651 151.976011 
L 177.977542 152.735891 
L 178.534979 153.662195 
L 179.550136 154.750823 
L 181.287231 156.056558 
L 183.26916 157.189355 
L 185.664841 158.297082 
L 189.218689 159.624306 
L 192.582502 160.641411 
L 196.190399 161.529912 
L 200.48428 162.346728 
L 205.382468 162.979141 
L 210.719797 163.326841 
L 216.036019 163.357523 
L 221.111972 163.138388 
L 226.50796 162.681785 
L 231.720888 162.046955 
L 237.777636 161.087466 
L 244.610589 159.758981 
L 254.884952 157.481203 
L 274.2082 153.149808 
L 281.034897 151.779325 
L 281.034897 151.779325 
" style="fill:none;stroke:#000000;stroke-linecap:square;stroke-opacity:0.7;stroke-width:1.2;"/>
   </g>
   <g id="line2d_9">
    <path clip-path="url(#p86fb9da603)" d="M 280.941269 111.863052 
L 261.850812 109.255964 
L 247.617245 107.525831 
L 236.901452 106.455094 
L 228.095027 105.776791 
L 218.587774 105.242597 
L 210.514126 105.020975 
L 204.530405 105.082422 
L 199.699297 105.317543 
L 195.823667 105.64684 
L 191.789957 106.142752 
L 186.711582 107.036398 
L 183.722944 107.74453 
L 180.894895 108.5938 
L 178.790692 109.401666 
L 177.417471 110.073692 
L 176.252471 110.849747 
L 175.589934 111.707968 
L 175.582915 112.024658 
L 175.764532 112.320122 
L 176.131013 112.561534 
L 177.192379 112.863164 
L 178.910569 113.033989 
L 182.316064 113.058926 
L 192.390963 112.72982 
L 202.207275 112.536279 
L 213.725224 112.578574 
L 232.535026 112.688931 
L 245.799445 112.468655 
L 263.215867 112.212479 
L 277.073399 112.2474 
L 280.968506 112.298964 
L 280.968506 112.298964 
" style="fill:none;stroke:#000000;stroke-linecap:square;stroke-opacity:0.7;stroke-width:1.2;"/>
   </g>
   <g id="line2d_10">
    <path clip-path="url(#p86fb9da603)" d="M 281.291033 73.360236 
L 275.447131 71.627537 
L 267.196949 69.378883 
L 257.465937 66.942879 
L 248.643293 64.923849 
L 239.450423 63.026565 
L 230.634944 61.424016 
L 223.690641 60.356946 
L 217.962812 59.682314 
L 214.010932 59.373167 
L 209.124793 59.218679 
L 205.718124 59.285807 
L 202.091263 59.536059 
L 198.398434 60.001603 
L 194.612673 60.72999 
L 191.250884 61.628721 
L 187.906755 62.817283 
L 185.531402 63.894613 
L 183.729442 64.88535 
L 182.148156 65.922041 
L 180.126849 67.594225 
L 178.941715 68.905891 
L 178.345385 69.783632 
L 177.901178 70.752263 
L 177.764613 71.695915 
L 177.884382 72.215467 
L 178.040219 72.496817 
L 178.512389 72.953146 
L 179.246453 73.318143 
L 180.550244 73.63489 
L 182.837085 73.823693 
L 186.561539 73.780195 
L 192.08123 73.458423 
L 209.209554 72.345539 
L 217.304337 72.066944 
L 227.643311 71.962979 
L 242.397885 72.065386 
L 253.929063 72.313638 
L 265.649647 72.796744 
L 276.355002 73.453684 
L 281.273318 73.828935 
L 281.273318 73.828935 
" style="fill:none;stroke:#000000;stroke-linecap:square;stroke-opacity:0.7;stroke-width:1.2;"/>
   </g>
   <g id="line2d_11">
    <path clip-path="url(#p86fb9da603)" d="M 412.45259 230.55494 
L 406.190971 230.312334 
L 397.321488 229.749953 
L 385.191858 228.742221 
L 373.976286 227.604374 
L 361.634789 226.120579 
L 350.267436 224.780614 
L 344.498032 224.296946 
L 339.488157 224.068928 
L 333.917098 224.061559 
L 329.019106 224.278956 
L 324.336055 224.689584 
L 319.49792 225.347717 
L 315.928699 226.031774 
L 312.808856 226.852663 
L 310.614018 227.690281 
L 309.443775 228.401309 
L 308.942965 229.015556 
L 308.892986 229.442975 
L 309.11368 229.868329 
L 309.709854 230.334479 
L 310.877036 230.847253 
L 313.098817 231.44599 
L 316.52361 232.03999 
L 321.497672 232.619721 
L 328.999189 233.211061 
L 337.643296 233.67108 
L 347.812371 233.993942 
L 356.616332 234.069902 
L 365.521873 233.915989 
L 374.864606 233.510028 
L 388.580279 232.659902 
L 412.446259 230.977533 
L 412.446259 230.977533 
" style="fill:none;stroke:#000000;stroke-linecap:square;stroke-opacity:0.7;stroke-width:1.2;"/>
   </g>
   <g id="line2d_12">
    <path clip-path="url(#p86fb9da603)" d="M 412.673339 191.56309 
L 404.904726 190.592965 
L 387.731915 188.1751 
L 366.292161 185.181275 
L 356.753884 184.042889 
L 349.412013 183.37596 
L 343.498065 183.063984 
L 338.270396 183.007774 
L 333.426834 183.162463 
L 328.693903 183.51827 
L 324.779718 183.97688 
L 319.8645 184.796156 
L 316.607271 185.52856 
L 313.997813 186.270988 
L 311.178965 187.331135 
L 309.596436 188.163291 
L 308.642332 188.883 
L 308.209205 189.379136 
L 307.934457 190.025575 
L 308.085761 190.801889 
L 308.380383 191.181798 
L 308.938742 191.624281 
L 309.991915 192.163664 
L 311.212405 192.59977 
L 313.360068 193.148783 
L 317.22609 193.809559 
L 322.738952 194.412803 
L 328.93855 194.852588 
L 337.845045 195.248538 
L 348.547336 195.500412 
L 358.66156 195.512597 
L 367.36449 195.286854 
L 376.294673 194.82401 
L 389.954755 193.868815 
L 412.68162 192.0553 
L 412.68162 192.0553 
" style="fill:none;stroke:#000000;stroke-linecap:square;stroke-opacity:0.7;stroke-width:1.2;"/>
   </g>
   <g id="line2d_13">
    <path clip-path="url(#p86fb9da603)" d="M 411.933059 150.563981 
L 388.528105 147.850657 
L 374.46653 146.418819 
L 364.509321 145.615252 
L 356.47793 145.183607 
L 349.213295 145.031697 
L 343.018036 145.132448 
L 336.909171 145.465798 
L 330.772526 146.038946 
L 324.920485 146.810752 
L 319.293472 147.78878 
L 314.896261 148.781385 
L 312.129987 149.591862 
L 310.204466 150.356763 
L 309.218255 150.969365 
L 308.931149 151.341486 
L 308.948975 151.667272 
L 309.215456 151.922768 
L 309.755195 152.15527 
L 311.06324 152.430001 
L 314.01036 152.673211 
L 318.519943 152.746201 
L 326.059408 152.601233 
L 340.094743 152.050281 
L 365.900667 151.026063 
L 378.181697 150.77994 
L 393.091855 150.707058 
L 407.614619 150.846145 
L 411.971141 150.94976 
L 411.971141 150.94976 
" style="fill:none;stroke:#000000;stroke-linecap:square;stroke-opacity:0.7;stroke-width:1.2;"/>
   </g>
   <g id="line2d_14">
    <path clip-path="url(#p86fb9da603)" d="M 412.302362 111.38772 
L 402.411495 108.884893 
L 382.499968 104.091745 
L 369.402487 101.131348 
L 361.873053 99.645702 
L 355.224545 98.58433 
L 349.680633 97.956767 
L 344.852122 97.657487 
L 340.290315 97.628732 
L 336.381194 97.827492 
L 332.23437 98.289034 
L 328.932789 98.86057 
L 325.364501 99.708074 
L 322.020793 100.755152 
L 319.218859 101.863367 
L 317.283368 102.783316 
L 314.460093 104.431517 
L 312.809551 105.636935 
L 311.356335 106.938717 
L 310.437408 107.958762 
L 309.619966 109.122922 
L 309.198955 109.941142 
L 308.84877 111.075123 
L 308.825684 112.212548 
L 309.039405 112.953597 
L 309.298141 113.426955 
L 310.0388 114.242538 
L 311.224743 115.017932 
L 313.255764 115.834334 
L 315.269081 116.37538 
L 317.925983 116.894635 
L 321.883564 117.453896 
L 327.424438 118.010212 
L 334.577182 118.500286 
L 342.014825 118.798501 
L 348.506834 118.877128 
L 354.767208 118.766211 
L 361.44769 118.410451 
L 367.603331 117.849685 
L 375.176062 116.905984 
L 392.445347 114.392967 
L 405.363413 112.64472 
L 412.299115 111.848049 
L 412.299115 111.848049 
" style="fill:none;stroke:#000000;stroke-linecap:square;stroke-opacity:0.7;stroke-width:1.2;"/>
   </g>
   <g id="line2d_15">
    <path clip-path="url(#p86fb9da603)" d="M 412.108537 72.137902 
L 405.114493 71.475642 
L 395.576786 70.355826 
L 383.707467 68.728634 
L 371.301221 66.798859 
L 356.058202 64.41635 
L 349.523965 63.655557 
L 344.257305 63.286907 
L 339.541509 63.191305 
L 335.030431 63.328832 
L 331.387951 63.611107 
L 327.574382 64.078481 
L 323.066094 64.87864 
L 319.05628 65.857335 
L 315.418971 67.035711 
L 313.226959 67.940855 
L 311.132106 69.031053 
L 309.626322 70.0728 
L 308.629626 71.087827 
L 308.275019 71.740527 
L 308.203601 72.266597 
L 308.319244 72.653342 
L 308.592226 72.994733 
L 309.128332 73.343309 
L 310.295485 73.726528 
L 312.102622 73.995831 
L 315.508065 74.150074 
L 320.382258 74.109004 
L 339.674125 73.756703 
L 349.469418 73.869548 
L 367.948707 74.157469 
L 377.470421 74.00703 
L 390.552399 73.541682 
L 412.126684 72.524138 
L 412.126684 72.524138 
" style="fill:none;stroke:#000000;stroke-linecap:square;stroke-opacity:0.7;stroke-width:1.2;"/>
   </g>
   <g id="line2d_16">
    <path clip-path="url(#p86fb9da603)" d="M 543.640036 229.395312 
L 520.345961 225.615592 
L 505.192649 223.373254 
L 495.327558 222.102787 
L 486.87191 221.241272 
L 480.822738 220.839588 
L 475.640633 220.698028 
L 471.145236 220.759382 
L 465.933005 221.071717 
L 461.54051 221.553758 
L 457.670502 222.159977 
L 453.856955 222.945064 
L 450.342334 223.865262 
L 447.227229 224.883702 
L 444.103692 226.182791 
L 441.658303 227.542068 
L 440.296216 228.606578 
L 439.726878 229.262944 
L 439.449046 229.815017 
L 439.420916 230.357228 
L 439.59596 230.713955 
L 440.0766 231.106234 
L 440.856958 231.421565 
L 442.373073 231.718866 
L 445.419848 231.91033 
L 449.865501 231.859578 
L 457.611806 231.466645 
L 475.233549 230.239056 
L 496.309939 228.833205 
L 505.230349 228.445043 
L 513.548 228.312556 
L 521.699325 228.408694 
L 529.94147 228.717456 
L 538.761645 229.279495 
L 543.645183 229.706356 
L 543.645183 229.706356 
" style="fill:none;stroke:#000000;stroke-linecap:square;stroke-opacity:0.7;stroke-width:1.2;"/>
   </g>
   <g id="line2d_17">
    <path clip-path="url(#p86fb9da603)" d="M 544.020353 191.1891 
L 537.060166 188.886836 
L 527.460701 185.958664 
L 516.868068 182.962183 
L 508.04054 180.657366 
L 500.371102 178.859206 
L 493.811041 177.554867 
L 488.163149 176.673143 
L 483.972291 176.198741 
L 479.24266 175.878817 
L 475.680269 175.805874 
L 470.878123 175.957331 
L 466.716662 176.337797 
L 462.883214 176.908964 
L 459.632931 177.573388 
L 456.798329 178.302079 
L 453.50404 179.348894 
L 450.836477 180.38457 
L 448.05742 181.693078 
L 445.326802 183.301948 
L 443.76852 184.443734 
L 442.104663 185.992344 
L 441.038927 187.382604 
L 440.356405 188.927247 
L 440.235751 189.762305 
L 440.249661 190.171876 
L 440.49353 191.114482 
L 440.973809 191.908871 
L 441.314102 192.290291 
L 442.60312 193.265486 
L 443.977332 193.94451 
L 446.690164 194.833187 
L 449.309056 195.408379 
L 452.833808 195.956957 
L 457.555072 196.471337 
L 465.55049 197.066937 
L 476.319678 197.613571 
L 484.218939 197.824932 
L 490.791356 197.803467 
L 496.915726 197.565321 
L 502.420421 197.154194 
L 509.907028 196.345797 
L 520.997095 194.86652 
L 544.016128 191.673606 
L 544.016128 191.673606 
" style="fill:none;stroke:#000000;stroke-linecap:square;stroke-opacity:0.7;stroke-width:1.2;"/>
   </g>
   <g id="line2d_18">
    <path clip-path="url(#p86fb9da603)" d="M 544.101256 151.781023 
L 538.317112 150.519447 
L 530.23466 148.957039 
L 521.274494 147.443489 
L 512.478429 146.182565 
L 505.321401 145.352576 
L 498.602536 144.772664 
L 491.578049 144.40128 
L 484.305499 144.262141 
L 476.188704 144.35698 
L 468.465441 144.677622 
L 461.826842 145.180881 
L 456.182784 145.846742 
L 451.40473 146.663652 
L 448.332995 147.374471 
L 445.149767 148.364832 
L 443.618927 148.999873 
L 442.12737 149.824271 
L 441.232388 150.571411 
L 440.813604 151.289356 
L 440.799525 151.642636 
L 440.936915 151.97675 
L 441.414081 152.408942 
L 442.114709 152.732484 
L 443.316624 153.044541 
L 446.032106 153.358283 
L 449.718732 153.462103 
L 455.535079 153.360141 
L 477.951851 152.734282 
L 504.401644 152.339853 
L 523.295805 151.923286 
L 533.034815 151.9499 
L 542.234925 152.194168 
L 544.108032 152.27274 
L 544.108032 152.27274 
" style="fill:none;stroke:#000000;stroke-linecap:square;stroke-opacity:0.7;stroke-width:1.2;"/>
   </g>
   <g id="line2d_19">
    <path clip-path="url(#p86fb9da603)" d="M 543.622214 111.430172 
L 528.321233 108.644642 
L 512.728967 106.026708 
L 500.706806 104.216694 
L 492.540492 103.18066 
L 485.913175 102.538988 
L 480.638933 102.212026 
L 475.063678 102.093942 
L 470.91556 102.182709 
L 466.412926 102.467622 
L 462.571346 102.878326 
L 457.665272 103.652356 
L 453.159894 104.655137 
L 449.900753 105.604844 
L 447.428876 106.495775 
L 444.788927 107.685101 
L 443.251304 108.556587 
L 441.940312 109.493401 
L 441.16928 110.227589 
L 440.640062 111.020414 
L 440.526419 111.540502 
L 440.573882 111.813283 
L 440.872738 112.237657 
L 441.474634 112.587815 
L 442.789835 112.921494 
L 444.404648 113.081371 
L 447.351651 113.122982 
L 452.564777 112.918606 
L 474.191622 111.796134 
L 482.91741 111.630321 
L 495.959686 111.639924 
L 520.448058 111.653719 
L 539.828019 111.743779 
L 543.630802 111.811677 
L 543.630802 111.811677 
" style="fill:none;stroke:#000000;stroke-linecap:square;stroke-opacity:0.7;stroke-width:1.2;"/>
   </g>
   <g id="line2d_20">
    <path clip-path="url(#p86fb9da603)" d="M 543.984459 72.89836 
L 514.708434 68.246068 
L 505.647325 67.052761 
L 498.030976 66.305045 
L 490.614718 65.840165 
L 482.599554 65.583455 
L 474.515578 65.535591 
L 467.379688 65.691213 
L 461.207065 66.035183 
L 455.435007 66.611716 
L 451.614363 67.193143 
L 448.406587 67.870231 
L 445.356707 68.774284 
L 443.706164 69.44409 
L 442.118083 70.318579 
L 441.215021 71.029542 
L 440.602885 71.780144 
L 440.363644 72.419686 
L 440.458275 73.149668 
L 440.581563 73.371898 
L 441.104284 73.90023 
L 441.692995 74.256868 
L 443.376243 74.865762 
L 445.677139 75.334607 
L 449.158783 75.743136 
L 453.809515 76.048931 
L 461.335597 76.297835 
L 472.143015 76.412756 
L 483.086369 76.321245 
L 492.920439 76.032873 
L 503.781056 75.472265 
L 531.58195 73.870254 
L 544.005365 73.394742 
L 544.005365 73.394742 
" style="fill:none;stroke:#000000;stroke-linecap:square;stroke-opacity:0.7;stroke-width:1.2;"/>
   </g>
   <g id="line2d_21">
    <path clip-path="url(#p86fb9da603)" d="M 675.455736 230.433656 
L 671.94507 228.952838 
L 666.734718 226.972083 
L 659.842056 224.627335 
L 653.099597 222.582852 
L 646.36105 220.777796 
L 640.802795 219.482614 
L 634.569129 218.265539 
L 629.042086 217.41671 
L 623.735649 216.816802 
L 618.348951 216.429816 
L 613.824486 216.286315 
L 608.652131 216.342391 
L 604.057073 216.607459 
L 600.418979 216.973109 
L 595.943815 217.626674 
L 591.730069 218.465935 
L 587.402758 219.583706 
L 583.673003 220.795886 
L 580.070793 222.25237 
L 576.972579 223.835694 
L 575.04433 225.077572 
L 573.383356 226.45584 
L 572.351054 227.658454 
L 571.721619 228.969798 
L 571.655489 229.828966 
L 571.762902 230.28248 
L 572.138422 230.929327 
L 572.715786 231.466972 
L 573.672152 232.018538 
L 575.218372 232.573174 
L 576.57973 232.900833 
L 578.893883 233.281672 
L 582.997059 233.675367 
L 588.640504 233.930354 
L 596.065302 234.002955 
L 604.490899 233.836928 
L 613.521389 233.398211 
L 622.499511 232.723477 
L 646.948187 230.684154 
L 653.685406 230.428336 
L 660.831978 230.370995 
L 668.198134 230.54146 
L 675.490909 230.937451 
L 675.490909 230.937451 
" style="fill:none;stroke:#000000;stroke-linecap:square;stroke-opacity:0.7;stroke-width:1.2;"/>
   </g>
   <g id="line2d_22">
    <path clip-path="url(#p86fb9da603)" d="M 674.889968 190.333391 
L 667.950718 189.856433 
L 657.233997 188.892361 
L 643.266169 187.393713 
L 618.574982 184.641383 
L 612.183004 184.174498 
L 605.617937 183.914271 
L 600.534334 183.895086 
L 594.370637 184.111068 
L 589.229739 184.515967 
L 584.243362 185.147785 
L 581.131594 185.702039 
L 577.508915 186.586362 
L 574.901875 187.502715 
L 573.237305 188.348721 
L 572.009834 189.323653 
L 571.455909 190.162527 
L 571.320023 190.823553 
L 571.377828 191.277095 
L 571.765863 192.044807 
L 572.579789 192.833501 
L 573.855927 193.606172 
L 576.082505 194.502608 
L 579.298125 195.379185 
L 582.686577 196.041095 
L 587.422099 196.708685 
L 592.637788 197.205671 
L 598.160128 197.514482 
L 604.399643 197.625886 
L 610.605477 197.512546 
L 617.465677 197.163375 
L 625.313504 196.531919 
L 634.424023 195.575237 
L 649.701898 193.703837 
L 674.875462 190.589387 
L 674.875462 190.589387 
" style="fill:none;stroke:#000000;stroke-linecap:square;stroke-opacity:0.7;stroke-width:1.2;"/>
   </g>
   <g id="line2d_23">
    <path clip-path="url(#p86fb9da603)" d="M 675.352423 151.253284 
L 670.770168 149.727944 
L 663.216768 147.454083 
L 654.141197 144.986565 
L 645.249993 142.805941 
L 636.834389 140.968134 
L 629.649064 139.607762 
L 622.617834 138.512255 
L 616.738147 137.824758 
L 611.468698 137.434992 
L 606.847816 137.31024 
L 602.099129 137.431806 
L 598.060604 137.762373 
L 594.920748 138.181069 
L 591.497555 138.818526 
L 587.998238 139.694477 
L 584.613202 140.802127 
L 581.725947 142.00344 
L 579.718159 143.020422 
L 577.287819 144.526722 
L 575.446536 145.966472 
L 573.869504 147.564539 
L 572.871477 148.969979 
L 572.316969 150.25078 
L 572.191109 151.186804 
L 572.317681 151.876615 
L 572.680605 152.499017 
L 573.540443 153.16568 
L 574.997372 153.686908 
L 576.740647 153.976432 
L 578.930379 154.127626 
L 582.466235 154.156759 
L 590.846792 153.907781 
L 604.993091 153.50404 
L 629.330016 152.952177 
L 660.714711 151.678043 
L 670.262046 151.640466 
L 675.351426 151.713537 
L 675.351426 151.713537 
" style="fill:none;stroke:#000000;stroke-linecap:square;stroke-opacity:0.7;stroke-width:1.2;"/>
   </g>
   <g id="line2d_24">
    <path clip-path="url(#p86fb9da603)" d="M 675.395933 112.016895 
L 652.932344 108.063986 
L 641.409447 106.228109 
L 632.699431 105.051115 
L 625.084681 104.254693 
L 618.414398 103.769023 
L 611.158777 103.488561 
L 605.351718 103.473162 
L 599.564453 103.666816 
L 594.391667 104.036432 
L 589.687262 104.555454 
L 584.795877 105.319902 
L 581.331587 106.045697 
L 577.88501 106.997493 
L 575.822152 107.746258 
L 574.469566 108.364387 
L 572.766547 109.43674 
L 571.821439 110.444699 
L 571.525128 111.0735 
L 571.456344 111.869767 
L 571.704397 112.634942 
L 572.076783 113.191921 
L 572.960569 114.043227 
L 573.782564 114.621532 
L 575.699748 115.645793 
L 577.982026 116.571689 
L 581.554845 117.691255 
L 585.641193 118.673072 
L 590.543569 119.558122 
L 595.335897 120.168796 
L 600.464874 120.56743 
L 605.420216 120.718218 
L 610.761168 120.649604 
L 616.276416 120.365202 
L 623.206019 119.756633 
L 630.631965 118.85316 
L 641.491861 117.237875 
L 661.372415 114.238637 
L 673.11922 112.700541 
L 675.391006 112.437574 
L 675.391006 112.437574 
" style="fill:none;stroke:#000000;stroke-linecap:square;stroke-opacity:0.7;stroke-width:1.2;"/>
   </g>
   <g id="line2d_25">
    <path clip-path="url(#p86fb9da603)" d="M 675.011165 72.172265 
L 623.356692 59.594549 
L 617.497807 58.381947 
L 612.330113 57.529183 
L 607.974794 57.035852 
L 604.503151 56.823674 
L 600.788558 56.798902 
L 597.653423 56.956315 
L 593.727221 57.405898 
L 590.437793 58.022354 
L 586.944146 58.953311 
L 583.963203 60.017319 
L 581.756514 61.003461 
L 579.401798 62.295163 
L 577.558608 63.534875 
L 575.736699 65.042694 
L 574.365607 66.463734 
L 573.373046 67.760871 
L 572.420816 69.496873 
L 572.082612 70.501233 
L 571.927458 71.642702 
L 572.037809 72.58681 
L 572.299999 73.264132 
L 572.578345 73.700068 
L 573.0535 74.212512 
L 573.661261 74.669317 
L 575.092713 75.355722 
L 576.463612 75.766367 
L 578.396278 76.143707 
L 581.334637 76.480187 
L 584.963925 76.692376 
L 591.749204 76.806613 
L 601.514132 76.684802 
L 613.529626 76.309455 
L 626.127817 75.688234 
L 641.273738 74.663099 
L 662.373426 73.265357 
L 675.013485 72.546084 
L 675.013485 72.546084 
" style="fill:none;stroke:#000000;stroke-linecap:square;stroke-opacity:0.7;stroke-width:1.2;"/>
   </g>
  </g>
 </g>
 <defs>
  <clipPath id="p86fb9da603">
   <rect height="262.08" width="694.08" x="12.96" y="12.96"/>
  </clipPath>
 </defs>
</svg>
