<?xml version="1.0" encoding="utf-8" standalone="no"?>
<!DOCTYPE svg PUBLIC "-//W3C//DTD SVG 1.1//EN"
  "http://www.w3.org/Graphics/SVG/1.1/DTD/svg11.dtd">
<!-- Created with matplotlib (https://matplotlib.org/) -->
<svg height="288pt" version="1.1" viewBox="0 0 720 288" width="720pt" xmlns="http://www.w3.org/2000/svg" xmlns:xlink="http://www.w3.org/1999/xlink">
 <metadata>
  <rdf:RDF xmlns:cc="http://creativecommons.org/ns#" xmlns:dc="http://purl.org/dc/elements/1.1/" xmlns:rdf="http://www.w3.org/1999/02/22-rdf-syntax-ns#">
   <cc:Work>
    <dc:type rdf:resource="http://purl.org/dc/dcmitype/StillImage"/>
    <dc:date>2021-04-26T15:36:29.413208</dc:date>
    <dc:format>image/svg+xml</dc:format>
    <dc:creator>
     <cc:Agent>
      <dc:title>Matplotlib v3.3.4, https://matplotlib.org/</dc:title>
     </cc:Agent>
    </dc:creator>
   </cc:Work>
  </rdf:RDF>
 </metadata>
 <defs>
  <style type="text/css">*{stroke-linecap:butt;stroke-linejoin:round;}</style>
 </defs>
 <g id="figure_1">
  <g id="patch_1">
   <path d="M 0 288 
L 720 288 
L 720 0 
L 0 0 
z
" style="fill:#ffffff;"/>
  </g>
  <g id="axes_1">
   <g id="line2d_1">
    <path clip-path="url(#pbc79a2f962)" d="M 149.186918 228.484444 
L 138.838695 226.935425 
L 119.625363 224.095107 
L 106.595179 222.366794 
L 95.489761 221.105525 
L 88.324087 220.478764 
L 81.866056 220.133727 
L 77.126384 220.075137 
L 73.053371 220.191545 
L 68.390567 220.541485 
L 63.604313 221.167 
L 59.21546 222.008986 
L 55.266043 223.033351 
L 52.303774 224.023447 
L 49.684321 225.143183 
L 47.783919 226.225005 
L 46.791828 227.005065 
L 46.053327 227.962284 
L 45.911971 228.663822 
L 46.052674 229.135021 
L 46.345614 229.527221 
L 47.276193 230.180308 
L 48.814644 230.796591 
L 50.993782 231.365513 
L 54.023011 231.921885 
L 58.175933 232.482936 
L 64.435166 233.098731 
L 71.426765 233.553141 
L 77.896732 233.767244 
L 84.702476 233.78411 
L 92.225254 233.575396 
L 100.467789 233.113661 
L 110.693122 232.293271 
L 124.662664 230.930103 
L 149.099296 228.329797 
L 149.099296 228.329797 
" style="fill:none;stroke:#000000;stroke-linecap:square;stroke-opacity:0.7;stroke-width:1.2;"/>
   </g>
   <g id="line2d_2">
    <path clip-path="url(#pbc79a2f962)" d="M 149.342324 189.156341 
L 142.046309 187.131339 
L 133.191809 184.919798 
L 125.317467 183.177377 
L 117.577588 181.689937 
L 111.535539 180.709433 
L 104.362408 179.782838 
L 97.686738 179.169834 
L 90.915449 178.799739 
L 84.913361 178.693107 
L 78.765483 178.82494 
L 73.860029 179.13363 
L 69.246455 179.61749 
L 64.941839 180.266498 
L 60.358433 181.207755 
L 55.876466 182.442922 
L 52.612107 183.60993 
L 49.761293 184.911278 
L 47.587902 186.215583 
L 46.358382 187.202856 
L 45.695932 187.908654 
L 45.056872 188.958335 
L 44.865909 189.966997 
L 45.017434 190.687136 
L 45.255538 191.143482 
L 45.924408 191.8917 
L 46.319681 192.202268 
L 47.673271 192.974022 
L 49.880663 193.790887 
L 52.957396 194.525692 
L 56.87924 195.12296 
L 62.148415 195.608804 
L 68.475439 195.946993 
L 79.436945 196.285432 
L 90.717185 196.426898 
L 98.194776 196.31596 
L 104.410133 196.024083 
L 110.547831 195.522825 
L 117.508884 194.715797 
L 125.959173 193.476412 
L 135.280021 191.877132 
L 149.339002 189.191963 
L 149.339002 189.191963 
" style="fill:none;stroke:#000000;stroke-linecap:square;stroke-opacity:0.7;stroke-width:1.2;"/>
   </g>
   <g id="line2d_3">
    <path clip-path="url(#pbc79a2f962)" d="M 149.838142 150.891652 
L 142.710192 149.030046 
L 135.226387 147.293395 
L 127.173592 145.671776 
L 119.485034 144.367705 
L 112.579464 143.414733 
L 104.953902 142.60994 
L 96.842845 142.017152 
L 88.511936 141.664341 
L 81.298728 141.600922 
L 75.441378 141.779683 
L 70.795617 142.115579 
L 65.951302 142.688395 
L 61.093889 143.531145 
L 56.814592 144.540192 
L 53.742319 145.45581 
L 50.218027 146.772552 
L 47.565597 148.056413 
L 46.088879 148.983019 
L 44.826052 150.142975 
L 44.548699 150.657634 
L 44.533307 151.109094 
L 44.766456 151.462307 
L 45.177554 151.714605 
L 46.528981 152.031222 
L 48.169815 152.118248 
L 51.352198 151.987835 
L 56.377833 151.495399 
L 69.779661 150.035525 
L 76.373714 149.594646 
L 83.040846 149.384046 
L 91.656483 149.351565 
L 107.653252 149.576216 
L 134.202415 150.110463 
L 144.505677 150.586054 
L 149.824262 150.950119 
L 149.824262 150.950119 
" style="fill:none;stroke:#000000;stroke-linecap:square;stroke-opacity:0.7;stroke-width:1.2;"/>
   </g>
   <g id="line2d_4">
    <path clip-path="url(#pbc79a2f962)" d="M 149.161922 110.253247 
L 136.507706 109.103673 
L 117.522438 107.397931 
L 107.712043 106.728699 
L 98.26182 106.325447 
L 88.499939 106.140229 
L 77.496732 106.165846 
L 69.391507 106.403889 
L 63.834948 106.743387 
L 58.12909 107.308806 
L 54.011666 107.91036 
L 50.376923 108.661458 
L 48.144887 109.326887 
L 46.669574 110.010568 
L 46.038557 110.583387 
L 45.932336 111.060448 
L 46.193078 111.515347 
L 46.891669 112.009054 
L 48.071748 112.510287 
L 50.49516 113.185097 
L 54.607715 113.944855 
L 60.099909 114.637193 
L 66.932356 115.228826 
L 74.418543 115.654184 
L 82.606121 115.911344 
L 91.488109 115.973266 
L 100.427553 115.805076 
L 107.792465 115.462786 
L 115.604884 114.865065 
L 122.813075 114.101998 
L 131.26092 112.98536 
L 140.580309 111.52574 
L 149.153775 110.041921 
L 149.153775 110.041921 
" style="fill:none;stroke:#000000;stroke-linecap:square;stroke-opacity:0.7;stroke-width:1.2;"/>
   </g>
   <g id="line2d_5">
    <path clip-path="url(#pbc79a2f962)" d="M 149.759218 71.559422 
L 144.839191 70.370985 
L 138.05119 68.968466 
L 130.070332 67.574232 
L 123.215268 66.577449 
L 116.188795 65.764753 
L 110.130774 65.256373 
L 103.771122 64.927153 
L 96.743044 64.790679 
L 87.979296 64.877763 
L 77.224174 65.231177 
L 67.574505 65.759951 
L 62.526297 66.186475 
L 57.009675 66.882597 
L 54.261114 67.375982 
L 50.551883 68.309429 
L 48.237442 69.166849 
L 46.511729 70.097641 
L 45.816046 70.625438 
L 44.985093 71.5987 
L 44.694088 72.556449 
L 44.884835 73.422814 
L 45.087927 73.763267 
L 45.696328 74.406727 
L 46.704468 75.08015 
L 48.152773 75.734245 
L 49.850047 76.282044 
L 52.472171 76.88683 
L 55.681604 77.403723 
L 60.251808 77.902348 
L 66.58248 78.331318 
L 73.877233 78.591157 
L 83.180329 78.65937 
L 92.648926 78.500956 
L 101.993627 78.119669 
L 109.821379 77.562365 
L 116.737947 76.849878 
L 124.007166 75.895047 
L 133.852728 74.360666 
L 149.766913 71.63208 
L 149.766913 71.63208 
" style="fill:none;stroke:#000000;stroke-linecap:square;stroke-opacity:0.7;stroke-width:1.2;"/>
   </g>
   <g id="line2d_6">
    <path clip-path="url(#pbc79a2f962)" d="M 280.708068 228.249867 
L 274.719603 226.231465 
L 266.762094 223.810898 
L 258.548548 221.580062 
L 250.964845 219.757548 
L 243.38917 218.181266 
L 236.184174 216.924497 
L 229.113491 215.927004 
L 222.882243 215.252332 
L 216.82937 214.813313 
L 212.649017 214.666358 
L 207.802604 214.698871 
L 203.821938 214.925482 
L 200.159437 215.326674 
L 196.521516 215.943356 
L 192.987913 216.792747 
L 190.036997 217.731783 
L 186.959851 218.987152 
L 184.826321 220.063754 
L 182.74922 221.319219 
L 181.131755 222.481049 
L 179.400746 223.979929 
L 177.754013 225.846968 
L 176.987365 227.106686 
L 176.636578 228.119799 
L 176.592747 228.760903 
L 176.75668 229.378886 
L 177.158575 229.896771 
L 177.343375 230.042662 
L 178.501556 230.553928 
L 179.890224 230.812897 
L 181.600276 230.936305 
L 185.056516 230.928604 
L 192.475817 230.580772 
L 210.8318 229.663292 
L 235.076089 228.787805 
L 261.389167 227.915172 
L 270.85473 227.848873 
L 277.435202 227.983629 
L 280.653325 228.1393 
L 280.653325 228.1393 
" style="fill:none;stroke:#000000;stroke-linecap:square;stroke-opacity:0.7;stroke-width:1.2;"/>
   </g>
   <g id="line2d_7">
    <path clip-path="url(#pbc79a2f962)" d="M 280.676348 189.551019 
L 270.152786 187.7719 
L 252.977635 184.88152 
L 243.377896 183.481538 
L 235.055522 182.497768 
L 227.46973 181.822702 
L 220.756668 181.429929 
L 213.605438 181.281217 
L 207.827103 181.417985 
L 202.788687 181.755801 
L 198.720686 182.189192 
L 193.369258 182.994341 
L 189.465917 183.772004 
L 185.77596 184.694346 
L 182.726776 185.653104 
L 180.377457 186.59286 
L 178.732245 187.448265 
L 177.714486 188.15202 
L 176.83857 189.080512 
L 176.543106 189.910527 
L 176.675657 190.522501 
L 177.081714 191.03776 
L 177.984719 191.617294 
L 179.33404 192.111137 
L 181.46631 192.567276 
L 184.633118 192.932312 
L 189.060124 193.163835 
L 195.980953 193.260191 
L 211.133628 193.17436 
L 225.92691 192.891236 
L 238.084295 192.44586 
L 249.946494 191.810179 
L 263.907626 190.835294 
L 280.697791 189.477274 
L 280.697791 189.477274 
" style="fill:none;stroke:#000000;stroke-linecap:square;stroke-opacity:0.7;stroke-width:1.2;"/>
   </g>
   <g id="line2d_8">
    <path clip-path="url(#pbc79a2f962)" d="M 280.850884 149.82526 
L 271.664913 148.662799 
L 254.372268 146.476122 
L 244.860722 145.506709 
L 237.481948 144.955985 
L 229.186168 144.566522 
L 220.214635 144.392265 
L 212.489886 144.452342 
L 205.338236 144.732063 
L 199.733663 145.145267 
L 193.954761 145.789584 
L 189.202767 146.525424 
L 185.951883 147.171533 
L 183.145148 147.863972 
L 179.985594 148.901474 
L 178.27881 149.720285 
L 177.399171 150.382428 
L 177.032048 150.923795 
L 177.023516 151.502323 
L 177.342907 151.974154 
L 177.875511 152.377804 
L 178.687716 152.788048 
L 179.914118 153.234632 
L 183.105337 154.03208 
L 187.455588 154.783295 
L 193.233366 155.517845 
L 198.914639 156.059835 
L 205.730227 156.499799 
L 211.558054 156.682714 
L 218.522933 156.680837 
L 226.938465 156.425097 
L 235.141246 155.956701 
L 243.57795 155.239806 
L 251.566803 154.325033 
L 260.472731 153.070493 
L 271.897783 151.207834 
L 280.831083 149.678901 
L 280.831083 149.678901 
" style="fill:none;stroke:#000000;stroke-linecap:square;stroke-opacity:0.7;stroke-width:1.2;"/>
   </g>
   <g id="line2d_9">
    <path clip-path="url(#pbc79a2f962)" d="M 280.845063 110.771616 
L 276.587189 108.638599 
L 270.959673 106.086802 
L 264.897923 103.628169 
L 258.633783 101.381157 
L 253.438318 99.744636 
L 248.838609 98.473895 
L 243.355369 97.184583 
L 237.447182 96.068751 
L 231.516825 95.217649 
L 226.213182 94.66783 
L 220.591418 94.30028 
L 215.173176 94.178664 
L 211.116239 94.266301 
L 207.444003 94.50469 
L 202.830109 95.061755 
L 199.397663 95.698347 
L 196.277164 96.473283 
L 193.200563 97.453305 
L 190.431732 98.552985 
L 187.845603 99.803806 
L 185.032746 101.4678 
L 182.810879 103.071563 
L 181.134926 104.515268 
L 180.229203 105.414196 
L 178.530799 107.485714 
L 177.608849 109.104351 
L 177.167596 110.485599 
L 177.107171 111.439548 
L 177.139777 111.733205 
L 177.486465 112.729096 
L 178.003982 113.405813 
L 178.590509 113.895813 
L 179.390036 114.360968 
L 181.320245 115.048874 
L 182.874434 115.379735 
L 185.30898 115.692629 
L 189.040934 115.902172 
L 193.577414 115.917999 
L 200.480837 115.672721 
L 209.464989 115.092099 
L 242.042305 112.716494 
L 265.55814 111.488006 
L 280.798692 110.862468 
L 280.798692 110.862468 
" style="fill:none;stroke:#000000;stroke-linecap:square;stroke-opacity:0.7;stroke-width:1.2;"/>
   </g>
   <g id="line2d_10">
    <path clip-path="url(#pbc79a2f962)" d="M 281.167855 72.230723 
L 273.587135 70.595608 
L 265.187923 69.024725 
L 257.122464 67.746515 
L 249.518427 66.761965 
L 241.741677 66.006496 
L 234.793401 65.56174 
L 227.485336 65.308661 
L 219.286438 65.228224 
L 210.17288 65.341847 
L 202.604776 65.639699 
L 197.828387 65.974026 
L 193.058432 66.468616 
L 188.074877 67.21957 
L 184.934692 67.863884 
L 182.475395 68.502259 
L 179.561416 69.505221 
L 177.913042 70.308706 
L 176.866184 71.083555 
L 176.438617 71.709924 
L 176.406193 72.193157 
L 176.618097 72.597861 
L 176.929086 72.887005 
L 177.609937 73.279031 
L 178.664119 73.669991 
L 181.46517 74.291355 
L 185.27606 74.778273 
L 190.655838 75.19172 
L 201.135779 75.680668 
L 227.968582 76.686875 
L 234.893769 76.712599 
L 242.229449 76.509646 
L 249.542865 76.058755 
L 258.022769 75.279476 
L 267.009822 74.233174 
L 277.497164 72.791463 
L 281.170857 72.235423 
L 281.170857 72.235423 
" style="fill:none;stroke:#000000;stroke-linecap:square;stroke-opacity:0.7;stroke-width:1.2;"/>
   </g>
   <g id="line2d_11">
    <path clip-path="url(#pbc79a2f962)" d="M 412.34539 228.948066 
L 402.832302 226.38797 
L 394.404478 224.348915 
L 386.486459 222.65199 
L 378.624524 221.195155 
L 371.131878 220.029192 
L 362.926347 218.995033 
L 356.065245 218.328886 
L 349.520087 217.909063 
L 343.994891 217.787037 
L 339.540664 217.894473 
L 334.695257 218.263572 
L 329.964947 218.910797 
L 325.590136 219.787933 
L 321.855012 220.772081 
L 318.517295 221.861623 
L 315.537641 223.035687 
L 312.322027 224.586311 
L 309.913549 226.05197 
L 308.22595 227.411902 
L 307.625403 228.074907 
L 307.147353 228.882537 
L 307.04196 229.61068 
L 307.274383 230.168673 
L 307.773965 230.618263 
L 308.754754 231.069048 
L 309.150426 231.189792 
L 311.381515 231.602183 
L 313.967301 231.814408 
L 319.154167 231.915465 
L 326.776491 231.773602 
L 342.016741 231.217584 
L 359.759956 230.348085 
L 380.851022 229.303877 
L 394.886668 228.877872 
L 406.611502 228.725004 
L 412.291117 228.765635 
L 412.291117 228.765635 
" style="fill:none;stroke:#000000;stroke-linecap:square;stroke-opacity:0.7;stroke-width:1.2;"/>
   </g>
   <g id="line2d_12">
    <path clip-path="url(#pbc79a2f962)" d="M 411.73442 187.864247 
L 406.381364 186.335608 
L 400.062976 184.717754 
L 393.337782 183.186391 
L 385.610968 181.669959 
L 378.679361 180.559247 
L 372.44696 179.798435 
L 366.884068 179.333099 
L 361.076657 179.066525 
L 355.064484 179.00529 
L 347.942339 179.165049 
L 341.018257 179.525866 
L 334.462116 180.081551 
L 329.453904 180.706224 
L 324.719017 181.523208 
L 320.300264 182.55309 
L 317.205239 183.475048 
L 314.445835 184.478184 
L 311.584147 185.766438 
L 309.761046 186.792188 
L 308.195139 187.934183 
L 307.467669 188.69398 
L 307.092239 189.42421 
L 307.074971 189.782469 
L 307.167036 190.050592 
L 307.751549 190.561954 
L 308.592971 190.85909 
L 310.366957 191.112171 
L 313.011917 191.173086 
L 317.284975 190.991646 
L 327.849433 190.190742 
L 338.921141 189.439947 
L 349.214671 188.968161 
L 365.812478 188.490831 
L 389.430248 187.728674 
L 401.879096 187.43998 
L 410.017302 187.444387 
L 411.596454 187.478988 
L 411.596454 187.478988 
" style="fill:none;stroke:#000000;stroke-linecap:square;stroke-opacity:0.7;stroke-width:1.2;"/>
   </g>
   <g id="line2d_13">
    <path clip-path="url(#pbc79a2f962)" d="M 412.623133 150.95103 
L 402.850281 147.972816 
L 393.801743 145.455165 
L 385.749731 143.437926 
L 378.662405 141.864469 
L 370.891376 140.380687 
L 363.017785 139.129996 
L 356.820911 138.312084 
L 348.882805 137.506824 
L 343.763311 137.189234 
L 339.64827 137.096599 
L 334.798436 137.228967 
L 330.86724 137.572259 
L 326.969133 138.166558 
L 323.411847 138.977844 
L 320.927403 139.732102 
L 317.994442 140.875497 
L 316.152551 141.77347 
L 313.974552 143.08136 
L 312.428211 144.240978 
L 310.980715 145.608842 
L 309.874002 147.004834 
L 309.6568 147.348022 
L 308.993357 148.76561 
L 308.756444 149.886206 
L 308.753801 150.541274 
L 309.077268 151.750978 
L 309.509169 152.439969 
L 310.241416 153.16588 
L 311.540692 153.962348 
L 313.265138 154.612618 
L 314.526092 154.938022 
L 316.977727 155.370547 
L 320.673509 155.752051 
L 326.603837 156.067746 
L 336.753801 156.316016 
L 347.277739 156.345638 
L 355.977839 156.144917 
L 364.736495 155.702238 
L 373.382815 155.036304 
L 386.061845 153.789739 
L 412.588368 151.001927 
L 412.588368 151.001927 
" style="fill:none;stroke:#000000;stroke-linecap:square;stroke-opacity:0.7;stroke-width:1.2;"/>
   </g>
   <g id="line2d_14">
    <path clip-path="url(#pbc79a2f962)" d="M 412.124902 110.038333 
L 388.344752 106.935975 
L 376.490224 105.684915 
L 363.267399 104.542502 
L 352.27205 103.792435 
L 344.432708 103.484545 
L 338.733003 103.484675 
L 334.896357 103.632067 
L 329.738229 104.053291 
L 326.167334 104.511799 
L 321.142047 105.41766 
L 316.929802 106.454283 
L 313.09226 107.695608 
L 310.538084 108.770677 
L 308.515718 109.924667 
L 307.555282 110.78633 
L 307.269403 111.327671 
L 307.308844 111.818816 
L 307.603688 112.187546 
L 308.29266 112.580606 
L 309.410554 112.928938 
L 311.469505 113.291959 
L 314.971828 113.626307 
L 320.42748 113.904072 
L 330.302464 114.164232 
L 341.19656 114.238676 
L 350.572217 114.081998 
L 361.158546 113.664798 
L 373.370113 112.931117 
L 387.928385 111.805683 
L 412.076006 109.792677 
L 412.076006 109.792677 
" style="fill:none;stroke:#000000;stroke-linecap:square;stroke-opacity:0.7;stroke-width:1.2;"/>
   </g>
   <g id="line2d_15">
    <path clip-path="url(#pbc79a2f962)" d="M 412.423907 71.426682 
L 397.855346 67.724887 
L 388.48218 65.575721 
L 380.231606 63.88256 
L 371.909821 62.412609 
L 364.687217 61.366684 
L 358.257306 60.629559 
L 351.259811 60.048797 
L 345.273878 59.767018 
L 339.972817 59.732958 
L 334.751385 59.959223 
L 330.442614 60.386828 
L 326.203966 61.06039 
L 323.109992 61.736696 
L 320.045153 62.588948 
L 316.816189 63.730383 
L 314.378655 64.812646 
L 312.252758 65.984106 
L 310.506261 67.207752 
L 309.106864 68.537225 
L 308.174087 69.974397 
L 307.916594 70.904762 
L 307.969629 71.834174 
L 308.199457 72.446118 
L 308.700644 73.163823 
L 308.94883 73.420261 
L 310.414689 74.463492 
L 312.583441 75.41673 
L 314.726105 76.073126 
L 316.922961 76.588481 
L 320.691529 77.249916 
L 325.652621 77.852269 
L 331.878062 78.316351 
L 338.476869 78.529229 
L 345.353593 78.49828 
L 353.746034 78.184651 
L 362.186391 77.630068 
L 371.775088 76.758313 
L 381.522863 75.651298 
L 395.514381 73.816666 
L 412.381102 71.512169 
L 412.381102 71.512169 
" style="fill:none;stroke:#000000;stroke-linecap:square;stroke-opacity:0.7;stroke-width:1.2;"/>
   </g>
   <g id="line2d_16">
    <path clip-path="url(#pbc79a2f962)" d="M 543.780152 228.984658 
L 537.752278 226.932444 
L 530.600734 224.74891 
L 523.737293 222.881898 
L 516.485243 221.142072 
L 509.055266 219.615813 
L 501.99983 218.420712 
L 496.223118 217.632156 
L 488.918033 216.88406 
L 482.57268 216.479106 
L 476.757226 216.35054 
L 472.095634 216.459551 
L 467.461293 216.80145 
L 464.464075 217.169129 
L 460.223503 217.917893 
L 458.314983 218.352944 
L 453.812675 219.659042 
L 450.510166 220.911769 
L 447.802988 222.171777 
L 444.953617 223.796544 
L 442.987111 225.174341 
L 441.093174 226.864849 
L 440.175871 228.031369 
L 439.838923 228.773994 
L 439.814797 229.403914 
L 440.018095 229.786023 
L 440.375552 230.064432 
L 441.163214 230.341567 
L 442.520778 230.501764 
L 445.067497 230.463968 
L 449.472177 230.085257 
L 464.948251 228.52823 
L 472.753278 228.031036 
L 480.706313 227.755096 
L 490.84822 227.654846 
L 505.224933 227.777239 
L 531.441127 228.229096 
L 540.545417 228.605013 
L 543.704479 228.817581 
L 543.704479 228.817581 
" style="fill:none;stroke:#000000;stroke-linecap:square;stroke-opacity:0.7;stroke-width:1.2;"/>
   </g>
   <g id="line2d_17">
    <path clip-path="url(#pbc79a2f962)" d="M 543.154582 188.558041 
L 530.652363 187.677992 
L 512.115001 186.438003 
L 500.005544 185.858092 
L 487.695339 185.506543 
L 475.011076 185.354329 
L 466.104123 185.458802 
L 459.48607 185.750103 
L 454.124855 186.17606 
L 448.498716 186.876386 
L 444.714508 187.578831 
L 442.160631 188.267586 
L 440.836351 188.79547 
L 439.989318 189.347743 
L 439.703766 189.76722 
L 439.702912 190.119419 
L 440.067512 190.605464 
L 440.758089 191.035968 
L 441.677098 191.418668 
L 443.680998 192.004943 
L 447.186825 192.717481 
L 452.551032 193.48961 
L 459.322647 194.17979 
L 466.892791 194.677233 
L 472.742481 194.878231 
L 480.169512 194.914929 
L 487.531947 194.728285 
L 495.812333 194.275964 
L 504.443651 193.557899 
L 513.532343 192.572019 
L 524.512033 191.133638 
L 536.342512 189.354612 
L 543.095496 188.285384 
L 543.095496 188.285384 
" style="fill:none;stroke:#000000;stroke-linecap:square;stroke-opacity:0.7;stroke-width:1.2;"/>
   </g>
   <g id="line2d_18">
    <path clip-path="url(#pbc79a2f962)" d="M 543.771899 150.039945 
L 540.380098 148.354542 
L 535.87674 146.317793 
L 530.052491 143.956835 
L 524.549619 141.964707 
L 518.402214 139.985449 
L 512.54555 138.32908 
L 506.301505 136.802212 
L 499.888808 135.484564 
L 493.705955 134.455701 
L 487.503028 133.685659 
L 482.540778 133.296615 
L 478.576615 133.163831 
L 474.807683 133.213146 
L 470.981971 133.467293 
L 467.126971 133.961372 
L 464.02431 134.552774 
L 460.380479 135.490385 
L 457.8782 136.299124 
L 454.407353 137.663957 
L 451.674395 138.957592 
L 448.694423 140.620227 
L 446.242828 142.225064 
L 443.881137 144.041512 
L 442.035825 145.749201 
L 440.588577 147.455205 
L 439.956959 148.475493 
L 439.54843 149.552832 
L 439.499117 150.460893 
L 439.625504 150.922979 
L 439.920573 151.410547 
L 440.725465 152.06313 
L 442.074072 152.596321 
L 444.09048 152.968756 
L 447.064311 153.146087 
L 450.498466 153.096829 
L 456.326597 152.730792 
L 468.791433 151.600529 
L 482.780943 150.424812 
L 495.721245 149.563827 
L 505.747365 149.125509 
L 514.246432 148.965978 
L 523.970702 149.025578 
L 532.005124 149.278435 
L 539.380471 149.716502 
L 543.73786 150.106366 
L 543.73786 150.106366 
" style="fill:none;stroke:#000000;stroke-linecap:square;stroke-opacity:0.7;stroke-width:1.2;"/>
   </g>
   <g id="line2d_19">
    <path clip-path="url(#pbc79a2f962)" d="M 543.166106 109.577771 
L 533.540612 107.425024 
L 522.487356 105.206293 
L 512.895131 103.504746 
L 503.830827 102.129291 
L 496.41003 101.208873 
L 489.020835 100.501333 
L 481.813941 100.038713 
L 475.884305 99.864299 
L 470.241661 99.919585 
L 465.962754 100.140861 
L 461.12002 100.621686 
L 457.028462 101.262165 
L 453.022362 102.151565 
L 449.659323 103.154975 
L 446.65226 104.315292 
L 444.213657 105.510772 
L 443.014351 106.220566 
L 441.018538 107.732305 
L 440.203628 108.669773 
L 439.885494 109.412382 
L 439.906331 109.825022 
L 440.15899 110.224796 
L 440.622341 110.523238 
L 441.875183 110.853918 
L 443.422694 110.983639 
L 446.796002 110.941123 
L 453.144456 110.530538 
L 465.123687 109.755343 
L 472.641408 109.489502 
L 481.624393 109.40022 
L 515.122004 109.339114 
L 535.426164 109.143277 
L 543.120656 109.29545 
L 543.120656 109.29545 
" style="fill:none;stroke:#000000;stroke-linecap:square;stroke-opacity:0.7;stroke-width:1.2;"/>
   </g>
   <g id="line2d_20">
    <path clip-path="url(#pbc79a2f962)" d="M 543.382702 70.725944 
L 535.247441 70.43742 
L 492.77438 68.521381 
L 472.124938 67.646986 
L 465.078166 67.538705 
L 459.129952 67.639238 
L 453.199739 67.973734 
L 448.033185 68.51154 
L 444.16669 69.136822 
L 441.82234 69.691231 
L 440.557603 70.122461 
L 439.548074 70.729971 
L 439.374582 71.159499 
L 439.457727 71.377575 
L 439.78957 71.699919 
L 440.377115 72.027895 
L 441.699966 72.517588 
L 444.750439 73.286407 
L 449.782914 74.209561 
L 456.198606 75.121505 
L 463.987517 75.957741 
L 471.154894 76.477233 
L 478.504853 76.764647 
L 486.46422 76.815682 
L 493.758605 76.639309 
L 501.008411 76.251683 
L 508.461855 75.627198 
L 516.654447 74.693436 
L 524.99213 73.523993 
L 535.648475 71.801199 
L 543.31517 70.514722 
L 543.31517 70.514722 
" style="fill:none;stroke:#000000;stroke-linecap:square;stroke-opacity:0.7;stroke-width:1.2;"/>
   </g>
   <g id="line2d_21">
    <path clip-path="url(#pbc79a2f962)" d="M 675.490909 229.89885 
L 655.666144 226.775308 
L 647.216049 225.705931 
L 637.960039 224.773147 
L 627.547498 223.984963 
L 613.616456 223.175193 
L 606.208149 222.915024 
L 599.803138 222.931609 
L 594.896177 223.167399 
L 589.98149 223.631892 
L 584.842732 224.387521 
L 581.288417 225.092671 
L 577.897603 225.934025 
L 574.397578 227.039207 
L 572.127685 227.973477 
L 570.478842 228.928043 
L 569.894427 229.533878 
L 569.808758 229.893552 
L 569.924254 230.139459 
L 570.330884 230.417899 
L 571.337128 230.701939 
L 573.499 230.926406 
L 576.765379 230.996192 
L 583.903959 230.854168 
L 609.165046 230.182743 
L 629.601947 229.937365 
L 648.733371 229.955592 
L 674.382655 229.936273 
L 675.478828 229.931696 
L 675.478828 229.931696 
" style="fill:none;stroke:#000000;stroke-linecap:square;stroke-opacity:0.7;stroke-width:1.2;"/>
   </g>
   <g id="line2d_22">
    <path clip-path="url(#pbc79a2f962)" d="M 674.720417 189.135133 
L 656.642473 185.958004 
L 645.719757 184.26793 
L 636.76606 183.111221 
L 629.483876 182.384886 
L 621.662375 181.843088 
L 613.176546 181.520582 
L 606.0769 181.468831 
L 599.936881 181.624687 
L 594.437274 181.973234 
L 589.29206 182.53235 
L 584.71586 183.277894 
L 580.892254 184.143656 
L 577.47704 185.1855 
L 575.653981 185.894958 
L 573.639654 186.880039 
L 572.09877 187.903505 
L 571.499053 188.450766 
L 570.933124 189.245965 
L 570.794218 189.801447 
L 570.988152 190.440163 
L 571.522048 190.934424 
L 572.594943 191.416744 
L 574.245621 191.806689 
L 577.489261 192.167118 
L 581.419682 192.331444 
L 588.151821 192.358818 
L 600.178574 192.14224 
L 622.756301 191.475066 
L 646.227288 190.601621 
L 661.845513 189.756214 
L 674.686623 188.963481 
L 674.686623 188.963481 
" style="fill:none;stroke:#000000;stroke-linecap:square;stroke-opacity:0.7;stroke-width:1.2;"/>
   </g>
   <g id="line2d_23">
    <path clip-path="url(#pbc79a2f962)" d="M 675.167183 149.932427 
L 648.218854 145.247842 
L 639.042156 143.990787 
L 629.728658 142.976583 
L 620.214161 142.18251 
L 612.885142 141.753925 
L 606.721285 141.593245 
L 601.908993 141.657159 
L 596.730421 141.963373 
L 593.124651 142.342602 
L 587.999501 143.141407 
L 584.010181 143.998193 
L 580.660923 144.903727 
L 577.543976 145.937102 
L 574.395989 147.245619 
L 572.332597 148.350792 
L 570.77398 149.498444 
L 570.235236 150.096555 
L 569.893255 150.912252 
L 570.073638 151.568747 
L 570.387293 151.900939 
L 571.060926 152.306619 
L 572.042679 152.667045 
L 573.535778 153.01733 
L 576.184804 153.393976 
L 579.962275 153.699111 
L 586.010602 153.958279 
L 598.306044 154.211487 
L 612.85512 154.304713 
L 623.712189 154.143312 
L 632.996906 153.788564 
L 641.956956 153.22213 
L 652.487662 152.303957 
L 665.068154 150.968383 
L 675.14052 149.819644 
L 675.14052 149.819644 
" style="fill:none;stroke:#000000;stroke-linecap:square;stroke-opacity:0.7;stroke-width:1.2;"/>
   </g>
   <g id="line2d_24">
    <path clip-path="url(#pbc79a2f962)" d="M 674.478248 109.468103 
L 656.295342 105.357961 
L 647.032501 103.498098 
L 640.038563 102.270703 
L 632.738544 101.220319 
L 626.712024 100.577011 
L 620.525846 100.149073 
L 614.325795 99.956345 
L 608.380878 99.988429 
L 602.395305 100.241041 
L 597.045894 100.678569 
L 592.571726 101.232617 
L 588.108987 102.002943 
L 584.652968 102.791688 
L 581.671025 103.648436 
L 578.294536 104.889834 
L 576.621371 105.657078 
L 574.678669 106.745788 
L 573.189431 107.822255 
L 571.812397 109.247742 
L 571.507424 109.706456 
L 570.993553 111.077005 
L 570.960871 111.729388 
L 571.117797 112.544811 
L 571.379696 113.148754 
L 572.049828 114.096431 
L 572.486918 114.550583 
L 573.525424 115.408378 
L 575.709103 116.73636 
L 578.447371 117.983744 
L 581.974677 119.238833 
L 585.293844 120.185267 
L 588.653618 120.960368 
L 592.642821 121.664822 
L 596.102742 122.094657 
L 600.240601 122.399128 
L 605.215703 122.491668 
L 610.700792 122.302603 
L 616.634557 121.827136 
L 622.7905 121.102422 
L 629.91935 120.019284 
L 637.238518 118.653975 
L 644.578523 117.051949 
L 653.632901 114.839449 
L 670.0818 110.514605 
L 674.453057 109.407709 
L 674.453057 109.407709 
" style="fill:none;stroke:#000000;stroke-linecap:square;stroke-opacity:0.7;stroke-width:1.2;"/>
   </g>
   <g id="line2d_25">
    <path clip-path="url(#pbc79a2f962)" d="M 675.039249 70.540448 
L 671.647498 68.737793 
L 667.510164 66.730241 
L 662.671462 64.604995 
L 657.006792 62.380641 
L 651.959371 60.620013 
L 646.042173 58.816136 
L 641.421747 57.606148 
L 635.561599 56.329665 
L 630.324939 55.437908 
L 625.281854 54.802203 
L 619.874146 54.366431 
L 615.161773 54.204603 
L 610.594715 54.261138 
L 605.953437 54.562856 
L 601.853692 55.063343 
L 598.100485 55.739555 
L 594.768954 56.534985 
L 591.767044 57.426324 
L 588.768575 58.5004 
L 585.2196 60.040727 
L 582.266206 61.581395 
L 579.922688 63.005044 
L 577.246711 64.909043 
L 574.978144 66.861175 
L 573.240904 68.752517 
L 572.168273 70.417428 
L 571.785538 71.572523 
L 571.799153 72.397288 
L 572.090274 73.052754 
L 572.529914 73.502273 
L 573.140272 73.869434 
L 574.531537 74.316348 
L 576.236395 74.562278 
L 578.477717 74.66234 
L 582.416144 74.551296 
L 587.458671 74.16189 
L 596.93788 73.136254 
L 621.749881 70.282119 
L 631.089854 69.471481 
L 638.204239 69.052978 
L 645.622541 68.83199 
L 652.650637 68.824902 
L 660.625649 69.052882 
L 667.449681 69.470381 
L 672.74114 69.982296 
L 674.911497 70.262174 
L 674.911497 70.262174 
" style="fill:none;stroke:#000000;stroke-linecap:square;stroke-opacity:0.7;stroke-width:1.2;"/>
   </g>
  </g>
 </g>
 <defs>
  <clipPath id="pbc79a2f962">
   <rect height="262.08" width="694.08" x="12.96" y="12.96"/>
  </clipPath>
 </defs>
</svg>
