<svg viewBox="0 0 1496 400" xmlns="http://www.w3.org/2000/svg"><g><g><g><g><g><line x1="60" y1="378" x2="55" y2="378" style="visibility: inherit;" fill="rgb(0, 0, 0)" stroke="rgb(204, 204, 204)" stroke-width="1px"></line><line x1="60" y1="340.2" x2="55" y2="340.2" style="visibility: inherit;" fill="rgb(0, 0, 0)" stroke="rgb(204, 204, 204)" stroke-width="1px"></line><line x1="60" y1="302.40000000000003" x2="55" y2="302.40000000000003" style="visibility: inherit;" fill="rgb(0, 0, 0)" stroke="rgb(204, 204, 204)" stroke-width="1px"></line><line x1="60" y1="264.59999999999997" x2="55" y2="264.59999999999997" style="visibility: inherit;" fill="rgb(0, 0, 0)" stroke="rgb(204, 204, 204)" stroke-width="1px"></line><line x1="60" y1="226.79999999999998" x2="55" y2="226.79999999999998" style="visibility: inherit;" fill="rgb(0, 0, 0)" stroke="rgb(204, 204, 204)" stroke-width="1px"></line><line x1="60" y1="189" x2="55" y2="189" style="visibility: inherit;" fill="rgb(0, 0, 0)" stroke="rgb(204, 204, 204)" stroke-width="1px"></line><line x1="60" y1="151.20000000000002" x2="55" y2="151.20000000000002" style="visibility: inherit;" fill="rgb(0, 0, 0)" stroke="rgb(204, 204, 204)" stroke-width="1px"></line><line x1="60" y1="113.40000000000002" x2="55" y2="113.40000000000002" style="visibility: inherit;" fill="rgb(0, 0, 0)" stroke="rgb(204, 204, 204)" stroke-width="1px"></line><line x1="60" y1="75.59999999999998" x2="55" y2="75.59999999999998" style="visibility: inherit;" fill="rgb(0, 0, 0)" stroke="rgb(204, 204, 204)" stroke-width="1px"></line><line x1="60" y1="37.79999999999999" x2="55" y2="37.79999999999999" style="visibility: inherit;" fill="rgb(0, 0, 0)" stroke="rgb(204, 204, 204)" stroke-width="1px"></line><line x1="60" y1="0" x2="55" y2="0" style="visibility: inherit;" fill="rgb(0, 0, 0)" stroke="rgb(204, 204, 204)" stroke-width="1px"></line></g><g transform="translate(50, 0)"><text x="0" y="378" dx="0em" dy="0.3em" style="text-anchor: end; visibility: hidden; font-family: Roboto, sans-serif; font-size: 12px; font-weight: 200;" fill="rgb(50, 49, 63)" stroke="none" stroke-width="1px">-0.5</text><text x="0" y="340.2" dx="0em" dy="0.3em" style="text-anchor: end; visibility: inherit; font-family: Roboto, sans-serif; font-size: 12px; font-weight: 200;" fill="rgb(50, 49, 63)" stroke="none" stroke-width="1px">-0.45</text><text x="0" y="302.40000000000003" dx="0em" dy="0.3em" style="text-anchor: end; visibility: inherit; font-family: Roboto, sans-serif; font-size: 12px; font-weight: 200;" fill="rgb(50, 49, 63)" stroke="none" stroke-width="1px">-0.4</text><text x="0" y="264.59999999999997" dx="0em" dy="0.3em" style="text-anchor: end; visibility: inherit; font-family: Roboto, sans-serif; font-size: 12px; font-weight: 200;" fill="rgb(50, 49, 63)" stroke="none" stroke-width="1px">-0.35</text><text x="0" y="226.79999999999998" dx="0em" dy="0.3em" style="text-anchor: end; visibility: inherit; font-family: Roboto, sans-serif; font-size: 12px; font-weight: 200;" fill="rgb(50, 49, 63)" stroke="none" stroke-width="1px">-0.3</text><text x="0" y="189" dx="0em" dy="0.3em" style="text-anchor: end; visibility: inherit; font-family: Roboto, sans-serif; font-size: 12px; font-weight: 200;" fill="rgb(50, 49, 63)" stroke="none" stroke-width="1px">-0.25</text><text x="0" y="151.20000000000002" dx="0em" dy="0.3em" style="text-anchor: end; visibility: inherit; font-family: Roboto, sans-serif; font-size: 12px; font-weight: 200;" fill="rgb(50, 49, 63)" stroke="none" stroke-width="1px">-0.2</text><text x="0" y="113.40000000000002" dx="0em" dy="0.3em" style="text-anchor: end; visibility: inherit; font-family: Roboto, sans-serif; font-size: 12px; font-weight: 200;" fill="rgb(50, 49, 63)" stroke="none" stroke-width="1px">-0.15</text><text x="0" y="75.59999999999998" dx="0em" dy="0.3em" style="text-anchor: end; visibility: inherit; font-family: Roboto, sans-serif; font-size: 12px; font-weight: 200;" fill="rgb(50, 49, 63)" stroke="none" stroke-width="1px">-0.1</text><text x="0" y="37.79999999999999" dx="0em" dy="0.3em" style="text-anchor: end; visibility: inherit; font-family: Roboto, sans-serif; font-size: 12px; font-weight: 200;" fill="rgb(50, 49, 63)" stroke="none" stroke-width="1px">-0.05</text><text x="0" y="0" dx="0em" dy="0.3em" style="text-anchor: end; visibility: hidden; font-family: Roboto, sans-serif; font-size: 12px; font-weight: 200;" fill="rgb(50, 49, 63)" stroke="none" stroke-width="1px">0</text></g><line x1="60" y1="0" x2="60" y2="378" fill="rgb(0, 0, 0)" stroke="rgb(204, 204, 204)" stroke-width="1px"></line></g></g><g transform="translate(60, 0)" clip-path="url(#clip_0)"><clipPath id="clip_0"><rect width="1436" height="378"></rect></clipPath><g><g><g><line x1="0" y1="0" x2="0" y2="378" fill="rgb(0, 0, 0)" stroke="rgb(60, 60, 60)" stroke-width="1px" opacity="0.25"></line><line x1="119.66666666666666" y1="0" x2="119.66666666666666" y2="378" fill="rgb(0, 0, 0)" stroke="rgb(60, 60, 60)" stroke-width="1px" opacity="0.25"></line><line x1="239.33333333333331" y1="0" x2="239.33333333333331" y2="378" fill="rgb(0, 0, 0)" stroke="rgb(60, 60, 60)" stroke-width="1px" opacity="0.25"></line><line x1="359" y1="0" x2="359" y2="378" fill="rgb(0, 0, 0)" stroke="rgb(60, 60, 60)" stroke-width="1px" opacity="0.25"></line><line x1="478.66666666666663" y1="0" x2="478.66666666666663" y2="378" fill="rgb(0, 0, 0)" stroke="rgb(60, 60, 60)" stroke-width="1px" opacity="0.25"></line><line x1="598.3333333333334" y1="0" x2="598.3333333333334" y2="378" fill="rgb(0, 0, 0)" stroke="rgb(60, 60, 60)" stroke-width="1px" opacity="0.25"></line><line x1="718" y1="0" x2="718" y2="378" fill="rgb(0, 0, 0)" stroke="rgb(60, 60, 60)" stroke-width="1px" opacity="0.25"></line><line x1="837.6666666666667" y1="0" x2="837.6666666666667" y2="378" fill="rgb(0, 0, 0)" stroke="rgb(60, 60, 60)" stroke-width="1px" opacity="0.25"></line><line x1="957.3333333333333" y1="0" x2="957.3333333333333" y2="378" fill="rgb(0, 0, 0)" stroke="rgb(60, 60, 60)" stroke-width="1px" opacity="0.25"></line><line x1="1077" y1="0" x2="1077" y2="378" fill="rgb(0, 0, 0)" stroke="rgb(60, 60, 60)" stroke-width="1px" opacity="0.25"></line><line x1="1196.6666666666667" y1="0" x2="1196.6666666666667" y2="378" fill="rgb(0, 0, 0)" stroke="rgb(60, 60, 60)" stroke-width="1px" opacity="0.25"></line><line x1="1316.3333333333333" y1="0" x2="1316.3333333333333" y2="378" fill="rgb(0, 0, 0)" stroke="rgb(60, 60, 60)" stroke-width="1px" opacity="0.25"></line><line x1="1436" y1="0" x2="1436" y2="378" fill="rgb(0, 0, 0)" stroke="rgb(60, 60, 60)" stroke-width="1px" opacity="0.25"></line></g><g><line x1="0" y1="378" x2="1436" y2="378" fill="rgb(0, 0, 0)" stroke="rgb(60, 60, 60)" stroke-width="1px" opacity="0.25"></line><line x1="0" y1="340.2" x2="1436" y2="340.2" fill="rgb(0, 0, 0)" stroke="rgb(60, 60, 60)" stroke-width="1px" opacity="0.25"></line><line x1="0" y1="302.40000000000003" x2="1436" y2="302.40000000000003" fill="rgb(0, 0, 0)" stroke="rgb(60, 60, 60)" stroke-width="1px" opacity="0.25"></line><line x1="0" y1="264.59999999999997" x2="1436" y2="264.59999999999997" fill="rgb(0, 0, 0)" stroke="rgb(60, 60, 60)" stroke-width="1px" opacity="0.25"></line><line x1="0" y1="226.79999999999998" x2="1436" y2="226.79999999999998" fill="rgb(0, 0, 0)" stroke="rgb(60, 60, 60)" stroke-width="1px" opacity="0.25"></line><line x1="0" y1="189" x2="1436" y2="189" fill="rgb(0, 0, 0)" stroke="rgb(60, 60, 60)" stroke-width="1px" opacity="0.25"></line><line x1="0" y1="151.20000000000002" x2="1436" y2="151.20000000000002" fill="rgb(0, 0, 0)" stroke="rgb(60, 60, 60)" stroke-width="1px" opacity="0.25"></line><line x1="0" y1="113.40000000000002" x2="1436" y2="113.40000000000002" fill="rgb(0, 0, 0)" stroke="rgb(60, 60, 60)" stroke-width="1px" opacity="0.25"></line><line x1="0" y1="75.59999999999998" x2="1436" y2="75.59999999999998" fill="rgb(0, 0, 0)" stroke="rgb(60, 60, 60)" stroke-width="1px" opacity="0.25"></line><line x1="0" y1="37.79999999999999" x2="1436" y2="37.79999999999999" fill="rgb(0, 0, 0)" stroke="rgb(60, 60, 60)" stroke-width="1px" opacity="0.25"></line><line x1="0" y1="0" x2="1436" y2="0" fill="rgb(0, 0, 0)" stroke="rgb(60, 60, 60)" stroke-width="1px" opacity="0.25"></line></g></g></g><g><g><line x1="0" y1="0" x2="1436" y2="0" fill="rgb(0, 0, 0)" stroke="rgb(153, 153, 153)" stroke-width="1.5px"></line></g></g><g><g><line x1="119.66666666666666" y1="0" x2="119.66666666666666" y2="378" fill="rgb(0, 0, 0)" stroke="rgb(153, 153, 153)" stroke-width="1.5px"></line></g></g><g><g><g><g><g><path stroke="rgb(51, 187, 238)" stroke-width="2px" d="M119.66666666666666,310.31929206848145L122.06,155.73913192749023L124.45333333333333,194.22132110595703L126.84666666666666,159.11727333068848L129.24,139.03587913513184L131.63333333333333,146.90138626098633L134.02666666666667,153.0314998626709L136.42,133.10908126831055L138.81333333333333,103.23212242126465L141.20666666666665,97.00539779663086L143.6,128.462739944458L145.99333333333334,89.15358924865723L148.38666666666666,113.32977676391602L150.78,124.27205657958984L153.17333333333335,100.38642311096191L155.56666666666666,119.09183120727539L157.96,113.22090911865234L160.35333333333332,86.72173118591309L162.74666666666667,87.13485145568848L165.14000000000001,104.38496589660645L167.53333333333333,79.25708770751953L169.92666666666668,122.14769554138184L172.32,76.74826526641846L174.71333333333334,91.95458793640137L177.10666666666668,77.42994976043701L179.5,109.80996322631836L181.89333333333335,90.3713207244873L184.28666666666666,91.27001953125L186.68,128.04024696350098L189.07333333333332,96.08975601196289L191.46666666666667,107.36476707458496L193.86,69.65492534637451L196.25333333333333,67.4838809967041L198.64666666666668,74.69852542877197L201.04000000000002,72.77748012542725L203.43333333333334,78.08982467651367L205.82666666666668,83.93767547607422L208.22,77.15958309173584L210.61333333333334,73.02405452728271L213.0066666666667,67.82274055480957L215.4,103.37775993347168L217.79333333333335,57.813225746154785L220.18666666666664,76.95176124572754L222.58,112.8191442489624L224.97333333333336,78.28502941131592L227.36666666666665,73.61579704284668L229.76,74.4753828048706L232.1533333333333,75.43590545654297L234.54666666666665,73.367600440979L236.94,68.55705642700195L239.33333333333331,73.68248748779297L241.72666666666666,79.81386280059814L244.12,84.54347705841064L246.51333333333332,68.32598304748535L248.90666666666667,63.55238914489746L251.29999999999998,106.09530544281006L253.69333333333333,72.84417057037354L256.0866666666667,70.12283992767334L258.48,84.73832130432129L260.87333333333333,70.93646335601807L263.26666666666665,95.0061264038086L265.66,76.79260540008545L268.05333333333334,107.06538105010986L270.44666666666666,88.23181915283203L272.84,71.82578945159912L275.23333333333335,77.30089473724365L277.62666666666667,79.97283840179443L280.02,92.02235984802246L282.4133333333333,83.18695735931396L284.8066666666667,72.77153205871582L287.2,58.16452217102051L289.5933333333333,69.93286228179932L291.9866666666667,81.27005767822266L294.38,96.32767868041992L296.7733333333333,118.88364887237549L299.1666666666667,126.00060081481934L301.56,79.96220397949219L303.9533333333333,68.94386100769043L306.3466666666667,62.19586944580078L308.74,87.28733825683594L311.1333333333333,100.16706562042236L313.52666666666664,86.81437683105469L315.92,65.5451717376709L318.31333333333333,117.55722999572754L320.70666666666665,61.811408042907715L323.1,91.08851337432861L325.49333333333334,105.64938068389893L327.88666666666666,93.49495697021484L330.28000000000003,89.06797313690186L332.67333333333335,110.50480556488037L335.06666666666666,92.18421936035156L337.46,92.54164409637451L339.85333333333335,105.9208288192749L342.24666666666667,91.91132926940918L344.64,98.73772716522217L347.03333333333336,100.7281665802002L349.4266666666667,118.69439220428467L351.82,116.87590599060059L354.21333333333337,97.65067291259766L356.6066666666666,90.61987781524658L359,74.61561298370361L361.3933333333333,70.82417106628418L363.7866666666667,95.32461833953857L366.18,80.22283744812012L368.5733333333333,83.14423942565918L370.9666666666667,79.73942184448242L373.36,100.44374084472656L375.75333333333333,134.51787185668945L378.14666666666665,88.13592910766602L380.54,71.63851547241211L382.93333333333334,115.96747398376465L385.32666666666665,96.12057781219482L387.72,118.09039306640625L390.11333333333334,67.64736270904541L392.50666666666666,90.41980648040771L394.90000000000003,144.92320346832275L397.29333333333335,86.08582878112793L399.68666666666667,82.72643280029297L402.08000000000004,95.13518142700195L404.47333333333336,94.15158748626709L406.8666666666667,111.76885986328125L409.26,87.56058883666992L411.65333333333336,79.72752571105957L414.0466666666667,86.2877025604248L416.44,98.31036758422852L418.83333333333337,62.17496109008789L421.2266666666667,82.84070777893066L423.62,71.44186878204346L426.0133333333334,88.15791893005371L428.4066666666667,123.92796993255615L430.8,86.93838500976562L433.1933333333334,107.27680778503418L435.5866666666667,124.27097511291504L437.98,97.57893562316895L440.3733333333333,99.62813472747803L442.7666666666667,79.85585975646973L445.16,83.13558769226074L447.5533333333333,78.67111301422119L449.9466666666667,90.93728828430176L452.34,83.83836078643799L454.7333333333333,123.82054424285889L457.1266666666667,68.96603107452393L459.52,105.31700992584229L461.9133333333333,91.67755222320557L464.3066666666666,87.3468189239502L466.7,103.57566833496094L469.0933333333333,81.42669010162354L471.4866666666666,141.9100570678711L473.88,84.7410249710083L476.2733333333333,112.00425910949707L478.66666666666663,100.49096488952637L481.06,61.99886226654053L483.4533333333333,114.80057144165039L485.84666666666664,81.75329303741455L488.24,114.83607959747314L490.6333333333333,86.10691738128662L493.02666666666664,87.81671619415283L495.41999999999996,98.30892562866211L497.81333333333333,93.20458316802979L500.20666666666665,69.38762283325195L502.59999999999997,110.8108606338501L504.99333333333334,87.72641372680664L507.38666666666666,77.05540180206299L509.78,130.74841976165771L512.1733333333334,91.81489849090576L514.5666666666667,65.08086204528809L516.96,115.23333835601807L519.3533333333334,109.7510232925415L521.7466666666667,112.54607391357422L524.14,84.14639854431152L526.5333333333333,93.51784801483154L528.9266666666667,89.49172782897949L531.32,101.11497116088867L533.7133333333333,118.54533004760742L536.1066666666667,68.40114498138428L538.5,92.52055549621582L540.8933333333333,115.85247802734375L543.2866666666667,110.74615287780762L545.68,110.85357856750488L548.0733333333333,57.09981822967529L550.4666666666667,90.36266899108887L552.86,89.25813102722168L555.2533333333333,99.85740566253662L557.6466666666666,105.63333892822266L560.04,136.8350944519043L562.4333333333333,99.0679349899292L564.8266666666666,70.58660888671875L567.22,147.8613681793213L569.6133333333333,126.54133415222168L572.0066666666667,89.25020027160645L574.4,82.89027500152588L576.7933333333333,124.83063411712646L579.1866666666666,76.96960544586182L581.58,103.64686489105225L583.9733333333334,97.97403144836426L586.3666666666667,75.36669158935547L588.76,95.80839443206787L591.1533333333333,80.90091705322266L593.5466666666666,110.3052749633789L595.9399999999999,79.30989933013916L598.3333333333334,80.71905040740967L600.7266666666667,93.52163314819336L603.12,80.2895278930664L605.5133333333333,80.11919689178467L607.9066666666666,88.18765926361084L610.3,101.71879005432129L612.6933333333334,89.63682460784912L615.0866666666667,116.0725564956665L617.48,116.56894969940186L619.8733333333333,77.7041015625L622.2666666666667,85.72714233398438L624.66,105.05205059051514L627.0533333333333,98.96014881134033L629.4466666666667,90.16638278961182L631.84,98.19915676116943L634.2333333333333,89.12943649291992L636.6266666666667,104.94011878967285L639.02,91.1303300857544L641.4133333333333,117.8018217086792L643.8066666666666,116.38762378692627L646.2,105.25662803649902L648.5933333333334,103.70310115814209L650.9866666666667,65.28399753570557L653.38,117.9863920211792L655.7733333333333,101.2834997177124L658.1666666666666,107.98120307922363L660.5600000000001,123.16193103790283L662.9533333333334,83.34755516052246L665.3466666666667,121.29027271270752L667.74,70.45791435241699L670.1333333333333,108.35971641540527L672.5266666666666,115.29155731201172L674.92,95.85201358795166L677.3133333333334,108.36187934875488L679.7066666666667,118.34796237945557L682.1,88.14746475219727L684.4933333333333,84.57646179199219L686.8866666666667,74.57812213897705L689.28,97.77179718017578L691.6733333333334,78.82071590423584L694.0666666666667,108.03581714630127L696.46,114.5011854171753L698.8533333333334,74.74286556243896L701.2466666666667,91.06670379638672L703.64,83.00076484680176L706.0333333333333,83.27005004882812L708.4266666666667,106.9350643157959L710.82,98.56829738616943L713.2133333333333,119.28847789764404L715.6066666666667,96.47331619262695L718,58.15082359313965L720.3933333333334,106.14487266540527L722.7866666666666,109.15261173248291L725.18,104.17281818389893L727.5733333333334,70.94709777832031L729.9666666666666,78.83117008209229L732.36,88.49028968811035L734.7533333333334,91.51767539978027L737.1466666666666,95.50233936309814L739.54,84.71056365966797L741.9333333333334,100.68833255767822L744.3266666666666,70.88833808898926L746.72,93.07606887817383L749.1133333333332,95.57335567474365L751.5066666666667,84.19236087799072L753.9,100.13642406463623L756.2933333333333,96.07263278961182L758.6866666666666,95.06704902648926L761.08,81.67686939239502L763.4733333333332,73.25927352905273L765.8666666666667,94.8927526473999L768.26,93.98251819610596L770.6533333333333,81.7183256149292L773.0466666666666,101.28566265106201L775.44,92.02578449249268L777.8333333333333,147.1470594406128L780.2266666666667,78.78214359283447L782.62,96.2296257019043L785.0133333333333,94.64906215667725L787.4066666666666,113.28453540802002L789.8000000000001,67.7140531539917L792.1933333333333,102.33522605895996L794.5866666666667,94.12076568603516L796.98,124.11109828948975L799.3733333333333,113.23965454101562L801.7666666666667,101.9509449005127L804.1600000000001,74.54675960540771L806.5533333333333,87.5544605255127L808.9466666666667,73.8499345779419L811.3399999999999,61.79194164276123L813.7333333333333,94.19412517547607L816.1266666666667,103.09766006469727L818.52,86.41189098358154L820.9133333333333,97.62003135681152L823.3066666666667,72.57182121276855L825.6999999999999,78.87857437133789L828.0933333333334,100.94355869293213L830.4866666666667,93.73522281646729L832.88,75.66535663604736L835.2733333333333,63.772467613220215L837.6666666666667,91.88681602478027L840.06,109.73516178131104L842.4533333333334,90.80192470550537L844.8466666666667,98.40121078491211L847.24,73.36273384094238L849.6333333333333,79.54656028747559L852.0266666666668,119.01198291778564L854.42,93.97530841827393L856.8133333333334,87.44973850250244L859.2066666666667,108.80059432983398L861.6,66.6302433013916L863.9933333333333,73.9443826675415L866.3866666666668,126.35748481750488L868.78,91.12402153015137L871.1733333333334,81.68660259246826L873.5666666666666,99.14868450164795L875.96,83.97264289855957L878.3533333333334,103.94661140441895L880.7466666666666,121.31730937957764L883.14,89.99352836608887L885.5333333333334,73.54676342010498L887.9266666666666,119.04010105133057L890.32,97.91220760345459L892.7133333333334,101.6996841430664L895.1066666666666,121.74971580505371L897.5,79.98581600189209L899.8933333333334,84.89188957214355L902.2866666666666,85.05212688446045L904.68,104.49707794189453L907.0733333333334,74.4973726272583L909.4666666666666,127.37009811401367L911.86,81.63793659210205L914.2533333333334,76.6660737991333L916.6466666666666,120.2008752822876L919.04,81.8816270828247L921.4333333333334,61.4619140625L923.8266666666666,74.38562107086182L926.22,80.18156147003174L928.6133333333332,111.22902774810791L931.0066666666667,72.60048007965088L933.4,87.29274559020996L935.7933333333333,90.9938850402832L938.1866666666666,100.74096393585205L940.58,98.0297269821167L942.9733333333332,117.55849170684814L945.3666666666667,106.81484127044678L947.76,101.3759651184082L950.1533333333333,80.48707580566406L952.5466666666666,78.91372203826904L954.94,68.03380680084229L957.3333333333333,96.25089454650879L959.7266666666667,77.86343765258789L962.12,75.01881980895996L964.5133333333333,90.38934516906738L966.9066666666666,90.02993774414062L969.3000000000001,112.41034984588623L971.6933333333333,135.4028720855713L974.0866666666667,99.06577205657959L976.48,73.65527057647705L978.8733333333333,93.25162696838379L981.2666666666667,104.7443733215332L983.6600000000001,120.5712776184082L986.0533333333333,91.07409381866455L988.4466666666667,90.38718223571777L990.8399999999999,104.20814609527588L993.2333333333333,88.49605751037598L995.6266666666667,125.82504272460938L998.02,86.63953971862793L1000.4133333333333,107.33358478546143L1002.8066666666667,84.31024074554443L1005.1999999999999,90.855637550354L1007.5933333333334,75.3510103225708L1009.9866666666667,130.13847255706787L1012.38,117.03848648071289L1014.7733333333333,103.83540058135986L1017.1666666666667,92.35797500610352L1019.56,84.91207695007324L1021.9533333333334,102.51583099365234L1024.3466666666668,105.3198938369751L1026.74,99.14435863494873L1029.1333333333334,66.07905578613281L1031.5266666666666,87.20244312286377L1033.92,98.73304080963135L1036.3133333333333,83.79996871948242L1038.7066666666667,107.4184799194336L1041.1,96.9450159072876L1043.4933333333333,174.235276222229L1045.8866666666668,108.57600975036621L1048.28,98.37309265136719L1050.6733333333334,87.01895427703857L1053.0666666666666,77.60857200622559L1055.46,98.8148717880249L1057.8533333333335,96.5522632598877L1060.2466666666667,100.80531120300293L1062.64,81.20607089996338L1065.0333333333333,83.93947792053223L1067.4266666666665,132.03320217132568L1069.82,102.40317821502686L1072.2133333333334,106.6574878692627L1074.6066666666666,93.37707710266113L1077,66.03453540802002L1079.3933333333334,74.87822914123535L1081.7866666666666,74.80000305175781L1084.18,89.24929904937744L1086.5733333333335,104.94065952301025L1088.9666666666667,72.8346176147461L1091.36,99.24403381347656L1093.7533333333333,99.1829309463501L1096.1466666666665,109.29464435577393L1098.54,109.16883373260498L1100.9333333333334,79.08639621734619L1103.3266666666666,113.87808036804199L1105.72,92.8612174987793L1108.1133333333332,157.00895404815674L1110.5066666666667,90.68152141571045L1112.9,101.08432960510254L1115.2933333333333,90.0695915222168L1117.6866666666667,85.2950963973999L1120.08,111.1558485031128L1122.4733333333334,96.0005350112915L1124.8666666666666,92.73793029785156L1127.26,81.3508071899414L1129.6533333333332,90.36320972442627L1132.0466666666666,95.54740047454834L1134.44,109.36854457855225L1136.8333333333333,102.54953670501709L1139.2266666666667,92.98324298858643L1141.6200000000001,148.26890087127686L1144.0133333333333,100.78962993621826L1146.4066666666668,57.56575012207031L1148.8,86.47912216186523L1151.1933333333334,69.49847316741943L1153.5866666666666,93.03461265563965L1155.98,110.28761100769043L1158.3733333333332,96.67699241638184L1160.7666666666667,81.32250881195068L1163.16,104.79610347747803L1165.5533333333333,112.50263500213623L1167.9466666666667,109.69749069213867L1170.34,117.57687664031982L1172.7333333333333,87.06365489959717L1175.1266666666668,92.0531816482544L1177.52,108.40531826019287L1179.9133333333334,103.23590755462646L1182.3066666666666,89.1014986038208L1184.7,77.79242134094238L1187.0933333333332,81.82719326019287L1189.4866666666667,89.43747425079346L1191.8799999999999,64.4370288848877L1194.2733333333333,102.79593086242676L1196.6666666666667,91.1330337524414L1199.06,96.14833545684814L1201.4533333333334,94.92898178100586L1203.8466666666668,108.7569751739502L1206.24,104.06250858306885L1208.6333333333334,106.45435237884521L1211.0266666666666,91.37996864318848L1213.42,69.7212553024292L1215.8133333333333,84.31024074554443L1218.2066666666667,111.43937301635742L1220.6,96.5780382156372L1222.9933333333333,101.46194171905518L1225.3866666666668,87.85546875L1227.78,102.47870063781738L1230.1733333333334,86.95749092102051L1232.5666666666666,104.27862167358398L1234.96,71.58804702758789L1237.3533333333335,134.8284330368042L1239.7466666666667,92.7710952758789L1242.14,81.83674621582031L1244.5333333333333,92.01442909240723L1246.9266666666665,104.19318580627441L1249.32,72.87409114837646L1251.7133333333334,78.94129943847656L1254.1066666666666,88.9639720916748L1256.5,74.427077293396L1258.8933333333334,94.52631568908691L1261.2866666666666,92.58706569671631L1263.68,124.12533760070801L1266.0733333333335,126.64713764190674L1268.4666666666667,106.85593700408936L1270.86,75.43013763427734L1273.2533333333333,112.94549560546875L1275.6466666666665,94.08958339691162L1278.04,103.94300651550293L1280.4333333333334,97.12760353088379L1282.8266666666666,116.09058094024658L1285.22,71.19295120239258L1287.6133333333332,76.32396984100342L1290.0066666666667,99.47997379302979L1292.4,82.48436450958252L1294.7933333333333,88.32752895355225L1297.1866666666667,105.76419639587402L1299.58,74.18068313598633L1301.9733333333334,79.9193058013916L1304.3666666666666,109.95506000518799L1306.76,63.089701652526855L1309.1533333333332,105.91055488586426L1311.5466666666666,93.14582347869873L1313.94,116.326340675354" style="fill: none;" fill="none"></path></g></g></g></g></g></g><g transform="translate(60, 378)" clip-path="url(#clip_1)"><clipPath id="clip_1"><rect width="1436" height="22"></rect></clipPath><g><g><line x1="0" y1="0" x2="0" y2="5" style="visibility: inherit;" fill="rgb(0, 0, 0)" stroke="rgb(204, 204, 204)" stroke-width="1px"></line><line x1="119.66666666666666" y1="0" x2="119.66666666666666" y2="5" style="visibility: inherit;" fill="rgb(0, 0, 0)" stroke="rgb(204, 204, 204)" stroke-width="1px"></line><line x1="239.33333333333331" y1="0" x2="239.33333333333331" y2="5" style="visibility: inherit;" fill="rgb(0, 0, 0)" stroke="rgb(204, 204, 204)" stroke-width="1px"></line><line x1="359" y1="0" x2="359" y2="5" style="visibility: inherit;" fill="rgb(0, 0, 0)" stroke="rgb(204, 204, 204)" stroke-width="1px"></line><line x1="478.66666666666663" y1="0" x2="478.66666666666663" y2="5" style="visibility: inherit;" fill="rgb(0, 0, 0)" stroke="rgb(204, 204, 204)" stroke-width="1px"></line><line x1="598.3333333333334" y1="0" x2="598.3333333333334" y2="5" style="visibility: inherit;" fill="rgb(0, 0, 0)" stroke="rgb(204, 204, 204)" stroke-width="1px"></line><line x1="718" y1="0" x2="718" y2="5" style="visibility: inherit;" fill="rgb(0, 0, 0)" stroke="rgb(204, 204, 204)" stroke-width="1px"></line><line x1="837.6666666666667" y1="0" x2="837.6666666666667" y2="5" style="visibility: inherit;" fill="rgb(0, 0, 0)" stroke="rgb(204, 204, 204)" stroke-width="1px"></line><line x1="957.3333333333333" y1="0" x2="957.3333333333333" y2="5" style="visibility: inherit;" fill="rgb(0, 0, 0)" stroke="rgb(204, 204, 204)" stroke-width="1px"></line><line x1="1077" y1="0" x2="1077" y2="5" style="visibility: inherit;" fill="rgb(0, 0, 0)" stroke="rgb(204, 204, 204)" stroke-width="1px"></line><line x1="1196.6666666666667" y1="0" x2="1196.6666666666667" y2="5" style="visibility: inherit;" fill="rgb(0, 0, 0)" stroke="rgb(204, 204, 204)" stroke-width="1px"></line><line x1="1316.3333333333333" y1="0" x2="1316.3333333333333" y2="5" style="visibility: inherit;" fill="rgb(0, 0, 0)" stroke="rgb(204, 204, 204)" stroke-width="1px"></line><line x1="1436" y1="0" x2="1436" y2="5" style="visibility: inherit;" fill="rgb(0, 0, 0)" stroke="rgb(204, 204, 204)" stroke-width="1px"></line></g><g transform="translate(0, 8)"><text x="0" y="0" dx="0em" dy="0.95em" style="text-anchor: middle; visibility: hidden; font-family: Roboto, sans-serif; font-size: 12px; font-weight: 200;" fill="rgb(50, 49, 63)" stroke="none" stroke-width="1px">-50</text><text x="119.66666666666666" y="0" dx="0em" dy="0.95em" style="text-anchor: middle; visibility: inherit; font-family: Roboto, sans-serif; font-size: 12px; font-weight: 200;" fill="rgb(50, 49, 63)" stroke="none" stroke-width="1px">0</text><text x="239.33333333333331" y="0" dx="0em" dy="0.95em" style="text-anchor: middle; visibility: inherit; font-family: Roboto, sans-serif; font-size: 12px; font-weight: 200;" fill="rgb(50, 49, 63)" stroke="none" stroke-width="1px">50</text><text x="359" y="0" dx="0em" dy="0.95em" style="text-anchor: middle; visibility: inherit; font-family: Roboto, sans-serif; font-size: 12px; font-weight: 200;" fill="rgb(50, 49, 63)" stroke="none" stroke-width="1px">100</text><text x="478.66666666666663" y="0" dx="0em" dy="0.95em" style="text-anchor: middle; visibility: inherit; font-family: Roboto, sans-serif; font-size: 12px; font-weight: 200;" fill="rgb(50, 49, 63)" stroke="none" stroke-width="1px">150</text><text x="598.3333333333334" y="0" dx="0em" dy="0.95em" style="text-anchor: middle; visibility: inherit; font-family: Roboto, sans-serif; font-size: 12px; font-weight: 200;" fill="rgb(50, 49, 63)" stroke="none" stroke-width="1px">200</text><text x="718" y="0" dx="0em" dy="0.95em" style="text-anchor: middle; visibility: inherit; font-family: Roboto, sans-serif; font-size: 12px; font-weight: 200;" fill="rgb(50, 49, 63)" stroke="none" stroke-width="1px">250</text><text x="837.6666666666667" y="0" dx="0em" dy="0.95em" style="text-anchor: middle; visibility: inherit; font-family: Roboto, sans-serif; font-size: 12px; font-weight: 200;" fill="rgb(50, 49, 63)" stroke="none" stroke-width="1px">300</text><text x="957.3333333333333" y="0" dx="0em" dy="0.95em" style="text-anchor: middle; visibility: inherit; font-family: Roboto, sans-serif; font-size: 12px; font-weight: 200;" fill="rgb(50, 49, 63)" stroke="none" stroke-width="1px">350</text><text x="1077" y="0" dx="0em" dy="0.95em" style="text-anchor: middle; visibility: inherit; font-family: Roboto, sans-serif; font-size: 12px; font-weight: 200;" fill="rgb(50, 49, 63)" stroke="none" stroke-width="1px">400</text><text x="1196.6666666666667" y="0" dx="0em" dy="0.95em" style="text-anchor: middle; visibility: inherit; font-family: Roboto, sans-serif; font-size: 12px; font-weight: 200;" fill="rgb(50, 49, 63)" stroke="none" stroke-width="1px">450</text><text x="1316.3333333333333" y="0" dx="0em" dy="0.95em" style="text-anchor: middle; visibility: inherit; font-family: Roboto, sans-serif; font-size: 12px; font-weight: 200;" fill="rgb(50, 49, 63)" stroke="none" stroke-width="1px">500</text><text x="1436" y="0" dx="0em" dy="0.95em" style="text-anchor: middle; visibility: hidden; font-family: Roboto, sans-serif; font-size: 12px; font-weight: 200;" fill="rgb(50, 49, 63)" stroke="none" stroke-width="1px">550</text></g><line x1="0" y1="0" x2="1436" y2="0" fill="rgb(0, 0, 0)" stroke="rgb(204, 204, 204)" stroke-width="1px"></line></g></g></g></g></svg>