<svg viewBox="0 0 1496 400" xmlns="http://www.w3.org/2000/svg"><g><g><g><g><g><line x1="30.78125" y1="378" x2="25.78125" y2="378" style="visibility: inherit;" fill="rgb(0, 0, 0)" stroke="rgb(204, 204, 204)" stroke-width="1px"></line><line x1="30.78125" y1="330.75" x2="25.78125" y2="330.75" style="visibility: inherit;" fill="rgb(0, 0, 0)" stroke="rgb(204, 204, 204)" stroke-width="1px"></line><line x1="30.78125" y1="283.5" x2="25.78125" y2="283.5" style="visibility: inherit;" fill="rgb(0, 0, 0)" stroke="rgb(204, 204, 204)" stroke-width="1px"></line><line x1="30.78125" y1="236.25" x2="25.78125" y2="236.25" style="visibility: inherit;" fill="rgb(0, 0, 0)" stroke="rgb(204, 204, 204)" stroke-width="1px"></line><line x1="30.78125" y1="189" x2="25.78125" y2="189" style="visibility: inherit;" fill="rgb(0, 0, 0)" stroke="rgb(204, 204, 204)" stroke-width="1px"></line><line x1="30.78125" y1="141.75" x2="25.78125" y2="141.75" style="visibility: inherit;" fill="rgb(0, 0, 0)" stroke="rgb(204, 204, 204)" stroke-width="1px"></line><line x1="30.78125" y1="94.5" x2="25.78125" y2="94.5" style="visibility: inherit;" fill="rgb(0, 0, 0)" stroke="rgb(204, 204, 204)" stroke-width="1px"></line><line x1="30.78125" y1="47.25" x2="25.78125" y2="47.25" style="visibility: inherit;" fill="rgb(0, 0, 0)" stroke="rgb(204, 204, 204)" stroke-width="1px"></line><line x1="30.78125" y1="0" x2="25.78125" y2="0" style="visibility: inherit;" fill="rgb(0, 0, 0)" stroke="rgb(204, 204, 204)" stroke-width="1px"></line></g><g transform="translate(20.78125, 0)"><text x="0" y="378" dx="0em" dy="0.3em" style="text-anchor: end; visibility: hidden; font-family: Roboto, sans-serif; font-size: 12px; font-weight: 200;" fill="rgb(50, 49, 63)" stroke="none" stroke-width="1px">-1</text><text x="0" y="330.75" dx="0em" dy="0.3em" style="text-anchor: end; visibility: inherit; font-family: Roboto, sans-serif; font-size: 12px; font-weight: 200;" fill="rgb(50, 49, 63)" stroke="none" stroke-width="1px">0</text><text x="0" y="283.5" dx="0em" dy="0.3em" style="text-anchor: end; visibility: inherit; font-family: Roboto, sans-serif; font-size: 12px; font-weight: 200;" fill="rgb(50, 49, 63)" stroke="none" stroke-width="1px">1</text><text x="0" y="236.25" dx="0em" dy="0.3em" style="text-anchor: end; visibility: inherit; font-family: Roboto, sans-serif; font-size: 12px; font-weight: 200;" fill="rgb(50, 49, 63)" stroke="none" stroke-width="1px">2</text><text x="0" y="189" dx="0em" dy="0.3em" style="text-anchor: end; visibility: inherit; font-family: Roboto, sans-serif; font-size: 12px; font-weight: 200;" fill="rgb(50, 49, 63)" stroke="none" stroke-width="1px">3</text><text x="0" y="141.75" dx="0em" dy="0.3em" style="text-anchor: end; visibility: inherit; font-family: Roboto, sans-serif; font-size: 12px; font-weight: 200;" fill="rgb(50, 49, 63)" stroke="none" stroke-width="1px">4</text><text x="0" y="94.5" dx="0em" dy="0.3em" style="text-anchor: end; visibility: inherit; font-family: Roboto, sans-serif; font-size: 12px; font-weight: 200;" fill="rgb(50, 49, 63)" stroke="none" stroke-width="1px">5</text><text x="0" y="47.25" dx="0em" dy="0.3em" style="text-anchor: end; visibility: inherit; font-family: Roboto, sans-serif; font-size: 12px; font-weight: 200;" fill="rgb(50, 49, 63)" stroke="none" stroke-width="1px">6</text><text x="0" y="0" dx="0em" dy="0.3em" style="text-anchor: end; visibility: hidden; font-family: Roboto, sans-serif; font-size: 12px; font-weight: 200;" fill="rgb(50, 49, 63)" stroke="none" stroke-width="1px">7</text></g><line x1="30.78125" y1="0" x2="30.78125" y2="378" fill="rgb(0, 0, 0)" stroke="rgb(204, 204, 204)" stroke-width="1px"></line></g></g><g transform="translate(30, 0)" clip-path="url(#clip_0)"><clipPath id="clip_0"><rect width="1465" height="378"></rect></clipPath><g><g><g><line x1="0" y1="0" x2="0" y2="378" fill="rgb(0, 0, 0)" stroke="rgb(60, 60, 60)" stroke-width="1px" opacity="0.25"></line><line x1="122.1015625" y1="0" x2="122.1015625" y2="378" fill="rgb(0, 0, 0)" stroke="rgb(60, 60, 60)" stroke-width="1px" opacity="0.25"></line><line x1="244.203125" y1="0" x2="244.203125" y2="378" fill="rgb(0, 0, 0)" stroke="rgb(60, 60, 60)" stroke-width="1px" opacity="0.25"></line><line x1="366.3046875" y1="0" x2="366.3046875" y2="378" fill="rgb(0, 0, 0)" stroke="rgb(60, 60, 60)" stroke-width="1px" opacity="0.25"></line><line x1="488.40625" y1="0" x2="488.40625" y2="378" fill="rgb(0, 0, 0)" stroke="rgb(60, 60, 60)" stroke-width="1px" opacity="0.25"></line><line x1="610.5078125" y1="0" x2="610.5078125" y2="378" fill="rgb(0, 0, 0)" stroke="rgb(60, 60, 60)" stroke-width="1px" opacity="0.25"></line><line x1="732.609375" y1="0" x2="732.609375" y2="378" fill="rgb(0, 0, 0)" stroke="rgb(60, 60, 60)" stroke-width="1px" opacity="0.25"></line><line x1="854.7109375" y1="0" x2="854.7109375" y2="378" fill="rgb(0, 0, 0)" stroke="rgb(60, 60, 60)" stroke-width="1px" opacity="0.25"></line><line x1="976.8125" y1="0" x2="976.8125" y2="378" fill="rgb(0, 0, 0)" stroke="rgb(60, 60, 60)" stroke-width="1px" opacity="0.25"></line><line x1="1098.9140625" y1="0" x2="1098.9140625" y2="378" fill="rgb(0, 0, 0)" stroke="rgb(60, 60, 60)" stroke-width="1px" opacity="0.25"></line><line x1="1221.015625" y1="0" x2="1221.015625" y2="378" fill="rgb(0, 0, 0)" stroke="rgb(60, 60, 60)" stroke-width="1px" opacity="0.25"></line><line x1="1343.1171875" y1="0" x2="1343.1171875" y2="378" fill="rgb(0, 0, 0)" stroke="rgb(60, 60, 60)" stroke-width="1px" opacity="0.25"></line><line x1="1465.21875" y1="0" x2="1465.21875" y2="378" fill="rgb(0, 0, 0)" stroke="rgb(60, 60, 60)" stroke-width="1px" opacity="0.25"></line></g><g><line x1="0" y1="378" x2="1465.21875" y2="378" fill="rgb(0, 0, 0)" stroke="rgb(60, 60, 60)" stroke-width="1px" opacity="0.25"></line><line x1="0" y1="330.75" x2="1465.21875" y2="330.75" fill="rgb(0, 0, 0)" stroke="rgb(60, 60, 60)" stroke-width="1px" opacity="0.25"></line><line x1="0" y1="283.5" x2="1465.21875" y2="283.5" fill="rgb(0, 0, 0)" stroke="rgb(60, 60, 60)" stroke-width="1px" opacity="0.25"></line><line x1="0" y1="236.25" x2="1465.21875" y2="236.25" fill="rgb(0, 0, 0)" stroke="rgb(60, 60, 60)" stroke-width="1px" opacity="0.25"></line><line x1="0" y1="189" x2="1465.21875" y2="189" fill="rgb(0, 0, 0)" stroke="rgb(60, 60, 60)" stroke-width="1px" opacity="0.25"></line><line x1="0" y1="141.75" x2="1465.21875" y2="141.75" fill="rgb(0, 0, 0)" stroke="rgb(60, 60, 60)" stroke-width="1px" opacity="0.25"></line><line x1="0" y1="94.5" x2="1465.21875" y2="94.5" fill="rgb(0, 0, 0)" stroke="rgb(60, 60, 60)" stroke-width="1px" opacity="0.25"></line><line x1="0" y1="47.25" x2="1465.21875" y2="47.25" fill="rgb(0, 0, 0)" stroke="rgb(60, 60, 60)" stroke-width="1px" opacity="0.25"></line><line x1="0" y1="0" x2="1465.21875" y2="0" fill="rgb(0, 0, 0)" stroke="rgb(60, 60, 60)" stroke-width="1px" opacity="0.25"></line></g></g></g><g><g><line x1="0" y1="330.75" x2="1465.21875" y2="330.75" fill="rgb(0, 0, 0)" stroke="rgb(153, 153, 153)" stroke-width="1.5px"></line></g></g><g><g><line x1="122.1015625" y1="0" x2="122.1015625" y2="378" fill="rgb(0, 0, 0)" stroke="rgb(153, 153, 153)" stroke-width="1.5px"></line></g></g><g><g><g><g><g><path stroke="rgb(51, 187, 238)" stroke-width="2px" d="M122.1015625,83.84786868095398L124.54359375000001,214.26472878456116L126.985625,194.92260718345642L129.42765625,131.94938850402832L131.8696875,163.437912940979L134.31171874999998,194.1541011929512L136.75375,184.81295531988144L139.19578125,231.7104309797287L141.6378125,199.20438158512115L144.07984374999998,191.45357751846313L146.521875,228.20207422971725L148.96390625,206.16400265693665L151.4059375,202.19091939926147L153.84796875,211.9823158979416L156.29000000000002,234.35107970237732L158.73203125,235.50926291942596L161.1740625,204.10292994976044L163.61609375,249.63182643055916L166.058125,232.91740411520004L168.50015625,227.70573735237122L170.9421875,246.33649045228958L173.38421875,255.47754245996475L175.82625,248.6537975370884L178.26828125,220.176318526268L180.71031250000001,244.8527069091797L183.15234375,243.33223235607147L185.594375,254.64164757728577L188.03640625,259.62585711479187L190.4784375,249.6889244914055L192.92046874999997,231.84396958351135L195.3625,228.19716256856918L197.80453125000003,236.0509650707245L200.24656249999998,261.41073900461197L202.68859375,246.28079491853714L205.130625,259.44868245720863L207.57265625,253.60847514867783L210.0146875,259.4586353302002L212.45671875,236.92729103565216L214.89875,246.76594537496567L217.34078125000002,259.28190565109253L219.7828125,254.03714150190353L222.22484375000002,275.7718729376793L224.66687499999998,263.7903261780739L227.10890625,258.6980262994766L229.5509375,241.04017639160156L231.99296875,270.0382407903671L234.435,281.23828142881393L236.87703125,260.8478975594044L239.3190625,254.09979897737503L241.76109375000001,236.5875133574009L244.203125,255.1256264448166L246.64515625,268.0753900408745L249.08718750000003,247.76899445056915L251.52921874999998,260.7751970887184L253.97125,256.4104482829571L256.41328125,264.67655432224274L258.8553125,273.1842329800129L261.29734375000004,274.81706178188324L263.739375,276.30889999866486L266.18140625,267.365587413311L268.62343749999997,265.3492716550827L271.06546875,270.0018145143986L273.5075,263.61682963371277L275.94953125,245.61421716213226L278.3915625,265.31187093257904L280.83359375000003,271.98028457164764L283.275625,273.7737843990326L285.71765625,259.15709763765335L288.15968749999996,253.70283311605453L290.60171875,276.21981981396675L293.04375,254.93516439199448L295.48578125,272.96790584921837L297.9278125,277.8658289909363L300.36984375,261.175598859787L302.811875,276.5850232243538L305.25390625,265.69334703683853L307.6959375,260.4914247393608L310.13796875,275.21979546546936L312.58000000000004,278.7687804400921L315.02203125,276.6681609749794L317.4640625,271.0736719071865L319.90609374999997,269.43233782052994L322.348125,276.85115414857864L324.79015625,229.95158314704895L327.2321875,269.843599319458L329.67421875,270.4036864042282L332.11625,248.2468562722206L334.55828125,271.84389585256577L337.0003125,267.2173419892788L339.44234374999996,258.6558265686035L341.884375,277.21847543120384L344.32640625,271.5323433279991L346.7684375,277.11197912693024L349.21046875,277.01272639632225L351.6525,278.7890804708004L354.09453125,277.39499670267105L356.5365625,271.6357416808605L358.97859375,270.9300903081894L361.42062500000003,265.47050857543945L363.86265625,278.421939432621L366.3046875,270.4129239320755L368.74671874999996,257.26361283659935L371.18875,271.87822115421295L373.63078125,272.76710227131844L376.0728125,290.81523209810257L378.51484375,282.550838381052L380.956875,288.0309736132622L383.39890625,279.05463123321533L385.84093749999994,267.44092959165573L388.28296875,295.1068072915077L390.725,269.8000702857971L393.16703125,277.03010308742523L395.60906250000005,261.70128178596497L398.05109375,265.50771778821945L400.49312499999996,277.1311864256859L402.93515625000003,274.7205690443516L405.3771875,279.71340215206146L407.81921875,264.511630654335L410.26125,291.2933980822563L412.70328125000003,266.7547840476036L415.1453125,266.33925300836563L417.58734374999995,255.81336039304733L420.029375,292.57500368356705L422.47140625,291.38480454683304L424.9134375,286.2949604988098L427.35546875,282.37569710612297L429.7975,275.4776238799095L432.23953124999997,251.53361374139786L434.68156250000004,288.5032478570938L437.12359375,272.2687320113182L439.565625,289.32944333553314L442.00765625,236.1723371744156L444.44968750000004,271.1114725470543L446.89171875,279.24754348397255L449.33374999999995,247.28049820661545L451.77578125,271.09196108579636L454.2178125,284.3311747312546L456.65984375,280.2253189086914L459.101875,287.48710852861404L461.54390625,270.71541917324066L463.9859375,242.2637714445591L466.42796875000005,280.19622069597244L468.87,275.2627781331539L471.31203124999996,288.53693667054176L473.7540625,277.343942463398L476.19609375,270.2213522493839L478.638125,283.77563881874084L481.08015624999996,283.04321551322937L483.52218750000003,284.70461305975914L485.96421875,272.8193112015724L488.40625,275.68047773838043L490.84828125,276.11261942982674L493.2903125,221.611492395401L495.73234375,276.98111602663994L498.17437500000005,266.6352819800377L500.61640625,279.1419258713722L503.05843749999997,278.70016926527023L505.50046875,275.28900370001793L507.9425,284.4017404317856L510.38453125,279.118668705225L512.8265625,280.119870275259L515.26859375,285.27776223421097L517.710625,281.0544208288193L520.15265625,278.832795381546L522.5946875000001,271.8718337416649L525.03671875,299.9903672039509L527.47875,266.81222569942474L529.92078125,277.94171753525734L532.3628125,290.3709070086479L534.80484375,294.9326066672802L537.2468749999999,290.3755652010441L539.6889062500001,275.46486032009125L542.1309375,272.8632908463478L544.57296875,283.03771805763245L547.015,290.3258740603924L549.45703125,259.1459450125694L551.8990625,286.76653629541397L554.34109375,281.59051287174225L556.783125,274.68605786561966L559.2251562499999,280.9818386435509L561.6671875000001,269.9691846370697L564.10921875,275.99164724349976L566.55125,275.03912857174873L568.99328125,261.98505413532257L571.4353125,270.4386425614357L573.87734375,271.27768045663834L576.3193749999999,297.59979075193405L578.76140625,269.9581108689308L581.2034375,286.11588764190674L583.64546875,289.2945885658264L586.0875,279.7397966980934L588.52953125,281.478085398674L590.9715625,285.4790727496147L593.41359375,286.6669625043869L595.855625,285.737464427948L598.29765625,276.86194628477097L600.7396875,278.1714897751808L603.1817187500001,259.45079469680786L605.62375,292.87739753723145L608.06578125,277.1416518688202L610.5078125,275.23919427394867L612.94984375,282.0172810256481L615.391875,287.5704715847969L617.83390625,286.13359102606773L620.2759375,289.48044312000275L622.71796875,283.3409342765808L625.1600000000001,283.3115206360817L627.60203125,286.70265090465546L630.0440625,275.1397444009781L632.48609375,285.9497022628784L634.928125,284.86143136024475L637.37015625,270.5212395787239L639.8121874999999,279.2316988706589L642.2542187500001,274.917153775692L644.69625,276.5879296660423L647.13828125,276.7204262316227L649.5803125,277.4781795144081L652.02234375,291.4632165133953L654.464375,274.6634484529495L656.9064062499999,257.50448137521744L659.3484375,290.42492401599884L661.79046875,283.6220592856407L664.2325,296.41885167360306L666.67453125,285.43635481595993L669.1165625,290.4937886595726L671.55859375,279.61098951101303L674.000625,280.1946773529053L676.44265625,297.33500039577484L678.8846874999999,269.72470557689667L681.32671875,276.99338391423225L683.76875,283.4513677954674L686.21078125,284.3905202150345L688.6528125,291.63756358623505L691.09484375,290.54384592175484L693.536875,286.3329977095127L695.97890625,293.24371057748795L698.4209375,254.60233175754547L700.86296875,297.1890699863434L703.305,296.5560064315796L705.7470312500001,264.830122590065L708.1890625,292.441577732563L710.63109375,291.59346002340317L713.073125,272.9630110859871L715.51515625,282.6942735314369L717.9571875,285.7577306628227L720.3992187499999,294.63440349698067L722.8412500000001,283.6243067085743L725.28328125,289.6164093911648L727.7253125,280.5348436832428L730.16734375,274.7186652123928L732.609375,293.6951553225517L735.05140625,290.47482919692993L737.4934374999999,271.28780794143677L739.93546875,263.31122517585754L742.3775,289.42722594738007L744.81953125,287.81372836232185L747.2615625,273.7220429778099L749.7035937500001,288.2761905491352L752.145625,272.55919030308723L754.58765625,278.586018204689L757.0296875,279.2666662931442L759.4717187499999,271.5397953093052L761.91375,278.8489835858345L764.35578125,284.899767100811L766.7978125,287.5152829885483L769.23984375,294.64236241579056L771.6818749999999,283.2479450404644L774.12390625,285.2846284210682L776.5659375,287.8679988384247L779.0079687499999,287.90615996718407L781.45,296.4174942076206L783.8920312500001,287.04700791835785L786.3340625,287.5535060763359L788.77609375,276.63021951913834L791.2181250000001,292.4886327981949L793.66015625,284.04934000968933L796.1021875,255.1630159020424L798.54421875,297.4547784626484L800.9862499999999,261.3273534178734L803.42828125,276.1034776568413L805.8703125000001,282.91114139556885L808.31234375,290.1046746969223L810.754375,301.43315076828003L813.1964062500001,269.22230234742165L815.6384375,293.48128402233124L818.08046875,276.67485255002975L820.5225,278.94104343652725L822.9645312499999,291.45697554945946L825.4065625000001,297.3719167113304L827.84859375,290.85408040881157L830.290625,277.79864287376404L832.73265625,292.13157418370247L835.1746874999999,271.2416203022003L837.61671875,256.8496026098728L840.05875,285.99572092294693L842.5007812499999,283.57987082004547L844.9428125,293.24171099066734L847.3848437500001,276.59029537439346L849.826875,269.0768732428551L852.26890625,279.2274687588215L854.7109375,287.16272485256195L857.1529687499999,282.72527557611465L859.595,294.4934579730034L862.03703125,246.6545205116272L864.4790624999999,291.43698531389236L866.92109375,301.8980800509453L869.3631250000001,288.35980707407L871.80515625,278.29598236083984L874.2471875,273.663925409317L876.6892187500001,280.7685306072235L879.13125,286.0921629667282L881.57328125,288.3137208223343L884.0153125,285.7120386958122L886.45734375,287.4266027212143L888.8993750000001,296.4276836514473L891.34140625,289.45042115449905L893.7834375,281.76827895641327L896.22546875,287.568579018116L898.6674999999999,286.99018585681915L901.10953125,292.9083883166313L903.5515625,289.4093817472458L905.99359375,261.2337164282799L908.435625,278.8552865087986L910.8776562500001,275.7063878774643L913.3196875,280.4460338652134L915.76171875,275.70600485801697L918.20375,285.3438105583191L920.6457812499999,281.8632565140724L923.0878125,292.2021117210388L925.52984375,292.02324163913727L927.971875,287.50863084197044L930.41390625,273.22959262132645L932.8559375000001,282.88684782385826L935.29796875,254.41390872001648L937.74,288.4940948188305L940.18203125,281.1555548608303L942.6240624999999,287.92622342705727L945.06609375,277.36362290382385L947.508125,280.9976776242256L949.95015625,292.1838281750679L952.3921875,283.1667730808258L954.8342187499999,280.1013839542866L957.27625,289.15047186613083L959.71828125,259.8251286149025L962.1603124999999,296.10340136289597L964.60234375,295.0962179303169L967.0443750000001,280.0418413281441L969.48640625,288.3180410563946L971.9284375,289.5041227340698L974.3704687500001,293.60341653227806L976.8125,284.4352208375931L979.25453125,278.4182782173157L981.6965625,276.0441884994507L984.1385937499999,283.1961078643799L986.580625,279.3391921520233L989.0226562500001,280.7425754070282L991.4646875,274.92784452438354L993.90671875,291.7993780374527L996.3487500000001,288.319973051548L998.79078125,283.24440211057663L1001.2328125,246.25246274471283L1003.67484375,294.37245762348175L1006.1168749999999,292.66606092453003L1008.5589062500001,298.0812687277794L1011.0009375,276.4828358888626L1013.44296875,270.67893093824387L1015.885,280.52935749292374L1018.3270312499999,273.7087837457657L1020.7690625,288.31587249040604L1023.21109375,264.6336448788643L1025.653125,294.3114448785782L1028.09515625,279.5190085172653L1030.5371875,282.4779689311981L1032.97921875,247.64088571071625L1035.42125,283.86927580833435L1037.86328125,290.8710290193558L1040.3053125,266.2682817578316L1042.74734375,295.11210760474205L1045.1893750000002,285.248416185379L1047.63140625,264.1093701124191L1050.0734375,286.5744407773018L1052.51546875,278.34792655706406L1054.9575,290.8074590563774L1057.39953125,285.3327931165695L1059.8415625,294.60963678359985L1062.28359375,285.86046999692917L1064.725625,282.84277242422104L1067.1676562500002,295.88108110427856L1069.6096875,284.6916185617447L1072.05171875,288.6398055553436L1074.4937499999999,289.84561836719513L1076.93578125,288.3675688505173L1079.3778125000001,267.5298576951027L1081.81984375,221.65308380126953L1084.261875,293.31546476483345L1086.70390625,286.40738797187805L1089.1459375,294.4320058822632L1091.58796875,295.2326967716217L1094.03,288.7794499397278L1096.4720312499999,271.8555892109871L1098.9140625,289.17531180381775L1101.3560937500001,223.91027373075485L1103.798125,292.515506118536L1106.24015625,278.79290503263474L1108.6821875,289.8595929443836L1111.12421875,287.1578300893307L1113.56625,289.0809988975525L1116.00828125,289.2970331311226L1118.4503124999999,287.47133150696754L1120.89234375,286.71992057561874L1123.3343750000001,292.0336394906044L1125.77640625,286.4211541414261L1128.2184375,287.1920371055603L1130.6604687499998,273.94065696001053L1133.1025,252.96359431743622L1135.54453125,291.0355584025383L1137.9865625,266.0628763139248L1140.42859375,298.12437531352043L1142.870625,283.12388053536415L1145.31265625,246.43806383013725L1147.7546875,290.92361533641815L1150.19671875,286.5448299944401L1152.6387499999998,237.11706590652466L1155.08078125,219.24918615818024L1157.5228125,289.4366324543953L1159.96484375,279.6715178489685L1162.406875,295.6823278069496L1164.84890625,276.39394158124924L1167.2909375,257.87475979328156L1169.73296875,292.54240196943283L1172.175,296.9202297627926L1174.6170312499999,294.64817529916763L1177.0590625,292.06803238391876L1179.50109375,274.3603786826134L1181.943125,291.07119047641754L1184.38515625,292.2942278981209L1186.8271875,297.17024570703506L1189.26921875,269.90318137407303L1191.71125,291.13384795188904L1194.15328125,290.2133508324623L1196.5953125,283.0437449812889L1199.03734375,299.9577147960663L1201.479375,292.35043036937714L1203.92140625,285.1748764514923L1206.3634375000001,286.0622423887253L1208.80546875,281.5972382426262L1211.2475,298.0470110177994L1213.68953125,285.93380132317543L1216.1315625,262.0960959792137L1218.57359375,286.41409081220627L1221.015625,276.0359085202217L1223.45765625,292.13205859065056L1225.8996875,288.6318916976452L1228.3417187500002,297.83297073841095L1230.78375,266.1222612261772L1233.22578125,286.1244492530823L1235.6678125,290.15340265631676L1238.10984375,283.8347364664078L1240.551875,296.9591907262802L1242.99390625,292.4616524577141L1245.4359375,283.54080283641815L1247.87796875,286.81744408607483L1250.3200000000002,291.5079002380371L1252.76203125,284.7896490097046L1255.2040625,272.51276046037674L1257.6460937499999,286.148483723402L1260.088125,292.1514968276024L1262.5301562500001,269.5735368132591L1264.9721875,276.73335313796997L1267.41421875,285.61475175619125L1269.85625,295.3881294429302L1272.29828125,275.1360324919224L1274.7403125,285.0394903421402L1277.18234375,288.1107430458069L1279.6243749999999,287.9404796361923L1282.06640625,284.56734001636505L1284.5084375000001,290.9932347536087L1286.95046875,293.02964213490486L1289.3925,287.0870334506035L1291.83453125,290.0376913547516L1294.2765625,278.73635333776474L1296.71859375,284.3138036727905L1299.160625,287.99916610121727L1301.6026562499999,297.47692036628723L1304.0446875,291.3819544315338L1306.4867187500001,292.6330198645592L1308.92875,274.0652847290039L1311.37078125,299.3104569911957L1313.8128124999998,284.1351363658905L1316.25484375,279.99488201737404L1318.696875,291.7575951218605L1321.13890625,284.29572290182114L1323.5809375,290.4363920688629L1326.02296875,283.85591518878937L1328.465,276.08036693930626L1330.90703125,295.8250588774681L1333.3490625,299.5829922258854L1335.7910937499998,241.3148576617241L1338.233125,266.10344821214676L1340.67515625,268.4816497564316" style="fill: none;" fill="none"></path></g></g></g></g></g></g><g transform="translate(30, 378)" clip-path="url(#clip_1)"><clipPath id="clip_1"><rect width="1465" height="22"></rect></clipPath><g><g><line x1="0" y1="0" x2="0" y2="5" style="visibility: inherit;" fill="rgb(0, 0, 0)" stroke="rgb(204, 204, 204)" stroke-width="1px"></line><line x1="122.1015625" y1="0" x2="122.1015625" y2="5" style="visibility: inherit;" fill="rgb(0, 0, 0)" stroke="rgb(204, 204, 204)" stroke-width="1px"></line><line x1="244.203125" y1="0" x2="244.203125" y2="5" style="visibility: inherit;" fill="rgb(0, 0, 0)" stroke="rgb(204, 204, 204)" stroke-width="1px"></line><line x1="366.3046875" y1="0" x2="366.3046875" y2="5" style="visibility: inherit;" fill="rgb(0, 0, 0)" stroke="rgb(204, 204, 204)" stroke-width="1px"></line><line x1="488.40625" y1="0" x2="488.40625" y2="5" style="visibility: inherit;" fill="rgb(0, 0, 0)" stroke="rgb(204, 204, 204)" stroke-width="1px"></line><line x1="610.5078125" y1="0" x2="610.5078125" y2="5" style="visibility: inherit;" fill="rgb(0, 0, 0)" stroke="rgb(204, 204, 204)" stroke-width="1px"></line><line x1="732.609375" y1="0" x2="732.609375" y2="5" style="visibility: inherit;" fill="rgb(0, 0, 0)" stroke="rgb(204, 204, 204)" stroke-width="1px"></line><line x1="854.7109375" y1="0" x2="854.7109375" y2="5" style="visibility: inherit;" fill="rgb(0, 0, 0)" stroke="rgb(204, 204, 204)" stroke-width="1px"></line><line x1="976.8125" y1="0" x2="976.8125" y2="5" style="visibility: inherit;" fill="rgb(0, 0, 0)" stroke="rgb(204, 204, 204)" stroke-width="1px"></line><line x1="1098.9140625" y1="0" x2="1098.9140625" y2="5" style="visibility: inherit;" fill="rgb(0, 0, 0)" stroke="rgb(204, 204, 204)" stroke-width="1px"></line><line x1="1221.015625" y1="0" x2="1221.015625" y2="5" style="visibility: inherit;" fill="rgb(0, 0, 0)" stroke="rgb(204, 204, 204)" stroke-width="1px"></line><line x1="1343.1171875" y1="0" x2="1343.1171875" y2="5" style="visibility: inherit;" fill="rgb(0, 0, 0)" stroke="rgb(204, 204, 204)" stroke-width="1px"></line><line x1="1465.21875" y1="0" x2="1465.21875" y2="5" style="visibility: inherit;" fill="rgb(0, 0, 0)" stroke="rgb(204, 204, 204)" stroke-width="1px"></line></g><g transform="translate(0, 8)"><text x="0" y="0" dx="0em" dy="0.95em" style="text-anchor: middle; visibility: hidden; font-family: Roboto, sans-serif; font-size: 12px; font-weight: 200;" fill="rgb(50, 49, 63)" stroke="none" stroke-width="1px">-50</text><text x="122.1015625" y="0" dx="0em" dy="0.95em" style="text-anchor: middle; visibility: inherit; font-family: Roboto, sans-serif; font-size: 12px; font-weight: 200;" fill="rgb(50, 49, 63)" stroke="none" stroke-width="1px">0</text><text x="244.203125" y="0" dx="0em" dy="0.95em" style="text-anchor: middle; visibility: inherit; font-family: Roboto, sans-serif; font-size: 12px; font-weight: 200;" fill="rgb(50, 49, 63)" stroke="none" stroke-width="1px">50</text><text x="366.3046875" y="0" dx="0em" dy="0.95em" style="text-anchor: middle; visibility: inherit; font-family: Roboto, sans-serif; font-size: 12px; font-weight: 200;" fill="rgb(50, 49, 63)" stroke="none" stroke-width="1px">100</text><text x="488.40625" y="0" dx="0em" dy="0.95em" style="text-anchor: middle; visibility: inherit; font-family: Roboto, sans-serif; font-size: 12px; font-weight: 200;" fill="rgb(50, 49, 63)" stroke="none" stroke-width="1px">150</text><text x="610.5078125" y="0" dx="0em" dy="0.95em" style="text-anchor: middle; visibility: inherit; font-family: Roboto, sans-serif; font-size: 12px; font-weight: 200;" fill="rgb(50, 49, 63)" stroke="none" stroke-width="1px">200</text><text x="732.609375" y="0" dx="0em" dy="0.95em" style="text-anchor: middle; visibility: inherit; font-family: Roboto, sans-serif; font-size: 12px; font-weight: 200;" fill="rgb(50, 49, 63)" stroke="none" stroke-width="1px">250</text><text x="854.7109375" y="0" dx="0em" dy="0.95em" style="text-anchor: middle; visibility: inherit; font-family: Roboto, sans-serif; font-size: 12px; font-weight: 200;" fill="rgb(50, 49, 63)" stroke="none" stroke-width="1px">300</text><text x="976.8125" y="0" dx="0em" dy="0.95em" style="text-anchor: middle; visibility: inherit; font-family: Roboto, sans-serif; font-size: 12px; font-weight: 200;" fill="rgb(50, 49, 63)" stroke="none" stroke-width="1px">350</text><text x="1098.9140625" y="0" dx="0em" dy="0.95em" style="text-anchor: middle; visibility: inherit; font-family: Roboto, sans-serif; font-size: 12px; font-weight: 200;" fill="rgb(50, 49, 63)" stroke="none" stroke-width="1px">400</text><text x="1221.015625" y="0" dx="0em" dy="0.95em" style="text-anchor: middle; visibility: inherit; font-family: Roboto, sans-serif; font-size: 12px; font-weight: 200;" fill="rgb(50, 49, 63)" stroke="none" stroke-width="1px">450</text><text x="1343.1171875" y="0" dx="0em" dy="0.95em" style="text-anchor: middle; visibility: inherit; font-family: Roboto, sans-serif; font-size: 12px; font-weight: 200;" fill="rgb(50, 49, 63)" stroke="none" stroke-width="1px">500</text><text x="1465.21875" y="0" dx="0em" dy="0.95em" style="text-anchor: middle; visibility: hidden; font-family: Roboto, sans-serif; font-size: 12px; font-weight: 200;" fill="rgb(50, 49, 63)" stroke="none" stroke-width="1px">550</text></g><line x1="0" y1="0" x2="1465.21875" y2="0" fill="rgb(0, 0, 0)" stroke="rgb(204, 204, 204)" stroke-width="1px"></line></g></g></g></g></svg>