<?xml version="1.0" encoding="utf-8" standalone="no"?>
<!DOCTYPE svg PUBLIC "-//W3C//DTD SVG 1.1//EN"
  "http://www.w3.org/Graphics/SVG/1.1/DTD/svg11.dtd">
<!-- Created with matplotlib (https://matplotlib.org/) -->
<svg height="288pt" version="1.1" viewBox="0 0 720 288" width="720pt" xmlns="http://www.w3.org/2000/svg" xmlns:xlink="http://www.w3.org/1999/xlink">
 <metadata>
  <rdf:RDF xmlns:cc="http://creativecommons.org/ns#" xmlns:dc="http://purl.org/dc/elements/1.1/" xmlns:rdf="http://www.w3.org/1999/02/22-rdf-syntax-ns#">
   <cc:Work>
    <dc:type rdf:resource="http://purl.org/dc/dcmitype/StillImage"/>
    <dc:date>2021-04-26T15:23:01.129727</dc:date>
    <dc:format>image/svg+xml</dc:format>
    <dc:creator>
     <cc:Agent>
      <dc:title>Matplotlib v3.3.4, https://matplotlib.org/</dc:title>
     </cc:Agent>
    </dc:creator>
   </cc:Work>
  </rdf:RDF>
 </metadata>
 <defs>
  <style type="text/css">*{stroke-linecap:butt;stroke-linejoin:round;}</style>
 </defs>
 <g id="figure_1">
  <g id="patch_1">
   <path d="M 0 288 
L 720 288 
L 720 0 
L 0 0 
z
" style="fill:#ffffff;"/>
  </g>
  <g id="axes_1">
   <g id="line2d_1">
    <path clip-path="url(#p648dcecefc)" d="M 148.240403 218.339966 
L 142.918794 216.474991 
L 134.885585 213.863819 
L 126.438244 211.334366 
L 117.98461 209.037815 
L 110.882667 207.327675 
L 104.678416 206.049355 
L 99.038711 205.117811 
L 93.867318 204.500257 
L 89.396872 204.16747 
L 84.793789 204.02439 
L 80.301651 204.083038 
L 75.956213 204.337671 
L 72.556658 204.688826 
L 68.944622 205.23258 
L 65.104591 206.043001 
L 61.155501 207.190123 
L 58.860666 208.04 
L 55.848055 209.41694 
L 53.873634 210.523696 
L 51.840053 211.892508 
L 49.741823 213.66707 
L 48.479286 215.038329 
L 47.642141 216.19153 
L 46.782342 217.861701 
L 46.366079 219.329041 
L 46.26902 220.935993 
L 46.493333 222.366795 
L 46.89696 223.549561 
L 47.313469 224.408438 
L 48.599974 226.296803 
L 50.425498 228.184785 
L 52.521085 229.830432 
L 54.607365 231.140837 
L 57.503753 232.586965 
L 59.724876 233.467543 
L 62.395201 234.308534 
L 66.190262 235.149821 
L 69.359346 235.571173 
L 72.822417 235.771611 
L 76.370621 235.726799 
L 79.888807 235.464984 
L 83.944707 234.937614 
L 87.740129 234.266784 
L 93.442028 233.017926 
L 100.845315 231.113967 
L 114.057912 227.391514 
L 128.946539 223.252792 
L 140.417326 220.292945 
L 148.322097 218.40451 
L 148.322097 218.40451 
" style="fill:none;stroke:#000000;stroke-linecap:square;stroke-opacity:0.7;stroke-width:1.2;"/>
   </g>
   <g id="line2d_2">
    <path clip-path="url(#p648dcecefc)" d="M 149.611914 179.719548 
L 136.944971 177.511079 
L 125.160225 175.682743 
L 115.186414 174.356634 
L 105.424334 173.293665 
L 97.144344 172.600366 
L 87.927074 172.056657 
L 81.005419 171.827082 
L 74.977798 171.827167 
L 69.674582 172.067551 
L 65.558441 172.452942 
L 61.421981 173.035081 
L 56.603756 173.972212 
L 52.819017 174.917955 
L 49.042885 176.084674 
L 46.42709 177.103391 
L 45.092843 177.816508 
L 44.685947 178.263881 
L 44.723818 178.419747 
L 45.072755 178.605812 
L 45.784285 178.723312 
L 47.575794 178.782319 
L 52.040396 178.641577 
L 70.350648 177.854626 
L 78.893574 177.763971 
L 88.60568 177.917806 
L 107.980474 178.542172 
L 149.605207 179.95676 
L 149.605207 179.95676 
" style="fill:none;stroke:#000000;stroke-linecap:square;stroke-opacity:0.7;stroke-width:1.2;"/>
   </g>
   <g id="line2d_3">
    <path clip-path="url(#p648dcecefc)" d="M 149.511784 138.839205 
L 140.722879 136.636593 
L 132.262262 134.729866 
L 123.548444 133.005357 
L 114.739869 131.521836 
L 106.867623 130.435067 
L 100.159898 129.710804 
L 93.663959 129.217086 
L 87.549996 128.976509 
L 81.942717 128.981472 
L 77.588601 129.152392 
L 72.804546 129.524136 
L 68.595249 130.024957 
L 63.262874 130.924353 
L 58.55705 132.015272 
L 55.261072 132.995378 
L 52.049688 134.190268 
L 50.039393 135.113834 
L 48.038851 136.247554 
L 46.46487 137.406643 
L 45.487539 138.380302 
L 44.844399 139.321536 
L 44.529877 140.24667 
L 44.54629 140.965541 
L 44.718405 141.447094 
L 45.28743 142.153031 
L 46.007777 142.646829 
L 47.293382 143.182103 
L 49.308912 143.651171 
L 52.263404 143.966663 
L 56.558301 144.02965 
L 61.214252 143.797444 
L 66.599592 143.285846 
L 74.177857 142.292126 
L 87.465268 140.236544 
L 100.01344 138.381526 
L 107.503853 137.485135 
L 113.341229 136.983358 
L 118.446745 136.730963 
L 123.983406 136.67719 
L 129.433101 136.845342 
L 135.728417 137.287489 
L 142.64072 138.038104 
L 149.484141 138.996026 
L 149.484141 138.996026 
" style="fill:none;stroke:#000000;stroke-linecap:square;stroke-opacity:0.7;stroke-width:1.2;"/>
   </g>
   <g id="line2d_4">
    <path clip-path="url(#p648dcecefc)" d="M 149.47373 99.303686 
L 141.984871 97.500938 
L 134.203327 95.825609 
L 126.92438 94.459711 
L 118.750656 93.171625 
L 110.814951 92.183942 
L 103.925289 91.554741 
L 97.165822 91.161871 
L 90.18239 91.000988 
L 83.271012 91.100546 
L 77.828995 91.39395 
L 72.714534 91.892777 
L 68.405184 92.519922 
L 64.568633 93.261255 
L 59.662571 94.487489 
L 55.66748 95.743417 
L 51.994572 97.143879 
L 49.519626 98.26688 
L 47.059286 99.623586 
L 45.596542 100.685244 
L 44.98963 101.305106 
L 44.617008 102.026372 
L 44.67543 102.512581 
L 44.883308 102.787122 
L 45.640738 103.21243 
L 46.707937 103.487218 
L 48.50845 103.692944 
L 51.523528 103.750141 
L 56.189673 103.526473 
L 61.688812 103.015182 
L 69.263176 102.059429 
L 79.953314 100.425145 
L 96.280293 97.886622 
L 102.413349 97.136595 
L 108.032977 96.634451 
L 113.651734 96.352576 
L 118.236526 96.302741 
L 123.156702 96.428667 
L 129.717154 96.857845 
L 136.29794 97.540475 
L 143.675475 98.553298 
L 149.488228 99.505448 
L 149.488228 99.505448 
" style="fill:none;stroke:#000000;stroke-linecap:square;stroke-opacity:0.7;stroke-width:1.2;"/>
   </g>
   <g id="line2d_5">
    <path clip-path="url(#p648dcecefc)" d="M 149.195224 61.731026 
L 132.134126 60.623506 
L 121.057087 59.671337 
L 110.215867 58.513288 
L 81.552081 55.215313 
L 75.815136 54.924666 
L 70.999181 54.926858 
L 66.506379 55.174462 
L 62.42325 55.625055 
L 57.432174 56.487814 
L 53.468116 57.447628 
L 50.039573 58.535579 
L 48.201186 59.273042 
L 46.134621 60.379927 
L 45.200437 61.193233 
L 44.899048 61.778971 
L 44.919266 62.209588 
L 45.252146 62.704354 
L 45.997968 63.198161 
L 47.206238 63.666409 
L 49.685505 64.248753 
L 53.148091 64.741155 
L 57.976449 65.155662 
L 64.249767 65.454181 
L 73.348 65.633919 
L 87.267977 65.652188 
L 102.641634 65.475839 
L 112.461902 65.163899 
L 121.835487 64.644188 
L 130.487324 63.95452 
L 139.751064 63.011701 
L 149.222635 61.883392 
L 149.222635 61.883392 
" style="fill:none;stroke:#000000;stroke-linecap:square;stroke-opacity:0.7;stroke-width:1.2;"/>
   </g>
   <g id="line2d_6">
    <path clip-path="url(#p648dcecefc)" d="M 280.331654 219.150711 
L 264.94994 216.624809 
L 247.681161 213.976228 
L 235.499282 212.30415 
L 226.288719 211.22831 
L 218.485372 210.511366 
L 211.586699 210.110082 
L 207.1217 210.022685 
L 202.0722 210.1474 
L 198.56085 210.408055 
L 194.731019 210.887451 
L 191.70237 211.433057 
L 188.069059 212.315486 
L 185.763421 213.029381 
L 182.718474 214.211379 
L 180.635139 215.246309 
L 179.441361 215.975255 
L 177.942365 217.173382 
L 177.242119 218.015893 
L 176.885259 218.771978 
L 176.805056 219.292763 
L 176.943471 220.007485 
L 177.347743 220.648699 
L 177.872143 221.145328 
L 178.945101 221.826762 
L 180.421474 222.475722 
L 182.479778 223.13503 
L 185.845906 223.919033 
L 190.181724 224.65969 
L 196.024827 225.412551 
L 203.061412 226.114081 
L 212.287712 226.819212 
L 221.455732 227.285001 
L 228.781807 227.418104 
L 234.677223 227.309926 
L 240.202783 226.99728 
L 246.068954 226.425448 
L 251.483334 225.686617 
L 257.255036 224.702769 
L 265.120938 223.09306 
L 271.998728 221.475897 
L 280.409456 219.285686 
L 280.409456 219.285686 
" style="fill:none;stroke:#000000;stroke-linecap:square;stroke-opacity:0.7;stroke-width:1.2;"/>
   </g>
   <g id="line2d_7">
    <path clip-path="url(#p648dcecefc)" d="M 281.012596 180.457823 
L 271.826651 180.646505 
L 262.255371 180.628435 
L 254.279273 180.390805 
L 247.616316 179.990796 
L 240.803892 179.345411 
L 234.177278 178.456798 
L 226.468246 177.143463 
L 215.783732 175.253347 
L 210.423125 174.544047 
L 205.732707 174.18084 
L 201.846005 174.097294 
L 197.40792 174.253193 
L 192.624714 174.716868 
L 188.175126 175.424196 
L 184.353724 176.267164 
L 180.932973 177.2678 
L 178.243886 178.34098 
L 176.93869 179.076121 
L 176.157676 179.740367 
L 175.852878 180.239839 
L 175.81487 180.649087 
L 175.97382 181.017593 
L 176.302288 181.348 
L 177.135225 181.812171 
L 178.614045 182.293375 
L 180.97238 182.765232 
L 184.0033 183.152144 
L 188.717117 183.524237 
L 195.536631 183.808984 
L 204.18874 183.933209 
L 216.456983 183.85581 
L 233.355751 183.50554 
L 245.648391 183.053131 
L 256.982122 182.40468 
L 269.765398 181.438039 
L 281.02831 180.475114 
L 281.02831 180.475114 
" style="fill:none;stroke:#000000;stroke-linecap:square;stroke-opacity:0.7;stroke-width:1.2;"/>
   </g>
   <g id="line2d_8">
    <path clip-path="url(#p648dcecefc)" d="M 280.89442 140.173088 
L 257.642529 136.993971 
L 240.974326 134.867911 
L 232.408891 133.983341 
L 225.022794 133.436178 
L 217.678707 133.113281 
L 210.971173 133.023676 
L 203.860614 133.171157 
L 197.382441 133.551245 
L 191.539587 134.120102 
L 185.969121 134.900978 
L 182.091831 135.638833 
L 179.330698 136.355278 
L 178.075207 136.826564 
L 177.411273 137.228021 
L 177.169445 137.628205 
L 177.236709 137.864751 
L 177.626915 138.215157 
L 178.316375 138.550483 
L 180.233771 139.141154 
L 183.472985 139.819496 
L 187.603979 140.462629 
L 193.672556 141.166669 
L 200.611071 141.724081 
L 207.986321 142.072043 
L 216.166668 142.20228 
L 226.967439 142.097654 
L 244.318012 141.673941 
L 267.67306 140.867373 
L 280.889957 140.383781 
L 280.889957 140.383781 
" style="fill:none;stroke:#000000;stroke-linecap:square;stroke-opacity:0.7;stroke-width:1.2;"/>
   </g>
   <g id="line2d_9">
    <path clip-path="url(#p648dcecefc)" d="M 281.167359 100.9428 
L 271.206042 98.386554 
L 261.882459 96.235262 
L 252.865589 94.408102 
L 244.634892 92.972681 
L 237.365749 91.913225 
L 229.648117 91.035129 
L 223.350873 90.524854 
L 216.488258 90.195373 
L 211.557479 90.131642 
L 206.524346 90.268043 
L 201.717044 90.658677 
L 197.514944 91.273093 
L 193.82981 92.066531 
L 190.57212 92.994942 
L 187.991759 93.898727 
L 184.345681 95.465451 
L 181.785481 96.811374 
L 179.383693 98.335829 
L 177.566149 99.804957 
L 176.810896 100.650836 
L 176.475476 101.315986 
L 176.497907 101.7415 
L 176.637167 101.938261 
L 177.125327 102.199404 
L 177.992707 102.35277 
L 180.000901 102.358176 
L 183.322463 102.076648 
L 192.037843 101.012054 
L 200.911253 100.017962 
L 207.133864 99.530103 
L 213.052021 99.270907 
L 220.738077 99.184585 
L 230.64728 99.308109 
L 250.191775 99.821422 
L 268.480132 100.487345 
L 281.126553 101.141865 
L 281.126553 101.141865 
" style="fill:none;stroke:#000000;stroke-linecap:square;stroke-opacity:0.7;stroke-width:1.2;"/>
   </g>
   <g id="line2d_10">
    <path clip-path="url(#p648dcecefc)" d="M 280.187691 61.018041 
L 268.05125 58.586096 
L 256.407258 56.466983 
L 246.92747 54.954491 
L 238.038999 53.775874 
L 231.08174 53.06369 
L 223.518515 52.52767 
L 216.562995 52.260395 
L 209.897067 52.240508 
L 204.054351 52.485761 
L 199.424051 52.924274 
L 194.825019 53.642101 
L 190.653697 54.597855 
L 186.880595 55.774219 
L 184.462846 56.727588 
L 182.233801 57.798488 
L 180.856437 58.597575 
L 179.203018 59.819613 
L 178.31377 60.792455 
L 177.922753 61.640125 
L 177.944961 62.281254 
L 178.145624 62.678787 
L 178.683795 63.180934 
L 179.853632 63.741343 
L 181.282999 64.13325 
L 183.300043 64.471041 
L 186.951136 64.797696 
L 191.097151 64.960223 
L 198.761416 65.009762 
L 213.027926 64.814413 
L 231.2974 64.361311 
L 243.410579 63.83556 
L 256.160326 63.037834 
L 277.197416 61.427473 
L 280.221201 61.197249 
L 280.221201 61.197249 
" style="fill:none;stroke:#000000;stroke-linecap:square;stroke-opacity:0.7;stroke-width:1.2;"/>
   </g>
   <g id="line2d_11">
    <path clip-path="url(#p648dcecefc)" d="M 412.50638 218.830965 
L 405.56372 215.884414 
L 397.152152 212.543963 
L 388.907834 209.503595 
L 379.838035 206.415303 
L 371.636323 203.850888 
L 363.502145 201.546375 
L 356.45467 199.785748 
L 351.214188 198.661191 
L 346.260132 197.799343 
L 342.242719 197.302997 
L 338.494428 197.067782 
L 335.339859 197.094002 
L 333.204416 197.253683 
L 330.01681 197.739843 
L 327.258178 198.426292 
L 324.219323 199.489335 
L 321.3698 200.790241 
L 318.553034 202.376415 
L 315.84314 204.205797 
L 314.01343 205.635097 
L 311.559144 207.879781 
L 309.711834 209.979636 
L 308.409356 211.987841 
L 307.959186 213.022993 
L 307.699918 214.058159 
L 307.668811 215.003303 
L 307.891227 215.969411 
L 308.432746 216.925543 
L 309.566582 218.017157 
L 311.065762 218.918349 
L 312.646835 219.591465 
L 314.978485 220.314798 
L 318.552989 221.07172 
L 322.784275 221.641173 
L 326.80059 221.968366 
L 332.231541 222.18001 
L 338.374682 222.190695 
L 346.94999 221.947224 
L 368.517887 220.959536 
L 412.50623 219.051938 
L 412.50623 219.051938 
" style="fill:none;stroke:#000000;stroke-linecap:square;stroke-opacity:0.7;stroke-width:1.2;"/>
   </g>
   <g id="line2d_12">
    <path clip-path="url(#p648dcecefc)" d="M 411.227182 178.864847 
L 403.135121 177.40928 
L 393.02349 175.803099 
L 384.187842 174.605315 
L 376.332615 173.743175 
L 368.993787 173.158815 
L 362.816527 172.869357 
L 356.996578 172.780323 
L 349.627898 172.902093 
L 341.771386 173.277024 
L 334.523514 173.855218 
L 328.625299 174.527866 
L 322.781008 175.413439 
L 317.556922 176.439758 
L 313.404669 177.49894 
L 310.992729 178.314776 
L 309.19176 179.204918 
L 308.518732 179.785861 
L 308.309541 180.141227 
L 308.263872 180.568732 
L 308.472236 181.033538 
L 308.970425 181.508643 
L 309.913178 182.05069 
L 311.635039 182.698485 
L 313.737194 183.249867 
L 316.292678 183.740647 
L 320.128663 184.259271 
L 325.016396 184.676739 
L 330.876166 184.931937 
L 337.958911 184.982341 
L 345.964975 184.781446 
L 354.328668 184.33111 
L 362.392635 183.690627 
L 373.426041 182.558997 
L 394.227789 180.336696 
L 404.607808 179.483259 
L 411.265863 179.056046 
L 411.265863 179.056046 
" style="fill:none;stroke:#000000;stroke-linecap:square;stroke-opacity:0.7;stroke-width:1.2;"/>
   </g>
   <g id="line2d_13">
    <path clip-path="url(#p648dcecefc)" d="M 412.079912 139.956224 
L 395.321954 137.26517 
L 379.929119 134.980276 
L 368.213776 133.449945 
L 358.453118 132.41512 
L 349.922544 131.760424 
L 343.213819 131.483541 
L 338.058429 131.488524 
L 333.79509 131.687484 
L 329.128079 132.148488 
L 325.231212 132.746265 
L 320.885522 133.650215 
L 316.691352 134.768842 
L 313.088587 135.948104 
L 310.156525 137.13048 
L 308.774286 137.884834 
L 308.42298 138.239349 
L 308.464927 138.458233 
L 308.736831 138.585564 
L 309.414855 138.684703 
L 311.34489 138.703701 
L 316.383041 138.450624 
L 330.694715 137.651369 
L 337.868939 137.472748 
L 344.760011 137.518207 
L 352.705358 137.798605 
L 372.068433 138.814333 
L 388.898714 139.569096 
L 403.765947 139.995956 
L 412.08057 140.140054 
L 412.08057 140.140054 
" style="fill:none;stroke:#000000;stroke-linecap:square;stroke-opacity:0.7;stroke-width:1.2;"/>
   </g>
   <g id="line2d_14">
    <path clip-path="url(#p648dcecefc)" d="M 412.326148 100.187952 
L 403.038445 97.841562 
L 394.29815 95.85973 
L 386.236415 94.240403 
L 377.534883 92.730672 
L 370.418742 91.708339 
L 363.594477 90.949162 
L 358.218186 90.53495 
L 352.443663 90.293847 
L 346.01188 90.283888 
L 340.61288 90.491351 
L 334.624389 90.986904 
L 330.18024 91.590871 
L 326.310172 92.341008 
L 323.270071 93.119988 
L 320.019458 94.183514 
L 317.82152 95.06409 
L 314.930062 96.463219 
L 312.58848 97.853242 
L 310.395591 99.494714 
L 309.533734 100.335106 
L 308.77933 101.454928 
L 308.676589 102.037022 
L 308.87148 102.520056 
L 309.372087 102.906653 
L 310.439735 103.262474 
L 312.116132 103.50104 
L 315.315241 103.638039 
L 321.230384 103.575438 
L 335.894978 103.083257 
L 378.432512 101.600388 
L 404.83052 100.67941 
L 412.313743 100.371136 
L 412.313743 100.371136 
" style="fill:none;stroke:#000000;stroke-linecap:square;stroke-opacity:0.7;stroke-width:1.2;"/>
   </g>
   <g id="line2d_15">
    <path clip-path="url(#p648dcecefc)" d="M 412.261435 60.720347 
L 400.09616 58.964196 
L 387.227956 57.318826 
L 375.879193 56.099603 
L 365.573058 55.225574 
L 356.460891 54.662277 
L 347.825214 54.31831 
L 340.228631 54.231598 
L 334.046862 54.413225 
L 329.412205 54.758185 
L 325.212428 55.259047 
L 320.692315 56.035357 
L 317.089609 56.874067 
L 314.189525 57.746397 
L 312.175315 58.512476 
L 310.593265 59.276644 
L 309.347499 60.094716 
L 308.601195 60.870807 
L 308.334585 61.479284 
L 308.331684 61.907012 
L 308.528572 62.383941 
L 308.990846 62.883408 
L 309.639651 63.317792 
L 310.995393 63.918793 
L 312.909826 64.490157 
L 316.028943 65.125768 
L 319.798042 65.65607 
L 324.498019 66.124765 
L 331.862592 66.625598 
L 341.432651 67.039163 
L 350.887636 67.232881 
L 358.704752 67.173356 
L 365.842964 66.895244 
L 373.000049 66.386827 
L 380.357631 65.642323 
L 389.34096 64.495514 
L 401.24469 62.729465 
L 412.302812 60.971699 
L 412.302812 60.971699 
" style="fill:none;stroke:#000000;stroke-linecap:square;stroke-opacity:0.7;stroke-width:1.2;"/>
   </g>
   <g id="line2d_16">
    <path clip-path="url(#p648dcecefc)" d="M 543.246398 217.805224 
L 532.808197 216.417281 
L 521.839273 215.191696 
L 512.432861 214.357908 
L 503.923928 213.807808 
L 496.578049 213.528077 
L 490.208622 213.470784 
L 482.757288 213.660479 
L 475.16799 214.122909 
L 466.475305 214.90114 
L 458.066599 215.879489 
L 451.995145 216.756695 
L 446.372499 217.777252 
L 443.370036 218.507323 
L 441.384336 219.230692 
L 440.664759 219.693287 
L 440.408531 220.01947 
L 440.362154 220.414143 
L 440.463206 220.643928 
L 440.877516 221.0569 
L 442.22764 221.733238 
L 443.381963 222.107352 
L 446.198476 222.735132 
L 450.044667 223.272419 
L 454.60364 223.652466 
L 460.740359 223.904321 
L 467.659285 223.971401 
L 477.036622 223.830812 
L 486.630409 223.440647 
L 494.701245 222.896707 
L 504.054822 222.02643 
L 517.300202 220.523077 
L 532.828462 218.818833 
L 542.651251 217.980091 
L 543.261618 217.93689 
L 543.261618 217.93689 
" style="fill:none;stroke:#000000;stroke-linecap:square;stroke-opacity:0.7;stroke-width:1.2;"/>
   </g>
   <g id="line2d_17">
    <path clip-path="url(#p648dcecefc)" d="M 543.737261 177.833458 
L 539.680659 176.390056 
L 534.469346 174.739372 
L 528.487556 173.086663 
L 522.244975 171.604386 
L 515.09973 170.177547 
L 508.798534 169.141656 
L 502.240627 168.282389 
L 496.281026 167.703882 
L 489.717227 167.30907 
L 483.663728 167.189868 
L 477.901807 167.307798 
L 472.483761 167.638237 
L 467.136561 168.203814 
L 462.598761 168.910645 
L 459.128691 169.621732 
L 455.496669 170.555119 
L 452.121547 171.628943 
L 448.993881 172.841614 
L 446.144564 174.18236 
L 443.360489 175.814176 
L 441.862148 176.922009 
L 440.643231 178.09555 
L 440.052193 178.927183 
L 439.746202 179.830816 
L 439.843808 180.541788 
L 440.058911 180.914984 
L 440.566223 181.398203 
L 441.31254 181.826383 
L 442.758468 182.331057 
L 445.262026 182.807533 
L 448.732799 183.102724 
L 452.184106 183.170789 
L 456.409961 183.058543 
L 462.41032 182.632855 
L 468.234271 181.983113 
L 473.98935 181.152836 
L 483.379086 179.535744 
L 496.149725 177.328791 
L 502.834245 176.403985 
L 508.294119 175.854285 
L 512.924306 175.564586 
L 518.117171 175.448729 
L 523.853796 175.578333 
L 529.79231 175.983945 
L 535.450651 176.615754 
L 541.218549 177.507166 
L 543.72762 177.972126 
L 543.72762 177.972126 
" style="fill:none;stroke:#000000;stroke-linecap:square;stroke-opacity:0.7;stroke-width:1.2;"/>
   </g>
   <g id="line2d_18">
    <path clip-path="url(#p648dcecefc)" d="M 543.936861 139.904125 
L 534.277744 137.566138 
L 523.456952 135.163661 
L 513.774084 133.230386 
L 503.939812 131.490592 
L 494.971834 130.113728 
L 485.538488 128.887444 
L 477.655552 128.080537 
L 471.769143 127.699174 
L 467.426585 127.609908 
L 462.613929 127.76796 
L 458.823725 128.118745 
L 455.066082 128.686233 
L 451.430779 129.461793 
L 447.651409 130.53563 
L 444.878387 131.541599 
L 442.65765 132.549723 
L 441.017269 133.526511 
L 440.285846 134.134762 
L 439.787387 134.859125 
L 439.764902 135.390032 
L 439.985704 135.765112 
L 440.646453 136.239777 
L 442.096179 136.766744 
L 444.908985 137.312388 
L 449.000044 137.745344 
L 455.24926 138.085459 
L 463.842426 138.276194 
L 508.420983 138.85368 
L 526.931933 139.550656 
L 543.93819 140.22087 
L 543.93819 140.22087 
" style="fill:none;stroke:#000000;stroke-linecap:square;stroke-opacity:0.7;stroke-width:1.2;"/>
   </g>
   <g id="line2d_19">
    <path clip-path="url(#p648dcecefc)" d="M 543.639099 100.373691 
L 534.02675 98.143733 
L 523.269487 95.886353 
L 513.270096 94.044052 
L 503.69985 92.534395 
L 495.006097 91.395036 
L 486.654187 90.530098 
L 479.921872 90.040825 
L 473.549737 89.831316 
L 469.039356 89.899332 
L 465.413931 90.126385 
L 462.020931 90.506827 
L 458.512079 91.096328 
L 455.305762 91.82933 
L 451.825781 92.857554 
L 448.932474 93.919377 
L 446.666695 94.903712 
L 443.490725 96.57691 
L 441.425128 97.951857 
L 440.207543 98.980602 
L 439.201437 100.224804 
L 438.950775 100.949138 
L 438.958274 101.279439 
L 439.173102 101.76494 
L 439.650246 102.179519 
L 440.408773 102.522314 
L 441.821476 102.850604 
L 443.589711 103.037796 
L 447.144251 103.105022 
L 451.824422 102.916477 
L 459.541974 102.335957 
L 474.618155 101.143877 
L 482.204245 100.790918 
L 493.03159 100.557403 
L 523.046167 100.246052 
L 535.077494 100.353907 
L 543.614935 100.570645 
L 543.614935 100.570645 
" style="fill:none;stroke:#000000;stroke-linecap:square;stroke-opacity:0.7;stroke-width:1.2;"/>
   </g>
   <g id="line2d_20">
    <path clip-path="url(#p648dcecefc)" d="M 542.919658 60.87407 
L 532.653239 58.993419 
L 521.343402 57.136701 
L 511.613579 55.746088 
L 502.569467 54.679301 
L 495.522277 54.055775 
L 489.730795 53.722549 
L 483.277123 53.574686 
L 476.871325 53.669604 
L 470.507107 54.000647 
L 464.24167 54.574271 
L 460.007953 55.124336 
L 454.598831 56.060456 
L 449.549495 57.233411 
L 446.1963 58.230862 
L 443.303516 59.314554 
L 441.458254 60.220461 
L 440.326983 61.015864 
L 439.8466 61.627872 
L 439.78035 62.120915 
L 439.949834 62.461579 
L 440.474889 62.879923 
L 441.122918 63.173815 
L 442.633114 63.589309 
L 444.530677 63.898492 
L 447.160299 64.149134 
L 452.107756 64.340667 
L 458.041399 64.311214 
L 465.880413 64.034168 
L 486.141771 62.940044 
L 506.978076 61.997302 
L 526.204989 61.29876 
L 540.372776 61.009175 
L 542.841048 60.985822 
L 542.841048 60.985822 
" style="fill:none;stroke:#000000;stroke-linecap:square;stroke-opacity:0.7;stroke-width:1.2;"/>
   </g>
   <g id="line2d_21">
    <path clip-path="url(#p648dcecefc)" d="M 674.100286 218.970957 
L 653.993565 216.254852 
L 638.037444 214.303757 
L 626.599302 213.116974 
L 615.767986 212.21425 
L 607.791734 211.748002 
L 601.981852 211.604256 
L 596.338182 211.724432 
L 591.163323 212.148122 
L 587.30884 212.706945 
L 583.031508 213.619677 
L 580.270395 214.408169 
L 577.574119 215.380596 
L 575.255354 216.469055 
L 574.296621 217.046549 
L 573.058461 218.101222 
L 572.768702 218.531773 
L 572.622078 219.252698 
L 572.760314 219.661838 
L 572.954624 219.932623 
L 573.763708 220.554794 
L 574.919076 221.080096 
L 577.010243 221.703546 
L 580.878547 222.44501 
L 585.793345 223.069343 
L 592.575878 223.672591 
L 601.994984 224.270861 
L 612.094708 224.694969 
L 620.244653 224.830393 
L 627.15506 224.749018 
L 634.638804 224.418416 
L 642.033225 223.832734 
L 649.972366 222.945223 
L 658.739119 221.719365 
L 668.927379 220.057542 
L 674.113662 219.146213 
L 674.113662 219.146213 
" style="fill:none;stroke:#000000;stroke-linecap:square;stroke-opacity:0.7;stroke-width:1.2;"/>
   </g>
   <g id="line2d_22">
    <path clip-path="url(#p648dcecefc)" d="M 674.685448 178.955353 
L 666.188607 177.20534 
L 654.975509 175.10503 
L 644.496425 173.361517 
L 635.781805 172.108103 
L 627.19813 171.106344 
L 620.851441 170.559737 
L 614.226022 170.207812 
L 608.791371 170.128177 
L 604.185705 170.25016 
L 599.804974 170.56374 
L 596.011816 171.01158 
L 591.166548 171.835861 
L 587.374102 172.679751 
L 582.947689 173.884591 
L 579.925772 174.848269 
L 575.321746 176.579283 
L 572.380187 177.950685 
L 571.019055 178.782334 
L 570.53826 179.272731 
L 570.530751 179.452588 
L 570.834784 179.596969 
L 571.800242 179.577406 
L 573.849039 179.23553 
L 579.145409 178.028893 
L 588.015895 175.996362 
L 593.807827 174.870066 
L 597.79129 174.242785 
L 602.925149 173.660465 
L 607.562886 173.383283 
L 611.858366 173.336766 
L 617.429239 173.527702 
L 624.708759 174.059841 
L 635.924847 175.162905 
L 669.05912 178.545797 
L 674.735331 179.089446 
L 674.735331 179.089446 
" style="fill:none;stroke:#000000;stroke-linecap:square;stroke-opacity:0.7;stroke-width:1.2;"/>
   </g>
   <g id="line2d_23">
    <path clip-path="url(#p648dcecefc)" d="M 675.467723 138.384239 
L 671.269784 136.498411 
L 666.223427 134.421129 
L 661.1573 132.544283 
L 656.280156 130.941597 
L 650.988917 129.429082 
L 645.53711 128.114743 
L 640.743515 127.165344 
L 636.262294 126.4583 
L 631.485824 125.907427 
L 626.931822 125.589251 
L 622.20873 125.481549 
L 617.215701 125.609076 
L 612.374157 125.947519 
L 606.772861 126.570834 
L 601.239763 127.42308 
L 596.278478 128.408332 
L 590.895153 129.75171 
L 586.272325 131.169687 
L 582.299283 132.623127 
L 578.45004 134.307116 
L 575.293568 136.013485 
L 573.335088 137.366479 
L 571.999674 138.604622 
L 571.175866 139.756574 
L 570.76022 140.934117 
L 570.730558 141.877462 
L 570.912299 142.69719 
L 571.275039 143.516275 
L 572.248479 144.875563 
L 573.152535 145.793889 
L 575.291962 147.468621 
L 577.681698 148.926726 
L 579.958745 150.080231 
L 582.605923 151.216107 
L 586.459797 152.559916 
L 590.31843 153.588903 
L 593.591864 154.227612 
L 597.293412 154.687314 
L 600.351191 154.846872 
L 603.888786 154.769545 
L 607.178368 154.439724 
L 610.471488 153.870102 
L 614.011894 153.024047 
L 618.577474 151.66637 
L 625.562737 149.291494 
L 634.727043 146.177231 
L 640.52432 144.41552 
L 646.619484 142.81306 
L 651.874731 141.64324 
L 658.412805 140.441325 
L 664.485899 139.556718 
L 670.459082 138.908383 
L 675.490909 138.555912 
L 675.490909 138.555912 
" style="fill:none;stroke:#000000;stroke-linecap:square;stroke-opacity:0.7;stroke-width:1.2;"/>
   </g>
   <g id="line2d_24">
    <path clip-path="url(#p648dcecefc)" d="M 674.883018 100.035552 
L 668.040819 98.658042 
L 658.211688 96.882458 
L 648.082036 95.270751 
L 637.435301 93.807236 
L 627.516903 92.676397 
L 619.01096 91.924609 
L 611.672721 91.486014 
L 605.10476 91.324026 
L 600.193391 91.404629 
L 595.572926 91.689301 
L 591.358034 92.165169 
L 587.805878 92.754356 
L 584.768337 93.415486 
L 580.903944 94.503723 
L 578.707017 95.271511 
L 575.499992 96.651512 
L 573.929431 97.485392 
L 571.941289 98.802144 
L 570.763747 99.884238 
L 570.215801 100.656917 
L 569.991959 101.544698 
L 570.163243 102.070104 
L 570.530148 102.462258 
L 571.388627 102.906941 
L 572.49346 103.196924 
L 574.301921 103.416153 
L 576.461372 103.484234 
L 580.663358 103.334842 
L 586.684709 102.826654 
L 608.32287 100.705916 
L 615.708428 100.331455 
L 624.314673 100.134468 
L 638.989232 100.074537 
L 670.868207 100.204149 
L 674.849633 100.256872 
L 674.849633 100.256872 
" style="fill:none;stroke:#000000;stroke-linecap:square;stroke-opacity:0.7;stroke-width:1.2;"/>
   </g>
   <g id="line2d_25">
    <path clip-path="url(#p648dcecefc)" d="M 674.767042 60.329338 
L 665.924079 58.91845 
L 655.416313 57.448526 
L 645.040907 56.224949 
L 635.812282 55.347386 
L 627.055175 54.736611 
L 619.574048 54.431007 
L 612.829353 54.363973 
L 606.277824 54.515043 
L 600.025495 54.885373 
L 594.668425 55.408247 
L 588.958082 56.210496 
L 584.106356 57.122845 
L 579.475785 58.233684 
L 575.883825 59.316429 
L 573.194971 60.349947 
L 571.762801 61.087855 
L 571.004366 61.657717 
L 570.638754 62.219221 
L 570.720011 62.709544 
L 571.109869 63.086744 
L 571.690125 63.392027 
L 572.88801 63.783832 
L 574.71867 64.161256 
L 577.608571 64.535436 
L 582.025274 64.865081 
L 588.222398 65.076051 
L 596.382405 65.096923 
L 605.429839 64.890044 
L 616.198952 64.408427 
L 628.486755 63.638409 
L 672.737757 60.610131 
L 674.783089 60.523206 
L 674.783089 60.523206 
" style="fill:none;stroke:#000000;stroke-linecap:square;stroke-opacity:0.7;stroke-width:1.2;"/>
   </g>
  </g>
 </g>
 <defs>
  <clipPath id="p648dcecefc">
   <rect height="262.08" width="694.08" x="12.96" y="12.96"/>
  </clipPath>
 </defs>
</svg>
