<?xml version="1.0" encoding="utf-8" standalone="no"?>
<!DOCTYPE svg PUBLIC "-//W3C//DTD SVG 1.1//EN"
  "http://www.w3.org/Graphics/SVG/1.1/DTD/svg11.dtd">
<!-- Created with matplotlib (https://matplotlib.org/) -->
<svg height="288pt" version="1.1" viewBox="0 0 720 288" width="720pt" xmlns="http://www.w3.org/2000/svg" xmlns:xlink="http://www.w3.org/1999/xlink">
 <metadata>
  <rdf:RDF xmlns:cc="http://creativecommons.org/ns#" xmlns:dc="http://purl.org/dc/elements/1.1/" xmlns:rdf="http://www.w3.org/1999/02/22-rdf-syntax-ns#">
   <cc:Work>
    <dc:type rdf:resource="http://purl.org/dc/dcmitype/StillImage"/>
    <dc:date>2021-04-26T15:19:55.551930</dc:date>
    <dc:format>image/svg+xml</dc:format>
    <dc:creator>
     <cc:Agent>
      <dc:title>Matplotlib v3.3.4, https://matplotlib.org/</dc:title>
     </cc:Agent>
    </dc:creator>
   </cc:Work>
  </rdf:RDF>
 </metadata>
 <defs>
  <style type="text/css">*{stroke-linecap:butt;stroke-linejoin:round;}</style>
 </defs>
 <g id="figure_1">
  <g id="patch_1">
   <path d="M 0 288 
L 720 288 
L 720 0 
L 0 0 
z
" style="fill:#ffffff;"/>
  </g>
  <g id="axes_1">
   <g id="line2d_1">
    <path clip-path="url(#pc6139a2295)" d="M 148.57737 227.51071 
L 137.290591 225.761496 
L 127.674403 224.50265 
L 117.834102 223.466512 
L 108.322058 222.694996 
L 96.735892 222.005714 
L 86.494729 221.579187 
L 79.359358 221.464905 
L 74.040156 221.569001 
L 69.445717 221.840774 
L 64.400595 222.371378 
L 59.565261 223.135739 
L 54.98326 224.118032 
L 50.672658 225.313459 
L 47.836687 226.293095 
L 45.555653 227.284989 
L 44.72998 227.786853 
L 44.526768 228.139142 
L 44.762953 228.238932 
L 45.512104 228.24516 
L 47.738361 227.955389 
L 53.604092 226.864014 
L 66.880206 224.349356 
L 73.231871 223.378528 
L 77.972487 222.85652 
L 82.834296 222.566663 
L 87.842137 222.554688 
L 92.839618 222.797464 
L 99.88882 223.421105 
L 126.293648 226.063171 
L 138.759268 226.927193 
L 148.576705 227.476841 
L 148.576705 227.476841 
" style="fill:none;stroke:#000000;stroke-linecap:square;stroke-opacity:0.7;stroke-width:1.2;"/>
   </g>
   <g id="line2d_2">
    <path clip-path="url(#pc6139a2295)" d="M 148.424504 187.633401 
L 135.272584 185.52327 
L 125.632302 184.173213 
L 116.218173 183.063629 
L 106.402825 182.147318 
L 96.111682 181.443485 
L 85.794656 180.956183 
L 78.326006 180.815222 
L 73.118873 180.916954 
L 67.852785 181.255051 
L 63.250925 181.78305 
L 59.031634 182.486346 
L 55.715403 183.209592 
L 52.233356 184.170017 
L 49.164958 185.262832 
L 47.504329 186.02275 
L 46.303512 186.730423 
L 45.344879 187.587196 
L 45.060525 188.194892 
L 45.069692 188.495444 
L 45.304609 188.935339 
L 45.83619 189.353037 
L 46.934379 189.819789 
L 47.962869 190.096457 
L 50.525039 190.516481 
L 53.112631 190.746242 
L 57.479495 190.90887 
L 63.898907 190.870283 
L 73.37253 190.528804 
L 94.592859 189.679985 
L 121.020637 188.794744 
L 148.355476 187.499498 
L 148.355476 187.499498 
" style="fill:none;stroke:#000000;stroke-linecap:square;stroke-opacity:0.7;stroke-width:1.2;"/>
   </g>
   <g id="line2d_3">
    <path clip-path="url(#pc6139a2295)" d="M 148.955228 148.736927 
L 139.876389 146.516432 
L 132.358509 144.887237 
L 124.761602 143.49165 
L 117.710436 142.434207 
L 110.783695 141.622205 
L 104.164474 141.058004 
L 97.195189 140.677048 
L 89.230661 140.468991 
L 81.95657 140.476364 
L 75.101865 140.719082 
L 70.064753 141.105833 
L 65.120761 141.704033 
L 60.899267 142.417799 
L 56.513615 143.398584 
L 53.252266 144.332082 
L 49.781486 145.621014 
L 48.080411 146.456716 
L 46.888003 147.225747 
L 46.220069 147.822327 
L 45.687833 148.668434 
L 45.643583 149.349521 
L 45.928863 149.972207 
L 46.408522 150.48031 
L 47.197913 151.031627 
L 48.78769 151.790279 
L 50.831234 152.482888 
L 53.398656 153.132314 
L 56.958847 153.797485 
L 61.611443 154.404463 
L 66.854065 154.845913 
L 72.749722 155.123371 
L 79.755242 155.230937 
L 87.604134 155.116623 
L 95.462398 154.749135 
L 102.471795 154.189228 
L 109.432561 153.427242 
L 120.240336 151.976606 
L 134.937482 150.015561 
L 143.262568 149.121395 
L 148.989247 148.615969 
L 148.989247 148.615969 
" style="fill:none;stroke:#000000;stroke-linecap:square;stroke-opacity:0.7;stroke-width:1.2;"/>
   </g>
   <g id="line2d_4">
    <path clip-path="url(#pc6139a2295)" d="M 148.965792 109.330893 
L 140.832101 108.128248 
L 132.864198 107.178517 
L 125.510889 106.525077 
L 117.785969 106.070477 
L 110.763741 105.865044 
L 103.500787 105.86267 
L 95.021694 106.102136 
L 71.487563 107.176185 
L 62.049542 107.782494 
L 54.677221 108.471856 
L 49.933852 109.100481 
L 47.482439 109.565979 
L 45.805964 110.099978 
L 45.399981 110.389633 
L 45.337384 110.731142 
L 45.613465 111.032018 
L 46.439108 111.446548 
L 47.719595 111.855153 
L 50.481219 112.454137 
L 53.522801 112.912616 
L 58.313464 113.399542 
L 64.283251 113.751203 
L 71.709087 113.94129 
L 81.799551 113.949483 
L 92.252173 113.732934 
L 100.249773 113.360621 
L 108.272746 112.776105 
L 119.284719 111.708833 
L 136.153246 110.053926 
L 145.188155 109.403205 
L 148.963659 109.188052 
L 148.963659 109.188052 
" style="fill:none;stroke:#000000;stroke-linecap:square;stroke-opacity:0.7;stroke-width:1.2;"/>
   </g>
   <g id="line2d_5">
    <path clip-path="url(#pc6139a2295)" d="M 149.10938 70.794128 
L 123.286602 65.696729 
L 111.796052 63.72365 
L 102.13961 62.309665 
L 94.569683 61.423936 
L 88.521813 60.894174 
L 82.038831 60.540936 
L 77.267892 60.462675 
L 71.63134 60.635207 
L 67.038769 61.046956 
L 63.066815 61.64281 
L 59.564823 62.38257 
L 56.558049 63.201125 
L 53.080389 64.397069 
L 50.270171 65.611579 
L 47.700807 67.017524 
L 46.406596 67.925242 
L 45.524849 68.732017 
L 44.939426 69.589664 
L 44.826289 70.189373 
L 44.948082 70.60531 
L 45.231247 70.965181 
L 45.968267 71.448613 
L 47.257494 71.916822 
L 49.464311 72.378253 
L 51.89904 72.685115 
L 56.780157 73.014766 
L 62.703698 73.159074 
L 72.03083 73.126109 
L 93.193849 72.971052 
L 110.209919 72.911713 
L 119.750725 72.64275 
L 129.164979 72.160361 
L 139.84079 71.397436 
L 149.113608 70.608347 
L 149.113608 70.608347 
" style="fill:none;stroke:#000000;stroke-linecap:square;stroke-opacity:0.7;stroke-width:1.2;"/>
   </g>
   <g id="line2d_6">
    <path clip-path="url(#pc6139a2295)" d="M 279.665824 227.83847 
L 271.521839 226.747175 
L 264.227948 225.965515 
L 255.971093 225.316872 
L 248.242824 224.93481 
L 240.387834 224.774742 
L 233.274491 224.840616 
L 225.511532 225.149073 
L 204.031964 226.256877 
L 186.175825 226.682805 
L 181.947578 227.03387 
L 178.975754 227.525266 
L 177.881915 227.891034 
L 177.398378 228.28859 
L 177.410344 228.5854 
L 177.713877 228.893489 
L 178.411238 229.242832 
L 179.815214 229.657781 
L 182.019006 230.04913 
L 185.729796 230.408354 
L 189.688942 230.592526 
L 196.995576 230.704267 
L 233.810459 230.770289 
L 242.109437 230.45783 
L 251.240154 229.88939 
L 272.855641 228.20285 
L 279.617021 227.713166 
L 279.617021 227.713166 
" style="fill:none;stroke:#000000;stroke-linecap:square;stroke-opacity:0.7;stroke-width:1.2;"/>
   </g>
   <g id="line2d_7">
    <path clip-path="url(#pc6139a2295)" d="M 280.225197 187.829513 
L 251.086322 183.971904 
L 238.812134 182.652814 
L 226.459844 181.537236 
L 219.635974 181.07886 
L 214.305166 180.912543 
L 210.516815 180.93755 
L 204.998907 181.212228 
L 200.164142 181.6868 
L 195.537042 182.339546 
L 190.861286 183.19467 
L 185.806567 184.356914 
L 181.424109 185.618674 
L 178.164088 186.808767 
L 176.448274 187.610684 
L 175.234492 188.355031 
L 174.463908 189.051861 
L 174.171446 189.50169 
L 174.049795 190.072039 
L 174.218815 190.630277 
L 174.622333 191.123214 
L 175.482331 191.733263 
L 176.770417 192.333863 
L 179.116659 193.07709 
L 182.157295 193.731471 
L 186.233744 194.317191 
L 191.719984 194.785731 
L 197.402737 195.015629 
L 205.132869 195.051451 
L 215.828992 194.790411 
L 229.071296 194.215102 
L 237.714697 193.651755 
L 246.189795 192.849929 
L 254.68452 191.777595 
L 264.345553 190.30475 
L 277.919224 187.975831 
L 280.224263 187.569751 
L 280.224263 187.569751 
" style="fill:none;stroke:#000000;stroke-linecap:square;stroke-opacity:0.7;stroke-width:1.2;"/>
   </g>
   <g id="line2d_8">
    <path clip-path="url(#pc6139a2295)" d="M 279.717884 148.110356 
L 270.670272 145.746127 
L 262.726338 143.855561 
L 255.007866 142.23265 
L 247.484046 140.880103 
L 241.381196 139.966496 
L 234.382893 139.143212 
L 227.265375 138.569889 
L 221.329784 138.292032 
L 214.700291 138.184773 
L 208.636785 138.291726 
L 203.550909 138.575497 
L 198.083688 139.141533 
L 193.460108 139.888705 
L 190.260057 140.583643 
L 186.495834 141.633726 
L 184.137632 142.455533 
L 181.716678 143.482287 
L 179.156754 144.891419 
L 177.584419 146.088704 
L 176.975888 146.706823 
L 176.210539 147.837858 
L 175.946432 148.591086 
L 175.887978 148.956832 
L 175.975223 150.027211 
L 176.312871 150.873068 
L 177.118869 151.989566 
L 178.48817 153.217845 
L 180.350335 154.41741 
L 182.839473 155.625155 
L 186.035397 156.797477 
L 188.855396 157.59312 
L 191.895113 158.259364 
L 195.415576 158.825434 
L 199.19518 159.221735 
L 203.124438 159.428814 
L 207.525749 159.43986 
L 212.438701 159.210433 
L 217.033122 158.801161 
L 223.42546 157.991313 
L 232.096001 156.610178 
L 247.777721 153.81446 
L 279.69017 148.086722 
L 279.69017 148.086722 
" style="fill:none;stroke:#000000;stroke-linecap:square;stroke-opacity:0.7;stroke-width:1.2;"/>
   </g>
   <g id="line2d_9">
    <path clip-path="url(#pc6139a2295)" d="M 278.827656 108.952612 
L 272.256987 106.523352 
L 263.770636 103.618682 
L 255.400592 100.997947 
L 247.48562 98.742873 
L 240.297522 96.893769 
L 233.470358 95.341117 
L 226.857318 94.075213 
L 221.032449 93.206679 
L 215.83407 92.669863 
L 210.640474 92.403126 
L 207.235878 92.40271 
L 204.163069 92.543292 
L 200.426286 92.928339 
L 196.460738 93.650282 
L 193.379651 94.485683 
L 190.572261 95.501811 
L 187.745197 96.820448 
L 185.709528 97.988254 
L 183.393371 99.584941 
L 181.278003 101.353638 
L 179.248095 103.44188 
L 178.304609 104.61848 
L 177.004013 106.739968 
L 176.594888 107.872449 
L 176.513134 108.848661 
L 176.717334 109.522433 
L 176.975708 109.87537 
L 177.771368 110.41439 
L 179.356574 110.838951 
L 181.918367 111.002606 
L 184.010056 110.950524 
L 189.473938 110.495899 
L 198.437027 109.416115 
L 207.075494 108.438561 
L 213.914843 107.906842 
L 220.292888 107.659614 
L 227.861639 107.630844 
L 241.116301 107.936509 
L 264.070327 108.497234 
L 278.808429 108.744832 
L 278.808429 108.744832 
" style="fill:none;stroke:#000000;stroke-linecap:square;stroke-opacity:0.7;stroke-width:1.2;"/>
   </g>
   <g id="line2d_10">
    <path clip-path="url(#pc6139a2295)" d="M 280.712538 69.925206 
L 269.122185 68.096625 
L 259.957287 66.896849 
L 250.947269 65.963153 
L 242.407014 65.296667 
L 233.889794 64.832022 
L 225.035546 64.563906 
L 217.928955 64.571875 
L 211.781652 64.804972 
L 206.175465 65.225905 
L 200.414002 65.87313 
L 194.543236 66.761949 
L 188.897077 67.850331 
L 183.303908 69.198999 
L 179.810489 70.240625 
L 177.510291 71.106544 
L 176.561615 71.641739 
L 176.434064 71.94056 
L 176.605046 72.064683 
L 177.363231 72.218951 
L 179.499772 72.315283 
L 184.358875 72.268035 
L 194.296924 71.912735 
L 207.211451 71.20452 
L 229.975632 69.904321 
L 245.057054 69.300131 
L 255.870136 69.060799 
L 264.644648 69.083557 
L 272.544659 69.30271 
L 280.746613 69.704771 
L 280.746613 69.704771 
" style="fill:none;stroke:#000000;stroke-linecap:square;stroke-opacity:0.7;stroke-width:1.2;"/>
   </g>
   <g id="line2d_11">
    <path clip-path="url(#pc6139a2295)" d="M 411.025779 228.491261 
L 396.176194 226.804627 
L 382.347402 225.459019 
L 366.940507 224.211104 
L 345.072435 222.607358 
L 338.716155 222.412783 
L 333.428152 222.477094 
L 327.827 222.794775 
L 323.028811 223.267987 
L 317.393299 224.049372 
L 311.265483 225.175419 
L 306.515521 226.298406 
L 304.473538 226.93986 
L 303.703387 227.354675 
L 303.673171 227.532755 
L 303.859455 227.656924 
L 304.535629 227.815574 
L 306.603491 227.999684 
L 312.59246 228.180511 
L 331.620449 228.367656 
L 345.400762 228.611583 
L 357.526086 229.068757 
L 371.48603 229.577539 
L 379.510001 229.648452 
L 387.912 229.497966 
L 397.483699 229.09534 
L 409.264387 228.350345 
L 411.151935 228.210761 
L 411.151935 228.210761 
" style="fill:none;stroke:#000000;stroke-linecap:square;stroke-opacity:0.7;stroke-width:1.2;"/>
   </g>
   <g id="line2d_12">
    <path clip-path="url(#pc6139a2295)" d="M 412.174917 189.585622 
L 375.357818 182.421249 
L 366.022716 180.951829 
L 358.739485 180.01313 
L 352.049724 179.354023 
L 345.39341 178.938558 
L 340.185264 178.835086 
L 335.046049 178.986767 
L 331.506159 179.26973 
L 327.227152 179.833725 
L 323.559961 180.527597 
L 319.459802 181.554537 
L 315.778234 182.73492 
L 313.056756 183.807602 
L 311.226619 184.667049 
L 309.057736 185.948761 
L 307.942302 186.886173 
L 307.396217 187.637645 
L 307.24021 188.131634 
L 307.306463 188.725075 
L 307.625192 189.236843 
L 309.029845 190.190579 
L 310.486417 190.751707 
L 312.339422 191.259681 
L 316.0805 191.964646 
L 320.907961 192.559183 
L 326.926771 193.039502 
L 335.632995 193.466084 
L 356.501212 194.145704 
L 367.263402 194.338826 
L 375.086023 194.243089 
L 381.251395 193.964735 
L 386.831519 193.535925 
L 393.878475 192.740291 
L 399.967016 191.817499 
L 405.322222 190.822839 
L 412.171028 189.325257 
L 412.171028 189.325257 
" style="fill:none;stroke:#000000;stroke-linecap:square;stroke-opacity:0.7;stroke-width:1.2;"/>
   </g>
   <g id="line2d_13">
    <path clip-path="url(#pc6139a2295)" d="M 410.251488 148.064849 
L 402.055506 145.622727 
L 394.95873 143.700775 
L 387.457987 141.88 
L 379.698729 140.226861 
L 372.222451 138.862501 
L 365.31175 137.818092 
L 358.802654 137.051448 
L 352.182027 136.521779 
L 345.962321 136.287337 
L 341.458034 136.300187 
L 336.565487 136.51991 
L 333.14051 136.82519 
L 328.86214 137.418492 
L 325.15981 138.160334 
L 321.364626 139.189203 
L 318.05115 140.358444 
L 314.913193 141.756563 
L 312.312495 143.195307 
L 310.702759 144.262499 
L 308.894306 145.72113 
L 307.638116 147.07534 
L 306.917682 148.384736 
L 306.826236 149.155813 
L 307.079546 149.855118 
L 307.482776 150.290157 
L 308.168298 150.719346 
L 308.725909 150.95525 
L 311.198076 151.542209 
L 312.948648 151.752047 
L 316.680699 151.954806 
L 322.449003 151.955127 
L 331.519561 151.661875 
L 349.392041 151.044469 
L 375.496281 150.324433 
L 387.175428 149.671587 
L 404.440024 148.432121 
L 410.306916 147.991498 
L 410.306916 147.991498 
" style="fill:none;stroke:#000000;stroke-linecap:square;stroke-opacity:0.7;stroke-width:1.2;"/>
   </g>
   <g id="line2d_14">
    <path clip-path="url(#pc6139a2295)" d="M 412.33245 109.996082 
L 402.785215 108.408424 
L 394.284248 107.22913 
L 385.885919 106.298017 
L 376.586654 105.520662 
L 367.845207 105.010578 
L 357.39819 104.632057 
L 347.761082 104.501224 
L 340.94334 104.632923 
L 334.860322 104.984798 
L 328.966931 105.56245 
L 322.196067 106.518313 
L 316.064416 107.66725 
L 311.124838 108.845774 
L 307.899342 109.867701 
L 306.834002 110.366477 
L 306.372491 110.749422 
L 306.310933 111.061843 
L 306.534214 111.328669 
L 307.309491 111.696055 
L 309.084049 112.160479 
L 312.170834 112.694704 
L 318.144001 113.41316 
L 324.442006 113.936522 
L 331.96166 114.315606 
L 338.591442 114.430208 
L 345.761568 114.321598 
L 354.069688 113.942301 
L 364.600822 113.218108 
L 380.154536 111.889307 
L 395.637032 110.616043 
L 404.089465 110.117007 
L 412.364292 109.827457 
L 412.364292 109.827457 
" style="fill:none;stroke:#000000;stroke-linecap:square;stroke-opacity:0.7;stroke-width:1.2;"/>
   </g>
   <g id="line2d_15">
    <path clip-path="url(#pc6139a2295)" d="M 411.993422 68.851952 
L 404.464683 66.02524 
L 397.494357 63.657516 
L 390.736033 61.635695 
L 384.463499 60.00822 
L 378.164124 58.612442 
L 372.349931 57.536486 
L 366.86451 56.711469 
L 361.005999 56.037823 
L 355.033391 55.576226 
L 349.954641 55.378059 
L 344.52989 55.406248 
L 340.046318 55.665428 
L 336.618286 56.038153 
L 332.76004 56.664984 
L 329.245577 57.446508 
L 325.939474 58.380404 
L 322.602838 59.534793 
L 319.600077 60.775551 
L 315.90154 62.617074 
L 313.137221 64.294798 
L 311.463751 65.501556 
L 309.876788 66.880603 
L 309.019079 67.814941 
L 308.360441 68.766016 
L 307.945998 69.859069 
L 307.948587 70.585454 
L 308.228744 71.242804 
L 308.76679 71.797511 
L 309.179329 72.071593 
L 309.913062 72.422829 
L 311.962054 72.995069 
L 313.55304 73.242343 
L 317.628181 73.517216 
L 322.609612 73.490582 
L 328.532047 73.188064 
L 335.931782 72.584858 
L 368.655448 69.599149 
L 378.666745 68.992446 
L 387.463194 68.65001 
L 397.043506 68.507651 
L 405.529487 68.591239 
L 412.005234 68.781399 
L 412.005234 68.781399 
" style="fill:none;stroke:#000000;stroke-linecap:square;stroke-opacity:0.7;stroke-width:1.2;"/>
   </g>
   <g id="line2d_16">
    <path clip-path="url(#pc6139a2295)" d="M 543.390192 227.832466 
L 534.430571 225.817907 
L 525.924592 224.124719 
L 518.652154 222.889956 
L 510.542676 221.762148 
L 502.62857 220.921163 
L 494.691405 220.330641 
L 486.29768 219.951529 
L 478.77942 219.816711 
L 472.775464 219.894529 
L 467.352613 220.166209 
L 462.007519 220.671261 
L 457.624825 221.2898 
L 453.397477 222.085021 
L 449.855387 222.927134 
L 446.086344 224.052585 
L 443.571445 225.003095 
L 441.369811 226.097006 
L 440.478536 226.70554 
L 439.688173 227.540667 
L 439.46718 228.174712 
L 439.515167 228.561685 
L 439.733883 228.969945 
L 440.207827 229.427031 
L 441.171969 229.987016 
L 442.80145 230.591362 
L 445.227684 231.18571 
L 448.740446 231.747906 
L 453.726723 232.228947 
L 459.561625 232.519829 
L 466.755267 232.639091 
L 476.96467 232.562404 
L 488.454069 232.267137 
L 497.23062 231.842985 
L 506.241316 231.167445 
L 518.360894 229.98022 
L 532.735735 228.601436 
L 543.433771 227.784849 
L 543.433771 227.784849 
" style="fill:none;stroke:#000000;stroke-linecap:square;stroke-opacity:0.7;stroke-width:1.2;"/>
   </g>
   <g id="line2d_17">
    <path clip-path="url(#pc6139a2295)" d="M 543.814257 188.819883 
L 525.995044 184.438821 
L 516.619054 182.380591 
L 506.216556 180.339443 
L 497.093976 178.758099 
L 488.086589 177.403342 
L 480.896267 176.531674 
L 475.394437 176.078703 
L 470.445483 175.920718 
L 467.198408 175.990776 
L 463.289525 176.300563 
L 460.393248 176.711124 
L 456.957663 177.418493 
L 453.204653 178.486186 
L 449.586591 179.834309 
L 446.68417 181.175134 
L 443.851966 182.770375 
L 442.396762 183.754452 
L 440.800898 185.103693 
L 440.074204 186.047207 
L 439.903334 186.639072 
L 439.976959 186.981921 
L 440.090421 187.15909 
L 440.693115 187.57959 
L 441.629694 187.872254 
L 443.951077 188.167339 
L 447.057473 188.254836 
L 451.679801 188.144736 
L 459.443895 187.703907 
L 473.611901 186.832565 
L 480.591439 186.652296 
L 487.732499 186.73033 
L 496.645616 187.094292 
L 520.428263 188.208028 
L 533.177797 188.501482 
L 543.810098 188.615317 
L 543.810098 188.615317 
" style="fill:none;stroke:#000000;stroke-linecap:square;stroke-opacity:0.7;stroke-width:1.2;"/>
   </g>
   <g id="line2d_18">
    <path clip-path="url(#pc6139a2295)" d="M 543.705911 148.006409 
L 535.929722 146.627839 
L 527.38167 145.346894 
L 519.414765 144.359209 
L 510.31503 143.442992 
L 501.10168 142.732819 
L 493.316427 142.309705 
L 484.530353 142.044167 
L 476.799355 142.020988 
L 470.831657 142.182307 
L 464.397462 142.602365 
L 459.955744 143.080596 
L 454.691278 143.887144 
L 450.24312 144.811067 
L 446.376848 145.846294 
L 443.581366 146.790142 
L 441.085308 147.906291 
L 440.095884 148.573945 
L 439.780411 148.945692 
L 439.711126 149.326433 
L 439.899038 149.615033 
L 440.153398 149.791375 
L 441.156159 150.15187 
L 442.61892 150.421974 
L 445.648825 150.683541 
L 449.731723 150.756414 
L 453.722699 150.645168 
L 459.719448 150.228166 
L 464.606492 149.698804 
L 470.260785 148.899566 
L 478.639671 147.442826 
L 491.444724 145.177066 
L 497.438174 144.359532 
L 502.155927 143.894809 
L 507.853838 143.576374 
L 512.398634 143.524564 
L 516.885944 143.64958 
L 522.664757 144.055197 
L 528.389234 144.704152 
L 534.498369 145.641199 
L 540.088523 146.709746 
L 543.715239 147.511042 
L 543.715239 147.511042 
" style="fill:none;stroke:#000000;stroke-linecap:square;stroke-opacity:0.7;stroke-width:1.2;"/>
   </g>
   <g id="line2d_19">
    <path clip-path="url(#pc6139a2295)" d="M 543.480774 109.2034 
L 532.318708 105.707778 
L 524.424349 103.457859 
L 515.711475 101.226944 
L 509.035997 99.702254 
L 501.228751 98.142506 
L 494.170209 96.977224 
L 488.245543 96.213623 
L 483.688537 95.776727 
L 477.781623 95.426536 
L 472.316273 95.356115 
L 468.274727 95.499427 
L 464.833006 95.785304 
L 460.678111 96.377594 
L 456.898961 97.199996 
L 453.560836 98.192309 
L 450.562085 99.328895 
L 447.074582 100.991256 
L 444.630049 102.421216 
L 442.635822 103.800092 
L 440.573966 105.528287 
L 439.524814 106.616487 
L 438.819501 107.514674 
L 438.205304 108.580468 
L 437.887675 109.758803 
L 437.945432 110.477489 
L 438.149464 111.002628 
L 438.40529 111.383452 
L 439.228359 112.112028 
L 439.924991 112.509219 
L 441.615814 113.151295 
L 444.347769 113.76258 
L 447.897905 114.205728 
L 451.699814 114.455427 
L 458.217979 114.596738 
L 466.712639 114.511962 
L 488.732297 113.967212 
L 500.896058 113.495108 
L 509.415048 112.958781 
L 518.576364 112.160505 
L 528.825086 111.031074 
L 540.513052 109.511536 
L 543.511016 109.092602 
L 543.511016 109.092602 
" style="fill:none;stroke:#000000;stroke-linecap:square;stroke-opacity:0.7;stroke-width:1.2;"/>
   </g>
   <g id="line2d_20">
    <path clip-path="url(#pc6139a2295)" d="M 543.537802 71.38524 
L 525.187995 71.919659 
L 510.518155 72.229385 
L 502.594702 72.171732 
L 496.932698 71.919791 
L 491.481823 71.465433 
L 484.940536 70.688908 
L 473.12563 69.227316 
L 467.24776 68.749389 
L 460.869474 68.49592 
L 455.16466 68.494407 
L 448.906806 68.734583 
L 444.339878 69.117173 
L 441.630167 69.551811 
L 440.698713 69.908765 
L 440.557602 70.155126 
L 440.759312 70.427782 
L 441.558272 70.820629 
L 443.470568 71.367461 
L 447.110457 72.05571 
L 452.1146 72.71697 
L 458.076986 73.290487 
L 467.211553 73.931383 
L 480.728541 74.632677 
L 490.683867 74.976757 
L 497.995244 75.047188 
L 505.225428 74.896065 
L 512.153298 74.518663 
L 519.516274 73.886832 
L 529.06662 72.804261 
L 542.246279 71.038987 
L 543.51589 70.862196 
L 543.51589 70.862196 
" style="fill:none;stroke:#000000;stroke-linecap:square;stroke-opacity:0.7;stroke-width:1.2;"/>
   </g>
   <g id="line2d_21">
    <path clip-path="url(#pc6139a2295)" d="M 674.760253 228.330483 
L 624.757579 222.547476 
L 614.193662 221.550739 
L 606.872558 221.095541 
L 600.754989 220.95703 
L 595.352445 221.07823 
L 590.025467 221.478199 
L 585.680665 222.058384 
L 583.353356 222.482489 
L 579.332281 223.447473 
L 575.756695 224.642666 
L 573.439038 225.70743 
L 571.892895 226.745329 
L 571.405968 227.350278 
L 571.353372 227.730777 
L 571.622672 228.080739 
L 572.244684 228.340505 
L 573.243346 228.515914 
L 575.538074 228.627736 
L 580.16374 228.524433 
L 597.702037 227.863995 
L 604.692417 227.895807 
L 612.453786 228.180319 
L 636.836897 229.307257 
L 645.769745 229.384911 
L 654.73197 229.223451 
L 664.22766 228.830169 
L 674.67622 228.214169 
L 674.67622 228.214169 
" style="fill:none;stroke:#000000;stroke-linecap:square;stroke-opacity:0.7;stroke-width:1.2;"/>
   </g>
   <g id="line2d_22">
    <path clip-path="url(#pc6139a2295)" d="M 674.726768 188.898871 
L 660.81011 185.447045 
L 648.570756 182.659702 
L 639.258977 180.737614 
L 629.350864 178.929491 
L 621.429366 177.718454 
L 615.211059 176.964253 
L 609.234863 176.455766 
L 604.445686 176.249076 
L 599.73535 176.26847 
L 595.712892 176.49569 
L 591.328364 176.999061 
L 587.257135 177.73333 
L 582.841535 178.852555 
L 579.198298 180.061607 
L 576.521773 181.143491 
L 573.475684 182.630021 
L 571.602295 183.734039 
L 569.598744 185.192874 
L 568.211643 186.596789 
L 567.56414 187.715483 
L 567.464396 188.061941 
L 567.470512 188.915434 
L 567.791225 189.594568 
L 568.300955 190.130322 
L 569.559234 190.894414 
L 570.583344 191.303544 
L 572.5639 191.862786 
L 575.192833 192.361265 
L 578.9805 192.829925 
L 584.637405 193.253113 
L 593.438058 193.641229 
L 607.330479 194.268106 
L 629.118727 195.486723 
L 634.215086 195.511291 
L 639.829284 195.324474 
L 644.828901 194.954425 
L 650.404564 194.313074 
L 656.132315 193.40962 
L 662.246996 192.180797 
L 668.360353 190.687598 
L 674.750304 188.876121 
L 674.750304 188.876121 
" style="fill:none;stroke:#000000;stroke-linecap:square;stroke-opacity:0.7;stroke-width:1.2;"/>
   </g>
   <g id="line2d_23">
    <path clip-path="url(#pc6139a2295)" d="M 675.490909 148.581489 
L 669.201702 146.477448 
L 663.24855 144.70331 
L 657.618488 143.235722 
L 650.812771 141.717079 
L 644.853854 140.597678 
L 637.867853 139.519294 
L 630.536932 138.649945 
L 622.768013 138.006581 
L 615.511035 137.626003 
L 607.758561 137.436048 
L 602.428504 137.485661 
L 597.314681 137.736458 
L 592.658539 138.185444 
L 588.915657 138.725626 
L 585.026409 139.479768 
L 580.773464 140.564263 
L 577.888912 141.48464 
L 575.072578 142.566385 
L 571.968115 144.05699 
L 570.033688 145.259034 
L 568.811038 146.270503 
L 568.062939 147.250015 
L 567.913775 148.028453 
L 568.042676 148.374051 
L 568.552637 148.856583 
L 568.91216 149.044126 
L 570.20445 149.425964 
L 572.05631 149.659256 
L 574.382225 149.730451 
L 577.753163 149.607692 
L 581.869915 149.242962 
L 587.42879 148.509443 
L 594.976953 147.218611 
L 615.672555 143.381244 
L 621.530251 142.690588 
L 626.102001 142.350682 
L 632.508726 142.167444 
L 637.332072 142.247866 
L 641.856205 142.485287 
L 647.961407 143.035614 
L 653.92824 143.800168 
L 659.715051 144.725389 
L 666.932111 146.097136 
L 674.695936 147.807859 
L 675.458691 147.98687 
L 675.458691 147.98687 
" style="fill:none;stroke:#000000;stroke-linecap:square;stroke-opacity:0.7;stroke-width:1.2;"/>
   </g>
   <g id="line2d_24">
    <path clip-path="url(#pc6139a2295)" d="M 673.684489 108.777451 
L 667.243295 107.0109 
L 659.78825 105.18375 
L 652.737857 103.696799 
L 645.628497 102.455753 
L 639.746863 101.635567 
L 633.862388 101.008531 
L 627.353019 100.539684 
L 620.608034 100.281204 
L 612.869624 100.216637 
L 605.789305 100.362155 
L 600.171443 100.659086 
L 594.451221 101.189082 
L 589.83543 101.829469 
L 585.290785 102.68617 
L 582.04902 103.462065 
L 578.590683 104.481931 
L 576.393695 105.269308 
L 573.56939 106.546347 
L 572.069823 107.471668 
L 571.513603 107.919461 
L 570.676225 108.956825 
L 570.494412 109.605135 
L 570.554583 110.131722 
L 570.889749 110.763703 
L 571.743416 111.549343 
L 572.985511 112.257317 
L 575.024148 113.047863 
L 577.19969 113.651981 
L 580.959168 114.381657 
L 584.544493 114.841838 
L 589.392088 115.213519 
L 594.358439 115.370036 
L 600.738664 115.316698 
L 608.167038 114.981829 
L 616.452607 114.355428 
L 625.814705 113.404356 
L 638.891582 111.788523 
L 650.905818 110.357459 
L 660.119802 109.482807 
L 669.251503 108.851767 
L 673.645917 108.635788 
L 673.645917 108.635788 
" style="fill:none;stroke:#000000;stroke-linecap:square;stroke-opacity:0.7;stroke-width:1.2;"/>
   </g>
   <g id="line2d_25">
    <path clip-path="url(#pc6139a2295)" d="M 674.601515 69.656917 
L 666.482842 67.905821 
L 658.408844 66.360061 
L 650.94269 65.136243 
L 643.849866 64.176393 
L 636.908453 63.44176 
L 629.925932 62.915735 
L 621.877384 62.561233 
L 612.731465 62.423126 
L 605.81105 62.500588 
L 599.496845 62.769398 
L 593.757606 63.245318 
L 589.400308 63.793205 
L 584.971988 64.552482 
L 581.325477 65.371599 
L 578.581327 66.146409 
L 576.274374 66.956665 
L 574.785604 67.604706 
L 573.187458 68.509843 
L 572.312355 69.209888 
L 571.811304 69.792336 
L 571.439758 70.597972 
L 571.389269 71.153653 
L 571.470637 71.622057 
L 571.732131 72.218944 
L 572.470963 73.140037 
L 573.147589 73.724141 
L 575.024764 74.904394 
L 577.197627 75.898678 
L 579.861979 76.832781 
L 583.085167 77.693679 
L 586.524356 78.376984 
L 590.42403 78.920334 
L 593.941282 79.23255 
L 598.132635 79.412586 
L 603.090142 79.388421 
L 607.956207 79.148995 
L 614.11323 78.596874 
L 621.092288 77.722616 
L 630.303665 76.316434 
L 663.709996 70.937843 
L 673.50283 69.684057 
L 674.57951 69.558789 
L 674.57951 69.558789 
" style="fill:none;stroke:#000000;stroke-linecap:square;stroke-opacity:0.7;stroke-width:1.2;"/>
   </g>
  </g>
 </g>
 <defs>
  <clipPath id="pc6139a2295">
   <rect height="262.08" width="694.08" x="12.96" y="12.96"/>
  </clipPath>
 </defs>
</svg>
