<?xml version="1.0" encoding="utf-8" standalone="no"?>
<!DOCTYPE svg PUBLIC "-//W3C//DTD SVG 1.1//EN"
  "http://www.w3.org/Graphics/SVG/1.1/DTD/svg11.dtd">
<!-- Created with matplotlib (https://matplotlib.org/) -->
<svg height="288pt" version="1.1" viewBox="0 0 720 288" width="720pt" xmlns="http://www.w3.org/2000/svg" xmlns:xlink="http://www.w3.org/1999/xlink">
 <metadata>
  <rdf:RDF xmlns:cc="http://creativecommons.org/ns#" xmlns:dc="http://purl.org/dc/elements/1.1/" xmlns:rdf="http://www.w3.org/1999/02/22-rdf-syntax-ns#">
   <cc:Work>
    <dc:type rdf:resource="http://purl.org/dc/dcmitype/StillImage"/>
    <dc:date>2021-04-26T15:22:15.911063</dc:date>
    <dc:format>image/svg+xml</dc:format>
    <dc:creator>
     <cc:Agent>
      <dc:title>Matplotlib v3.3.4, https://matplotlib.org/</dc:title>
     </cc:Agent>
    </dc:creator>
   </cc:Work>
  </rdf:RDF>
 </metadata>
 <defs>
  <style type="text/css">*{stroke-linecap:butt;stroke-linejoin:round;}</style>
 </defs>
 <g id="figure_1">
  <g id="patch_1">
   <path d="M 0 288 
L 720 288 
L 720 0 
L 0 0 
z
" style="fill:#ffffff;"/>
  </g>
  <g id="axes_1">
   <g id="line2d_1">
    <path clip-path="url(#p73d479280b)" d="M 150.484583 223.428485 
L 133.911064 220.579481 
L 122.65073 218.854911 
L 113.534139 217.651666 
L 105.812037 216.841622 
L 99.303617 216.385985 
L 93.641085 216.202797 
L 87.495734 216.233324 
L 81.433163 216.478816 
L 75.240852 216.927972 
L 68.26609 217.650616 
L 60.872126 218.652139 
L 54.21414 219.773573 
L 49.249284 220.794839 
L 45.960157 221.665996 
L 44.698863 222.202506 
L 44.509091 222.451988 
L 44.629098 222.619809 
L 45.003067 222.772256 
L 46.038194 222.961715 
L 49.327654 223.198011 
L 55.873344 223.324478 
L 67.354703 223.258155 
L 125.998449 222.576795 
L 137.417396 222.80325 
L 150.498501 223.294344 
L 150.498501 223.294344 
" style="fill:none;stroke:#000000;stroke-linecap:square;stroke-opacity:0.7;stroke-width:1.2;"/>
   </g>
   <g id="line2d_2">
    <path clip-path="url(#p73d479280b)" d="M 145.380603 183.82232 
L 110.068305 176.393698 
L 101.530115 174.880576 
L 95.584935 174.052911 
L 90.175787 173.535173 
L 84.594567 173.254836 
L 79.977824 173.2116 
L 74.953016 173.357968 
L 70.442905 173.673555 
L 65.899943 174.19541 
L 62.010138 174.841405 
L 58.206057 175.702614 
L 54.561354 176.816968 
L 52.606156 177.574641 
L 49.645833 179.033186 
L 48.347287 179.845671 
L 46.425416 181.392323 
L 45.770137 182.093559 
L 44.833892 183.570862 
L 44.598379 184.452643 
L 44.609927 185.064582 
L 44.950339 185.939353 
L 45.579023 186.616611 
L 46.59651 187.238507 
L 48.599036 187.918805 
L 50.936377 188.345345 
L 53.706627 188.610843 
L 57.634853 188.752489 
L 62.30217 188.724682 
L 70.093883 188.437403 
L 85.359054 187.561235 
L 134.367613 184.494137 
L 145.327932 183.680025 
L 145.327932 183.680025 
" style="fill:none;stroke:#000000;stroke-linecap:square;stroke-opacity:0.7;stroke-width:1.2;"/>
   </g>
   <g id="line2d_3">
    <path clip-path="url(#p73d479280b)" d="M 150.380111 144.900013 
L 140.792245 142.708597 
L 121.272864 138.224222 
L 111.931153 136.324468 
L 105.130629 135.150549 
L 99.120109 134.308808 
L 92.579434 133.619133 
L 85.924931 133.154477 
L 80.964406 132.976469 
L 76.193992 132.985058 
L 72.097009 133.190998 
L 67.80819 133.674787 
L 63.9924 134.389208 
L 60.579742 135.282974 
L 57.479365 136.319593 
L 54.266217 137.645204 
L 52.557451 138.475107 
L 49.989895 139.956974 
L 48.577053 140.983349 
L 47.507963 142.024118 
L 47.062311 142.711062 
L 46.922988 143.133003 
L 46.977369 143.795666 
L 47.402451 144.380446 
L 47.788023 144.668293 
L 49.375847 145.354031 
L 51.095024 145.791951 
L 54.317668 146.318826 
L 58.179168 146.726756 
L 64.914448 147.173301 
L 72.048348 147.448674 
L 82.487104 147.615761 
L 94.441358 147.544452 
L 111.988599 147.172834 
L 125.678977 146.708115 
L 135.045003 146.192565 
L 144.084402 145.453428 
L 150.385456 144.780983 
L 150.385456 144.780983 
" style="fill:none;stroke:#000000;stroke-linecap:square;stroke-opacity:0.7;stroke-width:1.2;"/>
   </g>
   <g id="line2d_4">
    <path clip-path="url(#p73d479280b)" d="M 150.491836 104.309111 
L 128.397572 101.293543 
L 117.428097 100.102987 
L 107.588838 99.2744 
L 98.547156 98.76348 
L 91.35942 98.569073 
L 84.303633 98.592068 
L 77.625283 98.84713 
L 71.462816 99.328645 
L 66.045156 99.97396 
L 60.580097 100.852604 
L 55.523823 101.89481 
L 51.723444 102.865865 
L 48.909658 103.756547 
L 47.119588 104.517988 
L 46.594494 104.905727 
L 46.605516 105.109259 
L 46.851067 105.195555 
L 47.682187 105.212136 
L 49.88858 104.931908 
L 53.517302 104.204348 
L 60.177762 102.570781 
L 80.172247 97.396935 
L 85.794294 96.313024 
L 90.335516 95.666278 
L 95.421444 95.186491 
L 100.181263 94.960983 
L 105.47966 94.957133 
L 110.32719 95.182017 
L 115.67469 95.684526 
L 120.515968 96.364032 
L 125.345117 97.237787 
L 131.573436 98.608954 
L 139.230251 100.575308 
L 148.507269 103.228551 
L 150.455631 103.813356 
L 150.455631 103.813356 
" style="fill:none;stroke:#000000;stroke-linecap:square;stroke-opacity:0.7;stroke-width:1.2;"/>
   </g>
   <g id="line2d_5">
    <path clip-path="url(#p73d479280b)" d="M 150.438984 66.286212 
L 139.678696 65.295077 
L 125.446303 63.758119 
L 106.250506 61.645411 
L 99.121943 61.079925 
L 91.757851 60.717346 
L 83.777668 60.565552 
L 76.163026 60.654335 
L 70.00044 60.926936 
L 63.41066 61.456503 
L 58.363411 62.05606 
L 53.113932 62.917264 
L 49.762654 63.695879 
L 48.153955 64.256679 
L 47.48975 64.701651 
L 47.479877 64.996269 
L 47.727624 65.178253 
L 48.469765 65.408299 
L 50.15611 65.648447 
L 53.930372 65.874755 
L 62.147213 66.038982 
L 79.833046 66.344907 
L 110.225034 67.14033 
L 121.570451 67.106396 
L 133.416814 66.841813 
L 146.556773 66.324304 
L 150.423244 66.138492 
L 150.423244 66.138492 
" style="fill:none;stroke:#000000;stroke-linecap:square;stroke-opacity:0.7;stroke-width:1.2;"/>
   </g>
   <g id="line2d_6">
    <path clip-path="url(#p73d479280b)" d="M 280.983466 223.442789 
L 271.845803 222.547874 
L 248.400209 220.245347 
L 236.183211 219.279534 
L 223.754061 218.508695 
L 215.241827 218.160886 
L 208.879776 218.101116 
L 202.763839 218.288772 
L 196.969409 218.730337 
L 192.180205 219.304006 
L 187.28918 220.103132 
L 183.393717 220.927443 
L 180.467642 221.708577 
L 178.252651 222.480442 
L 177.231683 222.97485 
L 176.556962 223.558563 
L 176.531398 223.876265 
L 176.732821 224.106651 
L 177.292536 224.371437 
L 178.155688 224.591524 
L 180.08373 224.863428 
L 184.483611 225.148832 
L 192.058738 225.321591 
L 204.985937 225.343455 
L 219.029787 225.167729 
L 237.230509 224.684896 
L 281.023357 223.354504 
L 281.023357 223.354504 
" style="fill:none;stroke:#000000;stroke-linecap:square;stroke-opacity:0.7;stroke-width:1.2;"/>
   </g>
   <g id="line2d_7">
    <path clip-path="url(#p73d479280b)" d="M 281.849152 184.931132 
L 274.99301 184.435393 
L 266.025 183.549805 
L 256.564354 182.385368 
L 242.821624 180.427679 
L 230.202982 178.671852 
L 224.103163 177.990103 
L 217.116663 177.414822 
L 210.839766 177.113711 
L 204.927984 177.051202 
L 200.038062 177.188675 
L 195.196608 177.517181 
L 190.018466 178.114482 
L 185.786262 178.84157 
L 182.864125 179.52819 
L 180.152262 180.427845 
L 178.976217 181.031424 
L 178.367655 181.596982 
L 178.271487 182.088706 
L 178.494768 182.456992 
L 179.278691 182.972147 
L 180.395222 183.402997 
L 182.497898 183.955846 
L 186.500014 184.677827 
L 191.554845 185.329259 
L 197.960127 185.939797 
L 205.561105 186.467703 
L 215.176349 186.917212 
L 226.637045 187.20602 
L 237.559694 187.2683 
L 248.14782 187.112593 
L 257.406977 186.752837 
L 266.42053 186.16114 
L 274.459601 185.419346 
L 281.851098 184.583616 
L 281.851098 184.583616 
" style="fill:none;stroke:#000000;stroke-linecap:square;stroke-opacity:0.7;stroke-width:1.2;"/>
   </g>
   <g id="line2d_8">
    <path clip-path="url(#p73d479280b)" d="M 281.551471 144.729598 
L 265.122008 142.152911 
L 246.962218 139.380126 
L 237.800167 138.179552 
L 230.74447 137.441965 
L 224.119047 136.944863 
L 217.489431 136.665053 
L 211.710196 136.631151 
L 206.678024 136.794576 
L 202.059526 137.127059 
L 197.201506 137.682563 
L 192.030145 138.519787 
L 187.480047 139.48289 
L 183.663993 140.481614 
L 179.882889 141.707603 
L 177.48952 142.693013 
L 175.627403 143.74557 
L 174.901017 144.430651 
L 174.697096 144.973267 
L 174.768821 145.269088 
L 175.076519 145.623351 
L 175.762047 146.004381 
L 177.202929 146.442986 
L 180.25915 146.947035 
L 184.063303 147.305899 
L 190.942249 147.673138 
L 199.609216 147.895962 
L 209.491559 147.928472 
L 218.265981 147.741148 
L 227.743882 147.308619 
L 269.426842 145.042681 
L 281.559269 144.664984 
L 281.559269 144.664984 
" style="fill:none;stroke:#000000;stroke-linecap:square;stroke-opacity:0.7;stroke-width:1.2;"/>
   </g>
   <g id="line2d_9">
    <path clip-path="url(#p73d479280b)" d="M 281.753217 105.624928 
L 246.453386 98.805965 
L 237.468122 97.389213 
L 230.637608 96.496165 
L 221.927938 95.606713 
L 215.006283 95.105687 
L 209.347772 94.86934 
L 203.945461 94.8401 
L 198.975238 95.030381 
L 194.767619 95.390209 
L 190.788491 95.931342 
L 186.659936 96.746459 
L 183.32832 97.653202 
L 180.812501 98.557598 
L 178.976928 99.42378 
L 177.634348 100.296141 
L 176.961797 100.949018 
L 176.637181 101.482998 
L 176.535602 102.032318 
L 176.62397 102.427977 
L 177.086882 103.062625 
L 178.143152 103.765608 
L 179.612325 104.36958 
L 181.593292 104.937221 
L 185.292228 105.664607 
L 190.205785 106.301148 
L 195.078126 106.721801 
L 202.651451 107.108701 
L 210.520426 107.269045 
L 220.418295 107.235646 
L 235.042538 106.929152 
L 267.008512 105.955591 
L 281.736526 105.49837 
L 281.736526 105.49837 
" style="fill:none;stroke:#000000;stroke-linecap:square;stroke-opacity:0.7;stroke-width:1.2;"/>
   </g>
   <g id="line2d_10">
    <path clip-path="url(#p73d479280b)" d="M 281.146904 64.853342 
L 267.928721 61.677376 
L 258.462492 59.629745 
L 250.125021 58.035395 
L 242.266048 56.757148 
L 235.302831 55.865859 
L 228.982204 55.323757 
L 224.823804 55.14204 
L 219.401269 55.136987 
L 213.657387 55.39493 
L 206.762697 55.97469 
L 200.192705 56.754624 
L 195.879483 57.409474 
L 190.953811 58.35795 
L 186.851902 59.401963 
L 184.268589 60.258857 
L 181.662218 61.418009 
L 179.976103 62.505522 
L 179.216154 63.204505 
L 178.503012 64.202247 
L 178.194922 65.045257 
L 178.124102 65.956079 
L 178.397397 67.162261 
L 178.875328 68.109368 
L 179.812588 69.336031 
L 181.194627 70.644018 
L 182.155847 71.385687 
L 185.047569 73.173137 
L 187.286961 74.265765 
L 190.652994 75.5857 
L 194.299648 76.673891 
L 197.104956 77.305059 
L 200.079005 77.796698 
L 203.721531 78.167009 
L 207.34694 78.299903 
L 211.20168 78.206081 
L 214.692744 77.935307 
L 219.394638 77.335374 
L 224.305885 76.482293 
L 230.681022 75.141297 
L 245.169046 71.740742 
L 256.152189 69.303845 
L 266.548364 67.239003 
L 278.374957 65.136949 
L 281.135251 64.680478 
L 281.135251 64.680478 
" style="fill:none;stroke:#000000;stroke-linecap:square;stroke-opacity:0.7;stroke-width:1.2;"/>
   </g>
   <g id="line2d_11">
    <path clip-path="url(#p73d479280b)" d="M 412.710621 223.317728 
L 391.538681 215.696427 
L 381.377753 212.253518 
L 373.382766 209.772172 
L 367.664743 208.210468 
L 363.076273 207.136523 
L 358.091656 206.182317 
L 353.110563 205.470073 
L 348.32653 205.036045 
L 344.667368 204.892402 
L 340.935181 204.941839 
L 337.549535 205.185171 
L 333.723673 205.722782 
L 330.060595 206.533483 
L 327.033742 207.44479 
L 323.794686 208.682611 
L 320.845562 210.066163 
L 318.444647 211.393513 
L 316.176009 212.840399 
L 314.196392 214.291526 
L 312.293792 215.910521 
L 310.764381 217.453078 
L 309.144293 219.53145 
L 308.109088 221.4951 
L 307.68333 222.943481 
L 307.566298 224.207535 
L 307.740556 225.640498 
L 308.284235 227.122037 
L 309.241696 228.63523 
L 310.769442 230.280773 
L 312.582768 231.743939 
L 314.70621 233.112606 
L 317.050714 234.35747 
L 320.427653 235.816384 
L 324.08462 237.064239 
L 327.577962 237.993113 
L 331.166517 238.71028 
L 334.807951 239.210085 
L 338.326033 239.486537 
L 342.025392 239.570294 
L 346.762662 239.39216 
L 351.624136 238.917862 
L 357.027855 238.112521 
L 363.04388 236.967674 
L 371.085185 235.186109 
L 381.140422 232.720107 
L 390.646466 230.161146 
L 399.032609 227.675451 
L 407.646107 224.889606 
L 412.713582 223.16702 
L 412.713582 223.16702 
" style="fill:none;stroke:#000000;stroke-linecap:square;stroke-opacity:0.7;stroke-width:1.2;"/>
   </g>
   <g id="line2d_12">
    <path clip-path="url(#p73d479280b)" d="M 412.905658 183.620811 
L 390.329635 176.719749 
L 383.210654 174.873293 
L 376.582311 173.383581 
L 370.928438 172.320167 
L 365.436275 171.498136 
L 359.637782 170.876148 
L 354.526508 170.541045 
L 348.762969 170.402496 
L 343.654029 170.507773 
L 339.442758 170.785701 
L 334.927816 171.320389 
L 331.529912 171.915747 
L 328.299359 172.657724 
L 325.044978 173.596395 
L 321.949271 174.684522 
L 318.868014 175.980376 
L 316.221149 177.296798 
L 314.258134 178.432095 
L 311.774358 180.178458 
L 310.525045 181.320197 
L 309.626874 182.484351 
L 309.27844 183.392447 
L 309.297456 184.049134 
L 309.525473 184.549496 
L 310.090626 185.10881 
L 311.060493 185.631667 
L 312.651054 186.132946 
L 315.340387 186.614811 
L 318.612931 186.941009 
L 323.562909 187.189224 
L 330.90031 187.297742 
L 341.216473 187.194841 
L 354.230852 186.826905 
L 371.634741 186.082968 
L 390.524453 185.068588 
L 405.410628 184.064877 
L 412.897691 183.469202 
L 412.897691 183.469202 
" style="fill:none;stroke:#000000;stroke-linecap:square;stroke-opacity:0.7;stroke-width:1.2;"/>
   </g>
   <g id="line2d_13">
    <path clip-path="url(#p73d479280b)" d="M 413.07628 145.278553 
L 384.609485 137.857891 
L 375.564215 135.803782 
L 367.314662 134.15726 
L 360.379267 132.994977 
L 353.971113 132.143399 
L 348.833422 131.647846 
L 343.925458 131.373715 
L 339.102533 131.354793 
L 335.624943 131.538656 
L 332.110459 131.929411 
L 328.99096 132.474958 
L 326.130198 133.158427 
L 322.92948 134.150965 
L 319.928291 135.32196 
L 317.060449 136.686958 
L 314.12803 138.384591 
L 311.820563 140.016988 
L 310.552447 141.093117 
L 309.41254 142.276718 
L 308.633817 143.44723 
L 308.440659 144.108677 
L 308.474525 144.497601 
L 308.813816 144.981291 
L 309.427966 145.288112 
L 310.524889 145.498708 
L 312.606441 145.561147 
L 315.785095 145.403086 
L 330.916593 144.39655 
L 337.112881 144.284308 
L 344.619357 144.412936 
L 380.571591 145.477949 
L 393.575512 145.431146 
L 413.05156 145.120535 
L 413.05156 145.120535 
" style="fill:none;stroke:#000000;stroke-linecap:square;stroke-opacity:0.7;stroke-width:1.2;"/>
   </g>
   <g id="line2d_14">
    <path clip-path="url(#p73d479280b)" d="M 412.557629 104.521706 
L 398.322726 101.336083 
L 388.358073 99.370836 
L 379.741127 97.885569 
L 370.858125 96.598458 
L 363.753018 95.793577 
L 357.283344 95.28595 
L 350.781206 95.037975 
L 344.965715 95.046574 
L 339.103203 95.25594 
L 332.989966 95.692226 
L 328.985252 96.124978 
L 324.357245 96.816218 
L 320.079617 97.699346 
L 316.362019 98.738313 
L 313.526961 99.790254 
L 311.029044 101.047389 
L 310.309735 101.513879 
L 308.873894 102.768227 
L 308.191278 103.82447 
L 307.960275 104.850236 
L 308.098377 105.772872 
L 308.340525 106.340896 
L 309.001706 107.285904 
L 310.616371 108.722821 
L 312.771565 110.049882 
L 315.6601 111.39331 
L 319.336708 112.713931 
L 322.611293 113.6455 
L 326.028981 114.425451 
L 330.535124 115.192139 
L 334.189808 115.609543 
L 339.109937 115.891148 
L 343.652326 115.873633 
L 346.906649 115.706697 
L 352.605827 115.14153 
L 359.248041 114.142189 
L 367.251208 112.645042 
L 396.011258 107.009231 
L 408.203003 104.944475 
L 412.561409 104.270753 
L 412.561409 104.270753 
" style="fill:none;stroke:#000000;stroke-linecap:square;stroke-opacity:0.7;stroke-width:1.2;"/>
   </g>
   <g id="line2d_15">
    <path clip-path="url(#p73d479280b)" d="M 412.092261 66.498885 
L 402.309715 65.230588 
L 390.091497 63.439332 
L 375.98215 61.137573 
L 362.082203 58.902502 
L 354.320529 57.864855 
L 346.795622 57.108866 
L 340.751926 56.761892 
L 335.67633 56.720015 
L 330.905949 56.944032 
L 326.928091 57.360353 
L 323.338077 57.939446 
L 320.390461 58.577923 
L 316.800201 59.592299 
L 314.131499 60.567462 
L 311.533366 61.814039 
L 310.819497 62.249924 
L 309.456657 63.385596 
L 309.096873 63.930568 
L 308.981095 64.366528 
L 309.067958 64.832491 
L 309.37421 65.242477 
L 310.040811 65.691813 
L 311.410237 66.206136 
L 313.055568 66.589793 
L 316.451133 67.088221 
L 320.931183 67.497932 
L 327.961624 67.911987 
L 340.078307 68.365479 
L 356.680355 68.757081 
L 369.490779 68.871978 
L 379.079102 68.753759 
L 388.231447 68.399228 
L 397.466566 67.78715 
L 407.92468 66.835606 
L 412.124492 66.401253 
L 412.124492 66.401253 
" style="fill:none;stroke:#000000;stroke-linecap:square;stroke-opacity:0.7;stroke-width:1.2;"/>
   </g>
   <g id="line2d_16">
    <path clip-path="url(#p73d479280b)" d="M 544.495992 223.597823 
L 535.026991 219.172851 
L 528.818374 216.494621 
L 522.329274 213.94985 
L 515.950642 211.711858 
L 509.957463 209.85417 
L 504.472228 208.376496 
L 498.438602 207.022771 
L 493.791985 206.193185 
L 488.983394 205.542272 
L 484.570231 205.137595 
L 480.045274 204.925778 
L 475.185349 204.958373 
L 471.803766 205.1709 
L 468.579581 205.547846 
L 465.304672 206.13351 
L 461.870062 206.997326 
L 458.364392 208.170337 
L 454.833136 209.673793 
L 451.367831 211.490043 
L 448.821542 213.066765 
L 446.599726 214.644648 
L 444.659052 216.226271 
L 442.522302 218.32448 
L 441.728557 219.286233 
L 441.004544 220.370209 
L 440.464822 221.597429 
L 440.333115 222.351599 
L 440.404196 223.062633 
L 440.662223 223.654696 
L 441.277659 224.331386 
L 442.408116 224.998992 
L 444.179348 225.593426 
L 446.750076 226.091265 
L 450.201603 226.470223 
L 455.78599 226.774525 
L 464.108585 226.931604 
L 479.822544 226.935096 
L 493.489529 226.762527 
L 505.620111 226.399368 
L 517.113031 225.844428 
L 527.582473 225.123028 
L 538.016518 224.162934 
L 544.490378 223.453279 
L 544.490378 223.453279 
" style="fill:none;stroke:#000000;stroke-linecap:square;stroke-opacity:0.7;stroke-width:1.2;"/>
   </g>
   <g id="line2d_17">
    <path clip-path="url(#p73d479280b)" d="M 543.838955 183.931133 
L 530.542172 178.723949 
L 521.19936 175.290139 
L 513.526029 172.698924 
L 506.375298 170.534758 
L 500.536395 168.994449 
L 494.711349 167.691614 
L 488.900856 166.627703 
L 483.779255 165.877941 
L 478.122033 165.265614 
L 473.026483 164.956085 
L 468.676623 164.947056 
L 465.422118 165.154581 
L 462.139159 165.6085 
L 458.878938 166.357281 
L 456.315254 167.184283 
L 453.435905 168.382679 
L 450.342212 170.005318 
L 447.570948 171.784652 
L 445.385171 173.463464 
L 443.752973 174.959352 
L 442.112133 176.899594 
L 441.407115 178.130907 
L 441.048725 179.306039 
L 441.017872 179.997882 
L 441.13959 180.649965 
L 441.602189 181.545397 
L 442.485966 182.421705 
L 443.905659 183.268197 
L 445.572099 183.927109 
L 447.98893 184.580664 
L 449.942785 184.957442 
L 454.515287 185.527905 
L 459.094721 185.825144 
L 464.96143 185.959844 
L 472.997948 185.87614 
L 489.859525 185.363676 
L 543.807732 183.759425 
L 543.807732 183.759425 
" style="fill:none;stroke:#000000;stroke-linecap:square;stroke-opacity:0.7;stroke-width:1.2;"/>
   </g>
   <g id="line2d_18">
    <path clip-path="url(#p73d479280b)" d="M 544.026268 144.28648 
L 528.419658 141.7569 
L 517.3651 140.154777 
L 508.191333 139.046132 
L 501.954572 138.503315 
L 496.533761 138.268994 
L 491.281973 138.334337 
L 486.586249 138.652256 
L 481.602969 139.206742 
L 473.709827 140.350307 
L 450.478641 144.089426 
L 444.406828 145.252994 
L 441.812601 145.94149 
L 440.192427 146.57947 
L 439.399197 147.099397 
L 439.075953 147.515572 
L 439.035246 148.039621 
L 439.090848 148.17908 
L 439.587043 148.734483 
L 440.687994 149.358744 
L 442.159564 149.898653 
L 445.159582 150.634475 
L 449.111178 151.259485 
L 454.125109 151.744555 
L 459.59411 152.012323 
L 466.434868 152.057412 
L 472.327843 151.880615 
L 479.156057 151.459756 
L 486.830577 150.75366 
L 495.82598 149.690189 
L 511.174013 147.589207 
L 521.695531 146.237454 
L 531.940003 145.164636 
L 541.651629 144.391567 
L 544.044424 144.231953 
L 544.044424 144.231953 
" style="fill:none;stroke:#000000;stroke-linecap:square;stroke-opacity:0.7;stroke-width:1.2;"/>
   </g>
   <g id="line2d_19">
    <path clip-path="url(#p73d479280b)" d="M 544.417049 105.918492 
L 534.029354 104.476324 
L 514.92103 101.857829 
L 504.148438 100.59439 
L 496.324981 99.864793 
L 489.067905 99.386984 
L 481.351779 99.114824 
L 474.084217 99.105416 
L 467.82516 99.33146 
L 461.803592 99.78787 
L 456.131533 100.454744 
L 450.942073 101.293898 
L 447.451917 102.011307 
L 443.781863 102.960754 
L 441.117036 103.884387 
L 439.757358 104.554902 
L 438.919715 105.286214 
L 438.810045 105.677247 
L 438.96859 106.037257 
L 439.611581 106.491738 
L 440.897104 106.945889 
L 443.202646 107.424162 
L 447.232543 107.942556 
L 454.090461 108.517915 
L 466.134303 109.254165 
L 476.459026 109.71798 
L 484.901444 109.865115 
L 493.098968 109.762686 
L 502.08586 109.410182 
L 512.085053 108.78004 
L 524.440017 107.742676 
L 540.172671 106.179006 
L 544.386307 105.733509 
L 544.386307 105.733509 
" style="fill:none;stroke:#000000;stroke-linecap:square;stroke-opacity:0.7;stroke-width:1.2;"/>
   </g>
   <g id="line2d_20">
    <path clip-path="url(#p73d479280b)" d="M 544.35765 66.610487 
L 535.358742 64.54177 
L 520.313947 61.117437 
L 511.583287 59.358912 
L 504.230955 58.094245 
L 497.271412 57.139745 
L 490.476593 56.482438 
L 483.647575 56.11223 
L 476.910202 56.028157 
L 471.21707 56.192974 
L 466.59374 56.524057 
L 462.279583 57.034834 
L 458.159236 57.74421 
L 453.982454 58.725884 
L 450.845249 59.669984 
L 447.508836 60.922289 
L 445.450787 61.874551 
L 443.517169 62.987068 
L 442.454437 63.791527 
L 441.748971 64.576147 
L 441.508133 65.145147 
L 441.542442 65.595452 
L 441.767018 65.952831 
L 442.218689 66.297516 
L 443.347689 66.744766 
L 444.75925 67.053258 
L 447.763712 67.396946 
L 451.815376 67.593805 
L 458.550102 67.663351 
L 510.931025 67.375602 
L 525.828566 67.070404 
L 541.733182 66.514995 
L 544.325088 66.408556 
L 544.325088 66.408556 
" style="fill:none;stroke:#000000;stroke-linecap:square;stroke-opacity:0.7;stroke-width:1.2;"/>
   </g>
   <g id="line2d_21">
    <path clip-path="url(#p73d479280b)" d="M 675.200864 222.950138 
L 652.510563 219.758276 
L 642.793618 218.634666 
L 634.933686 217.926924 
L 627.523809 217.481088 
L 620.270215 217.287726 
L 613.04134 217.336626 
L 606.216215 217.604992 
L 599.432117 218.111931 
L 593.319738 218.79545 
L 586.546503 219.809398 
L 580.465262 220.956987 
L 575.917455 221.996543 
L 572.422644 222.994335 
L 570.881276 223.648483 
L 570.632883 223.923712 
L 570.802644 224.095636 
L 571.501211 224.214832 
L 573.367052 224.198568 
L 576.331477 223.946295 
L 582.780849 223.091849 
L 606.262464 219.624432 
L 611.771046 219.218881 
L 616.234636 219.085048 
L 622.756198 219.131545 
L 631.360033 219.457471 
L 642.149285 220.100173 
L 656.248381 221.182714 
L 675.178615 222.814504 
L 675.178615 222.814504 
" style="fill:none;stroke:#000000;stroke-linecap:square;stroke-opacity:0.7;stroke-width:1.2;"/>
   </g>
   <g id="line2d_22">
    <path clip-path="url(#p73d479280b)" d="M 674.924024 182.645923 
L 661.713589 179.178076 
L 652.390327 176.974364 
L 645.051964 175.452596 
L 637.956289 174.203393 
L 631.923319 173.351221 
L 626.39313 172.774557 
L 621.192045 172.436521 
L 616.433722 172.315549 
L 612.587591 172.357459 
L 607.006105 172.656696 
L 602.828317 173.079487 
L 598.61611 173.690852 
L 594.745078 174.42609 
L 589.557841 175.68768 
L 585.035882 177.065707 
L 581.284301 178.429589 
L 577.595599 180.005948 
L 574.614088 181.514026 
L 572.356385 182.895847 
L 571.058415 183.908193 
L 570.354774 184.702694 
L 570.146619 185.224461 
L 570.178413 185.500686 
L 570.362081 185.755771 
L 570.857779 186.014502 
L 571.853313 186.19569 
L 573.832904 186.20264 
L 577.020614 185.879576 
L 581.107927 185.211877 
L 587.505346 183.887654 
L 595.75934 181.915158 
L 615.067112 177.147196 
L 621.620172 175.815761 
L 626.618902 175.018036 
L 631.395937 174.496097 
L 634.932134 174.297205 
L 638.488909 174.282689 
L 642.171152 174.476948 
L 645.882596 174.885272 
L 650.313925 175.622048 
L 654.789794 176.587027 
L 660.962757 178.173501 
L 668.158435 180.251842 
L 674.881423 182.294389 
L 674.881423 182.294389 
" style="fill:none;stroke:#000000;stroke-linecap:square;stroke-opacity:0.7;stroke-width:1.2;"/>
   </g>
   <g id="line2d_23">
    <path clip-path="url(#p73d479280b)" d="M 675.490909 143.704984 
L 665.238483 140.411441 
L 657.866619 138.303716 
L 651.255706 136.659061 
L 644.595277 135.246957 
L 638.907589 134.240442 
L 632.800339 133.374593 
L 627.092649 132.780376 
L 620.920803 132.384705 
L 614.722309 132.249445 
L 608.827788 132.36861 
L 603.120931 132.739471 
L 598.076396 133.319265 
L 594.10252 133.976037 
L 590.269555 134.802876 
L 585.9248 136.001891 
L 582.710676 137.096058 
L 579.680207 138.326255 
L 577.591848 139.321721 
L 574.889075 140.897631 
L 573.517154 141.946846 
L 572.531042 143.029218 
L 572.187441 143.738245 
L 572.135688 144.251521 
L 572.373949 144.877148 
L 572.799937 145.305407 
L 573.764153 145.829789 
L 575.057363 146.234807 
L 576.847169 146.572231 
L 579.989391 146.877312 
L 584.269023 147.002448 
L 589.668277 146.906454 
L 596.120719 146.567147 
L 603.41377 145.977395 
L 612.495771 145.008245 
L 634.393769 142.499544 
L 640.718899 142.051703 
L 646.624115 141.842522 
L 652.949796 141.854387 
L 659.094728 142.081122 
L 666.609427 142.601718 
L 674.515389 143.383091 
L 675.442231 143.486561 
L 675.442231 143.486561 
" style="fill:none;stroke:#000000;stroke-linecap:square;stroke-opacity:0.7;stroke-width:1.2;"/>
   </g>
   <g id="line2d_24">
    <path clip-path="url(#p73d479280b)" d="M 675.041475 105.402342 
L 663.996424 103.568846 
L 641.340995 99.803495 
L 632.51224 98.578765 
L 625.777342 97.847236 
L 618.646504 97.311364 
L 611.773847 97.034553 
L 605.884282 96.993339 
L 599.827375 97.171356 
L 594.526845 97.547243 
L 589.776434 98.088558 
L 584.702444 98.914805 
L 580.295605 99.8854 
L 576.5136 100.976153 
L 574.737921 101.612579 
L 572.56382 102.584111 
L 571.197783 103.420612 
L 570.329224 104.244557 
L 570.01392 104.86736 
L 569.977136 105.20682 
L 570.095048 105.671807 
L 570.597876 106.302632 
L 571.16756 106.716294 
L 572.939069 107.530379 
L 575.485751 108.277277 
L 579.220009 109.030861 
L 584.129134 109.732178 
L 590.967318 110.421163 
L 598.607323 110.945095 
L 605.903492 111.243809 
L 612.705549 111.329492 
L 620.085546 111.201036 
L 628.841056 110.785002 
L 637.659666 110.12898 
L 647.005427 109.208508 
L 657.533234 107.926865 
L 668.08498 106.423725 
L 675.039911 105.34256 
L 675.039911 105.34256 
" style="fill:none;stroke:#000000;stroke-linecap:square;stroke-opacity:0.7;stroke-width:1.2;"/>
   </g>
   <g id="line2d_25">
    <path clip-path="url(#p73d479280b)" d="M 674.835962 65.340871 
L 659.648846 59.529423 
L 650.976625 56.446227 
L 644.201668 54.234609 
L 637.412691 52.25578 
L 632.12442 50.935388 
L 628.093817 50.093588 
L 624.03552 49.41194 
L 619.015915 48.814772 
L 613.888316 48.488122 
L 608.961138 48.444857 
L 604.856924 48.622869 
L 600.686977 49.02866 
L 597.039659 49.601486 
L 593.409352 50.413096 
L 590.138781 51.389333 
L 587.284121 52.463343 
L 584.745488 53.617269 
L 581.688706 55.291025 
L 579.098127 56.993399 
L 577.681953 58.055826 
L 576.195742 59.29451 
L 574.710853 60.697355 
L 573.070424 62.557409 
L 571.87093 64.445087 
L 571.560696 65.267596 
L 571.470237 66.209874 
L 571.715089 66.897416 
L 572.272778 67.431135 
L 573.252145 67.853543 
L 575.148944 68.178225 
L 576.714349 68.265538 
L 580.111741 68.239262 
L 586.885308 67.881914 
L 610.37106 66.445326 
L 622.161191 66.002854 
L 638.223822 65.648521 
L 669.225228 65.264035 
L 674.824973 65.200996 
L 674.824973 65.200996 
" style="fill:none;stroke:#000000;stroke-linecap:square;stroke-opacity:0.7;stroke-width:1.2;"/>
   </g>
  </g>
 </g>
 <defs>
  <clipPath id="p73d479280b">
   <rect height="262.08" width="694.08" x="12.96" y="12.96"/>
  </clipPath>
 </defs>
</svg>
