<svg viewBox="0 0 1496 400" xmlns="http://www.w3.org/2000/svg"><g><g><g><g><g><line x1="61.953125" y1="378" x2="56.953125" y2="378" style="visibility: inherit;" fill="rgb(0, 0, 0)" stroke="rgb(204, 204, 204)" stroke-width="1px"></line><line x1="61.953125" y1="336" x2="56.953125" y2="336" style="visibility: inherit;" fill="rgb(0, 0, 0)" stroke="rgb(204, 204, 204)" stroke-width="1px"></line><line x1="61.953125" y1="294.0000000000001" x2="56.953125" y2="294.0000000000001" style="visibility: inherit;" fill="rgb(0, 0, 0)" stroke="rgb(204, 204, 204)" stroke-width="1px"></line><line x1="61.953125" y1="252.00000000000006" x2="56.953125" y2="252.00000000000006" style="visibility: inherit;" fill="rgb(0, 0, 0)" stroke="rgb(204, 204, 204)" stroke-width="1px"></line><line x1="61.953125" y1="210" x2="56.953125" y2="210" style="visibility: inherit;" fill="rgb(0, 0, 0)" stroke="rgb(204, 204, 204)" stroke-width="1px"></line><line x1="61.953125" y1="168" x2="56.953125" y2="168" style="visibility: inherit;" fill="rgb(0, 0, 0)" stroke="rgb(204, 204, 204)" stroke-width="1px"></line><line x1="61.953125" y1="126.00000000000001" x2="56.953125" y2="126.00000000000001" style="visibility: inherit;" fill="rgb(0, 0, 0)" stroke="rgb(204, 204, 204)" stroke-width="1px"></line><line x1="61.953125" y1="84" x2="56.953125" y2="84" style="visibility: inherit;" fill="rgb(0, 0, 0)" stroke="rgb(204, 204, 204)" stroke-width="1px"></line><line x1="61.953125" y1="42.000000000000064" x2="56.953125" y2="42.000000000000064" style="visibility: inherit;" fill="rgb(0, 0, 0)" stroke="rgb(204, 204, 204)" stroke-width="1px"></line><line x1="61.953125" y1="0" x2="56.953125" y2="0" style="visibility: inherit;" fill="rgb(0, 0, 0)" stroke="rgb(204, 204, 204)" stroke-width="1px"></line></g><g transform="translate(51.953125, 0)"><text x="0" y="378" dx="0em" dy="0.3em" style="text-anchor: end; visibility: hidden; font-family: Roboto, sans-serif; font-size: 12px; font-weight: 200;" fill="rgb(50, 49, 63)" stroke="none" stroke-width="1px">-1.2</text><text x="0" y="336" dx="0em" dy="0.3em" style="text-anchor: end; visibility: inherit; font-family: Roboto, sans-serif; font-size: 12px; font-weight: 200;" fill="rgb(50, 49, 63)" stroke="none" stroke-width="1px">-1.15</text><text x="0" y="294.0000000000001" dx="0em" dy="0.3em" style="text-anchor: end; visibility: inherit; font-family: Roboto, sans-serif; font-size: 12px; font-weight: 200;" fill="rgb(50, 49, 63)" stroke="none" stroke-width="1px">-1.1</text><text x="0" y="252.00000000000006" dx="0em" dy="0.3em" style="text-anchor: end; visibility: inherit; font-family: Roboto, sans-serif; font-size: 12px; font-weight: 200;" fill="rgb(50, 49, 63)" stroke="none" stroke-width="1px">-1.05</text><text x="0" y="210" dx="0em" dy="0.3em" style="text-anchor: end; visibility: inherit; font-family: Roboto, sans-serif; font-size: 12px; font-weight: 200;" fill="rgb(50, 49, 63)" stroke="none" stroke-width="1px">-1</text><text x="0" y="168" dx="0em" dy="0.3em" style="text-anchor: end; visibility: inherit; font-family: Roboto, sans-serif; font-size: 12px; font-weight: 200;" fill="rgb(50, 49, 63)" stroke="none" stroke-width="1px">-0.95</text><text x="0" y="126.00000000000001" dx="0em" dy="0.3em" style="text-anchor: end; visibility: inherit; font-family: Roboto, sans-serif; font-size: 12px; font-weight: 200;" fill="rgb(50, 49, 63)" stroke="none" stroke-width="1px">-0.9</text><text x="0" y="84" dx="0em" dy="0.3em" style="text-anchor: end; visibility: inherit; font-family: Roboto, sans-serif; font-size: 12px; font-weight: 200;" fill="rgb(50, 49, 63)" stroke="none" stroke-width="1px">-0.85</text><text x="0" y="42.000000000000064" dx="0em" dy="0.3em" style="text-anchor: end; visibility: inherit; font-family: Roboto, sans-serif; font-size: 12px; font-weight: 200;" fill="rgb(50, 49, 63)" stroke="none" stroke-width="1px">-0.8</text><text x="0" y="0" dx="0em" dy="0.3em" style="text-anchor: end; visibility: hidden; font-family: Roboto, sans-serif; font-size: 12px; font-weight: 200;" fill="rgb(50, 49, 63)" stroke="none" stroke-width="1px">-0.75</text></g><line x1="61.953125" y1="0" x2="61.953125" y2="378" fill="rgb(0, 0, 0)" stroke="rgb(204, 204, 204)" stroke-width="1px"></line></g></g><g transform="translate(61, 0)" clip-path="url(#clip_0)"><clipPath id="clip_0"><rect width="1434" height="378"></rect></clipPath><g><g><g><line x1="0" y1="0" x2="0" y2="378" fill="rgb(0, 0, 0)" stroke="rgb(60, 60, 60)" stroke-width="1px" opacity="0.25"></line><line x1="119.50390625" y1="0" x2="119.50390625" y2="378" fill="rgb(0, 0, 0)" stroke="rgb(60, 60, 60)" stroke-width="1px" opacity="0.25"></line><line x1="239.0078125" y1="0" x2="239.0078125" y2="378" fill="rgb(0, 0, 0)" stroke="rgb(60, 60, 60)" stroke-width="1px" opacity="0.25"></line><line x1="358.51171875" y1="0" x2="358.51171875" y2="378" fill="rgb(0, 0, 0)" stroke="rgb(60, 60, 60)" stroke-width="1px" opacity="0.25"></line><line x1="478.015625" y1="0" x2="478.015625" y2="378" fill="rgb(0, 0, 0)" stroke="rgb(60, 60, 60)" stroke-width="1px" opacity="0.25"></line><line x1="597.51953125" y1="0" x2="597.51953125" y2="378" fill="rgb(0, 0, 0)" stroke="rgb(60, 60, 60)" stroke-width="1px" opacity="0.25"></line><line x1="717.0234375" y1="0" x2="717.0234375" y2="378" fill="rgb(0, 0, 0)" stroke="rgb(60, 60, 60)" stroke-width="1px" opacity="0.25"></line><line x1="836.52734375" y1="0" x2="836.52734375" y2="378" fill="rgb(0, 0, 0)" stroke="rgb(60, 60, 60)" stroke-width="1px" opacity="0.25"></line><line x1="956.03125" y1="0" x2="956.03125" y2="378" fill="rgb(0, 0, 0)" stroke="rgb(60, 60, 60)" stroke-width="1px" opacity="0.25"></line><line x1="1075.53515625" y1="0" x2="1075.53515625" y2="378" fill="rgb(0, 0, 0)" stroke="rgb(60, 60, 60)" stroke-width="1px" opacity="0.25"></line><line x1="1195.0390625" y1="0" x2="1195.0390625" y2="378" fill="rgb(0, 0, 0)" stroke="rgb(60, 60, 60)" stroke-width="1px" opacity="0.25"></line><line x1="1314.54296875" y1="0" x2="1314.54296875" y2="378" fill="rgb(0, 0, 0)" stroke="rgb(60, 60, 60)" stroke-width="1px" opacity="0.25"></line><line x1="1434.046875" y1="0" x2="1434.046875" y2="378" fill="rgb(0, 0, 0)" stroke="rgb(60, 60, 60)" stroke-width="1px" opacity="0.25"></line></g><g><line x1="0" y1="378" x2="1434.046875" y2="378" fill="rgb(0, 0, 0)" stroke="rgb(60, 60, 60)" stroke-width="1px" opacity="0.25"></line><line x1="0" y1="336" x2="1434.046875" y2="336" fill="rgb(0, 0, 0)" stroke="rgb(60, 60, 60)" stroke-width="1px" opacity="0.25"></line><line x1="0" y1="294.0000000000001" x2="1434.046875" y2="294.0000000000001" fill="rgb(0, 0, 0)" stroke="rgb(60, 60, 60)" stroke-width="1px" opacity="0.25"></line><line x1="0" y1="252.00000000000006" x2="1434.046875" y2="252.00000000000006" fill="rgb(0, 0, 0)" stroke="rgb(60, 60, 60)" stroke-width="1px" opacity="0.25"></line><line x1="0" y1="210" x2="1434.046875" y2="210" fill="rgb(0, 0, 0)" stroke="rgb(60, 60, 60)" stroke-width="1px" opacity="0.25"></line><line x1="0" y1="168" x2="1434.046875" y2="168" fill="rgb(0, 0, 0)" stroke="rgb(60, 60, 60)" stroke-width="1px" opacity="0.25"></line><line x1="0" y1="126.00000000000001" x2="1434.046875" y2="126.00000000000001" fill="rgb(0, 0, 0)" stroke="rgb(60, 60, 60)" stroke-width="1px" opacity="0.25"></line><line x1="0" y1="84" x2="1434.046875" y2="84" fill="rgb(0, 0, 0)" stroke="rgb(60, 60, 60)" stroke-width="1px" opacity="0.25"></line><line x1="0" y1="42.000000000000064" x2="1434.046875" y2="42.000000000000064" fill="rgb(0, 0, 0)" stroke="rgb(60, 60, 60)" stroke-width="1px" opacity="0.25"></line><line x1="0" y1="0" x2="1434.046875" y2="0" fill="rgb(0, 0, 0)" stroke="rgb(60, 60, 60)" stroke-width="1px" opacity="0.25"></line></g></g></g><g><g><line x1="0" y1="-630.0000000000001" x2="1434.046875" y2="-630.0000000000001" fill="rgb(0, 0, 0)" stroke="rgb(153, 153, 153)" stroke-width="1.5px"></line></g></g><g><g><line x1="119.50390625" y1="0" x2="119.50390625" y2="378" fill="rgb(0, 0, 0)" stroke="rgb(153, 153, 153)" stroke-width="1.5px"></line></g></g><g><g><g><g><g><path stroke="rgb(255, 112, 67)" stroke-width="2px" d="M122.49150390625,253.4113740921021L123.0890234375,232.96073913574222L125.47910156249999,214.2478609085083L126.07662109375,228.39704990386963L127.27166015625,173.63893747329712L127.86917968750001,172.0225954055786L128.46669921875,214.96182918548587L129.66173828125,254.24220085144046L130.2592578125,194.28273439407354L130.85677734375,215.62512874603274L131.45429687499998,169.09347295761108L133.844375,216.1076831817627L139.22205078125,160.0311326980591L139.8195703125,220.20894527435306L141.014609375,252.72153854370117L142.80716796875,186.19251251220703L143.4046875,217.29879856109622L144.5997265625,183.15779685974124L145.794765625,193.02017211914062L146.39228515625,192.04575061798099L147.58732421875,160.50843000411987L148.78236328124999,195.94188451766973L149.3798828125,154.7914266586304L151.17244140625002,145.43824195861816L151.7699609375,204.98935461044314L152.36748046875,200.90461492538452L152.965,229.02840614318848L153.56251953125,200.04474878311157L155.355078125,228.32154750823977L155.95259765625,218.55900764465332L157.14763671875,175.95097303390503L158.34267578125,228.22501659393316L158.9401953125,192.7782940864563L159.53771484375,170.19466638565066L160.135234375,178.01397085189822L161.92779296875,234.9454307556153L162.52531249999998,170.4371953010559L163.12283203125,199.34880495071414L163.7203515625,260.37381649017334L164.91539062500001,202.09983587265015L166.70794921875,212.87049293518066L169.695546875,258.502779006958L170.29306640625,161.26390457153323L170.8905859375,191.44768953323367L171.48810546875,148.86909484863284L172.085625,230.678243637085L172.68314453125,252.3878860473633L175.6707421875,188.34758520126346L180.4508984375,158.54591846466067L182.24345703125,190.37883996963504L182.8409765625,188.4573340415955L187.02361328125,220.89677810668945L188.81617187499998,229.65115070343018L190.0112109375,194.67116117477423L190.60873046875,204.0912365913391L191.20625,185.65253019332886L193.596328125,208.98066759109497L194.19384765625,161.36278867721558L194.7913671875,125.7411289215088L196.58392578125,238.57495307922366L197.18144531250002,247.13346004486084L198.97400390625,215.04544258117676L201.36408203125,162.73640155792236L202.55912109374998,168.50192070007324L203.75416015625,117.01879978179932L204.3516796875,282.777099609375L204.94919921875,251.55485630035406L205.54671875,184.77333784103396L207.936796875,204.13474559783938L209.1318359375,221.61835670471194L210.92439453125002,174.50981855392456L211.5219140625,181.84937238693237L212.11943359375,218.48721027374268L213.31447265625,169.43022966384888L213.9119921875,207.50086069107056L214.50951171875002,251.41056060791018L216.3020703125,219.00701522827148L217.497109375,185.21698951721194L218.09462890625,191.89785003662112L219.28966796875,241.49741649627688L219.88718749999998,228.78157138824463L221.67974609375,164.1640377044678L224.66734375000001,199.39797163009644L225.26486328125,175.9100675582886L225.8623828125,210.29019355773926L227.057421875,186.38737678527835L227.65494140625,214.8934364318848L228.84998046875,184.10337924957275L230.04501953125,226.48826122283936L230.6425390625,241.21002674102786L231.24005859375,202.42602825164798L231.837578125,217.41325378417972L233.0326171875,180.9089469909668L233.63013671874998,185.21588802337646L237.8127734375,240.53751468658453L240.2028515625,201.3173747062683L242.5929296875,292.6698160171509L243.19044921875,220.86383342742926L243.78796875,273.75756740570074L246.178046875,228.46964836120605L247.97060546875,178.1610202789307L249.7631640625,233.39152336120608L250.36068359375,199.62628126144412L252.1532421875,257.19961166381836L252.75076171875,158.90265226364136L253.94580078125,212.7639484405518L254.5433203125,201.42507076263428L255.14083984375,183.79461050033572L256.33587890625,144.45510864257812L256.9333984375,214.50921535491943L258.1284375,239.9492168426514L258.72595703125,227.3700571060181L259.3234765625,250.42532444000244L261.11603515625,193.07354450225833L262.90859374999997,185.07069110870364L265.89619140625,235.09263038635257L267.09123046875,169.6265459060669L268.28626953125,192.59980201721194L268.8837890625,264.272403717041L271.87138671875,200.52244663238528L273.6639453125,204.63998079299927L274.26146484375,183.29167842864993L274.85898437500003,168.14874172210696L275.45650390625,157.1892786026001L276.65154296875,239.57510948181155L279.04162109375,238.64755153656006L280.23666015624997,160.61076879501343L281.43169921875,158.8281011581421L282.62673828125,202.00460672378543L285.6143359375,181.1024594306946L286.809375,193.3514213562012L289.199453125,147.62140274047852L292.18705078125,176.01470947265628L293.38208984375,216.21833324432376L293.979609375,224.8427295684815L295.77216796875,183.9023065567017L296.96720703125,232.32287406921392L297.56472656249997,207.93314695358276L298.16224609375,248.4206056594849L299.35728515625,232.5144338607788L299.9548046875,203.6346673965454L300.55232421875,191.88638448715216L302.94240234375,215.61010837554932L303.539921875,211.29385471343997L304.7349609375,233.0075025558472L306.52751953125,240.08169651031497L308.91759765625,216.58352851867676L309.5151171875,201.61582946777347L310.11263671875,223.68025302886966L310.71015625,190.30348777771L311.9051953125,180.0138330459595L313.69775390625,184.98387336730957L314.2952734375,183.36447715759277L314.89279296875,226.90392494201663L316.6853515625,212.46804714202887L317.28287109375,222.7906465530396L318.47791015625,186.53077125549316L322.06302734375,192.67034769058228L323.25806640625,141.821186542511L325.05062499999997,150.20876169204715L325.64814453125,251.6913414001465L326.84318359375,141.57345056533813L327.440703125,187.2752809524536L330.42830078125,288.68300914764404L331.0258203125,197.2394943237305L332.220859375,266.17528438568115L333.4158984375,240.44418811798096L334.01341796875,187.874493598938L334.6109375,166.85118198394778L336.40349609375,203.5330295562744L337.001015625,176.7309808731079L338.79357421875,221.88531875610352L339.39109375,263.5040616989136L340.5861328125,192.10157632827762L341.18365234375,210.37500858306885L342.37869140624997,222.14667320251465L344.76876953125,175.66608667373657L345.3662890625,221.43651008605957L345.96380859375,251.64788246154788L347.15884765625003,183.89369487762454L347.7563671875,249.97271060943606L349.54892578125,229.0528392791748L350.1464453125,201.2342119216919L350.74396484375,244.18946743011477L351.341484375,192.96434640884402L352.53652343749997,223.8689088821411L353.13404296875,157.72425413131714L353.7315625,214.8003101348877L354.32908203125,142.24170684814453L359.70675781250003,164.8744511604309L360.30427734374996,232.145733833313L361.49931640625,213.14426422119143L363.291875,172.3704171180725L367.47451171874997,190.74198246002197L368.07203125,170.98088264465335L370.462109375,201.97942256927493L371.05962890625,176.30560398101807L371.6571484375,160.16927003860474L372.8521875,170.97257137298584L374.0472265625,233.95178318023682L376.4373046875,201.5458345413208L381.81498046875,206.92427873611453L382.4125,204.51561212539673L383.01001953125,193.42917680740356L383.6075390625,211.66635990142822L384.80257812499997,225.04690647125244L385.40009765625,187.7660965919495L387.19265625,262.88932800292974L388.98521484375,249.2250967025757L393.1678515625,215.6404495239258L393.76537109375,216.13071441650393L394.36289062500003,234.01546955108645L394.96041015624996,271.7545509338379L396.15544921875,166.73632621765137L396.75296875,199.8038220405579L397.35048828125,201.31882667541507L398.54552734375,216.78319931030276L399.143046875,248.82515430450445L399.74056640625,209.52350378036502L400.93560546875,226.70245170593262L402.13064453124997,236.77240848541263L402.7281640625,210.096230506897L405.11824218749996,251.91534519195562L409.30087890625,191.0191583633423L411.0934375,174.89023447036743L411.69095703125004,234.5075368881226L412.88599609375,149.98015165328982L414.08103515625,198.79900932312015L415.87359375,233.98773193359378L422.44630859374996,204.721941947937L424.2388671875,215.91301918029785L424.83638671875,193.6357069015503L425.43390625,185.58944463729858L426.6289453125,173.29136610031128L427.823984375,191.93199634552005L428.42150390625,178.92485618591311L429.61654296874997,297.6503705978394L432.604140625,175.03668308258057L433.20166015625,180.42699337005618L436.78677734375,136.88929796218872L437.98181640625,177.8381323814392L438.5793359375,241.61577701568604L439.17685546875003,234.15135383605957L439.77437499999996,223.78489494323733L440.37189453125,149.71374034881592L440.9694140625,228.70346546173096L441.56693359375,155.1575231552124L442.164453125,203.0996417999268L442.76197265625,200.80783367156985L443.3594921875,247.16400146484378L444.55453125,182.9632830619812L446.34708984375004,234.54108238220218L446.94460937499997,195.89442014694217L447.54212890625,156.08362913131714L448.73716796875,164.39860582351685L451.12724609375,207.83516407012942L452.32228515625,207.53961324691772L453.51732421875,236.03160381317142L455.90740234375,212.45502948760986L456.50492187500004,173.95817041397098L457.10244140624997,171.86513185501101L458.29748046875,247.26393699646L459.49251953125,248.96003723144534L460.68755859375,170.8684802055359L461.88259765625,239.1452264785767L462.4801171875,211.10359668731695L464.27267578125,247.6243257522583L465.46771484375,242.98142910003665L466.065234375,236.8762493133545L466.66275390625003,190.67103624343872L467.26027343749996,224.40433502197266L467.85779296875,217.4759387969971L468.4553125,207.5576877593994L469.6503515625,222.485933303833L470.24787109375,167.3198676109314L473.23546875,246.38304233551028L473.83298828125004,242.15320587158206L475.02802734375,220.40511131286627L475.625546875,204.88611459732056L476.22306640625,188.5613751411438L478.015625,182.74398565292358L479.2106640625,286.9382429122925L480.405703125,195.31448364257815L481.6007421875,169.76017713546756L482.79578125,219.58760261535645L483.99082031250003,189.77837562561035L484.58833984374996,205.78903913497925L485.185859375,238.92292499542236L486.97841796875,163.19592475891113L489.36849609375,208.02021503448486L489.966015625,192.3305869102478L491.16105468750004,174.34699773788455L491.75857421874997,222.5071620941162L492.95361328125,198.4628534317017L495.34369140625,212.5872087478638L498.3312890625,229.97488975524905L502.51392578125,180.18416404724124L503.1114453125,145.57272434234622L504.306484375,187.053279876709L504.90400390625,210.5150985717774L505.5015234375,248.0892562866211L506.09904296875,237.97383785247806L506.6965625,177.08791494369507L507.29408203125,219.39424037933352L508.48912109375,158.37678909301758L509.086640625,214.7869920730591L511.47671875000003,160.08790969848636L512.07423828125,246.57370090484622L513.26927734375,238.7305641174317L514.46431640625,205.24129629135132L516.256875,221.26547813415527L517.4519140625,200.0029420852661L518.04943359375,186.52165889739993L518.646953125,175.19544839859012L520.43951171875,170.93241691589355L521.03703125,186.69729709625247L521.63455078125,181.90785169601443L522.2320703125,209.1725277900696L522.82958984375,163.6195993423462L524.02462890625,163.64413261413577L524.6221484375,174.02400970458987L525.2196679687501,206.12274169921878L526.41470703125,257.6968860626221L527.0122265625,213.40361595153811L527.60974609375,170.77740669250488L528.207265625,177.1198582649231L528.80478515625,152.9728603363037L529.4023046875,251.6550922393799L530.59734375,189.19538497924805L531.19486328125,196.76620244979858L532.987421875,191.14417791366577L535.3775,173.33587646484378L537.17005859375,201.5108871459961L537.767578125,250.92600345611575L538.36509765625,224.6570777893067L539.56013671875,166.9918727874756L540.15765625,185.29394388198853L540.75517578125,245.1408576965332L541.3526953125,230.30623912811282L542.547734375,253.56358051300052L543.14525390625,173.8854217529297L543.7427734375,161.7377471923828L546.1328515625,220.26261806488037L548.5229296875,207.26944684982303L549.12044921875,131.882758140564L550.3154882812499,207.76697158813477L550.9130078125,182.4954986572266L551.51052734375,219.32424545288086L552.108046875,187.9430866241455L552.70556640625,193.49591732025146L553.3030859375,200.66108465194702L555.09564453125,146.05638027191165L555.6931640625,186.4946222305298L559.27828125,192.60170459747317L560.4733203124999,160.72682619094851L561.07083984375,152.12210655212402L561.668359375,232.16576099395755L562.26587890625,229.45368289947513L563.46091796875,253.27188491821292L565.2534765625,196.85036659240723L565.85099609375,229.71904277801517L567.6435546875,237.6895523071289L568.24107421875,227.66756057739258L568.83859375,220.1800060272217L570.0336328125001,236.53869152069092L571.228671875,270.50325393676763L573.02123046875,201.02422714233398L573.61875,207.90866374969482L574.8137890625,198.87901782989502L576.60634765625,176.84208154678348L577.2038671875,233.48565101623538L577.80138671875,230.84927558898926L578.99642578125,222.66377449035647L579.5939453125,227.33150482177734L580.19146484375,254.06225681304934L581.38650390625,201.0316371917725L581.9840234375,191.7003321647644L582.58154296875,155.13654470443728L585.569140625,223.41269016265872L587.95921875,192.1474885940552L588.55673828125,195.6461334228516L589.75177734375,204.9866008758545L590.94681640625,184.168016910553L592.14185546875,260.5749893188477L592.739375,205.59006929397583L593.33689453125,214.79950904846197L593.9344140625,163.23227405548099L594.5319335937501,171.8672847747803L595.1294531249999,158.709990978241L596.3244921875,198.47697257995605L597.51953125,230.01454353332522L598.7145703125,185.57667732238772L600.50712890625,186.21619462966922L601.70216796875,81.3548827171326L602.2996875,213.11121940612793L602.89720703125,175.2634906768799L605.2872851562499,166.38294696807864L606.48232421875,191.85744524002075L607.07984375,149.0664625167847L608.2748828125,157.55091905593875L610.06744140625,176.19930982589722L611.26248046875,176.69818639755252L611.86,145.80373764038086L612.45751953125,266.4302301406861L614.250078125,255.67274093627933L616.04263671875,229.7179412841797L616.64015625,224.9563837051392L617.8351953125,145.86757421493533L619.030234375,154.29710626602176L620.2252734375,214.6721363067627L623.21287109375,192.21042394638062L624.40791015625,190.4402732849121L625.0054296875,190.73852777481082L625.60294921875,196.19247436523438L626.20046875,201.54132843017578L627.99302734375,180.3763246536255L631.57814453125,203.89647245407104L632.77318359375,218.40610027313232L633.370703125,160.5558443069458L633.96822265625,262.81022071838385L634.5657421875,236.88245773315433L635.16326171875,246.57700538635254L637.55333984375,150.60680150985718L638.74837890625,220.04982948303225L639.3458984375001,182.9472613334656L641.13845703125,191.09405994415286L641.7359765625,246.8931341171265L642.33349609375,108.51937294006348L642.931015625,176.81449413299563L643.52853515625,149.14241552352905L644.72357421875,178.70706081390384L645.32109375,282.9746675491333L645.91861328125,204.54289913177493L646.5161328125,233.1465911865235L647.711171875,267.03184604644775L649.5037304687501,214.6973705291748L650.69876953125,181.3915014266968L651.2962890625,195.61419010162354L652.491328125,192.52715349197393L653.08884765625,170.41171073913577L654.88140625,187.86387920379642L655.47892578125,244.4057607650757L656.67396484375,176.8779802322388L657.271484375,126.47497415542605L661.45412109375,215.4285621643067L662.051640625,175.72066068649292L662.64916015625,194.06949520111084L663.2466796875,115.36270380020142L663.84419921875,205.47836780548099L664.44171875,200.6601333618164L665.03923828125,196.47175312042236L666.23427734375,194.81060028076175L666.831796875,259.9851894378662L667.42931640625,237.06510543823248L669.221875,251.1553144454956L669.81939453125,165.7989549636841L670.4169140625,203.89722347259524L671.01443359375,232.95382976531985L672.20947265625,207.2698473930359L675.79458984375,136.0347390174866L676.392109375,179.26021099090576L676.98962890625,190.26573657989505L678.18466796875,240.45550346374517L680.57474609375,140.40040969848633L682.3673046875,185.67471027374268L684.1598632812501,212.60783672332767L686.54994140625,213.92872810363772L688.3425,200.7864546775818L688.94001953125,205.50520420074469L689.5375390625,179.09023046493533L690.732578125,223.27750682830813L691.33009765625,205.39971113204956L691.9276171875,163.2859969139099L693.72017578125,207.8003168106079L694.3176953125001,155.6634092330933L695.512734375,186.57603263854983L696.7077734375,210.82682132720947L697.30529296875,168.34060192108154L698.50033203125,200.5419731140137L699.69537109375,232.067928314209L700.292890625,239.8786211013794L701.4879296875,187.42878913879397L702.68296875,216.24446868896487L703.28048828125,139.99886512756348L703.8780078125,255.862398147583L704.4755273437501,211.0242891311646L706.2680859375,189.05559539794922L706.86560546875,230.3825426101685L707.463125,176.62173271179202L709.25568359375,223.40227603912354L709.853203125,203.35003137588504L714.633359375,195.38287639617923L716.42591796875,202.16262102127075L717.0234375,214.95471954345706L718.2184765625,138.946487903595L719.4135156250001,163.31598758697513L720.01103515625,274.8597621917725L721.80359375,260.78938007354736L722.40111328125,273.65643024444586L723.5961523437501,202.29009389877325L724.193671875,229.10961627960205L724.7911914062499,185.99174022674563L725.3887109375,214.8489761352539L727.18126953125,176.78495407104492L731.96142578125,146.2072849273682L732.5589453125,223.69317054748535L733.15646484375,158.52458953857422L734.35150390625,254.95306491851807L735.54654296875,169.656035900116L736.1440625,179.98449325561526L736.74158203125,160.2372121810913L737.93662109375,186.33530616760254L739.13166015625,180.4652452468872L739.7291796875,215.89930057525638L740.32669921875,166.9504165649414L742.1192578125,198.05820465087893L742.71677734375,209.71746683120728L743.314296875,247.76181221008304L746.30189453125,168.96139383316043L747.49693359375,151.47863388061523L748.094453125,133.37863683700562L749.2894921875,222.9052019119263L749.88701171875,207.15734481811526L751.08205078125,235.10504722595218L754.66716796875,193.82586479187012L755.2646874999999,204.97037887573242L756.4597265625,87.84743785858156L757.654765625,162.89752006530765L760.04484375,155.14039993286133L761.2398828125,207.3026418685913L762.434921875,228.77315998077395L763.6299609375,165.588219165802L764.825,245.90369224548343L766.0200390625,174.88627910614017L766.61755859375,138.33290576934817L767.215078125,228.89472484588626L767.81259765625,174.41173553466797L768.4101171875001,253.05499076843262L770.8001953125,180.91160058975223L771.995234375,163.96516799926758L772.59275390625,185.0162672996521L776.17787109375,230.0550985336304L777.37291015625,243.15105915069586L778.5679492187501,236.00687026977542L779.16546875,208.06392431259155L779.7629882812499,222.5251865386963L783.34810546875,199.93890523910525L785.1406640625,183.59994649887088L786.335703125,220.2128505706787L788.12826171875,160.34225463867188L789.9208203124999,186.0518717765808L790.51833984375,184.12691116333008L791.71337890625,207.07538366317752L792.3108984375,215.6567716598511L792.90841796875,276.2455415725708L793.5059375,200.41229724884033L794.7009765625,206.24540805816653L795.29849609375,195.79258203506473L796.49353515625,145.33940792083743L797.0910546875,208.15019130706787L797.68857421875,170.7125186920166L799.4811328125,239.943208694458L800.0786523437499,181.17666006088257L801.27369140625,203.42938899993896L806.05384765625,183.16405534744266L806.6513671875,249.83322143554688L807.24888671875,204.33576822280884L807.84640625,172.0502328872681L809.63896484375,166.75740480422976L810.2364843749999,202.21954822540286L810.83400390625,151.2648439407349L812.6265625,252.06584930419928L813.2240820312501,233.49997043609622L813.8216015625,163.97428035736084L815.61416015625,175.39096355438235L822.78439453125,190.8360099792481L824.5769531249999,188.30557823181155L825.7719921875,171.65760040283203L826.36951171875,213.85823249816895L827.56455078125,223.65812301635742L828.1620703125,178.03920507431033L829.95462890625,199.51683282852176L831.7471875,148.65971088409424L832.34470703125,251.9927501678467L832.9422265625,194.55520391464236L833.5397460937501,166.11062765121463L834.137265625,211.51755809783938L834.7347851562499,196.50750160217288L835.3323046875,140.56132793426514L835.92982421875,181.25701904296878L837.12486328125,174.52468872070312L838.31990234375,209.5328164100647L838.917421875,214.92868423461917L840.1124609375,203.5166072845459L841.3075,181.96633100509646L842.5025390625,185.14338970184326L843.10005859375,158.8465261459351L843.6975781250001,198.6128067970276L844.29509765625,242.68372535705566L844.8926171874999,140.503249168396L845.49013671875,208.41194629669192L847.8802148437501,262.6352834701538L850.8678125,123.24319124221805L851.46533203125,225.91588497161868L852.66037109375,185.2039217948914L853.257890625,182.93729782104492L855.64796875,197.72990942001348L856.24548828125,192.49636173248294L856.8430078125,201.9815254211426L858.0380468750001,179.86878633499148L859.83060546875,255.46505928039554L861.6231640625,176.1880946159363L862.818203125,267.631459236145L864.0132421875,211.3816738128662L864.61076171875,194.9988055229187L865.80580078125,166.2687921524048L866.4033203125,165.95792055130008L868.1958789062501,214.93399143218997L868.7933984375,179.87804889678955L869.3909179687499,194.0678930282593L870.58595703125,213.3192014694214L871.1834765625,234.84369277954104L871.78099609375,221.59913063049316L872.97603515625,264.92979526519775L873.5735546875,248.8022232055664L874.17107421875,227.4651861190796L874.76859375,212.80460357666016L875.36611328125,196.1372494697571L875.9636328125,189.40271615982059L878.95123046875,175.15739679336548L879.5487499999999,153.47884654998782L880.7437890625,216.56119823455813L883.1338671875,173.36121082305908L883.73138671875,225.42752265930176L884.92642578125,204.65530157089233L887.31650390625,185.13572931289673L888.5115429687501,195.96927165985107L889.7065820312499,219.5749855041504L890.90162109375,165.20474910736084L891.499140625,195.52812337875366L892.09666015625,155.8963251113892L892.6941796875001,194.90252494812015L893.8892187499999,168.29063415527344L895.68177734375,188.73090505599978L896.279296875,185.06678581237793L897.4743359375,200.83086490631106L898.07185546875,240.80527782440188L898.6693750000001,161.67030572891235L899.8644140624999,201.36528968811038L902.2544921875,202.09813356399542L903.44953125,178.56141328811646L904.0470507812499,210.87178230285647L905.24208984375,169.7607779502869L905.839609375,165.77837705612183L907.63216796875,260.1094579696656L908.2296875,240.0725841522217L911.21728515625,275.7358503341675L911.8148046875,308.2435369491578L912.41232421875,185.09652614593506L913.0098437500001,219.82572555541995L914.2048828124999,209.0129613876343L915.399921875,215.82129478454593L915.99744140625,229.69020366668704L916.5949609375,117.66552686691287L917.19248046875,313.79476547241217L917.79,236.95986270904544L918.38751953125,198.7803339958191L920.180078125,230.31475067138675L921.97263671875,194.9167442321778L923.1676757812501,215.29177665710452L924.3627148437499,228.28159332275393L924.960234375,208.32828283309942L925.55775390625,195.90238094329834L926.1552734375,177.52005100250244L926.75279296875,181.00708007812503L929.14287109375,228.3277559280396L931.53294921875,246.73552036285403L932.72798828125,207.47162103652954L933.3255078125001,198.2533693313599L935.11806640625,232.85479545593265L935.7155859375,222.9759979248047L936.31310546875,211.85601711273193L938.1056640625,278.9422988891602L939.89822265625,173.57049465179446L940.4957421875,206.1817216873169L941.09326171875,184.10423040390015L942.28830078125,172.46329307556152L942.8858203125,228.5050964355469L943.4833398437501,153.0798053741455L945.2758984375,226.2014722824097L946.4709375,177.52986431121826L947.06845703125,182.98946857452393L947.6659765625001,159.28452014923099L948.26349609375,206.59593343734744L948.8610156249999,264.14663314819336L949.45853515625,221.77186489105225L950.65357421875,223.35160732269287L951.25109375,148.6974120140076L953.04365234375,202.07910776138306L956.03125,193.60065937042236L963.201484375,191.4678168296814L963.79900390625,253.55066299438477L964.3965234375,213.3514451980591L964.99404296875,218.66264820098877L967.38412109375,199.99413013458252L969.1766796874999,260.26526927948004L969.77419921875,204.99766588211062L970.96923828125,176.63429975509646L971.5667578125,185.51234006881717L972.16427734375,238.44637870788577L972.761796875,120.54823637008668L973.9568359375,228.8256311416626L975.151875,211.4881181716919L975.74939453125,195.82041978836062L976.3469140625,145.87703704833987L977.541953125,171.87424421310425L978.1394726562501,230.24846076965335L978.7369921875,146.857967376709L979.93203125,182.07813262939456L981.1270703125,186.52396202087405L984.7121875,182.1030163764954L985.9072265625,230.94510555267337L988.89482421875,219.00981903076175L989.4923437499999,212.44561672210696L991.882421875,212.3330640792847L994.87001953125,197.42719888687137L995.4675390625,269.67523097991943L997.8576171875,216.7010879516602L1000.2476953125,174.1898345947266L1002.04025390625,215.85954666137698L1003.8328124999999,266.5612077713013L1004.43033203125,179.18210506439212L1005.0278515625,230.25506973266602L1006.82041015625,209.60436344146729L1007.4179296875,242.35808372497561L1009.21048828125,172.7251982688904L1010.40552734375,203.55315685272222L1011.003046875,161.5745759010315L1011.60056640625,199.4671154022217L1015.783203125,134.98426437377933L1016.38072265625,212.90524005889895L1016.9782421875,237.8031063079834L1017.57576171875,245.4630947113037L1018.77080078125,188.32450389862063L1019.3683203125,249.70184326171878L1019.96583984375,253.2549619674683L1020.563359375,174.3017864227295L1021.16087890625,237.37051963806152L1021.7583984375,206.68830871582034L1022.35591796875,180.06079673767093L1022.9534375000001,228.12588214874273L1023.55095703125,199.8715138435364L1025.343515625,196.6896486282349L1026.5385546875,201.55134201049808L1029.52615234375,193.17252874374392L1030.1236718750001,159.04945135116577L1030.72119140625,236.8546199798584L1031.91623046875,240.68401336669922L1036.0988671875,198.26077938079834L1037.29390625,201.45711421966556L1040.28150390625,183.16195249557498L1040.8790234375,241.80132865905765L1043.2691015625,207.79145479202273L1044.464140625,202.31923341751101L1045.06166015625,196.74106836318973L1046.25669921875,233.81479740142822L1046.85421875,162.7766561508179L1048.0492578125,219.86297607421875L1048.64677734375,209.34115648269653L1052.23189453125,260.864782333374L1052.8294140625,175.51593303680423L1053.42693359375,216.68706893920898L1056.41453125,119.6263360977173L1057.01205078125,214.7506427764893L1062.3897265625,220.33201217651367L1062.98724609375,187.12903261184695L1064.7798046875,202.67631769180298L1065.37732421875,246.4277029037476L1065.97484375,232.39517211914065L1067.1698828125,212.04277038574222L1068.364921875,287.03517436981207L1069.5599609375,137.32829332351685L1071.35251953125,170.42673110961917L1071.9500390625,195.84059715271L1073.145078125,191.65231704711917L1073.74259765625,186.71867609024048L1074.9376367187501,199.1366171836853L1076.1326757812499,177.36804485321045L1076.7301953125,239.20030117034915L1077.925234375,213.3806848526001L1078.52275390625,178.12962770462036L1080.91283203125,248.6105632781983L1081.5103515625,151.10953330993655L1082.705390625,168.76672983169559L1083.30291015625,207.87992477416998L1083.9004296875,180.7896852493286L1084.49794921875,148.62025737762454L1085.69298828125,219.1051483154297L1086.2905078125,173.936140537262L1086.88802734375,181.73081159591678L1087.485546875,215.32472133636477L1089.875625,201.29329204559326L1091.0706640625,134.08915042877197L1091.66818359375,161.3896751403809L1092.265703125,231.8950939178467L1093.4607421875,175.7380843162537L1094.65578125,177.45280981063843L1095.8508203125,195.0015091896057L1097.045859375,164.8253345489502L1097.64337890625,176.39827966690066L1098.2408984375,179.8882627487183L1099.4359375000001,194.08141136169436L1100.03345703125,233.67210388183597L1100.6309765624999,168.9996957778931L1101.22849609375,200.6308937072754L1101.826015625,140.32911300659183L1102.42353515625,194.76348638534546L1103.61857421875,185.64141511917114L1104.21609375,240.36538124084478L1106.00865234375,219.05528068542483L1106.606171875,212.66311168670654L1107.8012109375,113.44680547714233L1108.39873046875,209.61698055267334L1110.1912890625,222.06706523895267L1110.78880859375,198.96693706512454L1111.386328125,166.51953220367434L1111.98384765625,163.82217407226565L1112.5813671875,168.8627099990845L1113.77640625,236.15667343139654L1116.166484375,188.17445039749148L1117.3615234375,215.99182605743414L1117.95904296875,228.226318359375L1118.5565625,229.39670562744143L1120.34912109375,191.10041856765747L1120.9466406249999,167.6889681816101L1122.1416796875,210.8538579940796L1124.5317578125,184.47688579559326L1125.12927734375,149.2658829689026L1125.726796875,172.10926294326785L1126.32431640625,191.05030059814456L1127.51935546875,205.93734025955206L1129.90943359375,210.05146980285645L1130.506953125,195.79713821411133L1131.7019921875,180.2228665351868L1132.29951171875,243.28043460845947L1132.89703125,264.7749853134156L1133.49455078125,227.80795097351077L1134.68958984375,202.4410486221314L1136.4821484375,212.05829143524173L1137.07966796875,223.48729133605963L1137.6771875,214.5498704910279L1138.27470703125,228.23793411254886L1138.8722265625,178.09673309326172L1140.66478515625,179.2674207687378L1141.2623046874999,209.02662992477417L1143.6523828125,251.33335590362552L1144.2499023437501,247.9972314834595L1145.4449414062499,170.59025287628177L1146.0424609375,201.31206750869754L1146.63998046875,218.1416416168213L1149.03005859375,208.67610454559326L1150.8226171875,250.38466930389404L1152.01765625,190.6668305397034L1153.81021484375,135.17457246780398L1154.407734375,226.36829853057864L1155.00525390625,175.79841613769534L1155.6027734375,181.39700889587402L1156.20029296875,205.37387609481814L1157.39533203125,172.3230528831482L1157.9928515625,193.2502841949463L1158.59037109375,255.93359470367432L1160.3829296875,202.6538872718811L1160.98044921875,246.10005855560306L1162.17548828125,220.79644203186038L1162.7730078125,260.6191492080689L1163.37052734375,156.27373695373535L1165.1630859375,180.13750076293945L1166.358125,222.68790721893316L1166.95564453125,175.42060375213623L1167.5531640625,208.71650934219363L1168.15068359375,210.71346759796145L1172.3333203125,147.36520528793335L1172.93083984375,183.07528495788577L1174.7233984375,162.31753349304202L1177.71099609375,181.56733989715576L1180.10107421875,281.2512302398682L1181.29611328125,256.1280584335327L1182.49115234375,127.29794025421144L1183.68619140625,220.66416263580322L1184.2837109375,204.94784832000732L1184.8812304687501,171.45547628402713L1185.47875,201.51399135589602L1187.868828125,236.27383232116705L1188.46634765625,233.30961227416992L1189.0638671875001,209.64341640472415L1190.2589062499999,132.44742393493655L1190.85642578125,209.86396551132208L1191.4539453125,198.7197017669678L1193.8440234375,172.64413833618167L1195.0390625,184.02602434158328L1196.2341015625,174.04734134674075L1197.429140625,170.32088756561282L1198.02666015625,208.55103492736816L1199.22169921875,194.9223017692566L1201.61177734375,204.2624187469483L1202.80681640625,155.62400579452515L1203.4043359375,217.47954368591311L1205.19689453125,225.20141601562506L1206.989453125,190.09921073913574L1209.3795312500001,121.38457059860231L1210.5745703124999,178.49737644195557L1211.17208984375,139.02950048446658L1212.9646484375,254.62662220001224L1215.3547265625,231.10081672668463L1215.95224609375,218.1850004196167L1216.549765625,200.8742737770081L1217.14728515625,116.56303167343141L1218.93984375,180.49358367919922L1219.53736328125,149.47421550750735L1220.1348828125,148.2886075973511L1221.329921875,218.63200664520264L1221.92744140625,155.53022861480713L1222.5249609375,195.61909675598147L1223.72,176.09647035598755L1224.31751953125,195.0296473503113L1226.110078125,208.741192817688L1226.70759765625,265.60641288757324L1227.90263671875,215.47482490539554L1229.09767578125,202.4624276161194L1229.6951953125001,215.85484027862555L1230.29271484375,206.71599626541143L1234.4753515625,218.89576435089114L1235.0728710937499,224.10202503204349L1235.670390625,171.81060791015628L1236.26791015625,161.58213615417483L1239.85302734375,211.04261398315433L1240.450546875,194.92024898529053L1241.04806640625,165.64129114151004L1241.6455859375,203.85606765747073L1242.24310546875,229.02950763702395L1243.43814453125,180.2641725540161L1245.230703125,224.33934688568115L1247.02326171875,214.33688163757324L1249.41333984375,197.53965139389038L1250.010859375,180.80530643463135L1250.60837890625,141.40216827392578L1251.2058984375,188.1351470947266L1251.80341796875,196.18125915527347L1252.99845703125,204.77055788040164L1253.5959765625,204.2118501663208L1255.9860546875,204.10861015319827L1257.77861328125,194.3358564376831L1258.3761328125,184.5587468147278L1260.16869140625,200.97601175308228L1260.7662109375,199.9276399612427L1261.36373046875,195.85676908493042L1261.96125,185.30280590057376L1262.55876953125,256.3448524475098L1263.75380859375,164.19442892074585L1264.351328125,139.38743591308594L1264.94884765625,155.474853515625L1265.5463671875,219.57899093627933L1266.14388671875,221.52753353118896L1268.53396484375,185.07274389266968L1269.131484375,156.80015087127688L1269.72900390625,181.90750122070312L1271.5215625,127.00474262237549L1272.7166015625,163.7403130531311L1273.31412109375,192.47438192367554L1273.911640625,201.11950635910037L1275.1066796875,185.45421123504642L1275.7041992187499,184.5301079750061L1276.30171875,154.01292085647583L1277.4967578125,178.92335414886477L1278.09427734375,229.21916484832767L1279.8868359374999,181.4175367355347L1281.081875,187.82582759857178L1282.2769140625,190.67739486694342L1282.87443359375,92.00918197631837L1284.06947265625,156.46785020828247L1285.86203125,235.58359622955325L1287.0570703125,261.55521869659424L1287.65458984375,210.73089122772217L1288.252109375,198.2437062263489L1289.4471484375,237.8242349624634L1290.6421875,138.32189083099365L1291.23970703125,223.85268688201904L1291.8372265625,246.3588094711304L1294.2273046875,221.26838207244873L1294.82482421875,193.09497356414795L1296.01986328125,151.17106676101685L1297.21490234375,183.38720798492434L1300.2024999999999,262.59593009948736L1302.592578125,218.59856128692627L1303.19009765625,203.78251791000372L1303.7876171875,170.28343677520755L1304.38513671875,182.16545104980472L1311.55537109375,255.6796503067017L1312.75041015625,233.4710311889649L1313.94544921875,162.7061104774475" style="fill: none;" fill="none"></path></g></g></g></g></g></g><g transform="translate(61, 378)" clip-path="url(#clip_1)"><clipPath id="clip_1"><rect width="1434" height="22"></rect></clipPath><g><g><line x1="0" y1="0" x2="0" y2="5" style="visibility: inherit;" fill="rgb(0, 0, 0)" stroke="rgb(204, 204, 204)" stroke-width="1px"></line><line x1="119.50390625" y1="0" x2="119.50390625" y2="5" style="visibility: inherit;" fill="rgb(0, 0, 0)" stroke="rgb(204, 204, 204)" stroke-width="1px"></line><line x1="239.0078125" y1="0" x2="239.0078125" y2="5" style="visibility: inherit;" fill="rgb(0, 0, 0)" stroke="rgb(204, 204, 204)" stroke-width="1px"></line><line x1="358.51171875" y1="0" x2="358.51171875" y2="5" style="visibility: inherit;" fill="rgb(0, 0, 0)" stroke="rgb(204, 204, 204)" stroke-width="1px"></line><line x1="478.015625" y1="0" x2="478.015625" y2="5" style="visibility: inherit;" fill="rgb(0, 0, 0)" stroke="rgb(204, 204, 204)" stroke-width="1px"></line><line x1="597.51953125" y1="0" x2="597.51953125" y2="5" style="visibility: inherit;" fill="rgb(0, 0, 0)" stroke="rgb(204, 204, 204)" stroke-width="1px"></line><line x1="717.0234375" y1="0" x2="717.0234375" y2="5" style="visibility: inherit;" fill="rgb(0, 0, 0)" stroke="rgb(204, 204, 204)" stroke-width="1px"></line><line x1="836.52734375" y1="0" x2="836.52734375" y2="5" style="visibility: inherit;" fill="rgb(0, 0, 0)" stroke="rgb(204, 204, 204)" stroke-width="1px"></line><line x1="956.03125" y1="0" x2="956.03125" y2="5" style="visibility: inherit;" fill="rgb(0, 0, 0)" stroke="rgb(204, 204, 204)" stroke-width="1px"></line><line x1="1075.53515625" y1="0" x2="1075.53515625" y2="5" style="visibility: inherit;" fill="rgb(0, 0, 0)" stroke="rgb(204, 204, 204)" stroke-width="1px"></line><line x1="1195.0390625" y1="0" x2="1195.0390625" y2="5" style="visibility: inherit;" fill="rgb(0, 0, 0)" stroke="rgb(204, 204, 204)" stroke-width="1px"></line><line x1="1314.54296875" y1="0" x2="1314.54296875" y2="5" style="visibility: inherit;" fill="rgb(0, 0, 0)" stroke="rgb(204, 204, 204)" stroke-width="1px"></line><line x1="1434.046875" y1="0" x2="1434.046875" y2="5" style="visibility: inherit;" fill="rgb(0, 0, 0)" stroke="rgb(204, 204, 204)" stroke-width="1px"></line></g><g transform="translate(0, 8)"><text x="0" y="0" dx="0em" dy="0.95em" style="text-anchor: middle; visibility: hidden; font-family: Roboto, sans-serif; font-size: 12px; font-weight: 200;" fill="rgb(50, 49, 63)" stroke="none" stroke-width="1px">-200</text><text x="119.50390625" y="0" dx="0em" dy="0.95em" style="text-anchor: middle; visibility: inherit; font-family: Roboto, sans-serif; font-size: 12px; font-weight: 200;" fill="rgb(50, 49, 63)" stroke="none" stroke-width="1px">0</text><text x="239.0078125" y="0" dx="0em" dy="0.95em" style="text-anchor: middle; visibility: inherit; font-family: Roboto, sans-serif; font-size: 12px; font-weight: 200;" fill="rgb(50, 49, 63)" stroke="none" stroke-width="1px">200</text><text x="358.51171875" y="0" dx="0em" dy="0.95em" style="text-anchor: middle; visibility: inherit; font-family: Roboto, sans-serif; font-size: 12px; font-weight: 200;" fill="rgb(50, 49, 63)" stroke="none" stroke-width="1px">400</text><text x="478.015625" y="0" dx="0em" dy="0.95em" style="text-anchor: middle; visibility: inherit; font-family: Roboto, sans-serif; font-size: 12px; font-weight: 200;" fill="rgb(50, 49, 63)" stroke="none" stroke-width="1px">600</text><text x="597.51953125" y="0" dx="0em" dy="0.95em" style="text-anchor: middle; visibility: inherit; font-family: Roboto, sans-serif; font-size: 12px; font-weight: 200;" fill="rgb(50, 49, 63)" stroke="none" stroke-width="1px">800</text><text x="717.0234375" y="0" dx="0em" dy="0.95em" style="text-anchor: middle; visibility: inherit; font-family: Roboto, sans-serif; font-size: 12px; font-weight: 200;" fill="rgb(50, 49, 63)" stroke="none" stroke-width="1px">1k</text><text x="836.52734375" y="0" dx="0em" dy="0.95em" style="text-anchor: middle; visibility: inherit; font-family: Roboto, sans-serif; font-size: 12px; font-weight: 200;" fill="rgb(50, 49, 63)" stroke="none" stroke-width="1px">1.2k</text><text x="956.03125" y="0" dx="0em" dy="0.95em" style="text-anchor: middle; visibility: inherit; font-family: Roboto, sans-serif; font-size: 12px; font-weight: 200;" fill="rgb(50, 49, 63)" stroke="none" stroke-width="1px">1.4k</text><text x="1075.53515625" y="0" dx="0em" dy="0.95em" style="text-anchor: middle; visibility: inherit; font-family: Roboto, sans-serif; font-size: 12px; font-weight: 200;" fill="rgb(50, 49, 63)" stroke="none" stroke-width="1px">1.6k</text><text x="1195.0390625" y="0" dx="0em" dy="0.95em" style="text-anchor: middle; visibility: inherit; font-family: Roboto, sans-serif; font-size: 12px; font-weight: 200;" fill="rgb(50, 49, 63)" stroke="none" stroke-width="1px">1.8k</text><text x="1314.54296875" y="0" dx="0em" dy="0.95em" style="text-anchor: middle; visibility: inherit; font-family: Roboto, sans-serif; font-size: 12px; font-weight: 200;" fill="rgb(50, 49, 63)" stroke="none" stroke-width="1px">2k</text><text x="1434.046875" y="0" dx="0em" dy="0.95em" style="text-anchor: middle; visibility: hidden; font-family: Roboto, sans-serif; font-size: 12px; font-weight: 200;" fill="rgb(50, 49, 63)" stroke="none" stroke-width="1px">2.2k</text></g><line x1="0" y1="0" x2="1434.046875" y2="0" fill="rgb(0, 0, 0)" stroke="rgb(204, 204, 204)" stroke-width="1px"></line></g></g></g></g></svg>