<svg viewBox="0 0 1496 400" xmlns="http://www.w3.org/2000/svg"><g><g><g><g><g><line x1="30.78125" y1="378" x2="25.78125" y2="378" style="visibility: inherit;" fill="rgb(0, 0, 0)" stroke="rgb(204, 204, 204)" stroke-width="1px"></line><line x1="30.78125" y1="343.6363636363636" x2="25.78125" y2="343.6363636363636" style="visibility: inherit;" fill="rgb(0, 0, 0)" stroke="rgb(204, 204, 204)" stroke-width="1px"></line><line x1="30.78125" y1="309.27272727272725" x2="25.78125" y2="309.27272727272725" style="visibility: inherit;" fill="rgb(0, 0, 0)" stroke="rgb(204, 204, 204)" stroke-width="1px"></line><line x1="30.78125" y1="274.90909090909093" x2="25.78125" y2="274.90909090909093" style="visibility: inherit;" fill="rgb(0, 0, 0)" stroke="rgb(204, 204, 204)" stroke-width="1px"></line><line x1="30.78125" y1="240.54545454545453" x2="25.78125" y2="240.54545454545453" style="visibility: inherit;" fill="rgb(0, 0, 0)" stroke="rgb(204, 204, 204)" stroke-width="1px"></line><line x1="30.78125" y1="206.18181818181816" x2="25.78125" y2="206.18181818181816" style="visibility: inherit;" fill="rgb(0, 0, 0)" stroke="rgb(204, 204, 204)" stroke-width="1px"></line><line x1="30.78125" y1="171.81818181818184" x2="25.78125" y2="171.81818181818184" style="visibility: inherit;" fill="rgb(0, 0, 0)" stroke="rgb(204, 204, 204)" stroke-width="1px"></line><line x1="30.78125" y1="137.45454545454547" x2="25.78125" y2="137.45454545454547" style="visibility: inherit;" fill="rgb(0, 0, 0)" stroke="rgb(204, 204, 204)" stroke-width="1px"></line><line x1="30.78125" y1="103.09090909090908" x2="25.78125" y2="103.09090909090908" style="visibility: inherit;" fill="rgb(0, 0, 0)" stroke="rgb(204, 204, 204)" stroke-width="1px"></line><line x1="30.78125" y1="68.7272727272727" x2="25.78125" y2="68.7272727272727" style="visibility: inherit;" fill="rgb(0, 0, 0)" stroke="rgb(204, 204, 204)" stroke-width="1px"></line><line x1="30.78125" y1="34.363636363636374" x2="25.78125" y2="34.363636363636374" style="visibility: inherit;" fill="rgb(0, 0, 0)" stroke="rgb(204, 204, 204)" stroke-width="1px"></line><line x1="30.78125" y1="0" x2="25.78125" y2="0" style="visibility: inherit;" fill="rgb(0, 0, 0)" stroke="rgb(204, 204, 204)" stroke-width="1px"></line></g><g transform="translate(20.78125, 0)"><text x="0" y="378" dx="0em" dy="0.3em" style="text-anchor: end; visibility: hidden; font-family: Roboto, sans-serif; font-size: 12px; font-weight: 200;" fill="rgb(50, 49, 63)" stroke="none" stroke-width="1px">-1</text><text x="0" y="343.6363636363636" dx="0em" dy="0.3em" style="text-anchor: end; visibility: inherit; font-family: Roboto, sans-serif; font-size: 12px; font-weight: 200;" fill="rgb(50, 49, 63)" stroke="none" stroke-width="1px">0</text><text x="0" y="309.27272727272725" dx="0em" dy="0.3em" style="text-anchor: end; visibility: inherit; font-family: Roboto, sans-serif; font-size: 12px; font-weight: 200;" fill="rgb(50, 49, 63)" stroke="none" stroke-width="1px">1</text><text x="0" y="274.90909090909093" dx="0em" dy="0.3em" style="text-anchor: end; visibility: inherit; font-family: Roboto, sans-serif; font-size: 12px; font-weight: 200;" fill="rgb(50, 49, 63)" stroke="none" stroke-width="1px">2</text><text x="0" y="240.54545454545453" dx="0em" dy="0.3em" style="text-anchor: end; visibility: inherit; font-family: Roboto, sans-serif; font-size: 12px; font-weight: 200;" fill="rgb(50, 49, 63)" stroke="none" stroke-width="1px">3</text><text x="0" y="206.18181818181816" dx="0em" dy="0.3em" style="text-anchor: end; visibility: inherit; font-family: Roboto, sans-serif; font-size: 12px; font-weight: 200;" fill="rgb(50, 49, 63)" stroke="none" stroke-width="1px">4</text><text x="0" y="171.81818181818184" dx="0em" dy="0.3em" style="text-anchor: end; visibility: inherit; font-family: Roboto, sans-serif; font-size: 12px; font-weight: 200;" fill="rgb(50, 49, 63)" stroke="none" stroke-width="1px">5</text><text x="0" y="137.45454545454547" dx="0em" dy="0.3em" style="text-anchor: end; visibility: inherit; font-family: Roboto, sans-serif; font-size: 12px; font-weight: 200;" fill="rgb(50, 49, 63)" stroke="none" stroke-width="1px">6</text><text x="0" y="103.09090909090908" dx="0em" dy="0.3em" style="text-anchor: end; visibility: inherit; font-family: Roboto, sans-serif; font-size: 12px; font-weight: 200;" fill="rgb(50, 49, 63)" stroke="none" stroke-width="1px">7</text><text x="0" y="68.7272727272727" dx="0em" dy="0.3em" style="text-anchor: end; visibility: inherit; font-family: Roboto, sans-serif; font-size: 12px; font-weight: 200;" fill="rgb(50, 49, 63)" stroke="none" stroke-width="1px">8</text><text x="0" y="34.363636363636374" dx="0em" dy="0.3em" style="text-anchor: end; visibility: inherit; font-family: Roboto, sans-serif; font-size: 12px; font-weight: 200;" fill="rgb(50, 49, 63)" stroke="none" stroke-width="1px">9</text><text x="0" y="0" dx="0em" dy="0.3em" style="text-anchor: end; visibility: hidden; font-family: Roboto, sans-serif; font-size: 12px; font-weight: 200;" fill="rgb(50, 49, 63)" stroke="none" stroke-width="1px">10</text></g><line x1="30.78125" y1="0" x2="30.78125" y2="378" fill="rgb(0, 0, 0)" stroke="rgb(204, 204, 204)" stroke-width="1px"></line></g></g><g transform="translate(30, 0)" clip-path="url(#clip_0)"><clipPath id="clip_0"><rect width="1465" height="378"></rect></clipPath><g><g><g><line x1="0" y1="0" x2="0" y2="378" fill="rgb(0, 0, 0)" stroke="rgb(60, 60, 60)" stroke-width="1px" opacity="0.25"></line><line x1="122.1015625" y1="0" x2="122.1015625" y2="378" fill="rgb(0, 0, 0)" stroke="rgb(60, 60, 60)" stroke-width="1px" opacity="0.25"></line><line x1="244.203125" y1="0" x2="244.203125" y2="378" fill="rgb(0, 0, 0)" stroke="rgb(60, 60, 60)" stroke-width="1px" opacity="0.25"></line><line x1="366.3046875" y1="0" x2="366.3046875" y2="378" fill="rgb(0, 0, 0)" stroke="rgb(60, 60, 60)" stroke-width="1px" opacity="0.25"></line><line x1="488.40625" y1="0" x2="488.40625" y2="378" fill="rgb(0, 0, 0)" stroke="rgb(60, 60, 60)" stroke-width="1px" opacity="0.25"></line><line x1="610.5078125" y1="0" x2="610.5078125" y2="378" fill="rgb(0, 0, 0)" stroke="rgb(60, 60, 60)" stroke-width="1px" opacity="0.25"></line><line x1="732.609375" y1="0" x2="732.609375" y2="378" fill="rgb(0, 0, 0)" stroke="rgb(60, 60, 60)" stroke-width="1px" opacity="0.25"></line><line x1="854.7109375" y1="0" x2="854.7109375" y2="378" fill="rgb(0, 0, 0)" stroke="rgb(60, 60, 60)" stroke-width="1px" opacity="0.25"></line><line x1="976.8125" y1="0" x2="976.8125" y2="378" fill="rgb(0, 0, 0)" stroke="rgb(60, 60, 60)" stroke-width="1px" opacity="0.25"></line><line x1="1098.9140625" y1="0" x2="1098.9140625" y2="378" fill="rgb(0, 0, 0)" stroke="rgb(60, 60, 60)" stroke-width="1px" opacity="0.25"></line><line x1="1221.015625" y1="0" x2="1221.015625" y2="378" fill="rgb(0, 0, 0)" stroke="rgb(60, 60, 60)" stroke-width="1px" opacity="0.25"></line><line x1="1343.1171875" y1="0" x2="1343.1171875" y2="378" fill="rgb(0, 0, 0)" stroke="rgb(60, 60, 60)" stroke-width="1px" opacity="0.25"></line><line x1="1465.21875" y1="0" x2="1465.21875" y2="378" fill="rgb(0, 0, 0)" stroke="rgb(60, 60, 60)" stroke-width="1px" opacity="0.25"></line></g><g><line x1="0" y1="378" x2="1465.21875" y2="378" fill="rgb(0, 0, 0)" stroke="rgb(60, 60, 60)" stroke-width="1px" opacity="0.25"></line><line x1="0" y1="343.6363636363636" x2="1465.21875" y2="343.6363636363636" fill="rgb(0, 0, 0)" stroke="rgb(60, 60, 60)" stroke-width="1px" opacity="0.25"></line><line x1="0" y1="309.27272727272725" x2="1465.21875" y2="309.27272727272725" fill="rgb(0, 0, 0)" stroke="rgb(60, 60, 60)" stroke-width="1px" opacity="0.25"></line><line x1="0" y1="274.90909090909093" x2="1465.21875" y2="274.90909090909093" fill="rgb(0, 0, 0)" stroke="rgb(60, 60, 60)" stroke-width="1px" opacity="0.25"></line><line x1="0" y1="240.54545454545453" x2="1465.21875" y2="240.54545454545453" fill="rgb(0, 0, 0)" stroke="rgb(60, 60, 60)" stroke-width="1px" opacity="0.25"></line><line x1="0" y1="206.18181818181816" x2="1465.21875" y2="206.18181818181816" fill="rgb(0, 0, 0)" stroke="rgb(60, 60, 60)" stroke-width="1px" opacity="0.25"></line><line x1="0" y1="171.81818181818184" x2="1465.21875" y2="171.81818181818184" fill="rgb(0, 0, 0)" stroke="rgb(60, 60, 60)" stroke-width="1px" opacity="0.25"></line><line x1="0" y1="137.45454545454547" x2="1465.21875" y2="137.45454545454547" fill="rgb(0, 0, 0)" stroke="rgb(60, 60, 60)" stroke-width="1px" opacity="0.25"></line><line x1="0" y1="103.09090909090908" x2="1465.21875" y2="103.09090909090908" fill="rgb(0, 0, 0)" stroke="rgb(60, 60, 60)" stroke-width="1px" opacity="0.25"></line><line x1="0" y1="68.7272727272727" x2="1465.21875" y2="68.7272727272727" fill="rgb(0, 0, 0)" stroke="rgb(60, 60, 60)" stroke-width="1px" opacity="0.25"></line><line x1="0" y1="34.363636363636374" x2="1465.21875" y2="34.363636363636374" fill="rgb(0, 0, 0)" stroke="rgb(60, 60, 60)" stroke-width="1px" opacity="0.25"></line><line x1="0" y1="0" x2="1465.21875" y2="0" fill="rgb(0, 0, 0)" stroke="rgb(60, 60, 60)" stroke-width="1px" opacity="0.25"></line></g></g></g><g><g><line x1="0" y1="343.6363636363636" x2="1465.21875" y2="343.6363636363636" fill="rgb(0, 0, 0)" stroke="rgb(153, 153, 153)" stroke-width="1.5px"></line></g></g><g><g><line x1="122.1015625" y1="0" x2="122.1015625" y2="378" fill="rgb(0, 0, 0)" stroke="rgb(153, 153, 153)" stroke-width="1.5px"></line></g></g><g><g><g><g><g><path stroke="rgb(255, 112, 67)" stroke-width="2px" d="M125.1541015625,61.23621524463999L125.76460937499999,53.38502935929731L128.206640625,97.70504119179468L128.8171484375,103.66474186290395L130.0381640625,127.64349616657603L130.64867187500002,132.6195045817982L131.2591796875,127.98507577722724L132.4801953125,145.81811714172363L133.090703125,150.91036683862862L133.7012109375,157.26558936725962L134.31171874999998,141.84505436637184L136.75375,155.35003332658246L142.2483203125,155.28411301699552L142.858828125,179.26601340553978L144.07984374999998,190.37415088306776L145.9113671875,187.32166203585538L146.521875,190.3713652870872L147.742890625,173.21481409939852L148.96390625,196.80641971934924L149.5744140625,176.34267789667305L150.79542968750002,182.51759043606845L152.0164453125,195.23259076205167L152.626953125,186.89666201851585L154.4584765625,183.07541422410443L155.068984375,202.85814337296918L155.6794921875,185.13863962346855L156.29000000000002,192.51037528298116L156.9005078125,198.82122490622783L158.73203125,185.61845033819023L159.3425390625,179.03213804418388L160.56355468750002,200.5470654747703L161.7845703125,202.50245553796944L162.395078125,210.11908604881978L163.0055859375,201.76836906779894L163.61609375,203.43640032681552L165.4476171875,191.99766176397148L166.058125,205.0119661851363L166.6686328125,205.47747204520488L167.279140625,216.9768464782021L168.50015625,200.8484833457253L170.3316796875,206.02153171192518L173.38421875,220.46495337919757L173.9947265625,207.6671471162276L174.605234375,214.38843792135063L175.2157421875,209.21476689251986L175.82625,210.51392789320514L176.43675781250002,211.54391839287496L179.489296875,220.5494716384194L184.37335937499998,213.97261398488823L186.2048828125,216.60872996937147L186.815390625,224.47356527501884L191.0889453125,214.81260225989604L192.92046874999997,218.48367365923795L194.141484375,229.52053265138105L194.75199218749998,224.19438301433215L195.3625,222.51199774308637L197.80453125000003,226.19333488290962L198.4150390625,218.1417089809071L199.025546875,205.90774830904874L200.8570703125,214.33846924521708L201.46757812500002,218.34382035515523L203.29910156250003,226.78840372779155L205.74113281249998,219.05998888882723L206.9621484375,214.02313158728862L208.1831640625,231.35038245807996L208.79367187499997,223.29559408534655L209.4041796875,225.96009037711406L210.0146875,232.0606438896873L212.45671875,226.8480236747048L213.677734375,222.13536058772692L215.5092578125,221.0017704963684L216.11976562499999,213.83240838484332L216.7302734375,223.70352823084053L217.9512890625,230.99707057259297L218.561796875,228.04481402310458L219.17230468750003,223.21021556854248L221.003828125,222.48018459840253L222.22484375000002,236.7062478498979L222.8353515625,231.45269575985995L224.0563671875,225.06909292394462L224.66687499999998,227.60555830868807L226.4983984375,229.57168930227104L229.5509375,226.11814017729327L230.16144531249998,227.52548881010577L230.771953125,230.3904496973211L231.99296875,226.7274319475347L232.6034765625,225.4986891746521L233.8244921875,230.55240752480245L235.0455078125,231.56756882234052L235.65601562499998,235.05925603346392L236.2665234375,229.02302520925346L236.87703125,236.26227300817314L238.098046875,234.45349541577426L238.70855468749997,226.12093396620318L242.982109375,232.23744730515912L245.424140625,230.53827472166583L247.866171875,236.55287621238017L248.4766796875,220.84191825173116L249.08718750000003,235.99605196172539L251.52921874999998,244.19369225068525L253.3607421875,244.52521913701835L255.192265625,234.8214726448059L255.8027734375,237.92891966212878L257.634296875,231.6576992381703L258.2448046875,241.60666010596537L259.4658203125,236.32681690562853L260.076328125,239.42423577742144L260.6868359375,230.7831368012862L261.9078515625,220.38994711095634L262.518359375,233.46094660325483L263.739375,233.07293766195122L264.3498828125,241.25085756995463L264.960390625,231.54072878577495L266.79191406250004,242.8953833146529L268.62343749999997,241.64013641530815L271.6759765625,243.6068572998047L272.8969921875,239.22635195472026L274.11800781249997,234.8068810376254L274.728515625,242.88438840345904L277.7810546875,237.84793255545878L279.61257812499997,238.8464458205483L280.2230859375,238.57311331142077L280.83359375000003,244.831872289831L281.4441015625,248.02404238960958L282.66511718749996,244.9203723127192L285.1071484375,240.33929586410522L286.3281640625,244.21809898723254L287.5491796875,248.09999084472656L288.7701953125,242.51290460066363L291.822734375,243.60716863112017L293.04375,239.0881290435791L295.48578125,235.62751761349764L298.5383203125,244.21106126091695L299.7593359375,245.66782964359632L300.36984375,241.81896348433062L302.2013671875,242.15362826260653L303.4223828125,229.50177903608844L304.032890625,241.9492064822804L304.6433984375,245.46324400468305L305.8644140625,244.26876406236127L306.474921875,237.42583283511075L307.08542968750004,229.28524810617623L309.5274609375,246.10150597312236L310.13796875,243.65322108702227L311.358984375,242.61410366405138L313.1905078125,238.06466830860487L315.63253906250003,243.1487824266607L316.243046875,243.60260516946968L316.8535546875,239.99842084537855L317.4640625,246.49337378415194L318.685078125,233.81094035235319L320.5166015625,245.02316080440173L321.12710937500003,236.1325707435608L321.7376171875,243.35877539894796L323.569140625,245.33654854514384L324.1796484375,236.39612089503893L325.40066406249997,240.97477223656392L329.0637109375,243.5646309419112L330.2847265625,238.87061496214434L332.11625,234.42232131958008L332.7267578125,241.60206387259745L333.94777343749996,238.5498535849831L334.55828125,249.1197074109858L337.6108203125,252.4647739583796L338.221328125,244.39184644005513L339.44234374999996,241.29799149253154L340.663359375,243.42460558631205L341.2738671875,245.02192367206922L341.884375,243.6010239341042L343.7158984375,243.50660042329267L344.32640625,244.47735604372892L346.1579296875,240.30625378001818L346.7684375,241.40658057819715L347.989453125,244.20136083256116L348.5999609375,251.22920647534457L349.8209765625,244.61748790740967L352.2630078125,246.96445083618164L352.87351562500004,249.08124980059537L353.4840234375,233.42945298281583L354.7050390625,243.94692121852526L355.315546875,231.77534970370206L357.1470703125,241.49231958389282L357.757578125,236.33835255015978L358.36808593750004,245.07373575730756L358.97859375,245.4766722158952L360.19960937499997,253.93666648864746L360.8101171875,251.11947857249865L361.42062500000003,249.67053443735298L362.0311328125,256.28364580327815L367.525703125,246.28098028356376L368.1362109375,251.26501776955342L369.3572265625,243.52774637395683L371.18875,248.43125555732036L375.46230468749997,242.23561490665784L376.0728125,255.93775671178642L378.51484375,253.85942355069247L379.1253515625,241.37076928398824L379.73585937499996,246.8802357153459L380.956875,240.09601501985028L382.177890625,254.3451987179843L384.619921875,245.1813334985213L390.1144921875,248.33067096363416L390.725,247.15646852146497L391.3355078125,242.6987038525668L391.94601562500003,244.97784571214154L393.16703125,243.59084831584582L393.7775390625,244.2811845432628L395.60906250000005,247.59683847427368L397.4405859375,253.78304906324908L401.714140625,253.70353668386284L402.3246484375,255.69984223625875L402.93515625000003,249.5394229888916L403.54566406249995,247.21417951583862L404.7666796875,242.90945876728406L405.3771875,251.0243750485507L405.9876953125,244.07710686596957L407.2087109375,244.68784878470683L407.81921875,240.886231249029L408.4297265625,250.82676159251818L409.65074218750004,242.4546037153764L410.8717578125,255.7793710015037L411.48226562499997,254.774385322224L413.924296875,254.01876783370972L418.1978515625,250.01072944294324L420.029375,250.46491267464376L420.63988281250005,246.19031732732597L421.8608984375,253.5614630959251L423.0819140625,254.46171855926514L424.9134375,253.04153979908338L431.62902343749994,248.25788497924805L433.460546875,243.68254358118233L434.0710546875,253.40481428666547L434.68156250000004,253.11822561784223L435.902578125,253.17536310716108L437.12359375,249.47256049242887L437.73410156250003,261.16040507229894L438.9551171875,249.6340677087957L442.00765625,246.97642889889804L442.6181640625,254.5940507542003L446.28121093749996,259.7521388313987L447.5022265625,249.0192293253812L448.112734375,244.69642678174105L448.72324218750003,250.27359958128497L449.33374999999995,254.19493220069194L449.9442578125,254.2920593781905L450.554765625,246.7622083750638L451.1652734375,248.73803160407329L451.77578125,255.23270598324862L452.38628906250005,262.30704650011927L452.996796875,255.40721537850118L454.2178125,252.67188301953402L456.0493359375,251.48792279850355L456.65984375,241.22436163642192L457.27035156249997,254.3374072421681L458.49136718750003,253.06069486791435L460.9333984375,253.65805773301557L462.1544140625,242.2471505511891L463.37542968749995,248.34120707078412L465.8174609375,250.54435951059517L466.42796875000005,253.79750139063057L467.03847656249997,248.97286553816363L468.2594921875,255.92128892378375L469.48050781250004,253.42099532214078L470.7015234375,251.9906982942061L471.9225390625,256.5113600817594L472.533046875,257.9755102937872L474.36457031249995,251.80781572515312L475.5855859375,247.25011370398784L476.19609375,244.09530336206612L476.8066015625,260.92811094630844L477.41710937499994,253.841251633384L478.02761718749997,249.0106267495589L478.638125,254.15126388723198L479.859140625,256.41692837801844L480.46964843750004,251.4196675040505L483.52218750000003,249.91603556546298L484.13269531250006,252.42407967827535L485.3537109375,253.26618992198595L485.96421875,255.46768739006734L486.5747265625,245.34564269672742L488.40625,254.1916140643033L489.627265625,242.65750161084262L490.84828125,247.43245553970337L492.06929687499996,254.6444618485191L493.2903125,252.32530572197652L494.51132812500003,251.21954701163554L495.12183593749995,251.249549518932L495.73234375,246.94581192189995L497.5638671875,252.7612269141457L500.0058984375,257.902445749803L500.61640625,254.44300590861926L501.837421875,250.96760624105278L502.4479296875,262.5085843693126L503.6689453125,258.5926836620677L506.11097656249996,251.667675668543L509.16351562499995,255.7220450748097L513.4370703124999,248.6550781943581L514.047578125,249.53654727068815L515.26859375,257.10638796199447L515.8791015625001,264.32886483452535L516.489609375,258.79467214237565L517.1001171875,255.20634932951495L517.710625,252.61837499791923L518.3211328125,245.86555780063978L519.5421484374999,253.22383247722277L520.15265625,256.84728657115585L522.5946875000001,254.08119795539164L523.2051953125,255.8162227977406L524.4262109375,250.2364446466619L525.6472265625,256.19790679758245L527.47875,257.6662599823692L528.699765625,259.03722381591797L529.3102734375,256.6787744001909L529.92078125,261.3921175003052L531.7523046875,255.37726202878085L532.3628125,246.91634195501152L532.9733203125,261.2748930670998L533.5838281250001,254.2701350992376L534.1943359375,260.8207426071167L535.4153515625,262.2150071317499L536.025859375,254.83151461861348L536.6363671875,260.97353254665023L537.8573828125,255.2917196533897L538.467890625,255.7248142849315L539.0783984375,249.74061675505206L539.6889062500001,251.71836532245985L540.2994140625,254.8648188764399L540.909921875,260.94099023125386L542.1309375,251.32182754169813L542.7414453125,246.9680475321683L544.57296875,259.5040733164007L547.015,253.40779651295057L548.8465234375,258.86421372673726L549.45703125,255.05208466269755L550.0675390625,250.806238304485L551.2885546875,258.1112589402632L551.8990625,257.35755040428853L552.5095703125,247.80729844353414L553.120078125,263.3830075263977L554.34109375,262.91721491380173L554.9516015625,260.54285482926804L555.562109375,249.76086148348722L558.004140625,256.82326490228826L560.446171875,263.9419783245433L561.0566796875,254.25338875163683L562.2776953125,257.33576540513474L562.888203125,246.21194666082206L563.4987109375,250.25555875084615L564.10921875,256.59899165413594L564.7197265625,252.80251108516345L565.3302343749999,252.73393626646563L567.1617578125,257.45246549086136L567.772265625,264.15542871301824L571.4353125,255.04343292929912L572.656328125,247.82986996390605L573.2668359375,256.7868145595897L573.87734375,252.6376201889732L574.4878515625,259.69045426628804L575.7088671875,261.6659579710527L577.540390625,252.24198363044047L578.1508984375,254.77443447980014L579.982421875,266.5386617400429L580.5929296875,255.00766259973702L581.2034375,256.91006898880005L582.424453125,247.55013058402324L583.64546875,266.1626390543851L585.4769921875001,255.89751304279676L586.0875,261.2785798853094L587.3085156249999,251.13704421303487L589.1400390625,254.72831648046318L589.750546875,249.30590811642733L590.3610546875,259.0924605456266L591.5820703125,259.9544468359514L592.192578125,260.5688428011808L592.8030859375,254.85822356830946L594.0241015624999,251.49547667936847L594.634609375,255.3019772009416L595.2451171875,255.83406699787488L598.29765625,258.70341929522425L600.7396875,257.6973439563405L601.3501953125,257.0218451239846L602.5712109375,265.4931947968223L603.7922265625,257.7427327849648L605.0132421874999,258.9918022155762L605.62375,243.36768930608574L606.2342578125,260.36834543401545L606.844765625,262.3355578942732L607.4552734375001,256.4742952693593L608.06578125,253.40953341397372L609.286796875,254.98908922889018L610.5078125,260.1398610201749L611.728828125,257.418235432018L613.5603515625,260.3471585187045L614.7813671875,258.79758882522583L615.391875,254.93667086687955L616.0023828125,260.8527114174583L618.4444140625,256.2035189541903L619.6654296875,254.26173734664917L620.2759375,253.922099460255L621.496953125,253.95950018275866L623.3284765625,254.71609262986615L624.5494921875,259.79747850244695L625.1600000000001,254.0374968702143L625.7705078125,257.304763360457L627.60203125,260.6666663776744L629.4335546875,261.51481481031936L630.0440625,258.0399804548784L631.2650781250001,254.19460448351774L632.48609375,260.54395268180156L633.707109375,255.81009448658338L636.7596484375,253.9834317294034L637.9806640625,258.1652585376393L638.591171875,261.349366794933L639.2016796875,255.8190657442266L639.8121874999999,269.67691417173904L641.6437109375,265.86897988752884L645.3067578125,252.31265583905306L646.5277734375,262.022628957575L647.13828125,265.8788523674011L647.7487890625,262.29286453940654L648.359296875,261.5768270926042L648.9698046875001,259.71227203715927L651.4118359375,257.4593557444486L652.6328515625,256.2652772556651L653.2433593750001,264.0701567042958L655.0748828125,260.18973957408554L655.685390625,252.86576869271016L656.2958984375,260.2366113229231L656.9064062499999,256.31245214288884L657.5169140625,256.3981337980791L658.7379296875,256.00339846177536L659.3484375,253.2272079641169L659.9589453125001,259.3961724368009L660.569453125,250.659724148837L661.79046875,250.70088542591444L663.6219921875,255.68644679676405L664.8430078125,253.220579884269L665.453515625,255.2388998378407L666.67453125,259.55363234606654L667.2850390625,260.97969362952495L669.1165625,259.8586387200789L669.7270703125,254.81330173665825L670.9480859375001,258.15635282343084L671.55859375,259.5676094835455L675.8321484375,257.06620983643967L676.44265625,259.21021751923996L677.0531640625001,264.0331492424011L677.663671875,257.64124696904963L678.2741796875,260.28764507987285L678.8846874999999,259.2369182760065L679.4951953125,259.4443468614058L680.7162109375,260.3837727199901L681.32671875,255.21487816897306L681.9372265625,250.54870176315308L683.76875,264.1167089288885L684.3792578125,262.942776853388L684.989765625,258.89968911084264L685.6002734374999,262.06090632351965L686.8212890625,269.19934012673116L690.4843359375,258.87022733688354L691.09484375,258.69106435775757L691.7053515625,257.89037756486374L692.9263671875,259.28168444199997L695.3683984375,255.58113488284025L697.199921875,252.2058937766335L699.0314453125001,265.0547665682706L701.4734765625,257.79234916513616L703.305,262.5990670811046L703.9155078125,258.23937996951014L704.526015625,263.00998345288366L705.7470312500001,264.52970630472356L706.3575390625,264.4556995738637L706.968046875,259.5374267318032L708.7995703125,267.23575713417745L709.410078125,257.8667737353932L710.63109375,259.98494091900915L711.852109375,246.4359986998818L712.4626171875,263.9562831791964L713.6836328124999,258.97546551444316L714.9046484375,259.1111977750605L715.51515625,264.92673566124654L716.7361718750001,264.8457567475059L717.9571875,265.0297617478804L718.5676953125,262.36748573996806L719.178203125,253.94854623621163L719.7887109375,261.0383222319863L721.620234375,255.3793430328369L722.2307421875,260.75174994902176L722.8412500000001,259.7969049973921L724.6727734374999,261.5018044385043L725.28328125,260.9868296709928L730.16734375,256.6393991817128L731.9988671875,256.14907693862915L732.609375,253.851140499115L733.8303906250001,265.9825420813127L735.05140625,266.9511839259755L735.6619140625,266.56483814933085L737.4934374999999,252.732281294736L738.1039453125001,259.21026667681605L739.3249609375001,261.148853041909L739.93546875,253.83255893533882L740.5459765625,266.5046119256453L741.156484375,260.8238968849182L742.9880078125,262.492395140908L747.8720703125,260.7346676913175L748.482578125,256.91680357672954L749.0930859375,260.65527001294225L750.3141015625,263.2951793237166L751.5351171875001,255.1034051721746L752.145625,262.3508213216608L752.7561328125,263.6710463437167L753.9771484375,259.5662166855552L755.1981640624999,255.34648938612506L755.8086718750001,265.03235071355647L756.4191796875,250.24205680326983L758.250703125,261.0015277862549L758.8612109375,263.44157877835363L759.4717187499999,259.4493445483121L762.5242578125,261.4303211298856L763.7452734375,261.64859715375036L764.35578125,263.3552990393205L765.5767968749999,260.21556368741125L766.1873046875,256.3520567633889L767.4083203125001,267.3144584135576L771.0713671875,251.50451348044658L771.6818749999999,260.5931839942932L772.9028906249999,259.4485989917409L774.12390625,267.82903992046005L776.5659375,258.38834381103516L777.7869531250001,260.8066261898387L779.0079687499999,265.7407277714122L780.228984375,256.4591875076294L781.45,256.42377766695887L782.671015625,253.21048619530416L783.2815234374999,263.20961236953735L783.8920312500001,257.48791629617864L784.5025390625,265.6142125563188L785.1130468750001,258.12099214033645L787.555078125,257.24381615898824L788.77609375,262.17544347589666L789.3866015624999,263.15663688833064L793.0496484375,266.12492700056595L794.2706640625,269.5706518780101L795.4916796875001,259.1803215200251L796.1021875,272.64935809915715L796.7126953124999,258.3822974291715L800.3757421875,252.9303945194591L802.207265625,256.4975468028676L803.42828125,261.4621998180043L805.2598046874999,260.90804646231913L807.0913281249999,248.79277675802055L807.7018359375,256.53313688798386L808.9228515625,266.63172522458166L809.533359375,257.50430215488785L810.1438671875,256.34461758353495L810.754375,260.53923355449325L811.975390625,261.1986578594554L812.5858984375,262.90017362074417L813.8069140625,259.96950544010514L814.417421875,251.43611890619454L815.0279296875,264.76786656813186L816.859453125,263.27094463868576L817.4699609374999,264.5322297269648L818.6909765624999,259.10972304777664L823.5750390625001,248.87724585966632L824.185546875,256.07658589969986L824.7960546874999,260.4202476414767L825.4065625000001,260.92033585635096L827.2380859375,262.4468260678378L827.84859375,253.17304450815377L828.4591015625,255.24233267524028L830.290625,256.658906546506L830.9011328125001,266.82126864519984L831.511640625,265.18029043891215L833.3431640625,258.8891448107633L840.6692578125,261.4853530363603L842.5007812499999,261.00964697924525L843.721796875,249.8693686398593L844.3323046875,254.39963254061612L845.5533203125,261.9635579369285L846.163828125,265.56824202971023L847.9953515625,259.3319726423784L849.826875,264.20257082852453L850.4373828125,257.1445178552107L851.0478906249999,263.499166878787L851.6583984375001,259.30142940174454L852.26890625,264.06612578305334L852.8794140624999,264.4508985172618L853.489921875,257.16277170181274L854.1004296875,253.09861174496737L855.3214453125,270.7860647548329L856.5424609375,263.16872965205795L857.1529687499999,256.381797096946L858.373984375,262.6814469857649L859.595,256.3311156359586L860.816015625,261.9109429446134L861.4265234375,258.1825538115068L862.03703125,255.11689892682162L862.6475390625,256.9086106473749L863.2580468749999,268.29985479875046L863.8685546875,257.20280235463923L866.3105859375,265.2351748726585L869.3631250000001,264.95478825135666L869.9736328125,265.8163567022844L871.1946484375001,264.76380287517196L871.80515625,258.94416033137924L874.2471875,257.49197179620916L874.8576953124999,260.42252527583724L875.4682031250001,266.5973722717979L876.6892187500001,265.1766445853493L878.5207421875,259.6174306869507L880.352265625,261.30360928448766L881.57328125,265.9658940488642L882.7942968750001,265.16760778427124L883.4048046875,263.22157404639506L884.6258203125,263.52180394259364L885.236328125,265.07864076440984L887.0678515625001,265.9855734651739L887.678359375,269.2810727899725L888.2888671874999,260.90413843501693L889.5098828125,255.5242677601901L890.120390625,260.4306198900396L890.7308984375,256.54667160727763L891.9519140625,269.2686605020003L892.5624218749999,267.8700373389504L893.1729296875001,258.92825785550207L893.7834375,263.40471878918737L894.3939453125,268.3516504981301L895.004453125,259.4073557853699L898.0569921875,257.13953655416316L898.6674999999999,268.7887105074796L899.888515625,265.11869599602437L902.330546875,263.13321330330587L902.9410546874999,264.2201036973433L904.1620703125,266.0739260153337L906.6041015625,262.9400649937716L907.8251171875,261.9182428446683L909.0461328124999,269.66377271305436L910.2671484374999,265.6043810410933L910.8776562500001,263.6389874111522L911.4881640625,256.26232780109757L912.098671875,265.6645990718495L913.3196875,264.73878986185247L915.1512109375001,257.89439210024744L915.76171875,256.68151903152466L916.9827343750001,267.35257192091507L917.5932421875,267.5332423990423L918.20375,256.5842198025096L919.424765625,259.3650966557589L921.866796875,263.1712284955111L923.0878125,263.49437401511454L923.6983203125,253.68274302916095L924.9193359375,263.6997215964577L925.52984375,266.3205823464827L927.3613671875,269.19155684384435L927.971875,254.76191568374634L931.0244140625,259.04456468061966L931.634921875,258.6779802495783L932.2454296875,264.5239302895286L932.8559375000001,257.25078014893967L934.0769531249999,265.1403335224498L935.29796875,265.1908347389915L935.9084765625,255.09649033979937L936.518984375,259.9256896539168L937.1294921875,265.96595959229904L937.74,258.4960726391185L938.3505078124999,258.0030795010653L940.18203125,265.18673008138484L942.0135546875,256.5604603073814L943.2345703125001,262.02955198287964L944.4555859374999,267.9692864851518L945.06609375,268.6364613012834L945.6766015625,262.0493215214122L946.287109375,265.38962797685105L946.8976171875,267.6653943495317L949.3396484375,265.2077039805326L951.7816796875,263.0467369339683L953.0026953125,257.5485685521906L953.613203125,265.2526995485479L955.4447265625,258.9821919094432L956.0552343749999,258.98610812967473L956.6657421875001,263.81635613874954L958.497265625,259.24387407302856L960.3287890624999,262.59163609418005L960.9392968750001,265.51229251514786L961.5498046875,265.6301969614896L962.7708203125001,259.93491489237005L963.381328125,260.84730408408427L963.9918359375,261.2719026478854L965.823359375,270.3462846929377L967.0443750000001,263.40611978010696L967.6548828125,262.08198673074895L968.2653906250001,264.3382621244951L968.8758984375,258.20998373898595L969.48640625,261.2177146131342L970.0969140625,266.4845556345853L971.3179296875,271.19492470134384L971.9284375,258.57605201547796L973.7599609375,259.1310656287453L976.8125,262.2115087509155L984.1385937499999,268.2558178034696L984.7491015625001,266.1784022504633L985.359609375,267.83622511950404L985.9701171875,258.1577702002092L988.4121484374999,260.42298407988113L990.2436718749999,267.7964238686995L990.8541796875,262.4977041591298L992.0751953125,258.53693077780986L992.685703125,257.65339708328247L993.2962109375,264.16747231916946L993.90671875,261.615686156533L995.127734375,260.96012072129685L996.3487500000001,265.62945140491837L996.9592578125,264.91717451268977L997.569765625,262.45361800627273L998.79078125,264.6725827997381L999.4012890625,263.94227327000016L1000.011796875,261.9728487188166L1001.2328125,260.4380344911055L1002.4538281250001,268.7416339354082L1006.1168749999999,264.79392827640885L1007.337890625,261.606419953433L1010.3904296875,257.09364795684814L1011.0009375,269.8343413092873L1013.44296875,261.21532227776265L1016.4955078125,257.3856439590454L1017.106015625,264.24693554097956L1019.548046875,265.1176309152083L1021.990078125,267.28152283755213L1023.8216015625,261.3524964939464L1025.653125,265.37526577169245L1026.2636328125,265.35711843317205L1026.8741406249999,259.00754083286637L1028.7056640624999,261.0089505802501L1029.316171875,270.8168701692061L1031.1476953125,259.5932943170721L1032.3687109375,268.298019582575L1032.97921875,257.4915457638827L1033.5897265625001,261.98692417144775L1037.86328125,266.9932464252818L1038.4737890625,269.81321993741125L1039.0842968749998,274.3130798773332L1039.6948046875,262.8382596536116L1040.9158203125,270.1810333078558L1041.526328125,261.88414387269455L1042.1368359375,263.6017013896596L1042.74734375,265.03096610849553L1043.3578515625,266.1575922099027L1043.968359375,264.633854822679L1044.5788671875,265.1719008792531L1045.1893750000002,263.9207258657976L1045.7998828125,259.25105927207255L1047.63140625,261.8616706674749L1048.852421875,269.5168325250799L1051.9049609375,265.9201611172069L1052.51546875,258.11683832515365L1053.1259765625,265.1282899162986L1054.3469921875,263.2582374052568L1058.620546875,267.9557845375755L1059.8415625,263.58509432185775L1062.8941015625,266.0038109259172L1063.504609375,264.1525857665322L1065.946640625,265.0113112709739L1067.1676562500002,255.75524282455444L1067.7781640625,261.6152191595598L1068.9991796875001,254.73611614920878L1069.6096875,264.17392834750086L1070.830703125,259.8140282197432L1071.4412109375,269.94049709493464L1075.1042578125,260.4929025389931L1075.714765625,263.9320566870949L1076.3252734375,263.7761370485479L1079.3778125000001,266.6903046694669L1079.9883203125,265.0519318147139L1085.482890625,255.73551425066861L1086.0933984375,271.1561967242848L1087.924921875,266.4812784628435L1088.5354296875,262.4364865909923L1089.1459375,265.0565935915167L1090.366953125,262.44200043244797L1091.58796875,270.46527060595423L1092.808984375,255.36100725694135L1094.6405078125,267.94106184352523L1095.251015625,254.37440651113334L1096.4720312499999,263.3996883305636L1097.0825390625,263.3868336244063L1098.3035546875,256.43156094984573L1099.5245703125,265.4004508365285L1100.135078125,254.43637782877144L1101.3560937500001,260.9173454371366L1101.9666015625,266.88388720425695L1104.4086328125,258.25306216153234L1105.019140625,263.2933195287531L1106.24015625,265.6550215374339L1106.8506640624998,263.5980801148848L1107.461171875,250.13254191658712L1108.0716796875,266.56317498467183L1109.2926953125,256.58759528940374L1109.903203125,256.4565084197304L1110.5137109375,266.5807652039961L1111.12421875,263.9766098369252L1113.56625,272.4882523363287L1114.7872656250001,261.23666485873133L1115.3977734375,262.23297422582453L1116.00828125,265.3266325430437L1117.229296875,264.2000474062833L1118.4503124999999,254.34091381593183L1119.671328125,264.55250722711736L1120.89234375,266.05411551215434L1121.5028515625,266.11838085001165L1122.113359375,269.1783498417247L1123.3343750000001,258.358603477478L1123.9448828125,257.82717730782247L1124.555390625,264.82132543217057L1125.1658984375001,265.10699649290603L1125.77640625,269.71777231043035L1126.3869140625,270.6272939768705L1127.6079296875,268.41464593193746L1128.2184375,260.7602050521157L1130.0499609375,248.20190269296822L1130.6604687499998,264.4264262372797L1131.881484375,264.338884787126L1132.4919921875,271.17009193247014L1134.323515625,259.87502457878804L1134.9340234375,271.2152103944258L1135.54453125,269.77370543913406L1136.1550390625,264.05213225971573L1136.7655468750002,266.20253042741257L1137.9865625,260.29115165363663L1140.42859375,269.920588276603L1141.649609375,253.9583941372958L1142.2601171874999,260.60633364590734L1142.870625,265.1617826115001L1144.7021484375,257.3782703226263L1145.31265625,268.9885524402965L1146.533671875,265.0111310265281L1148.975703125,263.77920120412654L1149.5862109375,259.7275354645469L1150.19671875,264.9464068846269L1150.8072265625,258.83078657497055L1152.0282421875,264.5737187212164L1154.4702734375,263.6682853265242L1155.08078125,264.46759570728653L1156.301796875,254.0852206837047L1156.9123046875,269.1350993676619L1157.5228125,267.6109769127586L1158.1333203125,263.46950028159404L1159.3543359375,265.1628067276695L1161.185859375,262.349879134785L1161.7963671875,262.71090875972396L1162.406875,266.80700475519353L1163.0173828125,270.9640971097079L1163.627890625,270.11723496697164L1165.4594140625,259.7521716031161L1166.0699218749999,263.50844127481633L1168.511953125,261.3613694364374L1169.1224609375001,257.77881444584244L1170.3434765625,266.60581098903305L1170.9539843750001,260.19986603476787L1171.5644921875,257.9142107963562L1174.0065234375,266.63608386299825L1175.838046875,259.23306759920985L1177.0590625,267.4147152900696L1178.8905859375,271.8296882889488L1179.50109375,264.86876249313354L1180.1116015625,263.66098542646927L1180.722109375,271.2763624191284L1181.3326171875,273.2397979389537L1182.5536328125002,262.936746857383L1183.164140625,271.7370999943126L1183.7746484375,268.90778654271907L1185.606171875,256.7946470000527L1186.2166796875,268.8608492504466L1187.4376953125,274.31479219956833L1188.0482031249999,270.4639187726107L1188.6587109375,261.1777986613187L1190.490234375,260.949125810103L1191.71125,264.72371487184006L1192.3217578125,256.91035574132746L1192.9322656250001,262.73706059022385L1193.5427734375,267.8253285234625L1197.816328125,269.49893097444016L1198.4268359374998,262.6308802257884L1200.258359375,270.76247731122106L1203.3108984375,259.8628416928378L1205.7529296875,265.19383335113525L1206.9739453125,262.0858947580511L1208.1949609375,261.4184331893921L1209.4159765625,269.8487690578807L1210.0264843749999,269.56598190827805L1210.6369921875,262.56350976770574L1211.2475,259.77635713057083L1213.68953125,268.6376820477572L1214.3000390625,255.9968605041504L1214.9105468750001,265.0398882085627L1216.1315625,266.6593927470121L1216.7420703125001,269.6606348211115L1217.352578125,269.3364651853388L1219.794609375,262.3210809881037L1221.015625,260.6532299735329L1222.2366406249998,266.14218950271606L1223.45765625,272.0692905079234L1224.0681640625,265.00620707598597L1225.2891796875,269.1004514694214L1227.7312109375,270.7077403502031L1228.9522265625,264.5779544656927L1229.562734375,261.5964327725497L1231.3942578125,270.0958350354975L1233.22578125,254.09652692621407L1235.6678125,264.5017438368364L1236.888828125,268.64866876602173L1237.4993359375,260.1821201497858L1239.330859375,268.13593066822403L1241.772890625,267.92991126667374L1242.3833984375,256.23094888166946L1242.99390625,266.2083801789717L1243.6044140625,266.6442931782115L1245.4359375,268.658008705486L1246.0464453125,267.1430131738836L1246.656953125,271.75106893886215L1247.87796875,263.7440043796193L1248.4884765625,263.4944067868319L1249.098984375,264.59432393854314L1250.3200000000002,266.3358949314464L1250.9305078125,261.55266614393753L1252.76203125,266.72557523033834L1253.3725390625,267.92819075150925L1254.5935546875,266.51569695906204L1255.8145703124999,259.1636407158592L1256.425078125,267.4518702246926L1257.0355859375,267.56703003970057L1261.309140625,266.2680328976024L1261.9196484375,257.81426525115967L1262.5301562500001,261.4864426959645L1263.1406640625,262.8240776928988L1266.8037109375,261.6732988357544L1267.41421875,261.81328322670674L1268.0247265624998,263.71808195114136L1268.635234375,266.4104669744318L1269.2457421875,267.4083084193143L1270.4667578125,257.2154194658453L1272.29828125,255.90851614691996L1274.1298046875002,271.4663318720731L1276.5718359375,267.92456128380513L1277.18234375,252.5268190123818L1277.7928515625,268.1459178491072L1278.403359375,263.88989587263626L1279.0138671875,262.4448597647927L1280.2348828125,267.14805182543665L1280.845390625,272.0908297191966L1283.287421875,266.13237437334925L1285.1189453125,255.7187269384211L1285.729453125,260.5614855506203L1287.5609765625,265.5192728909579L1288.171484375,263.71232232180506L1288.7819921875,265.98958800055766L1289.3925,267.30740430138326L1290.0030078124998,268.7156623493541L1291.2240234375,263.63728328184646L1291.83453125,269.6686147343028L1292.4450390625,264.87316209619695L1293.055546875,263.8805887048895L1293.6660546875,269.08554853092545L1296.1080859375002,265.5000768574801L1296.71859375,266.28778605027634L1297.3291015625,269.9827808033336L1299.160625,256.17825196006083L1300.381640625,263.75802248174494L1300.9921484375,254.45593435114083L1301.6026562499999,253.01478988474068L1302.823671875,261.3349226604808L1303.4341796874999,265.4171398336237L1304.0446875,261.8629487644542L1305.265703125,267.7479626915672L1305.8762109375,268.2358844063499L1307.707734375,267.3419948491183L1308.92875,264.7598129185763L1310.149765625,268.1510220440951L1310.7602734375,265.49838911403305L1311.9812890624999,263.0721022432501L1313.8128124999998,268.33547765558416L1315.033828125,259.0245329683477L1315.6443359375,268.1992783979936L1316.25484375,268.82895417646927L1317.475859375,266.337664604187L1318.696875,254.42633329738268L1319.3073828125,262.9641767848622L1319.9178906250002,271.89857443896204L1322.359921875,265.2236719998446L1322.9704296875,267.5587224093351L1324.1914453125,263.65018714558L1325.4124609374999,265.0251900933006L1328.465,256.90164665742356L1330.90703125,268.54551978544754L1331.5175390625,259.4148277369413L1332.128046875,263.0965253656561L1332.7385546875,260.5132537755099L1340.0646484375,261.12150504372335L1341.2856640625,263.488909331235L1342.5066796875,269.60724969343704" style="fill: none;" fill="none"></path></g></g></g></g></g></g><g transform="translate(30, 378)" clip-path="url(#clip_1)"><clipPath id="clip_1"><rect width="1465" height="22"></rect></clipPath><g><g><line x1="0" y1="0" x2="0" y2="5" style="visibility: inherit;" fill="rgb(0, 0, 0)" stroke="rgb(204, 204, 204)" stroke-width="1px"></line><line x1="122.1015625" y1="0" x2="122.1015625" y2="5" style="visibility: inherit;" fill="rgb(0, 0, 0)" stroke="rgb(204, 204, 204)" stroke-width="1px"></line><line x1="244.203125" y1="0" x2="244.203125" y2="5" style="visibility: inherit;" fill="rgb(0, 0, 0)" stroke="rgb(204, 204, 204)" stroke-width="1px"></line><line x1="366.3046875" y1="0" x2="366.3046875" y2="5" style="visibility: inherit;" fill="rgb(0, 0, 0)" stroke="rgb(204, 204, 204)" stroke-width="1px"></line><line x1="488.40625" y1="0" x2="488.40625" y2="5" style="visibility: inherit;" fill="rgb(0, 0, 0)" stroke="rgb(204, 204, 204)" stroke-width="1px"></line><line x1="610.5078125" y1="0" x2="610.5078125" y2="5" style="visibility: inherit;" fill="rgb(0, 0, 0)" stroke="rgb(204, 204, 204)" stroke-width="1px"></line><line x1="732.609375" y1="0" x2="732.609375" y2="5" style="visibility: inherit;" fill="rgb(0, 0, 0)" stroke="rgb(204, 204, 204)" stroke-width="1px"></line><line x1="854.7109375" y1="0" x2="854.7109375" y2="5" style="visibility: inherit;" fill="rgb(0, 0, 0)" stroke="rgb(204, 204, 204)" stroke-width="1px"></line><line x1="976.8125" y1="0" x2="976.8125" y2="5" style="visibility: inherit;" fill="rgb(0, 0, 0)" stroke="rgb(204, 204, 204)" stroke-width="1px"></line><line x1="1098.9140625" y1="0" x2="1098.9140625" y2="5" style="visibility: inherit;" fill="rgb(0, 0, 0)" stroke="rgb(204, 204, 204)" stroke-width="1px"></line><line x1="1221.015625" y1="0" x2="1221.015625" y2="5" style="visibility: inherit;" fill="rgb(0, 0, 0)" stroke="rgb(204, 204, 204)" stroke-width="1px"></line><line x1="1343.1171875" y1="0" x2="1343.1171875" y2="5" style="visibility: inherit;" fill="rgb(0, 0, 0)" stroke="rgb(204, 204, 204)" stroke-width="1px"></line><line x1="1465.21875" y1="0" x2="1465.21875" y2="5" style="visibility: inherit;" fill="rgb(0, 0, 0)" stroke="rgb(204, 204, 204)" stroke-width="1px"></line></g><g transform="translate(0, 8)"><text x="0" y="0" dx="0em" dy="0.95em" style="text-anchor: middle; visibility: hidden; font-family: Roboto, sans-serif; font-size: 12px; font-weight: 200;" fill="rgb(50, 49, 63)" stroke="none" stroke-width="1px">-200</text><text x="122.1015625" y="0" dx="0em" dy="0.95em" style="text-anchor: middle; visibility: inherit; font-family: Roboto, sans-serif; font-size: 12px; font-weight: 200;" fill="rgb(50, 49, 63)" stroke="none" stroke-width="1px">0</text><text x="244.203125" y="0" dx="0em" dy="0.95em" style="text-anchor: middle; visibility: inherit; font-family: Roboto, sans-serif; font-size: 12px; font-weight: 200;" fill="rgb(50, 49, 63)" stroke="none" stroke-width="1px">200</text><text x="366.3046875" y="0" dx="0em" dy="0.95em" style="text-anchor: middle; visibility: inherit; font-family: Roboto, sans-serif; font-size: 12px; font-weight: 200;" fill="rgb(50, 49, 63)" stroke="none" stroke-width="1px">400</text><text x="488.40625" y="0" dx="0em" dy="0.95em" style="text-anchor: middle; visibility: inherit; font-family: Roboto, sans-serif; font-size: 12px; font-weight: 200;" fill="rgb(50, 49, 63)" stroke="none" stroke-width="1px">600</text><text x="610.5078125" y="0" dx="0em" dy="0.95em" style="text-anchor: middle; visibility: inherit; font-family: Roboto, sans-serif; font-size: 12px; font-weight: 200;" fill="rgb(50, 49, 63)" stroke="none" stroke-width="1px">800</text><text x="732.609375" y="0" dx="0em" dy="0.95em" style="text-anchor: middle; visibility: inherit; font-family: Roboto, sans-serif; font-size: 12px; font-weight: 200;" fill="rgb(50, 49, 63)" stroke="none" stroke-width="1px">1k</text><text x="854.7109375" y="0" dx="0em" dy="0.95em" style="text-anchor: middle; visibility: inherit; font-family: Roboto, sans-serif; font-size: 12px; font-weight: 200;" fill="rgb(50, 49, 63)" stroke="none" stroke-width="1px">1.2k</text><text x="976.8125" y="0" dx="0em" dy="0.95em" style="text-anchor: middle; visibility: inherit; font-family: Roboto, sans-serif; font-size: 12px; font-weight: 200;" fill="rgb(50, 49, 63)" stroke="none" stroke-width="1px">1.4k</text><text x="1098.9140625" y="0" dx="0em" dy="0.95em" style="text-anchor: middle; visibility: inherit; font-family: Roboto, sans-serif; font-size: 12px; font-weight: 200;" fill="rgb(50, 49, 63)" stroke="none" stroke-width="1px">1.6k</text><text x="1221.015625" y="0" dx="0em" dy="0.95em" style="text-anchor: middle; visibility: inherit; font-family: Roboto, sans-serif; font-size: 12px; font-weight: 200;" fill="rgb(50, 49, 63)" stroke="none" stroke-width="1px">1.8k</text><text x="1343.1171875" y="0" dx="0em" dy="0.95em" style="text-anchor: middle; visibility: inherit; font-family: Roboto, sans-serif; font-size: 12px; font-weight: 200;" fill="rgb(50, 49, 63)" stroke="none" stroke-width="1px">2k</text><text x="1465.21875" y="0" dx="0em" dy="0.95em" style="text-anchor: middle; visibility: hidden; font-family: Roboto, sans-serif; font-size: 12px; font-weight: 200;" fill="rgb(50, 49, 63)" stroke="none" stroke-width="1px">2.2k</text></g><line x1="0" y1="0" x2="1465.21875" y2="0" fill="rgb(0, 0, 0)" stroke="rgb(204, 204, 204)" stroke-width="1px"></line></g></g></g></g></svg>