<?xml version="1.0" encoding="utf-8" standalone="no"?>
<!DOCTYPE svg PUBLIC "-//W3C//DTD SVG 1.1//EN"
  "http://www.w3.org/Graphics/SVG/1.1/DTD/svg11.dtd">
<!-- Created with matplotlib (https://matplotlib.org/) -->
<svg height="288pt" version="1.1" viewBox="0 0 720 288" width="720pt" xmlns="http://www.w3.org/2000/svg" xmlns:xlink="http://www.w3.org/1999/xlink">
 <metadata>
  <rdf:RDF xmlns:cc="http://creativecommons.org/ns#" xmlns:dc="http://purl.org/dc/elements/1.1/" xmlns:rdf="http://www.w3.org/1999/02/22-rdf-syntax-ns#">
   <cc:Work>
    <dc:type rdf:resource="http://purl.org/dc/dcmitype/StillImage"/>
    <dc:date>2020-12-22T19:41:34.035138</dc:date>
    <dc:format>image/svg+xml</dc:format>
    <dc:creator>
     <cc:Agent>
      <dc:title>Matplotlib v3.3.2, https://matplotlib.org/</dc:title>
     </cc:Agent>
    </dc:creator>
   </cc:Work>
  </rdf:RDF>
 </metadata>
 <defs>
  <style type="text/css">*{stroke-linecap:butt;stroke-linejoin:round;}</style>
 </defs>
 <g id="figure_1">
  <g id="patch_1">
   <path d="M 0 288 
L 720 288 
L 720 0 
L 0 0 
z
" style="fill:#ffffff;"/>
  </g>
  <g id="axes_1">
   <g id="line2d_1">
    <path clip-path="url(#p0b7aeea7e1)" d="M 177.696508 211.470194 
L 185.914699 202.516727 
L 194.638637 192.602575 
L 199.185028 187.097569 
L 203.398739 181.652677 
L 206.748864 176.992771 
L 209.265795 173.238238 
L 213.629799 166.052934 
L 216.607411 160.521423 
L 218.109907 157.492015 
L 221.372494 150.253706 
L 223.422482 145.15801 
L 225.669202 138.970513 
L 227.536173 133.220253 
L 229.474589 126.804888 
L 229.36396 126.839086 
L 228.703696 127.128626 
L 227.695023 127.837074 
L 226.379106 129.023021 
L 224.665534 130.857822 
L 222.539298 133.459535 
L 220.698906 135.931656 
L 216.617559 141.955444 
L 212.628533 148.379832 
L 207.734631 156.783238 
L 201.733534 167.647986 
L 194.858445 180.597351 
L 182.445754 204.612114 
L 178.722883 211.844908 
L 178.722883 211.844908 
" style="fill:none;stroke:#000000;stroke-linecap:square;stroke-opacity:0.7;stroke-width:1.2;"/>
   </g>
   <g id="line2d_2">
    <path clip-path="url(#p0b7aeea7e1)" d="M 177.362201 187.229073 
L 182.149835 183.581465 
L 183.954843 182.086186 
L 186.416787 179.901807 
L 193.613068 172.160257 
L 195.427338 169.784216 
L 197.70661 166.494909 
L 200.447848 162.038809 
L 202.276017 158.7375 
L 205.457742 152.329419 
L 207.654094 147.411644 
L 210.42709 140.650853 
L 213.307349 133.037805 
L 216.743098 123.308138 
L 221.504647 109.696212 
L 222.129164 108.362377 
L 222.952892 107.137853 
L 223.629196 106.53337 
L 224.822847 105.84967 
L 225.841413 105.201234 
L 226.278837 104.733068 
L 226.359509 104.551119 
L 226.187168 104.666855 
L 224.257514 106.994153 
L 221.59724 109.46235 
L 220.642528 110.76835 
L 219.616038 112.540703 
L 218.493865 114.867082 
L 216.995232 118.413354 
L 210.005511 135.792728 
L 206.898623 142.529974 
L 205.921111 144.48664 
L 201.200078 152.954183 
L 198.866909 156.646478 
L 196.144752 160.669706 
L 190.887247 167.957424 
L 184.173633 177.11902 
L 180.03699 182.984048 
L 176.94166 187.564285 
L 176.94166 187.564285 
" style="fill:none;stroke:#000000;stroke-linecap:square;stroke-opacity:0.7;stroke-width:1.2;"/>
   </g>
   <g id="line2d_3">
    <path clip-path="url(#p0b7aeea7e1)" d="M 176.246032 162.978305 
L 175.115015 164.655313 
L 174.140619 165.756342 
L 172.758106 166.932591 
L 171.821641 167.523454 
L 171.228942 167.818092 
L 169.634684 168.290898 
L 168.364288 168.284741 
L 167.792513 168.151532 
L 166.564154 167.550278 
L 165.768733 166.907907 
L 165.064879 166.160042 
L 164.513218 165.451091 
L 163.734651 164.262091 
L 162.200598 161.261756 
L 161.167674 158.74544 
L 160.016804 155.460907 
L 158.471515 150.164453 
L 157.608869 146.607131 
L 156.879952 142.886243 
L 156.612619 140.955729 
L 156.532524 138.856078 
L 156.610372 138.334016 
L 157.02966 137.743416 
L 157.459693 137.801643 
L 158.077507 138.211907 
L 159.286639 139.424376 
L 161.147358 141.711965 
L 161.685044 142.70651 
L 161.833234 143.361496 
L 161.878087 145.044676 
L 162.021861 147.199135 
L 162.360384 149.008658 
L 162.886155 150.646886 
L 163.486913 151.854432 
L 164.205757 152.760417 
L 164.970614 153.269931 
L 165.797865 153.481468 
L 166.761591 153.710375 
L 167.433423 154.130103 
L 168.415688 155.174421 
L 169.576458 156.787679 
L 172.760367 161.431032 
L 174.256559 163.133661 
L 175.089837 163.786646 
L 175.407299 163.846588 
L 175.631793 163.587782 
L 175.922381 162.944243 
L 175.922381 162.944243 
" style="fill:none;stroke:#000000;stroke-linecap:square;stroke-opacity:0.7;stroke-width:1.2;"/>
   </g>
   <g id="line2d_4">
    <path clip-path="url(#p0b7aeea7e1)" d="M 175.819018 136.10999 
L 174.784467 139.553437 
L 172.911709 146.363893 
L 172.196685 147.763333 
L 171.901577 148.084398 
L 171.435385 148.35614 
L 170.680237 148.339008 
L 169.919463 147.921744 
L 169.140006 147.204583 
L 167.821921 145.527944 
L 166.453144 143.354815 
L 164.228476 139.196249 
L 162.192785 134.933461 
L 159.740231 129.441565 
L 154.04636 116.53765 
L 152.160841 112.894811 
L 151.114713 111.32262 
L 150.49954 110.710905 
L 150.140091 110.591575 
L 149.938123 110.76451 
L 149.884241 111.246642 
L 150.078699 112.0416 
L 150.558702 112.911681 
L 151.215169 113.573404 
L 151.897882 113.941062 
L 152.825516 114.096098 
L 153.665298 113.977355 
L 154.753895 113.531896 
L 155.855022 112.804962 
L 157.287356 111.523609 
L 158.949692 109.685099 
L 163.170318 104.739137 
L 164.611953 103.544439 
L 165.707196 102.933323 
L 166.816022 102.562277 
L 168.077617 102.383095 
L 169.763168 102.402741 
L 174.88737 102.710798 
L 176.705624 102.533548 
L 177.845254 102.287005 
L 179.682672 101.626173 
L 181.195965 100.799164 
L 182.74194 99.645532 
L 183.925449 98.518323 
L 185.120462 97.130788 
L 186.409782 95.305688 
L 187.86687 92.76416 
L 189.665367 89.428355 
L 189.828189 89.417934 
L 189.958859 89.655846 
L 190.090378 90.552602 
L 190.13 91.473664 
L 190.021845 95.064591 
L 189.745487 97.821824 
L 189.357361 100.245407 
L 188.749495 102.911096 
L 187.918161 105.610555 
L 186.784244 108.50186 
L 184.714365 112.86907 
L 181.914223 118.584128 
L 180.101526 122.89086 
L 178.656048 127.109955 
L 177.907045 129.735164 
L 176.369918 136.644926 
L 176.369918 136.644926 
" style="fill:none;stroke:#000000;stroke-linecap:square;stroke-opacity:0.7;stroke-width:1.2;"/>
   </g>
   <g id="line2d_5">
    <path clip-path="url(#p0b7aeea7e1)" d="M 176.329847 110.50214 
L 175.730369 111.07518 
L 175.545398 112.018903 
L 175.554726 112.360899 
L 175.840606 113.683954 
L 176.136109 114.315726 
L 176.737494 115.030651 
L 177.473529 115.360307 
L 177.721948 115.380262 
L 178.391694 115.260168 
L 179.125505 114.892949 
L 179.824252 114.361398 
L 181.227608 112.879131 
L 182.811042 110.713556 
L 184.525271 107.978124 
L 192.247336 95.051754 
L 198.867913 84.817525 
L 200.522969 81.856735 
L 202.492119 77.864257 
L 204.070948 74.135873 
L 205.454253 70.293607 
L 206.746738 65.914332 
L 207.65459 61.97372 
L 208.216105 58.681902 
L 208.597343 54.832378 
L 208.588825 52.032518 
L 208.437237 50.84965 
L 208.170726 49.972577 
L 207.963227 49.637857 
L 207.616574 49.405389 
L 207.249042 49.422669 
L 206.40091 50.003961 
L 205.315769 51.219999 
L 203.541216 53.29555 
L 202.137261 54.544212 
L 201.22059 55.063024 
L 200.283988 55.306912 
L 199.859132 55.31321 
L 199.038648 55.125386 
L 198.377002 54.766804 
L 197.74735 54.236413 
L 196.8818 53.164238 
L 196.053786 51.675273 
L 195.41466 50.034699 
L 195.078162 48.56902 
L 195.145456 47.994823 
L 195.300602 47.990351 
L 195.619073 48.3217 
L 196.101568 49.186555 
L 196.605344 50.483496 
L 197.03982 52.190315 
L 197.25589 53.835569 
L 197.271653 55.915876 
L 197.113511 57.476995 
L 196.561062 60.148677 
L 195.579524 63.275825 
L 193.910894 67.522019 
L 183.016816 93.177375 
L 178.034046 106.072426 
L 176.334819 110.582096 
L 176.334819 110.582096 
" style="fill:none;stroke:#000000;stroke-linecap:square;stroke-opacity:0.7;stroke-width:1.2;"/>
   </g>
   <g id="line2d_6">
    <path clip-path="url(#p0b7aeea7e1)" d="M 262.318523 213.038296 
L 266.82575 206.081165 
L 270.264333 200.248137 
L 274.303217 192.833564 
L 278.704163 184.223415 
L 284.311762 172.675377 
L 287.919242 164.837685 
L 290.774191 158.226148 
L 293.026111 152.537336 
L 294.475543 148.456787 
L 295.909659 143.686215 
L 296.590362 140.606976 
L 296.768855 138.943775 
L 296.672465 138.509941 
L 296.540454 138.573674 
L 296.199724 139.144732 
L 294.97729 141.355526 
L 293.75212 143.005215 
L 289.44743 148.334875 
L 288.094083 150.580237 
L 286.813825 153.179645 
L 285.197183 157.081621 
L 283.675353 160.629125 
L 282.698975 162.287619 
L 281.874307 163.251714 
L 280.702819 164.172676 
L 279.351428 165.125304 
L 278.464466 166.066593 
L 277.7945 167.191263 
L 277.223419 168.634848 
L 276.730213 170.412235 
L 276.063403 173.733825 
L 274.575365 181.757054 
L 273.555293 185.680758 
L 272.564777 188.560013 
L 270.848033 192.33082 
L 269.182207 195.241422 
L 265.6986 201.082559 
L 264.376691 203.946336 
L 263.775464 205.557703 
L 263.162589 207.522383 
L 262.01525 212.779785 
L 262.01525 212.779785 
" style="fill:none;stroke:#000000;stroke-linecap:square;stroke-opacity:0.7;stroke-width:1.2;"/>
   </g>
   <g id="line2d_7">
    <path clip-path="url(#p0b7aeea7e1)" d="M 261.896233 188.956401 
L 260.694235 189.158532 
L 259.744914 189.730656 
L 258.993943 190.586643 
L 258.826475 190.73701 
L 258.797391 190.68443 
L 258.953416 189.572978 
L 260.271898 183.177446 
L 261.365528 179.010105 
L 262.383417 176.168331 
L 263.573783 173.68107 
L 264.379266 171.968168 
L 264.671443 170.868149 
L 264.742761 170.001947 
L 264.593031 168.458831 
L 264.332623 167.388689 
L 263.52098 165.264191 
L 262.427076 163.305265 
L 261.184826 161.701812 
L 259.720806 160.405671 
L 258.662242 159.798153 
L 257.114028 159.342122 
L 255.827474 159.312603 
L 254.690234 159.523586 
L 253.230428 160.087603 
L 251.396439 161.207299 
L 249.570334 162.708589 
L 248.870955 163.370792 
L 245.821098 166.704535 
L 242.90318 170.363689 
L 236.764501 178.523566 
L 235.821901 180.021127 
L 235.575672 180.682292 
L 235.531438 181.334692 
L 235.78901 182.137316 
L 236.386375 183.027913 
L 237.547989 184.302461 
L 239.612933 186.214559 
L 242.071464 188.220215 
L 244.609019 190.015971 
L 246.82157 191.318143 
L 248.286886 192.018405 
L 250.31152 192.729218 
L 251.714919 193.014619 
L 253.27448 193.094818 
L 254.740384 192.907517 
L 256.174652 192.448769 
L 257.441026 191.809939 
L 259.068187 190.713987 
L 261.594048 188.731817 
L 261.594048 188.731817 
" style="fill:none;stroke:#000000;stroke-linecap:square;stroke-opacity:0.7;stroke-width:1.2;"/>
   </g>
   <g id="line2d_8">
    <path clip-path="url(#p0b7aeea7e1)" d="M 258.877171 161.941927 
L 251.534416 169.654069 
L 246.593398 174.564604 
L 243.283277 177.591638 
L 240.77112 179.66567 
L 237.744773 181.819151 
L 236.513813 182.567099 
L 233.942882 183.858112 
L 231.728388 184.650278 
L 230.13004 185.025031 
L 227.857738 185.267675 
L 224.60495 185.378145 
L 224.212073 185.587766 
L 223.874005 186.047927 
L 223.669818 186.811338 
L 223.594855 188.239546 
L 223.749892 190.731883 
L 224.147013 193.641766 
L 224.690948 196.107068 
L 225.238507 197.576911 
L 225.586636 198.456846 
L 225.535672 199.6257 
L 225.174479 204.100738 
L 225.290367 206.229596 
L 226.268689 207.948418 
L 227.038567 208.341878 
L 228.157894 208.596952 
L 229.653009 208.711 
L 232.681889 208.670983 
L 237.370354 208.358016 
L 242.290619 207.776736 
L 245.827852 207.139668 
L 248.807116 206.408199 
L 251.126601 205.678551 
L 253.787461 204.613939 
L 255.922735 203.521105 
L 256.63663 203.092947 
L 259.341695 201.049952 
L 260.770191 199.546578 
L 262.008685 197.775778 
L 262.523923 196.806608 
L 263.355744 194.614358 
L 263.782762 192.708433 
L 264.048618 189.921962 
L 263.988945 186.696285 
L 263.744901 184.063041 
L 263.323171 181.067401 
L 262.484796 176.510906 
L 260.112813 166.299935 
L 259.318062 163.228986 
L 259.318062 163.228986 
" style="fill:none;stroke:#000000;stroke-linecap:square;stroke-opacity:0.7;stroke-width:1.2;"/>
   </g>
   <g id="line2d_9">
    <path clip-path="url(#p0b7aeea7e1)" d="M 262.427117 138.054279 
L 267.479043 145.508491 
L 271.439825 150.92287 
L 274.526335 154.638518 
L 277.42092 157.645783 
L 279.979022 159.900782 
L 282.585699 161.80624 
L 283.584733 162.431159 
L 285.754161 163.584879 
L 287.395543 164.269164 
L 289.85234 164.976364 
L 291.922259 165.256695 
L 293.993049 165.217337 
L 295.02913 165.064277 
L 296.72054 164.59831 
L 297.787563 164.149342 
L 298.823803 163.581968 
L 299.876726 162.854182 
L 300.944432 161.934848 
L 302.469828 160.23107 
L 303.798239 158.255914 
L 305.008109 155.892999 
L 306.264346 152.574881 
L 307.350857 148.5425 
L 308.057866 144.967956 
L 308.913382 139.006181 
L 309.45604 133.826391 
L 310.053193 126.272188 
L 310.67346 115.466194 
L 311.29398 99.925157 
L 311.728375 83.814988 
L 312.068027 62.255125 
L 312.097172 52.506442 
L 311.874202 51.784007 
L 311.589054 51.488775 
L 311.154788 51.37171 
L 310.598461 51.475841 
L 309.843987 51.876876 
L 308.854553 52.697929 
L 307.425324 54.24256 
L 305.356478 56.854938 
L 302.157653 61.301747 
L 298.693264 66.495289 
L 296.07813 70.658583 
L 292.458338 76.758115 
L 287.777977 85.184143 
L 284.349673 91.692758 
L 280.735082 98.808024 
L 271.176588 118.477387 
L 262.736516 136.338987 
L 262.736516 136.338987 
" style="fill:none;stroke:#000000;stroke-linecap:square;stroke-opacity:0.7;stroke-width:1.2;"/>
   </g>
   <g id="line2d_10">
    <path clip-path="url(#p0b7aeea7e1)" d="M 260.355653 111.415271 
L 257.63929 115.532117 
L 254.740237 119.469629 
L 251.419654 123.517521 
L 248.6431 126.554504 
L 246.645745 128.523896 
L 244.746119 130.193569 
L 243.035725 131.491779 
L 241.12637 132.673989 
L 239.501725 133.439165 
L 238.004243 133.944587 
L 235.939616 134.33762 
L 234.442236 134.416897 
L 232.795874 134.322223 
L 230.89482 133.999964 
L 228.507308 133.317273 
L 225.501267 132.144244 
L 223.699283 131.497443 
L 223.195424 131.507494 
L 223.04841 131.711028 
L 223.091571 132.063988 
L 223.434452 132.743268 
L 224.095584 133.555453 
L 224.807014 134.153187 
L 225.479358 134.522809 
L 226.2647 134.73565 
L 227.163623 134.702765 
L 228.075708 134.386586 
L 229.065345 133.766172 
L 230.477203 132.550776 
L 232.818848 130.485313 
L 234.214267 129.608378 
L 235.095066 129.237082 
L 236.510985 128.917495 
L 237.732832 128.877072 
L 239.353951 129.08407 
L 241.233283 129.584365 
L 247.800796 131.710699 
L 248.757727 131.782702 
L 249.821459 131.629003 
L 250.499803 131.326708 
L 251.167965 130.777492 
L 251.680656 130.092113 
L 252.243403 128.911351 
L 252.807259 127.034362 
L 253.924928 122.890425 
L 254.414622 122.021254 
L 254.971265 121.505572 
L 255.852264 121.129044 
L 256.773486 120.698773 
L 257.287231 120.25883 
L 257.835314 119.577068 
L 258.693901 118.037997 
L 259.272552 116.497408 
L 259.673052 114.859121 
L 260.293079 111.908199 
L 260.293079 111.908199 
" style="fill:none;stroke:#000000;stroke-linecap:square;stroke-opacity:0.7;stroke-width:1.2;"/>
   </g>
   <g id="line2d_11">
    <path clip-path="url(#p0b7aeea7e1)" d="M 343.98962 211.846853 
L 335.20964 218.508467 
L 325.357003 226.111293 
L 319.051523 230.515992 
L 316.256717 232.148259 
L 314.260708 233.1305 
L 310.266774 234.521501 
L 308.301236 234.890127 
L 302.220371 234.670886 
L 298.837727 233.73163 
L 295.685804 232.420816 
L 292.673221 230.868175 
L 288.485132 228.620591 
L 287.252164 228.228308 
L 286.522309 228.326107 
L 286.210365 228.635403 
L 285.999423 229.341898 
L 285.978484 229.619577 
L 286.115175 231.212174 
L 286.649803 233.403248 
L 287.525099 235.790038 
L 288.449515 237.652573 
L 289.541861 239.290369 
L 290.957932 240.763343 
L 292.046139 241.545193 
L 293.459714 242.28244 
L 299.70343 245.050062 
L 303.627012 247.020684 
L 305.587168 247.740029 
L 307.508238 248.157331 
L 309.268251 248.283305 
L 311.353136 248.168395 
L 314.30413 247.703708 
L 324.795066 245.785561 
L 328.445874 245.032013 
L 330.615727 244.360593 
L 332.378228 243.58907 
L 334.029429 242.608102 
L 335.636595 241.356198 
L 337.177327 239.847514 
L 338.921865 237.759371 
L 340.455616 235.575233 
L 341.686205 233.541208 
L 342.897719 231.175585 
L 343.869361 228.809301 
L 344.545127 226.640375 
L 345.021748 224.465786 
L 345.280994 222.599868 
L 345.438758 219.823554 
L 345.396298 217.628171 
L 345.04278 213.855889 
L 345.04278 213.855889 
" style="fill:none;stroke:#000000;stroke-linecap:square;stroke-opacity:0.7;stroke-width:1.2;"/>
   </g>
   <g id="line2d_12">
    <path clip-path="url(#p0b7aeea7e1)" d="M 347.1124 188.726532 
L 351.052141 186.781317 
L 352.729506 185.849945 
L 356.369035 183.501959 
L 358.054318 182.215845 
L 360.190517 180.352108 
L 362.729682 177.721598 
L 364.741636 175.247926 
L 366.687448 172.465509 
L 368.740299 169.047254 
L 370.633063 165.393785 
L 372.3748 161.55385 
L 374.630396 155.81871 
L 376.724394 149.624014 
L 378.282442 144.381266 
L 380.02178 137.724326 
L 381.495575 131.107654 
L 382.464505 125.823382 
L 383.093307 121.288937 
L 383.369385 117.620599 
L 383.296174 115.419889 
L 383.088033 114.738165 
L 382.929236 114.7902 
L 382.766661 115.568082 
L 382.774505 116.565993 
L 383.109753 118.616441 
L 383.622775 120.271993 
L 384.549309 122.418091 
L 386.979909 127.207984 
L 388.172064 129.144326 
L 388.921847 129.977146 
L 389.702786 130.484671 
L 390.187001 130.6072 
L 390.751488 130.55397 
L 390.974726 130.471074 
L 391.852145 129.759207 
L 392.496173 128.746077 
L 393.055269 127.328594 
L 393.546583 124.882625 
L 393.532296 123.345053 
L 393.467209 123.085824 
L 392.80673 122.941497 
L 392.370309 123.496291 
L 391.681877 124.755306 
L 390.793891 126.751999 
L 388.942587 131.515833 
L 382.317328 149.179212 
L 379.208314 156.55422 
L 376.285672 162.640265 
L 375.321325 164.449766 
L 373.147803 168.154588 
L 369.814771 172.857771 
L 367.990334 174.977674 
L 364.252839 178.518396 
L 362.855631 179.625566 
L 360.018219 181.616787 
L 358.088138 182.825606 
L 347.694362 188.563124 
L 347.694362 188.563124 
" style="fill:none;stroke:#000000;stroke-linecap:square;stroke-opacity:0.7;stroke-width:1.2;"/>
   </g>
   <g id="line2d_13">
    <path clip-path="url(#p0b7aeea7e1)" d="M 345.54635 162.18431 
L 344.598868 170.315353 
L 344.333274 174.267433 
L 344.263826 176.740619 
L 344.304955 179.696355 
L 345.219644 187.104647 
L 346.016151 190.049842 
L 347.034609 192.756032 
L 348.767825 196.103315 
L 350.193077 198.19626 
L 351.923676 200.230529 
L 353.667824 201.867045 
L 355.096978 202.962603 
L 357.144634 204.216238 
L 359.355355 205.224476 
L 361.353271 205.881735 
L 363.330025 206.318611 
L 365.072636 206.46554 
L 365.883923 206.332098 
L 366.238017 206.112271 
L 366.431118 205.749631 
L 366.411708 205.096324 
L 365.98628 203.896118 
L 364.917955 201.83266 
L 361.986873 196.432351 
L 361.039637 194.232742 
L 360.591058 192.619012 
L 360.521287 191.479734 
L 360.766186 190.35134 
L 361.309699 189.132793 
L 362.529933 186.399451 
L 363.314229 183.992832 
L 364.094568 180.661401 
L 364.555717 177.980168 
L 365.233879 172.190457 
L 365.63481 166.403857 
L 365.917469 158.800663 
L 366.435607 133.923926 
L 366.406036 133.84369 
L 366.184384 133.833623 
L 365.246894 134.852029 
L 363.206717 137.004951 
L 358.503045 141.788066 
L 356.989571 143.515173 
L 354.333953 146.914622 
L 351.652369 150.916557 
L 347.937642 157.586353 
L 345.907984 161.878184 
L 345.907984 161.878184 
" style="fill:none;stroke:#000000;stroke-linecap:square;stroke-opacity:0.7;stroke-width:1.2;"/>
   </g>
   <g id="line2d_14">
    <path clip-path="url(#p0b7aeea7e1)" d="M 345.169363 136.445771 
L 340.640411 143.557579 
L 337.27059 148.567649 
L 333.098019 154.320537 
L 330.704169 157.310274 
L 328.094095 160.219413 
L 325.795068 162.414407 
L 323.545378 164.195108 
L 321.315498 165.606113 
L 319.838768 166.364617 
L 317.101546 167.4783 
L 313.713419 168.727426 
L 312.790597 169.340607 
L 312.349919 169.934536 
L 312.174444 170.466008 
L 312.150725 171.519459 
L 312.425901 172.794664 
L 312.832431 173.903908 
L 313.711474 175.544766 
L 314.619876 176.682324 
L 315.300952 177.29679 
L 316.098703 177.833471 
L 317.472389 178.439621 
L 319.20606 178.847641 
L 321.575011 179.055705 
L 324.171282 179.042336 
L 327.565239 178.796228 
L 330.101031 178.433762 
L 332.241445 177.938659 
L 333.770726 177.409305 
L 334.853628 176.892917 
L 336.073339 176.083374 
L 337.120501 175.050077 
L 337.839382 173.982786 
L 338.387884 172.739771 
L 338.823405 171.096851 
L 339.147491 168.917909 
L 339.567693 165.959012 
L 340.069116 164.086435 
L 340.748865 162.509325 
L 341.866757 160.571759 
L 343.122409 158.307214 
L 343.843307 156.496816 
L 344.510888 154.143366 
L 345.70006 148.867025 
L 346.054056 146.290595 
L 346.080702 143.834756 
L 345.738376 141.028517 
L 344.971615 137.792668 
L 344.74683 137.023883 
L 344.74683 137.023883 
" style="fill:none;stroke:#000000;stroke-linecap:square;stroke-opacity:0.7;stroke-width:1.2;"/>
   </g>
   <g id="line2d_15">
    <path clip-path="url(#p0b7aeea7e1)" d="M 347.882318 110.938044 
L 350.76071 107.6163 
L 353.33127 104.130628 
L 354.848759 101.701732 
L 356.41773 98.770816 
L 357.337077 96.793384 
L 359.247849 91.820858 
L 360.248204 88.55745 
L 361.168861 84.934949 
L 362.144241 80.05197 
L 362.847077 75.258597 
L 363.433874 68.856771 
L 363.616375 63.695402 
L 363.532933 59.220218 
L 362.938431 53.483996 
L 362.457979 51.347672 
L 362.043551 50.116078 
L 361.200459 48.595054 
L 360.829988 48.208908 
L 360.329871 47.884625 
L 359.567523 47.73028 
L 358.449546 48.046525 
L 357.566139 48.621043 
L 357.121633 48.989807 
L 354.849713 51.378427 
L 351.567463 55.071696 
L 350.010527 56.476103 
L 348.620519 57.441581 
L 346.744484 58.353596 
L 343.994703 59.27082 
L 342.757397 59.717992 
L 341.251557 60.447917 
L 340.051984 61.25493 
L 339.369525 61.827647 
L 337.466544 63.949787 
L 336.309475 65.672327 
L 334.573418 68.943173 
L 333.334403 71.799392 
L 331.660463 76.293818 
L 327.63149 87.647416 
L 326.582816 89.774134 
L 325.960692 91.170291 
L 325.837919 91.994977 
L 325.900658 92.79321 
L 326.286805 94.208419 
L 326.989922 95.847866 
L 328.338203 98.258546 
L 329.788044 100.379052 
L 331.568035 102.539635 
L 333.252413 104.184988 
L 333.864566 104.685967 
L 336.099986 106.05221 
L 336.793667 106.325536 
L 338.04294 106.652802 
L 342.064995 107.366827 
L 343.398794 108.061489 
L 344.502049 108.870022 
L 347.258359 111.254693 
L 347.258359 111.254693 
" style="fill:none;stroke:#000000;stroke-linecap:square;stroke-opacity:0.7;stroke-width:1.2;"/>
   </g>
   <g id="line2d_16">
    <path clip-path="url(#p0b7aeea7e1)" d="M 428.801343 214.468757 
L 425.77722 222.282823 
L 418.826116 239.261461 
L 414.545077 249.424884 
L 411.201457 257.129783 
L 410.936997 258.349525 
L 410.96672 259.244134 
L 411.167329 259.826333 
L 411.57198 260.380851 
L 412.469197 261.03269 
L 413.537576 261.500096 
L 415.701869 262.363321 
L 415.41257 262.485119 
L 415.06489 262.555117 
L 410.251327 262.960669 
L 408.937077 263.069098 
L 409.302064 263.090184 
L 418.793742 263.125476 
L 434.169922 263.036892 
L 437.384234 262.846844 
L 440.052543 262.444411 
L 441.400655 262.080412 
L 443.009954 261.388268 
L 443.927131 260.7739 
L 444.769593 259.927415 
L 445.450414 258.770999 
L 445.850733 257.265604 
L 445.916133 256.457147 
L 445.809842 254.651669 
L 445.549186 253.216069 
L 444.882649 250.794637 
L 443.597446 247.236949 
L 440.154995 239.240676 
L 434.399626 226.800278 
L 429.265399 215.754889 
L 429.265399 215.754889 
" style="fill:none;stroke:#000000;stroke-linecap:square;stroke-opacity:0.7;stroke-width:1.2;"/>
   </g>
   <g id="line2d_17">
    <path clip-path="url(#p0b7aeea7e1)" d="M 430.678489 188.213211 
L 426.283761 193.013783 
L 421.928313 197.244106 
L 418.877758 199.903335 
L 415.791816 202.320227 
L 411.917844 204.910504 
L 409.230677 206.376473 
L 406.359947 207.618179 
L 404.19569 208.331047 
L 401.11078 209.032949 
L 398.69982 209.351926 
L 395.716495 209.52517 
L 388.479261 209.734429 
L 386.76126 210.074975 
L 385.148703 210.693234 
L 384.115591 211.289529 
L 382.485286 212.549645 
L 379.405774 215.196982 
L 378.026064 216.037128 
L 376.841475 216.477615 
L 375.295657 216.649785 
L 374.077192 216.475504 
L 373.501238 216.302192 
L 372.112725 215.654524 
L 371.366066 215.176189 
L 369.596441 213.692766 
L 368.077193 212.042698 
L 364.810443 208.001181 
L 364.582644 208.080523 
L 364.459748 208.557862 
L 364.466733 210.076207 
L 364.731939 213.106566 
L 365.309368 217.602532 
L 365.809757 220.390715 
L 366.278765 222.191387 
L 366.756101 223.390405 
L 367.099042 223.966082 
L 367.599033 224.513777 
L 368.50749 224.981769 
L 369.413736 225.112284 
L 371.022742 225.049747 
L 377.525288 224.555892 
L 388.818526 223.958178 
L 392.73196 223.460692 
L 396.658427 222.695923 
L 399.325584 221.993187 
L 402.835308 220.798995 
L 405.566468 219.618806 
L 407.7558 218.482781 
L 410.629116 216.679527 
L 413.052649 214.815309 
L 414.85966 213.167274 
L 416.675625 211.235705 
L 418.231577 209.317626 
L 420.325689 206.29237 
L 422.480629 202.645882 
L 430.12463 188.87293 
L 430.12463 188.87293 
" style="fill:none;stroke:#000000;stroke-linecap:square;stroke-opacity:0.7;stroke-width:1.2;"/>
   </g>
   <g id="line2d_18">
    <path clip-path="url(#p0b7aeea7e1)" d="M 433.705377 164.18673 
L 439.880114 165.522108 
L 445.906742 166.825135 
L 448.024704 167.154096 
L 450.461425 167.380265 
L 453.732575 167.333189 
L 455.394088 167.115007 
L 457.225986 166.693708 
L 458.898688 166.123341 
L 460.242423 165.523952 
L 462.311164 164.332043 
L 464.139886 162.982515 
L 466.597911 160.685968 
L 469.275859 157.483316 
L 471.200325 154.677866 
L 473.336047 151.015795 
L 475.169409 147.376699 
L 477.623412 141.84982 
L 479.213036 138.299228 
L 479.984254 137.073019 
L 480.386618 136.805251 
L 480.671499 136.87602 
L 480.990423 137.295181 
L 481.434088 138.467497 
L 481.773354 139.264101 
L 481.915457 139.199912 
L 482.082179 138.421568 
L 482.280013 135.799965 
L 482.517107 128.602747 
L 482.966993 103.511837 
L 483.06973 93.60459 
L 482.919979 87.661835 
L 482.710102 85.571606 
L 482.446299 84.314446 
L 482.069672 83.465338 
L 481.357381 83.044933 
L 481.231302 83.05346 
L 480.506871 83.362874 
L 479.474338 84.258914 
L 478.252271 85.67401 
L 476.129023 88.590154 
L 473.232493 93.032141 
L 469.134468 99.7391 
L 460.706008 114.124602 
L 454.920851 124.259396 
L 448.201778 136.55136 
L 444.442675 143.794374 
L 436.057067 160.223931 
L 434.204575 163.689193 
L 434.204575 163.689193 
" style="fill:none;stroke:#000000;stroke-linecap:square;stroke-opacity:0.7;stroke-width:1.2;"/>
   </g>
   <g id="line2d_19">
    <path clip-path="url(#p0b7aeea7e1)" d="M 434.260114 137.159554 
L 441.313647 129.123429 
L 445.041312 124.673079 
L 450.811011 117.354806 
L 454.330793 112.539705 
L 458.489989 106.38998 
L 461.437921 101.657993 
L 464.560486 96.240578 
L 465.834504 93.895845 
L 470.062608 85.487475 
L 471.632419 82.099777 
L 475.089282 74.085074 
L 478.117153 66.391316 
L 481.361752 57.344682 
L 483.146494 51.743995 
L 483.124233 51.784849 
L 482.711302 52.43039 
L 481.48827 54.065121 
L 478.534203 58.88748 
L 477.100474 60.384283 
L 472.951633 64.479596 
L 470.914327 66.914795 
L 469.087409 69.405774 
L 466.886804 72.767206 
L 464.005529 77.659811 
L 459.887053 85.251914 
L 452.969261 98.150261 
L 443.473408 115.330843 
L 439.671607 122.989097 
L 437.131417 128.567429 
L 433.568595 136.852529 
L 433.568595 136.852529 
" style="fill:none;stroke:#000000;stroke-linecap:square;stroke-opacity:0.7;stroke-width:1.2;"/>
   </g>
   <g id="line2d_20">
    <path clip-path="url(#p0b7aeea7e1)" d="M 432.14991 111.433838 
L 432.771848 116.001475 
L 433.029406 117.437529 
L 434.151254 122.103719 
L 434.700394 123.764297 
L 435.77512 126.182549 
L 436.389553 127.127012 
L 437.150712 127.862051 
L 437.892623 128.081942 
L 438.269455 127.984857 
L 438.832343 127.5417 
L 439.192134 127.047308 
L 439.65266 126.136224 
L 440.018452 125.155635 
L 440.879959 121.706185 
L 441.566454 117.394788 
L 442.146743 112.203924 
L 442.922008 102.719342 
L 443.801956 92.079376 
L 444.42583 87.102693 
L 445.109253 83.481835 
L 445.720317 81.207965 
L 446.582999 78.900002 
L 447.590329 76.992039 
L 448.50057 75.700817 
L 449.476005 74.600419 
L 450.781628 73.415225 
L 452.75159 71.978243 
L 454.926128 70.620728 
L 460.758076 67.061895 
L 463.805573 64.903998 
L 466.333209 62.8397 
L 468.585585 60.734314 
L 470.782494 58.390376 
L 473.369257 55.209506 
L 476.639817 51.012188 
L 477.151818 50.681501 
L 477.413364 50.639813 
L 477.940409 50.911089 
L 478.473215 51.599249 
L 478.953153 52.112348 
L 479.07667 52.038759 
L 479.129246 51.751667 
L 479.012616 50.954411 
L 478.710813 50.253119 
L 478.345099 49.861127 
L 477.829748 49.732571 
L 477.184056 50.015203 
L 476.592604 50.57467 
L 475.811286 51.6293 
L 473.963836 55.045837 
L 471.73647 60.11034 
L 466.916351 72.163588 
L 464.548166 77.995543 
L 460.831432 86.452608 
L 458.223869 91.653192 
L 456.728045 94.313467 
L 454.922648 97.195366 
L 453.592265 99.090242 
L 451.606693 101.574189 
L 449.647101 103.65524 
L 447.225399 105.786315 
L 444.930687 107.427976 
L 443.804475 108.118998 
L 441.8016 109.185373 
L 439.69942 110.10458 
L 436.667463 111.107329 
L 433.843787 111.712528 
L 432.274972 111.903534 
L 432.274972 111.903534 
" style="fill:none;stroke:#000000;stroke-linecap:square;stroke-opacity:0.7;stroke-width:1.2;"/>
   </g>
   <g id="line2d_21">
    <path clip-path="url(#p0b7aeea7e1)" d="M 517.578846 214.639345 
L 515.74987 217.284787 
L 513.50795 220.204847 
L 511.656932 222.385771 
L 508.930794 225.247156 
L 506.295223 227.616916 
L 504.187721 229.217957 
L 502.532491 230.282431 
L 500.213372 231.476989 
L 498.385807 232.16993 
L 496.431425 232.669762 
L 494.216139 232.942672 
L 491.753426 232.896777 
L 490.312165 232.708607 
L 487.521273 232.028844 
L 484.894625 231.039324 
L 482.845513 230.055449 
L 480.0403 228.44638 
L 476.632136 226.177183 
L 472.040346 223.01417 
L 470.467124 222.179344 
L 469.530121 221.893062 
L 469.034431 221.86104 
L 468.271788 222.104989 
L 467.775319 222.626927 
L 467.444961 223.32714 
L 467.177629 224.430758 
L 467.04724 225.594562 
L 467.031855 228.458825 
L 467.210648 230.921032 
L 467.854181 235.485048 
L 468.717696 239.294431 
L 469.015856 240.30652 
L 469.845681 242.579185 
L 470.654476 244.224849 
L 471.364559 245.340858 
L 472.935335 247.092199 
L 474.33643 248.151712 
L 475.94839 249.071811 
L 478.706282 250.33115 
L 482.355545 251.767515 
L 485.196515 252.723291 
L 488.030123 253.471927 
L 490.477959 253.924582 
L 493.279923 254.224283 
L 497.429634 254.330708 
L 504.363905 254.119908 
L 512.888199 253.69353 
L 515.142621 253.469227 
L 519.061826 252.764007 
L 521.150505 252.092005 
L 522.419531 251.503212 
L 523.686649 250.690664 
L 524.707185 249.760479 
L 525.409407 248.859604 
L 526.041668 247.674491 
L 526.523295 246.137435 
L 526.625018 245.600323 
L 526.552342 240.469245 
L 525.954754 237.323642 
L 525.460765 235.371215 
L 524.925566 233.519232 
L 522.794402 227.381839 
L 520.176072 221.141144 
L 517.11761 214.874073 
L 517.11761 214.874073 
" style="fill:none;stroke:#000000;stroke-linecap:square;stroke-opacity:0.7;stroke-width:1.2;"/>
   </g>
   <g id="line2d_22">
    <path clip-path="url(#p0b7aeea7e1)" d="M 518.442401 187.914244 
L 524.895669 181.553931 
L 530.120065 175.950152 
L 533.658134 171.815522 
L 536.523247 168.206443 
L 539.30265 164.435593 
L 543.200361 158.611385 
L 545.705659 154.482492 
L 548.734396 149.031047 
L 550.958238 144.679068 
L 554.17895 137.81538 
L 557.507082 129.996557 
L 560.623765 121.985806 
L 563.515823 113.914648 
L 566.131413 106.275267 
L 566.165322 106.4977 
L 566.069859 107.820882 
L 565.833379 108.465415 
L 565.504701 109.431242 
L 564.419308 113.208924 
L 563.99746 114.098203 
L 563.233959 115.20695 
L 561.660822 116.819367 
L 560.395388 118.120273 
L 558.54205 120.407152 
L 556.754678 123.079538 
L 554.624807 126.753674 
L 553.397169 129.051563 
L 548.397302 139.127901 
L 542.298815 151.551419 
L 539.507794 156.876252 
L 536.929407 161.461503 
L 534.941528 164.740055 
L 532.077685 169.046686 
L 529.425355 172.627696 
L 521.718839 182.34456 
L 519.95568 185.023464 
L 518.350647 187.944308 
L 518.350647 187.944308 
" style="fill:none;stroke:#000000;stroke-linecap:square;stroke-opacity:0.7;stroke-width:1.2;"/>
   </g>
   <g id="line2d_23">
    <path clip-path="url(#p0b7aeea7e1)" d="M 517.793286 162.388621 
L 521.524792 157.524498 
L 524.68352 153.094446 
L 528.531061 147.153625 
L 531.610917 141.893042 
L 534.66351 136.236052 
L 538.47218 128.629039 
L 541.998801 121.125759 
L 546.691885 110.576678 
L 554.56871 92.556217 
L 556.372419 89.128161 
L 557.590494 87.225504 
L 559.009989 85.445072 
L 560.879924 83.557211 
L 562.528857 81.824459 
L 563.199049 80.801193 
L 563.412915 80.144902 
L 563.346422 79.691657 
L 563.200818 79.539874 
L 562.799092 79.444097 
L 562.239191 79.5351 
L 561.118238 79.968638 
L 558.391348 81.361001 
L 546.060497 87.929094 
L 543.695118 89.530989 
L 541.253536 91.495341 
L 539.363057 93.317766 
L 537.388584 95.602132 
L 535.817525 97.783753 
L 534.119439 100.617454 
L 533.023355 102.778059 
L 531.349094 106.714867 
L 530.089632 110.27812 
L 528.497678 115.499436 
L 525.956988 123.99777 
L 523.572005 130.891072 
L 521.912901 135.944009 
L 520.839076 139.85195 
L 519.98673 143.677795 
L 519.433994 146.761359 
L 518.685964 152.470874 
L 518.397126 155.724962 
L 518.053063 162.679808 
L 518.053063 162.679808 
" style="fill:none;stroke:#000000;stroke-linecap:square;stroke-opacity:0.7;stroke-width:1.2;"/>
   </g>
   <g id="line2d_24">
    <path clip-path="url(#p0b7aeea7e1)" d="M 516.764533 136.322857 
L 514.131666 138.365671 
L 511.289398 140.339959 
L 509.782898 141.137725 
L 508.619037 141.395917 
L 507.698836 141.238896 
L 506.944079 140.819178 
L 506.112421 140.037564 
L 505.211861 138.823675 
L 504.454503 137.519505 
L 503.34155 135.116122 
L 502.366718 132.301717 
L 502.044846 130.943399 
L 501.898329 129.664859 
L 501.986595 128.723219 
L 502.223124 128.14888 
L 502.686335 127.652399 
L 503.557201 127.207398 
L 508.036173 125.546936 
L 509.73938 124.502356 
L 511.652392 122.947654 
L 513.4901 121.063372 
L 515.216344 118.977723 
L 519.100314 114.090724 
L 520.249396 113.096651 
L 521.129897 112.614648 
L 522.194114 112.348664 
L 523.14245 112.341576 
L 525.287015 112.69814 
L 526.996107 112.896889 
L 528.059416 112.792887 
L 528.831463 112.534108 
L 529.569139 112.084173 
L 530.262138 111.412242 
L 530.968033 110.363811 
L 531.604297 108.900047 
L 532.044808 107.319705 
L 532.387999 105.063591 
L 532.411138 103.269811 
L 532.26524 102.79744 
L 532.154512 102.809554 
L 531.941305 103.140583 
L 531.448525 104.53914 
L 528.567786 114.025054 
L 526.976014 118.199765 
L 525.425176 121.593539 
L 523.811139 124.603189 
L 520.836468 129.445297 
L 518.767618 133.043297 
L 517.626897 135.737977 
L 517.208273 137.247255 
L 517.208273 137.247255 
" style="fill:none;stroke:#000000;stroke-linecap:square;stroke-opacity:0.7;stroke-width:1.2;"/>
   </g>
   <g id="line2d_25">
    <path clip-path="url(#p0b7aeea7e1)" d="M 517.494901 111.186616 
L 523.507158 117.778344 
L 527.011452 121.287408 
L 531.116362 124.850826 
L 534.548248 127.224849 
L 536.070484 128.065268 
L 537.47766 128.712147 
L 539.614032 129.435212 
L 541.701012 129.813185 
L 543.32507 129.862679 
L 545.732738 129.504617 
L 547.133034 129.038447 
L 548.483161 128.393089 
L 550.113021 127.336198 
L 551.48092 126.192565 
L 553.417584 124.123932 
L 554.669438 122.470143 
L 557.897168 116.788013 
L 559.448036 113.126138 
L 560.740943 109.443561 
L 561.730568 106.1254 
L 562.514992 103.101682 
L 563.617665 98.075189 
L 564.761851 91.531966 
L 565.778981 84.127579 
L 566.907587 73.676593 
L 568.04854 60.427829 
L 569.133965 45.055072 
L 570.00224 29.611512 
L 570.09023 25.287952 
L 569.932823 24.919314 
L 569.640091 24.876139 
L 568.993082 25.036664 
L 568.243719 25.446412 
L 567.273642 26.232332 
L 565.772147 27.75458 
L 563.279712 30.667545 
L 560.080936 34.80877 
L 557.302361 38.693429 
L 554.514117 42.834605 
L 550.298486 49.52045 
L 545.26991 58.080771 
L 541.711396 64.453292 
L 533.574116 79.693226 
L 518.016263 109.70701 
L 518.016263 109.70701 
" style="fill:none;stroke:#000000;stroke-linecap:square;stroke-opacity:0.7;stroke-width:1.2;"/>
   </g>
  </g>
 </g>
 <defs>
  <clipPath id="p0b7aeea7e1">
   <rect height="262.08" width="694.08" x="12.96" y="12.96"/>
  </clipPath>
 </defs>
</svg>
