<?xml version="1.0" encoding="utf-8" standalone="no"?>
<!DOCTYPE svg PUBLIC "-//W3C//DTD SVG 1.1//EN"
  "http://www.w3.org/Graphics/SVG/1.1/DTD/svg11.dtd">
<!-- Created with matplotlib (https://matplotlib.org/) -->
<svg height="288pt" version="1.1" viewBox="0 0 720 288" width="720pt" xmlns="http://www.w3.org/2000/svg" xmlns:xlink="http://www.w3.org/1999/xlink">
 <metadata>
  <rdf:RDF xmlns:cc="http://creativecommons.org/ns#" xmlns:dc="http://purl.org/dc/elements/1.1/" xmlns:rdf="http://www.w3.org/1999/02/22-rdf-syntax-ns#">
   <cc:Work>
    <dc:type rdf:resource="http://purl.org/dc/dcmitype/StillImage"/>
    <dc:date>2020-11-06T17:00:19.423880</dc:date>
    <dc:format>image/svg+xml</dc:format>
    <dc:creator>
     <cc:Agent>
      <dc:title>Matplotlib v3.3.2, https://matplotlib.org/</dc:title>
     </cc:Agent>
    </dc:creator>
   </cc:Work>
  </rdf:RDF>
 </metadata>
 <defs>
  <style type="text/css">*{stroke-linecap:butt;stroke-linejoin:round;}</style>
 </defs>
 <g id="figure_1">
  <g id="patch_1">
   <path d="M 0 288 
L 720 288 
L 720 0 
L 0 0 
z
" style="fill:#ffffff;"/>
  </g>
  <g id="axes_1">
   <g id="line2d_1">
    <path clip-path="url(#pd2d8ba16ad)" d="M 149.396008 227.013573 
L 145.625667 226.114698 
L 136.821829 224.29885 
L 123.569397 221.809424 
L 113.332003 220.071489 
L 105.119888 218.900438 
L 95.299987 217.764451 
L 71.490939 215.332949 
L 66.17218 214.958834 
L 63.979577 214.987253 
L 62.333408 215.190445 
L 60.694243 215.59858 
L 58.205937 216.535804 
L 54.533237 218.332917 
L 51.921473 219.861076 
L 49.398755 221.621273 
L 47.815836 222.991897 
L 46.968078 223.910609 
L 46.186989 225.075556 
L 45.927078 225.715894 
L 45.817642 226.35529 
L 45.955973 227.157624 
L 46.267032 227.670609 
L 47.031584 228.304969 
L 48.124208 228.796238 
L 49.33805 229.138317 
L 53.547764 229.844984 
L 59.593763 230.523847 
L 68.556553 231.307038 
L 80.302914 232.10034 
L 90.35343 232.558208 
L 97.393601 232.683253 
L 103.232104 232.593486 
L 110.448159 232.206703 
L 118.621482 231.495869 
L 130.449818 230.21722 
L 148.10485 228.071659 
L 149.377973 227.899926 
L 149.377973 227.899926 
" style="fill:none;stroke:#000000;stroke-linecap:square;stroke-opacity:0.7;stroke-width:1.2;"/>
   </g>
   <g id="line2d_2">
    <path clip-path="url(#pd2d8ba16ad)" d="M 148.788644 187.83792 
L 144.042336 187.130207 
L 135.207774 186.090819 
L 99.90561 182.332939 
L 91.216686 181.780575 
L 82.411409 181.450989 
L 73.772636 181.33251 
L 67.085663 181.453077 
L 62.739753 181.764916 
L 60.079124 182.147218 
L 56.594767 182.918424 
L 52.713989 184.043766 
L 49.4159 185.254077 
L 47.092731 186.447477 
L 46.056566 187.337013 
L 45.736905 188.006055 
L 45.798079 188.503613 
L 46.138788 188.982075 
L 46.744009 189.422513 
L 48.11506 190.007985 
L 50.164815 190.513514 
L 52.340114 190.787264 
L 55.190257 190.843098 
L 59.675374 190.590745 
L 71.15142 189.843437 
L 78.119703 189.611349 
L 84.507489 189.603953 
L 90.529942 189.813855 
L 96.648425 190.263577 
L 115.291472 191.972464 
L 119.895853 192.090657 
L 124.567111 192.02413 
L 129.795325 191.727427 
L 135.661996 191.120455 
L 140.259614 190.447811 
L 146.611483 189.250663 
L 148.952161 188.736881 
L 148.952161 188.736881 
" style="fill:none;stroke:#000000;stroke-linecap:square;stroke-opacity:0.7;stroke-width:1.2;"/>
   </g>
   <g id="line2d_3">
    <path clip-path="url(#pd2d8ba16ad)" d="M 149.747447 147.663594 
L 144.65721 146.452535 
L 136.418046 144.766042 
L 125.946836 142.864939 
L 113.2894 140.796842 
L 104.700075 139.594549 
L 97.298192 138.771847 
L 89.382506 138.112129 
L 80.827689 137.606239 
L 72.773775 137.327274 
L 67.369374 137.312294 
L 63.890459 137.453703 
L 61.987114 137.624283 
L 58.723917 138.181548 
L 56.098656 138.968777 
L 53.560498 140.027481 
L 50.923565 141.400097 
L 48.69624 142.811243 
L 47.636584 143.612472 
L 46.158903 145.047952 
L 45.532127 146.02552 
L 45.335648 146.694567 
L 45.368295 147.286051 
L 45.868088 148.103163 
L 46.584117 148.601931 
L 46.935307 148.768281 
L 48.125323 149.153836 
L 50.70922 149.540458 
L 57.257031 150.0578 
L 79.754605 152.436158 
L 88.699474 153.134205 
L 96.173314 153.495527 
L 100.706068 153.550783 
L 106.131456 153.392779 
L 112.107382 152.93974 
L 120.378022 152.017123 
L 140.774205 149.609628 
L 149.680778 148.807372 
L 149.680778 148.807372 
" style="fill:none;stroke:#000000;stroke-linecap:square;stroke-opacity:0.7;stroke-width:1.2;"/>
   </g>
   <g id="line2d_4">
    <path clip-path="url(#pd2d8ba16ad)" d="M 149.543847 107.835238 
L 144.706371 107.15807 
L 136.206898 106.230772 
L 123.780125 105.120837 
L 108.405666 103.968602 
L 96.65171 103.296101 
L 84.462501 102.840295 
L 73.264809 102.64485 
L 65.745254 102.711802 
L 60.484119 102.976347 
L 56.454222 103.439941 
L 53.269909 104.056064 
L 49.983378 104.946238 
L 47.504774 105.817743 
L 45.54193 106.768914 
L 44.768152 107.386668 
L 44.509091 107.908598 
L 44.606977 108.294799 
L 44.828237 108.544904 
L 45.763014 109.060613 
L 47.686049 109.618403 
L 50.605434 110.158752 
L 57.522268 111.323597 
L 60.716865 111.882945 
L 65.613019 112.428282 
L 71.025315 112.800911 
L 79.478217 113.138094 
L 87.686035 113.241357 
L 94.407255 113.133011 
L 101.535017 112.765559 
L 108.754703 112.113998 
L 129.962151 109.925357 
L 138.541972 109.343592 
L 149.456233 108.776033 
L 149.456233 108.776033 
" style="fill:none;stroke:#000000;stroke-linecap:square;stroke-opacity:0.7;stroke-width:1.2;"/>
   </g>
   <g id="line2d_5">
    <path clip-path="url(#pd2d8ba16ad)" d="M 149.016479 68.230398 
L 143.100334 67.03386 
L 124.8877 63.677271 
L 114.014976 61.818182 
L 107.755974 60.979357 
L 102.570783 60.487381 
L 96.223218 60.12325 
L 89.4532 59.96047 
L 80.778739 60.004046 
L 73.068067 60.256646 
L 66.785906 60.671915 
L 62.768393 61.143341 
L 60.16818 61.610701 
L 56.606876 62.48184 
L 53.233021 63.522447 
L 50.322499 64.652786 
L 48.876574 65.359605 
L 47.262361 66.401682 
L 46.341954 67.33862 
L 45.974566 68.09798 
L 45.932653 68.322198 
L 46.03642 69.119581 
L 46.440957 69.795621 
L 46.920728 70.287527 
L 47.695038 70.8744 
L 49.079524 71.670698 
L 51.709736 72.811814 
L 54.254584 73.628074 
L 57.404067 74.342263 
L 61.189085 74.919451 
L 65.493702 75.344335 
L 70.550413 75.630094 
L 76.481582 75.736241 
L 81.120109 75.660551 
L 87.328083 75.325362 
L 92.979435 74.744181 
L 97.536064 74.053351 
L 102.579491 73.082139 
L 113.719851 70.854001 
L 118.590533 70.112508 
L 123.389299 69.573441 
L 128.648412 69.197065 
L 134.712409 69.019619 
L 140.657442 69.072743 
L 149.01243 69.389906 
L 149.01243 69.389906 
" style="fill:none;stroke:#000000;stroke-linecap:square;stroke-opacity:0.7;stroke-width:1.2;"/>
   </g>
   <g id="line2d_6">
    <path clip-path="url(#pd2d8ba16ad)" d="M 280.666677 226.315682 
L 273.562947 225.200474 
L 248.401661 221.398604 
L 236.37859 219.584515 
L 228.34925 218.640948 
L 220.550554 217.959176 
L 211.53339 217.410595 
L 204.209425 217.156887 
L 198.161208 217.145887 
L 193.987237 217.34951 
L 190.582997 217.771542 
L 188.651657 218.157492 
L 185.431647 219.031689 
L 181.955211 220.235042 
L 179.380828 221.31644 
L 176.950198 222.624495 
L 176.22603 223.138974 
L 175.25929 224.144631 
L 175.001257 224.84932 
L 175.153127 225.517375 
L 175.47315 225.922206 
L 176.022299 226.340773 
L 177.247874 226.92754 
L 177.842162 227.138428 
L 181.625186 228.089264 
L 195.450506 230.926975 
L 201.398466 231.824297 
L 207.556392 232.526651 
L 213.634848 232.993289 
L 218.341851 233.179784 
L 223.267549 233.176874 
L 227.597357 232.973504 
L 231.906619 232.565417 
L 237.605229 231.752071 
L 256.509475 228.711468 
L 262.724601 227.998609 
L 269.041728 227.474258 
L 275.945006 227.129744 
L 280.670163 227.025031 
L 280.670163 227.025031 
" style="fill:none;stroke:#000000;stroke-linecap:square;stroke-opacity:0.7;stroke-width:1.2;"/>
   </g>
   <g id="line2d_7">
    <path clip-path="url(#pd2d8ba16ad)" d="M 280.942281 187.541156 
L 272.200291 186.549625 
L 256.227081 184.711966 
L 244.764383 183.149128 
L 232.191601 181.418743 
L 225.182004 180.712588 
L 217.891866 180.234803 
L 210.04711 179.979263 
L 203.122828 179.977463 
L 198.168455 180.142284 
L 194.019009 180.444463 
L 191.700473 180.712416 
L 189.327315 181.09123 
L 186.976142 181.598632 
L 183.197862 182.730079 
L 180.082383 183.973475 
L 177.498792 185.304486 
L 176.348244 186.0722 
L 175.003876 187.429755 
L 174.704512 188.208602 
L 174.712519 188.613721 
L 175.012196 189.276524 
L 175.340321 189.628504 
L 176.22314 190.222998 
L 177.778357 190.863071 
L 179.665006 191.367403 
L 182.897975 191.886981 
L 184.85592 192.031762 
L 186.710775 192.02329 
L 189.612708 191.680133 
L 193.301225 190.894131 
L 204.632507 188.330756 
L 211.475738 187.026053 
L 217.877438 186.02465 
L 222.705357 185.441831 
L 227.948516 185.021124 
L 233.186068 184.861359 
L 237.768997 184.933098 
L 244.521878 185.306451 
L 253.695109 186.075019 
L 276.220929 188.049029 
L 281.003534 188.359944 
L 281.003534 188.359944 
" style="fill:none;stroke:#000000;stroke-linecap:square;stroke-opacity:0.7;stroke-width:1.2;"/>
   </g>
   <g id="line2d_8">
    <path clip-path="url(#pd2d8ba16ad)" d="M 280.479978 148.030715 
L 272.526009 147.372476 
L 230.821468 144.436186 
L 211.321186 143.20122 
L 200.874724 142.714206 
L 195.40086 142.645815 
L 192.045429 142.801334 
L 188.656914 143.253718 
L 185.262174 143.982823 
L 180.841627 145.18182 
L 177.78872 146.294516 
L 176.597223 146.997232 
L 176.346398 147.262255 
L 176.230742 147.678384 
L 176.429419 148.000241 
L 177.095176 148.378621 
L 178.356643 148.732682 
L 181.111357 149.089067 
L 183.911662 149.22885 
L 196.934866 149.444892 
L 212.271397 149.772463 
L 223.098142 150.20148 
L 244.390872 151.227692 
L 251.559748 151.203074 
L 259.347982 150.921622 
L 267.297343 150.394316 
L 275.589612 149.598744 
L 280.538429 148.999432 
L 280.538429 148.999432 
" style="fill:none;stroke:#000000;stroke-linecap:square;stroke-opacity:0.7;stroke-width:1.2;"/>
   </g>
   <g id="line2d_9">
    <path clip-path="url(#pd2d8ba16ad)" d="M 281.046012 107.766266 
L 277.814021 106.904378 
L 270.220135 105.131693 
L 259.278761 102.836721 
L 247.192035 100.53493 
L 239.691311 99.320411 
L 234.118529 98.60613 
L 227.588085 98.009002 
L 220.835433 97.638921 
L 212.638646 97.471863 
L 205.91151 97.560291 
L 200.057411 97.855813 
L 196.402272 98.20696 
L 193.909013 98.568542 
L 190.880594 99.21869 
L 188.509703 99.952664 
L 185.468471 101.21225 
L 181.910618 103.05874 
L 180.090748 104.159953 
L 178.594716 105.189714 
L 177.024968 106.510532 
L 175.877926 107.987788 
L 175.607919 108.912787 
L 175.683542 109.511381 
L 175.99866 110.085762 
L 176.37941 110.4703 
L 177.238441 111.01736 
L 178.57402 111.536381 
L 180.336828 111.937777 
L 182.743312 112.133345 
L 185.164093 111.982 
L 188.961471 111.395269 
L 203.638664 108.84928 
L 211.444199 107.745537 
L 217.943092 107.020558 
L 224.201404 106.543994 
L 228.711471 106.37617 
L 233.975079 106.397232 
L 240.300418 106.695684 
L 252.130628 107.59403 
L 263.646198 108.383633 
L 271.862989 108.738712 
L 279.165932 108.83818 
L 281.015439 108.822237 
L 281.015439 108.822237 
" style="fill:none;stroke:#000000;stroke-linecap:square;stroke-opacity:0.7;stroke-width:1.2;"/>
   </g>
   <g id="line2d_10">
    <path clip-path="url(#pd2d8ba16ad)" d="M 280.874289 67.935512 
L 269.740768 66.575337 
L 253.93977 64.565452 
L 238.970674 62.637476 
L 231.640776 61.957142 
L 223.252368 61.41912 
L 212.989517 61.003924 
L 203.339815 60.843138 
L 197.076459 60.951382 
L 193.530271 61.187115 
L 190.403915 61.605408 
L 187.832313 62.16113 
L 185.285773 62.91702 
L 182.286781 64.08543 
L 180.097132 65.198757 
L 178.55434 66.226184 
L 177.563495 67.121859 
L 176.86479 68.087818 
L 176.577215 68.944365 
L 176.617456 69.786223 
L 176.997973 70.617613 
L 177.189086 70.87407 
L 178.003299 71.653827 
L 179.466005 72.573241 
L 181.39491 73.421686 
L 183.843319 74.190128 
L 186.789946 74.763417 
L 190.384226 75.06602 
L 194.302429 75.114496 
L 200.136295 74.907843 
L 206.112973 74.48333 
L 212.994127 73.777126 
L 219.287871 72.906327 
L 224.404741 71.99973 
L 230.195453 70.743499 
L 239.008676 68.752275 
L 243.738052 67.945645 
L 247.893577 67.459529 
L 253.38292 67.123618 
L 258.335875 67.085407 
L 262.992425 67.245618 
L 269.106003 67.692946 
L 276.892211 68.53286 
L 280.885103 69.017994 
L 280.885103 69.017994 
" style="fill:none;stroke:#000000;stroke-linecap:square;stroke-opacity:0.7;stroke-width:1.2;"/>
   </g>
   <g id="line2d_11">
    <path clip-path="url(#pd2d8ba16ad)" d="M 412.403059 225.699896 
L 401.950963 223.657465 
L 372.944286 218.050091 
L 367.943851 217.398457 
L 362.607217 216.928254 
L 357.058937 216.654999 
L 350.034711 216.547274 
L 342.738439 216.648448 
L 335.032585 216.972974 
L 329.486096 217.399845 
L 325.999259 217.826672 
L 323.441585 218.283042 
L 320.222611 219.104959 
L 317.117023 220.156202 
L 314.046452 221.421176 
L 311.523683 222.680687 
L 309.313595 224.092834 
L 308.282068 224.977965 
L 307.538653 225.879205 
L 307.168812 226.668454 
L 307.090542 227.401018 
L 307.315997 228.150569 
L 307.7471 228.733206 
L 308.123619 229.070672 
L 309.337874 229.764121 
L 310.437385 230.109871 
L 312.231986 230.311065 
L 314.154845 230.224216 
L 316.875745 229.863904 
L 323.486935 228.658885 
L 339.816992 225.598857 
L 347.739507 224.308951 
L 354.819943 223.368857 
L 359.799578 222.908482 
L 364.237502 222.708199 
L 369.226427 222.762104 
L 374.895599 223.129435 
L 382.277071 223.890071 
L 409.018554 226.899333 
L 412.409704 227.161334 
L 412.409704 227.161334 
" style="fill:none;stroke:#000000;stroke-linecap:square;stroke-opacity:0.7;stroke-width:1.2;"/>
   </g>
   <g id="line2d_12">
    <path clip-path="url(#pd2d8ba16ad)" d="M 412.354501 186.196101 
L 408.78107 185.432228 
L 403.068587 184.426458 
L 392.484174 182.831221 
L 375.74076 180.552698 
L 367.248252 179.619118 
L 361.181021 179.141407 
L 352.816676 178.721521 
L 344.030986 178.519301 
L 336.224523 178.544933 
L 329.836565 178.785779 
L 325.578423 179.161526 
L 322.610192 179.608811 
L 318.947221 180.451044 
L 315.554325 181.518169 
L 311.818519 183.03565 
L 309.996764 183.984733 
L 307.960907 185.440377 
L 307.178646 186.341926 
L 306.800817 187.172751 
L 306.740541 187.708092 
L 306.834457 188.25641 
L 307.180664 188.938659 
L 307.74611 189.579056 
L 308.721396 190.335164 
L 310.328062 191.241051 
L 312.660688 192.226924 
L 314.943642 192.913572 
L 317.018671 193.326774 
L 318.940043 193.58128 
L 322.829122 193.868285 
L 327.933294 193.983978 
L 334.429978 193.889193 
L 341.697188 193.562477 
L 349.004713 193.022604 
L 355.548525 192.337023 
L 362.369314 191.400665 
L 376.629621 189.291151 
L 383.109883 188.588309 
L 390.146875 188.050922 
L 397.126244 187.711649 
L 410.055623 187.364738 
L 412.387237 187.296405 
L 412.387237 187.296405 
" style="fill:none;stroke:#000000;stroke-linecap:square;stroke-opacity:0.7;stroke-width:1.2;"/>
   </g>
   <g id="line2d_13">
    <path clip-path="url(#pd2d8ba16ad)" d="M 411.963443 147.00471 
L 407.715095 146.018633 
L 401.165143 144.772883 
L 393.556632 143.562074 
L 384.847948 142.416134 
L 378.685662 141.77112 
L 372.116433 141.265584 
L 364.785268 140.923645 
L 355.032736 140.722216 
L 343.319628 140.699793 
L 333.277907 140.878124 
L 327.837584 141.186628 
L 324.93756 141.559969 
L 322.579187 142.050582 
L 318.380229 143.211518 
L 314.442188 144.553876 
L 311.37278 145.858641 
L 309.920193 146.623579 
L 309.089688 147.140201 
L 307.696947 148.301389 
L 307.458376 148.593171 
L 307.051756 149.448953 
L 307.054041 149.989297 
L 307.380293 150.611636 
L 307.762026 150.948083 
L 308.760812 151.415293 
L 310.078943 151.676237 
L 312.142847 151.744024 
L 316.98705 151.317119 
L 325.741937 150.018854 
L 342.173543 147.50264 
L 349.249082 146.62892 
L 354.335592 146.175466 
L 359.110038 145.958846 
L 362.617636 145.969361 
L 366.85223 146.18707 
L 372.983961 146.792917 
L 385.150377 148.102767 
L 390.617672 148.48729 
L 396.694401 148.685542 
L 401.783396 148.641125 
L 407.228651 148.367549 
L 411.976037 147.941404 
L 411.976037 147.941404 
" style="fill:none;stroke:#000000;stroke-linecap:square;stroke-opacity:0.7;stroke-width:1.2;"/>
   </g>
   <g id="line2d_14">
    <path clip-path="url(#pd2d8ba16ad)" d="M 411.858853 107.772371 
L 404.647041 106.942671 
L 386.644302 105.189473 
L 369.633759 103.648773 
L 363.383546 103.275254 
L 356.427691 103.072857 
L 348.876549 103.079342 
L 340.263773 103.337776 
L 333.893993 103.719441 
L 328.227405 104.265457 
L 324.074568 104.882235 
L 320.254424 105.685186 
L 315.772256 106.84925 
L 312.161469 107.985611 
L 310.410792 108.701147 
L 308.99541 109.52712 
L 308.455599 110.056786 
L 308.198451 110.726431 
L 308.414014 111.39266 
L 308.952896 111.955119 
L 309.59364 112.393569 
L 311.018255 113.081052 
L 312.009564 113.421001 
L 313.247574 113.698537 
L 315.158026 113.801627 
L 317.211158 113.582489 
L 321.099385 112.759959 
L 340.54722 108.081879 
L 345.93454 107.069978 
L 351.757258 106.22461 
L 355.478066 105.860773 
L 359.426995 105.662139 
L 363.666102 105.689475 
L 368.416635 105.998498 
L 374.53823 106.680299 
L 386.801569 108.172959 
L 393.86931 108.7949 
L 399.209724 109.075257 
L 404.745061 109.165803 
L 410.701083 109.021291 
L 411.936606 108.959006 
L 411.936606 108.959006 
" style="fill:none;stroke:#000000;stroke-linecap:square;stroke-opacity:0.7;stroke-width:1.2;"/>
   </g>
   <g id="line2d_15">
    <path clip-path="url(#pd2d8ba16ad)" d="M 412.416894 69.038897 
L 407.55312 68.232658 
L 400.472754 67.285825 
L 385.683662 65.594366 
L 360.651804 62.915016 
L 352.841843 62.328883 
L 343.936831 61.893243 
L 336.369002 61.727353 
L 330.142629 61.783331 
L 325.056906 62.058495 
L 321.860386 62.427759 
L 318.315664 63.126854 
L 314.763721 64.190329 
L 311.895125 65.313854 
L 309.725136 66.385847 
L 308.149117 67.471975 
L 307.572228 68.166373 
L 307.44302 68.587016 
L 307.641175 69.16785 
L 308.291465 69.647552 
L 308.811235 69.864 
L 310.385916 70.247994 
L 312.533978 70.483552 
L 314.544999 70.532572 
L 317.599552 70.322746 
L 324.347692 69.423947 
L 329.934696 69.076576 
L 335.980336 68.950921 
L 343.177936 69.034715 
L 350.270401 69.329515 
L 357.890545 69.864992 
L 379.140486 71.592773 
L 385.460083 71.727713 
L 391.216843 71.64258 
L 397.663121 71.336158 
L 404.74644 70.77905 
L 412.324335 69.982541 
L 412.324335 69.982541 
" style="fill:none;stroke:#000000;stroke-linecap:square;stroke-opacity:0.7;stroke-width:1.2;"/>
   </g>
   <g id="line2d_16">
    <path clip-path="url(#pd2d8ba16ad)" d="M 543.300499 226.014609 
L 531.292861 224.391135 
L 520.409173 222.803889 
L 497.694729 219.300047 
L 491.388419 218.661563 
L 484.362366 218.172234 
L 476.440202 217.84418 
L 468.438357 217.730801 
L 462.454954 217.830369 
L 457.996532 218.092457 
L 455.413927 218.382616 
L 452.26175 218.954324 
L 449.067539 219.791874 
L 445.276391 221.038405 
L 441.633349 222.526096 
L 439.791658 223.529365 
L 438.746857 224.399367 
L 438.513995 224.763106 
L 438.465103 225.281621 
L 438.786714 225.724725 
L 439.271983 226.017164 
L 440.133305 226.317294 
L 441.227059 226.54529 
L 443.758124 226.798782 
L 447.967883 226.880552 
L 455.274811 227.022326 
L 469.762913 227.623518 
L 491.795045 228.540277 
L 499.520007 228.616883 
L 507.062721 228.451338 
L 519.019493 227.919014 
L 538.438806 227.064757 
L 543.254272 226.917532 
L 543.254272 226.917532 
" style="fill:none;stroke:#000000;stroke-linecap:square;stroke-opacity:0.7;stroke-width:1.2;"/>
   </g>
   <g id="line2d_17">
    <path clip-path="url(#pd2d8ba16ad)" d="M 543.965737 186.941762 
L 539.812319 186.071183 
L 531.180404 184.556214 
L 499.052495 179.271831 
L 491.713886 178.413286 
L 483.107121 177.657161 
L 473.29999 177.041998 
L 465.407724 176.757471 
L 459.786365 176.796243 
L 457.233128 176.976521 
L 454.623337 177.375397 
L 452.227977 178.006073 
L 449.354472 179.072821 
L 446.090529 180.589597 
L 443.29964 182.177302 
L 442.74321 182.546883 
L 441.444961 183.548088 
L 440.388601 184.774923 
L 440.17829 185.424731 
L 440.298367 185.961085 
L 440.724534 186.396084 
L 441.370448 186.703002 
L 442.694611 186.983231 
L 444.593453 187.074979 
L 450.101125 187.025749 
L 454.949926 187.26734 
L 467.154643 188.211702 
L 488.886503 189.910406 
L 495.449225 190.223221 
L 500.800239 190.286484 
L 507.123322 190.131086 
L 516.024277 189.654519 
L 543.990123 187.876474 
L 543.990123 187.876474 
" style="fill:none;stroke:#000000;stroke-linecap:square;stroke-opacity:0.7;stroke-width:1.2;"/>
   </g>
   <g id="line2d_18">
    <path clip-path="url(#pd2d8ba16ad)" d="M 543.573627 148.285771 
L 515.690567 145.738622 
L 504.501886 144.278679 
L 493.376484 142.874964 
L 486.404057 142.222069 
L 478.640536 141.729715 
L 470.98119 141.460848 
L 463.494773 141.414049 
L 456.957853 141.615528 
L 451.860702 142.047192 
L 449.528097 142.376801 
L 445.256731 143.279518 
L 442.223404 144.185618 
L 439.788911 145.1325 
L 438.086386 146.105724 
L 437.522546 146.830563 
L 437.578639 147.252606 
L 437.70709 147.426523 
L 438.53053 147.932593 
L 440.487028 148.481788 
L 442.819568 148.859155 
L 453.573273 150.217322 
L 459.098977 151.38179 
L 464.983957 152.292024 
L 471.487375 153.027035 
L 478.432037 153.583862 
L 484.684823 153.889957 
L 490.660307 153.97646 
L 495.316149 153.871148 
L 501.129599 153.506919 
L 507.454518 152.874846 
L 530.884376 150.277919 
L 540.453905 149.567526 
L 543.570661 149.386317 
L 543.570661 149.386317 
" style="fill:none;stroke:#000000;stroke-linecap:square;stroke-opacity:0.7;stroke-width:1.2;"/>
   </g>
   <g id="line2d_19">
    <path clip-path="url(#pd2d8ba16ad)" d="M 543.499479 107.658635 
L 535.01606 106.966031 
L 517.247795 105.524068 
L 488.396441 102.921879 
L 480.165319 102.502434 
L 470.385567 102.239073 
L 462.590547 102.262016 
L 456.985043 102.504504 
L 452.993187 102.902009 
L 449.605156 103.487202 
L 446.374461 104.292636 
L 442.426238 105.539672 
L 440.351458 106.39347 
L 439.801907 106.776161 
L 439.783376 107.049228 
L 440.254011 107.234062 
L 441.453381 107.346719 
L 444.610953 107.300575 
L 450.573495 106.90469 
L 454.453867 106.658448 
L 459.470889 106.570335 
L 468.204099 106.694389 
L 478.975703 107.108846 
L 491.322602 107.829254 
L 504.000102 108.532688 
L 513.090258 108.799696 
L 523.975055 108.890687 
L 538.173533 108.763424 
L 543.488753 108.650723 
L 543.488753 108.650723 
" style="fill:none;stroke:#000000;stroke-linecap:square;stroke-opacity:0.7;stroke-width:1.2;"/>
   </g>
   <g id="line2d_20">
    <path clip-path="url(#pd2d8ba16ad)" d="M 543.825039 68.881642 
L 539.816839 68.339341 
L 533.322698 67.673585 
L 524.046809 66.940471 
L 513.253668 66.305316 
L 477.762959 64.507004 
L 460.5501 63.410785 
L 456.418796 63.352255 
L 454.81487 63.422146 
L 451.30325 63.878468 
L 448.524299 64.540241 
L 445.909334 65.372583 
L 443.070631 66.572612 
L 441.642085 67.409264 
L 440.942862 67.964148 
L 440.245022 68.884079 
L 440.137037 69.598878 
L 440.395129 70.22675 
L 441.003004 70.837324 
L 442.227027 71.557209 
L 444.146023 72.312403 
L 446.815322 73.080027 
L 450.425383 73.822149 
L 455.106934 74.49728 
L 461.771179 75.184315 
L 470.087258 75.781936 
L 478.165407 76.132415 
L 483.97401 76.212936 
L 489.235496 76.103626 
L 494.174716 75.7792 
L 498.462407 75.303203 
L 506.367523 74.135356 
L 517.850407 72.451098 
L 526.259295 71.431278 
L 536.403415 70.441763 
L 543.887596 69.806322 
L 543.887596 69.806322 
" style="fill:none;stroke:#000000;stroke-linecap:square;stroke-opacity:0.7;stroke-width:1.2;"/>
   </g>
   <g id="line2d_21">
    <path clip-path="url(#pd2d8ba16ad)" d="M 675.31693 225.945913 
L 669.579246 225.215211 
L 659.552642 224.213768 
L 650.188368 223.464329 
L 639.409044 222.825815 
L 608.732233 221.280777 
L 592.461307 220.370334 
L 588.32941 220.307622 
L 586.725288 220.343058 
L 582.940825 220.667642 
L 580.28686 221.177524 
L 577.42916 221.993093 
L 574.017047 223.256785 
L 571.865245 224.237699 
L 569.909559 225.434348 
L 569.302929 226.104543 
L 569.21489 226.442651 
L 569.290326 226.688898 
L 569.619006 226.984597 
L 570.172466 227.21117 
L 571.197523 227.417056 
L 573.516053 227.561869 
L 588.032591 227.771432 
L 602.778343 228.346246 
L 614.643972 229.025935 
L 633.856053 230.265277 
L 640.38807 230.321995 
L 646.295151 230.153903 
L 652.755164 229.757404 
L 660.011792 229.069795 
L 667.039732 228.16689 
L 673.50192 227.11929 
L 675.333442 226.777932 
L 675.333442 226.777932 
" style="fill:none;stroke:#000000;stroke-linecap:square;stroke-opacity:0.7;stroke-width:1.2;"/>
   </g>
   <g id="line2d_22">
    <path clip-path="url(#pd2d8ba16ad)" d="M 675.348405 187.22934 
L 671.705974 186.3956 
L 664.327053 184.951766 
L 654.219895 183.216229 
L 644.305905 181.733552 
L 636.825754 180.814661 
L 629.563585 180.143318 
L 620.717175 179.585243 
L 608.37593 179.063856 
L 595.113429 178.69812 
L 590.210039 178.729069 
L 587.806202 178.889363 
L 584.677683 179.379713 
L 581.939212 180.079518 
L 579.021595 181.063833 
L 576.339413 182.215536 
L 574.025944 183.523404 
L 572.911606 184.374764 
L 572.093435 185.254984 
L 571.621574 186.215996 
L 571.607416 186.994432 
L 571.903575 187.655911 
L 572.513626 188.289133 
L 573.100561 188.68648 
L 573.683234 188.990425 
L 575.299273 189.588856 
L 576.594096 189.91619 
L 579.112387 190.333804 
L 583.150228 190.71396 
L 590.107775 191.095539 
L 601.761039 191.466963 
L 613.13871 191.618282 
L 621.99909 191.54655 
L 630.467986 191.237019 
L 641.622928 190.525544 
L 663.156426 189.109206 
L 675.287165 188.421424 
L 675.287165 188.421424 
" style="fill:none;stroke:#000000;stroke-linecap:square;stroke-opacity:0.7;stroke-width:1.2;"/>
   </g>
   <g id="line2d_23">
    <path clip-path="url(#pd2d8ba16ad)" d="M 675.409464 147.611304 
L 673.009714 146.695307 
L 667.836554 144.945681 
L 660.091356 142.577277 
L 650.094222 139.771392 
L 641.703364 137.624096 
L 634.424713 135.997122 
L 628.630584 134.944116 
L 622.977264 134.173882 
L 618.045736 133.71109 
L 612.236308 133.391277 
L 605.947739 133.291357 
L 600.744989 133.402293 
L 596.144418 133.679171 
L 592.579573 134.064867 
L 589.17248 134.677945 
L 586.718036 135.378523 
L 584.440717 136.299298 
L 581.530044 137.799579 
L 578.526986 139.602018 
L 576.134248 141.254835 
L 573.721452 143.331926 
L 572.612227 144.695183 
L 572.07043 145.903955 
L 572.019366 146.565929 
L 572.184596 147.159557 
L 572.666913 147.772484 
L 573.27367 148.179103 
L 574.062486 148.503366 
L 576.062386 148.923109 
L 579.398846 149.285663 
L 589.454026 150.096131 
L 603.20696 150.949729 
L 616.614985 151.557171 
L 625.762482 151.764739 
L 632.446682 151.717277 
L 640.0448 151.430883 
L 649.599572 150.821792 
L 663.989989 149.651375 
L 675.34176 148.635856 
L 675.34176 148.635856 
" style="fill:none;stroke:#000000;stroke-linecap:square;stroke-opacity:0.7;stroke-width:1.2;"/>
   </g>
   <g id="line2d_24">
    <path clip-path="url(#pd2d8ba16ad)" d="M 675.219455 107.320626 
L 669.659079 106.447579 
L 656.335872 104.632327 
L 632.775621 101.617091 
L 626.079661 101.003053 
L 619.352849 100.616235 
L 611.185419 100.424248 
L 603.966909 100.476463 
L 597.502529 100.713145 
L 591.330837 101.180005 
L 586.525887 101.8305 
L 582.831804 102.61049 
L 579.034084 103.701242 
L 576.202964 104.701408 
L 573.6826 105.791601 
L 572.168431 106.64021 
L 571.140255 107.457071 
L 570.670698 108.098923 
L 570.537305 108.707657 
L 570.845761 109.458251 
L 571.296186 109.898254 
L 572.206314 110.470705 
L 573.509295 111.049259 
L 577.009223 112.185428 
L 584.371174 114.206498 
L 586.506571 114.607556 
L 589.903805 115.016814 
L 593.437828 115.233675 
L 598.032053 115.303925 
L 603.322307 115.16915 
L 608.824733 114.826236 
L 615.114857 114.192711 
L 620.75528 113.400624 
L 627.130673 112.283708 
L 637.853013 110.343923 
L 644.396283 109.437011 
L 650.552557 108.844676 
L 657.226357 108.469623 
L 664.88248 108.324675 
L 675.17788 108.399436 
L 675.17788 108.399436 
" style="fill:none;stroke:#000000;stroke-linecap:square;stroke-opacity:0.7;stroke-width:1.2;"/>
   </g>
   <g id="line2d_25">
    <path clip-path="url(#pd2d8ba16ad)" d="M 675.480848 67.964796 
L 671.341315 66.573069 
L 663.779494 64.318298 
L 650.430979 60.627012 
L 639.897582 57.895544 
L 633.760866 56.540107 
L 628.478847 55.654258 
L 624.088885 55.159927 
L 621.178691 54.952048 
L 614.892852 54.794054 
L 608.985084 54.958661 
L 603.570071 55.346986 
L 599.360995 55.806658 
L 595.49082 56.367154 
L 590.326636 57.385336 
L 586.49224 58.449325 
L 583.358558 59.641555 
L 583.042343 59.782242 
L 578.810616 61.955665 
L 574.555557 64.453573 
L 572.154982 66.135738 
L 570.603201 67.633668 
L 570.087801 68.502787 
L 569.97308 69.16288 
L 570.57512 70.183972 
L 571.313465 70.576931 
L 572.321283 70.843311 
L 577.827809 70.765378 
L 584.52926 70.030987 
L 603.510028 67.858479 
L 612.625171 67.04191 
L 617.950806 66.753757 
L 622.232574 66.704539 
L 627.489565 66.936982 
L 633.101514 67.464754 
L 645.290579 68.682362 
L 652.739523 69.17342 
L 660.112075 69.427127 
L 667.752068 69.461915 
L 675.490909 69.325088 
L 675.490909 69.325088 
" style="fill:none;stroke:#000000;stroke-linecap:square;stroke-opacity:0.7;stroke-width:1.2;"/>
   </g>
  </g>
 </g>
 <defs>
  <clipPath id="pd2d8ba16ad">
   <rect height="262.08" width="694.08" x="12.96" y="12.96"/>
  </clipPath>
 </defs>
</svg>
