<svg viewBox="0 0 1496 400" xmlns="http://www.w3.org/2000/svg"><g><g><g><g><g><line x1="50" y1="378" x2="45" y2="378" style="visibility: inherit;" fill="rgb(0, 0, 0)" stroke="rgb(204, 204, 204)" stroke-width="1px"></line><line x1="50" y1="330.75" x2="45" y2="330.75" style="visibility: inherit;" fill="rgb(0, 0, 0)" stroke="rgb(204, 204, 204)" stroke-width="1px"></line><line x1="50" y1="283.5" x2="45" y2="283.5" style="visibility: inherit;" fill="rgb(0, 0, 0)" stroke="rgb(204, 204, 204)" stroke-width="1px"></line><line x1="50" y1="236.24999999999997" x2="45" y2="236.24999999999997" style="visibility: inherit;" fill="rgb(0, 0, 0)" stroke="rgb(204, 204, 204)" stroke-width="1px"></line><line x1="50" y1="188.99999999999997" x2="45" y2="188.99999999999997" style="visibility: inherit;" fill="rgb(0, 0, 0)" stroke="rgb(204, 204, 204)" stroke-width="1px"></line><line x1="50" y1="141.75" x2="45" y2="141.75" style="visibility: inherit;" fill="rgb(0, 0, 0)" stroke="rgb(204, 204, 204)" stroke-width="1px"></line><line x1="50" y1="94.5" x2="45" y2="94.5" style="visibility: inherit;" fill="rgb(0, 0, 0)" stroke="rgb(204, 204, 204)" stroke-width="1px"></line><line x1="50" y1="47.25" x2="45" y2="47.25" style="visibility: inherit;" fill="rgb(0, 0, 0)" stroke="rgb(204, 204, 204)" stroke-width="1px"></line><line x1="50" y1="0" x2="45" y2="0" style="visibility: inherit;" fill="rgb(0, 0, 0)" stroke="rgb(204, 204, 204)" stroke-width="1px"></line></g><g transform="translate(40, 0)"><text x="0" y="378" dx="0em" dy="0.3em" style="text-anchor: end; visibility: hidden; font-family: &quot;Helvetica Neue&quot;, sans-serif; font-size: 12px; font-weight: 200;" fill="rgb(50, 49, 63)" stroke="none" stroke-width="1px">-0.2</text><text x="0" y="330.75" dx="0em" dy="0.3em" style="text-anchor: end; visibility: inherit; font-family: &quot;Helvetica Neue&quot;, sans-serif; font-size: 12px; font-weight: 200;" fill="rgb(50, 49, 63)" stroke="none" stroke-width="1px">0</text><text x="0" y="283.5" dx="0em" dy="0.3em" style="text-anchor: end; visibility: inherit; font-family: &quot;Helvetica Neue&quot;, sans-serif; font-size: 12px; font-weight: 200;" fill="rgb(50, 49, 63)" stroke="none" stroke-width="1px">0.2</text><text x="0" y="236.24999999999997" dx="0em" dy="0.3em" style="text-anchor: end; visibility: inherit; font-family: &quot;Helvetica Neue&quot;, sans-serif; font-size: 12px; font-weight: 200;" fill="rgb(50, 49, 63)" stroke="none" stroke-width="1px">0.4</text><text x="0" y="188.99999999999997" dx="0em" dy="0.3em" style="text-anchor: end; visibility: inherit; font-family: &quot;Helvetica Neue&quot;, sans-serif; font-size: 12px; font-weight: 200;" fill="rgb(50, 49, 63)" stroke="none" stroke-width="1px">0.6</text><text x="0" y="141.75" dx="0em" dy="0.3em" style="text-anchor: end; visibility: inherit; font-family: &quot;Helvetica Neue&quot;, sans-serif; font-size: 12px; font-weight: 200;" fill="rgb(50, 49, 63)" stroke="none" stroke-width="1px">0.8</text><text x="0" y="94.5" dx="0em" dy="0.3em" style="text-anchor: end; visibility: inherit; font-family: &quot;Helvetica Neue&quot;, sans-serif; font-size: 12px; font-weight: 200;" fill="rgb(50, 49, 63)" stroke="none" stroke-width="1px">1</text><text x="0" y="47.25" dx="0em" dy="0.3em" style="text-anchor: end; visibility: inherit; font-family: &quot;Helvetica Neue&quot;, sans-serif; font-size: 12px; font-weight: 200;" fill="rgb(50, 49, 63)" stroke="none" stroke-width="1px">1.2</text><text x="0" y="0" dx="0em" dy="0.3em" style="text-anchor: end; visibility: hidden; font-family: &quot;Helvetica Neue&quot;, sans-serif; font-size: 12px; font-weight: 200;" fill="rgb(50, 49, 63)" stroke="none" stroke-width="1px">1.4</text></g><line x1="50" y1="0" x2="50" y2="378" fill="rgb(0, 0, 0)" stroke="rgb(204, 204, 204)" stroke-width="1px"></line></g></g><g transform="translate(50, 0)" clip-path="url(#clip_0)"><clipPath id="clip_0"><rect width="1446" height="378"></rect></clipPath><g><g><g><line x1="0" y1="0" x2="0" y2="378" fill="rgb(0, 0, 0)" stroke="rgb(60, 60, 60)" stroke-width="1px" opacity="0.25"></line><line x1="120.5" y1="0" x2="120.5" y2="378" fill="rgb(0, 0, 0)" stroke="rgb(60, 60, 60)" stroke-width="1px" opacity="0.25"></line><line x1="241" y1="0" x2="241" y2="378" fill="rgb(0, 0, 0)" stroke="rgb(60, 60, 60)" stroke-width="1px" opacity="0.25"></line><line x1="361.5" y1="0" x2="361.5" y2="378" fill="rgb(0, 0, 0)" stroke="rgb(60, 60, 60)" stroke-width="1px" opacity="0.25"></line><line x1="482" y1="0" x2="482" y2="378" fill="rgb(0, 0, 0)" stroke="rgb(60, 60, 60)" stroke-width="1px" opacity="0.25"></line><line x1="602.5" y1="0" x2="602.5" y2="378" fill="rgb(0, 0, 0)" stroke="rgb(60, 60, 60)" stroke-width="1px" opacity="0.25"></line><line x1="723" y1="0" x2="723" y2="378" fill="rgb(0, 0, 0)" stroke="rgb(60, 60, 60)" stroke-width="1px" opacity="0.25"></line><line x1="843.5" y1="0" x2="843.5" y2="378" fill="rgb(0, 0, 0)" stroke="rgb(60, 60, 60)" stroke-width="1px" opacity="0.25"></line><line x1="964" y1="0" x2="964" y2="378" fill="rgb(0, 0, 0)" stroke="rgb(60, 60, 60)" stroke-width="1px" opacity="0.25"></line><line x1="1084.5" y1="0" x2="1084.5" y2="378" fill="rgb(0, 0, 0)" stroke="rgb(60, 60, 60)" stroke-width="1px" opacity="0.25"></line><line x1="1205" y1="0" x2="1205" y2="378" fill="rgb(0, 0, 0)" stroke="rgb(60, 60, 60)" stroke-width="1px" opacity="0.25"></line><line x1="1325.5" y1="0" x2="1325.5" y2="378" fill="rgb(0, 0, 0)" stroke="rgb(60, 60, 60)" stroke-width="1px" opacity="0.25"></line><line x1="1446" y1="0" x2="1446" y2="378" fill="rgb(0, 0, 0)" stroke="rgb(60, 60, 60)" stroke-width="1px" opacity="0.25"></line></g><g><line x1="0" y1="378" x2="1446" y2="378" fill="rgb(0, 0, 0)" stroke="rgb(60, 60, 60)" stroke-width="1px" opacity="0.25"></line><line x1="0" y1="330.75" x2="1446" y2="330.75" fill="rgb(0, 0, 0)" stroke="rgb(60, 60, 60)" stroke-width="1px" opacity="0.25"></line><line x1="0" y1="283.5" x2="1446" y2="283.5" fill="rgb(0, 0, 0)" stroke="rgb(60, 60, 60)" stroke-width="1px" opacity="0.25"></line><line x1="0" y1="236.24999999999997" x2="1446" y2="236.24999999999997" fill="rgb(0, 0, 0)" stroke="rgb(60, 60, 60)" stroke-width="1px" opacity="0.25"></line><line x1="0" y1="188.99999999999997" x2="1446" y2="188.99999999999997" fill="rgb(0, 0, 0)" stroke="rgb(60, 60, 60)" stroke-width="1px" opacity="0.25"></line><line x1="0" y1="141.75" x2="1446" y2="141.75" fill="rgb(0, 0, 0)" stroke="rgb(60, 60, 60)" stroke-width="1px" opacity="0.25"></line><line x1="0" y1="94.5" x2="1446" y2="94.5" fill="rgb(0, 0, 0)" stroke="rgb(60, 60, 60)" stroke-width="1px" opacity="0.25"></line><line x1="0" y1="47.25" x2="1446" y2="47.25" fill="rgb(0, 0, 0)" stroke="rgb(60, 60, 60)" stroke-width="1px" opacity="0.25"></line><line x1="0" y1="0" x2="1446" y2="0" fill="rgb(0, 0, 0)" stroke="rgb(60, 60, 60)" stroke-width="1px" opacity="0.25"></line></g></g></g><g><g><line x1="0" y1="330.75" x2="1446" y2="330.75" fill="rgb(0, 0, 0)" stroke="rgb(153, 153, 153)" stroke-width="1.5px"></line></g></g><g><g><line x1="120.5" y1="0" x2="120.5" y2="378" fill="rgb(0, 0, 0)" stroke="rgb(153, 153, 153)" stroke-width="1.5px"></line></g></g><g><g><g><g><g><path stroke="rgb(255, 112, 67)" stroke-width="2px" d="M120.5,80.45692992210388L122.91000000000001,102.00294260680676L125.32000000000001,128.66151858866215L127.73,136.24236059188843L130.14,140.5535965114832L132.54999999999998,149.43773259222507L134.96,153.088288128376L137.37,157.77354535460472L139.78,165.89164254069328L142.19,171.25530888140202L144.6,176.0090026706457L147.01,179.10402511060238L149.42,182.12527406215668L151.82999999999998,185.0876337736845L154.24,187.33463425934315L156.65,191.41079199314117L159.06,193.37659706175327L161.47,197.78561559319496L163.88,199.34480045735836L166.29000000000002,202.30945546925068L168.7,203.23327866196632L171.10999999999999,207.06114967167377L173.51999999999998,208.0979776829481L175.93,211.49814833700657L178.34,215.54725532233715L180.75,216.90117978304625L183.16000000000003,218.40747416764498L185.57,218.91630564630032L187.98000000000002,221.68765553086996L190.39,225.57388772070408L192.8,226.36668869107962L195.21,225.5775137320161L197.61999999999998,228.55243422836065L200.03,228.05881087481976L202.44000000000003,231.57639388740063L204.85,231.74563356488943L207.26000000000002,231.97310768812895L209.67,233.5411428362131L212.08,235.40848233550787L214.49,236.41464062780142L216.9,238.00003134459257L219.31,236.52033709734678L221.71999999999997,237.0896279141307L224.13,239.9787140339613L226.54000000000002,239.65551321208477L228.95,242.16331896185875L231.36,240.44272378832102L233.76999999999998,241.3533243611455L236.18,242.5402621999383L238.59,242.2641924843192L241,243.4707600697875L243.41,243.4322469010949L245.82000000000002,245.14335107803345L248.23,244.46468145400286L250.64000000000001,245.57914835214615L253.04999999999998,248.51368282735348L255.46,246.72076456993818L257.87,247.7933035120368L260.28,248.75183784216642L262.69,248.24049983918667L265.09999999999997,245.5470563918352L267.51,250.14793668687344L269.92,250.3184366673231L272.33,249.36155692487955L274.74,250.2838522642851L277.15000000000003,250.45630958676338L279.56,251.35959476977587L281.97,252.67675922065973L284.38,250.02237812429667L286.79,252.10666575282812L289.2,252.056866183877L291.61,253.61462176591158L294.02,253.30797386169434L296.43,253.0117745026946L298.84,253.43168069422245L301.25,254.0600226894021L303.65999999999997,254.26131912320852L306.07,253.93614687770605L308.48,255.11260096728802L310.89,255.6237559095025L313.3,256.373840354383L315.71,254.1714574098587L318.12,256.4490712881088L320.53000000000003,256.02054715901613L322.94,256.3372704461217L325.35,256.3361932039261L327.76,256.8739342018962L330.17,257.48821572214365L332.58000000000004,256.14703510701656L334.99,257.8761003613472L337.4,257.65465316176414L339.81,257.86530681699514L342.21999999999997,258.01468440145254L344.63,258.6122017800808L347.03999999999996,255.3399624377489L349.45,257.90236254036427L351.86,259.2760434821248L354.27,257.4293616861105L356.68,259.3171617463231L359.09,258.6981206461787L361.5,258.8766260147095L363.90999999999997,259.1361428126693L366.32000000000005,259.39707481116056L368.73,260.6432609707117L371.14,260.6403812840581L373.55,260.2682117074728L375.96000000000004,260.41281563043594L378.37,259.6677583158016L380.78,261.1850293055177L383.19,260.24253391474485L385.6,258.46485194563866L388.01,261.24591813236475L390.42,259.51204401254654L392.83,261.347340837121L395.23999999999995,261.3080461397767L397.65000000000003,259.37858567386866L400.06,259.3818948492408L402.46999999999997,261.82921309769154L404.88000000000005,260.51999770849943L407.29,261.0797623246908L409.7,262.521907992661L412.10999999999996,259.8902616351843L414.52000000000004,262.11528074741364L416.93,262.4367636144161L419.34,259.8158263117075L421.75,262.0935035571456L424.16,261.774097725749L426.57,261.53283067792654L428.98,260.61794225871563L431.39,262.9096025303006L433.8,262.9464751929045L436.21000000000004,263.13616839051247L438.62,260.45618695020676L441.03,262.7053982466459L443.43999999999994,263.08605198562145L445.85,262.9541707858443L448.26,260.83004631847143L450.66999999999996,263.2836379185319L453.08000000000004,261.37820065766573L455.49,260.819449916482L457.9,263.4416968077421L460.31000000000006,261.5438002422452L462.72,263.21527176350355L465.13,264.1532751247287L467.53999999999996,263.56579088419676L469.95,263.390890404582L472.36,263.7068462446332L474.77,263.1707739159465L477.18,263.2198060378432L479.59,263.49814289063215L482,264.3193957284093L484.41,262.61017144471407L486.82,263.6154285147786L489.22999999999996,263.5238840505481L491.64000000000004,264.52890173345804L494.05,262.50344701856375L496.46,263.44830107688904L498.86999999999995,264.64109686017036L501.28000000000003,263.4495191350579L503.69,264.80300706624985L506.09999999999997,263.8515135347843L508.51000000000005,264.50587832182646L510.92,263.8380233645439L513.3299999999999,264.98230804502964L515.74,264.00874865055084L518.15,264.3366245627403L520.56,264.7828774228692L522.97,264.9088232293725L525.38,264.5428143516183L527.79,264.76812694966793L530.1999999999999,264.5533614680171L532.61,264.6540941745043L535.02,264.8506028652191L537.43,265.361602909863L539.84,262.3989615663886L542.25,265.14248621463776L544.66,265.4047630056739L547.07,264.9198632016778L549.48,265.18872313946486L551.89,265.33684746176004L554.3000000000001,263.9737910851836L556.71,265.742728382349L559.12,264.2905918210745L561.53,264.90824588388205L563.94,265.74187644571066L566.35,263.52447547763586L568.76,264.74235762655735L571.1700000000001,264.61633437126875L573.58,265.45759715884924L575.99,264.4049695953727L578.4,264.8723518922925L580.8100000000001,264.7452513948083L583.22,265.5491205006838L585.63,265.6456287279725L588.04,264.71851748228073L590.45,265.37586756795645L592.86,265.96935760974884L595.27,265.21295756846666L597.68,264.62307945638895L600.0899999999999,265.2498513534665L602.5,265.680748231709L604.91,265.15284322947264L607.3199999999999,266.38356075435877L609.73,266.0724419429898L612.14,264.368448972702L614.55,266.1107790917158L616.96,265.01570255309343L619.37,265.2112888991833L621.78,265.7021452188492L624.1899999999999,264.34330628067255L626.6,264.9807872325182L629.01,265.89341555535793L631.42,266.07118164002895L633.83,265.5682785138488L636.24,266.43191695958376L638.65,266.3860039114952L641.0600000000001,265.95131908357143L643.47,266.35789704322815L645.88,265.4450927004218L648.29,265.35533659905195L650.7,265.19617230445147L653.11,266.5734440535307L655.52,266.6860686689615L657.9300000000001,265.7716308608651L660.34,266.43295899778605L662.75,266.7461196407676L665.1600000000001,266.7410925105214L667.57,266.6750920638442L669.98,266.6904410049319L672.39,265.23180578649044L674.8,266.57241609692574L677.21,266.0238393098116L679.62,266.0312110260129L682.03,266.4446185603738L684.4399999999999,266.2045484483242L686.85,266.8567446693778L689.26,267.13446897268295L691.67,266.30948451161385L694.0799999999999,266.79753859341145L696.49,267.22907618433237L698.9,266.25487607717514L701.31,266.2547704651952L703.72,267.1722076535225L706.13,266.7606659308076L708.54,266.39569909125566L710.9499999999999,267.11464208364487L713.36,266.38182167708874L715.77,267.02093609422445L718.18,266.9700663238764L720.59,266.5227362215519L723,267.2982309088111L725.4100000000001,266.7766626253724L727.8199999999999,266.7327984496951L730.23,266.0477850660682L732.6400000000001,266.81188774108887L735.05,266.61533680558205L737.46,266.9567732959986L739.8700000000001,267.23280780762434L742.28,266.9560480937362L744.69,266.7165834903717L747.1,267.3242889046669L749.51,267.71021620184183L751.9200000000001,266.68449857085943L754.3299999999999,267.30996087938547L756.74,266.00135803967714L759.15,267.6700836494565L761.56,266.9913013726473L763.97,267.40216717869043L766.38,267.59085354208946L768.79,266.8694110661745L771.2,266.72334265708923L773.61,267.1867398619652L776.02,267.72919115424156L778.43,267.7176372036338L780.84,267.1307514309883L783.25,266.6634606644511L785.66,267.3405461087823L788.07,268.0916092246771L790.4799999999999,267.20417992025614L792.89,268.10847897827625L795.3000000000001,267.2868318557739L797.7099999999999,267.5105109885335L800.12,268.46731328219175L802.5300000000001,268.3401634991169L804.9399999999999,267.07779758423567L807.35,268.85301527380943L809.7600000000001,268.6888590529561L812.17,269.1738996729255L814.58,269.19835236668587L816.9899999999999,270.27532701194286L819.4,272.9926493279636L821.8100000000001,278.87559217214584L824.2199999999999,309.3312919959426L826.63,312.7641953229904L829.0400000000001,313.1595731321722L831.4499999999999,312.9261688962579L833.86,313.0695864446461L836.2700000000001,312.13865204527974L838.68,313.2774184998125L841.09,312.92343002557755L843.5,312.9001601859927L845.91,312.48076797276735L848.32,312.7043802179396L850.73,313.07721514999866L853.14,312.8031379804015L855.55,312.9861424192786L857.96,311.8490939196199L860.37,312.47040215693414L862.78,312.98376790992916L865.19,312.7517999969423L867.6,312.7464120257646L870.01,312.9126928076148L872.4200000000001,312.7277204655111L874.8299999999999,312.5746746249497L877.24,313.5724842902273L879.65,312.35507563501596L882.06,313.2706892564893L884.47,312.40021067485213L886.8799999999999,313.3169666659087L889.29,313.23300690203905L891.7,312.6909903790802L894.1099999999999,312.6412664987147L896.52,313.08731869608164L898.9300000000001,312.6784049514681L901.3399999999999,312.35952541977167L903.75,313.3665303681046L906.1600000000001,313.462908340618L908.5699999999999,312.9087922051549L910.98,313.5366448648274L913.3900000000001,313.24193287454545L915.8,313.08329311944544L918.21,313.41134329140186L920.6200000000001,313.11476548947394L923.03,313.66934279724956L925.44,313.73648385331035L927.85,313.1299014464021L930.26,313.57342423684895L932.6700000000001,313.6971134673804L935.0799999999999,313.69785275124013L937.49,312.57188470847905L939.9,313.4105635229498L942.31,313.6404209565371L944.72,313.62137559615076L947.13,313.57129439525306L949.54,313.56599971465766L951.95,313.4415447972715L954.36,313.5253461431712L956.77,313.0842330660671L959.18,313.176544977352L961.59,313.5531344152987L964,313.4358611125499L966.41,312.7277451083064L968.82,313.6719989385456L971.2299999999999,313.40698679722846L973.64,313.6813684813678L976.0500000000001,313.0427838843316L978.4599999999999,313.6924190148711L980.87,313.89115611836314L983.2800000000001,313.452077832073L985.6899999999999,312.57544911280274L988.1,313.6142344661057L990.5100000000001,313.7698273155838L992.92,313.3377563841641L995.33,313.66788711212575L997.7399999999999,312.9039833396673L1000.15,312.9083767980337L1002.5600000000001,313.34157777763903L1004.9699999999999,313.75905489362776L1007.38,313.79716321639717L1009.7900000000001,312.9671762678772L1012.1999999999999,313.64663094095886L1014.61,313.7916344292462L1017.0200000000001,313.79005553014576L1019.43,313.8713697139174L1021.84,313.8047144729644L1024.25,313.39633582904935L1026.6599999999999,313.44864368252456L1029.07,312.9662239998579L1031.48,313.1256822478026L1033.8899999999999,313.6067236941308L1036.3,313.39798865653574L1038.71,312.7636725436896L1041.12,313.2289126776159L1043.53,313.76685257814825L1045.94,313.19420506060123L1048.35,313.1075310688466L1050.76,313.4102484472096L1053.17,313.24730500392616L1055.58,313.34176435880363L1057.99,313.45376762375236L1060.3999999999999,313.75897216424346L1062.81,313.25805102288723L1065.22,313.18335695005953L1067.6299999999999,313.2199919857085L1070.04,313.5863212198019L1072.45,313.26653518527746L1074.86,313.7861003614962L1077.27,313.632637353614L1079.68,313.62242819555104L1082.09,313.87973242253065L1084.5,313.0702201165259L1086.91,313.48292533122003L1089.32,313.73169611021876L1091.73,313.45293856970966L1094.14,313.65628211572766L1096.55,313.83247986249626L1098.96,313.74607342109084L1101.3700000000001,313.70997876673937L1103.78,313.63943524472415L1106.19,313.4034523162991L1108.6000000000001,313.3045695796609L1111.01,313.299704387784L1113.42,312.37142084911466L1115.83,313.171100679785L1118.24,313.0405853949487L1120.65,313.4526111725718L1123.06,312.9455170109868L1125.47,313.59320360049605L1127.88,313.7281933128834L1130.29,313.67444561608136L1132.7,313.82618010789156L1135.1100000000001,314.06262772902846L1137.52,313.6150828823447L1139.93,313.85661572031677L1142.3400000000001,314.0493311807513L1144.75,313.8899556621909L1147.16,313.5803277399391L1149.5700000000002,314.11350277997553L1151.98,313.83488429524004L1154.39,313.6481992788613L1156.8,313.5916845481843L1159.21,314.10930470377207L1161.6200000000001,313.525921728462L1164.03,313.8729732558131L1166.44,313.9497654866427L1168.85,312.42436765506864L1171.26,313.5152285154909L1173.67,313.12388332374394L1176.08,312.8482730202377L1178.49,313.65273883379996L1180.9,313.78678155876696L1183.31,313.93450631573796L1185.72,313.43054354935884L1188.1299999999999,312.81730582751334L1190.54,313.8369120452553L1192.95,313.4633607119322L1195.36,313.9045177940279L1197.77,313.51830358430743L1200.1799999999998,313.9347016979009L1202.59,313.9827217049897L1205,313.0250657144934L1207.4099999999999,313.72436135821044L1209.82,313.1651547253132L1212.23,313.9777737837285L1214.6399999999999,314.0673978701234L1217.05,314.04170951619744L1219.46,314.0957300439477L1221.87,313.8880599271506L1224.28,313.75731933675706L1226.69,313.8237070273608L1229.1,313.56836894340813L1231.51,313.60080414265394L1233.92,313.91599253565073L1236.33,313.1700445599854L1238.74,313.26771099865437L1241.1499999999999,313.7869663797319L1243.56,313.6446295939386L1245.97,313.55258875340223L1248.3799999999999,313.388094574213L1250.79,314.057486185804L1253.2,313.0816578939557L1255.61,313.82633500546217L1258.02,313.7536458000541L1260.43,313.72631341964006L1262.84,313.635272372514L1265.25,314.0591390132904L1267.66,313.741982717067L1270.07,313.34527067653835L1272.48,314.030222453177L1274.89,313.506716189906L1277.3,313.5930909477174L1279.71,314.0284182485193L1282.1200000000001,313.8589726276696L1284.53,314.0022299978882L1286.94,314.0413944404572L1289.3500000000001,314.0290853641927L1291.76,313.4245060645044L1294.17,313.5454106591642L1296.58,313.7571873217821L1298.99,313.86518085189164L1301.4,314.07790098153055L1303.81,313.3724516797811L1306.22,314.0113126281649L1308.63,314.0453478489071L1311.04,314.114000916481L1313.45,314.0590615645051L1315.8600000000001,313.93025895394385L1318.27,313.6528039611876L1320.68,313.7552722245455L1323.0900000000001,314.28104738518596" style="fill: none;" fill="none"></path></g></g></g></g></g></g><g transform="translate(50, 378)" clip-path="url(#clip_1)"><clipPath id="clip_1"><rect width="1446" height="22"></rect></clipPath><g><g><line x1="0" y1="0" x2="0" y2="5" style="visibility: inherit;" fill="rgb(0, 0, 0)" stroke="rgb(204, 204, 204)" stroke-width="1px"></line><line x1="120.5" y1="0" x2="120.5" y2="5" style="visibility: inherit;" fill="rgb(0, 0, 0)" stroke="rgb(204, 204, 204)" stroke-width="1px"></line><line x1="241" y1="0" x2="241" y2="5" style="visibility: inherit;" fill="rgb(0, 0, 0)" stroke="rgb(204, 204, 204)" stroke-width="1px"></line><line x1="361.5" y1="0" x2="361.5" y2="5" style="visibility: inherit;" fill="rgb(0, 0, 0)" stroke="rgb(204, 204, 204)" stroke-width="1px"></line><line x1="482" y1="0" x2="482" y2="5" style="visibility: inherit;" fill="rgb(0, 0, 0)" stroke="rgb(204, 204, 204)" stroke-width="1px"></line><line x1="602.5" y1="0" x2="602.5" y2="5" style="visibility: inherit;" fill="rgb(0, 0, 0)" stroke="rgb(204, 204, 204)" stroke-width="1px"></line><line x1="723" y1="0" x2="723" y2="5" style="visibility: inherit;" fill="rgb(0, 0, 0)" stroke="rgb(204, 204, 204)" stroke-width="1px"></line><line x1="843.5" y1="0" x2="843.5" y2="5" style="visibility: inherit;" fill="rgb(0, 0, 0)" stroke="rgb(204, 204, 204)" stroke-width="1px"></line><line x1="964" y1="0" x2="964" y2="5" style="visibility: inherit;" fill="rgb(0, 0, 0)" stroke="rgb(204, 204, 204)" stroke-width="1px"></line><line x1="1084.5" y1="0" x2="1084.5" y2="5" style="visibility: inherit;" fill="rgb(0, 0, 0)" stroke="rgb(204, 204, 204)" stroke-width="1px"></line><line x1="1205" y1="0" x2="1205" y2="5" style="visibility: inherit;" fill="rgb(0, 0, 0)" stroke="rgb(204, 204, 204)" stroke-width="1px"></line><line x1="1325.5" y1="0" x2="1325.5" y2="5" style="visibility: inherit;" fill="rgb(0, 0, 0)" stroke="rgb(204, 204, 204)" stroke-width="1px"></line><line x1="1446" y1="0" x2="1446" y2="5" style="visibility: inherit;" fill="rgb(0, 0, 0)" stroke="rgb(204, 204, 204)" stroke-width="1px"></line></g><g transform="translate(0, 8)"><text x="0" y="0" dx="0em" dy="0.95em" style="text-anchor: middle; visibility: hidden; font-family: &quot;Helvetica Neue&quot;, sans-serif; font-size: 12px; font-weight: 200;" fill="rgb(50, 49, 63)" stroke="none" stroke-width="1px">-50</text><text x="120.5" y="0" dx="0em" dy="0.95em" style="text-anchor: middle; visibility: inherit; font-family: &quot;Helvetica Neue&quot;, sans-serif; font-size: 12px; font-weight: 200;" fill="rgb(50, 49, 63)" stroke="none" stroke-width="1px">0</text><text x="241" y="0" dx="0em" dy="0.95em" style="text-anchor: middle; visibility: inherit; font-family: &quot;Helvetica Neue&quot;, sans-serif; font-size: 12px; font-weight: 200;" fill="rgb(50, 49, 63)" stroke="none" stroke-width="1px">50</text><text x="361.5" y="0" dx="0em" dy="0.95em" style="text-anchor: middle; visibility: inherit; font-family: &quot;Helvetica Neue&quot;, sans-serif; font-size: 12px; font-weight: 200;" fill="rgb(50, 49, 63)" stroke="none" stroke-width="1px">100</text><text x="482" y="0" dx="0em" dy="0.95em" style="text-anchor: middle; visibility: inherit; font-family: &quot;Helvetica Neue&quot;, sans-serif; font-size: 12px; font-weight: 200;" fill="rgb(50, 49, 63)" stroke="none" stroke-width="1px">150</text><text x="602.5" y="0" dx="0em" dy="0.95em" style="text-anchor: middle; visibility: inherit; font-family: &quot;Helvetica Neue&quot;, sans-serif; font-size: 12px; font-weight: 200;" fill="rgb(50, 49, 63)" stroke="none" stroke-width="1px">200</text><text x="723" y="0" dx="0em" dy="0.95em" style="text-anchor: middle; visibility: inherit; font-family: &quot;Helvetica Neue&quot;, sans-serif; font-size: 12px; font-weight: 200;" fill="rgb(50, 49, 63)" stroke="none" stroke-width="1px">250</text><text x="843.5" y="0" dx="0em" dy="0.95em" style="text-anchor: middle; visibility: inherit; font-family: &quot;Helvetica Neue&quot;, sans-serif; font-size: 12px; font-weight: 200;" fill="rgb(50, 49, 63)" stroke="none" stroke-width="1px">300</text><text x="964" y="0" dx="0em" dy="0.95em" style="text-anchor: middle; visibility: inherit; font-family: &quot;Helvetica Neue&quot;, sans-serif; font-size: 12px; font-weight: 200;" fill="rgb(50, 49, 63)" stroke="none" stroke-width="1px">350</text><text x="1084.5" y="0" dx="0em" dy="0.95em" style="text-anchor: middle; visibility: inherit; font-family: &quot;Helvetica Neue&quot;, sans-serif; font-size: 12px; font-weight: 200;" fill="rgb(50, 49, 63)" stroke="none" stroke-width="1px">400</text><text x="1205" y="0" dx="0em" dy="0.95em" style="text-anchor: middle; visibility: inherit; font-family: &quot;Helvetica Neue&quot;, sans-serif; font-size: 12px; font-weight: 200;" fill="rgb(50, 49, 63)" stroke="none" stroke-width="1px">450</text><text x="1325.5" y="0" dx="0em" dy="0.95em" style="text-anchor: middle; visibility: inherit; font-family: &quot;Helvetica Neue&quot;, sans-serif; font-size: 12px; font-weight: 200;" fill="rgb(50, 49, 63)" stroke="none" stroke-width="1px">500</text><text x="1446" y="0" dx="0em" dy="0.95em" style="text-anchor: middle; visibility: hidden; font-family: &quot;Helvetica Neue&quot;, sans-serif; font-size: 12px; font-weight: 200;" fill="rgb(50, 49, 63)" stroke="none" stroke-width="1px">550</text></g><line x1="0" y1="0" x2="1446" y2="0" fill="rgb(0, 0, 0)" stroke="rgb(204, 204, 204)" stroke-width="1px"></line></g></g></g></g></svg>