<?xml version="1.0" encoding="utf-8" standalone="no"?>
<!DOCTYPE svg PUBLIC "-//W3C//DTD SVG 1.1//EN"
  "http://www.w3.org/Graphics/SVG/1.1/DTD/svg11.dtd">
<!-- Created with matplotlib (https://matplotlib.org/) -->
<svg height="288pt" version="1.1" viewBox="0 0 720 288" width="720pt" xmlns="http://www.w3.org/2000/svg" xmlns:xlink="http://www.w3.org/1999/xlink">
 <metadata>
  <rdf:RDF xmlns:cc="http://creativecommons.org/ns#" xmlns:dc="http://purl.org/dc/elements/1.1/" xmlns:rdf="http://www.w3.org/1999/02/22-rdf-syntax-ns#">
   <cc:Work>
    <dc:type rdf:resource="http://purl.org/dc/dcmitype/StillImage"/>
    <dc:date>2020-11-06T18:42:39.771426</dc:date>
    <dc:format>image/svg+xml</dc:format>
    <dc:creator>
     <cc:Agent>
      <dc:title>Matplotlib v3.3.2, https://matplotlib.org/</dc:title>
     </cc:Agent>
    </dc:creator>
   </cc:Work>
  </rdf:RDF>
 </metadata>
 <defs>
  <style type="text/css">*{stroke-linecap:butt;stroke-linejoin:round;}</style>
 </defs>
 <g id="figure_1">
  <g id="patch_1">
   <path d="M 0 288 
L 720 288 
L 720 0 
L 0 0 
z
" style="fill:#ffffff;"/>
  </g>
  <g id="axes_1">
   <g id="line2d_1">
    <path clip-path="url(#p569ab61edc)" d="M 149.444138 227.129161 
L 137.658683 223.677038 
L 121.541115 219.198346 
L 111.872124 216.710004 
L 105.006237 215.172232 
L 100.240701 214.300274 
L 95.753177 213.679371 
L 91.099017 213.276549 
L 86.447245 213.1349 
L 82.33026 213.225311 
L 77.374739 213.592827 
L 72.618708 214.205749 
L 68.463528 214.956924 
L 64.907787 215.776147 
L 61.187037 216.838215 
L 58.450444 217.782725 
L 55.250376 219.113484 
L 52.757199 220.374668 
L 50.934541 221.468105 
L 49.043573 222.824963 
L 47.601572 224.1074 
L 46.555686 225.319529 
L 46.049389 226.151868 
L 45.766126 227.084829 
L 45.789463 227.560543 
L 46.000892 228.065166 
L 46.178404 228.289307 
L 47.07591 228.91455 
L 48.409499 229.404157 
L 49.881424 229.749642 
L 53.02272 230.220372 
L 57.462894 230.612376 
L 63.25564 230.882228 
L 69.667033 230.973411 
L 76.919814 230.868338 
L 85.251552 230.517247 
L 97.684351 229.715766 
L 112.175518 228.829911 
L 128.992681 228.073131 
L 149.452392 227.202276 
L 149.452392 227.202276 
" style="fill:none;stroke:#000000;stroke-linecap:square;stroke-opacity:0.7;stroke-width:1.2;"/>
   </g>
   <g id="line2d_2">
    <path clip-path="url(#p569ab61edc)" d="M 149.646284 187.890263 
L 144.347211 184.986191 
L 138.664072 182.172336 
L 134.836652 180.467451 
L 131.112868 178.965539 
L 126.046614 177.18012 
L 121.322016 175.786913 
L 116.468449 174.627377 
L 111.888576 173.781961 
L 107.545776 173.200155 
L 102.165022 172.7727 
L 98.72788 172.66789 
L 93.918632 172.737266 
L 89.269079 173.035385 
L 84.788132 173.524228 
L 79.5998 174.316264 
L 74.725326 175.262143 
L 69.813874 176.402549 
L 64.208492 177.942704 
L 59.582049 179.438178 
L 55.525007 180.966844 
L 51.817204 182.610774 
L 49.214595 183.970469 
L 47.051226 185.310404 
L 45.392372 186.613573 
L 44.59728 187.617087 
L 44.509091 188.037906 
L 44.690666 188.439587 
L 45.174101 188.76692 
L 46.124389 189.076575 
L 47.480249 189.324521 
L 50.342045 189.61784 
L 55.305583 189.87016 
L 62.299183 189.999452 
L 72.508296 189.93847 
L 88.768431 189.551559 
L 104.35403 189.279576 
L 125.470178 188.949718 
L 138.15036 188.511483 
L 149.666157 187.942121 
L 149.666157 187.942121 
" style="fill:none;stroke:#000000;stroke-linecap:square;stroke-opacity:0.7;stroke-width:1.2;"/>
   </g>
   <g id="line2d_3">
    <path clip-path="url(#p569ab61edc)" d="M 150.105596 149.801687 
L 142.034575 147.416102 
L 135.864228 145.824242 
L 129.954964 144.551034 
L 125.085754 143.710448 
L 119.78017 143.021288 
L 113.972136 142.542791 
L 109.45216 142.366898 
L 104.147898 142.365382 
L 98.782236 142.553443 
L 77.782816 143.561819 
L 63.899158 143.888225 
L 59.514615 144.242086 
L 55.990169 144.719937 
L 53.950351 145.105704 
L 50.758425 145.940474 
L 49.158864 146.51798 
L 47.372541 147.41078 
L 46.601564 148.023222 
L 46.336784 148.528301 
L 46.401358 148.7718 
L 46.706412 149.038153 
L 47.491786 149.340815 
L 49.857694 149.812046 
L 54.88698 150.462223 
L 64.667991 151.458065 
L 86.573961 153.419679 
L 96.49025 154.111725 
L 103.78672 154.392262 
L 109.389042 154.430625 
L 116.525632 154.23663 
L 123.842696 153.756154 
L 130.918099 153.034057 
L 137.506595 152.147871 
L 144.417963 151.005902 
L 150.119779 149.900345 
L 150.119779 149.900345 
" style="fill:none;stroke:#000000;stroke-linecap:square;stroke-opacity:0.7;stroke-width:1.2;"/>
   </g>
   <g id="line2d_4">
    <path clip-path="url(#p569ab61edc)" d="M 149.886654 109.475088 
L 143.451939 106.857246 
L 136.628407 104.287717 
L 130.725285 102.263274 
L 124.657158 100.397576 
L 118.978738 98.868675 
L 112.991672 97.506086 
L 107.731138 96.5418 
L 102.207903 95.789208 
L 97.427479 95.372504 
L 92.816325 95.189728 
L 88.266667 95.225237 
L 83.41797 95.496942 
L 78.637796 95.99492 
L 74.02638 96.687876 
L 68.841921 97.72045 
L 64.600487 98.779191 
L 61.192306 99.787565 
L 58.010875 100.877606 
L 54.679238 102.209535 
L 51.774464 103.583629 
L 49.106673 105.113939 
L 47.636709 106.150616 
L 46.504016 107.157999 
L 45.765339 108.165913 
L 45.631513 108.702053 
L 45.699155 109.021067 
L 46.075741 109.435547 
L 46.596044 109.69022 
L 47.647301 109.963116 
L 49.696128 110.219643 
L 53.099869 110.398565 
L 59.211203 110.45519 
L 67.605998 110.281501 
L 78.456154 109.821933 
L 95.441228 109.067755 
L 104.007861 108.940528 
L 113.418608 109.023633 
L 149.891517 109.555979 
L 149.891517 109.555979 
" style="fill:none;stroke:#000000;stroke-linecap:square;stroke-opacity:0.7;stroke-width:1.2;"/>
   </g>
   <g id="line2d_5">
    <path clip-path="url(#p569ab61edc)" d="M 149.608943 69.912277 
L 126.586116 67.226839 
L 115.719224 65.699705 
L 106.215903 64.138551 
L 82.213004 59.965156 
L 77.224575 59.358007 
L 71.690314 58.924514 
L 67.3922 58.823248 
L 63.608283 58.964934 
L 60.610261 59.279314 
L 57.663984 59.815159 
L 55.047859 60.53423 
L 53.13318 61.245966 
L 51.47313 62.023875 
L 49.661668 63.094427 
L 48.162633 64.225623 
L 46.893267 65.467188 
L 45.681926 67.240551 
L 45.331808 68.241983 
L 45.290986 69.26604 
L 45.449464 69.833503 
L 46.004454 70.661915 
L 46.725241 71.250924 
L 48.187447 71.977989 
L 50.357521 72.62477 
L 53.111256 73.126996 
L 56.527281 73.49517 
L 61.515102 73.733668 
L 66.408341 73.731426 
L 72.291686 73.490644 
L 78.250975 73.025859 
L 85.993959 72.165192 
L 101.624147 70.282046 
L 108.583247 69.742216 
L 114.585386 69.484782 
L 122.414201 69.388488 
L 132.229445 69.513326 
L 149.634012 69.95938 
L 149.634012 69.95938 
" style="fill:none;stroke:#000000;stroke-linecap:square;stroke-opacity:0.7;stroke-width:1.2;"/>
   </g>
   <g id="line2d_6">
    <path clip-path="url(#p569ab61edc)" d="M 281.418853 228.1884 
L 276.277065 225.808167 
L 270.770658 223.491757 
L 265.998573 221.723686 
L 261.765156 220.360644 
L 257.667928 219.232352 
L 252.504343 218.079743 
L 247.920797 217.305143 
L 242.833303 216.71127 
L 238.082984 216.398141 
L 233.287289 216.30185 
L 228.153154 216.415781 
L 221.611384 216.821312 
L 214.319142 217.509808 
L 205.496063 218.56956 
L 198.502132 219.611419 
L 193.217694 220.588598 
L 188.449359 221.692963 
L 185.008907 222.687841 
L 181.694174 223.889739 
L 179.119621 225.101149 
L 177.467722 226.151288 
L 176.545142 227.067793 
L 176.346282 227.53406 
L 176.439433 227.986346 
L 176.751946 228.290271 
L 177.586019 228.662305 
L 178.697564 228.936084 
L 180.572477 229.226354 
L 185.479951 229.67642 
L 193.821822 230.137591 
L 205.470028 230.544841 
L 218.433571 230.787857 
L 230.733919 230.800859 
L 241.850601 230.593351 
L 252.239386 230.199417 
L 264.843226 229.480564 
L 277.53279 228.52365 
L 281.409201 228.186451 
L 281.409201 228.186451 
" style="fill:none;stroke:#000000;stroke-linecap:square;stroke-opacity:0.7;stroke-width:1.2;"/>
   </g>
   <g id="line2d_7">
    <path clip-path="url(#p569ab61edc)" d="M 281.318501 188.688302 
L 271.027411 186.087717 
L 261.991155 184.020736 
L 253.260149 182.26189 
L 246.329891 181.061904 
L 238.780661 179.991672 
L 232.891872 179.360461 
L 226.02738 178.882138 
L 220.002309 178.701343 
L 214.108752 178.735696 
L 208.057681 178.984268 
L 202.561066 179.411319 
L 197.378736 180.027688 
L 193.052484 180.754365 
L 189.595237 181.528954 
L 186.400896 182.464486 
L 183.720792 183.491728 
L 182.110386 184.270536 
L 180.324962 185.367969 
L 179.302253 186.196232 
L 178.449878 187.161818 
L 178.09392 187.845062 
L 178.001722 188.288464 
L 178.107738 188.855697 
L 178.445847 189.287123 
L 178.927349 189.603696 
L 180.278477 190.064383 
L 182.576336 190.444501 
L 186.148087 190.754794 
L 192.415499 191.045761 
L 200.942059 191.221567 
L 210.327963 191.207854 
L 221.136009 190.959094 
L 249.47378 189.923671 
L 281.288224 188.703481 
L 281.288224 188.703481 
" style="fill:none;stroke:#000000;stroke-linecap:square;stroke-opacity:0.7;stroke-width:1.2;"/>
   </g>
   <g id="line2d_8">
    <path clip-path="url(#p569ab61edc)" d="M 281.150794 148.798959 
L 263.03621 145.720011 
L 251.278482 143.479175 
L 228.768347 139.042099 
L 223.011811 138.192663 
L 218.074432 137.657829 
L 213.405322 137.331837 
L 208.427129 137.186473 
L 203.649648 137.259638 
L 198.853928 137.575769 
L 194.518543 138.120993 
L 190.756992 138.854595 
L 187.484218 139.757169 
L 185.32806 140.530672 
L 183.200003 141.479834 
L 181.531274 142.396195 
L 179.961642 143.453391 
L 178.298308 144.912933 
L 177.1654 146.363537 
L 176.675455 147.46693 
L 176.568468 148.222804 
L 176.723401 149.021244 
L 177.089704 149.626522 
L 177.972688 150.374695 
L 179.468108 151.078062 
L 181.683472 151.696744 
L 184.546305 152.184845 
L 188.517754 152.572955 
L 193.718019 152.785655 
L 199.639761 152.751885 
L 205.700493 152.48161 
L 212.502384 151.946066 
L 221.628632 150.968793 
L 233.039637 149.77471 
L 240.068455 149.280257 
L 247.179863 148.994863 
L 256.826824 148.852321 
L 275.790152 148.879213 
L 281.153107 148.881236 
L 281.153107 148.881236 
" style="fill:none;stroke:#000000;stroke-linecap:square;stroke-opacity:0.7;stroke-width:1.2;"/>
   </g>
   <g id="line2d_9">
    <path clip-path="url(#p569ab61edc)" d="M 280.7184 108.686168 
L 266.681954 105.476146 
L 257.193161 103.499406 
L 248.799674 101.983572 
L 242.268311 101.022929 
L 236.860552 100.415148 
L 230.806275 99.973837 
L 226.300845 99.823537 
L 220.272819 99.859122 
L 214.768257 100.108636 
L 208.364553 100.627899 
L 202.667799 101.285667 
L 196.746818 102.188035 
L 191.426599 103.252105 
L 187.922126 104.143371 
L 184.220017 105.337321 
L 181.658663 106.402808 
L 179.664961 107.475374 
L 178.416254 108.41555 
L 178.039179 108.980651 
L 178.077883 109.20336 
L 178.369563 109.409309 
L 179.240135 109.583473 
L 181.461424 109.669914 
L 186.969056 109.577955 
L 218.545461 108.729524 
L 226.935031 108.852092 
L 237.764203 109.286057 
L 248.248715 109.66155 
L 256.019551 109.742602 
L 264.176215 109.609706 
L 273.193199 109.218787 
L 280.715611 108.704771 
L 280.715611 108.704771 
" style="fill:none;stroke:#000000;stroke-linecap:square;stroke-opacity:0.7;stroke-width:1.2;"/>
   </g>
   <g id="line2d_10">
    <path clip-path="url(#p569ab61edc)" d="M 280.870062 69.64236 
L 272.328291 67.405599 
L 265.641487 65.857402 
L 259.095226 64.583799 
L 253.356484 63.70354 
L 247.481904 63.061627 
L 241.899775 62.716691 
L 236.900618 62.638177 
L 232.079028 62.768148 
L 226.474963 63.148814 
L 217.943411 64.031806 
L 208.226679 65.019682 
L 196.853092 65.8757 
L 190.078419 66.472008 
L 184.855673 67.167348 
L 181.09805 67.901988 
L 178.622711 68.56736 
L 177.074087 69.160135 
L 176.682899 69.451099 
L 176.741846 69.689686 
L 177.282673 69.908044 
L 178.612218 70.161207 
L 182.518794 70.602767 
L 189.508774 71.152618 
L 204.492175 72.052285 
L 230.236357 73.367564 
L 238.06719 73.558865 
L 245.673045 73.489782 
L 252.688765 73.163901 
L 259.645596 72.597934 
L 266.660626 71.808736 
L 275.13053 70.604591 
L 280.856011 69.652656 
L 280.856011 69.652656 
" style="fill:none;stroke:#000000;stroke-linecap:square;stroke-opacity:0.7;stroke-width:1.2;"/>
   </g>
   <g id="line2d_11">
    <path clip-path="url(#p569ab61edc)" d="M 412.498515 227.588657 
L 398.470655 224.896895 
L 389.747132 223.425403 
L 382.121535 222.356979 
L 375.842488 221.68221 
L 369.829795 221.249348 
L 364.276577 221.058803 
L 357.759297 221.093299 
L 350.656863 221.382141 
L 330.88923 222.559299 
L 324.673575 223.096901 
L 319.826257 223.741839 
L 316.569378 224.360871 
L 313.12369 225.273768 
L 311.057646 226.041277 
L 309.718605 226.794708 
L 309.511917 227.106167 
L 309.631917 227.266459 
L 310.000483 227.377753 
L 311.161325 227.460538 
L 315.484199 227.396735 
L 331.628504 227.046904 
L 341.876007 227.064658 
L 350.59141 227.320839 
L 359.019941 227.791775 
L 375.279032 228.772259 
L 383.441223 228.979856 
L 391.329653 228.924744 
L 399.360237 228.628255 
L 406.705955 228.165666 
L 412.485548 227.673581 
L 412.485548 227.673581 
" style="fill:none;stroke:#000000;stroke-linecap:square;stroke-opacity:0.7;stroke-width:1.2;"/>
   </g>
   <g id="line2d_12">
    <path clip-path="url(#p569ab61edc)" d="M 412.726764 188.56723 
L 403.739218 186.665107 
L 395.325068 185.107129 
L 387.207694 183.820778 
L 377.925215 182.592872 
L 369.942537 181.725239 
L 358.903212 180.776782 
L 348.387856 180.101016 
L 339.953507 179.754339 
L 333.173375 179.699098 
L 328.079766 179.874843 
L 323.698493 180.255922 
L 320.090427 180.806291 
L 316.716388 181.60982 
L 314.624474 182.314746 
L 312.919418 183.062314 
L 311.190837 184.063389 
L 309.786839 185.202201 
L 309.161778 185.915577 
L 308.70969 186.663886 
L 308.485036 187.407981 
L 308.513379 188.083364 
L 308.666756 188.499903 
L 309.145802 189.130292 
L 310.114778 189.832678 
L 311.838663 190.609627 
L 314.355698 191.389608 
L 317.812435 192.181092 
L 321.936712 192.905465 
L 327.633507 193.658328 
L 333.748829 194.225449 
L 340.668982 194.606375 
L 346.593682 194.722951 
L 352.587971 194.651642 
L 358.897772 194.391814 
L 367.689108 193.789531 
L 379.15503 192.745063 
L 392.678816 191.272439 
L 406.270616 189.565415 
L 412.723236 188.672144 
L 412.723236 188.672144 
" style="fill:none;stroke:#000000;stroke-linecap:square;stroke-opacity:0.7;stroke-width:1.2;"/>
   </g>
   <g id="line2d_13">
    <path clip-path="url(#p569ab61edc)" d="M 412.634202 148.684606 
L 407.199192 146.124109 
L 402.282382 144.012605 
L 397.278338 142.091292 
L 392.44529 140.46792 
L 387.767647 139.117521 
L 382.816191 137.921778 
L 378.207438 137.020059 
L 373.311291 136.280902 
L 368.646477 135.78409 
L 363.787132 135.480799 
L 359.160736 135.393337 
L 354.307577 135.505978 
L 349.382042 135.819874 
L 343.046834 136.487216 
L 337.843272 137.235399 
L 332.022057 138.284085 
L 327.268526 139.328606 
L 322.591451 140.56739 
L 319.180804 141.648686 
L 315.281977 143.153305 
L 312.641037 144.424774 
L 311.058587 145.349977 
L 309.659279 146.35438 
L 308.633958 147.351806 
L 308.24634 147.941757 
L 308.099008 148.482728 
L 308.157767 148.828903 
L 308.405445 149.186664 
L 308.867293 149.510748 
L 309.678294 149.843198 
L 311.278496 150.24272 
L 314.552535 150.746429 
L 319.541019 151.252823 
L 327.605829 151.803291 
L 336.459485 152.180446 
L 345.691669 152.368599 
L 355.287376 152.358213 
L 366.681431 152.106776 
L 377.674102 151.64569 
L 388.898075 150.947497 
L 400.334014 150.004598 
L 412.647119 148.748071 
L 412.647119 148.748071 
" style="fill:none;stroke:#000000;stroke-linecap:square;stroke-opacity:0.7;stroke-width:1.2;"/>
   </g>
   <g id="line2d_14">
    <path clip-path="url(#p569ab61edc)" d="M 412.665727 109.595654 
L 401.053206 107.641409 
L 387.788128 105.651598 
L 351.727251 100.589147 
L 343.187629 99.609645 
L 336.216906 99.028293 
L 331.696045 98.819772 
L 327.261019 98.819754 
L 324.223342 98.994143 
L 321.270487 99.361856 
L 318.411507 99.980146 
L 316.448959 100.608905 
L 314.526436 101.441641 
L 312.867938 102.390199 
L 311.480033 103.414371 
L 310.21872 104.631025 
L 309.544884 105.47749 
L 308.706055 107.039555 
L 308.44335 108.191199 
L 308.502098 109.164391 
L 308.672213 109.71177 
L 309.301102 110.711055 
L 310.220137 111.543102 
L 312.034436 112.581017 
L 313.443071 113.155447 
L 315.872507 113.915245 
L 319.23999 114.693212 
L 323.772051 115.440907 
L 328.538538 115.976398 
L 334.158274 116.352681 
L 339.815829 116.4908 
L 345.479383 116.408451 
L 351.802283 116.081975 
L 359.030667 115.467752 
L 370.869472 114.178233 
L 394.029459 111.652045 
L 412.685206 109.642161 
L 412.685206 109.642161 
" style="fill:none;stroke:#000000;stroke-linecap:square;stroke-opacity:0.7;stroke-width:1.2;"/>
   </g>
   <g id="line2d_15">
    <path clip-path="url(#p569ab61edc)" d="M 412.792546 70.346849 
L 399.982249 67.537522 
L 363.864464 59.968386 
L 357.208733 58.783123 
L 351.29354 57.948312 
L 345.333048 57.36056 
L 340.668362 57.096993 
L 336.220149 57.026589 
L 331.238576 57.197329 
L 327.929252 57.491186 
L 324.216445 58.041438 
L 321.046147 58.75014 
L 318.839078 59.412697 
L 316.587308 60.274635 
L 314.742173 61.162817 
L 312.629468 62.459973 
L 311.069437 63.707429 
L 309.592397 65.307449 
L 308.602926 66.976452 
L 308.226988 68.305184 
L 308.222447 69.281013 
L 308.402054 70.004078 
L 308.781773 70.733123 
L 309.587816 71.61073 
L 310.169881 72.043308 
L 311.236043 72.637986 
L 313.101171 73.362802 
L 315.547379 74.010434 
L 318.720711 74.583603 
L 322.972616 75.080409 
L 327.272322 75.377129 
L 332.640316 75.536717 
L 338.588665 75.495089 
L 345.443164 75.211821 
L 353.394549 74.640594 
L 384.569182 72.07318 
L 403.814182 70.978891 
L 412.814319 70.465166 
L 412.814319 70.465166 
" style="fill:none;stroke:#000000;stroke-linecap:square;stroke-opacity:0.7;stroke-width:1.2;"/>
   </g>
   <g id="line2d_16">
    <path clip-path="url(#p569ab61edc)" d="M 544.366856 228.422731 
L 537.890821 226.271269 
L 531.264138 224.285156 
L 524.957189 222.651026 
L 519.622606 221.484198 
L 514.496957 220.557975 
L 508.885485 219.769458 
L 503.146943 219.210383 
L 497.848854 218.912314 
L 491.539486 218.806359 
L 483.870569 218.960641 
L 474.450271 219.412514 
L 466.762778 219.96341 
L 459.899145 220.684359 
L 455.471393 221.33771 
L 451.467611 222.118751 
L 448.534971 222.851119 
L 444.911221 224.034221 
L 442.800952 224.947941 
L 440.842928 226.092239 
L 440.006754 226.800744 
L 439.741528 227.115311 
L 439.4652 227.796765 
L 439.565905 228.163988 
L 439.786129 228.402527 
L 440.568619 228.776848 
L 441.670006 229.025097 
L 443.364647 229.226783 
L 448.109996 229.463539 
L 456.857927 229.60867 
L 484.803724 229.988231 
L 500.092726 230.182033 
L 510.793955 230.084421 
L 521.514813 229.759678 
L 533.579946 229.159494 
L 544.356339 228.44797 
L 544.356339 228.44797 
" style="fill:none;stroke:#000000;stroke-linecap:square;stroke-opacity:0.7;stroke-width:1.2;"/>
   </g>
   <g id="line2d_17">
    <path clip-path="url(#p569ab61edc)" d="M 543.922691 188.219062 
L 526.695251 186.621023 
L 511.672569 184.989456 
L 491.277055 182.521062 
L 475.939187 180.691834 
L 470.212189 180.215158 
L 465.80487 180.028272 
L 461.216462 180.068876 
L 457.93667 180.284538 
L 454.468111 180.719604 
L 451.445149 181.30577 
L 448.390958 182.136561 
L 446.193771 182.919357 
L 444.274122 183.770142 
L 442.753872 184.59838 
L 441.254157 185.636839 
L 440.279405 186.572472 
L 439.788981 187.337244 
L 439.660764 187.853236 
L 439.746951 188.341936 
L 440.043162 188.757523 
L 440.442346 189.06108 
L 441.688643 189.58164 
L 443.450297 189.971666 
L 445.662294 190.247088 
L 449.337739 190.457529 
L 454.800291 190.461374 
L 459.915164 190.248352 
L 466.057031 189.784421 
L 473.453093 188.987783 
L 492.515412 186.692987 
L 497.62352 186.369883 
L 503.06998 186.244443 
L 509.822015 186.348824 
L 518.955332 186.765568 
L 543.907023 188.250223 
L 543.907023 188.250223 
" style="fill:none;stroke:#000000;stroke-linecap:square;stroke-opacity:0.7;stroke-width:1.2;"/>
   </g>
   <g id="line2d_18">
    <path clip-path="url(#p569ab61edc)" d="M 543.985929 148.729323 
L 516.472312 143.340361 
L 494.085329 138.782302 
L 489.639937 138.084582 
L 484.735978 137.496821 
L 479.95974 137.134943 
L 476.403478 137.008216 
L 471.02551 137.054469 
L 465.849102 137.380431 
L 460.965687 137.96483 
L 457.108892 138.646141 
L 452.96315 139.645267 
L 449.801689 140.647591 
L 447.090986 141.733961 
L 445.432441 142.540923 
L 443.279167 143.82813 
L 441.849907 144.926196 
L 440.828612 145.952993 
L 440.210593 146.830206 
L 439.884855 147.669182 
L 439.887652 148.372203 
L 440.103488 148.84979 
L 440.631388 149.35815 
L 441.609601 149.8453 
L 442.650961 150.160282 
L 444.94504 150.580648 
L 447.926617 150.883401 
L 452.520812 151.095895 
L 457.70391 151.111573 
L 464.057715 150.892128 
L 470.627035 150.433716 
L 478.461117 149.638135 
L 495.407901 147.754383 
L 501.816575 147.349831 
L 507.528362 147.209105 
L 513.619715 147.258914 
L 522.437812 147.582998 
L 538.806631 148.500002 
L 543.998419 148.785906 
L 543.998419 148.785906 
" style="fill:none;stroke:#000000;stroke-linecap:square;stroke-opacity:0.7;stroke-width:1.2;"/>
   </g>
   <g id="line2d_19">
    <path clip-path="url(#p569ab61edc)" d="M 544.029361 109.199193 
L 538.537463 106.518489 
L 533.822698 104.427962 
L 528.864806 102.480369 
L 524.147584 100.893547 
L 520.332561 99.811022 
L 516.719301 98.954299 
L 511.711458 98.036026 
L 506.98503 97.44806 
L 502.720521 97.138873 
L 497.877057 97.025429 
L 492.518565 97.165096 
L 486.562632 97.592362 
L 480.085359 98.293769 
L 471.588296 99.453558 
L 463.530304 100.780999 
L 457.484247 101.999983 
L 452.979527 103.108222 
L 449.523246 104.130986 
L 446.502362 105.202661 
L 443.551944 106.494262 
L 441.520095 107.632944 
L 440.196847 108.665719 
L 439.768661 109.297462 
L 439.770845 109.68314 
L 439.972662 109.954534 
L 440.485913 110.255523 
L 441.868148 110.664099 
L 445.035927 111.18282 
L 450.756764 111.787129 
L 458.815176 112.397899 
L 468.525186 112.929742 
L 478.878545 113.296695 
L 489.951519 113.460497 
L 500.162137 113.377592 
L 508.14101 113.114901 
L 516.028349 112.647878 
L 524.058244 111.948523 
L 532.680957 110.954622 
L 541.247773 109.728179 
L 544.02906 109.277023 
L 544.02906 109.277023 
" style="fill:none;stroke:#000000;stroke-linecap:square;stroke-opacity:0.7;stroke-width:1.2;"/>
   </g>
   <g id="line2d_20">
    <path clip-path="url(#p569ab61edc)" d="M 544.122537 70.108797 
L 536.463529 67.850709 
L 530.737546 66.336968 
L 523.798119 64.733555 
L 518.039823 63.603641 
L 512.298561 62.660104 
L 505.992865 61.836216 
L 499.760979 61.243653 
L 492.962384 60.848835 
L 486.683898 60.70375 
L 479.343401 60.761003 
L 472.102867 61.023146 
L 465.339288 61.472463 
L 459.237431 62.119641 
L 454.872691 62.795471 
L 451.30971 63.543314 
L 448.056279 64.452276 
L 445.626681 65.339949 
L 443.754145 66.210826 
L 442.231891 67.113417 
L 441.030989 68.06133 
L 440.274516 68.9546 
L 440.025681 69.497441 
L 439.999371 70.090443 
L 440.13885 70.429141 
L 440.509319 70.839581 
L 441.447786 71.389499 
L 442.694283 71.8527 
L 445.470779 72.579726 
L 449.923993 73.451782 
L 456.402591 74.441448 
L 463.597756 75.278298 
L 470.543817 75.84634 
L 477.217489 76.162664 
L 483.388036 76.249061 
L 490.830503 76.104921 
L 498.269466 75.738324 
L 506.921862 75.102322 
L 516.632799 74.159275 
L 525.919045 73.031613 
L 535.248924 71.67364 
L 544.123396 70.164861 
L 544.123396 70.164861 
" style="fill:none;stroke:#000000;stroke-linecap:square;stroke-opacity:0.7;stroke-width:1.2;"/>
   </g>
   <g id="line2d_21">
    <path clip-path="url(#p569ab61edc)" d="M 675.490909 227.759425 
L 666.273954 225.364785 
L 657.487081 223.316409 
L 650.472089 221.901848 
L 644.212063 220.838934 
L 637.823495 219.976319 
L 632.274075 219.428819 
L 626.134394 219.056809 
L 619.805525 218.930441 
L 613.807682 219.026997 
L 606.753281 219.353506 
L 598.867324 219.942043 
L 592.886048 220.566564 
L 586.709579 221.444758 
L 582.334367 222.278844 
L 578.593643 223.201456 
L 575.182186 224.305111 
L 572.711965 225.383233 
L 571.369263 226.214692 
L 570.898413 226.717106 
L 570.84923 226.98711 
L 571.043155 227.213585 
L 571.340663 227.337467 
L 572.333563 227.498726 
L 574.281034 227.560038 
L 578.359517 227.427303 
L 586.431873 226.885103 
L 602.463568 225.74742 
L 608.502769 225.52426 
L 613.401786 225.511476 
L 619.882396 225.754681 
L 628.311776 226.379469 
L 641.872107 227.410049 
L 649.907793 227.800207 
L 657.84663 227.993931 
L 667.231016 228.000595 
L 675.485212 227.818646 
L 675.485212 227.818646 
" style="fill:none;stroke:#000000;stroke-linecap:square;stroke-opacity:0.7;stroke-width:1.2;"/>
   </g>
   <g id="line2d_22">
    <path clip-path="url(#p569ab61edc)" d="M 675.347106 188.205257 
L 664.392627 186.405942 
L 655.634753 185.189152 
L 648.39054 184.403789 
L 641.935438 183.911057 
L 636.023122 183.655744 
L 630.133125 183.601314 
L 623.123917 183.775401 
L 608.671384 184.280333 
L 601.323514 184.232693 
L 590.580295 184.100868 
L 585.516308 184.245681 
L 580.961927 184.624155 
L 577.718731 185.111802 
L 574.742663 185.808787 
L 572.473691 186.63586 
L 571.371463 187.293099 
L 571.038425 187.649221 
L 570.930915 187.99407 
L 571.086667 188.33295 
L 571.507549 188.633961 
L 572.455145 188.989314 
L 574.2494 189.381478 
L 576.897086 189.752054 
L 581.85834 190.206387 
L 590.117923 190.685153 
L 602.407354 191.122944 
L 618.520153 191.461547 
L 630.722057 191.525141 
L 639.40903 191.368493 
L 647.346062 191.022438 
L 655.71782 190.436228 
L 663.861661 189.662902 
L 673.064978 188.571943 
L 675.367913 188.264682 
L 675.367913 188.264682 
" style="fill:none;stroke:#000000;stroke-linecap:square;stroke-opacity:0.7;stroke-width:1.2;"/>
   </g>
   <g id="line2d_23">
    <path clip-path="url(#p569ab61edc)" d="M 675.297143 148.856614 
L 657.526315 148.003667 
L 624.723422 146.56936 
L 620.452098 146.147315 
L 615.267702 145.44566 
L 608.911272 144.329662 
L 597.55599 142.2102 
L 592.828885 141.590869 
L 589.485884 141.35764 
L 586.344712 141.347261 
L 583.962375 141.50448 
L 581.69658 141.810637 
L 579.742803 142.218034 
L 577.33321 142.943272 
L 575.896986 143.524112 
L 574.117625 144.463985 
L 572.95601 145.288451 
L 571.84643 146.430916 
L 571.425243 147.169395 
L 571.255526 148.0536 
L 571.416008 148.726269 
L 571.857521 149.363488 
L 572.69043 150.02083 
L 573.983934 150.660859 
L 576.484945 151.448084 
L 578.691604 151.922721 
L 582.631134 152.51117 
L 586.696842 152.90514 
L 592.380229 153.214396 
L 598.909055 153.307536 
L 605.845001 153.15629 
L 613.644713 152.739853 
L 628.771671 151.596956 
L 642.000775 150.71597 
L 675.312266 148.867042 
L 675.312266 148.867042 
" style="fill:none;stroke:#000000;stroke-linecap:square;stroke-opacity:0.7;stroke-width:1.2;"/>
   </g>
   <g id="line2d_24">
    <path clip-path="url(#p569ab61edc)" d="M 675.457686 109.247741 
L 669.192577 107.20318 
L 662.873369 105.34821 
L 656.898073 103.79192 
L 649.258074 102.0479 
L 641.789686 100.558281 
L 632.680121 98.986529 
L 624.619065 97.845698 
L 617.973271 97.13564 
L 611.901699 96.698135 
L 605.632216 96.464445 
L 599.588453 96.463971 
L 594.854034 96.652639 
L 590.07261 97.078731 
L 586.737385 97.580367 
L 583.815409 98.22421 
L 580.899579 99.145532 
L 578.959909 99.979759 
L 577.165936 100.974491 
L 575.85622 101.886477 
L 573.863079 103.746116 
L 572.800144 105.186577 
L 572.148538 106.553424 
L 571.902507 107.679167 
L 571.910918 108.408449 
L 572.176238 109.387516 
L 572.677843 110.219807 
L 573.215706 110.811766 
L 574.044753 111.493501 
L 575.566845 112.41945 
L 577.461045 113.292587 
L 580.215995 114.283356 
L 583.173008 115.130585 
L 587.517369 116.112295 
L 592.58511 116.968482 
L 597.002345 117.506843 
L 602.247506 117.919893 
L 606.95622 118.092061 
L 612.203119 118.072828 
L 617.167881 117.866338 
L 624.111194 117.324542 
L 631.5317 116.518981 
L 642.734307 115.054946 
L 653.367861 113.464959 
L 664.082107 111.635763 
L 672.716253 109.961373 
L 675.478895 109.383219 
L 675.478895 109.383219 
" style="fill:none;stroke:#000000;stroke-linecap:square;stroke-opacity:0.7;stroke-width:1.2;"/>
   </g>
   <g id="line2d_25">
    <path clip-path="url(#p569ab61edc)" d="M 675.40699 69.846098 
L 654.542242 66.55642 
L 644.555649 64.751663 
L 633.0095 62.423768 
L 622.410353 60.314013 
L 615.944289 59.266169 
L 610.142798 58.584092 
L 604.78529 58.208739 
L 600.579612 58.105153 
L 596.222011 58.1992 
L 592.179841 58.501199 
L 589.0855 58.900475 
L 585.737566 59.53484 
L 582.801221 60.30803 
L 579.605892 61.452194 
L 576.997408 62.707309 
L 575.027479 63.933205 
L 573.452632 65.181008 
L 572.127564 66.568219 
L 571.265098 67.905154 
L 570.962131 68.75374 
L 570.895961 69.414725 
L 571.020928 70.051473 
L 571.394514 70.673073 
L 572.139091 71.292498 
L 572.88305 71.677407 
L 574.839007 72.30286 
L 576.628774 72.659553 
L 580.268902 73.1068 
L 584.071825 73.3573 
L 589.798397 73.477579 
L 596.203256 73.333396 
L 602.505807 72.940083 
L 608.623017 72.343535 
L 617.794712 71.182303 
L 626.570392 70.096199 
L 632.778938 69.535711 
L 638.646975 69.218754 
L 645.709191 69.089654 
L 654.08083 69.192038 
L 667.304005 69.623659 
L 675.435005 69.930365 
L 675.435005 69.930365 
" style="fill:none;stroke:#000000;stroke-linecap:square;stroke-opacity:0.7;stroke-width:1.2;"/>
   </g>
  </g>
 </g>
 <defs>
  <clipPath id="p569ab61edc">
   <rect height="262.08" width="694.08" x="12.96" y="12.96"/>
  </clipPath>
 </defs>
</svg>
