<?xml version="1.0" encoding="utf-8" standalone="no"?>
<!DOCTYPE svg PUBLIC "-//W3C//DTD SVG 1.1//EN"
  "http://www.w3.org/Graphics/SVG/1.1/DTD/svg11.dtd">
<!-- Created with matplotlib (https://matplotlib.org/) -->
<svg height="288pt" version="1.1" viewBox="0 0 720 288" width="720pt" xmlns="http://www.w3.org/2000/svg" xmlns:xlink="http://www.w3.org/1999/xlink">
 <metadata>
  <rdf:RDF xmlns:cc="http://creativecommons.org/ns#" xmlns:dc="http://purl.org/dc/elements/1.1/" xmlns:rdf="http://www.w3.org/1999/02/22-rdf-syntax-ns#">
   <cc:Work>
    <dc:type rdf:resource="http://purl.org/dc/dcmitype/StillImage"/>
    <dc:date>2020-11-06T18:26:36.886534</dc:date>
    <dc:format>image/svg+xml</dc:format>
    <dc:creator>
     <cc:Agent>
      <dc:title>Matplotlib v3.3.2, https://matplotlib.org/</dc:title>
     </cc:Agent>
    </dc:creator>
   </cc:Work>
  </rdf:RDF>
 </metadata>
 <defs>
  <style type="text/css">*{stroke-linecap:butt;stroke-linejoin:round;}</style>
 </defs>
 <g id="figure_1">
  <g id="patch_1">
   <path d="M 0 288 
L 720 288 
L 720 0 
L 0 0 
z
" style="fill:#ffffff;"/>
  </g>
  <g id="axes_1">
   <g id="line2d_1">
    <path clip-path="url(#p2decb22a3a)" d="M 148.942451 226.076481 
L 143.070189 224.541365 
L 136.918594 223.13597 
L 131.108669 222.008332 
L 124.840009 220.995203 
L 118.094 220.118389 
L 110.786941 219.395073 
L 103.385128 218.887207 
L 95.568851 218.581539 
L 85.600906 218.443514 
L 71.215409 218.466874 
L 65.743152 218.638574 
L 61.591284 218.953163 
L 58.573357 219.357944 
L 55.553676 219.992909 
L 53.732694 220.531074 
L 51.748323 221.298528 
L 50.090178 222.134694 
L 48.539472 223.155576 
L 47.31061 224.263878 
L 46.635556 225.166311 
L 46.29807 226.007754 
L 46.284151 226.73325 
L 46.493394 227.290376 
L 46.717278 227.608484 
L 47.670222 228.391225 
L 48.316952 228.739769 
L 50.206845 229.460791 
L 53.515065 230.278773 
L 57.057711 230.879792 
L 62.393849 231.504169 
L 68.036596 231.924173 
L 73.799995 232.156417 
L 80.843971 232.202797 
L 87.856003 232.010929 
L 95.934832 231.546321 
L 106.952027 230.657713 
L 125.894401 228.863907 
L 149.011012 226.602315 
L 149.011012 226.602315 
" style="fill:none;stroke:#000000;stroke-linecap:square;stroke-opacity:0.7;stroke-width:1.2;"/>
   </g>
   <g id="line2d_2">
    <path clip-path="url(#p2decb22a3a)" d="M 148.943486 186.512842 
L 144.510111 184.309766 
L 140.965101 182.730772 
L 136.451803 180.99158 
L 132.537612 179.739515 
L 128.504242 178.694555 
L 123.769318 177.769539 
L 119.754513 177.223548 
L 114.909244 176.833362 
L 110.512151 176.713628 
L 105.930567 176.804772 
L 100.416984 177.170667 
L 93.888735 177.878941 
L 77.199378 179.897712 
L 56.148346 182.037935 
L 52.357976 182.81156 
L 50.075157 183.473831 
L 47.784243 184.401977 
L 46.366467 185.244057 
L 45.640312 185.917842 
L 45.358589 186.454488 
L 45.345228 186.762627 
L 45.529396 187.155372 
L 46.067822 187.584616 
L 47.165154 188.037277 
L 49.661448 188.599797 
L 53.311231 189.074388 
L 59.071042 189.526936 
L 65.601561 189.84944 
L 80.113567 190.29184 
L 99.328613 190.687588 
L 108.071334 190.645872 
L 116.01264 190.37186 
L 123.653979 189.883081 
L 132.657588 189.059034 
L 143.310353 187.834761 
L 149.002185 187.121816 
L 149.002185 187.121816 
" style="fill:none;stroke:#000000;stroke-linecap:square;stroke-opacity:0.7;stroke-width:1.2;"/>
   </g>
   <g id="line2d_3">
    <path clip-path="url(#p2decb22a3a)" d="M 149.007197 146.818361 
L 142.812181 145.402286 
L 137.100141 144.264108 
L 129.532496 142.995948 
L 122.409225 142.034381 
L 115.402178 141.294566 
L 107.9589 140.731132 
L 100.300327 140.40517 
L 92.829733 140.344394 
L 84.314011 140.52462 
L 70.796671 141.068535 
L 63.065906 141.566786 
L 58.717509 142.064645 
L 55.539249 142.647157 
L 53.351465 143.218404 
L 51.037096 144.037197 
L 49.754425 144.619382 
L 48.188743 145.51824 
L 47.251192 146.237348 
L 46.545702 147.07076 
L 46.382955 147.710289 
L 46.495097 148.045302 
L 46.818944 148.387933 
L 47.489593 148.745986 
L 48.239543 148.991482 
L 49.951648 149.343076 
L 53.535086 149.754051 
L 60.217993 150.163021 
L 69.964451 150.488013 
L 82.665986 150.694598 
L 95.59507 150.693241 
L 106.302296 150.479428 
L 116.797982 150.03265 
L 127.172576 149.349593 
L 139.024208 148.319413 
L 149.058248 147.321611 
L 149.058248 147.321611 
" style="fill:none;stroke:#000000;stroke-linecap:square;stroke-opacity:0.7;stroke-width:1.2;"/>
   </g>
   <g id="line2d_4">
    <path clip-path="url(#p2decb22a3a)" d="M 149.206212 108.158857 
L 140.657674 106.712432 
L 132.702973 105.566617 
L 123.591108 104.499232 
L 113.984346 103.629415 
L 103.093354 102.895872 
L 90.36319 102.278701 
L 80.10185 101.983469 
L 72.294093 101.977242 
L 66.423453 102.18145 
L 61.508879 102.561393 
L 57.013186 103.149006 
L 53.732837 103.77961 
L 50.25874 104.714833 
L 48.10385 105.505256 
L 46.460884 106.303196 
L 45.296542 107.113064 
L 44.741511 107.826574 
L 44.692496 108.334144 
L 44.841132 108.633783 
L 45.240305 108.990007 
L 46.221265 109.445439 
L 48.230946 109.951356 
L 51.625034 110.426748 
L 56.717308 110.814063 
L 63.248432 111.043011 
L 70.937291 111.085515 
L 80.101775 110.918853 
L 95.680906 110.352117 
L 121.868647 109.432289 
L 146.585404 108.761884 
L 149.200797 108.719245 
L 149.200797 108.719245 
" style="fill:none;stroke:#000000;stroke-linecap:square;stroke-opacity:0.7;stroke-width:1.2;"/>
   </g>
   <g id="line2d_5">
    <path clip-path="url(#p2decb22a3a)" d="M 149.227568 68.633833 
L 142.28235 67.149598 
L 136.145436 66.075263 
L 130.809492 65.352021 
L 125.062827 64.79419 
L 118.529572 64.420261 
L 111.40253 64.281575 
L 101.295072 64.37365 
L 93.761476 64.368191 
L 87.923381 64.119924 
L 81.591543 63.602297 
L 70.459936 62.62679 
L 65.264993 62.418179 
L 61.606565 62.45813 
L 57.779061 62.727727 
L 54.809721 63.14586 
L 52.055223 63.748469 
L 49.389726 64.602126 
L 47.3963 65.507026 
L 45.99331 66.39653 
L 45.115313 67.208163 
L 44.617979 68.011497 
L 44.509091 68.669399 
L 44.701246 69.322488 
L 45.202592 69.947181 
L 46.152279 70.629165 
L 47.998171 71.474002 
L 49.767159 72.054483 
L 52.302631 72.696474 
L 56.907861 73.543182 
L 61.167993 74.09808 
L 66.049002 74.545097 
L 71.822415 74.867566 
L 77.734369 75.000434 
L 84.537098 74.935314 
L 91.90432 74.640971 
L 101.889581 73.980498 
L 115.049409 72.851566 
L 129.565723 71.378528 
L 146.600737 69.418218 
L 149.207335 69.100819 
L 149.207335 69.100819 
" style="fill:none;stroke:#000000;stroke-linecap:square;stroke-opacity:0.7;stroke-width:1.2;"/>
   </g>
   <g id="line2d_6">
    <path clip-path="url(#p2decb22a3a)" d="M 280.797522 226.706303 
L 270.115238 225.368329 
L 263.176363 224.224071 
L 257.487518 223.042762 
L 251.474984 221.537756 
L 244.489719 219.499131 
L 230.065469 215.088695 
L 225.385997 213.965872 
L 221.662561 213.295659 
L 217.874597 212.848762 
L 214.803392 212.668939 
L 211.189059 212.667426 
L 207.589654 212.887959 
L 204.248835 213.287103 
L 200.473211 213.961634 
L 197.120378 214.761832 
L 193.050629 215.999122 
L 189.340118 217.404749 
L 185.742686 219.062099 
L 183.185005 220.459403 
L 181.101341 221.778017 
L 179.076398 223.29494 
L 177.570437 224.721683 
L 176.777758 225.7978 
L 176.517177 226.440083 
L 176.528512 227.173505 
L 176.753123 227.586735 
L 177.348562 228.088943 
L 178.187569 228.487736 
L 179.936168 228.980885 
L 182.810999 229.429958 
L 185.624029 229.669813 
L 189.995098 229.820142 
L 195.316527 229.755097 
L 201.185134 229.44721 
L 206.91425 228.956128 
L 214.963075 228.036492 
L 228.843759 226.382269 
L 234.427196 225.926394 
L 240.568922 225.633357 
L 247.181134 225.54348 
L 254.671987 225.6695 
L 263.529897 226.050211 
L 273.43088 226.694475 
L 280.777791 227.299951 
L 280.777791 227.299951 
" style="fill:none;stroke:#000000;stroke-linecap:square;stroke-opacity:0.7;stroke-width:1.2;"/>
   </g>
   <g id="line2d_7">
    <path clip-path="url(#p2decb22a3a)" d="M 279.824221 185.681342 
L 267.222186 184.541364 
L 258.588229 183.542733 
L 249.626988 182.284133 
L 237.483544 180.320694 
L 227.994398 178.873415 
L 222.490634 178.253021 
L 218.033788 177.928722 
L 212.476676 177.76621 
L 206.854874 177.875655 
L 202.433224 178.161318 
L 197.933598 178.6529 
L 193.307277 179.412667 
L 189.842328 180.196686 
L 187.259108 180.936132 
L 184.680707 181.844918 
L 182.142605 182.963267 
L 180.125126 184.08565 
L 178.676373 185.11262 
L 177.571645 186.199438 
L 177.179506 186.839759 
L 177.063474 187.435948 
L 177.24207 187.930803 
L 177.699748 188.34768 
L 178.274062 188.635734 
L 179.640177 189.030135 
L 182.347797 189.421643 
L 185.435808 189.639737 
L 191.023413 189.781439 
L 198.189132 189.723627 
L 207.477891 189.416299 
L 219.654631 188.778321 
L 244.294319 187.452346 
L 267.129144 186.49148 
L 279.176905 186.167156 
L 279.92013 186.158871 
L 279.92013 186.158871 
" style="fill:none;stroke:#000000;stroke-linecap:square;stroke-opacity:0.7;stroke-width:1.2;"/>
   </g>
   <g id="line2d_8">
    <path clip-path="url(#p2decb22a3a)" d="M 280.566204 146.701615 
L 272.333268 144.589762 
L 266.653332 142.929022 
L 260.690663 140.983083 
L 252.274492 137.969839 
L 241.25065 133.963036 
L 236.543237 132.450721 
L 232.169546 131.291431 
L 228.255132 130.533468 
L 225.203241 130.159702 
L 221.471633 129.976885 
L 218.078969 130.066098 
L 215.029745 130.337562 
L 211.119892 130.92087 
L 207.702321 131.620948 
L 202.996841 132.838655 
L 199.214282 134.011698 
L 195.296553 135.402642 
L 190.253382 137.471187 
L 186.612133 139.192996 
L 183.926727 140.622526 
L 181.791415 141.892621 
L 179.27884 143.628231 
L 177.982381 144.717776 
L 177.042357 145.723023 
L 176.471913 146.71379 
L 176.390057 147.210633 
L 176.547899 147.763126 
L 176.99816 148.239824 
L 177.794154 148.670673 
L 178.897123 149.027742 
L 180.487808 149.352265 
L 183.42411 149.693257 
L 187.006233 149.889089 
L 191.670553 149.949576 
L 198.760284 149.793121 
L 207.030672 149.376062 
L 219.336306 148.506499 
L 234.874726 147.421016 
L 244.660432 146.962175 
L 253.630375 146.751123 
L 264.036483 146.750654 
L 274.31119 146.991977 
L 280.513271 147.273142 
L 280.513271 147.273142 
" style="fill:none;stroke:#000000;stroke-linecap:square;stroke-opacity:0.7;stroke-width:1.2;"/>
   </g>
   <g id="line2d_9">
    <path clip-path="url(#p2decb22a3a)" d="M 280.884284 108.247009 
L 275.58321 106.391135 
L 269.573443 104.516119 
L 263.734326 102.954145 
L 258.218239 101.716882 
L 252.342708 100.650248 
L 246.766712 99.875324 
L 241.418533 99.349438 
L 235.414645 99.013425 
L 229.918553 98.935326 
L 223.713294 99.07987 
L 216.382808 99.484809 
L 206.39304 100.289067 
L 197.834873 101.198134 
L 191.838054 102.047483 
L 187.878679 102.776702 
L 183.436685 103.860111 
L 180.245575 104.939132 
L 178.714856 105.632651 
L 177.319207 106.518179 
L 176.787978 107.078152 
L 176.592238 107.559718 
L 176.615041 107.847877 
L 176.926869 108.309577 
L 177.446612 108.65652 
L 177.999406 108.899241 
L 180.204641 109.478946 
L 183.543578 109.965697 
L 188.798292 110.409942 
L 195.286033 110.713613 
L 203.413647 110.870074 
L 212.161058 110.831729 
L 223.109124 110.551428 
L 272.491207 108.897439 
L 280.881894 108.770141 
L 280.881894 108.770141 
" style="fill:none;stroke:#000000;stroke-linecap:square;stroke-opacity:0.7;stroke-width:1.2;"/>
   </g>
   <g id="line2d_10">
    <path clip-path="url(#p2decb22a3a)" d="M 280.392649 67.63354 
L 276.090756 65.185221 
L 271.946219 63.071858 
L 268.347059 61.455111 
L 264.754405 60.0545 
L 261.640531 59.0138 
L 257.781858 57.942141 
L 254.41972 57.19714 
L 250.4439 56.53074 
L 246.493076 56.085253 
L 242.822506 55.85289 
L 237.878241 55.796925 
L 232.68319 56.027272 
L 227.7355 56.481809 
L 221.082887 57.345589 
L 196.205823 61.052911 
L 190.076585 62.169001 
L 185.684127 63.197768 
L 182.626252 64.127305 
L 179.911708 65.217234 
L 178.284946 66.093123 
L 177.891777 66.350583 
L 176.735706 67.350443 
L 176.355067 67.982701 
L 176.309162 68.432656 
L 176.568008 68.917625 
L 177.007882 69.240962 
L 178.016608 69.637475 
L 179.238688 69.921549 
L 182.37556 70.342865 
L 186.866353 70.680094 
L 195.36858 71.037327 
L 208.942125 71.334186 
L 230.214079 71.560218 
L 240.351814 71.451909 
L 248.411728 71.154201 
L 257.709915 70.556464 
L 267.280854 69.690422 
L 278.12518 68.475136 
L 280.449064 68.191856 
L 280.449064 68.191856 
" style="fill:none;stroke:#000000;stroke-linecap:square;stroke-opacity:0.7;stroke-width:1.2;"/>
   </g>
   <g id="line2d_11">
    <path clip-path="url(#p2decb22a3a)" d="M 412.255964 226.515685 
L 405.119248 224.319756 
L 399.330911 222.726884 
L 393.520428 221.325344 
L 387.678776 220.123895 
L 381.571927 219.095043 
L 375.687255 218.3295 
L 369.517227 217.774892 
L 363.285891 217.480888 
L 357.759848 217.436924 
L 350.968337 217.616299 
L 342.479784 218.091293 
L 334.384946 218.752541 
L 327.791207 219.510814 
L 323.146761 220.250665 
L 318.69918 221.221764 
L 315.717551 222.094057 
L 313.59145 222.881287 
L 311.493252 223.875736 
L 310.518351 224.46712 
L 309.460309 225.334629 
L 308.976469 226.077064 
L 308.965729 226.59728 
L 309.291181 227.047551 
L 309.662477 227.293751 
L 310.616316 227.665993 
L 312.584232 228.080115 
L 316.049069 228.458204 
L 320.88656 228.721418 
L 327.677731 228.866904 
L 338.008787 228.832779 
L 353.992601 228.503538 
L 407.291905 227.14637 
L 412.253988 227.031095 
L 412.253988 227.031095 
" style="fill:none;stroke:#000000;stroke-linecap:square;stroke-opacity:0.7;stroke-width:1.2;"/>
   </g>
   <g id="line2d_12">
    <path clip-path="url(#p2decb22a3a)" d="M 412.011928 186.337572 
L 400.177932 185.416845 
L 377.653005 183.695166 
L 369.427812 182.821881 
L 362.303329 181.846056 
L 353.205869 180.333974 
L 345.013313 179.028086 
L 339.446558 178.386514 
L 335.29511 178.113282 
L 331.862665 178.052893 
L 328.465161 178.16798 
L 324.615012 178.54826 
L 321.469584 179.096988 
L 318.32254 179.914692 
L 316.105536 180.698298 
L 314.091858 181.612658 
L 312.476796 182.549034 
L 310.983398 183.693448 
L 309.921337 184.89675 
L 309.440014 185.918512 
L 309.391159 186.849453 
L 309.657487 187.557487 
L 310.065944 188.087298 
L 311.0166 188.834869 
L 312.395611 189.531174 
L 314.083251 190.132559 
L 316.112833 190.671396 
L 319.902419 191.383466 
L 324.40316 191.934409 
L 329.782317 192.318296 
L 335.701618 192.477587 
L 341.295046 192.411558 
L 347.971848 192.088404 
L 354.89166 191.528279 
L 367.554771 190.224482 
L 383.630926 188.62524 
L 395.621626 187.660986 
L 405.744354 187.047933 
L 411.986525 186.797351 
L 411.986525 186.797351 
" style="fill:none;stroke:#000000;stroke-linecap:square;stroke-opacity:0.7;stroke-width:1.2;"/>
   </g>
   <g id="line2d_13">
    <path clip-path="url(#p2decb22a3a)" d="M 412.170733 147.56249 
L 395.028937 144.53227 
L 370.13562 139.986246 
L 364.080706 139.151769 
L 360.325361 138.779061 
L 355.368498 138.512287 
L 350.696018 138.52658 
L 347.247799 138.702802 
L 341.930084 139.22031 
L 336.859099 139.941582 
L 330.655405 141.053468 
L 323.324468 142.619113 
L 316.137575 144.401376 
L 310.999825 145.888473 
L 308.051422 146.968823 
L 307.327387 147.416677 
L 307.278482 147.659151 
L 307.453612 147.780443 
L 308.318973 147.958697 
L 310.572683 148.057876 
L 314.246551 147.990971 
L 320.668466 147.651307 
L 331.429101 146.818771 
L 348.907857 145.421024 
L 355.946838 145.09246 
L 362.92804 144.997298 
L 369.617403 145.10174 
L 378.311093 145.445708 
L 389.342947 146.108351 
L 402.105292 147.113568 
L 412.197755 148.129638 
L 412.197755 148.129638 
" style="fill:none;stroke:#000000;stroke-linecap:square;stroke-opacity:0.7;stroke-width:1.2;"/>
   </g>
   <g id="line2d_14">
    <path clip-path="url(#p2decb22a3a)" d="M 412.202059 107.486714 
L 399.011802 106.058272 
L 387.09366 104.694694 
L 378.919373 103.537539 
L 371.26634 102.20065 
L 364.269092 100.749676 
L 348.66544 97.389309 
L 344.218861 96.665527 
L 339.354993 96.105193 
L 335.796567 95.882879 
L 332.230012 95.851017 
L 328.644447 96.048781 
L 325.048044 96.529203 
L 323.184362 96.911975 
L 320.009548 97.822525 
L 317.577254 98.792519 
L 315.461658 99.88644 
L 313.533657 101.155274 
L 312.090777 102.345016 
L 310.821615 103.658366 
L 309.747043 105.145474 
L 309.235815 106.159139 
L 308.889945 107.388298 
L 308.878125 108.344784 
L 309.084524 109.120699 
L 309.480865 109.813462 
L 310.327746 110.664171 
L 311.846894 111.581826 
L 313.297864 112.180404 
L 315.851438 112.936192 
L 319.464516 113.66882 
L 323.710074 114.24601 
L 328.251042 114.640347 
L 333.23638 114.870334 
L 338.826119 114.911649 
L 345.105049 114.707046 
L 351.84588 114.216908 
L 358.818508 113.474527 
L 371.716429 111.807956 
L 384.908976 110.189626 
L 395.022876 109.19528 
L 404.69576 108.479143 
L 412.164735 108.075195 
L 412.164735 108.075195 
" style="fill:none;stroke:#000000;stroke-linecap:square;stroke-opacity:0.7;stroke-width:1.2;"/>
   </g>
   <g id="line2d_15">
    <path clip-path="url(#p2decb22a3a)" d="M 412.268349 68.55246 
L 396.2038 64.806425 
L 374.557501 59.659918 
L 368.798521 58.565358 
L 364.266991 57.914981 
L 359.813197 57.517301 
L 356.004734 57.396838 
L 352.429107 57.475577 
L 347.424381 57.880367 
L 342.701726 58.532445 
L 337.654099 59.454655 
L 330.748442 60.987056 
L 323.204078 62.924537 
L 317.379781 64.623579 
L 312.688175 66.22898 
L 310.327062 67.220949 
L 308.849844 68.060946 
L 308.429889 68.566538 
L 308.476038 68.77012 
L 308.736282 68.956255 
L 309.193333 69.096413 
L 310.870663 69.280078 
L 313.003037 69.316897 
L 317.712478 69.162847 
L 325.389421 68.637041 
L 350.100933 66.673232 
L 356.402069 66.530645 
L 363.506237 66.645494 
L 372.739326 67.05905 
L 412.31098 69.152826 
L 412.31098 69.152826 
" style="fill:none;stroke:#000000;stroke-linecap:square;stroke-opacity:0.7;stroke-width:1.2;"/>
   </g>
   <g id="line2d_16">
    <path clip-path="url(#p2decb22a3a)" d="M 543.831772 226.25235 
L 527.721141 224.869627 
L 518.998214 223.888536 
L 509.144329 222.536764 
L 487.079938 219.338089 
L 481.834021 218.909026 
L 477.457955 218.746222 
L 472.611525 218.781537 
L 468.081999 219.015572 
L 463.341646 219.466317 
L 458.246887 220.194148 
L 454.371339 220.932508 
L 449.466859 222.134274 
L 445.882538 223.246938 
L 442.320327 224.633743 
L 440.34406 225.62157 
L 439.589301 226.105531 
L 438.995683 226.69284 
L 438.979533 227.03617 
L 439.251965 227.247761 
L 440.038246 227.452772 
L 442.030124 227.602068 
L 446.043544 227.567288 
L 453.229238 227.187327 
L 464.223726 226.329852 
L 479.373181 225.134328 
L 487.549947 224.731958 
L 494.202682 224.607667 
L 503.181766 224.688939 
L 513.285672 225.007576 
L 526.960769 225.660295 
L 540.540077 226.51201 
L 543.776561 226.762364 
L 543.776561 226.762364 
" style="fill:none;stroke:#000000;stroke-linecap:square;stroke-opacity:0.7;stroke-width:1.2;"/>
   </g>
   <g id="line2d_17">
    <path clip-path="url(#p2decb22a3a)" d="M 543.866203 186.427921 
L 532.731432 185.992824 
L 527.904188 185.59677 
L 523.041126 184.965135 
L 519.166887 184.253499 
L 514.815117 183.200732 
L 511.418378 182.178212 
L 507.801834 180.890936 
L 504.386405 179.49339 
L 500.092091 177.519871 
L 487.572922 171.493234 
L 484.126528 170.191725 
L 481.252418 169.335639 
L 477.847084 168.613865 
L 474.511098 168.215038 
L 471.716795 168.107707 
L 468.435054 168.233555 
L 464.768288 168.682395 
L 462.329667 169.156231 
L 459.200863 169.968432 
L 455.353428 171.290714 
L 452.13778 172.690904 
L 450.038524 173.768456 
L 446.870122 175.689936 
L 444.053484 177.798119 
L 443.438994 178.328469 
L 441.817381 179.910061 
L 440.365919 181.695351 
L 439.502319 183.143639 
L 438.927506 184.73657 
L 438.810428 185.690157 
L 438.840197 186.270329 
L 439.13238 187.32064 
L 439.649166 188.166726 
L 440.419799 188.944818 
L 441.133041 189.459928 
L 442.829722 190.323785 
L 444.905135 191.031167 
L 448.089095 191.743454 
L 451.830658 192.256983 
L 456.061058 192.575949 
L 461.079543 192.701249 
L 466.211455 192.605902 
L 472.377807 192.235541 
L 478.592166 191.612937 
L 486.595427 190.538932 
L 501.570623 188.449207 
L 508.900933 187.667705 
L 515.682233 187.143788 
L 522.474581 186.813788 
L 530.497284 186.665052 
L 538.52091 186.764334 
L 543.755795 186.959734 
L 543.755795 186.959734 
" style="fill:none;stroke:#000000;stroke-linecap:square;stroke-opacity:0.7;stroke-width:1.2;"/>
   </g>
   <g id="line2d_18">
    <path clip-path="url(#p2decb22a3a)" d="M 544.18961 148.018144 
L 538.714661 146.297598 
L 533.521686 144.876876 
L 528.609468 143.744357 
L 523.298432 142.759811 
L 517.94103 142.017835 
L 512.776997 141.533792 
L 507.67138 141.266636 
L 502.166129 141.194115 
L 495.330409 141.357387 
L 476.626629 142.00211 
L 459.742949 142.204777 
L 453.928227 142.55538 
L 450.263858 142.962146 
L 446.708438 143.575632 
L 444.939462 143.998523 
L 441.992636 144.984888 
L 440.501134 145.733015 
L 439.667631 146.400801 
L 439.5427 146.792396 
L 439.823824 147.02731 
L 440.51626 147.175443 
L 441.975311 147.248533 
L 446.199531 147.176139 
L 458.54278 146.883271 
L 465.961908 146.945561 
L 471.761321 147.200109 
L 478.643013 147.777504 
L 486.551346 148.723626 
L 496.92758 149.938326 
L 503.545947 150.462595 
L 508.915727 150.700141 
L 514.307383 150.768907 
L 521.374748 150.618384 
L 527.925777 150.261863 
L 536.424274 149.540645 
L 544.179471 148.689496 
L 544.179471 148.689496 
" style="fill:none;stroke:#000000;stroke-linecap:square;stroke-opacity:0.7;stroke-width:1.2;"/>
   </g>
   <g id="line2d_19">
    <path clip-path="url(#p2decb22a3a)" d="M 543.721715 107.413387 
L 535.901953 106.119924 
L 528.310411 105.10468 
L 520.281439 104.292322 
L 511.828233 103.669759 
L 490.0874 102.240227 
L 483.267403 101.490257 
L 465.795433 99.412362 
L 461.333921 99.165552 
L 458.102555 99.166713 
L 454.647569 99.413673 
L 451.813392 99.881987 
L 449.229213 100.598891 
L 446.938954 101.550497 
L 445.882948 102.121383 
L 444.357966 103.144546 
L 442.940644 104.406585 
L 441.998107 105.571679 
L 441.517775 106.453702 
L 441.278387 107.339522 
L 441.330211 108.085783 
L 441.530455 108.562157 
L 442.045891 109.168701 
L 442.914861 109.751551 
L 443.745861 110.133882 
L 445.975271 110.838013 
L 448.398086 111.368877 
L 452.387675 112.006842 
L 457.690719 112.614276 
L 464.485721 113.148238 
L 472.340163 113.510292 
L 480.01092 113.629536 
L 488.219968 113.515714 
L 495.854367 113.21081 
L 505.962929 112.561246 
L 515.565049 111.712682 
L 525.391787 110.618858 
L 535.733009 109.227573 
L 543.78505 107.968434 
L 543.78505 107.968434 
" style="fill:none;stroke:#000000;stroke-linecap:square;stroke-opacity:0.7;stroke-width:1.2;"/>
   </g>
   <g id="line2d_20">
    <path clip-path="url(#p2decb22a3a)" d="M 543.264699 67.419145 
L 537.865031 66.322012 
L 532.128849 65.359203 
L 525.875561 64.583729 
L 520.319509 64.141159 
L 514.958482 63.92117 
L 509.001704 63.883488 
L 500.443191 64.095933 
L 490.5116 64.356597 
L 485.252957 64.238143 
L 480.897152 63.896234 
L 476.731942 63.363806 
L 469.260856 62.116689 
L 463.379578 61.183182 
L 459.796583 60.79559 
L 456.955098 60.669977 
L 454.488849 60.750571 
L 452.089555 61.057097 
L 449.502647 61.718803 
L 447.782817 62.40037 
L 446.626712 62.992369 
L 444.634449 64.339804 
L 443.121684 65.799336 
L 442.405639 66.801164 
L 441.96362 67.885126 
L 441.915211 68.614576 
L 442.119095 69.320043 
L 442.5256 69.911273 
L 443.343102 70.614966 
L 444.70818 71.38476 
L 446.302132 72.044361 
L 449.861277 73.135572 
L 454.065839 74.0974 
L 459.030805 74.976471 
L 465.045244 75.777668 
L 471.010166 76.329699 
L 476.311356 76.624046 
L 482.194494 76.729085 
L 487.670315 76.615365 
L 493.96204 76.24703 
L 500.927542 75.581549 
L 508.02839 74.672716 
L 515.657789 73.483394 
L 523.970586 71.980845 
L 533.38068 70.066422 
L 543.335952 67.827452 
L 543.335952 67.827452 
" style="fill:none;stroke:#000000;stroke-linecap:square;stroke-opacity:0.7;stroke-width:1.2;"/>
   </g>
   <g id="line2d_21">
    <path clip-path="url(#p2decb22a3a)" d="M 675.490909 225.922001 
L 667.196803 224.297854 
L 658.499216 222.826494 
L 649.64933 221.563728 
L 641.134019 220.568534 
L 633.2271 219.841684 
L 623.708028 219.215388 
L 613.159999 218.775762 
L 603.673573 218.587497 
L 596.274761 218.673124 
L 590.421283 219.000153 
L 585.30617 219.596197 
L 582.019616 220.212767 
L 578.804415 221.078285 
L 576.747136 221.824528 
L 574.863783 222.698387 
L 572.986415 223.858138 
L 571.988425 224.700378 
L 571.178971 225.741927 
L 570.969504 226.34053 
L 570.997033 226.869822 
L 571.282473 227.367574 
L 571.605772 227.651002 
L 572.258429 228.009121 
L 573.793866 228.483413 
L 576.429286 228.910203 
L 580.464771 229.251458 
L 587.436079 229.541336 
L 598.453065 229.740253 
L 615.231784 229.811198 
L 627.146764 229.669431 
L 637.616464 229.312598 
L 647.692382 228.732414 
L 659.78667 227.78864 
L 675.464483 226.433517 
L 675.464483 226.433517 
" style="fill:none;stroke:#000000;stroke-linecap:square;stroke-opacity:0.7;stroke-width:1.2;"/>
   </g>
   <g id="line2d_22">
    <path clip-path="url(#p2decb22a3a)" d="M 675.295483 186.50567 
L 670.50294 185.047224 
L 665.923471 183.845882 
L 661.156444 182.82561 
L 656.449998 182.051058 
L 651.37203 181.457763 
L 645.816769 181.062023 
L 639.291262 180.86863 
L 629.439805 180.884255 
L 622.740994 180.822738 
L 618.580242 180.628725 
L 612.617485 180.092988 
L 604.172209 179.030481 
L 597.130339 178.211926 
L 592.095236 177.852011 
L 588.713994 177.797094 
L 585.346849 177.963681 
L 583.223973 178.22304 
L 580.793544 178.716948 
L 578.627657 179.391399 
L 576.807192 180.189057 
L 575.152946 181.166222 
L 573.922179 182.116506 
L 572.462153 183.670989 
L 571.654838 185.025673 
L 571.319102 186.22508 
L 571.319293 186.876555 
L 571.450618 187.441292 
L 571.997536 188.356703 
L 572.856383 189.107022 
L 573.770727 189.644188 
L 576.063428 190.557672 
L 579.341485 191.432563 
L 582.603787 192.082707 
L 588.448818 192.969471 
L 594.861879 193.689888 
L 601.622892 194.231822 
L 607.400924 194.524626 
L 614.242851 194.653616 
L 621.051986 194.534203 
L 628.400866 194.136152 
L 636.010841 193.462674 
L 644.413731 192.458185 
L 652.9 191.212725 
L 662.517692 189.570657 
L 672.784512 187.582276 
L 675.303363 187.054738 
L 675.303363 187.054738 
" style="fill:none;stroke:#000000;stroke-linecap:square;stroke-opacity:0.7;stroke-width:1.2;"/>
   </g>
   <g id="line2d_23">
    <path clip-path="url(#p2decb22a3a)" d="M 675.442449 146.949818 
L 659.405669 144.354756 
L 652.163764 142.897484 
L 645.805137 141.403441 
L 637.402034 139.165762 
L 626.126095 136.093534 
L 621.5488 135.050649 
L 617.870498 134.385015 
L 613.58742 133.841155 
L 608.947386 133.545392 
L 605.613465 133.51723 
L 600.720721 133.744844 
L 596.02713 134.263192 
L 592.473574 134.863836 
L 588.755588 135.712663 
L 585.86251 136.560914 
L 583.914351 137.246046 
L 580.678602 138.64565 
L 578.236702 139.995582 
L 576.390581 141.262804 
L 575.383922 142.084068 
L 574.040095 143.409116 
L 572.820469 145.118473 
L 572.44375 146.073499 
L 572.360617 146.785421 
L 572.436873 147.279428 
L 572.844242 148.031346 
L 573.683548 148.73818 
L 574.340868 149.094916 
L 575.277972 149.478715 
L 577.600975 150.130523 
L 581.151134 150.754763 
L 585.408035 151.217376 
L 589.633474 151.490661 
L 595.008809 151.645937 
L 601.18855 151.61044 
L 608.089829 151.346735 
L 617.442038 150.722276 
L 642.408674 148.883137 
L 656.093948 148.161827 
L 668.94074 147.707451 
L 675.37609 147.598245 
L 675.37609 147.598245 
" style="fill:none;stroke:#000000;stroke-linecap:square;stroke-opacity:0.7;stroke-width:1.2;"/>
   </g>
   <g id="line2d_24">
    <path clip-path="url(#p2decb22a3a)" d="M 674.846128 107.204049 
L 659.733166 105.266664 
L 651.142198 103.931041 
L 642.655665 102.398858 
L 620.892443 98.289453 
L 615.395012 97.624246 
L 610.241676 97.264774 
L 605.009552 97.172023 
L 600.219591 97.332526 
L 595.505724 97.737603 
L 591.094002 98.375825 
L 587.51499 99.121884 
L 584.81406 99.856617 
L 582.33594 100.695986 
L 579.560323 101.882394 
L 577.15437 103.206492 
L 575.454584 104.397778 
L 574.073185 105.646909 
L 573.327372 106.549178 
L 572.832665 107.426248 
L 572.631163 108.320014 
L 572.786861 109.025046 
L 573.111568 109.479537 
L 573.761193 109.966819 
L 574.790002 110.414573 
L 576.278517 110.810853 
L 579.143995 111.251545 
L 582.935056 111.563903 
L 588.042962 111.761839 
L 595.696024 111.796698 
L 604.242581 111.581921 
L 613.612409 111.099715 
L 627.336587 110.116324 
L 644.839195 108.918795 
L 658.845341 108.191894 
L 669.985864 107.799666 
L 674.883451 107.713399 
L 674.883451 107.713399 
" style="fill:none;stroke:#000000;stroke-linecap:square;stroke-opacity:0.7;stroke-width:1.2;"/>
   </g>
   <g id="line2d_25">
    <path clip-path="url(#p2decb22a3a)" d="M 675.273845 68.077475 
L 624.060621 59.123354 
L 618.005838 58.450137 
L 612.860665 58.120853 
L 607.478739 58.03589 
L 601.955083 58.221433 
L 597.855325 58.538087 
L 593.103064 59.113146 
L 588.730238 59.877867 
L 584.988162 60.76069 
L 581.317692 61.892503 
L 578.63249 62.934739 
L 575.837713 64.277339 
L 573.465634 65.741408 
L 572.027295 66.96596 
L 571.450433 67.724036 
L 571.20303 68.526139 
L 571.282694 68.972449 
L 571.572152 69.424414 
L 572.222382 69.934691 
L 572.835648 70.247721 
L 574.197435 70.730673 
L 576.491997 71.260704 
L 579.379829 71.697262 
L 583.584293 72.094794 
L 588.736297 72.350092 
L 595.563012 72.424372 
L 602.403466 72.271424 
L 610.330954 71.872858 
L 621.598985 71.062134 
L 638.359224 69.881669 
L 651.105314 69.219992 
L 662.98543 68.812337 
L 674.069112 68.650866 
L 675.301412 68.650874 
L 675.301412 68.650874 
" style="fill:none;stroke:#000000;stroke-linecap:square;stroke-opacity:0.7;stroke-width:1.2;"/>
   </g>
  </g>
 </g>
 <defs>
  <clipPath id="p2decb22a3a">
   <rect height="262.08" width="694.08" x="12.96" y="12.96"/>
  </clipPath>
 </defs>
</svg>
