<?xml version="1.0" encoding="utf-8" standalone="no"?>
<!DOCTYPE svg PUBLIC "-//W3C//DTD SVG 1.1//EN"
  "http://www.w3.org/Graphics/SVG/1.1/DTD/svg11.dtd">
<!-- Created with matplotlib (https://matplotlib.org/) -->
<svg height="288pt" version="1.1" viewBox="0 0 720 288" width="720pt" xmlns="http://www.w3.org/2000/svg" xmlns:xlink="http://www.w3.org/1999/xlink">
 <metadata>
  <rdf:RDF xmlns:cc="http://creativecommons.org/ns#" xmlns:dc="http://purl.org/dc/elements/1.1/" xmlns:rdf="http://www.w3.org/1999/02/22-rdf-syntax-ns#">
   <cc:Work>
    <dc:type rdf:resource="http://purl.org/dc/dcmitype/StillImage"/>
    <dc:date>2020-11-06T18:17:46.453640</dc:date>
    <dc:format>image/svg+xml</dc:format>
    <dc:creator>
     <cc:Agent>
      <dc:title>Matplotlib v3.3.2, https://matplotlib.org/</dc:title>
     </cc:Agent>
    </dc:creator>
   </cc:Work>
  </rdf:RDF>
 </metadata>
 <defs>
  <style type="text/css">*{stroke-linecap:butt;stroke-linejoin:round;}</style>
 </defs>
 <g id="figure_1">
  <g id="patch_1">
   <path d="M 0 288 
L 720 288 
L 720 0 
L 0 0 
z
" style="fill:#ffffff;"/>
  </g>
  <g id="axes_1">
   <g id="line2d_1">
    <path clip-path="url(#p4da88be42c)" d="M 149.136861 228.734631 
L 147.493832 227.781009 
L 144.608959 226.387092 
L 140.672734 224.77301 
L 135.809856 223.050388 
L 130.401516 221.38356 
L 125.091765 219.960103 
L 119.899777 218.763012 
L 114.457739 217.723934 
L 109.127057 216.941401 
L 104.094655 216.446181 
L 99.510625 216.236776 
L 95.10947 216.29453 
L 91.19988 216.590462 
L 87.054144 217.168149 
L 82.800392 218.023682 
L 78.914116 218.999178 
L 67.001536 222.280589 
L 64.702244 222.526833 
L 56.460724 222.889468 
L 53.381289 223.307192 
L 50.766559 223.870436 
L 48.880075 224.492016 
L 48.268321 224.776252 
L 47.400244 225.403273 
L 47.211342 225.714189 
L 47.242701 226.161811 
L 47.488002 226.456346 
L 48.056946 226.798699 
L 49.027291 227.133424 
L 50.697121 227.464625 
L 53.489476 227.739489 
L 59.672463 227.975106 
L 63.90626 228.219208 
L 69.753708 228.815914 
L 88.085153 231.050652 
L 93.183474 231.456457 
L 98.704676 231.668707 
L 103.646838 231.604088 
L 108.06295 231.323688 
L 112.919943 230.799859 
L 120.254057 229.737889 
L 137.79205 227.062404 
L 142.388856 226.601881 
L 145.894796 226.533982 
L 148.33619 226.782221 
L 149.072921 226.912094 
L 149.072921 226.912094 
" style="fill:none;stroke:#000000;stroke-linecap:square;stroke-opacity:0.7;stroke-width:1.2;"/>
   </g>
   <g id="line2d_2">
    <path clip-path="url(#p4da88be42c)" d="M 148.549774 188.890928 
L 147.208977 187.907886 
L 145.840079 187.103347 
L 143.423322 185.892479 
L 139.384706 184.201682 
L 135.889562 182.972309 
L 131.352932 181.648264 
L 126.748418 180.59849 
L 122.22341 179.845272 
L 118.766765 179.448966 
L 114.322145 179.153949 
L 109.209643 179.0833 
L 103.411295 179.280542 
L 92.371887 180.007736 
L 76.023842 181.231809 
L 67.447032 182.068921 
L 59.156088 183.095505 
L 53.388747 184.04495 
L 49.839176 184.84436 
L 47.174122 185.687735 
L 45.691996 186.375147 
L 44.848716 187.000004 
L 44.509091 187.664432 
L 44.591454 188.008288 
L 45.033609 188.463286 
L 45.633523 188.783881 
L 46.80567 189.171111 
L 48.425663 189.503704 
L 52.054376 189.901207 
L 55.772916 190.071908 
L 62.238763 190.110285 
L 79.683762 190.053837 
L 88.789479 190.352762 
L 113.286809 191.415797 
L 122.115578 191.451785 
L 132.940692 191.246746 
L 138.611141 190.938583 
L 141.915462 190.53915 
L 144.519023 189.919679 
L 145.825653 189.398671 
L 147.084177 188.661294 
L 148.382987 187.540505 
L 148.382987 187.540505 
" style="fill:none;stroke:#000000;stroke-linecap:square;stroke-opacity:0.7;stroke-width:1.2;"/>
   </g>
   <g id="line2d_3">
    <path clip-path="url(#p4da88be42c)" d="M 149.572412 147.795448 
L 147.29309 146.761364 
L 143.635541 145.409685 
L 139.788758 144.224428 
L 134.208928 142.776808 
L 128.055336 141.414196 
L 117.76611 139.415802 
L 105.598107 137.254357 
L 99.706007 136.375189 
L 95.924031 135.989663 
L 92.622468 135.836209 
L 88.716764 135.905621 
L 84.415078 136.267451 
L 79.623253 136.940436 
L 75.76982 137.628916 
L 63.471373 140.015453 
L 54.742096 141.279321 
L 52.680714 141.763842 
L 50.729849 142.360532 
L 49.310446 142.916895 
L 47.81339 143.685823 
L 46.803108 144.403237 
L 46.04963 145.19908 
L 45.560816 146.696413 
L 45.661056 147.206151 
L 45.88343 147.688146 
L 46.530581 148.476411 
L 47.446977 149.185909 
L 48.418718 149.739476 
L 50.118464 150.465922 
L 51.874811 151.02899 
L 54.884676 151.728903 
L 57.041847 152.090966 
L 60.329859 152.487641 
L 66.092418 152.890774 
L 74.578551 153.177773 
L 87.71568 153.378974 
L 96.782098 153.315055 
L 103.959462 153.033302 
L 110.419273 152.53237 
L 117.013958 151.799041 
L 127.15977 150.419631 
L 136.938716 148.898083 
L 142.851256 147.7635 
L 146.067168 146.904276 
L 148.074833 146.116413 
L 149.766042 145.142098 
L 149.766042 145.142098 
" style="fill:none;stroke:#000000;stroke-linecap:square;stroke-opacity:0.7;stroke-width:1.2;"/>
   </g>
   <g id="line2d_4">
    <path clip-path="url(#p4da88be42c)" d="M 150.177306 109.697636 
L 149.256401 109.123526 
L 146.547281 107.790633 
L 142.775307 106.310073 
L 138.787214 104.97866 
L 133.072886 103.323712 
L 126.449299 101.673772 
L 119.538039 100.215108 
L 114.20556 99.27477 
L 107.492782 98.349213 
L 102.168336 97.857497 
L 97.310877 97.633587 
L 93.030455 97.636624 
L 88.347303 97.853756 
L 83.034246 98.321116 
L 76.183902 99.159433 
L 67.879256 100.421663 
L 59.445249 101.955264 
L 56.020193 102.669795 
L 49.779242 104.213908 
L 46.639811 105.239785 
L 46.066599 105.678929 
L 46.140125 105.909986 
L 46.429009 106.077843 
L 47.200984 106.284635 
L 49.052149 106.500135 
L 50.912411 106.583329 
L 55.6837 106.536716 
L 61.649345 106.197635 
L 64.095019 106.096027 
L 64.647201 106.135873 
L 65.496417 106.443473 
L 67.125243 108.333188 
L 68.977577 109.973822 
L 71.247635 111.442134 
L 72.698988 112.207355 
L 76.22847 113.706108 
L 78.10019 114.343327 
L 82.342124 115.476967 
L 84.681348 115.945216 
L 88.642843 116.521129 
L 92.591979 116.859197 
L 97.190605 117.00862 
L 102.213536 116.943866 
L 107.63011 116.693807 
L 115.004521 116.173001 
L 125.427237 115.203817 
L 133.498539 114.202747 
L 136.831154 113.652092 
L 140.371098 112.874588 
L 142.274 112.311682 
L 145.241916 111.081787 
L 147.274476 109.90251 
L 150.221949 107.729419 
L 150.221949 107.729419 
" style="fill:none;stroke:#000000;stroke-linecap:square;stroke-opacity:0.7;stroke-width:1.2;"/>
   </g>
   <g id="line2d_5">
    <path clip-path="url(#p4da88be42c)" d="M 150.164539 68.824819 
L 148.524203 68.409327 
L 145.55501 67.88505 
L 140.570682 67.298853 
L 132.072432 66.607783 
L 123.198005 65.838866 
L 117.573821 65.160864 
L 112.20375 64.308758 
L 107.456992 63.381362 
L 86.815202 59.013997 
L 74.241786 56.765291 
L 70.35793 56.229291 
L 68.411184 56.101131 
L 67.477369 56.112583 
L 65.427328 56.400344 
L 64.086321 56.787887 
L 60.288422 58.301814 
L 55.659271 60.537656 
L 53.305738 61.860253 
L 50.124414 63.979695 
L 48.831629 65.023612 
L 47.453077 66.364652 
L 46.235801 68.017328 
L 45.695127 69.408082 
L 45.632411 70.297214 
L 45.802717 71.081607 
L 46.377834 72.045477 
L 47.139787 72.755271 
L 48.084749 73.352937 
L 49.741666 74.070918 
L 52.199671 74.767957 
L 55.82491 75.418831 
L 60.104171 75.912176 
L 67.778436 76.466039 
L 76.522151 76.828134 
L 85.458601 76.975262 
L 93.788439 76.880629 
L 100.627504 76.571378 
L 105.911834 76.1465 
L 111.311195 75.531702 
L 118.145142 74.523487 
L 126.476761 73.035484 
L 134.976664 71.282335 
L 140.746686 69.915009 
L 144.917458 68.729695 
L 147.073865 67.963429 
L 149.132002 67.029847 
L 150.323969 66.359361 
L 150.323969 66.359361 
" style="fill:none;stroke:#000000;stroke-linecap:square;stroke-opacity:0.7;stroke-width:1.2;"/>
   </g>
   <g id="line2d_6">
    <path clip-path="url(#p4da88be42c)" d="M 280.984953 227.385359 
L 267.051703 225.45134 
L 251.035908 223.48075 
L 246.143314 222.684908 
L 239.922576 221.425387 
L 234.496292 220.084319 
L 221.130213 216.569397 
L 217.146988 215.851005 
L 213.452585 215.395965 
L 208.864776 215.061022 
L 203.10057 214.902889 
L 197.319375 214.981603 
L 194.054187 215.147584 
L 189.70852 215.604925 
L 186.995542 216.149506 
L 185.351806 216.638958 
L 183.161079 217.535913 
L 180.650209 219.010998 
L 178.959228 220.440857 
L 178.448192 220.999812 
L 177.28389 222.814114 
L 176.846682 224.313853 
L 176.826875 225.488486 
L 176.88578 225.886065 
L 177.274058 227.082715 
L 177.971041 228.230972 
L 178.61563 228.973858 
L 180.462645 230.451809 
L 182.486492 231.539387 
L 185.231315 232.548704 
L 186.612238 232.917972 
L 189.634708 233.483116 
L 193.412767 233.807614 
L 197.253034 233.788801 
L 241.772539 231.726797 
L 260.252375 230.388196 
L 267.458114 229.705656 
L 271.570456 229.137648 
L 274.012201 228.647358 
L 275.420702 228.267084 
L 277.709547 227.389304 
L 279.656891 226.267498 
L 280.998866 225.267763 
L 280.998866 225.267763 
" style="fill:none;stroke:#000000;stroke-linecap:square;stroke-opacity:0.7;stroke-width:1.2;"/>
   </g>
   <g id="line2d_7">
    <path clip-path="url(#p4da88be42c)" d="M 281.844818 189.225728 
L 279.348831 188.422958 
L 275.141375 187.39984 
L 271.084614 186.629698 
L 264.591956 185.682065 
L 256.621292 184.799479 
L 240.530012 183.123977 
L 233.546234 182.121334 
L 225.736543 180.714688 
L 217.367691 179.223815 
L 210.580635 178.261142 
L 205.392813 177.75165 
L 201.334952 177.529704 
L 196.970258 177.511011 
L 192.669254 177.779068 
L 190.34271 178.071651 
L 187.578649 178.580634 
L 185.972576 178.968302 
L 182.296214 180.177557 
L 180.626433 180.941763 
L 178.796698 182.093846 
L 177.846592 183.014319 
L 177.319838 183.920224 
L 177.191086 184.493776 
L 177.223851 185.07131 
L 177.48895 185.767909 
L 178.082152 186.527786 
L 179.092192 187.32295 
L 179.996627 187.835681 
L 182.761997 188.903021 
L 184.57252 189.376774 
L 187.444444 189.912221 
L 191.271809 190.359989 
L 196.021286 190.876761 
L 198.400428 191.433637 
L 203.868129 192.973688 
L 208.756688 194.052884 
L 213.008599 194.768146 
L 219.071422 195.488937 
L 224.049304 195.846488 
L 228.206527 195.994805 
L 234.9359 195.96827 
L 241.743656 195.660705 
L 249.012991 195.118525 
L 257.91873 194.253491 
L 265.266932 193.340454 
L 270.964586 192.377398 
L 274.103002 191.63566 
L 277.02265 190.648812 
L 279.033909 189.658224 
L 281.374792 188.039986 
L 281.838344 187.66324 
L 281.838344 187.66324 
" style="fill:none;stroke:#000000;stroke-linecap:square;stroke-opacity:0.7;stroke-width:1.2;"/>
   </g>
   <g id="line2d_8">
    <path clip-path="url(#p4da88be42c)" d="M 281.981776 148.693418 
L 279.859881 147.684104 
L 273.665472 145.042057 
L 266.547083 142.220057 
L 260.917595 140.179849 
L 256.083945 138.617827 
L 251.002154 137.207789 
L 246.312155 136.141727 
L 242.242897 135.410594 
L 237.441698 134.794496 
L 233.138075 134.496281 
L 229.366042 134.465567 
L 225.532282 134.683583 
L 223.781344 134.869773 
L 218.568628 135.729052 
L 214.391375 136.706649 
L 208.697356 138.366488 
L 204.719785 139.702249 
L 197.391979 142.412533 
L 191.872901 144.389292 
L 189.160626 145.1353 
L 182.453517 146.716938 
L 181.08916 147.222675 
L 180.196594 147.698739 
L 179.482423 148.454091 
L 179.452995 148.9191 
L 179.660868 149.293221 
L 180.49412 149.910016 
L 181.508418 150.345028 
L 182.705035 150.710737 
L 185.759938 151.324039 
L 189.116705 151.7185 
L 192.010237 151.907436 
L 196.759962 151.975276 
L 201.402057 151.799778 
L 210.37258 151.147957 
L 229.007751 149.762169 
L 240.446549 149.12485 
L 255.856811 148.55229 
L 275.797235 147.755277 
L 282.098236 147.456206 
L 282.098236 147.456206 
" style="fill:none;stroke:#000000;stroke-linecap:square;stroke-opacity:0.7;stroke-width:1.2;"/>
   </g>
   <g id="line2d_9">
    <path clip-path="url(#p4da88be42c)" d="M 281.746979 110.057258 
L 279.499953 108.859506 
L 276.230182 107.394815 
L 272.442724 105.92695 
L 265.495105 103.549527 
L 255.659469 100.201741 
L 249.652985 97.900224 
L 238.988654 93.655983 
L 236.155042 92.755346 
L 232.44136 91.846903 
L 228.555325 91.217114 
L 224.915752 90.884185 
L 220.7923 90.76 
L 216.853448 90.860853 
L 212.964542 91.155135 
L 208.754478 91.689506 
L 204.069081 92.563944 
L 199.865824 93.630793 
L 195.823347 94.946783 
L 193.596396 95.805563 
L 189.708109 97.555237 
L 186.398349 99.35118 
L 183.742213 101.103083 
L 181.977518 102.528385 
L 180.582721 103.93194 
L 179.712006 105.060424 
L 178.961794 106.44981 
L 178.588214 107.948813 
L 178.576845 108.471454 
L 178.831513 109.699971 
L 179.033731 110.142757 
L 179.876247 111.270352 
L 180.558343 111.867177 
L 181.285299 112.36146 
L 183.312932 113.328969 
L 186.288015 114.180242 
L 190.122319 114.76471 
L 193.525582 115.001593 
L 198.453947 115.067357 
L 206.426381 114.838239 
L 235.234775 113.75913 
L 256.072374 113.082703 
L 265.69991 112.557795 
L 270.620486 112.102572 
L 274.112651 111.581989 
L 277.021329 110.865188 
L 278.652887 110.235837 
L 280.444307 109.207128 
L 281.4979 108.379895 
L 281.4979 108.379895 
" style="fill:none;stroke:#000000;stroke-linecap:square;stroke-opacity:0.7;stroke-width:1.2;"/>
   </g>
   <g id="line2d_10">
    <path clip-path="url(#p4da88be42c)" d="M 282.717405 71.873041 
L 280.672961 71.187847 
L 276.693577 70.139801 
L 270.934594 68.964731 
L 263.469695 67.73271 
L 248.597068 65.366379 
L 240.7496 63.865279 
L 222.191643 60.073292 
L 216.252652 59.323983 
L 210.004628 58.844479 
L 204.773419 58.646038 
L 198.962037 58.653727 
L 194.232677 58.897195 
L 190.821032 59.277758 
L 189.714657 59.455061 
L 186.084201 60.31607 
L 184.788352 60.762198 
L 181.272283 62.423845 
L 179.539309 63.458878 
L 176.913277 65.328102 
L 175.62551 66.536664 
L 175.237079 67.002283 
L 174.51484 68.350926 
L 174.425173 69.283858 
L 174.759154 70.239237 
L 175.15917 70.759816 
L 175.787211 71.312091 
L 177.585827 72.298089 
L 179.933269 73.078944 
L 183.000681 73.722729 
L 186.553273 74.189877 
L 191.725501 74.792004 
L 193.171455 75.138933 
L 196.05969 75.945257 
L 199.777999 76.751627 
L 205.217774 77.544239 
L 210.468474 78.003748 
L 215.950052 78.223132 
L 220.618378 78.219375 
L 226.548884 77.981385 
L 232.450765 77.518484 
L 239.974094 76.681085 
L 248.315418 75.542259 
L 261.001133 73.565502 
L 272.921002 71.502353 
L 278.684381 70.376371 
L 282.701276 69.475264 
L 282.701276 69.475264 
" style="fill:none;stroke:#000000;stroke-linecap:square;stroke-opacity:0.7;stroke-width:1.2;"/>
   </g>
   <g id="line2d_11">
    <path clip-path="url(#p4da88be42c)" d="M 412.820048 226.627106 
L 410.936243 225.486178 
L 407.21851 223.551322 
L 403.202749 221.71667 
L 398.343201 219.791484 
L 394.694111 218.545537 
L 390.00115 217.175547 
L 384.869132 215.940281 
L 379.493213 214.88852 
L 374.293529 214.05977 
L 367.331427 213.198347 
L 362.860635 212.812315 
L 357.248206 212.578333 
L 353.452881 212.604647 
L 349.878262 212.766997 
L 344.822111 213.210969 
L 339.309337 213.96115 
L 334.429712 214.848205 
L 330.981596 215.603929 
L 325.635216 217.004379 
L 321.591669 218.273684 
L 318.168194 219.520066 
L 314.839514 220.936919 
L 312.617571 222.069327 
L 311.115921 223.001687 
L 309.52573 224.356074 
L 308.869014 225.294948 
L 308.625351 226.044558 
L 308.607084 226.509931 
L 308.705853 227.002947 
L 309.113421 227.758909 
L 309.641261 228.320879 
L 310.666247 229.050356 
L 311.3623 229.420032 
L 313.200794 230.150136 
L 315.094079 230.680384 
L 317.484679 231.152275 
L 321.404064 231.605266 
L 325.104505 231.766339 
L 328.866303 231.727303 
L 335.711246 231.366865 
L 343.466127 231.006983 
L 354.67303 230.759304 
L 372.57226 230.40091 
L 382.297929 229.952518 
L 393.533869 229.196979 
L 401.085017 228.513226 
L 405.526776 227.944801 
L 408.840338 227.293683 
L 411.085624 226.613715 
L 412.596715 226.01213 
L 412.596715 226.01213 
" style="fill:none;stroke:#000000;stroke-linecap:square;stroke-opacity:0.7;stroke-width:1.2;"/>
   </g>
   <g id="line2d_12">
    <path clip-path="url(#p4da88be42c)" d="M 413.800892 186.44417 
L 411.80997 185.591047 
L 408.654498 184.477571 
L 402.270435 182.614564 
L 395.184824 180.858194 
L 387.165535 179.091287 
L 375.403311 176.74987 
L 362.261079 174.348752 
L 352.816462 172.787556 
L 347.015955 172.06552 
L 343.631189 171.862263 
L 340.062046 171.918008 
L 336.697154 172.247962 
L 333.409795 172.808897 
L 330.138678 173.569145 
L 325.444113 174.964774 
L 322.417033 176.040504 
L 317.436096 178.116698 
L 310.070586 182.104256 
L 309.649447 182.383454 
L 306.604197 184.722079 
L 303.536461 187.700829 
L 302.249435 188.767197 
L 301.626702 189.696392 
L 301.684735 189.902071 
L 302.50009 190.463803 
L 303.693255 190.804227 
L 305.74297 191.137198 
L 307.724448 191.336937 
L 313.848161 191.627059 
L 321.195834 191.674666 
L 325.12943 191.774403 
L 326.25194 191.916345 
L 328.056713 192.414111 
L 330.835909 193.519143 
L 336.804951 195.555012 
L 340.07182 196.422876 
L 346.464391 197.717712 
L 350.329795 198.269178 
L 355.383673 198.751351 
L 360.552283 199.000221 
L 367.254959 199.051442 
L 374.692577 198.888481 
L 384.09695 198.453778 
L 390.896209 197.933959 
L 395.934653 197.346629 
L 399.242981 196.791417 
L 402.556756 195.989355 
L 404.461311 195.336152 
L 406.347163 194.451183 
L 406.827702 194.171028 
L 408.356894 193.066392 
L 409.821345 191.586441 
L 410.638639 190.519483 
L 412.892296 186.564166 
L 413.957135 184.266498 
L 413.957135 184.266498 
" style="fill:none;stroke:#000000;stroke-linecap:square;stroke-opacity:0.7;stroke-width:1.2;"/>
   </g>
   <g id="line2d_13">
    <path clip-path="url(#p4da88be42c)" d="M 413.36658 150.669042 
L 411.581209 149.479358 
L 409.899793 148.567635 
L 406.434695 147.04434 
L 402.821044 145.794616 
L 399.090626 144.757163 
L 394.428765 143.725834 
L 390.528016 143.038278 
L 385.637526 142.357957 
L 379.46783 141.744555 
L 373.499746 141.387506 
L 367.738177 141.259091 
L 362.120242 141.328922 
L 354.159827 141.648525 
L 343.182182 142.310136 
L 333.596887 143.136426 
L 326.371249 143.981958 
L 320.45032 144.884743 
L 315.339854 145.894835 
L 314.242383 146.151187 
L 309.537779 147.520954 
L 308.535408 147.932829 
L 307.571359 148.573604 
L 307.503308 148.783233 
L 307.641752 148.997355 
L 307.937647 149.153909 
L 308.61412 149.335697 
L 309.969413 149.514662 
L 312.812845 149.653573 
L 318.497988 149.613031 
L 325.922559 149.294384 
L 343.432582 148.374162 
L 353.027729 148.274244 
L 377.559261 148.135053 
L 405.041979 147.725793 
L 413.434083 147.618984 
L 413.434083 147.618984 
" style="fill:none;stroke:#000000;stroke-linecap:square;stroke-opacity:0.7;stroke-width:1.2;"/>
   </g>
   <g id="line2d_14">
    <path clip-path="url(#p4da88be42c)" d="M 412.623438 109.899326 
L 409.587844 109.5676 
L 402.030479 109.069986 
L 386.499957 108.07954 
L 377.293822 107.275813 
L 368.538729 106.291868 
L 360.393297 105.136655 
L 353.814794 103.985608 
L 345.925119 102.372337 
L 332.618152 99.606247 
L 327.634148 98.776913 
L 325.00718 98.483807 
L 322.355485 98.390242 
L 319.206225 98.71867 
L 316.979971 99.310629 
L 315.131662 100.029481 
L 313.712284 100.72743 
L 311.782146 101.930129 
L 310.881626 102.635476 
L 309.456254 104.129836 
L 308.942828 104.951618 
L 308.681978 105.5878 
L 308.537431 106.655855 
L 308.656766 107.313867 
L 308.956699 107.956544 
L 309.729565 108.829982 
L 311.158209 109.732691 
L 311.547018 109.910056 
L 312.898868 110.401005 
L 315.035105 110.924036 
L 317.689589 111.324845 
L 321.309001 111.621571 
L 325.796105 111.784269 
L 353.356204 112.228357 
L 361.370832 112.090493 
L 367.745903 111.771672 
L 374.557159 111.217359 
L 395.72889 109.243754 
L 409.29848 108.357172 
L 411.130361 107.996453 
L 412.409047 107.563429 
L 412.83356 107.372279 
L 412.83356 107.372279 
" style="fill:none;stroke:#000000;stroke-linecap:square;stroke-opacity:0.7;stroke-width:1.2;"/>
   </g>
   <g id="line2d_15">
    <path clip-path="url(#p4da88be42c)" d="M 412.436665 69.754163 
L 410.207596 69.457681 
L 405.355255 69.114906 
L 387.882855 68.106223 
L 368.470637 66.750497 
L 361.169226 66.556577 
L 341.071798 66.300515 
L 336.413052 65.891185 
L 333.317077 65.457591 
L 329.614146 64.684603 
L 327.162522 64.111945 
L 325.623543 64.130774 
L 323.52244 64.507429 
L 320.364205 65.322891 
L 318.07325 66.06143 
L 315.38808 67.201675 
L 314.237126 67.952934 
L 313.824348 68.444404 
L 313.783856 68.931749 
L 313.977193 69.192408 
L 314.55757 69.520505 
L 315.311197 69.741999 
L 317.47603 70.026788 
L 320.567458 70.110042 
L 325.516058 69.961557 
L 337.624649 69.483287 
L 346.523253 69.393429 
L 371.686499 69.289858 
L 380.638039 68.955741 
L 393.945309 68.200369 
L 408.251223 67.36886 
L 411.173595 67.430665 
L 412.604335 67.550397 
L 412.604335 67.550397 
" style="fill:none;stroke:#000000;stroke-linecap:square;stroke-opacity:0.7;stroke-width:1.2;"/>
   </g>
   <g id="line2d_16">
    <path clip-path="url(#p4da88be42c)" d="M 543.99299 227.518339 
L 541.867488 226.486828 
L 537.917813 224.86769 
L 533.667505 223.348736 
L 528.096954 221.624041 
L 524.006558 220.563983 
L 520.090213 219.741534 
L 516.628496 219.19253 
L 514.017654 218.898103 
L 509.762668 218.647048 
L 506.246792 218.649743 
L 501.386211 218.93347 
L 496.075873 219.530357 
L 489.858578 220.460884 
L 479.794514 222.208293 
L 462.740406 225.198714 
L 458.916608 225.663326 
L 452.897182 226.181126 
L 449.691007 226.83781 
L 447.825516 227.433296 
L 446.617272 228.01396 
L 446.074859 228.541378 
L 446.055125 228.797064 
L 446.310222 229.092859 
L 446.773525 229.311476 
L 447.97332 229.594331 
L 450.475676 229.847948 
L 455.098458 229.980323 
L 465.615616 229.922353 
L 477.952697 229.66405 
L 487.794972 229.261411 
L 499.251612 228.550286 
L 523.969179 226.677843 
L 540.287579 225.410038 
L 542.654001 225.421388 
L 544.099205 225.520953 
L 544.099205 225.520953 
" style="fill:none;stroke:#000000;stroke-linecap:square;stroke-opacity:0.7;stroke-width:1.2;"/>
   </g>
   <g id="line2d_17">
    <path clip-path="url(#p4da88be42c)" d="M 543.237375 188.367315 
L 539.240315 186.564981 
L 531.897085 183.496342 
L 525.559831 181.070917 
L 518.965165 178.822829 
L 513.279339 177.134241 
L 508.196133 175.824451 
L 502.093633 174.501593 
L 497.125716 173.643137 
L 492.743818 173.096041 
L 489.142551 172.845349 
L 484.957334 172.823179 
L 480.896883 173.072739 
L 477.324104 173.481312 
L 472.310054 174.296532 
L 467.825237 175.225328 
L 461.799884 176.736688 
L 456.90428 178.18861 
L 451.974722 179.888843 
L 448.131612 181.447474 
L 445.371771 182.784298 
L 443.237278 184.062939 
L 441.626732 185.348665 
L 440.811838 186.30411 
L 440.537785 186.791226 
L 440.336089 187.512417 
L 440.359012 187.981464 
L 440.691114 188.68968 
L 441.450925 189.34117 
L 442.53558 189.838084 
L 444.125236 190.243907 
L 446.477815 190.521627 
L 449.843513 190.576889 
L 453.086101 190.421676 
L 461.848671 189.661673 
L 470.755291 189.030666 
L 479.897038 188.623359 
L 494.381183 188.222489 
L 539.461638 187.113089 
L 543.173748 186.708462 
L 543.173748 186.708462 
" style="fill:none;stroke:#000000;stroke-linecap:square;stroke-opacity:0.7;stroke-width:1.2;"/>
   </g>
   <g id="line2d_18">
    <path clip-path="url(#p4da88be42c)" d="M 543.802685 150.549137 
L 542.819511 150.185746 
L 540.961077 149.751712 
L 538.357397 149.388111 
L 533.972372 149.078445 
L 527.546978 148.937728 
L 513.52051 148.771382 
L 508.014375 148.466919 
L 503.401139 148.006566 
L 498.965711 147.340279 
L 494.344554 146.391697 
L 488.173149 144.83621 
L 481.587565 143.186229 
L 475.873688 141.975258 
L 470.357786 141.058568 
L 465.476565 140.490608 
L 461.779853 140.250649 
L 458.550281 140.218569 
L 455.22776 140.426373 
L 453.486922 140.669665 
L 450.766331 141.30854 
L 448.749037 142.049378 
L 446.814958 143.036659 
L 446.131148 143.466818 
L 444.3454 144.886938 
L 444.007102 145.229244 
L 443.106256 146.374815 
L 442.398967 148.060334 
L 442.321525 148.855133 
L 442.348236 149.261644 
L 442.669058 150.375971 
L 443.481066 151.578958 
L 444.325844 152.356588 
L 445.50801 153.136175 
L 447.374703 153.994273 
L 449.433441 154.636625 
L 450.875036 154.959884 
L 454.496067 155.45442 
L 457.494788 155.62259 
L 463.135692 155.617322 
L 493.947215 154.791849 
L 502.671716 154.380495 
L 509.665681 153.819017 
L 517.69929 152.917851 
L 528.947057 151.390836 
L 539.210844 149.810755 
L 542.007064 149.199022 
L 543.918969 148.56393 
L 543.918969 148.56393 
" style="fill:none;stroke:#000000;stroke-linecap:square;stroke-opacity:0.7;stroke-width:1.2;"/>
   </g>
   <g id="line2d_19">
    <path clip-path="url(#p4da88be42c)" d="M 544.542684 111.02711 
L 540.725948 110.33798 
L 534.089632 109.407351 
L 515.035571 106.91283 
L 506.981068 105.587213 
L 499.967117 104.199341 
L 492.391196 102.43551 
L 481.615649 99.839475 
L 477.43903 99.096073 
L 472.994466 98.58065 
L 467.831301 98.295091 
L 463.05721 98.271911 
L 458.186856 98.478663 
L 456.676899 98.599793 
L 452.658048 99.12352 
L 449.642951 99.879625 
L 448.540629 100.32743 
L 447.357048 100.999849 
L 446.119852 101.961901 
L 444.441753 103.500056 
L 441.591997 106.624589 
L 441.127099 107.398265 
L 440.721975 108.546274 
L 440.688594 109.268269 
L 440.80665 109.808981 
L 441.262419 110.594378 
L 441.732111 111.049212 
L 442.512388 111.55557 
L 443.263716 111.897414 
L 445.298269 112.469322 
L 447.057336 112.728974 
L 450.328501 112.881775 
L 452.550658 112.817179 
L 456.626282 112.444699 
L 460.7854 111.805009 
L 465.953737 110.760794 
L 480.951653 107.5138 
L 486.583848 106.539891 
L 492.682147 105.711869 
L 498.643469 105.150377 
L 504.18754 104.83712 
L 528.338839 103.966394 
L 533.159723 104.042815 
L 535.968954 104.311489 
L 538.356408 104.800438 
L 540.605939 105.62314 
L 541.647874 106.156798 
L 543.706587 107.488098 
L 544.660846 108.203905 
L 544.660846 108.203905 
" style="fill:none;stroke:#000000;stroke-linecap:square;stroke-opacity:0.7;stroke-width:1.2;"/>
   </g>
   <g id="line2d_20">
    <path clip-path="url(#p4da88be42c)" d="M 544.940286 72.587214 
L 540.89889 70.428344 
L 535.092616 67.603689 
L 530.249987 65.475003 
L 524.69015 63.262841 
L 518.310532 60.983668 
L 511.964188 58.934305 
L 505.046384 56.898534 
L 499.732364 55.526024 
L 497.398663 55.029344 
L 493.441578 54.430746 
L 489.655419 54.18133 
L 485.767227 54.2011 
L 482.261125 54.389877 
L 476.792286 54.902159 
L 470.151859 55.774115 
L 463.914044 56.802286 
L 461.503477 57.259959 
L 455.091702 58.747246 
L 451.857855 59.785438 
L 448.557629 61.122567 
L 445.353357 62.720023 
L 444.304836 63.326863 
L 441.055479 65.620874 
L 440.379665 66.221902 
L 439.030478 67.69454 
L 438.067092 69.366363 
L 437.831909 70.322869 
L 437.882098 71.286485 
L 437.923098 71.445944 
L 438.42446 72.422276 
L 438.885215 72.921012 
L 440.046162 73.725087 
L 440.937258 74.14139 
L 442.778614 74.73687 
L 447.341153 75.507162 
L 450.810241 75.796229 
L 456.868835 76.07741 
L 468.066811 76.325851 
L 477.060246 76.295825 
L 484.991762 76.043454 
L 490.150635 75.74356 
L 498.495002 75.000429 
L 506.280665 74.02701 
L 521.266508 71.816392 
L 532.385231 70.310644 
L 539.233178 69.561921 
L 544.886057 68.991645 
L 544.886057 68.991645 
" style="fill:none;stroke:#000000;stroke-linecap:square;stroke-opacity:0.7;stroke-width:1.2;"/>
   </g>
   <g id="line2d_21">
    <path clip-path="url(#p4da88be42c)" d="M 675.490909 226.670324 
L 673.244315 226.31723 
L 668.260557 225.860207 
L 655.365203 224.842672 
L 650.852034 224.297538 
L 645.495932 223.41838 
L 641.488109 222.565225 
L 636.836811 221.351475 
L 632.261994 219.940406 
L 616.916486 214.891196 
L 613.593566 214.123949 
L 609.153373 213.431917 
L 605.159569 213.12227 
L 601.271045 213.073731 
L 597.295562 213.262557 
L 594.319331 213.570908 
L 591.37493 214.060739 
L 588.819963 214.729072 
L 581.076497 217.376077 
L 578.290172 218.665317 
L 576.316717 219.843164 
L 574.508127 221.280574 
L 573.185742 222.847085 
L 572.473044 224.49034 
L 572.383204 225.564454 
L 572.709385 226.871991 
L 573.365734 227.916311 
L 574.085944 228.65239 
L 575.24524 229.493317 
L 576.570632 230.184237 
L 578.478069 230.882997 
L 580.11814 231.291181 
L 582.042507 231.592771 
L 584.871833 231.741119 
L 587.109334 231.663338 
L 594.441643 231.025562 
L 606.206651 230.054439 
L 619.845801 229.160854 
L 634.17445 228.459836 
L 657.86025 227.385452 
L 664.426183 226.880707 
L 668.461305 226.39305 
L 671.66147 225.762756 
L 673.401629 225.243652 
L 675.411541 224.446662 
L 675.411541 224.446662 
" style="fill:none;stroke:#000000;stroke-linecap:square;stroke-opacity:0.7;stroke-width:1.2;"/>
   </g>
   <g id="line2d_22">
    <path clip-path="url(#p4da88be42c)" d="M 674.748468 189.866189 
L 672.706423 189.16528 
L 669.845493 188.411666 
L 665.5067 187.527521 
L 660.825774 186.789081 
L 655.519311 186.131783 
L 647.013284 185.336575 
L 635.164042 184.499753 
L 618.862744 183.541285 
L 612.132224 183.415362 
L 605.875224 183.538794 
L 598.317851 183.935309 
L 590.985499 184.543668 
L 587.644973 184.905767 
L 582.056443 185.719603 
L 580.147503 186.115981 
L 577.093575 187.036956 
L 576.221061 187.400783 
L 574.591848 188.283077 
L 573.951333 188.756358 
L 573.075843 189.767003 
L 572.881475 190.355956 
L 573.089557 191.236794 
L 573.617251 191.802537 
L 574.394936 192.280493 
L 575.571812 192.741564 
L 577.745192 193.245419 
L 580.170029 193.541552 
L 583.167567 193.686038 
L 586.439902 193.659994 
L 591.612919 193.355056 
L 596.197358 192.896505 
L 603.518162 191.919881 
L 612.627924 190.441818 
L 632.520327 187.079926 
L 637.72723 186.487779 
L 642.600202 186.139329 
L 649.22608 185.923324 
L 656.768794 185.910459 
L 665.593951 186.121453 
L 671.335709 186.479466 
L 674.880681 186.930218 
L 674.880681 186.930218 
" style="fill:none;stroke:#000000;stroke-linecap:square;stroke-opacity:0.7;stroke-width:1.2;"/>
   </g>
   <g id="line2d_23">
    <path clip-path="url(#p4da88be42c)" d="M 673.738127 150.057811 
L 671.669471 148.9267 
L 668.671382 147.590841 
L 665.020883 146.194615 
L 660.781995 144.784916 
L 655.924063 143.400854 
L 650.999411 142.234975 
L 646.313363 141.347452 
L 642.887512 140.838549 
L 638.981453 140.406146 
L 634.585564 140.111975 
L 630.370607 140.024058 
L 625.033219 140.184429 
L 619.947262 140.606751 
L 614.377256 141.321035 
L 601.633371 143.114751 
L 596.856518 143.493394 
L 591.939719 143.588362 
L 588.699043 143.455992 
L 579.098071 142.834976 
L 577.13705 143.066787 
L 575.573832 143.499519 
L 574.821628 143.928918 
L 574.58304 144.357113 
L 574.652071 144.581512 
L 575.008621 144.89817 
L 575.802409 145.225575 
L 576.713979 145.441447 
L 579.002342 145.705112 
L 582.10632 145.750895 
L 585.972867 145.520453 
L 589.495847 145.299499 
L 590.866404 145.414107 
L 591.780965 145.587755 
L 601.292311 147.951646 
L 606.571191 148.912554 
L 610.135178 149.418404 
L 615.517709 149.985049 
L 621.179768 150.347994 
L 627.396217 150.516293 
L 636.156745 150.49886 
L 655.636127 150.173113 
L 664.515544 149.826084 
L 669.437422 149.394928 
L 673.617354 148.749673 
L 673.617354 148.749673 
" style="fill:none;stroke:#000000;stroke-linecap:square;stroke-opacity:0.7;stroke-width:1.2;"/>
   </g>
   <g id="line2d_24">
    <path clip-path="url(#p4da88be42c)" d="M 674.891313 110.407472 
L 672.704858 109.355477 
L 670.202879 108.331084 
L 665.224261 106.614332 
L 660.335029 105.205895 
L 654.851479 103.857201 
L 647.62256 102.348536 
L 640.430871 101.056099 
L 627.506728 98.994022 
L 607.487109 95.959528 
L 602.225251 95.444736 
L 598.725197 95.319205 
L 594.866575 95.440686 
L 591.892213 95.738291 
L 588.76722 96.252789 
L 585.938698 96.909221 
L 582.54799 97.969279 
L 580.972357 98.583616 
L 577.51366 100.302446 
L 575.821476 101.39786 
L 573.992334 102.812415 
L 571.590134 105.012733 
L 570.965264 105.786044 
L 570.556835 106.578812 
L 570.469881 107.493276 
L 570.588327 107.897921 
L 571.11212 108.649934 
L 571.299381 108.825937 
L 572.440099 109.579267 
L 573.9705 110.217641 
L 576.267465 110.83257 
L 578.666737 111.226669 
L 581.616088 111.474558 
L 583.595612 111.519567 
L 586.626106 111.409111 
L 590.392062 110.933793 
L 593.213358 110.289557 
L 593.811141 110.142573 
L 596.544992 109.755836 
L 599.58369 109.747023 
L 611.348258 110.298744 
L 619.790887 110.581389 
L 627.195882 110.594501 
L 633.177158 110.377604 
L 638.885606 109.96081 
L 646.589835 109.138553 
L 663.25556 107.204489 
L 666.011326 107.058858 
L 668.912247 107.117149 
L 670.6559 107.335413 
L 671.535074 107.520694 
L 674.183878 108.446682 
L 675.228938 108.957044 
L 675.228938 108.957044 
" style="fill:none;stroke:#000000;stroke-linecap:square;stroke-opacity:0.7;stroke-width:1.2;"/>
   </g>
   <g id="line2d_25">
    <path clip-path="url(#p4da88be42c)" d="M 673.96578 71.20496 
L 672.275454 70.66224 
L 669.430747 69.974905 
L 665.214243 69.20984 
L 659.939531 68.511842 
L 651.471554 67.688676 
L 642.007111 66.758334 
L 634.687441 65.777293 
L 628.452196 64.71187 
L 617.190018 62.755826 
L 610.522684 61.863815 
L 604.021542 61.236585 
L 598.542544 60.926547 
L 593.672791 60.882947 
L 589.661642 61.106928 
L 587.008685 61.46561 
L 584.318687 62.095981 
L 582.253041 62.83311 
L 580.453988 63.709709 
L 578.785194 64.787382 
L 577.409815 65.990088 
L 576.84016 66.652657 
L 576.113027 67.936084 
L 575.93252 68.748933 
L 575.980316 69.442902 
L 576.371873 70.323983 
L 576.982194 70.984869 
L 577.801676 71.550224 
L 578.838182 72.045768 
L 580.33414 72.54506 
L 583.091822 73.1273 
L 586.402577 73.533691 
L 591.829202 73.885066 
L 601.029398 74.153239 
L 612.830623 74.26306 
L 623.386071 74.135147 
L 632.686651 73.792669 
L 641.498384 73.240432 
L 651.583079 72.364357 
L 660.777662 71.366221 
L 666.712392 70.556496 
L 670.611163 69.825959 
L 673.374398 69.071315 
L 674.197804 68.793246 
L 674.197804 68.793246 
" style="fill:none;stroke:#000000;stroke-linecap:square;stroke-opacity:0.7;stroke-width:1.2;"/>
   </g>
  </g>
 </g>
 <defs>
  <clipPath id="p4da88be42c">
   <rect height="262.08" width="694.08" x="12.96" y="12.96"/>
  </clipPath>
 </defs>
</svg>
