<svg viewBox="0 0 1496 400" xmlns="http://www.w3.org/2000/svg"><g><g><g><g><g><line x1="50" y1="378" x2="45" y2="378" style="visibility: inherit;" fill="rgb(0, 0, 0)" stroke="rgb(204, 204, 204)" stroke-width="1px"></line><line x1="50" y1="348.9230769230769" x2="45" y2="348.9230769230769" style="visibility: inherit;" fill="rgb(0, 0, 0)" stroke="rgb(204, 204, 204)" stroke-width="1px"></line><line x1="50" y1="319.8461538461538" x2="45" y2="319.8461538461538" style="visibility: inherit;" fill="rgb(0, 0, 0)" stroke="rgb(204, 204, 204)" stroke-width="1px"></line><line x1="50" y1="290.7692307692308" x2="45" y2="290.7692307692308" style="visibility: inherit;" fill="rgb(0, 0, 0)" stroke="rgb(204, 204, 204)" stroke-width="1px"></line><line x1="50" y1="261.6923076923077" x2="45" y2="261.6923076923077" style="visibility: inherit;" fill="rgb(0, 0, 0)" stroke="rgb(204, 204, 204)" stroke-width="1px"></line><line x1="50" y1="232.61538461538464" x2="45" y2="232.61538461538464" style="visibility: inherit;" fill="rgb(0, 0, 0)" stroke="rgb(204, 204, 204)" stroke-width="1px"></line><line x1="50" y1="203.53846153846155" x2="45" y2="203.53846153846155" style="visibility: inherit;" fill="rgb(0, 0, 0)" stroke="rgb(204, 204, 204)" stroke-width="1px"></line><line x1="50" y1="174.46153846153848" x2="45" y2="174.46153846153848" style="visibility: inherit;" fill="rgb(0, 0, 0)" stroke="rgb(204, 204, 204)" stroke-width="1px"></line><line x1="50" y1="145.38461538461542" x2="45" y2="145.38461538461542" style="visibility: inherit;" fill="rgb(0, 0, 0)" stroke="rgb(204, 204, 204)" stroke-width="1px"></line><line x1="50" y1="116.30769230769232" x2="45" y2="116.30769230769232" style="visibility: inherit;" fill="rgb(0, 0, 0)" stroke="rgb(204, 204, 204)" stroke-width="1px"></line><line x1="50" y1="87.23076923076928" x2="45" y2="87.23076923076928" style="visibility: inherit;" fill="rgb(0, 0, 0)" stroke="rgb(204, 204, 204)" stroke-width="1px"></line><line x1="50" y1="58.15384615384613" x2="45" y2="58.15384615384613" style="visibility: inherit;" fill="rgb(0, 0, 0)" stroke="rgb(204, 204, 204)" stroke-width="1px"></line><line x1="50" y1="29.076923076923038" x2="45" y2="29.076923076923038" style="visibility: inherit;" fill="rgb(0, 0, 0)" stroke="rgb(204, 204, 204)" stroke-width="1px"></line><line x1="50" y1="0" x2="45" y2="0" style="visibility: inherit;" fill="rgb(0, 0, 0)" stroke="rgb(204, 204, 204)" stroke-width="1px"></line></g><g transform="translate(40, 0)"><text x="0" y="378" dx="0em" dy="0.3em" style="text-anchor: end; visibility: hidden; font-family: &quot;Helvetica Neue&quot;, sans-serif; font-size: 12px; font-weight: 200;" fill="rgb(50, 49, 63)" stroke="none" stroke-width="1px">-0.1</text><text x="0" y="348.9230769230769" dx="0em" dy="0.3em" style="text-anchor: end; visibility: inherit; font-family: &quot;Helvetica Neue&quot;, sans-serif; font-size: 12px; font-weight: 200;" fill="rgb(50, 49, 63)" stroke="none" stroke-width="1px">0</text><text x="0" y="319.8461538461538" dx="0em" dy="0.3em" style="text-anchor: end; visibility: inherit; font-family: &quot;Helvetica Neue&quot;, sans-serif; font-size: 12px; font-weight: 200;" fill="rgb(50, 49, 63)" stroke="none" stroke-width="1px">0.1</text><text x="0" y="290.7692307692308" dx="0em" dy="0.3em" style="text-anchor: end; visibility: inherit; font-family: &quot;Helvetica Neue&quot;, sans-serif; font-size: 12px; font-weight: 200;" fill="rgb(50, 49, 63)" stroke="none" stroke-width="1px">0.2</text><text x="0" y="261.6923076923077" dx="0em" dy="0.3em" style="text-anchor: end; visibility: inherit; font-family: &quot;Helvetica Neue&quot;, sans-serif; font-size: 12px; font-weight: 200;" fill="rgb(50, 49, 63)" stroke="none" stroke-width="1px">0.3</text><text x="0" y="232.61538461538464" dx="0em" dy="0.3em" style="text-anchor: end; visibility: inherit; font-family: &quot;Helvetica Neue&quot;, sans-serif; font-size: 12px; font-weight: 200;" fill="rgb(50, 49, 63)" stroke="none" stroke-width="1px">0.4</text><text x="0" y="203.53846153846155" dx="0em" dy="0.3em" style="text-anchor: end; visibility: inherit; font-family: &quot;Helvetica Neue&quot;, sans-serif; font-size: 12px; font-weight: 200;" fill="rgb(50, 49, 63)" stroke="none" stroke-width="1px">0.5</text><text x="0" y="174.46153846153848" dx="0em" dy="0.3em" style="text-anchor: end; visibility: inherit; font-family: &quot;Helvetica Neue&quot;, sans-serif; font-size: 12px; font-weight: 200;" fill="rgb(50, 49, 63)" stroke="none" stroke-width="1px">0.6</text><text x="0" y="145.38461538461542" dx="0em" dy="0.3em" style="text-anchor: end; visibility: inherit; font-family: &quot;Helvetica Neue&quot;, sans-serif; font-size: 12px; font-weight: 200;" fill="rgb(50, 49, 63)" stroke="none" stroke-width="1px">0.7</text><text x="0" y="116.30769230769232" dx="0em" dy="0.3em" style="text-anchor: end; visibility: inherit; font-family: &quot;Helvetica Neue&quot;, sans-serif; font-size: 12px; font-weight: 200;" fill="rgb(50, 49, 63)" stroke="none" stroke-width="1px">0.8</text><text x="0" y="87.23076923076928" dx="0em" dy="0.3em" style="text-anchor: end; visibility: inherit; font-family: &quot;Helvetica Neue&quot;, sans-serif; font-size: 12px; font-weight: 200;" fill="rgb(50, 49, 63)" stroke="none" stroke-width="1px">0.9</text><text x="0" y="58.15384615384613" dx="0em" dy="0.3em" style="text-anchor: end; visibility: inherit; font-family: &quot;Helvetica Neue&quot;, sans-serif; font-size: 12px; font-weight: 200;" fill="rgb(50, 49, 63)" stroke="none" stroke-width="1px">1</text><text x="0" y="29.076923076923038" dx="0em" dy="0.3em" style="text-anchor: end; visibility: inherit; font-family: &quot;Helvetica Neue&quot;, sans-serif; font-size: 12px; font-weight: 200;" fill="rgb(50, 49, 63)" stroke="none" stroke-width="1px">1.1</text><text x="0" y="0" dx="0em" dy="0.3em" style="text-anchor: end; visibility: hidden; font-family: &quot;Helvetica Neue&quot;, sans-serif; font-size: 12px; font-weight: 200;" fill="rgb(50, 49, 63)" stroke="none" stroke-width="1px">1.2</text></g><line x1="50" y1="0" x2="50" y2="378" fill="rgb(0, 0, 0)" stroke="rgb(204, 204, 204)" stroke-width="1px"></line></g></g><g transform="translate(50, 0)" clip-path="url(#clip_0)"><clipPath id="clip_0"><rect width="1446" height="378"></rect></clipPath><g><g><g><line x1="0" y1="0" x2="0" y2="378" fill="rgb(0, 0, 0)" stroke="rgb(60, 60, 60)" stroke-width="1px" opacity="0.25"></line><line x1="120.5" y1="0" x2="120.5" y2="378" fill="rgb(0, 0, 0)" stroke="rgb(60, 60, 60)" stroke-width="1px" opacity="0.25"></line><line x1="241" y1="0" x2="241" y2="378" fill="rgb(0, 0, 0)" stroke="rgb(60, 60, 60)" stroke-width="1px" opacity="0.25"></line><line x1="361.5" y1="0" x2="361.5" y2="378" fill="rgb(0, 0, 0)" stroke="rgb(60, 60, 60)" stroke-width="1px" opacity="0.25"></line><line x1="482" y1="0" x2="482" y2="378" fill="rgb(0, 0, 0)" stroke="rgb(60, 60, 60)" stroke-width="1px" opacity="0.25"></line><line x1="602.5" y1="0" x2="602.5" y2="378" fill="rgb(0, 0, 0)" stroke="rgb(60, 60, 60)" stroke-width="1px" opacity="0.25"></line><line x1="723" y1="0" x2="723" y2="378" fill="rgb(0, 0, 0)" stroke="rgb(60, 60, 60)" stroke-width="1px" opacity="0.25"></line><line x1="843.5" y1="0" x2="843.5" y2="378" fill="rgb(0, 0, 0)" stroke="rgb(60, 60, 60)" stroke-width="1px" opacity="0.25"></line><line x1="964" y1="0" x2="964" y2="378" fill="rgb(0, 0, 0)" stroke="rgb(60, 60, 60)" stroke-width="1px" opacity="0.25"></line><line x1="1084.5" y1="0" x2="1084.5" y2="378" fill="rgb(0, 0, 0)" stroke="rgb(60, 60, 60)" stroke-width="1px" opacity="0.25"></line><line x1="1205" y1="0" x2="1205" y2="378" fill="rgb(0, 0, 0)" stroke="rgb(60, 60, 60)" stroke-width="1px" opacity="0.25"></line><line x1="1325.5" y1="0" x2="1325.5" y2="378" fill="rgb(0, 0, 0)" stroke="rgb(60, 60, 60)" stroke-width="1px" opacity="0.25"></line><line x1="1446" y1="0" x2="1446" y2="378" fill="rgb(0, 0, 0)" stroke="rgb(60, 60, 60)" stroke-width="1px" opacity="0.25"></line></g><g><line x1="0" y1="378" x2="1446" y2="378" fill="rgb(0, 0, 0)" stroke="rgb(60, 60, 60)" stroke-width="1px" opacity="0.25"></line><line x1="0" y1="348.9230769230769" x2="1446" y2="348.9230769230769" fill="rgb(0, 0, 0)" stroke="rgb(60, 60, 60)" stroke-width="1px" opacity="0.25"></line><line x1="0" y1="319.8461538461538" x2="1446" y2="319.8461538461538" fill="rgb(0, 0, 0)" stroke="rgb(60, 60, 60)" stroke-width="1px" opacity="0.25"></line><line x1="0" y1="290.7692307692308" x2="1446" y2="290.7692307692308" fill="rgb(0, 0, 0)" stroke="rgb(60, 60, 60)" stroke-width="1px" opacity="0.25"></line><line x1="0" y1="261.6923076923077" x2="1446" y2="261.6923076923077" fill="rgb(0, 0, 0)" stroke="rgb(60, 60, 60)" stroke-width="1px" opacity="0.25"></line><line x1="0" y1="232.61538461538464" x2="1446" y2="232.61538461538464" fill="rgb(0, 0, 0)" stroke="rgb(60, 60, 60)" stroke-width="1px" opacity="0.25"></line><line x1="0" y1="203.53846153846155" x2="1446" y2="203.53846153846155" fill="rgb(0, 0, 0)" stroke="rgb(60, 60, 60)" stroke-width="1px" opacity="0.25"></line><line x1="0" y1="174.46153846153848" x2="1446" y2="174.46153846153848" fill="rgb(0, 0, 0)" stroke="rgb(60, 60, 60)" stroke-width="1px" opacity="0.25"></line><line x1="0" y1="145.38461538461542" x2="1446" y2="145.38461538461542" fill="rgb(0, 0, 0)" stroke="rgb(60, 60, 60)" stroke-width="1px" opacity="0.25"></line><line x1="0" y1="116.30769230769232" x2="1446" y2="116.30769230769232" fill="rgb(0, 0, 0)" stroke="rgb(60, 60, 60)" stroke-width="1px" opacity="0.25"></line><line x1="0" y1="87.23076923076928" x2="1446" y2="87.23076923076928" fill="rgb(0, 0, 0)" stroke="rgb(60, 60, 60)" stroke-width="1px" opacity="0.25"></line><line x1="0" y1="58.15384615384613" x2="1446" y2="58.15384615384613" fill="rgb(0, 0, 0)" stroke="rgb(60, 60, 60)" stroke-width="1px" opacity="0.25"></line><line x1="0" y1="29.076923076923038" x2="1446" y2="29.076923076923038" fill="rgb(0, 0, 0)" stroke="rgb(60, 60, 60)" stroke-width="1px" opacity="0.25"></line><line x1="0" y1="0" x2="1446" y2="0" fill="rgb(0, 0, 0)" stroke="rgb(60, 60, 60)" stroke-width="1px" opacity="0.25"></line></g></g></g><g><g><line x1="0" y1="348.9230769230769" x2="1446" y2="348.9230769230769" fill="rgb(0, 0, 0)" stroke="rgb(153, 153, 153)" stroke-width="1.5px"></line></g></g><g><g><line x1="120.5" y1="0" x2="120.5" y2="378" fill="rgb(0, 0, 0)" stroke="rgb(153, 153, 153)" stroke-width="1.5px"></line></g></g><g><g><g><g><g><path stroke="rgb(255, 112, 67)" stroke-width="2px" d="M120.5,43.397580000070434L122.91000000000001,67.0571072101593L125.32000000000001,94.70948217465332L127.73,105.36950265444244L130.14,104.24756763531616L132.54999999999998,121.11134197161749L134.96,122.1155115090884L137.37,116.49597496252795L139.78,135.4701344600091L142.19,142.2143096923828L144.6,148.22450874401972L147.01,152.2295229985164L149.42,158.34402119196378L151.82999999999998,170.59275781191312L154.24,175.84229063987732L156.65,181.0032783838419L159.06,193.06445679297815L161.47,199.0279829318707L163.88,211.1839543214211L166.29000000000002,221.44559124799878L168.7,231.72698573882764L171.10999999999999,243.4224239037587L173.51999999999998,245.03481445862698L175.93,250.14232679513785L178.34,254.1991093342121L180.75,260.44771632781396L183.16000000000003,266.83065742712756L185.57,274.37498801488147L187.98000000000002,279.73180961608887L190.39,282.49284256421606L192.8,285.79756381878485L195.21,288.71771015112216L197.61999999999998,292.9517778341587L200.03,295.483757353746L202.44000000000003,298.04480129021863L204.85,300.3574545154205L207.26000000000002,301.5314481166693L209.67,302.5910254900272L212.08,302.7871756416101L214.49,307.8604891942098L216.9,308.8236227906667L219.31,308.36820660187647L221.71999999999997,308.6529581638483L224.13,308.6432873560832L226.54000000000002,311.218313235503L228.95,311.58521900268704L231.36,313.84986697939723L233.76999999999998,313.4040392751877L236.18,315.20637757961566L238.59,314.4776115898903L241,314.0264393778948L243.41,313.2427443265915L245.82000000000002,316.6364569434753L248.23,316.872325865122L250.64000000000001,318.10192661102L253.04999999999998,317.5971598395935L255.46,318.07226860064725L257.87,316.4961349092997L260.28,316.72823212926204L262.69,316.25060384548624L265.09999999999997,320.9209757401393L267.51,320.0694658825031L269.92,317.9220201235551L272.33,319.1847906135596L274.74,320.6241096716661L277.15000000000003,320.4855922483481L279.56,318.24937826624284L281.97,319.7150190793551L284.38,318.7027970346121L286.79,318.5566495519418L289.2,320.8974833029967L291.61,319.9565033087364L294.02,320.6481653727018L296.43,318.9001343731697L298.84,321.20124285496195L301.25,319.3354355417765L303.65999999999997,322.38377640339047L306.07,323.53947909290974L308.48,322.38602512616376L310.89,320.22382401961545L313.3,322.2121108999619L315.71,321.55724946581404L318.12,322.62507865520627L320.53000000000003,322.0625795011337L322.94,320.7558159346764L325.35,321.44292639310544L327.76,323.6531175833482L330.17,321.1350810115154L332.58000000000004,322.2602699628243L334.99,323.9269049970003L337.4,322.6520871588817L339.81,324.24077080304806L342.21999999999997,322.244966516128L344.63,324.0960509777069L347.03999999999996,323.1722635305845L349.45,323.51305984992246L351.86,323.88841674190303L354.27,323.9108238128515L356.68,323.23380444370787L359.09,323.09924936523805L361.5,323.9968017133383L363.90999999999997,324.8795293890513L366.32000000000005,325.1729898773707L368.73,324.619182318449L371.14,325.15113523831735L373.55,324.48766019940376L375.96000000000004,325.11005813571126L378.37,323.4667400603111L380.78,325.0022277625708L383.19,324.62726732171495L385.6,322.47846323022475L388.01,323.7098122605911L390.42,325.9730499111689L392.83,324.5932591809676L395.23999999999995,324.2040763268104L397.65000000000003,324.1816779214602L400.06,325.1772945133539L402.46999999999997,325.5807171120093L404.88000000000005,323.1625082332354L407.29,324.8778006021793L409.7,323.8191222846508L412.10999999999996,324.5085399586421L414.52000000000004,324.2257879834909L416.93,325.8498922609366L419.34,324.9522034296623L421.75,325.94936899726207L424.16,325.17111377532666L426.57,325.11220720410347L428.98,325.23966732391943L431.39,325.3701842335554L433.8,325.1354353404962L436.21000000000004,324.8767628967762L438.62,325.99909653342684L441.03,325.9566199366863L443.43999999999994,325.4557721821161L445.85,325.61854461523205L448.26,326.343586564064L450.66999999999996,325.0483720738154L453.08000000000004,326.5545332248394L455.49,325.7704460552105L457.9,326.3787732261878L460.31000000000006,325.42282990996654L462.72,324.06233313450446L465.13,322.39482937409326L467.53999999999996,322.79799633759717L469.95,323.86423538969115L472.36,325.7402031169488L474.77,324.56825892971113L477.18,326.6955073452913L479.59,325.72426708157246L482,325.9797180891037L484.41,324.6509114068288L486.82,322.7044620353442L489.22999999999996,324.0148413227155L491.64000000000004,322.2776098251343L494.05,324.18677112689386L496.46,324.9732478352694L498.86999999999995,323.3466825278906L501.28000000000003,326.41993698477745L503.69,325.9572048645753L506.09999999999997,325.53142285576234L508.51000000000005,326.5616238506941L510.92,326.5603196781415L513.3299999999999,326.56062080768436L515.74,325.4155009801571L518.15,326.3953873446354L520.56,324.5997323829394L522.97,325.9845708241829L525.38,325.5469797712106L527.79,326.319426875848L530.1999999999999,325.55224628861134L532.61,326.19055642989963L535.02,325.5269189110169L537.43,324.72974452147116L539.84,327.06426321772426L542.25,326.96362962401827L544.66,325.78954286758716L547.07,326.5565978036477L549.48,326.55676461641605L551.89,327.07231572499643L554.3000000000001,326.3780453159259L556.71,326.1853137428944L559.12,325.87740986851543L561.53,327.2280213626532L563.94,324.8682727767871L566.35,326.8905244698891L568.76,327.25868674883475L571.1700000000001,327.4940920609694L573.58,326.5693340668312L575.99,325.9159089556107L578.4,326.1599971972979L580.8100000000001,326.3892975953909L583.22,327.6730323342176L585.63,325.2175592161142L588.04,325.7215439172892L590.45,327.68196656612247L592.86,325.78148169471666L595.27,325.39295092683574L597.68,326.93269993708685L600.0899999999999,326.93158424129854L602.5,326.3679325626447L604.91,326.3477720480699L607.3199999999999,327.39431636150067L609.73,326.240491940425L612.14,327.49475714564323L614.55,326.9696847108694L616.96,326.2890192912175L619.37,326.0901048137591L621.78,325.9505670162348L624.1899999999999,326.59482392439475L626.6,326.39195360128696L629.01,328.02107959297985L631.42,325.85080431516354L633.83,327.0828444269987L636.24,326.92710196054895L638.65,327.09189997728055L641.0600000000001,326.35288908389896L643.47,325.28413700828185L645.88,326.8193495777937L648.29,326.06104256327336L650.7,326.56473046770463L653.11,326.2175887639706L655.52,326.98210467971285L657.9300000000001,326.2627603617998L660.34,326.80889669977705L662.75,327.20841761277273L665.1600000000001,327.8483200577589L667.57,327.85355407916586L669.98,324.5725852296903L672.39,327.16198083758354L674.8,327.56517163148294L677.21,326.3925081995817L679.62,327.15529532845204L682.03,327.25976344943047L684.4399999999999,325.3117607694406L686.85,325.4778932883189L689.26,326.8852709508859L691.67,327.67160034408937L694.0799999999999,326.55376415298537L696.49,327.57766742431204L698.9,326.8907541082456L701.31,327.25396833053003L703.72,327.7298678274338L706.13,327.4688405073606L708.54,326.51970835144704L710.9499999999999,327.24480879306793L713.36,326.8976064301454L715.77,326.9515497799103L718.18,325.43086941884116L720.59,327.85532402763L723,327.1774835930421L725.4100000000001,326.7719400891891L727.8199999999999,327.1255376636982L730.23,327.10099452275495L732.6400000000001,325.4535386241399L735.05,327.8614354408704L737.46,327.5482737146891L739.8700000000001,327.8537577207272L742.28,325.656755571182L744.69,327.96273411925023L747.1,327.9746211537948L749.51,327.36089964784105L751.9200000000001,327.91464654757425L754.3299999999999,327.8965462790086L756.74,326.8079196535624L759.15,326.6690534399106L761.56,326.80620819788714L763.97,326.93124195016344L766.38,327.9733538100353L768.79,325.3846492836109L771.2,327.92225061013147L773.61,327.18900883885533L776.02,327.2952230779024L778.43,327.3994463957273L780.84,327.52508890628815L783.25,328.2452152944528L785.66,327.97184382952173L788.07,327.1228188322141L790.4799999999999,327.48548062260335L792.89,327.4810373370464L795.3000000000001,324.97375693917274L797.7099999999999,327.58690928495844L800.12,327.61311188798686L802.5300000000001,327.50801334472806L804.9399999999999,328.07267889838954L807.35,328.1609726800368L809.7600000000001,327.7552038706266L812.17,326.08757879183844L814.58,326.1420355783059L816.9899999999999,327.66468086380223L819.4,326.47848826646805L821.8100000000001,325.8113108506569L824.2199999999999,327.62999030718436L826.63,327.7949226406904L829.0400000000001,327.96979224911104L831.4499999999999,326.99822702545384L833.86,326.9969661808931L836.2700000000001,326.8597377653305L838.68,327.8747176367503L841.09,326.2628210209883L843.5,327.2226985188631L845.91,327.6147496860761L848.32,327.8980389283254L850.73,328.3402227484263L853.14,328.26860374441515L855.55,327.20746656335314L857.96,327.3725678760272L860.37,326.8725086909074L862.78,326.2450218819655L865.19,327.1382305988899L867.6,327.1207304230103L870.01,327.2197153866291L872.4200000000001,326.4905767761744L874.8299999999999,326.1399753322968L877.24,327.79817007367427L879.65,326.0354963793204L882.06,327.8630645733613L884.47,327.65225222936044L886.8799999999999,326.8255909750095L889.29,326.86518842669636L891.7,327.2844257423511L894.1099999999999,327.79478615751634L896.52,325.82517797442586L898.9300000000001,327.48340304539755L901.3399999999999,327.9487391779056L903.75,328.1654506279872L906.1600000000001,326.8679072581805L908.5699999999999,327.73781634752567L910.98,327.7532757749924L913.3900000000001,327.9905983507633L915.8,327.81508315526526L918.21,327.6506685912609L920.6200000000001,328.3164920073289L923.03,328.2636296909589L925.44,327.8882619669804L927.85,327.4107030079915L930.26,327.8156919135497L932.6700000000001,327.7094733417034L935.0799999999999,327.24567102010434L937.49,328.0395828118691L939.9,326.84653572623546L942.31,328.3045703103909L944.72,327.10156428584685L947.13,326.1134867645227L949.54,326.94703716956656L951.95,327.58529098446553L954.36,326.7307243370093L956.77,326.4747923887693L959.18,326.32461540286357L961.59,327.9147310371582L964,327.0218234497767L966.41,327.3333625426659L968.82,328.15263637441853L971.2299999999999,327.9102834188021L973.64,327.60562697740704L976.0500000000001,327.1152624304478L978.4599999999999,327.9374219064529L980.87,327.6790267618803L983.2800000000001,327.4749909157936L985.6899999999999,327.61529995157167L988.1,328.0661082084362L990.5100000000001,327.9235981106758L992.92,327.72403371334076L995.33,327.5784451617644L997.7399999999999,328.37929159861346L1000.15,328.1569496760002L1002.5600000000001,327.6414375626124L1004.9699999999999,327.5519609267895L1007.38,328.1890817147035L1009.7900000000001,328.32519443447774L1012.1999999999999,327.4931323459515L1014.61,327.9184225820578L1017.0200000000001,328.0284605163794L1019.43,327.7741468686324L1021.84,328.1119362253409L1024.25,328.34467686598117L1026.6599999999999,327.6987561629369L1029.07,328.3833081034513L1031.48,327.3742143397148L1033.8899999999999,326.5216906070709L1036.3,328.1094925266046L1038.71,328.2034644415745L1041.12,328.552005639443L1043.53,325.7060433282302L1045.94,327.7188863479174L1048.35,328.4292942675261L1050.76,328.3507254536335L1053.17,328.54672395724515L1055.58,328.1666074853677L1057.99,328.5156317903445L1060.3999999999999,327.73137347514813L1062.81,326.84857647464827L1065.22,328.54510349035263L1067.6299999999999,328.2277671121634L1070.04,327.9196054362334L1072.45,327.1929495197076L1074.86,328.13318427250937L1077.27,327.83260716154024L1079.68,328.0923758034523L1082.09,328.413340900953L1084.5,328.1850825410623L1086.91,326.99287168566997L1089.32,328.51351738434573L1091.73,328.19476851362447L1094.14,327.55359222567995L1096.55,327.70578396320343L1098.96,328.02375293007265L1101.3700000000001,328.4111420053702L1103.78,328.18379353330687L1106.19,328.4748753148776L1108.6000000000001,327.7255068650612L1111.01,328.3377725504912L1113.42,328.54743453631033L1115.83,326.8898853820104L1118.24,328.09601102196257L1120.65,327.69681506890515L1123.06,327.15576110436365L1125.47,327.7902757135721L1127.88,328.01752453125437L1130.29,328.399057828463L1132.7,328.0570959861462L1135.1100000000001,328.4321149197908L1137.52,328.23152581545025L1139.93,327.9585508016439L1142.3400000000001,328.1971992139633L1144.75,328.11251682043076L1147.16,328.3261303191002L1149.5700000000002,328.28315328405455L1151.98,328.28747525123447L1154.39,328.2824838665815L1156.8,328.0814159879318L1159.21,328.62516278716237L1161.6200000000001,328.52782862003033L1164.03,328.0951162989323L1166.44,328.6277148058781L1168.85,328.3612519892363L1171.26,327.2422611071513L1173.67,328.07117108427565L1176.08,327.8206009750183L1178.49,327.7142220896024L1180.9,327.6978527743083L1183.31,327.53815446220915L1185.72,328.2493336200714L1188.1299999999999,328.5690963658003L1190.54,326.8106384850465L1192.95,327.0423392538841L1195.36,328.1272440048365L1197.77,327.5067525001673L1200.1799999999998,328.456168454427L1202.59,328.1988435112513L1205,327.5622664896341L1207.4099999999999,327.54811123471995L1209.82,328.3967484465012L1212.23,327.9687827069026L1214.6399999999999,328.1236542807176L1217.05,327.96988107149417L1219.46,328.21484020581613L1221.87,327.72154452021306L1224.28,328.00666653651456L1226.69,328.4551675778169L1229.1,328.5407078655867L1231.51,327.9995000866743L1233.92,328.0098814735046L1236.33,327.98108569016824L1238.74,326.6460137802821L1241.1499999999999,328.2608155378929L1243.56,327.7618698821618L1245.97,327.8867714840632L1248.3799999999999,327.96136928750917L1250.79,328.1280390734856L1253.2,327.2547482343821L1255.61,328.70506610320166L1258.02,328.1587629524561L1260.43,328.0823778693493L1262.84,328.2256700373613L1265.25,327.6363703539738L1267.66,328.6397989827853L1270.07,327.9535030906017L1272.48,328.2863335586511L1274.89,328.5094532187168L1277.3,328.4376132419476L1279.71,328.500324010849L1282.1200000000001,328.40984216561685L1284.53,327.67356526851654L1286.94,328.02132006333426L1289.3500000000001,328.0043788185486L1291.76,328.4401435966675L1294.17,328.3987328685247L1296.58,328.5458054038195L1298.99,328.05068560976247L1301.4,327.89868451540286L1303.81,327.94327768454184L1306.22,328.69721073829214L1308.63,326.8920106200071L1311.04,327.8438507754069L1313.45,328.6771108829058L1315.8600000000001,328.34744335825627L1318.27,328.57715970507036L1320.68,328.3582580250043L1323.0900000000001,328.6559343269238" style="fill: none;" fill="none"></path></g></g></g></g></g></g><g transform="translate(50, 378)" clip-path="url(#clip_1)"><clipPath id="clip_1"><rect width="1446" height="22"></rect></clipPath><g><g><line x1="0" y1="0" x2="0" y2="5" style="visibility: inherit;" fill="rgb(0, 0, 0)" stroke="rgb(204, 204, 204)" stroke-width="1px"></line><line x1="120.5" y1="0" x2="120.5" y2="5" style="visibility: inherit;" fill="rgb(0, 0, 0)" stroke="rgb(204, 204, 204)" stroke-width="1px"></line><line x1="241" y1="0" x2="241" y2="5" style="visibility: inherit;" fill="rgb(0, 0, 0)" stroke="rgb(204, 204, 204)" stroke-width="1px"></line><line x1="361.5" y1="0" x2="361.5" y2="5" style="visibility: inherit;" fill="rgb(0, 0, 0)" stroke="rgb(204, 204, 204)" stroke-width="1px"></line><line x1="482" y1="0" x2="482" y2="5" style="visibility: inherit;" fill="rgb(0, 0, 0)" stroke="rgb(204, 204, 204)" stroke-width="1px"></line><line x1="602.5" y1="0" x2="602.5" y2="5" style="visibility: inherit;" fill="rgb(0, 0, 0)" stroke="rgb(204, 204, 204)" stroke-width="1px"></line><line x1="723" y1="0" x2="723" y2="5" style="visibility: inherit;" fill="rgb(0, 0, 0)" stroke="rgb(204, 204, 204)" stroke-width="1px"></line><line x1="843.5" y1="0" x2="843.5" y2="5" style="visibility: inherit;" fill="rgb(0, 0, 0)" stroke="rgb(204, 204, 204)" stroke-width="1px"></line><line x1="964" y1="0" x2="964" y2="5" style="visibility: inherit;" fill="rgb(0, 0, 0)" stroke="rgb(204, 204, 204)" stroke-width="1px"></line><line x1="1084.5" y1="0" x2="1084.5" y2="5" style="visibility: inherit;" fill="rgb(0, 0, 0)" stroke="rgb(204, 204, 204)" stroke-width="1px"></line><line x1="1205" y1="0" x2="1205" y2="5" style="visibility: inherit;" fill="rgb(0, 0, 0)" stroke="rgb(204, 204, 204)" stroke-width="1px"></line><line x1="1325.5" y1="0" x2="1325.5" y2="5" style="visibility: inherit;" fill="rgb(0, 0, 0)" stroke="rgb(204, 204, 204)" stroke-width="1px"></line><line x1="1446" y1="0" x2="1446" y2="5" style="visibility: inherit;" fill="rgb(0, 0, 0)" stroke="rgb(204, 204, 204)" stroke-width="1px"></line></g><g transform="translate(0, 8)"><text x="0" y="0" dx="0em" dy="0.95em" style="text-anchor: middle; visibility: hidden; font-family: &quot;Helvetica Neue&quot;, sans-serif; font-size: 12px; font-weight: 200;" fill="rgb(50, 49, 63)" stroke="none" stroke-width="1px">-50</text><text x="120.5" y="0" dx="0em" dy="0.95em" style="text-anchor: middle; visibility: inherit; font-family: &quot;Helvetica Neue&quot;, sans-serif; font-size: 12px; font-weight: 200;" fill="rgb(50, 49, 63)" stroke="none" stroke-width="1px">0</text><text x="241" y="0" dx="0em" dy="0.95em" style="text-anchor: middle; visibility: inherit; font-family: &quot;Helvetica Neue&quot;, sans-serif; font-size: 12px; font-weight: 200;" fill="rgb(50, 49, 63)" stroke="none" stroke-width="1px">50</text><text x="361.5" y="0" dx="0em" dy="0.95em" style="text-anchor: middle; visibility: inherit; font-family: &quot;Helvetica Neue&quot;, sans-serif; font-size: 12px; font-weight: 200;" fill="rgb(50, 49, 63)" stroke="none" stroke-width="1px">100</text><text x="482" y="0" dx="0em" dy="0.95em" style="text-anchor: middle; visibility: inherit; font-family: &quot;Helvetica Neue&quot;, sans-serif; font-size: 12px; font-weight: 200;" fill="rgb(50, 49, 63)" stroke="none" stroke-width="1px">150</text><text x="602.5" y="0" dx="0em" dy="0.95em" style="text-anchor: middle; visibility: inherit; font-family: &quot;Helvetica Neue&quot;, sans-serif; font-size: 12px; font-weight: 200;" fill="rgb(50, 49, 63)" stroke="none" stroke-width="1px">200</text><text x="723" y="0" dx="0em" dy="0.95em" style="text-anchor: middle; visibility: inherit; font-family: &quot;Helvetica Neue&quot;, sans-serif; font-size: 12px; font-weight: 200;" fill="rgb(50, 49, 63)" stroke="none" stroke-width="1px">250</text><text x="843.5" y="0" dx="0em" dy="0.95em" style="text-anchor: middle; visibility: inherit; font-family: &quot;Helvetica Neue&quot;, sans-serif; font-size: 12px; font-weight: 200;" fill="rgb(50, 49, 63)" stroke="none" stroke-width="1px">300</text><text x="964" y="0" dx="0em" dy="0.95em" style="text-anchor: middle; visibility: inherit; font-family: &quot;Helvetica Neue&quot;, sans-serif; font-size: 12px; font-weight: 200;" fill="rgb(50, 49, 63)" stroke="none" stroke-width="1px">350</text><text x="1084.5" y="0" dx="0em" dy="0.95em" style="text-anchor: middle; visibility: inherit; font-family: &quot;Helvetica Neue&quot;, sans-serif; font-size: 12px; font-weight: 200;" fill="rgb(50, 49, 63)" stroke="none" stroke-width="1px">400</text><text x="1205" y="0" dx="0em" dy="0.95em" style="text-anchor: middle; visibility: inherit; font-family: &quot;Helvetica Neue&quot;, sans-serif; font-size: 12px; font-weight: 200;" fill="rgb(50, 49, 63)" stroke="none" stroke-width="1px">450</text><text x="1325.5" y="0" dx="0em" dy="0.95em" style="text-anchor: middle; visibility: inherit; font-family: &quot;Helvetica Neue&quot;, sans-serif; font-size: 12px; font-weight: 200;" fill="rgb(50, 49, 63)" stroke="none" stroke-width="1px">500</text><text x="1446" y="0" dx="0em" dy="0.95em" style="text-anchor: middle; visibility: hidden; font-family: &quot;Helvetica Neue&quot;, sans-serif; font-size: 12px; font-weight: 200;" fill="rgb(50, 49, 63)" stroke="none" stroke-width="1px">550</text></g><line x1="0" y1="0" x2="1446" y2="0" fill="rgb(0, 0, 0)" stroke="rgb(204, 204, 204)" stroke-width="1px"></line></g></g></g></g></svg>