<svg viewBox="0 0 1496 400" xmlns="http://www.w3.org/2000/svg"><g><g><g><g><g><line x1="30" y1="378" x2="25" y2="378" style="visibility: inherit;" fill="rgb(0, 0, 0)" stroke="rgb(204, 204, 204)" stroke-width="1px"></line><line x1="30" y1="330.75" x2="25" y2="330.75" style="visibility: inherit;" fill="rgb(0, 0, 0)" stroke="rgb(204, 204, 204)" stroke-width="1px"></line><line x1="30" y1="283.5" x2="25" y2="283.5" style="visibility: inherit;" fill="rgb(0, 0, 0)" stroke="rgb(204, 204, 204)" stroke-width="1px"></line><line x1="30" y1="236.25" x2="25" y2="236.25" style="visibility: inherit;" fill="rgb(0, 0, 0)" stroke="rgb(204, 204, 204)" stroke-width="1px"></line><line x1="30" y1="189" x2="25" y2="189" style="visibility: inherit;" fill="rgb(0, 0, 0)" stroke="rgb(204, 204, 204)" stroke-width="1px"></line><line x1="30" y1="141.75" x2="25" y2="141.75" style="visibility: inherit;" fill="rgb(0, 0, 0)" stroke="rgb(204, 204, 204)" stroke-width="1px"></line><line x1="30" y1="94.5" x2="25" y2="94.5" style="visibility: inherit;" fill="rgb(0, 0, 0)" stroke="rgb(204, 204, 204)" stroke-width="1px"></line><line x1="30" y1="47.25" x2="25" y2="47.25" style="visibility: inherit;" fill="rgb(0, 0, 0)" stroke="rgb(204, 204, 204)" stroke-width="1px"></line><line x1="30" y1="0" x2="25" y2="0" style="visibility: inherit;" fill="rgb(0, 0, 0)" stroke="rgb(204, 204, 204)" stroke-width="1px"></line></g><g transform="translate(20, 0)"><text x="0" y="378" dx="0em" dy="0.3em" style="text-anchor: end; visibility: hidden; font-family: &quot;Helvetica Neue&quot;, sans-serif; font-size: 12px; font-weight: 200;" fill="rgb(50, 49, 63)" stroke="none" stroke-width="1px">-1</text><text x="0" y="330.75" dx="0em" dy="0.3em" style="text-anchor: end; visibility: inherit; font-family: &quot;Helvetica Neue&quot;, sans-serif; font-size: 12px; font-weight: 200;" fill="rgb(50, 49, 63)" stroke="none" stroke-width="1px">0</text><text x="0" y="283.5" dx="0em" dy="0.3em" style="text-anchor: end; visibility: inherit; font-family: &quot;Helvetica Neue&quot;, sans-serif; font-size: 12px; font-weight: 200;" fill="rgb(50, 49, 63)" stroke="none" stroke-width="1px">1</text><text x="0" y="236.25" dx="0em" dy="0.3em" style="text-anchor: end; visibility: inherit; font-family: &quot;Helvetica Neue&quot;, sans-serif; font-size: 12px; font-weight: 200;" fill="rgb(50, 49, 63)" stroke="none" stroke-width="1px">2</text><text x="0" y="189" dx="0em" dy="0.3em" style="text-anchor: end; visibility: inherit; font-family: &quot;Helvetica Neue&quot;, sans-serif; font-size: 12px; font-weight: 200;" fill="rgb(50, 49, 63)" stroke="none" stroke-width="1px">3</text><text x="0" y="141.75" dx="0em" dy="0.3em" style="text-anchor: end; visibility: inherit; font-family: &quot;Helvetica Neue&quot;, sans-serif; font-size: 12px; font-weight: 200;" fill="rgb(50, 49, 63)" stroke="none" stroke-width="1px">4</text><text x="0" y="94.5" dx="0em" dy="0.3em" style="text-anchor: end; visibility: inherit; font-family: &quot;Helvetica Neue&quot;, sans-serif; font-size: 12px; font-weight: 200;" fill="rgb(50, 49, 63)" stroke="none" stroke-width="1px">5</text><text x="0" y="47.25" dx="0em" dy="0.3em" style="text-anchor: end; visibility: inherit; font-family: &quot;Helvetica Neue&quot;, sans-serif; font-size: 12px; font-weight: 200;" fill="rgb(50, 49, 63)" stroke="none" stroke-width="1px">6</text><text x="0" y="0" dx="0em" dy="0.3em" style="text-anchor: end; visibility: hidden; font-family: &quot;Helvetica Neue&quot;, sans-serif; font-size: 12px; font-weight: 200;" fill="rgb(50, 49, 63)" stroke="none" stroke-width="1px">7</text></g><line x1="30" y1="0" x2="30" y2="378" fill="rgb(0, 0, 0)" stroke="rgb(204, 204, 204)" stroke-width="1px"></line></g></g><g transform="translate(30, 0)" clip-path="url(#clip_0)"><clipPath id="clip_0"><rect width="1466" height="378"></rect></clipPath><g><g><g><line x1="0" y1="0" x2="0" y2="378" fill="rgb(0, 0, 0)" stroke="rgb(60, 60, 60)" stroke-width="1px" opacity="0.25"></line><line x1="122.16666666666666" y1="0" x2="122.16666666666666" y2="378" fill="rgb(0, 0, 0)" stroke="rgb(60, 60, 60)" stroke-width="1px" opacity="0.25"></line><line x1="244.33333333333331" y1="0" x2="244.33333333333331" y2="378" fill="rgb(0, 0, 0)" stroke="rgb(60, 60, 60)" stroke-width="1px" opacity="0.25"></line><line x1="366.5" y1="0" x2="366.5" y2="378" fill="rgb(0, 0, 0)" stroke="rgb(60, 60, 60)" stroke-width="1px" opacity="0.25"></line><line x1="488.66666666666663" y1="0" x2="488.66666666666663" y2="378" fill="rgb(0, 0, 0)" stroke="rgb(60, 60, 60)" stroke-width="1px" opacity="0.25"></line><line x1="610.8333333333334" y1="0" x2="610.8333333333334" y2="378" fill="rgb(0, 0, 0)" stroke="rgb(60, 60, 60)" stroke-width="1px" opacity="0.25"></line><line x1="733" y1="0" x2="733" y2="378" fill="rgb(0, 0, 0)" stroke="rgb(60, 60, 60)" stroke-width="1px" opacity="0.25"></line><line x1="855.1666666666667" y1="0" x2="855.1666666666667" y2="378" fill="rgb(0, 0, 0)" stroke="rgb(60, 60, 60)" stroke-width="1px" opacity="0.25"></line><line x1="977.3333333333333" y1="0" x2="977.3333333333333" y2="378" fill="rgb(0, 0, 0)" stroke="rgb(60, 60, 60)" stroke-width="1px" opacity="0.25"></line><line x1="1099.5" y1="0" x2="1099.5" y2="378" fill="rgb(0, 0, 0)" stroke="rgb(60, 60, 60)" stroke-width="1px" opacity="0.25"></line><line x1="1221.6666666666667" y1="0" x2="1221.6666666666667" y2="378" fill="rgb(0, 0, 0)" stroke="rgb(60, 60, 60)" stroke-width="1px" opacity="0.25"></line><line x1="1343.8333333333333" y1="0" x2="1343.8333333333333" y2="378" fill="rgb(0, 0, 0)" stroke="rgb(60, 60, 60)" stroke-width="1px" opacity="0.25"></line><line x1="1466" y1="0" x2="1466" y2="378" fill="rgb(0, 0, 0)" stroke="rgb(60, 60, 60)" stroke-width="1px" opacity="0.25"></line></g><g><line x1="0" y1="378" x2="1466" y2="378" fill="rgb(0, 0, 0)" stroke="rgb(60, 60, 60)" stroke-width="1px" opacity="0.25"></line><line x1="0" y1="330.75" x2="1466" y2="330.75" fill="rgb(0, 0, 0)" stroke="rgb(60, 60, 60)" stroke-width="1px" opacity="0.25"></line><line x1="0" y1="283.5" x2="1466" y2="283.5" fill="rgb(0, 0, 0)" stroke="rgb(60, 60, 60)" stroke-width="1px" opacity="0.25"></line><line x1="0" y1="236.25" x2="1466" y2="236.25" fill="rgb(0, 0, 0)" stroke="rgb(60, 60, 60)" stroke-width="1px" opacity="0.25"></line><line x1="0" y1="189" x2="1466" y2="189" fill="rgb(0, 0, 0)" stroke="rgb(60, 60, 60)" stroke-width="1px" opacity="0.25"></line><line x1="0" y1="141.75" x2="1466" y2="141.75" fill="rgb(0, 0, 0)" stroke="rgb(60, 60, 60)" stroke-width="1px" opacity="0.25"></line><line x1="0" y1="94.5" x2="1466" y2="94.5" fill="rgb(0, 0, 0)" stroke="rgb(60, 60, 60)" stroke-width="1px" opacity="0.25"></line><line x1="0" y1="47.25" x2="1466" y2="47.25" fill="rgb(0, 0, 0)" stroke="rgb(60, 60, 60)" stroke-width="1px" opacity="0.25"></line><line x1="0" y1="0" x2="1466" y2="0" fill="rgb(0, 0, 0)" stroke="rgb(60, 60, 60)" stroke-width="1px" opacity="0.25"></line></g></g></g><g><g><line x1="0" y1="330.75" x2="1466" y2="330.75" fill="rgb(0, 0, 0)" stroke="rgb(153, 153, 153)" stroke-width="1.5px"></line></g></g><g><g><line x1="122.16666666666666" y1="0" x2="122.16666666666666" y2="378" fill="rgb(0, 0, 0)" stroke="rgb(153, 153, 153)" stroke-width="1.5px"></line></g></g><g><g><g><g><g><path stroke="rgb(255, 112, 67)" stroke-width="2px" d="M122.16666666666666,60.2397665977478L124.61000000000001,172.3782965540886L127.05333333333334,212.73977065086365L129.49666666666667,227.30311632156372L131.94,242.65345430374146L134.38333333333333,267.9735293984413L136.82666666666668,248.5764783024788L139.27,228.66771322488785L141.71333333333334,271.73350739479065L144.15666666666667,237.67135137319565L146.6,262.2304456830025L149.04333333333335,270.43095964193344L151.48666666666668,279.99216145277023L153.93,286.3959086537361L156.37333333333333,263.23430585861206L158.81666666666666,278.6855244040489L161.26,261.01943957805634L163.70333333333332,273.5355125069618L166.14666666666665,264.05344927310944L168.59,279.3712869286537L171.03333333333333,253.06669414043427L173.47666666666666,277.1522299647331L175.92,263.3617386817932L178.36333333333334,267.8563479781151L180.80666666666667,257.4643319249153L183.25,282.17572152614594L185.69333333333336,290.42843878269196L188.13666666666666,285.36209973692894L190.58,293.6391330957413L193.0233333333333,289.85945212841034L195.46666666666667,294.72240221500397L197.91000000000003,289.8161484003067L200.35333333333332,294.64931309223175L202.79666666666668,291.80911123752594L205.24,273.1437793672085L207.68333333333334,297.0659855604172L210.12666666666667,287.8186738193035L212.57,300.8954139947891L215.01333333333332,296.2816518545151L217.45666666666668,302.0451707839966L219.9,275.9013673067093L222.34333333333333,299.035133600235L224.78666666666666,289.97695460915565L227.23,287.2901576757431L229.67333333333335,277.51009967923164L232.11666666666665,302.34264171123505L234.56,304.48457658290863L237.0033333333333,289.20563793182373L239.44666666666666,295.1212831735611L241.89000000000001,305.2304731607437L244.33333333333331,277.3565145134926L246.77666666666667,300.9106108546257L249.22000000000003,306.1066019833088L251.66333333333333,270.92468297481537L254.10666666666668,300.1572003364563L256.55,306.43759274482727L258.99333333333334,288.63701739907265L261.43666666666667,294.1126127243042L263.88,297.4226893186569L266.3233333333333,299.78019654750824L268.76666666666665,305.4076759815216L271.21,294.75649094581604L273.65333333333336,303.5316016674042L276.09666666666664,299.91450119018555L278.54,279.1548358798027L280.98333333333335,307.9323486685753L283.4266666666667,287.7242764234543L285.87,299.24926963448524L288.31333333333333,299.55353915691376L290.75666666666666,296.9137353301048L293.2,306.5483304262161L295.6433333333333,281.04103767871857L298.0866666666667,294.4397901892662L300.53,308.61396557092667L302.97333333333336,287.82896465063095L305.4166666666667,296.3109641075134L307.86,307.77700611948967L310.30333333333334,289.87532490491867L312.74666666666667,310.2376413345337L315.19,298.7970532178879L317.6333333333333,299.7703506946564L320.07666666666665,307.174668610096L322.52,294.5655219554901L324.96333333333337,307.7156497836113L327.40666666666664,301.98992586135864L329.85,291.1107203364372L332.2933333333333,297.7416093349457L334.7366666666667,270.20048332214355L337.18,288.8092578649521L339.62333333333333,296.71935296058655L342.06666666666666,297.8245893716812L344.51,284.17900335788727L346.9533333333333,291.97671604156494L349.3966666666667,300.86208003759384L351.84,309.1152366399765L354.28333333333336,308.5466668009758L356.7266666666667,300.09181103110313L359.17,292.3867721557617L361.61333333333334,302.37344098091125L364.0566666666667,309.6333943605423L366.5,299.82206958532333L368.9433333333333,306.4859207868576L371.3866666666667,309.16241562366486L373.83,298.88510262966156L376.2733333333333,293.16192466020584L378.7166666666667,299.2951700091362L381.16,291.81115025281906L383.6033333333333,304.761482745409L386.0466666666666,302.68588346242905L388.49,303.0012323856354L390.93333333333334,306.9733017683029L393.3766666666666,294.67909848690033L395.82000000000005,303.61343827843666L398.2633333333333,286.6131820678711L400.70666666666665,300.1332278251648L403.15000000000003,307.57137537002563L405.59333333333336,300.0918898880482L408.03666666666663,303.17142820358276L410.48,308.62131053209305L412.92333333333335,292.97733744978905L415.3666666666667,297.36144000291824L417.80999999999995,299.5963584780693L420.25333333333333,306.6193242073059L422.69666666666666,293.53807228803635L425.14,298.1135437488556L427.58333333333337,303.5197055339813L430.02666666666664,309.92372873425484L432.46999999999997,304.6481934785843L434.91333333333336,301.4227754473686L437.3566666666667,288.90402138233185L439.8,309.4385726451874L442.2433333333334,298.63796496391296L444.68666666666667,295.6767064332962L447.13,292.77265298366547L449.5733333333333,301.526584982872L452.0166666666667,306.5003628730774L454.46,305.00781494379044L456.9033333333333,308.69265353679657L459.3466666666667,307.30149310827255L461.79,296.98091581463814L464.2333333333333,296.92396983504295L466.6766666666667,302.719898968935L469.12,301.52227038145065L471.56333333333333,299.05078107118607L474.0066666666666,284.62137392163277L476.45,293.29153168201447L478.8933333333333,301.60149908065796L481.33666666666664,299.1048544049263L483.78000000000003,294.6877051591873L486.22333333333336,300.16909646987915L488.66666666666663,302.9433119595051L491.11,291.7277308702469L493.55333333333334,306.73713648319244L495.99666666666667,302.73196971416473L498.44000000000005,303.7873910665512L500.8833333333333,306.9292995929718L503.32666666666665,312.2893131673336L505.77,289.4113137423992L508.21333333333337,304.5416070520878L510.65666666666664,303.52970910072327L513.1,303.28269535303116L515.5433333333334,308.54244232177734L517.9866666666667,307.4060912132263L520.43,305.50270986557007L522.8733333333333,300.8073533177376L525.3166666666667,302.5970342159271L527.76,300.1687134504318L530.2033333333334,305.36197274923325L532.6466666666666,311.42613941431046L535.09,306.76651632785797L537.5333333333333,299.6275745630264L539.9766666666667,310.58179557323456L542.42,313.50667852163315L544.8633333333333,298.93538519740105L547.3066666666667,295.0840401649475L549.75,300.93230777978897L552.1933333333333,280.05572015047073L554.6366666666667,302.6414250433445L557.08,294.64669954776764L559.5233333333333,282.71706318855286L561.9666666666667,307.03200513124466L564.41,306.50783175230026L566.8533333333334,307.62178748846054L569.2966666666666,303.8712272644043L571.74,296.5205095410347L574.1833333333333,308.4399339258671L576.6266666666667,300.00774389505386L579.07,309.7866303026676L581.5133333333333,306.55521351099014L583.9566666666666,305.9897866845131L586.4,302.019812643528L588.8433333333334,315.5566436648369L591.2866666666666,306.27326613664627L593.73,307.06473076343536L596.1733333333334,294.5792092680931L598.6166666666667,304.4307736158371L601.06,290.9347679615021L603.5033333333333,299.5687472820282L605.9466666666667,292.97342839837074L608.39,311.3416836261749L610.8333333333334,301.4344012141228L613.2766666666666,298.3651311993599L615.72,308.32797396183014L618.1633333333334,299.0466805100441L620.6066666666667,307.9964818954468L623.05,305.3076853752136L625.4933333333333,300.076169192791L627.9366666666667,297.01452577114105L630.38,302.8582140505314L632.8233333333333,305.0377918481827L635.2666666666667,305.40997409820557L637.71,278.533240377903L640.1533333333333,302.55837178230286L642.5966666666667,308.70177841186523L645.04,309.01903116703033L647.4833333333333,311.8700814843178L649.9266666666667,281.8480709195137L652.37,293.8933228254318L654.8133333333333,297.4646637439728L657.2566666666667,310.9314247369766L659.7,311.12527763843536L662.1433333333333,311.5298475623131L664.5866666666666,306.6437811255455L667.03,298.01212245225906L669.4733333333334,304.73522901535034L671.9166666666666,303.12582635879517L674.36,285.012870490551L676.8033333333333,306.4684483408928L679.2466666666667,282.43599450588226L681.69,302.1075578927994L684.1333333333333,302.07724303007126L686.5766666666666,302.51896584033966L689.02,307.06936079263687L691.4633333333334,296.6666652560234L693.9066666666666,298.8069441318512L696.35,308.2076382637024L698.7933333333334,300.3387064933777L701.2366666666667,285.26751083135605L703.68,299.586467564106L706.1233333333333,287.7736971974373L708.5666666666667,302.5623934864998L711.01,292.1456501483917L713.4533333333334,307.8276942372322L715.8966666666666,303.44251585006714L718.34,286.5416813492775L720.7833333333333,312.8581139445305L723.2266666666667,305.6716721355915L725.67,309.9605380296707L728.1133333333333,301.0671193599701L730.5566666666667,301.2278974056244L733,303.7998166680336L735.4433333333334,307.3849237561226L737.8866666666667,298.9358076453209L740.33,298.91160982847214L742.7733333333334,307.2153249979019L745.2166666666666,293.6017098426819L747.66,305.4487379193306L750.1033333333334,310.5407899618149L752.5466666666666,301.890318274498L754.99,305.5319488942623L757.4333333333334,301.5475158691406L759.8766666666667,305.32091081142426L762.32,311.5610974431038L764.7633333333332,305.5067653656006L767.2066666666666,302.5044561624527L769.65,308.4801566004753L772.0933333333332,298.17452269792557L774.5366666666666,308.6884065270424L776.98,309.5391265153885L779.4233333333333,291.6282753646374L781.8666666666667,300.5151939690113L784.3100000000001,305.68169260025024L786.7533333333332,304.0801080465317L789.1966666666667,304.88033705949783L791.6400000000001,312.3280938863754L794.0833333333333,311.48651003837585L796.5266666666666,304.97743248939514L798.97,279.2659903764725L801.4133333333333,308.12919813394547L803.8566666666667,295.877847969532L806.3000000000001,268.8327659368515L808.7433333333333,300.4945841431618L811.1866666666667,306.30146312713623L813.6300000000001,293.07176864147186L816.0733333333333,307.4767245054245L818.5166666666667,300.39703810214996L820.96,291.7575049996376L823.4033333333333,303.84807711839676L825.8466666666667,317.4886951446533L828.29,276.9414340853691L830.7333333333333,311.19518995285034L833.1766666666667,233.05636131763458L835.6199999999999,309.4467512369156L838.0633333333333,307.0997883081436L840.5066666666667,307.00974494218826L842.9499999999999,298.6996423602104L845.3933333333333,293.7470769882202L847.8366666666667,294.15438437461853L850.28,306.5813545882702L852.7233333333334,302.851933658123L855.1666666666667,307.6771225333214L857.6099999999999,306.2191815376282L860.0533333333333,310.0835435986519L862.4966666666668,312.2791011929512L864.9399999999999,305.3073079884052L867.3833333333333,309.66110694408417L869.8266666666667,314.18826162815094L872.27,308.4345660209656L874.7133333333334,287.84204363822937L877.1566666666668,298.2477244734764L879.6,307.2258186042309L882.0433333333334,309.4442503452301L884.4866666666668,309.64646208286285L886.93,300.2749562859535L889.3733333333333,309.61211425065994L891.8166666666666,309.04988676309586L894.26,307.6100152730942L896.7033333333334,289.80927658081055L899.1466666666666,310.0679862499237L901.59,312.59580194950104L904.0333333333334,290.0414370596409L906.4766666666666,309.335089802742L908.92,309.1378573179245L911.3633333333333,296.60285872220993L913.8066666666666,306.3777515888214L916.25,312.72027200460434L918.6933333333334,280.4961192905903L921.1366666666667,314.44096434116364L923.58,293.80019277334213L926.0233333333334,305.47381442785263L928.4666666666666,298.56493216753006L930.91,304.77546858787537L933.3533333333334,303.3544777035713L935.7966666666666,313.678474009037L938.24,304.0708592534065L940.6833333333334,304.47852712869644L943.1266666666667,310.2923004627228L945.57,296.70220720767975L948.0133333333332,312.1166333556175L950.4566666666666,307.363497197628L952.9,309.3221572637558L955.3433333333332,294.0756907761097L957.7866666666666,281.9724283218384L960.23,297.91463273763657L962.6733333333333,292.5484683215618L965.1166666666667,304.70219922065735L967.5600000000001,309.201089322567L970.0033333333332,309.3121086359024L972.4466666666667,304.26598513126373L974.8900000000001,307.6030983924866L977.3333333333333,302.1039192080498L979.7766666666666,302.95567560195923L982.22,295.67743304371834L984.6633333333333,287.7324775457382L987.1066666666667,304.71650049090385L989.5500000000001,310.45338267087936L991.9933333333333,293.7423005104065L994.4366666666667,305.1836096048355L996.8800000000001,307.99237006902695L999.3233333333333,308.12469202280045L1001.7666666666667,303.99884033203125L1004.21,285.44179594516754L1006.6533333333333,295.13759529590607L1009.0966666666667,302.57383900880814L1011.54,308.79622650146484L1013.9833333333333,296.5512750148773L1016.4266666666667,301.58595299720764L1018.8699999999999,303.8861424922943L1021.3133333333333,308.4502022266388L1023.7566666666667,309.063973993063L1026.2,312.3292429447174L1028.6433333333334,292.8385097980499L1031.0866666666668,314.3606879711151L1033.53,307.6971859931946L1035.9733333333334,296.0879228711128L1038.4166666666667,308.25797152519226L1040.86,308.22128051519394L1043.3033333333333,310.77861124277115L1045.7466666666667,298.4095501899719L1048.19,292.264386177063L1050.6333333333334,302.9182298183441L1053.0766666666668,293.3088238835335L1055.52,306.13249522447586L1057.9633333333334,280.2889451980591L1060.4066666666668,299.5715973973274L1062.85,302.4620029628277L1065.2933333333333,312.74003130197525L1067.7366666666667,304.49738520383835L1070.18,305.8333457708359L1072.6233333333334,301.06683772802353L1075.0666666666666,306.75174754858017L1077.51,310.3063707947731L1079.9533333333334,309.444588303566L1082.3966666666665,305.4203719496727L1084.84,280.0186686515808L1087.2833333333333,303.6273903250694L1089.7266666666667,312.4118174314499L1092.17,297.198690533638L1094.6133333333335,312.40476536750793L1097.0566666666666,307.95157849788666L1099.5,304.36500692367554L1101.9433333333334,307.13927310705185L1104.3866666666665,312.6349487900734L1106.83,298.81343856453896L1109.2733333333333,306.19464576244354L1111.7166666666667,311.7169750928879L1114.16,306.07046860456467L1116.6033333333335,305.139967918396L1119.0466666666666,303.984601020813L1121.49,295.35528552532196L1123.9333333333334,303.82855439186096L1126.3766666666666,306.63280311226845L1128.82,288.1998570263386L1131.2633333333333,300.0631465315819L1133.7066666666667,289.8984412550926L1136.15,308.9219470024109L1138.5933333333332,301.15167090296745L1141.0366666666666,310.4224144220352L1143.48,310.3988023996353L1145.9233333333332,289.32704946398735L1148.3666666666666,305.35071873664856L1150.81,303.35610553622246L1153.2533333333333,315.6883910894394L1155.6966666666667,309.3765685558319L1158.14,307.92119604349136L1160.5833333333333,309.272556245327L1163.0266666666666,305.2184756398201L1165.47,307.14943438768387L1167.9133333333332,291.95932245254517L1170.3566666666666,302.64103639125824L1172.8,301.1666086614132L1175.2433333333333,312.03856498003006L1177.6866666666667,304.4254226088524L1180.13,304.7001940011978L1182.5733333333333,305.13740506768227L1185.0166666666667,309.43247812986374L1187.46,316.06593561172485L1189.9033333333332,309.589572429657L1192.3466666666668,280.37726497650146L1194.79,306.3088080883026L1197.2333333333333,307.28184646368027L1199.6766666666667,302.63610219955444L1202.12,308.6182576417923L1204.5633333333333,308.73128217458725L1207.0066666666667,298.37134963274L1209.45,306.60742807388306L1211.8933333333334,296.60387259721756L1214.3366666666668,307.99339520931244L1216.78,299.9940847456455L1219.2233333333334,311.90111169219017L1221.6666666666667,303.7923027276993L1224.11,311.9852238893509L1226.5533333333333,287.48163360357285L1228.9966666666667,306.43561005592346L1231.44,312.05381816625595L1233.8833333333334,304.1503132581711L1236.3266666666668,309.26273292303085L1238.77,302.9373582601547L1241.2133333333334,303.83842277526855L1243.6566666666668,312.8115094900131L1246.1,304.21481823921204L1248.5433333333333,309.53083527088165L1250.9866666666667,290.4866352081299L1253.43,301.9719126820564L1255.8733333333334,300.74807542562485L1258.3166666666666,307.24852377176285L1260.76,298.49548172950745L1263.2033333333334,310.50944995880127L1265.6466666666665,291.55478632450104L1268.09,311.79371416568756L1270.5333333333333,309.8256363272667L1272.9766666666667,308.13578832149506L1275.42,304.05490761995316L1277.8633333333335,297.6297000646591L1280.3066666666666,299.5291272997856L1282.75,295.59919568896294L1285.1933333333334,297.2728160619736L1287.6366666666665,311.5136931538582L1290.08,309.9251763224602L1292.5233333333333,295.4519754052162L1294.9666666666667,293.3372518122196L1297.41,300.7257927060127L1299.8533333333335,296.35214433074L1302.2966666666666,310.5726031064987L1304.74,308.88348734378815L1307.1833333333334,304.8627181649208L1309.6266666666666,310.17297863960266L1312.07,314.84854209423065L1314.5133333333333,291.93977719545364L1316.9566666666667,303.5574104189873L1319.4,304.77602058649063L1321.8433333333332,302.41648560762405L1324.2866666666666,306.3754647374153L1326.73,303.92571741342545L1329.1733333333332,315.299941778183L1331.6166666666666,292.01413929462433L1334.06,301.4867622256279L1336.5033333333333,306.48097532987595L1338.9466666666667,307.90113258361816L1341.39,310.01470148563385" style="fill: none;" fill="none"></path></g></g></g></g></g></g><g transform="translate(30, 378)" clip-path="url(#clip_1)"><clipPath id="clip_1"><rect width="1466" height="22"></rect></clipPath><g><g><line x1="0" y1="0" x2="0" y2="5" style="visibility: inherit;" fill="rgb(0, 0, 0)" stroke="rgb(204, 204, 204)" stroke-width="1px"></line><line x1="122.16666666666666" y1="0" x2="122.16666666666666" y2="5" style="visibility: inherit;" fill="rgb(0, 0, 0)" stroke="rgb(204, 204, 204)" stroke-width="1px"></line><line x1="244.33333333333331" y1="0" x2="244.33333333333331" y2="5" style="visibility: inherit;" fill="rgb(0, 0, 0)" stroke="rgb(204, 204, 204)" stroke-width="1px"></line><line x1="366.5" y1="0" x2="366.5" y2="5" style="visibility: inherit;" fill="rgb(0, 0, 0)" stroke="rgb(204, 204, 204)" stroke-width="1px"></line><line x1="488.66666666666663" y1="0" x2="488.66666666666663" y2="5" style="visibility: inherit;" fill="rgb(0, 0, 0)" stroke="rgb(204, 204, 204)" stroke-width="1px"></line><line x1="610.8333333333334" y1="0" x2="610.8333333333334" y2="5" style="visibility: inherit;" fill="rgb(0, 0, 0)" stroke="rgb(204, 204, 204)" stroke-width="1px"></line><line x1="733" y1="0" x2="733" y2="5" style="visibility: inherit;" fill="rgb(0, 0, 0)" stroke="rgb(204, 204, 204)" stroke-width="1px"></line><line x1="855.1666666666667" y1="0" x2="855.1666666666667" y2="5" style="visibility: inherit;" fill="rgb(0, 0, 0)" stroke="rgb(204, 204, 204)" stroke-width="1px"></line><line x1="977.3333333333333" y1="0" x2="977.3333333333333" y2="5" style="visibility: inherit;" fill="rgb(0, 0, 0)" stroke="rgb(204, 204, 204)" stroke-width="1px"></line><line x1="1099.5" y1="0" x2="1099.5" y2="5" style="visibility: inherit;" fill="rgb(0, 0, 0)" stroke="rgb(204, 204, 204)" stroke-width="1px"></line><line x1="1221.6666666666667" y1="0" x2="1221.6666666666667" y2="5" style="visibility: inherit;" fill="rgb(0, 0, 0)" stroke="rgb(204, 204, 204)" stroke-width="1px"></line><line x1="1343.8333333333333" y1="0" x2="1343.8333333333333" y2="5" style="visibility: inherit;" fill="rgb(0, 0, 0)" stroke="rgb(204, 204, 204)" stroke-width="1px"></line><line x1="1466" y1="0" x2="1466" y2="5" style="visibility: inherit;" fill="rgb(0, 0, 0)" stroke="rgb(204, 204, 204)" stroke-width="1px"></line></g><g transform="translate(0, 8)"><text x="0" y="0" dx="0em" dy="0.95em" style="text-anchor: middle; visibility: hidden; font-family: &quot;Helvetica Neue&quot;, sans-serif; font-size: 12px; font-weight: 200;" fill="rgb(50, 49, 63)" stroke="none" stroke-width="1px">-50</text><text x="122.16666666666666" y="0" dx="0em" dy="0.95em" style="text-anchor: middle; visibility: inherit; font-family: &quot;Helvetica Neue&quot;, sans-serif; font-size: 12px; font-weight: 200;" fill="rgb(50, 49, 63)" stroke="none" stroke-width="1px">0</text><text x="244.33333333333331" y="0" dx="0em" dy="0.95em" style="text-anchor: middle; visibility: inherit; font-family: &quot;Helvetica Neue&quot;, sans-serif; font-size: 12px; font-weight: 200;" fill="rgb(50, 49, 63)" stroke="none" stroke-width="1px">50</text><text x="366.5" y="0" dx="0em" dy="0.95em" style="text-anchor: middle; visibility: inherit; font-family: &quot;Helvetica Neue&quot;, sans-serif; font-size: 12px; font-weight: 200;" fill="rgb(50, 49, 63)" stroke="none" stroke-width="1px">100</text><text x="488.66666666666663" y="0" dx="0em" dy="0.95em" style="text-anchor: middle; visibility: inherit; font-family: &quot;Helvetica Neue&quot;, sans-serif; font-size: 12px; font-weight: 200;" fill="rgb(50, 49, 63)" stroke="none" stroke-width="1px">150</text><text x="610.8333333333334" y="0" dx="0em" dy="0.95em" style="text-anchor: middle; visibility: inherit; font-family: &quot;Helvetica Neue&quot;, sans-serif; font-size: 12px; font-weight: 200;" fill="rgb(50, 49, 63)" stroke="none" stroke-width="1px">200</text><text x="733" y="0" dx="0em" dy="0.95em" style="text-anchor: middle; visibility: inherit; font-family: &quot;Helvetica Neue&quot;, sans-serif; font-size: 12px; font-weight: 200;" fill="rgb(50, 49, 63)" stroke="none" stroke-width="1px">250</text><text x="855.1666666666667" y="0" dx="0em" dy="0.95em" style="text-anchor: middle; visibility: inherit; font-family: &quot;Helvetica Neue&quot;, sans-serif; font-size: 12px; font-weight: 200;" fill="rgb(50, 49, 63)" stroke="none" stroke-width="1px">300</text><text x="977.3333333333333" y="0" dx="0em" dy="0.95em" style="text-anchor: middle; visibility: inherit; font-family: &quot;Helvetica Neue&quot;, sans-serif; font-size: 12px; font-weight: 200;" fill="rgb(50, 49, 63)" stroke="none" stroke-width="1px">350</text><text x="1099.5" y="0" dx="0em" dy="0.95em" style="text-anchor: middle; visibility: inherit; font-family: &quot;Helvetica Neue&quot;, sans-serif; font-size: 12px; font-weight: 200;" fill="rgb(50, 49, 63)" stroke="none" stroke-width="1px">400</text><text x="1221.6666666666667" y="0" dx="0em" dy="0.95em" style="text-anchor: middle; visibility: inherit; font-family: &quot;Helvetica Neue&quot;, sans-serif; font-size: 12px; font-weight: 200;" fill="rgb(50, 49, 63)" stroke="none" stroke-width="1px">450</text><text x="1343.8333333333333" y="0" dx="0em" dy="0.95em" style="text-anchor: middle; visibility: inherit; font-family: &quot;Helvetica Neue&quot;, sans-serif; font-size: 12px; font-weight: 200;" fill="rgb(50, 49, 63)" stroke="none" stroke-width="1px">500</text><text x="1466" y="0" dx="0em" dy="0.95em" style="text-anchor: middle; visibility: hidden; font-family: &quot;Helvetica Neue&quot;, sans-serif; font-size: 12px; font-weight: 200;" fill="rgb(50, 49, 63)" stroke="none" stroke-width="1px">550</text></g><line x1="0" y1="0" x2="1466" y2="0" fill="rgb(0, 0, 0)" stroke="rgb(204, 204, 204)" stroke-width="1px"></line></g></g></g></g></svg>