<?xml version="1.0" encoding="utf-8" standalone="no"?>
<!DOCTYPE svg PUBLIC "-//W3C//DTD SVG 1.1//EN"
  "http://www.w3.org/Graphics/SVG/1.1/DTD/svg11.dtd">
<!-- Created with matplotlib (https://matplotlib.org/) -->
<svg height="288pt" version="1.1" viewBox="0 0 720 288" width="720pt" xmlns="http://www.w3.org/2000/svg" xmlns:xlink="http://www.w3.org/1999/xlink">
 <metadata>
  <rdf:RDF xmlns:cc="http://creativecommons.org/ns#" xmlns:dc="http://purl.org/dc/elements/1.1/" xmlns:rdf="http://www.w3.org/1999/02/22-rdf-syntax-ns#">
   <cc:Work>
    <dc:type rdf:resource="http://purl.org/dc/dcmitype/StillImage"/>
    <dc:date>2020-11-14T04:29:28.410438</dc:date>
    <dc:format>image/svg+xml</dc:format>
    <dc:creator>
     <cc:Agent>
      <dc:title>Matplotlib v3.3.2, https://matplotlib.org/</dc:title>
     </cc:Agent>
    </dc:creator>
   </cc:Work>
  </rdf:RDF>
 </metadata>
 <defs>
  <style type="text/css">*{stroke-linecap:butt;stroke-linejoin:round;}</style>
 </defs>
 <g id="figure_1">
  <g id="patch_1">
   <path d="M 0 288 
L 720 288 
L 720 0 
L 0 0 
z
" style="fill:#ffffff;"/>
  </g>
  <g id="axes_1">
   <g id="line2d_1">
    <path clip-path="url(#p6d34b551d5)" d="M 96.675674 228.476702 
L 89.085119 224.699129 
L 84.278707 222.003241 
L 79.440976 218.804404 
L 77.539033 217.270349 
L 75.398146 215.040006 
L 74.348716 213.086605 
L 74.306834 211.970958 
L 74.756268 211.232641 
L 75.303972 210.921737 
L 76.417309 210.818648 
L 77.347891 211.044352 
L 78.29638 211.506283 
L 79.508787 212.422987 
L 80.943475 213.982565 
L 82.072443 215.550396 
L 83.751184 218.289869 
L 91.874501 232.232569 
L 95.14673 237.913019 
L 96.593177 240.861649 
L 97.205666 242.501919 
L 97.328486 243.467329 
L 97.192459 243.503157 
L 96.821154 243.054579 
L 96.254113 241.826296 
L 95.65581 239.871964 
L 95.177166 237.435937 
L 94.890382 234.735054 
L 94.814804 232.648533 
L 94.995823 228.560312 
L 95.421218 225.395135 
L 96.149683 222.024334 
L 97.192068 218.616979 
L 98.58078 215.192779 
L 100.063477 212.232809 
L 100.838656 210.69579 
L 100.955791 209.944333 
L 100.878436 209.857442 
L 100.216184 209.799226 
L 98.854752 210.143657 
L 96.532849 210.990148 
L 92.939853 212.569704 
L 88.961765 214.617692 
L 85.37037 216.726016 
L 81.551961 219.232684 
L 77.429269 222.254285 
L 74.566175 224.640721 
L 73.350522 225.871634 
L 72.659159 226.854994 
L 72.416648 227.690879 
L 72.576432 228.398563 
L 73.409744 229.301253 
L 74.470154 229.913747 
L 76.462193 230.631032 
L 78.484746 231.066586 
L 81.353091 231.348763 
L 83.06222 231.362241 
L 85.339895 231.218426 
L 87.602244 230.901135 
L 89.401617 230.527542 
L 91.344479 230.003786 
L 93.178073 229.393221 
L 96.808037 227.837742 
L 98.498701 226.945835 
L 102.345637 224.46846 
L 106.019257 221.397669 
L 108.358854 218.954857 
L 109.767371 217.226301 
L 112.117579 213.652438 
L 113.245048 211.374879 
L 114.490549 207.461627 
L 114.753557 205.138485 
L 114.646777 203.369382 
L 113.7801 200.773385 
L 113.114877 199.815128 
L 111.566499 198.494739 
L 110.444834 197.94082 
L 107.644827 197.32254 
L 105.594505 197.302928 
L 102.618611 197.690545 
L 100.702689 198.130036 
L 98.647785 198.723386 
L 91.738644 201.140045 
L 91.738644 201.140045 
" style="fill:none;stroke:#000000;stroke-linecap:square;stroke-opacity:0.7;stroke-width:1.2;"/>
   </g>
   <g id="line2d_2">
    <path clip-path="url(#p6d34b551d5)" d="M 62.269813 186.865146 
L 54.181039 184.947333 
L 51.923033 185.368125 
L 49.747891 186.702869 
L 48.902475 187.735438 
L 47.682657 192.269232 
L 47.912989 194.432267 
L 48.388503 195.939966 
L 48.669147 196.511251 
L 49.214326 197.290492 
L 49.692192 197.72542 
L 50.329847 198.034664 
L 50.873741 198.091941 
L 51.699307 197.858255 
L 52.639739 197.162584 
L 53.857686 195.670573 
L 57.019986 190.942347 
L 58.352915 189.624077 
L 60.835091 188.062771 
L 62.810135 187.229092 
L 67.900677 185.664086 
L 78.373857 183.002992 
L 86.748596 180.758111 
L 91.007159 179.4287 
L 92.990042 178.641198 
L 93.872 178.07097 
L 93.963785 177.788752 
L 93.812606 177.610006 
L 93.019247 177.332659 
L 91.805406 177.145718 
L 87.694217 176.833039 
L 81.99377 176.383552 
L 80.415317 176.112591 
L 80.056184 175.949557 
L 80.072081 175.918939 
L 80.352774 175.877626 
L 81.257425 175.988343 
L 82.483371 176.360331 
L 83.699847 176.997686 
L 84.492387 177.642129 
L 85.135106 178.435385 
L 85.491584 179.131248 
L 85.75953 180.209661 
L 85.708585 181.516163 
L 85.240719 182.890093 
L 84.648319 183.798664 
L 83.840714 184.568311 
L 82.996792 185.029813 
L 82.463036 185.178408 
L 81.546853 185.188421 
L 80.907246 184.956678 
L 80.752071 184.770835 
L 80.909637 184.611678 
L 81.662067 184.562175 
L 82.979019 184.684313 
L 89.517961 185.456813 
L 93.390148 185.59154 
L 95.859987 185.471029 
L 98.742982 185.063222 
L 101.452207 184.3345 
L 103.176886 183.634337 
L 105.270463 182.429763 
L 108.01077 179.759521 
L 108.468079 179.034659 
L 109.035328 177.716006 
L 109.202302 176.777119 
L 109.152084 176.169418 
L 108.940714 175.704521 
L 108.671428 175.473604 
L 107.84999 175.40225 
L 106.621979 175.979411 
L 105.732965 176.660956 
L 103.849411 178.548588 
L 99.463666 184.266793 
L 94.902851 191.125015 
L 90.514984 197.951589 
L 90.514984 197.951589 
" style="fill:none;stroke:#000000;stroke-linecap:square;stroke-opacity:0.7;stroke-width:1.2;"/>
   </g>
   <g id="line2d_3">
    <path clip-path="url(#p6d34b551d5)" d="M 67.186886 171.079537 
L 64.016603 162.689657 
L 63.682885 157.900998 
L 64.382516 153.723407 
L 66.199938 149.293749 
L 67.609655 146.968524 
L 69.556274 144.370786 
L 72.677648 140.976185 
L 76.092044 137.852928 
L 82.814133 132.56122 
L 87.446125 129.046718 
L 89.611771 127.116065 
L 90.272614 126.323009 
L 90.689402 125.480374 
L 90.548162 124.604001 
L 90.109438 124.203883 
L 89.205234 123.814113 
L 87.787031 123.521492 
L 85.503815 123.34439 
L 83.257383 123.337933 
L 78.418576 123.620909 
L 74.908752 123.98995 
L 69.838825 124.700577 
L 62.108004 126.140319 
L 57.722553 127.176715 
L 56.579978 127.484696 
L 52.903421 128.685488 
L 51.471628 129.393961 
L 50.895903 129.930974 
L 50.809896 130.2218 
L 50.897804 130.508529 
L 51.307035 130.90366 
L 51.712684 131.144746 
L 53.367901 131.827969 
L 57.883496 133.263244 
L 63.46177 135.09655 
L 69.029288 137.224651 
L 73.516388 139.197962 
L 78.836806 141.811442 
L 82.645904 143.659094 
L 83.577812 143.910837 
L 83.870236 143.802941 
L 83.911422 143.701728 
L 83.851877 143.301208 
L 83.412978 142.430134 
L 82.280344 140.798968 
L 80.84616 139.056933 
L 79.376097 137.581259 
L 78.349675 136.89735 
L 77.850182 136.839946 
L 77.629409 136.985635 
L 77.454078 137.387691 
L 77.416692 138.201481 
L 77.565159 139.245592 
L 77.933525 140.560531 
L 78.44576 141.647951 
L 78.855001 142.126275 
L 79.432939 142.332202 
L 79.845087 142.207516 
L 80.318495 141.851284 
L 81.34976 140.549543 
L 82.647339 138.37434 
L 85.538772 132.878819 
L 87.1965 129.449495 
L 87.3771 128.725472 
L 87.204637 128.726041 
L 86.543491 129.33371 
L 85.406854 130.76242 
L 84.155181 132.79075 
L 83.460189 134.350699 
L 83.169813 135.266756 
L 82.873236 137.096917 
L 82.917795 138.500693 
L 83.202844 139.889045 
L 83.947304 141.724262 
L 84.910776 143.305088 
L 85.879602 144.567907 
L 87.860782 146.688356 
L 89.591741 148.273252 
L 93.805442 151.634989 
L 100.54282 156.606621 
L 99.181563 156.161524 
L 99.181563 156.161524 
" style="fill:none;stroke:#000000;stroke-linecap:square;stroke-opacity:0.7;stroke-width:1.2;"/>
   </g>
   <g id="line2d_4">
    <path clip-path="url(#p6d34b551d5)" d="M 73.210037 116.785754 
L 80.226553 116.717957 
L 82.086021 116.314993 
L 89.769165 112.84042 
L 90.676526 112.224791 
L 96.116776 107.465452 
L 99.161601 103.819395 
L 102.330338 98.892307 
L 102.990492 97.651217 
L 104.192567 95.102342 
L 105.987073 90.123009 
L 106.696534 87.291285 
L 107.068395 85.258622 
L 107.421829 81.97121 
L 107.472826 79.35593 
L 107.197225 75.989645 
L 106.796667 74.00804 
L 106.305599 72.810359 
L 106.279151 72.802469 
L 106.20422 72.955923 
L 106.295781 74.178616 
L 106.973105 77.940733 
L 108.066469 83.916242 
L 108.465163 86.524403 
L 108.879496 89.907764 
L 109.180291 93.705411 
L 109.272716 96.416625 
L 109.125371 101.5163 
L 108.650926 105.617044 
L 107.595463 110.442493 
L 106.081898 114.756643 
L 104.641375 117.722969 
L 103.350587 119.855527 
L 101.270505 122.617652 
L 100.20644 123.794876 
L 98.180042 125.704654 
L 95.499304 127.70553 
L 92.999282 129.148351 
L 90.902072 130.098129 
L 88.996937 130.780132 
L 86.354681 131.467953 
L 84.598807 131.769994 
L 81.607703 132.012376 
L 78.56752 131.910386 
L 74.447867 131.180412 
L 71.8453 130.317503 
L 70.81954 129.87542 
L 67.290367 127.777222 
L 65.514645 126.23504 
L 64.856059 125.532422 
L 62.971295 122.817948 
L 61.927351 120.197125 
L 61.632286 118.850654 
L 61.467835 116.227624 
L 61.508326 115.538574 
L 61.999957 112.75751 
L 62.642326 110.809631 
L 63.73333 108.44617 
L 65.555362 105.486729 
L 66.948944 103.619259 
L 69.460892 100.702229 
L 72.757949 97.321804 
L 77.024077 92.965022 
L 78.142794 91.470411 
L 78.494916 90.539696 
L 78.399762 90.161269 
L 78.098283 89.970056 
L 77.515777 89.947018 
L 76.931095 90.069457 
L 75.669014 90.558051 
L 74.616509 91.108755 
L 72.251892 92.665885 
L 70.172706 94.33237 
L 68.488596 95.870515 
L 66.164277 98.28054 
L 63.689483 101.267971 
L 61.208475 104.857272 
L 59.615276 107.677447 
L 58.887957 109.211242 
L 57.969913 111.635692 
L 57.798771 112.21863 
L 57.446623 113.867477 
L 57.355704 115.450375 
L 57.882669 117.389121 
L 58.786316 118.247988 
L 59.737105 118.560954 
L 61.569012 118.487439 
L 64.080473 117.667155 
L 66.02692 116.698022 
L 68.235005 115.358305 
L 72.547179 112.212011 
L 76.332989 109.021347 
L 81.809818 103.877429 
L 84.581353 101.081765 
L 90.77309 94.472873 
L 98.511268 86.005013 
L 99.164062 85.431144 
L 99.678591 85.348991 
L 99.424788 86.288413 
L 96.547275 91.9245 
L 92.351614 99.208058 
L 88.191501 105.97936 
L 85.525143 110.041101 
L 81.403953 115.509403 
L 80.36404 116.541913 
L 80.36404 116.541913 
" style="fill:none;stroke:#000000;stroke-linecap:square;stroke-opacity:0.7;stroke-width:1.2;"/>
   </g>
   <g id="line2d_5">
    <path clip-path="url(#p6d34b551d5)" d="M 80.00865 68.326066 
L 86.229986 60.971452 
L 84.504818 61.837411 
L 79.695127 64.502824 
L 76.567185 66.39129 
L 71.893093 69.570409 
L 68.673155 72.131534 
L 65.248833 75.404391 
L 63.592479 77.324208 
L 62.672536 78.547637 
L 61.154934 80.993598 
L 60.193897 83.129182 
L 59.566041 84.913324 
L 59.148075 84.339233 
L 55.485917 76.543265 
L 55.319592 75.490749 
L 55.494262 74.889866 
L 55.803851 74.636724 
L 56.247375 74.534897 
L 56.977999 74.606962 
L 58.004215 74.958893 
L 58.990662 75.518589 
L 59.708564 76.222965 
L 59.778633 76.658898 
L 59.563149 76.879781 
L 59.032198 77.030847 
L 58.187159 77.047535 
L 56.375455 76.811891 
L 56.465758 76.915747 
L 58.918445 78.801202 
L 60.769848 80.560751 
L 62.523099 82.542257 
L 63.940479 84.41798 
L 65.005159 86.037141 
L 66.598697 88.976635 
L 67.501283 90.812947 
L 67.595398 90.519522 
L 68.00738 88.334081 
L 68.708779 85.774708 
L 70.223729 81.737637 
L 71.705909 78.528297 
L 73.79744 74.586668 
L 78.087458 67.660493 
L 81.567018 62.756977 
L 85.456652 57.828724 
L 88.41172 54.423937 
L 92.178781 50.483192 
L 94.979286 47.843023 
L 97.9748 45.302562 
L 99.95776 43.791442 
L 102.944775 41.794595 
L 104.848123 40.715155 
L 106.486914 39.920197 
L 109.192276 38.919534 
L 111.463652 38.43686 
L 115.96978 38.860886 
L 118.259488 40.266892 
L 119.647218 41.964761 
L 120.402531 43.509779 
L 121.151335 48.723833 
L 120.476032 52.384578 
L 119.102372 55.399574 
L 118.340815 56.508258 
L 116.93564 58.04919 
L 110.489472 61.203354 
L 107.428728 61.511842 
L 103.624226 61.261043 
L 101.083097 60.788828 
L 101.083097 60.788828 
" style="fill:none;stroke:#000000;stroke-linecap:square;stroke-opacity:0.7;stroke-width:1.2;"/>
   </g>
   <g id="line2d_6">
    <path clip-path="url(#p6d34b551d5)" d="M 204.263831 263.127273 
L 200.117008 253.187548 
L 197.097077 242.521674 
L 196.217545 235.824592 
L 196.167235 233.228377 
L 196.957945 227.202477 
L 197.565784 225.332232 
L 198.23389 223.8322 
L 199.393785 221.925686 
L 201.274282 219.823389 
L 204.88907 217.472318 
L 207.538205 216.536261 
L 210.153007 216.034182 
L 211.961623 215.879587 
L 215.356806 215.941264 
L 218.410622 216.341873 
L 225.847939 218.616084 
L 228.527533 219.959531 
L 230.996481 221.556511 
L 232.722482 222.982205 
L 233.762741 224.041517 
L 235.213588 226.018988 
L 235.815652 227.269117 
L 236.211137 228.79188 
L 236.235564 229.983538 
L 236.169518 230.438292 
L 235.904239 231.314284 
L 235.461082 232.126763 
L 234.998759 232.70163 
L 234.357783 233.286484 
L 232.968676 234.1327 
L 230.854904 234.89768 
L 227.768653 235.563339 
L 221.276818 236.780584 
L 217.51171 237.755302 
L 213.6569 238.992903 
L 204.166409 242.274895 
L 203.084444 242.50648 
L 201.873041 242.618072 
L 200.737607 242.416281 
L 200.135253 241.984222 
L 199.940089 241.70465 
L 199.679531 240.89272 
L 199.651032 239.827486 
L 199.854137 238.433918 
L 200.208353 237.008347 
L 201.202293 233.994815 
L 203.176621 228.98596 
L 211.116269 210.24237 
L 212.180777 208.104853 
L 212.520865 207.751412 
L 212.740055 207.818049 
L 213.012448 208.745541 
L 213.300887 211.6907 
L 213.841706 219.833004 
L 213.887136 223.954681 
L 213.704865 225.995529 
L 213.438007 227.280216 
L 212.934541 228.558136 
L 212.474864 229.211561 
L 211.868133 229.693534 
L 211.215531 229.89438 
L 210.430697 229.791201 
L 209.75119 229.38398 
L 209.317936 228.903427 
L 208.885243 228.048674 
L 208.671738 226.742498 
L 208.829705 225.478862 
L 208.949509 225.073255 
L 209.52829 223.846181 
L 209.85566 223.366338 
L 210.897645 222.275372 
L 211.882827 221.612884 
L 212.742713 221.244268 
L 213.859784 221.025513 
L 215.473614 221.271731 
L 216.471021 221.873082 
L 217.135639 222.583613 
L 217.968481 224.175733 
L 218.395503 225.819149 
L 218.494835 231.972319 
L 217.733751 239.98812 
L 217.800213 242.210278 
L 218.866524 244.899912 
L 219.262485 245.233073 
L 219.89116 245.555779 
L 220.892573 245.766204 
L 222.494943 245.677857 
L 224.445224 245.179003 
L 224.445224 245.179003 
" style="fill:none;stroke:#000000;stroke-linecap:square;stroke-opacity:0.7;stroke-width:1.2;"/>
   </g>
   <g id="line2d_7">
    <path clip-path="url(#p6d34b551d5)" d="M 214.530996 199.699894 
L 217.363301 204.448904 
L 219.634693 207.348198 
L 222.566395 209.419781 
L 223.752214 209.583946 
L 225.370462 209.062534 
L 227.907978 206.275648 
L 229.315335 203.578476 
L 230.833256 199.658175 
L 232.06835 195.616406 
L 232.920657 192.318734 
L 233.898803 187.916198 
L 235.103071 181.225983 
L 235.816255 176.101322 
L 236.27766 171.689917 
L 236.633536 165.232666 
L 236.544593 161.12321 
L 236.329846 159.226403 
L 235.95058 157.735702 
L 235.794637 157.405879 
L 235.465083 157.024113 
L 235.224435 156.947011 
L 234.84057 157.090809 
L 234.392191 157.592877 
L 233.699587 158.94629 
L 232.970124 161.02606 
L 232.172749 163.999913 
L 231.053016 169.312058 
L 228.472908 182.778929 
L 227.704758 185.149473 
L 227.036623 186.417634 
L 226.472927 187.034117 
L 225.932862 187.29785 
L 225.592226 187.300498 
L 225.097281 187.012302 
L 224.736548 186.419738 
L 224.541824 185.818287 
L 224.166295 183.659074 
L 223.515245 179.914592 
L 222.702233 176.955639 
L 221.856175 174.701524 
L 220.710486 172.309583 
L 219.212421 169.857161 
L 218.07613 168.355852 
L 216.701568 166.907082 
L 215.886807 166.328742 
L 215.724349 166.363079 
L 215.730291 166.418239 
L 216.014366 166.880559 
L 216.965492 167.884622 
L 218.707174 169.374707 
L 221.538249 171.422757 
L 224.582726 173.292975 
L 226.487622 174.294665 
L 228.669182 175.22556 
L 230.118002 175.600845 
L 230.756611 175.562511 
L 230.928504 175.365044 
L 230.909352 175.210314 
L 230.762933 174.9599 
L 230.052942 174.360811 
L 229.253338 173.938767 
L 227.833728 173.493255 
L 227.008978 173.378796 
L 225.81212 173.403777 
L 224.892928 173.600512 
L 223.561329 174.262447 
L 222.882506 174.866242 
L 222.39771 175.492038 
L 221.671128 177.171148 
L 221.45086 178.57629 
L 221.453458 179.688259 
L 221.784073 181.616086 
L 222.394126 183.145633 
L 223.111578 184.119923 
L 223.550356 184.450588 
L 224.492518 184.652223 
L 225.247012 184.436727 
L 225.802253 184.131987 
L 227.33071 182.929087 
L 229.010696 181.317424 
L 231.486273 178.716664 
L 235.647988 173.942735 
L 237.319758 171.883405 
L 240.219857 168.107326 
L 240.219857 168.107326 
" style="fill:none;stroke:#000000;stroke-linecap:square;stroke-opacity:0.7;stroke-width:1.2;"/>
   </g>
   <g id="line2d_8">
    <path clip-path="url(#p6d34b551d5)" d="M 245.453453 142.634635 
L 238.625232 143.939147 
L 228.319028 145.17531 
L 221.136903 145.048891 
L 218.211315 144.520419 
L 216.058942 143.78665 
L 214.934854 143.203958 
L 213.534902 142.11064 
L 212.694878 140.999241 
L 212.158616 139.140478 
L 212.563828 137.435123 
L 213.219816 136.73703 
L 213.545901 136.570763 
L 214.135151 136.456327 
L 215.149035 136.681061 
L 215.948094 137.160355 
L 216.819118 137.936867 
L 218.037086 139.391012 
L 219.166683 141.033748 
L 221.625022 145.147806 
L 225.285865 151.394513 
L 227.780785 155.186946 
L 229.821424 157.857226 
L 231.289354 159.479829 
L 232.826714 160.834073 
L 233.555966 161.313812 
L 234.615825 161.741495 
L 235.245331 161.769608 
L 235.642198 161.646627 
L 236.168829 161.173701 
L 236.420493 160.673685 
L 236.640636 159.562434 
L 236.594792 158.020901 
L 236.250257 156.230113 
L 235.51797 154.054968 
L 234.658147 152.227906 
L 233.199816 149.870088 
L 231.435064 147.671163 
L 229.435764 145.673292 
L 227.84887 144.317995 
L 223.782946 141.273226 
L 221.423608 139.480623 
L 219.384799 137.659507 
L 217.901222 135.965335 
L 216.818873 134.305549 
L 216.108069 132.750713 
L 215.752283 131.552127 
L 215.569485 130.246362 
L 215.617907 129.212869 
L 215.854899 128.410022 
L 216.08378 128.055051 
L 216.411192 127.799116 
L 216.924737 127.730474 
L 217.49766 127.983518 
L 217.982701 128.430383 
L 218.73636 129.574081 
L 219.31888 130.957664 
L 219.80472 132.719399 
L 220.168623 135.121513 
L 220.257923 136.664437 
L 220.080277 140.098626 
L 219.866853 141.382794 
L 219.182628 143.70572 
L 218.606843 144.773838 
L 218.245372 145.154621 
L 217.893594 145.270837 
L 217.660326 145.08485 
L 217.551279 144.6362 
L 217.601296 143.942819 
L 217.896943 142.916996 
L 218.485209 141.724839 
L 219.432194 140.42792 
L 220.616022 139.289849 
L 222.104379 138.302189 
L 223.552361 137.670675 
L 225.467609 137.216905 
L 226.843397 137.116913 
L 228.644433 137.241212 
L 230.577735 137.682861 
L 232.326268 138.366995 
L 233.955579 139.287785 
L 234.893844 139.977969 
L 236.185868 141.219401 
L 237.340341 142.454604 
L 237.436411 142.332275 
L 237.774665 141.149974 
L 238.134857 138.300933 
L 238.163815 136.169511 
L 238.035925 134.34886 
L 237.349715 130.634192 
L 236.730414 128.583789 
L 235.417428 125.365971 
L 235.417428 125.365971 
" style="fill:none;stroke:#000000;stroke-linecap:square;stroke-opacity:0.7;stroke-width:1.2;"/>
   </g>
   <g id="line2d_9">
    <path clip-path="url(#p6d34b551d5)" d="M 188.534821 119.191651 
L 192.190654 106.264902 
L 193.77301 101.017463 
L 195.269641 95.295901 
L 195.416467 94.265257 
L 195.38027 93.276658 
L 195.219237 92.969247 
L 195.039099 92.872324 
L 194.684708 92.913247 
L 193.989548 93.333781 
L 193.039667 94.204697 
L 190.556332 97.082226 
L 181.202839 109.123127 
L 180.658953 109.950274 
L 179.693806 111.873094 
L 179.350263 113.03852 
L 179.205283 115.156343 
L 179.532848 116.888783 
L 180.275256 118.630822 
L 181.909308 120.85142 
L 183.086189 121.961205 
L 184.753681 123.183943 
L 186.553943 124.209625 
L 189.236156 125.366626 
L 191.973352 126.230469 
L 198.06762 127.380049 
L 201.706905 127.668363 
L 204.815347 127.677637 
L 207.552766 127.434616 
L 209.260797 127.056428 
L 210.242938 126.640293 
L 210.787028 126.216599 
L 211.115226 125.62774 
L 211.161605 125.055394 
L 211.033158 122.872601 
L 211.230184 122.541061 
L 211.808244 122.06959 
L 212.505435 121.77235 
L 213.782789 121.513624 
L 214.950471 121.48893 
L 215.851556 121.664064 
L 216.260227 122.040886 
L 216.163467 122.354323 
L 215.470793 122.901635 
L 214.318013 123.404595 
L 213.032288 123.761427 
L 211.047726 123.970231 
L 210.122949 123.878653 
L 209.335278 123.643089 
L 208.371827 122.989113 
L 207.934368 122.416727 
L 207.433153 121.147652 
L 207.185439 119.350956 
L 207.166454 117.458773 
L 207.472074 108.692776 
L 207.388686 107.822995 
L 206.919587 106.247515 
L 206.23968 106.028235 
L 206.026326 106.218263 
L 205.618953 107.06787 
L 205.500995 107.700104 
L 205.514606 108.717639 
L 205.669041 109.426308 
L 205.918355 110.045662 
L 206.807179 111.216629 
L 212.02444 112.840488 
L 212.926206 112.84302 
L 218.824245 112.136752 
L 223.348299 111.132059 
L 229.131712 109.597319 
L 242.949983 105.787204 
L 251.664634 103.867683 
L 255.847987 103.269144 
L 264.390631 103.716465 
L 265.700329 104.406356 
L 266.146597 104.809253 
L 266.775337 105.997637 
L 266.775337 105.997637 
" style="fill:none;stroke:#000000;stroke-linecap:square;stroke-opacity:0.7;stroke-width:1.2;"/>
   </g>
   <g id="line2d_10">
    <path clip-path="url(#p6d34b551d5)" d="M 208.116348 91.154424 
L 204.377802 90.294884 
L 198.035655 88.222447 
L 194.591368 86.50512 
L 192.336801 84.994895 
L 189.989811 82.901801 
L 186.895407 78.567422 
L 185.845776 76.206875 
L 185.374879 74.808883 
L 184.629401 71.081483 
L 184.61124 69.693361 
L 184.981915 68.105023 
L 185.320836 67.542383 
L 185.936673 66.945968 
L 186.812745 66.469588 
L 188.394246 66.040959 
L 189.643007 65.879462 
L 192.474914 65.759887 
L 199.472116 65.908885 
L 204.573258 66.021066 
L 214.000207 65.773445 
L 216.019726 65.602428 
L 220.737003 64.980713 
L 224.842138 64.125319 
L 228.370454 63.085197 
L 230.572968 62.252803 
L 235.494645 59.656636 
L 236.91113 58.622953 
L 237.586681 58.057089 
L 239.626059 55.836491 
L 240.210692 54.869683 
L 240.641749 53.622238 
L 240.514962 52.362025 
L 240.068492 51.792397 
L 239.643439 51.527266 
L 238.754657 51.270981 
L 236.403516 51.353692 
L 235.843691 51.457731 
L 233.591133 52.063102 
L 230.673961 53.137682 
L 221.747077 56.814715 
L 221.506511 56.781758 
L 221.397292 56.652329 
L 221.496 56.294353 
L 222.073255 55.55496 
L 223.092137 54.602741 
L 225.466415 52.942816 
L 226.738573 52.362182 
L 227.552304 52.206925 
L 228.005632 52.314434 
L 228.209522 52.538739 
L 228.279652 52.933861 
L 228.085718 53.709499 
L 227.511176 54.769521 
L 226.456541 56.138314 
L 224.970016 57.634679 
L 223.321873 58.966592 
L 221.535052 60.125829 
L 219.493636 61.138801 
L 217.183862 61.905314 
L 215.160658 62.239652 
L 212.997808 62.221794 
L 210.966169 61.805168 
L 208.736134 60.80553 
L 207.55357 59.981802 
L 206.537781 59.057808 
L 205.994625 58.45746 
L 204.834807 56.809343 
L 204.191339 55.520826 
L 203.636655 53.784722 
L 203.473642 52.646176 
L 203.49267 51.619609 
L 204.381057 49.596146 
L 205.061116 49.132377 
L 205.954632 48.885061 
L 207.066886 48.890343 
L 208.475964 49.196015 
L 210.502436 49.995199 
L 212.600536 51.099565 
L 215.980839 53.205045 
L 225.388947 59.359952 
L 229.716624 61.701401 
L 233.999615 63.637848 
L 235.623058 64.386273 
L 237.80121 65.675664 
L 238.797556 66.549173 
L 239.587406 67.535311 
L 240.095245 68.440851 
L 240.784364 70.636847 
L 240.911753 71.496675 
L 240.995589 73.562793 
L 240.830702 75.694449 
L 240.505643 77.637404 
L 239.41894 81.578363 
L 237.933681 85.248369 
L 234.583198 91.065265 
L 234.583198 91.065265 
" style="fill:none;stroke:#000000;stroke-linecap:square;stroke-opacity:0.7;stroke-width:1.2;"/>
   </g>
   <g id="line2d_11">
    <path clip-path="url(#p6d34b551d5)" d="M 348.358383 253.593237 
L 358.564483 240.552167 
L 362.31821 236.112004 
L 367.048386 230.844344 
L 369.737766 228.039301 
L 372.735937 225.109501 
L 377.151463 221.302557 
L 379.174352 219.861732 
L 380.568444 219.052125 
L 381.735674 218.558781 
L 382.870451 218.370131 
L 383.299868 218.440163 
L 383.679071 218.629668 
L 384.01379 218.994649 
L 384.296558 219.729826 
L 384.400433 221.213886 
L 384.166048 224.116643 
L 384.095869 226.098524 
L 384.276019 227.120882 
L 384.148687 226.90066 
L 383.555746 226.212462 
L 382.219097 225.060546 
L 379.873786 223.414036 
L 375.392999 220.623795 
L 368.555135 216.33601 
L 364.190132 213.302024 
L 360.083354 210.150309 
L 357.104029 207.646563 
L 356.345871 206.753134 
L 356.265352 206.329365 
L 356.388907 206.080573 
L 356.72097 205.803667 
L 357.673364 205.361287 
L 359.617675 204.75161 
L 362.802931 204.026584 
L 365.32158 203.67676 
L 367.715576 203.601101 
L 369.320963 203.746882 
L 370.593611 204.015787 
L 371.649533 204.374977 
L 372.91963 205.031802 
L 373.336284 205.319033 
L 374.551941 206.465336 
L 375.508891 207.943659 
L 376.011704 209.223975 
L 376.34856 210.771365 
L 376.463818 212.26592 
L 376.368423 214.282018 
L 375.946722 216.755125 
L 375.089587 219.791165 
L 373.392712 224.432124 
L 372.558032 227.097053 
L 372.453112 228.485249 
L 372.709983 229.201562 
L 373.520384 229.74045 
L 374.435311 229.839544 
L 375.463779 229.727657 
L 377.689806 229.093987 
L 379.105695 228.515116 
L 382.105792 226.952549 
L 384.391996 225.472928 
L 386.118502 224.175523 
L 387.837633 222.70229 
L 389.311697 221.26208 
L 391.89419 218.172233 
L 393.219003 216.114632 
L 394.321711 213.799152 
L 394.518497 213.226114 
L 394.803012 211.781373 
L 394.612141 210.906053 
L 394.337162 210.716109 
L 393.737604 210.761542 
L 392.873899 211.204658 
L 391.393727 212.349256 
L 381.699273 221.175722 
L 378.944421 223.27636 
L 374.885544 225.816166 
L 370.513932 227.706321 
L 370.513932 227.706321 
" style="fill:none;stroke:#000000;stroke-linecap:square;stroke-opacity:0.7;stroke-width:1.2;"/>
   </g>
   <g id="line2d_12">
    <path clip-path="url(#p6d34b551d5)" d="M 374.090774 188.457388 
L 366.160542 186.468591 
L 361.014727 183.061048 
L 359.239242 180.194233 
L 358.665491 176.884225 
L 358.953735 174.545112 
L 359.354639 173.203105 
L 360.16074 171.448229 
L 360.656466 170.649077 
L 361.389639 169.702065 
L 362.579421 168.606649 
L 363.591437 167.820511 
L 363.394767 167.531191 
L 362.347913 166.641793 
L 360.727508 165.496821 
L 358.826201 164.459452 
L 357.200196 163.857422 
L 355.926805 163.581136 
L 354.411803 163.499796 
L 353.235356 163.663912 
L 352.303183 164.005369 
L 351.752758 164.371228 
L 351.23211 165.0717 
L 351.113139 165.705737 
L 351.160042 166.126279 
L 351.504505 167.048857 
L 352.507635 168.65772 
L 353.987293 171.012096 
L 354.673697 172.472626 
L 355.181911 174.024567 
L 355.488426 175.614215 
L 355.604482 177.066024 
L 355.494482 179.597028 
L 355.203982 181.448203 
L 354.407394 184.495228 
L 353.657567 186.596252 
L 352.436061 189.374066 
L 350.813274 192.362023 
L 349.575341 194.191633 
L 349.212867 194.547379 
L 349.224068 194.470412 
L 349.608668 193.830424 
L 350.730331 192.385491 
L 352.450756 190.514523 
L 354.144037 188.921441 
L 356.651062 186.922828 
L 358.546159 185.676896 
L 360.334951 184.713694 
L 361.971993 184.028563 
L 364.251519 183.440826 
L 364.778638 183.377335 
L 366.83141 183.473863 
L 367.898233 183.817389 
L 368.883974 184.417596 
L 369.630796 185.163835 
L 369.835299 185.436146 
L 370.532976 186.760921 
L 370.897569 187.969538 
L 371.168025 189.923396 
L 371.133886 192.834416 
L 370.71515 196.321944 
L 370.186821 200.200822 
L 370.287585 200.480681 
L 370.334427 200.454661 
L 370.499949 200.214094 
L 370.959989 199.021581 
L 371.607605 196.513964 
L 372.30039 192.49611 
L 372.795505 187.971591 
L 373.195731 181.819104 
L 373.812238 169.492863 
L 374.426919 163.487922 
L 375.40176 158.362504 
L 376.123774 155.856996 
L 376.866464 153.854043 
L 378.270264 151.002553 
L 379.865616 148.648678 
L 381.736136 146.611018 
L 384.398367 144.557665 
L 387.122004 143.146699 
L 390.802986 142.031654 
L 395.422776 141.686103 
L 399.616266 142.428679 
L 401.583764 143.234985 
L 404.217039 145.051088 
L 404.217039 145.051088 
" style="fill:none;stroke:#000000;stroke-linecap:square;stroke-opacity:0.7;stroke-width:1.2;"/>
   </g>
   <g id="line2d_13">
    <path clip-path="url(#p6d34b551d5)" d="M 347.304166 163.853894 
L 352.10977 155.569303 
L 355.978391 148.155202 
L 367.127613 125.567507 
L 368.879247 122.47143 
L 370.401648 120.025014 
L 371.836974 117.969996 
L 373.044726 116.464494 
L 374.329293 115.135496 
L 375.255395 114.397586 
L 376.447862 113.845941 
L 377.291953 113.971981 
L 377.661952 114.417577 
L 377.865679 115.369424 
L 377.698327 117.02576 
L 377.090371 119.11047 
L 376.356952 120.909604 
L 375.810049 122.065529 
L 373.762657 125.7426 
L 371.384222 129.351255 
L 368.506294 133.203692 
L 364.375908 138.103288 
L 360.84101 141.841505 
L 357.956403 144.581358 
L 355.692285 146.436264 
L 354.802928 146.921595 
L 354.721689 146.872896 
L 354.813327 146.60495 
L 355.702325 145.477331 
L 357.747341 143.385008 
L 360.903511 140.493744 
L 365.451784 136.71668 
L 369.20417 133.940863 
L 372.071168 132.129918 
L 373.947978 131.197734 
L 375.30744 130.746258 
L 376.46974 130.632858 
L 377.282011 130.843652 
L 377.619869 131.068087 
L 378.170763 131.865149 
L 378.369002 132.729776 
L 378.323119 133.765918 
L 378.105698 134.502385 
L 377.675694 135.206861 
L 377.262758 135.615016 
L 374.283484 137.993059 
L 373.542675 138.940073 
L 372.63921 140.374067 
L 371.269703 143.054134 
L 368.412599 148.917784 
L 367.672592 150.084249 
L 366.854789 151.093945 
L 365.913695 151.846759 
L 365.206051 152.082047 
L 364.555712 151.988487 
L 364.282144 151.835969 
L 363.735513 151.244743 
L 363.319099 150.372687 
L 362.932152 148.670595 
L 362.798061 146.753977 
L 362.899432 143.90032 
L 363.345074 140.010899 
L 363.705679 137.762808 
L 363.670503 138.506111 
L 363.639999 140.245503 
L 363.846174 144.440547 
L 363.985129 145.766604 
L 364.652471 150.017494 
L 365.815716 154.874703 
L 366.921878 158.385575 
L 368.429227 162.304843 
L 369.990659 165.712971 
L 371.179113 167.992178 
L 373.59547 171.988593 
L 376.676496 176.066472 
L 379.476187 178.823606 
L 382.481413 180.494629 
L 383.675266 180.578256 
L 385.052163 179.909866 
L 386.025745 178.437457 
L 386.025745 178.437457 
" style="fill:none;stroke:#000000;stroke-linecap:square;stroke-opacity:0.7;stroke-width:1.2;"/>
   </g>
   <g id="line2d_14">
    <path clip-path="url(#p6d34b551d5)" d="M 358.839507 98.321187 
L 358.272111 96.017115 
L 357.930652 93.455195 
L 358.053936 90.672951 
L 358.542027 89.172424 
L 358.852699 88.672087 
L 359.707162 87.899465 
L 360.363342 87.61275 
L 361.114777 87.463868 
L 362.783593 87.536905 
L 364.276252 87.898662 
L 365.200775 88.234798 
L 366.53887 88.925766 
L 367.132384 89.411192 
L 367.527538 90.068337 
L 367.571747 90.446289 
L 367.447972 91.01967 
L 366.997535 91.865083 
L 365.953405 93.244206 
L 363.969249 95.452783 
L 363.182859 96.152439 
L 362.276581 96.644256 
L 361.845253 96.679216 
L 361.276713 96.441935 
L 360.722462 95.839724 
L 360.067156 94.64032 
L 359.309978 92.68521 
L 359.127145 92.120731 
L 359.488254 93.560808 
L 359.873787 95.823794 
L 359.89905 97.265345 
L 359.755053 97.459302 
L 359.586219 97.212283 
L 359.340751 96.386536 
L 359.052126 94.620437 
L 358.857089 91.964228 
L 358.857692 91.472679 
L 358.839455 96.823404 
L 358.571216 99.954711 
L 358.17374 101.80769 
L 357.873347 102.579485 
L 357.206958 103.583827 
L 356.648392 104.102805 
L 355.482616 104.881363 
L 351.76015 106.957816 
L 350.473787 107.473013 
L 349.601171 107.637593 
L 348.937686 107.567473 
L 348.44503 107.246705 
L 348.216269 106.622537 
L 348.292014 105.974783 
L 348.864172 104.756469 
L 350.587698 102.742002 
L 351.888271 101.600405 
L 353.66801 100.256625 
L 355.929738 98.757819 
L 358.199647 97.398289 
L 366.410035 93.098204 
L 374.463427 89.285286 
L 387.372978 83.252766 
L 387.372978 83.252766 
" style="fill:none;stroke:#000000;stroke-linecap:square;stroke-opacity:0.7;stroke-width:1.2;"/>
   </g>
   <g id="line2d_15">
    <path clip-path="url(#p6d34b551d5)" d="M 358.11187 86.726251 
L 354.808605 86.263939 
L 354.677943 84.363122 
L 356.062545 81.22174 
L 359.579751 75.584226 
L 362.146496 71.704149 
L 367.284484 63.460332 
L 368.886556 60.57374 
L 371.337234 55.564107 
L 372.883793 51.734026 
L 373.91422 48.583019 
L 374.82804 44.798965 
L 375.360852 40.736888 
L 375.426871 38.858063 
L 375.285115 36.142603 
L 374.836852 33.557183 
L 373.872443 30.72196 
L 372.821143 28.834671 
L 371.296278 27.054759 
L 370.000465 26.069861 
L 368.395518 25.308258 
L 366.918204 24.954652 
L 365.618841 24.872727 
L 364.321046 24.97992 
L 360.891035 26.068494 
L 359.438179 26.855639 
L 358.095755 27.749136 
L 356.140464 29.336843 
L 354.139228 31.325129 
L 351.855732 34.082174 
L 349.274628 37.941731 
L 347.434899 41.331904 
L 345.702504 45.290541 
L 345.119187 46.901393 
L 344.199172 50.019375 
L 343.618231 52.993021 
L 343.440507 55.845357 
L 343.601393 57.397817 
L 343.861106 58.337066 
L 344.48387 59.411853 
L 344.875842 59.767331 
L 345.578635 60.109993 
L 346.193454 60.220268 
L 347.290992 60.166614 
L 349.240202 59.713554 
L 351.600486 59.167025 
L 352.349528 59.160782 
L 352.712829 59.322366 
L 352.854108 59.671691 
L 352.742426 60.860829 
L 352.774658 61.788043 
L 353.020654 62.742149 
L 353.580761 63.901742 
L 354.458314 65.180437 
L 356.282208 67.267841 
L 359.823504 70.755356 
L 363.046155 74.010944 
L 364.158875 75.382553 
L 364.420936 75.996951 
L 364.252736 75.883654 
L 363.840408 75.325316 
L 363.3116 74.198342 
L 362.863324 72.510402 
L 362.656509 70.115588 
L 362.739844 68.056214 
L 363.130681 64.838417 
L 363.861879 59.317979 
L 364.005419 56.905531 
L 363.9609 54.195177 
L 363.729243 51.846179 
L 363.091161 48.49728 
L 362.459963 46.194889 
L 360.991004 41.979236 
L 359.507068 37.989666 
L 359.121948 36.476849 
L 359.067649 35.82776 
L 359.205162 35.077766 
L 359.44093 34.711998 
L 360.193345 34.266321 
L 361.048454 34.105976 
L 363.036109 34.124035 
L 368.344677 34.757272 
L 374.031543 35.410555 
L 380.623018 35.751559 
L 380.623018 35.751559 
" style="fill:none;stroke:#000000;stroke-linecap:square;stroke-opacity:0.7;stroke-width:1.2;"/>
   </g>
   <g id="line2d_16">
    <path clip-path="url(#p6d34b551d5)" d="M 525.452713 252.535628 
L 516.700995 248.709972 
L 498.186777 234.96582 
L 496.632257 232.268146 
L 495.516749 229.186762 
L 494.946785 226.031737 
L 494.669653 224.061426 
L 494.365721 223.878935 
L 494.217834 224.359317 
L 494.16811 225.104824 
L 494.245288 225.960194 
L 494.585702 227.277668 
L 495.359255 228.907479 
L 495.674716 229.403948 
L 497.031921 231.067959 
L 498.65342 232.52245 
L 499.738153 233.308327 
L 502.564346 234.902071 
L 504.345325 235.652676 
L 506.021883 236.209853 
L 508.598461 236.796873 
L 511.022415 237.033743 
L 512.850539 236.97538 
L 513.625662 236.877285 
L 515.947904 236.255115 
L 516.555987 235.992895 
L 518.368904 234.882537 
L 519.433513 233.934852 
L 520.591601 232.559294 
L 521.775125 230.636464 
L 522.479041 229.140803 
L 523.415678 226.521297 
L 524.004682 224.244696 
L 524.516266 221.195042 
L 524.65692 218.858242 
L 524.458391 216.864635 
L 524.162903 216.044806 
L 523.521734 215.358482 
L 523.100848 215.217114 
L 519.668317 216.575467 
L 516.145125 219.22802 
L 507.561294 225.982024 
L 501.977133 229.791043 
L 499.300903 231.373592 
L 497.715798 232.226432 
L 494.091476 233.911641 
L 491.320871 234.913521 
L 489.269415 235.460219 
L 485.389871 235.855045 
L 483.951917 235.658161 
L 482.864784 235.26064 
L 482.233033 234.834913 
L 481.601078 234.009649 
L 481.362628 233.014439 
L 481.615075 231.475875 
L 482.40375 229.830479 
L 484.315831 226.779816 
L 484.338975 226.502447 
L 484.119967 226.234166 
L 483.551971 226.12945 
L 482.316694 226.238359 
L 481.186013 226.451586 
L 477.399947 227.430792 
L 472.508785 229.002426 
L 468.703441 230.444162 
L 465.206575 232.016438 
L 462.423656 233.562273 
L 460.854086 234.647373 
L 459.753552 235.578667 
L 458.299058 237.297824 
L 457.614301 238.789083 
L 457.439885 239.804555 
L 457.435837 240.248035 
L 457.56848 241.179993 
L 457.838999 241.99014 
L 458.378111 242.994499 
L 459.527087 244.393239 
L 462.17457 246.416295 
L 464.24478 247.483834 
L 466.149132 248.224603 
L 467.414895 248.615233 
L 472.132022 249.487402 
L 474.10918 249.611608 
L 477.976294 249.478122 
L 479.637982 249.271799 
L 483.335672 248.493795 
L 484.831735 248.052945 
L 486.959621 247.298656 
L 491.672422 245.080304 
L 494.409607 243.431001 
L 499.573695 239.552035 
L 504.462057 234.897427 
L 512.33809 225.268991 
L 516.141852 219.705459 
L 526.144685 203.505871 
L 529.03674 199.160794 
L 530.81471 196.889388 
L 531.869921 195.808519 
L 532.614794 195.254355 
L 533.601969 195.163684 
L 533.812745 195.523581 
L 533.882736 196.093346 
L 533.882736 196.093346 
" style="fill:none;stroke:#000000;stroke-linecap:square;stroke-opacity:0.7;stroke-width:1.2;"/>
   </g>
   <g id="line2d_17">
    <path clip-path="url(#p6d34b551d5)" d="M 484.022545 198.98014 
L 475.719705 192.433457 
L 474.504078 191.265386 
L 471.494933 186.128727 
L 471.507503 185.512413 
L 472.372207 183.481369 
L 473.605087 182.297852 
L 477.724502 180.306634 
L 480.080918 179.72008 
L 481.667661 179.476356 
L 485.203947 179.363635 
L 487.649609 179.754644 
L 489.085426 180.402576 
L 489.370972 180.648011 
L 489.648708 181.043014 
L 489.744077 181.583319 
L 489.661789 181.930774 
L 489.26727 182.557834 
L 487.835591 183.695171 
L 487.234975 184.039563 
L 484.048378 185.452876 
L 481.461097 186.37013 
L 467.17502 191.026612 
L 463.93238 192.355847 
L 461.030971 193.790668 
L 459.08283 194.968366 
L 456.592154 196.946359 
L 455.996627 197.563128 
L 454.765196 199.249984 
L 454.075245 200.930586 
L 453.88779 202.243011 
L 453.990073 203.48642 
L 454.297216 204.545554 
L 454.846297 205.647521 
L 455.508689 206.572739 
L 457.148034 208.132617 
L 458.404307 208.963526 
L 460.138955 209.78773 
L 462.483399 210.43547 
L 464.002321 210.586874 
L 466.069535 210.407607 
L 467.081088 210.113718 
L 468.700662 209.210508 
L 469.323612 208.639927 
L 470.214329 207.41109 
L 470.41375 207.023571 
L 471.083868 205.00673 
L 471.383402 203.074329 
L 471.602495 199.900668 
L 471.737375 198.057047 
L 472.288017 194.72129 
L 472.812762 193.049227 
L 473.610203 191.274829 
L 474.878791 189.222617 
L 475.740324 188.093434 
L 477.524376 186.108027 
L 480.183026 183.61633 
L 483.690401 180.715912 
L 493.917047 172.559668 
L 495.042018 171.420152 
L 494.930698 171.433017 
L 494.012097 172.092529 
L 492.071326 173.72054 
L 486.37596 178.910174 
L 480.902954 183.881443 
L 478.6119 185.688253 
L 477.608393 186.242188 
L 477.467041 186.181041 
L 477.488621 186.143764 
L 477.860971 185.852533 
L 478.220431 185.684728 
L 479.144196 185.457009 
L 480.18923 185.431083 
L 481.831771 185.731853 
L 483.102815 186.166071 
L 485.214454 187.116315 
L 489.486114 189.20299 
L 492.337005 190.289596 
L 493.749007 190.671029 
L 495.837358 191.019051 
L 497.51265 191.10411 
L 498.925759 191.03998 
L 501.833363 190.520865 
L 505.717527 189.036601 
L 508.237523 187.606131 
L 509.829145 186.517194 
L 518.09838 178.53774 
L 522.352127 172.793597 
L 525.116143 168.334303 
L 529.18048 160.36514 
L 531.619112 154.319144 
L 531.619112 154.319144 
" style="fill:none;stroke:#000000;stroke-linecap:square;stroke-opacity:0.7;stroke-width:1.2;"/>
   </g>
   <g id="line2d_18">
    <path clip-path="url(#p6d34b551d5)" d="M 503.588491 159.253853 
L 508.580358 146.506123 
L 512.315398 136.312595 
L 513.208933 130.945737 
L 512.680971 129.75228 
L 512.172639 129.426014 
L 511.222713 129.290457 
L 508.17911 130.169819 
L 505.666672 131.470097 
L 503.837615 132.579873 
L 500.691802 134.701023 
L 496.053147 138.172653 
L 494.538316 139.374878 
L 487.081488 145.661133 
L 481.360656 150.612424 
L 481.504839 150.365985 
L 483.862731 147.663189 
L 490.389775 140.10024 
L 494.768535 135.198493 
L 498.320283 131.597236 
L 501.08722 129.066158 
L 504.535867 126.250879 
L 507.230271 124.3419 
L 508.594234 123.5823 
L 508.765029 123.583423 
L 508.763504 123.63547 
L 508.397065 124.120747 
L 505.923387 126.551262 
L 503.173884 129.293652 
L 500.233356 132.544336 
L 498.042722 135.355467 
L 496.452793 137.795612 
L 495.741879 139.094307 
L 494.731828 141.456656 
L 494.361644 142.749363 
L 494.120688 144.52659 
L 494.1546 145.479636 
L 494.373701 146.535457 
L 494.912748 147.65096 
L 495.105689 147.908499 
L 496.024952 148.714014 
L 496.985289 149.132778 
L 497.825401 149.27042 
L 498.779632 149.199764 
L 499.797636 148.791212 
L 500.170184 148.478064 
L 500.424261 148.110625 
L 500.55293 147.516039 
L 500.295832 146.73 
L 499.525073 145.898592 
L 498.651293 145.307816 
L 496.758494 144.391049 
L 491.822278 142.265952 
L 490.702592 141.411188 
L 490.380189 140.945183 
L 490.276046 140.470457 
L 490.485969 139.950583 
L 491.121048 139.514433 
L 491.775317 139.323576 
L 493.033153 139.231986 
L 494.075564 139.3149 
L 495.80902 139.660944 
L 498.1599 140.429732 
L 501.149692 141.773497 
L 504.30677 143.530061 
L 508.741243 146.425545 
L 513.912626 149.936921 
L 514.427883 149.982653 
L 514.437282 149.677575 
L 514.012868 148.676906 
L 511.795597 144.922928 
L 506.733334 137.036853 
L 504.619439 134.083013 
L 502.889037 132.046995 
L 501.113928 130.48399 
L 499.115199 129.434431 
L 497.693522 129.096827 
L 497.693522 129.096827 
" style="fill:none;stroke:#000000;stroke-linecap:square;stroke-opacity:0.7;stroke-width:1.2;"/>
   </g>
   <g id="line2d_19">
    <path clip-path="url(#p6d34b551d5)" d="M 485.298265 120.666903 
L 485.652848 122.751182 
L 485.556168 125.120985 
L 485.685359 125.922469 
L 485.873073 126.307584 
L 487.111535 126.809422 
L 488.584674 126.457562 
L 490.215978 125.684961 
L 492.286102 124.394323 
L 494.106616 123.065822 
L 496.902683 120.761884 
L 499.563954 118.324193 
L 502.299333 115.598408 
L 505.504101 112.131256 
L 509.547301 107.300698 
L 512.911869 102.758878 
L 515.285041 99.022084 
L 516.490416 96.712314 
L 517.352123 94.492447 
L 517.703708 92.770996 
L 517.73015 92.120933 
L 517.623931 91.175337 
L 517.054176 89.826882 
L 516.142868 88.822674 
L 514.706891 87.894785 
L 512.834378 87.13415 
L 510.749189 86.581587 
L 509.238046 86.310254 
L 507.124888 86.081643 
L 503.868885 86.069184 
L 501.285086 86.397477 
L 498.849961 87.060134 
L 496.905599 87.914213 
L 495.183669 88.993038 
L 493.681705 90.267373 
L 492.117367 92.061377 
L 491.053571 93.680802 
L 490.715187 94.291913 
L 489.502224 97.082885 
L 489.045157 98.541878 
L 488.430306 101.440087 
L 488.211004 103.519434 
L 488.226353 106.278077 
L 488.401951 107.635817 
L 488.815287 109.077468 
L 489.134415 109.62771 
L 489.52833 109.909591 
L 489.78217 109.883793 
L 490.024435 109.691236 
L 490.292076 109.220032 
L 490.584517 108.022573 
L 490.67458 106.345115 
L 490.512723 104.253373 
L 490.029983 101.760552 
L 489.346032 99.496797 
L 488.719146 97.901016 
L 487.570043 95.59041 
L 486.485011 93.663986 
L 486.531251 93.639103 
L 486.852236 93.702931 
L 488.898002 94.29739 
L 490.599505 94.581215 
L 492.458759 94.67472 
L 494.072293 94.583942 
L 496.533711 94.150473 
L 498.676838 93.488428 
L 501.356229 92.288789 
L 503.294184 91.161453 
L 505.628711 89.512798 
L 508.315141 87.231642 
L 510.510532 85.092423 
L 517.33369 78.098707 
L 518.938876 76.950112 
L 519.997351 76.448197 
L 520.80481 76.227483 
L 521.857527 76.169284 
L 522.786198 76.342943 
L 523.547326 76.645008 
L 524.505663 77.230043 
L 525.796054 78.377975 
L 526.664136 79.387809 
L 527.580692 80.676996 
L 529.17032 83.590841 
L 530.322056 86.670824 
L 530.830711 88.90419 
L 531.006606 90.840605 
L 530.940279 92.219193 
L 530.537783 93.984529 
L 530.217842 94.742176 
L 528.667086 96.777542 
L 527.586667 97.598506 
L 526.458667 98.222895 
L 525.270655 98.716663 
L 522.983839 99.356439 
L 520.946202 99.683818 
L 518.563453 99.848128 
L 514.555595 99.704434 
L 514.555595 99.704434 
" style="fill:none;stroke:#000000;stroke-linecap:square;stroke-opacity:0.7;stroke-width:1.2;"/>
   </g>
   <g id="line2d_20">
    <path clip-path="url(#p6d34b551d5)" d="M 507.927196 68.576995 
L 500.104162 64.144242 
L 498.093459 61.385264 
L 497.060609 58.11872 
L 496.958734 55.299228 
L 497.417148 52.481008 
L 497.997028 50.609567 
L 498.961621 48.406479 
L 500.441188 45.96244 
L 501.78336 44.300702 
L 504.502791 42.052894 
L 506.477055 41.258984 
L 507.580732 41.148056 
L 508.401171 41.24903 
L 510.091146 42.122358 
L 510.989255 43.171899 
L 511.809877 44.979814 
L 512.131906 46.41204 
L 512.250857 47.543875 
L 512.168267 50.264428 
L 511.743477 52.664531 
L 510.962007 55.264735 
L 510.025846 57.533858 
L 508.425046 60.561141 
L 506.200148 63.924896 
L 503.933815 66.836072 
L 501.659217 69.431214 
L 500.438441 70.519491 
L 500.157625 70.517494 
L 500.027057 70.232769 
L 499.070668 65.959883 
L 498.655141 64.364354 
L 498.566053 63.179847 
L 498.735441 61.859934 
L 499.149426 60.589387 
L 499.830068 59.2353 
L 500.515312 58.178988 
L 501.776531 56.596385 
L 504.129601 54.272046 
L 506.448543 52.434675 
L 508.085219 51.325213 
L 510.970119 49.66985 
L 513.070054 48.675289 
L 515.591628 47.695738 
L 517.941356 46.987366 
L 520.962388 46.370023 
L 523.284385 46.133223 
L 525.899475 46.143735 
L 527.960761 46.395302 
L 530.080904 46.938681 
L 530.618555 47.134601 
L 532.697502 48.213372 
L 533.392416 48.743973 
L 534.485233 49.949456 
L 535.046359 51.097604 
L 535.18619 51.770699 
L 535.148393 52.709994 
L 534.780304 53.703642 
L 534.206482 54.471253 
L 533.73734 54.901205 
L 532.321829 55.749339 
L 531.840934 55.947231 
L 529.578372 56.530157 
L 526.96039 56.744898 
L 524.653148 56.666978 
L 521.662183 56.293631 
L 518.139013 55.54818 
L 514.711526 54.573318 
L 510.631948 53.179579 
L 506.509794 51.762148 
L 505.389764 51.566204 
L 504.822062 51.665677 
L 504.623476 51.817702 
L 504.414969 52.363042 
L 504.423403 53.159394 
L 504.827059 57.293776 
L 504.720269 58.678987 
L 504.388779 60.881011 
L 504.541702 61.028242 
L 504.733265 61.053736 
L 505.670843 60.746338 
L 507.577206 59.495595 
L 508.496501 58.716156 
L 509.722852 57.51395 
L 511.800052 55.02999 
L 513.584838 52.377253 
L 515.691965 48.460677 
L 518.553595 41.137585 
L 518.553595 41.137585 
" style="fill:none;stroke:#000000;stroke-linecap:square;stroke-opacity:0.7;stroke-width:1.2;"/>
   </g>
   <g id="line2d_21">
    <path clip-path="url(#p6d34b551d5)" d="M 666.009642 242.914541 
L 662.931155 239.304516 
L 661.187541 236.269222 
L 659.598952 231.916293 
L 658.636465 227.28581 
L 658.143361 223.242764 
L 657.640575 217.478939 
L 657.962774 220.546723 
L 658.38932 222.525231 
L 659.048997 224.483385 
L 659.768 225.763781 
L 660.340911 226.326023 
L 660.812508 226.524297 
L 661.416978 226.442403 
L 661.854902 226.143277 
L 662.297457 225.62667 
L 662.969478 224.404593 
L 663.665872 222.515311 
L 664.201555 220.372477 
L 664.395392 218.611946 
L 664.287534 217.668143 
L 663.944961 217.013547 
L 663.372208 216.660245 
L 662.681708 216.56978 
L 661.586002 216.708906 
L 660.546572 216.988121 
L 656.999138 218.313078 
L 652.025694 220.210008 
L 649.861843 220.828883 
L 648.034594 221.12905 
L 646.983158 221.143598 
L 645.648031 220.850487 
L 644.918686 220.391486 
L 644.398859 219.725277 
L 644.208067 219.28142 
L 644.019802 218.202204 
L 644.103494 216.950077 
L 644.475597 215.498075 
L 645.112091 214.03446 
L 645.843059 212.872029 
L 646.555922 212.060433 
L 647.514172 211.39185 
L 647.873401 211.270486 
L 648.339775 211.235079 
L 649.002245 211.48918 
L 649.480475 212.019061 
L 649.894498 213.00174 
L 650.106158 214.266413 
L 650.117618 215.728252 
L 649.92885 217.368031 
L 649.564183 219.019123 
L 648.69366 221.546718 
L 647.648568 223.682853 
L 646.560281 225.404533 
L 645.048508 227.266778 
L 643.795637 228.463549 
L 642.635142 229.333326 
L 641.465838 229.981972 
L 640.529181 230.316151 
L 640.102783 230.400253 
L 639.377981 230.402894 
L 638.718356 230.106286 
L 638.422727 229.573395 
L 638.425753 228.90304 
L 638.793879 227.873185 
L 639.484575 226.762265 
L 640.420503 225.612878 
L 642.07808 223.940704 
L 644.322467 221.998161 
L 648.239626 218.954583 
L 656.067081 213.176168 
L 658.678586 211.504039 
L 661.887616 209.773531 
L 665.065443 208.09562 
L 666.267935 207.209014 
L 666.75069 206.512645 
L 666.529775 205.527032 
L 665.697354 204.866614 
L 663.806568 204.045168 
L 663.806568 204.045168 
" style="fill:none;stroke:#000000;stroke-linecap:square;stroke-opacity:0.7;stroke-width:1.2;"/>
   </g>
   <g id="line2d_22">
    <path clip-path="url(#p6d34b551d5)" d="M 606.234622 191.228802 
L 615.483613 190.918202 
L 626.008986 189.948271 
L 636.995189 188.253748 
L 640.612265 187.706447 
L 643.675028 187.40019 
L 646.893047 187.539091 
L 647.831195 187.804595 
L 648.508377 188.150269 
L 649.101696 188.678488 
L 649.572904 189.56293 
L 649.685953 191.257436 
L 649.563602 191.986728 
L 649.100812 193.525397 
L 647.752018 196.378226 
L 646.334393 198.680501 
L 644.183003 201.582723 
L 642.320507 203.672659 
L 640.948661 204.944517 
L 639.375387 205.996807 
L 638.56514 206.248654 
L 638.14043 206.237609 
L 637.669918 206.020991 
L 637.226563 205.40725 
L 636.948638 204.358184 
L 636.875956 203.628325 
L 636.924497 201.106875 
L 637.330721 197.347661 
L 638.41866 189.688197 
L 639.079444 187.256644 
L 639.962207 184.898537 
L 641.506177 181.406696 
L 645.628259 172.330102 
L 646.867483 168.87829 
L 647.226739 167.483414 
L 647.445382 165.871026 
L 647.354614 164.724167 
L 647.065767 164.011835 
L 646.858884 163.747184 
L 646.034035 163.262686 
L 645.00584 163.153751 
L 643.418015 163.409817 
L 641.942244 163.882632 
L 639.370504 165.004654 
L 635.965939 166.855914 
L 633.148726 168.667902 
L 631.429437 170.023191 
L 630.748746 170.823156 
L 630.641579 171.239642 
L 630.826414 171.543584 
L 631.361252 171.786662 
L 632.862709 172.049308 
L 635.982994 172.516816 
L 637.223502 172.812723 
L 638.675537 173.288981 
L 639.605726 173.684636 
L 641.638019 174.853033 
L 643.099804 175.996181 
L 645.083234 177.960996 
L 648.333564 181.498262 
L 649.923113 182.892826 
L 651.637662 184.066763 
L 653.50806 185.060623 
L 654.948733 185.679615 
L 656.441271 186.18724 
L 658.179379 186.46438 
L 658.778532 186.3756 
L 659.269626 186.130812 
L 659.800919 185.44009 
L 660.051033 184.625515 
L 660.189354 182.25517 
L 659.977222 179.198108 
L 659.218209 172.934525 
L 659.218209 172.934525 
" style="fill:none;stroke:#000000;stroke-linecap:square;stroke-opacity:0.7;stroke-width:1.2;"/>
   </g>
   <g id="line2d_23">
    <path clip-path="url(#p6d34b551d5)" d="M 671.505145 164.545693 
L 661.137768 149.035832 
L 655.360327 140.087582 
L 651.106793 133.138635 
L 647.138417 125.901791 
L 645.329296 121.690671 
L 644.811906 119.773476 
L 644.85289 117.97712 
L 645.263749 117.415784 
L 646.676826 117.229578 
L 648.308454 117.787103 
L 650.893783 119.272671 
L 653.083988 120.860898 
L 656.114718 123.458223 
L 658.351747 125.813284 
L 659.283177 127.156161 
L 659.541948 127.760184 
L 659.570942 128.523713 
L 659.248796 128.969279 
L 658.655187 129.264492 
L 657.134164 129.50915 
L 654.625207 129.525533 
L 640.791664 129.00056 
L 635.563652 129.106613 
L 632.184447 129.313559 
L 629.799572 129.533173 
L 623.538945 130.442157 
L 619.382633 131.363638 
L 615.777632 132.426332 
L 614.728091 132.79209 
L 610.679487 134.516782 
L 608.122758 135.963825 
L 606.072965 137.45459 
L 604.723355 138.70691 
L 603.92645 139.617758 
L 602.807925 141.317061 
L 602.140549 142.941311 
L 601.894634 144.021661 
L 601.798384 145.543554 
L 601.863377 146.369723 
L 602.141063 147.720385 
L 602.462965 148.673128 
L 603.422675 150.584151 
L 603.866058 151.261739 
L 604.812232 152.486242 
L 606.609576 154.311049 
L 608.171724 155.56047 
L 610.546998 157.03895 
L 612.708377 158.012008 
L 614.697756 158.600776 
L 616.186794 158.827929 
L 617.888188 158.813851 
L 618.767634 158.661369 
L 620.193326 158.120484 
L 621.077551 157.521508 
L 622.152665 156.334159 
L 622.967993 154.86426 
L 623.880218 152.927597 
L 624.29487 152.452717 
L 624.732948 152.223912 
L 625.433103 152.17306 
L 625.81754 152.233651 
L 628.07383 153.026445 
L 631.346401 154.338732 
L 634.086909 155.167944 
L 636.414672 155.573895 
L 638.535624 155.656197 
L 640.745476 155.405776 
L 642.337508 154.98547 
L 644.915828 153.817924 
L 645.453043 153.490687 
L 647.714041 151.752728 
L 649.359032 150.075273 
L 651.085809 147.867555 
L 651.99712 146.48428 
L 653.811277 143.161782 
L 654.807905 140.908485 
L 655.79506 138.216866 
L 656.789627 134.646433 
L 657.349771 131.543517 
L 657.548913 129.167918 
L 657.43551 126.461631 
L 656.911068 124.304624 
L 656.521033 123.476873 
L 655.895863 122.614532 
L 655.028873 121.909287 
L 654.428079 121.620762 
L 652.8447 121.339477 
L 652.192433 121.366591 
L 650.384429 121.744603 
L 648.808273 122.354248 
L 646.773563 123.442284 
L 644.428416 125.057142 
L 643.053547 126.17475 
L 640.32469 128.795641 
L 638.936626 130.37507 
L 637.493984 132.259464 
L 636.25871 134.166061 
L 634.469086 138.08242 
L 634.096337 139.63251 
L 633.987706 140.942947 
L 634.218531 142.466652 
L 634.870366 143.60471 
L 636.665401 144.512391 
L 638.155288 144.491425 
L 641.743476 143.125446 
L 645.591254 140.286379 
L 649.759437 135.856964 
L 653.824373 130.085599 
L 659.752855 118.073489 
L 659.752855 118.073489 
" style="fill:none;stroke:#000000;stroke-linecap:square;stroke-opacity:0.7;stroke-width:1.2;"/>
   </g>
   <g id="line2d_24">
    <path clip-path="url(#p6d34b551d5)" d="M 637.824552 112.983815 
L 644.748033 115.235756 
L 653.228264 114.727776 
L 655.403723 114.019005 
L 661.60176 110.556553 
L 665.455925 107.079139 
L 667.485098 104.658032 
L 669.15174 102.196903 
L 670.207942 100.28195 
L 670.862615 98.86065 
L 672.070023 95.000524 
L 672.317343 93.183771 
L 672.227367 90.631226 
L 671.964016 89.441152 
L 671.482806 88.180522 
L 670.747266 86.943434 
L 669.327577 85.421734 
L 667.707612 84.298005 
L 663.064613 82.530094 
L 659.577982 81.845945 
L 654.985198 81.315798 
L 647.018013 80.78385 
L 638.649434 80.235682 
L 630.10452 79.406294 
L 621.123983 78.437223 
L 619.028683 78.414766 
L 618.176164 78.526562 
L 617.266852 78.982385 
L 617.10716 79.466217 
L 617.3674 80.254434 
L 619.091263 82.26963 
L 621.236122 84.131201 
L 625.428151 87.324828 
L 637.592872 96.151076 
L 640.508557 98.833852 
L 641.129755 99.727772 
L 641.333663 100.689484 
L 641.146827 101.09729 
L 640.807478 101.404912 
L 639.912056 101.800337 
L 639.201743 101.975699 
L 636.446188 102.294943 
L 631.94735 102.439612 
L 623.347003 102.625208 
L 619.372466 102.877884 
L 615.762883 103.304775 
L 614.084364 103.601688 
L 610.899323 104.45338 
L 609.589064 104.988774 
L 608.347267 105.694921 
L 607.166762 106.788268 
L 606.814477 107.358357 
L 606.525243 108.441238 
L 606.631842 109.479819 
L 607.217753 110.805052 
L 608.221821 112.112631 
L 609.786567 113.571346 
L 611.51572 114.850115 
L 613.720304 116.219879 
L 617.745761 118.302505 
L 621.784509 120.073195 
L 625.789195 121.634604 
L 634.633788 124.68269 
L 644.035373 127.621245 
L 656.748312 131.36643 
L 662.547885 132.823969 
L 665.947232 133.38178 
L 667.365595 133.461592 
L 669.165767 133.294105 
L 670.532403 132.744745 
L 671.44907 131.811785 
L 671.929081 130.606616 
L 672.036717 129.949004 
L 671.995716 127.831517 
L 671.880674 127.034888 
L 671.339566 124.667827 
L 669.85476 120.330644 
L 667.990078 116.027891 
L 665.237556 110.573387 
L 662.749183 106.176137 
L 658.998629 100.243526 
L 658.003982 98.796928 
L 655.446675 95.321939 
L 653.213107 92.593725 
L 649.077365 88.450935 
L 647.875308 87.522806 
L 646.008668 86.399958 
L 644.547749 85.844573 
L 643.115608 85.626919 
L 642.187918 85.67328 
L 640.919642 85.9646 
L 637.894423 87.197321 
L 635.535983 87.830413 
L 633.07716 87.848774 
L 630.430382 87.297065 
L 630.430382 87.297065 
" style="fill:none;stroke:#000000;stroke-linecap:square;stroke-opacity:0.7;stroke-width:1.2;"/>
   </g>
   <g id="line2d_25">
    <path clip-path="url(#p6d34b551d5)" d="M 652.76918 74.586795 
L 659.512688 65.828538 
L 661.595543 62.776462 
L 663.325571 59.64704 
L 664.116729 57.566668 
L 664.356613 56.52753 
L 664.453478 55.39078 
L 664.280407 54.215246 
L 663.897282 53.455472 
L 663.265146 52.90177 
L 662.667428 52.682724 
L 661.372588 52.717313 
L 660.526589 52.984041 
L 659.415052 53.542314 
L 657.79565 54.671238 
L 655.968297 56.245058 
L 650.694009 61.135372 
L 648.25622 63.01585 
L 645.739615 64.547237 
L 643.27702 65.649257 
L 641.40712 66.239919 
L 639.494677 66.619441 
L 638.006598 66.690923 
L 637.528395 66.588554 
L 637.405005 66.411494 
L 637.654766 66.130978 
L 638.67783 65.616314 
L 641.364531 64.638295 
L 644.529778 63.440709 
L 645.716165 62.759995 
L 646.125263 62.321082 
L 646.238881 61.995228 
L 646.137749 61.521737 
L 645.776482 61.047299 
L 644.657681 60.147135 
L 642.629841 58.6177 
L 642.009944 57.86147 
L 641.843874 57.376465 
L 641.907939 56.859754 
L 642.164223 56.442071 
L 642.85973 55.86466 
L 644.089553 55.268961 
L 645.161029 54.925429 
L 646.938625 54.582703 
L 648.852102 54.492047 
L 653.365569 54.580926 
L 655.265323 54.295965 
L 657.573898 53.767639 
L 662.838326 52.287072 
L 669.091258 50.35553 
L 669.165924 50.283424 
L 669.074011 50.213303 
L 668.364304 50.174707 
L 666.196389 50.30862 
L 663.631728 50.665164 
L 662.392879 50.937349 
L 660.670833 51.486765 
L 659.554749 51.998445 
L 658.513774 52.633009 
L 656.640961 54.269138 
L 653.952024 57.231639 
L 652.576708 58.506273 
L 650.691601 59.848406 
L 646.427863 61.707107 
L 643.109543 62.487485 
L 639.781117 62.921934 
L 639.781117 62.921934 
" style="fill:none;stroke:#000000;stroke-linecap:square;stroke-opacity:0.7;stroke-width:1.2;"/>
   </g>
  </g>
 </g>
 <defs>
  <clipPath id="p6d34b551d5">
   <rect height="262.08" width="694.08" x="12.96" y="12.96"/>
  </clipPath>
 </defs>
</svg>
