<?xml version="1.0" encoding="utf-8" standalone="no"?>
<!DOCTYPE svg PUBLIC "-//W3C//DTD SVG 1.1//EN"
  "http://www.w3.org/Graphics/SVG/1.1/DTD/svg11.dtd">
<!-- Created with matplotlib (https://matplotlib.org/) -->
<svg height="288pt" version="1.1" viewBox="0 0 720 288" width="720pt" xmlns="http://www.w3.org/2000/svg" xmlns:xlink="http://www.w3.org/1999/xlink">
 <metadata>
  <rdf:RDF xmlns:cc="http://creativecommons.org/ns#" xmlns:dc="http://purl.org/dc/elements/1.1/" xmlns:rdf="http://www.w3.org/1999/02/22-rdf-syntax-ns#">
   <cc:Work>
    <dc:type rdf:resource="http://purl.org/dc/dcmitype/StillImage"/>
    <dc:date>2020-11-14T04:55:02.037443</dc:date>
    <dc:format>image/svg+xml</dc:format>
    <dc:creator>
     <cc:Agent>
      <dc:title>Matplotlib v3.3.2, https://matplotlib.org/</dc:title>
     </cc:Agent>
    </dc:creator>
   </cc:Work>
  </rdf:RDF>
 </metadata>
 <defs>
  <style type="text/css">*{stroke-linecap:butt;stroke-linejoin:round;}</style>
 </defs>
 <g id="figure_1">
  <g id="patch_1">
   <path d="M 0 288 
L 720 288 
L 720 0 
L 0 0 
z
" style="fill:#ffffff;"/>
  </g>
  <g id="axes_1">
   <g id="line2d_1">
    <path clip-path="url(#pb2427998b8)" d="M 65.45325 238.960676 
L 61.678507 238.303693 
L 58.636025 238.163418 
L 57.102367 238.669703 
L 56.884176 239.18179 
L 57.915709 240.870743 
L 59.522826 242.151003 
L 60.729309 242.920238 
L 62.479099 243.879274 
L 64.641437 244.885526 
L 67.241276 245.892657 
L 71.79112 247.198207 
L 75.275129 247.807355 
L 77.725668 248.004917 
L 81.547759 247.80742 
L 83.578884 247.315324 
L 84.058029 247.134972 
L 85.587485 246.266174 
L 86.351742 245.497398 
L 86.896114 244.479132 
L 87.105397 243.321272 
L 87.055701 242.24106 
L 86.497363 238.241354 
L 86.632874 236.962322 
L 87.003351 235.772765 
L 87.510575 234.781946 
L 88.293851 233.733688 
L 88.936259 233.167214 
L 89.417217 233.013234 
L 89.611876 233.226777 
L 89.613045 233.748691 
L 89.269251 234.963972 
L 88.499973 236.723302 
L 87.144543 239.088375 
L 86.356915 240.138749 
L 85.443235 240.982853 
L 84.69958 241.265322 
L 84.164268 241.171905 
L 83.489458 240.625468 
L 82.759882 239.463093 
L 81.902632 237.468226 
L 77.927772 227.060244 
L 77.044573 225.213821 
L 75.918134 223.133013 
L 74.212285 220.498232 
L 72.593719 218.491634 
L 70.507918 216.505109 
L 69.463147 215.733503 
L 67.544621 214.665164 
L 66.805912 214.36676 
L 65.040043 213.893702 
L 63.210974 213.749005 
L 61.848296 213.866438 
L 59.815245 214.407502 
L 58.089683 215.235755 
L 56.951041 215.992168 
L 55.635518 217.113249 
L 54.529668 218.313508 
L 53.461275 219.788549 
L 52.383541 221.825043 
L 51.808767 223.459666 
L 51.48635 225.403478 
L 51.503215 226.16508 
L 51.695828 227.017936 
L 51.814221 227.256795 
L 52.151514 227.606975 
L 52.604584 227.690918 
L 53.009769 227.537321 
L 53.703329 226.905522 
L 54.813384 225.183985 
L 56.015086 223.083407 
L 56.861543 221.992677 
L 57.999559 221.146993 
L 58.653227 220.904415 
L 59.76845 220.765689 
L 61.127262 220.910722 
L 62.909565 221.422957 
L 65.324816 222.461683 
L 69.126658 224.537949 
L 73.766845 227.459549 
L 80.59414 232.152407 
L 89.182232 238.176974 
L 90.251897 238.796763 
L 91.33702 239.241822 
L 92.74191 238.880974 
L 93.287036 237.985324 
L 95.401076 232.709719 
L 97.032011 229.413368 
L 98.318623 227.174614 
L 101.256928 222.734923 
L 104.329194 218.676902 
L 106.570182 215.946085 
L 106.570182 215.946085 
" style="fill:none;stroke:#000000;stroke-linecap:square;stroke-opacity:0.7;stroke-width:1.2;"/>
   </g>
   <g id="line2d_2">
    <path clip-path="url(#pb2427998b8)" d="M 59.005015 226.876433 
L 68.506171 225.782956 
L 77.977765 224.27053 
L 82.259568 222.998061 
L 85.178215 221.328185 
L 86.031958 220.434353 
L 86.869107 218.629075 
L 86.94566 216.936539 
L 86.705685 215.692503 
L 86.147007 214.142537 
L 83.616603 209.925143 
L 82.482913 208.452852 
L 80.333292 205.942011 
L 76.957631 202.412003 
L 65.500831 191.228719 
L 63.596444 188.852231 
L 62.154823 186.334441 
L 61.480797 184.389247 
L 61.092029 182.049636 
L 61.015922 179.806945 
L 61.119167 177.449759 
L 61.714495 171.695045 
L 62.566447 165.672085 
L 63.403183 161.266549 
L 64.042186 158.910314 
L 64.560927 157.546831 
L 64.970612 156.761086 
L 65.802993 155.809732 
L 66.464821 155.554668 
L 67.239781 155.708342 
L 67.932212 156.190968 
L 68.717869 157.072247 
L 69.542242 158.322007 
L 70.611606 160.351452 
L 71.966921 163.414876 
L 76.528034 174.345515 
L 77.579494 176.295767 
L 78.611303 177.820117 
L 79.615546 178.866064 
L 80.360726 179.305162 
L 81.091851 179.362542 
L 81.457316 179.184462 
L 81.79588 178.797479 
L 82.095691 177.972738 
L 82.171664 177.021809 
L 82.0271 175.766483 
L 81.602439 174.319578 
L 80.959587 172.933455 
L 80.110567 171.606729 
L 79.307514 170.63602 
L 78.296961 169.687976 
L 77.12119 168.91671 
L 76.083711 168.560225 
L 75.526714 168.540421 
L 75.068985 168.672054 
L 74.729032 168.942302 
L 74.482453 169.533507 
L 74.512141 170.110816 
L 74.792698 170.828737 
L 75.21044 171.420402 
L 75.937692 172.115023 
L 76.623761 172.596313 
L 78.469544 173.491089 
L 80.285703 174.059579 
L 82.438878 174.501693 
L 84.800189 174.793522 
L 87.704977 174.955501 
L 91.000549 174.939755 
L 94.353207 174.74582 
L 98.029594 174.347669 
L 102.996073 173.497681 
L 106.865742 172.545975 
L 110.676102 171.276202 
L 112.810035 170.364781 
L 114.864899 169.294939 
L 117.070421 167.876843 
L 116.753465 168.194052 
L 113.59343 171.135044 
L 111.171674 173.290457 
L 106.789424 176.995959 
L 96.025437 185.275113 
L 88.860594 190.307495 
L 80.051223 196.109215 
L 80.051223 196.109215 
" style="fill:none;stroke:#000000;stroke-linecap:square;stroke-opacity:0.7;stroke-width:1.2;"/>
   </g>
   <g id="line2d_3">
    <path clip-path="url(#pb2427998b8)" d="M 71.663189 166.707028 
L 74.713668 155.077007 
L 76.031854 151.82543 
L 78.913051 145.248282 
L 79.555809 143.372918 
L 80.035882 141.333119 
L 80.266108 139.249569 
L 80.221504 136.051587 
L 80.100088 132.611238 
L 80.390658 130.849277 
L 80.544781 130.479877 
L 80.941728 129.890732 
L 82.054249 129.233015 
L 83.04772 129.129869 
L 84.329222 129.319632 
L 85.104823 129.553231 
L 86.519599 130.152941 
L 88.569011 131.352276 
L 90.190103 132.559278 
L 91.770613 133.977591 
L 93.73667 136.190597 
L 94.828641 137.775631 
L 95.757451 139.565113 
L 96.405176 141.645636 
L 96.479557 143.89642 
L 96.21776 144.974318 
L 95.710041 146.029253 
L 95.181189 146.743643 
L 93.679951 148.017978 
L 91.588918 149.007119 
L 90.424625 149.350282 
L 88.584235 149.69593 
L 86.049487 149.881956 
L 85.306828 149.885594 
L 81.948545 149.665918 
L 80.010313 149.384924 
L 75.482564 148.345857 
L 72.221257 147.288861 
L 67.998546 145.552098 
L 64.525505 143.820658 
L 61.044812 141.834728 
L 53.621622 137.299047 
L 51.240348 136.219395 
L 49.779894 135.872532 
L 48.62235 135.874191 
L 47.729594 136.110163 
L 46.487051 136.929676 
L 45.780663 137.783501 
L 45.048109 139.244249 
L 44.652295 140.705659 
L 44.509091 142.404455 
L 44.553976 143.167443 
L 44.834875 144.537912 
L 45.10911 145.246793 
L 45.703377 146.223477 
L 46.368236 146.907468 
L 47.07857 147.38428 
L 48.238499 147.818468 
L 49.506391 147.965926 
L 50.511276 147.901994 
L 51.995709 147.559969 
L 52.706144 147.293839 
L 53.940174 146.647764 
L 55.213298 145.589634 
L 55.724151 144.880348 
L 56.05162 143.989007 
L 56.092096 143.093361 
L 55.956811 141.703375 
L 56.149704 141.145648 
L 56.750742 140.721591 
L 57.470776 140.526817 
L 59.274379 140.416899 
L 60.892117 140.509916 
L 63.732358 140.892006 
L 66.946033 141.539395 
L 71.810273 142.82718 
L 75.857581 144.131092 
L 81.83791 146.413629 
L 86.583238 148.548691 
L 90.451544 150.584673 
L 92.298467 151.754582 
L 93.102894 152.431103 
L 93.155058 152.874301 
L 91.958513 152.78633 
L 89.648205 152.19128 
L 82.522914 150.18721 
L 80.528528 149.733066 
L 77.019292 149.229425 
L 76.03584 149.24418 
L 77.31521 148.850784 
L 78.507029 148.24714 
L 79.589101 147.543165 
L 81.006719 146.409582 
L 81.006719 146.409582 
" style="fill:none;stroke:#000000;stroke-linecap:square;stroke-opacity:0.7;stroke-width:1.2;"/>
   </g>
   <g id="line2d_4">
    <path clip-path="url(#pb2427998b8)" d="M 88.675664 102.022833 
L 84.856801 102.211338 
L 82.293604 101.753242 
L 80.823627 101.066961 
L 79.656414 100.119212 
L 78.780265 98.992653 
L 78.403769 98.317914 
L 77.899066 97.052406 
L 77.561972 95.311078 
L 77.7384 94.012394 
L 78.006119 93.813451 
L 78.416419 94.015221 
L 78.786446 94.567974 
L 79.172293 95.784307 
L 79.284205 97.094606 
L 79.174516 98.368203 
L 78.745136 100.091913 
L 77.872917 102.228016 
L 76.107508 105.570067 
L 72.87088 111.574246 
L 71.647005 113.957381 
L 71.643109 113.873425 
L 71.825274 112.805735 
L 72.385684 109.305627 
L 72.662678 106.453121 
L 72.754464 103.117827 
L 72.637863 100.473784 
L 72.309636 97.537915 
L 71.626296 93.889216 
L 70.611851 90.008869 
L 69.192186 85.615904 
L 67.037241 79.803816 
L 66.611672 78.780459 
L 66.72289 79.23994 
L 67.534066 82.401166 
L 68.420811 87.13652 
L 68.725017 89.954884 
L 68.806197 93.130979 
L 68.69734 94.782131 
L 68.397003 96.548082 
L 68.024052 97.652554 
L 67.672048 98.220421 
L 67.19778 98.452369 
L 67.017251 98.360355 
L 66.794829 98.016991 
L 66.604013 96.973208 
L 66.657141 95.66434 
L 67.057573 93.597343 
L 67.487975 92.189117 
L 68.167565 90.449564 
L 70.055151 86.850999 
L 71.318615 84.949386 
L 73.466911 82.248453 
L 75.064464 80.553022 
L 77.109992 78.681429 
L 79.874526 76.594278 
L 81.74622 75.436706 
L 84.011968 74.298718 
L 86.389074 73.427439 
L 87.544834 73.138035 
L 89.68339 72.896318 
L 91.19005 73.058296 
L 92.581724 73.705196 
L 93.171894 74.371679 
L 93.436694 74.963779 
L 93.542073 76.498771 
L 93.43027 77.13082 
L 92.729312 79.064627 
L 91.862986 80.64676 
L 89.376943 84.069904 
L 84.612801 89.168766 
L 79.825762 93.497431 
L 76.936596 95.85507 
L 74.130274 97.965402 
L 71.737274 99.601736 
L 68.512437 101.49019 
L 64.897245 102.95098 
L 62.816737 103.312101 
L 58.384876 102.355109 
L 54.978111 99.899726 
L 52.131195 97.083962 
L 52.131195 97.083962 
" style="fill:none;stroke:#000000;stroke-linecap:square;stroke-opacity:0.7;stroke-width:1.2;"/>
   </g>
   <g id="line2d_5">
    <path clip-path="url(#pb2427998b8)" d="M 83.345922 53.736561 
L 90.305159 45.613294 
L 88.69331 47.510704 
L 83.189882 54.677565 
L 81.993694 55.858525 
L 80.777765 56.719445 
L 80.254515 56.958073 
L 79.109696 57.149317 
L 78.176976 56.921175 
L 76.973572 56.031013 
L 76.052448 54.811329 
L 75.153206 53.029752 
L 74.409981 50.85325 
L 74.018701 49.153886 
L 73.71699 46.670008 
L 73.736712 44.66676 
L 74.037402 42.819251 
L 74.493481 41.517618 
L 75.264029 40.249073 
L 75.920385 39.556049 
L 76.679057 38.992354 
L 77.843918 38.429041 
L 79.312262 38.039069 
L 81.252061 37.851083 
L 83.685577 37.926426 
L 84.854589 38.064147 
L 84.12793 38.073317 
L 81.833844 38.136291 
L 80.771983 38.348022 
L 80.399418 38.594383 
L 80.283105 38.931991 
L 80.387596 39.460025 
L 81.722042 43.475688 
L 81.956947 45.296824 
L 81.959657 46.891484 
L 81.761181 48.387885 
L 81.33869 49.736299 
L 80.880809 50.536304 
L 80.358211 51.055359 
L 79.873604 51.27431 
L 79.348395 51.241726 
L 78.955455 50.92663 
L 78.822314 50.537212 
L 78.868441 50.17355 
L 79.234234 49.656193 
L 79.854473 49.302852 
L 80.896745 49.057802 
L 81.488872 48.907479 
L 81.530864 48.753907 
L 81.244758 48.375786 
L 79.578324 46.903765 
L 77.217065 44.731631 
L 75.544446 42.879875 
L 74.61879 41.48366 
L 74.310955 40.737658 
L 74.216861 39.861485 
L 74.383514 39.327803 
L 74.776654 38.85059 
L 75.56911 38.385814 
L 76.44027 38.112205 
L 77.943053 37.876204 
L 81.05428 37.820158 
L 83.33643 38.011452 
L 83.33643 38.011452 
" style="fill:none;stroke:#000000;stroke-linecap:square;stroke-opacity:0.7;stroke-width:1.2;"/>
   </g>
   <g id="line2d_6">
    <path clip-path="url(#pb2427998b8)" d="M 225.505915 263.387519 
L 224.174998 256.357654 
L 224.300659 248.48302 
L 224.536279 246.274964 
L 225.697174 239.301528 
L 227.673746 230.712871 
L 228.510937 226.727756 
L 228.705599 225.024363 
L 228.676712 223.791857 
L 228.441651 222.845874 
L 228.061873 222.219993 
L 227.298555 221.644725 
L 226.073793 221.301782 
L 224.881427 221.228103 
L 221.52089 221.517744 
L 216.175736 222.440922 
L 205.067361 224.494564 
L 199.335871 225.432163 
L 199.654057 225.471019 
L 203.668088 225.738874 
L 207.052291 226.204466 
L 211.556914 227.106805 
L 214.930149 227.765207 
L 215.588972 227.721545 
L 215.783703 227.550723 
L 215.749084 227.195464 
L 215.282508 226.452742 
L 214.257211 225.288763 
L 211.768536 222.848533 
L 206.784068 218.343427 
L 202.444981 214.685547 
L 201.38728 213.97891 
L 201.341565 214.09993 
L 201.919737 214.915098 
L 204.994938 218.493742 
L 210.756689 225.1626 
L 216.201905 231.819895 
L 221.715763 238.66434 
L 222.595571 239.341742 
L 223.184902 239.436765 
L 223.481303 239.3202 
L 223.997545 238.846209 
L 224.939022 237.439438 
L 227.519867 233.303905 
L 230.023265 229.824012 
L 235.044781 223.07475 
L 235.786113 221.727751 
L 236.222791 220.538791 
L 236.323032 219.975109 
L 236.212844 218.873596 
L 236.103176 218.61266 
L 235.696918 218.042601 
L 234.833362 217.402468 
L 232.310535 216.059294 
L 232.249824 215.38205 
L 232.589649 214.490466 
L 236.578785 207.507465 
L 238.507134 203.500529 
L 240.665067 197.928792 
L 242.874379 189.844377 
L 243.885192 184.058044 
L 244.623345 175.688921 
L 244.623345 175.688921 
" style="fill:none;stroke:#000000;stroke-linecap:square;stroke-opacity:0.7;stroke-width:1.2;"/>
   </g>
   <g id="line2d_7">
    <path clip-path="url(#pb2427998b8)" d="M 224.521477 185.869833 
L 226.941859 186.314835 
L 229.035507 185.441395 
L 231.064765 184.005477 
L 234.535888 180.789015 
L 237.326097 177.805027 
L 243.357602 170.760768 
L 248.154343 164.785708 
L 252.129613 159.428123 
L 253.482054 157.412751 
L 255.066322 154.757872 
L 255.812819 153.277519 
L 256.747581 150.732988 
L 256.98948 149.034715 
L 256.640975 147.306234 
L 255.759363 146.247387 
L 254.586632 145.668925 
L 253.101157 145.413062 
L 251.541852 145.442662 
L 250.21398 145.623961 
L 246.546126 146.622438 
L 244.81918 147.281617 
L 242.012015 148.553467 
L 239.168298 150.059296 
L 234.74004 152.780313 
L 231.332427 155.156751 
L 227.450156 158.146876 
L 222.612838 162.289446 
L 219.425029 165.281071 
L 214.410282 170.451431 
L 212.656861 172.411054 
L 209.565626 176.095623 
L 206.01173 180.793993 
L 202.549367 186.120944 
L 200.433376 190.118102 
L 199.300456 192.876543 
L 198.578727 195.561931 
L 198.428353 197.074616 
L 198.610568 198.654475 
L 198.937422 199.465089 
L 199.608867 200.301167 
L 200.21828 200.722809 
L 201.107483 201.072943 
L 202.410554 201.27111 
L 203.728205 201.239433 
L 205.112562 201.029259 
L 206.692821 200.595796 
L 208.223197 199.925059 
L 208.991048 199.372548 
L 209.325117 198.892024 
L 209.319429 198.441194 
L 208.966751 198.02249 
L 208.263675 197.651994 
L 206.951127 197.290324 
L 205.381473 197.094644 
L 203.944684 197.148749 
L 203.631781 197.381292 
L 203.707415 197.484617 
L 204.412218 197.831677 
L 206.066197 198.280145 
L 208.788309 198.755255 
L 211.824978 199.07837 
L 215.486558 199.218001 
L 219.15331 199.041142 
L 221.308885 198.741106 
L 223.726645 198.158259 
L 224.608974 197.858182 
L 226.582315 196.943079 
L 227.830579 196.113591 
L 229.026661 195.021695 
L 230.133156 193.56166 
L 230.848982 192.16924 
L 231.469933 190.28622 
L 231.807107 188.473051 
L 231.977344 186.256296 
L 231.948668 183.911699 
L 231.704867 181.081233 
L 231.31825 178.464281 
L 230.466552 174.551981 
L 229.570936 171.739605 
L 229.063138 170.563977 
L 228.054288 168.967556 
L 227.356133 168.364505 
L 226.650627 168.125078 
L 226.121039 168.174406 
L 225.631553 168.38981 
L 225.129845 168.780956 
L 224.146697 170.090455 
L 223.206675 172.242874 
L 222.517593 175.302161 
L 222.431615 176.457791 
L 222.541758 177.981699 
L 222.813347 178.749135 
L 223.331848 179.157074 
L 224.614279 178.335774 
L 225.774837 176.375762 
L 226.927193 173.478538 
L 228.437719 168.04326 
L 228.437719 168.04326 
" style="fill:none;stroke:#000000;stroke-linecap:square;stroke-opacity:0.7;stroke-width:1.2;"/>
   </g>
   <g id="line2d_8">
    <path clip-path="url(#pb2427998b8)" d="M 200.362431 157.48029 
L 203.789583 156.717074 
L 205.514763 156.137398 
L 209.559141 154.279761 
L 215.322493 151.254281 
L 217.074944 150.682175 
L 217.650997 150.64663 
L 218.305584 150.930059 
L 218.492017 151.308977 
L 218.530833 151.799651 
L 218.367563 152.738818 
L 218.038362 153.739193 
L 217.136292 155.801482 
L 215.42245 159.097348 
L 212.492407 164.14316 
L 210.964974 166.412849 
L 210.534659 166.912924 
L 209.984156 167.200787 
L 209.847929 166.996275 
L 209.822453 166.154153 
L 210.135164 164.139865 
L 211.053263 160.111424 
L 213.137533 152.080885 
L 217.746685 134.366687 
L 219.276707 127.631463 
L 220.094056 123.101835 
L 220.378693 120.050262 
L 220.301882 119.008619 
L 220.150895 118.607705 
L 219.929667 118.470618 
L 219.579545 118.641951 
L 219.177914 119.130737 
L 218.395311 120.612535 
L 217.489549 122.981459 
L 216.458613 126.440555 
L 215.328104 130.279741 
L 214.805275 131.271215 
L 214.326911 131.728783 
L 213.701329 131.964862 
L 212.975064 131.990667 
L 211.42907 131.737751 
L 208.140944 131.049008 
L 204.991587 130.645825 
L 202.229638 130.578538 
L 199.496999 130.854249 
L 197.830874 131.323932 
L 196.9366 131.870226 
L 196.628537 132.377275 
L 196.749977 133.067632 
L 196.941894 133.352202 
L 198.027367 134.290759 
L 199.282881 135.039957 
L 201.64084 136.173457 
L 205.351855 137.68757 
L 210.534403 139.558893 
L 214.571089 140.797018 
L 217.074949 141.326824 
L 218.774023 141.449944 
L 219.957652 141.345289 
L 221.379196 140.957264 
L 223.757575 139.870101 
L 225.596282 139.056577 
L 227.530106 138.430444 
L 228.902878 138.136875 
L 230.643176 137.926583 
L 233.102587 137.896307 
L 234.449375 137.995238 
L 237.769233 138.541599 
L 242.023004 139.806194 
L 245.669524 141.386074 
L 247.546878 142.40882 
L 248.990645 143.330981 
L 251.014484 145.118766 
L 250.941027 145.666739 
L 249.970241 145.49003 
L 248.179361 144.705881 
L 245.304098 143.073563 
L 242.447974 141.219271 
L 242.447974 141.219271 
" style="fill:none;stroke:#000000;stroke-linecap:square;stroke-opacity:0.7;stroke-width:1.2;"/>
   </g>
   <g id="line2d_9">
    <path clip-path="url(#pb2427998b8)" d="M 217.062441 109.460642 
L 215.13279 107.987524 
L 214.403327 106.272329 
L 215.25945 103.512196 
L 216.383907 102.017967 
L 218.117185 100.236603 
L 222.330281 96.704947 
L 227.050252 93.194454 
L 227.691085 92.833704 
L 227.845715 92.877999 
L 227.695918 93.427407 
L 226.4001 96.722368 
L 225.80005 99.088621 
L 225.507733 101.497399 
L 225.550064 103.841875 
L 225.866578 105.808132 
L 226.531048 107.830266 
L 227.282889 109.211924 
L 227.848016 109.92413 
L 228.623697 110.550437 
L 228.89076 110.672592 
L 229.380498 110.750491 
L 229.683697 110.678661 
L 229.972397 110.486327 
L 230.411742 109.749084 
L 230.650375 108.549063 
L 230.691203 107.183137 
L 230.496616 104.592531 
L 229.892862 100.415178 
L 226.109902 78.123455 
L 226.481653 79.211084 
L 227.251461 80.719895 
L 228.257838 82.169822 
L 229.711032 83.740669 
L 231.265913 85.027186 
L 233.004782 86.178516 
L 237.511623 88.89507 
L 238.032166 89.549914 
L 238.184259 90.040269 
L 238.116763 90.702043 
L 237.761712 91.433433 
L 237.126104 92.242277 
L 235.832319 93.484048 
L 233.258119 95.548776 
L 228.409764 99.380653 
L 226.878038 100.767782 
L 225.373757 102.324694 
L 223.739363 104.416774 
L 222.660914 106.272597 
L 222.03234 107.775671 
L 221.578794 109.437272 
L 221.363604 111.163184 
L 221.438058 113.20184 
L 221.550185 113.914787 
L 221.864619 115.167706 
L 222.623399 116.94756 
L 223.524105 118.212472 
L 223.953401 118.616486 
L 224.504416 118.969243 
L 225.140836 119.126637 
L 225.541595 119.051576 
L 226.103114 118.570227 
L 226.356698 118.050195 
L 226.578436 116.940564 
L 226.554006 115.178779 
L 226.253387 113.227544 
L 225.133971 109.217022 
L 223.916893 105.94886 
L 220.594995 97.836549 
L 219.923458 95.670457 
L 219.626695 94.213947 
L 219.509833 92.409776 
L 219.838454 90.266405 
L 220.384733 88.825626 
L 222.074177 86.143567 
L 224.214531 83.701987 
L 227.145724 80.866076 
L 227.145724 80.866076 
" style="fill:none;stroke:#000000;stroke-linecap:square;stroke-opacity:0.7;stroke-width:1.2;"/>
   </g>
   <g id="line2d_10">
    <path clip-path="url(#pb2427998b8)" d="M 190.59569 94.270617 
L 199.375339 91.199105 
L 205.821746 87.730225 
L 216.083005 79.221338 
L 217.674408 77.408214 
L 220.551171 73.562818 
L 222.203681 70.870615 
L 223.725275 67.862305 
L 224.625044 65.668784 
L 225.592009 62.575046 
L 226.141396 59.819806 
L 226.354097 57.462999 
L 226.232046 54.628793 
L 225.862204 52.735185 
L 225.992302 52.878147 
L 227.419726 54.71109 
L 229.519043 57.391397 
L 229.696014 58.07675 
L 229.373782 58.33807 
L 229.104718 58.37729 
L 227.636955 58.18996 
L 224.889216 57.375445 
L 221.385314 56.048829 
L 216.788223 54.05101 
L 212.024273 51.758222 
L 204.874746 47.962882 
L 197.971571 43.95355 
L 187.755759 37.887287 
L 185.803442 37.018126 
L 185.21157 36.917921 
L 185.103465 37.002723 
L 185.164418 37.145085 
L 185.820841 37.632113 
L 187.256498 38.22593 
L 188.834631 38.60903 
L 190.711681 38.828618 
L 192.461 38.846891 
L 194.124654 38.713845 
L 196.257564 38.334053 
L 198.483786 37.673281 
L 200.276662 36.915783 
L 201.195652 36.434423 
L 203.164674 35.130078 
L 204.858674 33.584187 
L 205.915963 32.297585 
L 206.879717 30.758632 
L 207.616466 29.18982 
L 209.242661 25.066434 
L 209.665829 24.694881 
L 210.110381 24.612481 
L 210.607454 24.761139 
L 211.087685 25.068493 
L 211.700284 25.628681 
L 212.636772 26.761954 
L 213.893815 28.72401 
L 214.944864 30.76676 
L 216.062437 33.499086 
L 216.901093 36.238058 
L 217.767743 39.990274 
L 219.198024 46.998786 
L 220.492628 54.634096 
L 222.266986 66.976345 
L 223.893336 77.72872 
L 225.333527 84.984118 
L 226.118162 87.860183 
L 226.751293 89.367383 
L 226.976985 89.478926 
L 227.115203 88.521326 
L 226.848083 85.422658 
L 226.599812 83.583219 
L 226.599812 83.583219 
" style="fill:none;stroke:#000000;stroke-linecap:square;stroke-opacity:0.7;stroke-width:1.2;"/>
   </g>
   <g id="line2d_11">
    <path clip-path="url(#pb2427998b8)" d="M 371.575151 221.96147 
L 370.484706 220.286339 
L 370.145658 219.306076 
L 370.214325 218.462269 
L 370.413835 218.188744 
L 371.276639 217.889489 
L 373.043759 218.225338 
L 375.258681 219.253993 
L 376.594906 220.062513 
L 378.865565 221.688166 
L 380.447267 223.082672 
L 380.497719 223.215292 
L 380.279532 223.15837 
L 375.39615 220.784261 
L 373.852835 220.228969 
L 370.990659 219.582462 
L 369.380447 219.496088 
L 368.412445 219.568 
L 366.625568 220.019732 
L 365.820555 220.400652 
L 364.305317 221.568572 
L 364.022375 221.878305 
L 362.814887 223.765645 
L 362.132805 225.624186 
L 361.929594 226.450152 
L 361.538219 229.48077 
L 361.524702 232.175023 
L 361.868369 235.912387 
L 362.404743 239.009097 
L 363.336785 242.768622 
L 364.150867 245.23197 
L 365.165678 247.476519 
L 365.798786 248.394806 
L 366.386647 248.877499 
L 367.102993 248.946383 
L 367.575479 248.673291 
L 368.15356 248.003596 
L 368.839755 246.741772 
L 369.557307 244.825065 
L 369.974555 243.302897 
L 370.384679 241.15971 
L 370.613903 238.707414 
L 370.575391 236.253167 
L 370.30028 234.13205 
L 370.043221 232.983502 
L 369.19145 230.561378 
L 368.405321 229.096828 
L 367.196267 227.517522 
L 366.364738 226.730319 
L 364.670861 225.632324 
L 363.633109 225.214255 
L 361.767266 224.835347 
L 359.767704 224.858805 
L 357.676994 225.268791 
L 355.853665 225.896484 
L 354.959815 226.28522 
L 352.995825 227.305876 
L 351.110867 228.477368 
L 348.257074 230.552003 
L 345.017019 233.250581 
L 339.923395 237.87986 
L 337.059215 240.370906 
L 335.395722 241.546106 
L 334.974106 241.762211 
L 334.236868 241.91602 
L 333.969068 241.585867 
L 334.054502 241.074621 
L 334.47752 240.227687 
L 335.442687 238.95195 
L 336.605455 237.755007 
L 337.403949 237.041812 
L 339.553861 235.386579 
L 341.884713 233.87732 
L 343.935326 232.713777 
L 347.387704 230.99818 
L 352.812997 228.719173 
L 355.344114 227.777302 
L 362.476338 225.396666 
L 366.87091 224.067857 
L 382.641992 219.662657 
L 390.624749 217.374337 
L 395.682346 215.681741 
L 397.60121 214.803745 
L 398.274706 214.213091 
L 398.208977 213.827616 
L 397.63193 213.47598 
L 395.393427 212.796148 
L 391.960444 211.742341 
L 389.654587 210.807877 
L 387.754353 209.85403 
L 386.27267 208.980934 
L 384.510913 207.784915 
L 381.771539 205.569674 
L 381.771539 205.569674 
" style="fill:none;stroke:#000000;stroke-linecap:square;stroke-opacity:0.7;stroke-width:1.2;"/>
   </g>
   <g id="line2d_12">
    <path clip-path="url(#pb2427998b8)" d="M 376.788029 211.135629 
L 359.464262 206.280746 
L 351.402996 199.605866 
L 349.585795 196.245541 
L 348.543392 190.635294 
L 349.558412 184.698411 
L 350.61397 182.123267 
L 353.34528 177.718562 
L 355.90371 174.844649 
L 358.44489 172.674099 
L 361.683627 170.668273 
L 363.955304 169.744346 
L 366.159224 169.289844 
L 367.366901 169.288197 
L 368.763575 169.640809 
L 369.817595 170.444098 
L 370.377716 171.687438 
L 370.445419 172.384245 
L 370.280044 173.729047 
L 369.367824 176.078405 
L 368.715066 177.225207 
L 366.281712 180.528771 
L 363.808023 183.246781 
L 360.733151 186.230127 
L 356.725786 189.769761 
L 352.083801 193.576149 
L 348.344071 196.378396 
L 346.910012 197.198154 
L 346.625225 197.153931 
L 346.672156 196.909068 
L 347.024756 196.322206 
L 348.19038 194.892722 
L 351.072061 191.588189 
L 351.066138 191.329466 
L 350.980793 191.232962 
L 350.409399 191.027801 
L 347.920247 190.492489 
L 346.759709 190.053139 
L 345.476663 189.282375 
L 344.639158 188.478381 
L 344.025331 187.501034 
L 343.760862 186.68379 
L 343.686851 185.983994 
L 343.803542 185.010698 
L 344.468821 183.575433 
L 345.119787 182.808211 
L 346.370232 181.848466 
L 347.848217 181.144305 
L 349.442381 180.692675 
L 350.866242 180.481764 
L 352.368454 180.415459 
L 354.969375 180.615164 
L 357.393177 181.110714 
L 359.261895 181.677665 
L 362.060283 182.814996 
L 366.164357 185.118588 
L 368.164229 186.54167 
L 369.342831 187.486979 
L 372.308194 190.302338 
L 373.215841 191.327717 
L 375.533078 194.556458 
L 376.383497 196.190974 
L 376.906282 197.578848 
L 377.136272 198.53778 
L 377.199388 200.015601 
L 377.127261 200.426942 
L 376.84066 201.162245 
L 376.260464 201.836003 
L 375.785209 202.131388 
L 374.454987 202.460631 
L 372.977331 202.39043 
L 371.025573 201.914594 
L 369.037468 201.136372 
L 367.026623 200.128192 
L 364.289723 198.472051 
L 361.132154 196.219293 
L 358.035297 193.691246 
L 354.968896 190.891313 
L 352.406326 188.325199 
L 348.961259 184.552119 
L 342.561517 177.110641 
L 341.168539 175.903358 
L 340.27174 175.458305 
L 339.522351 175.462987 
L 339.04103 175.851786 
L 338.876092 176.180888 
L 338.7632 176.691317 
L 338.767966 177.360997 
L 338.923326 178.126084 
L 339.331409 179.124083 
L 339.836949 179.935964 
L 340.70684 180.929645 
L 341.91519 181.888746 
L 343.311919 182.639854 
L 345.493036 183.303759 
L 347.337012 183.494767 
L 354.802989 181.43315 
L 357.235056 179.764572 
L 359.950804 177.202872 
L 366.018503 167.588671 
L 368.477294 160.904617 
L 371.163184 148.055513 
L 372.099495 126.686833 
L 372.099495 126.686833 
" style="fill:none;stroke:#000000;stroke-linecap:square;stroke-opacity:0.7;stroke-width:1.2;"/>
   </g>
   <g id="line2d_13">
    <path clip-path="url(#pb2427998b8)" d="M 353.608711 173.58692 
L 350.825572 171.592641 
L 348.269067 169.449344 
L 345.092179 166.173085 
L 342.521909 162.742721 
L 339.439379 157.846233 
L 338.803937 157.218324 
L 337.97596 156.864219 
L 337.232602 156.926475 
L 336.520711 157.243662 
L 335.731745 157.836163 
L 334.744778 158.920786 
L 333.54135 160.979659 
L 333.011369 162.584574 
L 332.835326 163.859189 
L 332.877818 164.874038 
L 333.17289 165.970398 
L 333.942594 167.080163 
L 334.644662 167.563687 
L 335.255487 167.796107 
L 336.045007 167.928343 
L 336.740673 167.928684 
L 338.47097 167.585837 
L 340.299234 166.824548 
L 343.395758 164.836546 
L 346.019026 162.589651 
L 349.860551 158.481486 
L 351.685108 156.20054 
L 354.29596 152.550029 
L 356.061517 149.796371 
L 358.300637 145.900526 
L 360.671401 141.062479 
L 362.245 137.010544 
L 362.713713 135.425563 
L 363.090504 133.489398 
L 363.114797 132.416819 
L 362.724374 131.507464 
L 362.218485 131.435964 
L 361.226878 132.066154 
L 360.343739 133.151982 
L 359.696445 134.414158 
L 359.469109 135.346144 
L 359.54103 136.02739 
L 359.651747 136.236164 
L 360.090873 136.548696 
L 360.547994 136.612125 
L 361.155301 136.531087 
L 362.442284 136.038233 
L 363.172675 135.632155 
L 365.165988 134.152743 
L 366.420294 132.84932 
L 366.867142 132.133535 
L 366.90694 131.810768 
L 366.737147 131.711585 
L 366.345189 131.811351 
L 365.403122 132.384746 
L 363.909219 133.652988 
L 362.007054 135.636909 
L 359.656699 138.534321 
L 358.732384 139.79858 
L 355.789282 144.283606 
L 353.066723 149.043385 
L 350.31773 154.360755 
L 345.986094 162.918406 
L 344.338861 165.723724 
L 342.992874 167.621419 
L 342.314877 168.414038 
L 341.426746 169.270238 
L 339.911086 170.221352 
L 339.409197 170.386911 
L 338.186206 170.457702 
L 336.946694 169.998989 
L 335.779574 168.967501 
L 335.18861 168.148953 
L 334.31338 166.363855 
L 333.844025 164.908527 
L 333.374595 162.504174 
L 333.19243 160.191335 
L 333.244277 157.5801 
L 333.677416 154.157485 
L 334.560295 150.545204 
L 335.318772 148.333868 
L 336.228324 146.172907 
L 337.820248 143.121538 
L 340.425989 139.268134 
L 344.712428 134.635444 
L 346.286249 133.284345 
L 347.887528 132.056354 
L 350.754143 130.171405 
L 355.500705 127.774445 
L 360.894019 125.935406 
L 366.265308 124.888466 
L 371.206358 124.551077 
L 375.237667 124.708707 
L 378.064717 125.057914 
L 381.061755 125.656794 
L 384.481547 126.656739 
L 386.891793 127.591822 
L 390.874283 129.643754 
L 394.558975 132.277343 
L 396.541609 134.093934 
L 397.783013 135.415924 
L 399.142547 137.060327 
L 400.877545 139.512635 
L 402.059909 141.442233 
L 402.059909 141.442233 
" style="fill:none;stroke:#000000;stroke-linecap:square;stroke-opacity:0.7;stroke-width:1.2;"/>
   </g>
   <g id="line2d_14">
    <path clip-path="url(#pb2427998b8)" d="M 364.671931 103.617166 
L 354.729155 110.614402 
L 353.675091 111.570244 
L 348.735556 116.225101 
L 348.343268 116.3373 
L 347.869085 115.897731 
L 347.635762 112.779417 
L 347.73564 110.508706 
L 348.183562 105.043676 
L 349.155331 96.930096 
L 350.822001 87.460891 
L 352.095285 82.489487 
L 353.394063 78.83262 
L 354.654065 76.386618 
L 355.825193 74.973783 
L 356.227965 74.673224 
L 357.31667 74.354238 
L 358.122171 74.633386 
L 358.613628 75.065254 
L 359.140192 75.811439 
L 359.592485 76.775193 
L 360.217073 79.007997 
L 360.573876 81.866285 
L 360.605667 82.46359 
L 360.505998 86.605247 
L 360.281023 88.557577 
L 359.781166 91.256787 
L 358.967372 94.160414 
L 358.724542 94.84922 
L 357.808191 97.004332 
L 356.444619 99.334093 
L 354.696981 101.326091 
L 353.740831 102.067585 
L 352.496528 102.73543 
L 351.092617 103.145465 
L 349.195992 103.220214 
L 348.23978 103.08463 
L 346.346805 102.549768 
L 342.471637 100.815748 
L 340.06046 99.697186 
L 338.285592 99.045347 
L 336.384198 98.672208 
L 335.753948 98.668353 
L 334.618377 98.954335 
L 334.008248 99.581127 
L 333.914009 100.059394 
L 333.965369 100.427539 
L 334.31583 101.153048 
L 334.944884 101.852758 
L 335.979089 102.60882 
L 337.367037 103.304322 
L 339.243866 103.934263 
L 340.059984 104.131126 
L 342.603331 104.519937 
L 344.254123 104.619718 
L 347.020517 104.555058 
L 348.844705 104.361716 
L 352.02752 103.726756 
L 354.030267 103.100402 
L 355.9908 102.248051 
L 357.354878 101.421345 
L 358.478355 100.399868 
L 358.794699 99.952672 
L 359.135215 99.037747 
L 359.16756 98.433928 
L 359.04059 96.350082 
L 359.328222 95.224677 
L 359.802737 94.213865 
L 361.064772 92.217739 
L 364.429948 87.208362 
L 364.850235 86.308339 
L 365.07662 85.264749 
L 364.704249 84.551656 
L 363.822774 84.384471 
L 362.477923 84.648441 
L 360.82975 85.294182 
L 359.521454 85.970126 
L 357.319284 87.43904 
L 355.901575 88.765712 
L 355.207539 89.755697 
L 355.007695 90.204557 
L 354.857319 90.870004 
L 354.95993 91.779286 
L 355.153899 92.233577 
L 356.211575 93.495785 
L 357.731116 94.590286 
L 359.815786 95.709935 
L 363.218613 97.137573 
L 366.150075 98.120093 
L 371.514836 99.389977 
L 375.339775 99.820904 
L 375.339775 99.820904 
" style="fill:none;stroke:#000000;stroke-linecap:square;stroke-opacity:0.7;stroke-width:1.2;"/>
   </g>
   <g id="line2d_15">
    <path clip-path="url(#pb2427998b8)" d="M 374.071424 71.281581 
L 371.701262 68.895006 
L 369.152964 65.466857 
L 367.365053 61.904914 
L 366.457057 58.610833 
L 366.592384 54.57552 
L 367.338773 52.918044 
L 368.12342 52.009478 
L 369.086114 51.337153 
L 370.280537 50.870903 
L 371.670211 50.642775 
L 373.887454 50.715777 
L 375.606295 51.011573 
L 378.726823 51.83493 
L 381.787147 52.636026 
L 382.985387 52.715504 
L 383.426455 52.550504 
L 383.535025 52.332085 
L 383.471721 52.084443 
L 383.147535 51.71972 
L 382.617508 51.399771 
L 381.616273 51.071825 
L 380.249986 50.880574 
L 378.054564 50.828078 
L 374.902254 50.945511 
L 374.158195 51.095269 
L 373.949251 51.240928 
L 373.858914 51.728539 
L 374.144005 54.081979 
L 374.011875 54.968003 
L 373.679432 55.881753 
L 372.89539 57.04209 
L 372.272137 57.648282 
L 371.300278 58.3432 
L 369.582575 59.167502 
L 367.638849 59.749727 
L 365.134035 60.175904 
L 362.912363 60.354048 
L 359.020378 60.374771 
L 354.630876 60.142177 
L 350.365882 59.934151 
L 349.439278 60.017781 
L 349.034599 60.207933 
L 349.018424 60.474079 
L 349.517265 61.007765 
L 350.474018 61.663581 
L 354.404266 63.929465 
L 356.589027 65.32964 
L 357.30041 65.970921 
L 357.419844 66.344439 
L 357.151144 66.392789 
L 356.594556 66.117679 
L 356.206287 65.640971 
L 356.043858 64.875994 
L 356.266766 63.975106 
L 356.656686 63.274305 
L 357.765053 61.970051 
L 359.148583 60.770097 
L 361.448138 59.195921 
L 363.28187 58.165628 
L 365.916072 56.943548 
L 371.293264 54.704794 
L 373.260817 53.318057 
L 374.805476 51.953216 
L 378.580917 48.147855 
L 388.269974 37.821078 
L 388.269974 37.821078 
" style="fill:none;stroke:#000000;stroke-linecap:square;stroke-opacity:0.7;stroke-width:1.2;"/>
   </g>
   <g id="line2d_16">
    <path clip-path="url(#pb2427998b8)" d="M 486.854543 262.40589 
L 483.336809 253.1116 
L 480.407497 248.791095 
L 478.775206 247.06937 
L 475.62502 244.451457 
L 470.109789 240.487377 
L 468.336796 238.714491 
L 468.192148 238.299237 
L 468.295269 238.005512 
L 468.475362 237.882716 
L 468.906992 237.778283 
L 469.926612 237.799542 
L 473.049018 238.416422 
L 478.19592 239.863089 
L 486.451919 242.22506 
L 491.534319 243.428223 
L 494.685511 244.00188 
L 500.509593 244.564319 
L 505.759272 244.304249 
L 508.666664 243.738752 
L 511.513138 242.819137 
L 515.288764 240.91669 
L 516.473855 240.131229 
L 519.247799 237.878433 
L 520.933093 236.189777 
L 523.281822 233.364454 
L 525.083919 230.759233 
L 526.273684 228.786249 
L 527.736081 225.995191 
L 528.804954 223.519782 
L 529.360801 221.702139 
L 529.412885 220.954213 
L 529.24043 220.654779 
L 529.134873 220.624294 
L 528.799229 220.692293 
L 527.541497 221.537951 
L 520.913302 226.960545 
L 518.884729 228.205907 
L 516.945312 229.016854 
L 516.192102 229.165862 
L 515.409097 229.102905 
L 515.123554 228.868183 
L 515.15754 228.598356 
L 515.377221 228.426715 
L 515.766725 228.358022 
L 516.280679 228.479567 
L 516.986084 228.993342 
L 517.382006 229.519904 
L 517.835598 230.594531 
L 518.020184 231.710311 
L 518.027585 232.373216 
L 517.902577 233.413248 
L 517.326447 235.134458 
L 516.642124 236.288541 
L 516.062519 237.004754 
L 514.989445 237.996296 
L 513.982258 238.678313 
L 511.565697 239.722484 
L 509.520606 240.177074 
L 506.018996 240.355364 
L 502.946268 240.054425 
L 500.184697 239.49729 
L 495.036705 237.845643 
L 492.636265 236.819895 
L 489.124413 235.010791 
L 486.861331 233.618559 
L 484.891977 232.21865 
L 483.475305 231.062818 
L 480.638533 228.044714 
L 479.481748 226.029662 
L 479.086306 224.686229 
L 479.017828 224.062536 
L 479.056269 223.196961 
L 479.338921 222.130825 
L 479.973224 220.98184 
L 480.515953 220.317903 
L 482.770429 218.502816 
L 483.497906 218.06913 
L 486.5296 216.621437 
L 488.435316 215.892149 
L 493.985512 214.169494 
L 501.709569 212.247074 
L 525.107304 206.8432 
L 530.056775 205.484046 
L 537.25694 203.303063 
L 537.517874 203.552013 
L 537.062483 204.297607 
L 534.386286 207.780781 
L 532.497076 210.034363 
L 531.368901 211.279586 
L 531.368901 211.279586 
" style="fill:none;stroke:#000000;stroke-linecap:square;stroke-opacity:0.7;stroke-width:1.2;"/>
   </g>
   <g id="line2d_17">
    <path clip-path="url(#pb2427998b8)" d="M 502.296397 193.781879 
L 507.027572 192.829851 
L 511.468661 192.614569 
L 514.595364 192.741705 
L 516.806977 192.968287 
L 521.243646 193.814467 
L 524.429984 194.849822 
L 526.803474 196.003837 
L 528.019134 196.837203 
L 528.819559 197.599847 
L 529.277503 198.296643 
L 529.400389 198.713261 
L 529.246328 199.375489 
L 528.831052 199.730637 
L 527.687896 200.05531 
L 526.77258 200.103741 
L 524.681706 199.924037 
L 521.443737 199.229307 
L 519.105412 198.529593 
L 515.314909 197.117104 
L 511.748721 195.473702 
L 508.174805 193.446391 
L 505.701528 191.721891 
L 503.653657 189.97732 
L 501.608584 187.722505 
L 500.322603 185.745595 
L 499.963507 185.022974 
L 499.201871 182.736627 
L 498.993439 180.677572 
L 499.075567 179.527964 
L 499.390698 178.081551 
L 499.980427 176.599505 
L 500.616934 175.50346 
L 502.004089 173.84383 
L 503.226617 172.836732 
L 504.266127 172.212191 
L 505.678677 171.664453 
L 506.626496 171.503857 
L 507.443939 171.536665 
L 508.285814 171.832078 
L 508.565803 172.034994 
L 509.080512 172.781099 
L 509.245814 173.806682 
L 509.133703 174.722532 
L 508.638756 176.204136 
L 507.787307 177.831359 
L 507.036481 178.984649 
L 505.28007 181.248407 
L 503.298943 183.420904 
L 500.486013 186.121411 
L 497.586732 188.593619 
L 494.020607 191.306952 
L 490.98378 193.594575 
L 491.130115 193.699003 
L 492.599639 193.909148 
L 494.793382 194.367492 
L 496.507904 194.913495 
L 499.86145 196.342527 
L 507.128296 199.742462 
L 508.860975 200.243227 
L 509.803188 200.39511 
L 510.995825 200.423382 
L 512.518171 200.106982 
L 513.26107 199.765249 
L 514.45667 198.873426 
L 515.226687 198.015556 
L 516.220117 196.473249 
L 517.099844 194.563737 
L 518.011955 191.830139 
L 518.567871 189.647137 
L 519.472635 184.871627 
L 520.192476 179.387162 
L 520.722396 173.501277 
L 521.142273 165.878123 
L 521.250926 164.141538 
L 521.571603 162.142003 
L 521.808117 161.640411 
L 522.406835 161.306505 
L 523.04454 161.502928 
L 524.074441 162.288711 
L 525.57395 163.918737 
L 526.909549 165.639815 
L 529.121622 168.840091 
L 532.767885 174.745293 
L 539.172484 186.258159 
L 543.922223 195.296184 
L 543.922223 195.296184 
" style="fill:none;stroke:#000000;stroke-linecap:square;stroke-opacity:0.7;stroke-width:1.2;"/>
   </g>
   <g id="line2d_18">
    <path clip-path="url(#pb2427998b8)" d="M 490.462131 175.769436 
L 496.01086 172.040728 
L 503.719837 158.873228 
L 501.819911 155.625626 
L 498.475683 152.714399 
L 497.25274 151.94124 
L 495.010586 150.762172 
L 492.225689 149.629315 
L 490.060666 148.9606 
L 483.12289 148.016045 
L 481.679334 148.093666 
L 480.18759 148.321111 
L 478.987519 148.655894 
L 476.654188 150.208416 
L 476.208937 151.180895 
L 476.253794 152.433505 
L 476.731665 153.499979 
L 477.551915 154.532415 
L 478.884883 155.668131 
L 480.626441 156.728434 
L 482.317796 157.497967 
L 485.255605 158.421885 
L 487.33443 158.818703 
L 489.907913 159.037416 
L 492.584957 158.931319 
L 495.823032 158.267217 
L 497.708881 157.53505 
L 499.104002 156.778189 
L 500.804413 155.532721 
L 502.192516 154.169258 
L 503.651658 152.282543 
L 504.768134 150.441562 
L 506.132492 147.664338 
L 507.170333 145.070106 
L 507.496463 143.781742 
L 507.507034 143.252059 
L 507.329232 142.733377 
L 506.86318 142.332846 
L 506.195429 142.107928 
L 505.003199 141.979346 
L 503.299122 142.015829 
L 499.874288 142.411196 
L 496.797719 142.993681 
L 493.421718 143.879102 
L 491.868718 144.402375 
L 489.314122 145.546789 
L 488.130239 146.345998 
L 487.562413 146.943131 
L 487.278037 147.681992 
L 487.441565 148.226217 
L 487.830594 148.607524 
L 488.546319 148.964769 
L 489.03303 149.113311 
L 490.543915 149.345976 
L 492.697077 149.336921 
L 495.086632 149.010787 
L 497.237536 148.459953 
L 499.514808 147.566032 
L 500.961093 146.762536 
L 501.788168 146.172238 
L 502.777263 145.244932 
L 503.767568 143.64895 
L 503.981347 142.808148 
L 504.016436 142.378237 
L 503.933142 141.460756 
L 503.514205 140.245832 
L 503.328324 139.887273 
L 502.181099 138.268511 
L 500.405098 136.420594 
L 496.937025 133.056871 
L 496.053589 131.958152 
L 495.441539 130.867884 
L 495.212676 129.876257 
L 495.369659 129.089526 
L 495.675971 128.647304 
L 496.108472 128.306576 
L 496.436965 128.139206 
L 497.855221 127.825152 
L 499.640698 127.913816 
L 501.459707 128.33653 
L 503.413753 129.081861 
L 505.068844 129.929993 
L 508.412519 132.28912 
L 510.506612 134.333084 
L 511.790469 135.939924 
L 512.740742 137.467446 
L 513.470252 139.223794 
L 513.617586 139.912806 
L 513.615359 140.863192 
L 512.646505 142.076837 
L 511.656454 142.331268 
L 509.722174 142.681301 
L 508.281223 143.28624 
L 506.290354 144.785316 
L 504.341727 146.790803 
L 502.22157 149.264438 
L 493.422081 159.828303 
L 488.808167 165.02765 
L 485.346103 168.755563 
L 485.346103 168.755563 
" style="fill:none;stroke:#000000;stroke-linecap:square;stroke-opacity:0.7;stroke-width:1.2;"/>
   </g>
   <g id="line2d_19">
    <path clip-path="url(#pb2427998b8)" d="M 502.543149 101.229424 
L 503.438876 101.795262 
L 504.487199 103.119847 
L 504.92366 104.299842 
L 505.170572 105.943448 
L 505.179085 107.602485 
L 504.977712 109.803382 
L 504.463811 113.69371 
L 504.542735 113.904034 
L 504.836693 113.7666 
L 505.765162 112.658065 
L 508.465383 108.980869 
L 508.910156 107.934651 
L 508.877501 107.315786 
L 508.585656 106.868327 
L 507.834097 106.382024 
L 507.251353 106.157257 
L 505.112191 105.683193 
L 502.637181 105.448513 
L 500.106965 105.451885 
L 497.533446 105.749113 
L 495.75161 106.181095 
L 493.762762 106.909227 
L 491.090953 108.191978 
L 487.009844 110.200418 
L 484.920124 110.976981 
L 483.568521 111.223058 
L 482.965733 111.131775 
L 482.67697 110.85935 
L 482.636112 110.498941 
L 482.725952 110.153325 
L 483.204586 109.29971 
L 484.245616 108.08077 
L 485.357484 107.064782 
L 486.983812 105.883649 
L 488.42348 105.094532 
L 489.630984 104.616825 
L 491.162106 104.262476 
L 492.608679 104.194303 
L 494.078475 104.387214 
L 495.552441 104.821715 
L 497.785622 105.819549 
L 501.155695 107.506136 
L 503.081788 108.175568 
L 503.534252 108.271625 
L 505.207612 108.362835 
L 506.653611 108.043753 
L 507.846014 107.451375 
L 509.474245 106.083644 
L 510.615844 104.681602 
L 511.543226 103.232761 
L 512.834188 100.678318 
L 513.924726 97.940403 
L 515.095033 94.289013 
L 515.892006 91.814096 
L 515.934206 92.050409 
L 515.819132 94.569762 
L 515.601125 98.936963 
L 515.662816 99.028801 
L 515.736353 98.956314 
L 516.761141 96.475355 
L 518.015508 93.514511 
L 521.580497 85.67061 
L 521.65544 85.201137 
L 521.588215 84.663035 
L 521.588215 84.663035 
" style="fill:none;stroke:#000000;stroke-linecap:square;stroke-opacity:0.7;stroke-width:1.2;"/>
   </g>
   <g id="line2d_20">
    <path clip-path="url(#pb2427998b8)" d="M 521.313432 50.94969 
L 520.22867 49.536516 
L 519.975233 48.981303 
L 519.487495 46.551241 
L 519.761403 44.081973 
L 520.463198 42.467212 
L 521.89523 41.402632 
L 522.51299 41.420021 
L 523.027479 41.607791 
L 524.256438 42.664903 
L 525.244249 44.196698 
L 526.260231 46.74714 
L 526.817318 49.354454 
L 526.937188 50.867956 
L 526.704208 53.542385 
L 526.123457 55.263329 
L 525.086013 56.82757 
L 524.315951 57.556355 
L 522.687527 58.550105 
L 521.364338 59.046593 
L 519.128047 59.532348 
L 515.790737 59.795606 
L 513.301292 59.798573 
L 500.18454 59.368225 
L 495.881547 59.622561 
L 493.811124 59.927626 
L 491.876608 60.374979 
L 489.727598 61.148702 
L 488.883506 61.575245 
L 487.387939 62.652341 
L 486.881161 63.210004 
L 486.494192 63.841723 
L 486.302007 64.684516 
L 486.423053 65.183079 
L 486.734824 65.554142 
L 486.952656 65.685438 
L 487.692882 65.84538 
L 488.934024 65.631138 
L 490.624632 64.780545 
L 491.107982 64.442863 
L 492.736779 63.013356 
L 493.756426 61.877374 
L 494.680747 60.660376 
L 495.972719 58.56499 
L 497.233942 55.729894 
L 497.66465 54.320278 
L 498.038452 52.201689 
L 498.073865 51.109662 
L 497.926581 49.840268 
L 497.555976 48.769653 
L 496.819672 47.818967 
L 496.292319 47.480994 
L 495.467755 47.250774 
L 494.521353 47.28803 
L 493.20085 47.735106 
L 491.961124 48.512107 
L 490.396536 49.993892 
L 489.40511 51.286412 
L 488.098456 53.666242 
L 487.313403 55.940066 
L 486.973919 57.739892 
L 486.884802 59.245537 
L 487.013422 60.879829 
L 487.190009 61.729488 
L 487.563985 62.840609 
L 488.357077 64.233506 
L 489.166736 65.105544 
L 490.667569 66.019215 
L 491.772733 66.340935 
L 492.825655 66.468883 
L 494.856925 66.433741 
L 497.999299 66.329781 
L 500.545264 66.540336 
L 503.189369 66.746701 
L 505.575252 66.533399 
L 506.987336 66.112787 
L 508.12586 65.583172 
L 509.298475 64.847747 
L 511.97612 62.426111 
L 513.889905 60.071131 
L 515.242893 58.099528 
L 517.058056 55.052926 
L 518.625793 52.030774 
L 520.122895 48.760267 
L 521.952796 44.107706 
L 523.566242 39.050528 
L 524.587396 34.779365 
L 525.006863 32.033619 
L 525.050218 30.837105 
L 525.065355 31.935862 
L 525.256989 33.200384 
L 526.093125 35.897831 
L 526.565749 36.8473 
L 527.162457 37.734569 
L 527.640948 38.23359 
L 528.204333 38.563699 
L 528.204333 38.563699 
" style="fill:none;stroke:#000000;stroke-linecap:square;stroke-opacity:0.7;stroke-width:1.2;"/>
   </g>
   <g id="line2d_21">
    <path clip-path="url(#pb2427998b8)" d="M 634.83187 232.397783 
L 633.597228 224.114967 
L 633.601603 222.863162 
L 633.919811 222.096952 
L 634.48699 221.83216 
L 635.80049 221.808673 
L 638.353706 221.912472 
L 640.749546 221.783635 
L 643.177686 221.354042 
L 644.221076 221.060821 
L 646.323386 220.191108 
L 647.125778 219.669551 
L 647.406292 219.296313 
L 647.28558 219.242718 
L 646.766233 219.402659 
L 646.074812 219.777293 
L 644.531158 220.895444 
L 643.586846 221.717567 
L 641.479409 223.88714 
L 639.435454 226.469734 
L 638.021916 228.612625 
L 636.649278 231.123432 
L 636.125968 232.260194 
L 634.947393 235.682939 
L 634.565353 237.896785 
L 634.558718 239.630322 
L 634.848586 241.060739 
L 635.217204 241.893822 
L 635.513845 242.341781 
L 636.334628 243.122995 
L 636.926641 243.452483 
L 638.208731 243.790375 
L 639.587922 243.782371 
L 640.916885 243.518836 
L 642.530724 242.928386 
L 644.373016 241.928545 
L 646.121892 240.652265 
L 647.739621 239.138395 
L 649.31596 237.239036 
L 650.387415 235.567324 
L 650.922501 234.536435 
L 651.804245 232.239099 
L 652.253698 230.170951 
L 652.38528 228.041787 
L 652.207207 226.103474 
L 651.912091 224.777682 
L 651.243408 222.945016 
L 650.452605 221.510559 
L 649.642472 220.536128 
L 649.376889 220.46346 
L 649.405295 220.748967 
L 649.787122 221.632553 
L 652.904803 227.878442 
L 653.848709 230.413794 
L 654.639664 233.286778 
L 655.034321 234.494419 
L 655.22207 234.42782 
L 655.526429 233.713303 
L 656.129358 231.543633 
L 657.37256 226.107444 
L 659.625662 216.00817 
L 660.020414 215.154186 
L 660.224977 214.99592 
L 660.345114 215.000664 
L 660.673667 215.351581 
L 661.07295 216.248211 
L 662.591173 220.112171 
L 663.438892 221.60543 
L 664.359229 222.727398 
L 664.989297 223.254078 
L 666.243668 223.828784 
L 667.539449 223.861123 
L 668.315577 223.633143 
L 669.810887 222.672845 
L 672.015278 219.752766 
L 673.456029 216.161264 
L 674.201615 212.841376 
L 674.624786 207.8679 
L 674.624786 207.8679 
" style="fill:none;stroke:#000000;stroke-linecap:square;stroke-opacity:0.7;stroke-width:1.2;"/>
   </g>
   <g id="line2d_22">
    <path clip-path="url(#pb2427998b8)" d="M 616.570862 198.944227 
L 619.785814 203.491036 
L 623.453536 205.578615 
L 631.959606 205.6891 
L 633.176233 205.372886 
L 637.392902 203.794613 
L 641.536127 201.582211 
L 651.752999 193.44278 
L 655.608517 189.241753 
L 659.829772 183.634188 
L 661.81083 180.470205 
L 663.894866 176.524504 
L 665.732542 171.974953 
L 666.872465 166.669688 
L 666.80855 164.659741 
L 666.252959 163.139905 
L 665.967461 162.826862 
L 665.56832 162.583603 
L 665.023322 162.48275 
L 664.049955 162.726364 
L 663.109484 163.323164 
L 661.078115 165.516241 
L 660.272727 166.687964 
L 659.31544 168.297999 
L 657.553693 171.910008 
L 656.362879 174.880159 
L 655.098541 178.578927 
L 653.863462 182.814246 
L 650.665889 195.084618 
L 650.086439 196.526566 
L 648.615728 198.228417 
L 648.038841 198.337621 
L 647.616025 198.284846 
L 646.631341 197.841766 
L 645.860669 197.265597 
L 644.335011 195.718431 
L 642.754812 193.681008 
L 641.37816 191.5442 
L 641.027689 190.928879 
L 639.354253 187.007144 
L 639.071035 185.593185 
L 639.053002 184.140083 
L 639.313264 182.974664 
L 639.586189 182.346815 
L 640.163721 181.467648 
L 641.53676 180.166951 
L 642.862323 179.299569 
L 644.694092 178.375058 
L 646.776619 177.577983 
L 648.675448 177.078104 
L 650.87563 176.779719 
L 652.77447 176.750315 
L 654.912312 176.946626 
L 657.147878 177.402041 
L 658.595645 177.842735 
L 661.138825 178.970026 
L 662.38892 179.769678 
L 663.720626 180.991595 
L 664.0685 181.452983 
L 664.579057 182.630309 
L 664.585106 183.340366 
L 664.292567 184.000705 
L 663.8833 184.393291 
L 663.641551 184.54289 
L 662.306866 184.923671 
L 660.407539 184.871848 
L 659.249256 184.658151 
L 656.627505 183.861354 
L 653.833796 182.710501 
L 646.073445 179.291969 
L 644.412439 178.747842 
L 640.640628 177.610059 
L 638.793204 176.848611 
L 636.841317 175.792835 
L 634.471294 174.194807 
L 631.580396 171.907933 
L 624.120408 165.624404 
L 622.4271 164.493476 
L 620.382101 163.709752 
L 619.3953 163.796716 
L 618.757135 164.160946 
L 618.200956 164.798365 
L 617.53455 166.198492 
L 616.708396 169.555609 
L 615.291633 178.417786 
L 615.291633 178.417786 
" style="fill:none;stroke:#000000;stroke-linecap:square;stroke-opacity:0.7;stroke-width:1.2;"/>
   </g>
   <g id="line2d_23">
    <path clip-path="url(#pb2427998b8)" d="M 642.023595 157.547148 
L 650.113316 148.004626 
L 657.015487 138.952316 
L 663.305234 129.937661 
L 669.138484 121.03652 
L 673.508875 114.361653 
L 675.178984 112.162453 
L 675.484703 111.974739 
L 675.490909 112.221919 
L 674.835331 113.717136 
L 673.206064 116.452678 
L 671.431265 118.988258 
L 668.352881 122.776436 
L 666.285173 125.011771 
L 664.657801 126.634732 
L 660.370924 130.453057 
L 657.605579 132.631638 
L 653.602365 135.460955 
L 650.110017 137.618492 
L 647.778632 138.80056 
L 646.914044 138.983677 
L 646.935623 138.777826 
L 647.206344 138.439189 
L 648.573016 137.253392 
L 651.580337 135.112054 
L 655.276162 132.807412 
L 659.068354 130.730656 
L 661.796844 129.464404 
L 663.559026 128.871505 
L 663.969983 128.918111 
L 663.824514 129.133819 
L 663.17552 129.595455 
L 661.043075 130.69733 
L 657.569763 132.15101 
L 651.758502 134.462076 
L 650.260536 135.326474 
L 649.653837 135.902006 
L 649.318576 136.586557 
L 649.347366 137.389675 
L 649.547739 137.922633 
L 650.58102 139.432555 
L 652.869344 141.892275 
L 655.431109 144.601598 
L 657.363585 146.95538 
L 658.305908 148.33581 
L 659.191989 149.94593 
L 659.847803 151.633952 
L 660.210422 153.387626 
L 660.240518 155.107972 
L 659.972991 156.762014 
L 659.330095 158.699438 
L 658.452969 160.570074 
L 657.165823 162.81331 
L 657.016677 162.786279 
L 656.234172 161.156145 
L 655.492793 160.361419 
L 654.985754 160.026293 
L 654.30311 159.766692 
L 653.557075 159.70918 
L 653.045966 159.815217 
L 652.503694 160.091927 
L 652.04218 160.528604 
L 651.672847 161.145356 
L 651.400273 162.196461 
L 651.401919 163.31176 
L 651.75131 164.866467 
L 652.129587 165.81085 
L 652.836635 167.099539 
L 653.891607 168.527838 
L 654.708657 169.408477 
L 656.931844 171.162708 
L 658.575308 171.915578 
L 659.530458 172.040968 
L 660.410892 171.370505 
L 660.109657 169.73948 
L 658.279374 166.82507 
L 654.180768 162.253677 
L 654.180768 162.253677 
" style="fill:none;stroke:#000000;stroke-linecap:square;stroke-opacity:0.7;stroke-width:1.2;"/>
   </g>
   <g id="line2d_24">
    <path clip-path="url(#pb2427998b8)" d="M 634.719486 117.584492 
L 634.184514 117.752571 
L 634.080801 117.511374 
L 634.359406 116.373127 
L 634.81138 115.380448 
L 636.933838 111.891878 
L 638.707494 109.45482 
L 642.055265 105.370295 
L 645.21563 101.898413 
L 649.34487 97.743257 
L 655.09992 92.462393 
L 664.449361 84.224177 
L 665.630986 82.843627 
L 666.124944 82.008413 
L 666.342449 81.115331 
L 666.299333 80.76062 
L 665.78792 79.97187 
L 664.976516 79.484671 
L 663.898127 79.163014 
L 663.238192 79.061728 
L 661.286476 79.046234 
L 659.991721 79.231006 
L 658.32456 79.681916 
L 656.110406 80.653079 
L 654.313063 81.759027 
L 652.386382 83.252836 
L 651.84635 83.72498 
L 647.58595 88.067124 
L 641.161153 95.105537 
L 638.565158 97.567377 
L 636.760588 99.050379 
L 634.615982 100.511282 
L 632.726386 101.446856 
L 631.812766 101.729778 
L 630.7644 101.81854 
L 630.114923 101.579585 
L 629.855328 101.193583 
L 629.81622 100.794487 
L 630.069385 99.964636 
L 630.72173 98.982601 
L 631.84019 97.844795 
L 633.269882 96.755628 
L 634.974665 95.748753 
L 636.397545 95.081363 
L 638.552743 94.315558 
L 640.472513 93.861008 
L 643.036091 93.591272 
L 645.390097 93.593225 
L 645.386579 93.517026 
L 645.14919 93.202517 
L 642.624035 90.401272 
L 641.255031 88.653877 
L 639.641983 86.325321 
L 638.226064 83.863097 
L 637.75052 82.705112 
L 637.688149 82.291966 
L 637.967399 82.188153 
L 638.502578 82.631375 
L 639.676661 84.055137 
L 641.207726 86.296747 
L 643.627939 90.313656 
L 648.340398 98.35138 
L 649.857992 100.419045 
L 650.226608 100.844174 
L 651.410693 101.971787 
L 652.616252 102.721139 
L 653.671484 103.041921 
L 654.25714 103.089116 
L 655.596901 102.867596 
L 656.24936 102.604743 
L 658.115073 101.352973 
L 659.291059 100.221391 
L 661.18297 97.904789 
L 663.921897 93.479186 
L 665.063458 91.099885 
L 665.722004 89.27133 
L 665.959875 88.077396 
L 665.910233 86.817907 
L 665.523085 85.681256 
L 664.62136 84.102654 
L 660.87787 78.199127 
L 655.83643 69.101445 
L 655.83643 69.101445 
" style="fill:none;stroke:#000000;stroke-linecap:square;stroke-opacity:0.7;stroke-width:1.2;"/>
   </g>
   <g id="line2d_25">
    <path clip-path="url(#pb2427998b8)" d="M 628.082782 81.812863 
L 632.860403 78.704357 
L 638.153508 74.24867 
L 643.610978 69.083864 
L 647.390964 65.126065 
L 650.682783 61.159249 
L 651.881009 59.426101 
L 653.208142 56.929538 
L 653.663919 55.526914 
L 653.819071 53.857838 
L 653.547494 52.559659 
L 652.824099 51.281345 
L 652.18499 50.585419 
L 650.89678 49.599373 
L 649.275637 48.729341 
L 646.752673 47.777214 
L 644.054752 47.067486 
L 641.026849 46.517219 
L 635.936981 46.019617 
L 632.188906 45.941898 
L 628.329493 46.107856 
L 625.426702 46.409881 
L 623.147775 46.771599 
L 620.783933 47.294649 
L 617.736916 48.336046 
L 616.638789 48.945717 
L 615.889275 49.666385 
L 615.715445 50.301369 
L 615.819539 50.647777 
L 616.1271 51.053174 
L 617.423404 51.89485 
L 619.498305 52.712529 
L 622.925786 53.729766 
L 637.289796 57.683173 
L 642.120667 59.308242 
L 645.083554 60.436761 
L 649.956511 62.58743 
L 653.651024 64.571211 
L 656.039394 66.128171 
L 657.822554 67.572573 
L 658.924386 68.798775 
L 659.355531 69.753782 
L 659.337841 70.050181 
L 659.160232 70.329375 
L 658.744885 70.51759 
L 657.94944 70.533021 
L 657.001832 70.335115 
L 655.411284 69.73673 
L 653.625795 68.802723 
L 651.947901 67.723396 
L 650.127692 66.347699 
L 647.67384 64.144765 
L 645.690434 62.030074 
L 644.648582 60.774342 
L 642.585952 57.898476 
L 641.249535 55.635129 
L 640.203935 53.472215 
L 639.459407 51.381022 
L 639.422601 51.072737 
L 639.514541 51.257077 
L 640.028794 53.035735 
L 641.9578 60.594088 
L 643.069341 63.587607 
L 643.648538 64.711455 
L 644.193496 65.543555 
L 645.32224 66.704855 
L 645.928053 67.074837 
L 646.488429 67.288292 
L 647.23788 67.407552 
L 649.353369 66.93195 
L 650.027677 66.577032 
L 651.736843 65.325785 
L 653.613951 63.452637 
L 654.705112 62.149193 
L 656.922766 59.023577 
L 658.537682 56.289317 
L 659.710236 53.955973 
L 660.775113 51.338956 
L 661.265228 49.64668 
L 661.41176 48.770951 
L 661.35238 47.794785 
L 660.994869 47.522509 
L 660.75921 47.603452 
L 660.375071 47.921324 
L 659.769519 48.74869 
L 659.251281 49.748787 
L 658.712606 51.158768 
L 658.250861 52.963347 
L 657.989561 55.531536 
L 658.07235 56.862813 
L 658.307968 57.94063 
L 658.620356 58.66932 
L 659.245713 59.365071 
L 660.303966 59.477527 
L 661.290667 58.80833 
L 663.185564 55.583105 
L 664.024953 53.090923 
L 664.789047 49.865723 
L 665.841881 41.764127 
L 665.841881 41.764127 
" style="fill:none;stroke:#000000;stroke-linecap:square;stroke-opacity:0.7;stroke-width:1.2;"/>
   </g>
  </g>
 </g>
 <defs>
  <clipPath id="pb2427998b8">
   <rect height="262.08" width="694.08" x="12.96" y="12.96"/>
  </clipPath>
 </defs>
</svg>
