<?xml version="1.0" encoding="utf-8" standalone="no"?>
<!DOCTYPE svg PUBLIC "-//W3C//DTD SVG 1.1//EN"
  "http://www.w3.org/Graphics/SVG/1.1/DTD/svg11.dtd">
<!-- Created with matplotlib (https://matplotlib.org/) -->
<svg height="288pt" version="1.1" viewBox="0 0 720 288" width="720pt" xmlns="http://www.w3.org/2000/svg" xmlns:xlink="http://www.w3.org/1999/xlink">
 <metadata>
  <rdf:RDF xmlns:cc="http://creativecommons.org/ns#" xmlns:dc="http://purl.org/dc/elements/1.1/" xmlns:rdf="http://www.w3.org/1999/02/22-rdf-syntax-ns#">
   <cc:Work>
    <dc:type rdf:resource="http://purl.org/dc/dcmitype/StillImage"/>
    <dc:date>2020-11-14T04:48:30.082801</dc:date>
    <dc:format>image/svg+xml</dc:format>
    <dc:creator>
     <cc:Agent>
      <dc:title>Matplotlib v3.3.2, https://matplotlib.org/</dc:title>
     </cc:Agent>
    </dc:creator>
   </cc:Work>
  </rdf:RDF>
 </metadata>
 <defs>
  <style type="text/css">*{stroke-linecap:butt;stroke-linejoin:round;}</style>
 </defs>
 <g id="figure_1">
  <g id="patch_1">
   <path d="M 0 288 
L 720 288 
L 720 0 
L 0 0 
z
" style="fill:#ffffff;"/>
  </g>
  <g id="axes_1">
   <g id="line2d_1">
    <path clip-path="url(#pe7ee2fa2ec)" d="M 68.884823 206.514254 
L 70.451695 210.915148 
L 72.027459 216.221434 
L 73.948515 224.533079 
L 74.755664 229.425653 
L 75.029194 231.577263 
L 75.061952 231.286896 
L 75.189237 228.564943 
L 75.519966 225.769835 
L 75.917516 224.03591 
L 76.568521 222.516992 
L 77.241691 221.737793 
L 77.971461 221.366234 
L 78.740165 221.308441 
L 79.442679 221.48895 
L 80.20974 221.96831 
L 80.575736 222.37225 
L 80.947673 223.168401 
L 81.023641 223.792816 
L 80.888362 224.717887 
L 80.411597 225.866235 
L 79.780028 226.873815 
L 78.685072 228.237389 
L 77.379276 229.603225 
L 74.228563 232.481228 
L 72.143713 234.473039 
L 71.671843 235.182371 
L 71.636174 235.518518 
L 71.834639 235.763084 
L 72.262152 235.905823 
L 73.228099 235.955781 
L 75.472742 235.743741 
L 81.861154 234.964113 
L 81.845445 235.097348 
L 81.284238 235.464177 
L 79.487324 236.250978 
L 75.869486 237.538513 
L 72.706593 238.450471 
L 70.251455 238.922588 
L 69.301413 238.979975 
L 68.202435 238.780316 
L 67.84603 238.476205 
L 67.735925 238.188291 
L 67.731913 237.849202 
L 68.099168 236.842576 
L 68.761974 235.817504 
L 69.918323 234.406568 
L 72.082457 232.177314 
L 75.066864 229.478786 
L 78.137071 226.968073 
L 82.170491 223.982935 
L 86.75951 220.987544 
L 89.501954 219.402949 
L 94.127938 217.061112 
L 97.723201 215.307963 
L 98.481366 214.825312 
L 99.425831 213.898056 
L 99.785798 213.146239 
L 99.896338 212.598042 
L 99.873755 211.487173 
L 99.483684 209.898209 
L 99.021935 208.825789 
L 98.719435 208.324031 
L 98.208739 207.798124 
L 97.771444 207.715805 
L 97.34995 208.060319 
L 96.981738 208.830514 
L 96.587055 210.350821 
L 96.014793 214.520333 
L 95.237027 225.149706 
L 94.581443 235.235421 
L 94.581443 235.235421 
" style="fill:none;stroke:#000000;stroke-linecap:square;stroke-opacity:0.7;stroke-width:1.2;"/>
   </g>
   <g id="line2d_2">
    <path clip-path="url(#pe7ee2fa2ec)" d="M 60.976892 176.782089 
L 53.180572 179.868221 
L 48.330635 183.191083 
L 44.509091 190.259705 
L 44.641125 191.839085 
L 45.088987 192.975536 
L 45.530004 193.473226 
L 46.078859 193.670106 
L 46.460582 193.573762 
L 47.036358 193.054837 
L 47.5902 192.090315 
L 48.40626 189.877823 
L 50.521868 183.470557 
L 52.095079 180.021526 
L 52.590818 179.127876 
L 53.749999 177.302444 
L 55.896857 174.639605 
L 58.715439 172.07482 
L 59.55751 171.454297 
L 65.542609 168.322243 
L 69.27546 167.164803 
L 73.722969 166.323464 
L 75.605303 166.107933 
L 80.345572 165.86517 
L 85.168042 165.984363 
L 92.197655 166.690753 
L 97.686086 167.656862 
L 100.393291 168.392532 
L 101.095562 168.786352 
L 101.147765 168.907208 
L 100.81774 169.221714 
L 99.591579 169.586702 
L 94.903177 170.496328 
L 88.442295 171.82672 
L 81.052989 173.663949 
L 74.752263 175.51537 
L 70.020616 177.098799 
L 66.408315 178.445754 
L 61.57775 180.512118 
L 59.218685 181.689973 
L 56.500326 183.290176 
L 54.389637 184.879961 
L 52.978912 186.366784 
L 52.277984 187.507604 
L 51.934089 188.527695 
L 51.849853 189.425006 
L 51.877346 189.829525 
L 52.306067 191.299829 
L 52.626629 191.907392 
L 53.616983 193.261276 
L 54.992328 194.652378 
L 56.933751 196.23052 
L 59.729147 198.105521 
L 61.720162 199.220103 
L 63.969972 200.170431 
L 64.793783 200.378871 
L 65.942685 200.450017 
L 67.055089 200.130267 
L 67.625558 199.746064 
L 68.393663 198.917893 
L 68.849922 198.235463 
L 69.65358 196.685737 
L 70.859836 193.695029 
L 75.558686 180.833603 
L 77.950392 175.858984 
L 79.085179 174.081835 
L 79.422943 173.631256 
L 80.699515 172.265545 
L 81.665081 171.593868 
L 82.67364 171.229097 
L 82.976923 171.187083 
L 84.171086 171.329657 
L 86.140202 172.696649 
L 86.458339 173.069837 
L 87.211417 174.184009 
L 87.700335 175.160418 
L 88.22696 176.747377 
L 88.41784 178.258144 
L 88.266378 179.604545 
L 87.726056 180.8504 
L 87.20889 181.502673 
L 86.09759 182.386503 
L 83.577472 183.484915 
L 82.262128 183.862855 
L 73.645235 185.962418 
L 70.709714 187.031308 
L 66.660172 189.288695 
L 64.980562 190.645588 
L 62.67992 193.142328 
L 60.985288 195.667037 
L 59.725375 198.065976 
L 57.185494 204.26335 
L 55.818573 207.63392 
L 55.818573 207.63392 
" style="fill:none;stroke:#000000;stroke-linecap:square;stroke-opacity:0.7;stroke-width:1.2;"/>
   </g>
   <g id="line2d_3">
    <path clip-path="url(#pe7ee2fa2ec)" d="M 69.817194 146.376496 
L 77.399313 144.974919 
L 80.216366 143.85067 
L 85.192489 140.890388 
L 87.303465 139.208574 
L 90.493406 136.097286 
L 92.162333 134.14221 
L 93.351458 132.575086 
L 95.579084 129.080236 
L 97.543247 124.584993 
L 97.984579 122.355037 
L 97.906569 120.91171 
L 97.573994 120.059239 
L 96.470845 119.195931 
L 95.202916 119.067073 
L 94.088538 119.261519 
L 92.095108 120.015941 
L 90.024154 121.168553 
L 89.152648 121.740737 
L 85.836685 124.317286 
L 84.175265 125.834155 
L 80.587898 129.66976 
L 78.425504 132.457334 
L 76.378702 135.638319 
L 74.864359 138.703109 
L 74.272861 140.363835 
L 73.891475 142.135313 
L 73.974793 143.823178 
L 74.201971 144.265805 
L 74.582528 144.518723 
L 75.028581 144.481096 
L 75.363987 144.290434 
L 75.906942 143.694836 
L 76.472815 142.484202 
L 76.668673 141.660801 
L 76.760355 140.218572 
L 76.638085 139.091995 
L 76.337331 137.919249 
L 75.709092 136.461062 
L 74.948011 135.232997 
L 73.720894 133.732417 
L 71.557701 131.344094 
L 71.382877 130.83511 
L 71.436033 130.480849 
L 71.530989 130.298036 
L 72.240826 129.653866 
L 73.503003 128.978574 
L 76.881726 127.609726 
L 88.063607 123.544895 
L 94.04423 121.50525 
L 95.281971 121.275366 
L 95.109379 121.43807 
L 93.996292 121.988434 
L 90.808992 123.216415 
L 85.053612 125.041809 
L 79.215735 126.636735 
L 65.568823 130.242459 
L 64.133716 130.747898 
L 62.294949 131.656934 
L 61.740349 132.22037 
L 61.649141 132.626016 
L 62.38201 133.537916 
L 63.769212 134.257638 
L 65.447221 134.896588 
L 68.913588 135.995024 
L 80.752066 139.598344 
L 87.868 142.321064 
L 90.617483 143.65349 
L 92.803509 144.945877 
L 94.327771 146.103509 
L 95.293633 147.209073 
L 95.237836 147.125186 
L 94.906245 146.068051 
L 94.600867 144.34721 
L 92.750139 130.257286 
L 90.525506 120.056925 
L 88.488205 112.939389 
L 88.488205 112.939389 
" style="fill:none;stroke:#000000;stroke-linecap:square;stroke-opacity:0.7;stroke-width:1.2;"/>
   </g>
   <g id="line2d_4">
    <path clip-path="url(#pe7ee2fa2ec)" d="M 55.808592 97.466367 
L 53.080557 94.082589 
L 51.960913 93.203894 
L 51.93937 93.263736 
L 52.33122 93.66485 
L 53.6066 94.526265 
L 56.449412 95.870039 
L 59.142746 96.775481 
L 62.086465 97.491668 
L 66.77548 98.168218 
L 70.001311 98.335472 
L 74.486821 98.14671 
L 77.355667 97.713671 
L 79.32175 97.219175 
L 80.854075 96.663601 
L 82.280538 95.901905 
L 82.62433 95.648051 
L 83.329266 94.826182 
L 83.415281 94.459862 
L 83.156902 93.997543 
L 82.491108 93.809162 
L 81.795874 93.863327 
L 81.334577 93.974058 
L 80.455798 94.306555 
L 78.571475 95.459325 
L 76.883288 96.968369 
L 76.507096 97.369376 
L 75.111015 99.091475 
L 73.51737 101.613251 
L 72.882811 102.841907 
L 71.146456 107.396706 
L 70.880052 108.394274 
L 70.309052 111.407974 
L 70.110309 113.947987 
L 70.137136 115.636616 
L 70.299337 117.239132 
L 70.704982 119.145567 
L 71.044191 120.170126 
L 72.031167 122.121663 
L 72.91217 123.234936 
L 73.418562 123.717203 
L 74.842806 124.655566 
L 76.166921 125.122792 
L 76.831302 125.242251 
L 78.260057 125.277892 
L 79.763405 125.021303 
L 80.658116 124.733143 
L 82.407548 123.874009 
L 83.842248 122.85129 
L 84.463249 122.306371 
L 85.999811 120.627557 
L 86.920376 119.327106 
L 88.003196 117.362252 
L 89.063108 114.596241 
L 89.640308 112.21791 
L 89.95904 109.920806 
L 90.07438 106.890127 
L 89.985446 104.924162 
L 89.528822 101.339561 
L 88.85933 98.257261 
L 87.900015 95.014028 
L 86.896901 92.279097 
L 85.098902 88.252817 
L 83.073554 84.531142 
L 81.921576 82.691981 
L 79.716327 79.65648 
L 78.061707 77.822294 
L 77.066579 76.960381 
L 75.994526 76.367864 
L 75.349052 76.361956 
L 75.018425 76.648268 
L 74.842532 77.099026 
L 74.768534 77.840231 
L 74.945916 79.670769 
L 75.63681 82.953137 
L 76.479254 86.935274 
L 76.710976 88.778961 
L 76.732264 90.19705 
L 76.456312 91.7247 
L 76.026597 92.55642 
L 75.451762 93.10624 
L 74.586925 93.454538 
L 73.831634 93.504503 
L 72.428838 93.204022 
L 71.216456 92.627597 
L 70.185543 91.923654 
L 68.5591 90.342319 
L 67.508809 88.845584 
L 67.060467 87.983269 
L 66.521033 86.49888 
L 66.289452 85.309641 
L 66.261576 83.680854 
L 66.49354 82.379376 
L 67.152005 80.735258 
L 67.751155 79.785355 
L 68.380877 79.013062 
L 70.392728 77.295511 
L 72.668185 76.061318 
L 74.585081 75.35984 
L 76.094135 74.966108 
L 77.626049 74.684189 
L 81.523871 74.416658 
L 85.011497 74.656842 
L 87.486302 75.086563 
L 92.190227 76.525303 
L 95.573911 78.151168 
L 97.845942 79.615063 
L 99.594777 81.037512 
L 101.327548 82.874824 
L 102.41622 84.515358 
L 103.062784 86.39795 
L 102.643177 88.179107 
L 102.149374 88.599297 
L 100.309887 89.025102 
L 98.006867 88.725123 
L 95.995189 88.13705 
L 93.511028 87.17817 
L 90.892716 86.000373 
L 90.892716 86.000373 
" style="fill:none;stroke:#000000;stroke-linecap:square;stroke-opacity:0.7;stroke-width:1.2;"/>
   </g>
   <g id="line2d_5">
    <path clip-path="url(#pe7ee2fa2ec)" d="M 70.545812 87.687494 
L 66.642251 78.369515 
L 65.062222 73.129593 
L 63.970806 67.950389 
L 63.340989 62.149942 
L 63.335369 57.312332 
L 64.020496 51.604664 
L 65.179223 47.172979 
L 65.808045 45.470799 
L 66.824011 43.251916 
L 69.062239 39.766734 
L 71.328143 37.49818 
L 72.278945 36.838877 
L 73.252085 36.331006 
L 74.793954 35.885914 
L 75.680728 35.860846 
L 76.38204 35.997559 
L 77.097983 36.345765 
L 77.682579 36.914511 
L 78.154311 37.97145 
L 78.247132 38.712578 
L 78.079162 40.212125 
L 77.780433 41.201387 
L 76.729491 43.407019 
L 75.133072 45.814989 
L 73.530941 47.831415 
L 71.10654 50.526016 
L 67.193634 54.412922 
L 60.994655 60.347807 
L 60.632357 61.093212 
L 60.794042 61.368131 
L 60.97629 61.457719 
L 62.263571 61.611032 
L 66.35762 61.568042 
L 71.386628 61.635307 
L 78.555592 61.79062 
L 80.387193 61.558719 
L 81.426431 61.199892 
L 82.038414 60.80289 
L 82.534121 60.246097 
L 82.890211 59.499383 
L 83.127187 58.172842 
L 83.141932 57.175001 
L 82.875882 54.334312 
L 81.845478 46.657107 
L 81.795789 46.701672 
L 81.247161 47.684304 
L 80.410855 49.001153 
L 79.506497 50.040094 
L 78.793607 50.587919 
L 78.185322 50.832353 
L 77.692681 50.816471 
L 77.429117 50.680803 
L 77.071845 50.175526 
L 76.94722 49.599476 
L 77.014864 48.909412 
L 77.228777 48.634243 
L 77.419393 48.683691 
L 77.760333 49.097661 
L 79.68135 52.229107 
L 80.341832 52.927389 
L 81.117044 53.549866 
L 82.010724 54.069628 
L 83.500127 54.595555 
L 84.886392 54.804559 
L 86.223557 54.809772 
L 87.588582 54.650677 
L 89.511382 54.184321 
L 91.260587 53.53902 
L 95.234538 51.337416 
L 97.638596 49.489452 
L 100.195704 47.020646 
L 102.735219 43.899663 
L 104.38634 41.358015 
L 106.29757 37.582712 
L 108.533933 30.248206 
L 108.533933 30.248206 
" style="fill:none;stroke:#000000;stroke-linecap:square;stroke-opacity:0.7;stroke-width:1.2;"/>
   </g>
   <g id="line2d_6">
    <path clip-path="url(#pe7ee2fa2ec)" d="M 234.840786 247.006054 
L 213.264579 223.827337 
L 209.281673 214.154589 
L 208.239436 203.529033 
L 208.938392 198.869811 
L 211.725961 191.578869 
L 212.892611 189.676468 
L 215.79723 186.174815 
L 217.231408 184.914476 
L 220.018857 183.181676 
L 223.612951 182.364743 
L 225.005303 182.602839 
L 226.206988 183.213254 
L 226.721814 183.657224 
L 227.428724 184.596377 
L 227.921974 185.777981 
L 228.168426 187.172778 
L 227.977893 189.814407 
L 226.926141 192.880303 
L 225.271315 195.616198 
L 223.555793 197.634167 
L 222.602643 198.557533 
L 220.238142 200.45223 
L 218.243136 201.74193 
L 216.532655 202.690382 
L 214.412503 203.720899 
L 206.01438 207.116627 
L 203.941437 207.975045 
L 199.330973 210.254361 
L 198.436891 210.795883 
L 195.93452 212.619433 
L 194.582375 213.912231 
L 193.559759 215.175182 
L 192.70244 216.661096 
L 192.284881 217.792085 
L 192.014886 219.614291 
L 192.422464 222.19678 
L 192.861681 223.319236 
L 193.884283 225.169281 
L 195.160441 226.950559 
L 195.667106 227.58117 
L 199.382587 231.664649 
L 205.149299 237.448802 
L 207.132817 239.156957 
L 207.65609 239.504733 
L 208.711822 239.949506 
L 209.406952 239.980235 
L 210.366954 239.605926 
L 211.460209 238.6429 
L 212.095931 237.897603 
L 215.488271 233.19367 
L 218.370582 229.349391 
L 220.112664 227.255379 
L 222.187247 225.011381 
L 224.359489 222.968596 
L 226.577432 221.245174 
L 228.478686 220.142469 
L 229.793845 219.714873 
L 230.589587 219.793751 
L 230.8007 219.97673 
L 230.489235 221.725019 
L 230.099127 222.362791 
L 228.400491 224.461607 
L 226.333487 226.523743 
L 222.697519 229.673695 
L 218.092827 233.271086 
L 213.091932 236.960851 
L 201.396126 245.531691 
L 196.379748 249.524685 
L 193.571015 252.00953 
L 191.11239 254.529641 
L 190.707336 255.008644 
L 189.236425 257.254884 
L 189.044771 257.811108 
L 189.019433 258.568616 
L 189.183733 258.902399 
L 189.616547 259.199586 
L 190.753137 259.276486 
L 192.858465 258.654237 
L 194.402817 257.883707 
L 196.032333 256.858036 
L 198.074209 255.290429 
L 199.776243 253.741515 
L 203.523916 249.457645 
L 206.337642 245.293018 
L 208.784723 240.928823 
L 213.511019 231.803881 
L 216.819671 226.730759 
L 217.87476 225.407623 
L 219.598671 223.481901 
L 223.180408 220.145171 
L 226.968532 217.194115 
L 229.444548 215.435011 
L 235.415271 211.392244 
L 246.849579 203.030947 
L 249.735009 200.514531 
L 256.724742 192.921587 
L 264.647452 175.410261 
L 264.647452 175.410261 
" style="fill:none;stroke:#000000;stroke-linecap:square;stroke-opacity:0.7;stroke-width:1.2;"/>
   </g>
   <g id="line2d_7">
    <path clip-path="url(#pe7ee2fa2ec)" d="M 231.253947 190.068626 
L 218.559875 190.445936 
L 216.329846 190.122452 
L 215.780431 190.044965 
L 215.773165 190.190952 
L 216.449696 190.86044 
L 217.195505 191.333913 
L 217.959346 191.569684 
L 218.814879 191.524584 
L 219.661717 191.183486 
L 220.344269 190.729639 
L 221.864665 189.306867 
L 223.709393 187.118936 
L 226.136254 183.847794 
L 231.629002 176.121444 
L 233.490816 174.020454 
L 235.305257 172.384465 
L 237.139844 171.088829 
L 239.614979 169.579607 
L 239.592138 169.543044 
L 239.003692 169.39864 
L 235.58241 169.186735 
L 229.377865 168.983576 
L 227.26332 169.109582 
L 226.429607 169.331842 
L 226.089509 169.661831 
L 226.107254 169.943155 
L 226.424054 170.406938 
L 226.954361 170.88304 
L 228.966318 172.220789 
L 232.491983 174.182276 
L 240.313254 178.172607 
L 245.759949 180.731513 
L 247.832868 181.501801 
L 248.843933 181.680747 
L 249.328269 181.528608 
L 249.444131 181.179748 
L 249.387385 180.85504 
L 248.897157 179.830979 
L 248.144691 178.724041 
L 246.58397 176.813948 
L 244.51154 174.643337 
L 241.9471 172.390161 
L 239.592123 170.795169 
L 237.966443 170.05729 
L 237.450149 169.907414 
L 236.027299 169.788817 
L 235.223036 169.987762 
L 234.40206 170.501961 
L 233.775118 171.225109 
L 233.213542 172.280901 
L 232.640264 174.107396 
L 232.218326 176.473831 
L 230.875312 186.831818 
L 230.223191 188.799204 
L 229.733252 189.736323 
L 228.721789 190.891438 
L 227.765011 191.40809 
L 227.007796 191.574547 
L 223.70481 191.672098 
L 222.811797 191.895555 
L 220.728168 192.801796 
L 217.447583 194.728519 
L 217.447583 194.728519 
" style="fill:none;stroke:#000000;stroke-linecap:square;stroke-opacity:0.7;stroke-width:1.2;"/>
   </g>
   <g id="line2d_8">
    <path clip-path="url(#pe7ee2fa2ec)" d="M 206.999302 165.338716 
L 204.171927 159.879209 
L 204.362287 156.95773 
L 205.955339 153.430082 
L 207.052608 152.025431 
L 208.466815 150.6557 
L 209.902653 149.601149 
L 211.695605 148.653063 
L 212.563486 148.327054 
L 213.921718 147.98892 
L 215.272617 147.872925 
L 216.215805 147.937841 
L 217.674702 148.32527 
L 218.954712 149.059168 
L 219.577333 149.623772 
L 219.403639 149.344786 
L 213.896633 140.344362 
L 211.417589 137.040054 
L 208.962016 134.213128 
L 206.799974 132.046349 
L 204.047934 129.685921 
L 201.05768 127.633587 
L 200.34565 127.240346 
L 198.608411 126.584562 
L 198.269883 126.63813 
L 198.198641 126.794445 
L 198.306132 127.119354 
L 199.129041 128.146796 
L 200.533802 129.512715 
L 205.796578 134.465262 
L 207.739812 136.557214 
L 210.231502 139.699161 
L 212.141783 142.674258 
L 214.302918 147.08181 
L 215.441951 150.149684 
L 216.620412 154.187321 
L 217.524181 158.023456 
L 219.462274 166.707955 
L 220.392747 169.669906 
L 221.137133 171.35719 
L 222.023603 172.743902 
L 222.74519 173.481614 
L 223.87699 174.092454 
L 224.760701 174.195516 
L 225.775101 173.979117 
L 226.660462 173.53162 
L 227.749138 172.67561 
L 229.20289 171.012501 
L 230.229832 169.446224 
L 231.244622 167.500732 
L 232.403172 164.53853 
L 233.162312 161.659793 
L 233.321544 160.800162 
L 233.61211 157.8284 
L 233.559912 156.059072 
L 233.432907 155.046508 
L 232.941465 153.178018 
L 232.181371 151.714642 
L 231.123585 150.611724 
L 230.726992 150.350449 
L 229.9897 150.015411 
L 229.271241 149.839418 
L 228.089891 149.803821 
L 226.86978 150.03885 
L 225.600669 150.537122 
L 223.762518 151.696981 
L 222.453175 152.871019 
L 221.320127 154.198195 
L 220.83639 154.893644 
L 219.801278 156.920986 
L 219.3884 158.645781 
L 219.373497 159.178272 
L 219.622969 160.299286 
L 219.812281 160.621081 
L 220.624059 161.246664 
L 221.354956 161.395618 
L 223.361422 160.939834 
L 224.685724 160.192337 
L 226.19006 159.002461 
L 228.009333 157.104536 
L 228.822347 156.090623 
L 229.941308 154.517325 
L 231.305427 152.297543 
L 233.21448 148.559654 
L 234.324747 145.998456 
L 236.609448 139.726274 
L 239.812286 129.727906 
L 240.65784 127.859233 
L 241.177611 127.31749 
L 241.55832 127.464217 
L 241.959394 128.7161 
L 242.102125 129.982303 
L 242.163819 133.936935 
L 241.891143 139.131497 
L 240.894119 148.950589 
L 239.392776 160.143857 
L 238.224245 168.224134 
L 238.224245 168.224134 
" style="fill:none;stroke:#000000;stroke-linecap:square;stroke-opacity:0.7;stroke-width:1.2;"/>
   </g>
   <g id="line2d_9">
    <path clip-path="url(#pe7ee2fa2ec)" d="M 207.540914 113.743613 
L 204.702285 115.576035 
L 204.332568 114.98953 
L 205.513013 111.67465 
L 207.066295 108.814499 
L 208.177959 106.96602 
L 211.533948 101.853453 
L 214.607636 97.527765 
L 220.735247 89.470173 
L 229.76662 78.315017 
L 237.564334 69.041207 
L 239.04977 67.591928 
L 239.331392 67.510078 
L 239.43408 67.82235 
L 239.146069 69.113492 
L 237.673256 73.354019 
L 233.763294 83.566328 
L 230.453091 91.625852 
L 228.859436 95.245598 
L 225.17198 102.800534 
L 222.765504 107.008753 
L 221.268933 109.288806 
L 219.966208 111.029098 
L 218.063144 113.071754 
L 216.65177 114.082537 
L 215.687912 114.431816 
L 215.474333 114.462302 
L 214.835072 114.432834 
L 213.937125 114.0321 
L 213.046741 113.140629 
L 212.534983 112.391043 
L 211.466149 110.361186 
L 207.607591 101.869656 
L 207.826997 101.676686 
L 208.321607 101.572007 
L 210.117776 101.534465 
L 214.243831 101.421205 
L 217.753354 101.102111 
L 221.495049 100.545465 
L 225.541195 99.69627 
L 228.884642 98.776701 
L 232.611864 97.433291 
L 234.891359 96.351005 
L 236.668938 95.272649 
L 238.282644 93.990883 
L 239.846472 92.226589 
L 240.64809 90.879572 
L 241.035982 89.898952 
L 241.222815 88.827271 
L 241.119098 88.166794 
L 240.732072 87.677733 
L 240.174889 87.481447 
L 239.215595 87.514383 
L 238.100128 87.780683 
L 235.497952 88.74085 
L 227.061979 92.249814 
L 222.590375 93.803533 
L 219.083212 94.766448 
L 217.294497 95.1573 
L 217.876402 95.11827 
L 225.410081 94.533665 
L 226.94312 94.325155 
L 229.526115 93.669729 
L 230.900647 92.578009 
L 230.974989 91.724077 
L 230.230422 90.336402 
L 230.230422 90.336402 
" style="fill:none;stroke:#000000;stroke-linecap:square;stroke-opacity:0.7;stroke-width:1.2;"/>
   </g>
   <g id="line2d_10">
    <path clip-path="url(#pe7ee2fa2ec)" d="M 231.623549 78.138822 
L 220.645277 69.743947 
L 214.823118 65.450404 
L 203.923935 57.861186 
L 198.981574 54.729698 
L 193.425601 51.539575 
L 191.754229 50.665358 
L 186.937992 48.476667 
L 184.787225 47.824498 
L 184.233148 47.78628 
L 183.979196 47.884086 
L 185.102402 49.320958 
L 187.109689 50.743414 
L 191.328393 53.279179 
L 197.787941 56.726126 
L 204.229438 59.889864 
L 210.969835 62.992571 
L 219.16883 66.502438 
L 225.722581 69.066313 
L 232.771231 71.472375 
L 237.426102 72.715571 
L 241.365558 73.300338 
L 242.245305 73.30724 
L 243.242762 73.19981 
L 244.089557 72.922717 
L 244.579377 72.567151 
L 244.929839 71.907038 
L 244.778665 70.562878 
L 244.596086 70.120819 
L 244.071066 69.183319 
L 242.727151 67.432914 
L 241.01842 65.66524 
L 240.500356 65.182166 
L 237.019477 62.314673 
L 233.766552 60.039071 
L 230.687248 58.145735 
L 226.804917 56.070191 
L 224.083311 54.816837 
L 220.578256 53.472985 
L 219.487401 53.129221 
L 216.952667 52.527711 
L 215.687891 52.404109 
L 214.957261 52.473117 
L 214.584172 52.662361 
L 214.494716 52.830426 
L 214.707442 53.390656 
L 215.411975 54.05349 
L 217.817323 55.541316 
L 220.745714 56.983101 
L 232.062497 62.17811 
L 233.506182 63.020241 
L 235.138106 64.267984 
L 235.678293 64.964789 
L 235.801805 65.28597 
L 235.797921 65.720539 
L 235.441859 66.21405 
L 234.894232 66.518336 
L 233.603161 66.838299 
L 231.421844 66.958364 
L 227.904635 66.683069 
L 224.57982 66.111148 
L 220.489925 65.097196 
L 217.202643 64.056023 
L 213.003688 62.418153 
L 210.044032 61.017579 
L 207.159464 59.387318 
L 205.100643 57.987329 
L 203.065218 56.268291 
L 201.350153 54.230071 
L 200.881952 53.410965 
L 200.377521 51.91805 
L 200.305036 51.147802 
L 200.410217 50.179626 
L 200.826889 49.059929 
L 201.809338 47.695463 
L 202.060687 47.435535 
L 203.227968 46.441231 
L 205.014595 45.290128 
L 207.329756 44.127421 
L 211.860948 42.35968 
L 215.900602 41.058385 
L 234.481614 35.529292 
L 238.169742 34.243149 
L 238.042826 34.46146 
L 236.234383 36.156386 
L 234.03782 38.465387 
L 231.276769 41.826386 
L 227.883427 46.542725 
L 224.047215 51.98524 
L 222.082094 54.358869 
L 220.624798 55.794332 
L 220.624798 55.794332 
" style="fill:none;stroke:#000000;stroke-linecap:square;stroke-opacity:0.7;stroke-width:1.2;"/>
   </g>
   <g id="line2d_11">
    <path clip-path="url(#pe7ee2fa2ec)" d="M 352.779346 244.941084 
L 355.053314 235.449183 
L 356.169425 231.985788 
L 357.169602 229.696597 
L 357.981159 228.466403 
L 358.660705 227.884347 
L 359.527094 227.708816 
L 360.380308 228.071127 
L 361.401571 229.019094 
L 362.73207 230.772378 
L 364.085975 233.061341 
L 364.380507 233.7855 
L 364.516024 234.420428 
L 364.470324 234.928741 
L 364.237455 235.346122 
L 363.545131 235.80239 
L 362.226121 236.137994 
L 359.654179 236.354019 
L 354.435412 236.419599 
L 346.894344 236.488155 
L 340.285855 236.795546 
L 336.334012 237.185962 
L 332.780532 237.784772 
L 330.679637 238.379008 
L 329.441933 238.986844 
L 329.002859 239.410921 
L 328.873834 239.857927 
L 328.957652 240.130666 
L 329.290131 240.515615 
L 330.373598 241.117115 
L 331.435094 241.472657 
L 333.317473 241.878903 
L 335.833135 242.157601 
L 337.781904 242.214209 
L 339.88868 242.126642 
L 342.546253 241.772124 
L 344.617885 241.261145 
L 346.540461 240.533854 
L 348.141691 239.657228 
L 349.869825 238.258594 
L 350.907784 237.01811 
L 351.736436 235.602609 
L 352.459882 233.679205 
L 352.792907 232.244166 
L 353.122175 229.413923 
L 353.220394 225.73772 
L 353.367777 221.75071 
L 353.709823 219.710524 
L 354.083137 218.641638 
L 354.628316 217.738356 
L 355.11484 217.248638 
L 355.988987 216.768404 
L 357.23778 216.592317 
L 358.296767 216.731813 
L 359.916818 217.286204 
L 361.780454 218.2945 
L 363.217619 219.283752 
L 365.188945 220.892101 
L 367.192983 222.792894 
L 369.494924 225.283779 
L 371.923444 228.262881 
L 374.514026 231.863879 
L 376.478125 234.939299 
L 378.338322 238.264403 
L 379.251293 240.322687 
L 379.320883 240.754273 
L 379.094918 240.71202 
L 378.468713 240.029123 
L 377.017094 238.07587 
L 368.336262 225.931923 
L 364.453359 221.036563 
L 362.34839 218.599714 
L 359.825096 215.945575 
L 357.722648 214.078084 
L 356.688073 213.412994 
L 356.251521 213.320785 
L 356.141828 213.413025 
L 356.183502 213.816191 
L 356.842097 214.959669 
L 358.364 216.774252 
L 359.909207 218.272948 
L 361.256474 219.404259 
L 363.531165 221.012774 
L 364.927284 221.827417 
L 366.629626 222.647483 
L 368.900616 223.439299 
L 371.925835 223.918062 
L 375.393364 223.526596 
L 377.312822 222.778824 
L 379.777729 221.090273 
L 383.571628 215.978677 
L 385.755346 210.075327 
L 386.683506 205.613395 
L 387.444475 195.844729 
L 387.444475 195.844729 
" style="fill:none;stroke:#000000;stroke-linecap:square;stroke-opacity:0.7;stroke-width:1.2;"/>
   </g>
   <g id="line2d_12">
    <path clip-path="url(#pe7ee2fa2ec)" d="M 364.479073 179.158702 
L 356.431414 180.146586 
L 355.349396 179.968677 
L 353.227114 178.324075 
L 353.154163 177.666023 
L 353.575769 176.189905 
L 355.355128 173.810493 
L 358.460673 171.274437 
L 360.164048 170.227767 
L 361.954275 169.31116 
L 365.694315 167.952012 
L 367.183265 167.651249 
L 368.689542 167.577616 
L 369.101729 167.633991 
L 369.762628 167.951459 
L 369.8896 168.393122 
L 369.5432 169.075029 
L 368.734149 169.881936 
L 367.108179 171.094332 
L 363.872216 173.153736 
L 357.165435 177.374802 
L 353.765071 179.775445 
L 350.420894 182.4994 
L 348.592951 184.25869 
L 346.962183 186.187202 
L 346.264946 187.37395 
L 346.196015 187.935727 
L 346.343644 187.996508 
L 346.722831 187.829567 
L 347.297478 187.333347 
L 348.365912 186.026227 
L 349.433223 184.319107 
L 350.273516 182.663087 
L 350.846157 181.329671 
L 351.613119 179.153188 
L 352.26207 176.6473 
L 352.675887 174.042453 
L 352.8009 171.614993 
L 352.631893 169.308604 
L 352.265413 167.670505 
L 351.864253 166.675368 
L 351.40218 166.013726 
L 351.005143 165.80366 
L 350.914982 165.819412 
L 350.681952 166.155934 
L 350.661496 166.813642 
L 350.913216 167.944787 
L 351.391106 169.193267 
L 352.234001 170.864827 
L 353.308528 172.64136 
L 355.812027 176.195476 
L 360.572067 182.608787 
L 362.041166 185.016405 
L 362.942382 187.00865 
L 363.442978 188.992321 
L 363.509095 190.068932 
L 363.442403 190.922078 
L 363.075086 192.319679 
L 362.515181 193.437588 
L 361.418456 194.811919 
L 360.663392 195.478549 
L 359.527412 196.215438 
L 358.252678 196.686186 
L 357.580237 196.689429 
L 357.21317 196.404793 
L 357.206835 195.917046 
L 357.438309 195.389636 
L 358.040325 194.562739 
L 360.042362 192.627976 
L 362.735531 190.466302 
L 367.776692 186.487551 
L 370.899727 183.713621 
L 373.543592 180.98249 
L 375.510576 178.577892 
L 376.172523 177.6601 
L 378.068763 174.494355 
L 379.235711 171.518422 
L 379.502675 170.205481 
L 379.556361 169.119158 
L 379.449597 168.306473 
L 379.059493 167.39381 
L 378.800045 167.087604 
L 377.749828 166.584136 
L 377.042574 166.605118 
L 376.678959 166.735986 
L 376.661933 166.887321 
L 377.169633 166.88335 
L 381.159167 165.73458 
L 384.312484 164.544716 
L 384.312484 164.544716 
" style="fill:none;stroke:#000000;stroke-linecap:square;stroke-opacity:0.7;stroke-width:1.2;"/>
   </g>
   <g id="line2d_13">
    <path clip-path="url(#pe7ee2fa2ec)" d="M 363.719629 159.211754 
L 361.702935 160.919141 
L 361.322323 160.493608 
L 360.700539 157.536073 
L 360.612287 155.894081 
L 360.609707 153.045466 
L 360.780128 149.363958 
L 361.344019 143.341387 
L 362.21305 137.130395 
L 363.294462 130.228388 
L 363.33291 129.635401 
L 363.265528 128.787155 
L 363.090854 128.450982 
L 362.776023 128.309699 
L 362.49888 128.331643 
L 361.289893 128.891536 
L 359.838815 129.87095 
L 356.576807 132.385026 
L 353.50766 134.986178 
L 351.362622 137.064497 
L 350.262842 138.382401 
L 349.788671 139.176175 
L 349.645472 139.823771 
L 349.784234 140.078787 
L 350.317336 140.16906 
L 351.201504 139.875265 
L 352.221887 139.257802 
L 353.354379 138.303406 
L 354.526634 136.957983 
L 355.342467 135.630169 
L 355.659086 134.893729 
L 355.952675 133.463362 
L 355.864464 132.69707 
L 355.4332 131.939744 
L 354.704491 131.524464 
L 353.758097 131.457767 
L 353.372388 131.51774 
L 351.861134 132.094716 
L 350.675491 132.876843 
L 349.488752 133.961483 
L 348.466604 135.210665 
L 347.700577 136.455632 
L 347.02789 138.031627 
L 346.658247 139.700178 
L 346.622613 140.865906 
L 346.818836 142.101169 
L 347.101892 142.899392 
L 347.485979 143.612411 
L 348.275481 144.581095 
L 349.358169 145.43093 
L 349.871757 145.725869 
L 351.061507 146.237346 
L 352.209601 146.566274 
L 353.908398 146.844765 
L 355.688764 146.940746 
L 358.677005 146.777803 
L 361.620311 146.327266 
L 364.917969 145.580285 
L 373.97947 143.22276 
L 375.246583 143.154424 
L 376.199088 143.308939 
L 376.655995 143.493475 
L 377.182523 143.846682 
L 377.818779 144.5635 
L 379.021281 146.221988 
L 379.416205 146.166979 
L 379.70182 145.807972 
L 380.103383 144.789045 
L 380.556586 142.623039 
L 380.843751 139.856296 
L 380.92279 137.605829 
L 380.819825 134.640409 
L 380.497441 132.401996 
L 380.258788 131.66902 
L 379.929782 131.358223 
L 379.675126 131.683395 
L 379.424044 132.886268 
L 379.316833 134.918894 
L 379.373709 137.097641 
L 379.748481 140.768518 
L 379.925807 141.750705 
L 380.33504 142.966836 
L 380.566928 142.769165 
L 380.711666 141.764012 
L 380.770178 140.223269 
L 380.770178 140.223269 
" style="fill:none;stroke:#000000;stroke-linecap:square;stroke-opacity:0.7;stroke-width:1.2;"/>
   </g>
   <g id="line2d_14">
    <path clip-path="url(#pe7ee2fa2ec)" d="M 324.402378 129.251138 
L 332.65356 119.65792 
L 339.517918 110.739922 
L 344.563092 103.13927 
L 346.628333 99.550562 
L 349.143976 94.464173 
L 350.972866 89.771728 
L 352.057629 85.949897 
L 352.574146 83.23546 
L 352.878685 79.271387 
L 352.756374 76.990291 
L 352.340024 74.702624 
L 351.215375 71.946812 
L 349.826395 70.337087 
L 348.580456 69.678368 
L 347.970664 69.550313 
L 346.761699 69.616816 
L 345.206887 70.279721 
L 343.219245 72.082805 
L 342.663314 72.800995 
L 341.201461 75.24771 
L 340.698567 76.324311 
L 339.973693 78.173805 
L 339.351423 80.168129 
L 338.523677 84.063835 
L 338.327959 85.574655 
L 338.201623 90.675322 
L 338.469982 92.983318 
L 339.096399 95.471638 
L 339.967615 97.384535 
L 340.365536 97.991241 
L 341.869205 99.468093 
L 342.301555 99.726903 
L 343.708845 100.221373 
L 345.281106 100.299088 
L 345.921617 100.219131 
L 347.334766 99.855337 
L 348.262459 99.494214 
L 349.867905 98.672977 
L 351.921054 97.310271 
L 354.510917 95.169922 
L 356.065219 93.693436 
L 361.834093 87.878039 
L 362.619981 87.736122 
L 362.905813 87.942466 
L 363.300443 88.596744 
L 363.978661 90.529026 
L 365.087429 93.651842 
L 366.018909 95.662186 
L 366.84583 97.096376 
L 368.315769 99.07971 
L 369.781666 100.536366 
L 370.739059 101.269346 
L 372.83502 102.37003 
L 374.084432 102.717844 
L 375.307764 102.817156 
L 376.403691 102.631979 
L 377.023241 102.304383 
L 377.354239 101.877071 
L 377.373115 101.362462 
L 377.009594 100.812031 
L 376.232954 100.288014 
L 375.776374 100.084892 
L 373.810334 99.55062 
L 372.093839 99.316021 
L 369.239417 99.173866 
L 364.723719 99.322998 
L 360.302632 99.770442 
L 356.924948 100.305705 
L 354.075408 100.956759 
L 352.80475 101.364252 
L 351.534154 101.96037 
L 350.837411 102.580481 
L 350.70363 102.839994 
L 350.696752 103.506803 
L 350.997295 104.102689 
L 351.89292 105.121194 
L 354.532398 107.527373 
L 357.779458 110.336862 
L 359.784461 111.791713 
L 362.318649 113.263304 
L 365.540004 114.680433 
L 366.467606 115.018827 
L 372.628739 116.752305 
L 378.453682 117.884835 
L 399.797298 121.089046 
L 402.307887 121.659827 
L 404.924277 122.475422 
L 407.571373 124.00326 
L 408.266607 125.870128 
L 406.599198 128.400042 
L 404.737283 129.864281 
L 401.971954 131.568926 
L 398.286738 133.469692 
L 398.286738 133.469692 
" style="fill:none;stroke:#000000;stroke-linecap:square;stroke-opacity:0.7;stroke-width:1.2;"/>
   </g>
   <g id="line2d_15">
    <path clip-path="url(#pe7ee2fa2ec)" d="M 346.893603 58.464656 
L 340.614225 55.560727 
L 338.138691 52.672851 
L 338.345539 50.484766 
L 339.03444 49.392977 
L 341.446549 47.225348 
L 344.052987 45.629504 
L 346.842439 44.254367 
L 350.807455 42.624069 
L 357.971617 40.256406 
L 362.833325 38.961749 
L 368.439483 37.829784 
L 371.51386 37.495199 
L 373.843823 37.474176 
L 376.269951 37.741768 
L 378.798939 38.397526 
L 380.713767 39.182554 
L 382.473984 40.151105 
L 383.96246 41.184422 
L 386.129675 43.149866 
L 387.737406 45.180233 
L 388.326731 46.162352 
L 388.842117 47.243867 
L 389.388133 49.052702 
L 389.476932 49.648537 
L 389.449125 51.365182 
L 389.13229 52.582324 
L 388.741114 53.41282 
L 387.461002 55.002088 
L 386.066151 56.041412 
L 384.898756 56.656779 
L 382.926247 57.386894 
L 380.522643 57.934252 
L 377.951552 58.235245 
L 375.289771 58.313289 
L 371.918539 58.131861 
L 368.378682 57.634046 
L 366.356681 57.203997 
L 363.427427 56.358106 
L 361.72766 55.710493 
L 359.008069 54.287622 
L 357.472126 53.096366 
L 356.766798 52.361231 
L 355.866768 51.076681 
L 355.210823 49.586263 
L 354.805696 47.895509 
L 354.642114 46.370917 
L 354.618007 43.718125 
L 354.626672 42.57182 
L 354.552309 42.8705 
L 354.117304 46.559873 
L 353.586562 50.356552 
L 353.040849 52.516844 
L 352.559894 53.614463 
L 352.010988 54.385425 
L 351.352593 54.924202 
L 350.506948 55.25986 
L 349.145886 55.337715 
L 347.67953 55.077056 
L 345.942818 54.519799 
L 343.578772 53.522333 
L 340.01995 51.727736 
L 337.943098 50.536916 
L 335.910097 49.084974 
L 335.513906 48.501656 
L 335.507894 48.414425 
L 335.617478 48.191532 
L 335.953956 48.010817 
L 337.304378 47.823526 
L 337.816919 47.80905 
L 341.389669 47.932204 
L 348.418827 48.489723 
L 362.398344 49.85891 
L 370.114013 50.813065 
L 373.258831 51.339704 
L 375.39837 51.858877 
L 375.986504 52.181033 
L 375.568353 52.186481 
L 374.482419 51.869045 
L 373.481269 51.403726 
L 372.063479 50.493972 
L 370.9163 49.52806 
L 369.870962 48.446145 
L 368.704605 46.980922 
L 367.764252 45.575868 
L 366.5597 43.447766 
L 365.045149 40.191348 
L 363.654816 36.594368 
L 362.546268 33.313917 
L 362.546268 33.313917 
" style="fill:none;stroke:#000000;stroke-linecap:square;stroke-opacity:0.7;stroke-width:1.2;"/>
   </g>
   <g id="line2d_16">
    <path clip-path="url(#pe7ee2fa2ec)" d="M 488.196461 244.557985 
L 493.913144 242.692675 
L 502.054789 239.892703 
L 503.166897 239.349279 
L 504.910863 237.874044 
L 505.019728 237.568372 
L 504.972175 237.004781 
L 504.726689 236.608251 
L 503.622195 235.839662 
L 501.779033 235.044178 
L 501.530348 234.788751 
L 501.517533 234.278938 
L 501.739513 233.78991 
L 502.837222 232.13095 
L 504.504285 229.622995 
L 505.863899 227.280655 
L 506.669228 225.687576 
L 508.2371 221.751291 
L 508.861407 219.44594 
L 509.283562 216.70209 
L 509.311321 216.317144 
L 509.281865 213.99717 
L 508.951619 212.151156 
L 508.494593 210.950486 
L 508.064975 210.468771 
L 508.099658 210.727114 
L 508.544581 211.710363 
L 510.522578 215.482698 
L 511.268762 217.588134 
L 511.453004 218.573044 
L 511.47653 219.975475 
L 511.360041 220.683182 
L 511.06293 221.578842 
L 510.286095 222.849486 
L 508.854312 224.182897 
L 507.459878 225.02634 
L 506.361288 225.526123 
L 505.28078 225.922115 
L 502.970061 226.544433 
L 499.788782 227.056592 
L 496.524734 227.294512 
L 490.895053 227.217086 
L 487.906407 226.97657 
L 485.944445 226.753616 
L 478.738636 225.529633 
L 474.327204 224.489945 
L 475.29761 224.825737 
L 482.750429 227.285874 
L 489.194666 229.226214 
L 494.589957 230.601795 
L 498.613161 231.392395 
L 502.606046 231.851127 
L 503.974047 231.889849 
L 506.293853 231.713322 
L 507.753713 231.309866 
L 508.769326 230.671414 
L 509.194685 230.07893 
L 509.347095 229.172851 
L 509.190931 228.503627 
L 508.80082 227.823625 
L 509.208609 228.292595 
L 510.023598 229.073721 
L 512.73481 231.290981 
L 515.318252 233.121086 
L 518.14923 234.889659 
L 520.688186 236.266194 
L 523.934165 237.687462 
L 526.384779 238.428451 
L 527.673849 238.659094 
L 529.09224 238.737233 
L 530.948891 238.421324 
L 531.879815 237.969214 
L 532.704244 237.266564 
L 533.278478 236.462045 
L 533.839966 235.036934 
L 534.100975 233.306149 
L 533.75293 229.199026 
L 533.423649 227.795867 
L 532.584112 225.203474 
L 530.710317 221.290013 
L 529.254885 219.165838 
L 528.246256 218.035609 
L 525.73042 216.276915 
L 524.775633 215.984444 
L 522.417697 216.121141 
L 518.069338 219.486421 
L 515.378579 223.443919 
L 512.599099 228.822912 
L 512.599099 228.822912 
" style="fill:none;stroke:#000000;stroke-linecap:square;stroke-opacity:0.7;stroke-width:1.2;"/>
   </g>
   <g id="line2d_17">
    <path clip-path="url(#pe7ee2fa2ec)" d="M 503.444341 195.570863 
L 502.243299 195.586666 
L 500.052146 194.951993 
L 498.948653 194.017895 
L 498.371974 193.118232 
L 497.834134 191.066512 
L 498.014999 188.646883 
L 498.564911 186.875115 
L 499.346741 185.212052 
L 501.711515 180.778989 
L 501.898141 180.073345 
L 501.877442 179.252661 
L 501.674344 178.87537 
L 501.247922 178.592792 
L 500.807226 178.49478 
L 499.646315 178.546235 
L 496.691104 178.92542 
L 496.46842 178.907538 
L 495.612223 178.579078 
L 495.300971 178.083493 
L 495.292094 177.369458 
L 495.624742 176.500666 
L 496.210908 175.665788 
L 497.166524 174.750113 
L 497.891668 174.232757 
L 499.624216 173.360173 
L 502.038323 172.712332 
L 504.307657 172.538991 
L 506.85758 172.755056 
L 508.447582 173.092281 
L 511.326443 174.112962 
L 513.067312 175.05445 
L 514.394742 176.091291 
L 514.826951 176.596783 
L 515.136618 177.323169 
L 515.087596 177.718522 
L 514.785745 178.117718 
L 514.527463 178.294254 
L 513.100483 178.758206 
L 511.717147 178.952433 
L 507.797457 179.159195 
L 498.225152 179.516419 
L 494.413113 179.88366 
L 491.708679 180.288556 
L 487.880535 181.167675 
L 485.787886 181.881731 
L 483.789044 182.833301 
L 482.286749 183.877273 
L 481.8017 184.333043 
L 480.895208 185.575991 
L 480.537657 186.562812 
L 480.455357 187.139228 
L 480.478383 187.926505 
L 480.902903 189.403973 
L 481.471103 190.439281 
L 482.317435 191.553908 
L 483.870949 193.082174 
L 485.558754 194.366995 
L 487.084297 195.317824 
L 489.552939 196.532183 
L 491.432038 197.211436 
L 493.382366 197.684838 
L 494.877291 197.87197 
L 497.196234 197.820574 
L 498.36205 197.626951 
L 500.591494 196.983964 
L 503.984217 195.906357 
L 506.319337 195.551112 
L 509.90198 195.128321 
L 511.38539 194.627053 
L 512.014634 194.289845 
L 513.477137 193.101624 
L 514.393928 192.019029 
L 516.171503 189.311969 
L 518.784412 185.093584 
L 520.15743 183.088013 
L 523.842429 178.379606 
L 527.034106 174.814003 
L 531.253594 170.50281 
L 538.965826 163.223723 
L 547.665372 155.413191 
L 553.491718 150.267851 
L 553.491718 150.267851 
" style="fill:none;stroke:#000000;stroke-linecap:square;stroke-opacity:0.7;stroke-width:1.2;"/>
   </g>
   <g id="line2d_18">
    <path clip-path="url(#pe7ee2fa2ec)" d="M 461.462423 195.973851 
L 479.053823 181.951735 
L 493.475651 170.202237 
L 498.813656 166.237595 
L 500.949023 164.789484 
L 505.313479 162.162928 
L 508.815971 160.214911 
L 508.8804 160.033628 
L 508.184872 159.481968 
L 502.890453 156.982253 
L 499.790111 155.257517 
L 494.652743 151.960776 
L 490.471849 148.905538 
L 486.026318 145.299389 
L 482.267696 141.944306 
L 478.207656 137.944385 
L 474.752113 134.118555 
L 473.749845 132.904357 
L 471.013685 129.190496 
L 468.709767 125.019608 
L 468.156779 123.492878 
L 467.80715 121.785711 
L 467.876123 119.985265 
L 468.129685 119.148716 
L 468.438993 118.53841 
L 469.258341 117.541694 
L 470.216723 116.817278 
L 473.877787 115.451979 
L 476.293819 115.052096 
L 478.495693 114.855595 
L 483.294562 114.757781 
L 489.245201 115.008526 
L 495.483037 115.543982 
L 501.063887 116.222883 
L 505.884003 117.028331 
L 508.72064 117.742294 
L 509.952558 118.28447 
L 510.24228 118.532615 
L 510.345079 118.720544 
L 510.261419 119.074024 
L 509.65875 119.504597 
L 508.24853 119.999204 
L 505.947429 120.496955 
L 503.351757 120.886153 
L 498.112073 121.391901 
L 493.178441 121.639895 
L 486.89211 121.711275 
L 479.741211 121.71216 
L 478.714848 121.930844 
L 478.560057 122.258178 
L 478.669606 122.446749 
L 479.1481 122.87622 
L 479.982029 123.414313 
L 483.532178 125.198962 
L 483.963772 125.393669 
L 489.711663 127.752531 
L 494.366422 129.411663 
L 497.418988 130.390119 
L 504.014479 132.207714 
L 507.817477 133.065054 
L 513.457258 134.062051 
L 518.374795 134.641351 
L 521.980938 134.875532 
L 525.560681 134.927447 
L 527.957036 134.847246 
L 529.800608 134.712546 
L 532.365419 134.398684 
L 534.504476 133.993513 
L 537.843517 132.947189 
L 539.660788 131.956895 
L 540.563498 131.183679 
L 541.18273 130.328252 
L 541.469463 129.503378 
L 541.492834 128.807294 
L 540.527198 127.135595 
L 538.225985 126.484992 
L 537.328566 126.60834 
L 535.709397 127.188895 
L 534.819875 127.674196 
L 532.951411 129.015818 
L 531.911461 129.924778 
L 528.946203 133.007435 
L 523.131934 140.262516 
L 512.328482 154.017207 
L 504.755815 162.380265 
L 501.693096 165.402463 
L 501.693096 165.402463 
" style="fill:none;stroke:#000000;stroke-linecap:square;stroke-opacity:0.7;stroke-width:1.2;"/>
   </g>
   <g id="line2d_19">
    <path clip-path="url(#pe7ee2fa2ec)" d="M 488.408802 103.091709 
L 489.557505 104.296014 
L 491.128298 105.44228 
L 493.566957 106.716871 
L 495.02963 107.304954 
L 497.832397 108.174866 
L 501.977738 108.957033 
L 503.995562 109.115164 
L 506.285469 109.007418 
L 506.918887 108.813292 
L 507.046091 108.690654 
L 506.985433 108.523727 
L 506.399548 108.300621 
L 505.238921 108.175424 
L 502.855828 108.300787 
L 500.993988 108.635513 
L 498.990164 109.231976 
L 497.62692 109.876905 
L 497.755055 109.82873 
L 498.498885 109.361027 
L 500.334693 107.923392 
L 503.054721 105.408865 
L 505.777148 102.898818 
L 506.246164 102.657319 
L 506.634992 102.715079 
L 506.919206 103.293434 
L 507.438793 105.577312 
L 507.742211 105.969994 
L 507.98994 106.049524 
L 508.287797 105.965354 
L 508.678074 105.63472 
L 509.091739 105.055526 
L 509.769595 103.588754 
L 510.357556 101.529546 
L 510.694314 99.310153 
L 510.76349 97.658895 
L 510.658691 95.997288 
L 510.267342 94.121478 
L 509.683621 92.710843 
L 508.801444 91.484819 
L 507.872507 90.730607 
L 506.880573 90.270906 
L 506.178514 90.094295 
L 504.86002 90.005624 
L 504.304642 90.044451 
L 502.162734 90.515891 
L 500.238386 91.280108 
L 497.929193 92.521187 
L 496.625834 93.351774 
L 493.216857 95.902283 
L 490.002558 98.761739 
L 486.953748 101.89132 
L 484.479825 104.820858 
L 483.609732 105.96745 
L 483.722122 105.73481 
L 484.787015 103.354555 
L 485.907518 100.08878 
L 486.977501 96.020158 
L 487.615351 93.947421 
L 488.347363 92.775099 
L 489.161553 92.237821 
L 490.554885 91.942353 
L 492.131588 91.922046 
L 496.027159 92.221827 
L 506.677607 93.374667 
L 513.227349 94.211518 
L 521.367706 95.541165 
L 527.228114 96.769842 
L 533.127372 98.254535 
L 542.652043 100.82404 
L 543.95491 101.084564 
L 543.95491 101.084564 
" style="fill:none;stroke:#000000;stroke-linecap:square;stroke-opacity:0.7;stroke-width:1.2;"/>
   </g>
   <g id="line2d_20">
    <path clip-path="url(#pe7ee2fa2ec)" d="M 493.849235 63.681943 
L 505.451717 61.523279 
L 511.186315 59.762267 
L 518.39619 56.635987 
L 522.317643 54.33597 
L 525.343426 52.121591 
L 527.1334 50.541736 
L 530.494242 46.495685 
L 531.551249 44.418826 
L 532.049265 42.680168 
L 531.159075 38.582175 
L 529.887682 37.502377 
L 528.899648 37.044068 
L 527.771737 36.745436 
L 525.327658 36.640748 
L 522.403857 37.237242 
L 520.147908 38.185315 
L 519.085664 38.791658 
L 517.88737 39.61756 
L 515.643229 41.677202 
L 513.999825 43.800351 
L 512.994831 45.512596 
L 512.214695 47.188888 
L 511.062922 50.6964 
L 510.571188 53.001258 
L 510.019219 57.796049 
L 509.90791 61.279713 
L 510.022294 65.940502 
L 510.465885 71.936176 
L 511.248575 81.04314 
L 511.10962 81.299734 
L 510.903524 81.035442 
L 510.434319 79.905324 
L 509.429669 76.753134 
L 508.024366 71.519036 
L 506.840979 66.172427 
L 506.105689 61.774356 
L 505.750707 58.551601 
L 505.617403 56.176785 
L 505.655716 52.988313 
L 505.910156 50.451642 
L 506.432626 47.860841 
L 507.370479 45.096177 
L 508.092825 43.595231 
L 509.34072 41.632909 
L 510.566932 40.178946 
L 512.118203 38.77397 
L 513.623055 37.744008 
L 515.540405 36.790177 
L 516.423886 36.462659 
L 518.876238 35.866812 
L 521.052418 35.681865 
L 523.093948 35.786614 
L 525.31902 36.237847 
L 527.330976 37.093201 
L 528.27099 37.848018 
L 528.639003 38.441157 
L 528.715387 38.800878 
L 528.663655 39.211886 
L 528.212639 39.897915 
L 527.333703 40.513754 
L 525.912838 41.100594 
L 524.088162 41.580217 
L 521.140756 42.054531 
L 517.755 42.348029 
L 513.859342 42.477046 
L 508.223005 42.372451 
L 503.385058 42.019404 
L 499.009329 41.377769 
L 497.075035 40.830189 
L 496.467887 40.515622 
L 496.127244 40.055347 
L 496.173891 39.830715 
L 496.635032 39.390133 
L 497.799996 38.858558 
L 499.476013 38.361774 
L 502.572955 37.742016 
L 504.873299 37.473295 
L 506.813839 37.454704 
L 508.021471 37.68526 
L 508.612014 38.011755 
L 508.957756 38.466718 
L 509.089486 39.113748 
L 509.040805 39.682218 
L 508.842896 40.462038 
L 508.29948 41.838071 
L 507.02967 44.339909 
L 505.482876 46.96714 
L 503.919227 49.096765 
L 503.015025 49.885298 
L 501.723009 50.166935 
L 500.387842 49.376192 
L 498.978436 47.686844 
L 497.20691 44.924349 
L 497.20691 44.924349 
" style="fill:none;stroke:#000000;stroke-linecap:square;stroke-opacity:0.7;stroke-width:1.2;"/>
   </g>
   <g id="line2d_21">
    <path clip-path="url(#pe7ee2fa2ec)" d="M 656.330996 240.552826 
L 656.891409 236.241048 
L 657.964465 232.015639 
L 660.776035 224.525975 
L 662.32199 221.130266 
L 665.151995 215.49872 
L 668.236581 209.999306 
L 670.347379 206.815849 
L 671.18609 205.879343 
L 671.673756 205.567113 
L 672.03659 205.660546 
L 672.1258 205.828606 
L 672.202433 206.307996 
L 672.009791 208.002614 
L 671.315634 210.504415 
L 669.86061 214.086659 
L 668.06155 217.41186 
L 666.663589 219.507825 
L 665.072082 221.509995 
L 663.31927 223.31179 
L 662.163428 224.276429 
L 660.782841 225.167346 
L 659.692433 225.603555 
L 658.996937 225.687496 
L 658.252896 225.462501 
L 657.829375 225.032401 
L 657.4172 224.081815 
L 657.091855 222.539224 
L 656.597073 220.121535 
L 656.132865 218.767701 
L 655.517371 217.615156 
L 654.718515 216.649977 
L 653.989953 216.06876 
L 652.856562 215.526526 
L 651.896394 215.318827 
L 650.75324 215.310532 
L 649.476815 215.570838 
L 648.162332 216.12347 
L 646.937631 216.912968 
L 645.968807 217.755913 
L 644.906294 218.972311 
L 644.087561 220.244276 
L 643.593463 221.371589 
L 643.473293 222.068287 
L 643.62496 222.296034 
L 643.881801 222.22589 
L 644.676785 221.623216 
L 645.639751 220.972647 
L 646.13681 220.827894 
L 646.74316 220.930252 
L 647.232481 221.313148 
L 647.668131 221.965141 
L 648.114061 223.091125 
L 648.467624 224.604532 
L 648.724405 226.794442 
L 648.896404 228.508984 
L 649.041435 228.560779 
L 649.279355 228.363661 
L 651.824548 225.580717 
L 654.000265 223.696811 
L 656.257484 222.059913 
L 659.285148 220.170364 
L 666.374416 215.977031 
L 667.012298 215.413961 
L 667.424625 214.82726 
L 667.497083 214.433767 
L 666.884335 213.302814 
L 666.295434 212.289769 
L 665.630328 210.420136 
L 664.901554 207.248532 
L 663.06513 198.36336 
L 663.06513 198.36336 
" style="fill:none;stroke:#000000;stroke-linecap:square;stroke-opacity:0.7;stroke-width:1.2;"/>
   </g>
   <g id="line2d_22">
    <path clip-path="url(#pe7ee2fa2ec)" d="M 648.783848 194.607875 
L 649.168262 193.556557 
L 650.192454 189.955579 
L 654.4446 173.316743 
L 655.002568 171.707265 
L 655.136114 171.687208 
L 655.229994 171.963116 
L 655.452786 173.792193 
L 656.040413 181.390503 
L 656.08064 183.955698 
L 655.861266 186.337842 
L 655.522416 187.595376 
L 655.002492 188.604887 
L 654.542022 189.143177 
L 653.828197 189.659337 
L 652.646243 190.062414 
L 651.285205 190.13838 
L 650.208394 190.002945 
L 648.637403 189.547076 
L 647.240539 188.861967 
L 646.447179 188.312319 
L 645.552196 187.461104 
L 644.839665 186.430945 
L 644.440623 185.476509 
L 644.207552 184.294194 
L 644.218164 182.88304 
L 644.455444 181.528742 
L 645.077 179.630502 
L 645.989001 177.706206 
L 647.25267 175.660348 
L 648.293877 174.295304 
L 649.833195 172.673573 
L 651.064344 171.664639 
L 652.600986 170.716263 
L 653.885584 170.157834 
L 655.389424 169.745118 
L 657.323662 169.560004 
L 658.963428 169.695338 
L 660.373759 170.053685 
L 661.467949 170.59312 
L 661.852816 171.05874 
L 661.76707 171.306785 
L 661.354504 171.496425 
L 660.266843 171.592839 
L 658.029911 171.436775 
L 652.498678 170.652375 
L 647.896508 170.103845 
L 644.966418 170.033674 
L 643.820269 170.145949 
L 642.62757 170.451367 
L 641.878318 170.880955 
L 641.526499 171.29202 
L 641.366095 171.692664 
L 641.326226 172.161311 
L 641.592641 173.182179 
L 642.361748 174.476412 
L 643.499752 175.85553 
L 648.354319 180.983701 
L 648.896381 181.118622 
L 649.4339 181.122747 
L 650.797467 180.770573 
L 651.560301 180.392856 
L 652.409801 179.820844 
L 653.501267 178.805087 
L 654.142046 178.007911 
L 654.936954 176.681633 
L 654.936954 176.681633 
" style="fill:none;stroke:#000000;stroke-linecap:square;stroke-opacity:0.7;stroke-width:1.2;"/>
   </g>
   <g id="line2d_23">
    <path clip-path="url(#pe7ee2fa2ec)" d="M 627.774783 150.280571 
L 628.786021 147.152451 
L 630.209194 143.41402 
L 633.001337 138.027554 
L 634.354068 136.218106 
L 635.961956 134.675113 
L 636.373758 134.383102 
L 637.423134 133.830876 
L 638.232361 133.600241 
L 639.522497 133.621977 
L 640.650919 134.11709 
L 641.345884 134.718546 
L 642.038435 135.643366 
L 642.611361 136.78891 
L 643.314659 139.1831 
L 643.636447 141.442091 
L 643.752254 143.902414 
L 643.571846 147.908706 
L 643.217176 150.724808 
L 642.76934 153.08292 
L 641.917332 156.100081 
L 641.080524 157.990371 
L 640.22748 159.178016 
L 639.693549 159.626425 
L 639.166664 159.884593 
L 638.252999 159.967137 
L 637.346248 159.669577 
L 637.025973 159.487323 
L 634.964557 157.521524 
L 633.614009 155.603606 
L 631.960068 152.667349 
L 630.529422 149.653192 
L 628.028446 144.016098 
L 627.005664 142.375389 
L 626.457806 141.84376 
L 625.508537 141.4665 
L 624.503316 141.63496 
L 624.210389 141.763511 
L 623.372804 142.277232 
L 621.734542 143.741379 
L 620.28662 145.419592 
L 618.937251 147.32382 
L 617.696332 149.59698 
L 617.066696 151.471776 
L 616.961031 152.326424 
L 617.103472 153.396337 
L 617.450542 154.033541 
L 618.064136 154.549505 
L 618.631473 154.792154 
L 620.11996 154.982197 
L 621.081173 154.916221 
L 623.246419 154.459495 
L 626.160753 153.409029 
L 629.358635 151.86297 
L 632.086329 150.290658 
L 636.300467 147.478546 
L 640.948439 143.937699 
L 645.20559 140.634259 
L 646.28107 140.061288 
L 646.605096 139.996546 
L 646.905013 140.054667 
L 647.084866 140.208968 
L 647.293579 140.790035 
L 647.337788 141.782371 
L 647.060827 144.837289 
L 646.614575 149.187961 
L 646.54225 151.711081 
L 646.695383 153.026026 
L 646.920281 153.563237 
L 647.199668 153.779617 
L 647.574948 153.787822 
L 649.61396 153.292188 
L 650.279848 153.389005 
L 651.405275 153.851886 
L 652.388731 154.470902 
L 657.952142 158.446594 
L 659.79457 159.207201 
L 661.447819 159.484299 
L 662.346719 159.452362 
L 663.291578 159.26441 
L 664.689177 158.655858 
L 665.893588 157.743953 
L 667.967962 154.803483 
L 668.686121 152.896092 
L 669.257312 149.921353 
L 669.347722 147.360849 
L 668.949509 143.641711 
L 668.694782 142.406711 
L 667.914977 139.615567 
L 667.914977 139.615567 
" style="fill:none;stroke:#000000;stroke-linecap:square;stroke-opacity:0.7;stroke-width:1.2;"/>
   </g>
   <g id="line2d_24">
    <path clip-path="url(#pe7ee2fa2ec)" d="M 637.8182 134.093986 
L 646.267273 134.112542 
L 649.88095 133.686283 
L 654.532518 132.418489 
L 656.253532 131.618457 
L 658.063347 130.456629 
L 659.082701 129.587388 
L 660.507723 127.93715 
L 661.218612 126.781466 
L 661.778898 125.551306 
L 662.231873 124.076808 
L 662.463849 122.760485 
L 662.511704 120.28598 
L 662.037387 117.679851 
L 661.057319 115.256824 
L 660.536602 114.370896 
L 658.627923 112.117007 
L 657.080722 110.942885 
L 655.220672 109.994906 
L 651.433358 109.069146 
L 648.623969 108.961163 
L 645.914349 109.175617 
L 642.565729 109.756262 
L 638.372136 110.836408 
L 634.605656 112.041506 
L 627.534291 114.667226 
L 621.348974 116.967512 
L 620.156455 117.246428 
L 619.533785 117.223747 
L 619.349697 117.09022 
L 619.301565 116.968987 
L 619.481172 116.28243 
L 620.303911 115.0259 
L 622.53892 112.311795 
L 629.958501 103.686957 
L 632.366476 100.548421 
L 633.931949 98.091771 
L 634.511461 96.770253 
L 634.643659 95.953236 
L 634.499553 95.4426 
L 633.960055 95.050318 
L 633.307243 94.92451 
L 631.729636 94.755854 
L 631.387457 94.534969 
L 631.230175 94.133031 
L 631.282768 93.533394 
L 631.818351 92.021927 
L 633.096141 89.371732 
L 633.646648 88.513454 
L 633.910931 88.359656 
L 634.280504 88.521884 
L 635.825642 89.836497 
L 637.272395 90.633389 
L 638.506661 91.090393 
L 639.412428 91.338453 
L 642.211988 91.797954 
L 644.917986 91.962302 
L 648.244821 91.954373 
L 661.522819 91.609541 
L 664.454 91.821598 
L 667.055432 92.229343 
L 669.579923 92.907126 
L 671.74039 93.792384 
L 673.255649 94.628082 
L 675.490909 95.955188 
L 675.203462 95.648174 
L 674.816822 95.427743 
L 674.125466 95.189794 
L 672.285695 94.989216 
L 670.497454 95.065678 
L 661.49018 95.964245 
L 661.49018 95.964245 
" style="fill:none;stroke:#000000;stroke-linecap:square;stroke-opacity:0.7;stroke-width:1.2;"/>
   </g>
   <g id="line2d_25">
    <path clip-path="url(#pe7ee2fa2ec)" d="M 653.08607 67.504976 
L 663.031718 59.376295 
L 667.450764 54.347033 
L 671.037926 48.987498 
L 672.837599 45.357915 
L 673.733798 42.964613 
L 674.22571 41.233577 
L 674.74792 37.889877 
L 674.709295 35.719629 
L 674.440336 34.21953 
L 673.641261 32.310401 
L 672.4138 30.956112 
L 671.31735 30.379762 
L 670.391117 30.175957 
L 668.376609 30.384918 
L 666.993705 30.960672 
L 665.552899 31.908785 
L 664.17105 33.160263 
L 663.147681 34.320301 
L 662.092669 35.747933 
L 660.168497 39.064108 
L 658.912612 41.820372 
L 657.367165 45.87995 
L 655.481201 51.018649 
L 654.268107 53.505958 
L 653.395803 54.726984 
L 652.377508 55.628412 
L 651.551666 56.01899 
L 650.743427 56.155689 
L 649.825084 56.054557 
L 648.680263 55.578711 
L 647.69137 54.857086 
L 646.728646 53.849093 
L 645.684782 52.350012 
L 644.091012 49.772777 
L 643.616617 49.463728 
L 643.141992 49.390411 
L 642.390146 49.536324 
L 641.193372 50.046722 
L 638.475664 51.52186 
L 632.514037 54.95982 
L 632.609801 55.006185 
L 633.102228 54.897571 
L 634.589105 54.338065 
L 636.323175 53.45405 
L 637.905524 52.360305 
L 639.098465 51.213029 
L 639.953423 50.044772 
L 640.258418 49.492301 
L 640.856237 47.920912 
L 641.185761 45.999724 
L 641.216671 43.897737 
L 640.981633 41.252232 
L 640.399804 36.124965 
L 640.419206 33.799305 
L 640.695797 32.265972 
L 641.12925 31.167626 
L 641.808095 30.200158 
L 642.273331 29.76865 
L 643.612201 29.042241 
L 644.420795 28.829776 
L 646.212705 28.72996 
L 647.447114 28.880169 
L 649.794033 29.54847 
L 651.431373 30.285442 
L 652.894656 31.142067 
L 654.726037 32.544667 
L 655.450812 33.245165 
L 656.650011 34.75131 
L 657.307125 36.083649 
L 657.447544 36.588447 
L 657.525866 37.447158 
L 657.408223 38.155218 
L 657.054235 38.899289 
L 656.631021 39.409029 
L 655.632217 40.154162 
L 653.810389 40.936388 
L 651.04289 41.637216 
L 643.995924 42.988602 
L 641.762795 43.56525 
L 639.971332 44.149349 
L 637.675326 45.119242 
L 636.465998 45.761455 
L 635.053445 46.662101 
L 632.425774 48.96598 
L 631.37167 50.28044 
L 630.732682 51.352731 
L 630.599584 51.820642 
L 630.599584 51.820642 
" style="fill:none;stroke:#000000;stroke-linecap:square;stroke-opacity:0.7;stroke-width:1.2;"/>
   </g>
  </g>
 </g>
 <defs>
  <clipPath id="pe7ee2fa2ec">
   <rect height="262.08" width="694.08" x="12.96" y="12.96"/>
  </clipPath>
 </defs>
</svg>
