<?xml version="1.0" encoding="utf-8" standalone="no"?>
<!DOCTYPE svg PUBLIC "-//W3C//DTD SVG 1.1//EN"
  "http://www.w3.org/Graphics/SVG/1.1/DTD/svg11.dtd">
<!-- Created with matplotlib (https://matplotlib.org/) -->
<svg height="288pt" version="1.1" viewBox="0 0 720 288" width="720pt" xmlns="http://www.w3.org/2000/svg" xmlns:xlink="http://www.w3.org/1999/xlink">
 <metadata>
  <rdf:RDF xmlns:cc="http://creativecommons.org/ns#" xmlns:dc="http://purl.org/dc/elements/1.1/" xmlns:rdf="http://www.w3.org/1999/02/22-rdf-syntax-ns#">
   <cc:Work>
    <dc:type rdf:resource="http://purl.org/dc/dcmitype/StillImage"/>
    <dc:date>2020-11-14T04:50:54.724434</dc:date>
    <dc:format>image/svg+xml</dc:format>
    <dc:creator>
     <cc:Agent>
      <dc:title>Matplotlib v3.3.2, https://matplotlib.org/</dc:title>
     </cc:Agent>
    </dc:creator>
   </cc:Work>
  </rdf:RDF>
 </metadata>
 <defs>
  <style type="text/css">*{stroke-linecap:butt;stroke-linejoin:round;}</style>
 </defs>
 <g id="figure_1">
  <g id="patch_1">
   <path d="M 0 288 
L 720 288 
L 720 0 
L 0 0 
z
" style="fill:#ffffff;"/>
  </g>
  <g id="axes_1">
   <g id="line2d_1">
    <path clip-path="url(#p87a3dabbc6)" d="M 85.127276 224.703587 
L 85.794977 224.220128 
L 92.446533 218.254312 
L 98.803875 213.022612 
L 103.666079 209.436976 
L 107.095438 207.150698 
L 113.856593 202.813466 
L 114.412557 202.103096 
L 114.547474 201.670268 
L 114.523166 201.182329 
L 114.384968 200.79121 
L 113.738874 199.896592 
L 112.9405 199.194322 
L 111.642417 198.385121 
L 110.040555 197.726408 
L 108.404471 197.343421 
L 105.686586 197.231538 
L 103.917868 197.457115 
L 101.46766 198.102502 
L 99.343205 198.941727 
L 96.983192 200.155207 
L 93.892481 202.194043 
L 91.383282 204.3015 
L 90.016246 205.712931 
L 88.834716 207.229293 
L 88.008712 208.739925 
L 87.688144 209.900527 
L 87.720508 210.905113 
L 87.979045 211.606008 
L 88.504314 212.317832 
L 89.430043 213.110834 
L 90.831131 214.269228 
L 91.13564 214.752393 
L 91.257372 215.343538 
L 91.124408 216.081001 
L 90.648117 217.040111 
L 89.75738 218.252716 
L 87.797138 220.413124 
L 86.237549 222.198098 
L 85.894768 222.818265 
L 85.845407 223.259491 
L 86.054398 223.617112 
L 86.488834 223.882434 
L 87.907937 224.250469 
L 90.497691 224.562444 
L 95.586079 224.919447 
L 100.769758 225.04896 
L 103.954264 224.894006 
L 106.560751 224.533878 
L 108.361818 224.114455 
L 110.254515 223.486068 
L 112.510481 222.444601 
L 114.191268 221.44235 
L 116.1765 219.993535 
L 117.610141 218.725628 
L 118.504223 217.675804 
L 118.652651 217.11914 
L 118.528104 216.942545 
L 117.532951 216.688988 
L 114.497362 216.603173 
L 110.282818 216.376012 
L 104.450402 215.92027 
L 104.351672 216.051569 
L 104.546919 216.490015 
L 105.516138 217.436611 
L 107.85011 219.235201 
L 109.961027 220.643889 
L 113.423354 222.459726 
L 115.847825 223.157373 
L 117.787921 223.127734 
L 119.676263 222.214486 
L 119.676263 222.214486 
" style="fill:none;stroke:#000000;stroke-linecap:square;stroke-opacity:0.7;stroke-width:1.2;"/>
   </g>
   <g id="line2d_2">
    <path clip-path="url(#p87a3dabbc6)" d="M 82.09099 214.835045 
L 83.174135 210.599382 
L 84.285199 207.202039 
L 86.223326 202.519437 
L 87.588844 199.815737 
L 89.464804 196.639927 
L 90.93961 194.478347 
L 93.191202 191.627288 
L 94.839663 189.832134 
L 96.757539 188.020647 
L 98.799229 186.405873 
L 100.198173 185.491493 
L 101.637649 184.731969 
L 102.872466 184.255922 
L 104.069903 184.001415 
L 104.928443 184.006682 
L 105.772155 184.290283 
L 106.175078 184.631009 
L 106.438119 185.037481 
L 106.665336 185.912143 
L 106.679577 186.468519 
L 106.524189 187.616708 
L 105.841006 189.731433 
L 105.245106 191.044741 
L 103.863428 193.495599 
L 102.284609 195.707814 
L 100.988253 197.075347 
L 100.056956 197.698987 
L 99.681384 197.823975 
L 98.947106 197.752247 
L 98.424752 197.330621 
L 98.002196 196.659872 
L 97.463111 195.250547 
L 96.77325 192.603987 
L 95.28844 186.722803 
L 94.316393 183.831832 
L 93.169638 181.200662 
L 91.759052 178.74996 
L 90.328423 176.884019 
L 89.340979 175.881142 
L 87.876883 174.777841 
L 87.040334 174.366569 
L 86.181736 174.170331 
L 85.549428 174.304513 
L 85.267309 174.620701 
L 85.182888 175.042733 
L 85.298527 175.678674 
L 85.755354 176.596595 
L 86.508335 177.548057 
L 87.61304 178.522481 
L 88.60606 179.136929 
L 89.800169 179.592658 
L 90.651436 179.711588 
L 91.204118 179.67558 
L 92.119354 179.340742 
L 92.723969 178.814607 
L 93.27618 177.857886 
L 93.524179 176.994786 
L 93.655936 175.921172 
L 93.614073 174.200655 
L 93.374322 172.537249 
L 92.738939 170.004927 
L 92.007651 167.923693 
L 91.077261 165.892982 
L 90.428519 164.893192 
L 90.019668 164.699538 
L 89.902264 165.188533 
L 90.023567 166.422199 
L 90.645396 169.349104 
L 91.792099 173.52976 
L 93.18891 177.780164 
L 94.281448 180.565466 
L 95.817229 183.732375 
L 97.08034 185.749508 
L 97.958293 186.879653 
L 99.536894 188.428309 
L 100.592229 189.158272 
L 101.469703 189.597015 
L 102.611058 189.951527 
L 103.45548 190.059706 
L 104.345751 190.029615 
L 106.090177 189.50679 
L 107.348995 188.677152 
L 107.994531 188.064968 
L 109.078653 186.657499 
L 109.590664 185.774692 
L 110.314999 184.184139 
L 111.248841 181.182947 
L 111.92147 177.515432 
L 112.174893 174.47261 
L 112.179301 172.795438 
L 111.886066 169.991915 
L 110.696004 166.42459 
L 110.012975 165.21933 
L 107.629044 162.279136 
L 104.231429 159.362625 
L 101.91552 157.726758 
L 101.91552 157.726758 
" style="fill:none;stroke:#000000;stroke-linecap:square;stroke-opacity:0.7;stroke-width:1.2;"/>
   </g>
   <g id="line2d_3">
    <path clip-path="url(#p87a3dabbc6)" d="M 85.476177 160.373935 
L 79.374981 160.411188 
L 73.410113 161.096758 
L 72.184617 161.00262 
L 71.290855 160.656048 
L 70.768175 160.183257 
L 70.160091 158.600161 
L 70.086184 157.321405 
L 70.260286 155.374887 
L 71.284056 151.014199 
L 71.816532 149.382624 
L 73.293177 145.646015 
L 74.761079 142.630247 
L 76.41565 139.817474 
L 77.598683 138.133478 
L 79.465464 136.016846 
L 80.764878 134.978579 
L 81.106412 134.7778 
L 81.98496 134.441053 
L 83.001898 134.552459 
L 83.588723 135.222653 
L 83.7964 135.924647 
L 83.843129 137.269258 
L 83.452234 139.540241 
L 83.194207 140.46407 
L 82.080676 143.535868 
L 79.915518 148.702422 
L 79.741599 149.359833 
L 79.800317 150.435353 
L 79.946057 150.647515 
L 80.704639 151.039658 
L 81.26807 151.130738 
L 83.014633 151.145385 
L 86.780347 150.867962 
L 92.961031 150.497675 
L 98.269428 150.464199 
L 106.038316 150.571783 
L 106.575708 150.513659 
L 107.886185 150.175234 
L 108.542352 149.787675 
L 109.143672 149.139219 
L 109.683616 148.129741 
L 111.631796 143.74152 
L 112.24221 142.883243 
L 112.628429 142.430824 
L 114.032425 141.197194 
L 115.387819 140.426385 
L 116.410819 140.035354 
L 117.820784 139.704528 
L 118.434333 139.624963 
L 120.730254 139.627181 
L 121.431217 139.71587 
L 123.469542 140.209011 
L 125.132165 140.916825 
L 126.072039 141.504896 
L 127.063684 142.539073 
L 127.216942 142.987883 
L 127.126253 143.419616 
L 126.855311 143.691469 
L 126.425946 143.884887 
L 125.123798 144.033216 
L 123.95159 143.946502 
L 122.110738 143.603985 
L 119.561415 142.8695 
L 116.590752 141.746991 
L 113.881387 140.522305 
L 109.682574 138.286036 
L 105.799845 135.853644 
L 102.47537 133.463597 
L 99.356254 130.910737 
L 96.324842 128.05128 
L 93.710448 125.146894 
L 92.052174 122.96715 
L 91.002433 121.360813 
L 89.486985 118.400808 
L 88.858389 116.540317 
L 88.643871 115.507009 
L 88.550105 114.388631 
L 88.696381 113.083269 
L 89.375951 111.801861 
L 89.770367 111.490584 
L 90.188799 111.305019 
L 91.211249 111.252433 
L 91.816663 111.421325 
L 92.58678 111.816323 
L 93.804391 112.831503 
L 94.93024 114.212959 
L 96.037325 116.038599 
L 96.877294 117.777562 
L 98.191074 121.185253 
L 99.686578 126.043158 
L 103.030599 137.843239 
L 104.799789 143.089027 
L 105.524832 144.98384 
L 106.856652 148.114724 
L 108.332587 151.103858 
L 110.819973 155.046559 
L 111.81695 156.136412 
L 112.547013 156.461381 
L 112.262139 154.461596 
L 111.286342 152.364238 
L 109.325076 148.931196 
L 104.361565 141.572704 
L 104.361565 141.572704 
" style="fill:none;stroke:#000000;stroke-linecap:square;stroke-opacity:0.7;stroke-width:1.2;"/>
   </g>
   <g id="line2d_4">
    <path clip-path="url(#p87a3dabbc6)" d="M 69.349815 136.164224 
L 67.080737 128.275404 
L 66.753473 123.661848 
L 67.398078 118.325168 
L 68.171488 115.441627 
L 68.947451 113.21984 
L 70.689935 109.246696 
L 72.917942 105.224863 
L 75.154827 101.981014 
L 77.36276 99.472352 
L 79.200013 97.915483 
L 79.999835 97.392598 
L 81.063042 96.846367 
L 82.758568 96.330527 
L 84.901317 96.3039 
L 86.116688 96.594457 
L 87.058035 96.967605 
L 88.83088 98.008982 
L 90.480313 99.357308 
L 92.073088 100.987476 
L 93.728112 103.005749 
L 94.930787 104.673269 
L 96.654986 107.359024 
L 97.459158 108.736395 
L 99.872282 113.487406 
L 100.474116 115.054768 
L 99.296735 111.889306 
L 98.522702 109.102138 
L 97.595018 104.817452 
L 96.860577 100.070335 
L 96.186843 93.716536 
L 95.61763 88.979721 
L 95.270691 87.307242 
L 94.701126 85.618291 
L 94.384943 84.997638 
L 93.63626 84.023683 
L 92.904508 83.483834 
L 91.922779 83.140247 
L 91.256274 83.07743 
L 90.724916 83.102951 
L 89.193822 83.476092 
L 88.099211 83.976065 
L 87.391917 84.398118 
L 85.537486 85.950523 
L 84.695045 87.012776 
L 84.142819 88.071862 
L 83.932674 88.84896 
L 83.949142 89.794675 
L 84.018381 90.051276 
L 84.562053 90.933986 
L 85.183337 91.423088 
L 85.662567 91.672015 
L 87.209647 92.116868 
L 89.235252 92.289992 
L 91.409031 92.417005 
L 92.177937 92.694373 
L 92.836814 93.207722 
L 93.966186 94.503005 
L 95.211691 95.847618 
L 96.505966 96.972022 
L 98.37499 98.240804 
L 99.932087 99.088579 
L 102.210288 100.11407 
L 105.674764 101.37692 
L 108.7997 102.333232 
L 114.225938 103.741047 
L 119.054937 104.765257 
L 122.46686 105.322383 
L 126.243168 105.668188 
L 127.194342 105.682763 
L 129.261531 105.540885 
L 130.631044 105.227844 
L 131.962816 104.54609 
L 132.513369 103.986858 
L 133.070708 102.279077 
L 132.668144 100.049857 
L 132.09265 98.685236 
L 130.72139 96.324665 
L 127.53508 92.210661 
L 125.744298 90.255382 
L 121.731689 86.364054 
L 116.397573 81.626014 
L 116.397573 81.626014 
" style="fill:none;stroke:#000000;stroke-linecap:square;stroke-opacity:0.7;stroke-width:1.2;"/>
   </g>
   <g id="line2d_5">
    <path clip-path="url(#p87a3dabbc6)" d="M 90.763994 97.339111 
L 89.439255 71.887344 
L 88.781991 62.599033 
L 86.548037 46.190515 
L 86.291268 45.287728 
L 85.509591 43.268587 
L 85.117113 42.590397 
L 81.927295 41.984899 
L 80.451535 43.408541 
L 79.137091 45.160548 
L 77.474818 47.807087 
L 72.857891 56.37232 
L 68.74688 64.210718 
L 66.381426 68.456457 
L 63.249811 73.571494 
L 61.224726 76.504638 
L 57.761387 80.735828 
L 56.697518 81.820582 
L 55.641623 82.79137 
L 54.087488 84.020851 
L 51.976454 85.288449 
L 51.169702 85.64203 
L 49.572177 86.108006 
L 48.516327 86.226223 
L 47.385437 86.153984 
L 46.600254 85.953518 
L 45.677959 85.493068 
L 44.856228 84.675433 
L 44.674891 84.343407 
L 44.509091 83.519747 
L 44.949484 82.426409 
L 45.424007 81.984826 
L 46.761111 81.310155 
L 48.762163 80.82423 
L 51.036092 80.55879 
L 53.980969 80.401576 
L 67.685067 79.910574 
L 72.357028 79.657546 
L 72.435436 79.685536 
L 72.453795 79.92887 
L 72.151108 80.234836 
L 68.932908 82.861273 
L 67.511125 84.282208 
L 66.307856 85.840182 
L 65.705672 87.041845 
L 65.564053 87.613299 
L 65.618756 88.341834 
L 65.756597 88.601579 
L 66.14689 88.916204 
L 67.222813 89.053742 
L 67.927228 88.924676 
L 69.725548 88.19532 
L 71.504303 87.069529 
L 73.121125 85.741288 
L 75.194364 83.574948 
L 75.636954 83.031691 
L 77.150278 80.881862 
L 78.364274 78.667527 
L 79.215913 76.59244 
L 79.723688 74.850985 
L 80.13899 71.952689 
L 80.042058 69.555947 
L 78.576167 65.128212 
L 77.64252 63.691917 
L 76.507027 62.351168 
L 75.055156 61.002108 
L 73.692059 59.968188 
L 69.54028 57.586789 
L 63.705242 54.82566 
L 63.434005 54.453979 
L 63.786016 54.276157 
L 64.753214 54.278652 
L 66.515358 54.548954 
L 68.547307 55.038413 
L 72.836553 56.445052 
L 76.445921 57.925738 
L 81.501892 60.380469 
L 84.032196 61.761563 
L 89.7606 65.240805 
L 94.387689 68.39374 
L 95.458725 69.165293 
L 104.517506 75.999461 
L 105.209148 76.044564 
L 104.489783 74.1373 
L 101.409331 68.269508 
L 99.014066 63.732432 
L 93.612034 53.800991 
L 91.374055 50.651745 
L 88.620586 48.982496 
L 86.67734 49.505303 
L 85.060621 50.702181 
L 85.060621 50.702181 
" style="fill:none;stroke:#000000;stroke-linecap:square;stroke-opacity:0.7;stroke-width:1.2;"/>
   </g>
   <g id="line2d_6">
    <path clip-path="url(#p87a3dabbc6)" d="M 242.834269 226.066746 
L 229.059384 222.965258 
L 220.259249 220.545859 
L 215.120821 218.73208 
L 214.210067 218.177611 
L 214.29732 218.153483 
L 214.589843 218.355481 
L 214.7295 218.787205 
L 214.64067 219.23725 
L 214.134846 220.104439 
L 213.402679 220.934233 
L 212.347789 221.898184 
L 210.858504 223.052402 
L 208.947303 224.332565 
L 205.825946 226.094397 
L 203.640422 227.120129 
L 200.926873 228.137153 
L 198.721063 228.649867 
L 197.936162 228.615643 
L 197.879058 228.487957 
L 197.96156 228.38432 
L 198.618474 228.043072 
L 199.825234 227.690778 
L 200.233072 227.602991 
L 203.207692 227.230398 
L 205.261086 227.172994 
L 207.692537 227.27419 
L 210.545187 227.607203 
L 214.094229 228.331761 
L 216.929458 229.149463 
L 220.90231 230.57905 
L 223.957807 231.655244 
L 225.534738 232.004363 
L 226.877998 232.063794 
L 228.008509 231.884036 
L 229.255251 231.409323 
L 230.546214 230.610549 
L 232.128538 229.238044 
L 233.780963 227.38821 
L 235.174193 225.503114 
L 236.576094 223.226242 
L 237.398606 221.557458 
L 237.810267 220.404309 
L 237.910939 219.560483 
L 237.737222 219.261383 
L 237.323742 219.293349 
L 236.450641 219.88289 
L 235.195637 221.107477 
L 232.836789 223.800425 
L 229.798294 227.312692 
L 227.449801 229.711485 
L 226.804715 230.292949 
L 224.614026 231.963713 
L 222.835348 232.939716 
L 221.719552 233.366659 
L 219.976625 233.738877 
L 218.646219 233.775895 
L 216.925596 233.495674 
L 215.224658 232.83212 
L 213.500146 231.715612 
L 212.311782 230.630555 
L 211.734945 229.987532 
L 210.785569 228.712335 
L 209.9523 227.27604 
L 209.15247 225.381861 
L 208.658862 223.559765 
L 208.42244 221.773244 
L 208.547539 219.098084 
L 208.813988 217.90094 
L 209.387946 216.364929 
L 210.049485 215.180802 
L 210.701767 214.29719 
L 211.42274 213.516237 
L 213.554184 211.901695 
L 215.418727 210.996764 
L 218.72083 210.069168 
L 222.409551 209.691718 
L 228.403503 210.03464 
L 234.317124 211.183241 
L 244.578741 214.563605 
L 249.419956 216.672282 
L 254.787136 219.370737 
L 260.957873 222.952459 
L 260.957873 222.952459 
" style="fill:none;stroke:#000000;stroke-linecap:square;stroke-opacity:0.7;stroke-width:1.2;"/>
   </g>
   <g id="line2d_7">
    <path clip-path="url(#p87a3dabbc6)" d="M 238.760777 197.527117 
L 242.028857 197.977498 
L 245.86366 196.973006 
L 249.182597 194.928673 
L 251.97715 192.482092 
L 255.318345 188.804284 
L 258.594798 184.478246 
L 261.111946 180.672381 
L 264.119704 175.474191 
L 266.179698 171.32797 
L 267.557948 168.097897 
L 268.686598 164.923707 
L 269.538062 161.762176 
L 270.036366 158.534901 
L 270.066131 156.209076 
L 269.668051 153.915884 
L 269.232459 152.822199 
L 268.404203 151.613882 
L 266.507607 150.385095 
L 265.530157 150.156525 
L 263.442654 150.193739 
L 261.125562 150.815482 
L 259.999055 151.284896 
L 258.613651 151.98769 
L 257.033259 152.940157 
L 254.602418 154.683333 
L 251.993517 156.887507 
L 248.827783 159.977788 
L 246.650002 162.347049 
L 244.135116 165.313907 
L 239.630074 171.204584 
L 235.209163 177.633366 
L 231.444006 183.528393 
L 221.968602 198.717836 
L 220.157717 201.146409 
L 218.780993 202.619048 
L 217.847549 203.29842 
L 217.19346 203.515141 
L 216.689347 203.429369 
L 216.333749 203.114662 
L 216.070002 202.544249 
L 215.923992 201.598317 
L 216.006676 200.022258 
L 216.365212 198.250552 
L 216.946054 196.398273 
L 217.876955 194.139018 
L 219.225238 191.480175 
L 220.916625 188.611567 
L 223.644083 184.461382 
L 228.528162 177.509408 
L 230.44956 175.04692 
L 231.74671 173.702804 
L 232.82134 172.941332 
L 233.664191 172.660604 
L 234.020221 172.645901 
L 234.784914 172.870524 
L 235.421287 173.399826 
L 235.780799 173.89719 
L 236.190768 174.757068 
L 236.537612 176.063453 
L 236.619507 176.653009 
L 236.636931 178.546388 
L 236.363675 180.235145 
L 235.818034 181.900022 
L 235.131693 183.268007 
L 234.388105 184.366561 
L 233.298554 185.584807 
L 231.796442 186.803972 
L 229.858799 187.874558 
L 228.21908 188.46589 
L 226.688551 188.80962 
L 224.459044 188.994175 
L 222.671921 188.880246 
L 220.459753 188.379706 
L 218.905555 187.710083 
L 217.317253 186.514697 
L 216.741961 185.754756 
L 216.358873 184.773194 
L 216.30971 184.41691 
L 216.374658 183.589177 
L 216.561438 183.037087 
L 217.375215 181.887846 
L 217.977727 181.372761 
L 218.84962 180.830776 
L 219.890826 180.37501 
L 221.113595 180.02003 
L 222.982154 179.755459 
L 225.246051 179.799838 
L 226.237535 179.933898 
L 227.977021 180.335385 
L 230.38255 181.255931 
L 232.678222 182.578303 
L 234.945307 184.393804 
L 236.330289 185.798911 
L 238.690431 188.767274 
L 241.332406 192.561869 
L 242.841773 194.234288 
L 243.370227 194.604767 
L 244.305661 194.906948 
L 245.058447 194.77494 
L 245.532603 194.492828 
L 246.632054 193.059219 
L 247.166599 191.746656 
L 247.68608 189.565545 
L 247.909588 182.4108 
L 247.909588 182.4108 
" style="fill:none;stroke:#000000;stroke-linecap:square;stroke-opacity:0.7;stroke-width:1.2;"/>
   </g>
   <g id="line2d_8">
    <path clip-path="url(#p87a3dabbc6)" d="M 231.803401 191.174195 
L 226.363583 175.512214 
L 224.017832 168.2367 
L 221.180396 158.399492 
L 219.010302 149.558723 
L 217.807005 144.58224 
L 216.815234 141.575876 
L 216.340836 140.658595 
L 215.488032 139.720154 
L 215.086574 139.522483 
L 214.327802 139.461005 
L 213.46997 139.77186 
L 211.83697 141.24831 
L 210.922571 142.624452 
L 210.684542 143.076959 
L 209.540179 146.915139 
L 209.494457 149.192862 
L 209.76745 150.984978 
L 210.051712 152.035787 
L 210.890288 154.136832 
L 211.652224 155.549902 
L 212.61025 157.023436 
L 215.228848 160.221275 
L 218.691306 163.58709 
L 221.554328 166.010441 
L 225.57443 169.122087 
L 234.161994 175.408776 
L 233.096791 174.568832 
L 231.455309 173.041911 
L 229.886779 171.328051 
L 228.517344 169.533048 
L 227.374362 167.668133 
L 226.301518 165.255594 
L 225.685529 162.950916 
L 225.527291 161.865 
L 225.440467 160.158169 
L 225.64944 157.645812 
L 225.914481 156.295599 
L 226.883031 153.199424 
L 227.525058 151.680232 
L 229.15422 148.558221 
L 231.183593 145.438361 
L 232.773344 143.386409 
L 234.20732 141.856974 
L 234.808552 141.427942 
L 234.89601 141.431688 
L 234.877789 141.64534 
L 234.43671 142.349754 
L 233.304052 143.660214 
L 231.839568 145.052899 
L 229.220884 147.087308 
L 227.653175 148.097493 
L 224.303344 149.832862 
L 221.682424 150.83655 
L 218.900553 151.594631 
L 216.243562 152.041343 
L 214.223796 152.206204 
L 212.900032 152.233624 
L 209.207465 151.970527 
L 206.335608 151.403972 
L 203.70756 150.570293 
L 201.351123 149.500684 
L 198.899669 147.888158 
L 198.087434 147.150888 
L 197.369973 146.321697 
L 196.682332 145.120511 
L 196.536822 144.684568 
L 196.424373 143.959551 
L 196.536852 143.036879 
L 197.353326 141.655785 
L 198.433597 140.763069 
L 200.189727 139.860344 
L 201.56861 139.368883 
L 203.666523 138.822966 
L 206.762156 138.288901 
L 212.360939 137.788195 
L 217.486812 137.62811 
L 226.356081 137.68174 
L 234.283587 137.825336 
L 242.751367 137.729824 
L 244.715951 137.602194 
L 249.958004 136.750133 
L 252.293063 135.762901 
L 253.736896 134.366359 
L 254.368454 133.211188 
L 254.428214 133.245432 
L 254.569892 133.841881 
L 254.531976 134.789361 
L 254.531976 134.789361 
" style="fill:none;stroke:#000000;stroke-linecap:square;stroke-opacity:0.7;stroke-width:1.2;"/>
   </g>
   <g id="line2d_9">
    <path clip-path="url(#p87a3dabbc6)" d="M 244.566639 105.713977 
L 245.861002 103.205262 
L 245.84272 101.278319 
L 245.303169 100.340447 
L 243.682262 98.97806 
L 242.816468 98.498461 
L 241.303859 97.851557 
L 239.381334 97.26928 
L 237.893373 96.964591 
L 235.406173 96.709279 
L 232.682299 96.782739 
L 231.655321 96.905556 
L 228.459198 97.612318 
L 225.801337 98.539211 
L 222.788581 99.881096 
L 219.791394 101.47647 
L 218.629545 102.280483 
L 218.432159 102.701742 
L 218.69708 102.831624 
L 219.655903 102.879519 
L 222.473623 102.687544 
L 228.516518 102.293643 
L 235.955987 101.911515 
L 236.047787 101.749328 
L 235.840112 101.469512 
L 235.178953 101.024441 
L 232.309528 99.4983 
L 229.411916 97.883326 
L 227.684985 96.732127 
L 226.659055 95.838238 
L 226.156178 95.090058 
L 226.151611 94.634391 
L 226.382263 94.364004 
L 226.795929 94.175791 
L 227.721169 94.033081 
L 229.427476 94.077272 
L 232.348207 94.479181 
L 240.464484 95.860192 
L 240.965633 95.651036 
L 241.015131 95.456383 
L 240.838037 95.008398 
L 240.4361 94.486714 
L 239.057254 93.14345 
L 236.344002 90.901088 
L 233.997239 89.195262 
L 233.222708 88.753634 
L 232.442817 88.568948 
L 232.173186 88.702963 
L 231.92289 89.083622 
L 231.069759 90.90223 
L 230.487593 91.573056 
L 229.732133 92.137075 
L 228.844691 92.57163 
L 227.903527 92.878292 
L 226.394087 93.175186 
L 223.568318 93.403232 
L 220.544833 93.59318 
L 219.906693 93.827249 
L 219.939446 93.9466 
L 220.137335 94.032712 
L 220.618052 94.061338 
L 221.232638 93.919477 
L 222.224828 93.201703 
L 222.869169 91.982588 
L 223.133808 90.482574 
L 222.886813 87.155813 
L 222.886813 87.155813 
" style="fill:none;stroke:#000000;stroke-linecap:square;stroke-opacity:0.7;stroke-width:1.2;"/>
   </g>
   <g id="line2d_10">
    <path clip-path="url(#p87a3dabbc6)" d="M 211.075613 85.628165 
L 215.327464 80.294686 
L 216.080966 79.119842 
L 219.206433 73.573058 
L 222.012532 67.798477 
L 222.713025 66.833477 
L 223.28018 66.739422 
L 225.526383 67.494675 
L 226.935652 67.71552 
L 228.810738 67.732457 
L 231.616252 67.314707 
L 234.269483 66.470544 
L 235.559316 65.85349 
L 236.728671 65.075781 
L 237.047024 64.79436 
L 237.71768 63.910917 
L 237.888431 62.841661 
L 237.686255 62.251375 
L 236.951869 61.327839 
L 235.817227 60.462239 
L 233.043851 59.004937 
L 229.362534 57.52756 
L 226.080948 56.457075 
L 225.316462 56.262949 
L 223.111478 55.985513 
L 222.393816 56.045927 
L 221.240106 56.373143 
L 219.921911 57.131266 
L 218.578187 58.288445 
L 217.153749 59.849472 
L 215.390325 62.156451 
L 213.418792 65.178827 
L 211.758445 68.13743 
L 210.674116 70.348098 
L 209.128362 74.143147 
L 208.320245 76.746524 
L 207.753825 79.345334 
L 207.499332 81.597141 
L 207.525056 83.805628 
L 207.820648 85.601761 
L 208.043764 86.352466 
L 208.527155 87.473052 
L 209.335478 88.672046 
L 209.907597 89.259992 
L 210.775182 89.907676 
L 212.635027 90.68421 
L 213.989607 90.909169 
L 215.003672 90.942559 
L 216.835743 90.769373 
L 217.906784 90.549455 
L 220.416176 89.738678 
L 221.661908 89.19308 
L 223.479666 88.227956 
L 225.734517 86.720999 
L 227.64387 85.073013 
L 228.766334 83.79432 
L 229.447898 82.663151 
L 229.663275 81.91793 
L 229.635327 81.429208 
L 229.358414 80.957045 
L 228.968905 80.702366 
L 227.517069 80.472714 
L 225.925402 80.607451 
L 223.865299 80.797282 
L 223.82286 80.623793 
L 224.287506 80.136453 
L 226.418155 78.58194 
L 227.700706 77.680324 
L 230.987977 75.105563 
L 232.570002 73.517495 
L 233.990182 71.680379 
L 237.021313 67.00413 
L 238.797364 65.297597 
L 240.414613 64.547344 
L 241.511864 64.400314 
L 242.33788 64.466395 
L 243.79985 64.950212 
L 244.865625 65.61457 
L 246.75304 67.568952 
L 248.294681 70.240507 
L 249.548498 73.873905 
L 250.295862 78.047327 
L 249.435988 93.275772 
L 248.021374 99.253787 
L 246.73666 103.454966 
L 244.620703 109.210264 
L 244.620703 109.210264 
" style="fill:none;stroke:#000000;stroke-linecap:square;stroke-opacity:0.7;stroke-width:1.2;"/>
   </g>
   <g id="line2d_11">
    <path clip-path="url(#p87a3dabbc6)" d="M 346.174052 221.591917 
L 344.077473 228.481819 
L 343.612804 231.727693 
L 344.117508 236.492082 
L 344.426393 237.271567 
L 345.922461 239.4602 
L 346.588919 240.074324 
L 348.417648 241.268498 
L 349.867334 241.914415 
L 353.179792 242.870129 
L 356.013056 243.368846 
L 361.57666 243.966106 
L 370.084244 244.683383 
L 375.855688 245.420893 
L 380.143634 246.268712 
L 384.259646 247.465903 
L 386.828808 248.519122 
L 388.229907 249.288177 
L 389.200287 250.053656 
L 389.614332 250.873477 
L 389.076641 251.733022 
L 387.885221 252.393929 
L 385.79862 253.133486 
L 382.611108 253.931165 
L 379.551436 254.461682 
L 376.964197 254.736911 
L 374.0342 254.826876 
L 372.017604 254.722666 
L 368.508088 254.111949 
L 366.059167 253.233144 
L 364.449986 252.356475 
L 363.645686 251.796851 
L 362.107456 250.415298 
L 360.911616 248.933423 
L 360.196548 247.783451 
L 359.402159 246.137934 
L 358.872651 244.695652 
L 358.239988 242.27222 
L 357.766517 239.166511 
L 357.572734 236.522795 
L 357.525281 232.546478 
L 357.746759 227.07541 
L 358.456784 214.228078 
L 358.436564 210.807816 
L 358.178752 207.685449 
L 357.799771 205.857525 
L 357.411981 204.859763 
L 356.924127 204.203064 
L 356.48877 203.975761 
L 355.985714 204.026525 
L 355.850383 204.090712 
L 355.176139 204.719537 
L 354.513833 205.942195 
L 354.246383 206.734334 
L 353.980545 208.089638 
L 353.93075 208.784663 
L 354.163241 210.741732 
L 354.566033 211.669342 
L 355.065327 212.302619 
L 355.880838 212.852901 
L 357.083699 213.134497 
L 358.600845 213.026773 
L 360.311743 212.592176 
L 365.776725 210.867795 
L 368.212405 210.45399 
L 370.169041 210.38969 
L 372.196061 210.59984 
L 373.57981 210.91311 
L 375.125485 211.434523 
L 377.069018 212.368888 
L 378.946716 213.617643 
L 380.165155 214.662075 
L 381.072481 215.604495 
L 382.148313 216.995728 
L 383.328345 219.219092 
L 383.798659 220.746254 
L 383.988282 221.999897 
L 383.884472 224.242049 
L 383.08135 226.674837 
L 379.439696 230.644586 
L 377.1929 231.538888 
L 375.954532 231.64691 
L 374.37921 231.31657 
L 372.283231 229.68789 
L 370.607838 226.367904 
L 370.151923 224.698267 
L 369.439718 219.525231 
L 369.359546 218.081578 
L 369.318482 213.44708 
L 369.735236 205.695762 
L 369.735236 205.695762 
" style="fill:none;stroke:#000000;stroke-linecap:square;stroke-opacity:0.7;stroke-width:1.2;"/>
   </g>
   <g id="line2d_12">
    <path clip-path="url(#p87a3dabbc6)" d="M 369.457324 180.083806 
L 368.846931 181.354012 
L 368.872797 181.690034 
L 369.705313 181.902463 
L 370.273132 181.784764 
L 372.872739 180.860708 
L 377.607888 179.003559 
L 380.226874 178.32859 
L 380.688793 178.332834 
L 380.984923 178.468832 
L 380.97345 178.773303 
L 380.854739 178.946106 
L 380.066772 179.591802 
L 378.752581 180.294569 
L 376.271011 181.250417 
L 374.494762 181.924566 
L 373.721134 182.381711 
L 373.26804 182.864066 
L 373.010176 183.442081 
L 372.878124 184.423234 
L 372.738413 185.914968 
L 372.532696 186.434344 
L 372.082636 186.88846 
L 371.410693 187.113963 
L 370.530874 187.12346 
L 369.238088 186.883936 
L 367.09816 186.178702 
L 364.856498 185.216307 
L 362.092376 183.758531 
L 360.613748 182.716484 
L 359.982553 182.033657 
L 359.745392 181.524932 
L 359.727739 181.075662 
L 359.907375 180.612247 
L 360.22123 180.210362 
L 361.360919 179.324246 
L 363.30309 178.273855 
L 365.86572 177.15799 
L 368.476828 176.219786 
L 371.212118 175.499134 
L 373.187995 175.235354 
L 374.446551 175.239042 
L 375.490534 175.386939 
L 376.771911 175.82705 
L 377.882936 176.569165 
L 378.612706 177.373824 
L 379.278754 178.567237 
L 379.690712 180.00493 
L 379.784968 181.216459 
L 379.598109 182.547966 
L 379.267685 183.316339 
L 378.772556 183.870308 
L 378.030679 184.168374 
L 377.415924 184.156311 
L 376.447007 183.859505 
L 375.20221 183.190312 
L 372.835964 181.575126 
L 368.242657 178.229902 
L 367.788591 177.59969 
L 367.700149 177.094983 
L 367.824114 176.840254 
L 368.205739 176.658791 
L 369.060657 176.656258 
L 370.665083 176.643482 
L 372.348697 176.314996 
L 373.115771 176.076448 
L 376.092072 174.796903 
L 378.815314 173.306417 
L 384.027522 170.000066 
L 384.027522 170.000066 
" style="fill:none;stroke:#000000;stroke-linecap:square;stroke-opacity:0.7;stroke-width:1.2;"/>
   </g>
   <g id="line2d_13">
    <path clip-path="url(#p87a3dabbc6)" d="M 379.328036 153.390769 
L 375.644069 148.89066 
L 372.591578 142.766254 
L 371.678615 137.776456 
L 372.109265 132.827653 
L 374.712953 126.340426 
L 376.395542 123.837996 
L 378.530131 121.340067 
L 380.384157 119.571871 
L 382.760215 117.719123 
L 384.567918 116.591157 
L 386.972539 115.538507 
L 387.609358 115.403106 
L 388.133932 115.406863 
L 388.526634 115.704693 
L 388.515625 116.112588 
L 387.94546 117.20064 
L 386.595414 118.921844 
L 381.79495 124.65265 
L 380.397554 126.533287 
L 378.184405 129.947889 
L 376.669576 132.814697 
L 375.849791 134.709478 
L 375.067961 136.9975 
L 374.608058 138.93095 
L 374.377215 140.93512 
L 374.448346 142.345386 
L 374.688742 143.07104 
L 374.797602 143.123864 
L 374.834691 143.073177 
L 374.827419 142.747927 
L 374.602457 142.162687 
L 373.985672 141.350255 
L 373.345143 140.834887 
L 372.462213 140.388143 
L 371.4141 140.111379 
L 370.063826 140.035279 
L 368.442779 140.227384 
L 365.26474 140.782741 
L 364.185778 140.68737 
L 363.205594 140.301738 
L 362.201867 139.543281 
L 361.333728 138.579575 
L 360.515512 137.435069 
L 360.756323 137.942392 
L 362.174016 141.064568 
L 363.399603 144.276068 
L 364.242077 147.131685 
L 364.678584 149.459345 
L 364.774918 151.231318 
L 364.616698 152.593733 
L 364.261409 153.596599 
L 363.836727 154.19909 
L 363.416844 154.525359 
L 362.765538 154.661486 
L 362.425956 154.464734 
L 362.313639 154.107775 
L 362.409444 153.617105 
L 362.953566 152.648398 
L 364.318564 150.98441 
L 367.82672 146.934239 
L 369.925173 144.12118 
L 371.724893 141.345248 
L 373.914771 137.521036 
L 377.776464 130.616118 
L 379.774258 127.637712 
L 382.404827 124.458723 
L 383.75975 123.068168 
L 387.797125 119.474032 
L 390.98057 116.785626 
L 392.489549 115.372008 
L 393.714608 113.985323 
L 394.785658 111.959481 
L 394.785658 111.959481 
" style="fill:none;stroke:#000000;stroke-linecap:square;stroke-opacity:0.7;stroke-width:1.2;"/>
   </g>
   <g id="line2d_14">
    <path clip-path="url(#p87a3dabbc6)" d="M 346.695643 111.344045 
L 352.980603 113.1699 
L 358.419109 114.590368 
L 361.297201 115.051587 
L 362.752377 114.943201 
L 363.168672 114.657756 
L 363.228612 114.062231 
L 362.729317 113.127216 
L 360.772843 110.644637 
L 360.309107 109.650342 
L 360.314581 108.880259 
L 360.785936 108.093624 
L 362.019953 107.176807 
L 363.291133 106.539747 
L 365.258783 105.743272 
L 369.218768 104.383044 
L 381.65277 100.296295 
L 385.105174 99.009468 
L 389.936699 96.915594 
L 392.296321 95.654978 
L 392.962828 95.245329 
L 394.9193 93.753965 
L 395.749293 92.762557 
L 396.051643 92.085808 
L 396.10621 91.554837 
L 396.007208 91.124761 
L 395.783604 90.738964 
L 395.260944 90.25172 
L 394.054761 89.66333 
L 392.185525 89.231321 
L 389.926521 89.058121 
L 387.392061 89.141471 
L 385.149308 89.404522 
L 381.70383 90.117248 
L 379.111023 90.902123 
L 376.5348 91.918381 
L 374.087164 93.150687 
L 371.982284 94.497883 
L 370.366154 95.849376 
L 369.602077 96.774907 
L 369.389357 97.414102 
L 369.451977 97.694397 
L 369.878532 98.229746 
L 371.580736 99.954411 
L 372.421001 101.162312 
L 372.904113 102.155514 
L 373.106137 103.065853 
L 372.991221 103.481256 
L 372.715764 103.630679 
L 372.426717 103.611113 
L 371.686965 103.282958 
L 370.537899 102.418104 
L 368.806938 100.694387 
L 366.812505 98.285244 
L 365.176458 96.006624 
L 363.295947 92.98272 
L 361.676328 89.777226 
L 361.237017 88.696703 
L 360.629498 86.738845 
L 360.38052 84.800365 
L 360.481302 83.777111 
L 360.738398 82.994048 
L 360.990681 82.546482 
L 361.936222 81.620242 
L 363.028155 81.081337 
L 364.442079 80.715186 
L 366.012328 80.528228 
L 368.33039 80.473557 
L 372.697949 80.70254 
L 382.126682 81.544712 
L 382.560199 81.644933 
L 382.401029 81.772496 
L 379.044402 82.739965 
L 375.17517 84.137119 
L 373.994101 84.63602 
L 370.330361 86.393373 
L 367.497792 87.960185 
L 364.1716 90.012518 
L 357.000688 95.074652 
L 350.285251 100.322945 
L 350.285251 100.322945 
" style="fill:none;stroke:#000000;stroke-linecap:square;stroke-opacity:0.7;stroke-width:1.2;"/>
   </g>
   <g id="line2d_15">
    <path clip-path="url(#p87a3dabbc6)" d="M 380.147849 69.475566 
L 377.19252 65.617931 
L 375.12781 62.517525 
L 372.43848 57.60213 
L 371.467071 55.341834 
L 370.081818 50.290162 
L 369.97935 48.107707 
L 370.301689 46.358922 
L 370.693673 45.519566 
L 371.404123 44.699215 
L 372.059699 44.292014 
L 373.450099 43.983337 
L 374.971754 44.167307 
L 376.102866 44.562426 
L 376.888904 44.959286 
L 378.756031 46.463575 
L 379.21869 47.154549 
L 379.410106 47.769248 
L 379.377303 48.240684 
L 379.082098 48.76443 
L 378.577663 49.166183 
L 378.043913 49.429652 
L 375.571966 50.047677 
L 372.518074 50.40746 
L 362.019194 51.378477 
L 358.425523 51.898569 
L 353.497056 52.901205 
L 349.599068 54.004468 
L 345.272441 55.663961 
L 344.424493 56.057586 
L 342.287342 57.176259 
L 340.189844 58.492477 
L 338.149376 60.061275 
L 337.245555 60.883694 
L 335.93063 62.286303 
L 335.129578 63.316296 
L 334.04846 65.085249 
L 333.468694 66.406892 
L 333.126431 67.518993 
L 332.920852 68.597932 
L 332.875452 70.567187 
L 333.14701 72.065972 
L 333.893491 73.895737 
L 334.372193 74.669724 
L 335.167787 75.670078 
L 336.036886 76.52024 
L 337.272512 77.459529 
L 339.3846 78.601615 
L 341.634574 79.392451 
L 343.691275 79.835937 
L 345.890869 80.06992 
L 349.173523 80.013682 
L 352.87464 79.381632 
L 354.833526 78.770639 
L 357.063838 77.759606 
L 358.246472 77.022308 
L 359.495231 75.972766 
L 360.18414 75.155501 
L 360.707125 74.229256 
L 360.996787 73.201073 
L 361.032594 72.507766 
L 360.850843 71.388725 
L 360.04369 68.764652 
L 360.205777 68.128961 
L 360.7387 67.566537 
L 361.591924 67.116067 
L 362.945675 66.703399 
L 364.680428 66.41381 
L 366.633812 66.312683 
L 368.337361 66.467949 
L 369.204234 66.743992 
L 369.634054 67.123887 
L 369.651974 67.437063 
L 369.466647 67.704036 
L 368.906689 68.010506 
L 368.448151 68.099313 
L 367.705181 68.018542 
L 367.500778 67.940327 
L 367.037893 67.635283 
L 366.509319 66.894792 
L 366.24002 66.05594 
L 366.119441 65.119539 
L 366.157147 63.310983 
L 366.425284 61.277156 
L 367.036314 58.317844 
L 368.129155 54.188327 
L 369.572013 49.65086 
L 370.795559 46.582413 
L 371.642563 45.069082 
L 372.020911 44.608891 
L 372.582356 44.21737 
L 372.974934 44.167328 
L 373.346597 44.294242 
L 373.814511 44.685933 
L 374.235675 45.237278 
L 375.530381 47.742923 
L 378.303987 53.795854 
L 379.789227 56.274125 
L 380.907023 57.666069 
L 382.756084 59.087864 
L 385.333373 59.328145 
L 386.246295 58.943133 
L 388.520511 56.910722 
L 390.512488 53.798955 
L 392.213052 50.018377 
L 393.771193 45.440659 
L 395.200489 39.999831 
L 395.200489 39.999831 
" style="fill:none;stroke:#000000;stroke-linecap:square;stroke-opacity:0.7;stroke-width:1.2;"/>
   </g>
   <g id="line2d_16">
    <path clip-path="url(#p87a3dabbc6)" d="M 510.771665 237.024089 
L 505.089475 227.712165 
L 504.14137 223.053048 
L 504.364056 217.298205 
L 505.21897 213.698361 
L 506.388489 210.610792 
L 507.794643 207.868718 
L 509.990768 204.659498 
L 511.961199 202.531448 
L 513.693356 201.17465 
L 514.780062 200.59034 
L 515.608213 200.312134 
L 516.316514 200.219056 
L 517.09062 200.325517 
L 517.728816 200.663183 
L 518.284743 201.30126 
L 518.530666 201.799197 
L 518.884734 203.702403 
L 518.812684 205.344064 
L 518.644919 206.445899 
L 518.039544 208.819988 
L 517.013187 211.524923 
L 515.782115 214.007134 
L 514.708499 215.811936 
L 513.875613 217.052701 
L 512.213049 219.21694 
L 510.690991 220.910797 
L 507.845568 223.512959 
L 505.72342 225.068582 
L 504.683997 225.728482 
L 501.196518 227.515918 
L 498.54361 228.480727 
L 495.785346 229.148244 
L 493.637901 229.426842 
L 491.56454 229.468971 
L 489.857501 229.288517 
L 488.632794 228.980721 
L 487.341286 228.344968 
L 486.654412 227.634976 
L 486.47355 227.257585 
L 486.381503 226.510998 
L 486.472127 226.036924 
L 486.915678 225.124323 
L 487.347565 224.560573 
L 488.251995 223.67484 
L 490.16927 222.323231 
L 492.386635 221.184932 
L 494.222527 220.3816 
L 494.16575 220.311204 
L 492.524062 219.39157 
L 492.231741 218.922357 
L 492.161717 218.34935 
L 492.331324 217.878469 
L 492.746321 217.433904 
L 493.475465 217.084492 
L 494.109911 216.977062 
L 495.012322 217.032661 
L 496.029602 217.344927 
L 496.649504 217.662861 
L 497.435563 218.217122 
L 498.770404 219.63182 
L 499.515731 220.778417 
L 500.342133 222.528007 
L 501.058989 224.747434 
L 501.766479 227.925705 
L 502.239205 229.554293 
L 502.677739 230.107745 
L 503.040267 230.201689 
L 503.809428 229.927115 
L 504.812532 229.157221 
L 506.591825 227.389347 
L 519.137132 213.712074 
L 521.062517 211.981324 
L 521.890857 211.455221 
L 522.497768 211.444805 
L 522.70445 211.986855 
L 522.507099 214.005246 
L 521.888678 216.894091 
L 519.334445 227.14015 
L 517.689739 232.832702 
L 517.000792 234.761756 
L 515.592661 237.512298 
L 514.280362 238.461978 
L 514.280362 238.461978 
" style="fill:none;stroke:#000000;stroke-linecap:square;stroke-opacity:0.7;stroke-width:1.2;"/>
   </g>
   <g id="line2d_17">
    <path clip-path="url(#p87a3dabbc6)" d="M 477.625526 200.319823 
L 488.550472 204.192163 
L 497.508181 203.223837 
L 505.402104 198.975099 
L 509.056921 195.847893 
L 512.917552 191.687196 
L 515.379201 188.544005 
L 519.778277 181.884002 
L 522.480435 177.049692 
L 524.793902 172.386497 
L 526.718899 168.071761 
L 529.285788 161.535793 
L 531.691012 154.13847 
L 532.852531 149.401162 
L 533.100964 147.584136 
L 533.004277 146.802749 
L 532.846239 146.745482 
L 532.698694 146.82814 
L 531.9045 147.931011 
L 531.157097 149.340516 
L 528.036878 156.255887 
L 522.91043 168.193362 
L 517.95604 179.035224 
L 514.243889 186.307136 
L 512.043844 190.181132 
L 508.242954 195.997698 
L 507.312233 197.241445 
L 504.893593 200.128273 
L 503.161057 201.887345 
L 502.348947 202.623728 
L 499.621442 204.694834 
L 497.143299 206.065029 
L 496.721468 206.252591 
L 494.943257 206.906312 
L 492.452746 207.474874 
L 491.30631 207.611508 
L 488.944192 207.665107 
L 485.406756 207.192602 
L 484.519305 206.961208 
L 482.282459 206.099568 
L 482.032546 205.969482 
L 480.826128 205.18653 
L 479.637101 203.9753 
L 478.866139 202.617928 
L 478.388747 201.106486 
L 478.155937 199.770411 
L 478.021177 198.305105 
L 477.99305 193.952143 
L 478.245727 189.46035 
L 478.634376 185.560773 
L 479.226109 181.721582 
L 479.838724 179.033305 
L 480.298616 177.514066 
L 481.292317 175.130087 
L 482.226153 173.617596 
L 483.198022 172.537916 
L 484.662623 171.582944 
L 485.203022 171.392356 
L 486.060824 171.243673 
L 487.243488 171.328742 
L 488.008927 171.564758 
L 489.131655 172.212112 
L 489.498169 172.524288 
L 490.897565 175.043264 
L 490.955769 176.024461 
L 490.784647 176.984276 
L 490.514427 177.678834 
L 489.974119 178.565455 
L 489.273018 179.366666 
L 487.557951 180.698528 
L 485.650003 181.713444 
L 483.324806 182.631087 
L 478.531058 184.204823 
L 478.56107 184.341397 
L 478.733756 184.374691 
L 480.458704 184.301294 
L 482.556392 184.004678 
L 485.954228 183.305323 
L 490.112988 182.174061 
L 494.743774 180.601454 
L 498.795133 178.961641 
L 502.952244 177.007347 
L 506.780046 174.924376 
L 510.543172 172.508809 
L 512.535834 170.947106 
L 513.51464 169.871808 
L 513.413145 169.291268 
L 510.726067 168.64989 
L 509.136089 168.068799 
L 506.393919 166.684565 
L 504.086875 165.274793 
L 495.06568 158.815857 
L 487.105922 152.649136 
L 487.105922 152.649136 
" style="fill:none;stroke:#000000;stroke-linecap:square;stroke-opacity:0.7;stroke-width:1.2;"/>
   </g>
   <g id="line2d_18">
    <path clip-path="url(#p87a3dabbc6)" d="M 506.422012 164.135944 
L 498.795857 157.249513 
L 491.01634 148.554984 
L 485.654447 140.104608 
L 484.164111 136.412385 
L 483.461546 131.391667 
L 483.888125 129.685913 
L 484.399752 128.848685 
L 484.88284 128.372952 
L 486.137681 127.767483 
L 487.568878 127.656193 
L 489.528263 128.066088 
L 491.106609 128.722745 
L 492.357116 129.408887 
L 494.828082 131.150718 
L 497.413562 133.537902 
L 498.309924 134.52739 
L 500.248232 137.086996 
L 501.209742 138.702701 
L 502.047237 140.516116 
L 502.591579 142.251634 
L 502.849098 144.135477 
L 502.850725 144.505753 
L 502.6122 146.092992 
L 502.293656 146.85824 
L 501.932683 147.388857 
L 501.076059 148.04672 
L 500.615698 148.18888 
L 499.679176 148.14316 
L 499.361181 148.032356 
L 498.510656 147.484688 
L 497.994407 146.944508 
L 497.234243 145.750553 
L 496.710355 144.48403 
L 496.21509 142.552276 
L 495.997006 141.052302 
L 495.90835 139.990962 
L 495.892703 136.837385 
L 496.148065 133.850773 
L 496.625133 130.830428 
L 497.374778 127.555914 
L 498.477214 124.128293 
L 499.11127 122.763564 
L 499.647203 122.175404 
L 499.877138 122.318334 
L 500.043886 123.033807 
L 500.091829 124.54718 
L 499.966576 135.625547 
L 500.300178 138.210584 
L 500.646736 139.563582 
L 501.492801 141.26772 
L 501.873536 141.677495 
L 502.76078 142.166594 
L 503.090308 142.228356 
L 503.924063 142.175479 
L 504.693522 141.91682 
L 505.688691 141.353004 
L 506.591132 140.662597 
L 507.318872 140.003091 
L 509.211979 137.946558 
L 512.758315 133.699244 
L 512.966481 133.616292 
L 513.158723 133.70735 
L 513.291322 134.24792 
L 513.25293 135.47752 
L 513.028896 137.411297 
L 511.746908 145.554323 
L 509.130057 160.769652 
L 507.75721 167.488297 
L 507.563502 168.127724 
L 507.522658 168.097388 
L 507.738501 166.644188 
L 509.013822 160.819189 
L 510.769265 153.981434 
L 512.763332 147.000992 
L 514.390724 141.771393 
L 515.84374 137.423545 
L 517.477598 132.890693 
L 520.339925 125.892281 
L 523.128916 120.331102 
L 525.525543 116.663229 
L 526.926163 115.041329 
L 528.737424 113.557038 
L 530.754439 112.766489 
L 532.095976 112.769301 
L 535.176594 114.464677 
L 536.937184 116.556784 
L 538.769565 119.699812 
L 539.955799 122.343667 
L 541.644433 127.210137 
L 542.439761 130.188077 
L 542.439761 130.188077 
" style="fill:none;stroke:#000000;stroke-linecap:square;stroke-opacity:0.7;stroke-width:1.2;"/>
   </g>
   <g id="line2d_19">
    <path clip-path="url(#p87a3dabbc6)" d="M 467.557296 129.684813 
L 463.507345 116.741003 
L 462.791018 111.535222 
L 462.755119 108.171437 
L 463.126311 105.193519 
L 464.281503 101.825914 
L 469.003065 97.894129 
L 471.199468 97.748689 
L 472.550045 97.990544 
L 473.931191 98.487533 
L 476.221958 99.923467 
L 477.539114 101.193064 
L 478.873227 103.018949 
L 479.324332 103.847976 
L 480.240322 106.404071 
L 480.405295 107.278147 
L 480.494618 109.484384 
L 480.156416 111.37771 
L 479.552534 112.812446 
L 478.975607 113.640339 
L 478.290935 114.272978 
L 477.193809 114.734964 
L 476.480346 114.712759 
L 475.639846 114.328578 
L 474.842241 113.476571 
L 474.54734 112.972129 
L 473.9947 111.419979 
L 473.72703 108.563469 
L 473.894463 106.702972 
L 474.813378 103.190999 
L 476.015912 100.567147 
L 477.776862 97.88316 
L 478.994257 96.446579 
L 480.657517 94.8388 
L 483.417528 92.812746 
L 485.54325 91.662747 
L 487.713788 90.785885 
L 490.292302 90.083685 
L 491.494182 89.872278 
L 494.341135 89.649381 
L 497.330482 89.82638 
L 499.719053 90.27415 
L 501.662207 90.848728 
L 504.548282 92.08041 
L 506.673343 93.31188 
L 508.409377 94.554895 
L 510.323824 96.21786 
L 511.924468 97.894352 
L 512.530215 98.638027 
L 512.233711 98.398152 
L 511.042221 97.547349 
L 509.813141 96.986038 
L 508.507387 96.678095 
L 507.467423 96.610586 
L 505.867074 96.76681 
L 504.138074 97.238176 
L 502.417061 97.974447 
L 499.923506 99.444218 
L 497.722927 101.070904 
L 494.708554 103.646685 
L 491.453156 106.491254 
L 489.452285 107.913313 
L 488.296748 108.445626 
L 487.531707 108.601305 
L 486.745032 108.511039 
L 486.044573 108.090257 
L 485.529452 107.401066 
L 485.161971 106.396439 
L 485.020191 105.232683 
L 485.045778 104.553584 
L 485.220197 103.582494 
L 485.516478 102.74981 
L 486.077032 101.783866 
L 486.524077 101.244543 
L 487.210802 100.616472 
L 488.85331 99.623431 
L 489.898656 99.195965 
L 492.122221 98.5637 
L 495.419208 97.986655 
L 501.777613 97.274084 
L 508.078003 96.50708 
L 512.684361 95.699747 
L 516.282505 94.847708 
L 522.545126 92.73451 
L 525.175182 91.539865 
L 528.318542 89.802729 
L 534.728871 84.788771 
L 534.728871 84.788771 
" style="fill:none;stroke:#000000;stroke-linecap:square;stroke-opacity:0.7;stroke-width:1.2;"/>
   </g>
   <g id="line2d_20">
    <path clip-path="url(#p87a3dabbc6)" d="M 496.931965 86.547725 
L 501.678599 91.459418 
L 506.617707 94.890736 
L 508.43305 95.49435 
L 511.85165 94.707043 
L 512.680415 93.69081 
L 513.557464 91.364794 
L 513.810417 89.735946 
L 513.883627 86.927291 
L 513.602563 83.695481 
L 513.261532 81.551119 
L 511.941358 75.990041 
L 510.173632 70.633623 
L 508.427836 66.347576 
L 506.333144 62.028736 
L 504.544979 58.905162 
L 503.033209 56.633257 
L 501.186893 54.32008 
L 499.796695 52.940809 
L 498.240847 51.836874 
L 497.540389 51.533302 
L 496.703236 51.403821 
L 496.19916 51.538519 
L 495.832169 51.935291 
L 495.74216 52.475758 
L 495.779859 52.753758 
L 496.213529 53.761429 
L 497.191428 55.003126 
L 499.134791 56.8335 
L 502.625844 59.961667 
L 504.385558 61.80092 
L 505.924767 63.727017 
L 507.224086 65.769428 
L 508.159639 67.755494 
L 508.64086 69.313983 
L 508.812821 70.541275 
L 508.628973 71.879629 
L 508.260344 72.437249 
L 507.726769 72.741126 
L 507.024841 72.806688 
L 506.404714 72.70155 
L 504.936802 72.122135 
L 503.883846 71.535267 
L 501.242935 69.73876 
L 495.829102 65.554149 
L 491.656209 62.431419 
L 489.470477 60.959048 
L 487.04241 59.545324 
L 485.231833 58.72001 
L 483.789761 58.285977 
L 482.657951 58.181693 
L 481.771565 58.3876 
L 481.182072 58.888492 
L 481.008725 59.211482 
L 480.844672 60.281077 
L 481.03838 61.521855 
L 481.518353 62.910131 
L 482.147773 64.227157 
L 483.406678 66.313615 
L 484.931571 68.398143 
L 487.057653 70.861841 
L 488.480797 72.285012 
L 489.902944 73.436194 
L 490.498719 73.689917 
L 490.865372 73.632898 
L 491.04827 73.492375 
L 491.728704 72.385918 
L 492.923114 70.359881 
L 494.087356 68.789445 
L 495.527867 67.171415 
L 497.468515 65.344266 
L 498.782106 64.272002 
L 502.019288 62.063402 
L 503.98064 60.986903 
L 506.313963 59.951777 
L 509.754265 58.945821 
L 512.149247 58.678557 
L 513.42106 58.717466 
L 514.541619 58.879484 
L 516.001466 59.312961 
L 517.285474 59.965609 
L 519.0385 61.475141 
L 520.072014 62.923905 
L 521.552501 66.810636 
L 522.058332 70.116964 
L 522.167131 73.298628 
L 522.10352 74.972026 
L 522.259724 73.036573 
L 523.271053 60.473446 
L 523.735411 53.255499 
L 524.216831 43.477239 
L 524.216831 43.477239 
" style="fill:none;stroke:#000000;stroke-linecap:square;stroke-opacity:0.7;stroke-width:1.2;"/>
   </g>
   <g id="line2d_21">
    <path clip-path="url(#p87a3dabbc6)" d="M 625.225124 245.121072 
L 626.386677 247.752871 
L 627.878811 249.796803 
L 629.641409 250.795464 
L 629.995922 250.627754 
L 630.20076 250.292236 
L 630.195786 248.505177 
L 629.38212 245.728308 
L 628.667014 243.941493 
L 625.976981 238.295544 
L 621.859362 230.244355 
L 620.039 226.208975 
L 619.383706 224.406849 
L 618.798118 221.902462 
L 618.746279 220.998647 
L 618.979226 219.626962 
L 619.136288 219.278813 
L 620.289574 218.13616 
L 620.567174 217.996778 
L 622.471237 217.515325 
L 624.454228 217.425171 
L 628.114604 217.641719 
L 635.225953 218.22694 
L 636.565197 218.274794 
L 641.11648 218.119679 
L 644.259918 217.596207 
L 646.679027 216.843175 
L 647.870841 216.31653 
L 650.379375 214.695941 
L 650.846861 214.279427 
L 652.239871 212.61562 
L 652.919545 211.236531 
L 653.150872 210.257029 
L 653.147727 209.375586 
L 652.742932 208.312841 
L 652.194002 207.764462 
L 651.548135 207.432011 
L 650.477066 207.21356 
L 648.454933 207.362134 
L 646.598737 207.858348 
L 644.539711 208.663879 
L 641.683512 210.102695 
L 639.900323 211.158788 
L 637.937012 212.45769 
L 634.648298 215.039369 
L 633.024631 216.671966 
L 632.00314 218.134042 
L 631.713951 218.919068 
L 631.701676 219.636154 
L 631.97732 220.224431 
L 632.375318 220.598682 
L 632.866723 220.87891 
L 634.540063 221.333005 
L 636.187652 221.456258 
L 638.117459 221.364512 
L 640.017101 221.030783 
L 641.323195 220.580353 
L 642.187306 220.041434 
L 642.567472 219.59942 
L 642.769228 218.91179 
L 642.702338 218.429211 
L 642.300145 217.611067 
L 641.491703 216.664618 
L 640.307087 215.649745 
L 638.62307 214.508303 
L 636.508854 213.370278 
L 635.513674 212.92749 
L 632.54235 211.944285 
L 630.202764 211.5473 
L 627.984723 211.516759 
L 627.277202 211.585936 
L 625.943264 211.831337 
L 623.774893 212.590813 
L 622.010407 213.597539 
L 620.611829 214.695611 
L 619.416046 215.886848 
L 618.218322 217.361322 
L 617.178522 218.919644 
L 616.363038 220.364844 
L 615.310167 222.60423 
L 614.642335 224.316632 
L 613.617157 227.677075 
L 613.03631 230.584633 
L 612.886498 232.393529 
L 613.016804 233.701895 
L 613.366775 234.388082 
L 614.007155 234.701041 
L 614.351254 234.720826 
L 617.132452 234.517441 
L 617.8924 234.718384 
L 618.859411 235.409367 
L 619.250671 235.932122 
L 619.640966 236.728973 
L 620.061713 238.408293 
L 620.188344 240.333669 
L 619.780332 244.337822 
L 618.737213 248.423811 
L 617.672111 251.355977 
L 617.672111 251.355977 
" style="fill:none;stroke:#000000;stroke-linecap:square;stroke-opacity:0.7;stroke-width:1.2;"/>
   </g>
   <g id="line2d_22">
    <path clip-path="url(#p87a3dabbc6)" d="M 631.423439 198.190314 
L 631.531315 200.75686 
L 631.930926 201.351529 
L 632.88689 201.662099 
L 633.710873 201.373782 
L 634.246181 200.988105 
L 635.394655 199.648947 
L 636.568701 197.391163 
L 636.873118 196.597122 
L 637.823185 193.198746 
L 639.068944 187.737766 
L 639.698226 186.412616 
L 640.466722 185.448099 
L 641.092582 184.907766 
L 642.771081 183.934921 
L 645.40809 182.683698 
L 645.497332 182.445035 
L 645.340312 182.049121 
L 644.628968 181.291967 
L 642.164948 178.923694 
L 640.517334 176.97816 
L 639.468695 175.440708 
L 638.388148 173.38503 
L 637.64539 171.336237 
L 636.787591 168.687878 
L 636.718617 168.66876 
L 636.707287 168.734098 
L 636.851043 169.017005 
L 637.407433 169.556897 
L 638.328985 170.120358 
L 639.410597 170.578209 
L 640.936254 171.025391 
L 643.285971 171.444899 
L 646.566337 171.704017 
L 650.774699 171.714348 
L 655.716356 171.480351 
L 659.236543 171.169143 
L 658.509368 171.376718 
L 657.456137 171.850032 
L 656.155771 172.714512 
L 655.119493 173.64828 
L 653.492496 175.501123 
L 652.344556 176.733687 
L 651.468109 177.25048 
L 650.701125 177.291105 
L 649.79008 176.897733 
L 649.166815 176.409473 
L 648.260481 175.451835 
L 646.676604 173.205358 
L 645.393846 170.85299 
L 645.077855 170.176875 
L 643.991929 167.242511 
L 643.628508 165.251787 
L 643.650452 164.487341 
L 643.934463 163.746851 
L 644.393979 163.58875 
L 644.79552 163.847566 
L 644.79552 163.847566 
" style="fill:none;stroke:#000000;stroke-linecap:square;stroke-opacity:0.7;stroke-width:1.2;"/>
   </g>
   <g id="line2d_23">
    <path clip-path="url(#p87a3dabbc6)" d="M 644.92824 160.892811 
L 641.584475 157.667751 
L 637.272449 151.002109 
L 636.600434 148.221827 
L 636.62975 145.366753 
L 637.304701 142.805013 
L 638.04197 141.254543 
L 639.314269 139.410138 
L 640.778625 137.940296 
L 642.275375 136.932792 
L 643.390068 136.492561 
L 644.092567 136.3751 
L 644.790257 136.420028 
L 645.351746 136.62368 
L 645.945392 137.120043 
L 646.448705 138.13657 
L 646.619791 139.494036 
L 646.480789 141.023761 
L 645.952204 143.04821 
L 645.170478 144.940399 
L 644.403162 146.355695 
L 643.51 147.687573 
L 642.071865 149.325112 
L 640.903555 150.272713 
L 639.618542 150.940075 
L 638.803191 151.152684 
L 637.768972 151.1658 
L 636.571774 150.775527 
L 635.396466 149.895414 
L 634.5189 148.875513 
L 633.105688 146.722362 
L 632.352877 145.689806 
L 631.847086 145.263931 
L 631.316953 145.132122 
L 630.896148 145.260447 
L 630.705506 145.382667 
L 630.028524 146.118261 
L 629.180261 147.767364 
L 628.845866 148.973796 
L 628.876084 149.623367 
L 629.014149 149.681651 
L 629.294616 149.456503 
L 629.83185 148.572392 
L 630.270389 147.602812 
L 631.414941 144.3893 
L 632.63311 140.089853 
L 633.353003 136.806279 
L 633.607547 134.639646 
L 633.54396 133.705891 
L 633.317823 133.217543 
L 633.130858 133.105117 
L 632.657779 133.180083 
L 632.157539 133.523651 
L 631.379419 134.342546 
L 630.200328 136.021033 
L 629.123978 137.966797 
L 628.117916 140.269203 
L 627.371177 142.637571 
L 627.036212 144.469214 
L 626.976562 145.533179 
L 627.190812 147.089839 
L 627.475792 147.714944 
L 627.91059 148.193378 
L 628.644581 148.476018 
L 629.429922 148.391902 
L 630.33693 147.974702 
L 632.257446 146.795697 
L 632.910333 146.863685 
L 634.350268 147.476216 
L 637.64502 148.934129 
L 641.922322 150.509005 
L 642.907746 150.796549 
L 646.654411 151.495225 
L 648.26696 151.532888 
L 651.031019 151.015002 
L 652.676106 150.158123 
L 654.457136 148.342071 
L 655.177061 147.093868 
L 656.197523 143.862375 
L 656.439129 142.20464 
L 656.571331 139.94097 
L 656.571331 139.94097 
" style="fill:none;stroke:#000000;stroke-linecap:square;stroke-opacity:0.7;stroke-width:1.2;"/>
   </g>
   <g id="line2d_24">
    <path clip-path="url(#p87a3dabbc6)" d="M 631.577805 106.848353 
L 635.410344 112.376352 
L 637.949518 115.198943 
L 638.829267 115.663616 
L 639.103893 115.529997 
L 639.219267 115.208318 
L 639.198854 114.261268 
L 638.849201 112.308076 
L 637.454792 105.326354 
L 635.471762 94.03754 
L 634.928859 91.885995 
L 634.17074 89.804915 
L 633.419967 88.839704 
L 632.997852 88.80753 
L 632.448158 89.280597 
L 631.716932 90.487322 
L 629.429499 94.619087 
L 627.988521 96.805915 
L 625.17969 100.528617 
L 616.75831 110.781497 
L 616.341547 111.128516 
L 616.274926 111.074687 
L 616.311274 110.434287 
L 617.306127 103.832589 
L 617.688438 101.670687 
L 617.952658 101.140488 
L 618.381958 100.959433 
L 618.602556 101.013981 
L 619.350719 101.503204 
L 620.923191 103.046221 
L 626.598185 108.974732 
L 629.631213 111.784161 
L 631.997694 113.755364 
L 636.933841 117.207005 
L 639.887435 118.822453 
L 643.243301 120.221856 
L 645.024492 120.76597 
L 647.895449 121.335909 
L 649.922014 121.497706 
L 651.379142 121.484208 
L 652.879882 121.351198 
L 654.995741 120.947275 
L 657.286618 120.202898 
L 659.739189 119.015028 
L 661.062991 118.186297 
L 662.715885 116.94267 
L 664.174868 115.625672 
L 666.031557 113.591663 
L 667.026955 112.297743 
L 668.787943 109.534344 
L 669.38862 108.403382 
L 670.668179 105.477644 
L 671.620572 102.432179 
L 672.225129 99.247909 
L 672.400643 97.156246 
L 672.399676 95.319935 
L 672.171784 93.025945 
L 671.832769 91.391182 
L 671.462246 90.1575 
L 670.656445 88.258287 
L 670.136825 87.334259 
L 669.396099 86.257458 
L 667.094349 83.963496 
L 665.74989 83.075878 
L 663.754301 82.151816 
L 661.481679 81.524443 
L 658.479024 81.227003 
L 655.361875 81.463296 
L 654.42034 81.642838 
L 652.119133 82.32364 
L 650.881189 82.864996 
L 649.535608 83.650111 
L 648.189598 84.745916 
L 647.374531 85.638125 
L 645.962767 87.403328 
L 645.717405 87.615454 
L 645.201897 87.893943 
L 643.525476 87.815302 
L 640.614802 86.447782 
L 637.564879 84.540332 
L 634.426445 82.391199 
L 634.426445 82.391199 
" style="fill:none;stroke:#000000;stroke-linecap:square;stroke-opacity:0.7;stroke-width:1.2;"/>
   </g>
   <g id="line2d_25">
    <path clip-path="url(#p87a3dabbc6)" d="M 621.002011 81.890546 
L 618.709342 78.415627 
L 618.237772 76.408896 
L 619.508326 74.541146 
L 619.391831 73.563369 
L 618.34487 69.599442 
L 618.450865 69.046688 
L 618.814938 68.411017 
L 619.400978 67.923567 
L 619.943405 67.647501 
L 621.857708 67.126392 
L 624.684744 66.767429 
L 628.507419 66.313751 
L 630.642421 65.819878 
L 632.151823 65.153665 
L 633.528908 63.723345 
L 633.806354 62.918886 
L 633.884694 61.806729 
L 633.701127 60.556748 
L 633.164299 58.870965 
L 632.716155 57.825352 
L 631.014919 54.680633 
L 629.312201 52.086853 
L 627.034225 49.111699 
L 624.715511 46.597494 
L 622.987867 45.064849 
L 621.149543 43.752666 
L 619.493778 42.842105 
L 619.079775 42.652894 
L 617.505281 42.067957 
L 615.417406 41.604713 
L 613.871361 41.480306 
L 611.79607 41.601734 
L 610.794919 41.782619 
L 608.213686 42.670856 
L 607.415945 43.096491 
L 606.063188 44.055049 
L 605.21395 44.885849 
L 604.49239 45.848375 
L 603.892594 47.069541 
L 603.630535 48.018651 
L 603.523341 49.182935 
L 603.677343 50.568444 
L 603.946373 51.510456 
L 604.604072 52.950279 
L 605.037008 53.662518 
L 607.891368 56.912155 
L 610.009636 58.663917 
L 611.986108 60.070436 
L 615.144274 62.053269 
L 617.935241 63.647441 
L 627.7441 69.075719 
L 631.662127 71.748938 
L 632.092633 72.100942 
L 633.440219 73.350591 
L 634.791498 75.024091 
L 635.634976 76.70453 
L 635.889234 77.614178 
L 636.012075 78.533007 
L 635.993053 79.654059 
L 635.847969 80.586035 
L 635.241117 82.471621 
L 634.399971 84.168593 
L 632.432418 87.544371 
L 632.452018 87.803653 
L 632.765372 87.880104 
L 634.441973 87.290596 
L 636.669302 86.210099 
L 641.615388 83.558222 
L 645.0583 81.58953 
L 651.028615 77.900391 
L 656.147668 74.339649 
L 658.344473 72.650846 
L 661.881476 69.650537 
L 664.1354 67.499971 
L 666.535738 64.927999 
L 669.888182 60.601736 
L 671.073087 58.753325 
L 672.765536 55.60741 
L 673.460483 54.038249 
L 674.296498 51.752045 
L 675.200066 48.033944 
L 675.490909 44.767197 
L 675.296727 41.955731 
L 674.106503 38.123158 
L 673.438923 36.989752 
L 671.664667 35.064802 
L 670.568107 34.325554 
L 668.401738 33.470048 
L 666.157055 33.171898 
L 663.352232 33.396825 
L 656.275474 36.003601 
L 651.129805 39.22812 
L 649.364375 40.538885 
L 644.099577 44.979468 
L 637.728352 51.278249 
L 628.006783 62.497259 
L 620.37754 72.430099 
L 614.365679 80.849142 
L 607.85211 90.487357 
L 607.85211 90.487357 
" style="fill:none;stroke:#000000;stroke-linecap:square;stroke-opacity:0.7;stroke-width:1.2;"/>
   </g>
  </g>
 </g>
 <defs>
  <clipPath id="p87a3dabbc6">
   <rect height="262.08" width="694.08" x="12.96" y="12.96"/>
  </clipPath>
 </defs>
</svg>
