<svg viewBox="0 0 1496 400" xmlns="http://www.w3.org/2000/svg"><g><g><g><g><g><line x1="80" y1="378" x2="75" y2="378" style="visibility: inherit;" fill="rgb(0, 0, 0)" stroke="rgb(204, 204, 204)" stroke-width="1px"></line><line x1="80" y1="336" x2="75" y2="336" style="visibility: inherit;" fill="rgb(0, 0, 0)" stroke="rgb(204, 204, 204)" stroke-width="1px"></line><line x1="80" y1="294" x2="75" y2="294" style="visibility: inherit;" fill="rgb(0, 0, 0)" stroke="rgb(204, 204, 204)" stroke-width="1px"></line><line x1="80" y1="252" x2="75" y2="252" style="visibility: inherit;" fill="rgb(0, 0, 0)" stroke="rgb(204, 204, 204)" stroke-width="1px"></line><line x1="80" y1="210" x2="75" y2="210" style="visibility: inherit;" fill="rgb(0, 0, 0)" stroke="rgb(204, 204, 204)" stroke-width="1px"></line><line x1="80" y1="168" x2="75" y2="168" style="visibility: inherit;" fill="rgb(0, 0, 0)" stroke="rgb(204, 204, 204)" stroke-width="1px"></line><line x1="80" y1="126" x2="75" y2="126" style="visibility: inherit;" fill="rgb(0, 0, 0)" stroke="rgb(204, 204, 204)" stroke-width="1px"></line><line x1="80" y1="84" x2="75" y2="84" style="visibility: inherit;" fill="rgb(0, 0, 0)" stroke="rgb(204, 204, 204)" stroke-width="1px"></line><line x1="80" y1="42" x2="75" y2="42" style="visibility: inherit;" fill="rgb(0, 0, 0)" stroke="rgb(204, 204, 204)" stroke-width="1px"></line><line x1="80" y1="0" x2="75" y2="0" style="visibility: inherit;" fill="rgb(0, 0, 0)" stroke="rgb(204, 204, 204)" stroke-width="1px"></line></g><g transform="translate(70, 0)"><text x="0" y="378" dx="0em" dy="0.3em" style="text-anchor: end; visibility: hidden; font-family: &quot;Helvetica Neue&quot;, sans-serif; font-size: 12px; font-weight: 200;" fill="rgb(50, 49, 63)" stroke="none" stroke-width="1px">-3.5e+5</text><text x="0" y="336" dx="0em" dy="0.3em" style="text-anchor: end; visibility: inherit; font-family: &quot;Helvetica Neue&quot;, sans-serif; font-size: 12px; font-weight: 200;" fill="rgb(50, 49, 63)" stroke="none" stroke-width="1px">-3e+5</text><text x="0" y="294" dx="0em" dy="0.3em" style="text-anchor: end; visibility: inherit; font-family: &quot;Helvetica Neue&quot;, sans-serif; font-size: 12px; font-weight: 200;" fill="rgb(50, 49, 63)" stroke="none" stroke-width="1px">-2.5e+5</text><text x="0" y="252" dx="0em" dy="0.3em" style="text-anchor: end; visibility: inherit; font-family: &quot;Helvetica Neue&quot;, sans-serif; font-size: 12px; font-weight: 200;" fill="rgb(50, 49, 63)" stroke="none" stroke-width="1px">-2e+5</text><text x="0" y="210" dx="0em" dy="0.3em" style="text-anchor: end; visibility: inherit; font-family: &quot;Helvetica Neue&quot;, sans-serif; font-size: 12px; font-weight: 200;" fill="rgb(50, 49, 63)" stroke="none" stroke-width="1px">-1.5e+5</text><text x="0" y="168" dx="0em" dy="0.3em" style="text-anchor: end; visibility: inherit; font-family: &quot;Helvetica Neue&quot;, sans-serif; font-size: 12px; font-weight: 200;" fill="rgb(50, 49, 63)" stroke="none" stroke-width="1px">-1e+5</text><text x="0" y="126" dx="0em" dy="0.3em" style="text-anchor: end; visibility: inherit; font-family: &quot;Helvetica Neue&quot;, sans-serif; font-size: 12px; font-weight: 200;" fill="rgb(50, 49, 63)" stroke="none" stroke-width="1px">-5e+4</text><text x="0" y="84" dx="0em" dy="0.3em" style="text-anchor: end; visibility: inherit; font-family: &quot;Helvetica Neue&quot;, sans-serif; font-size: 12px; font-weight: 200;" fill="rgb(50, 49, 63)" stroke="none" stroke-width="1px">0</text><text x="0" y="42" dx="0em" dy="0.3em" style="text-anchor: end; visibility: inherit; font-family: &quot;Helvetica Neue&quot;, sans-serif; font-size: 12px; font-weight: 200;" fill="rgb(50, 49, 63)" stroke="none" stroke-width="1px">5e+4</text><text x="0" y="0" dx="0em" dy="0.3em" style="text-anchor: end; visibility: hidden; font-family: &quot;Helvetica Neue&quot;, sans-serif; font-size: 12px; font-weight: 200;" fill="rgb(50, 49, 63)" stroke="none" stroke-width="1px">1e+5</text></g><line x1="80" y1="0" x2="80" y2="378" fill="rgb(0, 0, 0)" stroke="rgb(204, 204, 204)" stroke-width="1px"></line></g></g><g transform="translate(80, 0)" clip-path="url(#clip_0)"><clipPath id="clip_0"><rect width="1416" height="378"></rect></clipPath><g><g><g><line x1="0" y1="0" x2="0" y2="378" fill="rgb(0, 0, 0)" stroke="rgb(60, 60, 60)" stroke-width="1px" opacity="0.25"></line><line x1="118" y1="0" x2="118" y2="378" fill="rgb(0, 0, 0)" stroke="rgb(60, 60, 60)" stroke-width="1px" opacity="0.25"></line><line x1="236" y1="0" x2="236" y2="378" fill="rgb(0, 0, 0)" stroke="rgb(60, 60, 60)" stroke-width="1px" opacity="0.25"></line><line x1="354" y1="0" x2="354" y2="378" fill="rgb(0, 0, 0)" stroke="rgb(60, 60, 60)" stroke-width="1px" opacity="0.25"></line><line x1="472" y1="0" x2="472" y2="378" fill="rgb(0, 0, 0)" stroke="rgb(60, 60, 60)" stroke-width="1px" opacity="0.25"></line><line x1="590" y1="0" x2="590" y2="378" fill="rgb(0, 0, 0)" stroke="rgb(60, 60, 60)" stroke-width="1px" opacity="0.25"></line><line x1="708" y1="0" x2="708" y2="378" fill="rgb(0, 0, 0)" stroke="rgb(60, 60, 60)" stroke-width="1px" opacity="0.25"></line><line x1="826" y1="0" x2="826" y2="378" fill="rgb(0, 0, 0)" stroke="rgb(60, 60, 60)" stroke-width="1px" opacity="0.25"></line><line x1="944" y1="0" x2="944" y2="378" fill="rgb(0, 0, 0)" stroke="rgb(60, 60, 60)" stroke-width="1px" opacity="0.25"></line><line x1="1062" y1="0" x2="1062" y2="378" fill="rgb(0, 0, 0)" stroke="rgb(60, 60, 60)" stroke-width="1px" opacity="0.25"></line><line x1="1180" y1="0" x2="1180" y2="378" fill="rgb(0, 0, 0)" stroke="rgb(60, 60, 60)" stroke-width="1px" opacity="0.25"></line><line x1="1298" y1="0" x2="1298" y2="378" fill="rgb(0, 0, 0)" stroke="rgb(60, 60, 60)" stroke-width="1px" opacity="0.25"></line><line x1="1416" y1="0" x2="1416" y2="378" fill="rgb(0, 0, 0)" stroke="rgb(60, 60, 60)" stroke-width="1px" opacity="0.25"></line></g><g><line x1="0" y1="378" x2="1416" y2="378" fill="rgb(0, 0, 0)" stroke="rgb(60, 60, 60)" stroke-width="1px" opacity="0.25"></line><line x1="0" y1="336" x2="1416" y2="336" fill="rgb(0, 0, 0)" stroke="rgb(60, 60, 60)" stroke-width="1px" opacity="0.25"></line><line x1="0" y1="294" x2="1416" y2="294" fill="rgb(0, 0, 0)" stroke="rgb(60, 60, 60)" stroke-width="1px" opacity="0.25"></line><line x1="0" y1="252" x2="1416" y2="252" fill="rgb(0, 0, 0)" stroke="rgb(60, 60, 60)" stroke-width="1px" opacity="0.25"></line><line x1="0" y1="210" x2="1416" y2="210" fill="rgb(0, 0, 0)" stroke="rgb(60, 60, 60)" stroke-width="1px" opacity="0.25"></line><line x1="0" y1="168" x2="1416" y2="168" fill="rgb(0, 0, 0)" stroke="rgb(60, 60, 60)" stroke-width="1px" opacity="0.25"></line><line x1="0" y1="126" x2="1416" y2="126" fill="rgb(0, 0, 0)" stroke="rgb(60, 60, 60)" stroke-width="1px" opacity="0.25"></line><line x1="0" y1="84" x2="1416" y2="84" fill="rgb(0, 0, 0)" stroke="rgb(60, 60, 60)" stroke-width="1px" opacity="0.25"></line><line x1="0" y1="42" x2="1416" y2="42" fill="rgb(0, 0, 0)" stroke="rgb(60, 60, 60)" stroke-width="1px" opacity="0.25"></line><line x1="0" y1="0" x2="1416" y2="0" fill="rgb(0, 0, 0)" stroke="rgb(60, 60, 60)" stroke-width="1px" opacity="0.25"></line></g></g></g><g><g><line x1="0" y1="84" x2="1416" y2="84" fill="rgb(0, 0, 0)" stroke="rgb(153, 153, 153)" stroke-width="1.5px"></line></g></g><g><g><line x1="118" y1="0" x2="118" y2="378" fill="rgb(0, 0, 0)" stroke="rgb(153, 153, 153)" stroke-width="1.5px"></line></g></g><g><g><g><g><g><path stroke="rgb(255, 112, 67)" stroke-width="2px" d="M118,83.99466911069874L123.89999999999999,83.98898145275115L129.79999999999998,83.98264272262571L135.70000000000002,83.97576636497496L141.6,83.96848125457763L147.5,84.007230753479L153.4,94.04070703125001L159.3,84.04961392593384L165.2,89.15387496093751L171.1,84.18199194213867L177,304.89167625L182.9,84.02452895874023L188.8,83.9976323522186L194.70000000000002,133.81136671875L200.6,94.51859484375001L206.5,83.98912836158752L212.4,93.45344531249998L218.3,168.18612562500002L224.2,201.75183L230.1,88.17698244140627L236,87.4352876660156L241.9,84.66370833251955L247.79999999999998,87.08711833007811L253.7,83.97295281646728L259.59999999999997,83.97805699470518L265.5,83.9766048941803L271.40000000000003,83.9923053149414L277.3,83.99118744369503L283.2,83.97573018951414L289.1,84.17632069885252L295,84.00490172927857L300.9,84.07372379791258L306.8,83.98851494567873L312.7,83.97583241455078L318.6,84.05825260803226L324.5,129.6804403125L330.4,84.00318287658689L336.3,83.9814319205475L342.2,84.07541241760254L348.09999999999997,83.97339441215513L354,84.03782672424319L359.9,83.97376313301089L365.8,83.97530413650509L371.7,83.98774343215945L377.6,83.97379509475707L383.5,83.9736596054077L389.40000000000003,83.97301945724485L395.3,84.04106072937009L401.2,83.97913879623417L407.09999999999997,84.04919158035278L413,86.65348904296872L418.9,84.13570793701172L424.8,92.70955968750002L430.7,84.06835289794918L436.6,83.99955932395932L442.5,84.50994736816403L448.4,83.98077884765627L454.3,83.98773761787413L460.2,83.98740321716309L466.1,83.99039189437866L472,84.32996713989257L477.90000000000003,84.07215648834233L483.8,85.47738260742187L489.7,84.66006958007813L495.59999999999997,83.97900557075502L501.5,83.9760130066681L507.4,83.97612573875426L513.3,84.16575069030762L519.1999999999999,84.01689113479614L525.1,84.04465106414796L531,83.97924682273867L536.9,83.97487849205015L542.8000000000001,84.76928183349611L548.7,84.074940904541L554.6,83.97400406295776L560.5,83.97505172058106L566.4,83.97832653625488L572.3,83.98202031692506L578.2,83.97497233291625L584.1,84.06121310943604L590,83.98359642562866L595.9,83.99662721786501L601.8,83.98006008087157L607.6999999999999,83.97612189834598L613.6,83.97540295211792L619.5,83.97519125541686L625.4,83.97456410568236L631.3000000000001,84.04437389465335L637.2,83.97471467147824L643.1,83.97454658271789L649,83.98145665649412L654.9,83.97473565834048L660.8,83.97404476455688L666.7,83.9744382165527L672.6,83.97473838684084L678.5,83.97335041007995L684.4,83.97414659065242L690.3,83.97372881446842L696.1999999999999,83.97410750564575L702.1,83.97745453285216L708,83.97499782508851L713.9,83.97561508941652L719.8,83.9738379096222L725.6999999999999,83.97350508544923L731.6,83.97397369377137L737.5,83.97264027420044L743.4,83.97314206832885L749.3,83.97323465309142L755.2,83.97215894943236L761.1,83.97251600646973L767,83.97126242477418L772.9,83.97035143249514L778.8000000000001,83.97022986923218L784.7,83.9680678843689L790.6,83.96676831710812L796.5,83.96319894195557L802.4,83.96183349975587L808.3,83.9662284970093L814.1999999999999,84.01823985671996L820.1,84.01325957611084L826,83.98734570877076L831.9,83.99616533386234L837.8,83.99889823860167L843.7,83.99635575130463L849.6,83.99580973400111L855.5,83.99629299179077L861.4,83.99539132415771L867.3000000000001,83.99534200286865L873.2,83.9950032818985L879.1,83.99576358501434L885,83.99562961132051L890.9,83.99560806089403L896.8,83.99586473098759L902.6999999999999,83.99510433134083L908.6,83.9956786754608L914.5,83.99563681348798L920.4,83.99579553073886L926.3,83.99503158428195L932.2,83.99565251718519L938.1,83.99592542770387L944,83.99579231557846L949.9,83.99582472553254L955.8000000000001,83.99556387456892L961.7,83.99547125175474L967.6,83.99601637344358L973.5,83.99611086479189L979.4,83.99592817382813L985.3,83.99619601827624L991.1999999999999,83.99576359462742L997.1,83.99629236814496L1003,83.99611257671359L1008.9,83.9958055519295L1014.8,83.99575725883483L1020.7,83.99566217828749L1026.6,83.99648029821395L1032.5,83.99617865833284L1038.3999999999999,83.99561253135681L1044.3,83.996531255722L1050.2,83.99607322654725L1056.1,83.99629691711425L1062,83.99634674709324L1067.9,83.9960935372925L1073.8,83.99629532094957L1079.7,83.9963081803894L1085.6000000000001,83.99582866687774L1091.5,83.9961793941307L1097.4,83.99635277446748L1103.3,83.99590839981079L1109.2,83.99655230587007L1115.1,83.9962993756485L1121,83.99590908514023L1126.8999999999999,83.99607284523012L1132.8,83.99571580101014L1138.7,83.9961392821312L1144.6,83.99653177642824L1150.5,83.9965799161148L1156.4,83.99673204883578L1162.3,83.99661395027158L1168.2,83.99691557773588L1174.1000000000001,83.99640520277023L1180,83.99601526153566L1185.9,83.9964952108383L1191.8,83.99628197805401L1197.7,83.99615759416582L1203.6,83.99636037998198L1209.5,83.99659905807493L1215.3999999999999,83.9965651625061L1221.3,83.99656859075543L1227.2,83.9968650668335L1233.1,83.99622288391112L1239,83.99599454704287L1244.9,83.99708718246461L1250.8,83.9963517334557L1256.7,83.9959507532501L1262.6000000000001,83.99615624593736L1268.5,83.99612411876677L1274.4,83.99609849681855L1280.3,83.99541363481518L1286.2,83.99629913612364L1292.1,83.99632906150816" style="fill: none;" fill="none"></path></g></g></g></g></g></g><g transform="translate(80, 378)" clip-path="url(#clip_1)"><clipPath id="clip_1"><rect width="1416" height="22"></rect></clipPath><g><g><line x1="0" y1="0" x2="0" y2="5" style="visibility: inherit;" fill="rgb(0, 0, 0)" stroke="rgb(204, 204, 204)" stroke-width="1px"></line><line x1="118" y1="0" x2="118" y2="5" style="visibility: inherit;" fill="rgb(0, 0, 0)" stroke="rgb(204, 204, 204)" stroke-width="1px"></line><line x1="236" y1="0" x2="236" y2="5" style="visibility: inherit;" fill="rgb(0, 0, 0)" stroke="rgb(204, 204, 204)" stroke-width="1px"></line><line x1="354" y1="0" x2="354" y2="5" style="visibility: inherit;" fill="rgb(0, 0, 0)" stroke="rgb(204, 204, 204)" stroke-width="1px"></line><line x1="472" y1="0" x2="472" y2="5" style="visibility: inherit;" fill="rgb(0, 0, 0)" stroke="rgb(204, 204, 204)" stroke-width="1px"></line><line x1="590" y1="0" x2="590" y2="5" style="visibility: inherit;" fill="rgb(0, 0, 0)" stroke="rgb(204, 204, 204)" stroke-width="1px"></line><line x1="708" y1="0" x2="708" y2="5" style="visibility: inherit;" fill="rgb(0, 0, 0)" stroke="rgb(204, 204, 204)" stroke-width="1px"></line><line x1="826" y1="0" x2="826" y2="5" style="visibility: inherit;" fill="rgb(0, 0, 0)" stroke="rgb(204, 204, 204)" stroke-width="1px"></line><line x1="944" y1="0" x2="944" y2="5" style="visibility: inherit;" fill="rgb(0, 0, 0)" stroke="rgb(204, 204, 204)" stroke-width="1px"></line><line x1="1062" y1="0" x2="1062" y2="5" style="visibility: inherit;" fill="rgb(0, 0, 0)" stroke="rgb(204, 204, 204)" stroke-width="1px"></line><line x1="1180" y1="0" x2="1180" y2="5" style="visibility: inherit;" fill="rgb(0, 0, 0)" stroke="rgb(204, 204, 204)" stroke-width="1px"></line><line x1="1298" y1="0" x2="1298" y2="5" style="visibility: inherit;" fill="rgb(0, 0, 0)" stroke="rgb(204, 204, 204)" stroke-width="1px"></line><line x1="1416" y1="0" x2="1416" y2="5" style="visibility: inherit;" fill="rgb(0, 0, 0)" stroke="rgb(204, 204, 204)" stroke-width="1px"></line></g><g transform="translate(0, 8)"><text x="0" y="0" dx="0em" dy="0.95em" style="text-anchor: middle; visibility: hidden; font-family: &quot;Helvetica Neue&quot;, sans-serif; font-size: 12px; font-weight: 200;" fill="rgb(50, 49, 63)" stroke="none" stroke-width="1px">-20</text><text x="118" y="0" dx="0em" dy="0.95em" style="text-anchor: middle; visibility: inherit; font-family: &quot;Helvetica Neue&quot;, sans-serif; font-size: 12px; font-weight: 200;" fill="rgb(50, 49, 63)" stroke="none" stroke-width="1px">0</text><text x="236" y="0" dx="0em" dy="0.95em" style="text-anchor: middle; visibility: inherit; font-family: &quot;Helvetica Neue&quot;, sans-serif; font-size: 12px; font-weight: 200;" fill="rgb(50, 49, 63)" stroke="none" stroke-width="1px">20</text><text x="354" y="0" dx="0em" dy="0.95em" style="text-anchor: middle; visibility: inherit; font-family: &quot;Helvetica Neue&quot;, sans-serif; font-size: 12px; font-weight: 200;" fill="rgb(50, 49, 63)" stroke="none" stroke-width="1px">40</text><text x="472" y="0" dx="0em" dy="0.95em" style="text-anchor: middle; visibility: inherit; font-family: &quot;Helvetica Neue&quot;, sans-serif; font-size: 12px; font-weight: 200;" fill="rgb(50, 49, 63)" stroke="none" stroke-width="1px">60</text><text x="590" y="0" dx="0em" dy="0.95em" style="text-anchor: middle; visibility: inherit; font-family: &quot;Helvetica Neue&quot;, sans-serif; font-size: 12px; font-weight: 200;" fill="rgb(50, 49, 63)" stroke="none" stroke-width="1px">80</text><text x="708" y="0" dx="0em" dy="0.95em" style="text-anchor: middle; visibility: inherit; font-family: &quot;Helvetica Neue&quot;, sans-serif; font-size: 12px; font-weight: 200;" fill="rgb(50, 49, 63)" stroke="none" stroke-width="1px">100</text><text x="826" y="0" dx="0em" dy="0.95em" style="text-anchor: middle; visibility: inherit; font-family: &quot;Helvetica Neue&quot;, sans-serif; font-size: 12px; font-weight: 200;" fill="rgb(50, 49, 63)" stroke="none" stroke-width="1px">120</text><text x="944" y="0" dx="0em" dy="0.95em" style="text-anchor: middle; visibility: inherit; font-family: &quot;Helvetica Neue&quot;, sans-serif; font-size: 12px; font-weight: 200;" fill="rgb(50, 49, 63)" stroke="none" stroke-width="1px">140</text><text x="1062" y="0" dx="0em" dy="0.95em" style="text-anchor: middle; visibility: inherit; font-family: &quot;Helvetica Neue&quot;, sans-serif; font-size: 12px; font-weight: 200;" fill="rgb(50, 49, 63)" stroke="none" stroke-width="1px">160</text><text x="1180" y="0" dx="0em" dy="0.95em" style="text-anchor: middle; visibility: inherit; font-family: &quot;Helvetica Neue&quot;, sans-serif; font-size: 12px; font-weight: 200;" fill="rgb(50, 49, 63)" stroke="none" stroke-width="1px">180</text><text x="1298" y="0" dx="0em" dy="0.95em" style="text-anchor: middle; visibility: inherit; font-family: &quot;Helvetica Neue&quot;, sans-serif; font-size: 12px; font-weight: 200;" fill="rgb(50, 49, 63)" stroke="none" stroke-width="1px">200</text><text x="1416" y="0" dx="0em" dy="0.95em" style="text-anchor: middle; visibility: hidden; font-family: &quot;Helvetica Neue&quot;, sans-serif; font-size: 12px; font-weight: 200;" fill="rgb(50, 49, 63)" stroke="none" stroke-width="1px">220</text></g><line x1="0" y1="0" x2="1416" y2="0" fill="rgb(0, 0, 0)" stroke="rgb(204, 204, 204)" stroke-width="1px"></line></g></g></g></g></svg>