<?xml version="1.0" encoding="utf-8" standalone="no"?>
<!DOCTYPE svg PUBLIC "-//W3C//DTD SVG 1.1//EN"
  "http://www.w3.org/Graphics/SVG/1.1/DTD/svg11.dtd">
<!-- Created with matplotlib (https://matplotlib.org/) -->
<svg height="288pt" version="1.1" viewBox="0 0 720 288" width="720pt" xmlns="http://www.w3.org/2000/svg" xmlns:xlink="http://www.w3.org/1999/xlink">
 <defs>
  <style type="text/css">
*{stroke-linecap:butt;stroke-linejoin:round;}
  </style>
 </defs>
 <g id="figure_1">
  <g id="patch_1">
   <path d="M 0 288 
L 720 288 
L 720 0 
L 0 0 
z
" style="fill:#ffffff;"/>
  </g>
  <g id="axes_1">
   <g id="line2d_1">
    <path clip-path="url(#p1aaadbbe2b)" d="M 134.639444 227.071647 
L 132.159671 226.378411 
L 129.05284 225.74788 
L 123.123679 224.632899 
L 118.360469 223.693021 
L 113.190484 222.886578 
L 102.965158 221.610301 
L 89.490236 219.969326 
L 84.587746 219.798695 
L 76.268911 219.79134 
L 65.950481 219.954243 
L 63.096456 220.16699 
L 60.072993 220.610158 
L 56.908312 221.31946 
L 53.134769 222.436154 
L 49.40639 223.833914 
L 47.168666 224.902263 
L 45.441451 226.036329 
L 44.833015 226.662829 
L 44.538979 227.249688 
L 44.573938 227.83692 
L 44.851416 228.255618 
L 45.263704 228.589712 
L 46.137981 229.027076 
L 47.462487 229.441963 
L 49.183049 229.792751 
L 51.937336 230.140716 
L 56.161274 230.413639 
L 62.127578 230.517429 
L 69.383987 230.39296 
L 80.435915 230.146335 
L 92.398456 230.308459 
L 96.557029 230.056003 
L 101.936572 229.441702 
L 107.040487 228.977161 
L 121.682765 227.850076 
L 129.142148 227.345778 
L 132.223625 227.321084 
L 134.298755 227.422056 
L 134.908301 227.304264 
L 134.908301 227.304264 
" style="fill:none;stroke:#000000;stroke-linecap:square;stroke-opacity:0.7;stroke-width:1.2;"/>
   </g>
   <g id="line2d_2">
    <path clip-path="url(#p1aaadbbe2b)" d="M 134.628548 194.67769 
L 132.199792 193.962865 
L 129.107037 193.285096 
L 110.765079 190.119617 
L 96.501211 188.141842 
L 92.496877 187.585789 
L 88.372381 187.254408 
L 83.036406 187.096536 
L 73.98853 187.12488 
L 65.908527 187.308869 
L 62.872592 187.552345 
L 59.947167 188.027964 
L 57.246236 188.700593 
L 53.632909 189.864306 
L 50.170956 191.206993 
L 47.70144 192.359759 
L 46.165167 193.269461 
L 45.268061 194.020842 
L 44.909218 194.535439 
L 44.814587 194.998081 
L 44.923914 195.352375 
L 45.168617 195.652663 
L 45.765563 196.051756 
L 46.672109 196.417745 
L 48.382712 196.847344 
L 51.208711 197.264381 
L 55.185429 197.580184 
L 60.457447 197.746687 
L 66.764105 197.697542 
L 73.034279 197.415596 
L 81.161767 196.978403 
L 95.581077 196.691166 
L 104.656734 196.130778 
L 113.938474 195.871254 
L 123.519418 195.281033 
L 130.195748 194.933196 
L 134.218787 194.913914 
L 134.853717 194.704436 
L 134.853717 194.704436 
" style="fill:none;stroke:#000000;stroke-linecap:square;stroke-opacity:0.7;stroke-width:1.2;"/>
   </g>
   <g id="line2d_3">
    <path clip-path="url(#p1aaadbbe2b)" d="M 134.5578 162.208815 
L 132.181845 161.51418 
L 129.440664 160.92052 
L 110.133822 157.69774 
L 91.857768 155.592885 
L 87.581286 155.401989 
L 81.371687 155.397079 
L 64.643533 155.670684 
L 61.651401 155.971929 
L 58.95887 156.462205 
L 55.269551 157.419485 
L 51.826072 158.563736 
L 49.39879 159.546371 
L 47.152269 160.708478 
L 45.903941 161.678045 
L 45.47083 162.358413 
L 45.459668 162.871671 
L 45.747989 163.331891 
L 46.362813 163.76725 
L 47.156981 164.107824 
L 48.898018 164.571529 
L 51.229842 164.943786 
L 55.097743 165.289943 
L 60.242513 165.496208 
L 67.301165 165.529594 
L 81.845717 165.471012 
L 89.83404 165.826355 
L 94.107571 165.735496 
L 97.364141 165.46247 
L 110.959536 163.905809 
L 128.182505 162.574337 
L 131.349364 162.520668 
L 134.25067 162.638626 
L 134.910739 162.497231 
L 134.910739 162.497231 
" style="fill:none;stroke:#000000;stroke-linecap:square;stroke-opacity:0.7;stroke-width:1.2;"/>
   </g>
   <g id="line2d_4">
    <path clip-path="url(#p1aaadbbe2b)" d="M 134.604468 129.818772 
L 132.15552 129.102027 
L 128.984767 128.417123 
L 120.073096 126.761001 
L 115.055632 125.885976 
L 108.693413 125.012379 
L 96.637551 123.433365 
L 91.839853 122.831265 
L 87.499282 122.534558 
L 81.45673 122.374955 
L 70.600958 122.355607 
L 65.43082 122.508164 
L 62.464231 122.810551 
L 59.664837 123.313174 
L 56.337774 124.156781 
L 52.879564 125.267103 
L 50.097636 126.345837 
L 47.892339 127.386653 
L 46.057105 128.543702 
L 45.420348 129.134201 
L 44.989347 129.837292 
L 44.939377 130.283804 
L 45.065552 130.665792 
L 45.399317 131.064359 
L 46.041393 131.488221 
L 47.076051 131.908903 
L 49.486953 132.475366 
L 52.212678 132.833464 
L 56.181324 133.110692 
L 61.176917 133.240176 
L 68.436516 133.185349 
L 80.106848 133.000916 
L 92.692703 133.286911 
L 96.856732 132.998884 
L 100.997514 132.45485 
L 105.3003 131.923295 
L 113.18179 131.305373 
L 129.234119 130.1461 
L 132.329264 130.11285 
L 134.265068 130.151059 
L 134.930034 129.965494 
L 134.930034 129.965494 
" style="fill:none;stroke:#000000;stroke-linecap:square;stroke-opacity:0.7;stroke-width:1.2;"/>
   </g>
   <g id="line2d_5">
    <path clip-path="url(#p1aaadbbe2b)" d="M 134.649132 97.442324 
L 132.303578 96.690298 
L 128.94013 95.915401 
L 111.868344 92.900131 
L 87.800803 89.732098 
L 82.492303 89.510569 
L 74.264198 89.438938 
L 66.036316 89.528895 
L 63.317763 89.711364 
L 60.266445 90.160306 
L 57.172715 90.909671 
L 54.575335 91.730363 
L 50.921554 93.147072 
L 48.486298 94.310876 
L 46.75287 95.352388 
L 45.756726 96.161002 
L 45.171318 96.927778 
L 45.029467 97.431104 
L 45.09063 97.832034 
L 45.471803 98.358284 
L 46.086714 98.770387 
L 47.109094 99.186597 
L 49.355438 99.716376 
L 52.165917 100.089242 
L 56.426421 100.393624 
L 62.394568 100.573069 
L 70.752915 100.585685 
L 81.244657 100.563585 
L 90.542336 100.677245 
L 94.73747 100.519519 
L 98.921605 100.138199 
L 105.076258 99.488114 
L 131.146766 97.642361 
L 134.908784 97.588812 
L 134.908784 97.588812 
" style="fill:none;stroke:#000000;stroke-linecap:square;stroke-opacity:0.7;stroke-width:1.2;"/>
   </g>
   <g id="line2d_6">
    <path clip-path="url(#p1aaadbbe2b)" d="M 134.591966 64.923913 
L 132.356861 64.246112 
L 129.220983 63.536392 
L 113.37333 60.78342 
L 105.068031 59.729291 
L 97.783428 58.760972 
L 92.780566 58.068684 
L 88.825638 57.752156 
L 83.627913 57.612724 
L 76.662502 57.674813 
L 66.129116 57.970292 
L 62.154425 58.30006 
L 59.299627 58.788285 
L 56.699073 59.433406 
L 52.831877 60.654718 
L 49.654857 61.862965 
L 47.311926 62.94001 
L 45.967597 63.726098 
L 45.09495 64.448291 
L 44.762141 64.932521 
L 44.701213 65.470797 
L 44.867487 65.801898 
L 45.254721 66.150104 
L 46.219952 66.616842 
L 47.418879 66.969783 
L 50.144357 67.457629 
L 53.962938 67.841191 
L 59.303317 68.111966 
L 65.563349 68.1955 
L 71.905071 68.058845 
L 82.057176 67.704949 
L 92.513202 67.695794 
L 96.744634 67.447652 
L 108.081575 66.547643 
L 117.26628 65.949437 
L 128.293105 65.204571 
L 132.193772 65.169708 
L 134.18243 65.254473 
L 134.886889 65.109303 
L 134.886889 65.109303 
" style="fill:none;stroke:#000000;stroke-linecap:square;stroke-opacity:0.7;stroke-width:1.2;"/>
   </g>
   <g id="line2d_7">
    <path clip-path="url(#p1aaadbbe2b)" d="M 242.708193 227.161983 
L 240.355357 226.447983 
L 237.341082 225.759437 
L 220.37552 222.669906 
L 211.444893 221.519298 
L 204.433024 220.521695 
L 199.93634 219.907606 
L 196.184507 219.602001 
L 191.248651 219.427403 
L 183.120997 219.405315 
L 173.781893 219.566017 
L 170.596357 219.829534 
L 167.609711 220.344975 
L 164.986112 221.024403 
L 161.268833 222.271673 
L 157.798866 223.715356 
L 155.257143 225.057188 
L 154.412686 225.62875 
L 153.501647 226.47117 
L 153.123587 227.222752 
L 153.176209 227.719614 
L 153.539538 228.203248 
L 154.181346 228.617663 
L 155.162512 229.003354 
L 156.572147 229.363741 
L 159.439744 229.807395 
L 163.480132 230.144281 
L 168.665692 230.346681 
L 175.693914 230.390826 
L 183.242792 230.200745 
L 190.44405 230.047752 
L 199.939111 229.963513 
L 204.126361 229.722814 
L 215.842673 228.811728 
L 224.139729 228.304303 
L 237.355813 227.426387 
L 240.346211 227.404815 
L 242.411331 227.442279 
L 243.019936 227.272189 
L 243.019936 227.272189 
" style="fill:none;stroke:#000000;stroke-linecap:square;stroke-opacity:0.7;stroke-width:1.2;"/>
   </g>
   <g id="line2d_8">
    <path clip-path="url(#p1aaadbbe2b)" d="M 242.666015 194.735982 
L 240.392965 194.014211 
L 237.280683 193.264809 
L 220.067805 190.01844 
L 212.926304 189.068529 
L 203.214186 187.796034 
L 198.93156 187.25493 
L 194.963118 186.970326 
L 190.714891 186.867435 
L 184.447114 186.94944 
L 174.491721 187.352512 
L 170.608984 187.652396 
L 167.649565 188.06296 
L 164.688549 188.67179 
L 161.148479 189.656611 
L 158.308692 190.681223 
L 156.198492 191.652036 
L 154.833819 192.464092 
L 153.631032 193.520581 
L 153.24846 194.199743 
L 153.204014 194.702051 
L 153.467839 195.280408 
L 153.810624 195.61054 
L 154.643783 196.087633 
L 155.939471 196.528797 
L 157.574919 196.876379 
L 160.094397 197.196711 
L 164.358558 197.449897 
L 170.484836 197.528437 
L 199.616793 197.340018 
L 204.861022 197.013025 
L 212.285122 196.429898 
L 221.440103 196.024548 
L 239.477186 194.999589 
L 242.386526 195.06889 
L 243.034141 194.875093 
L 243.034141 194.875093 
" style="fill:none;stroke:#000000;stroke-linecap:square;stroke-opacity:0.7;stroke-width:1.2;"/>
   </g>
   <g id="line2d_9">
    <path clip-path="url(#p1aaadbbe2b)" d="M 242.674602 162.278934 
L 240.464201 161.581162 
L 237.312271 160.87326 
L 226.444228 158.913581 
L 221.223618 158.069055 
L 214.267712 157.21389 
L 206.052214 156.213454 
L 200.188183 155.477754 
L 196.060755 155.240606 
L 190.213417 155.19737 
L 173.89642 155.483951 
L 170.868496 155.722805 
L 167.928267 156.197027 
L 164.96097 156.902495 
L 161.080182 158.099834 
L 157.597056 159.453109 
L 155.568085 160.453473 
L 154.07522 161.468148 
L 153.551702 162.039114 
L 153.328931 162.556845 
L 153.371385 162.989876 
L 153.540742 163.276452 
L 153.96045 163.642369 
L 154.696879 164.018053 
L 156.180954 164.470645 
L 158.537223 164.886995 
L 161.165653 165.160247 
L 166.368348 165.418102 
L 172.599836 165.461064 
L 179.883782 165.277413 
L 190.328026 164.921898 
L 200.734096 164.91833 
L 205.248293 164.615734 
L 213.436198 163.93462 
L 223.985925 163.411287 
L 238.414295 162.528134 
L 243.005791 162.389001 
L 243.005791 162.389001 
" style="fill:none;stroke:#000000;stroke-linecap:square;stroke-opacity:0.7;stroke-width:1.2;"/>
   </g>
   <g id="line2d_10">
    <path clip-path="url(#p1aaadbbe2b)" d="M 242.739255 129.80694 
L 240.443665 129.117144 
L 237.572986 128.467599 
L 221.351021 125.651693 
L 212.99515 124.615771 
L 205.918924 123.674027 
L 199.939615 122.858944 
L 195.553217 122.557046 
L 189.699296 122.422866 
L 178.288602 122.454739 
L 173.240394 122.627546 
L 170.404823 122.935642 
L 167.628137 123.459178 
L 163.850279 124.475154 
L 160.031169 125.784323 
L 157.694398 126.747324 
L 155.38695 127.925912 
L 154.004106 128.927899 
L 153.474544 129.566459 
L 153.293538 130.136161 
L 153.360662 130.517618 
L 153.761519 131.03951 
L 154.449329 131.473267 
L 155.490815 131.874295 
L 157.854938 132.403136 
L 160.453465 132.727821 
L 164.343642 132.977211 
L 169.539273 133.065444 
L 175.369197 132.953102 
L 182.960332 132.562857 
L 189.301433 132.247823 
L 202.499572 131.963133 
L 213.204289 131.255153 
L 222.619926 131.020927 
L 232.283266 130.467515 
L 238.45295 130.182119 
L 242.367617 130.159515 
L 243.003557 129.909598 
L 243.003557 129.909598 
" style="fill:none;stroke:#000000;stroke-linecap:square;stroke-opacity:0.7;stroke-width:1.2;"/>
   </g>
   <g id="line2d_11">
    <path clip-path="url(#p1aaadbbe2b)" d="M 242.683329 97.353903 
L 240.265196 96.606384 
L 237.19245 95.886738 
L 221.824839 93.039747 
L 216.015439 92.239188 
L 196.909281 89.935307 
L 191.774002 89.779162 
L 184.802976 89.854843 
L 174.454473 90.222133 
L 170.407914 90.563029 
L 167.529973 91.023163 
L 164.489639 91.734586 
L 160.936424 92.820263 
L 158.492933 93.732625 
L 156.115534 94.817886 
L 154.750057 95.617484 
L 153.654098 96.541429 
L 153.241331 97.297383 
L 153.238758 97.644888 
L 153.429228 98.056967 
L 153.871253 98.459351 
L 154.681587 98.872538 
L 156.023791 99.28443 
L 157.67316 99.604798 
L 160.181613 99.909622 
L 164.493215 100.184857 
L 170.473573 100.324202 
L 179.853845 100.294325 
L 191.373381 100.237443 
L 199.786429 100.242154 
L 203.957735 100.043397 
L 209.433781 99.508109 
L 214.3286 99.155108 
L 224.600626 98.474866 
L 236.238698 97.641181 
L 240.344036 97.592555 
L 242.366914 97.670669 
L 243.021043 97.525315 
L 243.021043 97.525315 
" style="fill:none;stroke:#000000;stroke-linecap:square;stroke-opacity:0.7;stroke-width:1.2;"/>
   </g>
   <g id="line2d_12">
    <path clip-path="url(#p1aaadbbe2b)" d="M 242.685117 65.000069 
L 240.293427 64.24559 
L 237.443638 63.633532 
L 230.065808 62.361036 
L 224.009968 61.174388 
L 218.099151 60.307128 
L 198.582859 57.966474 
L 194.680173 57.814637 
L 188.533094 57.842959 
L 172.436435 58.237877 
L 169.363788 58.61454 
L 166.341267 59.236085 
L 163.372729 60.047079 
L 160.195376 61.106167 
L 156.969328 62.43205 
L 154.947003 63.527742 
L 154.076726 64.187365 
L 153.565718 64.800207 
L 153.417069 65.251001 
L 153.505658 65.694523 
L 153.873522 66.125392 
L 154.424466 66.469365 
L 155.511507 66.886718 
L 157.157261 67.279671 
L 159.770708 67.66007 
L 163.672094 67.969945 
L 168.708061 68.132866 
L 174.798004 68.109913 
L 182.275193 67.836364 
L 189.351242 67.587723 
L 202.664578 67.620821 
L 206.652764 67.276011 
L 212.085891 66.765868 
L 233.026305 65.526339 
L 238.176575 65.255838 
L 242.993799 65.082819 
L 242.993799 65.082819 
" style="fill:none;stroke:#000000;stroke-linecap:square;stroke-opacity:0.7;stroke-width:1.2;"/>
   </g>
   <g id="line2d_13">
    <path clip-path="url(#p1aaadbbe2b)" d="M 350.843029 227.13115 
L 348.481664 226.423457 
L 345.548599 225.760732 
L 331.848231 223.34376 
L 324.381362 222.385623 
L 314.393117 221.135654 
L 309.024996 220.383011 
L 305.087685 220.057732 
L 299.919704 219.882353 
L 291.811825 219.878991 
L 282.713314 220.078655 
L 279.828644 220.300066 
L 276.619553 220.779067 
L 273.759014 221.428197 
L 269.859551 222.581049 
L 266.25539 223.907244 
L 264.033014 224.926538 
L 262.441758 225.896527 
L 261.68374 226.608372 
L 261.388967 227.207697 
L 261.422144 227.64373 
L 261.609945 227.963556 
L 262.014826 228.31678 
L 262.738929 228.694627 
L 264.068435 229.123387 
L 266.567123 229.594754 
L 270.25521 229.967078 
L 275.02853 230.181884 
L 281.346839 230.205953 
L 288.541457 229.982778 
L 296.397567 229.717107 
L 304.431604 229.834926 
L 309.813344 229.739761 
L 314.035554 229.440827 
L 320.615666 228.890015 
L 336.006111 228.066728 
L 345.176054 227.502468 
L 349.279947 227.482288 
L 350.430631 227.498482 
L 351.138081 227.282835 
L 351.138081 227.282835 
" style="fill:none;stroke:#000000;stroke-linecap:square;stroke-opacity:0.7;stroke-width:1.2;"/>
   </g>
   <g id="line2d_14">
    <path clip-path="url(#p1aaadbbe2b)" d="M 350.821515 194.726908 
L 348.477937 193.966037 
L 345.544437 193.296048 
L 327.15768 190.25877 
L 311.899558 188.25446 
L 307.953518 187.746845 
L 303.816421 187.466653 
L 298.945959 187.361197 
L 288.577226 187.427203 
L 281.685246 187.564169 
L 278.72162 187.829144 
L 275.892979 188.310644 
L 272.926587 189.035978 
L 269.087849 190.246017 
L 265.754664 191.564413 
L 263.582045 192.661317 
L 262.477542 193.394844 
L 261.79805 194.025285 
L 261.447995 194.585503 
L 261.379061 195.048398 
L 261.625441 195.598727 
L 262.057669 195.974278 
L 262.797474 196.358152 
L 264.090368 196.776104 
L 266.476083 197.231518 
L 270.256929 197.6113 
L 275.129294 197.81947 
L 281.333755 197.839027 
L 288.516714 197.625238 
L 298.474136 197.272884 
L 308.692674 197.250663 
L 312.870715 196.989871 
L 320.873073 196.348936 
L 333.821095 195.748972 
L 346.429573 195.025673 
L 350.55565 195.017131 
L 351.107707 194.801036 
L 351.107707 194.801036 
" style="fill:none;stroke:#000000;stroke-linecap:square;stroke-opacity:0.7;stroke-width:1.2;"/>
   </g>
   <g id="line2d_15">
    <path clip-path="url(#p1aaadbbe2b)" d="M 350.836574 162.224203 
L 348.491218 161.512598 
L 345.347735 160.804643 
L 331.315819 158.304288 
L 324.127365 157.394654 
L 315.94781 156.352951 
L 308.150075 155.2726 
L 303.925112 155.020539 
L 297.89945 154.959416 
L 284.55616 155.171384 
L 280.649925 155.360061 
L 277.673598 155.716529 
L 274.667724 156.31673 
L 270.883127 157.359328 
L 267.35819 158.587153 
L 265.207001 159.498354 
L 263.039745 160.671652 
L 262.093504 161.400938 
L 261.579721 162.029254 
L 261.413521 162.513332 
L 261.46016 162.920213 
L 261.797768 163.413422 
L 262.372853 163.821147 
L 263.501842 164.293567 
L 265.142908 164.715758 
L 267.515958 165.09641 
L 271.255758 165.438598 
L 276.588303 165.65671 
L 282.805259 165.692696 
L 292.552539 165.487064 
L 297.61293 165.46973 
L 308.896475 165.695544 
L 312.949265 165.461581 
L 317.12628 164.975147 
L 322.431321 164.361656 
L 342.138494 162.698696 
L 346.37427 162.490958 
L 349.547101 162.555678 
L 350.503242 162.614799 
L 351.155754 162.498839 
L 351.155754 162.498839 
" style="fill:none;stroke:#000000;stroke-linecap:square;stroke-opacity:0.7;stroke-width:1.2;"/>
   </g>
   <g id="line2d_16">
    <path clip-path="url(#p1aaadbbe2b)" d="M 350.844006 129.871813 
L 348.341565 129.084357 
L 345.263927 128.36327 
L 331.082035 125.748102 
L 323.982465 124.74852 
L 313.854067 123.341771 
L 307.820191 122.474384 
L 303.877725 122.169713 
L 298.789953 122.016526 
L 290.618056 122.038542 
L 282.460355 122.252201 
L 279.264418 122.516031 
L 276.531136 122.954353 
L 273.890826 123.59554 
L 271.000163 124.497152 
L 267.556129 125.786967 
L 264.391732 127.230363 
L 262.414269 128.427216 
L 261.646125 129.104102 
L 261.282756 129.622314 
L 261.165273 130.131047 
L 261.259259 130.489855 
L 261.518227 130.832259 
L 262.098884 131.240035 
L 262.949849 131.605347 
L 264.520846 132.033222 
L 267.387954 132.495041 
L 271.440157 132.853608 
L 276.238488 133.066247 
L 283.650536 133.142853 
L 292.253851 132.971062 
L 298.126901 132.937255 
L 308.667359 132.999928 
L 312.875972 132.770548 
L 317.170697 132.301247 
L 322.052611 131.820714 
L 347.519992 130.030212 
L 350.504402 130.118185 
L 351.138693 129.977796 
L 351.138693 129.977796 
" style="fill:none;stroke:#000000;stroke-linecap:square;stroke-opacity:0.7;stroke-width:1.2;"/>
   </g>
   <g id="line2d_17">
    <path clip-path="url(#p1aaadbbe2b)" d="M 350.872791 97.420954 
L 348.601453 96.696649 
L 345.379613 95.965235 
L 335.653721 94.142695 
L 330.415813 93.255968 
L 323.566378 92.352039 
L 313.244881 91.04128 
L 307.496918 90.305245 
L 303.052239 90.022013 
L 297.646532 89.916086 
L 286.608679 89.99358 
L 280.412701 90.187435 
L 277.340163 90.533208 
L 274.118342 91.208536 
L 270.751531 92.210128 
L 267.379784 93.456959 
L 264.21471 94.905192 
L 262.31263 96.069642 
L 261.451398 96.866362 
L 261.101707 97.556754 
L 261.161942 98.065489 
L 261.543445 98.535871 
L 261.804809 98.72146 
L 263.059588 99.262411 
L 264.833741 99.691834 
L 267.363226 100.062532 
L 271.427384 100.403601 
L 277.528452 100.650265 
L 285.900413 100.731926 
L 297.255588 100.759379 
L 307.76281 101.023168 
L 312.206012 100.858393 
L 315.466641 100.543673 
L 324.610865 99.438326 
L 342.228531 97.785039 
L 346.578146 97.587118 
L 349.503634 97.679081 
L 350.453997 97.744559 
L 351.14822 97.647009 
L 351.14822 97.647009 
" style="fill:none;stroke:#000000;stroke-linecap:square;stroke-opacity:0.7;stroke-width:1.2;"/>
   </g>
   <g id="line2d_18">
    <path clip-path="url(#p1aaadbbe2b)" d="M 350.794063 65.004569 
L 348.580697 64.255117 
L 345.610684 63.597764 
L 337.565606 62.303484 
L 331.649725 61.199276 
L 326.636932 60.482017 
L 309.460099 58.267719 
L 305.43419 57.863496 
L 301.26402 57.691565 
L 294.355413 57.688709 
L 280.942315 57.924789 
L 277.903229 58.310779 
L 275.264254 58.849384 
L 271.426573 59.902013 
L 268.228405 60.987017 
L 265.094901 62.279322 
L 263.093491 63.346179 
L 261.922805 64.260322 
L 261.52021 64.851212 
L 261.450979 65.266098 
L 261.681933 65.789218 
L 262.187632 66.20382 
L 262.968228 66.577764 
L 264.2333 66.967765 
L 266.666868 67.43045 
L 270.358922 67.827235 
L 275.807769 68.09974 
L 281.658988 68.151442 
L 287.859908 67.999265 
L 299.587263 67.577746 
L 308.904273 67.650932 
L 313.322632 67.395972 
L 322.851925 66.637741 
L 333.370134 66.058596 
L 346.592903 65.248391 
L 351.132039 65.111504 
L 351.132039 65.111504 
" style="fill:none;stroke:#000000;stroke-linecap:square;stroke-opacity:0.7;stroke-width:1.2;"/>
   </g>
   <g id="line2d_19">
    <path clip-path="url(#p1aaadbbe2b)" d="M 458.927298 227.105885 
L 456.597575 226.431253 
L 453.648511 225.793827 
L 445.694163 224.310084 
L 440.712481 223.344966 
L 434.734509 222.432165 
L 415.318861 219.950378 
L 411.172534 219.733695 
L 405.436294 219.678805 
L 394.656154 219.872348 
L 388.362559 220.149476 
L 385.36842 220.518983 
L 382.628903 221.095544 
L 379.25567 222.070127 
L 375.613533 223.363733 
L 372.30477 224.800679 
L 370.504566 225.825781 
L 369.544954 226.630236 
L 369.206732 227.155404 
L 369.151844 227.610055 
L 369.32287 227.996572 
L 369.634872 228.303155 
L 370.608515 228.814381 
L 371.847856 229.197576 
L 374.571772 229.705711 
L 378.55611 230.12375 
L 384.040423 230.423242 
L 390.214657 230.544505 
L 397.339634 230.457652 
L 405.417554 230.300827 
L 416.791964 230.381861 
L 421.39949 230.115402 
L 426.312616 229.551984 
L 431.416461 229.077304 
L 454.421237 227.352571 
L 457.39473 227.407135 
L 458.533594 227.458126 
L 459.258868 227.329972 
L 459.258868 227.329972 
" style="fill:none;stroke:#000000;stroke-linecap:square;stroke-opacity:0.7;stroke-width:1.2;"/>
   </g>
   <g id="line2d_20">
    <path clip-path="url(#p1aaadbbe2b)" d="M 458.96011 194.691566 
L 456.554092 193.954452 
L 453.37589 193.228888 
L 438.164446 190.528688 
L 430.394846 189.528485 
L 422.214458 188.450806 
L 416.005941 187.588235 
L 411.996774 187.278709 
L 405.764261 187.074213 
L 394.550542 186.996791 
L 389.300045 187.123116 
L 386.360182 187.425091 
L 383.644627 187.957746 
L 380.765284 188.770133 
L 377.316946 189.984108 
L 373.711845 191.498894 
L 371.31827 192.735597 
L 369.843743 193.766083 
L 369.297634 194.356555 
L 369.080246 194.79022 
L 369.052945 195.197192 
L 369.191342 195.537461 
L 369.560054 195.916371 
L 370.3432 196.350571 
L 371.732652 196.802772 
L 374.375326 197.302778 
L 377.450257 197.644973 
L 382.305023 197.941473 
L 388.570082 198.074354 
L 395.046332 197.995706 
L 406.300883 197.773256 
L 415.808273 197.880634 
L 419.719084 197.691131 
L 424.042417 197.246235 
L 429.237282 196.700318 
L 455.389461 194.994677 
L 458.583059 195.0286 
L 459.25585 194.841329 
L 459.25585 194.841329 
" style="fill:none;stroke:#000000;stroke-linecap:square;stroke-opacity:0.7;stroke-width:1.2;"/>
   </g>
   <g id="line2d_21">
    <path clip-path="url(#p1aaadbbe2b)" d="M 458.972112 162.255994 
L 456.575884 161.530102 
L 453.611118 160.922633 
L 447.532025 159.903933 
L 440.45277 158.553689 
L 434.217021 157.658846 
L 413.892025 155.245036 
L 408.747844 155.099293 
L 400.705971 155.153683 
L 388.811351 155.392932 
L 385.7985 155.723831 
L 382.681335 156.330343 
L 379.058733 157.318772 
L 375.693043 158.481742 
L 373.089787 159.599808 
L 371.860696 160.250378 
L 370.618457 161.097979 
L 370.025181 161.700505 
L 369.736853 162.255444 
L 369.712053 162.649711 
L 369.950028 163.15687 
L 370.400753 163.553704 
L 371.189348 163.96463 
L 373.055335 164.52922 
L 375.869183 165.005578 
L 379.875742 165.374602 
L 385.539397 165.607265 
L 391.827522 165.639929 
L 400.320637 165.430114 
L 405.609498 165.350306 
L 417.974606 165.479597 
L 422.219968 165.175301 
L 433.654272 164.039523 
L 454.672602 162.554927 
L 459.253347 162.48364 
L 459.253347 162.48364 
" style="fill:none;stroke:#000000;stroke-linecap:square;stroke-opacity:0.7;stroke-width:1.2;"/>
   </g>
   <g id="line2d_22">
    <path clip-path="url(#p1aaadbbe2b)" d="M 458.955685 129.895007 
L 456.620388 129.146971 
L 453.513841 128.398439 
L 439.598486 125.785016 
L 432.650459 124.798618 
L 421.263945 123.253759 
L 415.096795 122.347891 
L 411.177899 122.024042 
L 405.853471 121.834321 
L 397.892405 121.807273 
L 389.873795 121.939461 
L 386.79411 122.178362 
L 383.531382 122.709648 
L 380.584207 123.441499 
L 377.793216 124.328416 
L 375.20027 125.328143 
L 372.637414 126.55139 
L 370.952558 127.606178 
L 370.055263 128.387404 
L 369.465977 129.29986 
L 369.432663 129.962222 
L 369.591049 130.315533 
L 369.938053 130.698129 
L 370.585796 131.115476 
L 371.577417 131.516743 
L 373.007862 131.892093 
L 375.50661 132.291441 
L 379.340255 132.614102 
L 384.687893 132.802728 
L 394.018426 132.864183 
L 418.022751 132.728599 
L 422.068355 132.398108 
L 428.309082 131.800144 
L 442.17596 130.912162 
L 452.418541 130.194768 
L 456.691474 130.136718 
L 458.589536 130.193643 
L 459.266037 130.020782 
L 459.266037 130.020782 
" style="fill:none;stroke:#000000;stroke-linecap:square;stroke-opacity:0.7;stroke-width:1.2;"/>
   </g>
   <g id="line2d_23">
    <path clip-path="url(#p1aaadbbe2b)" d="M 458.957113 97.382623 
L 456.603718 96.633871 
L 453.64392 95.993067 
L 444.671318 94.40538 
L 439.351997 93.537681 
L 432.397391 92.640101 
L 423.304088 91.475197 
L 417.096361 90.636356 
L 413.112106 90.3883 
L 407.89715 90.339443 
L 392.864259 90.615924 
L 388.75782 90.774452 
L 385.909794 91.091092 
L 382.879833 91.674296 
L 379.154484 92.683157 
L 375.554779 93.924697 
L 372.602037 95.211141 
L 371.178702 96.010306 
L 370.166137 96.775217 
L 369.576072 97.537265 
L 369.471905 97.983845 
L 369.539881 98.322968 
L 369.862321 98.764322 
L 370.320913 99.094476 
L 371.441191 99.572086 
L 373.22783 100.011807 
L 375.863596 100.38021 
L 379.644742 100.639734 
L 384.908076 100.728274 
L 391.058173 100.59284 
L 398.291006 100.204403 
L 405.963873 99.784779 
L 413.205825 99.805191 
L 418.478298 99.655876 
L 424.378675 99.2099 
L 428.616578 98.974701 
L 439.657092 98.561968 
L 456.268668 97.635931 
L 458.634861 97.686581 
L 459.235496 97.525925 
L 459.235496 97.525925 
" style="fill:none;stroke:#000000;stroke-linecap:square;stroke-opacity:0.7;stroke-width:1.2;"/>
   </g>
   <g id="line2d_24">
    <path clip-path="url(#p1aaadbbe2b)" d="M 458.944166 64.953436 
L 456.745165 64.2453 
L 453.758285 63.561307 
L 436.611176 60.688635 
L 414.348644 57.949524 
L 409.37669 57.772295 
L 400.475346 57.782745 
L 389.080618 57.912615 
L 386.154569 58.249744 
L 383.140852 58.857958 
L 380.354708 59.613335 
L 376.685273 60.842453 
L 374.088787 61.894627 
L 371.80592 63.042853 
L 370.703805 63.774498 
L 370.01544 64.418393 
L 369.675985 64.994608 
L 369.630318 65.40666 
L 369.768615 65.789798 
L 370.06279 66.124565 
L 370.592687 66.478447 
L 371.610461 66.900008 
L 373.162798 67.305129 
L 375.755305 67.72063 
L 379.80866 68.077137 
L 384.742425 68.271245 
L 390.644397 68.299486 
L 397.98077 68.104941 
L 406.599934 67.828357 
L 418.019233 67.778191 
L 422.436609 67.44757 
L 429.911786 66.769788 
L 443.323551 65.931758 
L 453.344883 65.257733 
L 456.411619 65.222302 
L 458.645327 65.315544 
L 459.255205 65.157695 
L 459.255205 65.157695 
" style="fill:none;stroke:#000000;stroke-linecap:square;stroke-opacity:0.7;stroke-width:1.2;"/>
   </g>
   <g id="line2d_25">
    <path clip-path="url(#p1aaadbbe2b)" d="M 567.068572 227.102974 
L 564.815278 226.435976 
L 561.647109 225.727005 
L 552.665329 223.978448 
L 547.53959 223.065039 
L 541.366055 222.220535 
L 523.305477 220.102256 
L 519.233827 219.912333 
L 513.529698 219.883493 
L 503.00555 220.096811 
L 496.98718 220.36616 
L 493.809607 220.740988 
L 491.148989 221.264611 
L 487.208604 222.328786 
L 483.140308 223.697069 
L 480.394095 224.817339 
L 478.241805 225.961487 
L 477.459023 226.564047 
L 477.014059 227.13161 
L 476.916102 227.465112 
L 477.052866 227.962307 
L 477.510402 228.385911 
L 478.19579 228.732183 
L 479.494045 229.136727 
L 481.151396 229.467684 
L 484.116555 229.836337 
L 488.353192 230.124982 
L 494.447082 230.28609 
L 501.846926 230.224272 
L 514.833842 229.9879 
L 523.029935 230.125073 
L 527.004861 229.967199 
L 531.478051 229.535038 
L 536.298819 229.031024 
L 560.38627 227.480131 
L 564.62682 227.406358 
L 566.69122 227.458688 
L 567.368646 227.266847 
L 567.368646 227.266847 
" style="fill:none;stroke:#000000;stroke-linecap:square;stroke-opacity:0.7;stroke-width:1.2;"/>
   </g>
   <g id="line2d_26">
    <path clip-path="url(#p1aaadbbe2b)" d="M 567.110041 194.630369 
L 564.73052 193.954854 
L 561.685157 193.322509 
L 555.679716 192.219915 
L 549.606272 191.047764 
L 543.82055 190.17955 
L 523.326754 187.537256 
L 519.323011 187.316664 
L 513.322065 187.236623 
L 502.967058 187.378162 
L 497.827486 187.576042 
L 494.704493 187.891538 
L 491.898172 188.412311 
L 488.312406 189.381098 
L 484.896674 190.531361 
L 481.542448 191.891027 
L 479.421537 192.987659 
L 478.312007 193.781176 
L 477.76621 194.40518 
L 477.591584 195.030499 
L 477.689731 195.363569 
L 478.148681 195.857307 
L 478.900536 196.268167 
L 480.20489 196.700844 
L 481.987047 197.077144 
L 485.160111 197.484453 
L 489.106034 197.760423 
L 494.32521 197.909661 
L 500.542427 197.874243 
L 517.227197 197.569428 
L 523.538594 197.633306 
L 527.540367 197.486299 
L 531.719626 197.1292 
L 537.614928 196.593807 
L 552.334849 195.622511 
L 561.597176 194.984201 
L 564.699447 194.943258 
L 566.721138 195.005417 
L 567.386915 194.839133 
L 567.386915 194.839133 
" style="fill:none;stroke:#000000;stroke-linecap:square;stroke-opacity:0.7;stroke-width:1.2;"/>
   </g>
   <g id="line2d_27">
    <path clip-path="url(#p1aaadbbe2b)" d="M 567.101728 162.237652 
L 564.751705 161.566293 
L 561.848418 160.953134 
L 553.849991 159.505276 
L 548.626051 158.533188 
L 543.303271 157.769604 
L 524.145385 155.444807 
L 519.853839 155.225114 
L 514.120326 155.197506 
L 499.855304 155.478217 
L 495.653297 155.750619 
L 492.807113 156.172733 
L 489.975049 156.800874 
L 486.375802 157.840923 
L 482.885675 159.098653 
L 480.461787 160.199657 
L 478.848494 161.191072 
L 478.155688 161.834578 
L 477.839336 162.375403 
L 477.796651 162.800335 
L 477.950514 163.191188 
L 478.435673 163.658147 
L 479.099928 164.019452 
L 480.698572 164.54183 
L 483.307833 165.025663 
L 487.013927 165.401267 
L 492.108143 165.636965 
L 498.240406 165.676732 
L 505.547481 165.478656 
L 513.60751 165.215424 
L 526.301997 165.259859 
L 530.45085 164.93899 
L 538.538273 164.177365 
L 551.044775 163.27928 
L 560.401688 162.584265 
L 563.577747 162.489888 
L 566.791236 162.582477 
L 567.371019 162.423381 
L 567.371019 162.423381 
" style="fill:none;stroke:#000000;stroke-linecap:square;stroke-opacity:0.7;stroke-width:1.2;"/>
   </g>
   <g id="line2d_28">
    <path clip-path="url(#p1aaadbbe2b)" d="M 567.04084 129.813625 
L 565.794415 129.397609 
L 563.758236 128.88059 
L 560.862907 128.423392 
L 557.034733 127.912353 
L 552.669883 126.98161 
L 547.773437 125.986673 
L 542.929792 125.240616 
L 536.608113 124.548477 
L 529.408167 123.812312 
L 521.576009 122.855375 
L 516.594106 122.614249 
L 509.218542 122.552151 
L 499.077076 122.592499 
L 495.994987 122.844983 
L 493.092175 123.334551 
L 489.390628 124.260257 
L 485.317184 125.570406 
L 482.35473 126.71953 
L 480.343361 127.65932 
L 478.805671 128.593354 
L 478.110252 129.226249 
L 477.813351 129.752927 
L 477.785846 130.04602 
L 478.03856 130.564823 
L 478.758558 131.069343 
L 479.872046 131.498132 
L 482.118976 132.015982 
L 485.900791 132.519677 
L 490.254086 132.854098 
L 495.939571 133.071619 
L 502.386163 133.084887 
L 508.659845 132.874886 
L 513.831613 132.70439 
L 527.699869 132.621269 
L 531.719562 132.223746 
L 536.444245 131.776243 
L 564.822206 130.241684 
L 566.7224 130.253441 
L 567.355923 130.015399 
L 567.355923 130.015399 
" style="fill:none;stroke:#000000;stroke-linecap:square;stroke-opacity:0.7;stroke-width:1.2;"/>
   </g>
   <g id="line2d_29">
    <path clip-path="url(#p1aaadbbe2b)" d="M 567.056881 97.376445 
L 564.780839 96.688614 
L 561.679416 96.034491 
L 554.645513 94.805008 
L 548.624042 93.686013 
L 542.501965 92.821096 
L 528.163569 90.954699 
L 524.222104 90.499006 
L 520.31695 90.273919 
L 514.349351 90.193404 
L 497.85943 90.304395 
L 494.90099 90.572327 
L 491.892709 91.109396 
L 489.030442 91.838545 
L 485.392588 93.009621 
L 482.071221 94.333045 
L 479.792099 95.491467 
L 478.427971 96.461761 
L 477.865987 97.118245 
L 477.684836 97.621091 
L 477.733437 98.031159 
L 478.091762 98.532849 
L 478.676967 98.932824 
L 479.792806 99.391789 
L 481.411551 99.810836 
L 484.156017 100.251652 
L 487.88182 100.599386 
L 492.863491 100.834735 
L 499.05629 100.908737 
L 506.417236 100.767861 
L 513.828627 100.601585 
L 526.104463 100.686288 
L 530.200763 100.375021 
L 540.520509 99.331082 
L 553.123514 98.3061 
L 561.304444 97.693558 
L 564.589169 97.641541 
L 566.73683 97.761667 
L 567.373694 97.650396 
L 567.373694 97.650396 
" style="fill:none;stroke:#000000;stroke-linecap:square;stroke-opacity:0.7;stroke-width:1.2;"/>
   </g>
   <g id="line2d_30">
    <path clip-path="url(#p1aaadbbe2b)" d="M 567.11387 64.952902 
L 564.703942 64.215237 
L 561.62806 63.533835 
L 543.752799 60.468411 
L 521.483426 57.709177 
L 516.386616 57.500515 
L 508.125822 57.462536 
L 499.007295 57.599937 
L 495.67121 57.824396 
L 492.867253 58.24019 
L 490.05512 58.910181 
L 487.352315 59.746775 
L 483.652448 61.122855 
L 480.661787 62.469593 
L 478.736147 63.592045 
L 477.876572 64.30924 
L 477.473493 64.873178 
L 477.372246 65.272482 
L 477.446755 65.642062 
L 477.657046 65.948287 
L 478.157665 66.332623 
L 479.25649 66.806811 
L 480.928668 67.237198 
L 483.492055 67.643352 
L 487.592252 68.017104 
L 492.511445 68.244077 
L 498.836094 68.327608 
L 507.325126 68.190841 
L 512.493626 68.170613 
L 525.114758 68.32509 
L 529.521023 68.047583 
L 545.201226 66.538132 
L 562.735734 65.221483 
L 565.584819 65.247258 
L 566.67642 65.289603 
L 567.399621 65.133782 
L 567.399621 65.133782 
" style="fill:none;stroke:#000000;stroke-linecap:square;stroke-opacity:0.7;stroke-width:1.2;"/>
   </g>
   <g id="line2d_31">
    <path clip-path="url(#p1aaadbbe2b)" d="M 675.184241 227.167943 
L 672.776955 226.419383 
L 669.669094 225.680721 
L 654.552209 222.872516 
L 647.643041 221.933604 
L 637.407855 220.546986 
L 632.364887 219.839003 
L 628.346035 219.519077 
L 622.959682 219.373839 
L 614.722061 219.44256 
L 605.801695 219.676375 
L 602.980513 219.908807 
L 599.851686 220.415296 
L 597.098152 221.090397 
L 593.462415 222.25585 
L 590.611187 223.390479 
L 588.425217 224.462461 
L 587.009231 225.358311 
L 586.067256 226.231354 
L 585.734196 226.838769 
L 585.695473 227.223057 
L 585.844133 227.645394 
L 586.297837 228.107771 
L 587.13477 228.55725 
L 588.496086 228.992443 
L 590.830066 229.436516 
L 594.455847 229.821031 
L 599.747682 230.100658 
L 607.26855 230.253078 
L 617.841201 230.223827 
L 625.824014 230.319163 
L 632.185698 230.302774 
L 636.173127 230.102609 
L 641.232586 229.575152 
L 645.456499 229.187335 
L 661.147534 227.993599 
L 668.563955 227.470775 
L 671.791638 227.390272 
L 674.857729 227.488054 
L 675.484212 227.335634 
L 675.484212 227.335634 
" style="fill:none;stroke:#000000;stroke-linecap:square;stroke-opacity:0.7;stroke-width:1.2;"/>
   </g>
   <g id="line2d_32">
    <path clip-path="url(#p1aaadbbe2b)" d="M 675.164521 194.684679 
L 672.872594 193.94809 
L 669.952681 193.309422 
L 660.781095 191.74188 
L 655.729819 190.873271 
L 649.622951 190.065617 
L 638.405444 188.669081 
L 633.494772 187.93759 
L 630.198444 187.652251 
L 626.360309 187.524168 
L 620.227676 187.567056 
L 605.096594 187.930731 
L 601.987489 188.297652 
L 599.303774 188.823051 
L 596.299879 189.606681 
L 592.740488 190.767184 
L 589.488415 192.094897 
L 587.478166 193.171405 
L 586.419008 193.976477 
L 585.977057 194.513813 
L 585.801828 195.018102 
L 585.912621 195.516241 
L 586.220454 195.881925 
L 586.833981 196.277905 
L 587.852885 196.677906 
L 589.548035 197.093395 
L 592.084795 197.47226 
L 595.878023 197.789307 
L 600.987665 197.977189 
L 607.190457 197.99093 
L 615.551081 197.755245 
L 622.011035 197.59922 
L 634.449813 197.641793 
L 638.67944 197.30736 
L 645.926724 196.605732 
L 661.397782 195.587255 
L 669.760152 195.026866 
L 672.807206 194.982712 
L 674.87536 195.040854 
L 675.489948 194.863681 
L 675.489948 194.863681 
" style="fill:none;stroke:#000000;stroke-linecap:square;stroke-opacity:0.7;stroke-width:1.2;"/>
   </g>
   <g id="line2d_33">
    <path clip-path="url(#p1aaadbbe2b)" d="M 675.187683 162.252625 
L 672.825223 161.512914 
L 669.609956 160.761219 
L 653.837944 157.845021 
L 645.212115 156.730823 
L 636.339331 155.529514 
L 632.179377 155.027476 
L 628.137677 154.770482 
L 623.160715 154.691446 
L 615.114973 154.833475 
L 605.844552 155.173953 
L 602.761205 155.462778 
L 599.888037 155.95502 
L 597.096736 156.652093 
L 593.449475 157.825701 
L 590.138543 159.146445 
L 587.840156 160.306027 
L 586.787417 160.998682 
L 586.127942 161.58629 
L 585.729617 162.18573 
L 585.670762 162.715741 
L 585.87313 163.131017 
L 586.280058 163.492355 
L 587.134768 163.919553 
L 588.532054 164.334768 
L 591.161266 164.785417 
L 594.776498 165.117492 
L 599.760408 165.325949 
L 606.062932 165.363 
L 613.553417 165.159375 
L 621.901906 164.85686 
L 635.448046 164.675899 
L 640.927073 164.237502 
L 645.705003 163.920464 
L 655.137282 163.41648 
L 670.615885 162.404818 
L 673.746742 162.456659 
L 674.877589 162.490677 
L 675.475733 162.349878 
L 675.475733 162.349878 
" style="fill:none;stroke:#000000;stroke-linecap:square;stroke-opacity:0.7;stroke-width:1.2;"/>
   </g>
   <g id="line2d_34">
    <path clip-path="url(#p1aaadbbe2b)" d="M 675.181384 129.742042 
L 672.256653 128.955499 
L 669.086652 128.348345 
L 662.778942 127.26059 
L 656.999535 126.154493 
L 651.947985 125.410357 
L 644.079663 124.506566 
L 628.371358 122.86113 
L 622.447459 122.728708 
L 610.623721 122.783296 
L 605.773254 122.924378 
L 602.850396 123.209067 
L 599.714456 123.796176 
L 596.012521 124.811419 
L 592.537726 126.003803 
L 589.276748 127.3775 
L 587.305352 128.47323 
L 586.233363 129.383934 
L 585.917858 129.93378 
L 585.886712 130.314005 
L 586.094448 130.760146 
L 586.493056 131.112564 
L 587.157744 131.462964 
L 588.416369 131.875113 
L 590.953432 132.353421 
L 594.906343 132.737105 
L 599.980077 132.941614 
L 606.298054 132.939646 
L 612.603368 132.713876 
L 623.235748 132.210542 
L 633.551665 132.160282 
L 638.152575 131.857104 
L 642.662985 131.537354 
L 658.576987 130.871697 
L 670.687385 130.137282 
L 674.882631 130.113938 
L 675.425016 129.91803 
L 675.425016 129.91803 
" style="fill:none;stroke:#000000;stroke-linecap:square;stroke-opacity:0.7;stroke-width:1.2;"/>
   </g>
   <g id="line2d_35">
    <path clip-path="url(#p1aaadbbe2b)" d="M 675.180911 97.314843 
L 672.900208 96.663299 
L 669.741012 95.984442 
L 661.887882 94.498443 
L 656.7476 93.543741 
L 650.904562 92.687743 
L 632.533336 90.398108 
L 628.390855 90.180063 
L 622.335025 90.132739 
L 610.139381 90.338464 
L 605.090634 90.574287 
L 602.088064 90.940633 
L 599.230619 91.509105 
L 596.204968 92.309761 
L 592.413352 93.556307 
L 590.063638 94.491318 
L 587.769412 95.632007 
L 586.690875 96.358286 
L 586.104473 96.919836 
L 585.76877 97.511846 
L 585.759453 98.002331 
L 585.96912 98.393547 
L 586.310035 98.707151 
L 587.17881 99.169807 
L 588.695257 99.636186 
L 591.177203 100.076367 
L 594.752974 100.418012 
L 599.802533 100.627414 
L 606.064296 100.654375 
L 614.609659 100.444739 
L 621.898214 100.282238 
L 634.181144 100.282807 
L 638.495471 99.950752 
L 647.147517 99.130588 
L 660.620949 98.228578 
L 669.543569 97.651888 
L 672.853653 97.63484 
L 674.835958 97.722774 
L 675.490909 97.577896 
L 675.490909 97.577896 
" style="fill:none;stroke:#000000;stroke-linecap:square;stroke-opacity:0.7;stroke-width:1.2;"/>
   </g>
   <g id="line2d_36">
    <path clip-path="url(#p1aaadbbe2b)" d="M 675.178683 64.894644 
L 672.918349 64.25833 
L 669.86876 63.644469 
L 664.618522 62.771427 
L 656.484093 61.111589 
L 651.135756 60.301029 
L 641.955487 59.211656 
L 632.147226 58.128672 
L 627.8848 57.967249 
L 621.923994 57.98725 
L 604.702577 58.378194 
L 601.948227 58.694047 
L 598.981353 59.272604 
L 595.453756 60.227059 
L 591.684007 61.520683 
L 589.340821 62.508983 
L 587.378913 63.561745 
L 586.468998 64.237721 
L 585.973588 64.796125 
L 585.764251 65.367703 
L 585.824154 65.729991 
L 586.218273 66.228399 
L 586.849063 66.615766 
L 587.859201 66.997931 
L 590.056607 67.490012 
L 593.051371 67.865052 
L 597.050531 68.129157 
L 603.02132 68.266367 
L 609.38446 68.202298 
L 624.861863 67.858451 
L 631.06143 67.911716 
L 634.855261 67.780667 
L 639.356967 67.410577 
L 645.370522 66.84527 
L 664.18264 65.565935 
L 669.306671 65.262525 
L 672.930024 65.244091 
L 674.906932 65.304749 
L 675.465191 65.152969 
L 675.465191 65.152969 
" style="fill:none;stroke:#000000;stroke-linecap:square;stroke-opacity:0.7;stroke-width:1.2;"/>
   </g>
  </g>
 </g>
 <defs>
  <clipPath id="p1aaadbbe2b">
   <rect height="262.08" width="694.08" x="12.96" y="12.96"/>
  </clipPath>
 </defs>
</svg>
