<?xml version="1.0" encoding="utf-8" standalone="no"?>
<!DOCTYPE svg PUBLIC "-//W3C//DTD SVG 1.1//EN"
  "http://www.w3.org/Graphics/SVG/1.1/DTD/svg11.dtd">
<!-- Created with matplotlib (https://matplotlib.org/) -->
<svg height="288pt" version="1.1" viewBox="0 0 720 288" width="720pt" xmlns="http://www.w3.org/2000/svg" xmlns:xlink="http://www.w3.org/1999/xlink">
 <defs>
  <style type="text/css">
*{stroke-linecap:butt;stroke-linejoin:round;}
  </style>
 </defs>
 <g id="figure_1">
  <g id="patch_1">
   <path d="M 0 288 
L 720 288 
L 720 0 
L 0 0 
z
" style="fill:#ffffff;"/>
  </g>
  <g id="axes_1">
   <g id="line2d_1">
    <path clip-path="url(#p88b964e49d)" d="M 135.145306 224.528997 
L 134.731318 224.840915 
L 133.901525 225.302142 
L 131.894995 225.979463 
L 129.420266 226.401595 
L 127.227515 226.562227 
L 123.585585 226.544731 
L 119.49858 226.232227 
L 114.993576 225.638678 
L 107.998591 224.396181 
L 95.845667 222.139161 
L 91.847263 221.663845 
L 88.67322 221.519096 
L 85.225995 221.49949 
L 83.998736 221.312525 
L 76.036632 219.648136 
L 72.971732 219.298511 
L 68.480944 219.147271 
L 65.806528 219.279066 
L 62.051328 219.788654 
L 59.513788 220.391165 
L 57.202632 221.172102 
L 54.907404 222.243089 
L 53.975505 222.792756 
L 51.979719 224.317847 
L 50.721661 225.709076 
L 49.816897 227.187857 
L 49.134027 228.342827 
L 48.91418 228.469455 
L 48.184175 228.562535 
L 47.25936 228.611812 
L 46.786231 228.951594 
L 47.122069 229.201599 
L 47.33596 229.289321 
L 48.805755 229.611119 
L 51.948043 229.729691 
L 54.701761 229.497046 
L 56.114269 229.278935 
L 61.397278 227.853492 
L 64.704652 226.30001 
L 66.188454 225.282635 
L 67.698195 223.540522 
L 67.787221 222.690539 
L 67.617011 222.487322 
L 66.619174 222.686854 
L 66.236174 223.139729 
L 65.930455 224.199349 
L 66.061119 225.128667 
L 66.530907 226.050295 
L 67.305257 226.863154 
L 67.721485 227.167656 
L 69.434546 227.963683 
L 69.969649 228.117072 
L 73.080265 228.538878 
L 76.637966 228.546199 
L 95.052219 228.082941 
L 111.981418 228.089874 
L 130.183406 228.142297 
L 130.398794 227.905975 
L 130.262717 227.372557 
L 129.68814 226.12754 
L 129.68814 226.12754 
" style="fill:none;stroke:#000000;stroke-linecap:square;stroke-opacity:0.7;stroke-width:1.2;"/>
   </g>
   <g id="line2d_2">
    <path clip-path="url(#p88b964e49d)" d="M 136.603935 196.682084 
L 135.769102 196.035394 
L 134.305561 195.431311 
L 132.027595 194.921603 
L 128.53516 194.216984 
L 125.091133 193.258414 
L 120.617936 191.687348 
L 114.868898 189.689277 
L 111.040521 188.671932 
L 108.598522 188.212966 
L 105.287669 187.841441 
L 102.569001 187.733031 
L 93.636433 187.662964 
L 91.428116 187.35752 
L 88.393503 186.645173 
L 81.428377 184.744523 
L 80.537129 184.570706 
L 77.827168 184.232108 
L 74.827039 184.270405 
L 73.249805 184.506754 
L 71.327078 185.045921 
L 69.966114 185.63151 
L 67.628898 187.152075 
L 64.293023 189.966229 
L 63.568862 190.332369 
L 62.692603 190.628902 
L 61.327139 190.882416 
L 60.178871 190.981134 
L 50.297941 191.095937 
L 49.331957 191.179692 
L 46.721573 191.667189 
L 45.504122 192.185676 
L 44.9433 192.624126 
L 44.630787 193.077239 
L 44.531114 193.892599 
L 44.73419 194.471103 
L 45.057553 194.96129 
L 45.73883 195.652573 
L 46.947789 196.494381 
L 48.337308 197.189908 
L 50.902075 198.06226 
L 52.230144 198.368558 
L 56.474599 198.856329 
L 61.571228 198.619469 
L 67.367467 197.302955 
L 69.521216 196.497758 
L 73.482083 194.720386 
L 75.356717 194.51894 
L 75.963893 194.694094 
L 76.703179 195.023522 
L 79.637334 196.791133 
L 82.08382 198.267028 
L 84.791651 199.619336 
L 86.444533 200.198343 
L 88.090471 200.530273 
L 88.856645 200.601157 
L 91.193521 200.561261 
L 93.704812 200.267676 
L 111.571372 197.609497 
L 117.691229 196.981403 
L 123.046265 196.602566 
L 128.672742 196.429446 
L 131.677325 196.322028 
L 131.95064 196.139255 
L 131.991496 195.887278 
L 131.797336 194.896165 
L 131.797336 194.896165 
" style="fill:none;stroke:#000000;stroke-linecap:square;stroke-opacity:0.7;stroke-width:1.2;"/>
   </g>
   <g id="line2d_3">
    <path clip-path="url(#p88b964e49d)" d="M 135.193838 162.408179 
L 133.186596 162.007923 
L 129.843934 161.580802 
L 124.869499 161.204587 
L 119.690919 161.015984 
L 110.51109 160.952382 
L 102.030495 160.839443 
L 98.934238 160.616216 
L 96.971118 160.277905 
L 96.008591 159.939417 
L 95.327972 159.449198 
L 94.989819 158.780432 
L 94.910357 157.810439 
L 94.846023 156.854988 
L 91.759651 153.989618 
L 90.830167 153.710885 
L 82.343521 153.140972 
L 78.562504 153.509682 
L 73.000782 154.365706 
L 64.719963 155.661665 
L 54.688921 157.064879 
L 51.616697 157.682977 
L 48.939178 158.572645 
L 47.631505 159.401845 
L 47.045187 160.236916 
L 46.963658 160.91316 
L 47.178539 161.596486 
L 47.672688 162.281153 
L 48.328545 162.87161 
L 49.445765 163.584736 
L 51.360833 164.413203 
L 52.733447 164.82746 
L 56.840226 165.494852 
L 60.525594 165.542229 
L 63.431105 165.265279 
L 68.170466 164.259148 
L 72.927997 162.947511 
L 74.151407 162.833083 
L 75.780176 163.022504 
L 76.329714 163.166876 
L 77.719413 163.652003 
L 85.314108 166.767995 
L 88.844359 167.624229 
L 90.852788 167.704248 
L 93.272567 167.305654 
L 100.193093 165.473148 
L 104.845895 164.632619 
L 110.375019 163.966453 
L 115.485419 163.583495 
L 120.959261 163.37537 
L 127.515053 163.358456 
L 130.831981 163.273853 
L 131.523683 163.043593 
L 131.758736 162.707495 
L 131.79379 162.302872 
L 131.665545 161.338431 
L 131.665545 161.338431 
" style="fill:none;stroke:#000000;stroke-linecap:square;stroke-opacity:0.7;stroke-width:1.2;"/>
   </g>
   <g id="line2d_4">
    <path clip-path="url(#p88b964e49d)" d="M 135.916192 132.718928 
L 135.035237 131.49057 
L 134.33401 130.802493 
L 132.774996 129.742259 
L 130.664171 128.738623 
L 124.424431 126.252522 
L 120.886586 125.047802 
L 116.982643 123.994944 
L 113.540796 123.320761 
L 109.779009 122.836519 
L 105.632422 122.553403 
L 98.373652 122.380371 
L 92.811062 122.154162 
L 87.368431 121.711691 
L 81.531791 121.2497 
L 78.2905 121.152095 
L 74.266175 121.321696 
L 72.18336 121.578641 
L 68.825049 122.318167 
L 66.432716 123.175057 
L 64.120965 124.406107 
L 62.947951 125.280729 
L 61.994231 126.222262 
L 61.322915 127.138128 
L 60.714566 128.657847 
L 60.578379 129.550844 
L 60.49005 129.528436 
L 59.163416 128.75413 
L 57.155607 127.94047 
L 55.001212 127.426485 
L 53.326722 127.258599 
L 52.301275 127.268744 
L 50.643503 127.540422 
L 49.717858 127.940247 
L 49.13962 128.456576 
L 48.909878 129.016253 
L 48.93892 129.480032 
L 49.171345 129.996932 
L 49.928423 130.787177 
L 50.938508 131.417129 
L 51.685884 131.757085 
L 52.851037 132.160647 
L 54.266939 132.507058 
L 57.560356 132.894682 
L 60.706836 132.85407 
L 63.84539 132.472561 
L 66.76193 131.820267 
L 70.146342 130.69083 
L 74.307807 128.979865 
L 76.064645 128.672983 
L 76.937265 128.756836 
L 78.86563 129.357318 
L 81.512759 130.554633 
L 86.210822 132.667171 
L 88.371843 133.456266 
L 90.182068 133.958357 
L 92.642258 134.311403 
L 94.802387 134.260357 
L 97.386468 133.866945 
L 108.419731 131.732789 
L 112.91706 131.144591 
L 118.175819 130.699294 
L 123.183011 130.544341 
L 126.774535 130.643751 
L 130.064245 130.984125 
L 131.589892 131.210543 
L 131.16857 130.481216 
L 131.16857 130.481216 
" style="fill:none;stroke:#000000;stroke-linecap:square;stroke-opacity:0.7;stroke-width:1.2;"/>
   </g>
   <g id="line2d_5">
    <path clip-path="url(#p88b964e49d)" d="M 135.716317 98.718359 
L 133.822326 97.907674 
L 130.459668 96.592933 
L 126.611477 94.744333 
L 122.422979 92.847827 
L 119.743591 91.839147 
L 116.855887 90.940179 
L 113.219382 90.059336 
L 109.032181 89.3385 
L 104.798028 88.858955 
L 101.241676 88.594719 
L 93.095745 88.246213 
L 84.171156 88.046358 
L 77.0045 88.072195 
L 71.563344 88.330691 
L 69.040207 88.565608 
L 67.027212 88.827578 
L 64.301309 89.328363 
L 61.325522 90.183192 
L 59.630246 90.956412 
L 58.628595 91.662641 
L 57.969185 92.531034 
L 57.871662 93.239053 
L 58.051863 93.706169 
L 58.543765 94.182966 
L 58.920715 94.299391 
L 58.84563 94.214185 
L 58.338193 93.974053 
L 57.325798 93.684702 
L 55.099765 93.395202 
L 52.841545 93.496822 
L 51.349936 93.871537 
L 50.67037 94.201248 
L 49.985109 94.819472 
L 49.746718 95.486108 
L 49.80381 95.935989 
L 50.139144 96.543219 
L 50.913626 97.224026 
L 52.007353 97.779571 
L 52.565041 97.974427 
L 55.263639 98.431199 
L 56.674285 98.435781 
L 59.914496 97.978616 
L 64.159113 97.080165 
L 65.264345 97.203826 
L 66.653793 97.624768 
L 70.665136 99.055345 
L 73.062818 99.649938 
L 74.951192 99.937958 
L 76.487161 100.052479 
L 77.814917 100.064498 
L 80.628718 99.823906 
L 82.677384 99.427962 
L 85.393245 98.652739 
L 92.293633 96.354346 
L 94.38301 95.928703 
L 95.104281 95.829384 
L 97.140717 95.674247 
L 99.474747 95.693859 
L 101.289463 95.824467 
L 108.382888 96.927105 
L 116.42654 98.658699 
L 123.161118 100.052172 
L 126.489119 100.500934 
L 127.819593 100.51688 
L 128.912803 100.301917 
L 129.471246 99.930586 
L 129.760198 99.410394 
L 129.831223 98.231559 
L 129.701596 97.319892 
L 128.783669 93.021904 
L 128.783669 93.021904 
" style="fill:none;stroke:#000000;stroke-linecap:square;stroke-opacity:0.7;stroke-width:1.2;"/>
   </g>
   <g id="line2d_6">
    <path clip-path="url(#p88b964e49d)" d="M 135.42948 68.613033 
L 134.04306 66.670185 
L 133.121581 65.724446 
L 132.302748 65.0601 
L 130.855368 64.198849 
L 129.385356 63.621806 
L 127.862158 63.234027 
L 125.506247 62.892223 
L 121.946809 62.70221 
L 117.585027 62.746083 
L 111.302968 63.084388 
L 97.406887 64.010286 
L 93.292893 63.947385 
L 90.498436 63.65018 
L 87.221662 62.94849 
L 78.571321 60.419487 
L 76.668135 60.314737 
L 75.052852 60.479212 
L 72.441819 59.930846 
L 68.400269 59.188496 
L 63.794368 58.589208 
L 60.48899 58.325785 
L 56.059694 58.239581 
L 53.49845 58.378413 
L 50.991813 58.718039 
L 49.021539 59.213012 
L 47.527164 59.837992 
L 46.870275 60.246224 
L 45.912266 61.245719 
L 45.601954 62.167485 
L 45.670608 62.941614 
L 46.085682 63.828453 
L 46.584232 64.437237 
L 47.351127 65.098261 
L 48.938887 66.014995 
L 50.344226 66.5527 
L 52.294256 67.027151 
L 54.445741 67.271002 
L 57.818332 67.168086 
L 60.253659 66.783919 
L 63.823652 66.163742 
L 65.305562 66.203733 
L 66.791329 66.477975 
L 70.190068 67.457983 
L 74.01603 68.535239 
L 77.73469 69.342713 
L 81.866056 69.889282 
L 84.180814 70.010603 
L 87.244409 69.939957 
L 90.607935 69.541288 
L 94.498029 68.743339 
L 100.45546 67.46281 
L 103.425176 67.000666 
L 107.535359 66.579145 
L 112.045918 66.362859 
L 116.037777 66.351468 
L 121.220653 66.563243 
L 126.830058 67.075414 
L 130.355774 67.433076 
L 130.820335 67.373317 
L 131.033544 67.217716 
L 131.085541 67.006948 
L 130.979221 66.474022 
L 130.459491 64.97846 
L 130.459491 64.97846 
" style="fill:none;stroke:#000000;stroke-linecap:square;stroke-opacity:0.7;stroke-width:1.2;"/>
   </g>
   <g id="line2d_7">
    <path clip-path="url(#p88b964e49d)" d="M 243.731696 227.18259 
L 241.682082 226.438417 
L 239.238487 225.882824 
L 235.888444 225.44075 
L 231.610639 224.858367 
L 224.929821 223.858203 
L 221.083467 223.507802 
L 216.101918 223.3226 
L 203.80937 223.138167 
L 199.979534 222.606676 
L 197.024501 222.167504 
L 194.153619 222.051865 
L 191.326322 222.39979 
L 189.238345 222.985064 
L 187.230361 223.803435 
L 185.379629 224.543205 
L 184.429486 224.661315 
L 182.957444 224.504178 
L 176.576183 223.455464 
L 173.019501 223.149204 
L 168.944904 223.075961 
L 165.667773 223.277204 
L 162.933378 223.712775 
L 161.08147 224.268085 
L 160.009421 224.821322 
L 159.421994 225.364156 
L 159.175613 226.063623 
L 159.358544 226.650811 
L 159.60384 226.966434 
L 160.566806 227.666051 
L 162.464973 228.394347 
L 165.073674 228.888301 
L 167.279595 229.047066 
L 171.786076 228.844965 
L 174.282684 228.468141 
L 177.229512 227.803387 
L 179.644124 227.224132 
L 180.458066 227.166266 
L 180.997566 227.241774 
L 181.967849 227.64849 
L 187.226949 230.784393 
L 189.926156 231.87689 
L 191.802427 232.382628 
L 193.811333 232.648632 
L 195.665901 232.583242 
L 197.143289 232.292993 
L 199.051116 231.672782 
L 202.746806 230.364173 
L 205.468474 229.633263 
L 208.868501 228.990186 
L 212.820034 228.511805 
L 215.952374 228.280622 
L 221.743865 228.107695 
L 227.085166 228.180402 
L 234.572545 228.567527 
L 237.348792 228.692927 
L 238.842899 228.499546 
L 239.111447 228.287892 
L 239.238171 227.785323 
L 239.114457 227.042718 
L 238.731125 225.633462 
L 238.731125 225.633462 
" style="fill:none;stroke:#000000;stroke-linecap:square;stroke-opacity:0.7;stroke-width:1.2;"/>
   </g>
   <g id="line2d_8">
    <path clip-path="url(#p88b964e49d)" d="M 242.040125 201.058661 
L 241.899715 199.06605 
L 241.649401 197.721761 
L 241.372726 196.847936 
L 240.984 196.018022 
L 240.498424 195.281803 
L 239.242853 194.01293 
L 238.17903 193.251956 
L 235.777747 191.971873 
L 232.909428 190.832199 
L 229.801225 189.858341 
L 225.918698 188.891229 
L 222.186871 188.155491 
L 217.067932 187.387645 
L 211.593319 186.807902 
L 204.438163 186.307686 
L 196.132575 185.951152 
L 189.587263 185.863728 
L 184.00491 186.037793 
L 181.379441 186.245458 
L 179.55167 186.456837 
L 175.613605 187.182742 
L 173.434463 187.83957 
L 172.136494 188.391904 
L 170.862644 189.17289 
L 170.328367 189.662806 
L 169.981355 190.133416 
L 169.749918 190.898115 
L 169.781126 191.214603 
L 170.102737 191.814427 
L 170.688149 192.194871 
L 170.958146 192.182241 
L 170.884001 192.01077 
L 170.452949 191.734739 
L 169.721174 191.448692 
L 167.588752 190.99994 
L 164.27548 190.88148 
L 163.064223 190.978892 
L 160.747582 191.391438 
L 159.281177 191.84673 
L 157.769611 192.570668 
L 157.16227 192.993852 
L 156.572107 193.571873 
L 156.107564 194.533013 
L 156.111305 195.042016 
L 156.42362 195.736282 
L 156.919645 196.236908 
L 157.849604 196.788608 
L 159.090716 197.225079 
L 162.011171 197.663647 
L 165.038658 197.640279 
L 167.879476 197.322199 
L 171.138408 196.67909 
L 178.592772 194.877191 
L 179.873657 194.924706 
L 181.531282 195.321945 
L 187.368331 197.183197 
L 190.343337 197.699429 
L 192.224271 197.829645 
L 194.562778 197.770198 
L 197.337638 197.38215 
L 200.339974 196.649123 
L 204.655266 195.494652 
L 207.637147 194.921097 
L 210.754505 194.559883 
L 214.315576 194.380532 
L 218.617647 194.39983 
L 224.676244 194.732025 
L 230.327126 195.285144 
L 237.472495 196.057128 
L 238.013764 195.903845 
L 238.159949 195.697642 
L 238.155128 195.221323 
L 237.914708 194.395659 
L 237.234582 192.29198 
L 237.234582 192.29198 
" style="fill:none;stroke:#000000;stroke-linecap:square;stroke-opacity:0.7;stroke-width:1.2;"/>
   </g>
   <g id="line2d_9">
    <path clip-path="url(#p88b964e49d)" d="M 244.190205 164.235876 
L 243.399285 164.038034 
L 241.229279 164.29123 
L 239.570485 164.488847 
L 238.154459 164.36425 
L 236.135528 163.744635 
L 233.452937 162.510504 
L 228.657844 160.228015 
L 225.633335 159.020856 
L 222.063216 157.87966 
L 218.386081 156.983058 
L 213.869372 156.129533 
L 209.046499 155.260161 
L 203.218894 153.925582 
L 196.151278 152.165332 
L 192.89407 151.633513 
L 190.017582 151.452999 
L 187.094515 151.624997 
L 184.733927 152.078954 
L 182.939536 152.647017 
L 181.293605 153.365533 
L 179.235937 154.577361 
L 177.891289 155.581177 
L 174.610422 158.328331 
L 173.094732 159.054525 
L 172.07109 159.264153 
L 170.277666 159.321674 
L 168.537275 159.202629 
L 161.286499 158.602115 
L 158.925383 158.657148 
L 156.794995 158.986675 
L 155.459792 159.492599 
L 154.860655 159.921189 
L 154.568993 160.26678 
L 154.329994 160.934022 
L 154.354478 161.390362 
L 154.616634 162.056282 
L 155.238389 162.830492 
L 156.055501 163.487329 
L 157.436631 164.243183 
L 159.107204 164.837216 
L 160.913927 165.218405 
L 163.197136 165.39942 
L 164.349323 165.378635 
L 167.195616 165.025648 
L 168.740805 164.655295 
L 170.815901 163.953404 
L 173.839259 162.507552 
L 175.878084 161.413635 
L 180.017284 161.705784 
L 184.96452 163.82849 
L 185.673244 164.075792 
L 188.827065 164.926214 
L 190.222723 165.161711 
L 193.830044 165.35759 
L 197.056071 165.141706 
L 205.426633 164.361993 
L 209.624709 164.150198 
L 216.708068 164.028485 
L 224.86652 164.147824 
L 238.043403 164.478523 
L 238.803479 164.242111 
L 239.047515 163.976926 
L 239.122434 163.56124 
L 238.98115 162.790773 
L 238.366011 160.693631 
L 238.366011 160.693631 
" style="fill:none;stroke:#000000;stroke-linecap:square;stroke-opacity:0.7;stroke-width:1.2;"/>
   </g>
   <g id="line2d_10">
    <path clip-path="url(#p88b964e49d)" d="M 244.069432 131.329027 
L 242.360527 130.583702 
L 238.919125 129.383462 
L 232.329789 127.472191 
L 224.210494 125.231267 
L 220.788264 124.49901 
L 216.993806 123.952102 
L 214.551116 123.756066 
L 210.544891 123.677371 
L 205.485878 123.886997 
L 200.46053 124.084437 
L 197.386821 123.920267 
L 194.710313 123.519091 
L 190.240652 122.737168 
L 187.597877 122.537323 
L 186.160959 122.571203 
L 183.387792 122.988302 
L 181.387934 123.642425 
L 180.158771 124.237555 
L 178.436834 125.423814 
L 176.384555 127.190979 
L 175.602332 127.302288 
L 173.761797 127.005909 
L 170.251904 126.32216 
L 166.623493 125.869826 
L 164.366432 125.756511 
L 162.253119 125.797862 
L 159.536767 126.154864 
L 158.15619 126.562271 
L 157.500991 126.859606 
L 156.597065 127.526231 
L 156.263911 128.009114 
L 156.133648 128.794312 
L 156.204736 129.109223 
L 156.691179 129.913 
L 157.470129 130.588725 
L 158.269459 131.060929 
L 159.812972 131.679998 
L 161.880977 132.164517 
L 164.27292 132.405937 
L 166.862279 132.378196 
L 167.85352 132.299372 
L 171.420199 131.738895 
L 174.895888 130.840716 
L 178.21337 129.953052 
L 179.738204 129.842638 
L 181.177725 130.096896 
L 182.180562 130.440774 
L 187.750099 132.707033 
L 189.455068 133.240722 
L 192.150557 133.842303 
L 194.571261 134.093413 
L 196.922771 134.037936 
L 199.041774 133.730305 
L 202.73477 132.832679 
L 206.740164 131.917285 
L 210.29425 131.360087 
L 214.991267 130.918954 
L 219.980835 130.70227 
L 226.587403 130.692252 
L 232.693965 130.898946 
L 237.739758 131.055784 
L 238.372022 130.961929 
L 238.679406 130.821229 
L 238.857871 130.564518 
L 238.866848 130.175176 
L 238.446127 128.786415 
L 238.112366 127.763037 
L 238.112366 127.763037 
" style="fill:none;stroke:#000000;stroke-linecap:square;stroke-opacity:0.7;stroke-width:1.2;"/>
   </g>
   <g id="line2d_11">
    <path clip-path="url(#p88b964e49d)" d="M 243.245344 97.58454 
L 241.185525 96.726887 
L 239.024963 96.008468 
L 235.493493 95.083506 
L 231.958552 94.381128 
L 227.138974 93.69956 
L 222.373456 93.26109 
L 214.891085 92.850087 
L 206.248953 92.386265 
L 203.54229 92.010496 
L 202.026558 91.583921 
L 200.6577 90.980613 
L 198.365592 90.023577 
L 195.733692 89.397312 
L 193.110237 89.090984 
L 190.218895 88.99425 
L 189.051053 89.013764 
L 184.429044 89.392373 
L 181.37756 89.912337 
L 178.147168 90.712063 
L 169.82471 93.085404 
L 164.437107 94.247141 
L 163.077553 94.801365 
L 162.252919 95.466771 
L 162.175576 95.579921 
L 162.31946 96.973802 
L 162.609084 97.290664 
L 163.730439 98.040716 
L 164.629394 98.424819 
L 165.847581 98.789652 
L 170.222669 99.242791 
L 172.651017 99.073549 
L 174.732888 98.712754 
L 176.106246 98.360392 
L 178.991553 97.283193 
L 181.445245 96.181987 
L 182.01381 96.235369 
L 182.260077 96.351295 
L 184.979021 98.357798 
L 187.150099 99.621425 
L 187.876748 99.967011 
L 193.44147 101.457329 
L 195.737426 101.439088 
L 199.499047 100.687862 
L 204.534166 99.439663 
L 207.761637 98.872305 
L 211.235259 98.445688 
L 216.13806 98.082256 
L 221.060251 97.928889 
L 227.226047 97.98254 
L 233.160466 98.27689 
L 238.089053 98.557914 
L 238.704422 98.401094 
L 238.846236 98.229844 
L 238.866345 97.807382 
L 238.484309 96.47448 
L 238.484309 96.47448 
" style="fill:none;stroke:#000000;stroke-linecap:square;stroke-opacity:0.7;stroke-width:1.2;"/>
   </g>
   <g id="line2d_12">
    <path clip-path="url(#p88b964e49d)" d="M 244.065805 62.864611 
L 241.40372 63.567434 
L 239.148333 64.027794 
L 236.318572 64.336942 
L 234.485878 64.335827 
L 232.816586 64.178438 
L 230.495183 63.703167 
L 228.477371 63.061624 
L 226.522593 62.272586 
L 215.606427 57.25832 
L 213.12174 56.458382 
L 208.754424 55.582616 
L 206.983804 55.416276 
L 203.860189 55.350143 
L 200.220383 55.541974 
L 188.929148 56.437011 
L 182.932064 56.575235 
L 171.888751 56.718974 
L 167.147062 57.095065 
L 164.710967 57.455612 
L 162.340877 57.968738 
L 160.585559 58.491253 
L 157.663424 59.791615 
L 156.150491 60.861088 
L 155.33305 61.705776 
L 154.4318 64.005257 
L 157.212237 67.208394 
L 158.799374 67.630791 
L 160.846423 67.779084 
L 162.769318 67.602178 
L 164.054197 67.320542 
L 166.027208 66.606817 
L 167.051418 66.182747 
L 167.435368 66.10931 
L 172.148279 66.056702 
L 173.449547 65.751799 
L 175.139065 65.045374 
L 176.31135 64.166906 
L 176.763845 63.602963 
L 176.836561 61.183632 
L 175.899601 60.254905 
L 174.644805 59.761047 
L 173.706628 59.702893 
L 171.706115 60.762942 
L 171.330907 61.838413 
L 172.167339 64.184153 
L 173.223207 65.135927 
L 175.570032 66.13832 
L 176.592737 66.329521 
L 178.072383 66.449447 
L 181.877144 66.307313 
L 186.0708 65.979713 
L 191.133416 65.764423 
L 197.339612 65.809802 
L 207.093601 66.249415 
L 223.091518 67.046445 
L 229.405069 67.121979 
L 232.505821 66.986954 
L 234.662371 66.696917 
L 235.867981 66.318284 
L 236.335896 66.038264 
L 236.744983 65.565255 
L 236.834135 65.358928 
L 236.859236 64.158051 
L 236.299454 62.138013 
L 235.784615 60.43723 
L 235.784615 60.43723 
" style="fill:none;stroke:#000000;stroke-linecap:square;stroke-opacity:0.7;stroke-width:1.2;"/>
   </g>
   <g id="line2d_13">
    <path clip-path="url(#p88b964e49d)" d="M 352.196264 225.579445 
L 350.012474 226.413773 
L 348.536072 226.786666 
L 347.077604 226.98164 
L 345.201065 226.981099 
L 343.084503 226.663691 
L 341.046416 226.082755 
L 337.105094 224.406551 
L 327.839359 219.833443 
L 324.858083 218.738432 
L 322.152829 218.030783 
L 320.276354 217.709848 
L 317.932421 217.495632 
L 314.421044 217.498755 
L 309.173352 217.876749 
L 305.527685 218.104281 
L 300.808355 218.125613 
L 297.136992 217.932874 
L 288.078996 217.296866 
L 284.591572 217.295591 
L 283.707715 217.344329 
L 279.940666 217.897659 
L 278.710585 218.251263 
L 276.745894 219.118068 
L 275.113759 220.390637 
L 274.391874 221.432515 
L 274.078397 222.426127 
L 274.099834 223.433748 
L 274.433555 224.34008 
L 274.933967 225.016898 
L 276.048174 225.815039 
L 276.653218 226.02245 
L 277.370573 226.04783 
L 277.697715 225.762959 
L 277.616693 225.503801 
L 277.339087 225.223206 
L 275.815071 224.590613 
L 275.291633 224.499253 
L 273.962602 224.495004 
L 273.203206 224.742741 
L 272.957794 225.067046 
L 272.960717 225.172088 
L 273.273574 225.568929 
L 273.613946 225.756434 
L 274.234432 225.963451 
L 275.168041 226.11764 
L 276.261409 226.148048 
L 278.102925 225.903458 
L 280.292563 224.998979 
L 280.749362 224.627394 
L 281.097634 223.94659 
L 280.915268 224.079547 
L 280.887707 224.90395 
L 281.306288 225.947077 
L 282.468542 227.36873 
L 283.337164 228.072121 
L 284.914214 228.9773 
L 286.901756 229.671671 
L 289.058352 230.020586 
L 291.773428 230.021688 
L 292.681984 229.94339 
L 304.672367 228.415862 
L 308.960398 228.235755 
L 313.887263 228.234876 
L 319.819887 228.408975 
L 337.838144 229.10154 
L 341.062669 229.019269 
L 343.040787 228.791764 
L 344.207287 228.475429 
L 344.916345 228.085805 
L 345.37406 227.548643 
L 345.594136 226.624018 
L 345.491839 225.466358 
L 344.665452 221.775872 
L 344.665452 221.775872 
" style="fill:none;stroke:#000000;stroke-linecap:square;stroke-opacity:0.7;stroke-width:1.2;"/>
   </g>
   <g id="line2d_14">
    <path clip-path="url(#p88b964e49d)" d="M 350.549914 194.225594 
L 344.145192 193.007737 
L 333.212201 190.559519 
L 328.520498 189.783732 
L 323.516885 189.212299 
L 319.224756 188.946994 
L 314.845521 188.904038 
L 310.139061 189.100208 
L 306.498833 189.224099 
L 304.856276 189.091551 
L 302.452347 188.596607 
L 298.184707 187.5734 
L 295.448241 187.11817 
L 291.465133 186.829784 
L 288.522605 186.92023 
L 285.953274 187.229914 
L 283.187377 187.836954 
L 280.49692 188.751351 
L 278.270199 189.786636 
L 274.897854 191.481953 
L 273.599501 191.861546 
L 271.46612 192.188423 
L 267.758418 192.702176 
L 266.542031 192.973843 
L 264.366326 193.73455 
L 263.45059 194.263219 
L 262.641091 195.121092 
L 262.576084 195.271401 
L 263.361265 196.693736 
L 264.392419 197.057074 
L 265.39326 197.216964 
L 267.22713 197.247946 
L 270.852559 196.672262 
L 273.421487 195.849013 
L 278.147398 193.357118 
L 280.387489 191.874029 
L 280.941731 191.907441 
L 282.392254 193.216707 
L 283.16854 193.893241 
L 285.172199 195.156564 
L 286.977302 195.823014 
L 288.448604 196.10652 
L 290.527193 196.181116 
L 291.547991 196.100646 
L 295.126468 195.398573 
L 301.020234 193.943279 
L 303.973133 193.510657 
L 306.694707 193.33542 
L 310.622558 193.385372 
L 312.862502 193.532614 
L 317.516889 194.020403 
L 326.252384 195.284403 
L 337.95986 197.027233 
L 341.325587 197.317403 
L 342.462668 197.316474 
L 343.530053 197.183126 
L 344.262097 196.875749 
L 344.489281 196.662592 
L 344.753967 195.9008 
L 344.64056 194.790266 
L 343.559344 190.69387 
L 343.559344 190.69387 
" style="fill:none;stroke:#000000;stroke-linecap:square;stroke-opacity:0.7;stroke-width:1.2;"/>
   </g>
   <g id="line2d_15">
    <path clip-path="url(#p88b964e49d)" d="M 350.981483 160.203006 
L 349.766028 160.463459 
L 347.35063 160.672153 
L 344.45225 160.675135 
L 340.740644 160.474883 
L 335.064977 159.918612 
L 332.993497 159.667155 
L 305.220828 155.937333 
L 300.887669 155.658983 
L 297.33271 155.636509 
L 294.934647 155.787861 
L 292.435907 156.17764 
L 289.724569 157.031183 
L 287.689986 157.590388 
L 286.433316 157.584793 
L 284.866357 157.405349 
L 280.19779 156.705433 
L 272.263192 156.16619 
L 269.661898 156.336673 
L 266.764124 156.898673 
L 265.464667 157.365968 
L 264.19489 158.073828 
L 263.358987 158.831465 
L 262.656373 160.333849 
L 262.703784 161.349275 
L 263.033505 162.22977 
L 263.326103 162.937469 
L 262.708684 163.111062 
L 260.228037 163.331338 
L 257.146455 164.034558 
L 255.7465 164.580892 
L 254.732051 165.139661 
L 254.137553 165.610483 
L 254.749709 167.340084 
L 256.001701 167.528742 
L 257.500167 167.535105 
L 260.029298 167.278777 
L 267.447765 165.51188 
L 272.25617 163.804403 
L 274.439097 162.894156 
L 278.843074 160.767122 
L 283.982049 157.642546 
L 283.548548 159.372353 
L 283.503478 161.510719 
L 285.131537 163.899554 
L 286.026686 164.275372 
L 286.649864 164.419214 
L 289.841822 164.478388 
L 302.387847 163.548608 
L 308.868902 163.4461 
L 318.952688 163.529812 
L 340.726803 163.806409 
L 343.748634 163.61222 
L 344.162066 163.511167 
L 344.733777 163.061123 
L 344.748819 163.000305 
L 344.395801 161.809032 
L 343.519758 159.967137 
L 343.519758 159.967137 
" style="fill:none;stroke:#000000;stroke-linecap:square;stroke-opacity:0.7;stroke-width:1.2;"/>
   </g>
   <g id="line2d_16">
    <path clip-path="url(#p88b964e49d)" d="M 350.515685 130.075704 
L 349.704313 129.508206 
L 348.605158 128.916326 
L 346.267309 127.964727 
L 343.269047 127.054402 
L 339.730249 126.250805 
L 336.017514 125.636337 
L 330.895795 125.082442 
L 326.585159 124.827007 
L 322.226724 124.73148 
L 315.844227 124.840314 
L 304.215522 125.262748 
L 299.572204 125.019461 
L 293.111756 124.60077 
L 290.417466 124.594698 
L 287.736999 124.7762 
L 285.460925 125.16073 
L 283.584268 125.776099 
L 282.825861 126.190456 
L 282.242263 126.68298 
L 281.946055 127.12543 
L 281.836794 127.604675 
L 282.201702 128.435654 
L 282.920169 128.83269 
L 283.088744 128.759372 
L 282.829815 128.550357 
L 282.053605 128.2702 
L 281.345211 128.118634 
L 279.208826 127.941638 
L 277.478929 128.011355 
L 275.849025 128.227025 
L 273.52039 128.808074 
L 272.280697 129.289428 
L 271.22455 129.857491 
L 270.358109 130.568301 
L 270.025195 131.071713 
L 269.94866 131.519221 
L 270.083476 131.879658 
L 270.672246 132.327199 
L 271.212558 132.507361 
L 272.09078 132.639374 
L 274.891922 132.461869 
L 277.1436 131.928843 
L 279.422815 131.099535 
L 282.232506 129.603567 
L 282.881384 129.148537 
L 284.1808 128.075477 
L 284.16182 128.627597 
L 284.536373 130.202138 
L 285.266453 131.369355 
L 286.106851 132.203747 
L 287.753335 133.192109 
L 289.133488 133.636767 
L 290.725177 133.856508 
L 292.798573 133.799678 
L 295.292663 133.391171 
L 306.573289 130.982869 
L 310.445492 130.544672 
L 314.540665 130.280599 
L 319.756217 130.166821 
L 325.411556 130.254156 
L 332.876431 130.632962 
L 339.986086 131.232317 
L 344.149113 131.569371 
L 345.230174 131.445857 
L 345.54291 131.085951 
L 345.546027 130.822405 
L 345.330912 130.059004 
L 344.437845 127.716185 
L 344.437845 127.716185 
" style="fill:none;stroke:#000000;stroke-linecap:square;stroke-opacity:0.7;stroke-width:1.2;"/>
   </g>
   <g id="line2d_17">
    <path clip-path="url(#p88b964e49d)" d="M 350.270186 96.080473 
L 349.237368 96.347548 
L 347.454256 96.526107 
L 344.035679 96.532504 
L 339.148092 96.22228 
L 334.132372 95.712648 
L 309.286073 92.796221 
L 304.254899 92.564754 
L 300.330136 92.66071 
L 297.611249 92.972273 
L 291.868555 93.942022 
L 288.995517 93.763535 
L 281.708071 93.078534 
L 275.41687 93.043601 
L 273.178997 93.283172 
L 270.292852 93.968631 
L 268.870748 94.611362 
L 267.988223 95.260967 
L 267.583295 95.727235 
L 267.263121 96.38717 
L 265.668352 97.38167 
L 264.433479 97.352485 
L 263.627163 97.38529 
L 261.700003 97.613522 
L 259.29325 98.184862 
L 256.3817 99.374479 
L 254.548984 100.617268 
L 253.907435 101.313997 
L 253.56355 102.72723 
L 254.628055 103.640401 
L 255.071832 103.786487 
L 256.044937 103.970356 
L 257.606613 104.048579 
L 262.62568 103.459375 
L 268.110309 102.024875 
L 271.874664 100.69915 
L 273.615605 99.99862 
L 278.671551 97.631081 
L 282.399085 95.562053 
L 283.20978 95.522835 
L 283.124699 96.421815 
L 283.261029 98.707195 
L 283.81793 99.905987 
L 284.381379 100.539295 
L 286.42474 101.493886 
L 287.274128 101.606506 
L 288.911926 101.594851 
L 291.679873 101.229243 
L 299.720877 99.884718 
L 306.416635 99.195608 
L 313.161953 98.820366 
L 321.516193 98.606765 
L 332.515522 98.568068 
L 343.792307 98.553763 
L 344.548805 98.244629 
L 344.575422 97.682303 
L 344.080322 96.581631 
L 343.551255 95.446995 
L 343.551255 95.446995 
" style="fill:none;stroke:#000000;stroke-linecap:square;stroke-opacity:0.7;stroke-width:1.2;"/>
   </g>
   <g id="line2d_18">
    <path clip-path="url(#p88b964e49d)" d="M 350.162934 64.648594 
L 347.148382 64.56366 
L 342.269382 64.244183 
L 333.784861 63.4333 
L 319.985292 62.084993 
L 313.225141 61.662839 
L 308.279594 61.393456 
L 307.566936 61.115354 
L 307.093349 60.541066 
L 306.758227 60.116818 
L 305.574577 59.145987 
L 304.836526 58.741282 
L 301.231926 57.608151 
L 298.621756 57.272519 
L 294.882689 57.269085 
L 291.79238 57.63983 
L 289.270826 58.183423 
L 284.925963 59.566963 
L 281.139718 60.817241 
L 279.56508 61.163493 
L 276.534632 61.554122 
L 271.072546 62.183753 
L 268.322417 62.792488 
L 266.409888 63.453134 
L 264.751102 64.315438 
L 263.844914 65.032062 
L 263.128145 66.072992 
L 263.025188 66.65917 
L 263.243677 67.383459 
L 263.391375 67.588142 
L 263.857878 68.008098 
L 264.675711 68.433325 
L 265.69669 68.729959 
L 267.903343 68.942279 
L 269.620105 68.859053 
L 273.600594 68.097596 
L 275.485662 67.506263 
L 276.973586 66.947085 
L 281.649015 65.036535 
L 282.747963 64.925938 
L 283.715427 65.140412 
L 285.120926 65.796043 
L 288.084128 67.304772 
L 290.957402 68.400139 
L 292.825589 68.894161 
L 294.967446 69.25749 
L 297.159367 69.410381 
L 300.047487 69.28346 
L 303.084119 68.788433 
L 308.792502 67.369221 
L 312.213578 66.63295 
L 315.680285 66.106682 
L 318.996206 65.787504 
L 323.802992 65.570337 
L 328.132254 65.567429 
L 333.469334 65.7727 
L 338.369499 66.157585 
L 346.020193 66.930416 
L 346.211937 66.726955 
L 346.11971 66.15001 
L 345.418714 64.307513 
L 345.418714 64.307513 
" style="fill:none;stroke:#000000;stroke-linecap:square;stroke-opacity:0.7;stroke-width:1.2;"/>
   </g>
   <g id="line2d_19">
    <path clip-path="url(#p88b964e49d)" d="M 458.947913 225.853745 
L 457.883759 226.340461 
L 456.402315 226.611783 
L 455.501551 226.647186 
L 453.31352 226.459123 
L 450.569568 225.849231 
L 448.323244 225.164431 
L 437.565246 221.605059 
L 434.539986 220.839717 
L 428.869226 219.83564 
L 424.588865 219.426787 
L 419.86025 219.226133 
L 401.107227 218.965851 
L 397.817691 219.005611 
L 390.016642 219.48276 
L 386.879733 219.915857 
L 384.886544 220.303403 
L 381.898205 221.1293 
L 380.208907 221.804453 
L 378.750033 222.624159 
L 377.816122 223.417413 
L 377.160647 224.812256 
L 377.751798 226.002961 
L 378.011033 226.200905 
L 379.194011 226.720915 
L 379.913465 226.873733 
L 381.319901 226.952279 
L 383.790921 226.413451 
L 384.615193 225.757639 
L 384.701796 225.491495 
L 383.48637 224.608131 
L 382.028191 224.540956 
L 380.0989 224.919923 
L 378.971409 225.432384 
L 378.461878 225.824606 
L 378.150544 226.297288 
L 378.136044 226.588285 
L 378.257906 226.820309 
L 379.589012 227.237796 
L 383.504079 226.223244 
L 385.937729 224.710419 
L 387.946434 222.858679 
L 388.585288 222.275384 
L 389.162569 222.181289 
L 389.762942 222.613189 
L 391.272525 223.982256 
L 392.814013 225.080263 
L 394.433479 225.915557 
L 395.14482 226.194371 
L 396.486697 226.591111 
L 398.857778 226.926571 
L 400.86557 226.899028 
L 402.813326 226.656051 
L 410.372254 225.12018 
L 413.240091 224.860519 
L 420.364504 225.269764 
L 425.488912 226.085488 
L 439.365993 228.561215 
L 444.28805 229.122094 
L 447.998831 229.19602 
L 449.583974 229.027803 
L 450.689081 228.756612 
L 451.739105 228.235886 
L 452.296091 227.679264 
L 452.571646 227.157985 
L 452.75596 226.240781 
L 452.702575 225.011048 
L 452.387959 223.239242 
L 451.813274 220.552201 
L 451.813274 220.552201 
" style="fill:none;stroke:#000000;stroke-linecap:square;stroke-opacity:0.7;stroke-width:1.2;"/>
   </g>
   <g id="line2d_20">
    <path clip-path="url(#p88b964e49d)" d="M 459.232719 195.268646 
L 456.846237 194.525091 
L 454.120868 193.880526 
L 451.140138 193.341402 
L 448.186343 192.946886 
L 443.064485 192.560826 
L 438.729979 192.492884 
L 432.884723 192.64457 
L 426.642652 192.815762 
L 423.900645 192.726638 
L 422.96105 192.633569 
L 420.836549 192.168311 
L 420.201681 191.903481 
L 418.885643 190.955584 
L 415.860983 187.677203 
L 415.100182 187.213745 
L 413.437409 186.536139 
L 408.395559 185.857862 
L 407.252872 185.865104 
L 401.779889 186.38685 
L 397.319005 187.202933 
L 390.837198 188.409585 
L 384.451253 189.257949 
L 378.933762 189.98045 
L 376.300704 190.461294 
L 373.48062 191.243997 
L 371.729513 192.06782 
L 370.743932 192.899375 
L 370.418373 193.417824 
L 370.272101 193.984045 
L 370.373177 194.710062 
L 370.867434 195.532744 
L 371.484498 196.119516 
L 372.771791 196.92236 
L 375.283158 197.844641 
L 376.504887 198.125128 
L 378.85291 198.458061 
L 381.528217 198.577036 
L 384.71736 198.420624 
L 389.39878 197.671535 
L 392.82117 196.772051 
L 396.313402 195.828404 
L 397.681625 195.776954 
L 398.252991 195.873597 
L 399.868985 196.457597 
L 402.60188 197.761446 
L 405.581394 198.976315 
L 407.669515 199.591104 
L 409.548217 199.940163 
L 411.909049 200.052812 
L 414.191921 199.792571 
L 416.83293 199.177795 
L 421.992748 197.911484 
L 425.303435 197.283051 
L 430.347257 196.574174 
L 435.801895 196.061603 
L 441.569778 195.748946 
L 446.517987 195.656481 
L 455.06815 195.674288 
L 455.38088 195.390052 
L 455.402184 195.173174 
L 454.994066 193.566469 
L 454.994066 193.566469 
" style="fill:none;stroke:#000000;stroke-linecap:square;stroke-opacity:0.7;stroke-width:1.2;"/>
   </g>
   <g id="line2d_21">
    <path clip-path="url(#p88b964e49d)" d="M 458.749104 160.573828 
L 457.28905 160.868409 
L 455.579197 160.986734 
L 452.678807 160.931386 
L 449.468543 160.661715 
L 445.168743 160.104225 
L 435.149442 158.448503 
L 427.537074 157.266795 
L 422.619232 156.710192 
L 418.267542 156.441169 
L 414.997153 156.423903 
L 410.721296 156.704516 
L 407.651604 157.131759 
L 404.458985 157.608539 
L 401.270055 157.657171 
L 398.808893 157.367323 
L 390.685816 156.124764 
L 387.87498 155.869152 
L 386.15586 155.796029 
L 384.059914 155.819119 
L 381.184486 156.135776 
L 377.73332 157.413349 
L 376.908419 158.13705 
L 376.28343 159.259507 
L 376.171244 160.445311 
L 376.224331 161.575065 
L 376.003559 161.787167 
L 375.304668 161.908712 
L 371.672879 162.063013 
L 367.744274 162.650378 
L 366.607819 162.93044 
L 364.534431 163.605042 
L 362.319873 164.681219 
L 361.652192 165.148618 
L 361.080613 165.687318 
L 360.645695 166.561124 
L 362.073924 167.811847 
L 363.818487 168.01215 
L 366.081383 167.906024 
L 368.05459 167.627434 
L 371.527464 166.852206 
L 376.971025 165.070022 
L 381.454104 163.12099 
L 385.631823 160.855162 
L 388.601448 159.094901 
L 389.136106 159.855338 
L 389.241937 160.314241 
L 389.617672 161.434974 
L 391.79317 163.895222 
L 393.195744 164.471827 
L 394.195006 164.669165 
L 396.582601 164.71944 
L 398.993785 164.464546 
L 406.206236 163.541941 
L 411.017814 163.22194 
L 416.295525 163.119554 
L 421.552603 163.190908 
L 430.366514 163.540272 
L 442.749526 164.289342 
L 450.611238 164.725876 
L 452.3183 164.6034 
L 452.74762 164.440131 
L 453.046685 163.963814 
L 452.694288 162.63092 
L 451.809144 160.437414 
L 451.809144 160.437414 
" style="fill:none;stroke:#000000;stroke-linecap:square;stroke-opacity:0.7;stroke-width:1.2;"/>
   </g>
   <g id="line2d_22">
    <path clip-path="url(#p88b964e49d)" d="M 460.099249 130.413802 
L 458.817456 129.643011 
L 457.885896 129.279654 
L 456.10625 128.81973 
L 451.800081 128.125653 
L 447.767126 127.39286 
L 442.755991 126.146926 
L 436.409117 124.443196 
L 433.530068 123.80964 
L 429.360233 123.179342 
L 425.879829 122.942185 
L 421.499143 122.92314 
L 419.007085 122.897938 
L 416.712158 122.683662 
L 414.660939 122.211782 
L 412.509914 121.425623 
L 407.164116 119.20375 
L 404.514571 118.453461 
L 402.057091 118.099069 
L 399.866582 118.09676 
L 398.323087 118.292788 
L 395.893215 118.988354 
L 394.311085 119.752879 
L 392.610327 120.937867 
L 391.536874 121.922223 
L 389.802193 123.663672 
L 389.022622 124.211497 
L 387.316664 124.740802 
L 385.723955 124.830498 
L 383.34724 124.736246 
L 378.65391 124.452956 
L 374.501075 124.481856 
L 373.441001 124.58795 
L 371.229213 125.111598 
L 370.641569 125.403521 
L 370.278206 125.674566 
L 369.921027 126.146778 
L 369.821532 126.812242 
L 370.00896 127.383198 
L 370.484638 128.04891 
L 371.174955 128.684157 
L 372.67957 129.646086 
L 374.130619 130.315102 
L 375.663839 130.854536 
L 377.762734 131.386432 
L 380.649553 131.802427 
L 384.395886 131.860117 
L 388.060166 131.386101 
L 390.446663 130.764923 
L 394.578505 129.432618 
L 395.480467 129.458451 
L 396.200118 129.644618 
L 398.471773 130.703945 
L 402.040941 132.538169 
L 404.474222 133.615771 
L 407.290792 134.580763 
L 409.108005 134.985745 
L 411.375742 135.186618 
L 413.15166 135.101051 
L 415.464774 134.754361 
L 428.651288 132.222157 
L 434.332842 131.480447 
L 439.279235 131.012307 
L 445.418751 130.660545 
L 451.10344 130.580292 
L 454.445281 130.511413 
L 454.808285 130.35958 
L 454.918708 130.098231 
L 454.469312 128.519419 
L 454.469312 128.519419 
" style="fill:none;stroke:#000000;stroke-linecap:square;stroke-opacity:0.7;stroke-width:1.2;"/>
   </g>
   <g id="line2d_23">
    <path clip-path="url(#p88b964e49d)" d="M 458.660134 101.563231 
L 458.383278 100.737676 
L 457.361768 98.855573 
L 456.377455 97.828815 
L 454.782481 96.6297 
L 452.072106 94.969514 
L 449.434152 93.626665 
L 446.343658 92.344057 
L 443.657254 91.451703 
L 440.231756 90.575529 
L 436.705632 89.939172 
L 433.176064 89.52898 
L 428.924748 89.267158 
L 423.36402 89.15215 
L 411.267724 89.15085 
L 407.237744 89.316938 
L 403.53629 89.669283 
L 400.884691 90.0965 
L 397.29794 91.018888 
L 396.150386 91.432693 
L 393.864042 92.531824 
L 392.487374 93.494631 
L 391.75047 94.209773 
L 391.258181 94.876281 
L 390.931392 95.608197 
L 390.861174 96.381503 
L 390.904512 96.592873 
L 391.143848 97.052455 
L 391.708128 97.404695 
L 392.161716 97.344322 
L 392.328012 97.104012 
L 392.228611 96.669663 
L 391.925781 96.302748 
L 390.8038 95.603957 
L 389.067193 95.067493 
L 387.381333 94.853855 
L 384.805624 94.984778 
L 383.312657 95.36322 
L 382.320977 95.838395 
L 381.656817 96.440916 
L 381.437736 97.091514 
L 381.604027 97.619292 
L 381.794881 97.862758 
L 382.719358 98.484612 
L 384.226776 98.963785 
L 384.818666 99.072354 
L 386.557046 99.231322 
L 389.528437 99.104808 
L 390.904388 98.90644 
L 392.740678 98.510372 
L 394.65944 97.926045 
L 396.924075 96.973787 
L 399.05249 95.942521 
L 399.699544 96.062863 
L 400.756044 96.885172 
L 402.422516 98.060195 
L 404.097323 98.939407 
L 405.994477 99.656988 
L 407.465957 100.040447 
L 409.174908 100.308717 
L 411.350035 100.38026 
L 414.098516 100.064747 
L 417.553202 99.274102 
L 420.86344 98.538931 
L 424.603302 97.964666 
L 428.261806 97.638128 
L 433.369458 97.461726 
L 439.094102 97.548895 
L 445.026286 97.910832 
L 450.404827 98.498606 
L 454.324975 98.955246 
L 454.446165 98.806267 
L 454.305209 98.374664 
L 453.599804 96.927462 
L 453.599804 96.927462 
" style="fill:none;stroke:#000000;stroke-linecap:square;stroke-opacity:0.7;stroke-width:1.2;"/>
   </g>
   <g id="line2d_24">
    <path clip-path="url(#p88b964e49d)" d="M 459.532401 65.997552 
L 456.595382 65.185887 
L 451.724112 64.128226 
L 445.943431 63.079166 
L 438.965937 62.05099 
L 433.58746 61.498225 
L 429.540808 61.271732 
L 425.469906 61.245369 
L 421.036521 61.477537 
L 417.707278 61.840288 
L 412.855291 62.632278 
L 407.966555 63.493569 
L 406.011814 63.613129 
L 404.57818 63.480234 
L 402.403741 62.897916 
L 398.230895 61.565506 
L 396.361154 61.186021 
L 394.885365 61.011534 
L 393.357991 60.950268 
L 391.873611 61.010467 
L 387.933394 61.819845 
L 386.559688 62.389444 
L 385.25444 63.153537 
L 384.121345 64.140198 
L 383.827711 64.499612 
L 383.409045 65.224244 
L 383.237675 66.153568 
L 383.276397 66.349578 
L 382.891396 65.894719 
L 382.189452 65.324324 
L 380.905696 64.564777 
L 379.241228 63.879642 
L 377.673673 63.486054 
L 376.462484 63.385802 
L 375.989368 63.42384 
L 375.278884 63.674977 
L 375.03689 64.00411 
L 375.205377 64.661281 
L 375.626683 65.124803 
L 376.546607 65.762652 
L 377.381591 66.17924 
L 379.103861 66.79338 
L 380.809912 67.183998 
L 382.322504 67.387017 
L 384.647945 67.456257 
L 386.738155 67.252173 
L 388.669444 66.784303 
L 390.379654 66.043628 
L 392.312241 64.955801 
L 392.567094 64.957531 
L 396.273408 66.743486 
L 397.353732 67.269984 
L 401.369749 68.928087 
L 404.235888 69.822236 
L 405.882452 70.218839 
L 409.598769 70.74755 
L 412.057529 70.770673 
L 414.845242 70.466003 
L 417.605307 69.902618 
L 427.167504 67.688484 
L 431.931688 66.857077 
L 437.386112 66.158452 
L 443.079682 65.711109 
L 447.083127 65.586227 
L 450.917513 65.649271 
L 454.423908 65.741283 
L 454.585076 65.614455 
L 454.646801 65.321629 
L 454.605329 64.786878 
L 454.605329 64.786878 
" style="fill:none;stroke:#000000;stroke-linecap:square;stroke-opacity:0.7;stroke-width:1.2;"/>
   </g>
   <g id="line2d_25">
    <path clip-path="url(#p88b964e49d)" d="M 566.634921 226.403026 
L 553.019039 222.870456 
L 549.115128 221.952984 
L 542.600898 220.767133 
L 537.609841 220.169526 
L 532.745293 219.835277 
L 527.629162 219.71073 
L 520.708813 219.598319 
L 516.137558 219.244407 
L 512.762508 218.964549 
L 508.525676 218.800269 
L 504.610973 218.935081 
L 500.747462 219.429957 
L 498.390502 219.976887 
L 496.526837 220.610548 
L 494.928421 221.402051 
L 494.324199 221.818723 
L 493.408757 222.919324 
L 493.373609 223.460152 
L 493.748256 223.86557 
L 494.064602 223.876656 
L 494.104716 223.743995 
L 493.870004 223.551331 
L 492.86645 223.307927 
L 492.158489 223.285941 
L 490.701348 223.482469 
L 489.546715 223.892403 
L 488.886953 224.301214 
L 488.628376 224.537896 
L 488.258257 225.245289 
L 488.252512 225.398789 
L 488.400498 225.841483 
L 489.047221 226.378437 
L 490.281796 226.726196 
L 492.13262 226.698137 
L 493.68997 226.339143 
L 496.003237 225.229515 
L 497.449118 224.059769 
L 498.26095 223.527271 
L 498.607855 223.704073 
L 500.828616 225.650547 
L 502.436957 226.614066 
L 503.772968 227.178286 
L 505.099691 227.562643 
L 505.87409 227.71451 
L 508.213152 227.883558 
L 509.414144 227.818989 
L 511.765167 227.447847 
L 515.115256 226.56386 
L 518.613827 225.63417 
L 520.462532 225.287466 
L 522.24175 225.081633 
L 523.5954 225.007838 
L 527.426056 225.127246 
L 534.303589 226.12227 
L 542.191752 227.763294 
L 550.584722 229.478439 
L 554.340649 230.046488 
L 556.625503 230.217783 
L 558.468508 230.109936 
L 559.418158 229.820034 
L 560.021844 229.36448 
L 560.162201 229.170742 
L 560.451351 227.829891 
L 560.230992 226.168424 
L 559.19256 221.670514 
L 559.19256 221.670514 
" style="fill:none;stroke:#000000;stroke-linecap:square;stroke-opacity:0.7;stroke-width:1.2;"/>
   </g>
   <g id="line2d_26">
    <path clip-path="url(#p88b964e49d)" d="M 565.285633 193.870581 
L 564.430514 194.209731 
L 563.221872 194.37099 
L 560.643673 194.428255 
L 556.569504 194.208015 
L 550.959376 193.619074 
L 542.225414 192.447671 
L 533.186804 191.31427 
L 527.47559 190.844059 
L 523.214034 190.736844 
L 519.771676 190.896854 
L 516.131779 191.364894 
L 514.63336 191.498085 
L 513.54679 191.448421 
L 511.649716 191.094717 
L 504.109207 189.241092 
L 500.543276 188.731814 
L 497.905324 188.618419 
L 497.105375 188.640654 
L 493.283832 189.272742 
L 492.102038 189.735178 
L 491.246715 190.20741 
L 489.697059 191.603609 
L 488.560365 193.09083 
L 487.624764 193.544741 
L 486.015209 193.742609 
L 481.828064 194.044931 
L 478.178138 194.583657 
L 475.007159 195.346976 
L 473.199505 195.937225 
L 470.519919 197.113863 
L 469.415765 197.770173 
L 468.535587 198.439822 
L 467.700661 199.420954 
L 467.513255 199.925681 
L 467.541311 200.422742 
L 467.990456 201.007732 
L 468.35834 201.224507 
L 469.763568 201.602813 
L 470.84117 201.689136 
L 472.083755 201.675942 
L 475.481081 201.272795 
L 479.524226 200.351633 
L 483.631502 199.071432 
L 487.803173 197.48051 
L 492.979092 195.172195 
L 495.843609 193.88146 
L 497.433945 193.487473 
L 498.093733 193.688237 
L 498.345447 193.90268 
L 499.069794 194.95095 
L 500.075127 196.427492 
L 500.409287 196.816986 
L 502.073218 198.192237 
L 503.610614 198.911878 
L 504.82525 199.235627 
L 506.865656 199.432393 
L 508.776925 199.330706 
L 510.968682 198.989715 
L 516.618372 197.686734 
L 520.455094 196.865196 
L 525.536597 196.059441 
L 529.151069 195.668119 
L 533.622316 195.348872 
L 539.882514 195.138148 
L 545.405386 195.138805 
L 552.002554 195.36076 
L 557.832055 195.798357 
L 560.486175 196.019952 
L 560.988341 195.92596 
L 561.05898 195.673349 
L 560.872255 195.192361 
L 560.135112 193.602997 
L 560.135112 193.602997 
" style="fill:none;stroke:#000000;stroke-linecap:square;stroke-opacity:0.7;stroke-width:1.2;"/>
   </g>
   <g id="line2d_27">
    <path clip-path="url(#p88b964e49d)" d="M 565.858363 161.730875 
L 543.510383 158.103272 
L 536.95195 157.202066 
L 532.123051 156.730973 
L 527.223695 156.508073 
L 524.008433 156.565887 
L 520.673742 156.88968 
L 516.948164 157.550276 
L 515.719917 157.339502 
L 511.122262 155.717039 
L 507.332823 154.883422 
L 504.414068 154.652276 
L 502.054136 154.782824 
L 500.914154 154.969783 
L 498.691234 155.614917 
L 494.194396 157.65411 
L 491.989517 158.231315 
L 488.326793 158.756347 
L 483.287068 159.623448 
L 482.227955 159.892812 
L 479.592828 160.795902 
L 477.831773 161.728495 
L 476.805624 162.625776 
L 476.452739 163.263258 
L 476.565475 164.108272 
L 477.817501 164.925744 
L 479.524423 165.250555 
L 482.908221 165.184548 
L 487.556985 164.32424 
L 494.060181 162.072833 
L 497.545282 160.650651 
L 498.098941 160.634689 
L 498.659896 160.967868 
L 500.395961 163.238737 
L 501.588603 164.336932 
L 502.642334 165.023876 
L 504.801686 165.859665 
L 505.964835 166.066065 
L 507.216826 166.136455 
L 509.471394 165.946557 
L 510.751004 165.703233 
L 518.816683 163.624555 
L 521.609845 163.105371 
L 525.707921 162.621878 
L 529.238909 162.417943 
L 534.267983 162.370007 
L 538.982077 162.508305 
L 546.830787 163.008057 
L 555.496157 163.825531 
L 558.883134 164.101885 
L 560.200185 164.026275 
L 560.68357 163.745308 
L 560.734491 163.0102 
L 560.364851 161.904182 
L 559.624097 159.931072 
L 559.624097 159.931072 
" style="fill:none;stroke:#000000;stroke-linecap:square;stroke-opacity:0.7;stroke-width:1.2;"/>
   </g>
   <g id="line2d_28">
    <path clip-path="url(#p88b964e49d)" d="M 567.114803 129.829703 
L 564.350356 129.271965 
L 559.409716 128.308728 
L 554.087308 126.954387 
L 550.203104 125.998007 
L 545.303555 125.086377 
L 540.436736 124.530047 
L 535.766921 124.231353 
L 526.667963 123.732635 
L 521.077909 123.126266 
L 509.334358 121.66987 
L 505.580828 121.485951 
L 500.083038 121.745864 
L 496.735105 122.389555 
L 494.510788 123.198801 
L 492.937315 124.20405 
L 492.254437 125.030749 
L 492.086046 125.434467 
L 492.039055 126.109484 
L 492.159687 126.514186 
L 492.556251 127.087571 
L 493.319473 127.662132 
L 494.548604 128.152281 
L 495.860176 128.380494 
L 497.231795 128.361243 
L 498.098166 128.156519 
L 498.463923 127.881373 
L 498.356825 127.698417 
L 498.009949 127.627033 
L 497.122076 127.781538 
L 496.411776 128.181406 
L 495.9495 128.928255 
L 495.986946 129.35557 
L 496.275604 129.814146 
L 497.004439 130.297083 
L 498.766991 130.638713 
L 501.530261 130.020185 
L 502.551878 129.338627 
L 503.249882 128.419023 
L 503.390207 127.75426 
L 503.087434 127.138136 
L 502.717344 127.055168 
L 502.225798 127.519146 
L 502.22914 128.47834 
L 502.578412 129.279615 
L 503.359628 130.266897 
L 504.270219 131.034812 
L 505.614761 131.828321 
L 506.558194 132.230129 
L 508.430543 132.75721 
L 510.60668 133.018488 
L 512.63317 132.995062 
L 516.028003 132.55158 
L 525.165896 130.909027 
L 528.66206 130.552494 
L 534.116972 130.290624 
L 540.014937 130.282105 
L 547.300614 130.51689 
L 560.725369 131.092159 
L 561.619485 130.836698 
L 561.884894 130.496968 
L 561.892426 129.899583 
L 561.72993 129.274565 
L 560.976433 127.024466 
L 560.976433 127.024466 
" style="fill:none;stroke:#000000;stroke-linecap:square;stroke-opacity:0.7;stroke-width:1.2;"/>
   </g>
   <g id="line2d_29">
    <path clip-path="url(#p88b964e49d)" d="M 568.299462 98.078792 
L 567.185731 97.536765 
L 565.463884 97.035688 
L 564.010376 96.804213 
L 560.181415 96.543807 
L 555.269316 96.200273 
L 551.078734 95.591634 
L 540.212166 93.693113 
L 537.749244 93.472698 
L 533.651087 93.377893 
L 526.758395 93.447049 
L 525.561688 93.25586 
L 524.024018 92.734908 
L 522.413829 91.782081 
L 516.953237 87.566914 
L 514.671026 86.387701 
L 513.971602 86.12878 
L 510.679671 85.573592 
L 509.682866 85.628131 
L 507.856973 86.013243 
L 506.481499 86.552477 
L 505.486349 87.064568 
L 502.201681 88.978414 
L 499.428882 90.107239 
L 497.380974 90.624376 
L 495.806503 90.905425 
L 491.857364 91.351661 
L 479.151158 92.170019 
L 476.313627 92.591331 
L 474.529356 93.094381 
L 473.760689 93.458423 
L 472.712189 94.658061 
L 472.666944 95.187201 
L 472.759092 95.646127 
L 473.359215 96.75385 
L 474.065105 97.565613 
L 476.49 99.50816 
L 478.284916 100.595886 
L 479.382121 101.174357 
L 482.444881 102.529871 
L 484.567163 103.283476 
L 491.718651 104.881311 
L 491.987924 104.914215 
L 496.436116 105.155368 
L 499.171521 104.9901 
L 499.761509 104.918137 
L 501.834056 104.546719 
L 508.078985 102.397873 
L 509.83471 102.396613 
L 516.665267 103.333911 
L 519.095192 103.196523 
L 526.783732 102.130773 
L 532.13955 101.926627 
L 544.453653 101.918138 
L 554.338334 101.887257 
L 559.590237 101.661057 
L 561.401697 101.436361 
L 562.762309 101.078485 
L 563.487807 100.659055 
L 563.750821 100.366265 
L 564.000053 99.757813 
L 564.049442 99.369152 
L 563.991895 98.118964 
L 563.841441 96.790262 
L 563.841441 96.790262 
" style="fill:none;stroke:#000000;stroke-linecap:square;stroke-opacity:0.7;stroke-width:1.2;"/>
   </g>
   <g id="line2d_30">
    <path clip-path="url(#p88b964e49d)" d="M 567.141833 65.964483 
L 566.755206 65.586194 
L 565.787012 65.11725 
L 562.009454 64.002829 
L 557.981695 62.353558 
L 550.445463 58.94509 
L 547.001474 57.702588 
L 543.565215 56.774328 
L 540.18166 56.177996 
L 537.1163 55.893648 
L 534.358704 55.816275 
L 529.770108 55.949929 
L 517.986419 56.517737 
L 512.369231 56.545025 
L 502.491797 56.550609 
L 497.67448 56.794815 
L 494.291103 57.172218 
L 491.779326 57.612737 
L 488.014061 58.651917 
L 486.866539 59.099788 
L 485.022372 60.025106 
L 483.54527 61.072731 
L 482.150483 62.790349 
L 481.862939 63.768148 
L 482.01857 64.827438 
L 482.550677 65.578817 
L 483.121396 65.992512 
L 484.300093 66.394381 
L 484.479698 66.419578 
L 485.718502 66.356294 
L 486.103813 66.225634 
L 486.617916 65.799555 
L 486.663102 65.4455 
L 486.329877 64.99244 
L 486.110509 64.845371 
L 484.85841 64.41263 
L 483.077787 64.253044 
L 479.945072 64.68738 
L 479.30993 64.893944 
L 478.348974 65.33285 
L 477.432901 66.101679 
L 477.308701 66.960926 
L 479.039388 68.01711 
L 489.946641 67.419638 
L 491.750652 66.94255 
L 495.663096 65.562807 
L 500.465081 63.286213 
L 501.295099 63.847533 
L 503.407788 65.871473 
L 505.47698 67.21186 
L 507.598822 68.162597 
L 510.497995 68.92064 
L 512.67568 69.126418 
L 515.108439 69.053837 
L 519.678276 68.493935 
L 525.949488 67.741843 
L 532.623203 67.223102 
L 540.873432 66.866885 
L 549.571713 66.736821 
L 561.644147 66.765451 
L 562.224709 66.593692 
L 562.392208 66.350114 
L 562.367337 66.05189 
L 561.802187 64.653178 
L 561.802187 64.653178 
" style="fill:none;stroke:#000000;stroke-linecap:square;stroke-opacity:0.7;stroke-width:1.2;"/>
   </g>
   <g id="line2d_31">
    <path clip-path="url(#p88b964e49d)" d="M 675.085025 228.578117 
L 673.848036 227.807972 
L 671.9138 226.872831 
L 669.5808 225.992324 
L 665.034532 224.579549 
L 660.152923 223.26081 
L 657.631687 222.687874 
L 653.05667 221.902217 
L 649.900824 221.561806 
L 645.558085 221.342903 
L 641.123065 221.360426 
L 631.081818 221.556465 
L 627.462967 221.320441 
L 619.533918 220.599256 
L 616.712331 220.646538 
L 614.400755 220.924323 
L 612.857142 221.267645 
L 611.901388 221.561121 
L 610.36502 222.207348 
L 609.562694 222.665621 
L 608.12968 223.899067 
L 607.584451 224.826359 
L 607.477116 225.643803 
L 607.637527 226.098361 
L 608.054839 226.31019 
L 608.086396 226.227783 
L 608.024859 226.023713 
L 607.422327 225.404509 
L 606.548416 224.871112 
L 605.210682 224.311873 
L 603.731839 223.900684 
L 602.084409 223.637138 
L 600.592957 223.569493 
L 598.969048 223.721927 
L 598.298294 223.885155 
L 597.705123 224.112424 
L 596.886576 224.744426 
L 596.704071 225.228927 
L 596.718211 225.470797 
L 597.087791 226.126243 
L 597.566085 226.516176 
L 598.749816 227.06349 
L 599.632026 227.295202 
L 601.765059 227.504854 
L 604.674059 227.195629 
L 606.425374 226.688481 
L 608.287165 225.815611 
L 610.351184 224.620752 
L 610.632331 224.72595 
L 611.530275 225.43908 
L 612.84311 226.475016 
L 614.943099 227.811244 
L 617.936336 229.217857 
L 620.984732 230.181184 
L 623.031303 230.580984 
L 625.147035 230.779879 
L 627.428767 230.74069 
L 629.403239 230.500826 
L 632.103363 229.936248 
L 638.666898 228.370503 
L 642.526975 227.705979 
L 647.214457 227.180399 
L 652.264974 226.892601 
L 656.72743 226.839888 
L 661.815225 226.995549 
L 667.316869 227.418109 
L 669.508537 227.516478 
L 669.696928 227.469978 
L 669.922917 227.185873 
L 669.905545 226.982332 
L 669.198426 225.080397 
L 669.198426 225.080397 
" style="fill:none;stroke:#000000;stroke-linecap:square;stroke-opacity:0.7;stroke-width:1.2;"/>
   </g>
   <g id="line2d_32">
    <path clip-path="url(#p88b964e49d)" d="M 674.961987 195.824003 
L 673.839235 195.018515 
L 672.274982 194.168705 
L 670.742243 193.526808 
L 668.495689 192.793366 
L 665.381926 192.026946 
L 661.898249 191.401569 
L 657.535984 190.894433 
L 652.381354 190.631321 
L 647.156519 190.660495 
L 639.893993 190.979589 
L 635.040116 191.113464 
L 632.403521 191.029835 
L 628.870064 190.661335 
L 621.38581 189.638006 
L 617.879689 189.566987 
L 615.171715 189.825039 
L 613.743558 190.095499 
L 611.363451 190.810599 
L 609.001895 192.019511 
L 607.94977 192.888682 
L 607.240326 193.834289 
L 606.766788 194.609569 
L 604.594691 193.590127 
L 602.647127 192.998452 
L 600.643511 192.644208 
L 599.020381 192.560479 
L 597.701065 192.691365 
L 596.813122 192.995249 
L 596.39598 193.363791 
L 596.300589 193.674773 
L 596.396762 194.0454 
L 596.981594 194.659761 
L 597.905854 195.172219 
L 599.04604 195.576921 
L 600.772088 195.946205 
L 604.10868 196.135998 
L 606.75546 195.890304 
L 608.970188 195.409553 
L 611.296111 194.56973 
L 612.955555 193.680854 
L 614.194945 192.95936 
L 615.141045 193.091267 
L 619.191621 195.57446 
L 622.400909 197.045916 
L 625.223384 197.908415 
L 627.177906 198.213381 
L 628.942195 198.238296 
L 630.895774 197.993325 
L 634.472234 197.165675 
L 639.071753 196.172027 
L 643.123799 195.550446 
L 648.050426 195.066844 
L 653.471387 194.816126 
L 658.908032 194.832595 
L 662.745162 195.012997 
L 667.133112 195.418138 
L 669.913746 195.712937 
L 670.355365 195.608895 
L 670.44246 195.465847 
L 670.448684 195.20302 
L 670.299885 194.457452 
L 670.299885 194.457452 
" style="fill:none;stroke:#000000;stroke-linecap:square;stroke-opacity:0.7;stroke-width:1.2;"/>
   </g>
   <g id="line2d_33">
    <path clip-path="url(#p88b964e49d)" d="M 673.729931 165.573575 
L 673.07572 163.426423 
L 672.323021 162.024217 
L 671.777059 161.369518 
L 670.722177 160.529596 
L 669.412208 159.860187 
L 667.894537 159.316069 
L 665.311287 158.654215 
L 662.042371 158.060053 
L 657.319669 157.468823 
L 651.906743 157.029151 
L 633.304481 155.797686 
L 625.999868 155.173467 
L 623.0712 155.110543 
L 619.428969 155.346669 
L 617.236087 155.748097 
L 615.896846 156.146125 
L 614.126866 157.000911 
L 613.395361 157.60332 
L 613.082033 157.99893 
L 612.812895 158.785398 
L 612.938907 159.312125 
L 613.139224 159.475609 
L 612.526282 158.850907 
L 611.601715 158.319491 
L 610.053239 157.676235 
L 607.420249 156.962022 
L 604.551273 156.584617 
L 602.854448 156.555237 
L 600.971153 156.729199 
L 599.414611 157.108356 
L 598.233307 157.656101 
L 597.470432 158.31568 
L 597.121409 159.013728 
L 597.095394 159.526342 
L 597.331154 160.197923 
L 597.663204 160.643182 
L 598.545696 161.354342 
L 599.666113 161.907188 
L 601.21331 162.374382 
L 603.762256 162.710659 
L 605.907493 162.700537 
L 608.207835 162.448921 
L 610.321057 162.023783 
L 615.967491 160.69496 
L 617.001683 160.758673 
L 618.178219 160.994977 
L 624.169292 162.611223 
L 626.352696 162.9846 
L 628.899818 163.173022 
L 630.74345 163.103197 
L 632.873763 162.761986 
L 635.734368 161.930483 
L 637.931854 161.306215 
L 640.044838 160.910875 
L 643.253089 160.649504 
L 646.355063 160.648324 
L 651.25219 160.940281 
L 657.800536 161.674167 
L 664.155227 162.638326 
L 668.454882 163.287582 
L 669.625876 163.243625 
L 669.842947 163.118219 
L 669.975199 162.823825 
L 669.955416 162.490925 
L 669.381064 160.746947 
L 668.972244 159.574031 
L 668.972244 159.574031 
" style="fill:none;stroke:#000000;stroke-linecap:square;stroke-opacity:0.7;stroke-width:1.2;"/>
   </g>
   <g id="line2d_34">
    <path clip-path="url(#p88b964e49d)" d="M 674.421344 132.779723 
L 674.107997 132.119034 
L 673.381327 131.138886 
L 672.249875 130.139127 
L 668.611303 127.471759 
L 665.00417 125.07722 
L 662.127977 123.482628 
L 659.160409 122.146044 
L 658.38632 121.846663 
L 654.800255 120.705659 
L 651.288857 119.943015 
L 647.486723 119.449336 
L 644.246975 119.243447 
L 640.259568 119.181269 
L 633.514539 119.33559 
L 624.838654 119.76179 
L 620.059578 120.153293 
L 615.10383 120.802789 
L 611.449404 121.547052 
L 608.790928 122.31491 
L 606.59733 123.176056 
L 604.717722 124.193999 
L 603.576284 125.055954 
L 602.603974 126.176759 
L 602.216105 127.125001 
L 602.236127 127.817125 
L 602.477861 128.234319 
L 602.686031 128.244952 
L 602.535972 127.956636 
L 602.289851 127.714162 
L 601.099688 126.970581 
L 599.413509 126.314137 
L 598.505868 126.066428 
L 596.919263 125.773547 
L 594.994725 125.654287 
L 594.020345 125.71055 
L 592.753516 125.958631 
L 591.81056 126.39718 
L 591.312894 126.978655 
L 591.246386 127.293955 
L 591.438945 127.914564 
L 591.840132 128.364469 
L 592.625972 128.879539 
L 593.544375 129.259074 
L 595.021804 129.61709 
L 595.835121 129.722505 
L 598.441443 129.725705 
L 600.386545 129.432813 
L 602.555843 128.839891 
L 603.975164 128.455862 
L 604.930148 128.513555 
L 605.583769 128.788835 
L 609.751969 131.043239 
L 611.914378 131.816249 
L 612.476279 131.971115 
L 615.243685 132.47784 
L 617.492634 132.592652 
L 619.567175 132.475687 
L 621.514843 132.185075 
L 624.831281 131.368088 
L 630.964235 129.655766 
L 633.467785 129.218983 
L 635.686999 129.003015 
L 638.160302 128.925244 
L 641.568953 129.032545 
L 646.702215 129.502845 
L 653.296951 130.399874 
L 664.351368 132.008421 
L 666.699994 132.164693 
L 667.963532 132.068649 
L 668.684465 131.801066 
L 669.046456 131.414914 
L 669.125811 131.230958 
L 669.179592 130.216892 
L 668.972035 129.098727 
L 668.139939 125.682867 
L 668.139939 125.682867 
" style="fill:none;stroke:#000000;stroke-linecap:square;stroke-opacity:0.7;stroke-width:1.2;"/>
   </g>
   <g id="line2d_35">
    <path clip-path="url(#p88b964e49d)" d="M 675.490909 98.340015 
L 673.671254 97.891708 
L 672.352885 97.787555 
L 670.138246 97.916101 
L 666.054938 98.410063 
L 663.538974 98.352204 
L 662.174918 98.165907 
L 657.65778 97.137361 
L 643.068866 93.343059 
L 638.046226 91.659928 
L 634.662339 90.197177 
L 629.400451 87.509273 
L 625.573301 86.172835 
L 623.932405 86.147666 
L 621.467166 87.054924 
L 620.8907 87.465352 
L 620.129398 88.144478 
L 618.632409 90.003348 
L 616.914379 92.494066 
L 616.26181 92.983713 
L 615.862084 93.138493 
L 614.603504 93.233158 
L 611.93569 92.748716 
L 601.040841 90.120082 
L 597.8531 89.538774 
L 595.940925 89.252539 
L 591.192336 88.807176 
L 589.158398 88.779558 
L 585.689985 89.166011 
L 584.519377 89.555878 
L 584.032001 89.811212 
L 583.353118 90.381718 
L 583.071343 90.831212 
L 582.920181 91.464332 
L 583.175288 92.675522 
L 583.84362 93.758706 
L 585.320835 95.233172 
L 586.893101 96.324518 
L 588.29673 97.057123 
L 589.941447 97.685408 
L 591.070364 97.985801 
L 593.416951 98.292573 
L 594.555411 98.30763 
L 598.096251 98.279657 
L 600.350654 98.617834 
L 609.329643 100.55641 
L 612.576053 100.907547 
L 615.886323 100.988702 
L 619.082435 100.780816 
L 622.661138 100.194388 
L 624.197937 99.827348 
L 627.804701 98.733388 
L 632.828086 97.086636 
L 635.080436 96.579677 
L 635.756052 96.475005 
L 638.121718 96.282976 
L 641.41678 96.396282 
L 644.863356 96.831324 
L 648.452893 97.477129 
L 661.710587 100.196826 
L 665.258625 100.629439 
L 666.557656 100.613673 
L 667.491203 100.428914 
L 668.043106 100.138966 
L 668.503826 99.508292 
L 668.633282 98.243098 
L 668.368928 96.534212 
L 667.376757 92.08264 
L 667.376757 92.08264 
" style="fill:none;stroke:#000000;stroke-linecap:square;stroke-opacity:0.7;stroke-width:1.2;"/>
   </g>
   <g id="line2d_36">
    <path clip-path="url(#p88b964e49d)" d="M 672.985278 65.211261 
L 672.557367 65.727844 
L 671.76168 66.144632 
L 670.553172 66.470017 
L 668.894459 66.678452 
L 667.027092 66.741344 
L 663.22064 66.557898 
L 658.079852 65.960759 
L 641.791386 63.772619 
L 638.350852 63.521744 
L 634.648122 63.425542 
L 630.707938 63.601917 
L 626.250741 63.964596 
L 625.099082 63.102406 
L 621.400694 60.504665 
L 620.18969 59.942028 
L 618.617796 59.359197 
L 614.238615 58.454299 
L 612.778275 58.363418 
L 609.103457 58.589644 
L 607.336055 58.940285 
L 604.397225 59.896447 
L 602.313988 60.844622 
L 600.368837 61.824414 
L 597.671021 62.89344 
L 596.92464 63.082762 
L 592.262145 63.678563 
L 587.86781 64.087368 
L 584.250621 64.602769 
L 579.410659 65.703885 
L 576.484885 66.685663 
L 574.25213 67.677765 
L 572.257907 68.877027 
L 571.199436 69.785921 
L 570.620858 70.559292 
L 570.405786 71.332179 
L 570.694849 72.050913 
L 570.859555 72.207643 
L 571.631317 72.618722 
L 572.864824 72.889836 
L 574.904154 72.955722 
L 578.736438 72.505143 
L 584.288475 71.155915 
L 589.732344 69.320931 
L 595.219809 67.09538 
L 602.046936 64.230947 
L 603.241989 63.973722 
L 603.49387 63.96194 
L 604.470662 64.194781 
L 604.606278 64.276634 
L 605.542571 65.223797 
L 607.337453 67.38476 
L 608.083781 68.044683 
L 609.308387 68.85891 
L 610.111887 69.250211 
L 611.760737 69.785122 
L 612.845462 69.9803 
L 613.920081 70.075627 
L 615.753377 70.055263 
L 618.352349 69.733447 
L 622.145007 68.922034 
L 628.16096 67.576215 
L 631.876264 66.974612 
L 635.892932 66.552573 
L 640.304982 66.311937 
L 646.477121 66.259886 
L 652.951068 66.46081 
L 659.204612 66.853419 
L 668.448245 67.539865 
L 668.956779 67.243253 
L 668.995685 66.977701 
L 668.104536 64.263827 
L 668.104536 64.263827 
" style="fill:none;stroke:#000000;stroke-linecap:square;stroke-opacity:0.7;stroke-width:1.2;"/>
   </g>
  </g>
 </g>
 <defs>
  <clipPath id="p88b964e49d">
   <rect height="262.08" width="694.08" x="12.96" y="12.96"/>
  </clipPath>
 </defs>
</svg>
