<svg viewBox="0 0 1496 400" xmlns="http://www.w3.org/2000/svg"><g><g><g><g><g><line x1="40" y1="378" x2="35" y2="378" style="visibility: inherit;" fill="rgb(0, 0, 0)" stroke="rgb(204, 204, 204)" stroke-width="1px"></line><line x1="40" y1="330.75" x2="35" y2="330.75" style="visibility: inherit;" fill="rgb(0, 0, 0)" stroke="rgb(204, 204, 204)" stroke-width="1px"></line><line x1="40" y1="283.49999999999994" x2="35" y2="283.49999999999994" style="visibility: inherit;" fill="rgb(0, 0, 0)" stroke="rgb(204, 204, 204)" stroke-width="1px"></line><line x1="40" y1="236.24999999999997" x2="35" y2="236.24999999999997" style="visibility: inherit;" fill="rgb(0, 0, 0)" stroke="rgb(204, 204, 204)" stroke-width="1px"></line><line x1="40" y1="188.99999999999997" x2="35" y2="188.99999999999997" style="visibility: inherit;" fill="rgb(0, 0, 0)" stroke="rgb(204, 204, 204)" stroke-width="1px"></line><line x1="40" y1="141.74999999999991" x2="35" y2="141.74999999999991" style="visibility: inherit;" fill="rgb(0, 0, 0)" stroke="rgb(204, 204, 204)" stroke-width="1px"></line><line x1="40" y1="94.5" x2="35" y2="94.5" style="visibility: inherit;" fill="rgb(0, 0, 0)" stroke="rgb(204, 204, 204)" stroke-width="1px"></line><line x1="40" y1="47.24999999999994" x2="35" y2="47.24999999999994" style="visibility: inherit;" fill="rgb(0, 0, 0)" stroke="rgb(204, 204, 204)" stroke-width="1px"></line><line x1="40" y1="0" x2="35" y2="0" style="visibility: inherit;" fill="rgb(0, 0, 0)" stroke="rgb(204, 204, 204)" stroke-width="1px"></line></g><g transform="translate(30, 0)"><text x="0" y="378" dx="0em" dy="0.3em" style="text-anchor: end; visibility: hidden; font-family: &quot;Helvetica Neue&quot;, sans-serif; font-size: 12px; font-weight: 200;" fill="rgb(50, 49, 63)" stroke="none" stroke-width="1px">1.2</text><text x="0" y="330.75" dx="0em" dy="0.3em" style="text-anchor: end; visibility: inherit; font-family: &quot;Helvetica Neue&quot;, sans-serif; font-size: 12px; font-weight: 200;" fill="rgb(50, 49, 63)" stroke="none" stroke-width="1px">1.4</text><text x="0" y="283.49999999999994" dx="0em" dy="0.3em" style="text-anchor: end; visibility: inherit; font-family: &quot;Helvetica Neue&quot;, sans-serif; font-size: 12px; font-weight: 200;" fill="rgb(50, 49, 63)" stroke="none" stroke-width="1px">1.6</text><text x="0" y="236.24999999999997" dx="0em" dy="0.3em" style="text-anchor: end; visibility: inherit; font-family: &quot;Helvetica Neue&quot;, sans-serif; font-size: 12px; font-weight: 200;" fill="rgb(50, 49, 63)" stroke="none" stroke-width="1px">1.8</text><text x="0" y="188.99999999999997" dx="0em" dy="0.3em" style="text-anchor: end; visibility: inherit; font-family: &quot;Helvetica Neue&quot;, sans-serif; font-size: 12px; font-weight: 200;" fill="rgb(50, 49, 63)" stroke="none" stroke-width="1px">2</text><text x="0" y="141.74999999999991" dx="0em" dy="0.3em" style="text-anchor: end; visibility: inherit; font-family: &quot;Helvetica Neue&quot;, sans-serif; font-size: 12px; font-weight: 200;" fill="rgb(50, 49, 63)" stroke="none" stroke-width="1px">2.2</text><text x="0" y="94.5" dx="0em" dy="0.3em" style="text-anchor: end; visibility: inherit; font-family: &quot;Helvetica Neue&quot;, sans-serif; font-size: 12px; font-weight: 200;" fill="rgb(50, 49, 63)" stroke="none" stroke-width="1px">2.4</text><text x="0" y="47.24999999999994" dx="0em" dy="0.3em" style="text-anchor: end; visibility: inherit; font-family: &quot;Helvetica Neue&quot;, sans-serif; font-size: 12px; font-weight: 200;" fill="rgb(50, 49, 63)" stroke="none" stroke-width="1px">2.6</text><text x="0" y="0" dx="0em" dy="0.3em" style="text-anchor: end; visibility: hidden; font-family: &quot;Helvetica Neue&quot;, sans-serif; font-size: 12px; font-weight: 200;" fill="rgb(50, 49, 63)" stroke="none" stroke-width="1px">2.8</text></g><line x1="40" y1="0" x2="40" y2="378" fill="rgb(0, 0, 0)" stroke="rgb(204, 204, 204)" stroke-width="1px"></line></g></g><g transform="translate(40, 0)" clip-path="url(#clip_0)"><clipPath id="clip_0"><rect width="1456" height="378"></rect></clipPath><g><g><g><line x1="0" y1="0" x2="0" y2="378" fill="rgb(0, 0, 0)" stroke="rgb(60, 60, 60)" stroke-width="1px" opacity="0.25"></line><line x1="121.33333333333333" y1="0" x2="121.33333333333333" y2="378" fill="rgb(0, 0, 0)" stroke="rgb(60, 60, 60)" stroke-width="1px" opacity="0.25"></line><line x1="242.66666666666666" y1="0" x2="242.66666666666666" y2="378" fill="rgb(0, 0, 0)" stroke="rgb(60, 60, 60)" stroke-width="1px" opacity="0.25"></line><line x1="364" y1="0" x2="364" y2="378" fill="rgb(0, 0, 0)" stroke="rgb(60, 60, 60)" stroke-width="1px" opacity="0.25"></line><line x1="485.3333333333333" y1="0" x2="485.3333333333333" y2="378" fill="rgb(0, 0, 0)" stroke="rgb(60, 60, 60)" stroke-width="1px" opacity="0.25"></line><line x1="606.6666666666667" y1="0" x2="606.6666666666667" y2="378" fill="rgb(0, 0, 0)" stroke="rgb(60, 60, 60)" stroke-width="1px" opacity="0.25"></line><line x1="728" y1="0" x2="728" y2="378" fill="rgb(0, 0, 0)" stroke="rgb(60, 60, 60)" stroke-width="1px" opacity="0.25"></line><line x1="849.3333333333334" y1="0" x2="849.3333333333334" y2="378" fill="rgb(0, 0, 0)" stroke="rgb(60, 60, 60)" stroke-width="1px" opacity="0.25"></line><line x1="970.6666666666666" y1="0" x2="970.6666666666666" y2="378" fill="rgb(0, 0, 0)" stroke="rgb(60, 60, 60)" stroke-width="1px" opacity="0.25"></line><line x1="1092" y1="0" x2="1092" y2="378" fill="rgb(0, 0, 0)" stroke="rgb(60, 60, 60)" stroke-width="1px" opacity="0.25"></line><line x1="1213.3333333333335" y1="0" x2="1213.3333333333335" y2="378" fill="rgb(0, 0, 0)" stroke="rgb(60, 60, 60)" stroke-width="1px" opacity="0.25"></line><line x1="1334.6666666666665" y1="0" x2="1334.6666666666665" y2="378" fill="rgb(0, 0, 0)" stroke="rgb(60, 60, 60)" stroke-width="1px" opacity="0.25"></line><line x1="1456" y1="0" x2="1456" y2="378" fill="rgb(0, 0, 0)" stroke="rgb(60, 60, 60)" stroke-width="1px" opacity="0.25"></line></g><g><line x1="0" y1="378" x2="1456" y2="378" fill="rgb(0, 0, 0)" stroke="rgb(60, 60, 60)" stroke-width="1px" opacity="0.25"></line><line x1="0" y1="330.75" x2="1456" y2="330.75" fill="rgb(0, 0, 0)" stroke="rgb(60, 60, 60)" stroke-width="1px" opacity="0.25"></line><line x1="0" y1="283.49999999999994" x2="1456" y2="283.49999999999994" fill="rgb(0, 0, 0)" stroke="rgb(60, 60, 60)" stroke-width="1px" opacity="0.25"></line><line x1="0" y1="236.24999999999997" x2="1456" y2="236.24999999999997" fill="rgb(0, 0, 0)" stroke="rgb(60, 60, 60)" stroke-width="1px" opacity="0.25"></line><line x1="0" y1="188.99999999999997" x2="1456" y2="188.99999999999997" fill="rgb(0, 0, 0)" stroke="rgb(60, 60, 60)" stroke-width="1px" opacity="0.25"></line><line x1="0" y1="141.74999999999991" x2="1456" y2="141.74999999999991" fill="rgb(0, 0, 0)" stroke="rgb(60, 60, 60)" stroke-width="1px" opacity="0.25"></line><line x1="0" y1="94.5" x2="1456" y2="94.5" fill="rgb(0, 0, 0)" stroke="rgb(60, 60, 60)" stroke-width="1px" opacity="0.25"></line><line x1="0" y1="47.24999999999994" x2="1456" y2="47.24999999999994" fill="rgb(0, 0, 0)" stroke="rgb(60, 60, 60)" stroke-width="1px" opacity="0.25"></line><line x1="0" y1="0" x2="1456" y2="0" fill="rgb(0, 0, 0)" stroke="rgb(60, 60, 60)" stroke-width="1px" opacity="0.25"></line></g></g></g><g><g><line x1="0" y1="661.5" x2="1456" y2="661.5" fill="rgb(0, 0, 0)" stroke="rgb(153, 153, 153)" stroke-width="1.5px"></line></g></g><g><g><line x1="121.33333333333333" y1="0" x2="121.33333333333333" y2="378" fill="rgb(0, 0, 0)" stroke="rgb(153, 153, 153)" stroke-width="1.5px"></line></g></g><g><g><g><g><g><path stroke="rgb(255, 112, 67)" stroke-width="2px" d="M121.33333333333333,321.67382472753525L127.39999999999999,214.8803705871105L133.46666666666667,114.89373528957361L139.53333333333333,89.52725851535791L145.6,94.5140590667724L151.66666666666669,282.7245771288872L157.73333333333335,108.15332525968546L163.8,155.8375566601753L169.86666666666667,168.45416092872617L175.93333333333334,165.7502689361572L182,162.6189159750938L188.0666666666667,214.98375767469403L194.13333333333333,208.8387739062309L200.20000000000002,205.59561306238172L206.26666666666665,194.25646314024922L212.33333333333334,155.9060495495796L218.4,163.70015734434125L224.46666666666667,175.30592823028562L230.53333333333333,174.06843745708463L236.6,167.19633632898328L242.66666666666666,173.27395373582837L248.73333333333335,228.97078299522397L254.79999999999998,221.31563240289685L260.8666666666667,215.9990690052509L266.93333333333334,216.23454147577283L273,209.9498682618141L279.06666666666666,215.87320768833158L285.1333333333333,206.44628235697743L291.2,211.11819022893903L297.26666666666665,213.46215659379956L303.33333333333337,207.4894189238548L309.4,217.6757084727287L315.4666666666667,210.80631101131436L321.5333333333333,216.4313177168369L327.6,213.6071125566959L333.66666666666663,217.7904171645641L339.73333333333335,216.23975166678426L345.8,214.46358346939084L351.8666666666667,213.100766479969L357.93333333333334,210.462607383728L364,217.53928595781323L370.06666666666666,211.93072655797002L376.1333333333334,214.44564351439473L382.2,209.00043064355847L388.26666666666665,218.53037694096562L394.3333333333333,215.61438792943952L400.40000000000003,214.8735832571983L406.4666666666667,216.05624029040334L412.5333333333333,213.62646067142484L418.59999999999997,217.5440173745155L424.6666666666667,215.76962345838544L430.73333333333335,202.7663948535919L436.8,197.17121297121045L442.8666666666666,121.8809112310409L448.93333333333334,116.09923267364496L455,111.25071340799326L461.06666666666666,117.08449387550348L467.1333333333334,122.20540755987165L473.2,124.49462467432019L479.26666666666665,117.7298816442489L485.3333333333333,112.11481654644007L491.40000000000003,116.05045402050013L497.4666666666667,117.50705444812769L503.5333333333333,113.24140065908426L509.59999999999997,119.73329865932459L515.6666666666667,120.05007827281946L521.7333333333333,119.04898935556406L527.8,113.2614528536796L533.8666666666667,121.4667996168136L539.9333333333334,117.3687731623649L546,124.33933281898496L552.0666666666666,115.39436423778528L558.1333333333333,119.76371490955347L564.2,122.4907007217407L570.2666666666667,124.53962945938108L576.3333333333333,127.73198390007016L582.4,123.89283353090283L588.4666666666667,128.8472464084625L594.5333333333333,134.5783438682556L600.6,131.02454298734662L606.6666666666667,129.23567318916318L612.7333333333333,127.99930894374845L618.8,129.28670489788053L624.8666666666667,126.54248321056363L630.9333333333334,133.88417744636533L637,129.78305304050443L643.0666666666666,131.469465136528L649.1333333333333,130.19598180055615L655.2,134.2517634630203L661.2666666666667,131.9707700014114L667.3333333333333,131.17194914817807L673.4,135.30867183208463L679.4666666666667,129.71196913719174L685.5333333333333,129.57351887226102L691.6,135.3978365063667L697.6666666666667,135.15321099758145L703.7333333333333,132.4149599075317L709.8,132.3901762962341L715.8666666666667,133.25625085830686L721.9333333333334,137.98800551891324L728,132.6911845207214L734.0666666666666,134.27204096317288L740.1333333333333,138.11890804767606L746.1999999999999,143.1089755296707L752.2666666666668,136.91481882333753L758.3333333333334,137.49695205688474L764.4,148.14354085922238L770.4666666666667,136.82914638519284L776.5333333333333,142.59494090080258L782.6,142.38028103113172L788.6666666666666,147.53729993104932L794.7333333333332,145.2932565808296L800.8000000000001,151.85263359546659L806.8666666666667,143.05050873756406L812.9333333333334,154.69486320018765L819,160.7705091834068L825.0666666666666,168.45359766483304L831.1333333333333,167.18107187747952L837.1999999999999,164.5582898855209L843.2666666666668,188.27445977926251L849.3333333333334,193.03753191232678L855.4,198.0768568217754L861.4666666666667,197.95251631736753L867.5333333333333,203.47585389018056L873.6,202.40297698974607L879.6666666666666,204.38313120603559L885.7333333333332,206.4043473601341L891.8000000000001,209.27251526713368L897.8666666666667,208.4197618961334L903.9333333333334,210.76248908042905L910,210.1991688609123L916.0666666666666,212.62624481320378L922.1333333333333,214.07295995950696L928.1999999999999,209.85540890693662L934.2666666666668,208.52526122331616L940.3333333333334,214.81598952412602L946.4,215.9493046402931L952.4666666666667,214.95612958073613L958.5333333333333,212.49677860736844L964.6,215.75999164581296L970.6666666666666,204.54529488086698L976.7333333333332,211.99046069383618L982.8000000000001,214.17012298107144L988.8666666666667,213.37093600630757L994.9333333333334,213.4141665101051L1001,210.5718242526054L1007.0666666666666,211.5355406105518L1013.1333333333333,207.77124801278111L1019.1999999999999,206.23258003592488L1025.2666666666667,209.68992197513577L1031.3333333333335,212.28192159533498L1037.4,208.76394429802892L1043.4666666666667,209.18737792968747L1049.5333333333333,211.42629557847974L1055.6,211.2849445044994L1061.6666666666665,204.62882691621778L1067.7333333333333,208.1008700430393L1073.8,210.54715329408643L1079.8666666666668,208.9782098829746L1085.9333333333334,211.19775125384328L1092,210.075926721096L1098.0666666666666,207.8589763641357L1104.1333333333332,209.1554690301418L1110.2,207.85920166969296L1116.2666666666667,209.75396507978436L1122.3333333333335,210.5538842976093L1128.4,208.4657805562019L1134.4666666666667,208.07628357410428L1140.5333333333333,207.59627008438108L1146.6,208.75352391600606L1152.6666666666665,210.46302983164784L1158.7333333333333,208.74758148193357L1164.8,211.02122434973714L1170.8666666666668,209.63199028372762L1176.9333333333334,204.64181014895436L1183,208.04271304607389L1189.0666666666666,209.3021429479122L1195.1333333333332,206.67186954617497L1201.2,209.1484282314777L1207.2666666666667,206.68397971987721L1213.3333333333335,207.59734028577802L1219.4,207.8120564818382L1225.4666666666667,209.05087092518804L1231.5333333333333,209.20041748881337L1237.6,207.16250056028363L1243.6666666666665,210.1410681903362L1249.7333333333333,209.33168613910672L1255.8,209.32965838909146L1261.8666666666668,207.85844126343724L1267.9333333333334,208.29378792643544L1274,210.00940525531766L1280.0666666666666,207.30714672803876L1286.1333333333332,209.5192248523235L1292.2,207.65639850497243L1298.2666666666667,210.27197071909902L1304.3333333333335,207.85376617312428L1310.4,213.02264177799222L1316.4666666666667,209.76049894094464L1322.5333333333333,208.49467599391934L1328.6,209.81789553165433" style="fill: none;" fill="none"></path></g></g></g></g></g><g><g><span fill="rgb(0, 0, 0)" stroke="none" stroke-width="1px">Alt + Scroll to Zoom</span></g></g></g><g transform="translate(40, 378)" clip-path="url(#clip_1)"><clipPath id="clip_1"><rect width="1456" height="22"></rect></clipPath><g><g><line x1="0" y1="0" x2="0" y2="5" style="visibility: inherit;" fill="rgb(0, 0, 0)" stroke="rgb(204, 204, 204)" stroke-width="1px"></line><line x1="121.33333333333333" y1="0" x2="121.33333333333333" y2="5" style="visibility: inherit;" fill="rgb(0, 0, 0)" stroke="rgb(204, 204, 204)" stroke-width="1px"></line><line x1="242.66666666666666" y1="0" x2="242.66666666666666" y2="5" style="visibility: inherit;" fill="rgb(0, 0, 0)" stroke="rgb(204, 204, 204)" stroke-width="1px"></line><line x1="364" y1="0" x2="364" y2="5" style="visibility: inherit;" fill="rgb(0, 0, 0)" stroke="rgb(204, 204, 204)" stroke-width="1px"></line><line x1="485.3333333333333" y1="0" x2="485.3333333333333" y2="5" style="visibility: inherit;" fill="rgb(0, 0, 0)" stroke="rgb(204, 204, 204)" stroke-width="1px"></line><line x1="606.6666666666667" y1="0" x2="606.6666666666667" y2="5" style="visibility: inherit;" fill="rgb(0, 0, 0)" stroke="rgb(204, 204, 204)" stroke-width="1px"></line><line x1="728" y1="0" x2="728" y2="5" style="visibility: inherit;" fill="rgb(0, 0, 0)" stroke="rgb(204, 204, 204)" stroke-width="1px"></line><line x1="849.3333333333334" y1="0" x2="849.3333333333334" y2="5" style="visibility: inherit;" fill="rgb(0, 0, 0)" stroke="rgb(204, 204, 204)" stroke-width="1px"></line><line x1="970.6666666666666" y1="0" x2="970.6666666666666" y2="5" style="visibility: inherit;" fill="rgb(0, 0, 0)" stroke="rgb(204, 204, 204)" stroke-width="1px"></line><line x1="1092" y1="0" x2="1092" y2="5" style="visibility: inherit;" fill="rgb(0, 0, 0)" stroke="rgb(204, 204, 204)" stroke-width="1px"></line><line x1="1213.3333333333335" y1="0" x2="1213.3333333333335" y2="5" style="visibility: inherit;" fill="rgb(0, 0, 0)" stroke="rgb(204, 204, 204)" stroke-width="1px"></line><line x1="1334.6666666666665" y1="0" x2="1334.6666666666665" y2="5" style="visibility: inherit;" fill="rgb(0, 0, 0)" stroke="rgb(204, 204, 204)" stroke-width="1px"></line><line x1="1456" y1="0" x2="1456" y2="5" style="visibility: inherit;" fill="rgb(0, 0, 0)" stroke="rgb(204, 204, 204)" stroke-width="1px"></line></g><g transform="translate(0, 8)"><text x="0" y="0" dx="0em" dy="0.95em" style="text-anchor: middle; visibility: hidden; font-family: &quot;Helvetica Neue&quot;, sans-serif; font-size: 12px; font-weight: 200;" fill="rgb(50, 49, 63)" stroke="none" stroke-width="1px">-20</text><text x="121.33333333333333" y="0" dx="0em" dy="0.95em" style="text-anchor: middle; visibility: inherit; font-family: &quot;Helvetica Neue&quot;, sans-serif; font-size: 12px; font-weight: 200;" fill="rgb(50, 49, 63)" stroke="none" stroke-width="1px">0</text><text x="242.66666666666666" y="0" dx="0em" dy="0.95em" style="text-anchor: middle; visibility: inherit; font-family: &quot;Helvetica Neue&quot;, sans-serif; font-size: 12px; font-weight: 200;" fill="rgb(50, 49, 63)" stroke="none" stroke-width="1px">20</text><text x="364" y="0" dx="0em" dy="0.95em" style="text-anchor: middle; visibility: inherit; font-family: &quot;Helvetica Neue&quot;, sans-serif; font-size: 12px; font-weight: 200;" fill="rgb(50, 49, 63)" stroke="none" stroke-width="1px">40</text><text x="485.3333333333333" y="0" dx="0em" dy="0.95em" style="text-anchor: middle; visibility: inherit; font-family: &quot;Helvetica Neue&quot;, sans-serif; font-size: 12px; font-weight: 200;" fill="rgb(50, 49, 63)" stroke="none" stroke-width="1px">60</text><text x="606.6666666666667" y="0" dx="0em" dy="0.95em" style="text-anchor: middle; visibility: inherit; font-family: &quot;Helvetica Neue&quot;, sans-serif; font-size: 12px; font-weight: 200;" fill="rgb(50, 49, 63)" stroke="none" stroke-width="1px">80</text><text x="728" y="0" dx="0em" dy="0.95em" style="text-anchor: middle; visibility: inherit; font-family: &quot;Helvetica Neue&quot;, sans-serif; font-size: 12px; font-weight: 200;" fill="rgb(50, 49, 63)" stroke="none" stroke-width="1px">100</text><text x="849.3333333333334" y="0" dx="0em" dy="0.95em" style="text-anchor: middle; visibility: inherit; font-family: &quot;Helvetica Neue&quot;, sans-serif; font-size: 12px; font-weight: 200;" fill="rgb(50, 49, 63)" stroke="none" stroke-width="1px">120</text><text x="970.6666666666666" y="0" dx="0em" dy="0.95em" style="text-anchor: middle; visibility: inherit; font-family: &quot;Helvetica Neue&quot;, sans-serif; font-size: 12px; font-weight: 200;" fill="rgb(50, 49, 63)" stroke="none" stroke-width="1px">140</text><text x="1092" y="0" dx="0em" dy="0.95em" style="text-anchor: middle; visibility: inherit; font-family: &quot;Helvetica Neue&quot;, sans-serif; font-size: 12px; font-weight: 200;" fill="rgb(50, 49, 63)" stroke="none" stroke-width="1px">160</text><text x="1213.3333333333335" y="0" dx="0em" dy="0.95em" style="text-anchor: middle; visibility: inherit; font-family: &quot;Helvetica Neue&quot;, sans-serif; font-size: 12px; font-weight: 200;" fill="rgb(50, 49, 63)" stroke="none" stroke-width="1px">180</text><text x="1334.6666666666665" y="0" dx="0em" dy="0.95em" style="text-anchor: middle; visibility: inherit; font-family: &quot;Helvetica Neue&quot;, sans-serif; font-size: 12px; font-weight: 200;" fill="rgb(50, 49, 63)" stroke="none" stroke-width="1px">200</text><text x="1456" y="0" dx="0em" dy="0.95em" style="text-anchor: middle; visibility: hidden; font-family: &quot;Helvetica Neue&quot;, sans-serif; font-size: 12px; font-weight: 200;" fill="rgb(50, 49, 63)" stroke="none" stroke-width="1px">220</text></g><line x1="0" y1="0" x2="1456" y2="0" fill="rgb(0, 0, 0)" stroke="rgb(204, 204, 204)" stroke-width="1px"></line></g></g></g></g></svg>