<?xml version="1.0" encoding="utf-8" standalone="no"?>
<!DOCTYPE svg PUBLIC "-//W3C//DTD SVG 1.1//EN"
  "http://www.w3.org/Graphics/SVG/1.1/DTD/svg11.dtd">
<!-- Created with matplotlib (https://matplotlib.org/) -->
<svg height="288pt" version="1.1" viewBox="0 0 720 288" width="720pt" xmlns="http://www.w3.org/2000/svg" xmlns:xlink="http://www.w3.org/1999/xlink">
 <defs>
  <style type="text/css">
*{stroke-linecap:butt;stroke-linejoin:round;}
  </style>
 </defs>
 <g id="figure_1">
  <g id="patch_1">
   <path d="M 0 288 
L 720 288 
L 720 0 
L 0 0 
z
" style="fill:#ffffff;"/>
  </g>
  <g id="axes_1">
   <g id="line2d_1">
    <path clip-path="url(#p933a4159ca)" d="M 148.455566 224.291817 
L 136.368227 221.730736 
L 127.468428 220.072153 
L 120.065182 218.910964 
L 112.90342 218.010938 
L 104.980984 217.259509 
L 96.099855 216.668129 
L 87.557545 216.316988 
L 79.865792 216.223762 
L 75.079009 216.356137 
L 71.767283 216.618534 
L 67.944611 217.179082 
L 58.393298 219.017624 
L 52.893632 220.217003 
L 49.475843 221.14807 
L 47.165109 221.994036 
L 45.888469 222.672297 
L 45.557083 222.912331 
L 45.009473 223.478366 
L 44.74048 224.229712 
L 44.793377 224.655695 
L 45.472191 225.67741 
L 46.297056 226.322932 
L 46.906347 226.690743 
L 49.4909 227.847592 
L 52.462807 228.825821 
L 56.409905 229.87506 
L 62.73659 231.289653 
L 73.977367 233.552579 
L 77.266621 233.979799 
L 81.499324 234.231561 
L 85.708951 234.248795 
L 91.10753 234.058088 
L 97.92042 233.591103 
L 106.126377 232.779401 
L 113.618195 231.825124 
L 121.421149 230.599545 
L 127.938367 229.365537 
L 135.248319 227.727199 
L 143.34324 225.635623 
L 148.540483 224.229962 
L 148.540483 224.229962 
" style="fill:none;stroke:#000000;stroke-linecap:square;stroke-opacity:0.7;stroke-width:1.2;"/>
   </g>
   <g id="line2d_2">
    <path clip-path="url(#p933a4159ca)" d="M 148.655288 184.999044 
L 116.472497 183.265264 
L 109.423536 182.490523 
L 102.049827 181.418902 
L 93.749053 179.941446 
L 81.870751 177.527875 
L 75.092242 176.238746 
L 71.873947 175.831446 
L 70.237337 175.743252 
L 67.417698 175.867191 
L 64.659578 176.322057 
L 61.447498 177.121147 
L 57.621013 178.287974 
L 54.054644 179.550476 
L 50.657509 180.966221 
L 48.203136 182.227665 
L 47.057991 182.962527 
L 45.847024 184.019506 
L 45.36457 184.751186 
L 45.23056 185.526445 
L 45.42508 186.11194 
L 45.87402 186.657108 
L 46.753911 187.271081 
L 48.171565 187.908005 
L 51.259441 188.828132 
L 55.32652 189.693473 
L 60.920664 190.636808 
L 69.416758 191.824828 
L 72.757238 192.09427 
L 75.668848 192.073914 
L 80.038753 191.687967 
L 87.104676 190.716058 
L 110.841307 187.260049 
L 120.241226 186.171847 
L 126.664812 185.599406 
L 134.455566 185.137071 
L 142.754057 184.9117 
L 148.695417 184.853799 
L 148.695417 184.853799 
" style="fill:none;stroke:#000000;stroke-linecap:square;stroke-opacity:0.7;stroke-width:1.2;"/>
   </g>
   <g id="line2d_3">
    <path clip-path="url(#p933a4159ca)" d="M 148.553399 145.574472 
L 135.313382 144.386042 
L 113.167577 142.713913 
L 96.076884 141.282622 
L 80.169849 139.953031 
L 74.940774 139.720602 
L 72.269282 139.756011 
L 68.677197 140.072459 
L 59.857768 141.350571 
L 52.157591 142.563336 
L 47.929303 143.453418 
L 46.861458 143.768247 
L 45.316786 144.460695 
L 44.739553 145.054503 
L 44.652958 145.479826 
L 44.743641 145.804058 
L 45.233234 146.379239 
L 45.96275 146.840603 
L 47.134343 147.330896 
L 48.552127 147.75584 
L 51.256833 148.337744 
L 55.810309 149.008264 
L 62.927545 149.728862 
L 73.832225 150.559466 
L 78.792016 150.626531 
L 85.303705 150.389779 
L 94.701098 149.781338 
L 112.362234 148.366863 
L 140.735325 146.108425 
L 148.591041 145.523345 
L 148.591041 145.523345 
" style="fill:none;stroke:#000000;stroke-linecap:square;stroke-opacity:0.7;stroke-width:1.2;"/>
   </g>
   <g id="line2d_4">
    <path clip-path="url(#p933a4159ca)" d="M 148.565065 105.494442 
L 142.660375 103.10639 
L 136.406403 100.791851 
L 129.896444 98.636208 
L 124.05082 96.960133 
L 118.60621 95.649614 
L 113.087815 94.572787 
L 107.218105 93.679968 
L 101.06665 92.977775 
L 93.948731 92.410173 
L 86.848098 92.085085 
L 80.81407 92.037298 
L 76.537222 92.206889 
L 73.156311 92.555125 
L 70.306494 93.078265 
L 66.739466 94.031672 
L 60.895338 95.911376 
L 55.23356 97.953916 
L 51.263291 99.627168 
L 48.973632 100.774481 
L 46.819807 102.117201 
L 45.578705 103.174192 
L 44.752233 104.29537 
L 44.510611 105.028524 
L 44.553388 105.792005 
L 44.908079 106.431741 
L 45.427803 106.87337 
L 46.026583 107.187419 
L 47.988433 107.729565 
L 50.441956 108.022703 
L 52.915854 108.144027 
L 58.666792 108.14009 
L 71.242507 107.982812 
L 80.628055 107.8989 
L 92.425662 107.514825 
L 140.737272 105.637658 
L 148.505007 105.496246 
L 148.505007 105.496246 
" style="fill:none;stroke:#000000;stroke-linecap:square;stroke-opacity:0.7;stroke-width:1.2;"/>
   </g>
   <g id="line2d_5">
    <path clip-path="url(#p933a4159ca)" d="M 148.696955 66.753941 
L 135.204266 65.380819 
L 117.555603 63.86402 
L 101.478338 62.410185 
L 73.379981 59.703512 
L 70.567541 59.671359 
L 67.16064 59.91674 
L 63.700004 60.456311 
L 58.864899 61.444849 
L 53.848038 62.666037 
L 50.480377 63.662935 
L 48.894405 64.230517 
L 46.772937 65.228958 
L 45.874026 65.911705 
L 45.506835 66.493181 
L 45.526018 66.971097 
L 45.862469 67.378898 
L 46.642662 67.742513 
L 48.115971 68.012237 
L 49.661594 68.111002 
L 53.858039 68.077541 
L 71.381348 67.519543 
L 80.101292 67.623645 
L 88.831865 67.383025 
L 121.584823 66.158434 
L 130.899713 66.137961 
L 140.720607 66.362771 
L 148.719673 66.606069 
L 148.719673 66.606069 
" style="fill:none;stroke:#000000;stroke-linecap:square;stroke-opacity:0.7;stroke-width:1.2;"/>
   </g>
   <g id="line2d_6">
    <path clip-path="url(#p933a4159ca)" d="M 280.247297 225.480904 
L 261.311467 224.037504 
L 241.468399 222.532825 
L 231.418516 221.52277 
L 220.710818 220.218953 
L 203.199618 217.964118 
L 200.237991 217.812519 
L 197.047903 217.925431 
L 193.552519 218.354153 
L 189.151855 219.170755 
L 184.536432 220.264972 
L 180.532768 221.461408 
L 178.179727 222.37138 
L 176.381874 223.356978 
L 175.758404 223.915124 
L 175.489211 224.362551 
L 175.500628 225.001562 
L 175.954914 225.546056 
L 176.870896 226.033129 
L 177.784118 226.32395 
L 178.571469 226.506549 
L 182.990094 227.070385 
L 187.969329 227.356391 
L 198.677017 227.655052 
L 206.303123 227.748262 
L 209.703666 227.581146 
L 216.08906 226.982978 
L 236.81344 224.862619 
L 245.791318 224.226115 
L 252.556129 223.954458 
L 258.949187 223.91193 
L 265.43182 224.107841 
L 272.32201 224.553388 
L 280.23796 225.234629 
L 280.23796 225.234629 
" style="fill:none;stroke:#000000;stroke-linecap:square;stroke-opacity:0.7;stroke-width:1.2;"/>
   </g>
   <g id="line2d_7">
    <path clip-path="url(#p933a4159ca)" d="M 280.005355 185.036739 
L 269.487468 183.636917 
L 239.360034 179.90076 
L 230.929728 178.474975 
L 220.631461 176.480408 
L 209.057366 174.197512 
L 205.272462 173.672399 
L 201.910831 173.576334 
L 199.948247 173.75886 
L 196.721568 174.367992 
L 192.439795 175.510483 
L 189.039593 176.604123 
L 184.986771 178.156937 
L 182.174114 179.479497 
L 179.82555 180.878214 
L 178.808598 181.651633 
L 177.732372 182.735562 
L 177.182345 183.592114 
L 176.945039 184.332401 
L 176.925753 184.637324 
L 177.014528 185.094649 
L 177.213882 185.438392 
L 177.928982 185.974111 
L 179.351699 186.420565 
L 180.8823 186.651343 
L 183.652051 186.83659 
L 188.690434 186.86843 
L 195.560736 186.641685 
L 201.173685 186.272754 
L 207.744813 185.58194 
L 221.55138 184.042044 
L 231.194293 183.192314 
L 239.808392 182.665143 
L 246.763626 182.445922 
L 253.135674 182.448676 
L 258.601105 182.634434 
L 264.564064 183.046201 
L 270.864607 183.701241 
L 280.023037 184.898898 
L 280.023037 184.898898 
" style="fill:none;stroke:#000000;stroke-linecap:square;stroke-opacity:0.7;stroke-width:1.2;"/>
   </g>
   <g id="line2d_8">
    <path clip-path="url(#p933a4159ca)" d="M 280.01321 145.181184 
L 266.90936 143.198968 
L 254.71396 141.556639 
L 237.133958 139.455412 
L 211.966142 136.663628 
L 205.257967 136.114738 
L 201.310225 136.004782 
L 198.267445 136.183577 
L 195.443488 136.62776 
L 191.95882 137.444169 
L 187.688688 138.699757 
L 184.67727 139.756201 
L 182.050886 140.83914 
L 179.529489 142.109076 
L 177.854809 143.19014 
L 176.617411 144.285572 
L 176.181313 144.835534 
L 175.768221 145.698324 
L 175.695311 146.170765 
L 175.759605 146.702652 
L 176.120779 147.404078 
L 176.704567 147.980288 
L 177.729623 148.619383 
L 179.381138 149.312882 
L 182.18591 150.141832 
L 186.717232 151.130189 
L 193.883783 152.386932 
L 207.25731 154.563734 
L 209.589015 154.726966 
L 213.792012 154.72342 
L 218.018505 154.493077 
L 225.394776 153.832388 
L 235.206623 152.701679 
L 247.766336 151.0061 
L 257.843733 149.45155 
L 267.944947 147.661912 
L 277.41209 145.740543 
L 280.054821 145.167508 
L 280.054821 145.167508 
" style="fill:none;stroke:#000000;stroke-linecap:square;stroke-opacity:0.7;stroke-width:1.2;"/>
   </g>
   <g id="line2d_9">
    <path clip-path="url(#p933a4159ca)" d="M 280.535164 106.65645 
L 271.582948 105.459346 
L 261.569012 104.352219 
L 253.42128 103.632726 
L 243.890141 102.994142 
L 232.613156 102.468714 
L 219.783361 102.088331 
L 208.503249 101.960219 
L 201.598853 102.09775 
L 196.06575 102.463386 
L 184.375091 103.516946 
L 180.219246 104.078433 
L 178.052317 104.571587 
L 176.956728 105.067612 
L 176.593984 105.537275 
L 176.645556 105.951144 
L 177.008433 106.366407 
L 177.236954 106.520684 
L 178.442614 107.001459 
L 180.167087 107.354423 
L 183.418292 107.685164 
L 188.229123 107.882504 
L 207.845318 108.337544 
L 214.929321 108.526827 
L 225.286065 108.494831 
L 239.548234 108.157895 
L 259.693021 107.416719 
L 280.564022 106.56791 
L 280.564022 106.56791 
" style="fill:none;stroke:#000000;stroke-linecap:square;stroke-opacity:0.7;stroke-width:1.2;"/>
   </g>
   <g id="line2d_10">
    <path clip-path="url(#p933a4159ca)" d="M 279.905275 65.804983 
L 260.063751 63.220562 
L 239.750493 60.617219 
L 227.356774 58.76389 
L 205.054399 55.318827 
L 202.905501 55.12236 
L 200.081195 55.039662 
L 197.734067 55.20647 
L 195.589302 55.577343 
L 192.197082 56.501436 
L 188.149412 57.957231 
L 185.278313 59.186542 
L 182.146084 60.759237 
L 179.470042 62.403568 
L 177.800999 63.697581 
L 176.55107 64.992136 
L 176.290153 65.34632 
L 175.802049 66.25723 
L 175.629999 67.038501 
L 175.722763 67.712158 
L 175.864807 68.016526 
L 176.617004 68.742633 
L 177.048047 68.96822 
L 178.100354 69.321746 
L 179.155139 69.53712 
L 182.806718 69.879631 
L 186.265802 69.97914 
L 195.575639 69.933979 
L 209.692354 69.669467 
L 213.72272 69.310918 
L 223.852974 68.087204 
L 236.093372 66.679803 
L 244.847988 65.878682 
L 252.379244 65.395256 
L 259.384886 65.161798 
L 266.646201 65.159016 
L 275.577332 65.43221 
L 279.887857 65.629369 
L 279.887857 65.629369 
" style="fill:none;stroke:#000000;stroke-linecap:square;stroke-opacity:0.7;stroke-width:1.2;"/>
   </g>
   <g id="line2d_11">
    <path clip-path="url(#p933a4159ca)" d="M 411.857541 224.503106 
L 400.192395 223.479224 
L 383.827678 222.305124 
L 367.469014 221.094191 
L 354.119615 219.879793 
L 336.613444 218.23133 
L 333.499867 218.132859 
L 329.919325 218.296358 
L 326.170127 218.726205 
L 320.377917 219.650165 
L 315.205482 220.710767 
L 311.693911 221.658889 
L 309.376046 222.555246 
L 308.415834 223.138637 
L 307.933147 223.642404 
L 307.768425 224.044319 
L 307.818725 224.527013 
L 308.165658 225.027531 
L 308.54475 225.33352 
L 309.886044 225.986032 
L 311.084534 226.364023 
L 314.24095 227.033575 
L 318.271381 227.597533 
L 324.960969 228.249646 
L 340.017499 229.393179 
L 345.196712 229.448487 
L 352.232685 229.22427 
L 362.341091 228.625021 
L 377.529835 227.463982 
L 405.018544 225.102922 
L 411.888879 224.445379 
L 411.888879 224.445379 
" style="fill:none;stroke:#000000;stroke-linecap:square;stroke-opacity:0.7;stroke-width:1.2;"/>
   </g>
   <g id="line2d_12">
    <path clip-path="url(#p933a4159ca)" d="M 412.051719 185.125303 
L 400.782613 184.416726 
L 380.37497 183.181822 
L 373.263621 182.498086 
L 365.958102 181.568206 
L 357.587945 180.242703 
L 347.418978 178.370721 
L 339.584877 176.96344 
L 335.868295 176.549071 
L 333.938239 176.511452 
L 331.56465 176.686692 
L 328.374247 177.228452 
L 323.589005 178.362935 
L 318.371726 179.833022 
L 314.38026 181.158296 
L 311.663896 182.264715 
L 309.887412 183.225109 
L 309.10523 183.834569 
L 308.643183 184.42831 
L 308.517661 184.831683 
L 308.588018 185.277735 
L 308.891062 185.668557 
L 309.575941 186.069146 
L 310.662949 186.402785 
L 312.770202 186.739824 
L 316.647427 187.010152 
L 322.367645 187.12386 
L 334.54319 187.08256 
L 339.688892 186.913493 
L 347.430104 186.382828 
L 373.284141 184.428217 
L 381.875258 184.051193 
L 388.704423 183.949442 
L 395.68476 184.070951 
L 403.354072 184.456323 
L 412.061627 185.050954 
L 412.061627 185.050954 
" style="fill:none;stroke:#000000;stroke-linecap:square;stroke-opacity:0.7;stroke-width:1.2;"/>
   </g>
   <g id="line2d_13">
    <path clip-path="url(#p933a4159ca)" d="M 411.828852 145.057687 
L 404.545579 143.140453 
L 397.526657 141.509904 
L 390.2902 140.076312 
L 383.734554 139.024947 
L 377.345001 138.240854 
L 370.686235 137.657279 
L 363.472784 137.240639 
L 353.971798 136.941235 
L 344.476601 136.874824 
L 338.748818 136.983192 
L 333.613964 137.290721 
L 329.826134 137.741435 
L 323.838129 138.737198 
L 318.235015 139.902767 
L 313.683837 141.102242 
L 310.889049 142.058739 
L 309.901983 142.474368 
L 307.442518 143.992855 
L 306.876411 144.722182 
L 306.717902 145.448862 
L 306.753229 145.621949 
L 307.194662 146.182337 
L 307.784282 146.459436 
L 308.725802 146.668388 
L 310.579033 146.80284 
L 314.167677 146.726954 
L 322.180087 146.144 
L 330.948809 145.515768 
L 334.349772 145.430898 
L 341.289785 145.553672 
L 354.957633 145.799281 
L 370.613286 145.802866 
L 391.720446 145.546443 
L 409.854575 145.145827 
L 411.797087 145.072424 
L 411.797087 145.072424 
" style="fill:none;stroke:#000000;stroke-linecap:square;stroke-opacity:0.7;stroke-width:1.2;"/>
   </g>
   <g id="line2d_14">
    <path clip-path="url(#p933a4159ca)" d="M 412.287639 106.935303 
L 397.9137 104.107016 
L 387.623225 102.317558 
L 375.773659 100.49974 
L 355.898238 97.731254 
L 343.719022 96.190249 
L 338.707477 95.708707 
L 334.667316 95.54532 
L 332.048445 95.657903 
L 329.279918 96.015211 
L 326.065874 96.673418 
L 321.517235 97.901449 
L 317.846835 99.123522 
L 314.598888 100.431748 
L 312.142919 101.645699 
L 310.392657 102.725434 
L 309.241134 103.631337 
L 308.213036 104.77645 
L 307.810138 105.536273 
L 307.662398 106.279583 
L 307.789547 106.898023 
L 308.151553 107.367181 
L 308.49615 107.598183 
L 309.806913 107.989336 
L 312.024792 108.1314 
L 314.62082 108.043846 
L 319.502867 107.623098 
L 338.654711 105.664938 
L 357.073561 104.50154 
L 367.222118 104.047844 
L 376.517656 103.856512 
L 383.796729 103.926491 
L 389.878838 104.182657 
L 395.821893 104.638216 
L 402.346288 105.370524 
L 412.298665 106.769473 
L 412.298665 106.769473 
" style="fill:none;stroke:#000000;stroke-linecap:square;stroke-opacity:0.7;stroke-width:1.2;"/>
   </g>
   <g id="line2d_15">
    <path clip-path="url(#p933a4159ca)" d="M 412.113925 66.989189 
L 394.009991 64.305155 
L 378.796382 62.054484 
L 369.172302 60.386112 
L 359.488585 58.47078 
L 340.310672 54.555342 
L 337.544423 54.173 
L 335.139505 53.994125 
L 332.685834 54.036913 
L 331.416931 54.162642 
L 328.332994 54.720151 
L 324.616708 55.697359 
L 320.850536 56.902525 
L 316.426446 58.603513 
L 313.962658 59.744013 
L 311.532966 61.103305 
L 310.434222 61.849711 
L 308.418078 63.747756 
L 308.09437 64.225285 
L 307.769131 64.904891 
L 307.608837 65.979757 
L 307.826358 66.780453 
L 308.556402 67.681966 
L 309.598581 68.346386 
L 311.076673 68.929993 
L 312.839339 69.397258 
L 316.21232 69.984371 
L 320.710029 70.48021 
L 327.526307 70.966541 
L 336.197831 71.378095 
L 339.189574 71.379161 
L 342.68308 71.171453 
L 348.482327 70.521522 
L 372.740375 67.47111 
L 380.537388 66.758264 
L 387.80767 66.317418 
L 394.174136 66.159045 
L 400.121587 66.225142 
L 407.542062 66.561369 
L 412.123808 66.860808 
L 412.123808 66.860808 
" style="fill:none;stroke:#000000;stroke-linecap:square;stroke-opacity:0.7;stroke-width:1.2;"/>
   </g>
   <g id="line2d_16">
    <path clip-path="url(#p933a4159ca)" d="M 543.144793 224.445651 
L 528.648998 222.811227 
L 508.602572 220.615965 
L 499.558282 219.366242 
L 490.250346 217.860933 
L 469.87784 214.438974 
L 466.6241 214.228634 
L 463.746245 214.348009 
L 461.510844 214.639434 
L 457.836365 215.368059 
L 452.834746 216.677908 
L 448.348246 218.154979 
L 445.611758 219.262573 
L 442.916745 220.645178 
L 442.073448 221.194943 
L 440.758291 222.343303 
L 440.258242 223.072513 
L 440.075986 223.581011 
L 440.038722 224.046718 
L 440.195999 224.643287 
L 440.635024 225.23261 
L 441.628133 225.899371 
L 442.520069 226.271669 
L 443.669917 226.6218 
L 447.084704 227.289557 
L 450.920549 227.749354 
L 456.989498 228.200913 
L 464.143115 228.48704 
L 469.136225 228.465184 
L 474.251198 228.122669 
L 482.486984 227.265412 
L 499.15593 225.505261 
L 508.697812 224.710102 
L 516.30829 224.267142 
L 523.346199 224.051211 
L 531.158151 224.041962 
L 541.318274 224.294202 
L 543.160824 224.354439 
L 543.160824 224.354439 
" style="fill:none;stroke:#000000;stroke-linecap:square;stroke-opacity:0.7;stroke-width:1.2;"/>
   </g>
   <g id="line2d_17">
    <path clip-path="url(#p933a4159ca)" d="M 543.54145 185.176272 
L 530.2225 184.099994 
L 515.113474 183.117491 
L 495.515349 181.821035 
L 479.504406 180.503089 
L 468.93601 179.67562 
L 464.962485 179.586483 
L 461.291505 179.754416 
L 455.625087 180.267029 
L 450.904275 180.848096 
L 446.804111 181.543363 
L 444.346633 182.14315 
L 442.57074 182.790588 
L 441.349647 183.568684 
L 440.921964 184.206246 
L 440.914965 184.677285 
L 441.140849 185.043226 
L 441.484133 185.299514 
L 442.461708 185.659032 
L 443.815554 185.885359 
L 446.135118 186.03409 
L 451.632256 186.01365 
L 462.749238 185.851551 
L 477.192822 186.063418 
L 489.096588 185.833553 
L 520.887178 185.102773 
L 533.154837 185.101691 
L 543.541807 185.205691 
L 543.541807 185.205691 
" style="fill:none;stroke:#000000;stroke-linecap:square;stroke-opacity:0.7;stroke-width:1.2;"/>
   </g>
   <g id="line2d_18">
    <path clip-path="url(#p933a4159ca)" d="M 543.376488 145.072732 
L 505.807337 139.342886 
L 495.001897 137.444294 
L 481.078014 134.725176 
L 471.272732 132.870819 
L 467.274694 132.308905 
L 465.142634 132.138189 
L 462.66191 132.132042 
L 460.424901 132.355809 
L 458.069751 132.823347 
L 456.038839 133.375548 
L 452.100318 134.71937 
L 448.333006 136.292082 
L 445.391387 137.755521 
L 442.946526 139.208534 
L 440.841165 140.761537 
L 439.492418 142.058906 
L 438.884042 142.819102 
L 438.197591 144.072562 
L 437.965856 145.136737 
L 438.130105 146.099947 
L 438.281444 146.384741 
L 439.13701 147.157047 
L 440.099207 147.565049 
L 442.334499 148.021084 
L 445.529006 148.265431 
L 449.14999 148.313472 
L 454.937243 148.145878 
L 461.305923 147.746669 
L 467.995789 147.100576 
L 476.502331 145.950647 
L 485.60982 144.762583 
L 494.935126 143.782852 
L 501.988959 143.2423 
L 510.019551 142.889192 
L 516.148289 142.845584 
L 522.459449 143.029017 
L 528.805358 143.439109 
L 536.359795 144.148871 
L 543.344911 144.890099 
L 543.344911 144.890099 
" style="fill:none;stroke:#000000;stroke-linecap:square;stroke-opacity:0.7;stroke-width:1.2;"/>
   </g>
   <g id="line2d_19">
    <path clip-path="url(#p933a4159ca)" d="M 543.354129 105.452569 
L 533.418919 103.776584 
L 523.559754 102.337207 
L 490.392577 97.749267 
L 470.133614 94.560993 
L 467.568864 94.323781 
L 465.227298 94.260934 
L 462.53932 94.457095 
L 460.070781 94.896573 
L 456.883611 95.723815 
L 453.551781 96.793128 
L 449.25289 98.429572 
L 445.85131 99.969254 
L 443.129164 101.444077 
L 441.653974 102.400064 
L 439.850596 103.900241 
L 438.954023 105.086829 
L 438.706098 105.885467 
L 438.789591 106.415077 
L 438.985434 106.711067 
L 439.659742 107.139357 
L 440.977787 107.460276 
L 442.361611 107.597134 
L 445.573527 107.661329 
L 452.109272 107.436797 
L 469.684648 106.420025 
L 480.777872 105.607461 
L 496.816744 104.458446 
L 505.972644 104.005915 
L 513.916184 103.821338 
L 521.305968 103.88365 
L 528.380973 104.179839 
L 536.803927 104.775261 
L 543.361914 105.299442 
L 543.361914 105.299442 
" style="fill:none;stroke:#000000;stroke-linecap:square;stroke-opacity:0.7;stroke-width:1.2;"/>
   </g>
   <g id="line2d_20">
    <path clip-path="url(#p933a4159ca)" d="M 543.511549 66.045291 
L 533.962999 64.650505 
L 521.932228 63.140687 
L 483.899998 58.820086 
L 475.709568 58.056298 
L 470.282351 57.797758 
L 468.143386 57.823523 
L 465.565114 58.018083 
L 462.906734 58.42123 
L 456.558884 59.737027 
L 450.691255 61.104175 
L 446.502076 62.290002 
L 444.235444 63.109769 
L 442.361749 64.01493 
L 441.575208 64.53339 
L 440.593187 65.530912 
L 440.298736 66.227743 
L 440.359554 66.809472 
L 440.717468 67.23441 
L 440.942713 67.373877 
L 442.126213 67.736159 
L 443.779574 67.906704 
L 446.036387 67.937104 
L 451.270937 67.706066 
L 464.367997 66.961624 
L 502.362565 66.06143 
L 517.166596 65.773856 
L 528.372352 65.773921 
L 543.558685 66.003365 
L 543.558685 66.003365 
" style="fill:none;stroke:#000000;stroke-linecap:square;stroke-opacity:0.7;stroke-width:1.2;"/>
   </g>
   <g id="line2d_21">
    <path clip-path="url(#p933a4159ca)" d="M 674.645877 223.242109 
L 668.89391 221.167964 
L 662.761946 219.169513 
L 656.571379 217.397332 
L 652.262594 216.335118 
L 646.597321 215.18609 
L 642.199104 214.501369 
L 636.803929 213.904079 
L 631.333531 213.543339 
L 626.39998 213.396516 
L 619.603629 213.421929 
L 612.759951 213.674413 
L 605.41699 214.191441 
L 599.966487 214.781414 
L 595.639904 215.439681 
L 589.923839 216.60549 
L 583.739561 218.103635 
L 579.597096 219.310194 
L 576.448724 220.438941 
L 574.492829 221.312446 
L 572.730298 222.339373 
L 571.62835 223.286735 
L 571.169476 223.945444 
L 571.02035 224.348414 
L 571.060019 225.12181 
L 571.108825 225.229726 
L 571.494434 225.670505 
L 572.739314 226.113095 
L 574.132731 226.211747 
L 576.648798 226.119979 
L 580.975493 225.734572 
L 591.711647 224.686006 
L 595.978883 224.450799 
L 599.179202 224.470684 
L 602.54408 224.706969 
L 610.321296 225.327228 
L 617.588903 225.630808 
L 625.493815 225.734351 
L 634.918418 225.632503 
L 645.773518 225.262526 
L 655.923865 224.693662 
L 668.119479 223.773761 
L 674.529942 223.227631 
L 674.529942 223.227631 
" style="fill:none;stroke:#000000;stroke-linecap:square;stroke-opacity:0.7;stroke-width:1.2;"/>
   </g>
   <g id="line2d_22">
    <path clip-path="url(#p933a4159ca)" d="M 675.43178 184.825179 
L 657.650944 183.868165 
L 649.421114 183.241969 
L 643.460057 182.610504 
L 637.01138 181.708577 
L 629.770973 180.421556 
L 623.322268 179.065139 
L 614.458926 176.968689 
L 601.173493 173.787612 
L 597.631068 173.206405 
L 594.779003 173.03409 
L 591.665088 173.296557 
L 588.855938 173.907201 
L 586.207589 174.698309 
L 582.186299 176.163322 
L 578.706695 177.663345 
L 575.928506 179.057865 
L 573.453476 180.535923 
L 571.614965 181.917755 
L 570.406292 183.183809 
L 570.032463 183.768823 
L 569.727164 184.724708 
L 569.819703 185.535787 
L 570.344584 186.418564 
L 571.04606 187.080415 
L 572.710194 188.137221 
L 574.80832 189.108784 
L 578.13892 190.312069 
L 583.066673 191.712273 
L 587.936604 192.832067 
L 593.751293 193.92059 
L 598.20929 194.543995 
L 601.384646 194.752769 
L 602.166948 194.757603 
L 605.627669 194.566029 
L 610.036105 193.999692 
L 618.085295 192.634182 
L 641.174204 188.580266 
L 649.642379 187.323654 
L 658.804714 186.213332 
L 667.369812 185.412508 
L 675.490909 184.781525 
L 675.490909 184.781525 
" style="fill:none;stroke:#000000;stroke-linecap:square;stroke-opacity:0.7;stroke-width:1.2;"/>
   </g>
   <g id="line2d_23">
    <path clip-path="url(#p933a4159ca)" d="M 675.40522 145.89528 
L 667.519704 144.348714 
L 659.832622 143.041342 
L 652.600881 142.015514 
L 645.384792 141.199662 
L 637.015958 140.488208 
L 627.306138 139.889258 
L 614.621913 139.340787 
L 604.979109 139.129812 
L 600.350629 139.197704 
L 596.995064 139.417445 
L 591.924545 140.031349 
L 584.882244 141.130311 
L 579.450013 142.176036 
L 575.898399 143.05103 
L 574.107082 143.618991 
L 572.405444 144.359157 
L 571.609988 144.912754 
L 571.253425 145.421159 
L 571.228999 145.672362 
L 571.544688 146.094577 
L 571.993558 146.277402 
L 573.323392 146.427605 
L 574.846299 146.382542 
L 578.975132 145.939166 
L 595.234584 143.800332 
L 598.79264 143.643487 
L 603.371735 143.704815 
L 621.495727 144.11918 
L 652.5969 144.683456 
L 664.492956 145.183677 
L 675.423542 145.739334 
L 675.423542 145.739334 
" style="fill:none;stroke:#000000;stroke-linecap:square;stroke-opacity:0.7;stroke-width:1.2;"/>
   </g>
   <g id="line2d_24">
    <path clip-path="url(#p933a4159ca)" d="M 675.252345 106.022236 
L 663.922855 103.019369 
L 655.021694 100.874787 
L 645.555499 98.841366 
L 635.346343 96.904726 
L 621.798967 94.584254 
L 610.411067 92.836102 
L 604.700115 92.144438 
L 600.313175 91.866513 
L 597.459571 91.9504 
L 595.101424 92.273126 
L 593.07644 92.742167 
L 589.465518 93.878026 
L 585.408131 95.413601 
L 581.003866 97.350574 
L 577.885215 98.968823 
L 575.503268 100.443813 
L 573.345452 102.139198 
L 572.724208 102.757398 
L 571.664141 104.177238 
L 571.239424 105.259577 
L 571.198082 106.151666 
L 571.380434 106.734052 
L 571.851564 107.336443 
L 572.455237 107.743532 
L 573.702104 108.198428 
L 575.750057 108.546524 
L 578.636944 108.728996 
L 583.818817 108.722416 
L 595.215424 108.315748 
L 603.299006 107.946666 
L 611.706453 107.304364 
L 632.911911 105.619208 
L 642.57423 105.102549 
L 650.01422 104.917053 
L 657.260843 104.97053 
L 664.389886 105.257027 
L 675.200713 105.951486 
L 675.200713 105.951486 
" style="fill:none;stroke:#000000;stroke-linecap:square;stroke-opacity:0.7;stroke-width:1.2;"/>
   </g>
   <g id="line2d_25">
    <path clip-path="url(#p933a4159ca)" d="M 675.053232 66.324265 
L 633.418939 59.216911 
L 602.631104 54.187976 
L 598.543486 53.781797 
L 596.308845 53.738953 
L 593.46739 54.000279 
L 590.515814 54.600574 
L 586.14357 55.797983 
L 581.479667 57.369268 
L 578.592951 58.538936 
L 576.029108 59.776532 
L 574.36212 60.743373 
L 572.471126 62.132735 
L 571.391829 63.232863 
L 570.949315 63.847443 
L 570.438585 64.980444 
L 570.33367 65.939216 
L 570.522296 66.758576 
L 570.998565 67.526992 
L 572.106022 68.449111 
L 573.078046 68.962805 
L 575.436958 69.790361 
L 578.470911 70.464545 
L 581.839843 70.9647 
L 586.797617 71.43573 
L 592.849652 71.727245 
L 597.058575 71.725559 
L 601.014227 71.500993 
L 608.312535 70.707159 
L 635.444723 67.368353 
L 643.405825 66.650945 
L 650.993586 66.187423 
L 658.373518 65.989203 
L 664.964872 66.015205 
L 675.082731 66.262252 
L 675.082731 66.262252 
" style="fill:none;stroke:#000000;stroke-linecap:square;stroke-opacity:0.7;stroke-width:1.2;"/>
   </g>
  </g>
 </g>
 <defs>
  <clipPath id="p933a4159ca">
   <rect height="262.08" width="694.08" x="12.96" y="12.96"/>
  </clipPath>
 </defs>
</svg>
