<svg viewBox="0 0 1496 400" xmlns="http://www.w3.org/2000/svg"><g><g><g><g><g><line x1="30" y1="378" x2="25" y2="378" style="visibility: inherit;" fill="rgb(0, 0, 0)" stroke="rgb(204, 204, 204)" stroke-width="1px"></line><line x1="30" y1="330.75" x2="25" y2="330.75" style="visibility: inherit;" fill="rgb(0, 0, 0)" stroke="rgb(204, 204, 204)" stroke-width="1px"></line><line x1="30" y1="283.5" x2="25" y2="283.5" style="visibility: inherit;" fill="rgb(0, 0, 0)" stroke="rgb(204, 204, 204)" stroke-width="1px"></line><line x1="30" y1="236.25" x2="25" y2="236.25" style="visibility: inherit;" fill="rgb(0, 0, 0)" stroke="rgb(204, 204, 204)" stroke-width="1px"></line><line x1="30" y1="189" x2="25" y2="189" style="visibility: inherit;" fill="rgb(0, 0, 0)" stroke="rgb(204, 204, 204)" stroke-width="1px"></line><line x1="30" y1="141.75" x2="25" y2="141.75" style="visibility: inherit;" fill="rgb(0, 0, 0)" stroke="rgb(204, 204, 204)" stroke-width="1px"></line><line x1="30" y1="94.5" x2="25" y2="94.5" style="visibility: inherit;" fill="rgb(0, 0, 0)" stroke="rgb(204, 204, 204)" stroke-width="1px"></line><line x1="30" y1="47.25" x2="25" y2="47.25" style="visibility: inherit;" fill="rgb(0, 0, 0)" stroke="rgb(204, 204, 204)" stroke-width="1px"></line><line x1="30" y1="0" x2="25" y2="0" style="visibility: inherit;" fill="rgb(0, 0, 0)" stroke="rgb(204, 204, 204)" stroke-width="1px"></line></g><g transform="translate(20, 0)"><text x="0" y="378" dx="0em" dy="0.3em" style="text-anchor: end; visibility: hidden; font-family: &quot;Helvetica Neue&quot;, sans-serif; font-size: 12px; font-weight: 200;" fill="rgb(50, 49, 63)" stroke="none" stroke-width="1px">-1</text><text x="0" y="330.75" dx="0em" dy="0.3em" style="text-anchor: end; visibility: inherit; font-family: &quot;Helvetica Neue&quot;, sans-serif; font-size: 12px; font-weight: 200;" fill="rgb(50, 49, 63)" stroke="none" stroke-width="1px">0</text><text x="0" y="283.5" dx="0em" dy="0.3em" style="text-anchor: end; visibility: inherit; font-family: &quot;Helvetica Neue&quot;, sans-serif; font-size: 12px; font-weight: 200;" fill="rgb(50, 49, 63)" stroke="none" stroke-width="1px">1</text><text x="0" y="236.25" dx="0em" dy="0.3em" style="text-anchor: end; visibility: inherit; font-family: &quot;Helvetica Neue&quot;, sans-serif; font-size: 12px; font-weight: 200;" fill="rgb(50, 49, 63)" stroke="none" stroke-width="1px">2</text><text x="0" y="189" dx="0em" dy="0.3em" style="text-anchor: end; visibility: inherit; font-family: &quot;Helvetica Neue&quot;, sans-serif; font-size: 12px; font-weight: 200;" fill="rgb(50, 49, 63)" stroke="none" stroke-width="1px">3</text><text x="0" y="141.75" dx="0em" dy="0.3em" style="text-anchor: end; visibility: inherit; font-family: &quot;Helvetica Neue&quot;, sans-serif; font-size: 12px; font-weight: 200;" fill="rgb(50, 49, 63)" stroke="none" stroke-width="1px">4</text><text x="0" y="94.5" dx="0em" dy="0.3em" style="text-anchor: end; visibility: inherit; font-family: &quot;Helvetica Neue&quot;, sans-serif; font-size: 12px; font-weight: 200;" fill="rgb(50, 49, 63)" stroke="none" stroke-width="1px">5</text><text x="0" y="47.25" dx="0em" dy="0.3em" style="text-anchor: end; visibility: inherit; font-family: &quot;Helvetica Neue&quot;, sans-serif; font-size: 12px; font-weight: 200;" fill="rgb(50, 49, 63)" stroke="none" stroke-width="1px">6</text><text x="0" y="0" dx="0em" dy="0.3em" style="text-anchor: end; visibility: hidden; font-family: &quot;Helvetica Neue&quot;, sans-serif; font-size: 12px; font-weight: 200;" fill="rgb(50, 49, 63)" stroke="none" stroke-width="1px">7</text></g><line x1="30" y1="0" x2="30" y2="378" fill="rgb(0, 0, 0)" stroke="rgb(204, 204, 204)" stroke-width="1px"></line></g></g><g transform="translate(30, 0)" clip-path="url(#clip_0)"><clipPath id="clip_0"><rect width="1466" height="378"></rect></clipPath><g><g><g><line x1="0" y1="0" x2="0" y2="378" fill="rgb(0, 0, 0)" stroke="rgb(60, 60, 60)" stroke-width="1px" opacity="0.25"></line><line x1="133.27272727272728" y1="0" x2="133.27272727272728" y2="378" fill="rgb(0, 0, 0)" stroke="rgb(60, 60, 60)" stroke-width="1px" opacity="0.25"></line><line x1="266.54545454545456" y1="0" x2="266.54545454545456" y2="378" fill="rgb(0, 0, 0)" stroke="rgb(60, 60, 60)" stroke-width="1px" opacity="0.25"></line><line x1="399.8181818181818" y1="0" x2="399.8181818181818" y2="378" fill="rgb(0, 0, 0)" stroke="rgb(60, 60, 60)" stroke-width="1px" opacity="0.25"></line><line x1="533.0909090909091" y1="0" x2="533.0909090909091" y2="378" fill="rgb(0, 0, 0)" stroke="rgb(60, 60, 60)" stroke-width="1px" opacity="0.25"></line><line x1="666.3636363636364" y1="0" x2="666.3636363636364" y2="378" fill="rgb(0, 0, 0)" stroke="rgb(60, 60, 60)" stroke-width="1px" opacity="0.25"></line><line x1="799.6363636363636" y1="0" x2="799.6363636363636" y2="378" fill="rgb(0, 0, 0)" stroke="rgb(60, 60, 60)" stroke-width="1px" opacity="0.25"></line><line x1="932.9090909090909" y1="0" x2="932.9090909090909" y2="378" fill="rgb(0, 0, 0)" stroke="rgb(60, 60, 60)" stroke-width="1px" opacity="0.25"></line><line x1="1066.1818181818182" y1="0" x2="1066.1818181818182" y2="378" fill="rgb(0, 0, 0)" stroke="rgb(60, 60, 60)" stroke-width="1px" opacity="0.25"></line><line x1="1199.4545454545455" y1="0" x2="1199.4545454545455" y2="378" fill="rgb(0, 0, 0)" stroke="rgb(60, 60, 60)" stroke-width="1px" opacity="0.25"></line><line x1="1332.7272727272727" y1="0" x2="1332.7272727272727" y2="378" fill="rgb(0, 0, 0)" stroke="rgb(60, 60, 60)" stroke-width="1px" opacity="0.25"></line><line x1="1466" y1="0" x2="1466" y2="378" fill="rgb(0, 0, 0)" stroke="rgb(60, 60, 60)" stroke-width="1px" opacity="0.25"></line></g><g><line x1="0" y1="378" x2="1466" y2="378" fill="rgb(0, 0, 0)" stroke="rgb(60, 60, 60)" stroke-width="1px" opacity="0.25"></line><line x1="0" y1="330.75" x2="1466" y2="330.75" fill="rgb(0, 0, 0)" stroke="rgb(60, 60, 60)" stroke-width="1px" opacity="0.25"></line><line x1="0" y1="283.5" x2="1466" y2="283.5" fill="rgb(0, 0, 0)" stroke="rgb(60, 60, 60)" stroke-width="1px" opacity="0.25"></line><line x1="0" y1="236.25" x2="1466" y2="236.25" fill="rgb(0, 0, 0)" stroke="rgb(60, 60, 60)" stroke-width="1px" opacity="0.25"></line><line x1="0" y1="189" x2="1466" y2="189" fill="rgb(0, 0, 0)" stroke="rgb(60, 60, 60)" stroke-width="1px" opacity="0.25"></line><line x1="0" y1="141.75" x2="1466" y2="141.75" fill="rgb(0, 0, 0)" stroke="rgb(60, 60, 60)" stroke-width="1px" opacity="0.25"></line><line x1="0" y1="94.5" x2="1466" y2="94.5" fill="rgb(0, 0, 0)" stroke="rgb(60, 60, 60)" stroke-width="1px" opacity="0.25"></line><line x1="0" y1="47.25" x2="1466" y2="47.25" fill="rgb(0, 0, 0)" stroke="rgb(60, 60, 60)" stroke-width="1px" opacity="0.25"></line><line x1="0" y1="0" x2="1466" y2="0" fill="rgb(0, 0, 0)" stroke="rgb(60, 60, 60)" stroke-width="1px" opacity="0.25"></line></g></g></g><g><g><line x1="0" y1="330.75" x2="1466" y2="330.75" fill="rgb(0, 0, 0)" stroke="rgb(153, 153, 153)" stroke-width="1.5px"></line></g></g><g><g><line x1="133.27272727272728" y1="0" x2="133.27272727272728" y2="378" fill="rgb(0, 0, 0)" stroke="rgb(153, 153, 153)" stroke-width="1.5px"></line></g></g><g><g><g><g><g><path stroke="rgb(238, 51, 119)" stroke-width="2px" d="M133.27272727272728,52.505454897880554L139.93636363636364,197.19926351308823L146.6,211.7842385172844L153.26363636363635,214.86248695850372L159.9272727272727,231.55298745632172L166.5909090909091,230.79409074783325L173.25454545454545,224.1076751947403L179.9181818181818,264.9166624546051L186.58181818181816,254.07910466194153L193.24545454545452,252.6829199194908L199.9090909090909,236.93553721904755L206.57272727272726,259.1780848503113L213.23636363636362,228.8340112566948L219.9,253.77868223190308L226.56363636363636,282.992020457983L233.22727272727272,271.4352141022682L239.89090909090908,279.1508930325508L246.55454545454546,278.85871678590775L253.21818181818182,265.4341893196106L259.8818181818182,240.96651273965836L266.54545454545456,264.09477031230927L273.20909090909095,255.51203110814095L279.8727272727273,267.7753393650055L286.53636363636366,222.5271567106247L293.2,278.3905994296074L299.8636363636364,233.25399935245514L306.5272727272727,268.43121510744095L313.1909090909091,266.14619994163513L319.8545454545454,261.25622445344925L326.5181818181818,270.45358031988144L333.1818181818182,281.1691689491272L339.8454545454545,288.5956907272339L346.5090909090909,267.88786259293556L353.1727272727273,274.2914239168167L359.8363636363636,254.91501080989838L366.5,257.6605392694473L373.16363636363633,281.51906284689903L379.8272727272727,284.43941152095795L386.49090909090904,271.76525858044624L393.1545454545455,283.5769418478012L399.8181818181818,283.78965282440186L406.4818181818182,277.9092172086239L413.1454545454545,271.96879398822784L419.8090909090909,282.17876878380775L426.47272727272724,259.2151588797569L433.1363636363637,269.41701140999794L439.8,271.33807361125946L446.4636363636364,285.05070492625237L453.1272727272727,256.8860739469528L459.7909090909091,281.32318782806396L466.45454545454544,274.2344723045826L473.1181818181819,291.46992498636246L479.78181818181815,270.79471546411514L486.4454545454546,286.3250725865364L493.1090909090909,276.9066694378853L499.77272727272725,260.4121059179306L506.43636363636364,282.80684745311737L513.1,283.3495071530342L519.7636363636364,282.1846267282963L526.4272727272727,289.5834753513336L533.0909090909091,269.69059431552887L539.7545454545455,272.95223021507263L546.4181818181819,269.37580865621567L553.0818181818181,289.0674580335617L559.7454545454545,256.9738755226135L566.4090909090909,273.0426340699196L573.0727272727273,279.535016477108L579.7363636363636,257.7775122821331L586.4,294.9635805487633L593.0636363636363,249.31118845939636L599.7272727272727,295.8942164182663L606.3909090909091,279.1473219394684L613.0545454545454,282.8980060815811L619.7181818181818,267.66069263219833L626.3818181818182,287.81995806097984L633.0454545454545,275.59323942661285L639.7090909090908,211.28723698854446L646.3727272727273,264.63287883996964L653.0363636363636,279.8858397603035L659.7,283.73524153232574L666.3636363636364,285.40240690112114L673.0272727272727,267.7396622300148L679.690909090909,281.7898801267147L686.3545454545455,280.3931433856487L693.0181818181818,218.53593635559082L699.6818181818182,290.687258541584L706.3454545454546,281.2226621210575L713.0090909090909,278.0340871810913L719.6727272727272,289.41821372509L726.3363636363637,285.8877995610237L733,278.7546481490135L739.6636363636363,281.42802250385284L746.3272727272727,250.40568906068802L752.9909090909091,279.29484075307846L759.6545454545454,283.24246448278427L766.3181818181818,296.02017349004745L772.9818181818181,257.7095995545387L779.6454545454546,289.20680952072144L786.309090909091,281.962131857872L792.9727272727273,278.878611266613L799.6363636363636,279.07170939445496L806.3000000000001,281.2548413872719L812.9636363636364,279.4583112001419L819.6272727272727,266.6957089304924L826.290909090909,276.96645426750183L832.9545454545455,287.91552141308784L839.6181818181818,284.7643246650696L846.2818181818182,282.7589136958122L852.9454545454545,285.3122058212757L859.6090909090908,292.27455309033394L866.2727272727274,289.36123394966125L872.9363636363637,247.47506082057953L879.6,282.89404633641243L886.2636363636362,273.8325328230858L892.9272727272728,278.3222304582596L899.5909090909091,291.62016999721527L906.2545454545455,273.60260850191116L912.9181818181818,288.04154044389725L919.5818181818182,274.27080845832825L926.2454545454545,290.9442307949066L932.9090909090909,243.35888600349426L939.5727272727272,272.1919366121292L946.2363636363638,288.3740576505661L952.9,287.9136006832123L959.5636363636363,291.44831255078316L966.2272727272726,257.3513468205929L972.8909090909092,292.73691952228546L979.5545454545455,265.29153710603714L986.2181818181818,250.20219308137894L992.8818181818182,289.16288620233536L999.5454545454545,291.9280106127262L1006.209090909091,271.6511356830597L1012.8727272727273,299.66073390841484L1019.5363636363636,298.84517285227776L1026.2,199.7349761724472L1032.8636363636365,274.5523052215576L1039.5272727272727,292.6126184463501L1046.1909090909091,288.1613185107708L1052.8545454545454,297.45327454805374L1059.5181818181818,270.47128933668137L1066.1818181818182,283.40890896320343L1072.8454545454545,275.2372341156006L1079.509090909091,284.080511033535L1086.1727272727273,290.15246200561523L1092.8363636363638,292.2392139136791L1099.5,270.977494597435L1106.1636363636362,290.6443378329277L1112.8272727272727,270.72838550806046L1119.490909090909,279.94042003154755L1126.1545454545455,293.79381662607193L1132.8181818181818,270.4864073395729L1139.4818181818182,274.6417965888977L1146.1454545454546,250.1074858903885L1152.8090909090909,288.13507604599L1159.4727272727273,264.60862469673157L1166.1363636363635,282.4057810306549L1172.8,277.17908638715744L1179.4636363636364,275.4421607851982L1186.1272727272726,279.3943694829941L1192.790909090909,298.8846632838249L1199.4545454545455,274.355410695076L1206.118181818182,277.91095769405365L1212.7818181818182,301.67877888679504L1219.4454545454546,278.37616860866547L1226.1090909090908,273.6993885040283L1232.7727272727273,299.8256294131279L1239.4363636363637,268.7697705030441L1246.1,285.8231424987316L1252.7636363636364,290.52695363759995L1259.4272727272728,286.85191583633423L1266.090909090909,283.8603311777115L1272.7545454545455,291.1598144173622L1279.4181818181817,273.9450842142105L1286.0818181818183,297.1749545931816L1292.7454545454545,256.8604229092598L1299.409090909091,296.80393266677856L1306.0727272727272,273.8851754665375" style="fill: none;" fill="none"></path></g></g></g></g></g></g><g transform="translate(30, 378)" clip-path="url(#clip_1)"><clipPath id="clip_1"><rect width="1466" height="22"></rect></clipPath><g><g><line x1="0" y1="0" x2="0" y2="5" style="visibility: inherit;" fill="rgb(0, 0, 0)" stroke="rgb(204, 204, 204)" stroke-width="1px"></line><line x1="133.27272727272728" y1="0" x2="133.27272727272728" y2="5" style="visibility: inherit;" fill="rgb(0, 0, 0)" stroke="rgb(204, 204, 204)" stroke-width="1px"></line><line x1="266.54545454545456" y1="0" x2="266.54545454545456" y2="5" style="visibility: inherit;" fill="rgb(0, 0, 0)" stroke="rgb(204, 204, 204)" stroke-width="1px"></line><line x1="399.8181818181818" y1="0" x2="399.8181818181818" y2="5" style="visibility: inherit;" fill="rgb(0, 0, 0)" stroke="rgb(204, 204, 204)" stroke-width="1px"></line><line x1="533.0909090909091" y1="0" x2="533.0909090909091" y2="5" style="visibility: inherit;" fill="rgb(0, 0, 0)" stroke="rgb(204, 204, 204)" stroke-width="1px"></line><line x1="666.3636363636364" y1="0" x2="666.3636363636364" y2="5" style="visibility: inherit;" fill="rgb(0, 0, 0)" stroke="rgb(204, 204, 204)" stroke-width="1px"></line><line x1="799.6363636363636" y1="0" x2="799.6363636363636" y2="5" style="visibility: inherit;" fill="rgb(0, 0, 0)" stroke="rgb(204, 204, 204)" stroke-width="1px"></line><line x1="932.9090909090909" y1="0" x2="932.9090909090909" y2="5" style="visibility: inherit;" fill="rgb(0, 0, 0)" stroke="rgb(204, 204, 204)" stroke-width="1px"></line><line x1="1066.1818181818182" y1="0" x2="1066.1818181818182" y2="5" style="visibility: inherit;" fill="rgb(0, 0, 0)" stroke="rgb(204, 204, 204)" stroke-width="1px"></line><line x1="1199.4545454545455" y1="0" x2="1199.4545454545455" y2="5" style="visibility: inherit;" fill="rgb(0, 0, 0)" stroke="rgb(204, 204, 204)" stroke-width="1px"></line><line x1="1332.7272727272727" y1="0" x2="1332.7272727272727" y2="5" style="visibility: inherit;" fill="rgb(0, 0, 0)" stroke="rgb(204, 204, 204)" stroke-width="1px"></line><line x1="1466" y1="0" x2="1466" y2="5" style="visibility: inherit;" fill="rgb(0, 0, 0)" stroke="rgb(204, 204, 204)" stroke-width="1px"></line></g><g transform="translate(0, 8)"><text x="0" y="0" dx="0em" dy="0.95em" style="text-anchor: middle; visibility: hidden; font-family: &quot;Helvetica Neue&quot;, sans-serif; font-size: 12px; font-weight: 200;" fill="rgb(50, 49, 63)" stroke="none" stroke-width="1px">-20</text><text x="133.27272727272728" y="0" dx="0em" dy="0.95em" style="text-anchor: middle; visibility: inherit; font-family: &quot;Helvetica Neue&quot;, sans-serif; font-size: 12px; font-weight: 200;" fill="rgb(50, 49, 63)" stroke="none" stroke-width="1px">0</text><text x="266.54545454545456" y="0" dx="0em" dy="0.95em" style="text-anchor: middle; visibility: inherit; font-family: &quot;Helvetica Neue&quot;, sans-serif; font-size: 12px; font-weight: 200;" fill="rgb(50, 49, 63)" stroke="none" stroke-width="1px">20</text><text x="399.8181818181818" y="0" dx="0em" dy="0.95em" style="text-anchor: middle; visibility: inherit; font-family: &quot;Helvetica Neue&quot;, sans-serif; font-size: 12px; font-weight: 200;" fill="rgb(50, 49, 63)" stroke="none" stroke-width="1px">40</text><text x="533.0909090909091" y="0" dx="0em" dy="0.95em" style="text-anchor: middle; visibility: inherit; font-family: &quot;Helvetica Neue&quot;, sans-serif; font-size: 12px; font-weight: 200;" fill="rgb(50, 49, 63)" stroke="none" stroke-width="1px">60</text><text x="666.3636363636364" y="0" dx="0em" dy="0.95em" style="text-anchor: middle; visibility: inherit; font-family: &quot;Helvetica Neue&quot;, sans-serif; font-size: 12px; font-weight: 200;" fill="rgb(50, 49, 63)" stroke="none" stroke-width="1px">80</text><text x="799.6363636363636" y="0" dx="0em" dy="0.95em" style="text-anchor: middle; visibility: inherit; font-family: &quot;Helvetica Neue&quot;, sans-serif; font-size: 12px; font-weight: 200;" fill="rgb(50, 49, 63)" stroke="none" stroke-width="1px">100</text><text x="932.9090909090909" y="0" dx="0em" dy="0.95em" style="text-anchor: middle; visibility: inherit; font-family: &quot;Helvetica Neue&quot;, sans-serif; font-size: 12px; font-weight: 200;" fill="rgb(50, 49, 63)" stroke="none" stroke-width="1px">120</text><text x="1066.1818181818182" y="0" dx="0em" dy="0.95em" style="text-anchor: middle; visibility: inherit; font-family: &quot;Helvetica Neue&quot;, sans-serif; font-size: 12px; font-weight: 200;" fill="rgb(50, 49, 63)" stroke="none" stroke-width="1px">140</text><text x="1199.4545454545455" y="0" dx="0em" dy="0.95em" style="text-anchor: middle; visibility: inherit; font-family: &quot;Helvetica Neue&quot;, sans-serif; font-size: 12px; font-weight: 200;" fill="rgb(50, 49, 63)" stroke="none" stroke-width="1px">160</text><text x="1332.7272727272727" y="0" dx="0em" dy="0.95em" style="text-anchor: middle; visibility: inherit; font-family: &quot;Helvetica Neue&quot;, sans-serif; font-size: 12px; font-weight: 200;" fill="rgb(50, 49, 63)" stroke="none" stroke-width="1px">180</text><text x="1466" y="0" dx="0em" dy="0.95em" style="text-anchor: middle; visibility: hidden; font-family: &quot;Helvetica Neue&quot;, sans-serif; font-size: 12px; font-weight: 200;" fill="rgb(50, 49, 63)" stroke="none" stroke-width="1px">200</text></g><line x1="0" y1="0" x2="1466" y2="0" fill="rgb(0, 0, 0)" stroke="rgb(204, 204, 204)" stroke-width="1px"></line></g></g></g></g></svg>