<svg viewBox="0 0 1496 400" xmlns="http://www.w3.org/2000/svg"><g><g><g><g><g><line x1="30" y1="378" x2="25" y2="378" style="visibility: inherit;" fill="rgb(0, 0, 0)" stroke="rgb(204, 204, 204)" stroke-width="1px"></line><line x1="30" y1="336" x2="25" y2="336" style="visibility: inherit;" fill="rgb(0, 0, 0)" stroke="rgb(204, 204, 204)" stroke-width="1px"></line><line x1="30" y1="294" x2="25" y2="294" style="visibility: inherit;" fill="rgb(0, 0, 0)" stroke="rgb(204, 204, 204)" stroke-width="1px"></line><line x1="30" y1="252.00000000000003" x2="25" y2="252.00000000000003" style="visibility: inherit;" fill="rgb(0, 0, 0)" stroke="rgb(204, 204, 204)" stroke-width="1px"></line><line x1="30" y1="210" x2="25" y2="210" style="visibility: inherit;" fill="rgb(0, 0, 0)" stroke="rgb(204, 204, 204)" stroke-width="1px"></line><line x1="30" y1="168" x2="25" y2="168" style="visibility: inherit;" fill="rgb(0, 0, 0)" stroke="rgb(204, 204, 204)" stroke-width="1px"></line><line x1="30" y1="126.00000000000001" x2="25" y2="126.00000000000001" style="visibility: inherit;" fill="rgb(0, 0, 0)" stroke="rgb(204, 204, 204)" stroke-width="1px"></line><line x1="30" y1="84" x2="25" y2="84" style="visibility: inherit;" fill="rgb(0, 0, 0)" stroke="rgb(204, 204, 204)" stroke-width="1px"></line><line x1="30" y1="42.00000000000002" x2="25" y2="42.00000000000002" style="visibility: inherit;" fill="rgb(0, 0, 0)" stroke="rgb(204, 204, 204)" stroke-width="1px"></line><line x1="30" y1="0" x2="25" y2="0" style="visibility: inherit;" fill="rgb(0, 0, 0)" stroke="rgb(204, 204, 204)" stroke-width="1px"></line></g><g transform="translate(20, 0)"><text x="0" y="378" dx="0em" dy="0.3em" style="text-anchor: end; visibility: hidden; font-family: Roboto, sans-serif; font-size: 12px; font-weight: 200;" fill="rgb(50, 49, 63)" stroke="none" stroke-width="1px">-1</text><text x="0" y="336" dx="0em" dy="0.3em" style="text-anchor: end; visibility: inherit; font-family: Roboto, sans-serif; font-size: 12px; font-weight: 200;" fill="rgb(50, 49, 63)" stroke="none" stroke-width="1px">0</text><text x="0" y="294" dx="0em" dy="0.3em" style="text-anchor: end; visibility: inherit; font-family: Roboto, sans-serif; font-size: 12px; font-weight: 200;" fill="rgb(50, 49, 63)" stroke="none" stroke-width="1px">1</text><text x="0" y="252.00000000000003" dx="0em" dy="0.3em" style="text-anchor: end; visibility: inherit; font-family: Roboto, sans-serif; font-size: 12px; font-weight: 200;" fill="rgb(50, 49, 63)" stroke="none" stroke-width="1px">2</text><text x="0" y="210" dx="0em" dy="0.3em" style="text-anchor: end; visibility: inherit; font-family: Roboto, sans-serif; font-size: 12px; font-weight: 200;" fill="rgb(50, 49, 63)" stroke="none" stroke-width="1px">3</text><text x="0" y="168" dx="0em" dy="0.3em" style="text-anchor: end; visibility: inherit; font-family: Roboto, sans-serif; font-size: 12px; font-weight: 200;" fill="rgb(50, 49, 63)" stroke="none" stroke-width="1px">4</text><text x="0" y="126.00000000000001" dx="0em" dy="0.3em" style="text-anchor: end; visibility: inherit; font-family: Roboto, sans-serif; font-size: 12px; font-weight: 200;" fill="rgb(50, 49, 63)" stroke="none" stroke-width="1px">5</text><text x="0" y="84" dx="0em" dy="0.3em" style="text-anchor: end; visibility: inherit; font-family: Roboto, sans-serif; font-size: 12px; font-weight: 200;" fill="rgb(50, 49, 63)" stroke="none" stroke-width="1px">6</text><text x="0" y="42.00000000000002" dx="0em" dy="0.3em" style="text-anchor: end; visibility: inherit; font-family: Roboto, sans-serif; font-size: 12px; font-weight: 200;" fill="rgb(50, 49, 63)" stroke="none" stroke-width="1px">7</text><text x="0" y="0" dx="0em" dy="0.3em" style="text-anchor: end; visibility: hidden; font-family: Roboto, sans-serif; font-size: 12px; font-weight: 200;" fill="rgb(50, 49, 63)" stroke="none" stroke-width="1px">8</text></g><line x1="30" y1="0" x2="30" y2="378" fill="rgb(0, 0, 0)" stroke="rgb(204, 204, 204)" stroke-width="1px"></line></g></g><g transform="translate(30, 0)" clip-path="url(#clip_0)"><clipPath id="clip_0"><rect width="1466" height="378"></rect></clipPath><g><g><g><line x1="0" y1="0" x2="0" y2="378" fill="rgb(0, 0, 0)" stroke="rgb(60, 60, 60)" stroke-width="1px" opacity="0.25"></line><line x1="146.6" y1="0" x2="146.6" y2="378" fill="rgb(0, 0, 0)" stroke="rgb(60, 60, 60)" stroke-width="1px" opacity="0.25"></line><line x1="293.2" y1="0" x2="293.2" y2="378" fill="rgb(0, 0, 0)" stroke="rgb(60, 60, 60)" stroke-width="1px" opacity="0.25"></line><line x1="439.8" y1="0" x2="439.8" y2="378" fill="rgb(0, 0, 0)" stroke="rgb(60, 60, 60)" stroke-width="1px" opacity="0.25"></line><line x1="586.4" y1="0" x2="586.4" y2="378" fill="rgb(0, 0, 0)" stroke="rgb(60, 60, 60)" stroke-width="1px" opacity="0.25"></line><line x1="733" y1="0" x2="733" y2="378" fill="rgb(0, 0, 0)" stroke="rgb(60, 60, 60)" stroke-width="1px" opacity="0.25"></line><line x1="879.6" y1="0" x2="879.6" y2="378" fill="rgb(0, 0, 0)" stroke="rgb(60, 60, 60)" stroke-width="1px" opacity="0.25"></line><line x1="1026.2" y1="0" x2="1026.2" y2="378" fill="rgb(0, 0, 0)" stroke="rgb(60, 60, 60)" stroke-width="1px" opacity="0.25"></line><line x1="1172.8" y1="0" x2="1172.8" y2="378" fill="rgb(0, 0, 0)" stroke="rgb(60, 60, 60)" stroke-width="1px" opacity="0.25"></line><line x1="1319.4" y1="0" x2="1319.4" y2="378" fill="rgb(0, 0, 0)" stroke="rgb(60, 60, 60)" stroke-width="1px" opacity="0.25"></line><line x1="1466" y1="0" x2="1466" y2="378" fill="rgb(0, 0, 0)" stroke="rgb(60, 60, 60)" stroke-width="1px" opacity="0.25"></line></g><g><line x1="0" y1="378" x2="1466" y2="378" fill="rgb(0, 0, 0)" stroke="rgb(60, 60, 60)" stroke-width="1px" opacity="0.25"></line><line x1="0" y1="336" x2="1466" y2="336" fill="rgb(0, 0, 0)" stroke="rgb(60, 60, 60)" stroke-width="1px" opacity="0.25"></line><line x1="0" y1="294" x2="1466" y2="294" fill="rgb(0, 0, 0)" stroke="rgb(60, 60, 60)" stroke-width="1px" opacity="0.25"></line><line x1="0" y1="252.00000000000003" x2="1466" y2="252.00000000000003" fill="rgb(0, 0, 0)" stroke="rgb(60, 60, 60)" stroke-width="1px" opacity="0.25"></line><line x1="0" y1="210" x2="1466" y2="210" fill="rgb(0, 0, 0)" stroke="rgb(60, 60, 60)" stroke-width="1px" opacity="0.25"></line><line x1="0" y1="168" x2="1466" y2="168" fill="rgb(0, 0, 0)" stroke="rgb(60, 60, 60)" stroke-width="1px" opacity="0.25"></line><line x1="0" y1="126.00000000000001" x2="1466" y2="126.00000000000001" fill="rgb(0, 0, 0)" stroke="rgb(60, 60, 60)" stroke-width="1px" opacity="0.25"></line><line x1="0" y1="84" x2="1466" y2="84" fill="rgb(0, 0, 0)" stroke="rgb(60, 60, 60)" stroke-width="1px" opacity="0.25"></line><line x1="0" y1="42.00000000000002" x2="1466" y2="42.00000000000002" fill="rgb(0, 0, 0)" stroke="rgb(60, 60, 60)" stroke-width="1px" opacity="0.25"></line><line x1="0" y1="0" x2="1466" y2="0" fill="rgb(0, 0, 0)" stroke="rgb(60, 60, 60)" stroke-width="1px" opacity="0.25"></line></g></g></g><g><g><line x1="0" y1="336" x2="1466" y2="336" fill="rgb(0, 0, 0)" stroke="rgb(153, 153, 153)" stroke-width="1.5px"></line></g></g><g><g><line x1="146.6" y1="0" x2="146.6" y2="378" fill="rgb(0, 0, 0)" stroke="rgb(153, 153, 153)" stroke-width="1.5px"></line></g></g><g><g><g><g><g><path stroke="rgb(238, 51, 119)" stroke-width="2px" d="M147.333,86.47383499145509L149.2388,213.74855375289917L150.1184,245.44576120376587L152.464,261.5835871696472L152.7572,253.01106119155884L153.197,224.8097949028015L154.3698,269.00229835510254L154.8096,263.5023593902588L157.0086,269.6110038757324L157.4484,280.51730489730835L160.3804,277.26708698272705L161.5532,273.6271505355835L162.1396,262.56176376342773L165.07160000000002,285.0831470489502L166.9774,280.8503966331482L169.323,298.9644527435303L169.7628,279.448495388031L171.0822,276.8004541397095L172.69480000000001,295.2643246650696L173.4278,279.64401054382324L173.721,295.9107713699341L173.86759999999998,279.34871006011963L174.45399999999998,288.4555706977844L176.9462,276.3574333190918L180.1714,291.66954946517944L180.90439999999998,293.6315903663635L183.1034,296.29266929626465L183.983,272.89190340042114L184.716,290.44335651397705L185.7422,295.38047218322754L186.3286,302.1079959869385L186.6218,310.3225164413452L189.40720000000002,295.40723848342896L191.7528,300.9484934806824L192.04600000000002,292.6725697517395L193.2188,302.433837890625L194.978,305.4902129173279L196.29739999999998,301.78710079193115L197.47019999999998,291.3435974121094L199.8158,303.5401782989502L200.4022,307.6447148323059L208.3186,303.574725151062L208.46519999999998,298.3986654281616L210.9574,313.4949288368225L211.3972,299.94558334350586L211.837,305.30773544311523L214.03599999999997,303.7895665168762L214.47580000000002,306.27138233184814L214.6224,311.3311243057251L216.0884,311.21430587768555L218.5806,305.7386498451233L218.8738,290.9065647125244L221.9524,306.39564085006714L222.3922,307.8394989967346L224.4446,314.54471254348755L225.17759999999998,302.002272605896L229.1358,310.9247932434082L230.6018,307.40668201446533L231.4814,303.3618664741516L231.7746,308.0009078979492L232.5076,310.78719663619995L232.6542,311.2743573188782L234.85320000000002,306.6447286605835L237.49200000000002,311.419864654541L237.7852,307.38447189331055L239.5444,309.2777795791626L240.57059999999998,313.5785622596741L240.71720000000002,307.77682399749756L241.01039999999998,311.0601968765259L241.45020000000002,294.51097297668457L241.74339999999998,305.5123128890991L243.5026,307.6391773223877L244.9686,312.76175451278687L246.7278,311.7179789543152L247.4608,307.01825523376465L251.2724,308.3076138496399L251.8588,312.7897424697876L252.4452,314.5707678794861L252.5918,318.5750184059143L253.618,299.9121079444885L254.9374,317.6465492248535L255.52380000000002,308.55720233917236L256.11019999999996,315.7787661552429L256.84319999999997,300.50755548477173L257.4296,311.36610174179077L258.74899999999997,316.2691812515259L259.3354,307.07158756256104L259.6286,312.2927384376526L259.9218,313.99780082702637L260.948,310.32654190063477L261.681,315.06149339675903L261.9742,308.2515277862549L262.7072,314.28152561187744L263.0004,314.8008499145508L263.5868,305.5753884315491L264.1732,310.825168132782L265.0528,312.0474557876587L265.1994,304.4769687652588L268.5712,314.40933895111084L269.1576,310.125479221344L273.9954,309.6404914855957L275.0216,309.7146921157837L275.9012,314.1426672935486L277.9536,315.02385234832764L278.54,314.87652254104614L279.56620000000004,316.1694760322571L279.8594,316.10960483551025L280.73900000000003,314.23628425598145L281.0322,318.61649465560913L283.08459999999997,317.2614369392395L283.2312,311.8916645050049L284.6972,317.96687364578247L285.137,315.7624440193176L286.4564,312.04203844070435L287.0428,311.0746364593506L287.6292,314.7055106163025L288.9486,314.55649852752686L289.0952,314.54206895828247L289.9748,319.72091245651245L290.1214,312.03776264190674L290.8544,313.9694023132324L292.6136,317.14893436431885L293.4932,315.92430353164673L293.933,316.8427791595459L295.25239999999997,309.4254698753357L296.865,313.48361349105835L299.6504,319.9843997955322L301.5562,309.95119285583496L302.43580000000003,318.2155809402466L302.8756,314.05211448669434L303.16880000000003,309.9658827781677L303.7552,315.0728087425232L304.63480000000004,320.8786926269531L305.36780000000005,315.726535320282L306.8338,318.36739683151245L307.7134,316.6805591583252L308.4464,315.2755837440491L309.9124,314.0917081832886L310.6454,315.9377818107605L316.06960000000004,320.40527057647705L316.656,316.0809659957886L316.8026,313.04895401000977L316.9492,320.67277336120605L319.588,318.2499876022339L321.3472,315.94985818862915L321.49379999999996,312.50669860839844L322.3734,318.39756774902344L323.39959999999996,318.4684739112854L327.2112,312.78820037841797L327.5044,315.92652654647827L328.9704,316.1331567764282L330.583,307.1580948829651L331.0228,319.09196949005127L331.4626,314.48387002944946L334.39459999999997,318.03459548950195L335.2742,317.00115394592285L336.30039999999997,318.4873294830322L337.18,317.4695391654968L338.646,317.64261388778687L339.5256,315.25586700439453L339.9654,318.4084825515747L341.57800000000003,321.0556025505066L342.0178,317.51196670532227L342.4576,313.15498781204224L342.6042,316.33172607421875L349.64099999999996,310.8659234046936L350.0808,319.636287689209L350.5206,313.1273603439331L350.6672,322.7351703643799L353.8924,317.91977977752686L355.65160000000003,317.3883090019226L355.9448,318.26369619369507L356.5312,318.05914878845215L357.11760000000004,318.4147310256958L357.704,316.629189491272L361.36899999999997,320.450231552124L361.5156,319.6779341697693L363.1282,319.743953704834L364.301,315.3636031150818L364.8874,321.51228189468384L365.18059999999997,320.87758111953735L367.67280000000005,312.4897656440735L369.8718,317.9176368713379L370.4582,318.21125507354736L374.1232,316.93334197998047L376.4688,317.8663172721863L376.6154,318.1256790161133L378.81440000000003,321.42826795578003L379.40079999999995,320.4456453323364L380.7202,319.65416193008423L381.74640000000005,322.9806933403015L381.89300000000003,316.3932695388794L383.79879999999997,314.86007022857666L385.1182,317.1085295677185L385.8512,320.0471649169922L386.5842,319.04307317733765L387.024,315.52036571502686L387.757,318.22806787490845L388.1968,317.85417079925537L389.956,321.1061611175537L391.12879999999996,320.2364115715027L392.15500000000003,321.75986766815186L393.1812,320.7734498977661L394.5006,323.2795686721802L395.08700000000005,317.26258850097656L395.2336,320.08195209503174L395.3802,320.90811252593994L395.67339999999996,319.9967064857483L396.1132,318.9344458580017L397.13939999999997,324.13885402679443L398.4588,319.45169734954834L399.9248,315.53793954849243L400.5112,322.6435761451721L400.8044,319.4793949127197L401.2442,322.9244771003723L401.9772,320.4813838005066L402.41700000000003,317.09194707870483L402.5636,314.08503913879395L402.7102,312.74533224105835L405.4956,323.46924591064453L406.81500000000005,322.64609956741333L407.69460000000004,322.194296836853L408.7208,313.4508390426636L408.8674,314.31737422943115L410.1868,321.67984914779663L411.213,322.68349027633667L412.9722,318.8012251853943L414.2916,326.69424962997437L414.878,321.2503066062927L416.34399999999994,320.6308364868164L416.93039999999996,320.1460189819336L418.2498,318.48347425460815L420.15560000000005,319.1765441894531L420.5954,323.24425077438354L421.47499999999997,312.2738528251648L421.76820000000004,313.71086168289185L426.75260000000003,317.10729789733887L427.6322,321.5043611526489L430.1244,321.373083114624L430.41760000000005,317.9269495010376L430.7108,318.7789750099182L431.5904,319.5620770454407L432.03020000000004,324.6344962120056L432.3234,315.6877326965332L434.96220000000005,319.1559362411499L437.0146,318.6162042617798L437.3078,315.6093363761902L439.9466,319.35991287231445L440.53299999999996,324.2679591178894L441.7058,324.7007761001587L444.198,319.34795665740967L445.07759999999996,323.6313056945801L448.596,322.4854416847229L450.35519999999997,323.825879573822L450.5018,324.1134796142578L450.9416,320.99105501174927L451.0882,317.2418203353882L451.3814,320.5988030433655L451.6746,321.1055603027344L452.26099999999997,308.4376401901245L452.8474,320.36946201324463L453.5804,319.18865060806274L453.87359999999995,323.39567613601685L456.07259999999997,322.5254559516907L461.057,322.9210524559021L461.64340000000004,319.3689250946045L461.9366,322.2827367782593L462.6696,323.6575312614441L463.98900000000003,321.8952913284302L465.1618,318.02240896224976L465.7482,320.0972328186035L467.21419999999995,326.1226644515991L467.5074,322.2955241203308L467.8006,322.10180139541626L467.94719999999995,322.4137043952942L468.5336,317.5907735824585L468.9734,324.103976726532L470.14619999999996,323.58734607696533L470.7326,320.7841143608093L472.785,320.0720286369324L473.6646,323.65707063674927L474.3976,318.8942713737488L474.5442,321.7512459754944L474.83740000000006,319.7484097480774L475.2772,321.8922371864319L475.5704,325.22766065597534L475.8636,321.3371343612671L476.0102,322.13282346725464L477.0364,327.5876712799072L477.4762,324.51761770248413L478.2092,321.99736976623535L480.9946,322.9521646499634L482.4606,317.60240936279297L483.3402,323.2684836387634L484.21979999999996,319.94353437423706L484.8062,323.6487593650818L484.95279999999997,318.231812953949L486.56539999999995,324.2031111717224L486.71200000000005,324.1287603378296L488.911,321.8039674758911L490.377,322.2227954864502L491.6964,321.95528268814087L494.1886,320.42496728897095L496.82739999999995,323.50603580474854L496.97400000000005,318.8908066749573L497.2672,320.36915159225464L498.7332,326.36476278305054L499.31960000000004,314.697820186615L502.105,322.1510581970215L503.7176,319.7036690711975L504.8904,321.5059733390808L505.77,323.80810546875L505.9166,323.75532388687134L506.2098,320.76856327056885L506.503,325.9546265602112L507.236,320.1171998977661L510.90099999999995,322.6266531944275L511.04760000000005,325.107027053833L512.5136,322.2882742881775L512.8068,326.1597948074341L513.5398,321.90185022354126L515.5922,321.4308714866638L516.4718,323.41734552383423L517.4979999999999,325.72232151031494L517.7912,318.5434556007385L519.9902000000001,319.0141739845276L520.5766,323.3053135871887L520.8698,322.32710695266724L522.7755999999999,323.6259684562683L524.5348,326.7448582649231L526.294,322.1120653152466L526.4406,321.53098726272583L526.5872,321.90782833099365L527.76,323.55178785324097L528.6396,327.295615196228L531.1318,321.79067945480347L532.0114,321.60026121139526L532.158,321.37732887268066L533.3308000000001,318.3586049079895L534.2104,320.7718677520752L535.09,320.107626914978L535.823,315.8803639411926L539.1948,323.7449297904968L539.4879999999999,324.308153629303L540.221,320.3538007736206L540.954,324.95458030700684L542.8598000000001,324.814820766449L543.886,326.2320628166199L546.085,323.7482042312622L547.8442,325.3012204170227L548.284,323.7461714744568L550.3364,324.1734609603882L550.483,324.0151162147522L550.7762,322.45078468322754L555.4674,322.6153178215027L555.614,320.3942255973816L555.7606,327.2628707885742L556.7868000000001,324.7402195930481L558.3994,325.91355085372925L560.5984,320.59834241867065L561.0382,320.51833391189575L561.3314,322.96968841552734L565.7294,322.2137932777405L567.6351999999999,324.3390655517578L568.9546,323.7954182624817L570.274,326.78715562820435L571.1536,319.29527521133423L571.74,320.8793034553528L574.2322,322.29999017715454L574.5254,325.67132234573364L574.672,320.94329023361206L574.8186000000001,322.23982858657837L576.4312,325.71116638183594L579.07,323.745680809021L581.5622,324.74123096466064L582.735,319.2400903701782L586.1068,319.00048542022705L587.4262,326.1745448112488L587.7194,326.1953229904175L588.0126,324.23686695098877L588.599,320.16260147094727L588.7456,319.1920852661133L590.3582,322.25924491882324L590.798,319.385657787323L591.9707999999999,324.98256826400757L592.4106,320.4858798980713L593.73,324.144962310791L595.929,321.3834071159363L596.5154,320.5433979034424L596.8086000000001,324.28695487976074L599.0076,324.38908338546753L600.9134,321.7564129829407L604.2852,322.1810688972473L606.4842,322.7603144645691L606.6308,323.9751420021057L607.6569999999999,320.9022145271301L608.39,319.25526094436646L609.1229999999999,324.88852071762085L609.7094,320.71437978744507L610.0026,325.23931646347046L612.3482,320.2719397544861L614.987,323.55115699768066L615.1336,322.70556020736694L616.1598,321.59849882125854L616.5996,319.1697750091553L620.1179999999999,324.95611238479614L620.5578,314.28264713287354L621.584,326.1268000602722L622.0238,325.37644243240356L622.1704,324.8307423591614L622.4635999999999,325.1943054199219L622.6102000000001,322.4328103065491L625.5422,325.3071084022522L626.2752,328.6040596961975L627.5946,322.6422543525696L627.8878,322.52347326278687L631.1129999999999,317.93488025665283L632.2858,326.42508459091187L634.3381999999999,326.00147008895874L634.4848000000001,325.86457443237305L635.2178,325.17042303085327L635.9508000000001,324.3136911392212L636.977,323.97434091567993L641.2284,324.7847499847412L641.5216,327.8842635154724L641.8148,321.0626320838928L642.9875999999999,326.98314142227173L645.4798000000001,324.16081380844116L646.2128,321.21191453933716L649.438,325.54926681518555L649.8778000000001,311.50303745269775L650.6107999999999,322.16947317123413L651.6370000000001,317.21546459198L652.2234,326.3020577430725L652.5166,325.967143535614L653.3962,322.7842469215393L653.5427999999999,322.86243295669556L654.4224,320.1600980758667L655.4485999999999,324.1694254875183L656.3281999999999,324.247841835022L656.768,320.5897808074951L659.2601999999999,326.9776940345764L659.5534,325.9437117576599L661.0194,320.274112701416L661.4592,321.02207708358765L662.4854,320.85279750823975L664.831,324.3597435951233L665.1242,322.04170989990234L666.0038,321.05782556533813L666.5902,325.8235387802124L666.8834,328.17751121520996L668.9358,322.87066411972046L671.428,319.9122920036316L673.1872,327.11114501953125L674.36,325.0860986709595L676.9988,319.5927987098694L677.292,323.14851093292236L677.5852,321.8788390159607L678.025,323.1653537750244L678.4648,324.9364457130432L680.957,324.39606285095215L682.5696,325.99067544937134L682.7162,324.49721002578735L684.6220000000001,328.1020088195801L689.02,324.676362991333L689.3132,324.981897354126L692.8316,326.1007647514343L693.418,322.8941659927368L693.7112,324.67948722839355L694.5908,324.99236154556274L695.0306,321.87882900238037L695.3238,323.58038663864136L696.6432,327.9947533607483L697.6694,314.0043396949768L699.5752,323.15840435028076L700.7479999999999,321.66199493408203L702.6538,325.35534381866455L702.947,327.74081897735596L703.3868,323.91178607940674L705.146,328.93463802337646L705.7324,321.2028822898865L706.4654,326.5260314941406L706.7586,324.9570736885071L708.2246,326.9890694618225L708.8109999999999,326.38118505477905L710.7168,325.47897148132324L713.0624,326.459361076355L713.7954,325.9861092567444L714.8216,323.01371812820435L718.4866,324.837441444397L718.6332,324.84754514694214L719.806,325.574791431427L721.2719999999999,325.9848074913025L722.4448,325.3889193534851L723.471,323.035117149353L724.0574,323.6102170944214L725.67,325.8989510536194L726.5495999999999,324.55806255340576L727.4291999999999,321.6844153404236L730.6544,327.82198905944824L732.267,323.56428480148315L733,325.62887477874756L734.3194,324.4050450325012L734.466,325.25347566604614L736.2252,324.0982789993286L737.8377999999999,327.6738681793213L738.2776000000001,324.98683404922485L739.7436,325.21373176574707L739.8902,325.6253900527954L740.0368000000001,327.1105842590332L746.6338,327.3775362968445L747.3668,326.65854120254517L747.5134,326.89905738830566L748.9794,324.3375334739685L759.6812,323.3649044036865L761.2938,323.23368644714355L761.4404,324.2883868217468L761.7335999999999,326.63842391967773L762.0268000000001,325.630006313324L762.4666,327.3236331939697L762.6132,327.928653717041L762.9064,324.5942716598511L766.2782000000001,325.6095085144043L767.0112,321.6862678527832L767.4509999999999,327.2111506462097L768.6238,323.78330183029175L770.2364,326.8882827758789L771.5558,322.8664083480835L771.9956,326.831485748291L772.1421999999999,327.8960494995117L774.3412,326.02733516693115L776.6868000000001,321.59017753601074L777.5663999999999,327.1337456703186L778.1528000000001,324.3138313293457L779.4721999999999,325.9297127723694L779.7654000000001,326.4833436012268L781.0848000000001,326.27121591567993L781.6712,326.985294342041L782.5508000000001,328.26970624923706L783.2838,323.84770917892456L787.0954,319.60457468032837L788.4147999999999,324.35132217407227L790.6138,322.2665948867798L791.6400000000001,324.5210123062134L792.5196,322.32710695266724L793.1060000000001,328.46489095687866L793.2526,328.2954812049866L796.038,326.63438844680786L796.1846,325.71269845962524L796.4778,326.7275347709656L797.3574000000001,327.3576292991638L801.7554000000001,325.8489532470703L802.635,322.90156602859497L803.2214000000001,326.79749965667725L803.6612,325.1410732269287L804.8340000000001,322.0425510406494L805.1272,325.9645299911499L807.6193999999999,326.6260771751404L807.7660000000001,324.636278629303L810.5514,323.86326026916504L810.6980000000001,327.0049510002136L811.1378,321.74619913101196L812.4572000000001,326.51902198791504L813.6300000000001,328.6187996864319L813.9232000000001,326.2276568412781L814.0698,323.6397671699524L816.2687999999999,326.63933515548706L817.7348,323.87833070755005L818.1746,326.84804821014404L819.7872000000001,325.8935537338257L820.227,322.6896986961365L820.5201999999999,324.8889813423157L820.8133999999999,326.7081985473633L822.5726000000001,324.4707741737366L825.0648,323.9078006744385L827.2638000000001,324.02539014816284L828.1433999999999,324.2723751068115L829.1696,324.5400080680847L830.3424,327.9107894897461L830.9287999999999,323.15539026260376L831.955,324.09438371658325L832.1016,321.70661544799805L832.2482,323.92792797088623L833.7142,325.6240882873535L837.5258,328.54093408584595L838.2588,325.98790168762207L840.6044,323.91291761398315L841.3374,322.6188426017761L842.217,324.4759511947632L842.8033999999999,323.0656886100769L842.9499999999999,324.5197205543518L844.1228,327.81726264953613L844.5626,323.7222089767456L844.7092,324.22130584716797L845.0024000000001,319.8187551498413L845.4422,327.75143337249756L846.7616,327.0911078453064L847.348,327.3783574104309L847.9344,327.17540216445923L848.3742,323.016161441803L848.5208,321.24226570129395L849.4004,324.5315465927124L850.28,326.5198230743408L850.5732,324.8982939720154L851.013,324.4845428466797L856.1439999999999,323.95465421676636L857.9032000000001,325.9152431488037L860.6886,322.9055013656616L860.9818,324.37627601623535L863.3274,326.82129192352295L863.7671999999999,323.1040005683899L864.0604000000001,326.2993140220642L864.207,327.4747381210327L866.9924000000001,325.72515535354614L870.5108,327.62892723083496L870.9505999999999,323.18735361099243L872.8564,327.28820514678955L874.0292,328.2829041481018L875.3485999999999,325.03382778167725L875.7884,325.43692445755005L876.0816,327.1232314109802L876.2282,327.97714948654175L878.2805999999999,325.7783875465393L879.4534,328.25315380096436L882.6786,325.7381329536438L883.5582,327.4291362762451L883.9979999999999,319.6909418106079L885.0242000000001,327.59532165527344L886.93,328.796320438385L887.2231999999999,327.9865822792053L887.3697999999999,325.26710414886475L888.396,327.41966342926025L891.0348,325.4717016220093L893.3804000000001,328.0171537399292L894.4065999999999,326.25341176986694L895.1396000000001,325.2164454460144L895.2862,324.96560525894165L896.1658,324.48525381088257L898.0716000000001,325.8126640319824L898.3648000000001,326.15464782714844L899.2443999999999,327.32904052734375L903.056,327.3628463745117L903.7890000000001,322.7561287879944L905.6948,327.35282278060913L906.2812,329.25727558135986L908.92,321.0315999984741L910.0928,324.47005319595337L913.4646,325.1492142677307L913.9043999999999,326.95491313934326L914.051,329.0008177757263L914.6374000000001,326.7529492378235L914.784,327.71526432037354L915.3703999999999,328.1258111000061L918.5956000000001,325.9879517555237L921.9674,328.11646842956543L923.8732,327.76005506515503L926.2188,326.1458158493042L927.8314,327.9323687553406L930.1769999999999,323.74381828308105L930.6168,324.3673839569092L932.2294,327.01656675338745L932.376,327.34994888305664L932.8158,325.9006133079529L935.308,328.67828035354614L935.8943999999999,327.83695936203003L938.8263999999999,327.06360054016113L939.1195999999999,325.3104429244995L941.172,324.24476766586304L941.905,327.5331172943115L943.9574,327.63260221481323L944.104,326.17771911621094L944.3972,323.9573378562927L945.1302000000001,326.0286269187927L949.2349999999999,322.4218454360962L950.5544,322.7766366004944L951.5806,327.5251965522766L952.1669999999999,330.0850682258606L953.0466,325.88674449920654L953.9261999999999,329.07167387008667L954.6592,326.0265440940857L955.0989999999999,330.1584777832031L955.3921999999999,328.72019720077515L957.5912,325.1039328575134L958.9106,326.58244800567627L960.0834000000001,329.25847721099854L962.5755999999999,326.1414499282837L963.3086000000001,328.2116575241089L963.6018,323.26557970046997L965.361,325.44019889831543L965.6542,325.88084650039673L966.5338,328.56719970703125L968.293,321.75369930267334L969.0260000000001,319.69860219955444L970.4920000000001,327.631911277771L971.9580000000001,324.90425205230713L974.4501999999999,327.10255336761475L976.0627999999999,327.55823135375977L976.3560000000001,328.0961608886719L976.9424,323.88751316070557L978.7016,325.38430309295654L979.1414000000001,325.66476345062256L985.152,323.163941860199L985.5918,327.1559958457947L986.1782,327.97104120254517L988.2306000000001,327.060115814209L989.8432,326.8176169395447L990.8693999999999,328.1100296974182L991.8956,323.3633522987366L993.3616,328.95680809020996L993.8014,324.3631782531738L994.5344,326.5619101524353L995.2674,322.75448656082153L996.1469999999999,326.79796028137207L997.9062,327.9085364341736L998.0527999999999,323.4555473327637L1000.545,325.9640693664551L1000.9848,328.8559513092041L1002.011,325.8245801925659L1003.7701999999999,323.4383339881897L1005.9692,326.6289710998535L1006.2624000000001,328.03769159317017L1007.2886000000001,325.2882328033447L1008.7546000000001,324.16989612579346L1009.9273999999999,328.57939624786377L1010.2206000000001,328.1454076766968L1010.5138000000001,326.76912117004395L1011.2468,322.4426836967468L1012.5662,325.9027462005615L1014.0322,322.4396595954895L1014.1787999999999,327.886146068573L1015.6447999999999,325.6012873649597L1016.2312000000001,328.54062366485596L1016.3778000000001,328.9338870048523L1019.1632000000001,325.13335275650024L1019.8962,328.2401762008667L1020.1894,327.19523906707764L1020.7758,322.7539858818054L1022.0952000000001,328.3280053138733L1024.734,325.8960371017456L1027.666,327.5784287452698L1028.3990000000001,324.9044623374939L1029.7184,319.0502829551697L1030.598,326.8458251953125L1030.7446,327.4531388282776L1030.8912,321.81383085250854L1031.3310000000001,328.761923789978L1031.7708,325.7254557609558L1034.9959999999999,327.40715646743774L1037.4882,329.15500688552856L1037.6348,324.68442392349243L1038.2212000000002,328.61130952835083L1038.9542,326.654155254364L1039.9804000000001,329.5270314216614L1041.2998,326.5671672821045L1041.593,329.8463444709778L1043.059,326.16674423217773L1043.9386,320.78561639785767L1044.2318,323.1842894554138L1045.1114,328.65570974349976L1045.4045999999998,328.7378611564636L1045.6978000000001,325.2006039619446L1047.457,327.5826745033264L1047.7502,328.36540603637695L1048.0434,319.25408935546875L1051.4152,327.5207004547119L1052.7346,324.3105969429016L1053.1744,328.1716732978821L1055.52,326.8686661720276L1056.9859999999999,327.24058055877686L1057.1326,326.559787273407L1057.4258,324.3146424293518L1058.3054,325.32826709747314L1059.185,326.10239696502686L1060.2112,326.6765856742859L1060.9442,322.0603051185608L1061.9704000000002,324.7830777168274L1062.85,320.74292850494385L1064.7558,323.3962068557739L1065.782,325.39686012268066L1068.5674,328.2059397697449L1071.4994,324.4397220611572L1071.9392,326.4134187698364L1072.5256,328.69914865493774L1072.6722,325.38395261764526L1073.6984,325.330810546875L1076.1906,327.0948529243469L1077.8032,327.41246366500854L1079.4158,324.4087300300598L1080.442,326.7261128425598L1081.3216,328.80964851379395L1084.84,327.30462741851807L1088.2118,327.312518119812L1091.7302,327.86548805236816L1092.903,322.37279891967773L1093.4894,325.90801334381104L1095.3952,327.72588872909546L1097.0077999999999,329.57289361953735L1097.5942,326.9981417655945L1098.767,328.23026275634766L1098.9136,324.0877146720886L1099.5,326.3361840248108L1100.8194,328.1761794090271L1100.966,326.4577889442444L1102.432,326.7642345428467L1102.5786,326.44009494781494L1102.7251999999999,325.53105211257935L1103.898,326.7978000640869L1104.4844,326.9287977218628L1106.83,324.8007016181946L1110.3483999999999,327.92858362197876L1110.9348,322.2586441040039L1111.228,328.25629806518555L1111.3746,328.36454486846924L1111.8144,329.4693531990051L1113.1338,326.7806668281555L1113.2803999999999,325.20926570892334L1114.5998,327.6779537200928L1115.0396,327.4579453468323L1116.5056000000002,328.4760961532593L1117.2386,327.491681098938L1122.5162,325.62410831451416L1123.8355999999999,330.4887957572937L1124.1288,326.4461932182312L1124.7152,326.1446042060852L1125.5948,327.0996994972229L1126.0346,327.68419218063354L1127.0608,325.4217038154602L1127.5006,326.48434495925903L1128.2336,323.98960161209106L1128.6734000000001,326.5816168785095L1129.8462000000002,326.95050716400146L1130.4326,327.3445816040039L1131.019,325.8778624534607L1132.485,326.6833748817444L1132.6316,327.83287382125854L1134.3908000000001,329.6467938423157L1134.9772,327.48882722854614L1136.0034,325.1564841270447L1136.5898,327.06585359573364L1138.2024,327.66225242614746L1139.9615999999999,323.9469738006592L1142.3072,327.72340536117554L1145.9722,326.14641666412354L1148.1712,323.37637996673584L1149.344,328.7533321380615L1150.2236,323.5914616584778L1150.81,327.68175888061523L1151.3964,326.7324514389038L1152.5692,328.7942976951599L1153.4488000000001,330.3275270462036L1153.5954000000002,327.71675634384155L1156.0876,328.18565225601196L1157.407,326.48121070861816L1158.2866000000001,330.46422243118286L1159.4594,327.17461109161377L1159.8992,328.10657501220703L1160.4856,326.6523928642273L1161.9515999999999,326.97450971603394L1163.1244,327.66360425949097L1163.5642,325.25616931915283L1165.6166,328.6383261680603L1166.203,327.7891044616699L1167.3758,327.8120856285095L1167.8156,325.81411600112915L1168.6952,328.36008882522583L1171.334,326.50302028656006L1171.6272000000001,327.13071155548096L1174.266,327.96006631851196L1174.8524,328.5900206565857L1175.2921999999999,323.5636739730835L1177.4912,325.6318988800049L1177.931,326.78148794174194L1178.5174,328.961284160614L1179.5436,323.840980052948L1181.4494,328.56247329711914L1182.329,327.9117307662964L1184.3814,326.99354553222656L1186.1406,328.4112982749939L1187.1668,327.1999855041504L1188.3396,324.9368062019348L1189.5124,328.11512660980225L1189.659,328.7304210662842L1190.392,329.80135345458984L1190.9784,329.51142024993896L1192.8842,328.4388356208801L1193.4706,327.6807975769043L1195.523,327.40753698349L1197.2821999999999,326.857430934906L1197.4288,324.77537727355957L1198.455,329.78610277175903L1199.6278,326.5267324447632L1200.5074,330.2921190261841L1201.387,325.701753616333L1202.4132,326.72999811172485L1202.7064,328.1519064903259L1204.0258000000001,328.3168201446533L1204.319,327.422297000885L1204.4656,328.7804789543152L1207.251,325.17608070373535L1207.6907999999999,324.6443295478821L1209.0102,326.9542922973633L1210.916,322.27610778808594L1212.5285999999999,327.8665895462036L1212.9684,327.25136518478394L1214.4344,327.19026231765747L1216.78,329.2718553543091L1218.3926,326.99501752853394L1218.8324,326.7869453430176L1221.0313999999998,323.977605342865L1222.4974,328.86092805862427L1222.644,327.84784412384033L1223.377,326.892698764801L1223.5236,328.64559602737427L1224.2566,328.43021392822266L1224.5498,329.4829216003418L1225.1362,328.31720066070557L1225.2828,326.68628883361816L1225.4294,320.47623682022095L1227.6284,329.0202040672302L1228.6545999999998,324.61008310317993L1228.8011999999999,329.0186619758606L1229.3876,326.455135345459L1229.6808,329.9376583099365L1231.0002,328.0140595436096L1231.5865999999999,329.1877512931824L1232.0264,327.32139015197754L1235.838,330.0008840560913L1235.9846,327.09215927124023L1237.3039999999999,326.464768409729L1237.7438,327.2522163391113L1238.3302,328.25055027008057L1238.77,324.04288387298584L1240.2359999999999,327.5098457336426L1240.3826,328.32933712005615L1240.5292,328.62156343460083L1240.6758,328.9461336135864L1241.4088,326.7924027442932L1242.2884000000001,329.52800273895264L1242.8748,326.5574541091919L1243.168,328.9534034729004L1245.5136,326.39166927337646L1246.3932,328.50342321395874L1246.5398,325.8454885482788L1247.7126,324.7531771659851L1248.5922,328.7843141555786L1249.3252,327.05771255493164L1250.498,328.2348289489746L1251.5242,327.57032775878906L1252.9902,325.9386248588562L1255.6290000000001,326.6043677330017L1256.8018,328.0765142440796L1260.1736,324.45618438720703L1261.1997999999999,327.348406791687L1262.0794,326.2160210609436L1262.5192,327.84407901763916L1267.0638,325.2700881958008L1267.2104,327.3484568595886L1269.556,327.4599680900574L1269.7026,323.8093671798706L1271.1686,329.1598234176636L1271.6083999999998,328.6119704246521L1271.9016000000001,325.75979232788086L1273.5142,328.9411668777466L1274.3938,330.16888189315796L1274.8336000000002,322.89597845077515L1275.42,328.29574155807495L1277.7656,325.5969214439392L1278.0588,328.91682386398315L1278.2054,328.8434042930603L1278.7918,327.7208318710327L1279.2316,329.94544887542725L1279.5248000000001,327.4897084236145L1279.9646,327.7428116798401L1281.5772,329.8699264526367L1282.1636,328.67617750167847L1283.7762,328.1286950111389L1284.216,327.73968744277954L1287.148,325.29133701324463L1288.3208,329.6062889099121L1289.7868,320.4055109024048L1289.9334000000001,326.76832008361816L1291.546,326.7228784561157L1294.9178,327.6115937232971L1295.6508000000001,327.75579929351807L1298.143,326.69002389907837L1300.6352,327.33030223846436L1301.5148000000002,329.0852122306824L1301.808,326.4558062553406L1304.5934,327.7832565307617L1304.74,327.8123059272766L1305.3264,326.43812227249146L1305.9128,328.3031315803528L1308.5516,324.4177722930908L1309.4312,325.70091247558594L1309.5778,323.8508734703064L1315.735,326.8979458808899L1316.9078,327.7751455307007L1318.0806,329.68320322036743L1318.2272,324.3361415863037L1319.2534,330.1861252784729" style="fill: none;" fill="none"></path></g></g></g></g></g><g><g opacity="0.929469"><span fill="rgb(0, 0, 0)" stroke="none" stroke-width="1px">Alt + Scroll to Zoom</span></g></g></g><g transform="translate(30, 378)" clip-path="url(#clip_1)"><clipPath id="clip_1"><rect width="1466" height="22"></rect></clipPath><g><g><line x1="0" y1="0" x2="0" y2="5" style="visibility: inherit;" fill="rgb(0, 0, 0)" stroke="rgb(204, 204, 204)" stroke-width="1px"></line><line x1="146.6" y1="0" x2="146.6" y2="5" style="visibility: inherit;" fill="rgb(0, 0, 0)" stroke="rgb(204, 204, 204)" stroke-width="1px"></line><line x1="293.2" y1="0" x2="293.2" y2="5" style="visibility: inherit;" fill="rgb(0, 0, 0)" stroke="rgb(204, 204, 204)" stroke-width="1px"></line><line x1="439.8" y1="0" x2="439.8" y2="5" style="visibility: inherit;" fill="rgb(0, 0, 0)" stroke="rgb(204, 204, 204)" stroke-width="1px"></line><line x1="586.4" y1="0" x2="586.4" y2="5" style="visibility: inherit;" fill="rgb(0, 0, 0)" stroke="rgb(204, 204, 204)" stroke-width="1px"></line><line x1="733" y1="0" x2="733" y2="5" style="visibility: inherit;" fill="rgb(0, 0, 0)" stroke="rgb(204, 204, 204)" stroke-width="1px"></line><line x1="879.6" y1="0" x2="879.6" y2="5" style="visibility: inherit;" fill="rgb(0, 0, 0)" stroke="rgb(204, 204, 204)" stroke-width="1px"></line><line x1="1026.2" y1="0" x2="1026.2" y2="5" style="visibility: inherit;" fill="rgb(0, 0, 0)" stroke="rgb(204, 204, 204)" stroke-width="1px"></line><line x1="1172.8" y1="0" x2="1172.8" y2="5" style="visibility: inherit;" fill="rgb(0, 0, 0)" stroke="rgb(204, 204, 204)" stroke-width="1px"></line><line x1="1319.4" y1="0" x2="1319.4" y2="5" style="visibility: inherit;" fill="rgb(0, 0, 0)" stroke="rgb(204, 204, 204)" stroke-width="1px"></line><line x1="1466" y1="0" x2="1466" y2="5" style="visibility: inherit;" fill="rgb(0, 0, 0)" stroke="rgb(204, 204, 204)" stroke-width="1px"></line></g><g transform="translate(0, 8)"><text x="0" y="0" dx="0em" dy="0.95em" style="text-anchor: middle; visibility: hidden; font-family: Roboto, sans-serif; font-size: 12px; font-weight: 200;" fill="rgb(50, 49, 63)" stroke="none" stroke-width="1px">-1k</text><text x="146.6" y="0" dx="0em" dy="0.95em" style="text-anchor: middle; visibility: inherit; font-family: Roboto, sans-serif; font-size: 12px; font-weight: 200;" fill="rgb(50, 49, 63)" stroke="none" stroke-width="1px">0</text><text x="293.2" y="0" dx="0em" dy="0.95em" style="text-anchor: middle; visibility: inherit; font-family: Roboto, sans-serif; font-size: 12px; font-weight: 200;" fill="rgb(50, 49, 63)" stroke="none" stroke-width="1px">1k</text><text x="439.8" y="0" dx="0em" dy="0.95em" style="text-anchor: middle; visibility: inherit; font-family: Roboto, sans-serif; font-size: 12px; font-weight: 200;" fill="rgb(50, 49, 63)" stroke="none" stroke-width="1px">2k</text><text x="586.4" y="0" dx="0em" dy="0.95em" style="text-anchor: middle; visibility: inherit; font-family: Roboto, sans-serif; font-size: 12px; font-weight: 200;" fill="rgb(50, 49, 63)" stroke="none" stroke-width="1px">3k</text><text x="733" y="0" dx="0em" dy="0.95em" style="text-anchor: middle; visibility: inherit; font-family: Roboto, sans-serif; font-size: 12px; font-weight: 200;" fill="rgb(50, 49, 63)" stroke="none" stroke-width="1px">4k</text><text x="879.6" y="0" dx="0em" dy="0.95em" style="text-anchor: middle; visibility: inherit; font-family: Roboto, sans-serif; font-size: 12px; font-weight: 200;" fill="rgb(50, 49, 63)" stroke="none" stroke-width="1px">5k</text><text x="1026.2" y="0" dx="0em" dy="0.95em" style="text-anchor: middle; visibility: inherit; font-family: Roboto, sans-serif; font-size: 12px; font-weight: 200;" fill="rgb(50, 49, 63)" stroke="none" stroke-width="1px">6k</text><text x="1172.8" y="0" dx="0em" dy="0.95em" style="text-anchor: middle; visibility: inherit; font-family: Roboto, sans-serif; font-size: 12px; font-weight: 200;" fill="rgb(50, 49, 63)" stroke="none" stroke-width="1px">7k</text><text x="1319.4" y="0" dx="0em" dy="0.95em" style="text-anchor: middle; visibility: inherit; font-family: Roboto, sans-serif; font-size: 12px; font-weight: 200;" fill="rgb(50, 49, 63)" stroke="none" stroke-width="1px">8k</text><text x="1466" y="0" dx="0em" dy="0.95em" style="text-anchor: middle; visibility: hidden; font-family: Roboto, sans-serif; font-size: 12px; font-weight: 200;" fill="rgb(50, 49, 63)" stroke="none" stroke-width="1px">9k</text></g><line x1="0" y1="0" x2="1466" y2="0" fill="rgb(0, 0, 0)" stroke="rgb(204, 204, 204)" stroke-width="1px"></line></g></g></g></g></svg>