<svg viewBox="0 0 1496 400" xmlns="http://www.w3.org/2000/svg"><g><g><g><g><g><line x1="50" y1="378" x2="45" y2="378" style="visibility: inherit;" fill="rgb(0, 0, 0)" stroke="rgb(204, 204, 204)" stroke-width="1px"></line><line x1="50" y1="336" x2="45" y2="336" style="visibility: inherit;" fill="rgb(0, 0, 0)" stroke="rgb(204, 204, 204)" stroke-width="1px"></line><line x1="50" y1="294" x2="45" y2="294" style="visibility: inherit;" fill="rgb(0, 0, 0)" stroke="rgb(204, 204, 204)" stroke-width="1px"></line><line x1="50" y1="252" x2="45" y2="252" style="visibility: inherit;" fill="rgb(0, 0, 0)" stroke="rgb(204, 204, 204)" stroke-width="1px"></line><line x1="50" y1="210" x2="45" y2="210" style="visibility: inherit;" fill="rgb(0, 0, 0)" stroke="rgb(204, 204, 204)" stroke-width="1px"></line><line x1="50" y1="168" x2="45" y2="168" style="visibility: inherit;" fill="rgb(0, 0, 0)" stroke="rgb(204, 204, 204)" stroke-width="1px"></line><line x1="50" y1="126.00000000000001" x2="45" y2="126.00000000000001" style="visibility: inherit;" fill="rgb(0, 0, 0)" stroke="rgb(204, 204, 204)" stroke-width="1px"></line><line x1="50" y1="84.00000000000004" x2="45" y2="84.00000000000004" style="visibility: inherit;" fill="rgb(0, 0, 0)" stroke="rgb(204, 204, 204)" stroke-width="1px"></line><line x1="50" y1="42.00000000000002" x2="45" y2="42.00000000000002" style="visibility: inherit;" fill="rgb(0, 0, 0)" stroke="rgb(204, 204, 204)" stroke-width="1px"></line><line x1="50" y1="0" x2="45" y2="0" style="visibility: inherit;" fill="rgb(0, 0, 0)" stroke="rgb(204, 204, 204)" stroke-width="1px"></line></g><g transform="translate(40, 0)"><text x="0" y="378" dx="0em" dy="0.3em" style="text-anchor: end; visibility: hidden; font-family: Roboto, sans-serif; font-size: 12px; font-weight: 200;" fill="rgb(50, 49, 63)" stroke="none" stroke-width="1px">-0.2</text><text x="0" y="336" dx="0em" dy="0.3em" style="text-anchor: end; visibility: inherit; font-family: Roboto, sans-serif; font-size: 12px; font-weight: 200;" fill="rgb(50, 49, 63)" stroke="none" stroke-width="1px">0</text><text x="0" y="294" dx="0em" dy="0.3em" style="text-anchor: end; visibility: inherit; font-family: Roboto, sans-serif; font-size: 12px; font-weight: 200;" fill="rgb(50, 49, 63)" stroke="none" stroke-width="1px">0.2</text><text x="0" y="252" dx="0em" dy="0.3em" style="text-anchor: end; visibility: inherit; font-family: Roboto, sans-serif; font-size: 12px; font-weight: 200;" fill="rgb(50, 49, 63)" stroke="none" stroke-width="1px">0.4</text><text x="0" y="210" dx="0em" dy="0.3em" style="text-anchor: end; visibility: inherit; font-family: Roboto, sans-serif; font-size: 12px; font-weight: 200;" fill="rgb(50, 49, 63)" stroke="none" stroke-width="1px">0.6</text><text x="0" y="168" dx="0em" dy="0.3em" style="text-anchor: end; visibility: inherit; font-family: Roboto, sans-serif; font-size: 12px; font-weight: 200;" fill="rgb(50, 49, 63)" stroke="none" stroke-width="1px">0.8</text><text x="0" y="126.00000000000001" dx="0em" dy="0.3em" style="text-anchor: end; visibility: inherit; font-family: Roboto, sans-serif; font-size: 12px; font-weight: 200;" fill="rgb(50, 49, 63)" stroke="none" stroke-width="1px">1</text><text x="0" y="84.00000000000004" dx="0em" dy="0.3em" style="text-anchor: end; visibility: inherit; font-family: Roboto, sans-serif; font-size: 12px; font-weight: 200;" fill="rgb(50, 49, 63)" stroke="none" stroke-width="1px">1.2</text><text x="0" y="42.00000000000002" dx="0em" dy="0.3em" style="text-anchor: end; visibility: inherit; font-family: Roboto, sans-serif; font-size: 12px; font-weight: 200;" fill="rgb(50, 49, 63)" stroke="none" stroke-width="1px">1.4</text><text x="0" y="0" dx="0em" dy="0.3em" style="text-anchor: end; visibility: hidden; font-family: Roboto, sans-serif; font-size: 12px; font-weight: 200;" fill="rgb(50, 49, 63)" stroke="none" stroke-width="1px">1.6</text></g><line x1="50" y1="0" x2="50" y2="378" fill="rgb(0, 0, 0)" stroke="rgb(204, 204, 204)" stroke-width="1px"></line></g></g><g transform="translate(50, 0)" clip-path="url(#clip_0)"><clipPath id="clip_0"><rect width="1446" height="378"></rect></clipPath><g><g><g><line x1="0" y1="0" x2="0" y2="378" fill="rgb(0, 0, 0)" stroke="rgb(60, 60, 60)" stroke-width="1px" opacity="0.25"></line><line x1="144.6" y1="0" x2="144.6" y2="378" fill="rgb(0, 0, 0)" stroke="rgb(60, 60, 60)" stroke-width="1px" opacity="0.25"></line><line x1="289.2" y1="0" x2="289.2" y2="378" fill="rgb(0, 0, 0)" stroke="rgb(60, 60, 60)" stroke-width="1px" opacity="0.25"></line><line x1="433.8" y1="0" x2="433.8" y2="378" fill="rgb(0, 0, 0)" stroke="rgb(60, 60, 60)" stroke-width="1px" opacity="0.25"></line><line x1="578.4" y1="0" x2="578.4" y2="378" fill="rgb(0, 0, 0)" stroke="rgb(60, 60, 60)" stroke-width="1px" opacity="0.25"></line><line x1="723" y1="0" x2="723" y2="378" fill="rgb(0, 0, 0)" stroke="rgb(60, 60, 60)" stroke-width="1px" opacity="0.25"></line><line x1="867.6" y1="0" x2="867.6" y2="378" fill="rgb(0, 0, 0)" stroke="rgb(60, 60, 60)" stroke-width="1px" opacity="0.25"></line><line x1="1012.1999999999999" y1="0" x2="1012.1999999999999" y2="378" fill="rgb(0, 0, 0)" stroke="rgb(60, 60, 60)" stroke-width="1px" opacity="0.25"></line><line x1="1156.8" y1="0" x2="1156.8" y2="378" fill="rgb(0, 0, 0)" stroke="rgb(60, 60, 60)" stroke-width="1px" opacity="0.25"></line><line x1="1301.4" y1="0" x2="1301.4" y2="378" fill="rgb(0, 0, 0)" stroke="rgb(60, 60, 60)" stroke-width="1px" opacity="0.25"></line><line x1="1446" y1="0" x2="1446" y2="378" fill="rgb(0, 0, 0)" stroke="rgb(60, 60, 60)" stroke-width="1px" opacity="0.25"></line></g><g><line x1="0" y1="378" x2="1446" y2="378" fill="rgb(0, 0, 0)" stroke="rgb(60, 60, 60)" stroke-width="1px" opacity="0.25"></line><line x1="0" y1="336" x2="1446" y2="336" fill="rgb(0, 0, 0)" stroke="rgb(60, 60, 60)" stroke-width="1px" opacity="0.25"></line><line x1="0" y1="294" x2="1446" y2="294" fill="rgb(0, 0, 0)" stroke="rgb(60, 60, 60)" stroke-width="1px" opacity="0.25"></line><line x1="0" y1="252" x2="1446" y2="252" fill="rgb(0, 0, 0)" stroke="rgb(60, 60, 60)" stroke-width="1px" opacity="0.25"></line><line x1="0" y1="210" x2="1446" y2="210" fill="rgb(0, 0, 0)" stroke="rgb(60, 60, 60)" stroke-width="1px" opacity="0.25"></line><line x1="0" y1="168" x2="1446" y2="168" fill="rgb(0, 0, 0)" stroke="rgb(60, 60, 60)" stroke-width="1px" opacity="0.25"></line><line x1="0" y1="126.00000000000001" x2="1446" y2="126.00000000000001" fill="rgb(0, 0, 0)" stroke="rgb(60, 60, 60)" stroke-width="1px" opacity="0.25"></line><line x1="0" y1="84.00000000000004" x2="1446" y2="84.00000000000004" fill="rgb(0, 0, 0)" stroke="rgb(60, 60, 60)" stroke-width="1px" opacity="0.25"></line><line x1="0" y1="42.00000000000002" x2="1446" y2="42.00000000000002" fill="rgb(0, 0, 0)" stroke="rgb(60, 60, 60)" stroke-width="1px" opacity="0.25"></line><line x1="0" y1="0" x2="1446" y2="0" fill="rgb(0, 0, 0)" stroke="rgb(60, 60, 60)" stroke-width="1px" opacity="0.25"></line></g></g></g><g><g><line x1="0" y1="336" x2="1446" y2="336" fill="rgb(0, 0, 0)" stroke="rgb(153, 153, 153)" stroke-width="1.5px"></line></g></g><g><g><line x1="144.6" y1="0" x2="144.6" y2="378" fill="rgb(0, 0, 0)" stroke="rgb(153, 153, 153)" stroke-width="1.5px"></line></g></g><g><g><g><g><g><path stroke="rgb(238, 51, 119)" stroke-width="2px" d="M145.323,78.9101371765137L147.2028,154.59486758708954L148.0704,165.3515682220459L150.384,189.4133130311966L150.6732,190.39977586269382L151.107,191.62747836112976L152.2638,193.27558851242065L152.6976,197.00778758525848L154.8666,208.30865120887756L155.3004,208.15068697929382L158.1924,217.86986804008487L159.3492,219.25314402580264L159.9276,222.38326406478882L162.8196,231.69890409708026L164.6994,232.97041600942615L167.013,239.59393000602722L167.4468,240.89876836538318L168.7482,242.75581812858582L170.3388,246.58268308639526L171.0618,248.7810582518578L171.351,249.95319163799286L171.4956,251.33527225255966L172.07399999999998,251.69292604923248L174.5322,254.00645112991333L177.7134,262.83410435914993L178.4364,264.25876772403717L180.6054,265.75537866353994L181.473,265.741647541523L182.196,269.9643743634224L183.2082,269.8750720024109L183.7866,270.139549434185L184.0758,271.3249257802963L186.8232,276.6679469347L189.1368,280.04138445854187L189.42600000000002,279.22495847940445L190.5828,281.130555331707L192.318,282.8879449367523L193.61939999999998,283.58303448557854L194.7762,285.98626559972763L197.0898,286.3078830242157L197.66819999999998,287.3619093596935L205.47660000000002,294.85135397315025L205.6212,295.65020924806595L208.0794,294.6082148551941L208.51319999999998,295.94642347097397L208.94699999999997,296.19731998443604L211.11599999999999,297.1216986179352L211.54980000000003,297.9897758960724L211.6944,298.6730525493622L213.1404,299.39670583605766L215.5986,298.8568893671036L215.88779999999997,300.1955204308033L218.92440000000002,301.63748851418495L219.3582,301.733130723238L221.38260000000002,301.15218034386635L222.10559999999998,303.5412891805172L226.00979999999998,302.4143358170986L227.45579999999998,302.9614903628826L228.32340000000002,304.18466171622276L228.6126,303.2626268863678L229.3356,304.80361676216125L229.48020000000002,303.67850026488304L231.6492,306.5044984817505L234.252,305.69453752040863L234.5412,305.88220766186714L236.2764,307.5824353694916L237.2886,306.37752628326416L237.43320000000003,307.45905554294586L237.7224,307.27267464995384L238.1562,305.5260465145111L238.44539999999998,306.4712815582752L240.1806,306.9112188220024L241.6266,306.45347303152084L243.36180000000002,307.5940135717392L244.0848,308.2390665113926L247.8444,309.1921121478081L248.42280000000002,308.8559124469757L249.00119999999998,309.34639325737953L249.1458,308.70730778574944L250.158,310.02078598737717L251.4594,308.31504768133163L252.0378,309.06962728500366L252.6162,308.95338839292526L253.3392,309.8613525778055L253.91760000000002,310.5988105237484L255.219,310.2700506001711L255.7974,309.729772567749L256.08660000000003,309.57921212911606L256.3758,309.28563272953033L257.388,309.949314057827L258.111,309.14382165670395L258.4002,309.7343131005764L259.1232,311.4524729400873L259.4124,311.33751860260963L259.9908,311.89550971984863L260.5692,310.69934061169624L261.4368,311.1212205737829L261.58140000000003,310.645162448287L264.9072,311.1624608784914L265.48560000000003,311.36156840622425L270.2574,311.1694171875715L271.26959999999997,312.69150955975056L272.1372,312.45826667547226L274.16159999999996,312.7426101118326L274.74,312.8415145576L275.7522,311.80195158720016L276.04139999999995,311.1069214940071L276.909,312.0103091597557L277.1982,311.53280375897884L279.2226,311.75810618698597L279.3672,312.8218879401684L280.8132,313.4221660941839L281.247,312.1039361357689L282.54839999999996,313.6723334938288L283.1268,313.6690086722374L283.70520000000005,313.67710871994495L285.0066,312.38469971716404L285.15119999999996,312.6871865093708L286.0188,313.64244608581066L286.16339999999997,312.2506303936243L286.8864,313.9830580204725L288.6216,313.4601785838604L289.4892,313.95238986611366L289.923,312.8227954208851L291.2244,313.4392345547676L292.815,312.5697991847992L295.5624,314.2197665423155L297.4422,313.2262003272772L298.3098,313.22148299217224L298.7436,314.37692499160767L299.0328,314.3042248338461L299.6112,314.17370407283306L300.47880000000004,314.32926973700523L301.2018,313.95888774096966L302.6478,313.87337489426136L303.5154,313.7218224853277L304.2384,314.9349364489317L305.6844,314.2187855243683L306.4074,313.80759662389755L311.7576,315.07857343554497L312.336,315.43965062499046L312.4806,314.06549794971943L312.6252,315.3015445768833L315.228,315.1495259106159L316.96320000000003,315.0430252254009L317.1078,313.9852844774723L317.97540000000004,314.0031665414572L318.9876,315.27489906549454L322.7472,315.4344748556614L323.03639999999996,315.8604478687048L324.4824,315.60589952766895L326.07300000000004,314.35324600338936L326.5068,315.84147526323795L326.9406,315.159397110343L329.8326,314.9366825670004L330.7002,314.9000140875578L331.7124,315.9105126410723L332.58000000000004,316.01919597387314L334.026,315.80601623654366L334.8936,316.2767749875784L335.3274,314.9241874963045L336.918,316.05253806710243L337.3518,315.38383273780346L337.7856,316.04944168031216L337.9302,314.9715939760208L344.871,315.5763422548771L345.3048,316.4372191429138L345.7386,315.449595361948L345.8832,316.3289879858494L349.0644,316.36990128457546L350.7996,316.65285064280033L351.0888,316.9287341684103L351.6672,316.61014741659164L352.2456,316.68710803985596L352.824,316.8096179366112L356.439,315.52272579073906L356.58360000000005,316.3161518275738L358.1742,315.89039316773415L359.331,315.6962157636881L359.9094,315.5411789417267L360.1986,315.62773382663727L362.65680000000003,317.1267402023077L364.8258,316.1665583252907L365.40419999999995,316.2067018300295L369.01919999999996,316.85419088602066L371.33279999999996,317.2361416965723L371.47740000000005,316.37145495414734L373.6464,317.311249807477L374.22479999999996,317.31098695099354L375.52619999999996,316.318159237504L376.5384,317.1348308622837L376.683,315.51265431940556L378.5628,317.1754547059536L379.8642,316.34791208803654L380.5872,316.92418894171715L381.3102,316.4354104399681L381.744,317.20101124048233L382.46700000000004,316.3625913709402L382.90079999999995,317.3882104307413L384.636,317.4450328052044L385.7928,317.5126432478428L386.805,316.18421821296215L387.8172,317.597193852067L389.1186,316.7936681807041L389.697,316.2707464993L389.8416,317.47175654768944L389.9862,316.3272543847561L390.27539999999993,316.4374413192272L390.7092,317.41824647784233L391.72139999999996,316.7347773760557L393.02279999999996,317.28557592630386L394.4688,317.7213685065508L395.0472,317.586692109704L395.33639999999997,317.22891157865524L395.7702,316.72510801255703L396.4932,317.5482743829489L396.927,316.7922584563494L397.0716,317.7359773814678L397.2162,316.353058129549L399.96360000000004,317.5849381685257L401.26500000000004,316.6896098703146L402.1326,316.80907344818115L403.1448,317.6676566004753L403.2894,317.4088258892298L404.5908,317.8546899408102L405.60300000000007,316.3245209902525L407.33820000000003,317.02653555572033L408.63960000000003,317.8486285954714L409.21799999999996,317.86115965247154L410.664,318.01060451567173L411.2424,317.7929734289646L412.5438,317.451705917716L414.4236,317.64547495543957L414.8574,316.92175126075745L415.72499999999997,316.9255188703537L416.0142,317.043101772666L420.9306,317.2886394560337L421.7982,317.21779181063175L424.2564,317.9188316166401L424.54560000000004,317.75224006175995L424.83480000000003,317.96399442851543L425.7024,317.63837000727654L426.13620000000003,317.19674921035767L426.42539999999997,317.319424957037L429.0282,317.38234466314316L431.0526,317.59539453685284L431.34180000000003,316.9696740657091L433.9446,317.3035409152508L434.52299999999997,317.38564445078373L435.6798,317.01648911833763L438.138,318.11645744740963L439.00559999999996,318.26576149463654L442.476,318.52121575176716L444.21119999999996,318.22096636891365L444.35580000000004,317.3706287741661L444.78959999999995,318.37785413861275L444.9342,317.64554223418236L445.2234,317.44080206751823L445.51259999999996,317.2614244222641L446.091,317.83586440980434L446.6694,317.498050019145L447.3924,318.32048727571964L447.6816,318.3111230134964L449.8506,317.19754403829575L454.767,317.4090011268854L455.34540000000004,317.6020520031452L455.6346,317.8899580836296L456.3576,318.4325329810381L457.659,317.64406053721905L458.8158,317.56157836318016L459.39419999999996,317.2565756589174L460.8402,317.80589877068996L461.12940000000003,317.49758219718933L461.41859999999997,317.2742308527231L461.5632,318.63467118144035L462.1416,318.6918502897024L462.5754,317.90957374870777L463.7322,317.8190024793148L464.3106,318.48566284775734L466.33500000000004,317.8014693260193L467.2026,317.5539962053299L467.9256,318.7498508244753L468.0702,317.9674303382635L468.35940000000005,317.87241710722446L468.79319999999996,318.59152203798294L469.0824,318.47227750718594L469.3716,318.3182029277086L469.51619999999997,317.4047406613827L470.52840000000003,318.49754928052425L470.9622,317.4905523508787L471.6852,318.6020660251379L474.4326,317.8860825151205L475.8786,317.86428889632225L476.7462,317.8037974834442L477.61379999999997,317.3206719607115L478.1922,317.938117146492L478.3368,318.8322798013687L479.9274,317.64917528629303L480.072,318.60210044682026L482.24100000000004,317.6979633271694L483.687,318.28053621947765L484.98839999999996,318.9571507126093L487.4466,317.72380462288857L490.0494,317.92847438156605L490.194,318.904504314065L490.4832,318.929215952754L491.9292,318.79668152332306L492.5076,319.03971737623215L495.25500000000005,318.2574909031391L496.84560000000005,318.8601613640785L498.00239999999997,318.9510111361742L498.86999999999995,318.9330414533615L499.01460000000003,318.3233536630869L499.30379999999997,318.1219351887703L499.59299999999996,317.8349850922823L500.316,319.2736471295357L503.931,318.0127449184656L504.0756,318.8842893987894L505.52160000000003,318.9491038620472L505.8108,318.8912191092968L506.5338,317.99326537549496L508.5582,318.04756557941437L509.4258,318.04846523702145L510.438,318.9897605627775L510.72720000000004,319.0797044187784L512.8962,318.58841313421726L513.4746,318.1768878400326L513.7638000000001,318.08079658448696L515.6436,319.13640631735325L517.3788,318.9577937722206L519.114,319.03916193544865L519.2586,318.7108135074377L519.4032000000001,319.0677131563425L520.56,318.9819452762604L521.4276,318.80485197901726L523.8858,318.0658278465271L524.7534,318.231669947505L524.898,319.065083026886L526.0548,319.25821682810783L526.9224,318.9519733786583L527.79,319.11330154538155L528.513,318.4127358198166L531.8388,319.17121133208275L532.128,319.23075145483017L532.851,318.67858386039734L533.574,318.9869896173477L535.4538,318.6057882606983L536.466,319.2094319164753L538.635,318.15707659721375L540.3702,318.4139092862606L540.804,319.09777423739433L542.8284,319.24875712394714L542.973,318.22499683499336L543.2622,318.3010828346014L547.8894,318.28374525904655L548.034,319.48045729100704L548.1786,318.2372916340828L549.1908000000001,319.4216259419918L550.7814000000001,318.8159435838461L552.9504000000001,319.3122244477272L553.3842,318.245377600193L553.6734,318.3552641272545L558.0114,318.457142919302L559.8912,319.4162811934948L561.1926,318.6010677963495L562.494,319.4797156602144L563.3616,319.43094795942307L563.94,319.33127215504646L566.3982,318.71448723971844L566.6874,318.7227719128132L566.832,319.4398287534714L566.9766,318.95061215758324L568.5672,319.57482589781284L571.1700000000001,319.503577709198L573.6282,318.6797041296959L574.7850000000001,318.52377077937126L578.1108,319.5358527302742L579.4122,318.68874920904636L579.7013999999999,318.4876843392849L579.9906,318.42003947496414L580.5690000000001,318.6334476470947L580.7136,319.75393129885197L582.3042,318.7726426720619L582.738,319.638731315732L583.8948,319.6725912988186L584.3286,318.780417278409L585.63,319.5052299499512L587.799,318.7463100850582L588.3774,318.763836979866L588.6666,318.76573799550533L590.8356,319.59246231615543L592.7153999999999,319.04540790617466L596.0412,319.8038145750761L598.2102,318.67732433974743L598.3548,319.6099860817194L599.367,319.0872005224228L600.0899999999999,319.7313663214445L600.813,319.00933711230755L601.3914,318.69248865544796L601.6806,318.78109319508076L603.9942,318.75727182626724L606.597,318.5950690358877L606.7416,319.676250949502L607.7538,318.6084277778864L608.1876,319.69810715317726L611.658,319.8106159865856L612.0918,318.79454581439495L613.1039999999999,319.7962981313467L613.5378000000001,318.66588382422924L613.6824,319.46224196255207L613.9716,319.74321833252907L614.1162,319.00302386283875L617.0082,319.2082490622997L617.7312000000001,319.6486056447029L619.0326,319.04653130471706L619.3218,319.12681049108505L622.503,319.32880944013596L623.6598,319.08848194777966L625.6841999999999,318.83545911312103L625.8288,319.7937869131565L626.5518000000001,318.60657370090485L627.2748,319.90675887465477L628.287,318.94660672545433L632.4804,319.9747792482376L632.7696,319.79844948649406L633.0588,319.45701925456524L634.2156,319.8863155245781L636.6738,318.84242793917656L637.3968,319.80157090723515L640.578,319.74492689967155L641.0118,319.05201686918736L641.7348,319.9314282685518L642.747,318.8620983660221L643.3254000000001,319.0186700820923L643.6146,318.9125480353832L644.4822,318.9530733078718L644.6268,319.98311868309975L645.4944,320.05003286898136L646.5066,319.005428686738L647.3742,318.93263621628284L647.808,319.8336331397295L650.2662,318.9645920544863L650.5554000000001,318.9154175519943L652.0014,319.2507160305977L652.4352,319.95547963678837L653.4474,319.33058528602123L655.761,318.88094736635685L656.0502,318.7951857447624L656.9177999999999,319.2759924978018L657.4962,319.03093045949936L657.7854000000001,318.95156031847L659.8098,319.2803953438997L662.268,319.95692221820354L664.0032,320.05459217727184L665.1600000000001,319.8927961885929L667.7628,319.83773401379585L668.052,319.88619035482407L668.3412,320.0025966614485L668.775,319.2413799315691L669.2088,319.92539978027344L671.667,319.2150176167488L673.2576,320.1771052032709L673.4022,319.0377334356308L675.282,319.8621249049902L679.62,320.0220386534929L679.9092,319.96503165364265L683.3796,320.0415181964636L683.958,319.9064944535494L684.2472,320.0682075172663L685.1148,319.9865843206644L685.5486000000001,319.27236101031303L685.8378,319.32656890153885L687.1392,319.8814292103052L688.1514,319.02841924130917L690.0312,320.1566602885723L691.188,320.0855122357607L693.0678,319.42870116233826L693.357,319.16206455230713L693.7908,319.9132223278284L695.526,320.05458748340607L696.1043999999999,320.03391882777214L696.8274,319.4287089854479L697.1166,319.7232208997011L698.5626,319.62594053149223L699.141,319.15456219017506L701.0208,320.18698735535145L703.3344,320.1151336580515L704.0574,319.08677807450294L705.0695999999999,320.21521313488483L708.6845999999999,319.444384932518L708.8292,320.14731949567795L709.986,320.1272845119238L711.432,320.03931364417076L712.5888,320.17866356670856L713.601,319.38316909968853L714.1794,319.1241349875927L715.77,320.14127849042416L716.6376,319.94007593393326L717.5052,320.0898337215185L720.6864,320.03888180851936L722.277,319.1144640594721L723,320.1588319838047L724.3014000000001,319.26545007526875L724.446,320.0369150787592L726.1812,320.04421247541904L727.7718,319.36134888231754L728.2056000000001,320.159706607461L729.6516,319.92781242728233L729.7962,319.21135483682156L729.9408000000001,320.089362770319L736.4477999999999,319.35593216121197L737.1708000000001,320.34368424117565L737.3154000000001,319.27930323779583L738.7614,319.109163120389L749.3172,320.32038076221943L750.9078,319.2851439714432L751.0523999999999,320.28983621299267L751.3416,320.2707149684429L751.6308,320.3694144487381L752.0646,319.24477046728134L752.2092,320.3263967335224L752.4984,320.29559402167797L755.8242000000001,319.73777344822884L756.5472,320.32818196713924L756.981,319.4291783720255L758.1378,319.4928631782532L759.7284,320.168446585536L761.0298,319.3847916126251L761.4635999999999,320.46863651275635L761.6081999999999,319.67609918117523L763.7772,320.24539782106876L766.0908000000001,320.48411218822L766.9584,320.3006759136915L767.5368000000001,320.2848012596369L768.8381999999999,319.8538058102131L769.1274000000001,319.79335664212704L770.4288,320.39429350197315L771.0072,320.30608481168747L771.8748,320.41179536283016L772.5978,319.74543383717537L776.3574000000001,319.70285265147686L777.6587999999999,320.14622738957405L779.8278,319.59199449419975L780.84,320.24067579209805L781.7076,320.4507419317961L782.2860000000001,320.3378372490406L782.4306,319.4190646559L785.1780000000001,320.26254764199257L785.3226000000001,319.5404495894909L785.6118,319.53282518684864L786.4794,319.78869093954563L790.8174,319.61007682979107L791.685,319.6655927449465L792.2634,319.18418361246586L792.6972000000001,320.5273067057133L793.854,320.4720630347729L794.1432,320.4361533969641L796.6013999999999,319.52120004594326L796.7460000000001,320.3104016035795L799.4934,319.82121317088604L799.638,320.19525168836117L800.0718,319.6506224423647L801.3732,320.28492955863476L802.5300000000001,320.37615014612675L802.8192,320.27717216312885L802.9638,319.6443295329809L805.1328,320.4022323936224L806.5788,320.4401275366545L807.0126,320.0496886521578L808.6032,320.41408284008503L809.037,319.6246997863054L809.3262,319.6255744099617L809.6153999999999,319.85741852223873L811.3506000000001,319.648247346282L813.8087999999999,320.5085359364748L815.9778,319.7243865430355L816.8453999999999,319.7482626736164L817.8575999999999,320.57434862852097L819.0144,320.3004083633423L819.5928,320.4545768201351L820.605,319.57191413640976L820.7496,320.1458346694708L820.8942,319.70359271764755L822.3402,319.642944842577L826.0998000000001,319.6782333254814L826.8227999999999,320.50855784118176L829.1364,320.5113428682089L829.8593999999999,319.68701711297035L830.727,319.91226164996624L831.3054,320.05578285455704L831.4499999999999,320.48738381266594L832.6068,320.43514578044415L833.0405999999999,319.5914359241724L833.1852000000001,320.44033719599247L833.4744000000001,320.1983871906996L833.9082,319.9439421147108L835.2096,320.6086138486862L835.7879999999999,320.3254031985998L836.3664,320.4191725552082L836.8002,319.3763363957405L836.9448,320.59198974072933L837.8124,320.5774903893471L838.68,320.51830074191093L838.9692000000001,320.52858187258244L839.403,319.8373365998268L844.4639999999999,320.465562030673L846.1992000000001,320.5246437191963L848.9466,319.62971909344196L849.2358,319.50074730813503L851.5494,319.74047711491585L851.9831999999999,320.6482238173485L852.2724000000001,320.42445158958435L852.417,319.65255162119865L855.1644,320.53730307519436L858.6348,320.6002634614706L859.0686,320.04102846980095L860.9484000000001,320.4016096740961L862.1052,320.59197252988815L863.4065999999999,319.8060159981251L863.8404,320.4741940498352L864.1296,320.46774780750275L864.2742000000001,319.4399711340666L866.2986,319.9543077349663L867.4553999999999,319.6725177615881L870.6365999999999,319.8908842206001L871.5042,319.6524170637131L871.938,320.6627137809992L872.9502,319.8402436673641L874.8299999999999,320.50062207877636L875.1192,320.4536505639553L875.2638,319.84695433080196L876.276,320.6783881634474L878.8788,320.5472415536642L881.1924,319.62592801451683L882.2045999999999,319.63616064190865L882.9276000000001,320.6021816879511L883.0722000000001,320.1418730467558L883.9397999999999,319.9262368530035L885.8196,320.7340214252472L886.1088,320.65670719742775L886.9763999999999,320.4099944829941L890.736,320.49676372110844L891.4590000000001,319.9950004220009L893.3388,320.5640268176794L893.9172,320.3734386563301L896.52,320.5344492048025L897.6768000000001,320.67695496976376L901.0026,319.7942875921726L901.4363999999999,320.73480843007565L901.5810000000001,319.70206721127033L902.1594,319.70329074561596L902.304,320.529764726758L902.8824,320.501279219985L906.0636000000001,320.7081269323826L909.3894,319.78857359290123L911.2692,320.78493735194206L913.5828,320.68729242682457L915.1734,319.99886660277843L917.487,319.66521567106247L917.9208000000001,320.62443843483925L919.5114,320.6395730227232L919.6560000000001,320.69564750790596L920.0898,319.83375987410545L922.548,320.5462464541197L923.1264,320.5312933623791L926.0183999999999,320.57674093544483L926.3076,320.69142615795135L928.332,320.7295669466257L929.055,319.8928446918726L931.0794000000001,320.2085963487625L931.224,320.6813499927521L931.5132,320.67635102570057L932.2362,320.100010022521L936.285,320.2164945602417L937.5863999999999,320.6562174707651L938.5986,320.1975876688957L939.1769999999999,319.86768713593483L940.0446000000001,319.9136432111263L940.9121999999999,319.86633060872555L941.6352,320.76341754198074L942.069,319.9044526219368L942.3581999999999,319.84420841932297L944.5272,320.73647788167L945.8286,319.888518512249L946.9854,319.9032431691885L949.4436,320.7111654281616L950.1666,319.6346460878849L950.4558,319.9232186973095L952.1909999999999,319.99509117007256L952.4802,320.27707985043526L953.3478,320.3000563234091L955.083,319.64989176392555L955.806,320.72912415862083L957.2520000000001,320.53558199107647L958.6980000000001,320.73612427711487L961.1561999999999,320.1784883290529L962.7467999999999,320.7209505736828L963.0360000000001,320.6286191046238L963.6143999999999,320.7802184522152L965.3496,320.59168776869774L965.7834,320.08854603767395L971.7120000000001,320.78006199002266L972.1458,320.07814130187035L972.7242,319.99323239922523L974.7486,319.9385488629341L976.3392,320.6391896903515L977.3513999999999,320.0196995437145L978.3636,320.8590926080942L979.8095999999999,320.6436160057783L980.2434,320.26134914159775L980.9664,320.7871982306242L981.6894,320.0991463512182L982.557,320.2382897436619L984.2922,320.00153428316116L984.4368,320.7878037393093L986.895,320.0038061141968L987.3288,320.8971567302942L988.341,320.21546034514904L990.0762,320.18767735362053L992.2452000000001,320.8242875933647L992.5344,320.90174420177937L993.5466,320.1113582253456L994.9926,320.1668929159641L996.1493999999999,320.2266411334276L996.4386000000001,320.13136817514896L996.7278,319.94608095288277L997.4508,320.85754676163197L998.7522,320.2541816085577L1000.1981999999999,320.0745395421982L1000.3428,320.664436429739L1001.7887999999999,320.8072285205126L1002.3672,320.83478307724L1002.5118,320.07834626734257L1005.2592000000001,320.63224433362484L1005.9822,320.0178908407688L1006.2714,319.87942023575306L1006.8498000000001,319.9113072305918L1008.1512,320.78535510599613L1010.7539999999999,320.8268222808838L1013.646,320.809902459383L1014.369,320.3173938989639L1015.6704000000001,320.79403249919415L1016.5379999999999,320.7115409374237L1016.6826,320.15863014757633L1016.8272000000001,320.72980320453644L1017.261,320.054966121912L1017.6948,320.7568242251873L1020.876,320.8525118082762L1023.3342,319.92632603645325L1023.4788,320.85208466649055L1024.0572,320.83525559306145L1024.7802,320.0498075634241L1025.7924,320.85689118504524L1027.0938,320.0905597060919L1027.383,320.01588030159473L1028.829,320.42230492830276L1029.6966,320.27234686911106L1029.9858000000002,320.36045229434967L1030.8534,320.1809041053057L1031.1426,320.0498748421669L1031.4318,320.38757814466953L1033.1670000000001,319.9440406858921L1033.4562,319.92712868750095L1033.7454,319.91233518719673L1037.0711999999999,320.86587680876255L1038.3726,320.35231626033783L1038.8064000000002,320.9156755954027L1041.12,320.7064809501171L1042.566,319.95691126585007L1042.7105999999999,320.7158483415842L1042.9998,320.7274547070265L1043.8674,320.9158398807049L1044.7350000000001,320.89462204277515L1045.7472,320.13897536695004L1046.4702,320.8628930747509L1047.4824,320.1104257106781L1048.35,320.018724784255L1050.2297999999998,320.8990123718977L1051.242,320.3271665275097L1053.9894,320.94491524994373L1056.8814,321.00830590724945L1057.3152,320.0524283051491L1057.8936,320.1359415650368L1058.0382,320.71828289330006L1059.0504,320.36419643461704L1061.5086,320.79573637247086L1063.0991999999999,320.0718796849251L1064.6897999999999,320.8003066331148L1065.702,320.0560410171747L1066.5696,320.1296862065792L1070.04,320.41344290971756L1073.3658,321.00425823032856L1076.8362,320.76771242916584L1077.9930000000002,320.87674936652184L1078.5714,321.0096311420202L1080.4512,320.33025039732456L1082.0418,320.87424597144127L1082.6202,320.97566632926464L1083.777,320.7682052850723L1083.9216000000001,320.2233882844448L1084.5,320.5615140348673L1085.8014,320.7186693549156L1085.946,320.2561765015125L1087.392,320.241368919611L1087.5366,320.88825872540474L1087.6812,320.40093219280243L1088.838,320.02700163424015L1089.4163999999998,320.29158233106136L1091.73,320.0222655236721L1095.2004,320.16035279631615L1095.7788,320.1394557058811L1096.068,320.18633334338665L1096.2126,320.93991158902645L1096.6463999999999,320.3696569651365L1097.9478,320.92759332060814L1098.0924,320.32306565344334L1099.3938,320.7202590107918L1099.8276,320.0691228210926L1101.2736,320.10460218787193L1101.9966,320.90525521337986L1107.2022000000002,320.89442490041256L1108.5036,320.0157222747803L1108.7928,320.05830189585686L1109.3712,320.28971886634827L1110.2388,320.31154377758503L1110.6726,321.02063043415546L1111.6848,320.37165029346943L1112.1186,320.8600110411644L1112.8416,320.2430806159973L1113.2754,320.9332885444164L1114.4322,321.05593456327915L1115.0106,320.9787048250437L1115.589,320.93635207414627L1117.0349999999999,320.90110114216805L1117.1796,320.2477150261402L1118.9148,320.22450073063374L1119.4932,320.3941479921341L1120.5054,320.845976382494L1121.0837999999999,321.0719156116247L1122.6743999999999,320.03954051434994L1124.4096,320.4178880006075L1126.7232,320.20409962534904L1130.3382,320.8302785307169L1132.5072,320.27499890327454L1133.664,320.47295643389225L1134.5316,320.4625751674175L1135.1100000000001,320.35579754412174L1135.6884,320.47878777980804L1136.8452,320.11195904016495L1137.7128,320.1544322669506L1137.8574,321.05888387560844L1140.3156,320.44638445973396L1141.617,320.93999138474464L1142.4846,321.0446567684412L1143.6414,321.0590841472149L1144.0752,320.41966384649277L1144.6535999999999,320.2128849774599L1146.0996,320.48245368897915L1147.2564,320.33930955827236L1147.6902,320.8909107595682L1149.7146,320.92559529840946L1150.293,321.00628285109997L1151.4498,320.8920153826475L1151.8836,320.39010187983513L1152.7512,320.4768147915602L1155.354,320.6313540637493L1155.6432,320.3634720146656L1158.246,320.34155479073524L1158.8244,320.24673713743687L1159.2582,320.86580796539783L1161.4272,320.5667351782322L1161.8609999999999,320.9022527039051L1162.4394,320.8761986196041L1163.4515999999999,320.11723025143147L1165.3314,320.2399873584509L1166.199,320.3259461224079L1168.2233999999999,320.66139011085033L1169.9586000000002,320.2068690061569L1170.9708,320.8758512735367L1172.1276,321.0256247073412L1173.2844,321.0526347756386L1173.429,320.19666454195976L1174.152,321.05513191223145L1174.7304,320.87944051623344L1176.6102,320.1929751634598L1177.1886000000002,320.0578246861696L1179.213,320.5437180250883L1180.9482,320.351494833827L1181.0928,321.0232934206724L1182.105,320.3146323412657L1183.2618,320.4996676594019L1184.1294,320.184732735157L1184.997,320.36076052486897L1186.0092,320.9776252359152L1186.2984000000001,320.9787376821041L1187.5998,320.4142799824476L1187.8890000000001,320.26683470606804L1188.0336,321.0898962467909L1190.781,320.465394616127L1191.2148,320.95640113949776L1192.5162,320.3925630301237L1194.396,320.97620925307274L1195.9866,320.4905537366867L1196.4204,320.931390658021L1197.8664,321.00990338623524L1200.1799999999998,321.07985919713974L1201.7705999999998,320.45874966681004L1202.2044,320.98029448091984L1204.3734,320.4271881133318L1205.8193999999999,320.6406400948763L1205.964,321.0169238448143L1206.6870000000001,320.71539460122585L1206.8316,320.9703700840473L1207.5546,320.19422060251236L1207.8438,320.2274609953165L1208.4222,320.1790860146284L1208.5668,321.0752670317888L1208.7114,320.2782486230135L1210.8804,320.5185589045286L1211.8926,321.1259905099869L1212.0372,320.3633343279362L1212.6156,320.3930637091398L1212.9048,320.35601346194744L1214.2062,320.98322658240795L1214.7846,320.99925300478935L1215.2184,320.4176110625267L1218.978,320.37312729656696L1219.1226,321.0856091827154L1220.424,320.61737260222435L1220.8578,320.9615205824375L1221.4362,320.8870664834976L1221.87,320.1503658145666L1223.316,320.4095626473427L1223.4605999999999,320.90266889333725L1223.6052,320.30848963558674L1223.7498,320.927848353982L1224.4728,320.2360617220402L1225.3404,320.3328461050987L1225.9188,320.5635824650526L1226.2079999999999,320.3630511313677L1228.5216,320.64751973748207L1229.3891999999998,320.4591408222914L1229.5338,320.9717266112566L1230.6906,321.0707734376192L1231.5582,321.011795014143L1232.2812,320.41823691129684L1233.4379999999999,320.73443135619164L1234.4502,321.0758021324873L1235.8962000000001,321.06100080907345L1238.499,321.0673281401396L1239.6558,321.0264523923397L1242.9816,320.4821798801422L1243.9938,320.99987103044987L1244.8614,320.86890122294426L1245.2952,320.238518178463L1249.7777999999998,321.04997335374355L1249.9224,320.4140937924385L1252.2359999999999,320.31354336440563L1252.3806,321.10095812380314L1253.8265999999999,321.0929316133261L1254.2604,320.3692736327648L1254.5496,320.4249287992716L1256.1402,321.0178188085556L1257.0077999999999,320.97256211936474L1257.4416,320.50987681746483L1258.02,320.40226681530476L1260.3336000000002,320.5093026012182L1260.6228,320.4789019972086L1260.7674,320.9924500286579L1261.3458,321.1780204474926L1261.7796,320.3486112356186L1262.0688,320.31435383856297L1262.5026,321.15620179474354L1264.0932,320.6060713380575L1264.6716000000001,320.46343570947647L1266.2622000000001,321.004018843174L1266.696,320.5662032067776L1269.588,321.1648948341608L1270.7448,321.04789866507053L1272.1908,321.0753343105316L1272.3354,321.0433988124132L1273.926,320.7359897196293L1277.2518,321.2150832116604L1277.9748,320.48794081807137L1280.433,321.19364945590496L1282.8912,320.4534956663847L1283.7588,321.22152476012707L1284.048,320.97462272644043L1286.7954,320.5231980085373L1286.94,321.0499076396227L1287.5184,321.0923151522875L1288.0968,321.0286428630352L1290.6996,321.19378401339054L1291.5672,321.1391114294529L1291.7118,320.29349429905415L1297.7849999999999,320.48817394673824L1298.9418,320.5511718839407L1300.0986,320.4958405941725L1300.2432,320.97054375708103L1301.2554,320.46874134242535" style="fill: none;" fill="none"></path></g></g></g></g></g></g><g transform="translate(50, 378)" clip-path="url(#clip_1)"><clipPath id="clip_1"><rect width="1446" height="22"></rect></clipPath><g><g><line x1="0" y1="0" x2="0" y2="5" style="visibility: inherit;" fill="rgb(0, 0, 0)" stroke="rgb(204, 204, 204)" stroke-width="1px"></line><line x1="144.6" y1="0" x2="144.6" y2="5" style="visibility: inherit;" fill="rgb(0, 0, 0)" stroke="rgb(204, 204, 204)" stroke-width="1px"></line><line x1="289.2" y1="0" x2="289.2" y2="5" style="visibility: inherit;" fill="rgb(0, 0, 0)" stroke="rgb(204, 204, 204)" stroke-width="1px"></line><line x1="433.8" y1="0" x2="433.8" y2="5" style="visibility: inherit;" fill="rgb(0, 0, 0)" stroke="rgb(204, 204, 204)" stroke-width="1px"></line><line x1="578.4" y1="0" x2="578.4" y2="5" style="visibility: inherit;" fill="rgb(0, 0, 0)" stroke="rgb(204, 204, 204)" stroke-width="1px"></line><line x1="723" y1="0" x2="723" y2="5" style="visibility: inherit;" fill="rgb(0, 0, 0)" stroke="rgb(204, 204, 204)" stroke-width="1px"></line><line x1="867.6" y1="0" x2="867.6" y2="5" style="visibility: inherit;" fill="rgb(0, 0, 0)" stroke="rgb(204, 204, 204)" stroke-width="1px"></line><line x1="1012.1999999999999" y1="0" x2="1012.1999999999999" y2="5" style="visibility: inherit;" fill="rgb(0, 0, 0)" stroke="rgb(204, 204, 204)" stroke-width="1px"></line><line x1="1156.8" y1="0" x2="1156.8" y2="5" style="visibility: inherit;" fill="rgb(0, 0, 0)" stroke="rgb(204, 204, 204)" stroke-width="1px"></line><line x1="1301.4" y1="0" x2="1301.4" y2="5" style="visibility: inherit;" fill="rgb(0, 0, 0)" stroke="rgb(204, 204, 204)" stroke-width="1px"></line><line x1="1446" y1="0" x2="1446" y2="5" style="visibility: inherit;" fill="rgb(0, 0, 0)" stroke="rgb(204, 204, 204)" stroke-width="1px"></line></g><g transform="translate(0, 8)"><text x="0" y="0" dx="0em" dy="0.95em" style="text-anchor: middle; visibility: hidden; font-family: Roboto, sans-serif; font-size: 12px; font-weight: 200;" fill="rgb(50, 49, 63)" stroke="none" stroke-width="1px">-1k</text><text x="144.6" y="0" dx="0em" dy="0.95em" style="text-anchor: middle; visibility: inherit; font-family: Roboto, sans-serif; font-size: 12px; font-weight: 200;" fill="rgb(50, 49, 63)" stroke="none" stroke-width="1px">0</text><text x="289.2" y="0" dx="0em" dy="0.95em" style="text-anchor: middle; visibility: inherit; font-family: Roboto, sans-serif; font-size: 12px; font-weight: 200;" fill="rgb(50, 49, 63)" stroke="none" stroke-width="1px">1k</text><text x="433.8" y="0" dx="0em" dy="0.95em" style="text-anchor: middle; visibility: inherit; font-family: Roboto, sans-serif; font-size: 12px; font-weight: 200;" fill="rgb(50, 49, 63)" stroke="none" stroke-width="1px">2k</text><text x="578.4" y="0" dx="0em" dy="0.95em" style="text-anchor: middle; visibility: inherit; font-family: Roboto, sans-serif; font-size: 12px; font-weight: 200;" fill="rgb(50, 49, 63)" stroke="none" stroke-width="1px">3k</text><text x="723" y="0" dx="0em" dy="0.95em" style="text-anchor: middle; visibility: inherit; font-family: Roboto, sans-serif; font-size: 12px; font-weight: 200;" fill="rgb(50, 49, 63)" stroke="none" stroke-width="1px">4k</text><text x="867.6" y="0" dx="0em" dy="0.95em" style="text-anchor: middle; visibility: inherit; font-family: Roboto, sans-serif; font-size: 12px; font-weight: 200;" fill="rgb(50, 49, 63)" stroke="none" stroke-width="1px">5k</text><text x="1012.1999999999999" y="0" dx="0em" dy="0.95em" style="text-anchor: middle; visibility: inherit; font-family: Roboto, sans-serif; font-size: 12px; font-weight: 200;" fill="rgb(50, 49, 63)" stroke="none" stroke-width="1px">6k</text><text x="1156.8" y="0" dx="0em" dy="0.95em" style="text-anchor: middle; visibility: inherit; font-family: Roboto, sans-serif; font-size: 12px; font-weight: 200;" fill="rgb(50, 49, 63)" stroke="none" stroke-width="1px">7k</text><text x="1301.4" y="0" dx="0em" dy="0.95em" style="text-anchor: middle; visibility: inherit; font-family: Roboto, sans-serif; font-size: 12px; font-weight: 200;" fill="rgb(50, 49, 63)" stroke="none" stroke-width="1px">8k</text><text x="1446" y="0" dx="0em" dy="0.95em" style="text-anchor: middle; visibility: hidden; font-family: Roboto, sans-serif; font-size: 12px; font-weight: 200;" fill="rgb(50, 49, 63)" stroke="none" stroke-width="1px">9k</text></g><line x1="0" y1="0" x2="1446" y2="0" fill="rgb(0, 0, 0)" stroke="rgb(204, 204, 204)" stroke-width="1px"></line></g></g></g></g></svg>