<?xml version="1.0" encoding="utf-8" standalone="no"?>
<!DOCTYPE svg PUBLIC "-//W3C//DTD SVG 1.1//EN"
  "http://www.w3.org/Graphics/SVG/1.1/DTD/svg11.dtd">
<!-- Created with matplotlib (https://matplotlib.org/) -->
<svg height="288pt" version="1.1" viewBox="0 0 720 288" width="720pt" xmlns="http://www.w3.org/2000/svg" xmlns:xlink="http://www.w3.org/1999/xlink">
 <metadata>
  <rdf:RDF xmlns:cc="http://creativecommons.org/ns#" xmlns:dc="http://purl.org/dc/elements/1.1/" xmlns:rdf="http://www.w3.org/1999/02/22-rdf-syntax-ns#">
   <cc:Work>
    <dc:type rdf:resource="http://purl.org/dc/dcmitype/StillImage"/>
    <dc:date>2021-05-05T23:32:17.937214</dc:date>
    <dc:format>image/svg+xml</dc:format>
    <dc:creator>
     <cc:Agent>
      <dc:title>Matplotlib v3.3.4, https://matplotlib.org/</dc:title>
     </cc:Agent>
    </dc:creator>
   </cc:Work>
  </rdf:RDF>
 </metadata>
 <defs>
  <style type="text/css">*{stroke-linecap:butt;stroke-linejoin:round;}</style>
 </defs>
 <g id="figure_1">
  <g id="patch_1">
   <path d="M 0 288 
L 720 288 
L 720 0 
L 0 0 
z
" style="fill:#ffffff;"/>
  </g>
  <g id="axes_1">
   <g id="line2d_1">
    <path clip-path="url(#p6e1bc25fa2)" d="M 149.858681 224.733429 
L 138.464464 222.60701 
L 130.129736 221.28029 
L 122.837789 220.340411 
L 115.69624 219.637899 
L 108.82962 219.17236 
L 101.706239 218.89361 
L 93.201165 218.78095 
L 83.84805 218.873138 
L 77.019218 219.124881 
L 70.755551 219.564418 
L 64.579584 220.247068 
L 58.935112 221.140166 
L 54.61835 222.054268 
L 50.844745 223.10028 
L 48.237182 224.059303 
L 46.604563 224.882993 
L 45.736754 225.5686 
L 45.499375 225.993596 
L 45.559471 226.357826 
L 45.866921 226.654371 
L 46.449183 226.925999 
L 47.768397 227.25299 
L 50.593639 227.589786 
L 54.863173 227.798842 
L 61.661751 227.853114 
L 72.119635 227.658426 
L 117.009871 226.324777 
L 144.602829 225.343426 
L 149.8751 225.286751 
L 149.8751 225.286751 
" style="fill:none;stroke:#000000;stroke-linecap:square;stroke-opacity:0.7;stroke-width:1.2;"/>
   </g>
   <g id="line2d_2">
    <path clip-path="url(#p6e1bc25fa2)" d="M 149.9741 184.973377 
L 138.644147 182.781176 
L 130.382487 181.411053 
L 120.79376 180.060848 
L 111.625397 178.988669 
L 102.15041 178.084414 
L 92.281124 177.349393 
L 84.851324 177.010964 
L 78.96347 176.974924 
L 74.102483 177.1649 
L 69.074891 177.618191 
L 64.306232 178.326366 
L 60.912856 179.017181 
L 57.337223 179.938265 
L 54.214049 180.934935 
L 51.03507 182.185791 
L 48.291476 183.547536 
L 46.835363 184.457245 
L 45.563142 185.523308 
L 45.081221 186.268563 
L 45.103749 186.734637 
L 45.302827 186.967398 
L 45.760771 187.196868 
L 46.576716 187.373607 
L 48.018965 187.468748 
L 51.061337 187.37752 
L 56.89163 186.866158 
L 86.001873 183.874013 
L 93.109171 183.505865 
L 100.51841 183.370431 
L 107.696505 183.477385 
L 116.515505 183.869868 
L 146.803931 185.509764 
L 149.968591 185.581991 
L 149.968591 185.581991 
" style="fill:none;stroke:#000000;stroke-linecap:square;stroke-opacity:0.7;stroke-width:1.2;"/>
   </g>
   <g id="line2d_3">
    <path clip-path="url(#p6e1bc25fa2)" d="M 149.621102 146.347384 
L 138.494713 144.112459 
L 128.934995 142.417526 
L 120.705739 141.160715 
L 113.599052 140.269852 
L 106.382868 139.582997 
L 98.191921 139.054766 
L 89.335387 138.733015 
L 81.78958 138.667762 
L 75.791832 138.803237 
L 69.985905 139.153577 
L 65.304659 139.638383 
L 60.907142 140.300369 
L 57.419471 141.003629 
L 54.275718 141.81308 
L 51.316112 142.787526 
L 49.086616 143.736305 
L 47.691437 144.501172 
L 46.526949 145.37215 
L 45.900178 146.148301 
L 45.725981 146.775592 
L 45.790067 147.145259 
L 46.033918 147.555306 
L 46.751102 148.131099 
L 47.891478 148.654942 
L 49.855321 149.225609 
L 52.652122 149.757183 
L 56.969303 150.291686 
L 62.490596 150.71791 
L 70.243802 151.045107 
L 80.454524 151.217406 
L 95.638458 151.234214 
L 104.492904 151.041604 
L 111.528002 150.690496 
L 120.2592 150.011236 
L 131.252066 148.893716 
L 149.624893 146.874229 
L 149.624893 146.874229 
" style="fill:none;stroke:#000000;stroke-linecap:square;stroke-opacity:0.7;stroke-width:1.2;"/>
   </g>
   <g id="line2d_4">
    <path clip-path="url(#p6e1bc25fa2)" d="M 149.928566 106.276831 
L 133.156098 102.965689 
L 118.802139 100.382542 
L 108.418638 98.720304 
L 99.624692 97.529398 
L 92.088298 96.713515 
L 85.747358 96.225234 
L 79.907431 96.004475 
L 75.087819 96.047492 
L 70.672169 96.314827 
L 66.166596 96.861254 
L 62.917023 97.458314 
L 59.427128 98.323401 
L 56.192916 99.372597 
L 53.405744 100.515323 
L 51.510448 101.455775 
L 49.151109 102.892071 
L 47.485784 104.208687 
L 46.51619 105.241711 
L 46.219168 105.658319 
L 45.756911 106.742602 
L 45.734293 107.251354 
L 45.898768 107.803284 
L 46.251474 108.284495 
L 47.021672 108.856271 
L 48.272244 109.398264 
L 49.982259 109.859728 
L 52.85381 110.327728 
L 56.289006 110.641889 
L 60.64895 110.833544 
L 66.693288 110.877455 
L 76.008725 110.691762 
L 93.916401 110.309443 
L 120.143117 109.997413 
L 127.480954 109.648896 
L 133.7394 109.159645 
L 139.77035 108.475073 
L 146.943062 107.397369 
L 149.913971 106.893312 
L 149.913971 106.893312 
" style="fill:none;stroke:#000000;stroke-linecap:square;stroke-opacity:0.7;stroke-width:1.2;"/>
   </g>
   <g id="line2d_5">
    <path clip-path="url(#p6e1bc25fa2)" d="M 149.848297 67.074933 
L 137.554503 66.507949 
L 117.637227 65.251928 
L 99.719907 64.242328 
L 83.548958 63.524892 
L 75.046908 63.370157 
L 69.176208 63.46237 
L 62.926103 63.80268 
L 58.046557 64.280496 
L 53.274631 64.98204 
L 50.112297 65.633253 
L 46.944588 66.569433 
L 45.33839 67.336299 
L 44.7139 67.873437 
L 44.509091 68.414404 
L 44.621913 68.78316 
L 45.046664 69.232053 
L 45.894653 69.725747 
L 47.08689 70.193119 
L 49.267305 70.803231 
L 52.988428 71.535026 
L 57.041783 72.107485 
L 62.607943 72.663123 
L 69.354187 73.084475 
L 77.257431 73.316924 
L 86.910731 73.332595 
L 97.682696 73.108637 
L 107.062037 72.680908 
L 115.687154 72.032217 
L 124.929713 71.092706 
L 134.899612 69.860844 
L 144.443219 68.472384 
L 149.853543 67.608787 
L 149.853543 67.608787 
" style="fill:none;stroke:#000000;stroke-linecap:square;stroke-opacity:0.7;stroke-width:1.2;"/>
   </g>
   <g id="line2d_6">
    <path clip-path="url(#p6e1bc25fa2)" d="M 280.907303 225.403292 
L 274.090766 223.54468 
L 267.361228 221.969962 
L 260.786682 220.663573 
L 252.698431 219.295969 
L 244.192167 218.109775 
L 236.57603 217.257785 
L 226.513999 216.378937 
L 217.529574 215.797438 
L 211.016895 215.557174 
L 205.775077 215.557159 
L 200.624863 215.807407 
L 196.399404 216.258075 
L 192.900594 216.840051 
L 189.081526 217.740523 
L 186.496636 218.542823 
L 183.393816 219.771653 
L 181.074394 220.950691 
L 179.616199 221.866992 
L 178.447077 222.770471 
L 177.457707 223.799771 
L 177.030945 224.511178 
L 176.890697 225.183203 
L 177.133029 225.852583 
L 177.685077 226.325022 
L 178.751093 226.76899 
L 180.6418 227.144771 
L 183.694335 227.372475 
L 187.803347 227.385367 
L 194.495793 227.106242 
L 204.723284 226.415846 
L 218.719217 225.508543 
L 227.274925 225.182733 
L 237.445609 225.04547 
L 252.047488 225.109687 
L 267.059366 225.381446 
L 280.916214 225.845368 
L 280.916214 225.845368 
" style="fill:none;stroke:#000000;stroke-linecap:square;stroke-opacity:0.7;stroke-width:1.2;"/>
   </g>
   <g id="line2d_7">
    <path clip-path="url(#p6e1bc25fa2)" d="M 281.416715 184.925884 
L 274.42586 182.41308 
L 269.267191 180.762839 
L 263.089496 179.049664 
L 257.465269 177.711079 
L 250.866371 176.383674 
L 244.846532 175.39797 
L 238.499025 174.587404 
L 231.397176 173.93907 
L 223.880079 173.523729 
L 217.693671 173.400884 
L 211.812227 173.51715 
L 206.712345 173.858142 
L 201.770128 174.453873 
L 197.386869 175.242505 
L 193.3857 176.213581 
L 189.858947 177.304461 
L 186.89414 178.426238 
L 183.74162 179.876253 
L 181.706495 180.996299 
L 179.830914 182.210723 
L 178.012973 183.673377 
L 177.453977 184.238749 
L 176.850844 185.016627 
L 176.481951 185.957272 
L 176.553666 186.507959 
L 176.794157 186.879457 
L 177.005851 187.072524 
L 177.656706 187.445228 
L 178.784253 187.809238 
L 180.625721 188.132284 
L 183.318977 188.360606 
L 187.414118 188.462284 
L 193.489021 188.351241 
L 202.07971 187.922974 
L 238.076907 185.74894 
L 250.289373 185.409461 
L 263.157909 185.255208 
L 273.236189 185.336208 
L 281.397715 185.572003 
L 281.397715 185.572003 
" style="fill:none;stroke:#000000;stroke-linecap:square;stroke-opacity:0.7;stroke-width:1.2;"/>
   </g>
   <g id="line2d_8">
    <path clip-path="url(#p6e1bc25fa2)" d="M 281.438203 145.441815 
L 275.094607 143.148453 
L 270.623441 141.72922 
L 264.981435 140.194862 
L 258.903009 138.781614 
L 250.605435 137.11044 
L 242.217867 135.658079 
L 234.128475 134.50095 
L 227.682057 133.78773 
L 222.335414 133.373414 
L 216.537197 133.159612 
L 211.956572 133.209823 
L 207.291201 133.501206 
L 202.61386 134.072252 
L 199.22496 134.67969 
L 195.658844 135.512341 
L 192.593753 136.403044 
L 189.208917 137.600977 
L 186.0277 138.971947 
L 183.005521 140.561348 
L 181.276726 141.646595 
L 179.671722 142.831292 
L 178.250768 144.135456 
L 177.397743 145.199463 
L 176.960211 146.076513 
L 176.850671 146.633764 
L 176.928032 147.202267 
L 177.206414 147.681296 
L 177.953231 148.249575 
L 179.029302 148.659491 
L 180.844858 149.003167 
L 183.102342 149.175087 
L 186.073418 149.196046 
L 190.958744 148.97456 
L 196.704109 148.50075 
L 206.862446 147.398281 
L 223.11201 145.605186 
L 230.168426 145.038613 
L 237.528811 144.655359 
L 245.908778 144.469914 
L 254.824496 144.511185 
L 263.566003 144.752634 
L 270.955189 145.142927 
L 278.089192 145.723185 
L 281.431298 146.059425 
L 281.431298 146.059425 
" style="fill:none;stroke:#000000;stroke-linecap:square;stroke-opacity:0.7;stroke-width:1.2;"/>
   </g>
   <g id="line2d_9">
    <path clip-path="url(#p6e1bc25fa2)" d="M 280.747417 107.381392 
L 263.153234 104.123832 
L 252.305271 102.35365 
L 243.84155 101.19212 
L 235.496732 100.266702 
L 226.87264 99.524629 
L 218.159803 98.996936 
L 210.748747 98.790886 
L 204.799893 98.869972 
L 200.137215 99.13927 
L 195.384695 99.650763 
L 191.226392 100.340542 
L 187.645185 101.162568 
L 184.961163 101.95728 
L 181.985679 103.089794 
L 180.26057 103.933053 
L 178.63676 104.966373 
L 177.605312 105.932483 
L 177.15797 106.715497 
L 177.09583 107.294498 
L 177.324655 107.891851 
L 177.840053 108.428182 
L 178.628882 108.92014 
L 180.366584 109.606965 
L 182.271336 110.117 
L 185.551639 110.735431 
L 190.343114 111.336122 
L 196.128629 111.787344 
L 203.111288 112.074585 
L 212.161691 112.179436 
L 223.804316 112.070215 
L 234.837548 111.763146 
L 244.309741 111.274915 
L 255.122191 110.467797 
L 266.242789 109.408862 
L 280.767645 107.783815 
L 280.767645 107.783815 
" style="fill:none;stroke:#000000;stroke-linecap:square;stroke-opacity:0.7;stroke-width:1.2;"/>
   </g>
   <g id="line2d_10">
    <path clip-path="url(#p6e1bc25fa2)" d="M 280.511548 68.220314 
L 261.797147 65.458639 
L 250.79725 64.064941 
L 241.550342 63.108529 
L 231.154608 62.275444 
L 219.288939 61.569327 
L 211.349116 61.286267 
L 205.336571 61.26206 
L 199.761956 61.466454 
L 195.571598 61.809246 
L 190.910021 62.427966 
L 187.208447 63.137602 
L 183.820469 64.00435 
L 180.844553 65.004901 
L 178.435231 66.095561 
L 177.368331 66.754667 
L 176.472515 67.623126 
L 176.289924 68.103394 
L 176.377185 68.541256 
L 176.653212 68.88261 
L 177.374245 69.33794 
L 178.444101 69.745514 
L 180.357825 70.223976 
L 183.968179 70.798879 
L 189.08769 71.2979 
L 195.426152 71.643471 
L 203.151037 71.802859 
L 212.885183 71.735803 
L 227.249514 71.366893 
L 241.163993 70.813922 
L 264.29588 69.590039 
L 280.514919 68.614355 
L 280.514919 68.614355 
" style="fill:none;stroke:#000000;stroke-linecap:square;stroke-opacity:0.7;stroke-width:1.2;"/>
   </g>
   <g id="line2d_11">
    <path clip-path="url(#p6e1bc25fa2)" d="M 412.714955 224.726948 
L 388.573078 222.11217 
L 380.090057 221.447397 
L 371.491109 220.995954 
L 361.919841 220.745198 
L 350.785184 220.699783 
L 341.189044 220.858974 
L 333.971154 221.17147 
L 326.682678 221.711786 
L 321.010969 222.324081 
L 315.720701 223.106478 
L 312.077055 223.851311 
L 310.318703 224.339679 
L 308.860536 224.916606 
L 308.059776 225.501572 
L 307.899507 225.920007 
L 308.101824 226.364515 
L 308.626311 226.770603 
L 309.631077 227.229203 
L 311.178857 227.700505 
L 313.55977 228.204715 
L 317.81751 228.79792 
L 322.485755 229.202261 
L 328.356549 229.487862 
L 335.445447 229.608142 
L 344.116902 229.525765 
L 354.777281 229.202234 
L 365.47384 228.682206 
L 375.368916 227.975703 
L 388.360264 226.773861 
L 399.472515 225.798377 
L 406.592337 225.400602 
L 412.727325 225.266919 
L 412.727325 225.266919 
" style="fill:none;stroke:#000000;stroke-linecap:square;stroke-opacity:0.7;stroke-width:1.2;"/>
   </g>
   <g id="line2d_12">
    <path clip-path="url(#p6e1bc25fa2)" d="M 411.859212 186.621719 
L 395.479447 184.011561 
L 383.966209 182.390698 
L 374.523782 181.258878 
L 364.380142 180.265822 
L 352.88492 179.369499 
L 344.100979 178.89717 
L 338.427251 178.780752 
L 332.824997 178.894071 
L 327.614256 179.268615 
L 323.055004 179.862747 
L 319.78051 180.477632 
L 316.655079 181.246795 
L 313.335245 182.320242 
L 310.764371 183.421096 
L 308.7017 184.63032 
L 307.830236 185.36999 
L 307.299942 186.177392 
L 307.288194 186.71389 
L 307.494822 187.063556 
L 308.043973 187.46938 
L 308.933135 187.825415 
L 310.183939 188.132481 
L 313.173222 188.543937 
L 317.962459 188.852358 
L 324.259164 188.995712 
L 333.377093 188.961999 
L 349.329533 188.623735 
L 377.029804 187.817111 
L 396.334056 187.250105 
L 411.893553 186.953122 
L 411.893553 186.953122 
" style="fill:none;stroke:#000000;stroke-linecap:square;stroke-opacity:0.7;stroke-width:1.2;"/>
   </g>
   <g id="line2d_13">
    <path clip-path="url(#p6e1bc25fa2)" d="M 412.525127 146.208751 
L 406.611068 143.425926 
L 402.111596 141.514723 
L 396.707827 139.476235 
L 390.836476 137.529924 
L 385.239332 135.881955 
L 379.258804 134.322938 
L 373.388662 133.004395 
L 367.542784 131.918126 
L 361.793043 131.084991 
L 356.974281 130.577376 
L 351.684906 130.239464 
L 347.090018 130.156788 
L 343.349954 130.255595 
L 339.757739 130.510173 
L 336.168757 130.940668 
L 332.238343 131.640477 
L 328.695975 132.503024 
L 325.228871 133.5902 
L 321.654362 135.002224 
L 318.275436 136.660872 
L 315.423713 138.365427 
L 312.925616 140.163634 
L 311.143653 141.699752 
L 309.767652 143.127592 
L 308.471613 144.915039 
L 307.959246 146.074224 
L 307.817003 147.030609 
L 307.935452 147.708205 
L 308.371967 148.454394 
L 309.130194 149.099324 
L 310.450018 149.74744 
L 312.315228 150.303591 
L 314.224901 150.678859 
L 317.617282 151.103454 
L 322.211643 151.408958 
L 328.192145 151.537892 
L 335.535391 151.429077 
L 344.446714 151.039023 
L 356.716479 150.249642 
L 372.527204 149.009979 
L 397.001612 147.017018 
L 403.827449 146.728595 
L 409.903881 146.689883 
L 412.509968 146.741705 
L 412.509968 146.741705 
" style="fill:none;stroke:#000000;stroke-linecap:square;stroke-opacity:0.7;stroke-width:1.2;"/>
   </g>
   <g id="line2d_14">
    <path clip-path="url(#p6e1bc25fa2)" d="M 412.519061 106.82486 
L 405.724582 104.329079 
L 399.906327 102.400215 
L 393.909901 100.636114 
L 386.885964 98.819983 
L 379.563167 97.167452 
L 371.982937 95.685386 
L 363.576757 94.291763 
L 356.659384 93.352317 
L 350.213936 92.705738 
L 345.186464 92.422357 
L 340.37494 92.391024 
L 336.040176 92.605754 
L 332.658838 92.959266 
L 329.155529 93.524844 
L 325.875447 94.270585 
L 323.078864 95.105793 
L 320.099825 96.248017 
L 317.552338 97.491931 
L 315.85196 98.502235 
L 314.324485 99.571121 
L 312.897891 100.752703 
L 311.542064 102.112616 
L 310.458957 103.479678 
L 309.735934 104.70185 
L 309.297173 105.924378 
L 309.240761 106.881648 
L 309.438172 107.543642 
L 309.923581 108.16427 
L 310.729238 108.676594 
L 312.050987 109.110733 
L 313.688118 109.377776 
L 316.803787 109.548614 
L 321.313811 109.471914 
L 328.317449 109.075674 
L 348.00393 107.835026 
L 356.759668 107.569148 
L 367.62828 107.501311 
L 403.425878 107.489288 
L 412.514505 107.34015 
L 412.514505 107.34015 
" style="fill:none;stroke:#000000;stroke-linecap:square;stroke-opacity:0.7;stroke-width:1.2;"/>
   </g>
   <g id="line2d_15">
    <path clip-path="url(#p6e1bc25fa2)" d="M 412.170249 67.875596 
L 401.973442 66.054598 
L 392.699669 64.629471 
L 380.864872 63.062425 
L 365.358866 61.260987 
L 353.25261 60.048219 
L 345.93784 59.515143 
L 339.821602 59.305306 
L 335.201027 59.359684 
L 330.514705 59.658146 
L 326.87824 60.091397 
L 323.595736 60.6573 
L 319.879391 61.528164 
L 316.796883 62.467918 
L 313.521836 63.736065 
L 311.380919 64.767671 
L 309.151227 66.132346 
L 307.98155 67.165204 
L 307.621944 67.793311 
L 307.622022 68.096497 
L 307.795906 68.369559 
L 308.348379 68.666666 
L 309.053631 68.83591 
L 310.818294 68.998226 
L 314.231604 68.998771 
L 320.389637 68.719426 
L 340.725409 67.633851 
L 349.018189 67.47705 
L 357.468271 67.557908 
L 375.465052 68.079743 
L 393.364023 68.436587 
L 405.134838 68.465923 
L 412.152583 68.322423 
L 412.152583 68.322423 
" style="fill:none;stroke:#000000;stroke-linecap:square;stroke-opacity:0.7;stroke-width:1.2;"/>
   </g>
   <g id="line2d_16">
    <path clip-path="url(#p6e1bc25fa2)" d="M 544.023108 224.95332 
L 523.808087 222.324123 
L 512.678809 221.136242 
L 501.857905 220.21014 
L 489.049545 219.354471 
L 480.621641 218.959661 
L 474.080229 218.84588 
L 467.845437 218.983152 
L 462.788924 219.310545 
L 457.594338 219.876898 
L 452.784222 220.642453 
L 448.549414 221.556028 
L 445.548129 222.387335 
L 442.650688 223.410571 
L 441.158206 224.079272 
L 439.511454 225.084735 
L 439.073893 225.542808 
L 438.990561 225.842722 
L 439.179326 226.056764 
L 439.720422 226.176787 
L 440.686175 226.167015 
L 443.448943 225.820533 
L 461.862191 222.907654 
L 468.178739 222.246432 
L 473.877361 221.89439 
L 478.930046 221.800303 
L 483.901654 221.901472 
L 489.984453 222.235793 
L 498.537488 222.939904 
L 521.720555 224.982928 
L 529.20478 225.384787 
L 536.878257 225.532918 
L 544.03415 225.469216 
L 544.03415 225.469216 
" style="fill:none;stroke:#000000;stroke-linecap:square;stroke-opacity:0.7;stroke-width:1.2;"/>
   </g>
   <g id="line2d_17">
    <path clip-path="url(#p6e1bc25fa2)" d="M 543.788505 185.882078 
L 536.425589 183.724602 
L 530.070581 182.079852 
L 524.116423 180.752789 
L 517.466903 179.511368 
L 511.69546 178.636369 
L 505.306155 177.886094 
L 498.100963 177.301834 
L 491.563211 176.985632 
L 484.175639 176.847498 
L 477.098781 176.946606 
L 470.300301 177.311204 
L 464.505937 177.883531 
L 459.487315 178.612313 
L 454.625987 179.565676 
L 450.412896 180.637923 
L 446.756381 181.816702 
L 443.595714 183.11221 
L 442.030248 183.908758 
L 440.55087 184.84512 
L 439.425168 185.908938 
L 439.144729 186.649916 
L 439.241652 187.007723 
L 439.62452 187.406984 
L 440.156724 187.692311 
L 441.442629 188.081292 
L 443.871538 188.460526 
L 447.06294 188.712377 
L 453.115588 188.894641 
L 461.529207 188.870583 
L 473.496527 188.595215 
L 489.899143 187.985163 
L 501.535495 187.334283 
L 525.03923 185.845259 
L 530.939771 185.746302 
L 535.640151 185.840799 
L 541.559229 186.201384 
L 543.795499 186.405609 
L 543.795499 186.405609 
" style="fill:none;stroke:#000000;stroke-linecap:square;stroke-opacity:0.7;stroke-width:1.2;"/>
   </g>
   <g id="line2d_18">
    <path clip-path="url(#p6e1bc25fa2)" d="M 544.010387 146.176194 
L 535.560033 143.726733 
L 527.601576 141.653826 
L 520.266421 139.958072 
L 512.855089 138.463088 
L 505.484941 137.222836 
L 498.450069 136.287486 
L 491.888705 135.634038 
L 485.454888 135.196615 
L 479.328724 134.985145 
L 473.538272 135.008933 
L 467.891966 135.286948 
L 463.3993 135.718375 
L 459.033556 136.346866 
L 455.12202 137.122991 
L 451.269592 138.146063 
L 448.240753 139.207393 
L 445.813778 140.31098 
L 443.687212 141.593148 
L 442.553626 142.494287 
L 441.438908 143.695881 
L 440.736255 144.90854 
L 440.509775 145.662428 
L 440.467859 146.628635 
L 440.598124 147.237223 
L 440.94733 147.984158 
L 441.423934 148.606045 
L 442.582816 149.567416 
L 444.381909 150.493484 
L 446.100584 151.093291 
L 448.503088 151.684746 
L 451.488644 152.180968 
L 454.966169 152.553813 
L 459.64035 152.835977 
L 465.946342 152.964484 
L 472.956489 152.890201 
L 482.875466 152.550221 
L 494.843055 151.923926 
L 505.632363 151.142971 
L 515.395928 150.209087 
L 527.832939 148.758302 
L 543.994457 146.743012 
L 543.994457 146.743012 
" style="fill:none;stroke:#000000;stroke-linecap:square;stroke-opacity:0.7;stroke-width:1.2;"/>
   </g>
   <g id="line2d_19">
    <path clip-path="url(#p6e1bc25fa2)" d="M 543.697746 107.154717 
L 534.178328 104.422502 
L 524.889928 102.005254 
L 512.089291 98.935102 
L 501.523394 96.615056 
L 494.186841 95.212476 
L 488.222321 94.259475 
L 483.060115 93.609102 
L 478.13095 93.176329 
L 473.231365 92.971351 
L 469.665146 92.992633 
L 466.157712 93.17898 
L 462.680645 93.551089 
L 459.228661 94.134326 
L 455.654109 95.001114 
L 452.221501 96.133747 
L 449.122988 97.466418 
L 447.005487 98.589215 
L 445.259556 99.680298 
L 443.548832 100.941013 
L 442.038767 102.282338 
L 440.850757 103.59224 
L 439.743932 105.294018 
L 439.327529 106.40037 
L 439.208329 107.497626 
L 439.389455 108.406119 
L 439.909693 109.329298 
L 440.880778 110.257476 
L 442.212024 111.066173 
L 444.153098 111.876116 
L 446.145617 112.483877 
L 449.363163 113.204916 
L 452.790042 113.754371 
L 457.165167 114.23788 
L 461.773257 114.551936 
L 467.802091 114.732182 
L 475.082529 114.692064 
L 483.831443 114.397908 
L 494.679359 113.793997 
L 504.381862 113.039197 
L 513.84223 112.097639 
L 523.97095 110.884129 
L 532.334906 109.682936 
L 540.893597 108.216387 
L 543.674434 107.687589 
L 543.674434 107.687589 
" style="fill:none;stroke:#000000;stroke-linecap:square;stroke-opacity:0.7;stroke-width:1.2;"/>
   </g>
   <g id="line2d_20">
    <path clip-path="url(#p6e1bc25fa2)" d="M 544.222492 66.786052 
L 520.864255 64.001924 
L 510.201984 63.001041 
L 500.294168 62.302853 
L 488.007988 61.69183 
L 478.295978 61.399004 
L 471.940876 61.39947 
L 466.195982 61.618882 
L 461.275047 62.012635 
L 455.896915 62.692981 
L 451.640475 63.446652 
L 447.359118 64.447388 
L 444.532453 65.294216 
L 441.71218 66.394727 
L 440.571155 66.994935 
L 439.657924 67.722122 
L 439.485927 68.079355 
L 439.556062 68.350322 
L 439.888788 68.607176 
L 440.483674 68.808839 
L 441.52636 68.981835 
L 443.787259 69.11607 
L 447.950818 69.08081 
L 454.930376 68.748549 
L 479.354934 67.35308 
L 488.104393 67.195218 
L 497.739956 67.257926 
L 532.371672 67.724516 
L 540.876614 67.50674 
L 544.218118 67.374164 
L 544.218118 67.374164 
" style="fill:none;stroke:#000000;stroke-linecap:square;stroke-opacity:0.7;stroke-width:1.2;"/>
   </g>
   <g id="line2d_21">
    <path clip-path="url(#p6e1bc25fa2)" d="M 675.047472 225.583033 
L 652.7305 222.517429 
L 643.468733 221.513461 
L 628.112812 220.117726 
L 609.633644 218.581523 
L 603.241597 218.263084 
L 598.515878 218.205046 
L 594.050662 218.346378 
L 590.126818 218.66945 
L 586.846335 219.1107 
L 583.637428 219.718371 
L 579.649553 220.760817 
L 576.590385 221.826201 
L 574.280444 222.835746 
L 572.661301 223.706659 
L 571.257868 224.732481 
L 570.912079 225.200672 
L 570.910078 225.567347 
L 571.206729 225.830901 
L 572.008707 226.075758 
L 573.322128 226.235337 
L 576.345694 226.338118 
L 582.550407 226.258916 
L 609.734383 225.634732 
L 620.60411 225.723885 
L 633.022321 226.080097 
L 649.921557 226.572235 
L 659.181493 226.619939 
L 666.938911 226.43351 
L 674.947175 225.988692 
L 675.058156 225.980752 
L 675.058156 225.980752 
" style="fill:none;stroke:#000000;stroke-linecap:square;stroke-opacity:0.7;stroke-width:1.2;"/>
   </g>
   <g id="line2d_22">
    <path clip-path="url(#p6e1bc25fa2)" d="M 675.135655 186.017556 
L 660.046798 183.790095 
L 651.987612 182.802105 
L 644.700184 182.121895 
L 637.939125 181.713041 
L 631.001266 181.512916 
L 621.970982 181.492777 
L 609.402879 181.69559 
L 599.7646 182.041013 
L 592.302009 182.540103 
L 585.825463 183.221599 
L 580.189213 184.065121 
L 575.954945 184.915518 
L 572.808824 185.777173 
L 571.767557 186.203353 
L 571.304667 186.606644 
L 571.393008 186.838189 
L 571.749023 187.037503 
L 572.815051 187.327398 
L 576.039359 187.793636 
L 580.382472 188.183301 
L 587.915087 188.599494 
L 596.081431 188.807177 
L 605.584173 188.804865 
L 617.660172 188.542751 
L 629.390943 188.081958 
L 642.754359 187.302075 
L 656.375044 186.526571 
L 663.350791 186.312043 
L 670.289383 186.324406 
L 675.13924 186.487388 
L 675.13924 186.487388 
" style="fill:none;stroke:#000000;stroke-linecap:square;stroke-opacity:0.7;stroke-width:1.2;"/>
   </g>
   <g id="line2d_23">
    <path clip-path="url(#p6e1bc25fa2)" d="M 675.490909 146.060787 
L 663.038325 142.970045 
L 651.099728 140.255397 
L 639.014762 137.743558 
L 630.374593 136.154532 
L 622.775125 134.978949 
L 617.056419 134.291355 
L 612.096714 133.881118 
L 607.221477 133.687679 
L 602.358893 133.734609 
L 597.595126 134.037935 
L 593.855942 134.471216 
L 590.294311 135.061707 
L 586.937181 135.801051 
L 583.895368 136.656131 
L 580.654611 137.819733 
L 578.023759 139.036672 
L 575.877446 140.313983 
L 574.21859 141.6032 
L 572.956382 142.9323 
L 572.073563 144.308279 
L 571.624879 145.550388 
L 571.514647 146.903517 
L 571.727126 147.970824 
L 572.170224 148.923981 
L 572.560063 149.485922 
L 573.780467 150.686118 
L 575.376966 151.718686 
L 577.358496 152.618728 
L 579.299884 153.27233 
L 582.14098 153.980867 
L 585.53006 154.577335 
L 590.165197 155.108196 
L 594.621699 155.401407 
L 600.688275 155.545482 
L 606.909955 155.449332 
L 614.157256 155.092906 
L 622.583301 154.441009 
L 632.647604 153.423604 
L 642.193097 152.229623 
L 652.138669 150.75406 
L 663.191782 148.887219 
L 675.478752 146.621454 
L 675.478752 146.621454 
" style="fill:none;stroke:#000000;stroke-linecap:square;stroke-opacity:0.7;stroke-width:1.2;"/>
   </g>
   <g id="line2d_24">
    <path clip-path="url(#p6e1bc25fa2)" d="M 675.235858 107.044653 
L 648.326919 102.767961 
L 635.324515 101.000004 
L 615.443153 98.571713 
L 608.484878 97.896302 
L 603.688563 97.604431 
L 598.699039 97.512088 
L 594.170774 97.649126 
L 590.815268 97.906044 
L 586.89134 98.402631 
L 583.924118 98.946737 
L 580.695275 99.749158 
L 578.148819 100.586909 
L 575.585955 101.692834 
L 573.837088 102.680857 
L 572.475133 103.682084 
L 571.334737 104.886558 
L 570.900103 105.668787 
L 570.753001 106.304195 
L 570.841031 106.976323 
L 571.1037 107.470383 
L 571.665292 108.032439 
L 572.764048 108.669901 
L 574.704592 109.329923 
L 576.846392 109.780353 
L 580.464338 110.235313 
L 585.343124 110.534394 
L 591.734411 110.63513 
L 599.172995 110.523423 
L 641.487233 109.497517 
L 652.843342 109.219048 
L 661.284472 108.794013 
L 669.244696 108.142193 
L 675.261533 107.503527 
L 675.261533 107.503527 
" style="fill:none;stroke:#000000;stroke-linecap:square;stroke-opacity:0.7;stroke-width:1.2;"/>
   </g>
   <g id="line2d_25">
    <path clip-path="url(#p6e1bc25fa2)" d="M 675.464213 67.178733 
L 668.391698 65.092272 
L 662.433379 63.588614 
L 656.843824 62.410141 
L 650.20074 61.24386 
L 643.145477 60.233765 
L 635.803623 59.418257 
L 628.517184 58.844093 
L 621.919918 58.52098 
L 614.377972 58.390235 
L 608.501579 58.499209 
L 602.803251 58.827745 
L 597.369729 59.385292 
L 592.907974 60.044878 
L 587.94364 61.017164 
L 583.65455 62.087591 
L 580.186241 63.141583 
L 577.224625 64.215243 
L 574.624273 65.35293 
L 572.902606 66.284875 
L 571.601182 67.225136 
L 571.012374 67.925381 
L 570.878431 68.469434 
L 570.959795 68.74766 
L 571.224968 69.074542 
L 571.883738 69.480161 
L 573.104488 69.904393 
L 574.764896 70.269927 
L 577.718371 70.692655 
L 582.065072 71.080787 
L 588.198238 71.386241 
L 595.545812 71.51221 
L 603.067552 71.431238 
L 612.626255 71.082087 
L 622.374476 70.506373 
L 631.8986 69.754859 
L 645.732431 68.392272 
L 655.077588 67.529935 
L 661.000714 67.179172 
L 665.830543 67.107688 
L 670.492001 67.28246 
L 675.447344 67.744815 
L 675.447344 67.744815 
" style="fill:none;stroke:#000000;stroke-linecap:square;stroke-opacity:0.7;stroke-width:1.2;"/>
   </g>
  </g>
 </g>
 <defs>
  <clipPath id="p6e1bc25fa2">
   <rect height="262.08" width="694.08" x="12.96" y="12.96"/>
  </clipPath>
 </defs>
</svg>
