<?xml version="1.0" encoding="utf-8" standalone="no"?>
<!DOCTYPE svg PUBLIC "-//W3C//DTD SVG 1.1//EN"
  "http://www.w3.org/Graphics/SVG/1.1/DTD/svg11.dtd">
<!-- Created with matplotlib (https://matplotlib.org/) -->
<svg height="288pt" version="1.1" viewBox="0 0 720 288" width="720pt" xmlns="http://www.w3.org/2000/svg" xmlns:xlink="http://www.w3.org/1999/xlink">
 <metadata>
  <rdf:RDF xmlns:cc="http://creativecommons.org/ns#" xmlns:dc="http://purl.org/dc/elements/1.1/" xmlns:rdf="http://www.w3.org/1999/02/22-rdf-syntax-ns#">
   <cc:Work>
    <dc:type rdf:resource="http://purl.org/dc/dcmitype/StillImage"/>
    <dc:date>2021-05-05T23:54:10.519743</dc:date>
    <dc:format>image/svg+xml</dc:format>
    <dc:creator>
     <cc:Agent>
      <dc:title>Matplotlib v3.3.4, https://matplotlib.org/</dc:title>
     </cc:Agent>
    </dc:creator>
   </cc:Work>
  </rdf:RDF>
 </metadata>
 <defs>
  <style type="text/css">*{stroke-linecap:butt;stroke-linejoin:round;}</style>
 </defs>
 <g id="figure_1">
  <g id="patch_1">
   <path d="M 0 288 
L 720 288 
L 720 0 
L 0 0 
z
" style="fill:#ffffff;"/>
  </g>
  <g id="axes_1">
   <g id="line2d_1">
    <path clip-path="url(#p233a5e7590)" d="M 149.799718 229.539715 
L 141.864714 227.25226 
L 136.022471 225.787631 
L 128.808996 224.223811 
L 117.438728 222.045369 
L 104.353197 219.771838 
L 95.726048 218.479774 
L 88.582446 217.634288 
L 82.69257 217.170145 
L 77.997705 217.008526 
L 73.558099 217.073759 
L 70.251869 217.288445 
L 66.659359 217.710987 
L 63.183752 218.338508 
L 60.052614 219.121277 
L 56.861799 220.175235 
L 54.066217 221.364192 
L 51.555148 222.71096 
L 49.766774 223.892993 
L 48.232413 225.129615 
L 47.124353 226.238639 
L 46.245796 227.407735 
L 45.825833 228.303281 
L 45.738263 229.117397 
L 45.89493 229.568373 
L 46.305206 230.002939 
L 46.911865 230.316996 
L 47.98175 230.594331 
L 50.093777 230.791554 
L 53.279932 230.78951 
L 59.872253 230.464626 
L 76.114861 229.561281 
L 85.957188 229.265286 
L 97.063022 229.185061 
L 111.067844 229.334352 
L 139.28898 229.695839 
L 149.223215 229.534981 
L 149.801058 229.518881 
L 149.801058 229.518881 
" style="fill:none;stroke:#000000;stroke-linecap:square;stroke-opacity:0.7;stroke-width:1.2;"/>
   </g>
   <g id="line2d_2">
    <path clip-path="url(#p233a5e7590)" d="M 150.093785 189.705694 
L 141.094564 187.641348 
L 133.271271 186.089503 
L 123.803576 184.492207 
L 111.841306 182.72114 
L 101.129802 181.344607 
L 92.990525 180.501914 
L 86.796184 180.05226 
L 81.01625 179.857485 
L 76.408411 179.911747 
L 71.526715 180.219788 
L 66.899653 180.785529 
L 63.243113 181.442113 
L 59.071726 182.443914 
L 55.975996 183.388771 
L 52.760143 184.59864 
L 49.73528 186.042675 
L 47.759138 187.275447 
L 46.480736 188.380774 
L 45.903752 189.187052 
L 45.726982 189.856998 
L 45.815353 190.305952 
L 46.10779 190.733861 
L 46.653865 191.14958 
L 47.570009 191.568976 
L 49.135406 192.014262 
L 52.246658 192.535399 
L 56.925784 192.977197 
L 63.944827 193.332118 
L 73.297482 193.531361 
L 83.806357 193.521804 
L 94.120966 193.299576 
L 103.921137 192.859196 
L 113.747035 192.172651 
L 143.4115 189.863725 
L 150.101199 189.644423 
L 150.101199 189.644423 
" style="fill:none;stroke:#000000;stroke-linecap:square;stroke-opacity:0.7;stroke-width:1.2;"/>
   </g>
   <g id="line2d_3">
    <path clip-path="url(#p233a5e7590)" d="M 149.539994 151.057283 
L 135.17261 148.954532 
L 124.515205 147.610228 
L 116.151535 146.764593 
L 107.624127 146.155742 
L 97.849015 145.73371 
L 84.772798 145.428622 
L 74.384483 145.395058 
L 66.939932 145.605242 
L 62.207777 145.905831 
L 57.095979 146.44009 
L 53.874098 146.931402 
L 50.282376 147.691567 
L 47.723068 148.462727 
L 46.09966 149.158536 
L 44.918358 149.971189 
L 44.552464 150.523203 
L 44.563729 151.074489 
L 44.801637 151.449419 
L 45.397331 151.931945 
L 46.375885 152.434797 
L 47.99314 153.02296 
L 51.274052 153.873224 
L 54.988242 154.578491 
L 59.791615 155.251123 
L 65.130578 155.762776 
L 70.542542 156.07694 
L 77.284025 156.248129 
L 84.967587 156.241967 
L 95.555688 156.004893 
L 105.493855 155.558316 
L 116.581384 154.823156 
L 128.597184 153.808451 
L 136.935924 152.899682 
L 145.053203 151.77721 
L 149.530068 151.070366 
L 149.530068 151.070366 
" style="fill:none;stroke:#000000;stroke-linecap:square;stroke-opacity:0.7;stroke-width:1.2;"/>
   </g>
   <g id="line2d_4">
    <path clip-path="url(#p233a5e7590)" d="M 149.942534 111.209899 
L 135.192505 109.639047 
L 108.375452 107.140782 
L 92.288352 105.750777 
L 83.972049 105.251991 
L 78.109833 105.098775 
L 73.370155 105.143634 
L 67.816682 105.428189 
L 62.807502 105.929419 
L 58.097175 106.644421 
L 54.056556 107.489642 
L 51.12161 108.289697 
L 48.627203 109.176162 
L 46.840052 110.09069 
L 46.28645 110.553057 
L 46.041972 111.007446 
L 46.117494 111.352904 
L 46.366835 111.610732 
L 47.22667 112.023561 
L 49.022787 112.463969 
L 52.718854 112.959804 
L 57.508448 113.339138 
L 65.455546 113.702853 
L 74.748116 113.898936 
L 86.107966 113.926411 
L 101.606812 113.733832 
L 117.246473 113.324616 
L 130.840038 112.761302 
L 139.921681 112.16959 
L 148.157671 111.387141 
L 149.951796 111.191352 
L 149.951796 111.191352 
" style="fill:none;stroke:#000000;stroke-linecap:square;stroke-opacity:0.7;stroke-width:1.2;"/>
   </g>
   <g id="line2d_5">
    <path clip-path="url(#p233a5e7590)" d="M 149.517143 72.343448 
L 137.732387 70.914001 
L 120.489524 69.105837 
L 98.772156 67.008195 
L 87.946305 66.152814 
L 79.687238 65.715647 
L 73.765005 65.60778 
L 68.053702 65.735734 
L 63.494945 66.042991 
L 58.851477 66.58749 
L 55.441706 67.175795 
L 52.176204 67.945083 
L 49.441701 68.828791 
L 47.597283 69.652981 
L 46.322166 70.481217 
L 45.695384 71.160937 
L 45.496177 71.641159 
L 45.508008 72.062799 
L 45.706379 72.465458 
L 46.087112 72.843178 
L 46.83323 73.290337 
L 47.873115 73.701272 
L 49.825053 74.216621 
L 53.041202 74.756827 
L 57.529032 75.217336 
L 63.817316 75.567385 
L 70.560177 75.713008 
L 78.57218 75.683147 
L 90.360987 75.399043 
L 119.426135 74.380344 
L 132.703622 73.740149 
L 140.933451 73.151174 
L 149.520644 72.308725 
L 149.520644 72.308725 
" style="fill:none;stroke:#000000;stroke-linecap:square;stroke-opacity:0.7;stroke-width:1.2;"/>
   </g>
   <g id="line2d_6">
    <path clip-path="url(#p233a5e7590)" d="M 281.428331 229.014114 
L 274.821274 226.122799 
L 270.352925 224.392675 
L 265.668686 222.82115 
L 259.798921 221.130253 
L 253.771449 219.621414 
L 247.743144 218.306818 
L 241.508243 217.158555 
L 235.596146 216.282521 
L 229.466237 215.598987 
L 223.332545 215.147443 
L 217.29124 214.947042 
L 212.63686 214.984474 
L 207.832807 215.235598 
L 203.156518 215.733148 
L 199.69639 216.294914 
L 196.411823 217.007962 
L 193.188257 217.905674 
L 190.08608 218.986301 
L 186.909316 220.356839 
L 184.218877 221.776079 
L 181.579367 223.473953 
L 179.989862 224.703723 
L 178.637825 225.947303 
L 177.450246 227.342917 
L 176.797244 228.53019 
L 176.64801 229.176477 
L 176.70328 229.740751 
L 176.987033 230.253301 
L 177.588931 230.730121 
L 178.563404 231.127544 
L 180.199571 231.46724 
L 182.278729 231.66434 
L 185.928483 231.738991 
L 190.579098 231.595433 
L 197.665013 231.116957 
L 207.207389 230.20634 
L 230.649027 227.831197 
L 237.977582 227.391439 
L 245.382354 227.187743 
L 253.891652 227.196907 
L 262.41281 227.42778 
L 269.773522 227.845218 
L 276.84368 228.465998 
L 281.430667 228.952365 
L 281.430667 228.952365 
" style="fill:none;stroke:#000000;stroke-linecap:square;stroke-opacity:0.7;stroke-width:1.2;"/>
   </g>
   <g id="line2d_7">
    <path clip-path="url(#p233a5e7590)" d="M 281.297695 189.866009 
L 275.037025 187.762765 
L 270.437533 186.432035 
L 264.876319 185.097298 
L 259.252044 183.980341 
L 251.725222 182.740287 
L 244.713847 181.808618 
L 237.303301 181.056978 
L 229.908761 180.54699 
L 222.660637 180.289856 
L 216.725823 180.287386 
L 210.908291 180.510101 
L 205.837851 180.922202 
L 200.973587 181.53514 
L 196.882833 182.232003 
L 192.992972 183.063767 
L 188.187983 184.354246 
L 184.689798 185.525466 
L 181.81462 186.704192 
L 179.606999 187.847861 
L 178.404648 188.677448 
L 177.698442 189.411539 
L 177.469187 189.953979 
L 177.511369 190.3438 
L 177.764994 190.721798 
L 178.187912 191.047174 
L 179.35201 191.574418 
L 181.572599 192.198345 
L 186.049204 193.059728 
L 192.678297 194.021638 
L 200.540161 194.912787 
L 208.011201 195.540661 
L 215.344396 195.937666 
L 223.10761 196.098931 
L 230.03768 195.981355 
L 235.760246 195.654142 
L 240.679693 195.174789 
L 246.124105 194.424695 
L 253.094719 193.201365 
L 269.245212 190.223113 
L 273.544902 189.730281 
L 276.718261 189.585696 
L 279.284206 189.649471 
L 281.292685 189.825045 
L 281.292685 189.825045 
" style="fill:none;stroke:#000000;stroke-linecap:square;stroke-opacity:0.7;stroke-width:1.2;"/>
   </g>
   <g id="line2d_8">
    <path clip-path="url(#p233a5e7590)" d="M 280.882831 151.06252 
L 273.621845 149.337295 
L 266.590688 147.868259 
L 256.436181 145.996584 
L 243.277888 143.800385 
L 234.860357 142.599488 
L 227.49906 141.753206 
L 220.375538 141.147164 
L 213.336631 140.792716 
L 207.235713 140.738855 
L 202.908038 140.888269 
L 198.378919 141.260647 
L 194.798628 141.75103 
L 190.789474 142.559702 
L 187.650792 143.433326 
L 184.470751 144.597863 
L 181.646863 145.953068 
L 179.320548 147.426002 
L 178.205884 148.347516 
L 177.32695 149.337265 
L 176.957956 150.043971 
L 176.880825 150.57324 
L 177.010201 151.029436 
L 177.410319 151.490267 
L 178.152361 151.918192 
L 179.228852 152.281214 
L 180.971336 152.638118 
L 183.935736 152.9821 
L 188.285773 153.229262 
L 195.051636 153.33296 
L 204.565568 153.192969 
L 222.18193 152.627735 
L 236.08454 152.277485 
L 268.255535 151.694795 
L 278.062822 151.194553 
L 280.881197 151.019364 
L 280.881197 151.019364 
" style="fill:none;stroke:#000000;stroke-linecap:square;stroke-opacity:0.7;stroke-width:1.2;"/>
   </g>
   <g id="line2d_9">
    <path clip-path="url(#p233a5e7590)" d="M 281.118897 111.352114 
L 270.837518 109.315069 
L 262.161728 107.828415 
L 253.471302 106.578045 
L 245.454351 105.665554 
L 238.284304 105.084368 
L 230.772517 104.705623 
L 222.565705 104.505384 
L 214.078028 104.490579 
L 206.800926 104.659353 
L 200.518456 104.99391 
L 194.573385 105.527816 
L 190.278035 106.085024 
L 185.816224 106.871198 
L 181.945279 107.809632 
L 179.054603 108.792132 
L 177.563725 109.507926 
L 176.599376 110.200109 
L 176.175806 110.811363 
L 176.161513 111.245016 
L 176.395158 111.638253 
L 176.800155 111.964489 
L 177.896217 112.472253 
L 179.800623 112.999461 
L 182.941147 113.54894 
L 187.657218 114.072711 
L 193.346842 114.468479 
L 201.761693 114.793511 
L 213.12956 114.968214 
L 225.998388 114.950608 
L 235.541765 114.715815 
L 243.969579 114.284128 
L 255.729574 113.432165 
L 281.111389 111.350796 
L 281.111389 111.350796 
" style="fill:none;stroke:#000000;stroke-linecap:square;stroke-opacity:0.7;stroke-width:1.2;"/>
   </g>
   <g id="line2d_10">
    <path clip-path="url(#p233a5e7590)" d="M 281.233038 71.884642 
L 272.229328 69.086981 
L 264.10905 66.844657 
L 252.756761 63.986375 
L 240.411502 61.058489 
L 232.297004 59.357861 
L 225.944155 58.255527 
L 220.266357 57.496605 
L 215.373228 57.050017 
L 210.773773 56.837055 
L 205.842266 56.871242 
L 202.448396 57.079167 
L 198.93081 57.480012 
L 195.568961 58.068636 
L 192.08157 58.93389 
L 188.645366 60.103692 
L 185.630916 61.472889 
L 183.451766 62.738716 
L 181.844192 63.883017 
L 180.218054 65.311847 
L 178.774671 66.969325 
L 177.955341 68.241443 
L 177.260673 69.867289 
L 176.994642 71.271851 
L 177.06731 72.60568 
L 177.51856 73.931118 
L 178.298879 75.084347 
L 179.62691 76.2951 
L 180.865669 77.089297 
L 182.666509 77.96265 
L 184.861496 78.769546 
L 188.028084 79.640222 
L 191.166073 80.282395 
L 195.432485 80.909366 
L 200.046946 81.338847 
L 204.671574 81.55127 
L 209.240112 81.572272 
L 213.87827 81.424497 
L 219.928399 81.017607 
L 227.163228 80.29213 
L 236.721249 79.092146 
L 252.510144 76.859594 
L 265.041998 74.918263 
L 273.32875 73.449025 
L 281.256609 71.850518 
L 281.256609 71.850518 
" style="fill:none;stroke:#000000;stroke-linecap:square;stroke-opacity:0.7;stroke-width:1.2;"/>
   </g>
   <g id="line2d_11">
    <path clip-path="url(#p233a5e7590)" d="M 412.471754 229.557583 
L 402.359072 228.143604 
L 393.968387 227.195681 
L 381.993429 226.099289 
L 368.333805 225.089968 
L 352.899788 224.172413 
L 343.403851 223.805366 
L 336.473127 223.767739 
L 330.44417 223.977507 
L 324.88679 224.420894 
L 320.336943 225.001474 
L 316.10875 225.773901 
L 313.06552 226.542094 
L 310.476397 227.472483 
L 309.167099 228.203576 
L 308.614684 228.726337 
L 308.41361 229.159178 
L 308.426332 229.474202 
L 308.602604 229.808514 
L 309.04833 230.197569 
L 309.894242 230.62455 
L 311.051309 231.007508 
L 312.905609 231.429954 
L 316.23499 231.930924 
L 321.721482 232.440355 
L 328.541626 232.818104 
L 337.831487 233.099853 
L 349.886835 233.233318 
L 361.608549 233.147595 
L 371.241722 232.850709 
L 381.81006 232.272485 
L 393.792081 231.390723 
L 404.707619 230.380159 
L 412.469781 229.537206 
L 412.469781 229.537206 
" style="fill:none;stroke:#000000;stroke-linecap:square;stroke-opacity:0.7;stroke-width:1.2;"/>
   </g>
   <g id="line2d_12">
    <path clip-path="url(#p233a5e7590)" d="M 412.747823 189.647835 
L 403.052347 187.710576 
L 394.889092 186.320555 
L 386.489395 185.102528 
L 379.336964 184.247295 
L 371.792169 183.578423 
L 364.632449 183.168834 
L 355.127939 182.882762 
L 345.575629 182.835995 
L 338.160352 183.032062 
L 332.641135 183.387417 
L 327.904404 183.88658 
L 323.456347 184.558405 
L 319.324137 185.398574 
L 315.775411 186.330831 
L 312.873965 187.291497 
L 310.452573 188.31437 
L 308.910258 189.214151 
L 308.369747 189.781071 
L 308.353154 190.051827 
L 308.576398 190.254544 
L 309.084788 190.404617 
L 310.150733 190.497147 
L 312.809773 190.428251 
L 318.72434 189.920067 
L 346.000203 187.19721 
L 354.40908 186.693112 
L 361.57948 186.474449 
L 368.859716 186.474954 
L 376.100519 186.694285 
L 384.715479 187.179083 
L 395.698042 188.03863 
L 412.745161 189.608849 
L 412.745161 189.608849 
" style="fill:none;stroke:#000000;stroke-linecap:square;stroke-opacity:0.7;stroke-width:1.2;"/>
   </g>
   <g id="line2d_13">
    <path clip-path="url(#p233a5e7590)" d="M 412.583114 150.593672 
L 404.750747 148.636569 
L 397.48973 147.068068 
L 389.336513 145.578596 
L 379.43791 144.019809 
L 370.231668 142.788708 
L 361.559823 141.843912 
L 353.261971 141.17157 
L 347.351599 140.880573 
L 341.395716 140.81376 
L 336.90141 140.960062 
L 332.127075 141.340681 
L 327.68761 141.934142 
L 323.266338 142.789191 
L 319.879185 143.654672 
L 316.93561 144.591254 
L 313.866538 145.816228 
L 312.079004 146.704456 
L 310.459843 147.701138 
L 309.189798 148.750627 
L 308.491234 149.645825 
L 308.258311 150.248189 
L 308.255781 150.807286 
L 308.48046 151.311176 
L 308.94582 151.776609 
L 309.917902 152.307138 
L 311.453412 152.785783 
L 313.306882 153.137766 
L 316.682457 153.50547 
L 321.175009 153.742674 
L 328.298941 153.85499 
L 337.931766 153.767179 
L 352.143466 153.393876 
L 366.631033 152.810825 
L 382.026988 151.959838 
L 401.135803 150.909673 
L 411.967547 150.563762 
L 412.588581 150.549897 
L 412.588581 150.549897 
" style="fill:none;stroke:#000000;stroke-linecap:square;stroke-opacity:0.7;stroke-width:1.2;"/>
   </g>
   <g id="line2d_14">
    <path clip-path="url(#p233a5e7590)" d="M 412.454783 111.353832 
L 404.765864 109.032123 
L 398.520643 107.359022 
L 391.324527 105.694695 
L 383.885688 104.202977 
L 375.825759 102.805627 
L 368.472118 101.735715 
L 361.195295 100.881879 
L 354.102495 100.267308 
L 348.344755 99.964133 
L 343.383198 99.885591 
L 338.33822 100.023306 
L 334.051008 100.34507 
L 329.331048 100.950851 
L 324.829959 101.812594 
L 321.432703 102.680969 
L 318.478864 103.622881 
L 315.708526 104.707864 
L 312.835686 106.121814 
L 310.626694 107.534316 
L 309.389503 108.567194 
L 308.479764 109.618507 
L 308.102972 110.351637 
L 308.018038 110.999224 
L 308.201637 111.513374 
L 308.608592 111.924892 
L 309.466753 112.348732 
L 310.766916 112.67224 
L 312.506803 112.887326 
L 315.680866 113.023343 
L 321.448637 112.953265 
L 332.346821 112.508856 
L 351.594622 111.731055 
L 365.036473 111.419509 
L 384.767943 111.216091 
L 402.223064 111.231195 
L 412.454821 111.324001 
L 412.454821 111.324001 
" style="fill:none;stroke:#000000;stroke-linecap:square;stroke-opacity:0.7;stroke-width:1.2;"/>
   </g>
   <g id="line2d_15">
    <path clip-path="url(#p233a5e7590)" d="M 412.466894 71.915309 
L 404.472437 70.161436 
L 397.069844 68.768869 
L 388.409114 67.391493 
L 377.220118 65.85116 
L 366.244957 64.550168 
L 356.654539 63.606234 
L 349.138462 63.050386 
L 342.325135 62.777042 
L 337.714922 62.775768 
L 332.788885 62.991448 
L 329.149384 63.324675 
L 324.863737 63.941228 
L 321.455093 64.634476 
L 318.495642 65.411094 
L 315.399134 66.440316 
L 312.76016 67.552389 
L 310.48967 68.777818 
L 308.909102 69.925727 
L 308.192242 70.709078 
L 307.986569 71.296594 
L 308.158026 71.622165 
L 308.500234 71.798074 
L 309.446453 71.932612 
L 310.536695 71.915664 
L 313.745221 71.588401 
L 331.073052 69.370054 
L 337.955384 68.831956 
L 344.408219 68.583351 
L 350.591169 68.576818 
L 357.851594 68.808535 
L 367.179332 69.342805 
L 386.822756 70.7547 
L 399.383266 71.557029 
L 408.011445 71.859311 
L 412.46278 71.920796 
L 412.46278 71.920796 
" style="fill:none;stroke:#000000;stroke-linecap:square;stroke-opacity:0.7;stroke-width:1.2;"/>
   </g>
   <g id="line2d_16">
    <path clip-path="url(#p233a5e7590)" d="M 544.020317 229.252012 
L 523.322891 226.132371 
L 510.54564 224.424316 
L 499.533902 223.180454 
L 489.584435 222.257029 
L 480.771787 221.63081 
L 473.700667 221.350993 
L 467.574547 221.359416 
L 462.666308 221.578331 
L 458.004487 221.988354 
L 453.619195 222.582914 
L 449.618757 223.343863 
L 446.213482 224.214942 
L 443.615231 225.088337 
L 441.402737 226.085587 
L 440.064168 226.964474 
L 439.549782 227.595317 
L 439.53657 227.942059 
L 439.720309 228.169849 
L 440.337391 228.437858 
L 441.254 228.601995 
L 443.180771 228.719337 
L 447.27322 228.679917 
L 474.10131 227.923602 
L 482.525454 228.096477 
L 494.388541 228.612609 
L 517.562488 229.639624 
L 526.782056 229.878295 
L 533.207491 229.841159 
L 539.488701 229.555615 
L 544.033186 229.216982 
L 544.033186 229.216982 
" style="fill:none;stroke:#000000;stroke-linecap:square;stroke-opacity:0.7;stroke-width:1.2;"/>
   </g>
   <g id="line2d_17">
    <path clip-path="url(#p233a5e7590)" d="M 543.881208 189.983024 
L 535.020276 187.902388 
L 528.002457 186.49038 
L 520.467582 185.226273 
L 513.28037 184.247665 
L 507.387166 183.630881 
L 500.253014 183.125432 
L 493.412935 182.861959 
L 484.894942 182.759782 
L 476.480498 182.866422 
L 469.560967 183.151423 
L 463.669988 183.59112 
L 458.117961 184.21408 
L 453.608502 184.897852 
L 449.044954 185.792094 
L 445.002343 186.825086 
L 442.082706 187.824816 
L 440.250994 188.736249 
L 439.490577 189.392268 
L 439.289951 189.91601 
L 439.34753 190.173082 
L 439.595362 190.502413 
L 440.27358 190.937862 
L 441.504327 191.391229 
L 443.445886 191.844011 
L 446.849014 192.344188 
L 451.611063 192.760867 
L 457.483836 193.034473 
L 464.880931 193.15085 
L 474.366022 193.066298 
L 486.416267 192.728415 
L 497.258772 192.226862 
L 508.804895 191.451229 
L 528.142386 190.094514 
L 535.144656 189.87403 
L 542.11616 189.918725 
L 543.886525 189.964736 
L 543.886525 189.964736 
" style="fill:none;stroke:#000000;stroke-linecap:square;stroke-opacity:0.7;stroke-width:1.2;"/>
   </g>
   <g id="line2d_18">
    <path clip-path="url(#p233a5e7590)" d="M 543.898079 150.614012 
L 533.61608 148.620417 
L 525.106939 147.220631 
L 515.375412 145.884903 
L 505.868083 144.805239 
L 496.11003 143.919788 
L 486.553903 143.258634 
L 478.224669 142.907382 
L 472.192616 142.880662 
L 466.509934 143.104759 
L 461.801752 143.502255 
L 457.381304 144.064107 
L 452.586524 144.901009 
L 448.312378 145.887427 
L 445.434659 146.726259 
L 442.650998 147.758781 
L 440.655057 148.80309 
L 439.889013 149.466695 
L 439.670325 149.961321 
L 439.774528 150.299702 
L 440.142504 150.607779 
L 440.863049 150.894844 
L 441.978907 151.136549 
L 444.036715 151.368298 
L 448.524498 151.549388 
L 455.398324 151.547407 
L 471.257411 151.246218 
L 497.438867 150.80676 
L 524.900061 150.539793 
L 543.897979 150.582124 
L 543.897979 150.582124 
" style="fill:none;stroke:#000000;stroke-linecap:square;stroke-opacity:0.7;stroke-width:1.2;"/>
   </g>
   <g id="line2d_19">
    <path clip-path="url(#p233a5e7590)" d="M 543.830954 111.282138 
L 537.226747 108.557015 
L 531.256023 106.324416 
L 526.292315 104.66745 
L 519.159435 102.54129 
L 512.062518 100.659857 
L 505.993371 99.242955 
L 499.958553 98.046617 
L 494.697173 97.204767 
L 489.787586 96.605742 
L 484.72519 96.190618 
L 479.667368 95.996182 
L 475.117347 96.025616 
L 470.080764 96.309468 
L 466.536395 96.688105 
L 462.874786 97.257918 
L 459.488242 97.972362 
L 455.853522 98.979062 
L 452.888422 100.025832 
L 450.491992 101.056929 
L 447.778549 102.481867 
L 445.678598 103.836497 
L 443.466166 105.619575 
L 442.21771 106.888185 
L 441.009142 108.484997 
L 440.295346 109.923568 
L 440.130397 110.493699 
L 440.083934 111.732962 
L 440.295009 112.375628 
L 440.645361 112.897142 
L 441.384744 113.520196 
L 442.482168 114.053636 
L 444.426496 114.581347 
L 446.247375 114.860778 
L 449.559036 115.121934 
L 454.628967 115.225092 
L 461.238973 115.11324 
L 471.829158 114.69017 
L 543.843028 111.255461 
L 543.843028 111.255461 
" style="fill:none;stroke:#000000;stroke-linecap:square;stroke-opacity:0.7;stroke-width:1.2;"/>
   </g>
   <g id="line2d_20">
    <path clip-path="url(#p233a5e7590)" d="M 544.018645 71.585999 
L 537.394574 68.445191 
L 532.816373 66.508467 
L 527.985706 64.725416 
L 522.89966 63.082717 
L 516.059888 61.124168 
L 509.050053 59.335463 
L 502.025584 57.763462 
L 495.797665 56.590325 
L 489.592253 55.670101 
L 483.998591 55.090973 
L 479.007574 54.809528 
L 474.134074 54.78706 
L 470.692736 54.946032 
L 466.980018 55.305079 
L 463.330885 55.875546 
L 459.876028 56.645816 
L 456.789156 57.554447 
L 453.495907 58.794905 
L 450.6558 60.135069 
L 448.355798 61.44566 
L 445.94357 63.094773 
L 443.920214 64.768199 
L 442.496014 66.1767 
L 441.274793 67.633453 
L 440.461374 68.852555 
L 439.778662 70.37948 
L 439.631003 71.242761 
L 439.704661 71.912497 
L 439.966075 72.476145 
L 440.578449 73.072499 
L 441.428098 73.507158 
L 443.059187 73.939199 
L 444.993841 74.178008 
L 448.202413 74.298574 
L 452.23385 74.222082 
L 459.180201 73.819797 
L 469.93607 72.922639 
L 488.640791 71.349016 
L 497.440194 70.841429 
L 506.110361 70.575787 
L 516.285797 70.508876 
L 527.279994 70.663917 
L 535.903226 71.001528 
L 544.028564 71.520464 
L 544.028564 71.520464 
" style="fill:none;stroke:#000000;stroke-linecap:square;stroke-opacity:0.7;stroke-width:1.2;"/>
   </g>
   <g id="line2d_21">
    <path clip-path="url(#p233a5e7590)" d="M 675.299217 229.238862 
L 667.72452 227.299134 
L 661.946596 226.01807 
L 654.590181 224.6502 
L 647.566012 223.555516 
L 640.40395 222.643441 
L 632.873946 221.92837 
L 625.804151 221.471583 
L 616.667416 221.126022 
L 608.027614 221.043768 
L 601.200495 221.217753 
L 595.273739 221.620601 
L 590.906592 222.111573 
L 586.243148 222.858781 
L 581.929139 223.801735 
L 578.549302 224.759506 
L 575.822986 225.729272 
L 573.296878 226.890428 
L 571.715905 227.925618 
L 571.102571 228.626602 
L 570.991908 229.028217 
L 571.087404 229.358234 
L 571.458236 229.719314 
L 572.319575 230.114522 
L 573.510672 230.432307 
L 576.294824 230.874757 
L 580.681584 231.274839 
L 586.603525 231.573957 
L 594.567276 231.719688 
L 603.070247 231.624834 
L 612.907938 231.260577 
L 625.184332 230.560477 
L 658.441209 228.508275 
L 664.665045 228.437138 
L 668.933474 228.595372 
L 673.512921 228.986031 
L 675.302655 229.196149 
L 675.302655 229.196149 
" style="fill:none;stroke:#000000;stroke-linecap:square;stroke-opacity:0.7;stroke-width:1.2;"/>
   </g>
   <g id="line2d_22">
    <path clip-path="url(#p233a5e7590)" d="M 674.834682 190.503738 
L 666.31145 188.363412 
L 657.707882 186.441507 
L 646.470736 184.201639 
L 635.634909 182.262199 
L 627.221686 180.969445 
L 620.000571 180.056342 
L 613.052231 179.381053 
L 606.767104 178.984985 
L 601.064195 178.86188 
L 596.213113 178.995669 
L 591.862529 179.361473 
L 588.480071 179.85025 
L 585.195637 180.539232 
L 581.961535 181.477023 
L 579.207665 182.537008 
L 577.313934 183.448674 
L 575.506052 184.506596 
L 573.743129 185.796984 
L 572.481688 186.994141 
L 571.513341 188.298375 
L 571.143313 189.145432 
L 571.030757 189.793339 
L 571.096621 190.412617 
L 571.396551 191.057081 
L 572.047931 191.730495 
L 572.915814 192.272916 
L 574.190737 192.809093 
L 576.322325 193.408984 
L 579.434018 193.978838 
L 583.43717 194.444446 
L 588.391852 194.782934 
L 593.953326 194.960859 
L 601.757282 194.973159 
L 611.207236 194.764853 
L 628.844865 194.110891 
L 647.327567 193.24742 
L 657.117802 192.561603 
L 664.961391 191.780851 
L 673.329583 190.697461 
L 674.832797 190.481025 
L 674.832797 190.481025 
" style="fill:none;stroke:#000000;stroke-linecap:square;stroke-opacity:0.7;stroke-width:1.2;"/>
   </g>
   <g id="line2d_23">
    <path clip-path="url(#p233a5e7590)" d="M 675.482042 150.054654 
L 663.867486 147.741062 
L 654.381856 146.099095 
L 647.253134 145.057633 
L 641.23121 144.358459 
L 635.023281 143.858712 
L 629.012322 143.599531 
L 622.041015 143.534493 
L 613.095033 143.712341 
L 604.422183 144.099308 
L 597.088427 144.620932 
L 590.520779 145.296964 
L 584.849289 146.087564 
L 579.622397 147.03998 
L 575.539956 148.007396 
L 573.139684 148.749307 
L 571.422133 149.511835 
L 570.872443 149.970747 
L 570.787002 150.363077 
L 570.998683 150.6559 
L 571.439863 150.934434 
L 572.44311 151.318563 
L 574.918065 151.923424 
L 578.619116 152.560599 
L 584.677799 153.340645 
L 591.766783 154.020825 
L 599.909851 154.570792 
L 608.29579 154.916479 
L 616.625059 155.056617 
L 624.072755 154.988556 
L 631.244085 154.694645 
L 638.37257 154.139755 
L 646.649077 153.218413 
L 670.853261 150.256923 
L 675.490909 149.987764 
L 675.490909 149.987764 
" style="fill:none;stroke:#000000;stroke-linecap:square;stroke-opacity:0.7;stroke-width:1.2;"/>
   </g>
   <g id="line2d_24">
    <path clip-path="url(#p233a5e7590)" d="M 674.810916 111.704577 
L 667.516352 110.348384 
L 660.590632 109.25266 
L 652.182543 108.130242 
L 643.653683 107.191245 
L 636.548487 106.615561 
L 629.55474 106.266448 
L 620.787553 106.081057 
L 610.250273 106.097567 
L 600.461278 106.322245 
L 593.108499 106.701034 
L 587.315949 107.19477 
L 581.523628 107.937736 
L 577.5943 108.658082 
L 574.538765 109.434585 
L 572.587679 110.14721 
L 571.496689 110.776119 
L 571.063974 111.296155 
L 571.035253 111.63437 
L 571.189345 111.927779 
L 571.753914 112.361791 
L 572.385692 112.656342 
L 574.423581 113.275573 
L 577.816181 113.951181 
L 582.271086 114.589254 
L 588.967734 115.28039 
L 595.875133 115.762244 
L 603.584643 116.07369 
L 611.790988 116.175498 
L 620.095384 116.051475 
L 627.923471 115.709031 
L 636.292195 115.09751 
L 649.727501 113.830579 
L 666.307361 112.300921 
L 674.783607 111.67038 
L 674.783607 111.67038 
" style="fill:none;stroke:#000000;stroke-linecap:square;stroke-opacity:0.7;stroke-width:1.2;"/>
   </g>
   <g id="line2d_25">
    <path clip-path="url(#p233a5e7590)" d="M 675.31208 71.708944 
L 659.803919 69.599848 
L 644.254452 67.746545 
L 630.985319 66.368261 
L 619.695195 65.419876 
L 611.1953 64.90329 
L 604.076917 64.691144 
L 598.087262 64.752785 
L 593.208396 65.018026 
L 588.752567 65.464119 
L 584.579701 66.089483 
L 580.387625 66.963963 
L 576.604846 68.037085 
L 573.790184 69.114274 
L 572.395363 69.817643 
L 571.471078 70.429367 
L 570.865786 71.02776 
L 570.657063 71.456335 
L 570.717277 71.935856 
L 571.029393 72.289805 
L 571.592312 72.614358 
L 572.652455 72.972533 
L 574.705053 73.371839 
L 578.156218 73.735115 
L 582.6318 73.972262 
L 590.005373 74.106746 
L 601.650239 74.040464 
L 650.839209 73.310454 
L 660.281862 72.962619 
L 667.280788 72.494275 
L 674.499886 71.764696 
L 675.335507 71.667754 
L 675.335507 71.667754 
" style="fill:none;stroke:#000000;stroke-linecap:square;stroke-opacity:0.7;stroke-width:1.2;"/>
   </g>
  </g>
 </g>
 <defs>
  <clipPath id="p233a5e7590">
   <rect height="262.08" width="694.08" x="12.96" y="12.96"/>
  </clipPath>
 </defs>
</svg>
