<?xml version="1.0" encoding="utf-8" standalone="no"?>
<!DOCTYPE svg PUBLIC "-//W3C//DTD SVG 1.1//EN"
  "http://www.w3.org/Graphics/SVG/1.1/DTD/svg11.dtd">
<!-- Created with matplotlib (https://matplotlib.org/) -->
<svg height="288pt" version="1.1" viewBox="0 0 720 288" width="720pt" xmlns="http://www.w3.org/2000/svg" xmlns:xlink="http://www.w3.org/1999/xlink">
 <metadata>
  <rdf:RDF xmlns:cc="http://creativecommons.org/ns#" xmlns:dc="http://purl.org/dc/elements/1.1/" xmlns:rdf="http://www.w3.org/1999/02/22-rdf-syntax-ns#">
   <cc:Work>
    <dc:type rdf:resource="http://purl.org/dc/dcmitype/StillImage"/>
    <dc:date>2021-05-05T23:25:10.141724</dc:date>
    <dc:format>image/svg+xml</dc:format>
    <dc:creator>
     <cc:Agent>
      <dc:title>Matplotlib v3.3.4, https://matplotlib.org/</dc:title>
     </cc:Agent>
    </dc:creator>
   </cc:Work>
  </rdf:RDF>
 </metadata>
 <defs>
  <style type="text/css">*{stroke-linecap:butt;stroke-linejoin:round;}</style>
 </defs>
 <g id="figure_1">
  <g id="patch_1">
   <path d="M 0 288 
L 720 288 
L 720 0 
L 0 0 
z
" style="fill:#ffffff;"/>
  </g>
  <g id="axes_1">
   <g id="line2d_1">
    <path clip-path="url(#p100e3f61f5)" d="M 148.767135 225.66974 
L 130.487369 222.177521 
L 110.989008 218.358123 
L 103.492913 217.127257 
L 96.309627 216.166112 
L 89.550123 215.478524 
L 83.502749 215.06989 
L 77.784314 214.912494 
L 73.274549 214.991418 
L 68.63815 215.306609 
L 64.219598 215.874597 
L 60.848496 216.518043 
L 57.703458 217.31529 
L 54.692466 218.297484 
L 51.823519 219.494388 
L 49.923192 220.483212 
L 48.408592 221.439028 
L 46.835514 222.700156 
L 45.911898 223.705786 
L 45.251159 224.804067 
L 45.00389 225.783523 
L 45.049702 226.449441 
L 45.33193 227.173402 
L 45.876658 227.870467 
L 46.363141 228.293878 
L 47.261199 228.8757 
L 49.100591 229.699917 
L 51.290215 230.381081 
L 54.266007 231.045161 
L 57.75858 231.603138 
L 62.31816 232.104939 
L 68.156536 232.485322 
L 74.554665 232.636304 
L 81.485127 232.5355 
L 88.939504 232.179536 
L 97.127223 231.568818 
L 107.03784 230.598034 
L 117.801117 229.322285 
L 148.156946 225.569492 
L 148.772109 225.509074 
L 148.772109 225.509074 
" style="fill:none;stroke:#000000;stroke-linecap:square;stroke-opacity:0.7;stroke-width:1.2;"/>
   </g>
   <g id="line2d_2">
    <path clip-path="url(#p100e3f61f5)" d="M 148.870936 185.913884 
L 137.436422 183.305035 
L 127.065041 181.174582 
L 118.762007 179.680129 
L 111.738867 178.644924 
L 105.581904 177.968324 
L 99.650394 177.552253 
L 93.826261 177.380838 
L 88.039376 177.442273 
L 82.312032 177.722224 
L 76.656184 178.202262 
L 70.316588 178.971777 
L 64.684327 179.863369 
L 58.731128 181.045997 
L 54.274299 182.142198 
L 50.640682 183.244089 
L 47.749478 184.377562 
L 46.353088 185.118747 
L 45.381224 185.887305 
L 45.017555 186.530814 
L 45.065853 186.98028 
L 45.338459 187.352358 
L 46.072767 187.828269 
L 47.452347 188.325644 
L 49.433244 188.769872 
L 52.939958 189.267111 
L 58.600781 189.750957 
L 65.783848 190.114298 
L 75.377977 190.35932 
L 83.911412 190.365287 
L 92.320551 190.132175 
L 99.858574 189.697919 
L 108.532062 188.949215 
L 121.752882 187.510707 
L 132.32549 186.454394 
L 139.868044 185.954822 
L 146.204748 185.762417 
L 148.868443 185.739754 
L 148.868443 185.739754 
" style="fill:none;stroke:#000000;stroke-linecap:square;stroke-opacity:0.7;stroke-width:1.2;"/>
   </g>
   <g id="line2d_3">
    <path clip-path="url(#p100e3f61f5)" d="M 148.538423 147.173897 
L 136.627932 146.060979 
L 112.981949 143.714052 
L 106.188695 143.301232 
L 99.18132 143.072752 
L 90.526083 143.021751 
L 79.092546 143.201817 
L 67.607308 143.601823 
L 59.020379 144.132524 
L 53.045747 144.711851 
L 49.447113 145.223302 
L 46.670033 145.819458 
L 45.519226 146.214715 
L 44.856876 146.603007 
L 44.618896 146.992557 
L 44.727162 147.318061 
L 45.187063 147.694981 
L 46.039074 148.087177 
L 47.596583 148.56521 
L 50.380937 149.160556 
L 55.028591 149.856988 
L 60.541745 150.444736 
L 67.692675 150.975307 
L 75.798234 151.347774 
L 84.137661 151.520779 
L 92.205118 151.495485 
L 100.962689 151.232478 
L 109.377419 150.728586 
L 119.033491 149.913918 
L 148.545514 147.058728 
L 148.545514 147.058728 
" style="fill:none;stroke:#000000;stroke-linecap:square;stroke-opacity:0.7;stroke-width:1.2;"/>
   </g>
   <g id="line2d_4">
    <path clip-path="url(#p100e3f61f5)" d="M 148.70495 107.258327 
L 134.163066 105.771369 
L 111.351084 103.312538 
L 103.026451 102.729371 
L 95.64659 102.441355 
L 87.648195 102.358694 
L 79.488861 102.490463 
L 71.162692 102.848 
L 63.440421 103.421398 
L 57.398455 104.087826 
L 52.250225 104.886203 
L 49.49186 105.462446 
L 46.722718 106.26078 
L 45.37371 106.858672 
L 44.635451 107.460392 
L 44.509091 107.87096 
L 44.62845 108.170733 
L 45.03666 108.532018 
L 45.285699 108.674621 
L 46.567537 109.159913 
L 49.099245 109.719151 
L 52.468772 110.184662 
L 57.464254 110.627546 
L 64.413667 111.000933 
L 73.92094 111.262399 
L 83.844745 111.317385 
L 92.555735 111.170818 
L 101.425891 110.79488 
L 110.220043 110.188348 
L 124.116573 108.946165 
L 137.904993 107.779857 
L 146.927525 107.228236 
L 148.706595 107.142869 
L 148.706595 107.142869 
" style="fill:none;stroke:#000000;stroke-linecap:square;stroke-opacity:0.7;stroke-width:1.2;"/>
   </g>
   <g id="line2d_5">
    <path clip-path="url(#p100e3f61f5)" d="M 148.891983 67.298293 
L 136.090141 65.859105 
L 124.875219 64.344628 
L 92.2091 59.703433 
L 85.658595 59.051019 
L 80.649393 58.716645 
L 76.073684 58.578089 
L 71.234732 58.64103 
L 66.728665 58.923181 
L 62.598672 59.399434 
L 58.779037 60.057571 
L 55.873325 60.72755 
L 53.048973 61.555259 
L 50.070208 62.683205 
L 47.456497 64.012233 
L 45.834609 65.156964 
L 45.077816 65.928768 
L 44.724925 66.555696 
L 44.708858 67.032154 
L 44.902805 67.325859 
L 45.273688 67.548132 
L 45.944772 67.721716 
L 47.113052 67.80343 
L 48.872029 67.73212 
L 52.924567 67.268997 
L 72.310232 64.643298 
L 77.98946 64.183903 
L 84.110142 63.929374 
L 89.960805 63.901718 
L 97.88411 64.116291 
L 107.553278 64.634993 
L 120.655468 65.601957 
L 135.71953 66.702843 
L 142.913448 67.0205 
L 148.878473 67.13459 
L 148.878473 67.13459 
" style="fill:none;stroke:#000000;stroke-linecap:square;stroke-opacity:0.7;stroke-width:1.2;"/>
   </g>
   <g id="line2d_6">
    <path clip-path="url(#p100e3f61f5)" d="M 280.399194 225.898451 
L 274.826173 223.729099 
L 268.474088 221.508452 
L 262.54828 219.671188 
L 255.661777 217.76834 
L 249.029271 216.14742 
L 242.821108 214.829491 
L 236.824604 213.767193 
L 230.886197 212.953593 
L 225.912782 212.482334 
L 221.261746 212.235734 
L 215.772767 212.20632 
L 211.471892 212.390883 
L 206.798527 212.805517 
L 202.605947 213.375738 
L 198.060117 214.223378 
L 193.827826 215.256056 
L 189.836941 216.488636 
L 186.921312 217.587493 
L 184.036959 218.889317 
L 181.908705 220.033771 
L 180.377746 220.992948 
L 178.231583 222.657811 
L 177.152014 223.807331 
L 176.483437 224.995694 
L 176.395266 225.612558 
L 176.492388 226.046042 
L 176.624771 226.287691 
L 177.038487 226.703776 
L 177.857608 227.133444 
L 179.216423 227.502372 
L 180.868323 227.730082 
L 183.681941 227.880649 
L 187.502692 227.870555 
L 195.515236 227.555203 
L 224.264689 225.978243 
L 241.792172 225.12426 
L 252.582677 224.833453 
L 261.02332 224.824755 
L 268.330894 225.018173 
L 276.152004 225.447815 
L 280.397166 225.764408 
L 280.397166 225.764408 
" style="fill:none;stroke:#000000;stroke-linecap:square;stroke-opacity:0.7;stroke-width:1.2;"/>
   </g>
   <g id="line2d_7">
    <path clip-path="url(#p100e3f61f5)" d="M 280.015751 187.043018 
L 269.943087 184.868029 
L 258.596163 182.666034 
L 249.49896 181.093515 
L 242.247755 180.035829 
L 235.275872 179.244532 
L 229.05006 178.735435 
L 222.023814 178.364917 
L 214.056487 178.18579 
L 207.985702 178.242613 
L 202.244933 178.501439 
L 197.861773 178.875117 
L 193.078239 179.505698 
L 188.680281 180.346606 
L 185.451981 181.171842 
L 182.418227 182.168396 
L 180.075927 183.157376 
L 178.384606 184.081057 
L 177.263684 184.907757 
L 176.565934 185.724072 
L 176.385957 186.247335 
L 176.490957 186.776874 
L 176.757644 187.110793 
L 177.316261 187.485791 
L 178.331845 187.878025 
L 180.088044 188.268744 
L 182.490426 188.572835 
L 186.276653 188.820485 
L 192.363404 188.956217 
L 202.361572 188.89769 
L 219.202556 188.541541 
L 233.711482 188.041613 
L 263.648005 186.858216 
L 271.578462 186.803943 
L 280.014382 186.966958 
L 280.014382 186.966958 
" style="fill:none;stroke:#000000;stroke-linecap:square;stroke-opacity:0.7;stroke-width:1.2;"/>
   </g>
   <g id="line2d_8">
    <path clip-path="url(#p100e3f61f5)" d="M 280.545673 146.489053 
L 268.684856 144.0591 
L 254.999245 141.519275 
L 243.225308 139.534027 
L 234.833315 138.340875 
L 227.691781 137.559819 
L 221.889536 137.129249 
L 215.774145 136.918871 
L 210.94377 136.964731 
L 206.290931 137.213765 
L 201.714245 137.675096 
L 197.422016 138.318064 
L 192.971071 139.218419 
L 188.568101 140.374272 
L 185.198789 141.474411 
L 181.63479 142.913869 
L 179.019749 144.257564 
L 177.666425 145.145072 
L 176.740368 145.965409 
L 176.319652 146.688155 
L 176.37078 147.073881 
L 176.570784 147.299023 
L 177.078682 147.545615 
L 178.045685 147.741466 
L 180.037964 147.843974 
L 183.331256 147.745851 
L 191.004726 147.202491 
L 204.431524 146.244643 
L 213.668755 145.819705 
L 224.324145 145.581174 
L 239.116689 145.511354 
L 253.700044 145.663216 
L 270.644622 146.080482 
L 280.525166 146.360636 
L 280.525166 146.360636 
" style="fill:none;stroke:#000000;stroke-linecap:square;stroke-opacity:0.7;stroke-width:1.2;"/>
   </g>
   <g id="line2d_9">
    <path clip-path="url(#p100e3f61f5)" d="M 279.938788 108.13791 
L 238.738811 102.553342 
L 227.962629 101.363888 
L 219.857416 100.6814 
L 214.068232 100.377949 
L 208.476344 100.287377 
L 202.855863 100.435148 
L 197.96375 100.78093 
L 193.124446 101.345344 
L 188.258622 102.176812 
L 184.774103 102.980918 
L 181.383322 104.00455 
L 179.308434 104.817368 
L 177.560407 105.713531 
L 176.61012 106.390132 
L 175.980226 107.131128 
L 175.856248 107.598911 
L 175.964786 107.987394 
L 176.293298 108.347961 
L 176.872405 108.684841 
L 178.192617 109.114067 
L 180.457162 109.510083 
L 183.975616 109.826693 
L 188.825617 110.024015 
L 197.048645 110.094719 
L 207.207033 109.96546 
L 220.632307 109.555926 
L 249.416878 108.554522 
L 268.453971 108.212506 
L 279.940477 108.079189 
L 279.940477 108.079189 
" style="fill:none;stroke:#000000;stroke-linecap:square;stroke-opacity:0.7;stroke-width:1.2;"/>
   </g>
   <g id="line2d_10">
    <path clip-path="url(#p100e3f61f5)" d="M 280.433079 67.751239 
L 248.852846 61.886703 
L 238.308244 60.117743 
L 229.962608 58.967736 
L 222.944455 58.238829 
L 216.844537 57.821735 
L 210.823567 57.65663 
L 205.332424 57.772928 
L 200.60695 58.118643 
L 196.11623 58.693058 
L 192.636789 59.328416 
L 188.586878 60.317349 
L 185.383013 61.337132 
L 182.54268 62.480795 
L 180.504791 63.506878 
L 178.863152 64.543007 
L 177.729586 65.47085 
L 176.970871 66.334623 
L 176.543749 67.166648 
L 176.456348 67.811402 
L 176.582474 68.347971 
L 176.905674 68.852321 
L 177.520132 69.383048 
L 178.708109 69.994066 
L 180.521122 70.562538 
L 182.507523 70.966359 
L 185.668922 71.373545 
L 189.605568 71.656304 
L 195.370868 71.815827 
L 203.01668 71.751703 
L 212.506474 71.412107 
L 224.179733 70.760728 
L 238.536547 69.734744 
L 260.191749 68.155443 
L 268.688002 67.749745 
L 276.091828 67.598879 
L 280.432331 67.6103 
L 280.432331 67.6103 
" style="fill:none;stroke:#000000;stroke-linecap:square;stroke-opacity:0.7;stroke-width:1.2;"/>
   </g>
   <g id="line2d_11">
    <path clip-path="url(#p100e3f61f5)" d="M 411.781571 226.531064 
L 378.350045 222.218893 
L 365.18972 220.753474 
L 355.981638 219.953574 
L 348.560427 219.541859 
L 342.347064 219.433175 
L 336.840672 219.557074 
L 331.199577 219.916322 
L 326.332936 220.426163 
L 321.95081 221.061934 
L 317.091427 222.011917 
L 313.033746 223.103202 
L 310.315173 224.135719 
L 309.177411 224.745145 
L 308.373394 225.387734 
L 308.05911 225.945663 
L 308.096656 226.313962 
L 308.396546 226.687963 
L 308.960578 227.020062 
L 309.988298 227.368721 
L 311.363977 227.659176 
L 314.51094 228.046584 
L 319.389878 228.361374 
L 327.791829 228.627841 
L 340.280833 228.790654 
L 351.915624 228.749407 
L 363.082132 228.479946 
L 378.888615 227.817508 
L 409.201824 226.529875 
L 411.787719 226.436784 
L 411.787719 226.436784 
" style="fill:none;stroke:#000000;stroke-linecap:square;stroke-opacity:0.7;stroke-width:1.2;"/>
   </g>
   <g id="line2d_12">
    <path clip-path="url(#p100e3f61f5)" d="M 411.808358 186.928376 
L 364.903415 176.159695 
L 357.894771 174.910665 
L 351.755815 174.075505 
L 345.940114 173.555301 
L 341.119511 173.352009 
L 336.521289 173.376603 
L 333.025621 173.558212 
L 329.473657 173.91 
L 325.979778 174.450198 
L 322.786536 175.148594 
L 319.449193 176.142506 
L 316.44401 177.342713 
L 314.462387 178.349735 
L 312.692449 179.451803 
L 311.104536 180.678289 
L 310.178917 181.553864 
L 308.818901 183.267981 
L 308.188265 184.561144 
L 307.949579 185.662204 
L 308.032926 186.735131 
L 308.348353 187.541241 
L 309.052651 188.470399 
L 310.026273 189.267421 
L 312.01587 190.322063 
L 313.76396 190.969582 
L 316.594663 191.747036 
L 319.751512 192.384441 
L 324.33171 193.048822 
L 329.097685 193.519379 
L 335.066063 193.878593 
L 341.906702 194.050544 
L 349.303142 194.014926 
L 357.499206 193.754694 
L 365.503912 193.284646 
L 372.958826 192.646764 
L 381.822298 191.662206 
L 391.82519 190.315373 
L 400.827605 188.899246 
L 411.651529 186.948446 
L 411.789032 186.922226 
L 411.789032 186.922226 
" style="fill:none;stroke:#000000;stroke-linecap:square;stroke-opacity:0.7;stroke-width:1.2;"/>
   </g>
   <g id="line2d_13">
    <path clip-path="url(#p100e3f61f5)" d="M 411.587447 147.710451 
L 390.669843 146.119939 
L 370.404968 144.661971 
L 357.50088 143.96498 
L 346.260197 143.575137 
L 337.794744 143.481976 
L 331.097379 143.594692 
L 324.911698 143.889083 
L 319.056815 144.383876 
L 314.287369 145.015848 
L 310.802749 145.724752 
L 308.780042 146.399623 
L 307.956733 146.947334 
L 307.818774 147.310484 
L 307.919572 147.553841 
L 308.314225 147.878187 
L 309.113908 148.230448 
L 310.379401 148.589043 
L 313.319054 149.128115 
L 318.218431 149.694811 
L 324.650434 150.170333 
L 332.893725 150.542681 
L 343.113962 150.773018 
L 354.611953 150.808047 
L 365.305511 150.607772 
L 375.711499 150.171017 
L 391.672205 149.248517 
L 404.592312 148.305054 
L 411.589293 147.660872 
L 411.589293 147.660872 
" style="fill:none;stroke:#000000;stroke-linecap:square;stroke-opacity:0.7;stroke-width:1.2;"/>
   </g>
   <g id="line2d_14">
    <path clip-path="url(#p100e3f61f5)" d="M 412.075319 107.410963 
L 403.547983 104.594318 
L 395.410603 102.141833 
L 385.824906 99.491902 
L 377.786491 97.467237 
L 370.688881 95.909105 
L 365.111218 94.895746 
L 359.981897 94.159928 
L 355.014288 93.64553 
L 350.522515 93.363533 
L 346.081985 93.273389 
L 341.727906 93.388896 
L 336.999683 93.77389 
L 332.773216 94.378506 
L 329.169005 95.114955 
L 326.046456 95.939146 
L 322.458214 97.131953 
L 319.221494 98.476218 
L 316.376872 99.922141 
L 313.569784 101.682442 
L 312.021422 102.865165 
L 310.421009 104.368316 
L 309.297278 105.815809 
L 308.801471 106.852318 
L 308.657761 107.83784 
L 308.797175 108.456702 
L 309.297755 109.184671 
L 310.095304 109.766781 
L 311.706578 110.417632 
L 313.411474 110.823839 
L 316.253402 111.229311 
L 320.850468 111.555685 
L 326.439561 111.697442 
L 334.763331 111.663065 
L 345.547391 111.392214 
L 357.373761 110.889459 
L 369.083082 110.163396 
L 381.785424 109.126462 
L 397.589465 107.835107 
L 405.139914 107.421217 
L 412.087346 107.24809 
L 412.087346 107.24809 
" style="fill:none;stroke:#000000;stroke-linecap:square;stroke-opacity:0.7;stroke-width:1.2;"/>
   </g>
   <g id="line2d_15">
    <path clip-path="url(#p100e3f61f5)" d="M 411.71264 68.569136 
L 388.981836 64.595215 
L 376.360848 62.478173 
L 366.99826 61.143091 
L 358.615741 60.178371 
L 351.282869 59.550296 
L 344.887707 59.221174 
L 339.516184 59.147421 
L 333.677753 59.318683 
L 328.454559 59.7308 
L 324.96035 60.167676 
L 320.301422 61.000484 
L 316.18452 62.058033 
L 313.486758 62.997562 
L 311.547132 63.867451 
L 309.867691 64.851137 
L 308.592002 65.907513 
L 307.85421 66.92413 
L 307.62844 67.663994 
L 307.650382 68.253049 
L 307.866173 68.840152 
L 308.315516 69.449659 
L 309.298684 70.250392 
L 310.99578 71.139098 
L 313.341344 71.99184 
L 316.651649 72.865891 
L 320.841703 73.681833 
L 325.515446 74.356925 
L 331.17882 74.936031 
L 336.915641 75.300162 
L 343.181361 75.467942 
L 350.251135 75.401522 
L 357.659106 75.087682 
L 364.890659 74.584199 
L 374.793807 73.654354 
L 387.579928 72.192952 
L 398.440701 70.729829 
L 407.091025 69.34236 
L 411.709468 68.511918 
L 411.709468 68.511918 
" style="fill:none;stroke:#000000;stroke-linecap:square;stroke-opacity:0.7;stroke-width:1.2;"/>
   </g>
   <g id="line2d_16">
    <path clip-path="url(#p100e3f61f5)" d="M 542.856551 227.324793 
L 519.783399 223.436697 
L 508.880533 221.800116 
L 500.470351 220.758832 
L 493.54193 220.100984 
L 486.404402 219.63751 
L 479.331161 219.414104 
L 472.211348 219.45736 
L 466.331402 219.725994 
L 460.694543 220.212935 
L 455.500044 220.898027 
L 450.432188 221.845467 
L 446.357953 222.8921 
L 443.769596 223.770291 
L 441.928079 224.582214 
L 440.497111 225.473514 
L 439.863739 226.192243 
L 439.777233 226.560805 
L 439.905799 226.91562 
L 440.242602 227.218993 
L 440.819862 227.499038 
L 442.192108 227.866061 
L 444.583592 228.202072 
L 449.373042 228.527571 
L 457.820341 228.784042 
L 479.087068 229.144392 
L 489.915448 229.164475 
L 499.885869 228.954171 
L 537.489606 227.591797 
L 542.874363 227.357947 
L 542.874363 227.357947 
" style="fill:none;stroke:#000000;stroke-linecap:square;stroke-opacity:0.7;stroke-width:1.2;"/>
   </g>
   <g id="line2d_17">
    <path clip-path="url(#p100e3f61f5)" d="M 543.624303 186.831948 
L 537.058103 184.697363 
L 530.144731 182.669066 
L 522.601712 180.705506 
L 515.67471 179.116709 
L 508.617548 177.725703 
L 502.744849 176.770582 
L 497.057576 176.047527 
L 491.267089 175.54826 
L 486.457487 175.348449 
L 482.122404 175.359635 
L 477.557862 175.576502 
L 473.14472 175.977456 
L 468.384544 176.601435 
L 462.499322 177.624502 
L 457.595294 178.688214 
L 452.612715 179.993651 
L 449.128348 181.081295 
L 445.728444 182.34923 
L 442.987007 183.627662 
L 441.121508 184.786676 
L 440.265583 185.54415 
L 439.777938 186.268382 
L 439.692286 186.894773 
L 439.836344 187.269471 
L 440.276477 187.72685 
L 440.67258 187.975246 
L 442.170891 188.540446 
L 444.068267 188.949122 
L 447.098785 189.337295 
L 451.822681 189.661699 
L 458.861086 189.863748 
L 468.31588 189.881094 
L 478.028902 189.696707 
L 487.850301 189.299929 
L 498.701028 188.610402 
L 526.200376 186.657303 
L 533.418846 186.504489 
L 539.73581 186.598465 
L 543.615573 186.759162 
L 543.615573 186.759162 
" style="fill:none;stroke:#000000;stroke-linecap:square;stroke-opacity:0.7;stroke-width:1.2;"/>
   </g>
   <g id="line2d_18">
    <path clip-path="url(#p100e3f61f5)" d="M 543.970282 146.554079 
L 528.452227 144.108288 
L 510.149002 141.127139 
L 503.425363 140.305728 
L 497.707817 139.824559 
L 492.049755 139.560378 
L 486.106402 139.497942 
L 479.324535 139.66155 
L 472.111652 140.072698 
L 464.907086 140.722329 
L 458.372681 141.552537 
L 452.365854 142.58626 
L 447.760426 143.648328 
L 444.499442 144.659888 
L 442.814882 145.361655 
L 441.821806 145.91365 
L 441.110443 146.497744 
L 440.810548 146.998179 
L 440.826886 147.45967 
L 441.026674 147.776316 
L 441.538657 148.178064 
L 442.644885 148.672923 
L 444.359306 149.156951 
L 447.466083 149.733207 
L 451.670318 150.258549 
L 458.460401 150.827202 
L 466.487374 151.251735 
L 474.957323 151.476111 
L 483.306209 151.456999 
L 490.070625 151.236772 
L 496.402443 150.842766 
L 503.701136 150.154747 
L 511.950312 149.132712 
L 526.735787 147.22691 
L 532.974531 146.652882 
L 538.673097 146.361569 
L 543.993081 146.319091 
L 543.993081 146.319091 
" style="fill:none;stroke:#000000;stroke-linecap:square;stroke-opacity:0.7;stroke-width:1.2;"/>
   </g>
   <g id="line2d_19">
    <path clip-path="url(#p100e3f61f5)" d="M 543.618864 107.803876 
L 534.116054 105.423986 
L 524.02125 103.131813 
L 511.227429 100.457491 
L 503.584145 99.060378 
L 496.654311 98.037543 
L 489.952988 97.325935 
L 483.935384 96.938549 
L 477.898235 96.806013 
L 473.108637 96.90346 
L 468.742556 97.169769 
L 463.713144 97.71654 
L 458.967638 98.504665 
L 455.523742 99.269828 
L 452.054681 100.236067 
L 449.181231 101.217625 
L 445.911853 102.599914 
L 443.856647 103.679035 
L 442.139482 104.791394 
L 440.902989 105.830556 
L 440.323144 106.486123 
L 439.817768 107.413955 
L 439.731456 107.938316 
L 439.831538 108.478777 
L 440.190609 109.043874 
L 441.027801 109.700035 
L 442.50821 110.371209 
L 444.235204 110.890163 
L 446.580701 111.396539 
L 450.821118 112.028495 
L 455.643088 112.507293 
L 461.725607 112.885133 
L 469.024619 113.083676 
L 476.040037 113.041088 
L 483.674613 112.754752 
L 491.36715 112.241845 
L 499.621948 111.481939 
L 513.738547 109.905732 
L 525.417462 108.703557 
L 532.686636 108.147993 
L 539.575884 107.812116 
L 543.602786 107.704719 
L 543.602786 107.704719 
" style="fill:none;stroke:#000000;stroke-linecap:square;stroke-opacity:0.7;stroke-width:1.2;"/>
   </g>
   <g id="line2d_20">
    <path clip-path="url(#p100e3f61f5)" d="M 543.68147 68.119247 
L 532.823122 65.304231 
L 520.615799 62.374571 
L 509.176963 59.833615 
L 500.935185 58.203757 
L 493.557575 56.978605 
L 486.891216 56.124112 
L 480.864779 55.603077 
L 474.959032 55.370845 
L 470.094618 55.428617 
L 465.651887 55.717302 
L 461.895861 56.168706 
L 457.701086 56.938272 
L 454.267978 57.814808 
L 451.337772 58.773109 
L 448.039885 60.1359 
L 445.765756 61.298469 
L 443.429956 62.755479 
L 441.407592 64.363573 
L 440.210013 65.635204 
L 439.492283 66.75684 
L 439.199394 67.782515 
L 439.261305 68.426302 
L 439.531426 68.985652 
L 440.197792 69.628316 
L 441.077238 70.113163 
L 443.038251 70.739149 
L 444.966954 71.102103 
L 448.709405 71.498089 
L 453.314057 71.711269 
L 460.649802 71.756195 
L 471.587631 71.541979 
L 494.726664 70.823656 
L 505.841956 70.272557 
L 523.898758 69.080808 
L 536.883989 68.312154 
L 543.664311 68.045702 
L 543.664311 68.045702 
" style="fill:none;stroke:#000000;stroke-linecap:square;stroke-opacity:0.7;stroke-width:1.2;"/>
   </g>
   <g id="line2d_21">
    <path clip-path="url(#p100e3f61f5)" d="M 674.983127 226.77333 
L 667.80589 225.246229 
L 659.869398 223.7572 
L 649.868246 222.125692 
L 640.260171 220.784031 
L 631.222453 219.75582 
L 622.7231 219.016025 
L 614.463548 218.517188 
L 606.731235 218.290436 
L 600.833782 218.334911 
L 596.019813 218.560632 
L 591.144284 219.009992 
L 586.963733 219.613151 
L 583.620206 220.273542 
L 580.643034 221.027903 
L 577.82602 221.931308 
L 575.107557 223.065559 
L 573.655938 223.858314 
L 572.573925 224.642136 
L 571.930495 225.353128 
L 571.686397 226.03253 
L 571.853198 226.608505 
L 572.138362 226.927403 
L 572.910305 227.408592 
L 574.36661 227.928341 
L 575.805529 228.267919 
L 579.269287 228.803519 
L 583.755047 229.225545 
L 589.603442 229.549393 
L 597.32565 229.747219 
L 606.487591 229.754129 
L 616.848895 229.535996 
L 627.20881 229.096016 
L 639.175513 228.338153 
L 654.649491 227.363211 
L 665.26786 226.932678 
L 674.977719 226.723671 
L 674.977719 226.723671 
" style="fill:none;stroke:#000000;stroke-linecap:square;stroke-opacity:0.7;stroke-width:1.2;"/>
   </g>
   <g id="line2d_22">
    <path clip-path="url(#p100e3f61f5)" d="M 675.343237 186.716135 
L 636.169634 182.336294 
L 626.639088 181.501221 
L 618.378841 180.968898 
L 610.074589 180.653656 
L 602.885406 180.621536 
L 597.068058 180.814947 
L 591.20977 181.253959 
L 586.613608 181.801945 
L 582.111311 182.555155 
L 578.374438 183.404463 
L 575.191892 184.394438 
L 573.576719 185.083169 
L 572.543737 185.682986 
L 571.923507 186.220366 
L 571.616829 186.787964 
L 571.642203 187.158946 
L 571.93697 187.581522 
L 572.512473 187.965466 
L 573.488632 188.353573 
L 575.071511 188.752261 
L 578.202298 189.229423 
L 582.318344 189.597812 
L 588.331872 189.905764 
L 597.112915 190.126131 
L 609.206923 190.189997 
L 619.858985 190.027547 
L 629.519586 189.652655 
L 639.261138 189.059262 
L 675.356866 186.60013 
L 675.356866 186.60013 
" style="fill:none;stroke:#000000;stroke-linecap:square;stroke-opacity:0.7;stroke-width:1.2;"/>
   </g>
   <g id="line2d_23">
    <path clip-path="url(#p100e3f61f5)" d="M 675.473072 147.102017 
L 654.642186 142.930199 
L 628.385386 137.495593 
L 621.624813 136.416199 
L 615.974665 135.735848 
L 610.889623 135.335462 
L 606.539492 135.175155 
L 601.803022 135.210987 
L 597.624034 135.43967 
L 593.709051 135.836863 
L 590.193901 136.361817 
L 586.337996 137.151754 
L 583.015836 138.054624 
L 579.784449 139.198534 
L 576.84395 140.579057 
L 574.98034 141.729229 
L 573.544345 142.879391 
L 572.472504 144.039529 
L 571.61177 145.510052 
L 571.304622 146.793812 
L 571.322193 147.535997 
L 571.602801 148.569846 
L 571.965798 149.252038 
L 572.961398 150.420339 
L 574.465555 151.556697 
L 576.227924 152.507388 
L 578.134058 153.298747 
L 581.250284 154.289123 
L 584.682233 155.110298 
L 589.189515 155.909139 
L 594.000662 156.504204 
L 598.705645 156.872964 
L 603.631387 157.054286 
L 609.279974 157.023216 
L 614.492741 156.790526 
L 620.947873 156.273051 
L 628.051598 155.469708 
L 636.459475 154.282796 
L 647.669662 152.441211 
L 660.053272 150.183349 
L 670.609764 148.049249 
L 675.460573 146.994536 
L 675.460573 146.994536 
" style="fill:none;stroke:#000000;stroke-linecap:square;stroke-opacity:0.7;stroke-width:1.2;"/>
   </g>
   <g id="line2d_24">
    <path clip-path="url(#p100e3f61f5)" d="M 675.471722 107.478647 
L 669.243944 104.805065 
L 663.455771 102.589506 
L 657.77596 100.659898 
L 650.717685 98.505734 
L 642.292467 96.170556 
L 634.433931 94.210703 
L 628.30157 92.890776 
L 622.403724 91.863992 
L 617.739928 91.259172 
L 612.873498 90.855307 
L 607.973548 90.717791 
L 604.32759 90.815431 
L 601.205593 91.051659 
L 597.476371 91.539819 
L 594.200893 92.175248 
L 590.867851 93.046172 
L 587.597543 94.152212 
L 584.445393 95.494516 
L 581.285831 97.171177 
L 578.614678 98.919768 
L 576.911665 100.246003 
L 575.191816 101.823798 
L 573.76962 103.419352 
L 572.685857 105.018975 
L 572.152151 106.240194 
L 572.003971 107.077159 
L 572.08529 107.72672 
L 572.351293 108.23386 
L 572.855971 108.675006 
L 573.819346 109.064655 
L 575.255753 109.28135 
L 577.067843 109.308226 
L 580.288734 109.074636 
L 585.100608 108.465523 
L 606.936237 105.423209 
L 614.195356 104.70393 
L 621.229732 104.206675 
L 628.648415 103.897087 
L 635.933611 103.808838 
L 643.146724 103.930903 
L 650.736207 104.284352 
L 657.72827 104.835101 
L 663.883952 105.526243 
L 671.148811 106.585066 
L 675.490909 107.313827 
L 675.490909 107.313827 
" style="fill:none;stroke:#000000;stroke-linecap:square;stroke-opacity:0.7;stroke-width:1.2;"/>
   </g>
   <g id="line2d_25">
    <path clip-path="url(#p100e3f61f5)" d="M 675.175681 68.518421 
L 654.401786 65.150225 
L 642.846437 63.471238 
L 635.63693 62.625036 
L 628.850829 62.034521 
L 621.647694 61.64479 
L 614.120807 61.489254 
L 606.987127 61.569058 
L 599.673514 61.883984 
L 593.743287 62.325998 
L 587.953917 62.946561 
L 583.173774 63.642276 
L 579.578489 64.32453 
L 575.914597 65.258288 
L 573.905559 65.969811 
L 572.44858 66.703705 
L 571.546188 67.481504 
L 571.306801 68.062526 
L 571.350335 68.404941 
L 571.662885 68.88462 
L 572.07739 69.222177 
L 572.51803 69.481519 
L 574.210596 70.143775 
L 575.944454 70.595925 
L 579.293664 71.204561 
L 584.033098 71.780935 
L 589.928334 72.262115 
L 597.230821 72.645301 
L 605.196628 72.861281 
L 613.534146 72.864055 
L 620.718414 72.668661 
L 629.04197 72.218725 
L 639.594442 71.389987 
L 671.601775 68.690706 
L 675.183017 68.42778 
L 675.183017 68.42778 
" style="fill:none;stroke:#000000;stroke-linecap:square;stroke-opacity:0.7;stroke-width:1.2;"/>
   </g>
  </g>
 </g>
 <defs>
  <clipPath id="p100e3f61f5">
   <rect height="262.08" width="694.08" x="12.96" y="12.96"/>
  </clipPath>
 </defs>
</svg>
