<?xml version="1.0" encoding="utf-8" standalone="no"?>
<!DOCTYPE svg PUBLIC "-//W3C//DTD SVG 1.1//EN"
  "http://www.w3.org/Graphics/SVG/1.1/DTD/svg11.dtd">
<!-- Created with matplotlib (https://matplotlib.org/) -->
<svg height="288pt" version="1.1" viewBox="0 0 720 288" width="720pt" xmlns="http://www.w3.org/2000/svg" xmlns:xlink="http://www.w3.org/1999/xlink">
 <metadata>
  <rdf:RDF xmlns:cc="http://creativecommons.org/ns#" xmlns:dc="http://purl.org/dc/elements/1.1/" xmlns:rdf="http://www.w3.org/1999/02/22-rdf-syntax-ns#">
   <cc:Work>
    <dc:type rdf:resource="http://purl.org/dc/dcmitype/StillImage"/>
    <dc:date>2021-05-05T23:42:44.041405</dc:date>
    <dc:format>image/svg+xml</dc:format>
    <dc:creator>
     <cc:Agent>
      <dc:title>Matplotlib v3.3.4, https://matplotlib.org/</dc:title>
     </cc:Agent>
    </dc:creator>
   </cc:Work>
  </rdf:RDF>
 </metadata>
 <defs>
  <style type="text/css">*{stroke-linecap:butt;stroke-linejoin:round;}</style>
 </defs>
 <g id="figure_1">
  <g id="patch_1">
   <path d="M 0 288 
L 720 288 
L 720 0 
L 0 0 
z
" style="fill:#ffffff;"/>
  </g>
  <g id="axes_1">
   <g id="line2d_1">
    <path clip-path="url(#p7f080fa04d)" d="M 149.343503 225.389542 
L 137.095484 221.589676 
L 124.074787 217.820287 
L 112.131897 214.577443 
L 104.788112 212.816573 
L 98.815382 211.620345 
L 93.934768 210.845556 
L 88.997265 210.274922 
L 83.880064 209.933116 
L 79.475998 209.86093 
L 74.760473 210.033553 
L 71.08795 210.36574 
L 67.582941 210.86383 
L 64.053119 211.569138 
L 60.616805 212.486876 
L 57.195675 213.679645 
L 54.137314 215.051961 
L 52.069473 216.199126 
L 49.906179 217.664198 
L 47.853938 219.433456 
L 46.295796 221.220146 
L 45.307699 222.802712 
L 44.750802 224.180195 
L 44.509091 225.525357 
L 44.607403 226.787001 
L 44.94333 227.738413 
L 45.163757 228.132686 
L 46.212466 229.333244 
L 47.555718 230.26431 
L 49.269559 231.064673 
L 50.967315 231.636144 
L 54.223816 232.394212 
L 57.346538 232.872162 
L 62.2272 233.325545 
L 67.137122 233.538313 
L 73.008787 233.561191 
L 78.989415 233.382435 
L 87.474035 232.866297 
L 97.424301 232.006754 
L 113.319827 230.363745 
L 131.7625 228.232783 
L 142.464791 226.77588 
L 149.331709 225.707137 
L 149.331709 225.707137 
" style="fill:none;stroke:#000000;stroke-linecap:square;stroke-opacity:0.7;stroke-width:1.2;"/>
   </g>
   <g id="line2d_2">
    <path clip-path="url(#p7f080fa04d)" d="M 149.034048 186.392189 
L 132.785093 183.325002 
L 118.136561 180.790569 
L 107.839075 179.224825 
L 99.755749 178.219608 
L 92.704537 177.548568 
L 85.553185 177.106289 
L 79.921408 176.971494 
L 75.244918 177.038296 
L 70.616796 177.29491 
L 65.919464 177.780846 
L 61.36562 178.504945 
L 57.691547 179.305014 
L 54.558865 180.174494 
L 51.571125 181.212847 
L 49.009895 182.337346 
L 47.570808 183.120956 
L 46.042117 184.186173 
L 45.124873 185.124007 
L 44.724373 185.875226 
L 44.664788 186.503987 
L 44.887831 187.095329 
L 45.37711 187.633763 
L 46.328466 188.239443 
L 47.808269 188.844463 
L 49.700676 189.384532 
L 52.853185 190.017984 
L 56.432193 190.521979 
L 60.823774 190.952391 
L 66.872185 191.315608 
L 74.082965 191.496663 
L 82.325725 191.453832 
L 90.730896 191.193199 
L 99.394916 190.702003 
L 107.913514 189.971752 
L 119.944762 188.660502 
L 131.929549 187.415403 
L 139.311857 186.879026 
L 146.279862 186.633907 
L 149.058576 186.605032 
L 149.058576 186.605032 
" style="fill:none;stroke:#000000;stroke-linecap:square;stroke-opacity:0.7;stroke-width:1.2;"/>
   </g>
   <g id="line2d_3">
    <path clip-path="url(#p7f080fa04d)" d="M 149.444276 146.200976 
L 135.934152 143.735708 
L 123.857201 141.771622 
L 111.676091 140.015389 
L 101.336608 138.757917 
L 92.81328 137.942123 
L 86.553152 137.536099 
L 80.752935 137.379315 
L 75.942424 137.458315 
L 70.709234 137.799557 
L 67.070323 138.212261 
L 62.267297 139.004614 
L 58.962531 139.736745 
L 55.783508 140.6135 
L 52.744032 141.650474 
L 50.567599 142.552616 
L 48.587698 143.541559 
L 47.140687 144.425591 
L 45.888515 145.409828 
L 45.249112 146.13369 
L 44.975618 146.742378 
L 45.063668 147.226151 
L 45.444918 147.540262 
L 45.946649 147.711749 
L 46.848974 147.835749 
L 49.038759 147.816893 
L 52.131863 147.535862 
L 59.303688 146.589155 
L 72.469119 144.84086 
L 79.716645 144.096378 
L 86.727455 143.591252 
L 93.880848 143.298993 
L 101.694061 143.217055 
L 110.147224 143.378314 
L 118.532996 143.755034 
L 128.355313 144.427272 
L 138.656492 145.383217 
L 149.434313 146.499513 
L 149.434313 146.499513 
" style="fill:none;stroke:#000000;stroke-linecap:square;stroke-opacity:0.7;stroke-width:1.2;"/>
   </g>
   <g id="line2d_4">
    <path clip-path="url(#p7f080fa04d)" d="M 149.368025 107.040904 
L 134.707868 104.525369 
L 111.951776 100.539712 
L 101.231916 98.948003 
L 92.448039 97.839226 
L 85.429178 97.166874 
L 80.787148 96.905728 
L 75.911672 96.839562 
L 70.683739 97.028198 
L 65.614459 97.480443 
L 62.056705 97.970234 
L 57.894113 98.757231 
L 54.686509 99.566908 
L 51.721593 100.544539 
L 49.821211 101.349511 
L 47.841023 102.440412 
L 46.094861 103.826279 
L 45.710101 104.242126 
L 44.819014 105.662993 
L 44.624845 106.303735 
L 44.564529 106.897846 
L 44.742429 107.872831 
L 45.134734 108.592547 
L 45.927577 109.409718 
L 46.552224 109.848852 
L 47.419384 110.316001 
L 49.192904 110.991338 
L 51.395036 111.54774 
L 54.784107 112.084969 
L 58.483414 112.426645 
L 62.918566 112.644208 
L 69.40644 112.742505 
L 78.142435 112.634904 
L 88.426202 112.289902 
L 99.816933 111.68303 
L 111.956334 110.786083 
L 131.959144 109.023648 
L 146.635904 107.565032 
L 149.382309 107.265089 
L 149.382309 107.265089 
" style="fill:none;stroke:#000000;stroke-linecap:square;stroke-opacity:0.7;stroke-width:1.2;"/>
   </g>
   <g id="line2d_5">
    <path clip-path="url(#p7f080fa04d)" d="M 149.570851 66.974459 
L 129.178974 62.267361 
L 116.260536 59.35819 
L 108.99899 57.92359 
L 102.143516 56.78411 
L 96.324657 56.023188 
L 91.067313 55.532069 
L 85.973537 55.267166 
L 81.700701 55.228737 
L 76.813403 55.411991 
L 72.763212 55.760229 
L 67.869697 56.435084 
L 64.236107 57.132551 
L 59.804663 58.245286 
L 56.389375 59.344018 
L 53.551363 60.468267 
L 50.941344 61.740407 
L 48.950104 62.943791 
L 47.375375 64.13688 
L 46.17242 65.33714 
L 45.585929 66.149753 
L 45.19699 67.014794 
L 45.121396 67.90029 
L 45.33171 68.507505 
L 45.860252 69.115854 
L 46.226935 69.377834 
L 47.221039 69.856174 
L 48.515946 70.245602 
L 50.554938 70.620149 
L 53.236383 70.897418 
L 58.42274 71.120084 
L 65.481065 71.148059 
L 87.608043 70.879931 
L 99.967184 70.627251 
L 109.918873 70.198387 
L 122.086051 69.426523 
L 142.464459 67.900211 
L 149.569528 67.259608 
L 149.569528 67.259608 
" style="fill:none;stroke:#000000;stroke-linecap:square;stroke-opacity:0.7;stroke-width:1.2;"/>
   </g>
   <g id="line2d_6">
    <path clip-path="url(#p7f080fa04d)" d="M 280.574832 225.772014 
L 270.713263 223.600391 
L 261.15345 221.727962 
L 251.458435 220.037876 
L 243.544144 218.847027 
L 236.650861 218.006054 
L 229.717047 217.373532 
L 222.747642 216.957538 
L 215.60477 216.774353 
L 209.630272 216.846142 
L 204.195687 217.131126 
L 198.974336 217.641639 
L 194.328183 218.326167 
L 189.806866 219.242329 
L 186.457672 220.118361 
L 183.583365 221.045807 
L 181.312224 221.937693 
L 179.272343 222.924637 
L 177.625923 223.96501 
L 176.695223 224.804026 
L 176.220401 225.541878 
L 176.12401 226.081628 
L 176.222482 226.483408 
L 176.598058 226.98455 
L 177.458727 227.552291 
L 178.821442 228.081097 
L 181.411605 228.70065 
L 184.86802 229.221713 
L 189.436593 229.66755 
L 195.225804 230.018194 
L 203.684236 230.27174 
L 213.285718 230.310088 
L 223.012034 230.126156 
L 231.509611 229.739134 
L 238.345002 229.218895 
L 246.879702 228.329656 
L 264.012504 226.456293 
L 269.956981 226.055018 
L 275.613001 225.923752 
L 280.569647 226.022943 
L 280.569647 226.022943 
" style="fill:none;stroke:#000000;stroke-linecap:square;stroke-opacity:0.7;stroke-width:1.2;"/>
   </g>
   <g id="line2d_7">
    <path clip-path="url(#p7f080fa04d)" d="M 280.332893 186.667873 
L 261.618806 184.18882 
L 221.031448 178.675017 
L 214.173158 178.098022 
L 208.426735 177.849003 
L 203.274024 177.862237 
L 198.603476 178.107026 
L 193.925081 178.614073 
L 190.876453 179.110381 
L 187.195906 179.922081 
L 184.252945 180.783266 
L 181.52395 181.817884 
L 179.124536 183.029619 
L 177.639304 184.05854 
L 176.717406 184.97546 
L 176.23892 185.769251 
L 176.090389 186.464994 
L 176.186632 187.045082 
L 176.595951 187.726597 
L 177.199897 188.278183 
L 178.190217 188.881455 
L 179.989493 189.626233 
L 182.991506 190.458856 
L 186.26231 191.086313 
L 190.748129 191.678747 
L 194.979785 192.044492 
L 201.261008 192.334544 
L 208.00798 192.39093 
L 216.451232 192.195798 
L 225.973842 191.736368 
L 236.867048 190.986327 
L 252.558621 189.634516 
L 274.934387 187.493684 
L 280.356256 186.905663 
L 280.356256 186.905663 
" style="fill:none;stroke:#000000;stroke-linecap:square;stroke-opacity:0.7;stroke-width:1.2;"/>
   </g>
   <g id="line2d_8">
    <path clip-path="url(#p7f080fa04d)" d="M 280.773676 146.578474 
L 259.153177 142.68586 
L 237.554146 138.731873 
L 227.027281 136.91185 
L 220.077033 135.946086 
L 214.349759 135.391247 
L 209.489084 135.152811 
L 204.934325 135.170805 
L 201.025659 135.40659 
L 197.765193 135.781997 
L 194.2741 136.388749 
L 190.792241 137.235638 
L 187.45688 138.313733 
L 184.239776 139.658241 
L 182.353898 140.622651 
L 180.358837 141.832219 
L 178.771455 142.991829 
L 177.581076 144.050494 
L 176.559371 145.244511 
L 176.100525 146.095725 
L 175.989605 146.81504 
L 176.145289 147.266328 
L 176.510922 147.630524 
L 177.110789 147.917968 
L 178.342141 148.177832 
L 180.149479 148.283079 
L 183.557644 148.171327 
L 189.333411 147.67977 
L 206.061184 146.097874 
L 214.512654 145.584514 
L 221.724368 145.360843 
L 229.389672 145.335411 
L 237.915474 145.527361 
L 250.343445 146.054989 
L 268.926331 146.852027 
L 276.430204 146.907507 
L 280.773877 146.824003 
L 280.773877 146.824003 
" style="fill:none;stroke:#000000;stroke-linecap:square;stroke-opacity:0.7;stroke-width:1.2;"/>
   </g>
   <g id="line2d_9">
    <path clip-path="url(#p7f080fa04d)" d="M 280.918052 106.911167 
L 271.822923 106.271391 
L 264.563459 105.501535 
L 256.169994 104.356911 
L 242.929548 102.283838 
L 229.771215 100.280762 
L 221.633596 99.288101 
L 216.050114 98.790119 
L 210.852292 98.505011 
L 205.864506 98.431061 
L 201.213403 98.570676 
L 196.559662 98.944422 
L 191.973954 99.582496 
L 188.471203 100.29056 
L 185.405652 101.113196 
L 183.02914 101.928264 
L 180.418428 103.097578 
L 178.962378 103.961737 
L 177.61024 105.051805 
L 176.869438 105.951362 
L 176.437551 106.935975 
L 176.398555 107.836754 
L 176.69944 108.694597 
L 177.337168 109.526003 
L 178.268302 110.295344 
L 179.571941 111.062999 
L 181.438263 111.87786 
L 183.677158 112.62308 
L 186.820196 113.422933 
L 190.229241 114.081806 
L 194.572722 114.70227 
L 199.429872 115.173336 
L 205.135019 115.480545 
L 211.049835 115.56032 
L 217.186588 115.428425 
L 224.276562 115.060955 
L 233.300005 114.344103 
L 243.221484 113.318638 
L 255.324111 111.83803 
L 264.043591 110.601209 
L 271.25529 109.352303 
L 277.576494 107.996207 
L 280.924172 107.18406 
L 280.924172 107.18406 
" style="fill:none;stroke:#000000;stroke-linecap:square;stroke-opacity:0.7;stroke-width:1.2;"/>
   </g>
   <g id="line2d_10">
    <path clip-path="url(#p7f080fa04d)" d="M 280.844014 67.505945 
L 268.656534 65.367175 
L 258.250901 63.795208 
L 249.858941 62.729042 
L 242.756286 62.019184 
L 235.891105 61.532898 
L 227.782801 61.199119 
L 219.458424 61.098439 
L 212.495125 61.22595 
L 206.408357 61.543758 
L 200.106128 62.119554 
L 194.288863 62.904764 
L 189.610791 63.738555 
L 184.906647 64.801473 
L 181.734175 65.693197 
L 178.701615 66.773977 
L 176.949772 67.661449 
L 176.419427 68.122737 
L 176.311998 68.486154 
L 176.52103 68.744747 
L 177.169623 69.000019 
L 178.84466 69.246674 
L 182.138172 69.379345 
L 187.808722 69.31578 
L 197.273379 68.953899 
L 232.030802 67.452676 
L 253.56888 66.747802 
L 261.873843 66.689756 
L 268.946878 66.871123 
L 275.051801 67.243804 
L 280.85152 67.744011 
L 280.85152 67.744011 
" style="fill:none;stroke:#000000;stroke-linecap:square;stroke-opacity:0.7;stroke-width:1.2;"/>
   </g>
   <g id="line2d_11">
    <path clip-path="url(#p7f080fa04d)" d="M 412.271536 225.564901 
L 403.597796 225.423987 
L 396.201631 225.088958 
L 385.749944 224.370124 
L 368.357189 223.169981 
L 355.655412 222.548913 
L 345.094963 222.233635 
L 336.577058 222.184231 
L 329.603452 222.341795 
L 322.528706 222.73466 
L 317.167781 223.24432 
L 313.167675 223.82493 
L 310.371378 224.455614 
L 308.698816 225.110697 
L 308.116733 225.561999 
L 307.920038 226.012791 
L 307.955275 226.248151 
L 308.223933 226.652178 
L 308.88411 227.134609 
L 309.883427 227.600307 
L 311.532356 228.140258 
L 313.674797 228.654125 
L 317.105444 229.257316 
L 321.700401 229.831314 
L 327.931588 230.355377 
L 335.26494 230.722442 
L 343.511185 230.894748 
L 352.345402 230.850247 
L 361.698953 230.580169 
L 370.888171 230.101777 
L 381.804656 229.301235 
L 393.609408 228.230171 
L 402.095226 227.274196 
L 409.046778 226.297467 
L 412.280307 225.782566 
L 412.280307 225.782566 
" style="fill:none;stroke:#000000;stroke-linecap:square;stroke-opacity:0.7;stroke-width:1.2;"/>
   </g>
   <g id="line2d_12">
    <path clip-path="url(#p7f080fa04d)" d="M 412.242737 186.144449 
L 380.055112 177.575529 
L 369.224716 174.937286 
L 362.028072 173.397215 
L 356.02686 172.328088 
L 351.29033 171.681316 
L 346.157152 171.233529 
L 342.328099 171.097019 
L 338.710914 171.134256 
L 334.823627 171.360852 
L 330.971788 171.784199 
L 326.484129 172.548818 
L 322.913618 173.398768 
L 319.182498 174.577216 
L 316.297558 175.766312 
L 313.666335 177.168647 
L 311.583162 178.627458 
L 310.504874 179.583382 
L 309.191907 181.079829 
L 308.251899 182.613703 
L 307.645755 184.264519 
L 307.467443 185.35143 
L 307.490529 186.620085 
L 307.806816 187.930814 
L 308.334686 189.012369 
L 309.584075 190.509102 
L 311.027187 191.604428 
L 312.71497 192.509499 
L 314.679865 193.282861 
L 316.757165 193.898044 
L 319.906227 194.5762 
L 323.480421 195.098381 
L 328.378406 195.523473 
L 332.96743 195.695568 
L 337.619935 195.691595 
L 343.599067 195.469389 
L 350.830667 194.946865 
L 359.596631 194.061328 
L 371.76178 192.567502 
L 388.64754 190.240029 
L 401.722104 188.258676 
L 411.638229 186.516841 
L 412.232567 186.405623 
L 412.232567 186.405623 
" style="fill:none;stroke:#000000;stroke-linecap:square;stroke-opacity:0.7;stroke-width:1.2;"/>
   </g>
   <g id="line2d_13">
    <path clip-path="url(#p7f080fa04d)" d="M 412.093408 146.901619 
L 395.005268 144.85237 
L 377.180878 142.696358 
L 365.07094 141.496786 
L 352.716047 140.494354 
L 344.876124 140.031724 
L 338.077654 139.864694 
L 332.117132 139.975738 
L 327.364867 140.271178 
L 322.768811 140.762282 
L 318.472375 141.447831 
L 315.333766 142.133705 
L 311.989439 143.123744 
L 309.985975 143.929534 
L 308.634016 144.647737 
L 307.774908 145.280692 
L 307.408862 145.724579 
L 307.36236 146.094157 
L 307.581277 146.315167 
L 308.218358 146.497137 
L 310.02343 146.555096 
L 313.433986 146.326672 
L 329.201612 144.971866 
L 335.548794 144.67885 
L 341.381886 144.607423 
L 347.568198 144.745133 
L 355.647489 145.166259 
L 372.860148 146.128913 
L 389.994843 146.78671 
L 402.855183 147.095023 
L 412.089313 147.120782 
L 412.089313 147.120782 
" style="fill:none;stroke:#000000;stroke-linecap:square;stroke-opacity:0.7;stroke-width:1.2;"/>
   </g>
   <g id="line2d_14">
    <path clip-path="url(#p7f080fa04d)" d="M 412.347661 106.980545 
L 399.935171 104.331908 
L 388.10108 102.024522 
L 379.78354 100.574376 
L 372.523555 99.531429 
L 366.851672 98.920406 
L 360.790664 98.486446 
L 354.29442 98.268936 
L 348.380247 98.289648 
L 342.503547 98.525312 
L 336.607374 98.996987 
L 330.810604 99.716495 
L 326.102658 100.512341 
L 321.679951 101.464236 
L 318.460977 102.311849 
L 315.340594 103.302109 
L 312.406436 104.469475 
L 310.308836 105.591106 
L 309.164445 106.520126 
L 308.779215 107.108172 
L 308.702344 107.541854 
L 308.842477 107.987589 
L 309.242853 108.432045 
L 310.188779 108.992975 
L 311.506327 109.489432 
L 313.759024 110.079982 
L 317.608484 110.78516 
L 323.16283 111.495788 
L 329.460485 112.058158 
L 337.492934 112.527609 
L 346.39437 112.811443 
L 355.20929 112.8744 
L 362.961479 112.686849 
L 368.992885 112.299409 
L 374.964474 111.659264 
L 381.350944 110.735074 
L 402.499178 107.455447 
L 406.778507 107.143651 
L 409.897645 107.104148 
L 412.354916 107.199553 
L 412.354916 107.199553 
" style="fill:none;stroke:#000000;stroke-linecap:square;stroke-opacity:0.7;stroke-width:1.2;"/>
   </g>
   <g id="line2d_15">
    <path clip-path="url(#p7f080fa04d)" d="M 411.893071 68.192654 
L 403.992143 65.686762 
L 396.871693 63.661209 
L 387.734066 61.306062 
L 378.129653 59.036471 
L 369.835331 57.300931 
L 362.659654 56.054218 
L 357.14658 55.300992 
L 351.289913 54.732264 
L 346.426143 54.47184 
L 341.980368 54.430632 
L 337.137644 54.63538 
L 332.654179 55.095795 
L 329.239064 55.649305 
L 325.695395 56.438067 
L 322.379431 57.405417 
L 319.465296 58.471143 
L 316.284388 59.914553 
L 314.40977 60.934933 
L 312.075573 62.439471 
L 310.359377 63.785062 
L 309.047239 65.056698 
L 308.216309 66.104896 
L 307.62372 67.297093 
L 307.518567 68.031497 
L 307.658408 68.659363 
L 308.120632 69.297564 
L 308.947975 69.86104 
L 310.757994 70.500043 
L 313.090537 70.925173 
L 316.441251 71.223626 
L 321.181401 71.349865 
L 327.455266 71.246462 
L 336.055937 70.849369 
L 354.207532 69.699815 
L 369.087419 68.873599 
L 382.799986 68.349675 
L 393.732848 68.140029 
L 403.222599 68.188523 
L 411.877829 68.430227 
L 411.877829 68.430227 
" style="fill:none;stroke:#000000;stroke-linecap:square;stroke-opacity:0.7;stroke-width:1.2;"/>
   </g>
   <g id="line2d_16">
    <path clip-path="url(#p7f080fa04d)" d="M 543.904742 225.159976 
L 515.38682 220.912873 
L 506.082464 219.757948 
L 498.108401 219.00046 
L 490.319065 218.504212 
L 483.166694 218.275904 
L 477.252069 218.282884 
L 471.525171 218.498428 
L 466.362546 218.895709 
L 460.828633 219.553359 
L 456.277681 220.285837 
L 451.854179 221.181909 
L 447.163363 222.377219 
L 443.946006 223.41338 
L 441.376538 224.504756 
L 440.134062 225.321142 
L 439.800061 225.773712 
L 439.815973 226.202995 
L 440.029099 226.459253 
L 440.610221 226.79485 
L 441.792508 227.168815 
L 443.89045 227.559492 
L 447.448199 227.95295 
L 453.316948 228.306611 
L 460.527036 228.493449 
L 469.857844 228.501474 
L 481.114893 228.294485 
L 491.942746 227.898813 
L 500.765626 227.363386 
L 510.12852 226.565057 
L 526.878538 225.089666 
L 532.450959 224.844383 
L 537.165709 224.875421 
L 541.356447 225.126478 
L 543.921508 225.377806 
L 543.921508 225.377806 
" style="fill:none;stroke:#000000;stroke-linecap:square;stroke-opacity:0.7;stroke-width:1.2;"/>
   </g>
   <g id="line2d_17">
    <path clip-path="url(#p7f080fa04d)" d="M 543.821449 185.962976 
L 532.68299 185.349959 
L 520.910736 184.445456 
L 497.281918 182.606965 
L 483.639182 181.761847 
L 475.667049 181.458382 
L 469.777257 181.41711 
L 463.628954 181.589875 
L 458.050768 181.959464 
L 453.143464 182.472004 
L 447.864587 183.267215 
L 444.606544 183.941604 
L 441.70993 184.764559 
L 440.359698 185.32071 
L 439.552121 185.851438 
L 439.300514 186.259622 
L 439.389168 186.597648 
L 439.805884 186.929296 
L 440.853641 187.317777 
L 442.361691 187.634722 
L 445.78475 188.036577 
L 450.449351 188.311677 
L 457.557011 188.47345 
L 468.055443 188.444126 
L 484.729649 188.131271 
L 509.369202 187.458235 
L 537.123235 186.493201 
L 543.840931 186.175807 
L 543.840931 186.175807 
" style="fill:none;stroke:#000000;stroke-linecap:square;stroke-opacity:0.7;stroke-width:1.2;"/>
   </g>
   <g id="line2d_18">
    <path clip-path="url(#p7f080fa04d)" d="M 543.311733 147.13776 
L 537.224253 144.414218 
L 531.466036 142.042962 
L 525.562227 139.838501 
L 518.605923 137.504915 
L 511.406614 135.348665 
L 503.886338 133.36429 
L 497.823023 131.974698 
L 491.961311 130.832339 
L 487.135859 130.065722 
L 481.875646 129.445255 
L 477.367404 129.126382 
L 473.474741 129.035768 
L 469.754475 129.131945 
L 465.443012 129.499686 
L 462.105461 130.00338 
L 458.690696 130.753651 
L 455.538267 131.700822 
L 452.682168 132.820217 
L 450.078317 134.113032 
L 447.623824 135.634839 
L 445.482276 137.271907 
L 443.965643 138.655537 
L 442.202282 140.582147 
L 441.06486 142.101148 
L 440.238727 143.475342 
L 439.649067 144.908903 
L 439.502576 145.867554 
L 439.587517 146.468236 
L 440.105825 147.256319 
L 440.516689 147.540179 
L 441.629186 147.943516 
L 443.239668 148.17293 
L 445.22368 148.231845 
L 448.565469 148.104544 
L 456.560106 147.46401 
L 467.003991 146.655467 
L 474.648021 146.265787 
L 483.615791 146.042397 
L 495.787907 145.99602 
L 512.421394 146.133703 
L 523.965875 146.439775 
L 536.582977 147.024642 
L 543.317921 147.384687 
L 543.317921 147.384687 
" style="fill:none;stroke:#000000;stroke-linecap:square;stroke-opacity:0.7;stroke-width:1.2;"/>
   </g>
   <g id="line2d_19">
    <path clip-path="url(#p7f080fa04d)" d="M 543.851659 106.940343 
L 522.61232 102.857832 
L 510.692717 100.760554 
L 503.073179 99.612527 
L 495.960792 98.750571 
L 489.445603 98.16627 
L 483.301555 97.812589 
L 477.562139 97.682153 
L 471.662208 97.791994 
L 466.464667 98.135126 
L 461.588552 98.702396 
L 457.309962 99.424091 
L 452.748606 100.461669 
L 449.413671 101.431061 
L 446.028636 102.652076 
L 443.428392 103.823468 
L 441.210632 105.111618 
L 440.058674 106.034037 
L 439.434582 106.822233 
L 439.265413 107.354903 
L 439.323562 107.763072 
L 439.557871 108.126135 
L 440.000277 108.475504 
L 441.237125 108.995519 
L 442.851752 109.377264 
L 445.036238 109.696853 
L 448.52852 109.994872 
L 453.54226 110.19456 
L 460.91664 110.22122 
L 468.977642 110.01301 
L 478.182215 109.551764 
L 491.64673 108.6102 
L 509.139384 107.388086 
L 519.184987 106.888815 
L 527.878634 106.675952 
L 534.804942 106.751589 
L 542.021807 107.0878 
L 543.848028 107.203895 
L 543.848028 107.203895 
" style="fill:none;stroke:#000000;stroke-linecap:square;stroke-opacity:0.7;stroke-width:1.2;"/>
   </g>
   <g id="line2d_20">
    <path clip-path="url(#p7f080fa04d)" d="M 543.86776 67.541085 
L 534.733563 67.052717 
L 527.948827 66.476 
L 518.434272 65.421039 
L 496.105776 62.848923 
L 486.652718 62.023488 
L 478.356057 61.526054 
L 471.768138 61.351663 
L 465.742262 61.423754 
L 461.319972 61.647908 
L 456.436707 62.094249 
L 451.904461 62.734689 
L 448.767862 63.342733 
L 445.472659 64.190387 
L 443.456393 64.875368 
L 441.862689 65.580539 
L 440.710337 66.282444 
L 440.020948 66.925 
L 439.711939 67.483568 
L 439.694603 68.056832 
L 439.939599 68.541539 
L 440.422981 69.00585 
L 441.322378 69.541148 
L 442.440112 70.004108 
L 444.492604 70.614976 
L 447.291415 71.210426 
L 451.628774 71.860478 
L 457.34831 72.432024 
L 463.620491 72.822317 
L 472.11149 73.086409 
L 481.505649 73.149424 
L 492.290085 73.020614 
L 502.449001 72.681803 
L 512.507922 72.107257 
L 522.473712 71.305946 
L 529.785194 70.483324 
L 535.545869 69.579521 
L 540.618154 68.55142 
L 543.884251 67.788477 
L 543.884251 67.788477 
" style="fill:none;stroke:#000000;stroke-linecap:square;stroke-opacity:0.7;stroke-width:1.2;"/>
   </g>
   <g id="line2d_21">
    <path clip-path="url(#p7f080fa04d)" d="M 674.995683 225.842642 
L 666.150362 223.936519 
L 657.789828 222.367197 
L 648.372729 220.814271 
L 638.714462 219.449449 
L 630.693611 218.550506 
L 622.464088 217.878916 
L 615.386284 217.511903 
L 609.234332 217.378425 
L 603.089876 217.467446 
L 597.458804 217.796211 
L 592.616078 218.306322 
L 588.193182 218.986551 
L 584.115166 219.827015 
L 580.018804 220.927029 
L 576.761448 222.050065 
L 574.255495 223.147295 
L 572.958515 223.855177 
L 571.746342 224.714028 
L 571.13213 225.43668 
L 571.065652 225.891638 
L 571.25528 226.165493 
L 571.772688 226.42149 
L 572.625477 226.591946 
L 574.775489 226.684499 
L 578.705529 226.508513 
L 587.868323 225.739527 
L 598.929993 224.868376 
L 606.973432 224.466036 
L 614.559303 224.305507 
L 626.226373 224.332185 
L 650.877928 224.633602 
L 659.650102 224.961098 
L 668.400575 225.516861 
L 675.007076 226.064629 
L 675.007076 226.064629 
" style="fill:none;stroke:#000000;stroke-linecap:square;stroke-opacity:0.7;stroke-width:1.2;"/>
   </g>
   <g id="line2d_22">
    <path clip-path="url(#p7f080fa04d)" d="M 675.148667 186.228347 
L 666.116716 183.348685 
L 657.976044 180.987421 
L 648.537012 178.481805 
L 638.915946 176.118634 
L 630.350479 174.227182 
L 623.193876 172.88794 
L 617.289211 172.021302 
L 612.253261 171.506911 
L 607.570541 171.255851 
L 602.791873 171.261652 
L 598.318447 171.537449 
L 594.745312 171.967639 
L 591.436841 172.553056 
L 588.14349 173.340892 
L 584.641453 174.447649 
L 581.639195 175.674476 
L 579.037807 177.012126 
L 577.108333 178.227004 
L 575.369442 179.548749 
L 573.909367 180.902863 
L 572.631702 182.399572 
L 571.793104 183.729028 
L 571.375421 184.721724 
L 571.184349 185.840041 
L 571.27522 186.538722 
L 571.684148 187.33806 
L 572.451709 188.019337 
L 573.514206 188.542285 
L 575.04976 188.984073 
L 577.060795 189.313015 
L 580.451821 189.573729 
L 585.147434 189.654234 
L 592.403947 189.500761 
L 604.857575 188.941818 
L 632.957656 187.608094 
L 650.494573 187.020237 
L 671.926474 186.551163 
L 675.139331 186.486126 
L 675.139331 186.486126 
" style="fill:none;stroke:#000000;stroke-linecap:square;stroke-opacity:0.7;stroke-width:1.2;"/>
   </g>
   <g id="line2d_23">
    <path clip-path="url(#p7f080fa04d)" d="M 675.249121 146.597363 
L 654.762233 143.569371 
L 633.168106 140.367642 
L 623.383722 139.153461 
L 616.134638 138.444493 
L 609.85018 138.013664 
L 604.216713 137.824773 
L 599.022891 137.867344 
L 594.25349 138.136408 
L 589.749353 138.637484 
L 586.16804 139.241804 
L 582.894441 139.986572 
L 579.646403 140.949259 
L 576.604782 142.114652 
L 574.571463 143.092415 
L 572.38635 144.432723 
L 571.326677 145.295404 
L 570.594265 146.146101 
L 570.339956 146.853453 
L 570.486462 147.294369 
L 570.775511 147.540925 
L 571.324413 147.768153 
L 572.284511 147.949424 
L 573.909233 148.044331 
L 576.970066 147.974803 
L 584.090158 147.473601 
L 597.067073 146.538339 
L 604.614799 146.214071 
L 613.120578 146.081 
L 622.739377 146.164601 
L 640.061891 146.594243 
L 662.372059 147.12649 
L 669.712496 147.060608 
L 675.238443 146.860705 
L 675.238443 146.860705 
" style="fill:none;stroke:#000000;stroke-linecap:square;stroke-opacity:0.7;stroke-width:1.2;"/>
   </g>
   <g id="line2d_24">
    <path clip-path="url(#p7f080fa04d)" d="M 674.951767 107.531159 
L 666.365327 105.725196 
L 657.125264 104.035711 
L 647.504932 102.508861 
L 640.403468 101.587703 
L 634.719803 101.037334 
L 627.981266 100.620175 
L 620.479273 100.411906 
L 612.442766 100.419188 
L 605.332069 100.615802 
L 598.343518 101.033273 
L 592.860631 101.565818 
L 588.043082 102.21859 
L 583.712766 102.984606 
L 579.331894 103.980226 
L 576.084144 104.920247 
L 573.372658 105.931926 
L 571.644998 106.845936 
L 571.046361 107.395227 
L 570.929342 107.772124 
L 571.070041 108.043155 
L 571.595 108.353518 
L 572.323137 108.567053 
L 573.745511 108.79862 
L 576.962643 109.034185 
L 581.508789 109.130925 
L 589.910292 109.05217 
L 606.647884 108.606514 
L 638.193948 107.606373 
L 652.733174 107.141574 
L 660.983643 107.113662 
L 667.290946 107.299274 
L 674.953573 107.777994 
L 674.953573 107.777994 
" style="fill:none;stroke:#000000;stroke-linecap:square;stroke-opacity:0.7;stroke-width:1.2;"/>
   </g>
   <g id="line2d_25">
    <path clip-path="url(#p7f080fa04d)" d="M 675.490909 67.138941 
L 660.687536 63.843405 
L 648.705653 61.396712 
L 640.400979 59.891727 
L 633.783518 58.896313 
L 627.753215 58.202681 
L 621.942797 57.748899 
L 616.33267 57.517825 
L 610.56191 57.503455 
L 605.058639 57.720748 
L 599.565645 58.188164 
L 595.205717 58.755607 
L 590.14466 59.655736 
L 585.363951 60.777647 
L 581.121311 62.044511 
L 577.592848 63.363444 
L 574.734609 64.71661 
L 573.20009 65.645379 
L 572.141647 66.484035 
L 571.567185 67.14306 
L 571.2833 67.759911 
L 571.274312 68.244388 
L 571.546553 68.789967 
L 572.07872 69.261365 
L 573.048314 69.777665 
L 574.688162 70.349221 
L 577.608029 71.037074 
L 582.135011 71.772443 
L 587.969251 72.438244 
L 594.080642 72.924795 
L 601.170638 73.28289 
L 609.929403 73.469494 
L 618.00407 73.41095 
L 624.537574 73.177133 
L 630.590687 72.761347 
L 636.874484 72.077277 
L 643.004105 71.172219 
L 653.654373 69.306062 
L 662.048465 67.925124 
L 666.897321 67.369949 
L 670.098817 67.197062 
L 673.113131 67.22587 
L 675.487172 67.395131 
L 675.487172 67.395131 
" style="fill:none;stroke:#000000;stroke-linecap:square;stroke-opacity:0.7;stroke-width:1.2;"/>
   </g>
  </g>
 </g>
 <defs>
  <clipPath id="p7f080fa04d">
   <rect height="262.08" width="694.08" x="12.96" y="12.96"/>
  </clipPath>
 </defs>
</svg>
