<?xml version="1.0" encoding="utf-8" standalone="no"?>
<!DOCTYPE svg PUBLIC "-//W3C//DTD SVG 1.1//EN"
  "http://www.w3.org/Graphics/SVG/1.1/DTD/svg11.dtd">
<!-- Created with matplotlib (https://matplotlib.org/) -->
<svg height="288pt" version="1.1" viewBox="0 0 720 288" width="720pt" xmlns="http://www.w3.org/2000/svg" xmlns:xlink="http://www.w3.org/1999/xlink">
 <metadata>
  <rdf:RDF xmlns:cc="http://creativecommons.org/ns#" xmlns:dc="http://purl.org/dc/elements/1.1/" xmlns:rdf="http://www.w3.org/1999/02/22-rdf-syntax-ns#">
   <cc:Work>
    <dc:type rdf:resource="http://purl.org/dc/dcmitype/StillImage"/>
    <dc:date>2021-05-05T23:04:45.360129</dc:date>
    <dc:format>image/svg+xml</dc:format>
    <dc:creator>
     <cc:Agent>
      <dc:title>Matplotlib v3.3.4, https://matplotlib.org/</dc:title>
     </cc:Agent>
    </dc:creator>
   </cc:Work>
  </rdf:RDF>
 </metadata>
 <defs>
  <style type="text/css">*{stroke-linecap:butt;stroke-linejoin:round;}</style>
 </defs>
 <g id="figure_1">
  <g id="patch_1">
   <path d="M 0 288 
L 720 288 
L 720 0 
L 0 0 
z
" style="fill:#ffffff;"/>
  </g>
  <g id="axes_1">
   <g id="line2d_1">
    <path clip-path="url(#pbd90d69311)" d="M 151.745824 226.724758 
L 148.738296 226.346313 
L 144.829256 225.642594 
L 138.58033 224.192543 
L 125.374836 220.993487 
L 118.581523 219.628471 
L 113.006373 218.693565 
L 107.091066 217.885349 
L 100.75609 217.248057 
L 95.225127 216.920423 
L 90.142797 216.840776 
L 86.525746 216.925182 
L 80.976779 217.288976 
L 76.014267 217.85129 
L 70.776227 218.683338 
L 66.023657 219.657428 
L 61.280264 220.866224 
L 58.074396 221.848981 
L 53.898746 223.407882 
L 51.453324 224.542293 
L 49.320533 225.777031 
L 48.038281 226.760479 
L 47.547066 227.261885 
L 47.014664 228.138581 
L 46.972982 228.774133 
L 47.249382 229.279474 
L 47.93095 229.758174 
L 48.873595 230.092874 
L 49.336933 230.200211 
L 52.274143 230.497632 
L 55.335985 230.466992 
L 60.249335 230.097172 
L 67.467969 229.253327 
L 77.605239 228.062004 
L 84.859203 227.458877 
L 92.272059 227.105387 
L 101.214432 226.943561 
L 132.125278 226.652426 
L 142.421015 226.116154 
L 151.76691 225.529102 
L 151.76691 225.529102 
" style="fill:none;stroke:#000000;stroke-linecap:square;stroke-opacity:0.7;stroke-width:1.2;"/>
   </g>
   <g id="line2d_2">
    <path clip-path="url(#pbd90d69311)" d="M 152.247415 185.084821 
L 145.838228 183.7293 
L 140.046544 182.723305 
L 133.938036 181.899671 
L 126.528024 181.150465 
L 117.181038 180.466209 
L 98.432719 179.416509 
L 87.48932 178.937064 
L 81.821989 178.914057 
L 76.034776 179.162797 
L 71.611748 179.567971 
L 67.909278 180.062675 
L 63.712919 180.810115 
L 59.799587 181.71073 
L 56.162945 182.766446 
L 53.323192 183.794434 
L 50.658255 185.032551 
L 49.127012 185.995606 
L 48.243972 186.787137 
L 47.834668 187.373288 
L 47.665363 188.08361 
L 47.859723 188.680201 
L 48.28642 189.149756 
L 49.035942 189.623745 
L 50.520303 190.188437 
L 52.933301 190.726549 
L 55.214149 191.03917 
L 58.915822 191.333638 
L 64.500289 191.495599 
L 70.617076 191.452735 
L 82.148777 191.085179 
L 122.870796 189.439194 
L 129.308556 188.925661 
L 135.004759 188.245313 
L 139.533368 187.490845 
L 143.84059 186.569689 
L 148.482996 185.353671 
L 152.225487 184.217526 
L 152.225487 184.217526 
" style="fill:none;stroke:#000000;stroke-linecap:square;stroke-opacity:0.7;stroke-width:1.2;"/>
   </g>
   <g id="line2d_3">
    <path clip-path="url(#pbd90d69311)" d="M 151.961166 148.38212 
L 144.727337 145.418704 
L 137.89862 142.865993 
L 130.596291 140.387888 
L 122.853497 138.014465 
L 116.50619 136.268869 
L 110.333624 134.768173 
L 104.138781 133.489933 
L 98.797542 132.600543 
L 93.592859 131.954005 
L 88.429681 131.564144 
L 84.2159 131.463255 
L 79.93871 131.591951 
L 75.910217 131.954465 
L 71.76912 132.600479 
L 69.135284 133.16938 
L 65.358605 134.21921 
L 61.379779 135.652025 
L 58.273574 137.030376 
L 55.751342 138.338594 
L 52.571099 140.270101 
L 50.271873 141.909019 
L 47.710878 144.081902 
L 45.984 145.92667 
L 45.114024 147.159437 
L 44.572893 148.417313 
L 44.509091 149.037421 
L 44.66617 149.637237 
L 44.930194 149.994277 
L 45.684876 150.466884 
L 46.401939 150.681688 
L 47.140859 150.80042 
L 49.041002 150.867402 
L 51.633802 150.686547 
L 55.494358 150.154694 
L 60.572129 149.248057 
L 77.328179 146.120386 
L 83.862589 145.197108 
L 88.945349 144.69829 
L 94.215007 144.405809 
L 100.296527 144.324092 
L 107.677352 144.506117 
L 115.855079 144.954623 
L 127.208144 145.82341 
L 151.99199 147.890511 
L 151.99199 147.890511 
" style="fill:none;stroke:#000000;stroke-linecap:square;stroke-opacity:0.7;stroke-width:1.2;"/>
   </g>
   <g id="line2d_4">
    <path clip-path="url(#pbd90d69311)" d="M 151.739086 110.201319 
L 144.425322 108.149038 
L 137.24857 106.392222 
L 130.28754 104.938525 
L 122.469633 103.557895 
L 114.34557 102.360072 
L 106.606974 101.423892 
L 99.776457 100.779715 
L 93.533662 100.382009 
L 87.25768 100.223892 
L 82.67779 100.295611 
L 77.145839 100.623711 
L 72.445584 101.129362 
L 67.708436 101.867344 
L 63.795788 102.665586 
L 59.400997 103.796335 
L 55.379732 105.110747 
L 52.668016 106.232905 
L 50.979511 107.114905 
L 49.47846 108.20821 
L 49.073601 108.668207 
L 48.796044 109.232944 
L 48.797926 109.770866 
L 49.078766 110.263593 
L 49.577023 110.681848 
L 50.352789 111.089941 
L 51.665029 111.546935 
L 54.133214 112.096006 
L 57.995161 112.620356 
L 62.720746 113.017441 
L 71.350665 113.474318 
L 99.243461 114.636931 
L 106.591502 114.622866 
L 113.64656 114.388188 
L 120.917689 113.926339 
L 127.952552 113.279464 
L 135.483118 112.354582 
L 142.310038 111.278483 
L 151.740315 109.530439 
L 151.740315 109.530439 
" style="fill:none;stroke:#000000;stroke-linecap:square;stroke-opacity:0.7;stroke-width:1.2;"/>
   </g>
   <g id="line2d_5">
    <path clip-path="url(#pbd90d69311)" d="M 151.544125 69.632818 
L 146.743335 68.64317 
L 140.490298 67.08261 
L 121.080783 61.92833 
L 116.582843 61.005501 
L 111.170394 60.137326 
L 105.991872 59.546533 
L 99.997411 59.112558 
L 93.188102 58.880413 
L 86.047926 58.890296 
L 80.022522 59.115164 
L 75.152982 59.482269 
L 69.904952 60.121481 
L 66.57584 60.690859 
L 62.072851 61.712565 
L 58.931999 62.632912 
L 55.386986 63.929064 
L 52.239631 65.380282 
L 50.225598 66.524362 
L 48.691337 67.58335 
L 47.266366 68.884723 
L 46.871617 69.396192 
L 46.521967 70.124714 
L 46.47661 70.633215 
L 46.64983 71.103517 
L 46.931887 71.411651 
L 47.572926 71.784159 
L 49.063844 72.176411 
L 51.932668 72.377097 
L 54.378884 72.323647 
L 58.601077 72.01072 
L 65.527058 71.210513 
L 79.830309 69.226586 
L 89.43563 68.023611 
L 96.37762 67.377805 
L 103.29971 66.947164 
L 112.372792 66.630946 
L 122.368475 66.525322 
L 130.89339 66.656903 
L 137.643994 66.979187 
L 143.522443 67.494431 
L 148.897672 68.228238 
L 151.631402 68.726922 
L 151.631402 68.726922 
" style="fill:none;stroke:#000000;stroke-linecap:square;stroke-opacity:0.7;stroke-width:1.2;"/>
   </g>
   <g id="line2d_6">
    <path clip-path="url(#pbd90d69311)" d="M 281.567665 226.942757 
L 268.729558 223.443177 
L 262.990328 222.168671 
L 258.111861 221.288378 
L 252.468774 220.497626 
L 246.080386 219.856049 
L 238.1663 219.330613 
L 227.659421 218.901434 
L 218.542797 218.728186 
L 212.669912 218.799622 
L 207.74873 219.049705 
L 202.817306 219.527642 
L 199.618174 219.975626 
L 195.077411 220.812367 
L 190.867798 221.814104 
L 187.011724 222.949535 
L 183.151926 224.365062 
L 180.447499 225.655243 
L 179.005698 226.608436 
L 178.378561 227.237302 
L 178.105583 227.769598 
L 178.091687 228.143804 
L 178.308142 228.575031 
L 178.725417 228.929221 
L 179.872559 229.442854 
L 181.08907 229.768272 
L 183.949052 230.230603 
L 187.688296 230.572352 
L 194.756562 230.92381 
L 209.844276 231.363048 
L 218.786502 231.477105 
L 225.006786 231.365913 
L 231.292893 231.018301 
L 237.70272 230.398849 
L 244.560895 229.463343 
L 252.627195 228.102884 
L 262.717804 226.396033 
L 267.995718 225.77094 
L 272.612721 225.512111 
L 276.734066 225.549349 
L 280.943667 225.855964 
L 281.608072 225.929164 
L 281.608072 225.929164 
" style="fill:none;stroke:#000000;stroke-linecap:square;stroke-opacity:0.7;stroke-width:1.2;"/>
   </g>
   <g id="line2d_7">
    <path clip-path="url(#pbd90d69311)" d="M 283.034378 184.677602 
L 274.566945 181.048245 
L 269.282125 179.043631 
L 264.031373 177.292943 
L 258.807746 175.800556 
L 253.787671 174.613182 
L 248.590901 173.634348 
L 242.495619 172.767851 
L 236.148424 172.129878 
L 229.602042 171.725147 
L 223.622609 171.591836 
L 217.830882 171.709953 
L 212.556099 172.063952 
L 207.753755 172.621278 
L 202.544307 173.515776 
L 199.391868 174.222638 
L 195.832101 175.190654 
L 192.156482 176.405047 
L 188.924816 177.684659 
L 185.422336 179.352573 
L 183.252982 180.583705 
L 180.475612 182.526605 
L 179.17231 183.71641 
L 178.29246 184.774963 
L 177.802238 185.620047 
L 177.491171 186.709725 
L 177.55011 187.585827 
L 177.735481 188.097336 
L 178.2692 188.871034 
L 178.708996 189.290072 
L 179.328767 189.743197 
L 180.946462 190.565847 
L 182.751805 191.181083 
L 186.047526 191.902117 
L 187.953879 192.175385 
L 192.39688 192.556452 
L 196.736712 192.691643 
L 201.213621 192.6637 
L 208.707098 192.35534 
L 217.418009 191.72662 
L 229.902381 190.554369 
L 248.807547 188.529778 
L 272.949035 185.695805 
L 282.898802 184.516135 
L 282.898802 184.516135 
" style="fill:none;stroke:#000000;stroke-linecap:square;stroke-opacity:0.7;stroke-width:1.2;"/>
   </g>
   <g id="line2d_8">
    <path clip-path="url(#pbd90d69311)" d="M 282.737835 146.452273 
L 252.241017 143.231501 
L 245.802939 142.883166 
L 237.034272 142.647591 
L 206.83372 142.264435 
L 200.709883 142.464053 
L 195.836108 142.873245 
L 191.348329 143.517498 
L 187.587492 144.315154 
L 184.201948 145.308515 
L 182.062551 146.13584 
L 180.017045 147.187033 
L 178.97891 147.936748 
L 178.327518 148.660164 
L 178.086696 149.329177 
L 178.175446 149.782082 
L 178.43085 150.133806 
L 179.088444 150.580229 
L 179.788301 150.859643 
L 181.179417 151.196672 
L 183.005495 151.433232 
L 185.725321 151.571718 
L 189.302888 151.543875 
L 194.529289 151.271837 
L 202.96585 150.558158 
L 231.30926 147.954264 
L 240.659091 147.342735 
L 249.750815 146.958073 
L 262.573038 146.68943 
L 270.854013 146.420982 
L 276.09678 146.078552 
L 282.536423 145.420308 
L 282.7672 145.392047 
L 282.7672 145.392047 
" style="fill:none;stroke:#000000;stroke-linecap:square;stroke-opacity:0.7;stroke-width:1.2;"/>
   </g>
   <g id="line2d_9">
    <path clip-path="url(#pbd90d69311)" d="M 281.703846 108.348614 
L 276.623706 106.722943 
L 272.047372 105.456427 
L 267.718764 104.450196 
L 262.221166 103.424334 
L 255.962284 102.553452 
L 250.105838 101.967791 
L 242.86131 101.468747 
L 235.159296 101.135766 
L 226.506975 100.971321 
L 219.917631 101.027764 
L 213.434829 101.298425 
L 208.055885 101.731183 
L 202.853324 102.35888 
L 198.207527 103.108134 
L 192.456695 104.301786 
L 187.857146 105.498505 
L 183.395333 106.939585 
L 180.462658 108.159084 
L 178.927483 109.023605 
L 178.159649 109.685484 
L 177.910851 110.182749 
L 177.975397 110.527222 
L 178.390513 110.909726 
L 179.306224 111.259222 
L 180.532904 111.497581 
L 181.638865 111.623085 
L 185.937419 111.777779 
L 191.28548 111.649809 
L 198.769595 111.225788 
L 217.055085 109.857883 
L 228.359258 109.146902 
L 249.03662 108.162522 
L 264.829045 107.481916 
L 271.825492 107.408615 
L 278.520267 107.580394 
L 281.610754 107.736603 
L 281.610754 107.736603 
" style="fill:none;stroke:#000000;stroke-linecap:square;stroke-opacity:0.7;stroke-width:1.2;"/>
   </g>
   <g id="line2d_10">
    <path clip-path="url(#pbd90d69311)" d="M 282.021538 70.224973 
L 260.840788 63.418363 
L 254.132587 61.679957 
L 247.319018 60.162619 
L 241.634044 59.074932 
L 234.287042 57.897322 
L 227.613431 57.067033 
L 221.833005 56.583421 
L 217.114794 56.410344 
L 212.593265 56.493402 
L 208.221842 56.86421 
L 204.507672 57.44296 
L 201.116169 58.205685 
L 197.31422 59.343723 
L 194.136538 60.535487 
L 191.817007 61.551867 
L 188.642199 63.16617 
L 186.198862 64.622663 
L 184.370211 65.882648 
L 182.897895 67.061009 
L 181.710564 68.197285 
L 180.603191 69.598438 
L 179.98807 70.940024 
L 179.892802 72.02418 
L 180.147081 72.891778 
L 180.67505 73.649342 
L 181.373978 74.267993 
L 182.404481 74.898846 
L 183.582441 75.425234 
L 185.762631 76.122717 
L 188.836727 76.785989 
L 193.00504 77.373334 
L 197.943145 77.815523 
L 205.0509 78.180875 
L 212.375634 78.307628 
L 218.888537 78.176422 
L 225.680483 77.765251 
L 231.967732 77.143208 
L 238.414145 76.284295 
L 246.077591 75.006803 
L 257.787114 72.735174 
L 265.870252 71.28931 
L 272.029274 70.439752 
L 278.601805 69.789798 
L 282.058694 69.523476 
L 282.058694 69.523476 
" style="fill:none;stroke:#000000;stroke-linecap:square;stroke-opacity:0.7;stroke-width:1.2;"/>
   </g>
   <g id="line2d_11">
    <path clip-path="url(#pbd90d69311)" d="M 413.697586 224.42974 
L 408.494709 222.722404 
L 403.49217 221.315528 
L 398.298613 220.118044 
L 391.703299 218.885967 
L 384.753792 217.830085 
L 376.52431 216.827431 
L 369.041007 216.141531 
L 362.751095 215.742846 
L 356.417192 215.520652 
L 350.696549 215.507542 
L 345.890278 215.677255 
L 341.270524 216.038079 
L 336.49009 216.653065 
L 331.754671 217.533133 
L 327.537604 218.561758 
L 323.728984 219.704568 
L 319.647267 221.185933 
L 316.338599 222.639481 
L 313.90583 223.93944 
L 312.15442 225.123082 
L 310.962456 226.273658 
L 310.547382 226.972081 
L 310.425708 227.598146 
L 310.553925 228.13434 
L 310.886154 228.605973 
L 311.427724 229.046817 
L 312.264343 229.492954 
L 314.068892 230.105843 
L 316.113985 230.55339 
L 319.068632 230.978807 
L 323.446325 231.348855 
L 329.609535 231.569933 
L 337.213839 231.553909 
L 346.941454 231.271716 
L 357.297157 230.76259 
L 366.730912 230.079762 
L 375.351438 229.241351 
L 385.413705 228.029809 
L 404.188217 225.479131 
L 413.659862 224.111702 
L 413.659862 224.111702 
" style="fill:none;stroke:#000000;stroke-linecap:square;stroke-opacity:0.7;stroke-width:1.2;"/>
   </g>
   <g id="line2d_12">
    <path clip-path="url(#pbd90d69311)" d="M 413.398012 187.225521 
L 410.557434 186.147108 
L 407.356761 185.120006 
L 403.284202 184.112455 
L 398.831915 183.32009 
L 394.505872 182.763161 
L 388.025671 182.160381 
L 354.023262 179.594212 
L 347.625476 179.345127 
L 342.159604 179.381177 
L 338.275393 179.563672 
L 332.35386 180.096192 
L 328.100361 180.668825 
L 322.880116 181.600665 
L 318.594787 182.584654 
L 314.983512 183.624106 
L 312.192718 184.657435 
L 310.869251 185.309441 
L 309.951054 185.993675 
L 309.735164 186.390696 
L 309.771988 186.624343 
L 310.40834 187.063879 
L 310.927486 187.211953 
L 313.740863 187.522444 
L 318.968462 187.596594 
L 328.896289 187.645886 
L 334.997551 187.897583 
L 342.506033 188.437414 
L 360.201742 189.808382 
L 371.946497 190.443128 
L 381.744249 190.758687 
L 388.710826 190.765845 
L 393.718031 190.552101 
L 398.477379 190.079413 
L 402.032239 189.505292 
L 404.578844 188.963287 
L 408.583615 187.883661 
L 412.682332 186.504186 
L 413.404437 186.234705 
L 413.404437 186.234705 
" style="fill:none;stroke:#000000;stroke-linecap:square;stroke-opacity:0.7;stroke-width:1.2;"/>
   </g>
   <g id="line2d_13">
    <path clip-path="url(#pbd90d69311)" d="M 413.692203 149.087471 
L 409.390807 147.646741 
L 403.525322 145.940075 
L 398.656419 144.768215 
L 393.13945 143.677409 
L 386.941132 142.704461 
L 380.540847 141.936516 
L 373.879198 141.356926 
L 366.785156 140.965627 
L 360.349854 140.830936 
L 353.932538 140.940314 
L 347.601511 141.273982 
L 339.363242 141.961982 
L 331.555365 142.830692 
L 324.770629 143.797226 
L 319.742785 144.728646 
L 315.449509 145.78882 
L 312.792753 146.653274 
L 311.565068 147.13558 
L 308.635194 148.650086 
L 307.638195 149.389494 
L 306.756455 150.318034 
L 306.423646 150.888659 
L 306.252738 151.585059 
L 306.379028 152.27845 
L 306.702647 152.787852 
L 307.114355 153.17577 
L 308.457985 153.915586 
L 310.829752 154.59153 
L 313.475382 154.983874 
L 316.629217 155.212169 
L 320.23279 155.298881 
L 330.128629 155.153751 
L 347.021189 154.849144 
L 356.989338 154.628839 
L 364.168679 154.243193 
L 370.463333 153.708723 
L 379.263467 152.727176 
L 399.82599 150.102081 
L 408.642007 148.812819 
L 413.639905 147.89834 
L 413.639905 147.89834 
" style="fill:none;stroke:#000000;stroke-linecap:square;stroke-opacity:0.7;stroke-width:1.2;"/>
   </g>
   <g id="line2d_14">
    <path clip-path="url(#pbd90d69311)" d="M 413.838291 106.557766 
L 406.786833 104.881405 
L 401.185175 103.811066 
L 395.355212 102.956362 
L 389.087359 102.279152 
L 381.051322 101.668761 
L 371.708759 101.1985 
L 362.55401 100.950753 
L 354.92238 100.93797 
L 347.153855 101.144235 
L 340.482399 101.518767 
L 333.280529 102.166622 
L 327.594963 102.920085 
L 323.216531 103.717929 
L 320.179018 104.438322 
L 317.3789 105.284612 
L 314.453487 106.470635 
L 312.788494 107.391693 
L 311.66574 108.216952 
L 310.933129 108.950019 
L 310.450157 109.66497 
L 310.168067 110.70339 
L 310.338149 111.525099 
L 310.77304 112.175475 
L 311.645788 112.884234 
L 312.759046 113.444804 
L 314.401609 113.980767 
L 316.530955 114.412194 
L 319.783106 114.761519 
L 323.442488 114.903078 
L 329.50741 114.839516 
L 338.444682 114.465401 
L 349.390108 113.801584 
L 358.818017 113.016993 
L 367.708205 112.062658 
L 383.339439 110.096767 
L 404.60076 107.29378 
L 412.455592 106.0024 
L 413.844323 105.749979 
L 413.844323 105.749979 
" style="fill:none;stroke:#000000;stroke-linecap:square;stroke-opacity:0.7;stroke-width:1.2;"/>
   </g>
   <g id="line2d_15">
    <path clip-path="url(#pbd90d69311)" d="M 413.446965 70.580921 
L 408.347505 69.586745 
L 401.297045 67.951056 
L 383.391175 63.628557 
L 378.415712 62.682322 
L 373.842559 61.989362 
L 368.407602 61.394632 
L 363.019521 61.026713 
L 356.975398 60.819959 
L 349.372028 60.771044 
L 341.05438 60.941473 
L 335.427025 61.248836 
L 330.746621 61.680893 
L 325.656185 62.389641 
L 320.926031 63.33072 
L 317.383882 64.263253 
L 313.842135 65.461043 
L 310.947785 66.746886 
L 310.037569 67.249195 
L 308.225172 68.580319 
L 307.601862 69.399206 
L 307.459431 69.86171 
L 307.54007 70.394051 
L 307.754178 70.71558 
L 308.415328 71.1993 
L 309.356124 71.568988 
L 310.718394 71.879455 
L 312.689093 72.117357 
L 315.861167 72.241446 
L 320.217906 72.136657 
L 326.451054 71.677508 
L 333.189369 70.930171 
L 342.031829 69.715339 
L 354.524664 67.98621 
L 361.15186 67.318851 
L 367.316711 66.905226 
L 375.066131 66.616324 
L 383.363177 66.556405 
L 389.106992 66.69127 
L 395.216654 67.042341 
L 400.886362 67.586909 
L 407.111936 68.423941 
L 412.71471 69.411213 
L 413.564649 69.587702 
L 413.564649 69.587702 
" style="fill:none;stroke:#000000;stroke-linecap:square;stroke-opacity:0.7;stroke-width:1.2;"/>
   </g>
   <g id="line2d_16">
    <path clip-path="url(#pbd90d69311)" d="M 544.223734 225.0585 
L 535.579052 222.906498 
L 529.983827 221.776856 
L 524.245651 220.878985 
L 518.36125 220.208505 
L 512.118844 219.723259 
L 503.867565 219.333525 
L 493.973009 219.109488 
L 484.08623 219.096471 
L 475.584407 219.314878 
L 469.242303 219.692791 
L 463.992189 220.191969 
L 458.729612 220.899503 
L 453.555428 221.838439 
L 448.997548 222.913607 
L 445.504059 223.948859 
L 442.611147 225.025894 
L 441.010805 225.786047 
L 439.662179 226.671933 
L 439.103274 227.314549 
L 438.980229 227.667594 
L 439.019608 228.038633 
L 439.228038 228.371066 
L 439.95993 228.888402 
L 441.215436 229.361777 
L 443.366864 229.841648 
L 447.38672 230.339524 
L 452.186624 230.639054 
L 458.346113 230.783834 
L 466.524913 230.725441 
L 475.033905 230.443928 
L 483.681354 229.95695 
L 495.044735 229.06399 
L 509.713711 227.659709 
L 531.877187 225.482388 
L 539.997252 224.94221 
L 544.151024 224.75678 
L 544.151024 224.75678 
" style="fill:none;stroke:#000000;stroke-linecap:square;stroke-opacity:0.7;stroke-width:1.2;"/>
   </g>
   <g id="line2d_17">
    <path clip-path="url(#pbd90d69311)" d="M 544.529972 184.987831 
L 526.844535 182.687703 
L 518.319065 181.852396 
L 508.608665 181.130269 
L 498.160058 180.585118 
L 486.510634 180.179406 
L 478.432209 180.062634 
L 473.115169 180.164856 
L 467.944901 180.475892 
L 463.342526 180.959697 
L 458.973369 181.613432 
L 453.971222 182.610691 
L 449.747575 183.687825 
L 446.385787 184.745422 
L 443.421641 185.918805 
L 441.837834 186.743205 
L 440.949741 187.378598 
L 440.490423 187.899492 
L 440.348878 188.269669 
L 440.430545 188.695702 
L 440.666481 188.974534 
L 441.359039 189.376465 
L 442.965236 189.836029 
L 445.524667 190.196839 
L 449.382943 190.430108 
L 454.222994 190.476902 
L 460.545499 190.308652 
L 469.983062 189.78837 
L 481.240031 189.168009 
L 487.962041 188.983739 
L 498.598696 188.939116 
L 511.736153 188.870652 
L 518.721564 188.590847 
L 524.572881 188.114001 
L 529.490832 187.507481 
L 535.542158 186.515435 
L 543.638353 184.918487 
L 544.514619 184.738444 
L 544.514619 184.738444 
" style="fill:none;stroke:#000000;stroke-linecap:square;stroke-opacity:0.7;stroke-width:1.2;"/>
   </g>
   <g id="line2d_18">
    <path clip-path="url(#pbd90d69311)" d="M 543.833226 147.435345 
L 539.936208 146.754577 
L 533.953013 145.472801 
L 523.035985 143.11231 
L 517.315371 142.107556 
L 510.803672 141.223263 
L 504.927481 140.651998 
L 497.523614 140.201456 
L 490.191263 140.01683 
L 483.40252 140.071679 
L 476.453277 140.38066 
L 471.189297 140.819082 
L 465.848962 141.479057 
L 460.188647 142.455765 
L 454.833891 143.690559 
L 450.346085 145.009846 
L 446.70421 146.325492 
L 443.850732 147.569498 
L 441.392813 148.885475 
L 439.856735 149.946185 
L 439.143126 150.606199 
L 438.767805 151.092869 
L 438.571082 152.072703 
L 438.900071 152.53957 
L 439.401624 152.853051 
L 440.385933 153.181319 
L 441.617164 153.396561 
L 443.50975 153.543706 
L 446.464376 153.558537 
L 450.682855 153.362616 
L 468.295545 152.209503 
L 474.35964 152.126213 
L 493.565651 152.063124 
L 500.238704 151.731367 
L 507.077701 151.170802 
L 513.950431 150.416325 
L 543.303549 146.929105 
L 543.870533 146.882222 
L 543.870533 146.882222 
" style="fill:none;stroke:#000000;stroke-linecap:square;stroke-opacity:0.7;stroke-width:1.2;"/>
   </g>
   <g id="line2d_19">
    <path clip-path="url(#pbd90d69311)" d="M 544.721134 108.008744 
L 538.551868 106.587168 
L 533.22175 105.618906 
L 527.652489 104.85033 
L 520.2912 104.079819 
L 510.773496 103.331098 
L 501.916011 102.836025 
L 494.238185 102.589082 
L 486.68736 102.553468 
L 478.984024 102.750456 
L 470.988649 103.193427 
L 463.551514 103.833711 
L 457.087077 104.613913 
L 452.779898 105.292592 
L 448.183656 106.230682 
L 444.872947 107.149736 
L 443.020834 107.871993 
L 441.963252 108.515731 
L 441.653827 108.88639 
L 441.615027 109.240006 
L 441.905227 109.592966 
L 442.692395 109.948145 
L 444.208286 110.270989 
L 446.901598 110.519633 
L 451.121827 110.597228 
L 456.939643 110.430008 
L 469.107728 109.749324 
L 477.57853 109.406729 
L 488.349273 109.275238 
L 502.734595 109.083992 
L 519.124842 108.597566 
L 535.390761 107.965122 
L 544.559886 107.363499 
L 544.669054 107.354663 
L 544.669054 107.354663 
" style="fill:none;stroke:#000000;stroke-linecap:square;stroke-opacity:0.7;stroke-width:1.2;"/>
   </g>
   <g id="line2d_20">
    <path clip-path="url(#pbd90d69311)" d="M 544.886567 68.511336 
L 541.175513 67.09551 
L 536.917101 65.694946 
L 532.484285 64.480296 
L 527.003662 63.241484 
L 520.191234 61.975625 
L 503.144062 59.22043 
L 494.932803 57.962716 
L 489.661274 57.382754 
L 484.516739 57.082737 
L 480.406961 57.029302 
L 475.521023 57.147275 
L 469.149439 57.534307 
L 462.361962 58.18853 
L 456.585002 58.988679 
L 452.909584 59.720105 
L 449.959208 60.560088 
L 447.56403 61.536369 
L 446.246236 62.249364 
L 444.421409 63.55531 
L 443.838557 64.084185 
L 442.22457 66.047993 
L 441.232718 68.113032 
L 440.875836 69.645357 
L 440.826459 71.237403 
L 441.050382 72.584174 
L 441.598592 74.033984 
L 442.340813 75.228961 
L 442.950339 75.951338 
L 445.230769 77.732934 
L 446.882046 78.535725 
L 448.915346 79.200906 
L 450.226674 79.493012 
L 452.574957 79.815961 
L 454.819664 79.938698 
L 458.230914 79.868621 
L 459.80534 79.755262 
L 465.148199 79.095081 
L 467.943257 78.622595 
L 474.149957 77.370312 
L 492.322827 73.425933 
L 497.835086 72.566708 
L 503.056935 71.978217 
L 508.823583 71.532781 
L 526.884119 70.402798 
L 532.944677 69.68925 
L 537.876153 68.864265 
L 543.634392 67.635797 
L 544.826721 67.354583 
L 544.826721 67.354583 
" style="fill:none;stroke:#000000;stroke-linecap:square;stroke-opacity:0.7;stroke-width:1.2;"/>
   </g>
   <g id="line2d_21">
    <path clip-path="url(#pbd90d69311)" d="M 674.828157 226.80834 
L 663.586438 224.045075 
L 656.954578 222.605436 
L 651.190956 221.536495 
L 646.132033 220.777575 
L 641.011311 220.208703 
L 635.856489 219.849595 
L 630.299269 219.681996 
L 623.17755 219.693224 
L 601.327778 220.070523 
L 594.926077 220.470863 
L 589.336292 221.090549 
L 584.270549 221.944154 
L 579.925454 222.970333 
L 576.898352 223.912686 
L 574.910013 224.694602 
L 572.941717 225.74017 
L 572.124382 226.429116 
L 571.940776 226.679193 
L 571.7963 227.20807 
L 571.963156 227.612056 
L 572.405836 227.986857 
L 573.126967 228.322963 
L 574.843719 228.772882 
L 576.292557 229.003517 
L 579.872351 229.327792 
L 584.994962 229.500707 
L 591.542821 229.486249 
L 614.09825 229.228744 
L 639.190517 229.334026 
L 647.843927 229.085909 
L 654.250275 228.716459 
L 660.814434 228.122143 
L 667.96113 227.223788 
L 674.829492 226.19637 
L 674.829492 226.19637 
" style="fill:none;stroke:#000000;stroke-linecap:square;stroke-opacity:0.7;stroke-width:1.2;"/>
   </g>
   <g id="line2d_22">
    <path clip-path="url(#pbd90d69311)" d="M 675.114113 186.875894 
L 668.92443 185.192499 
L 663.925671 184.075703 
L 658.166247 183.064165 
L 652.773163 182.321025 
L 645.189638 181.51968 
L 637.244397 180.928839 
L 629.911431 180.589712 
L 621.203481 180.405994 
L 607.378364 180.382713 
L 598.459689 180.569167 
L 592.483876 180.907581 
L 588.248687 181.318069 
L 584.168508 181.910907 
L 580.161977 182.781034 
L 577.420308 183.653572 
L 576.072092 184.22945 
L 574.432177 185.193716 
L 573.369821 186.238286 
L 572.990462 187.054088 
L 572.94431 187.590412 
L 573.054459 188.116858 
L 573.469176 188.849201 
L 574.064903 189.464484 
L 574.414633 189.743551 
L 576.306657 190.828387 
L 577.85446 191.454355 
L 581.100775 192.410377 
L 583.897031 193.00435 
L 587.649374 193.5924 
L 592.474763 194.109661 
L 598.910324 194.520194 
L 605.853942 194.713452 
L 613.537267 194.681973 
L 620.973182 194.433213 
L 628.520579 193.986487 
L 635.76127 193.386519 
L 644.5844 192.414446 
L 651.845285 191.373145 
L 658.509567 190.184174 
L 665.363319 188.725293 
L 674.996286 186.418421 
L 674.996286 186.418421 
" style="fill:none;stroke:#000000;stroke-linecap:square;stroke-opacity:0.7;stroke-width:1.2;"/>
   </g>
   <g id="line2d_23">
    <path clip-path="url(#pbd90d69311)" d="M 674.546974 148.292081 
L 670.160953 146.820853 
L 665.718766 145.597215 
L 661.731862 144.700978 
L 656.603174 143.766828 
L 650.664653 142.91134 
L 642.484705 141.988018 
L 628.353504 140.672586 
L 617.91555 139.829842 
L 612.417396 139.616134 
L 607.905197 139.675011 
L 602.67089 140.034168 
L 597.242001 140.708429 
L 592.717464 141.478146 
L 587.761215 142.523588 
L 582.498837 143.873201 
L 578.649561 145.047664 
L 575.392389 146.222527 
L 572.680254 147.451809 
L 571.627219 148.09942 
L 570.95136 148.772206 
L 570.856378 149.123956 
L 571.02504 149.454578 
L 571.356079 149.678148 
L 572.322198 149.986963 
L 574.315047 150.25705 
L 577.971568 150.407315 
L 583.444837 150.359517 
L 592.295547 150.021158 
L 615.864659 148.945514 
L 622.094937 149.080589 
L 629.578979 149.511174 
L 643.95417 150.408768 
L 648.422901 150.512731 
L 653.840927 150.431501 
L 658.136814 150.176197 
L 662.697108 149.705219 
L 667.337781 149.01905 
L 672.967905 147.947652 
L 674.491083 147.62201 
L 674.491083 147.62201 
" style="fill:none;stroke:#000000;stroke-linecap:square;stroke-opacity:0.7;stroke-width:1.2;"/>
   </g>
   <g id="line2d_24">
    <path clip-path="url(#pbd90d69311)" d="M 675.32706 108.627369 
L 666.381069 107.230202 
L 652.861869 105.113846 
L 645.247713 104.158791 
L 637.84636 103.470832 
L 631.622895 103.096727 
L 623.99357 102.890194 
L 615.542463 102.910183 
L 605.314473 103.166545 
L 598.479449 103.53954 
L 592.547168 104.062494 
L 586.356896 104.871977 
L 582.103985 105.634742 
L 577.940809 106.609242 
L 574.664294 107.616344 
L 573.144572 108.202505 
L 571.296036 109.120918 
L 570.2155 109.954281 
L 569.940978 110.337699 
L 569.881308 110.98286 
L 570.251435 111.446083 
L 571.04327 111.87192 
L 572.086349 112.193705 
L 574.316158 112.584871 
L 577.105596 112.836601 
L 581.834098 113.000147 
L 590.402802 112.958554 
L 601.792512 112.879321 
L 621.026231 113.006543 
L 628.268997 112.692678 
L 633.993454 112.252322 
L 641.798584 111.420442 
L 670.656306 108.032658 
L 675.395927 107.668934 
L 675.395927 107.668934 
" style="fill:none;stroke:#000000;stroke-linecap:square;stroke-opacity:0.7;stroke-width:1.2;"/>
   </g>
   <g id="line2d_25">
    <path clip-path="url(#pbd90d69311)" d="M 675.473117 66.974054 
L 664.991751 65.307453 
L 656.703633 64.285251 
L 644.368733 63.029944 
L 633.455997 62.145448 
L 622.825518 61.52867 
L 610.196097 61.002455 
L 604.561075 60.925281 
L 599.333341 61.054533 
L 594.908945 61.370637 
L 589.853352 62.011245 
L 585.956651 62.736744 
L 583.064251 63.422961 
L 579.59766 64.439146 
L 576.409873 65.611824 
L 573.602964 66.939764 
L 572.133125 67.846941 
L 571.095764 68.698023 
L 570.640805 69.21506 
L 570.217944 70.064839 
L 570.202401 70.682934 
L 570.42461 71.218513 
L 570.926136 71.770496 
L 571.475217 72.158043 
L 573.024776 72.871146 
L 574.644064 73.36541 
L 577.708389 73.995626 
L 580.984089 74.434796 
L 586.338671 74.861411 
L 592.522173 75.069584 
L 598.893077 75.059833 
L 606.233439 74.831781 
L 615.116128 74.315107 
L 624.743808 73.502725 
L 634.082584 72.4613 
L 642.657139 71.27768 
L 675.490909 66.390025 
L 675.490909 66.390025 
" style="fill:none;stroke:#000000;stroke-linecap:square;stroke-opacity:0.7;stroke-width:1.2;"/>
   </g>
  </g>
 </g>
 <defs>
  <clipPath id="pbd90d69311">
   <rect height="262.08" width="694.08" x="12.96" y="12.96"/>
  </clipPath>
 </defs>
</svg>
