<?xml version="1.0" encoding="utf-8" standalone="no"?>
<!DOCTYPE svg PUBLIC "-//W3C//DTD SVG 1.1//EN"
  "http://www.w3.org/Graphics/SVG/1.1/DTD/svg11.dtd">
<!-- Created with matplotlib (https://matplotlib.org/) -->
<svg height="288pt" version="1.1" viewBox="0 0 720 288" width="720pt" xmlns="http://www.w3.org/2000/svg" xmlns:xlink="http://www.w3.org/1999/xlink">
 <metadata>
  <rdf:RDF xmlns:cc="http://creativecommons.org/ns#" xmlns:dc="http://purl.org/dc/elements/1.1/" xmlns:rdf="http://www.w3.org/1999/02/22-rdf-syntax-ns#">
   <cc:Work>
    <dc:type rdf:resource="http://purl.org/dc/dcmitype/StillImage"/>
    <dc:date>2021-05-05T23:27:49.532891</dc:date>
    <dc:format>image/svg+xml</dc:format>
    <dc:creator>
     <cc:Agent>
      <dc:title>Matplotlib v3.3.4, https://matplotlib.org/</dc:title>
     </cc:Agent>
    </dc:creator>
   </cc:Work>
  </rdf:RDF>
 </metadata>
 <defs>
  <style type="text/css">*{stroke-linecap:butt;stroke-linejoin:round;}</style>
 </defs>
 <g id="figure_1">
  <g id="patch_1">
   <path d="M 0 288 
L 720 288 
L 720 0 
L 0 0 
z
" style="fill:#ffffff;"/>
  </g>
  <g id="axes_1">
   <g id="line2d_1">
    <path clip-path="url(#p170056deb0)" d="M 149.29097 228.571622 
L 139.848342 225.723712 
L 130.199346 223.044156 
L 122.947738 221.240622 
L 116.916311 219.929082 
L 110.50692 218.765693 
L 104.144685 217.868199 
L 98.473922 217.282844 
L 92.278588 216.857196 
L 85.939811 216.633622 
L 78.911908 216.635901 
L 73.212848 216.854036 
L 68.746371 217.187284 
L 63.475819 217.815547 
L 59.096534 218.604655 
L 56.476274 219.243395 
L 53.79382 220.083182 
L 51.02171 221.239199 
L 48.803927 222.488954 
L 47.201627 223.682609 
L 45.751665 225.155417 
L 45.026572 226.226596 
L 44.58369 227.360129 
L 44.509091 228.019965 
L 44.592436 228.636578 
L 44.804496 229.152879 
L 45.442135 229.920268 
L 46.465788 230.593683 
L 47.818016 231.143756 
L 49.941053 231.687776 
L 53.377697 232.204004 
L 57.974007 232.578189 
L 64.066581 232.81164 
L 72.509832 232.87296 
L 81.596865 232.714734 
L 92.350286 232.296441 
L 104.618775 231.585804 
L 122.465435 230.289289 
L 149.29169 228.384766 
L 149.29169 228.384766 
" style="fill:none;stroke:#000000;stroke-linecap:square;stroke-opacity:0.7;stroke-width:1.2;"/>
   </g>
   <g id="line2d_2">
    <path clip-path="url(#p170056deb0)" d="M 149.399301 188.883472 
L 112.078305 184.197282 
L 98.958487 182.818657 
L 89.061974 181.963505 
L 81.964121 181.542018 
L 76.122398 181.408149 
L 71.778884 181.485203 
L 67.139519 181.775061 
L 63.496335 182.177169 
L 59.071181 182.903935 
L 55.745889 183.650774 
L 52.493116 184.586921 
L 49.360518 185.749877 
L 47.125814 186.83958 
L 45.596391 187.900343 
L 45.113201 188.476299 
L 45.007769 188.996551 
L 45.171966 189.29413 
L 45.464778 189.517028 
L 46.401493 189.859202 
L 48.20276 190.147386 
L 51.632513 190.346718 
L 56.752489 190.378355 
L 66.283064 190.169536 
L 103.772667 189.130513 
L 129.448439 188.728962 
L 149.409613 188.675056 
L 149.409613 188.675056 
" style="fill:none;stroke:#000000;stroke-linecap:square;stroke-opacity:0.7;stroke-width:1.2;"/>
   </g>
   <g id="line2d_3">
    <path clip-path="url(#p170056deb0)" d="M 149.961719 148.30628 
L 143.115589 148.336036 
L 137.114257 148.146438 
L 130.099886 147.651796 
L 117.63382 146.456941 
L 106.198567 145.468562 
L 96.611981 144.899072 
L 87.261083 144.580288 
L 78.848517 144.514001 
L 72.003465 144.66935 
L 65.938167 145.005472 
L 60.46316 145.498089 
L 54.91815 146.229305 
L 51.218439 146.911204 
L 48.150379 147.708295 
L 46.780714 148.2298 
L 45.760062 148.873387 
L 45.492315 149.303389 
L 45.53925 149.693323 
L 45.757981 149.987681 
L 46.463666 150.473454 
L 47.68459 150.990173 
L 49.971589 151.654114 
L 53.308858 152.354533 
L 58.399807 153.14016 
L 63.810918 153.751804 
L 70.443527 154.27033 
L 77.189039 154.575237 
L 85.19043 154.684628 
L 93.620052 154.544022 
L 101.480928 154.187172 
L 109.133434 153.615884 
L 116.729544 152.834355 
L 126.438181 151.608858 
L 139.726197 149.691152 
L 149.972619 148.054252 
L 149.972619 148.054252 
" style="fill:none;stroke:#000000;stroke-linecap:square;stroke-opacity:0.7;stroke-width:1.2;"/>
   </g>
   <g id="line2d_4">
    <path clip-path="url(#p170056deb0)" d="M 149.670956 109.625367 
L 142.300818 106.839291 
L 135.259144 104.432843 
L 128.453147 102.33947 
L 121.67905 100.462804 
L 114.096178 98.605022 
L 107.897191 97.289347 
L 101.578108 96.158941 
L 95.638334 95.326201 
L 90.702592 94.840735 
L 85.694002 94.573395 
L 80.913476 94.5503 
L 75.903596 94.782075 
L 71.809585 95.176912 
L 67.150464 95.875476 
L 62.884671 96.791023 
L 59.674787 97.699718 
L 56.902136 98.682705 
L 54.217719 99.866871 
L 51.799027 101.202693 
L 50.34095 102.177501 
L 49.012425 103.219242 
L 47.165225 105.044405 
L 45.907923 106.816581 
L 45.356423 108.094534 
L 45.183772 109.176556 
L 45.243929 109.791355 
L 45.634653 110.71086 
L 46.458821 111.541281 
L 47.812093 112.256104 
L 49.376443 112.734092 
L 51.31542 113.091854 
L 54.547311 113.400568 
L 59.199311 113.534694 
L 65.139401 113.453933 
L 74.532155 113.075757 
L 117.326499 111.062328 
L 142.917583 109.817083 
L 149.67157 109.460657 
L 149.67157 109.460657 
" style="fill:none;stroke:#000000;stroke-linecap:square;stroke-opacity:0.7;stroke-width:1.2;"/>
   </g>
   <g id="line2d_5">
    <path clip-path="url(#p170056deb0)" d="M 149.430775 70.596475 
L 131.310944 67.66983 
L 120.547712 66.107255 
L 113.054915 65.21417 
L 105.060031 64.503927 
L 96.789629 64.015384 
L 87.230981 63.700057 
L 78.864245 63.655948 
L 71.94804 63.866257 
L 65.988328 64.308672 
L 61.468187 64.853552 
L 57.183496 65.578684 
L 54.004551 66.281902 
L 50.895478 67.153821 
L 48.634381 67.960136 
L 46.955455 68.732465 
L 45.946173 69.367248 
L 45.40393 69.895669 
L 45.203254 70.364183 
L 45.303236 70.780428 
L 45.586963 71.088909 
L 46.264136 71.48014 
L 47.547374 71.918241 
L 49.662318 72.378232 
L 53.13034 72.874484 
L 58.853119 73.397906 
L 66.004516 73.777461 
L 73.478513 73.936732 
L 81.474967 73.867228 
L 90.109658 73.549362 
L 99.790693 72.95808 
L 112.888634 71.901854 
L 127.103925 70.791637 
L 134.308321 70.421269 
L 140.746836 70.281668 
L 147.914088 70.372342 
L 149.43543 70.424278 
L 149.43543 70.424278 
" style="fill:none;stroke:#000000;stroke-linecap:square;stroke-opacity:0.7;stroke-width:1.2;"/>
   </g>
   <g id="line2d_6">
    <path clip-path="url(#p170056deb0)" d="M 280.910754 228.159368 
L 262.512332 225.809336 
L 241.706178 223.151312 
L 230.862863 222.000053 
L 220.783064 221.150498 
L 213.964768 220.760566 
L 207.982642 220.615516 
L 202.226754 220.713466 
L 197.491696 221.008763 
L 192.654392 221.550449 
L 188.38637 222.276222 
L 185.603502 222.91011 
L 182.163233 223.939332 
L 180.271545 224.677975 
L 178.511499 225.558521 
L 177.115796 226.553176 
L 176.479364 227.368985 
L 176.387054 227.938917 
L 176.504482 228.247718 
L 176.835495 228.595515 
L 177.385418 228.904783 
L 178.468842 229.248426 
L 180.409094 229.566346 
L 183.289313 229.777596 
L 188.711024 229.87012 
L 198.580422 229.739832 
L 219.479574 229.447671 
L 261.656834 229.136445 
L 270.50887 228.756429 
L 277.951943 228.236389 
L 280.906807 227.975329 
L 280.906807 227.975329 
" style="fill:none;stroke:#000000;stroke-linecap:square;stroke-opacity:0.7;stroke-width:1.2;"/>
   </g>
   <g id="line2d_7">
    <path clip-path="url(#p170056deb0)" d="M 281.014875 188.460236 
L 271.439841 186.055835 
L 263.083546 184.17926 
L 253.794682 182.320255 
L 244.388191 180.670928 
L 236.161345 179.462236 
L 228.953667 178.617908 
L 221.770026 178.005468 
L 215.692063 177.70622 
L 210.527733 177.657743 
L 206.149299 177.805146 
L 201.655464 178.175607 
L 198.39476 178.606461 
L 195.154728 179.189051 
L 191.450915 180.070975 
L 187.859267 181.186119 
L 184.773117 182.397702 
L 181.967355 183.768701 
L 180.124227 184.868126 
L 178.593514 185.973145 
L 177.152917 187.35377 
L 176.59272 188.227365 
L 176.470303 188.899504 
L 176.680981 189.360319 
L 177.105182 189.668212 
L 177.927241 189.929422 
L 179.714762 190.09934 
L 183.104948 189.994068 
L 188.81652 189.463945 
L 212.600943 186.948393 
L 220.800737 186.38498 
L 228.736058 186.049193 
L 237.571838 185.919306 
L 247.289008 186.046193 
L 257.194611 186.410873 
L 266.243156 186.948567 
L 275.955897 187.763097 
L 281.027449 188.26376 
L 281.027449 188.26376 
" style="fill:none;stroke:#000000;stroke-linecap:square;stroke-opacity:0.7;stroke-width:1.2;"/>
   </g>
   <g id="line2d_8">
    <path clip-path="url(#p170056deb0)" d="M 281.429675 147.97322 
L 273.521778 145.471226 
L 267.297976 143.717453 
L 260.31429 141.993084 
L 253.198228 140.495263 
L 247.382391 139.4785 
L 240.966091 138.59805 
L 234.938948 138.025822 
L 229.973209 137.754542 
L 225.171578 137.671536 
L 219.205648 137.814147 
L 212.893253 138.248254 
L 206.82719 138.924103 
L 200.948561 139.820807 
L 195.965893 140.785433 
L 191.103031 141.946383 
L 187.535906 142.977857 
L 183.893742 144.254328 
L 181.011455 145.509109 
L 179.474368 146.320277 
L 177.55213 147.589711 
L 176.434463 148.622983 
L 175.867801 149.454791 
L 175.70447 149.926985 
L 175.692979 150.492507 
L 175.99417 151.147113 
L 176.191481 151.3687 
L 177.469569 152.175482 
L 178.770675 152.640765 
L 180.306684 153.019202 
L 182.844368 153.443142 
L 186.950557 153.858312 
L 191.893322 154.124414 
L 198.242245 154.249029 
L 205.176915 154.18832 
L 213.458173 153.880509 
L 220.811481 153.389443 
L 228.06021 152.696457 
L 235.678547 151.743198 
L 244.751744 150.35479 
L 257.867089 148.322827 
L 262.962328 147.747661 
L 267.840271 147.409458 
L 272.768866 147.309319 
L 277.44901 147.422215 
L 281.444711 147.642129 
L 281.444711 147.642129 
" style="fill:none;stroke:#000000;stroke-linecap:square;stroke-opacity:0.7;stroke-width:1.2;"/>
   </g>
   <g id="line2d_9">
    <path clip-path="url(#p170056deb0)" d="M 280.693797 110.176427 
L 272.269196 108.069054 
L 261.563363 105.639008 
L 250.661296 103.382607 
L 243.202806 102.038741 
L 236.033098 100.980043 
L 229.873536 100.269858 
L 222.588333 99.65348 
L 215.208723 99.271584 
L 209.423149 99.173781 
L 204.869616 99.261577 
L 200.158906 99.554734 
L 195.432389 100.120239 
L 192.17946 100.713635 
L 188.994479 101.502774 
L 186.120269 102.444304 
L 184.203086 103.232639 
L 182.208194 104.241039 
L 180.515634 105.317226 
L 179.203006 106.383649 
L 178.09367 107.604184 
L 177.368396 108.858699 
L 177.128819 109.649642 
L 177.079016 110.667338 
L 177.387893 111.801918 
L 178.042066 112.851225 
L 179.278899 114.065542 
L 180.593207 114.989344 
L 182.357486 115.961508 
L 185.258977 117.204367 
L 188.350043 118.238206 
L 191.619333 119.110005 
L 194.996582 119.821536 
L 199.211708 120.476143 
L 202.919737 120.854443 
L 207.736356 121.086414 
L 212.149597 121.060142 
L 217.025746 120.797109 
L 221.890348 120.332152 
L 228.43509 119.469304 
L 236.657688 118.144068 
L 263.649923 113.385425 
L 274.424607 111.363365 
L 280.725328 109.969364 
L 280.725328 109.969364 
" style="fill:none;stroke:#000000;stroke-linecap:square;stroke-opacity:0.7;stroke-width:1.2;"/>
   </g>
   <g id="line2d_10">
    <path clip-path="url(#p170056deb0)" d="M 281.128857 69.937048 
L 272.247395 67.318986 
L 262.914878 64.823696 
L 248.185415 61.175704 
L 235.019219 58.062112 
L 227.835541 56.575281 
L 221.59687 55.540216 
L 216.538979 54.944056 
L 211.974044 54.639391 
L 208.17957 54.586451 
L 204.236466 54.757051 
L 200.791652 55.124409 
L 197.55163 55.685613 
L 194.204432 56.52102 
L 191.012016 57.602595 
L 188.216942 58.821061 
L 185.591577 60.243213 
L 183.023875 61.955244 
L 180.808198 63.765446 
L 179.320308 65.225747 
L 177.968903 66.835083 
L 176.955983 68.45131 
L 176.571943 69.438743 
L 176.479652 70.374948 
L 176.632984 70.913145 
L 176.996461 71.382948 
L 177.669188 71.792731 
L 178.859169 72.115747 
L 180.510425 72.262363 
L 183.263618 72.203923 
L 187.985446 71.764813 
L 196.036582 70.716293 
L 206.916009 69.329759 
L 214.187229 68.629945 
L 220.310133 68.23955 
L 227.215277 68.026905 
L 234.342318 68.040024 
L 243.261012 68.30632 
L 279.359347 69.725841 
L 281.139138 69.745185 
L 281.139138 69.745185 
" style="fill:none;stroke:#000000;stroke-linecap:square;stroke-opacity:0.7;stroke-width:1.2;"/>
   </g>
   <g id="line2d_11">
    <path clip-path="url(#p170056deb0)" d="M 412.585111 227.507482 
L 403.391535 227.119405 
L 395.331979 226.555137 
L 377.624774 225.212145 
L 370.519168 224.935014 
L 361.942038 224.858931 
L 348.571925 225.038897 
L 330.736289 225.455066 
L 322.427299 225.874825 
L 316.654996 226.353574 
L 312.451587 226.885607 
L 310.125944 227.342111 
L 308.789013 227.807899 
L 308.409797 228.186066 
L 308.47679 228.437366 
L 308.956199 228.792988 
L 309.789366 229.136717 
L 311.124222 229.532084 
L 314.67743 230.303327 
L 319.898551 231.155725 
L 326.299919 231.964137 
L 333.264719 232.622578 
L 340.62231 233.095173 
L 347.876079 233.35385 
L 354.932027 233.414711 
L 362.214576 233.257551 
L 368.125488 232.928857 
L 373.919454 232.409484 
L 381.465871 231.481049 
L 397.043202 229.213174 
L 406.595802 227.95194 
L 412.593675 227.298175 
L 412.593675 227.298175 
" style="fill:none;stroke:#000000;stroke-linecap:square;stroke-opacity:0.7;stroke-width:1.2;"/>
   </g>
   <g id="line2d_12">
    <path clip-path="url(#p170056deb0)" d="M 412.400199 188.61511 
L 402.431408 188.12768 
L 391.66366 187.336296 
L 373.628059 185.981793 
L 362.262771 185.397495 
L 349.582252 184.967039 
L 338.325402 184.789796 
L 330.733534 184.883883 
L 323.689763 185.209469 
L 318.052681 185.709727 
L 313.421872 186.387531 
L 310.681807 187.013069 
L 308.973685 187.606314 
L 308.0064 188.147857 
L 307.573896 188.6003 
L 307.456355 188.964287 
L 307.58293 189.410708 
L 307.91324 189.78191 
L 308.527292 190.196927 
L 309.590992 190.684902 
L 310.588559 191.033307 
L 313.818798 191.855318 
L 317.72024 192.550999 
L 322.827352 193.207744 
L 328.973637 193.750214 
L 335.77737 194.107063 
L 342.88187 194.245236 
L 350.378877 194.171434 
L 359.820526 193.829378 
L 369.988801 193.211501 
L 380.692242 192.324517 
L 392.89511 191.085978 
L 402.427499 189.923405 
L 410.77238 188.698003 
L 412.385902 188.437042 
L 412.385902 188.437042 
" style="fill:none;stroke:#000000;stroke-linecap:square;stroke-opacity:0.7;stroke-width:1.2;"/>
   </g>
   <g id="line2d_13">
    <path clip-path="url(#p170056deb0)" d="M 412.627868 148.612514 
L 395.105356 145.452542 
L 379.38235 142.328064 
L 367.068807 139.951698 
L 359.639357 138.739788 
L 353.692172 137.975707 
L 347.842637 137.461209 
L 343.016391 137.253512 
L 338.224451 137.274106 
L 333.282143 137.564198 
L 328.862413 138.085748 
L 324.477929 138.887304 
L 321.200402 139.70762 
L 318.182463 140.671203 
L 315.251136 141.856731 
L 312.718568 143.162268 
L 310.955273 144.310769 
L 309.53574 145.484334 
L 308.432871 146.716157 
L 307.707212 148.012245 
L 307.481915 149.0356 
L 307.509332 149.606263 
L 307.701798 150.271316 
L 308.155119 151.011217 
L 308.892988 151.729512 
L 310.469319 152.676269 
L 312.234684 153.363935 
L 314.95021 154.075818 
L 318.368186 154.65693 
L 321.854419 155.038043 
L 326.436635 155.329603 
L 332.179438 155.461201 
L 339.513008 155.356031 
L 347.15923 155.013548 
L 358.079477 154.286376 
L 375.29626 152.903568 
L 387.9152 151.713838 
L 399.160165 150.426237 
L 408.005035 149.190348 
L 412.614825 148.464813 
L 412.614825 148.464813 
" style="fill:none;stroke:#000000;stroke-linecap:square;stroke-opacity:0.7;stroke-width:1.2;"/>
   </g>
   <g id="line2d_14">
    <path clip-path="url(#p170056deb0)" d="M 412.492843 109.467286 
L 404.776467 107.339995 
L 398.312397 105.772948 
L 391.118871 104.274842 
L 383.917564 103.032021 
L 377.845433 102.195692 
L 372.026195 101.585207 
L 365.841147 101.137296 
L 358.754383 100.853554 
L 351.334972 100.783533 
L 344.068727 100.939751 
L 337.962882 101.287494 
L 332.09689 101.86365 
L 326.636627 102.663671 
L 322.055791 103.575968 
L 318.245443 104.546624 
L 314.91451 105.603944 
L 312.032303 106.74407 
L 309.50699 108.03394 
L 308.016597 109.092981 
L 307.432814 109.753687 
L 307.279497 110.186283 
L 307.383671 110.530173 
L 307.803142 110.830433 
L 308.621172 111.04977 
L 309.917514 111.168721 
L 312.707176 111.14574 
L 318.719617 110.75501 
L 339.719681 109.209138 
L 352.493215 108.568134 
L 369.125359 107.977507 
L 382.496503 107.694612 
L 391.154505 107.73372 
L 397.328238 107.95518 
L 403.625364 108.384405 
L 411.061019 109.122151 
L 412.496451 109.286086 
L 412.496451 109.286086 
" style="fill:none;stroke:#000000;stroke-linecap:square;stroke-opacity:0.7;stroke-width:1.2;"/>
   </g>
   <g id="line2d_15">
    <path clip-path="url(#p170056deb0)" d="M 412.1973 70.632675 
L 402.327387 69.639224 
L 390.017121 68.149576 
L 376.866568 66.608359 
L 367.097055 65.693815 
L 355.24445 64.835234 
L 344.233962 64.255286 
L 337.742712 64.087986 
L 331.55259 64.14218 
L 326.727734 64.392001 
L 322.611588 64.801501 
L 319.325153 65.303141 
L 316.190482 65.982751 
L 314.295815 66.528368 
L 312.369203 67.240446 
L 310.580725 68.143384 
L 309.370801 69.059893 
L 308.886174 69.659361 
L 308.665809 70.191897 
L 308.645588 70.639602 
L 308.858916 71.203438 
L 309.335756 71.733252 
L 310.15754 72.280826 
L 311.943515 73.031477 
L 313.920632 73.597891 
L 317.515188 74.322627 
L 322.047571 74.946131 
L 327.730766 75.459046 
L 333.776473 75.77413 
L 341.001429 75.90952 
L 349.277891 75.813651 
L 358.015611 75.491403 
L 367.952967 74.894428 
L 378.744704 74.009419 
L 395.352716 72.384586 
L 409.782288 70.770513 
L 412.200395 70.471707 
L 412.200395 70.471707 
" style="fill:none;stroke:#000000;stroke-linecap:square;stroke-opacity:0.7;stroke-width:1.2;"/>
   </g>
   <g id="line2d_16">
    <path clip-path="url(#p170056deb0)" d="M 543.862316 227.668183 
L 534.914591 225.700495 
L 527.064255 224.186616 
L 517.826324 222.63391 
L 509.655931 221.465171 
L 502.27763 220.603024 
L 493.797085 219.851433 
L 485.290127 219.346866 
L 478.516556 219.147507 
L 472.50325 219.179745 
L 467.487768 219.417079 
L 463.177389 219.818792 
L 459.494532 220.335788 
L 455.929913 221.01253 
L 452.386908 221.882897 
L 448.569556 223.082799 
L 445.490203 224.300519 
L 442.776558 225.635529 
L 440.759634 226.907312 
L 439.803925 227.726685 
L 439.381478 228.337498 
L 439.375979 228.68508 
L 439.600598 228.903131 
L 439.982901 229.028102 
L 440.683521 229.094846 
L 441.959997 229.049939 
L 444.925086 228.697225 
L 452.287649 227.476295 
L 469.149358 224.609515 
L 477.235389 223.479243 
L 484.140054 222.743321 
L 490.645105 222.28717 
L 496.761954 222.094991 
L 503.099267 222.146781 
L 509.894163 222.460359 
L 516.754546 223.006387 
L 523.066048 223.703651 
L 529.063032 224.560062 
L 535.339552 225.67298 
L 543.517269 227.378015 
L 543.881944 227.458032 
L 543.881944 227.458032 
" style="fill:none;stroke:#000000;stroke-linecap:square;stroke-opacity:0.7;stroke-width:1.2;"/>
   </g>
   <g id="line2d_17">
    <path clip-path="url(#p170056deb0)" d="M 543.961708 188.12315 
L 535.394119 185.747962 
L 527.962548 183.912763 
L 520.29574 182.234081 
L 513.134177 180.891873 
L 506.993553 179.971654 
L 500.8907 179.314132 
L 494.953652 178.936659 
L 488.816972 178.809498 
L 482.717508 178.927622 
L 477.138557 179.234376 
L 471.037354 179.781821 
L 465.270956 180.50861 
L 459.175267 181.517482 
L 453.591974 182.696954 
L 449.18751 183.854555 
L 445.260156 185.146117 
L 442.585556 186.280069 
L 441.153675 187.06677 
L 439.983306 187.955211 
L 439.424448 188.674119 
L 439.266476 189.298737 
L 439.398202 189.800862 
L 439.837571 190.33457 
L 440.767392 190.929395 
L 442.449689 191.577435 
L 445.011792 192.214869 
L 448.140242 192.752192 
L 452.217007 193.252267 
L 457.999574 193.738355 
L 464.305409 194.066503 
L 471.456242 194.225763 
L 478.772781 194.154016 
L 484.972238 193.896274 
L 491.548636 193.419249 
L 498.64205 192.675993 
L 506.216559 191.659743 
L 527.145998 188.658725 
L 532.923075 188.126775 
L 537.939113 187.881149 
L 543.620463 187.853619 
L 543.98802 187.860075 
L 543.98802 187.860075 
" style="fill:none;stroke:#000000;stroke-linecap:square;stroke-opacity:0.7;stroke-width:1.2;"/>
   </g>
   <g id="line2d_18">
    <path clip-path="url(#p170056deb0)" d="M 543.684966 149.262462 
L 534.88789 147.226862 
L 525.669757 145.335827 
L 517.379161 143.864215 
L 510.25793 142.818918 
L 503.093259 142.022101 
L 496.983246 141.555128 
L 489.879569 141.233041 
L 481.56054 141.106677 
L 473.953956 141.220989 
L 467.416678 141.546397 
L 461.586555 142.075214 
L 456.949996 142.697767 
L 452.401656 143.523791 
L 448.0083 144.583523 
L 445.016814 145.511862 
L 442.918217 146.317851 
L 441.342743 147.065726 
L 439.950703 147.946043 
L 439.287973 148.587577 
L 439.022939 149.069113 
L 439.012229 149.595222 
L 439.195925 149.937778 
L 439.695095 150.370757 
L 440.614847 150.822338 
L 442.298572 151.330026 
L 445.492512 151.916002 
L 450.13839 152.428265 
L 456.006905 152.806396 
L 463.237798 153.025875 
L 471.368519 153.028844 
L 479.784104 152.80232 
L 489.622261 152.293155 
L 500.897309 151.452294 
L 527.643788 149.237277 
L 534.849042 148.985757 
L 541.104632 149.003298 
L 543.703629 149.072547 
L 543.703629 149.072547 
" style="fill:none;stroke:#000000;stroke-linecap:square;stroke-opacity:0.7;stroke-width:1.2;"/>
   </g>
   <g id="line2d_19">
    <path clip-path="url(#p170056deb0)" d="M 543.821451 109.620774 
L 535.141139 107.147409 
L 525.916904 104.761457 
L 516.076442 102.435483 
L 508.997035 100.964716 
L 503.172484 99.954871 
L 498.366511 99.28881 
L 491.781872 98.632279 
L 485.9065 98.281575 
L 479.921523 98.133795 
L 473.918594 98.199765 
L 467.644611 98.535909 
L 463.258194 98.974497 
L 458.57958 99.679508 
L 455.154243 100.391565 
L 451.505032 101.3861 
L 448.631947 102.394634 
L 445.955979 103.584342 
L 444.218405 104.54443 
L 442.650824 105.60851 
L 441.256285 106.832347 
L 440.282168 108.036959 
L 439.771127 109.041797 
L 439.56163 109.895273 
L 439.56521 110.701388 
L 439.852942 111.678802 
L 440.103271 112.13786 
L 441.148606 113.346841 
L 442.380424 114.282159 
L 444.441063 115.415599 
L 447.056035 116.483045 
L 450.390144 117.5166 
L 454.241008 118.419066 
L 458.264712 119.117256 
L 462.012218 119.581768 
L 466.855877 119.949334 
L 471.664553 120.082532 
L 476.896703 120.000309 
L 483.167463 119.647494 
L 489.586717 119.066682 
L 497.749803 118.091115 
L 506.993747 116.741751 
L 517.652833 114.949934 
L 528.907753 112.834365 
L 537.37429 111.024689 
L 543.814447 109.461979 
L 543.814447 109.461979 
" style="fill:none;stroke:#000000;stroke-linecap:square;stroke-opacity:0.7;stroke-width:1.2;"/>
   </g>
   <g id="line2d_20">
    <path clip-path="url(#p170056deb0)" d="M 543.473534 70.740888 
L 533.963379 68.609442 
L 523.873508 66.569085 
L 513.413638 64.686814 
L 504.198505 63.267729 
L 496.038793 62.249749 
L 488.487956 61.524976 
L 481.395938 61.048638 
L 475.74965 60.843186 
L 469.646026 60.857199 
L 464.935797 61.090356 
L 460.327662 61.555912 
L 456.596521 62.139997 
L 453.353664 62.826313 
L 449.993431 63.747546 
L 447.049753 64.773105 
L 444.326015 65.966622 
L 441.798124 67.404432 
L 440.267086 68.588332 
L 439.355683 69.652334 
L 439.05903 70.376559 
L 439.097807 70.990635 
L 439.507931 71.578351 
L 440.265129 72.053523 
L 441.544566 72.489182 
L 443.083423 72.797639 
L 445.941251 73.115674 
L 450.445134 73.327185 
L 456.562965 73.372273 
L 466.237044 73.208092 
L 484.01295 72.646511 
L 501.918882 71.884944 
L 524.993551 70.874507 
L 535.909983 70.643106 
L 543.478026 70.584133 
L 543.478026 70.584133 
" style="fill:none;stroke:#000000;stroke-linecap:square;stroke-opacity:0.7;stroke-width:1.2;"/>
   </g>
   <g id="line2d_21">
    <path clip-path="url(#p170056deb0)" d="M 675.064927 228.149676 
L 651.425985 224.321319 
L 640.936275 222.819911 
L 631.443736 221.668532 
L 621.913402 220.752111 
L 614.607206 220.244295 
L 608.377124 219.995346 
L 602.723787 219.970914 
L 597.276243 220.177828 
L 592.977109 220.530519 
L 588.630537 221.084096 
L 583.985496 221.934351 
L 580.360223 222.828131 
L 576.890967 223.938033 
L 574.028483 225.137964 
L 571.959855 226.311606 
L 570.948188 227.138952 
L 570.48541 227.791783 
L 570.429089 228.281401 
L 570.653497 228.644788 
L 570.956057 228.854759 
L 571.746543 229.139666 
L 572.998928 229.351422 
L 575.796639 229.498394 
L 580.040521 229.439436 
L 590.832976 228.953265 
L 601.203482 228.560662 
L 610.426496 228.422601 
L 624.008332 228.479804 
L 644.30857 228.557768 
L 661.578047 228.384172 
L 673.545245 228.055996 
L 675.048632 227.997943 
L 675.048632 227.997943 
" style="fill:none;stroke:#000000;stroke-linecap:square;stroke-opacity:0.7;stroke-width:1.2;"/>
   </g>
   <g id="line2d_22">
    <path clip-path="url(#p170056deb0)" d="M 675.490909 187.647379 
L 659.824086 184.37319 
L 632.630518 178.540536 
L 624.875069 177.20601 
L 618.639092 176.370382 
L 613.194496 175.854706 
L 608.153454 175.585997 
L 603.035913 175.555821 
L 598.426789 175.779616 
L 594.812861 176.15465 
L 590.691817 176.83956 
L 587.478525 177.600618 
L 584.255014 178.605108 
L 581.475068 179.704719 
L 578.895996 180.96171 
L 577.0172 182.055329 
L 574.892671 183.529768 
L 573.262314 184.911391 
L 572.166798 186.05735 
L 571.274682 187.318805 
L 570.916182 188.213106 
L 570.875985 188.865548 
L 571.095325 189.448485 
L 571.584695 189.928422 
L 572.007494 190.168211 
L 573.235703 190.566962 
L 574.763985 190.806856 
L 577.462631 190.951532 
L 580.925675 190.898826 
L 586.843314 190.525247 
L 595.183487 189.722185 
L 614.530524 187.7493 
L 622.870688 187.168703 
L 630.552347 186.846403 
L 639.720111 186.692522 
L 652.353886 186.736318 
L 663.623885 186.97535 
L 675.488654 187.449008 
L 675.488654 187.449008 
" style="fill:none;stroke:#000000;stroke-linecap:square;stroke-opacity:0.7;stroke-width:1.2;"/>
   </g>
   <g id="line2d_23">
    <path clip-path="url(#p170056deb0)" d="M 674.837113 149.624313 
L 668.092034 147.557836 
L 661.020722 145.61309 
L 654.721317 144.082294 
L 648.398744 142.752057 
L 642.477427 141.727681 
L 637.183224 141.022851 
L 631.502175 140.500637 
L 625.387362 140.194281 
L 618.548252 140.119531 
L 611.461281 140.28581 
L 604.518093 140.669177 
L 598.365645 141.217444 
L 592.710684 141.942025 
L 588.006462 142.751704 
L 583.459396 143.765747 
L 579.91026 144.765488 
L 576.789357 145.854739 
L 573.932708 147.124234 
L 572.240289 148.123042 
L 571.163471 149.078728 
L 570.883523 149.619354 
L 570.931463 150.087478 
L 571.266471 150.470715 
L 571.99399 150.850046 
L 573.57941 151.278756 
L 576.371669 151.679746 
L 581.084809 152.035231 
L 587.771527 152.272428 
L 596.565086 152.327886 
L 604.787988 152.162372 
L 613.62829 151.761443 
L 623.555811 151.072527 
L 639.127861 149.696697 
L 648.669635 148.963944 
L 654.862482 148.674601 
L 661.115509 148.608084 
L 667.01738 148.792519 
L 672.615089 149.193033 
L 674.859929 149.41164 
L 674.859929 149.41164 
" style="fill:none;stroke:#000000;stroke-linecap:square;stroke-opacity:0.7;stroke-width:1.2;"/>
   </g>
   <g id="line2d_24">
    <path clip-path="url(#p170056deb0)" d="M 675.150617 109.674972 
L 663.040086 107.014131 
L 652.120841 104.846018 
L 642.704338 103.202366 
L 634.277501 101.973989 
L 626.732537 101.123251 
L 619.775436 100.576471 
L 612.787994 100.276956 
L 606.877558 100.242992 
L 601.17518 100.435684 
L 596.771346 100.764557 
L 592.012874 101.328998 
L 587.618515 102.078697 
L 584.288442 102.822078 
L 580.209808 103.99034 
L 577.267079 105.066146 
L 574.317969 106.444694 
L 572.811132 107.353852 
L 571.494436 108.429194 
L 570.9763 109.104105 
L 570.794356 109.584964 
L 570.849924 110.168185 
L 571.072434 110.516226 
L 571.582041 110.928029 
L 572.831911 111.471802 
L 574.649688 111.925423 
L 578.046263 112.417181 
L 582.270117 112.761859 
L 588.232196 113.01057 
L 595.105518 113.097946 
L 603.615787 113.0099 
L 614.678791 112.666229 
L 627.062518 112.046945 
L 641.815555 111.053913 
L 658.055791 109.986585 
L 666.722188 109.629427 
L 675.161893 109.49784 
L 675.161893 109.49784 
" style="fill:none;stroke:#000000;stroke-linecap:square;stroke-opacity:0.7;stroke-width:1.2;"/>
   </g>
   <g id="line2d_25">
    <path clip-path="url(#p170056deb0)" d="M 675.315551 69.903842 
L 663.610165 67.106579 
L 653.331436 64.864553 
L 644.573346 63.157996 
L 637.057389 61.907311 
L 629.669246 60.937267 
L 623.646181 60.368045 
L 616.865823 59.975905 
L 610.934886 59.850553 
L 604.775931 59.950545 
L 599.545369 60.251209 
L 594.309473 60.798417 
L 590.231859 61.436077 
L 585.991852 62.343916 
L 582.332254 63.378756 
L 579.471669 64.395029 
L 576.441167 65.738465 
L 574.702607 66.684207 
L 572.709021 68.040057 
L 571.632029 69.067893 
L 571.250863 69.673308 
L 571.175823 70.176401 
L 571.31429 70.482069 
L 571.725312 70.795019 
L 572.450857 71.041639 
L 573.744789 71.233326 
L 576.946591 71.3173 
L 581.990621 71.124869 
L 606.503539 69.821142 
L 619.512583 69.526467 
L 642.82285 69.276297 
L 658.483496 69.300268 
L 669.248113 69.531334 
L 675.294225 69.749735 
L 675.294225 69.749735 
" style="fill:none;stroke:#000000;stroke-linecap:square;stroke-opacity:0.7;stroke-width:1.2;"/>
   </g>
  </g>
 </g>
 <defs>
  <clipPath id="p170056deb0">
   <rect height="262.08" width="694.08" x="12.96" y="12.96"/>
  </clipPath>
 </defs>
</svg>
