<?xml version="1.0" encoding="utf-8" standalone="no"?>
<!DOCTYPE svg PUBLIC "-//W3C//DTD SVG 1.1//EN"
  "http://www.w3.org/Graphics/SVG/1.1/DTD/svg11.dtd">
<!-- Created with matplotlib (https://matplotlib.org/) -->
<svg height="288pt" version="1.1" viewBox="0 0 720 288" width="720pt" xmlns="http://www.w3.org/2000/svg" xmlns:xlink="http://www.w3.org/1999/xlink">
 <metadata>
  <rdf:RDF xmlns:cc="http://creativecommons.org/ns#" xmlns:dc="http://purl.org/dc/elements/1.1/" xmlns:rdf="http://www.w3.org/1999/02/22-rdf-syntax-ns#">
   <cc:Work>
    <dc:type rdf:resource="http://purl.org/dc/dcmitype/StillImage"/>
    <dc:date>2021-05-05T23:34:36.012116</dc:date>
    <dc:format>image/svg+xml</dc:format>
    <dc:creator>
     <cc:Agent>
      <dc:title>Matplotlib v3.3.4, https://matplotlib.org/</dc:title>
     </cc:Agent>
    </dc:creator>
   </cc:Work>
  </rdf:RDF>
 </metadata>
 <defs>
  <style type="text/css">*{stroke-linecap:butt;stroke-linejoin:round;}</style>
 </defs>
 <g id="figure_1">
  <g id="patch_1">
   <path d="M 0 288 
L 720 288 
L 720 0 
L 0 0 
z
" style="fill:#ffffff;"/>
  </g>
  <g id="axes_1">
   <g id="line2d_1">
    <path clip-path="url(#pedee8c8400)" d="M 149.768626 223.49199 
L 111.891671 218.81251 
L 103.411646 218.051634 
L 94.270439 217.477044 
L 86.655577 217.229577 
L 79.241129 217.242153 
L 73.097583 217.470283 
L 67.100077 217.896878 
L 61.619336 218.482377 
L 56.176287 219.295734 
L 52.153843 220.111781 
L 49.383828 220.848091 
L 46.942106 221.718172 
L 45.702009 222.330154 
L 44.77433 223.031167 
L 44.536694 223.40965 
L 44.548243 223.761333 
L 44.747187 224.004282 
L 45.26816 224.275082 
L 46.34735 224.536298 
L 48.551137 224.755988 
L 52.261848 224.849461 
L 60.947391 224.741882 
L 76.865599 224.522837 
L 88.953656 224.605472 
L 112.69393 224.84444 
L 125.876095 224.702081 
L 135.615447 224.378017 
L 144.161598 223.846059 
L 149.763552 223.378052 
L 149.763552 223.378052 
" style="fill:none;stroke:#000000;stroke-linecap:square;stroke-opacity:0.7;stroke-width:1.2;"/>
   </g>
   <g id="line2d_2">
    <path clip-path="url(#pedee8c8400)" d="M 149.77365 183.96827 
L 138.484949 181.139332 
L 129.701211 179.186005 
L 120.933287 177.461316 
L 112.193904 175.964336 
L 105.190883 174.952491 
L 97.498002 174.071407 
L 90.643086 173.525326 
L 84.196705 173.258314 
L 78.555709 173.262209 
L 73.713843 173.477845 
L 68.897505 173.924178 
L 64.482065 174.577594 
L 60.284518 175.467437 
L 57.348243 176.286201 
L 54.617273 177.233942 
L 52.123528 178.303611 
L 49.834246 179.521785 
L 48.122414 180.651132 
L 46.737369 181.798333 
L 45.639433 183.074403 
L 45.283473 183.83606 
L 45.268072 184.452258 
L 45.466836 184.831077 
L 45.793601 185.11244 
L 46.773382 185.504873 
L 48.069246 185.726837 
L 50.83776 185.859619 
L 55.322147 185.749573 
L 64.603389 185.19992 
L 82.502745 184.132441 
L 94.657738 183.627617 
L 106.023476 183.378987 
L 117.233855 183.366755 
L 133.536496 183.597054 
L 149.775975 183.873348 
L 149.775975 183.873348 
" style="fill:none;stroke:#000000;stroke-linecap:square;stroke-opacity:0.7;stroke-width:1.2;"/>
   </g>
   <g id="line2d_3">
    <path clip-path="url(#pedee8c8400)" d="M 149.588012 145.01964 
L 121.854188 139.081613 
L 110.704358 136.910902 
L 102.618834 135.534783 
L 95.474553 134.511095 
L 89.387221 133.836549 
L 83.990634 133.451729 
L 79.617008 133.322085 
L 75.080792 133.376597 
L 70.228844 133.656161 
L 65.043353 134.224485 
L 60.631943 134.962996 
L 56.561724 135.917655 
L 53.454408 136.902536 
L 50.942736 137.953142 
L 49.034213 139.000765 
L 47.344522 140.249837 
L 46.93739 140.627858 
L 46.097459 141.58372 
L 45.639905 142.291754 
L 45.132097 143.737451 
L 45.12893 144.661021 
L 45.372022 145.480345 
L 45.674524 146.008687 
L 46.014003 146.431362 
L 46.745404 147.085421 
L 48.149905 147.916924 
L 49.875368 148.597677 
L 51.694539 149.108588 
L 53.95396 149.571644 
L 57.242156 150.04001 
L 62.50965 150.494834 
L 68.995289 150.765151 
L 76.325864 150.829968 
L 85.738531 150.658943 
L 97.639139 150.181509 
L 110.742329 149.43516 
L 121.592708 148.620979 
L 130.018405 147.795173 
L 137.920182 146.798407 
L 146.878664 145.416114 
L 149.578865 144.963685 
L 149.578865 144.963685 
" style="fill:none;stroke:#000000;stroke-linecap:square;stroke-opacity:0.7;stroke-width:1.2;"/>
   </g>
   <g id="line2d_4">
    <path clip-path="url(#pedee8c8400)" d="M 149.781788 105.162567 
L 139.929945 102.660848 
L 131.421453 100.743214 
L 124.064319 99.328861 
L 117.376692 98.279888 
L 111.389434 97.563231 
L 106.32901 97.134022 
L 99.910414 96.824791 
L 93.496575 96.772511 
L 87.756845 96.935379 
L 81.393962 97.331947 
L 75.530483 97.877612 
L 68.194138 98.785151 
L 61.846406 99.789769 
L 56.25567 100.904937 
L 52.98665 101.714305 
L 49.877923 102.674431 
L 48.330929 103.274795 
L 46.731145 104.069451 
L 45.805143 104.712747 
L 45.10228 105.580038 
L 45.0257 106.1819 
L 45.28991 106.712321 
L 45.770692 107.137079 
L 46.318272 107.45498 
L 47.362903 107.882542 
L 50.336157 108.629911 
L 53.203707 109.086579 
L 58.400822 109.638758 
L 65.366509 110.112868 
L 74.762402 110.516628 
L 84.301544 110.736335 
L 92.94759 110.716957 
L 99.021519 110.508133 
L 105.057605 110.090525 
L 111.032591 109.461901 
L 119.284771 108.324732 
L 136.013688 105.879388 
L 141.673178 105.313655 
L 146.607147 105.053447 
L 149.80131 105.0098 
L 149.80131 105.0098 
" style="fill:none;stroke:#000000;stroke-linecap:square;stroke-opacity:0.7;stroke-width:1.2;"/>
   </g>
   <g id="line2d_5">
    <path clip-path="url(#pedee8c8400)" d="M 149.503957 66.212645 
L 138.191342 64.624592 
L 128.387976 63.497229 
L 119.189183 62.668693 
L 110.798393 62.142682 
L 102.277139 61.831283 
L 90.506157 61.631349 
L 78.827198 61.610234 
L 70.263028 61.814545 
L 64.296818 62.154094 
L 58.267819 62.731461 
L 53.670828 63.391938 
L 49.943529 64.14585 
L 47.073772 64.985661 
L 45.564958 65.697649 
L 45.139727 66.081265 
L 45.052908 66.466229 
L 45.278871 66.764352 
L 45.670119 66.994343 
L 47.004411 67.41593 
L 50.065781 67.934758 
L 54.45311 68.390772 
L 61.375424 68.863859 
L 69.86651 69.225161 
L 79.475753 69.407264 
L 89.071838 69.355499 
L 98.462967 69.073507 
L 107.443031 68.589649 
L 121.737024 67.547561 
L 135.737692 66.570643 
L 143.126814 66.254525 
L 149.496627 66.169299 
L 149.496627 66.169299 
" style="fill:none;stroke:#000000;stroke-linecap:square;stroke-opacity:0.7;stroke-width:1.2;"/>
   </g>
   <g id="line2d_6">
    <path clip-path="url(#pedee8c8400)" d="M 281.134687 223.464581 
L 273.369701 220.910099 
L 266.358416 218.854899 
L 259.156443 217.007202 
L 252.110081 215.422669 
L 244.907487 214.031602 
L 239.292365 213.126841 
L 232.815712 212.304473 
L 227.276006 211.81197 
L 221.733398 211.542844 
L 217.086897 211.515261 
L 211.953118 211.719708 
L 207.298384 212.131572 
L 202.650722 212.763435 
L 197.759155 213.672488 
L 192.821763 214.861172 
L 189.067033 215.974115 
L 185.176184 217.368623 
L 182.018134 218.755911 
L 180.282437 219.670054 
L 178.686398 220.67224 
L 177.075926 222.01979 
L 176.506776 222.734565 
L 176.138526 223.645557 
L 176.198415 224.331131 
L 176.441178 224.779332 
L 176.877886 225.218565 
L 177.230092 225.466438 
L 179.007729 226.245122 
L 180.551378 226.661995 
L 183.789926 227.232604 
L 187.892111 227.672026 
L 193.843661 228.034943 
L 201.555837 228.242252 
L 211.092456 228.245139 
L 221.103594 228.009344 
L 230.25011 227.5616 
L 238.486936 226.934639 
L 248.373367 225.933016 
L 266.812032 223.977425 
L 273.054895 223.562975 
L 279.782233 223.362699 
L 281.147185 223.349712 
L 281.147185 223.349712 
" style="fill:none;stroke:#000000;stroke-linecap:square;stroke-opacity:0.7;stroke-width:1.2;"/>
   </g>
   <g id="line2d_7">
    <path clip-path="url(#pedee8c8400)" d="M 280.845666 184.631688 
L 267.921855 183.585414 
L 242.126714 181.359129 
L 232.845671 180.828466 
L 221.600703 180.418484 
L 211.46992 180.238593 
L 202.996754 180.286189 
L 195.503311 180.549551 
L 189.563265 180.963562 
L 184.487461 181.542283 
L 181.28251 182.097878 
L 178.714681 182.764978 
L 177.122775 183.418569 
L 176.153339 184.126374 
L 175.837382 184.693299 
L 175.850929 185.146024 
L 176.100212 185.603826 
L 176.741683 186.164446 
L 177.907601 186.773904 
L 180.284604 187.552935 
L 182.963028 188.134922 
L 187.262381 188.762723 
L 192.433262 189.242151 
L 198.063725 189.557203 
L 205.52639 189.754285 
L 213.781202 189.759586 
L 223.099863 189.553505 
L 233.452261 189.092757 
L 243.986911 188.387716 
L 255.790054 187.367072 
L 267.250412 186.173733 
L 280.853441 184.555861 
L 280.853441 184.555861 
" style="fill:none;stroke:#000000;stroke-linecap:square;stroke-opacity:0.7;stroke-width:1.2;"/>
   </g>
   <g id="line2d_8">
    <path clip-path="url(#pedee8c8400)" d="M 280.960243 144.945975 
L 268.124284 142.091533 
L 256.080723 139.665674 
L 245.151953 137.687659 
L 236.872432 136.41192 
L 229.496905 135.504061 
L 222.279345 134.859495 
L 216.409937 134.537934 
L 210.378286 134.432902 
L 205.414879 134.553583 
L 200.399004 134.906367 
L 196.029667 135.442219 
L 192.480917 136.067653 
L 189.167259 136.840505 
L 186.206574 137.724271 
L 183.514045 138.734968 
L 181.396105 139.719855 
L 179.651364 140.715144 
L 178.241784 141.714422 
L 176.991326 142.893904 
L 176.228896 144.0388 
L 176.026189 144.689454 
L 176.014039 145.254824 
L 176.20393 145.858386 
L 176.722073 146.530719 
L 177.561481 147.147898 
L 179.310727 147.935157 
L 181.975765 148.686709 
L 185.524322 149.348151 
L 190.247938 149.937364 
L 196.074251 150.401688 
L 203.174781 150.705943 
L 210.407653 150.789028 
L 218.032165 150.669559 
L 226.288258 150.326427 
L 234.952212 149.73518 
L 243.317285 148.954051 
L 256.201383 147.501083 
L 274.694244 145.417087 
L 280.984482 144.838506 
L 280.984482 144.838506 
" style="fill:none;stroke:#000000;stroke-linecap:square;stroke-opacity:0.7;stroke-width:1.2;"/>
   </g>
   <g id="line2d_9">
    <path clip-path="url(#pedee8c8400)" d="M 280.956296 105.500116 
L 273.174521 103.675677 
L 266.124902 102.276581 
L 258.596037 101.041735 
L 250.28835 99.909485 
L 240.908003 98.868304 
L 231.451319 98.063339 
L 223.006451 97.571419 
L 216.290404 97.379297 
L 209.827456 97.427529 
L 205.230302 97.641732 
L 200.137555 98.08863 
L 195.536801 98.708297 
L 190.434514 99.670685 
L 186.591395 100.621263 
L 183.192898 101.665544 
L 180.155398 102.822453 
L 177.757376 103.982789 
L 176.153355 105.057764 
L 175.725369 105.514988 
L 175.583911 105.98127 
L 175.706763 106.182869 
L 176.201119 106.40934 
L 176.974883 106.521117 
L 179.033433 106.519898 
L 183.800147 106.139074 
L 210.327441 103.572436 
L 218.68482 103.074786 
L 227.526523 102.764383 
L 236.648685 102.65749 
L 247.401075 102.774437 
L 257.096793 103.094295 
L 264.579749 103.534072 
L 270.687693 104.083088 
L 276.938631 104.851489 
L 280.949104 105.438925 
L 280.949104 105.438925 
" style="fill:none;stroke:#000000;stroke-linecap:square;stroke-opacity:0.7;stroke-width:1.2;"/>
   </g>
   <g id="line2d_10">
    <path clip-path="url(#pedee8c8400)" d="M 280.298585 66.938181 
L 273.943132 65.096333 
L 267.568959 63.484561 
L 260.654258 61.97239 
L 253.723432 60.657354 
L 245.744491 59.377222 
L 239.260972 58.538002 
L 231.975533 57.81911 
L 224.765609 57.328608 
L 217.71261 57.054968 
L 211.30357 57.005779 
L 206.259444 57.135106 
L 201.322099 57.4447 
L 196.729117 57.935978 
L 193.128359 58.489795 
L 189.898271 59.140432 
L 186.445402 60.03443 
L 183.594011 60.969165 
L 180.699894 62.165016 
L 178.326741 63.425928 
L 177.15964 64.206733 
L 176.081833 65.153394 
L 175.624733 65.873535 
L 175.658513 66.303372 
L 175.916679 66.542008 
L 176.420007 66.721009 
L 177.462931 66.842849 
L 179.676948 66.813682 
L 185.271581 66.372574 
L 196.600756 65.441911 
L 204.151524 65.076635 
L 211.629171 64.974656 
L 219.943918 65.11287 
L 238.324076 65.527358 
L 262.627554 65.726157 
L 270.893016 66.097951 
L 279.246567 66.690743 
L 280.278757 66.778427 
L 280.278757 66.778427 
" style="fill:none;stroke:#000000;stroke-linecap:square;stroke-opacity:0.7;stroke-width:1.2;"/>
   </g>
   <g id="line2d_11">
    <path clip-path="url(#pedee8c8400)" d="M 412.183967 224.050811 
L 403.648003 221.154391 
L 395.277048 218.557402 
L 384.640017 215.529029 
L 372.707087 212.352269 
L 364.564621 210.3926 
L 358.564313 209.177342 
L 353.576342 208.400024 
L 349.106768 207.934013 
L 344.360286 207.710477 
L 339.873393 207.771194 
L 336.057191 208.037052 
L 332.4522 208.475729 
L 327.92264 209.304635 
L 324.319391 210.214196 
L 321.079202 211.260116 
L 317.673964 212.656634 
L 315.717985 213.639919 
L 313.512171 214.9663 
L 311.883883 216.149091 
L 310.196123 217.650462 
L 308.787432 219.268898 
L 308.217654 220.100262 
L 307.360953 221.854625 
L 307.082851 222.972516 
L 307.039732 223.902563 
L 307.231553 224.915574 
L 307.761915 225.952402 
L 308.335733 226.614876 
L 309.613176 227.56885 
L 311.356463 228.398388 
L 313.336164 229.040177 
L 315.86101 229.615246 
L 319.192046 230.135803 
L 323.916186 230.602611 
L 329.273056 230.891419 
L 335.507138 231.001926 
L 341.527393 230.921175 
L 348.9218 230.602304 
L 357.646218 229.972843 
L 369.324447 228.862592 
L 386.050301 227.027482 
L 412.170836 223.994762 
L 412.170836 223.994762 
" style="fill:none;stroke:#000000;stroke-linecap:square;stroke-opacity:0.7;stroke-width:1.2;"/>
   </g>
   <g id="line2d_12">
    <path clip-path="url(#pedee8c8400)" d="M 412.19473 184.591093 
L 402.646987 182.996584 
L 394.286983 181.826741 
L 385.884584 180.857456 
L 377.367452 180.093047 
L 369.640732 179.624001 
L 361.154843 179.357312 
L 351.493776 179.31742 
L 342.004747 179.527624 
L 334.252197 179.919285 
L 327.168478 180.492533 
L 320.403665 181.282154 
L 315.603109 182.043238 
L 312.278687 182.726824 
L 309.521054 183.477269 
L 308.121324 184.002344 
L 307.176151 184.545426 
L 306.889102 184.945027 
L 306.980065 185.230701 
L 307.306393 185.456899 
L 307.904608 185.66484 
L 309.368281 185.925891 
L 312.191302 186.149449 
L 317.479041 186.272293 
L 327.501031 186.196916 
L 363.356021 185.515742 
L 375.03103 185.090545 
L 396.482347 184.206229 
L 403.650359 184.190722 
L 409.529305 184.375188 
L 412.190539 184.512751 
L 412.190539 184.512751 
" style="fill:none;stroke:#000000;stroke-linecap:square;stroke-opacity:0.7;stroke-width:1.2;"/>
   </g>
   <g id="line2d_13">
    <path clip-path="url(#pedee8c8400)" d="M 412.350661 144.941676 
L 401.662134 142.474095 
L 391.570048 140.374025 
L 377.079841 137.620655 
L 366.277589 135.758915 
L 357.840318 134.525455 
L 350.766231 133.733809 
L 345.457452 133.341582 
L 340.728521 133.180876 
L 335.796344 133.250222 
L 331.398718 133.564223 
L 328.34377 133.951998 
L 324.611591 134.653706 
L 321.453874 135.483987 
L 318.448796 136.524894 
L 315.946258 137.628413 
L 313.540382 138.960033 
L 311.636528 140.285383 
L 310.273203 141.477888 
L 309.079333 142.889506 
L 308.555272 143.892678 
L 308.402 144.76482 
L 308.505405 145.29056 
L 308.779536 145.759916 
L 309.2568 146.195317 
L 310.037926 146.617987 
L 311.410663 147.051199 
L 313.606509 147.422526 
L 316.590987 147.657798 
L 320.797438 147.74876 
L 327.609718 147.62147 
L 339.344775 147.107077 
L 355.277648 146.430202 
L 365.464035 146.209856 
L 378.98438 146.172639 
L 391.468314 146.077817 
L 399.406314 145.811846 
L 407.910679 145.275208 
L 412.342642 144.913786 
L 412.342642 144.913786 
" style="fill:none;stroke:#000000;stroke-linecap:square;stroke-opacity:0.7;stroke-width:1.2;"/>
   </g>
   <g id="line2d_14">
    <path clip-path="url(#pedee8c8400)" d="M 412.032189 105.972352 
L 403.723463 103.770787 
L 394.866158 101.671276 
L 385.66843 99.738794 
L 376.919274 98.143523 
L 370.102311 97.117507 
L 363.206361 96.310645 
L 355.917009 95.718132 
L 348.787347 95.396948 
L 342.668844 95.33966 
L 336.522742 95.521676 
L 331.368579 95.90388 
L 326.79788 96.465319 
L 322.043696 97.3383 
L 318.422239 98.268148 
L 315.10698 99.403158 
L 312.325081 100.671678 
L 310.495755 101.76818 
L 309.239218 102.748082 
L 308.311676 103.737433 
L 307.828812 104.517231 
L 307.570909 105.420241 
L 307.644523 106.190654 
L 307.976693 106.875805 
L 308.651551 107.603695 
L 310.023057 108.503302 
L 311.441959 109.154396 
L 314.46637 110.165978 
L 317.768198 110.984024 
L 322.002597 111.790319 
L 326.579832 112.448274 
L 331.835007 112.981002 
L 336.966632 113.295777 
L 342.794416 113.430538 
L 348.701372 113.35309 
L 354.918815 113.068257 
L 362.043907 112.514128 
L 370.018005 111.640191 
L 380.040308 110.274945 
L 407.160042 106.423854 
L 412.051942 105.900222 
L 412.051942 105.900222 
" style="fill:none;stroke:#000000;stroke-linecap:square;stroke-opacity:0.7;stroke-width:1.2;"/>
   </g>
   <g id="line2d_15">
    <path clip-path="url(#pedee8c8400)" d="M 412.146679 66.446779 
L 399.59382 64.57275 
L 387.341058 62.978016 
L 374.087337 61.457418 
L 363.039009 60.395526 
L 353.541723 59.694198 
L 345.890531 59.33246 
L 339.594402 59.235254 
L 333.569745 59.373688 
L 328.321731 59.72605 
L 323.479778 60.284396 
L 319.786719 60.894063 
L 315.603008 61.834614 
L 312.665564 62.719084 
L 310.906595 63.38661 
L 308.840732 64.419065 
L 307.838024 65.173416 
L 307.423366 65.778417 
L 307.447374 66.209406 
L 307.693104 66.485618 
L 308.287732 66.771736 
L 309.407871 67.021554 
L 311.621391 67.21509 
L 315.808416 67.256597 
L 323.766191 67.021898 
L 338.333735 66.566124 
L 346.484661 66.529837 
L 356.452271 66.726081 
L 380.673548 67.332302 
L 391.100056 67.330848 
L 399.498714 67.12957 
L 407.045634 66.743514 
L 412.136411 66.373531 
L 412.136411 66.373531 
" style="fill:none;stroke:#000000;stroke-linecap:square;stroke-opacity:0.7;stroke-width:1.2;"/>
   </g>
   <g id="line2d_16">
    <path clip-path="url(#pedee8c8400)" d="M 543.933947 223.290936 
L 537.435493 221.056015 
L 531.804978 219.379385 
L 526.862696 218.136543 
L 520.814043 216.857718 
L 514.891143 215.81077 
L 508.517051 214.883972 
L 501.749974 214.122845 
L 495.560707 213.626714 
L 488.451463 213.284714 
L 481.469112 213.185691 
L 475.236182 213.32181 
L 470.514678 213.598198 
L 464.788805 214.181745 
L 460.275074 214.872362 
L 455.91864 215.7701 
L 451.993334 216.813197 
L 448.752378 217.881932 
L 446.039259 218.962549 
L 443.280101 220.304259 
L 441.030652 221.69795 
L 439.763878 222.747831 
L 439.158996 223.479341 
L 438.90936 224.164437 
L 439.054858 224.653528 
L 439.475956 225.005046 
L 440.326387 225.31997 
L 441.979855 225.580564 
L 444.005798 225.692151 
L 447.720936 225.675683 
L 453.677253 225.402171 
L 462.181315 224.758535 
L 470.531746 223.921785 
L 481.179818 222.619433 
L 495.716087 220.825114 
L 502.395864 220.219771 
L 508.582061 219.85307 
L 514.480729 219.687484 
L 520.47013 219.724694 
L 525.150605 219.937082 
L 529.848999 220.36673 
L 533.594828 220.896444 
L 538.371988 221.813069 
L 543.95979 223.150354 
L 543.95979 223.150354 
" style="fill:none;stroke:#000000;stroke-linecap:square;stroke-opacity:0.7;stroke-width:1.2;"/>
   </g>
   <g id="line2d_17">
    <path clip-path="url(#pedee8c8400)" d="M 543.291573 184.974818 
L 532.748013 182.56086 
L 521.596467 180.245891 
L 509.073949 177.873201 
L 499.754821 176.333098 
L 492.898321 175.402234 
L 486.425561 174.722955 
L 480.338859 174.288228 
L 474.178591 174.081156 
L 469.358893 174.109923 
L 464.617086 174.33097 
L 459.663772 174.806059 
L 455.277209 175.484263 
L 451.915354 176.21272 
L 448.322212 177.259478 
L 445.608423 178.30983 
L 443.389144 179.426674 
L 441.748929 180.504319 
L 440.588636 181.515845 
L 439.690942 182.645658 
L 439.241777 183.641785 
L 439.119931 184.458333 
L 439.225735 185.252547 
L 439.543808 186.007855 
L 440.116561 186.797174 
L 441.293246 187.854127 
L 442.826763 188.831242 
L 445.098883 189.926728 
L 448.327791 191.119283 
L 451.618755 192.073694 
L 455.858632 193.03392 
L 460.39462 193.791124 
L 464.998737 194.308338 
L 469.595402 194.593246 
L 474.105938 194.668686 
L 478.933177 194.553377 
L 484.70959 194.194958 
L 491.910448 193.492363 
L 501.030229 192.332145 
L 513.124473 190.538018 
L 525.648376 188.458023 
L 535.095919 186.663568 
L 543.340664 184.871297 
L 543.340664 184.871297 
" style="fill:none;stroke:#000000;stroke-linecap:square;stroke-opacity:0.7;stroke-width:1.2;"/>
   </g>
   <g id="line2d_18">
    <path clip-path="url(#pedee8c8400)" d="M 543.953788 144.452002 
L 536.107072 142.331214 
L 530.051527 140.889567 
L 522.811282 139.419309 
L 515.706307 138.196582 
L 508.572175 137.167713 
L 501.449051 136.356974 
L 494.201269 135.777343 
L 487.438785 135.468509 
L 481.40771 135.387949 
L 475.496939 135.504234 
L 469.625915 135.841727 
L 464.375523 136.364118 
L 460.191612 136.954015 
L 455.502381 137.8302 
L 450.872763 138.968792 
L 446.951403 140.218353 
L 444.226174 141.315601 
L 442.517486 142.159191 
L 440.991092 143.103506 
L 439.94086 144.019085 
L 439.468564 144.803375 
L 439.456943 145.330962 
L 439.700461 145.760333 
L 440.059912 146.067726 
L 440.764885 146.438433 
L 442.187144 146.893278 
L 445.029788 147.422554 
L 448.36481 147.800304 
L 454.297306 148.195869 
L 461.324289 148.414016 
L 469.511062 148.426648 
L 477.755092 148.215826 
L 487.539394 147.721178 
L 498.623961 146.902642 
L 513.212901 145.547988 
L 525.621387 144.440532 
L 531.935837 144.080186 
L 536.785507 144.006994 
L 541.107028 144.136376 
L 543.971292 144.326279 
L 543.971292 144.326279 
" style="fill:none;stroke:#000000;stroke-linecap:square;stroke-opacity:0.7;stroke-width:1.2;"/>
   </g>
   <g id="line2d_19">
    <path clip-path="url(#pedee8c8400)" d="M 543.666177 105.605951 
L 534.414308 103.962324 
L 525.621368 102.626517 
L 515.901506 101.38359 
L 506.790771 100.447404 
L 498.768978 99.838084 
L 489.249176 99.361816 
L 479.850861 99.124924 
L 471.473037 99.152064 
L 464.52174 99.422365 
L 458.641261 99.886326 
L 453.955055 100.451159 
L 449.167815 101.261615 
L 445.162578 102.201706 
L 442.212097 103.158731 
L 440.891464 103.731015 
L 439.650565 104.471323 
L 439.10956 104.992471 
L 438.87706 105.544086 
L 438.950098 105.915046 
L 439.247088 106.290999 
L 439.943877 106.735531 
L 441.221255 107.217976 
L 443.00541 107.663566 
L 446.080468 108.190352 
L 450.841724 108.743156 
L 457.611167 109.26504 
L 465.909298 109.660826 
L 474.61964 109.865422 
L 484.299555 109.862983 
L 492.394254 109.656943 
L 501.033838 109.190335 
L 509.170276 108.522189 
L 539.72929 105.750954 
L 543.663101 105.568251 
L 543.663101 105.568251 
" style="fill:none;stroke:#000000;stroke-linecap:square;stroke-opacity:0.7;stroke-width:1.2;"/>
   </g>
   <g id="line2d_20">
    <path clip-path="url(#pedee8c8400)" d="M 543.698754 66.230066 
L 497.893196 60.465608 
L 488.290554 59.597033 
L 480.605971 59.102992 
L 473.963013 58.87638 
L 468.247497 58.875534 
L 463.468968 59.040152 
L 458.321635 59.416206 
L 453.702609 59.968256 
L 450.183985 60.565698 
L 446.949109 61.302041 
L 443.805604 62.280489 
L 442.075816 63.003472 
L 440.543201 63.851567 
L 439.257042 64.923874 
L 438.788418 65.612482 
L 438.608472 66.265295 
L 438.711302 66.918232 
L 439.033874 67.446923 
L 439.659133 68.008171 
L 440.777771 68.627786 
L 442.205581 69.156544 
L 444.307993 69.699031 
L 447.764834 70.29647 
L 452.332447 70.804259 
L 458.051838 71.198838 
L 465.022432 71.460519 
L 473.786433 71.546763 
L 483.114172 71.391494 
L 492.68605 71.003145 
L 502.368161 70.405882 
L 514.247252 69.438066 
L 526.009511 68.271296 
L 537.992948 66.871069 
L 543.707017 66.149518 
L 543.707017 66.149518 
" style="fill:none;stroke:#000000;stroke-linecap:square;stroke-opacity:0.7;stroke-width:1.2;"/>
   </g>
   <g id="line2d_21">
    <path clip-path="url(#pedee8c8400)" d="M 675.350897 223.329979 
L 647.146223 219.164766 
L 635.519078 217.640405 
L 626.696918 216.689974 
L 618.525829 216.030991 
L 611.592939 215.692878 
L 605.633405 215.613573 
L 599.389327 215.781475 
L 593.412417 216.214406 
L 588.745473 216.764073 
L 584.46202 217.465236 
L 580.043906 218.446274 
L 577.315574 219.236285 
L 574.790601 220.160994 
L 573.08568 220.957123 
L 571.760083 221.757469 
L 570.848715 222.528587 
L 570.427829 223.108103 
L 570.30014 223.761517 
L 570.517907 224.219051 
L 570.912413 224.550577 
L 571.651685 224.896067 
L 573.122203 225.270402 
L 576.191903 225.629744 
L 580.846073 225.813991 
L 588.717119 225.81018 
L 611.467884 225.414608 
L 648.850702 224.694812 
L 660.002919 224.279885 
L 669.595819 223.691721 
L 675.347439 223.230594 
L 675.347439 223.230594 
" style="fill:none;stroke:#000000;stroke-linecap:square;stroke-opacity:0.7;stroke-width:1.2;"/>
   </g>
   <g id="line2d_22">
    <path clip-path="url(#pedee8c8400)" d="M 675.429213 183.68995 
L 665.79927 180.809121 
L 657.287926 178.520796 
L 646.255994 175.82053 
L 636.934479 173.757246 
L 629.153744 172.27985 
L 623.403039 171.389759 
L 617.387222 170.68368 
L 612.550772 170.309176 
L 607.750497 170.133454 
L 603.126865 170.175399 
L 598.399895 170.463906 
L 593.982994 170.991575 
L 590.604351 171.589215 
L 587.202651 172.388755 
L 584.186066 173.293679 
L 581.271851 174.381167 
L 578.402828 175.713347 
L 575.698651 177.297833 
L 574.008221 178.529915 
L 572.589715 179.799497 
L 571.4414 181.125205 
L 570.640585 182.477091 
L 570.32258 183.538337 
L 570.295364 184.139863 
L 570.418646 184.767694 
L 570.773175 185.435197 
L 571.470558 186.111783 
L 572.572951 186.724189 
L 574.380605 187.300008 
L 576.646562 187.700506 
L 579.990113 187.98851 
L 583.316254 188.088653 
L 589.604053 188.022222 
L 598.576343 187.651988 
L 640.361217 185.578777 
L 658.250326 184.84939 
L 668.057301 184.21585 
L 675.420449 183.60202 
L 675.420449 183.60202 
" style="fill:none;stroke:#000000;stroke-linecap:square;stroke-opacity:0.7;stroke-width:1.2;"/>
   </g>
   <g id="line2d_23">
    <path clip-path="url(#pedee8c8400)" d="M 674.841725 145.297714 
L 667.200413 143.274157 
L 658.601694 141.235598 
L 646.590134 138.678725 
L 630.728673 135.522062 
L 622.726248 134.140163 
L 616.703372 133.306381 
L 610.869695 132.735661 
L 606.158628 132.486582 
L 601.440792 132.464245 
L 596.860176 132.697965 
L 593.178762 133.098537 
L 589.908405 133.638878 
L 586.720084 134.35943 
L 583.341302 135.370112 
L 580.107603 136.629946 
L 577.368201 137.98642 
L 575.56684 139.0727 
L 573.488923 140.61087 
L 572.227638 141.799087 
L 571.295443 142.964003 
L 570.73242 144.134989 
L 570.64123 144.783748 
L 570.754174 145.372927 
L 571.025375 145.835516 
L 571.627844 146.366124 
L 572.498242 146.808152 
L 574.083412 147.280182 
L 576.137399 147.629782 
L 579.344301 147.918223 
L 583.536114 148.070836 
L 589.811634 148.07122 
L 599.308186 147.828083 
L 641.065099 146.460202 
L 657.190872 146.036165 
L 671.989088 145.390589 
L 674.851147 145.252969 
L 674.851147 145.252969 
" style="fill:none;stroke:#000000;stroke-linecap:square;stroke-opacity:0.7;stroke-width:1.2;"/>
   </g>
   <g id="line2d_24">
    <path clip-path="url(#pedee8c8400)" d="M 675.488184 104.66414 
L 652.048799 99.50965 
L 642.921074 97.687788 
L 635.317626 96.407298 
L 629.141954 95.591633 
L 622.562721 94.968893 
L 616.81112 94.634372 
L 610.938069 94.501038 
L 605.682343 94.577775 
L 600.909436 94.829441 
L 596.03191 95.288952 
L 591.33843 95.948805 
L 586.356874 96.919218 
L 582.381203 97.9353 
L 578.530148 99.188961 
L 576.297513 100.084776 
L 573.947625 101.233525 
L 572.381765 102.191875 
L 571.046623 103.252375 
L 570.232069 104.169902 
L 569.858869 104.813625 
L 569.631486 105.808175 
L 569.722866 106.421061 
L 570.001405 107.021269 
L 570.574813 107.711571 
L 571.650841 108.535937 
L 572.702775 109.123321 
L 575.202215 110.159929 
L 578.420947 111.141724 
L 581.835851 111.957484 
L 586.423231 112.82718 
L 591.87984 113.616487 
L 597.646013 114.205289 
L 603.433358 114.554744 
L 608.693407 114.666895 
L 614.840925 114.561936 
L 620.969167 114.219161 
L 626.85295 113.6706 
L 632.946772 112.866544 
L 638.764875 111.873086 
L 645.414035 110.514517 
L 669.317392 105.365378 
L 674.758321 104.558405 
L 675.490909 104.46927 
L 675.490909 104.46927 
" style="fill:none;stroke:#000000;stroke-linecap:square;stroke-opacity:0.7;stroke-width:1.2;"/>
   </g>
   <g id="line2d_25">
    <path clip-path="url(#pedee8c8400)" d="M 674.504596 66.95565 
L 650.223961 63.837957 
L 639.186496 62.652945 
L 630.000308 61.895246 
L 619.482331 61.254911 
L 609.308091 60.83492 
L 601.328395 60.70632 
L 595.473995 60.790661 
L 590.225035 61.045124 
L 585.349037 61.480349 
L 580.795057 62.121033 
L 577.430198 62.80525 
L 574.383573 63.682686 
L 572.704169 64.368538 
L 571.783628 64.883717 
L 570.978145 65.590437 
L 570.755976 66.029468 
L 570.76727 66.465147 
L 571.129659 66.995123 
L 571.898219 67.510955 
L 573.574791 68.176261 
L 575.775394 68.766318 
L 578.874088 69.383887 
L 584.075934 70.149483 
L 590.466297 70.81375 
L 597.454423 71.283371 
L 605.186859 71.548243 
L 613.530497 71.591482 
L 621.809951 71.419768 
L 630.79825 70.998694 
L 640.897541 70.282669 
L 652.999577 69.202238 
L 666.092362 67.805718 
L 674.511826 66.829972 
L 674.511826 66.829972 
" style="fill:none;stroke:#000000;stroke-linecap:square;stroke-opacity:0.7;stroke-width:1.2;"/>
   </g>
  </g>
 </g>
 <defs>
  <clipPath id="pedee8c8400">
   <rect height="262.08" width="694.08" x="12.96" y="12.96"/>
  </clipPath>
 </defs>
</svg>
