<?xml version="1.0" encoding="utf-8" standalone="no"?>
<!DOCTYPE svg PUBLIC "-//W3C//DTD SVG 1.1//EN"
  "http://www.w3.org/Graphics/SVG/1.1/DTD/svg11.dtd">
<!-- Created with matplotlib (https://matplotlib.org/) -->
<svg height="288pt" version="1.1" viewBox="0 0 720 288" width="720pt" xmlns="http://www.w3.org/2000/svg" xmlns:xlink="http://www.w3.org/1999/xlink">
 <metadata>
  <rdf:RDF xmlns:cc="http://creativecommons.org/ns#" xmlns:dc="http://purl.org/dc/elements/1.1/" xmlns:rdf="http://www.w3.org/1999/02/22-rdf-syntax-ns#">
   <cc:Work>
    <dc:type rdf:resource="http://purl.org/dc/dcmitype/StillImage"/>
    <dc:date>2021-05-05T23:09:17.697261</dc:date>
    <dc:format>image/svg+xml</dc:format>
    <dc:creator>
     <cc:Agent>
      <dc:title>Matplotlib v3.3.4, https://matplotlib.org/</dc:title>
     </cc:Agent>
    </dc:creator>
   </cc:Work>
  </rdf:RDF>
 </metadata>
 <defs>
  <style type="text/css">*{stroke-linecap:butt;stroke-linejoin:round;}</style>
 </defs>
 <g id="figure_1">
  <g id="patch_1">
   <path d="M 0 288 
L 720 288 
L 720 0 
L 0 0 
z
" style="fill:#ffffff;"/>
  </g>
  <g id="axes_1">
   <g id="line2d_1">
    <path clip-path="url(#pe1d9e7e097)" d="M 148.666636 229.901752 
L 103.340971 223.426035 
L 96.029586 222.655855 
L 89.437072 222.158294 
L 84.420535 221.938841 
L 78.928011 221.882004 
L 73.081749 222.048961 
L 67.401713 222.444116 
L 61.678402 223.084412 
L 56.359897 223.922124 
L 52.182752 224.786057 
L 48.597624 225.746659 
L 46.336164 226.55578 
L 45.074543 227.203651 
L 44.528383 227.737322 
L 44.547853 228.088398 
L 44.95107 228.369666 
L 45.68656 228.573512 
L 47.759848 228.770736 
L 50.68733 228.767461 
L 55.650987 228.492081 
L 63.662921 227.769916 
L 75.032384 226.704968 
L 81.910506 226.302647 
L 87.21319 226.19755 
L 94.261751 226.303582 
L 104.894001 226.745557 
L 132.10717 228.155442 
L 141.369993 228.843572 
L 148.674281 229.561597 
L 148.674281 229.561597 
" style="fill:none;stroke:#000000;stroke-linecap:square;stroke-opacity:0.7;stroke-width:1.2;"/>
   </g>
   <g id="line2d_2">
    <path clip-path="url(#pe1d9e7e097)" d="M 148.261715 191.231477 
L 133.698361 188.705557 
L 113.538141 185.370203 
L 104.625745 184.104509 
L 96.903102 183.227079 
L 90.716093 182.717322 
L 84.165125 182.398472 
L 78.555077 182.323079 
L 72.637344 182.451671 
L 66.582822 182.816723 
L 61.546703 183.321558 
L 56.879086 183.993244 
L 53.220544 184.715874 
L 50.336131 185.491594 
L 48.409151 186.21156 
L 47.198493 186.860796 
L 46.497912 187.440425 
L 46.140788 187.992668 
L 46.063275 188.454702 
L 46.156128 188.860938 
L 46.640707 189.540769 
L 47.34275 190.098269 
L 48.468619 190.727462 
L 50.99795 191.71848 
L 54.060777 192.584096 
L 58.383915 193.497883 
L 63.509995 194.302879 
L 69.513442 194.994079 
L 76.071704 195.535164 
L 84.347721 195.982226 
L 91.416846 196.162541 
L 97.965589 196.134173 
L 105.075542 195.860104 
L 111.706709 195.37793 
L 120.409285 194.490659 
L 132.616942 193.000555 
L 148.260133 190.91038 
L 148.260133 190.91038 
" style="fill:none;stroke:#000000;stroke-linecap:square;stroke-opacity:0.7;stroke-width:1.2;"/>
   </g>
   <g id="line2d_3">
    <path clip-path="url(#pe1d9e7e097)" d="M 148.435547 151.300897 
L 140.074868 150.550718 
L 132.827585 149.689267 
L 124.918078 148.527466 
L 113.374252 146.579565 
L 97.839583 143.953322 
L 90.655949 142.994802 
L 85.579947 142.530363 
L 80.518938 142.284773 
L 75.45179 142.262647 
L 70.537359 142.447979 
L 65.122664 142.885157 
L 60.220238 143.508176 
L 55.786776 144.30034 
L 52.522579 145.077833 
L 49.903709 145.890455 
L 47.722619 146.804949 
L 46.289185 147.688982 
L 45.733643 148.223883 
L 45.381511 148.92883 
L 45.470973 149.526573 
L 45.830523 149.9751 
L 46.28957 150.296646 
L 47.457508 150.786399 
L 48.598886 151.080704 
L 50.820261 151.420613 
L 53.628915 151.619301 
L 58.391153 151.658813 
L 65.421551 151.415968 
L 78.881719 150.910865 
L 87.64161 150.848832 
L 108.006591 150.81695 
L 134.183337 150.476757 
L 141.353905 150.654897 
L 148.438711 151.042463 
L 148.438711 151.042463 
" style="fill:none;stroke:#000000;stroke-linecap:square;stroke-opacity:0.7;stroke-width:1.2;"/>
   </g>
   <g id="line2d_4">
    <path clip-path="url(#pe1d9e7e097)" d="M 148.521936 111.456875 
L 134.315707 109.096505 
L 105.971597 104.604419 
L 97.19306 103.469715 
L 90.821276 102.835683 
L 84.712115 102.439362 
L 78.857987 102.306873 
L 73.152228 102.446906 
L 68.294843 102.789128 
L 62.987484 103.407157 
L 58.414996 104.160577 
L 54.244917 105.060897 
L 50.670102 106.059929 
L 47.916353 107.085286 
L 46.548557 107.7791 
L 45.68333 108.390297 
L 45.158693 108.990839 
L 44.983076 109.474446 
L 45.038485 109.958194 
L 45.265843 110.358106 
L 45.846563 110.899795 
L 46.664333 111.395261 
L 48.330043 112.100544 
L 50.959523 112.888715 
L 54.695694 113.703483 
L 58.909113 114.388441 
L 64.471408 115.051165 
L 71.045359 115.58218 
L 77.961731 115.921736 
L 86.123805 116.0988 
L 94.551309 116.037543 
L 102.182428 115.740125 
L 109.408544 115.236169 
L 118.254319 114.37537 
L 144.921571 111.566494 
L 148.504372 111.263783 
L 148.504372 111.263783 
" style="fill:none;stroke:#000000;stroke-linecap:square;stroke-opacity:0.7;stroke-width:1.2;"/>
   </g>
   <g id="line2d_5">
    <path clip-path="url(#pe1d9e7e097)" d="M 148.140443 72.976813 
L 139.952271 72.223979 
L 131.663468 71.232768 
L 121.816122 69.800633 
L 104.179418 66.92785 
L 93.236567 65.260003 
L 86.172718 64.418385 
L 80.09667 63.932304 
L 74.455266 63.710014 
L 69.243552 63.715904 
L 63.880825 63.959658 
L 58.991482 64.44201 
L 55.72297 64.952424 
L 52.746526 65.60948 
L 50.597176 66.257892 
L 48.923172 66.928276 
L 47.28093 67.851008 
L 46.111515 68.932629 
L 45.773143 69.514332 
L 45.63086 70.399562 
L 45.869402 71.134306 
L 46.238677 71.634984 
L 47.138476 72.367444 
L 48.621208 73.111418 
L 49.726155 73.504178 
L 51.889497 74.064253 
L 54.432988 74.510955 
L 58.833912 74.978863 
L 64.580379 75.275391 
L 74.25053 75.462189 
L 94.799347 75.621836 
L 104.023577 75.432494 
L 114.441616 74.985208 
L 132.618988 73.93373 
L 143.481483 73.126584 
L 148.136017 72.693475 
L 148.136017 72.693475 
" style="fill:none;stroke:#000000;stroke-linecap:square;stroke-opacity:0.7;stroke-width:1.2;"/>
   </g>
   <g id="line2d_6">
    <path clip-path="url(#pe1d9e7e097)" d="M 280.430828 228.813349 
L 248.831048 224.769657 
L 231.844132 222.422712 
L 224.967354 221.700175 
L 219.181628 221.305074 
L 213.231369 221.14602 
L 207.607639 221.22964 
L 201.411988 221.56239 
L 195.533556 222.093092 
L 190.098143 222.779238 
L 185.494001 223.550511 
L 181.225942 224.52661 
L 179.244656 225.145001 
L 177.46583 225.898338 
L 176.39267 226.565218 
L 176.034972 226.875674 
L 175.600564 227.427471 
L 175.389094 228.187038 
L 175.522879 228.802972 
L 175.804539 229.275286 
L 176.407661 229.891133 
L 177.433825 230.589331 
L 179.180011 231.411615 
L 181.653452 232.225963 
L 184.031238 232.798232 
L 187.181922 233.359877 
L 191.661667 233.909608 
L 198.201328 234.401652 
L 206.786416 234.761115 
L 216.418248 234.939659 
L 224.118882 234.876176 
L 231.699615 234.562073 
L 239.139312 233.984644 
L 246.090668 233.226071 
L 255.741407 231.92611 
L 276.802365 228.962663 
L 280.433288 228.550136 
L 280.433288 228.550136 
" style="fill:none;stroke:#000000;stroke-linecap:square;stroke-opacity:0.7;stroke-width:1.2;"/>
   </g>
   <g id="line2d_7">
    <path clip-path="url(#pe1d9e7e097)" d="M 280.139508 190.54273 
L 236.769899 184.11533 
L 228.266322 183.061675 
L 221.212466 182.369886 
L 214.120701 181.904405 
L 207.543462 181.727929 
L 203.072779 181.774158 
L 196.992775 182.09357 
L 192.112896 182.605849 
L 187.809491 183.292814 
L 184.674784 183.969787 
L 181.565213 184.842695 
L 179.046207 185.780875 
L 177.579303 186.513007 
L 176.457192 187.334864 
L 176.015895 188.018964 
L 175.994528 188.291879 
L 176.198795 188.733381 
L 176.747573 189.150537 
L 177.493866 189.466933 
L 179.236493 189.890951 
L 181.631429 190.20132 
L 185.585491 190.427296 
L 191.116604 190.462971 
L 199.983411 190.233691 
L 214.068523 189.852564 
L 225.88403 189.811992 
L 248.110238 189.809967 
L 263.846818 189.756773 
L 272.807681 189.95017 
L 280.122289 190.29724 
L 280.122289 190.29724 
" style="fill:none;stroke:#000000;stroke-linecap:square;stroke-opacity:0.7;stroke-width:1.2;"/>
   </g>
   <g id="line2d_8">
    <path clip-path="url(#pe1d9e7e097)" d="M 279.860511 151.566932 
L 262.637133 149.710376 
L 229.435869 146.025973 
L 220.630392 145.293537 
L 214.540016 145.009563 
L 208.460892 144.989083 
L 202.748249 145.207474 
L 196.004653 145.70593 
L 188.892054 146.459135 
L 182.181173 147.40207 
L 178.272984 148.176848 
L 176.598042 148.728209 
L 176.156316 149.015868 
L 176.037949 149.310702 
L 176.22709 149.568606 
L 176.867087 149.88854 
L 177.867948 150.177191 
L 179.508817 150.494482 
L 183.264236 150.957804 
L 188.198593 151.330297 
L 195.622624 151.661012 
L 211.557311 152.063665 
L 223.829116 152.231601 
L 231.960226 152.109084 
L 241.419254 151.693247 
L 258.94483 150.793401 
L 265.573153 150.706529 
L 272.168847 150.848847 
L 279.194609 151.241433 
L 279.875702 151.291279 
L 279.875702 151.291279 
" style="fill:none;stroke:#000000;stroke-linecap:square;stroke-opacity:0.7;stroke-width:1.2;"/>
   </g>
   <g id="line2d_9">
    <path clip-path="url(#pe1d9e7e097)" d="M 279.768749 111.772427 
L 274.058306 109.783929 
L 267.227538 107.677907 
L 259.336813 105.494062 
L 250.207013 103.19526 
L 240.794048 101.062203 
L 232.674501 99.471132 
L 226.367038 98.474134 
L 221.586044 97.918848 
L 216.868861 97.592752 
L 212.148126 97.532002 
L 208.352479 97.698857 
L 204.132447 98.122832 
L 199.5453 98.873672 
L 195.472602 99.796074 
L 191.406742 100.966498 
L 187.668445 102.288018 
L 184.564395 103.607404 
L 181.49383 105.204809 
L 179.692122 106.378648 
L 178.140232 107.709868 
L 177.268844 108.868706 
L 176.946643 109.811505 
L 176.967497 110.492372 
L 177.241439 111.180807 
L 177.917434 111.962635 
L 179.288357 112.860481 
L 181.191641 113.652937 
L 183.572718 114.340342 
L 186.659484 114.976174 
L 191.173369 115.616984 
L 196.349247 116.103052 
L 203.05068 116.500495 
L 212.868911 116.82026 
L 221.968074 116.917126 
L 230.066818 116.79258 
L 236.61847 116.495716 
L 244.282915 115.901228 
L 252.854551 114.968513 
L 269.454782 112.837579 
L 279.733432 111.591801 
L 279.733432 111.591801 
" style="fill:none;stroke:#000000;stroke-linecap:square;stroke-opacity:0.7;stroke-width:1.2;"/>
   </g>
   <g id="line2d_10">
    <path clip-path="url(#pe1d9e7e097)" d="M 279.89073 71.78308 
L 274.525869 69.775476 
L 269.07981 67.957005 
L 262.169226 65.895668 
L 253.234708 63.465372 
L 240.636399 60.263758 
L 232.397802 58.392927 
L 226.862849 57.353313 
L 221.823607 56.633381 
L 217.298437 56.218182 
L 213.725265 56.071586 
L 209.632416 56.126246 
L 206.148332 56.379112 
L 202.635072 56.842384 
L 199.818342 57.37411 
L 195.977395 58.341766 
L 191.875455 59.703393 
L 188.59085 61.061057 
L 185.031168 62.848324 
L 182.771137 64.203438 
L 180.562818 65.77811 
L 179.229708 66.933693 
L 178.122667 68.143708 
L 177.320626 69.466426 
L 177.106401 70.220565 
L 177.097792 70.809144 
L 177.293494 71.456003 
L 177.751027 72.078244 
L 178.538277 72.671871 
L 179.896369 73.2768 
L 182.052234 73.829302 
L 184.894646 74.225976 
L 188.954301 74.48172 
L 193.385779 74.546019 
L 201.388579 74.404664 
L 225.470164 73.827106 
L 236.541993 73.521126 
L 246.146461 73.031163 
L 269.609851 71.674497 
L 277.783309 71.489202 
L 279.826011 71.484297 
L 279.826011 71.484297 
" style="fill:none;stroke:#000000;stroke-linecap:square;stroke-opacity:0.7;stroke-width:1.2;"/>
   </g>
   <g id="line2d_11">
    <path clip-path="url(#pe1d9e7e097)" d="M 411.827392 229.579453 
L 405.988252 227.426947 
L 399.490485 225.294058 
L 391.511607 222.931982 
L 379.857594 219.737282 
L 369.482643 217.091708 
L 362.344868 215.492773 
L 356.706368 214.463206 
L 351.664062 213.788436 
L 346.83836 213.411209 
L 342.53188 213.328252 
L 338.490917 213.487953 
L 335.008236 213.821632 
L 331.850528 214.289195 
L 328.637432 214.934732 
L 325.410924 215.767106 
L 322.187309 216.801148 
L 318.952777 218.072708 
L 315.564175 219.720029 
L 313.501377 220.938566 
L 311.518236 222.345672 
L 310.014721 223.67257 
L 308.903863 224.949415 
L 308.090406 226.348248 
L 307.770982 227.575426 
L 307.80468 228.420762 
L 308.059831 229.205082 
L 308.432931 229.807629 
L 309.26299 230.634264 
L 310.651543 231.486674 
L 312.403376 232.179733 
L 314.639147 232.761877 
L 317.925038 233.283237 
L 321.590647 233.592881 
L 326.542 233.747138 
L 333.068805 233.698676 
L 350.204222 233.210128 
L 364.735675 232.678453 
L 373.310795 232.148557 
L 382.928961 231.325613 
L 402.032268 229.60805 
L 409.422977 229.230401 
L 411.848177 229.172404 
L 411.848177 229.172404 
" style="fill:none;stroke:#000000;stroke-linecap:square;stroke-opacity:0.7;stroke-width:1.2;"/>
   </g>
   <g id="line2d_12">
    <path clip-path="url(#pe1d9e7e097)" d="M 411.504372 191.093805 
L 399.906435 189.154063 
L 379.479239 185.765236 
L 362.962096 182.716674 
L 356.0613 181.540923 
L 351.064496 180.869818 
L 346.472315 180.452836 
L 341.802483 180.254908 
L 337.230684 180.288083 
L 332.192823 180.580499 
L 327.747943 181.06042 
L 322.957071 181.823956 
L 319.152109 182.640761 
L 315.661868 183.603962 
L 312.79038 184.626427 
L 310.874276 185.509853 
L 309.424921 186.400174 
L 308.417218 187.332658 
L 308.030889 188.003673 
L 307.970054 188.734359 
L 308.249708 189.335552 
L 308.841455 189.893857 
L 309.740413 190.399716 
L 311.126747 190.903943 
L 313.213591 191.389561 
L 315.506383 191.730868 
L 318.879467 192.033469 
L 324.749126 192.263128 
L 333.79878 192.31745 
L 370.451352 192.188572 
L 382.78993 191.681722 
L 399.977168 190.995232 
L 411.518547 190.752891 
L 411.518547 190.752891 
" style="fill:none;stroke:#000000;stroke-linecap:square;stroke-opacity:0.7;stroke-width:1.2;"/>
   </g>
   <g id="line2d_13">
    <path clip-path="url(#pe1d9e7e097)" d="M 411.605337 151.021164 
L 395.744611 148.525178 
L 381.739395 146.218742 
L 358.244502 142.207311 
L 352.247483 141.430619 
L 346.358208 140.897797 
L 341.286651 140.673754 
L 337.14126 140.680489 
L 332.248061 140.934662 
L 327.538474 141.45659 
L 322.966693 142.254125 
L 319.038552 143.203977 
L 316.562973 143.953048 
L 313.067131 145.271128 
L 310.45722 146.567283 
L 309.010611 147.548034 
L 308.502154 148.030279 
L 308.110377 148.708071 
L 308.144536 149.093642 
L 308.376817 149.382642 
L 308.908268 149.665544 
L 310.212446 149.957051 
L 312.152377 150.098904 
L 315.700918 150.068581 
L 322.199507 149.697112 
L 340.678422 148.485403 
L 347.933028 148.261019 
L 357.381858 148.225324 
L 389.420934 148.557064 
L 396.49247 148.899636 
L 402.67382 149.414498 
L 408.353466 150.091447 
L 411.661061 150.585295 
L 411.661061 150.585295 
" style="fill:none;stroke:#000000;stroke-linecap:square;stroke-opacity:0.7;stroke-width:1.2;"/>
   </g>
   <g id="line2d_14">
    <path clip-path="url(#pe1d9e7e097)" d="M 411.800858 111.142561 
L 403.17867 109.195809 
L 391.264901 106.761723 
L 369.132568 102.50319 
L 361.023535 101.109982 
L 355.044865 100.282347 
L 349.984258 99.792271 
L 345.334174 99.553021 
L 341.08425 99.527731 
L 336.539136 99.712188 
L 332.099462 100.109285 
L 327.833392 100.704916 
L 324.289209 101.377241 
L 321.073947 102.150434 
L 317.715361 103.164532 
L 314.599566 104.36118 
L 311.992566 105.652313 
L 310.376282 106.681872 
L 309.38288 107.48359 
L 308.553835 108.388698 
L 308.10076 109.27317 
L 308.059641 109.821368 
L 308.27759 110.340097 
L 309.06717 110.921429 
L 310.148009 111.251677 
L 312.090438 111.471162 
L 314.784614 111.469648 
L 318.952107 111.198025 
L 336.979599 109.693801 
L 343.297504 109.477162 
L 350.261406 109.495281 
L 360.280811 109.824867 
L 373.255083 110.226256 
L 387.480967 110.407494 
L 406.931029 110.691568 
L 411.787312 110.818633 
L 411.787312 110.818633 
" style="fill:none;stroke:#000000;stroke-linecap:square;stroke-opacity:0.7;stroke-width:1.2;"/>
   </g>
   <g id="line2d_15">
    <path clip-path="url(#pe1d9e7e097)" d="M 411.812471 71.209691 
L 402.839423 69.900802 
L 385.687093 67.710107 
L 361.163438 64.705462 
L 353.146849 63.945005 
L 347.329997 63.591098 
L 341.874305 63.478588 
L 336.899365 63.594538 
L 332.62547 63.871836 
L 327.877384 64.379905 
L 322.871799 65.159014 
L 318.075608 66.177089 
L 313.958797 67.332062 
L 311.327731 68.283645 
L 309.209901 69.301977 
L 308.36365 69.892563 
L 307.982986 70.338643 
L 307.942591 70.748372 
L 308.198499 71.011949 
L 308.535156 71.16036 
L 309.613824 71.360963 
L 311.103574 71.424512 
L 314.068807 71.305955 
L 319.22664 70.821539 
L 336.238058 69.006676 
L 342.09648 68.661992 
L 348.325579 68.562446 
L 354.070487 68.691637 
L 365.086912 69.221323 
L 377.231023 69.735392 
L 411.836959 70.826738 
L 411.836959 70.826738 
" style="fill:none;stroke:#000000;stroke-linecap:square;stroke-opacity:0.7;stroke-width:1.2;"/>
   </g>
   <g id="line2d_16">
    <path clip-path="url(#pe1d9e7e097)" d="M 543.329329 230.984652 
L 535.070952 229.711301 
L 525.489208 227.993846 
L 515.52558 225.963476 
L 507.368199 224.097558 
L 499.50964 222.078936 
L 490.044111 219.5763 
L 485.98102 218.706965 
L 482.500166 218.139952 
L 477.913986 217.652748 
L 473.727705 217.447228 
L 469.088679 217.459349 
L 463.916616 217.7486 
L 458.835993 218.314406 
L 454.378543 219.06444 
L 451.362617 219.734416 
L 447.856453 220.732999 
L 445.038816 221.78789 
L 442.840197 222.88035 
L 441.488931 223.776855 
L 440.304453 224.904448 
L 439.830225 225.637199 
L 439.579536 226.520203 
L 439.644339 227.170714 
L 439.945013 227.794595 
L 440.228402 228.133755 
L 441.235363 228.866972 
L 442.63573 229.448458 
L 443.950415 229.795129 
L 445.888553 230.118188 
L 449.667 230.40216 
L 453.842124 230.451868 
L 463.408398 230.241335 
L 474.292243 230.085623 
L 485.544681 230.202333 
L 499.674075 230.339154 
L 511.909635 230.227951 
L 527.121044 230.107608 
L 537.22922 230.273812 
L 543.371174 230.489139 
L 543.371174 230.489139 
" style="fill:none;stroke:#000000;stroke-linecap:square;stroke-opacity:0.7;stroke-width:1.2;"/>
   </g>
   <g id="line2d_17">
    <path clip-path="url(#pe1d9e7e097)" d="M 543.106313 190.647152 
L 531.132206 188.03085 
L 512.024862 184.096729 
L 501.864998 182.191289 
L 495.068586 181.105613 
L 488.863111 180.319998 
L 484.02793 179.877434 
L 479.16463 179.604045 
L 474.538444 179.520042 
L 469.523681 179.640607 
L 464.648932 179.98848 
L 459.414108 180.644169 
L 454.32987 181.60447 
L 450.417983 182.608099 
L 447.274014 183.631534 
L 445.286555 184.413152 
L 443.014964 185.495727 
L 440.758919 186.944353 
L 439.708309 187.968409 
L 439.435796 188.361913 
L 439.125318 189.280098 
L 439.226386 189.923716 
L 439.679665 190.591899 
L 439.855986 190.756155 
L 440.580553 191.254835 
L 441.597787 191.732707 
L 443.664071 192.378979 
L 445.896333 192.848393 
L 449.925977 193.40903 
L 455.704496 193.898678 
L 464.818391 194.387918 
L 491.119375 195.562193 
L 497.531814 195.543072 
L 503.240084 195.298428 
L 509.889832 194.75482 
L 517.740175 193.850001 
L 528.948495 192.290017 
L 543.113325 190.229598 
L 543.113325 190.229598 
" style="fill:none;stroke:#000000;stroke-linecap:square;stroke-opacity:0.7;stroke-width:1.2;"/>
   </g>
   <g id="line2d_18">
    <path clip-path="url(#pe1d9e7e097)" d="M 543.316536 150.541509 
L 535.50183 148.782238 
L 523.638354 146.355715 
L 512.20983 144.229324 
L 503.502735 142.846788 
L 496.039354 141.877066 
L 488.427058 141.108376 
L 481.241503 140.608198 
L 475.485518 140.406503 
L 470.501991 140.42264 
L 465.184773 140.69298 
L 461.068082 141.122053 
L 457.10053 141.750592 
L 452.752715 142.726005 
L 449.360615 143.742344 
L 446.611747 144.782239 
L 444.331829 145.85901 
L 442.801036 146.766259 
L 441.517188 147.786015 
L 440.966186 148.466535 
L 440.754528 149.07466 
L 440.870011 149.570728 
L 441.183576 149.910318 
L 441.730109 150.211738 
L 443.291708 150.603574 
L 445.494111 150.789624 
L 449.270729 150.763434 
L 453.838839 150.496786 
L 471.258136 149.284313 
L 476.959985 149.19824 
L 482.889789 149.339695 
L 491.883524 149.829731 
L 502.367889 150.365449 
L 509.491019 150.519203 
L 518.728972 150.464711 
L 543.28196 150.145761 
L 543.333026 150.146279 
L 543.333026 150.146279 
" style="fill:none;stroke:#000000;stroke-linecap:square;stroke-opacity:0.7;stroke-width:1.2;"/>
   </g>
   <g id="line2d_19">
    <path clip-path="url(#pe1d9e7e097)" d="M 543.430564 111.522309 
L 536.085718 109.873831 
L 524.240378 107.475705 
L 510.44401 104.89209 
L 501.133912 103.343936 
L 493.85688 102.344294 
L 487.701615 101.716091 
L 482.867322 101.39933 
L 476.693294 101.250164 
L 471.711961 101.348344 
L 466.018025 101.704005 
L 461.160688 102.21896 
L 455.633382 103.063169 
L 451.17397 103.982938 
L 447.407121 104.987823 
L 444.827669 105.868186 
L 443.37353 106.488027 
L 441.925075 107.292856 
L 441.111239 107.963662 
L 440.660967 108.704925 
L 440.630034 109.087601 
L 440.755854 109.481219 
L 441.117714 109.932739 
L 441.767352 110.397262 
L 442.925419 110.927041 
L 445.333306 111.611221 
L 448.672319 112.178933 
L 452.718557 112.578779 
L 458.500506 112.856783 
L 467.349368 112.992577 
L 482.869915 113.2424 
L 495.085089 113.394071 
L 502.372459 113.276891 
L 510.744036 112.89907 
L 540.998327 111.194763 
L 543.420483 111.137092 
L 543.420483 111.137092 
" style="fill:none;stroke:#000000;stroke-linecap:square;stroke-opacity:0.7;stroke-width:1.2;"/>
   </g>
   <g id="line2d_20">
    <path clip-path="url(#pe1d9e7e097)" d="M 543.278206 72.248534 
L 537.114564 69.700793 
L 529.832831 66.933127 
L 519.230633 63.182985 
L 509.786312 60.059998 
L 501.291317 57.479455 
L 494.885456 55.771041 
L 490.057413 54.697325 
L 485.550647 53.915411 
L 480.778623 53.353923 
L 476.012499 53.082056 
L 471.625669 53.09269 
L 467.244759 53.360973 
L 462.98574 53.886204 
L 459.177731 54.603968 
L 455.647785 55.516481 
L 453.235626 56.305414 
L 449.687878 57.777008 
L 446.761258 59.365375 
L 444.993553 60.555235 
L 442.843603 62.348197 
L 441.058033 64.312755 
L 439.77447 66.30693 
L 439.162521 67.779854 
L 438.891171 68.996894 
L 438.887333 70.389608 
L 439.303168 71.766698 
L 439.552917 72.204694 
L 440.119685 72.91098 
L 440.84269 73.530788 
L 442.118118 74.257822 
L 443.677102 74.815796 
L 446.130439 75.310378 
L 449.366756 75.586565 
L 453.231199 75.638603 
L 460.733938 75.418002 
L 473.695398 74.99155 
L 502.671029 74.306728 
L 512.282918 73.670615 
L 534.444698 72.071337 
L 543.26041 71.716245 
L 543.26041 71.716245 
" style="fill:none;stroke:#000000;stroke-linecap:square;stroke-opacity:0.7;stroke-width:1.2;"/>
   </g>
   <g id="line2d_21">
    <path clip-path="url(#pe1d9e7e097)" d="M 674.518936 230.984888 
L 669.187897 228.978218 
L 662.721385 226.806401 
L 655.225412 224.564225 
L 648.068083 222.633273 
L 639.713637 220.61187 
L 631.73749 218.93108 
L 624.925892 217.729207 
L 619.370787 216.953718 
L 614.608869 216.474099 
L 609.955122 216.206083 
L 605.529212 216.166945 
L 600.819554 216.38969 
L 596.985655 216.795659 
L 593.598084 217.338368 
L 589.407597 218.270723 
L 585.524001 219.420002 
L 581.634938 220.887416 
L 578.885597 222.15612 
L 576.949588 223.198009 
L 574.479326 224.793538 
L 572.960494 226.060351 
L 572.291633 226.807147 
L 571.867291 227.528192 
L 571.763808 228.142406 
L 571.890056 228.519092 
L 572.273005 228.897477 
L 573.112405 229.248161 
L 573.573601 229.352387 
L 575.291115 229.525874 
L 577.626879 229.514151 
L 580.919277 229.293986 
L 587.590988 228.570977 
L 598.938145 227.286925 
L 605.271022 226.825387 
L 610.767745 226.661255 
L 616.597068 226.712291 
L 624.714615 227.046031 
L 645.378022 228.267082 
L 659.618827 229.213144 
L 670.421705 230.156785 
L 674.529545 230.581951 
L 674.529545 230.581951 
" style="fill:none;stroke:#000000;stroke-linecap:square;stroke-opacity:0.7;stroke-width:1.2;"/>
   </g>
   <g id="line2d_22">
    <path clip-path="url(#pe1d9e7e097)" d="M 675.311615 189.485234 
L 662.332653 188.168971 
L 652.152263 186.874236 
L 634.201641 184.499488 
L 626.184233 183.692337 
L 619.018486 183.208489 
L 612.719344 182.991635 
L 605.329081 182.988003 
L 598.362336 183.224534 
L 591.783514 183.667532 
L 586.040624 184.259292 
L 580.848952 185.022795 
L 577.44782 185.715348 
L 575.676836 186.185081 
L 574.114601 186.71965 
L 572.76729 187.394711 
L 572.172103 187.916958 
L 571.949799 188.458134 
L 572.109277 188.977515 
L 572.632485 189.490906 
L 573.399324 189.937456 
L 574.877831 190.51807 
L 576.605923 191.003838 
L 579.773918 191.643229 
L 584.206864 192.252797 
L 590.009189 192.781611 
L 598.000691 193.257588 
L 612.122844 193.839379 
L 620.983571 194.03108 
L 628.319444 193.946645 
L 634.865672 193.615085 
L 640.699471 193.113396 
L 648.904967 192.156358 
L 669.554426 189.580875 
L 675.323065 189.091574 
L 675.323065 189.091574 
" style="fill:none;stroke:#000000;stroke-linecap:square;stroke-opacity:0.7;stroke-width:1.2;"/>
   </g>
   <g id="line2d_23">
    <path clip-path="url(#pe1d9e7e097)" d="M 674.702122 152.083399 
L 667.171497 150.338764 
L 658.62912 148.557616 
L 648.806425 146.729082 
L 637.83596 144.934421 
L 627.085322 143.413688 
L 618.45691 142.42147 
L 611.973873 141.913594 
L 607.087042 141.734237 
L 601.564105 141.791679 
L 596.208283 142.134182 
L 591.922772 142.615976 
L 587.124954 143.376735 
L 582.668537 144.304557 
L 578.931294 145.277311 
L 576.506452 146.040378 
L 573.67269 147.175256 
L 572.133761 148.086609 
L 571.561667 148.661906 
L 571.352612 149.310825 
L 571.547523 149.804896 
L 571.845019 150.115556 
L 572.556995 150.57476 
L 573.892085 151.127413 
L 576.571224 151.852768 
L 579.893424 152.472085 
L 584.770522 153.118052 
L 591.244678 153.704266 
L 598.616996 154.134276 
L 607.647902 154.426517 
L 617.745664 154.507337 
L 626.064109 154.365381 
L 634.444556 154.012123 
L 645.997384 153.267969 
L 663.30059 152.170952 
L 674.733477 151.666179 
L 674.733477 151.666179 
" style="fill:none;stroke:#000000;stroke-linecap:square;stroke-opacity:0.7;stroke-width:1.2;"/>
   </g>
   <g id="line2d_24">
    <path clip-path="url(#pe1d9e7e097)" d="M 675.403384 110.321402 
L 645.121222 105.054941 
L 621.294282 100.31777 
L 616.057447 99.658931 
L 611.215603 99.300953 
L 606.157927 99.203719 
L 601.314611 99.373556 
L 596.992364 99.735215 
L 592.756765 100.278863 
L 588.134435 101.093785 
L 584.975754 101.798508 
L 580.915534 102.922747 
L 577.604733 104.094902 
L 575.29993 105.134779 
L 573.57995 106.134998 
L 572.316333 107.135415 
L 571.513719 108.106153 
L 571.210078 108.75393 
L 571.117464 109.746194 
L 571.335869 110.432359 
L 571.645297 110.917887 
L 572.27403 111.555403 
L 573.354492 112.276875 
L 574.065033 112.630679 
L 576.938632 113.600621 
L 580.009739 114.206467 
L 583.400385 114.599563 
L 587.923999 114.861549 
L 594.106534 114.962923 
L 605.980784 114.882397 
L 619.505715 114.616183 
L 629.128131 114.20732 
L 638.47384 113.582086 
L 648.577471 112.670778 
L 663.261118 111.0782 
L 672.885448 110.110777 
L 675.38877 109.918064 
L 675.38877 109.918064 
" style="fill:none;stroke:#000000;stroke-linecap:square;stroke-opacity:0.7;stroke-width:1.2;"/>
   </g>
   <g id="line2d_25">
    <path clip-path="url(#pe1d9e7e097)" d="M 675.472347 70.335225 
L 669.511156 68.653357 
L 663.199186 67.099444 
L 648.756615 63.871152 
L 633.559888 60.61285 
L 626.785189 59.373006 
L 620.276433 58.422289 
L 614.585809 57.839594 
L 609.446773 57.553928 
L 604.9326 57.524585 
L 600.242181 57.748455 
L 597.0286 58.070009 
L 592.459069 58.789439 
L 588.572444 59.669556 
L 584.496154 60.89394 
L 581.545138 62.004628 
L 578.306042 63.49299 
L 575.672022 64.985757 
L 573.553143 66.489891 
L 572.1459 67.823803 
L 571.444623 68.874932 
L 571.28525 69.608532 
L 571.47484 70.158912 
L 571.833366 70.499742 
L 571.988644 70.595204 
L 572.711438 70.880961 
L 574.180391 71.128122 
L 575.774383 71.191994 
L 578.912085 71.051872 
L 583.508497 70.558272 
L 591.418709 69.415796 
L 601.248831 68.036688 
L 605.827415 67.581421 
L 611.188243 67.30067 
L 616.186924 67.301329 
L 621.488101 67.530263 
L 630.786778 68.218441 
L 641.480079 68.951924 
L 649.931171 69.288975 
L 663.89891 69.545253 
L 674.241583 69.814516 
L 675.490909 69.866515 
L 675.490909 69.866515 
" style="fill:none;stroke:#000000;stroke-linecap:square;stroke-opacity:0.7;stroke-width:1.2;"/>
   </g>
  </g>
 </g>
 <defs>
  <clipPath id="pe1d9e7e097">
   <rect height="262.08" width="694.08" x="12.96" y="12.96"/>
  </clipPath>
 </defs>
</svg>
