<?xml version="1.0" encoding="utf-8" standalone="no"?>
<!DOCTYPE svg PUBLIC "-//W3C//DTD SVG 1.1//EN"
  "http://www.w3.org/Graphics/SVG/1.1/DTD/svg11.dtd">
<!-- Created with matplotlib (https://matplotlib.org/) -->
<svg height="288pt" version="1.1" viewBox="0 0 720 288" width="720pt" xmlns="http://www.w3.org/2000/svg" xmlns:xlink="http://www.w3.org/1999/xlink">
 <metadata>
  <rdf:RDF xmlns:cc="http://creativecommons.org/ns#" xmlns:dc="http://purl.org/dc/elements/1.1/" xmlns:rdf="http://www.w3.org/1999/02/22-rdf-syntax-ns#">
   <cc:Work>
    <dc:type rdf:resource="http://purl.org/dc/dcmitype/StillImage"/>
    <dc:date>2021-05-05T23:28:04.498366</dc:date>
    <dc:format>image/svg+xml</dc:format>
    <dc:creator>
     <cc:Agent>
      <dc:title>Matplotlib v3.3.4, https://matplotlib.org/</dc:title>
     </cc:Agent>
    </dc:creator>
   </cc:Work>
  </rdf:RDF>
 </metadata>
 <defs>
  <style type="text/css">*{stroke-linecap:butt;stroke-linejoin:round;}</style>
 </defs>
 <g id="figure_1">
  <g id="patch_1">
   <path d="M 0 288 
L 720 288 
L 720 0 
L 0 0 
z
" style="fill:#ffffff;"/>
  </g>
  <g id="axes_1">
   <g id="line2d_1">
    <path clip-path="url(#pe8864b2e56)" d="M 148.903639 226.727506 
L 137.206524 225.394144 
L 125.604167 223.832358 
L 104.681526 220.735885 
L 85.972748 217.967686 
L 80.318226 217.388894 
L 75.547187 217.116087 
L 71.006141 217.067248 
L 65.951696 217.271696 
L 61.593767 217.687227 
L 57.181623 218.375317 
L 54.175851 219.041784 
L 51.156568 219.940207 
L 49.223512 220.695684 
L 47.521911 221.55269 
L 45.990406 222.616476 
L 45.174431 223.453853 
L 44.685464 224.273533 
L 44.516343 224.918083 
L 44.600392 225.768788 
L 44.827572 226.266798 
L 45.255818 226.82101 
L 46.211883 227.590304 
L 47.907112 228.442144 
L 50.058382 229.152353 
L 53.19252 229.842538 
L 56.526522 230.333015 
L 61.754255 230.815419 
L 67.818235 231.110918 
L 75.289141 231.228347 
L 84.617101 231.113202 
L 97.371338 230.687143 
L 121.300846 229.643481 
L 130.277027 229.029898 
L 137.38809 228.301741 
L 143.46627 227.446783 
L 148.926991 226.500676 
L 148.926991 226.500676 
" style="fill:none;stroke:#000000;stroke-linecap:square;stroke-opacity:0.7;stroke-width:1.2;"/>
   </g>
   <g id="line2d_2">
    <path clip-path="url(#pe8864b2e56)" d="M 148.909714 187.191215 
L 132.319306 182.374039 
L 115.946538 177.849482 
L 104.600831 174.895027 
L 96.13174 172.915208 
L 90.318678 171.781408 
L 85.178677 171.013213 
L 81.09293 170.601015 
L 77.177935 170.396746 
L 72.716809 170.41818 
L 69.454616 170.624123 
L 66.125303 171.020893 
L 62.833247 171.625787 
L 60.395614 172.233252 
L 57.508976 173.164883 
L 54.792247 174.30406 
L 52.404033 175.58078 
L 50.151672 177.108265 
L 48.109866 178.892341 
L 46.68204 180.511459 
L 45.668184 182.031915 
L 44.970685 183.600485 
L 44.734092 184.749532 
L 44.779364 185.712708 
L 45.018472 186.434129 
L 45.272935 186.858413 
L 45.724208 187.360373 
L 46.710128 188.031756 
L 48.14162 188.594382 
L 50.153784 189.03715 
L 52.152287 189.278509 
L 55.302788 189.452443 
L 60.436302 189.4754 
L 88.42316 189.130237 
L 111.979595 189.269751 
L 121.33173 189.074898 
L 130.743208 188.654208 
L 138.2685 188.109166 
L 146.600355 187.270294 
L 148.921456 186.996211 
L 148.921456 186.996211 
" style="fill:none;stroke:#000000;stroke-linecap:square;stroke-opacity:0.7;stroke-width:1.2;"/>
   </g>
   <g id="line2d_3">
    <path clip-path="url(#pe8864b2e56)" d="M 148.537087 148.26257 
L 143.455005 146.107138 
L 137.818956 143.957723 
L 131.924551 141.963452 
L 126.175311 140.230301 
L 120.02782 138.591962 
L 113.602925 137.139135 
L 107.847021 136.096415 
L 102.019986 135.307433 
L 96.155729 134.776206 
L 89.939926 134.477494 
L 84.291865 134.430053 
L 79.278168 134.576559 
L 74.225021 134.931582 
L 69.459462 135.494327 
L 65.672443 136.130069 
L 62.073968 136.918563 
L 58.05895 138.05598 
L 54.449576 139.373132 
L 51.83019 140.561158 
L 49.642313 141.760743 
L 48.041932 142.811386 
L 46.289945 144.257178 
L 45.365032 145.32977 
L 44.938583 146.207199 
L 44.919544 146.806036 
L 45.094401 147.181006 
L 45.575309 147.591939 
L 46.652601 147.990993 
L 47.79899 148.190201 
L 49.498631 148.323094 
L 53.179127 148.343265 
L 58.775455 148.130374 
L 80.667878 147.12552 
L 91.443651 146.91328 
L 111.513829 146.804594 
L 124.93871 146.887411 
L 134.614056 147.172584 
L 142.454168 147.620832 
L 148.502959 148.119296 
L 148.502959 148.119296 
" style="fill:none;stroke:#000000;stroke-linecap:square;stroke-opacity:0.7;stroke-width:1.2;"/>
   </g>
   <g id="line2d_4">
    <path clip-path="url(#pe8864b2e56)" d="M 148.831856 108.24691 
L 142.606106 106.516393 
L 135.58957 104.80606 
L 127.833736 103.173251 
L 118.578506 101.45035 
L 108.418039 99.771097 
L 100.558942 98.662766 
L 93.277241 97.845323 
L 86.871201 97.351993 
L 81.929409 97.163611 
L 77.260923 97.180297 
L 72.099459 97.462244 
L 67.564502 97.972029 
L 64.079646 98.549848 
L 59.899785 99.481849 
L 56.492228 100.462834 
L 53.446477 101.543232 
L 50.101737 103.023934 
L 47.545843 104.482567 
L 46.068963 105.587465 
L 45.075185 106.655489 
L 44.73481 107.353461 
L 44.709186 107.841263 
L 44.920967 108.294002 
L 45.474959 108.730693 
L 46.577577 109.133548 
L 48.019042 109.394188 
L 50.821814 109.599257 
L 55.410902 109.610981 
L 62.389536 109.357712 
L 80.246854 108.38766 
L 99.722846 107.433841 
L 110.565978 107.106045 
L 121.734499 107.006196 
L 131.496426 107.12942 
L 140.192279 107.465441 
L 147.334601 107.945727 
L 148.82986 108.069223 
L 148.82986 108.069223 
" style="fill:none;stroke:#000000;stroke-linecap:square;stroke-opacity:0.7;stroke-width:1.2;"/>
   </g>
   <g id="line2d_5">
    <path clip-path="url(#pe8864b2e56)" d="M 148.868024 68.831434 
L 110.964851 63.207852 
L 103.940683 62.503904 
L 97.129907 62.027261 
L 89.943585 61.736642 
L 83.257465 61.660042 
L 76.648252 61.785581 
L 70.718438 62.086602 
L 64.249864 62.6405 
L 58.779202 63.327236 
L 53.851603 64.178439 
L 50.541977 64.94127 
L 47.619363 65.852881 
L 46.156582 66.492717 
L 45.169501 67.132475 
L 44.715193 67.716433 
L 44.706984 68.186133 
L 44.955575 68.542469 
L 45.530861 68.928193 
L 46.717907 69.374383 
L 48.27438 69.737938 
L 51.468976 70.191642 
L 55.882686 70.538561 
L 62.140687 70.777959 
L 70.994515 70.880059 
L 85.977546 70.799821 
L 99.105863 70.551435 
L 111.868626 70.075209 
L 144.066986 68.682017 
L 148.871814 68.63768 
L 148.871814 68.63768 
" style="fill:none;stroke:#000000;stroke-linecap:square;stroke-opacity:0.7;stroke-width:1.2;"/>
   </g>
   <g id="line2d_6">
    <path clip-path="url(#pe8864b2e56)" d="M 280.58763 226.606089 
L 262.903904 223.250516 
L 253.255338 221.617624 
L 245.050368 220.45851 
L 237.996145 219.683305 
L 230.716182 219.106854 
L 222.432388 218.68662 
L 214.402645 218.512625 
L 207.306936 218.615105 
L 201.613141 218.897177 
L 194.934119 219.473012 
L 190.027297 220.096285 
L 185.535789 220.874555 
L 181.928372 221.731029 
L 179.689603 222.446088 
L 177.46258 223.438247 
L 176.09139 224.418303 
L 175.682419 224.974084 
L 175.59657 225.49529 
L 175.775578 225.878948 
L 176.091869 226.1653 
L 176.606887 226.44356 
L 178.02412 226.867237 
L 180.378496 227.213073 
L 182.904628 227.397451 
L 189.527183 227.55217 
L 207.177428 227.523944 
L 234.383944 227.441186 
L 250.264392 227.066494 
L 274.58004 226.485631 
L 280.602842 226.387959 
L 280.602842 226.387959 
" style="fill:none;stroke:#000000;stroke-linecap:square;stroke-opacity:0.7;stroke-width:1.2;"/>
   </g>
   <g id="line2d_7">
    <path clip-path="url(#pe8864b2e56)" d="M 280.448432 187.353839 
L 265.004668 185.101281 
L 230.966123 179.939279 
L 221.676888 178.787087 
L 215.989851 178.248829 
L 210.393048 177.92495 
L 205.288405 177.84944 
L 200.497296 177.988744 
L 195.567508 178.363707 
L 191.42251 178.887761 
L 188.237958 179.449518 
L 184.716782 180.285607 
L 181.72266 181.259758 
L 179.685744 182.153422 
L 178.098477 183.092197 
L 177.113034 183.896675 
L 176.261129 184.997243 
L 175.987573 185.784786 
L 175.9719 186.400542 
L 176.196626 187.138904 
L 176.656687 187.813013 
L 176.920204 188.086468 
L 178.282359 189.062314 
L 180.211197 189.942225 
L 182.431515 190.652497 
L 184.873814 191.235789 
L 188.549299 191.883821 
L 192.827015 192.420311 
L 198.995506 192.924971 
L 205.29046 193.193318 
L 211.093612 193.24676 
L 218.131094 193.083907 
L 227.037554 192.602978 
L 239.584262 191.669235 
L 255.463047 190.297429 
L 265.442777 189.246189 
L 274.468481 188.064462 
L 280.464755 187.146806 
L 280.464755 187.146806 
" style="fill:none;stroke:#000000;stroke-linecap:square;stroke-opacity:0.7;stroke-width:1.2;"/>
   </g>
   <g id="line2d_8">
    <path clip-path="url(#pe8864b2e56)" d="M 280.347423 147.960517 
L 271.924299 145.640857 
L 262.587377 143.30465 
L 252.74672 141.058681 
L 245.533569 139.596861 
L 239.530974 138.562316 
L 233.814626 137.765316 
L 227.848469 137.139099 
L 221.87977 136.72138 
L 215.865166 136.518419 
L 210.223588 136.550167 
L 205.631702 136.759988 
L 201.155616 137.14789 
L 196.433747 137.782208 
L 191.831415 138.660611 
L 188.268119 139.554061 
L 185.171933 140.522165 
L 182.290951 141.640813 
L 180.63293 142.422746 
L 178.89205 143.42139 
L 177.421473 144.548393 
L 176.614963 145.499419 
L 176.300818 146.239118 
L 176.290246 146.908601 
L 176.524308 147.491882 
L 176.93505 147.998424 
L 177.933455 148.743046 
L 179.69932 149.583789 
L 181.421993 150.182836 
L 184.910236 151.099659 
L 188.798474 151.873738 
L 193.197937 152.562631 
L 198.302139 153.185904 
L 205.05271 153.778541 
L 212.260467 154.154707 
L 219.705297 154.278809 
L 225.610845 154.179824 
L 231.712381 153.873577 
L 237.643833 153.359028 
L 244.706841 152.495961 
L 256.567386 150.747363 
L 269.813751 148.854904 
L 277.232404 148.001291 
L 280.377641 147.711545 
L 280.377641 147.711545 
" style="fill:none;stroke:#000000;stroke-linecap:square;stroke-opacity:0.7;stroke-width:1.2;"/>
   </g>
   <g id="line2d_9">
    <path clip-path="url(#pe8864b2e56)" d="M 280.586732 108.088434 
L 262.341333 105.53109 
L 240.307362 102.35016 
L 230.723845 101.243066 
L 222.445093 100.506162 
L 216.42658 100.149177 
L 210.541161 100.006361 
L 204.854927 100.107646 
L 199.9234 100.409029 
L 195.069049 100.918021 
L 190.751483 101.571436 
L 186.178588 102.518943 
L 182.981092 103.396224 
L 179.919793 104.506272 
L 178.203539 105.349431 
L 177.161709 106.051322 
L 176.571396 106.664293 
L 176.357845 107.264852 
L 176.508754 107.688076 
L 176.747016 107.92461 
L 177.45193 108.296628 
L 178.61176 108.624272 
L 180.373187 108.902532 
L 183.361494 109.144584 
L 188.096855 109.296655 
L 197.484347 109.325398 
L 237.563854 109.024276 
L 262.225174 108.635311 
L 273.159871 108.254295 
L 280.5864 107.884215 
L 280.5864 107.884215 
" style="fill:none;stroke:#000000;stroke-linecap:square;stroke-opacity:0.7;stroke-width:1.2;"/>
   </g>
   <g id="line2d_10">
    <path clip-path="url(#pe8864b2e56)" d="M 280.619517 68.562791 
L 271.910184 65.710826 
L 262.446052 62.8602 
L 253.833849 60.500446 
L 246.725285 58.767748 
L 240.652125 57.493745 
L 234.781084 56.483531 
L 229.018766 55.736558 
L 223.626134 55.285276 
L 218.626551 55.103369 
L 213.351061 55.174322 
L 208.606104 55.474217 
L 204.281537 55.944201 
L 199.847505 56.62714 
L 195.11892 57.600122 
L 191.456718 58.556292 
L 187.9973 59.663303 
L 184.64401 60.990783 
L 181.815437 62.400109 
L 179.636854 63.791372 
L 178.820115 64.433536 
L 177.431944 65.857201 
L 176.902505 66.695135 
L 176.585229 67.686148 
L 176.595399 68.421082 
L 176.838532 69.140068 
L 177.285308 69.789253 
L 177.891869 70.367596 
L 178.583096 70.858742 
L 180.1882 71.690501 
L 182.074668 72.396773 
L 184.031229 72.963558 
L 187.88085 73.795336 
L 191.336758 74.33972 
L 196.293955 74.899584 
L 201.908768 75.300841 
L 208.351136 75.518186 
L 215.065714 75.507172 
L 222.374499 75.247738 
L 229.849923 74.729541 
L 237.234856 73.968902 
L 244.487941 73.005736 
L 259.322134 70.726116 
L 268.911545 69.375545 
L 275.60967 68.662684 
L 280.649773 68.304301 
L 280.649773 68.304301 
" style="fill:none;stroke:#000000;stroke-linecap:square;stroke-opacity:0.7;stroke-width:1.2;"/>
   </g>
   <g id="line2d_11">
    <path clip-path="url(#pe8864b2e56)" d="M 411.759206 227.223424 
L 396.97611 224.492448 
L 383.873304 222.254505 
L 375.20612 221.000753 
L 368.579777 220.243079 
L 361.258242 219.611013 
L 353.174973 219.121895 
L 344.918024 218.842613 
L 339.091315 218.825303 
L 332.948086 219.035621 
L 328.159587 219.40836 
L 323.839472 219.937571 
L 319.684782 220.658004 
L 316.351272 221.427113 
L 313.289932 222.341393 
L 310.757757 223.338676 
L 309.375398 224.060959 
L 308.369512 224.78909 
L 307.914538 225.317666 
L 307.741176 225.89652 
L 307.92379 226.377113 
L 308.365926 226.776703 
L 309.175213 227.188482 
L 310.637029 227.649126 
L 312.969911 228.120632 
L 317.210252 228.657392 
L 323.008664 229.098365 
L 330.517529 229.422772 
L 340.873239 229.641601 
L 355.574397 229.718949 
L 365.113934 229.560947 
L 373.586486 229.190398 
L 388.437699 228.234674 
L 402.333789 227.427874 
L 411.746064 227.044522 
L 411.746064 227.044522 
" style="fill:none;stroke:#000000;stroke-linecap:square;stroke-opacity:0.7;stroke-width:1.2;"/>
   </g>
   <g id="line2d_12">
    <path clip-path="url(#pe8864b2e56)" d="M 412.290693 186.872242 
L 403.962001 184.62757 
L 395.100661 182.490774 
L 383.946022 180.017854 
L 374.764578 178.198816 
L 368.033925 177.101263 
L 361.818918 176.330287 
L 355.65415 175.822599 
L 349.620791 175.591201 
L 344.192046 175.628452 
L 339.529202 175.866187 
L 335.126945 176.282241 
L 330.585451 176.923863 
L 326.231724 177.761261 
L 322.298901 178.728656 
L 318.115134 180.020457 
L 314.842489 181.275914 
L 312.804247 182.211285 
L 310.831033 183.291857 
L 309.344383 184.310985 
L 308.31411 185.26911 
L 307.798862 186.037349 
L 307.638159 186.762284 
L 307.776884 187.286123 
L 308.246202 187.854964 
L 309.241876 188.463465 
L 310.582332 188.961547 
L 312.698056 189.480175 
L 316.250081 190.041123 
L 321.109014 190.520451 
L 326.792507 190.858156 
L 334.094682 191.063936 
L 341.375433 191.061505 
L 348.857918 190.85879 
L 357.830641 190.372703 
L 367.166775 189.639385 
L 384.209306 188.005657 
L 394.895706 187.101156 
L 401.637894 186.728401 
L 407.328184 186.601163 
L 412.298073 186.643836 
L 412.298073 186.643836 
" style="fill:none;stroke:#000000;stroke-linecap:square;stroke-opacity:0.7;stroke-width:1.2;"/>
   </g>
   <g id="line2d_13">
    <path clip-path="url(#pe8864b2e56)" d="M 412.192225 147.596585 
L 400.533725 146.363921 
L 375.546627 143.533538 
L 367.69267 142.996249 
L 360.248368 142.707807 
L 350.878511 142.585392 
L 341.814958 142.683813 
L 334.48801 142.956476 
L 327.539038 143.428344 
L 320.866639 144.125249 
L 316.17591 144.798399 
L 311.609372 145.67701 
L 308.974426 146.405498 
L 307.824649 146.969717 
L 307.672761 147.197426 
L 307.782349 147.450737 
L 308.146385 147.666615 
L 309.360516 148.023056 
L 311.932596 148.457242 
L 316.779321 148.987462 
L 324.807237 149.574904 
L 335.007639 150.066556 
L 347.304685 150.429321 
L 357.323959 150.522081 
L 364.791413 150.385016 
L 370.983443 150.075514 
L 378.998105 149.424558 
L 398.817927 147.647012 
L 405.334386 147.344501 
L 411.213975 147.297318 
L 412.208254 147.311728 
L 412.208254 147.311728 
" style="fill:none;stroke:#000000;stroke-linecap:square;stroke-opacity:0.7;stroke-width:1.2;"/>
   </g>
   <g id="line2d_14">
    <path clip-path="url(#pe8864b2e56)" d="M 412.377481 107.678553 
L 404.688974 105.369135 
L 397.879798 103.555001 
L 389.34123 101.542108 
L 381.971804 100.010756 
L 375.118955 98.803348 
L 369.564856 98.023908 
L 363.33704 97.391823 
L 356.932962 97.009695 
L 350.579477 96.885301 
L 344.207453 97.015537 
L 338.276082 97.393419 
L 333.444431 97.917084 
L 329.044584 98.592239 
L 324.139731 99.607068 
L 320.585075 100.547802 
L 317.272419 101.614664 
L 314.233771 102.798449 
L 311.414946 104.14343 
L 309.895599 105.022873 
L 308.506896 106.009529 
L 307.78772 106.685677 
L 307.291606 107.507025 
L 307.333743 108.003967 
L 307.568704 108.288192 
L 308.054292 108.563851 
L 309.06667 108.847937 
L 310.584665 109.051886 
L 313.722183 109.198176 
L 318.943707 109.156732 
L 327.267527 108.824586 
L 338.424211 108.137272 
L 351.905474 107.071424 
L 369.739901 105.640149 
L 378.3118 105.152502 
L 386.020986 104.920542 
L 392.754187 104.9529 
L 397.955741 105.205879 
L 402.637162 105.671091 
L 406.787346 106.302103 
L 411.979889 107.36101 
L 412.374914 107.451871 
L 412.374914 107.451871 
" style="fill:none;stroke:#000000;stroke-linecap:square;stroke-opacity:0.7;stroke-width:1.2;"/>
   </g>
   <g id="line2d_15">
    <path clip-path="url(#pe8864b2e56)" d="M 411.838425 69.174381 
L 404.469678 67.073253 
L 397.024861 65.169593 
L 388.76622 63.285698 
L 381.288311 61.808586 
L 375.350031 60.847362 
L 369.484933 60.124343 
L 363.639215 59.633266 
L 356.893579 59.318031 
L 349.75585 59.224584 
L 342.604472 59.355857 
L 336.773211 59.654226 
L 330.826138 60.186492 
L 326.675428 60.730457 
L 322.140699 61.529827 
L 318.028737 62.4932 
L 314.774603 63.476753 
L 312.011007 64.545023 
L 309.771465 65.699868 
L 308.607254 66.552197 
L 308.067048 67.152084 
L 307.805542 67.7376 
L 307.814447 68.163477 
L 308.038957 68.60368 
L 308.616219 69.099581 
L 309.596756 69.581226 
L 311.227961 70.089427 
L 314.347228 70.698495 
L 318.647445 71.217237 
L 324.719934 71.651801 
L 332.150496 71.915437 
L 340.481257 71.983347 
L 350.377609 71.840284 
L 359.85873 71.499457 
L 368.310858 71.001608 
L 381.363401 69.956063 
L 392.233187 69.166074 
L 399.518836 68.860447 
L 405.743815 68.818478 
L 411.830085 68.998142 
L 411.830085 68.998142 
" style="fill:none;stroke:#000000;stroke-linecap:square;stroke-opacity:0.7;stroke-width:1.2;"/>
   </g>
   <g id="line2d_16">
    <path clip-path="url(#pe8864b2e56)" d="M 543.61169 226.857586 
L 526.788964 224.898684 
L 509.90181 222.657959 
L 496.702024 220.994407 
L 487.600819 220.069169 
L 479.425063 219.463645 
L 472.439285 219.191431 
L 466.610119 219.202511 
L 462.00805 219.400488 
L 457.41982 219.793341 
L 452.575273 220.462219 
L 449.089503 221.149435 
L 446.139669 221.919285 
L 444.066993 222.615642 
L 442.430395 223.317349 
L 441.02719 224.132609 
L 440.305244 224.74662 
L 439.870109 225.365061 
L 439.73924 225.892439 
L 439.838648 226.413265 
L 440.182452 226.938519 
L 440.936326 227.567564 
L 442.049482 228.17909 
L 444.02957 228.951147 
L 446.98342 229.790677 
L 450.943445 230.634473 
L 455.739963 231.40654 
L 461.576944 232.090525 
L 467.574968 232.558429 
L 473.642611 232.821902 
L 480.718284 232.89799 
L 487.77689 232.760922 
L 495.129647 232.415452 
L 503.459035 231.790356 
L 513.526664 230.774899 
L 525.696117 229.3101 
L 536.152627 227.848443 
L 543.614916 226.675124 
L 543.614916 226.675124 
" style="fill:none;stroke:#000000;stroke-linecap:square;stroke-opacity:0.7;stroke-width:1.2;"/>
   </g>
   <g id="line2d_17">
    <path clip-path="url(#pe8864b2e56)" d="M 543.55062 187.509034 
L 532.717479 184.87809 
L 520.629367 182.162334 
L 509.967543 179.982362 
L 501.691066 178.529877 
L 494.637654 177.520467 
L 487.779893 176.770872 
L 481.861536 176.332715 
L 475.958639 176.123101 
L 470.294983 176.172804 
L 465.53439 176.431917 
L 460.836679 176.909134 
L 456.441302 177.588676 
L 453.102825 178.288475 
L 449.866068 179.161519 
L 446.802208 180.230274 
L 445.060957 180.988991 
L 443.166257 182.00824 
L 441.571368 183.13553 
L 440.432437 184.278303 
L 439.800685 185.316663 
L 439.60864 185.961778 
L 439.58868 186.663238 
L 439.795109 187.381289 
L 440.371365 188.215021 
L 441.42269 189.067237 
L 442.994347 189.878382 
L 445.117359 190.623348 
L 448.171356 191.362172 
L 451.657387 191.949406 
L 456.35533 192.492026 
L 462.620637 192.937414 
L 469.594265 193.17034 
L 476.815546 193.172544 
L 484.305675 192.945596 
L 492.731033 192.451369 
L 502.197977 191.666802 
L 515.637023 190.311788 
L 543.556996 187.31962 
L 543.556996 187.31962 
" style="fill:none;stroke:#000000;stroke-linecap:square;stroke-opacity:0.7;stroke-width:1.2;"/>
   </g>
   <g id="line2d_18">
    <path clip-path="url(#pe8864b2e56)" d="M 543.959973 147.26796 
L 521.210759 143.817401 
L 501.818296 140.839009 
L 492.970136 139.699496 
L 485.4835 138.936319 
L 479.675371 138.53157 
L 474.485627 138.359951 
L 469.571678 138.399303 
L 465.168266 138.621998 
L 460.426288 139.076913 
L 455.679958 139.777 
L 451.48376 140.630288 
L 448.547865 141.386067 
L 445.078354 142.502997 
L 442.289653 143.667275 
L 440.180771 144.868642 
L 439.346402 145.561885 
L 438.948173 146.104068 
L 438.859603 146.518378 
L 438.925681 146.740503 
L 439.194291 147.027167 
L 439.918768 147.336961 
L 441.201161 147.552278 
L 443.021302 147.63642 
L 446.545529 147.539654 
L 453.655577 147.026101 
L 466.820862 146.055938 
L 473.765536 145.769375 
L 481.312906 145.695858 
L 489.730912 145.845808 
L 505.277788 146.404014 
L 528.519039 147.250749 
L 536.137176 147.300141 
L 543.349254 147.105447 
L 543.939683 147.078643 
L 543.939683 147.078643 
" style="fill:none;stroke:#000000;stroke-linecap:square;stroke-opacity:0.7;stroke-width:1.2;"/>
   </g>
   <g id="line2d_19">
    <path clip-path="url(#pe8864b2e56)" d="M 543.535708 108.589997 
L 535.636798 106.253403 
L 528.419718 104.343988 
L 521.694632 102.765527 
L 514.395715 101.291047 
L 508.797547 100.360916 
L 503.103955 99.619917 
L 496.93443 99.057292 
L 490.415828 98.716228 
L 483.344441 98.606249 
L 477.143549 98.718902 
L 471.852608 98.979475 
L 465.9326 99.474838 
L 460.509885 100.146812 
L 455.87396 100.917882 
L 451.394656 101.877248 
L 448.140972 102.746472 
L 445.052388 103.760087 
L 442.236733 104.938842 
L 440.623194 105.832086 
L 439.563036 106.697032 
L 439.258404 107.315219 
L 439.331036 107.604666 
L 439.659508 107.91235 
L 440.641952 108.273367 
L 441.914759 108.493639 
L 444.430586 108.698961 
L 449.409062 108.823513 
L 461.614997 108.794037 
L 494.686919 108.516318 
L 511.924741 107.971632 
L 522.607344 107.751833 
L 529.860215 107.79439 
L 537.426262 108.052021 
L 543.516266 108.403964 
L 543.516266 108.403964 
" style="fill:none;stroke:#000000;stroke-linecap:square;stroke-opacity:0.7;stroke-width:1.2;"/>
   </g>
   <g id="line2d_20">
    <path clip-path="url(#pe8864b2e56)" d="M 544.12905 67.759266 
L 530.836689 65.942089 
L 517.841633 63.904665 
L 501.164223 61.303884 
L 492.474571 60.178693 
L 484.868704 59.425904 
L 478.712283 59.048958 
L 474.094242 58.954906 
L 468.838332 59.094767 
L 464.446221 59.442881 
L 459.585246 60.09823 
L 455.59553 60.865601 
L 451.412863 61.916739 
L 447.706672 63.094678 
L 444.34535 64.420892 
L 441.573056 65.793008 
L 439.690026 67.019863 
L 438.927978 67.750885 
L 438.69641 68.307673 
L 438.835653 68.569326 
L 439.095063 68.712114 
L 439.72217 68.836729 
L 441.322034 68.831007 
L 444.741872 68.448812 
L 452.591779 67.191876 
L 463.645548 65.430373 
L 470.866114 64.50984 
L 477.179905 63.935798 
L 483.648414 63.578996 
L 489.879147 63.428616 
L 497.044878 63.455388 
L 504.400353 63.686512 
L 512.591717 64.167019 
L 522.026253 64.968511 
L 532.137655 66.076217 
L 544.119731 67.514934 
L 544.119731 67.514934 
" style="fill:none;stroke:#000000;stroke-linecap:square;stroke-opacity:0.7;stroke-width:1.2;"/>
   </g>
   <g id="line2d_21">
    <path clip-path="url(#pe8864b2e56)" d="M 675.482926 226.346144 
L 665.827475 223.777112 
L 656.545649 221.551021 
L 645.696046 219.199109 
L 637.393123 217.61456 
L 630.376863 216.500343 
L 623.591171 215.672629 
L 617.822238 215.182297 
L 611.694258 214.895393 
L 605.962654 214.877602 
L 601.132503 215.087115 
L 596.45719 215.523253 
L 592.147805 216.164479 
L 588.909723 216.821794 
L 585.390215 217.735314 
L 581.80674 218.919255 
L 579.010947 220.064069 
L 575.995014 221.593948 
L 574.452613 222.549785 
L 573.198816 223.471982 
L 572.072252 224.527476 
L 571.484348 225.349114 
L 571.284997 225.939937 
L 571.338043 226.452646 
L 571.630396 226.884988 
L 572.332501 227.338811 
L 573.512308 227.729635 
L 575.863569 228.119732 
L 579.154314 228.362237 
L 583.582668 228.463002 
L 589.97462 228.396057 
L 600.073401 228.047477 
L 618.569896 227.140343 
L 655.359712 225.276316 
L 661.244905 225.252897 
L 667.094759 225.446141 
L 672.682527 225.852285 
L 675.490909 226.13077 
L 675.490909 226.13077 
" style="fill:none;stroke:#000000;stroke-linecap:square;stroke-opacity:0.7;stroke-width:1.2;"/>
   </g>
   <g id="line2d_22">
    <path clip-path="url(#pe8864b2e56)" d="M 675.393879 187.092719 
L 669.051994 184.79836 
L 661.611947 182.351266 
L 652.706726 179.672388 
L 638.885476 175.755933 
L 631.350771 173.805892 
L 625.870074 172.56974 
L 620.823243 171.628223 
L 615.684331 170.911433 
L 611.161127 170.518786 
L 606.836318 170.383021 
L 602.618493 170.5051 
L 599.48593 170.775941 
L 595.974953 171.280132 
L 592.369728 172.04022 
L 588.768801 173.072863 
L 585.508079 174.275727 
L 582.749672 175.523372 
L 579.748427 177.168708 
L 578.015138 178.287181 
L 575.837302 179.923742 
L 574.307315 181.291393 
L 572.909897 182.809974 
L 571.881832 184.300273 
L 571.374093 185.492732 
L 571.254603 186.381436 
L 571.354385 186.980049 
L 571.803424 187.746331 
L 572.447799 188.277779 
L 573.649698 188.836159 
L 575.377088 189.281017 
L 578.401937 189.663712 
L 582.467447 189.840735 
L 588.652762 189.799362 
L 602.658614 189.338329 
L 614.82727 189.060955 
L 641.962921 188.581411 
L 654.070576 188.089545 
L 671.5002 187.118169 
L 675.387176 186.901086 
L 675.387176 186.901086 
" style="fill:none;stroke:#000000;stroke-linecap:square;stroke-opacity:0.7;stroke-width:1.2;"/>
   </g>
   <g id="line2d_23">
    <path clip-path="url(#pe8864b2e56)" d="M 675.299942 147.742446 
L 667.128893 145.410118 
L 658.430681 143.150855 
L 645.40919 140.023942 
L 631.952892 136.972235 
L 624.067425 135.38047 
L 617.871924 134.333179 
L 611.885389 133.561943 
L 606.983087 133.156108 
L 602.55312 133.005242 
L 599.144334 133.055407 
L 594.740653 133.375181 
L 591.326303 133.857834 
L 588.044814 134.554091 
L 584.736402 135.5347 
L 581.838366 136.676363 
L 579.952774 137.593312 
L 578.06908 138.677689 
L 576.136738 140.009725 
L 574.624108 141.26091 
L 573.318386 142.563345 
L 572.183046 144.013268 
L 571.572172 145.133148 
L 571.320548 145.953597 
L 571.323213 146.831849 
L 571.583368 147.434927 
L 572.181212 148.010163 
L 572.472088 148.183073 
L 573.232825 148.497661 
L 574.800899 148.844439 
L 576.591527 149.015662 
L 579.995581 149.057313 
L 585.286847 148.822786 
L 607.990304 147.511726 
L 616.537834 147.379984 
L 626.568774 147.476655 
L 662.0288 148.095257 
L 668.894333 147.885212 
L 675.330863 147.517522 
L 675.330863 147.517522 
" style="fill:none;stroke:#000000;stroke-linecap:square;stroke-opacity:0.7;stroke-width:1.2;"/>
   </g>
   <g id="line2d_24">
    <path clip-path="url(#pe8864b2e56)" d="M 675.124671 108.514892 
L 666.774152 106.547745 
L 658.156101 104.744475 
L 647.716805 102.809649 
L 638.124282 101.242045 
L 629.177634 99.989891 
L 620.810478 99.032327 
L 613.836719 98.428184 
L 608.007967 98.111444 
L 601.940885 98.041331 
L 597.43875 98.215621 
L 592.730483 98.654505 
L 588.273801 99.358219 
L 584.840462 100.12696 
L 581.583499 101.07501 
L 578.610125 102.170904 
L 575.916551 103.417703 
L 574.013322 104.516768 
L 572.551967 105.587461 
L 571.636869 106.537437 
L 571.332764 107.1755 
L 571.350832 107.499414 
L 571.56744 107.797075 
L 572.007111 108.02248 
L 572.750686 108.18006 
L 574.29377 108.247237 
L 577.263485 108.07118 
L 583.01517 107.426125 
L 595.780476 105.943367 
L 602.955087 105.367103 
L 608.763743 105.103059 
L 615.381864 105.022691 
L 623.223172 105.169686 
L 634.004397 105.633929 
L 649.483619 106.560831 
L 673.849367 108.26264 
L 675.103408 108.358402 
L 675.103408 108.358402 
" style="fill:none;stroke:#000000;stroke-linecap:square;stroke-opacity:0.7;stroke-width:1.2;"/>
   </g>
   <g id="line2d_25">
    <path clip-path="url(#pe8864b2e56)" d="M 675.044798 69.210061 
L 660.854687 67.640266 
L 647.467906 65.939338 
L 611.609864 61.174016 
L 605.705176 60.699676 
L 599.8766 60.47097 
L 595.464731 60.493978 
L 590.875526 60.726793 
L 586.406825 61.191117 
L 582.712283 61.790715 
L 579.363717 62.55689 
L 576.498799 63.459658 
L 574.825711 64.157478 
L 573.289016 65.002663 
L 572.271455 65.791171 
L 571.557676 66.69325 
L 571.315488 67.498664 
L 571.360989 68.022006 
L 571.635664 68.650839 
L 572.299652 69.403782 
L 573.299754 70.12004 
L 575.133966 71.021641 
L 577.140679 71.744156 
L 580.433575 72.636333 
L 583.724677 73.313864 
L 588.423781 74.043204 
L 594.119197 74.655884 
L 600.128951 75.04635 
L 606.199184 75.212836 
L 613.365156 75.160048 
L 621.937284 74.82791 
L 632.564007 74.172394 
L 647.278432 73.045399 
L 656.917272 72.093227 
L 663.020813 71.301447 
L 668.924149 70.324326 
L 675.038566 69.058429 
L 675.038566 69.058429 
" style="fill:none;stroke:#000000;stroke-linecap:square;stroke-opacity:0.7;stroke-width:1.2;"/>
   </g>
  </g>
 </g>
 <defs>
  <clipPath id="pe8864b2e56">
   <rect height="262.08" width="694.08" x="12.96" y="12.96"/>
  </clipPath>
 </defs>
</svg>
