<?xml version="1.0" encoding="utf-8" standalone="no"?>
<!DOCTYPE svg PUBLIC "-//W3C//DTD SVG 1.1//EN"
  "http://www.w3.org/Graphics/SVG/1.1/DTD/svg11.dtd">
<!-- Created with matplotlib (https://matplotlib.org/) -->
<svg height="288pt" version="1.1" viewBox="0 0 720 288" width="720pt" xmlns="http://www.w3.org/2000/svg" xmlns:xlink="http://www.w3.org/1999/xlink">
 <metadata>
  <rdf:RDF xmlns:cc="http://creativecommons.org/ns#" xmlns:dc="http://purl.org/dc/elements/1.1/" xmlns:rdf="http://www.w3.org/1999/02/22-rdf-syntax-ns#">
   <cc:Work>
    <dc:type rdf:resource="http://purl.org/dc/dcmitype/StillImage"/>
    <dc:date>2021-05-05T23:09:02.210430</dc:date>
    <dc:format>image/svg+xml</dc:format>
    <dc:creator>
     <cc:Agent>
      <dc:title>Matplotlib v3.3.4, https://matplotlib.org/</dc:title>
     </cc:Agent>
    </dc:creator>
   </cc:Work>
  </rdf:RDF>
 </metadata>
 <defs>
  <style type="text/css">*{stroke-linecap:butt;stroke-linejoin:round;}</style>
 </defs>
 <g id="figure_1">
  <g id="patch_1">
   <path d="M 0 288 
L 720 288 
L 720 0 
L 0 0 
z
" style="fill:#ffffff;"/>
  </g>
  <g id="axes_1">
   <g id="line2d_1">
    <path clip-path="url(#p6b75e3e9c8)" d="M 149.576254 225.368251 
L 144.536682 223.22809 
L 139.932642 221.485435 
L 135.122523 219.902828 
L 130.291852 218.534451 
L 124.405191 217.111047 
L 118.933404 215.977908 
L 111.262163 214.628595 
L 103.196914 213.465221 
L 95.80503 212.643628 
L 90.342735 212.225831 
L 84.41966 212.00246 
L 78.756894 212.056394 
L 73.900401 212.34434 
L 69.183307 212.870109 
L 65.048338 213.563586 
L 60.873595 214.529915 
L 57.672463 215.495691 
L 54.390096 216.749271 
L 51.560547 218.121956 
L 49.562246 219.329123 
L 47.874765 220.591577 
L 46.466454 221.958095 
L 45.435383 223.430486 
L 45.053897 224.442027 
L 44.991649 225.362996 
L 45.140031 225.970676 
L 45.550604 226.656893 
L 46.469803 227.43082 
L 47.620549 227.981433 
L 49.669166 228.536549 
L 51.630938 228.824863 
L 54.746892 229.037721 
L 59.458968 229.073288 
L 66.485929 228.861044 
L 91.142039 227.721287 
L 115.911972 226.717222 
L 138.338492 225.772608 
L 149.55984 225.318035 
L 149.55984 225.318035 
" style="fill:none;stroke:#000000;stroke-linecap:square;stroke-opacity:0.7;stroke-width:1.2;"/>
   </g>
   <g id="line2d_2">
    <path clip-path="url(#p6b75e3e9c8)" d="M 149.471136 186.843022 
L 128.047726 183.470847 
L 120.799284 182.581394 
L 113.839054 181.957501 
L 108.118603 181.638728 
L 100.744534 181.480901 
L 90.703912 181.57443 
L 67.112887 182.071927 
L 61.998256 182.378871 
L 56.232107 182.951877 
L 52.08098 183.587711 
L 48.960672 184.270792 
L 46.865855 184.930206 
L 45.52481 185.613123 
L 45.13627 186.000228 
L 45.026464 186.291565 
L 45.087107 186.602267 
L 45.383163 186.95405 
L 46.026561 187.356752 
L 47.530479 187.933364 
L 49.778306 188.517528 
L 53.202962 189.170502 
L 59.020721 189.987786 
L 66.267927 190.729763 
L 73.679093 191.26173 
L 80.111087 191.537635 
L 87.154071 191.613694 
L 94.48139 191.436576 
L 101.979217 191.026373 
L 110.983387 190.314981 
L 125.560198 188.902661 
L 149.524723 186.56534 
L 149.524723 186.56534 
" style="fill:none;stroke:#000000;stroke-linecap:square;stroke-opacity:0.7;stroke-width:1.2;"/>
   </g>
   <g id="line2d_3">
    <path clip-path="url(#p6b75e3e9c8)" d="M 149.488208 146.869034 
L 131.077102 143.483791 
L 123.527394 142.351946 
L 116.764014 141.569693 
L 110.635192 141.082765 
L 104.646278 140.815064 
L 96.765924 140.713758 
L 67.327456 140.797932 
L 61.676892 141.048042 
L 56.655539 141.519313 
L 52.990728 142.103432 
L 50.078001 142.798178 
L 48.366208 143.357308 
L 46.005293 144.501408 
L 45.31475 145.055955 
L 44.876921 145.694021 
L 44.835947 146.263953 
L 45.013469 146.64041 
L 45.386612 147.025032 
L 46.117262 147.480281 
L 47.969474 148.171904 
L 50.509757 148.763498 
L 54.380883 149.351403 
L 59.08185 149.808601 
L 64.658368 150.133245 
L 72.160123 150.320564 
L 80.302539 150.297732 
L 90.773988 150.034732 
L 104.220414 149.444099 
L 122.856434 148.35256 
L 149.52656 146.621383 
L 149.52656 146.621383 
" style="fill:none;stroke:#000000;stroke-linecap:square;stroke-opacity:0.7;stroke-width:1.2;"/>
   </g>
   <g id="line2d_4">
    <path clip-path="url(#p6b75e3e9c8)" d="M 149.008707 109.290665 
L 141.409424 106.923234 
L 134.043461 104.882172 
L 127.292884 103.271434 
L 120.996253 101.988288 
L 114.682374 100.908037 
L 108.903252 100.100844 
L 103.293054 99.488716 
L 96.598102 98.988392 
L 90.990111 98.761957 
L 84.634868 98.703047 
L 78.416897 98.833869 
L 71.300377 99.221053 
L 65.691949 99.741178 
L 60.581156 100.435809 
L 56.055876 101.299894 
L 53.017994 102.073145 
L 49.843647 103.144094 
L 47.478692 104.24889 
L 45.931382 105.278205 
L 45.491285 105.670292 
L 44.722836 106.685963 
L 44.525052 107.305769 
L 44.557038 107.948819 
L 44.798863 108.496131 
L 45.125084 108.901636 
L 45.755337 109.41758 
L 46.774262 109.974695 
L 47.473386 110.261086 
L 49.558675 110.879509 
L 51.935675 111.345908 
L 55.129931 111.75957 
L 59.890905 112.127314 
L 66.713436 112.381025 
L 74.344563 112.448656 
L 83.916425 112.293369 
L 94.752655 111.873218 
L 118.466248 110.898902 
L 134.303535 110.263396 
L 141.439042 109.761855 
L 147.085848 109.158 
L 149.062438 108.888552 
L 149.062438 108.888552 
" style="fill:none;stroke:#000000;stroke-linecap:square;stroke-opacity:0.7;stroke-width:1.2;"/>
   </g>
   <g id="line2d_5">
    <path clip-path="url(#p6b75e3e9c8)" d="M 149.70168 67.029128 
L 138.861875 64.502801 
L 129.134187 62.468797 
L 119.008346 60.591467 
L 110.916658 59.302961 
L 102.773 58.236035 
L 95.184385 57.45847 
L 88.20427 56.933844 
L 82.115549 56.664413 
L 76.358901 56.645163 
L 72.025038 56.841183 
L 67.711601 57.266925 
L 64.391516 57.780804 
L 61.347642 58.414872 
L 57.417146 59.495825 
L 54.205737 60.632509 
L 51.083109 62.004855 
L 48.314433 63.521972 
L 46.48635 64.787159 
L 46.016686 65.177828 
L 44.971867 66.324878 
L 44.692095 67.058387 
L 44.776581 67.482271 
L 45.038333 67.79338 
L 45.862615 68.194332 
L 47.048584 68.441929 
L 49.394997 68.613043 
L 52.917059 68.596166 
L 59.549487 68.275897 
L 75.269948 67.193039 
L 88.726685 66.3465 
L 98.252373 65.949684 
L 107.113229 65.803226 
L 116.561496 65.876181 
L 134.843421 66.316601 
L 148.508446 66.770103 
L 149.728652 66.828886 
L 149.728652 66.828886 
" style="fill:none;stroke:#000000;stroke-linecap:square;stroke-opacity:0.7;stroke-width:1.2;"/>
   </g>
   <g id="line2d_6">
    <path clip-path="url(#p6b75e3e9c8)" d="M 281.073045 225.025117 
L 274.890793 222.978516 
L 268.435412 221.0845 
L 261.866557 219.437909 
L 257.110338 218.41452 
L 250.833294 217.274961 
L 245.029124 216.433237 
L 239.097158 215.774933 
L 231.913639 215.21811 
L 223.602232 214.838757 
L 216.469525 214.726587 
L 210.460454 214.842059 
L 206.015674 215.106022 
L 201.565879 215.568488 
L 197.123154 216.269346 
L 193.077603 217.153173 
L 189.030402 218.318062 
L 185.622823 219.571159 
L 182.982867 220.771888 
L 180.133957 222.421732 
L 178.596848 223.608403 
L 177.67998 224.582622 
L 177.186595 225.436843 
L 177.065204 226.112024 
L 177.158149 226.553672 
L 177.47626 227.03867 
L 177.99611 227.450039 
L 179.215857 227.979283 
L 181.257556 228.432714 
L 184.54791 228.764805 
L 188.00322 228.891847 
L 194.911073 228.870311 
L 206.996665 228.550095 
L 224.625352 227.868613 
L 266.879031 225.848323 
L 281.070575 224.966811 
L 281.070575 224.966811 
" style="fill:none;stroke:#000000;stroke-linecap:square;stroke-opacity:0.7;stroke-width:1.2;"/>
   </g>
   <g id="line2d_7">
    <path clip-path="url(#p6b75e3e9c8)" d="M 280.926704 186.912272 
L 275.825526 184.363818 
L 271.569574 182.414491 
L 265.588034 179.963629 
L 260.086014 177.974937 
L 253.831628 175.980073 
L 248.421146 174.469894 
L 243.604344 173.30209 
L 238.688085 172.298158 
L 233.310168 171.431982 
L 228.320405 170.844763 
L 223.645138 170.473367 
L 217.575151 170.236535 
L 212.658014 170.254377 
L 208.164826 170.458461 
L 203.589157 170.890073 
L 200.156402 171.396056 
L 196.585478 172.126456 
L 193.469948 172.970087 
L 190.275106 174.079917 
L 187.502519 175.289895 
L 184.92441 176.672783 
L 182.403313 178.33822 
L 180.1449 180.20688 
L 178.927685 181.448069 
L 177.605719 183.160433 
L 176.923287 184.415148 
L 176.517734 185.799109 
L 176.513685 186.703275 
L 176.700883 187.38876 
L 177.215401 188.188778 
L 178.12861 188.926525 
L 178.75761 189.258031 
L 180.901875 189.94818 
L 183.047429 190.311171 
L 186.024088 190.561375 
L 190.661804 190.658387 
L 197.830176 190.490172 
L 207.60948 190.002089 
L 221.107631 189.085135 
L 242.010902 187.619515 
L 253.841516 187.056067 
L 265.287846 186.739452 
L 274.562429 186.683571 
L 280.938773 186.794727 
L 280.938773 186.794727 
" style="fill:none;stroke:#000000;stroke-linecap:square;stroke-opacity:0.7;stroke-width:1.2;"/>
   </g>
   <g id="line2d_8">
    <path clip-path="url(#p6b75e3e9c8)" d="M 280.761785 147.992071 
L 262.322164 144.875565 
L 254.844307 143.846918 
L 246.556985 142.948963 
L 238.787829 142.335379 
L 229.366244 141.830645 
L 217.755403 141.454268 
L 209.033846 141.398454 
L 202.053048 141.590313 
L 195.608628 142.016772 
L 191.115751 142.490363 
L 186.005884 143.256432 
L 181.660229 144.176836 
L 179.063391 144.922593 
L 177.096042 145.701968 
L 176.209414 146.25271 
L 175.903774 146.675096 
L 175.989725 147.000051 
L 176.315786 147.236043 
L 177.138829 147.507297 
L 178.307129 147.708207 
L 181.476169 147.952945 
L 186.980212 148.065445 
L 199.386042 148.00805 
L 229.089862 147.67673 
L 251.715349 147.338821 
L 267.252229 147.355459 
L 279.65972 147.558354 
L 280.803335 147.590756 
L 280.803335 147.590756 
" style="fill:none;stroke:#000000;stroke-linecap:square;stroke-opacity:0.7;stroke-width:1.2;"/>
   </g>
   <g id="line2d_9">
    <path clip-path="url(#p6b75e3e9c8)" d="M 281.24681 106.308347 
L 268.980426 103.266841 
L 261.391394 101.620024 
L 254.495798 100.345429 
L 248.455567 99.430089 
L 242.314601 98.711047 
L 235.779808 98.181559 
L 228.85577 97.853319 
L 220.262336 97.688926 
L 210.865898 97.746729 
L 203.629261 98.019754 
L 198.309296 98.432982 
L 193.987536 98.97494 
L 190.54232 99.600261 
L 187.581711 100.331954 
L 184.756658 101.267953 
L 182.6808 102.167401 
L 180.945807 103.121189 
L 179.560444 104.08309 
L 178.550203 104.965651 
L 177.312107 106.478022 
L 176.704281 107.766737 
L 176.533097 108.533149 
L 176.530483 109.542427 
L 176.719799 110.345595 
L 177.047098 111.068051 
L 177.568167 111.828426 
L 178.717777 112.95182 
L 180.177616 113.939374 
L 182.268683 114.968429 
L 184.832389 115.902395 
L 188.457987 116.874197 
L 191.868467 117.551623 
L 196.966961 118.270668 
L 202.411905 118.738357 
L 207.457743 118.936636 
L 211.888865 118.940691 
L 218.038706 118.703004 
L 223.039854 118.319669 
L 229.564251 117.595223 
L 236.397733 116.602163 
L 242.973297 115.447982 
L 250.928606 113.812701 
L 259.65909 111.754609 
L 271.565273 108.668635 
L 281.259337 106.131506 
L 281.259337 106.131506 
" style="fill:none;stroke:#000000;stroke-linecap:square;stroke-opacity:0.7;stroke-width:1.2;"/>
   </g>
   <g id="line2d_10">
    <path clip-path="url(#p6b75e3e9c8)" d="M 280.891625 67.481703 
L 273.910704 65.038635 
L 267.719185 63.092611 
L 260.872776 61.187015 
L 254.489955 59.626641 
L 247.151667 58.075458 
L 239.783767 56.76878 
L 232.913351 55.772951 
L 226.943125 55.094125 
L 220.328393 54.589034 
L 215.485239 54.434369 
L 210.755962 54.513531 
L 206.392378 54.836358 
L 202.282183 55.399009 
L 199.087738 56.030305 
L 195.677251 56.907902 
L 192.290039 58.003049 
L 188.597483 59.473812 
L 185.728173 60.841632 
L 182.452545 62.700481 
L 179.829355 64.526522 
L 178.172453 66.000092 
L 177.342429 67.035158 
L 176.991881 67.875765 
L 177.044993 68.464812 
L 177.356282 68.883383 
L 178.03705 69.264936 
L 179.090567 69.538912 
L 180.957081 69.726839 
L 184.042839 69.732847 
L 188.648284 69.47582 
L 198.20165 68.625222 
L 211.659744 67.415391 
L 219.889479 66.888856 
L 229.429578 66.517838 
L 242.579007 66.267532 
L 256.313138 66.219327 
L 266.198441 66.399342 
L 273.561243 66.739756 
L 280.912177 67.319428 
L 280.912177 67.319428 
" style="fill:none;stroke:#000000;stroke-linecap:square;stroke-opacity:0.7;stroke-width:1.2;"/>
   </g>
   <g id="line2d_11">
    <path clip-path="url(#p6b75e3e9c8)" d="M 412.117972 225.979413 
L 399.36396 222.629451 
L 390.926636 220.668164 
L 383.352306 219.135056 
L 375.020393 217.707607 
L 366.473399 216.508145 
L 357.296166 215.477286 
L 349.33485 214.813698 
L 343.64298 214.535132 
L 338.994792 214.491058 
L 334.23626 214.67967 
L 330.812128 214.998917 
L 327.414486 215.497951 
L 323.653397 216.300716 
L 320.667702 217.162546 
L 317.73726 218.249598 
L 315.878542 219.097086 
L 313.690897 220.310884 
L 312.076251 221.430876 
L 310.523111 222.84565 
L 309.673006 223.958424 
L 309.199855 224.973425 
L 309.04962 225.895229 
L 309.224506 226.858862 
L 309.71954 227.711737 
L 310.304421 228.316423 
L 311.913714 229.374252 
L 313.737462 230.163288 
L 317.306941 231.209539 
L 320.414666 231.850621 
L 324.846049 232.521814 
L 329.247279 232.996046 
L 334.849997 233.385536 
L 341.358506 233.567443 
L 346.271352 233.514834 
L 352.867117 233.193698 
L 359.856696 232.585326 
L 368.243904 231.621204 
L 384.201269 229.514715 
L 408.739166 226.238497 
L 412.143985 225.842253 
L 412.143985 225.842253 
" style="fill:none;stroke:#000000;stroke-linecap:square;stroke-opacity:0.7;stroke-width:1.2;"/>
   </g>
   <g id="line2d_12">
    <path clip-path="url(#p6b75e3e9c8)" d="M 412.687613 185.473836 
L 398.94456 183.012911 
L 390.240522 181.685941 
L 381.694988 180.611386 
L 373.871318 179.845457 
L 364.917368 179.223698 
L 356.142237 178.834375 
L 346.529363 178.615135 
L 338.906882 178.664001 
L 333.075064 178.923786 
L 328.45221 179.314905 
L 324.041733 179.875298 
L 319.543037 180.679727 
L 315.96879 181.539916 
L 313.222673 182.394449 
L 310.719977 183.422084 
L 309.279794 184.232918 
L 308.544551 184.797847 
L 307.840466 185.706584 
L 307.73305 186.380404 
L 307.936816 186.922974 
L 308.249468 187.299538 
L 308.925731 187.809155 
L 310.071674 188.374887 
L 312.061872 189.036697 
L 315.020513 189.706342 
L 319.383285 190.373952 
L 324.889769 190.92595 
L 331.394142 191.322773 
L 338.072345 191.530841 
L 346.982676 191.582905 
L 356.287971 191.430898 
L 366.201707 191.047844 
L 374.695516 190.507173 
L 382.365415 189.821497 
L 389.744732 188.972507 
L 398.748669 187.695093 
L 410.148504 185.799242 
L 412.692654 185.365552 
L 412.692654 185.365552 
" style="fill:none;stroke:#000000;stroke-linecap:square;stroke-opacity:0.7;stroke-width:1.2;"/>
   </g>
   <g id="line2d_13">
    <path clip-path="url(#p6b75e3e9c8)" d="M 412.323505 147.144018 
L 393.436923 143.831671 
L 385.283698 142.682952 
L 378.123119 141.883562 
L 370.067482 141.222625 
L 361.367731 140.741416 
L 349.157066 140.312801 
L 341.175967 140.212187 
L 335.513339 140.329338 
L 330.929752 140.59884 
L 326.145991 141.091549 
L 321.750187 141.775902 
L 318.284369 142.5097 
L 315.065722 143.394403 
L 312.333327 144.376163 
L 310.168081 145.453558 
L 309.287461 146.107685 
L 308.851735 146.663516 
L 308.773156 147.101041 
L 308.94219 147.452464 
L 309.265974 147.720871 
L 309.882736 148.007542 
L 311.454546 148.389688 
L 313.715145 148.65903 
L 317.258674 148.84407 
L 324.149645 148.899254 
L 335.933701 148.702692 
L 412.34802 147.020265 
L 412.34802 147.020265 
" style="fill:none;stroke:#000000;stroke-linecap:square;stroke-opacity:0.7;stroke-width:1.2;"/>
   </g>
   <g id="line2d_14">
    <path clip-path="url(#p6b75e3e9c8)" d="M 412.44211 108.010231 
L 403.879215 106.245384 
L 389.771873 103.309965 
L 381.700098 101.859213 
L 374.131335 100.708287 
L 366.464659 99.771504 
L 359.081085 99.094725 
L 351.249098 98.598793 
L 343.053552 98.303787 
L 336.118357 98.255545 
L 329.696708 98.43541 
L 324.082269 98.859031 
L 319.996701 99.412103 
L 316.691381 100.095738 
L 313.948107 100.907759 
L 312.397781 101.508368 
L 310.069823 102.695723 
L 309.175746 103.282097 
L 307.507501 104.706232 
L 306.447322 106.077962 
L 305.9899 107.050389 
L 305.836136 107.626077 
L 305.810931 108.762416 
L 305.960245 109.348473 
L 306.308178 110.047066 
L 306.948749 110.817614 
L 307.794753 111.497037 
L 309.724882 112.502832 
L 311.863833 113.221147 
L 315.322731 113.967796 
L 319.836252 114.536324 
L 324.362186 114.844187 
L 330.641605 115.003357 
L 337.811026 114.931757 
L 346.543974 114.608159 
L 360.108469 113.849248 
L 377.91129 112.650361 
L 388.32187 111.728718 
L 395.721394 110.851427 
L 402.584368 109.799838 
L 408.810684 108.625337 
L 412.480574 107.839071 
L 412.480574 107.839071 
" style="fill:none;stroke:#000000;stroke-linecap:square;stroke-opacity:0.7;stroke-width:1.2;"/>
   </g>
   <g id="line2d_15">
    <path clip-path="url(#p6b75e3e9c8)" d="M 412.041751 69.158554 
L 405.166908 66.924156 
L 399.963101 65.39451 
L 393.046727 63.610959 
L 386.475558 62.174519 
L 380.998034 61.163777 
L 374.587858 60.198623 
L 367.743204 59.437443 
L 361.248851 58.978457 
L 354.26695 58.752456 
L 346.988855 58.762447 
L 339.984946 58.981205 
L 333.654094 59.385703 
L 327.962451 59.981498 
L 323.607622 60.645775 
L 319.427336 61.523175 
L 316.196549 62.43056 
L 313.62248 63.368331 
L 311.778772 64.226228 
L 310.252257 65.147594 
L 309.781498 65.501246 
L 308.646699 66.707326 
L 308.297102 67.609074 
L 308.325254 68.187162 
L 308.457091 68.550292 
L 308.87415 69.127441 
L 309.655329 69.744816 
L 311.265124 70.514848 
L 313.846198 71.272269 
L 317.107642 71.890702 
L 321.530698 72.453971 
L 328.082963 73.010951 
L 335.662677 73.429902 
L 343.402879 73.648176 
L 351.568922 73.618291 
L 359.349692 73.344657 
L 369.288288 72.75387 
L 385.060452 71.574539 
L 398.645533 70.370448 
L 407.740908 69.353959 
L 412.088792 68.775701 
L 412.088792 68.775701 
" style="fill:none;stroke:#000000;stroke-linecap:square;stroke-opacity:0.7;stroke-width:1.2;"/>
   </g>
   <g id="line2d_16">
    <path clip-path="url(#p6b75e3e9c8)" d="M 543.558649 227.329204 
L 528.235747 223.53498 
L 521.388485 222.052601 
L 513.678622 220.619106 
L 506.031626 219.459807 
L 498.748525 218.598726 
L 491.038192 217.933522 
L 483.47442 217.521475 
L 477.523081 217.381496 
L 471.113897 217.447228 
L 465.073874 217.752412 
L 460.9112 218.123036 
L 455.975521 218.764205 
L 451.07737 219.672738 
L 447.945464 220.446608 
L 444.81309 221.445426 
L 442.409125 222.464244 
L 440.818289 223.376304 
L 439.751829 224.24781 
L 439.177911 225.010922 
L 438.965642 225.652749 
L 439.048264 226.383572 
L 439.320733 226.880275 
L 439.811128 227.396947 
L 440.400081 227.82818 
L 441.726114 228.515142 
L 444.032859 229.32568 
L 447.326874 230.123228 
L 450.600132 230.705263 
L 455.305037 231.332034 
L 461.231924 231.891957 
L 468.016861 232.290681 
L 474.221101 232.439808 
L 480.111157 232.391028 
L 487.914564 232.083767 
L 499.297181 231.354382 
L 521.958885 229.641008 
L 531.085182 228.755746 
L 536.986106 228.008257 
L 542.859833 227.050957 
L 543.632431 226.905099 
L 543.632431 226.905099 
" style="fill:none;stroke:#000000;stroke-linecap:square;stroke-opacity:0.7;stroke-width:1.2;"/>
   </g>
   <g id="line2d_17">
    <path clip-path="url(#p6b75e3e9c8)" d="M 544.276656 184.825511 
L 535.394796 184.260313 
L 513.548513 182.697355 
L 505.428461 182.437862 
L 498.430086 182.445283 
L 491.013427 182.661575 
L 465.458668 183.615379 
L 453.027665 184.032005 
L 446.250459 184.504549 
L 441.89371 185.074945 
L 439.517346 185.633911 
L 438.679581 185.966997 
L 438.029256 186.524073 
L 438.025794 186.826942 
L 438.32807 187.188883 
L 439.120266 187.616386 
L 440.828853 188.149058 
L 443.687739 188.707972 
L 448.130376 189.263611 
L 452.67846 189.641197 
L 461.063313 190.082983 
L 470.905977 190.365036 
L 479.539839 190.424348 
L 488.489986 190.269705 
L 497.177309 189.913954 
L 506.818294 189.309557 
L 516.535268 188.481035 
L 525.696939 187.469244 
L 535.173902 186.173484 
L 544.273754 184.809415 
L 544.273754 184.809415 
" style="fill:none;stroke:#000000;stroke-linecap:square;stroke-opacity:0.7;stroke-width:1.2;"/>
   </g>
   <g id="line2d_18">
    <path clip-path="url(#p6b75e3e9c8)" d="M 543.650149 147.459089 
L 537.05012 144.348781 
L 531.757521 142.058705 
L 525.87619 139.744599 
L 520.183596 137.729008 
L 514.3155 135.878532 
L 508.182333 134.198504 
L 502.428321 132.866983 
L 496.782116 131.788133 
L 490.755898 130.872212 
L 485.456017 130.264822 
L 479.903119 129.852742 
L 475.408169 129.730425 
L 470.762492 129.863885 
L 467.161217 130.196755 
L 463.234811 130.840301 
L 459.892089 131.661464 
L 456.303903 132.871361 
L 454.06234 133.825132 
L 451.025702 135.398817 
L 448.188759 137.217175 
L 445.808054 139.076814 
L 443.938835 140.839864 
L 442.465673 142.536905 
L 441.769363 143.508914 
L 440.911245 145.053445 
L 440.480522 146.333131 
L 440.377284 147.285496 
L 440.409512 147.718633 
L 440.694502 148.634407 
L 441.405194 149.552195 
L 441.93062 149.959787 
L 443.211591 150.609435 
L 444.999923 151.143779 
L 446.965369 151.494196 
L 450.094753 151.794397 
L 454.634143 151.946193 
L 460.733546 151.898435 
L 469.979263 151.568709 
L 481.556662 150.909093 
L 513.881159 148.847673 
L 543.585866 147.331548 
L 543.585866 147.331548 
" style="fill:none;stroke:#000000;stroke-linecap:square;stroke-opacity:0.7;stroke-width:1.2;"/>
   </g>
   <g id="line2d_19">
    <path clip-path="url(#p6b75e3e9c8)" d="M 543.201225 108.659305 
L 532.400713 104.869017 
L 525.928862 102.819868 
L 520.499809 101.303549 
L 514.625406 99.909193 
L 508.805192 98.790344 
L 502.64336 97.867541 
L 495.885265 97.106494 
L 488.633302 96.516235 
L 481.555276 96.151568 
L 476.147459 96.044606 
L 470.657229 96.137352 
L 465.820489 96.434725 
L 461.25503 96.947222 
L 457.223912 97.627078 
L 453.450993 98.494636 
L 450.331563 99.412159 
L 447.288103 100.517574 
L 444.038904 101.992348 
L 442.124392 103.064464 
L 440.152217 104.451292 
L 439.198478 105.348493 
L 438.538065 106.263448 
L 438.301008 106.950159 
L 438.309185 107.475559 
L 438.485788 107.939187 
L 438.85146 108.396618 
L 439.829838 109.067084 
L 441.45581 109.714021 
L 443.421677 110.224878 
L 446.546061 110.770662 
L 451.010579 111.262965 
L 456.414267 111.593612 
L 463.018108 111.716759 
L 468.934788 111.608509 
L 476.222652 111.240711 
L 486.693386 110.423546 
L 498.745327 109.477961 
L 506.311945 109.109515 
L 516.403848 108.88998 
L 539.357507 108.493094 
L 543.244034 108.366045 
L 543.244034 108.366045 
" style="fill:none;stroke:#000000;stroke-linecap:square;stroke-opacity:0.7;stroke-width:1.2;"/>
   </g>
   <g id="line2d_20">
    <path clip-path="url(#p6b75e3e9c8)" d="M 543.899445 68.649913 
L 522.514457 64.502512 
L 513.791784 63.12312 
L 506.43791 62.17612 
L 498.386261 61.381244 
L 491.437532 60.906529 
L 483.611592 60.617427 
L 477.057104 60.593801 
L 471.225695 60.762542 
L 465.011932 61.164184 
L 459.592775 61.724069 
L 454.147626 62.513664 
L 449.219719 63.46896 
L 445.224031 64.472454 
L 441.817279 65.591757 
L 439.681678 66.555279 
L 438.684423 67.200287 
L 438.218402 67.648774 
L 437.937966 68.17051 
L 437.994398 68.751698 
L 438.322841 69.193321 
L 438.841603 69.58936 
L 439.806295 70.087098 
L 442.099657 70.888223 
L 445.492785 71.7372 
L 450.272938 72.67062 
L 456.480439 73.654478 
L 463.399714 74.5123 
L 468.494642 74.950757 
L 474.132548 75.206032 
L 479.615853 75.222781 
L 485.864 75.00728 
L 492.85046 74.552857 
L 504.484618 73.539189 
L 521.021255 71.896672 
L 530.753251 70.706261 
L 538.338935 69.546665 
L 543.876856 68.529383 
L 543.876856 68.529383 
" style="fill:none;stroke:#000000;stroke-linecap:square;stroke-opacity:0.7;stroke-width:1.2;"/>
   </g>
   <g id="line2d_21">
    <path clip-path="url(#p6b75e3e9c8)" d="M 675.405096 226.038206 
L 669.380783 223.471532 
L 662.682182 220.869 
L 656.457966 218.70606 
L 650.626561 216.903745 
L 644.404884 215.227253 
L 638.918758 213.968423 
L 632.633344 212.782945 
L 626.765774 211.916429 
L 620.33962 211.216777 
L 614.686106 210.810242 
L 608.702308 210.607789 
L 603.159554 210.663967 
L 598.363003 210.942737 
L 594.714541 211.3289 
L 590.912559 211.926302 
L 587.491547 212.671424 
L 584.375703 213.562067 
L 581.42391 214.639761 
L 579.29018 215.597259 
L 577.257381 216.68772 
L 575.235949 218.001674 
L 574.361317 218.666247 
L 573.109538 219.762654 
L 571.620204 221.444758 
L 570.891721 222.610474 
L 570.412079 223.841894 
L 570.277973 224.65538 
L 570.316511 225.501717 
L 570.573546 226.360009 
L 571.061103 227.16933 
L 571.654384 227.807303 
L 572.264085 228.296078 
L 573.786538 229.16423 
L 575.49499 229.829156 
L 577.700925 230.431983 
L 581.032105 231.030781 
L 585.095118 231.462973 
L 589.517609 231.704276 
L 595.125718 231.784196 
L 601.812061 231.645523 
L 609.266749 231.269489 
L 618.570624 230.575051 
L 635.338092 229.037457 
L 655.541836 227.230002 
L 668.437216 226.296846 
L 675.405823 225.914228 
L 675.405823 225.914228 
" style="fill:none;stroke:#000000;stroke-linecap:square;stroke-opacity:0.7;stroke-width:1.2;"/>
   </g>
   <g id="line2d_22">
    <path clip-path="url(#p6b75e3e9c8)" d="M 674.961419 186.947196 
L 666.451478 183.665455 
L 659.376011 181.171689 
L 652.607772 179.022446 
L 645.321354 176.961198 
L 638.906626 175.363943 
L 632.00624 173.887916 
L 625.400538 172.732324 
L 619.760418 171.96653 
L 614.77064 171.483135 
L 610.255016 171.231799 
L 606.242398 171.18664 
L 601.96297 171.360535 
L 598.5054 171.698443 
L 594.801508 172.288276 
L 591.743035 172.977374 
L 588.593429 173.902772 
L 585.39231 175.096659 
L 582.672551 176.340986 
L 579.731837 177.970877 
L 576.830888 179.961545 
L 575.0213 181.499927 
L 573.559808 183.062507 
L 572.715993 184.275202 
L 572.27711 185.198714 
L 572.044559 186.311253 
L 572.125567 187.06204 
L 572.35483 187.629466 
L 572.632141 188.036642 
L 573.501298 188.807385 
L 575.18697 189.632488 
L 576.91081 190.145196 
L 579.149317 190.582811 
L 582.394751 190.973169 
L 586.609196 191.24227 
L 592.014654 191.366227 
L 599.034232 191.312849 
L 608.135407 191.026697 
L 619.244699 190.450018 
L 631.910377 189.556187 
L 660.199989 187.420381 
L 669.572731 186.991765 
L 674.954679 186.847591 
L 674.954679 186.847591 
" style="fill:none;stroke:#000000;stroke-linecap:square;stroke-opacity:0.7;stroke-width:1.2;"/>
   </g>
   <g id="line2d_23">
    <path clip-path="url(#p6b75e3e9c8)" d="M 675.384995 146.890175 
L 664.071971 144.31716 
L 656.880896 142.87827 
L 650.079484 141.716707 
L 642.993609 140.733178 
L 636.305911 140.023641 
L 629.298144 139.496626 
L 621.676929 139.136213 
L 612.31241 138.921563 
L 603.801673 138.94631 
L 597.708128 139.171623 
L 592.405795 139.583617 
L 587.994038 140.13198 
L 584.142577 140.806389 
L 580.36613 141.694659 
L 577.582885 142.53749 
L 575.145377 143.458809 
L 573.420438 144.271527 
L 571.759538 145.344425 
L 571.286622 145.875768 
L 571.195069 146.266853 
L 571.33686 146.513977 
L 571.568823 146.66966 
L 572.536209 146.928588 
L 574.353838 147.053992 
L 577.115345 147.021167 
L 586.294684 146.563362 
L 598.227235 146.050626 
L 611.910327 145.733405 
L 646.913165 145.244892 
L 656.508149 145.313931 
L 663.982082 145.584091 
L 669.777368 145.99555 
L 675.399854 146.6059 
L 675.399854 146.6059 
" style="fill:none;stroke:#000000;stroke-linecap:square;stroke-opacity:0.7;stroke-width:1.2;"/>
   </g>
   <g id="line2d_24">
    <path clip-path="url(#p6b75e3e9c8)" d="M 675.490909 106.866207 
L 669.552893 104.5136 
L 663.762404 102.470214 
L 658.119804 100.73695 
L 652.641472 99.295206 
L 646.998195 98.055669 
L 641.489855 97.082401 
L 635.612085 96.286297 
L 628.734302 95.625759 
L 621.354343 95.159756 
L 612.542484 94.848743 
L 605.828923 94.832091 
L 599.901907 95.08409 
L 595.889577 95.459576 
L 591.522378 96.10929 
L 588.026837 96.845001 
L 584.56956 97.794501 
L 581.551 98.835514 
L 579.07469 99.867217 
L 576.11072 101.375976 
L 573.60202 103.010382 
L 572.959406 103.518895 
L 571.51842 104.957329 
L 570.932217 105.890884 
L 570.722969 106.660391 
L 570.766442 107.165598 
L 570.994165 107.652309 
L 571.27888 107.973183 
L 572.250095 108.571981 
L 574.304693 109.155757 
L 576.273811 109.423017 
L 579.206563 109.59914 
L 584.104052 109.623297 
L 593.09528 109.359289 
L 634.286354 107.916838 
L 675.458545 106.786958 
L 675.458545 106.786958 
" style="fill:none;stroke:#000000;stroke-linecap:square;stroke-opacity:0.7;stroke-width:1.2;"/>
   </g>
   <g id="line2d_25">
    <path clip-path="url(#p6b75e3e9c8)" d="M 675.275469 68.022766 
L 649.645495 63.781802 
L 641.015765 62.670147 
L 632.762525 61.823019 
L 624.348642 61.158535 
L 614.928223 60.637671 
L 607.580324 60.45408 
L 601.121633 60.549521 
L 595.877742 60.861695 
L 591.226904 61.34398 
L 587.027836 61.966074 
L 582.592758 62.847641 
L 578.754449 63.848815 
L 576.065433 64.742604 
L 574.127089 65.552984 
L 572.765713 66.287586 
L 571.923602 66.914127 
L 571.409507 67.580746 
L 571.374235 68.142942 
L 571.668664 68.550107 
L 572.225221 68.894171 
L 573.041369 69.188206 
L 574.301458 69.467091 
L 576.384457 69.730402 
L 579.520592 69.916925 
L 586.032959 69.966088 
L 595.661387 69.730596 
L 624.135083 68.922569 
L 675.183336 67.867971 
L 675.2933 67.86802 
L 675.2933 67.86802 
" style="fill:none;stroke:#000000;stroke-linecap:square;stroke-opacity:0.7;stroke-width:1.2;"/>
   </g>
  </g>
 </g>
 <defs>
  <clipPath id="p6b75e3e9c8">
   <rect height="262.08" width="694.08" x="12.96" y="12.96"/>
  </clipPath>
 </defs>
</svg>
