<?xml version="1.0" encoding="utf-8" standalone="no"?>
<!DOCTYPE svg PUBLIC "-//W3C//DTD SVG 1.1//EN"
  "http://www.w3.org/Graphics/SVG/1.1/DTD/svg11.dtd">
<!-- Created with matplotlib (https://matplotlib.org/) -->
<svg height="288pt" version="1.1" viewBox="0 0 720 288" width="720pt" xmlns="http://www.w3.org/2000/svg" xmlns:xlink="http://www.w3.org/1999/xlink">
 <metadata>
  <rdf:RDF xmlns:cc="http://creativecommons.org/ns#" xmlns:dc="http://purl.org/dc/elements/1.1/" xmlns:rdf="http://www.w3.org/1999/02/22-rdf-syntax-ns#">
   <cc:Work>
    <dc:type rdf:resource="http://purl.org/dc/dcmitype/StillImage"/>
    <dc:date>2021-05-05T23:49:11.107636</dc:date>
    <dc:format>image/svg+xml</dc:format>
    <dc:creator>
     <cc:Agent>
      <dc:title>Matplotlib v3.3.4, https://matplotlib.org/</dc:title>
     </cc:Agent>
    </dc:creator>
   </cc:Work>
  </rdf:RDF>
 </metadata>
 <defs>
  <style type="text/css">*{stroke-linecap:butt;stroke-linejoin:round;}</style>
 </defs>
 <g id="figure_1">
  <g id="patch_1">
   <path d="M 0 288 
L 720 288 
L 720 0 
L 0 0 
z
" style="fill:#ffffff;"/>
  </g>
  <g id="axes_1">
   <g id="line2d_1">
    <path clip-path="url(#p41a4390c02)" d="M 149.287352 225.22203 
L 139.173863 224.486321 
L 128.483051 223.457456 
L 107.061884 221.365663 
L 94.19177 220.355158 
L 84.551394 219.813992 
L 77.389862 219.623048 
L 71.342752 219.677064 
L 65.881086 219.946188 
L 61.4068 220.353901 
L 56.987998 220.955409 
L 53.399337 221.626774 
L 50.327393 222.381703 
L 47.705516 223.23765 
L 45.865842 224.081648 
L 45.000389 224.683886 
L 44.576848 225.226101 
L 44.527865 225.688331 
L 44.77715 226.104395 
L 45.33058 226.50456 
L 46.578347 227.013759 
L 48.286004 227.457614 
L 51.125218 227.958056 
L 55.693675 228.490062 
L 61.647394 228.930543 
L 68.540749 229.230358 
L 77.438876 229.396703 
L 88.392175 229.376629 
L 101.687642 229.141363 
L 114.028244 228.728743 
L 126.332705 228.096931 
L 134.741431 227.451549 
L 140.933155 226.764964 
L 147.08793 225.873908 
L 149.298582 225.513419 
L 149.298582 225.513419 
" style="fill:none;stroke:#000000;stroke-linecap:square;stroke-opacity:0.7;stroke-width:1.2;"/>
   </g>
   <g id="line2d_2">
    <path clip-path="url(#p41a4390c02)" d="M 149.339108 185.614861 
L 136.533219 182.297633 
L 128.191067 180.354348 
L 120.060128 178.670563 
L 113.216959 177.447141 
L 106.179797 176.426402 
L 99.692193 175.734892 
L 94.036544 175.338243 
L 87.503432 175.119705 
L 81.625488 175.146737 
L 75.746904 175.403883 
L 70.920723 175.811746 
L 66.587701 176.355577 
L 62.626122 177.028643 
L 59.214472 177.773729 
L 55.957119 178.668728 
L 53.095725 179.656297 
L 50.960933 180.569912 
L 49.261079 181.460639 
L 47.705242 182.481301 
L 46.728031 183.297134 
L 45.659791 184.532752 
L 45.142997 185.542594 
L 44.961386 186.465619 
L 45.057889 187.282888 
L 45.380275 188.009102 
L 46.148722 188.898206 
L 47.331334 189.719558 
L 48.727624 190.383991 
L 50.609911 191.039618 
L 53.735729 191.825671 
L 57.97446 192.584563 
L 63.197571 193.254096 
L 69.383369 193.799947 
L 75.364235 194.122752 
L 81.347657 194.258364 
L 87.907415 194.195109 
L 93.824935 193.946707 
L 100.435844 193.444834 
L 106.597576 192.749204 
L 112.953482 191.805269 
L 121.177744 190.332784 
L 136.40117 187.50915 
L 142.537701 186.606523 
L 147.76874 186.045926 
L 149.327998 185.917096 
L 149.327998 185.917096 
" style="fill:none;stroke:#000000;stroke-linecap:square;stroke-opacity:0.7;stroke-width:1.2;"/>
   </g>
   <g id="line2d_3">
    <path clip-path="url(#p41a4390c02)" d="M 148.694483 147.183753 
L 139.203675 145.305694 
L 129.825223 143.692152 
L 118.550656 141.989441 
L 103.155546 139.886905 
L 91.51952 138.507349 
L 84.331878 137.847982 
L 78.622855 137.514539 
L 73.926321 137.424525 
L 69.100331 137.558231 
L 65.034562 137.887966 
L 61.258669 138.405757 
L 57.421187 139.180889 
L 53.961945 140.144498 
L 50.937933 141.255683 
L 48.865774 142.217913 
L 46.855481 143.397996 
L 45.758168 144.235787 
L 44.959643 145.101163 
L 44.685256 145.757268 
L 44.731271 146.107788 
L 45.024341 146.47315 
L 45.585635 146.770207 
L 46.793496 147.072935 
L 49.449684 147.329667 
L 53.741564 147.418147 
L 62.56376 147.293884 
L 81.039598 147.010715 
L 93.368039 147.082862 
L 112.818466 147.233563 
L 139.90397 147.313121 
L 148.702231 147.424499 
L 148.702231 147.424499 
" style="fill:none;stroke:#000000;stroke-linecap:square;stroke-opacity:0.7;stroke-width:1.2;"/>
   </g>
   <g id="line2d_4">
    <path clip-path="url(#p41a4390c02)" d="M 149.007677 107.364069 
L 133.927568 103.141657 
L 124.340487 100.680736 
L 116.185929 98.800142 
L 107.757424 97.102077 
L 100.199461 95.80337 
L 93.204752 94.803945 
L 87.551769 94.178619 
L 82.679595 93.821983 
L 77.913658 93.68348 
L 73.640993 93.765419 
L 69.183451 94.082063 
L 65.43752 94.551889 
L 61.209138 95.345488 
L 57.964112 96.191362 
L 54.992968 97.208493 
L 53.171845 97.987304 
L 50.555881 99.404681 
L 48.785029 100.662664 
L 47.206797 102.124575 
L 45.929608 103.767338 
L 45.188977 105.276315 
L 44.940806 106.415388 
L 44.981826 107.277376 
L 45.329272 108.200114 
L 45.79806 108.802631 
L 46.672604 109.479292 
L 47.990811 110.096305 
L 49.722763 110.595133 
L 51.726703 110.955736 
L 55.131172 111.297707 
L 59.920021 111.489039 
L 67.107367 111.481146 
L 78.185033 111.178853 
L 120.961073 109.550215 
L 133.701907 108.878924 
L 143.755509 108.102731 
L 149.02205 107.614984 
L 149.02205 107.614984 
" style="fill:none;stroke:#000000;stroke-linecap:square;stroke-opacity:0.7;stroke-width:1.2;"/>
   </g>
   <g id="line2d_5">
    <path clip-path="url(#p41a4390c02)" d="M 148.606505 68.324755 
L 142.027829 65.866604 
L 136.432719 63.983724 
L 130.513091 62.217509 
L 122.825934 60.188105 
L 112.558288 57.739342 
L 102.950361 55.64232 
L 95.922421 54.314016 
L 90.484058 53.485075 
L 85.714934 52.953443 
L 81.125569 52.656584 
L 76.876314 52.605265 
L 73.894574 52.71655 
L 70.280444 53.035664 
L 66.514827 53.611021 
L 63.617948 54.246222 
L 60.932212 55.006557 
L 57.56455 56.231513 
L 54.748764 57.533212 
L 52.564271 58.756661 
L 50.35983 60.228954 
L 48.601778 61.627504 
L 47.064328 63.088067 
L 45.747225 64.652983 
L 44.9604 65.940465 
L 44.652439 66.734545 
L 44.537659 67.562976 
L 44.690246 68.277247 
L 45.092298 68.865999 
L 46.014072 69.505178 
L 47.532607 70.039369 
L 49.497975 70.412423 
L 51.555917 70.63574 
L 56.408993 70.86097 
L 62.902371 70.873741 
L 73.690541 70.631565 
L 101.312008 69.706524 
L 134.029178 68.562852 
L 144.900333 68.493981 
L 148.630363 68.512437 
L 148.630363 68.512437 
" style="fill:none;stroke:#000000;stroke-linecap:square;stroke-opacity:0.7;stroke-width:1.2;"/>
   </g>
   <g id="line2d_6">
    <path clip-path="url(#p41a4390c02)" d="M 280.366136 225.932818 
L 270.614905 224.328227 
L 262.56606 223.22016 
L 253.694727 222.243717 
L 245.760736 221.615095 
L 239.25502 221.309905 
L 231.160336 221.181603 
L 221.597345 221.273183 
L 210.353496 221.594105 
L 201.612382 222.044468 
L 194.787457 222.588444 
L 188.84408 223.246631 
L 183.798948 223.982194 
L 179.43491 224.818445 
L 176.68805 225.575909 
L 175.850613 226.023417 
L 175.763487 226.231724 
L 175.873865 226.406549 
L 176.157512 226.577668 
L 176.899323 226.829909 
L 179.185866 227.287702 
L 183.755913 227.872483 
L 190.130452 228.429586 
L 197.967115 228.870962 
L 206.515435 229.104254 
L 215.257173 229.105212 
L 223.01787 228.922218 
L 231.181 228.536846 
L 239.87223 227.89912 
L 260.918021 226.197665 
L 267.893359 225.92974 
L 274.170992 225.937612 
L 280.363419 226.172125 
L 280.363419 226.172125 
" style="fill:none;stroke:#000000;stroke-linecap:square;stroke-opacity:0.7;stroke-width:1.2;"/>
   </g>
   <g id="line2d_7">
    <path clip-path="url(#p41a4390c02)" d="M 280.850048 185.658495 
L 273.543731 183.376975 
L 268.228466 181.936775 
L 262.620658 180.652707 
L 256.746236 179.513898 
L 249.741796 178.387312 
L 243.890059 177.63982 
L 238.044131 177.07779 
L 230.849582 176.632865 
L 223.568447 176.434872 
L 216.483481 176.477441 
L 210.441999 176.723464 
L 204.648636 177.186344 
L 199.949299 177.760152 
L 195.274521 178.537393 
L 190.660461 179.539206 
L 187.27532 180.450714 
L 183.994327 181.514023 
L 181.037398 182.683105 
L 178.476351 183.978478 
L 177.348461 184.740913 
L 176.627623 185.437987 
L 176.315038 186.099631 
L 176.366175 186.499488 
L 176.666924 186.906819 
L 177.452459 187.392205 
L 178.81488 187.868502 
L 180.942605 188.344487 
L 183.963697 188.805121 
L 188.311263 189.262355 
L 194.29582 189.67001 
L 201.568534 189.929202 
L 209.056539 189.977943 
L 217.726343 189.80055 
L 226.609947 189.397539 
L 235.089703 188.812636 
L 244.824573 187.895417 
L 265.773194 185.727913 
L 270.449519 185.494477 
L 274.967214 185.51235 
L 279.266782 185.791833 
L 280.85028 185.956123 
L 280.85028 185.956123 
" style="fill:none;stroke:#000000;stroke-linecap:square;stroke-opacity:0.7;stroke-width:1.2;"/>
   </g>
   <g id="line2d_8">
    <path clip-path="url(#p41a4390c02)" d="M 280.611916 146.701407 
L 270.648593 144.817709 
L 262.40489 143.477726 
L 252.677342 142.121026 
L 243.57482 141.048434 
L 234.195992 140.17656 
L 224.632889 139.532085 
L 216.32179 139.183039 
L 209.354778 139.110542 
L 203.61748 139.276128 
L 198.473885 139.654188 
L 193.758709 140.234522 
L 190.155309 140.857101 
L 185.850471 141.848595 
L 182.528012 142.850333 
L 180.16425 143.739014 
L 177.671494 144.942477 
L 176.315282 145.880613 
L 175.851662 146.465736 
L 175.815071 146.744462 
L 175.9579 146.983294 
L 176.287906 147.174849 
L 177.385957 147.406688 
L 178.8461 147.493899 
L 182.019071 147.458306 
L 190.415818 147.033463 
L 202.556081 146.433412 
L 211.052512 146.228419 
L 219.683495 146.249663 
L 235.204174 146.599201 
L 250.868521 146.821094 
L 280.050125 146.973594 
L 280.612712 146.968988 
L 280.612712 146.968988 
" style="fill:none;stroke:#000000;stroke-linecap:square;stroke-opacity:0.7;stroke-width:1.2;"/>
   </g>
   <g id="line2d_9">
    <path clip-path="url(#p41a4390c02)" d="M 280.65108 107.188294 
L 270.02681 104.842831 
L 262.132831 103.319637 
L 254.092807 101.994649 
L 247.1828 101.05142 
L 240.434856 100.347829 
L 233.562358 99.885995 
L 226.937244 99.679846 
L 219.557754 99.69418 
L 212.772084 99.913534 
L 205.69018 100.362502 
L 199.721881 100.944654 
L 193.633834 101.773816 
L 188.778072 102.649826 
L 185.072838 103.488556 
L 181.503858 104.50022 
L 178.703293 105.542942 
L 177.350429 106.231571 
L 176.580144 106.804091 
L 176.208149 107.383426 
L 176.25717 107.819969 
L 176.496137 108.138681 
L 176.940579 108.471905 
L 177.571791 108.798257 
L 179.363741 109.438982 
L 182.308058 110.180183 
L 187.121271 111.077039 
L 193.276081 111.930624 
L 199.970232 112.599739 
L 207.181029 113.066492 
L 214.796158 113.302289 
L 222.115219 113.293025 
L 229.208462 113.045077 
L 235.314404 112.604936 
L 241.487403 111.931293 
L 250.129876 110.7128 
L 266.461401 108.323418 
L 271.8393 107.767186 
L 276.244438 107.504429 
L 280.646193 107.433758 
L 280.646193 107.433758 
" style="fill:none;stroke:#000000;stroke-linecap:square;stroke-opacity:0.7;stroke-width:1.2;"/>
   </g>
   <g id="line2d_10">
    <path clip-path="url(#p41a4390c02)" d="M 280.844176 67.324271 
L 273.983868 64.651983 
L 268.788111 62.831545 
L 262.768359 60.989358 
L 255.950773 59.167162 
L 247.69404 57.217952 
L 239.560567 55.53522 
L 232.289796 54.258788 
L 226.161504 53.403348 
L 220.691056 52.869677 
L 216.094646 52.636358 
L 212.059891 52.624948 
L 207.544975 52.854925 
L 203.137244 53.351471 
L 199.433326 53.995659 
L 196.023789 54.790383 
L 192.588563 55.811597 
L 189.363768 57.00622 
L 186.374107 58.365093 
L 183.653356 59.8756 
L 181.12126 61.611928 
L 179.223292 63.240798 
L 177.798198 64.818183 
L 177.005724 66.059375 
L 176.70529 66.889376 
L 176.68203 67.568224 
L 176.829282 67.977638 
L 177.026412 68.238717 
L 177.769341 68.712814 
L 179.017214 69.036943 
L 180.832899 69.19487 
L 183.973602 69.163405 
L 189.615782 68.785909 
L 218.137179 66.459334 
L 228.030807 66.019959 
L 236.589658 65.848345 
L 245.149874 65.866031 
L 255.427206 66.122311 
L 265.520733 66.618963 
L 280.851322 67.578913 
L 280.851322 67.578913 
" style="fill:none;stroke:#000000;stroke-linecap:square;stroke-opacity:0.7;stroke-width:1.2;"/>
   </g>
   <g id="line2d_11">
    <path clip-path="url(#p41a4390c02)" d="M 412.363498 225.310333 
L 404.166625 222.784197 
L 397.648288 220.998505 
L 390.44643 219.257273 
L 382.243579 217.508854 
L 375.223876 216.243346 
L 369.41195 215.409165 
L 363.287137 214.771401 
L 357.415008 214.394127 
L 351.416574 214.234896 
L 345.196261 214.309577 
L 340.369302 214.549681 
L 335.666949 214.96035 
L 330.858805 215.593859 
L 325.889659 216.5241 
L 322.066192 217.474743 
L 319.08468 218.39271 
L 315.898329 219.593485 
L 313.288324 220.808987 
L 311.557368 221.788469 
L 309.920025 222.936885 
L 308.923202 223.858948 
L 308.180721 224.926393 
L 307.994755 225.579579 
L 308.034031 226.124821 
L 308.303292 226.694548 
L 308.987427 227.370043 
L 310.229332 228.083496 
L 312.08021 228.788297 
L 314.13685 229.366598 
L 317.861429 230.153526 
L 322.730244 230.905095 
L 328.742312 231.557993 
L 335.061558 231.989449 
L 341.012067 232.187731 
L 347.210069 232.203415 
L 354.740738 231.990102 
L 361.973013 231.558169 
L 369.406166 230.867205 
L 376.528038 229.968185 
L 386.109121 228.511494 
L 399.165419 226.500506 
L 404.849274 225.859758 
L 408.684508 225.620193 
L 412.364018 225.566044 
L 412.364018 225.566044 
" style="fill:none;stroke:#000000;stroke-linecap:square;stroke-opacity:0.7;stroke-width:1.2;"/>
   </g>
   <g id="line2d_12">
    <path clip-path="url(#p41a4390c02)" d="M 412.282633 186.031785 
L 403.879704 183.095448 
L 397.89876 181.213003 
L 391.859605 179.515999 
L 383.599823 177.455817 
L 375.165075 175.601997 
L 366.973661 174.043888 
L 360.007793 172.942457 
L 354.409013 172.249619 
L 349.670264 171.836479 
L 344.767485 171.617028 
L 340.351693 171.633742 
L 336.703519 171.821746 
L 333.079908 172.181862 
L 329.360049 172.751719 
L 326.349375 173.381043 
L 323.239071 174.215338 
L 320.307651 175.208239 
L 317.424486 176.434652 
L 314.660185 177.93097 
L 312.350636 179.546059 
L 310.998399 180.743667 
L 309.64953 182.296196 
L 308.9298 183.48649 
L 308.585558 184.438402 
L 308.504109 185.251831 
L 308.626294 185.881571 
L 309.051911 186.593774 
L 309.828674 187.220039 
L 310.51633 187.562621 
L 312.231815 188.085676 
L 314.136055 188.41144 
L 317.228196 188.686369 
L 322.220259 188.828491 
L 329.360226 188.757147 
L 341.659669 188.368494 
L 373.999185 187.288531 
L 398.731399 186.652962 
L 412.295983 186.278835 
L 412.295983 186.278835 
" style="fill:none;stroke:#000000;stroke-linecap:square;stroke-opacity:0.7;stroke-width:1.2;"/>
   </g>
   <g id="line2d_13">
    <path clip-path="url(#p41a4390c02)" d="M 411.894484 147.198247 
L 380.093999 143.07591 
L 354.351862 139.773449 
L 346.394016 139.002204 
L 340.569048 138.637238 
L 335.824001 138.515165 
L 330.892819 138.596914 
L 326.476289 138.888174 
L 322.085074 139.430759 
L 318.478517 140.121975 
L 315.33412 140.979783 
L 313.336115 141.708327 
L 311.390542 142.639061 
L 309.908825 143.609098 
L 308.959784 144.483055 
L 308.211977 145.595318 
L 308.006502 146.214814 
L 307.961631 146.973286 
L 308.149732 147.71507 
L 308.594486 148.461309 
L 309.410049 149.269146 
L 310.524455 150.009112 
L 312.59768 150.951192 
L 315.451863 151.831799 
L 318.500034 152.500872 
L 322.790765 153.169306 
L 327.68909 153.679203 
L 333.362664 154.029088 
L 339.13837 154.174385 
L 346.350394 154.110171 
L 354.975973 153.761569 
L 365.852036 153.064116 
L 378.345346 152.0421 
L 389.223853 150.955685 
L 398.008394 149.856512 
L 404.089255 148.897119 
L 411.41948 147.493328 
L 411.933674 147.386134 
L 411.933674 147.386134 
" style="fill:none;stroke:#000000;stroke-linecap:square;stroke-opacity:0.7;stroke-width:1.2;"/>
   </g>
   <g id="line2d_14">
    <path clip-path="url(#p41a4390c02)" d="M 412.096664 107.363941 
L 398.742139 105.784145 
L 388.20155 104.800606 
L 357.986987 102.148959 
L 348.572325 101.39615 
L 342.55348 101.11656 
L 336.917502 101.08476 
L 332.05233 101.277657 
L 327.417304 101.674309 
L 322.999463 102.263039 
L 318.25399 103.152024 
L 314.595144 104.054539 
L 311.163555 105.135403 
L 308.878492 106.069415 
L 307.615816 106.823079 
L 307.458291 107.139795 
L 307.686127 107.290912 
L 308.531301 107.384311 
L 310.499374 107.332927 
L 332.789537 106.089613 
L 340.155222 106.037646 
L 347.646448 106.215284 
L 358.612105 106.735361 
L 370.553705 107.243347 
L 381.818467 107.475984 
L 400.791884 107.59971 
L 412.093113 107.615048 
L 412.093113 107.615048 
" style="fill:none;stroke:#000000;stroke-linecap:square;stroke-opacity:0.7;stroke-width:1.2;"/>
   </g>
   <g id="line2d_15">
    <path clip-path="url(#p41a4390c02)" d="M 412.292169 67.650234 
L 398.605247 66.533931 
L 376.270012 64.630994 
L 349.004614 62.645934 
L 342.046899 62.315676 
L 336.154212 62.232687 
L 329.999615 62.393755 
L 325.246166 62.716318 
L 320.71924 63.212802 
L 316.52749 63.887177 
L 313.446283 64.581868 
L 311.341068 65.226727 
L 309.814495 65.868513 
L 308.738274 66.541512 
L 308.245548 67.063054 
L 308.046519 67.60787 
L 308.145561 68.067359 
L 308.372619 68.383662 
L 308.948065 68.827516 
L 310.073563 69.336276 
L 311.858942 69.834318 
L 314.700656 70.326729 
L 319.027342 70.771229 
L 325.01543 71.105087 
L 333.592418 71.302145 
L 344.606597 71.290389 
L 358.92949 71.035045 
L 373.374384 70.584985 
L 385.827544 69.98715 
L 397.981143 69.179056 
L 410.375157 68.101879 
L 412.296184 67.920741 
L 412.296184 67.920741 
" style="fill:none;stroke:#000000;stroke-linecap:square;stroke-opacity:0.7;stroke-width:1.2;"/>
   </g>
   <g id="line2d_16">
    <path clip-path="url(#p41a4390c02)" d="M 543.890234 225.429589 
L 513.961968 219.855599 
L 501.751138 217.801628 
L 493.425052 216.599661 
L 485.898727 215.729678 
L 479.782549 215.215333 
L 473.868875 214.927182 
L 469.162466 214.887864 
L 464.475529 215.066921 
L 460.281901 215.463928 
L 456.979777 215.974484 
L 453.759109 216.68001 
L 450.683921 217.588737 
L 447.907153 218.655834 
L 446.140005 219.48783 
L 443.583302 220.974523 
L 441.979481 222.160159 
L 440.900995 223.157054 
L 439.88205 224.490144 
L 439.554133 225.363822 
L 439.540497 225.906762 
L 439.738162 226.470409 
L 440.178324 226.988834 
L 441.15729 227.602052 
L 442.474069 228.0938 
L 444.625697 228.60106 
L 447.775006 229.055829 
L 452.004794 229.406837 
L 457.765 229.628091 
L 465.170517 229.667319 
L 477.342729 229.454847 
L 520.191754 228.371139 
L 527.87233 227.883196 
L 533.455534 227.322738 
L 539.148371 226.527414 
L 543.88726 225.712302 
L 543.88726 225.712302 
" style="fill:none;stroke:#000000;stroke-linecap:square;stroke-opacity:0.7;stroke-width:1.2;"/>
   </g>
   <g id="line2d_17">
    <path clip-path="url(#p41a4390c02)" d="M 544.129778 185.196985 
L 534.120911 182.375673 
L 527.276682 180.69092 
L 518.992565 178.89574 
L 510.595238 177.28378 
L 502.228821 175.918333 
L 495.238728 175.018564 
L 489.31528 174.459787 
L 483.299233 174.108976 
L 478.386714 174.009545 
L 473.661451 174.101615 
L 468.905112 174.413501 
L 464.10317 174.989194 
L 460.605994 175.59745 
L 456.950652 176.427323 
L 453.739626 177.343707 
L 450.419111 178.510349 
L 447.407698 179.809854 
L 444.65838 181.273063 
L 443.064318 182.302713 
L 441.591321 183.456164 
L 440.478424 184.595457 
L 439.820314 185.640989 
L 439.649639 186.2736 
L 439.732394 186.925726 
L 440.098045 187.472552 
L 440.918155 188.034794 
L 441.93791 188.433211 
L 443.864387 188.884095 
L 447.334887 189.317017 
L 451.548176 189.568473 
L 457.851898 189.672062 
L 465.28057 189.53305 
L 473.9218 189.105773 
L 483.689957 188.374452 
L 513.204735 185.985678 
L 522.546186 185.487966 
L 530.236875 185.273337 
L 537.553185 185.305441 
L 544.137099 185.505771 
L 544.137099 185.505771 
" style="fill:none;stroke:#000000;stroke-linecap:square;stroke-opacity:0.7;stroke-width:1.2;"/>
   </g>
   <g id="line2d_18">
    <path clip-path="url(#p41a4390c02)" d="M 544.110902 145.89561 
L 534.312871 144.679776 
L 523.865931 143.126676 
L 508.609376 140.857568 
L 499.054158 139.66948 
L 491.215655 138.909541 
L 483.649954 138.405207 
L 477.543814 138.200986 
L 471.269566 138.221415 
L 465.295474 138.494158 
L 460.83436 138.882864 
L 456.14278 139.493402 
L 451.501744 140.355472 
L 448.253177 141.171642 
L 445.247086 142.170458 
L 443.431355 142.961548 
L 441.648236 144.003529 
L 440.55836 144.933121 
L 439.939124 145.782479 
L 439.686835 146.535884 
L 439.730221 147.287648 
L 439.948788 147.801514 
L 440.489263 148.458779 
L 441.726552 149.307002 
L 443.283096 149.977257 
L 445.237485 150.562926 
L 448.46648 151.227779 
L 452.532098 151.783121 
L 457.094999 152.193003 
L 463.031342 152.508076 
L 470.220745 152.646888 
L 477.873382 152.56382 
L 487.410172 152.219995 
L 499.872055 151.529254 
L 513.133664 150.570788 
L 522.693649 149.696944 
L 530.185716 148.800755 
L 536.160343 147.849676 
L 541.91333 146.714295 
L 544.114038 146.235335 
L 544.114038 146.235335 
" style="fill:none;stroke:#000000;stroke-linecap:square;stroke-opacity:0.7;stroke-width:1.2;"/>
   </g>
   <g id="line2d_19">
    <path clip-path="url(#p41a4390c02)" d="M 543.821452 107.081846 
L 534.342852 105.346065 
L 526.09519 104.091568 
L 517.639433 103.039079 
L 509.593198 102.25033 
L 501.418446 101.695858 
L 493.131864 101.370596 
L 482.641324 101.201111 
L 473.21595 101.267378 
L 466.004124 101.546601 
L 460.202089 101.994302 
L 455.484297 102.551518 
L 450.952416 103.290226 
L 446.370733 104.298615 
L 443.105682 105.24879 
L 440.758515 106.153933 
L 439.57637 106.81638 
L 439.171852 107.244432 
L 439.169619 107.567268 
L 439.431038 107.806514 
L 440.040778 108.046143 
L 441.282602 108.297187 
L 444.624627 108.612694 
L 450.616249 108.821261 
L 459.429203 108.831627 
L 470.959703 108.578914 
L 494.763304 107.729408 
L 512.273214 107.243284 
L 526.569555 107.051464 
L 536.124929 107.128407 
L 543.81942 107.350893 
L 543.81942 107.350893 
" style="fill:none;stroke:#000000;stroke-linecap:square;stroke-opacity:0.7;stroke-width:1.2;"/>
   </g>
   <g id="line2d_20">
    <path clip-path="url(#p41a4390c02)" d="M 543.893929 67.607577 
L 529.28181 65.546386 
L 506.527542 62.250656 
L 494.39432 60.759547 
L 484.673315 59.773736 
L 477.474092 59.232004 
L 471.146889 58.96522 
L 466.402426 58.937144 
L 461.16292 59.117745 
L 456.775026 59.476649 
L 452.569897 60.04692 
L 449.236393 60.710249 
L 446.350541 61.502029 
L 443.729543 62.496514 
L 441.865737 63.484569 
L 440.729715 64.316903 
L 440.013098 65.061724 
L 439.637893 65.704895 
L 439.546084 66.257555 
L 439.739467 66.755393 
L 440.146035 67.107651 
L 440.817567 67.403574 
L 441.856172 67.645672 
L 444.321338 67.873676 
L 448.309011 67.915201 
L 457.671357 67.687506 
L 468.468316 67.492437 
L 477.661817 67.567468 
L 488.556482 67.934005 
L 509.24481 68.695169 
L 520.78478 68.893625 
L 528.248842 68.835973 
L 534.566606 68.589117 
L 541.87552 68.061109 
L 543.888572 67.879344 
L 543.888572 67.879344 
" style="fill:none;stroke:#000000;stroke-linecap:square;stroke-opacity:0.7;stroke-width:1.2;"/>
   </g>
   <g id="line2d_21">
    <path clip-path="url(#p41a4390c02)" d="M 675.485163 225.400604 
L 655.006733 219.71014 
L 644.146626 216.925569 
L 635.447849 214.927468 
L 628.086772 213.468683 
L 621.226608 212.366246 
L 616.293842 211.776292 
L 611.617276 211.415957 
L 607.235062 211.282965 
L 602.320435 211.390264 
L 597.542268 211.766661 
L 592.929462 212.399694 
L 589.348536 213.094323 
L 586.007751 213.932258 
L 582.687085 214.99594 
L 580.394815 215.910574 
L 578.525969 216.807885 
L 576.160299 218.233402 
L 574.597084 219.458282 
L 573.133781 220.980122 
L 572.043948 222.624975 
L 571.455922 224.070544 
L 571.214037 225.345023 
L 571.249505 226.65413 
L 571.586567 227.903041 
L 572.281257 229.15102 
L 572.73778 229.71438 
L 574.141191 230.951424 
L 575.686445 231.887073 
L 577.504364 232.695607 
L 580.305072 233.588582 
L 583.380357 234.269353 
L 586.822855 234.790755 
L 591.133158 235.191295 
L 595.968445 235.38788 
L 600.967833 235.366844 
L 607.001572 235.101096 
L 614.539368 234.510884 
L 627.313843 233.217416 
L 648.665149 230.858524 
L 656.156067 229.835604 
L 662.458644 228.762585 
L 668.454945 227.488986 
L 675.490909 225.717706 
L 675.490909 225.717706 
" style="fill:none;stroke:#000000;stroke-linecap:square;stroke-opacity:0.7;stroke-width:1.2;"/>
   </g>
   <g id="line2d_22">
    <path clip-path="url(#p41a4390c02)" d="M 675.365121 186.018414 
L 670.311312 183.734312 
L 665.64399 181.860818 
L 661.371297 180.388265 
L 656.922328 179.071251 
L 651.093169 177.595486 
L 645.249023 176.33822 
L 639.594083 175.317894 
L 633.49942 174.445237 
L 627.504749 173.828125 
L 621.634528 173.457064 
L 615.633229 173.316362 
L 609.777907 173.423396 
L 605.08715 173.703053 
L 600.277566 174.196022 
L 595.241016 174.972519 
L 590.772128 175.922068 
L 586.455148 177.113536 
L 583.208344 178.219854 
L 580.091693 179.487797 
L 577.163839 180.912441 
L 574.224265 182.675894 
L 572.724572 183.804007 
L 571.732263 184.750145 
L 571.097382 185.633926 
L 570.904155 186.192144 
L 570.939886 186.721128 
L 571.198396 187.154826 
L 571.916904 187.671487 
L 572.974983 188.078204 
L 574.51605 188.43932 
L 577.85989 188.879728 
L 582.749619 189.185465 
L 588.90754 189.301404 
L 596.250881 189.194996 
L 604.87254 188.811048 
L 614.1428 188.155588 
L 629.295427 186.791823 
L 643.845414 185.527544 
L 652.42016 184.986775 
L 658.301539 184.814652 
L 663.065321 184.881759 
L 667.783909 185.201869 
L 672.545502 185.807549 
L 675.365886 186.28927 
L 675.365886 186.28927 
" style="fill:none;stroke:#000000;stroke-linecap:square;stroke-opacity:0.7;stroke-width:1.2;"/>
   </g>
   <g id="line2d_23">
    <path clip-path="url(#p41a4390c02)" d="M 675.222162 146.866691 
L 661.756002 144.323987 
L 646.004994 141.638946 
L 628.180233 138.785404 
L 619.911458 137.697188 
L 612.984075 137.017385 
L 607.031176 136.663481 
L 602.4013 136.576406 
L 597.786878 136.692118 
L 593.550052 137.012945 
L 589.806967 137.500659 
L 585.757792 138.288123 
L 582.303872 139.22145 
L 579.528659 140.19149 
L 576.68337 141.45623 
L 574.917414 142.4343 
L 573.258662 143.568838 
L 572.203246 144.492689 
L 571.472678 145.36516 
L 571.057431 146.260851 
L 571.030546 146.838314 
L 571.267121 147.416577 
L 571.778992 147.927074 
L 572.756319 148.463064 
L 574.189062 148.940223 
L 576.911512 149.488474 
L 580.146963 149.880202 
L 584.775793 150.208251 
L 591.621415 150.428866 
L 600.489783 150.463477 
L 615.347387 150.254616 
L 642.381055 149.646681 
L 653.547286 149.187274 
L 660.851796 148.711538 
L 668.37856 147.981885 
L 675.247137 147.098857 
L 675.247137 147.098857 
" style="fill:none;stroke:#000000;stroke-linecap:square;stroke-opacity:0.7;stroke-width:1.2;"/>
   </g>
   <g id="line2d_24">
    <path clip-path="url(#p41a4390c02)" d="M 675.144842 107.441602 
L 666.87942 105.516733 
L 659.670279 104.050165 
L 651.653749 102.676705 
L 643.737436 101.558554 
L 636.525792 100.75846 
L 629.709442 100.207907 
L 621.505766 99.79132 
L 613.536669 99.615937 
L 606.700855 99.660262 
L 600.514902 99.902046 
L 594.810551 100.345667 
L 590.1429 100.902376 
L 585.604626 101.645251 
L 581.072702 102.633887 
L 577.574445 103.624341 
L 575.379192 104.39574 
L 572.88147 105.532559 
L 571.823414 106.215719 
L 571.162864 106.921958 
L 571.041024 107.410423 
L 571.167662 107.756544 
L 571.70913 108.237357 
L 572.718487 108.698533 
L 574.665271 109.240145 
L 577.86153 109.813113 
L 582.482701 110.363815 
L 588.194778 110.811758 
L 595.813667 111.157167 
L 603.975971 111.295994 
L 613.879546 111.217237 
L 623.536888 110.89375 
L 631.926919 110.368747 
L 641.488623 109.517284 
L 657.26485 108.074095 
L 664.284936 107.681003 
L 670.04328 107.583104 
L 675.162025 107.670021 
L 675.162025 107.670021 
" style="fill:none;stroke:#000000;stroke-linecap:square;stroke-opacity:0.7;stroke-width:1.2;"/>
   </g>
   <g id="line2d_25">
    <path clip-path="url(#p41a4390c02)" d="M 675.455866 67.475499 
L 664.670174 65.336139 
L 655.610788 63.784387 
L 646.793538 62.51359 
L 639.479637 61.675307 
L 632.631888 61.119873 
L 625.610886 60.791044 
L 617.421589 60.669242 
L 609.423622 60.775253 
L 602.351404 61.061198 
L 596.079557 61.50417 
L 590.242316 62.119794 
L 585.018826 62.880052 
L 580.175699 63.818429 
L 576.896002 64.637903 
L 574.002333 65.573886 
L 572.285731 66.339019 
L 571.543016 66.820893 
L 571.154473 67.242916 
L 571.066932 67.673028 
L 571.223022 67.971582 
L 571.673509 68.329354 
L 572.827143 68.837082 
L 574.773277 69.402657 
L 578.876902 70.279558 
L 585.357611 71.369614 
L 592.861212 72.39749 
L 600.832735 73.25816 
L 608.066296 73.829643 
L 615.57839 74.199024 
L 621.867686 74.3063 
L 628.095599 74.181639 
L 632.893935 73.889823 
L 638.806279 73.275706 
L 644.593551 72.442941 
L 652.840341 71.013984 
L 665.746906 68.719362 
L 670.168159 68.138155 
L 674.07838 67.823131 
L 675.448237 67.762918 
L 675.448237 67.762918 
" style="fill:none;stroke:#000000;stroke-linecap:square;stroke-opacity:0.7;stroke-width:1.2;"/>
   </g>
  </g>
 </g>
 <defs>
  <clipPath id="p41a4390c02">
   <rect height="262.08" width="694.08" x="12.96" y="12.96"/>
  </clipPath>
 </defs>
</svg>
