<?xml version="1.0" encoding="utf-8" standalone="no"?>
<!DOCTYPE svg PUBLIC "-//W3C//DTD SVG 1.1//EN"
  "http://www.w3.org/Graphics/SVG/1.1/DTD/svg11.dtd">
<!-- Created with matplotlib (https://matplotlib.org/) -->
<svg height="288pt" version="1.1" viewBox="0 0 720 288" width="720pt" xmlns="http://www.w3.org/2000/svg" xmlns:xlink="http://www.w3.org/1999/xlink">
 <metadata>
  <rdf:RDF xmlns:cc="http://creativecommons.org/ns#" xmlns:dc="http://purl.org/dc/elements/1.1/" xmlns:rdf="http://www.w3.org/1999/02/22-rdf-syntax-ns#">
   <cc:Work>
    <dc:type rdf:resource="http://purl.org/dc/dcmitype/StillImage"/>
    <dc:date>2021-05-05T23:04:01.790302</dc:date>
    <dc:format>image/svg+xml</dc:format>
    <dc:creator>
     <cc:Agent>
      <dc:title>Matplotlib v3.3.4, https://matplotlib.org/</dc:title>
     </cc:Agent>
    </dc:creator>
   </cc:Work>
  </rdf:RDF>
 </metadata>
 <defs>
  <style type="text/css">*{stroke-linecap:butt;stroke-linejoin:round;}</style>
 </defs>
 <g id="figure_1">
  <g id="patch_1">
   <path d="M 0 288 
L 720 288 
L 720 0 
L 0 0 
z
" style="fill:#ffffff;"/>
  </g>
  <g id="axes_1">
   <g id="line2d_1">
    <path clip-path="url(#pb0cca76ea6)" d="M 149.071508 224.299923 
L 143.464425 222.56419 
L 138.661651 221.276476 
L 132.992851 219.985817 
L 126.8201 218.8236 
L 120.578256 217.887396 
L 114.836298 217.242084 
L 108.562084 216.782868 
L 102.817316 216.58101 
L 95.724476 216.565986 
L 84.24612 216.83204 
L 74.725187 217.22217 
L 69.201538 217.659957 
L 65.603547 218.118462 
L 61.552188 218.864917 
L 57.660063 219.864931 
L 54.28047 221.016529 
L 51.652061 222.179487 
L 49.294118 223.647023 
L 48.413739 224.554601 
L 48.112041 225.271565 
L 48.183962 225.800262 
L 48.693534 226.396318 
L 49.236817 226.712603 
L 50.578535 227.163257 
L 52.169463 227.455364 
L 54.566763 227.673061 
L 57.086557 227.742929 
L 62.397713 227.59388 
L 68.959707 227.098615 
L 95.452888 224.705965 
L 122.522187 222.955117 
L 128.640841 222.740975 
L 133.496482 222.841224 
L 136.870735 223.113511 
L 140.142055 223.559762 
L 144.496769 224.432788 
L 148.769092 225.55844 
L 148.769092 225.55844 
" style="fill:none;stroke:#000000;stroke-linecap:square;stroke-opacity:0.7;stroke-width:1.2;"/>
   </g>
   <g id="line2d_2">
    <path clip-path="url(#pb0cca76ea6)" d="M 149.470915 186.593682 
L 139.918047 184.602522 
L 130.366221 182.3799 
L 120.035795 179.706474 
L 105.767311 175.954588 
L 101.486131 175.081239 
L 97.644266 174.506954 
L 94.027402 174.151642 
L 88.247232 173.866826 
L 80.830325 173.780481 
L 74.581587 173.866539 
L 69.294311 174.115661 
L 65.023051 174.521044 
L 60.738981 175.198559 
L 58.332713 175.729066 
L 54.471883 176.852653 
L 51.760681 177.887965 
L 49.077877 179.198921 
L 46.860391 180.662603 
L 46.17512 181.252964 
L 45.450657 182.029574 
L 44.800423 183.058731 
L 44.529632 183.94495 
L 44.544724 184.864711 
L 44.632372 185.210426 
L 45.066449 186.083222 
L 45.860853 186.982526 
L 46.892301 187.77423 
L 48.022804 188.430587 
L 49.714291 189.192022 
L 51.85512 189.928832 
L 55.347866 190.795215 
L 58.957809 191.39121 
L 63.052535 191.783753 
L 67.42958 191.91785 
L 72.671037 191.759124 
L 80.141128 191.210358 
L 90.013433 190.514858 
L 97.970666 190.202201 
L 104.914631 190.144101 
L 112.807907 190.327432 
L 122.609181 190.834526 
L 129.984131 191.152889 
L 135.210246 191.149505 
L 138.329337 191.001685 
L 142.115321 190.633416 
L 145.694721 190.059327 
L 149.666949 189.132094 
L 149.666949 189.132094 
" style="fill:none;stroke:#000000;stroke-linecap:square;stroke-opacity:0.7;stroke-width:1.2;"/>
   </g>
   <g id="line2d_3">
    <path clip-path="url(#pb0cca76ea6)" d="M 149.140062 147.060223 
L 143.064723 145.212168 
L 123.368896 139.102537 
L 116.036377 137.064834 
L 108.802512 135.30652 
L 103.462922 134.229587 
L 98.443585 133.425215 
L 92.977374 132.804374 
L 87.216126 132.462095 
L 82.499397 132.441301 
L 77.874243 132.670862 
L 75.159794 132.931282 
L 72.039113 133.354817 
L 67.569932 134.210675 
L 63.015825 135.41227 
L 59.775829 136.490922 
L 57.47951 137.382882 
L 54.197286 138.882737 
L 51.687083 140.282286 
L 49.871398 141.534298 
L 48.411372 142.866651 
L 47.637288 143.933963 
L 47.38516 144.515136 
L 47.318497 145.742532 
L 47.804889 146.697836 
L 48.670571 147.484443 
L 49.82078 148.140847 
L 51.372518 148.751877 
L 53.282208 149.286354 
L 55.499066 149.732083 
L 58.388187 150.132782 
L 62.198897 150.446512 
L 66.380359 150.576287 
L 71.269239 150.473236 
L 75.270295 150.165814 
L 78.6585 149.712052 
L 82.794132 148.879373 
L 91.919616 146.700442 
L 96.727363 145.917016 
L 101.127756 145.427901 
L 105.839408 145.067788 
L 116.318477 144.56844 
L 126.31815 144.288168 
L 131.346582 144.365509 
L 135.07793 144.633192 
L 138.100894 145.032827 
L 140.952731 145.591676 
L 143.770942 146.342462 
L 146.122617 147.138688 
L 149.212523 148.4621 
L 149.212523 148.4621 
" style="fill:none;stroke:#000000;stroke-linecap:square;stroke-opacity:0.7;stroke-width:1.2;"/>
   </g>
   <g id="line2d_4">
    <path clip-path="url(#pb0cca76ea6)" d="M 148.677406 106.714274 
L 132.161773 105.651247 
L 126.03341 104.878988 
L 119.662511 103.839158 
L 106.217503 101.311378 
L 96.898008 99.680682 
L 89.869931 98.669603 
L 84.780441 98.109738 
L 79.641661 97.73628 
L 74.664991 97.602533 
L 71.00908 97.675636 
L 66.193916 98.03531 
L 62.464668 98.555572 
L 59.320357 99.187995 
L 56.397863 99.96542 
L 53.158229 101.105703 
L 51.135591 102.042673 
L 50.004021 102.699191 
L 48.610617 103.796236 
L 48.137756 104.364892 
L 47.769472 105.236628 
L 47.778412 105.769214 
L 48.051749 106.400489 
L 48.577403 106.966136 
L 49.328763 107.478909 
L 50.897887 108.180551 
L 52.712734 108.726338 
L 54.959312 109.205145 
L 58.749445 109.735596 
L 63.003306 110.077212 
L 68.020467 110.251667 
L 74.03969 110.221883 
L 80.919414 109.947138 
L 91.414755 109.247599 
L 104.961038 108.115137 
L 123.598292 106.46964 
L 129.142208 106.292402 
L 133.946938 106.41905 
L 138.381521 106.787343 
L 142.83586 107.393919 
L 147.153022 108.200872 
L 148.6153 108.524733 
L 148.6153 108.524733 
" style="fill:none;stroke:#000000;stroke-linecap:square;stroke-opacity:0.7;stroke-width:1.2;"/>
   </g>
   <g id="line2d_5">
    <path clip-path="url(#pb0cca76ea6)" d="M 149.638556 62.533521 
L 144.134869 61.837815 
L 138.718922 61.42216 
L 132.862555 61.286662 
L 116.964196 61.152615 
L 111.674676 60.840832 
L 106.516977 60.3227 
L 100.690315 59.506129 
L 88.636055 57.648378 
L 82.513173 57.007401 
L 77.96336 56.774022 
L 73.91247 56.778832 
L 69.621817 57.042922 
L 66.082273 57.493931 
L 62.741493 58.127054 
L 58.755355 59.12666 
L 54.711946 60.402003 
L 52.349767 61.319997 
L 49.926336 62.528427 
L 48.284971 63.748085 
L 47.9876 64.072466 
L 47.496736 64.917531 
L 47.411885 65.594862 
L 47.654952 66.333587 
L 48.21886 67.014568 
L 49.170316 67.706792 
L 50.48308 68.36204 
L 53.283177 69.306264 
L 55.825254 69.901334 
L 59.446685 70.508221 
L 63.326748 70.947432 
L 69.034656 71.307297 
L 74.609771 71.410323 
L 85.031616 71.283644 
L 103.247293 70.837744 
L 109.642716 70.452507 
L 115.18307 69.894351 
L 120.752319 69.127356 
L 130.459349 67.501378 
L 139.499184 65.77456 
L 146.453645 64.220312 
L 149.458684 63.455989 
L 149.458684 63.455989 
" style="fill:none;stroke:#000000;stroke-linecap:square;stroke-opacity:0.7;stroke-width:1.2;"/>
   </g>
   <g id="line2d_6">
    <path clip-path="url(#pb0cca76ea6)" d="M 280.854482 225.668826 
L 277.109699 223.464479 
L 273.206477 221.392668 
L 269.812267 219.81205 
L 265.555737 218.08812 
L 261.909351 216.807589 
L 256.712633 215.261708 
L 252.420208 214.222903 
L 248.015894 213.384059 
L 244.391034 212.869474 
L 240.893027 212.519537 
L 235.765854 212.231118 
L 228.67764 212.105121 
L 214.510805 212.128773 
L 208.4816 212.33528 
L 204.580316 212.671486 
L 201.923821 213.072003 
L 199.555143 213.609707 
L 197.368096 214.299353 
L 194.574493 215.449253 
L 191.045734 217.224152 
L 188.934818 218.452985 
L 187.041749 219.739155 
L 186.105681 220.497729 
L 185.03096 221.598404 
L 184.340251 222.739869 
L 184.18894 223.841281 
L 184.37735 224.440793 
L 184.677192 224.891298 
L 185.498827 225.597291 
L 186.533623 226.139514 
L 187.985703 226.639318 
L 190.593402 227.163575 
L 192.979369 227.397813 
L 196.073307 227.470311 
L 199.806281 227.322732 
L 206.814899 226.766926 
L 217.583008 225.971484 
L 229.369785 225.352223 
L 243.316937 224.840397 
L 251.937645 224.697643 
L 258.022655 224.790703 
L 262.880485 225.040856 
L 267.724799 225.475883 
L 272.71095 226.122001 
L 279.616389 227.26825 
L 280.687093 227.458533 
L 280.687093 227.458533 
" style="fill:none;stroke:#000000;stroke-linecap:square;stroke-opacity:0.7;stroke-width:1.2;"/>
   </g>
   <g id="line2d_7">
    <path clip-path="url(#pb0cca76ea6)" d="M 280.754806 182.856764 
L 269.239781 181.498981 
L 262.437995 180.997561 
L 247.73249 180.254887 
L 239.164135 179.695174 
L 231.073927 178.927156 
L 221.219736 177.943567 
L 216.101218 177.727059 
L 211.378248 177.814045 
L 206.63123 178.162675 
L 201.003608 178.850277 
L 195.474876 179.737411 
L 187.542633 181.261436 
L 183.028132 182.299264 
L 180.330307 183.143365 
L 179.413453 183.637416 
L 179.132199 184.024812 
L 179.284854 184.426974 
L 179.780362 184.772317 
L 180.455281 185.066019 
L 182.827654 185.749712 
L 185.347745 186.287879 
L 191.702129 187.372281 
L 199.044702 188.380708 
L 204.31361 188.897108 
L 208.429598 189.084866 
L 212.008663 189.085758 
L 237.434747 188.631808 
L 251.970122 188.55949 
L 258.838793 188.325875 
L 264.613667 187.923364 
L 268.888869 187.42999 
L 272.969385 186.748711 
L 275.513895 186.207653 
L 280.769728 184.818594 
L 280.769728 184.818594 
" style="fill:none;stroke:#000000;stroke-linecap:square;stroke-opacity:0.7;stroke-width:1.2;"/>
   </g>
   <g id="line2d_8">
    <path clip-path="url(#pb0cca76ea6)" d="M 280.775924 145.728535 
L 271.037089 144.317271 
L 254.726861 142.18886 
L 240.754476 140.578139 
L 228.47708 139.379414 
L 220.812692 138.816817 
L 213.121785 138.508835 
L 207.014079 138.507331 
L 200.986825 138.746854 
L 195.683015 139.170356 
L 189.953348 139.86512 
L 185.475392 140.586716 
L 180.496526 141.588433 
L 176.553437 142.627285 
L 175.162829 143.170065 
L 174.623967 143.542605 
L 174.565602 143.87499 
L 174.964842 144.148593 
L 175.81418 144.381581 
L 177.880677 144.643728 
L 181.304126 144.813517 
L 186.980566 144.828076 
L 194.298616 144.59543 
L 201.821542 144.139973 
L 209.189567 143.481687 
L 220.93888 142.311857 
L 226.087654 142.102916 
L 231.336007 142.14036 
L 236.930107 142.409482 
L 243.486447 142.969108 
L 251.241423 143.897805 
L 262.874765 145.573127 
L 275.782793 147.364781 
L 280.711008 147.960283 
L 280.711008 147.960283 
" style="fill:none;stroke:#000000;stroke-linecap:square;stroke-opacity:0.7;stroke-width:1.2;"/>
   </g>
   <g id="line2d_9">
    <path clip-path="url(#pb0cca76ea6)" d="M 279.300463 105.686913 
L 276.162424 105.252639 
L 268.973806 103.983258 
L 252.850775 101.05504 
L 245.172977 99.926991 
L 238.177101 99.14203 
L 230.688983 98.555698 
L 219.92572 97.98563 
L 202.569708 97.259075 
L 197.458047 97.321585 
L 193.308916 97.633142 
L 189.424592 98.224277 
L 185.817304 99.112158 
L 183.932566 99.74259 
L 182.934151 100.134926 
L 180.177158 101.506966 
L 178.271738 102.872271 
L 177.130602 104.090445 
L 176.577862 105.02652 
L 176.308416 105.90341 
L 176.268222 106.61992 
L 176.351068 107.173167 
L 176.785385 108.20515 
L 176.938867 108.441127 
L 178.126134 109.691125 
L 179.876958 110.845134 
L 181.155743 111.469539 
L 184.410157 112.632299 
L 187.112662 113.310256 
L 191.095649 114.002698 
L 195.056606 114.425342 
L 199.424124 114.658955 
L 205.288116 114.698895 
L 213.358168 114.483759 
L 227.552657 113.869755 
L 235.037494 113.341368 
L 240.789932 112.72697 
L 246.919161 111.824607 
L 253.679068 110.574287 
L 266.906101 108.02532 
L 271.984396 107.279862 
L 277.308594 106.743445 
L 279.47213 106.606626 
L 279.47213 106.606626 
" style="fill:none;stroke:#000000;stroke-linecap:square;stroke-opacity:0.7;stroke-width:1.2;"/>
   </g>
   <g id="line2d_10">
    <path clip-path="url(#pb0cca76ea6)" d="M 279.653475 68.47141 
L 272.654294 68.0396 
L 265.205879 67.372072 
L 255.602515 66.281135 
L 243.708724 64.676609 
L 220.820846 61.475869 
L 214.522148 60.890659 
L 209.059596 60.592165 
L 203.520017 60.520507 
L 198.737595 60.682117 
L 195.366645 60.950936 
L 191.109601 61.528411 
L 188.16836 62.132527 
L 186.387826 62.607915 
L 183.428769 63.668537 
L 182.034616 64.364492 
L 180.793731 65.236643 
L 180.429588 65.612331 
L 180.022298 66.448189 
L 180.048143 66.82283 
L 180.30504 67.288108 
L 180.776209 67.686701 
L 181.315209 67.978096 
L 182.905423 68.499723 
L 185.070761 68.888226 
L 188.302642 69.177337 
L 192.422932 69.296844 
L 199.088116 69.206723 
L 241.504419 68.065323 
L 251.787328 68.070429 
L 259.189316 68.290595 
L 266.816711 68.783186 
L 273.664184 69.472509 
L 279.586226 70.25318 
L 279.586226 70.25318 
" style="fill:none;stroke:#000000;stroke-linecap:square;stroke-opacity:0.7;stroke-width:1.2;"/>
   </g>
   <g id="line2d_11">
    <path clip-path="url(#pb0cca76ea6)" d="M 412.387646 226.915055 
L 408.296706 226.303238 
L 403.286997 225.31983 
L 395.048065 223.410456 
L 384.07939 220.878121 
L 377.67508 219.627117 
L 372.281888 218.805824 
L 367.432011 218.303212 
L 361.939169 218.029048 
L 356.169723 218.019977 
L 344.371908 218.345944 
L 332.972872 218.788409 
L 327.465842 219.190204 
L 322.860786 219.733946 
L 320.037551 220.198555 
L 316.865374 220.906436 
L 314.731129 221.584985 
L 313.222378 222.280384 
L 311.869857 223.383133 
L 311.531122 224.051791 
L 311.472502 224.49067 
L 311.574706 225.074779 
L 311.985672 225.829005 
L 313.109719 226.929524 
L 314.325934 227.738368 
L 316.094201 228.637958 
L 318.505476 229.579755 
L 321.523574 230.468565 
L 322.897142 230.792381 
L 327.361832 231.568822 
L 331.682412 232.001987 
L 337.085624 232.253652 
L 344.877085 232.333101 
L 355.005696 232.211037 
L 365.208984 231.888546 
L 376.56106 231.294656 
L 412.368158 228.982374 
L 412.368158 228.982374 
" style="fill:none;stroke:#000000;stroke-linecap:square;stroke-opacity:0.7;stroke-width:1.2;"/>
   </g>
   <g id="line2d_12">
    <path clip-path="url(#pb0cca76ea6)" d="M 411.811014 184.554285 
L 407.758403 184.332086 
L 400.681798 183.666992 
L 386.989977 182.110215 
L 368.91885 180.044958 
L 360.519262 179.317096 
L 354.17702 178.963747 
L 347.966612 178.834494 
L 342.683812 178.924433 
L 336.974178 179.245471 
L 331.603699 179.755868 
L 325.396264 180.567452 
L 320.122956 181.41821 
L 315.176412 182.4063 
L 312.861624 183.039228 
L 311.31222 183.717756 
L 310.851021 184.179152 
L 310.800705 184.409411 
L 310.948932 184.760131 
L 311.44655 185.165016 
L 312.410229 185.622864 
L 313.665157 186.048075 
L 316.820447 186.830832 
L 322.599333 187.869998 
L 329.290989 188.786741 
L 335.750707 189.460578 
L 341.963446 189.87708 
L 348.310288 190.039099 
L 356.597709 189.985487 
L 367.784773 189.673644 
L 376.695578 189.217934 
L 385.839323 188.513623 
L 411.675411 186.316131 
L 411.675411 186.316131 
" style="fill:none;stroke:#000000;stroke-linecap:square;stroke-opacity:0.7;stroke-width:1.2;"/>
   </g>
   <g id="line2d_13">
    <path clip-path="url(#pb0cca76ea6)" d="M 411.320379 147.031537 
L 408.406461 146.513218 
L 404.837466 145.637881 
L 399.796315 144.115858 
L 374.648314 136.063321 
L 367.542105 134.199172 
L 361.126568 132.77416 
L 355.183752 131.695354 
L 350.111454 130.984873 
L 345.838833 130.57313 
L 341.33252 130.381915 
L 337.257868 130.492726 
L 333.643584 130.880243 
L 330.790498 131.416628 
L 328.075655 132.140788 
L 325.4248 133.066089 
L 322.576176 134.316314 
L 319.974318 135.706347 
L 317.861089 137.030314 
L 315.843457 138.493119 
L 313.73395 140.318748 
L 312.187566 142.005992 
L 311.357484 143.195173 
L 310.717401 144.581657 
L 310.527404 145.67271 
L 310.673259 146.654999 
L 311.023818 147.351535 
L 311.777656 148.142031 
L 312.605176 148.677122 
L 313.982021 149.257188 
L 316.04114 149.774845 
L 317.975521 150.053029 
L 321.303365 150.258 
L 325.050588 150.229717 
L 329.443628 149.976186 
L 334.735116 149.476971 
L 348.051392 148.1103 
L 354.67643 147.707496 
L 365.379178 147.334235 
L 383.915074 146.936107 
L 392.800439 146.95171 
L 399.113328 147.189862 
L 405.707507 147.703922 
L 411.421592 148.342466 
L 411.421592 148.342466 
" style="fill:none;stroke:#000000;stroke-linecap:square;stroke-opacity:0.7;stroke-width:1.2;"/>
   </g>
   <g id="line2d_14">
    <path clip-path="url(#pb0cca76ea6)" d="M 412.090104 106.782912 
L 408.81734 106.66383 
L 403.944909 106.239627 
L 398.13853 105.466137 
L 376.641826 102.351563 
L 369.325301 101.582789 
L 361.513494 101.008078 
L 353.411106 100.65471 
L 345.071178 100.506009 
L 338.842172 100.574843 
L 332.62888 100.876647 
L 328.317681 101.276245 
L 323.391799 101.970824 
L 319.191188 102.768961 
L 315.020893 103.741055 
L 311.774948 104.672136 
L 309.600374 105.518287 
L 308.805768 106.022298 
L 308.571477 106.45544 
L 308.721791 106.713733 
L 309.085428 106.925556 
L 310.083347 107.20066 
L 313.310985 107.519968 
L 315.002294 107.572109 
L 320.807239 107.506586 
L 327.577318 107.167761 
L 347.964015 105.921479 
L 354.524451 106.000208 
L 379.957961 106.738915 
L 394.566782 106.80171 
L 400.869748 107.069645 
L 407.031548 107.591735 
L 411.848057 108.191768 
L 411.848057 108.191768 
" style="fill:none;stroke:#000000;stroke-linecap:square;stroke-opacity:0.7;stroke-width:1.2;"/>
   </g>
   <g id="line2d_15">
    <path clip-path="url(#pb0cca76ea6)" d="M 412.173052 65.157936 
L 402.698366 64.796836 
L 388.500343 64.128979 
L 379.878161 63.462593 
L 370.690418 62.50222 
L 360.94791 61.241734 
L 351.331023 59.958218 
L 346.251804 59.489924 
L 342.011406 59.282292 
L 338.346579 59.242448 
L 332.512409 59.438116 
L 326.280459 59.983443 
L 321.803832 60.584515 
L 317.36301 61.370054 
L 313.301529 62.335204 
L 311.109275 63.075837 
L 309.811332 63.748748 
L 309.143983 64.478108 
L 309.092294 64.856775 
L 309.224804 65.219628 
L 309.596813 65.643388 
L 310.159365 66.046729 
L 311.364443 66.651753 
L 313.461084 67.414531 
L 316.654735 68.302937 
L 320.647166 69.195211 
L 326.158169 70.173399 
L 329.995347 70.67092 
L 334.21392 71.012332 
L 338.91825 71.18898 
L 347.104148 71.236423 
L 360.909688 71.031814 
L 372.842626 70.663291 
L 381.88482 70.17295 
L 390.39665 69.469627 
L 401.81193 68.265655 
L 412.214316 67.177601 
L 412.214316 67.177601 
" style="fill:none;stroke:#000000;stroke-linecap:square;stroke-opacity:0.7;stroke-width:1.2;"/>
   </g>
   <g id="line2d_16">
    <path clip-path="url(#pb0cca76ea6)" d="M 543.34604 225.212491 
L 529.993013 222.181772 
L 517.713475 219.572697 
L 504.598769 217.006372 
L 496.101434 215.548083 
L 489.328298 214.603152 
L 482.864547 213.950094 
L 477.347294 213.637111 
L 472.449175 213.601406 
L 467.642632 213.849582 
L 464.004517 214.266938 
L 460.224107 214.948687 
L 456.613415 215.868667 
L 453.265146 216.984503 
L 450.267594 218.225758 
L 447.9068 219.397578 
L 446.02845 220.499005 
L 444.357962 221.701694 
L 443.548047 222.462495 
L 442.969994 223.298115 
L 442.862131 223.706931 
L 442.954256 224.152913 
L 443.240184 224.473716 
L 443.78631 224.759239 
L 444.810879 225.007187 
L 446.499475 225.139935 
L 448.975381 225.08629 
L 452.723878 224.755085 
L 458.823553 223.932017 
L 472.576144 221.938566 
L 477.37899 221.52476 
L 482.246018 221.352498 
L 487.655507 221.392191 
L 494.417299 221.663485 
L 502.638092 222.21618 
L 511.177865 223.008148 
L 520.774047 224.144376 
L 543.141106 227.069007 
L 543.141106 227.069007 
" style="fill:none;stroke:#000000;stroke-linecap:square;stroke-opacity:0.7;stroke-width:1.2;"/>
   </g>
   <g id="line2d_17">
    <path clip-path="url(#pb0cca76ea6)" d="M 543.072338 183.467369 
L 537.977749 182.997421 
L 531.696171 182.182938 
L 525.919854 181.210856 
L 518.707835 179.748147 
L 501.425325 176.064225 
L 497.172715 175.354576 
L 491.22565 174.588544 
L 486.27011 174.175862 
L 481.593625 174.001054 
L 478.331615 174.020181 
L 473.489713 174.292852 
L 469.400288 174.773873 
L 465.206217 175.517664 
L 461.685185 176.3349 
L 456.873831 177.719679 
L 452.842753 179.110931 
L 450.002093 180.232031 
L 446.329387 181.930836 
L 444.09508 183.228247 
L 442.92195 184.113067 
L 442.213848 184.85258 
L 441.976027 185.213802 
L 441.759539 185.929995 
L 441.833943 186.381031 
L 442.037087 186.739226 
L 442.416666 187.114375 
L 443.312993 187.637186 
L 445.428958 188.310517 
L 447.804567 188.735992 
L 450.940023 189.05776 
L 455.564884 189.253405 
L 461.269117 189.193242 
L 466.698223 188.882651 
L 471.190728 188.447083 
L 478.007671 187.540951 
L 489.014207 186.04074 
L 499.190123 184.94247 
L 512.231063 183.531743 
L 524.067797 182.157951 
L 528.023166 181.943311 
L 531.875534 181.994531 
L 534.230727 182.179427 
L 537.820006 182.704492 
L 541.157516 183.452431 
L 543.147045 184.00727 
L 543.147045 184.00727 
" style="fill:none;stroke:#000000;stroke-linecap:square;stroke-opacity:0.7;stroke-width:1.2;"/>
   </g>
   <g id="line2d_18">
    <path clip-path="url(#pb0cca76ea6)" d="M 544.085 142.966031 
L 519.245028 141.702768 
L 510.736384 140.95645 
L 502.981841 140.039372 
L 495.430538 138.921002 
L 484.208207 137.200368 
L 479.084797 136.657887 
L 474.640076 136.40218 
L 471.642523 136.350491 
L 466.992381 136.461812 
L 462.698391 136.765691 
L 458.575603 137.232725 
L 454.33654 137.888078 
L 448.924014 138.999513 
L 444.907391 140.100488 
L 442.458345 141.010518 
L 441.798516 141.325514 
L 440.57844 142.131363 
L 440.090399 142.890787 
L 440.150675 143.391444 
L 440.402646 143.759999 
L 441.169119 144.335134 
L 442.236032 144.839068 
L 444.658279 145.619101 
L 448.312891 146.454199 
L 453.610226 147.392621 
L 461.797098 148.60216 
L 468.327918 149.383894 
L 473.68671 149.821499 
L 479.840385 150.097941 
L 487.244801 150.200861 
L 497.146397 150.072906 
L 506.169636 149.714528 
L 513.792296 149.169828 
L 519.646863 148.548986 
L 527.044963 147.509152 
L 537.506626 145.740423 
L 544.163188 144.635532 
L 544.163188 144.635532 
" style="fill:none;stroke:#000000;stroke-linecap:square;stroke-opacity:0.7;stroke-width:1.2;"/>
   </g>
   <g id="line2d_19">
    <path clip-path="url(#pb0cca76ea6)" d="M 543.53012 106.325863 
L 539.514382 105.939503 
L 536.010749 105.408798 
L 531.12731 104.404521 
L 524.297174 102.683792 
L 512.941504 99.74213 
L 507.728303 98.654373 
L 503.359421 97.956148 
L 498.498549 97.408411 
L 492.890231 97.032861 
L 486.789186 96.873685 
L 480.151704 96.951528 
L 474.289754 97.236607 
L 468.733996 97.720676 
L 463.160256 98.467984 
L 459.061016 99.230383 
L 455.525262 100.064506 
L 451.261848 101.331586 
L 448.745373 102.254083 
L 446.333636 103.333201 
L 444.48743 104.422411 
L 443.431912 105.363515 
L 443.100894 105.89244 
L 443.008944 106.526782 
L 443.14119 106.89761 
L 443.646451 107.439708 
L 444.220393 107.78923 
L 445.987536 108.426774 
L 448.004535 108.85696 
L 450.845675 109.239293 
L 455.217148 109.577912 
L 462.098115 109.820681 
L 472.10023 109.912469 
L 484.242305 109.816847 
L 493.343064 109.526459 
L 500.968283 109.037722 
L 507.152882 108.430388 
L 514.44773 107.495299 
L 523.435017 106.364925 
L 527.109484 106.092169 
L 530.842751 106.020846 
L 534.474103 106.192284 
L 537.97366 106.607575 
L 541.487924 107.293796 
L 543.429622 107.801894 
L 543.429622 107.801894 
" style="fill:none;stroke:#000000;stroke-linecap:square;stroke-opacity:0.7;stroke-width:1.2;"/>
   </g>
   <g id="line2d_20">
    <path clip-path="url(#pb0cca76ea6)" d="M 543.383955 67.735715 
L 534.198112 67.038283 
L 523.782072 66.337511 
L 517.342945 65.650973 
L 512.486664 64.92961 
L 506.593893 63.81634 
L 499.205572 62.14248 
L 487.008139 59.332051 
L 482.157465 58.441321 
L 477.374878 57.780658 
L 472.0528 57.336948 
L 467.541971 57.221117 
L 463.824661 57.3183 
L 460.294016 57.585745 
L 456.141689 58.145663 
L 452.237784 58.958995 
L 449.274775 59.810426 
L 447.456123 60.463384 
L 445.048661 61.543519 
L 444.082382 62.078865 
L 442.584012 63.121674 
L 441.613753 64.133732 
L 441.254834 64.814294 
L 441.166838 65.440575 
L 441.377174 66.103666 
L 441.838828 66.648028 
L 442.770578 67.263528 
L 444.309037 67.878575 
L 445.970882 68.318563 
L 449.621209 68.917574 
L 454.389838 69.315651 
L 459.214563 69.464396 
L 463.86246 69.431413 
L 469.861685 69.144993 
L 474.861058 68.670729 
L 484.311022 67.694347 
L 491.23943 67.265292 
L 497.828488 67.074237 
L 504.360593 67.092005 
L 511.108244 67.345973 
L 518.110255 67.853068 
L 540.541025 69.714862 
L 543.354025 69.895061 
L 543.354025 69.895061 
" style="fill:none;stroke:#000000;stroke-linecap:square;stroke-opacity:0.7;stroke-width:1.2;"/>
   </g>
   <g id="line2d_21">
    <path clip-path="url(#pb0cca76ea6)" d="M 673.878346 224.868411 
L 668.550735 224.531107 
L 658.593631 224.227493 
L 646.573062 223.778141 
L 610.448037 222.142124 
L 600.230223 221.93599 
L 593.132118 222.027731 
L 587.433063 222.308624 
L 580.906754 222.914077 
L 576.748176 223.511897 
L 573.517695 224.18876 
L 571.814816 224.764432 
L 571.592637 224.879237 
L 571.132695 225.357332 
L 571.210904 225.58737 
L 571.587391 225.852214 
L 572.416115 226.140275 
L 574.246198 226.496908 
L 577.455049 226.852701 
L 582.411119 227.15466 
L 590.566164 227.36878 
L 602.270365 227.411155 
L 618.161316 227.494968 
L 631.937785 227.52119 
L 639.988227 227.29396 
L 647.210928 226.848713 
L 665.921747 225.438524 
L 670.08348 225.423159 
L 673.227433 225.620095 
L 673.985787 225.710053 
L 673.985787 225.710053 
" style="fill:none;stroke:#000000;stroke-linecap:square;stroke-opacity:0.7;stroke-width:1.2;"/>
   </g>
   <g id="line2d_22">
    <path clip-path="url(#pb0cca76ea6)" d="M 675.060047 187.08425 
L 672.982495 187.165591 
L 668.82731 187.102467 
L 664.207061 186.729901 
L 659.187197 186.057585 
L 652.964483 184.947421 
L 646.36553 183.53696 
L 625.768308 178.89419 
L 620.957447 178.110046 
L 616.020905 177.537705 
L 611.431142 177.229561 
L 606.113727 177.135518 
L 600.98852 177.297977 
L 596.037612 177.685055 
L 591.328828 178.272691 
L 586.765319 179.073071 
L 582.800734 179.991725 
L 580.176211 180.748801 
L 577.190994 181.863533 
L 576.426451 182.24958 
L 575.531355 182.894854 
L 575.219509 183.401847 
L 575.233637 183.765287 
L 575.440554 184.108943 
L 576.129224 184.633146 
L 577.842789 185.364009 
L 578.618763 185.611829 
L 582.487041 186.565988 
L 587.020374 187.407122 
L 592.557426 188.226083 
L 598.373462 188.866745 
L 602.509053 189.110384 
L 605.547105 189.106573 
L 609.693616 188.831726 
L 616.568199 188.053354 
L 627.144457 186.904977 
L 635.762675 186.221138 
L 642.764955 185.867112 
L 649.281549 185.720855 
L 655.228222 185.790614 
L 659.53619 186.022227 
L 664.151891 186.513293 
L 667.255779 187.025032 
L 671.332224 187.973608 
L 675.010397 189.173023 
L 675.010397 189.173023 
" style="fill:none;stroke:#000000;stroke-linecap:square;stroke-opacity:0.7;stroke-width:1.2;"/>
   </g>
   <g id="line2d_23">
    <path clip-path="url(#pb0cca76ea6)" d="M 674.897098 147.641153 
L 667.489966 145.929864 
L 647.595119 141.191316 
L 641.745501 140.076753 
L 637.285598 139.438319 
L 632.660482 139.013449 
L 629.003615 138.851667 
L 623.020742 138.864982 
L 614.499177 139.21941 
L 592.993929 140.376524 
L 588.587855 140.845768 
L 585.000924 141.39174 
L 581.095378 142.201499 
L 577.588636 143.189155 
L 575.482527 143.988026 
L 574.209515 144.649347 
L 573.484951 145.232372 
L 573.253894 145.619025 
L 573.289474 146.031549 
L 573.500907 146.286171 
L 574.250066 146.682977 
L 575.677693 147.039813 
L 577.502313 147.270619 
L 580.786469 147.432466 
L 584.374516 147.425664 
L 591.983198 147.130017 
L 602.499767 146.68316 
L 610.154819 146.609824 
L 628.388297 146.567395 
L 637.04956 146.214596 
L 649.085797 145.67139 
L 653.930681 145.700771 
L 657.720266 145.913986 
L 661.399123 146.307117 
L 665.675353 147.001605 
L 670.557137 148.078875 
L 674.728661 149.185706 
L 674.728661 149.185706 
" style="fill:none;stroke:#000000;stroke-linecap:square;stroke-opacity:0.7;stroke-width:1.2;"/>
   </g>
   <g id="line2d_24">
    <path clip-path="url(#pb0cca76ea6)" d="M 675.329064 104.272439 
L 670.601574 104.048934 
L 664.182901 103.486887 
L 657.996521 102.707426 
L 651.620121 101.667937 
L 644.617151 100.284787 
L 632.146383 97.506527 
L 623.989566 95.808929 
L 618.715986 94.924538 
L 613.537498 94.314251 
L 608.943902 94.033581 
L 605.27281 94.000293 
L 601.955346 94.120664 
L 598.336666 94.418104 
L 594.647479 94.904809 
L 589.972105 95.802208 
L 586.182033 96.780862 
L 583.594619 97.595018 
L 580.44076 98.777549 
L 577.082764 100.341108 
L 574.618433 101.817528 
L 573.299942 102.842967 
L 572.225663 104.016319 
L 571.874381 104.635423 
L 571.688882 105.552049 
L 571.786083 106.032081 
L 572.121915 106.601522 
L 572.65292 107.090413 
L 573.35026 107.512254 
L 574.463339 107.971902 
L 576.581229 108.520744 
L 579.532963 108.950284 
L 583.137439 109.203273 
L 587.237632 109.279862 
L 592.855043 109.157144 
L 600.829914 108.703359 
L 615.980331 107.497332 
L 628.49829 106.635674 
L 653.305378 105.230571 
L 660.781967 104.96588 
L 665.632427 104.966338 
L 670.508427 105.176682 
L 673.948913 105.505431 
L 675.329917 105.697829 
L 675.329917 105.697829 
" style="fill:none;stroke:#000000;stroke-linecap:square;stroke-opacity:0.7;stroke-width:1.2;"/>
   </g>
   <g id="line2d_25">
    <path clip-path="url(#pb0cca76ea6)" d="M 675.490909 64.618831 
L 670.799409 63.945336 
L 666.34993 63.502591 
L 649.1133 62.130703 
L 642.896387 61.238026 
L 636.926106 60.1461 
L 618.781931 56.585875 
L 614.321229 56.034945 
L 610.683899 55.764289 
L 606.761029 55.666899 
L 601.990005 55.828363 
L 597.609703 56.249852 
L 593.584793 56.870501 
L 589.093429 57.835507 
L 585.116257 58.949248 
L 581.365541 60.266475 
L 578.917322 61.317265 
L 577.01593 62.296891 
L 575.077709 63.575404 
L 574.578993 63.996741 
L 573.577907 65.190417 
L 573.346318 65.725752 
L 573.271807 66.380548 
L 573.564481 67.219388 
L 574.238203 67.93889 
L 575.038984 68.463438 
L 576.494065 69.108531 
L 578.668978 69.748601 
L 581.52412 70.300804 
L 584.90091 70.716247 
L 589.610945 71.027138 
L 594.533247 71.120842 
L 600.704454 70.997555 
L 609.12802 70.569264 
L 627.534231 69.362869 
L 638.789397 68.418803 
L 661.155891 66.377607 
L 666.931762 66.156684 
L 671.84187 66.163698 
L 675.369274 66.323459 
L 675.369274 66.323459 
" style="fill:none;stroke:#000000;stroke-linecap:square;stroke-opacity:0.7;stroke-width:1.2;"/>
   </g>
  </g>
 </g>
 <defs>
  <clipPath id="pb0cca76ea6">
   <rect height="262.08" width="694.08" x="12.96" y="12.96"/>
  </clipPath>
 </defs>
</svg>
