<?xml version="1.0" encoding="utf-8" standalone="no"?>
<!DOCTYPE svg PUBLIC "-//W3C//DTD SVG 1.1//EN"
  "http://www.w3.org/Graphics/SVG/1.1/DTD/svg11.dtd">
<!-- Created with matplotlib (https://matplotlib.org/) -->
<svg height="288pt" version="1.1" viewBox="0 0 720 288" width="720pt" xmlns="http://www.w3.org/2000/svg" xmlns:xlink="http://www.w3.org/1999/xlink">
 <metadata>
  <rdf:RDF xmlns:cc="http://creativecommons.org/ns#" xmlns:dc="http://purl.org/dc/elements/1.1/" xmlns:rdf="http://www.w3.org/1999/02/22-rdf-syntax-ns#">
   <cc:Work>
    <dc:type rdf:resource="http://purl.org/dc/dcmitype/StillImage"/>
    <dc:date>2021-05-05T23:44:11.349973</dc:date>
    <dc:format>image/svg+xml</dc:format>
    <dc:creator>
     <cc:Agent>
      <dc:title>Matplotlib v3.3.4, https://matplotlib.org/</dc:title>
     </cc:Agent>
    </dc:creator>
   </cc:Work>
  </rdf:RDF>
 </metadata>
 <defs>
  <style type="text/css">*{stroke-linecap:butt;stroke-linejoin:round;}</style>
 </defs>
 <g id="figure_1">
  <g id="patch_1">
   <path d="M 0 288 
L 720 288 
L 720 0 
L 0 0 
z
" style="fill:#ffffff;"/>
  </g>
  <g id="axes_1">
   <g id="line2d_1">
    <path clip-path="url(#p8b0d55c895)" d="M 149.499528 228.387342 
L 138.592813 226.283649 
L 123.907545 223.742742 
L 109.740008 221.459831 
L 99.75048 220.077706 
L 91.35131 219.14449 
L 84.594877 218.588717 
L 77.936047 218.276943 
L 73.37721 218.251069 
L 68.892085 218.424658 
L 64.482388 218.840251 
L 61.044694 219.373471 
L 57.68525 220.112526 
L 54.60597 221.023572 
L 52.565881 221.780518 
L 49.658986 223.140882 
L 47.789058 224.273504 
L 46.243636 225.515534 
L 45.576199 226.339398 
L 45.410077 226.888886 
L 45.507362 227.179394 
L 45.834939 227.433956 
L 46.514984 227.625018 
L 47.519316 227.710593 
L 49.412089 227.680135 
L 54.80788 227.258972 
L 66.913928 226.254144 
L 73.615732 225.906652 
L 81.440413 225.744422 
L 89.323208 225.823142 
L 99.906601 226.17641 
L 134.449851 227.666854 
L 146.876926 228.149357 
L 149.508404 228.211018 
L 149.508404 228.211018 
" style="fill:none;stroke:#000000;stroke-linecap:square;stroke-opacity:0.7;stroke-width:1.2;"/>
   </g>
   <g id="line2d_2">
    <path clip-path="url(#p8b0d55c895)" d="M 149.843635 188.50994 
L 130.964466 186.201218 
L 116.709625 184.202743 
L 98.930255 181.72064 
L 90.547535 180.767112 
L 83.250113 180.165007 
L 77.68474 179.916761 
L 72.646653 179.90197 
L 67.912883 180.11133 
L 63.644933 180.519865 
L 60.315964 181.008037 
L 56.660257 181.749172 
L 53.574141 182.583457 
L 50.774804 183.564693 
L 48.783404 184.455298 
L 47.316364 185.281997 
L 46.29879 186.01744 
L 45.52824 186.798648 
L 45.125946 187.644737 
L 45.140047 188.045305 
L 45.399796 188.529866 
L 45.913635 188.945383 
L 46.667978 189.303098 
L 48.303327 189.761441 
L 50.309001 190.094413 
L 53.494107 190.406594 
L 59.144895 190.671351 
L 66.358109 190.765743 
L 78.303194 190.667217 
L 130.952364 189.774034 
L 139.43993 189.405153 
L 145.396863 188.942761 
L 149.833043 188.485492 
L 149.833043 188.485492 
" style="fill:none;stroke:#000000;stroke-linecap:square;stroke-opacity:0.7;stroke-width:1.2;"/>
   </g>
   <g id="line2d_3">
    <path clip-path="url(#p8b0d55c895)" d="M 149.926541 148.908412 
L 139.560263 145.98172 
L 128.337661 143.068368 
L 117.548517 140.460125 
L 109.59686 138.75564 
L 103.462125 137.647657 
L 97.526975 136.78459 
L 91.156837 136.107365 
L 85.996716 135.764064 
L 81.131926 135.629524 
L 76.395658 135.701388 
L 71.794741 135.994969 
L 68.420122 136.373265 
L 64.78296 136.960502 
L 61.452844 137.688241 
L 58.457967 138.526536 
L 55.507039 139.558672 
L 52.616039 140.819965 
L 50.72498 141.819614 
L 48.896938 142.966248 
L 47.436977 144.067083 
L 46.223922 145.190959 
L 45.074823 146.662513 
L 44.609867 147.716065 
L 44.509091 148.446913 
L 44.661125 149.233155 
L 45.001519 149.824266 
L 45.759658 150.544946 
L 47.014717 151.262702 
L 48.837998 151.939836 
L 51.777522 152.656888 
L 55.919877 153.303203 
L 60.861203 153.779441 
L 66.989709 154.095591 
L 73.068329 154.194878 
L 80.979837 154.081909 
L 89.564155 153.723991 
L 100.237234 153.025495 
L 113.050968 151.92442 
L 138.365369 149.677455 
L 149.927932 148.865201 
L 149.927932 148.865201 
" style="fill:none;stroke:#000000;stroke-linecap:square;stroke-opacity:0.7;stroke-width:1.2;"/>
   </g>
   <g id="line2d_4">
    <path clip-path="url(#p8b0d55c895)" d="M 149.595 110.070266 
L 128.581599 107.991589 
L 110.041237 106.14958 
L 98.64919 105.287141 
L 86.698962 104.620915 
L 78.453167 104.358005 
L 71.480458 104.357233 
L 65.174311 104.603491 
L 59.5254 105.082436 
L 54.874457 105.722052 
L 51.519307 106.383173 
L 48.756623 107.133984 
L 46.936796 107.824679 
L 45.812626 108.445574 
L 45.235157 108.977797 
L 45.063944 109.348342 
L 45.091188 109.67157 
L 45.344301 110.029159 
L 45.781052 110.335462 
L 46.67612 110.718656 
L 48.309286 111.157884 
L 50.847883 111.599644 
L 55.052276 112.067134 
L 60.95021 112.460828 
L 69.109406 112.734628 
L 78.645425 112.821617 
L 92.495779 112.70076 
L 103.512883 112.401952 
L 114.281882 111.873689 
L 147.925685 110.038682 
L 149.586092 109.967131 
L 149.586092 109.967131 
" style="fill:none;stroke:#000000;stroke-linecap:square;stroke-opacity:0.7;stroke-width:1.2;"/>
   </g>
   <g id="line2d_5">
    <path clip-path="url(#p8b0d55c895)" d="M 149.972438 69.965131 
L 138.991205 67.766846 
L 126.998334 65.618296 
L 116.8037 64.010038 
L 109.305365 63.046555 
L 102.169015 62.356833 
L 95.096732 61.900335 
L 87.770231 61.669304 
L 81.029865 61.705167 
L 75.746807 61.93475 
L 69.79628 62.443112 
L 64.356528 63.174502 
L 59.589014 64.06355 
L 56.180946 64.873988 
L 52.989599 65.804996 
L 50.105563 66.848316 
L 47.707197 67.960176 
L 46.201224 68.910984 
L 45.425766 69.69573 
L 45.259341 70.143161 
L 45.385924 70.557907 
L 45.800327 70.895315 
L 46.661176 71.228076 
L 48.249728 71.548887 
L 51.044195 71.840093 
L 55.324254 72.051043 
L 62.472683 72.152156 
L 71.484951 72.047523 
L 81.642735 71.701466 
L 93.351123 71.06224 
L 119.715454 69.498257 
L 128.3134 69.218169 
L 135.425395 69.190103 
L 142.410046 69.415133 
L 149.981227 69.890226 
L 149.981227 69.890226 
" style="fill:none;stroke:#000000;stroke-linecap:square;stroke-opacity:0.7;stroke-width:1.2;"/>
   </g>
   <g id="line2d_6">
    <path clip-path="url(#p8b0d55c895)" d="M 281.116226 228.074057 
L 261.231758 224.537948 
L 247.874084 222.331245 
L 239.764108 221.21494 
L 232.614227 220.440394 
L 225.533948 219.871432 
L 218.345471 219.503496 
L 212.203598 219.39367 
L 206.304429 219.51019 
L 201.343822 219.802647 
L 196.315111 220.303366 
L 191.842222 220.949653 
L 187.340847 221.842679 
L 184.055647 222.71011 
L 181.076376 223.75065 
L 179.234807 224.609841 
L 177.841876 225.490387 
L 176.821691 226.486727 
L 176.435653 227.257995 
L 176.389983 227.79896 
L 176.603038 228.432427 
L 176.997963 228.922534 
L 177.895168 229.56619 
L 179.338649 230.20221 
L 181.045567 230.709093 
L 184.328045 231.356604 
L 188.83157 231.913137 
L 194.614449 232.35055 
L 201.833429 232.649247 
L 210.377846 232.757491 
L 218.51463 232.650319 
L 226.909976 232.3385 
L 236.23208 231.764791 
L 247.37343 230.82512 
L 272.374324 228.59315 
L 281.119045 228.017428 
L 281.119045 228.017428 
" style="fill:none;stroke:#000000;stroke-linecap:square;stroke-opacity:0.7;stroke-width:1.2;"/>
   </g>
   <g id="line2d_7">
    <path clip-path="url(#p8b0d55c895)" d="M 281.373218 188.172547 
L 264.093305 184.198464 
L 241.440413 179.196035 
L 233.70064 177.727125 
L 227.030886 176.67263 
L 221.068308 175.926279 
L 215.267999 175.402484 
L 209.192956 175.108727 
L 205.336863 175.088631 
L 200.596623 175.286936 
L 197.087827 175.630026 
L 194.165916 176.074157 
L 190.908908 176.779749 
L 187.957822 177.661549 
L 185.097846 178.80621 
L 182.717863 180.054102 
L 181.229427 181.019995 
L 179.695397 182.221168 
L 178.26214 183.618912 
L 177.261237 184.867127 
L 176.512329 186.168633 
L 176.235463 187.040938 
L 176.217758 187.666484 
L 176.383443 188.143004 
L 176.779485 188.559221 
L 177.719942 188.944126 
L 179.101557 189.113528 
L 181.026809 189.094268 
L 184.500992 188.79875 
L 193.132828 187.727342 
L 203.806505 186.47099 
L 211.153561 185.812149 
L 218.614644 185.375827 
L 226.105806 185.183593 
L 233.463461 185.213897 
L 241.602898 185.474284 
L 250.234539 185.982564 
L 260.787951 186.848385 
L 271.877566 187.739814 
L 279.164217 188.05834 
L 281.358259 188.106988 
L 281.358259 188.106988 
" style="fill:none;stroke:#000000;stroke-linecap:square;stroke-opacity:0.7;stroke-width:1.2;"/>
   </g>
   <g id="line2d_8">
    <path clip-path="url(#p8b0d55c895)" d="M 281.399226 148.724783 
L 261.012507 145.326451 
L 236.979847 141.168616 
L 228.605913 140.012823 
L 221.412892 139.253424 
L 215.76218 138.853058 
L 209.8807 138.669235 
L 205.112942 138.729648 
L 200.494545 138.995079 
L 195.740122 139.512241 
L 191.466187 140.226968 
L 188.151216 140.983207 
L 185.052231 141.899519 
L 181.84939 143.154466 
L 180.090399 144.054343 
L 178.546543 145.063087 
L 177.355958 146.121859 
L 176.5963 147.155442 
L 176.258171 148.109153 
L 176.236244 148.664555 
L 176.431715 149.396929 
L 176.884347 150.080082 
L 177.779654 150.844193 
L 179.124189 151.563223 
L 181.254884 152.304174 
L 184.240259 152.975806 
L 187.512124 153.462074 
L 192.028638 153.892862 
L 198.043853 154.20205 
L 205.20391 154.305571 
L 212.893632 154.174087 
L 221.17073 153.813783 
L 232.032866 153.109338 
L 248.810953 151.770243 
L 272.074329 149.701831 
L 281.390926 148.704066 
L 281.390926 148.704066 
" style="fill:none;stroke:#000000;stroke-linecap:square;stroke-opacity:0.7;stroke-width:1.2;"/>
   </g>
   <g id="line2d_9">
    <path clip-path="url(#p8b0d55c895)" d="M 280.717069 110.216618 
L 274.51175 107.133404 
L 268.727882 104.526508 
L 262.905909 102.187216 
L 257.463629 100.238423 
L 251.767559 98.422132 
L 245.711871 96.738046 
L 239.694513 95.325954 
L 233.705181 94.187956 
L 228.057216 93.368023 
L 223.02618 92.856828 
L 218.33106 92.581715 
L 213.706284 92.520756 
L 208.720487 92.717123 
L 204.615921 93.11094 
L 200.769309 93.699398 
L 197.627815 94.361568 
L 193.812151 95.424181 
L 190.951883 96.44123 
L 187.880821 97.789223 
L 185.066024 99.31145 
L 182.593507 100.936288 
L 180.44481 102.638412 
L 178.497309 104.527586 
L 177.267565 106.036457 
L 176.789338 106.779841 
L 176.250333 108.131639 
L 176.295117 108.89971 
L 176.498886 109.254219 
L 177.03947 109.659678 
L 178.05338 109.975322 
L 179.300844 110.123657 
L 181.162586 110.160867 
L 184.804359 109.993162 
L 195.354695 109.124617 
L 205.579344 108.402394 
L 213.689884 108.041874 
L 223.76384 107.836462 
L 241.744317 107.772713 
L 252.66175 107.892093 
L 259.982541 108.158662 
L 268.032464 108.704491 
L 275.778018 109.478453 
L 280.713035 110.070695 
L 280.713035 110.070695 
" style="fill:none;stroke:#000000;stroke-linecap:square;stroke-opacity:0.7;stroke-width:1.2;"/>
   </g>
   <g id="line2d_10">
    <path clip-path="url(#p8b0d55c895)" d="M 281.09313 70.401589 
L 268.5947 68.418122 
L 255.687994 66.599986 
L 247.48371 65.634192 
L 240.547111 65.026207 
L 233.477787 64.628338 
L 225.097914 64.38194 
L 214.51316 64.291695 
L 206.057801 64.408198 
L 199.287912 64.706116 
L 193.03243 65.21956 
L 188.342997 65.805906 
L 183.894233 66.586526 
L 180.718015 67.353077 
L 178.669287 68.019862 
L 177.203935 68.697019 
L 176.57926 69.158274 
L 176.325605 69.540833 
L 176.364066 69.935403 
L 176.725723 70.297722 
L 177.470537 70.66033 
L 178.540218 70.988314 
L 180.773053 71.4439 
L 184.591978 71.962804 
L 190.364073 72.498545 
L 198.782945 73.021325 
L 208.409072 73.391319 
L 219.638954 73.597559 
L 229.165569 73.548317 
L 236.191037 73.293732 
L 243.60901 72.77956 
L 256.468792 71.569905 
L 266.771808 70.698807 
L 272.621494 70.399759 
L 278.457004 70.306472 
L 281.099469 70.32783 
L 281.099469 70.32783 
" style="fill:none;stroke:#000000;stroke-linecap:square;stroke-opacity:0.7;stroke-width:1.2;"/>
   </g>
   <g id="line2d_11">
    <path clip-path="url(#p8b0d55c895)" d="M 412.771003 227.559718 
L 389.683224 222.376006 
L 377.950452 219.909947 
L 369.816396 218.418449 
L 361.914858 217.206474 
L 355.330845 216.40522 
L 349.480238 215.900168 
L 344.820865 215.686346 
L 339.970937 215.683048 
L 335.359763 215.909868 
L 330.698228 216.381992 
L 326.63048 217.011398 
L 323.399382 217.677505 
L 320.176911 218.521649 
L 316.951708 219.606327 
L 314.388583 220.720409 
L 312.068942 222.049439 
L 310.630944 223.15138 
L 309.429871 224.425336 
L 308.699409 225.657998 
L 308.411519 226.7758 
L 308.502825 227.781388 
L 308.836795 228.523816 
L 309.0195 228.782844 
L 310.06281 229.721038 
L 311.435031 230.433938 
L 313.200946 231.016944 
L 315.936643 231.573981 
L 319.360185 231.973004 
L 323.933965 232.23957 
L 329.618553 232.33795 
L 337.228787 232.231804 
L 346.654807 231.865275 
L 362.996992 230.955541 
L 394.872627 228.970433 
L 408.27673 227.907666 
L 412.771786 227.507368 
L 412.771786 227.507368 
" style="fill:none;stroke:#000000;stroke-linecap:square;stroke-opacity:0.7;stroke-width:1.2;"/>
   </g>
   <g id="line2d_12">
    <path clip-path="url(#p8b0d55c895)" d="M 412.768854 188.125639 
L 378.825187 183.077756 
L 371.368659 182.3201 
L 363.842067 181.820814 
L 356.256861 181.552414 
L 346.927516 181.457171 
L 339.207371 181.595398 
L 332.862202 181.919977 
L 326.609489 182.46972 
L 321.833531 183.079123 
L 317.665386 183.793651 
L 314.525248 184.501623 
L 312.183165 185.189489 
L 309.977394 186.08858 
L 308.720729 186.882024 
L 307.998602 187.777243 
L 307.920776 188.415254 
L 308.201113 189.019004 
L 308.514672 189.347966 
L 309.177274 189.810473 
L 310.147865 190.272395 
L 312.539333 191.002525 
L 314.799347 191.455052 
L 318.601164 191.972672 
L 322.96214 192.36398 
L 329.651739 192.738939 
L 338.719092 192.993838 
L 348.733382 193.03141 
L 356.993619 192.865416 
L 365.063709 192.491434 
L 373.444371 191.855984 
L 383.983708 190.777647 
L 402.708993 188.787302 
L 412.234142 188.056482 
L 412.776566 188.021139 
L 412.776566 188.021139 
" style="fill:none;stroke:#000000;stroke-linecap:square;stroke-opacity:0.7;stroke-width:1.2;"/>
   </g>
   <g id="line2d_13">
    <path clip-path="url(#p8b0d55c895)" d="M 412.724899 148.792826 
L 395.158089 147.150058 
L 377.891576 145.477811 
L 369.870643 144.966713 
L 361.876484 144.691615 
L 350.866054 144.580348 
L 339.235932 144.672377 
L 330.090406 144.966211 
L 323.104522 145.406077 
L 317.117443 146.00884 
L 312.790258 146.667908 
L 309.949555 147.323664 
L 308.510606 147.848086 
L 307.840066 148.269786 
L 307.595531 148.7086 
L 307.698648 149.001751 
L 308.104013 149.340757 
L 308.777205 149.653049 
L 310.488581 150.136226 
L 312.784479 150.550466 
L 316.931796 151.035758 
L 322.929305 151.457351 
L 329.923702 151.721641 
L 338.262262 151.830506 
L 349.099047 151.729457 
L 360.037302 151.408953 
L 371.30417 150.868939 
L 408.160261 148.840577 
L 412.734765 148.720139 
L 412.734765 148.720139 
" style="fill:none;stroke:#000000;stroke-linecap:square;stroke-opacity:0.7;stroke-width:1.2;"/>
   </g>
   <g id="line2d_14">
    <path clip-path="url(#p8b0d55c895)" d="M 412.5562 109.73217 
L 392.075531 106.817959 
L 370.503207 103.591088 
L 362.198279 102.618027 
L 354.055168 101.892533 
L 346.782883 101.461619 
L 340.915761 101.304639 
L 336.149923 101.340504 
L 331.350542 101.562266 
L 326.754508 101.988157 
L 321.836328 102.732526 
L 318.778917 103.386639 
L 315.670539 104.253574 
L 312.842468 105.297354 
L 311.026758 106.176235 
L 309.676829 107.029783 
L 308.782366 107.806474 
L 308.188722 108.643482 
L 308.03297 109.186549 
L 308.063153 109.640486 
L 308.315609 110.171733 
L 308.896544 110.739273 
L 309.895067 111.315615 
L 311.324093 111.863507 
L 314.263256 112.612219 
L 318.131838 113.27052 
L 322.710156 113.815683 
L 328.544119 114.289173 
L 335.261898 114.612303 
L 342.651692 114.743157 
L 351.33591 114.642086 
L 360.884322 114.270183 
L 371.566574 113.614154 
L 390.639863 112.173573 
L 400.584721 111.269373 
L 408.043229 110.355937 
L 412.550844 109.681503 
L 412.550844 109.681503 
" style="fill:none;stroke:#000000;stroke-linecap:square;stroke-opacity:0.7;stroke-width:1.2;"/>
   </g>
   <g id="line2d_15">
    <path clip-path="url(#p8b0d55c895)" d="M 412.129776 70.920394 
L 394.182264 68.443399 
L 375.12062 65.74066 
L 355.877321 63.005409 
L 348.495639 62.162391 
L 342.585796 61.675596 
L 336.891157 61.440332 
L 332.240865 61.472199 
L 327.653334 61.749365 
L 324.043491 62.174165 
L 320.313463 62.845776 
L 317.446642 63.560211 
L 314.311891 64.600069 
L 312.324083 65.452172 
L 310.691715 66.320524 
L 309.400875 67.187341 
L 308.511851 67.979927 
L 307.933491 68.805323 
L 307.819379 69.320014 
L 307.922051 69.708527 
L 308.235887 70.065542 
L 308.903766 70.424584 
L 309.802469 70.687499 
L 311.967813 70.99928 
L 315.11783 71.16762 
L 319.824254 71.199042 
L 330.454761 70.995169 
L 346.583289 70.720259 
L 361.082581 70.727277 
L 399.066034 70.818822 
L 412.155283 70.734733 
L 412.155283 70.734733 
" style="fill:none;stroke:#000000;stroke-linecap:square;stroke-opacity:0.7;stroke-width:1.2;"/>
   </g>
   <g id="line2d_16">
    <path clip-path="url(#p8b0d55c895)" d="M 543.737804 228.181083 
L 530.558301 226.252603 
L 513.432398 223.997926 
L 501.90856 222.664258 
L 492.144352 221.745038 
L 482.784613 221.08328 
L 475.404025 220.771662 
L 469.70035 220.723466 
L 463.773428 220.922794 
L 459.22321 221.294957 
L 454.576389 221.915696 
L 451.003243 222.592818 
L 447.689818 223.414491 
L 444.709081 224.364613 
L 442.320513 225.342119 
L 440.580043 226.28762 
L 439.640122 227.088173 
L 439.501441 227.412354 
L 439.579022 227.638471 
L 439.833498 227.806553 
L 440.474499 227.956165 
L 442.119208 228.014069 
L 444.948123 227.860831 
L 453.22529 227.084803 
L 464.286073 226.088464 
L 472.869309 225.545666 
L 480.099981 225.28667 
L 488.569575 225.204555 
L 498.069402 225.346021 
L 509.73194 225.755465 
L 521.945026 226.397411 
L 533.704446 227.238001 
L 543.737804 228.084397 
L 543.737804 228.084397 
" style="fill:none;stroke:#000000;stroke-linecap:square;stroke-opacity:0.7;stroke-width:1.2;"/>
   </g>
   <g id="line2d_17">
    <path clip-path="url(#p8b0d55c895)" d="M 543.99204 188.468928 
L 528.878456 186.673181 
L 517.024035 185.00724 
L 501.240516 182.802872 
L 492.858212 181.867025 
L 483.987905 181.124371 
L 476.260648 180.710814 
L 470.223254 180.58148 
L 463.963701 180.687449 
L 459.315454 180.968857 
L 454.499832 181.493856 
L 451.002288 182.067563 
L 447.977354 182.740774 
L 444.805918 183.706145 
L 442.871239 184.506048 
L 441.46183 185.269888 
L 440.090772 186.325399 
L 439.442767 187.125324 
L 439.110946 187.914782 
L 439.059822 188.51603 
L 439.242885 189.262728 
L 439.744002 190.048981 
L 440.475979 190.749549 
L 441.72526 191.579382 
L 443.651318 192.496454 
L 446.559624 193.505545 
L 449.607953 194.305607 
L 453.413717 195.077596 
L 457.831471 195.749843 
L 462.530298 196.255626 
L 467.300451 196.576456 
L 472.269691 196.720406 
L 478.379536 196.652089 
L 484.181984 196.366742 
L 491.514567 195.763119 
L 501.02773 194.717458 
L 520.505436 192.267317 
L 531.249127 190.77173 
L 538.426739 189.539687 
L 543.989114 188.403509 
L 543.989114 188.403509 
" style="fill:none;stroke:#000000;stroke-linecap:square;stroke-opacity:0.7;stroke-width:1.2;"/>
   </g>
   <g id="line2d_18">
    <path clip-path="url(#p8b0d55c895)" d="M 544.262312 148.261456 
L 531.040357 145.527044 
L 519.632361 143.396525 
L 511.295159 142.059445 
L 503.930382 141.109609 
L 497.710192 140.500753 
L 490.012683 139.99492 
L 482.781046 139.780611 
L 476.932616 139.833391 
L 472.224135 140.057877 
L 467.423409 140.472144 
L 462.431538 141.108774 
L 457.091813 142.033299 
L 452.670304 143.013634 
L 448.097925 144.290636 
L 444.802295 145.458103 
L 442.499968 146.490305 
L 441.169736 147.249035 
L 440.065369 148.125743 
L 439.665171 148.718606 
L 439.640916 149.145956 
L 439.869859 149.482286 
L 440.178694 149.687878 
L 441.304006 150.051845 
L 443.383175 150.326719 
L 446.707386 150.467885 
L 452.627132 150.425194 
L 460.980172 150.125654 
L 473.244922 149.434835 
L 508.420733 147.194525 
L 517.056596 146.989131 
L 524.207573 147.024272 
L 531.366649 147.298484 
L 539.861976 147.886786 
L 544.267949 148.239831 
L 544.267949 148.239831 
" style="fill:none;stroke:#000000;stroke-linecap:square;stroke-opacity:0.7;stroke-width:1.2;"/>
   </g>
   <g id="line2d_19">
    <path clip-path="url(#p8b0d55c895)" d="M 544.161052 109.186004 
L 534.939475 106.073989 
L 526.667182 103.549265 
L 514.704717 100.176487 
L 505.058845 97.677113 
L 497.648359 96.007614 
L 491.716488 94.900798 
L 486.632663 94.150533 
L 482.003217 93.650142 
L 476.847177 93.326924 
L 472.225326 93.278162 
L 467.617168 93.49369 
L 464.17854 93.853749 
L 460.85844 94.388757 
L 457.722211 95.089906 
L 454.45725 96.058327 
L 451.810503 97.056937 
L 448.86022 98.447828 
L 446.051792 100.12032 
L 443.534638 102.020744 
L 441.556208 103.935667 
L 440.139011 105.770619 
L 439.321041 107.406117 
L 439.102253 108.329678 
L 439.118877 109.184878 
L 439.369065 109.918536 
L 439.920093 110.63007 
L 440.753321 111.231138 
L 442.228913 111.853333 
L 443.836307 112.262742 
L 446.221037 112.628337 
L 449.572459 112.89003 
L 454.498012 112.997716 
L 460.662612 112.880657 
L 468.009111 112.528084 
L 479.305928 111.734413 
L 497.684277 110.40215 
L 507.38149 109.949926 
L 520.022221 109.622601 
L 544.152859 109.193891 
L 544.152859 109.193891 
" style="fill:none;stroke:#000000;stroke-linecap:square;stroke-opacity:0.7;stroke-width:1.2;"/>
   </g>
   <g id="line2d_20">
    <path clip-path="url(#p8b0d55c895)" d="M 544.238928 69.592167 
L 530.45612 67.701365 
L 519.082653 65.868002 
L 506.912776 63.939399 
L 498.289511 62.808894 
L 490.628615 62.035359 
L 483.308955 61.514705 
L 477.551994 61.271684 
L 471.404556 61.209004 
L 465.652143 61.37841 
L 460.688673 61.741576 
L 456.157246 62.287964 
L 451.90589 63.035997 
L 448.366347 63.890038 
L 445.017313 64.977191 
L 442.884815 65.886479 
L 441.42555 66.668428 
L 439.882407 67.777446 
L 439.348681 68.344891 
L 439.052631 68.907081 
L 439.072283 69.325189 
L 439.258795 69.573433 
L 439.823369 69.859081 
L 440.772843 70.041081 
L 442.505442 70.114338 
L 445.796712 69.968959 
L 452.542398 69.369988 
L 465.151921 68.224133 
L 472.600337 67.745387 
L 480.124618 67.472779 
L 488.788412 67.407765 
L 498.387951 67.585514 
L 507.740418 67.96431 
L 520.112995 68.703597 
L 533.525323 69.505303 
L 539.782872 69.630936 
L 544.23329 69.589861 
L 544.23329 69.589861 
" style="fill:none;stroke:#000000;stroke-linecap:square;stroke-opacity:0.7;stroke-width:1.2;"/>
   </g>
   <g id="line2d_21">
    <path clip-path="url(#p8b0d55c895)" d="M 674.969502 228.364393 
L 667.351034 226.280614 
L 660.27839 224.570708 
L 651.899275 222.801981 
L 643.997399 221.352319 
L 636.779371 220.25207 
L 629.713774 219.430396 
L 622.495675 218.858389 
L 615.319911 218.53978 
L 609.580449 218.464708 
L 603.222871 218.595862 
L 597.639357 218.938403 
L 593.037335 219.415891 
L 588.551723 220.084673 
L 584.074642 220.994683 
L 580.757806 221.864154 
L 577.734998 222.84794 
L 575.052636 223.941316 
L 572.845197 225.114763 
L 571.509587 226.125444 
L 571.031294 226.699135 
L 570.820109 227.278134 
L 570.948469 227.800317 
L 571.239629 228.126377 
L 571.963946 228.552742 
L 573.375907 229.01014 
L 575.938864 229.475329 
L 579.53012 229.845479 
L 584.315499 230.121313 
L 591.682293 230.308921 
L 601.358291 230.321738 
L 613.52143 230.121616 
L 624.111653 229.758125 
L 633.203382 229.227358 
L 656.009814 227.670922 
L 662.003192 227.550182 
L 667.711559 227.686118 
L 672.36568 227.996422 
L 674.966464 228.242976 
L 674.966464 228.242976 
" style="fill:none;stroke:#000000;stroke-linecap:square;stroke-opacity:0.7;stroke-width:1.2;"/>
   </g>
   <g id="line2d_22">
    <path clip-path="url(#p8b0d55c895)" d="M 675.111566 188.741343 
L 668.522864 186.691101 
L 662.867604 185.121587 
L 655.815125 183.407127 
L 647.185213 181.576895 
L 640.050254 180.271999 
L 633.057434 179.218778 
L 625.921854 178.401501 
L 618.591223 177.83025 
L 611.661348 177.542472 
L 605.765759 177.519869 
L 600.962339 177.691282 
L 596.454136 178.047801 
L 592.052123 178.622106 
L 587.819772 179.432781 
L 584.369247 180.322274 
L 580.945963 181.454798 
L 578.285276 182.550632 
L 576.548189 183.396433 
L 573.81206 185.030819 
L 572.506002 186.037024 
L 571.653287 186.898449 
L 571.225995 187.576861 
L 571.147449 188.136507 
L 571.313215 188.466215 
L 571.757205 188.776272 
L 572.588894 189.026669 
L 574.004132 189.195231 
L 577.068406 189.23242 
L 583.059699 188.946921 
L 608.773833 187.393257 
L 619.561338 187.060277 
L 636.085306 186.808254 
L 647.995114 186.789613 
L 656.584065 186.998654 
L 663.555555 187.406953 
L 669.883438 187.996119 
L 675.115494 188.616202 
L 675.115494 188.616202 
" style="fill:none;stroke:#000000;stroke-linecap:square;stroke-opacity:0.7;stroke-width:1.2;"/>
   </g>
   <g id="line2d_23">
    <path clip-path="url(#p8b0d55c895)" d="M 675.488385 148.728714 
L 666.472045 145.718947 
L 658.148405 143.170472 
L 644.283337 139.199071 
L 635.161986 136.758448 
L 628.164455 135.108244 
L 622.198533 133.943082 
L 617.214637 133.186372 
L 612.45039 132.679698 
L 607.735231 132.417036 
L 603.04149 132.423828 
L 599.185146 132.654608 
L 595.793696 133.044164 
L 592.390744 133.629141 
L 588.794681 134.483779 
L 585.506128 135.509077 
L 582.244643 136.799431 
L 579.115521 138.357754 
L 576.957175 139.67237 
L 575.242405 140.907101 
L 573.454562 142.454872 
L 571.938784 144.117428 
L 571.060766 145.381248 
L 570.306359 147.005103 
L 570.065469 148.171151 
L 570.078361 148.983707 
L 570.354575 150.001924 
L 570.963879 150.974237 
L 571.442606 151.4714 
L 572.752209 152.408524 
L 574.790836 153.342608 
L 576.949948 154.01908 
L 580.294902 154.747233 
L 584.042713 155.298798 
L 588.622776 155.736341 
L 593.697526 156.003118 
L 599.868268 156.078264 
L 606.117342 155.91028 
L 612.361329 155.527526 
L 619.742231 154.849938 
L 629.096764 153.746951 
L 660.385588 149.796801 
L 667.665111 149.166882 
L 675.490909 148.681784 
L 675.490909 148.681784 
" style="fill:none;stroke:#000000;stroke-linecap:square;stroke-opacity:0.7;stroke-width:1.2;"/>
   </g>
   <g id="line2d_24">
    <path clip-path="url(#p8b0d55c895)" d="M 675.269898 109.670198 
L 668.401434 107.467363 
L 662.391906 105.739612 
L 655.171316 103.920652 
L 647.262406 102.183411 
L 640.147385 100.850755 
L 634.353682 99.965089 
L 628.517633 99.282462 
L 622.559826 98.811523 
L 616.876957 98.573247 
L 610.942126 98.545329 
L 604.973754 98.759216 
L 600.200358 99.124771 
L 595.306056 99.703307 
L 590.398154 100.520282 
L 585.802797 101.537337 
L 582.146841 102.557854 
L 578.718005 103.733494 
L 575.557385 105.081692 
L 573.189461 106.368494 
L 571.773137 107.371027 
L 570.779076 108.374437 
L 570.404604 109.049209 
L 570.32902 109.657844 
L 570.522682 110.189148 
L 571.00022 110.702378 
L 571.900645 111.250393 
L 573.413035 111.840063 
L 575.628937 112.441953 
L 578.953857 113.106499 
L 583.419519 113.785157 
L 589.299572 114.466895 
L 596.893328 115.095132 
L 604.612176 115.483253 
L 611.783501 115.627113 
L 619.25101 115.54146 
L 625.240818 115.263491 
L 630.617982 114.812503 
L 636.419234 114.083516 
L 643.156296 112.971297 
L 660.038104 109.974765 
L 664.776108 109.411834 
L 668.106061 109.212991 
L 671.257475 109.228483 
L 674.054902 109.430361 
L 675.273826 109.574334 
L 675.273826 109.574334 
" style="fill:none;stroke:#000000;stroke-linecap:square;stroke-opacity:0.7;stroke-width:1.2;"/>
   </g>
   <g id="line2d_25">
    <path clip-path="url(#p8b0d55c895)" d="M 675.124677 70.583138 
L 665.229386 67.34502 
L 655.499907 64.404631 
L 644.939498 61.445329 
L 636.179612 59.216866 
L 630.250867 57.895453 
L 624.342449 56.785373 
L 619.325989 56.04423 
L 614.722958 55.559577 
L 609.768147 55.279729 
L 605.130601 55.268624 
L 601.285282 55.453873 
L 597.603006 55.802445 
L 593.885753 56.331382 
L 590.503593 56.97787 
L 586.57773 57.949714 
L 583.304603 58.975956 
L 579.643028 60.42802 
L 577.653597 61.400912 
L 575.565828 62.624894 
L 573.871617 63.84602 
L 572.335786 65.250059 
L 571.025473 66.902741 
L 570.142117 68.752713 
L 569.876272 70.150261 
L 569.92608 71.259976 
L 570.149742 72.147756 
L 570.672543 73.225846 
L 571.698486 74.481527 
L 572.997739 75.536585 
L 574.961656 76.661855 
L 577.129542 77.572776 
L 579.534659 78.352605 
L 582.613197 79.128067 
L 587.092452 79.960741 
L 591.744105 80.556629 
L 596.826876 80.95127 
L 601.547383 81.098562 
L 607.195389 81.011904 
L 612.558233 80.683197 
L 618.589581 80.063093 
L 625.056453 79.158524 
L 633.099529 77.77828 
L 647.672042 74.95409 
L 658.137011 73.02967 
L 666.958179 71.636734 
L 675.125836 70.505591 
L 675.125836 70.505591 
" style="fill:none;stroke:#000000;stroke-linecap:square;stroke-opacity:0.7;stroke-width:1.2;"/>
   </g>
  </g>
 </g>
 <defs>
  <clipPath id="p8b0d55c895">
   <rect height="262.08" width="694.08" x="12.96" y="12.96"/>
  </clipPath>
 </defs>
</svg>
