<?xml version="1.0" encoding="utf-8" standalone="no"?>
<!DOCTYPE svg PUBLIC "-//W3C//DTD SVG 1.1//EN"
  "http://www.w3.org/Graphics/SVG/1.1/DTD/svg11.dtd">
<!-- Created with matplotlib (https://matplotlib.org/) -->
<svg height="288pt" version="1.1" viewBox="0 0 720 288" width="720pt" xmlns="http://www.w3.org/2000/svg" xmlns:xlink="http://www.w3.org/1999/xlink">
 <metadata>
  <rdf:RDF xmlns:cc="http://creativecommons.org/ns#" xmlns:dc="http://purl.org/dc/elements/1.1/" xmlns:rdf="http://www.w3.org/1999/02/22-rdf-syntax-ns#">
   <cc:Work>
    <dc:type rdf:resource="http://purl.org/dc/dcmitype/StillImage"/>
    <dc:date>2021-05-05T23:40:17.089595</dc:date>
    <dc:format>image/svg+xml</dc:format>
    <dc:creator>
     <cc:Agent>
      <dc:title>Matplotlib v3.3.4, https://matplotlib.org/</dc:title>
     </cc:Agent>
    </dc:creator>
   </cc:Work>
  </rdf:RDF>
 </metadata>
 <defs>
  <style type="text/css">*{stroke-linecap:butt;stroke-linejoin:round;}</style>
 </defs>
 <g id="figure_1">
  <g id="patch_1">
   <path d="M 0 288 
L 720 288 
L 720 0 
L 0 0 
z
" style="fill:#ffffff;"/>
  </g>
  <g id="axes_1">
   <g id="line2d_1">
    <path clip-path="url(#p93d6d9140e)" d="M 149.880602 228.459359 
L 136.076839 227.21164 
L 119.382927 225.65041 
L 111.792574 225.188235 
L 103.94807 224.939081 
L 93.513444 224.8531 
L 75.872149 224.938849 
L 66.807373 225.175945 
L 59.679488 225.571092 
L 53.827183 226.098714 
L 49.633602 226.662136 
L 46.67411 227.269067 
L 45.192268 227.791687 
L 44.641975 228.193931 
L 44.53971 228.610178 
L 44.799731 228.99104 
L 45.15127 229.256023 
L 46.006752 229.698354 
L 47.724737 230.328279 
L 50.831608 231.172098 
L 54.313189 231.91568 
L 60.212579 232.90622 
L 66.16946 233.671039 
L 73.605848 234.377896 
L 81.989835 234.921745 
L 90.64622 235.248882 
L 98.51801 235.307341 
L 104.720294 235.126341 
L 110.863734 234.693517 
L 116.579618 234.063907 
L 124.139024 232.976879 
L 133.48126 231.39055 
L 149.90063 228.385963 
L 149.90063 228.385963 
" style="fill:none;stroke:#000000;stroke-linecap:square;stroke-opacity:0.7;stroke-width:1.2;"/>
   </g>
   <g id="line2d_2">
    <path clip-path="url(#p93d6d9140e)" d="M 150.022215 188.662517 
L 141.067153 186.399239 
L 132.917448 184.574295 
L 120.229988 182.012826 
L 107.832894 179.725122 
L 99.451698 178.394794 
L 92.089133 177.461934 
L 86.434041 176.957653 
L 82.063244 176.739326 
L 77.200284 176.723953 
L 72.926392 176.953841 
L 68.802631 177.431285 
L 64.978321 178.130019 
L 61.669191 178.957289 
L 58.559879 179.945081 
L 55.185757 181.280578 
L 52.244461 182.712388 
L 49.326009 184.459169 
L 47.090188 186.149412 
L 45.953686 187.264531 
L 45.208187 188.370815 
L 45.084663 189.025968 
L 45.220564 189.391699 
L 45.630305 189.735683 
L 46.536302 190.020962 
L 47.906304 190.147687 
L 50.1393 190.09672 
L 53.601598 189.777022 
L 59.486598 188.98348 
L 80.807741 185.898306 
L 87.873862 185.186263 
L 94.412169 184.758528 
L 100.573232 184.580006 
L 106.362532 184.620138 
L 112.712054 184.885165 
L 120.031123 185.42605 
L 129.039516 186.333458 
L 149.191698 188.514573 
L 150.020442 188.579874 
L 150.020442 188.579874 
" style="fill:none;stroke:#000000;stroke-linecap:square;stroke-opacity:0.7;stroke-width:1.2;"/>
   </g>
   <g id="line2d_3">
    <path clip-path="url(#p93d6d9140e)" d="M 149.603123 150.137628 
L 139.651519 148.411102 
L 131.030006 147.121253 
L 122.570471 146.07034 
L 115.629235 145.414608 
L 108.289473 144.96899 
L 101.105883 144.75665 
L 90.319992 144.693457 
L 78.47455 144.832711 
L 70.25062 145.133291 
L 63.18808 145.633078 
L 57.523202 146.260158 
L 52.734739 147.005214 
L 48.719157 147.86853 
L 46.311448 148.604596 
L 44.991752 149.243195 
L 44.600307 149.612615 
L 44.509091 149.935461 
L 44.60849 150.184195 
L 44.955257 150.501257 
L 45.762384 150.909431 
L 47.236506 151.397669 
L 49.555113 151.956858 
L 54.238513 152.796902 
L 60.220261 153.599094 
L 66.095354 154.194485 
L 73.294023 154.713984 
L 81.755196 155.074311 
L 89.520874 155.19676 
L 96.901785 155.113983 
L 102.754537 154.864265 
L 109.112253 154.35044 
L 115.024365 153.647886 
L 125.536447 152.120689 
L 135.139955 150.810024 
L 140.607171 150.291057 
L 144.999325 150.081991 
L 149.599909 150.094066 
L 149.599909 150.094066 
" style="fill:none;stroke:#000000;stroke-linecap:square;stroke-opacity:0.7;stroke-width:1.2;"/>
   </g>
   <g id="line2d_4">
    <path clip-path="url(#p93d6d9140e)" d="M 149.834889 110.40271 
L 129.725074 107.199799 
L 113.810459 104.412962 
L 99.291079 101.90567 
L 92.190542 100.872133 
L 85.805447 100.152514 
L 80.29611 99.75465 
L 75.590518 99.623549 
L 70.975554 99.718718 
L 66.386182 100.068745 
L 62.92513 100.526771 
L 59.430228 101.187257 
L 56.338913 101.970338 
L 53.102882 103.046608 
L 50.577428 104.138832 
L 48.595832 105.231343 
L 47.243025 106.16986 
L 45.97472 107.312557 
L 44.93253 108.746745 
L 44.606865 109.606016 
L 44.528152 110.433871 
L 44.711974 111.241432 
L 45.284763 112.12163 
L 46.194887 112.87147 
L 47.47274 113.530347 
L 49.210791 114.11765 
L 52.027954 114.716607 
L 54.965509 115.102885 
L 59.348829 115.442226 
L 65.714816 115.663907 
L 73.571487 115.700087 
L 84.021236 115.530037 
L 99.144223 115.066076 
L 111.637123 114.487291 
L 122.615495 113.746182 
L 131.425994 112.956194 
L 138.856755 112.09112 
L 146.395231 110.965087 
L 149.834238 110.37338 
L 149.834238 110.37338 
" style="fill:none;stroke:#000000;stroke-linecap:square;stroke-opacity:0.7;stroke-width:1.2;"/>
   </g>
   <g id="line2d_5">
    <path clip-path="url(#p93d6d9140e)" d="M 149.720935 71.148318 
L 131.449712 67.601068 
L 115.703978 64.743732 
L 105.676209 63.13652 
L 96.103197 61.842122 
L 87.974282 60.970393 
L 81.786109 60.50274 
L 75.984896 60.292957 
L 71.296368 60.349509 
L 67.204263 60.616537 
L 63.023386 61.155807 
L 59.70888 61.822795 
L 56.742346 62.644864 
L 53.959635 63.6605 
L 52.035041 64.540832 
L 49.569633 65.965307 
L 47.909513 67.219728 
L 46.874346 68.234495 
L 46.109091 69.267142 
L 45.716179 70.147916 
L 45.616897 71.015566 
L 45.772344 71.642107 
L 46.227847 72.321416 
L 46.601772 72.661659 
L 47.730476 73.330071 
L 49.537477 73.965346 
L 51.207653 74.346017 
L 54.74628 74.839622 
L 59.532778 75.162085 
L 65.380342 75.289918 
L 74.671311 75.230951 
L 102.723508 74.709875 
L 114.5129 74.281072 
L 125.613815 73.638157 
L 134.928724 72.877875 
L 142.372717 72.069509 
L 149.736453 71.099633 
L 149.736453 71.099633 
" style="fill:none;stroke:#000000;stroke-linecap:square;stroke-opacity:0.7;stroke-width:1.2;"/>
   </g>
   <g id="line2d_6">
    <path clip-path="url(#p93d6d9140e)" d="M 281.371465 228.168038 
L 276.338188 225.798865 
L 271.776683 223.853678 
L 267.130173 222.0999 
L 260.950078 220.047236 
L 253.994076 217.97693 
L 245.823461 215.766751 
L 238.516889 214.004178 
L 232.391723 212.734942 
L 226.308361 211.721111 
L 221.621794 211.148634 
L 216.919322 210.796887 
L 212.2891 210.711926 
L 208.732403 210.853488 
L 205.193005 211.198989 
L 201.940143 211.718322 
L 198.587945 212.479108 
L 195.559929 213.385382 
L 192.446514 214.560651 
L 189.483498 215.940265 
L 186.689609 217.514391 
L 183.883623 219.423682 
L 182.129657 220.832625 
L 180.57071 222.277324 
L 178.897849 224.147656 
L 177.642017 226.048937 
L 177.105687 227.444645 
L 177.020858 228.303883 
L 177.153303 228.977795 
L 177.544314 229.640349 
L 178.34386 230.28837 
L 179.572136 230.813569 
L 181.278625 231.206831 
L 183.211436 231.439819 
L 186.490262 231.584561 
L 191.084326 231.523555 
L 198.065742 231.156872 
L 210.64626 230.19894 
L 225.681402 229.103799 
L 237.351453 228.488432 
L 249.800293 228.076367 
L 262.323814 227.888109 
L 273.29443 227.940984 
L 281.379026 228.092005 
L 281.379026 228.092005 
" style="fill:none;stroke:#000000;stroke-linecap:square;stroke-opacity:0.7;stroke-width:1.2;"/>
   </g>
   <g id="line2d_7">
    <path clip-path="url(#p93d6d9140e)" d="M 281.125434 189.342255 
L 263.401376 187.028929 
L 218.852115 181.543123 
L 213.050906 181.097823 
L 207.236278 180.887823 
L 202.272142 180.958483 
L 197.764593 181.263875 
L 192.97003 181.879648 
L 189.693466 182.497152 
L 186.298585 183.333275 
L 183.467941 184.213706 
L 180.434381 185.400944 
L 178.098181 186.581013 
L 176.547189 187.65273 
L 175.949791 188.363515 
L 175.916553 188.749421 
L 176.090154 188.95979 
L 176.720089 189.195954 
L 178.098634 189.321501 
L 180.931258 189.244865 
L 186.840672 188.783932 
L 200.312961 187.71064 
L 207.339412 187.373083 
L 213.651246 187.256033 
L 220.983189 187.331951 
L 230.639233 187.668861 
L 269.508858 189.264745 
L 277.96994 189.346552 
L 281.115247 189.31475 
L 281.115247 189.31475 
" style="fill:none;stroke:#000000;stroke-linecap:square;stroke-opacity:0.7;stroke-width:1.2;"/>
   </g>
   <g id="line2d_8">
    <path clip-path="url(#p93d6d9140e)" d="M 281.057525 149.995963 
L 271.925882 148.36972 
L 263.087392 147.024803 
L 251.740766 145.529561 
L 240.055987 144.209482 
L 228.929409 143.172875 
L 218.881251 142.460522 
L 211.975332 142.181713 
L 205.609923 142.180602 
L 200.711577 142.4114 
L 196.078176 142.86092 
L 191.60179 143.548726 
L 188.262844 144.253144 
L 184.658481 145.23709 
L 181.853837 146.208014 
L 179.368928 147.284655 
L 177.384112 148.418377 
L 176.545809 149.146714 
L 176.36904 149.546701 
L 176.467502 149.759397 
L 176.926812 149.959418 
L 177.997822 150.050058 
L 180.208932 149.941473 
L 185.791431 149.318707 
L 200.329514 147.58748 
L 207.39477 146.98078 
L 213.673896 146.65103 
L 219.607728 146.536968 
L 226.82639 146.631755 
L 235.372747 146.983881 
L 248.650844 147.786983 
L 281.05215 149.971237 
L 281.05215 149.971237 
" style="fill:none;stroke:#000000;stroke-linecap:square;stroke-opacity:0.7;stroke-width:1.2;"/>
   </g>
   <g id="line2d_9">
    <path clip-path="url(#p93d6d9140e)" d="M 281.33171 110.039039 
L 273.405584 107.348609 
L 265.975324 105.07146 
L 258.783189 103.12772 
L 251.962804 101.518968 
L 245.397402 100.198106 
L 239.046646 99.144347 
L 232.393928 98.280789 
L 226.280076 97.714194 
L 220.182286 97.402991 
L 215.030194 97.388486 
L 210.164096 97.625135 
L 205.978648 98.039636 
L 201.768271 98.658662 
L 197.189619 99.567439 
L 192.081574 100.893608 
L 188.214523 102.15575 
L 185.628605 103.1584 
L 182.501593 104.608111 
L 180.316719 105.857344 
L 179.47816 106.41951 
L 177.475158 108.133305 
L 176.858361 108.909375 
L 176.488681 109.581692 
L 176.300188 110.202327 
L 176.348916 111.166923 
L 176.602421 111.725948 
L 176.898889 112.121886 
L 177.618431 112.766493 
L 179.603837 113.845107 
L 181.979979 114.684765 
L 184.775881 115.413784 
L 189.061083 116.250793 
L 194.083158 116.973742 
L 200.5261 117.62418 
L 207.28917 118.043677 
L 213.93989 118.230062 
L 220.156692 118.215051 
L 227.270337 117.964784 
L 233.337884 117.527859 
L 238.837908 116.929087 
L 244.882185 116.043271 
L 251.540203 114.839692 
L 271.380733 111.026084 
L 276.629764 110.352904 
L 281.324361 110.014696 
L 281.324361 110.014696 
" style="fill:none;stroke:#000000;stroke-linecap:square;stroke-opacity:0.7;stroke-width:1.2;"/>
   </g>
   <g id="line2d_10">
    <path clip-path="url(#p93d6d9140e)" d="M 280.756985 71.655905 
L 270.729448 69.882878 
L 261.0505 68.410352 
L 251.288716 67.131797 
L 241.848269 66.091894 
L 230.778722 65.111562 
L 219.91878 64.367279 
L 211.804765 64.01574 
L 205.980824 63.959665 
L 200.111763 64.15732 
L 195.585091 64.536738 
L 191.268293 65.122363 
L 187.824085 65.774053 
L 184.680398 66.539792 
L 181.779854 67.428047 
L 179.288004 68.38818 
L 177.30651 69.393019 
L 176.513038 69.95745 
L 176.088235 70.445198 
L 176.020401 70.856315 
L 176.214505 71.129165 
L 176.708811 71.390951 
L 177.454229 71.591909 
L 179.589206 71.851134 
L 182.881858 71.97577 
L 189.740759 71.936016 
L 210.221079 71.641329 
L 220.43145 71.775103 
L 246.734258 72.26854 
L 259.870342 72.154887 
L 274.458232 71.807644 
L 280.745013 71.584943 
L 280.745013 71.584943 
" style="fill:none;stroke:#000000;stroke-linecap:square;stroke-opacity:0.7;stroke-width:1.2;"/>
   </g>
   <g id="line2d_11">
    <path clip-path="url(#p93d6d9140e)" d="M 412.606862 228.463467 
L 406.090381 226.414581 
L 400.594561 224.896315 
L 394.717994 223.514755 
L 388.781312 222.343797 
L 382.182953 221.277004 
L 375.501317 220.436744 
L 368.139398 219.770543 
L 360.736194 219.334856 
L 353.520852 219.104297 
L 346.264109 219.081826 
L 340.235152 219.279744 
L 335.51362 219.61779 
L 331.057909 220.117688 
L 326.380295 220.866547 
L 322.764249 221.631701 
L 318.963147 222.649542 
L 315.58392 223.788455 
L 312.975183 224.874871 
L 311.145343 225.798536 
L 309.233726 227.034634 
L 308.292926 227.950261 
L 308.00089 228.549065 
L 308.060964 229.036958 
L 308.230569 229.272756 
L 308.7564 229.6377 
L 309.928703 230.047909 
L 312.445308 230.487452 
L 315.526723 230.768067 
L 320.734146 230.994179 
L 328.436092 231.049601 
L 336.841116 230.88176 
L 347.699283 230.431423 
L 361.270399 229.622839 
L 376.575453 228.457867 
L 389.902921 227.496176 
L 395.851807 227.270562 
L 400.377823 227.284642 
L 405.046955 227.533073 
L 410.00312 228.072289 
L 412.592817 228.451849 
L 412.592817 228.451849 
" style="fill:none;stroke:#000000;stroke-linecap:square;stroke-opacity:0.7;stroke-width:1.2;"/>
   </g>
   <g id="line2d_12">
    <path clip-path="url(#p93d6d9140e)" d="M 412.301335 189.647284 
L 404.82783 186.953847 
L 397.509043 184.571781 
L 389.363517 182.170715 
L 377.427814 178.893494 
L 367.484335 176.366404 
L 360.435993 174.798323 
L 354.263888 173.670391 
L 349.528041 173.011683 
L 344.651519 172.566798 
L 340.234113 172.408439 
L 335.837211 172.524186 
L 332.21361 172.858639 
L 328.81182 173.400594 
L 325.58777 174.150022 
L 322.436994 175.141892 
L 319.082662 176.536763 
L 316.249833 178.052566 
L 314.261643 179.350931 
L 312.499974 180.710602 
L 310.762043 182.315288 
L 309.297748 183.984805 
L 308.187144 185.640469 
L 307.574994 186.970051 
L 307.310153 188.05677 
L 307.290176 188.796358 
L 307.456719 189.567618 
L 307.921634 190.37681 
L 308.605408 191.017816 
L 309.438295 191.518183 
L 311.373509 192.219378 
L 313.30471 192.627593 
L 316.334063 192.99306 
L 319.743485 193.187589 
L 324.775315 193.245647 
L 332.208952 193.061456 
L 343.324523 192.51829 
L 366.026998 191.363039 
L 391.175389 190.418893 
L 412.29353 189.601768 
L 412.29353 189.601768 
" style="fill:none;stroke:#000000;stroke-linecap:square;stroke-opacity:0.7;stroke-width:1.2;"/>
   </g>
   <g id="line2d_13">
    <path clip-path="url(#p93d6d9140e)" d="M 412.618815 149.691617 
L 404.485718 147.125873 
L 397.231826 145.078933 
L 389.012753 143.005559 
L 379.487703 140.8484 
L 371.333757 139.225052 
L 364.051524 137.99086 
L 357.795819 137.134658 
L 351.556072 136.529963 
L 347.088887 136.296126 
L 342.591532 136.264518 
L 337.895208 136.477478 
L 333.232451 136.959749 
L 328.729661 137.703841 
L 325.021239 138.544873 
L 321.331015 139.618852 
L 318.239686 140.739145 
L 314.977223 142.207219 
L 312.359103 143.690265 
L 310.594122 144.936727 
L 309.129919 146.255189 
L 308.155569 147.490258 
L 307.728659 148.413424 
L 307.63629 149.228525 
L 307.8632 149.938345 
L 308.326736 150.485177 
L 309.168572 151.023763 
L 310.461065 151.501828 
L 312.254358 151.890435 
L 314.415222 152.1603 
L 317.779368 152.363674 
L 322.676416 152.419385 
L 329.962859 152.249499 
L 342.016447 151.713047 
L 369.556009 150.464906 
L 390.308751 149.720644 
L 401.425378 149.533304 
L 410.647789 149.617567 
L 412.615238 149.660996 
L 412.615238 149.660996 
" style="fill:none;stroke:#000000;stroke-linecap:square;stroke-opacity:0.7;stroke-width:1.2;"/>
   </g>
   <g id="line2d_14">
    <path clip-path="url(#p93d6d9140e)" d="M 412.108478 111.138584 
L 400.018189 109.164638 
L 389.067394 107.588492 
L 379.73599 106.442768 
L 371.369554 105.626796 
L 361.83364 104.93714 
L 350.894792 104.373927 
L 341.343928 104.100572 
L 335.356653 104.111638 
L 329.325367 104.337056 
L 323.670699 104.803318 
L 319.134299 105.411427 
L 315.921478 106.016166 
L 312.424667 106.930009 
L 310.711706 107.543269 
L 309.18547 108.273694 
L 307.964263 109.166643 
L 307.395076 109.989442 
L 307.295591 110.657964 
L 307.463816 111.242707 
L 307.836779 111.795346 
L 308.559406 112.460741 
L 310.079358 113.392532 
L 312.170414 114.305081 
L 315.269768 115.316477 
L 318.705517 116.178003 
L 323.25782 117.05297 
L 327.70986 117.69108 
L 332.685594 118.194893 
L 337.748954 118.506592 
L 344.152424 118.639812 
L 349.951569 118.538611 
L 355.870356 118.248844 
L 363.52287 117.629404 
L 370.820483 116.799324 
L 380.321608 115.444678 
L 400.922064 112.375873 
L 409.731955 111.33941 
L 412.100629 111.098145 
L 412.100629 111.098145 
" style="fill:none;stroke:#000000;stroke-linecap:square;stroke-opacity:0.7;stroke-width:1.2;"/>
   </g>
   <g id="line2d_15">
    <path clip-path="url(#p93d6d9140e)" d="M 412.455577 71.154487 
L 403.903207 69.283631 
L 395.562938 67.695841 
L 387.449731 66.383788 
L 379.902516 65.37418 
L 372.603557 64.619709 
L 366.000642 64.131342 
L 358.517292 63.778422 
L 351.063399 63.621285 
L 344.150516 63.679182 
L 338.349182 63.925482 
L 332.557634 64.383705 
L 326.493891 65.114564 
L 320.93628 66.043474 
L 316.250096 67.076791 
L 313.025373 67.989713 
L 310.484874 68.925852 
L 309.215236 69.556674 
L 308.302567 70.23502 
L 308.01161 70.6759 
L 308.00736 71.09039 
L 308.259848 71.44653 
L 308.907734 71.850913 
L 310.424079 72.352607 
L 313.093403 72.852619 
L 317.369823 73.31966 
L 323.280144 73.687045 
L 331.277593 73.931211 
L 340.834838 73.993764 
L 351.912367 73.831463 
L 361.652962 73.479681 
L 371.604597 72.883528 
L 387.248192 71.629441 
L 395.486472 71.076251 
L 401.504231 70.882693 
L 407.288494 70.93963 
L 412.439214 71.180396 
L 412.439214 71.180396 
" style="fill:none;stroke:#000000;stroke-linecap:square;stroke-opacity:0.7;stroke-width:1.2;"/>
   </g>
   <g id="line2d_16">
    <path clip-path="url(#p93d6d9140e)" d="M 543.463417 229.322147 
L 536.51477 227.279976 
L 529.776051 225.5242 
L 522.68529 223.907304 
L 514.274212 222.247705 
L 507.322815 221.094504 
L 500.10165 220.132293 
L 493.214214 219.437697 
L 486.184252 218.937826 
L 478.96787 218.652782 
L 472.992362 218.636842 
L 467.763034 218.844523 
L 462.935569 219.275365 
L 458.318083 219.955145 
L 455.168918 220.598331 
L 451.590662 221.538628 
L 448.429227 222.590205 
L 445.663533 223.721775 
L 442.796877 225.18177 
L 441.036171 226.314852 
L 439.82302 227.325611 
L 439.133857 228.168077 
L 438.877332 228.829532 
L 438.904034 229.280702 
L 439.114834 229.679898 
L 439.606811 230.107421 
L 440.764026 230.631943 
L 442.303479 231.033339 
L 444.497581 231.388577 
L 448.153563 231.728375 
L 452.902811 231.935012 
L 459.316378 231.981594 
L 467.057782 231.821397 
L 478.155665 231.354703 
L 494.914357 230.402587 
L 522.402648 228.771883 
L 529.678986 228.655188 
L 535.532361 228.777512 
L 542.246974 229.16762 
L 543.442481 229.262799 
L 543.442481 229.262799 
" style="fill:none;stroke:#000000;stroke-linecap:square;stroke-opacity:0.7;stroke-width:1.2;"/>
   </g>
   <g id="line2d_17">
    <path clip-path="url(#p93d6d9140e)" d="M 543.900107 189.336579 
L 529.101731 186.880288 
L 512.284925 184.327776 
L 499.138906 182.528485 
L 488.40882 181.257345 
L 480.29074 180.51402 
L 474.151199 180.194039 
L 469.807315 180.151727 
L 464.937422 180.324801 
L 460.383017 180.723354 
L 456.192662 181.314092 
L 452.391898 182.060214 
L 449.269493 182.850276 
L 445.82492 183.961259 
L 442.789767 185.255939 
L 440.982605 186.300055 
L 439.978703 187.107474 
L 439.496088 187.684496 
L 439.223501 188.357559 
L 439.302383 188.968712 
L 439.52498 189.329996 
L 440.141514 189.862965 
L 441.359853 190.470314 
L 443.451934 191.115255 
L 446.910549 191.784785 
L 451.298075 192.318125 
L 456.367015 192.696877 
L 463.302089 192.962923 
L 472.602545 193.047114 
L 485.621844 192.921047 
L 497.916505 192.599592 
L 507.791329 192.091715 
L 518.858352 191.266436 
L 543.420417 189.331625 
L 543.905106 189.302316 
L 543.905106 189.302316 
" style="fill:none;stroke:#000000;stroke-linecap:square;stroke-opacity:0.7;stroke-width:1.2;"/>
   </g>
   <g id="line2d_18">
    <path clip-path="url(#p93d6d9140e)" d="M 543.892094 149.882082 
L 528.030195 147.145429 
L 516.096772 145.287726 
L 507.435961 144.133135 
L 498.841285 143.220726 
L 490.518034 142.54822 
L 480.924671 141.998477 
L 473.867198 141.794652 
L 468.307378 141.826146 
L 462.993702 142.083805 
L 458.282079 142.552689 
L 454.211711 143.180382 
L 450.61876 143.940771 
L 447.454133 144.807183 
L 444.361834 145.889346 
L 441.870838 147.023984 
L 440.544943 147.813348 
L 439.53603 148.651321 
L 439.121661 149.254294 
L 439.04084 149.790745 
L 439.178314 150.142661 
L 439.613391 150.572513 
L 440.411287 150.991603 
L 442.236394 151.531939 
L 444.561392 151.939475 
L 447.74375 152.287401 
L 452.814689 152.596267 
L 460.036736 152.76431 
L 471.031721 152.734146 
L 500.586827 152.32919 
L 511.468091 151.957579 
L 524.782104 151.274852 
L 536.783767 150.461207 
L 543.877529 149.878371 
L 543.877529 149.878371 
" style="fill:none;stroke:#000000;stroke-linecap:square;stroke-opacity:0.7;stroke-width:1.2;"/>
   </g>
   <g id="line2d_19">
    <path clip-path="url(#p93d6d9140e)" d="M 543.629399 110.895924 
L 533.912037 108.683877 
L 525.477134 106.980126 
L 516.961324 105.4875 
L 509.987437 104.474792 
L 502.654422 103.664684 
L 495.429104 103.123687 
L 487.033167 102.751653 
L 478.805835 102.596169 
L 471.750115 102.64626 
L 465.613826 102.890665 
L 459.864964 103.360255 
L 455.193148 103.967488 
L 451.009964 104.731992 
L 447.878833 105.481349 
L 444.553308 106.511657 
L 442.460875 107.354812 
L 440.969058 108.128768 
L 439.832676 108.943993 
L 439.269799 109.585942 
L 439.030976 110.195169 
L 439.057392 110.658047 
L 439.272995 111.118983 
L 439.695109 111.588959 
L 440.658895 112.258638 
L 442.381603 113.060554 
L 444.688208 113.848037 
L 448.090719 114.74029 
L 452.772896 115.679307 
L 457.889397 116.451448 
L 463.941311 117.101521 
L 469.716086 117.503089 
L 476.099835 117.744683 
L 483.237089 117.805684 
L 490.989561 117.629463 
L 496.94214 117.289059 
L 502.940472 116.728644 
L 510.235892 115.777877 
L 520.828419 114.120138 
L 534.852491 111.955236 
L 542.307089 111.028736 
L 543.635294 110.886279 
L 543.635294 110.886279 
" style="fill:none;stroke:#000000;stroke-linecap:square;stroke-opacity:0.7;stroke-width:1.2;"/>
   </g>
   <g id="line2d_20">
    <path clip-path="url(#p93d6d9140e)" d="M 543.903966 71.022089 
L 537.288359 68.343263 
L 531.299681 66.138327 
L 525.425965 64.182984 
L 515.687835 61.212094 
L 503.881534 57.864564 
L 496.002569 55.865809 
L 490.516327 54.674469 
L 485.829426 53.83462 
L 480.967011 53.176508 
L 476.108217 52.77884 
L 472.206341 52.681813 
L 468.910475 52.778794 
L 465.42599 53.08512 
L 462.074696 53.605144 
L 458.375214 54.475712 
L 456.416039 55.080463 
L 453.801212 56.064508 
L 451.557309 57.091039 
L 448.769039 58.640108 
L 446.295629 60.318753 
L 444.469751 61.786203 
L 442.250094 63.918965 
L 440.782326 65.641398 
L 439.513754 67.515536 
L 438.7817 69.047129 
L 438.474801 70.281906 
L 438.489448 71.142478 
L 438.795422 71.98547 
L 438.982662 72.254523 
L 439.829084 72.978981 
L 440.900408 73.482723 
L 442.273471 73.874325 
L 444.481942 74.232217 
L 447.689467 74.465047 
L 451.263993 74.517995 
L 455.848499 74.405188 
L 463.604083 73.941426 
L 473.69108 73.052636 
L 494.771535 71.092358 
L 503.352197 70.591405 
L 511.922084 70.33687 
L 520.559829 70.280143 
L 529.677665 70.420446 
L 540.535662 70.820012 
L 543.897388 70.9656 
L 543.897388 70.9656 
" style="fill:none;stroke:#000000;stroke-linecap:square;stroke-opacity:0.7;stroke-width:1.2;"/>
   </g>
   <g id="line2d_21">
    <path clip-path="url(#p93d6d9140e)" d="M 675.201445 228.854815 
L 666.208701 226.416665 
L 657.785577 224.371417 
L 646.593142 221.897405 
L 635.663108 219.677406 
L 627.40458 218.21342 
L 620.55004 217.206024 
L 614.23878 216.488527 
L 608.355335 216.046464 
L 603.553245 215.891497 
L 598.55469 215.979538 
L 594.092948 216.325111 
L 590.035986 216.907916 
L 586.027032 217.791333 
L 583.244814 218.62278 
L 580.472931 219.668984 
L 577.914532 220.873669 
L 576.079747 221.917906 
L 574.325953 223.10544 
L 572.852551 224.315088 
L 571.767922 225.431037 
L 571.097203 226.360841 
L 570.732001 227.232982 
L 570.6968 227.753952 
L 570.87737 228.265825 
L 571.334972 228.715388 
L 572.220239 229.11724 
L 573.784415 229.436391 
L 576.379125 229.611719 
L 580.49417 229.576955 
L 588.075958 229.214069 
L 601.694275 228.552995 
L 608.9663 228.397162 
L 617.631694 228.431497 
L 631.318165 228.766675 
L 651.400108 229.231522 
L 661.296821 229.279182 
L 669.623357 229.081794 
L 675.210554 228.805663 
L 675.210554 228.805663 
" style="fill:none;stroke:#000000;stroke-linecap:square;stroke-opacity:0.7;stroke-width:1.2;"/>
   </g>
   <g id="line2d_22">
    <path clip-path="url(#p93d6d9140e)" d="M 675.362096 189.139854 
L 653.359789 186.367329 
L 638.891416 184.75636 
L 625.628968 183.528878 
L 613.390673 182.597658 
L 606.399849 182.255509 
L 600.973243 182.184395 
L 596.022716 182.317603 
L 590.903578 182.686204 
L 586.584934 183.203527 
L 582.163991 183.963044 
L 578.184502 184.900058 
L 574.965172 185.914211 
L 573.017912 186.717023 
L 571.30805 187.700874 
L 570.73153 188.243391 
L 570.52143 188.659565 
L 570.597843 189.09711 
L 570.978387 189.451346 
L 571.666218 189.762277 
L 573.147747 190.121849 
L 575.706931 190.439169 
L 580.092596 190.674525 
L 586.364711 190.747563 
L 597.524182 190.60775 
L 619.152834 190.315952 
L 646.784639 190.015354 
L 664.407999 189.572464 
L 675.367151 189.106489 
L 675.367151 189.106489 
" style="fill:none;stroke:#000000;stroke-linecap:square;stroke-opacity:0.7;stroke-width:1.2;"/>
   </g>
   <g id="line2d_23">
    <path clip-path="url(#p93d6d9140e)" d="M 674.984093 150.412511 
L 650.951078 148.46143 
L 633.183487 146.780932 
L 615.270711 145.122384 
L 607.8044 144.621501 
L 600.525215 144.370083 
L 594.562746 144.408872 
L 588.808873 144.706982 
L 584.395326 145.143685 
L 580.409146 145.732424 
L 577.208274 146.386519 
L 574.244391 147.22439 
L 572.73503 147.81598 
L 571.417757 148.584242 
L 570.976439 149.049883 
L 570.825347 149.554979 
L 570.948749 149.923039 
L 571.265919 150.273432 
L 572.052472 150.755774 
L 573.258668 151.227115 
L 574.795527 151.658285 
L 578.157948 152.323433 
L 583.00858 152.96761 
L 588.369154 153.447438 
L 595.859538 153.864667 
L 604.598723 154.105042 
L 616.01235 154.175243 
L 627.818335 154.038784 
L 638.803385 153.674414 
L 649.889703 153.07583 
L 659.335988 152.372436 
L 666.755924 151.589941 
L 672.378065 150.790905 
L 674.989863 150.355874 
L 674.989863 150.355874 
" style="fill:none;stroke:#000000;stroke-linecap:square;stroke-opacity:0.7;stroke-width:1.2;"/>
   </g>
   <g id="line2d_24">
    <path clip-path="url(#p93d6d9140e)" d="M 675.490909 110.041835 
L 666.436559 107.435012 
L 658.21124 105.288442 
L 645.561543 102.26017 
L 634.287987 99.774885 
L 625.765556 98.122444 
L 619.921963 97.17261 
L 613.677267 96.397349 
L 608.693309 96.015017 
L 604.109661 95.893945 
L 599.645014 96.023139 
L 595.033893 96.445625 
L 591.55142 96.981649 
L 588.182573 97.69941 
L 584.864847 98.624563 
L 581.646517 99.767374 
L 578.666145 101.095458 
L 575.887045 102.650442 
L 574.019554 103.946602 
L 572.508467 105.235246 
L 571.21271 106.668922 
L 570.513435 107.76115 
L 570.137056 108.723919 
L 570.036652 109.386359 
L 570.10208 110.065414 
L 570.437415 110.820284 
L 571.183936 111.584197 
L 572.397712 112.258501 
L 574.237877 112.841546 
L 576.254019 113.21698 
L 579.272195 113.526761 
L 582.579005 113.676986 
L 587.755545 113.698426 
L 596.219705 113.449886 
L 611.238602 112.702527 
L 628.931449 111.901672 
L 650.235774 111.224782 
L 665.081185 110.661949 
L 674.644606 110.063713 
L 675.485164 110.001369 
L 675.485164 110.001369 
" style="fill:none;stroke:#000000;stroke-linecap:square;stroke-opacity:0.7;stroke-width:1.2;"/>
   </g>
   <g id="line2d_25">
    <path clip-path="url(#p93d6d9140e)" d="M 675.207365 71.128811 
L 667.69594 69.077852 
L 660.552087 67.367478 
L 652.88823 65.767976 
L 645.601668 64.439806 
L 638.636507 63.380078 
L 631.477318 62.554657 
L 625.391738 62.069819 
L 618.38379 61.736352 
L 611.196848 61.632638 
L 604.393277 61.786567 
L 598.473021 62.174527 
L 593.986784 62.664485 
L 588.934029 63.457586 
L 584.545674 64.388763 
L 580.246698 65.564828 
L 576.938887 66.698403 
L 573.992999 67.95762 
L 571.862652 69.15643 
L 570.989457 69.844209 
L 570.487272 70.477349 
L 570.365243 70.951942 
L 570.468845 71.321947 
L 570.901319 71.775698 
L 571.755955 72.227487 
L 573.119962 72.672957 
L 576.023258 73.278526 
L 580.8272 73.916637 
L 586.882523 74.438301 
L 593.662951 74.801069 
L 601.412006 75.002479 
L 609.818877 75.005776 
L 618.649442 74.785652 
L 626.423193 74.382579 
L 633.802841 73.781018 
L 642.257464 72.83713 
L 657.956 70.963608 
L 663.436791 70.576452 
L 667.676983 70.513208 
L 671.917701 70.719245 
L 675.216631 71.074295 
L 675.216631 71.074295 
" style="fill:none;stroke:#000000;stroke-linecap:square;stroke-opacity:0.7;stroke-width:1.2;"/>
   </g>
  </g>
 </g>
 <defs>
  <clipPath id="p93d6d9140e">
   <rect height="262.08" width="694.08" x="12.96" y="12.96"/>
  </clipPath>
 </defs>
</svg>
