<?xml version="1.0" encoding="utf-8" standalone="no"?>
<!DOCTYPE svg PUBLIC "-//W3C//DTD SVG 1.1//EN"
  "http://www.w3.org/Graphics/SVG/1.1/DTD/svg11.dtd">
<!-- Created with matplotlib (https://matplotlib.org/) -->
<svg height="288pt" version="1.1" viewBox="0 0 720 288" width="720pt" xmlns="http://www.w3.org/2000/svg" xmlns:xlink="http://www.w3.org/1999/xlink">
 <metadata>
  <rdf:RDF xmlns:cc="http://creativecommons.org/ns#" xmlns:dc="http://purl.org/dc/elements/1.1/" xmlns:rdf="http://www.w3.org/1999/02/22-rdf-syntax-ns#">
   <cc:Work>
    <dc:type rdf:resource="http://purl.org/dc/dcmitype/StillImage"/>
    <dc:date>2021-05-05T23:11:05.000588</dc:date>
    <dc:format>image/svg+xml</dc:format>
    <dc:creator>
     <cc:Agent>
      <dc:title>Matplotlib v3.3.4, https://matplotlib.org/</dc:title>
     </cc:Agent>
    </dc:creator>
   </cc:Work>
  </rdf:RDF>
 </metadata>
 <defs>
  <style type="text/css">*{stroke-linecap:butt;stroke-linejoin:round;}</style>
 </defs>
 <g id="figure_1">
  <g id="patch_1">
   <path d="M 0 288 
L 720 288 
L 720 0 
L 0 0 
z
" style="fill:#ffffff;"/>
  </g>
  <g id="axes_1">
   <g id="line2d_1">
    <path clip-path="url(#p8db0e02021)" d="M 149.660465 225.137784 
L 130.736271 222.145389 
L 122.538966 221.025173 
L 116.099287 220.323335 
L 109.971059 219.836939 
L 102.17609 219.465291 
L 93.327587 219.290323 
L 81.431102 219.281929 
L 73.278498 219.473588 
L 67.054313 219.838096 
L 61.608303 220.380661 
L 57.146432 221.025734 
L 53.12726 221.810804 
L 50.083709 222.591531 
L 47.667663 223.412719 
L 46.112711 224.170733 
L 45.511699 224.639699 
L 45.244646 225.168843 
L 45.34877 225.482822 
L 45.688234 225.782261 
L 46.663877 226.186493 
L 48.410811 226.559697 
L 51.514323 226.902783 
L 56.157394 227.133012 
L 63.036242 227.217715 
L 75.830777 227.096755 
L 94.652655 226.716333 
L 106.239503 226.257956 
L 120.275551 225.443614 
L 132.216366 224.807932 
L 140.1169 224.629535 
L 147.16074 224.684008 
L 149.673817 224.749191 
L 149.673817 224.749191 
" style="fill:none;stroke:#000000;stroke-linecap:square;stroke-opacity:0.7;stroke-width:1.2;"/>
   </g>
   <g id="line2d_2">
    <path clip-path="url(#p8db0e02021)" d="M 149.971572 184.328982 
L 116.037949 181.17805 
L 102.084453 179.847751 
L 93.252387 179.246269 
L 85.809468 178.976028 
L 79.60885 178.977666 
L 74.377131 179.177952 
L 69.789098 179.522581 
L 64.911506 180.077031 
L 60.192253 180.816525 
L 55.634306 181.752787 
L 51.581199 182.827097 
L 48.941316 183.719278 
L 46.775086 184.703342 
L 45.839397 185.401988 
L 45.641168 185.827238 
L 45.785993 186.151095 
L 46.259348 186.441697 
L 47.363386 186.745715 
L 49.526064 187.017795 
L 53.595058 187.208498 
L 60.851469 187.233415 
L 79.364855 186.936805 
L 98.261686 186.522359 
L 107.966102 186.059872 
L 117.337778 185.377867 
L 134.525957 184.04266 
L 141.379844 183.804209 
L 147.545358 183.822777 
L 149.98721 183.887173 
L 149.98721 183.887173 
" style="fill:none;stroke:#000000;stroke-linecap:square;stroke-opacity:0.7;stroke-width:1.2;"/>
   </g>
   <g id="line2d_3">
    <path clip-path="url(#p8db0e02021)" d="M 149.912928 145.469248 
L 142.771918 143.808219 
L 135.020067 142.228503 
L 125.685802 140.582891 
L 116.553419 139.210064 
L 108.16071 138.14926 
L 99.43617 137.254423 
L 91.352798 136.631357 
L 84.769523 136.307843 
L 78.188902 136.212971 
L 72.694552 136.366119 
L 68.706926 136.642598 
L 64.101751 137.173399 
L 59.651983 137.954045 
L 56.266736 138.776284 
L 53.222646 139.744073 
L 50.49789 140.876657 
L 48.90267 141.722021 
L 47.403005 142.732462 
L 46.626616 143.40682 
L 45.648134 144.641671 
L 45.29073 145.559318 
L 45.246013 146.382 
L 45.363717 146.920066 
L 45.771384 147.728631 
L 46.301745 148.367036 
L 47.050977 149.020356 
L 47.864293 149.574131 
L 49.829356 150.585367 
L 51.717135 151.320072 
L 55.001466 152.295251 
L 58.201765 153.011303 
L 61.759343 153.620917 
L 66.172756 154.168207 
L 71.435288 154.569807 
L 76.357254 154.726597 
L 82.050545 154.675548 
L 87.802235 154.412976 
L 94.919465 153.853765 
L 102.244288 153.049459 
L 110.337989 151.908256 
L 118.080968 150.587443 
L 144.04619 145.898706 
L 149.916587 145.108181 
L 149.916587 145.108181 
" style="fill:none;stroke:#000000;stroke-linecap:square;stroke-opacity:0.7;stroke-width:1.2;"/>
   </g>
   <g id="line2d_4">
    <path clip-path="url(#p8db0e02021)" d="M 149.911499 106.045046 
L 142.693225 103.809072 
L 135.799859 101.894424 
L 128.408461 100.05489 
L 121.784687 98.585829 
L 114.247475 97.152091 
L 107.70396 96.150448 
L 101.218418 95.403145 
L 94.714613 94.904451 
L 88.650924 94.671332 
L 82.647173 94.686378 
L 77.962247 94.90015 
L 73.528818 95.296397 
L 69.292135 95.878105 
L 64.770478 96.747648 
L 60.706792 97.777761 
L 57.515093 98.776664 
L 54.240185 100.009348 
L 51.751556 101.124985 
L 48.897172 102.690141 
L 47.567963 103.600103 
L 46.425047 104.586046 
L 45.629752 105.59647 
L 45.343994 106.351264 
L 45.333288 106.828817 
L 45.474039 107.286063 
L 45.9406 107.889544 
L 46.540595 108.331208 
L 46.954108 108.556999 
L 48.950556 109.279016 
L 50.663085 109.667831 
L 54.17981 110.169244 
L 58.436265 110.492072 
L 64.328238 110.659713 
L 71.713064 110.604073 
L 81.206433 110.283254 
L 92.687493 109.664831 
L 104.650497 108.80188 
L 117.675293 107.622821 
L 133.190885 106.197617 
L 140.006272 105.797305 
L 146.13306 105.642628 
L 149.908467 105.652138 
L 149.908467 105.652138 
" style="fill:none;stroke:#000000;stroke-linecap:square;stroke-opacity:0.7;stroke-width:1.2;"/>
   </g>
   <g id="line2d_5">
    <path clip-path="url(#p8db0e02021)" d="M 149.417501 67.646116 
L 135.547535 66.128928 
L 113.756102 63.703596 
L 104.264914 62.86337 
L 92.858246 62.095666 
L 83.267975 61.665022 
L 75.740509 61.538961 
L 69.196375 61.670063 
L 63.508573 62.024292 
L 58.037965 62.620137 
L 53.776456 63.297256 
L 50.297028 64.039668 
L 47.06541 64.997352 
L 45.480225 65.706198 
L 44.768698 66.234311 
L 44.529021 66.626991 
L 44.541024 66.960941 
L 44.856431 67.370927 
L 45.659567 67.835083 
L 47.106539 68.330971 
L 49.8833 68.949385 
L 53.342455 69.490459 
L 59.519143 70.179348 
L 67.241974 70.76819 
L 75.714188 71.178285 
L 84.375204 71.376468 
L 93.127108 71.337205 
L 101.209108 71.051956 
L 108.091566 70.596553 
L 116.652493 69.779093 
L 134.76201 67.915034 
L 141.844878 67.473947 
L 148.565351 67.287315 
L 149.412107 67.280506 
L 149.412107 67.280506 
" style="fill:none;stroke:#000000;stroke-linecap:square;stroke-opacity:0.7;stroke-width:1.2;"/>
   </g>
   <g id="line2d_6">
    <path clip-path="url(#p8db0e02021)" d="M 280.631013 225.661969 
L 271.207077 223.741169 
L 262.65115 222.214788 
L 253.907482 220.897656 
L 246.095014 219.955057 
L 238.257604 219.242909 
L 229.146633 218.675276 
L 218.835032 218.279952 
L 210.666924 218.135649 
L 203.618369 218.210112 
L 198.153317 218.471709 
L 193.14751 218.926218 
L 188.841722 219.527921 
L 185.583232 220.148267 
L 181.791305 221.112523 
L 178.787818 222.162052 
L 176.93756 223.05299 
L 176.042888 223.639283 
L 175.316544 224.346199 
L 175.036087 224.925095 
L 175.042934 225.388232 
L 175.222753 225.767574 
L 175.551015 226.121476 
L 176.270038 226.594757 
L 177.130566 226.978684 
L 179.359794 227.641704 
L 182.622879 228.262986 
L 186.830093 228.798309 
L 192.531559 229.285534 
L 200.09632 229.698178 
L 209.608963 229.962501 
L 218.545473 229.96256 
L 227.414498 229.710069 
L 235.838138 229.252603 
L 246.201112 228.450986 
L 265.068818 226.677211 
L 277.44832 225.645713 
L 280.690245 225.417665 
L 280.690245 225.417665 
" style="fill:none;stroke:#000000;stroke-linecap:square;stroke-opacity:0.7;stroke-width:1.2;"/>
   </g>
   <g id="line2d_7">
    <path clip-path="url(#p8db0e02021)" d="M 280.967543 185.955261 
L 274.817656 183.295448 
L 269.085918 181.065626 
L 263.034433 178.965359 
L 255.861846 176.748573 
L 247.9612 174.575759 
L 240.593171 172.792507 
L 234.196591 171.474354 
L 228.47812 170.518655 
L 223.048948 169.833989 
L 217.347258 169.374987 
L 212.214009 169.223176 
L 208.559078 169.293905 
L 205.134994 169.520764 
L 201.239468 170.003453 
L 198.229303 170.570196 
L 194.57578 171.527956 
L 191.212826 172.71797 
L 188.341317 174.010023 
L 186.592901 174.9404 
L 183.79644 176.694267 
L 182.093549 177.954944 
L 180.080116 179.697797 
L 178.320571 181.573139 
L 177.149316 183.229404 
L 176.723671 184.082367 
L 176.428212 185.190342 
L 176.475091 185.935842 
L 176.717065 186.486586 
L 177.309106 187.06856 
L 177.71798 187.302402 
L 179.108689 187.743439 
L 180.616617 187.946789 
L 182.886569 188.019284 
L 186.43905 187.870617 
L 192.174528 187.356951 
L 207.611932 185.828073 
L 214.033069 185.420732 
L 220.026267 185.213014 
L 227.376677 185.156427 
L 240.742581 185.347067 
L 257.301574 185.517185 
L 280.936969 185.670838 
L 280.936969 185.670838 
" style="fill:none;stroke:#000000;stroke-linecap:square;stroke-opacity:0.7;stroke-width:1.2;"/>
   </g>
   <g id="line2d_8">
    <path clip-path="url(#p8db0e02021)" d="M 280.873087 146.427816 
L 275.10647 145.037185 
L 268.613059 143.686546 
L 261.776802 142.48082 
L 253.429749 141.250265 
L 244.515738 140.16947 
L 233.411448 139.063267 
L 222.428127 138.167055 
L 214.872845 137.72685 
L 209.028888 137.583641 
L 203.586481 137.69361 
L 199.062142 138.017047 
L 195.218793 138.485859 
L 190.73748 139.287097 
L 187.456233 140.070356 
L 183.910563 141.138127 
L 180.865417 142.290234 
L 178.945337 143.177007 
L 177.286188 144.109084 
L 175.96614 145.078796 
L 175.131894 146.071473 
L 174.96958 146.707491 
L 175.131116 147.202614 
L 175.462361 147.557036 
L 176.265081 148.009475 
L 177.611276 148.428672 
L 179.450378 148.763147 
L 183.209689 149.11171 
L 187.995132 149.267191 
L 194.304237 149.230922 
L 202.775452 148.941192 
L 268.937416 145.99341 
L 276.667319 145.998636 
L 280.885373 146.089078 
L 280.885373 146.089078 
" style="fill:none;stroke:#000000;stroke-linecap:square;stroke-opacity:0.7;stroke-width:1.2;"/>
   </g>
   <g id="line2d_9">
    <path clip-path="url(#p8db0e02021)" d="M 280.821937 106.894366 
L 274.766643 105.009309 
L 268.928049 103.370248 
L 261.806738 101.584705 
L 254.700156 100.020539 
L 247.589696 98.680489 
L 241.039126 97.661226 
L 234.505059 96.859569 
L 228.298304 96.295467 
L 221.029077 95.875275 
L 213.509718 95.733079 
L 207.594962 95.878873 
L 202.211316 96.271329 
L 198.73682 96.688827 
L 195.339737 97.244899 
L 191.193739 98.153353 
L 188.398451 98.930892 
L 184.680483 100.213631 
L 182.181567 101.276635 
L 179.643823 102.594652 
L 177.762419 103.83906 
L 176.490463 104.99276 
L 175.825269 106.01665 
L 175.740334 106.284424 
L 175.784864 107.137899 
L 176.159258 107.714946 
L 176.817205 108.233783 
L 178.57579 108.997108 
L 179.834981 109.346162 
L 183.093067 109.942752 
L 187.425788 110.401584 
L 192.509575 110.692826 
L 200.202328 110.852597 
L 209.37233 110.793256 
L 221.388539 110.467151 
L 231.322687 109.980782 
L 240.111158 109.349385 
L 254.603613 108.018949 
L 265.538789 107.088359 
L 273.333544 106.626525 
L 280.85218 106.399621 
L 280.85218 106.399621 
" style="fill:none;stroke:#000000;stroke-linecap:square;stroke-opacity:0.7;stroke-width:1.2;"/>
   </g>
   <g id="line2d_10">
    <path clip-path="url(#p8db0e02021)" d="M 280.665936 68.638556 
L 270.67483 67.623977 
L 243.900318 64.765299 
L 236.104366 64.225152 
L 227.522052 63.868592 
L 214.12106 63.608833 
L 202.600438 63.544062 
L 195.566436 63.711324 
L 191.131693 63.973374 
L 185.991995 64.513769 
L 182.563503 65.089879 
L 179.8692 65.745664 
L 177.981705 66.405412 
L 176.881665 66.972831 
L 176.312207 67.462714 
L 176.153155 67.803623 
L 176.242242 68.147211 
L 176.531997 68.4077 
L 177.320046 68.742071 
L 178.478053 69.006113 
L 181.171029 69.323579 
L 185.258305 69.539822 
L 193.126838 69.680552 
L 214.26812 69.942587 
L 246.767556 70.66638 
L 255.087235 70.517374 
L 262.69794 70.180935 
L 269.721312 69.662212 
L 276.327555 68.947187 
L 280.653204 68.335853 
L 280.653204 68.335853 
" style="fill:none;stroke:#000000;stroke-linecap:square;stroke-opacity:0.7;stroke-width:1.2;"/>
   </g>
   <g id="line2d_11">
    <path clip-path="url(#p8db0e02021)" d="M 412.682797 224.083762 
L 380.685024 219.74415 
L 363.516425 217.398698 
L 354.977655 216.471199 
L 348.924636 216.03493 
L 343.020416 215.867559 
L 337.980949 215.966677 
L 333.139065 216.294542 
L 328.391465 216.857931 
L 324.806018 217.460468 
L 320.313025 218.469299 
L 317.129036 219.398627 
L 314.373305 220.402352 
L 311.580294 221.725656 
L 310.257379 222.559398 
L 309.236696 223.428484 
L 308.557689 224.422526 
L 308.438585 225.024192 
L 308.597137 225.652481 
L 308.88458 226.059732 
L 309.478632 226.557334 
L 310.490602 227.088795 
L 312.263987 227.677466 
L 314.971355 228.228041 
L 318.734103 228.668294 
L 323.550429 228.94509 
L 330.040106 229.038334 
L 338.520199 228.903767 
L 350.998001 228.470626 
L 362.098363 227.895641 
L 371.573862 227.165427 
L 381.150396 226.162957 
L 397.750953 224.328962 
L 404.467153 223.85773 
L 410.235243 223.666996 
L 412.692176 223.647784 
L 412.692176 223.647784 
" style="fill:none;stroke:#000000;stroke-linecap:square;stroke-opacity:0.7;stroke-width:1.2;"/>
   </g>
   <g id="line2d_12">
    <path clip-path="url(#p8db0e02021)" d="M 412.618671 184.875349 
L 401.349658 182.66142 
L 387.02556 180.109279 
L 374.708141 178.108706 
L 365.562908 176.846835 
L 356.988222 175.905812 
L 349.353816 175.3081 
L 343.492802 175.055866 
L 338.885124 175.031077 
L 333.759648 175.237772 
L 329.91748 175.590372 
L 326.547435 176.063708 
L 323.175149 176.713926 
L 319.774758 177.578304 
L 316.719204 178.57241 
L 313.857854 179.748143 
L 312.013142 180.684151 
L 310.315162 181.742347 
L 309.007659 182.792735 
L 308.004487 183.951768 
L 307.723831 184.449354 
L 307.516531 185.044988 
L 307.499909 185.959499 
L 307.831904 186.762249 
L 308.327007 187.35938 
L 309.215275 188.0501 
L 310.466759 188.71826 
L 312.55446 189.496334 
L 315.634037 190.281293 
L 319.284979 190.919202 
L 323.786494 191.450016 
L 328.992053 191.834847 
L 335.784818 192.082849 
L 342.679055 192.120424 
L 350.571669 191.956517 
L 359.560134 191.524049 
L 367.991183 190.86131 
L 375.366116 190.04738 
L 382.649951 189.022782 
L 393.521258 187.233302 
L 404.058916 185.573046 
L 411.063736 184.687732 
L 412.645881 184.520706 
L 412.645881 184.520706 
" style="fill:none;stroke:#000000;stroke-linecap:square;stroke-opacity:0.7;stroke-width:1.2;"/>
   </g>
   <g id="line2d_13">
    <path clip-path="url(#p8db0e02021)" d="M 412.095771 146.697053 
L 405.206997 144.979269 
L 397.5686 143.321887 
L 390.436587 141.98144 
L 380.796102 140.401331 
L 368.53962 138.636831 
L 356.778975 137.148262 
L 348.424107 136.305523 
L 342.177905 135.910551 
L 336.974505 135.826052 
L 332.293966 136.002456 
L 328.316824 136.377268 
L 324.811212 136.902305 
L 321.520763 137.580298 
L 318.113391 138.496337 
L 314.516019 139.746624 
L 312.169137 140.76617 
L 310.121155 141.84878 
L 308.233514 143.126055 
L 307.043629 144.264679 
L 306.432019 145.271927 
L 306.300046 146.080818 
L 306.463994 146.711677 
L 306.819991 147.248183 
L 307.34968 147.741345 
L 308.348006 148.369257 
L 309.846455 149.026945 
L 312.030408 149.723879 
L 315.762019 150.587637 
L 320.43364 151.379813 
L 325.291959 152.007195 
L 332.230164 152.662003 
L 339.495222 153.087441 
L 346.498388 153.250834 
L 353.859976 153.168596 
L 361.786567 152.814069 
L 369.295598 152.247206 
L 377.120703 151.44025 
L 387.665253 150.089229 
L 403.423715 147.813039 
L 412.09807 146.437193 
L 412.09807 146.437193 
" style="fill:none;stroke:#000000;stroke-linecap:square;stroke-opacity:0.7;stroke-width:1.2;"/>
   </g>
   <g id="line2d_14">
    <path clip-path="url(#p8db0e02021)" d="M 412.176481 107.361661 
L 402.116644 106.628636 
L 387.414895 105.287971 
L 372.752681 104.011976 
L 361.376431 103.263182 
L 348.798878 102.686499 
L 339.952424 102.486873 
L 332.364887 102.55873 
L 325.884772 102.869648 
L 320.869999 103.311178 
L 316.190046 103.931062 
L 312.374736 104.652523 
L 309.716711 105.352639 
L 307.909633 106.028738 
L 306.845709 106.657821 
L 306.443465 107.147408 
L 306.427987 107.56941 
L 306.650334 107.890654 
L 307.251273 108.286439 
L 308.519209 108.748402 
L 310.257667 109.145087 
L 312.344354 109.474414 
L 316.746216 109.928641 
L 322.551727 110.285931 
L 331.084672 110.571365 
L 341.765316 110.708793 
L 353.580942 110.633684 
L 363.408529 110.367021 
L 374.767863 109.823247 
L 391.091022 108.76454 
L 412.12424 107.214275 
L 412.12424 107.214275 
" style="fill:none;stroke:#000000;stroke-linecap:square;stroke-opacity:0.7;stroke-width:1.2;"/>
   </g>
   <g id="line2d_15">
    <path clip-path="url(#p8db0e02021)" d="M 412.70517 66.218345 
L 404.584428 64.779678 
L 396.007938 63.505272 
L 385.609002 62.20516 
L 373.801589 60.932422 
L 362.620429 59.949444 
L 353.485267 59.378458 
L 346.216457 59.142045 
L 340.237694 59.158754 
L 335.268985 59.367642 
L 330.625023 59.758644 
L 326.328682 60.314276 
L 322.075642 61.073016 
L 317.662456 62.121235 
L 314.01538 63.255231 
L 311.115765 64.445087 
L 309.83568 65.135164 
L 308.764436 65.917677 
L 308.171231 66.677214 
L 308.077364 67.240111 
L 308.216804 67.619949 
L 308.541051 67.990781 
L 309.068 68.352115 
L 309.828049 68.707399 
L 311.863021 69.322293 
L 314.974851 69.909404 
L 318.893649 70.399873 
L 324.798526 70.8865 
L 331.817328 71.23843 
L 339.560961 71.417931 
L 347.89756 71.37346 
L 355.229513 71.122059 
L 363.13353 70.620765 
L 370.752355 69.896314 
L 378.103004 68.975047 
L 396.263847 66.504992 
L 402.024399 66.009722 
L 407.313559 65.773546 
L 412.740839 65.755742 
L 412.740839 65.755742 
" style="fill:none;stroke:#000000;stroke-linecap:square;stroke-opacity:0.7;stroke-width:1.2;"/>
   </g>
   <g id="line2d_16">
    <path clip-path="url(#p8db0e02021)" d="M 543.851648 224.403846 
L 537.010955 222.829353 
L 530.198582 221.49507 
L 522.959212 220.312504 
L 515.807244 219.350913 
L 507.384788 218.441515 
L 497.319205 217.60211 
L 486.384099 216.929378 
L 477.480442 216.609537 
L 471.390388 216.603479 
L 466.699785 216.782432 
L 461.639221 217.208566 
L 456.774852 217.889903 
L 452.486411 218.747051 
L 449.548971 219.495318 
L 446.267175 220.519862 
L 443.267118 221.690595 
L 441.672173 222.452968 
L 439.694791 223.674671 
L 438.906002 224.397548 
L 438.550541 224.939337 
L 438.459956 225.478028 
L 438.617357 225.87232 
L 438.971516 226.217902 
L 439.58438 226.550203 
L 440.965294 226.964853 
L 442.864307 227.270072 
L 446.002106 227.510644 
L 450.260786 227.601253 
L 457.010522 227.499372 
L 490.747465 226.426826 
L 501.153143 225.951939 
L 513.087129 225.149078 
L 526.463943 224.244726 
L 533.740893 223.975655 
L 540.620043 223.931681 
L 543.87332 223.98267 
L 543.87332 223.98267 
" style="fill:none;stroke:#000000;stroke-linecap:square;stroke-opacity:0.7;stroke-width:1.2;"/>
   </g>
   <g id="line2d_17">
    <path clip-path="url(#p8db0e02021)" d="M 543.590941 186.212527 
L 538.069136 184.589912 
L 532.362265 183.113945 
L 525.587941 181.616194 
L 518.566355 180.327602 
L 511.622853 179.29953 
L 504.015469 178.430796 
L 496.420109 177.78926 
L 487.559739 177.258938 
L 478.55682 176.945573 
L 471.881855 176.946977 
L 467.419699 177.130069 
L 463.052465 177.499068 
L 458.627279 178.101825 
L 454.366283 178.932078 
L 451.144688 179.744167 
L 447.206909 180.990184 
L 444.480057 182.058686 
L 441.876747 183.315999 
L 440.33378 184.273997 
L 439.423509 185.075015 
L 439.13712 185.558757 
L 439.143607 185.894389 
L 439.308308 186.11196 
L 439.772893 186.344611 
L 440.434615 186.484872 
L 441.765892 186.567826 
L 443.746023 186.506311 
L 447.475077 186.162482 
L 454.983312 185.165433 
L 467.200766 183.506809 
L 472.647878 182.975096 
L 478.41989 182.653535 
L 484.463972 182.571263 
L 492.488914 182.728877 
L 512.826121 183.494149 
L 525.036684 184.067046 
L 533.560463 184.686901 
L 541.51523 185.486319 
L 543.652379 185.738586 
L 543.652379 185.738586 
" style="fill:none;stroke:#000000;stroke-linecap:square;stroke-opacity:0.7;stroke-width:1.2;"/>
   </g>
   <g id="line2d_18">
    <path clip-path="url(#p8db0e02021)" d="M 544.15647 145.032518 
L 538.219454 143.538295 
L 532.060569 142.176646 
L 524.617488 140.747623 
L 517.243037 139.541125 
L 509.789524 138.540011 
L 502.221424 137.763012 
L 494.772152 137.233694 
L 486.436258 136.892218 
L 477.762395 136.785246 
L 471.001895 136.895253 
L 465.156927 137.180723 
L 459.561853 137.690654 
L 455.421376 138.276689 
L 451.494485 139.066358 
L 449.400995 139.617337 
L 446.172404 140.736148 
L 444.033616 141.769467 
L 442.841836 142.528016 
L 441.431042 143.774145 
L 440.57312 145.034351 
L 440.356304 145.577749 
L 440.175017 146.795816 
L 440.36785 147.934844 
L 440.866654 149.009668 
L 441.585671 149.973475 
L 443.195815 151.416215 
L 445.130837 152.620188 
L 447.445905 153.687246 
L 449.516481 154.429145 
L 452.671829 155.301682 
L 455.312563 155.859015 
L 460.080327 156.583491 
L 465.318775 157.077034 
L 471.170039 157.350929 
L 477.227343 157.385913 
L 483.128418 157.210962 
L 490.218958 156.753066 
L 496.166938 156.163465 
L 502.053963 155.383167 
L 508.460712 154.293759 
L 514.877058 152.950817 
L 522.053631 151.189416 
L 530.497126 148.857609 
L 540.855538 145.749486 
L 544.141966 144.729278 
L 544.141966 144.729278 
" style="fill:none;stroke:#000000;stroke-linecap:square;stroke-opacity:0.7;stroke-width:1.2;"/>
   </g>
   <g id="line2d_19">
    <path clip-path="url(#p8db0e02021)" d="M 543.731723 106.867507 
L 522.242606 104.208317 
L 512.741814 103.261166 
L 503.953825 102.633671 
L 495.482812 102.286746 
L 486.03869 102.155198 
L 474.081714 102.239365 
L 465.040548 102.504501 
L 457.537599 102.953054 
L 451.182723 103.549863 
L 446.596191 104.145781 
L 442.778705 104.824707 
L 440.585371 105.420377 
L 439.719729 105.880004 
L 439.588226 106.127273 
L 439.772265 106.431327 
L 440.327406 106.723975 
L 441.27224 107.017455 
L 444.206502 107.576519 
L 449.015336 108.160245 
L 456.370367 108.774314 
L 466.096294 109.349342 
L 475.558874 109.713022 
L 483.734115 109.81854 
L 491.247882 109.702781 
L 499.149734 109.357856 
L 508.37373 108.711207 
L 531.927738 106.897691 
L 539.22686 106.618381 
L 543.75909 106.536227 
L 543.75909 106.536227 
" style="fill:none;stroke:#000000;stroke-linecap:square;stroke-opacity:0.7;stroke-width:1.2;"/>
   </g>
   <g id="line2d_20">
    <path clip-path="url(#p8db0e02021)" d="M 544.080891 66.650342 
L 536.829862 64.805307 
L 529.125503 63.084388 
L 519.817689 61.261926 
L 511.347222 59.82448 
L 502.767618 58.612309 
L 494.865524 57.73863 
L 487.510427 57.14655 
L 480.211596 56.796861 
L 475.212124 56.729922 
L 469.192515 56.891884 
L 464.304098 57.262485 
L 459.803453 57.828912 
L 455.590303 58.588766 
L 451.670619 59.5365 
L 448.155031 60.640132 
L 445.381144 61.747677 
L 443.484108 62.687919 
L 441.541866 63.921488 
L 440.322683 64.995342 
L 439.566822 66.01904 
L 439.226017 67.028933 
L 439.242727 67.740174 
L 439.480524 68.438482 
L 439.943667 69.124907 
L 440.600802 69.768513 
L 442.212638 70.833529 
L 444.435149 71.844826 
L 446.585065 72.590925 
L 450.046095 73.529384 
L 454.449606 74.435262 
L 459.075997 75.15152 
L 463.905416 75.695414 
L 469.316935 76.078315 
L 475.376489 76.22971 
L 480.66501 76.139605 
L 486.903327 75.807885 
L 493.605662 75.224648 
L 500.909822 74.348683 
L 507.67248 73.318338 
L 515.179869 71.948031 
L 544.088548 66.324378 
L 544.088548 66.324378 
" style="fill:none;stroke:#000000;stroke-linecap:square;stroke-opacity:0.7;stroke-width:1.2;"/>
   </g>
   <g id="line2d_21">
    <path clip-path="url(#p8db0e02021)" d="M 675.117933 225.233727 
L 652.879398 221.604094 
L 641.026561 219.884163 
L 631.875689 218.773154 
L 623.00829 217.933732 
L 615.413759 217.412099 
L 607.88482 217.092822 
L 601.040568 217.030223 
L 595.647772 217.198147 
L 591.07973 217.541271 
L 586.929588 218.055222 
L 582.509473 218.87116 
L 578.818902 219.834838 
L 575.595426 220.994093 
L 573.734428 221.899277 
L 572.454252 222.734508 
L 571.494013 223.685947 
L 571.124036 224.462583 
L 571.101636 224.969754 
L 571.245521 225.430269 
L 571.612778 225.949673 
L 572.20543 226.459031 
L 573.444019 227.158936 
L 575.70089 228.001792 
L 578.316971 228.693216 
L 581.39513 229.30974 
L 586.146386 230.016928 
L 591.245864 230.557271 
L 598.041633 231.019439 
L 605.056221 231.2439 
L 612.56678 231.236862 
L 619.740241 231.008434 
L 627.577664 230.514862 
L 635.731343 229.735767 
L 644.93621 228.595403 
L 666.729422 225.756375 
L 675.14535 224.875631 
L 675.14535 224.875631 
" style="fill:none;stroke:#000000;stroke-linecap:square;stroke-opacity:0.7;stroke-width:1.2;"/>
   </g>
   <g id="line2d_22">
    <path clip-path="url(#p8db0e02021)" d="M 675.188123 185.608635 
L 664.217329 184.686414 
L 626.133162 181.197268 
L 615.243034 180.561128 
L 605.933329 180.236183 
L 599.61163 180.213179 
L 593.850012 180.39472 
L 588.552171 180.780161 
L 583.651864 181.374368 
L 579.954663 182.021444 
L 576.197212 182.930737 
L 573.736606 183.748746 
L 571.872629 184.613513 
L 571.133988 185.106594 
L 570.580022 185.712968 
L 570.467526 186.076477 
L 570.570637 186.459268 
L 570.944179 186.826592 
L 571.614823 187.164531 
L 573.262076 187.608831 
L 575.486995 187.927142 
L 579.002022 188.178605 
L 584.1349 188.302555 
L 592.308464 188.244036 
L 605.786162 187.884477 
L 625.29524 187.13252 
L 647.771081 186.043865 
L 661.919605 185.422532 
L 672.782504 185.173178 
L 675.203411 185.141254 
L 675.203411 185.141254 
" style="fill:none;stroke:#000000;stroke-linecap:square;stroke-opacity:0.7;stroke-width:1.2;"/>
   </g>
   <g id="line2d_23">
    <path clip-path="url(#p8db0e02021)" d="M 675.470697 145.329425 
L 670.002711 143.3067 
L 664.494133 141.45859 
L 656.519705 139.056095 
L 647.300271 136.518555 
L 637.412086 133.986897 
L 629.247581 132.094371 
L 622.593483 130.778697 
L 617.838262 130.024665 
L 612.637325 129.433385 
L 607.728033 129.14309 
L 602.970698 129.145677 
L 598.579639 129.42577 
L 594.897616 129.891484 
L 591.380015 130.561235 
L 588.661154 131.253107 
L 585.266878 132.37166 
L 582.60349 133.490695 
L 579.761489 134.98096 
L 577.957428 136.125253 
L 576.393071 137.272644 
L 574.396924 139.00376 
L 572.872567 140.60884 
L 571.525535 142.388186 
L 570.547903 144.251771 
L 570.200796 145.678236 
L 570.220167 146.428977 
L 570.409959 147.10586 
L 570.64482 147.533512 
L 571.376493 148.280752 
L 572.295694 148.806018 
L 572.764165 148.993891 
L 573.879491 149.318581 
L 575.95142 149.657686 
L 579.246112 149.85067 
L 582.881901 149.832494 
L 589.986816 149.518593 
L 617.339224 148.045865 
L 648.560866 146.724678 
L 663.873788 145.743798 
L 675.442948 144.931976 
L 675.442948 144.931976 
" style="fill:none;stroke:#000000;stroke-linecap:square;stroke-opacity:0.7;stroke-width:1.2;"/>
   </g>
   <g id="line2d_24">
    <path clip-path="url(#p8db0e02021)" d="M 675.473686 105.748706 
L 668.917327 104.333061 
L 660.836677 102.827539 
L 652.008997 101.434523 
L 643.076265 100.261274 
L 634.682817 99.390778 
L 627.187815 98.820648 
L 619.346467 98.441837 
L 611.887634 98.308473 
L 605.749535 98.412408 
L 600.295346 98.722496 
L 596.083474 99.13386 
L 591.476369 99.780088 
L 586.910809 100.646219 
L 582.762316 101.655182 
L 578.689716 102.894744 
L 575.474255 104.108825 
L 573.163117 105.190629 
L 571.596861 106.149914 
L 570.879602 106.847945 
L 570.763659 107.218495 
L 570.844042 107.415501 
L 571.078345 107.595591 
L 571.723674 107.788489 
L 572.965805 107.896718 
L 574.972608 107.86564 
L 579.360989 107.533287 
L 601.794591 105.413917 
L 611.247522 104.887766 
L 623.096794 104.496603 
L 643.310921 104.097795 
L 653.875846 104.050949 
L 661.059667 104.201678 
L 667.187701 104.51793 
L 674.219876 105.131383 
L 675.490909 105.2708 
L 675.490909 105.2708 
" style="fill:none;stroke:#000000;stroke-linecap:square;stroke-opacity:0.7;stroke-width:1.2;"/>
   </g>
   <g id="line2d_25">
    <path clip-path="url(#p8db0e02021)" d="M 675.073887 67.848634 
L 657.442034 66.474819 
L 641.846871 65.349756 
L 627.844023 64.573249 
L 611.254245 63.881978 
L 602.016952 63.680671 
L 595.043761 63.748556 
L 589.082787 64.009387 
L 583.164982 64.482759 
L 577.665271 65.15939 
L 573.960593 65.807957 
L 571.566366 66.395731 
L 570.123366 66.960842 
L 569.754452 67.268935 
L 569.750848 67.566371 
L 570.119617 67.832912 
L 571.249249 68.166163 
L 573.177882 68.464581 
L 577.177737 68.806528 
L 584.999781 69.154493 
L 617.626171 70.109518 
L 626.568823 70.179938 
L 635.186007 70.044756 
L 645.939995 69.635949 
L 659.734257 68.867097 
L 669.925121 68.104468 
L 675.07739 67.609545 
L 675.07739 67.609545 
" style="fill:none;stroke:#000000;stroke-linecap:square;stroke-opacity:0.7;stroke-width:1.2;"/>
   </g>
  </g>
 </g>
 <defs>
  <clipPath id="p8db0e02021">
   <rect height="262.08" width="694.08" x="12.96" y="12.96"/>
  </clipPath>
 </defs>
</svg>
