<?xml version="1.0" encoding="utf-8" standalone="no"?>
<!DOCTYPE svg PUBLIC "-//W3C//DTD SVG 1.1//EN"
  "http://www.w3.org/Graphics/SVG/1.1/DTD/svg11.dtd">
<!-- Created with matplotlib (https://matplotlib.org/) -->
<svg height="288pt" version="1.1" viewBox="0 0 720 288" width="720pt" xmlns="http://www.w3.org/2000/svg" xmlns:xlink="http://www.w3.org/1999/xlink">
 <metadata>
  <rdf:RDF xmlns:cc="http://creativecommons.org/ns#" xmlns:dc="http://purl.org/dc/elements/1.1/" xmlns:rdf="http://www.w3.org/1999/02/22-rdf-syntax-ns#">
   <cc:Work>
    <dc:type rdf:resource="http://purl.org/dc/dcmitype/StillImage"/>
    <dc:date>2021-05-05T23:21:01.173568</dc:date>
    <dc:format>image/svg+xml</dc:format>
    <dc:creator>
     <cc:Agent>
      <dc:title>Matplotlib v3.3.4, https://matplotlib.org/</dc:title>
     </cc:Agent>
    </dc:creator>
   </cc:Work>
  </rdf:RDF>
 </metadata>
 <defs>
  <style type="text/css">*{stroke-linecap:butt;stroke-linejoin:round;}</style>
 </defs>
 <g id="figure_1">
  <g id="patch_1">
   <path d="M 0 288 
L 720 288 
L 720 0 
L 0 0 
z
" style="fill:#ffffff;"/>
  </g>
  <g id="axes_1">
   <g id="line2d_1">
    <path clip-path="url(#p6c783667e7)" d="M 148.965913 225.176597 
L 140.840631 223.386608 
L 131.602099 221.599873 
L 123.281778 220.211626 
L 115.952069 219.212819 
L 109.338838 218.544501 
L 103.218872 218.135478 
L 96.32655 217.886119 
L 87.70695 217.814345 
L 79.451667 217.966119 
L 72.551449 218.314846 
L 66.584185 218.850081 
L 62.013768 219.451029 
L 57.343296 220.283746 
L 53.692239 221.136137 
L 50.236376 222.177308 
L 47.549514 223.251621 
L 46.459043 223.819435 
L 45.25825 224.733438 
L 45.050713 225.100939 
L 45.088888 225.394489 
L 45.353792 225.621076 
L 45.798765 225.773443 
L 46.826836 225.89777 
L 48.91897 225.870126 
L 52.947078 225.512395 
L 75.179687 223.085935 
L 82.04535 222.707096 
L 89.097611 222.576235 
L 96.274101 222.66346 
L 107.26825 223.056239 
L 148.962722 224.875222 
L 148.962722 224.875222 
" style="fill:none;stroke:#000000;stroke-linecap:square;stroke-opacity:0.7;stroke-width:1.2;"/>
   </g>
   <g id="line2d_2">
    <path clip-path="url(#p6c783667e7)" d="M 149.614121 184.479228 
L 137.230674 181.137322 
L 121.799894 177.197301 
L 112.474525 175.004041 
L 105.770237 173.621699 
L 99.689289 172.578273 
L 94.560125 171.885186 
L 88.509933 171.310108 
L 83.064338 171.035626 
L 77.671322 171.019265 
L 73.076827 171.240789 
L 69.293184 171.61885 
L 64.786646 172.35276 
L 61.65836 173.085609 
L 59.165484 173.830786 
L 56.048852 175.009749 
L 52.944105 176.533834 
L 50.391705 178.144549 
L 48.671427 179.492947 
L 47.043136 181.079054 
L 45.806918 182.665829 
L 44.99346 184.22573 
L 44.711772 185.270259 
L 44.730894 186.49846 
L 44.947975 187.164424 
L 45.455489 187.95102 
L 45.743458 188.256052 
L 46.488751 188.849789 
L 48.217912 189.740028 
L 49.639637 190.237268 
L 52.562503 190.947028 
L 55.321898 191.401423 
L 60.136543 191.913711 
L 66.058909 192.23659 
L 72.012258 192.321164 
L 78.506774 192.199114 
L 86.396463 191.809501 
L 93.932968 191.233668 
L 102.726584 190.340414 
L 111.397182 189.249917 
L 127.562249 186.926094 
L 140.61216 185.144876 
L 149.593246 184.107017 
L 149.593246 184.107017 
" style="fill:none;stroke:#000000;stroke-linecap:square;stroke-opacity:0.7;stroke-width:1.2;"/>
   </g>
   <g id="line2d_3">
    <path clip-path="url(#p6c783667e7)" d="M 149.0384 146.359763 
L 136.523663 144.834989 
L 119.158564 142.699172 
L 111.623616 142.047192 
L 105.556391 141.741216 
L 99.136857 141.64819 
L 91.630088 141.804951 
L 81.560705 142.296374 
L 65.858149 143.314389 
L 56.67922 144.116681 
L 51.107956 144.799449 
L 47.371829 145.478821 
L 45.427602 146.086571 
L 44.807721 146.523629 
L 44.751089 146.823036 
L 44.954667 147.092998 
L 45.489322 147.4043 
L 46.544367 147.773545 
L 48.290699 148.188301 
L 51.911018 148.781865 
L 57.862261 149.442541 
L 65.390483 149.991955 
L 72.842065 150.312388 
L 80.422049 150.434135 
L 88.714541 150.343789 
L 97.364615 150.022763 
L 106.989483 149.430199 
L 122.411235 148.192773 
L 149.022722 146.10043 
L 149.022722 146.10043 
" style="fill:none;stroke:#000000;stroke-linecap:square;stroke-opacity:0.7;stroke-width:1.2;"/>
   </g>
   <g id="line2d_4">
    <path clip-path="url(#p6c783667e7)" d="M 149.457742 105.916768 
L 141.130626 103.511967 
L 133.254184 101.472551 
L 124.238908 99.376607 
L 115.583568 97.582089 
L 108.188092 96.249319 
L 100.499104 95.104981 
L 94.338481 94.395829 
L 87.818738 93.885726 
L 82.25572 93.693039 
L 77.410421 93.752188 
L 72.726284 94.05103 
L 68.529245 94.554496 
L 65.228773 95.130378 
L 61.067088 96.120104 
L 57.475059 97.258522 
L 54.547469 98.432321 
L 51.663799 99.877299 
L 49.945814 100.928325 
L 48.404048 102.052728 
L 46.91409 103.412796 
L 45.889295 104.68913 
L 45.331958 105.778975 
L 45.16268 106.44172 
L 45.159327 107.174273 
L 45.436205 107.970739 
L 45.938624 108.602622 
L 46.969321 109.325695 
L 48.206283 109.854164 
L 49.887173 110.320548 
L 52.872248 110.807539 
L 56.618006 111.110077 
L 61.308334 111.238651 
L 68.023633 111.162896 
L 77.379713 110.789716 
L 88.876136 110.109631 
L 103.277123 109.028562 
L 119.952569 107.509334 
L 134.186175 106.2765 
L 142.457573 105.788675 
L 149.459911 105.56938 
L 149.459911 105.56938 
" style="fill:none;stroke:#000000;stroke-linecap:square;stroke-opacity:0.7;stroke-width:1.2;"/>
   </g>
   <g id="line2d_5">
    <path clip-path="url(#p6c783667e7)" d="M 149.709867 65.922357 
L 137.092688 64.410207 
L 120.836183 62.459111 
L 112.960299 61.725898 
L 105.219278 61.215585 
L 97.503456 60.933328 
L 89.298948 60.877018 
L 82.17686 61.019991 
L 74.422431 61.379975 
L 67.151222 61.939068 
L 61.094285 62.613011 
L 55.789421 63.421251 
L 51.554191 64.291829 
L 48.967454 64.985978 
L 46.990454 65.666051 
L 45.547351 66.340188 
L 44.776713 66.903671 
L 44.524995 67.295515 
L 44.539536 67.633135 
L 44.853681 67.998504 
L 45.500993 68.341238 
L 46.646114 68.699491 
L 49.094801 69.162713 
L 53.746872 69.675054 
L 60.242024 70.093612 
L 68.863441 70.399379 
L 77.898132 70.496201 
L 87.609011 70.350114 
L 96.915226 69.973152 
L 106.75515 69.336747 
L 119.119314 68.264966 
L 145.930943 65.852475 
L 149.7086 65.519319 
L 149.7086 65.519319 
" style="fill:none;stroke:#000000;stroke-linecap:square;stroke-opacity:0.7;stroke-width:1.2;"/>
   </g>
   <g id="line2d_6">
    <path clip-path="url(#p6c783667e7)" d="M 280.525563 225.058567 
L 265.23895 222.737613 
L 251.752928 220.91262 
L 238.267219 219.301306 
L 226.752569 218.125676 
L 218.400656 217.458614 
L 211.39685 217.126041 
L 206.338833 217.088086 
L 201.74939 217.248255 
L 197.737152 217.569854 
L 193.284028 218.15819 
L 189.688246 218.840664 
L 186.516259 219.627253 
L 183.461487 220.589798 
L 180.851465 221.629583 
L 178.723134 222.713606 
L 177.440722 223.570943 
L 176.700316 224.265997 
L 176.399295 224.755526 
L 176.367009 225.161368 
L 176.604825 225.496329 
L 177.222283 225.780074 
L 178.004447 225.931997 
L 179.564928 226.030026 
L 182.508179 225.960411 
L 188.974223 225.490319 
L 202.990413 224.427424 
L 210.172642 224.091553 
L 219.42733 223.894804 
L 234.356478 223.863453 
L 262.443278 223.963778 
L 272.052543 224.281687 
L 280.553955 224.708654 
L 280.553955 224.708654 
" style="fill:none;stroke:#000000;stroke-linecap:square;stroke-opacity:0.7;stroke-width:1.2;"/>
   </g>
   <g id="line2d_7">
    <path clip-path="url(#p6c783667e7)" d="M 280.981239 184.664006 
L 274.849249 182.09013 
L 269.268312 180.001998 
L 263.600769 178.118609 
L 256.046902 175.881274 
L 247.795032 173.683731 
L 238.920217 171.566676 
L 231.632817 170.064145 
L 225.196207 168.987 
L 220.152505 168.365367 
L 215.224729 168.001137 
L 210.692394 167.924827 
L 206.212988 168.136767 
L 202.800754 168.517379 
L 199.475271 169.093925 
L 196.259368 169.868006 
L 193.191148 170.831594 
L 189.950669 172.12582 
L 187.179445 173.500173 
L 185.38532 174.547786 
L 183.310409 175.948531 
L 181.452211 177.421125 
L 179.820432 178.950385 
L 178.438053 180.518939 
L 177.255246 182.268203 
L 176.633826 183.653145 
L 176.420769 184.566936 
L 176.418211 185.461948 
L 176.661681 186.265821 
L 177.271741 187.072177 
L 178.198032 187.704898 
L 179.720935 188.268516 
L 181.620451 188.630057 
L 183.6354 188.811325 
L 187.086091 188.870179 
L 192.077845 188.668834 
L 198.774008 188.153186 
L 212.303941 186.826638 
L 226.843293 185.454561 
L 237.235702 184.681596 
L 247.180732 184.145789 
L 256.996728 183.82171 
L 265.61271 183.746707 
L 273.833693 183.922184 
L 280.99636 184.280415 
L 280.99636 184.280415 
" style="fill:none;stroke:#000000;stroke-linecap:square;stroke-opacity:0.7;stroke-width:1.2;"/>
   </g>
   <g id="line2d_8">
    <path clip-path="url(#p6c783667e7)" d="M 280.687333 145.853232 
L 266.748944 144.13555 
L 254.006875 142.628007 
L 246.995836 141.998179 
L 240.340546 141.609024 
L 233.211807 141.431149 
L 224.616922 141.480353 
L 213.100899 141.798763 
L 202.186834 142.306329 
L 195.218595 142.822557 
L 189.438634 143.426999 
L 184.219184 144.175818 
L 181.179689 144.757802 
L 178.108419 145.582731 
L 176.671599 146.226549 
L 176.191971 146.694877 
L 176.191027 147.050606 
L 176.357876 147.258426 
L 177.155945 147.680163 
L 178.206379 147.981629 
L 180.099203 148.323936 
L 183.338856 148.676205 
L 188.526511 148.980566 
L 195.667555 149.163629 
L 207.870555 149.224454 
L 228.831252 149.099272 
L 239.834034 148.809778 
L 249.78895 148.327238 
L 261.495182 147.516414 
L 272.041522 146.554496 
L 280.680299 145.572533 
L 280.680299 145.572533 
" style="fill:none;stroke:#000000;stroke-linecap:square;stroke-opacity:0.7;stroke-width:1.2;"/>
   </g>
   <g id="line2d_9">
    <path clip-path="url(#p6c783667e7)" d="M 280.961035 105.778021 
L 273.827888 103.671014 
L 266.850199 101.841836 
L 258.878689 100.001359 
L 250.034736 98.190727 
L 242.241514 96.796932 
L 234.62986 95.668396 
L 228.015572 94.913002 
L 221.438939 94.398337 
L 215.399761 94.172272 
L 210.7638 94.19884 
L 206.498444 94.412726 
L 201.78769 94.900118 
L 198.002782 95.512392 
L 194.525084 96.272559 
L 191.067141 97.242349 
L 188.010144 98.306584 
L 185.554587 99.32971 
L 182.511298 100.862938 
L 180.165179 102.325034 
L 178.433947 103.658963 
L 177.356455 104.696247 
L 176.392883 106.008051 
L 176.115608 106.849738 
L 176.152773 107.289625 
L 176.479558 107.779268 
L 177.068255 108.099545 
L 178.234548 108.324398 
L 179.78014 108.34789 
L 182.067341 108.160173 
L 186.082407 107.575026 
L 197.388735 105.51047 
L 206.900192 103.878123 
L 213.89335 102.904302 
L 220.664828 102.210955 
L 226.533833 101.823306 
L 233.813167 101.600229 
L 240.092384 101.606941 
L 248.174528 101.843572 
L 256.444039 102.329393 
L 264.019741 103.012435 
L 270.899403 103.854437 
L 279.317801 105.12366 
L 280.966727 105.391361 
L 280.966727 105.391361 
" style="fill:none;stroke:#000000;stroke-linecap:square;stroke-opacity:0.7;stroke-width:1.2;"/>
   </g>
   <g id="line2d_10">
    <path clip-path="url(#p6c783667e7)" d="M 280.908056 66.466136 
L 264.617196 63.710825 
L 251.020772 61.65874 
L 240.309383 60.250526 
L 230.50941 59.188253 
L 222.098203 58.503837 
L 215.820385 58.184926 
L 209.949317 58.102553 
L 204.908744 58.254802 
L 200.144267 58.631074 
L 195.572714 59.237893 
L 191.104816 60.098554 
L 187.716464 60.959232 
L 184.607107 61.945228 
L 181.498476 63.186621 
L 179.109027 64.41934 
L 177.735113 65.34361 
L 176.779662 66.225362 
L 176.292834 66.97652 
L 176.190582 67.622502 
L 176.326075 68.0226 
L 176.688647 68.43772 
L 177.412037 68.871498 
L 178.745782 69.317341 
L 180.660221 69.680924 
L 183.852468 70.000709 
L 188.372518 70.183414 
L 195.438883 70.179627 
L 205.448033 69.893239 
L 222.829418 69.112794 
L 239.69991 68.163185 
L 268.86342 66.36666 
L 278.144775 66.136618 
L 280.916901 66.113375 
L 280.916901 66.113375 
" style="fill:none;stroke:#000000;stroke-linecap:square;stroke-opacity:0.7;stroke-width:1.2;"/>
   </g>
   <g id="line2d_11">
    <path clip-path="url(#p6c783667e7)" d="M 412.070224 224.987976 
L 389.099456 221.520563 
L 379.719333 220.297785 
L 371.272712 219.429144 
L 363.646896 218.869017 
L 355.737411 218.487639 
L 346.687558 218.266612 
L 338.659022 218.30578 
L 332.817 218.548248 
L 327.98593 218.940178 
L 323.292161 219.534753 
L 319.071518 220.30043 
L 316.013932 221.037343 
L 313.020648 221.974828 
L 310.59093 223.003584 
L 309.379401 223.70328 
L 308.603076 224.320931 
L 308.072468 225.046452 
L 307.98526 225.579916 
L 308.114077 225.971188 
L 308.44151 226.370007 
L 309.230388 226.896045 
L 310.357434 227.370997 
L 311.91116 227.835526 
L 315.030605 228.495117 
L 318.71962 229.056869 
L 324.445031 229.685123 
L 330.346407 230.119256 
L 336.185793 230.362598 
L 343.246934 230.417057 
L 349.829304 230.245542 
L 356.803112 229.857497 
L 365.498616 229.123701 
L 376.470078 227.925558 
L 391.979188 226.234778 
L 402.389455 225.334929 
L 412.080849 224.651556 
L 412.080849 224.651556 
" style="fill:none;stroke:#000000;stroke-linecap:square;stroke-opacity:0.7;stroke-width:1.2;"/>
   </g>
   <g id="line2d_12">
    <path clip-path="url(#p6c783667e7)" d="M 412.34931 185.014258 
L 399.296397 182.154294 
L 386.506904 179.573399 
L 374.346487 177.337434 
L 366.829387 176.147336 
L 359.554651 175.215211 
L 353.167151 174.624252 
L 347.759199 174.326513 
L 342.120493 174.256133 
L 337.439575 174.419378 
L 333.737171 174.712621 
L 328.834795 175.35342 
L 324.225169 176.255264 
L 320.734617 177.165452 
L 317.498907 178.224331 
L 314.32486 179.529455 
L 311.792115 180.855148 
L 309.928369 182.118604 
L 308.602829 183.352701 
L 307.911732 184.338074 
L 307.571811 185.431456 
L 307.666121 186.281122 
L 308.067097 187.046906 
L 308.870684 187.853127 
L 309.91821 188.539328 
L 310.72034 188.94532 
L 313.296094 189.916252 
L 316.372319 190.735625 
L 320.531957 191.541157 
L 325.393319 192.213775 
L 330.932699 192.731608 
L 337.361781 193.068082 
L 343.626039 193.164731 
L 350.989716 193.033529 
L 358.744324 192.650703 
L 366.146066 192.062966 
L 373.349845 191.278011 
L 381.619312 190.149373 
L 392.409777 188.435457 
L 403.247178 186.493255 
L 412.347173 184.659411 
L 412.347173 184.659411 
" style="fill:none;stroke:#000000;stroke-linecap:square;stroke-opacity:0.7;stroke-width:1.2;"/>
   </g>
   <g id="line2d_13">
    <path clip-path="url(#p6c783667e7)" d="M 411.946594 146.248076 
L 402.559293 143.959882 
L 393.253996 141.926488 
L 384.876484 140.32161 
L 378.022137 139.224119 
L 371.001637 138.361199 
L 364.834635 137.843638 
L 358.019807 137.52011 
L 350.400702 137.422227 
L 342.732154 137.574304 
L 336.365426 137.920863 
L 331.881431 138.326883 
L 326.388428 139.07326 
L 321.921236 139.947705 
L 317.987782 140.982051 
L 314.368197 142.230265 
L 311.957475 143.286596 
L 309.553361 144.649865 
L 308.354703 145.623789 
L 307.929411 146.281005 
L 307.947383 146.601577 
L 308.144375 146.817988 
L 308.430191 146.951506 
L 309.421929 147.110692 
L 310.81079 147.111752 
L 313.914913 146.858138 
L 323.462865 145.682057 
L 331.457721 144.822968 
L 338.283193 144.316809 
L 345.463205 144.014673 
L 354.255872 143.884063 
L 366.411719 143.938175 
L 380.689358 144.206212 
L 391.532758 144.612221 
L 403.747126 145.306665 
L 411.968767 145.87526 
L 411.968767 145.87526 
" style="fill:none;stroke:#000000;stroke-linecap:square;stroke-opacity:0.7;stroke-width:1.2;"/>
   </g>
   <g id="line2d_14">
    <path clip-path="url(#p6c783667e7)" d="M 412.433076 105.860388 
L 402.368579 103.588747 
L 391.830915 101.47033 
L 382.584258 99.818914 
L 375.070036 98.674722 
L 367.750433 97.796373 
L 361.967873 97.292338 
L 355.764696 96.947219 
L 349.829213 96.81786 
L 343.715218 96.917933 
L 338.92002 97.189635 
L 334.320951 97.631742 
L 328.821583 98.419271 
L 324.024972 99.364081 
L 319.492323 100.518592 
L 315.90882 101.662542 
L 312.855952 102.87033 
L 310.940542 103.805395 
L 309.476125 104.69261 
L 308.450503 105.511567 
L 307.85058 106.22434 
L 307.583667 106.947943 
L 307.637983 107.401445 
L 307.860913 107.79454 
L 308.368482 108.241738 
L 309.372761 108.741373 
L 311.039092 109.230314 
L 313.359588 109.641998 
L 316.915121 110.005412 
L 321.561759 110.240839 
L 328.136197 110.332888 
L 336.828993 110.209744 
L 346.68553 109.848452 
L 357.702464 109.233827 
L 371.91726 108.216135 
L 399.435906 106.187603 
L 411.012684 105.572483 
L 412.43821 105.510238 
L 412.43821 105.510238 
" style="fill:none;stroke:#000000;stroke-linecap:square;stroke-opacity:0.7;stroke-width:1.2;"/>
   </g>
   <g id="line2d_15">
    <path clip-path="url(#p6c783667e7)" d="M 411.950236 67.396725 
L 387.536515 64.161287 
L 375.416138 62.6719 
L 365.451806 61.660253 
L 354.952702 60.837676 
L 345.451501 60.328198 
L 339.195672 60.177661 
L 333.199566 60.247924 
L 328.354873 60.511066 
L 323.290062 61.042634 
L 319.774521 61.612008 
L 316.606862 62.316888 
L 313.678535 63.204449 
L 311.904724 63.916287 
L 310.47454 64.656619 
L 309.153598 65.612099 
L 308.419832 66.473034 
L 308.122258 67.218041 
L 308.114348 67.816691 
L 308.258887 68.286455 
L 308.674806 68.917359 
L 309.385068 69.562496 
L 310.495222 70.24982 
L 312.121576 70.975673 
L 314.251942 71.686591 
L 317.658333 72.529246 
L 321.934073 73.291615 
L 326.202952 73.835857 
L 330.642399 74.224025 
L 336.521761 74.499511 
L 342.23351 74.535668 
L 348.619113 74.342002 
L 356.23518 73.846629 
L 364.002565 73.111261 
L 373.970539 71.930136 
L 411.990602 67.075851 
L 411.990602 67.075851 
" style="fill:none;stroke:#000000;stroke-linecap:square;stroke-opacity:0.7;stroke-width:1.2;"/>
   </g>
   <g id="line2d_16">
    <path clip-path="url(#p6c783667e7)" d="M 543.72308 224.607096 
L 531.058239 222.067363 
L 514.687469 219.070423 
L 495.883761 215.799938 
L 487.531112 214.566416 
L 481.18914 213.846769 
L 475.583268 213.446062 
L 470.757136 213.33429 
L 466.021387 213.479424 
L 461.454051 213.896933 
L 458.0363 214.412577 
L 454.792669 215.086267 
L 451.749766 215.908488 
L 448.469981 217.048685 
L 446.172653 218.051603 
L 444.221012 219.08769 
L 442.41368 220.273869 
L 441.039273 221.427917 
L 440.059705 222.53442 
L 439.471487 223.525477 
L 439.176463 224.581776 
L 439.196096 225.269777 
L 439.405801 225.942056 
L 439.985356 226.778494 
L 440.962088 227.578378 
L 442.37152 228.321098 
L 444.574823 229.090988 
L 447.7689 229.81735 
L 451.422455 230.356551 
L 455.88762 230.771207 
L 460.769127 231.021965 
L 466.941614 231.117397 
L 473.212154 231.009108 
L 480.684127 230.657478 
L 490.34565 229.939756 
L 505.007497 228.562524 
L 532.690207 225.720031 
L 542.328924 224.509737 
L 543.721657 224.315989 
L 543.721657 224.315989 
" style="fill:none;stroke:#000000;stroke-linecap:square;stroke-opacity:0.7;stroke-width:1.2;"/>
   </g>
   <g id="line2d_17">
    <path clip-path="url(#p6c783667e7)" d="M 544.045091 184.363927 
L 533.719499 181.829852 
L 521.145419 179.016488 
L 510.285532 176.77184 
L 502.515135 175.36315 
L 495.336144 174.304959 
L 489.262493 173.642722 
L 483.93037 173.266055 
L 479.072768 173.11387 
L 474.219949 173.172196 
L 470.128578 173.408611 
L 465.190263 173.952269 
L 460.671205 174.725834 
L 456.502862 175.702284 
L 452.886996 176.784641 
L 449.471222 178.051114 
L 446.591221 179.360748 
L 445.013235 180.208657 
L 442.838087 181.615134 
L 441.532275 182.695291 
L 440.467792 183.90561 
L 439.923842 184.99623 
L 439.832711 185.821314 
L 440.046807 186.560169 
L 440.543591 187.223703 
L 441.430051 187.892745 
L 442.767395 188.528062 
L 444.682591 189.126951 
L 446.779234 189.577714 
L 450.808699 190.135077 
L 455.401029 190.49708 
L 461.36678 190.721288 
L 468.615224 190.761288 
L 476.697131 190.600124 
L 485.82206 190.208438 
L 494.66296 189.618673 
L 503.742738 188.775672 
L 513.180999 187.661862 
L 539.346043 184.412687 
L 544.045529 183.980881 
L 544.045529 183.980881 
" style="fill:none;stroke:#000000;stroke-linecap:square;stroke-opacity:0.7;stroke-width:1.2;"/>
   </g>
   <g id="line2d_18">
    <path clip-path="url(#p6c783667e7)" d="M 543.868871 145.353613 
L 533.302338 144.423874 
L 521.551314 143.149018 
L 490.012456 139.595866 
L 481.475199 138.94067 
L 475.40077 138.656033 
L 468.949575 138.596143 
L 463.841659 138.776007 
L 458.475027 139.223157 
L 453.622432 139.896935 
L 450.363867 140.527292 
L 446.813002 141.434211 
L 443.563939 142.576335 
L 442.089264 143.269034 
L 440.545369 144.243557 
L 439.64554 145.11808 
L 439.358005 145.564755 
L 439.178277 146.051411 
L 439.167464 146.729002 
L 439.438283 147.383677 
L 439.990142 148.017793 
L 441.184013 148.835693 
L 442.998337 149.640772 
L 445.201667 150.333054 
L 447.76436 150.937742 
L 452.156076 151.692331 
L 457.034521 152.273793 
L 463.356343 152.756094 
L 470.172915 153.007295 
L 477.129098 153.016632 
L 484.33498 152.79682 
L 491.925169 152.343667 
L 499.643089 151.661224 
L 508.182365 150.651824 
L 518.721552 149.132829 
L 535.148723 146.506404 
L 543.884819 144.989391 
L 543.884819 144.989391 
" style="fill:none;stroke:#000000;stroke-linecap:square;stroke-opacity:0.7;stroke-width:1.2;"/>
   </g>
   <g id="line2d_19">
    <path clip-path="url(#p6c783667e7)" d="M 543.764618 106.210094 
L 532.193996 103.91043 
L 520.013593 101.724319 
L 510.255748 100.189146 
L 501.410353 99.026239 
L 493.662512 98.221071 
L 486.206547 97.651935 
L 478.928466 97.322765 
L 472.592965 97.268661 
L 467.220193 97.434834 
L 461.529758 97.866756 
L 456.98278 98.440905 
L 453.195182 99.114065 
L 449.329037 100.042509 
L 446.129241 101.072985 
L 443.528472 102.18824 
L 441.863644 103.132592 
L 440.666267 104.039835 
L 439.807661 105.007876 
L 439.466024 105.722955 
L 439.398504 106.367466 
L 439.522405 106.852065 
L 439.824099 107.334795 
L 440.55116 107.961603 
L 441.822413 108.59434 
L 444.031658 109.237445 
L 446.201422 109.625205 
L 449.565439 109.989861 
L 454.422601 110.244204 
L 460.693414 110.321115 
L 468.773505 110.195055 
L 479.377661 109.809757 
L 497.589929 108.879408 
L 522.824975 107.389297 
L 540.952797 106.101361 
L 543.764023 105.880841 
L 543.764023 105.880841 
" style="fill:none;stroke:#000000;stroke-linecap:square;stroke-opacity:0.7;stroke-width:1.2;"/>
   </g>
   <g id="line2d_20">
    <path clip-path="url(#p6c783667e7)" d="M 543.413144 67.369548 
L 537.089299 65.784807 
L 529.059118 63.993405 
L 520.566301 62.331488 
L 513.008597 61.062506 
L 505.786795 60.080436 
L 498.869802 59.373588 
L 491.87877 58.870321 
L 483.836323 58.504634 
L 476.366203 58.366093 
L 470.255242 58.453539 
L 465.804566 58.681917 
L 461.434829 59.086377 
L 456.723829 59.778871 
L 453.94701 60.342715 
L 450.806198 61.154557 
L 448.404183 61.929631 
L 446.22446 62.781029 
L 444.218541 63.730846 
L 441.868796 65.171197 
L 440.642644 66.269886 
L 440.346453 66.713628 
L 440.303685 67.229495 
L 440.525307 67.440964 
L 441.00518 67.580966 
L 442.278272 67.590533 
L 444.152333 67.360181 
L 449.381011 66.39286 
L 457.792698 64.834832 
L 464.001923 63.92996 
L 469.380793 63.380838 
L 474.322321 63.07882 
L 480.21542 62.946825 
L 486.331634 63.015285 
L 495.315231 63.370215 
L 505.315032 63.994196 
L 519.100114 65.096856 
L 542.373433 66.981354 
L 543.415281 67.053351 
L 543.415281 67.053351 
" style="fill:none;stroke:#000000;stroke-linecap:square;stroke-opacity:0.7;stroke-width:1.2;"/>
   </g>
   <g id="line2d_21">
    <path clip-path="url(#p6c783667e7)" d="M 674.891742 225.104116 
L 651.295241 222.623431 
L 642.557221 221.987318 
L 634.013324 221.606499 
L 622.334108 221.352182 
L 605.382154 221.206817 
L 596.678095 221.310297 
L 590.007089 221.601694 
L 585.099334 221.994668 
L 580.083329 222.610894 
L 575.748369 223.39673 
L 572.715604 224.191223 
L 571.393682 224.673128 
L 570.165663 225.377358 
L 569.906216 225.783904 
L 569.983167 226.07941 
L 570.42409 226.41909 
L 571.388903 226.77006 
L 573.519156 227.201871 
L 577.150167 227.642599 
L 583.50827 228.109276 
L 591.248055 228.419888 
L 599.612638 228.541276 
L 610.219022 228.47715 
L 624.193216 228.168618 
L 635.626185 227.727462 
L 649.161588 226.979442 
L 662.047252 226.056677 
L 671.512796 225.175436 
L 674.845816 224.807878 
L 674.845816 224.807878 
" style="fill:none;stroke:#000000;stroke-linecap:square;stroke-opacity:0.7;stroke-width:1.2;"/>
   </g>
   <g id="line2d_22">
    <path clip-path="url(#p6c783667e7)" d="M 675.459966 184.682098 
L 660.935211 182.928412 
L 645.195962 181.008377 
L 636.375637 180.176501 
L 629.105019 179.713487 
L 622.172501 179.481699 
L 614.723488 179.461557 
L 606.981493 179.679502 
L 598.668125 180.166124 
L 591.084654 180.842472 
L 585.574411 181.50285 
L 579.673415 182.444628 
L 576.327134 183.162247 
L 573.352245 184.033143 
L 571.580774 184.813226 
L 570.745586 185.424583 
L 570.408069 185.965506 
L 570.395078 186.316854 
L 570.702679 186.85363 
L 571.215515 187.26079 
L 572.127588 187.728628 
L 573.643063 188.264613 
L 575.827275 188.82042 
L 579.818802 189.540963 
L 585.140326 190.204657 
L 590.987087 190.70326 
L 597.200213 191.034936 
L 603.308229 191.177796 
L 610.423527 191.112779 
L 616.913041 190.837219 
L 623.834445 190.32754 
L 631.673336 189.503201 
L 640.778252 188.278916 
L 660.01915 185.566919 
L 667.414137 184.796321 
L 675.490909 184.190938 
L 675.490909 184.190938 
" style="fill:none;stroke:#000000;stroke-linecap:square;stroke-opacity:0.7;stroke-width:1.2;"/>
   </g>
   <g id="line2d_23">
    <path clip-path="url(#p6c783667e7)" d="M 675.265208 145.464602 
L 667.896795 143.000513 
L 660.780851 140.875694 
L 652.689485 138.727551 
L 643.100205 136.43429 
L 633.806788 134.450127 
L 626.020844 133.032543 
L 620.136007 132.161626 
L 615.054946 131.587324 
L 610.298111 131.237769 
L 605.39846 131.117122 
L 601.665522 131.224719 
L 598.042497 131.524685 
L 594.426836 132.04493 
L 591.016332 132.766104 
L 587.709349 133.708915 
L 584.647279 134.82769 
L 581.419229 136.309916 
L 578.541022 137.956449 
L 576.787521 139.153626 
L 574.348767 141.171326 
L 572.948296 142.635656 
L 571.82496 144.184812 
L 571.286319 145.350797 
L 571.14078 146.115487 
L 571.191348 146.666991 
L 571.424115 147.182168 
L 571.855779 147.61561 
L 572.762149 148.055476 
L 574.120885 148.338394 
L 575.937307 148.448077 
L 579.022661 148.342576 
L 583.533974 147.917139 
L 592.236109 146.811886 
L 606.885356 144.959095 
L 616.168783 144.017418 
L 624.971392 143.3436 
L 633.700065 142.902394 
L 641.329843 142.720851 
L 648.701272 142.749015 
L 655.714926 142.996172 
L 661.723719 143.415355 
L 667.514653 144.01784 
L 675.28861 145.091293 
L 675.28861 145.091293 
" style="fill:none;stroke:#000000;stroke-linecap:square;stroke-opacity:0.7;stroke-width:1.2;"/>
   </g>
   <g id="line2d_24">
    <path clip-path="url(#p6c783667e7)" d="M 675.079861 106.497748 
L 668.178289 104.132359 
L 661.61 102.114345 
L 654.743347 100.239713 
L 648.773703 98.811019 
L 642.71064 97.591525 
L 637.93535 96.831845 
L 632.937148 96.252641 
L 627.837596 95.898496 
L 622.200266 95.773048 
L 615.937691 95.920658 
L 609.749566 96.312439 
L 603.468005 96.927781 
L 597.363683 97.743772 
L 591.746555 98.726767 
L 586.296101 99.961378 
L 581.772979 101.27057 
L 578.575471 102.41152 
L 575.684823 103.668007 
L 573.310997 104.97 
L 571.812249 106.076896 
L 571.114159 106.848392 
L 570.81624 107.568436 
L 570.848514 107.943023 
L 571.159103 108.424359 
L 571.689728 108.794658 
L 572.713346 109.19824 
L 574.405618 109.581678 
L 576.997563 109.914809 
L 581.485635 110.200437 
L 587.387981 110.328541 
L 595.342335 110.281001 
L 606.037601 109.976151 
L 617.135717 109.437413 
L 629.221408 108.617934 
L 658.642126 106.415012 
L 665.383451 106.202382 
L 672.527656 106.181026 
L 675.073586 106.223388 
L 675.073586 106.223388 
" style="fill:none;stroke:#000000;stroke-linecap:square;stroke-opacity:0.7;stroke-width:1.2;"/>
   </g>
   <g id="line2d_25">
    <path clip-path="url(#p6c783667e7)" d="M 675.028155 67.163214 
L 666.265209 65.102954 
L 658.27745 63.438253 
L 648.467265 61.636875 
L 639.173998 60.146704 
L 630.315408 58.927475 
L 621.307447 57.915329 
L 614.153416 57.308969 
L 607.820525 56.969056 
L 602.550214 56.882603 
L 597.206781 57.04181 
L 592.25703 57.475561 
L 588.488571 58.034794 
L 584.755291 58.826349 
L 581.619368 59.712352 
L 578.732953 60.749259 
L 576.905658 61.543437 
L 574.164926 63.011783 
L 572.822419 63.916014 
L 571.504803 65.045962 
L 570.844057 65.865671 
L 570.558226 66.567713 
L 570.622109 67.117774 
L 570.813804 67.398965 
L 571.310511 67.750107 
L 572.054635 68.023838 
L 574.189148 68.358291 
L 577.08697 68.471367 
L 582.171037 68.37275 
L 593.071784 67.841409 
L 606.923565 67.23533 
L 619.40151 66.92256 
L 640.145039 66.651691 
L 656.144154 66.63822 
L 675.058001 66.772336 
L 675.058001 66.772336 
" style="fill:none;stroke:#000000;stroke-linecap:square;stroke-opacity:0.7;stroke-width:1.2;"/>
   </g>
  </g>
 </g>
 <defs>
  <clipPath id="p6c783667e7">
   <rect height="262.08" width="694.08" x="12.96" y="12.96"/>
  </clipPath>
 </defs>
</svg>
