<?xml version="1.0" encoding="utf-8" standalone="no"?>
<!DOCTYPE svg PUBLIC "-//W3C//DTD SVG 1.1//EN"
  "http://www.w3.org/Graphics/SVG/1.1/DTD/svg11.dtd">
<!-- Created with matplotlib (https://matplotlib.org/) -->
<svg height="288pt" version="1.1" viewBox="0 0 720 288" width="720pt" xmlns="http://www.w3.org/2000/svg" xmlns:xlink="http://www.w3.org/1999/xlink">
 <metadata>
  <rdf:RDF xmlns:cc="http://creativecommons.org/ns#" xmlns:dc="http://purl.org/dc/elements/1.1/" xmlns:rdf="http://www.w3.org/1999/02/22-rdf-syntax-ns#">
   <cc:Work>
    <dc:type rdf:resource="http://purl.org/dc/dcmitype/StillImage"/>
    <dc:date>2021-05-05T23:12:45.003888</dc:date>
    <dc:format>image/svg+xml</dc:format>
    <dc:creator>
     <cc:Agent>
      <dc:title>Matplotlib v3.3.4, https://matplotlib.org/</dc:title>
     </cc:Agent>
    </dc:creator>
   </cc:Work>
  </rdf:RDF>
 </metadata>
 <defs>
  <style type="text/css">*{stroke-linecap:butt;stroke-linejoin:round;}</style>
 </defs>
 <g id="figure_1">
  <g id="patch_1">
   <path d="M 0 288 
L 720 288 
L 720 0 
L 0 0 
z
" style="fill:#ffffff;"/>
  </g>
  <g id="axes_1">
   <g id="line2d_1">
    <path clip-path="url(#p81800fb743)" d="M 148.743175 226.511465 
L 113.626578 221.307633 
L 105.876492 220.433028 
L 99.009582 219.884942 
L 92.643852 219.584322 
L 86.494561 219.486223 
L 80.160511 219.590903 
L 73.926683 219.917229 
L 67.616099 220.508222 
L 62.549743 221.215956 
L 58.802857 221.913968 
L 55.377821 222.730396 
L 52.117434 223.741223 
L 49.740891 224.71088 
L 48.148448 225.556651 
L 47.0221 226.346097 
L 46.160515 227.27032 
L 45.94438 227.81219 
L 46.020896 228.270813 
L 46.348409 228.613433 
L 46.955267 228.887846 
L 48.331184 229.136558 
L 49.870397 229.213527 
L 53.152097 229.137068 
L 60.930292 228.615481 
L 72.87983 227.830063 
L 82.437087 227.440489 
L 93.622915 227.258384 
L 118.330987 226.93769 
L 133.257945 226.847908 
L 148.734734 226.936431 
L 148.734734 226.936431 
" style="fill:none;stroke:#000000;stroke-linecap:square;stroke-opacity:0.7;stroke-width:1.2;"/>
   </g>
   <g id="line2d_2">
    <path clip-path="url(#p81800fb743)" d="M 148.973291 186.177291 
L 139.165785 183.909748 
L 108.797446 177.23908 
L 101.677896 175.947713 
L 95.705146 175.093499 
L 90.246984 174.538844 
L 85.715266 174.270386 
L 80.4502 174.21247 
L 76.11689 174.398465 
L 71.739309 174.830129 
L 67.193449 175.575625 
L 63.834465 176.352911 
L 60.463427 177.363177 
L 57.754531 178.375712 
L 54.959809 179.653501 
L 52.983971 180.738187 
L 50.647605 182.286077 
L 48.956647 183.675172 
L 47.633872 185.049586 
L 46.782667 186.248788 
L 46.326087 187.27619 
L 46.204002 188.08338 
L 46.303859 188.68287 
L 46.681826 189.324507 
L 47.655676 190.023437 
L 49.068196 190.499278 
L 50.715579 190.775634 
L 53.558808 190.950176 
L 56.758877 190.927718 
L 62.466404 190.634579 
L 73.434585 189.770538 
L 100.832888 187.581257 
L 119.604518 186.207943 
L 126.987916 185.865719 
L 133.786746 185.77824 
L 139.679651 185.930927 
L 145.716212 186.323333 
L 148.965302 186.628886 
L 148.965302 186.628886 
" style="fill:none;stroke:#000000;stroke-linecap:square;stroke-opacity:0.7;stroke-width:1.2;"/>
   </g>
   <g id="line2d_3">
    <path clip-path="url(#p81800fb743)" d="M 148.914551 146.980378 
L 103.604688 141.51138 
L 96.784454 141.070259 
L 90.028367 140.876141 
L 84.085471 140.90772 
L 77.801893 141.15423 
L 71.642767 141.628008 
L 66.263978 142.255482 
L 61.277952 143.049006 
L 56.286319 144.106233 
L 53.022146 144.996355 
L 50.116292 145.995672 
L 47.901756 146.991017 
L 46.795762 147.647933 
L 45.789632 148.530657 
L 45.498267 149.059546 
L 45.491147 149.53058 
L 45.693406 149.889462 
L 46.13249 150.243981 
L 47.256793 150.708656 
L 49.186764 151.111219 
L 52.406215 151.419369 
L 57.107859 151.549894 
L 63.436208 151.473675 
L 75.540883 151.057471 
L 94.756884 150.19715 
L 104.914605 149.494881 
L 118.272598 148.280909 
L 128.103305 147.482103 
L 134.840685 147.158344 
L 140.731242 147.092261 
L 146.418423 147.242292 
L 148.921517 147.374374 
L 148.921517 147.374374 
" style="fill:none;stroke:#000000;stroke-linecap:square;stroke-opacity:0.7;stroke-width:1.2;"/>
   </g>
   <g id="line2d_4">
    <path clip-path="url(#p81800fb743)" d="M 148.844596 107.863642 
L 126.596595 104.237979 
L 105.219735 100.634512 
L 98.100135 99.700345 
L 92.656818 99.195892 
L 86.735723 98.906789 
L 81.595446 98.884848 
L 75.794518 99.106759 
L 70.883943 99.498658 
L 66.365457 100.039725 
L 61.283894 100.899251 
L 57.155736 101.860162 
L 53.850441 102.876813 
L 50.885285 104.077456 
L 49.186439 104.959352 
L 47.564726 106.026843 
L 46.096234 107.397937 
L 45.48147 108.350022 
L 45.254279 109.289557 
L 45.399794 109.977225 
L 45.882505 110.619234 
L 46.777794 111.194649 
L 48.217184 111.685366 
L 49.800369 111.981734 
L 51.826437 112.181392 
L 55.53596 112.286411 
L 61.59083 112.147465 
L 99.289767 110.539161 
L 109.31305 109.891023 
L 129.372694 108.48708 
L 137.18388 108.225944 
L 144.896338 108.206951 
L 148.850106 108.280518 
L 148.850106 108.280518 
" style="fill:none;stroke:#000000;stroke-linecap:square;stroke-opacity:0.7;stroke-width:1.2;"/>
   </g>
   <g id="line2d_5">
    <path clip-path="url(#p81800fb743)" d="M 148.703054 68.784902 
L 141.903527 69.026106 
L 135.03776 69.028631 
L 128.088815 68.799974 
L 116.429944 68.136098 
L 104.680365 67.501737 
L 96.103975 67.25307 
L 82.963269 67.145426 
L 70.310879 67.208046 
L 61.350421 67.50044 
L 55.980817 67.857564 
L 50.813719 68.435326 
L 47.666017 69.021013 
L 46.180185 69.448832 
L 45.084716 69.950063 
L 44.562738 70.463611 
L 44.538343 70.864707 
L 44.756643 71.185317 
L 45.11866 71.460782 
L 45.812314 71.804451 
L 47.832556 72.420757 
L 50.857662 72.993447 
L 54.924172 73.506531 
L 61.178699 74.030608 
L 69.232946 74.462658 
L 78.290203 74.733206 
L 86.747929 74.758087 
L 93.678571 74.555444 
L 100.116236 74.145549 
L 106.202382 73.552843 
L 114.349066 72.516769 
L 129.254824 70.550946 
L 136.570646 69.822577 
L 143.877562 69.328283 
L 148.730554 69.126008 
L 148.730554 69.126008 
" style="fill:none;stroke:#000000;stroke-linecap:square;stroke-opacity:0.7;stroke-width:1.2;"/>
   </g>
   <g id="line2d_6">
    <path clip-path="url(#p81800fb743)" d="M 280.030791 227.604424 
L 270.500833 225.467297 
L 257.431164 222.771615 
L 247.805339 220.972975 
L 240.302301 219.765903 
L 233.467894 218.876825 
L 226.711845 218.227422 
L 220.262187 217.839932 
L 214.14508 217.708854 
L 209.025569 217.806352 
L 204.820752 218.051453 
L 199.698548 218.583553 
L 195.166601 219.303633 
L 191.675464 220.047661 
L 188.421586 220.9206 
L 185.391101 221.929236 
L 182.790967 222.9971 
L 180.895176 223.947474 
L 179.121698 225.054953 
L 178.096963 225.879104 
L 177.267422 226.802037 
L 176.867586 227.587161 
L 176.797339 228.197983 
L 176.939251 228.696166 
L 177.221524 229.098341 
L 177.94406 229.652154 
L 178.99888 230.120265 
L 180.563273 230.54863 
L 182.665253 230.900309 
L 186.315166 231.222656 
L 190.726809 231.367602 
L 197.560461 231.333513 
L 209.040254 230.985104 
L 234.407326 229.956881 
L 267.04516 228.325253 
L 278.886364 228.071552 
L 279.995126 228.058078 
L 279.995126 228.058078 
" style="fill:none;stroke:#000000;stroke-linecap:square;stroke-opacity:0.7;stroke-width:1.2;"/>
   </g>
   <g id="line2d_7">
    <path clip-path="url(#p81800fb743)" d="M 280.403623 187.111275 
L 273.283992 185.276502 
L 264.538558 183.263795 
L 254.198114 181.114785 
L 245.222581 179.454925 
L 237.768375 178.292361 
L 230.678346 177.448712 
L 225.798165 177.049901 
L 219.670995 176.770399 
L 214.078561 176.72049 
L 207.293547 176.91382 
L 201.385957 177.330888 
L 195.865488 177.994306 
L 192.174429 178.652887 
L 188.779249 179.496473 
L 187.007868 180.07162 
L 184.788918 180.988173 
L 182.943036 181.994621 
L 181.585597 182.947914 
L 180.327508 184.07866 
L 179.236914 185.384117 
L 178.856738 185.968737 
L 178.371586 186.930972 
L 178.030485 188.141133 
L 178.006009 188.927503 
L 178.178906 189.669843 
L 178.629853 190.404124 
L 179.501065 191.094982 
L 180.007361 191.343526 
L 181.391391 191.770352 
L 183.245709 192.047987 
L 186.134936 192.179082 
L 190.417426 192.091932 
L 200.735239 191.539311 
L 212.931429 190.948098 
L 244.260475 189.632615 
L 280.37965 187.625947 
L 280.37965 187.625947 
" style="fill:none;stroke:#000000;stroke-linecap:square;stroke-opacity:0.7;stroke-width:1.2;"/>
   </g>
   <g id="line2d_8">
    <path clip-path="url(#p81800fb743)" d="M 280.281034 148.148368 
L 270.59237 145.835773 
L 256.092134 142.625924 
L 246.63382 140.700287 
L 238.654081 139.305702 
L 232.607441 138.473611 
L 227.0781 137.930837 
L 222.128336 137.644255 
L 217.583217 137.555247 
L 212.532211 137.654852 
L 206.917966 138.014687 
L 202.201175 138.530051 
L 197.471467 139.26436 
L 192.825214 140.238426 
L 189.275945 141.196946 
L 185.659625 142.435372 
L 183.6898 143.26574 
L 181.692489 144.274145 
L 179.573865 145.649863 
L 178.164817 146.975948 
L 177.678788 147.716792 
L 177.470755 148.415303 
L 177.549993 149.00767 
L 177.84061 149.464877 
L 178.385923 149.892291 
L 179.23482 150.273126 
L 181.160213 150.722742 
L 183.922613 150.999339 
L 188.152904 151.106837 
L 194.751576 150.992795 
L 209.093431 150.449231 
L 228.632819 149.518461 
L 251.187085 148.400917 
L 260.389346 148.180903 
L 268.353771 148.205283 
L 276.417315 148.448273 
L 280.250974 148.629927 
L 280.250974 148.629927 
" style="fill:none;stroke:#000000;stroke-linecap:square;stroke-opacity:0.7;stroke-width:1.2;"/>
   </g>
   <g id="line2d_9">
    <path clip-path="url(#p81800fb743)" d="M 280.108503 109.225427 
L 272.577834 106.90097 
L 263.4387 104.335258 
L 253.252099 101.70894 
L 244.729595 99.733318 
L 237.714348 98.356587 
L 232.01127 97.481994 
L 227.063048 96.943445 
L 222.159975 96.629432 
L 217.423159 96.535944 
L 212.700958 96.646212 
L 208.127146 96.949412 
L 203.858827 97.417207 
L 199.296326 98.138019 
L 194.927411 99.081333 
L 190.851604 100.242368 
L 187.291065 101.552281 
L 184.712787 102.739367 
L 183.173832 103.580683 
L 181.118979 104.932367 
L 179.444863 106.369076 
L 178.367121 107.726062 
L 178.055069 108.415337 
L 177.967037 109.010495 
L 178.057065 109.449292 
L 178.276288 109.807352 
L 178.796191 110.220705 
L 179.67132 110.569662 
L 181.151385 110.842244 
L 182.694429 110.950496 
L 185.732418 110.935725 
L 191.553566 110.571659 
L 214.204244 108.778327 
L 222.791246 108.442337 
L 233.847334 108.279042 
L 247.619152 108.304608 
L 259.381665 108.554429 
L 270.331045 109.035743 
L 280.043612 109.661425 
L 280.043612 109.661425 
" style="fill:none;stroke:#000000;stroke-linecap:square;stroke-opacity:0.7;stroke-width:1.2;"/>
   </g>
   <g id="line2d_10">
    <path clip-path="url(#p81800fb743)" d="M 280.172502 69.359435 
L 242.955146 63.755129 
L 235.706769 62.940825 
L 228.892852 62.376298 
L 221.467479 61.988459 
L 214.578438 61.846418 
L 208.504681 61.928769 
L 202.819132 62.228944 
L 198.051155 62.68417 
L 193.317196 63.35803 
L 189.55314 64.086534 
L 186.199012 64.918737 
L 183.121921 65.887333 
L 181.098195 66.679258 
L 179.21615 67.594606 
L 177.782504 68.513021 
L 176.946767 69.274633 
L 176.521029 69.917419 
L 176.399671 70.499109 
L 176.486097 70.879514 
L 176.743761 71.270194 
L 177.303394 71.716802 
L 178.25242 72.167069 
L 180.294591 72.736266 
L 182.472345 73.108033 
L 186.560454 73.528686 
L 192.429688 73.834991 
L 199.936458 73.976896 
L 209.425804 73.929031 
L 219.097059 73.672497 
L 227.482511 73.257109 
L 236.741221 72.568818 
L 263.317667 70.370777 
L 271.646685 69.988769 
L 280.157861 69.804198 
L 280.157861 69.804198 
" style="fill:none;stroke:#000000;stroke-linecap:square;stroke-opacity:0.7;stroke-width:1.2;"/>
   </g>
   <g id="line2d_11">
    <path clip-path="url(#p81800fb743)" d="M 411.925417 226.770362 
L 399.262249 225.140453 
L 390.822377 223.83939 
L 366.890661 219.957089 
L 359.900632 219.163905 
L 353.599093 218.660945 
L 347.497563 218.384901 
L 341.85958 218.347991 
L 336.431324 218.551153 
L 331.68963 218.954153 
L 327.107436 219.577424 
L 322.754611 220.423333 
L 319.143294 221.357111 
L 315.853748 222.445645 
L 313.641561 223.349906 
L 310.756065 224.852232 
L 309.396161 225.784245 
L 308.368112 226.708823 
L 307.669586 227.69123 
L 307.479008 228.457955 
L 307.606064 229.017563 
L 307.866889 229.39815 
L 308.128708 229.640271 
L 309.245105 230.242145 
L 310.920028 230.71572 
L 313.045127 231.049165 
L 316.155496 231.295801 
L 321.307495 231.40674 
L 328.760489 231.269013 
L 341.492177 230.734091 
L 362.43325 229.619643 
L 375.229795 228.719675 
L 389.827669 227.699192 
L 398.590707 227.30794 
L 406.715257 227.160095 
L 411.915332 227.17033 
L 411.915332 227.17033 
" style="fill:none;stroke:#000000;stroke-linecap:square;stroke-opacity:0.7;stroke-width:1.2;"/>
   </g>
   <g id="line2d_12">
    <path clip-path="url(#p81800fb743)" d="M 411.758057 187.725865 
L 400.119752 186.317568 
L 386.461486 184.38224 
L 373.502822 182.608194 
L 366.434406 181.846539 
L 359.904012 181.339149 
L 353.19477 181.028369 
L 346.838798 180.930565 
L 340.274383 181.045165 
L 334.536077 181.352286 
L 328.882629 181.882278 
L 324.010463 182.566385 
L 320.190002 183.295531 
L 316.233681 184.297787 
L 313.292242 185.283574 
L 310.852208 186.367069 
L 309.511252 187.171866 
L 308.753313 187.806722 
L 308.389095 188.29552 
L 308.280195 188.734 
L 308.3506 188.993875 
L 308.671513 189.334891 
L 309.361252 189.65184 
L 310.636435 189.924897 
L 313.124334 190.117718 
L 316.7315 190.123977 
L 323.29098 189.862847 
L 348.863579 188.618299 
L 372.104129 187.680476 
L 384.882004 187.16504 
L 392.432278 187.065765 
L 399.723687 187.206458 
L 406.749811 187.589533 
L 411.785118 188.003782 
L 411.785118 188.003782 
" style="fill:none;stroke:#000000;stroke-linecap:square;stroke-opacity:0.7;stroke-width:1.2;"/>
   </g>
   <g id="line2d_13">
    <path clip-path="url(#p81800fb743)" d="M 411.927337 147.522276 
L 395.944402 145.717205 
L 376.645226 143.244104 
L 365.720246 141.978665 
L 357.763376 141.298107 
L 351.5283 140.984347 
L 346.923818 140.913352 
L 340.831212 141.062311 
L 335.234056 141.453714 
L 330.666201 141.953252 
L 325.406279 142.733554 
L 320.79288 143.619652 
L 316.91605 144.551263 
L 313.179232 145.702848 
L 311.445801 146.392735 
L 309.864951 147.222558 
L 309.077083 147.83419 
L 308.682132 148.36812 
L 308.600342 148.894856 
L 308.818285 149.345726 
L 309.158998 149.659977 
L 310.083501 150.151623 
L 312.180607 150.764104 
L 314.710493 151.197185 
L 318.82263 151.614867 
L 324.626138 151.923204 
L 332.754124 152.095936 
L 343.368596 152.08542 
L 352.999728 151.861067 
L 361.372045 151.447535 
L 370.139162 150.77964 
L 386.972453 149.164257 
L 396.236064 148.429769 
L 403.810143 148.044339 
L 410.843182 147.897951 
L 411.942091 147.895 
L 411.942091 147.895 
" style="fill:none;stroke:#000000;stroke-linecap:square;stroke-opacity:0.7;stroke-width:1.2;"/>
   </g>
   <g id="line2d_14">
    <path clip-path="url(#p81800fb743)" d="M 411.844191 108.693354 
L 398.824796 107.471855 
L 383.502728 105.761804 
L 371.124789 104.461496 
L 361.982135 103.738555 
L 355.297927 103.392289 
L 348.617443 103.24443 
L 342.558704 103.317264 
L 336.440151 103.605063 
L 330.023473 104.140893 
L 324.166347 104.852771 
L 319.067702 105.682649 
L 315.789926 106.358982 
L 312.257596 107.293188 
L 310.113337 108.063011 
L 308.579612 108.883455 
L 308.03038 109.437021 
L 307.929718 109.83519 
L 308.086467 110.168922 
L 308.593364 110.5313 
L 309.374335 110.823175 
L 310.674508 111.108648 
L 313.495603 111.425497 
L 316.807929 111.585553 
L 323.730013 111.647421 
L 342.021188 111.438229 
L 358.72862 111.108991 
L 371.90411 110.593036 
L 396.873592 109.554758 
L 411.84618 109.093951 
L 411.84618 109.093951 
" style="fill:none;stroke:#000000;stroke-linecap:square;stroke-opacity:0.7;stroke-width:1.2;"/>
   </g>
   <g id="line2d_15">
    <path clip-path="url(#p81800fb743)" d="M 412.177135 67.920547 
L 407.06704 66.505218 
L 400.27463 64.862086 
L 391.549528 63.036419 
L 382.411104 61.373322 
L 375.086559 60.238606 
L 368.54613 59.419261 
L 361.935294 58.826089 
L 356.534139 58.544831 
L 351.302692 58.457201 
L 345.342158 58.580085 
L 339.122262 58.969681 
L 333.941616 59.524884 
L 328.92377 60.311667 
L 324.674487 61.230327 
L 321.376986 62.158661 
L 318.177117 63.306246 
L 315.644053 64.455105 
L 313.428294 65.723237 
L 312.765384 66.175541 
L 311.102204 67.607627 
L 310.502927 68.412618 
L 310.255785 69.145055 
L 310.286083 69.501306 
L 310.511125 69.911944 
L 310.649268 70.04743 
L 311.65396 70.54114 
L 313.04703 70.807924 
L 315.490782 70.92987 
L 318.808986 70.825753 
L 324.908752 70.353127 
L 340.647102 69.037894 
L 349.733159 68.552564 
L 367.110442 67.917253 
L 382.50566 67.48614 
L 390.957706 67.461376 
L 398.491595 67.651511 
L 406.644216 68.088272 
L 412.15613 68.490512 
L 412.15613 68.490512 
" style="fill:none;stroke:#000000;stroke-linecap:square;stroke-opacity:0.7;stroke-width:1.2;"/>
   </g>
   <g id="line2d_16">
    <path clip-path="url(#p81800fb743)" d="M 543.112459 227.798126 
L 537.079281 227.77083 
L 531.588372 227.575861 
L 525.751422 227.18687 
L 517.472446 226.404516 
L 499.02906 224.562454 
L 492.057208 224.115157 
L 482.206811 223.728844 
L 468.152227 223.386086 
L 460.473454 223.393533 
L 455.937142 223.553706 
L 450.982438 223.94837 
L 447.287407 224.477716 
L 444.794641 225.021793 
L 442.703139 225.681167 
L 441.637148 226.146397 
L 440.4022 226.943503 
L 439.954567 227.451586 
L 439.758275 228.043015 
L 439.865126 228.499133 
L 440.164641 228.890439 
L 440.654848 229.256971 
L 441.719908 229.746867 
L 443.652531 230.278045 
L 446.441859 230.734712 
L 450.844404 231.139594 
L 457.098522 231.410066 
L 465.243416 231.507268 
L 477.124932 231.402985 
L 490.255629 231.06733 
L 501.103179 230.566196 
L 539.147941 228.364049 
L 543.144723 228.042572 
L 543.144723 228.042572 
" style="fill:none;stroke:#000000;stroke-linecap:square;stroke-opacity:0.7;stroke-width:1.2;"/>
   </g>
   <g id="line2d_17">
    <path clip-path="url(#p81800fb743)" d="M 542.803263 188.894392 
L 521.974326 185.067211 
L 504.681147 181.885849 
L 496.956867 180.697572 
L 490.782796 179.932973 
L 483.900885 179.308955 
L 478.495695 179.015043 
L 472.725907 178.930847 
L 467.889542 179.077664 
L 463.337348 179.428273 
L 459.120166 179.965966 
L 455.539463 180.609829 
L 452.291899 181.370583 
L 449.11278 182.316586 
L 446.704045 183.205541 
L 444.36413 184.270784 
L 442.411539 185.406964 
L 441.214795 186.326053 
L 440.404896 187.2166 
L 440.033958 188.034005 
L 440.053815 188.562763 
L 440.289512 188.993352 
L 440.715527 189.356472 
L 441.468328 189.717076 
L 442.664385 190.042318 
L 443.89516 190.24043 
L 447.515158 190.494728 
L 452.257443 190.534157 
L 462.251471 190.321247 
L 517.600884 188.918867 
L 528.863345 188.975575 
L 542.832658 189.091832 
L 542.832658 189.091832 
" style="fill:none;stroke:#000000;stroke-linecap:square;stroke-opacity:0.7;stroke-width:1.2;"/>
   </g>
   <g id="line2d_18">
    <path clip-path="url(#p81800fb743)" d="M 542.958222 149.379913 
L 535.368122 148.454972 
L 525.192026 146.962576 
L 504.150055 143.798386 
L 495.341719 142.753859 
L 487.631079 142.070129 
L 479.807514 141.627787 
L 472.959661 141.482169 
L 466.776465 141.589304 
L 461.083302 141.940554 
L 457.33274 142.338237 
L 452.823791 143.041147 
L 449.315548 143.810955 
L 447.151414 144.417542 
L 444.014348 145.558973 
L 442.211511 146.44186 
L 440.404473 147.703329 
L 439.68502 148.538196 
L 439.40383 149.194375 
L 439.389018 149.781467 
L 439.576008 150.282158 
L 440.018888 150.828155 
L 440.965124 151.502125 
L 442.854326 152.329777 
L 445.887428 153.192862 
L 449.643053 153.94258 
L 455.004257 154.717642 
L 461.404273 155.371704 
L 467.82398 155.795859 
L 473.946427 155.980797 
L 479.132325 155.951308 
L 485.320595 155.671442 
L 490.827074 155.190118 
L 497.557305 154.332985 
L 518.447022 151.347727 
L 525.945221 150.595535 
L 535.152847 149.923508 
L 542.993855 149.478439 
L 542.993855 149.478439 
" style="fill:none;stroke:#000000;stroke-linecap:square;stroke-opacity:0.7;stroke-width:1.2;"/>
   </g>
   <g id="line2d_19">
    <path clip-path="url(#p81800fb743)" d="M 543.627637 107.870022 
L 523.748889 104.900646 
L 506.732053 102.266099 
L 499.656314 101.421501 
L 493.75394 100.915457 
L 486.878376 100.556638 
L 479.936865 100.421946 
L 473.321846 100.504707 
L 467.199546 100.803668 
L 461.512288 101.332758 
L 457.000452 101.980127 
L 453.139785 102.748542 
L 449.999375 103.573173 
L 446.871318 104.654011 
L 444.781887 105.598817 
L 443.300539 106.446573 
L 442.731441 106.832942 
L 441.13589 108.257936 
L 440.447495 109.259615 
L 440.118651 110.156665 
L 440.049869 110.793515 
L 440.123092 111.440317 
L 440.425344 112.248258 
L 441.004007 113.088516 
L 441.533044 113.631991 
L 443.152144 114.813309 
L 444.971233 115.75293 
L 447.842028 116.849584 
L 450.651944 117.661526 
L 453.879699 118.388644 
L 458.370995 119.137525 
L 462.9465 119.653017 
L 467.840997 119.967425 
L 473.144323 120.055035 
L 478.35757 119.90285 
L 483.21199 119.567141 
L 489.342523 118.906538 
L 495.330755 118.038748 
L 502.270117 116.796219 
L 510.707171 115.021337 
L 531.677405 110.428635 
L 540.190652 108.869869 
L 543.646514 108.310016 
L 543.646514 108.310016 
" style="fill:none;stroke:#000000;stroke-linecap:square;stroke-opacity:0.7;stroke-width:1.2;"/>
   </g>
   <g id="line2d_20">
    <path clip-path="url(#p81800fb743)" d="M 542.832162 70.585535 
L 530.253032 68.509708 
L 509.228231 65.016777 
L 502.046251 64.053785 
L 494.770538 63.3134 
L 487.923911 62.851335 
L 480.316854 62.587183 
L 473.321946 62.575637 
L 467.491287 62.768399 
L 461.917472 63.171522 
L 457.074091 63.741545 
L 453.209974 64.381671 
L 450.116085 65.045091 
L 446.668937 65.995956 
L 443.980257 66.966988 
L 442.082214 67.867148 
L 440.774581 68.725694 
L 440.071649 69.493092 
L 439.917069 69.955639 
L 440.016465 70.380729 
L 440.310073 70.710096 
L 440.911956 71.056336 
L 441.888137 71.378504 
L 443.694963 71.715627 
L 447.014009 72.015282 
L 451.903132 72.169627 
L 459.361053 72.155003 
L 473.4077 71.867219 
L 487.422757 71.395419 
L 517.692145 70.180342 
L 526.79461 70.211174 
L 536.040536 70.461821 
L 542.859995 70.738506 
L 542.859995 70.738506 
" style="fill:none;stroke:#000000;stroke-linecap:square;stroke-opacity:0.7;stroke-width:1.2;"/>
   </g>
   <g id="line2d_21">
    <path clip-path="url(#p81800fb743)" d="M 675.490909 225.282706 
L 669.410475 223.863111 
L 661.326711 222.215357 
L 626.116481 215.534522 
L 620.794428 214.852518 
L 616.353165 214.465928 
L 611.641479 214.265969 
L 606.991066 214.302141 
L 602.730633 214.553382 
L 598.161025 215.068843 
L 593.762471 215.822823 
L 590.005157 216.687031 
L 587.081221 217.517552 
L 583.305845 218.830314 
L 581.06084 219.766528 
L 577.989888 221.296035 
L 575.836715 222.612703 
L 574.169482 223.862685 
L 572.422485 225.666207 
L 571.722556 227.017642 
L 571.639266 227.72118 
L 571.773227 228.303018 
L 572.027295 228.727572 
L 572.489618 229.171879 
L 573.635474 229.777095 
L 575.235493 230.22064 
L 577.24969 230.508162 
L 580.054313 230.664503 
L 584.777923 230.610704 
L 592.028669 230.183552 
L 607.813447 228.893286 
L 649.467326 225.555357 
L 657.279811 225.225956 
L 663.655868 225.201571 
L 670.572292 225.440287 
L 675.475942 225.755063 
L 675.475942 225.755063 
" style="fill:none;stroke:#000000;stroke-linecap:square;stroke-opacity:0.7;stroke-width:1.2;"/>
   </g>
   <g id="line2d_22">
    <path clip-path="url(#p81800fb743)" d="M 675.076438 187.417102 
L 639.885518 182.305198 
L 632.15274 181.442242 
L 625.015901 180.879289 
L 618.115662 180.574668 
L 611.523941 180.513339 
L 605.903345 180.650499 
L 599.980826 181.001863 
L 594.05387 181.588229 
L 588.827619 182.327242 
L 583.608917 183.319838 
L 580.040902 184.192934 
L 576.158235 185.415141 
L 574.299487 186.163167 
L 572.238754 187.243035 
L 571.35963 187.903651 
L 570.85487 188.584824 
L 570.852941 188.949881 
L 571.192539 189.289636 
L 571.793496 189.499304 
L 573.363583 189.670022 
L 575.709044 189.648256 
L 580.706691 189.30851 
L 602.625465 187.536729 
L 611.769355 187.101169 
L 621.084741 186.902483 
L 637.019621 186.859295 
L 653.446617 186.993564 
L 663.690459 187.273825 
L 675.066372 187.783702 
L 675.066372 187.783702 
" style="fill:none;stroke:#000000;stroke-linecap:square;stroke-opacity:0.7;stroke-width:1.2;"/>
   </g>
   <g id="line2d_23">
    <path clip-path="url(#p81800fb743)" d="M 674.793135 148.752639 
L 665.008303 147.89383 
L 653.721637 146.657572 
L 635.017696 144.561201 
L 626.010233 143.827455 
L 618.079969 143.410166 
L 610.137103 143.23017 
L 603.954416 143.281366 
L 597.727965 143.52776 
L 591.530957 143.990302 
L 586.256135 144.583184 
L 581.5017 145.32184 
L 578.28909 145.981662 
L 575.290942 146.800354 
L 573.487102 147.48525 
L 572.387183 148.087396 
L 571.838223 148.559212 
L 571.564457 149.063197 
L 571.617872 149.53161 
L 571.915332 149.927748 
L 572.363139 150.261291 
L 573.284324 150.710123 
L 574.740804 151.192076 
L 577.178275 151.754766 
L 580.76679 152.338201 
L 586.63265 152.997174 
L 594.114174 153.556399 
L 601.638322 153.910941 
L 610.858148 154.099381 
L 618.643485 154.02661 
L 625.719719 153.745754 
L 632.725867 153.264485 
L 643.015038 152.312339 
L 674.79417 149.117112 
L 674.79417 149.117112 
" style="fill:none;stroke:#000000;stroke-linecap:square;stroke-opacity:0.7;stroke-width:1.2;"/>
   </g>
   <g id="line2d_24">
    <path clip-path="url(#p81800fb743)" d="M 675.139 108.24685 
L 662.013402 105.958519 
L 627.53459 100.233395 
L 620.589806 99.349043 
L 614.710674 98.823288 
L 610.444135 98.614841 
L 606.517069 98.578158 
L 601.486055 98.777779 
L 596.778883 99.240329 
L 593.299057 99.76751 
L 589.693346 100.493157 
L 586.191871 101.389666 
L 582.936851 102.41644 
L 579.972964 103.546366 
L 577.334215 104.755535 
L 574.594388 106.320837 
L 573.324284 107.241425 
L 572.38927 108.102435 
L 571.67009 109.145862 
L 571.548839 109.819278 
L 571.689554 110.258224 
L 571.972651 110.598218 
L 572.548865 110.974907 
L 573.586064 111.355136 
L 575.18318 111.6815 
L 577.840894 111.955105 
L 582.200862 112.108328 
L 588.998215 112.049926 
L 598.566864 111.708675 
L 610.824077 111.029877 
L 622.662002 110.146599 
L 650.02145 107.951309 
L 657.038567 107.764846 
L 662.925227 107.831694 
L 669.531489 108.164565 
L 675.131162 108.655953 
L 675.131162 108.655953 
" style="fill:none;stroke:#000000;stroke-linecap:square;stroke-opacity:0.7;stroke-width:1.2;"/>
   </g>
   <g id="line2d_25">
    <path clip-path="url(#p81800fb743)" d="M 674.788227 69.81909 
L 638.867213 60.96323 
L 630.938509 59.241222 
L 624.296771 58.052875 
L 618.517105 57.257263 
L 613.741184 56.795099 
L 608.844617 56.533089 
L 604.05644 56.514657 
L 599.306127 56.761064 
L 594.89587 57.257018 
L 591.196101 57.898033 
L 587.625179 58.74055 
L 584.2048 59.791632 
L 580.686226 61.187035 
L 578.446328 62.296274 
L 576.212118 63.649935 
L 574.220426 65.190683 
L 572.858721 66.597342 
L 571.953323 67.939135 
L 571.433048 69.357067 
L 571.377847 70.524038 
L 571.621424 71.481269 
L 572.083976 72.321585 
L 572.935313 73.27107 
L 574.262041 74.256422 
L 575.77259 75.069768 
L 578.359321 76.098456 
L 581.097086 76.914855 
L 584.260686 77.652689 
L 589.090854 78.505524 
L 594.62873 79.193822 
L 598.880407 79.547588 
L 604.324945 79.790206 
L 609.637851 79.800101 
L 615.486286 79.55995 
L 621.270988 79.087547 
L 626.887147 78.439235 
L 634.776252 77.288746 
L 646.816176 75.257672 
L 670.199039 71.09663 
L 674.810681 70.160099 
L 674.810681 70.160099 
" style="fill:none;stroke:#000000;stroke-linecap:square;stroke-opacity:0.7;stroke-width:1.2;"/>
   </g>
  </g>
 </g>
 <defs>
  <clipPath id="p81800fb743">
   <rect height="262.08" width="694.08" x="12.96" y="12.96"/>
  </clipPath>
 </defs>
</svg>
