<svg viewBox="0 0 1496 400" xmlns="http://www.w3.org/2000/svg"><g><g><g><g><g><line x1="51.5625" y1="378" x2="46.5625" y2="378" style="visibility: inherit;" fill="rgb(0, 0, 0)" stroke="rgb(204, 204, 204)" stroke-width="1px"></line><line x1="51.5625" y1="346.5" x2="46.5625" y2="346.5" style="visibility: inherit;" fill="rgb(0, 0, 0)" stroke="rgb(204, 204, 204)" stroke-width="1px"></line><line x1="51.5625" y1="315" x2="46.5625" y2="315" style="visibility: inherit;" fill="rgb(0, 0, 0)" stroke="rgb(204, 204, 204)" stroke-width="1px"></line><line x1="51.5625" y1="283.5" x2="46.5625" y2="283.5" style="visibility: inherit;" fill="rgb(0, 0, 0)" stroke="rgb(204, 204, 204)" stroke-width="1px"></line><line x1="51.5625" y1="252.00000000000003" x2="46.5625" y2="252.00000000000003" style="visibility: inherit;" fill="rgb(0, 0, 0)" stroke="rgb(204, 204, 204)" stroke-width="1px"></line><line x1="51.5625" y1="220.5" x2="46.5625" y2="220.5" style="visibility: inherit;" fill="rgb(0, 0, 0)" stroke="rgb(204, 204, 204)" stroke-width="1px"></line><line x1="51.5625" y1="189.00000000000003" x2="46.5625" y2="189.00000000000003" style="visibility: inherit;" fill="rgb(0, 0, 0)" stroke="rgb(204, 204, 204)" stroke-width="1px"></line><line x1="51.5625" y1="157.50000000000003" x2="46.5625" y2="157.50000000000003" style="visibility: inherit;" fill="rgb(0, 0, 0)" stroke="rgb(204, 204, 204)" stroke-width="1px"></line><line x1="51.5625" y1="126.00000000000006" x2="46.5625" y2="126.00000000000006" style="visibility: inherit;" fill="rgb(0, 0, 0)" stroke="rgb(204, 204, 204)" stroke-width="1px"></line><line x1="51.5625" y1="94.50000000000004" x2="46.5625" y2="94.50000000000004" style="visibility: inherit;" fill="rgb(0, 0, 0)" stroke="rgb(204, 204, 204)" stroke-width="1px"></line><line x1="51.5625" y1="63.00000000000003" x2="46.5625" y2="63.00000000000003" style="visibility: inherit;" fill="rgb(0, 0, 0)" stroke="rgb(204, 204, 204)" stroke-width="1px"></line><line x1="51.5625" y1="31.500000000000014" x2="46.5625" y2="31.500000000000014" style="visibility: inherit;" fill="rgb(0, 0, 0)" stroke="rgb(204, 204, 204)" stroke-width="1px"></line><line x1="51.5625" y1="0" x2="46.5625" y2="0" style="visibility: inherit;" fill="rgb(0, 0, 0)" stroke="rgb(204, 204, 204)" stroke-width="1px"></line></g><g transform="translate(41.5625, 0)"><text x="0" y="378" dx="0em" dy="0.3em" style="text-anchor: end; visibility: hidden; font-family: Roboto, sans-serif; font-size: 12px; font-weight: 200;" fill="rgb(50, 49, 63)" stroke="none" stroke-width="1px">-0.1</text><text x="0" y="346.5" dx="0em" dy="0.3em" style="text-anchor: end; visibility: inherit; font-family: Roboto, sans-serif; font-size: 12px; font-weight: 200;" fill="rgb(50, 49, 63)" stroke="none" stroke-width="1px">0</text><text x="0" y="315" dx="0em" dy="0.3em" style="text-anchor: end; visibility: inherit; font-family: Roboto, sans-serif; font-size: 12px; font-weight: 200;" fill="rgb(50, 49, 63)" stroke="none" stroke-width="1px">0.1</text><text x="0" y="283.5" dx="0em" dy="0.3em" style="text-anchor: end; visibility: inherit; font-family: Roboto, sans-serif; font-size: 12px; font-weight: 200;" fill="rgb(50, 49, 63)" stroke="none" stroke-width="1px">0.2</text><text x="0" y="252.00000000000003" dx="0em" dy="0.3em" style="text-anchor: end; visibility: inherit; font-family: Roboto, sans-serif; font-size: 12px; font-weight: 200;" fill="rgb(50, 49, 63)" stroke="none" stroke-width="1px">0.3</text><text x="0" y="220.5" dx="0em" dy="0.3em" style="text-anchor: end; visibility: inherit; font-family: Roboto, sans-serif; font-size: 12px; font-weight: 200;" fill="rgb(50, 49, 63)" stroke="none" stroke-width="1px">0.4</text><text x="0" y="189.00000000000003" dx="0em" dy="0.3em" style="text-anchor: end; visibility: inherit; font-family: Roboto, sans-serif; font-size: 12px; font-weight: 200;" fill="rgb(50, 49, 63)" stroke="none" stroke-width="1px">0.5</text><text x="0" y="157.50000000000003" dx="0em" dy="0.3em" style="text-anchor: end; visibility: inherit; font-family: Roboto, sans-serif; font-size: 12px; font-weight: 200;" fill="rgb(50, 49, 63)" stroke="none" stroke-width="1px">0.6</text><text x="0" y="126.00000000000006" dx="0em" dy="0.3em" style="text-anchor: end; visibility: inherit; font-family: Roboto, sans-serif; font-size: 12px; font-weight: 200;" fill="rgb(50, 49, 63)" stroke="none" stroke-width="1px">0.7</text><text x="0" y="94.50000000000004" dx="0em" dy="0.3em" style="text-anchor: end; visibility: inherit; font-family: Roboto, sans-serif; font-size: 12px; font-weight: 200;" fill="rgb(50, 49, 63)" stroke="none" stroke-width="1px">0.8</text><text x="0" y="63.00000000000003" dx="0em" dy="0.3em" style="text-anchor: end; visibility: inherit; font-family: Roboto, sans-serif; font-size: 12px; font-weight: 200;" fill="rgb(50, 49, 63)" stroke="none" stroke-width="1px">0.9</text><text x="0" y="31.500000000000014" dx="0em" dy="0.3em" style="text-anchor: end; visibility: inherit; font-family: Roboto, sans-serif; font-size: 12px; font-weight: 200;" fill="rgb(50, 49, 63)" stroke="none" stroke-width="1px">1</text><text x="0" y="0" dx="0em" dy="0.3em" style="text-anchor: end; visibility: hidden; font-family: Roboto, sans-serif; font-size: 12px; font-weight: 200;" fill="rgb(50, 49, 63)" stroke="none" stroke-width="1px">1.1</text></g><line x1="51.5625" y1="0" x2="51.5625" y2="378" fill="rgb(0, 0, 0)" stroke="rgb(204, 204, 204)" stroke-width="1px"></line></g></g><g transform="translate(51, 0)" clip-path="url(#clip_0)"><clipPath id="clip_0"><rect width="1444" height="378"></rect></clipPath><g><g><g><line x1="0" y1="0" x2="0" y2="378" fill="rgb(0, 0, 0)" stroke="rgb(60, 60, 60)" stroke-width="1px" opacity="0.25"></line><line x1="120.36979166666666" y1="0" x2="120.36979166666666" y2="378" fill="rgb(0, 0, 0)" stroke="rgb(60, 60, 60)" stroke-width="1px" opacity="0.25"></line><line x1="240.73958333333331" y1="0" x2="240.73958333333331" y2="378" fill="rgb(0, 0, 0)" stroke="rgb(60, 60, 60)" stroke-width="1px" opacity="0.25"></line><line x1="361.109375" y1="0" x2="361.109375" y2="378" fill="rgb(0, 0, 0)" stroke="rgb(60, 60, 60)" stroke-width="1px" opacity="0.25"></line><line x1="481.47916666666663" y1="0" x2="481.47916666666663" y2="378" fill="rgb(0, 0, 0)" stroke="rgb(60, 60, 60)" stroke-width="1px" opacity="0.25"></line><line x1="601.8489583333334" y1="0" x2="601.8489583333334" y2="378" fill="rgb(0, 0, 0)" stroke="rgb(60, 60, 60)" stroke-width="1px" opacity="0.25"></line><line x1="722.21875" y1="0" x2="722.21875" y2="378" fill="rgb(0, 0, 0)" stroke="rgb(60, 60, 60)" stroke-width="1px" opacity="0.25"></line><line x1="842.5885416666667" y1="0" x2="842.5885416666667" y2="378" fill="rgb(0, 0, 0)" stroke="rgb(60, 60, 60)" stroke-width="1px" opacity="0.25"></line><line x1="962.9583333333333" y1="0" x2="962.9583333333333" y2="378" fill="rgb(0, 0, 0)" stroke="rgb(60, 60, 60)" stroke-width="1px" opacity="0.25"></line><line x1="1083.328125" y1="0" x2="1083.328125" y2="378" fill="rgb(0, 0, 0)" stroke="rgb(60, 60, 60)" stroke-width="1px" opacity="0.25"></line><line x1="1203.6979166666667" y1="0" x2="1203.6979166666667" y2="378" fill="rgb(0, 0, 0)" stroke="rgb(60, 60, 60)" stroke-width="1px" opacity="0.25"></line><line x1="1324.0677083333333" y1="0" x2="1324.0677083333333" y2="378" fill="rgb(0, 0, 0)" stroke="rgb(60, 60, 60)" stroke-width="1px" opacity="0.25"></line><line x1="1444.4375" y1="0" x2="1444.4375" y2="378" fill="rgb(0, 0, 0)" stroke="rgb(60, 60, 60)" stroke-width="1px" opacity="0.25"></line></g><g><line x1="0" y1="378" x2="1444.4375" y2="378" fill="rgb(0, 0, 0)" stroke="rgb(60, 60, 60)" stroke-width="1px" opacity="0.25"></line><line x1="0" y1="346.5" x2="1444.4375" y2="346.5" fill="rgb(0, 0, 0)" stroke="rgb(60, 60, 60)" stroke-width="1px" opacity="0.25"></line><line x1="0" y1="315" x2="1444.4375" y2="315" fill="rgb(0, 0, 0)" stroke="rgb(60, 60, 60)" stroke-width="1px" opacity="0.25"></line><line x1="0" y1="283.5" x2="1444.4375" y2="283.5" fill="rgb(0, 0, 0)" stroke="rgb(60, 60, 60)" stroke-width="1px" opacity="0.25"></line><line x1="0" y1="252.00000000000003" x2="1444.4375" y2="252.00000000000003" fill="rgb(0, 0, 0)" stroke="rgb(60, 60, 60)" stroke-width="1px" opacity="0.25"></line><line x1="0" y1="220.5" x2="1444.4375" y2="220.5" fill="rgb(0, 0, 0)" stroke="rgb(60, 60, 60)" stroke-width="1px" opacity="0.25"></line><line x1="0" y1="189.00000000000003" x2="1444.4375" y2="189.00000000000003" fill="rgb(0, 0, 0)" stroke="rgb(60, 60, 60)" stroke-width="1px" opacity="0.25"></line><line x1="0" y1="157.50000000000003" x2="1444.4375" y2="157.50000000000003" fill="rgb(0, 0, 0)" stroke="rgb(60, 60, 60)" stroke-width="1px" opacity="0.25"></line><line x1="0" y1="126.00000000000006" x2="1444.4375" y2="126.00000000000006" fill="rgb(0, 0, 0)" stroke="rgb(60, 60, 60)" stroke-width="1px" opacity="0.25"></line><line x1="0" y1="94.50000000000004" x2="1444.4375" y2="94.50000000000004" fill="rgb(0, 0, 0)" stroke="rgb(60, 60, 60)" stroke-width="1px" opacity="0.25"></line><line x1="0" y1="63.00000000000003" x2="1444.4375" y2="63.00000000000003" fill="rgb(0, 0, 0)" stroke="rgb(60, 60, 60)" stroke-width="1px" opacity="0.25"></line><line x1="0" y1="31.500000000000014" x2="1444.4375" y2="31.500000000000014" fill="rgb(0, 0, 0)" stroke="rgb(60, 60, 60)" stroke-width="1px" opacity="0.25"></line><line x1="0" y1="0" x2="1444.4375" y2="0" fill="rgb(0, 0, 0)" stroke="rgb(60, 60, 60)" stroke-width="1px" opacity="0.25"></line></g></g></g><g><g><line x1="0" y1="346.5" x2="1444.4375" y2="346.5" fill="rgb(0, 0, 0)" stroke="rgb(153, 153, 153)" stroke-width="1.5px"></line></g></g><g><g><line x1="120.36979166666666" y1="0" x2="120.36979166666666" y2="378" fill="rgb(0, 0, 0)" stroke="rgb(153, 153, 153)" stroke-width="1.5px"></line></g></g><g><g><g><g><g><path stroke="rgb(255, 112, 67)" stroke-width="2px" d="M123.37903645833333,71.82993882894523L123.98088541666667,75.43717467784887L126.38828124999999,98.72276687622075L126.99013020833334,97.4510672092438L128.19382812499998,106.56385087966923L128.79567708333335,121.26370543241507L129.39752604166668,121.93939679861074L130.60122395833335,123.63619172573092L131.20307291666666,135.191475391388L131.804921875,139.73600113391882L132.40677083333333,144.71677476167685L134.81416666666667,158.69362378120425L140.23080729166665,201.21024692058566L140.83265625,202.98572042584425L142.03635416666665,212.33543166518214L143.84190104166666,224.37486881017688L144.44375,229.61814218759537L145.64744791666666,237.0359239876271L146.85114583333333,244.173247307539L147.45299479166667,242.25339049100876L148.65669270833334,255.26439213752747L149.86039062499998,262.21003675460815L150.46223958333334,266.90494456887245L152.26778645833335,271.76982195675373L152.86963541666668,276.90295846760273L153.471484375,275.997225433588L154.07333333333335,278.2100404947996L154.67518229166666,278.5808418095112L156.48072916666666,283.8434679955244L157.082578125,285.1310798674822L158.28627604166667,287.8151355832815L159.48997395833334,289.7687647640705L160.09182291666667,288.6196500957012L160.693671875,292.83637972176075L161.29552083333334,292.31840224564075L163.10106770833332,294.4520881175995L163.70291666666665,293.7385548055172L164.30476562500002,296.0779211819172L164.90661458333332,296.44919188320637L166.11031250000002,295.64934776723385L167.915859375,301.16418474912643L170.92510416666667,303.56537403166294L171.526953125,305.27611443400383L172.12880208333334,304.43367348611355L172.73065104166668,303.4800254702568L173.33249999999998,305.02765403687954L173.93434895833335,306.9805838316679L176.94359375,307.70456099510193L181.75838541666664,309.2764826640487L183.56393229166665,310.71321630477905L184.16578125,307.6572139710188L188.37872395833332,312.94850090146065L190.18427083333333,311.13546708226204L191.38796875,310.71182692050934L191.9898177083333,313.87701561301947L192.59166666666667,311.8595005720854L194.9990625,314.68888776004314L195.60091145833331,311.8604346513748L196.20276041666668,315.00783828645945L198.00830729166668,313.5893684774637L198.61015625000002,315.2708966061473L200.41570312500002,313.0044869855046L202.82309895833333,315.2028120830655L204.02679687499997,316.6344458386302L205.23049479166667,316.0894434303045L205.83234374999998,315.2639755010605L206.43419270833334,316.4944231286645L207.03604166666668,315.02662079036236L209.4434375,315.08075749129057L210.64713541666669,315.9022473692894L212.4526822916667,316.8035329654813L213.05453125,316.86554127931595L213.65638020833333,317.87641455978155L214.860078125,317.76954931765795L215.46192708333334,316.7175882831216L216.06377604166667,317.53471990674734L217.86932291666668,316.3201868310571L219.07302083333335,316.29376271367073L219.67486979166665,316.5891077890992L220.87856770833335,318.29307259619236L221.48041666666666,317.4001139178872L223.28596354166666,319.4932588711381L226.29520833333333,316.4354024603963L226.89705729166664,318.7426440194249L227.49890625,316.8959434479475L228.70260416666665,317.60242422670126L229.304453125,319.2914836630225L230.50815104166665,319.1851558685303L231.71184895833335,318.57441352307796L232.31369791666665,317.8293679431081L232.91554687500002,319.4776705428958L233.51739583333332,317.6721586436033L234.72109375,317.98618061095476L235.32294270833333,319.2525011077523L239.53588541666667,319.2369174733758L241.94328125,319.69364938884974L244.35067708333332,320.01896949112415L244.95252604166666,320.78809460252523L245.55437500000002,318.17824890464544L247.96177083333333,319.5468440428376L249.76731770833334,320.6460018977523L251.57286458333334,318.41419545561075L252.17471354166668,320.7833584919572L253.98026041666668,318.9590101093054L254.582109375,320.8004558980465L255.78580729166669,321.242817543447L256.38765624999996,318.671250320971L256.98950520833336,321.1196575462818L258.19320312499997,320.74198910593987L258.79505208333336,318.8944201692939L259.99875,319.3127398341894L260.60059895833336,320.5921374410391L261.2024479166667,319.83947371691465L263.0079947916667,320.6259403154254L264.81354166666665,320.71324856579304L267.8227864583333,320.3139155879617L269.026484375,321.0138765871525L270.23018229166667,320.1918915063143L270.83203125,321.51867838203907L273.8412760416667,321.14563105255365L275.6468229166667,321.1162826567888L276.248671875,320.681724563241L276.85052083333335,321.9230619594455L277.4523697916667,321.0786425471306L278.6560677083333,321.7253023535013L281.06346354166664,321.51846246421337L282.2671614583333,321.2850412130356L283.47085937500003,321.38300923258066L284.67455729166664,322.2763387262821L287.6838020833333,321.8179616108537L288.8875,320.21838603168726L291.2948958333333,320.6734727472067L294.304140625,322.16593900322914L295.5078385416667,321.8985318168998L296.1096875,320.6557275876403L297.915234375,320.60102762281895L299.1189322916667,321.1243467181921L299.72078124999996,320.1408105120063L300.32263020833335,321.38795656710863L301.52632812499996,321.9173753410578L302.12817708333336,320.7259783297777L302.7300260416667,321.51436471939087L305.137421875,320.9759501516819L305.73927083333336,320.87148347496986L306.94296875,321.0184202492237L308.748515625,320.86674501746893L311.1559114583333,322.66371642798185L311.75776041666666,320.9816766679287L312.359609375,321.4343788996339L312.9614583333333,320.4882927015424L314.16515625,320.24171923846006L315.970703125,322.6064536124468L316.57255208333333,321.9757693782449L317.17440104166667,322.99131305515766L318.9799479166667,320.45763237029314L319.581796875,322.6946701258421L320.7854947916667,321.5292630493641L324.3965885416667,323.02878418564796L325.6002864583333,322.4126626700163L327.4058333333333,320.74477256834507L328.00768229166664,322.7585958838463L329.2113802083333,322.8167270645499L329.81322916666664,322.4756801649928L332.8224739583333,322.684568926692L333.42432291666665,321.71639104932547L334.6280208333333,322.9798881858587L335.83171875,321.7862522006035L336.4335677083333,323.11022275686264L337.03541666666666,322.92476812005043L338.84096354166667,322.83636854588985L339.4428125,321.8033097088337L341.248359375,323.13263127207756L341.85020833333334,321.44670029729605L343.05390625,321.5092202425003L343.65575520833335,322.94615337252617L344.85945312499996,322.5313940048218L347.26684895833336,322.0038879811764L347.8686979166667,323.2394542694092L348.47054687499997,322.62761590629816L349.6742447916667,322.6964913457632L350.27609375,322.6323872208595L352.081640625,322.6748268082738L352.6834895833333,321.7877002581954L353.2853385416667,321.35328298062086L353.8871875,322.6424860730767L355.09088541666665,322.5056223347783L355.692734375,323.33967534452677L356.2945833333333,323.38095085322857L356.89643229166666,321.7852242439985L362.31307291666667,321.62588158249855L362.91492187499995,323.29505310952663L364.1186197916667,322.34166795015335L365.9241666666667,322.0906846001744L370.13710937499997,322.3714434877038L370.7389583333333,323.048087708652L373.1463541666667,323.50723696500063L373.748203125,322.52418657392263L374.3500520833333,323.00211598724127L375.55375000000004,322.05279806256294L376.75744791666665,322.2790330052376L379.16484375,322.7228661775589L384.581484375,322.90739377588034L385.18333333333334,322.31551373004913L385.7851822916667,322.32970328629017L386.38703125,322.8420856744051L387.5907291666666,322.3730300143361L388.192578125,322.29160787165165L389.998125,323.76381070911884L391.80367187499996,323.0551120787859L396.01661458333336,323.78134229779243L396.6184635416667,323.5804964751005L397.22031250000003,322.6189651116729L397.8221614583333,322.5367379710078L399.025859375,323.5011208578944L399.6277083333333,323.3981961160898L400.2295572916667,321.6608884334564L401.4332552083333,322.40539891272783L402.03510416666666,323.5656709000468L402.636953125,322.42670671641827L403.8406510416667,322.7249267846346L405.04434895833333,322.69201574474573L405.64619791666667,322.75287640839815L408.05359374999995,323.4892594590783L412.2665364583333,322.26278284192085L414.07208333333335,323.4651024788618L414.6739322916667,323.1927244886756L415.8776302083333,322.4529360383749L417.081328125,322.07199362665415L418.886875,321.9012894630432L425.50721354166666,322.47312200814486L427.31276041666666,322.529272377491L427.914609375,323.38054248690605L428.5164583333334,322.38467314839363L429.72015625,323.2919621989131L430.9238541666667,323.64878518134356L431.525703125,322.56085035949945L432.7294010416666,322.71377650648355L435.73864583333335,322.45518205314875L436.34049479166663,323.5503430813551L439.95158854166664,322.70016664266586L441.15528645833336,323.853099770844L441.7571354166667,323.5081287994981L442.35898437500003,323.34614818543196L442.9608333333333,322.86970438063145L443.56268229166665,323.2433877289295L444.16453125,323.8090384528041L444.7663802083333,322.98802030831575L445.3682291666667,323.84001092612743L445.97007812500004,322.5637441277504L446.5719270833333,322.62677101045847L447.775625,322.5645632073283L449.58117187500005,322.30986700952053L450.18302083333333,323.599497243762L450.78486979166667,322.7448498979211L451.98856770833333,322.8305974379182L454.3959635416667,322.80020935088396L455.59966145833334,322.1438097730279L456.80335937499996,322.83539222180843L459.21075520833335,323.6765634790063L459.8126041666667,323.7487199306488L460.41445312499997,323.9461392313242L461.61815104166664,322.9555974304676L462.82184895833336,323.96820978820324L464.025546875,322.4712937474251L465.22924479166664,323.802898876369L465.83109375000004,324.0005880743265L467.636640625,323.71529960632324L468.84033854166665,322.68560157716274L469.4421875,323.52433202415705L470.0440364583334,323.41856514662504L470.64588541666666,323.4654615595937L471.247734375,322.99804171174765L471.8495833333333,323.6777721494436L473.05328125,323.9246647953987L473.6551302083334,322.46796814352274L476.664375,323.1177939623594L477.26622395833334,323.65837240219116L478.469921875,324.2155178412795L479.07177083333335,324.0156858935952L479.6736197916667,323.9403117969632L481.47916666666663,324.00717122107744L482.68286458333336,323.9354677274823L483.8865625,322.42613875865936L485.09026041666664,323.85426384955645L486.29395833333336,324.1476773992181L487.49765625000003,324.2255814895034L488.0995052083333,322.97874288260937L488.70135416666665,323.9333883449435L490.5069010416667,323.7515198215842L492.914296875,323.6470062062144L493.5161458333333,323.6056579425931L494.71984375000005,322.81780430674553L495.32169270833333,323.0204807370901L496.525390625,323.8248614743352L498.9327864583333,323.2215448245406L501.94203124999996,323.5255712047219L506.1549739583333,323.0941321849823L506.75682291666664,322.6571755260229L507.96052083333336,324.08756540715694L508.5623697916667,324.3051706776023L509.16421875,323.4119068980217L509.7660677083333,323.8711781948805L510.36791666666664,323.8269760608673L510.96976562500004,323.68917589634657L512.1734635416666,322.9648560807109L512.7753124999999,323.69182793051004L515.1827083333334,324.266441591084L515.7845572916666,323.40785843878984L516.9882552083333,323.86448239535093L518.191953125,324.19644666463137L519.9975,324.1323002949357L521.2011979166667,323.2468283325434L521.8030468750001,322.7027693912387L522.4048958333334,324.1074157655239L524.2104427083333,323.3857151269913L524.8122916666666,324.1844632253051L525.4141406250001,323.38101187348366L526.0159895833334,324.0765700265765L526.6178385416666,323.1111756116152L527.8215364583333,323.3611427396536L528.4233854166666,324.0978919118643L529.0252343750001,323.32846639305353L530.2289322916666,323.4002731516957L530.83078125,323.68966640532017L531.4326302083333,324.01756343990564L532.0344791666666,322.78524765372276L532.636328125,323.22014370560646L533.2381770833333,323.2335517331958L534.441875,323.8074871301651L535.0437239583333,323.57439444959164L536.8492708333333,323.56525549292564L539.2566666666667,323.8456200957298L541.0622135416667,323.4710895046592L541.6640625,324.00236470252275L542.2659114583333,323.98777616769075L543.469609375,323.1910159215331L544.0714583333333,323.14465226233006L544.6733072916667,324.02556178718805L545.27515625,324.14891657978296L546.4788541666667,323.9652409180999L547.080703125,323.13002148270607L547.6825520833333,323.8089328408241L550.0899479166667,324.36696307361126L552.49734375,322.7358470633626L553.0991927083334,323.80287071317434L554.3028906249999,324.18190037459135L554.9047395833334,324.1479637250304L555.5065885416667,323.2060714960098L556.1084375,324.3335263207555L556.7102864583334,323.89338252693415L557.3121354166666,323.4100645557046L559.1176822916667,323.2879630252719L559.71953125,324.40784899145365L563.330625,324.15292044728994L564.5343229166666,323.31634213775396L565.136171875,324.54754078388214L565.7380208333333,323.18703082948923L566.3398697916667,323.44486018270254L567.5435677083334,323.9371786415577L569.3491145833333,323.56513579934835L569.9509635416666,323.97171375900507L571.7565104166666,323.4155587255955L572.358359375,324.13427406549454L572.9602083333333,323.2024877294898L574.1639062500001,323.4006158038974L575.3676041666666,323.7676620259881L577.1731510416666,324.45849345624447L577.775,323.1539038717747L578.9786979166666,323.91291604936123L580.7842447916667,323.4688857346773L581.38609375,323.8573852702975L581.9879427083333,323.232666939497L583.191640625,324.13156805187464L583.7934895833333,324.05493834614754L584.3953385416667,323.90291576832533L585.5990364583333,324.3493892401457L586.2008854166667,324.4893462359905L586.802734375,323.18276879936457L589.8119791666667,323.6612427011132L592.219375,324.22878739982843L592.8212239583333,323.77367252111435L594.024921875,324.3281095996499L595.2286197916667,323.4426892697811L596.4323177083334,324.3432449698448L597.0341666666667,323.928138256073L597.636015625,323.5282819122076L598.2378645833334,324.22916056215763L598.8397135416667,323.6997793391347L599.4415624999999,324.2742686122656L600.6452604166667,323.3021361529827L601.8489583333334,323.2820839583874L603.0526562499999,324.1202581822872L604.858203125,323.0214030817151L606.0619010416666,324.11381819844246L606.6637499999999,324.3949596360326L607.2655989583333,323.27769754081964L609.6729947916666,323.6426925435662L610.8766927083333,323.6604189276695L611.4785416666667,323.4394904002547L612.6822395833334,323.6557931229472L614.4877864583333,323.73596904426813L615.6914843750001,324.33704437315464L616.2933333333334,324.08726969361305L616.8951822916666,324.4539404064417L618.7007291666666,324.06977565586567L620.5062760416666,324.24137165397406L621.108125,323.63757153600454L622.3118229166666,323.8568572103977L623.5155208333333,324.2515409141779L624.71921875,323.4281406328082L627.7284635416667,324.391638725996L628.9321614583333,323.52009346336126L629.5340104166667,324.16087654978037L630.135859375,323.1207604855299L630.7377083333333,324.3867430239916L632.5432552083333,324.1931492239237L636.1543489583333,324.0888069346547L637.358046875,324.3407736495137L637.9598958333333,323.64779008179903L638.5617447916667,324.18599811941385L639.16359375,323.5995441824198L639.7654427083334,324.2064023539424L642.1728385416667,323.5543047040701L643.3765364583334,324.0439429655671L643.9783854166667,323.96615152806044L645.7839322916667,323.4809912145138L646.38578125,323.2712739855051L646.9876302083334,324.1205327734351L647.5894791666666,324.4897240921855L648.1913281249999,323.8964898660779L649.3950260416667,324.0316755473614L649.996875,324.29845140874386L650.5987239583334,323.85251773148775L651.2005729166666,324.3080550581217L652.4042708333333,323.49385710060596L654.2098177083334,324.2597950771451L655.413515625,323.8855484649539L656.0153645833333,323.6118116006255L657.2190625000001,323.7739166021347L657.8209114583334,323.63150706142187L659.6264583333333,324.5627418681979L660.2283072916666,324.21272264420986L661.4320052083334,323.3680474162102L662.0338541666666,323.5759528130293L666.246796875,324.07854145020247L666.8486458333333,323.6211852505803L667.4504947916666,323.43707305938005L668.05234375,323.98183373361826L668.6541927083333,323.5127569511533L669.2560416666666,324.5299223586917L669.857890625,323.22156125307083L671.0615885416667,324.024221688509L671.6634375,323.8520624265075L672.2652864583333,324.4400207474828L674.0708333333333,324.0249609723687L674.6726822916667,324.4275467991829L675.27453125,323.13586769253016L675.8763802083333,323.50433146208525L677.080078125,323.9812141433358L680.691171875,323.7424864768982L681.2930208333333,324.49312245100737L681.8948697916667,324.1659341901541L683.0985677083333,324.4504035785794L685.5059635416667,323.39426500350237L687.3115104166667,324.1658074557781L689.1170572916667,323.4095928221941L691.524453125,323.7851748391986L693.3299999999999,324.1195775717497L693.9318489583334,323.465790130198L694.5336979166667,323.55278389155865L695.7373958333334,323.54054698348045L696.3392447916666,323.83255941420794L696.9410937499999,324.56432604789734L698.746640625,323.68006040900946L699.3484895833334,324.5662364512682L700.5521875,323.84475407749414L701.7558854166667,324.2897583693266L702.3577343750001,324.030865855515L703.5614322916666,324.40788654237986L704.7651302083333,323.8572350665927L705.3669791666666,324.4084427654743L706.5706770833334,323.5161459222436L707.774375,324.56275125592947L708.3762239583333,324.34027375280857L708.9780729166666,324.20231634378433L709.5799218750001,323.8188439384103L711.38546875,324.57851795107126L711.9873177083333,323.5976408198476L712.5891666666666,324.09960517287254L714.3947135416666,323.6991081163287L714.9965625,323.5626550912857L719.8113541666667,324.09264651685953L721.6169010416667,324.29080744832754L722.21875,323.4190603494644L723.4224479166667,323.8643720895052L724.6261458333333,324.59077832847834L725.2279947916667,323.4178516790271L727.0335416666666,324.2931144833565L727.635390625,323.1368205472827L728.8390885416667,324.43434116989374L729.4409375,323.65629771351814L730.0427864583332,323.81065079569817L730.6446354166667,324.04903346300125L732.4501822916667,323.64215509593487L737.2649739583333,323.68327805399895L737.8668229166667,324.13774283230305L738.4686718749999,324.3615768626332L739.6723697916667,324.3662895038724L740.8760677083334,324.33643182367086L741.4779166666666,324.0702567771077L742.079765625,323.8414096981287L743.2834635416666,324.10495852679014L744.4871614583333,323.4707327708602L745.0890104166667,323.71331644803286L745.690859375,324.4723356664181L747.49640625,324.1357761025429L748.0982552083334,324.04948407411575L748.7001041666666,323.8148424178362L751.7093489583333,323.95524533092976L752.913046875,323.4758537784219L753.5148958333333,324.502289570868L754.71859375,324.12145042419434L755.3204427083334,323.778563529253L756.5241406250001,323.78914350271225L760.135234375,323.7275576367974L760.7370833333333,323.8231177031994L761.94078125,323.84144255518913L763.1444791666667,323.73065558820963L765.551875,323.3141993880272L766.7555729166668,324.4395044222474L767.9592708333332,324.6403385102749L769.16296875,324.7054799795151L770.3666666666667,324.6023698300123L771.5703645833333,324.2167499810457L772.1722135416666,324.60032799839973L772.7740625,323.951236769557L773.3759114583333,324.54581578820944L773.9777604166667,324.38725700229406L776.38515625,323.77575425058603L777.5888541666667,324.29861100018024L778.1907031249999,324.0744390115142L781.801796875,324.41034143418074L783.0054947916667,324.53438153117895L784.2091927083334,324.0713434070349L784.8110416666667,324.22811617702246L785.4128906249999,324.52120115607977L789.023984375,323.7979961335659L790.82953125,324.3017019107938L792.0332291666667,324.07690094411373L793.8387760416666,324.4323110729456L795.6443229166666,323.6725783869624L796.2461718750001,324.296541005373L797.4498697916667,324.4168236628175L798.05171875,324.3009579330683L798.6535677083333,324.71605760604143L799.2554166666666,323.61896270513535L800.4591145833334,324.57581663131714L801.0609635416666,324.65702989697456L802.2646614583333,324.206620618701L802.8665104166666,324.65512653440237L803.468359375,324.50275661051273L805.27390625,324.09152233600616L805.8757552083333,324.51618106663227L807.079453125,324.6085493043065L811.8942447916668,323.6751130744815L812.49609375,324.38480680435896L813.0979427083332,324.2555048838258L813.6997916666667,323.95206758379936L815.5053385416667,324.3673902153969L816.1071874999999,324.59371668845415L816.7090364583333,324.6707899644971L818.5145833333333,323.92987263947725L819.1164322916667,324.5765488743782L819.71828125,324.4951384663582L821.523828125,324.42408037930727L828.7460156249999,324.2579292654991L830.5515624999999,324.5278054252267L831.7552604166666,323.80753406882286L832.357109375,324.12828938663006L833.5608072916666,324.0888468325138L834.16265625,324.268643014133L835.968203125,323.92449816316366L837.77375,324.55046271532774L838.3755989583334,324.28133757412434L838.9774479166666,324.1627681776881L839.5792968750001,324.55633943527937L840.1811458333333,323.89467803388834L840.7829947916666,324.01358538866043L841.3848437500001,323.91049636155367L841.9866927083333,324.30986219644547L843.190390625,324.3501261770725L844.3940885416666,324.6897484883666L844.9959375,324.00587806105614L846.1996354166666,324.7244596257806L847.4033333333333,323.9096444249153L848.60703125,324.6683374196291L849.2088802083333,324.3650292009115L849.8107291666668,324.0374349206686L850.412578125,324.6272027269006L851.0144270833333,324.5890181288123L851.6162760416667,324.0896752998233L854.0236718750001,324.1233960315585L857.0329166666668,324.7267737016082L857.634765625,323.83529828488827L858.8384635416667,323.85963597893715L859.4403125,324.68294942379L861.8477083333333,324.39979197084904L862.4495572916666,324.54626639932394L863.05140625,323.9510607495904L864.2551041666667,323.2432140558958L866.0606510416667,324.1127691194415L867.8661979166667,323.76865008473396L869.0698958333334,324.3192710503936L870.27359375,323.89491507411003L870.8754427083334,324.11419370770454L872.079140625,323.8135609924793L872.6809895833333,324.33788457512856L874.4865364583334,324.1122035086155L875.0883854166667,323.94606647640467L875.6902343749999,324.690473690629L876.8939322916666,324.609671138227L877.49578125,324.61356469988823L878.0976302083333,324.4826809465885L879.301328125,324.02065904438496L879.9031770833333,324.5677103251219L880.5050260416667,324.0449216365814L881.106875,323.8362135887146L881.7087239583334,324.5916302651167L882.3105729166667,324.25982793420553L885.3198177083333,323.89836271852255L885.9216666666666,324.684395134449L887.1253645833333,324.743063762784L889.5327604166666,323.7574833780527L890.134609375,324.1629864424467L891.3383072916666,324.39187107235193L893.745703125,324.40302369743586L894.9494010416668,324.42155273258686L896.1530989583333,324.5059015005827L897.356796875,324.2205543592572L897.9586458333334,324.64209166914225L898.5604947916667,323.9139181897044L899.1623437500001,324.7484593614936L900.3660416666667,324.13511661440134L902.1715885416668,324.17596028745174L902.7734375,324.67177567631006L903.9771354166667,324.18447026610374L904.578984375,324.54882925003767L905.1808333333333,324.14309383928776L906.3845312499999,324.13566814363L908.7919270833333,324.55002618581057L909.995625,324.43887309730053L910.5974739583332,324.05193427205086L911.801171875,324.2514658123255L912.4030208333334,324.4125287756324L914.2085677083334,324.0518873333931L914.8104166666666,323.96832948178053L917.8196614583333,323.9319402873516L918.4215104166667,324.39843309670687L919.0233593749999,323.97628558427095L919.6252083333334,324.1305400952697L920.8289062499999,324.57691499590874L922.0326041666666,323.8296891152859L922.634453125,324.61715081334114L923.2363020833333,324.3230073675513L923.8381510416666,324.0370429828763L924.44,324.0935712084174L925.0418489583333,324.6522022560239L926.8473958333334,323.9813009798527L928.6529427083334,324.6918114423752L929.8566406250001,324.0374161452055L931.0603385416666,323.9148264527321L931.6621875000001,324.733715929091L932.2640364583333,324.1285569369793L932.8658854166667,324.7102841511369L933.467734375,324.0129282474518L935.8751302083334,324.72691451758146L938.2825260416666,324.4162134602666L939.4862239583333,324.0605170056224L940.0880729166668,323.9028289318085L941.8936197916667,324.6356939300895L942.49546875,324.2978505939245L943.0973177083334,324.6882746145129L944.9028645833333,324.64544778317213L946.7084114583333,324.6364707648754L947.3102604166668,324.5310535803437L947.912109375,324.103264041245L949.1158072916667,324.4522881656885L949.71765625,323.4949930161238L950.3195052083333,324.0909473374486L952.1250520833333,323.8465518280864L953.32875,324.3091651573777L953.9305989583333,324.43447963893414L954.5324479166667,324.18029037863016L955.134296875,324.1577340066433L955.7361458333332,324.5416687577963L956.3379947916667,324.1736344769597L957.5416927083334,324.0822636857629L958.1435416666667,323.8252862691879L959.9490885416666,323.84220765531063L962.9583333333333,324.2477764338255L970.1805208333333,324.0926113128662L970.7823697916667,324.19260708242655L971.38421875,324.2082611247897L971.9860677083334,324.5140758678317L974.3934635416666,324.4522717371583L976.1990104166666,324.7457932457328L976.8008593750001,324.51512494683266L978.0045572916667,323.585180953145L978.60640625,324.1479332149029L979.2082552083333,324.49159929156303L979.8101041666666,324.0181619077921L981.0138020833334,324.2987142652273L982.2175000000001,323.8961190506816L982.8193489583333,324.31878054142L983.4211979166666,324.67265812307596L984.6248958333333,323.91504941135645L985.2267447916668,324.66724844276905L985.82859375,324.0858685746789L987.0322916666667,324.37279285490513L988.2359895833334,324.23054525256157L991.8470833333333,324.708415992558L993.05078125,324.5909637361765L996.0600260416667,324.0651005655527L996.6618749999999,324.19397769123316L999.0692708333333,324.0930642709136L1002.078515625,323.9695663154125L1002.6803645833334,324.29845375567675L1005.0877604166666,324.631490573287L1007.49515625,324.3480491414666L1009.3007031249999,324.3812934458256L1011.1062499999999,323.9732157960534L1011.7080989583334,324.20219430327415L1012.3099479166666,324.5266108363867L1014.1154947916666,323.63786724954844L1014.71734375,324.38480680435896L1016.522890625,324.26529628783464L1017.7265885416667,323.9654497951269L1018.3284375,324.4368054494262L1018.9302864583334,323.8944269120693L1023.1432291666667,323.564011618495L1023.745078125,324.0125151872635L1024.3469270833332,324.670456700027L1024.9487760416666,323.8889022320509L1026.1524739583333,324.9003246948123L1026.7543229166668,324.1730524376035L1027.356171875,324.6219291687012L1027.9580208333334,323.99845940619707L1028.5598697916666,324.25607753545046L1029.16171875,324.1906403526664L1029.7635677083333,323.971232637763L1030.3654166666668,324.18760576844215L1030.967265625,324.49163449555635L1032.7728124999999,324.62048345804214L1033.9765104166665,323.7197564318776L1036.9857552083333,324.666746199131L1037.5876041666668,324.736062861979L1038.189453125,323.971023760736L1039.3931510416667,324.53848396986723L1043.6060937500001,324.32721776515245L1044.8097916666668,324.64022585749626L1047.8190364583334,324.0244117900729L1048.4208854166666,324.8041685074568L1050.8282812500001,324.1228069514036L1052.0319791666668,324.2112276479602L1052.633828125,324.4168588668108L1053.8375260416667,323.8646842315793L1054.439375,324.14176078140736L1055.6430729166666,323.9187998101115L1056.244921875,324.7957969978452L1059.856015625,324.68695329129696L1060.4578645833333,323.9784564971924L1061.0597135416667,324.4389927908778L1064.0689583333333,324.3761724382639L1064.6708072916667,324.78515600413084L1070.0874479166666,324.2860455214977L1070.6892968749999,324.6291577219963L1072.49484375,324.5576818808913L1073.0966927083334,324.67055996507406L1073.6985416666666,324.32540358603L1074.9022395833333,324.6110253185034L1076.1059375,324.8296702802181L1077.3096354166667,324.4561958089471L1079.1151822916665,324.07727175951004L1079.71703125,324.60244493186474L1080.9207291666667,324.8412195369601L1081.522578125,324.74772007763386L1082.7262760416668,324.7776106148958L1083.9299739583332,323.9799843505025L1084.5318229166667,324.1274750009179L1085.7355208333333,324.32712154090405L1086.3373697916666,324.6672179326415L1088.7447656250001,323.8549186438322L1089.3466145833333,324.73072124272585L1090.5503125,324.4155492782593L1091.1521614583332,324.8026782050729L1091.7540104166667,324.69318674504757L1092.355859375,324.279291048646L1093.5595572916666,324.4601691663265L1094.16140625,324.2379122748971L1094.7632552083332,324.4295064881444L1095.3651041666667,324.78087989240885L1097.7725,324.5350175499916L1098.9761979166667,324.83009742200375L1099.578046875,324.4306823015213L1100.1798958333334,324.5599208548665L1101.38359375,324.1668729633093L1102.5872916666667,324.8049711585045L1103.7909895833334,324.60701441019773L1104.9946875,324.7829850912094L1105.5965364583333,324.75819443911314L1106.1983854166667,324.48181258141994L1107.4020833333334,324.17354998737574L1108.0039322916666,324.78131172806025L1108.6057812499998,324.5092153698206L1109.2076302083333,324.61394959688187L1109.8094791666667,324.52551951259375L1110.411328125,324.29462825506926L1111.6150260416666,324.40357287973166L1112.216875,324.75327292084694L1114.022421875,324.2151446789503L1114.6242708333332,324.3334019333124L1115.8279687499999,324.02652402967215L1116.4298177083333,324.7922085374594L1118.2353645833334,323.97208692133427L1118.8372135416666,324.24753000587225L1119.4390625,324.12809693813324L1120.0409114583333,324.36912225186825L1120.6427604166668,324.7110609859228L1121.8464583333332,323.9146832898259L1124.2538541666665,324.42826261371374L1125.4575520833334,324.29500376433134L1126.0594010416667,324.0014517456293L1126.66125,324.47312423586845L1128.466796875,323.83724154531956L1129.0686458333332,324.7543806731701L1130.27234375,324.7381657138467L1132.6797395833335,324.7085732370615L1133.2815885416667,324.15105463564396L1133.8834375000001,324.07403768599033L1134.4852864583333,324.5487048625946L1135.688984375,324.46929873526096L1138.0963802083334,324.22380251437426L1138.6982291666666,324.901462957263L1139.9019270833332,324.2931919321418L1140.5037760416667,324.18650975078344L1141.1056250000001,324.7704571634531L1141.7074739583334,324.62813680619L1142.911171875,324.4085835814476L1144.71671875,324.37775192409754L1145.3185677083334,324.0180445611477L1145.9204166666666,324.3135046362877L1146.522265625,324.3403324261308L1147.1241145833333,324.3357394784689L1148.9296614583334,324.7972075045109L1149.5315104166666,324.136883854866L1151.93890625,324.1126869767904L1152.5407552083334,324.3361900895834L1153.7444531249998,324.21423641592264L1154.3463020833333,324.1956956461072L1154.9481510416667,324.6701398640871L1157.355546875,323.9960655346513L1159.16109375,324.5117195472121L1160.3647916666666,324.60381554067135L1162.1703385416668,324.1660304144025L1162.7721875,324.05381885915995L1163.3740364583334,324.7542445510626L1163.9758854166666,324.79195976257324L1164.577734375,324.29988538473845L1165.7814322916668,324.51765494048595L1166.38328125,324.32925490289927L1166.9851302083332,324.2228121086955L1168.7906770833333,324.34573037177324L1169.3925260416665,324.2786738052964L1170.5962239583334,324.7046749815345L1171.1980729166667,324.75011629611254L1171.799921875,324.3168372809887L1173.60546875,324.4523304104805L1174.8091666666667,323.9918457493186L1175.411015625,324.638742595911L1176.0128645833333,324.587074868381L1176.6147135416666,324.2215541526675L1180.82765625,324.432386174798L1181.4295052083332,324.5065914988518L1183.2350520833334,324.5376695841551L1186.2442968750001,324.2797322720289L1188.6516927083333,324.79630862921476L1189.855390625,324.82956466823816L1191.0590885416666,324.20739275962114L1192.2627864583333,324.319702886045L1192.8646354166667,324.821876116097L1193.4664843750002,324.5368411168456L1194.0683333333334,324.6460016593337L1196.4757291666667,324.0753613561392L1197.077578125,324.7471004873514L1197.6794270833334,324.79648464918137L1198.8831249999998,324.61048552393913L1199.4849739583333,324.28054900467396L1200.0868229166667,324.1267310231924L1202.49421875,324.6390641257167L1203.6979166666667,324.3833681344986L1204.9016145833332,324.3434421122074L1206.1053124999999,324.5127475038171L1206.7071614583333,324.3494220972061L1207.910859375,324.072157792747L1210.3182552083333,324.73807418346405L1211.521953125,324.876834243536L1212.1238020833332,324.4620795696974L1213.9293489583333,324.6591843813658L1215.7348958333334,324.7323617488146L1218.1422916666668,324.91060895472765L1219.3459895833332,324.24976663291454L1219.9478385416667,324.61516530811787L1221.7533854166666,324.5063920095563L1224.1607812500001,324.9189569950104L1224.7626302083333,324.2691921964288L1225.3644791666668,324.3981467708945L1225.966328125,324.5307461321354L1227.771875,324.41581213474274L1228.3737239583334,324.33621825277805L1228.9755729166666,324.5007218196988L1230.1792708333332,324.5217057466507L1230.7811197916667,324.7645006477833L1231.3829687500001,324.66806986927986L1232.5866666666668,324.74977833777666L1233.188515625,324.77195920050144L1234.9940625,324.0488269329071L1235.5959114583334,324.8064544200897L1236.799609375,324.84792003035545L1238.0033072916667,324.7231617718935L1238.6051562500002,324.44779144227505L1239.2070052083334,324.53396612405777L1243.4199479166666,324.8696408942342L1244.0217968749998,324.66120978444815L1244.6236458333333,324.86433682590723L1245.2254947916667,324.46841628849506L1248.8365885416667,324.5931229144335L1249.4384375,324.4037770628929L1250.0402864583332,324.6670254841447L1250.6421354166666,324.25370243936777L1251.2439843749999,324.52301064133644L1252.4476822916668,324.41241846978664L1254.2532291666666,324.7628648355603L1256.0587760416668,324.6793515756726L1258.4661718749999,324.07813308387995L1259.0680208333333,324.60924399644136L1259.6698697916665,324.8578100055456L1260.27171875,324.6285076215863L1260.8735677083334,324.73641020804644L1262.077265625,324.6174324452877L1262.6791145833333,324.9247116744518L1265.0865104166667,324.4484063386917L1266.8920572916666,324.589590780437L1267.49390625,323.9530157446861L1269.2994531250001,324.7378911226988L1269.9013020833333,324.09550742805004L1270.5031510416668,324.80655064433813L1271.105,324.52164003252983L1271.7068489583332,324.10397281497717L1272.910546875,324.6053128838539L1273.5123958333334,324.3795989602804L1274.1142447916666,324.1863079145551L1274.71609375,324.39818432182074L1275.3179427083332,324.8098457381129L1277.7253385416668,324.39268780499697L1278.3271875,324.89468266814947L1278.9290364583333,324.60399156063795L1280.7345833333334,324.8659655973315L1281.93828125,324.26484567672014L1282.5401302083333,324.855265930295L1283.1419791666667,324.60952328145504L1284.3456770833334,324.0363975763321L1284.9475260416666,324.1787507906556L1285.549375,324.5166668817401L1286.7530729166667,324.8071467652917L1287.354921875,324.0747065618634L1289.1604687499998,324.0931252911687L1290.3641666666667,324.7224131003022L1291.5678645833334,324.7408717274666L1292.1697135416666,324.6717310845852L1293.3734114583333,324.2838746085763L1295.1789583333332,324.63661862164736L1296.3826562499999,324.405912771821L1296.9845052083333,323.97257743030787L1297.5863541666668,324.81121634691954L1298.7900520833334,324.69924652576447L1299.99375,324.77596072107553L1300.5955989583333,324.88945135474205L1301.1974479166668,324.6163317337632L1303.6048437499999,324.7998947426677L1304.2066927083333,324.62691405415535L1305.410390625,324.2556175366044L1306.6140885416667,324.6512611359358L1309.6233333333332,324.38721710443497L1312.0307291666666,324.9009724482894L1312.632578125,324.63534893095493L1313.2344270833335,324.64155891537666L1313.8362760416667,324.6018394231796L1321.0584635416667,324.48409614712L1322.2621614583334,324.66605620086193L1323.465859375,324.06142761558294" style="fill: none;" fill="none"></path></g></g></g></g></g></g><g transform="translate(51, 378)" clip-path="url(#clip_1)"><clipPath id="clip_1"><rect width="1444" height="22"></rect></clipPath><g><g><line x1="0" y1="0" x2="0" y2="5" style="visibility: inherit;" fill="rgb(0, 0, 0)" stroke="rgb(204, 204, 204)" stroke-width="1px"></line><line x1="120.36979166666666" y1="0" x2="120.36979166666666" y2="5" style="visibility: inherit;" fill="rgb(0, 0, 0)" stroke="rgb(204, 204, 204)" stroke-width="1px"></line><line x1="240.73958333333331" y1="0" x2="240.73958333333331" y2="5" style="visibility: inherit;" fill="rgb(0, 0, 0)" stroke="rgb(204, 204, 204)" stroke-width="1px"></line><line x1="361.109375" y1="0" x2="361.109375" y2="5" style="visibility: inherit;" fill="rgb(0, 0, 0)" stroke="rgb(204, 204, 204)" stroke-width="1px"></line><line x1="481.47916666666663" y1="0" x2="481.47916666666663" y2="5" style="visibility: inherit;" fill="rgb(0, 0, 0)" stroke="rgb(204, 204, 204)" stroke-width="1px"></line><line x1="601.8489583333334" y1="0" x2="601.8489583333334" y2="5" style="visibility: inherit;" fill="rgb(0, 0, 0)" stroke="rgb(204, 204, 204)" stroke-width="1px"></line><line x1="722.21875" y1="0" x2="722.21875" y2="5" style="visibility: inherit;" fill="rgb(0, 0, 0)" stroke="rgb(204, 204, 204)" stroke-width="1px"></line><line x1="842.5885416666667" y1="0" x2="842.5885416666667" y2="5" style="visibility: inherit;" fill="rgb(0, 0, 0)" stroke="rgb(204, 204, 204)" stroke-width="1px"></line><line x1="962.9583333333333" y1="0" x2="962.9583333333333" y2="5" style="visibility: inherit;" fill="rgb(0, 0, 0)" stroke="rgb(204, 204, 204)" stroke-width="1px"></line><line x1="1083.328125" y1="0" x2="1083.328125" y2="5" style="visibility: inherit;" fill="rgb(0, 0, 0)" stroke="rgb(204, 204, 204)" stroke-width="1px"></line><line x1="1203.6979166666667" y1="0" x2="1203.6979166666667" y2="5" style="visibility: inherit;" fill="rgb(0, 0, 0)" stroke="rgb(204, 204, 204)" stroke-width="1px"></line><line x1="1324.0677083333333" y1="0" x2="1324.0677083333333" y2="5" style="visibility: inherit;" fill="rgb(0, 0, 0)" stroke="rgb(204, 204, 204)" stroke-width="1px"></line><line x1="1444.4375" y1="0" x2="1444.4375" y2="5" style="visibility: inherit;" fill="rgb(0, 0, 0)" stroke="rgb(204, 204, 204)" stroke-width="1px"></line></g><g transform="translate(0, 8)"><text x="0" y="0" dx="0em" dy="0.95em" style="text-anchor: middle; visibility: hidden; font-family: Roboto, sans-serif; font-size: 12px; font-weight: 200;" fill="rgb(50, 49, 63)" stroke="none" stroke-width="1px">-200</text><text x="120.36979166666666" y="0" dx="0em" dy="0.95em" style="text-anchor: middle; visibility: inherit; font-family: Roboto, sans-serif; font-size: 12px; font-weight: 200;" fill="rgb(50, 49, 63)" stroke="none" stroke-width="1px">0</text><text x="240.73958333333331" y="0" dx="0em" dy="0.95em" style="text-anchor: middle; visibility: inherit; font-family: Roboto, sans-serif; font-size: 12px; font-weight: 200;" fill="rgb(50, 49, 63)" stroke="none" stroke-width="1px">200</text><text x="361.109375" y="0" dx="0em" dy="0.95em" style="text-anchor: middle; visibility: inherit; font-family: Roboto, sans-serif; font-size: 12px; font-weight: 200;" fill="rgb(50, 49, 63)" stroke="none" stroke-width="1px">400</text><text x="481.47916666666663" y="0" dx="0em" dy="0.95em" style="text-anchor: middle; visibility: inherit; font-family: Roboto, sans-serif; font-size: 12px; font-weight: 200;" fill="rgb(50, 49, 63)" stroke="none" stroke-width="1px">600</text><text x="601.8489583333334" y="0" dx="0em" dy="0.95em" style="text-anchor: middle; visibility: inherit; font-family: Roboto, sans-serif; font-size: 12px; font-weight: 200;" fill="rgb(50, 49, 63)" stroke="none" stroke-width="1px">800</text><text x="722.21875" y="0" dx="0em" dy="0.95em" style="text-anchor: middle; visibility: inherit; font-family: Roboto, sans-serif; font-size: 12px; font-weight: 200;" fill="rgb(50, 49, 63)" stroke="none" stroke-width="1px">1k</text><text x="842.5885416666667" y="0" dx="0em" dy="0.95em" style="text-anchor: middle; visibility: inherit; font-family: Roboto, sans-serif; font-size: 12px; font-weight: 200;" fill="rgb(50, 49, 63)" stroke="none" stroke-width="1px">1.2k</text><text x="962.9583333333333" y="0" dx="0em" dy="0.95em" style="text-anchor: middle; visibility: inherit; font-family: Roboto, sans-serif; font-size: 12px; font-weight: 200;" fill="rgb(50, 49, 63)" stroke="none" stroke-width="1px">1.4k</text><text x="1083.328125" y="0" dx="0em" dy="0.95em" style="text-anchor: middle; visibility: inherit; font-family: Roboto, sans-serif; font-size: 12px; font-weight: 200;" fill="rgb(50, 49, 63)" stroke="none" stroke-width="1px">1.6k</text><text x="1203.6979166666667" y="0" dx="0em" dy="0.95em" style="text-anchor: middle; visibility: inherit; font-family: Roboto, sans-serif; font-size: 12px; font-weight: 200;" fill="rgb(50, 49, 63)" stroke="none" stroke-width="1px">1.8k</text><text x="1324.0677083333333" y="0" dx="0em" dy="0.95em" style="text-anchor: middle; visibility: inherit; font-family: Roboto, sans-serif; font-size: 12px; font-weight: 200;" fill="rgb(50, 49, 63)" stroke="none" stroke-width="1px">2k</text><text x="1444.4375" y="0" dx="0em" dy="0.95em" style="text-anchor: middle; visibility: hidden; font-family: Roboto, sans-serif; font-size: 12px; font-weight: 200;" fill="rgb(50, 49, 63)" stroke="none" stroke-width="1px">2.2k</text></g><line x1="0" y1="0" x2="1444.4375" y2="0" fill="rgb(0, 0, 0)" stroke="rgb(204, 204, 204)" stroke-width="1px"></line></g></g></g></g></svg>