<svg viewBox="0 0 1496 400" xmlns="http://www.w3.org/2000/svg"><g><g><g><g><g><line x1="51.5625" y1="378" x2="46.5625" y2="378" style="visibility: inherit;" fill="rgb(0, 0, 0)" stroke="rgb(204, 204, 204)" stroke-width="1px"></line><line x1="51.5625" y1="336" x2="46.5625" y2="336" style="visibility: inherit;" fill="rgb(0, 0, 0)" stroke="rgb(204, 204, 204)" stroke-width="1px"></line><line x1="51.5625" y1="294" x2="46.5625" y2="294" style="visibility: inherit;" fill="rgb(0, 0, 0)" stroke="rgb(204, 204, 204)" stroke-width="1px"></line><line x1="51.5625" y1="252.00000000000003" x2="46.5625" y2="252.00000000000003" style="visibility: inherit;" fill="rgb(0, 0, 0)" stroke="rgb(204, 204, 204)" stroke-width="1px"></line><line x1="51.5625" y1="210" x2="46.5625" y2="210" style="visibility: inherit;" fill="rgb(0, 0, 0)" stroke="rgb(204, 204, 204)" stroke-width="1px"></line><line x1="51.5625" y1="168" x2="46.5625" y2="168" style="visibility: inherit;" fill="rgb(0, 0, 0)" stroke="rgb(204, 204, 204)" stroke-width="1px"></line><line x1="51.5625" y1="126.00000000000001" x2="46.5625" y2="126.00000000000001" style="visibility: inherit;" fill="rgb(0, 0, 0)" stroke="rgb(204, 204, 204)" stroke-width="1px"></line><line x1="51.5625" y1="84" x2="46.5625" y2="84" style="visibility: inherit;" fill="rgb(0, 0, 0)" stroke="rgb(204, 204, 204)" stroke-width="1px"></line><line x1="51.5625" y1="42.00000000000002" x2="46.5625" y2="42.00000000000002" style="visibility: inherit;" fill="rgb(0, 0, 0)" stroke="rgb(204, 204, 204)" stroke-width="1px"></line><line x1="51.5625" y1="0" x2="46.5625" y2="0" style="visibility: inherit;" fill="rgb(0, 0, 0)" stroke="rgb(204, 204, 204)" stroke-width="1px"></line></g><g transform="translate(41.5625, 0)"><text x="0" y="378" dx="0em" dy="0.3em" style="text-anchor: end; visibility: hidden; font-family: Roboto, sans-serif; font-size: 12px; font-weight: 200;" fill="rgb(50, 49, 63)" stroke="none" stroke-width="1px">-0.5</text><text x="0" y="336" dx="0em" dy="0.3em" style="text-anchor: end; visibility: inherit; font-family: Roboto, sans-serif; font-size: 12px; font-weight: 200;" fill="rgb(50, 49, 63)" stroke="none" stroke-width="1px">0</text><text x="0" y="294" dx="0em" dy="0.3em" style="text-anchor: end; visibility: inherit; font-family: Roboto, sans-serif; font-size: 12px; font-weight: 200;" fill="rgb(50, 49, 63)" stroke="none" stroke-width="1px">0.5</text><text x="0" y="252.00000000000003" dx="0em" dy="0.3em" style="text-anchor: end; visibility: inherit; font-family: Roboto, sans-serif; font-size: 12px; font-weight: 200;" fill="rgb(50, 49, 63)" stroke="none" stroke-width="1px">1</text><text x="0" y="210" dx="0em" dy="0.3em" style="text-anchor: end; visibility: inherit; font-family: Roboto, sans-serif; font-size: 12px; font-weight: 200;" fill="rgb(50, 49, 63)" stroke="none" stroke-width="1px">1.5</text><text x="0" y="168" dx="0em" dy="0.3em" style="text-anchor: end; visibility: inherit; font-family: Roboto, sans-serif; font-size: 12px; font-weight: 200;" fill="rgb(50, 49, 63)" stroke="none" stroke-width="1px">2</text><text x="0" y="126.00000000000001" dx="0em" dy="0.3em" style="text-anchor: end; visibility: inherit; font-family: Roboto, sans-serif; font-size: 12px; font-weight: 200;" fill="rgb(50, 49, 63)" stroke="none" stroke-width="1px">2.5</text><text x="0" y="84" dx="0em" dy="0.3em" style="text-anchor: end; visibility: inherit; font-family: Roboto, sans-serif; font-size: 12px; font-weight: 200;" fill="rgb(50, 49, 63)" stroke="none" stroke-width="1px">3</text><text x="0" y="42.00000000000002" dx="0em" dy="0.3em" style="text-anchor: end; visibility: inherit; font-family: Roboto, sans-serif; font-size: 12px; font-weight: 200;" fill="rgb(50, 49, 63)" stroke="none" stroke-width="1px">3.5</text><text x="0" y="0" dx="0em" dy="0.3em" style="text-anchor: end; visibility: hidden; font-family: Roboto, sans-serif; font-size: 12px; font-weight: 200;" fill="rgb(50, 49, 63)" stroke="none" stroke-width="1px">4</text></g><line x1="51.5625" y1="0" x2="51.5625" y2="378" fill="rgb(0, 0, 0)" stroke="rgb(204, 204, 204)" stroke-width="1px"></line></g></g><g transform="translate(51, 0)" clip-path="url(#clip_0)"><clipPath id="clip_0"><rect width="1444" height="378"></rect></clipPath><g><g><g><line x1="0" y1="0" x2="0" y2="378" fill="rgb(0, 0, 0)" stroke="rgb(60, 60, 60)" stroke-width="1px" opacity="0.25"></line><line x1="120.36979166666666" y1="0" x2="120.36979166666666" y2="378" fill="rgb(0, 0, 0)" stroke="rgb(60, 60, 60)" stroke-width="1px" opacity="0.25"></line><line x1="240.73958333333331" y1="0" x2="240.73958333333331" y2="378" fill="rgb(0, 0, 0)" stroke="rgb(60, 60, 60)" stroke-width="1px" opacity="0.25"></line><line x1="361.109375" y1="0" x2="361.109375" y2="378" fill="rgb(0, 0, 0)" stroke="rgb(60, 60, 60)" stroke-width="1px" opacity="0.25"></line><line x1="481.47916666666663" y1="0" x2="481.47916666666663" y2="378" fill="rgb(0, 0, 0)" stroke="rgb(60, 60, 60)" stroke-width="1px" opacity="0.25"></line><line x1="601.8489583333334" y1="0" x2="601.8489583333334" y2="378" fill="rgb(0, 0, 0)" stroke="rgb(60, 60, 60)" stroke-width="1px" opacity="0.25"></line><line x1="722.21875" y1="0" x2="722.21875" y2="378" fill="rgb(0, 0, 0)" stroke="rgb(60, 60, 60)" stroke-width="1px" opacity="0.25"></line><line x1="842.5885416666667" y1="0" x2="842.5885416666667" y2="378" fill="rgb(0, 0, 0)" stroke="rgb(60, 60, 60)" stroke-width="1px" opacity="0.25"></line><line x1="962.9583333333333" y1="0" x2="962.9583333333333" y2="378" fill="rgb(0, 0, 0)" stroke="rgb(60, 60, 60)" stroke-width="1px" opacity="0.25"></line><line x1="1083.328125" y1="0" x2="1083.328125" y2="378" fill="rgb(0, 0, 0)" stroke="rgb(60, 60, 60)" stroke-width="1px" opacity="0.25"></line><line x1="1203.6979166666667" y1="0" x2="1203.6979166666667" y2="378" fill="rgb(0, 0, 0)" stroke="rgb(60, 60, 60)" stroke-width="1px" opacity="0.25"></line><line x1="1324.0677083333333" y1="0" x2="1324.0677083333333" y2="378" fill="rgb(0, 0, 0)" stroke="rgb(60, 60, 60)" stroke-width="1px" opacity="0.25"></line><line x1="1444.4375" y1="0" x2="1444.4375" y2="378" fill="rgb(0, 0, 0)" stroke="rgb(60, 60, 60)" stroke-width="1px" opacity="0.25"></line></g><g><line x1="0" y1="378" x2="1444.4375" y2="378" fill="rgb(0, 0, 0)" stroke="rgb(60, 60, 60)" stroke-width="1px" opacity="0.25"></line><line x1="0" y1="336" x2="1444.4375" y2="336" fill="rgb(0, 0, 0)" stroke="rgb(60, 60, 60)" stroke-width="1px" opacity="0.25"></line><line x1="0" y1="294" x2="1444.4375" y2="294" fill="rgb(0, 0, 0)" stroke="rgb(60, 60, 60)" stroke-width="1px" opacity="0.25"></line><line x1="0" y1="252.00000000000003" x2="1444.4375" y2="252.00000000000003" fill="rgb(0, 0, 0)" stroke="rgb(60, 60, 60)" stroke-width="1px" opacity="0.25"></line><line x1="0" y1="210" x2="1444.4375" y2="210" fill="rgb(0, 0, 0)" stroke="rgb(60, 60, 60)" stroke-width="1px" opacity="0.25"></line><line x1="0" y1="168" x2="1444.4375" y2="168" fill="rgb(0, 0, 0)" stroke="rgb(60, 60, 60)" stroke-width="1px" opacity="0.25"></line><line x1="0" y1="126.00000000000001" x2="1444.4375" y2="126.00000000000001" fill="rgb(0, 0, 0)" stroke="rgb(60, 60, 60)" stroke-width="1px" opacity="0.25"></line><line x1="0" y1="84" x2="1444.4375" y2="84" fill="rgb(0, 0, 0)" stroke="rgb(60, 60, 60)" stroke-width="1px" opacity="0.25"></line><line x1="0" y1="42.00000000000002" x2="1444.4375" y2="42.00000000000002" fill="rgb(0, 0, 0)" stroke="rgb(60, 60, 60)" stroke-width="1px" opacity="0.25"></line><line x1="0" y1="0" x2="1444.4375" y2="0" fill="rgb(0, 0, 0)" stroke="rgb(60, 60, 60)" stroke-width="1px" opacity="0.25"></line></g></g></g><g><g><line x1="0" y1="336" x2="1444.4375" y2="336" fill="rgb(0, 0, 0)" stroke="rgb(153, 153, 153)" stroke-width="1.5px"></line></g></g><g><g><line x1="120.36979166666666" y1="0" x2="120.36979166666666" y2="378" fill="rgb(0, 0, 0)" stroke="rgb(153, 153, 153)" stroke-width="1.5px"></line></g></g><g><g><g><g><g><path stroke="rgb(255, 112, 67)" stroke-width="2px" d="M123.37903645833333,102.57318878173828L123.98088541666667,78.8569450378418L126.38828124999999,106.60353469848634L126.99013020833334,158.06148147583008L128.19382812499998,70.37147712707521L128.79567708333335,143.19271659851074L129.39752604166668,155.81072902679443L130.60122395833335,79.30170822143553L131.20307291666666,144.1003475189209L131.804921875,142.6319160461426L132.40677083333333,121.64068794250487L134.81416666666667,170.21023750305176L140.23080729166665,218.49645280838013L140.83265625,190.429178237915L142.03635416666665,205.30138778686523L143.84190104166666,207.0381631851196L144.44375,188.5185470581055L145.64744791666666,183.96765518188477L146.85114583333333,214.5003232955933L147.45299479166667,187.74180364608765L148.65669270833334,185.7517147064209L149.86039062499998,181.42439603805545L150.46223958333334,113.81447410583495L152.26778645833335,247.18338775634763L152.86963541666668,201.04982185363767L153.471484375,163.4264373779297L154.07333333333335,204.2531661987305L154.67518229166666,192.2256145477295L156.48072916666666,237.15648937225342L157.082578125,216.54823064804074L158.28627604166667,92.7196855545044L159.48997395833334,237.7711930274963L160.09182291666667,244.79843330383304L160.693671875,163.4593620300293L161.29552083333334,209.4767904281616L163.10106770833332,230.70855474472046L163.70291666666665,236.54578113555908L164.30476562500002,243.27206325531006L164.90661458333332,162.48886585235596L166.11031250000002,216.91232442855832L167.915859375,217.55402469635013L170.92510416666667,241.5876388549805L171.526953125,225.17265701293942L172.12880208333334,196.96362018585208L172.73065104166668,217.43342113494873L173.33249999999998,247.96058177947998L173.93434895833335,227.40017795562744L176.94359375,256.4102611541748L181.75838541666664,245.90686655044556L183.56393229166665,250.92978858947754L184.16578125,185.74342346191406L188.37872395833332,242.59905052185056L190.18427083333333,261.14174795150757L191.38796875,232.0038013458252L191.9898177083333,247.7184934616089L192.59166666666667,257.6511039733887L194.9990625,228.03982543945312L195.60091145833331,224.77133274078366L196.20276041666668,252.1573534011841L198.00830729166668,222.03466129302979L198.61015625000002,249.05623769760132L200.41570312500002,163.1299352645874L202.82309895833333,251.57474327087402L204.02679687499997,244.32302856445315L205.23049479166667,184.56210136413574L205.83234374999998,267.6171598434448L206.43419270833334,231.4940900802612L207.03604166666668,255.39157962799075L209.4434375,229.75407028198242L210.64713541666669,261.16457891464233L212.4526822916667,188.88151931762695L213.05453125,250.03417396545413L213.65638020833333,238.74716663360599L214.860078125,252.41339063644412L215.46192708333334,226.23726081848142L216.06377604166667,233.1526393890381L217.86932291666668,259.1422562599182L219.07302083333335,241.05477619171143L219.67486979166665,253.9845314025879L220.87856770833335,258.2944564819336L221.48041666666666,225.48630237579346L223.28596354166666,259.1375398635864L226.29520833333333,241.29323959350586L226.89705729166664,253.00392150878903L227.49890625,258.56890869140625L228.70260416666665,220.3196954727173L229.304453125,267.87729263305664L230.50815104166665,240.64310789108276L231.71184895833335,231.3705425262451L232.31369791666665,233.27822971343994L232.91554687500002,197.60639190673828L233.51739583333332,252.10120725631717L234.72109375,260.4189176559448L235.32294270833333,239.0724377632141L239.53588541666667,269.8968515396118L241.94328125,255.39146947860718L244.35067708333332,234.41733455657962L244.95252604166666,264.9952039718628L245.55437500000002,246.49116897583008L247.96177083333333,252.69810676574707L249.76731770833334,261.76870822906494L251.57286458333334,171.6013841629028L252.17471354166668,251.01515436172488L253.98026041666668,255.91729259490967L254.582109375,261.3807921409607L255.78580729166669,232.31398200988772L256.38765624999996,263.0420951843262L256.98950520833336,266.7857322692871L258.19320312499997,257.17001152038574L258.79505208333336,256.7359228134155L259.99875,278.95645809173584L260.60059895833336,253.71903133392334L261.2024479166667,230.79101657867432L263.0079947916667,226.77675247192383L264.81354166666665,253.98114681243896L267.8227864583333,256.3917360305786L269.026484375,252.76187324523926L270.23018229166667,255.68870258331302L270.83203125,262.6159372329712L273.8412760416667,243.18483495712277L275.6468229166667,278.2531843185425L276.248671875,246.34727382659915L276.85052083333335,238.04078865051272L277.4523697916667,247.84694766998288L278.6560677083333,223.70602798461914L281.06346354166664,255.87326288223267L282.2671614583333,269.0155363082886L283.47085937500003,249.69439315795898L284.67455729166664,241.70026159286496L287.6838020833333,219.54362297058103L288.8875,251.24459552764895L291.2948958333333,264.75718116760254L294.304140625,254.3831520080566L295.5078385416667,212.11094284057617L296.1096875,249.84351539611814L297.915234375,260.20580863952637L299.1189322916667,258.13946628570557L299.72078124999996,202.65812301635742L300.32263020833335,251.1709156036377L301.52632812499996,261.5556993484497L302.12817708333336,233.6490526199341L302.7300260416667,286.26871490478516L305.137421875,185.11222743988037L305.73927083333336,231.7334747314453L306.94296875,277.84390926361084L308.748515625,275.49734687805176L311.1559114583333,242.5619201660156L311.75776041666666,263.7224979400635L312.359609375,266.4439287185669L312.9614583333333,264.3127284049988L314.16515625,258.5879945755005L315.970703125,144.70488739013672L316.57255208333333,242.200279712677L317.17440104166667,243.88050842285156L318.9799479166667,266.1924476623535L319.581796875,280.3439898490906L320.7854947916667,211.5092267990112L324.3965885416667,236.6589946746826L325.6002864583333,262.62086391448975L327.4058333333333,254.84485816955564L328.00768229166664,272.6928434371948L329.2113802083333,143.62974929809573L329.81322916666664,192.01548957824707L332.8224739583333,267.5080518722534L333.42432291666665,245.84215879440308L334.6280208333333,271.9890789985657L335.83171875,263.2663793563843L336.4335677083333,261.2878360748291L337.03541666666666,269.6911425590515L338.84096354166667,264.1998653411865L339.4428125,229.75403022766113L341.248359375,262.80489349365234L341.85020833333334,210.4734420776367L343.05390625,279.56562423706055L343.65575520833335,250.41699314117432L344.85945312499996,272.9335699081421L347.26684895833336,260.91390895843506L347.8686979166667,248.56231784820557L348.47054687499997,201.03832626342776L349.6742447916667,273.0504083633423L350.27609375,270.6668858528137L352.081640625,223.50439453124997L352.6834895833333,207.60159730911255L353.2853385416667,270.3374090194702L353.8871875,253.8633670806885L355.09088541666665,264.1426076889038L355.692734375,244.0535731315613L356.2945833333333,253.4457607269287L356.89643229166666,240.49968338012698L362.31307291666667,241.75444507598877L362.91492187499995,264.8262448310852L364.1186197916667,199.39163303375244L365.9241666666667,261.08201694488525L370.13710937499997,258.2838020324707L370.7389583333333,275.9535756111145L373.1463541666667,281.61954975128174L373.748203125,228.44387340545654L374.3500520833333,204.1135768890381L375.55375000000004,262.5375609397888L376.75744791666665,246.7940797805786L379.16484375,221.12416648864746L384.581484375,268.34210300445557L385.18333333333334,275.63627529144287L385.7851822916667,219.1258363723755L386.38703125,268.7363977432251L387.5907291666666,252.5810680389404L388.192578125,248.5581121444702L389.998125,271.00707721710205L391.80367187499996,246.54088640213013L396.01661458333336,236.3275651931763L396.6184635416667,255.80103492736816L397.22031250000003,249.26865577697754L397.8221614583333,264.471173286438L399.025859375,254.54129648208618L399.6277083333333,252.3961672782898L400.2295572916667,282.4282865524292L401.4332552083333,245.0875453948975L402.03510416666666,224.70059680938718L402.636953125,273.45681953430176L403.8406510416667,271.56852865219116L405.04434895833333,271.94715213775635L405.64619791666667,258.49902391433716L408.05359374999995,225.1267147064209L412.2665364583333,256.14952754974365L414.07208333333335,193.17524242401126L414.6739322916667,261.9763398170471L415.8776302083333,245.84246921539307L417.081328125,245.83622074127197L418.886875,229.58301830291748L425.50721354166666,243.24773025512695L427.31276041666666,267.6059446334839L427.914609375,255.36244010925293L428.5164583333334,212.49770736694336L429.72015625,256.04365396499634L430.9238541666667,278.89701747894287L431.525703125,232.43262290954587L432.7294010416666,258.3923692703247L435.73864583333335,254.27634716033936L436.34049479166663,263.0873064994812L439.95158854166664,242.22486305236814L441.15528645833336,228.425368309021L441.7571354166667,250.93615722656247L442.35898437500003,240.94493722915647L442.9608333333333,198.773154258728L443.56268229166665,247.84858989715576L444.16453125,228.53317451477054L444.7663802083333,274.19864559173584L445.3682291666667,278.3885679244995L445.97007812500004,256.7432928085327L446.5719270833333,271.809956073761L447.775625,250.9166007041931L449.58117187500005,262.9573802947998L450.18302083333333,251.40499305725098L450.78486979166667,269.27219438552856L451.98856770833333,274.45707607269287L454.3959635416667,263.9803476333618L455.59966145833334,240.17636489868164L456.80335937499996,285.6864252090454L459.21075520833335,277.5193090438843L459.8126041666667,255.04152488708496L460.41445312499997,263.8078336715698L461.61815104166664,274.44100427627563L462.82184895833336,260.6285820007324L464.025546875,245.03865909576413L465.22924479166664,270.94595432281494L465.83109375000004,230.92751169204712L467.636640625,170.38459396362305L468.84033854166665,224.5984983444214L469.4421875,269.12211084365845L470.0440364583334,226.5889778137207L470.64588541666666,280.0188789367676L471.247734375,269.59189796447754L471.8495833333333,279.1115884780884L473.05328125,252.5105023384094L473.6551302083334,219.28921794891357L476.664375,269.45491218566895L477.26622395833334,170.84854316711426L478.469921875,259.51172733306885L479.07177083333335,255.4498987197876L479.6736197916667,280.26284980773926L481.47916666666663,248.74614715576175L482.68286458333336,270.09349822998047L483.8865625,244.75276136398315L485.09026041666664,260.70378398895264L486.29395833333336,256.06331062316895L487.49765625000003,257.07179832458496L488.0995052083333,275.1935148239136L488.70135416666665,263.4398946762085L490.5069010416667,279.3286828994751L492.914296875,267.2229652404785L493.5161458333333,214.6506872177124L494.71984375000005,263.2401738166809L495.32169270833333,260.57709217071533L496.525390625,106.19057464599608L498.9327864583333,266.11105728149414L501.94203124999996,211.61993694305423L506.1549739583333,261.2111921310425L506.75682291666664,212.52818870544436L507.96052083333336,255.66529083251953L508.5623697916667,235.67461967468262L509.16421875,242.4604024887085L509.7660677083333,234.83992767333987L510.36791666666664,265.50851011276245L510.96976562500004,259.4371461868286L512.1734635416666,271.8917570114136L512.7753124999999,257.7201976776123L515.1827083333334,246.76612186431882L515.7845572916666,259.6520676612854L516.9882552083333,262.2217626571655L518.191953125,234.68577861785886L519.9975,242.56439352035525L521.2011979166667,236.91129684448245L521.8030468750001,256.29816913604736L522.4048958333334,276.8220634460449L524.2104427083333,259.3096332550049L524.8122916666666,212.6068754196167L525.4141406250001,258.1365923881531L526.0159895833334,263.91790294647217L526.6178385416666,282.07266426086426L527.8215364583333,263.18360710144043L528.4233854166666,236.86134910583496L529.0252343750001,265.07527256011963L530.2289322916666,233.98657035827637L530.83078125,260.4372224807739L531.4326302083333,274.88341426849365L532.0344791666666,137.77781295776367L532.636328125,273.32189655303955L533.2381770833333,260.2303218841553L534.441875,263.07900524139404L535.0437239583333,260.5418643951416L536.8492708333333,274.2262330055237L539.2566666666667,266.02966690063477L541.0622135416667,265.84814071655273L541.6640625,234.16911792755127L542.2659114583333,212.94365215301517L543.469609375,226.03752994537354L544.0714583333333,273.8741455078125L544.6733072916667,268.26519870758057L545.27515625,209.99108791351318L546.4788541666667,261.60942220687866L547.080703125,271.4446105957031L547.6825520833333,265.77830600738525L550.0899479166667,258.81581354141235L552.49734375,245.9870252609253L553.0991927083334,248.0910587310791L554.3028906249999,249.04490232467654L554.9047395833334,169.83164405822754L555.5065885416667,233.8720550537109L556.1084375,263.334201335907L556.7102864583334,242.34628772735599L557.3121354166666,277.5275502204895L559.1176822916667,270.4111590385437L559.71953125,279.18821239471436L563.330625,270.1752290725708L564.5343229166666,283.0087537765503L565.136171875,262.01039600372314L565.7380208333333,283.8335123062134L566.3398697916667,268.55734491348267L567.5435677083334,264.68972969055176L569.3491145833333,275.37784481048584L569.9509635416666,229.66222572326663L571.7565104166666,254.5397243499756L572.358359375,237.37291288375854L572.9602083333333,267.6825385093689L574.1639062500001,263.79695892333984L575.3676041666666,273.40329694747925L577.1731510416666,271.642258644104L577.775,270.5001697540283L578.9786979166666,257.0805902481079L580.7842447916667,264.5917167663574L581.38609375,242.7118034362793L581.9879427083333,272.8936958312988L583.191640625,254.39555883407593L583.7934895833333,269.72043228149414L584.3953385416667,258.66223526000977L585.5990364583333,243.68454265594482L586.2008854166667,279.179780960083L586.802734375,219.05696296691892L589.8119791666667,275.5243134498596L592.219375,277.81372833251953L592.8212239583333,251.71659564971924L594.024921875,265.2420086860657L595.2286197916667,265.60227727890015L596.4323177083334,277.93476247787476L597.0341666666667,211.40678787231448L597.636015625,250.44346904754636L598.2378645833334,267.11680126190186L598.8397135416667,244.27589464187625L599.4415624999999,278.747935295105L600.6452604166667,246.74782705307004L601.8489583333334,274.08374977111816L603.0526562499999,274.71430492401123L604.858203125,210.36556577682492L606.0619010416666,269.9508647918701L606.6637499999999,272.46811866760254L607.2655989583333,252.3477416038513L609.6729947916666,277.43232107162476L610.8766927083333,275.21532440185547L611.4785416666667,238.10644769668576L612.6822395833334,249.39755058288577L614.4877864583333,250.8488187789917L615.6914843750001,249.69357204437256L616.2933333333334,246.6585259437561L616.8951822916666,247.95633602142334L618.7007291666666,264.1826419830322L620.5062760416666,274.07659006118774L621.108125,186.54559135437015L622.3118229166666,259.76533126831055L623.5155208333333,259.3555154800415L624.71921875,255.6471462249756L627.7284635416667,278.4938907623291L628.9321614583333,277.4101209640503L629.5340104166667,266.89696311950684L630.135859375,252.43101453781125L630.7377083333333,274.7406806945801L632.5432552083333,261.6674509048462L636.1543489583333,260.460373878479L637.358046875,205.05669593811038L637.9598958333333,270.84489727020264L638.5617447916667,240.92502021789548L639.16359375,263.5774612426758L639.7654427083334,259.99650478363037L642.1728385416667,256.44590950012207L643.3765364583334,251.08521938323972L643.9783854166667,239.86858749389648L645.7839322916667,258.8395757675171L646.38578125,283.4097776412964L646.9876302083334,269.1281590461731L647.5894791666666,252.80463123321533L648.1913281249999,268.726544380188L649.3950260416667,279.5620994567871L649.996875,274.5982675552368L650.5987239583334,282.23398303985596L651.2005729166666,224.7557716369629L652.4042708333333,259.91873931884766L654.2098177083334,264.0303153991699L655.413515625,275.4824366569519L656.0153645833333,252.0990943908691L657.2190625000001,222.3336067199707L657.8209114583334,281.2504291534424L659.6264583333333,264.8791666030884L660.2283072916666,249.4075441360474L661.4320052083334,253.66664028167727L662.0338541666666,277.5216121673584L666.246796875,275.5657596588135L666.8486458333333,252.25618743896482L667.4504947916666,230.12651538848877L668.05234375,254.5495376586914L668.6541927083333,253.77004051208496L669.2560416666666,279.1884927749634L669.857890625,223.95616722106934L671.0615885416667,247.74338722229004L671.6634375,195.77498817443848L672.2652864583333,266.94198417663574L674.0708333333333,266.3505721092224L674.6726822916667,272.70095443725586L675.27453125,221.9901008605957L675.8763802083333,265.1983394622803L677.080078125,268.7585277557373L680.691171875,224.29048061370852L681.2930208333333,262.3361077308655L681.8948697916667,266.4880986213684L683.0985677083333,267.5541043281555L685.5059635416667,266.24520921707153L687.3115104166667,263.66191577911377L689.1170572916667,246.59747314453125L691.524453125,272.3815813064575L693.3299999999999,274.9003872871399L693.9318489583334,244.38335037231445L694.5336979166667,271.8955421447754L695.7373958333334,260.91943645477295L696.3392447916666,213.1987380981445L696.9410937499999,261.84557247161865L698.746640625,248.97043132781982L699.3484895833334,271.43878269195557L700.5521875,269.19424867630005L701.7558854166667,264.01727771759033L702.3577343750001,283.5139389038086L703.5614322916666,226.0031032562256L704.7651302083333,261.33890533447266L705.3669791666666,242.1088056564331L706.5706770833334,245.0112419128418L707.774375,269.12826919555664L708.3762239583333,251.684832572937L708.9780729166666,228.52439260482785L709.5799218750001,246.09176731109622L711.38546875,261.927303314209L711.9873177083333,216.09206199646L712.5891666666666,199.57386016845703L714.3947135416666,241.31377744674683L714.9965625,281.1543788909912L719.8113541666667,272.94354343414307L721.6169010416667,186.07811737060547L722.21875,250.35783290863037L723.4224479166667,268.9856758117676L724.6261458333333,233.01056671142578L725.2279947916667,264.2267918586731L727.0335416666666,267.7392053604126L727.635390625,210.40066337585452L728.8390885416667,218.47206974029538L729.4409375,260.74322748184204L730.0427864583332,276.8193998336792L730.6446354166667,259.93470096588135L732.4501822916667,223.46307849884036L737.2649739583333,207.67877197265625L737.8668229166667,261.52391624450684L738.4686718749999,239.61233997344974L739.6723697916667,282.0458879470825L740.8760677083334,272.7728319168091L741.4779166666666,261.3794803619385L742.079765625,251.2759780883789L743.2834635416666,268.3748073577881L744.4871614583333,268.61522340774536L745.0890104166667,270.4753761291504L745.690859375,275.54356956481934L747.49640625,255.1319274902344L748.0982552083334,252.03761100769043L748.7001041666666,248.1738510131836L751.7093489583333,275.56809282302856L752.913046875,246.25482845306396L753.5148958333333,264.1302809715271L754.71859375,255.9379806518555L755.3204427083334,251.9400787353516L756.5241406250001,260.71319675445557L760.135234375,258.83268642425537L760.7370833333333,235.0900468826294L761.94078125,253.69007205963138L763.1444791666667,256.9311876296997L765.551875,254.196138381958L766.7555729166668,276.93923234939575L767.9592708333332,223.80116701126096L769.16296875,265.51589012145996L770.3666666666667,276.91827392578125L771.5703645833333,181.61813879013062L772.1722135416666,218.06860256195068L772.7740625,262.69718742370605L773.3759114583333,259.1009101867676L773.9777604166667,252.84576702117917L776.38515625,248.68486404418948L777.5888541666667,260.36352252960205L778.1907031249999,251.87645244598392L781.801796875,270.3452196121216L783.0054947916667,263.02232837677L784.2091927083334,281.16932916641235L784.8110416666667,260.6363525390625L785.4128906249999,259.428053855896L789.023984375,246.89163208007812L790.82953125,176.74191570281985L792.0332291666667,285.2976779937744L793.8387760416666,254.77144861221316L795.6443229166666,234.2384819984436L796.2461718750001,253.2305588722229L797.4498697916667,255.59052944183347L798.05171875,251.21888065338132L798.6535677083333,280.1413049697876L799.2554166666666,260.5604295730591L800.4591145833334,258.62049865722656L801.0609635416666,280.06083583831787L802.2646614583333,282.16080379486084L802.8665104166666,272.6102514266968L803.468359375,271.34429454803467L805.27390625,261.1710376739502L805.8757552083333,265.3564338684082L807.079453125,272.1707453727722L811.8942447916668,258.66947507858276L812.49609375,272.1658687591553L813.0979427083332,288.619713306427L813.6997916666667,273.73677921295166L815.5053385416667,262.8465700149536L816.1071874999999,262.2788701057434L816.7090364583333,252.62180328369138L818.5145833333333,262.625750541687L819.1164322916667,274.7768397331238L819.71828125,279.49546909332275L821.523828125,264.806227684021L828.7460156249999,275.18166875839233L830.5515624999999,277.31795597076416L831.7552604166666,282.0528874397278L832.357109375,259.8460907936096L833.5608072916666,255.70815896987915L834.16265625,258.9158592224121L835.968203125,242.87686729431152L837.77375,265.95923137664795L838.3755989583334,269.7129421234131L838.9774479166666,264.60899019241333L839.5792968750001,265.77524185180664L840.1811458333333,243.072732925415L840.7829947916666,249.4320774078369L841.3848437500001,279.20361328125L841.9866927083333,267.9094862937927L843.190390625,247.71174430847168L844.3940885416666,271.0454292297363L844.9959375,282.89586067199707L846.1996354166666,259.05251455307007L847.4033333333333,257.7358889579773L848.60703125,253.52901363372806L849.2088802083333,264.5989065170288L849.8107291666668,197.62684965133667L850.412578125,276.6556978225708L851.0144270833333,286.38029623031616L851.6162760416667,274.22984790802L854.0236718750001,277.7770686149597L857.0329166666668,283.67365550994873L857.634765625,255.4811210632324L858.8384635416667,272.21888065338135L859.4403125,236.96743297576907L861.8477083333333,257.1289758682251L862.4495572916666,272.8688220977783L863.05140625,265.8754177093506L864.2551041666667,235.50366783142093L866.0606510416667,278.3110828399658L867.8661979166667,188.97466564178467L869.0698958333334,252.00905227661133L870.27359375,261.94257402420044L870.8754427083334,287.7127733230591L872.079140625,253.48782777786258L872.6809895833333,273.5716152191162L874.4865364583334,268.6534252166748L875.0883854166667,277.5910863876343L875.6902343749999,282.2538299560547L876.8939322916666,280.26465225219727L877.49578125,244.48741149902347L878.0976302083333,277.6897802352905L879.301328125,249.20613098144534L879.9031770833333,213.57518863677976L880.5050260416667,244.4053702354431L881.106875,208.34377384185788L881.7087239583334,237.26014995574954L882.3105729166667,273.03753089904785L885.3198177083333,262.29089641571045L885.9216666666666,266.32408618927L887.1253645833333,265.2159433364868L889.5327604166666,268.3451271057129L890.134609375,239.79333543777466L891.3383072916666,266.63890314102173L893.745703125,274.7834587097168L894.9494010416668,279.60677003860474L896.1530989583333,261.5808935165405L897.356796875,241.9343390464783L897.9586458333334,288.967725276947L898.5604947916667,245.25260925292966L899.1623437500001,266.2724862098694L900.3660416666667,237.1240253448486L902.1715885416668,266.3784899711609L902.7734375,280.2484402656555L903.9771354166667,272.0771584510803L904.578984375,196.25738239288327L905.1808333333333,257.21387100219727L906.3845312499999,290.0064239501953L908.7919270833333,269.28910732269287L909.995625,267.86089038848877L910.5974739583332,258.94960498809814L911.801171875,282.8425483703613L912.4030208333334,289.1045808792114L914.2085677083334,277.7458562850952L914.8104166666666,250.69484996795657L917.8196614583333,241.00352668762204L918.4215104166667,222.6201753616333L919.0233593749999,236.3223180770874L919.6252083333334,197.4575500488281L920.8289062499999,249.09744358062747L922.0326041666666,262.5035047531128L922.634453125,257.70439624786377L923.2363020833333,270.33324337005615L923.8381510416666,253.9052038192749L924.44,282.5888843536377L925.0418489583333,254.9088649749756L926.8473958333334,153.3370943069458L928.6529427083334,241.08629894256595L929.8566406250001,288.8956775665283L931.0603385416666,277.3302125930786L931.6621875000001,283.62252616882324L932.2640364583333,273.3272638320923L932.8658854166667,287.3950424194336L933.467734375,264.76752519607544L935.8751302083334,250.9458303451538L938.2825260416666,264.56740379333496L939.4862239583333,271.1870012283325L940.0880729166668,273.24547290802L941.8936197916667,253.97093296051023L942.49546875,276.78178882598877L943.0973177083334,274.06323194503784L944.9028645833333,271.48001861572266L946.7084114583333,268.59726905822754L947.3102604166668,246.52833938598633L947.912109375,251.90501117706302L949.1158072916667,283.6252098083496L949.71765625,237.64816617965698L950.3195052083333,247.2762937545776L952.1250520833333,147.86665534973145L953.32875,273.7420063018799L953.9305989583333,261.04753017425537L954.5324479166667,253.00005626678464L955.134296875,266.19454050064087L955.7361458333332,246.04018735885617L956.3379947916667,270.09321784973145L957.5416927083334,255.43179416656494L958.1435416666667,272.39607095718384L959.9490885416666,270.5588893890381L962.9583333333333,234.7640047073364L970.1805208333333,256.18187141418457L970.7823697916667,265.8531675338745L971.38421875,257.9984350204468L971.9860677083334,262.4895257949829L974.3934635416666,263.2188148498535L976.1990104166666,270.0038766860962L976.8008593750001,260.9226608276367L978.0045572916667,151.05972576141357L978.60640625,280.00784397125244L979.2082552083333,213.14708805084229L979.8101041666666,280.5682039260864L981.0138020833334,263.49492931365967L982.2175000000001,246.1941561698914L982.8193489583333,223.52324008941648L983.4211979166666,284.752498626709L984.6248958333333,268.2113456726074L985.2267447916668,160.75641632080078L985.82859375,280.9705295562744L987.0322916666667,265.9451422691345L988.2359895833334,280.90470027923584L991.8470833333333,271.64115715026855L993.05078125,274.45415210723877L996.0600260416667,289.4664216041565L996.6618749999999,286.99658203125L999.0692708333333,271.9794759750366L1002.078515625,257.5953884124756L1002.6803645833334,238.93527173995972L1005.0877604166666,264.8845338821411L1007.49515625,246.17852497100827L1009.3007031249999,267.48620223999023L1011.1062499999999,252.71621131896975L1011.7080989583334,280.0143928527832L1012.3099479166666,245.05267810821533L1014.1154947916666,272.6370677947998L1014.71734375,282.23765802383423L1016.522890625,279.61837577819824L1017.7265885416667,241.05023002624512L1018.3284375,270.26326847076416L1018.9302864583334,244.1393194198608L1023.1432291666667,248.04619789123535L1023.745078125,277.88357305526733L1024.3469270833332,277.03272914886475L1024.9487760416666,232.84950828552246L1026.1524739583333,266.157320022583L1026.7543229166668,256.18537616729736L1027.356171875,254.69641685485837L1027.9580208333334,257.97039699554443L1028.5598697916666,257.130277633667L1029.16171875,267.32902908325195L1029.7635677083333,255.82508754730225L1030.3654166666668,269.74642753601074L1030.967265625,251.49097967147827L1032.7728124999999,256.5185079574585L1033.9765104166665,245.04306507110593L1036.9857552083333,242.36745643615723L1037.5876041666668,219.83346605300903L1038.189453125,269.28271865844727L1039.3931510416667,151.84655284881595L1043.6060937500001,284.04569005966187L1044.8097916666668,245.67498207092285L1047.8190364583334,256.899564743042L1048.4208854166666,267.94137954711914L1050.8282812500001,286.99215602874756L1052.0319791666668,270.9393253326416L1052.633828125,258.05625343322754L1053.8375260416667,275.3459815979004L1054.439375,234.09954357147217L1055.6430729166666,242.47223854064939L1056.244921875,255.71205425262454L1059.856015625,160.74760437011716L1060.4578645833333,257.64627742767334L1061.0597135416667,195.02894639968872L1064.0689583333333,271.13016414642334L1064.6708072916667,262.3390016555786L1070.0874479166666,250.45075893402097L1070.6892968749999,237.83714246749878L1072.49484375,260.823486328125L1073.0966927083334,262.54189682006836L1073.6985416666666,261.70331954956055L1074.9022395833333,254.29658460617068L1076.1059375,272.08634090423584L1077.3096354166667,265.46443033218384L1079.1151822916665,263.9447593688965L1079.71703125,278.0825128555298L1080.9207291666667,268.52149629592896L1081.522578125,272.2158365249634L1082.7262760416668,279.3917484283447L1083.9299739583332,241.91658496856692L1084.5318229166667,269.39915657043457L1085.7355208333333,232.32515716552737L1086.3373697916666,267.693012714386L1088.7447656250001,242.64549350738528L1089.3466145833333,275.33472633361816L1090.5503125,245.9370775222778L1091.1521614583332,272.93117666244507L1091.7540104166667,271.6888017654419L1092.355859375,241.97515439987183L1093.5595572916666,275.995041847229L1094.16140625,165.27706718444824L1094.7632552083332,260.09121322631836L1095.3651041666667,269.79167890548706L1097.7725,242.93134117126465L1098.9761979166667,263.80811405181885L1099.578046875,252.80260848999023L1100.1798958333334,268.1866521835327L1101.38359375,230.5265378952026L1102.5872916666667,263.2263650894165L1103.7909895833334,262.0713486671448L1104.9946875,270.76430797576904L1105.5965364583333,268.51663970947266L1106.1983854166667,261.45147800445557L1107.4020833333334,256.1839141845703L1108.0039322916666,264.56695318222046L1108.6057812499998,238.85230922698972L1109.2076302083333,147.10538291931152L1109.8094791666667,247.10551214218137L1110.411328125,273.32464027404785L1111.6150260416666,253.25257873535153L1112.216875,273.8029890060425L1114.022421875,175.18145942687988L1114.6242708333332,279.5506339073181L1115.8279687499999,258.42517375946045L1116.4298177083333,270.3214473724365L1118.2353645833334,254.77224969863894L1118.8372135416666,265.8198022842407L1119.4390625,266.96775913238525L1120.0409114583333,223.18676376342776L1120.6427604166668,273.87781047821045L1121.8464583333332,255.77794361114502L1124.2538541666665,210.72073745727536L1125.4575520833334,204.5371313095093L1126.0594010416667,267.6850519180298L1126.66125,208.5666961669922L1128.466796875,272.8938660621643L1129.0686458333332,272.32273149490356L1130.27234375,186.83955001831055L1132.6797395833335,279.93981170654297L1133.2815885416667,268.1328992843628L1133.8834375000001,231.8201723098755L1134.4852864583333,268.9311218261719L1135.688984375,275.17231607437134L1138.0963802083334,252.65698099136353L1138.6982291666666,265.47526502609253L1139.9019270833332,272.6580562591553L1140.5037760416667,247.49555110931396L1141.1056250000001,283.90221548080444L1141.7074739583334,208.326470375061L1142.911171875,259.7708787918091L1144.71671875,257.46300888061523L1145.3185677083334,281.20058155059814L1145.9204166666666,272.0954432487488L1146.522265625,278.29252767562866L1147.1241145833333,287.7533383369446L1148.9296614583334,265.4801416397095L1149.5315104166666,286.9690046310425L1151.93890625,249.28481769561768L1152.5407552083334,274.0571336746216L1153.7444531249998,243.58153295516968L1154.3463020833333,277.7982974052429L1154.9481510416667,287.4298496246338L1157.355546875,273.39934158325195L1159.16109375,267.08361625671387L1160.3647916666666,272.6134958267212L1162.1703385416668,267.9975256919861L1162.7721875,192.0375995635986L1163.3740364583334,286.2467551231384L1163.9758854166666,276.8223237991333L1164.577734375,256.1881799697876L1165.7814322916668,248.92709255218506L1166.38328125,258.86991691589355L1166.9851302083332,266.09369373321533L1168.7906770833333,267.08009147644043L1169.3925260416665,282.790988445282L1170.5962239583334,267.82261848449707L1171.1980729166667,241.17856407165527L1171.799921875,269.9105200767517L1173.60546875,260.12215518951416L1174.8091666666667,231.4658918380737L1175.411015625,273.81871032714844L1176.0128645833333,247.4710178375244L1176.6147135416666,256.8462724685669L1180.82765625,264.9767589569092L1181.4295052083332,268.9694938659668L1183.2350520833334,277.8553647994995L1186.2442968750001,237.38131427764893L1188.6516927083333,279.1994876861572L1189.855390625,271.8485884666443L1191.0590885416666,230.93379020690918L1192.2627864583333,275.678973197937L1192.8646354166667,281.18074464797974L1193.4664843750002,276.1321678161621L1194.0683333333334,273.706307888031L1196.4757291666667,276.93477630615234L1197.077578125,251.12619495391846L1197.6794270833334,266.74463653564453L1198.8831249999998,278.1805958747864L1199.4849739583333,284.1405186653137L1200.0868229166667,278.684609413147L1202.49421875,268.9105739593506L1203.6979166666667,268.9975919723511L1204.9016145833332,284.3975372314453L1206.1053124999999,282.0915699005127L1206.7071614583333,211.41011238098145L1207.910859375,253.4935054779053L1210.3182552083333,269.1303219795227L1211.521953125,275.3036642074585L1212.1238020833332,209.65070629119873L1213.9293489583333,257.4696578979492L1215.7348958333334,272.0522747039795L1218.1422916666668,269.9153366088867L1219.3459895833332,273.57397842407227L1219.9478385416667,261.0706114768982L1221.7533854166666,248.2436056137085L1224.1607812500001,281.8305959701538L1224.7626302083333,273.4966735839844L1225.3644791666668,278.3049144744873L1225.966328125,270.1071367263794L1227.771875,253.46534729003903L1228.3737239583334,251.4736461639404L1228.9755729166666,256.72126293182373L1230.1792708333332,279.2946267127991L1230.7811197916667,176.2434697151184L1231.3829687500001,274.26471519470215L1232.5866666666668,265.5566654205322L1233.188515625,248.85607624053955L1234.9940625,266.21463775634766L1235.5959114583334,278.5117049217224L1236.799609375,275.60249948501587L1238.0033072916667,237.96674823760986L1238.6051562500002,276.5584659576416L1239.2070052083334,268.76079082489014L1243.4199479166666,241.83978080749512L1244.0217968749998,280.46868896484375L1244.6236458333333,258.5770697593689L1245.2254947916667,276.3630509376526L1248.8365885416667,246.31560087203977L1249.4384375,237.9645652770996L1250.0402864583332,268.6708288192749L1250.6421354166666,227.5985870361328L1251.2439843749999,261.9405813217163L1252.4476822916668,249.6789722442627L1254.2532291666666,229.24902534484863L1256.0587760416668,269.3359708786011L1258.4661718749999,263.02868700027466L1259.0680208333333,258.3447847366333L1259.6698697916665,262.9554376602173L1260.27171875,250.61466121673584L1260.8735677083334,247.57195472717285L1262.077265625,262.71098613739014L1262.6791145833333,276.99653005599976L1265.0865104166667,269.8289394378662L1266.8920572916666,279.7442264556885L1267.49390625,211.02117490768433L1269.2994531250001,252.08357334136963L1269.9013020833333,285.9549493789673L1270.5031510416668,246.3312721252441L1271.105,252.3957166671753L1271.7068489583332,274.22095584869385L1272.910546875,268.7737283706665L1273.5123958333334,254.41868019104004L1274.1142447916666,158.35884475708008L1274.71609375,224.9192934036255L1275.3179427083332,281.52440071105957L1277.7253385416668,263.2049560546875L1278.3271875,269.3919668197632L1278.9290364583333,260.8693685531616L1280.7345833333334,230.9900665283203L1281.93828125,281.55546283721924L1282.5401302083333,266.93632650375366L1283.1419791666667,240.1370315551758L1284.3456770833334,259.3959102630615L1284.9475260416666,243.7090258598328L1285.549375,260.3953456878662L1286.7530729166667,256.25736379623413L1287.354921875,268.6670136451721L1289.1604687499998,206.59285926818848L1290.3641666666667,239.1825571060181L1291.5678645833334,261.3453941345215L1292.1697135416666,264.1799883842468L1293.3734114583333,201.15074872970578L1295.1789583333332,278.5275263786316L1296.3826562499999,260.26643085479736L1296.9845052083333,236.0434198379517L1297.5863541666668,244.3329620361328L1298.7900520833334,263.5892972946167L1299.99375,268.7230296134949L1300.5955989583333,273.9874691963196L1301.1974479166668,272.35734844207764L1303.6048437499999,257.2429003715515L1304.2066927083333,269.4006986618042L1305.410390625,268.48227310180664L1306.6140885416667,272.51831674575806L1309.6233333333332,265.7721977233887L1312.0307291666666,275.8037323951721L1312.632578125,272.7817339897156L1313.2344270833335,260.75551414489746L1313.8362760416667,214.84913635253906L1321.0584635416667,284.92980909347534L1322.2621614583334,240.34441280364993L1323.465859375,171.86267852783203" style="fill: none;" fill="none"></path></g></g></g></g></g></g><g transform="translate(51, 378)" clip-path="url(#clip_1)"><clipPath id="clip_1"><rect width="1444" height="22"></rect></clipPath><g><g><line x1="0" y1="0" x2="0" y2="5" style="visibility: inherit;" fill="rgb(0, 0, 0)" stroke="rgb(204, 204, 204)" stroke-width="1px"></line><line x1="120.36979166666666" y1="0" x2="120.36979166666666" y2="5" style="visibility: inherit;" fill="rgb(0, 0, 0)" stroke="rgb(204, 204, 204)" stroke-width="1px"></line><line x1="240.73958333333331" y1="0" x2="240.73958333333331" y2="5" style="visibility: inherit;" fill="rgb(0, 0, 0)" stroke="rgb(204, 204, 204)" stroke-width="1px"></line><line x1="361.109375" y1="0" x2="361.109375" y2="5" style="visibility: inherit;" fill="rgb(0, 0, 0)" stroke="rgb(204, 204, 204)" stroke-width="1px"></line><line x1="481.47916666666663" y1="0" x2="481.47916666666663" y2="5" style="visibility: inherit;" fill="rgb(0, 0, 0)" stroke="rgb(204, 204, 204)" stroke-width="1px"></line><line x1="601.8489583333334" y1="0" x2="601.8489583333334" y2="5" style="visibility: inherit;" fill="rgb(0, 0, 0)" stroke="rgb(204, 204, 204)" stroke-width="1px"></line><line x1="722.21875" y1="0" x2="722.21875" y2="5" style="visibility: inherit;" fill="rgb(0, 0, 0)" stroke="rgb(204, 204, 204)" stroke-width="1px"></line><line x1="842.5885416666667" y1="0" x2="842.5885416666667" y2="5" style="visibility: inherit;" fill="rgb(0, 0, 0)" stroke="rgb(204, 204, 204)" stroke-width="1px"></line><line x1="962.9583333333333" y1="0" x2="962.9583333333333" y2="5" style="visibility: inherit;" fill="rgb(0, 0, 0)" stroke="rgb(204, 204, 204)" stroke-width="1px"></line><line x1="1083.328125" y1="0" x2="1083.328125" y2="5" style="visibility: inherit;" fill="rgb(0, 0, 0)" stroke="rgb(204, 204, 204)" stroke-width="1px"></line><line x1="1203.6979166666667" y1="0" x2="1203.6979166666667" y2="5" style="visibility: inherit;" fill="rgb(0, 0, 0)" stroke="rgb(204, 204, 204)" stroke-width="1px"></line><line x1="1324.0677083333333" y1="0" x2="1324.0677083333333" y2="5" style="visibility: inherit;" fill="rgb(0, 0, 0)" stroke="rgb(204, 204, 204)" stroke-width="1px"></line><line x1="1444.4375" y1="0" x2="1444.4375" y2="5" style="visibility: inherit;" fill="rgb(0, 0, 0)" stroke="rgb(204, 204, 204)" stroke-width="1px"></line></g><g transform="translate(0, 8)"><text x="0" y="0" dx="0em" dy="0.95em" style="text-anchor: middle; visibility: hidden; font-family: Roboto, sans-serif; font-size: 12px; font-weight: 200;" fill="rgb(50, 49, 63)" stroke="none" stroke-width="1px">-200</text><text x="120.36979166666666" y="0" dx="0em" dy="0.95em" style="text-anchor: middle; visibility: inherit; font-family: Roboto, sans-serif; font-size: 12px; font-weight: 200;" fill="rgb(50, 49, 63)" stroke="none" stroke-width="1px">0</text><text x="240.73958333333331" y="0" dx="0em" dy="0.95em" style="text-anchor: middle; visibility: inherit; font-family: Roboto, sans-serif; font-size: 12px; font-weight: 200;" fill="rgb(50, 49, 63)" stroke="none" stroke-width="1px">200</text><text x="361.109375" y="0" dx="0em" dy="0.95em" style="text-anchor: middle; visibility: inherit; font-family: Roboto, sans-serif; font-size: 12px; font-weight: 200;" fill="rgb(50, 49, 63)" stroke="none" stroke-width="1px">400</text><text x="481.47916666666663" y="0" dx="0em" dy="0.95em" style="text-anchor: middle; visibility: inherit; font-family: Roboto, sans-serif; font-size: 12px; font-weight: 200;" fill="rgb(50, 49, 63)" stroke="none" stroke-width="1px">600</text><text x="601.8489583333334" y="0" dx="0em" dy="0.95em" style="text-anchor: middle; visibility: inherit; font-family: Roboto, sans-serif; font-size: 12px; font-weight: 200;" fill="rgb(50, 49, 63)" stroke="none" stroke-width="1px">800</text><text x="722.21875" y="0" dx="0em" dy="0.95em" style="text-anchor: middle; visibility: inherit; font-family: Roboto, sans-serif; font-size: 12px; font-weight: 200;" fill="rgb(50, 49, 63)" stroke="none" stroke-width="1px">1k</text><text x="842.5885416666667" y="0" dx="0em" dy="0.95em" style="text-anchor: middle; visibility: inherit; font-family: Roboto, sans-serif; font-size: 12px; font-weight: 200;" fill="rgb(50, 49, 63)" stroke="none" stroke-width="1px">1.2k</text><text x="962.9583333333333" y="0" dx="0em" dy="0.95em" style="text-anchor: middle; visibility: inherit; font-family: Roboto, sans-serif; font-size: 12px; font-weight: 200;" fill="rgb(50, 49, 63)" stroke="none" stroke-width="1px">1.4k</text><text x="1083.328125" y="0" dx="0em" dy="0.95em" style="text-anchor: middle; visibility: inherit; font-family: Roboto, sans-serif; font-size: 12px; font-weight: 200;" fill="rgb(50, 49, 63)" stroke="none" stroke-width="1px">1.6k</text><text x="1203.6979166666667" y="0" dx="0em" dy="0.95em" style="text-anchor: middle; visibility: inherit; font-family: Roboto, sans-serif; font-size: 12px; font-weight: 200;" fill="rgb(50, 49, 63)" stroke="none" stroke-width="1px">1.8k</text><text x="1324.0677083333333" y="0" dx="0em" dy="0.95em" style="text-anchor: middle; visibility: inherit; font-family: Roboto, sans-serif; font-size: 12px; font-weight: 200;" fill="rgb(50, 49, 63)" stroke="none" stroke-width="1px">2k</text><text x="1444.4375" y="0" dx="0em" dy="0.95em" style="text-anchor: middle; visibility: hidden; font-family: Roboto, sans-serif; font-size: 12px; font-weight: 200;" fill="rgb(50, 49, 63)" stroke="none" stroke-width="1px">2.2k</text></g><line x1="0" y1="0" x2="1444.4375" y2="0" fill="rgb(0, 0, 0)" stroke="rgb(204, 204, 204)" stroke-width="1px"></line></g></g></g></g></svg>