<?xml version="1.0" encoding="utf-8" standalone="no"?>
<!DOCTYPE svg PUBLIC "-//W3C//DTD SVG 1.1//EN"
  "http://www.w3.org/Graphics/SVG/1.1/DTD/svg11.dtd">
<!-- Created with matplotlib (https://matplotlib.org/) -->
<svg height="288pt" version="1.1" viewBox="0 0 720 288" width="720pt" xmlns="http://www.w3.org/2000/svg" xmlns:xlink="http://www.w3.org/1999/xlink">
 <defs>
  <style type="text/css">
*{stroke-linecap:butt;stroke-linejoin:round;}
  </style>
 </defs>
 <g id="figure_1">
  <g id="patch_1">
   <path d="M 0 288 
L 720 288 
L 720 0 
L 0 0 
z
" style="fill:#ffffff;"/>
  </g>
  <g id="axes_1">
   <g id="line2d_1">
    <path clip-path="url(#p050a53241a)" d="M 74.273232 234.503217 
L 72.094135 234.342352 
L 63.732039 233.948682 
L 58.239682 233.88796 
L 54.607509 234.050124 
L 51.413836 234.418418 
L 48.577698 234.989457 
L 45.893372 235.640195 
L 45.072639 236.201032 
L 44.728052 236.496802 
L 44.808688 236.32066 
L 45.184956 235.892266 
L 45.359604 235.852128 
L 45.944278 236.025223 
L 47.630911 236.711216 
L 49.082795 237.077202 
L 50.666449 237.26258 
L 52.110465 237.253015 
L 54.073937 236.956791 
L 55.780926 236.434471 
L 59.247651 235.279377 
L 61.038734 234.955943 
L 63.242743 234.783736 
L 66.372452 234.792747 
L 74.438131 235.081661 
L 74.438131 235.081661 
" style="fill:none;stroke:#000000;stroke-linecap:square;stroke-opacity:0.7;stroke-width:1.2;"/>
   </g>
   <g id="line2d_2">
    <path clip-path="url(#p050a53241a)" d="M 75.04852 190.031166 
L 72.888383 189.486507 
L 65.597408 187.662024 
L 61.611174 186.900565 
L 58.825062 186.574609 
L 56.247886 186.494104 
L 54.100815 186.632861 
L 51.883731 187.005667 
L 49.690588 187.616161 
L 46.975574 188.641773 
L 45.377593 189.425831 
L 45.271883 189.640712 
L 45.477229 190.11484 
L 46.066226 190.68319 
L 46.392005 190.840076 
L 46.281382 190.914018 
L 46.438105 191.252608 
L 47.131204 191.797847 
L 48.438387 192.422684 
L 49.801888 192.866195 
L 51.616041 193.250147 
L 53.33317 193.424733 
L 55.495057 193.379163 
L 58.060554 193.019148 
L 64.301381 192.050105 
L 74.810706 190.664809 
L 74.810706 190.664809 
" style="fill:none;stroke:#000000;stroke-linecap:square;stroke-opacity:0.7;stroke-width:1.2;"/>
   </g>
   <g id="line2d_3">
    <path clip-path="url(#p050a53241a)" d="M 75.014599 144.471213 
L 73.106273 143.961864 
L 66.542606 142.234368 
L 62.688459 141.458197 
L 59.83606 141.105404 
L 57.581158 141.024432 
L 55.604006 141.141816 
L 53.551139 141.489247 
L 51.544071 142.077339 
L 49.407099 142.966984 
L 46.55803 144.454411 
L 45.372299 145.242151 
L 44.994198 145.754869 
L 44.970079 146.130803 
L 45.188205 146.503361 
L 45.519304 146.663014 
L 45.86891 146.579963 
L 45.992092 146.330392 
L 45.984692 146.319751 
L 46.425961 146.808735 
L 47.433414 147.222465 
L 48.917528 147.512637 
L 50.244518 147.609132 
L 52.674153 147.509365 
L 55.273408 147.077934 
L 61.0042 145.924971 
L 64.373696 145.55902 
L 68.900835 145.290025 
L 75.146638 144.971736 
L 75.146638 144.971736 
" style="fill:none;stroke:#000000;stroke-linecap:square;stroke-opacity:0.7;stroke-width:1.2;"/>
   </g>
   <g id="line2d_4">
    <path clip-path="url(#p050a53241a)" d="M 75.438986 99.064088 
L 72.770844 98.559904 
L 66.73438 97.495387 
L 62.790177 97.035418 
L 59.839143 96.912384 
L 57.293269 97.024998 
L 55.04032 97.342696 
L 53.015149 97.839413 
L 51.018937 98.551525 
L 48.740091 99.621543 
L 47.014541 100.384258 
L 46.323495 100.470745 
L 45.439563 100.523951 
L 45.16201 100.780732 
L 45.490311 100.558877 
L 47.669565 101.441788 
L 48.509065 101.584111 
L 50.161696 101.657116 
L 51.906739 101.506343 
L 54.027404 101.08964 
L 58.871715 100.022849 
L 61.640321 99.720425 
L 65.114391 99.59807 
L 70.384819 99.677746 
L 75.463236 99.731472 
L 75.463236 99.731472 
" style="fill:none;stroke:#000000;stroke-linecap:square;stroke-opacity:0.7;stroke-width:1.2;"/>
   </g>
   <g id="line2d_5">
    <path clip-path="url(#p050a53241a)" d="M 74.646274 54.961407 
L 65.742556 53.088188 
L 61.496829 52.482711 
L 58.453171 52.284911 
L 56.315164 52.314437 
L 54.225349 52.513479 
L 51.816936 52.993033 
L 49.746553 53.642484 
L 46.479191 54.738602 
L 45.225446 54.889742 
L 44.551186 55.245521 
L 44.524258 55.552802 
L 44.828396 56.113055 
L 45.190265 56.487949 
L 46.346267 57.255206 
L 48.135261 57.919865 
L 49.797559 58.229237 
L 51.676338 58.324224 
L 53.70324 58.173708 
L 57.033707 57.610676 
L 60.907027 57.085525 
L 75.030297 55.50911 
L 75.030297 55.50911 
" style="fill:none;stroke:#000000;stroke-linecap:square;stroke-opacity:0.7;stroke-width:1.2;"/>
   </g>
   <g id="line2d_6">
    <path clip-path="url(#p050a53241a)" d="M 225.096419 233.915402 
L 222.215336 233.519526 
L 216.137257 232.878919 
L 211.640041 232.618482 
L 208.245017 232.645152 
L 205.633372 232.880692 
L 203.389958 233.304064 
L 201.361336 233.926063 
L 199.627025 234.67423 
L 196.567532 236.118247 
L 195.189605 236.499657 
L 195.208397 236.427769 
L 195.621907 235.640192 
L 195.822692 235.723169 
L 196.779296 236.267445 
L 197.947136 236.610378 
L 199.376109 236.775303 
L 201.292917 236.72063 
L 203.340431 236.386837 
L 205.581959 235.750667 
L 208.743171 234.848384 
L 210.971572 234.463224 
L 213.859051 234.218363 
L 217.021568 234.158881 
L 223.053633 234.317153 
L 225.644214 234.349767 
L 225.644214 234.349767 
" style="fill:none;stroke:#000000;stroke-linecap:square;stroke-opacity:0.7;stroke-width:1.2;"/>
   </g>
   <g id="line2d_7">
    <path clip-path="url(#p050a53241a)" d="M 224.876764 189.123138 
L 214.980991 186.937568 
L 211.783926 186.512148 
L 208.886622 186.351805 
L 206.508303 186.437958 
L 204.220883 186.756646 
L 202.199267 187.270205 
L 200.22013 188.018005 
L 198.273884 189.015012 
L 196.212726 190.350476 
L 195.352312 191.083815 
L 195.057497 191.536426 
L 195.006441 191.995297 
L 195.180677 192.194765 
L 195.535864 192.150321 
L 195.862011 191.89731 
L 196.275939 191.217014 
L 196.508383 190.838083 
L 197.315621 191.190403 
L 198.773103 191.522111 
L 200.644845 191.628094 
L 202.479418 191.49021 
L 204.355361 191.135872 
L 210.135027 189.793198 
L 212.418522 189.566926 
L 216.016611 189.463797 
L 225.022115 189.537478 
L 225.022115 189.537478 
" style="fill:none;stroke:#000000;stroke-linecap:square;stroke-opacity:0.7;stroke-width:1.2;"/>
   </g>
   <g id="line2d_8">
    <path clip-path="url(#p050a53241a)" d="M 224.989729 143.84884 
L 220.850338 143.447498 
L 215.425842 143.102344 
L 211.413495 143.056957 
L 207.904268 143.251777 
L 205.131841 143.614904 
L 202.748036 144.105708 
L 199.86702 144.938163 
L 196.627631 145.944277 
L 195.93276 145.866328 
L 195.451559 145.81353 
L 195.270909 146.042089 
L 195.273034 146.158074 
L 195.414499 146.232974 
L 195.683875 146.076091 
L 196.289876 145.461295 
L 196.815351 145.66613 
L 198.283971 146.373891 
L 199.253042 146.649205 
L 200.931625 146.849005 
L 202.772157 146.71177 
L 204.636998 146.255105 
L 208.886921 145.068627 
L 211.290674 144.700845 
L 214.244376 144.487863 
L 218.487166 144.425153 
L 225.482526 144.399202 
L 225.482526 144.399202 
" style="fill:none;stroke:#000000;stroke-linecap:square;stroke-opacity:0.7;stroke-width:1.2;"/>
   </g>
   <g id="line2d_9">
    <path clip-path="url(#p050a53241a)" d="M 224.87833 98.811849 
L 216.277433 97.384247 
L 212.203143 96.965858 
L 208.909098 96.856675 
L 206.406569 96.974917 
L 203.826962 97.342035 
L 201.504171 97.936929 
L 199.332465 98.741582 
L 195.869266 100.34258 
L 195.111279 100.76197 
L 194.689627 101.239269 
L 194.716005 101.629092 
L 195.003851 101.84337 
L 195.262216 101.839612 
L 195.651441 101.616241 
L 196.017099 101.115719 
L 196.234087 100.883276 
L 196.566485 101.008318 
L 197.712333 101.559606 
L 199.036696 101.993534 
L 200.664964 102.307395 
L 202.414542 102.405472 
L 204.086996 102.231188 
L 205.769669 101.759482 
L 208.454645 100.960628 
L 210.957308 100.499314 
L 214.286047 100.120532 
L 220.776248 99.660355 
L 225.081855 99.306368 
L 225.081855 99.306368 
" style="fill:none;stroke:#000000;stroke-linecap:square;stroke-opacity:0.7;stroke-width:1.2;"/>
   </g>
   <g id="line2d_10">
    <path clip-path="url(#p050a53241a)" d="M 223.779863 55.20843 
L 217.029958 54.005922 
L 211.333691 53.166464 
L 207.367232 52.790889 
L 204.356649 52.705618 
L 201.660321 52.837723 
L 199.405701 53.155635 
L 197.361159 53.706083 
L 196.28099 54.202113 
L 195.398634 54.897468 
L 194.901123 55.682799 
L 194.710355 56.416696 
L 194.750695 57.33462 
L 194.851249 57.65161 
L 195.429068 58.293288 
L 195.887426 58.359128 
L 196.408732 58.169384 
L 196.892562 57.743694 
L 197.558087 57.003553 
L 197.811075 56.949469 
L 202.642072 57.580352 
L 204.224896 57.409564 
L 205.687131 56.974301 
L 209.790137 55.386116 
L 211.691867 55.108832 
L 213.949016 55.033516 
L 217.694305 55.176679 
L 223.320322 55.396797 
L 223.521743 55.378124 
L 223.521743 55.378124 
" style="fill:none;stroke:#000000;stroke-linecap:square;stroke-opacity:0.7;stroke-width:1.2;"/>
   </g>
   <g id="line2d_11">
    <path clip-path="url(#p050a53241a)" d="M 374.244651 234.969375 
L 368.797986 234.201564 
L 363.031634 233.557093 
L 359.202196 233.336567 
L 356.318216 233.361582 
L 353.656113 233.584586 
L 350.77905 234.081831 
L 345.328952 235.44093 
L 344.917133 235.942345 
L 344.819522 236.177216 
L 344.962004 236.059946 
L 345.148946 236.138595 
L 346.307526 236.866968 
L 347.463403 237.304386 
L 348.739956 237.593401 
L 350.177836 237.751125 
L 352.415935 237.716777 
L 354.608409 237.402858 
L 360.998691 236.195262 
L 364.136883 235.946244 
L 368.262634 235.878426 
L 374.214741 235.796955 
L 374.214741 235.796955 
" style="fill:none;stroke:#000000;stroke-linecap:square;stroke-opacity:0.7;stroke-width:1.2;"/>
   </g>
   <g id="line2d_12">
    <path clip-path="url(#p050a53241a)" d="M 374.365023 189.812147 
L 363.988895 188.032231 
L 360.15404 187.654319 
L 357.223618 187.584448 
L 354.655688 187.739459 
L 352.219753 188.114076 
L 349.796308 188.727105 
L 347.042693 189.684669 
L 345.481937 190.390135 
L 344.920267 190.872768 
L 344.697259 191.422356 
L 344.757825 191.773586 
L 344.886993 191.882461 
L 345.229836 191.755902 
L 345.908478 191.061652 
L 346.528427 191.260941 
L 348.111889 191.810185 
L 349.819256 192.179068 
L 351.769666 192.357786 
L 353.722795 192.279072 
L 355.926432 191.890963 
L 359.648838 191.154717 
L 362.690845 190.829488 
L 367.508966 190.574492 
L 374.295228 190.205325 
L 374.295228 190.205325 
" style="fill:none;stroke:#000000;stroke-linecap:square;stroke-opacity:0.7;stroke-width:1.2;"/>
   </g>
   <g id="line2d_13">
    <path clip-path="url(#p050a53241a)" d="M 375.069894 144.760821 
L 374.224524 144.523395 
L 362.60572 140.896045 
L 359.596338 140.259965 
L 357.275619 139.996321 
L 355.498812 140.004933 
L 354.063329 140.20523 
L 353.038302 140.489297 
L 351.587744 141.145751 
L 350.145431 142.117563 
L 347.656458 143.973072 
L 344.5119 145.890599 
L 344.192721 146.480527 
L 344.282402 146.749751 
L 344.764391 147.117865 
L 345.424633 147.413728 
L 346.506957 147.643952 
L 347.884049 147.662934 
L 349.963623 147.317235 
L 351.818646 146.724893 
L 354.235222 145.634132 
L 356.986848 144.337994 
L 358.47208 143.920604 
L 360.079949 143.716618 
L 362.234041 143.701752 
L 365.084141 143.922827 
L 370.597333 144.628125 
L 374.511487 145.045455 
L 374.720533 145.042553 
L 374.720533 145.042553 
" style="fill:none;stroke:#000000;stroke-linecap:square;stroke-opacity:0.7;stroke-width:1.2;"/>
   </g>
   <g id="line2d_14">
    <path clip-path="url(#p050a53241a)" d="M 374.075378 99.002972 
L 366.037584 97.557496 
L 361.998773 97.11638 
L 358.906378 96.992697 
L 355.865302 97.102193 
L 352.904659 97.452366 
L 349.726555 98.092314 
L 346.970017 98.896375 
L 345.502101 99.549696 
L 344.868374 100.003935 
L 344.267061 100.879885 
L 344.151554 101.655746 
L 344.297246 102.445515 
L 344.819877 103.427835 
L 345.624336 104.195048 
L 346.327193 104.55151 
L 347.005104 104.694488 
L 347.350497 104.695942 
L 348.028242 104.547809 
L 348.763575 104.100863 
L 349.39094 103.349634 
L 349.771504 102.763337 
L 350.571623 102.248033 
L 351.667523 102.216654 
L 353.44444 102.1858 
L 354.176016 101.969577 
L 356.608423 100.689162 
L 358.234064 100.263522 
L 360.616423 99.951898 
L 364.309112 99.754973 
L 373.860973 99.406397 
L 373.860973 99.406397 
" style="fill:none;stroke:#000000;stroke-linecap:square;stroke-opacity:0.7;stroke-width:1.2;"/>
   </g>
   <g id="line2d_15">
    <path clip-path="url(#p050a53241a)" d="M 374.622901 55.565819 
L 358.513904 52.933356 
L 354.960068 52.522324 
L 352.369997 52.424998 
L 350.530176 52.53972 
L 348.721883 52.882934 
L 347.320592 53.367225 
L 346.253418 53.917024 
L 345.804884 54.260186 
L 345.415746 54.872341 
L 345.319296 55.738256 
L 345.19131 56.132708 
L 344.945519 56.129362 
L 345.010843 56.228726 
L 345.972504 56.768777 
L 347.096727 57.144357 
L 349.070085 57.519882 
L 350.755552 57.64695 
L 353.41581 57.54329 
L 355.449267 57.210937 
L 360.634327 56.157731 
L 363.654053 55.915233 
L 367.272223 55.877504 
L 374.542754 55.964382 
L 374.542754 55.964382 
" style="fill:none;stroke:#000000;stroke-linecap:square;stroke-opacity:0.7;stroke-width:1.2;"/>
   </g>
   <g id="line2d_16">
    <path clip-path="url(#p050a53241a)" d="M 524.356762 235.494747 
L 518.158161 234.344559 
L 511.786796 233.326672 
L 507.971344 232.923395 
L 505.14589 232.826817 
L 502.629554 232.961346 
L 500.309611 233.327732 
L 498.197882 233.888151 
L 496.226843 234.604596 
L 495.584549 234.99843 
L 495.268397 235.397015 
L 495.088317 236.008121 
L 495.090167 236.392313 
L 495.093873 236.121469 
L 496.475315 236.836068 
L 498.258087 237.448159 
L 499.721487 237.792114 
L 502.529839 238.136996 
L 504.769016 238.103664 
L 507.045086 237.794276 
L 512.131722 236.976083 
L 515.911093 236.63245 
L 524.295065 236.079411 
L 524.295065 236.079411 
" style="fill:none;stroke:#000000;stroke-linecap:square;stroke-opacity:0.7;stroke-width:1.2;"/>
   </g>
   <g id="line2d_17">
    <path clip-path="url(#p050a53241a)" d="M 523.271243 190.922965 
L 521.606917 190.563347 
L 515.892661 189.560113 
L 511.067217 188.914595 
L 508.214449 188.694155 
L 505.298283 188.680917 
L 502.718107 188.937526 
L 500.740936 189.363104 
L 496.478655 190.45421 
L 494.054383 191.016257 
L 493.464802 191.13949 
L 493.538642 191.199348 
L 495.220607 192.741399 
L 496.983107 193.527175 
L 498.083594 193.756218 
L 499.440786 193.852791 
L 500.830978 193.784925 
L 503.173095 193.370437 
L 509.962066 191.751736 
L 512.736401 191.517163 
L 516.818264 191.424616 
L 523.406671 191.29109 
L 523.556764 191.266617 
L 523.556764 191.266617 
" style="fill:none;stroke:#000000;stroke-linecap:square;stroke-opacity:0.7;stroke-width:1.2;"/>
   </g>
   <g id="line2d_18">
    <path clip-path="url(#p050a53241a)" d="M 523.836922 144.740294 
L 518.280469 143.847843 
L 513.051456 143.217954 
L 509.378744 142.982794 
L 506.016755 142.9923 
L 503.03831 143.227553 
L 500.596906 143.603311 
L 498.058627 144.190644 
L 496.179901 144.826195 
L 495.383805 145.379767 
L 494.95292 146.003908 
L 494.825306 146.549709 
L 494.903139 146.676946 
L 495.246474 146.620767 
L 495.800652 146.172036 
L 496.410868 145.719834 
L 496.763508 145.818799 
L 498.82507 146.955598 
L 500.19084 147.382157 
L 501.125029 147.546391 
L 503.15027 147.579893 
L 504.982106 147.257847 
L 509.625275 146.100646 
L 512.298348 145.779177 
L 516.042289 145.58856 
L 523.736885 145.26371 
L 523.736885 145.26371 
" style="fill:none;stroke:#000000;stroke-linecap:square;stroke-opacity:0.7;stroke-width:1.2;"/>
   </g>
   <g id="line2d_19">
    <path clip-path="url(#p050a53241a)" d="M 525.622956 99.174736 
L 522.655486 98.568277 
L 515.848645 97.216691 
L 511.540401 96.550869 
L 508.153034 96.24486 
L 505.566641 96.230738 
L 503.50757 96.427445 
L 501.6375 96.832759 
L 499.953462 97.442977 
L 498.298404 98.309684 
L 495.929555 99.882887 
L 495.470092 100.325438 
L 495.214307 100.913919 
L 495.259107 101.456486 
L 495.371166 101.535929 
L 495.406309 101.504158 
L 495.651097 100.927846 
L 496.072033 100.824272 
L 498.825374 101.153033 
L 500.613385 101.090809 
L 502.719404 100.756293 
L 504.614641 100.22225 
L 508.040121 99.170677 
L 509.900244 98.905854 
L 511.985786 98.817335 
L 515.468581 98.938827 
L 521.225325 99.434522 
L 525.108855 99.699985 
L 525.312868 99.692577 
L 525.312868 99.692577 
" style="fill:none;stroke:#000000;stroke-linecap:square;stroke-opacity:0.7;stroke-width:1.2;"/>
   </g>
   <g id="line2d_20">
    <path clip-path="url(#p050a53241a)" d="M 523.589922 55.495247 
L 522.16707 55.301006 
L 514.312053 54.541087 
L 508.099203 54.114422 
L 504.561487 54.061445 
L 501.476255 54.207794 
L 498.437682 54.58145 
L 495.935482 55.114354 
L 495.214259 55.466354 
L 494.940331 55.863191 
L 494.908862 56.334741 
L 495.100538 56.61724 
L 495.294455 56.628685 
L 495.539644 56.424511 
L 495.744831 55.92491 
L 495.850282 55.994188 
L 496.253973 56.304881 
L 497.562041 57.002816 
L 499.402028 57.618365 
L 501.41219 58.003846 
L 503.61618 58.140176 
L 505.825271 57.992352 
L 510.480418 57.297871 
L 515.151018 56.796093 
L 522.82633 55.998652 
L 523.78576 55.835182 
L 523.78576 55.835182 
" style="fill:none;stroke:#000000;stroke-linecap:square;stroke-opacity:0.7;stroke-width:1.2;"/>
   </g>
   <g id="line2d_21">
    <path clip-path="url(#p050a53241a)" d="M 675.050423 233.799794 
L 663.871964 232.007041 
L 660.529012 231.799122 
L 657.961888 231.850096 
L 655.705725 232.104017 
L 653.597432 232.565505 
L 651.56669 233.248342 
L 648.82797 234.508867 
L 646.626329 235.495038 
L 645.022245 236.151419 
L 644.820126 236.476385 
L 644.897106 236.520056 
L 645.152455 236.316677 
L 645.418101 236.078315 
L 646.060095 236.491217 
L 647.149081 236.819121 
L 648.93125 236.962871 
L 651.004672 236.814671 
L 653.217951 236.3996 
L 660.295929 234.777827 
L 663.38164 234.467343 
L 666.873375 234.344432 
L 672.910404 234.400622 
L 675.490909 234.386192 
L 675.490909 234.386192 
" style="fill:none;stroke:#000000;stroke-linecap:square;stroke-opacity:0.7;stroke-width:1.2;"/>
   </g>
   <g id="line2d_22">
    <path clip-path="url(#p050a53241a)" d="M 674.702937 190.231227 
L 669.742277 189.336216 
L 662.111448 188.06307 
L 658.09707 187.633336 
L 654.971627 187.538355 
L 652.379423 187.691648 
L 650.371094 187.999279 
L 648.430202 188.487616 
L 645.846523 189.415291 
L 645.40051 189.709011 
L 645.340009 190.009699 
L 645.398114 190.734541 
L 645.297175 190.703689 
L 645.252241 190.713829 
L 645.263609 190.760045 
L 645.471612 190.977418 
L 646.037156 191.334045 
L 647.611807 191.941576 
L 649.124994 192.295811 
L 651.549395 192.583775 
L 653.705646 192.602616 
L 656.230862 192.373042 
L 663.131059 191.492114 
L 667.661117 191.216971 
L 674.560987 190.840595 
L 674.560987 190.840595 
" style="fill:none;stroke:#000000;stroke-linecap:square;stroke-opacity:0.7;stroke-width:1.2;"/>
   </g>
   <g id="line2d_23">
    <path clip-path="url(#p050a53241a)" d="M 674.813306 144.355681 
L 666.024301 143.036321 
L 661.935716 142.651211 
L 658.568113 142.557377 
L 656.084081 142.686899 
L 654.24857 142.935141 
L 652.23398 143.410915 
L 650.384627 144.101208 
L 648.474213 145.103801 
L 647.414234 145.52992 
L 646.587384 145.52573 
L 645.353791 145.496309 
L 644.250149 145.705943 
L 644.275243 145.73693 
L 644.933684 146.198243 
L 645.511838 146.500808 
L 646.990273 146.990634 
L 648.340976 147.2002 
L 649.909936 147.24073 
L 651.667003 147.072634 
L 653.577863 146.674341 
L 657.476432 145.766171 
L 660.118148 145.434798 
L 663.590529 145.215071 
L 671.128952 145.015426 
L 675.029897 144.837544 
L 675.029897 144.837544 
" style="fill:none;stroke:#000000;stroke-linecap:square;stroke-opacity:0.7;stroke-width:1.2;"/>
   </g>
   <g id="line2d_24">
    <path clip-path="url(#p050a53241a)" d="M 674.374749 99.140414 
L 670.022001 98.687589 
L 664.368494 98.269341 
L 660.011367 98.163588 
L 656.356499 98.314759 
L 653.326399 98.66109 
L 650.320573 99.221422 
L 645.953344 100.122396 
L 645.033357 100.233835 
L 644.97168 100.306823 
L 644.903451 100.711433 
L 645.098663 101.232472 
L 645.275751 101.399492 
L 645.619277 101.491032 
L 646.021977 101.350844 
L 646.982176 100.659788 
L 649.718808 101.860548 
L 651.361843 102.108414 
L 652.776596 102.076733 
L 654.487432 101.757079 
L 660.039287 100.322208 
L 662.64617 100.051481 
L 666.085233 99.957985 
L 674.496594 99.981224 
L 674.496594 99.981224 
" style="fill:none;stroke:#000000;stroke-linecap:square;stroke-opacity:0.7;stroke-width:1.2;"/>
   </g>
   <g id="line2d_25">
    <path clip-path="url(#p050a53241a)" d="M 674.144975 55.953689 
L 672.749093 55.505699 
L 659.206304 50.912825 
L 656.415042 50.252887 
L 654.174366 49.923203 
L 652.328947 49.841277 
L 650.220399 50.022108 
L 648.478826 50.445084 
L 647.848204 50.670691 
L 645.923422 51.676403 
L 644.980053 52.468024 
L 644.447815 53.162442 
L 644.154965 53.863879 
L 644.085601 54.605198 
L 644.171057 55.122785 
L 644.719675 56.235117 
L 645.307536 56.848247 
L 645.835274 57.12101 
L 645.924906 57.08642 
L 645.898276 57.089826 
L 646.220552 57.307771 
L 647.03626 57.642607 
L 648.851708 58.10089 
L 651.021174 58.394941 
L 653.299476 58.48046 
L 655.730238 58.306624 
L 657.861373 57.902713 
L 662.126764 56.983958 
L 664.790812 56.725372 
L 667.942644 56.654417 
L 673.573837 56.610819 
L 673.573837 56.610819 
" style="fill:none;stroke:#000000;stroke-linecap:square;stroke-opacity:0.7;stroke-width:1.2;"/>
   </g>
  </g>
 </g>
 <defs>
  <clipPath id="p050a53241a">
   <rect height="262.08" width="694.08" x="12.96" y="12.96"/>
  </clipPath>
 </defs>
</svg>
