<?xml version="1.0" encoding="utf-8" standalone="no"?>
<!DOCTYPE svg PUBLIC "-//W3C//DTD SVG 1.1//EN"
  "http://www.w3.org/Graphics/SVG/1.1/DTD/svg11.dtd">
<!-- Created with matplotlib (https://matplotlib.org/) -->
<svg height="288pt" version="1.1" viewBox="0 0 720 288" width="720pt" xmlns="http://www.w3.org/2000/svg" xmlns:xlink="http://www.w3.org/1999/xlink">
 <defs>
  <style type="text/css">
*{stroke-linecap:butt;stroke-linejoin:round;}
  </style>
 </defs>
 <g id="figure_1">
  <g id="patch_1">
   <path d="M 0 288 
L 720 288 
L 720 0 
L 0 0 
z
" style="fill:#ffffff;"/>
  </g>
  <g id="axes_1">
   <g id="line2d_1">
    <path clip-path="url(#p3b80814c54)" d="M 63.375873 234.348321 
L 61.076414 235.256991 
L 60.046838 235.454964 
L 58.225841 235.657247 
L 58.065908 235.91106 
L 58.042839 236.260471 
L 58.257121 237.074815 
L 58.954559 238.553215 
L 60.884879 242.334708 
L 61.305831 243.717073 
L 61.315715 244.533222 
L 61.10926 244.88318 
L 60.732702 244.950114 
L 60.333696 244.787665 
L 59.471258 244.034445 
L 58.700558 243.024982 
L 57.936957 241.705125 
L 57.220396 240.022707 
L 56.787769 238.5134 
L 56.535071 236.714649 
L 56.563183 235.231904 
L 56.758043 234.063054 
L 57.125116 232.912215 
L 57.745868 231.698105 
L 58.647646 230.535422 
L 59.595804 229.688766 
L 60.574702 229.06169 
L 61.411849 228.671184 
L 62.874434 228.247763 
L 63.952234 228.132373 
L 65.126207 228.241557 
L 65.801452 228.502531 
L 66.107177 228.734526 
L 66.397663 229.179601 
L 66.465912 229.89416 
L 66.217933 230.721966 
L 65.934095 231.256602 
L 65.109682 232.345906 
L 64.37903 233.042851 
L 63.464461 233.611652 
L 63.19282 233.694272 
L 63.19282 233.694272 
" style="fill:none;stroke:#000000;stroke-linecap:square;stroke-opacity:0.7;stroke-width:1.2;"/>
   </g>
   <g id="line2d_2">
    <path clip-path="url(#p3b80814c54)" d="M 63.075556 188.723158 
L 61.85329 188.810033 
L 60.260187 188.695856 
L 59.001707 188.366376 
L 58.173924 187.910836 
L 57.630025 187.34918 
L 57.371497 186.798376 
L 57.326033 186.253278 
L 57.491481 185.743108 
L 57.873318 185.304568 
L 58.444084 184.98389 
L 59.072665 184.811393 
L 60.394026 184.76161 
L 61.644649 184.969838 
L 62.846303 185.365924 
L 64.081309 185.990852 
L 65.187702 186.801658 
L 66.122424 187.79228 
L 66.723216 188.732747 
L 67.153792 189.868 
L 67.276342 190.759535 
L 67.179559 191.632175 
L 66.862647 192.343262 
L 66.349053 192.868024 
L 65.662879 193.190399 
L 64.836608 193.301516 
L 64.041779 193.22612 
L 63.022363 192.925644 
L 61.953808 192.388083 
L 60.765644 191.529648 
L 59.363284 190.17199 
L 57.947574 188.447427 
L 56.652862 186.50821 
L 56.322831 185.670121 
L 56.386718 185.487181 
L 56.455877 185.449624 
L 57.067997 185.549462 
L 58.310892 186.112242 
L 62.145065 187.988587 
L 63.190406 188.355838 
L 63.190406 188.355838 
" style="fill:none;stroke:#000000;stroke-linecap:square;stroke-opacity:0.7;stroke-width:1.2;"/>
   </g>
   <g id="line2d_3">
    <path clip-path="url(#p3b80814c54)" d="M 62.879581 144.1331 
L 62.428382 143.888117 
L 61.694418 143.620701 
L 61.665699 143.329526 
L 61.725022 140.32246 
L 61.50773 138.661617 
L 60.999982 136.630168 
L 60.37429 134.930759 
L 59.311131 132.770561 
L 58.047246 130.757042 
L 56.239338 128.353563 
L 53.739232 125.057487 
L 53.009415 123.726902 
L 52.725711 122.792047 
L 52.793587 122.521834 
L 52.816206 122.525848 
L 52.983719 122.729564 
L 53.24956 123.519875 
L 53.481977 125.119518 
L 53.557359 126.977026 
L 53.460231 130.643872 
L 53.145688 138.976885 
L 53.322032 140.87543 
L 53.608791 141.688403 
L 54.163104 142.352928 
L 54.296695 142.454097 
L 55.707448 143.074115 
L 57.126593 143.362388 
L 59.276455 143.547266 
L 61.729259 143.549139 
L 62.703269 143.513286 
L 62.703269 143.513286 
" style="fill:none;stroke:#000000;stroke-linecap:square;stroke-opacity:0.7;stroke-width:1.2;"/>
   </g>
   <g id="line2d_4">
    <path clip-path="url(#p3b80814c54)" d="M 62.424625 98.178428 
L 61.875376 98.74787 
L 61.835691 98.697258 
L 61.153193 97.387412 
L 60.101682 95.164734 
L 59.654787 93.717515 
L 59.501396 92.507165 
L 59.574772 91.479206 
L 59.860358 90.65301 
L 60.161437 90.356988 
L 60.402618 90.391726 
L 60.624231 90.704263 
L 60.813937 91.427101 
L 60.90775 92.805704 
L 60.807877 94.414968 
L 60.498933 95.912749 
L 60.099153 96.876626 
L 59.500967 97.646122 
L 58.941838 98.011139 
L 58.165511 98.19307 
L 57.410416 98.12378 
L 56.63647 97.851926 
L 56.249123 97.551063 
L 56.267944 97.538588 
L 56.514118 97.541541 
L 61.848404 98.279686 
L 62.717377 98.190172 
L 62.717377 98.190172 
" style="fill:none;stroke:#000000;stroke-linecap:square;stroke-opacity:0.7;stroke-width:1.2;"/>
   </g>
   <g id="line2d_5">
    <path clip-path="url(#p3b80814c54)" d="M 63.213819 53.524549 
L 63.813392 54.398506 
L 63.912494 54.905351 
L 63.784826 55.283245 
L 63.390572 55.709548 
L 62.684039 56.136306 
L 61.509459 56.570269 
L 59.84731 56.91225 
L 58.046589 57.05215 
L 55.859739 56.967463 
L 53.822791 56.65895 
L 51.580261 56.056751 
L 49.864579 55.383331 
L 47.995242 54.370238 
L 46.599289 53.312114 
L 45.349523 51.880709 
L 44.892786 51.035518 
L 44.546675 49.784089 
L 44.522073 48.854946 
L 44.755893 47.687863 
L 45.173293 46.727144 
L 45.724812 45.88996 
L 46.509224 45.053173 
L 47.608749 44.279604 
L 48.614899 43.86733 
L 49.711226 43.68745 
L 50.641215 43.730251 
L 52.06003 44.088876 
L 53.531097 44.748193 
L 55.32616 45.803015 
L 59.221028 48.42938 
L 62.231249 50.365869 
L 64.463793 51.563506 
L 66.111471 52.183381 
L 66.764574 52.271413 
L 65.940093 52.230128 
L 64.790549 52.421828 
L 63.886974 52.719617 
L 63.191542 53.095563 
L 63.191542 53.095563 
" style="fill:none;stroke:#000000;stroke-linecap:square;stroke-opacity:0.7;stroke-width:1.2;"/>
   </g>
   <g id="line2d_6">
    <path clip-path="url(#p3b80814c54)" d="M 213.546921 234.138531 
L 214.175184 232.468747 
L 214.62621 230.717022 
L 214.810541 229.113952 
L 214.872659 228.23248 
L 214.640609 230.459808 
L 214.212616 231.578994 
L 213.489282 232.798394 
L 212.607449 233.845726 
L 211.465354 234.843044 
L 210.30416 235.584041 
L 209.052492 236.11875 
L 208.048707 236.32609 
L 207.134783 236.276975 
L 206.5197 236.044989 
L 205.961289 235.595891 
L 205.505982 234.915408 
L 205.184951 234.06394 
L 204.95496 232.868762 
L 204.886867 231.322774 
L 205.030095 229.99377 
L 205.312525 229.157968 
L 205.680597 228.727043 
L 206.062712 228.593192 
L 206.588301 228.663481 
L 207.257873 228.969516 
L 208.879773 230.082266 
L 213.548322 233.451146 
L 213.548322 233.451146 
" style="fill:none;stroke:#000000;stroke-linecap:square;stroke-opacity:0.7;stroke-width:1.2;"/>
   </g>
   <g id="line2d_7">
    <path clip-path="url(#p3b80814c54)" d="M 213.712706 188.165838 
L 216.198965 190.577909 
L 216.47978 191.316989 
L 216.463709 191.906269 
L 216.195021 192.525482 
L 215.562219 193.190681 
L 214.58795 193.774271 
L 213.437722 194.189676 
L 211.975816 194.456472 
L 210.709144 194.475313 
L 209.473655 194.2339 
L 208.878439 193.880086 
L 208.802403 193.667973 
L 208.964788 193.501539 
L 209.458194 193.410421 
L 210.418687 193.487062 
L 211.948966 193.849825 
L 214.34245 194.716166 
L 219.801971 196.90738 
L 220.6362 196.936415 
L 221.129477 196.734043 
L 221.39274 196.401517 
L 221.497893 195.753367 
L 221.263596 194.816291 
L 220.5277 193.530645 
L 219.365671 192.115022 
L 217.768181 190.528478 
L 216.208573 189.278886 
L 215.005532 188.593697 
L 214.076163 188.317934 
L 213.535306 188.350944 
L 213.682243 188.210778 
L 213.805136 187.955927 
L 213.805136 187.955927 
" style="fill:none;stroke:#000000;stroke-linecap:square;stroke-opacity:0.7;stroke-width:1.2;"/>
   </g>
   <g id="line2d_8">
    <path clip-path="url(#p3b80814c54)" d="M 213.468755 143.524957 
L 212.413042 144.305017 
L 211.368316 144.783384 
L 210.170934 145.068302 
L 207.771151 145.353031 
L 204.14145 145.849141 
L 202.750276 145.978205 
L 202.667421 145.833205 
L 202.982766 145.490315 
L 203.89758 144.912742 
L 205.286279 144.294471 
L 206.821213 143.854737 
L 208.215381 143.690904 
L 209.344666 143.771162 
L 210.333618 144.059547 
L 211.299757 144.597186 
L 213.185229 145.776458 
L 214.01169 145.907064 
L 214.839331 145.775314 
L 215.463759 145.45987 
L 215.778426 145.091433 
L 215.857372 144.643118 
L 215.711163 144.137192 
L 215.374779 143.647996 
L 214.834698 143.266188 
L 214.334803 143.146278 
L 213.78348 143.239809 
L 213.671237 143.345951 
L 213.671237 143.345951 
" style="fill:none;stroke:#000000;stroke-linecap:square;stroke-opacity:0.7;stroke-width:1.2;"/>
   </g>
   <g id="line2d_9">
    <path clip-path="url(#p3b80814c54)" d="M 213.48937 98.641166 
L 215.152918 100.354993 
L 215.36708 100.866624 
L 215.311868 101.224471 
L 215.065342 101.532391 
L 214.179747 102.090333 
L 212.327364 103.186767 
L 211.136502 104.18281 
L 210.255353 105.214209 
L 209.601516 106.329013 
L 209.285075 107.244719 
L 209.219608 108.050697 
L 209.37828 108.621911 
L 209.867814 109.147782 
L 210.456895 109.415183 
L 211.741906 109.668165 
L 215.894358 110.268769 
L 217.577248 110.816424 
L 219.054616 111.566754 
L 220.141572 112.080563 
L 220.601469 111.98725 
L 220.846592 111.749693 
L 221.143169 111.181636 
L 221.401191 110.174019 
L 221.509984 108.939512 
L 221.42014 107.262299 
L 221.092866 105.516012 
L 220.536917 103.751244 
L 219.778724 102.155531 
L 219.075416 101.15355 
L 218.272787 100.354937 
L 217.302594 99.693711 
L 216.167395 99.192243 
L 215.11453 98.913847 
L 213.958205 98.68574 
L 213.921014 98.559689 
L 213.921014 98.559689 
" style="fill:none;stroke:#000000;stroke-linecap:square;stroke-opacity:0.7;stroke-width:1.2;"/>
   </g>
   <g id="line2d_10">
    <path clip-path="url(#p3b80814c54)" d="M 212.663026 52.945317 
L 211.386855 53.264073 
L 207.10973 54.163436 
L 206.887638 54.370174 
L 206.966389 54.520381 
L 207.564088 54.904599 
L 217.565187 60.075964 
L 221.691836 62.180407 
L 221.756497 62.465352 
L 221.579654 62.611386 
L 221.071367 62.618626 
L 220.234657 62.364211 
L 219.1715 61.829256 
L 217.81651 60.883997 
L 216.675245 59.785277 
L 216.046524 58.976593 
L 215.236431 57.547366 
L 214.564153 55.833865 
L 213.359437 52.406235 
L 213.350612 52.493151 
L 213.358418 52.543418 
L 213.358418 52.543418 
" style="fill:none;stroke:#000000;stroke-linecap:square;stroke-opacity:0.7;stroke-width:1.2;"/>
   </g>
   <g id="line2d_11">
    <path clip-path="url(#p3b80814c54)" d="M 364.561038 233.957855 
L 362.815037 234.647826 
L 361.182565 235.064976 
L 359.078789 235.344701 
L 357.256479 235.553512 
L 357.355031 235.587743 
L 358.211781 235.579537 
L 363.334502 235.15638 
L 363.778823 234.835672 
L 364.289173 234.092162 
L 364.954672 233.368731 
L 365.170694 233.030147 
L 364.984277 232.911986 
L 364.544423 232.922062 
L 364.287939 233.128787 
L 364.329022 233.347356 
L 364.515538 233.460032 
L 364.527801 233.446206 
L 364.535808 233.425918 
L 364.535808 233.425918 
" style="fill:none;stroke:#000000;stroke-linecap:square;stroke-opacity:0.7;stroke-width:1.2;"/>
   </g>
   <g id="line2d_12">
    <path clip-path="url(#p3b80814c54)" d="M 365.055591 188.991582 
L 364.177092 188.67415 
L 361.76917 187.469256 
L 358.891415 186.105263 
L 357.987323 185.831492 
L 357.897677 185.964424 
L 358.25095 186.549016 
L 360.373806 189.242262 
L 362.622573 192.331179 
L 363.736885 194.228317 
L 364.261616 195.562588 
L 364.3838 196.338556 
L 364.273819 197.064332 
L 363.856445 197.649678 
L 363.211045 197.97898 
L 362.404385 198.070274 
L 361.511152 197.923998 
L 360.682611 197.590069 
L 359.668582 196.907501 
L 358.93055 196.184518 
L 358.144757 195.131814 
L 357.614081 194.174286 
L 356.974432 192.493605 
L 356.742678 191.535632 
L 356.516238 189.413658 
L 356.617233 187.564498 
L 356.828856 186.423944 
L 357.361172 184.925076 
L 357.900225 184.133865 
L 358.424367 183.75663 
L 358.829132 183.657727 
L 359.47724 183.761431 
L 360.168097 184.128459 
L 361.031157 184.820699 
L 363.367826 187.17925 
L 364.900437 188.583258 
L 364.947824 188.613114 
L 364.947824 188.613114 
" style="fill:none;stroke:#000000;stroke-linecap:square;stroke-opacity:0.7;stroke-width:1.2;"/>
   </g>
   <g id="line2d_13">
    <path clip-path="url(#p3b80814c54)" d="M 364.725126 143.817747 
L 365.764375 143.554022 
L 368.593699 142.66527 
L 369.598857 142.591006 
L 370.393874 142.731853 
L 370.882137 143.044465 
L 370.994411 143.357017 
L 370.901573 143.630177 
L 370.623082 143.923309 
L 369.761039 144.415725 
L 367.046726 145.519622 
L 363.764445 146.806689 
L 363.203014 146.82272 
L 362.291026 146.585962 
L 361.574881 146.189757 
L 361.060256 145.702063 
L 360.779471 145.141507 
L 360.769112 144.597124 
L 360.987715 144.11054 
L 362.127054 142.755218 
L 362.924247 142.601441 
L 363.840471 142.610777 
L 364.592926 142.804816 
L 364.716101 142.89847 
L 364.716101 142.89847 
" style="fill:none;stroke:#000000;stroke-linecap:square;stroke-opacity:0.7;stroke-width:1.2;"/>
   </g>
   <g id="line2d_14">
    <path clip-path="url(#p3b80814c54)" d="M 364.782673 98.70964 
L 367.967838 97.110807 
L 371.615326 95.510018 
L 373.356242 94.952575 
L 373.889715 94.957175 
L 373.934355 95.132446 
L 373.619275 95.515175 
L 372.674334 96.200887 
L 370.673191 97.319426 
L 366.996986 99.0711 
L 362.193715 101.156989 
L 359.470322 102.155546 
L 357.858776 102.540883 
L 356.84336 102.596512 
L 356.055071 102.447677 
L 355.417087 102.120013 
L 354.830858 101.559332 
L 354.288848 100.688069 
L 353.994354 99.968733 
L 353.704156 98.769066 
L 353.672376 97.500531 
L 353.860621 96.626516 
L 354.314563 95.650931 
L 354.87344 94.95959 
L 355.326214 94.705447 
L 355.782515 94.659137 
L 356.46313 94.807911 
L 358.131355 95.526248 
L 360.756362 96.657867 
L 362.806891 97.294143 
L 364.207253 97.502354 
L 364.207253 97.502354 
" style="fill:none;stroke:#000000;stroke-linecap:square;stroke-opacity:0.7;stroke-width:1.2;"/>
   </g>
   <g id="line2d_15">
    <path clip-path="url(#p3b80814c54)" d="M 364.626908 52.82144 
L 366.174058 52.453807 
L 367.843575 52.285629 
L 368.940687 52.368309 
L 369.229007 52.523004 
L 369.306457 52.832996 
L 369.184516 53.203045 
L 368.48826 54.331217 
L 366.687114 56.71003 
L 365.255667 58.298781 
L 364.145591 59.200605 
L 363.37172 59.652297 
L 362.378544 60.029484 
L 361.341429 60.187079 
L 360.2995 60.102543 
L 359.290734 59.77894 
L 358.303621 59.202527 
L 357.924609 58.898949 
L 357.027233 57.924483 
L 356.379832 56.834215 
L 356.041305 55.93329 
L 355.835163 54.939924 
L 355.843174 53.185137 
L 356.09167 52.021725 
L 356.657898 50.60346 
L 357.306201 49.54886 
L 357.747822 49.141937 
L 358.14508 49.14406 
L 359.265283 49.577463 
L 361.48529 50.615637 
L 363.445998 51.737446 
L 364.40652 52.327527 
L 364.40652 52.327527 
" style="fill:none;stroke:#000000;stroke-linecap:square;stroke-opacity:0.7;stroke-width:1.2;"/>
   </g>
   <g id="line2d_16">
    <path clip-path="url(#p3b80814c54)" d="M 514.943855 233.948602 
L 512.34796 234.455012 
L 509.617489 234.750964 
L 506.922377 234.956554 
L 506.53793 235.214749 
L 506.380879 235.648879 
L 506.42547 236.355253 
L 506.699879 237.370206 
L 507.458124 239.27363 
L 509.773897 244.192138 
L 510.842005 246.241447 
L 511.125749 246.512229 
L 511.534392 246.576127 
L 511.944873 246.352352 
L 512.482235 245.779133 
L 513.223972 244.604637 
L 514.104694 242.74087 
L 515.73848 238.632259 
L 518.061786 232.955966 
L 519.360316 230.289933 
L 519.429544 230.202466 
L 518.367516 231.611064 
L 517.48099 232.28471 
L 516.558132 232.773233 
L 515.243722 233.197277 
L 514.939035 233.239357 
L 514.939035 233.239357 
" style="fill:none;stroke:#000000;stroke-linecap:square;stroke-opacity:0.7;stroke-width:1.2;"/>
   </g>
   <g id="line2d_17">
    <path clip-path="url(#p3b80814c54)" d="M 514.798943 189.41022 
L 514.196193 189.661134 
L 513.131957 189.848678 
L 512.047058 189.772137 
L 511.122939 189.487567 
L 510.170063 188.932848 
L 509.345118 188.162238 
L 508.717078 187.287351 
L 508.5177 186.68737 
L 508.622545 186.692721 
L 509.082141 187.10931 
L 509.923925 188.200557 
L 510.811319 189.710764 
L 511.290996 190.938382 
L 511.509553 192.122968 
L 511.473123 193.165011 
L 511.27091 193.719249 
L 511.154989 193.7391 
L 511.012011 193.442268 
L 510.952303 192.747324 
L 511.075095 191.598069 
L 511.400258 190.410564 
L 511.97485 189.132421 
L 512.670015 188.067621 
L 513.465948 187.176243 
L 514.715305 186.21563 
L 515.801294 185.709347 
L 516.858473 185.497234 
L 517.468701 185.53799 
L 518.044547 185.804288 
L 518.249232 186.119216 
L 518.255388 186.537213 
L 518.021439 187.053449 
L 517.408292 187.754056 
L 516.321705 188.586648 
L 515.376125 189.121118 
L 515.376125 189.121118 
" style="fill:none;stroke:#000000;stroke-linecap:square;stroke-opacity:0.7;stroke-width:1.2;"/>
   </g>
   <g id="line2d_18">
    <path clip-path="url(#p3b80814c54)" d="M 515.189743 144.049487 
L 516.955616 145.60293 
L 518.703918 147.186048 
L 518.899974 147.588385 
L 518.798568 147.799338 
L 518.495482 147.957545 
L 517.650611 148.078805 
L 516.495819 148.013737 
L 514.736574 147.637068 
L 513.332206 147.113496 
L 512.4788 146.59108 
L 512.199788 146.255134 
L 512.144075 145.810853 
L 512.376539 145.386035 
L 512.940219 144.881644 
L 513.937643 144.306806 
L 515.180099 143.848725 
L 516.523767 143.609263 
L 517.56637 143.641934 
L 518.038117 143.846681 
L 518.181083 144.097447 
L 518.099723 144.400921 
L 517.847516 144.53353 
L 517.396421 144.514699 
L 516.565764 144.224306 
L 515.29714 143.537237 
L 515.346123 143.449688 
L 515.346123 143.449688 
" style="fill:none;stroke:#000000;stroke-linecap:square;stroke-opacity:0.7;stroke-width:1.2;"/>
   </g>
   <g id="line2d_19">
    <path clip-path="url(#p3b80814c54)" d="M 515.062465 98.375591 
L 517.251485 98.528915 
L 519.67888 98.528918 
L 520.813168 98.351592 
L 521.31224 98.076655 
L 521.444972 97.759334 
L 521.331647 97.342889 
L 520.651081 96.49155 
L 519.340056 95.370087 
L 516.978595 93.679902 
L 511.597867 90.200034 
L 503.745511 85.11837 
L 500.41748 82.709459 
L 499.055749 81.600137 
L 499.834684 82.383652 
L 501.554601 84.219356 
L 502.715905 85.810254 
L 504.045712 88.134888 
L 505.17527 89.913949 
L 506.176044 91.075776 
L 507.864854 92.662005 
L 513.721182 97.713747 
L 514.789702 98.399347 
L 515.045749 98.505974 
L 515.045749 98.505974 
" style="fill:none;stroke:#000000;stroke-linecap:square;stroke-opacity:0.7;stroke-width:1.2;"/>
   </g>
   <g id="line2d_20">
    <path clip-path="url(#p3b80814c54)" d="M 514.993893 52.93402 
L 514.473841 54.231823 
L 513.86765 55.189836 
L 513.355899 55.696086 
L 512.626884 56.096344 
L 511.724952 56.293645 
L 510.612827 56.292728 
L 509.455893 56.091246 
L 508.269797 55.64994 
L 507.450236 55.129855 
L 506.746552 54.4016 
L 506.293468 53.548517 
L 506.107797 52.714972 
L 506.120897 51.808444 
L 506.342549 50.810834 
L 506.830161 49.658981 
L 507.546063 48.543559 
L 508.334165 47.6912 
L 509.233796 47.074637 
L 510.0677 46.806456 
L 510.784571 46.789919 
L 511.687083 47.019331 
L 512.594994 47.49251 
L 513.575654 48.237495 
L 514.450559 49.095208 
L 515.576999 50.547146 
L 516.053336 51.439854 
L 516.251476 52.229234 
L 516.137988 52.693648 
L 515.808334 52.940562 
L 515.270629 53.022414 
L 514.47873 52.907027 
L 514.438292 52.845689 
L 514.511176 52.813716 
L 515.142444 52.766413 
L 515.142444 52.766413 
" style="fill:none;stroke:#000000;stroke-linecap:square;stroke-opacity:0.7;stroke-width:1.2;"/>
   </g>
   <g id="line2d_21">
    <path clip-path="url(#p3b80814c54)" d="M 666.194212 234.223046 
L 665.067455 233.492051 
L 664.915207 233.039519 
L 664.972249 232.589742 
L 665.165321 232.453375 
L 665.26487 232.602269 
L 665.256693 233.043366 
L 665.001346 233.720798 
L 664.422213 234.53448 
L 663.624626 235.245515 
L 662.764568 235.727938 
L 661.708012 236.016161 
L 660.681915 236.026651 
L 659.602395 235.794116 
L 658.420501 235.275452 
L 657.589099 234.708202 
L 656.929754 234.030924 
L 656.522986 233.309003 
L 656.365838 232.589607 
L 656.425079 231.847768 
L 656.702003 231.06841 
L 657.230212 230.230544 
L 658.027914 229.375428 
L 659.002342 228.636864 
L 660.005364 228.150843 
L 660.830987 227.997261 
L 661.476203 228.062522 
L 661.861923 228.180536 
L 663.022881 228.856347 
L 663.936376 229.699143 
L 664.837274 230.846842 
L 665.525418 232.090101 
L 665.875089 233.048757 
L 666.000127 233.835833 
L 666.000127 233.835833 
" style="fill:none;stroke:#000000;stroke-linecap:square;stroke-opacity:0.7;stroke-width:1.2;"/>
   </g>
   <g id="line2d_22">
    <path clip-path="url(#p3b80814c54)" d="M 665.906946 188.349961 
L 669.382048 188.128912 
L 672.826803 188.117252 
L 674.984317 188.306659 
L 675.465471 188.495921 
L 675.452862 188.690676 
L 675.08678 189.022016 
L 673.221277 190.527801 
L 672.191708 191.63397 
L 671.115397 193.10145 
L 669.980566 195.059768 
L 668.714595 197.26697 
L 668.325373 197.573306 
L 667.61669 197.82867 
L 663.987235 198.730561 
L 663.161566 198.685508 
L 662.56831 198.493219 
L 661.858528 198.053469 
L 661.033152 197.265027 
L 659.973304 195.888552 
L 658.95331 194.168297 
L 658.342539 192.766374 
L 658.000145 191.423983 
L 657.988371 190.204154 
L 658.150307 189.558518 
L 658.498872 188.888723 
L 658.942251 188.379693 
L 659.745024 187.807958 
L 660.391373 187.511511 
L 661.73225 187.154094 
L 662.919217 187.03528 
L 664.550561 187.130501 
L 665.625054 187.431003 
L 666.046207 187.717175 
L 666.046207 187.717175 
" style="fill:none;stroke:#000000;stroke-linecap:square;stroke-opacity:0.7;stroke-width:1.2;"/>
   </g>
   <g id="line2d_23">
    <path clip-path="url(#p3b80814c54)" d="M 666.238109 144.093519 
L 670.267326 146.205691 
L 670.341353 146.338438 
L 670.27015 146.360109 
L 669.787262 146.296404 
L 668.575253 145.949671 
L 665.595493 144.809676 
L 662.026716 143.186499 
L 656.71335 140.430047 
L 653.123809 138.346614 
L 649.258097 135.833641 
L 647.13609 134.27505 
L 644.399131 131.949584 
L 641.595267 128.854718 
L 640.648456 127.461729 
L 639.656306 125.516925 
L 639.196287 124.120382 
L 638.99981 122.825977 
L 639.079431 121.829601 
L 639.337328 121.239886 
L 639.691293 120.945895 
L 640.18975 120.875916 
L 640.645712 120.993061 
L 641.489844 121.458084 
L 642.920943 122.591375 
L 651.403037 129.838596 
L 657.29456 134.29388 
L 661.494991 137.55418 
L 663.752776 139.600333 
L 665.525005 141.520331 
L 666.367872 142.689147 
L 666.561497 143.202309 
L 666.548961 143.874232 
L 666.496218 144.058702 
L 666.496218 144.058702 
" style="fill:none;stroke:#000000;stroke-linecap:square;stroke-opacity:0.7;stroke-width:1.2;"/>
   </g>
   <g id="line2d_24">
    <path clip-path="url(#p3b80814c54)" d="M 665.767685 98.929382 
L 668.388541 99.021925 
L 670.402949 98.873243 
L 670.693095 98.720999 
L 670.608976 98.599057 
L 670.023624 98.342558 
L 667.907999 97.759754 
L 661.437681 96.072591 
L 658.639947 95.144153 
L 656.368802 94.211089 
L 653.905746 92.913622 
L 652.071848 91.630749 
L 650.767805 90.407602 
L 649.921985 89.289934 
L 649.475347 88.31676 
L 649.371226 87.610543 
L 649.524859 87.004748 
L 649.93685 86.583088 
L 650.460365 86.390099 
L 651.22338 86.354008 
L 652.227554 86.528605 
L 653.794768 87.070195 
L 656.04379 88.131153 
L 660.008585 90.302069 
L 664.106438 92.76402 
L 665.860123 94.042996 
L 666.74513 94.971397 
L 667.215346 95.850372 
L 667.353067 96.608591 
L 667.247658 97.388883 
L 666.958064 98.057148 
L 666.604863 98.524056 
L 666.144644 98.784381 
L 666.144644 98.784381 
" style="fill:none;stroke:#000000;stroke-linecap:square;stroke-opacity:0.7;stroke-width:1.2;"/>
   </g>
   <g id="line2d_25">
    <path clip-path="url(#p3b80814c54)" d="M 665.666426 52.913177 
L 661.785495 54.005 
L 659.543797 54.559962 
L 658.664059 54.560386 
L 658.21429 54.394259 
L 657.82296 54.047823 
L 657.445878 53.345368 
L 657.200819 52.41378 
L 657.058532 50.973077 
L 657.117418 49.35473 
L 657.448786 47.457905 
L 657.965196 45.799927 
L 659.196468 42.233717 
L 659.19258 41.619737 
L 658.986856 41.408377 
L 658.72622 41.488341 
L 658.473132 41.735105 
L 658.184247 42.246795 
L 657.927395 43.252366 
L 657.900007 44.316718 
L 658.106818 45.57454 
L 658.53768 46.790311 
L 659.261702 48.06757 
L 660.096604 49.103627 
L 661.331981 50.264779 
L 664.327831 52.639616 
L 664.832181 52.829347 
L 665.324395 52.814394 
L 665.599232 52.594232 
L 665.62878 52.515267 
L 665.62878 52.515267 
" style="fill:none;stroke:#000000;stroke-linecap:square;stroke-opacity:0.7;stroke-width:1.2;"/>
   </g>
  </g>
 </g>
 <defs>
  <clipPath id="p3b80814c54">
   <rect height="262.08" width="694.08" x="12.96" y="12.96"/>
  </clipPath>
 </defs>
</svg>
