<?xml version="1.0" encoding="utf-8" standalone="no"?>
<!DOCTYPE svg PUBLIC "-//W3C//DTD SVG 1.1//EN"
  "http://www.w3.org/Graphics/SVG/1.1/DTD/svg11.dtd">
<!-- Created with matplotlib (https://matplotlib.org/) -->
<svg height="288pt" version="1.1" viewBox="0 0 720 288" width="720pt" xmlns="http://www.w3.org/2000/svg" xmlns:xlink="http://www.w3.org/1999/xlink">
 <defs>
  <style type="text/css">
*{stroke-linecap:butt;stroke-linejoin:round;}
  </style>
 </defs>
 <g id="figure_1">
  <g id="patch_1">
   <path d="M 0 288 
L 720 288 
L 720 0 
L 0 0 
z
" style="fill:#ffffff;"/>
  </g>
  <g id="axes_1">
   <g id="line2d_1">
    <path clip-path="url(#p50d6279715)" d="M 145.929114 227.92529 
L 136.291587 224.261921 
L 126.919635 220.925488 
L 120.206918 218.759415 
L 114.665408 217.214826 
L 110.039877 216.164835 
L 105.815967 215.428493 
L 100.569056 214.811231 
L 96.376815 214.534646 
L 91.814218 214.425695 
L 85.978194 214.544748 
L 81.32696 214.831267 
L 74.859449 215.508301 
L 69.733278 216.293143 
L 65.67715 217.097337 
L 61.318693 218.190432 
L 58.331785 219.120961 
L 55.105488 220.357794 
L 52.294337 221.715576 
L 50.140935 223.018067 
L 48.483729 224.258715 
L 46.583775 226.153661 
L 45.865603 227.182484 
L 45.364581 228.416173 
L 45.331806 229.00263 
L 45.56613 229.626331 
L 46.005852 230.034053 
L 46.742983 230.377743 
L 47.814712 230.651027 
L 50.079707 230.952632 
L 54.866194 231.255691 
L 65.668929 231.618016 
L 82.412101 231.983381 
L 90.236948 231.934797 
L 97.567149 231.663159 
L 105.892087 231.127175 
L 119.501929 229.977912 
L 137.300956 228.503687 
L 145.94106 227.943661 
L 145.94106 227.943661 
" style="fill:none;stroke:#000000;stroke-linecap:square;stroke-opacity:0.7;stroke-width:1.2;"/>
   </g>
   <g id="line2d_2">
    <path clip-path="url(#p50d6279715)" d="M 145.82003 188.306793 
L 133.802308 185.763525 
L 111.944131 181.130225 
L 103.917029 179.681424 
L 97.778184 178.797091 
L 92.053477 178.187847 
L 86.500213 177.807026 
L 80.919512 177.63875 
L 76.123974 177.676661 
L 71.177842 177.916216 
L 66.998541 178.311255 
L 62.935651 178.916854 
L 59.816109 179.583957 
L 56.752988 180.480362 
L 54.428124 181.383833 
L 52.777677 182.184545 
L 50.966668 183.268238 
L 49.553981 184.317322 
L 48.500868 185.268047 
L 47.129328 186.899492 
L 46.630001 187.782065 
L 46.405456 188.499307 
L 46.479986 189.114541 
L 46.702901 189.361688 
L 47.137526 189.546854 
L 48.374801 189.685352 
L 52.981019 189.741476 
L 65.654448 189.715286 
L 76.322944 189.438238 
L 87.367077 188.883914 
L 103.775516 188.032375 
L 113.459223 187.770639 
L 124.41447 187.745562 
L 135.124163 187.948231 
L 145.844452 188.289216 
L 145.844452 188.289216 
" style="fill:none;stroke:#000000;stroke-linecap:square;stroke-opacity:0.7;stroke-width:1.2;"/>
   </g>
   <g id="line2d_3">
    <path clip-path="url(#p50d6279715)" d="M 145.771602 148.492743 
L 91.06656 142.719413 
L 83.734982 142.337541 
L 77.324644 142.240883 
L 71.465604 142.369597 
L 65.489247 142.741547 
L 60.064602 143.334384 
L 55.565466 144.084438 
L 52.652293 144.772127 
L 50.022258 145.650933 
L 48.699742 146.279866 
L 47.495307 147.120284 
L 46.954796 147.72479 
L 46.591378 148.499773 
L 46.555755 149.343144 
L 46.784932 150.052219 
L 47.105981 150.584689 
L 47.729044 151.288006 
L 49.014344 152.272914 
L 50.376569 153.027347 
L 52.220769 153.811351 
L 55.050601 154.714367 
L 58.316988 155.489546 
L 61.119771 156.008304 
L 66.561496 156.757879 
L 71.907994 157.250525 
L 77.72568 157.554448 
L 83.313417 157.619469 
L 88.852724 157.455216 
L 94.644908 157.043571 
L 101.302899 156.304264 
L 109.036627 155.173455 
L 118.360695 153.56132 
L 145.809492 148.474748 
L 145.809492 148.474748 
" style="fill:none;stroke:#000000;stroke-linecap:square;stroke-opacity:0.7;stroke-width:1.2;"/>
   </g>
   <g id="line2d_4">
    <path clip-path="url(#p50d6279715)" d="M 145.873306 108.331835 
L 133.872866 105.550113 
L 120.142447 102.570868 
L 111.945381 100.984451 
L 105.280726 99.919065 
L 99.711397 99.256311 
L 94.162363 98.82794 
L 88.661268 98.624553 
L 82.951559 98.630804 
L 76.781549 98.880614 
L 71.644044 99.29488 
L 67.061602 99.850893 
L 62.821883 100.564765 
L 59.838521 101.220611 
L 56.697562 102.105896 
L 54.051412 103.087095 
L 51.997937 104.099004 
L 50.287817 105.260785 
L 49.130242 106.417254 
L 48.794258 106.882537 
L 48.182174 108.242562 
L 48.050934 109.352691 
L 48.177104 110.279691 
L 48.610188 111.390611 
L 49.207624 112.298096 
L 50.361573 113.471176 
L 51.968506 114.580977 
L 53.687869 115.437622 
L 55.122688 115.999588 
L 57.194702 116.655356 
L 60.229176 117.402836 
L 64.263446 118.150326 
L 69.022424 118.785035 
L 74.410557 119.242108 
L 79.686534 119.43165 
L 84.924183 119.353021 
L 89.675031 119.034593 
L 93.811125 118.559501 
L 98.338137 117.835869 
L 103.630183 116.754424 
L 109.743163 115.272604 
L 130.979858 109.894166 
L 135.631679 109.043238 
L 139.877304 108.505434 
L 143.790369 108.273578 
L 145.84644 108.27713 
L 145.84644 108.27713 
" style="fill:none;stroke:#000000;stroke-linecap:square;stroke-opacity:0.7;stroke-width:1.2;"/>
   </g>
   <g id="line2d_5">
    <path clip-path="url(#p50d6279715)" d="M 145.879115 69.367872 
L 130.586402 65.17889 
L 111.054291 59.848911 
L 104.171194 58.197766 
L 98.204839 57.025178 
L 93.397939 56.31148 
L 88.207022 55.794057 
L 83.403586 55.552954 
L 79.004004 55.533336 
L 73.918002 55.756688 
L 69.087034 56.230868 
L 64.68996 56.916095 
L 61.397044 57.620544 
L 57.715921 58.658157 
L 55.493988 59.452176 
L 52.902264 60.596419 
L 50.435625 61.989927 
L 48.615316 63.299138 
L 47.004876 64.771052 
L 45.744594 66.289105 
L 44.892803 67.757983 
L 44.554763 68.773062 
L 44.509091 69.521716 
L 44.647633 70.000798 
L 44.958777 70.392052 
L 45.717117 70.804339 
L 46.950345 71.119623 
L 50.005673 71.520527 
L 55.992724 71.982422 
L 65.133584 72.442782 
L 74.728613 72.700768 
L 82.654725 72.703961 
L 91.403993 72.477405 
L 102.257507 71.946199 
L 122.361334 70.66158 
L 141.218997 69.553548 
L 145.900929 69.31871 
L 145.900929 69.31871 
" style="fill:none;stroke:#000000;stroke-linecap:square;stroke-opacity:0.7;stroke-width:1.2;"/>
   </g>
   <g id="line2d_6">
    <path clip-path="url(#p50d6279715)" d="M 278.278848 227.526869 
L 272.734503 225.723035 
L 265.631323 223.637098 
L 258.30282 221.707086 
L 251.714683 220.214429 
L 246.734136 219.288434 
L 241.721356 218.566866 
L 236.767921 218.068436 
L 230.865449 217.728527 
L 224.930732 217.621852 
L 219.010417 217.715055 
L 213.275588 217.982881 
L 206.406322 218.551121 
L 200.949558 219.240738 
L 196.152483 220.084838 
L 192.514927 220.927043 
L 189.356589 221.846019 
L 185.918498 223.109189 
L 183.701123 224.120632 
L 181.864955 225.129038 
L 180.966118 225.70688 
L 179.281754 227.082238 
L 178.56032 228.017089 
L 178.330277 228.654282 
L 178.400688 229.297569 
L 178.60209 229.63104 
L 179.010174 230.003237 
L 180.060014 230.530666 
L 181.50835 230.952547 
L 184.669153 231.48651 
L 189.151919 231.917469 
L 194.731738 232.235858 
L 202.556908 232.455735 
L 210.722166 232.439053 
L 217.769888 232.176736 
L 223.812032 231.724988 
L 230.535694 230.982521 
L 254.814988 227.939628 
L 261.90304 227.444475 
L 267.265671 227.270065 
L 272.418442 227.275199 
L 278.277408 227.493265 
L 278.277408 227.493265 
" style="fill:none;stroke:#000000;stroke-linecap:square;stroke-opacity:0.7;stroke-width:1.2;"/>
   </g>
   <g id="line2d_7">
    <path clip-path="url(#p50d6279715)" d="M 278.200979 187.963538 
L 271.7193 186.435843 
L 262.730291 184.554893 
L 253.989 182.939412 
L 246.144053 181.711293 
L 239.088341 180.840535 
L 232.277097 180.240231 
L 225.707879 179.884586 
L 219.174221 179.740673 
L 212.225031 179.827079 
L 206.341488 180.130327 
L 201.757495 180.559699 
L 197.013854 181.251126 
L 193.504834 181.984017 
L 190.253348 182.887061 
L 187.038331 184.050232 
L 184.693092 185.111464 
L 182.327839 186.425046 
L 180.717783 187.541781 
L 179.543336 188.668875 
L 179.279586 189.246907 
L 179.409819 189.565444 
L 179.787323 189.769303 
L 180.700047 189.950422 
L 182.695436 190.084173 
L 186.551471 190.104996 
L 191.974298 189.903592 
L 198.102808 189.47226 
L 206.918337 188.616625 
L 227.599177 186.451758 
L 234.857719 185.969497 
L 241.245662 185.770439 
L 247.153283 185.788817 
L 253.793175 186.029211 
L 261.454994 186.546678 
L 272.560694 187.570884 
L 278.197727 188.103963 
L 278.197727 188.103963 
" style="fill:none;stroke:#000000;stroke-linecap:square;stroke-opacity:0.7;stroke-width:1.2;"/>
   </g>
   <g id="line2d_8">
    <path clip-path="url(#p50d6279715)" d="M 278.247575 148.162141 
L 271.815757 146.796823 
L 262.073464 144.967067 
L 252.633631 143.410362 
L 244.749468 142.331545 
L 237.935206 141.631119 
L 231.392232 141.195038 
L 224.800451 140.978099 
L 218.054439 140.95676 
L 210.058372 141.173664 
L 203.647019 141.557443 
L 197.624703 142.147882 
L 193.230356 142.784224 
L 189.193568 143.594717 
L 186.022704 144.446801 
L 182.987708 145.52089 
L 180.564093 146.674375 
L 179.373367 147.430295 
L 178.378748 148.334756 
L 178.044493 148.893501 
L 177.977448 149.174559 
L 178.177685 149.857152 
L 178.52071 150.198785 
L 179.273727 150.641715 
L 180.520081 151.105118 
L 181.83603 151.450138 
L 184.623279 151.950645 
L 188.395681 152.351575 
L 193.470226 152.592574 
L 198.448988 152.613465 
L 205.440658 152.402018 
L 213.18309 151.925509 
L 221.426916 151.18112 
L 231.305624 150.042871 
L 243.335594 148.673443 
L 250.419731 148.089616 
L 257.0993 147.766085 
L 263.88402 147.683788 
L 270.251013 147.826316 
L 278.214042 148.257735 
L 278.214042 148.257735 
" style="fill:none;stroke:#000000;stroke-linecap:square;stroke-opacity:0.7;stroke-width:1.2;"/>
   </g>
   <g id="line2d_9">
    <path clip-path="url(#p50d6279715)" d="M 278.280584 108.346479 
L 272.583872 106.518653 
L 264.483074 104.166288 
L 257.125193 102.245985 
L 251.11393 100.879022 
L 245.305873 99.797203 
L 240.081812 99.070365 
L 235.100791 98.605047 
L 229.711536 98.331801 
L 223.468487 98.271475 
L 218.251769 98.404522 
L 211.276525 98.828695 
L 205.078515 99.460492 
L 200.242077 100.156273 
L 195.758874 101.006736 
L 191.816059 101.969579 
L 188.065616 103.13579 
L 185.071306 104.307811 
L 182.700882 105.459357 
L 181.068648 106.440874 
L 179.590951 107.612454 
L 178.83051 108.575351 
L 178.63023 109.42562 
L 178.767373 109.861106 
L 179.060811 110.238834 
L 179.304857 110.44667 
L 180.362438 111.026114 
L 181.679638 111.484908 
L 184.759017 112.18446 
L 188.910388 112.790809 
L 193.198666 113.214159 
L 199.325716 113.589373 
L 205.130172 113.742915 
L 210.747842 113.709078 
L 217.016383 113.438565 
L 221.878277 113.042497 
L 227.583181 112.371823 
L 235.220022 111.213985 
L 249.13336 109.04098 
L 255.239218 108.338431 
L 260.932905 107.922735 
L 266.513297 107.775252 
L 271.784813 107.88128 
L 277.269858 108.23296 
L 278.265829 108.322176 
L 278.265829 108.322176 
" style="fill:none;stroke:#000000;stroke-linecap:square;stroke-opacity:0.7;stroke-width:1.2;"/>
   </g>
   <g id="line2d_10">
    <path clip-path="url(#p50d6279715)" d="M 278.229189 68.816629 
L 262.483159 65.693025 
L 246.283123 62.56068 
L 238.406253 61.273238 
L 232.500311 60.545546 
L 227.55002 60.14001 
L 222.412447 59.920229 
L 216.798229 59.894899 
L 210.142337 60.124674 
L 204.371856 60.538551 
L 197.891714 61.253757 
L 192.401812 62.116168 
L 188.158457 63.022161 
L 184.669551 64.034311 
L 182.361124 64.943526 
L 181.107821 65.577678 
L 179.627599 66.558283 
L 178.540994 67.613434 
L 177.851284 68.783619 
L 177.660527 69.837945 
L 177.857927 70.798685 
L 178.368386 71.641405 
L 179.08154 72.334547 
L 180.024448 72.962279 
L 181.900073 73.796827 
L 183.652225 74.328178 
L 186.316229 74.896675 
L 191.548019 75.585424 
L 197.50727 76.033854 
L 204.106474 76.295593 
L 210.318365 76.348978 
L 217.43774 76.143476 
L 222.867232 75.757489 
L 228.363223 75.154668 
L 234.947408 74.197747 
L 247.561046 72.039447 
L 256.911708 70.540748 
L 263.360504 69.709752 
L 269.558456 69.144282 
L 274.868816 68.889876 
L 278.240617 68.867459 
L 278.240617 68.867459 
" style="fill:none;stroke:#000000;stroke-linecap:square;stroke-opacity:0.7;stroke-width:1.2;"/>
   </g>
   <g id="line2d_11">
    <path clip-path="url(#p50d6279715)" d="M 410.572596 228.168621 
L 403.926523 227.189916 
L 393.309334 225.402019 
L 364.231537 220.349376 
L 358.513993 219.660582 
L 352.329126 219.153147 
L 346.651091 218.91502 
L 341.247722 218.897964 
L 336.113558 219.087914 
L 331.241748 219.485141 
L 327.410889 219.979721 
L 323.794061 220.632602 
L 319.956456 221.581868 
L 316.57876 222.716655 
L 314.268061 223.726441 
L 312.369929 224.77446 
L 310.977267 225.750635 
L 309.560146 227.134389 
L 308.974561 228.088713 
L 308.791276 228.805903 
L 308.902662 229.465152 
L 309.115466 229.794051 
L 309.594912 230.179283 
L 310.484761 230.544957 
L 311.571147 230.784254 
L 314.494509 231.063139 
L 319.102843 231.16113 
L 328.547457 231.032166 
L 351.800781 230.62956 
L 363.563737 230.352811 
L 376.761801 229.779997 
L 410.62533 228.159282 
L 410.62533 228.159282 
" style="fill:none;stroke:#000000;stroke-linecap:square;stroke-opacity:0.7;stroke-width:1.2;"/>
   </g>
   <g id="line2d_12">
    <path clip-path="url(#p50d6279715)" d="M 410.566781 188.200871 
L 404.324607 187.619716 
L 394.183447 186.905665 
L 381.050561 186.198166 
L 366.61492 185.643017 
L 356.083234 185.418837 
L 344.694346 185.392231 
L 334.891395 185.571416 
L 327.219834 185.892044 
L 321.512176 186.308368 
L 317.334444 186.789346 
L 314.171688 187.351897 
L 312.78378 187.712457 
L 311.421413 188.235526 
L 310.770941 188.665916 
L 310.482621 189.103361 
L 310.502148 189.453314 
L 310.955022 189.990803 
L 311.863643 190.495112 
L 312.948075 190.893166 
L 315.244496 191.47276 
L 317.620109 191.886523 
L 322.023287 192.382341 
L 327.467629 192.700089 
L 334.257201 192.82426 
L 342.751426 192.726071 
L 352.802121 192.35343 
L 363.251216 191.708048 
L 379.572823 190.414902 
L 399.024596 188.930578 
L 410.566308 188.156332 
L 410.566308 188.156332 
" style="fill:none;stroke:#000000;stroke-linecap:square;stroke-opacity:0.7;stroke-width:1.2;"/>
   </g>
   <g id="line2d_13">
    <path clip-path="url(#p50d6279715)" d="M 410.582654 148.547226 
L 401.466408 147.656885 
L 385.34412 146.320839 
L 368.6922 145.145185 
L 358.319689 144.617244 
L 348.767766 144.359484 
L 339.987237 144.32943 
L 330.883934 144.533213 
L 324.576016 144.888588 
L 319.751984 145.372938 
L 315.612494 146.053796 
L 312.732145 146.806597 
L 311.236091 147.387846 
L 309.973467 148.136519 
L 309.418377 148.725991 
L 309.237469 149.29165 
L 309.375915 149.743123 
L 309.74182 150.120512 
L 310.507438 150.532199 
L 312.164195 151.019522 
L 314.692063 151.456649 
L 319.26377 151.95809 
L 325.797478 152.435233 
L 334.633884 152.837952 
L 342.320122 152.978105 
L 349.649667 152.901807 
L 357.641326 152.581239 
L 367.824205 151.91318 
L 393.669806 149.853599 
L 410.584826 148.573661 
L 410.584826 148.573661 
" style="fill:none;stroke:#000000;stroke-linecap:square;stroke-opacity:0.7;stroke-width:1.2;"/>
   </g>
   <g id="line2d_14">
    <path clip-path="url(#p50d6279715)" d="M 410.699127 108.972669 
L 403.936392 107.165899 
L 373.471075 98.780652 
L 368.493628 97.72028 
L 364.222654 96.986351 
L 360.159681 96.454726 
L 355.672831 96.057566 
L 350.676386 95.842325 
L 345.130364 95.875157 
L 341.365807 96.061652 
L 336.122645 96.558381 
L 331.402705 97.276219 
L 328.637215 97.841632 
L 325.295543 98.705523 
L 322.657004 99.566384 
L 319.378161 100.939354 
L 316.822775 102.343567 
L 314.871045 103.713821 
L 313.421396 104.99004 
L 312.16511 106.40256 
L 311.231298 107.867265 
L 310.840629 108.866082 
L 310.744515 109.874808 
L 310.945104 110.474906 
L 311.540766 111.040772 
L 312.208325 111.334741 
L 314.017303 111.708733 
L 316.622873 111.942113 
L 322.454764 112.163196 
L 336.547929 112.375027 
L 350.410944 112.42134 
L 360.240454 112.21599 
L 369.769872 111.787304 
L 382.53044 110.976659 
L 410.713737 109.013176 
L 410.713737 109.013176 
" style="fill:none;stroke:#000000;stroke-linecap:square;stroke-opacity:0.7;stroke-width:1.2;"/>
   </g>
   <g id="line2d_15">
    <path clip-path="url(#p50d6279715)" d="M 410.575741 69.117265 
L 402.901925 68.551253 
L 388.232456 67.720436 
L 353.454667 66.046144 
L 343.39447 65.756114 
L 336.349703 65.742638 
L 330.231464 65.921647 
L 324.502392 66.300332 
L 319.140293 66.893851 
L 314.621351 67.654499 
L 312.069527 68.270491 
L 310.454166 68.819626 
L 309.53025 69.323398 
L 309.295974 69.723161 
L 309.437219 69.952923 
L 309.978971 70.273642 
L 311.681476 70.861258 
L 314.324661 71.502103 
L 318.017865 72.140735 
L 322.472919 72.649754 
L 327.721849 72.985762 
L 332.80074 73.110683 
L 339.774179 73.061011 
L 350.835278 72.699797 
L 369.759542 71.817252 
L 390.895525 70.612173 
L 408.820558 69.374737 
L 410.588552 69.233723 
L 410.588552 69.233723 
" style="fill:none;stroke:#000000;stroke-linecap:square;stroke-opacity:0.7;stroke-width:1.2;"/>
   </g>
   <g id="line2d_16">
    <path clip-path="url(#p50d6279715)" d="M 543.088682 227.823534 
L 527.777034 224.131391 
L 514.955783 221.228114 
L 507.071469 219.626225 
L 500.567281 218.510606 
L 494.242606 217.677955 
L 488.685589 217.178693 
L 483.249268 216.903909 
L 477.602745 216.8431 
L 472.775533 216.981951 
L 467.745775 217.338809 
L 463.844113 217.795914 
L 459.545367 218.536483 
L 456.606258 219.232486 
L 453.433681 220.221192 
L 450.648206 221.369353 
L 449.387799 222.004856 
L 447.36867 223.229916 
L 446.143948 224.144573 
L 444.590753 225.622798 
L 443.628442 226.955947 
L 443.203952 228.173421 
L 443.280923 228.879193 
L 443.514116 229.276747 
L 443.879692 229.600806 
L 444.64108 229.971915 
L 445.993586 230.317939 
L 448.458146 230.639145 
L 452.312959 230.881373 
L 458.606361 231.00599 
L 466.64216 230.896193 
L 474.429912 230.570666 
L 483.801912 229.943025 
L 508.467228 228.133134 
L 517.268595 227.784617 
L 526.355085 227.651002 
L 537.331136 227.744144 
L 543.093057 227.868001 
L 543.093057 227.868001 
" style="fill:none;stroke:#000000;stroke-linecap:square;stroke-opacity:0.7;stroke-width:1.2;"/>
   </g>
   <g id="line2d_17">
    <path clip-path="url(#p50d6279715)" d="M 543.046947 187.939845 
L 526.727275 184.739736 
L 515.550418 182.752393 
L 508.209622 181.663315 
L 501.915844 180.962159 
L 495.571473 180.512374 
L 489.098974 180.303864 
L 483.016715 180.309158 
L 475.232485 180.57864 
L 468.794593 181.040146 
L 463.383714 181.636605 
L 458.708346 182.360768 
L 454.792488 183.181066 
L 451.322098 184.159974 
L 449.016501 185.030071 
L 447.185977 185.96114 
L 446.653208 186.307243 
L 445.544794 187.288036 
L 445.057756 188.112912 
L 444.966793 188.811524 
L 445.258439 189.623739 
L 445.861208 190.288869 
L 446.746504 190.885229 
L 447.857978 191.40124 
L 449.747271 192.006487 
L 452.491218 192.587268 
L 456.262979 193.110944 
L 461.106991 193.559182 
L 468.3729 193.980828 
L 476.026513 194.184002 
L 483.08839 194.136512 
L 489.695605 193.838214 
L 495.492398 193.346911 
L 502.351874 192.51936 
L 514.017129 190.816876 
L 523.391538 189.519199 
L 531.118011 188.667345 
L 536.84873 188.217878 
L 543.011457 187.943439 
L 543.011457 187.943439 
" style="fill:none;stroke:#000000;stroke-linecap:square;stroke-opacity:0.7;stroke-width:1.2;"/>
   </g>
   <g id="line2d_18">
    <path clip-path="url(#p50d6279715)" d="M 543.037079 148.304551 
L 524.616311 145.193953 
L 509.100378 142.743851 
L 499.560286 141.442878 
L 493.132307 140.749971 
L 486.747562 140.261442 
L 480.372837 140.002039 
L 475.882815 139.972973 
L 470.125506 140.153554 
L 465.3599 140.530287 
L 461.143828 141.085108 
L 457.823686 141.71047 
L 454.315524 142.604165 
L 450.98295 143.741957 
L 448.139495 145.015002 
L 446.037934 146.218899 
L 444.315035 147.509235 
L 443.49061 148.377579 
L 443.06718 149.22887 
L 443.094041 149.643521 
L 443.277606 149.94695 
L 443.701403 150.268507 
L 444.550976 150.616702 
L 446.567047 151.070589 
L 449.855261 151.47423 
L 453.82603 151.715812 
L 458.995858 151.792437 
L 464.741273 151.665219 
L 472.851069 151.213681 
L 481.413955 150.475671 
L 508.784406 147.847087 
L 515.414063 147.56253 
L 522.039844 147.493201 
L 528.908822 147.636199 
L 537.400393 148.057352 
L 543.021527 148.430912 
L 543.021527 148.430912 
" style="fill:none;stroke:#000000;stroke-linecap:square;stroke-opacity:0.7;stroke-width:1.2;"/>
   </g>
   <g id="line2d_19">
    <path clip-path="url(#p50d6279715)" d="M 543.145463 108.638136 
L 538.281002 106.805595 
L 529.908019 103.920656 
L 520.370289 100.878738 
L 512.43859 98.56112 
L 506.028403 96.897665 
L 501.731706 95.933344 
L 495.883233 94.868081 
L 490.922347 94.213517 
L 486.049651 93.799062 
L 481.693423 93.618387 
L 476.24933 93.644362 
L 472.316779 93.842724 
L 467.387491 94.322479 
L 463.179184 94.964359 
L 459.678424 95.695001 
L 455.848088 96.754943 
L 453.498024 97.580874 
L 450.391149 98.957765 
L 447.819722 100.450619 
L 445.747594 102.009422 
L 444.001191 103.708335 
L 442.62387 105.47609 
L 441.713701 107.118542 
L 441.289359 108.427007 
L 441.235094 109.484043 
L 441.419829 110.166083 
L 441.680214 110.60763 
L 442.074574 111.029009 
L 442.954835 111.611387 
L 444.34102 112.163835 
L 445.431148 112.458908 
L 447.957884 112.904696 
L 450.238581 113.133629 
L 454.032036 113.285533 
L 457.872436 113.233262 
L 463.758214 112.865576 
L 469.724566 112.238385 
L 478.35922 111.058292 
L 499.461013 108.021647 
L 506.463271 107.281186 
L 513.020894 106.8358 
L 518.582381 106.691094 
L 523.896554 106.772195 
L 529.259843 107.069295 
L 535.304273 107.636922 
L 542.399086 108.560248 
L 543.138334 108.670452 
L 543.138334 108.670452 
" style="fill:none;stroke:#000000;stroke-linecap:square;stroke-opacity:0.7;stroke-width:1.2;"/>
   </g>
   <g id="line2d_20">
    <path clip-path="url(#p50d6279715)" d="M 542.985229 68.996128 
L 522.461226 65.852904 
L 509.605488 64.058764 
L 500.607456 63.008727 
L 492.740139 62.334081 
L 486.44614 61.991422 
L 479.317276 61.820773 
L 472.110653 61.894465 
L 465.785254 62.205118 
L 461.071582 62.642938 
L 456.799887 63.2614 
L 453.38452 63.971811 
L 450.226089 64.869173 
L 448.610978 65.448413 
L 446.561345 66.34604 
L 444.719541 67.384297 
L 443.664598 68.154135 
L 442.879658 68.915701 
L 442.484298 69.510288 
L 442.443779 70.115061 
L 442.681234 70.319567 
L 443.160673 70.436339 
L 444.389955 70.440462 
L 482.222226 68.232229 
L 491.526295 67.973012 
L 501.270654 67.935339 
L 512.863804 68.137915 
L 529.934045 68.6965 
L 542.995028 69.103563 
L 542.995028 69.103563 
" style="fill:none;stroke:#000000;stroke-linecap:square;stroke-opacity:0.7;stroke-width:1.2;"/>
   </g>
   <g id="line2d_21">
    <path clip-path="url(#p50d6279715)" d="M 675.471633 227.862267 
L 663.589552 225.574238 
L 641.634224 221.343625 
L 633.391282 220.014856 
L 627.288524 219.248543 
L 621.22137 218.70488 
L 615.271481 218.386354 
L 609.542123 218.281978 
L 604.008259 218.38425 
L 599.172241 218.666095 
L 594.169558 219.2017 
L 590.767106 219.756857 
L 587.117808 220.591827 
L 584.895625 221.263646 
L 581.793754 222.491303 
L 579.951003 223.444817 
L 578.431838 224.420545 
L 576.963208 225.635332 
L 575.910825 226.880631 
L 575.471648 227.788121 
L 575.403791 228.546675 
L 575.61307 229.068693 
L 576.011546 229.463494 
L 576.891344 229.898835 
L 578.283417 230.264001 
L 581.120829 230.687481 
L 585.848456 231.125153 
L 592.40824 231.509388 
L 598.947194 231.715179 
L 607.162879 231.728241 
L 614.043883 231.507252 
L 621.966115 231.009035 
L 636.724941 229.75786 
L 648.496017 228.853515 
L 658.235179 228.315729 
L 667.645426 228.0056 
L 675.490909 227.903454 
L 675.490909 227.903454 
" style="fill:none;stroke:#000000;stroke-linecap:square;stroke-opacity:0.7;stroke-width:1.2;"/>
   </g>
   <g id="line2d_22">
    <path clip-path="url(#p50d6279715)" d="M 675.414574 188.014244 
L 667.815471 186.768382 
L 657.105399 185.226801 
L 646.781155 183.938328 
L 638.543005 183.09868 
L 630.342012 182.493587 
L 622.574571 182.154804 
L 613.883791 182.026706 
L 605.633095 182.149593 
L 599.394626 182.443758 
L 594.005416 182.904126 
L 589.223652 183.546049 
L 585.375407 184.285244 
L 582.420052 185.039638 
L 579.39639 186.065608 
L 577.690487 186.840502 
L 576.381855 187.651086 
L 575.63957 188.396504 
L 575.524434 188.611275 
L 575.482634 189.097503 
L 575.677755 189.412079 
L 576.1042 189.706463 
L 576.954451 190.015784 
L 578.114007 190.261992 
L 580.442361 190.546429 
L 585.361424 190.811299 
L 592.050306 190.866698 
L 600.270921 190.689037 
L 609.974722 190.249916 
L 621.797815 189.456376 
L 639.286136 188.22026 
L 647.711467 187.852473 
L 656.47891 187.706307 
L 665.486242 187.796372 
L 675.407484 188.088829 
L 675.407484 188.088829 
" style="fill:none;stroke:#000000;stroke-linecap:square;stroke-opacity:0.7;stroke-width:1.2;"/>
   </g>
   <g id="line2d_23">
    <path clip-path="url(#p50d6279715)" d="M 675.468962 148.190548 
L 670.051444 146.762189 
L 662.74156 145.068124 
L 655.122328 143.514834 
L 649.288637 142.488971 
L 642.309285 141.49653 
L 636.426876 140.891351 
L 630.701114 140.505304 
L 625.574432 140.309394 
L 617.349717 140.240631 
L 609.619648 140.422988 
L 602.697797 140.810288 
L 596.46057 141.40998 
L 592.265337 142.014057 
L 588.499948 142.758749 
L 585.318179 143.592004 
L 582.314029 144.605825 
L 579.951429 145.608814 
L 577.838105 146.72952 
L 576.133205 147.916931 
L 575.380653 148.657199 
L 575.031546 149.222006 
L 574.970732 149.642144 
L 575.113097 149.961476 
L 575.437023 150.225202 
L 576.275487 150.540836 
L 577.795059 150.80574 
L 581.026956 151.022724 
L 585.458223 151.046327 
L 591.741387 150.822557 
L 600.614289 150.227465 
L 632.627005 147.771506 
L 641.015748 147.473183 
L 649.832717 147.392853 
L 658.819516 147.543372 
L 669.304044 147.954581 
L 675.457048 148.266955 
L 675.457048 148.266955 
" style="fill:none;stroke:#000000;stroke-linecap:square;stroke-opacity:0.7;stroke-width:1.2;"/>
   </g>
   <g id="line2d_24">
    <path clip-path="url(#p50d6279715)" d="M 675.457799 108.607008 
L 665.774376 106.204652 
L 655.256 103.805136 
L 646.673604 102.072442 
L 639.992457 100.956517 
L 634.599796 100.256709 
L 628.461267 99.697268 
L 622.932461 99.398765 
L 616.257094 99.274406 
L 610.447165 99.367564 
L 604.267084 99.686586 
L 599.193423 100.152071 
L 594.757823 100.755505 
L 590.19514 101.635691 
L 586.885755 102.494061 
L 583.959041 103.45451 
L 581.045341 104.65738 
L 578.881636 105.776673 
L 577.032097 106.995735 
L 575.8268 108.099913 
L 575.257684 109.034648 
L 575.219886 109.593982 
L 575.520201 110.100037 
L 576.111789 110.476005 
L 577.129091 110.799427 
L 578.535759 111.03208 
L 581.007524 111.213903 
L 584.849712 111.2658 
L 592.312555 111.073831 
L 605.794759 110.433049 
L 625.239644 109.285098 
L 639.312206 108.488972 
L 649.081655 108.178065 
L 658.171668 108.129639 
L 668.12225 108.325678 
L 675.483105 108.601835 
L 675.483105 108.601835 
" style="fill:none;stroke:#000000;stroke-linecap:square;stroke-opacity:0.7;stroke-width:1.2;"/>
   </g>
   <g id="line2d_25">
    <path clip-path="url(#p50d6279715)" d="M 675.456599 68.707474 
L 669.923247 67.245164 
L 661.795975 65.344132 
L 652.892329 63.502183 
L 645.155469 62.137016 
L 638.743988 61.22342 
L 632.283593 60.541983 
L 626.684974 60.152757 
L 620.721172 59.932736 
L 614.487796 59.904574 
L 608.174635 60.088673 
L 602.819548 60.434979 
L 597.776389 60.961324 
L 592.82397 61.730842 
L 589.212346 62.504197 
L 585.374245 63.586161 
L 582.186524 64.747083 
L 579.080689 66.186398 
L 576.629301 67.656254 
L 575.169141 68.834451 
L 574.40747 69.845874 
L 574.324411 70.258682 
L 574.45559 70.616218 
L 574.897437 70.954505 
L 575.895623 71.27051 
L 576.964605 71.439473 
L 580.199663 71.623679 
L 582.572971 71.614017 
L 588.190269 71.335977 
L 594.624686 70.737831 
L 603.102457 69.677384 
L 623.199326 67.020045 
L 629.693008 66.419692 
L 636.082062 66.045072 
L 642.012653 65.918142 
L 647.448671 66.001707 
L 652.764694 66.26753 
L 659.214519 66.811271 
L 666.614306 67.659782 
L 675.41751 68.785776 
L 675.41751 68.785776 
" style="fill:none;stroke:#000000;stroke-linecap:square;stroke-opacity:0.7;stroke-width:1.2;"/>
   </g>
  </g>
 </g>
 <defs>
  <clipPath id="p50d6279715">
   <rect height="262.08" width="694.08" x="12.96" y="12.96"/>
  </clipPath>
 </defs>
</svg>
