<?xml version="1.0" encoding="utf-8" standalone="no"?>
<!DOCTYPE svg PUBLIC "-//W3C//DTD SVG 1.1//EN"
  "http://www.w3.org/Graphics/SVG/1.1/DTD/svg11.dtd">
<!-- Created with matplotlib (https://matplotlib.org/) -->
<svg height="288pt" version="1.1" viewBox="0 0 720 288" width="720pt" xmlns="http://www.w3.org/2000/svg" xmlns:xlink="http://www.w3.org/1999/xlink">
 <defs>
  <style type="text/css">
*{stroke-linecap:butt;stroke-linejoin:round;}
  </style>
 </defs>
 <g id="figure_1">
  <g id="patch_1">
   <path d="M 0 288 
L 720 288 
L 720 0 
L 0 0 
z
" style="fill:#ffffff;"/>
  </g>
  <g id="axes_1">
   <g id="line2d_1">
    <path clip-path="url(#p813833e55d)" d="M 134.834986 226.969757 
L 129.03809 225.155268 
L 114.131786 220.540611 
L 106.639828 218.453398 
L 101.421859 217.236071 
L 96.919993 216.44246 
L 93.311701 216.021616 
L 88.994031 215.779749 
L 84.67448 215.796781 
L 80.045361 216.055126 
L 74.767868 216.599325 
L 70.187917 217.261494 
L 64.591258 218.307778 
L 60.52651 219.244917 
L 58.022024 219.904192 
L 52.204117 221.72451 
L 50.388995 222.40587 
L 46.773497 224.124361 
L 45.627079 224.955538 
L 45.004613 225.649736 
L 44.733423 226.133014 
L 44.519104 226.915275 
L 44.509091 227.570719 
L 44.898747 228.928012 
L 45.504551 229.870546 
L 46.635599 230.956948 
L 47.596569 231.595707 
L 49.646883 232.54304 
L 52.111864 233.280083 
L 55.362795 233.899598 
L 59.081023 234.33214 
L 63.175789 234.599343 
L 67.990026 234.711434 
L 73.682619 234.605941 
L 79.289184 234.281325 
L 85.324838 233.735116 
L 94.040147 232.689348 
L 105.103919 231.098456 
L 124.911735 228.175663 
L 133.560402 227.135556 
L 134.825623 227.022162 
L 134.825623 227.022162 
" style="fill:none;stroke:#000000;stroke-linecap:square;stroke-opacity:0.7;stroke-width:1.2;"/>
   </g>
   <g id="line2d_2">
    <path clip-path="url(#p813833e55d)" d="M 134.745762 186.337883 
L 126.472874 184.212434 
L 115.42725 181.478738 
L 108.060232 179.879008 
L 103.328919 179.035251 
L 98.846973 178.433886 
L 95.163828 178.115977 
L 90.130024 177.955304 
L 86.344067 178.029952 
L 80.692813 178.404274 
L 74.581044 179.094217 
L 68.269809 180.063785 
L 62.696772 181.134471 
L 58.065867 182.217009 
L 54.243926 183.310247 
L 51.180647 184.409841 
L 50.546883 184.67868 
L 48.743392 185.597337 
L 47.776042 186.340421 
L 47.462618 186.938767 
L 47.566089 187.346367 
L 47.874997 187.739756 
L 48.950242 188.622767 
L 50.00746 189.281108 
L 52.07407 190.2643 
L 54.036861 190.979742 
L 57.798295 192.025494 
L 61.876217 192.875822 
L 65.865403 193.518257 
L 71.020209 194.11267 
L 76.196708 194.434533 
L 80.495541 194.481364 
L 86.172891 194.251298 
L 92.427043 193.674449 
L 98.590979 192.857405 
L 106.726809 191.538476 
L 134.707785 186.62754 
L 134.707785 186.62754 
" style="fill:none;stroke:#000000;stroke-linecap:square;stroke-opacity:0.7;stroke-width:1.2;"/>
   </g>
   <g id="line2d_3">
    <path clip-path="url(#p813833e55d)" d="M 134.905283 145.253602 
L 130.867771 144.107144 
L 108.287323 137.498138 
L 102.72353 136.17016 
L 97.759543 135.237149 
L 93.266006 134.638358 
L 87.819442 134.227327 
L 85.101192 134.142104 
L 79.64898 134.190435 
L 73.620472 134.570775 
L 68.459475 135.192391 
L 65.094937 135.782547 
L 61.525205 136.631811 
L 58.468156 137.629297 
L 56.425323 138.506441 
L 54.440848 139.599859 
L 52.624 140.906708 
L 51.292221 142.13397 
L 48.88214 144.80653 
L 48.748081 145.174014 
L 48.820015 145.438229 
L 49.354341 145.91673 
L 49.909217 146.163502 
L 52.073595 146.578375 
L 53.969925 146.638491 
L 57.383432 146.418992 
L 60.373089 146.036249 
L 66.075392 145.060314 
L 74.426425 143.382225 
L 85.308747 141.234723 
L 90.757572 140.381827 
L 95.407778 139.868282 
L 99.059419 139.633872 
L 104.379726 139.58137 
L 108.816357 139.798547 
L 112.523267 140.149151 
L 117.495951 140.833012 
L 122.846624 141.802491 
L 128.923823 143.154278 
L 134.718064 144.68037 
L 134.718064 144.68037 
" style="fill:none;stroke:#000000;stroke-linecap:square;stroke-opacity:0.7;stroke-width:1.2;"/>
   </g>
   <g id="line2d_4">
    <path clip-path="url(#p813833e55d)" d="M 134.761242 105.508928 
L 126.07677 104.307105 
L 115.410411 103.006091 
L 106.929991 102.149877 
L 99.301809 101.60188 
L 92.747067 101.394921 
L 87.825243 101.455896 
L 82.465296 101.75381 
L 75.759949 102.390635 
L 67.203205 103.241 
L 62.536739 103.535334 
L 47.977875 104.202379 
L 46.286234 104.525477 
L 45.507377 104.840592 
L 45.455043 104.954955 
L 45.787604 105.196367 
L 46.890586 105.562286 
L 49.310271 106.154643 
L 53.180771 106.778657 
L 57.790481 107.188828 
L 63.757378 107.42046 
L 70.852283 107.444212 
L 79.396214 107.247074 
L 100.490418 106.652976 
L 130.214919 106.091689 
L 134.77821 105.897828 
L 134.77821 105.897828 
" style="fill:none;stroke:#000000;stroke-linecap:square;stroke-opacity:0.7;stroke-width:1.2;"/>
   </g>
   <g id="line2d_5">
    <path clip-path="url(#p813833e55d)" d="M 134.791241 64.75403 
L 129.231058 63.355233 
L 105.757397 57.395233 
L 98.646479 55.807353 
L 93.54417 54.847071 
L 87.940119 54.034533 
L 83.259843 53.577916 
L 78.958614 53.343653 
L 72.912516 53.324116 
L 69.327249 53.499119 
L 64.611333 53.989142 
L 61.866231 54.451637 
L 58.382825 55.308183 
L 56.303956 56.020728 
L 53.977995 57.073125 
L 52.529532 57.911032 
L 50.984542 59.014895 
L 49.469104 60.400068 
L 48.216281 61.94962 
L 47.545611 63.148675 
L 47.072887 64.511908 
L 46.462453 66.261945 
L 45.962528 67.722623 
L 45.830731 68.44205 
L 45.816023 69.386376 
L 46.413251 71.218923 
L 47.374274 72.440216 
L 48.639712 73.486662 
L 50.402788 74.539606 
L 52.682275 75.565639 
L 55.078487 76.413772 
L 58.526884 77.364227 
L 62.39742 78.134855 
L 65.770734 78.572254 
L 68.475641 78.76689 
L 71.394094 78.823388 
L 75.263437 78.666342 
L 78.982101 78.293887 
L 83.633269 77.575056 
L 88.785845 76.519279 
L 95.755545 74.765926 
L 102.966578 72.674258 
L 121.734647 67.061182 
L 127.103242 65.782871 
L 131.6298 64.939979 
L 134.763433 64.566099 
L 134.763433 64.566099 
" style="fill:none;stroke:#000000;stroke-linecap:square;stroke-opacity:0.7;stroke-width:1.2;"/>
   </g>
   <g id="line2d_6">
    <path clip-path="url(#p813833e55d)" d="M 269.925531 227.515916 
L 257.725795 225.427763 
L 243.323308 223.151068 
L 234.516748 221.945004 
L 226.683709 221.106126 
L 220.86969 220.69122 
L 215.190342 220.489262 
L 209.829386 220.498309 
L 204.433357 220.7293 
L 200.350243 221.091461 
L 196.019675 221.7239 
L 193.206115 222.323645 
L 189.819788 223.309679 
L 188.309153 223.864514 
L 185.409881 225.195977 
L 183.787298 226.183553 
L 182.664888 227.144278 
L 182.254995 227.866468 
L 182.309323 228.313878 
L 182.607184 228.679012 
L 183.053354 228.980931 
L 184.583808 229.626918 
L 186.990768 230.308923 
L 190.187081 230.896529 
L 193.159652 231.210753 
L 197.039041 231.418777 
L 204.046072 231.535265 
L 217.752948 231.484459 
L 228.769178 231.253575 
L 237.679952 230.848356 
L 246.89119 230.202694 
L 257.576631 229.203849 
L 268.031418 227.98007 
L 269.892309 227.72048 
L 269.892309 227.72048 
" style="fill:none;stroke:#000000;stroke-linecap:square;stroke-opacity:0.7;stroke-width:1.2;"/>
   </g>
   <g id="line2d_7">
    <path clip-path="url(#p813833e55d)" d="M 269.950548 186.923158 
L 251.455925 182.753105 
L 234.627638 179.056795 
L 226.334965 177.47264 
L 219.870736 176.48784 
L 214.326135 175.882629 
L 209.201331 175.575434 
L 205.678711 175.554145 
L 202.583912 175.718199 
L 199.306295 176.163907 
L 197.482271 176.577671 
L 194.787998 177.464827 
L 192.807687 178.353611 
L 189.948531 180.011934 
L 188.284187 181.190486 
L 186.041672 183.070143 
L 184.273872 184.915826 
L 183.448668 186.047096 
L 183.029044 186.949259 
L 182.968645 187.377683 
L 183.106652 187.869783 
L 183.633583 188.350226 
L 184.485105 188.676098 
L 185.868838 188.903469 
L 188.555044 188.997605 
L 193.869599 188.809176 
L 206.426372 188.255494 
L 214.296452 188.182421 
L 244.916283 188.26298 
L 256.049732 187.907421 
L 266.914001 187.329706 
L 269.966273 187.111084 
L 269.966273 187.111084 
" style="fill:none;stroke:#000000;stroke-linecap:square;stroke-opacity:0.7;stroke-width:1.2;"/>
   </g>
   <g id="line2d_8">
    <path clip-path="url(#p813833e55d)" d="M 269.954324 146.031283 
L 262.605041 144.141874 
L 248.465392 140.592936 
L 241.214671 138.990256 
L 235.431076 137.945602 
L 230.308941 137.274828 
L 226.357727 136.945399 
L 221.933144 136.767734 
L 216.208771 136.806979 
L 211.265244 137.057838 
L 206.181492 137.521676 
L 201.259918 138.20796 
L 197.160191 139.031354 
L 193.654849 139.997387 
L 191.205693 140.855797 
L 188.074097 142.210303 
L 185.212747 143.757252 
L 183.546274 144.929197 
L 182.99778 145.566776 
L 182.930384 145.992074 
L 183.180061 146.402519 
L 183.682444 146.761111 
L 184.842162 147.233309 
L 186.495895 147.643146 
L 189.140902 148.061602 
L 193.339839 148.478961 
L 199.541812 148.839753 
L 206.414683 149.015814 
L 214.586138 148.975671 
L 225.681952 148.640124 
L 244.09896 147.838411 
L 261.226397 146.873957 
L 269.931343 146.286545 
L 269.931343 146.286545 
" style="fill:none;stroke:#000000;stroke-linecap:square;stroke-opacity:0.7;stroke-width:1.2;"/>
   </g>
   <g id="line2d_9">
    <path clip-path="url(#p813833e55d)" d="M 269.858585 105.130655 
L 264.705171 103.588223 
L 247.787767 98.477523 
L 242.119967 96.955295 
L 237.241965 95.84243 
L 233.512787 95.16336 
L 228.950252 94.563203 
L 223.894985 94.186938 
L 218.382085 94.079281 
L 213.591486 94.206284 
L 208.041889 94.590366 
L 203.158719 95.152926 
L 198.761012 95.889865 
L 196.164053 96.470577 
L 192.914232 97.432708 
L 190.636819 98.349271 
L 188.456199 99.533907 
L 186.961787 100.623447 
L 185.575187 101.984919 
L 184.955029 102.792056 
L 184.393045 103.753567 
L 183.937772 105.087806 
L 183.856716 106.271968 
L 183.962071 107.274588 
L 184.070021 107.677845 
L 184.37852 108.300628 
L 184.703585 108.701241 
L 185.735641 109.489212 
L 187.187942 110.186394 
L 189.758117 111.034884 
L 192.91848 111.793597 
L 196.457407 112.431083 
L 200.384882 112.929737 
L 203.826333 113.193968 
L 207.45354 113.298024 
L 211.843128 113.192311 
L 216.266407 112.854943 
L 221.294978 112.24308 
L 227.311389 111.284855 
L 236.843193 109.519141 
L 248.435651 107.429466 
L 256.189783 106.281349 
L 262.417184 105.569884 
L 267.84889 105.160694 
L 269.946005 105.093045 
L 269.946005 105.093045 
" style="fill:none;stroke:#000000;stroke-linecap:square;stroke-opacity:0.7;stroke-width:1.2;"/>
   </g>
   <g id="line2d_10">
    <path clip-path="url(#p813833e55d)" d="M 269.689701 65.043314 
L 261.892113 63.630867 
L 245.918852 60.808589 
L 237.609591 59.563602 
L 231.511721 58.856354 
L 225.99827 58.423335 
L 220.062966 58.199947 
L 214.480542 58.213856 
L 209.088504 58.41972 
L 203.85508 58.796696 
L 197.91367 59.466583 
L 193.955394 60.117982 
L 190.764995 60.859987 
L 188.84662 61.489568 
L 187.171785 62.292717 
L 186.437003 62.821158 
L 186.081994 63.172282 
L 185.620528 63.960169 
L 185.565034 64.67964 
L 185.84147 65.383981 
L 186.486988 66.088051 
L 187.304486 66.626159 
L 188.089229 66.994357 
L 190.271612 67.688574 
L 193.712028 68.458339 
L 196.843357 68.969232 
L 198.749866 69.091866 
L 214.045865 69.507973 
L 221.456168 69.740096 
L 227.356752 69.709512 
L 232.674046 69.497633 
L 240.479541 68.91083 
L 248.646463 68.044415 
L 260.731744 66.510073 
L 269.749905 65.288299 
L 269.749905 65.288299 
" style="fill:none;stroke:#000000;stroke-linecap:square;stroke-opacity:0.7;stroke-width:1.2;"/>
   </g>
   <g id="line2d_11">
    <path clip-path="url(#p813833e55d)" d="M 404.960272 227.426971 
L 393.980201 226.155898 
L 378.083507 224.503193 
L 367.700558 223.618007 
L 359.466804 223.132674 
L 353.065733 222.955849 
L 346.587626 222.987833 
L 339.349468 223.274918 
L 333.179014 223.741131 
L 327.877899 224.373368 
L 323.93978 225.062441 
L 320.745112 225.832448 
L 318.322598 226.62716 
L 317.091884 227.176405 
L 316.228331 227.769879 
L 316.063138 228.029696 
L 316.182841 228.394076 
L 316.352356 228.519119 
L 317.536271 228.95765 
L 320.224587 229.559923 
L 323.879916 230.103205 
L 327.117101 230.352108 
L 332.064501 230.464373 
L 341.175232 230.361536 
L 366.820862 229.773607 
L 380.703025 229.230446 
L 394.116947 228.483696 
L 404.968476 227.676203 
L 404.968476 227.676203 
" style="fill:none;stroke:#000000;stroke-linecap:square;stroke-opacity:0.7;stroke-width:1.2;"/>
   </g>
   <g id="line2d_12">
    <path clip-path="url(#p813833e55d)" d="M 405.013909 186.835317 
L 373.405568 181.262012 
L 366.687407 180.369649 
L 360.309224 179.756238 
L 355.64747 179.480502 
L 349.485439 179.35171 
L 344.333264 179.457393 
L 339.173993 179.78523 
L 334.810203 180.287252 
L 331.097106 180.941332 
L 327.837973 181.749669 
L 325.337923 182.55426 
L 322.247523 183.807636 
L 320.036294 184.914325 
L 318.067437 186.146307 
L 317.397165 186.797877 
L 317.374341 187.088347 
L 317.705918 187.401861 
L 318.875841 188.056354 
L 320.574 188.758062 
L 321.963715 189.200844 
L 325.636251 190.069186 
L 329.747575 190.766062 
L 335.191142 191.438978 
L 340.707356 191.900672 
L 345.845669 192.140007 
L 352.345658 192.177925 
L 358.412105 191.975745 
L 365.664366 191.512454 
L 375.612896 190.622838 
L 388.436915 189.202626 
L 402.841833 187.361841 
L 405.017202 187.059679 
L 405.017202 187.059679 
" style="fill:none;stroke:#000000;stroke-linecap:square;stroke-opacity:0.7;stroke-width:1.2;"/>
   </g>
   <g id="line2d_13">
    <path clip-path="url(#p813833e55d)" d="M 404.980275 146.294797 
L 375.44155 139.638751 
L 369.807967 138.675752 
L 364.657305 137.994263 
L 359.101259 137.50137 
L 355.595818 137.31924 
L 349.53452 137.228336 
L 344.372191 137.376223 
L 339.624417 137.725786 
L 335.276328 138.294475 
L 332.741419 138.785893 
L 330.049034 139.490349 
L 327.646672 140.323996 
L 325.873766 141.089186 
L 324.192077 141.951139 
L 322.343633 143.080526 
L 320.340099 144.622287 
L 319.425235 145.60354 
L 319.178121 146.179961 
L 319.32357 146.513136 
L 320.105675 147.101396 
L 321.179467 147.63775 
L 322.369957 148.087179 
L 325.805069 149.01293 
L 329.716595 149.758582 
L 335.317943 150.536484 
L 339.997515 150.998901 
L 345.434059 151.343901 
L 351.977175 151.49821 
L 357.851296 151.425708 
L 364.08516 151.174563 
L 372.784461 150.579968 
L 381.687414 149.71965 
L 391.332586 148.551284 
L 401.891805 147.040287 
L 404.951752 146.544916 
L 404.951752 146.544916 
" style="fill:none;stroke:#000000;stroke-linecap:square;stroke-opacity:0.7;stroke-width:1.2;"/>
   </g>
   <g id="line2d_14">
    <path clip-path="url(#p813833e55d)" d="M 404.929609 105.208423 
L 381.673642 102.6251 
L 373.831575 102.015176 
L 367.817035 101.749122 
L 362.919906 101.72307 
L 357.701848 101.927358 
L 352.338325 102.388382 
L 345.80308 103.206434 
L 332.171271 104.997148 
L 326.819852 105.429693 
L 319.488735 105.935899 
L 318.754712 106.15777 
L 318.713648 106.272092 
L 318.999092 106.416812 
L 320.105974 106.606388 
L 331.008776 107.854609 
L 336.841904 108.154865 
L 346.40642 108.418751 
L 354.362797 108.460219 
L 362.695303 108.285415 
L 371.623808 107.898533 
L 387.050989 106.966464 
L 405.018246 105.723425 
L 405.018246 105.723425 
" style="fill:none;stroke:#000000;stroke-linecap:square;stroke-opacity:0.7;stroke-width:1.2;"/>
   </g>
   <g id="line2d_15">
    <path clip-path="url(#p813833e55d)" d="M 405.12855 65.025549 
L 377.172115 57.524777 
L 371.712288 56.34498 
L 366.966904 55.51515 
L 362.536614 54.93774 
L 357.052073 54.491755 
L 351.631638 54.324251 
L 346.844107 54.394071 
L 343.015846 54.609928 
L 339.417797 54.972841 
L 335.444048 55.621924 
L 332.33395 56.392993 
L 329.812723 57.255618 
L 327.156138 58.461916 
L 325.108296 59.643674 
L 323.083381 61.076233 
L 321.316908 62.62969 
L 320.052114 64.166684 
L 319.78319 64.821769 
L 319.85503 65.303467 
L 320.150081 65.591302 
L 321.032062 65.918003 
L 322.206924 66.098392 
L 324.547366 66.184041 
L 329.196982 66.022992 
L 340.20602 65.604856 
L 348.429319 65.569553 
L 361.370528 65.83796 
L 373.975197 66.032813 
L 385.17485 65.986139 
L 396.881704 65.705916 
L 405.138932 65.356505 
L 405.138932 65.356505 
" style="fill:none;stroke:#000000;stroke-linecap:square;stroke-opacity:0.7;stroke-width:1.2;"/>
   </g>
   <g id="line2d_16">
    <path clip-path="url(#p813833e55d)" d="M 540.214113 227.684275 
L 529.646193 226.292476 
L 505.562896 223.304086 
L 492.212088 221.840915 
L 484.069962 221.15174 
L 478.242675 220.857429 
L 473.458257 220.839339 
L 469.837552 221.037975 
L 465.827603 221.549718 
L 462.984927 222.123691 
L 460.792472 222.688689 
L 457.460626 223.754668 
L 454.406804 224.989314 
L 452.505203 225.965415 
L 451.23279 226.885147 
L 450.895319 227.330588 
L 450.848902 227.806164 
L 450.946329 228.002655 
L 451.515501 228.504634 
L 452.511107 229.007322 
L 453.778913 229.453089 
L 456.708968 230.086761 
L 459.334622 230.385823 
L 463.791891 230.603732 
L 470.15736 230.640512 
L 488.4624 230.394902 
L 507.320096 230.040795 
L 517.884342 229.599549 
L 528.471389 228.925694 
L 537.250679 228.16671 
L 540.223638 227.84004 
L 540.223638 227.84004 
" style="fill:none;stroke:#000000;stroke-linecap:square;stroke-opacity:0.7;stroke-width:1.2;"/>
   </g>
   <g id="line2d_17">
    <path clip-path="url(#p813833e55d)" d="M 540.347907 185.988559 
L 535.488323 184.665179 
L 521.295211 180.809133 
L 514.433182 179.173298 
L 509.307106 178.170158 
L 504.834769 177.516205 
L 501.137301 177.156508 
L 496.68014 176.94104 
L 491.386987 176.961607 
L 485.696822 177.259893 
L 479.808804 177.818194 
L 473.722557 178.644578 
L 469.322377 179.422509 
L 464.534048 180.517097 
L 461.041435 181.588824 
L 458.184238 182.788985 
L 456.141831 183.99269 
L 454.839474 185.070191 
L 454.1153 185.917651 
L 453.825464 186.543406 
L 453.895908 186.64624 
L 454.337622 186.664877 
L 464.896739 185.824134 
L 471.122859 184.894221 
L 488.782205 182.094178 
L 494.156191 181.550679 
L 498.840095 181.317397 
L 503.666686 181.322766 
L 507.820105 181.505435 
L 514.506392 182.070691 
L 521.485626 182.915963 
L 529.629309 184.124705 
L 538.910476 185.734233 
L 540.245478 185.988786 
L 540.245478 185.988786 
" style="fill:none;stroke:#000000;stroke-linecap:square;stroke-opacity:0.7;stroke-width:1.2;"/>
   </g>
   <g id="line2d_18">
    <path clip-path="url(#p813833e55d)" d="M 540.256801 146.283749 
L 516.211436 140.403803 
L 508.049187 138.630077 
L 502.05112 137.520315 
L 496.653653 136.732414 
L 491.61287 136.21214 
L 486.580555 135.913477 
L 481.304538 135.853495 
L 477.153054 136.025862 
L 474.234462 136.303375 
L 470.482725 136.927338 
L 467.106776 137.827292 
L 464.755043 138.672574 
L 462.620903 139.5985 
L 459.163856 141.418225 
L 456.210767 143.31722 
L 454.308865 144.805005 
L 453.704203 145.463321 
L 453.627513 145.886987 
L 453.993264 146.181393 
L 454.59769 146.358106 
L 456.146182 146.529839 
L 459.039969 146.542699 
L 465.206553 146.211692 
L 476.5231 145.545355 
L 482.721504 145.440264 
L 488.267828 145.569304 
L 496.367505 145.989536 
L 509.468367 146.662109 
L 519.041702 146.920848 
L 528.550069 146.943887 
L 536.785992 146.759529 
L 540.245227 146.596321 
L 540.245227 146.596321 
" style="fill:none;stroke:#000000;stroke-linecap:square;stroke-opacity:0.7;stroke-width:1.2;"/>
   </g>
   <g id="line2d_19">
    <path clip-path="url(#p813833e55d)" d="M 540.300591 105.16309 
L 514.11177 100.354173 
L 507.526751 99.475206 
L 502.241493 98.997571 
L 497.462285 98.801713 
L 493.718688 98.824034 
L 488.230083 99.120481 
L 482.337225 99.704268 
L 455.527958 102.876479 
L 452.499627 103.528416 
L 450.262945 104.31631 
L 449.394533 104.869352 
L 449.142169 105.215817 
L 449.118592 105.481018 
L 449.260782 105.749763 
L 450.116469 106.297833 
L 450.89137 106.585073 
L 452.955873 107.093482 
L 455.434102 107.466309 
L 459.103746 107.758969 
L 464.163775 107.883837 
L 470.962258 107.805926 
L 479.667616 107.512219 
L 509.092717 106.359773 
L 537.873983 105.743462 
L 540.282869 105.69657 
L 540.282869 105.69657 
" style="fill:none;stroke:#000000;stroke-linecap:square;stroke-opacity:0.7;stroke-width:1.2;"/>
   </g>
   <g id="line2d_20">
    <path clip-path="url(#p813833e55d)" d="M 540.315504 65.072218 
L 510.618263 58.905996 
L 501.839737 57.354762 
L 495.636323 56.472183 
L 490.61786 55.942102 
L 485.762295 55.614898 
L 481.557358 55.498062 
L 476.453227 55.603764 
L 472.334562 55.9471 
L 469.028168 56.450921 
L 466.774989 56.941416 
L 463.345098 57.953822 
L 460.182078 59.188487 
L 456.935802 60.762431 
L 455.054872 61.831857 
L 452.800668 63.339942 
L 451.86913 64.133019 
L 451.403458 64.811661 
L 451.443413 65.133973 
L 451.525358 65.248723 
L 452.147603 65.636462 
L 452.933002 65.885544 
L 454.818386 66.175086 
L 457.109396 66.244458 
L 459.972099 66.095456 
L 464.206761 65.626022 
L 479.201461 63.728552 
L 483.509804 63.48772 
L 487.345599 63.451359 
L 493.499195 63.662552 
L 524.67202 65.296642 
L 535.551911 65.489581 
L 540.326524 65.481682 
L 540.326524 65.481682 
" style="fill:none;stroke:#000000;stroke-linecap:square;stroke-opacity:0.7;stroke-width:1.2;"/>
   </g>
   <g id="line2d_21">
    <path clip-path="url(#p813833e55d)" d="M 675.413582 226.875856 
L 663.517015 223.463381 
L 654.180779 220.931841 
L 647.902512 219.441454 
L 642.661395 218.432518 
L 638.62689 217.852318 
L 633.987924 217.418722 
L 630.265441 217.244364 
L 624.952163 217.229634 
L 619.309068 217.469419 
L 613.830832 217.925961 
L 608.518517 218.59012 
L 604.615334 219.255649 
L 600.912637 220.090223 
L 598.29539 220.853635 
L 595.226177 222.008279 
L 592.310749 223.456238 
L 590.963479 224.282927 
L 589.223583 225.599928 
L 588.152279 226.870115 
L 588.041041 227.287148 
L 588.237906 227.779721 
L 588.670631 228.089144 
L 589.408697 228.382146 
L 590.755547 228.718556 
L 593.370377 229.108788 
L 597.105701 229.372014 
L 602.707059 229.496902 
L 610.331598 229.437487 
L 618.472763 229.172728 
L 639.115311 228.149771 
L 656.364559 227.478783 
L 671.457632 227.103028 
L 675.431014 227.06688 
L 675.431014 227.06688 
" style="fill:none;stroke:#000000;stroke-linecap:square;stroke-opacity:0.7;stroke-width:1.2;"/>
   </g>
   <g id="line2d_22">
    <path clip-path="url(#p813833e55d)" d="M 675.427611 186.597232 
L 653.766643 181.809299 
L 647.033627 180.523796 
L 640.111095 179.43746 
L 634.931932 178.85732 
L 630.729957 178.567914 
L 626.49709 178.448772 
L 621.348243 178.523271 
L 615.530847 178.858722 
L 609.736071 179.419081 
L 604.326165 180.135712 
L 598.406399 181.166591 
L 594.222251 182.096206 
L 590.649569 183.080061 
L 588.320179 183.884748 
L 586.2123 184.926691 
L 585.792737 185.272519 
L 585.430156 185.918005 
L 585.522455 186.468047 
L 586.005541 187.086463 
L 586.823879 187.669642 
L 588.320621 188.339158 
L 589.959806 188.811468 
L 592.667423 189.287566 
L 596.434364 189.615674 
L 601.268649 189.750981 
L 607.53428 189.694791 
L 617.154546 189.385233 
L 668.448512 187.264837 
L 675.373291 186.849167 
L 675.373291 186.849167 
" style="fill:none;stroke:#000000;stroke-linecap:square;stroke-opacity:0.7;stroke-width:1.2;"/>
   </g>
   <g id="line2d_23">
    <path clip-path="url(#p813833e55d)" d="M 675.48431 146.31971 
L 665.477751 144.502931 
L 651.128372 142.093475 
L 640.919214 140.599962 
L 634.05466 139.794446 
L 627.807513 139.275942 
L 621.597432 139.011678 
L 616.430846 138.993789 
L 610.700428 139.186897 
L 605.892999 139.534074 
L 601.026573 140.096214 
L 596.355144 140.880858 
L 591.862006 141.9159 
L 588.748262 142.858611 
L 586.476045 143.75028 
L 584.892336 144.627532 
L 584.358638 145.125397 
L 584.196972 145.629413 
L 584.586633 146.177921 
L 585.167606 146.50904 
L 586.685341 147.000318 
L 587.81393 147.22478 
L 591.495978 147.557501 
L 595.137828 147.530914 
L 600.018221 147.192093 
L 618.453355 145.517385 
L 622.316592 145.469269 
L 628.398511 145.653876 
L 652.754697 146.763522 
L 663.621151 146.89168 
L 672.283628 146.77886 
L 675.490909 146.654891 
L 675.490909 146.654891 
" style="fill:none;stroke:#000000;stroke-linecap:square;stroke-opacity:0.7;stroke-width:1.2;"/>
   </g>
   <g id="line2d_24">
    <path clip-path="url(#p813833e55d)" d="M 675.306732 105.911369 
L 662.774874 104.014875 
L 645.776455 101.63609 
L 636.101124 100.47745 
L 627.880094 99.71627 
L 623.10792 99.405778 
L 615.731016 99.162428 
L 610.435912 99.212921 
L 606.270617 99.441718 
L 602.654519 99.8383 
L 598.870804 100.540258 
L 596.018907 101.33752 
L 594.534803 101.870346 
L 592.10642 102.97386 
L 590.382439 104.024203 
L 589.201845 105.044762 
L 588.786373 105.641631 
L 588.684494 106.219157 
L 588.999434 106.698941 
L 589.60175 107.031804 
L 590.704432 107.379188 
L 593.423245 107.956846 
L 595.828544 108.310123 
L 599.021666 108.495697 
L 603.230937 108.43269 
L 617.22906 108.023261 
L 626.563333 108.075046 
L 639.522871 108.114055 
L 649.50264 107.878616 
L 659.116073 107.416813 
L 668.216936 106.782705 
L 675.32198 106.113437 
L 675.32198 106.113437 
" style="fill:none;stroke:#000000;stroke-linecap:square;stroke-opacity:0.7;stroke-width:1.2;"/>
   </g>
   <g id="line2d_25">
    <path clip-path="url(#p813833e55d)" d="M 675.396852 64.942643 
L 645.202045 59.513083 
L 638.382608 58.600624 
L 633.14607 58.091921 
L 627.125077 57.763243 
L 621.265463 57.718494 
L 615.820336 57.910328 
L 610.634199 58.30025 
L 607.515558 58.642791 
L 602.150111 59.485017 
L 597.952731 60.484325 
L 595.666085 61.226684 
L 593.282882 62.224747 
L 591.50881 63.206867 
L 590.25198 64.188085 
L 589.819083 64.768654 
L 589.814305 65.210847 
L 590.043452 65.396923 
L 590.64422 65.577551 
L 592.224757 65.750404 
L 595.50754 65.812375 
L 604.566967 65.589992 
L 613.712271 65.474022 
L 621.913415 65.631578 
L 641.610031 66.155344 
L 653.640254 66.141635 
L 665.718633 65.861961 
L 675.417539 65.431058 
L 675.417539 65.431058 
" style="fill:none;stroke:#000000;stroke-linecap:square;stroke-opacity:0.7;stroke-width:1.2;"/>
   </g>
  </g>
 </g>
 <defs>
  <clipPath id="p813833e55d">
   <rect height="262.08" width="694.08" x="12.96" y="12.96"/>
  </clipPath>
 </defs>
</svg>
