<?xml version="1.0" encoding="utf-8" standalone="no"?>
<!DOCTYPE svg PUBLIC "-//W3C//DTD SVG 1.1//EN"
  "http://www.w3.org/Graphics/SVG/1.1/DTD/svg11.dtd">
<!-- Created with matplotlib (https://matplotlib.org/) -->
<svg height="288pt" version="1.1" viewBox="0 0 720 288" width="720pt" xmlns="http://www.w3.org/2000/svg" xmlns:xlink="http://www.w3.org/1999/xlink">
 <defs>
  <style type="text/css">
*{stroke-linecap:butt;stroke-linejoin:round;}
  </style>
 </defs>
 <g id="figure_1">
  <g id="patch_1">
   <path d="M 0 288 
L 720 288 
L 720 0 
L 0 0 
z
" style="fill:#ffffff;"/>
  </g>
  <g id="axes_1">
   <g id="line2d_1">
    <path clip-path="url(#p8ced74c3f5)" d="M 78.188603 234.564153 
L 74.53324 233.666447 
L 67.579972 231.995214 
L 63.572241 231.248111 
L 60.812256 230.929494 
L 58.199425 230.848302 
L 55.869665 231.009666 
L 53.803768 231.369496 
L 51.302338 232.074965 
L 48.811537 232.834331 
L 47.658251 232.966962 
L 46.379853 233.018343 
L 45.909947 233.407424 
L 45.576824 234.030388 
L 45.578552 234.587817 
L 45.861834 235.253746 
L 46.158827 235.638938 
L 47.514725 236.595584 
L 48.232171 236.850563 
L 49.656548 237.045434 
L 51.40268 236.883255 
L 53.738561 236.324265 
L 57.147559 235.554463 
L 60.651899 235.055325 
L 64.765516 234.74063 
L 69.803929 234.604878 
L 78.421968 234.540262 
L 78.421968 234.540262 
" style="fill:none;stroke:#000000;stroke-linecap:square;stroke-opacity:0.7;stroke-width:1.2;"/>
   </g>
   <g id="line2d_2">
    <path clip-path="url(#p8ced74c3f5)" d="M 77.852496 190.517276 
L 73.835146 189.638994 
L 67.845234 188.523867 
L 63.22067 187.873351 
L 59.853904 187.610922 
L 57.079069 187.596261 
L 54.290606 187.808389 
L 51.33205 188.278483 
L 47.607676 189.108359 
L 46.06841 189.604919 
L 45.493877 189.924384 
L 45.024721 190.47621 
L 44.985349 190.92814 
L 45.176911 191.223491 
L 45.308925 191.300538 
L 46.062885 191.246969 
L 46.756383 190.79943 
L 47.537165 190.186495 
L 48.181644 190.1566 
L 52.417971 190.698574 
L 55.447287 190.747635 
L 72.803449 190.637271 
L 78.089318 190.494721 
L 78.089318 190.494721 
" style="fill:none;stroke:#000000;stroke-linecap:square;stroke-opacity:0.7;stroke-width:1.2;"/>
   </g>
   <g id="line2d_3">
    <path clip-path="url(#p8ced74c3f5)" d="M 78.040155 145.317672 
L 73.403932 144.028577 
L 67.000441 142.344605 
L 63.156779 141.55535 
L 60.129622 141.16379 
L 57.619902 141.064262 
L 55.679441 141.164516 
L 53.380281 141.515563 
L 51.4422 142.018359 
L 49.464363 142.715025 
L 47.177207 143.749872 
L 46.367957 144.239887 
L 45.825189 144.7295 
L 45.581064 145.320668 
L 45.715259 145.790068 
L 46.007339 146.037425 
L 46.362988 146.035669 
L 47.569758 145.479211 
L 60.353826 144.497831 
L 64.359437 144.628436 
L 78.124629 145.416053 
L 78.124629 145.416053 
" style="fill:none;stroke:#000000;stroke-linecap:square;stroke-opacity:0.7;stroke-width:1.2;"/>
   </g>
   <g id="line2d_4">
    <path clip-path="url(#p8ced74c3f5)" d="M 78.097332 100.520471 
L 74.867506 99.968364 
L 68.547156 99.087381 
L 63.123623 98.540652 
L 59.38938 98.381438 
L 56.509929 98.464444 
L 53.736496 98.774066 
L 48.637421 99.514586 
L 45.553739 99.455825 
L 44.509091 99.68735 
L 44.612278 99.873725 
L 45.386881 100.632425 
L 46.03745 101.137768 
L 47.310773 101.8816 
L 48.242247 102.227737 
L 49.518721 102.442669 
L 51.45619 102.296385 
L 58.633832 100.970533 
L 61.933042 100.758131 
L 66.858176 100.693876 
L 78.239153 100.627284 
L 78.239153 100.627284 
" style="fill:none;stroke:#000000;stroke-linecap:square;stroke-opacity:0.7;stroke-width:1.2;"/>
   </g>
   <g id="line2d_5">
    <path clip-path="url(#p8ced74c3f5)" d="M 78.23763 55.685972 
L 69.664532 53.463915 
L 65.047991 52.494044 
L 61.784805 52.003304 
L 58.755832 51.770185 
L 56.406832 51.788685 
L 53.921173 52.045959 
L 51.844567 52.470063 
L 49.383727 53.197979 
L 47.062429 54.102622 
L 46.007156 54.714762 
L 45.561411 55.130054 
L 45.404232 55.350845 
L 45.208417 56.160886 
L 45.368392 56.759063 
L 45.798783 57.387629 
L 46.16237 57.67664 
L 46.644804 57.770428 
L 46.943515 57.538863 
L 47.342062 57.144024 
L 47.848222 57.063003 
L 48.924948 57.28473 
L 53.699769 58.680497 
L 55.323594 58.82013 
L 57.170451 58.69301 
L 59.633519 58.262607 
L 65.45722 57.195211 
L 70.354278 56.556257 
L 77.985861 55.821402 
L 78.253438 55.801333 
L 78.253438 55.801333 
" style="fill:none;stroke:#000000;stroke-linecap:square;stroke-opacity:0.7;stroke-width:1.2;"/>
   </g>
   <g id="line2d_6">
    <path clip-path="url(#p8ced74c3f5)" d="M 227.362448 234.877175 
L 220.665742 232.511688 
L 215.690822 230.930808 
L 212.422525 230.094832 
L 210.175668 229.682265 
L 207.714722 229.46435 
L 206.338925 229.489557 
L 204.525093 229.732137 
L 203.039406 230.133914 
L 201.140708 230.904115 
L 198.647353 232.21032 
L 195.863633 233.914839 
L 194.698047 234.8646 
L 194.496811 235.097186 
L 194.205166 235.737494 
L 194.34511 236.220557 
L 194.406189 236.29272 
L 195.023223 236.620169 
L 195.630639 236.601014 
L 196.130642 236.326977 
L 196.715628 236.03015 
L 197.747505 235.778086 
L 201.527843 235.250117 
L 205.614194 234.878275 
L 209.490692 234.776902 
L 216.935522 234.881279 
L 225.90489 234.936039 
L 227.534017 234.887061 
L 227.534017 234.887061 
" style="fill:none;stroke:#000000;stroke-linecap:square;stroke-opacity:0.7;stroke-width:1.2;"/>
   </g>
   <g id="line2d_7">
    <path clip-path="url(#p8ced74c3f5)" d="M 227.461367 189.654047 
L 212.325991 186.85139 
L 208.918348 186.498797 
L 206.440954 186.415619 
L 204.028284 186.542765 
L 201.846051 186.892553 
L 199.546789 187.520128 
L 196.536702 188.592599 
L 195.570554 189.092283 
L 194.724305 189.640415 
L 194.32529 189.635698 
L 194.480461 189.762834 
L 195.329741 190.134409 
L 195.695092 190.253131 
L 197.928504 190.640578 
L 199.774557 190.630442 
L 202.236435 190.28556 
L 208.640537 189.03381 
L 211.110841 188.861572 
L 214.196697 188.877705 
L 218.387537 189.14247 
L 227.474666 189.850291 
L 227.474666 189.850291 
" style="fill:none;stroke:#000000;stroke-linecap:square;stroke-opacity:0.7;stroke-width:1.2;"/>
   </g>
   <g id="line2d_8">
    <path clip-path="url(#p8ced74c3f5)" d="M 227.407311 145.424336 
L 221.027373 143.509955 
L 215.487992 142.020742 
L 211.83212 141.275415 
L 209.033025 140.924252 
L 206.602746 140.840801 
L 204.552317 140.983437 
L 202.426532 141.396472 
L 200.754337 141.94308 
L 195.880159 143.991023 
L 194.673363 145.768145 
L 194.691785 145.937767 
L 194.935032 146.410556 
L 195.414002 146.859035 
L 196.537574 147.516985 
L 197.469478 147.913032 
L 199.949971 148.643195 
L 201.657385 148.910286 
L 203.323277 148.945429 
L 204.8855 148.768168 
L 207.979159 148.106981 
L 213.187999 147.009777 
L 217.480157 146.346414 
L 223.034312 145.716877 
L 227.526209 145.259168 
L 227.526209 145.259168 
" style="fill:none;stroke:#000000;stroke-linecap:square;stroke-opacity:0.7;stroke-width:1.2;"/>
   </g>
   <g id="line2d_9">
    <path clip-path="url(#p8ced74c3f5)" d="M 227.361412 101.549174 
L 224.514278 100.507799 
L 217.114569 97.816279 
L 213.179113 96.640516 
L 210.246715 95.997086 
L 207.541301 95.652339 
L 205.496555 95.592183 
L 203.539684 95.730838 
L 201.605625 96.091123 
L 199.782266 96.663324 
L 197.935362 97.483738 
L 196.018068 98.623612 
L 195.458594 99.098556 
L 195.114357 99.681452 
L 195.133332 100.016926 
L 195.518735 101.075628 
L 195.093708 101.439626 
L 195.169021 101.480721 
L 196.046543 101.696826 
L 197.673141 101.88278 
L 201.393414 102.001951 
L 223.572982 101.782534 
L 227.437191 101.593735 
L 227.437191 101.593735 
" style="fill:none;stroke:#000000;stroke-linecap:square;stroke-opacity:0.7;stroke-width:1.2;"/>
   </g>
   <g id="line2d_10">
    <path clip-path="url(#p8ced74c3f5)" d="M 227.455409 54.894298 
L 223.671966 54.361873 
L 215.513776 53.433957 
L 210.437317 53.057194 
L 206.734411 52.99046 
L 203.617018 53.146532 
L 200.499886 53.52943 
L 197.469596 54.109746 
L 195.812009 54.624578 
L 195.25279 54.956308 
L 194.941676 55.309405 
L 194.823243 55.834421 
L 194.911001 56.113221 
L 195.2152 56.360749 
L 195.530781 56.353308 
L 196.100244 55.98603 
L 196.977265 55.184845 
L 197.500301 55.155809 
L 201.997534 55.852396 
L 204.436585 55.823987 
L 208.083874 55.470245 
L 213.522299 54.947899 
L 217.428044 54.805793 
L 222.954708 54.841081 
L 227.460666 54.926083 
L 227.460666 54.926083 
" style="fill:none;stroke:#000000;stroke-linecap:square;stroke-opacity:0.7;stroke-width:1.2;"/>
   </g>
   <g id="line2d_11">
    <path clip-path="url(#p8ced74c3f5)" d="M 376.557191 234.130258 
L 373.359559 233.647881 
L 367.444502 232.958217 
L 361.523405 232.478979 
L 357.179444 232.353839 
L 353.712899 232.471497 
L 350.012476 232.841394 
L 346.050783 233.457772 
L 344.544344 233.884304 
L 343.698067 234.452188 
L 343.461672 234.946697 
L 343.454655 235.283641 
L 343.647429 235.821725 
L 344.176631 236.380309 
L 344.6958 236.601214 
L 345.320704 236.560033 
L 345.6823 236.362976 
L 346.271843 235.651144 
L 346.996667 234.472528 
L 347.498977 234.231373 
L 348.122702 234.223413 
L 349.880576 234.60114 
L 352.35049 235.136141 
L 354.241734 235.296785 
L 356.018851 235.236871 
L 366.273289 234.484198 
L 375.549975 234.344078 
L 376.565914 234.323922 
L 376.565914 234.323922 
" style="fill:none;stroke:#000000;stroke-linecap:square;stroke-opacity:0.7;stroke-width:1.2;"/>
   </g>
   <g id="line2d_12">
    <path clip-path="url(#p8ced74c3f5)" d="M 376.819195 190.178179 
L 373.927806 189.135253 
L 367.178109 186.723417 
L 363.049732 185.48928 
L 360.064728 184.829494 
L 357.522013 184.500436 
L 355.56905 184.440126 
L 353.36996 184.620496 
L 351.796947 184.936431 
L 350.024318 185.496474 
L 348.105116 186.350849 
L 346.18515 187.479741 
L 344.874567 188.522285 
L 344.257999 189.282575 
L 344.021131 189.88596 
L 344.015911 190.414845 
L 344.346459 191.157508 
L 344.898806 191.675071 
L 345.406345 191.860672 
L 345.783924 191.776024 
L 346.107217 191.40937 
L 346.5285 190.756364 
L 347.030495 190.36362 
L 347.818452 190.033645 
L 349.306782 189.681251 
L 351.937334 189.325097 
L 354.753908 189.144175 
L 358.217513 189.159341 
L 363.185029 189.458362 
L 374.995536 190.279293 
L 376.780026 190.302009 
L 376.780026 190.302009 
" style="fill:none;stroke:#000000;stroke-linecap:square;stroke-opacity:0.7;stroke-width:1.2;"/>
   </g>
   <g id="line2d_13">
    <path clip-path="url(#p8ced74c3f5)" d="M 376.73907 146.098293 
L 363.573043 142.804529 
L 360.299315 142.270974 
L 357.17731 142.018747 
L 355.003794 142.060524 
L 353.002562 142.321158 
L 351.428621 142.721837 
L 347.967792 143.785658 
L 347.461859 143.677667 
L 345.449628 143.017691 
L 344.611009 143.137726 
L 343.848974 143.583097 
L 343.440041 144.224555 
L 343.405547 145.152904 
L 343.744972 145.950947 
L 344.377365 146.646268 
L 345.099239 147.059513 
L 346.084157 147.228724 
L 346.723476 147.141085 
L 347.822879 146.697985 
L 351.604621 144.583076 
L 353.168758 144.162862 
L 354.367959 144.004302 
L 356.666493 143.952701 
L 359.765986 144.179337 
L 364.880051 144.851449 
L 372.992747 145.908396 
L 376.350054 146.139908 
L 376.960827 146.129142 
L 376.960827 146.129142 
" style="fill:none;stroke:#000000;stroke-linecap:square;stroke-opacity:0.7;stroke-width:1.2;"/>
   </g>
   <g id="line2d_14">
    <path clip-path="url(#p8ced74c3f5)" d="M 376.532265 101.204213 
L 363.64747 97.191167 
L 360.719516 96.585892 
L 358.034068 96.247009 
L 356.069835 96.177383 
L 353.709784 96.357038 
L 352.200353 96.65972 
L 350.212874 97.316213 
L 347.178943 98.67241 
L 344.234104 99.992309 
L 343.165968 100.619187 
L 342.684496 100.807568 
L 342.81714 101.005516 
L 343.504731 101.335931 
L 344.700193 101.674926 
L 346.428336 101.955157 
L 349.268857 102.063987 
L 352.437928 101.813749 
L 356.406723 101.500519 
L 360.250845 101.472951 
L 375.78002 101.655118 
L 376.563223 101.591574 
L 376.563223 101.591574 
" style="fill:none;stroke:#000000;stroke-linecap:square;stroke-opacity:0.7;stroke-width:1.2;"/>
   </g>
   <g id="line2d_15">
    <path clip-path="url(#p8ced74c3f5)" d="M 376.647771 55.844522 
L 366.841753 53.574755 
L 362.7223 52.837861 
L 359.506498 52.466331 
L 356.42641 52.357457 
L 353.774473 52.510551 
L 351.273209 52.896236 
L 348.528936 53.58292 
L 345.05185 54.71793 
L 344.64934 54.974628 
L 344.448877 55.299267 
L 344.451695 55.69989 
L 344.675554 56.142051 
L 344.876086 56.169133 
L 345.246546 56.009463 
L 348.841829 57.095689 
L 350.826912 57.368635 
L 353.207417 57.423178 
L 355.851067 57.230844 
L 367.285814 56.109467 
L 375.034068 55.808155 
L 376.870777 55.737287 
L 376.870777 55.737287 
" style="fill:none;stroke:#000000;stroke-linecap:square;stroke-opacity:0.7;stroke-width:1.2;"/>
   </g>
   <g id="line2d_16">
    <path clip-path="url(#p8ced74c3f5)" d="M 525.715139 235.419049 
L 512.585037 231.588742 
L 509.723586 231.017449 
L 506.792217 230.657656 
L 504.338195 230.60763 
L 502.763367 230.740392 
L 500.732244 231.168929 
L 499.027276 231.819362 
L 497.046808 232.903262 
L 495.604672 233.637231 
L 493.015134 234.740518 
L 492.878228 234.974875 
L 493.136149 235.472196 
L 493.547165 235.760998 
L 494.014793 235.972977 
L 495.386844 236.273953 
L 496.997508 236.305138 
L 499.783651 235.993977 
L 504.573009 235.38363 
L 507.934617 235.218246 
L 512.393241 235.258233 
L 524.63744 235.530134 
L 526.036728 235.46076 
L 526.036728 235.46076 
" style="fill:none;stroke:#000000;stroke-linecap:square;stroke-opacity:0.7;stroke-width:1.2;"/>
   </g>
   <g id="line2d_17">
    <path clip-path="url(#p8ced74c3f5)" d="M 525.580283 190.262914 
L 523.418223 189.814728 
L 516.64366 188.659948 
L 510.444325 187.804869 
L 506.327919 187.432295 
L 502.730985 187.344674 
L 500.489674 187.465278 
L 498.183375 187.786135 
L 495.959041 188.340256 
L 494.783836 188.76681 
L 493.398424 189.506514 
L 492.764514 190.1024 
L 492.520125 190.590292 
L 492.482836 190.930568 
L 492.702827 191.577225 
L 493.262382 192.144055 
L 494.058432 192.516617 
L 494.981456 192.530389 
L 495.535991 192.216151 
L 495.960693 191.621038 
L 496.588335 190.740389 
L 497.07606 190.459931 
L 497.777001 190.278537 
L 498.993339 190.193199 
L 503.661827 190.360747 
L 512.99947 190.505578 
L 521.896414 190.489593 
L 525.832236 190.364498 
L 525.832236 190.364498 
" style="fill:none;stroke:#000000;stroke-linecap:square;stroke-opacity:0.7;stroke-width:1.2;"/>
   </g>
   <g id="line2d_18">
    <path clip-path="url(#p8ced74c3f5)" d="M 525.587358 145.465066 
L 523.15076 144.960275 
L 516.334259 143.771528 
L 510.801687 143.00432 
L 506.736328 142.664501 
L 503.842797 142.635799 
L 501.166193 142.855956 
L 498.413408 143.376173 
L 495.365996 144.158919 
L 494.144314 144.550172 
L 493.170843 145.095227 
L 492.843914 145.64826 
L 492.866912 146.062679 
L 493.135933 146.545038 
L 493.616114 146.891525 
L 494.025032 146.964942 
L 494.50705 146.811083 
L 496.569396 145.596057 
L 498.458728 144.955563 
L 500.291991 144.535248 
L 501.764616 144.33162 
L 504.242171 144.254097 
L 506.901177 144.423372 
L 514.58472 145.261719 
L 520.636351 145.762558 
L 524.796738 145.909572 
L 525.765685 145.885242 
L 525.765685 145.885242 
" style="fill:none;stroke:#000000;stroke-linecap:square;stroke-opacity:0.7;stroke-width:1.2;"/>
   </g>
   <g id="line2d_19">
    <path clip-path="url(#p8ced74c3f5)" d="M 525.929076 100.247214 
L 519.153654 98.886147 
L 513.285777 97.899165 
L 509.650575 97.479908 
L 506.725529 97.332709 
L 504.078885 97.411957 
L 501.741898 97.693726 
L 499.034389 98.255923 
L 496.210781 98.803625 
L 494.541298 99.112136 
L 493.727294 99.529806 
L 492.849993 100.026941 
L 493.23153 100.449931 
L 494.367184 101.139934 
L 495.865159 101.632143 
L 497.371904 101.807483 
L 498.932979 101.762158 
L 501.017043 101.488432 
L 507.622792 100.459323 
L 511.128657 100.198621 
L 515.261438 100.144252 
L 521.487813 100.329406 
L 526.168236 100.427486 
L 526.168236 100.427486 
" style="fill:none;stroke:#000000;stroke-linecap:square;stroke-opacity:0.7;stroke-width:1.2;"/>
   </g>
   <g id="line2d_20">
    <path clip-path="url(#p8ced74c3f5)" d="M 525.721136 55.890769 
L 519.268938 53.887386 
L 514.094209 52.419023 
L 510.197546 51.54197 
L 507.11676 51.091842 
L 504.71345 50.954566 
L 502.440536 51.047117 
L 500.891313 51.258421 
L 498.881997 51.740419 
L 497.144717 52.373406 
L 495.442208 53.233706 
L 494.102732 54.178107 
L 493.380716 54.929903 
L 493.000993 55.632803 
L 492.93016 56.02387 
L 493.156357 56.782113 
L 493.51821 57.133897 
L 493.88734 57.316256 
L 494.535447 57.360532 
L 494.971679 57.149082 
L 495.436447 56.396493 
L 495.629258 55.99125 
L 496.052225 55.585728 
L 496.864125 55.252692 
L 498.806947 54.859469 
L 501.544111 54.577052 
L 504.272375 54.536056 
L 507.979287 54.761679 
L 522.997337 55.980773 
L 525.83182 56.034692 
L 525.83182 56.034692 
" style="fill:none;stroke:#000000;stroke-linecap:square;stroke-opacity:0.7;stroke-width:1.2;"/>
   </g>
   <g id="line2d_21">
    <path clip-path="url(#p8ced74c3f5)" d="M 675.272804 234.511851 
L 671.4824 233.604291 
L 663.502469 231.73576 
L 659.927948 231.11938 
L 657.325034 230.867282 
L 655.089694 230.850499 
L 653.062954 231.043367 
L 651.100415 231.452888 
L 649.073012 232.115099 
L 644.857168 233.655335 
L 643.461824 233.763091 
L 642.494709 233.860876 
L 642.54822 234.161647 
L 642.937714 234.612299 
L 643.671949 235.136607 
L 644.192707 235.381308 
L 644.936489 235.591855 
L 646.038462 235.660177 
L 647.663345 235.383324 
L 650.116145 234.601488 
L 652.514343 233.9447 
L 654.526476 233.617117 
L 657.091409 233.446364 
L 660.361533 233.49668 
L 664.889346 233.831641 
L 675.108876 234.659944 
L 675.364167 234.663912 
L 675.364167 234.663912 
" style="fill:none;stroke:#000000;stroke-linecap:square;stroke-opacity:0.7;stroke-width:1.2;"/>
   </g>
   <g id="line2d_22">
    <path clip-path="url(#p8ced74c3f5)" d="M 675.30325 190.106821 
L 671.176777 188.872303 
L 664.397271 186.934716 
L 660.398985 186.01974 
L 657.562761 185.58053 
L 655.141793 185.420858 
L 652.945017 185.516861 
L 651.104219 185.828981 
L 649.556885 186.288323 
L 647.367817 187.257734 
L 645.205649 188.494472 
L 643.536898 189.652551 
L 643.082359 190.195562 
L 643.036825 190.341294 
L 642.952264 190.257867 
L 642.940037 190.24928 
L 643.346443 190.449124 
L 644.06003 190.635321 
L 645.789026 190.80871 
L 647.857567 190.776106 
L 651.817154 190.397604 
L 656.31384 189.983401 
L 660.362969 189.877039 
L 666.279569 190.002789 
L 675.01547 190.176264 
L 675.383189 190.167284 
L 675.383189 190.167284 
" style="fill:none;stroke:#000000;stroke-linecap:square;stroke-opacity:0.7;stroke-width:1.2;"/>
   </g>
   <g id="line2d_23">
    <path clip-path="url(#p8ced74c3f5)" d="M 675.27979 145.798732 
L 665.739532 143.802639 
L 660.220901 142.83453 
L 656.780019 142.419873 
L 654.115213 142.269324 
L 651.423006 142.335184 
L 649.211292 142.606856 
L 646.986195 143.11233 
L 643.790881 144.129431 
L 643.31436 144.401143 
L 642.965728 144.915923 
L 642.909923 145.385919 
L 642.963483 145.376827 
L 643.290554 145.411592 
L 644.126754 145.495876 
L 645.584774 145.300749 
L 651.633278 144.049081 
L 654.33912 143.876894 
L 657.263184 143.959749 
L 660.587076 144.292268 
L 666.412122 145.147709 
L 672.286988 145.920885 
L 675.376292 146.126911 
L 675.376292 146.126911 
" style="fill:none;stroke:#000000;stroke-linecap:square;stroke-opacity:0.7;stroke-width:1.2;"/>
   </g>
   <g id="line2d_24">
    <path clip-path="url(#p8ced74c3f5)" d="M 675.440861 100.650833 
L 673.284182 99.895401 
L 664.801291 96.883574 
L 661.098747 95.825294 
L 658.526562 95.297238 
L 656.124009 95.037758 
L 654.300533 95.044043 
L 652.481536 95.272136 
L 650.700237 95.749809 
L 648.975542 96.463938 
L 646.513961 97.774031 
L 643.540633 99.521605 
L 642.257468 100.692213 
L 642.573695 101.06624 
L 643.123865 101.457791 
L 644.127814 101.965663 
L 646.322058 102.669817 
L 647.998271 102.95504 
L 650.02545 103.040878 
L 651.913962 102.90043 
L 655.688318 102.311392 
L 661.258234 101.475507 
L 666.024759 101.008984 
L 673.667803 100.54018 
L 675.490909 100.431636 
L 675.490909 100.431636 
" style="fill:none;stroke:#000000;stroke-linecap:square;stroke-opacity:0.7;stroke-width:1.2;"/>
   </g>
   <g id="line2d_25">
    <path clip-path="url(#p8ced74c3f5)" d="M 675.292826 55.370515 
L 670.41631 54.405799 
L 664.284297 53.370925 
L 659.750487 52.826524 
L 656.468373 52.661558 
L 653.796094 52.762582 
L 651.702172 53.047608 
L 648.631944 53.754995 
L 647.180803 53.99364 
L 645.896504 53.997855 
L 643.339357 53.844922 
L 642.609801 54.159326 
L 642.324777 54.52023 
L 642.210485 55.074704 
L 642.313255 55.585663 
L 642.684385 56.289975 
L 643.111304 56.809813 
L 644.22556 57.726173 
L 645.519869 58.421084 
L 647.142922 58.981527 
L 648.97278 59.312748 
L 650.645775 59.360553 
L 651.634315 59.279995 
L 654.20096 58.811678 
L 663.266421 56.84653 
L 667.980108 56.13265 
L 675.444808 55.258814 
L 675.444808 55.258814 
" style="fill:none;stroke:#000000;stroke-linecap:square;stroke-opacity:0.7;stroke-width:1.2;"/>
   </g>
  </g>
 </g>
 <defs>
  <clipPath id="p8ced74c3f5">
   <rect height="262.08" width="694.08" x="12.96" y="12.96"/>
  </clipPath>
 </defs>
</svg>
