<?xml version="1.0" encoding="utf-8" standalone="no"?>
<!DOCTYPE svg PUBLIC "-//W3C//DTD SVG 1.1//EN"
  "http://www.w3.org/Graphics/SVG/1.1/DTD/svg11.dtd">
<!-- Created with matplotlib (https://matplotlib.org/) -->
<svg height="288pt" version="1.1" viewBox="0 0 720 288" width="720pt" xmlns="http://www.w3.org/2000/svg" xmlns:xlink="http://www.w3.org/1999/xlink">
 <defs>
  <style type="text/css">
*{stroke-linecap:butt;stroke-linejoin:round;}
  </style>
 </defs>
 <g id="figure_1">
  <g id="patch_1">
   <path d="M 0 288 
L 720 288 
L 720 0 
L 0 0 
z
" style="fill:#ffffff;"/>
  </g>
  <g id="axes_1">
   <g id="line2d_1">
    <path clip-path="url(#p34f0a1a844)" d="M 54.177714 243.765125 
L 53.700523 243.213106 
L 52.855134 241.856848 
L 51.671446 239.493506 
L 50.233014 236.055989 
L 49.007344 232.567548 
L 48.194262 229.676155 
L 47.941162 228.077718 
L 48.033363 227.830469 
L 48.08943 227.843779 
L 48.395867 228.207743 
L 49.230455 229.8447 
L 50.481459 232.843042 
L 51.826884 236.602239 
L 52.432353 238.935176 
L 52.512156 240.10297 
L 52.275767 241.38268 
L 51.577455 244.308487 
L 51.147355 247.442099 
L 51.148356 247.442013 
L 52.306444 245.206247 
L 53.467756 243.775479 
L 53.997007 243.052855 
L 53.95838 243.335196 
L 54.071866 243.391804 
L 54.071866 243.391804 
" style="fill:none;stroke:#000000;stroke-linecap:square;stroke-opacity:0.7;stroke-width:1.2;"/>
   </g>
   <g id="line2d_2">
    <path clip-path="url(#p34f0a1a844)" d="M 54.655346 198.068964 
L 53.904961 197.911721 
L 51.90298 197.675208 
L 50.347275 197.701522 
L 49.077705 197.941187 
L 48.107995 198.278318 
L 48.141093 198.173298 
L 50.363094 193.518461 
L 50.981314 192.153766 
L 51.88799 190.261184 
L 52.340737 189.441345 
L 52.717938 189.384833 
L 52.966402 189.58186 
L 53.271912 190.03387 
L 53.699658 191.1261 
L 54.025059 192.774972 
L 54.128991 194.563185 
L 54.225901 197.600542 
L 54.311623 197.682259 
L 54.311623 197.682259 
" style="fill:none;stroke:#000000;stroke-linecap:square;stroke-opacity:0.7;stroke-width:1.2;"/>
   </g>
   <g id="line2d_3">
    <path clip-path="url(#p34f0a1a844)" d="M 54.361695 151.680167 
L 54.098231 151.320628 
L 53.432713 149.98186 
L 52.309973 147.191008 
L 50.835467 142.950596 
L 49.61935 138.839658 
L 49.291068 137.215545 
L 49.311089 136.598127 
L 49.439088 136.434287 
L 49.793155 136.474739 
L 50.484429 136.911998 
L 56.073617 141.136671 
L 57.805757 142.19648 
L 58.926209 143.204054 
L 59.745871 144.275774 
L 60.339058 145.355821 
L 60.672395 146.415673 
L 60.607145 146.953556 
L 60.292926 147.176745 
L 59.680888 147.184965 
L 57.440402 146.978364 
L 56.606919 147.21472 
L 55.944698 147.707647 
L 55.404628 148.406628 
L 54.339727 150.325814 
L 53.936837 151.321691 
L 54.086576 151.375488 
L 54.10236 151.370302 
L 54.10236 151.370302 
" style="fill:none;stroke:#000000;stroke-linecap:square;stroke-opacity:0.7;stroke-width:1.2;"/>
   </g>
   <g id="line2d_4">
    <path clip-path="url(#p34f0a1a844)" d="M 56.01511 105.363691 
L 56.316779 105.146029 
L 56.925993 104.357011 
L 57.784996 102.85162 
L 58.789889 100.619473 
L 59.735727 97.946669 
L 60.308838 95.820831 
L 60.713757 93.51548 
L 60.783509 91.689321 
L 60.582414 90.503898 
L 60.054758 89.6366 
L 59.451517 89.348272 
L 58.683156 89.38012 
L 57.749463 89.733355 
L 56.364381 90.628804 
L 54.560669 92.216665 
L 51.96548 95.073939 
L 50.898306 96.409568 
L 47.763713 100.848167 
L 45.661246 104.33371 
L 44.596421 106.488303 
L 44.509091 106.927798 
L 44.577937 107.174502 
L 44.934583 107.422453 
L 45.472866 107.518382 
L 46.297367 107.449482 
L 47.633631 107.047124 
L 51.240849 105.821513 
L 53.386997 105.324665 
L 56.277914 104.914235 
L 58.188009 104.787782 
L 61.203698 104.841568 
L 62.145143 105.038649 
L 62.04296 105.100441 
L 61.161464 105.195149 
L 58.337818 105.215201 
L 55.8672 105.08945 
L 55.8672 105.08945 
" style="fill:none;stroke:#000000;stroke-linecap:square;stroke-opacity:0.7;stroke-width:1.2;"/>
   </g>
   <g id="line2d_5">
    <path clip-path="url(#p34f0a1a844)" d="M 55.193143 59.653246 
L 54.93675 58.982345 
L 53.5619 54.820272 
L 52.971058 53.705213 
L 52.36674 52.978551 
L 51.863445 52.694117 
L 51.518892 52.699283 
L 51.24606 52.886451 
L 51.060108 53.267083 
L 51.01771 53.806138 
L 51.20736 54.629048 
L 51.744058 55.578019 
L 52.235199 56.045124 
L 52.56029 56.121988 
L 52.687889 55.946382 
L 52.648014 55.498726 
L 52.392685 55.084323 
L 52.10359 55.015078 
L 51.50831 55.227878 
L 50.993499 55.29994 
L 50.64106 55.139342 
L 50.662628 55.093647 
L 50.732887 55.09385 
L 51.229354 55.298491 
L 52.195043 55.950209 
L 53.330835 56.991519 
L 54.085791 57.948118 
L 54.56167 58.905903 
L 54.838938 59.372279 
L 54.842814 59.370997 
L 54.842814 59.370997 
" style="fill:none;stroke:#000000;stroke-linecap:square;stroke-opacity:0.7;stroke-width:1.2;"/>
   </g>
   <g id="line2d_6">
    <path clip-path="url(#p34f0a1a844)" d="M 208.494878 244.184959 
L 207.457607 242.330154 
L 206.800905 241.538147 
L 206.178572 241.117138 
L 205.660051 241.056779 
L 205.533014 241.101822 
L 205.739397 240.951795 
L 206.695987 240.006937 
L 208.371537 237.994772 
L 209.996772 235.717514 
L 211.400767 233.406484 
L 212.453157 231.309741 
L 213.485332 228.679584 
L 214.235345 226.778887 
L 214.561411 226.468197 
L 214.716807 226.540554 
L 214.731032 226.830765 
L 214.499086 227.279395 
L 213.685101 228.198748 
L 212.474731 229.58707 
L 211.651564 230.791714 
L 210.853765 232.343036 
L 210.179565 234.20222 
L 209.590172 236.688338 
L 208.333097 243.168466 
L 208.073176 243.825844 
L 208.102895 243.775114 
" style="fill:none;stroke:#000000;stroke-linecap:square;stroke-opacity:0.7;stroke-width:1.2;"/>
   </g>
   <g id="line2d_7">
    <path clip-path="url(#p34f0a1a844)" d="M 207.646555 198.015445 
L 206.603966 197.335578 
L 204.78848 195.862667 
L 203.794605 194.84429 
L 203.710473 194.561922 
L 203.934925 194.515524 
L 205.221861 194.749794 
L 206.670218 194.886156 
L 207.827825 194.776761 
L 209.001378 194.423067 
L 209.849517 193.995675 
L 211.023566 193.129067 
L 212.025373 192.072297 
L 212.842187 190.886291 
L 213.548599 189.400948 
L 213.966125 187.929487 
L 214.090188 187.089123 
L 214.075638 185.139054 
L 213.780147 183.604765 
L 213.279165 182.159189 
L 212.686014 180.987399 
L 212.123375 180.253402 
L 211.460908 179.85002 
L 210.766934 179.766305 
L 210.041943 179.870289 
L 209.040427 180.239775 
L 208.082561 180.826215 
L 207.150582 181.642816 
L 206.000811 183.08008 
L 205.121408 184.651207 
L 204.586639 185.939374 
L 203.991629 187.972718 
L 203.636073 190.11255 
L 203.540044 192.068022 
L 203.68777 193.95165 
L 203.953375 195.139734 
L 204.489453 196.375928 
L 205.038852 197.053948 
L 205.550538 197.41269 
L 206.21107 197.629241 
L 207.001136 197.617067 
L 207.233806 197.534098 
L 207.233806 197.534098 
" style="fill:none;stroke:#000000;stroke-linecap:square;stroke-opacity:0.7;stroke-width:1.2;"/>
   </g>
   <g id="line2d_8">
    <path clip-path="url(#p34f0a1a844)" d="M 208.30203 151.620797 
L 208.072745 151.386136 
L 207.519093 150.458021 
L 206.705049 148.610212 
L 205.587053 145.443713 
L 204.350239 141.200209 
L 203.348024 137.108662 
L 202.501629 133.355919 
L 202.499386 133.391304 
L 202.748708 136.199798 
L 203.764151 147.0591 
L 203.985994 150.484474 
L 204.026661 154.260465 
L 203.784602 156.347497 
L 203.422348 157.516588 
L 202.968779 158.31822 
L 202.27719 159.041544 
L 201.411351 159.57661 
L 200.178655 159.965713 
L 199.227718 159.996283 
L 198.61007 159.747779 
L 198.392526 159.420902 
L 198.352567 159.156323 
L 198.532286 158.433166 
L 199.030951 157.61015 
L 199.917678 156.600397 
L 201.64719 155.107535 
L 203.467441 153.822883 
L 206.781896 151.819582 
L 208.791166 150.67251 
L 208.364494 151.015621 
L 208.219884 151.2007 
L 208.219884 151.2007 
" style="fill:none;stroke:#000000;stroke-linecap:square;stroke-opacity:0.7;stroke-width:1.2;"/>
   </g>
   <g id="line2d_9">
    <path clip-path="url(#p34f0a1a844)" d="M 208.347478 106.018068 
L 205.606187 105.073442 
L 204.603464 104.972091 
L 204.037961 105.095149 
L 204.002792 105.226603 
L 204.235445 105.286373 
L 204.963108 105.18585 
L 206.287266 104.706555 
L 208.049401 103.77764 
L 209.917942 102.509545 
L 211.250654 101.382709 
L 212.425138 100.10215 
L 212.680417 99.753294 
L 213.553335 97.821635 
L 213.635751 97.010883 
L 213.509304 96.002084 
L 213.22871 95.165887 
L 212.453597 93.756529 
L 211.41693 92.40403 
L 210.407015 91.334626 
L 208.792944 89.976451 
L 207.552242 89.232349 
L 206.559758 88.88347 
L 205.728863 88.838023 
L 205.035629 89.073352 
L 204.832262 89.214868 
L 204.192171 90.057474 
L 203.84077 91.144601 
L 203.679813 92.611199 
L 203.762394 94.725644 
L 204.226949 97.656782 
L 204.976939 100.589584 
L 205.845011 103.043808 
L 206.650971 104.623864 
L 207.278355 105.366683 
L 207.775303 105.643302 
L 208.028709 105.670871 
L 208.028709 105.670871 
" style="fill:none;stroke:#000000;stroke-linecap:square;stroke-opacity:0.7;stroke-width:1.2;"/>
   </g>
   <g id="line2d_10">
    <path clip-path="url(#p34f0a1a844)" d="M 208.256965 59.567499 
L 208.330153 58.832962 
L 208.956114 54.138606 
L 208.874501 52.937254 
L 208.648194 52.373742 
L 208.276957 52.065984 
L 207.699415 51.947685 
L 206.851402 51.773425 
L 206.164815 51.601299 
L 205.875732 51.785618 
L 205.627226 52.280627 
L 205.418571 53.299678 
L 205.290953 55.38587 
L 205.121078 60.615563 
L 204.971271 60.829668 
L 204.777932 60.782233 
L 204.53639 60.413381 
L 204.306086 59.639184 
L 204.237884 58.549003 
L 204.415896 57.68399 
L 204.739702 57.222549 
L 205.074546 57.1059 
L 205.430338 57.179448 
L 206.035566 57.552347 
L 208.240403 59.246065 
L 208.240403 59.246065 
" style="fill:none;stroke:#000000;stroke-linecap:square;stroke-opacity:0.7;stroke-width:1.2;"/>
   </g>
   <g id="line2d_11">
    <path clip-path="url(#p34f0a1a844)" d="M 362.286825 243.976849 
L 363.003298 243.464798 
L 364.012027 242.481036 
L 365.15015 241.090958 
L 365.890419 239.923612 
L 366.292677 238.928742 
L 366.312985 238.248453 
L 366.119947 237.892642 
L 365.673114 237.587816 
L 363.754653 236.675301 
L 363.259259 236.092002 
L 362.782772 235.10672 
L 362.073787 232.81868 
L 361.57211 231.629754 
L 361.584142 231.776086 
L 361.992948 232.777586 
L 362.977832 234.551428 
L 363.802531 235.673923 
L 364.17222 235.894041 
L 364.217037 235.851249 
L 364.210952 235.935243 
L 363.95975 237.38518 
L 363.328901 239.551029 
L 362.014221 243.528064 
L 362.014221 243.528064 
" style="fill:none;stroke:#000000;stroke-linecap:square;stroke-opacity:0.7;stroke-width:1.2;"/>
   </g>
   <g id="line2d_12">
    <path clip-path="url(#p34f0a1a844)" d="M 361.339774 197.843127 
L 361.901734 196.032404 
L 362.854441 193.858631 
L 364.152084 191.469831 
L 364.618141 190.441246 
L 364.801898 189.51508 
L 364.924314 187.678198 
L 364.82548 186.135501 
L 364.565441 185.161251 
L 364.172464 184.565078 
L 363.927586 184.416074 
L 363.518976 184.441941 
L 363.21291 184.705309 
L 362.908171 185.30322 
L 362.655868 186.556012 
L 362.288529 189.228627 
L 361.941374 189.549783 
L 361.245523 189.741963 
L 359.416927 189.821881 
L 357.590391 189.99135 
L 356.24263 190.373325 
L 355.303604 190.962347 
L 354.852173 191.557633 
L 354.669096 192.176326 
L 354.697818 192.844873 
L 355.016961 193.724202 
L 355.7739 194.778406 
L 356.809439 195.716523 
L 358.153767 196.573583 
L 359.607509 197.207894 
L 360.532749 197.463565 
L 361.176682 197.528963 
L 361.176682 197.528963 
" style="fill:none;stroke:#000000;stroke-linecap:square;stroke-opacity:0.7;stroke-width:1.2;"/>
   </g>
   <g id="line2d_13">
    <path clip-path="url(#p34f0a1a844)" d="M 361.984559 151.967643 
L 361.735268 151.51715 
L 361.423328 150.42236 
L 361.247667 149.058327 
L 361.319637 148.916336 
L 361.357565 148.933065 
L 361.851603 149.487603 
L 362.338707 149.874275 
L 362.870109 150.051353 
L 363.734319 149.923808 
L 364.419154 149.5274 
L 365.081772 148.907403 
L 365.511443 148.364924 
L 366.477565 146.519481 
L 366.898935 145.077545 
L 367.072505 143.989725 
L 367.107187 141.83081 
L 366.724987 139.394615 
L 366.130322 137.417469 
L 365.411334 135.78507 
L 364.767051 134.837452 
L 364.443227 134.534877 
L 363.297175 134.155252 
L 362.520638 134.270261 
L 361.151195 134.874587 
L 360.382095 135.399651 
L 359.473757 136.202562 
L 358.076091 137.942709 
L 357.802069 138.384123 
L 356.792854 140.50815 
L 356.341304 141.941484 
L 355.961262 143.936125 
L 355.845977 145.584059 
L 355.888874 146.981617 
L 356.222853 149.051609 
L 356.59651 150.207497 
L 357.278207 151.471074 
L 357.695867 151.955023 
L 358.335762 152.414916 
L 358.854153 152.591192 
L 359.631727 152.590394 
L 360.27032 152.388189 
L 361.140109 151.842096 
L 361.32585 151.647402 
L 361.32585 151.647402 
" style="fill:none;stroke:#000000;stroke-linecap:square;stroke-opacity:0.7;stroke-width:1.2;"/>
   </g>
   <g id="line2d_14">
    <path clip-path="url(#p34f0a1a844)" d="M 361.824168 105.554106 
L 362.219695 104.793905 
L 363.165088 102.456591 
L 364.487537 98.559063 
L 365.914756 94.381995 
L 366.317045 93.765009 
L 366.663176 93.600929 
L 367.090021 93.731463 
L 367.627165 94.168834 
L 368.804547 95.505934 
L 370.980874 98.059127 
L 371.048883 97.895079 
L 371.106124 95.583036 
L 371.444468 94.259369 
L 372.355113 91.203831 
L 372.351148 90.559767 
L 372.125627 89.89241 
L 371.81017 89.546087 
L 371.380334 89.346148 
L 370.69647 89.350005 
L 370.080735 89.593219 
L 369.278669 90.215566 
L 368.967036 90.553488 
L 368.089579 91.825065 
L 367.428561 93.125839 
L 366.18398 96.274109 
L 364.739641 99.935507 
L 363.659961 102.084686 
L 362.390084 104.061137 
L 361.52135 105.275441 
L 361.52135 105.275441 
" style="fill:none;stroke:#000000;stroke-linecap:square;stroke-opacity:0.7;stroke-width:1.2;"/>
   </g>
   <g id="line2d_15">
    <path clip-path="url(#p34f0a1a844)" d="M 361.39296 60.178078 
L 358.978784 59.543844 
L 357.468949 59.368724 
L 356.740714 59.494084 
L 356.687033 59.624801 
L 356.941946 59.73099 
L 357.615403 59.69965 
L 358.619656 59.397141 
L 359.928543 58.717283 
L 361.416749 57.609846 
L 362.29069 56.777028 
L 363.443881 55.373438 
L 364.045696 54.381394 
L 364.38181 53.631543 
L 364.663821 51.416097 
L 364.374035 50.50066 
L 364.030753 49.932038 
L 363.073843 48.950733 
L 362.751905 48.704683 
L 360.788065 47.592892 
L 359.819218 47.211997 
L 358.080816 46.781493 
L 356.582384 46.717894 
L 355.421959 46.929224 
L 354.372995 47.412725 
L 353.532326 48.162749 
L 352.992696 49.063451 
L 352.758111 49.822374 
L 352.664412 51.085883 
L 352.811345 52.16879 
L 353.216687 53.4542 
L 353.930803 54.849268 
L 354.720864 55.956465 
L 355.89769 57.188248 
L 357.005006 58.055506 
L 358.409452 58.855359 
L 359.889912 59.38296 
L 360.958426 59.527354 
L 361.05658 59.517088 
L 361.05658 59.517088 
" style="fill:none;stroke:#000000;stroke-linecap:square;stroke-opacity:0.7;stroke-width:1.2;"/>
   </g>
   <g id="line2d_16">
    <path clip-path="url(#p34f0a1a844)" d="M 516.316086 244.017542 
L 516.297601 243.372844 
L 516.204134 240.631549 
L 515.922669 238.574674 
L 515.605625 237.473903 
L 515.209641 236.80652 
L 514.817856 236.5975 
L 514.439311 236.686589 
L 513.915892 237.155896 
L 513.39391 237.928972 
L 512.496567 239.772906 
L 509.651109 246.308059 
L 509.132278 246.828062 
L 508.746508 246.972924 
L 508.306265 246.855277 
L 507.992062 246.531937 
L 507.733192 245.994718 
L 507.548195 245.012165 
L 507.592788 243.805758 
L 507.895804 242.417204 
L 508.469462 240.899995 
L 509.364178 239.229725 
L 510.44269 237.705697 
L 511.327064 236.705328 
L 512.732621 235.456251 
L 514.050141 234.594769 
L 515.671844 233.888749 
L 516.885194 233.605136 
L 518.27076 233.559434 
L 519.563042 233.86664 
L 520.400458 234.371516 
L 520.897375 234.922436 
L 521.26313 235.724027 
L 521.362738 236.326437 
L 521.350514 236.945665 
L 520.945549 238.454115 
L 520.337356 239.613853 
L 519.808464 240.380948 
L 518.310589 242.04991 
L 516.885809 243.249977 
L 516.128174 243.730495 
L 516.128174 243.730495 
" style="fill:none;stroke:#000000;stroke-linecap:square;stroke-opacity:0.7;stroke-width:1.2;"/>
   </g>
   <g id="line2d_17">
    <path clip-path="url(#p34f0a1a844)" d="M 515.549943 197.54925 
L 515.802743 197.075528 
L 516.546508 195.166666 
L 517.474129 192.191537 
L 518.272798 188.881681 
L 518.646572 186.533784 
L 518.718992 184.615558 
L 518.497946 183.484099 
L 518.189934 183.010518 
L 517.862682 182.816534 
L 517.358463 182.788373 
L 516.708722 183.00952 
L 516.028103 183.427474 
L 514.722698 184.576644 
L 513.316748 186.230581 
L 512.383108 187.690512 
L 511.949888 188.786881 
L 511.851161 189.367477 
L 511.932969 190.617144 
L 512.190168 191.591913 
L 512.981234 193.587155 
L 514.318406 196.241009 
L 515.283545 197.848389 
L 515.962196 198.640188 
L 516.207371 198.630211 
L 516.32927 198.244775 
L 516.355611 197.052333 
L 516.200132 195.225458 
L 516.070953 195.267623 
L 515.710642 195.760784 
L 515.352194 196.614277 
L 515.353015 197.105976 
L 515.441335 197.225 
L 515.441335 197.225 
" style="fill:none;stroke:#000000;stroke-linecap:square;stroke-opacity:0.7;stroke-width:1.2;"/>
   </g>
   <g id="line2d_18">
    <path clip-path="url(#p34f0a1a844)" d="M 515.87437 151.848595 
L 516.298555 150.821399 
L 516.745539 149.205186 
L 516.846333 148.101722 
L 516.709727 147.487616 
L 516.324822 147.015216 
L 516.18599 146.675755 
L 516.272469 146.154494 
L 516.805357 144.896431 
L 520.199835 137.895988 
L 521.045144 135.397501 
L 521.185147 134.937759 
L 521.182684 135.26645 
L 520.969922 137.564594 
L 520.636937 139.106094 
L 520.159674 140.230317 
L 519.551404 141.088336 
L 518.551982 142.071038 
L 517.147654 143.426612 
L 516.40594 144.454161 
L 515.863321 145.67499 
L 515.573463 146.886772 
L 515.397704 148.764008 
L 515.398859 151.307838 
L 515.545115 151.474335 
L 515.554806 151.459179 
" style="fill:none;stroke:#000000;stroke-linecap:square;stroke-opacity:0.7;stroke-width:1.2;"/>
   </g>
   <g id="line2d_19">
    <path clip-path="url(#p34f0a1a844)" d="M 516.170672 105.751151 
L 515.384039 103.199223 
L 514.756924 102.08871 
L 514.05154 101.320935 
L 513.424647 100.914303 
L 512.715316 100.67575 
L 511.702298 100.621753 
L 510.317918 100.855384 
L 509.219422 100.988403 
L 508.900287 100.848723 
L 508.783611 100.569635 
L 508.862308 100.114576 
L 509.184322 99.532392 
L 509.872618 98.821267 
L 510.779825 98.243998 
L 511.93397 97.798665 
L 513.248793 97.52701 
L 514.943814 97.417638 
L 517.078 97.52447 
L 519.01061 97.584291 
L 519.558645 97.572436 
L 519.720294 97.985618 
L 519.935325 99.073869 
L 520.004029 100.523937 
L 519.828181 101.748149 
L 519.610393 102.420067 
L 519.114175 103.35605 
L 518.523334 104.074526 
L 517.487092 104.884404 
L 516.535474 105.319673 
L 515.841937 105.40993 
L 515.841937 105.40993 
" style="fill:none;stroke:#000000;stroke-linecap:square;stroke-opacity:0.7;stroke-width:1.2;"/>
   </g>
   <g id="line2d_20">
    <path clip-path="url(#p34f0a1a844)" d="M 516.488898 59.282513 
L 516.993681 59.004097 
L 518.134145 58.092696 
L 519.783639 56.473903 
L 521.730858 54.233251 
L 523.394602 52.038542 
L 525.065111 49.502951 
L 526.506878 46.864638 
L 527.395583 44.719542 
L 527.798946 43.076463 
L 527.746971 41.855558 
L 527.525176 41.452191 
L 527.300642 41.277926 
L 526.630857 41.182976 
L 525.891848 41.392697 
L 525.579235 41.536188 
L 523.469425 42.98942 
L 521.448939 44.873133 
L 517.700106 49.178658 
L 515.221564 52.522012 
L 513.01633 55.908082 
L 512.067474 57.740737 
L 511.855449 58.594555 
L 511.947706 59.183383 
L 512.347852 59.741058 
L 512.976816 60.189756 
L 513.897449 60.585539 
L 514.892723 60.802267 
L 515.835071 60.808828 
L 516.855601 60.567255 
L 517.826018 60.092831 
L 519.018807 59.267302 
L 522.323852 56.855136 
L 523.613713 56.226784 
L 524.329883 56.07343 
L 524.465307 56.158646 
L 524.319177 56.356795 
L 523.563364 56.80554 
L 522.268814 57.347871 
L 519.329717 58.286508 
L 516.381941 58.983236 
L 516.248102 58.996836 
L 516.248102 58.996836 
" style="fill:none;stroke:#000000;stroke-linecap:square;stroke-opacity:0.7;stroke-width:1.2;"/>
   </g>
   <g id="line2d_21">
    <path clip-path="url(#p34f0a1a844)" d="M 668.915106 243.724655 
L 668.854972 242.396896 
L 668.920158 238.478315 
L 669.208085 233.584937 
L 669.621214 230.004916 
L 670.003483 228.386331 
L 670.351588 227.783102 
L 670.654537 227.683102 
L 671.012194 227.883565 
L 671.475566 228.458433 
L 672.051286 229.467597 
L 673.183271 232.011154 
L 674.090431 234.540129 
L 674.649809 236.669456 
L 674.781711 238.1419 
L 674.59702 238.89839 
L 674.213927 239.313172 
L 673.692467 239.501154 
L 672.670781 239.534045 
L 667.196598 239.059896 
L 666.046509 238.69368 
L 665.231714 238.477597 
L 665.224263 238.644196 
L 665.587878 239.338334 
L 667.491222 242.23758 
L 668.213222 243.038405 
L 668.597208 243.313972 
L 668.597208 243.313972 
" style="fill:none;stroke:#000000;stroke-linecap:square;stroke-opacity:0.7;stroke-width:1.2;"/>
   </g>
   <g id="line2d_22">
    <path clip-path="url(#p34f0a1a844)" d="M 669.705808 198.160593 
L 669.890135 198.169862 
L 670.711248 198.274954 
L 671.201092 198.564341 
L 671.299143 198.830112 
L 671.19526 198.850241 
L 671.043984 198.629014 
L 670.898752 197.962476 
L 670.860933 196.543786 
L 671.026372 188.305034 
L 670.564987 185.114529 
L 670.017143 183.302443 
L 669.310394 181.73517 
L 668.989685 180.947434 
L 669.225874 181.027616 
L 669.829137 181.574307 
L 670.08195 182.058601 
L 670.223602 182.93116 
L 670.186326 184.215694 
L 669.280082 197.37092 
L 669.457191 197.951569 
L 669.504335 197.95925 
L 669.504335 197.95925 
" style="fill:none;stroke:#000000;stroke-linecap:square;stroke-opacity:0.7;stroke-width:1.2;"/>
   </g>
   <g id="line2d_23">
    <path clip-path="url(#p34f0a1a844)" d="M 669.606243 151.441031 
L 670.620475 149.612835 
L 672.463036 145.877258 
L 673.913072 142.483808 
L 674.773666 139.969223 
L 675.072132 138.539686 
L 675.073646 138.004263 
L 674.831825 137.616018 
L 674.446672 137.696725 
L 673.926145 138.085771 
L 673.331636 138.697811 
L 671.659642 140.844539 
L 666.046205 148.568219 
L 664.611866 150.003803 
L 661.680164 152.791616 
L 660.980498 153.753593 
L 660.458199 154.794059 
L 660.256046 155.696943 
L 660.373169 156.015163 
L 660.624264 155.96791 
L 661.031753 155.615143 
L 665.278542 151.164974 
L 667.074995 149.824804 
L 668.25164 149.227374 
L 668.669004 149.200394 
L 668.893343 149.415077 
L 669.000003 150.204473 
L 669.151484 151.074223 
L 669.174968 151.123949 
L 669.174968 151.123949 
" style="fill:none;stroke:#000000;stroke-linecap:square;stroke-opacity:0.7;stroke-width:1.2;"/>
   </g>
   <g id="line2d_24">
    <path clip-path="url(#p34f0a1a844)" d="M 669.39484 105.467166 
L 669.63739 105.257614 
L 670.175887 104.432116 
L 671.162484 102.463128 
L 672.257295 99.772138 
L 673.162175 96.946583 
L 673.652384 94.693104 
L 673.77144 93.008364 
L 673.465278 91.785814 
L 673.068731 91.498264 
L 672.692103 91.526372 
L 672.382789 91.683479 
L 671.973341 92.041787 
L 671.275722 93.022152 
L 670.386567 94.960428 
L 669.588479 96.681582 
L 669.039426 97.231808 
L 668.148092 97.675644 
L 667.602515 98.102635 
L 667.474172 98.422395 
L 667.548573 98.869331 
L 667.866371 99.262892 
L 668.491438 100.026128 
L 669.222303 101.240646 
L 669.535854 102.071946 
L 669.691524 103.163281 
L 669.57184 104.151119 
L 669.251319 105.00349 
L 669.092372 105.214816 
L 669.092372 105.214816 
" style="fill:none;stroke:#000000;stroke-linecap:square;stroke-opacity:0.7;stroke-width:1.2;"/>
   </g>
   <g id="line2d_25">
    <path clip-path="url(#p34f0a1a844)" d="M 669.130946 59.898576 
L 668.849699 59.532061 
L 667.698527 57.412224 
L 667.722483 57.407818 
L 669.444908 57.407409 
L 670.621605 57.079392 
L 671.917717 56.466054 
L 672.742306 55.910747 
L 673.698233 55.004851 
L 674.136371 54.414547 
L 674.653919 53.373083 
L 675.011374 51.941018 
L 675.175615 50.138299 
L 675.467428 42.84394 
L 675.183576 41.491565 
L 674.781175 40.899313 
L 674.108423 40.575054 
L 673.45593 40.609822 
L 672.86684 40.831538 
L 672.136187 41.317107 
L 671.48157 41.947101 
L 670.619989 43.095012 
L 669.872044 44.475728 
L 669.437821 45.51377 
L 668.700681 47.967995 
L 668.287468 50.145999 
L 667.946682 53.657826 
L 667.90066 56.555138 
L 668.080828 58.770259 
L 668.318981 59.418154 
L 668.548291 59.534841 
L 668.766918 59.438633 
L 668.766918 59.438633 
" style="fill:none;stroke:#000000;stroke-linecap:square;stroke-opacity:0.7;stroke-width:1.2;"/>
   </g>
  </g>
 </g>
 <defs>
  <clipPath id="p34f0a1a844">
   <rect height="262.08" width="694.08" x="12.96" y="12.96"/>
  </clipPath>
 </defs>
</svg>
