<?xml version="1.0" encoding="utf-8" standalone="no"?>
<!DOCTYPE svg PUBLIC "-//W3C//DTD SVG 1.1//EN"
  "http://www.w3.org/Graphics/SVG/1.1/DTD/svg11.dtd">
<!-- Created with matplotlib (https://matplotlib.org/) -->
<svg height="288pt" version="1.1" viewBox="0 0 720 288" width="720pt" xmlns="http://www.w3.org/2000/svg" xmlns:xlink="http://www.w3.org/1999/xlink">
 <defs>
  <style type="text/css">
*{stroke-linecap:butt;stroke-linejoin:round;}
  </style>
 </defs>
 <g id="figure_1">
  <g id="patch_1">
   <path d="M 0 288 
L 720 288 
L 720 0 
L 0 0 
z
" style="fill:#ffffff;"/>
  </g>
  <g id="axes_1">
   <g id="line2d_1">
    <path clip-path="url(#p3fa105da43)" d="M 149.407843 224.968457 
L 132.393845 222.93804 
L 108.197919 220.046974 
L 97.141163 218.959268 
L 87.999733 218.266575 
L 79.943819 217.865159 
L 72.886536 217.757374 
L 67.764846 217.907801 
L 63.705764 218.228768 
L 60.098659 218.711348 
L 56.307238 219.469994 
L 53.070717 220.373044 
L 50.046128 221.499038 
L 48.465645 222.23969 
L 46.85242 223.170596 
L 45.563826 224.201009 
L 45.172307 224.728841 
L 45.068029 225.205599 
L 45.182144 225.502984 
L 45.557729 225.84402 
L 46.747048 226.329869 
L 48.695986 226.744407 
L 51.371244 227.07817 
L 55.739608 227.374576 
L 61.737186 227.530173 
L 70.66588 227.507623 
L 86.325318 227.434066 
L 110.289368 227.570945 
L 119.990322 227.333383 
L 129.672297 226.867425 
L 137.859203 226.271837 
L 145.403829 225.519918 
L 149.383091 225.02626 
L 149.383091 225.02626 
" style="fill:none;stroke:#000000;stroke-linecap:square;stroke-opacity:0.7;stroke-width:1.2;"/>
   </g>
   <g id="line2d_2">
    <path clip-path="url(#p3fa105da43)" d="M 149.476652 185.132241 
L 132.773622 181.023062 
L 123.293422 178.884045 
L 115.87284 177.431338 
L 109.612517 176.442019 
L 104.29094 175.812499 
L 98.307412 175.350938 
L 92.115566 175.135667 
L 85.3465 175.179668 
L 79.665403 175.430894 
L 74.622113 175.823792 
L 68.520366 176.542426 
L 63.963321 177.291456 
L 60.305107 178.060824 
L 56.345075 179.115282 
L 53.20494 180.173605 
L 49.981226 181.562043 
L 48.287847 182.481008 
L 46.657454 183.589148 
L 45.765749 184.392366 
L 45.174443 185.17987 
L 44.958539 185.876663 
L 45.0468 186.386289 
L 45.396122 186.882748 
L 46.168387 187.427969 
L 47.367314 187.932718 
L 49.125714 188.410485 
L 52.442953 188.945234 
L 54.812161 189.163586 
L 59.842633 189.35535 
L 65.439121 189.29166 
L 73.564197 188.913648 
L 84.797186 188.130607 
L 119.017074 185.565269 
L 128.614955 185.194848 
L 137.142315 185.073102 
L 146.194932 185.172043 
L 149.464709 185.266854 
L 149.464709 185.266854 
" style="fill:none;stroke:#000000;stroke-linecap:square;stroke-opacity:0.7;stroke-width:1.2;"/>
   </g>
   <g id="line2d_3">
    <path clip-path="url(#p3fa105da43)" d="M 149.60291 145.855416 
L 114.586907 135.154519 
L 107.536673 133.288105 
L 101.731287 131.981692 
L 96.62126 131.082484 
L 92.949869 130.615782 
L 88.906501 130.297833 
L 84.372083 130.203945 
L 81.00824 130.321816 
L 77.46731 130.622808 
L 74.386704 131.034302 
L 69.795618 131.910052 
L 66.440964 132.754905 
L 63.316358 133.708096 
L 59.658573 135.053372 
L 56.958288 136.237371 
L 53.772403 137.914333 
L 51.578602 139.327767 
L 49.829587 140.704449 
L 48.367437 142.168347 
L 47.268197 143.706654 
L 46.699599 145.036328 
L 46.554599 146.371533 
L 46.775874 147.244353 
L 47.105588 147.803544 
L 47.742773 148.452886 
L 48.756374 149.104227 
L 50.157335 149.704324 
L 52.124828 150.281558 
L 54.076928 150.691253 
L 58.196458 151.266943 
L 62.852182 151.645661 
L 69.062536 151.881216 
L 75.674355 151.88192 
L 81.808138 151.663141 
L 87.731186 151.236376 
L 94.871487 150.45454 
L 103.660397 149.223751 
L 120.152172 146.826528 
L 127.700617 145.9575 
L 132.993911 145.531495 
L 138.09471 145.330829 
L 142.842916 145.387932 
L 147.009865 145.66225 
L 149.605656 145.937297 
L 149.605656 145.937297 
" style="fill:none;stroke:#000000;stroke-linecap:square;stroke-opacity:0.7;stroke-width:1.2;"/>
   </g>
   <g id="line2d_4">
    <path clip-path="url(#p3fa105da43)" d="M 149.472859 106.669702 
L 140.778012 105.615481 
L 130.073121 104.078022 
L 118.550732 102.223391 
L 89.247444 97.381867 
L 83.30596 96.645846 
L 77.717187 96.152734 
L 72.805258 95.948121 
L 68.743489 95.998718 
L 64.56645 96.320344 
L 60.96137 96.872151 
L 58.464926 97.433828 
L 55.282756 98.405233 
L 52.916395 99.351011 
L 50.573964 100.52455 
L 48.886801 101.5613 
L 47.278807 102.763495 
L 45.902454 104.071533 
L 45.044627 105.185525 
L 44.633783 106.023292 
L 44.509091 106.794184 
L 44.567791 107.146229 
L 44.776766 107.574367 
L 45.6458 108.306076 
L 46.187142 108.570975 
L 47.297529 108.962542 
L 50.131561 109.583885 
L 53.932264 110.079057 
L 58.975456 110.472452 
L 66.464571 110.7786 
L 80.290777 111.030878 
L 99.764842 111.239665 
L 109.685584 111.083785 
L 117.991149 110.735333 
L 126.237535 110.159074 
L 133.985874 109.367769 
L 140.402273 108.478014 
L 145.381434 107.589809 
L 149.474508 106.681153 
L 149.474508 106.681153 
" style="fill:none;stroke:#000000;stroke-linecap:square;stroke-opacity:0.7;stroke-width:1.2;"/>
   </g>
   <g id="line2d_5">
    <path clip-path="url(#p3fa105da43)" d="M 149.432263 67.011319 
L 135.897774 64.717458 
L 111.726932 60.589922 
L 103.572359 59.446967 
L 96.908569 58.712677 
L 89.964433 58.186585 
L 84.257452 57.971201 
L 79.330956 57.972146 
L 74.11784 58.19765 
L 68.804654 58.714314 
L 64.953669 59.309156 
L 61.636851 60.003059 
L 58.561917 60.830345 
L 55.738167 61.786322 
L 53.030258 62.937576 
L 50.550785 64.288715 
L 49.029042 65.362899 
L 47.929225 66.455587 
L 47.630305 67.056032 
L 47.621947 67.296479 
L 47.77052 67.606341 
L 48.168053 67.895452 
L 49.157434 68.22484 
L 51.26604 68.558876 
L 55.319877 68.860816 
L 62.650566 69.078475 
L 75.705192 69.168202 
L 101.574408 69.144527 
L 114.331137 68.858413 
L 128.434778 68.31062 
L 142.739662 67.551035 
L 149.435009 67.117447 
L 149.435009 67.117447 
" style="fill:none;stroke:#000000;stroke-linecap:square;stroke-opacity:0.7;stroke-width:1.2;"/>
   </g>
   <g id="line2d_6">
    <path clip-path="url(#p3fa105da43)" d="M 281.001336 224.805328 
L 273.746812 223.124124 
L 260.134786 219.69727 
L 243.414871 215.499794 
L 235.823881 213.799353 
L 230.282167 212.730886 
L 224.608845 211.853775 
L 219.882363 211.339773 
L 215.033548 211.065735 
L 210.543343 211.081187 
L 206.456078 211.348826 
L 202.981093 211.782124 
L 199.342923 212.452378 
L 195.708236 213.363812 
L 192.330167 214.461404 
L 189.163613 215.761827 
L 187.14534 216.765795 
L 184.30373 218.493541 
L 182.542921 219.824643 
L 180.931345 221.324704 
L 179.830833 222.632986 
L 178.988637 224.067804 
L 178.727182 224.96221 
L 178.752963 225.658219 
L 178.986657 226.162024 
L 179.542614 226.656041 
L 180.481282 227.055943 
L 181.720311 227.328279 
L 183.960594 227.550505 
L 187.316411 227.625989 
L 193.370154 227.47924 
L 222.801981 226.410637 
L 243.760434 226.247796 
L 258.676914 225.996104 
L 269.458583 225.611105 
L 278.797516 225.069917 
L 280.992464 224.905667 
L 280.992464 224.905667 
" style="fill:none;stroke:#000000;stroke-linecap:square;stroke-opacity:0.7;stroke-width:1.2;"/>
   </g>
   <g id="line2d_7">
    <path clip-path="url(#p3fa105da43)" d="M 281.079274 185.461718 
L 276.766487 183.683935 
L 269.894642 181.104499 
L 260.756802 177.929236 
L 252.578059 175.291826 
L 244.216092 172.825071 
L 237.007168 170.946164 
L 230.409385 169.499379 
L 224.639811 168.510137 
L 220.237255 167.965897 
L 216.068134 167.646273 
L 212.0267 167.54206 
L 207.90346 167.667812 
L 204.237993 167.99356 
L 200.278506 168.586879 
L 197.053222 169.26655 
L 193.616735 170.202137 
L 190.918963 171.111396 
L 188.272062 172.186318 
L 185.887658 173.354448 
L 183.881514 174.534714 
L 181.88636 175.959159 
L 180.172824 177.473078 
L 178.59778 179.235919 
L 177.368865 181.036421 
L 176.414209 182.97652 
L 175.973354 184.326217 
L 175.7687 185.546001 
L 175.807867 186.502859 
L 176.191294 187.437439 
L 176.726261 187.94469 
L 177.886345 188.443636 
L 179.396203 188.710266 
L 181.428183 188.825844 
L 184.92731 188.770235 
L 190.965968 188.403753 
L 221.907451 186.185559 
L 233.545289 185.667588 
L 244.051652 185.400606 
L 255.841146 185.335656 
L 272.254978 185.533876 
L 281.069982 185.536396 
L 281.069982 185.536396 
" style="fill:none;stroke:#000000;stroke-linecap:square;stroke-opacity:0.7;stroke-width:1.2;"/>
   </g>
   <g id="line2d_8">
    <path clip-path="url(#p3fa105da43)" d="M 280.983154 145.746291 
L 271.577255 144.263629 
L 232.661572 137.881795 
L 225.631711 137.044368 
L 218.78782 136.432442 
L 212.715319 136.077438 
L 206.560197 135.92591 
L 201.489896 135.999989 
L 197.305135 136.244161 
L 193.189852 136.705854 
L 189.596217 137.351895 
L 185.987127 138.308333 
L 183.773872 139.095622 
L 180.983114 140.386688 
L 179.227672 141.440217 
L 177.613346 142.676773 
L 176.498283 143.813086 
L 175.821275 144.783041 
L 175.345592 146.317745 
L 175.597737 147.404282 
L 176.215642 148.180655 
L 177.369061 148.958846 
L 179.160603 149.684161 
L 182.170572 150.425218 
L 185.415156 150.921482 
L 188.823948 151.259714 
L 194.390055 151.566503 
L 201.140156 151.670651 
L 207.933833 151.56052 
L 216.070072 151.201137 
L 225.673181 150.536315 
L 242.885845 149.045469 
L 269.687074 146.757809 
L 280.959292 145.861086 
L 280.959292 145.861086 
" style="fill:none;stroke:#000000;stroke-linecap:square;stroke-opacity:0.7;stroke-width:1.2;"/>
   </g>
   <g id="line2d_9">
    <path clip-path="url(#p3fa105da43)" d="M 281.118509 106.426666 
L 271.832705 103.190257 
L 259.113713 98.99497 
L 250.004287 96.191942 
L 242.672452 94.157827 
L 236.809273 92.765585 
L 231.457724 91.750895 
L 227.37612 91.175983 
L 222.60682 90.745382 
L 218.614543 90.593702 
L 214.027187 90.658928 
L 209.716729 90.955626 
L 205.953915 91.402792 
L 201.648866 92.134642 
L 198.207187 92.898115 
L 194.526033 93.910202 
L 190.637403 95.243973 
L 187.849846 96.419768 
L 185.755794 97.470956 
L 183.531322 98.819196 
L 181.539092 100.358491 
L 180.231948 101.691253 
L 179.164963 103.226266 
L 178.529319 104.815329 
L 178.366635 106.203388 
L 178.475372 107.097976 
L 178.712408 107.828689 
L 179.387155 108.931345 
L 180.5005 110.017291 
L 181.930605 111.013927 
L 183.793901 112.047612 
L 187.340565 113.638248 
L 191.035514 115.00599 
L 195.160668 116.297186 
L 199.059705 117.324245 
L 204.265477 118.409919 
L 208.50089 119.034791 
L 212.277417 119.374855 
L 216.22333 119.493811 
L 220.482978 119.346424 
L 224.681855 118.941238 
L 230.096279 118.109778 
L 236.050741 116.918198 
L 244.060599 115.070198 
L 269.038794 109.153284 
L 281.129236 106.587043 
L 281.129236 106.587043 
" style="fill:none;stroke:#000000;stroke-linecap:square;stroke-opacity:0.7;stroke-width:1.2;"/>
   </g>
   <g id="line2d_10">
    <path clip-path="url(#p3fa105da43)" d="M 280.905624 66.847554 
L 265.786133 64.811423 
L 254.756694 63.518867 
L 246.982261 62.794441 
L 239.55361 62.32001 
L 231.698145 62.087458 
L 224.519515 62.096705 
L 215.699122 62.322974 
L 204.847664 62.821016 
L 196.614208 63.395701 
L 191.115046 63.971851 
L 186.681624 64.622521 
L 183.316798 65.286197 
L 180.262674 66.123008 
L 178.697176 66.798539 
L 178.20075 67.204557 
L 178.079356 67.617667 
L 178.283293 67.983266 
L 178.743553 68.34978 
L 179.569904 68.783234 
L 180.213641 69.049198 
L 183.656685 70.070467 
L 187.399184 70.813042 
L 191.891244 71.427316 
L 197.34707 71.909303 
L 203.818459 72.224425 
L 209.969229 72.326532 
L 217.617091 72.214612 
L 225.035713 71.86123 
L 233.682049 71.180699 
L 245.046361 70.017209 
L 262.871945 68.188807 
L 272.303298 67.437643 
L 280.929122 66.974285 
L 280.929122 66.974285 
" style="fill:none;stroke:#000000;stroke-linecap:square;stroke-opacity:0.7;stroke-width:1.2;"/>
   </g>
   <g id="line2d_11">
    <path clip-path="url(#p3fa105da43)" d="M 412.376802 224.653377 
L 405.591529 222.773323 
L 396.385393 220.449 
L 387.574207 218.422162 
L 378.383502 216.550861 
L 371.254339 215.317945 
L 364.655155 214.385581 
L 357.893992 213.674779 
L 352.807736 213.330587 
L 347.961033 213.182489 
L 342.730391 213.255249 
L 338.44983 213.524142 
L 333.981511 214.036131 
L 329.65139 214.790694 
L 326.084571 215.635631 
L 323.203752 216.494372 
L 319.674773 217.816506 
L 317.396704 218.877186 
L 315.222731 220.10272 
L 313.581991 221.229131 
L 312.043697 222.548649 
L 310.982693 223.775989 
L 310.555616 224.523342 
L 310.459339 225.15235 
L 310.635987 225.390932 
L 311.237757 225.561413 
L 312.454734 225.61923 
L 319.145322 225.574124 
L 330.429873 225.246573 
L 367.281109 223.93538 
L 379.084716 223.881192 
L 392.128482 224.059219 
L 406.70536 224.494752 
L 412.382714 224.714037 
L 412.382714 224.714037 
" style="fill:none;stroke:#000000;stroke-linecap:square;stroke-opacity:0.7;stroke-width:1.2;"/>
   </g>
   <g id="line2d_12">
    <path clip-path="url(#p3fa105da43)" d="M 412.473599 185.093716 
L 387.819526 178.958424 
L 378.988897 177.01924 
L 373.06884 175.921381 
L 367.080619 175.047383 
L 361.81582 174.50809 
L 356.557321 174.193748 
L 350.974448 174.105527 
L 345.558143 174.2628 
L 340.544367 174.628432 
L 335.835985 175.175928 
L 331.3152 175.903597 
L 327.0604 176.791138 
L 323.544353 177.697794 
L 319.680454 178.919915 
L 316.677524 180.089476 
L 314.527987 181.09905 
L 312.698469 182.136423 
L 311.330342 183.10024 
L 310.346822 184.015445 
L 309.818567 184.775449 
L 309.663259 185.452875 
L 309.811565 185.935221 
L 310.102736 186.299785 
L 310.990793 186.920701 
L 312.274784 187.497707 
L 313.782146 188.001083 
L 316.278869 188.630251 
L 319.428831 189.209845 
L 324.171456 189.799715 
L 329.329026 190.175764 
L 334.591611 190.343408 
L 340.248215 190.316495 
L 346.319681 190.067413 
L 352.809523 189.570486 
L 360.728907 188.717314 
L 385.099608 185.896134 
L 392.608115 185.3349 
L 398.777785 185.066158 
L 404.73452 184.997799 
L 410.640671 185.126945 
L 412.471549 185.206429 
L 412.471549 185.206429 
" style="fill:none;stroke:#000000;stroke-linecap:square;stroke-opacity:0.7;stroke-width:1.2;"/>
   </g>
   <g id="line2d_13">
    <path clip-path="url(#p3fa105da43)" d="M 412.455975 145.872235 
L 403.53423 144.62621 
L 370.928393 139.834699 
L 364.111396 139.150968 
L 357.479396 138.698618 
L 351.073163 138.467624 
L 343.868624 138.456867 
L 337.879228 138.671975 
L 332.842273 139.041432 
L 328.043978 139.586955 
L 323.243717 140.363312 
L 319.352689 141.209864 
L 316.53558 141.992615 
L 313.782179 142.979965 
L 312.410897 143.619651 
L 311.106974 144.438234 
L 310.37191 145.186941 
L 310.124677 145.776618 
L 310.14518 146.226592 
L 310.376755 146.714238 
L 310.937315 147.297349 
L 311.963279 147.971499 
L 313.2813 148.596279 
L 315.83909 149.484328 
L 318.349149 150.130815 
L 321.43882 150.736999 
L 325.485219 151.313036 
L 329.893345 151.740523 
L 336.20353 152.094228 
L 342.859614 152.223095 
L 350.459285 152.125851 
L 358.461945 151.778331 
L 366.705695 151.192009 
L 377.456148 150.165298 
L 392.67557 148.438455 
L 412.450959 145.983864 
L 412.450959 145.983864 
" style="fill:none;stroke:#000000;stroke-linecap:square;stroke-opacity:0.7;stroke-width:1.2;"/>
   </g>
   <g id="line2d_14">
    <path clip-path="url(#p3fa105da43)" d="M 412.422577 106.666277 
L 406.250743 105.896158 
L 397.419018 104.538822 
L 387.76545 102.806191 
L 376.488843 100.537527 
L 358.177141 96.787054 
L 351.526298 95.678716 
L 346.297527 95.04002 
L 342.210814 94.741138 
L 338.335162 94.657611 
L 334.158007 94.816383 
L 330.765797 95.153366 
L 326.853047 95.795916 
L 323.659958 96.546411 
L 320.109516 97.662691 
L 317.104951 98.891998 
L 314.222323 100.391392 
L 312.448093 101.525416 
L 310.328515 103.210065 
L 309.224363 104.359367 
L 308.610082 105.236204 
L 308.344855 105.893068 
L 308.370758 106.503685 
L 308.782556 106.987788 
L 309.587487 107.347489 
L 310.966192 107.65068 
L 314.413534 108.011722 
L 319.499284 108.266497 
L 332.05281 108.582269 
L 346.737934 109.01936 
L 363.896059 109.574167 
L 371.386672 109.578909 
L 379.856966 109.355058 
L 388.733381 108.895045 
L 397.769584 108.221345 
L 407.454456 107.26562 
L 412.421523 106.666177 
L 412.421523 106.666177 
" style="fill:none;stroke:#000000;stroke-linecap:square;stroke-opacity:0.7;stroke-width:1.2;"/>
   </g>
   <g id="line2d_15">
    <path clip-path="url(#p3fa105da43)" d="M 412.395974 67.063103 
L 401.242886 65.422799 
L 389.175127 63.868516 
L 379.866822 62.874005 
L 371.671821 62.210772 
L 364.597518 61.825808 
L 356.373577 61.589493 
L 347.429023 61.563641 
L 339.271259 61.757024 
L 332.218325 62.153119 
L 326.600792 62.695561 
L 321.586594 63.418359 
L 317.771328 64.17479 
L 315.199253 64.829846 
L 312.422297 65.764323 
L 311.20035 66.345314 
L 310.493321 66.876731 
L 310.303474 67.285325 
L 310.366758 67.524802 
L 310.539481 67.736827 
L 311.408183 68.246163 
L 311.780759 68.394719 
L 314.139464 69.064197 
L 317.637995 69.708633 
L 322.015966 70.251282 
L 328.139488 70.731244 
L 334.958207 71.028836 
L 343.904634 71.186986 
L 353.80678 71.145969 
L 364.761701 70.856448 
L 376.128214 70.300923 
L 388.174312 69.477467 
L 400.793642 68.390231 
L 411.470821 67.257566 
L 412.389423 67.147773 
L 412.389423 67.147773 
" style="fill:none;stroke:#000000;stroke-linecap:square;stroke-opacity:0.7;stroke-width:1.2;"/>
   </g>
   <g id="line2d_16">
    <path clip-path="url(#p3fa105da43)" d="M 543.908808 224.945709 
L 532.459072 222.747817 
L 520.617377 220.688354 
L 511.083566 219.246752 
L 502.233821 218.15132 
L 494.88235 217.452333 
L 487.224231 216.948352 
L 480.591837 216.718082 
L 473.945856 216.715317 
L 468.232198 216.9399 
L 463.360251 217.340272 
L 459.40794 217.838273 
L 454.946372 218.626617 
L 450.925909 219.58999 
L 447.304197 220.727982 
L 444.566267 221.834549 
L 442.503122 222.905527 
L 441.293793 223.727633 
L 440.333877 224.736782 
L 440.152531 225.326573 
L 440.259036 225.704604 
L 440.369535 225.860502 
L 440.777383 226.199082 
L 441.990179 226.716098 
L 443.649093 227.113067 
L 447.59739 227.617498 
L 452.371431 227.887888 
L 458.77102 227.982726 
L 472.146769 227.841386 
L 482.158976 227.830071 
L 506.506188 227.972709 
L 516.126426 227.699729 
L 524.134548 227.256 
L 531.394946 226.658579 
L 538.310935 225.882742 
L 543.874933 225.079904 
L 543.874933 225.079904 
" style="fill:none;stroke:#000000;stroke-linecap:square;stroke-opacity:0.7;stroke-width:1.2;"/>
   </g>
   <g id="line2d_17">
    <path clip-path="url(#p3fa105da43)" d="M 543.852231 185.261448 
L 518.279494 181.253359 
L 508.811432 179.986099 
L 501.800251 179.237513 
L 494.323506 178.677737 
L 487.17788 178.387969 
L 479.640335 178.335883 
L 472.97822 178.514652 
L 466.490351 178.930542 
L 460.433335 179.602577 
L 456.113762 180.306882 
L 452.519169 181.083771 
L 449.13788 182.028628 
L 446.676353 182.902398 
L 444.508217 183.883828 
L 442.994299 184.845894 
L 442.600169 185.274554 
L 442.537889 185.714709 
L 442.77094 185.970888 
L 443.228667 186.199023 
L 444.008679 186.430326 
L 446.275101 186.813797 
L 450.117748 187.152356 
L 455.35874 187.357881 
L 463.644794 187.420685 
L 482.142079 187.266026 
L 495.713697 186.970974 
L 512.958111 186.331524 
L 536.087879 185.511639 
L 543.856131 185.340221 
L 543.856131 185.340221 
" style="fill:none;stroke:#000000;stroke-linecap:square;stroke-opacity:0.7;stroke-width:1.2;"/>
   </g>
   <g id="line2d_18">
    <path clip-path="url(#p3fa105da43)" d="M 543.891416 145.971643 
L 535.218933 144.267225 
L 526.481184 142.762503 
L 518.412805 141.590157 
L 510.556007 140.69977 
L 503.973494 140.16372 
L 495.800105 139.74345 
L 487.057124 139.540919 
L 478.018074 139.56385 
L 470.290697 139.801332 
L 464.954465 140.138669 
L 460.045527 140.636435 
L 455.160385 141.382357 
L 451.720221 142.109381 
L 448.875686 142.879155 
L 446.10755 143.834244 
L 444.461842 144.551956 
L 442.991235 145.394583 
L 442.416759 145.934681 
L 442.32984 146.236154 
L 442.52753 146.539025 
L 442.893638 146.755201 
L 444.54881 147.262246 
L 446.796213 147.685808 
L 450.740051 148.19717 
L 457.050724 148.727811 
L 464.024073 149.083313 
L 472.785432 149.319817 
L 483.124549 149.395927 
L 493.697418 149.268857 
L 504.884121 148.90478 
L 517.367876 148.260447 
L 529.491015 147.414768 
L 539.990845 146.459112 
L 543.882771 146.029484 
L 543.882771 146.029484 
" style="fill:none;stroke:#000000;stroke-linecap:square;stroke-opacity:0.7;stroke-width:1.2;"/>
   </g>
   <g id="line2d_19">
    <path clip-path="url(#p3fa105da43)" d="M 543.78645 106.435841 
L 534.039346 104.394174 
L 520.452022 101.783979 
L 508.606866 99.733677 
L 499.322486 98.331477 
L 490.51208 97.231907 
L 482.857526 96.518895 
L 476.23046 96.143994 
L 470.561527 96.061076 
L 465.645172 96.221237 
L 461.160011 96.608462 
L 456.694021 97.288616 
L 452.947155 98.157416 
L 450.636419 98.870769 
L 448.111284 99.851188 
L 445.851724 100.955957 
L 443.422454 102.460235 
L 441.295036 104.140499 
L 439.662431 105.751657 
L 438.607634 107.074969 
L 438.463825 107.494386 
L 438.609071 107.630946 
L 439.105947 107.686717 
L 440.578673 107.58502 
L 444.19002 107.086958 
L 452.064305 105.703441 
L 460.436563 104.295307 
L 466.544569 103.526513 
L 470.520326 103.193053 
L 476.673071 102.93858 
L 483.534439 102.949967 
L 492.206872 103.23404 
L 502.890183 103.797508 
L 524.398599 105.200005 
L 543.770249 106.392093 
L 543.770249 106.392093 
" style="fill:none;stroke:#000000;stroke-linecap:square;stroke-opacity:0.7;stroke-width:1.2;"/>
   </g>
   <g id="line2d_20">
    <path clip-path="url(#p3fa105da43)" d="M 543.904978 66.829686 
L 529.58237 63.430301 
L 518.220233 60.934711 
L 509.339667 59.197782 
L 501.439522 57.884281 
L 494.881918 56.997998 
L 488.072083 56.305336 
L 482.5719 55.945583 
L 477.123432 55.803723 
L 471.951454 55.909225 
L 467.538104 56.219688 
L 464.180792 56.613378 
L 460.066452 57.311055 
L 456.43561 58.159537 
L 452.491108 59.392327 
L 449.481783 60.62131 
L 447.667505 61.527234 
L 445.709142 62.702006 
L 444.248591 63.775983 
L 443.067952 64.858845 
L 442.052883 66.190999 
L 441.809363 66.923757 
L 441.944399 67.387661 
L 442.287443 67.629374 
L 442.884232 67.793626 
L 444.742788 67.945089 
L 449.563049 67.994312 
L 467.908036 67.857632 
L 487.345875 67.544812 
L 520.329288 66.842614 
L 535.073722 66.836211 
L 543.87783 66.941723 
L 543.87783 66.941723 
" style="fill:none;stroke:#000000;stroke-linecap:square;stroke-opacity:0.7;stroke-width:1.2;"/>
   </g>
   <g id="line2d_21">
    <path clip-path="url(#p3fa105da43)" d="M 675.418526 224.701888 
L 669.390249 224.013199 
L 659.422409 222.653384 
L 625.420253 217.824992 
L 618.810702 217.217191 
L 612.560072 216.838979 
L 605.776501 216.64932 
L 598.948022 216.703556 
L 594.094113 216.924064 
L 589.619494 217.308896 
L 585.346037 217.898605 
L 582.020031 218.560463 
L 579.008875 219.368771 
L 576.081233 220.431024 
L 574.448734 221.207088 
L 573.047861 222.052399 
L 571.735825 223.146114 
L 571.399761 223.529578 
L 570.79065 224.607165 
L 570.662138 225.36231 
L 570.744949 225.973277 
L 571.045559 226.656799 
L 571.573111 227.332973 
L 572.162415 227.864856 
L 573.302859 228.624295 
L 574.764475 229.342205 
L 577.080949 230.174193 
L 579.35801 230.771209 
L 582.568243 231.370305 
L 586.31325 231.818092 
L 590.78966 232.10378 
L 596.106643 232.196277 
L 602.754716 232.05032 
L 610.039309 231.641435 
L 616.738886 231.076631 
L 626.34482 230.030022 
L 662.733459 225.746164 
L 672.828572 224.928829 
L 675.412564 224.761107 
L 675.412564 224.761107 
" style="fill:none;stroke:#000000;stroke-linecap:square;stroke-opacity:0.7;stroke-width:1.2;"/>
   </g>
   <g id="line2d_22">
    <path clip-path="url(#p3fa105da43)" d="M 675.288356 185.188769 
L 669.962672 183.767253 
L 662.312146 181.979776 
L 654.980487 180.480414 
L 647.082059 179.092839 
L 639.766105 178.03364 
L 632.025534 177.161166 
L 624.797355 176.572906 
L 617.786952 176.204493 
L 610.79422 176.044882 
L 604.045402 176.125684 
L 598.269254 176.43065 
L 593.392505 176.906909 
L 589.841209 177.411593 
L 585.68277 178.214894 
L 582.877303 178.918981 
L 579.953067 179.833013 
L 577.414903 180.822622 
L 575.254006 181.864473 
L 573.575057 182.857975 
L 571.991346 184.035843 
L 570.870139 185.177142 
L 570.485082 185.859447 
L 570.543288 186.2295 
L 570.739886 186.360477 
L 571.252823 186.477938 
L 573.18126 186.541982 
L 576.738471 186.383084 
L 582.066783 185.903084 
L 603.376096 183.698398 
L 610.122034 183.316961 
L 617.400975 183.131261 
L 626.71928 183.151938 
L 637.553019 183.414342 
L 651.28272 183.973649 
L 675.27408 185.193467 
L 675.27408 185.193467 
" style="fill:none;stroke:#000000;stroke-linecap:square;stroke-opacity:0.7;stroke-width:1.2;"/>
   </g>
   <g id="line2d_23">
    <path clip-path="url(#p3fa105da43)" d="M 675.377585 145.751612 
L 666.787047 143.687637 
L 656.748078 141.497156 
L 647.451974 139.67625 
L 638.451815 138.151478 
L 630.088117 136.987725 
L 622.781932 136.190186 
L 614.897131 135.57566 
L 608.059729 135.27859 
L 601.818929 135.244494 
L 596.719949 135.4336 
L 592.352681 135.799474 
L 589.089141 136.232488 
L 585.327537 136.953438 
L 582.84203 137.596859 
L 580.393688 138.396954 
L 578.07001 139.348865 
L 575.778337 140.527932 
L 573.750616 141.849924 
L 571.881787 143.456249 
L 570.919869 144.614349 
L 570.469244 145.485331 
L 570.402755 146.225365 
L 570.553405 146.559393 
L 571.001806 146.940165 
L 571.997614 147.296935 
L 572.845816 147.45253 
L 575.791307 147.663918 
L 580.083952 147.644082 
L 588.818614 147.270596 
L 602.237688 146.709901 
L 612.163232 146.537399 
L 670.972698 145.949265 
L 675.350231 145.858698 
L 675.350231 145.858698 
" style="fill:none;stroke:#000000;stroke-linecap:square;stroke-opacity:0.7;stroke-width:1.2;"/>
   </g>
   <g id="line2d_24">
    <path clip-path="url(#p3fa105da43)" d="M 675.490909 106.249745 
L 652.398401 100.139712 
L 644.011343 98.186211 
L 638.08511 97.011239 
L 633.232138 96.217173 
L 627.023627 95.44973 
L 621.808314 95.026011 
L 616.604333 94.801704 
L 611.238032 94.777603 
L 605.808761 94.975573 
L 600.431877 95.411713 
L 595.221604 96.092353 
L 591.186108 96.820977 
L 587.639204 97.631537 
L 584.262436 98.580128 
L 580.712057 99.813215 
L 578.392725 100.793663 
L 576.083586 101.971736 
L 574.326686 103.086985 
L 572.637308 104.55994 
L 571.924574 105.627561 
L 571.760117 106.256297 
L 571.841887 106.89711 
L 572.053934 107.306274 
L 572.660484 107.926179 
L 574.062615 108.731461 
L 575.287665 109.210454 
L 578.352118 110.05972 
L 582.332187 110.812245 
L 587.172561 111.458722 
L 593.260245 112.027188 
L 600.55358 112.465261 
L 608.216981 112.684408 
L 615.369814 112.651291 
L 621.304938 112.425403 
L 627.805444 111.962677 
L 635.618379 111.146935 
L 646.088404 109.779726 
L 664.413106 107.348539 
L 671.674815 106.600943 
L 675.478188 106.315042 
L 675.478188 106.315042 
" style="fill:none;stroke:#000000;stroke-linecap:square;stroke-opacity:0.7;stroke-width:1.2;"/>
   </g>
   <g id="line2d_25">
    <path clip-path="url(#p3fa105da43)" d="M 675.418232 66.844476 
L 646.769806 61.055063 
L 639.243149 59.786575 
L 633.675971 59.014048 
L 626.705594 58.29993 
L 620.730351 57.924711 
L 614.699942 57.752108 
L 608.251605 57.768572 
L 600.754327 58.025661 
L 594.229646 58.478762 
L 589.067144 59.051716 
L 584.562897 59.795682 
L 581.897007 60.394952 
L 579.430529 61.096693 
L 577.174657 61.905893 
L 575.142941 62.827853 
L 573.441273 63.816657 
L 572.284021 64.683307 
L 571.495254 65.451388 
L 570.849078 66.353416 
L 570.716387 66.6237 
L 570.491289 67.593358 
L 570.626092 68.364442 
L 571.210602 69.266915 
L 572.075382 69.978817 
L 574.378686 71.071548 
L 576.685726 71.731093 
L 580.509655 72.389861 
L 583.792943 72.697549 
L 588.731118 72.87742 
L 594.439576 72.808551 
L 601.58027 72.465519 
L 610.919447 71.766519 
L 627.685205 70.222228 
L 645.003343 68.719511 
L 658.912657 67.754336 
L 672.779594 67.034211 
L 675.407899 66.923113 
L 675.407899 66.923113 
" style="fill:none;stroke:#000000;stroke-linecap:square;stroke-opacity:0.7;stroke-width:1.2;"/>
   </g>
  </g>
 </g>
 <defs>
  <clipPath id="p3fa105da43">
   <rect height="262.08" width="694.08" x="12.96" y="12.96"/>
  </clipPath>
 </defs>
</svg>
