<?xml version="1.0" encoding="utf-8" standalone="no"?>
<!DOCTYPE svg PUBLIC "-//W3C//DTD SVG 1.1//EN"
  "http://www.w3.org/Graphics/SVG/1.1/DTD/svg11.dtd">
<!-- Created with matplotlib (https://matplotlib.org/) -->
<svg height="288pt" version="1.1" viewBox="0 0 720 288" width="720pt" xmlns="http://www.w3.org/2000/svg" xmlns:xlink="http://www.w3.org/1999/xlink">
 <defs>
  <style type="text/css">
*{stroke-linecap:butt;stroke-linejoin:round;}
  </style>
 </defs>
 <g id="figure_1">
  <g id="patch_1">
   <path d="M 0 288 
L 720 288 
L 720 0 
L 0 0 
z
" style="fill:#ffffff;"/>
  </g>
  <g id="axes_1">
   <g id="line2d_1">
    <path clip-path="url(#pc602d3c7f8)" d="M 92.832042 230.849391 
L 91.481575 230.625397 
L 84.956571 229.222037 
L 77.052403 227.570808 
L 71.882558 226.749014 
L 68.027204 226.380669 
L 64.692047 226.283078 
L 61.261233 226.436265 
L 58.349954 226.80564 
L 55.750419 227.370451 
L 53.387441 228.148523 
L 51.730703 228.9088 
L 50.175882 229.831453 
L 48.596922 230.817646 
L 47.771991 231.083931 
L 46.770623 231.068505 
L 46.126006 231.027878 
L 45.536028 231.284473 
L 45.335783 231.850773 
L 45.404784 232.63724 
L 45.696469 233.274208 
L 46.338808 233.895095 
L 47.198525 234.366918 
L 48.445017 234.842907 
L 50.473996 235.425045 
L 53.532714 236.059703 
L 55.992853 236.348475 
L 58.136689 236.374102 
L 60.073408 236.174535 
L 62.105361 235.75235 
L 66.182545 234.573899 
L 70.44227 233.409018 
L 73.921234 232.701438 
L 77.650041 232.184769 
L 82.626759 231.756748 
L 92.497145 231.212478 
L 92.497145 231.212478 
" style="fill:none;stroke:#000000;stroke-linecap:square;stroke-opacity:0.7;stroke-width:1.2;"/>
   </g>
   <g id="line2d_2">
    <path clip-path="url(#pc602d3c7f8)" d="M 92.949586 187.305965 
L 91.038299 186.868331 
L 82.438036 184.514544 
L 76.565317 183.062156 
L 72.308247 182.248364 
L 68.872531 181.811226 
L 65.344263 181.611543 
L 62.340868 181.662818 
L 59.432846 181.921966 
L 56.83781 182.34276 
L 54.346094 182.936373 
L 52.022301 183.686569 
L 49.586903 184.724583 
L 47.503106 185.883113 
L 45.844163 187.108878 
L 45.193262 187.805234 
L 44.919065 188.297389 
L 44.847443 188.874292 
L 45.099783 189.555887 
L 45.735117 190.358484 
L 46.126356 190.651762 
L 46.693703 190.53016 
L 47.513589 190.314158 
L 48.676537 190.244103 
L 51.465626 190.385554 
L 55.998402 190.622678 
L 58.788136 190.496393 
L 61.744246 190.111895 
L 70.776827 188.776073 
L 75.39523 188.389905 
L 82.108687 188.091354 
L 92.593899 187.734749 
L 92.593899 187.734749 
" style="fill:none;stroke:#000000;stroke-linecap:square;stroke-opacity:0.7;stroke-width:1.2;"/>
   </g>
   <g id="line2d_3">
    <path clip-path="url(#pc602d3c7f8)" d="M 92.847462 143.834101 
L 90.04637 143.403423 
L 73.934171 140.780874 
L 69.423475 140.280818 
L 65.192986 140.024642 
L 61.605217 140.021774 
L 58.660504 140.201052 
L 55.481958 140.619866 
L 52.869748 141.181546 
L 50.54562 141.887545 
L 48.776674 142.579753 
L 46.586862 143.653006 
L 45.251685 144.507408 
L 44.690818 145.121401 
L 44.602377 145.737215 
L 44.802591 146.264069 
L 45.247057 146.884456 
L 45.597966 147.157564 
L 46.235719 147.170516 
L 47.656344 147.061012 
L 49.572732 147.199942 
L 59.304508 148.34643 
L 61.777551 148.243469 
L 64.257291 147.95934 
L 84.246349 145.123507 
L 92.325595 144.210044 
L 92.325595 144.210044 
" style="fill:none;stroke:#000000;stroke-linecap:square;stroke-opacity:0.7;stroke-width:1.2;"/>
   </g>
   <g id="line2d_4">
    <path clip-path="url(#pc602d3c7f8)" d="M 92.806648 99.38837 
L 90.903384 99.006022 
L 82.683105 96.97898 
L 77.165473 95.744473 
L 72.762271 94.984191 
L 69.294921 94.599891 
L 65.710718 94.451786 
L 62.810369 94.539991 
L 59.550978 94.877423 
L 56.760409 95.379869 
L 54.054714 96.073951 
L 51.580349 96.914755 
L 49.299533 97.906166 
L 46.935294 99.248419 
L 45.788562 100.105913 
L 44.877567 101.063118 
L 44.549332 101.717485 
L 44.509329 102.146257 
L 44.608409 102.506736 
L 45.125906 103.137579 
L 45.950996 103.66645 
L 46.871356 104.047559 
L 47.938126 104.267688 
L 48.788592 104.151895 
L 49.963234 103.536427 
L 51.144024 103.396596 
L 53.400744 103.658114 
L 56.404425 104.075956 
L 57.859521 104.153205 
L 59.66153 104.048526 
L 61.446592 103.689126 
L 63.592578 102.979433 
L 68.335544 101.26408 
L 71.074382 100.57469 
L 73.913163 100.117393 
L 77.054613 99.830977 
L 81.895187 99.649883 
L 89.662588 99.621193 
L 92.377612 99.615759 
L 92.377612 99.615759 
" style="fill:none;stroke:#000000;stroke-linecap:square;stroke-opacity:0.7;stroke-width:1.2;"/>
   </g>
   <g id="line2d_5">
    <path clip-path="url(#pc602d3c7f8)" d="M 92.914743 56.057577 
L 90.1891 55.617889 
L 74.092156 52.792202 
L 69.856877 52.343396 
L 65.925836 52.158746 
L 62.173706 52.232416 
L 58.719074 52.538905 
L 55.418122 53.066151 
L 52.426409 53.771047 
L 49.565782 54.697544 
L 47.368506 55.650588 
L 46.218661 56.321 
L 45.548436 57.005849 
L 45.484451 57.346818 
L 45.613213 57.74117 
L 45.981676 58.242288 
L 46.651158 58.854629 
L 47.249153 59.196893 
L 47.743663 59.24109 
L 48.183402 59.044277 
L 49.271232 58.509417 
L 50.846158 58.149305 
L 53.898717 57.871301 
L 58.441015 57.45442 
L 63.543087 56.665212 
L 67.822451 56.122542 
L 71.718968 55.879461 
L 76.203499 55.844793 
L 83.378139 56.060298 
L 92.042496 56.304272 
L 92.478566 56.298487 
L 92.478566 56.298487 
" style="fill:none;stroke:#000000;stroke-linecap:square;stroke-opacity:0.7;stroke-width:1.2;"/>
   </g>
   <g id="line2d_6">
    <path clip-path="url(#pc602d3c7f8)" d="M 238.400258 230.698332 
L 235.945594 230.278392 
L 219.740231 227.218615 
L 215.747169 226.747928 
L 211.748787 226.525356 
L 208.396866 226.578402 
L 205.271031 226.855942 
L 202.728832 227.264637 
L 199.843964 227.957037 
L 197.003339 228.91838 
L 194.517918 230.017023 
L 191.674069 231.542035 
L 190.674051 232.221329 
L 190.318541 232.75143 
L 190.393563 233.28543 
L 190.624917 233.666442 
L 191.075105 234.041819 
L 191.56103 234.166256 
L 193.145366 234.442765 
L 197.347844 235.513396 
L 200.908377 236.374898 
L 203.416563 236.752133 
L 205.157782 236.791422 
L 206.871713 236.574058 
L 208.161413 236.229742 
L 210.564745 235.295457 
L 214.534779 233.676998 
L 217.42216 232.80101 
L 220.278631 232.200877 
L 223.624456 231.743798 
L 228.118058 231.376939 
L 235.239083 231.04358 
L 237.934948 230.937794 
L 237.934948 230.937794 
" style="fill:none;stroke:#000000;stroke-linecap:square;stroke-opacity:0.7;stroke-width:1.2;"/>
   </g>
   <g id="line2d_7">
    <path clip-path="url(#pc602d3c7f8)" d="M 238.321185 186.693055 
L 236.062403 186.335731 
L 218.181176 183.144533 
L 214.133098 182.77275 
L 210.191933 182.657322 
L 206.902355 182.777631 
L 203.811638 183.097703 
L 200.857491 183.63076 
L 198.278688 184.332534 
L 196.170773 185.128837 
L 193.559497 186.497996 
L 191.512559 187.91852 
L 190.554559 188.765512 
L 190.515676 189.010145 
L 190.776887 189.292071 
L 191.485755 189.565514 
L 192.52535 189.593819 
L 194.495281 189.76437 
L 201.324034 190.792255 
L 203.403113 190.862823 
L 205.186822 190.726335 
L 207.319621 190.280392 
L 209.479967 189.567799 
L 214.038718 187.953774 
L 216.468346 187.344254 
L 219.000828 186.939356 
L 221.751955 186.711092 
L 225.928773 186.629158 
L 231.268884 186.739904 
L 237.925589 186.923671 
L 237.925589 186.923671 
" style="fill:none;stroke:#000000;stroke-linecap:square;stroke-opacity:0.7;stroke-width:1.2;"/>
   </g>
   <g id="line2d_8">
    <path clip-path="url(#pc602d3c7f8)" d="M 238.55428 143.328491 
L 237.254862 143.058007 
L 229.600604 141.061046 
L 223.185866 139.473598 
L 219.120486 138.669813 
L 216.248532 138.264776 
L 214.520459 138.104565 
L 210.572422 138.018594 
L 207.70486 138.233656 
L 205.090016 138.662791 
L 203.440342 139.064465 
L 200.73891 139.98797 
L 198.488325 141.0699 
L 196.10771 142.35798 
L 195.208715 142.607552 
L 194.308697 142.637165 
L 191.459487 142.478467 
L 190.31892 142.932731 
L 189.99274 143.261487 
L 189.684419 143.829115 
L 189.552556 144.574476 
L 189.579146 144.974649 
L 189.73201 145.546586 
L 190.200211 146.336096 
L 191.129951 147.154673 
L 192.259963 147.746212 
L 193.787764 148.259833 
L 196.636324 148.806155 
L 198.999113 148.995282 
L 201.590688 148.915206 
L 203.549236 148.622789 
L 206.027857 148.013309 
L 213.880383 145.867696 
L 217.528154 145.18277 
L 221.566377 144.67066 
L 225.427223 144.348969 
L 234.85495 143.84744 
L 238.238591 143.663935 
L 238.238591 143.663935 
" style="fill:none;stroke:#000000;stroke-linecap:square;stroke-opacity:0.7;stroke-width:1.2;"/>
   </g>
   <g id="line2d_9">
    <path clip-path="url(#pc602d3c7f8)" d="M 238.347849 99.948522 
L 235.604716 99.547248 
L 218.11394 96.70771 
L 213.941389 96.332052 
L 209.890163 96.190911 
L 206.023567 96.295117 
L 203.023321 96.561167 
L 200.092828 97.013256 
L 197.593814 97.598763 
L 195.365302 98.345902 
L 193.884504 99.014983 
L 192.151486 100.070602 
L 191.166366 100.952145 
L 190.945255 101.448586 
L 191.055023 101.789335 
L 191.436326 102.147913 
L 191.958211 102.380189 
L 192.498908 102.390758 
L 194.537176 101.847854 
L 196.360254 101.887002 
L 202.908326 102.341876 
L 205.629133 102.251658 
L 208.491646 101.95123 
L 218.14071 100.767956 
L 222.632972 100.510771 
L 229.940444 100.36213 
L 238.024168 100.226946 
L 238.024168 100.226946 
" style="fill:none;stroke:#000000;stroke-linecap:square;stroke-opacity:0.7;stroke-width:1.2;"/>
   </g>
   <g id="line2d_10">
    <path clip-path="url(#pc602d3c7f8)" d="M 238.505388 56.311724 
L 235.692906 55.895189 
L 217.773232 52.952852 
L 213.632813 52.543388 
L 209.896629 52.368752 
L 206.630189 52.413083 
L 203.380406 52.6994 
L 200.745273 53.182867 
L 198.836269 53.744598 
L 197.178698 54.453889 
L 195.706841 55.334804 
L 194.286931 56.282845 
L 193.650046 56.452468 
L 192.679462 56.279591 
L 191.742086 56.107667 
L 191.434177 56.159813 
L 191.050047 56.438165 
L 190.877488 57.24988 
L 191.02135 57.67392 
L 191.756603 58.508552 
L 193.034099 59.272624 
L 194.77249 59.960732 
L 197.898609 60.767841 
L 200.88827 61.148911 
L 202.779665 61.170675 
L 204.887787 60.971107 
L 207.177911 60.50886 
L 210.615724 59.537401 
L 215.052438 58.30617 
L 218.346036 57.639116 
L 221.614679 57.215325 
L 225.307592 56.950788 
L 231.535959 56.756781 
L 238.125956 56.603372 
L 238.125956 56.603372 
" style="fill:none;stroke:#000000;stroke-linecap:square;stroke-opacity:0.7;stroke-width:1.2;"/>
   </g>
   <g id="line2d_11">
    <path clip-path="url(#pc602d3c7f8)" d="M 384.119761 231.34589 
L 380.847554 230.819332 
L 367.118523 228.559209 
L 362.268086 227.966742 
L 358.312428 227.664938 
L 354.459461 227.597229 
L 352.167231 227.693482 
L 349.395225 227.979889 
L 346.355423 228.561917 
L 343.963374 229.264958 
L 339.5182 230.751216 
L 338.418527 230.853479 
L 336.17484 230.948001 
L 335.393451 231.308936 
L 334.91655 231.865969 
L 334.697485 232.401164 
L 334.668553 233.07308 
L 334.981788 233.679786 
L 335.657442 234.176893 
L 336.723238 234.612677 
L 338.909901 235.180315 
L 342.538407 235.824083 
L 346.237101 236.217284 
L 348.321452 236.264448 
L 350.512038 236.126179 
L 352.788132 235.786302 
L 365.909583 233.330045 
L 371.173211 232.763973 
L 383.616685 231.723368 
L 383.616685 231.723368 
" style="fill:none;stroke:#000000;stroke-linecap:square;stroke-opacity:0.7;stroke-width:1.2;"/>
   </g>
   <g id="line2d_12">
    <path clip-path="url(#pc602d3c7f8)" d="M 384.202007 187.083047 
L 381.18502 186.741499 
L 362.445632 184.430462 
L 357.646033 184.095105 
L 353.347252 184.011382 
L 349.643929 184.175509 
L 347.212777 184.449124 
L 344.810569 184.898909 
L 342.682687 185.500886 
L 340.626187 186.328107 
L 338.658072 187.384309 
L 336.751751 188.590136 
L 336.687975 189.075893 
L 336.774771 189.278549 
L 337.219539 189.443961 
L 339.841851 189.788484 
L 344.101237 190.159085 
L 346.713829 190.187167 
L 349.581909 189.960993 
L 352.28622 189.52157 
L 360.520361 188.022395 
L 364.34615 187.628349 
L 368.959909 187.412342 
L 375.442587 187.365478 
L 383.704249 187.341865 
L 383.704249 187.341865 
" style="fill:none;stroke:#000000;stroke-linecap:square;stroke-opacity:0.7;stroke-width:1.2;"/>
   </g>
   <g id="line2d_13">
    <path clip-path="url(#pc602d3c7f8)" d="M 384.093874 143.412241 
L 380.805337 142.9622 
L 365.877705 140.794318 
L 361.30664 140.368006 
L 356.839724 140.189239 
L 353.305135 140.26077 
L 349.637807 140.569612 
L 346.472775 141.062417 
L 343.684735 141.711258 
L 340.847167 142.630961 
L 336.774145 144.30433 
L 335.987408 144.73722 
L 335.863627 144.952896 
L 335.959111 145.376108 
L 336.255788 145.577574 
L 336.9031 145.64393 
L 343.09476 145.586296 
L 347.41141 145.485209 
L 350.46944 145.189203 
L 354.667966 144.513008 
L 358.550191 143.922864 
L 362.294284 143.588272 
L 366.534145 143.472115 
L 371.957971 143.545086 
L 383.62796 143.738272 
L 383.62796 143.738272 
" style="fill:none;stroke:#000000;stroke-linecap:square;stroke-opacity:0.7;stroke-width:1.2;"/>
   </g>
   <g id="line2d_14">
    <path clip-path="url(#pc602d3c7f8)" d="M 384.10047 100.267719 
L 380.155251 99.701393 
L 365.37751 97.52075 
L 359.773848 96.929322 
L 355.173787 96.657333 
L 351.057052 96.642097 
L 347.646037 96.849703 
L 344.715957 97.24959 
L 342.146014 97.840837 
L 340.339479 98.444438 
L 338.129857 99.479754 
L 336.897567 100.272398 
L 336.248376 100.828718 
L 335.873554 101.319945 
L 335.780871 101.55992 
L 335.771627 101.914965 
L 336.074594 102.433044 
L 336.365971 102.513038 
L 336.787323 102.451151 
L 338.413119 102.500651 
L 341.930883 103.093171 
L 345.435511 103.667592 
L 348.417735 103.917979 
L 350.701105 103.888878 
L 353.244142 103.647352 
L 357.727923 102.962592 
L 363.641191 102.133038 
L 368.588969 101.659298 
L 376.748626 101.117381 
L 383.709415 100.657333 
L 383.709415 100.657333 
" style="fill:none;stroke:#000000;stroke-linecap:square;stroke-opacity:0.7;stroke-width:1.2;"/>
   </g>
   <g id="line2d_15">
    <path clip-path="url(#pc602d3c7f8)" d="M 384.245452 55.983908 
L 380.357677 55.571423 
L 364.308027 53.804588 
L 358.961701 53.447879 
L 354.548211 53.383965 
L 351.176865 53.549947 
L 349.174775 53.766133 
L 345.894841 54.366071 
L 343.331288 55.101629 
L 340.755949 56.087626 
L 338.564671 56.902537 
L 336.813867 57.260336 
L 335.506956 57.541357 
L 335.362413 57.769695 
L 335.497237 58.015609 
L 336.035964 58.320329 
L 337.356745 58.631026 
L 340.653467 59.107476 
L 344.703314 59.423053 
L 347.188828 59.380748 
L 349.457153 59.130624 
L 352.046024 58.601322 
L 361.532368 56.311216 
L 364.372053 55.988647 
L 367.848233 55.840392 
L 372.156262 55.892391 
L 383.749236 56.285443 
L 383.749236 56.285443 
" style="fill:none;stroke:#000000;stroke-linecap:square;stroke-opacity:0.7;stroke-width:1.2;"/>
   </g>
   <g id="line2d_16">
    <path clip-path="url(#pc602d3c7f8)" d="M 529.546712 230.947862 
L 525.752555 230.581018 
L 506.06134 228.580488 
L 500.838656 228.294219 
L 497.235145 228.266297 
L 493.837932 228.445007 
L 491.075319 228.817413 
L 488.908193 229.327546 
L 487.277597 229.893822 
L 485.740678 230.619345 
L 484.146171 231.59568 
L 482.777891 232.596621 
L 482.912315 232.737602 
L 484.81437 233.880894 
L 490.041913 235.376539 
L 492.959081 235.977043 
L 495.336908 236.220425 
L 497.098896 236.205945 
L 498.894711 236.005604 
L 501.397845 235.466872 
L 506.155894 234.107632 
L 510.040587 233.117931 
L 513.455393 232.47283 
L 517.415388 231.966968 
L 522.309031 231.570835 
L 529.187737 231.191991 
L 529.187737 231.191991 
" style="fill:none;stroke:#000000;stroke-linecap:square;stroke-opacity:0.7;stroke-width:1.2;"/>
   </g>
   <g id="line2d_17">
    <path clip-path="url(#pc602d3c7f8)" d="M 529.698728 187.049536 
L 527.572539 186.666496 
L 519.132179 184.786293 
L 513.010102 183.532211 
L 508.280254 182.781234 
L 504.304898 182.378201 
L 500.5038 182.238548 
L 497.38117 182.33299 
L 494.364029 182.633065 
L 491.53765 183.141226 
L 489.480911 183.688663 
L 487.269913 184.505364 
L 485.295841 185.522443 
L 483.840744 186.542133 
L 482.65922 187.681075 
L 482.139462 188.42398 
L 481.952666 189.036868 
L 482.079841 189.35769 
L 482.419511 189.516036 
L 483.040878 189.477108 
L 483.624409 189.12932 
L 484.238629 188.605908 
L 485.257569 188.30194 
L 487.744266 188.06458 
L 491.730294 187.673159 
L 494.902659 187.12851 
L 501.632834 185.777534 
L 504.792602 185.453333 
L 507.776081 185.391536 
L 511.32064 185.552974 
L 516.682724 186.061507 
L 527.700206 187.176452 
L 529.265827 187.246208 
L 529.265827 187.246208 
" style="fill:none;stroke:#000000;stroke-linecap:square;stroke-opacity:0.7;stroke-width:1.2;"/>
   </g>
   <g id="line2d_18">
    <path clip-path="url(#pc602d3c7f8)" d="M 529.730238 143.162282 
L 528.010403 142.84019 
L 521.700446 141.314499 
L 514.241087 139.583691 
L 510.066266 138.819493 
L 506.930098 138.41072 
L 503.473728 138.171664 
L 500.804833 138.163631 
L 498.339479 138.309871 
L 495.224911 138.733852 
L 492.467537 139.375721 
L 490.313187 140.10002 
L 488.10025 141.111887 
L 486.095829 142.295618 
L 484.155372 143.456607 
L 482.467965 144.274062 
L 482.244121 144.731159 
L 482.289412 145.066909 
L 482.562551 145.329148 
L 483.176777 145.608226 
L 484.791415 146.04225 
L 487.958956 146.557575 
L 490.460566 146.719872 
L 492.81735 146.618334 
L 494.63851 146.335377 
L 496.818307 145.768364 
L 504.747624 143.344033 
L 507.614971 142.88741 
L 510.467315 142.67692 
L 513.562539 142.643697 
L 518.4667 142.820504 
L 529.237997 143.348011 
L 529.237997 143.348011 
" style="fill:none;stroke:#000000;stroke-linecap:square;stroke-opacity:0.7;stroke-width:1.2;"/>
   </g>
   <g id="line2d_19">
    <path clip-path="url(#pc602d3c7f8)" d="M 529.538675 99.723101 
L 524.364412 99.712473 
L 500.636411 99.73922 
L 493.932122 99.736469 
L 491.059008 99.918792 
L 488.45099 100.295649 
L 486.446697 100.779017 
L 483.884507 101.668433 
L 482.225396 102.293071 
L 482.294768 102.300315 
L 484.652456 102.235997 
L 485.558924 101.997852 
L 486.607514 102.09539 
L 492.110072 102.92666 
L 494.872056 103.081216 
L 497.416651 102.969035 
L 499.960095 102.61007 
L 503.586715 101.831835 
L 508.763839 100.753944 
L 512.263111 100.288205 
L 515.769342 100.046038 
L 520.750706 99.94521 
L 529.245328 99.94913 
L 529.245328 99.94913 
" style="fill:none;stroke:#000000;stroke-linecap:square;stroke-opacity:0.7;stroke-width:1.2;"/>
   </g>
   <g id="line2d_20">
    <path clip-path="url(#pc602d3c7f8)" d="M 529.719907 56.303582 
L 526.157186 55.867693 
L 511.881186 54.07394 
L 506.937938 53.644544 
L 502.609462 53.467655 
L 499.17964 53.524164 
L 496.143691 53.770475 
L 493.744271 54.133212 
L 490.958452 54.793921 
L 488.435959 55.646916 
L 486.130216 56.419573 
L 485.094265 56.53748 
L 483.324517 56.313622 
L 482.567927 56.251867 
L 482.1397 56.352185 
L 481.699376 56.853916 
L 481.620504 57.208249 
L 481.762211 57.953752 
L 482.248302 58.511225 
L 482.720321 58.807886 
L 484.172193 59.377623 
L 486.216123 59.913133 
L 489.184485 60.477357 
L 492.346856 60.833836 
L 494.516307 60.878636 
L 496.931708 60.697871 
L 499.783251 60.232962 
L 510.655193 58.216426 
L 515.842273 57.620125 
L 522.994269 57.047595 
L 529.237604 56.615086 
L 529.237604 56.615086 
" style="fill:none;stroke:#000000;stroke-linecap:square;stroke-opacity:0.7;stroke-width:1.2;"/>
   </g>
   <g id="line2d_21">
    <path clip-path="url(#pc602d3c7f8)" d="M 675.388452 231.024945 
L 670.516718 230.427559 
L 656.537662 228.72307 
L 650.820882 228.250913 
L 646.503837 228.10602 
L 643.230475 228.179169 
L 640.540119 228.396924 
L 637.43143 228.878817 
L 635.002811 229.475656 
L 632.45514 230.354389 
L 626.984339 232.654845 
L 626.899669 232.769026 
L 626.978118 233.144687 
L 627.256978 233.302396 
L 631.558878 234.624531 
L 636.693926 236.149539 
L 639.123404 236.649775 
L 641.13773 236.84516 
L 642.986639 236.784045 
L 645.00682 236.440476 
L 647.779344 235.64821 
L 653.419758 233.94347 
L 656.723327 233.213094 
L 660.504352 232.623713 
L 663.85609 232.249911 
L 672.012934 231.600634 
L 674.829909 231.401974 
L 674.829909 231.401974 
" style="fill:none;stroke:#000000;stroke-linecap:square;stroke-opacity:0.7;stroke-width:1.2;"/>
   </g>
   <g id="line2d_22">
    <path clip-path="url(#pc602d3c7f8)" d="M 675.31168 186.613972 
L 673.864672 186.278546 
L 669.798264 185.043071 
L 659.961546 182.020091 
L 656.148539 181.056483 
L 652.767289 180.383028 
L 649.072791 179.881876 
L 645.418793 179.656361 
L 642.841542 179.67828 
L 639.744272 179.939949 
L 637.46172 180.339923 
L 635.314767 180.933107 
L 633.57058 181.627056 
L 631.830135 182.584222 
L 630.753083 183.355058 
L 629.375422 184.613719 
L 628.451365 185.702163 
L 627.481738 187.287791 
L 627.168457 188.294302 
L 627.323985 189.338545 
L 627.834943 190.011571 
L 628.775794 190.763976 
L 629.423282 191.035849 
L 630.944795 191.389537 
L 639.277117 193.911187 
L 641.245936 194.163699 
L 642.909704 194.118857 
L 644.279115 193.840144 
L 645.584574 193.346256 
L 647.445218 192.322568 
L 651.904432 189.617638 
L 654.194775 188.590487 
L 656.542837 187.848467 
L 659.03465 187.338856 
L 661.777471 187.012001 
L 665.217978 186.816804 
L 670.837048 186.748215 
L 674.815714 186.765733 
L 674.815714 186.765733 
" style="fill:none;stroke:#000000;stroke-linecap:square;stroke-opacity:0.7;stroke-width:1.2;"/>
   </g>
   <g id="line2d_23">
    <path clip-path="url(#pc602d3c7f8)" d="M 675.156377 143.630269 
L 673.070405 143.25403 
L 656.638597 140.013896 
L 652.723552 139.534711 
L 648.880513 139.291446 
L 645.313696 139.306094 
L 641.948245 139.555858 
L 638.673003 140.039736 
L 636.216276 140.576915 
L 633.179398 141.485528 
L 630.58364 142.538982 
L 628.689541 143.558664 
L 627.65474 144.301785 
L 626.871366 145.208238 
L 626.747294 145.634321 
L 626.754367 145.814207 
L 627.11366 146.451569 
L 627.447692 146.729404 
L 628.398208 147.258787 
L 629.961506 147.798106 
L 630.63361 147.917157 
L 631.465978 147.88953 
L 632.218861 147.52624 
L 632.74504 147.226995 
L 633.733758 147.075357 
L 635.630337 147.312984 
L 640.188965 148.084366 
L 641.786437 148.158695 
L 643.829813 148.026366 
L 646.523735 147.540672 
L 655.195218 145.700552 
L 659.131492 145.153729 
L 665.668516 144.520566 
L 674.658355 143.880457 
L 674.658355 143.880457 
" style="fill:none;stroke:#000000;stroke-linecap:square;stroke-opacity:0.7;stroke-width:1.2;"/>
   </g>
   <g id="line2d_24">
    <path clip-path="url(#pc602d3c7f8)" d="M 675.490909 99.948954 
L 672.040529 99.492222 
L 656.408294 97.307071 
L 651.272981 96.839097 
L 647.049053 96.663412 
L 643.394406 96.716689 
L 639.906053 96.992622 
L 636.595642 97.516831 
L 633.876829 98.203826 
L 631.483595 99.064417 
L 628.775599 100.334658 
L 627.387951 101.108904 
L 627.20895 101.334295 
L 627.177956 101.689576 
L 627.372121 102.013959 
L 627.779606 102.202191 
L 628.291695 102.183274 
L 638.350143 100.601136 
L 645.652759 99.478508 
L 649.074688 99.188677 
L 652.975871 99.09941 
L 657.138757 99.226231 
L 664.049413 99.681951 
L 673.120394 100.243379 
L 674.90148 100.274174 
L 674.90148 100.274174 
" style="fill:none;stroke:#000000;stroke-linecap:square;stroke-opacity:0.7;stroke-width:1.2;"/>
   </g>
   <g id="line2d_25">
    <path clip-path="url(#pc602d3c7f8)" d="M 675.208164 56.011891 
L 673.302025 55.652785 
L 655.975325 51.820298 
L 652.445479 51.370687 
L 649.528193 51.175526 
L 646.619286 51.165878 
L 643.807891 51.352564 
L 640.762576 51.802585 
L 637.989559 52.485948 
L 636.238703 53.092116 
L 633.918624 54.183832 
L 631.836361 55.506505 
L 630.26041 56.455835 
L 629.698704 56.64435 
L 627.669155 57.03037 
L 627.482925 57.346909 
L 627.568715 57.886359 
L 628.000252 58.272575 
L 629.288784 58.740789 
L 631.572044 59.270319 
L 634.40134 59.758336 
L 637.611356 60.06665 
L 639.687545 60.068969 
L 641.562991 59.900771 
L 643.93094 59.450145 
L 647.236875 58.520406 
L 651.520072 57.314194 
L 654.557527 56.705167 
L 657.651602 56.336344 
L 660.896842 56.166863 
L 665.729965 56.153831 
L 674.942732 56.301786 
L 674.942732 56.301786 
" style="fill:none;stroke:#000000;stroke-linecap:square;stroke-opacity:0.7;stroke-width:1.2;"/>
   </g>
  </g>
 </g>
 <defs>
  <clipPath id="pc602d3c7f8">
   <rect height="262.08" width="694.08" x="12.96" y="12.96"/>
  </clipPath>
 </defs>
</svg>
