<?xml version="1.0" encoding="utf-8" standalone="no"?>
<!DOCTYPE svg PUBLIC "-//W3C//DTD SVG 1.1//EN"
  "http://www.w3.org/Graphics/SVG/1.1/DTD/svg11.dtd">
<!-- Created with matplotlib (https://matplotlib.org/) -->
<svg height="288pt" version="1.1" viewBox="0 0 720 288" width="720pt" xmlns="http://www.w3.org/2000/svg" xmlns:xlink="http://www.w3.org/1999/xlink">
 <defs>
  <style type="text/css">
*{stroke-linecap:butt;stroke-linejoin:round;}
  </style>
 </defs>
 <g id="figure_1">
  <g id="patch_1">
   <path d="M 0 288 
L 720 288 
L 720 0 
L 0 0 
z
" style="fill:#ffffff;"/>
  </g>
  <g id="axes_1">
   <g id="line2d_1">
    <path clip-path="url(#p4a8fa3a84a)" d="M 147.058683 226.657081 
L 133.437152 224.780267 
L 119.857466 223.105075 
L 110.284632 222.112597 
L 102.889872 221.53483 
L 96.764451 221.225647 
L 89.703843 221.085306 
L 82.615622 221.189972 
L 75.68885 221.542293 
L 68.942978 222.134034 
L 62.923691 222.884969 
L 57.410368 223.825513 
L 53.875759 224.668201 
L 52.090612 225.246527 
L 50.753005 225.822134 
L 49.592273 226.540477 
L 48.91344 227.21033 
L 48.51012 227.959653 
L 48.415781 228.723755 
L 48.613457 229.466162 
L 48.978698 230.03957 
L 49.939682 230.90219 
L 50.658921 231.346494 
L 53.032127 232.376379 
L 54.952146 232.974296 
L 58.147445 233.735665 
L 62.051081 234.424446 
L 67.149523 235.06388 
L 72.917184 235.529179 
L 78.316277 235.765151 
L 84.752031 235.8295 
L 91.593156 235.666371 
L 98.940151 235.245851 
L 105.467093 234.666306 
L 112.236949 233.861053 
L 119.509857 232.765337 
L 127.127975 231.370225 
L 135.379146 229.596156 
L 143.187757 227.704672 
L 147.066625 226.726539 
L 147.066625 226.726539 
" style="fill:none;stroke:#000000;stroke-linecap:square;stroke-opacity:0.7;stroke-width:1.2;"/>
   </g>
   <g id="line2d_2">
    <path clip-path="url(#p4a8fa3a84a)" d="M 147.015081 187.258052 
L 137.446316 184.496687 
L 126.980541 181.708502 
L 118.326584 179.61776 
L 110.075986 177.860394 
L 102.90456 176.569348 
L 97.158703 175.731901 
L 91.77973 175.14369 
L 86.998349 174.813635 
L 82.676871 174.700055 
L 78.408951 174.784237 
L 73.810988 175.114496 
L 69.651444 175.638601 
L 65.682585 176.342117 
L 61.11055 177.403661 
L 56.945952 178.626849 
L 53.915417 179.714291 
L 50.994618 181.012676 
L 49.163875 182.054147 
L 47.611441 183.230143 
L 46.746924 184.162513 
L 46.177954 185.16793 
L 46.048202 185.836085 
L 46.182305 186.376427 
L 46.425046 186.654185 
L 46.864112 186.887857 
L 47.879294 187.085611 
L 49.32462 187.131369 
L 53.493322 186.909213 
L 73.212807 185.450832 
L 78.74954 185.362367 
L 85.309711 185.483136 
L 103.211992 186.178346 
L 120.176027 186.707591 
L 138.890144 187.064619 
L 147.023533 187.16511 
L 147.023533 187.16511 
" style="fill:none;stroke:#000000;stroke-linecap:square;stroke-opacity:0.7;stroke-width:1.2;"/>
   </g>
   <g id="line2d_3">
    <path clip-path="url(#p4a8fa3a84a)" d="M 146.965124 147.441128 
L 134.428678 145.411122 
L 122.527949 143.672083 
L 111.896401 142.33898 
L 104.263873 141.585734 
L 96.598208 141.06431 
L 90.477894 140.844847 
L 83.700773 140.823079 
L 76.982814 141.045477 
L 70.404692 141.517085 
L 65.396339 142.067851 
L 60.648125 142.788608 
L 56.490755 143.659039 
L 53.368987 144.55823 
L 51.307929 145.348651 
L 49.712547 146.14531 
L 48.43702 146.996758 
L 47.579489 147.813613 
L 47.135979 148.508578 
L 47.01422 149.055398 
L 47.118444 149.475241 
L 47.470254 149.867945 
L 48.190861 150.233284 
L 49.272021 150.522256 
L 51.772783 150.843969 
L 54.62396 150.984524 
L 59.728675 150.965815 
L 66.248114 150.68391 
L 98.846277 148.893271 
L 120.120905 148.213629 
L 146.967441 147.421366 
L 146.967441 147.421366 
" style="fill:none;stroke:#000000;stroke-linecap:square;stroke-opacity:0.7;stroke-width:1.2;"/>
   </g>
   <g id="line2d_4">
    <path clip-path="url(#p4a8fa3a84a)" d="M 147.000211 107.770852 
L 139.660025 106.169362 
L 128.918548 104.062705 
L 118.396191 102.212843 
L 109.287797 100.826862 
L 101.465329 99.86444 
L 94.223984 99.226607 
L 87.710636 98.910586 
L 81.966417 98.870237 
L 77.743975 99.00227 
L 72.508481 99.378599 
L 68.097381 99.897575 
L 63.665541 100.627975 
L 59.536942 101.530268 
L 55.613183 102.649766 
L 53.207349 103.521355 
L 50.972968 104.532809 
L 49.035698 105.679602 
L 47.826478 106.639261 
L 46.877231 107.704217 
L 46.388854 108.622112 
L 46.253153 109.337551 
L 46.376581 109.968556 
L 46.725951 110.470752 
L 47.488478 110.984647 
L 48.614401 111.375318 
L 50.10888 111.648482 
L 52.899355 111.832676 
L 56.739165 111.751691 
L 61.367567 111.401836 
L 70.142439 110.447624 
L 83.1775 109.033895 
L 92.89093 108.222365 
L 102.137192 107.67669 
L 111.238243 107.35212 
L 120.793939 107.226121 
L 131.81239 107.323822 
L 143.982869 107.677093 
L 147.022084 107.797007 
L 147.022084 107.797007 
" style="fill:none;stroke:#000000;stroke-linecap:square;stroke-opacity:0.7;stroke-width:1.2;"/>
   </g>
   <g id="line2d_5">
    <path clip-path="url(#p4a8fa3a84a)" d="M 147.061164 68.3 
L 133.078087 66.10401 
L 119.585536 64.199669 
L 110.486954 63.12111 
L 103.476068 62.484029 
L 96.088708 62.055695 
L 89.017215 61.901388 
L 82.203225 61.984406 
L 75.461799 62.272818 
L 67.776018 62.826733 
L 60.816007 63.551572 
L 55.79932 64.280727 
L 52.529779 64.92199 
L 49.197616 65.827688 
L 47.513205 66.469469 
L 45.879484 67.360185 
L 45.003008 68.132725 
L 44.55314 68.950162 
L 44.523077 69.488419 
L 44.712809 70.002353 
L 45.127708 70.493728 
L 45.989167 71.081182 
L 48.137912 71.930295 
L 51.132597 72.660508 
L 54.692157 73.250846 
L 58.322196 73.680229 
L 64.834292 74.174629 
L 71.492499 74.43405 
L 81.04691 74.546923 
L 92.421699 74.450877 
L 101.470368 74.186267 
L 110.480058 73.688781 
L 118.391896 73.011962 
L 124.870563 72.270391 
L 132.742124 71.129879 
L 140.111578 69.814829 
L 147.079712 68.3349 
L 147.079712 68.3349 
" style="fill:none;stroke:#000000;stroke-linecap:square;stroke-opacity:0.7;stroke-width:1.2;"/>
   </g>
   <g id="line2d_6">
    <path clip-path="url(#p4a8fa3a84a)" d="M 279.044753 227.023745 
L 261.456426 224.851584 
L 243.90893 222.897323 
L 233.224093 221.883839 
L 224.972242 221.309008 
L 218.256975 221.057788 
L 211.602483 221.050855 
L 204.882181 221.306774 
L 199.340991 221.720233 
L 193.663214 222.361489 
L 189.109306 223.095546 
L 185.109956 224.001307 
L 182.305412 224.900007 
L 180.590436 225.66894 
L 179.432053 226.418692 
L 178.7461 227.211613 
L 178.649826 227.633003 
L 178.855431 228.062654 
L 179.237452 228.310903 
L 180.128762 228.573806 
L 182.040928 228.815832 
L 186.395502 229.036309 
L 192.974391 229.148447 
L 220.100768 229.410184 
L 233.335432 229.587105 
L 242.846676 229.468291 
L 252.264675 229.120018 
L 262.026082 228.531589 
L 271.422082 227.750527 
L 279.059416 226.93044 
L 279.059416 226.93044 
" style="fill:none;stroke:#000000;stroke-linecap:square;stroke-opacity:0.7;stroke-width:1.2;"/>
   </g>
   <g id="line2d_7">
    <path clip-path="url(#p4a8fa3a84a)" d="M 279.126346 186.979121 
L 268.950892 184.733242 
L 258.286562 182.580039 
L 249.665443 181.057071 
L 242.597155 180.041565 
L 236.578979 179.402415 
L 231.491998 179.046214 
L 225.253042 178.840097 
L 219.744248 178.855855 
L 213.30611 179.091085 
L 206.831663 179.55646 
L 200.746898 180.219792 
L 195.377432 181.032937 
L 190.656872 182.002541 
L 186.98775 183.015535 
L 184.800308 183.791128 
L 182.879483 184.641448 
L 181.222071 185.591008 
L 179.835272 186.730921 
L 179.257894 187.555265 
L 179.128066 188.235576 
L 179.298164 188.69413 
L 179.772675 189.146165 
L 180.721158 189.608355 
L 182.664118 190.138609 
L 185.305956 190.568658 
L 189.461015 190.951883 
L 194.891238 191.154164 
L 200.95554 191.13835 
L 209.209698 190.870581 
L 219.329829 190.309466 
L 233.729243 189.255916 
L 254.824626 187.699801 
L 264.959646 187.183886 
L 272.666757 186.975969 
L 279.127152 186.987592 
L 279.127152 186.987592 
" style="fill:none;stroke:#000000;stroke-linecap:square;stroke-opacity:0.7;stroke-width:1.2;"/>
   </g>
   <g id="line2d_8">
    <path clip-path="url(#p4a8fa3a84a)" d="M 279.213248 147.450967 
L 274.072714 145.638215 
L 266.227964 143.183228 
L 259.003746 141.181619 
L 252.612617 139.640791 
L 246.834949 138.469966 
L 241.895697 137.658009 
L 235.94995 136.92232 
L 229.947358 136.441445 
L 224.66606 136.224075 
L 218.213077 136.207846 
L 212.473323 136.422422 
L 206.568747 136.878301 
L 200.7549 137.584387 
L 195.48539 138.488881 
L 191.984047 139.274515 
L 188.420687 140.300911 
L 185.240976 141.53725 
L 183.486503 142.442504 
L 181.706894 143.651738 
L 180.320404 144.994073 
L 179.524918 146.209709 
L 179.307749 146.788036 
L 179.219777 147.44491 
L 179.340839 148.035533 
L 179.664117 148.526683 
L 180.896166 149.280858 
L 182.56725 149.736541 
L 185.02726 150.069369 
L 187.566554 150.23006 
L 192.40352 150.291777 
L 199.43654 150.111637 
L 214.224127 149.418328 
L 253.528571 147.536514 
L 265.143911 147.254775 
L 273.910159 147.250105 
L 279.190726 147.383765 
L 279.190726 147.383765 
" style="fill:none;stroke:#000000;stroke-linecap:square;stroke-opacity:0.7;stroke-width:1.2;"/>
   </g>
   <g id="line2d_9">
    <path clip-path="url(#p4a8fa3a84a)" d="M 279.014774 108.125537 
L 263.987897 106.286855 
L 244.378187 103.648894 
L 226.271946 101.223141 
L 219.54842 100.578038 
L 214.225217 100.306351 
L 209.945827 100.287722 
L 204.985776 100.516033 
L 201.144543 100.886374 
L 196.688501 101.541695 
L 192.790976 102.345006 
L 189.557965 103.223122 
L 186.882815 104.153277 
L 184.300424 105.315338 
L 182.263142 106.542351 
L 181.319817 107.289261 
L 180.627407 108.014389 
L 180.259245 108.750562 
L 180.364612 109.045376 
L 180.807041 109.207259 
L 181.586626 109.228805 
L 185.645329 108.918257 
L 193.357712 108.408602 
L 199.867771 108.176196 
L 206.279771 108.153202 
L 213.406657 108.362302 
L 231.985585 109.058967 
L 242.268353 109.158945 
L 254.123968 109.030066 
L 266.115409 108.681242 
L 277.950429 108.119332 
L 279.049716 108.051972 
L 279.049716 108.051972 
" style="fill:none;stroke:#000000;stroke-linecap:square;stroke-opacity:0.7;stroke-width:1.2;"/>
   </g>
   <g id="line2d_10">
    <path clip-path="url(#p4a8fa3a84a)" d="M 279.279448 68.230841 
L 275.373725 66.475111 
L 269.706085 64.140209 
L 262.225325 61.297727 
L 255.790304 59.053509 
L 249.322886 57.016545 
L 243.970942 55.536533 
L 238.383125 54.234556 
L 233.4138 53.318704 
L 228.39357 52.650432 
L 223.867856 52.286782 
L 219.661053 52.166523 
L 216.027924 52.243892 
L 211.511682 52.5936 
L 207.390021 53.178413 
L 203.473838 53.986335 
L 200.046624 54.904882 
L 196.770015 55.973083 
L 193.365431 57.28585 
L 190.084131 58.762846 
L 187.173075 60.287549 
L 184.707377 61.815994 
L 182.52463 63.512299 
L 181.161307 64.9383 
L 180.287243 66.240521 
L 179.953601 66.947715 
L 179.544083 68.620297 
L 179.578629 69.619572 
L 179.795487 70.359061 
L 180.244022 71.045831 
L 180.703412 71.445812 
L 181.407575 71.825073 
L 182.788929 72.202476 
L 184.657202 72.367569 
L 187.530803 72.279889 
L 191.444584 71.862603 
L 199.752842 70.604405 
L 211.681578 68.815431 
L 220.941686 67.656621 
L 230.746132 66.652383 
L 239.119827 66.007085 
L 245.389319 65.693299 
L 251.610114 65.567241 
L 257.584128 65.661058 
L 262.936658 65.957594 
L 268.147643 66.461867 
L 274.023003 67.285341 
L 279.274284 68.192171 
L 279.274284 68.192171 
" style="fill:none;stroke:#000000;stroke-linecap:square;stroke-opacity:0.7;stroke-width:1.2;"/>
   </g>
   <g id="line2d_11">
    <path clip-path="url(#p4a8fa3a84a)" d="M 411.248577 226.760962 
L 402.766956 224.347885 
L 391.252185 221.317588 
L 381.947282 219.077368 
L 373.764169 217.336452 
L 366.80026 216.103981 
L 361.354939 215.350924 
L 355.560467 214.795366 
L 350.935526 214.559831 
L 346.332256 214.529285 
L 342.174865 214.690934 
L 337.90805 215.055271 
L 333.778706 215.607952 
L 329.483357 216.400864 
L 325.891254 217.247014 
L 322.555952 218.205451 
L 319.555438 219.252761 
L 316.728838 220.482699 
L 315.128416 221.349124 
L 313.596663 222.374126 
L 312.039721 223.778061 
L 311.054599 225.097749 
L 310.527662 226.262299 
L 310.347134 227.207351 
L 310.36893 227.756916 
L 310.612073 228.488294 
L 311.227132 229.165817 
L 311.692634 229.442839 
L 312.379456 229.708092 
L 314.306959 230.051377 
L 316.231276 230.1283 
L 319.132279 230.013596 
L 323.775788 229.54611 
L 334.801732 228.010482 
L 341.81729 227.124404 
L 348.990386 226.459577 
L 356.499536 226.029712 
L 365.164621 225.792963 
L 374.81132 225.757066 
L 386.184496 225.928893 
L 401.142623 226.395118 
L 411.242826 226.798253 
L 411.242826 226.798253 
" style="fill:none;stroke:#000000;stroke-linecap:square;stroke-opacity:0.7;stroke-width:1.2;"/>
   </g>
   <g id="line2d_12">
    <path clip-path="url(#p4a8fa3a84a)" d="M 411.115761 187.146563 
L 399.223044 185.042115 
L 386.944186 183.07017 
L 375.821784 181.485317 
L 366.855344 180.41623 
L 359.227423 179.719754 
L 352.074469 179.302029 
L 346.640469 179.170549 
L 340.877085 179.235048 
L 335.15164 179.533094 
L 330.425007 179.976005 
L 326.213134 180.544174 
L 321.900742 181.340194 
L 319.060477 182.029769 
L 316.432038 182.846968 
L 313.994601 183.857235 
L 312.272342 184.840115 
L 311.076099 185.810627 
L 310.401335 186.680353 
L 310.196568 187.293321 
L 310.256212 187.684125 
L 310.453899 187.936368 
L 310.907227 188.162613 
L 311.809197 188.307973 
L 314.851832 188.263612 
L 322.28655 187.729033 
L 336.010259 186.747303 
L 343.401744 186.449352 
L 351.080431 186.374016 
L 364.713138 186.536273 
L 397.123797 186.930558 
L 411.144235 187.059572 
L 411.144235 187.059572 
" style="fill:none;stroke:#000000;stroke-linecap:square;stroke-opacity:0.7;stroke-width:1.2;"/>
   </g>
   <g id="line2d_13">
    <path clip-path="url(#p4a8fa3a84a)" d="M 411.142421 147.960983 
L 395.908441 146.507531 
L 382.543894 145.041294 
L 369.678067 143.396852 
L 354.698513 141.463702 
L 348.680252 140.941437 
L 343.332429 140.729629 
L 338.519012 140.779623 
L 333.833517 141.050841 
L 328.940318 141.560247 
L 324.821018 142.172753 
L 320.267933 143.082955 
L 316.945686 143.963483 
L 313.785034 145.091786 
L 312.227009 145.849016 
L 311.541076 146.267262 
L 310.297681 147.387744 
L 309.992944 148.086852 
L 310.0848 148.632049 
L 310.475607 149.057741 
L 311.31451 149.44832 
L 312.749253 149.761394 
L 315.269676 150.010385 
L 319.272781 150.152642 
L 326.564655 150.143701 
L 341.63322 150.05554 
L 348.584611 150.279143 
L 365.884583 151.007426 
L 372.965083 151.036528 
L 380.723089 150.829331 
L 389.170737 150.335766 
L 397.323166 149.616051 
L 405.860191 148.612316 
L 411.134977 147.84517 
L 411.134977 147.84517 
" style="fill:none;stroke:#000000;stroke-linecap:square;stroke-opacity:0.7;stroke-width:1.2;"/>
   </g>
   <g id="line2d_14">
    <path clip-path="url(#p4a8fa3a84a)" d="M 411.168521 108.055054 
L 393.676455 106.366 
L 356.539491 102.682019 
L 349.063221 102.27075 
L 342.577869 102.118539 
L 335.61245 102.182204 
L 330.309499 102.41098 
L 325.9815 102.756529 
L 321.525616 103.345472 
L 318.20583 104.037825 
L 315.541531 104.865437 
L 313.931541 105.56686 
L 312.689513 106.287817 
L 311.628915 107.130821 
L 310.807156 108.124077 
L 310.45056 108.912211 
L 310.367472 109.599434 
L 310.543003 110.273544 
L 310.711912 110.552865 
L 311.127913 110.993372 
L 312.258153 111.671613 
L 313.052671 111.982314 
L 315.184185 112.551687 
L 317.952208 113.020427 
L 321.970507 113.443356 
L 327.947147 113.770968 
L 334.86743 113.894134 
L 346.453335 113.829715 
L 361.373453 113.551853 
L 371.051954 113.158694 
L 379.267313 112.605642 
L 387.248772 111.83692 
L 395.323355 110.812719 
L 402.789138 109.639368 
L 410.073334 108.266587 
L 411.191433 108.032141 
L 411.191433 108.032141 
" style="fill:none;stroke:#000000;stroke-linecap:square;stroke-opacity:0.7;stroke-width:1.2;"/>
   </g>
   <g id="line2d_15">
    <path clip-path="url(#p4a8fa3a84a)" d="M 411.105464 68.304724 
L 383.034495 65.499689 
L 370.632295 64.457313 
L 360.726436 63.846611 
L 352.394895 63.564434 
L 344.632279 63.540146 
L 338.176956 63.718648 
L 331.351097 64.124191 
L 326.15783 64.6107 
L 321.235931 65.269953 
L 317.225818 66.032659 
L 314.588671 66.72818 
L 312.807084 67.364806 
L 311.487504 68.025571 
L 310.616477 68.739316 
L 310.361588 69.275221 
L 310.443522 69.653017 
L 310.720996 69.940636 
L 311.4054 70.258625 
L 312.403139 70.491585 
L 314.673055 70.745671 
L 319.422284 70.930238 
L 326.407753 70.92893 
L 371.609612 70.244694 
L 383.449884 69.819875 
L 398.112401 69.058941 
L 411.137521 68.233365 
L 411.137521 68.233365 
" style="fill:none;stroke:#000000;stroke-linecap:square;stroke-opacity:0.7;stroke-width:1.2;"/>
   </g>
   <g id="line2d_16">
    <path clip-path="url(#p4a8fa3a84a)" d="M 543.181617 226.847543 
L 512.428684 223.940962 
L 498.880312 222.856889 
L 489.448428 222.325274 
L 482.330476 222.124184 
L 475.137053 222.133077 
L 467.69146 222.369467 
L 459.982031 222.85659 
L 454.623278 223.386467 
L 450.197421 224.027124 
L 447.219349 224.640965 
L 445.040706 225.257603 
L 443.413606 225.890307 
L 442.14146 226.610232 
L 441.490828 227.204722 
L 441.210718 227.768092 
L 441.268008 228.193304 
L 441.587257 228.550203 
L 442.034018 228.791117 
L 443.375927 229.149498 
L 444.889577 229.34907 
L 449.0313 229.557834 
L 454.805179 229.534385 
L 464.392782 229.198068 
L 478.67941 228.687056 
L 492.176574 228.485082 
L 509.599928 228.190459 
L 524.275777 227.70252 
L 539.458119 226.967369 
L 543.202457 226.747683 
L 543.202457 226.747683 
" style="fill:none;stroke:#000000;stroke-linecap:square;stroke-opacity:0.7;stroke-width:1.2;"/>
   </g>
   <g id="line2d_17">
    <path clip-path="url(#p4a8fa3a84a)" d="M 543.268865 187.138408 
L 514.316595 183.119394 
L 504.805603 181.997371 
L 497.137145 181.301826 
L 490.549073 180.916479 
L 483.520378 180.749557 
L 476.850654 180.825853 
L 469.959612 181.13635 
L 462.872226 181.700956 
L 457.645192 182.30459 
L 452.942201 183.047884 
L 449.587277 183.769277 
L 446.745011 184.603875 
L 444.957004 185.322119 
L 443.442891 186.169592 
L 442.477497 186.988033 
L 441.920656 187.872054 
L 441.847354 188.572294 
L 442.102827 189.192242 
L 442.641272 189.737054 
L 443.52911 190.26685 
L 445.432082 190.964519 
L 447.625485 191.491792 
L 451.262112 192.086704 
L 456.100656 192.599589 
L 461.977676 192.974836 
L 469.342993 193.202744 
L 477.915799 193.246706 
L 487.129363 193.092211 
L 496.012218 192.728343 
L 503.794786 192.199658 
L 511.539421 191.464824 
L 520.306657 190.406728 
L 531.765437 188.776181 
L 543.29322 187.118394 
L 543.29322 187.118394 
" style="fill:none;stroke:#000000;stroke-linecap:square;stroke-opacity:0.7;stroke-width:1.2;"/>
   </g>
   <g id="line2d_18">
    <path clip-path="url(#p4a8fa3a84a)" d="M 543.259733 147.647025 
L 529.947297 146.218957 
L 514.116572 144.278863 
L 497.62449 142.004055 
L 485.399948 140.363411 
L 479.075331 139.715875 
L 473.944821 139.379681 
L 469.739907 139.264476 
L 465.006862 139.334666 
L 460.732139 139.606181 
L 457.010008 140.036795 
L 453.517667 140.654768 
L 450.503682 141.418236 
L 448.482663 142.097063 
L 446.774843 142.814777 
L 445.132213 143.677162 
L 443.603139 144.704952 
L 442.24904 145.935117 
L 441.362042 147.152371 
L 441.024033 148.072121 
L 441.05504 148.829066 
L 441.330263 149.324772 
L 441.773615 149.696676 
L 442.704451 150.104177 
L 444.295922 150.450025 
L 447.000271 150.719343 
L 451.207554 150.871414 
L 458.969331 150.874897 
L 475.196659 150.809658 
L 495.844384 150.967845 
L 504.713556 150.737858 
L 514.222558 150.2497 
L 524.635276 149.472643 
L 536.710993 148.319524 
L 543.26896 147.597351 
L 543.26896 147.597351 
" style="fill:none;stroke:#000000;stroke-linecap:square;stroke-opacity:0.7;stroke-width:1.2;"/>
   </g>
   <g id="line2d_19">
    <path clip-path="url(#p4a8fa3a84a)" d="M 543.219683 108.106439 
L 525.122521 106.720172 
L 502.081699 104.722826 
L 488.427641 103.600922 
L 481.850556 103.222608 
L 475.045912 103.030026 
L 468.215186 103.083842 
L 462.457406 103.349176 
L 457.456535 103.790061 
L 452.782845 104.468675 
L 449.698879 105.145857 
L 447.138559 105.950985 
L 445.627243 106.612658 
L 444.498332 107.285532 
L 443.75378 107.914707 
L 443.290791 108.535298 
L 443.118353 109.062044 
L 443.186316 109.577036 
L 443.565934 110.07685 
L 444.249992 110.495028 
L 445.69697 110.971502 
L 448.077681 111.407706 
L 450.731185 111.703645 
L 455.994316 112.027933 
L 463.542398 112.189543 
L 476.986511 112.167802 
L 496.161188 112.008136 
L 506.179031 111.658188 
L 515.880114 111.058551 
L 525.620302 110.203485 
L 535.50264 109.091155 
L 543.21819 108.046352 
L 543.21819 108.046352 
" style="fill:none;stroke:#000000;stroke-linecap:square;stroke-opacity:0.7;stroke-width:1.2;"/>
   </g>
   <g id="line2d_20">
    <path clip-path="url(#p4a8fa3a84a)" d="M 543.262649 68.221603 
L 497.82845 63.68278 
L 489.844513 63.248395 
L 482.496958 63.08587 
L 475.925577 63.153196 
L 468.721163 63.461053 
L 461.858421 63.984702 
L 455.846759 64.665118 
L 451.90287 65.279166 
L 448.845805 65.908803 
L 446.57356 66.53028 
L 444.726218 67.225733 
L 443.502125 67.904194 
L 442.677698 68.696558 
L 442.435389 69.370793 
L 442.618343 70.058834 
L 443.03601 70.549809 
L 443.62633 70.982968 
L 444.635129 71.49889 
L 446.899186 72.273114 
L 449.688509 72.909203 
L 453.122243 73.439567 
L 457.758138 73.883142 
L 462.832392 74.138263 
L 470.665714 74.254123 
L 479.735089 74.145301 
L 489.071713 73.820576 
L 498.145273 73.285048 
L 507.543112 72.497291 
L 518.202057 71.354963 
L 533.110196 69.495087 
L 543.279572 68.284921 
L 543.279572 68.284921 
" style="fill:none;stroke:#000000;stroke-linecap:square;stroke-opacity:0.7;stroke-width:1.2;"/>
   </g>
   <g id="line2d_21">
    <path clip-path="url(#p4a8fa3a84a)" d="M 675.479793 226.699429 
L 652.390538 221.574336 
L 637.552133 218.449566 
L 629.160645 216.865532 
L 621.793478 215.710825 
L 616.952737 215.134634 
L 612.040265 214.742391 
L 606.744305 214.578654 
L 602.345562 214.676298 
L 597.692281 215.034963 
L 593.755438 215.558934 
L 589.460962 216.380387 
L 586.129874 217.223581 
L 582.404224 218.452934 
L 580.445265 219.279994 
L 578.082782 220.550541 
L 576.600761 221.58898 
L 575.064102 222.998918 
L 573.950341 224.397292 
L 573.215658 225.697119 
L 572.787388 226.901062 
L 572.654995 227.73216 
L 572.754047 228.849319 
L 573.17168 229.777434 
L 573.634167 230.348602 
L 574.431207 231.019045 
L 575.510451 231.663007 
L 576.567964 232.148751 
L 578.745104 232.908923 
L 582.309605 233.768873 
L 586.14675 234.369378 
L 588.590915 234.62097 
L 593.965457 234.88632 
L 598.745604 234.856903 
L 605.425294 234.527417 
L 613.900887 233.82149 
L 625.229487 232.620802 
L 644.489595 230.297386 
L 666.335348 227.701669 
L 675.490909 226.739919 
L 675.490909 226.739919 
" style="fill:none;stroke:#000000;stroke-linecap:square;stroke-opacity:0.7;stroke-width:1.2;"/>
   </g>
   <g id="line2d_22">
    <path clip-path="url(#p4a8fa3a84a)" d="M 675.308899 187.172702 
L 668.401548 185.168792 
L 659.859691 182.9405 
L 651.882339 181.077399 
L 643.819559 179.432043 
L 636.420032 178.17069 
L 630.698278 177.383702 
L 624.280159 176.72091 
L 618.080948 176.32788 
L 613.715998 176.214795 
L 608.119339 176.293544 
L 603.083247 176.606502 
L 598.773382 177.079612 
L 594.532767 177.7529 
L 590.156005 178.697414 
L 586.825634 179.624136 
L 583.447348 180.814128 
L 581.005027 181.903103 
L 578.96674 183.032309 
L 576.997048 184.40215 
L 575.374132 185.837061 
L 574.143696 187.264267 
L 573.689294 188.03168 
L 573.561511 188.491684 
L 573.667356 188.876489 
L 574.140111 189.160175 
L 575.661623 189.325741 
L 578.221131 189.196042 
L 582.438142 188.687398 
L 591.804087 187.214737 
L 598.165565 186.339292 
L 603.419821 185.871959 
L 607.946775 185.673333 
L 614.737472 185.630319 
L 624.879643 185.842735 
L 671.469483 187.10021 
L 675.32198 187.125784 
L 675.32198 187.125784 
" style="fill:none;stroke:#000000;stroke-linecap:square;stroke-opacity:0.7;stroke-width:1.2;"/>
   </g>
   <g id="line2d_23">
    <path clip-path="url(#p4a8fa3a84a)" d="M 675.334368 147.578442 
L 663.635848 146.669229 
L 645.719494 145.028088 
L 623.320105 142.969 
L 615.362643 142.505098 
L 609.317693 142.354357 
L 602.805803 142.427328 
L 596.978604 142.712824 
L 591.567907 143.180446 
L 587.201828 143.74157 
L 583.131962 144.500964 
L 580.222724 145.308423 
L 578.577753 145.972411 
L 577.437407 146.631959 
L 576.996451 146.979376 
L 576.231097 147.951033 
L 576.024228 148.797633 
L 576.225049 149.731428 
L 576.605993 150.341069 
L 577.248036 150.974047 
L 578.250742 151.630056 
L 579.560479 152.223815 
L 581.62076 152.868116 
L 583.723636 153.325613 
L 586.721383 153.772651 
L 590.733182 154.135494 
L 596.190016 154.365943 
L 603.70741 154.409439 
L 614.730767 154.206401 
L 625.572917 153.791192 
L 635.039544 153.191534 
L 643.187337 152.447896 
L 651.388192 151.47128 
L 659.66026 150.271112 
L 670.173661 148.503721 
L 675.355297 147.586755 
L 675.355297 147.586755 
" style="fill:none;stroke:#000000;stroke-linecap:square;stroke-opacity:0.7;stroke-width:1.2;"/>
   </g>
   <g id="line2d_24">
    <path clip-path="url(#p4a8fa3a84a)" d="M 675.415029 107.986785 
L 645.991827 103.206478 
L 635.741563 101.770718 
L 629.415954 101.053568 
L 622.666951 100.493666 
L 617.023937 100.220111 
L 611.876444 100.142594 
L 606.590274 100.244571 
L 600.82284 100.572804 
L 594.97643 101.144646 
L 589.608469 101.906883 
L 585.037912 102.788746 
L 582.196008 103.492491 
L 578.705487 104.61858 
L 576.932873 105.372724 
L 575.305533 106.264648 
L 573.89473 107.365075 
L 573.248817 108.167418 
L 572.944227 109.01017 
L 572.969258 109.42538 
L 573.187048 109.893684 
L 573.533755 110.251129 
L 574.275619 110.701373 
L 575.528198 111.166702 
L 577.207937 111.581948 
L 580.453672 112.11547 
L 583.918232 112.497968 
L 589.734607 112.910255 
L 597.377779 113.193168 
L 609.465215 113.352775 
L 621.449312 113.35876 
L 631.676169 113.134964 
L 639.690472 112.729545 
L 647.486481 112.11105 
L 655.176593 111.277049 
L 662.956403 110.207657 
L 670.340764 108.978067 
L 675.411962 107.99786 
L 675.411962 107.99786 
" style="fill:none;stroke:#000000;stroke-linecap:square;stroke-opacity:0.7;stroke-width:1.2;"/>
   </g>
   <g id="line2d_25">
    <path clip-path="url(#p4a8fa3a84a)" d="M 675.40749 68.260689 
L 656.409949 64.25273 
L 646.631178 62.395753 
L 639.587447 61.26095 
L 633.018288 60.430406 
L 627.001686 59.897361 
L 621.22733 59.59714 
L 615.485835 59.496642 
L 608.645899 59.618983 
L 602.012959 59.975777 
L 596.290822 60.475554 
L 590.439469 61.210077 
L 585.73492 62.04164 
L 582.592974 62.786596 
L 579.530521 63.746089 
L 577.53888 64.56317 
L 575.649521 65.57286 
L 574.437202 66.431863 
L 573.21209 67.694603 
L 572.703141 68.672216 
L 572.608599 69.3901 
L 572.722955 69.890499 
L 572.828304 70.101636 
L 573.373898 70.695291 
L 574.319218 71.219888 
L 576.528574 71.838143 
L 579.41884 72.242412 
L 582.644824 72.483002 
L 587.953141 72.647377 
L 595.683592 72.620415 
L 636.098788 71.812546 
L 644.818347 71.401448 
L 653.467165 70.779457 
L 662.796568 69.871418 
L 671.475705 68.811748 
L 675.429086 68.25883 
L 675.429086 68.25883 
" style="fill:none;stroke:#000000;stroke-linecap:square;stroke-opacity:0.7;stroke-width:1.2;"/>
   </g>
  </g>
 </g>
 <defs>
  <clipPath id="p4a8fa3a84a">
   <rect height="262.08" width="694.08" x="12.96" y="12.96"/>
  </clipPath>
 </defs>
</svg>
