<?xml version="1.0" encoding="utf-8" standalone="no"?>
<!DOCTYPE svg PUBLIC "-//W3C//DTD SVG 1.1//EN"
  "http://www.w3.org/Graphics/SVG/1.1/DTD/svg11.dtd">
<!-- Created with matplotlib (https://matplotlib.org/) -->
<svg height="288pt" version="1.1" viewBox="0 0 720 288" width="720pt" xmlns="http://www.w3.org/2000/svg" xmlns:xlink="http://www.w3.org/1999/xlink">
 <defs>
  <style type="text/css">
*{stroke-linecap:butt;stroke-linejoin:round;}
  </style>
 </defs>
 <g id="figure_1">
  <g id="patch_1">
   <path d="M 0 288 
L 720 288 
L 720 0 
L 0 0 
z
" style="fill:#ffffff;"/>
  </g>
  <g id="axes_1">
   <g id="line2d_1">
    <path clip-path="url(#p41c0b50b10)" d="M 102.58642 230.731691 
L 95.420542 228.28048 
L 88.699968 226.19747 
L 82.694008 224.558495 
L 77.439566 223.346813 
L 72.731237 222.500278 
L 69.239292 222.081768 
L 65.947658 221.912972 
L 62.91959 221.992917 
L 59.841172 222.321201 
L 56.672267 222.926306 
L 54.212557 223.6146 
L 52.227238 224.364813 
L 50.317737 225.342007 
L 49.236273 226.073218 
L 48.196881 226.983817 
L 47.354956 228.013876 
L 46.84012 229.049551 
L 46.72342 229.724167 
L 46.820748 230.193985 
L 47.045445 230.480033 
L 47.453791 230.686043 
L 48.057118 230.785113 
L 49.862205 230.718566 
L 60.983718 229.731432 
L 64.809326 229.674735 
L 69.246576 229.85723 
L 78.934558 230.625128 
L 85.742409 231.024314 
L 91.679849 231.167764 
L 97.548031 231.079299 
L 102.561179 230.810044 
L 102.561179 230.810044 
" style="fill:none;stroke:#000000;stroke-linecap:square;stroke-opacity:0.7;stroke-width:1.2;"/>
   </g>
   <g id="line2d_2">
    <path clip-path="url(#p41c0b50b10)" d="M 102.587458 211.535668 
L 97.383345 209.943762 
L 91.030343 208.225934 
L 84.432348 206.670967 
L 78.474195 205.477832 
L 72.989693 204.588317 
L 68.604016 204.073328 
L 64.675333 203.824471 
L 61.534195 203.817014 
L 58.157389 204.041553 
L 55.437868 204.4375 
L 52.880739 205.055032 
L 51.042306 205.722808 
L 49.799661 206.335807 
L 48.651308 207.075444 
L 47.309909 208.29357 
L 46.600884 209.276831 
L 46.244416 210.20399 
L 46.275667 210.757623 
L 46.470558 211.039741 
L 46.829235 211.239762 
L 47.577227 211.39169 
L 49.649145 211.466085 
L 62.798391 211.557164 
L 83.811588 212.022669 
L 93.399158 211.92652 
L 101.961122 211.621689 
L 102.577259 211.590333 
L 102.577259 211.590333 
" style="fill:none;stroke:#000000;stroke-linecap:square;stroke-opacity:0.7;stroke-width:1.2;"/>
   </g>
   <g id="line2d_3">
    <path clip-path="url(#p41c0b50b10)" d="M 102.532461 192.592382 
L 98.817938 192.092484 
L 94.530165 191.309349 
L 89.094113 190.091313 
L 82.494568 188.353926 
L 73.142711 185.834842 
L 70.102326 185.229731 
L 67.615349 184.923522 
L 65.195556 184.837575 
L 62.544059 185.004154 
L 59.887213 185.432784 
L 57.613542 185.992721 
L 54.934137 186.88349 
L 52.59424 187.901185 
L 50.779975 188.898635 
L 49.08618 190.083083 
L 47.780017 191.314019 
L 47.06671 192.371388 
L 46.944924 192.850415 
L 47.041703 193.218794 
L 47.333481 193.463616 
L 48.249057 193.680852 
L 49.309971 193.713563 
L 52.096819 193.532853 
L 64.305052 192.406285 
L 68.078523 192.365353 
L 72.278197 192.5505 
L 86.352724 193.382804 
L 91.856882 193.399696 
L 96.821978 193.19587 
L 102.055102 192.74033 
L 102.536603 192.686545 
L 102.536603 192.686545 
" style="fill:none;stroke:#000000;stroke-linecap:square;stroke-opacity:0.7;stroke-width:1.2;"/>
   </g>
   <g id="line2d_4">
    <path clip-path="url(#p41c0b50b10)" d="M 102.561595 173.390185 
L 97.095402 172.363248 
L 87.176083 170.229524 
L 78.512282 168.421221 
L 73.536058 167.607988 
L 69.705725 167.197478 
L 66.090937 167.049782 
L 62.761195 167.165953 
L 59.806234 167.499178 
L 57.365674 167.957185 
L 54.800903 168.648655 
L 52.544755 169.484947 
L 50.44618 170.540647 
L 49.186029 171.384055 
L 48.102663 172.382929 
L 47.698467 173.051436 
L 47.748761 173.412304 
L 48.055912 173.603218 
L 48.852982 173.747561 
L 51.414582 173.840076 
L 65.510604 174.070588 
L 78.964905 174.492322 
L 85.83543 174.418311 
L 93.278789 174.115378 
L 100.807302 173.588729 
L 102.562958 173.429877 
L 102.562958 173.429877 
" style="fill:none;stroke:#000000;stroke-linecap:square;stroke-opacity:0.7;stroke-width:1.2;"/>
   </g>
   <g id="line2d_5">
    <path clip-path="url(#p41c0b50b10)" d="M 102.549715 154.28051 
L 83.364466 150.676609 
L 76.02624 149.517874 
L 70.392475 148.829011 
L 65.669281 148.452245 
L 61.361365 148.336313 
L 57.966265 148.463968 
L 55.077796 148.797825 
L 52.764548 149.283541 
L 50.953724 149.846061 
L 48.95329 150.701368 
L 47.118729 151.760503 
L 45.833654 152.735714 
L 44.856739 153.777982 
L 44.531483 154.447799 
L 44.585423 154.96806 
L 45.016127 155.375239 
L 46.247782 155.756944 
L 48.225263 155.94007 
L 51.734975 155.900221 
L 57.866035 155.502888 
L 63.343408 155.220164 
L 68.144156 155.209358 
L 86.539988 155.466465 
L 93.064477 155.231853 
L 98.889753 154.795033 
L 102.545211 154.37775 
L 102.545211 154.37775 
" style="fill:none;stroke:#000000;stroke-linecap:square;stroke-opacity:0.7;stroke-width:1.2;"/>
   </g>
   <g id="line2d_6">
    <path clip-path="url(#p41c0b50b10)" d="M 102.541209 135.26721 
L 97.011427 134.507724 
L 90.010053 133.310929 
L 79.950597 131.326976 
L 72.65976 129.985332 
L 68.826251 129.478899 
L 65.086737 129.232232 
L 61.946085 129.278201 
L 58.911192 129.580692 
L 56.443219 130.033705 
L 54.083192 130.66303 
L 51.786804 131.49661 
L 49.669899 132.525205 
L 48.195042 133.477648 
L 47.158813 134.417272 
L 46.807855 135.027715 
L 46.832895 135.321458 
L 47.054551 135.554605 
L 47.537642 135.756458 
L 48.875558 135.992106 
L 51.811591 136.17037 
L 58.029534 136.202761 
L 68.25096 136.236158 
L 85.750536 136.554235 
L 91.668297 136.334959 
L 97.268334 135.918683 
L 102.546413 135.309739 
L 102.546413 135.309739 
" style="fill:none;stroke:#000000;stroke-linecap:square;stroke-opacity:0.7;stroke-width:1.2;"/>
   </g>
   <g id="line2d_7">
    <path clip-path="url(#p41c0b50b10)" d="M 102.533673 116.183907 
L 97.299114 115.572667 
L 90.371157 114.533614 
L 82.056936 113.047425 
L 72.924694 111.43124 
L 68.468994 110.870817 
L 65.211069 110.650797 
L 61.706555 110.654935 
L 58.889722 110.875389 
L 56.093136 111.318976 
L 53.830273 111.874431 
L 51.725032 112.592589 
L 50.120615 113.316936 
L 48.661886 114.178979 
L 47.507158 115.131534 
L 46.961928 115.891893 
L 46.891919 116.255633 
L 47.024962 116.56044 
L 47.431151 116.824271 
L 48.386329 117.071217 
L 50.465818 117.27592 
L 54.688396 117.380472 
L 73.626861 117.558726 
L 81.20338 117.631214 
L 87.770885 117.463579 
L 94.438448 117.062122 
L 100.142915 116.515061 
L 102.538846 116.217317 
L 102.538846 116.217317 
" style="fill:none;stroke:#000000;stroke-linecap:square;stroke-opacity:0.7;stroke-width:1.2;"/>
   </g>
   <g id="line2d_8">
    <path clip-path="url(#p41c0b50b10)" d="M 102.557962 97.038965 
L 92.353107 95.626111 
L 73.45126 92.950177 
L 68.231018 92.47135 
L 64.173281 92.294701 
L 60.875667 92.339587 
L 57.837411 92.587572 
L 54.819639 93.090174 
L 52.585068 93.67017 
L 50.343669 94.4826 
L 48.453436 95.429968 
L 47.45177 96.124576 
L 46.905199 96.769314 
L 46.919681 97.111877 
L 47.188576 97.345067 
L 47.847347 97.583878 
L 49.68485 97.893025 
L 53.126612 98.164371 
L 60.608699 98.42624 
L 79.364203 98.840045 
L 85.869365 98.638207 
L 92.760447 98.171314 
L 99.168512 97.520772 
L 102.553168 97.078885 
L 102.553168 97.078885 
" style="fill:none;stroke:#000000;stroke-linecap:square;stroke-opacity:0.7;stroke-width:1.2;"/>
   </g>
   <g id="line2d_9">
    <path clip-path="url(#p41c0b50b10)" d="M 102.55087 77.955392 
L 85.271204 75.548869 
L 78.119944 74.793799 
L 72.308562 74.384686 
L 66.532711 74.198394 
L 61.747484 74.282424 
L 58.431703 74.537153 
L 55.253124 74.999009 
L 52.754873 75.564237 
L 50.505721 76.291225 
L 48.995575 76.971222 
L 48.038059 77.627612 
L 47.905584 77.917199 
L 47.99101 78.067386 
L 48.487798 78.319977 
L 49.474441 78.570018 
L 52.013161 78.940433 
L 55.912004 79.259539 
L 62.515708 79.540411 
L 75.279486 79.838752 
L 81.899165 79.758766 
L 88.47617 79.436883 
L 95.030727 78.899084 
L 101.423199 78.147522 
L 102.541298 77.986499 
L 102.541298 77.986499 
" style="fill:none;stroke:#000000;stroke-linecap:square;stroke-opacity:0.7;stroke-width:1.2;"/>
   </g>
   <g id="line2d_10">
    <path clip-path="url(#p41c0b50b10)" d="M 102.545386 58.914831 
L 87.914546 57.458415 
L 69.597145 55.583291 
L 64.430811 55.290424 
L 60.397776 55.272549 
L 57.233311 55.466411 
L 54.35278 55.851964 
L 51.521055 56.466234 
L 49.118367 57.229339 
L 47.725785 57.843911 
L 46.835558 58.433379 
L 46.629416 58.755341 
L 46.72016 59.013247 
L 47.029115 59.217478 
L 48.134084 59.558485 
L 50.29424 59.916961 
L 54.185796 60.270322 
L 59.901552 60.517524 
L 73.888651 60.800113 
L 81.168027 60.77434 
L 87.320123 60.536948 
L 93.774082 60.051908 
L 98.962675 59.461711 
L 102.53229 58.919214 
L 102.53229 58.919214 
" style="fill:none;stroke:#000000;stroke-linecap:square;stroke-opacity:0.7;stroke-width:1.2;"/>
   </g>
   <g id="line2d_11">
    <path clip-path="url(#p41c0b50b10)" d="M 166.251269 230.672129 
L 162.442135 229.18984 
L 157.202754 227.406971 
L 151.608464 225.758886 
L 146.414992 224.466161 
L 141.538297 223.472525 
L 137.017886 222.762532 
L 132.83468 222.325866 
L 129.586576 222.172977 
L 126.139317 222.231177 
L 122.871138 222.528373 
L 120.06166 222.999056 
L 117.404032 223.678485 
L 115.516992 224.364 
L 113.846027 225.199282 
L 112.359834 226.258301 
L 111.435478 227.215072 
L 110.865987 228.084891 
L 110.515999 229.147451 
L 110.578106 229.792614 
L 110.795481 230.114503 
L 111.122749 230.315526 
L 112.152652 230.49753 
L 114.645051 230.475101 
L 124.185207 230.262158 
L 132.487914 230.342291 
L 158.437538 230.800783 
L 166.243702 230.688393 
L 166.243702 230.688393 
" style="fill:none;stroke:#000000;stroke-linecap:square;stroke-opacity:0.7;stroke-width:1.2;"/>
   </g>
   <g id="line2d_12">
    <path clip-path="url(#p41c0b50b10)" d="M 166.214598 211.646931 
L 161.052599 210.508156 
L 153.312483 208.551516 
L 136.962397 204.301295 
L 133.120059 203.57685 
L 130.10132 203.230771 
L 127.868712 203.151302 
L 125.677919 203.244686 
L 123.07469 203.588307 
L 120.413843 204.203871 
L 117.823026 205.079582 
L 115.852993 205.969794 
L 114.087368 206.996582 
L 112.380438 208.311288 
L 111.399917 209.321241 
L 110.68605 210.324463 
L 110.316987 211.192967 
L 110.285774 211.730226 
L 110.42253 212.038717 
L 110.854108 212.326878 
L 111.50034 212.464695 
L 112.963616 212.496883 
L 116.330905 212.25703 
L 125.299126 211.549354 
L 129.971955 211.425769 
L 135.686782 211.542618 
L 150.736981 211.993554 
L 158.465115 211.959304 
L 165.674719 211.69661 
L 166.209729 211.66715 
L 166.209729 211.66715 
" style="fill:none;stroke:#000000;stroke-linecap:square;stroke-opacity:0.7;stroke-width:1.2;"/>
   </g>
   <g id="line2d_13">
    <path clip-path="url(#p41c0b50b10)" d="M 166.241978 192.381404 
L 152.901097 189.180069 
L 144.705848 187.438962 
L 138.773498 186.404542 
L 133.944599 185.778598 
L 129.707056 185.455168 
L 126.115025 185.40271 
L 122.580941 185.603121 
L 119.827003 185.972626 
L 117.644944 186.434725 
L 115.591577 187.055812 
L 113.902255 187.761891 
L 112.489327 188.557739 
L 111.128431 189.622319 
L 110.213657 190.712835 
L 109.899099 191.518532 
L 109.964697 191.899106 
L 110.287227 192.201679 
L 110.690691 192.355424 
L 112.697398 192.607913 
L 118.20642 192.813237 
L 137.176888 193.285358 
L 145.355036 193.151965 
L 161.709429 192.603051 
L 166.240308 192.435805 
L 166.240308 192.435805 
" style="fill:none;stroke:#000000;stroke-linecap:square;stroke-opacity:0.7;stroke-width:1.2;"/>
   </g>
   <g id="line2d_14">
    <path clip-path="url(#p41c0b50b10)" d="M 166.223623 173.281555 
L 160.450337 171.694032 
L 154.637876 170.306565 
L 149.77219 169.33918 
L 144.801846 168.584659 
L 140.45105 168.130286 
L 135.394015 167.825918 
L 130.292171 167.747809 
L 125.544415 167.909188 
L 121.912817 168.248786 
L 119.273855 168.676421 
L 116.646194 169.33342 
L 114.546996 170.109089 
L 112.868293 170.985737 
L 111.621136 171.908035 
L 111.075144 172.480524 
L 110.674401 173.250901 
L 110.721843 173.645356 
L 110.996429 173.934762 
L 111.64445 174.194849 
L 113.203499 174.426261 
L 116.479709 174.551843 
L 125.762956 174.546551 
L 147.14712 174.40447 
L 156.200381 174.039491 
L 164.511874 173.495269 
L 166.227195 173.350851 
L 166.227195 173.350851 
" style="fill:none;stroke:#000000;stroke-linecap:square;stroke-opacity:0.7;stroke-width:1.2;"/>
   </g>
   <g id="line2d_15">
    <path clip-path="url(#p41c0b50b10)" d="M 166.214964 154.211509 
L 161.028754 152.792877 
L 155.187757 151.427933 
L 150.308057 150.50558 
L 145.609133 149.846304 
L 140.952797 149.414821 
L 135.813538 149.162562 
L 130.610955 149.12539 
L 125.699872 149.318229 
L 122.176637 149.645999 
L 118.74879 150.197147 
L 116.411115 150.769328 
L 114.171026 151.544236 
L 112.51005 152.345158 
L 111.191956 153.257427 
L 110.57953 154.009396 
L 110.533054 154.380541 
L 110.7258 154.670068 
L 111.198035 154.924422 
L 111.862845 155.110491 
L 114.195468 155.403701 
L 118.328396 155.559754 
L 126.819209 155.570679 
L 146.995421 155.422851 
L 155.32998 155.07578 
L 163.4906 154.512164 
L 166.218249 154.263581 
L 166.218249 154.263581 
" style="fill:none;stroke:#000000;stroke-linecap:square;stroke-opacity:0.7;stroke-width:1.2;"/>
   </g>
   <g id="line2d_16">
    <path clip-path="url(#p41c0b50b10)" d="M 166.204771 135.181897 
L 158.568793 133.948654 
L 139.132809 130.720896 
L 133.390724 130.032794 
L 128.425424 129.654392 
L 124.493168 129.568125 
L 121.261503 129.716393 
L 118.741417 130.044394 
L 116.513393 130.560637 
L 114.68117 131.195279 
L 113.015964 131.976439 
L 111.56872 132.855368 
L 110.274252 133.883876 
L 109.534887 134.723403 
L 109.238392 135.467415 
L 109.274991 135.738124 
L 109.569301 136.123036 
L 109.813652 136.277341 
L 111.029916 136.652005 
L 112.83905 136.864751 
L 115.63408 136.944827 
L 120.577493 136.825571 
L 131.416565 136.506803 
L 153.246729 136.21915 
L 160.431204 135.792207 
L 166.204289 135.231754 
L 166.204289 135.231754 
" style="fill:none;stroke:#000000;stroke-linecap:square;stroke-opacity:0.7;stroke-width:1.2;"/>
   </g>
   <g id="line2d_17">
    <path clip-path="url(#p41c0b50b10)" d="M 166.214397 116.049969 
L 156.273098 114.233103 
L 148.665152 113.033144 
L 143.130449 112.364735 
L 137.748959 111.939135 
L 132.116726 111.736691 
L 127.122735 111.781771 
L 122.939342 112.037602 
L 119.656201 112.448571 
L 117.026712 112.978703 
L 114.601874 113.709021 
L 112.782684 114.510323 
L 111.690333 115.215636 
L 111.205826 115.747768 
L 111.142844 116.089898 
L 111.301303 116.329783 
L 111.825647 116.607301 
L 113.286007 116.949412 
L 116.227371 117.278673 
L 121.180132 117.538727 
L 130.11131 117.730844 
L 139.429063 117.736504 
L 146.996496 117.502461 
L 155.354723 117.010317 
L 165.153348 116.205898 
L 166.211368 116.105861 
L 166.211368 116.105861 
" style="fill:none;stroke:#000000;stroke-linecap:square;stroke-opacity:0.7;stroke-width:1.2;"/>
   </g>
   <g id="line2d_18">
    <path clip-path="url(#p41c0b50b10)" d="M 166.205959 96.971003 
L 158.905298 95.625129 
L 151.512101 94.478255 
L 145.755013 93.800888 
L 139.884168 93.346263 
L 133.653976 93.099095 
L 127.487271 93.08452 
L 122.680605 93.308719 
L 119.150041 93.708257 
L 116.481882 94.218809 
L 114.309896 94.82656 
L 112.328186 95.613756 
L 111.16844 96.280174 
L 110.634929 96.837214 
L 110.634168 97.067126 
L 110.889252 97.307314 
L 111.436126 97.527337 
L 113.078589 97.884092 
L 116.27973 98.275919 
L 120.492997 98.56457 
L 126.947732 98.772291 
L 136.717422 98.845405 
L 144.370296 98.688835 
L 152.266602 98.28546 
L 160.509282 97.630329 
L 166.203726 97.020232 
L 166.203726 97.020232 
" style="fill:none;stroke:#000000;stroke-linecap:square;stroke-opacity:0.7;stroke-width:1.2;"/>
   </g>
   <g id="line2d_19">
    <path clip-path="url(#p41c0b50b10)" d="M 166.20405 77.910994 
L 157.037154 76.433985 
L 150.406783 75.567277 
L 144.994522 75.067281 
L 138.939127 74.741637 
L 131.863229 74.599002 
L 125.89178 74.667035 
L 121.349067 74.928295 
L 117.895411 75.364029 
L 115.102046 75.966317 
L 113.263804 76.559309 
L 111.844824 77.224935 
L 111.228503 77.710014 
L 111.139534 77.970952 
L 111.282723 78.17833 
L 111.792701 78.431113 
L 113.156276 78.787895 
L 115.830528 79.210678 
L 119.486011 79.56088 
L 124.581143 79.81853 
L 132.164538 79.947896 
L 140.343944 79.879403 
L 147.895181 79.588253 
L 155.456031 79.078903 
L 162.829973 78.363422 
L 166.195995 77.940196 
L 166.195995 77.940196 
" style="fill:none;stroke:#000000;stroke-linecap:square;stroke-opacity:0.7;stroke-width:1.2;"/>
   </g>
   <g id="line2d_20">
    <path clip-path="url(#p41c0b50b10)" d="M 166.194031 58.839829 
L 146.870622 56.670909 
L 139.780923 56.123612 
L 132.060395 55.759879 
L 125.826318 55.655028 
L 121.751308 55.772459 
L 118.500358 56.076877 
L 115.577442 56.585055 
L 113.456538 57.139785 
L 111.376947 57.924616 
L 110.391173 58.524919 
L 110.186257 58.883312 
L 110.305139 59.106948 
L 110.96507 59.450319 
L 112.351685 59.816609 
L 115.250198 60.266637 
L 119.099894 60.605408 
L 124.360489 60.827261 
L 132.398887 60.92111 
L 141.176243 60.829078 
L 148.658913 60.517342 
L 156.081033 59.988362 
L 162.919808 59.292795 
L 166.184176 58.863033 
L 166.184176 58.863033 
" style="fill:none;stroke:#000000;stroke-linecap:square;stroke-opacity:0.7;stroke-width:1.2;"/>
   </g>
   <g id="line2d_21">
    <path clip-path="url(#p41c0b50b10)" d="M 229.880652 230.602634 
L 225.762526 229.058663 
L 220.663348 227.372207 
L 215.734469 225.979012 
L 211.133551 224.938002 
L 207.393097 224.299096 
L 203.236442 223.809154 
L 199.053699 223.545237 
L 195.194248 223.509392 
L 191.256867 223.694523 
L 187.42322 224.119495 
L 184.665853 224.607277 
L 182.023353 225.266296 
L 179.854307 226.004605 
L 178.183387 226.750055 
L 176.331931 227.861067 
L 175.20638 228.806871 
L 174.516016 229.658685 
L 174.238651 230.363967 
L 174.288819 230.754559 
L 174.520989 231.030992 
L 174.920708 231.223546 
L 176.224802 231.414422 
L 178.382903 231.402231 
L 194.598038 230.740342 
L 205.268876 230.844227 
L 217.495377 230.85632 
L 229.511134 230.639179 
L 229.885979 230.628813 
L 229.885979 230.628813 
" style="fill:none;stroke:#000000;stroke-linecap:square;stroke-opacity:0.7;stroke-width:1.2;"/>
   </g>
   <g id="line2d_22">
    <path clip-path="url(#p41c0b50b10)" d="M 229.900178 211.477483 
L 218.086671 208.218596 
L 211.727769 206.695718 
L 207.154991 205.806188 
L 202.858143 205.171516 
L 198.561377 204.764353 
L 194.60257 204.628837 
L 190.939666 204.748989 
L 187.562029 205.106458 
L 184.912817 205.583699 
L 182.1275 206.322179 
L 179.874891 207.164134 
L 178.333926 207.928844 
L 176.647082 209.069546 
L 175.69391 210.018459 
L 175.278807 210.673465 
L 175.154178 211.2328 
L 175.29104 211.563216 
L 175.65712 211.790181 
L 176.59822 211.956316 
L 178.891693 212.00769 
L 191.185777 212.087289 
L 202.278315 212.180812 
L 212.961111 211.980295 
L 229.891122 211.52354 
L 229.891122 211.52354 
" style="fill:none;stroke:#000000;stroke-linecap:square;stroke-opacity:0.7;stroke-width:1.2;"/>
   </g>
   <g id="line2d_23">
    <path clip-path="url(#p41c0b50b10)" d="M 229.88489 192.393987 
L 223.884705 191.05401 
L 207.940741 187.373132 
L 203.154513 186.54737 
L 198.953547 186.054694 
L 195.253909 185.852909 
L 192.029001 185.890175 
L 188.799138 186.154332 
L 185.870291 186.613451 
L 183.006368 187.298901 
L 180.378789 188.19337 
L 178.739766 188.931918 
L 177.101192 189.884998 
L 175.989402 190.743842 
L 175.141149 191.703299 
L 174.91899 192.218677 
L 174.968808 192.602536 
L 175.176355 192.81513 
L 175.738764 193.02976 
L 176.996296 193.186547 
L 179.93807 193.238831 
L 221.543184 192.75437 
L 229.879888 192.458346 
L 229.879888 192.458346 
" style="fill:none;stroke:#000000;stroke-linecap:square;stroke-opacity:0.7;stroke-width:1.2;"/>
   </g>
   <g id="line2d_24">
    <path clip-path="url(#p41c0b50b10)" d="M 229.879802 173.273777 
L 216.648616 170.173498 
L 210.754711 169.000945 
L 205.394681 168.171172 
L 200.731301 167.673812 
L 196.478877 167.421748 
L 192.121226 167.394155 
L 188.495213 167.590503 
L 185.462645 167.94988 
L 182.987138 168.413772 
L 180.44937 169.104197 
L 178.675766 169.767546 
L 176.914283 170.651611 
L 175.555462 171.602597 
L 174.842772 172.316173 
L 174.406416 173.095815 
L 174.396274 173.481487 
L 174.615793 173.822192 
L 174.964631 174.030944 
L 175.772748 174.255665 
L 177.230073 174.421209 
L 180.782801 174.524575 
L 193.88886 174.489326 
L 206.222033 174.360718 
L 217.240119 173.996123 
L 229.30523 173.378611 
L 229.877398 173.342516 
L 229.877398 173.342516 
" style="fill:none;stroke:#000000;stroke-linecap:square;stroke-opacity:0.7;stroke-width:1.2;"/>
   </g>
   <g id="line2d_25">
    <path clip-path="url(#p41c0b50b10)" d="M 229.876159 154.253685 
L 225.406766 153.671297 
L 219.152576 152.596212 
L 211.186069 150.974421 
L 200.596641 148.801253 
L 196.404437 148.176943 
L 193.636763 147.921598 
L 190.184459 147.832521 
L 187.170708 147.996395 
L 184.500999 148.352431 
L 182.202322 148.841617 
L 179.64417 149.636158 
L 177.658385 150.506003 
L 175.901743 151.572059 
L 174.783401 152.524633 
L 174.015782 153.530522 
L 173.786019 154.278125 
L 173.895536 154.748277 
L 174.161517 155.044925 
L 174.615758 155.29055 
L 175.278647 155.479433 
L 177.072525 155.684756 
L 179.840873 155.744288 
L 191.302705 155.574195 
L 207.379728 155.273718 
L 222.044002 154.65954 
L 229.8769 154.285145 
L 229.8769 154.285145 
" style="fill:none;stroke:#000000;stroke-linecap:square;stroke-opacity:0.7;stroke-width:1.2;"/>
   </g>
   <g id="line2d_26">
    <path clip-path="url(#p41c0b50b10)" d="M 229.875172 135.1117 
L 223.090637 133.977187 
L 204.349825 130.71498 
L 199.289488 130.115448 
L 195.005291 129.801862 
L 191.075253 129.723347 
L 187.44108 129.889596 
L 184.595158 130.230267 
L 181.74918 130.812899 
L 179.392068 131.539665 
L 177.284283 132.457504 
L 175.626107 133.465413 
L 174.739871 134.215709 
L 174.259229 134.873198 
L 174.204649 135.208449 
L 174.424968 135.540417 
L 175.045311 135.820673 
L 176.32412 136.081922 
L 178.92599 136.349175 
L 183.849522 136.60578 
L 192.698919 136.820187 
L 200.263083 136.814687 
L 207.658838 136.571335 
L 218.343073 135.956004 
L 229.874021 135.16986 
L 229.874021 135.16986 
" style="fill:none;stroke:#000000;stroke-linecap:square;stroke-opacity:0.7;stroke-width:1.2;"/>
   </g>
   <g id="line2d_27">
    <path clip-path="url(#p41c0b50b10)" d="M 229.86224 116.044635 
L 220.067897 114.275172 
L 212.375973 113.092605 
L 206.731155 112.428678 
L 201.172837 111.98022 
L 194.532376 111.687644 
L 188.850741 111.643098 
L 184.350129 111.823922 
L 181.279651 112.168934 
L 178.883384 112.653169 
L 176.936648 113.251054 
L 175.147807 114.039061 
L 173.800501 114.896544 
L 173.063474 115.630939 
L 172.83222 116.13175 
L 172.898224 116.544056 
L 173.223772 116.873812 
L 173.828829 117.15892 
L 174.959669 117.445107 
L 177.009135 117.714469 
L 180.518792 117.914451 
L 186.15621 117.976326 
L 198.164822 117.811067 
L 209.181719 117.476476 
L 219.167122 116.952137 
L 228.038194 116.270676 
L 229.862312 116.095428 
L 229.862312 116.095428 
" style="fill:none;stroke:#000000;stroke-linecap:square;stroke-opacity:0.7;stroke-width:1.2;"/>
   </g>
   <g id="line2d_28">
    <path clip-path="url(#p41c0b50b10)" d="M 229.85691 96.983348 
L 219.134283 95.405423 
L 209.119403 93.988389 
L 203.59477 93.412573 
L 198.377036 93.064925 
L 192.996277 92.920853 
L 188.820298 92.996423 
L 185.024242 93.274851 
L 181.764784 93.753151 
L 179.061873 94.399217 
L 177.015995 95.119421 
L 175.7373 95.74376 
L 174.747136 96.466846 
L 174.476861 96.893795 
L 174.525233 97.229399 
L 174.876095 97.536804 
L 175.855505 97.903341 
L 177.488748 98.231143 
L 179.965001 98.523533 
L 184.429088 98.794521 
L 190.573231 98.920929 
L 199.847316 98.879175 
L 208.210993 98.623697 
L 217.09976 98.111018 
L 226.899245 97.319351 
L 229.857511 97.030391 
L 229.857511 97.030391 
" style="fill:none;stroke:#000000;stroke-linecap:square;stroke-opacity:0.7;stroke-width:1.2;"/>
   </g>
   <g id="line2d_29">
    <path clip-path="url(#p41c0b50b10)" d="M 229.858662 77.912664 
L 219.664519 76.698424 
L 206.031641 75.07973 
L 198.849585 74.463647 
L 191.617094 74.063606 
L 186.257437 73.97232 
L 182.955955 74.12554 
L 180.63884 74.415047 
L 178.703213 74.825078 
L 176.743093 75.454516 
L 175.177197 76.184349 
L 174.049391 76.939503 
L 173.415027 77.621945 
L 173.254436 78.025389 
L 173.307367 78.383461 
L 173.58138 78.701881 
L 174.379022 79.096565 
L 175.700385 79.432062 
L 178.070669 79.758429 
L 181.349705 79.981097 
L 186.702855 80.0852 
L 195.606794 79.982896 
L 206.452558 79.663459 
L 216.058704 79.152173 
L 224.071644 78.531438 
L 229.844859 77.925036 
L 229.844859 77.925036 
" style="fill:none;stroke:#000000;stroke-linecap:square;stroke-opacity:0.7;stroke-width:1.2;"/>
   </g>
   <g id="line2d_30">
    <path clip-path="url(#p41c0b50b10)" d="M 229.850866 58.829495 
L 213.360238 56.937725 
L 206.30246 56.344084 
L 199.759916 56.020552 
L 193.922659 55.928578 
L 188.598613 56.049121 
L 184.33152 56.367833 
L 180.891861 56.834844 
L 177.821405 57.476949 
L 175.963537 58.051965 
L 175.057773 58.504216 
L 174.855537 58.810688 
L 174.948038 58.993365 
L 175.505127 59.328706 
L 176.430652 59.651093 
L 178.618904 60.153507 
L 181.619602 60.594515 
L 185.634807 60.942944 
L 190.34133 61.13407 
L 196.868028 61.158579 
L 204.290655 60.948866 
L 212.881974 60.470064 
L 221.802737 59.758848 
L 228.401846 59.04137 
L 229.843101 58.850219 
L 229.843101 58.850219 
" style="fill:none;stroke:#000000;stroke-linecap:square;stroke-opacity:0.7;stroke-width:1.2;"/>
   </g>
   <g id="line2d_31">
    <path clip-path="url(#p41c0b50b10)" d="M 293.540236 230.617133 
L 287.080568 228.487155 
L 280.25678 226.455323 
L 274.889214 225.067832 
L 270.362659 224.10212 
L 265.989754 223.389387 
L 261.867626 222.951821 
L 258.269122 222.791863 
L 255.287903 222.844977 
L 252.055311 223.121268 
L 249.07538 223.604211 
L 246.194217 224.318142 
L 244.162608 225.007891 
L 242.188488 225.882708 
L 240.663266 226.759711 
L 239.477958 227.631989 
L 238.608139 228.455471 
L 237.838378 229.486637 
L 237.578927 230.089745 
L 237.574587 230.780885 
L 237.80152 231.095502 
L 238.347293 231.368551 
L 239.294347 231.53663 
L 241.173554 231.589365 
L 245.27941 231.396202 
L 256.743018 230.750027 
L 263.794435 230.634435 
L 280.948485 230.706697 
L 293.540328 230.644127 
L 293.540328 230.644127 
" style="fill:none;stroke:#000000;stroke-linecap:square;stroke-opacity:0.7;stroke-width:1.2;"/>
   </g>
   <g id="line2d_32">
    <path clip-path="url(#p41c0b50b10)" d="M 293.543592 211.504109 
L 286.340039 209.526949 
L 278.151736 207.488328 
L 271.289444 206.006057 
L 266.011651 205.074736 
L 261.458225 204.469979 
L 257.557812 204.146042 
L 253.755791 204.060684 
L 250.623222 204.214243 
L 247.954867 204.5494 
L 245.580367 205.05179 
L 243.64849 205.651318 
L 241.765099 206.466837 
L 240.111545 207.447733 
L 238.764798 208.507164 
L 237.733167 209.562349 
L 236.958482 210.643417 
L 236.650062 211.327445 
L 236.597674 212.054666 
L 236.82083 212.44709 
L 236.958946 212.565301 
L 237.902428 212.928714 
L 239.401427 213.078942 
L 241.680163 213.030978 
L 245.999656 212.65576 
L 254.965078 211.829155 
L 259.881913 211.623989 
L 266.838194 211.594589 
L 289.636503 211.68454 
L 293.532262 211.558363 
L 293.532262 211.558363 
" style="fill:none;stroke:#000000;stroke-linecap:square;stroke-opacity:0.7;stroke-width:1.2;"/>
   </g>
   <g id="line2d_33">
    <path clip-path="url(#p41c0b50b10)" d="M 293.532375 192.392477 
L 287.993229 191.073055 
L 274.014169 187.675633 
L 269.049354 186.743636 
L 264.72652 186.180815 
L 260.872796 185.919933 
L 257.202055 185.917722 
L 253.958086 186.141797 
L 250.612925 186.618431 
L 247.501332 187.313113 
L 244.638298 188.212007 
L 242.202684 189.244594 
L 240.458543 190.219841 
L 239.173642 191.172147 
L 238.289018 192.165379 
L 238.107029 192.680526 
L 238.153595 192.941118 
L 238.495071 193.278417 
L 239.010018 193.479036 
L 239.897328 193.64625 
L 242.016703 193.775384 
L 245.44588 193.729563 
L 265.21788 193.123737 
L 280.249766 192.869646 
L 293.52545 192.455947 
L 293.52545 192.455947 
" style="fill:none;stroke:#000000;stroke-linecap:square;stroke-opacity:0.7;stroke-width:1.2;"/>
   </g>
   <g id="line2d_34">
    <path clip-path="url(#p41c0b50b10)" d="M 293.549391 173.251478 
L 287.101787 171.931123 
L 269.51178 168.236444 
L 264.340575 167.456415 
L 260.307694 167.062155 
L 256.797278 166.914625 
L 253.0972 166.998418 
L 249.973797 167.295483 
L 247.094768 167.791221 
L 244.35026 168.520142 
L 242.479118 169.215588 
L 240.650449 170.129109 
L 239.24581 171.092697 
L 238.41821 171.880089 
L 237.955424 172.53091 
L 237.777466 173.267016 
L 237.936128 173.609868 
L 238.326254 173.885284 
L 239.406525 174.174543 
L 241.631802 174.379555 
L 247.235707 174.545816 
L 257.547349 174.631541 
L 265.072399 174.492415 
L 277.289254 173.978486 
L 293.541748 173.331707 
L 293.541748 173.331707 
" style="fill:none;stroke:#000000;stroke-linecap:square;stroke-opacity:0.7;stroke-width:1.2;"/>
   </g>
   <g id="line2d_35">
    <path clip-path="url(#p41c0b50b10)" d="M 293.529694 154.171729 
L 285.89721 152.257348 
L 279.575781 150.86799 
L 274.438279 149.975467 
L 270.417035 149.489707 
L 266.28001 149.197535 
L 261.521635 149.093028 
L 256.494376 149.218001 
L 252.020698 149.542045 
L 248.395409 150.001379 
L 245.330359 150.599073 
L 243.152445 151.203757 
L 241.042613 152.019265 
L 239.643241 152.778795 
L 238.679501 153.548951 
L 238.331862 154.103449 
L 238.354942 154.41698 
L 238.60529 154.687211 
L 239.271573 154.972048 
L 240.999961 155.29748 
L 243.573421 155.527818 
L 248.648713 155.736684 
L 257.200653 155.84114 
L 265.344543 155.721199 
L 274.325504 155.341522 
L 292.927531 154.262758 
L 293.529271 154.226367 
L 293.529271 154.226367 
" style="fill:none;stroke:#000000;stroke-linecap:square;stroke-opacity:0.7;stroke-width:1.2;"/>
   </g>
   <g id="line2d_36">
    <path clip-path="url(#p41c0b50b10)" d="M 293.528902 135.092858 
L 287.828977 133.749987 
L 281.481432 132.472358 
L 276.265665 131.635641 
L 271.926479 131.136615 
L 266.728907 130.789068 
L 261.012632 130.674283 
L 255.474941 130.786222 
L 250.44757 131.107555 
L 246.906381 131.540733 
L 244.02248 132.117468 
L 241.781523 132.801096 
L 240.018847 133.604708 
L 239.15478 134.189362 
L 238.677412 134.701535 
L 238.540803 135.175192 
L 238.699763 135.481533 
L 239.064817 135.728468 
L 239.532969 135.906096 
L 241.230555 136.236821 
L 243.932128 136.482982 
L 250.247433 136.760922 
L 259.36853 136.958724 
L 265.977743 136.900595 
L 272.649937 136.608257 
L 283.023661 135.882965 
L 293.530862 135.142741 
L 293.530862 135.142741 
" style="fill:none;stroke:#000000;stroke-linecap:square;stroke-opacity:0.7;stroke-width:1.2;"/>
   </g>
   <g id="line2d_37">
    <path clip-path="url(#p41c0b50b10)" d="M 293.512098 116.032866 
L 275.517771 112.905263 
L 270.320675 112.257779 
L 264.99189 111.833526 
L 259.538275 111.63441 
L 253.699794 111.655796 
L 249.258339 111.880157 
L 246.194484 112.223789 
L 243.369568 112.773451 
L 240.936445 113.516387 
L 239.2057 114.27712 
L 237.990126 115.030386 
L 237.342243 115.664253 
L 237.154647 116.169673 
L 237.234425 116.452299 
L 237.607874 116.808483 
L 238.289718 117.119886 
L 239.769804 117.483905 
L 242.468654 117.8123 
L 246.417008 117.998771 
L 252.115132 118.014447 
L 263.683149 117.770182 
L 274.145288 117.359321 
L 285.801523 116.667357 
L 293.515619 116.081564 
L 293.515619 116.081564 
" style="fill:none;stroke:#000000;stroke-linecap:square;stroke-opacity:0.7;stroke-width:1.2;"/>
   </g>
   <g id="line2d_38">
    <path clip-path="url(#p41c0b50b10)" d="M 293.510097 96.972484 
L 281.762987 95.122314 
L 274.191804 94.043401 
L 269.075897 93.527812 
L 263.609886 93.214907 
L 257.500009 93.11707 
L 252.281647 93.241735 
L 248.30138 93.536922 
L 245.135988 93.990203 
L 242.502319 94.610896 
L 240.526772 95.320151 
L 239.370164 95.92099 
L 238.490822 96.665627 
L 238.333234 97.117297 
L 238.480979 97.423778 
L 238.831748 97.677207 
L 239.802542 98.028612 
L 241.54831 98.371936 
L 244.048106 98.657722 
L 248.3832 98.911864 
L 254.599347 99.022381 
L 262.779932 98.936192 
L 270.795018 98.637468 
L 281.328087 97.996708 
L 292.107507 97.139946 
L 293.512126 97.009101 
L 293.512126 97.009101 
" style="fill:none;stroke:#000000;stroke-linecap:square;stroke-opacity:0.7;stroke-width:1.2;"/>
   </g>
   <g id="line2d_39">
    <path clip-path="url(#p41c0b50b10)" d="M 293.51554 77.85974 
L 273.966899 75.255532 
L 267.034991 74.604253 
L 260.547572 74.226487 
L 254.318483 74.09173 
L 249.691303 74.215085 
L 246.238681 74.522861 
L 243.186124 75.029481 
L 240.797296 75.649596 
L 239.054461 76.298433 
L 237.744088 77.003811 
L 237.102883 77.568465 
L 236.933572 78.016861 
L 237.063316 78.299006 
L 237.649444 78.666215 
L 238.80317 79.012168 
L 240.80074 79.362267 
L 244.094866 79.70431 
L 249.283486 79.979354 
L 256.455344 80.105104 
L 264.31156 80.026256 
L 271.500327 79.726433 
L 280.443279 79.107444 
L 291.975866 78.072469 
L 293.507724 77.916073 
L 293.507724 77.916073 
" style="fill:none;stroke:#000000;stroke-linecap:square;stroke-opacity:0.7;stroke-width:1.2;"/>
   </g>
   <g id="line2d_40">
    <path clip-path="url(#p41c0b50b10)" d="M 293.507082 58.802216 
L 286.933079 57.879932 
L 280.21006 57.13888 
L 273.779485 56.651333 
L 267.234859 56.399383 
L 259.56535 56.348363 
L 252.532455 56.500589 
L 247.903039 56.781934 
L 244.191849 57.216075 
L 241.482145 57.746029 
L 239.944354 58.230262 
L 239.219234 58.644062 
L 239.069477 59.003394 
L 239.241366 59.236468 
L 240.02746 59.62461 
L 242.097195 60.130767 
L 245.176624 60.557158 
L 249.486492 60.901922 
L 255.683931 61.149546 
L 262.373114 61.189231 
L 269.27321 60.988392 
L 276.593499 60.540347 
L 285.407538 59.76835 
L 293.106708 58.886092 
L 293.508824 58.831825 
L 293.508824 58.831825 
" style="fill:none;stroke:#000000;stroke-linecap:square;stroke-opacity:0.7;stroke-width:1.2;"/>
   </g>
   <g id="line2d_41">
    <path clip-path="url(#p41c0b50b10)" d="M 357.200601 230.618098 
L 347.061377 227.414879 
L 339.989489 225.389479 
L 334.465331 224.049171 
L 329.924575 223.189421 
L 325.994182 222.684603 
L 322.803529 222.487007 
L 319.797499 222.512546 
L 316.424394 222.815208 
L 313.846147 223.253981 
L 311.129851 223.927391 
L 308.477818 224.832802 
L 306.678155 225.630141 
L 304.768036 226.714208 
L 303.243335 227.873703 
L 302.48839 228.637362 
L 301.815555 229.604662 
L 301.58757 230.241163 
L 301.65079 230.809543 
L 301.848406 231.037307 
L 302.127959 231.186439 
L 302.945349 231.353456 
L 304.864919 231.409062 
L 309.929485 231.245782 
L 329.267445 230.540239 
L 338.959487 230.467553 
L 354.271432 230.616743 
L 357.197357 230.652628 
L 357.197357 230.652628 
" style="fill:none;stroke:#000000;stroke-linecap:square;stroke-opacity:0.7;stroke-width:1.2;"/>
   </g>
   <g id="line2d_42">
    <path clip-path="url(#p41c0b50b10)" d="M 357.203326 211.450705 
L 345.342689 208.124647 
L 339.493967 206.691964 
L 334.723252 205.749336 
L 330.481355 205.142468 
L 326.224355 204.779279 
L 322.329568 204.681033 
L 318.497006 204.829957 
L 315.311455 205.167071 
L 312.336536 205.687883 
L 309.757809 206.337667 
L 307.280665 207.195179 
L 305.519638 208.008233 
L 304.180852 208.807156 
L 303.052579 209.70047 
L 302.446208 210.368594 
L 302.062683 211.11557 
L 302.099023 211.559113 
L 302.315953 211.805749 
L 302.796945 212.033142 
L 303.979426 212.269811 
L 306.518188 212.448181 
L 311.882982 212.497589 
L 324.879339 212.316198 
L 338.973085 211.891133 
L 352.978714 211.551509 
L 357.19471 211.507889 
L 357.19471 211.507889 
" style="fill:none;stroke:#000000;stroke-linecap:square;stroke-opacity:0.7;stroke-width:1.2;"/>
   </g>
   <g id="line2d_43">
    <path clip-path="url(#p41c0b50b10)" d="M 357.193 192.350391 
L 342.806703 188.761229 
L 337.000966 187.519007 
L 331.993807 186.670978 
L 327.439302 186.138778 
L 323.478979 185.887087 
L 319.664226 185.851371 
L 316.194994 186.020669 
L 312.806465 186.409933 
L 309.682041 187.023625 
L 307.079982 187.795963 
L 304.975836 188.675554 
L 303.256904 189.658903 
L 302.182146 190.486564 
L 301.290356 191.491725 
L 300.999234 192.183953 
L 301.023276 192.597941 
L 301.205987 192.910768 
L 301.587659 193.199368 
L 302.325126 193.477728 
L 303.320178 193.669743 
L 305.635845 193.838446 
L 309.905507 193.815902 
L 320.45835 193.415332 
L 337.369654 192.860512 
L 357.189926 192.412627 
L 357.189926 192.412627 
" style="fill:none;stroke:#000000;stroke-linecap:square;stroke-opacity:0.7;stroke-width:1.2;"/>
   </g>
   <g id="line2d_44">
    <path clip-path="url(#p41c0b50b10)" d="M 357.188943 173.241559 
L 351.315482 171.960886 
L 334.955129 168.283938 
L 331.077229 167.682968 
L 327.145284 167.310541 
L 323.421359 167.208507 
L 319.797532 167.361056 
L 316.88762 167.674165 
L 313.3996 168.290157 
L 310.193471 169.120645 
L 307.462311 170.087628 
L 305.337516 171.092964 
L 303.824555 172.060393 
L 302.948503 172.868769 
L 302.665195 173.441036 
L 302.752557 173.674711 
L 302.972881 173.832805 
L 303.891409 174.088802 
L 306.27609 174.363348 
L 311.351292 174.665234 
L 319.57392 174.932706 
L 325.503975 174.927189 
L 331.511794 174.673095 
L 354.4604 173.359013 
L 357.187966 173.323902 
L 357.187966 173.323902 
" style="fill:none;stroke:#000000;stroke-linecap:square;stroke-opacity:0.7;stroke-width:1.2;"/>
   </g>
   <g id="line2d_45">
    <path clip-path="url(#p41c0b50b10)" d="M 357.184483 154.170901 
L 349.590217 152.586175 
L 338.040703 150.200616 
L 333.040866 149.420851 
L 328.85199 148.992564 
L 324.99411 148.796859 
L 320.76627 148.803406 
L 316.746985 149.036163 
L 313.091373 149.468069 
L 309.714416 150.100967 
L 306.8004 150.900041 
L 304.475185 151.810523 
L 302.896047 152.705185 
L 302.00406 153.516782 
L 301.766383 154.091742 
L 301.893727 154.461035 
L 302.392618 154.820184 
L 303.207222 155.089404 
L 304.771009 155.356908 
L 307.873229 155.607035 
L 313.536057 155.790044 
L 321.824148 155.836126 
L 328.829862 155.679226 
L 337.185221 155.24886 
L 353.833893 154.337936 
L 357.183985 154.232823 
L 357.183985 154.232823 
" style="fill:none;stroke:#000000;stroke-linecap:square;stroke-opacity:0.7;stroke-width:1.2;"/>
   </g>
   <g id="line2d_46">
    <path clip-path="url(#p41c0b50b10)" d="M 357.173037 135.115019 
L 349.246647 133.556711 
L 339.35478 131.630451 
L 334.834654 130.953511 
L 330.671549 130.540562 
L 326.555784 130.34555 
L 322.466495 130.351391 
L 318.072089 130.578539 
L 314.082195 131.010774 
L 311.016234 131.530515 
L 308.140177 132.225083 
L 305.676641 133.064749 
L 303.985876 133.876284 
L 303.111316 134.470288 
L 302.6332 135.038719 
L 302.61113 135.31193 
L 302.826369 135.587086 
L 303.535083 135.90597 
L 305.263028 136.275068 
L 308.091112 136.609727 
L 312.952452 136.928496 
L 319.49435 137.09946 
L 325.495548 137.042795 
L 332.331473 136.742929 
L 347.738214 135.726757 
L 357.175598 135.154736 
L 357.175598 135.154736 
" style="fill:none;stroke:#000000;stroke-linecap:square;stroke-opacity:0.7;stroke-width:1.2;"/>
   </g>
   <g id="line2d_47">
    <path clip-path="url(#p41c0b50b10)" d="M 357.17681 116.01512 
L 348.793168 114.652266 
L 335.623528 112.502101 
L 330.364333 111.892226 
L 325.713384 111.569989 
L 321.112729 111.450444 
L 316.176416 111.54314 
L 312.312426 111.814963 
L 309.248608 112.212514 
L 306.256181 112.838146 
L 304.398658 113.409071 
L 302.702327 114.138155 
L 301.664241 114.770142 
L 300.855273 115.556307 
L 300.65936 116.048651 
L 300.720664 116.391677 
L 300.962975 116.689307 
L 301.465331 116.989436 
L 302.392111 117.297858 
L 304.371223 117.653884 
L 307.221689 117.916538 
L 311.645105 118.092934 
L 318.638001 118.128571 
L 326.921923 117.95833 
L 334.652926 117.585482 
L 349.928275 116.551536 
L 357.171999 116.07706 
L 357.171999 116.07706 
" style="fill:none;stroke:#000000;stroke-linecap:square;stroke-opacity:0.7;stroke-width:1.2;"/>
   </g>
   <g id="line2d_48">
    <path clip-path="url(#p41c0b50b10)" d="M 357.175192 96.946993 
L 346.39558 95.191536 
L 339.182906 94.216693 
L 333.41624 93.655078 
L 327.563993 93.315345 
L 321.279813 93.190885 
L 316.067264 93.298534 
L 312.247539 93.557126 
L 308.794878 93.996858 
L 306.319411 94.498921 
L 304.534774 95.020613 
L 302.879198 95.743274 
L 302.062471 96.336557 
L 301.726366 96.906048 
L 301.763528 97.201916 
L 301.998952 97.49945 
L 302.536236 97.812921 
L 303.68677 98.178744 
L 305.362852 98.498951 
L 308.380053 98.846473 
L 313.070508 99.128734 
L 318.821863 99.249303 
L 325.609139 99.169558 
L 332.921125 98.851877 
L 343.567525 98.124461 
L 357.164115 96.987752 
L 357.164115 96.987752 
" style="fill:none;stroke:#000000;stroke-linecap:square;stroke-opacity:0.7;stroke-width:1.2;"/>
   </g>
   <g id="line2d_49">
    <path clip-path="url(#p41c0b50b10)" d="M 357.169339 77.879831 
L 334.571088 75.091347 
L 328.297025 74.655586 
L 322.510033 74.474551 
L 316.863224 74.509925 
L 312.39731 74.741294 
L 308.56427 75.160934 
L 305.602512 75.692834 
L 303.211413 76.338509 
L 301.760625 76.928121 
L 300.931156 77.516023 
L 300.76922 77.868625 
L 300.815784 78.084524 
L 301.157518 78.439463 
L 302.077727 78.881321 
L 303.564107 79.306798 
L 306.033328 79.747727 
L 309.517674 80.095453 
L 313.664681 80.27336 
L 319.518861 80.284181 
L 327.225218 80.069032 
L 336.869259 79.569969 
L 348.017764 78.768649 
L 357.164862 77.91641 
L 357.164862 77.91641 
" style="fill:none;stroke:#000000;stroke-linecap:square;stroke-opacity:0.7;stroke-width:1.2;"/>
   </g>
   <g id="line2d_50">
    <path clip-path="url(#p41c0b50b10)" d="M 357.168711 58.791712 
L 344.957098 57.597053 
L 331.748674 56.333719 
L 325.173622 55.942889 
L 319.377448 55.835024 
L 314.870488 55.965984 
L 311.157682 56.274049 
L 307.519574 56.811495 
L 304.844723 57.421536 
L 303.101659 58.016332 
L 302.34534 58.453639 
L 302.160518 58.802634 
L 302.31432 59.061636 
L 302.824545 59.377934 
L 304.079705 59.826794 
L 306.246047 60.320638 
L 309.22712 60.747194 
L 313.050194 61.059928 
L 318.193019 61.249099 
L 324.934767 61.257405 
L 331.464866 61.048839 
L 339.337361 60.553472 
L 349.338254 59.680704 
L 357.164576 58.838764 
L 357.164576 58.838764 
" style="fill:none;stroke:#000000;stroke-linecap:square;stroke-opacity:0.7;stroke-width:1.2;"/>
   </g>
   <g id="line2d_51">
    <path clip-path="url(#p41c0b50b10)" d="M 420.860474 230.637584 
L 416.827443 229.119477 
L 411.159176 227.227261 
L 405.157034 225.462347 
L 399.814211 224.134522 
L 395.264825 223.230456 
L 391.144746 222.629435 
L 387.178539 222.287986 
L 383.690377 222.223105 
L 380.518626 222.392855 
L 377.577605 222.773547 
L 374.880098 223.337791 
L 372.830836 223.928562 
L 370.73743 224.713792 
L 368.435874 225.869997 
L 366.785042 226.990481 
L 365.705216 227.948574 
L 364.881111 228.912311 
L 364.405049 229.692316 
L 364.109428 230.690697 
L 364.172387 231.17506 
L 364.409419 231.551185 
L 365.019953 231.922718 
L 365.519336 232.063893 
L 366.608116 232.190358 
L 368.40525 232.16635 
L 371.450617 231.879306 
L 384.141814 230.446138 
L 388.776794 230.239484 
L 395.438392 230.202852 
L 406.506573 230.414194 
L 420.85777 230.648892 
L 420.85777 230.648892 
" style="fill:none;stroke:#000000;stroke-linecap:square;stroke-opacity:0.7;stroke-width:1.2;"/>
   </g>
   <g id="line2d_52">
    <path clip-path="url(#p41c0b50b10)" d="M 420.85555 211.447675 
L 414.438334 209.376144 
L 408.280248 207.584514 
L 403.678644 206.462347 
L 399.70214 205.721515 
L 395.965535 205.254864 
L 392.116489 205.010049 
L 388.561103 204.990722 
L 384.858471 205.18354 
L 381.030437 205.626701 
L 377.950748 206.184182 
L 375.275038 206.839139 
L 372.389496 207.77203 
L 370.047859 208.779103 
L 368.300374 209.784424 
L 367.099048 210.777234 
L 366.758924 211.254666 
L 366.736771 211.690227 
L 366.985802 211.905893 
L 367.646105 212.103286 
L 369.095031 212.26639 
L 372.453132 212.39874 
L 383.378108 212.539078 
L 390.789457 212.460535 
L 398.079484 212.140838 
L 411.982365 211.488986 
L 418.622604 211.428818 
L 420.855793 211.468636 
L 420.855793 211.468636 
" style="fill:none;stroke:#000000;stroke-linecap:square;stroke-opacity:0.7;stroke-width:1.2;"/>
   </g>
   <g id="line2d_53">
    <path clip-path="url(#p41c0b50b10)" d="M 420.85695 192.33241 
L 413.289592 190.271939 
L 406.544439 188.619759 
L 401.463222 187.562609 
L 397.231723 186.860086 
L 392.837212 186.33088 
L 388.303489 186.015571 
L 384.249279 185.95464 
L 380.659769 186.106992 
L 377.114582 186.490187 
L 374.36592 186.984942 
L 371.673401 187.685659 
L 369.172924 188.597981 
L 367.076128 189.659611 
L 365.797003 190.54489 
L 364.951397 191.376272 
L 364.631908 191.917429 
L 364.626403 192.451311 
L 364.838923 192.7124 
L 365.521909 193.038247 
L 366.815589 193.306082 
L 369.148264 193.518831 
L 373.763764 193.657206 
L 383.006461 193.661668 
L 391.103053 193.47481 
L 402.88182 192.920027 
L 414.271033 192.480198 
L 420.843841 192.379403 
L 420.843841 192.379403 
" style="fill:none;stroke:#000000;stroke-linecap:square;stroke-opacity:0.7;stroke-width:1.2;"/>
   </g>
   <g id="line2d_54">
    <path clip-path="url(#p41c0b50b10)" d="M 420.845921 173.234354 
L 407.028398 169.874514 
L 401.625463 168.791077 
L 397.275203 168.129181 
L 392.677435 167.67455 
L 388.347819 167.476057 
L 384.284907 167.492658 
L 380.095927 167.740306 
L 376.196923 168.233398 
L 373.100196 168.865855 
L 370.546076 169.613782 
L 368.318278 170.521835 
L 366.91344 171.303001 
L 365.79614 172.174698 
L 365.276697 172.851626 
L 365.179987 173.331067 
L 365.321417 173.642637 
L 365.788767 173.98235 
L 366.819226 174.322157 
L 368.696792 174.628808 
L 371.512091 174.853464 
L 376.104511 174.994228 
L 383.350198 174.96637 
L 391.229685 174.70123 
L 406.65567 173.853256 
L 417.823929 173.375234 
L 420.840618 173.29261 
L 420.840618 173.29261 
" style="fill:none;stroke:#000000;stroke-linecap:square;stroke-opacity:0.7;stroke-width:1.2;"/>
   </g>
   <g id="line2d_55">
    <path clip-path="url(#p41c0b50b10)" d="M 420.854338 154.139275 
L 411.62627 152.321581 
L 398.50722 149.775062 
L 392.718893 148.900615 
L 388.845692 148.485183 
L 384.511824 148.218435 
L 380.358583 148.195262 
L 377.097616 148.377921 
L 373.84822 148.797516 
L 371.274789 149.367062 
L 369.387577 149.977192 
L 367.578409 150.786824 
L 366.080344 151.718025 
L 365.021361 152.649699 
L 364.434434 153.467338 
L 364.273057 154.086995 
L 364.417328 154.554102 
L 364.683221 154.832846 
L 365.449988 155.227267 
L 367.065594 155.619494 
L 369.798735 155.926097 
L 374.140105 156.110288 
L 379.807491 156.116849 
L 386.945437 155.894368 
L 395.591601 155.374627 
L 409.014859 154.574342 
L 417.914949 154.270497 
L 420.844507 154.224571 
L 420.844507 154.224571 
" style="fill:none;stroke:#000000;stroke-linecap:square;stroke-opacity:0.7;stroke-width:1.2;"/>
   </g>
   <g id="line2d_56">
    <path clip-path="url(#p41c0b50b10)" d="M 420.830592 135.1054 
L 413.071739 133.67956 
L 400.18124 131.314293 
L 395.319611 130.642999 
L 390.864509 130.236152 
L 386.467051 130.042743 
L 382.029545 130.056151 
L 378.06159 130.267116 
L 374.456335 130.67847 
L 371.915145 131.150243 
L 369.439152 131.821126 
L 367.599869 132.516071 
L 366.009401 133.335659 
L 365.091882 133.986037 
L 364.377178 134.790664 
L 364.227674 135.31127 
L 364.282454 135.577937 
L 364.623389 136.000167 
L 365.51563 136.455951 
L 366.935523 136.821855 
L 369.569285 137.152563 
L 373.124563 137.308525 
L 377.94732 137.281212 
L 386.435715 136.979613 
L 400.476645 136.233965 
L 420.824063 135.137995 
L 420.824063 135.137995 
" style="fill:none;stroke:#000000;stroke-linecap:square;stroke-opacity:0.7;stroke-width:1.2;"/>
   </g>
   <g id="line2d_57">
    <path clip-path="url(#p41c0b50b10)" d="M 420.82699 116.016405 
L 399.030657 112.418651 
L 394.443897 111.982652 
L 390.556792 111.788017 
L 385.854549 111.762525 
L 381.159506 111.970197 
L 376.776611 112.411071 
L 373.19491 113.005832 
L 370.331444 113.705878 
L 368.076629 114.504859 
L 366.670305 115.263179 
L 366.126007 115.772788 
L 366.008505 116.150745 
L 366.136958 116.413332 
L 366.373398 116.603669 
L 367.42979 117.02079 
L 369.415133 117.438781 
L 372.841568 117.867659 
L 377.545079 118.198731 
L 383.077061 118.356089 
L 388.934265 118.299062 
L 395.133484 118.01135 
L 403.883289 117.356728 
L 420.824487 116.073477 
L 420.824487 116.073477 
" style="fill:none;stroke:#000000;stroke-linecap:square;stroke-opacity:0.7;stroke-width:1.2;"/>
   </g>
   <g id="line2d_58">
    <path clip-path="url(#p41c0b50b10)" d="M 420.818757 96.939701 
L 405.543097 94.558073 
L 399.851381 93.916277 
L 394.85991 93.569338 
L 388.979296 93.403899 
L 382.435143 93.459392 
L 377.114017 93.708277 
L 373.171754 94.114145 
L 370.499786 94.581246 
L 368.158783 95.202683 
L 366.543663 95.843963 
L 365.55538 96.464963 
L 365.210216 96.919323 
L 365.190205 97.164222 
L 365.371951 97.477853 
L 365.776884 97.76953 
L 366.701213 98.155376 
L 368.308959 98.574542 
L 371.243101 99.033741 
L 374.838809 99.328795 
L 379.702295 99.468639 
L 385.829476 99.397447 
L 393.225429 99.055397 
L 404.479893 98.240742 
L 420.817015 96.956063 
L 420.817015 96.956063 
" style="fill:none;stroke:#000000;stroke-linecap:square;stroke-opacity:0.7;stroke-width:1.2;"/>
   </g>
   <g id="line2d_59">
    <path clip-path="url(#p41c0b50b10)" d="M 420.823548 77.861515 
L 413.370053 76.95443 
L 398.429149 75.096908 
L 393.182146 74.712111 
L 387.8634 74.546999 
L 382.544622 74.591662 
L 377.752303 74.838512 
L 373.709611 75.276331 
L 370.594268 75.836902 
L 368.180941 76.490334 
L 366.746199 77.065972 
L 365.934921 77.624477 
L 365.778105 78.015199 
L 365.936085 78.318482 
L 366.568885 78.721749 
L 367.69013 79.108906 
L 369.725197 79.540495 
L 372.819953 79.930374 
L 376.808435 80.200351 
L 382.366018 80.341121 
L 388.766243 80.276811 
L 395.634026 79.971906 
L 404.422457 79.329889 
L 420.821079 77.906856 
L 420.821079 77.906856 
" style="fill:none;stroke:#000000;stroke-linecap:square;stroke-opacity:0.7;stroke-width:1.2;"/>
   </g>
   <g id="line2d_60">
    <path clip-path="url(#p41c0b50b10)" d="M 420.81612 58.802427 
L 414.029605 58.286826 
L 402.3682 57.14785 
L 392.36489 56.234391 
L 385.237731 55.798484 
L 378.532978 55.575898 
L 374.369951 55.623611 
L 371.221278 55.884759 
L 368.551041 56.348208 
L 366.48182 56.931721 
L 364.902593 57.602434 
L 364.137222 58.081393 
L 363.572234 58.684642 
L 363.469558 59.06945 
L 363.591162 59.432497 
L 364.062677 59.862331 
L 365.225847 60.380719 
L 366.538006 60.735482 
L 369.149621 61.166384 
L 372.355651 61.432591 
L 376.589949 61.528822 
L 382.863236 61.402076 
L 393.493868 60.938938 
L 404.973919 60.219658 
L 416.017626 59.322029 
L 420.805002 58.830818 
L 420.805002 58.830818 
" style="fill:none;stroke:#000000;stroke-linecap:square;stroke-opacity:0.7;stroke-width:1.2;"/>
   </g>
   <g id="line2d_61">
    <path clip-path="url(#p41c0b50b10)" d="M 484.51273 230.652557 
L 480.149094 228.927646 
L 473.623597 226.59979 
L 468.200713 224.885128 
L 463.63594 223.645231 
L 459.244942 222.675684 
L 455.350677 222.034782 
L 451.56767 221.646451 
L 448.680943 221.536283 
L 445.583773 221.633672 
L 442.428319 222.002532 
L 439.558898 222.609571 
L 436.948277 223.421751 
L 434.683132 224.370277 
L 432.855902 225.349128 
L 431.11279 226.529508 
L 429.751141 227.701868 
L 428.580255 229.021631 
L 427.820371 230.287082 
L 427.590647 231.294648 
L 427.700957 231.746401 
L 428.080113 232.183443 
L 429.012638 232.580207 
L 430.103034 232.732959 
L 432.033845 232.688048 
L 434.352753 232.383919 
L 439.298849 231.435569 
L 444.225119 230.560543 
L 448.513101 230.057299 
L 452.916991 229.79268 
L 458.605316 229.709585 
L 465.438644 229.847553 
L 475.60495 230.302956 
L 484.512474 230.661721 
L 484.512474 230.661721 
" style="fill:none;stroke:#000000;stroke-linecap:square;stroke-opacity:0.7;stroke-width:1.2;"/>
   </g>
   <g id="line2d_62">
    <path clip-path="url(#p41c0b50b10)" d="M 484.506781 211.453337 
L 478.878057 209.725266 
L 471.417204 207.663241 
L 465.945554 206.367089 
L 461.18079 205.470711 
L 456.733765 204.884339 
L 452.915828 204.598349 
L 448.932006 204.537442 
L 445.23753 204.727862 
L 441.863888 205.143484 
L 439.359001 205.627602 
L 436.573676 206.382418 
L 433.951297 207.373571 
L 432.109651 208.316984 
L 430.822067 209.185446 
L 429.729429 210.221635 
L 429.259536 210.996349 
L 429.18908 211.54926 
L 429.326394 211.891112 
L 429.607556 212.173732 
L 430.232427 212.496575 
L 431.327511 212.785906 
L 433.359097 213.017152 
L 436.525516 213.087678 
L 441.082965 212.956383 
L 449.848936 212.442955 
L 460.735718 211.843212 
L 469.509469 211.595559 
L 481.462768 211.504105 
L 484.507406 211.498942 
L 484.507406 211.498942 
" style="fill:none;stroke:#000000;stroke-linecap:square;stroke-opacity:0.7;stroke-width:1.2;"/>
   </g>
   <g id="line2d_63">
    <path clip-path="url(#p41c0b50b10)" d="M 484.513372 192.330429 
L 472.10563 189.294412 
L 463.233507 187.233603 
L 458.059003 186.255243 
L 454.03694 185.71217 
L 450.097891 185.430949 
L 446.714489 185.427494 
L 443.588376 185.644352 
L 440.476345 186.09002 
L 437.282415 186.820332 
L 434.574023 187.71824 
L 432.873115 188.470484 
L 431.212206 189.430921 
L 430.04223 190.350858 
L 429.384752 191.069691 
L 428.941352 191.924549 
L 428.944015 192.356467 
L 429.153475 192.680152 
L 429.584838 192.950614 
L 430.548156 193.256989 
L 432.60037 193.602718 
L 435.654446 193.877083 
L 440.154911 194.048 
L 445.621877 194.014514 
L 450.767162 193.779934 
L 460.537274 193.037828 
L 468.701012 192.527986 
L 475.598008 192.32438 
L 482.267808 192.352902 
L 484.515827 192.407975 
L 484.515827 192.407975 
" style="fill:none;stroke:#000000;stroke-linecap:square;stroke-opacity:0.7;stroke-width:1.2;"/>
   </g>
   <g id="line2d_64">
    <path clip-path="url(#p41c0b50b10)" d="M 484.509185 173.242742 
L 464.651805 168.867066 
L 458.121407 167.670874 
L 453.491165 167.025617 
L 449.183475 166.642279 
L 445.278251 166.525743 
L 441.92891 166.64573 
L 439.069767 166.950969 
L 436.147317 167.513976 
L 433.880155 168.182776 
L 431.830716 169.023939 
L 430.134599 169.955102 
L 428.862531 170.861559 
L 428.03563 171.611643 
L 427.170466 172.750993 
L 426.951164 173.453129 
L 426.98061 173.782622 
L 427.295502 174.282983 
L 427.892294 174.658362 
L 429.063607 175.025654 
L 430.661986 175.284532 
L 433.533885 175.488313 
L 436.838112 175.528678 
L 442.386051 175.350211 
L 449.317625 174.876917 
L 463.978563 173.818555 
L 472.715689 173.459883 
L 481.810777 173.315006 
L 484.504032 173.30704 
L 484.504032 173.30704 
" style="fill:none;stroke:#000000;stroke-linecap:square;stroke-opacity:0.7;stroke-width:1.2;"/>
   </g>
   <g id="line2d_65">
    <path clip-path="url(#p41c0b50b10)" d="M 484.506737 154.138455 
L 478.063634 152.86629 
L 461.13367 149.428666 
L 456.619365 148.778291 
L 452.378326 148.386441 
L 448.15997 148.235701 
L 444.26404 148.330151 
L 440.5267 148.66431 
L 437.411456 149.167778 
L 434.65712 149.840045 
L 432.771359 150.472149 
L 430.777531 151.372622 
L 429.298239 152.310057 
L 428.464338 153.067261 
L 427.942254 153.890864 
L 427.882952 154.292977 
L 427.994065 154.644562 
L 428.331611 154.988868 
L 429.021782 155.325975 
L 429.944399 155.583685 
L 432.369153 155.956396 
L 436.30015 156.257108 
L 442.325196 156.432811 
L 448.422231 156.355787 
L 454.266743 156.028488 
L 462.469721 155.289648 
L 470.934535 154.591206 
L 477.839282 154.255916 
L 484.002091 154.191266 
L 484.500744 154.196256 
L 484.500744 154.196256 
" style="fill:none;stroke:#000000;stroke-linecap:square;stroke-opacity:0.7;stroke-width:1.2;"/>
   </g>
   <g id="line2d_66">
    <path clip-path="url(#p41c0b50b10)" d="M 484.488328 135.080179 
L 478.240476 133.934285 
L 462.190102 130.906103 
L 457.337358 130.276492 
L 453.012361 129.944346 
L 448.744971 129.836093 
L 444.613469 129.943233 
L 440.54908 130.282682 
L 436.998754 130.830097 
L 434.514383 131.413084 
L 432.232189 132.171424 
L 430.341022 133.07362 
L 429.150641 133.91182 
L 428.596161 134.530274 
L 428.376201 135.133442 
L 428.507109 135.601228 
L 428.800112 135.913588 
L 429.603693 136.349475 
L 431.125312 136.782289 
L 433.36751 137.122022 
L 436.943662 137.362969 
L 441.639369 137.413017 
L 447.631447 137.255099 
L 455.599831 136.823166 
L 480.925805 135.277254 
L 484.483083 135.127087 
L 484.483083 135.127087 
" style="fill:none;stroke:#000000;stroke-linecap:square;stroke-opacity:0.7;stroke-width:1.2;"/>
   </g>
   <g id="line2d_67">
    <path clip-path="url(#p41c0b50b10)" d="M 484.489742 116.003276 
L 475.221677 114.37092 
L 465.960609 112.797592 
L 460.734174 112.125235 
L 455.8863 111.735627 
L 451.096016 111.585316 
L 446.796281 111.652231 
L 442.757045 111.910885 
L 439.106344 112.342621 
L 436.035238 112.890422 
L 433.180608 113.615185 
L 431.142463 114.358025 
L 430.001555 114.964567 
L 429.286227 115.600393 
L 429.12578 116.046153 
L 429.212442 116.328547 
L 429.439131 116.576328 
L 430.224235 116.996987 
L 431.746633 117.437837 
L 434.222072 117.860574 
L 437.604152 118.194637 
L 441.97415 118.40425 
L 447.654901 118.436941 
L 453.859188 118.224462 
L 461.015883 117.724744 
L 479.502526 116.325208 
L 484.478207 116.047578 
L 484.478207 116.047578 
" style="fill:none;stroke:#000000;stroke-linecap:square;stroke-opacity:0.7;stroke-width:1.2;"/>
   </g>
   <g id="line2d_68">
    <path clip-path="url(#p41c0b50b10)" d="M 484.485378 96.897877 
L 476.287431 95.373712 
L 469.578037 94.316411 
L 464.689616 93.732569 
L 460.138072 93.384638 
L 455.001628 93.221502 
L 449.730423 93.269676 
L 444.018034 93.549645 
L 439.815339 93.944423 
L 435.621162 94.575508 
L 432.934855 95.164616 
L 430.824182 95.806796 
L 429.620465 96.357167 
L 429.17103 96.773312 
L 429.180002 97.08346 
L 429.547444 97.414311 
L 430.287742 97.753977 
L 431.996697 98.244018 
L 434.776322 98.742364 
L 438.629726 99.144778 
L 443.48001 99.384814 
L 448.630373 99.422632 
L 454.315507 99.25195 
L 461.204789 98.812184 
L 484.48407 96.958476 
L 484.48407 96.958476 
" style="fill:none;stroke:#000000;stroke-linecap:square;stroke-opacity:0.7;stroke-width:1.2;"/>
   </g>
   <g id="line2d_69">
    <path clip-path="url(#p41c0b50b10)" d="M 484.483284 77.867868 
L 477.533087 77.16189 
L 456.346605 74.847661 
L 450.484107 74.525253 
L 444.141596 74.379101 
L 438.892682 74.465997 
L 435.41548 74.74225 
L 432.774771 75.168371 
L 430.520319 75.785232 
L 428.870276 76.522525 
L 428.081018 77.085709 
L 427.587947 77.741204 
L 427.518919 78.120699 
L 427.627818 78.489234 
L 427.926039 78.84132 
L 428.344285 79.129899 
L 429.505399 79.611105 
L 431.921493 80.15053 
L 434.191004 80.432399 
L 438.07791 80.666187 
L 442.71455 80.717697 
L 449.727555 80.554178 
L 457.126861 80.160155 
L 467.486095 79.34617 
L 484.466665 77.902606 
L 484.466665 77.902606 
" style="fill:none;stroke:#000000;stroke-linecap:square;stroke-opacity:0.7;stroke-width:1.2;"/>
   </g>
   <g id="line2d_70">
    <path clip-path="url(#p41c0b50b10)" d="M 484.46144 58.777516 
L 474.710731 57.687593 
L 467.334109 57.044138 
L 461.44885 56.73571 
L 455.154736 56.652471 
L 447.998124 56.797641 
L 439.763183 57.178051 
L 434.44953 57.634781 
L 431.351724 58.102979 
L 430.001465 58.489636 
L 429.686948 58.720735 
L 429.679311 58.964346 
L 429.837254 59.160683 
L 430.36152 59.517545 
L 431.48419 60.018788 
L 433.285321 60.566282 
L 435.64502 61.030409 
L 438.742566 61.379453 
L 442.790413 61.579568 
L 448.028173 61.600581 
L 454.103778 61.412348 
L 461.477574 60.960379 
L 472.719435 60.016344 
L 483.210932 58.953677 
L 484.468014 58.805568 
L 484.468014 58.805568 
" style="fill:none;stroke:#000000;stroke-linecap:square;stroke-opacity:0.7;stroke-width:1.2;"/>
   </g>
   <g id="line2d_71">
    <path clip-path="url(#p41c0b50b10)" d="M 548.166474 230.607313 
L 542.538886 228.430975 
L 535.903773 226.069495 
L 530.581213 224.383502 
L 526.074948 223.185125 
L 522.24077 222.393654 
L 519.356423 221.967895 
L 516.107047 221.693703 
L 513.319557 221.658286 
L 510.462669 221.837162 
L 507.809409 222.212123 
L 504.717377 222.912974 
L 502.243453 223.689487 
L 499.951664 224.603113 
L 497.49845 225.848604 
L 495.528469 227.161106 
L 494.175386 228.382281 
L 493.430204 229.339326 
L 493.020229 230.292147 
L 493.034032 230.779412 
L 493.223757 231.074905 
L 493.852976 231.393182 
L 494.796812 231.568462 
L 496.827513 231.657552 
L 499.94776 231.550898 
L 506.712802 231.036478 
L 522.049248 229.813087 
L 528.551034 229.549156 
L 534.158833 229.557481 
L 539.28789 229.794224 
L 545.024885 230.305899 
L 548.185955 230.656451 
L 548.185955 230.656451 
" style="fill:none;stroke:#000000;stroke-linecap:square;stroke-opacity:0.7;stroke-width:1.2;"/>
   </g>
   <g id="line2d_72">
    <path clip-path="url(#p41c0b50b10)" d="M 548.167822 211.43703 
L 543.254054 209.853773 
L 536.812337 207.994879 
L 531.079907 206.575818 
L 526.795825 205.724201 
L 522.436882 205.085353 
L 518.216308 204.699185 
L 514.338569 204.549963 
L 510.443965 204.611799 
L 507.086523 204.857958 
L 503.633087 205.333418 
L 501.020074 205.879662 
L 498.932258 206.466404 
L 496.357767 207.446529 
L 494.429564 208.466822 
L 493.032389 209.48852 
L 492.283002 210.254347 
L 491.742053 211.176846 
L 491.670576 211.729904 
L 491.812674 212.149029 
L 492.103305 212.474614 
L 493.079326 212.967198 
L 494.603404 213.295831 
L 496.653927 213.454405 
L 499.500774 213.437695 
L 504.426557 213.135021 
L 524.751403 211.607769 
L 532.623143 211.359013 
L 540.797699 211.33888 
L 548.168505 211.481839 
L 548.168505 211.481839 
" style="fill:none;stroke:#000000;stroke-linecap:square;stroke-opacity:0.7;stroke-width:1.2;"/>
   </g>
   <g id="line2d_73">
    <path clip-path="url(#p41c0b50b10)" d="M 548.156472 192.327173 
L 533.118484 188.367092 
L 528.17989 187.274553 
L 523.800113 186.522398 
L 519.997663 186.086534 
L 516.159658 185.87912 
L 512.580316 185.918057 
L 509.120694 186.192942 
L 505.842568 186.691773 
L 503.11733 187.302458 
L 500.473631 188.091554 
L 498.09119 189.01138 
L 496.560871 189.746416 
L 494.882106 190.762502 
L 493.913726 191.546633 
L 493.342447 192.284362 
L 493.314174 192.641119 
L 493.534125 192.903016 
L 494.095654 193.174725 
L 495.568812 193.554635 
L 498.179566 193.93125 
L 501.950803 194.205565 
L 506.161303 194.300133 
L 510.513675 194.226161 
L 516.21834 193.900494 
L 525.352907 193.068262 
L 532.596232 192.501484 
L 538.470875 192.254461 
L 543.53232 192.234285 
L 548.160768 192.375672 
L 548.160768 192.375672 
" style="fill:none;stroke:#000000;stroke-linecap:square;stroke-opacity:0.7;stroke-width:1.2;"/>
   </g>
   <g id="line2d_74">
    <path clip-path="url(#p41c0b50b10)" d="M 548.159969 173.214094 
L 536.226397 170.16163 
L 530.060375 168.809543 
L 525.445638 168.042696 
L 521.530964 167.617513 
L 517.556898 167.409334 
L 513.357571 167.428554 
L 509.351919 167.680367 
L 505.678597 168.132355 
L 502.659093 168.688862 
L 499.909917 169.374747 
L 497.254008 170.257174 
L 495.237481 171.152815 
L 493.905239 171.948727 
L 493.10549 172.636983 
L 492.792311 173.206328 
L 492.863242 173.546101 
L 493.199947 173.86272 
L 493.781731 174.14468 
L 495.200423 174.548478 
L 497.311762 174.905352 
L 500.667238 175.220999 
L 505.42662 175.39606 
L 510.824433 175.344593 
L 516.773815 175.031145 
L 525.3396 174.290854 
L 533.936646 173.617426 
L 540.384878 173.319167 
L 546.74359 173.252587 
L 548.15512 173.271119 
L 548.15512 173.271119 
" style="fill:none;stroke:#000000;stroke-linecap:square;stroke-opacity:0.7;stroke-width:1.2;"/>
   </g>
   <g id="line2d_75">
    <path clip-path="url(#p41c0b50b10)" d="M 548.165634 154.138197 
L 534.097402 151.318285 
L 523.998496 149.406229 
L 518.150626 148.530528 
L 513.818249 148.084137 
L 509.34741 147.859849 
L 506.02081 147.886757 
L 502.997741 148.098745 
L 500.130164 148.528153 
L 498.095667 149.024546 
L 496.164289 149.706122 
L 494.364291 150.603089 
L 492.94721 151.571556 
L 491.707035 152.749734 
L 491.031949 153.757572 
L 490.870891 154.561545 
L 491.005137 154.938609 
L 491.352796 155.300318 
L 491.961222 155.630463 
L 493.029483 155.963643 
L 494.838708 156.282332 
L 497.881208 156.538112 
L 501.536065 156.612178 
L 506.401414 156.471599 
L 512.082752 156.082324 
L 530.495852 154.64198 
L 538.652757 154.322797 
L 547.553762 154.219967 
L 548.15625 154.220235 
L 548.15625 154.220235 
" style="fill:none;stroke:#000000;stroke-linecap:square;stroke-opacity:0.7;stroke-width:1.2;"/>
   </g>
   <g id="line2d_76">
    <path clip-path="url(#p41c0b50b10)" d="M 548.14395 135.077679 
L 540.399746 133.541177 
L 529.228817 131.3639 
L 524.633434 130.68747 
L 520.191734 130.271943 
L 516.309238 130.119348 
L 511.895664 130.179735 
L 507.933987 130.452566 
L 504.136699 130.934173 
L 500.481222 131.643795 
L 497.835607 132.35267 
L 495.35734 133.244227 
L 493.745676 134.058258 
L 492.904111 134.73555 
L 492.705372 135.154128 
L 492.791444 135.454981 
L 492.990148 135.658206 
L 493.508259 135.950344 
L 494.801243 136.371055 
L 496.896718 136.789972 
L 500.098616 137.177996 
L 504.733501 137.451138 
L 509.11822 137.500537 
L 514.861376 137.322831 
L 521.539241 136.851402 
L 538.945659 135.489055 
L 547.004564 135.144652 
L 548.141918 135.115421 
L 548.141918 135.115421 
" style="fill:none;stroke:#000000;stroke-linecap:square;stroke-opacity:0.7;stroke-width:1.2;"/>
   </g>
   <g id="line2d_77">
    <path clip-path="url(#p41c0b50b10)" d="M 548.150831 115.962184 
L 540.20485 114.334692 
L 533.762953 113.203177 
L 528.598341 112.512178 
L 523.760404 112.11694 
L 518.898233 111.968115 
L 513.390786 112.035615 
L 507.646583 112.319619 
L 503.054618 112.738732 
L 499.420774 113.277769 
L 497.008422 113.80698 
L 494.75746 114.520657 
L 493.54482 115.085885 
L 492.736793 115.70436 
L 492.568216 116.109924 
L 492.668994 116.364937 
L 493.265584 116.76369 
L 494.340806 117.115901 
L 496.403927 117.539487 
L 500.062502 118.039578 
L 505.208154 118.499475 
L 510.042835 118.730978 
L 515.073297 118.743495 
L 519.758089 118.528523 
L 525.196342 118.051893 
L 544.147794 116.178259 
L 548.153518 116.007369 
L 548.153518 116.007369 
" style="fill:none;stroke:#000000;stroke-linecap:square;stroke-opacity:0.7;stroke-width:1.2;"/>
   </g>
   <g id="line2d_78">
    <path clip-path="url(#p41c0b50b10)" d="M 548.141106 96.903512 
L 541.054152 95.932887 
L 525.757331 93.789851 
L 520.638748 93.332998 
L 515.403418 93.107208 
L 510.331829 93.10568 
L 505.668852 93.298776 
L 501.733178 93.661569 
L 498.879511 94.099055 
L 496.373011 94.670622 
L 494.208047 95.41136 
L 492.978697 96.071174 
L 492.42018 96.589148 
L 492.247012 97.103834 
L 492.408347 97.483995 
L 492.900073 97.878926 
L 493.512531 98.163959 
L 495.619776 98.725049 
L 498.3354 99.123885 
L 502.470382 99.458801 
L 507.699426 99.634038 
L 512.998371 99.602435 
L 518.997873 99.330473 
L 525.800862 98.785046 
L 544.233368 97.185501 
L 548.138336 96.956845 
L 548.138336 96.956845 
" style="fill:none;stroke:#000000;stroke-linecap:square;stroke-opacity:0.7;stroke-width:1.2;"/>
   </g>
   <g id="line2d_79">
    <path clip-path="url(#p41c0b50b10)" d="M 548.135902 77.849234 
L 538.859553 76.727035 
L 526.655046 75.277799 
L 521.009176 74.835442 
L 515.401096 74.62612 
L 509.361762 74.643425 
L 504.303948 74.871012 
L 500.406296 75.250408 
L 497.15687 75.790422 
L 494.737831 76.427743 
L 493.472451 76.941742 
L 492.70035 77.493953 
L 492.549018 77.82188 
L 492.660767 78.173599 
L 493.126031 78.572436 
L 494.291827 79.104826 
L 495.69081 79.519822 
L 498.254245 80.015537 
L 501.694378 80.388202 
L 505.45366 80.577363 
L 510.164242 80.625543 
L 516.438108 80.459327 
L 522.898031 80.051124 
L 533.460899 79.10602 
L 546.216711 78.027916 
L 548.131435 77.892854 
L 548.131435 77.892854 
" style="fill:none;stroke:#000000;stroke-linecap:square;stroke-opacity:0.7;stroke-width:1.2;"/>
   </g>
   <g id="line2d_80">
    <path clip-path="url(#p41c0b50b10)" d="M 548.132084 58.761198 
L 541.627758 58.233752 
L 529.49857 56.991247 
L 520.195702 56.112421 
L 513.722063 55.735992 
L 508.116506 55.641406 
L 503.245765 55.798307 
L 499.503929 56.134356 
L 496.454787 56.611447 
L 494.164802 57.177278 
L 492.757155 57.731587 
L 492.07663 58.188455 
L 491.753084 58.745553 
L 491.833887 59.145007 
L 492.194304 59.572307 
L 493.295735 60.221305 
L 494.790025 60.750758 
L 496.141139 61.08519 
L 498.856744 61.525429 
L 501.738854 61.777932 
L 506.015558 61.908586 
L 511.224601 61.841523 
L 518.091857 61.510581 
L 526.114597 60.861145 
L 548.11976 58.799634 
L 548.11976 58.799634 
" style="fill:none;stroke:#000000;stroke-linecap:square;stroke-opacity:0.7;stroke-width:1.2;"/>
   </g>
   <g id="line2d_81">
    <path clip-path="url(#p41c0b50b10)" d="M 611.818842 230.558935 
L 608.162318 229.153318 
L 602.933773 227.365492 
L 597.871614 225.847976 
L 593.182982 224.679876 
L 588.917056 223.866902 
L 584.835332 223.333971 
L 580.72929 223.041953 
L 577.118145 222.992241 
L 573.233521 223.173487 
L 569.756582 223.567879 
L 566.512196 224.16555 
L 563.631286 224.922991 
L 561.391605 225.702941 
L 559.349751 226.6163 
L 557.524301 227.683192 
L 556.343395 228.596015 
L 555.519212 229.467697 
L 555.099207 230.165448 
L 554.986041 230.872023 
L 555.158783 231.278937 
L 555.477657 231.581126 
L 556.227968 231.944339 
L 557.839382 232.287837 
L 559.941346 232.411928 
L 562.694905 232.326971 
L 567.212209 231.92288 
L 582.556287 230.364846 
L 588.967515 229.978869 
L 594.604308 229.828649 
L 600.335078 229.883586 
L 606.049536 230.149214 
L 611.831377 230.573205 
L 611.831377 230.573205 
" style="fill:none;stroke:#000000;stroke-linecap:square;stroke-opacity:0.7;stroke-width:1.2;"/>
   </g>
   <g id="line2d_82">
    <path clip-path="url(#p41c0b50b10)" d="M 611.827317 211.448765 
L 605.496681 209.546842 
L 597.934445 207.477414 
L 591.892313 206.033705 
L 587.012534 205.081925 
L 582.885799 204.47644 
L 578.602509 204.084817 
L 575.16856 203.981016 
L 571.629379 204.109551 
L 568.635381 204.436799 
L 566.090571 204.899229 
L 563.274696 205.65273 
L 561.153533 206.439724 
L 559.062931 207.482495 
L 557.503443 208.535284 
L 556.687871 209.249744 
L 555.897612 210.169424 
L 555.497286 210.895245 
L 555.378814 211.58396 
L 555.56689 212.05284 
L 555.823859 212.293747 
L 556.686255 212.683983 
L 557.852722 212.934819 
L 560.203013 213.133784 
L 563.584973 213.126709 
L 568.237776 212.86899 
L 575.475568 212.211099 
L 587.597474 211.081267 
L 593.524455 210.780193 
L 598.802397 210.72907 
L 604.252354 210.914016 
L 610.276599 211.356582 
L 611.834857 211.493682 
L 611.834857 211.493682 
" style="fill:none;stroke:#000000;stroke-linecap:square;stroke-opacity:0.7;stroke-width:1.2;"/>
   </g>
   <g id="line2d_83">
    <path clip-path="url(#p41c0b50b10)" d="M 611.817271 192.312795 
L 606.365638 190.718629 
L 598.999605 188.799637 
L 593.127069 187.481305 
L 588.6272 186.662955 
L 584.050019 186.05697 
L 579.741849 185.72833 
L 575.660832 185.661785 
L 572.039851 185.834875 
L 568.513172 186.253595 
L 565.835271 186.769927 
L 563.179988 187.493843 
L 560.649253 188.44974 
L 558.619967 189.507415 
L 557.248516 190.498088 
L 556.318069 191.527589 
L 556.07047 192.119779 
L 556.100172 192.532664 
L 556.356124 192.908456 
L 556.81388 193.229457 
L 557.96709 193.681911 
L 559.504257 194.033325 
L 561.707563 194.326471 
L 564.911648 194.524276 
L 568.794992 194.547812 
L 573.249864 194.371408 
L 579.272162 193.890742 
L 594.534248 192.519555 
L 600.909736 192.231519 
L 606.274103 192.200322 
L 611.829284 192.374913 
L 611.829284 192.374913 
" style="fill:none;stroke:#000000;stroke-linecap:square;stroke-opacity:0.7;stroke-width:1.2;"/>
   </g>
   <g id="line2d_84">
    <path clip-path="url(#p41c0b50b10)" d="M 611.81991 173.208881 
L 603.721879 171.007117 
L 597.241856 169.448333 
L 592.388214 168.498464 
L 588.322626 167.913749 
L 583.999304 167.528538 
L 579.493144 167.373316 
L 574.826942 167.456775 
L 570.605928 167.754409 
L 566.593145 168.280327 
L 563.298752 168.961391 
L 560.522755 169.796973 
L 558.829259 170.48146 
L 557.156527 171.360637 
L 555.972932 172.204382 
L 555.24298 173.000628 
L 555.025616 173.617625 
L 555.163744 174.095771 
L 555.29601 174.264776 
L 556.337774 174.910104 
L 557.049419 175.159061 
L 559.326534 175.629584 
L 562.1372 175.876559 
L 565.348168 175.917142 
L 569.43958 175.750887 
L 575.60879 175.25351 
L 593.140106 173.693839 
L 600.216697 173.357537 
L 607.133071 173.243082 
L 611.810243 173.274732 
L 611.810243 173.274732 
" style="fill:none;stroke:#000000;stroke-linecap:square;stroke-opacity:0.7;stroke-width:1.2;"/>
   </g>
   <g id="line2d_85">
    <path clip-path="url(#p41c0b50b10)" d="M 611.818046 154.113382 
L 606.047187 152.478036 
L 600.335693 151.066524 
L 595.752009 150.145551 
L 592.025388 149.594825 
L 587.935666 149.222178 
L 583.619936 149.069451 
L 578.654178 149.138141 
L 573.553441 149.435594 
L 569.109133 149.893745 
L 565.263149 150.496187 
L 562.044776 151.229832 
L 559.702857 151.983648 
L 558.310019 152.589054 
L 557.067806 153.351467 
L 556.568435 153.881878 
L 556.473123 154.271742 
L 556.654705 154.60823 
L 557.00286 154.871984 
L 558.156297 155.356532 
L 560.129902 155.848403 
L 562.834597 156.268404 
L 566.440457 156.595575 
L 570.787286 156.771463 
L 575.698729 156.743634 
L 580.234528 156.507147 
L 585.966685 155.947592 
L 599.96583 154.398226 
L 605.03375 154.111286 
L 609.523436 154.078989 
L 611.814713 154.155057 
L 611.814713 154.155057 
" style="fill:none;stroke:#000000;stroke-linecap:square;stroke-opacity:0.7;stroke-width:1.2;"/>
   </g>
   <g id="line2d_86">
    <path clip-path="url(#p41c0b50b10)" d="M 611.811773 135.027595 
L 591.788857 131.145909 
L 586.897731 130.506708 
L 582.522634 130.155467 
L 577.714395 130.00984 
L 573.034943 130.102782 
L 568.72276 130.423263 
L 565.046193 130.934118 
L 562.412498 131.485313 
L 559.777491 132.255597 
L 557.817201 133.042969 
L 556.43879 133.792436 
L 555.448203 134.594881 
L 555.143381 135.119203 
L 555.212918 135.561494 
L 555.556388 135.899603 
L 556.112565 136.193083 
L 557.640659 136.670786 
L 560.236663 137.151037 
L 563.929435 137.549065 
L 568.30979 137.784276 
L 573.142734 137.826229 
L 577.573817 137.673846 
L 582.694472 137.28089 
L 591.635915 136.303785 
L 599.788592 135.516206 
L 605.500485 135.177829 
L 610.961884 135.080204 
L 611.810291 135.087115 
L 611.810291 135.087115 
" style="fill:none;stroke:#000000;stroke-linecap:square;stroke-opacity:0.7;stroke-width:1.2;"/>
   </g>
   <g id="line2d_87">
    <path clip-path="url(#p41c0b50b10)" d="M 611.799678 115.988978 
L 588.807074 112.344281 
L 583.692391 111.923975 
L 578.856705 111.752295 
L 572.921919 111.774126 
L 567.458572 111.990878 
L 563.900948 112.308622 
L 561.066929 112.765192 
L 559.214693 113.220602 
L 557.280534 113.896177 
L 555.813501 114.628655 
L 554.777292 115.401708 
L 554.343798 115.967221 
L 554.236245 116.524855 
L 554.460274 117.000355 
L 554.999808 117.442928 
L 556.230657 117.983001 
L 558.450978 118.522339 
L 560.961932 118.86078 
L 564.515827 119.076555 
L 568.168894 119.096498 
L 573.233667 118.912426 
L 579.966137 118.426016 
L 605.312825 116.279426 
L 611.80157 116.019534 
L 611.80157 116.019534 
" style="fill:none;stroke:#000000;stroke-linecap:square;stroke-opacity:0.7;stroke-width:1.2;"/>
   </g>
   <g id="line2d_88">
    <path clip-path="url(#p41c0b50b10)" d="M 611.798169 96.882877 
L 604.092633 95.781852 
L 588.985302 93.618023 
L 583.358579 93.081584 
L 578.475147 92.843888 
L 573.7008 92.817779 
L 568.722652 93.021222 
L 564.767562 93.401803 
L 561.647027 93.896978 
L 559.239004 94.449472 
L 557.144046 95.122862 
L 555.68835 95.796977 
L 554.761348 96.523827 
L 554.584413 96.915091 
L 554.625855 97.19334 
L 554.973755 97.609844 
L 555.687561 98.031402 
L 556.776477 98.448898 
L 558.792051 98.96666 
L 561.245437 99.374792 
L 564.997304 99.726751 
L 569.206771 99.876676 
L 574.418139 99.832017 
L 580.546419 99.53084 
L 587.497068 98.942115 
L 605.712236 97.270372 
L 611.79555 96.942028 
L 611.79555 96.942028 
" style="fill:none;stroke:#000000;stroke-linecap:square;stroke-opacity:0.7;stroke-width:1.2;"/>
   </g>
   <g id="line2d_89">
    <path clip-path="url(#p41c0b50b10)" d="M 611.788625 77.813654 
L 601.839793 76.560725 
L 591.448562 75.31054 
L 585.86831 74.845816 
L 580.926761 74.629662 
L 575.092584 74.597922 
L 569.385072 74.788498 
L 564.945378 75.147908 
L 561.410348 75.652235 
L 558.588086 76.287194 
L 556.718984 76.957792 
L 555.926889 77.451938 
L 555.629969 77.842977 
L 555.606961 78.20688 
L 555.850536 78.600568 
L 556.417161 79.018629 
L 557.187064 79.381154 
L 559.255504 79.989919 
L 561.941943 80.432362 
L 565.382757 80.702371 
L 569.166933 80.784288 
L 574.897516 80.680268 
L 581.362746 80.350566 
L 589.305372 79.703795 
L 607.726192 78.099708 
L 611.789557 77.861195 
L 611.789557 77.861195 
" style="fill:none;stroke:#000000;stroke-linecap:square;stroke-opacity:0.7;stroke-width:1.2;"/>
   </g>
   <g id="line2d_90">
    <path clip-path="url(#p41c0b50b10)" d="M 611.77976 58.755217 
L 605.907726 58.270581 
L 585.744673 56.439724 
L 579.641262 56.2345 
L 573.755321 56.264924 
L 568.488186 56.504704 
L 563.901043 56.936862 
L 560.102592 57.504804 
L 557.843116 58.014855 
L 556.814721 58.424377 
L 556.491329 58.731962 
L 556.477021 59.077837 
L 556.741426 59.440421 
L 557.553034 59.99119 
L 559.031142 60.6039 
L 561.122451 61.15013 
L 563.776315 61.554776 
L 566.817775 61.782186 
L 571.267549 61.855524 
L 576.687543 61.712067 
L 583.442639 61.306336 
L 593.528655 60.431606 
L 611.784769 58.793978 
L 611.784769 58.793978 
" style="fill:none;stroke:#000000;stroke-linecap:square;stroke-opacity:0.7;stroke-width:1.2;"/>
   </g>
   <g id="line2d_91">
    <path clip-path="url(#p41c0b50b10)" d="M 675.47432 230.595479 
L 672.346974 229.091689 
L 667.762669 227.161592 
L 663.407171 225.549009 
L 659.427133 224.283066 
L 655.610066 223.294353 
L 651.858927 222.567004 
L 648.122925 222.092159 
L 644.494052 221.867348 
L 640.96344 221.875894 
L 637.753798 222.091472 
L 634.673472 222.502754 
L 631.756687 223.097005 
L 628.851573 223.916248 
L 626.794264 224.662819 
L 624.58691 225.667695 
L 622.703211 226.772001 
L 621.16282 227.977842 
L 620.323403 228.886287 
L 619.748498 229.86659 
L 619.636384 230.484345 
L 619.785811 230.914771 
L 620.083939 231.192787 
L 620.786425 231.493185 
L 621.963548 231.70061 
L 624.123325 231.772655 
L 627.45014 231.605858 
L 633.277886 231.046893 
L 651.562136 229.148189 
L 656.9015 228.885698 
L 660.965834 228.879945 
L 664.828877 229.072516 
L 668.979166 229.517869 
L 673.970982 230.324518 
L 675.482908 230.601163 
L 675.482908 230.601163 
" style="fill:none;stroke:#000000;stroke-linecap:square;stroke-opacity:0.7;stroke-width:1.2;"/>
   </g>
   <g id="line2d_92">
    <path clip-path="url(#p41c0b50b10)" d="M 675.475679 211.44931 
L 671.102824 209.824918 
L 665.514797 207.983575 
L 660.130065 206.431407 
L 655.524237 205.331491 
L 651.521002 204.593903 
L 647.763915 204.108494 
L 644.15374 203.836059 
L 640.139348 203.762659 
L 636.421599 203.929366 
L 632.904799 204.327301 
L 630.416995 204.775569 
L 627.293745 205.580362 
L 624.989898 206.398073 
L 622.876646 207.386469 
L 621.048464 208.531477 
L 619.78129 209.625279 
L 619.197706 210.325154 
L 618.742052 211.257521 
L 618.719409 211.797624 
L 618.893755 212.214306 
L 619.231662 212.568197 
L 619.915717 212.960234 
L 621.205888 213.331163 
L 622.73059 213.506938 
L 625.089032 213.515614 
L 628.632011 213.247451 
L 634.089099 212.583994 
L 644.933439 211.24634 
L 651.179113 210.715142 
L 656.67148 210.469011 
L 662.035604 210.468312 
L 666.67504 210.67675 
L 672.695461 211.190949 
L 675.486395 211.470784 
L 675.486395 211.470784 
" style="fill:none;stroke:#000000;stroke-linecap:square;stroke-opacity:0.7;stroke-width:1.2;"/>
   </g>
   <g id="line2d_93">
    <path clip-path="url(#p41c0b50b10)" d="M 675.479685 192.271029 
L 671.064398 190.880747 
L 664.629596 189.096026 
L 658.989395 187.767325 
L 654.497288 186.936141 
L 650.255545 186.388538 
L 646.085309 186.087468 
L 642.166204 186.00998 
L 637.790354 186.154532 
L 634.184058 186.471588 
L 630.519326 187.012201 
L 627.133208 187.765453 
L 624.541375 188.576397 
L 622.817355 189.287614 
L 621.21568 190.155017 
L 620.167467 190.933122 
L 619.53389 191.634557 
L 619.309843 192.222944 
L 619.405182 192.578086 
L 619.738441 192.915466 
L 620.555393 193.342551 
L 621.814933 193.74955 
L 623.667684 194.136509 
L 626.718078 194.503758 
L 630.37127 194.693882 
L 634.6907 194.685118 
L 639.429581 194.437432 
L 645.021918 193.890154 
L 660.320303 192.211693 
L 665.368745 191.958398 
L 669.986652 191.975665 
L 674.433429 192.243246 
L 675.490909 192.341286 
L 675.490909 192.341286 
" style="fill:none;stroke:#000000;stroke-linecap:square;stroke-opacity:0.7;stroke-width:1.2;"/>
   </g>
   <g id="line2d_94">
    <path clip-path="url(#p41c0b50b10)" d="M 675.468925 173.240937 
L 665.916799 170.855615 
L 656.538524 168.723492 
L 650.697612 167.601847 
L 645.74658 166.873677 
L 641.599823 166.474695 
L 637.584543 166.312488 
L 634.055456 166.395533 
L 631.287697 166.648269 
L 628.641117 167.088427 
L 626.161749 167.732028 
L 624.140289 168.481629 
L 622.34513 169.386275 
L 620.899465 170.356899 
L 620.030559 171.105042 
L 619.042956 172.269621 
L 618.61985 173.175278 
L 618.574176 173.699407 
L 618.724395 174.170719 
L 619.177328 174.666746 
L 619.865908 175.056951 
L 620.771458 175.364839 
L 622.43675 175.670192 
L 624.54851 175.811726 
L 627.692659 175.757399 
L 631.395273 175.475168 
L 638.026472 174.697515 
L 649.579507 173.282627 
L 655.336775 172.804569 
L 660.425887 172.589435 
L 665.571256 172.609522 
L 670.289996 172.847817 
L 675.484783 173.294423 
L 675.484783 173.294423 
" style="fill:none;stroke:#000000;stroke-linecap:square;stroke-opacity:0.7;stroke-width:1.2;"/>
   </g>
   <g id="line2d_95">
    <path clip-path="url(#p41c0b50b10)" d="M 675.478193 154.101627 
L 667.896916 152.358762 
L 659.254993 150.573609 
L 652.890531 149.467102 
L 647.406192 148.74293 
L 642.422064 148.309744 
L 637.540158 148.107239 
L 632.991101 148.148736 
L 629.648264 148.379937 
L 626.774905 148.796039 
L 624.531824 149.338856 
L 622.719471 149.984862 
L 620.96523 150.870541 
L 619.589517 151.850078 
L 618.616047 152.846223 
L 618.142708 153.596281 
L 617.926421 154.381679 
L 617.962154 154.803217 
L 618.326483 155.48264 
L 618.514425 155.672715 
L 619.420755 156.260252 
L 620.686926 156.736969 
L 622.500593 157.138005 
L 624.763787 157.393162 
L 627.154177 157.48086 
L 630.914196 157.373597 
L 634.889695 157.045371 
L 641.901683 156.197408 
L 652.65165 154.904491 
L 659.214993 154.35178 
L 664.878281 154.086701 
L 670.786054 154.045799 
L 675.477803 154.157366 
L 675.477803 154.157366 
" style="fill:none;stroke:#000000;stroke-linecap:square;stroke-opacity:0.7;stroke-width:1.2;"/>
   </g>
   <g id="line2d_96">
    <path clip-path="url(#p41c0b50b10)" d="M 675.46943 135.010625 
L 663.704253 132.475346 
L 657.662243 131.374669 
L 652.972638 130.740492 
L 648.774317 130.389082 
L 644.689306 130.237158 
L 639.429096 130.273408 
L 634.283906 130.543019 
L 630.356506 130.941267 
L 627.103604 131.455836 
L 624.03191 132.177138 
L 621.887726 132.901536 
L 620.554764 133.518809 
L 619.538497 134.188064 
L 619.074887 134.720811 
L 618.988067 135.116926 
L 619.139204 135.468362 
L 619.421101 135.744974 
L 620.177836 136.189992 
L 621.437017 136.670711 
L 623.544024 137.204464 
L 625.67355 137.560097 
L 629.544761 137.92645 
L 633.075619 138.055798 
L 637.843007 138.009539 
L 642.942916 137.716636 
L 648.388237 137.177069 
L 665.55786 135.302873 
L 670.337293 135.059274 
L 674.968343 135.040945 
L 675.472114 135.053765 
L 675.472114 135.053765 
" style="fill:none;stroke:#000000;stroke-linecap:square;stroke-opacity:0.7;stroke-width:1.2;"/>
   </g>
   <g id="line2d_97">
    <path clip-path="url(#p41c0b50b10)" d="M 675.461973 115.964828 
L 668.89668 114.837004 
L 654.66225 112.365823 
L 649.790424 111.783418 
L 645.806203 111.503519 
L 641.016577 111.398426 
L 636.332438 111.518791 
L 632.164708 111.824155 
L 628.455927 112.305315 
L 625.523711 112.891008 
L 622.920568 113.649267 
L 621.146525 114.390693 
L 619.954212 115.126876 
L 619.462327 115.630616 
L 619.274843 116.195593 
L 619.466175 116.681162 
L 619.883338 117.076674 
L 620.976826 117.662412 
L 621.898253 117.993913 
L 624.080866 118.52732 
L 626.583952 118.892911 
L 630.309503 119.149585 
L 634.176288 119.181752 
L 638.981565 118.992306 
L 644.412788 118.541057 
L 654.142603 117.425249 
L 662.557907 116.57861 
L 668.69712 116.177423 
L 674.429014 116.015344 
L 675.459521 116.008885 
L 675.459521 116.008885 
" style="fill:none;stroke:#000000;stroke-linecap:square;stroke-opacity:0.7;stroke-width:1.2;"/>
   </g>
   <g id="line2d_98">
    <path clip-path="url(#p41c0b50b10)" d="M 675.456147 96.879212 
L 658.909282 94.223719 
L 653.107028 93.54125 
L 648.211049 93.184592 
L 643.661391 93.040578 
L 638.454159 93.08352 
L 634.026272 93.308162 
L 629.969596 93.708797 
L 626.241072 94.298711 
L 623.005687 95.060304 
L 620.9779 95.754116 
L 619.974558 96.271722 
L 619.533835 96.739849 
L 619.57659 97.137314 
L 619.972778 97.549492 
L 620.649945 97.962983 
L 621.624894 98.391524 
L 623.207336 98.897163 
L 625.793277 99.441435 
L 629.022376 99.824403 
L 632.735172 100.014613 
L 637.155682 100.0165 
L 641.78457 99.818557 
L 647.182133 99.368167 
L 656.397185 98.313985 
L 664.377487 97.481762 
L 670.525079 97.059521 
L 675.45502 96.920159 
L 675.45502 96.920159 
" style="fill:none;stroke:#000000;stroke-linecap:square;stroke-opacity:0.7;stroke-width:1.2;"/>
   </g>
   <g id="line2d_99">
    <path clip-path="url(#p41c0b50b10)" d="M 675.450431 77.787628 
L 664.297196 76.209404 
L 656.465695 75.195329 
L 651.349112 74.733285 
L 646.227519 74.510271 
L 640.86974 74.527793 
L 635.968845 74.751611 
L 631.280086 75.178106 
L 627.369685 75.73719 
L 623.903717 76.432345 
L 621.747468 77.027045 
L 620.607929 77.537043 
L 620.329457 77.87344 
L 620.353286 78.136962 
L 620.676031 78.52332 
L 621.500048 79.03061 
L 623.032548 79.627157 
L 625.352375 80.204022 
L 628.320754 80.642287 
L 631.616991 80.894848 
L 635.922818 80.993525 
L 641.103791 80.867664 
L 646.13262 80.532891 
L 652.919064 79.841141 
L 666.644089 78.381104 
L 673.210597 77.93601 
L 675.451141 77.847865 
L 675.451141 77.847865 
" style="fill:none;stroke:#000000;stroke-linecap:square;stroke-opacity:0.7;stroke-width:1.2;"/>
   </g>
   <g id="line2d_100">
    <path clip-path="url(#p41c0b50b10)" d="M 675.44384 58.712572 
L 667.947802 57.969543 
L 651.206335 56.254663 
L 645.10207 55.904359 
L 639.229009 55.811019 
L 633.620876 55.958274 
L 629.067701 56.28965 
L 625.006558 56.803181 
L 622.022355 57.379208 
L 620.07368 57.959327 
L 619.252427 58.406175 
L 619.019434 58.796768 
L 619.075577 59.067554 
L 619.456311 59.522479 
L 619.976268 59.894765 
L 621.058762 60.443196 
L 622.320505 60.905425 
L 624.738166 61.500333 
L 627.693303 61.905181 
L 631.24547 62.105989 
L 635.760688 62.104722 
L 641.460135 61.869213 
L 647.841203 61.381478 
L 657.742636 60.353471 
L 668.858282 59.254734 
L 675.442519 58.773313 
L 675.442519 58.773313 
" style="fill:none;stroke:#000000;stroke-linecap:square;stroke-opacity:0.7;stroke-width:1.2;"/>
   </g>
  </g>
 </g>
 <defs>
  <clipPath id="p41c0b50b10">
   <rect height="262.08" width="694.08" x="12.96" y="12.96"/>
  </clipPath>
 </defs>
</svg>
