<svg viewBox="0 0 1496 400" xmlns="http://www.w3.org/2000/svg"><g><g><g><g><g><line x1="50" y1="378" x2="45" y2="378" style="visibility: inherit;" fill="rgb(0, 0, 0)" stroke="rgb(204, 204, 204)" stroke-width="1px"></line><line x1="50" y1="330.75" x2="45" y2="330.75" style="visibility: inherit;" fill="rgb(0, 0, 0)" stroke="rgb(204, 204, 204)" stroke-width="1px"></line><line x1="50" y1="283.5" x2="45" y2="283.5" style="visibility: inherit;" fill="rgb(0, 0, 0)" stroke="rgb(204, 204, 204)" stroke-width="1px"></line><line x1="50" y1="236.25" x2="45" y2="236.25" style="visibility: inherit;" fill="rgb(0, 0, 0)" stroke="rgb(204, 204, 204)" stroke-width="1px"></line><line x1="50" y1="189" x2="45" y2="189" style="visibility: inherit;" fill="rgb(0, 0, 0)" stroke="rgb(204, 204, 204)" stroke-width="1px"></line><line x1="50" y1="141.75" x2="45" y2="141.75" style="visibility: inherit;" fill="rgb(0, 0, 0)" stroke="rgb(204, 204, 204)" stroke-width="1px"></line><line x1="50" y1="94.5" x2="45" y2="94.5" style="visibility: inherit;" fill="rgb(0, 0, 0)" stroke="rgb(204, 204, 204)" stroke-width="1px"></line><line x1="50" y1="47.25" x2="45" y2="47.25" style="visibility: inherit;" fill="rgb(0, 0, 0)" stroke="rgb(204, 204, 204)" stroke-width="1px"></line><line x1="50" y1="0" x2="45" y2="0" style="visibility: inherit;" fill="rgb(0, 0, 0)" stroke="rgb(204, 204, 204)" stroke-width="1px"></line></g><g transform="translate(40, 0)"><text x="0" y="378" dx="0em" dy="0.3em" style="text-anchor: end; visibility: hidden; font-family: &quot;Helvetica Neue&quot;, sans-serif; font-size: 12px; font-weight: 200;" fill="rgb(50, 49, 63)" stroke="none" stroke-width="1px">-3</text><text x="0" y="330.75" dx="0em" dy="0.3em" style="text-anchor: end; visibility: inherit; font-family: &quot;Helvetica Neue&quot;, sans-serif; font-size: 12px; font-weight: 200;" fill="rgb(50, 49, 63)" stroke="none" stroke-width="1px">-2.5</text><text x="0" y="283.5" dx="0em" dy="0.3em" style="text-anchor: end; visibility: inherit; font-family: &quot;Helvetica Neue&quot;, sans-serif; font-size: 12px; font-weight: 200;" fill="rgb(50, 49, 63)" stroke="none" stroke-width="1px">-2</text><text x="0" y="236.25" dx="0em" dy="0.3em" style="text-anchor: end; visibility: inherit; font-family: &quot;Helvetica Neue&quot;, sans-serif; font-size: 12px; font-weight: 200;" fill="rgb(50, 49, 63)" stroke="none" stroke-width="1px">-1.5</text><text x="0" y="189" dx="0em" dy="0.3em" style="text-anchor: end; visibility: inherit; font-family: &quot;Helvetica Neue&quot;, sans-serif; font-size: 12px; font-weight: 200;" fill="rgb(50, 49, 63)" stroke="none" stroke-width="1px">-1</text><text x="0" y="141.75" dx="0em" dy="0.3em" style="text-anchor: end; visibility: inherit; font-family: &quot;Helvetica Neue&quot;, sans-serif; font-size: 12px; font-weight: 200;" fill="rgb(50, 49, 63)" stroke="none" stroke-width="1px">-0.5</text><text x="0" y="94.5" dx="0em" dy="0.3em" style="text-anchor: end; visibility: inherit; font-family: &quot;Helvetica Neue&quot;, sans-serif; font-size: 12px; font-weight: 200;" fill="rgb(50, 49, 63)" stroke="none" stroke-width="1px">0</text><text x="0" y="47.25" dx="0em" dy="0.3em" style="text-anchor: end; visibility: inherit; font-family: &quot;Helvetica Neue&quot;, sans-serif; font-size: 12px; font-weight: 200;" fill="rgb(50, 49, 63)" stroke="none" stroke-width="1px">0.5</text><text x="0" y="0" dx="0em" dy="0.3em" style="text-anchor: end; visibility: hidden; font-family: &quot;Helvetica Neue&quot;, sans-serif; font-size: 12px; font-weight: 200;" fill="rgb(50, 49, 63)" stroke="none" stroke-width="1px">1</text></g><line x1="50" y1="0" x2="50" y2="378" fill="rgb(0, 0, 0)" stroke="rgb(204, 204, 204)" stroke-width="1px"></line></g></g><g transform="translate(50, 0)" clip-path="url(#clip_0)"><clipPath id="clip_0"><rect width="1446" height="378"></rect></clipPath><g><g><g><line x1="0" y1="0" x2="0" y2="378" fill="rgb(0, 0, 0)" stroke="rgb(60, 60, 60)" stroke-width="1px" opacity="0.25"></line><line x1="180.75" y1="0" x2="180.75" y2="378" fill="rgb(0, 0, 0)" stroke="rgb(60, 60, 60)" stroke-width="1px" opacity="0.25"></line><line x1="361.5" y1="0" x2="361.5" y2="378" fill="rgb(0, 0, 0)" stroke="rgb(60, 60, 60)" stroke-width="1px" opacity="0.25"></line><line x1="542.25" y1="0" x2="542.25" y2="378" fill="rgb(0, 0, 0)" stroke="rgb(60, 60, 60)" stroke-width="1px" opacity="0.25"></line><line x1="723" y1="0" x2="723" y2="378" fill="rgb(0, 0, 0)" stroke="rgb(60, 60, 60)" stroke-width="1px" opacity="0.25"></line><line x1="903.75" y1="0" x2="903.75" y2="378" fill="rgb(0, 0, 0)" stroke="rgb(60, 60, 60)" stroke-width="1px" opacity="0.25"></line><line x1="1084.5" y1="0" x2="1084.5" y2="378" fill="rgb(0, 0, 0)" stroke="rgb(60, 60, 60)" stroke-width="1px" opacity="0.25"></line><line x1="1265.25" y1="0" x2="1265.25" y2="378" fill="rgb(0, 0, 0)" stroke="rgb(60, 60, 60)" stroke-width="1px" opacity="0.25"></line><line x1="1446" y1="0" x2="1446" y2="378" fill="rgb(0, 0, 0)" stroke="rgb(60, 60, 60)" stroke-width="1px" opacity="0.25"></line></g><g><line x1="0" y1="378" x2="1446" y2="378" fill="rgb(0, 0, 0)" stroke="rgb(60, 60, 60)" stroke-width="1px" opacity="0.25"></line><line x1="0" y1="330.75" x2="1446" y2="330.75" fill="rgb(0, 0, 0)" stroke="rgb(60, 60, 60)" stroke-width="1px" opacity="0.25"></line><line x1="0" y1="283.5" x2="1446" y2="283.5" fill="rgb(0, 0, 0)" stroke="rgb(60, 60, 60)" stroke-width="1px" opacity="0.25"></line><line x1="0" y1="236.25" x2="1446" y2="236.25" fill="rgb(0, 0, 0)" stroke="rgb(60, 60, 60)" stroke-width="1px" opacity="0.25"></line><line x1="0" y1="189" x2="1446" y2="189" fill="rgb(0, 0, 0)" stroke="rgb(60, 60, 60)" stroke-width="1px" opacity="0.25"></line><line x1="0" y1="141.75" x2="1446" y2="141.75" fill="rgb(0, 0, 0)" stroke="rgb(60, 60, 60)" stroke-width="1px" opacity="0.25"></line><line x1="0" y1="94.5" x2="1446" y2="94.5" fill="rgb(0, 0, 0)" stroke="rgb(60, 60, 60)" stroke-width="1px" opacity="0.25"></line><line x1="0" y1="47.25" x2="1446" y2="47.25" fill="rgb(0, 0, 0)" stroke="rgb(60, 60, 60)" stroke-width="1px" opacity="0.25"></line><line x1="0" y1="0" x2="1446" y2="0" fill="rgb(0, 0, 0)" stroke="rgb(60, 60, 60)" stroke-width="1px" opacity="0.25"></line></g></g></g><g><g><line x1="0" y1="94.5" x2="1446" y2="94.5" fill="rgb(0, 0, 0)" stroke="rgb(153, 153, 153)" stroke-width="1.5px"></line></g></g><g><g><line x1="180.75" y1="0" x2="180.75" y2="378" fill="rgb(0, 0, 0)" stroke="rgb(153, 153, 153)" stroke-width="1.5px"></line></g></g><g><g><g><g><g><path stroke="rgb(204, 51, 17)" stroke-width="2px" d="M180.75,87.07867573946714L184.365,111.37313318252563L187.98000000000002,131.94117330014706L191.595,145.70888900756836L195.21,163.13257884979248L198.82500000000002,194.564484000206L202.44000000000003,208.0122742652893L206.05499999999998,213.0945142507553L209.67,213.1564507484436L213.285,212.77271032333374L216.9,231.11384439468384L220.515,224.44474357366562L224.13,237.5761034488678L227.745,255.02892529964447L231.36,232.23085302114487L234.975,240.32532691955566L238.59,247.0375850200653L242.205,251.99372148513794L245.82000000000002,220.33335649967194L249.43499999999997,235.35869121551514L253.04999999999998,254.4224478006363L256.66499999999996,261.9348673224449L260.28,220.17835754156113L263.895,247.1429604291916L267.51,265.30342197418213L271.125,233.98867571353912L274.74,255.2392930984497L278.355,251.77001559734344L281.97,247.23756623268127L285.58500000000004,243.79335397481918L289.2,209.14405167102814L292.815,183.04565852880478L296.43,221.67767590284348L300.04499999999996,233.99688810110092L303.65999999999997,245.78781509399414L307.275,248.92374175786972L310.89,235.50697606801987L314.505,241.03224563598633L318.12,246.69845509529114L321.735,249.86083263158798L325.35,251.63564336299896L328.96500000000003,217.56354010105133L332.58000000000004,240.71893572807312L336.195,229.3796562552452L339.81,241.074152469635L343.425,216.09541529417038L347.03999999999996,219.35310834646225L350.655,218.20544689893723L354.27,220.6452695131302L357.885,206.47365134954453L361.5,197.95341753959656L365.115,213.62937837839127L368.73,214.361125767231L372.345,217.29930174350739L375.96000000000004,203.39184308052063L379.575,217.2397985458374L383.19,216.59697926044464L386.805,228.41216039657593L390.42,220.74210584163666L394.035,218.60291969776154L397.65000000000003,225.74524104595184L401.26500000000004,230.13806855678558L404.88000000000005,222.4045454263687L408.49499999999995,222.19529289007187L412.10999999999996,237.34415137767792L415.72499999999997,233.11658549308777L419.34,242.61172771453857L422.955,244.2325195670128L426.57,234.8018034696579L430.185,243.20714271068573L433.8,212.12679308652878L437.41499999999996,233.69954109191895L441.03,251.33222436904907L444.645,155.13415271043777L448.26,247.74823254346848L451.875,249.11961114406586L455.49,250.16613292694092L459.105,239.01224613189697L462.72,249.64934957027435L466.33500000000004,255.20769399404526L469.95,255.6811961531639L473.565,237.1348875761032L477.18,253.87603676319122L480.795,259.4714552164078L484.41,240.39691776037216L488.02500000000003,260.70148837566376L491.64000000000004,261.6328677535057L495.25500000000005,220.94773095846176L498.86999999999995,239.26858752965927L502.48499999999996,255.05750530958176L506.09999999999997,250.2780647277832L509.715,244.89046812057495L513.3299999999999,255.68711042404175L516.9449999999999,177.02215951681137L520.56,263.888503074646L524.175,264.4076746702194L527.79,254.95102590322495L531.405,240.24767535924911L535.02,276.2565502524376L538.635,229.4706797003746L542.25,246.53619003295898L545.865,256.50053107738495L549.48,263.3211611509323L553.095,265.09803342819214L556.71,236.57790970802307L560.325,261.9508752822876L563.94,250.56041765213013L567.5550000000001,241.3083575963974L571.1700000000001,223.06523144245148L574.7850000000001,259.8277196288109L578.4,258.6850149035454L582.015,260.5185064673424L585.63,251.5233172774315L589.245,255.0732879638672L592.86,259.3306392431259L596.475,248.70198476314545L600.0899999999999,250.9608532190323L603.7049999999999,247.56176966428757L607.3199999999999,249.01594805717468L610.935,256.8170177936554L614.55,271.0493220090866L618.165,246.70787286758423L621.78,249.76787155866623L625.395,247.69297635555267L629.01,268.6419997215271L632.625,266.64444065093994L636.24,261.28052365779877L639.855,245.03488898277283L643.47,251.6138563156128L647.085,270.77366065979004L650.7,252.1580030322075L654.315,251.72533750534058L657.9300000000001,244.05451691150665L661.5450000000001,263.6952359676361L665.1600000000001,264.810126721859L668.775,262.67364424467087L672.39,260.5568872690201L676.005,250.19621121883392L679.62,275.8543798327446L683.235,273.17572206258774L686.85,268.89449965953827L690.4649999999999,262.78188103437424L694.0799999999999,245.5664974451065L697.6949999999999,264.3964319229126L701.31,256.41085946559906L704.925,281.122305393219L708.54,263.21352142095566L712.155,274.091668009758L715.77,281.81169533729553L719.385,266.4073065519333L723,194.14640700817108L726.6149999999999,279.0490211248398L730.23,246.6262446641922L733.8449999999999,249.16566359996796L737.46,272.46928775310516L741.0749999999999,248.23953384160995L744.69,253.45622491836548L748.305,268.4866628050804L751.9200000000001,239.12156438827515L755.535,260.93801414966583L759.15,274.6696218252182L762.765,274.8121951818466L766.38,257.44092267751694L769.995,259.77689069509506L773.61,278.2164382338524L777.225,288.6675181388855L780.84,274.69999301433563L784.4549999999999,266.0640535354614L788.07,250.82477992773056L791.685,288.15702080726624L795.3000000000001,242.65000712871552L798.915,266.33825039863586L802.5300000000001,279.5085543394089L806.145,264.56856536865234L809.7600000000001,279.45484149456024L813.375,237.18400418758392L816.9899999999999,284.07234370708466L820.605,280.4184283018112L824.2199999999999,254.8504495024681L827.835,289.37407636642456L831.4499999999999,265.1474879980087L835.065,278.99152314662933L838.68,275.52908366918564L842.2950000000001,239.77519834041595L845.91,271.64801520109177L849.525,267.4878044128418L853.14,278.0603465437889L856.755,283.17033290863037L860.37,270.1719821691513L863.985,286.5045847892761L867.6,268.78672474622726L871.215,289.1749963760376L874.8299999999999,284.2083156108856L878.445,290.0262908935547L882.06,287.0739094018936L885.6750000000001,276.71440494060516L889.29,257.28682494163513L892.9050000000001,286.00242376327515L896.52,275.1923757791519L900.1350000000001,274.67937755584717L903.75,253.76446545124054L907.3649999999999,261.27387714385986L910.98,283.0977732539177L914.5949999999999,288.18324637413025L918.21,275.2643609046936L921.8249999999999,287.9596531391144L925.44,272.4079370498657L929.055,263.1088557243347L932.6700000000001,276.376829624176L936.285,280.00478982925415L939.9,289.2351529598236L943.515,267.17907947301865L947.13,272.451680123806L950.745,295.0467746257782L954.36,253.73203271627426L957.975,292.8693541288376L961.59,270.6109337210655L965.2049999999999,294.76322758197784L968.82,269.869171500206L972.435,294.60066962242126L976.0500000000001,264.3778442144394L979.665,278.1101390719414L983.2800000000001,297.6453137397766L986.895,300.6414270401001L990.5100000000001,283.4723324775696L994.125,272.1926350593567L997.7399999999999,286.28998124599457L1001.355,287.19807529449463L1004.9699999999999,302.09586453437805L1008.585,285.5437241792679L1012.1999999999999,275.55552327632904L1015.815,289.01444363594055L1019.43,276.9081339240074L1023.0450000000001,299.5577073097229L1026.6599999999999,287.13622891902924L1030.275,284.838788151741L1033.8899999999999,268.7837394475937L1037.505,277.9446634054184L1041.12,280.111674785614L1044.7350000000001,274.08792793750763L1048.35,288.64232897758484L1051.9650000000001,284.3307466506958L1055.58,282.66256177425385L1059.1950000000002,225.94978469610214L1062.81,280.432543694973L1066.425,279.40641206502914L1070.04,253.74752247333527L1073.655,297.3841395378113L1077.27,267.32075160741806L1080.885,287.2183302640915L1084.5,276.2244554758072L1088.115,250.4867314696312L1091.73,290.74920630455017L1095.345,290.0862672328949L1098.96,293.81471371650696L1102.575,274.40078723430634L1106.19,270.1936678290367L1109.8049999999998,265.9084349870682L1113.42,278.0295810699463L1117.0349999999999,276.44793605804443L1120.65,281.92316526174545L1124.2649999999999,303.81535148620605L1127.88,279.7242280840874L1131.495,254.37996643781662L1135.1100000000001,282.2883517742157L1138.725,288.63390254974365L1142.3400000000001,265.499640583992L1145.955,283.5263156890869L1149.5700000000002,296.81774389743805L1153.185,209.98926293849945L1156.8,272.29242289066315L1160.415,291.130738735199L1164.03,296.2405335903168L1167.645,254.2286962866783L1171.26,284.46239268779755L1174.875,302.3455706834793L1178.49,270.3777312040329L1182.105,293.7067472934723L1185.72,281.7718500494957L1189.335,304.82152104377747L1192.95,292.3197662830353L1196.565,292.9797763824463L1200.1799999999998,234.72321689128876L1203.795,302.00781512260437L1207.4099999999999,291.10253047943115L1211.025,310.59479570388794L1214.6399999999999,261.1085253953934L1218.255,275.5200151205063L1221.87,307.63270354270935L1225.4850000000001,304.83641374111176L1229.1,284.61985874176025L1232.7150000000001,258.53296744823456L1236.33,272.9119005203247L1239.9450000000002,294.2319120168686L1243.56,222.64189356565475L1247.175,277.6573312282562L1250.79,282.65584766864777L1254.405,286.44490134716034L1258.02,258.9616788625717L1261.635,282.1865925192833" style="fill: none;" fill="none"></path></g></g></g></g></g></g><g transform="translate(50, 378)" clip-path="url(#clip_1)"><clipPath id="clip_1"><rect width="1446" height="22"></rect></clipPath><g><g><line x1="0" y1="0" x2="0" y2="5" style="visibility: inherit;" fill="rgb(0, 0, 0)" stroke="rgb(204, 204, 204)" stroke-width="1px"></line><line x1="180.75" y1="0" x2="180.75" y2="5" style="visibility: inherit;" fill="rgb(0, 0, 0)" stroke="rgb(204, 204, 204)" stroke-width="1px"></line><line x1="361.5" y1="0" x2="361.5" y2="5" style="visibility: inherit;" fill="rgb(0, 0, 0)" stroke="rgb(204, 204, 204)" stroke-width="1px"></line><line x1="542.25" y1="0" x2="542.25" y2="5" style="visibility: inherit;" fill="rgb(0, 0, 0)" stroke="rgb(204, 204, 204)" stroke-width="1px"></line><line x1="723" y1="0" x2="723" y2="5" style="visibility: inherit;" fill="rgb(0, 0, 0)" stroke="rgb(204, 204, 204)" stroke-width="1px"></line><line x1="903.75" y1="0" x2="903.75" y2="5" style="visibility: inherit;" fill="rgb(0, 0, 0)" stroke="rgb(204, 204, 204)" stroke-width="1px"></line><line x1="1084.5" y1="0" x2="1084.5" y2="5" style="visibility: inherit;" fill="rgb(0, 0, 0)" stroke="rgb(204, 204, 204)" stroke-width="1px"></line><line x1="1265.25" y1="0" x2="1265.25" y2="5" style="visibility: inherit;" fill="rgb(0, 0, 0)" stroke="rgb(204, 204, 204)" stroke-width="1px"></line><line x1="1446" y1="0" x2="1446" y2="5" style="visibility: inherit;" fill="rgb(0, 0, 0)" stroke="rgb(204, 204, 204)" stroke-width="1px"></line></g><g transform="translate(0, 8)"><text x="0" y="0" dx="0em" dy="0.95em" style="text-anchor: middle; visibility: hidden; font-family: &quot;Helvetica Neue&quot;, sans-serif; font-size: 12px; font-weight: 200;" fill="rgb(50, 49, 63)" stroke="none" stroke-width="1px">-50</text><text x="180.75" y="0" dx="0em" dy="0.95em" style="text-anchor: middle; visibility: inherit; font-family: &quot;Helvetica Neue&quot;, sans-serif; font-size: 12px; font-weight: 200;" fill="rgb(50, 49, 63)" stroke="none" stroke-width="1px">0</text><text x="361.5" y="0" dx="0em" dy="0.95em" style="text-anchor: middle; visibility: inherit; font-family: &quot;Helvetica Neue&quot;, sans-serif; font-size: 12px; font-weight: 200;" fill="rgb(50, 49, 63)" stroke="none" stroke-width="1px">50</text><text x="542.25" y="0" dx="0em" dy="0.95em" style="text-anchor: middle; visibility: inherit; font-family: &quot;Helvetica Neue&quot;, sans-serif; font-size: 12px; font-weight: 200;" fill="rgb(50, 49, 63)" stroke="none" stroke-width="1px">100</text><text x="723" y="0" dx="0em" dy="0.95em" style="text-anchor: middle; visibility: inherit; font-family: &quot;Helvetica Neue&quot;, sans-serif; font-size: 12px; font-weight: 200;" fill="rgb(50, 49, 63)" stroke="none" stroke-width="1px">150</text><text x="903.75" y="0" dx="0em" dy="0.95em" style="text-anchor: middle; visibility: inherit; font-family: &quot;Helvetica Neue&quot;, sans-serif; font-size: 12px; font-weight: 200;" fill="rgb(50, 49, 63)" stroke="none" stroke-width="1px">200</text><text x="1084.5" y="0" dx="0em" dy="0.95em" style="text-anchor: middle; visibility: inherit; font-family: &quot;Helvetica Neue&quot;, sans-serif; font-size: 12px; font-weight: 200;" fill="rgb(50, 49, 63)" stroke="none" stroke-width="1px">250</text><text x="1265.25" y="0" dx="0em" dy="0.95em" style="text-anchor: middle; visibility: inherit; font-family: &quot;Helvetica Neue&quot;, sans-serif; font-size: 12px; font-weight: 200;" fill="rgb(50, 49, 63)" stroke="none" stroke-width="1px">300</text><text x="1446" y="0" dx="0em" dy="0.95em" style="text-anchor: middle; visibility: hidden; font-family: &quot;Helvetica Neue&quot;, sans-serif; font-size: 12px; font-weight: 200;" fill="rgb(50, 49, 63)" stroke="none" stroke-width="1px">350</text></g><line x1="0" y1="0" x2="1446" y2="0" fill="rgb(0, 0, 0)" stroke="rgb(204, 204, 204)" stroke-width="1px"></line></g></g></g></g></svg>