<svg viewBox="0 0 1496 400" xmlns="http://www.w3.org/2000/svg"><g><g><g><g><g><line x1="50" y1="378" x2="45" y2="378" style="visibility: inherit;" fill="rgb(0, 0, 0)" stroke="rgb(204, 204, 204)" stroke-width="1px"></line><line x1="50" y1="340.2" x2="45" y2="340.2" style="visibility: inherit;" fill="rgb(0, 0, 0)" stroke="rgb(204, 204, 204)" stroke-width="1px"></line><line x1="50" y1="302.4" x2="45" y2="302.4" style="visibility: inherit;" fill="rgb(0, 0, 0)" stroke="rgb(204, 204, 204)" stroke-width="1px"></line><line x1="50" y1="264.59999999999997" x2="45" y2="264.59999999999997" style="visibility: inherit;" fill="rgb(0, 0, 0)" stroke="rgb(204, 204, 204)" stroke-width="1px"></line><line x1="50" y1="226.79999999999998" x2="45" y2="226.79999999999998" style="visibility: inherit;" fill="rgb(0, 0, 0)" stroke="rgb(204, 204, 204)" stroke-width="1px"></line><line x1="50" y1="189" x2="45" y2="189" style="visibility: inherit;" fill="rgb(0, 0, 0)" stroke="rgb(204, 204, 204)" stroke-width="1px"></line><line x1="50" y1="151.20000000000002" x2="45" y2="151.20000000000002" style="visibility: inherit;" fill="rgb(0, 0, 0)" stroke="rgb(204, 204, 204)" stroke-width="1px"></line><line x1="50" y1="113.40000000000003" x2="45" y2="113.40000000000003" style="visibility: inherit;" fill="rgb(0, 0, 0)" stroke="rgb(204, 204, 204)" stroke-width="1px"></line><line x1="50" y1="75.60000000000002" x2="45" y2="75.60000000000002" style="visibility: inherit;" fill="rgb(0, 0, 0)" stroke="rgb(204, 204, 204)" stroke-width="1px"></line><line x1="50" y1="37.80000000000001" x2="45" y2="37.80000000000001" style="visibility: inherit;" fill="rgb(0, 0, 0)" stroke="rgb(204, 204, 204)" stroke-width="1px"></line><line x1="50" y1="0" x2="45" y2="0" style="visibility: inherit;" fill="rgb(0, 0, 0)" stroke="rgb(204, 204, 204)" stroke-width="1px"></line></g><g transform="translate(40, 0)"><text x="0" y="378" dx="0em" dy="0.3em" style="text-anchor: end; visibility: hidden; font-family: &quot;Helvetica Neue&quot;, sans-serif; font-size: 12px; font-weight: 200;" fill="rgb(50, 49, 63)" stroke="none" stroke-width="1px">-0.1</text><text x="0" y="340.2" dx="0em" dy="0.3em" style="text-anchor: end; visibility: inherit; font-family: &quot;Helvetica Neue&quot;, sans-serif; font-size: 12px; font-weight: 200;" fill="rgb(50, 49, 63)" stroke="none" stroke-width="1px">0</text><text x="0" y="302.4" dx="0em" dy="0.3em" style="text-anchor: end; visibility: inherit; font-family: &quot;Helvetica Neue&quot;, sans-serif; font-size: 12px; font-weight: 200;" fill="rgb(50, 49, 63)" stroke="none" stroke-width="1px">0.1</text><text x="0" y="264.59999999999997" dx="0em" dy="0.3em" style="text-anchor: end; visibility: inherit; font-family: &quot;Helvetica Neue&quot;, sans-serif; font-size: 12px; font-weight: 200;" fill="rgb(50, 49, 63)" stroke="none" stroke-width="1px">0.2</text><text x="0" y="226.79999999999998" dx="0em" dy="0.3em" style="text-anchor: end; visibility: inherit; font-family: &quot;Helvetica Neue&quot;, sans-serif; font-size: 12px; font-weight: 200;" fill="rgb(50, 49, 63)" stroke="none" stroke-width="1px">0.3</text><text x="0" y="189" dx="0em" dy="0.3em" style="text-anchor: end; visibility: inherit; font-family: &quot;Helvetica Neue&quot;, sans-serif; font-size: 12px; font-weight: 200;" fill="rgb(50, 49, 63)" stroke="none" stroke-width="1px">0.4</text><text x="0" y="151.20000000000002" dx="0em" dy="0.3em" style="text-anchor: end; visibility: inherit; font-family: &quot;Helvetica Neue&quot;, sans-serif; font-size: 12px; font-weight: 200;" fill="rgb(50, 49, 63)" stroke="none" stroke-width="1px">0.5</text><text x="0" y="113.40000000000003" dx="0em" dy="0.3em" style="text-anchor: end; visibility: inherit; font-family: &quot;Helvetica Neue&quot;, sans-serif; font-size: 12px; font-weight: 200;" fill="rgb(50, 49, 63)" stroke="none" stroke-width="1px">0.6</text><text x="0" y="75.60000000000002" dx="0em" dy="0.3em" style="text-anchor: end; visibility: inherit; font-family: &quot;Helvetica Neue&quot;, sans-serif; font-size: 12px; font-weight: 200;" fill="rgb(50, 49, 63)" stroke="none" stroke-width="1px">0.7</text><text x="0" y="37.80000000000001" dx="0em" dy="0.3em" style="text-anchor: end; visibility: inherit; font-family: &quot;Helvetica Neue&quot;, sans-serif; font-size: 12px; font-weight: 200;" fill="rgb(50, 49, 63)" stroke="none" stroke-width="1px">0.8</text><text x="0" y="0" dx="0em" dy="0.3em" style="text-anchor: end; visibility: hidden; font-family: &quot;Helvetica Neue&quot;, sans-serif; font-size: 12px; font-weight: 200;" fill="rgb(50, 49, 63)" stroke="none" stroke-width="1px">0.9</text></g><line x1="50" y1="0" x2="50" y2="378" fill="rgb(0, 0, 0)" stroke="rgb(204, 204, 204)" stroke-width="1px"></line></g></g><g transform="translate(50, 0)" clip-path="url(#clip_0)"><clipPath id="clip_0"><rect width="1446" height="378"></rect></clipPath><g><g><g><line x1="0" y1="0" x2="0" y2="378" fill="rgb(0, 0, 0)" stroke="rgb(60, 60, 60)" stroke-width="1px" opacity="0.25"></line><line x1="180.75" y1="0" x2="180.75" y2="378" fill="rgb(0, 0, 0)" stroke="rgb(60, 60, 60)" stroke-width="1px" opacity="0.25"></line><line x1="361.5" y1="0" x2="361.5" y2="378" fill="rgb(0, 0, 0)" stroke="rgb(60, 60, 60)" stroke-width="1px" opacity="0.25"></line><line x1="542.25" y1="0" x2="542.25" y2="378" fill="rgb(0, 0, 0)" stroke="rgb(60, 60, 60)" stroke-width="1px" opacity="0.25"></line><line x1="723" y1="0" x2="723" y2="378" fill="rgb(0, 0, 0)" stroke="rgb(60, 60, 60)" stroke-width="1px" opacity="0.25"></line><line x1="903.75" y1="0" x2="903.75" y2="378" fill="rgb(0, 0, 0)" stroke="rgb(60, 60, 60)" stroke-width="1px" opacity="0.25"></line><line x1="1084.5" y1="0" x2="1084.5" y2="378" fill="rgb(0, 0, 0)" stroke="rgb(60, 60, 60)" stroke-width="1px" opacity="0.25"></line><line x1="1265.25" y1="0" x2="1265.25" y2="378" fill="rgb(0, 0, 0)" stroke="rgb(60, 60, 60)" stroke-width="1px" opacity="0.25"></line><line x1="1446" y1="0" x2="1446" y2="378" fill="rgb(0, 0, 0)" stroke="rgb(60, 60, 60)" stroke-width="1px" opacity="0.25"></line></g><g><line x1="0" y1="378" x2="1446" y2="378" fill="rgb(0, 0, 0)" stroke="rgb(60, 60, 60)" stroke-width="1px" opacity="0.25"></line><line x1="0" y1="340.2" x2="1446" y2="340.2" fill="rgb(0, 0, 0)" stroke="rgb(60, 60, 60)" stroke-width="1px" opacity="0.25"></line><line x1="0" y1="302.4" x2="1446" y2="302.4" fill="rgb(0, 0, 0)" stroke="rgb(60, 60, 60)" stroke-width="1px" opacity="0.25"></line><line x1="0" y1="264.59999999999997" x2="1446" y2="264.59999999999997" fill="rgb(0, 0, 0)" stroke="rgb(60, 60, 60)" stroke-width="1px" opacity="0.25"></line><line x1="0" y1="226.79999999999998" x2="1446" y2="226.79999999999998" fill="rgb(0, 0, 0)" stroke="rgb(60, 60, 60)" stroke-width="1px" opacity="0.25"></line><line x1="0" y1="189" x2="1446" y2="189" fill="rgb(0, 0, 0)" stroke="rgb(60, 60, 60)" stroke-width="1px" opacity="0.25"></line><line x1="0" y1="151.20000000000002" x2="1446" y2="151.20000000000002" fill="rgb(0, 0, 0)" stroke="rgb(60, 60, 60)" stroke-width="1px" opacity="0.25"></line><line x1="0" y1="113.40000000000003" x2="1446" y2="113.40000000000003" fill="rgb(0, 0, 0)" stroke="rgb(60, 60, 60)" stroke-width="1px" opacity="0.25"></line><line x1="0" y1="75.60000000000002" x2="1446" y2="75.60000000000002" fill="rgb(0, 0, 0)" stroke="rgb(60, 60, 60)" stroke-width="1px" opacity="0.25"></line><line x1="0" y1="37.80000000000001" x2="1446" y2="37.80000000000001" fill="rgb(0, 0, 0)" stroke="rgb(60, 60, 60)" stroke-width="1px" opacity="0.25"></line><line x1="0" y1="0" x2="1446" y2="0" fill="rgb(0, 0, 0)" stroke="rgb(60, 60, 60)" stroke-width="1px" opacity="0.25"></line></g></g></g><g><g><line x1="0" y1="340.2" x2="1446" y2="340.2" fill="rgb(0, 0, 0)" stroke="rgb(153, 153, 153)" stroke-width="1.5px"></line></g></g><g><g><line x1="180.75" y1="0" x2="180.75" y2="378" fill="rgb(0, 0, 0)" stroke="rgb(153, 153, 153)" stroke-width="1.5px"></line></g></g><g><g><g><g><g><path stroke="rgb(204, 51, 17)" stroke-width="2px" d="M180.75,85.3155856847763L184.365,138.38973433971407L187.98000000000002,169.58483208417894L191.595,196.4956545352936L195.21,215.50360293388368L198.82500000000002,230.19822288751604L202.44000000000003,244.65668882131578L206.05499999999998,255.66474096179007L209.67,264.9541735768318L213.285,275.21536032557486L216.9,280.4454514503479L220.515,286.7719413757324L224.13,292.60486004948615L227.745,296.99469944536685L231.36,300.23544107079505L234.975,304.6004039168358L238.59,307.29851682186126L242.205,309.9572857439518L245.82000000000002,313.27914581894873L249.43499999999997,315.6557392448187L253.04999999999998,316.9316206768155L256.66499999999996,317.7514132529497L260.28,318.56191338300704L263.895,321.77924998551606L267.51,322.418284137547L271.125,321.6950251355767L274.74,323.2807397291064L278.355,324.271181550622L281.97,323.29466079622506L285.58500000000004,323.78203192055224L289.2,323.2257539078593L292.815,322.23925915807484L296.43,324.2165435448289L300.04499999999996,325.2828260332346L303.65999999999997,325.8391561478376L307.275,325.1333639591932L310.89,324.8626649647951L314.505,326.0080761730671L318.12,326.33947389274834L321.735,327.5607778698206L325.35,324.0946926668286L328.96500000000003,328.048232075572L332.58000000000004,326.2607577636838L336.195,323.1681672155857L339.81,320.76721121817826L343.425,318.14832137972115L347.03999999999996,321.0668746501207L350.655,323.6609893262386L354.27,325.40269844681023L357.885,318.93031613230704L361.5,322.0117441982031L365.115,321.1864316359162L368.73,324.1249371215701L372.345,324.478188072145L375.96000000000004,322.7908705294132L379.575,324.1757899940014L383.19,324.1883409217L386.805,326.04612042456864L390.42,326.3722178310156L394.035,323.9297689989209L397.65000000000003,325.3799566671252L401.26500000000004,325.8918283626437L404.88000000000005,322.92135342657565L408.49499999999995,325.4762353643775L412.10999999999996,324.88645863980054L415.72499999999997,325.76657959520816L419.34,326.60087058395146L422.955,324.73923131525515L426.57,324.2500084608793L430.185,326.17142270207404L433.8,324.6927606359124L437.41499999999996,325.448942412436L441.03,324.0146261125803L444.645,325.569318947196L448.26,324.7074392929673L451.875,325.2313127338886L455.49,324.08061106950043L459.105,324.8748370975256L462.72,323.10395513176917L466.33500000000004,321.630482134223L469.95,321.5576830923557L473.565,319.05865299403666L477.18,321.87515552043914L480.795,321.5041673898697L484.41,321.0807971253991L488.02500000000003,320.48349801152943L491.64000000000004,320.4805070802569L495.25500000000005,320.1930692911148L498.86999999999995,319.1485456869006L502.48499999999996,317.4548421397805L506.09999999999997,318.5326743543148L509.715,318.0714668378234L513.3299999999999,317.6889529198408L516.9449999999999,315.71268522441386L520.56,316.7256744995713L524.175,315.5328406959772L527.79,315.59643600583075L531.405,315.4527445703745L535.02,314.8569606363773L538.635,314.89504572451114L542.25,314.94712792038916L545.865,315.93408173024653L549.48,316.2779233574867L553.095,316.3373279839754L556.71,315.8213331967592L560.325,316.63440321832894L563.94,316.62292108386754L567.5550000000001,315.9332002222538L571.1700000000001,316.46863043010234L574.7850000000001,315.6967899173498L578.4,315.0471382409334L582.015,315.42805953025817L585.63,315.72870726585387L589.245,316.41524146199225L592.86,316.2889464318752L596.475,314.45979763269423L600.0899999999999,316.0729037493467L603.7049999999999,315.8545094400644L607.3199999999999,315.5384958654642L610.935,315.3644557714462L614.55,314.9022780328989L618.165,314.0111100643873L621.78,315.63415215611457L625.395,316.6406948760152L629.01,315.8372679322958L632.625,314.34015193283557L636.24,315.86332451999186L639.855,314.84921294152736L643.47,315.14754847884177L647.085,315.1740613102913L650.7,314.1220110923052L654.315,314.6507553577423L657.9300000000001,314.95706107914447L661.5450000000001,315.26723360717295L665.1600000000001,314.4207803428173L668.775,314.90644336938857L672.39,314.6043424129486L676.005,312.4563102096319L679.62,314.7080195814371L683.235,313.98471551835536L686.85,315.42959442436694L690.4649999999999,313.8086983680725L694.0799999999999,314.1627350717783L697.6949999999999,314.0251972943544L701.31,314.66893751621245L704.925,314.1583669602871L708.54,314.5151214122772L712.155,313.9934658229351L715.77,315.1315574169159L719.385,315.20246952474116L723,313.6414625018835L726.6149999999999,314.4606340795755L730.23,315.0399904221296L733.8449999999999,315.4038814276457L737.46,314.8194810569286L741.0749999999999,314.87388953268527L744.69,313.6848676174879L748.305,314.48438410162925L751.9200000000001,315.0249512761831L755.535,315.0844939023256L759.15,315.0976095020771L762.765,315.15741122961043L766.38,315.3800947934389L769.995,314.36213330626487L773.61,314.7022179633379L777.225,315.6351153373718L780.84,314.502515566349L784.4549999999999,315.49861959815024L788.07,314.17585912048816L791.685,314.9144586145878L795.3000000000001,313.8485605537891L798.915,314.1893295764923L802.5300000000001,314.8449067890644L806.145,315.2419684052467L809.7600000000001,315.69423551559447L813.375,314.8826173067093L816.9899999999999,314.28307921886443L820.605,314.6717791825533L824.2199999999999,315.2347586274147L827.835,314.96956272125243L831.4499999999999,314.51924732029437L835.065,314.1660386145115L838.68,314.79454536437987L842.2950000000001,314.13073323369025L845.91,314.53363308012484L849.525,314.8542907655239L853.14,314.4472931742668L856.755,314.4354730814695L860.37,314.5754666894674L863.985,313.9001555263996L867.6,314.014821973443L871.215,315.35512530505656L874.8299999999999,314.6447988420725L878.445,315.2495837330818L882.06,314.0979540914297L885.6750000000001,315.068522554636L889.29,314.8188868135214L892.9050000000001,314.90462402701377L896.52,314.1384668469429L900.1350000000001,314.1332622885704L903.75,315.0460962027311L907.3649999999999,315.31461536586284L910.98,314.6660423398018L914.5949999999999,313.5500278741121L918.21,315.1655672907829L921.8249999999999,313.6892864227295L925.44,314.904891577363L929.055,314.8183376312256L932.6700000000001,314.55204899311065L936.285,315.11653798520564L939.9,314.453627076745L943.515,314.7098473727703L947.13,315.251659360528L950.745,314.8258769184351L954.36,315.5010669797659L957.975,314.11812738776206L961.59,314.59627365767955L965.2049999999999,314.9977259159088L968.82,315.22190212905406L972.435,314.48609642386435L976.0500000000001,315.39964568316935L979.665,313.50867022275924L983.2800000000001,314.650614541769L986.895,314.6479700177908L990.5100000000001,314.53005072176455L994.125,315.17180262207984L997.7399999999999,315.3932639032602L1001.355,314.6892488121986L1004.9699999999999,313.66518436074256L1008.585,314.08154903054236L1012.1999999999999,314.0621276915073L1015.815,315.28643527328967L1019.43,315.3568122804165L1023.0450000000001,314.53731119334697L1026.6599999999999,315.31919470131396L1030.275,314.8240547597408L1033.8899999999999,314.73501963615416L1037.505,314.86655583679675L1041.12,314.85730141103267L1044.7350000000001,315.18261165618895L1048.35,314.5788124769926L1051.9650000000001,314.93012298345565L1055.58,314.63926759064196L1059.1950000000002,314.6751193374395L1062.81,314.20734838843345L1066.425,313.85899220108985L1070.04,315.015412402153L1073.655,315.0708347529173L1077.27,314.3330914199352L1080.885,314.42884064912795L1084.5,314.19723498523234L1088.115,314.7501460880041L1091.73,314.4428659200668L1095.345,314.7271311253309L1098.96,315.1258769005537L1102.575,314.548905980587L1106.19,314.9102763801813L1109.8049999999998,313.5699533343315L1113.42,313.98787824511527L1117.0349999999999,314.4175500243902L1120.65,313.80002128779887L1124.2649999999999,314.67991271317004L1127.88,314.59880552887915L1131.495,313.33988256454467L1135.1100000000001,314.60927097201346L1138.725,313.7857819765806L1142.3400000000001,314.42167593240737L1145.955,315.34041566848754L1149.5700000000002,314.9075698971748L1153.185,314.390887928009L1156.8,314.69751752614974L1160.415,314.3081754416227L1164.03,314.5510858118534L1167.645,314.2357650518417L1171.26,314.90818385481833L1174.875,313.9502662986517L1178.49,314.0039059191942L1182.105,314.169519585371L1185.72,314.429125097394L1189.335,314.8256797760725L1192.95,314.40755490660666L1196.565,313.00318312346934L1200.1799999999998,314.74236459732055L1203.795,314.1959986209869L1207.4099999999999,313.807262045145L1211.025,314.05335485637187L1214.6399999999999,313.8694801747799L1218.255,314.7854204893112L1221.87,314.7889380723238L1225.4850000000001,314.450475615263L1229.1,314.0719003200531L1232.7150000000001,314.52401816546916L1236.33,314.6509862959385L1239.9450000000002,314.28389031887053L1243.56,314.7541227310896L1247.175,314.068670001626L1250.79,314.5980085104704L1254.405,314.5727630227804L1258.02,314.4071099281311L1261.635,313.8642756164074" style="fill: none;" fill="none"></path></g></g></g></g></g></g><g transform="translate(50, 378)" clip-path="url(#clip_1)"><clipPath id="clip_1"><rect width="1446" height="22"></rect></clipPath><g><g><line x1="0" y1="0" x2="0" y2="5" style="visibility: inherit;" fill="rgb(0, 0, 0)" stroke="rgb(204, 204, 204)" stroke-width="1px"></line><line x1="180.75" y1="0" x2="180.75" y2="5" style="visibility: inherit;" fill="rgb(0, 0, 0)" stroke="rgb(204, 204, 204)" stroke-width="1px"></line><line x1="361.5" y1="0" x2="361.5" y2="5" style="visibility: inherit;" fill="rgb(0, 0, 0)" stroke="rgb(204, 204, 204)" stroke-width="1px"></line><line x1="542.25" y1="0" x2="542.25" y2="5" style="visibility: inherit;" fill="rgb(0, 0, 0)" stroke="rgb(204, 204, 204)" stroke-width="1px"></line><line x1="723" y1="0" x2="723" y2="5" style="visibility: inherit;" fill="rgb(0, 0, 0)" stroke="rgb(204, 204, 204)" stroke-width="1px"></line><line x1="903.75" y1="0" x2="903.75" y2="5" style="visibility: inherit;" fill="rgb(0, 0, 0)" stroke="rgb(204, 204, 204)" stroke-width="1px"></line><line x1="1084.5" y1="0" x2="1084.5" y2="5" style="visibility: inherit;" fill="rgb(0, 0, 0)" stroke="rgb(204, 204, 204)" stroke-width="1px"></line><line x1="1265.25" y1="0" x2="1265.25" y2="5" style="visibility: inherit;" fill="rgb(0, 0, 0)" stroke="rgb(204, 204, 204)" stroke-width="1px"></line><line x1="1446" y1="0" x2="1446" y2="5" style="visibility: inherit;" fill="rgb(0, 0, 0)" stroke="rgb(204, 204, 204)" stroke-width="1px"></line></g><g transform="translate(0, 8)"><text x="0" y="0" dx="0em" dy="0.95em" style="text-anchor: middle; visibility: hidden; font-family: &quot;Helvetica Neue&quot;, sans-serif; font-size: 12px; font-weight: 200;" fill="rgb(50, 49, 63)" stroke="none" stroke-width="1px">-50</text><text x="180.75" y="0" dx="0em" dy="0.95em" style="text-anchor: middle; visibility: inherit; font-family: &quot;Helvetica Neue&quot;, sans-serif; font-size: 12px; font-weight: 200;" fill="rgb(50, 49, 63)" stroke="none" stroke-width="1px">0</text><text x="361.5" y="0" dx="0em" dy="0.95em" style="text-anchor: middle; visibility: inherit; font-family: &quot;Helvetica Neue&quot;, sans-serif; font-size: 12px; font-weight: 200;" fill="rgb(50, 49, 63)" stroke="none" stroke-width="1px">50</text><text x="542.25" y="0" dx="0em" dy="0.95em" style="text-anchor: middle; visibility: inherit; font-family: &quot;Helvetica Neue&quot;, sans-serif; font-size: 12px; font-weight: 200;" fill="rgb(50, 49, 63)" stroke="none" stroke-width="1px">100</text><text x="723" y="0" dx="0em" dy="0.95em" style="text-anchor: middle; visibility: inherit; font-family: &quot;Helvetica Neue&quot;, sans-serif; font-size: 12px; font-weight: 200;" fill="rgb(50, 49, 63)" stroke="none" stroke-width="1px">150</text><text x="903.75" y="0" dx="0em" dy="0.95em" style="text-anchor: middle; visibility: inherit; font-family: &quot;Helvetica Neue&quot;, sans-serif; font-size: 12px; font-weight: 200;" fill="rgb(50, 49, 63)" stroke="none" stroke-width="1px">200</text><text x="1084.5" y="0" dx="0em" dy="0.95em" style="text-anchor: middle; visibility: inherit; font-family: &quot;Helvetica Neue&quot;, sans-serif; font-size: 12px; font-weight: 200;" fill="rgb(50, 49, 63)" stroke="none" stroke-width="1px">250</text><text x="1265.25" y="0" dx="0em" dy="0.95em" style="text-anchor: middle; visibility: inherit; font-family: &quot;Helvetica Neue&quot;, sans-serif; font-size: 12px; font-weight: 200;" fill="rgb(50, 49, 63)" stroke="none" stroke-width="1px">300</text><text x="1446" y="0" dx="0em" dy="0.95em" style="text-anchor: middle; visibility: hidden; font-family: &quot;Helvetica Neue&quot;, sans-serif; font-size: 12px; font-weight: 200;" fill="rgb(50, 49, 63)" stroke="none" stroke-width="1px">350</text></g><line x1="0" y1="0" x2="1446" y2="0" fill="rgb(0, 0, 0)" stroke="rgb(204, 204, 204)" stroke-width="1px"></line></g></g></g></g></svg>