<?xml version="1.0" encoding="utf-8" standalone="no"?>
<!DOCTYPE svg PUBLIC "-//W3C//DTD SVG 1.1//EN"
  "http://www.w3.org/Graphics/SVG/1.1/DTD/svg11.dtd">
<!-- Created with matplotlib (https://matplotlib.org/) -->
<svg height="288pt" version="1.1" viewBox="0 0 720 288" width="720pt" xmlns="http://www.w3.org/2000/svg" xmlns:xlink="http://www.w3.org/1999/xlink">
 <metadata>
  <rdf:RDF xmlns:cc="http://creativecommons.org/ns#" xmlns:dc="http://purl.org/dc/elements/1.1/" xmlns:rdf="http://www.w3.org/1999/02/22-rdf-syntax-ns#">
   <cc:Work>
    <dc:type rdf:resource="http://purl.org/dc/dcmitype/StillImage"/>
    <dc:date>2021-05-06T23:36:07.288224</dc:date>
    <dc:format>image/svg+xml</dc:format>
    <dc:creator>
     <cc:Agent>
      <dc:title>Matplotlib v3.3.4, https://matplotlib.org/</dc:title>
     </cc:Agent>
    </dc:creator>
   </cc:Work>
  </rdf:RDF>
 </metadata>
 <defs>
  <style type="text/css">*{stroke-linecap:butt;stroke-linejoin:round;}</style>
 </defs>
 <g id="figure_1">
  <g id="patch_1">
   <path d="M 0 288 
L 720 288 
L 720 0 
L 0 0 
z
" style="fill:#ffffff;"/>
  </g>
  <g id="axes_1">
   <g id="line2d_1">
    <path clip-path="url(#pc44a3bcbf7)" d="M 101.217281 232.507516 
L 95.147455 230.9188 
L 86.046356 228.758944 
L 80.196077 227.566448 
L 75.766617 226.874956 
L 71.800716 226.470277 
L 67.817883 226.282666 
L 64.089126 226.302171 
L 60.118687 226.544055 
L 57.078949 226.918603 
L 53.976195 227.526899 
L 51.433882 228.247788 
L 49.14921 229.119736 
L 47.658664 229.846504 
L 45.94941 230.950896 
L 45.207041 231.649939 
L 44.836354 232.209483 
L 44.723866 232.716867 
L 44.872448 233.162988 
L 45.352435 233.591006 
L 45.980166 233.879365 
L 47.565946 234.266489 
L 50.17945 234.562252 
L 54.17136 234.733809 
L 60.066849 234.726644 
L 67.315293 234.479712 
L 75.96601 233.951042 
L 87.832148 232.950765 
L 94.295342 232.527553 
L 99.994803 232.381007 
L 101.214426 232.37906 
L 101.214426 232.37906 
" style="fill:none;stroke:#000000;stroke-linecap:square;stroke-opacity:0.7;stroke-width:1.2;"/>
   </g>
   <g id="line2d_2">
    <path clip-path="url(#pc44a3bcbf7)" d="M 101.176653 213.460348 
L 93.383772 212.214296 
L 84.36347 210.983596 
L 76.651183 210.117486 
L 70.843083 209.674003 
L 65.017972 209.460101 
L 60.539472 209.485866 
L 56.717429 209.703756 
L 53.57536 210.085642 
L 50.52856 210.702261 
L 48.313173 211.362626 
L 46.333548 212.206516 
L 45.320322 212.863952 
L 44.872001 213.400171 
L 44.831858 213.774745 
L 44.988558 214.023867 
L 45.462972 214.312169 
L 46.62394 214.613265 
L 48.935104 214.837719 
L 52.751942 214.909832 
L 59.304871 214.776446 
L 73.779165 214.201365 
L 94.537294 213.383612 
L 101.175777 213.359176 
L 101.175777 213.359176 
" style="fill:none;stroke:#000000;stroke-linecap:square;stroke-opacity:0.7;stroke-width:1.2;"/>
   </g>
   <g id="line2d_3">
    <path clip-path="url(#pc44a3bcbf7)" d="M 101.18022 194.268903 
L 80.130513 191.917025 
L 73.553203 191.38161 
L 67.764133 191.124726 
L 62.002158 191.080203 
L 57.533224 191.239399 
L 53.653244 191.59254 
L 50.573554 192.078844 
L 48.254182 192.621014 
L 46.23809 193.31508 
L 45.168524 193.92537 
L 44.833867 194.361229 
L 44.861812 194.651141 
L 45.071771 194.879231 
L 45.684507 195.169722 
L 47.027161 195.47146 
L 49.424576 195.719786 
L 53.435304 195.872989 
L 60.009979 195.872983 
L 69.568679 195.645081 
L 79.416084 195.192422 
L 96.750075 194.304995 
L 101.175363 194.159165 
L 101.175363 194.159165 
" style="fill:none;stroke:#000000;stroke-linecap:square;stroke-opacity:0.7;stroke-width:1.2;"/>
   </g>
   <g id="line2d_4">
    <path clip-path="url(#pc44a3bcbf7)" d="M 101.182935 175.118083 
L 95.479353 173.816984 
L 88.360896 172.421077 
L 75.984724 170.261041 
L 70.807802 169.552183 
L 66.284096 169.157556 
L 62.445209 169.026429 
L 59.31124 169.090905 
L 56.007923 169.386634 
L 53.619341 169.804764 
L 51.231176 170.460142 
L 49.501578 171.126826 
L 47.986629 171.88193 
L 46.580763 172.781798 
L 45.506871 173.697295 
L 44.986799 174.322498 
L 44.70388 174.922024 
L 44.710296 175.355498 
L 44.901493 175.645172 
L 45.247218 175.858234 
L 45.751682 176.006779 
L 47.235757 176.123348 
L 49.654126 176.016253 
L 65.363867 174.892019 
L 72.592449 174.794341 
L 91.833664 174.824227 
L 101.182158 175.027461 
L 101.182158 175.027461 
" style="fill:none;stroke:#000000;stroke-linecap:square;stroke-opacity:0.7;stroke-width:1.2;"/>
   </g>
   <g id="line2d_5">
    <path clip-path="url(#pc44a3bcbf7)" d="M 101.183051 155.982915 
L 92.86619 154.733089 
L 84.558043 153.706949 
L 78.077597 153.09888 
L 72.14949 152.768762 
L 66.306198 152.666326 
L 60.560441 152.774298 
L 56.073818 153.061193 
L 52.224282 153.52951 
L 49.17402 154.12112 
L 47.10364 154.713777 
L 45.769632 155.280873 
L 45.020983 155.829877 
L 44.830534 156.247672 
L 44.939968 156.564235 
L 45.251476 156.840725 
L 46.060441 157.207237 
L 47.654363 157.603757 
L 50.173361 157.964848 
L 53.908554 158.266415 
L 59.044617 158.444765 
L 64.861067 158.410938 
L 71.30385 158.129687 
L 79.122507 157.534992 
L 97.309767 156.003711 
L 101.185649 155.88944 
L 101.185649 155.88944 
" style="fill:none;stroke:#000000;stroke-linecap:square;stroke-opacity:0.7;stroke-width:1.2;"/>
   </g>
   <g id="line2d_6">
    <path clip-path="url(#pc44a3bcbf7)" d="M 101.207009 136.858022 
L 94.51082 135.182884 
L 85.452824 133.133916 
L 79.466837 131.954731 
L 74.835053 131.251931 
L 70.82231 130.865966 
L 67.056228 130.717377 
L 63.098296 130.788995 
L 59.398824 131.080384 
L 56.19568 131.5365 
L 52.991043 132.225349 
L 50.452481 132.979702 
L 48.238395 133.848289 
L 46.818959 134.57267 
L 45.516889 135.487858 
L 44.943626 136.121848 
L 44.699992 136.633407 
L 44.713006 137.252333 
L 44.930734 137.643774 
L 45.579426 138.191854 
L 46.528664 138.656621 
L 48.311877 139.214599 
L 50.81449 139.733316 
L 54.186346 140.215024 
L 58.928376 140.653665 
L 64.095188 140.883487 
L 68.598661 140.870931 
L 73.146926 140.63747 
L 77.653692 140.176582 
L 82.237458 139.490429 
L 96.896679 137.058916 
L 100.632608 136.789503 
L 101.219903 136.767155 
L 101.219903 136.767155 
" style="fill:none;stroke:#000000;stroke-linecap:square;stroke-opacity:0.7;stroke-width:1.2;"/>
   </g>
   <g id="line2d_7">
    <path clip-path="url(#pc44a3bcbf7)" d="M 101.191365 117.608426 
L 97.554235 116.6108 
L 93.047417 115.617903 
L 87.90591 114.719619 
L 81.342165 113.801509 
L 75.437693 113.162769 
L 70.174702 112.809906 
L 65.583543 112.705106 
L 61.042755 112.815744 
L 57.098756 113.146849 
L 53.913565 113.65025 
L 51.48466 114.230105 
L 49.031436 115.040644 
L 46.980566 115.957664 
L 45.67106 116.742518 
L 44.797935 117.535252 
L 44.631792 117.96385 
L 44.764437 118.211828 
L 45.023238 118.342898 
L 45.572782 118.435782 
L 46.924296 118.39973 
L 50.100862 117.969646 
L 59.944044 116.478994 
L 65.080427 115.968942 
L 70.410408 115.697478 
L 76.409193 115.630557 
L 82.386961 115.760724 
L 88.120772 116.118756 
L 94.792407 116.801448 
L 101.185824 117.546818 
L 101.185824 117.546818 
" style="fill:none;stroke:#000000;stroke-linecap:square;stroke-opacity:0.7;stroke-width:1.2;"/>
   </g>
   <g id="line2d_8">
    <path clip-path="url(#pc44a3bcbf7)" d="M 101.200214 98.489907 
L 98.211345 97.14734 
L 93.984362 95.522612 
L 89.507558 94.046514 
L 83.553265 92.354313 
L 77.758662 90.92304 
L 73.18982 90.015234 
L 69.298425 89.493993 
L 65.923865 89.272844 
L 62.614141 89.282163 
L 59.498016 89.518332 
L 56.962918 89.906248 
L 54.322085 90.553406 
L 52.620008 91.141949 
L 50.84001 91.942792 
L 48.848944 93.125687 
L 47.075472 94.530181 
L 45.880503 95.779631 
L 45.139993 96.816904 
L 44.739119 97.644081 
L 44.581168 98.549111 
L 44.735229 99.091058 
L 45.163461 99.527639 
L 45.696777 99.769475 
L 46.537982 99.943546 
L 48.233592 100.015522 
L 51.55816 99.82726 
L 71.667733 98.23813 
L 79.871183 97.968755 
L 87.882507 97.917193 
L 95.238623 98.110461 
L 101.203041 98.403648 
L 101.203041 98.403648 
" style="fill:none;stroke:#000000;stroke-linecap:square;stroke-opacity:0.7;stroke-width:1.2;"/>
   </g>
   <g id="line2d_9">
    <path clip-path="url(#pc44a3bcbf7)" d="M 101.166768 79.485044 
L 95.472442 78.679815 
L 87.748048 77.819764 
L 78.096444 76.984782 
L 71.579874 76.626254 
L 65.118511 76.481926 
L 59.283186 76.560843 
L 54.768038 76.844631 
L 50.903703 77.334092 
L 47.901197 77.955743 
L 45.824699 78.627036 
L 44.843546 79.161658 
L 44.533624 79.531393 
L 44.538258 79.798101 
L 44.756315 80.040732 
L 45.385195 80.329464 
L 46.563543 80.602773 
L 49.200478 80.906568 
L 53.85029 81.143725 
L 61.611981 81.277263 
L 70.618837 81.223046 
L 78.429276 80.96217 
L 86.793913 80.443958 
L 101.1732 79.410629 
L 101.1732 79.410629 
" style="fill:none;stroke:#000000;stroke-linecap:square;stroke-opacity:0.7;stroke-width:1.2;"/>
   </g>
   <g id="line2d_10">
    <path clip-path="url(#pc44a3bcbf7)" d="M 101.175144 60.393428 
L 93.573235 59.130214 
L 85.900642 58.062425 
L 78.702651 57.27678 
L 72.846841 56.861274 
L 67.066863 56.672176 
L 61.245499 56.705022 
L 56.773211 56.946343 
L 53.058482 57.372762 
L 50.009101 57.944572 
L 47.758757 58.560642 
L 45.961149 59.28489 
L 44.996591 59.941544 
L 44.712411 60.410473 
L 44.777122 60.795891 
L 45.098782 61.126788 
L 45.930911 61.530936 
L 47.360084 61.916706 
L 49.767612 62.306824 
L 53.600199 62.684004 
L 59.474907 63.010166 
L 65.953245 63.138779 
L 72.517963 63.027134 
L 79.035621 62.674254 
L 85.452868 62.112212 
L 94.607024 61.054666 
L 101.184376 60.305322 
L 101.184376 60.305322 
" style="fill:none;stroke:#000000;stroke-linecap:square;stroke-opacity:0.7;stroke-width:1.2;"/>
   </g>
   <g id="line2d_11">
    <path clip-path="url(#pc44a3bcbf7)" d="M 164.993175 232.553929 
L 160.587932 231.203246 
L 154.661899 229.606413 
L 145.508216 227.396726 
L 139.520521 226.127474 
L 135.48754 225.473322 
L 131.555081 225.068078 
L 127.775218 224.926545 
L 124.526117 225.023397 
L 121.372184 225.351246 
L 118.93601 225.803543 
L 116.596258 226.445264 
L 114.326407 227.313543 
L 112.24765 228.395633 
L 110.796352 229.403626 
L 109.7499 230.378122 
L 109.175796 231.120876 
L 108.798292 231.884251 
L 108.667596 232.564503 
L 108.779753 233.265145 
L 108.996707 233.684192 
L 109.446012 234.184408 
L 110.086125 234.63651 
L 111.393733 235.221265 
L 113.042291 235.685509 
L 115.358321 236.101255 
L 118.508882 236.431416 
L 122.413993 236.609687 
L 127.044983 236.578106 
L 131.694587 236.321097 
L 137.098704 235.781732 
L 144.334605 234.798231 
L 155.635672 233.248316 
L 161.632459 232.703673 
L 164.997889 232.478011 
L 164.997889 232.478011 
" style="fill:none;stroke:#000000;stroke-linecap:square;stroke-opacity:0.7;stroke-width:1.2;"/>
   </g>
   <g id="line2d_12">
    <path clip-path="url(#pc44a3bcbf7)" d="M 164.979288 213.537619 
L 154.15119 212.436973 
L 143.109183 211.527874 
L 136.122424 211.157462 
L 129.090134 211.031026 
L 122.673356 211.134383 
L 118.009228 211.402718 
L 114.185149 211.819046 
L 111.055567 212.384738 
L 109.212556 212.948257 
L 108.474794 213.394872 
L 108.343127 213.694444 
L 108.474594 213.936433 
L 108.854042 214.178795 
L 109.789893 214.488787 
L 111.430919 214.798273 
L 114.590737 215.129773 
L 119.465291 215.364666 
L 125.226441 215.414172 
L 132.345248 215.251662 
L 139.975113 214.864794 
L 150.17753 214.087937 
L 157.258902 213.626909 
L 163.68991 213.434492 
L 164.98598 213.417484 
L 164.98598 213.417484 
" style="fill:none;stroke:#000000;stroke-linecap:square;stroke-opacity:0.7;stroke-width:1.2;"/>
   </g>
   <g id="line2d_13">
    <path clip-path="url(#pc44a3bcbf7)" d="M 165.004779 194.370979 
L 153.685826 191.942413 
L 145.895502 190.441398 
L 140.662011 189.646458 
L 136.067125 189.18302 
L 131.340079 188.967629 
L 127.317464 188.990901 
L 122.80318 189.253208 
L 118.945394 189.716381 
L 115.84886 190.300425 
L 113.582033 190.898591 
L 111.815425 191.523111 
L 110.24567 192.296957 
L 109.210317 193.08613 
L 108.788222 193.625179 
L 108.556065 194.368632 
L 108.653396 194.962976 
L 108.895653 195.413622 
L 109.422779 195.987557 
L 110.263448 196.592145 
L 111.883194 197.385996 
L 114.12906 198.140979 
L 116.711372 198.752063 
L 119.883126 199.26772 
L 123.779464 199.646282 
L 127.929842 199.797423 
L 131.663096 199.727276 
L 135.629799 199.435021 
L 139.516698 198.927246 
L 143.936697 198.118512 
L 153.105767 196.111262 
L 158.249862 195.120199 
L 162.57552 194.510081 
L 165.016075 194.284508 
L 165.016075 194.284508 
" style="fill:none;stroke:#000000;stroke-linecap:square;stroke-opacity:0.7;stroke-width:1.2;"/>
   </g>
   <g id="line2d_14">
    <path clip-path="url(#pc44a3bcbf7)" d="M 164.990255 175.139643 
L 158.92951 173.739761 
L 150.478604 172.030221 
L 140.695129 170.248291 
L 135.531386 169.501801 
L 130.955364 169.054164 
L 127.069861 168.87157 
L 123.314881 168.917944 
L 120.139231 169.197759 
L 117.707054 169.622762 
L 115.332874 170.274537 
L 113.157532 171.14 
L 111.626099 171.958648 
L 110.231666 172.943552 
L 109.200548 173.997727 
L 108.75104 174.838024 
L 108.708446 175.480016 
L 108.941352 175.965361 
L 109.295026 176.2852 
L 109.90363 176.59868 
L 111.328944 176.968528 
L 113.191861 177.177762 
L 116.435491 177.275642 
L 121.761179 177.170976 
L 134.107828 176.62113 
L 164.988766 175.052154 
L 164.988766 175.052154 
" style="fill:none;stroke:#000000;stroke-linecap:square;stroke-opacity:0.7;stroke-width:1.2;"/>
   </g>
   <g id="line2d_15">
    <path clip-path="url(#pc44a3bcbf7)" d="M 164.98536 156.116008 
L 133.770494 151.460029 
L 128.667195 150.995407 
L 124.714459 150.844562 
L 121.595922 150.904693 
L 118.539899 151.177295 
L 116.078012 151.604178 
L 113.723525 152.242151 
L 111.607612 153.080853 
L 110.167926 153.882814 
L 109.123052 154.718687 
L 108.666319 155.287975 
L 108.425161 156.011996 
L 108.530795 156.490418 
L 108.966652 156.993813 
L 109.528838 157.329983 
L 110.330431 157.636886 
L 112.128247 158.049916 
L 115.141812 158.424012 
L 119.724237 158.714461 
L 126.163592 158.87203 
L 132.823779 158.813377 
L 138.750667 158.558762 
L 145.251812 158.066111 
L 154.462841 157.106909 
L 164.993089 155.99519 
L 164.993089 155.99519 
" style="fill:none;stroke:#000000;stroke-linecap:square;stroke-opacity:0.7;stroke-width:1.2;"/>
   </g>
   <g id="line2d_16">
    <path clip-path="url(#pc44a3bcbf7)" d="M 164.976217 136.934584 
L 157.361452 135.996191 
L 147.048192 134.953927 
L 139.186385 134.347322 
L 132.098502 134.037762 
L 125.622894 133.982707 
L 120.455944 134.165684 
L 116.569333 134.516269 
L 113.428459 134.996515 
L 111.081551 135.537151 
L 109.264417 136.190202 
L 108.474324 136.729505 
L 108.32766 137.074027 
L 108.429834 137.326222 
L 108.730989 137.567729 
L 109.652228 137.921084 
L 111.302459 138.249109 
L 114.484344 138.577547 
L 119.699961 138.827316 
L 127.4686 138.94268 
L 135.245746 138.84697 
L 141.740638 138.557721 
L 149.570738 137.963004 
L 161.758576 137.003885 
L 164.987606 136.839075 
L 164.987606 136.839075 
" style="fill:none;stroke:#000000;stroke-linecap:square;stroke-opacity:0.7;stroke-width:1.2;"/>
   </g>
   <g id="line2d_17">
    <path clip-path="url(#pc44a3bcbf7)" d="M 165.004485 117.687668 
L 158.143681 116.438635 
L 150.39116 115.255644 
L 143.296619 114.380265 
L 137.36141 113.86843 
L 131.627077 113.611529 
L 126.456613 113.57773 
L 121.969024 113.75717 
L 118.860829 114.064532 
L 115.722471 114.59763 
L 113.418528 115.177429 
L 111.202405 115.948097 
L 109.758164 116.645884 
L 108.859521 117.290791 
L 108.507814 117.800457 
L 108.521585 118.127951 
L 108.755204 118.398425 
L 109.447303 118.700834 
L 110.859694 118.947786 
L 113.271159 119.081458 
L 117.893547 119.04721 
L 140.710673 118.322503 
L 164.996348 117.593235 
L 164.996348 117.593235 
" style="fill:none;stroke:#000000;stroke-linecap:square;stroke-opacity:0.7;stroke-width:1.2;"/>
   </g>
   <g id="line2d_18">
    <path clip-path="url(#pc44a3bcbf7)" d="M 164.994418 98.580324 
L 150.851712 96.498917 
L 138.309353 94.748286 
L 132.508155 94.152227 
L 127.946229 93.880575 
L 124.141325 93.838557 
L 120.302539 94.03179 
L 117.076213 94.445054 
L 114.611468 94.968045 
L 112.394686 95.652187 
L 110.873904 96.303735 
L 109.523383 97.133152 
L 108.961779 97.657493 
L 108.637506 98.146026 
L 108.519392 98.762768 
L 108.713746 99.293884 
L 109.232294 99.817353 
L 109.838901 100.184838 
L 111.386967 100.778094 
L 113.299618 101.24314 
L 116.388898 101.731416 
L 120.248447 102.107798 
L 125.413849 102.362735 
L 130.609117 102.391526 
L 135.800624 102.201186 
L 140.978249 101.793226 
L 146.81273 101.106934 
L 156.500005 99.6824 
L 164.996506 98.484946 
L 164.996506 98.484946 
" style="fill:none;stroke:#000000;stroke-linecap:square;stroke-opacity:0.7;stroke-width:1.2;"/>
   </g>
   <g id="line2d_19">
    <path clip-path="url(#pc44a3bcbf7)" d="M 164.985929 79.440532 
L 154.242071 77.705805 
L 145.842705 76.577914 
L 139.257385 75.891105 
L 133.537888 75.498689 
L 128.336683 75.353051 
L 123.867508 75.428962 
L 120.023113 75.704745 
L 116.878612 76.137559 
L 113.823652 76.801427 
L 111.574809 77.502902 
L 109.927646 78.210328 
L 108.874689 78.877164 
L 108.446791 79.403264 
L 108.453746 79.773906 
L 108.725071 80.050312 
L 109.610442 80.380149 
L 111.266625 80.627986 
L 114.541286 80.799168 
L 121.064182 80.848333 
L 134.134926 80.698683 
L 143.418968 80.375243 
L 164.987479 79.369148 
L 164.987479 79.369148 
" style="fill:none;stroke:#000000;stroke-linecap:square;stroke-opacity:0.7;stroke-width:1.2;"/>
   </g>
   <g id="line2d_20">
    <path clip-path="url(#pc44a3bcbf7)" d="M 165.004399 60.321204 
L 161.966544 59.154662 
L 157.014537 57.534387 
L 150.698457 55.730818 
L 144.227156 54.114586 
L 139.662997 53.178524 
L 135.757941 52.585266 
L 131.946142 52.232065 
L 128.04377 52.120166 
L 124.724091 52.242996 
L 121.602212 52.580754 
L 118.948319 53.092568 
L 116.629701 53.771229 
L 114.443829 54.677964 
L 112.568959 55.731906 
L 111.191175 56.734241 
L 109.983781 57.874635 
L 109.273618 58.791636 
L 108.885858 59.550767 
L 108.740923 60.282181 
L 108.86695 60.85952 
L 109.085364 61.182163 
L 109.54084 61.543183 
L 110.295723 61.867732 
L 111.887698 62.194222 
L 114.400133 62.378027 
L 118.264295 62.400975 
L 125.640613 62.181657 
L 151.065393 61.065803 
L 164.991087 60.258557 
L 164.991087 60.258557 
" style="fill:none;stroke:#000000;stroke-linecap:square;stroke-opacity:0.7;stroke-width:1.2;"/>
   </g>
   <g id="line2d_21">
    <path clip-path="url(#pc44a3bcbf7)" d="M 228.799055 232.688138 
L 223.209442 231.87274 
L 215.577876 230.99086 
L 207.125567 230.246142 
L 200.422638 229.872149 
L 194.474139 229.762385 
L 188.509406 229.852351 
L 182.629746 230.148454 
L 178.199525 230.598772 
L 175.765199 231.016203 
L 173.995937 231.48868 
L 172.817356 232.016309 
L 172.29435 232.489784 
L 172.185468 232.845223 
L 172.274566 233.149709 
L 172.7039 233.591178 
L 173.441914 234.000654 
L 175.017839 234.542774 
L 177.460553 235.071741 
L 180.674833 235.516137 
L 185.153516 235.883987 
L 190.589887 236.083687 
L 196.467598 236.059434 
L 201.597889 235.82212 
L 206.756241 235.343995 
L 212.613574 234.537047 
L 222.70944 233.06101 
L 227.048051 232.674403 
L 228.810631 232.577364 
L 228.810631 232.577364 
" style="fill:none;stroke:#000000;stroke-linecap:square;stroke-opacity:0.7;stroke-width:1.2;"/>
   </g>
   <g id="line2d_22">
    <path clip-path="url(#pc44a3bcbf7)" d="M 228.812124 213.480421 
L 208.02684 210.701464 
L 201.630206 210.135661 
L 195.886785 209.867307 
L 190.127193 209.824638 
L 185.593328 209.990156 
L 181.787547 210.34499 
L 178.73116 210.84056 
L 176.560336 211.350521 
L 174.29303 212.105701 
L 173.046511 212.732049 
L 172.431064 213.268921 
L 172.305876 213.657436 
L 172.50225 213.996623 
L 173.105868 214.323031 
L 174.425665 214.643552 
L 176.742756 214.901195 
L 180.478013 215.064933 
L 187.130884 215.09159 
L 196.842921 214.885989 
L 205.936617 214.486704 
L 226.128902 213.414932 
L 228.807116 213.364913 
L 228.807116 213.364913 
" style="fill:none;stroke:#000000;stroke-linecap:square;stroke-opacity:0.7;stroke-width:1.2;"/>
   </g>
   <g id="line2d_23">
    <path clip-path="url(#pc44a3bcbf7)" d="M 228.819781 194.208778 
L 226.429106 192.981503 
L 223.331458 191.612197 
L 219.599565 190.18924 
L 215.272825 188.779037 
L 210.076286 187.327032 
L 204.244499 185.929886 
L 200.118003 185.160279 
L 196.894022 184.761347 
L 193.633009 184.580343 
L 190.323085 184.645427 
L 187.180744 184.957027 
L 184.617707 185.417466 
L 182.05985 186.108181 
L 180.202748 186.799073 
L 178.465591 187.637046 
L 176.978473 188.545453 
L 175.201988 189.943439 
L 174.037284 191.134529 
L 173.359165 192.005528 
L 172.793778 192.959949 
L 172.464203 193.954366 
L 172.492562 194.613656 
L 172.687097 194.98821 
L 173.00594 195.259147 
L 173.453295 195.45011 
L 174.31615 195.594972 
L 176.010367 195.574185 
L 178.604979 195.293572 
L 197.716286 192.795987 
L 203.822079 192.341415 
L 209.845089 192.123017 
L 214.485958 192.176266 
L 218.447614 192.435076 
L 222.27694 192.893954 
L 226.301247 193.586385 
L 228.816676 194.134045 
L 228.816676 194.134045 
" style="fill:none;stroke:#000000;stroke-linecap:square;stroke-opacity:0.7;stroke-width:1.2;"/>
   </g>
   <g id="line2d_24">
    <path clip-path="url(#pc44a3bcbf7)" d="M 228.814147 175.159539 
L 224.433898 173.91626 
L 217.998872 172.31471 
L 210.920248 170.769205 
L 205.051455 169.679996 
L 200.456273 169.033086 
L 195.932883 168.639832 
L 192.087806 168.520545 
L 188.156335 168.633752 
L 185.090011 168.931295 
L 182.541176 169.363861 
L 180.13836 169.970357 
L 177.843651 170.777273 
L 175.694833 171.802007 
L 174.291664 172.687109 
L 173.134884 173.681219 
L 172.629926 174.326295 
L 172.335769 175.093949 
L 172.390089 175.614982 
L 172.708152 176.09465 
L 173.200914 176.453485 
L 174.048519 176.811657 
L 175.622161 177.180383 
L 178.167783 177.473267 
L 182.012459 177.631723 
L 187.266564 177.593241 
L 194.459596 177.284996 
L 204.364862 176.607109 
L 224.138394 175.119554 
L 228.810741 175.068229 
L 228.810741 175.068229 
" style="fill:none;stroke:#000000;stroke-linecap:square;stroke-opacity:0.7;stroke-width:1.2;"/>
   </g>
   <g id="line2d_25">
    <path clip-path="url(#pc44a3bcbf7)" d="M 228.823419 155.964715 
L 224.493952 154.621142 
L 218.167229 152.915316 
L 211.749728 151.398592 
L 206.397274 150.331459 
L 201.878898 149.65601 
L 197.955864 149.287094 
L 194.048326 149.134112 
L 190.196724 149.201324 
L 187.028203 149.44585 
L 183.91547 149.904183 
L 181.476638 150.462902 
L 179.099851 151.222414 
L 176.891142 152.165266 
L 174.825524 153.333024 
L 173.605945 154.249414 
L 172.70069 155.233984 
L 172.380046 155.994505 
L 172.426839 156.440557 
L 172.720082 156.850687 
L 173.164723 157.140343 
L 173.874155 157.404212 
L 175.538536 157.713472 
L 177.923188 157.888138 
L 181.777881 157.926293 
L 187.703909 157.747099 
L 201.69474 157.014459 
L 224.895313 155.812127 
L 228.82444 155.877444 
L 228.82444 155.877444 
" style="fill:none;stroke:#000000;stroke-linecap:square;stroke-opacity:0.7;stroke-width:1.2;"/>
   </g>
   <g id="line2d_26">
    <path clip-path="url(#pc44a3bcbf7)" d="M 228.791319 136.906932 
L 223.683788 135.871267 
L 217.03977 134.741935 
L 208.74282 133.576341 
L 202.235113 132.881174 
L 196.572148 132.521013 
L 191.531031 132.407494 
L 186.899667 132.514608 
L 183.160036 132.83056 
L 180.092824 133.322869 
L 177.726446 133.899092 
L 175.446084 134.676862 
L 173.962694 135.367766 
L 172.885758 136.0706 
L 172.332017 136.695422 
L 172.249209 137.071112 
L 172.37067 137.345194 
L 172.806617 137.647642 
L 173.845925 137.930231 
L 175.909877 138.119591 
L 179.826282 138.15269 
L 193.456026 137.859767 
L 208.954601 137.443172 
L 227.373753 136.820761 
L 228.788022 136.813526 
L 228.788022 136.813526 
" style="fill:none;stroke:#000000;stroke-linecap:square;stroke-opacity:0.7;stroke-width:1.2;"/>
   </g>
   <g id="line2d_27">
    <path clip-path="url(#pc44a3bcbf7)" d="M 228.795368 117.912416 
L 223.023744 117.098822 
L 197.378291 113.887488 
L 192.790133 113.614883 
L 188.261554 113.570223 
L 183.839282 113.761595 
L 180.059946 114.147572 
L 176.981142 114.698241 
L 175.056635 115.250503 
L 173.547707 115.941293 
L 172.666421 116.642062 
L 172.2381 117.367487 
L 172.186339 118.029027 
L 172.409999 118.678352 
L 172.854327 119.284934 
L 173.513634 119.874631 
L 174.583935 120.549129 
L 176.14316 121.240845 
L 178.401712 121.918029 
L 180.908228 122.399842 
L 183.626608 122.712174 
L 187.480372 122.89564 
L 191.430764 122.851571 
L 195.885673 122.579214 
L 200.938393 122.027225 
L 207.22837 121.068233 
L 222.432063 118.606518 
L 228.809221 117.818641 
L 228.809221 117.818641 
" style="fill:none;stroke:#000000;stroke-linecap:square;stroke-opacity:0.7;stroke-width:1.2;"/>
   </g>
   <g id="line2d_28">
    <path clip-path="url(#pc44a3bcbf7)" d="M 228.806257 98.60272 
L 222.464969 97.371916 
L 215.327935 96.206681 
L 207.660849 95.169158 
L 201.180676 94.509901 
L 195.921799 94.195706 
L 190.745083 94.120888 
L 186.273073 94.297897 
L 183.069985 94.618042 
L 180.079188 95.114884 
L 177.636346 95.705728 
L 175.282976 96.501092 
L 173.907097 97.144034 
L 172.808781 97.896621 
L 172.346449 98.508724 
L 172.304947 98.949077 
L 172.510901 99.313766 
L 173.087777 99.716285 
L 174.329019 100.145759 
L 176.071963 100.479658 
L 179.184119 100.810799 
L 183.745011 101.049078 
L 190.234751 101.141774 
L 197.446173 101.005451 
L 204.594258 100.636258 
L 211.847212 100.030121 
L 227.495044 98.594677 
L 228.81198 98.516274 
L 228.81198 98.516274 
" style="fill:none;stroke:#000000;stroke-linecap:square;stroke-opacity:0.7;stroke-width:1.2;"/>
   </g>
   <g id="line2d_29">
    <path clip-path="url(#pc44a3bcbf7)" d="M 228.845669 79.412977 
L 221.342672 77.54039 
L 214.213217 75.973287 
L 208.470582 74.928304 
L 203.81115 74.282162 
L 199.214833 73.864281 
L 194.631395 73.695839 
L 190.620581 73.773251 
L 186.698415 74.080135 
L 182.963494 74.625282 
L 179.887756 75.298465 
L 176.937749 76.192343 
L 174.82197 77.070201 
L 173.308889 77.965706 
L 172.527793 78.72581 
L 172.262932 79.403751 
L 172.33456 79.820926 
L 172.659352 80.282243 
L 173.268245 80.731243 
L 174.164706 81.156472 
L 175.998942 81.734226 
L 178.952338 82.346733 
L 182.927994 82.895637 
L 187.617211 83.30376 
L 192.928409 83.520074 
L 197.567291 83.49574 
L 202.134952 83.241091 
L 205.933344 82.821836 
L 210.515868 82.073379 
L 223.458869 79.689066 
L 227.126999 79.366056 
L 228.854791 79.311069 
L 228.854791 79.311069 
" style="fill:none;stroke:#000000;stroke-linecap:square;stroke-opacity:0.7;stroke-width:1.2;"/>
   </g>
   <g id="line2d_30">
    <path clip-path="url(#pc44a3bcbf7)" d="M 228.819623 60.305383 
L 221.299819 58.540445 
L 212.204693 56.620576 
L 206.401173 55.588851 
L 201.855053 54.994135 
L 198.015393 54.695001 
L 194.156636 54.598428 
L 190.286619 54.707852 
L 186.470835 55.033899 
L 183.298654 55.503574 
L 180.255243 56.16844 
L 177.794234 56.901496 
L 175.578873 57.769955 
L 174.124565 58.518934 
L 173.011984 59.313094 
L 172.424065 60.049688 
L 172.34241 60.588905 
L 172.510934 60.949569 
L 173.060618 61.391759 
L 173.847312 61.730027 
L 175.54427 62.153225 
L 178.017982 62.50782 
L 181.911538 62.821448 
L 187.309701 63.016223 
L 193.823325 63.008068 
L 200.340676 62.761117 
L 206.115167 62.332655 
L 213.309156 61.567585 
L 223.031096 60.538754 
L 228.212235 60.237354 
L 228.816899 60.216824 
L 228.816899 60.216824 
" style="fill:none;stroke:#000000;stroke-linecap:square;stroke-opacity:0.7;stroke-width:1.2;"/>
   </g>
   <g id="line2d_31">
    <path clip-path="url(#pc44a3bcbf7)" d="M 292.618855 232.542208 
L 283.625355 230.978321 
L 275.298074 229.761236 
L 268.101165 228.913351 
L 262.977873 228.52686 
L 257.721671 228.367075 
L 252.533265 228.453528 
L 248.043473 228.772759 
L 244.296089 229.285957 
L 241.244017 229.944641 
L 238.988777 230.656504 
L 237.63981 231.263365 
L 236.635769 231.963661 
L 236.239313 232.570088 
L 236.252903 233.006517 
L 236.492235 233.376031 
L 237.185352 233.85544 
L 238.561964 234.365781 
L 240.324621 234.765426 
L 243.500257 235.206222 
L 247.349211 235.500143 
L 251.920496 235.633109 
L 257.058355 235.556084 
L 262.215646 235.264426 
L 268.133886 234.710211 
L 275.881967 233.741776 
L 283.610294 232.812972 
L 288.157965 232.511691 
L 292.620926 232.442684 
L 292.620926 232.442684 
" style="fill:none;stroke:#000000;stroke-linecap:square;stroke-opacity:0.7;stroke-width:1.2;"/>
   </g>
   <g id="line2d_32">
    <path clip-path="url(#pc44a3bcbf7)" d="M 292.593392 213.47287 
L 285.596407 212.282311 
L 276.423192 210.941919 
L 269.240023 210.093762 
L 263.18921 209.592301 
L 257.323008 209.332465 
L 252.160967 209.325828 
L 248.383015 209.526272 
L 245.433551 209.872643 
L 242.815608 210.372934 
L 240.490717 211.010717 
L 238.254393 211.855198 
L 236.660486 212.71159 
L 236.049673 213.238501 
L 235.901346 213.630475 
L 236.04013 213.840834 
L 236.467571 214.021577 
L 237.656428 214.155034 
L 240.050521 214.120978 
L 257.832358 213.386514 
L 280.110843 213.250139 
L 292.593347 213.372186 
L 292.593347 213.372186 
" style="fill:none;stroke:#000000;stroke-linecap:square;stroke-opacity:0.7;stroke-width:1.2;"/>
   </g>
   <g id="line2d_33">
    <path clip-path="url(#pc44a3bcbf7)" d="M 292.626663 194.313971 
L 286.427221 192.935782 
L 279.401507 191.604929 
L 272.347584 190.484411 
L 266.633045 189.798091 
L 262.136216 189.470742 
L 257.622351 189.350905 
L 253.16496 189.440138 
L 249.292589 189.718933 
L 246.151536 190.136953 
L 243.065479 190.781155 
L 240.67312 191.494424 
L 238.472788 192.396266 
L 237.088597 193.198877 
L 236.476722 193.718516 
L 236.118028 194.289835 
L 236.129632 194.674642 
L 236.351519 194.97571 
L 236.847742 195.26675 
L 237.695816 195.523967 
L 239.573416 195.793286 
L 242.806795 195.95488 
L 248.209955 195.962035 
L 257.271507 195.733303 
L 267.374075 195.268256 
L 287.456649 194.201457 
L 292.62552 194.214621 
L 292.62552 194.214621 
" style="fill:none;stroke:#000000;stroke-linecap:square;stroke-opacity:0.7;stroke-width:1.2;"/>
   </g>
   <g id="line2d_34">
    <path clip-path="url(#pc44a3bcbf7)" d="M 292.603377 175.136277 
L 283.587531 174.081111 
L 269.807961 172.708537 
L 262.1265 172.133084 
L 256.279987 171.898296 
L 251.059939 171.909196 
L 247.185254 172.124124 
L 243.986944 172.494553 
L 240.950854 173.062518 
L 238.720608 173.667725 
L 237.233516 174.225171 
L 236.200338 174.810277 
L 235.86576 175.260093 
L 235.960377 175.519277 
L 236.278766 175.714922 
L 237.234946 175.942288 
L 239.000296 176.081961 
L 242.939137 176.087735 
L 254.736943 175.722696 
L 283.390229 175.041538 
L 292.593895 175.028291 
L 292.593895 175.028291 
" style="fill:none;stroke:#000000;stroke-linecap:square;stroke-opacity:0.7;stroke-width:1.2;"/>
   </g>
   <g id="line2d_35">
    <path clip-path="url(#pc44a3bcbf7)" d="M 292.619687 155.91237 
L 290.161302 154.783535 
L 286.494867 153.329796 
L 282.053008 151.818133 
L 276.94836 150.319995 
L 270.416787 148.648726 
L 265.731973 147.657529 
L 261.750445 147.059254 
L 258.521975 146.792955 
L 255.235767 146.746532 
L 251.977628 146.943786 
L 249.435484 147.290906 
L 246.902796 147.844582 
L 244.5323 148.604287 
L 242.782436 149.35746 
L 240.736852 150.504686 
L 239.199853 151.615658 
L 237.697871 153.019346 
L 236.671641 154.361103 
L 236.258012 155.218904 
L 236.129244 156.119911 
L 236.335409 156.681906 
L 236.797574 157.090798 
L 237.360536 157.323892 
L 238.332277 157.502269 
L 240.005248 157.552702 
L 243.211312 157.338358 
L 249.322665 156.635216 
L 260.589792 155.343407 
L 266.839966 154.85786 
L 272.899773 154.596673 
L 278.161702 154.574886 
L 282.685343 154.764722 
L 287.377968 155.174647 
L 292.62528 155.827084 
L 292.62528 155.827084 
" style="fill:none;stroke:#000000;stroke-linecap:square;stroke-opacity:0.7;stroke-width:1.2;"/>
   </g>
   <g id="line2d_36">
    <path clip-path="url(#pc44a3bcbf7)" d="M 292.604794 136.876245 
L 284.257896 135.70062 
L 273.633679 134.429936 
L 267.085426 133.838856 
L 261.213708 133.547422 
L 255.437199 133.492406 
L 250.289373 133.653622 
L 245.721298 134.034141 
L 242.536138 134.495489 
L 240.076012 135.021414 
L 237.99884 135.678462 
L 236.843351 136.262636 
L 236.387142 136.668098 
L 236.221647 137.130092 
L 236.372557 137.480057 
L 236.729187 137.785696 
L 237.575603 138.184269 
L 239.235141 138.63834 
L 241.77241 139.060399 
L 245.761204 139.457324 
L 250.998794 139.724672 
L 256.714928 139.787974 
L 262.522768 139.635656 
L 268.99497 139.232909 
L 276.775587 138.497575 
L 292.611585 136.802651 
L 292.611585 136.802651 
" style="fill:none;stroke:#000000;stroke-linecap:square;stroke-opacity:0.7;stroke-width:1.2;"/>
   </g>
   <g id="line2d_37">
    <path clip-path="url(#pc44a3bcbf7)" d="M 292.625003 117.850941 
L 283.148537 116.718306 
L 265.598131 114.57095 
L 258.98304 113.996539 
L 253.881777 113.753631 
L 250.03562 113.756513 
L 246.736014 113.949361 
L 243.684347 114.341356 
L 241.222584 114.858534 
L 239.037303 115.546417 
L 237.676553 116.178311 
L 236.654844 116.934122 
L 236.241669 117.590665 
L 236.232017 118.147763 
L 236.497038 118.637561 
L 236.988492 119.086617 
L 237.701459 119.510098 
L 239.284979 120.129208 
L 241.672584 120.723885 
L 244.928355 121.227174 
L 248.778237 121.55853 
L 253.219658 121.702855 
L 258.451934 121.630657 
L 263.638204 121.344609 
L 269.463942 120.781693 
L 276.712213 119.81253 
L 288.140316 118.276506 
L 292.626092 117.761652 
L 292.626092 117.761652 
" style="fill:none;stroke:#000000;stroke-linecap:square;stroke-opacity:0.7;stroke-width:1.2;"/>
   </g>
   <g id="line2d_38">
    <path clip-path="url(#pc44a3bcbf7)" d="M 292.611472 98.587183 
L 285.754296 97.519467 
L 264.577079 94.135392 
L 259.392385 93.608012 
L 254.763962 93.386551 
L 250.910895 93.427722 
L 247.606624 93.684527 
L 244.626439 94.160714 
L 242.234308 94.768433 
L 239.978627 95.589615 
L 238.535598 96.298771 
L 237.209785 97.186915 
L 236.452607 97.991665 
L 236.220429 98.662052 
L 236.316597 99.032896 
L 236.658526 99.398789 
L 237.206248 99.685195 
L 238.554997 100.03259 
L 240.508666 100.253513 
L 243.732198 100.380514 
L 250.873315 100.367518 
L 267.9564 100.05776 
L 277.166028 99.641274 
L 288.059221 98.927435 
L 292.617753 98.509931 
L 292.617753 98.509931 
" style="fill:none;stroke:#000000;stroke-linecap:square;stroke-opacity:0.7;stroke-width:1.2;"/>
   </g>
   <g id="line2d_39">
    <path clip-path="url(#pc44a3bcbf7)" d="M 292.616387 79.362935 
L 290.110043 78.259425 
L 286.349927 76.826103 
L 281.535665 75.247306 
L 276.275349 73.759049 
L 270.40303 72.330118 
L 265.783996 71.437248 
L 261.904633 70.924139 
L 258.579447 70.688597 
L 254.736868 70.665001 
L 251.342243 70.889064 
L 248.396138 71.316652 
L 245.94618 71.895757 
L 243.5552 72.730134 
L 241.71865 73.609252 
L 239.93314 74.721563 
L 238.557965 75.811013 
L 237.420366 76.954866 
L 236.711987 77.896597 
L 236.302544 78.706609 
L 236.173589 79.446592 
L 236.254964 79.799095 
L 236.612342 80.222928 
L 236.99431 80.417863 
L 237.763853 80.596525 
L 239.274072 80.663325 
L 242.313191 80.486276 
L 254.342991 79.577745 
L 261.562125 79.317432 
L 272.512594 79.195719 
L 287.209666 79.248025 
L 292.616514 79.28994 
L 292.616514 79.28994 
" style="fill:none;stroke:#000000;stroke-linecap:square;stroke-opacity:0.7;stroke-width:1.2;"/>
   </g>
   <g id="line2d_40">
    <path clip-path="url(#pc44a3bcbf7)" d="M 292.63861 60.249166 
L 288.421426 58.940708 
L 282.016419 57.191617 
L 274.965704 55.474378 
L 269.651595 54.387161 
L 265.780436 53.797952 
L 261.932572 53.436045 
L 258.025845 53.312566 
L 254.181468 53.433276 
L 251.052905 53.722466 
L 247.950415 54.209337 
L 244.827078 54.948029 
L 242.329519 55.762505 
L 240.113602 56.704813 
L 238.573467 57.540911 
L 237.267404 58.468979 
L 236.58513 59.147551 
L 236.102428 60.021285 
L 236.09946 60.608865 
L 236.357196 61.082013 
L 237.037683 61.608393 
L 238.335141 62.122096 
L 240.22928 62.542709 
L 242.901555 62.883669 
L 246.796337 63.136436 
L 251.65853 63.224043 
L 257.450711 63.101895 
L 263.429905 62.763967 
L 269.376943 62.217659 
L 277.195473 61.240253 
L 283.760601 60.474643 
L 288.279502 60.183248 
L 292.651853 60.142656 
L 292.651853 60.142656 
" style="fill:none;stroke:#000000;stroke-linecap:square;stroke-opacity:0.7;stroke-width:1.2;"/>
   </g>
   <g id="line2d_41">
    <path clip-path="url(#pc44a3bcbf7)" d="M 356.408168 232.591455 
L 341.158756 230.187286 
L 333.465922 229.150397 
L 327.578652 228.570085 
L 322.287124 228.263784 
L 317.286167 228.191037 
L 313.364089 228.337834 
L 310.338061 228.636179 
L 307.78224 229.064721 
L 305.300917 229.683903 
L 303.109495 230.453757 
L 301.585294 231.181898 
L 300.466569 231.94283 
L 299.980494 232.535888 
L 299.936169 232.948884 
L 300.117008 233.213412 
L 300.622654 233.488445 
L 301.761123 233.742232 
L 303.582268 233.891507 
L 307.511796 233.933525 
L 318.728151 233.706371 
L 333.094379 233.268057 
L 351.16982 232.620965 
L 356.410201 232.489911 
L 356.410201 232.489911 
" style="fill:none;stroke:#000000;stroke-linecap:square;stroke-opacity:0.7;stroke-width:1.2;"/>
   </g>
   <g id="line2d_42">
    <path clip-path="url(#pc44a3bcbf7)" d="M 356.431061 213.401351 
L 350.666755 212.583003 
L 340.996126 211.449907 
L 333.268422 210.72632 
L 327.304755 210.401636 
L 321.621595 210.321748 
L 315.794783 210.446292 
L 310.669447 210.767176 
L 306.888696 211.20164 
L 303.721044 211.777071 
L 301.487992 212.412287 
L 300.339079 212.95107 
L 299.829372 213.451311 
L 299.807434 213.790834 
L 299.989836 214.047146 
L 300.631374 214.420084 
L 301.970052 214.811103 
L 304.480743 215.199195 
L 308.411964 215.501636 
L 313.620409 215.660404 
L 320.27283 215.642653 
L 327.214447 215.410597 
L 334.480905 214.928358 
L 354.55523 213.371064 
L 356.433132 213.298634 
L 356.433132 213.298634 
" style="fill:none;stroke:#000000;stroke-linecap:square;stroke-opacity:0.7;stroke-width:1.2;"/>
   </g>
   <g id="line2d_43">
    <path clip-path="url(#pc44a3bcbf7)" d="M 356.429359 194.174111 
L 351.906536 193.185484 
L 346.105481 192.128335 
L 339.491465 191.150269 
L 332.261449 190.30104 
L 326.243296 189.823846 
L 321.175265 189.637794 
L 316.557019 189.673929 
L 312.652676 189.916894 
L 309.483755 190.329178 
L 306.547347 190.954293 
L 304.242771 191.660209 
L 302.178434 192.517789 
L 300.824042 193.284698 
L 299.995801 193.995221 
L 299.786877 194.395818 
L 299.874181 194.72432 
L 300.153752 194.914539 
L 300.681022 195.057697 
L 302.034789 195.140275 
L 304.507638 195.0127 
L 311.587015 194.308973 
L 318.82623 193.67817 
L 325.360825 193.336298 
L 334.639356 193.119101 
L 341.8417 193.145235 
L 347.655085 193.388902 
L 355.176077 193.966181 
L 356.430376 194.077302 
L 356.430376 194.077302 
" style="fill:none;stroke:#000000;stroke-linecap:square;stroke-opacity:0.7;stroke-width:1.2;"/>
   </g>
   <g id="line2d_44">
    <path clip-path="url(#pc44a3bcbf7)" d="M 356.449713 175.091166 
L 352.123633 174.049408 
L 346.4732 172.938065 
L 340.5718 172.000851 
L 334.028257 171.185883 
L 328.849069 170.751063 
L 323.581944 170.547515 
L 318.39659 170.590615 
L 313.881275 170.856646 
L 310.22017 171.289626 
L 307.187428 171.850957 
L 304.640057 172.51087 
L 302.407294 173.298621 
L 300.947859 174.01761 
L 300.049035 174.71651 
L 299.784967 175.211386 
L 299.863676 175.589756 
L 300.051749 175.802171 
L 300.493455 176.071128 
L 301.328916 176.35854 
L 303.085931 176.685957 
L 305.619659 176.928338 
L 310.306385 177.109189 
L 316.279667 177.105735 
L 323.446183 176.884272 
L 330.696544 176.43963 
L 339.166841 175.674225 
L 346.883232 175.026635 
L 351.326751 174.875101 
L 355.848623 174.958507 
L 356.454861 174.988177 
L 356.454861 174.988177 
" style="fill:none;stroke:#000000;stroke-linecap:square;stroke-opacity:0.7;stroke-width:1.2;"/>
   </g>
   <g id="line2d_45">
    <path clip-path="url(#pc44a3bcbf7)" d="M 356.436353 155.960944 
L 353.480803 154.673228 
L 349.207024 153.07014 
L 344.270196 151.484598 
L 338.476346 149.886273 
L 332.620817 148.50894 
L 328.134839 147.691125 
L 324.175577 147.221274 
L 320.913756 147.03947 
L 317.630263 147.058308 
L 314.529459 147.288173 
L 311.944332 147.678106 
L 309.49162 148.273861 
L 307.566189 148.950022 
L 305.955761 149.699027 
L 303.987284 150.905337 
L 302.6533 151.961028 
L 301.446783 153.167125 
L 300.66393 154.195549 
L 300.221529 155.035551 
L 300.050571 155.752796 
L 300.159457 156.312932 
L 300.327585 156.54427 
L 300.756571 156.826942 
L 301.432706 157.015582 
L 302.41971 157.102065 
L 304.925645 157.011248 
L 319.675873 155.960816 
L 326.413091 155.842121 
L 350.532289 155.840799 
L 356.435572 155.894571 
L 356.435572 155.894571 
" style="fill:none;stroke:#000000;stroke-linecap:square;stroke-opacity:0.7;stroke-width:1.2;"/>
   </g>
   <g id="line2d_46">
    <path clip-path="url(#pc44a3bcbf7)" d="M 356.428743 136.838712 
L 345.679241 135.531607 
L 335.297302 134.452849 
L 328.812128 134.00449 
L 322.918085 133.838152 
L 317.189887 133.88594 
L 311.984065 134.117191 
L 307.305228 134.549075 
L 304.110947 135.0596 
L 301.862408 135.645454 
L 300.511856 136.253166 
L 300.067948 136.614922 
L 299.836539 137.100126 
L 299.909463 137.439831 
L 300.197794 137.800082 
L 300.738116 138.174143 
L 302.050691 138.728886 
L 303.890644 139.228404 
L 306.945265 139.769011 
L 310.832709 140.192884 
L 315.302988 140.457777 
L 320.450639 140.543521 
L 325.595399 140.420083 
L 330.875498 140.07656 
L 336.672326 139.465118 
L 344.969995 138.324996 
L 356.434069 136.762891 
L 356.434069 136.762891 
" style="fill:none;stroke:#000000;stroke-linecap:square;stroke-opacity:0.7;stroke-width:1.2;"/>
   </g>
   <g id="line2d_47">
    <path clip-path="url(#pc44a3bcbf7)" d="M 356.435719 117.768734 
L 351.417481 116.901505 
L 344.989253 116.004545 
L 337.772507 115.232241 
L 331.198791 114.739518 
L 325.430264 114.509418 
L 319.565101 114.49102 
L 314.319166 114.671715 
L 309.898985 115.011052 
L 306.045926 115.515832 
L 303.043959 116.142925 
L 301.476924 116.643282 
L 300.350535 117.22228 
L 299.968999 117.599207 
L 299.856851 117.988169 
L 300.007369 118.339394 
L 300.278325 118.596843 
L 300.885747 118.947365 
L 302.515927 119.505072 
L 304.973742 120.019806 
L 308.259282 120.465943 
L 312.806063 120.848485 
L 318.008585 121.071166 
L 323.680121 121.101512 
L 328.986794 120.914401 
L 334.13068 120.493247 
L 339.330813 119.834793 
L 352.67076 117.981491 
L 356.450031 117.670488 
L 356.450031 117.670488 
" style="fill:none;stroke:#000000;stroke-linecap:square;stroke-opacity:0.7;stroke-width:1.2;"/>
   </g>
   <g id="line2d_48">
    <path clip-path="url(#pc44a3bcbf7)" d="M 356.450069 98.435096 
L 354.036443 97.455436 
L 350.258168 96.139866 
L 345.887832 94.83596 
L 340.619263 93.482233 
L 334.623175 92.17105 
L 330.057308 91.371608 
L 325.978268 90.869131 
L 322.02371 90.618545 
L 318.814987 90.608461 
L 315.478607 90.81137 
L 312.366577 91.247388 
L 309.849235 91.830853 
L 307.496057 92.619979 
L 305.28821 93.628798 
L 303.655267 94.583294 
L 301.876463 95.906705 
L 300.670273 97.124407 
L 300.056277 98.116064 
L 299.950874 98.741928 
L 300.072853 99.082178 
L 300.464192 99.409647 
L 301.084802 99.60543 
L 302.368126 99.695963 
L 304.692401 99.531897 
L 308.652693 98.974038 
L 325.171689 96.429373 
L 330.566271 95.916534 
L 335.483424 95.683663 
L 339.911858 95.708337 
L 343.96181 95.973591 
L 347.91623 96.485333 
L 351.853202 97.229087 
L 356.422886 98.343428 
L 356.436602 98.347191 
L 356.436602 98.347191 
" style="fill:none;stroke:#000000;stroke-linecap:square;stroke-opacity:0.7;stroke-width:1.2;"/>
   </g>
   <g id="line2d_49">
    <path clip-path="url(#pc44a3bcbf7)" d="M 356.405884 79.593781 
L 341.841936 77.479391 
L 332.791922 76.384948 
L 326.37283 75.826144 
L 320.570544 75.557614 
L 315.554207 75.545457 
L 311.423566 75.764776 
L 308.310386 76.1461 
L 305.364705 76.757714 
L 303.204364 77.425613 
L 301.572513 78.128705 
L 300.482016 78.813188 
L 300.004405 79.354991 
L 299.952739 79.700157 
L 300.151948 79.984696 
L 300.727872 80.257692 
L 301.508962 80.4288 
L 303.837047 80.620684 
L 308.601155 80.661001 
L 329.481278 80.387661 
L 341.356544 79.996642 
L 356.404895 79.476854 
L 356.404895 79.476854 
" style="fill:none;stroke:#000000;stroke-linecap:square;stroke-opacity:0.7;stroke-width:1.2;"/>
   </g>
   <g id="line2d_50">
    <path clip-path="url(#pc44a3bcbf7)" d="M 356.427052 60.304382 
L 353.353406 59.117213 
L 348.788843 57.615641 
L 342.855683 55.929929 
L 334.236191 53.739953 
L 328.889382 52.550323 
L 325.065059 51.89579 
L 321.633721 51.516807 
L 318.248136 51.374456 
L 314.929264 51.495785 
L 312.445239 51.790615 
L 309.919424 52.314805 
L 307.540078 53.070608 
L 305.352945 54.055732 
L 303.451321 55.223949 
L 302.205078 56.23175 
L 301.137221 57.37703 
L 300.557138 58.235683 
L 300.138437 59.171168 
L 299.970157 59.945211 
L 300.029467 60.966005 
L 300.2548 61.591577 
L 300.63336 62.183747 
L 301.244154 62.800578 
L 302.402234 63.554595 
L 304.139796 64.270554 
L 306.325937 64.850603 
L 308.930752 65.296446 
L 312.281594 65.632352 
L 316.128069 65.787578 
L 320.177696 65.736744 
L 324.731393 65.443558 
L 329.558583 64.886789 
L 335.564269 63.939169 
L 356.417838 60.271482 
L 356.417838 60.271482 
" style="fill:none;stroke:#000000;stroke-linecap:square;stroke-opacity:0.7;stroke-width:1.2;"/>
   </g>
   <g id="line2d_51">
    <path clip-path="url(#pc44a3bcbf7)" d="M 420.223443 232.6541 
L 404.670096 229.821916 
L 394.422143 228.221567 
L 389.339604 227.641301 
L 384.829133 227.346285 
L 380.960542 227.289534 
L 376.995144 227.470002 
L 373.911421 227.843746 
L 371.469709 228.342845 
L 369.114283 229.049661 
L 366.990713 229.937746 
L 365.437737 230.813758 
L 364.386065 231.633985 
L 363.849228 232.343746 
L 363.792695 232.758381 
L 363.936558 233.013691 
L 364.344757 233.255347 
L 365.271997 233.443948 
L 367.071109 233.490345 
L 370.811908 233.283906 
L 380.044838 232.715063 
L 385.895546 232.585664 
L 416.913195 232.547339 
L 420.22089 232.578947 
L 420.22089 232.578947 
" style="fill:none;stroke:#000000;stroke-linecap:square;stroke-opacity:0.7;stroke-width:1.2;"/>
   </g>
   <g id="line2d_52">
    <path clip-path="url(#pc44a3bcbf7)" d="M 420.244012 213.414239 
L 415.868737 212.156437 
L 408.895501 210.394767 
L 399.100059 208.172758 
L 393.827752 207.168161 
L 389.868166 206.618824 
L 386.15151 206.316752 
L 382.226177 206.248887 
L 379.001474 206.412219 
L 375.880367 206.802623 
L 373.540164 207.286057 
L 371.056601 208.028085 
L 368.863047 208.936181 
L 367.323866 209.767282 
L 366.052463 210.63935 
L 364.837005 211.786227 
L 364.202539 212.793079 
L 364.051621 213.371382 
L 364.107162 213.982458 
L 364.313521 214.406852 
L 364.670959 214.801809 
L 365.388021 215.271557 
L 366.23869 215.624378 
L 367.905176 216.054867 
L 370.22958 216.394462 
L 373.486889 216.628665 
L 378.069715 216.701333 
L 383.376413 216.545829 
L 389.397506 216.141076 
L 396.745607 215.415594 
L 412.460633 213.772492 
L 420.216649 213.327719 
L 420.247144 213.326193 
L 420.247144 213.326193 
" style="fill:none;stroke:#000000;stroke-linecap:square;stroke-opacity:0.7;stroke-width:1.2;"/>
   </g>
   <g id="line2d_53">
    <path clip-path="url(#pc44a3bcbf7)" d="M 420.21112 194.452127 
L 390.770139 191.116425 
L 384.426526 190.611252 
L 379.161848 190.401573 
L 375.268411 190.472849 
L 372.32865 190.737328 
L 369.842982 191.163554 
L 367.496681 191.80272 
L 366.031241 192.376931 
L 364.75359 193.086312 
L 363.994818 193.770671 
L 363.776123 194.169191 
L 363.782482 194.672338 
L 364.033415 195.029512 
L 364.601247 195.401646 
L 365.450693 195.720491 
L 367.037011 196.078215 
L 369.445949 196.402355 
L 374.102675 196.755688 
L 380.510904 196.981773 
L 387.103384 196.980317 
L 393.557342 196.736041 
L 401.392812 196.18427 
L 411.778397 195.212245 
L 420.215618 194.326624 
L 420.215618 194.326624 
" style="fill:none;stroke:#000000;stroke-linecap:square;stroke-opacity:0.7;stroke-width:1.2;"/>
   </g>
   <g id="line2d_54">
    <path clip-path="url(#pc44a3bcbf7)" d="M 420.223207 175.196443 
L 415.818878 173.950648 
L 410.172416 172.569777 
L 402.416698 170.920673 
L 395.180681 169.563016 
L 390.695338 168.914543 
L 386.865386 168.546849 
L 382.967273 168.374848 
L 379.144788 168.437337 
L 376.113498 168.701049 
L 373.690726 169.102271 
L 371.306597 169.723371 
L 369.454278 170.406349 
L 367.328475 171.468708 
L 365.873836 172.430886 
L 364.719112 173.43224 
L 363.938232 174.46087 
L 363.763343 175.079443 
L 363.837171 175.410795 
L 364.152637 175.74195 
L 364.607963 175.939252 
L 365.460685 176.093697 
L 366.997503 176.146387 
L 370.939387 175.966178 
L 378.912602 175.575747 
L 385.604193 175.491758 
L 404.222425 175.460357 
L 420.221841 175.125134 
L 420.221841 175.125134 
" style="fill:none;stroke:#000000;stroke-linecap:square;stroke-opacity:0.7;stroke-width:1.2;"/>
   </g>
   <g id="line2d_55">
    <path clip-path="url(#pc44a3bcbf7)" d="M 420.247267 155.927499 
L 415.926634 154.825675 
L 410.242512 153.612466 
L 403.618847 152.452893 
L 396.534411 151.442877 
L 391.332952 150.91614 
L 386.845786 150.668159 
L 382.26651 150.63914 
L 378.295407 150.834122 
L 375.13138 151.187884 
L 371.986564 151.781652 
L 369.654454 152.427771 
L 367.435304 153.261413 
L 365.478729 154.275218 
L 364.292622 155.186716 
L 363.795643 155.88555 
L 363.74089 156.35474 
L 363.889247 156.663931 
L 364.390888 157.036342 
L 365.133348 157.295889 
L 366.741001 157.551341 
L 369.171533 157.666237 
L 373.143853 157.602396 
L 379.661143 157.243852 
L 408.019496 155.402753 
L 413.082959 155.43012 
L 418.271872 155.689021 
L 420.247863 155.834043 
L 420.247863 155.834043 
" style="fill:none;stroke:#000000;stroke-linecap:square;stroke-opacity:0.7;stroke-width:1.2;"/>
   </g>
   <g id="line2d_56">
    <path clip-path="url(#pc44a3bcbf7)" d="M 420.244443 136.875037 
L 417.234855 135.807586 
L 412.13276 134.2533 
L 405.195257 132.387642 
L 398.104605 130.6839 
L 393.389368 129.759774 
L 389.70863 129.232004 
L 385.763367 128.897438 
L 382.511972 128.822182 
L 379.213649 128.961413 
L 376.128713 129.33956 
L 373.621159 129.880357 
L 371.194824 130.66629 
L 368.973474 131.680321 
L 367.523541 132.543391 
L 366.233597 133.504272 
L 364.98655 134.741954 
L 364.248599 135.882364 
L 364.034245 136.552166 
L 364.050176 137.278008 
L 364.349985 137.88116 
L 364.758925 138.271292 
L 365.370702 138.629394 
L 366.336813 138.980372 
L 368.085818 139.338749 
L 370.51288 139.58191 
L 374.525631 139.702845 
L 379.742424 139.606968 
L 386.89696 139.233519 
L 398.591538 138.364533 
L 415.694257 137.096424 
L 420.23796 136.793022 
L 420.23796 136.793022 
" style="fill:none;stroke:#000000;stroke-linecap:square;stroke-opacity:0.7;stroke-width:1.2;"/>
   </g>
   <g id="line2d_57">
    <path clip-path="url(#pc44a3bcbf7)" d="M 420.25639 117.634777 
L 415.230388 116.536853 
L 408.872362 115.381949 
L 401.830529 114.357428 
L 395.910315 113.694278 
L 390.504884 113.317968 
L 385.546824 113.197539 
L 380.368993 113.304478 
L 376.463463 113.582455 
L 373.209623 114.00501 
L 370.176605 114.618367 
L 367.89351 115.271266 
L 365.839487 116.080521 
L 364.632979 116.760851 
L 363.89416 117.46571 
L 363.761209 117.849346 
L 363.884643 118.222832 
L 364.121598 118.444111 
L 364.694323 118.72767 
L 365.676989 118.990353 
L 368.066767 119.28391 
L 371.254143 119.411989 
L 376.505497 119.376486 
L 384.24028 119.079098 
L 395.445673 118.407669 
L 409.797135 117.522058 
L 415.02154 117.450363 
L 420.255606 117.556608 
L 420.255606 117.556608 
" style="fill:none;stroke:#000000;stroke-linecap:square;stroke-opacity:0.7;stroke-width:1.2;"/>
   </g>
   <g id="line2d_58">
    <path clip-path="url(#pc44a3bcbf7)" d="M 420.251758 98.535854 
L 417.227985 97.437301 
L 412.393337 95.927672 
L 406.143631 94.247652 
L 399.522349 92.703115 
L 394.945247 91.829097 
L 390.557444 91.222917 
L 386.626019 90.912925 
L 382.682791 90.842769 
L 379.376751 90.995269 
L 376.176072 91.37684 
L 373.642429 91.898006 
L 371.243315 92.630279 
L 368.919595 93.628158 
L 367.437122 94.458286 
L 365.996264 95.470533 
L 364.680968 96.711269 
L 364.070021 97.568636 
L 363.787435 98.369981 
L 363.829599 98.884259 
L 364.077515 99.293667 
L 364.463866 99.585956 
L 365.110196 99.846607 
L 366.693059 100.108528 
L 369.34052 100.170564 
L 373.852385 99.974244 
L 394.031794 98.844727 
L 407.882429 98.392497 
L 415.712778 98.394447 
L 420.249359 98.448997 
L 420.249359 98.448997 
" style="fill:none;stroke:#000000;stroke-linecap:square;stroke-opacity:0.7;stroke-width:1.2;"/>
   </g>
   <g id="line2d_59">
    <path clip-path="url(#pc44a3bcbf7)" d="M 420.271287 79.42285 
L 409.311037 76.752075 
L 400.335141 74.618605 
L 395.734712 73.749413 
L 391.807721 73.23093 
L 388.083366 72.964586 
L 384.107505 72.930424 
L 380.362336 73.142497 
L 376.986904 73.563917 
L 373.855309 74.19111 
L 371.182054 74.942352 
L 368.699699 75.85522 
L 366.735394 76.77584 
L 365.259229 77.66763 
L 364.230692 78.557629 
L 363.894788 79.058455 
L 363.791614 79.496317 
L 363.899481 79.889704 
L 364.165707 80.202425 
L 364.922943 80.644036 
L 366.554352 81.134882 
L 369.154306 81.575256 
L 373.315998 81.992696 
L 378.7034 82.298112 
L 385.200428 82.444992 
L 391.218301 82.379007 
L 396.501793 82.100931 
L 401.214542 81.635951 
L 407.516958 80.764949 
L 414.990114 79.745273 
L 419.754423 79.335594 
L 420.277876 79.307159 
L 420.277876 79.307159 
" style="fill:none;stroke:#000000;stroke-linecap:square;stroke-opacity:0.7;stroke-width:1.2;"/>
   </g>
   <g id="line2d_60">
    <path clip-path="url(#pc44a3bcbf7)" d="M 420.250872 60.392965 
L 414.733607 59.4842 
L 401.133927 57.513473 
L 394.636543 56.756257 
L 389.351814 56.378694 
L 384.566431 56.259596 
L 379.749929 56.3548 
L 375.140918 56.666946 
L 371.172696 57.163209 
L 368.208472 57.752118 
L 366.550209 58.231982 
L 364.978141 58.911431 
L 364.144205 59.526083 
L 363.749838 60.157826 
L 363.710379 60.546394 
L 363.803225 60.909151 
L 364.285937 61.570414 
L 364.917075 62.064102 
L 365.94653 62.624716 
L 367.804062 63.32005 
L 369.888433 63.857995 
L 372.621848 64.340881 
L 376.000187 64.712223 
L 380.030768 64.928972 
L 384.818816 64.943108 
L 389.364431 64.742267 
L 394.200867 64.298916 
L 399.147923 63.615428 
L 407.309028 62.204009 
L 414.706052 60.983931 
L 420.241897 60.277939 
L 420.241897 60.277939 
" style="fill:none;stroke:#000000;stroke-linecap:square;stroke-opacity:0.7;stroke-width:1.2;"/>
   </g>
   <g id="line2d_61">
    <path clip-path="url(#pc44a3bcbf7)" d="M 484.054578 232.607059 
L 477.911838 231.011489 
L 470.229667 229.241452 
L 462.533903 227.689469 
L 457.257457 226.852754 
L 452.789215 226.379867 
L 448.889694 226.173753 
L 445.071681 226.175 
L 441.851378 226.362885 
L 438.684564 226.772202 
L 436.239431 227.29688 
L 433.794375 228.06264 
L 431.731939 228.948359 
L 430.156707 229.824634 
L 428.851902 230.762605 
L 427.884893 231.762539 
L 427.535432 232.508616 
L 427.552761 232.897371 
L 427.81854 233.293808 
L 428.280905 233.570216 
L 428.944866 233.774902 
L 430.664268 233.98878 
L 433.668545 234.027402 
L 439.688117 233.804532 
L 452.304176 233.32652 
L 484.051151 232.519026 
L 484.051151 232.519026 
" style="fill:none;stroke:#000000;stroke-linecap:square;stroke-opacity:0.7;stroke-width:1.2;"/>
   </g>
   <g id="line2d_62">
    <path clip-path="url(#pc44a3bcbf7)" d="M 484.034108 213.378117 
L 480.274769 212.691492 
L 474.003102 211.78902 
L 464.126042 210.630318 
L 458.065762 210.097556 
L 452.895835 209.847481 
L 447.711289 209.797392 
L 442.522689 209.95415 
L 438.633282 210.2686 
L 435.426436 210.722735 
L 432.309339 211.394689 
L 430.050375 212.078259 
L 428.154964 212.897538 
L 427.427562 213.469285 
L 427.384589 213.714739 
L 427.584096 213.893062 
L 427.931889 213.999758 
L 429.193149 214.097716 
L 432.301114 213.974035 
L 447.410384 213.054277 
L 455.20337 212.915274 
L 469.354463 212.938235 
L 480.796678 213.189275 
L 484.028874 213.279935 
L 484.028874 213.279935 
" style="fill:none;stroke:#000000;stroke-linecap:square;stroke-opacity:0.7;stroke-width:1.2;"/>
   </g>
   <g id="line2d_63">
    <path clip-path="url(#pc44a3bcbf7)" d="M 484.032102 194.289084 
L 479.008384 193.684072 
L 471.156456 192.969264 
L 458.937605 192.082321 
L 451.730638 191.787285 
L 445.28668 191.75412 
L 440.063599 191.931854 
L 435.528161 192.305942 
L 431.74934 192.851681 
L 429.402865 193.3826 
L 428.053413 193.862441 
L 427.446932 194.270499 
L 427.358562 194.583609 
L 427.585013 194.839394 
L 428.203343 195.107311 
L 429.54726 195.400426 
L 432.213371 195.694154 
L 436.199351 195.899451 
L 442.922875 196.000118 
L 452.029218 195.892101 
L 459.716434 195.602387 
L 468.186971 195.045736 
L 478.947862 194.334366 
L 484.042156 194.188922 
L 484.042156 194.188922 
" style="fill:none;stroke:#000000;stroke-linecap:square;stroke-opacity:0.7;stroke-width:1.2;"/>
   </g>
   <g id="line2d_64">
    <path clip-path="url(#pc44a3bcbf7)" d="M 484.012095 175.296985 
L 478.170107 174.493992 
L 468.3615 173.417541 
L 456.476738 172.269728 
L 449.956373 171.877161 
L 444.121433 171.749635 
L 440.218277 171.852771 
L 436.582413 172.178808 
L 433.866452 172.631002 
L 431.52364 173.208214 
L 429.267781 173.988877 
L 427.744635 174.772651 
L 427.303673 175.219571 
L 427.3128 175.422919 
L 427.615542 175.606488 
L 428.370899 175.720234 
L 430.628129 175.707708 
L 445.595702 175.163087 
L 454.843845 175.227447 
L 467.526441 175.252397 
L 484.008781 175.180231 
L 484.008781 175.180231 
" style="fill:none;stroke:#000000;stroke-linecap:square;stroke-opacity:0.7;stroke-width:1.2;"/>
   </g>
   <g id="line2d_65">
    <path clip-path="url(#pc44a3bcbf7)" d="M 484.057809 155.955485 
L 476.703859 154.600051 
L 469.002673 153.40045 
L 461.878349 152.511149 
L 456.657144 152.077823 
L 451.393944 151.886252 
L 446.125512 151.928697 
L 441.590236 152.160047 
L 437.612202 152.561502 
L 434.436348 153.07177 
L 431.966886 153.639643 
L 429.812287 154.344947 
L 428.410225 155.048114 
L 427.860795 155.500041 
L 427.604019 155.903686 
L 427.58473 156.316862 
L 427.788642 156.675503 
L 428.350876 157.109285 
L 429.57039 157.626175 
L 431.38798 158.103746 
L 433.900186 158.546261 
L 437.967919 159.010847 
L 442.584844 159.309478 
L 447.815158 159.414431 
L 452.983752 159.279845 
L 458.154945 158.896178 
L 463.345377 158.267583 
L 472.331809 156.867821 
L 477.378246 156.229463 
L 481.643457 155.931332 
L 484.063361 155.861016 
L 484.063361 155.861016 
" style="fill:none;stroke:#000000;stroke-linecap:square;stroke-opacity:0.7;stroke-width:1.2;"/>
   </g>
   <g id="line2d_66">
    <path clip-path="url(#pc44a3bcbf7)" d="M 484.066849 136.816411 
L 480.456363 135.559868 
L 474.971128 133.894983 
L 468.558419 132.184458 
L 463.432233 131.00839 
L 458.667191 130.135651 
L 454.64184 129.617874 
L 450.698583 129.329951 
L 446.996365 129.26248 
L 443.152625 129.419364 
L 439.917275 129.779283 
L 437.451913 130.250569 
L 435.016304 130.95357 
L 432.764123 131.887766 
L 430.900253 132.931817 
L 429.591044 133.864643 
L 428.551786 134.791877 
L 427.897854 135.549558 
L 427.476944 136.282059 
L 427.406033 137.013742 
L 427.600982 137.328139 
L 427.983297 137.568597 
L 428.591545 137.734154 
L 430.076192 137.824381 
L 432.624665 137.688544 
L 445.501219 136.728276 
L 451.409733 136.616169 
L 478.146074 136.677488 
L 484.058463 136.725799 
L 484.058463 136.725799 
" style="fill:none;stroke:#000000;stroke-linecap:square;stroke-opacity:0.7;stroke-width:1.2;"/>
   </g>
   <g id="line2d_67">
    <path clip-path="url(#pc44a3bcbf7)" d="M 484.030237 117.853319 
L 475.609942 116.654283 
L 464.710708 115.323657 
L 458.285916 114.710905 
L 452.319042 114.36801 
L 446.079737 114.245673 
L 441.479198 114.344406 
L 437.631333 114.629165 
L 434.529478 115.060399 
L 431.514782 115.726767 
L 429.424366 116.419158 
L 428.185342 117.026676 
L 427.509519 117.593318 
L 427.364396 117.957006 
L 427.49843 118.292332 
L 427.965514 118.608557 
L 428.916423 118.910722 
L 431.044243 119.236252 
L 434.988101 119.504045 
L 441.663606 119.688726 
L 450.91758 119.717294 
L 458.121304 119.52677 
L 466.400101 119.063174 
L 482.036134 117.889272 
L 484.027789 117.739068 
L 484.027789 117.739068 
" style="fill:none;stroke:#000000;stroke-linecap:square;stroke-opacity:0.7;stroke-width:1.2;"/>
   </g>
   <g id="line2d_68">
    <path clip-path="url(#pc44a3bcbf7)" d="M 484.049522 98.521255 
L 479.793676 97.17464 
L 473.941549 95.558642 
L 464.865958 93.313265 
L 458.967981 92.013552 
L 454.941507 91.317219 
L 451.038768 90.872011 
L 447.839333 90.702992 
L 444.596772 90.732131 
L 441.449896 90.986568 
L 438.927488 91.389588 
L 436.4589 91.999744 
L 434.062694 92.847562 
L 431.960121 93.860731 
L 430.393743 94.849657 
L 429.099921 95.925461 
L 428.147553 97.068683 
L 427.750918 97.86929 
L 427.616007 98.535441 
L 427.706503 99.233507 
L 427.924818 99.686778 
L 428.329035 100.162298 
L 428.982774 100.644891 
L 429.823801 101.062073 
L 431.546262 101.612706 
L 433.984712 102.076564 
L 437.232089 102.419394 
L 441.243247 102.596198 
L 445.74479 102.569089 
L 450.462139 102.331534 
L 455.854862 101.839298 
L 463.121527 100.928282 
L 476.170531 99.240699 
L 484.051829 98.454707 
L 484.051829 98.454707 
" style="fill:none;stroke:#000000;stroke-linecap:square;stroke-opacity:0.7;stroke-width:1.2;"/>
   </g>
   <g id="line2d_69">
    <path clip-path="url(#pc44a3bcbf7)" d="M 484.066613 79.437918 
L 476.928429 78.158818 
L 469.400971 77.032976 
L 462.778798 76.270088 
L 456.861727 75.809732 
L 451.076269 75.592951 
L 445.308375 75.613335 
L 440.772072 75.826219 
L 437.023184 76.188805 
L 433.87851 76.67997 
L 431.562689 77.205434 
L 429.77368 77.776825 
L 428.39491 78.439475 
L 427.698945 79.030069 
L 427.48171 79.516923 
L 427.559731 79.941287 
L 427.935874 80.393645 
L 428.434507 80.731604 
L 429.521487 81.214648 
L 431.165408 81.701386 
L 433.71804 82.212876 
L 437.071127 82.65852 
L 441.55171 83.022449 
L 446.656616 83.217496 
L 451.919375 83.215765 
L 456.97406 83.00634 
L 461.632208 82.599553 
L 466.762437 81.923151 
L 484.068078 79.347634 
L 484.068078 79.347634 
" style="fill:none;stroke:#000000;stroke-linecap:square;stroke-opacity:0.7;stroke-width:1.2;"/>
   </g>
   <g id="line2d_70">
    <path clip-path="url(#pc44a3bcbf7)" d="M 484.065665 60.281321 
L 481.12657 59.138629 
L 476.361836 57.551951 
L 470.754153 55.932113 
L 464.850106 54.459979 
L 459.79936 53.434626 
L 455.871411 52.843616 
L 451.949652 52.473791 
L 448.087467 52.342747 
L 444.332624 52.456324 
L 440.944268 52.805737 
L 437.985724 53.370131 
L 435.507231 54.101478 
L 433.228756 55.053597 
L 431.337631 56.111489 
L 429.991927 57.068775 
L 428.738616 58.218197 
L 428.042005 59.110875 
L 427.668716 59.976662 
L 427.663488 60.486642 
L 427.857617 60.898144 
L 428.334576 61.284444 
L 429.138407 61.588543 
L 430.736115 61.849569 
L 433.34226 61.975067 
L 437.991392 61.932681 
L 450.120381 61.511728 
L 484.047393 60.213124 
L 484.047393 60.213124 
" style="fill:none;stroke:#000000;stroke-linecap:square;stroke-opacity:0.7;stroke-width:1.2;"/>
   </g>
   <g id="line2d_71">
    <path clip-path="url(#pc44a3bcbf7)" d="M 547.855781 232.476019 
L 544.591282 231.446643 
L 540.099814 230.240011 
L 534.224185 228.901334 
L 527.583856 227.617339 
L 521.731904 226.711888 
L 517.116073 226.219919 
L 512.50202 225.971275 
L 508.577955 225.983323 
L 505.367942 226.189638 
L 502.819762 226.525358 
L 500.288672 227.064904 
L 497.949308 227.805884 
L 495.691788 228.810271 
L 494.140972 229.721007 
L 492.910675 230.638846 
L 491.925418 231.63207 
L 491.468256 232.416983 
L 491.448011 232.944371 
L 491.626033 233.201914 
L 492.057634 233.421174 
L 492.999071 233.543837 
L 494.525454 233.472376 
L 498.299393 232.960893 
L 508.598776 231.465162 
L 514.619752 230.853491 
L 520.682414 230.484224 
L 526.515181 230.342011 
L 531.224136 230.41417 
L 535.907906 230.711327 
L 540.536514 231.236684 
L 546.525482 232.163836 
L 547.849158 232.399176 
L 547.849158 232.399176 
" style="fill:none;stroke:#000000;stroke-linecap:square;stroke-opacity:0.7;stroke-width:1.2;"/>
   </g>
   <g id="line2d_72">
    <path clip-path="url(#pc44a3bcbf7)" d="M 547.862104 213.444352 
L 538.301671 212.133569 
L 528.541825 210.996418 
L 522.691773 210.513926 
L 516.981174 210.275904 
L 510.544417 210.252474 
L 504.807649 210.442314 
L 500.870683 210.766974 
L 497.772403 211.202922 
L 494.889263 211.822255 
L 492.785388 212.512049 
L 491.73793 213.075048 
L 491.354402 213.528077 
L 491.371283 213.820894 
L 491.546603 214.033097 
L 492.117779 214.340926 
L 493.583617 214.721365 
L 496.069192 215.051579 
L 500.10991 215.319318 
L 506.04665 215.450479 
L 513.1666 215.362605 
L 520.898379 215.03669 
L 529.36551 214.443411 
L 541.50826 213.559978 
L 547.853036 213.325965 
L 547.853036 213.325965 
" style="fill:none;stroke:#000000;stroke-linecap:square;stroke-opacity:0.7;stroke-width:1.2;"/>
   </g>
   <g id="line2d_73">
    <path clip-path="url(#pc44a3bcbf7)" d="M 547.841593 194.398246 
L 535.108271 193.622307 
L 520.107103 192.662291 
L 510.384635 192.283368 
L 504.454198 192.238339 
L 499.87531 192.425776 
L 496.605475 192.752004 
L 494.172111 193.158798 
L 492.215409 193.692735 
L 491.368142 194.111689 
L 491.090382 194.479545 
L 491.185396 194.741111 
L 491.554378 194.994382 
L 492.548451 195.319626 
L 494.136258 195.606553 
L 497.648162 195.945391 
L 502.179257 196.145171 
L 508.848777 196.19938 
L 516.34041 196.043218 
L 524.194356 195.667165 
L 547.84175 194.275928 
L 547.84175 194.275928 
" style="fill:none;stroke:#000000;stroke-linecap:square;stroke-opacity:0.7;stroke-width:1.2;"/>
   </g>
   <g id="line2d_74">
    <path clip-path="url(#pc44a3bcbf7)" d="M 547.878373 175.172803 
L 543.818378 173.823572 
L 537.604662 171.989364 
L 531.271993 170.349396 
L 526.01816 169.215589 
L 521.576746 168.49324 
L 517.555845 168.080035 
L 513.573549 167.921149 
L 509.743158 168.015224 
L 506.059365 168.36288 
L 502.813101 168.931917 
L 499.873209 169.725546 
L 497.477855 170.620933 
L 495.434579 171.611772 
L 493.601615 172.764633 
L 492.324127 173.874143 
L 491.828393 174.517714 
L 491.558399 175.261673 
L 491.62391 175.710534 
L 491.976982 176.167186 
L 492.584456 176.519622 
L 493.461399 176.801199 
L 495.127843 177.08591 
L 497.79402 177.288004 
L 502.350373 177.371436 
L 509.780902 177.24753 
L 520.486731 176.833339 
L 528.458242 176.305599 
L 544.177191 175.138775 
L 547.870151 175.082451 
L 547.870151 175.082451 
" style="fill:none;stroke:#000000;stroke-linecap:square;stroke-opacity:0.7;stroke-width:1.2;"/>
   </g>
   <g id="line2d_75">
    <path clip-path="url(#pc44a3bcbf7)" d="M 547.851212 156.032985 
L 544.761792 155.00072 
L 539.782915 153.563741 
L 532.431783 151.689418 
L 524.429626 149.852168 
L 519.155758 148.868144 
L 515.322916 148.365762 
L 511.882543 148.113597 
L 508.707306 148.077324 
L 505.471486 148.274849 
L 502.863174 148.650775 
L 500.536206 149.194376 
L 498.11746 150.024267 
L 496.548051 150.747183 
L 495.020861 151.639949 
L 493.744837 152.599982 
L 492.64233 153.724711 
L 491.938495 154.832988 
L 491.662529 155.696394 
L 491.665674 156.611772 
L 491.861029 157.205626 
L 492.40951 157.986568 
L 493.197883 158.638912 
L 494.498569 159.332752 
L 496.190673 159.933983 
L 498.559267 160.499687 
L 501.751327 160.981438 
L 505.153245 161.26543 
L 509.123834 161.368074 
L 513.02074 161.258423 
L 517.040582 160.942789 
L 521.681131 160.355808 
L 527.681395 159.356541 
L 543.337401 156.628953 
L 547.850472 155.964194 
L 547.850472 155.964194 
" style="fill:none;stroke:#000000;stroke-linecap:square;stroke-opacity:0.7;stroke-width:1.2;"/>
   </g>
   <g id="line2d_76">
    <path clip-path="url(#pc44a3bcbf7)" d="M 547.876217 136.772029 
L 544.208155 135.320652 
L 539.835068 133.822636 
L 534.767436 132.32366 
L 528.788638 130.811725 
L 523.53857 129.703702 
L 518.999078 128.976763 
L 515.005404 128.578057 
L 511.193265 128.445552 
L 507.865272 128.557483 
L 504.625038 128.915572 
L 502.132731 129.405089 
L 499.799374 130.08119 
L 497.471407 131.020977 
L 495.434741 132.119808 
L 493.951579 133.140612 
L 492.762748 134.17009 
L 492.003877 135.015675 
L 491.482117 135.825452 
L 491.239762 136.519444 
L 491.24481 137.076901 
L 491.510684 137.58777 
L 491.903799 137.902778 
L 492.506331 138.163557 
L 493.579089 138.390251 
L 495.444604 138.507573 
L 498.610691 138.411265 
L 504.116751 137.949009 
L 523.581737 136.102936 
L 530.816415 135.700993 
L 536.058018 135.638449 
L 540.579079 135.836168 
L 545.280822 136.306202 
L 547.877517 136.669353 
L 547.877517 136.669353 
" style="fill:none;stroke:#000000;stroke-linecap:square;stroke-opacity:0.7;stroke-width:1.2;"/>
   </g>
   <g id="line2d_77">
    <path clip-path="url(#pc44a3bcbf7)" d="M 547.865263 117.662435 
L 544.755275 116.563826 
L 539.820096 115.052719 
L 532.672663 113.131384 
L 524.88212 111.259728 
L 520.122024 110.334927 
L 516.286971 109.811458 
L 512.940851 109.554557 
L 509.750057 109.504828 
L 506.595863 109.674376 
L 504.035816 110.009107 
L 501.551585 110.546642 
L 499.165598 111.306801 
L 497.365126 112.071866 
L 495.345392 113.176897 
L 493.872858 114.213323 
L 492.716523 115.26602 
L 491.841525 116.407772 
L 491.449525 117.402098 
L 491.461158 118.201365 
L 491.621703 118.616298 
L 492.189142 119.280841 
L 492.881753 119.730126 
L 494.29183 120.28345 
L 496.244088 120.732654 
L 499.272197 121.115329 
L 502.544165 121.300935 
L 506.67809 121.320522 
L 511.421637 121.123594 
L 517.361689 120.626999 
L 525.39201 119.700938 
L 537.916669 118.258803 
L 544.523246 117.769551 
L 547.86274 117.588964 
L 547.86274 117.588964 
" style="fill:none;stroke:#000000;stroke-linecap:square;stroke-opacity:0.7;stroke-width:1.2;"/>
   </g>
   <g id="line2d_78">
    <path clip-path="url(#pc44a3bcbf7)" d="M 547.859625 98.652162 
L 537.210893 96.730972 
L 528.018123 95.25682 
L 522.158821 94.53572 
L 517.520925 94.179734 
L 512.899675 94.049452 
L 508.243266 94.147312 
L 503.534163 94.491553 
L 499.722043 94.991193 
L 496.570338 95.626883 
L 494.379849 96.284152 
L 492.878124 96.959877 
L 491.931863 97.649514 
L 491.528191 98.194289 
L 491.392864 98.776642 
L 491.556324 99.380907 
L 491.777687 99.714562 
L 492.473716 100.354442 
L 493.790641 101.100706 
L 495.522879 101.757853 
L 497.870298 102.374346 
L 501.104159 102.934666 
L 504.462776 103.290402 
L 508.370258 103.497367 
L 512.79373 103.514471 
L 517.314321 103.309745 
L 521.8679 102.86356 
L 526.455203 102.176158 
L 533.492856 100.845602 
L 541.095203 99.452255 
L 546.031063 98.764302 
L 547.870966 98.570012 
L 547.870966 98.570012 
" style="fill:none;stroke:#000000;stroke-linecap:square;stroke-opacity:0.7;stroke-width:1.2;"/>
   </g>
   <g id="line2d_79">
    <path clip-path="url(#pc44a3bcbf7)" d="M 547.846508 79.56288 
L 538.234666 78.239574 
L 530.556835 77.398022 
L 523.32965 76.821014 
L 516.895032 76.525054 
L 510.492961 76.452619 
L 505.252183 76.588773 
L 500.690979 76.924275 
L 496.862379 77.449688 
L 494.56949 77.941262 
L 492.942939 78.451108 
L 491.847955 78.996782 
L 491.373139 79.487745 
L 491.329791 79.842781 
L 491.501673 80.144503 
L 492.014281 80.523716 
L 493.306047 81.034864 
L 495.610117 81.576175 
L 498.834428 82.063922 
L 503.309621 82.49706 
L 508.574601 82.77368 
L 514.269656 82.83922 
L 520.193565 82.661911 
L 525.376227 82.293445 
L 531.237182 81.634643 
L 547.850979 79.463248 
L 547.850979 79.463248 
" style="fill:none;stroke:#000000;stroke-linecap:square;stroke-opacity:0.7;stroke-width:1.2;"/>
   </g>
   <g id="line2d_80">
    <path clip-path="url(#pc44a3bcbf7)" d="M 547.842219 60.340516 
L 542.086981 59.610263 
L 534.478052 58.865545 
L 524.091436 58.074343 
L 516.878145 57.752477 
L 510.484771 57.677139 
L 504.722463 57.815621 
L 500.130323 58.154118 
L 496.424868 58.649881 
L 493.476687 59.277417 
L 492.125875 59.725512 
L 491.380869 60.159128 
L 491.235127 60.42777 
L 491.31652 60.627817 
L 491.750798 60.899786 
L 492.865477 61.21277 
L 495.221007 61.557356 
L 499.810127 61.919859 
L 506.930136 62.211533 
L 514.674567 62.318118 
L 522.496477 62.211694 
L 530.257874 61.871967 
L 537.397543 61.339983 
L 546.511304 60.411956 
L 547.841134 60.256939 
L 547.841134 60.256939 
" style="fill:none;stroke:#000000;stroke-linecap:square;stroke-opacity:0.7;stroke-width:1.2;"/>
   </g>
   <g id="line2d_81">
    <path clip-path="url(#pc44a3bcbf7)" d="M 611.645901 232.555576 
L 607.754496 231.801938 
L 601.83089 230.887287 
L 592.562546 229.693065 
L 585.983226 229.0257 
L 580.164452 228.663718 
L 574.868004 228.548577 
L 570.418043 228.643909 
L 566.591885 228.939953 
L 563.401128 229.413181 
L 560.9769 229.953287 
L 558.477222 230.715012 
L 556.532685 231.513377 
L 555.313856 232.21788 
L 554.848416 232.730839 
L 554.869673 232.939366 
L 555.050108 233.078321 
L 555.381327 233.174104 
L 556.716894 233.23587 
L 559.619462 233.031597 
L 571.438952 232.010416 
L 577.488276 231.784047 
L 584.619381 231.762091 
L 599.071534 231.968923 
L 609.69498 232.367751 
L 611.640798 232.454201 
L 611.640798 232.454201 
" style="fill:none;stroke:#000000;stroke-linecap:square;stroke-opacity:0.7;stroke-width:1.2;"/>
   </g>
   <g id="line2d_82">
    <path clip-path="url(#pc44a3bcbf7)" d="M 611.661941 213.332785 
L 607.067437 212.404833 
L 601.150126 211.424293 
L 594.714589 210.577383 
L 587.52491 209.845471 
L 581.577792 209.436888 
L 576.453101 209.278256 
L 571.805624 209.332394 
L 567.987275 209.5727 
L 564.845901 209.957588 
L 561.791298 210.545634 
L 559.416153 211.188067 
L 557.270733 211.967762 
L 555.920139 212.644637 
L 555.134002 213.279704 
L 554.994364 213.617872 
L 555.131471 213.890822 
L 555.452944 214.07173 
L 556.465124 214.284064 
L 558.72626 214.370975 
L 562.519389 214.233876 
L 590.566103 212.763426 
L 598.334003 212.637619 
L 604.36862 212.786989 
L 611.660031 213.239728 
L 611.660031 213.239728 
" style="fill:none;stroke:#000000;stroke-linecap:square;stroke-opacity:0.7;stroke-width:1.2;"/>
   </g>
   <g id="line2d_83">
    <path clip-path="url(#pc44a3bcbf7)" d="M 611.693464 194.205995 
L 606.487943 193.13831 
L 600.642303 192.156576 
L 594.114992 191.303508 
L 588.367127 190.755533 
L 583.074316 190.448427 
L 577.253544 190.351064 
L 572.035173 190.474092 
L 567.371063 190.79647 
L 563.563007 191.283472 
L 560.517543 191.87861 
L 558.215942 192.50801 
L 556.272645 193.277016 
L 555.314099 193.925514 
L 555.064027 194.399914 
L 555.174425 194.726739 
L 555.475865 194.985782 
L 556.250647 195.320654 
L 557.809591 195.675158 
L 560.23203 195.969892 
L 564.000742 196.189434 
L 569.557424 196.257497 
L 576.233344 196.103186 
L 583.33528 195.732218 
L 590.517356 195.136259 
L 601.882985 194.132703 
L 606.425637 193.985246 
L 611.040735 194.051917 
L 611.691331 194.07735 
L 611.691331 194.07735 
" style="fill:none;stroke:#000000;stroke-linecap:square;stroke-opacity:0.7;stroke-width:1.2;"/>
   </g>
   <g id="line2d_84">
    <path clip-path="url(#pc44a3bcbf7)" d="M 611.655581 175.176421 
L 604.068981 173.539857 
L 588.298547 170.40566 
L 583.002773 169.531679 
L 578.418332 168.999362 
L 574.646272 168.761287 
L 570.670445 168.750879 
L 567.528572 168.971983 
L 565.078116 169.333367 
L 562.566519 169.929686 
L 560.304107 170.725619 
L 558.69677 171.500655 
L 557.346369 172.366647 
L 556.251071 173.357343 
L 555.61676 174.293319 
L 555.408661 174.970333 
L 555.466066 175.750385 
L 555.849674 176.451772 
L 556.329396 176.919853 
L 557.411491 177.576906 
L 558.983217 178.172291 
L 561.347512 178.742841 
L 564.485955 179.211625 
L 568.431698 179.538706 
L 573.024106 179.667547 
L 577.593119 179.574657 
L 582.829218 179.222755 
L 588.125894 178.633069 
L 594.850137 177.636621 
L 609.037 175.440883 
L 611.661058 175.089674 
L 611.661058 175.089674 
" style="fill:none;stroke:#000000;stroke-linecap:square;stroke-opacity:0.7;stroke-width:1.2;"/>
   </g>
   <g id="line2d_85">
    <path clip-path="url(#pc44a3bcbf7)" d="M 611.655195 155.931882 
L 605.782027 154.884757 
L 594.453541 153.115455 
L 586.567365 152.061016 
L 581.36543 151.564529 
L 576.162091 151.293785 
L 571.465482 151.280815 
L 567.555412 151.503701 
L 564.480113 151.903549 
L 562.002012 152.426726 
L 559.628892 153.14402 
L 557.604982 153.971548 
L 556.239634 154.697419 
L 555.09089 155.559953 
L 554.78955 156.054869 
L 554.872183 156.301554 
L 555.159657 156.454062 
L 555.641082 156.535344 
L 557.121521 156.51364 
L 561.207674 156.089501 
L 567.686796 155.462351 
L 573.02043 155.187227 
L 578.397616 155.146503 
L 589.682984 155.38815 
L 611.652271 155.846449 
L 611.652271 155.846449 
" style="fill:none;stroke:#000000;stroke-linecap:square;stroke-opacity:0.7;stroke-width:1.2;"/>
   </g>
   <g id="line2d_86">
    <path clip-path="url(#pc44a3bcbf7)" d="M 611.644977 136.913378 
L 600.632989 135.728819 
L 588.228166 134.607747 
L 581.705475 134.230716 
L 575.295474 134.084935 
L 569.413931 134.170803 
L 564.777126 134.446729 
L 561.066145 134.875048 
L 558.602497 135.334472 
L 556.562724 135.946969 
L 555.61182 136.448393 
L 555.236056 136.835753 
L 555.153617 137.258929 
L 555.30135 137.560918 
L 555.766534 137.957142 
L 556.74406 138.421071 
L 558.298696 138.887821 
L 560.681713 139.361951 
L 564.377681 139.832554 
L 568.95653 140.170446 
L 573.978296 140.327858 
L 579.182149 140.288572 
L 584.374623 140.046996 
L 590.249831 139.541732 
L 597.324052 138.68359 
L 611.655985 136.833139 
L 611.655985 136.833139 
" style="fill:none;stroke:#000000;stroke-linecap:square;stroke-opacity:0.7;stroke-width:1.2;"/>
   </g>
   <g id="line2d_87">
    <path clip-path="url(#pc44a3bcbf7)" d="M 611.660535 117.685991 
L 605.993743 116.598273 
L 598.989662 115.469786 
L 591.189415 114.43939 
L 585.360828 113.867056 
L 580.134316 113.569064 
L 574.94389 113.496214 
L 570.442971 113.633935 
L 566.636605 113.954368 
L 563.466019 114.431558 
L 560.510445 115.116058 
L 558.338915 115.825311 
L 556.417023 116.711655 
L 555.505598 117.379085 
L 555.236032 117.819514 
L 555.30743 118.131166 
L 555.524191 118.311284 
L 556.143538 118.526979 
L 557.56147 118.691682 
L 560.035023 118.710769 
L 566.551021 118.443587 
L 576.844159 118.066459 
L 599.144796 117.654817 
L 611.661106 117.608108 
L 611.661106 117.608108 
" style="fill:none;stroke:#000000;stroke-linecap:square;stroke-opacity:0.7;stroke-width:1.2;"/>
   </g>
   <g id="line2d_88">
    <path clip-path="url(#pc44a3bcbf7)" d="M 611.644268 98.677348 
L 604.716541 97.999168 
L 596.375568 96.965691 
L 578.187665 94.563168 
L 573.557878 94.212146 
L 569.740152 94.110029 
L 566.512127 94.220635 
L 563.922236 94.493755 
L 561.492001 94.950462 
L 559.130117 95.646479 
L 557.665268 96.262431 
L 556.355526 97.033697 
L 555.739216 97.56443 
L 555.351003 98.104514 
L 555.234986 98.583793 
L 555.352706 99.004614 
L 555.748251 99.427018 
L 556.574693 99.857584 
L 558.006172 100.263577 
L 560.5806 100.661118 
L 564.501233 100.984596 
L 570.400638 101.228084 
L 577.481543 101.305468 
L 584.541036 101.154339 
L 591.740806 100.752953 
L 599.581349 100.091616 
L 607.170059 99.229846 
L 611.652576 98.581655 
L 611.652576 98.581655 
" style="fill:none;stroke:#000000;stroke-linecap:square;stroke-opacity:0.7;stroke-width:1.2;"/>
   </g>
   <g id="line2d_89">
    <path clip-path="url(#pc44a3bcbf7)" d="M 611.697743 79.480753 
L 602.204336 77.169268 
L 592.142787 74.755224 
L 587.595451 73.895333 
L 583.869866 73.401435 
L 580.007139 73.126278 
L 576.064823 73.094146 
L 572.17987 73.3019 
L 568.810937 73.691384 
L 565.580124 74.289467 
L 563.139145 74.923541 
L 560.660169 75.76663 
L 558.4896 76.722211 
L 556.908402 77.625948 
L 555.835074 78.471679 
L 555.372977 79.048503 
L 555.214805 79.652834 
L 555.380334 80.051669 
L 555.671936 80.318291 
L 556.366751 80.657786 
L 557.529094 80.968617 
L 559.982349 81.310051 
L 564.088018 81.57728 
L 570.968842 81.745614 
L 580.918576 81.744252 
L 588.436004 81.555072 
L 594.420694 81.185284 
L 601.268952 80.515424 
L 611.700248 79.38962 
L 611.700248 79.38962 
" style="fill:none;stroke:#000000;stroke-linecap:square;stroke-opacity:0.7;stroke-width:1.2;"/>
   </g>
   <g id="line2d_90">
    <path clip-path="url(#pc44a3bcbf7)" d="M 611.660233 60.363081 
L 603.076272 59.159389 
L 592.060734 57.405205 
L 581.837582 55.8004 
L 576.70512 55.226942 
L 572.83274 54.989396 
L 569.64843 54.970386 
L 566.390124 55.179943 
L 563.977252 55.534145 
L 561.672313 56.073146 
L 559.259193 56.899668 
L 557.767798 57.588824 
L 556.459525 58.371836 
L 555.422472 59.254586 
L 555.011119 59.859226 
L 554.924501 60.424345 
L 555.07816 60.769868 
L 555.51119 61.136396 
L 556.337982 61.478229 
L 557.917722 61.808329 
L 560.524083 62.072877 
L 565.309877 62.286141 
L 574.501564 62.419369 
L 584.970695 62.364353 
L 592.11429 62.102312 
L 599.129013 61.623584 
L 606.371328 60.907362 
L 611.657505 60.256267 
L 611.657505 60.256267 
" style="fill:none;stroke:#000000;stroke-linecap:square;stroke-opacity:0.7;stroke-width:1.2;"/>
   </g>
   <g id="line2d_91">
    <path clip-path="url(#pc44a3bcbf7)" d="M 675.475071 232.604633 
L 664.059213 230.503637 
L 655.586156 229.166464 
L 649.066383 228.343934 
L 643.876777 227.923213 
L 639.419409 227.774046 
L 635.49206 227.828276 
L 631.703843 228.084413 
L 628.37899 228.525784 
L 625.341677 229.163362 
L 622.957117 229.878163 
L 620.864321 230.760259 
L 619.731974 231.455087 
L 619.173759 231.974559 
L 618.865073 232.606798 
L 618.92727 233.022183 
L 619.267486 233.446687 
L 620.16102 233.950363 
L 621.674725 234.411953 
L 624.093304 234.841761 
L 627.40782 235.183484 
L 631.979884 235.419262 
L 637.312513 235.468038 
L 643.173712 235.286747 
L 649.012782 234.87172 
L 655.539518 234.164922 
L 667.097376 232.834557 
L 671.628017 232.568061 
L 675.474807 232.492268 
L 675.474807 232.492268 
" style="fill:none;stroke:#000000;stroke-linecap:square;stroke-opacity:0.7;stroke-width:1.2;"/>
   </g>
   <g id="line2d_92">
    <path clip-path="url(#pc44a3bcbf7)" d="M 675.488811 213.578468 
L 666.08569 212.001402 
L 656.877625 210.605571 
L 651.066965 209.938345 
L 645.711961 209.5295 
L 640.166573 209.333538 
L 635.097908 209.38008 
L 630.651749 209.634723 
L 626.896765 210.056828 
L 623.747372 210.644036 
L 622.009969 211.138283 
L 620.448657 211.814013 
L 619.542577 212.484686 
L 619.12196 213.136311 
L 619.069412 213.750672 
L 619.219949 214.194911 
L 619.698667 214.827372 
L 620.504323 215.462764 
L 621.480127 216.004039 
L 623.086799 216.651645 
L 625.448672 217.313272 
L 628.341459 217.851225 
L 631.695353 218.234859 
L 635.640794 218.452666 
L 640.148481 218.455966 
L 644.594051 218.221528 
L 649.112316 217.733236 
L 653.698475 217.004904 
L 671.754703 213.866708 
L 675.490909 213.53266 
L 675.490909 213.53266 
" style="fill:none;stroke:#000000;stroke-linecap:square;stroke-opacity:0.7;stroke-width:1.2;"/>
   </g>
   <g id="line2d_93">
    <path clip-path="url(#pc44a3bcbf7)" d="M 675.459017 194.304844 
L 672.307408 193.226713 
L 667.653152 191.877177 
L 660.281694 190.005541 
L 650.84422 187.815312 
L 646.106848 186.906661 
L 642.110773 186.353581 
L 638.78255 186.088771 
L 635.532393 186.03593 
L 632.366451 186.224354 
L 629.773306 186.604228 
L 627.447394 187.168875 
L 625.570857 187.821417 
L 623.960135 188.562237 
L 622.415184 189.487276 
L 621.130838 190.503965 
L 620.068442 191.674323 
L 619.569378 192.468094 
L 619.217395 193.338124 
L 619.068285 194.277507 
L 619.198316 195.303358 
L 619.439938 195.917567 
L 619.876812 196.601822 
L 620.489459 197.255573 
L 621.383757 197.939199 
L 622.804353 198.709008 
L 624.387859 199.323537 
L 626.738355 199.967184 
L 629.190765 200.421346 
L 632.270871 200.774343 
L 635.577753 200.944173 
L 639.468922 200.908096 
L 643.459412 200.628604 
L 647.532555 200.112652 
L 652.227853 199.288661 
L 659.465482 197.758884 
L 675.458148 194.281198 
L 675.458148 194.281198 
" style="fill:none;stroke:#000000;stroke-linecap:square;stroke-opacity:0.7;stroke-width:1.2;"/>
   </g>
   <g id="line2d_94">
    <path clip-path="url(#pc44a3bcbf7)" d="M 675.45188 175.146504 
L 668.873546 173.842257 
L 659.767021 172.283481 
L 651.012125 170.98855 
L 645.004803 170.318973 
L 639.822611 169.974111 
L 635.244072 169.905897 
L 631.968548 170.050093 
L 628.847594 170.413839 
L 626.332948 170.940088 
L 623.958731 171.700499 
L 621.805236 172.686261 
L 620.428065 173.528138 
L 619.314761 174.442459 
L 618.825374 175.097684 
L 618.795922 175.483072 
L 619.003066 175.662271 
L 619.398306 175.744535 
L 620.279197 175.710086 
L 623.046779 175.251496 
L 627.587564 174.50041 
L 631.522954 174.061005 
L 635.268312 173.841057 
L 639.858737 173.810397 
L 646.566045 174.056974 
L 668.070622 174.922946 
L 675.453965 175.079977 
L 675.453965 175.079977 
" style="fill:none;stroke:#000000;stroke-linecap:square;stroke-opacity:0.7;stroke-width:1.2;"/>
   </g>
   <g id="line2d_95">
    <path clip-path="url(#pc44a3bcbf7)" d="M 675.465288 156.026171 
L 658.801573 154.489534 
L 649.708227 153.831944 
L 642.674561 153.547639 
L 636.169327 153.492941 
L 630.912081 153.657416 
L 626.402334 154.032616 
L 623.188227 154.504987 
L 620.936478 155.024669 
L 619.413278 155.619344 
L 618.902214 156.053785 
L 618.85544 156.386309 
L 619.04404 156.645436 
L 619.470614 156.912111 
L 620.227153 157.19542 
L 622.079963 157.612192 
L 625.246307 158.022261 
L 629.951237 158.35037 
L 635.757897 158.511145 
L 642.690254 158.472814 
L 649.755971 158.209944 
L 656.360991 157.736092 
L 667.15213 156.67821 
L 675.471696 155.93039 
L 675.471696 155.93039 
" style="fill:none;stroke:#000000;stroke-linecap:square;stroke-opacity:0.7;stroke-width:1.2;"/>
   </g>
   <g id="line2d_96">
    <path clip-path="url(#pc44a3bcbf7)" d="M 675.463241 136.799918 
L 670.217099 135.827298 
L 660.968705 134.3723 
L 650.938807 132.981145 
L 644.514197 132.31796 
L 639.270196 132.018087 
L 635.292781 131.98952 
L 631.868662 132.16014 
L 628.673898 132.557299 
L 626.096355 133.110966 
L 623.759148 133.847049 
L 621.601614 134.78053 
L 620.13197 135.621515 
L 619.118829 136.415828 
L 618.757923 136.915432 
L 618.785041 137.20173 
L 619.002289 137.333593 
L 619.592305 137.396557 
L 620.803481 137.28846 
L 633.10042 135.567958 
L 637.768901 135.31566 
L 642.480894 135.299358 
L 649.843189 135.557059 
L 675.458849 136.714138 
L 675.458849 136.714138 
" style="fill:none;stroke:#000000;stroke-linecap:square;stroke-opacity:0.7;stroke-width:1.2;"/>
   </g>
   <g id="line2d_97">
    <path clip-path="url(#pc44a3bcbf7)" d="M 675.479976 117.722186 
L 664.34516 115.309256 
L 656.538679 113.860815 
L 650.016417 112.870227 
L 644.783979 112.318003 
L 640.256559 112.067279 
L 635.882924 112.05679 
L 632.027473 112.295365 
L 628.986434 112.722504 
L 626.533239 113.282597 
L 624.308733 114.00658 
L 622.163462 114.960794 
L 620.762779 115.788849 
L 619.583042 116.763636 
L 619.084984 117.504063 
L 619.048322 118.026622 
L 619.301645 118.400095 
L 619.691966 118.640882 
L 620.36146 118.861649 
L 622.073389 119.101957 
L 625.205815 119.192949 
L 631.914694 119.054699 
L 647.141925 118.718464 
L 660.367872 118.404352 
L 670.890387 117.926456 
L 675.477912 117.649618 
L 675.477912 117.649618 
" style="fill:none;stroke:#000000;stroke-linecap:square;stroke-opacity:0.7;stroke-width:1.2;"/>
   </g>
   <g id="line2d_98">
    <path clip-path="url(#pc44a3bcbf7)" d="M 675.484508 98.472295 
L 672.392213 97.329958 
L 668.023644 95.934787 
L 662.336698 94.351944 
L 655.059914 92.571168 
L 649.704208 91.490466 
L 645.857328 90.925761 
L 641.941607 90.584045 
L 638.079804 90.500562 
L 634.75661 90.657418 
L 631.63836 91.04634 
L 629.185587 91.568984 
L 626.849933 92.299605 
L 625.09289 93.038036 
L 623.04918 94.159621 
L 621.591004 95.19922 
L 620.44183 96.256828 
L 619.564123 97.418756 
L 619.249093 98.269205 
L 619.304874 98.888215 
L 619.62199 99.32487 
L 620.016539 99.573647 
L 620.993932 99.858238 
L 622.675235 99.99436 
L 625.102804 99.934608 
L 630.213915 99.527601 
L 643.60828 98.379015 
L 651.533339 97.972106 
L 659.525538 97.764131 
L 665.488933 97.844695 
L 672.06547 98.183717 
L 675.479777 98.395032 
L 675.479777 98.395032 
" style="fill:none;stroke:#000000;stroke-linecap:square;stroke-opacity:0.7;stroke-width:1.2;"/>
   </g>
   <g id="line2d_99">
    <path clip-path="url(#pc44a3bcbf7)" d="M 675.477111 79.478973 
L 663.327453 77.816637 
L 655.403279 76.931193 
L 649.456071 76.460395 
L 643.540489 76.208054 
L 637.699256 76.165411 
L 632.605751 76.317149 
L 628.13885 76.667833 
L 625.050838 77.093084 
L 622.680142 77.58043 
L 620.550298 78.244864 
L 619.445923 78.806757 
L 618.974746 79.221074 
L 618.774018 79.688031 
L 618.861349 80.04962 
L 619.266884 80.486885 
L 619.929075 80.874639 
L 621.247343 81.366409 
L 623.643639 81.938432 
L 626.816088 82.431227 
L 631.187572 82.858202 
L 636.575128 83.127325 
L 641.648928 83.175579 
L 646.92829 83.022123 
L 652.195197 82.645565 
L 657.912102 81.988608 
L 665.775004 80.804931 
L 674.86427 79.473561 
L 675.486678 79.393509 
L 675.486678 79.393509 
" style="fill:none;stroke:#000000;stroke-linecap:square;stroke-opacity:0.7;stroke-width:1.2;"/>
   </g>
   <g id="line2d_100">
    <path clip-path="url(#pc44a3bcbf7)" d="M 675.469457 60.386867 
L 658.823347 57.448005 
L 647.017879 55.330638 
L 641.837991 54.673648 
L 637.391432 54.35982 
L 634.075761 54.330509 
L 630.936617 54.529419 
L 628.45101 54.900825 
L 626.131755 55.470197 
L 623.836805 56.302715 
L 621.994468 57.232925 
L 620.667863 58.138461 
L 619.680949 59.1164 
L 619.318696 59.73476 
L 619.223715 60.392688 
L 619.381186 60.812432 
L 619.67633 61.140774 
L 620.215569 61.481251 
L 621.077609 61.807771 
L 622.773213 62.176706 
L 625.286279 62.475772 
L 629.883673 62.747991 
L 636.305277 62.888952 
L 644.216746 62.851263 
L 651.648314 62.593879 
L 658.701241 62.119427 
L 667.025914 61.316565 
L 675.473763 60.282093 
L 675.473763 60.282093 
" style="fill:none;stroke:#000000;stroke-linecap:square;stroke-opacity:0.7;stroke-width:1.2;"/>
   </g>
  </g>
 </g>
 <defs>
  <clipPath id="pc44a3bcbf7">
   <rect height="262.08" width="694.08" x="12.96" y="12.96"/>
  </clipPath>
 </defs>
</svg>
