<svg viewBox="0 0 1496 400" xmlns="http://www.w3.org/2000/svg"><g><g><g><g><g><line x1="80" y1="378" x2="75" y2="378" style="visibility: inherit;" fill="rgb(0, 0, 0)" stroke="rgb(204, 204, 204)" stroke-width="1px"></line><line x1="80" y1="324" x2="75" y2="324" style="visibility: inherit;" fill="rgb(0, 0, 0)" stroke="rgb(204, 204, 204)" stroke-width="1px"></line><line x1="80" y1="270" x2="75" y2="270" style="visibility: inherit;" fill="rgb(0, 0, 0)" stroke="rgb(204, 204, 204)" stroke-width="1px"></line><line x1="80" y1="216" x2="75" y2="216" style="visibility: inherit;" fill="rgb(0, 0, 0)" stroke="rgb(204, 204, 204)" stroke-width="1px"></line><line x1="80" y1="162" x2="75" y2="162" style="visibility: inherit;" fill="rgb(0, 0, 0)" stroke="rgb(204, 204, 204)" stroke-width="1px"></line><line x1="80" y1="108" x2="75" y2="108" style="visibility: inherit;" fill="rgb(0, 0, 0)" stroke="rgb(204, 204, 204)" stroke-width="1px"></line><line x1="80" y1="54" x2="75" y2="54" style="visibility: inherit;" fill="rgb(0, 0, 0)" stroke="rgb(204, 204, 204)" stroke-width="1px"></line><line x1="80" y1="0" x2="75" y2="0" style="visibility: inherit;" fill="rgb(0, 0, 0)" stroke="rgb(204, 204, 204)" stroke-width="1px"></line></g><g transform="translate(70, 0)"><text x="0" y="378" dx="0em" dy="0.3em" style="text-anchor: end; visibility: hidden; font-family: &quot;Helvetica Neue&quot;, sans-serif; font-size: 12px; font-weight: 200;" fill="rgb(50, 49, 63)" stroke="none" stroke-width="1px">-3e+5</text><text x="0" y="324" dx="0em" dy="0.3em" style="text-anchor: end; visibility: inherit; font-family: &quot;Helvetica Neue&quot;, sans-serif; font-size: 12px; font-weight: 200;" fill="rgb(50, 49, 63)" stroke="none" stroke-width="1px">-2.5e+5</text><text x="0" y="270" dx="0em" dy="0.3em" style="text-anchor: end; visibility: inherit; font-family: &quot;Helvetica Neue&quot;, sans-serif; font-size: 12px; font-weight: 200;" fill="rgb(50, 49, 63)" stroke="none" stroke-width="1px">-2e+5</text><text x="0" y="216" dx="0em" dy="0.3em" style="text-anchor: end; visibility: inherit; font-family: &quot;Helvetica Neue&quot;, sans-serif; font-size: 12px; font-weight: 200;" fill="rgb(50, 49, 63)" stroke="none" stroke-width="1px">-1.5e+5</text><text x="0" y="162" dx="0em" dy="0.3em" style="text-anchor: end; visibility: inherit; font-family: &quot;Helvetica Neue&quot;, sans-serif; font-size: 12px; font-weight: 200;" fill="rgb(50, 49, 63)" stroke="none" stroke-width="1px">-1e+5</text><text x="0" y="108" dx="0em" dy="0.3em" style="text-anchor: end; visibility: inherit; font-family: &quot;Helvetica Neue&quot;, sans-serif; font-size: 12px; font-weight: 200;" fill="rgb(50, 49, 63)" stroke="none" stroke-width="1px">-5e+4</text><text x="0" y="54" dx="0em" dy="0.3em" style="text-anchor: end; visibility: inherit; font-family: &quot;Helvetica Neue&quot;, sans-serif; font-size: 12px; font-weight: 200;" fill="rgb(50, 49, 63)" stroke="none" stroke-width="1px">0</text><text x="0" y="0" dx="0em" dy="0.3em" style="text-anchor: end; visibility: hidden; font-family: &quot;Helvetica Neue&quot;, sans-serif; font-size: 12px; font-weight: 200;" fill="rgb(50, 49, 63)" stroke="none" stroke-width="1px">5e+4</text></g><line x1="80" y1="0" x2="80" y2="378" fill="rgb(0, 0, 0)" stroke="rgb(204, 204, 204)" stroke-width="1px"></line></g></g><g transform="translate(80, 0)" clip-path="url(#clip_0)"><clipPath id="clip_0"><rect width="1416" height="378"></rect></clipPath><g><g><g><line x1="0" y1="0" x2="0" y2="378" fill="rgb(0, 0, 0)" stroke="rgb(60, 60, 60)" stroke-width="1px" opacity="0.25"></line><line x1="118" y1="0" x2="118" y2="378" fill="rgb(0, 0, 0)" stroke="rgb(60, 60, 60)" stroke-width="1px" opacity="0.25"></line><line x1="236" y1="0" x2="236" y2="378" fill="rgb(0, 0, 0)" stroke="rgb(60, 60, 60)" stroke-width="1px" opacity="0.25"></line><line x1="354" y1="0" x2="354" y2="378" fill="rgb(0, 0, 0)" stroke="rgb(60, 60, 60)" stroke-width="1px" opacity="0.25"></line><line x1="472" y1="0" x2="472" y2="378" fill="rgb(0, 0, 0)" stroke="rgb(60, 60, 60)" stroke-width="1px" opacity="0.25"></line><line x1="590" y1="0" x2="590" y2="378" fill="rgb(0, 0, 0)" stroke="rgb(60, 60, 60)" stroke-width="1px" opacity="0.25"></line><line x1="708" y1="0" x2="708" y2="378" fill="rgb(0, 0, 0)" stroke="rgb(60, 60, 60)" stroke-width="1px" opacity="0.25"></line><line x1="826" y1="0" x2="826" y2="378" fill="rgb(0, 0, 0)" stroke="rgb(60, 60, 60)" stroke-width="1px" opacity="0.25"></line><line x1="944" y1="0" x2="944" y2="378" fill="rgb(0, 0, 0)" stroke="rgb(60, 60, 60)" stroke-width="1px" opacity="0.25"></line><line x1="1062" y1="0" x2="1062" y2="378" fill="rgb(0, 0, 0)" stroke="rgb(60, 60, 60)" stroke-width="1px" opacity="0.25"></line><line x1="1180" y1="0" x2="1180" y2="378" fill="rgb(0, 0, 0)" stroke="rgb(60, 60, 60)" stroke-width="1px" opacity="0.25"></line><line x1="1298" y1="0" x2="1298" y2="378" fill="rgb(0, 0, 0)" stroke="rgb(60, 60, 60)" stroke-width="1px" opacity="0.25"></line><line x1="1416" y1="0" x2="1416" y2="378" fill="rgb(0, 0, 0)" stroke="rgb(60, 60, 60)" stroke-width="1px" opacity="0.25"></line></g><g><line x1="0" y1="378" x2="1416" y2="378" fill="rgb(0, 0, 0)" stroke="rgb(60, 60, 60)" stroke-width="1px" opacity="0.25"></line><line x1="0" y1="324" x2="1416" y2="324" fill="rgb(0, 0, 0)" stroke="rgb(60, 60, 60)" stroke-width="1px" opacity="0.25"></line><line x1="0" y1="270" x2="1416" y2="270" fill="rgb(0, 0, 0)" stroke="rgb(60, 60, 60)" stroke-width="1px" opacity="0.25"></line><line x1="0" y1="216" x2="1416" y2="216" fill="rgb(0, 0, 0)" stroke="rgb(60, 60, 60)" stroke-width="1px" opacity="0.25"></line><line x1="0" y1="162" x2="1416" y2="162" fill="rgb(0, 0, 0)" stroke="rgb(60, 60, 60)" stroke-width="1px" opacity="0.25"></line><line x1="0" y1="108" x2="1416" y2="108" fill="rgb(0, 0, 0)" stroke="rgb(60, 60, 60)" stroke-width="1px" opacity="0.25"></line><line x1="0" y1="54" x2="1416" y2="54" fill="rgb(0, 0, 0)" stroke="rgb(60, 60, 60)" stroke-width="1px" opacity="0.25"></line><line x1="0" y1="0" x2="1416" y2="0" fill="rgb(0, 0, 0)" stroke="rgb(60, 60, 60)" stroke-width="1px" opacity="0.25"></line></g></g></g><g><g><line x1="0" y1="54" x2="1416" y2="54" fill="rgb(0, 0, 0)" stroke="rgb(153, 153, 153)" stroke-width="1.5px"></line></g></g><g><g><line x1="118" y1="0" x2="118" y2="378" fill="rgb(0, 0, 0)" stroke="rgb(153, 153, 153)" stroke-width="1.5px"></line></g></g><g><g><g><g><g><path stroke="rgb(255, 112, 67)" stroke-width="2px" d="M118,53.99336451805118L123.89999999999999,53.98600832714084L129.79999999999998,53.9775246773529L135.70000000000002,53.968860868606555L141.6,53.958736282653774L147.5,53.94806653244018L153.4,322.896121875L159.3,81.51429937500001L165.2,83.68988343749999L171.1,88.14246398437501L177,75.95751374999998L182.9,111.70614656250001L188.8,79.39317726562501L194.70000000000002,73.18303804687503L200.6,67.82459378906248L206.5,72.90144281250002L212.4,68.3062316015625L218.3,65.387644453125L224.2,62.56768376953124L230.1,59.98109378906247L236,57.68580190429691L241.9,57.98221628906248L247.79999999999998,58.98967804687504L253.7,56.835129199218784L259.59999999999997,56.565396562499984L265.5,55.95210369140625L271.40000000000003,56.21609223632811L277.3,55.094700498046905L283.2,55.027350856933595L289.1,54.884634367675744L295,54.54796012207032L300.9,54.534519184570286L306.8,54.551330145263705L312.7,54.228970810546855L318.6,54.33074884643554L324.5,54.23309388061523L330.4,54.22528635864256L336.3,54.18860363525391L342.2,54.11198259887698L348.09999999999997,54.10183460998536L354,54.070562697143544L359.9,54.050480446014376L365.8,54.03821431091308L371.7,54.05165543792725L377.6,54.02627844131467L383.5,54.02203219734196L389.40000000000003,54.016043653907786L395.3,54.01405050258637L401.2,54.00692867889404L407.09999999999997,54.00473055770874L413,54.00302425563814L418.9,54.001606888504L424.8,54.00069853168492L430.7,54.00017061063767L436.6,54.00018835441591L442.5,53.999720592784854L448.4,53.99988399364469L454.3,53.99992899759292L460.2,53.99952705402376L466.1,53.99978542568209L472,53.99976138467787L477.90000000000003,54.00004477890013L483.8,53.99980860717773L489.7,53.99986471366884L495.59999999999997,53.99995867767336L501.5,54.00020856033325L507.4,53.99992043598172L513.3,53.999937065334336L519.1999999999999,53.999845209674845L525.1,53.99988779422756L531,53.99990832612991L536.9,53.999887303447736L542.8000000000001,53.99994739488602L548.7,53.99989528776172L554.6,53.9998698841095L560.5,53.999907712268794L566.4,53.99993077840804L572.3,53.99997007890698L578.2,53.99989651702879L584.1,53.99995861948014L590,53.99992166988369L595.9,53.99990928915025L601.8,53.99988931549069L607.6999999999999,53.99991376333236L613.6,53.99987520492556L619.5,53.99989200679778L625.4,53.99989006788252L631.3000000000001,53.99992292284014L637.2,53.99991338687897L643.1,53.99990803464891L649,53.99988077705382L654.9,53.999925164051035L660.8,53.99989921812056L666.7,53.999909475059496L672.6,53.999910996322626L678.5,53.99992150045392L684.4,53.999855623683914L690.3,53.999940872097L696.1999999999999,53.99990010337831L702.1,53.999899779968246L708,53.99992303716658L713.9,53.9998638217163L719.8,53.999894876289375L725.6999999999999,53.99991042366031L731.6,53.99987822582244L737.5,53.99990571825026L743.4,53.999909741821284L749.3,53.99991751962665L755.2,53.99990251813887L761.1,53.99993104362488L767,53.999920258312216L772.9,53.99992321792604L778.8000000000001,53.99984891601565L784.7,53.99992114048007L790.6,53.9999152382469L796.5,53.999897320404045L802.4,53.999880752334604L808.3,53.99992925971986L814.1999999999999,53.99989436954496L820.1,53.99989382263186L826,53.99992135059358L831.9,53.999902791595446L837.8,53.999895273857135L843.7,53.999904213981665L849.6,53.99990652986526L855.5,53.99989854246138L861.4,53.99989647994994L867.3000000000001,53.999866338958725L873.2,53.99989546646117L879.1,53.99989082284924L885,53.999917150383L890.9,53.99991182287215L896.8,53.99989372272489L902.6999999999999,53.99991995704653L908.6,53.99992005077365L914.5,53.9998802749443L920.4,53.999879648208605L926.3,53.999918326091745L932.2,53.99988181371691L938.1,53.999904416885386L944,53.99988302392961L949.9,53.99989517292022L955.8000000000001,53.999897534637455L961.7,53.99991394512176L967.6,53.999906052474955L973.5,53.999903343143444L979.4,53.99991415060043L985.3,53.99991123527525L991.1999999999999,53.99992263496398L997.1,53.9998824069786L1003,53.99990170085903L1008.9,53.99991500907896L1014.8,53.999877308120745L1020.7,53.99991575683595L1026.6,53.999904375171695L1032.5,53.999898907585134L1038.3999999999999,53.99988020542145L1044.3,53.99991852436062L1050.2,53.999904713001285L1056.1,53.99987585226057L1062,53.9998807518196L1067.9,53.999898724250784L1073.8,53.99991702266692L1079.7,53.99992521194457L1085.6000000000001,53.9999132957268L1091.5,53.999890667839054L1097.4,53.99987155265808L1103.3,53.99991302845001L1109.2,53.99991706747056L1115.1,53.99991545145036L1121,53.99986818826676L1126.8999999999999,53.99989940299986L1132.8,53.99989637746813L1138.7,53.999888329811085L1144.6,53.999910004978176L1150.5,53.99992012493135L1156.4,53.99991254436492L1162.3,53.999916495838136L1168.2,53.99987300079346L1174.1000000000001,53.99984873886109L1180,53.99992776987074L1185.9,53.99992321535109L1191.8,53.99986431146624L1197.7,53.99989047935486L1203.6,53.99987998037341L1209.5,53.99990292034147L1215.3999999999999,53.999871960525525L1221.3,53.99990406051637L1227.2,53.999894860839845L1233.1,53.999914402942636L1239,53.99989503438951L1244.9,53.99987691106793L1250.8,53.999904659442905L1256.7,53.99988194967267L1262.6000000000001,53.999915389652244L1268.5,53.999910622959135L1274.4,53.9999019078827L1280.3,53.99992528301243L1286.2,53.99989538045884L1292.1,53.999861089210526" style="fill: none;" fill="none"></path></g></g></g></g></g></g><g transform="translate(80, 378)" clip-path="url(#clip_1)"><clipPath id="clip_1"><rect width="1416" height="22"></rect></clipPath><g><g><line x1="0" y1="0" x2="0" y2="5" style="visibility: inherit;" fill="rgb(0, 0, 0)" stroke="rgb(204, 204, 204)" stroke-width="1px"></line><line x1="118" y1="0" x2="118" y2="5" style="visibility: inherit;" fill="rgb(0, 0, 0)" stroke="rgb(204, 204, 204)" stroke-width="1px"></line><line x1="236" y1="0" x2="236" y2="5" style="visibility: inherit;" fill="rgb(0, 0, 0)" stroke="rgb(204, 204, 204)" stroke-width="1px"></line><line x1="354" y1="0" x2="354" y2="5" style="visibility: inherit;" fill="rgb(0, 0, 0)" stroke="rgb(204, 204, 204)" stroke-width="1px"></line><line x1="472" y1="0" x2="472" y2="5" style="visibility: inherit;" fill="rgb(0, 0, 0)" stroke="rgb(204, 204, 204)" stroke-width="1px"></line><line x1="590" y1="0" x2="590" y2="5" style="visibility: inherit;" fill="rgb(0, 0, 0)" stroke="rgb(204, 204, 204)" stroke-width="1px"></line><line x1="708" y1="0" x2="708" y2="5" style="visibility: inherit;" fill="rgb(0, 0, 0)" stroke="rgb(204, 204, 204)" stroke-width="1px"></line><line x1="826" y1="0" x2="826" y2="5" style="visibility: inherit;" fill="rgb(0, 0, 0)" stroke="rgb(204, 204, 204)" stroke-width="1px"></line><line x1="944" y1="0" x2="944" y2="5" style="visibility: inherit;" fill="rgb(0, 0, 0)" stroke="rgb(204, 204, 204)" stroke-width="1px"></line><line x1="1062" y1="0" x2="1062" y2="5" style="visibility: inherit;" fill="rgb(0, 0, 0)" stroke="rgb(204, 204, 204)" stroke-width="1px"></line><line x1="1180" y1="0" x2="1180" y2="5" style="visibility: inherit;" fill="rgb(0, 0, 0)" stroke="rgb(204, 204, 204)" stroke-width="1px"></line><line x1="1298" y1="0" x2="1298" y2="5" style="visibility: inherit;" fill="rgb(0, 0, 0)" stroke="rgb(204, 204, 204)" stroke-width="1px"></line><line x1="1416" y1="0" x2="1416" y2="5" style="visibility: inherit;" fill="rgb(0, 0, 0)" stroke="rgb(204, 204, 204)" stroke-width="1px"></line></g><g transform="translate(0, 8)"><text x="0" y="0" dx="0em" dy="0.95em" style="text-anchor: middle; visibility: hidden; font-family: &quot;Helvetica Neue&quot;, sans-serif; font-size: 12px; font-weight: 200;" fill="rgb(50, 49, 63)" stroke="none" stroke-width="1px">-20</text><text x="118" y="0" dx="0em" dy="0.95em" style="text-anchor: middle; visibility: inherit; font-family: &quot;Helvetica Neue&quot;, sans-serif; font-size: 12px; font-weight: 200;" fill="rgb(50, 49, 63)" stroke="none" stroke-width="1px">0</text><text x="236" y="0" dx="0em" dy="0.95em" style="text-anchor: middle; visibility: inherit; font-family: &quot;Helvetica Neue&quot;, sans-serif; font-size: 12px; font-weight: 200;" fill="rgb(50, 49, 63)" stroke="none" stroke-width="1px">20</text><text x="354" y="0" dx="0em" dy="0.95em" style="text-anchor: middle; visibility: inherit; font-family: &quot;Helvetica Neue&quot;, sans-serif; font-size: 12px; font-weight: 200;" fill="rgb(50, 49, 63)" stroke="none" stroke-width="1px">40</text><text x="472" y="0" dx="0em" dy="0.95em" style="text-anchor: middle; visibility: inherit; font-family: &quot;Helvetica Neue&quot;, sans-serif; font-size: 12px; font-weight: 200;" fill="rgb(50, 49, 63)" stroke="none" stroke-width="1px">60</text><text x="590" y="0" dx="0em" dy="0.95em" style="text-anchor: middle; visibility: inherit; font-family: &quot;Helvetica Neue&quot;, sans-serif; font-size: 12px; font-weight: 200;" fill="rgb(50, 49, 63)" stroke="none" stroke-width="1px">80</text><text x="708" y="0" dx="0em" dy="0.95em" style="text-anchor: middle; visibility: inherit; font-family: &quot;Helvetica Neue&quot;, sans-serif; font-size: 12px; font-weight: 200;" fill="rgb(50, 49, 63)" stroke="none" stroke-width="1px">100</text><text x="826" y="0" dx="0em" dy="0.95em" style="text-anchor: middle; visibility: inherit; font-family: &quot;Helvetica Neue&quot;, sans-serif; font-size: 12px; font-weight: 200;" fill="rgb(50, 49, 63)" stroke="none" stroke-width="1px">120</text><text x="944" y="0" dx="0em" dy="0.95em" style="text-anchor: middle; visibility: inherit; font-family: &quot;Helvetica Neue&quot;, sans-serif; font-size: 12px; font-weight: 200;" fill="rgb(50, 49, 63)" stroke="none" stroke-width="1px">140</text><text x="1062" y="0" dx="0em" dy="0.95em" style="text-anchor: middle; visibility: inherit; font-family: &quot;Helvetica Neue&quot;, sans-serif; font-size: 12px; font-weight: 200;" fill="rgb(50, 49, 63)" stroke="none" stroke-width="1px">160</text><text x="1180" y="0" dx="0em" dy="0.95em" style="text-anchor: middle; visibility: inherit; font-family: &quot;Helvetica Neue&quot;, sans-serif; font-size: 12px; font-weight: 200;" fill="rgb(50, 49, 63)" stroke="none" stroke-width="1px">180</text><text x="1298" y="0" dx="0em" dy="0.95em" style="text-anchor: middle; visibility: inherit; font-family: &quot;Helvetica Neue&quot;, sans-serif; font-size: 12px; font-weight: 200;" fill="rgb(50, 49, 63)" stroke="none" stroke-width="1px">200</text><text x="1416" y="0" dx="0em" dy="0.95em" style="text-anchor: middle; visibility: hidden; font-family: &quot;Helvetica Neue&quot;, sans-serif; font-size: 12px; font-weight: 200;" fill="rgb(50, 49, 63)" stroke="none" stroke-width="1px">220</text></g><line x1="0" y1="0" x2="1416" y2="0" fill="rgb(0, 0, 0)" stroke="rgb(204, 204, 204)" stroke-width="1px"></line></g></g></g></g></svg>