<?xml version="1.0" encoding="utf-8" standalone="no"?>
<!DOCTYPE svg PUBLIC "-//W3C//DTD SVG 1.1//EN"
  "http://www.w3.org/Graphics/SVG/1.1/DTD/svg11.dtd">
<!-- Created with matplotlib (https://matplotlib.org/) -->
<svg height="288pt" version="1.1" viewBox="0 0 720 288" width="720pt" xmlns="http://www.w3.org/2000/svg" xmlns:xlink="http://www.w3.org/1999/xlink">
 <defs>
  <style type="text/css">
*{stroke-linecap:butt;stroke-linejoin:round;}
  </style>
 </defs>
 <g id="figure_1">
  <g id="patch_1">
   <path d="M 0 288 
L 720 288 
L 720 0 
L 0 0 
z
" style="fill:#ffffff;"/>
  </g>
  <g id="axes_1">
   <g id="line2d_1">
    <path clip-path="url(#p8c4f0f2911)" d="M 104.444246 231.670852 
L 104.90557 231.161286 
L 105.244922 230.581695 
L 105.178708 230.21432 
L 104.828231 230.002776 
L 103.919031 229.83823 
L 101.640913 229.773268 
L 86.964334 229.803737 
L 80.205528 229.551548 
L 72.90479 229.081251 
L 62.12489 228.116406 
L 57.763528 227.796668 
L 55.90443 227.83193 
L 54.94354 228.054027 
L 54.527595 228.348984 
L 54.336247 228.738868 
L 54.329355 229.467969 
L 54.882584 233.713064 
L 54.824327 234.110925 
L 54.88512 233.996953 
L 55.174326 233.547819 
L 56.005711 232.794501 
L 56.436523 232.686312 
L 56.595787 232.899021 
L 56.541247 233.112406 
L 56.250751 233.524529 
L 55.313468 234.140083 
L 54.27542 234.070478 
L 54.193333 233.919556 
L 54.182085 233.623636 
L 54.305991 233.263505 
L 55.572971 231.831625 
L 57.008714 230.828111 
L 58.432324 230.055744 
L 60.454734 229.196253 
L 62.523429 228.544078 
L 64.503215 228.125285 
L 65.59657 227.993886 
L 67.189031 228.001726 
L 67.932868 228.301906 
L 67.403009 228.62585 
L 64.987973 228.48818 
L 63.748076 228.112548 
L 60.291956 225.445253 
L 59.931622 224.448801 
L 60.236502 222.635964 
L 60.884797 221.738136 
L 62.921641 220.243307 
L 65.831964 219.073198 
L 69.237102 218.282753 
L 73.65525 217.778324 
L 78.078143 217.684614 
L 82.46567 217.924518 
L 84.641858 218.159045 
L 88.179899 218.706634 
L 92.955337 219.807033 
L 96.000002 220.774451 
L 99.347055 222.173233 
L 101.886222 223.599547 
L 103.259257 224.596491 
L 104.662303 225.930256 
L 105.645967 227.307002 
L 106.151386 228.534757 
L 106.307195 229.576264 
L 106.228591 230.475113 
L 105.844176 231.531959 
L 105.359672 232.236873 
L 104.599267 232.926474 
L 104.599267 232.926474 
" style="fill:none;stroke:#000000;stroke-linecap:square;stroke-opacity:0.7;stroke-width:1.2;"/>
   </g>
   <g id="line2d_2">
    <path clip-path="url(#p8c4f0f2911)" d="M 104.767561 197.81245 
L 105.127615 197.986526 
L 104.91122 198.110881 
L 103.869727 198.299938 
L 102.075482 198.432237 
L 98.647789 198.467581 
L 94.247721 198.293221 
L 89.124194 197.881906 
L 83.540261 197.231398 
L 77.351197 196.293312 
L 69.672409 194.844299 
L 66.217542 194.231596 
L 65.737331 194.296296 
L 65.665093 194.508702 
L 65.978764 195.217244 
L 66.280589 195.975552 
L 66.355165 196.684319 
L 66.258852 197.118224 
L 65.879402 197.711936 
L 65.272444 198.179924 
L 64.634649 198.479786 
L 62.940901 198.893157 
L 61.021125 199.035865 
L 59.026581 198.986658 
L 56.815462 198.786603 
L 50.351713 198.048114 
L 50.193262 198.14187 
L 50.360716 198.568686 
L 51.392938 199.430642 
L 52.986549 200.512052 
L 55.354519 201.866831 
L 56.493539 202.317779 
L 56.961909 202.429752 
L 58.002558 202.39438 
L 58.305791 202.240418 
L 58.568259 201.953107 
L 58.699326 201.575643 
L 58.70527 201.215527 
L 58.398119 200.324981 
L 57.935662 199.68093 
L 57.192353 198.988653 
L 56.001143 198.260608 
L 54.275557 197.680254 
L 53.073231 197.525497 
L 52.037792 197.541975 
L 50.441612 197.838044 
L 49.199816 198.221749 
L 48.984495 198.138377 
L 49.263125 197.421616 
L 52.588231 193.584264 
L 54.394237 192.025826 
L 59.559466 188.454949 
L 63.357396 186.387039 
L 66.747744 184.837169 
L 72.324291 182.798715 
L 82.434524 180.552923 
L 87.059333 180.155317 
L 96.609281 180.881083 
L 99.001623 181.5036 
L 101.398261 182.391712 
L 103.778924 183.640282 
L 105.596501 184.97413 
L 107.032259 186.436999 
L 107.883255 187.630837 
L 108.703693 189.345121 
L 109.058948 190.670192 
L 109.183314 191.719677 
L 109.155356 192.990409 
L 108.872189 194.480289 
L 108.251633 196.065504 
L 107.703656 197.006255 
L 106.561683 198.414374 
L 106.561683 198.414374 
" style="fill:none;stroke:#000000;stroke-linecap:square;stroke-opacity:0.7;stroke-width:1.2;"/>
   </g>
   <g id="line2d_3">
    <path clip-path="url(#p8c4f0f2911)" d="M 103.801282 164.62862 
L 104.24032 164.491153 
L 103.608023 164.573634 
L 99.669004 165.047894 
L 94.809111 165.424781 
L 88.64487 165.66895 
L 85.223767 165.712165 
L 76.401744 165.563021 
L 68.757056 165.159914 
L 59.497836 164.362929 
L 51.417836 163.543713 
L 50.78204 163.571364 
L 51.464562 164.422933 
L 54.572558 166.245616 
L 55.914341 166.933277 
L 56.905496 167.315632 
L 58.105746 167.514074 
L 58.61276 167.432183 
L 58.880771 167.158267 
L 58.448085 166.763157 
L 55.437486 166.731912 
L 54.149072 167.06791 
L 52.322479 167.813315 
L 50.693597 168.550693 
L 50.572931 168.230447 
L 50.950609 167.065359 
L 52.847622 163.122179 
L 54.000443 160.750716 
L 54.10712 160.172738 
L 54.056446 160.048377 
L 53.825537 159.915372 
L 52.399304 159.88814 
L 50.679954 159.657403 
L 50.080528 159.45114 
L 49.391306 155.341023 
L 51.007374 154.521771 
L 52.29501 154.105493 
L 55.951118 153.432102 
L 61.846282 153.145515 
L 71.219055 153.764848 
L 75.669375 154.386372 
L 80.585488 155.287788 
L 86.279708 156.617412 
L 90.195171 157.728966 
L 95.910547 159.721193 
L 99.532069 161.321053 
L 101.51351 162.389202 
L 103.362809 163.625572 
L 104.460871 164.610456 
L 105.09667 165.478534 
L 105.299897 166.088508 
L 105.251321 166.579956 
L 105.141392 166.793808 
L 104.642769 167.204217 
L 103.984053 167.407144 
L 103.776166 167.435666 
L 103.776166 167.435666 
" style="fill:none;stroke:#000000;stroke-linecap:square;stroke-opacity:0.7;stroke-width:1.2;"/>
   </g>
   <g id="line2d_4">
    <path clip-path="url(#p8c4f0f2911)" d="M 103.253009 131.645543 
L 103.299118 131.546347 
L 103.242761 131.509517 
L 102.77741 131.450508 
L 100.956147 131.492407 
L 84.677849 132.279714 
L 76.364442 132.390558 
L 60.236695 131.917685 
L 54.30122 131.496852 
L 45.386661 130.75858 
L 45.155421 130.813659 
L 45.250658 131.183176 
L 47.536212 133.331397 
L 57.225943 131.71908 
L 60.668489 129.894274 
L 57.012864 130.72941 
L 54.276151 131.06111 
L 53.275667 131.115551 
L 48.801793 130.879497 
L 48.468891 130.824705 
L 46.326223 130.264832 
L 45.336195 129.22118 
L 46.949515 128.947271 
L 50.097019 129.478891 
L 52.774436 130.648478 
L 53.118374 130.915068 
L 80.778627 114.058128 
L 91.250301 114.041291 
L 92.856579 114.244876 
L 101.249008 116.608924 
L 102.276634 117.115538 
L 107.956841 122.419108 
L 108.332082 123.308907 
L 108.696645 124.989179 
L 108.677263 126.208004 
L 108.464062 127.203764 
L 108.014038 128.228998 
L 107.423464 129.040758 
L 106.607535 129.757058 
L 106.539034 129.80349 
L 106.539034 129.80349 
" style="fill:none;stroke:#000000;stroke-linecap:square;stroke-opacity:0.7;stroke-width:1.2;"/>
   </g>
   <g id="line2d_5">
    <path clip-path="url(#p8c4f0f2911)" d="M 104.362281 96.845423 
L 104.471041 96.687209 
L 104.437221 96.662257 
L 104.041792 96.597814 
L 101.992789 96.591539 
L 94.695715 96.58094 
L 87.403456 96.325697 
L 78.759716 95.742985 
L 70.488548 94.923087 
L 59.930573 93.616997 
L 59.459491 93.748866 
L 59.508607 93.839038 
L 60.156449 94.407477 
L 61.099444 95.306239 
L 61.461593 95.896879 
L 61.535537 96.350985 
L 61.44864 96.648235 
L 61.061205 97.049827 
L 60.226257 97.38656 
L 58.554937 97.581603 
L 55.833616 97.455097 
L 50.134482 96.879961 
L 49.718614 96.925508 
L 49.884123 98.121119 
L 54.22355 100.896452 
L 56.765081 101.837905 
L 57.965259 101.896963 
L 57.460227 100.841704 
L 56.152747 100.137854 
L 54.655904 99.556183 
L 52.711901 98.995644 
L 50.948365 98.633227 
L 48.030846 98.321304 
L 45.837221 98.365059 
L 44.509091 98.519733 
L 45.66639 97.071958 
L 60.827682 85.848223 
L 65.092101 83.83079 
L 82.724472 79.036245 
L 89.112811 78.739656 
L 94.522862 79.264261 
L 100.948092 81.258141 
L 103.328558 82.624262 
L 104.888252 83.849437 
L 106.041222 85.029122 
L 107.318123 86.845258 
L 107.908875 88.084753 
L 108.471708 90.210183 
L 108.554826 91.389145 
L 108.440092 92.787346 
L 108.069103 94.19538 
L 107.501134 95.408078 
L 106.688561 96.535247 
L 106.356224 96.885454 
L 106.356224 96.885454 
" style="fill:none;stroke:#000000;stroke-linecap:square;stroke-opacity:0.7;stroke-width:1.2;"/>
   </g>
   <g id="line2d_6">
    <path clip-path="url(#p8c4f0f2911)" d="M 105.041644 61.267941 
L 105.60205 61.67885 
L 105.731501 61.924967 
L 105.545256 62.400895 
L 105.173741 62.677421 
L 103.722119 63.268645 
L 101.487969 63.821989 
L 98.973537 64.257771 
L 95.190439 64.705693 
L 90.31471 65.012525 
L 85.403248 65.058111 
L 77.706661 64.675655 
L 71.828781 64.093962 
L 62.895297 62.932649 
L 56.764115 62.165345 
L 54.210619 62.038358 
L 53.24074 62.173964 
L 52.923432 62.421561 
L 52.953535 62.650631 
L 53.183361 62.922792 
L 53.580515 63.203082 
L 55.101629 63.848129 
L 57.050867 64.314897 
L 58.386601 64.460139 
L 57.110499 64.354041 
L 54.237959 64.388479 
L 52.052384 64.609198 
L 50.582983 64.937172 
L 49.873683 65.284821 
L 49.797821 65.703466 
L 49.951515 65.828779 
L 50.840734 66.096365 
L 52.136654 66.138393 
L 52.498347 66.10768 
L 54.206959 65.741754 
L 55.495156 65.20578 
L 56.853958 64.32424 
L 58.151909 62.995981 
L 59.009671 61.536944 
L 59.494338 59.817936 
L 59.448567 57.857007 
L 58.981962 56.415257 
L 58.678022 55.848823 
L 58.064132 55.003268 
L 54.114686 52.533518 
L 51.532842 51.889371 
L 49.219954 51.387324 
L 48.046119 50.677393 
L 48.154385 50.348052 
L 48.643359 50.028224 
L 48.898126 49.927174 
L 51.280786 49.483048 
L 52.628716 49.402344 
L 58.191093 49.608392 
L 64.103325 50.372231 
L 70.342019 51.571287 
L 77.178903 53.252447 
L 83.126249 54.998779 
L 87.673546 56.515759 
L 93.065641 58.548189 
L 98.706753 61.05189 
L 101.741411 62.69961 
L 103.414624 63.860441 
L 104.194479 64.678152 
L 104.343704 65.099454 
L 104.222896 65.391944 
L 103.899207 65.578349 
L 103.205412 65.696027 
L 101.942826 65.648633 
L 101.942826 65.648633 
" style="fill:none;stroke:#000000;stroke-linecap:square;stroke-opacity:0.7;stroke-width:1.2;"/>
   </g>
   <g id="line2d_7">
    <path clip-path="url(#p8c4f0f2911)" d="M 211.76658 231.049139 
L 214.12263 230.074164 
L 213.636778 230.109601 
L 206.966826 230.959061 
L 200.913011 231.484552 
L 195.118998 231.776134 
L 189.970828 231.816628 
L 186.251465 231.642642 
L 183.618414 231.328459 
L 181.987929 230.986386 
L 180.36845 230.455586 
L 176.194781 228.803113 
L 174.73403 228.697378 
L 173.003803 228.83421 
L 170.385757 229.285923 
L 166.643636 230.103951 
L 162.216876 231.238802 
L 159.918517 232.02582 
L 158.843055 232.559562 
L 158.120806 233.15713 
L 157.890454 233.607323 
L 157.867156 233.846328 
L 158.166316 234.578054 
L 158.947569 235.322873 
L 159.703609 235.829064 
L 161.249698 236.63587 
L 163.526298 237.511499 
L 165.296275 237.957082 
L 167.249675 238.122273 
L 167.58077 238.103056 
L 168.730385 237.878226 
L 169.73225 237.351081 
L 170.118051 236.954211 
L 170.440213 236.179763 
L 170.43786 235.812965 
L 169.496902 234.58236 
L 168.7666 234.323428 
L 168.341813 234.262564 
L 167.223099 234.327067 
L 165.987798 234.721913 
L 164.789287 235.410322 
L 165.800075 234.098041 
L 176.089137 224.810823 
L 181.548063 221.51892 
L 186.820432 219.031203 
L 189.726699 217.918715 
L 193.071808 216.857963 
L 196.812634 215.953384 
L 200.656469 215.351059 
L 203.254752 215.149182 
L 209.948958 215.561489 
L 211.778702 215.973511 
L 213.947567 216.693452 
L 216.199859 217.797562 
L 218.652228 219.658818 
L 219.755811 220.899503 
L 220.719197 222.414156 
L 221.252367 223.633998 
L 221.640899 225.040476 
L 221.799549 226.235115 
L 221.820011 227.174301 
L 221.687243 228.548252 
L 221.200843 230.373386 
L 220.63043 231.640304 
L 219.908504 232.794183 
L 218.981231 233.898109 
L 218.981231 233.898109 
" style="fill:none;stroke:#000000;stroke-linecap:square;stroke-opacity:0.7;stroke-width:1.2;"/>
   </g>
   <g id="line2d_8">
    <path clip-path="url(#p8c4f0f2911)" d="M 217.134001 197.292083 
L 217.88992 197.37546 
L 217.774851 197.532033 
L 217.081224 197.826911 
L 214.971361 198.433417 
L 211.056882 199.284698 
L 206.548261 200.015262 
L 202.403146 200.479169 
L 197.907608 200.765533 
L 192.429817 200.83278 
L 187.43533 200.661217 
L 181.890173 200.259698 
L 175.006936 199.52241 
L 168.710951 198.675841 
L 158.009905 197.110573 
L 158.155482 197.203637 
L 159.763956 197.625895 
L 164.538053 198.616549 
L 170.859219 199.666372 
L 175.710375 200.506452 
L 176.089254 200.671685 
L 176.18415 200.808691 
L 176.120384 200.930566 
L 175.285363 201.310407 
L 172.64355 202.000195 
L 165.746402 203.677352 
L 162.359772 204.73373 
L 161.200357 205.230887 
L 160.359924 205.924405 
L 160.534783 206.132082 
L 161.233395 206.18879 
L 162.102265 206.035661 
L 162.897593 205.778444 
L 165.926534 203.922915 
L 167.554015 202.253282 
L 169.105245 199.9773 
L 169.629571 198.961284 
L 170.682803 196.063184 
L 170.968289 194.720714 
L 171.083627 191.202198 
L 170.978699 190.500003 
L 169.873291 187.62429 
L 169.049741 186.6022 
L 168.36987 186.01273 
L 167.098103 185.26998 
L 165.712333 184.791619 
L 163.822216 184.451156 
L 162.237461 184.279513 
L 163.628157 184.501651 
L 165.7767 184.960967 
L 169.883913 186.03933 
L 177.053967 188.300966 
L 184.317375 190.920928 
L 190.125406 193.197972 
L 199.303941 197.073398 
L 208.905558 201.45353 
L 214.311146 204.059125 
L 211.954861 202.92048 
" style="fill:none;stroke:#000000;stroke-linecap:square;stroke-opacity:0.7;stroke-width:1.2;"/>
   </g>
   <g id="line2d_9">
    <path clip-path="url(#p8c4f0f2911)" d="M 215.108973 163.802387 
L 216.480615 163.395926 
L 215.318823 163.653961 
L 212.314641 164.057308 
L 207.818242 164.391675 
L 203.115797 164.50757 
L 197.726051 164.380569 
L 193.404002 164.06255 
L 189.57887 163.57443 
L 187.147033 163.114487 
L 184.572216 162.376644 
L 183.55445 161.863966 
L 183.325833 161.576098 
L 183.381614 161.462277 
L 183.700271 161.413933 
L 184.147358 161.581086 
L 184.358929 161.855265 
L 184.314713 162.200696 
L 184.077783 162.48548 
L 183.434696 162.880697 
L 182.410989 163.245602 
L 180.217303 163.667045 
L 177.147095 163.902184 
L 173.280999 163.912894 
L 165.51485 163.750783 
L 165.175451 163.806655 
L 164.624298 164.156938 
L 164.708312 164.542853 
L 165.338774 165.319216 
L 166.287259 166.204478 
L 166.753734 166.416114 
L 166.834652 166.375656 
L 167.166265 165.691623 
L 167.820494 163.916405 
L 165.729383 165.202326 
L 164.77728 165.288594 
L 164.253766 165.062511 
L 163.664899 163.540048 
L 164.046355 161.745135 
L 164.73293 160.337997 
L 166.026936 158.522811 
L 177.358103 150.789282 
L 185.552345 148.16939 
L 189.887134 147.370684 
L 198.520501 146.873621 
L 201.121205 147.020421 
L 206.084331 147.740544 
L 208.156643 148.240553 
L 211.610973 149.40716 
L 213.561732 150.302794 
L 215.052253 151.143683 
L 216.318883 152.000461 
L 217.44912 152.916148 
L 219.02508 154.571525 
L 220.035868 156.087508 
L 220.706348 157.645404 
L 221.005688 158.978309 
L 221.056971 160.258646 
L 220.847524 161.589584 
L 220.401991 162.760365 
L 219.685329 163.854173 
L 218.851489 164.665312 
L 218.731743 164.756667 
L 218.731743 164.756667 
" style="fill:none;stroke:#000000;stroke-linecap:square;stroke-opacity:0.7;stroke-width:1.2;"/>
   </g>
   <g id="line2d_10">
    <path clip-path="url(#p8c4f0f2911)" d="M 217.44022 130.747802 
L 217.506255 130.70346 
L 217.461706 130.655092 
L 216.49578 130.663027 
L 209.619564 130.886135 
L 204.233555 130.830182 
L 197.720737 130.519064 
L 191.739504 130.015523 
L 184.944411 129.189909 
L 178.460833 128.129342 
L 176.160871 127.789722 
L 176.465419 128.078485 
L 177.83482 129.072266 
L 178.65099 129.93329 
L 178.966501 130.626693 
L 178.982832 130.758195 
L 178.887962 131.232705 
L 178.675214 131.516221 
L 177.93927 131.936757 
L 177.718814 132.005103 
L 175.041441 132.108376 
L 174.189116 131.966009 
L 172.206948 131.351572 
L 171.571725 131.052967 
L 170.28326 130.186573 
L 169.54111 129.272769 
L 169.336217 128.520221 
L 169.57254 127.730421 
L 170.159092 127.178748 
L 170.852426 126.859141 
L 171.872007 126.663991 
L 173.147199 126.752922 
L 173.742322 126.955805 
L 174.234339 127.344685 
L 174.322695 127.558342 
L 173.960264 128.210346 
L 172.753353 128.70936 
L 171.28714 128.938406 
L 168.72413 128.972177 
L 167.109942 128.9369 
L 166.915649 129.014675 
L 167.365541 129.56796 
L 168.826863 130.811731 
L 170.051274 132.128354 
L 170.846661 133.610729 
L 170.899771 134.331089 
L 170.536017 134.877526 
L 170.078185 134.882045 
L 169.704353 134.596599 
L 169.334869 133.806273 
L 169.242028 132.79073 
L 169.455143 131.398914 
L 170.259458 129.319665 
L 172.547807 125.918899 
L 177.48754 121.297051 
L 184.978268 116.778466 
L 190.358571 114.590253 
L 194.407393 113.408369 
L 197.999855 112.678031 
L 201.414816 112.268223 
L 206.795142 112.247841 
L 208.621501 112.444013 
L 210.658035 112.810588 
L 213.527369 113.653844 
L 215.935855 114.764836 
L 217.346424 115.667087 
L 218.689952 116.792167 
L 219.971562 118.268584 
L 220.791625 119.616644 
L 221.422904 121.201536 
L 221.707856 122.461144 
L 221.82231 123.817 
L 221.725958 125.327742 
L 221.409351 126.770266 
L 220.773748 128.36012 
L 220.072988 129.5166 
L 219.183831 130.568918 
L 219.183831 130.568918 
" style="fill:none;stroke:#000000;stroke-linecap:square;stroke-opacity:0.7;stroke-width:1.2;"/>
   </g>
   <g id="line2d_11">
    <path clip-path="url(#p8c4f0f2911)" d="M 216.825152 94.919363 
L 216.925823 95.034425 
L 216.813663 95.285413 
L 216.224852 95.601713 
L 215.024138 95.994444 
L 212.228748 96.64181 
L 208.429322 97.302016 
L 203.911639 97.887646 
L 199.616991 98.265491 
L 195.195303 98.467989 
L 190.180155 98.460216 
L 185.674638 98.238022 
L 179.608374 97.634769 
L 176.80602 97.248666 
L 168.633578 95.80075 
L 155.58624 93.20133 
L 154.888236 93.230885 
L 154.497572 93.449756 
L 154.484122 93.69279 
L 154.715434 94.111817 
L 155.879349 95.233377 
L 156.67835 95.844477 
L 159.506955 97.625013 
L 161.807288 98.737407 
L 164.052858 99.531841 
L 165.887818 99.931856 
L 167.162162 100.035019 
L 168.250793 99.931808 
L 167.519322 98.933391 
L 166.811087 98.940107 
L 165.335498 99.222395 
L 164.596887 99.583856 
L 164.591349 99.618517 
L 164.693148 99.615875 
L 165.03358 99.49117 
L 166.613017 98.595847 
L 167.41783 98.056627 
L 169.594167 96.4208 
L 172.804144 93.143264 
L 172.183468 92.019052 
L 164.700687 90.933447 
L 162.633584 89.477874 
L 166.824037 85.349548 
L 169.194868 84.895341 
L 177.45436 84.509676 
L 179.746999 84.606845 
L 189.696951 85.727449 
L 196.675648 87.105889 
L 202.741613 88.71105 
L 207.338867 90.23489 
L 211.289611 91.84365 
L 214.614188 93.562603 
L 215.950589 94.437247 
L 217.639415 95.973536 
L 218.052218 96.647842 
L 218.180645 97.289347 
L 218.044107 97.734411 
L 217.727488 98.071971 
L 217.115262 98.364202 
L 216.332347 98.504872 
L 216.332347 98.504872 
" style="fill:none;stroke:#000000;stroke-linecap:square;stroke-opacity:0.7;stroke-width:1.2;"/>
   </g>
   <g id="line2d_12">
    <path clip-path="url(#p8c4f0f2911)" d="M 217.859076 61.258332 
L 218.753402 61.483611 
L 218.365116 61.797327 
L 217.476261 62.04838 
L 214.31519 62.578349 
L 210.532002 62.931059 
L 207.245921 63.059593 
L 203.561436 63.025709 
L 197.471518 62.609417 
L 190.642869 61.750443 
L 175.543118 59.485727 
L 171.981158 59.198465 
L 169.700338 59.229608 
L 168.325407 59.439355 
L 167.108599 59.972002 
L 166.822008 60.257313 
L 166.582368 60.89085 
L 166.655102 61.412693 
L 166.986724 62.025336 
L 167.628057 62.657207 
L 168.585525 63.21287 
L 169.645975 63.534987 
L 170.40587 63.552608 
L 170.59584 63.374956 
L 170.270302 63.110193 
L 169.422913 62.84122 
L 168.049093 62.66041 
L 166.432006 62.686206 
L 165.796632 62.767915 
L 164.357398 63.220448 
L 164.122861 63.479925 
L 164.261539 63.604531 
L 164.707022 63.607592 
L 165.636211 63.378999 
L 167.121364 62.788535 
L 169.468753 61.613125 
L 173.202275 59.46229 
L 176.181129 57.505096 
L 176.876843 56.812574 
L 176.899 56.728178 
L 176.406217 56.430208 
L 172.469581 55.771853 
L 171.110511 55.245355 
L 170.201927 54.702749 
L 169.475531 54.00934 
L 169.098808 52.835524 
L 169.704806 51.764213 
L 170.598642 51.143295 
L 173.231665 50.21717 
L 176.324291 49.712093 
L 179.13228 49.515531 
L 183.985698 49.544666 
L 189.033385 49.941369 
L 193.642739 50.579143 
L 198.24475 51.471883 
L 202.092294 52.432091 
L 204.490857 53.145479 
L 208.77806 54.702986 
L 211.255159 55.832647 
L 213.638294 57.177744 
L 215.201556 58.297043 
L 216.572761 59.601501 
L 217.226125 60.477533 
L 217.705874 61.484593 
L 217.876076 62.534505 
L 217.722353 63.419182 
L 217.363647 64.120811 
L 216.600898 64.916125 
L 215.839061 65.389852 
L 215.839061 65.389852 
" style="fill:none;stroke:#000000;stroke-linecap:square;stroke-opacity:0.7;stroke-width:1.2;"/>
   </g>
   <g id="line2d_13">
    <path clip-path="url(#p8c4f0f2911)" d="M 329.753436 231.825987 
L 329.63331 232.035686 
L 329.105309 232.352992 
L 327.919402 232.774137 
L 325.852472 233.259932 
L 322.712601 233.750724 
L 318.744567 234.138844 
L 313.816525 234.382201 
L 308.424643 234.413374 
L 303.393223 234.245349 
L 298.335577 233.883974 
L 293.277975 233.304438 
L 288.921986 232.576827 
L 286.140801 231.943615 
L 285.004707 231.623416 
L 282.711455 230.73952 
L 281.95239 230.167048 
L 281.91332 229.845244 
L 282.250834 229.630193 
L 282.92052 229.53485 
L 284.167421 229.636512 
L 285.392867 229.970963 
L 286.629092 230.7678 
L 286.790419 231.310948 
L 286.482477 231.798686 
L 285.353221 232.352423 
L 283.217378 232.738207 
L 281.038548 232.836668 
L 277.576531 232.697843 
L 271.408227 232.231532 
L 271.332615 232.294707 
L 271.531564 232.60237 
L 272.278083 233.116044 
L 278.039338 236.386325 
L 279.27755 237.014657 
L 279.179705 236.997749 
L 277.319583 236.817644 
L 275.917154 236.87388 
L 273.56719 237.488723 
L 272.749595 238.308089 
L 272.785359 238.811711 
L 273.110523 239.231512 
L 274.071198 239.751791 
L 278.428874 239.855554 
L 284.661247 237.384369 
L 288.194455 235.301409 
L 294.489996 231.158763 
L 319.143011 216.488205 
L 322.907935 215.049074 
L 327.399215 213.975457 
L 331.111882 214.02327 
L 332.560282 214.478402 
L 334.981863 216.573938 
L 335.433811 217.41155 
L 335.959821 218.997489 
L 336.179925 220.348959 
L 336.207994 222.805173 
L 335.859262 225.211539 
L 335.34496 227.076817 
L 334.628135 228.874809 
L 333.760257 230.498183 
L 332.839993 231.847655 
L 332.839993 231.847655 
" style="fill:none;stroke:#000000;stroke-linecap:square;stroke-opacity:0.7;stroke-width:1.2;"/>
   </g>
   <g id="line2d_14">
    <path clip-path="url(#p8c4f0f2911)" d="M 330.696948 196.566328 
L 331.201668 196.758763 
L 331.02585 196.905831 
L 330.138567 197.191194 
L 327.910189 197.609744 
L 324.670324 197.996721 
L 320.834175 198.266587 
L 316.104745 198.390619 
L 311.430073 198.327707 
L 305.071216 198.004025 
L 297.806605 197.391711 
L 284.545299 196.128927 
L 281.601979 196.039951 
L 279.973511 196.175751 
L 279.201522 196.425507 
L 278.905261 196.728869 
L 278.918028 197.106445 
L 279.109181 197.417711 
L 279.78012 198.006988 
L 280.633641 198.504218 
L 282.33995 199.1714 
L 284.371607 199.648706 
L 286.743761 199.986045 
L 286.196713 200.059395 
L 284.857356 200.195404 
L 279.051813 201.1687 
L 277.080256 201.795024 
L 276.268156 202.22202 
L 276.000498 202.449497 
L 275.819877 202.777126 
L 276.158714 203.345439 
L 276.886973 203.668875 
L 277.589507 203.833172 
L 278.822601 203.945747 
L 280.070536 203.868397 
L 281.645639 203.416053 
L 282.161981 203.12476 
L 282.73982 202.629974 
L 283.462189 200.201606 
L 283.011046 198.553984 
L 282.094537 196.925935 
L 280.463427 194.998307 
L 279.091746 193.771973 
L 276.909455 192.245977 
L 276.484966 191.996262 
L 271.403349 189.939862 
L 269.285011 189.502577 
L 266.788573 189.04929 
L 266.264177 188.870237 
L 265.569842 186.813323 
L 265.884683 186.341504 
L 269.335662 183.862815 
L 274.522708 182.026883 
L 277.551075 181.358416 
L 289.868476 180.324564 
L 297.110195 180.640384 
L 303.470389 181.408053 
L 308.61185 182.373287 
L 311.395716 183.036042 
L 317.58758 184.925315 
L 321.194061 186.357478 
L 327.783899 190.040364 
L 329.637427 191.571992 
L 331.011899 193.082919 
L 331.952832 194.636449 
L 332.272953 195.567069 
L 332.384291 196.7099 
L 332.229646 197.55298 
L 331.885271 198.282405 
L 331.369302 198.907558 
L 330.651499 199.44582 
L 330.064561 199.732434 
L 330.064561 199.732434 
" style="fill:none;stroke:#000000;stroke-linecap:square;stroke-opacity:0.7;stroke-width:1.2;"/>
   </g>
   <g id="line2d_15">
    <path clip-path="url(#p8c4f0f2911)" d="M 330.633531 163.158277 
L 331.743396 162.567473 
L 331.717799 162.471897 
L 331.176681 162.478893 
L 323.865442 163.074865 
L 320.152692 163.149608 
L 315.788608 163.056251 
L 311.970051 162.83796 
L 306.894753 162.390298 
L 297.327597 161.260618 
L 291.557852 160.644217 
L 288.92789 160.530027 
L 287.510217 160.592546 
L 286.355655 160.787851 
L 285.166219 161.351938 
L 284.646362 162.070568 
L 284.499212 162.796227 
L 284.573036 163.735854 
L 284.911976 164.898102 
L 285.479058 166.003682 
L 285.947366 166.639405 
L 285.793873 166.607334 
L 284.134549 166.192866 
L 281.90676 165.910313 
L 279.839641 165.864214 
L 277.722292 166.048902 
L 276.310428 166.365283 
L 275.325507 166.80423 
L 275.042676 167.167034 
L 275.11715 167.3083 
L 275.48564 167.42233 
L 276.280945 167.373324 
L 277.625619 167.033452 
L 279.727456 166.231308 
L 282.788845 164.792544 
L 287.16175 162.494043 
L 292.129446 159.65205 
L 292.680052 159.151922 
L 292.301007 159.025936 
L 287.764658 158.922428 
L 286.499261 158.717059 
L 284.255836 158.074914 
L 282.987301 157.494598 
L 281.630958 156.544682 
L 281.067078 155.905303 
L 280.659462 154.973329 
L 280.648387 154.357345 
L 280.944005 153.577109 
L 282.092329 152.44864 
L 283.330078 151.770448 
L 285.922434 150.901156 
L 288.425301 150.405551 
L 290.945245 150.108706 
L 294.382364 149.93487 
L 299.800332 150.069846 
L 304.076876 150.471543 
L 307.898857 151.036562 
L 310.15823 151.46381 
L 315.302756 152.721159 
L 319.332852 154.038245 
L 323.180447 155.678294 
L 325.184716 156.753634 
L 327.66794 158.442533 
L 328.695649 159.339099 
L 329.850661 160.626954 
L 330.392921 161.438932 
L 330.988875 162.8063 
L 331.178196 164.296081 
L 331.118416 164.854175 
L 330.83847 165.794578 
L 330.401692 166.585662 
L 329.703478 167.398913 
L 328.948868 167.998233 
L 328.948868 167.998233 
" style="fill:none;stroke:#000000;stroke-linecap:square;stroke-opacity:0.7;stroke-width:1.2;"/>
   </g>
   <g id="line2d_16">
    <path clip-path="url(#p8c4f0f2911)" d="M 330.995118 129.689954 
L 331.385334 129.244984 
L 331.263238 128.967359 
L 330.80554 128.808365 
L 329.624321 128.702993 
L 326.8 128.756405 
L 309.421033 129.486277 
L 305.863324 129.474377 
L 298.163918 129.219339 
L 289.129593 128.623003 
L 285.135002 128.33356 
L 278.885866 128.089626 
L 276.345367 128.276784 
L 275.144674 128.572185 
L 274.131635 129.197351 
L 273.813626 129.770671 
L 274.137794 131.481674 
L 274.647182 132.229855 
L 275.708316 133.230601 
L 276.8855 133.92464 
L 278.105641 134.358991 
L 279.631235 134.598608 
L 280.760598 134.590701 
L 283.374141 133.98886 
L 284.505679 133.431075 
L 285.946157 132.270514 
L 286.362812 131.729568 
L 286.780082 130.791939 
L 286.472595 129.083405 
L 283.607017 127.439294 
L 281.780178 127.0546 
L 276.51111 126.176212 
L 275.461245 125.657378 
L 275.5744 125.159377 
L 277.286034 124.632909 
L 281.707911 124.396761 
L 286.810235 124.72116 
L 292.373211 125.579388 
L 295.977784 126.534444 
L 296.24979 126.773881 
L 295.842611 126.657122 
L 294.750794 126.218817 
L 293.430609 125.517223 
L 291.286488 123.808768 
L 290.939973 119.864771 
L 291.510817 119.364912 
L 293.867734 118.240141 
L 295.928405 117.734775 
L 299.381888 117.341374 
L 302.085014 117.2885 
L 304.612793 117.391283 
L 308.342353 117.771184 
L 313.600337 118.732147 
L 316.846361 119.581397 
L 321.019614 121.012865 
L 323.413645 122.054864 
L 326.36975 123.668539 
L 328.237335 124.985232 
L 329.625249 126.241013 
L 330.436905 127.190516 
L 331.233815 128.513851 
L 331.602154 129.681869 
L 331.649264 130.561394 
L 331.609655 130.884776 
L 331.158797 132.023256 
L 330.529957 132.714155 
L 329.720752 133.20415 
L 329.450047 133.310173 
L 329.450047 133.310173 
" style="fill:none;stroke:#000000;stroke-linecap:square;stroke-opacity:0.7;stroke-width:1.2;"/>
   </g>
   <g id="line2d_17">
    <path clip-path="url(#p8c4f0f2911)" d="M 327.892093 96.895948 
L 328.339058 97.060891 
L 328.226187 97.232356 
L 327.504579 97.569347 
L 325.690247 98.054327 
L 322.613378 98.589884 
L 318.14336 99.08698 
L 312.767633 99.409925 
L 307.559175 99.493571 
L 303.349986 99.403082 
L 298.174862 99.079161 
L 293.820221 98.578821 
L 291.067984 98.108422 
L 288.299838 97.428618 
L 286.44308 96.700804 
L 285.895858 96.328526 
L 285.690883 95.950384 
L 285.869481 95.744806 
L 286.309495 95.680135 
L 286.803612 95.818381 
L 287.054059 96.137752 
L 286.956817 96.453753 
L 286.500268 96.835455 
L 285.547129 97.243124 
L 284.257296 97.564736 
L 282.110113 97.848751 
L 279.800479 97.958296 
L 276.623138 97.903164 
L 270.230222 97.626837 
L 270.509557 97.89634 
L 272.281309 98.872307 
L 275.905362 100.904427 
L 277.33 101.614888 
L 277.621414 101.518219 
L 277.742975 101.139776 
L 277.729785 100.639806 
L 277.687356 102.009361 
L 277.890859 103.351343 
L 278.313069 104.071886 
L 279.072267 104.374049 
L 279.695491 104.290033 
L 280.215424 104.100789 
L 281.147374 103.595027 
L 283.906782 101.52291 
L 292.113677 94.813488 
L 300.96166 88.718519 
L 304.398415 86.734535 
L 309.277944 84.307556 
L 314.400582 82.301397 
L 316.839951 81.569561 
L 321.178297 80.700904 
L 323.473241 80.516482 
L 325.380324 80.548408 
L 327.910665 80.928349 
L 329.125161 81.291379 
L 330.839981 82.087325 
L 332.162599 83.03238 
L 333.348522 84.29521 
L 334.011193 85.311524 
L 334.591021 86.587698 
L 334.938785 87.789211 
L 335.153664 89.304949 
L 335.126529 91.079126 
L 334.815678 92.833637 
L 334.281221 94.401621 
L 333.505327 95.889643 
L 332.52446 97.21048 
L 332.093896 97.671899 
L 332.093896 97.671899 
" style="fill:none;stroke:#000000;stroke-linecap:square;stroke-opacity:0.7;stroke-width:1.2;"/>
   </g>
   <g id="line2d_18">
    <path clip-path="url(#p8c4f0f2911)" d="M 325.590107 62.583483 
L 327.821651 61.907576 
L 327.131072 61.987425 
L 322.992837 62.428121 
L 318.218065 62.751516 
L 312.352894 62.921711 
L 307.641583 62.857497 
L 303.76833 62.614804 
L 300.768239 62.216018 
L 298.877965 61.743235 
L 297.902675 61.2964 
L 297.185076 60.692259 
L 296.790416 60.439192 
L 295.948003 60.281681 
L 294.841187 60.279392 
L 291.215573 60.554235 
L 286.961348 61.068589 
L 285.098142 61.496291 
L 284.092299 61.967799 
L 283.540138 62.528699 
L 282.562735 63.998056 
L 281.99647 64.197598 
L 281.384708 64.143435 
L 280.907886 63.894763 
L 280.623456 63.530107 
L 280.567984 63.022004 
L 280.816651 62.517647 
L 281.15254 62.195263 
L 281.50231 61.968089 
L 282.212679 61.665905 
L 283.387196 61.428129 
L 284.539515 61.41772 
L 285.899203 61.694684 
L 286.180584 61.806262 
L 286.821769 62.199805 
L 287.133331 62.594143 
L 287.202406 62.877008 
L 286.584342 63.661333 
L 285.463891 63.925696 
L 285.084026 63.936354 
L 283.662122 63.748659 
L 282.402194 63.316574 
L 281.342242 62.743039 
L 280.331991 61.954617 
L 279.730443 61.308431 
L 278.6929 59.285329 
L 278.549147 58.276793 
L 279.441741 55.215796 
L 280.256438 54.132522 
L 281.796423 52.707107 
L 283.696786 51.450412 
L 284.828682 50.85289 
L 286.950543 49.935391 
L 289.424032 49.110273 
L 291.822452 48.49859 
L 297.717904 47.58536 
L 301.420234 47.358984 
L 303.884188 47.338754 
L 307.078022 47.461069 
L 311.520603 47.910628 
L 314.627163 48.428661 
L 318.914964 49.457356 
L 322.865892 50.807019 
L 325.178109 51.841015 
L 327.057073 52.871098 
L 329.08606 54.272372 
L 330.819423 55.893215 
L 331.503989 56.747111 
L 332.415213 58.378871 
L 332.737006 59.423604 
L 332.852926 60.360435 
L 332.74562 61.592189 
L 332.288872 62.855715 
L 331.900503 63.484782 
L 331.286067 64.197565 
L 330.707123 64.691274 
L 330.707123 64.691274 
" style="fill:none;stroke:#000000;stroke-linecap:square;stroke-opacity:0.7;stroke-width:1.2;"/>
   </g>
   <g id="line2d_19">
    <path clip-path="url(#p8c4f0f2911)" d="M 442.578811 231.675583 
L 442.527835 231.878666 
L 441.940059 232.537764 
L 441.009424 233.051443 
L 439.344009 233.647737 
L 436.789978 234.266569 
L 433.568769 234.802768 
L 429.424923 235.253307 
L 425.276199 235.508869 
L 420.605381 235.602696 
L 415.765458 235.501323 
L 410.630652 235.175123 
L 405.809373 234.650577 
L 402.444803 234.142553 
L 396.633231 232.912385 
L 392.702027 231.687854 
L 390.277196 230.576001 
L 389.269903 229.831799 
L 388.98995 229.391534 
L 389.035309 229.09301 
L 389.151093 228.982296 
L 389.618987 228.833889 
L 390.601492 228.899388 
L 391.258543 229.093681 
L 392.677729 230.1927 
L 392.777683 230.488764 
L 392.703578 231.061466 
L 392.455857 231.424126 
L 391.618877 231.993295 
L 390.418949 232.36979 
L 388.841519 232.532208 
L 388.420418 232.529497 
L 387.003303 232.388478 
L 385.320605 231.894352 
L 384.790885 231.600674 
L 384.456489 231.314892 
L 384.234559 230.832295 
L 384.277064 230.619029 
L 384.459032 230.368131 
L 385.166189 229.976526 
L 385.645198 229.838321 
L 387.02279 229.650126 
L 395.356816 231.274861 
L 396.773431 232.869242 
L 396.636825 233.054228 
L 395.870191 233.430668 
L 394.410239 233.711068 
L 391.534068 234.118622 
L 389.810858 234.522023 
L 389.078818 234.771939 
L 387.894465 235.346846 
L 386.618015 236.488384 
L 386.066449 238.060461 
L 386.191945 239.039779 
L 386.710129 240.139006 
L 387.672706 241.238373 
L 389.438381 242.410463 
L 390.31002 242.784754 
L 392.036092 243.259039 
L 394.589163 243.43943 
L 397.119811 243.095665 
L 399.060423 242.525615 
L 400.45265 241.976126 
L 404.422927 239.91263 
L 410.673312 235.780933 
L 420.18694 228.886603 
L 428.753352 222.988815 
L 434.342325 219.648105 
L 436.675155 218.453982 
L 441.909181 216.507167 
L 444.981234 216.243601 
L 445.83473 216.40325 
L 446.917242 216.873595 
L 448.564696 218.976411 
L 448.940474 220.458525 
L 449.043259 221.840484 
L 448.910626 223.790521 
L 448.599165 225.402494 
L 448.080919 227.11081 
L 447.543554 228.427264 
L 446.344172 230.6209 
L 445.387509 231.960661 
L 445.387509 231.960661 
" style="fill:none;stroke:#000000;stroke-linecap:square;stroke-opacity:0.7;stroke-width:1.2;"/>
   </g>
   <g id="line2d_20">
    <path clip-path="url(#p8c4f0f2911)" d="M 443.419806 197.447181 
L 444.329918 196.550929 
L 444.490671 196.191537 
L 444.05721 195.773345 
L 442.698345 195.63059 
L 438.265754 195.72719 
L 431.410207 195.859997 
L 424.726791 195.77517 
L 406.879055 195.234707 
L 405.061066 195.297892 
L 401.940329 195.664128 
L 400.10118 196.244053 
L 398.940361 197.05121 
L 398.543002 197.565792 
L 398.121445 198.614425 
L 397.96815 199.732034 
L 397.997006 201.027209 
L 398.20854 201.946574 
L 398.515677 202.315728 
L 398.755109 202.286963 
L 398.898783 202.024652 
L 398.904997 201.644216 
L 398.71515 201.039636 
L 398.206369 200.257743 
L 397.276291 199.381713 
L 396.155451 198.68062 
L 394.68402 198.073256 
L 393.024523 197.665082 
L 390.86368 197.409215 
L 389.254391 197.179312 
L 388.92029 196.962604 
L 388.860982 196.668317 
L 389.009316 196.33391 
L 389.503754 195.776921 
L 390.40646 195.061063 
L 392.237445 193.939998 
L 394.89504 192.650163 
L 398.049333 191.416144 
L 401.607503 190.302344 
L 404.235737 189.640987 
L 408.216494 188.886438 
L 411.904425 188.464555 
L 415.328493 188.350871 
L 418.111895 188.514337 
L 420.462584 188.913544 
L 421.986052 189.379371 
L 423.179515 189.958227 
L 423.854538 190.470113 
L 424.274512 191.0221 
L 424.441682 191.215236 
L 425.302725 190.942357 
L 426.761769 190.74789 
L 428.839395 190.713734 
L 430.700469 190.844435 
L 433.364372 191.270604 
L 435.293758 191.775657 
L 437.290822 192.530659 
L 438.913641 193.412508 
L 439.589782 193.89753 
L 440.842444 195.181041 
L 441.402313 196.218319 
L 441.589291 196.929714 
L 441.629124 197.622853 
L 441.547886 198.248168 
L 441.234808 199.144419 
L 440.898399 199.726402 
L 440.375091 200.378714 
L 439.800824 200.908728 
L 439.800824 200.908728 
" style="fill:none;stroke:#000000;stroke-linecap:square;stroke-opacity:0.7;stroke-width:1.2;"/>
   </g>
   <g id="line2d_21">
    <path clip-path="url(#p8c4f0f2911)" d="M 442.740477 163.362504 
L 443.40081 162.954117 
L 443.428946 162.691715 
L 443.021407 162.511333 
L 442.090067 162.377912 
L 439.610143 162.286291 
L 431.490114 162.321878 
L 423.871146 162.220255 
L 418.177239 161.957503 
L 412.195561 161.507974 
L 397.011079 160.147235 
L 393.548508 160.1044 
L 391.203562 160.315584 
L 389.652016 160.674909 
L 387.655045 161.749241 
L 386.907535 162.626639 
L 386.546995 163.366714 
L 386.349401 164.135184 
L 386.301637 164.788645 
L 386.575145 166.127648 
L 386.822293 166.583915 
L 387.804091 167.510403 
L 388.75226 167.917834 
L 401.183951 164.24499 
L 398.925856 161.421144 
L 392.890168 160.797815 
L 390.772913 160.320103 
L 390.160826 159.916914 
L 390.252942 159.795653 
L 391.811568 159.581623 
L 395.355201 159.799849 
L 398.982021 160.32021 
L 405.453598 161.767989 
L 408.334989 162.700037 
L 409.527264 163.302311 
L 409.070354 163.161398 
L 406.459754 161.269943 
L 405.153285 159.248225 
L 404.841128 156.732175 
L 405.07434 155.767639 
L 406.78702 153.145908 
L 407.181893 152.770762 
L 409.135701 151.344459 
L 412.299032 149.851772 
L 414.97003 149.035233 
L 419.484497 148.265581 
L 421.398415 148.127478 
L 427.983202 148.413337 
L 431.720856 149.116754 
L 435.340382 150.249504 
L 438.521686 151.742805 
L 439.965868 152.642764 
L 441.530825 153.854734 
L 442.825278 155.144412 
L 443.620986 156.15352 
L 444.478169 157.596632 
L 444.891582 158.573643 
L 445.30424 160.171536 
L 445.410963 161.610276 
L 445.395178 162.034945 
L 444.950759 164.235173 
L 444.438263 165.395022 
L 444.14124 165.897842 
L 442.917575 167.349761 
L 442.917575 167.349761 
" style="fill:none;stroke:#000000;stroke-linecap:square;stroke-opacity:0.7;stroke-width:1.2;"/>
   </g>
   <g id="line2d_22">
    <path clip-path="url(#p8c4f0f2911)" d="M 441.791393 130.809755 
L 441.861019 130.792409 
L 440.787777 130.957675 
L 435.966889 131.644603 
L 430.343721 132.222786 
L 424.517768 132.590327 
L 419.126982 132.727353 
L 413.426089 132.659527 
L 407.24878 132.331254 
L 402.177622 131.850969 
L 396.994555 131.142965 
L 391.261498 130.060821 
L 388.117866 129.30411 
L 383.176661 127.950637 
L 383.10264 128.192693 
L 383.927061 130.537545 
L 384.460116 132.439281 
L 384.63459 132.581454 
L 386.664325 132.382202 
L 388.928382 131.71909 
L 396.610814 130.77485 
L 396.50295 131.018877 
L 395.783415 131.35537 
L 395.037654 131.534179 
L 392.541932 131.716974 
L 391.383406 131.656237 
L 389.58474 131.395378 
L 387.949238 130.925235 
L 387.250392 130.548371 
L 387.112195 130.314542 
L 387.883911 130.129963 
L 389.522824 130.407873 
L 390.008363 130.543207 
L 393.056192 131.780431 
L 392.968418 130.393715 
L 393.975861 127.517911 
L 394.727355 126.397222 
L 417.902146 115.593218 
L 419.710457 115.375513 
L 424.828586 115.10514 
L 433.994891 116.067879 
L 437.704084 117.175712 
L 438.885722 117.658724 
L 442.185888 119.520281 
L 443.789957 120.876885 
L 445.0073 122.332634 
L 445.805095 123.774296 
L 446.291579 125.418119 
L 446.381622 126.581097 
L 446.278014 127.641511 
L 445.973473 128.722077 
L 445.62879 129.464041 
L 444.927584 130.476083 
L 444.055079 131.307296 
L 444.055079 131.307296 
" style="fill:none;stroke:#000000;stroke-linecap:square;stroke-opacity:0.7;stroke-width:1.2;"/>
   </g>
   <g id="line2d_23">
    <path clip-path="url(#p8c4f0f2911)" d="M 442.992593 96.256314 
L 443.636749 96.52082 
L 443.592139 96.743471 
L 443.164367 96.969483 
L 442.036138 97.255018 
L 439.60116 97.552092 
L 436.450621 97.67904 
L 432.505338 97.598698 
L 427.752437 97.240348 
L 422.544959 96.568915 
L 418.830048 95.9215 
L 413.186872 94.661952 
L 408.677028 93.397034 
L 405.73601 92.603455 
L 405.456481 92.755877 
L 405.407005 93.192422 
L 405.298961 94.141808 
L 405.062521 94.704069 
L 404.452347 95.441805 
L 403.760141 95.936272 
L 402.350156 96.530433 
L 401.133442 96.811837 
L 399.458344 96.988259 
L 397.155563 96.953567 
L 394.588838 96.628865 
L 391.775701 95.960515 
L 391.122028 95.74441 
L 391.684634 96.005622 
L 393.180652 96.834924 
L 394.720411 97.911607 
L 395.957507 99.066809 
L 396.270294 99.238685 
L 396.565245 98.648878 
L 397.066401 97.842925 
L 397.873705 96.905686 
L 398.885439 96.034179 
L 399.955999 95.359287 
L 400.746507 95.030565 
L 401.234189 95.00206 
L 401.176145 95.175751 
L 400.678753 95.466985 
L 399.901065 95.716382 
L 398.982672 95.87045 
L 397.55017 95.895063 
L 395.577013 95.536889 
L 394.77441 95.246229 
L 393.054227 94.2036 
L 392.057958 93.039281 
L 391.669295 92.103855 
L 391.709975 90.305838 
L 394.087944 87.178757 
L 396.147972 85.854392 
L 401.541026 83.768763 
L 404.309449 83.108809 
L 407.743577 82.544155 
L 409.887173 82.310733 
L 412.855326 82.120826 
L 416.206239 82.078464 
L 419.373997 82.199145 
L 424.790006 82.770345 
L 428.555853 83.461436 
L 430.988079 84.055868 
L 434.759195 85.259967 
L 437.793433 86.561291 
L 439.770242 87.644007 
L 441.207813 88.607381 
L 442.903971 90.058645 
L 443.51984 90.728082 
L 444.548354 92.208232 
L 444.928971 93.017761 
L 445.259428 94.173761 
L 445.295525 95.84995 
L 444.942044 97.147416 
L 444.352405 98.227965 
L 443.622558 99.106212 
L 442.916026 99.731022 
L 442.916026 99.731022 
" style="fill:none;stroke:#000000;stroke-linecap:square;stroke-opacity:0.7;stroke-width:1.2;"/>
   </g>
   <g id="line2d_24">
    <path clip-path="url(#p8c4f0f2911)" d="M 442.679852 63.083983 
L 442.561683 63.231134 
L 441.93027 63.469226 
L 440.324227 63.797645 
L 437.520536 64.126432 
L 434.363469 64.322014 
L 429.986498 64.399308 
L 425.50857 64.299997 
L 419.358721 63.912152 
L 415.12665 63.481965 
L 409.037004 62.605269 
L 404.535062 61.701108 
L 401.722712 60.947243 
L 399.833165 60.221285 
L 399.405723 59.833462 
L 399.468418 59.770274 
L 400.672166 59.833305 
L 402.041624 60.234013 
L 404.551838 62.11025 
L 404.554442 62.456895 
L 404.210134 62.960592 
L 403.865362 63.184529 
L 402.288432 63.648122 
L 400.242523 63.798209 
L 397.611153 63.658776 
L 394.659767 63.201559 
L 392.883838 62.784382 
L 390.5144 62.006253 
L 389.446544 61.443101 
L 389.451601 61.200376 
L 391.157332 61.602479 
L 392.75567 62.337048 
L 394.125558 63.205495 
L 395.31435 64.348069 
L 395.55736 65.101857 
L 394.743524 65.448499 
L 392.613062 65.552582 
L 390.354905 66.241271 
L 389.114772 67.30972 
L 388.888955 67.669857 
L 388.86635 69.693298 
L 389.254765 70.119774 
L 389.872231 70.449824 
L 390.983531 70.604292 
L 395.149462 69.159518 
L 399.620303 66.201917 
L 408.403725 59.668534 
L 432.590978 45.896572 
L 436.016931 44.968415 
L 440.657218 44.56057 
L 443.345689 45.062354 
L 444.591991 45.614307 
L 448.009291 50.056159 
L 448.364226 51.685075 
L 448.477276 52.958109 
L 448.398074 55.091023 
L 448.115623 56.772834 
L 447.531549 58.739066 
L 446.760219 60.463624 
L 445.894612 61.884926 
L 445.295173 62.677113 
L 445.295173 62.677113 
" style="fill:none;stroke:#000000;stroke-linecap:square;stroke-opacity:0.7;stroke-width:1.2;"/>
   </g>
   <g id="line2d_25">
    <path clip-path="url(#p8c4f0f2911)" d="M 554.971453 231.229316 
L 555.217646 231.323988 
L 555.239288 231.46595 
L 554.712534 231.678019 
L 553.200287 231.939992 
L 550.671927 232.166251 
L 546.813011 232.29468 
L 541.868982 232.212036 
L 538.008729 231.991077 
L 531.443392 231.331212 
L 526.277962 230.566117 
L 521.138778 229.579619 
L 516.457564 228.467273 
L 513.52765 227.799769 
L 513.44183 227.980292 
L 514.073657 229.360212 
L 514.115622 230.281411 
L 513.887844 230.866043 
L 513.474369 231.365241 
L 513.092491 231.662608 
L 511.807197 232.2435 
L 510.231702 232.542517 
L 509.113947 232.587052 
L 507.710272 232.47825 
L 505.861912 232.021867 
L 504.876214 231.52741 
L 504.445101 231.135847 
L 504.276556 230.745555 
L 504.316915 230.504017 
L 504.950335 230.008588 
L 505.935405 229.790459 
L 506.557611 229.752464 
L 508.560057 229.916008 
L 510.618841 230.445195 
L 511.879796 230.983569 
L 513.208553 231.946295 
L 513.499253 232.450574 
L 513.486622 232.767566 
L 513.126454 233.074233 
L 512.603669 233.130177 
L 511.803038 232.903898 
L 511.227182 232.460951 
L 510.980771 231.968041 
L 510.973362 231.727853 
L 511.304217 231.189915 
L 511.854356 230.961586 
L 512.52422 230.982493 
L 513.057818 231.232672 
L 513.360114 231.633094 
L 513.398484 232.014506 
L 513.173204 232.494954 
L 512.628687 232.92369 
L 512.246165 233.083242 
L 511.21329 233.220635 
L 509.173414 232.37224 
L 508.85114 232.013239 
L 508.187258 230.148151 
L 508.22816 229.220898 
L 508.394644 228.452871 
L 508.964632 227.056399 
L 510.007095 225.453458 
L 512.829646 222.635299 
L 515.82951 220.551467 
L 520.014621 218.407575 
L 522.827142 217.302423 
L 527.070532 216.027894 
L 530.777501 215.25023 
L 532.871139 214.940153 
L 537.323963 214.58792 
L 542.209503 214.711339 
L 544.65408 215.000986 
L 547.065357 215.464175 
L 550.924318 216.674824 
L 553.058664 217.691132 
L 554.950823 218.915346 
L 555.95727 219.754779 
L 557.398521 221.349292 
L 558.23621 222.683982 
L 558.831605 224.100389 
L 559.251501 226.224726 
L 559.172836 228.372061 
L 558.827958 229.897261 
L 558.199962 231.496928 
L 557.523743 232.706348 
L 556.65775 233.892772 
L 556.65775 233.892772 
" style="fill:none;stroke:#000000;stroke-linecap:square;stroke-opacity:0.7;stroke-width:1.2;"/>
   </g>
   <g id="line2d_26">
    <path clip-path="url(#p8c4f0f2911)" d="M 555.486253 196.271538 
L 555.757808 196.704515 
L 555.802603 197.178402 
L 555.53564 197.692736 
L 555.079066 198.090646 
L 554.247328 198.542261 
L 552.891377 199.020394 
L 550.599527 199.524132 
L 547.51881 199.895641 
L 544.564339 200.046081 
L 541.198038 200.035435 
L 537.209844 199.814399 
L 532.457726 199.287545 
L 528.117092 198.565468 
L 522.893607 197.377811 
L 519.581199 196.420504 
L 515.530783 194.976832 
L 512.468288 193.595007 
L 510.390246 192.47293 
L 510.423691 192.606178 
L 510.614298 193.448326 
L 510.513689 194.404049 
L 510.113919 195.248744 
L 509.548076 195.912073 
L 508.672487 196.576435 
L 507.385434 197.20574 
L 505.6419 197.727417 
L 503.71352 198.059701 
L 500.708415 198.298521 
L 492.602732 198.549294 
L 492.26485 198.874622 
L 492.485651 199.043436 
L 493.540753 199.48373 
L 496.135716 200.235157 
L 499.909262 201.12263 
L 504.064804 205.786447 
L 502.205233 206.26503 
L 500.056119 206.964157 
L 498.636539 207.704277 
L 498.22814 208.200599 
L 498.199212 208.453881 
L 501.314239 209.958795 
L 501.954086 210.057802 
L 503.884345 210.190974 
L 510.606744 208.88611 
L 513.310139 207.705453 
L 529.503857 197.731104 
L 535.029768 194.173876 
L 544.331862 188.692841 
L 548.351856 186.686638 
L 553.442134 184.748373 
L 558.650524 184.414899 
L 560.189833 185.347824 
L 561.394166 188.456814 
L 561.377071 190.766854 
L 561.061706 192.856409 
L 560.451705 195.192982 
L 559.55267 197.6093 
L 558.490503 199.797055 
L 557.854956 200.903235 
L 557.854956 200.903235 
" style="fill:none;stroke:#000000;stroke-linecap:square;stroke-opacity:0.7;stroke-width:1.2;"/>
   </g>
   <g id="line2d_27">
    <path clip-path="url(#p8c4f0f2911)" d="M 555.599795 162.702739 
L 555.862836 162.7098 
L 555.50394 162.799693 
L 553.246699 163.037991 
L 548.066703 163.348157 
L 542.488262 163.441255 
L 537.250628 163.316262 
L 530.607451 162.864612 
L 525.740323 162.329846 
L 519.427007 161.396533 
L 506.106736 159.173377 
L 504.779988 159.306007 
L 504.175587 159.595375 
L 503.721627 160.145663 
L 503.460684 160.942708 
L 503.251427 162.657405 
L 502.949574 166.599876 
L 503.15252 166.918148 
L 503.460329 166.876399 
L 503.824022 166.669852 
L 505.111109 165.634472 
L 507.460082 163.595081 
L 507.36159 163.59326 
L 505.176719 164.140341 
L 502.988499 164.370867 
L 500.501734 164.565718 
L 500.025161 164.664683 
L 499.228839 165.050524 
L 499.049017 165.265359 
L 498.902715 165.832402 
L 498.96941 166.30505 
L 499.418977 167.363127 
L 500.497505 168.940574 
L 501.259154 169.834857 
L 502.679925 171.206626 
L 504.794157 172.561062 
L 505.351702 172.785084 
L 506.880158 173.147957 
L 510.277668 172.875387 
L 511.006424 172.661348 
L 512.844575 171.936493 
L 516.633276 169.855181 
L 521.763406 166.415316 
L 532.321714 158.992569 
L 537.654314 155.505432 
L 540.350118 153.871621 
L 543.869 151.913208 
L 547.587546 150.125273 
L 550.244927 149.090368 
L 552.428873 148.451376 
L 554.335755 148.111831 
L 556.575404 148.10855 
L 558.188367 148.552254 
L 559.196498 149.181145 
L 559.940133 149.978115 
L 560.395868 150.739918 
L 560.799347 151.808581 
L 561.101752 153.546508 
L 561.137747 154.906703 
L 560.879987 157.420623 
L 560.501238 159.156421 
L 559.397073 162.391887 
L 558.561387 164.172802 
L 557.396278 166.190458 
L 557.396278 166.190458 
" style="fill:none;stroke:#000000;stroke-linecap:square;stroke-opacity:0.7;stroke-width:1.2;"/>
   </g>
   <g id="line2d_28">
    <path clip-path="url(#p8c4f0f2911)" d="M 555.537223 129.398273 
L 555.606742 129.622154 
L 555.442392 130.112295 
L 554.858811 130.613836 
L 553.707608 131.190864 
L 551.575527 131.911123 
L 549.058931 132.536157 
L 545.240474 133.244609 
L 541.941349 133.696651 
L 536.527058 134.180208 
L 531.700879 134.363349 
L 527.435617 134.33447 
L 522.76304 134.093271 
L 517.892656 133.597645 
L 513.934982 132.997431 
L 509.460307 132.079432 
L 504.564799 130.718539 
L 501.236288 129.500361 
L 500.301556 129.221043 
L 500.433465 129.542385 
L 501.704032 131.672997 
L 502.123251 131.749795 
L 502.626315 131.52907 
L 503.457585 130.838819 
L 505.047011 129.384253 
L 504.930585 129.568996 
L 504.385607 130.03526 
L 503.758373 130.286822 
L 503.343804 130.128386 
L 503.20692 129.73558 
L 503.323121 128.943251 
L 503.599206 128.298092 
L 504.028158 127.640955 
L 503.867806 127.742246 
L 502.880847 128.208754 
L 502.11546 128.39511 
L 501.567278 128.445083 
L 500.570547 128.346486 
L 499.717847 128.024923 
L 498.814229 127.290317 
L 498.557739 126.930742 
L 499.228085 122.685297 
L 501.044457 121.0149 
L 501.919864 120.441743 
L 506.474826 118.455651 
L 509.438064 117.666807 
L 511.173639 117.322867 
L 516.76283 116.66061 
L 519.256696 116.545764 
L 522.73499 116.544251 
L 528.462781 116.910141 
L 533.661153 117.622694 
L 536.31893 118.13023 
L 540.334422 119.0967 
L 546.1754 121.012974 
L 551.129385 123.323927 
L 553.714326 124.977962 
L 555.052087 126.074304 
L 556.238508 127.341552 
L 556.996872 128.55272 
L 557.288106 129.429355 
L 557.318183 130.262066 
L 557.095076 130.951882 
L 556.692118 131.471468 
L 556.012649 131.919973 
L 555.241727 132.163282 
L 555.056556 132.195154 
L 555.056556 132.195154 
" style="fill:none;stroke:#000000;stroke-linecap:square;stroke-opacity:0.7;stroke-width:1.2;"/>
   </g>
   <g id="line2d_29">
    <path clip-path="url(#p8c4f0f2911)" d="M 556.096438 94.544758 
L 557.455348 94.12555 
L 557.838874 93.889411 
L 557.740742 93.83904 
L 557.281203 93.806111 
L 554.420651 93.960371 
L 544.790512 94.556872 
L 524.650632 95.495858 
L 518.832983 96.023956 
L 513.875697 96.662356 
L 509.739621 97.406492 
L 506.973606 98.099812 
L 504.706395 98.943333 
L 503.988663 99.352701 
L 503.447931 99.833333 
L 503.226636 100.39523 
L 503.42913 100.915755 
L 503.985094 101.393622 
L 505.318612 102.019347 
L 507.303373 102.600489 
L 509.863442 103.113409 
L 513.653017 103.610549 
L 516.678333 103.766712 
L 517.278027 103.696985 
L 517.369676 103.584939 
L 516.98071 103.379426 
L 515.286856 102.945799 
L 511.547999 102.285429 
L 505.31512 101.461744 
L 494.910026 100.373491 
L 494.960491 100.105082 
L 495.900055 99.587946 
L 500.625351 97.173316 
L 504.924194 94.737279 
L 511.519613 90.740606 
L 518.703459 86.112696 
L 519.935218 85.140752 
L 520.035866 84.934169 
L 519.981168 84.873588 
L 519.732525 84.836458 
L 514.713067 85.272593 
L 514.872998 85.302552 
L 519.235874 86.078427 
L 526.391177 87.744683 
L 529.827107 88.683581 
L 536.084926 90.624084 
L 540.093504 92.045247 
L 545.073131 94.068049 
L 548.814007 95.873895 
L 551.715517 97.607774 
L 552.719514 98.359181 
L 553.779924 99.407263 
L 554.168921 100.078497 
L 554.202299 100.683458 
L 553.872429 101.122673 
L 553.291303 101.400611 
L 552.674926 101.534688 
L 551.786955 101.600334 
L 551.786955 101.600334 
" style="fill:none;stroke:#000000;stroke-linecap:square;stroke-opacity:0.7;stroke-width:1.2;"/>
   </g>
   <g id="line2d_30">
    <path clip-path="url(#p8c4f0f2911)" d="M 554.999108 61.580899 
L 555.053899 61.930713 
L 554.858268 62.611097 
L 554.11884 63.405093 
L 553.366265 63.906685 
L 551.925496 64.613922 
L 549.637964 65.446092 
L 546.963472 66.194748 
L 543.221527 66.999041 
L 539.466398 67.594322 
L 534.81042 68.077774 
L 530.464964 68.285966 
L 526.315865 68.267405 
L 521.99136 68.022216 
L 518.748223 67.687466 
L 514.401441 67.036874 
L 509.743889 66.082285 
L 504.769483 64.760987 
L 500.529584 63.368885 
L 496.927539 61.957776 
L 494.29472 60.745216 
L 495.272303 61.32798 
L 498.164674 62.917203 
L 500.063909 63.722162 
L 501.904258 64.245849 
L 503.140478 64.402003 
L 503.922121 64.282031 
L 503.927652 64.2149 
L 503.632131 64.092008 
L 502.829092 64.075517 
L 501.795742 64.338785 
L 501.332603 64.637595 
L 501.207526 64.791469 
L 501.136743 65.075319 
L 501.285531 65.34765 
L 501.798764 65.595655 
L 503.732755 65.418187 
L 504.974721 64.820886 
L 506.277451 63.721037 
L 507.010681 62.693308 
L 507.415046 61.693545 
L 507.525543 60.575844 
L 507.458417 60.137447 
L 506.960587 59.090082 
L 506.341852 58.482843 
L 505.090006 57.824871 
L 502.689356 57.311713 
L 498.405461 56.859866 
L 496.95437 56.460218 
L 495.284032 55.167608 
L 495.188504 53.987389 
L 495.566747 53.323674 
L 496.854039 52.30408 
L 498.700671 51.523025 
L 500.270974 51.100542 
L 505.779994 50.428019 
L 509.478129 50.3861 
L 514.004935 50.623606 
L 520.01466 51.316896 
L 527.499395 52.675798 
L 532.525747 53.869229 
L 539.782535 55.997864 
L 548.04383 59.133761 
L 551.61639 60.857669 
L 554.022493 62.278282 
L 555.567239 63.475304 
L 556.216318 64.274497 
L 556.318667 64.767461 
L 556.159882 65.018975 
L 555.672508 65.203775 
L 554.803925 65.198355 
L 554.115148 65.076841 
L 554.115148 65.076841 
" style="fill:none;stroke:#000000;stroke-linecap:square;stroke-opacity:0.7;stroke-width:1.2;"/>
   </g>
   <g id="line2d_31">
    <path clip-path="url(#p8c4f0f2911)" d="M 668.018386 231.444152 
L 667.98437 232.087259 
L 667.46844 232.899097 
L 666.732295 233.480273 
L 665.610146 234.065715 
L 663.753541 234.716004 
L 660.902577 235.348694 
L 657.946064 235.739147 
L 655.52506 235.919835 
L 650.739318 235.992994 
L 647.633541 235.866713 
L 643.840114 235.539795 
L 640.38445 235.074556 
L 637.13703 234.479619 
L 632.962511 233.447465 
L 629.443221 232.258838 
L 627.197125 231.256304 
L 625.723139 230.411442 
L 624.258061 229.224953 
L 623.6493 228.306537 
L 623.565894 227.752558 
L 623.596954 227.587614 
L 623.903394 227.115884 
L 624.605829 226.762425 
L 625.598728 226.669652 
L 626.500247 226.832826 
L 627.261352 227.19626 
L 627.7929 227.781976 
L 627.902963 228.256805 
L 627.797576 228.721985 
L 627.27108 229.41272 
L 626.580451 229.918093 
L 625.525022 230.443012 
L 623.966333 230.976971 
L 621.905485 231.457946 
L 619.23336 231.870667 
L 615.41739 232.231671 
L 604.458187 233.039713 
L 603.707494 233.323888 
L 603.56167 233.571098 
L 603.580916 233.657369 
L 604.278062 234.229442 
L 605.75841 234.869512 
L 609.15703 235.959775 
L 614.159935 237.26858 
L 619.704632 238.466075 
L 622.02091 238.933705 
L 621.739219 238.959132 
L 616.726608 239.06192 
L 613.961108 239.307154 
L 612.79891 239.488896 
L 611.193568 239.938149 
L 611.569851 241.037087 
L 612.601726 241.185883 
L 613.421417 241.19912 
L 615.544972 240.927179 
L 616.978955 240.532343 
L 619.356267 239.570448 
L 621.556552 238.419774 
L 624.347271 236.73078 
L 637.932763 227.707783 
L 644.593603 223.670306 
L 649.290555 221.146202 
L 652.585216 219.580137 
L 657.643716 217.599917 
L 661.243473 216.612894 
L 664.268738 216.17977 
L 667.401628 216.32992 
L 669.214686 216.882438 
L 669.874745 217.221073 
L 670.705749 217.803465 
L 671.790834 218.978801 
L 672.369123 219.960914 
L 672.919958 221.465312 
L 673.17943 222.812852 
L 673.275979 224.329562 
L 673.143367 226.320004 
L 672.714057 228.397514 
L 671.966075 230.474612 
L 670.999489 232.274433 
L 669.909583 233.742231 
L 669.909583 233.742231 
" style="fill:none;stroke:#000000;stroke-linecap:square;stroke-opacity:0.7;stroke-width:1.2;"/>
   </g>
   <g id="line2d_32">
    <path clip-path="url(#p8c4f0f2911)" d="M 667.258277 198.565639 
L 667.5381 198.287927 
L 667.50278 198.045848 
L 667.106065 197.900353 
L 665.591245 197.752931 
L 650.577199 197.018034 
L 643.987278 196.342006 
L 639.435923 195.696198 
L 635.031237 194.872958 
L 631.862718 194.051347 
L 631.638117 193.980424 
L 631.850962 194.116228 
L 632.382765 194.58992 
L 632.648197 195.12272 
L 632.65277 195.454514 
L 632.458412 195.897011 
L 631.969911 196.362238 
L 631.131587 196.814491 
L 629.853677 197.237114 
L 628.323013 197.553036 
L 625.451287 197.860054 
L 622.29433 197.949856 
L 617.639216 197.806726 
L 612.461948 197.573975 
L 612.223483 197.691964 
L 612.412963 197.901898 
L 613.726328 198.584182 
L 617.389064 200.411471 
L 618.633929 201.247363 
L 618.988179 201.758935 
L 618.902441 201.885193 
L 618.420476 202.00382 
L 616.229316 202.23557 
L 615.555508 202.534893 
L 615.004179 203.082016 
L 614.837755 203.410309 
L 614.711428 203.910047 
L 614.766612 204.990608 
L 615.226316 206.252367 
L 615.920521 207.306432 
L 616.836839 208.220018 
L 617.744897 208.836342 
L 619.016408 209.384702 
L 619.833162 209.589702 
L 620.774658 209.707858 
L 622.383965 209.656039 
L 624.842979 209.055843 
L 626.05217 208.569961 
L 628.360122 207.374896 
L 631.39217 205.429232 
L 636.426244 201.710318 
L 647.16367 193.433219 
L 652.065964 189.904288 
L 654.835125 188.050043 
L 659.62029 185.182091 
L 663.303702 183.389033 
L 664.705791 182.842662 
L 666.301211 182.345522 
L 667.594104 182.067543 
L 668.907761 181.938802 
L 670.558269 182.099721 
L 671.402123 182.397677 
L 672.088528 182.814929 
L 672.778251 183.494338 
L 673.452378 184.676107 
L 673.844473 186.103014 
L 673.979345 187.643178 
L 673.918663 189.111825 
L 673.555147 191.332469 
L 673.002225 193.266086 
L 672.275282 195.101135 
L 670.999506 197.499373 
L 670.257028 198.621552 
L 670.257028 198.621552 
" style="fill:none;stroke:#000000;stroke-linecap:square;stroke-opacity:0.7;stroke-width:1.2;"/>
   </g>
   <g id="line2d_33">
    <path clip-path="url(#p8c4f0f2911)" d="M 666.772654 165.139907 
L 666.336212 165.431485 
L 665.283666 165.835617 
L 663.157805 166.392766 
L 659.982078 167.001612 
L 659.063833 167.149166 
L 650.986249 168.108113 
L 644.760431 168.541546 
L 638.259985 168.762582 
L 636.170044 168.785503 
L 626.465709 168.573962 
L 618.074655 167.901573 
L 613.229676 167.227874 
L 607.076849 165.820624 
L 604.149607 164.382126 
L 604.076331 163.80982 
L 604.351951 163.633635 
L 605.183174 163.480903 
L 606.591218 163.574025 
L 608.079227 163.947789 
L 608.785315 164.226563 
L 610.186955 165.084801 
L 610.639578 165.540707 
L 611.093889 166.598543 
L 610.942256 167.137322 
L 610.805738 167.293042 
L 610.005975 167.498125 
L 609.67977 167.343834 
L 609.512991 166.932239 
L 610.103367 166.381402 
L 610.915901 166.229151 
L 611.217529 166.227872 
L 612.377925 166.413542 
L 613.16866 166.697375 
L 614.322101 167.376576 
L 615.262034 168.328181 
L 615.772943 169.496371 
L 615.77842 169.882062 
L 615.660159 170.241956 
L 615.187855 170.609884 
L 610.525938 172.310834 
L 619.62347 174.131998 
L 624.379024 172.292946 
L 634.389618 166.00989 
L 662.742474 148.486263 
L 663.932083 148.069977 
L 667.939111 147.232422 
L 669.448902 147.267172 
L 671.501099 147.91102 
L 674.15966 155.480869 
L 673.7727 157.797317 
L 673.151193 159.815615 
L 672.254081 161.790789 
L 671.253412 163.419095 
L 671.071816 163.673356 
L 671.071816 163.673356 
" style="fill:none;stroke:#000000;stroke-linecap:square;stroke-opacity:0.7;stroke-width:1.2;"/>
   </g>
   <g id="line2d_34">
    <path clip-path="url(#p8c4f0f2911)" d="M 667.321017 130.743909 
L 667.144304 131.185827 
L 666.672979 131.652062 
L 665.82149 132.152496 
L 664.411844 132.707609 
L 662.521402 133.237813 
L 660.004856 133.754076 
L 657.273173 134.166936 
L 652.149915 134.670254 
L 647.32924 134.904922 
L 643.504471 134.954004 
L 637.680865 134.813652 
L 631.242791 134.354042 
L 624.528053 133.486735 
L 620.159514 132.643478 
L 616.63242 131.716469 
L 614.088743 130.802064 
L 613.038602 130.299494 
L 612.368019 128.382731 
L 612.597973 128.355482 
L 613.946208 128.471886 
L 614.457008 128.614457 
L 615.204452 128.939593 
L 615.832349 129.403845 
L 616.234597 130.299184 
L 615.821402 131.12461 
L 615.723493 131.216205 
L 614.863672 131.750883 
L 613.347794 132.232212 
L 611.775327 132.455823 
L 609.95305 132.493464 
L 608.003916 132.315085 
L 617.084963 133.180721 
L 617.183022 134.321922 
L 616.586474 134.806283 
L 612.852249 137.175925 
L 610.945971 139.237298 
L 610.156915 141.339545 
L 611.648009 145.338598 
L 612.610797 146.235452 
L 613.859402 147.123078 
L 617.751088 148.98345 
L 621.57479 150.134966 
L 623.907875 150.616387 
L 626.775427 150.98607 
L 631.281131 150.978773 
L 634.309314 150.468423 
L 639.219998 148.637429 
L 641.97207 147.082597 
L 643.476992 146.090194 
L 653.561524 137.540831 
L 659.757377 131.274856 
L 665.884487 124.791694 
L 671.515279 119.080131 
L 674.469297 116.929329 
L 675.304055 117.135493 
L 675.488974 118.229752 
L 675.445057 118.79426 
L 674.829206 121.664386 
L 673.938639 124.407901 
L 672.983033 126.819317 
L 671.665958 129.654024 
L 671.665958 129.654024 
" style="fill:none;stroke:#000000;stroke-linecap:square;stroke-opacity:0.7;stroke-width:1.2;"/>
   </g>
   <g id="line2d_35">
    <path clip-path="url(#p8c4f0f2911)" d="M 668.593185 95.710918 
L 668.791433 95.917205 
L 668.51 96.090754 
L 667.494597 96.379635 
L 665.196381 96.791611 
L 660.778082 97.328343 
L 655.555261 97.74179 
L 650.019121 97.978714 
L 644.40601 98.023628 
L 638.522878 97.86805 
L 635.728176 97.724848 
L 626.004486 96.935078 
L 619.76533 96.420711 
L 618.038592 96.533018 
L 617.505355 96.757605 
L 617.20146 97.178176 
L 617.142009 97.546202 
L 617.473959 100.460849 
L 617.747521 100.976665 
L 618.146421 101.135702 
L 618.657586 101.029406 
L 619.87357 100.14976 
L 620.495643 99.433899 
L 621.348729 97.995063 
L 621.671193 96.897064 
L 621.685712 96.322084 
L 620.021251 94.790472 
L 618.001055 94.651119 
L 613.159884 94.739966 
L 610.729179 94.734074 
L 611.081155 95.069007 
L 615.787242 97.589255 
L 617.431705 98.713261 
L 618.437436 99.653747 
L 618.569326 99.999534 
L 618.067405 99.640764 
L 617.664343 98.990769 
L 617.334175 97.968954 
L 617.259962 97.441926 
L 617.484117 95.227485 
L 617.94237 93.9784 
L 619.402421 91.64236 
L 620.643951 90.265715 
L 622.623249 88.558833 
L 628.546473 85.139018 
L 630.851745 84.209103 
L 637.393359 82.369778 
L 643.246352 81.540696 
L 647.413443 81.37768 
L 650.123964 81.465933 
L 652.260828 81.650327 
L 655.201639 82.085291 
L 657.275786 82.534043 
L 659.178416 83.065494 
L 662.534268 84.351426 
L 664.96735 85.666801 
L 666.647952 86.864502 
L 667.755798 87.854228 
L 669.056315 89.358346 
L 669.851228 90.621591 
L 670.323152 91.647886 
L 670.776398 93.251567 
L 670.90119 94.643535 
L 670.884627 95.144948 
L 670.620741 96.665322 
L 670.145024 97.873279 
L 669.561091 98.805561 
L 668.843713 99.592662 
L 668.557032 99.836644 
L 668.557032 99.836644 
" style="fill:none;stroke:#000000;stroke-linecap:square;stroke-opacity:0.7;stroke-width:1.2;"/>
   </g>
   <g id="line2d_36">
    <path clip-path="url(#p8c4f0f2911)" d="M 667.744381 62.323925 
L 668.047026 62.447834 
L 667.459921 62.651296 
L 665.236018 63.029395 
L 661.353905 63.359272 
L 656.675703 63.482441 
L 652.175848 63.399689 
L 646.948467 63.092543 
L 641.394279 62.527925 
L 636.20368 61.76324 
L 631.510957 60.833252 
L 628.093968 59.957348 
L 624.796028 58.890644 
L 624.894674 59.07873 
L 625.11885 59.678091 
L 625.071051 60.369775 
L 624.796081 60.910194 
L 624.118757 61.577181 
L 623.193928 62.119808 
L 622.013459 62.567913 
L 620.169674 62.980643 
L 617.893989 63.192441 
L 615.139621 63.138189 
L 612.663159 62.83983 
L 610.506511 62.353291 
L 609.340041 61.867704 
L 609.26265 61.723331 
L 609.293471 61.691067 
L 609.701876 61.631861 
L 610.655799 61.734563 
L 612.470049 62.151035 
L 614.721157 62.911082 
L 616.502109 63.750193 
L 617.430757 64.416656 
L 617.640073 64.754695 
L 617.613928 64.901774 
L 616.701802 65.152671 
L 614.607506 65.30866 
L 613.910097 65.611622 
L 613.767125 65.729074 
L 613.454433 66.180439 
L 613.317927 66.888721 
L 613.927472 69.143228 
L 614.716804 70.452931 
L 615.339826 71.200035 
L 616.199744 71.962458 
L 617.593633 72.722605 
L 618.375836 72.953969 
L 620.206296 73.078698 
L 621.876613 72.787605 
L 623.952071 72.023938 
L 626.187556 70.852184 
L 630.380778 68.109193 
L 642.797109 59.08548 
L 647.61054 55.804152 
L 652.11793 52.984713 
L 655.407345 51.130621 
L 659.133644 49.302003 
L 662.091734 48.122304 
L 664.747587 47.347216 
L 666.497385 47.040057 
L 667.754724 46.955948 
L 669.561885 47.119732 
L 670.226621 47.298409 
L 671.597317 47.987268 
L 672.576976 48.935169 
L 673.193773 49.956675 
L 673.664119 51.353479 
L 673.862267 52.651594 
L 673.89866 53.921961 
L 673.679049 56.102012 
L 673.182546 58.188645 
L 672.627622 59.770561 
L 671.773689 61.620353 
L 670.61833 63.550835 
L 670.302673 64.004221 
L 670.302673 64.004221 
" style="fill:none;stroke:#000000;stroke-linecap:square;stroke-opacity:0.7;stroke-width:1.2;"/>
   </g>
  </g>
 </g>
 <defs>
  <clipPath id="p8c4f0f2911">
   <rect height="262.08" width="694.08" x="12.96" y="12.96"/>
  </clipPath>
 </defs>
</svg>
