<svg viewBox="0 0 1496 400" xmlns="http://www.w3.org/2000/svg"><g><g><g><g><g><line x1="60" y1="378" x2="55" y2="378" style="visibility: inherit;" fill="rgb(0, 0, 0)" stroke="rgb(204, 204, 204)" stroke-width="1px"></line><line x1="60" y1="330.75" x2="55" y2="330.75" style="visibility: inherit;" fill="rgb(0, 0, 0)" stroke="rgb(204, 204, 204)" stroke-width="1px"></line><line x1="60" y1="283.5" x2="55" y2="283.5" style="visibility: inherit;" fill="rgb(0, 0, 0)" stroke="rgb(204, 204, 204)" stroke-width="1px"></line><line x1="60" y1="236.24999999999997" x2="55" y2="236.24999999999997" style="visibility: inherit;" fill="rgb(0, 0, 0)" stroke="rgb(204, 204, 204)" stroke-width="1px"></line><line x1="60" y1="188.99999999999997" x2="55" y2="188.99999999999997" style="visibility: inherit;" fill="rgb(0, 0, 0)" stroke="rgb(204, 204, 204)" stroke-width="1px"></line><line x1="60" y1="141.75" x2="55" y2="141.75" style="visibility: inherit;" fill="rgb(0, 0, 0)" stroke="rgb(204, 204, 204)" stroke-width="1px"></line><line x1="60" y1="94.5" x2="55" y2="94.5" style="visibility: inherit;" fill="rgb(0, 0, 0)" stroke="rgb(204, 204, 204)" stroke-width="1px"></line><line x1="60" y1="47.25" x2="55" y2="47.25" style="visibility: inherit;" fill="rgb(0, 0, 0)" stroke="rgb(204, 204, 204)" stroke-width="1px"></line><line x1="60" y1="0" x2="55" y2="0" style="visibility: inherit;" fill="rgb(0, 0, 0)" stroke="rgb(204, 204, 204)" stroke-width="1px"></line></g><g transform="translate(50, 0)"><text x="0" y="378" dx="0em" dy="0.3em" style="text-anchor: end; visibility: hidden; font-family: &quot;Helvetica Neue&quot;, sans-serif; font-size: 12px; font-weight: 200;" fill="rgb(50, 49, 63)" stroke="none" stroke-width="1px">-0.05</text><text x="0" y="330.75" dx="0em" dy="0.3em" style="text-anchor: end; visibility: inherit; font-family: &quot;Helvetica Neue&quot;, sans-serif; font-size: 12px; font-weight: 200;" fill="rgb(50, 49, 63)" stroke="none" stroke-width="1px">0</text><text x="0" y="283.5" dx="0em" dy="0.3em" style="text-anchor: end; visibility: inherit; font-family: &quot;Helvetica Neue&quot;, sans-serif; font-size: 12px; font-weight: 200;" fill="rgb(50, 49, 63)" stroke="none" stroke-width="1px">0.05</text><text x="0" y="236.24999999999997" dx="0em" dy="0.3em" style="text-anchor: end; visibility: inherit; font-family: &quot;Helvetica Neue&quot;, sans-serif; font-size: 12px; font-weight: 200;" fill="rgb(50, 49, 63)" stroke="none" stroke-width="1px">0.1</text><text x="0" y="188.99999999999997" dx="0em" dy="0.3em" style="text-anchor: end; visibility: inherit; font-family: &quot;Helvetica Neue&quot;, sans-serif; font-size: 12px; font-weight: 200;" fill="rgb(50, 49, 63)" stroke="none" stroke-width="1px">0.15</text><text x="0" y="141.75" dx="0em" dy="0.3em" style="text-anchor: end; visibility: inherit; font-family: &quot;Helvetica Neue&quot;, sans-serif; font-size: 12px; font-weight: 200;" fill="rgb(50, 49, 63)" stroke="none" stroke-width="1px">0.2</text><text x="0" y="94.5" dx="0em" dy="0.3em" style="text-anchor: end; visibility: inherit; font-family: &quot;Helvetica Neue&quot;, sans-serif; font-size: 12px; font-weight: 200;" fill="rgb(50, 49, 63)" stroke="none" stroke-width="1px">0.25</text><text x="0" y="47.25" dx="0em" dy="0.3em" style="text-anchor: end; visibility: inherit; font-family: &quot;Helvetica Neue&quot;, sans-serif; font-size: 12px; font-weight: 200;" fill="rgb(50, 49, 63)" stroke="none" stroke-width="1px">0.3</text><text x="0" y="0" dx="0em" dy="0.3em" style="text-anchor: end; visibility: hidden; font-family: &quot;Helvetica Neue&quot;, sans-serif; font-size: 12px; font-weight: 200;" fill="rgb(50, 49, 63)" stroke="none" stroke-width="1px">0.35</text></g><line x1="60" y1="0" x2="60" y2="378" fill="rgb(0, 0, 0)" stroke="rgb(204, 204, 204)" stroke-width="1px"></line></g></g><g transform="translate(60, 0)" clip-path="url(#clip_0)"><clipPath id="clip_0"><rect width="1436" height="378"></rect></clipPath><g><g><g><line x1="0" y1="0" x2="0" y2="378" fill="rgb(0, 0, 0)" stroke="rgb(60, 60, 60)" stroke-width="1px" opacity="0.25"></line><line x1="119.66666666666666" y1="0" x2="119.66666666666666" y2="378" fill="rgb(0, 0, 0)" stroke="rgb(60, 60, 60)" stroke-width="1px" opacity="0.25"></line><line x1="239.33333333333331" y1="0" x2="239.33333333333331" y2="378" fill="rgb(0, 0, 0)" stroke="rgb(60, 60, 60)" stroke-width="1px" opacity="0.25"></line><line x1="359" y1="0" x2="359" y2="378" fill="rgb(0, 0, 0)" stroke="rgb(60, 60, 60)" stroke-width="1px" opacity="0.25"></line><line x1="478.66666666666663" y1="0" x2="478.66666666666663" y2="378" fill="rgb(0, 0, 0)" stroke="rgb(60, 60, 60)" stroke-width="1px" opacity="0.25"></line><line x1="598.3333333333334" y1="0" x2="598.3333333333334" y2="378" fill="rgb(0, 0, 0)" stroke="rgb(60, 60, 60)" stroke-width="1px" opacity="0.25"></line><line x1="718" y1="0" x2="718" y2="378" fill="rgb(0, 0, 0)" stroke="rgb(60, 60, 60)" stroke-width="1px" opacity="0.25"></line><line x1="837.6666666666667" y1="0" x2="837.6666666666667" y2="378" fill="rgb(0, 0, 0)" stroke="rgb(60, 60, 60)" stroke-width="1px" opacity="0.25"></line><line x1="957.3333333333333" y1="0" x2="957.3333333333333" y2="378" fill="rgb(0, 0, 0)" stroke="rgb(60, 60, 60)" stroke-width="1px" opacity="0.25"></line><line x1="1077" y1="0" x2="1077" y2="378" fill="rgb(0, 0, 0)" stroke="rgb(60, 60, 60)" stroke-width="1px" opacity="0.25"></line><line x1="1196.6666666666667" y1="0" x2="1196.6666666666667" y2="378" fill="rgb(0, 0, 0)" stroke="rgb(60, 60, 60)" stroke-width="1px" opacity="0.25"></line><line x1="1316.3333333333333" y1="0" x2="1316.3333333333333" y2="378" fill="rgb(0, 0, 0)" stroke="rgb(60, 60, 60)" stroke-width="1px" opacity="0.25"></line><line x1="1436" y1="0" x2="1436" y2="378" fill="rgb(0, 0, 0)" stroke="rgb(60, 60, 60)" stroke-width="1px" opacity="0.25"></line></g><g><line x1="0" y1="378" x2="1436" y2="378" fill="rgb(0, 0, 0)" stroke="rgb(60, 60, 60)" stroke-width="1px" opacity="0.25"></line><line x1="0" y1="330.75" x2="1436" y2="330.75" fill="rgb(0, 0, 0)" stroke="rgb(60, 60, 60)" stroke-width="1px" opacity="0.25"></line><line x1="0" y1="283.5" x2="1436" y2="283.5" fill="rgb(0, 0, 0)" stroke="rgb(60, 60, 60)" stroke-width="1px" opacity="0.25"></line><line x1="0" y1="236.24999999999997" x2="1436" y2="236.24999999999997" fill="rgb(0, 0, 0)" stroke="rgb(60, 60, 60)" stroke-width="1px" opacity="0.25"></line><line x1="0" y1="188.99999999999997" x2="1436" y2="188.99999999999997" fill="rgb(0, 0, 0)" stroke="rgb(60, 60, 60)" stroke-width="1px" opacity="0.25"></line><line x1="0" y1="141.75" x2="1436" y2="141.75" fill="rgb(0, 0, 0)" stroke="rgb(60, 60, 60)" stroke-width="1px" opacity="0.25"></line><line x1="0" y1="94.5" x2="1436" y2="94.5" fill="rgb(0, 0, 0)" stroke="rgb(60, 60, 60)" stroke-width="1px" opacity="0.25"></line><line x1="0" y1="47.25" x2="1436" y2="47.25" fill="rgb(0, 0, 0)" stroke="rgb(60, 60, 60)" stroke-width="1px" opacity="0.25"></line><line x1="0" y1="0" x2="1436" y2="0" fill="rgb(0, 0, 0)" stroke="rgb(60, 60, 60)" stroke-width="1px" opacity="0.25"></line></g></g></g><g><g><line x1="0" y1="330.75" x2="1436" y2="330.75" fill="rgb(0, 0, 0)" stroke="rgb(153, 153, 153)" stroke-width="1.5px"></line></g></g><g><g><line x1="119.66666666666666" y1="0" x2="119.66666666666666" y2="378" fill="rgb(0, 0, 0)" stroke="rgb(153, 153, 153)" stroke-width="1.5px"></line></g></g><g><g><g><g><g><path stroke="rgb(255, 112, 67)" stroke-width="2px" d="M119.66666666666666,62.5411671102047L125.64999999999999,158.521433070302L131.63333333333333,194.54700310528278L137.61666666666667,223.33963108062744L143.6,219.82328724861145L149.58333333333334,240.02923176437616L155.56666666666666,230.56773611158133L161.55,231.9496829509735L167.53333333333333,228.34354781359434L173.51666666666668,221.5189931988716L179.5,243.59691005945206L185.48333333333335,237.69771353155375L191.46666666666667,227.0475761666894L197.45000000000002,205.55230651795864L203.43333333333334,225.56814946979284L209.41666666666669,231.46705028414726L215.4,248.92967433482409L221.38333333333335,243.52002453804016L227.36666666666665,236.06034763902426L233.35,251.75706193596125L239.33333333333331,248.52330055832863L245.31666666666666,246.55424968153238L251.29999999999998,255.22559874504805L257.28333333333336,249.38808665424585L263.26666666666665,254.50674728304148L269.25,233.05033580213785L275.23333333333335,239.38358348608017L281.21666666666664,253.1166824027896L287.2,251.90359503775835L293.18333333333334,248.78667571395636L299.1666666666667,250.50472915917635L305.15,235.96045982837677L311.1333333333333,239.56292670965195L317.1166666666667,225.96708816289902L323.1,244.91517287492752L329.0833333333333,255.0818960443139L335.06666666666666,240.86948067694902L341.05,253.496772877872L347.03333333333336,250.42250671237707L353.01666666666665,261.0991738066077L359,245.95521853119135L364.9833333333333,250.40242635458708L370.9666666666667,248.62984192371368L376.95,226.251649081707L382.93333333333334,244.86994982510805L388.91666666666663,261.40252661705017L394.90000000000003,255.2988652959466L400.8833333333333,247.5562961474061L406.8666666666667,238.13801691681147L412.84999999999997,237.04505965858698L418.83333333333337,254.6269618794322L424.81666666666666,246.28401678800583L430.8,242.68107817322016L436.7833333333333,239.06269204616547L442.7666666666667,229.5222197547555L448.75,236.89972349256277L454.7333333333333,217.4324221238494L460.7166666666667,262.71262914687395L466.7,242.39081420749426L472.68333333333334,253.7217193543911L478.66666666666663,257.0832571461797L484.65000000000003,252.9352269396186L490.6333333333333,248.6012492403388L496.6166666666667,234.35760793089867L502.59999999999997,233.92454248666763L508.58333333333337,217.62836050987244L514.5666666666667,250.11697125434875L520.55,250.25375989079475L526.5333333333333,253.51703629642725L532.5166666666667,246.02371142059565L538.5,252.9744019433856L544.4833333333333,235.699056096375L550.4666666666667,246.91344306617975L556.45,251.26529735326767L562.4333333333333,254.76611622422934L568.4166666666666,250.86704865843058L574.4,267.4045821726322L580.3833333333333,262.7714268565178L586.3666666666667,253.1401141807437L592.35,268.5211120247841L598.3333333333334,283.42112826928496L604.3166666666667,273.80791748687625L610.3,279.3352577537298L616.2833333333333,273.844237446785L622.2666666666667,280.96860687062144L628.25,292.40173737332225L634.2333333333333,275.0863997898996L640.2166666666667,289.2696310468018L646.2,304.5419031176716L652.1833333333333,298.6842279396951L658.1666666666666,309.4348885472864L664.15,311.4041752908379L670.1333333333333,306.07175249420106L676.1166666666667,316.6382794948295L682.1,314.47824255377054L688.0833333333334,309.7687104139477L694.0666666666667,312.4257370904088L700.05,300.3587129227817L706.0333333333333,308.6065262630582L712.0166666666667,309.35552818514407L718,318.3783037522808L723.9833333333333,316.6515918849036L729.9666666666666,316.01632614433765L735.9499999999999,319.6028949022293L741.9333333333334,312.6683647725731L747.9166666666667,316.39890642184764L753.9,309.5242785271257L759.8833333333333,310.84861403144896L765.8666666666667,316.82406064867973L771.85,321.54248091671616L777.8333333333333,318.86896204948425L783.8166666666666,319.7809047745541L789.8000000000001,319.88494313601404L795.7833333333334,319.5034409807995L801.7666666666667,321.3865078641102L807.75,316.33281004428864L813.7333333333333,318.53899502009153L819.7166666666666,320.6685576243326L825.6999999999999,316.8292101128027L831.6833333333334,319.1453477209434L837.6666666666667,318.2502413056791L843.65,322.1645205169916L849.6333333333333,322.28725483920425L855.6166666666667,319.01821994036436L861.6,321.5912190852687L867.5833333333333,315.7778613343835L873.5666666666666,318.76769336219877L879.5500000000001,322.50107333343476L885.5333333333334,324.34905855730176L891.5166666666667,320.2217555819079L897.5,318.6968391649425L903.4833333333333,320.1436555227265L909.4666666666666,317.637702383101L915.4499999999999,321.3599702138454L921.4333333333334,316.1841999068856L927.4166666666667,320.80902155768126L933.4,321.5467529213056L939.3833333333333,319.99624232109636L945.3666666666667,322.24791789706796L951.35,323.78342059487477L957.3333333333333,325.4582558576949L963.3166666666666,322.5667340615764L969.3000000000001,319.6106468215585L975.2833333333334,323.07395231723785L981.2666666666667,319.1560154110193L987.25,315.4261822421104L993.2333333333333,322.2545943344012L999.2166666666666,325.6657376331277L1005.1999999999999,324.8609457425773L1011.1833333333334,318.24236177187413L1017.1666666666667,319.4483555322513L1023.15,321.7148484690115L1029.1333333333334,319.0134436385706L1035.1166666666666,325.5766521678306L1041.1,325.3103709225543L1047.0833333333333,323.66630394989625L1053.0666666666666,321.9216472869739L1059.05,320.36904644966125L1065.0333333333333,322.0954027567059L1071.0166666666667,320.34945630747825L1077,322.7591784512624L1082.9833333333333,326.15031620068476L1088.9666666666667,324.3316418216564L1094.95,321.7693829750642L1100.9333333333334,322.3267660411075L1106.9166666666667,324.13654129067436L1112.9,321.8585485294461L1118.8833333333334,325.8200116530061L1124.8666666666666,322.9941052598879L1130.85,321.8699132585898L1136.8333333333333,322.8016749517992L1142.8166666666666,318.1677222652361L1148.8,323.9762601493858L1154.7833333333333,318.95219221059233L1160.7666666666667,323.7961248359643L1166.75,324.07124228356406L1172.7333333333333,324.36760798143223L1178.7166666666667,323.43381501780823L1184.7,324.349315546453L1190.6833333333334,326.7300058370456L1196.6666666666667,324.6347358827479L1202.65,321.0480135474354L1208.6333333333334,318.3173057930544L1214.6166666666666,323.8409518408589L1220.6,321.53671362251043L1226.5833333333333,323.16156097501516L1232.5666666666666,323.80791817372665L1238.55,319.6517202006653L1244.5333333333333,315.77053890377283L1250.5166666666667,322.38185324985534L1256.5,322.16593483742326L1262.4833333333333,321.9330023350194L1268.4666666666667,326.4598490721546L1274.45,320.4776780521497L1280.4333333333334,325.94097081385553L1286.4166666666667,323.26053964253515L1292.4,325.3591363742016L1298.3833333333334,318.5104841860011L1304.3666666666666,326.2216843762435L1310.35,321.9767996231094" style="fill: none;" fill="none"></path></g></g></g></g></g></g><g transform="translate(60, 378)" clip-path="url(#clip_1)"><clipPath id="clip_1"><rect width="1436" height="22"></rect></clipPath><g><g><line x1="0" y1="0" x2="0" y2="5" style="visibility: inherit;" fill="rgb(0, 0, 0)" stroke="rgb(204, 204, 204)" stroke-width="1px"></line><line x1="119.66666666666666" y1="0" x2="119.66666666666666" y2="5" style="visibility: inherit;" fill="rgb(0, 0, 0)" stroke="rgb(204, 204, 204)" stroke-width="1px"></line><line x1="239.33333333333331" y1="0" x2="239.33333333333331" y2="5" style="visibility: inherit;" fill="rgb(0, 0, 0)" stroke="rgb(204, 204, 204)" stroke-width="1px"></line><line x1="359" y1="0" x2="359" y2="5" style="visibility: inherit;" fill="rgb(0, 0, 0)" stroke="rgb(204, 204, 204)" stroke-width="1px"></line><line x1="478.66666666666663" y1="0" x2="478.66666666666663" y2="5" style="visibility: inherit;" fill="rgb(0, 0, 0)" stroke="rgb(204, 204, 204)" stroke-width="1px"></line><line x1="598.3333333333334" y1="0" x2="598.3333333333334" y2="5" style="visibility: inherit;" fill="rgb(0, 0, 0)" stroke="rgb(204, 204, 204)" stroke-width="1px"></line><line x1="718" y1="0" x2="718" y2="5" style="visibility: inherit;" fill="rgb(0, 0, 0)" stroke="rgb(204, 204, 204)" stroke-width="1px"></line><line x1="837.6666666666667" y1="0" x2="837.6666666666667" y2="5" style="visibility: inherit;" fill="rgb(0, 0, 0)" stroke="rgb(204, 204, 204)" stroke-width="1px"></line><line x1="957.3333333333333" y1="0" x2="957.3333333333333" y2="5" style="visibility: inherit;" fill="rgb(0, 0, 0)" stroke="rgb(204, 204, 204)" stroke-width="1px"></line><line x1="1077" y1="0" x2="1077" y2="5" style="visibility: inherit;" fill="rgb(0, 0, 0)" stroke="rgb(204, 204, 204)" stroke-width="1px"></line><line x1="1196.6666666666667" y1="0" x2="1196.6666666666667" y2="5" style="visibility: inherit;" fill="rgb(0, 0, 0)" stroke="rgb(204, 204, 204)" stroke-width="1px"></line><line x1="1316.3333333333333" y1="0" x2="1316.3333333333333" y2="5" style="visibility: inherit;" fill="rgb(0, 0, 0)" stroke="rgb(204, 204, 204)" stroke-width="1px"></line><line x1="1436" y1="0" x2="1436" y2="5" style="visibility: inherit;" fill="rgb(0, 0, 0)" stroke="rgb(204, 204, 204)" stroke-width="1px"></line></g><g transform="translate(0, 8)"><text x="0" y="0" dx="0em" dy="0.95em" style="text-anchor: middle; visibility: hidden; font-family: &quot;Helvetica Neue&quot;, sans-serif; font-size: 12px; font-weight: 200;" fill="rgb(50, 49, 63)" stroke="none" stroke-width="1px">-20</text><text x="119.66666666666666" y="0" dx="0em" dy="0.95em" style="text-anchor: middle; visibility: inherit; font-family: &quot;Helvetica Neue&quot;, sans-serif; font-size: 12px; font-weight: 200;" fill="rgb(50, 49, 63)" stroke="none" stroke-width="1px">0</text><text x="239.33333333333331" y="0" dx="0em" dy="0.95em" style="text-anchor: middle; visibility: inherit; font-family: &quot;Helvetica Neue&quot;, sans-serif; font-size: 12px; font-weight: 200;" fill="rgb(50, 49, 63)" stroke="none" stroke-width="1px">20</text><text x="359" y="0" dx="0em" dy="0.95em" style="text-anchor: middle; visibility: inherit; font-family: &quot;Helvetica Neue&quot;, sans-serif; font-size: 12px; font-weight: 200;" fill="rgb(50, 49, 63)" stroke="none" stroke-width="1px">40</text><text x="478.66666666666663" y="0" dx="0em" dy="0.95em" style="text-anchor: middle; visibility: inherit; font-family: &quot;Helvetica Neue&quot;, sans-serif; font-size: 12px; font-weight: 200;" fill="rgb(50, 49, 63)" stroke="none" stroke-width="1px">60</text><text x="598.3333333333334" y="0" dx="0em" dy="0.95em" style="text-anchor: middle; visibility: inherit; font-family: &quot;Helvetica Neue&quot;, sans-serif; font-size: 12px; font-weight: 200;" fill="rgb(50, 49, 63)" stroke="none" stroke-width="1px">80</text><text x="718" y="0" dx="0em" dy="0.95em" style="text-anchor: middle; visibility: inherit; font-family: &quot;Helvetica Neue&quot;, sans-serif; font-size: 12px; font-weight: 200;" fill="rgb(50, 49, 63)" stroke="none" stroke-width="1px">100</text><text x="837.6666666666667" y="0" dx="0em" dy="0.95em" style="text-anchor: middle; visibility: inherit; font-family: &quot;Helvetica Neue&quot;, sans-serif; font-size: 12px; font-weight: 200;" fill="rgb(50, 49, 63)" stroke="none" stroke-width="1px">120</text><text x="957.3333333333333" y="0" dx="0em" dy="0.95em" style="text-anchor: middle; visibility: inherit; font-family: &quot;Helvetica Neue&quot;, sans-serif; font-size: 12px; font-weight: 200;" fill="rgb(50, 49, 63)" stroke="none" stroke-width="1px">140</text><text x="1077" y="0" dx="0em" dy="0.95em" style="text-anchor: middle; visibility: inherit; font-family: &quot;Helvetica Neue&quot;, sans-serif; font-size: 12px; font-weight: 200;" fill="rgb(50, 49, 63)" stroke="none" stroke-width="1px">160</text><text x="1196.6666666666667" y="0" dx="0em" dy="0.95em" style="text-anchor: middle; visibility: inherit; font-family: &quot;Helvetica Neue&quot;, sans-serif; font-size: 12px; font-weight: 200;" fill="rgb(50, 49, 63)" stroke="none" stroke-width="1px">180</text><text x="1316.3333333333333" y="0" dx="0em" dy="0.95em" style="text-anchor: middle; visibility: inherit; font-family: &quot;Helvetica Neue&quot;, sans-serif; font-size: 12px; font-weight: 200;" fill="rgb(50, 49, 63)" stroke="none" stroke-width="1px">200</text><text x="1436" y="0" dx="0em" dy="0.95em" style="text-anchor: middle; visibility: hidden; font-family: &quot;Helvetica Neue&quot;, sans-serif; font-size: 12px; font-weight: 200;" fill="rgb(50, 49, 63)" stroke="none" stroke-width="1px">220</text></g><line x1="0" y1="0" x2="1436" y2="0" fill="rgb(0, 0, 0)" stroke="rgb(204, 204, 204)" stroke-width="1px"></line></g></g></g></g></svg>