<?xml version="1.0" encoding="utf-8" standalone="no"?>
<!DOCTYPE svg PUBLIC "-//W3C//DTD SVG 1.1//EN"
  "http://www.w3.org/Graphics/SVG/1.1/DTD/svg11.dtd">
<!-- Created with matplotlib (https://matplotlib.org/) -->
<svg height="288pt" version="1.1" viewBox="0 0 720 288" width="720pt" xmlns="http://www.w3.org/2000/svg" xmlns:xlink="http://www.w3.org/1999/xlink">
 <metadata>
  <rdf:RDF xmlns:cc="http://creativecommons.org/ns#" xmlns:dc="http://purl.org/dc/elements/1.1/" xmlns:rdf="http://www.w3.org/1999/02/22-rdf-syntax-ns#">
   <cc:Work>
    <dc:type rdf:resource="http://purl.org/dc/dcmitype/StillImage"/>
    <dc:date>2021-05-06T23:03:03.916765</dc:date>
    <dc:format>image/svg+xml</dc:format>
    <dc:creator>
     <cc:Agent>
      <dc:title>Matplotlib v3.3.4, https://matplotlib.org/</dc:title>
     </cc:Agent>
    </dc:creator>
   </cc:Work>
  </rdf:RDF>
 </metadata>
 <defs>
  <style type="text/css">*{stroke-linecap:butt;stroke-linejoin:round;}</style>
 </defs>
 <g id="figure_1">
  <g id="patch_1">
   <path d="M 0 288 
L 720 288 
L 720 0 
L 0 0 
z
" style="fill:#ffffff;"/>
  </g>
  <g id="axes_1">
   <g id="line2d_1">
    <path clip-path="url(#pd159e150dd)" d="M 101.97308 230.499016 
L 95.014087 228.093422 
L 87.728795 225.813083 
L 81.014577 223.932794 
L 76.485752 222.889545 
L 72.592107 222.222127 
L 69.263536 221.85796 
L 66.099624 221.706631 
L 62.772143 221.767797 
L 59.342205 222.091498 
L 56.318974 222.631872 
L 53.815313 223.301232 
L 51.32258 224.226613 
L 49.574065 225.085265 
L 48.033535 226.052424 
L 46.871975 226.99016 
L 45.793717 228.179285 
L 45.218678 229.143523 
L 44.924924 230.024865 
L 44.876624 231.107389 
L 45.044462 231.829372 
L 45.417689 232.616217 
L 46.046098 233.4602 
L 47.194468 234.53099 
L 48.722839 235.582081 
L 50.307831 236.445475 
L 52.635404 237.457016 
L 55.020819 238.264132 
L 57.861051 238.98229 
L 60.557048 239.451801 
L 63.605538 239.757592 
L 66.529022 239.841156 
L 69.810591 239.702097 
L 72.977408 239.346663 
L 76.514311 238.724311 
L 81.071496 237.670568 
L 87.359022 235.964997 
L 93.285066 234.149749 
L 96.91973 232.829281 
L 99.968319 231.474521 
L 101.985959 230.428456 
L 101.985959 230.428456 
" style="fill:none;stroke:#000000;stroke-linecap:square;stroke-opacity:0.7;stroke-width:1.2;"/>
   </g>
   <g id="line2d_2">
    <path clip-path="url(#pd159e150dd)" d="M 101.668911 211.207876 
L 97.660785 209.737526 
L 91.535639 207.744554 
L 84.85132 205.796869 
L 78.888414 204.276754 
L 74.313033 203.321394 
L 70.302188 202.695676 
L 66.344241 202.324997 
L 63.248193 202.242833 
L 60.098992 202.383144 
L 57.139182 202.760431 
L 54.750068 203.275629 
L 52.353884 204.031014 
L 50.2272 204.968034 
L 48.749278 205.825773 
L 47.33448 206.882247 
L 46.213603 207.983191 
L 45.50558 208.904305 
L 45.181255 209.444899 
L 44.73632 210.539764 
L 44.61428 211.6564 
L 44.767273 212.400957 
L 45.257913 213.260621 
L 46.10219 214.039815 
L 47.574275 214.854963 
L 49.227077 215.456128 
L 51.28232 215.97921 
L 53.971408 216.43999 
L 57.234421 216.766151 
L 61.215316 216.897099 
L 65.071229 216.785719 
L 69.230854 216.438178 
L 74.203249 215.787841 
L 81.932402 214.515872 
L 99.680243 211.492188 
L 101.700348 211.22499 
L 101.700348 211.22499 
" style="fill:none;stroke:#000000;stroke-linecap:square;stroke-opacity:0.7;stroke-width:1.2;"/>
   </g>
   <g id="line2d_3">
    <path clip-path="url(#pd159e150dd)" d="M 101.231071 192.118027 
L 99.258565 191.313398 
L 94.547969 189.669595 
L 88.184379 187.717305 
L 80.722232 185.682243 
L 73.973658 184.079752 
L 69.205976 183.184822 
L 65.544293 182.734318 
L 62.311809 182.574319 
L 59.735102 182.643091 
L 57.068909 182.931363 
L 54.705586 183.405111 
L 52.406092 184.108744 
L 50.642719 184.858511 
L 49.031908 185.764208 
L 47.805299 186.657442 
L 46.665684 187.730984 
L 45.823442 188.778081 
L 45.130222 189.981402 
L 44.697841 191.307552 
L 44.696199 192.616271 
L 44.838331 193.064192 
L 45.041754 193.439812 
L 45.730311 194.136484 
L 46.574708 194.601597 
L 47.956058 195.046391 
L 50.162788 195.436327 
L 53.273583 195.707945 
L 57.168845 195.822639 
L 62.487094 195.728431 
L 68.403191 195.368777 
L 75.777607 194.668804 
L 100.755741 192.104534 
L 101.21168 192.079224 
L 101.21168 192.079224 
" style="fill:none;stroke:#000000;stroke-linecap:square;stroke-opacity:0.7;stroke-width:1.2;"/>
   </g>
   <g id="line2d_4">
    <path clip-path="url(#pd159e150dd)" d="M 101.932622 173.007377 
L 98.346021 171.427797 
L 94.469077 169.943573 
L 89.63798 168.329607 
L 84.51916 166.848356 
L 79.888832 165.726103 
L 75.342704 164.864273 
L 71.505598 164.356291 
L 67.777356 164.090232 
L 64.427172 164.074204 
L 61.221132 164.288235 
L 58.191838 164.730824 
L 55.55698 165.340457 
L 53.396033 166.027396 
L 51.117739 166.976417 
L 48.963457 168.151611 
L 47.492605 169.178264 
L 46.364121 170.172783 
L 45.597078 171.056001 
L 44.985565 172.172775 
L 44.870027 172.958897 
L 44.948051 173.351002 
L 45.233064 173.855533 
L 45.745815 174.316225 
L 46.512227 174.730655 
L 47.971903 175.208302 
L 50.313031 175.645488 
L 53.458262 175.959227 
L 57.266092 176.118744 
L 61.974261 176.10044 
L 67.118626 175.878399 
L 73.988581 175.345477 
L 86.788267 174.049266 
L 95.70446 173.259952 
L 101.067464 173.001982 
L 101.937473 172.982272 
L 101.937473 172.982272 
" style="fill:none;stroke:#000000;stroke-linecap:square;stroke-opacity:0.7;stroke-width:1.2;"/>
   </g>
   <g id="line2d_5">
    <path clip-path="url(#pd159e150dd)" d="M 101.689768 153.855547 
L 98.425681 152.584201 
L 94.100428 151.106189 
L 88.557136 149.429665 
L 81.601367 147.577588 
L 75.179938 146.089695 
L 70.137448 145.144275 
L 66.507402 144.672491 
L 63.481185 144.468279 
L 60.644595 144.474081 
L 58.059149 144.682161 
L 55.848784 145.046866 
L 53.473062 145.679947 
L 51.749541 146.340246 
L 49.911566 147.294566 
L 48.530561 148.242114 
L 47.27709 149.347782 
L 46.081058 150.76399 
L 45.423431 151.880986 
L 45.040584 153.081914 
L 45.044255 153.804809 
L 45.221748 154.318343 
L 45.618294 154.808065 
L 46.233934 155.208479 
L 47.326453 155.595032 
L 48.808959 155.87635 
L 51.387521 156.114581 
L 55.642764 156.235609 
L 61.724879 156.14492 
L 68.280677 155.822962 
L 77.222766 155.118618 
L 89.064399 154.180578 
L 95.615085 153.877371 
L 101.702932 153.813581 
L 101.702932 153.813581 
" style="fill:none;stroke:#000000;stroke-linecap:square;stroke-opacity:0.7;stroke-width:1.2;"/>
   </g>
   <g id="line2d_6">
    <path clip-path="url(#pd159e150dd)" d="M 101.965344 134.695135 
L 97.023191 132.683487 
L 91.784061 130.811639 
L 86.48432 129.144324 
L 81.053729 127.657213 
L 76.385248 126.596007 
L 72.399196 125.899508 
L 68.411984 125.444009 
L 65.325637 125.283772 
L 61.846 125.33474 
L 58.681131 125.635083 
L 55.841436 126.166339 
L 53.403113 126.883329 
L 51.224062 127.796835 
L 49.750892 128.605562 
L 48.301175 129.599959 
L 46.818188 130.907744 
L 45.867384 132.012792 
L 45.1313 133.246757 
L 44.855405 134.235531 
L 44.887464 134.816159 
L 45.076066 135.281988 
L 45.425295 135.686472 
L 46.009961 136.06101 
L 46.950276 136.39629 
L 48.443392 136.667584 
L 51.077311 136.839369 
L 54.673719 136.816392 
L 59.951761 136.553384 
L 69.421223 135.812717 
L 84.840067 134.603185 
L 90.88991 134.339187 
L 95.636804 134.328066 
L 100.250919 134.528296 
L 101.966841 134.656209 
L 101.966841 134.656209 
" style="fill:none;stroke:#000000;stroke-linecap:square;stroke-opacity:0.7;stroke-width:1.2;"/>
   </g>
   <g id="line2d_7">
    <path clip-path="url(#pd159e150dd)" d="M 101.878154 115.520684 
L 97.695401 113.743886 
L 93.166538 112.06341 
L 88.051757 110.398997 
L 82.618882 108.882666 
L 78.006893 107.822362 
L 73.485332 107.024257 
L 69.471749 106.553447 
L 65.63159 106.345361 
L 62.567214 106.376145 
L 59.609281 106.605895 
L 56.657527 107.08434 
L 54.117194 107.760805 
L 51.9096 108.616181 
L 49.825496 109.729905 
L 48.242443 110.844363 
L 46.87324 112.08111 
L 45.851258 113.29451 
L 45.225033 114.362153 
L 44.96109 115.349643 
L 45.039225 115.902935 
L 45.315225 116.330602 
L 45.71706 116.623333 
L 46.515909 116.912005 
L 47.919725 117.10835 
L 50.269319 117.141207 
L 54.467438 116.908122 
L 79.174771 115.108224 
L 87.705036 114.830036 
L 92.792946 114.865973 
L 97.635579 115.120952 
L 101.866409 115.519785 
L 101.866409 115.519785 
" style="fill:none;stroke:#000000;stroke-linecap:square;stroke-opacity:0.7;stroke-width:1.2;"/>
   </g>
   <g id="line2d_8">
    <path clip-path="url(#pd159e150dd)" d="M 101.89868 96.304896 
L 98.257531 94.716058 
L 93.140276 92.723683 
L 87.072234 90.623689 
L 81.684336 88.986865 
L 77.19993 87.839897 
L 73.218276 87.059214 
L 69.771542 86.622273 
L 66.448661 86.449758 
L 63.437273 86.526877 
L 60.315664 86.861277 
L 57.93504 87.305888 
L 55.313911 88.007353 
L 52.836494 88.906709 
L 50.5923 89.965626 
L 48.578621 91.179817 
L 46.843198 92.530104 
L 45.531468 93.904098 
L 44.901471 94.841939 
L 44.519567 95.933925 
L 44.582197 96.554057 
L 44.703664 96.784718 
L 45.19217 97.182696 
L 45.782201 97.374975 
L 47.215214 97.475342 
L 49.426632 97.29911 
L 54.860936 96.506152 
L 61.234239 95.637254 
L 66.274815 95.167763 
L 71.414416 94.911897 
L 77.691164 94.833636 
L 84.898706 94.970901 
L 91.890797 95.34303 
L 98.498686 95.918165 
L 101.908705 96.280601 
L 101.908705 96.280601 
" style="fill:none;stroke:#000000;stroke-linecap:square;stroke-opacity:0.7;stroke-width:1.2;"/>
   </g>
   <g id="line2d_9">
    <path clip-path="url(#pd159e150dd)" d="M 101.665886 77.142579 
L 99.901234 76.302032 
L 96.329495 74.859572 
L 91.666483 73.241116 
L 86.099476 71.546123 
L 79.183405 69.691502 
L 72.078718 68.01643 
L 67.434007 67.153055 
L 63.836737 66.729969 
L 60.747294 66.619641 
L 58.372901 66.745477 
L 56.156086 67.075052 
L 54.138163 67.602342 
L 52.506989 68.230829 
L 51.171726 68.913642 
L 49.778848 69.822813 
L 48.526632 70.84578 
L 47.038116 72.379474 
L 45.819471 74.025054 
L 45.108017 75.423003 
L 44.918059 76.341598 
L 45.008389 76.803201 
L 45.299207 77.167242 
L 45.967995 77.455254 
L 46.910224 77.569084 
L 48.651897 77.527003 
L 52.429362 77.13676 
L 66.385333 75.503815 
L 71.378654 75.194803 
L 76.196996 75.101288 
L 81.594667 75.224758 
L 86.916957 75.578645 
L 93.349728 76.258212 
L 101.678731 77.236722 
L 101.678731 77.236722 
" style="fill:none;stroke:#000000;stroke-linecap:square;stroke-opacity:0.7;stroke-width:1.2;"/>
   </g>
   <g id="line2d_10">
    <path clip-path="url(#pd159e150dd)" d="M 102.032333 58.013434 
L 99.146025 56.223626 
L 95.957059 54.525256 
L 92.720259 53.031973 
L 89.591873 51.778731 
L 86.016541 50.573212 
L 82.78708 49.701298 
L 79.597348 49.043946 
L 76.527061 48.59246 
L 72.545133 48.248613 
L 68.820091 48.159644 
L 65.068529 48.302683 
L 61.819468 48.636413 
L 58.501485 49.216184 
L 55.935378 49.868086 
L 53.43545 50.719022 
L 51.532892 51.547413 
L 49.337633 52.7607 
L 47.936764 53.733247 
L 46.602036 54.883045 
L 45.751286 55.818968 
L 45.045242 56.939909 
L 44.860984 57.615604 
L 44.933078 58.062952 
L 45.105811 58.299696 
L 45.493006 58.519899 
L 46.416673 58.645561 
L 48.077818 58.483915 
L 50.696589 57.936935 
L 62.764004 55.141997 
L 67.00588 54.522967 
L 70.651274 54.225029 
L 74.141554 54.140053 
L 77.978752 54.244673 
L 83.02212 54.634738 
L 88.130262 55.2622 
L 93.579743 56.156735 
L 98.935316 57.260368 
L 102.038435 58.001209 
L 102.038435 58.001209 
" style="fill:none;stroke:#000000;stroke-linecap:square;stroke-opacity:0.7;stroke-width:1.2;"/>
   </g>
   <g id="line2d_11">
    <path clip-path="url(#pd159e150dd)" d="M 165.481317 230.506383 
L 161.350468 229.156647 
L 153.946123 226.994996 
L 146.518428 225.030576 
L 141.385045 223.847591 
L 136.629304 222.985182 
L 132.841188 222.52469 
L 129.293135 222.312778 
L 126.317965 222.320727 
L 122.887969 222.567539 
L 120.020421 222.996526 
L 117.480477 223.57551 
L 114.761356 224.455158 
L 113.042924 225.199815 
L 111.116435 226.31391 
L 109.99494 227.210213 
L 109.260467 228.012984 
L 108.705804 228.922905 
L 108.412609 230.044548 
L 108.587068 231.18015 
L 109.132431 232.071934 
L 109.524341 232.470814 
L 110.598561 233.23208 
L 112.161625 233.970744 
L 114.193286 234.653571 
L 117.336702 235.421008 
L 121.476901 236.140755 
L 125.35698 236.602532 
L 129.379596 236.873991 
L 133.28437 236.907301 
L 137.108556 236.688976 
L 140.947688 236.228347 
L 145.655129 235.418554 
L 151.33818 234.227111 
L 158.363782 232.537011 
L 163.703017 231.050581 
L 165.503077 230.492406 
L 165.503077 230.492406 
" style="fill:none;stroke:#000000;stroke-linecap:square;stroke-opacity:0.7;stroke-width:1.2;"/>
   </g>
   <g id="line2d_12">
    <path clip-path="url(#pd159e150dd)" d="M 165.391696 211.287339 
L 162.954046 210.396132 
L 157.558948 208.683171 
L 150.877049 206.807236 
L 144.373092 205.211221 
L 139.040954 204.13181 
L 135.577251 203.599038 
L 131.704153 203.222973 
L 128.489666 203.126085 
L 125.808903 203.215317 
L 122.663029 203.53722 
L 120.133688 203.98273 
L 117.13316 204.758641 
L 114.505355 205.715359 
L 112.773318 206.550177 
L 111.345289 207.438443 
L 110.737527 207.905649 
L 109.646737 209.001528 
L 109.092455 209.858427 
L 108.781903 210.807739 
L 108.793843 211.557602 
L 108.898832 211.915894 
L 109.117045 212.323627 
L 109.727794 212.951418 
L 110.670097 213.50022 
L 112.305908 214.063103 
L 114.641181 214.543187 
L 117.949891 214.957546 
L 122.550164 215.28845 
L 127.706074 215.440697 
L 132.590597 215.37921 
L 137.759022 215.073896 
L 143.648632 214.469662 
L 152.777982 213.256239 
L 164.397198 211.483096 
L 165.374985 211.323901 
L 165.374985 211.323901 
" style="fill:none;stroke:#000000;stroke-linecap:square;stroke-opacity:0.7;stroke-width:1.2;"/>
   </g>
   <g id="line2d_13">
    <path clip-path="url(#pd159e150dd)" d="M 164.958802 192.12532 
L 163.435077 191.547885 
L 158.323711 189.874498 
L 151.251495 187.799665 
L 144.508027 186.050157 
L 139.323188 184.929876 
L 135.541822 184.29902 
L 131.387155 183.825289 
L 127.1501 183.593245 
L 123.311595 183.624744 
L 119.803646 183.905161 
L 117.096119 184.35532 
L 115.284477 184.82997 
L 113.551708 185.488494 
L 112.219574 186.206234 
L 111.047047 187.07682 
L 110.105607 188.030394 
L 109.379844 189.031366 
L 108.870157 190.03216 
L 108.548587 191.188202 
L 108.525637 191.398573 
L 108.655835 192.499987 
L 108.815078 192.838717 
L 109.421761 193.505563 
L 110.298057 193.989762 
L 111.695946 194.413296 
L 113.675502 194.748151 
L 116.795974 195.03367 
L 121.054011 195.209085 
L 126.762386 195.221482 
L 132.514205 195.032136 
L 139.278916 194.588419 
L 147.490858 193.808798 
L 163.281061 192.203041 
L 164.924819 192.094987 
L 164.924819 192.094987 
" style="fill:none;stroke:#000000;stroke-linecap:square;stroke-opacity:0.7;stroke-width:1.2;"/>
   </g>
   <g id="line2d_14">
    <path clip-path="url(#pd159e150dd)" d="M 165.773255 173.047415 
L 161.395274 171.475799 
L 156.227652 169.870129 
L 150.282271 168.259523 
L 144.998821 167.032767 
L 140.392903 166.166986 
L 135.865706 165.554318 
L 131.933817 165.255934 
L 128.716807 165.200412 
L 125.46965 165.341054 
L 122.211193 165.711125 
L 119.197145 166.2969 
L 116.683727 167.007201 
L 114.516577 167.829202 
L 112.364741 168.914393 
L 111.006531 169.81347 
L 109.857514 170.818882 
L 109.207493 171.625925 
L 108.827784 172.439775 
L 108.777855 173.08245 
L 108.911747 173.507337 
L 109.247715 173.943263 
L 109.999456 174.431792 
L 111.497178 174.914323 
L 113.800022 175.263356 
L 116.894353 175.457113 
L 121.84806 175.500571 
L 129.051242 175.315546 
L 137.993122 174.873328 
L 148.022088 174.130946 
L 159.563828 173.311847 
L 165.777306 173.014993 
L 165.777306 173.014993 
" style="fill:none;stroke:#000000;stroke-linecap:square;stroke-opacity:0.7;stroke-width:1.2;"/>
   </g>
   <g id="line2d_15">
    <path clip-path="url(#pd159e150dd)" d="M 165.266981 153.880809 
L 162.296897 152.871056 
L 156.91822 151.295193 
L 149.470313 149.356928 
L 142.102757 147.658162 
L 136.983203 146.674748 
L 132.610286 146.062534 
L 128.665117 145.765343 
L 125.547201 145.744058 
L 122.515346 145.938982 
L 119.423703 146.400924 
L 117.091774 146.970203 
L 114.932895 147.724799 
L 113.332163 148.480824 
L 111.895556 149.366247 
L 110.571552 150.452614 
L 109.526455 151.664301 
L 108.960264 152.723215 
L 108.792161 153.522568 
L 108.915478 154.210374 
L 109.248915 154.690291 
L 109.912584 155.141916 
L 110.763618 155.454236 
L 112.427412 155.776003 
L 114.841266 155.991437 
L 118.976836 156.110213 
L 124.824003 156.05 
L 131.981056 155.765897 
L 141.524852 155.143619 
L 156.656167 154.14114 
L 164.728897 153.860565 
L 165.276999 153.851832 
L 165.276999 153.851832 
" style="fill:none;stroke:#000000;stroke-linecap:square;stroke-opacity:0.7;stroke-width:1.2;"/>
   </g>
   <g id="line2d_16">
    <path clip-path="url(#pd159e150dd)" d="M 165.774424 134.756665 
L 162.157261 133.140413 
L 158.162589 131.638103 
L 153.505521 130.157796 
L 148.885483 128.918761 
L 144.317786 127.919743 
L 139.887151 127.18119 
L 135.484034 126.69581 
L 131.5722 126.507947 
L 128.379309 126.55421 
L 125.101602 126.816046 
L 121.997945 127.291953 
L 119.348984 127.901314 
L 116.54451 128.793496 
L 114.147659 129.817323 
L 112.186911 130.914128 
L 110.805537 131.917649 
L 109.746754 132.955407 
L 109.243235 133.682607 
L 108.978518 134.515707 
L 109.07044 135.044878 
L 109.314972 135.392714 
L 109.807656 135.735789 
L 110.390858 135.963531 
L 111.456551 136.192723 
L 113.208045 136.350148 
L 116.105465 136.372286 
L 121.39143 136.137446 
L 147.936374 134.623985 
L 155.379472 134.487031 
L 162.09125 134.576339 
L 165.776653 134.714128 
L 165.776653 134.714128 
" style="fill:none;stroke:#000000;stroke-linecap:square;stroke-opacity:0.7;stroke-width:1.2;"/>
   </g>
   <g id="line2d_17">
    <path clip-path="url(#pd159e150dd)" d="M 165.609361 115.519201 
L 161.42868 113.950306 
L 156.220064 112.263099 
L 150.327319 110.606115 
L 143.616529 108.953098 
L 137.818498 107.742705 
L 133.937756 107.115007 
L 130.016203 106.711137 
L 126.867795 106.610586 
L 124.304869 106.712515 
L 121.706252 107.020001 
L 119.246823 107.540157 
L 116.957522 108.269585 
L 114.825686 109.211141 
L 112.759322 110.427583 
L 111.399395 111.441016 
L 109.927431 112.829643 
L 108.990836 114.052178 
L 108.546686 115.090464 
L 108.54705 115.724492 
L 108.694541 116.052669 
L 109.033433 116.387828 
L 109.749549 116.718745 
L 110.698492 116.922288 
L 112.599108 117.058555 
L 115.661272 117.004394 
L 121.019233 116.646327 
L 136.45407 115.486033 
L 145.837926 115.102642 
L 153.679602 114.993285 
L 159.082034 115.12041 
L 164.619365 115.457289 
L 165.606391 115.535803 
L 165.606391 115.535803 
" style="fill:none;stroke:#000000;stroke-linecap:square;stroke-opacity:0.7;stroke-width:1.2;"/>
   </g>
   <g id="line2d_18">
    <path clip-path="url(#pd159e150dd)" d="M 165.244247 96.439244 
L 162.044284 95.211269 
L 157.370956 93.686567 
L 152.006403 92.167256 
L 145.368625 90.523003 
L 139.135059 89.173435 
L 134.459964 88.342202 
L 130.611406 87.878515 
L 127.261014 87.718892 
L 124.82991 87.785188 
L 122.337228 88.043786 
L 119.808412 88.537911 
L 117.492979 89.234556 
L 115.467283 90.077685 
L 113.456708 91.187636 
L 111.650758 92.498723 
L 110.278983 93.806445 
L 109.367864 95.005008 
L 108.953265 95.992443 
L 108.985265 96.590009 
L 109.25633 96.960517 
L 109.894238 97.267028 
L 111.160859 97.4504 
L 113.517496 97.435962 
L 118.607198 97.06766 
L 129.646865 96.204496 
L 136.829249 95.888226 
L 145.363594 95.731517 
L 152.771751 95.791977 
L 159.842327 96.087894 
L 165.225696 96.442163 
L 165.225696 96.442163 
" style="fill:none;stroke:#000000;stroke-linecap:square;stroke-opacity:0.7;stroke-width:1.2;"/>
   </g>
   <g id="line2d_19">
    <path clip-path="url(#pd159e150dd)" d="M 165.752705 77.281951 
L 162.777644 75.742787 
L 159.308378 74.207954 
L 155.56782 72.797141 
L 151.583532 71.524154 
L 147.556869 70.464566 
L 143.255732 69.576836 
L 139.260301 68.966026 
L 135.339837 68.567756 
L 131.63509 68.400338 
L 128.338848 68.456519 
L 125.010563 68.746547 
L 121.835634 69.281266 
L 118.977032 70.020434 
L 116.638307 70.84522 
L 114.132851 72.003913 
L 112.251366 73.119027 
L 110.82599 74.164669 
L 109.544812 75.362627 
L 108.810109 76.346483 
L 108.588104 76.884056 
L 108.575629 77.325156 
L 108.752079 77.641095 
L 109.091097 77.862226 
L 109.672448 78.019178 
L 111.05479 78.084222 
L 113.712555 77.872039 
L 120.232601 77.003053 
L 127.382371 76.137038 
L 132.759854 75.717739 
L 137.641458 75.547059 
L 143.6265 75.570532 
L 149.802802 75.812111 
L 156.634376 76.316434 
L 164.759999 77.167039 
L 165.743979 77.278441 
L 165.743979 77.278441 
" style="fill:none;stroke:#000000;stroke-linecap:square;stroke-opacity:0.7;stroke-width:1.2;"/>
   </g>
   <g id="line2d_20">
    <path clip-path="url(#pd159e150dd)" d="M 165.673083 58.14659 
L 162.140669 56.664956 
L 158.095867 55.244045 
L 153.474895 53.871083 
L 147.60109 52.363225 
L 140.561018 50.785459 
L 135.500171 49.839638 
L 131.39586 49.273558 
L 127.61666 48.982321 
L 124.253973 48.967087 
L 121.218933 49.211533 
L 118.902026 49.616298 
L 116.547874 50.288806 
L 114.5146 51.154924 
L 112.693588 52.231886 
L 111.124673 53.467735 
L 110.003824 54.609512 
L 109.156385 55.762877 
L 108.768422 56.602115 
L 108.714015 57.296592 
L 108.941456 57.697554 
L 109.328115 57.931016 
L 110.09207 58.094627 
L 111.568788 58.099956 
L 114.389375 57.800237 
L 132.058832 55.472801 
L 136.916178 55.236681 
L 141.701896 55.248439 
L 146.081908 55.464623 
L 151.039347 55.946074 
L 156.520055 56.731214 
L 165.656091 58.132607 
L 165.656091 58.132607 
" style="fill:none;stroke:#000000;stroke-linecap:square;stroke-opacity:0.7;stroke-width:1.2;"/>
   </g>
   <g id="line2d_21">
    <path clip-path="url(#pd159e150dd)" d="M 229.497903 230.591907 
L 225.103231 229.183276 
L 218.274774 227.257034 
L 211.51411 225.554657 
L 205.514223 224.252656 
L 200.867885 223.46366 
L 196.756934 223.00076 
L 193.121526 222.833559 
L 189.766358 222.923169 
L 186.57269 223.251982 
L 183.818924 223.740595 
L 181.010711 224.454927 
L 178.316654 225.393103 
L 176.148867 226.416259 
L 174.819132 227.254325 
L 173.802666 228.120395 
L 173.229108 228.81701 
L 172.809409 229.704171 
L 172.733015 230.203566 
L 172.800252 230.778332 
L 173.101828 231.432721 
L 173.818293 232.207896 
L 174.681442 232.805057 
L 176.270624 233.576499 
L 178.585843 234.375152 
L 181.639841 235.148474 
L 185.670811 235.898906 
L 190.278996 236.50436 
L 194.874168 236.875021 
L 198.847403 236.981229 
L 202.557853 236.856995 
L 206.336093 236.490957 
L 210.903749 235.777819 
L 216.303816 234.670345 
L 221.102717 233.48354 
L 225.119518 232.283529 
L 228.533896 231.026034 
L 229.5108 230.61755 
L 229.5108 230.61755 
" style="fill:none;stroke:#000000;stroke-linecap:square;stroke-opacity:0.7;stroke-width:1.2;"/>
   </g>
   <g id="line2d_22">
    <path clip-path="url(#pd159e150dd)" d="M 229.276341 211.40581 
L 221.02747 209.137819 
L 213.271518 207.223103 
L 207.390382 206.002713 
L 202.303322 205.196122 
L 197.773757 204.71332 
L 193.746992 204.4981 
L 189.769756 204.517719 
L 186.437481 204.746935 
L 183.397205 205.163752 
L 180.919861 205.686946 
L 178.662682 206.350505 
L 176.46011 207.23849 
L 175.046591 208.000179 
L 173.710089 208.975429 
L 172.813808 209.982216 
L 172.472986 210.704097 
L 172.401987 211.312346 
L 172.618266 212.034344 
L 173.027268 212.564331 
L 173.687059 213.087716 
L 175.018207 213.765882 
L 176.662675 214.330381 
L 178.97279 214.888696 
L 182.377045 215.436023 
L 186.037039 215.782675 
L 189.895621 215.934536 
L 194.005735 215.882429 
L 198.500341 215.599064 
L 204.280689 214.973425 
L 213.530471 213.699666 
L 229.283482 211.358557 
L 229.283482 211.358557 
" style="fill:none;stroke:#000000;stroke-linecap:square;stroke-opacity:0.7;stroke-width:1.2;"/>
   </g>
   <g id="line2d_23">
    <path clip-path="url(#pd159e150dd)" d="M 229.394982 192.232913 
L 212.831546 187.724192 
L 206.734791 186.318348 
L 201.869851 185.426765 
L 198.213439 184.938762 
L 194.22527 184.630552 
L 190.913684 184.590586 
L 187.632118 184.78087 
L 184.556325 185.199649 
L 181.570819 185.864238 
L 179.069094 186.65569 
L 176.989065 187.523617 
L 175.153078 188.519767 
L 173.558803 189.702782 
L 172.84116 190.460969 
L 172.305576 191.394427 
L 172.221719 192.184253 
L 172.459328 192.760852 
L 172.724834 193.061839 
L 173.597298 193.616777 
L 175.026824 194.098328 
L 177.171791 194.494863 
L 180.622355 194.823667 
L 185.485765 195.030507 
L 193.143083 195.110036 
L 200.049051 194.979813 
L 205.71074 194.646037 
L 212.591679 193.976059 
L 229.395485 192.215822 
L 229.395485 192.215822 
" style="fill:none;stroke:#000000;stroke-linecap:square;stroke-opacity:0.7;stroke-width:1.2;"/>
   </g>
   <g id="line2d_24">
    <path clip-path="url(#pd159e150dd)" d="M 229.367511 173.125258 
L 222.64849 171.306382 
L 213.972088 169.213621 
L 206.898873 167.717529 
L 201.822575 166.860204 
L 197.606308 166.354203 
L 193.88205 166.101239 
L 190.057292 166.070548 
L 187.038511 166.24069 
L 183.8581 166.640679 
L 180.96232 167.245829 
L 178.541172 167.981988 
L 176.217623 168.971768 
L 174.853526 169.754234 
L 173.656592 170.665313 
L 172.821101 171.602483 
L 172.430313 172.520657 
L 172.458377 173.063845 
L 172.781218 173.62615 
L 173.411889 174.10734 
L 174.20557 174.464718 
L 175.894946 174.924494 
L 178.241812 175.295561 
L 181.921291 175.612101 
L 186.712403 175.770554 
L 191.980573 175.726642 
L 198.484727 175.432116 
L 207.16468 174.785414 
L 228.397668 173.130547 
L 229.382663 173.085456 
L 229.382663 173.085456 
" style="fill:none;stroke:#000000;stroke-linecap:square;stroke-opacity:0.7;stroke-width:1.2;"/>
   </g>
   <g id="line2d_25">
    <path clip-path="url(#pd159e150dd)" d="M 229.18494 153.878369 
L 223.673604 152.317403 
L 215.231111 150.165702 
L 207.426464 148.393032 
L 202.200036 147.417976 
L 197.719504 146.79919 
L 193.78102 146.479122 
L 190.63489 146.413912 
L 187.693768 146.538646 
L 184.457392 146.924929 
L 182.046853 147.417565 
L 179.749544 148.089433 
L 177.645318 148.926947 
L 176.133057 149.704827 
L 174.605575 150.712574 
L 173.329134 151.877294 
L 172.84389 152.522171 
L 172.48606 153.425881 
L 172.539711 154.03185 
L 172.732641 154.379715 
L 173.21508 154.801758 
L 173.927462 155.142188 
L 175.614155 155.558388 
L 178.136798 155.833279 
L 182.096294 155.96386 
L 187.169683 155.900629 
L 195.369224 155.551291 
L 211.207719 154.606831 
L 223.062091 153.944899 
L 228.415839 153.866152 
L 229.19421 153.877231 
L 229.19421 153.877231 
" style="fill:none;stroke:#000000;stroke-linecap:square;stroke-opacity:0.7;stroke-width:1.2;"/>
   </g>
   <g id="line2d_26">
    <path clip-path="url(#pd159e150dd)" d="M 229.1832 134.777129 
L 222.596373 132.879802 
L 215.364033 131.022188 
L 209.453128 129.711211 
L 204.213707 128.778505 
L 199.698163 128.18739 
L 195.251148 127.826609 
L 191.515425 127.733842 
L 187.896393 127.882893 
L 184.861022 128.2408 
L 182.281622 128.753906 
L 179.575289 129.548611 
L 177.377339 130.439345 
L 175.823331 131.247693 
L 174.255265 132.295418 
L 173.175196 133.295658 
L 172.671583 134.025342 
L 172.492909 134.71606 
L 172.611009 135.16891 
L 172.95009 135.555046 
L 173.483967 135.863126 
L 174.421237 136.161275 
L 176.114522 136.427014 
L 178.791684 136.580753 
L 182.755732 136.573961 
L 189.235904 136.321533 
L 221.136926 134.758959 
L 227.81176 134.717793 
L 229.188368 134.745376 
L 229.188368 134.745376 
" style="fill:none;stroke:#000000;stroke-linecap:square;stroke-opacity:0.7;stroke-width:1.2;"/>
   </g>
   <g id="line2d_27">
    <path clip-path="url(#pd159e150dd)" d="M 228.765415 115.686533 
L 225.192329 114.634011 
L 218.609115 112.934324 
L 211.539449 111.332746 
L 205.373254 110.170331 
L 200.175841 109.412892 
L 195.739548 108.966666 
L 191.669461 108.769258 
L 187.863912 108.825045 
L 184.851109 109.080656 
L 182.339274 109.475433 
L 180.072031 110.013046 
L 177.744864 110.803286 
L 176.149804 111.538267 
L 174.677849 112.424758 
L 173.388158 113.487969 
L 172.644102 114.413791 
L 172.420973 114.882813 
L 172.371783 115.605734 
L 172.637889 116.041485 
L 173.101198 116.346416 
L 173.857215 116.592911 
L 175.628693 116.821952 
L 178.592064 116.888141 
L 184.62797 116.730195 
L 212.354763 115.776744 
L 223.695795 115.631238 
L 228.736958 115.646377 
L 228.736958 115.646377 
" style="fill:none;stroke:#000000;stroke-linecap:square;stroke-opacity:0.7;stroke-width:1.2;"/>
   </g>
   <g id="line2d_28">
    <path clip-path="url(#pd159e150dd)" d="M 229.110157 96.520761 
L 225.256143 95.251159 
L 220.011109 93.771761 
L 213.404502 92.162832 
L 206.987804 90.836957 
L 201.674606 89.962078 
L 197.404501 89.461914 
L 193.35419 89.208919 
L 189.645625 89.212633 
L 186.535944 89.42554 
L 183.447517 89.868876 
L 181.023438 90.419682 
L 178.801911 91.127074 
L 176.761735 92.002467 
L 174.81215 93.125883 
L 173.48933 94.152349 
L 172.573571 95.171756 
L 172.250758 95.831447 
L 172.264969 96.407268 
L 172.502589 96.727146 
L 173.047587 97.021214 
L 173.807721 97.208436 
L 175.50151 97.359703 
L 178.616911 97.35314 
L 185.548031 97.032425 
L 202.852461 96.152936 
L 211.027216 96.01704 
L 218.909893 96.115293 
L 228.393672 96.471479 
L 229.106609 96.504458 
L 229.106609 96.504458 
" style="fill:none;stroke:#000000;stroke-linecap:square;stroke-opacity:0.7;stroke-width:1.2;"/>
   </g>
   <g id="line2d_29">
    <path clip-path="url(#pd159e150dd)" d="M 229.439114 77.369813 
L 223.864334 75.676673 
L 217.624663 74.033115 
L 211.873988 72.752643 
L 206.547541 71.802118 
L 201.470575 71.125706 
L 196.840058 70.711331 
L 192.270796 70.51914 
L 188.297411 70.582027 
L 185.174497 70.842425 
L 182.186244 71.33637 
L 179.680896 72.000881 
L 177.413398 72.862468 
L 175.738525 73.705295 
L 173.98766 74.856335 
L 172.85681 75.882411 
L 172.345565 76.618146 
L 172.243475 77.129751 
L 172.355563 77.395603 
L 172.66378 77.627094 
L 173.170125 77.781491 
L 174.403105 77.873985 
L 176.351011 77.780179 
L 181.446176 77.222861 
L 190.025277 76.287466 
L 195.198767 75.946764 
L 200.722119 75.833195 
L 207.257637 75.944954 
L 215.622067 76.30927 
L 223.633461 76.878699 
L 229.426847 77.360151 
L 229.426847 77.360151 
" style="fill:none;stroke:#000000;stroke-linecap:square;stroke-opacity:0.7;stroke-width:1.2;"/>
   </g>
   <g id="line2d_30">
    <path clip-path="url(#pd159e150dd)" d="M 229.328526 58.211309 
L 223.754112 56.514207 
L 218.402371 55.116841 
L 212.698073 53.844764 
L 206.787188 52.752849 
L 200.93478 51.910212 
L 196.326775 51.452681 
L 192.291493 51.25612 
L 188.374952 51.310667 
L 185.17128 51.592146 
L 182.277399 52.087874 
L 179.932986 52.708588 
L 177.803537 53.493569 
L 175.739403 54.521161 
L 174.035313 55.66097 
L 173.0016 56.609036 
L 172.567153 57.218239 
L 172.459325 57.682199 
L 172.608738 57.953216 
L 173.094608 58.156083 
L 174.132568 58.215407 
L 176.385312 58.010038 
L 183.399712 56.974082 
L 189.88551 56.139039 
L 194.58054 55.753302 
L 199.234672 55.607216 
L 204.49237 55.698214 
L 209.913589 56.016709 
L 215.937314 56.600802 
L 229.313312 58.204369 
L 229.313312 58.204369 
" style="fill:none;stroke:#000000;stroke-linecap:square;stroke-opacity:0.7;stroke-width:1.2;"/>
   </g>
   <g id="line2d_31">
    <path clip-path="url(#pd159e150dd)" d="M 293.182087 230.669146 
L 282.385535 227.955576 
L 275.524421 226.421811 
L 270.269998 225.492076 
L 265.582816 224.912 
L 260.936016 224.580784 
L 256.672637 224.487766 
L 252.722172 224.594966 
L 249.180888 224.88106 
L 245.795105 225.373506 
L 243.129517 225.967097 
L 240.700485 226.739835 
L 238.878748 227.555163 
L 237.557633 228.396786 
L 236.783251 229.14407 
L 236.349796 229.943705 
L 236.293472 230.459082 
L 236.417017 230.959128 
L 236.681223 231.399378 
L 237.403654 232.082158 
L 238.464709 232.725097 
L 240.117074 233.435631 
L 242.591849 234.210904 
L 245.95435 234.973254 
L 249.496045 235.536311 
L 253.63421 235.943661 
L 257.851554 236.106189 
L 261.658854 236.041179 
L 266.14507 235.715923 
L 271.065193 235.09683 
L 277.708553 233.995827 
L 285.99822 232.391974 
L 290.642938 231.316734 
L 293.189781 230.618268 
L 293.189781 230.618268 
" style="fill:none;stroke:#000000;stroke-linecap:square;stroke-opacity:0.7;stroke-width:1.2;"/>
   </g>
   <g id="line2d_32">
    <path clip-path="url(#pd159e150dd)" d="M 292.92151 211.476924 
L 286.827019 209.937433 
L 278.32427 208.019336 
L 272.477346 206.914166 
L 267.370639 206.180894 
L 262.254927 205.685443 
L 257.599314 205.450293 
L 253.211007 205.456287 
L 249.361434 205.70302 
L 246.210632 206.127892 
L 243.5659 206.687397 
L 241.450951 207.311607 
L 239.248827 208.205677 
L 237.805116 209.025361 
L 237.049023 209.612012 
L 236.346078 210.471919 
L 236.16412 211.154049 
L 236.285188 211.661036 
L 236.732084 212.221472 
L 237.365209 212.660384 
L 238.84461 213.293834 
L 241.124534 213.902827 
L 244.168462 214.429673 
L 247.897028 214.830928 
L 252.486594 215.069134 
L 257.103953 215.078548 
L 262.382802 214.853366 
L 269.043188 214.31149 
L 278.754306 213.264585 
L 289.427387 211.887357 
L 292.921777 211.418059 
L 292.921777 211.418059 
" style="fill:none;stroke:#000000;stroke-linecap:square;stroke-opacity:0.7;stroke-width:1.2;"/>
   </g>
   <g id="line2d_33">
    <path clip-path="url(#pd159e150dd)" d="M 293.071243 192.351171 
L 288.16615 191.081343 
L 280.462004 189.333727 
L 273.860947 188.04232 
L 268.594954 187.230438 
L 263.511114 186.662733 
L 258.935206 186.347232 
L 254.485839 186.259205 
L 250.612611 186.413145 
L 247.533257 186.734726 
L 244.449725 187.286219 
L 241.601883 188.07036 
L 239.468847 188.913349 
L 237.878035 189.79124 
L 236.929205 190.539028 
L 236.422367 191.151744 
L 236.203871 191.662644 
L 236.211606 192.205905 
L 236.404732 192.598134 
L 236.770634 192.971826 
L 237.739965 193.527765 
L 239.24622 194.039337 
L 241.59627 194.545399 
L 244.629078 194.966152 
L 249.103777 195.327784 
L 253.80565 195.476704 
L 258.917761 195.417509 
L 264.994129 195.094256 
L 272.704223 194.424524 
L 286.904447 192.923833 
L 293.081166 192.284326 
L 293.081166 192.284326 
" style="fill:none;stroke:#000000;stroke-linecap:square;stroke-opacity:0.7;stroke-width:1.2;"/>
   </g>
   <g id="line2d_34">
    <path clip-path="url(#pd159e150dd)" d="M 292.740607 173.150308 
L 286.918202 171.734145 
L 278.51284 169.900891 
L 271.892201 168.672908 
L 266.75419 167.951342 
L 262.198259 167.523035 
L 257.397693 167.306447 
L 253.418796 167.333161 
L 249.563159 167.577001 
L 246.67291 167.938935 
L 243.77164 168.507445 
L 241.378793 169.189902 
L 239.347784 169.999344 
L 237.855118 170.833641 
L 236.93472 171.585447 
L 236.480368 172.199487 
L 236.339063 172.668133 
L 236.455826 173.21277 
L 236.913197 173.704121 
L 237.576307 174.075256 
L 239.082339 174.561172 
L 241.038771 174.933616 
L 244.370534 175.304468 
L 248.846205 175.550323 
L 254.120451 175.618635 
L 259.869829 175.489914 
L 267.202582 175.086244 
L 278.028349 174.225737 
L 292.127925 173.143919 
L 292.744166 173.107476 
L 292.744166 173.107476 
" style="fill:none;stroke:#000000;stroke-linecap:square;stroke-opacity:0.7;stroke-width:1.2;"/>
   </g>
   <g id="line2d_35">
    <path clip-path="url(#pd159e150dd)" d="M 292.756577 153.930302 
L 288.280832 152.744583 
L 281.368966 151.156847 
L 274.320082 149.74013 
L 268.602433 148.797213 
L 263.833242 148.213089 
L 259.238588 147.862182 
L 254.913564 147.748111 
L 251.108529 147.848133 
L 247.595047 148.148824 
L 244.562736 148.633374 
L 242.280749 149.205573 
L 240.314202 149.918589 
L 238.826764 150.66444 
L 237.629992 151.476715 
L 236.67888 152.405808 
L 236.192276 153.270563 
L 236.143309 153.831542 
L 236.243117 154.131902 
L 236.555474 154.506956 
L 237.251114 154.897679 
L 238.154859 155.168311 
L 240.090756 155.46994 
L 242.925906 155.679725 
L 248.850921 155.846159 
L 255.997864 155.817503 
L 262.970361 155.553713 
L 272.162861 154.940157 
L 284.197798 154.177729 
L 292.119346 153.906605 
L 292.760942 153.894766 
L 292.760942 153.894766 
" style="fill:none;stroke:#000000;stroke-linecap:square;stroke-opacity:0.7;stroke-width:1.2;"/>
   </g>
   <g id="line2d_36">
    <path clip-path="url(#pd159e150dd)" d="M 293.225228 134.85737 
L 287.541415 133.32557 
L 280.651654 131.704679 
L 274.621342 130.487057 
L 269.594842 129.664815 
L 264.44823 129.045489 
L 259.970127 128.719248 
L 256.129804 128.632213 
L 252.17295 128.773837 
L 249.067279 129.083959 
L 246.028249 129.591343 
L 243.635174 130.163258 
L 241.315495 130.903828 
L 239.471628 131.674522 
L 237.980029 132.488307 
L 236.776225 133.410195 
L 236.163601 134.2438 
L 236.08579 134.729054 
L 236.226952 135.0827 
L 236.696047 135.464672 
L 237.391141 135.727763 
L 238.352026 135.917736 
L 240.391927 136.074547 
L 243.872898 136.058993 
L 251.612788 135.695026 
L 262.557132 135.228582 
L 279.844833 134.810625 
L 288.962883 134.764087 
L 293.224404 134.812439 
L 293.224404 134.812439 
" style="fill:none;stroke:#000000;stroke-linecap:square;stroke-opacity:0.7;stroke-width:1.2;"/>
   </g>
   <g id="line2d_37">
    <path clip-path="url(#pd159e150dd)" d="M 293.21471 115.718115 
L 287.746485 114.300941 
L 280.926471 112.767182 
L 274.845395 111.613675 
L 269.404652 110.807921 
L 264.204069 110.258875 
L 259.332666 109.954725 
L 255.248307 109.893808 
L 251.41608 110.04819 
L 248.256675 110.372259 
L 245.171309 110.904866 
L 242.651753 111.539259 
L 240.392135 112.309133 
L 238.432573 113.202166 
L 237.192965 113.960403 
L 236.273122 114.798612 
L 236.015073 115.319323 
L 236.077759 115.701609 
L 236.422615 116.012128 
L 237.323469 116.300012 
L 238.639176 116.445877 
L 241.107157 116.468434 
L 245.777201 116.237719 
L 260.437778 115.381648 
L 267.874251 115.257392 
L 281.800478 115.29743 
L 290.383045 115.518952 
L 293.215158 115.645226 
L 293.215158 115.645226 
" style="fill:none;stroke:#000000;stroke-linecap:square;stroke-opacity:0.7;stroke-width:1.2;"/>
   </g>
   <g id="line2d_38">
    <path clip-path="url(#pd159e150dd)" d="M 293.195979 96.538524 
L 288.812525 95.340747 
L 282.753213 93.927564 
L 275.571253 92.483336 
L 269.657582 91.529799 
L 264.374893 90.913406 
L 259.965355 90.593269 
L 255.352276 90.493981 
L 251.658839 90.64343 
L 248.53491 90.975671 
L 245.510055 91.522155 
L 242.667565 92.289631 
L 240.34786 93.158866 
L 238.354488 94.172534 
L 237.218786 94.960297 
L 236.502809 95.691694 
L 236.26533 96.255942 
L 236.349671 96.578625 
L 236.710054 96.860244 
L 237.361395 97.046786 
L 238.781911 97.150729 
L 240.937863 97.078178 
L 246.835235 96.561541 
L 255.103035 95.873321 
L 260.893088 95.627283 
L 267.625904 95.603125 
L 278.468229 95.848322 
L 289.311091 96.310054 
L 293.187563 96.515917 
L 293.187563 96.515917 
" style="fill:none;stroke:#000000;stroke-linecap:square;stroke-opacity:0.7;stroke-width:1.2;"/>
   </g>
   <g id="line2d_39">
    <path clip-path="url(#pd159e150dd)" d="M 292.982815 77.34769 
L 288.956166 76.180211 
L 283.62855 74.851338 
L 277.53842 73.573344 
L 272.160191 72.684946 
L 266.506913 72.001293 
L 260.515862 71.521088 
L 255.459213 71.346559 
L 251.755604 71.419127 
L 248.733296 71.657778 
L 245.471225 72.161992 
L 243.154085 72.724196 
L 240.89782 73.483706 
L 238.938053 74.367993 
L 237.153296 75.458195 
L 236.211902 76.286993 
L 235.875752 76.775332 
L 235.821169 77.238515 
L 235.944773 77.431435 
L 236.432149 77.683873 
L 237.609251 77.847176 
L 239.918579 77.819438 
L 244.985461 77.445936 
L 257.073289 76.51402 
L 263.563841 76.265514 
L 270.393988 76.254475 
L 277.69771 76.482992 
L 287.346737 77.041974 
L 292.975336 77.38828 
L 292.975336 77.38828 
" style="fill:none;stroke:#000000;stroke-linecap:square;stroke-opacity:0.7;stroke-width:1.2;"/>
   </g>
   <g id="line2d_40">
    <path clip-path="url(#pd159e150dd)" d="M 292.73909 58.292087 
L 288.945184 57.170658 
L 283.759025 55.855185 
L 278.393823 54.700946 
L 273.125782 53.78878 
L 267.871612 53.104449 
L 262.121969 52.578245 
L 257.067755 52.324707 
L 253.256599 52.324412 
L 250.026822 52.511308 
L 246.824154 52.930126 
L 244.518462 53.421539 
L 242.118173 54.153571 
L 240.093098 54.999484 
L 238.258829 56.023515 
L 237.121615 56.873966 
L 236.377187 57.733541 
L 236.301896 58.156554 
L 236.507159 58.383631 
L 236.789489 58.482232 
L 237.778107 58.544451 
L 240.141909 58.34042 
L 252.548456 56.927992 
L 257.526151 56.643623 
L 261.960526 56.58207 
L 267.429011 56.710042 
L 275.613932 57.154229 
L 292.745321 58.282478 
L 292.745321 58.282478 
" style="fill:none;stroke:#000000;stroke-linecap:square;stroke-opacity:0.7;stroke-width:1.2;"/>
   </g>
   <g id="line2d_41">
    <path clip-path="url(#pd159e150dd)" d="M 356.541911 230.647607 
L 345.829025 228.412991 
L 335.747542 226.439473 
L 330.487842 225.621176 
L 325.610736 225.096372 
L 321.330377 224.853309 
L 317.129218 224.835624 
L 313.106463 225.046686 
L 309.610902 225.441046 
L 306.321543 226.051817 
L 304.137463 226.656147 
L 302.419022 227.325882 
L 301.073305 228.081816 
L 300.16545 228.881504 
L 299.78367 229.490462 
L 299.696772 229.76916 
L 299.768025 230.550277 
L 300.070442 231.028865 
L 300.573892 231.482777 
L 301.637853 232.087305 
L 303.370256 232.727713 
L 305.929478 233.371061 
L 309.184454 233.933477 
L 312.955511 234.35685 
L 316.958931 234.593124 
L 321.473718 234.6245 
L 326.239807 234.421541 
L 332.468897 233.906714 
L 341.271932 232.946998 
L 347.905546 232.044276 
L 355.202524 230.817938 
L 356.570046 230.571654 
L 356.570046 230.571654 
" style="fill:none;stroke:#000000;stroke-linecap:square;stroke-opacity:0.7;stroke-width:1.2;"/>
   </g>
   <g id="line2d_42">
    <path clip-path="url(#pd159e150dd)" d="M 356.52696 211.462109 
L 341.444781 208.338946 
L 335.61125 207.295891 
L 330.983417 206.672007 
L 326.480093 206.269421 
L 322.048647 206.064964 
L 317.406267 206.063466 
L 313.046214 206.298837 
L 309.301403 206.74388 
L 306.22513 207.354242 
L 304.090905 207.983184 
L 302.518993 208.632033 
L 301.235433 209.398132 
L 300.482991 210.127824 
L 300.206444 210.669243 
L 300.184357 211.204347 
L 300.416958 211.700236 
L 300.751279 212.049762 
L 301.462597 212.518312 
L 302.980858 213.138612 
L 305.122645 213.703212 
L 308.223225 214.248379 
L 312.102768 214.682854 
L 316.516551 214.944604 
L 321.23598 214.994432 
L 326.411518 214.807487 
L 332.454968 214.350544 
L 341.370648 213.424955 
L 350.685303 212.23881 
L 356.543186 211.428392 
L 356.543186 211.428392 
" style="fill:none;stroke:#000000;stroke-linecap:square;stroke-opacity:0.7;stroke-width:1.2;"/>
   </g>
   <g id="line2d_43">
    <path clip-path="url(#pd159e150dd)" d="M 356.603862 192.285664 
L 352.253103 191.273641 
L 342.055546 189.142296 
L 332.916529 187.421072 
L 327.941371 186.683184 
L 324.105238 186.309783 
L 320.074344 186.160984 
L 316.413604 186.270386 
L 312.829459 186.616951 
L 309.502092 187.168008 
L 306.522785 187.888712 
L 304.274948 188.635233 
L 302.559592 189.399758 
L 301.19983 190.244273 
L 300.350304 191.079613 
L 300.058915 191.702412 
L 300.074379 192.170165 
L 300.310746 192.591432 
L 300.846583 193.022736 
L 301.67482 193.40806 
L 303.297037 193.867563 
L 305.747916 194.291397 
L 309.580218 194.685896 
L 314.130876 194.927011 
L 319.399906 194.988323 
L 325.330966 194.826392 
L 332.920423 194.375534 
L 343.443597 193.523502 
L 356.602587 192.278863 
L 356.602587 192.278863 
" style="fill:none;stroke:#000000;stroke-linecap:square;stroke-opacity:0.7;stroke-width:1.2;"/>
   </g>
   <g id="line2d_44">
    <path clip-path="url(#pd159e150dd)" d="M 356.4939 173.161401 
L 351.279626 172.000245 
L 342.748678 170.342407 
L 335.665096 169.173021 
L 330.352058 168.515722 
L 325.472945 168.122438 
L 320.915493 167.952728 
L 316.327725 168.001238 
L 312.589176 168.23966 
L 308.952528 168.698802 
L 305.867475 169.341947 
L 303.774187 169.986314 
L 302.361627 170.579721 
L 301.036915 171.364171 
L 300.297596 172.073697 
L 300.064676 172.516553 
L 300.051114 173.00627 
L 300.262212 173.381525 
L 300.70208 173.735985 
L 301.810574 174.203312 
L 303.698284 174.633069 
L 306.737672 175.024472 
L 311.480891 175.355484 
L 317.242243 175.517033 
L 323.04028 175.465781 
L 329.429 175.182595 
L 339.206413 174.483698 
L 356.490922 173.125925 
L 356.490922 173.125925 
" style="fill:none;stroke:#000000;stroke-linecap:square;stroke-opacity:0.7;stroke-width:1.2;"/>
   </g>
   <g id="line2d_45">
    <path clip-path="url(#pd159e150dd)" d="M 356.647584 154.002247 
L 351.9688 152.954199 
L 341.748311 150.91867 
L 331.701751 149.11072 
L 326.618972 148.402889 
L 322.89496 148.082837 
L 319.680802 147.987991 
L 316.657231 148.072898 
L 312.959189 148.422998 
L 309.747342 148.965561 
L 306.678323 149.733359 
L 304.556117 150.462596 
L 302.819592 151.255318 
L 301.45394 152.120224 
L 300.671839 152.884171 
L 300.357213 153.584169 
L 300.419817 154.000618 
L 300.721298 154.378663 
L 301.362092 154.74184 
L 302.166287 154.998034 
L 304.431554 155.368781 
L 307.939864 155.606789 
L 313.010222 155.700664 
L 320.790142 155.596445 
L 331.040754 155.215155 
L 356.638259 154.006786 
L 356.638259 154.006786 
" style="fill:none;stroke:#000000;stroke-linecap:square;stroke-opacity:0.7;stroke-width:1.2;"/>
   </g>
   <g id="line2d_46">
    <path clip-path="url(#pd159e150dd)" d="M 356.865574 134.896394 
L 349.87742 133.32483 
L 341.820024 131.745269 
L 335.975465 130.815298 
L 330.646191 130.181061 
L 324.919204 129.725309 
L 320.235613 129.547277 
L 315.760077 129.607203 
L 312.121015 129.890453 
L 308.840761 130.389084 
L 306.049412 131.050476 
L 303.696547 131.835806 
L 302.163492 132.51173 
L 300.852292 133.274238 
L 300.268377 133.734493 
L 299.731908 134.446932 
L 299.717253 134.894596 
L 300.001773 135.249492 
L 300.649763 135.563745 
L 302.098428 135.871449 
L 304.002561 136.046553 
L 307.736421 136.153702 
L 315.00407 136.08908 
L 333.652898 135.622039 
L 356.845871 134.902697 
L 356.845871 134.902697 
" style="fill:none;stroke:#000000;stroke-linecap:square;stroke-opacity:0.7;stroke-width:1.2;"/>
   </g>
   <g id="line2d_47">
    <path clip-path="url(#pd159e150dd)" d="M 356.771308 115.78999 
L 349.995849 114.236406 
L 342.716591 112.776484 
L 336.776471 111.789535 
L 331.549865 111.138516 
L 326.266656 110.705376 
L 321.128214 110.500121 
L 316.593314 110.53517 
L 312.826272 110.779455 
L 309.8144 111.168752 
L 307.094706 111.719748 
L 304.737617 112.404321 
L 302.628073 113.255039 
L 301.348852 113.957624 
L 300.393349 114.713686 
L 300.025403 115.278165 
L 300.049156 115.709271 
L 300.330921 116.009898 
L 300.831892 116.248171 
L 302.027394 116.517488 
L 304.406855 116.720937 
L 308.363285 116.778931 
L 315.442688 116.625907 
L 348.536956 115.677931 
L 355.141021 115.693793 
L 356.767424 115.734572 
L 356.767424 115.734572 
" style="fill:none;stroke:#000000;stroke-linecap:square;stroke-opacity:0.7;stroke-width:1.2;"/>
   </g>
   <g id="line2d_48">
    <path clip-path="url(#pd159e150dd)" d="M 356.489562 96.490283 
L 352.640018 95.642703 
L 343.012075 93.74127 
L 332.397905 91.857303 
L 326.012553 90.913964 
L 321.597148 90.491834 
L 317.60873 90.321554 
L 313.405623 90.37785 
L 310.462291 90.592523 
L 307.247354 91.065943 
L 305.11964 91.601164 
L 303.296515 92.309727 
L 301.909011 93.112976 
L 300.710264 94.115395 
L 299.841589 95.201031 
L 299.519203 95.968999 
L 299.585825 96.479568 
L 299.701668 96.618032 
L 300.152989 96.835713 
L 300.902364 96.936656 
L 302.992194 96.885183 
L 318.588743 95.936299 
L 324.436366 95.94908 
L 356.463649 96.491222 
L 356.463649 96.491222 
" style="fill:none;stroke:#000000;stroke-linecap:square;stroke-opacity:0.7;stroke-width:1.2;"/>
   </g>
   <g id="line2d_49">
    <path clip-path="url(#pd159e150dd)" d="M 356.791 77.52156 
L 349.213209 75.817625 
L 341.982257 74.412081 
L 335.683595 73.435361 
L 330.055577 72.797799 
L 324.777463 72.40531 
L 319.587416 72.244274 
L 315.560521 72.329916 
L 311.974621 72.624834 
L 308.934357 73.093705 
L 306.040648 73.789741 
L 303.825553 74.546125 
L 302.139764 75.315052 
L 300.718839 76.217482 
L 300.10213 76.875031 
L 300.008683 77.293922 
L 300.155289 77.524467 
L 300.710013 77.769952 
L 301.514099 77.884485 
L 303.69175 77.885895 
L 308.254194 77.562121 
L 318.044417 76.841455 
L 324.652348 76.609229 
L 332.172935 76.588266 
L 341.535585 76.786619 
L 352.446427 77.259148 
L 356.776544 77.467929 
L 356.776544 77.467929 
" style="fill:none;stroke:#000000;stroke-linecap:square;stroke-opacity:0.7;stroke-width:1.2;"/>
   </g>
   <g id="line2d_50">
    <path clip-path="url(#pd159e150dd)" d="M 356.55166 58.281533 
L 353.111503 57.470531 
L 345.543892 55.933685 
L 335.23614 54.085621 
L 326.222531 52.671074 
L 322.230303 52.250211 
L 319.021508 52.092382 
L 315.60717 52.132832 
L 312.170645 52.422837 
L 309.901141 52.776955 
L 307.265609 53.391147 
L 305.086344 54.11233 
L 303.166112 54.966171 
L 301.596656 55.878712 
L 300.20751 56.97485 
L 299.770098 57.611601 
L 299.87476 57.797935 
L 300.37957 57.843599 
L 301.866508 57.61318 
L 307.689151 56.61014 
L 311.920521 56.137688 
L 315.396477 55.929613 
L 319.746417 55.898631 
L 324.545824 56.109829 
L 332.557523 56.733318 
L 348.068637 57.939009 
L 354.40711 58.215647 
L 356.546338 58.250006 
L 356.546338 58.250006 
" style="fill:none;stroke:#000000;stroke-linecap:square;stroke-opacity:0.7;stroke-width:1.2;"/>
   </g>
   <g id="line2d_51">
    <path clip-path="url(#pd159e150dd)" d="M 420.337247 230.629817 
L 412.865102 229.190707 
L 398.709099 226.67492 
L 392.624366 225.774017 
L 388.002568 225.301846 
L 384.092518 225.106474 
L 379.952458 225.130429 
L 376.151008 225.376388 
L 372.807917 225.795036 
L 369.79577 226.386212 
L 367.337857 227.102094 
L 365.608487 227.831402 
L 364.34179 228.622713 
L 363.581262 229.436811 
L 363.356709 230.121445 
L 363.515744 230.737721 
L 363.971422 231.263061 
L 364.839128 231.81693 
L 366.175615 232.36517 
L 368.593146 233.027079 
L 371.612302 233.587914 
L 375.460717 234.062573 
L 379.326638 234.34328 
L 384.006447 234.462754 
L 389.107015 234.352839 
L 394.663229 234.01076 
L 401.168129 233.401717 
L 407.789032 232.567953 
L 416.211498 231.247055 
L 420.332506 230.594487 
L 420.332506 230.594487 
" style="fill:none;stroke:#000000;stroke-linecap:square;stroke-opacity:0.7;stroke-width:1.2;"/>
   </g>
   <g id="line2d_52">
    <path clip-path="url(#pd159e150dd)" d="M 420.398364 211.531421 
L 404.376682 208.50289 
L 398.452893 207.641083 
L 392.926727 207.074915 
L 387.218612 206.713938 
L 382.065895 206.605414 
L 377.709133 206.7324 
L 373.686816 207.093069 
L 370.7633 207.552463 
L 368.301366 208.119736 
L 366.193963 208.809496 
L 364.746618 209.492675 
L 363.767061 210.231401 
L 363.397156 210.858233 
L 363.415784 211.323376 
L 363.675812 211.746788 
L 364.133008 212.12664 
L 364.888232 212.530444 
L 366.116701 212.978668 
L 368.524523 213.561038 
L 371.809175 214.069994 
L 375.439636 214.423757 
L 380.586196 214.676549 
L 385.697358 214.698083 
L 390.972639 214.506863 
L 397.309911 214.038311 
L 406.468383 213.097319 
L 420.392573 211.490527 
L 420.392573 211.490527 
" style="fill:none;stroke:#000000;stroke-linecap:square;stroke-opacity:0.7;stroke-width:1.2;"/>
   </g>
   <g id="line2d_53">
    <path clip-path="url(#pd159e150dd)" d="M 420.076017 192.227168 
L 413.127022 190.940797 
L 401.310448 188.943398 
L 394.824191 188.067672 
L 389.641946 187.580521 
L 385.112403 187.349129 
L 380.56673 187.335756 
L 376.515594 187.542357 
L 373.000681 187.928284 
L 369.955776 188.476914 
L 367.829673 189.04115 
L 365.786603 189.834342 
L 364.575812 190.558322 
L 363.90139 191.249804 
L 363.711974 191.82884 
L 363.812933 192.215037 
L 363.998962 192.465787 
L 364.543162 192.865039 
L 365.44288 193.248818 
L 367.07186 193.680181 
L 369.754428 194.125997 
L 373.109218 194.48515 
L 378.399109 194.804409 
L 383.366365 194.888222 
L 388.611412 194.765021 
L 395.241402 194.360484 
L 406.559101 193.385193 
L 420.087663 192.197673 
L 420.087663 192.197673 
" style="fill:none;stroke:#000000;stroke-linecap:square;stroke-opacity:0.7;stroke-width:1.2;"/>
   </g>
   <g id="line2d_54">
    <path clip-path="url(#pd159e150dd)" d="M 420.456736 173.220637 
L 413.103953 171.789186 
L 403.479181 170.123969 
L 396.838573 169.189781 
L 390.936868 168.598725 
L 385.589315 168.298211 
L 381.321922 168.26002 
L 377.695553 168.410065 
L 373.938332 168.791883 
L 371.354448 169.223934 
L 368.569214 169.897123 
L 366.193275 170.729241 
L 364.751479 171.458504 
L 363.825807 172.192397 
L 363.506191 172.758769 
L 363.54639 173.172722 
L 363.867941 173.56233 
L 364.62617 173.970293 
L 366.170373 174.398947 
L 368.465413 174.746701 
L 371.850825 175.024453 
L 377.362996 175.209977 
L 383.621849 175.203116 
L 391.542052 174.976226 
L 400.676033 174.489223 
L 420.44994 173.163171 
L 420.44994 173.163171 
" style="fill:none;stroke:#000000;stroke-linecap:square;stroke-opacity:0.7;stroke-width:1.2;"/>
   </g>
   <g id="line2d_55">
    <path clip-path="url(#pd159e150dd)" d="M 420.407616 154.079106 
L 415.664859 153.06672 
L 406.936925 151.473515 
L 400.449758 150.486881 
L 394.643958 149.843703 
L 388.748174 149.416458 
L 382.884081 149.216408 
L 378.613734 149.282168 
L 374.861864 149.564265 
L 371.886075 149.991639 
L 369.462967 150.514878 
L 367.066557 151.244677 
L 365.108219 152.094335 
L 364.018176 152.787429 
L 363.443649 153.403094 
L 363.318239 153.814108 
L 363.475473 154.216209 
L 364.103779 154.641485 
L 365.173549 154.978568 
L 367.138549 155.305519 
L 370.315538 155.574483 
L 375.40586 155.749941 
L 381.839591 155.749043 
L 390.328431 155.525556 
L 401.379081 155.009962 
L 419.549821 154.082702 
L 420.412904 154.065403 
L 420.412904 154.065403 
" style="fill:none;stroke:#000000;stroke-linecap:square;stroke-opacity:0.7;stroke-width:1.2;"/>
   </g>
   <g id="line2d_56">
    <path clip-path="url(#pd159e150dd)" d="M 419.806307 134.851746 
L 416.411211 134.095141 
L 409.17573 132.738942 
L 402.23004 131.639684 
L 396.329885 130.916532 
L 390.418917 130.424272 
L 385.159743 130.199749 
L 380.78253 130.203541 
L 376.760436 130.408528 
L 373.186019 130.808287 
L 370.237743 131.350979 
L 367.893014 131.980581 
L 366.1939 132.606293 
L 364.60558 133.443861 
L 363.956441 133.991244 
L 363.677646 134.548674 
L 363.729223 134.80614 
L 363.902723 135.025062 
L 364.344644 135.291063 
L 365.542601 135.632266 
L 367.843561 135.931299 
L 371.615581 136.149297 
L 377.83723 136.260635 
L 386.060658 136.170534 
L 397.381429 135.788916 
L 419.791718 134.799823 
L 419.791718 134.799823 
" style="fill:none;stroke:#000000;stroke-linecap:square;stroke-opacity:0.7;stroke-width:1.2;"/>
   </g>
   <g id="line2d_57">
    <path clip-path="url(#pd159e150dd)" d="M 420.428939 115.769964 
L 415.685036 114.714667 
L 408.378812 113.333081 
L 401.857901 112.299115 
L 396.630133 111.669698 
L 391.479819 111.252616 
L 386.287233 111.03077 
L 381.017192 111.035942 
L 376.801129 111.268717 
L 373.181118 111.70082 
L 370.318178 112.254959 
L 367.987496 112.901436 
L 365.82761 113.745234 
L 364.672928 114.382204 
L 363.908053 115.026845 
L 363.690659 115.421103 
L 363.716714 115.736888 
L 363.967572 116.014036 
L 364.426101 116.236461 
L 365.720468 116.521987 
L 368.088385 116.719638 
L 372.765106 116.792237 
L 380.580561 116.643477 
L 413.389493 115.782904 
L 420.423583 115.737262 
L 420.423583 115.737262 
" style="fill:none;stroke:#000000;stroke-linecap:square;stroke-opacity:0.7;stroke-width:1.2;"/>
   </g>
   <g id="line2d_58">
    <path clip-path="url(#pd159e150dd)" d="M 420.261254 96.606321 
L 415.001687 95.436588 
L 408.414771 94.190582 
L 401.953203 93.192945 
L 396.076083 92.517856 
L 389.407612 91.988724 
L 384.109891 91.758816 
L 379.721874 91.773135 
L 376.48233 91.962876 
L 373.316544 92.347444 
L 370.40646 92.922891 
L 368.174118 93.547528 
L 365.944784 94.390304 
L 364.540302 95.110723 
L 363.639744 95.784368 
L 363.345858 96.236222 
L 363.370655 96.50563 
L 363.600069 96.731518 
L 364.271777 96.966943 
L 365.799346 97.144291 
L 368.720855 97.184876 
L 374.700733 96.997499 
L 391.036663 96.425723 
L 402.312329 96.316312 
L 412.852287 96.422237 
L 420.270176 96.596809 
L 420.270176 96.596809 
" style="fill:none;stroke:#000000;stroke-linecap:square;stroke-opacity:0.7;stroke-width:1.2;"/>
   </g>
   <g id="line2d_59">
    <path clip-path="url(#pd159e150dd)" d="M 420.57994 77.49221 
L 412.91782 75.966708 
L 404.49171 74.477399 
L 397.491292 73.456898 
L 391.533972 72.805379 
L 386.505715 72.447475 
L 381.974608 72.338999 
L 377.972035 72.48378 
L 374.887326 72.795285 
L 371.806557 73.320223 
L 369.191762 73.972021 
L 367.006853 74.706865 
L 364.930849 75.652375 
L 363.758349 76.419163 
L 363.308538 76.920577 
L 363.264495 77.212108 
L 363.435754 77.397545 
L 363.923119 77.538256 
L 365.245279 77.569442 
L 368.209288 77.307536 
L 379.771777 76.078738 
L 384.4042 75.846758 
L 388.970746 75.836703 
L 394.96318 76.079543 
L 420.58411 77.428197 
L 420.58411 77.428197 
" style="fill:none;stroke:#000000;stroke-linecap:square;stroke-opacity:0.7;stroke-width:1.2;"/>
   </g>
   <g id="line2d_60">
    <path clip-path="url(#pd159e150dd)" d="M 420.440561 58.230565 
L 414.885469 57.117069 
L 404.580384 55.291268 
L 398.034182 54.331544 
L 392.831021 53.769205 
L 387.444264 53.400028 
L 383.041436 53.284311 
L 379.150307 53.369046 
L 375.346466 53.683788 
L 372.511683 54.116204 
L 369.95471 54.695861 
L 367.320454 55.541739 
L 365.41121 56.377232 
L 363.892117 57.293859 
L 363.391412 57.846764 
L 363.472678 58.020482 
L 363.794708 58.081489 
L 364.934813 57.965767 
L 370.723409 56.865344 
L 375.546331 56.13605 
L 379.468311 55.757932 
L 383.266582 55.602492 
L 387.363302 55.663582 
L 392.837994 56.007523 
L 406.158308 57.182157 
L 417.296304 58.081908 
L 420.428358 58.23756 
L 420.428358 58.23756 
" style="fill:none;stroke:#000000;stroke-linecap:square;stroke-opacity:0.7;stroke-width:1.2;"/>
   </g>
   <g id="line2d_61">
    <path clip-path="url(#pd159e150dd)" d="M 482.996555 230.480865 
L 462.919475 227.735456 
L 448.848266 225.879187 
L 445.575187 225.710824 
L 442.023685 225.753983 
L 438.886065 225.988999 
L 435.379814 226.475963 
L 432.557467 227.076861 
L 430.132511 227.842846 
L 428.756078 228.505209 
L 427.98831 229.068276 
L 427.496221 229.696659 
L 427.358626 230.257131 
L 427.467357 230.720312 
L 427.642046 231.0014 
L 427.941583 231.310667 
L 429.238697 232.061411 
L 430.184086 232.410534 
L 432.828326 233.083933 
L 435.776424 233.583349 
L 439.908576 234.034445 
L 443.724629 234.25331 
L 448.26101 234.290989 
L 452.292217 234.141486 
L 458.583287 233.660984 
L 466.452612 232.796674 
L 475.386122 231.564088 
L 483.072822 230.434455 
L 483.072822 230.434455 
" style="fill:none;stroke:#000000;stroke-linecap:square;stroke-opacity:0.7;stroke-width:1.2;"/>
   </g>
   <g id="line2d_62">
    <path clip-path="url(#pd159e150dd)" d="M 484.256149 211.694154 
L 463.479589 208.371364 
L 457.563512 207.75266 
L 451.955145 207.380338 
L 446.535826 207.243215 
L 442.081493 207.343017 
L 438.120506 207.640061 
L 434.538262 208.130075 
L 431.555666 208.773349 
L 429.431315 209.468644 
L 428.388766 209.976071 
L 427.680209 210.524609 
L 427.414776 210.981489 
L 427.446259 211.415241 
L 427.787169 211.861283 
L 428.549345 212.347489 
L 429.915934 212.881549 
L 432.223343 213.476572 
L 435.368379 214.023835 
L 439.083307 214.447419 
L 443.664596 214.72803 
L 448.405714 214.781064 
L 453.322882 214.615374 
L 459.522626 214.169874 
L 475.022494 212.715039 
L 482.521971 211.853392 
L 484.269217 211.621279 
L 484.269217 211.621279 
" style="fill:none;stroke:#000000;stroke-linecap:square;stroke-opacity:0.7;stroke-width:1.2;"/>
   </g>
   <g id="line2d_63">
    <path clip-path="url(#pd159e150dd)" d="M 484.05862 192.319446 
L 477.323995 191.086084 
L 467.355965 189.460047 
L 461.528876 188.708971 
L 455.79374 188.200028 
L 449.696314 187.902644 
L 444.789404 187.856862 
L 440.274747 188.025621 
L 436.530691 188.387837 
L 433.555014 188.882458 
L 431.120064 189.490718 
L 429.47112 190.074314 
L 428.190546 190.724047 
L 427.395903 191.40298 
L 427.182636 191.86387 
L 427.242232 192.264377 
L 427.492159 192.593608 
L 428.012015 192.951542 
L 429.019985 193.367059 
L 430.885784 193.843435 
L 433.919148 194.327327 
L 437.808711 194.712454 
L 443.057565 194.984118 
L 448.643227 195.028117 
L 454.428773 194.841315 
L 461.564412 194.365082 
L 471.462038 193.454842 
L 484.04935 192.300338 
L 484.04935 192.300338 
" style="fill:none;stroke:#000000;stroke-linecap:square;stroke-opacity:0.7;stroke-width:1.2;"/>
   </g>
   <g id="line2d_64">
    <path clip-path="url(#pd159e150dd)" d="M 483.817195 173.155999 
L 476.63139 171.899817 
L 466.921803 170.382615 
L 460.390898 169.585347 
L 454.642904 169.110925 
L 449.379192 168.873303 
L 444.137109 168.855253 
L 439.620963 169.074983 
L 435.925711 169.482693 
L 432.98067 170.019421 
L 430.655513 170.649904 
L 429.131378 171.240764 
L 427.969175 171.923367 
L 427.497483 172.433083 
L 427.391323 172.870676 
L 427.520866 173.190319 
L 427.933173 173.554733 
L 428.570753 173.866937 
L 430.171269 174.326706 
L 432.737199 174.753454 
L 436.607473 175.125656 
L 441.883915 175.370339 
L 447.547625 175.40393 
L 453.830962 175.222003 
L 462.826918 174.707394 
L 478.67764 173.529059 
L 483.817318 173.138964 
L 483.817318 173.138964 
" style="fill:none;stroke:#000000;stroke-linecap:square;stroke-opacity:0.7;stroke-width:1.2;"/>
   </g>
   <g id="line2d_65">
    <path clip-path="url(#pd159e150dd)" d="M 484.242883 154.164804 
L 475.343538 152.669301 
L 466.905721 151.413847 
L 461.03286 150.748706 
L 454.328132 150.231124 
L 447.831047 149.958402 
L 442.868432 149.968851 
L 438.848191 150.195797 
L 435.925207 150.533154 
L 432.833509 151.108936 
L 430.298532 151.835108 
L 428.594955 152.575446 
L 427.844932 153.082584 
L 427.434056 153.670847 
L 427.492094 154.029283 
L 427.813375 154.343825 
L 428.541581 154.672401 
L 429.643962 154.951705 
L 431.820633 155.269655 
L 435.835825 155.574505 
L 441.143526 155.749297 
L 448.47654 155.761335 
L 456.793457 155.553614 
L 467.335736 155.046087 
L 484.238224 154.120706 
L 484.238224 154.120706 
" style="fill:none;stroke:#000000;stroke-linecap:square;stroke-opacity:0.7;stroke-width:1.2;"/>
   </g>
   <g id="line2d_66">
    <path clip-path="url(#pd159e150dd)" d="M 484.177015 134.978297 
L 479.385484 134.033645 
L 471.867624 132.798521 
L 464.553836 131.810005 
L 458.70484 131.241875 
L 452.372578 130.854219 
L 446.432138 130.707574 
L 442.103048 130.797185 
L 438.411578 131.07078 
L 435.464699 131.465229 
L 432.412604 132.098066 
L 430.457754 132.678411 
L 428.878759 133.322638 
L 427.790735 133.990524 
L 427.390805 134.451762 
L 427.334995 134.787106 
L 427.564763 135.120295 
L 428.141956 135.411455 
L 429.595119 135.730625 
L 432.032786 135.954932 
L 436.304489 136.085432 
L 443.765739 136.065222 
L 454.277782 135.812184 
L 482.551705 134.964852 
L 484.177183 134.976857 
L 484.177183 134.976857 
" style="fill:none;stroke:#000000;stroke-linecap:square;stroke-opacity:0.7;stroke-width:1.2;"/>
   </g>
   <g id="line2d_67">
    <path clip-path="url(#pd159e150dd)" d="M 484.167085 115.780233 
L 477.919754 114.553548 
L 468.725965 112.966486 
L 462.731496 112.142453 
L 457.449991 111.635803 
L 452.23203 111.338714 
L 447.058105 111.239358 
L 442.596052 111.350837 
L 438.513723 111.682046 
L 435.074877 112.205317 
L 432.172849 112.900064 
L 430.056889 113.632069 
L 428.411028 114.461689 
L 427.750838 115.002365 
L 427.535502 115.463785 
L 427.661706 115.758964 
L 428.103614 116.036077 
L 429.232827 116.327559 
L 431.493556 116.567255 
L 435.378698 116.709089 
L 442.399794 116.700931 
L 452.656923 116.445557 
L 475.398089 115.839008 
L 484.167482 115.741602 
L 484.167482 115.741602 
" style="fill:none;stroke:#000000;stroke-linecap:square;stroke-opacity:0.7;stroke-width:1.2;"/>
   </g>
   <g id="line2d_68">
    <path clip-path="url(#pd159e150dd)" d="M 484.133762 96.710269 
L 475.250079 95.087632 
L 466.632049 93.685048 
L 460.199802 92.871315 
L 454.294646 92.356705 
L 448.858401 92.093557 
L 444.041609 92.088308 
L 440.211306 92.303674 
L 436.895664 92.701756 
L 433.896406 93.282971 
L 431.658018 93.899504 
L 429.48517 94.722616 
L 428.257503 95.369759 
L 427.459428 96.023028 
L 427.300758 96.462752 
L 427.483852 96.709149 
L 427.927683 96.891868 
L 428.928859 97.03436 
L 431.407377 97.052115 
L 437.192068 96.755292 
L 446.86431 96.27991 
L 454.071168 96.147484 
L 464.064484 96.223015 
L 481.939676 96.59351 
L 484.126703 96.659225 
L 484.126703 96.659225 
" style="fill:none;stroke:#000000;stroke-linecap:square;stroke-opacity:0.7;stroke-width:1.2;"/>
   </g>
   <g id="line2d_69">
    <path clip-path="url(#pd159e150dd)" d="M 484.176783 77.5359 
L 478.017527 76.368977 
L 470.103837 75.066168 
L 464.24577 74.296168 
L 458.433732 73.74349 
L 451.756291 73.33724 
L 446.063347 73.211173 
L 441.403232 73.349428 
L 437.548689 73.7089 
L 434.613404 74.184225 
L 431.789004 74.859628 
L 429.653556 75.569026 
L 428.068415 76.291951 
L 427.278638 76.838678 
L 427.06964 77.227196 
L 427.208804 77.421655 
L 427.744949 77.593928 
L 428.783801 77.678089 
L 431.709993 77.618606 
L 450.21915 76.85379 
L 459.318196 76.83596 
L 469.795895 77.03109 
L 484.158055 77.522678 
L 484.158055 77.522678 
" style="fill:none;stroke:#000000;stroke-linecap:square;stroke-opacity:0.7;stroke-width:1.2;"/>
   </g>
   <g id="line2d_70">
    <path clip-path="url(#pd159e150dd)" d="M 483.952096 58.369616 
L 478.85479 57.368423 
L 471.541654 56.141654 
L 465.754032 55.357054 
L 459.756897 54.762431 
L 452.73229 54.29816 
L 446.830405 54.10177 
L 442.221918 54.173757 
L 438.464155 54.472352 
L 435.334458 54.94973 
L 432.357221 55.657292 
L 430.099957 56.416202 
L 428.409846 57.189163 
L 427.497813 57.812269 
L 427.329663 58.111139 
L 427.484376 58.276138 
L 427.942075 58.353923 
L 429.502799 58.276228 
L 435.999748 57.483151 
L 441.714618 56.928194 
L 446.236472 56.691796 
L 450.848037 56.661937 
L 456.613412 56.855326 
L 468.509479 57.538079 
L 481.910188 58.290253 
L 483.949464 58.355312 
L 483.949464 58.355312 
" style="fill:none;stroke:#000000;stroke-linecap:square;stroke-opacity:0.7;stroke-width:1.2;"/>
   </g>
   <g id="line2d_71">
    <path clip-path="url(#pd159e150dd)" d="M 547.851556 230.724943 
L 540.457701 229.743021 
L 522.910909 227.315021 
L 517.590895 226.855556 
L 512.57109 226.631396 
L 507.392334 226.642227 
L 502.923461 226.874553 
L 499.199945 227.256688 
L 496.269585 227.728473 
L 493.78785 228.343429 
L 492.47026 228.851599 
L 491.540607 229.45053 
L 491.241407 229.833348 
L 491.157721 230.304756 
L 491.270475 230.619838 
L 491.689546 231.090333 
L 492.519193 231.613708 
L 494.108627 232.257812 
L 496.764088 232.977023 
L 499.878068 233.558313 
L 503.984114 234.060719 
L 508.130161 234.330583 
L 512.220785 234.389924 
L 517.155437 234.220133 
L 523.271611 233.74995 
L 533.700656 232.67708 
L 541.741916 231.651367 
L 547.868192 230.702942 
L 547.868192 230.702942 
" style="fill:none;stroke:#000000;stroke-linecap:square;stroke-opacity:0.7;stroke-width:1.2;"/>
   </g>
   <g id="line2d_72">
    <path clip-path="url(#pd159e150dd)" d="M 547.915913 211.635669 
L 526.019624 208.713198 
L 519.406115 208.185921 
L 512.86812 207.874163 
L 507.077823 207.821588 
L 502.604112 207.999947 
L 498.794674 208.3677 
L 495.763459 208.866115 
L 493.564629 209.416414 
L 492.051076 209.990443 
L 491.240626 210.499088 
L 490.901298 210.995983 
L 490.965044 211.405998 
L 491.256856 211.739429 
L 492.028679 212.198123 
L 493.374142 212.693763 
L 495.732506 213.2804 
L 498.996566 213.839683 
L 502.775641 214.271478 
L 507.326324 214.559324 
L 511.941117 214.634078 
L 517.189181 214.501549 
L 523.448057 214.12253 
L 532.529019 213.330407 
L 543.055502 212.188557 
L 547.920251 211.58367 
L 547.920251 211.58367 
" style="fill:none;stroke:#000000;stroke-linecap:square;stroke-opacity:0.7;stroke-width:1.2;"/>
   </g>
   <g id="line2d_73">
    <path clip-path="url(#pd159e150dd)" d="M 547.768102 192.340092 
L 533.062974 190.265417 
L 522.472109 188.813127 
L 516.821894 188.259897 
L 512.483601 188.033715 
L 507.913026 188.036434 
L 503.472466 188.297542 
L 499.527035 188.758196 
L 496.10051 189.387644 
L 494.008394 189.956031 
L 492.638926 190.495332 
L 491.732969 191.058316 
L 491.397066 191.439557 
L 491.298641 191.956632 
L 491.564518 192.398881 
L 491.990646 192.722719 
L 493.257451 193.2741 
L 495.113562 193.762287 
L 497.79339 194.221412 
L 501.500012 194.621715 
L 506.10996 194.887595 
L 511.172955 194.962337 
L 517.21696 194.817347 
L 524.90211 194.382808 
L 534.610018 193.592649 
L 547.779317 192.325745 
L 547.779317 192.325745 
" style="fill:none;stroke:#000000;stroke-linecap:square;stroke-opacity:0.7;stroke-width:1.2;"/>
   </g>
   <g id="line2d_74">
    <path clip-path="url(#pd159e150dd)" d="M 547.855022 173.280016 
L 537.792958 171.782513 
L 527.856651 170.481485 
L 521.908509 169.900661 
L 515.922756 169.533223 
L 510.28151 169.410534 
L 505.211999 169.516562 
L 500.909124 169.817479 
L 497.41204 170.277417 
L 495.134633 170.750302 
L 493.201141 171.355842 
L 491.999986 171.955843 
L 491.455061 172.444989 
L 491.305208 172.834517 
L 491.423762 173.191555 
L 491.830164 173.538072 
L 492.752261 173.93026 
L 494.596737 174.364817 
L 497.624165 174.782082 
L 502.051462 175.141307 
L 507.305252 175.351571 
L 513.051845 175.360661 
L 519.636041 175.121843 
L 529.285133 174.508526 
L 547.855262 173.214503 
L 547.855262 173.214503 
" style="fill:none;stroke:#000000;stroke-linecap:square;stroke-opacity:0.7;stroke-width:1.2;"/>
   </g>
   <g id="line2d_75">
    <path clip-path="url(#pd159e150dd)" d="M 547.85024 154.120662 
L 531.911846 151.725069 
L 526.049355 151.105801 
L 519.52355 150.647581 
L 512.923182 150.388428 
L 507.179402 150.376033 
L 502.771465 150.590373 
L 498.956756 151.013847 
L 496.314944 151.490799 
L 493.900252 152.128946 
L 492.201972 152.807306 
L 491.419279 153.338509 
L 491.197522 153.726982 
L 491.260769 153.989513 
L 491.542164 154.249847 
L 492.313848 154.579373 
L 493.756674 154.911079 
L 496.056619 155.22308 
L 500.669654 155.566885 
L 506.495753 155.750906 
L 513.591229 155.746831 
L 522.016072 155.516723 
L 531.745039 155.015632 
L 547.849215 154.080028 
L 547.849215 154.080028 
" style="fill:none;stroke:#000000;stroke-linecap:square;stroke-opacity:0.7;stroke-width:1.2;"/>
   </g>
   <g id="line2d_76">
    <path clip-path="url(#pd159e150dd)" d="M 548.053498 135.090449 
L 527.02088 131.986042 
L 521.289469 131.458458 
L 515.586644 131.12612 
L 510.464901 131.019236 
L 506.013055 131.131187 
L 502.225322 131.423329 
L 498.740955 131.892561 
L 495.449532 132.5728 
L 493.064722 133.306105 
L 491.662482 133.979767 
L 491.106141 134.540384 
L 491.10457 134.820437 
L 491.309512 135.052375 
L 491.808514 135.283641 
L 493.163229 135.545579 
L 494.904751 135.665512 
L 498.770599 135.66277 
L 515.23188 135.354501 
L 528.243314 135.389915 
L 548.065492 135.034438 
L 548.065492 135.034438 
" style="fill:none;stroke:#000000;stroke-linecap:square;stroke-opacity:0.7;stroke-width:1.2;"/>
   </g>
   <g id="line2d_77">
    <path clip-path="url(#pd159e150dd)" d="M 547.903762 115.889042 
L 536.278595 114.042562 
L 528.388634 112.995275 
L 521.885843 112.378904 
L 515.321986 112.003936 
L 509.598624 111.899686 
L 505.124449 112.024132 
L 501.23695 112.343583 
L 497.834481 112.845997 
L 494.990273 113.494165 
L 492.994633 114.152925 
L 491.568241 114.878312 
L 491.141761 115.302427 
L 491.082051 115.554923 
L 491.231299 115.809757 
L 491.785325 116.096461 
L 492.714878 116.321896 
L 495.018188 116.584646 
L 498.904944 116.750971 
L 504.860948 116.767625 
L 514.037307 116.550071 
L 536.933727 115.936194 
L 547.905724 115.858509 
L 547.905724 115.858509 
" style="fill:none;stroke:#000000;stroke-linecap:square;stroke-opacity:0.7;stroke-width:1.2;"/>
   </g>
   <g id="line2d_78">
    <path clip-path="url(#pd159e150dd)" d="M 547.84769 96.666097 
L 541.683793 95.608205 
L 532.510035 94.251798 
L 525.842867 93.478469 
L 519.285493 92.960818 
L 512.736196 92.675502 
L 507.71489 92.663037 
L 503.830623 92.84272 
L 500.119603 93.233783 
L 497.261302 93.73292 
L 494.942621 94.313106 
L 492.872116 95.039785 
L 491.59863 95.706931 
L 491.153446 96.12388 
L 491.090499 96.395304 
L 491.267249 96.609198 
L 491.766706 96.795637 
L 492.738752 96.931134 
L 495.273381 96.989303 
L 501.194732 96.796199 
L 513.388351 96.377235 
L 521.987831 96.334368 
L 540.981049 96.550963 
L 547.848224 96.6649 
L 547.848224 96.6649 
" style="fill:none;stroke:#000000;stroke-linecap:square;stroke-opacity:0.7;stroke-width:1.2;"/>
   </g>
   <g id="line2d_79">
    <path clip-path="url(#pd159e150dd)" d="M 547.580366 77.449993 
L 541.971927 76.536465 
L 529.956765 74.79407 
L 523.260171 74.017304 
L 517.455123 73.570273 
L 512.197599 73.390204 
L 507.752661 73.448076 
L 503.618655 73.725326 
L 499.974014 74.198081 
L 497.25559 74.728997 
L 494.428949 75.49665 
L 492.322931 76.278493 
L 490.919214 77.045367 
L 490.818963 77.295029 
L 491.123644 77.376166 
L 492.269092 77.329237 
L 507.307831 75.88657 
L 511.784697 75.820472 
L 516.267362 75.975461 
L 525.954853 76.639212 
L 534.503563 77.095722 
L 545.012624 77.416966 
L 547.622464 77.467631 
L 547.622464 77.467631 
" style="fill:none;stroke:#000000;stroke-linecap:square;stroke-opacity:0.7;stroke-width:1.2;"/>
   </g>
   <g id="line2d_80">
    <path clip-path="url(#pd159e150dd)" d="M 547.542014 58.382166 
L 542.417953 57.473793 
L 533.679112 56.173095 
L 526.492448 55.302784 
L 519.897729 54.72729 
L 513.299067 54.382907 
L 508.068489 54.337569 
L 504.002859 54.517648 
L 500.268218 54.919114 
L 497.428338 55.427234 
L 494.436946 56.222787 
L 492.475395 56.96323 
L 491.259381 57.61824 
L 490.928063 57.971006 
L 491.031908 58.125499 
L 491.531681 58.186648 
L 493.021869 58.060165 
L 504.487442 56.675256 
L 509.052885 56.442237 
L 513.466133 56.447283 
L 519.318391 56.72013 
L 547.531602 58.37525 
L 547.531602 58.37525 
" style="fill:none;stroke:#000000;stroke-linecap:square;stroke-opacity:0.7;stroke-width:1.2;"/>
   </g>
   <g id="line2d_81">
    <path clip-path="url(#pd159e150dd)" d="M 611.7372 230.877645 
L 605.996379 230.214919 
L 590.547811 228.256709 
L 584.500435 227.766826 
L 577.49911 227.433899 
L 572.067934 227.369477 
L 567.223368 227.50516 
L 562.944984 227.827739 
L 559.54956 228.279674 
L 556.881893 228.856371 
L 555.422019 229.380725 
L 554.647145 229.91842 
L 554.482162 230.348535 
L 554.603851 230.672178 
L 554.945367 231.008588 
L 555.692013 231.435851 
L 557.520591 232.082707 
L 559.882524 232.638517 
L 563.197608 233.179705 
L 567.549552 233.639802 
L 572.532958 233.92217 
L 577.597987 233.996434 
L 583.487288 233.846275 
L 589.749649 233.432882 
L 597.290007 232.685657 
L 607.34104 231.462327 
L 611.740864 230.846382 
L 611.740864 230.846382 
" style="fill:none;stroke:#000000;stroke-linecap:square;stroke-opacity:0.7;stroke-width:1.2;"/>
   </g>
   <g id="line2d_82">
    <path clip-path="url(#pd159e150dd)" d="M 611.656921 211.665849 
L 606.918227 211.21727 
L 598.782046 210.181292 
L 590.285214 209.157027 
L 584.447737 208.698421 
L 578.94903 208.486928 
L 573.148853 208.475103 
L 568.006473 208.661867 
L 563.276369 209.03693 
L 559.417594 209.549091 
L 556.764963 210.108305 
L 555.210237 210.684563 
L 554.79048 211.017325 
L 554.711043 211.350729 
L 554.880629 211.60216 
L 555.521183 211.978242 
L 556.600582 212.335823 
L 558.71834 212.782601 
L 562.260431 213.25525 
L 566.970856 213.638532 
L 573.221973 213.901106 
L 580.252964 213.953851 
L 586.165321 213.796733 
L 592.562477 213.407083 
L 601.707017 212.597453 
L 611.662947 211.613555 
L 611.662947 211.613555 
" style="fill:none;stroke:#000000;stroke-linecap:square;stroke-opacity:0.7;stroke-width:1.2;"/>
   </g>
   <g id="line2d_83">
    <path clip-path="url(#pd159e150dd)" d="M 611.388099 192.426305 
L 601.658281 191.260198 
L 591.125891 190.022313 
L 584.463755 189.475218 
L 578.077186 189.174367 
L 571.965045 189.123178 
L 566.921119 189.304869 
L 562.695173 189.654905 
L 559.187684 190.150522 
L 557.169409 190.602834 
L 555.777954 191.113369 
L 555.199479 191.520472 
L 555.042034 191.804149 
L 555.096098 192.125952 
L 555.423559 192.468103 
L 556.332199 192.933666 
L 558.02602 193.450309 
L 560.462844 193.944756 
L 563.612106 194.386826 
L 568.174224 194.792292 
L 573.272003 194.998682 
L 578.421279 194.982215 
L 584.837405 194.712697 
L 593.67969 194.092979 
L 604.940908 193.095166 
L 611.401369 192.374424 
L 611.401369 192.374424 
" style="fill:none;stroke:#000000;stroke-linecap:square;stroke-opacity:0.7;stroke-width:1.2;"/>
   </g>
   <g id="line2d_84">
    <path clip-path="url(#pd159e150dd)" d="M 611.294626 173.149589 
L 580.171077 169.859497 
L 575.739435 169.691565 
L 571.385769 169.730479 
L 566.81948 170.012323 
L 562.605419 170.508814 
L 558.832612 171.202348 
L 556.673779 171.800593 
L 555.473102 172.331878 
L 555.01729 172.749076 
L 554.982833 173.046448 
L 555.151853 173.284766 
L 555.607156 173.56645 
L 556.830183 173.97094 
L 558.638882 174.334153 
L 562.030059 174.763975 
L 566.62497 175.102171 
L 572.224523 175.272021 
L 577.966773 175.217526 
L 585.036209 174.904117 
L 599.653261 173.950358 
L 611.322843 173.175313 
L 611.322843 173.175313 
" style="fill:none;stroke:#000000;stroke-linecap:square;stroke-opacity:0.7;stroke-width:1.2;"/>
   </g>
   <g id="line2d_85">
    <path clip-path="url(#pd159e150dd)" d="M 611.721702 154.266268 
L 596.932412 152.33707 
L 589.681173 151.612535 
L 582.172869 151.106877 
L 575.209603 150.85003 
L 569.922636 150.867077 
L 565.560184 151.095838 
L 561.942449 151.490694 
L 559.056435 151.997958 
L 556.931387 152.554581 
L 555.657225 153.051848 
L 554.921567 153.545493 
L 554.758294 153.859206 
L 554.790559 154.035484 
L 555.078767 154.323313 
L 555.708347 154.600599 
L 556.898922 154.894871 
L 559.233522 155.228626 
L 563.286207 155.546599 
L 568.901136 155.742233 
L 575.507826 155.746543 
L 583.646373 155.514644 
L 595.528623 154.91899 
L 608.715009 154.322798 
L 611.725831 154.216168 
L 611.725831 154.216168 
" style="fill:none;stroke:#000000;stroke-linecap:square;stroke-opacity:0.7;stroke-width:1.2;"/>
   </g>
   <g id="line2d_86">
    <path clip-path="url(#pd159e150dd)" d="M 611.363564 134.98271 
L 587.993673 132.134523 
L 582.172305 131.71926 
L 576.225088 131.50861 
L 571.05589 131.534486 
L 566.767902 131.752292 
L 563.016458 132.135607 
L 559.867595 132.645901 
L 557.469782 133.210642 
L 555.569826 133.887918 
L 554.822901 134.394053 
L 554.731483 134.692924 
L 554.891308 134.913439 
L 555.43792 135.182717 
L 556.700873 135.488271 
L 559.30957 135.830276 
L 563.759272 136.145655 
L 569.562136 136.325018 
L 576.561242 136.314423 
L 585.912954 136.053949 
L 604.186287 135.257646 
L 611.36435 134.941649 
L 611.36435 134.941649 
" style="fill:none;stroke:#000000;stroke-linecap:square;stroke-opacity:0.7;stroke-width:1.2;"/>
   </g>
   <g id="line2d_87">
    <path clip-path="url(#pd159e150dd)" d="M 611.732828 115.940884 
L 602.072894 114.71291 
L 593.690023 113.728015 
L 587.088163 113.186288 
L 579.811669 112.808009 
L 573.477557 112.68647 
L 568.819062 112.80012 
L 564.476079 113.124401 
L 560.920221 113.592698 
L 557.665482 114.253318 
L 555.675452 114.87988 
L 554.843533 115.356083 
L 554.7226 115.60741 
L 554.873802 115.81816 
L 555.320945 116.012739 
L 556.295626 116.214155 
L 558.659887 116.439632 
L 562.95338 116.598985 
L 570.352444 116.637161 
L 582.130208 116.456911 
L 610.641463 115.904105 
L 611.737026 115.894998 
L 611.737026 115.894998 
" style="fill:none;stroke:#000000;stroke-linecap:square;stroke-opacity:0.7;stroke-width:1.2;"/>
   </g>
   <g id="line2d_88">
    <path clip-path="url(#pd159e150dd)" d="M 611.026027 96.649137 
L 603.714652 95.726549 
L 585.049399 93.584792 
L 579.134488 93.070995 
L 574.577364 92.892015 
L 570.786814 92.958559 
L 567.041809 93.239524 
L 563.310163 93.740596 
L 559.963966 94.396252 
L 557.335185 95.089859 
L 555.307618 95.825213 
L 554.537078 96.297167 
L 554.507507 96.524776 
L 554.706549 96.630886 
L 555.517601 96.748448 
L 558.02608 96.782312 
L 580.610128 96.605316 
L 611.004267 96.627723 
L 611.004267 96.627723 
" style="fill:none;stroke:#000000;stroke-linecap:square;stroke-opacity:0.7;stroke-width:1.2;"/>
   </g>
   <g id="line2d_89">
    <path clip-path="url(#pd159e150dd)" d="M 611.560153 77.550451 
L 595.300078 75.43034 
L 588.308134 74.743235 
L 581.88061 74.33095 
L 575.411784 74.133264 
L 570.117218 74.195877 
L 566.268684 74.432482 
L 562.633004 74.854724 
L 559.395874 75.441752 
L 556.956472 76.068902 
L 555.186954 76.704527 
L 554.382697 77.204442 
L 554.407067 77.370541 
L 554.606857 77.441898 
L 555.498144 77.481446 
L 558.306701 77.282501 
L 568.541138 76.446549 
L 573.81632 76.258019 
L 578.852095 76.305343 
L 585.327457 76.615732 
L 596.513964 77.151151 
L 610.829199 77.525418 
L 611.573429 77.539984 
L 611.573429 77.539984 
" style="fill:none;stroke:#000000;stroke-linecap:square;stroke-opacity:0.7;stroke-width:1.2;"/>
   </g>
   <g id="line2d_90">
    <path clip-path="url(#pd159e150dd)" d="M 611.701347 58.443311 
L 605.727041 57.575244 
L 593.406757 56.012943 
L 586.655219 55.375145 
L 579.750098 54.959806 
L 574.237368 54.825812 
L 569.584873 54.920889 
L 565.598816 55.214907 
L 562.15555 55.67225 
L 559.198552 56.259109 
L 556.597399 56.986153 
L 554.80193 57.724562 
L 554.482686 58.037007 
L 554.685414 58.111851 
L 555.539186 58.071427 
L 568.935081 56.616685 
L 573.286412 56.479222 
L 578.519642 56.539584 
L 585.227499 56.867434 
L 611.693625 58.438992 
L 611.693625 58.438992 
" style="fill:none;stroke:#000000;stroke-linecap:square;stroke-opacity:0.7;stroke-width:1.2;"/>
   </g>
   <g id="line2d_91">
    <path clip-path="url(#pd159e150dd)" d="M 675.403859 230.788622 
L 652.224794 229.175634 
L 640.621183 228.72531 
L 632.183079 228.586737 
L 627.049662 228.71529 
L 622.933976 229.052785 
L 620.355532 229.485562 
L 619.136092 229.865942 
L 618.573133 230.242403 
L 618.493869 230.530533 
L 618.643096 230.783441 
L 619.168189 231.142224 
L 620.211923 231.56469 
L 622.475052 232.173022 
L 625.456344 232.736239 
L 629.922102 233.315467 
L 634.557473 233.67724 
L 639.631326 233.838765 
L 644.512615 233.783754 
L 650.31847 233.4794 
L 656.909108 232.902063 
L 667.875902 231.689725 
L 675.414038 230.752763 
L 675.414038 230.752763 
" style="fill:none;stroke:#000000;stroke-linecap:square;stroke-opacity:0.7;stroke-width:1.2;"/>
   </g>
   <g id="line2d_92">
    <path clip-path="url(#pd159e150dd)" d="M 675.220317 211.631865 
L 665.18675 210.799038 
L 651.150868 209.66852 
L 643.438595 209.285957 
L 635.560581 209.121905 
L 629.205147 209.18746 
L 624.288071 209.450026 
L 621.39285 209.791672 
L 619.942439 210.089386 
L 618.808606 210.49619 
L 618.310547 210.919697 
L 618.288664 211.253211 
L 618.583442 211.617108 
L 619.398092 212.077506 
L 620.62304 212.515261 
L 623.060371 213.11484 
L 626.356743 213.680581 
L 630.292139 214.145922 
L 634.87523 214.465152 
L 639.365611 214.563384 
L 644.553722 214.438673 
L 651.36894 214.01192 
L 662.382378 213.072276 
L 670.423573 212.199118 
L 675.214472 211.563552 
L 675.214472 211.563552 
" style="fill:none;stroke:#000000;stroke-linecap:square;stroke-opacity:0.7;stroke-width:1.2;"/>
   </g>
   <g id="line2d_93">
    <path clip-path="url(#pd159e150dd)" d="M 675.390101 192.52187 
L 669.194749 191.917465 
L 654.694305 190.404411 
L 647.584834 189.923751 
L 640.434312 189.660657 
L 634.61809 189.649659 
L 629.575941 189.842927 
L 625.074609 190.237821 
L 622.055885 190.690659 
L 620.027597 191.176732 
L 619.001207 191.599972 
L 618.59771 191.998841 
L 618.611976 192.229368 
L 618.848267 192.486367 
L 619.445728 192.791174 
L 620.483649 193.112949 
L 622.46123 193.513324 
L 625.66021 193.932551 
L 630.04051 194.282332 
L 635.461698 194.493782 
L 641.865139 194.512798 
L 648.800866 194.303662 
L 657.254865 193.813374 
L 675.385264 192.486596 
L 675.385264 192.486596 
" style="fill:none;stroke:#000000;stroke-linecap:square;stroke-opacity:0.7;stroke-width:1.2;"/>
   </g>
   <g id="line2d_94">
    <path clip-path="url(#pd159e150dd)" d="M 675.466743 173.32769 
L 666.910691 172.463187 
L 657.421706 171.530764 
L 651.389938 171.154414 
L 643.784713 170.929001 
L 634.93055 170.880951 
L 629.148899 171.059844 
L 624.93207 171.38911 
L 621.712897 171.827899 
L 619.442762 172.352296 
L 618.55342 172.747314 
L 618.338313 173.060043 
L 618.424873 173.232592 
L 618.790284 173.455557 
L 619.541627 173.686346 
L 621.695497 174.02574 
L 625.627877 174.311351 
L 631.792034 174.483455 
L 647.341204 174.602557 
L 653.797194 174.462182 
L 661.450088 174.046877 
L 675.25469 173.301317 
L 675.490909 173.291373 
L 675.490909 173.291373 
" style="fill:none;stroke:#000000;stroke-linecap:square;stroke-opacity:0.7;stroke-width:1.2;"/>
   </g>
   <g id="line2d_95">
    <path clip-path="url(#pd159e150dd)" d="M 674.659119 154.048266 
L 653.296908 152.223308 
L 645.314475 151.733415 
L 639.598152 151.582825 
L 634.77535 151.646677 
L 629.64756 151.920042 
L 624.944841 152.356447 
L 621.031929 152.90751 
L 619.28453 153.296324 
L 618.378954 153.680132 
L 618.243989 153.920686 
L 618.417165 154.133369 
L 619.071614 154.40816 
L 620.54256 154.735905 
L 623.754584 155.154598 
L 627.858557 155.471249 
L 633.738622 155.681928 
L 640.12196 155.666048 
L 649.0358 155.394149 
L 661.209825 154.813786 
L 674.70105 153.997749 
L 674.70105 153.997749 
" style="fill:none;stroke:#000000;stroke-linecap:square;stroke-opacity:0.7;stroke-width:1.2;"/>
   </g>
   <g id="line2d_96">
    <path clip-path="url(#pd159e150dd)" d="M 674.915731 134.942832 
L 651.427473 132.677315 
L 644.797785 132.345882 
L 638.677713 132.270067 
L 632.750633 132.431781 
L 628.227052 132.744288 
L 623.953231 133.244577 
L 620.591648 133.868708 
L 618.818455 134.429525 
L 618.436804 134.709699 
L 618.459131 134.928985 
L 618.774459 135.120333 
L 619.79154 135.385618 
L 622.094465 135.692728 
L 626.066787 135.976574 
L 631.900092 136.156608 
L 638.944218 136.148877 
L 648.585187 135.894212 
L 674.894846 134.924845 
L 674.894846 134.924845 
" style="fill:none;stroke:#000000;stroke-linecap:square;stroke-opacity:0.7;stroke-width:1.2;"/>
   </g>
   <g id="line2d_97">
    <path clip-path="url(#pd159e150dd)" d="M 674.83038 115.864784 
L 646.952454 113.520432 
L 642.112819 113.310797 
L 636.990438 113.330896 
L 632.065411 113.604731 
L 627.491731 114.076482 
L 622.665147 114.808019 
L 619.04204 115.567194 
L 618.098593 115.928705 
L 618.14756 116.045337 
L 618.557744 116.155101 
L 620.303567 116.310989 
L 625.192503 116.458823 
L 634.945236 116.501383 
L 654.190703 116.316629 
L 669.423736 115.912259 
L 674.838802 115.78594 
L 674.838802 115.78594 
" style="fill:none;stroke:#000000;stroke-linecap:square;stroke-opacity:0.7;stroke-width:1.2;"/>
   </g>
   <g id="line2d_98">
    <path clip-path="url(#pd159e150dd)" d="M 674.87729 96.657462 
L 666.339256 95.626946 
L 657.189742 94.705746 
L 650.138466 94.203649 
L 643.049423 93.933425 
L 637.181384 93.921132 
L 631.974972 94.136142 
L 627.586089 94.532902 
L 623.617034 95.107101 
L 620.544757 95.756237 
L 618.828569 96.331411 
L 618.59954 96.594316 
L 618.762206 96.710638 
L 619.439961 96.84747 
L 621.435471 96.969413 
L 626.846934 97.011107 
L 673.6937 96.66937 
L 674.891411 96.650499 
L 674.891411 96.650499 
" style="fill:none;stroke:#000000;stroke-linecap:square;stroke-opacity:0.7;stroke-width:1.2;"/>
   </g>
   <g id="line2d_99">
    <path clip-path="url(#pd159e150dd)" d="M 675.205479 77.518866 
L 668.240282 76.680091 
L 657.535179 75.599951 
L 649.652235 75.02787 
L 641.930583 74.69399 
L 635.534955 74.639378 
L 630.854133 74.820727 
L 626.522627 75.232598 
L 623.069537 75.788293 
L 620.368706 76.433941 
L 618.805496 76.99611 
L 618.426823 77.319128 
L 618.568159 77.417236 
L 619.200688 77.48452 
L 621.126021 77.429393 
L 637.155371 76.625675 
L 643.792148 76.587095 
L 652.20597 76.802318 
L 675.213211 77.53182 
L 675.213211 77.53182 
" style="fill:none;stroke:#000000;stroke-linecap:square;stroke-opacity:0.7;stroke-width:1.2;"/>
   </g>
   <g id="line2d_100">
    <path clip-path="url(#pd159e150dd)" d="M 675.288844 58.49602 
L 655.8445 56.290332 
L 648.574068 55.814826 
L 640.235368 55.494496 
L 634.227599 55.481398 
L 629.783678 55.704966 
L 625.848437 56.148906 
L 622.492812 56.766961 
L 619.789244 57.495524 
L 618.375898 58.08267 
L 618.201318 58.304863 
L 618.425457 58.402523 
L 619.267239 58.422896 
L 622.474034 58.160443 
L 631.434034 57.391812 
L 637.192534 57.150617 
L 643.038179 57.163395 
L 651.432039 57.458895 
L 675.268677 58.470634 
L 675.268677 58.470634 
" style="fill:none;stroke:#000000;stroke-linecap:square;stroke-opacity:0.7;stroke-width:1.2;"/>
   </g>
  </g>
 </g>
 <defs>
  <clipPath id="pd159e150dd">
   <rect height="262.08" width="694.08" x="12.96" y="12.96"/>
  </clipPath>
 </defs>
</svg>
