<?xml version="1.0" encoding="utf-8" standalone="no"?>
<!DOCTYPE svg PUBLIC "-//W3C//DTD SVG 1.1//EN"
  "http://www.w3.org/Graphics/SVG/1.1/DTD/svg11.dtd">
<!-- Created with matplotlib (https://matplotlib.org/) -->
<svg height="288pt" version="1.1" viewBox="0 0 720 288" width="720pt" xmlns="http://www.w3.org/2000/svg" xmlns:xlink="http://www.w3.org/1999/xlink">
 <metadata>
  <rdf:RDF xmlns:cc="http://creativecommons.org/ns#" xmlns:dc="http://purl.org/dc/elements/1.1/" xmlns:rdf="http://www.w3.org/1999/02/22-rdf-syntax-ns#">
   <cc:Work>
    <dc:type rdf:resource="http://purl.org/dc/dcmitype/StillImage"/>
    <dc:date>2020-11-13T19:56:10.885821</dc:date>
    <dc:format>image/svg+xml</dc:format>
    <dc:creator>
     <cc:Agent>
      <dc:title>Matplotlib v3.3.2, https://matplotlib.org/</dc:title>
     </cc:Agent>
    </dc:creator>
   </cc:Work>
  </rdf:RDF>
 </metadata>
 <defs>
  <style type="text/css">*{stroke-linecap:butt;stroke-linejoin:round;}</style>
 </defs>
 <g id="figure_1">
  <g id="patch_1">
   <path d="M 0 288 
L 720 288 
L 720 0 
L 0 0 
z
" style="fill:#ffffff;"/>
  </g>
  <g id="axes_1">
   <g id="line2d_1">
    <path clip-path="url(#p38605f3856)" d="M 101.290584 232.774809 
L 97.350082 230.864811 
L 93.441581 229.22441 
L 89.814504 227.967245 
L 86.595897 227.108736 
L 83.475538 226.531971 
L 80.878985 226.243886 
L 77.690624 226.10733 
L 73.818084 226.204262 
L 68.984087 226.595082 
L 60.797107 227.551558 
L 55.593216 228.324521 
L 52.684529 228.928067 
L 50.053881 229.698213 
L 48.213227 230.436152 
L 46.273768 231.485987 
L 45.15898 232.325679 
L 44.711071 232.913333 
L 44.773941 233.122742 
L 45.003115 233.212623 
L 45.877332 233.238664 
L 49.023544 232.966479 
L 61.197933 231.858945 
L 67.737862 231.482017 
L 73.081085 231.415341 
L 80.362 231.598736 
L 91.811999 232.131524 
L 99.911762 232.71834 
L 101.292914 232.84174 
L 101.292914 232.84174 
" style="fill:none;stroke:#000000;stroke-linecap:square;stroke-opacity:0.7;stroke-width:1.2;"/>
   </g>
   <g id="line2d_2">
    <path clip-path="url(#p38605f3856)" d="M 101.323512 213.608262 
L 97.952123 212.052846 
L 94.018168 210.454644 
L 90.443523 209.231349 
L 87.26001 208.364221 
L 84.294374 207.769384 
L 81.052951 207.359568 
L 77.839456 207.182447 
L 74.285276 207.207809 
L 69.619645 207.493211 
L 63.197066 208.140942 
L 56.818054 208.989152 
L 52.951518 209.731741 
L 50.128307 210.523837 
L 48.092127 211.319571 
L 46.271074 212.29116 
L 45.177598 213.097529 
L 44.58225 213.788355 
L 44.52368 214.142963 
L 44.679779 214.318055 
L 45.077024 214.446476 
L 46.376045 214.520834 
L 50.787743 214.375868 
L 70.450858 213.617756 
L 80.048052 213.528703 
L 99.865079 213.577109 
L 101.332684 213.610324 
L 101.332684 213.610324 
" style="fill:none;stroke:#000000;stroke-linecap:square;stroke-opacity:0.7;stroke-width:1.2;"/>
   </g>
   <g id="line2d_3">
    <path clip-path="url(#p38605f3856)" d="M 101.339326 194.410453 
L 97.847841 192.822445 
L 93.94894 191.264945 
L 90.115608 189.99326 
L 86.940224 189.178348 
L 83.773576 188.608614 
L 80.487257 188.276028 
L 77.424624 188.180597 
L 73.457405 188.301327 
L 68.104207 188.741819 
L 60.157535 189.647488 
L 55.261191 190.382289 
L 52.297019 191.016334 
L 49.583406 191.836501 
L 47.623246 192.648055 
L 46.000484 193.545169 
L 45.059434 194.273882 
L 44.681053 194.816056 
L 44.706535 195.07693 
L 45.017909 195.310047 
L 45.902021 195.510422 
L 47.942897 195.659428 
L 53.019751 195.753269 
L 61.701389 195.695143 
L 69.708237 195.422969 
L 79.581479 194.806733 
L 88.424673 194.318618 
L 94.466935 194.221025 
L 100.560226 194.368297 
L 101.348467 194.403213 
L 101.348467 194.403213 
" style="fill:none;stroke:#000000;stroke-linecap:square;stroke-opacity:0.7;stroke-width:1.2;"/>
   </g>
   <g id="line2d_4">
    <path clip-path="url(#p38605f3856)" d="M 101.38105 175.140921 
L 97.385129 173.308083 
L 93.804731 171.869881 
L 90.630958 170.79019 
L 87.316436 169.903737 
L 84.266938 169.33733 
L 80.943737 169.00155 
L 78.01795 168.930649 
L 74.733608 169.055812 
L 69.860935 169.50083 
L 58.073667 170.918262 
L 53.722794 171.619485 
L 50.816089 172.328299 
L 48.710633 173.062392 
L 47.062216 173.840012 
L 45.780554 174.665672 
L 45.079911 175.395642 
L 45.001383 175.767418 
L 45.105752 175.948228 
L 45.423838 176.14676 
L 46.310952 176.382583 
L 48.33575 176.634401 
L 52.953 176.934721 
L 59.434544 177.132485 
L 65.2196 177.119074 
L 70.888402 176.902405 
L 77.879137 176.403282 
L 91.807492 175.33845 
L 97.661539 175.147935 
L 101.39283 175.143959 
L 101.39283 175.143959 
" style="fill:none;stroke:#000000;stroke-linecap:square;stroke-opacity:0.7;stroke-width:1.2;"/>
   </g>
   <g id="line2d_5">
    <path clip-path="url(#p38605f3856)" d="M 101.368306 156.053661 
L 97.472283 154.248154 
L 93.522739 152.676633 
L 90.60718 151.714086 
L 87.38947 150.884139 
L 84.740078 150.401247 
L 81.519318 150.058568 
L 78.28232 149.959879 
L 74.939691 150.069997 
L 70.143359 150.489075 
L 62.346802 151.464069 
L 55.682786 152.459846 
L 52.249102 153.172391 
L 49.338135 154.023017 
L 47.393386 154.794977 
L 45.765502 155.675997 
L 45.076615 156.255592 
L 44.896213 156.684155 
L 45.049394 156.955231 
L 45.42893 157.174477 
L 46.620142 157.497061 
L 49.076822 157.851365 
L 53.773464 158.252748 
L 59.485191 158.504771 
L 64.913735 158.517211 
L 69.488434 158.329176 
L 75.443802 157.835438 
L 93.054746 156.14954 
L 97.790704 156.02076 
L 101.379757 156.048615 
L 101.379757 156.048615 
" style="fill:none;stroke:#000000;stroke-linecap:square;stroke-opacity:0.7;stroke-width:1.2;"/>
   </g>
   <g id="line2d_6">
    <path clip-path="url(#p38605f3856)" d="M 101.372837 136.939023 
L 97.45512 135.181492 
L 93.703152 133.712273 
L 89.918765 132.487934 
L 86.867635 131.734172 
L 83.658028 131.196002 
L 80.824702 130.939399 
L 77.220434 130.877026 
L 73.095043 131.083709 
L 67.669278 131.613618 
L 57.535575 132.858549 
L 53.143365 133.601131 
L 50.266565 134.315072 
L 48.063996 135.089568 
L 46.503506 135.846659 
L 45.367537 136.644156 
L 44.919735 137.20876 
L 44.882209 137.61321 
L 45.083585 137.883052 
L 45.586333 138.151109 
L 46.511503 138.410926 
L 48.67038 138.765414 
L 53.204218 139.234156 
L 59.219926 139.614265 
L 64.257754 139.73431 
L 69.230952 139.63903 
L 74.593632 139.29902 
L 81.46923 138.620155 
L 94.478502 137.287266 
L 100.058818 136.969633 
L 101.38078 136.924227 
L 101.38078 136.924227 
" style="fill:none;stroke:#000000;stroke-linecap:square;stroke-opacity:0.7;stroke-width:1.2;"/>
   </g>
   <g id="line2d_7">
    <path clip-path="url(#p38605f3856)" d="M 101.271447 118.085417 
L 97.865401 116.39756 
L 94.089857 114.758781 
L 90.893843 113.591293 
L 87.75419 112.685993 
L 84.698039 112.070288 
L 81.995737 111.753522 
L 78.876822 111.635797 
L 75.19991 111.775661 
L 70.631379 112.218697 
L 55.695113 114.061201 
L 52.055322 114.719759 
L 49.475612 115.415003 
L 47.583664 116.131514 
L 46.270558 116.802693 
L 45.262084 117.536275 
L 44.833729 118.128808 
L 44.845323 118.51262 
L 45.048774 118.762589 
L 45.669357 119.093215 
L 47.040873 119.474574 
L 50.114427 119.980761 
L 54.722351 120.457006 
L 60.052073 120.752449 
L 65.104892 120.790356 
L 70.090426 120.596304 
L 77.34925 120.047328 
L 100.675774 118.14564 
L 101.283284 118.106878 
L 101.283284 118.106878 
" style="fill:none;stroke:#000000;stroke-linecap:square;stroke-opacity:0.7;stroke-width:1.2;"/>
   </g>
   <g id="line2d_8">
    <path clip-path="url(#p38605f3856)" d="M 101.275485 98.973429 
L 97.958232 97.324516 
L 94.124808 95.655545 
L 90.558253 94.371045 
L 87.441998 93.513177 
L 84.353366 92.941937 
L 81.652877 92.673433 
L 78.527136 92.604981 
L 75.138759 92.764342 
L 70.369739 93.246177 
L 54.225661 95.280372 
L 51.397407 95.835177 
L 48.833351 96.570705 
L 46.838677 97.409867 
L 45.713477 98.088188 
L 44.96536 98.821463 
L 44.832553 99.253298 
L 44.929836 99.524015 
L 45.157124 99.745921 
L 45.700767 100.028604 
L 46.923485 100.39488 
L 49.53376 100.884077 
L 53.625383 101.400403 
L 58.339932 101.783091 
L 63.488691 101.965725 
L 68.045035 101.912585 
L 73.239741 101.63537 
L 82.463719 100.863396 
L 101.286183 99.009525 
L 101.286183 99.009525 
" style="fill:none;stroke:#000000;stroke-linecap:square;stroke-opacity:0.7;stroke-width:1.2;"/>
   </g>
   <g id="line2d_9">
    <path clip-path="url(#p38605f3856)" d="M 101.304235 79.743815 
L 97.907432 78.015522 
L 94.242225 76.382356 
L 90.864867 75.132123 
L 88.012613 74.313693 
L 85.273435 73.763615 
L 82.707084 73.465784 
L 79.584652 73.367493 
L 76.298072 73.520679 
L 72.274605 73.945691 
L 51.796344 76.66906 
L 49.182837 77.312117 
L 47.216225 78.032874 
L 45.907365 78.740529 
L 45.28624 79.243052 
L 44.914417 79.832496 
L 44.921999 80.159617 
L 45.16052 80.509082 
L 45.798414 80.905493 
L 47.188135 81.39363 
L 49.529888 81.948902 
L 53.569302 82.640661 
L 58.175046 83.187063 
L 62.72271 83.503891 
L 67.348956 83.596385 
L 72.123834 83.462396 
L 77.977745 83.04847 
L 83.893707 82.42227 
L 91.217216 81.41662 
L 101.298407 79.815474 
L 101.298407 79.815474 
" style="fill:none;stroke:#000000;stroke-linecap:square;stroke-opacity:0.7;stroke-width:1.2;"/>
   </g>
   <g id="line2d_10">
    <path clip-path="url(#p38605f3856)" d="M 101.264691 60.748057 
L 97.784232 59.043411 
L 93.94085 57.378011 
L 90.254109 56.04541 
L 87.652386 55.307388 
L 84.600968 54.698545 
L 81.859077 54.40446 
L 79.349076 54.336533 
L 76.538436 54.456138 
L 72.752355 54.853558 
L 51.28478 57.804372 
L 48.757934 58.414086 
L 46.875426 59.097852 
L 45.643181 59.776971 
L 44.964867 60.435005 
L 44.832393 60.926996 
L 44.965107 61.254774 
L 45.331782 61.602476 
L 46.193704 62.062831 
L 47.821492 62.635875 
L 51.011329 63.437702 
L 54.739183 64.127983 
L 58.579216 64.639617 
L 62.933931 64.992461 
L 66.863865 65.103638 
L 71.444084 65.000239 
L 76.511609 64.649514 
L 81.965655 64.061762 
L 87.700495 63.245115 
L 95.454993 61.891313 
L 101.248545 60.803767 
L 101.248545 60.803767 
" style="fill:none;stroke:#000000;stroke-linecap:square;stroke-opacity:0.7;stroke-width:1.2;"/>
   </g>
   <g id="line2d_11">
    <path clip-path="url(#p38605f3856)" d="M 165.112575 232.798686 
L 158.822787 230.7033 
L 153.875551 229.260738 
L 150.018719 228.326941 
L 146.560207 227.68199 
L 142.756752 227.217268 
L 139.376424 227.020732 
L 135.190644 227.01863 
L 130.600698 227.230017 
L 124.448062 227.725299 
L 120.184256 228.244124 
L 117.0117 228.821499 
L 114.608534 229.439757 
L 112.123993 230.316013 
L 110.19626 231.23081 
L 108.641851 232.236374 
L 108.038058 232.873644 
L 108.003805 233.173232 
L 108.238991 233.347168 
L 108.820449 233.4522 
L 110.359262 233.462448 
L 115.101551 233.176692 
L 126.419548 232.237359 
L 137.059228 231.386447 
L 142.97664 231.178821 
L 148.206233 231.203676 
L 153.349073 231.43933 
L 158.408564 231.894882 
L 163.843158 232.605412 
L 165.104587 232.79651 
L 165.104587 232.79651 
" style="fill:none;stroke:#000000;stroke-linecap:square;stroke-opacity:0.7;stroke-width:1.2;"/>
   </g>
   <g id="line2d_12">
    <path clip-path="url(#p38605f3856)" d="M 165.197456 213.383593 
L 156.298176 210.890306 
L 151.12994 209.641791 
L 146.990491 208.85238 
L 143.175667 208.353515 
L 139.30301 208.096501 
L 135.410419 208.069019 
L 130.18942 208.290743 
L 124.414632 208.754579 
L 119.837897 209.328423 
L 116.71779 209.938029 
L 114.463703 210.573303 
L 112.433837 211.357915 
L 110.86716 212.167232 
L 109.719952 212.951429 
L 109.027692 213.635333 
L 108.866035 214.113604 
L 108.999645 214.280334 
L 109.531462 214.43117 
L 110.898956 214.472443 
L 117.334682 214.22796 
L 130.455306 213.831764 
L 145.085142 213.352012 
L 154.106644 213.114244 
L 160.016709 213.164356 
L 165.191132 213.389902 
L 165.191132 213.389902 
" style="fill:none;stroke:#000000;stroke-linecap:square;stroke-opacity:0.7;stroke-width:1.2;"/>
   </g>
   <g id="line2d_13">
    <path clip-path="url(#p38605f3856)" d="M 165.130206 194.508052 
L 158.284039 192.25856 
L 153.257833 190.81329 
L 148.86444 189.785243 
L 145.41177 189.192005 
L 142.251943 188.844762 
L 139.003045 188.68859 
L 135.240597 188.737036 
L 131.09625 189.003712 
L 124.722341 189.649772 
L 118.904087 190.42997 
L 116.117115 190.971815 
L 114.15469 191.497887 
L 111.992309 192.298444 
L 110.345294 193.137434 
L 109.137517 193.970756 
L 108.519286 194.679155 
L 108.541492 194.970978 
L 108.753592 195.122942 
L 109.64435 195.31457 
L 111.946227 195.448432 
L 118.176207 195.49787 
L 128.000945 195.329691 
L 143.111715 195.022375 
L 155.813845 194.790925 
L 165.129734 194.505685 
L 165.129734 194.505685 
" style="fill:none;stroke:#000000;stroke-linecap:square;stroke-opacity:0.7;stroke-width:1.2;"/>
   </g>
   <g id="line2d_14">
    <path clip-path="url(#p38605f3856)" d="M 165.143844 175.312385 
L 158.428118 173.264619 
L 153.032835 171.814362 
L 148.971142 170.925216 
L 145.734848 170.393542 
L 141.90858 170.004034 
L 138.476296 169.875361 
L 133.997466 169.962525 
L 128.248099 170.324208 
L 121.386495 170.972863 
L 117.851374 171.498314 
L 114.856702 172.181006 
L 112.772195 172.864818 
L 110.877044 173.710945 
L 109.300649 174.708475 
L 108.717872 175.289231 
L 108.547641 175.709348 
L 108.676416 176.003592 
L 109.173216 176.272679 
L 110.330765 176.525654 
L 112.761581 176.778724 
L 117.932236 177.04212 
L 123.988847 177.136222 
L 129.940359 177.01211 
L 136.001058 176.64233 
L 154.200919 175.281701 
L 159.55284 175.195676 
L 165.131914 175.306102 
L 165.131914 175.306102 
" style="fill:none;stroke:#000000;stroke-linecap:square;stroke-opacity:0.7;stroke-width:1.2;"/>
   </g>
   <g id="line2d_15">
    <path clip-path="url(#p38605f3856)" d="M 165.050331 156.51607 
L 159.578496 154.584835 
L 154.634118 153.044804 
L 150.875929 152.071992 
L 147.507907 151.401916 
L 144.257816 150.96813 
L 141.092061 150.750145 
L 137.094172 150.726256 
L 132.445269 150.943798 
L 124.726215 151.569496 
L 119.43531 152.187601 
L 116.436084 152.723061 
L 113.707549 153.433823 
L 111.520819 154.244471 
L 110.11513 154.948864 
L 108.901616 155.816921 
L 108.492955 156.37121 
L 108.487404 156.733109 
L 108.687956 156.9774 
L 109.282777 157.26498 
L 110.478966 157.550162 
L 113.521502 157.93939 
L 117.895885 158.260818 
L 123.19719 158.443806 
L 128.398658 158.408017 
L 133.431846 158.15533 
L 142.760694 157.389055 
L 150.398169 156.888531 
L 157.852996 156.633451 
L 165.028005 156.526104 
L 165.028005 156.526104 
" style="fill:none;stroke:#000000;stroke-linecap:square;stroke-opacity:0.7;stroke-width:1.2;"/>
   </g>
   <g id="line2d_16">
    <path clip-path="url(#p38605f3856)" d="M 165.089448 137.230629 
L 159.053116 135.222773 
L 153.948126 133.726372 
L 150.335984 132.85199 
L 147.030452 132.241683 
L 143.934867 131.865257 
L 140.675785 131.67836 
L 136.738296 131.701332 
L 131.908295 131.97477 
L 122.825904 132.759767 
L 117.924335 133.380476 
L 114.947483 133.977087 
L 112.440739 134.726424 
L 110.784442 135.422404 
L 109.527499 136.141341 
L 108.677934 136.872027 
L 108.417058 137.367793 
L 108.469683 137.689058 
L 108.843987 138.023521 
L 109.62556 138.321642 
L 111.67645 138.72697 
L 115.523054 139.169929 
L 120.400477 139.504453 
L 125.860244 139.642824 
L 130.831607 139.537345 
L 136.551268 139.167527 
L 156.214817 137.665655 
L 165.076974 137.224632 
L 165.076974 137.224632 
" style="fill:none;stroke:#000000;stroke-linecap:square;stroke-opacity:0.7;stroke-width:1.2;"/>
   </g>
   <g id="line2d_17">
    <path clip-path="url(#p38605f3856)" d="M 165.077733 118.175697 
L 159.015759 116.057192 
L 153.965241 114.521654 
L 149.945347 113.536627 
L 146.817264 112.971495 
L 143.506401 112.596697 
L 140.360971 112.453928 
L 136.551794 112.519353 
L 131.206362 112.89652 
L 121.453379 113.878268 
L 117.075621 114.509349 
L 114.291761 115.122619 
L 112.099608 115.81884 
L 110.225691 116.667357 
L 109.198974 117.340704 
L 108.662792 117.91368 
L 108.546822 118.349983 
L 108.709535 118.66802 
L 109.299249 119.036913 
L 110.718201 119.459096 
L 113.241008 119.898679 
L 117.623126 120.378394 
L 122.948713 120.698853 
L 128.174772 120.76968 
L 133.471721 120.595019 
L 140.598412 120.087401 
L 165.06197 118.179434 
L 165.06197 118.179434 
" style="fill:none;stroke:#000000;stroke-linecap:square;stroke-opacity:0.7;stroke-width:1.2;"/>
   </g>
   <g id="line2d_18">
    <path clip-path="url(#p38605f3856)" d="M 165.053562 99.12185 
L 159.766267 97.214728 
L 154.550093 95.562335 
L 150.695855 94.568958 
L 147.583347 93.969222 
L 144.398671 93.580361 
L 140.968864 93.421884 
L 137.111663 93.518653 
L 131.827799 93.940021 
L 118.195685 95.348965 
L 115.155753 95.873026 
L 112.587369 96.549056 
L 110.627095 97.318316 
L 109.395131 98.03 
L 108.727366 98.663993 
L 108.564826 99.158473 
L 108.671442 99.439008 
L 109.110377 99.805003 
L 109.713776 100.079561 
L 111.084721 100.484578 
L 113.845862 101.025776 
L 118.001338 101.574115 
L 122.597542 101.945163 
L 126.826793 102.08613 
L 131.294007 102.02281 
L 136.439148 101.720159 
L 146.914336 100.801418 
L 165.038296 99.129898 
L 165.038296 99.129898 
" style="fill:none;stroke:#000000;stroke-linecap:square;stroke-opacity:0.7;stroke-width:1.2;"/>
   </g>
   <g id="line2d_19">
    <path clip-path="url(#p38605f3856)" d="M 165.127133 79.71253 
L 159.20522 77.747088 
L 154.224735 76.285079 
L 150.378751 75.362028 
L 147.077429 74.779289 
L 143.746135 74.430984 
L 140.175644 74.333754 
L 136.418486 74.493284 
L 131.391342 74.962072 
L 116.239698 76.709224 
L 113.319907 77.316486 
L 111.389574 77.938998 
L 110.122701 78.524994 
L 109.013543 79.299467 
L 108.558796 79.939453 
L 108.534291 80.294495 
L 108.787625 80.700901 
L 109.436471 81.103115 
L 110.899426 81.597767 
L 113.381014 82.13724 
L 117.086704 82.697473 
L 121.764548 83.160926 
L 126.244546 83.389546 
L 131.19602 83.406533 
L 136.904163 83.168173 
L 144.063142 82.618949 
L 150.777355 81.872393 
L 158.078743 80.813452 
L 165.118779 79.712936 
L 165.118779 79.712936 
" style="fill:none;stroke:#000000;stroke-linecap:square;stroke-opacity:0.7;stroke-width:1.2;"/>
   </g>
   <g id="line2d_20">
    <path clip-path="url(#p38605f3856)" d="M 165.025479 60.951637 
L 160.405272 59.207375 
L 155.345278 57.51328 
L 151.578279 56.47495 
L 148.268275 55.793548 
L 145.181813 55.396913 
L 142.045647 55.238211 
L 138.883798 55.296761 
L 134.28309 55.647807 
L 116.058386 57.530438 
L 113.538748 58.021857 
L 111.509202 58.608083 
L 109.887857 59.293248 
L 108.833233 59.973612 
L 108.322822 60.585132 
L 108.258819 61.054314 
L 108.493683 61.464719 
L 108.921019 61.800254 
L 109.95308 62.292334 
L 111.838828 62.893264 
L 115.030556 63.621128 
L 118.729454 64.229355 
L 122.774785 64.674967 
L 126.687077 64.901645 
L 130.679269 64.930147 
L 135.458447 64.727679 
L 142.013287 64.184631 
L 150.108638 63.277275 
L 157.601442 62.198222 
L 164.999231 60.955686 
L 164.999231 60.955686 
" style="fill:none;stroke:#000000;stroke-linecap:square;stroke-opacity:0.7;stroke-width:1.2;"/>
   </g>
   <g id="line2d_21">
    <path clip-path="url(#p38605f3856)" d="M 228.927725 232.735533 
L 218.715874 230.108866 
L 212.591814 228.761318 
L 208.208465 228.014341 
L 204.241886 227.558715 
L 200.476859 227.342614 
L 196.553483 227.326887 
L 191.71173 227.540492 
L 186.558707 227.995488 
L 182.497742 228.571797 
L 179.889436 229.124611 
L 177.383133 229.88093 
L 175.361012 230.731589 
L 173.838022 231.59232 
L 172.754528 232.458079 
L 172.46856 232.949064 
L 172.580963 233.152043 
L 173.039245 233.276981 
L 174.201282 233.281542 
L 178.229326 232.95569 
L 191.995093 231.794323 
L 198.113815 231.505893 
L 204.11857 231.451657 
L 212.280767 231.612138 
L 219.679788 231.95909 
L 226.277036 232.480297 
L 228.91059 232.747 
L 228.91059 232.747 
" style="fill:none;stroke:#000000;stroke-linecap:square;stroke-opacity:0.7;stroke-width:1.2;"/>
   </g>
   <g id="line2d_22">
    <path clip-path="url(#p38605f3856)" d="M 228.922948 213.62183 
L 216.929485 210.564086 
L 211.505787 209.433699 
L 207.708567 208.848338 
L 203.735954 208.473197 
L 199.503792 208.336891 
L 195.053179 208.414998 
L 188.821316 208.762003 
L 184.065256 209.24218 
L 180.861495 209.785286 
L 178.45483 210.400711 
L 176.343016 211.161962 
L 174.458174 212.102266 
L 173.312352 212.885839 
L 172.605411 213.633997 
L 172.538808 214.056617 
L 172.801988 214.27395 
L 173.432359 214.421455 
L 174.828901 214.507415 
L 179.276259 214.485207 
L 190.970784 214.158529 
L 215.806229 213.346538 
L 223.02613 213.417174 
L 228.912294 213.632757 
L 228.912294 213.632757 
" style="fill:none;stroke:#000000;stroke-linecap:square;stroke-opacity:0.7;stroke-width:1.2;"/>
   </g>
   <g id="line2d_23">
    <path clip-path="url(#p38605f3856)" d="M 228.974764 194.311047 
L 214.090793 190.914128 
L 209.302199 190.057917 
L 205.354695 189.555393 
L 201.829336 189.29788 
L 197.829147 189.218379 
L 193.123689 189.351569 
L 187.298844 189.760617 
L 183.397853 190.217095 
L 180.475667 190.740668 
L 177.975941 191.404468 
L 176.053078 192.127339 
L 174.467138 192.938259 
L 173.413191 193.661848 
L 172.647119 194.462978 
L 172.546703 194.851011 
L 172.696648 195.054568 
L 173.260268 195.235104 
L 174.880708 195.340416 
L 181.210254 195.34006 
L 199.790009 195.139851 
L 212.95421 194.699285 
L 224.973165 194.347673 
L 228.969363 194.323446 
L 228.969363 194.323446 
" style="fill:none;stroke:#000000;stroke-linecap:square;stroke-opacity:0.7;stroke-width:1.2;"/>
   </g>
   <g id="line2d_24">
    <path clip-path="url(#p38605f3856)" d="M 228.87004 175.533801 
L 221.358715 173.427291 
L 215.790062 172.035383 
L 210.92521 171.042464 
L 206.724773 170.436421 
L 202.916362 170.124006 
L 198.729657 170.027356 
L 193.454125 170.184673 
L 187.478665 170.611482 
L 183.571059 171.049544 
L 180.248695 171.615136 
L 177.441314 172.343576 
L 175.367672 173.119471 
L 173.65715 174.009422 
L 172.549292 174.849345 
L 172.139437 175.460606 
L 172.158119 175.709139 
L 172.331858 175.907629 
L 173.01939 176.17682 
L 174.486023 176.417052 
L 178.048881 176.714166 
L 184.095723 176.972602 
L 190.165713 177.014304 
L 196.349017 176.814428 
L 218.370948 175.779269 
L 228.855085 175.543606 
L 228.855085 175.543606 
" style="fill:none;stroke:#000000;stroke-linecap:square;stroke-opacity:0.7;stroke-width:1.2;"/>
   </g>
   <g id="line2d_25">
    <path clip-path="url(#p38605f3856)" d="M 228.816958 156.584406 
L 224.289548 155.182855 
L 217.88648 153.390194 
L 213.482513 152.369026 
L 209.724672 151.709609 
L 206.009018 151.288148 
L 202.105144 151.082997 
L 197.59074 151.08027 
L 191.17815 151.341149 
L 185.696329 151.763357 
L 181.920917 152.245162 
L 178.852874 152.859057 
L 176.290115 153.62534 
L 174.408204 154.420483 
L 172.980301 155.256407 
L 172.060926 156.079927 
L 171.808136 156.618233 
L 171.918087 156.971799 
L 172.197274 157.192803 
L 172.695785 157.393341 
L 173.744503 157.624541 
L 176.497741 157.941731 
L 181.428344 158.234607 
L 186.973512 158.351381 
L 192.274722 158.260801 
L 198.068879 157.931802 
L 211.807669 157.021058 
L 220.057664 156.751484 
L 228.798601 156.591779 
L 228.798601 156.591779 
" style="fill:none;stroke:#000000;stroke-linecap:square;stroke-opacity:0.7;stroke-width:1.2;"/>
   </g>
   <g id="line2d_26">
    <path clip-path="url(#p38605f3856)" d="M 228.818625 137.474607 
L 222.668593 135.55818 
L 216.706473 133.920759 
L 212.866033 133.059509 
L 208.965578 132.415316 
L 205.824885 132.094918 
L 201.99156 131.937951 
L 198.027796 131.991893 
L 191.654046 132.334637 
L 184.614376 132.915755 
L 180.616847 133.469332 
L 178.266187 133.970985 
L 175.824886 134.721376 
L 174.276563 135.383243 
L 172.809496 136.268206 
L 172.12353 136.980241 
L 172.014181 137.396359 
L 172.166744 137.710994 
L 172.470488 137.939476 
L 173.513225 138.3213 
L 175.156695 138.65589 
L 178.487027 139.078514 
L 183.178078 139.431683 
L 187.768372 139.585604 
L 192.668487 139.547825 
L 198.044207 139.280758 
L 219.228321 137.945925 
L 228.794559 137.4989 
L 228.794559 137.4989 
" style="fill:none;stroke:#000000;stroke-linecap:square;stroke-opacity:0.7;stroke-width:1.2;"/>
   </g>
   <g id="line2d_27">
    <path clip-path="url(#p38605f3856)" d="M 228.854486 118.187503 
L 220.564957 115.768155 
L 215.349053 114.472255 
L 211.436378 113.715702 
L 208.239358 113.285447 
L 204.351941 113.011831 
L 200.344116 112.981812 
L 194.794367 113.204966 
L 186.156558 113.807621 
L 181.640451 114.318509 
L 178.7323 114.851362 
L 176.75396 115.378534 
L 174.62843 116.188618 
L 173.428209 116.846509 
L 172.675463 117.454589 
L 172.357225 117.969798 
L 172.370624 118.287186 
L 172.515547 118.509711 
L 173.129907 118.897912 
L 174.379768 119.306875 
L 176.959586 119.83727 
L 180.532465 120.339801 
L 185.292525 120.761653 
L 189.229524 120.914987 
L 193.852336 120.856492 
L 198.82912 120.526759 
L 222.53501 118.513504 
L 228.842693 118.191434 
L 228.842693 118.191434 
" style="fill:none;stroke:#000000;stroke-linecap:square;stroke-opacity:0.7;stroke-width:1.2;"/>
   </g>
   <g id="line2d_28">
    <path clip-path="url(#p38605f3856)" d="M 228.951992 98.729208 
L 217.20981 95.781832 
L 212.735595 94.874644 
L 208.603832 94.276229 
L 204.81452 93.990147 
L 200.979642 93.954171 
L 196.361421 94.152538 
L 187.616001 94.80464 
L 182.104507 95.379292 
L 179.095017 95.887836 
L 176.997689 96.415971 
L 175.346813 96.995613 
L 173.907192 97.697343 
L 172.901218 98.423569 
L 172.42763 99.070961 
L 172.388708 99.406415 
L 172.545646 99.734993 
L 172.878168 100.010821 
L 173.448394 100.287158 
L 175.209786 100.784823 
L 178.051559 101.282809 
L 182.058583 101.753927 
L 186.627513 102.084222 
L 191.134657 102.214955 
L 196.025362 102.135374 
L 201.210748 101.827208 
L 207.890513 101.191746 
L 216.620801 100.115157 
L 225.909482 99.007433 
L 228.942903 98.720215 
L 228.942903 98.720215 
" style="fill:none;stroke:#000000;stroke-linecap:square;stroke-opacity:0.7;stroke-width:1.2;"/>
   </g>
   <g id="line2d_29">
    <path clip-path="url(#p38605f3856)" d="M 228.843302 79.9619 
L 221.145767 77.689827 
L 215.97272 76.370812 
L 212.008612 75.58282 
L 208.373732 75.107194 
L 205.029412 74.905266 
L 201.500043 74.912921 
L 196.840637 75.151233 
L 183.282874 76.15974 
L 180.166406 76.560155 
L 177.352741 77.13599 
L 175.107266 77.85046 
L 173.484986 78.63239 
L 172.488549 79.410965 
L 172.203996 79.83881 
L 172.143092 80.201707 
L 172.290097 80.552205 
L 172.586064 80.823463 
L 173.511142 81.265049 
L 175.08757 81.709235 
L 178.637715 82.36259 
L 182.749113 82.871461 
L 187.164888 83.206334 
L 191.784259 83.329442 
L 196.084385 83.23722 
L 201.71758 82.879393 
L 211.844581 81.954308 
L 221.912788 80.835198 
L 228.825209 79.973927 
L 228.825209 79.973927 
" style="fill:none;stroke:#000000;stroke-linecap:square;stroke-opacity:0.7;stroke-width:1.2;"/>
   </g>
   <g id="line2d_30">
    <path clip-path="url(#p38605f3856)" d="M 228.895604 60.684088 
L 219.81564 58.159813 
L 215.169085 57.060356 
L 211.577829 56.3988 
L 208.398724 56.007438 
L 205.254191 55.824056 
L 201.493897 55.84738 
L 196.395837 56.146015 
L 181.599944 57.335782 
L 178.472496 57.842534 
L 176.000088 58.486868 
L 174.48309 59.068673 
L 173.09302 59.861539 
L 172.42778 60.541297 
L 172.293778 61.060091 
L 172.489467 61.464922 
L 172.814924 61.740286 
L 173.878708 62.244632 
L 176.121854 62.898769 
L 179.610063 63.625233 
L 183.969912 64.287458 
L 188.082649 64.703726 
L 192.500425 64.921688 
L 196.40813 64.913296 
L 201.166167 64.677717 
L 207.006412 64.143307 
L 213.550752 63.309176 
L 220.752957 62.149274 
L 228.875677 60.701913 
L 228.875677 60.701913 
" style="fill:none;stroke:#000000;stroke-linecap:square;stroke-opacity:0.7;stroke-width:1.2;"/>
   </g>
   <g id="line2d_31">
    <path clip-path="url(#p38605f3856)" d="M 292.709307 232.796303 
L 278.764166 229.621132 
L 273.183723 228.59872 
L 268.812698 228.027183 
L 264.673984 227.718616 
L 260.318245 227.623734 
L 255.302177 227.737937 
L 250.286661 228.063577 
L 246.34553 228.549233 
L 243.574494 229.11084 
L 241.449891 229.736789 
L 239.334008 230.606651 
L 237.901579 231.404955 
L 236.662344 232.376684 
L 236.304448 232.856207 
L 236.286773 233.215782 
L 236.559908 233.39855 
L 237.309582 233.49083 
L 239.059115 233.415928 
L 247.047586 232.661802 
L 256.11913 231.905962 
L 262.343566 231.610713 
L 268.700333 231.54358 
L 276.617893 231.683 
L 283.488091 232.012165 
L 290.008961 232.539848 
L 292.688027 232.814512 
L 292.688027 232.814512 
" style="fill:none;stroke:#000000;stroke-linecap:square;stroke-opacity:0.7;stroke-width:1.2;"/>
   </g>
   <g id="line2d_32">
    <path clip-path="url(#p38605f3856)" d="M 292.727256 213.555185 
L 277.099006 210.23353 
L 272.016159 209.386162 
L 267.746137 208.895931 
L 263.800945 208.651366 
L 258.770637 208.586421 
L 253.291543 208.752226 
L 248.758581 209.10644 
L 245.641994 209.549015 
L 243.257726 210.064382 
L 241.138097 210.705175 
L 239.007508 211.589494 
L 237.51078 212.426351 
L 236.326188 213.361824 
L 235.977641 213.8764 
L 235.97968 214.132957 
L 236.243107 214.361867 
L 237.022857 214.53815 
L 239.199519 214.635253 
L 244.533578 214.571759 
L 253.907761 214.228324 
L 264.177919 213.601768 
L 273.414881 213.106402 
L 279.879387 212.978686 
L 285.695854 213.104774 
L 291.445468 213.459787 
L 292.727335 213.565081 
L 292.727335 213.565081 
" style="fill:none;stroke:#000000;stroke-linecap:square;stroke-opacity:0.7;stroke-width:1.2;"/>
   </g>
   <g id="line2d_33">
    <path clip-path="url(#p38605f3856)" d="M 292.641447 194.759029 
L 282.069787 192.128279 
L 276.244107 190.885855 
L 271.871015 190.164055 
L 268.113137 189.745839 
L 264.153702 189.519389 
L 259.38936 189.490419 
L 253.580918 189.70173 
L 248.569858 190.098561 
L 245.453263 190.528691 
L 242.567174 191.152895 
L 240.26736 191.886517 
L 238.626676 192.593833 
L 237.265443 193.35764 
L 236.243898 194.146459 
L 235.803532 194.777266 
L 235.812604 195.037337 
L 236.034123 195.272176 
L 236.526435 195.462197 
L 237.730384 195.654656 
L 240.399546 195.813582 
L 245.952168 195.875504 
L 252.774257 195.727428 
L 260.293685 195.336298 
L 270.138718 194.824124 
L 277.688403 194.681941 
L 289.277153 194.722137 
L 292.636355 194.762871 
L 292.636355 194.762871 
" style="fill:none;stroke:#000000;stroke-linecap:square;stroke-opacity:0.7;stroke-width:1.2;"/>
   </g>
   <g id="line2d_34">
    <path clip-path="url(#p38605f3856)" d="M 292.619521 175.6808 
L 283.466938 173.260418 
L 277.608312 171.935276 
L 273.213065 171.159247 
L 269.189328 170.679695 
L 265.08986 170.434667 
L 260.740045 170.399046 
L 254.838626 170.59073 
L 249.184146 170.994652 
L 245.713396 171.442838 
L 243.156539 171.956388 
L 240.77427 172.646548 
L 238.796286 173.439218 
L 237.273163 174.262016 
L 236.293231 175.010157 
L 235.906813 175.551181 
L 235.907888 175.867004 
L 236.140231 176.119725 
L 236.67591 176.348758 
L 237.790927 176.582388 
L 240.392059 176.856712 
L 245.35082 177.100081 
L 251.359236 177.147154 
L 257.029882 176.957541 
L 263.636341 176.475606 
L 272.821224 175.810472 
L 279.422797 175.588736 
L 286.519393 175.585094 
L 292.614299 175.691621 
L 292.614299 175.691621 
" style="fill:none;stroke:#000000;stroke-linecap:square;stroke-opacity:0.7;stroke-width:1.2;"/>
   </g>
   <g id="line2d_35">
    <path clip-path="url(#p38605f3856)" d="M 292.742499 156.158146 
L 277.951808 152.929462 
L 272.656419 152.039402 
L 268.556421 151.579902 
L 264.627387 151.367137 
L 260.254946 151.366269 
L 254.860484 151.601447 
L 249.223059 152.057138 
L 245.634689 152.53171 
L 242.687035 153.151784 
L 240.714765 153.765421 
L 238.873337 154.562046 
L 237.704137 155.24831 
L 236.787765 156.029961 
L 236.534637 156.527208 
L 236.610281 156.805796 
L 236.866073 157.020445 
L 237.482746 157.256706 
L 239.236095 157.576301 
L 242.777527 157.907481 
L 248.460588 158.176073 
L 254.639567 158.229995 
L 260.597884 158.045215 
L 268.08645 157.54985 
L 284.36762 156.406037 
L 291.450602 156.174007 
L 292.737403 156.154339 
L 292.737403 156.154339 
" style="fill:none;stroke:#000000;stroke-linecap:square;stroke-opacity:0.7;stroke-width:1.2;"/>
   </g>
   <g id="line2d_36">
    <path clip-path="url(#p38605f3856)" d="M 292.730302 137.084159 
L 277.256668 133.7013 
L 272.749552 132.966567 
L 268.871335 132.549768 
L 264.907342 132.357827 
L 260.248016 132.385511 
L 253.776562 132.693283 
L 248.126714 133.160264 
L 244.872611 133.597551 
L 241.950383 134.203747 
L 240.078615 134.763008 
L 238.398769 135.443369 
L 237.068082 136.196043 
L 236.30551 136.868311 
L 236.075034 137.375497 
L 236.159737 137.677253 
L 236.475503 137.959253 
L 237.279949 138.291352 
L 238.907791 138.661999 
L 242.051121 139.109539 
L 246.915044 139.548889 
L 251.885402 139.777764 
L 256.608712 139.782245 
L 261.738604 139.542895 
L 268.582909 138.953753 
L 284.669679 137.481528 
L 291.626939 137.110851 
L 292.722147 137.070668 
L 292.722147 137.070668 
" style="fill:none;stroke:#000000;stroke-linecap:square;stroke-opacity:0.7;stroke-width:1.2;"/>
   </g>
   <g id="line2d_37">
    <path clip-path="url(#p38605f3856)" d="M 292.614268 118.314026 
L 284.606173 116.151396 
L 279.018458 114.830686 
L 274.398843 113.973234 
L 270.57189 113.500756 
L 266.778523 113.269768 
L 262.284677 113.255558 
L 255.818808 113.519259 
L 248.789763 114.012088 
L 244.879366 114.486984 
L 241.890917 115.08286 
L 239.517617 115.807257 
L 238.11403 116.407369 
L 236.930721 117.103491 
L 236.21528 117.779988 
L 236.044067 118.261895 
L 236.160467 118.570827 
L 236.611192 118.915942 
L 237.351133 119.204505 
L 239.033759 119.597512 
L 242.329573 120.079209 
L 246.936989 120.503055 
L 251.583077 120.725683 
L 256.153449 120.746164 
L 261.496896 120.521117 
L 270.477686 119.826077 
L 283.464457 118.896104 
L 292.605209 118.305297 
L 292.605209 118.305297 
" style="fill:none;stroke:#000000;stroke-linecap:square;stroke-opacity:0.7;stroke-width:1.2;"/>
   </g>
   <g id="line2d_38">
    <path clip-path="url(#p38605f3856)" d="M 292.606017 99.201762 
L 285.601288 97.289106 
L 279.438813 95.794107 
L 275.161359 94.967487 
L 271.682016 94.491242 
L 267.890586 94.206967 
L 264.116334 94.151861 
L 259.339346 94.317024 
L 251.496623 94.852531 
L 245.648904 95.429308 
L 242.794551 95.892875 
L 240.562136 96.45036 
L 238.598561 97.192625 
L 237.434006 97.839016 
L 236.556213 98.622589 
L 236.36203 99.145122 
L 236.50469 99.4896 
L 236.910184 99.795004 
L 238.1651 100.24216 
L 240.918388 100.789164 
L 244.960161 101.315014 
L 249.664957 101.706932 
L 254.758936 101.894016 
L 259.5896 101.838507 
L 264.922722 101.561013 
L 278.697782 100.530351 
L 288.859408 99.591075 
L 292.603296 99.196721 
L 292.603296 99.196721 
" style="fill:none;stroke:#000000;stroke-linecap:square;stroke-opacity:0.7;stroke-width:1.2;"/>
   </g>
   <g id="line2d_39">
    <path clip-path="url(#p38605f3856)" d="M 292.587003 80.137104 
L 284.084612 77.770306 
L 279.079541 76.567791 
L 275.267205 75.843162 
L 271.422077 75.35901 
L 267.669322 75.155027 
L 263.777382 75.18193 
L 257.014325 75.521523 
L 246.19928 76.246515 
L 243.031332 76.674771 
L 240.489099 77.23386 
L 238.796249 77.778334 
L 237.170975 78.523642 
L 236.078458 79.310711 
L 235.644045 79.970565 
L 235.636319 80.331678 
L 235.854194 80.705562 
L 236.273861 81.028256 
L 237.159066 81.430062 
L 238.869126 81.923194 
L 241.615478 82.459079 
L 245.18512 82.936343 
L 249.173458 83.268355 
L 253.8667 83.418323 
L 258.435774 83.324857 
L 263.861423 82.970137 
L 278.684165 81.64849 
L 288.94444 80.565506 
L 292.572928 80.137642 
L 292.572928 80.137642 
" style="fill:none;stroke:#000000;stroke-linecap:square;stroke-opacity:0.7;stroke-width:1.2;"/>
   </g>
   <g id="line2d_40">
    <path clip-path="url(#p38605f3856)" d="M 292.608683 60.930363 
L 286.237959 59.160144 
L 280.453863 57.700432 
L 275.89324 56.775172 
L 272.678075 56.323496 
L 269.199006 56.066573 
L 266.008858 56.033677 
L 261.743888 56.204977 
L 246.146121 57.256866 
L 242.455128 57.712942 
L 239.891387 58.264665 
L 238.508643 58.707134 
L 236.989082 59.414849 
L 236.092912 60.111371 
L 235.765029 60.708949 
L 235.793423 61.077284 
L 236.046753 61.464111 
L 236.703185 61.935265 
L 237.730835 62.397741 
L 239.659712 63.01393 
L 243.06312 63.797875 
L 246.531972 64.373592 
L 250.682768 64.831376 
L 255.050373 65.059218 
L 258.839841 65.055014 
L 263.510622 64.831867 
L 270.08269 64.262842 
L 277.398646 63.41385 
L 284.176783 62.408716 
L 292.581692 60.929957 
L 292.581692 60.929957 
" style="fill:none;stroke:#000000;stroke-linecap:square;stroke-opacity:0.7;stroke-width:1.2;"/>
   </g>
   <g id="line2d_41">
    <path clip-path="url(#p38605f3856)" d="M 356.522879 232.692436 
L 334.465235 228.625767 
L 329.887675 228.135994 
L 325.808679 227.904112 
L 321.197948 227.848916 
L 316.08366 228.017334 
L 312.050905 228.362928 
L 308.806379 228.86254 
L 305.979391 229.555926 
L 303.801187 230.332868 
L 302.194969 231.101917 
L 300.913064 231.909023 
L 300.048174 232.696252 
L 299.828629 233.149479 
L 299.91961 233.387005 
L 300.229094 233.544478 
L 301.064105 233.648221 
L 302.734341 233.621531 
L 308.425404 233.209896 
L 329.10263 231.57337 
L 335.145135 231.417835 
L 341.603249 231.469087 
L 347.388985 231.748613 
L 353.05357 232.267214 
L 356.516381 232.689877 
L 356.516381 232.689877 
" style="fill:none;stroke:#000000;stroke-linecap:square;stroke-opacity:0.7;stroke-width:1.2;"/>
   </g>
   <g id="line2d_42">
    <path clip-path="url(#p38605f3856)" d="M 356.446362 213.841265 
L 342.723272 210.866741 
L 336.72618 209.793776 
L 332.080515 209.188279 
L 327.748226 208.85304 
L 323.176678 208.72373 
L 318.144804 208.792781 
L 313.819951 209.033001 
L 310.018644 209.468695 
L 307.498923 209.951183 
L 305.247482 210.576198 
L 303.050887 211.430414 
L 301.432569 212.286525 
L 300.274618 213.125596 
L 299.777759 213.684412 
L 299.672058 214.082453 
L 299.858631 214.32636 
L 300.245876 214.476951 
L 301.171711 214.602593 
L 303.482043 214.651036 
L 309.734413 214.488203 
L 320.374536 213.974662 
L 332.933984 213.337866 
L 339.771294 213.245347 
L 346.641317 213.371175 
L 355.221561 213.768825 
L 356.446711 213.841798 
L 356.446711 213.841798 
" style="fill:none;stroke:#000000;stroke-linecap:square;stroke-opacity:0.7;stroke-width:1.2;"/>
   </g>
   <g id="line2d_43">
    <path clip-path="url(#p38605f3856)" d="M 356.513044 194.486876 
L 339.175389 191.050915 
L 334.027385 190.292545 
L 329.481977 189.865143 
L 325.069203 189.685624 
L 319.816604 189.715709 
L 314.967653 189.939481 
L 310.950559 190.323275 
L 307.9477 190.823192 
L 305.704529 191.394528 
L 303.742971 192.102694 
L 302.174141 192.875891 
L 300.971238 193.677742 
L 300.247039 194.380775 
L 300.021619 194.877346 
L 300.119483 195.130637 
L 300.348388 195.278644 
L 301.18181 195.461986 
L 303.26759 195.573253 
L 309.694783 195.574932 
L 319.5376 195.364129 
L 330.279051 194.885135 
L 340.74491 194.469722 
L 348.717948 194.366512 
L 356.511843 194.491116 
L 356.511843 194.491116 
" style="fill:none;stroke:#000000;stroke-linecap:square;stroke-opacity:0.7;stroke-width:1.2;"/>
   </g>
   <g id="line2d_44">
    <path clip-path="url(#p38605f3856)" d="M 356.471491 175.495209 
L 340.376597 172.232336 
L 334.702121 171.342068 
L 330.070309 170.859515 
L 325.552301 170.627645 
L 320.361864 170.606576 
L 315.385281 170.798202 
L 311.690976 171.117862 
L 308.49927 171.598739 
L 305.951295 172.19787 
L 303.785259 172.929659 
L 301.999351 173.761752 
L 300.597572 174.673871 
L 299.919955 175.355744 
L 299.742596 175.776939 
L 299.821295 176.051506 
L 300.201334 176.310471 
L 301.196754 176.550186 
L 303.286998 176.753935 
L 308.211972 176.952845 
L 315.118476 177.008135 
L 321.946938 176.840256 
L 330.434379 176.365499 
L 340.555822 175.847591 
L 350.916506 175.57012 
L 356.465519 175.499274 
L 356.465519 175.499274 
" style="fill:none;stroke:#000000;stroke-linecap:square;stroke-opacity:0.7;stroke-width:1.2;"/>
   </g>
   <g id="line2d_45">
    <path clip-path="url(#p38605f3856)" d="M 356.430171 156.476356 
L 343.323931 153.623907 
L 337.546224 152.586543 
L 332.879591 151.989155 
L 329.011479 151.703971 
L 324.39312 151.590005 
L 318.704091 151.691641 
L 313.440463 151.999636 
L 309.53447 152.459816 
L 306.678826 153.03038 
L 304.179265 153.793372 
L 302.204971 154.668846 
L 301.071457 155.364437 
L 300.252064 156.103658 
L 299.990396 156.664017 
L 300.11829 157.024878 
L 300.529389 157.310717 
L 301.594635 157.637754 
L 303.632718 157.96098 
L 307.633085 158.312914 
L 312.524201 158.517391 
L 317.690797 158.51503 
L 322.63954 158.291766 
L 329.031486 157.753152 
L 338.678916 156.956612 
L 345.765334 156.613901 
L 353.408547 156.485138 
L 356.427454 156.476051 
L 356.427454 156.476051 
" style="fill:none;stroke:#000000;stroke-linecap:square;stroke-opacity:0.7;stroke-width:1.2;"/>
   </g>
   <g id="line2d_46">
    <path clip-path="url(#p38605f3856)" d="M 356.561763 136.911495 
L 347.876098 135.352763 
L 337.921303 133.606936 
L 332.922341 132.962881 
L 328.527128 132.642388 
L 324.029409 132.548142 
L 318.66753 132.662068 
L 313.488585 132.975479 
L 309.566751 133.423578 
L 306.595504 133.990545 
L 304.390776 134.623857 
L 302.525219 135.386288 
L 301.092798 136.223438 
L 300.266377 136.964694 
L 299.966528 137.529902 
L 300.003986 137.881061 
L 300.256443 138.171379 
L 300.980415 138.502907 
L 302.402568 138.8144 
L 305.431649 139.173931 
L 310.485114 139.515557 
L 316.261214 139.684284 
L 321.585099 139.630112 
L 326.829273 139.36908 
L 333.567746 138.807 
L 352.233533 137.092022 
L 356.558231 136.913177 
L 356.558231 136.913177 
" style="fill:none;stroke:#000000;stroke-linecap:square;stroke-opacity:0.7;stroke-width:1.2;"/>
   </g>
   <g id="line2d_47">
    <path clip-path="url(#p38605f3856)" d="M 356.473213 118.087231 
L 340.402818 114.742836 
L 335.937538 114.056138 
L 332.395825 113.695149 
L 328.608365 113.516638 
L 323.771402 113.549366 
L 317.001696 113.863718 
L 310.583189 114.354622 
L 307.054257 114.836137 
L 304.763248 115.343789 
L 302.830299 115.981698 
L 301.394042 116.662733 
L 300.430608 117.314291 
L 299.800854 118.02371 
L 299.687946 118.366543 
L 299.806252 118.790806 
L 300.225813 119.135002 
L 300.973814 119.439846 
L 302.633703 119.823137 
L 305.78845 120.253529 
L 310.085561 120.60649 
L 315.455656 120.812858 
L 320.366241 120.794804 
L 326.281665 120.532502 
L 335.389571 119.855841 
L 356.468411 118.086028 
L 356.468411 118.086028 
" style="fill:none;stroke:#000000;stroke-linecap:square;stroke-opacity:0.7;stroke-width:1.2;"/>
   </g>
   <g id="line2d_48">
    <path clip-path="url(#p38605f3856)" d="M 356.457617 99.0071 
L 342.090434 95.901133 
L 337.084682 95.082574 
L 333.131816 94.674106 
L 329.129419 94.51137 
L 324.682093 94.567997 
L 315.914089 94.977136 
L 309.865006 95.411483 
L 306.829765 95.821616 
L 304.84575 96.252514 
L 303.144452 96.794036 
L 301.631573 97.497081 
L 300.813226 98.042069 
L 300.097568 98.823813 
L 299.97406 99.36791 
L 300.158244 99.74556 
L 300.4788 100.006974 
L 301.24531 100.352375 
L 303.019016 100.803058 
L 306.435029 101.328777 
L 310.941351 101.764364 
L 316.288737 102.023444 
L 321.371564 102.025849 
L 327.203209 101.778966 
L 336.690277 101.103222 
L 345.455246 100.279329 
L 356.451738 99.018582 
L 356.451738 99.018582 
" style="fill:none;stroke:#000000;stroke-linecap:square;stroke-opacity:0.7;stroke-width:1.2;"/>
   </g>
   <g id="line2d_49">
    <path clip-path="url(#p38605f3856)" d="M 356.484831 79.781384 
L 340.626874 76.571307 
L 336.001452 75.909983 
L 331.991218 75.581273 
L 327.69417 75.494188 
L 322.053684 75.646886 
L 312.387947 76.151931 
L 308.665936 76.529389 
L 306.129369 76.958543 
L 304.256423 77.425739 
L 302.588316 78.009994 
L 300.991947 78.842337 
L 300.187252 79.564641 
L 299.981806 80.047602 
L 300.070026 80.416328 
L 300.339616 80.703135 
L 300.819421 80.98287 
L 302.238204 81.466189 
L 305.094934 82.076985 
L 308.972002 82.656368 
L 313.390961 83.101815 
L 318.037329 83.342046 
L 322.779771 83.338766 
L 327.304175 83.120444 
L 333.870647 82.553399 
L 342.588354 81.559382 
L 356.474725 79.779804 
L 356.474725 79.779804 
" style="fill:none;stroke:#000000;stroke-linecap:square;stroke-opacity:0.7;stroke-width:1.2;"/>
   </g>
   <g id="line2d_50">
    <path clip-path="url(#p38605f3856)" d="M 356.453596 60.790809 
L 342.966185 57.800049 
L 338.347371 57.010302 
L 334.466628 56.583806 
L 330.566631 56.419464 
L 326.128438 56.489542 
L 315.549969 56.993057 
L 310.251859 57.357338 
L 306.962529 57.774481 
L 304.352757 58.328429 
L 302.567957 58.904834 
L 301.195691 59.553402 
L 300.241113 60.28953 
L 299.956063 60.770241 
L 299.981567 61.233286 
L 300.203904 61.549308 
L 300.728559 61.930494 
L 302.030685 62.490927 
L 304.130398 63.108473 
L 307.309449 63.812144 
L 311.21859 64.459069 
L 315.696942 64.950545 
L 319.92373 65.16671 
L 324.250707 65.138098 
L 329.020798 64.859288 
L 334.900265 64.275332 
L 341.789898 63.35182 
L 349.221905 62.111587 
L 356.429148 60.784496 
L 356.429148 60.784496 
" style="fill:none;stroke:#000000;stroke-linecap:square;stroke-opacity:0.7;stroke-width:1.2;"/>
   </g>
   <g id="line2d_51">
    <path clip-path="url(#p38605f3856)" d="M 420.236677 232.92763 
L 404.679524 230.029814 
L 398.25977 229.034835 
L 393.212533 228.454087 
L 387.810387 228.077295 
L 382.794984 227.954547 
L 378.122632 228.069616 
L 374.792939 228.353558 
L 371.715012 228.852239 
L 369.287168 229.479289 
L 366.967691 230.350566 
L 365.267413 231.233099 
L 364.138137 232.013291 
L 363.458484 232.68229 
L 363.27498 233.126975 
L 363.397466 233.324876 
L 363.635655 233.425074 
L 364.543169 233.502195 
L 366.751073 233.391103 
L 374.225052 232.696262 
L 388.588168 231.326878 
L 393.152641 231.142793 
L 398.388805 231.16368 
L 404.426488 231.410387 
L 410.831492 231.887877 
L 417.768834 232.633285 
L 420.228056 232.943606 
L 420.228056 232.943606 
" style="fill:none;stroke:#000000;stroke-linecap:square;stroke-opacity:0.7;stroke-width:1.2;"/>
   </g>
   <g id="line2d_52">
    <path clip-path="url(#p38605f3856)" d="M 420.16892 214.049846 
L 410.119532 211.762028 
L 402.902023 210.340983 
L 397.959223 209.589954 
L 393.68093 209.163158 
L 389.067829 208.950273 
L 384.493473 208.945667 
L 378.562063 209.168326 
L 374.3836 209.52683 
L 371.474168 209.974472 
L 369.080168 210.551852 
L 367.245478 211.175911 
L 365.395215 212.024237 
L 364.143439 212.803216 
L 363.533652 213.375792 
L 363.414275 213.633535 
L 363.532602 213.91953 
L 363.92934 214.110273 
L 364.869616 214.292433 
L 367.294856 214.476446 
L 371.925628 214.57008 
L 378.08737 214.461608 
L 384.449825 214.113869 
L 397.445276 213.268227 
L 402.935831 213.210443 
L 409.010406 213.37785 
L 417.141766 213.851871 
L 420.171939 214.062645 
L 420.171939 214.062645 
" style="fill:none;stroke:#000000;stroke-linecap:square;stroke-opacity:0.7;stroke-width:1.2;"/>
   </g>
   <g id="line2d_53">
    <path clip-path="url(#p38605f3856)" d="M 420.235075 194.661321 
L 404.962504 191.822201 
L 398.379284 190.812714 
L 393.074234 190.23793 
L 388.323832 189.940254 
L 383.283676 189.833433 
L 378.60537 189.94227 
L 374.888054 190.240759 
L 371.655688 190.749187 
L 369.244525 191.353757 
L 366.843818 192.229149 
L 365.396138 192.948499 
L 364.270179 193.683569 
L 363.581149 194.341311 
L 363.381887 194.767067 
L 363.45423 195.046223 
L 363.673681 195.233576 
L 364.430594 195.493609 
L 366.473471 195.766185 
L 370.229195 195.969102 
L 375.945376 196.026776 
L 381.194561 195.872845 
L 386.907336 195.471957 
L 399.963511 194.389466 
L 405.973505 194.201049 
L 411.539257 194.247485 
L 418.388018 194.542137 
L 420.241892 194.652873 
L 420.241892 194.652873 
" style="fill:none;stroke:#000000;stroke-linecap:square;stroke-opacity:0.7;stroke-width:1.2;"/>
   </g>
   <g id="line2d_54">
    <path clip-path="url(#p38605f3856)" d="M 420.243213 175.548769 
L 406.400712 172.909918 
L 399.702926 171.830531 
L 394.970189 171.28037 
L 390.64734 170.983483 
L 385.295954 170.868861 
L 379.548241 171.0036 
L 375.263795 171.314262 
L 372.19083 171.733833 
L 369.51773 172.326078 
L 367.455789 172.999919 
L 365.383412 173.968754 
L 364.108785 174.845841 
L 363.562462 175.485422 
L 363.489747 175.848646 
L 363.629229 176.100819 
L 363.900549 176.284293 
L 364.848088 176.571432 
L 366.604131 176.819415 
L 370.24485 177.07669 
L 375.711955 177.225678 
L 381.662857 177.15015 
L 387.367785 176.838473 
L 404.252711 175.690985 
L 411.691741 175.529869 
L 420.247874 175.547818 
L 420.247874 175.547818 
" style="fill:none;stroke:#000000;stroke-linecap:square;stroke-opacity:0.7;stroke-width:1.2;"/>
   </g>
   <g id="line2d_55">
    <path clip-path="url(#p38605f3856)" d="M 420.201876 156.543896 
L 406.662574 153.861285 
L 400.372929 152.814545 
L 395.270544 152.203202 
L 390.723908 151.898514 
L 385.565819 151.801844 
L 380.049693 151.926684 
L 375.768756 152.207919 
L 372.756219 152.576158 
L 369.94567 153.148343 
L 368.154813 153.695443 
L 366.218556 154.539384 
L 365.078786 155.243724 
L 364.217198 156.040419 
L 363.952545 156.60721 
L 364.030706 156.932494 
L 364.289952 157.173249 
L 364.995187 157.455857 
L 366.344648 157.720368 
L 369.732247 158.063588 
L 374.969123 158.32809 
L 380.601373 158.381093 
L 385.945939 158.19402 
L 392.534012 157.692987 
L 402.344221 156.961007 
L 409.332338 156.674972 
L 418.390102 156.552377 
L 420.200104 156.546201 
L 420.200104 156.546201 
" style="fill:none;stroke:#000000;stroke-linecap:square;stroke-opacity:0.7;stroke-width:1.2;"/>
   </g>
   <g id="line2d_56">
    <path clip-path="url(#p38605f3856)" d="M 420.304687 137.090507 
L 406.996652 134.761733 
L 399.785446 133.635372 
L 395.289784 133.144361 
L 390.725891 132.879448 
L 385.606505 132.821105 
L 379.778996 132.977204 
L 375.097778 133.316266 
L 371.992439 133.745453 
L 369.72307 134.24211 
L 367.559718 134.944925 
L 366.116951 135.610649 
L 364.933292 136.381442 
L 364.267074 137.089738 
L 364.117746 137.544558 
L 364.265625 137.913009 
L 364.742423 138.231491 
L 365.848281 138.560889 
L 367.889114 138.884448 
L 371.79795 139.24917 
L 377.534055 139.534047 
L 382.565484 139.588588 
L 387.551298 139.449804 
L 393.682213 139.046013 
L 417.840571 137.184238 
L 420.297976 137.091489 
L 420.297976 137.091489 
" style="fill:none;stroke:#000000;stroke-linecap:square;stroke-opacity:0.7;stroke-width:1.2;"/>
   </g>
   <g id="line2d_57">
    <path clip-path="url(#p38605f3856)" d="M 420.31059 117.930634 
L 410.098537 116.173796 
L 400.836028 114.653754 
L 395.938087 114.084862 
L 391.545741 113.827824 
L 386.885821 113.801475 
L 380.600724 114.018234 
L 374.47065 114.435542 
L 371.187004 114.844783 
L 369.058291 115.27274 
L 366.902448 115.940212 
L 365.477353 116.597866 
L 364.39802 117.324246 
L 363.832482 117.944592 
L 363.670271 118.417256 
L 363.79573 118.796852 
L 364.260166 119.157413 
L 365.290733 119.525392 
L 367.398347 119.93459 
L 371.247135 120.375407 
L 375.580774 120.66872 
L 380.758535 120.814591 
L 386.322562 120.733838 
L 392.44948 120.406944 
L 401.722693 119.677873 
L 420.316897 117.909192 
L 420.316897 117.909192 
" style="fill:none;stroke:#000000;stroke-linecap:square;stroke-opacity:0.7;stroke-width:1.2;"/>
   </g>
   <g id="line2d_58">
    <path clip-path="url(#p38605f3856)" d="M 420.279544 98.90197 
L 399.29078 95.324998 
L 395.102232 94.935055 
L 390.615835 94.756384 
L 384.712172 94.789733 
L 377.632947 95.059679 
L 373.019686 95.454114 
L 370.320937 95.874755 
L 367.970438 96.447147 
L 366.288486 97.044059 
L 364.878191 97.753934 
L 363.921763 98.487351 
L 363.504632 99.136331 
L 363.49749 99.472904 
L 363.710329 99.817631 
L 364.030199 100.049061 
L 364.75188 100.352379 
L 366.585565 100.787358 
L 369.471152 101.209981 
L 373.750663 101.619834 
L 379.115535 101.898797 
L 384.509499 101.935491 
L 389.884892 101.741097 
L 397.760785 101.18936 
L 407.420946 100.286481 
L 420.279034 98.888489 
L 420.279034 98.888489 
" style="fill:none;stroke:#000000;stroke-linecap:square;stroke-opacity:0.7;stroke-width:1.2;"/>
   </g>
   <g id="line2d_59">
    <path clip-path="url(#p38605f3856)" d="M 420.283709 79.791777 
L 400.594724 76.308255 
L 396.596075 75.923155 
L 392.772877 75.762931 
L 387.604639 75.7905 
L 378.287289 76.111412 
L 373.628045 76.432401 
L 370.607893 76.835852 
L 368.415331 77.32239 
L 366.775471 77.867849 
L 365.490199 78.487093 
L 364.767485 78.986903 
L 364.251257 79.549333 
L 364.085152 80.092645 
L 364.224644 80.471566 
L 364.522637 80.759927 
L 365.328747 81.174179 
L 366.881448 81.646707 
L 369.786034 82.236585 
L 374.127203 82.843431 
L 378.165152 83.210246 
L 382.785095 83.415722 
L 387.869196 83.388056 
L 393.477852 83.111856 
L 400.530937 82.529599 
L 407.205606 81.769055 
L 414.827804 80.665292 
L 420.266098 79.814193 
L 420.266098 79.814193 
" style="fill:none;stroke:#000000;stroke-linecap:square;stroke-opacity:0.7;stroke-width:1.2;"/>
   </g>
   <g id="line2d_60">
    <path clip-path="url(#p38605f3856)" d="M 420.139927 61.071123 
L 412.394604 59.288319 
L 405.478549 57.880332 
L 401.127174 57.210208 
L 397.365593 56.852896 
L 393.514138 56.719004 
L 388.588082 56.797261 
L 374.554199 57.378534 
L 371.370196 57.673938 
L 368.794435 58.105468 
L 367.190476 58.51931 
L 365.402264 59.201892 
L 364.492155 59.716643 
L 363.711176 60.431611 
L 363.502184 60.933245 
L 363.558219 61.299798 
L 363.897957 61.728042 
L 364.469771 62.09606 
L 366.095203 62.718753 
L 368.809961 63.390334 
L 372.258563 63.990632 
L 376.269959 64.464416 
L 380.174587 64.725819 
L 384.432451 64.794554 
L 389.054593 64.639046 
L 395.60623 64.165535 
L 405.154939 63.255031 
L 412.046006 62.368781 
L 419.5931 61.14604 
L 420.13876 61.051378 
L 420.13876 61.051378 
" style="fill:none;stroke:#000000;stroke-linecap:square;stroke-opacity:0.7;stroke-width:1.2;"/>
   </g>
   <g id="line2d_61">
    <path clip-path="url(#p38605f3856)" d="M 483.959239 233.161152 
L 474.005817 231.202356 
L 465.817867 229.810305 
L 459.873935 229.010241 
L 454.36662 228.482686 
L 449.083846 228.186976 
L 444.504445 228.122371 
L 440.665734 228.264806 
L 437.512295 228.592682 
L 435.13798 229.024141 
L 432.862617 229.63971 
L 430.633287 230.497539 
L 428.769621 231.499068 
L 427.741551 232.274416 
L 427.2673 232.903227 
L 427.315088 233.193728 
L 427.593386 233.350971 
L 428.389268 233.457525 
L 430.127961 233.432322 
L 435.28649 233.071504 
L 447.118467 231.989578 
L 454.778475 231.363097 
L 459.484568 231.200572 
L 464.718922 231.259678 
L 470.131155 231.562186 
L 475.593675 232.083666 
L 483.280608 233.060635 
L 483.959215 233.154467 
L 483.959215 233.154467 
" style="fill:none;stroke:#000000;stroke-linecap:square;stroke-opacity:0.7;stroke-width:1.2;"/>
   </g>
   <g id="line2d_62">
    <path clip-path="url(#p38605f3856)" d="M 484.069205 213.674713 
L 459.21988 209.938499 
L 453.905326 209.427685 
L 448.616575 209.141299 
L 443.940964 209.102275 
L 440.195447 209.274246 
L 437.121239 209.624329 
L 434.605875 210.118376 
L 432.388733 210.769894 
L 430.648402 211.473938 
L 429.187674 212.253095 
L 428.037717 213.080121 
L 427.368125 213.846642 
L 427.294248 214.298588 
L 427.522739 214.546902 
L 428.085516 214.728234 
L 429.430503 214.843637 
L 432.648871 214.811565 
L 439.65686 214.472482 
L 448.698007 213.814003 
L 458.859064 213.061164 
L 465.485278 212.83807 
L 471.318476 212.858606 
L 476.953801 213.097098 
L 483.408842 213.60997 
L 484.077059 213.674461 
L 484.077059 213.674461 
" style="fill:none;stroke:#000000;stroke-linecap:square;stroke-opacity:0.7;stroke-width:1.2;"/>
   </g>
   <g id="line2d_63">
    <path clip-path="url(#p38605f3856)" d="M 484.066943 194.553775 
L 462.812105 191.189051 
L 457.400176 190.601834 
L 452.462822 190.294695 
L 446.728139 190.180371 
L 441.474666 190.283352 
L 437.906764 190.54154 
L 435.039338 190.967411 
L 432.668164 191.562144 
L 430.668953 192.314149 
L 429.109241 193.136961 
L 427.918797 194.037558 
L 427.479592 194.606554 
L 427.425099 194.968673 
L 427.611723 195.226558 
L 428.159092 195.46232 
L 429.407686 195.669576 
L 432.466486 195.850553 
L 438.082383 195.908427 
L 444.596854 195.751233 
L 451.527437 195.341033 
L 464.3661 194.489924 
L 471.057282 194.297989 
L 477.669009 194.335335 
L 484.07233 194.560279 
L 484.07233 194.560279 
" style="fill:none;stroke:#000000;stroke-linecap:square;stroke-opacity:0.7;stroke-width:1.2;"/>
   </g>
   <g id="line2d_64">
    <path clip-path="url(#p38605f3856)" d="M 484.013036 175.625102 
L 465.616992 172.358766 
L 459.899821 171.581461 
L 455.069265 171.136112 
L 450.602235 170.926168 
L 445.312305 170.912739 
L 440.565861 171.123276 
L 436.944543 171.498668 
L 434.358534 171.962644 
L 431.895197 172.643898 
L 429.844956 173.481147 
L 428.463902 174.286874 
L 427.777396 174.866166 
L 427.429532 175.452045 
L 427.468803 175.709051 
L 427.649572 175.906378 
L 428.187011 176.145665 
L 429.361363 176.38247 
L 432.347629 176.672499 
L 437.806647 176.935625 
L 444.049099 177.005145 
L 449.889483 176.830568 
L 457.441472 176.335249 
L 466.051848 175.843533 
L 473.908982 175.651479 
L 484.015483 175.634823 
L 484.015483 175.634823 
" style="fill:none;stroke:#000000;stroke-linecap:square;stroke-opacity:0.7;stroke-width:1.2;"/>
   </g>
   <g id="line2d_65">
    <path clip-path="url(#p38605f3856)" d="M 483.97406 156.586575 
L 471.048346 154.228362 
L 464.011698 153.147309 
L 458.20713 152.48859 
L 452.885722 152.115308 
L 447.234702 151.950064 
L 442.576637 152.016326 
L 439.144898 152.246277 
L 436.129753 152.653897 
L 433.877769 153.14336 
L 431.458775 153.92225 
L 429.461071 154.869722 
L 428.285096 155.693052 
L 427.778191 156.282325 
L 427.679416 156.719436 
L 427.876632 157.042889 
L 428.501323 157.371685 
L 429.901248 157.714708 
L 432.780147 158.098075 
L 436.784113 158.403439 
L 442.039874 158.563196 
L 446.897649 158.478489 
L 451.888321 158.151765 
L 468.425624 156.798831 
L 474.796734 156.622139 
L 483.971487 156.59445 
L 483.971487 156.59445 
" style="fill:none;stroke:#000000;stroke-linecap:square;stroke-opacity:0.7;stroke-width:1.2;"/>
   </g>
   <g id="line2d_66">
    <path clip-path="url(#p38605f3856)" d="M 484.049428 137.257604 
L 464.094916 134.075558 
L 458.440211 133.460508 
L 453.194794 133.135616 
L 447.353151 133.01015 
L 442.013114 133.094659 
L 438.179133 133.346339 
L 435.102626 133.770292 
L 432.976959 134.254912 
L 430.904572 134.961041 
L 429.438014 135.680161 
L 428.257633 136.522117 
L 427.636157 137.314053 
L 427.573943 137.792974 
L 427.741444 138.097149 
L 428.197392 138.406956 
L 429.226819 138.734673 
L 431.477806 139.093481 
L 435.358042 139.424231 
L 440.546982 139.632644 
L 445.796171 139.632811 
L 451.065469 139.416687 
L 458.33737 138.854258 
L 471.967039 137.783638 
L 480.13806 137.381298 
L 484.038751 137.256064 
L 484.038751 137.256064 
" style="fill:none;stroke:#000000;stroke-linecap:square;stroke-opacity:0.7;stroke-width:1.2;"/>
   </g>
   <g id="line2d_67">
    <path clip-path="url(#p38605f3856)" d="M 483.990128 118.309514 
L 473.336015 116.319412 
L 466.027119 115.130966 
L 460.954452 114.523567 
L 456.379189 114.199791 
L 451.106561 114.063035 
L 444.103526 114.13273 
L 438.849014 114.395538 
L 435.975865 114.712123 
L 433.186949 115.242015 
L 430.820378 115.965026 
L 429.416004 116.584302 
L 428.220233 117.334845 
L 427.678466 117.887232 
L 427.510798 118.315796 
L 427.571661 118.600749 
L 427.729706 118.804916 
L 428.152545 119.088102 
L 429.268769 119.490932 
L 431.60466 119.977847 
L 435.345775 120.458269 
L 439.310164 120.759424 
L 443.72625 120.891501 
L 448.531093 120.794336 
L 453.620874 120.447288 
L 471.110631 119.044876 
L 484.001469 118.298563 
L 484.001469 118.298563 
" style="fill:none;stroke:#000000;stroke-linecap:square;stroke-opacity:0.7;stroke-width:1.2;"/>
   </g>
   <g id="line2d_68">
    <path clip-path="url(#p38605f3856)" d="M 484.00343 99.153791 
L 469.730491 96.537578 
L 463.818879 95.693036 
L 459.275645 95.271916 
L 454.14311 95.051832 
L 446.832254 95.018292 
L 440.490961 95.182882 
L 436.706869 95.495583 
L 434.199491 95.887811 
L 431.865301 96.465811 
L 430.292959 97.028246 
L 428.955003 97.686946 
L 427.867279 98.496715 
L 427.469417 99.088952 
L 427.473775 99.539028 
L 427.681281 99.828814 
L 428.214813 100.168939 
L 429.50526 100.604384 
L 431.722129 101.056016 
L 435.373993 101.538238 
L 439.952921 101.897647 
L 444.653555 102.036188 
L 449.073278 101.95875 
L 454.389471 101.635658 
L 474.193492 99.966446 
L 483.99265 99.166368 
L 483.99265 99.166368 
" style="fill:none;stroke:#000000;stroke-linecap:square;stroke-opacity:0.7;stroke-width:1.2;"/>
   </g>
   <g id="line2d_69">
    <path clip-path="url(#p38605f3856)" d="M 484.010812 79.987059 
L 468.258246 77.180518 
L 463.219572 76.51281 
L 458.666297 76.148999 
L 454.19207 76.010476 
L 446.85739 76.04914 
L 439.61566 76.283456 
L 435.772105 76.621685 
L 433.183144 77.050435 
L 430.84066 77.682162 
L 429.168492 78.378374 
L 428.043058 79.097427 
L 427.463334 79.756232 
L 427.350846 80.299099 
L 427.524852 80.672079 
L 427.893254 80.993522 
L 428.891615 81.459259 
L 430.869967 81.995444 
L 434.187978 82.574957 
L 438.220822 83.041155 
L 442.785849 83.34261 
L 447.359195 83.416361 
L 451.9198 83.271396 
L 458.504576 82.798109 
L 469.150554 81.78404 
L 479.049289 80.612428 
L 484.013758 79.969881 
L 484.013758 79.969881 
" style="fill:none;stroke:#000000;stroke-linecap:square;stroke-opacity:0.7;stroke-width:1.2;"/>
   </g>
   <g id="line2d_70">
    <path clip-path="url(#p38605f3856)" d="M 484.058935 60.678295 
L 463.551237 57.474274 
L 458.983082 57.118502 
L 453.892544 56.991509 
L 445.793394 57.068495 
L 439.01543 57.308598 
L 435.609704 57.623944 
L 433.265635 58.009244 
L 430.936081 58.623972 
L 429.396362 59.247699 
L 428.17408 60.016911 
L 427.691202 60.545757 
L 427.521951 61.11651 
L 427.710098 61.564136 
L 428.237431 61.994833 
L 429.234397 62.451587 
L 431.110436 63.021167 
L 434.453365 63.749696 
L 438.79794 64.433389 
L 443.045081 64.873211 
L 447.351015 65.084431 
L 451.823668 65.047552 
L 456.449543 64.770877 
L 462.29489 64.178594 
L 468.804567 63.285874 
L 476.693165 61.959522 
L 484.05156 60.664895 
L 484.05156 60.664895 
" style="fill:none;stroke:#000000;stroke-linecap:square;stroke-opacity:0.7;stroke-width:1.2;"/>
   </g>
   <g id="line2d_71">
    <path clip-path="url(#p38605f3856)" d="M 547.876587 232.784775 
L 520.223168 229.139758 
L 514.232994 228.643366 
L 508.907469 228.420538 
L 505.196565 228.449765 
L 502.191529 228.657751 
L 499.316017 229.095077 
L 496.822079 229.741527 
L 494.721302 230.547051 
L 492.845981 231.559159 
L 491.769234 232.384205 
L 491.31657 232.958115 
L 491.275292 233.253298 
L 491.464744 233.466908 
L 492.028225 233.61899 
L 493.232977 233.663467 
L 496.440406 233.476599 
L 504.102859 232.722848 
L 516.899712 231.430333 
L 521.475662 231.225858 
L 526.988293 231.209746 
L 533.216584 231.409376 
L 539.414424 231.835263 
L 545.390778 232.471644 
L 547.874842 232.791756 
L 547.874842 232.791756 
" style="fill:none;stroke:#000000;stroke-linecap:square;stroke-opacity:0.7;stroke-width:1.2;"/>
   </g>
   <g id="line2d_72">
    <path clip-path="url(#p38605f3856)" d="M 547.817899 213.851386 
L 535.763227 211.995984 
L 525.82808 210.655468 
L 519.206934 209.957713 
L 512.631696 209.500633 
L 507.203094 209.341186 
L 503.324078 209.437657 
L 500.368943 209.73 
L 498.233259 210.1216 
L 495.848064 210.8007 
L 493.820879 211.638224 
L 492.476976 212.377753 
L 491.22089 213.3344 
L 490.838567 213.888745 
L 490.893961 214.198274 
L 491.116468 214.354887 
L 491.699636 214.507916 
L 493.140917 214.612398 
L 496.808776 214.554006 
L 503.472748 214.160599 
L 513.351281 213.308736 
L 519.634714 212.871926 
L 524.716722 212.761008 
L 531.238045 212.86801 
L 539.497365 213.246215 
L 547.831444 213.832202 
L 547.831444 213.832202 
" style="fill:none;stroke:#000000;stroke-linecap:square;stroke-opacity:0.7;stroke-width:1.2;"/>
   </g>
   <g id="line2d_73">
    <path clip-path="url(#p38605f3856)" d="M 547.866399 194.55857 
L 519.850108 190.940807 
L 513.376222 190.40245 
L 508.22077 190.187805 
L 504.55524 190.227433 
L 501.568042 190.454632 
L 499.019745 190.851459 
L 496.651133 191.44826 
L 494.884998 192.081356 
L 493.184077 192.902781 
L 492.015568 193.663568 
L 491.215131 194.430341 
L 491.009211 194.888201 
L 491.10855 195.179305 
L 491.488511 195.404394 
L 492.504597 195.609012 
L 494.794308 195.756028 
L 500.274585 195.80325 
L 507.826052 195.623857 
L 515.536648 195.214688 
L 526.952699 194.598939 
L 535.073751 194.419499 
L 543.920449 194.45837 
L 547.87389 194.549176 
L 547.87389 194.549176 
" style="fill:none;stroke:#000000;stroke-linecap:square;stroke-opacity:0.7;stroke-width:1.2;"/>
   </g>
   <g id="line2d_74">
    <path clip-path="url(#p38605f3856)" d="M 547.799176 175.620207 
L 536.864732 173.916697 
L 527.925206 172.71385 
L 521.136245 172.007787 
L 514.328517 171.517668 
L 508.091504 171.273271 
L 503.877 171.312935 
L 501.138476 171.513809 
L 498.550401 171.906085 
L 496.464661 172.421294 
L 494.881182 172.969991 
L 493.348817 173.677562 
L 492.047016 174.498707 
L 491.21464 175.319791 
L 491.046958 175.779732 
L 491.167065 176.086293 
L 491.522119 176.332145 
L 492.387292 176.594579 
L 493.663621 176.797304 
L 497.632346 177.109667 
L 502.808137 177.259021 
L 508.144304 177.201375 
L 513.347855 176.934613 
L 522.579076 176.155218 
L 529.650101 175.700043 
L 536.204557 175.521023 
L 544.210609 175.558989 
L 547.79972 175.628333 
L 547.79972 175.628333 
" style="fill:none;stroke:#000000;stroke-linecap:square;stroke-opacity:0.7;stroke-width:1.2;"/>
   </g>
   <g id="line2d_75">
    <path clip-path="url(#p38605f3856)" d="M 547.814932 156.460679 
L 532.418942 154.140209 
L 523.483588 152.9976 
L 517.534085 152.444013 
L 511.641217 152.129911 
L 507.21544 152.079345 
L 503.466027 152.214446 
L 500.010822 152.568439 
L 497.607864 153.010521 
L 495.187924 153.690419 
L 493.534155 154.350142 
L 492.11451 155.131088 
L 491.298914 155.791776 
L 490.925361 156.424444 
L 490.957941 156.692263 
L 491.275374 157.020032 
L 492.18097 157.362397 
L 494.252462 157.72642 
L 497.756053 158.065303 
L 503.184264 158.333728 
L 508.52471 158.364854 
L 513.458813 158.17937 
L 520.716663 157.631937 
L 529.946969 156.984311 
L 538.330667 156.647758 
L 547.811253 156.470445 
L 547.811253 156.470445 
" style="fill:none;stroke:#000000;stroke-linecap:square;stroke-opacity:0.7;stroke-width:1.2;"/>
   </g>
   <g id="line2d_76">
    <path clip-path="url(#p38605f3856)" d="M 547.825637 137.320332 
L 528.637115 134.453151 
L 522.619513 133.792492 
L 517.248386 133.407695 
L 510.950478 133.189537 
L 505.744981 133.212966 
L 501.863348 133.437112 
L 498.716704 133.85531 
L 496.374092 134.384247 
L 494.213443 135.12098 
L 492.6642 135.891187 
L 491.679031 136.620014 
L 491.264145 137.162504 
L 491.212513 137.623284 
L 491.393722 137.908662 
L 491.927203 138.243608 
L 493.138062 138.623978 
L 495.687043 139.074932 
L 498.931086 139.436096 
L 504.121703 139.75888 
L 509.05318 139.818586 
L 514.012065 139.630202 
L 519.971258 139.147589 
L 532.804302 138.067055 
L 541.718041 137.568902 
L 547.823772 137.32568 
L 547.823772 137.32568 
" style="fill:none;stroke:#000000;stroke-linecap:square;stroke-opacity:0.7;stroke-width:1.2;"/>
   </g>
   <g id="line2d_77">
    <path clip-path="url(#p38605f3856)" d="M 547.833275 118.131098 
L 529.818426 115.456035 
L 524.054196 114.823372 
L 518.468288 114.4304 
L 511.51211 114.182443 
L 505.592961 114.181488 
L 502.432263 114.331485 
L 499.390959 114.657714 
L 496.922812 115.122067 
L 495.148273 115.615575 
L 493.574098 116.218387 
L 492.503498 116.772733 
L 491.565882 117.477877 
L 491.229732 117.928527 
L 491.171588 118.386461 
L 491.416691 118.738617 
L 492.083177 119.107797 
L 493.434168 119.508535 
L 496.174778 120.011637 
L 499.948093 120.468517 
L 504.793061 120.810038 
L 509.55459 120.897652 
L 513.949827 120.756334 
L 519.826463 120.315491 
L 537.933127 118.817688 
L 547.835476 118.126143 
L 547.835476 118.126143 
" style="fill:none;stroke:#000000;stroke-linecap:square;stroke-opacity:0.7;stroke-width:1.2;"/>
   </g>
   <g id="line2d_78">
    <path clip-path="url(#p38605f3856)" d="M 547.829032 99.033806 
L 529.42856 96.35511 
L 523.327425 95.72268 
L 517.462754 95.36567 
L 510.783497 95.192732 
L 504.944687 95.239731 
L 501.395544 95.451488 
L 498.342042 95.853842 
L 495.756548 96.453984 
L 494.077006 97.040095 
L 492.681288 97.723863 
L 491.693112 98.446194 
L 491.246961 99.07055 
L 491.245243 99.532079 
L 491.467722 99.83511 
L 491.78825 100.059017 
L 492.590422 100.395805 
L 494.008821 100.767256 
L 497.220076 101.305024 
L 501.298148 101.741741 
L 505.909823 102.015368 
L 510.271731 102.06946 
L 515.247359 101.886842 
L 521.672659 101.376775 
L 547.83447 99.024718 
L 547.83447 99.024718 
" style="fill:none;stroke:#000000;stroke-linecap:square;stroke-opacity:0.7;stroke-width:1.2;"/>
   </g>
   <g id="line2d_79">
    <path clip-path="url(#p38605f3856)" d="M 547.74696 80.13502 
L 536.561509 78.122508 
L 530.23421 77.170765 
L 525.062179 76.620945 
L 520.538013 76.356579 
L 513.845226 76.225239 
L 504.721255 76.25497 
L 500.806078 76.447613 
L 497.757523 76.821005 
L 495.275487 77.3757 
L 493.829428 77.85995 
L 492.29033 78.603217 
L 491.385521 79.310928 
L 491.062937 79.84393 
L 491.083298 80.278466 
L 491.371178 80.657373 
L 491.853363 80.975876 
L 493.004904 81.438914 
L 495.385587 82.043382 
L 498.52903 82.581635 
L 502.438281 83.023468 
L 506.329663 83.265161 
L 510.504509 83.31964 
L 515.090571 83.153973 
L 522.021346 82.622186 
L 541.636407 80.814763 
L 547.740081 80.143243 
L 547.740081 80.143243 
" style="fill:none;stroke:#000000;stroke-linecap:square;stroke-opacity:0.7;stroke-width:1.2;"/>
   </g>
   <g id="line2d_80">
    <path clip-path="url(#p38605f3856)" d="M 547.828874 60.74367 
L 530.394267 58.196035 
L 525.23368 57.676916 
L 520.489311 57.418894 
L 514.286938 57.321067 
L 502.655854 57.385398 
L 499.095761 57.616351 
L 496.492492 57.993737 
L 494.102047 58.608799 
L 492.88563 59.085585 
L 491.629936 59.81996 
L 491.00968 60.491083 
L 490.889112 61.00032 
L 491.010869 61.345747 
L 491.302803 61.672421 
L 491.829079 62.023818 
L 492.991741 62.530345 
L 495.382343 63.232216 
L 498.375646 63.862896 
L 502.170652 64.433324 
L 505.886047 64.789856 
L 509.979603 64.962983 
L 513.935927 64.918885 
L 519.079847 64.607096 
L 526.257087 63.904812 
L 533.945669 62.942131 
L 542.130245 61.672679 
L 547.828755 60.726306 
L 547.828755 60.726306 
" style="fill:none;stroke:#000000;stroke-linecap:square;stroke-opacity:0.7;stroke-width:1.2;"/>
   </g>
   <g id="line2d_81">
    <path clip-path="url(#p38605f3856)" d="M 611.616229 232.955174 
L 591.987325 230.51939 
L 576.961132 228.783284 
L 572.508383 228.476769 
L 568.957973 228.417993 
L 565.667157 228.602562 
L 563.145163 228.969856 
L 561.013348 229.484196 
L 558.758003 230.29207 
L 556.870863 231.259804 
L 555.739885 232.067029 
L 555.132329 232.725333 
L 555.018469 233.158212 
L 555.196195 233.371835 
L 555.688347 233.522776 
L 557.041623 233.584874 
L 560.06077 233.431763 
L 567.004515 232.81769 
L 583.110118 231.276936 
L 587.82071 231.150363 
L 592.984668 231.229933 
L 599.095138 231.566594 
L 605.263622 232.148196 
L 611.609292 232.945074 
L 611.609292 232.945074 
" style="fill:none;stroke:#000000;stroke-linecap:square;stroke-opacity:0.7;stroke-width:1.2;"/>
   </g>
   <g id="line2d_82">
    <path clip-path="url(#p38605f3856)" d="M 611.663572 213.645806 
L 590.389183 211.365388 
L 574.53164 209.580766 
L 570.469545 209.350372 
L 567.304474 209.361255 
L 564.771313 209.553687 
L 562.535306 209.905041 
L 560.043242 210.549874 
L 558.252019 211.219887 
L 556.358828 212.191957 
L 555.280222 212.971605 
L 554.831855 213.469775 
L 554.740584 213.87679 
L 554.845385 214.022271 
L 555.203916 214.194226 
L 556.263556 214.362217 
L 558.753613 214.466042 
L 564.482212 214.445257 
L 571.800276 214.2012 
L 579.190764 213.732558 
L 589.318071 213.092952 
L 595.772471 212.934329 
L 601.667082 213.012683 
L 608.026239 213.346372 
L 611.676416 213.636409 
L 611.676416 213.636409 
" style="fill:none;stroke:#000000;stroke-linecap:square;stroke-opacity:0.7;stroke-width:1.2;"/>
   </g>
   <g id="line2d_83">
    <path clip-path="url(#p38605f3856)" d="M 611.616705 194.701129 
L 596.081567 192.795356 
L 575.756888 190.539908 
L 571.222657 190.257302 
L 567.755462 190.24562 
L 565.147241 190.424756 
L 562.811605 190.773326 
L 560.295841 191.404285 
L 558.449932 192.082244 
L 556.909743 192.838547 
L 555.635308 193.679336 
L 554.858032 194.4432 
L 554.633206 195.000554 
L 554.721545 195.250787 
L 555.073412 195.50015 
L 556.026374 195.738913 
L 558.491024 195.935523 
L 563.254216 195.996814 
L 569.767104 195.836582 
L 576.691558 195.425636 
L 590.558306 194.473793 
L 597.180646 194.332239 
L 604.133309 194.416762 
L 611.613618 194.699477 
L 611.613618 194.699477 
" style="fill:none;stroke:#000000;stroke-linecap:square;stroke-opacity:0.7;stroke-width:1.2;"/>
   </g>
   <g id="line2d_84">
    <path clip-path="url(#p38605f3856)" d="M 611.646222 175.479279 
L 591.625531 173.204026 
L 577.179852 171.58542 
L 572.240137 171.272991 
L 568.213182 171.247869 
L 564.925776 171.473268 
L 562.517941 171.840985 
L 560.278499 172.390747 
L 558.3817 173.065778 
L 557.021704 173.718268 
L 555.828375 174.489216 
L 555.040947 175.27328 
L 554.835139 175.780417 
L 554.91353 176.09599 
L 555.259321 176.394462 
L 556.135893 176.693666 
L 557.962063 176.968989 
L 561.737377 177.218359 
L 566.754154 177.31813 
L 572.041567 177.227786 
L 577.487405 176.928558 
L 597.200724 175.547883 
L 604.617544 175.409828 
L 611.638025 175.470913 
L 611.638025 175.470913 
" style="fill:none;stroke:#000000;stroke-linecap:square;stroke-opacity:0.7;stroke-width:1.2;"/>
   </g>
   <g id="line2d_85">
    <path clip-path="url(#p38605f3856)" d="M 611.532693 156.708013 
L 601.684959 155.21725 
L 592.125675 154.001443 
L 581.61916 152.905601 
L 574.472415 152.377028 
L 569.946685 152.250373 
L 566.67572 152.353765 
L 563.706902 152.673369 
L 561.418836 153.12428 
L 559.070545 153.837911 
L 557.38462 154.572147 
L 556.033969 155.396755 
L 555.236253 156.178979 
L 555.065931 156.632376 
L 555.167229 156.953175 
L 555.471004 157.207454 
L 556.304367 157.516931 
L 557.759023 157.793606 
L 561.094998 158.141188 
L 565.859888 158.396362 
L 571.019136 158.457471 
L 575.988048 158.291551 
L 581.464402 157.846582 
L 592.999281 156.772826 
L 598.063936 156.556559 
L 604.027586 156.538316 
L 611.518562 156.717216 
L 611.518562 156.717216 
" style="fill:none;stroke:#000000;stroke-linecap:square;stroke-opacity:0.7;stroke-width:1.2;"/>
   </g>
   <g id="line2d_86">
    <path clip-path="url(#p38605f3856)" d="M 611.605011 137.331656 
L 588.913163 134.673186 
L 578.472414 133.644097 
L 572.44399 133.262311 
L 568.607245 133.216618 
L 565.479861 133.379723 
L 562.841324 133.723779 
L 560.381147 134.278894 
L 558.492411 134.915125 
L 556.965308 135.628264 
L 555.734118 136.444236 
L 555.041267 137.207217 
L 554.896613 137.706183 
L 555.010571 138.033193 
L 555.408809 138.364783 
L 556.296365 138.696115 
L 558.08485 139.036369 
L 561.343501 139.377422 
L 565.800876 139.627203 
L 571.019377 139.70443 
L 575.957278 139.561765 
L 581.139347 139.190383 
L 597.202387 137.847243 
L 605.043303 137.499245 
L 611.59471 137.343532 
L 611.59471 137.343532 
" style="fill:none;stroke:#000000;stroke-linecap:square;stroke-opacity:0.7;stroke-width:1.2;"/>
   </g>
   <g id="line2d_87">
    <path clip-path="url(#p38605f3856)" d="M 611.648535 118.083136 
L 586.584235 115.223818 
L 579.195219 114.683404 
L 572.113951 114.373789 
L 567.814258 114.377192 
L 564.554757 114.590467 
L 562.155313 114.940118 
L 559.787897 115.52008 
L 558.119936 116.128927 
L 556.635496 116.8988 
L 555.700478 117.631459 
L 555.275942 118.298197 
L 555.301306 118.710099 
L 555.544408 119.017549 
L 556.127164 119.346709 
L 557.514076 119.749805 
L 559.936803 120.15338 
L 563.822049 120.548576 
L 568.4145 120.802877 
L 573.399109 120.859408 
L 578.436767 120.680682 
L 584.245708 120.234737 
L 605.204356 118.430245 
L 611.646574 118.079883 
L 611.646574 118.079883 
" style="fill:none;stroke:#000000;stroke-linecap:square;stroke-opacity:0.7;stroke-width:1.2;"/>
   </g>
   <g id="line2d_88">
    <path clip-path="url(#p38605f3856)" d="M 611.520975 99.31218 
L 603.249957 98.045927 
L 595.218947 97.002959 
L 588.122499 96.316033 
L 579.022532 95.705161 
L 570.681588 95.322548 
L 566.940263 95.334781 
L 563.835248 95.556367 
L 561.375003 95.939757 
L 559.328117 96.451191 
L 557.541279 97.098578 
L 556.10532 97.846933 
L 555.262405 98.527506 
L 554.95694 99.025075 
L 554.957353 99.380156 
L 555.131749 99.656309 
L 555.620983 99.993155 
L 556.432965 100.31134 
L 558.319942 100.772678 
L 561.556834 101.27911 
L 565.926152 101.699897 
L 570.597353 101.904325 
L 575.196004 101.871513 
L 580.331409 101.585915 
L 604.411084 99.844867 
L 611.523306 99.320253 
L 611.523306 99.320253 
" style="fill:none;stroke:#000000;stroke-linecap:square;stroke-opacity:0.7;stroke-width:1.2;"/>
   </g>
   <g id="line2d_89">
    <path clip-path="url(#p38605f3856)" d="M 611.599371 80.005795 
L 596.065797 77.883742 
L 589.113404 77.160774 
L 582.555016 76.724031 
L 572.914327 76.337113 
L 567.556662 76.318494 
L 564.391096 76.505389 
L 561.719033 76.864612 
L 559.260845 77.43316 
L 557.387499 78.095582 
L 555.999931 78.816181 
L 555.149436 79.523661 
L 554.862043 80.099779 
L 554.962076 80.530366 
L 555.353249 80.909605 
L 556.018976 81.255265 
L 557.61644 81.765327 
L 560.259514 82.319074 
L 564.030258 82.852907 
L 568.546275 83.235402 
L 573.199823 83.372329 
L 577.667546 83.269217 
L 583.046237 82.90805 
L 597.25114 81.61222 
L 607.725661 80.472992 
L 611.584772 80.013959 
L 611.584772 80.013959 
" style="fill:none;stroke:#000000;stroke-linecap:square;stroke-opacity:0.7;stroke-width:1.2;"/>
   </g>
   <g id="line2d_90">
    <path clip-path="url(#p38605f3856)" d="M 611.586227 60.917903 
L 596.345232 58.65442 
L 590.593065 58.014693 
L 585.428779 57.66569 
L 578.250122 57.453024 
L 566.691312 57.321168 
L 562.865249 57.513801 
L 560.088173 57.903373 
L 558.15074 58.386927 
L 556.830929 58.874539 
L 555.514597 59.595475 
L 554.786376 60.264834 
L 554.536117 60.755159 
L 554.530574 61.172515 
L 554.738339 61.585047 
L 555.25152 62.046515 
L 555.846578 62.394288 
L 557.580245 63.087066 
L 559.919766 63.737249 
L 563.159749 64.381101 
L 567.012058 64.884016 
L 571.036966 65.151532 
L 574.74992 65.178674 
L 578.587749 65.004898 
L 583.982317 64.513167 
L 595.246968 63.190726 
L 605.795762 61.758177 
L 611.572743 60.901626 
L 611.572743 60.901626 
" style="fill:none;stroke:#000000;stroke-linecap:square;stroke-opacity:0.7;stroke-width:1.2;"/>
   </g>
   <g id="line2d_91">
    <path clip-path="url(#p38605f3856)" d="M 675.324965 233.184423 
L 665.475507 232.240983 
L 653.210608 231.070966 
L 646.480546 230.158348 
L 636.851819 228.813159 
L 633.121953 228.524245 
L 629.950051 228.535478 
L 627.633236 228.760351 
L 625.275448 229.227563 
L 623.6792 229.705035 
L 621.914201 230.414829 
L 620.005228 231.474995 
L 618.940209 232.323621 
L 618.492641 232.973117 
L 618.523879 233.233244 
L 618.715366 233.384589 
L 619.30391 233.512188 
L 620.715636 233.521727 
L 624.10954 233.275948 
L 632.509013 232.395049 
L 644.170667 231.168848 
L 648.659091 230.981162 
L 653.359211 231.024862 
L 658.669028 231.294289 
L 664.483849 231.800233 
L 671.555807 232.646776 
L 675.33438 233.163265 
L 675.33438 233.163265 
" style="fill:none;stroke:#000000;stroke-linecap:square;stroke-opacity:0.7;stroke-width:1.2;"/>
   </g>
   <g id="line2d_92">
    <path clip-path="url(#p38605f3856)" d="M 675.468511 213.642101 
L 660.663381 212.462788 
L 653.092325 211.670736 
L 633.998974 209.461855 
L 630.652707 209.419193 
L 628.275109 209.58325 
L 626.58339 209.832706 
L 624.410627 210.356785 
L 623.045466 210.829619 
L 621.142697 211.734888 
L 620.003344 212.4847 
L 619.105432 213.340932 
L 618.862214 213.8426 
L 618.958462 214.136731 
L 619.246918 214.299388 
L 619.813224 214.411094 
L 621.381012 214.473512 
L 625.750781 214.365786 
L 636.260922 213.85248 
L 647.134845 213.349435 
L 654.334402 213.298068 
L 668.674416 213.490689 
L 675.465906 213.664913 
L 675.465906 213.664913 
" style="fill:none;stroke:#000000;stroke-linecap:square;stroke-opacity:0.7;stroke-width:1.2;"/>
   </g>
   <g id="line2d_93">
    <path clip-path="url(#p38605f3856)" d="M 675.376627 194.792384 
L 660.590977 193.33501 
L 650.713142 192.297643 
L 637.335406 190.797652 
L 633.072832 190.594422 
L 629.934902 190.686629 
L 627.681877 190.939925 
L 625.308545 191.423781 
L 623.010263 192.154927 
L 621.024501 193.070399 
L 619.814997 193.860966 
L 619.149724 194.571573 
L 619.059581 194.92692 
L 619.192012 195.186625 
L 619.606694 195.428736 
L 620.754908 195.690829 
L 623.087142 195.900953 
L 627.261904 196.023079 
L 633.281865 195.956416 
L 638.828476 195.679152 
L 645.23078 195.105485 
L 653.806838 194.311774 
L 659.017226 194.071902 
L 663.945163 194.08354 
L 669.556125 194.354651 
L 675.377746 194.81452 
L 675.377746 194.81452 
" style="fill:none;stroke:#000000;stroke-linecap:square;stroke-opacity:0.7;stroke-width:1.2;"/>
   </g>
   <g id="line2d_94">
    <path clip-path="url(#p38605f3856)" d="M 675.29538 175.881751 
L 666.791829 174.994148 
L 649.597582 173.282509 
L 634.716621 171.431559 
L 631.342556 171.322164 
L 628.872303 171.435782 
L 626.38254 171.769287 
L 624.188413 172.285873 
L 622.348228 172.916993 
L 620.760916 173.654617 
L 619.452733 174.483803 
L 618.660821 175.24497 
L 618.429665 175.773735 
L 618.518682 176.08887 
L 618.80826 176.331713 
L 619.37159 176.550538 
L 620.898982 176.829392 
L 624.188648 177.094557 
L 629.084909 177.235692 
L 634.545147 177.174834 
L 640.105048 176.879921 
L 647.296275 176.223653 
L 653.838442 175.705846 
L 658.914182 175.51435 
L 664.882702 175.523941 
L 673.610536 175.811252 
L 675.303713 175.879863 
L 675.303713 175.879863 
" style="fill:none;stroke:#000000;stroke-linecap:square;stroke-opacity:0.7;stroke-width:1.2;"/>
   </g>
   <g id="line2d_95">
    <path clip-path="url(#p38605f3856)" d="M 675.37261 156.556021 
L 660.638954 155.157812 
L 650.172071 154.120974 
L 635.453415 152.534503 
L 631.641545 152.395994 
L 628.688074 152.521704 
L 626.238561 152.849043 
L 623.843108 153.42331 
L 621.957473 154.105094 
L 620.362328 154.915187 
L 619.293952 155.691828 
L 618.722026 156.401389 
L 618.65156 156.850525 
L 618.824653 157.151115 
L 619.106155 157.352633 
L 620.101669 157.689597 
L 621.984732 157.985631 
L 625.344387 158.246785 
L 630.507542 158.398524 
L 635.814314 158.343932 
L 641.329358 158.074858 
L 660.774446 156.832412 
L 670.872895 156.619771 
L 675.370176 156.565627 
L 675.370176 156.565627 
" style="fill:none;stroke:#000000;stroke-linecap:square;stroke-opacity:0.7;stroke-width:1.2;"/>
   </g>
   <g id="line2d_96">
    <path clip-path="url(#p38605f3856)" d="M 675.48132 137.054273 
L 663.915742 136.207912 
L 653.652321 135.261091 
L 639.647976 133.909971 
L 634.007064 133.590903 
L 630.436724 133.580026 
L 627.595632 133.773943 
L 624.897214 134.215399 
L 623.119861 134.695165 
L 621.485322 135.320985 
L 620.023326 136.12178 
L 619.30022 136.701072 
L 618.857717 137.303257 
L 618.798927 137.746268 
L 619.0296 138.128886 
L 619.37781 138.368951 
L 620.142023 138.668061 
L 621.936849 139.052429 
L 625.262857 139.438859 
L 629.474289 139.696878 
L 634.673657 139.790344 
L 639.985792 139.650045 
L 645.850006 139.24683 
L 670.669187 137.221333 
L 675.490909 137.044327 
L 675.490909 137.044327 
" style="fill:none;stroke:#000000;stroke-linecap:square;stroke-opacity:0.7;stroke-width:1.2;"/>
   </g>
   <g id="line2d_97">
    <path clip-path="url(#p38605f3856)" d="M 675.360385 118.353571 
L 664.094752 117.113149 
L 641.171101 114.937501 
L 634.881997 114.466311 
L 630.996658 114.382401 
L 627.963683 114.545798 
L 625.480671 114.904093 
L 623.129329 115.496226 
L 621.463292 116.121229 
L 620.030561 116.883927 
L 619.143829 117.613033 
L 618.83585 118.12772 
L 618.867344 118.552975 
L 619.173051 118.890188 
L 619.582843 119.119849 
L 620.583466 119.460647 
L 622.719971 119.901432 
L 626.226436 120.356724 
L 630.43668 120.684254 
L 634.968068 120.826068 
L 639.600166 120.745251 
L 644.282526 120.439412 
L 664.449233 118.768344 
L 674.740665 118.378812 
L 675.352182 118.359386 
L 675.352182 118.359386 
" style="fill:none;stroke:#000000;stroke-linecap:square;stroke-opacity:0.7;stroke-width:1.2;"/>
   </g>
   <g id="line2d_98">
    <path clip-path="url(#p38605f3856)" d="M 675.325167 99.287088 
L 665.693982 98.089384 
L 655.989849 97.092685 
L 641.387668 95.868065 
L 634.38383 95.417409 
L 630.310013 95.369949 
L 627.191224 95.572731 
L 624.622342 95.98444 
L 622.777351 96.472722 
L 621.192512 97.079013 
L 619.860627 97.81859 
L 619.036131 98.55769 
L 618.768461 99.132564 
L 618.816325 99.47727 
L 619.118841 99.849954 
L 619.759123 100.210881 
L 620.68658 100.526055 
L 622.630706 100.957396 
L 626.109478 101.456175 
L 630.661414 101.844889 
L 635.480271 102.002633 
L 640.017297 101.919614 
L 645.172626 101.590726 
L 664.083455 100.151416 
L 675.313419 99.302178 
L 675.313419 99.302178 
" style="fill:none;stroke:#000000;stroke-linecap:square;stroke-opacity:0.7;stroke-width:1.2;"/>
   </g>
   <g id="line2d_99">
    <path clip-path="url(#p38605f3856)" d="M 675.373082 80.069173 
L 662.887681 78.55628 
L 653.836878 77.667311 
L 644.756128 77.022686 
L 634.099632 76.482432 
L 630.153818 76.463941 
L 626.889859 76.678077 
L 624.59285 77.034386 
L 622.839095 77.472222 
L 621.208053 78.068853 
L 619.915107 78.770828 
L 619.158106 79.439472 
L 618.898791 79.95206 
L 618.958165 80.406562 
L 619.319432 80.819961 
L 620.170437 81.286167 
L 621.7944 81.813063 
L 624.263349 82.346505 
L 627.889744 82.875917 
L 631.721222 83.222653 
L 636.227909 83.395131 
L 640.98087 83.319264 
L 646.259676 82.986609 
L 658.076209 81.927232 
L 670.26621 80.668711 
L 675.355166 80.080159 
L 675.355166 80.080159 
" style="fill:none;stroke:#000000;stroke-linecap:square;stroke-opacity:0.7;stroke-width:1.2;"/>
   </g>
   <g id="line2d_100">
    <path clip-path="url(#p38605f3856)" d="M 675.425976 60.738187 
L 654.641961 58.757986 
L 645.968797 58.191615 
L 631.850523 57.526076 
L 627.915931 57.574174 
L 625.606055 57.775879 
L 623.409228 58.158704 
L 621.78546 58.615029 
L 620.621616 59.079409 
L 619.533628 59.697087 
L 618.812734 60.359321 
L 618.54058 60.99599 
L 618.625201 61.419197 
L 619.016365 61.881417 
L 619.770269 62.341704 
L 621.457578 62.975945 
L 624.269229 63.685109 
L 627.750308 64.30738 
L 631.434932 64.760915 
L 635.354042 65.040493 
L 639.660739 65.113754 
L 644.363412 64.937407 
L 650.350958 64.440246 
L 657.49016 63.609363 
L 664.161355 62.629609 
L 675.417294 60.721198 
L 675.417294 60.721198 
" style="fill:none;stroke:#000000;stroke-linecap:square;stroke-opacity:0.7;stroke-width:1.2;"/>
   </g>
  </g>
 </g>
 <defs>
  <clipPath id="p38605f3856">
   <rect height="262.08" width="694.08" x="12.96" y="12.96"/>
  </clipPath>
 </defs>
</svg>
