<svg viewBox="0 0 1496 400" xmlns="http://www.w3.org/2000/svg"><g><g><g><g><g><line x1="30.78125" y1="378" x2="25.78125" y2="378" style="visibility: inherit;" fill="rgb(0, 0, 0)" stroke="rgb(204, 204, 204)" stroke-width="1px"></line><line x1="30.78125" y1="340.2" x2="25.78125" y2="340.2" style="visibility: inherit;" fill="rgb(0, 0, 0)" stroke="rgb(204, 204, 204)" stroke-width="1px"></line><line x1="30.78125" y1="302.40000000000003" x2="25.78125" y2="302.40000000000003" style="visibility: inherit;" fill="rgb(0, 0, 0)" stroke="rgb(204, 204, 204)" stroke-width="1px"></line><line x1="30.78125" y1="264.59999999999997" x2="25.78125" y2="264.59999999999997" style="visibility: inherit;" fill="rgb(0, 0, 0)" stroke="rgb(204, 204, 204)" stroke-width="1px"></line><line x1="30.78125" y1="226.79999999999998" x2="25.78125" y2="226.79999999999998" style="visibility: inherit;" fill="rgb(0, 0, 0)" stroke="rgb(204, 204, 204)" stroke-width="1px"></line><line x1="30.78125" y1="189" x2="25.78125" y2="189" style="visibility: inherit;" fill="rgb(0, 0, 0)" stroke="rgb(204, 204, 204)" stroke-width="1px"></line><line x1="30.78125" y1="151.20000000000002" x2="25.78125" y2="151.20000000000002" style="visibility: inherit;" fill="rgb(0, 0, 0)" stroke="rgb(204, 204, 204)" stroke-width="1px"></line><line x1="30.78125" y1="113.40000000000002" x2="25.78125" y2="113.40000000000002" style="visibility: inherit;" fill="rgb(0, 0, 0)" stroke="rgb(204, 204, 204)" stroke-width="1px"></line><line x1="30.78125" y1="75.59999999999998" x2="25.78125" y2="75.59999999999998" style="visibility: inherit;" fill="rgb(0, 0, 0)" stroke="rgb(204, 204, 204)" stroke-width="1px"></line><line x1="30.78125" y1="37.79999999999999" x2="25.78125" y2="37.79999999999999" style="visibility: inherit;" fill="rgb(0, 0, 0)" stroke="rgb(204, 204, 204)" stroke-width="1px"></line><line x1="30.78125" y1="0" x2="25.78125" y2="0" style="visibility: inherit;" fill="rgb(0, 0, 0)" stroke="rgb(204, 204, 204)" stroke-width="1px"></line></g><g transform="translate(20.78125, 0)"><text x="0" y="378" dx="0em" dy="0.3em" style="text-anchor: end; visibility: hidden; font-family: Roboto, sans-serif; font-size: 12px; font-weight: 200;" fill="rgb(50, 49, 63)" stroke="none" stroke-width="1px">-1</text><text x="0" y="340.2" dx="0em" dy="0.3em" style="text-anchor: end; visibility: inherit; font-family: Roboto, sans-serif; font-size: 12px; font-weight: 200;" fill="rgb(50, 49, 63)" stroke="none" stroke-width="1px">0</text><text x="0" y="302.40000000000003" dx="0em" dy="0.3em" style="text-anchor: end; visibility: inherit; font-family: Roboto, sans-serif; font-size: 12px; font-weight: 200;" fill="rgb(50, 49, 63)" stroke="none" stroke-width="1px">1</text><text x="0" y="264.59999999999997" dx="0em" dy="0.3em" style="text-anchor: end; visibility: inherit; font-family: Roboto, sans-serif; font-size: 12px; font-weight: 200;" fill="rgb(50, 49, 63)" stroke="none" stroke-width="1px">2</text><text x="0" y="226.79999999999998" dx="0em" dy="0.3em" style="text-anchor: end; visibility: inherit; font-family: Roboto, sans-serif; font-size: 12px; font-weight: 200;" fill="rgb(50, 49, 63)" stroke="none" stroke-width="1px">3</text><text x="0" y="189" dx="0em" dy="0.3em" style="text-anchor: end; visibility: inherit; font-family: Roboto, sans-serif; font-size: 12px; font-weight: 200;" fill="rgb(50, 49, 63)" stroke="none" stroke-width="1px">4</text><text x="0" y="151.20000000000002" dx="0em" dy="0.3em" style="text-anchor: end; visibility: inherit; font-family: Roboto, sans-serif; font-size: 12px; font-weight: 200;" fill="rgb(50, 49, 63)" stroke="none" stroke-width="1px">5</text><text x="0" y="113.40000000000002" dx="0em" dy="0.3em" style="text-anchor: end; visibility: inherit; font-family: Roboto, sans-serif; font-size: 12px; font-weight: 200;" fill="rgb(50, 49, 63)" stroke="none" stroke-width="1px">6</text><text x="0" y="75.59999999999998" dx="0em" dy="0.3em" style="text-anchor: end; visibility: inherit; font-family: Roboto, sans-serif; font-size: 12px; font-weight: 200;" fill="rgb(50, 49, 63)" stroke="none" stroke-width="1px">7</text><text x="0" y="37.79999999999999" dx="0em" dy="0.3em" style="text-anchor: end; visibility: inherit; font-family: Roboto, sans-serif; font-size: 12px; font-weight: 200;" fill="rgb(50, 49, 63)" stroke="none" stroke-width="1px">8</text><text x="0" y="0" dx="0em" dy="0.3em" style="text-anchor: end; visibility: hidden; font-family: Roboto, sans-serif; font-size: 12px; font-weight: 200;" fill="rgb(50, 49, 63)" stroke="none" stroke-width="1px">9</text></g><line x1="30.78125" y1="0" x2="30.78125" y2="378" fill="rgb(0, 0, 0)" stroke="rgb(204, 204, 204)" stroke-width="1px"></line></g></g><g transform="translate(30, 0)" clip-path="url(#clip_0)"><clipPath id="clip_0"><rect width="1465" height="378"></rect></clipPath><g><g><g><line x1="0" y1="0" x2="0" y2="378" fill="rgb(0, 0, 0)" stroke="rgb(60, 60, 60)" stroke-width="1px" opacity="0.25"></line><line x1="122.1015625" y1="0" x2="122.1015625" y2="378" fill="rgb(0, 0, 0)" stroke="rgb(60, 60, 60)" stroke-width="1px" opacity="0.25"></line><line x1="244.203125" y1="0" x2="244.203125" y2="378" fill="rgb(0, 0, 0)" stroke="rgb(60, 60, 60)" stroke-width="1px" opacity="0.25"></line><line x1="366.3046875" y1="0" x2="366.3046875" y2="378" fill="rgb(0, 0, 0)" stroke="rgb(60, 60, 60)" stroke-width="1px" opacity="0.25"></line><line x1="488.40625" y1="0" x2="488.40625" y2="378" fill="rgb(0, 0, 0)" stroke="rgb(60, 60, 60)" stroke-width="1px" opacity="0.25"></line><line x1="610.5078125" y1="0" x2="610.5078125" y2="378" fill="rgb(0, 0, 0)" stroke="rgb(60, 60, 60)" stroke-width="1px" opacity="0.25"></line><line x1="732.609375" y1="0" x2="732.609375" y2="378" fill="rgb(0, 0, 0)" stroke="rgb(60, 60, 60)" stroke-width="1px" opacity="0.25"></line><line x1="854.7109375" y1="0" x2="854.7109375" y2="378" fill="rgb(0, 0, 0)" stroke="rgb(60, 60, 60)" stroke-width="1px" opacity="0.25"></line><line x1="976.8125" y1="0" x2="976.8125" y2="378" fill="rgb(0, 0, 0)" stroke="rgb(60, 60, 60)" stroke-width="1px" opacity="0.25"></line><line x1="1098.9140625" y1="0" x2="1098.9140625" y2="378" fill="rgb(0, 0, 0)" stroke="rgb(60, 60, 60)" stroke-width="1px" opacity="0.25"></line><line x1="1221.015625" y1="0" x2="1221.015625" y2="378" fill="rgb(0, 0, 0)" stroke="rgb(60, 60, 60)" stroke-width="1px" opacity="0.25"></line><line x1="1343.1171875" y1="0" x2="1343.1171875" y2="378" fill="rgb(0, 0, 0)" stroke="rgb(60, 60, 60)" stroke-width="1px" opacity="0.25"></line><line x1="1465.21875" y1="0" x2="1465.21875" y2="378" fill="rgb(0, 0, 0)" stroke="rgb(60, 60, 60)" stroke-width="1px" opacity="0.25"></line></g><g><line x1="0" y1="378" x2="1465.21875" y2="378" fill="rgb(0, 0, 0)" stroke="rgb(60, 60, 60)" stroke-width="1px" opacity="0.25"></line><line x1="0" y1="340.2" x2="1465.21875" y2="340.2" fill="rgb(0, 0, 0)" stroke="rgb(60, 60, 60)" stroke-width="1px" opacity="0.25"></line><line x1="0" y1="302.40000000000003" x2="1465.21875" y2="302.40000000000003" fill="rgb(0, 0, 0)" stroke="rgb(60, 60, 60)" stroke-width="1px" opacity="0.25"></line><line x1="0" y1="264.59999999999997" x2="1465.21875" y2="264.59999999999997" fill="rgb(0, 0, 0)" stroke="rgb(60, 60, 60)" stroke-width="1px" opacity="0.25"></line><line x1="0" y1="226.79999999999998" x2="1465.21875" y2="226.79999999999998" fill="rgb(0, 0, 0)" stroke="rgb(60, 60, 60)" stroke-width="1px" opacity="0.25"></line><line x1="0" y1="189" x2="1465.21875" y2="189" fill="rgb(0, 0, 0)" stroke="rgb(60, 60, 60)" stroke-width="1px" opacity="0.25"></line><line x1="0" y1="151.20000000000002" x2="1465.21875" y2="151.20000000000002" fill="rgb(0, 0, 0)" stroke="rgb(60, 60, 60)" stroke-width="1px" opacity="0.25"></line><line x1="0" y1="113.40000000000002" x2="1465.21875" y2="113.40000000000002" fill="rgb(0, 0, 0)" stroke="rgb(60, 60, 60)" stroke-width="1px" opacity="0.25"></line><line x1="0" y1="75.59999999999998" x2="1465.21875" y2="75.59999999999998" fill="rgb(0, 0, 0)" stroke="rgb(60, 60, 60)" stroke-width="1px" opacity="0.25"></line><line x1="0" y1="37.79999999999999" x2="1465.21875" y2="37.79999999999999" fill="rgb(0, 0, 0)" stroke="rgb(60, 60, 60)" stroke-width="1px" opacity="0.25"></line><line x1="0" y1="0" x2="1465.21875" y2="0" fill="rgb(0, 0, 0)" stroke="rgb(60, 60, 60)" stroke-width="1px" opacity="0.25"></line></g></g></g><g><g><line x1="0" y1="340.2" x2="1465.21875" y2="340.2" fill="rgb(0, 0, 0)" stroke="rgb(153, 153, 153)" stroke-width="1.5px"></line></g></g><g><g><line x1="122.1015625" y1="0" x2="122.1015625" y2="378" fill="rgb(0, 0, 0)" stroke="rgb(153, 153, 153)" stroke-width="1.5px"></line></g></g><g><g><g><g><g><path stroke="rgb(204, 51, 17)" stroke-width="2px" d="M125.1541015625,73.7726637840271L125.76460937499999,60.79812784194947L128.206640625,146.75214385986328L128.8171484375,76.03406467437746L130.0381640625,134.07113599777222L130.64867187500002,130.09752101898195L131.2591796875,134.39579229354857L132.4801953125,109.48083686828613L133.090703125,133.49788656234742L133.7012109375,150.63774547576904L134.31171874999998,168.06979866027834L136.75375,157.18119564056397L142.2483203125,173.96566658020018L142.858828125,148.21533222198488L144.07984374999998,171.51066513061525L145.9113671875,178.49587640762329L146.521875,194.22925186157227L147.742890625,180.32369928359984L148.96390625,192.58452129364014L149.5744140625,207.95073881149293L150.79542968750002,193.6114730358124L152.0164453125,208.1396530151367L152.626953125,192.53936104774473L154.4584765625,183.23333129882812L155.068984375,201.79547209739687L155.6794921875,206.70898075103761L156.29000000000002,168.50786476135252L156.9005078125,210.30974206924438L158.73203125,201.28994951248168L159.3425390625,195.22129926681518L160.56355468750002,215.73589296340944L161.7845703125,215.33095579147337L162.395078125,208.9950300693512L163.0055859375,199.6907937526703L163.61609375,189.8072247505188L165.4476171875,212.45690402984619L166.058125,195.27917575836182L166.6686328125,202.37572402954103L167.279140625,197.2952639579773L168.50015625,213.00412616729736L170.3316796875,200.66733112335206L173.38421875,204.55522184371947L173.9947265625,207.8719539642334L174.605234375,201.253729391098L175.2157421875,230.93523116111757L175.82625,221.07953696250914L176.43675781250002,222.66932001113892L179.489296875,204.28535084724425L184.37335937499998,213.17177152633667L186.2048828125,217.4229990005493L186.815390625,212.51201376914977L191.0889453125,220.28417229652405L192.92046874999997,204.28245792388915L194.141484375,221.78920440673826L194.75199218749998,225.57626638412475L195.3625,232.73510713577272L197.80453125000003,216.53421363830566L198.4150390625,227.07276391983032L199.025546875,227.7727972984314L200.8570703125,216.01535296440125L201.46757812500002,234.68351354599L203.29910156250003,234.283424949646L205.74113281249998,222.91822857856752L206.9621484375,234.34982700347902L208.1831640625,220.73727979660035L208.79367187499997,219.9963399410248L209.4041796875,243.07405471801758L210.0146875,226.2100328922272L212.45671875,225.49501218795777L213.677734375,232.23453226089478L215.5092578125,247.87853350639344L216.11976562499999,221.64428787231444L216.7302734375,236.03758192062378L217.9512890625,242.4212453842163L218.561796875,235.35596952438354L219.17230468750003,231.55220789909364L221.003828125,228.38329424858094L222.22484375000002,241.7853970527649L222.8353515625,230.11718273162842L224.0563671875,239.82231874465944L224.66687499999998,227.90971097946166L226.4983984375,242.94661288261412L229.5509375,248.08558931350709L230.16144531249998,235.417631149292L230.771953125,229.31318435668945L231.99296875,227.67250027656556L232.6034765625,237.07099542617797L233.8244921875,246.42386169433595L235.0455078125,248.49881772994993L235.65601562499998,237.56033205986023L236.2665234375,243.6572446346283L236.87703125,234.29667291641235L238.098046875,234.53295536041261L238.70855468749997,228.7046070098877L242.982109375,230.30743074417114L245.424140625,228.87915573120117L247.866171875,245.96827583312987L248.4766796875,247.88234567642212L249.08718750000003,241.8819179534912L251.52921874999998,240.2961543560028L253.3607421875,254.54308991432188L255.192265625,243.34927897453306L255.8027734375,235.68172531127928L257.634296875,256.20286188125607L258.2448046875,250.7410225868225L259.4658203125,253.20348615646364L260.076328125,249.867404794693L260.6868359375,236.16832222938538L261.9078515625,254.50947432518004L262.518359375,248.85359287261963L263.739375,233.60233526229857L264.3498828125,247.0404599189758L264.960390625,241.53871450424194L266.79191406250004,251.67027282714844L268.62343749999997,247.49422531127928L271.6759765625,251.86280994415281L272.8969921875,237.5336468696594L274.11800781249997,247.35792446136475L274.728515625,236.90138540267944L277.7810546875,249.89153952598573L279.61257812499997,247.34849767684935L280.2230859375,244.3660198688507L280.83359375000003,246.1669412612915L281.4441015625,248.28575077056885L282.66511718749996,247.2554645061493L285.1071484375,251.65914273262024L286.3281640625,242.72587652206423L287.5491796875,243.91586837768554L288.7701953125,258.9528513908386L291.822734375,228.9979007720947L293.04375,245.7899329662323L295.48578125,250.82587265968323L298.5383203125,250.34306087493897L299.7593359375,251.63633279800413L300.36984375,254.9518392562866L302.2013671875,252.696674823761L303.4223828125,261.9337340354919L304.032890625,271.5544570684433L304.6433984375,250.06241126060488L305.8644140625,248.8375240802765L306.474921875,242.4316545009613L307.08542968750004,245.09151277542114L309.5274609375,246.91816406249998L310.13796875,256.0643890857696L311.358984375,248.03184041976928L313.1905078125,233.22420945167542L315.63253906250003,239.02454781532288L316.243046875,241.72310457229614L316.8535546875,251.16393914222718L317.4640625,243.43923897743227L318.685078125,240.3806799888611L320.5166015625,258.25781979560855L321.12710937500003,245.2374747276306L321.7376171875,260.38254132270816L323.569140625,253.37933263778686L324.1796484375,244.10945091247558L325.40066406249997,261.3988766670227L329.0637109375,250.82312393188477L330.2847265625,263.5455609798432L332.11625,256.86435899734494L332.7267578125,255.42023148536683L333.94777343749996,251.76794729232788L334.55828125,245.538672208786L337.6108203125,250.50618209838868L338.221328125,245.84348359107972L339.44234374999996,248.85727887153624L340.663359375,257.2435031890869L341.2738671875,241.54207606315614L341.884375,260.13958082199093L343.7158984375,249.69681243896483L344.32640625,260.08725585937503L346.1579296875,265.3953196048737L346.7684375,258.6058628082275L347.989453125,245.87950544357298L348.5999609375,263.70873627662655L349.8209765625,253.46524615287782L352.2630078125,251.11773347854614L352.87351562500004,256.02839426994325L353.4840234375,254.54518976211548L354.7050390625,254.80045194625856L355.315546875,252.96632051467896L357.1470703125,264.05861778259276L357.757578125,253.2772602081299L358.36808593750004,265.4021688938141L358.97859375,261.35413999557494L360.19960937499997,259.3255969047546L360.8101171875,260.4790351867676L361.42062500000003,256.06027951240543L362.0311328125,252.7483328819275L367.525703125,255.08191266059876L368.1362109375,261.0052227973938L369.3572265625,264.92289891242984L371.18875,263.8623676300049L375.46230468749997,250.8097768306732L376.0728125,264.08674492836L378.51484375,264.8136797904968L379.1253515625,275.7263995170593L379.73585937499996,239.82806854248045L380.956875,257.198451089859L382.177890625,260.2127510547638L384.619921875,262.9512680053711L390.1144921875,258.0594337463379L390.725,260.5139034748077L391.3355078125,259.29500942230226L391.94601562500003,269.92581782341L393.16703125,249.48834171295167L393.7775390625,255.5958706855774L395.60906250000005,257.9813698768616L397.4405859375,251.64983310699463L401.714140625,260.45790152549745L402.3246484375,255.04471921920776L402.93515625000003,262.8962574005127L403.54566406249995,253.4659761428833L404.7666796875,255.00897674560545L405.3771875,261.2711644649506L405.9876953125,256.3767887592316L407.2087109375,257.74584445953366L407.81921875,264.8765310287476L408.4297265625,264.6736659049988L409.65074218750004,251.42183289527892L410.8717578125,260.6167058944702L411.48226562499997,263.3384150505066L413.924296875,262.23944664001465L418.1978515625,258.8754724502564L420.029375,248.79605884552004L420.63988281250005,264.29865832328795L421.8608984375,263.88883652687076L423.0819140625,264.344521522522L424.9134375,258.4669123649597L431.62902343749994,242.74558625221252L433.460546875,268.75660815238956L434.0710546875,261.9980993270874L434.68156250000004,253.80459237098694L435.902578125,260.2188343048096L437.12359375,261.9039396286011L437.73410156250003,259.23253669738773L438.9551171875,268.35544710159303L442.00765625,259.9223141670227L442.6181640625,256.2812321662903L446.28121093749996,261.42484989166263L447.5022265625,260.4315407752991L448.112734375,268.7633763313293L448.72324218750003,262.0717742443085L449.33374999999995,267.2279459953308L449.9442578125,263.7433432102203L450.554765625,265.597612452507L451.1652734375,256.6046808242798L451.77578125,253.91539764404297L452.38628906250005,260.20517177581786L452.996796875,269.7412610292435L454.2178125,251.4182370185852L456.0493359375,263.14470634460446L456.65984375,260.72492465972897L457.27035156249997,262.7992228031158L458.49136718750003,272.2501780986786L460.9333984375,265.28298225402835L462.1544140625,260.4111371040344L463.37542968749995,264.25010948181153L465.8174609375,255.8392547607422L466.42796875000005,266.13635408878326L467.03847656249997,260.8862614631653L468.2594921875,253.36144337654113L469.48050781250004,265.18034205436703L470.7015234375,257.05357961654664L471.9225390625,257.90491018295285L472.533046875,266.58075578212737L474.36457031249995,262.34197869300846L475.5855859375,254.56105127334595L476.19609375,269.5011438846588L476.8066015625,264.6066645383835L477.41710937499994,262.34014921188356L478.02761718749997,257.30435371398926L478.638125,269.480456328392L479.859140625,257.1958285331726L480.46964843750004,274.0666996479035L483.52218750000003,262.65036792755126L484.13269531250006,262.74387874603275L485.3537109375,265.6487432956696L485.96421875,258.9447494029999L486.5747265625,272.22292964458467L488.40625,253.153657579422L489.627265625,258.7813848495484L490.84828125,260.80632305145264L492.06929687499996,264.577658700943L493.2903125,253.78974924087524L494.51132812500003,262.64205865859986L495.12183593749995,259.748783826828L495.73234375,263.26873254776L497.5638671875,255.92145524024963L500.0058984375,256.95340876579286L500.61640625,267.6323063850403L501.837421875,263.2397402286529L502.4479296875,255.82707924842836L503.6689453125,260.6872175216675L506.11097656249996,267.47787294387814L509.16351562499995,259.56220378875736L513.4370703124999,273.17685985565186L514.047578125,255.5487187385559L515.26859375,264.23352699279786L515.8791015625001,274.04728732109066L516.489609375,266.22773351669315L517.1001171875,267.042916059494L517.710625,262.50131478309635L518.3211328125,266.20118350982665L519.5421484374999,263.1696521759033L520.15265625,264.6178892612457L522.5946875000001,272.040670967102L523.2051953125,260.5096316814423L524.4262109375,264.4830303668976L525.6472265625,254.59895668029785L527.47875,265.3865146636963L528.699765625,272.3494116783142L529.3102734375,264.92567467689514L529.92078125,277.1738885879517L531.7523046875,259.10389623641964L532.3628125,272.5916016340256L532.9733203125,246.5875597000122L533.5838281250001,260.21411190032956L534.1943359375,258.527510547638L535.4153515625,264.231201839447L536.025859375,274.31489174366L536.6363671875,263.52698678970336L537.8573828125,250.7738901615143L538.467890625,263.78212280273436L539.0783984375,259.94217710494996L539.6889062500001,255.7686620235443L540.2994140625,262.4262609958649L540.909921875,270.7639184474945L542.1309375,261.40951108932495L542.7414453125,277.43320627212523L544.57296875,261.6118715286255L547.015,257.9340196609497L548.8465234375,253.41077628135682L549.45703125,264.048992729187L550.0675390625,263.483628988266L551.2885546875,264.8052803993225L551.8990625,266.57110819816586L552.5095703125,257.6638332366943L553.120078125,266.76332988739017L554.34109375,263.95972666740414L554.9516015625,264.8341555595398L555.562109375,268.8281877279282L558.004140625,262.8145435810089L560.446171875,266.23634018898014L561.0566796875,263.1268801689148L562.2776953125,274.86789972782134L562.888203125,259.4660073280334L563.4987109375,273.22890994548794L564.10921875,266.3295175552368L564.7197265625,260.8056381225586L565.3302343749999,260.2473129272461L567.1617578125,269.6776527643204L567.772265625,254.4859163761139L571.4353125,259.98699488639835L572.656328125,266.54183650016785L573.2668359375,255.82643938064575L573.87734375,262.34522309303287L574.4878515625,263.9260750293732L575.7088671875,264.9718893527984L577.540390625,264.7714079618454L578.1508984375,265.10790181159973L579.982421875,269.33362469673153L580.5929296875,257.09828023910524L581.2034375,259.6435841560364L582.424453125,265.33117961883545L583.64546875,259.56699829101564L585.4769921875001,261.4960644721985L586.0875,276.21716008186337L587.3085156249999,262.9589374065399L589.1400390625,260.46996889114376L589.750546875,268.12395915985104L590.3610546875,259.30804109573364L591.5820703125,254.49376602172853L592.192578125,269.1677006721497L592.8030859375,256.22007522583004L594.0241015624999,266.8253925561905L594.634609375,249.1843774795532L595.2451171875,264.85611834526065L598.29765625,273.8814984798432L600.7396875,263.1102796554565L601.3501953125,269.6257108211517L602.5712109375,259.69101548194885L603.7922265625,257.3291553497315L605.0132421874999,258.71090927124027L605.62375,268.7630068302155L606.2342578125,269.55695207118987L606.844765625,273.043533039093L607.4552734375001,256.9275256633759L608.06578125,272.7912268638611L609.286796875,261.3098989963532L610.5078125,265.419224524498L611.728828125,275.74874081611637L613.5603515625,273.90345225334164L614.7813671875,272.2984655857086L615.391875,264.9236469268799L616.0023828125,274.29941325187684L618.4444140625,264.54855823516846L619.6654296875,262.37998323440553L620.2759375,256.36111650466916L621.496953125,274.6606231212616L623.3284765625,268.7029133319855L624.5494921875,267.24795763492585L625.1600000000001,267.5405754804611L625.7705078125,261.2560509681702L627.60203125,263.1953009605408L629.4335546875,262.55903806686405L630.0440625,253.4835319519043L631.2650781250001,261.44678564071654L632.48609375,267.34668202400206L633.707109375,259.8152579784393L636.7596484375,262.2304704666138L637.9806640625,264.56393308639525L638.591171875,263.5360620975494L639.2016796875,270.67977132797245L639.8121874999999,272.43785762786865L641.6437109375,260.18646240234375L645.3067578125,259.9269104003906L646.5277734375,260.86829109191893L647.13828125,268.5135485172272L647.7487890625,265.980393075943L648.359296875,266.61559252738954L648.9698046875001,270.84666416645047L651.4118359375,271.0259578227997L652.6328515625,269.2320749759674L653.2433593750001,253.88628816604614L655.0748828125,268.31938920021054L655.685390625,262.78474016189574L656.2958984375,261.33192486763L656.9064062499999,261.6294093132019L657.5169140625,260.7197696685791L658.7379296875,266.7666328668594L659.3484375,267.6286113739014L659.9589453125001,270.02442054748536L660.569453125,267.935594701767L661.79046875,265.20017795562745L663.6219921875,275.56211121082305L664.8430078125,262.3835971355438L665.453515625,264.4278305053711L666.67453125,266.0877646923065L667.2850390625,269.9263225078583L669.1165625,261.5850421428681L669.7270703125,269.4047131061554L670.9480859375001,272.59748661518097L671.55859375,264.42036838531493L675.8321484375,269.0061881303787L676.44265625,261.110161113739L677.0531640625001,263.58476414680484L677.663671875,266.32935533523556L678.2741796875,277.6855755329132L678.8846874999999,261.08218717575073L679.4951953125,274.3460875511169L680.7162109375,267.36973528862L681.32671875,273.6983791351318L681.9372265625,268.3834030151367L683.76875,268.22631096839905L684.3792578125,264.5310024261475L684.989765625,275.5225610733032L685.6002734374999,270.0409219264984L686.8212890625,269.36705102920536L690.4843359375,258.68249373435975L691.09484375,265.62496905326844L691.7053515625,270.4486528873444L692.9263671875,270.70228385925293L695.3683984375,265.8225800514221L697.199921875,273.0590430736542L699.0314453125001,275.2749592781067L701.4734765625,273.41825222969055L703.305,274.1135902404785L703.9155078125,271.14348621368407L704.526015625,265.9343721628189L705.7470312500001,273.0248461961746L706.3575390625,250.36283369064333L706.968046875,270.47587881088253L708.7995703125,270.96773886680603L709.410078125,265.56751613616944L710.63109375,274.07143106460575L711.852109375,263.88964762687687L712.4626171875,265.4908491611481L713.6836328124999,267.76831884384154L714.9046484375,276.20791354179386L715.51515625,272.9587821006775L716.7361718750001,275.4357328176498L717.9571875,272.85099592208866L718.5676953125,265.7377885580063L719.178203125,260.6541606903076L719.7887109375,268.57228116989137L721.620234375,273.21471569538113L722.2307421875,272.5063234806061L722.8412500000001,265.5091304540634L724.6727734374999,266.378120470047L725.28328125,278.0174506187439L730.16734375,261.26004338264465L731.9988671875,275.2879549026489L732.609375,261.5799862861633L733.8303906250001,258.67504963874813L735.05140625,271.0855376243591L735.6619140625,275.667973279953L737.4934374999999,274.9612167835235L738.1039453125001,273.7321479320526L739.3249609375001,264.79734964370726L739.93546875,261.00174407958986L740.5459765625,276.4413931846619L741.156484375,259.6110860824585L742.9880078125,271.675910282135L747.8720703125,268.3874224662781L748.482578125,266.8960168361664L749.0930859375,269.7521928548813L750.3141015625,266.9406588792801L751.5351171875001,266.6177374362946L752.145625,273.11592371463774L752.7561328125,268.80739653110504L753.9771484375,272.10926299095155L755.1981640624999,270.84181108474735L755.8086718750001,263.1641457080841L756.4191796875,269.19386315345764L758.250703125,261.32266931533815L758.8612109375,271.214516043663L759.4717187499999,267.95018548965453L762.5242578125,273.12605345249176L763.7452734375,265.9094578742981L764.35578125,276.9866236209869L765.5767968749999,269.440185213089L766.1873046875,259.0554735660553L767.4083203125001,263.207674741745L771.0713671875,268.9805753946304L771.6818749999999,263.90894279479977L772.9028906249999,258.6382977962494L774.12390625,274.1326015233994L776.5659375,271.4319404125213L777.7869531250001,256.3568627357483L779.0079687499999,262.49627695083615L780.228984375,273.5767591953277L781.45,259.78901438713075L782.671015625,275.3008468866348L783.2815234374999,265.2586267232895L783.8920312500001,265.2155978679657L784.5025390625,262.5482324123382L785.1130468750001,273.5773044347763L787.555078125,267.4158237934112L788.77609375,266.081595826149L789.3866015624999,270.2211843967438L793.0496484375,272.7398481845856L794.2706640625,273.7555211305618L795.4916796875001,266.8679437637329L796.1021875,270.82286288738254L796.7126953124999,265.11111466884614L800.3757421875,262.0838596343994L802.207265625,267.99729237556454L803.42828125,269.76889700889586L805.2598046874999,269.4840206623077L807.0913281249999,274.6633358001709L807.7018359375,273.9461116075516L808.9228515625,269.1466661453247L809.533359375,272.62216658592223L810.1438671875,273.1695284128189L810.754375,271.1857355117798L811.975390625,271.8285773277283L812.5858984375,272.41569657325743L813.8069140625,265.25239927768706L814.417421875,270.5240761756897L815.0279296875,267.51889657974243L816.859453125,268.204402256012L817.4699609374999,263.9675763130188L818.6909765624999,276.66706824302673L823.5750390625001,267.8526507139206L824.185546875,274.8703690767288L824.7960546874999,263.18349494934085L825.4065625000001,258.26844520568847L827.2380859375,273.2853625059128L827.84859375,268.6235066413879L828.4591015625,266.93277769088746L830.290625,269.2182502269745L830.9011328125001,263.3878741264343L831.511640625,258.4550973415375L833.3431640625,271.4321116447449L840.6692578125,271.18273894786836L842.5007812499999,262.5044600486755L843.721796875,260.2666711807251L844.3323046875,272.974706697464L845.5533203125,271.4574359893799L846.163828125,265.20247156620024L847.9953515625,265.83610289096833L849.826875,273.84776573181153L850.4373828125,277.4019338607788L851.0478906249999,273.15839381217955L851.6583984375001,277.8999582767487L852.26890625,272.0797840118408L852.8794140624999,277.11119506359097L853.489921875,265.4026104927063L854.1004296875,269.12646975517276L855.3214453125,268.3122470140457L856.5424609375,274.3945372581482L857.1529687499999,276.687305188179L858.373984375,271.76356315612793L859.595,271.49798197746276L860.816015625,269.79629867076875L861.4265234375,263.8666213989258L862.03703125,282.0411329984665L862.6475390625,267.34277973175045L863.2580468749999,274.8884521007538L863.8685546875,271.07016727924344L866.3105859375,270.2848196983337L869.3631250000001,278.4883482456207L869.9736328125,272.435910987854L871.1946484375001,259.7123834609985L871.80515625,265.4272634267807L874.2471875,272.68881196975707L874.8576953124999,276.32334208488464L875.4682031250001,275.0578728675842L876.6892187500001,263.02065310478207L878.5207421875,275.6668016910553L880.352265625,275.1535466194153L881.57328125,277.4923895359039L882.7942968750001,277.0413728713989L883.4048046875,272.44706361293794L884.6258203125,270.8416218280792L885.236328125,263.91457543373104L887.0678515625001,271.11436772346497L887.678359375,269.92424068450924L888.2888671874999,261.2545188903809L889.5098828125,272.45822074413303L890.120390625,270.70579862594604L890.7308984375,267.4428649663925L891.9519140625,277.4926599025726L892.5624218749999,268.3230932235718L893.1729296875001,265.1404539585114L893.7834375,262.9774214744568L894.3939453125,275.4249406814575L895.004453125,271.74816126823424L898.0569921875,265.85760154724125L898.6674999999999,274.6204466342926L899.888515625,267.96605150699617L902.330546875,265.1761964321136L902.9410546874999,268.2368552684784L904.1620703125,268.94573864936825L906.6041015625,272.73625230789185L907.8251171875,278.5387896537781L909.0461328124999,268.3382247447967L910.2671484374999,271.8116749048233L910.8776562500001,270.1695713996887L911.4881640625,275.6872414112091L912.098671875,275.6791619539261L913.3196875,260.7463557243347L915.1512109375001,266.1297616481781L915.76171875,277.0124796867371L916.9827343750001,273.6669445037842L917.5932421875,274.9968150615692L918.20375,273.26951451301574L919.424765625,268.6859072685242L921.866796875,271.25612547397617L923.0878125,270.43772106170655L923.6983203125,271.936359000206L924.9193359375,274.42179021835324L925.52984375,275.7779133796692L927.3613671875,269.06012177467346L927.971875,273.98616642951964L931.0244140625,266.7380911588669L931.634921875,279.2686940431595L932.2454296875,275.84853765964505L932.8559375000001,273.3793735027313L934.0769531249999,276.6952224254608L935.29796875,274.1085253715515L935.9084765625,274.36300799846646L936.518984375,267.8995007514954L937.1294921875,268.25353689193724L937.74,281.6585191011429L938.3505078124999,280.1151084423065L940.18203125,267.13459739685055L942.0135546875,267.90039296150206L943.2345703125001,264.7261891365051L944.4555859374999,262.072909784317L945.06609375,260.0962140083313L945.6766015625,266.96670870780946L946.287109375,257.4983958721161L946.8976171875,272.15631580352783L949.3396484375,269.0206482410431L951.7816796875,272.5288540363312L953.0026953125,264.2969009399414L953.613203125,264.49525995254515L955.4447265625,258.4242485046387L956.0552343749999,272.4702655792236L956.6657421875001,272.24742035865785L958.497265625,272.22441215515136L960.3287890624999,268.8518042564392L960.9392968750001,271.4709813594818L961.5498046875,273.4018815279007L962.7708203125001,270.5280415534973L963.381328125,277.2783672809601L963.9918359375,269.17930841445923L965.823359375,272.1695051908493L967.0443750000001,280.1779056072235L967.6548828125,276.5594532966614L968.2653906250001,274.68196856975555L968.8758984375,274.7890427827835L969.48640625,269.07682142257687L970.0969140625,266.1698525190354L971.3179296875,262.87522287368773L971.9284375,264.0916656017303L973.7599609375,259.5895468711853L976.8125,278.7511626720429L984.1385937499999,272.21123628616334L984.7491015625001,277.7576237440109L985.359609375,276.1301560878754L985.9701171875,268.56880245208737L988.4121484374999,271.00086328983303L990.2436718749999,272.96462652683255L990.8541796875,270.0859289646149L992.0751953125,273.85449786186217L992.685703125,279.0548745632172L993.2962109375,276.7600563526153L993.90671875,273.5451443195343L995.127734375,273.76286158561703L996.3487500000001,268.32893314361576L996.9592578125,268.7814548492432L997.569765625,275.6230924129486L998.79078125,271.7596833944321L999.4012890625,267.5945722103119L1000.011796875,275.2882252693176L1001.2328125,270.8762377738953L1002.4538281250001,269.87998616695404L1006.1168749999999,271.73369214534756L1007.337890625,264.46003117561344L1010.3904296875,269.0537951946258L1011.0009375,268.8655839443207L1013.44296875,276.99761853218075L1016.4955078125,256.7869079589844L1017.106015625,277.4096393108368L1019.548046875,280.6576667547226L1021.990078125,270.2361176490784L1023.8216015625,272.9339759588242L1025.653125,268.517892408371L1026.2636328125,270.6815647602081L1026.8741406249999,270.5889551639557L1028.7056640624999,278.01732444763184L1029.316171875,271.68449892997745L1031.1476953125,274.82409131526947L1032.3687109375,277.69856665134427L1032.97921875,268.43297924995426L1033.5897265625001,265.764379119873L1037.86328125,274.4549732208252L1038.4737890625,272.0838395118713L1039.0842968749998,269.8439958572388L1039.6948046875,273.8703999280929L1040.9158203125,272.10147192478183L1041.526328125,281.1728639602661L1042.1368359375,277.32788043022157L1042.74734375,279.0459975242615L1043.3578515625,269.48560230731965L1043.968359375,273.92862339019774L1044.5788671875,276.898754453659L1045.1893750000002,274.87021136283875L1045.7998828125,270.3962107658386L1047.63140625,273.90660653114315L1048.852421875,260.6968515872955L1051.9049609375,263.30382614135743L1052.51546875,265.2167604446411L1053.1259765625,278.1601321220398L1054.3469921875,259.58542828559877L1058.620546875,270.4188314437866L1059.8415625,276.2703231811524L1062.8941015625,281.877583694458L1063.504609375,273.1390671014786L1065.946640625,276.2559802293777L1067.1676562500002,273.85084340572354L1067.7781640625,270.37127845287324L1068.9991796875001,271.5839270353317L1069.6096875,277.5550605297089L1070.830703125,253.01148977279664L1071.4412109375,267.52242937088016L1075.1042578125,274.9987436771393L1075.714765625,269.3648790836334L1076.3252734375,278.7356391191483L1079.3778125000001,269.45044112205505L1079.9883203125,270.4516179084778L1085.482890625,276.53959035873413L1086.0933984375,278.41152355670926L1087.924921875,263.2197240829468L1088.5354296875,277.7226157665253L1089.1459375,265.6914071559906L1090.366953125,270.42070147991177L1091.58796875,270.87509322166443L1092.808984375,258.66568593978883L1094.6405078125,275.99585595130924L1095.251015625,270.3109506368637L1096.4720312499999,274.49937644004825L1097.0825390625,269.0797053337097L1098.3035546875,269.66551780700684L1099.5245703125,273.45591430664064L1100.135078125,255.26723098754883L1101.3560937500001,276.034752702713L1101.9666015625,279.55145702362057L1104.4086328125,268.59397358894347L1105.019140625,261.3184425830841L1106.24015625,275.80903258323673L1106.8506640624998,274.9340539455414L1107.461171875,278.57987637519835L1108.0716796875,264.4969272136688L1109.2926953125,277.20417416095734L1109.903203125,273.39849293231964L1110.5137109375,280.2796355724335L1111.12421875,277.1808189868927L1113.56625,271.17117176055905L1114.7872656250001,278.95870513916014L1115.3977734375,274.84566206932067L1116.00828125,270.14561691284183L1117.229296875,274.08111469745637L1118.4503124999999,286.85481777191166L1119.671328125,268.6079740762711L1120.89234375,270.3064760684967L1121.5028515625,262.16277966499325L1122.113359375,277.7091244697571L1123.3343750000001,269.7783282995224L1123.9448828125,276.72632360458374L1124.555390625,278.2080861568451L1125.1658984375001,279.8411684274674L1125.77640625,274.0810471057892L1126.3869140625,273.86226639747616L1127.6079296875,277.8641391992569L1128.2184375,272.0259630203247L1130.0499609375,268.6080732107162L1130.6604687499998,269.8621284484863L1131.881484375,275.288081073761L1132.4919921875,273.3463482141495L1134.323515625,269.62343072891235L1134.9340234375,275.49897608757016L1135.54453125,270.9460599660874L1136.1550390625,280.21841554641725L1136.7655468750002,271.7881259679794L1137.9865625,275.1968593597412L1140.42859375,269.3357696056366L1141.649609375,276.60344195365906L1142.2601171874999,281.6259128808975L1142.870625,271.1821666717529L1144.7021484375,268.3856290340423L1145.31265625,270.55055408477784L1146.533671875,275.5975697994232L1148.975703125,274.6634439468384L1149.5862109375,269.9833203077316L1150.19671875,269.7845963001251L1150.8072265625,275.80436425209047L1152.0282421875,274.819571685791L1154.4702734375,270.163614320755L1155.08078125,270.8647291660309L1156.301796875,284.30245728492736L1156.9123046875,277.8069566488266L1157.5228125,277.6626935005188L1158.1333203125,272.87732963562013L1159.3543359375,269.25790400505065L1161.185859375,276.9925626754761L1161.7963671875,278.318359708786L1162.406875,276.702873802185L1163.0173828125,278.88667044639584L1163.627890625,272.8750495433807L1165.4594140625,266.9605984210968L1166.0699218749999,266.72714581489566L1168.511953125,283.4756760120392L1169.1224609375001,268.5163828611374L1170.3434765625,274.99704937934877L1170.9539843750001,272.317463350296L1171.5644921875,279.06121916770934L1174.0065234375,269.3320565700531L1175.838046875,270.51177899837495L1177.0590625,273.01660001277924L1178.8905859375,277.51732635498047L1179.50109375,270.1189046859741L1180.1116015625,268.8344241857529L1180.722109375,273.35882563591L1181.3326171875,279.0370709180832L1182.5536328125002,278.64057369232177L1183.164140625,272.98840527534486L1183.7746484375,278.8185290336609L1185.606171875,273.03575098514557L1186.2166796875,276.1220270633698L1187.4376953125,278.68317446708676L1188.0482031249999,278.77329218387604L1188.6587109375,277.5113557577133L1190.490234375,274.39082422256473L1191.71125,268.91496641635894L1192.3217578125,271.8841196537018L1192.9322656250001,271.82505354881283L1193.5427734375,281.1123468875885L1197.816328125,271.2281470298767L1198.4268359374998,285.5371587753296L1200.258359375,280.74413452148434L1203.3108984375,279.0049198150635L1205.7529296875,273.5898990154266L1206.9739453125,271.00655450820926L1208.1949609375,277.47455434799195L1209.4159765625,274.5205191135406L1210.0264843749999,275.70499548912045L1210.6369921875,266.36211476325985L1211.2475,274.2753325939179L1213.68953125,277.3502938270569L1214.3000390625,271.099763417244L1214.9105468750001,277.456502866745L1216.1315625,284.9342681407929L1216.7420703125001,261.16812772750853L1217.352578125,269.70168385505673L1219.794609375,272.3102761030197L1221.015625,279.06952843666073L1222.2366406249998,272.97087650299073L1223.45765625,277.1919400691986L1224.0681640625,268.434619474411L1225.2891796875,270.3071880340576L1227.7312109375,279.76725468635556L1228.9522265625,261.1469850540161L1229.562734375,280.0299609661102L1231.3942578125,272.8069892406464L1233.22578125,267.32972102165223L1235.6678125,279.5922733783722L1236.888828125,265.3337571144104L1237.4993359375,278.9092460632324L1239.330859375,274.0575252056122L1241.772890625,281.4852456092835L1242.3833984375,264.6751709461212L1242.99390625,275.19751725196835L1243.6044140625,284.1194370746612L1245.4359375,277.48667578697206L1246.0464453125,272.69712574481963L1246.656953125,276.2109461545944L1247.87796875,271.3686836242676L1248.4884765625,279.8986528873443L1249.098984375,281.09801745414734L1250.3200000000002,274.1374816417694L1250.9305078125,279.58358559608456L1252.76203125,281.6655891895294L1253.3725390625,276.4961289167404L1254.5935546875,278.86749243736267L1255.8145703124999,271.56186962127686L1256.425078125,273.3247143745422L1257.0355859375,264.593475151062L1261.309140625,268.5717764854431L1261.9196484375,282.12181491851806L1262.5301562500001,279.9931550502777L1263.1406640625,272.7771407604218L1266.8037109375,276.17119774818417L1267.41421875,279.9536454677582L1268.0247265624998,272.78616199493405L1268.635234375,277.87506651878357L1269.2457421875,272.44218349456787L1270.4667578125,267.8446118116379L1272.29828125,276.7748003482819L1274.1298046875002,266.9783705234527L1276.5718359375,275.4769141674042L1277.18234375,278.9842908382416L1277.7928515625,277.6604809999466L1278.403359375,276.1518304824829L1279.0138671875,282.97328066825867L1280.2348828125,279.082244682312L1280.845390625,267.84314732551576L1283.287421875,274.9086665153504L1285.1189453125,271.98431754112244L1285.729453125,276.6151758670807L1287.5609765625,272.7521138191223L1288.171484375,269.7629128932953L1288.7819921875,270.36902089118956L1289.3925,269.68188400268554L1290.0030078124998,271.91410331726075L1291.2240234375,273.7755823373795L1291.83453125,271.0641426086426L1292.4450390625,272.8119414567947L1293.055546875,278.5612030506134L1293.6660546875,277.8484714508057L1296.1080859375002,273.82481610774994L1296.71859375,265.6924796104431L1297.3291015625,264.9383098125458L1299.160625,267.6122992515564L1300.381640625,270.4624055385589L1300.9921484375,281.65864076614383L1301.6026562499999,276.0748300552368L1302.823671875,272.9661270618439L1303.4341796874999,273.4128223657608L1304.0446875,268.4381162166596L1305.265703125,277.90181479454037L1305.8762109375,268.99655857086185L1307.707734375,270.21234340667723L1308.92875,274.5239753007889L1310.149765625,275.49126162528995L1310.7602734375,280.2591598033905L1311.9812890624999,269.290136218071L1313.8128124999998,269.60522153377536L1315.033828125,275.96193394660946L1315.6443359375,275.51061086654664L1316.25484375,275.27520711421965L1317.475859375,277.95137300491336L1318.696875,275.7316220998764L1319.3073828125,278.68282749652866L1319.9178906250002,277.33408083915714L1322.359921875,274.5401927947998L1322.9704296875,278.8359316349029L1324.1914453125,272.45283594131473L1325.4124609374999,268.28899998664855L1328.465,278.63690571784974L1330.90703125,273.1542662143707L1331.5175390625,274.3290364265442L1332.128046875,276.88264961242675L1332.7385546875,283.50837235450746L1340.0646484375,270.03543348312377L1341.2856640625,271.9972230434418L1342.5066796875,274.5608217716217" style="fill: none;" fill="none"></path></g></g></g></g></g></g><g transform="translate(30, 378)" clip-path="url(#clip_1)"><clipPath id="clip_1"><rect width="1465" height="22"></rect></clipPath><g><g><line x1="0" y1="0" x2="0" y2="5" style="visibility: inherit;" fill="rgb(0, 0, 0)" stroke="rgb(204, 204, 204)" stroke-width="1px"></line><line x1="122.1015625" y1="0" x2="122.1015625" y2="5" style="visibility: inherit;" fill="rgb(0, 0, 0)" stroke="rgb(204, 204, 204)" stroke-width="1px"></line><line x1="244.203125" y1="0" x2="244.203125" y2="5" style="visibility: inherit;" fill="rgb(0, 0, 0)" stroke="rgb(204, 204, 204)" stroke-width="1px"></line><line x1="366.3046875" y1="0" x2="366.3046875" y2="5" style="visibility: inherit;" fill="rgb(0, 0, 0)" stroke="rgb(204, 204, 204)" stroke-width="1px"></line><line x1="488.40625" y1="0" x2="488.40625" y2="5" style="visibility: inherit;" fill="rgb(0, 0, 0)" stroke="rgb(204, 204, 204)" stroke-width="1px"></line><line x1="610.5078125" y1="0" x2="610.5078125" y2="5" style="visibility: inherit;" fill="rgb(0, 0, 0)" stroke="rgb(204, 204, 204)" stroke-width="1px"></line><line x1="732.609375" y1="0" x2="732.609375" y2="5" style="visibility: inherit;" fill="rgb(0, 0, 0)" stroke="rgb(204, 204, 204)" stroke-width="1px"></line><line x1="854.7109375" y1="0" x2="854.7109375" y2="5" style="visibility: inherit;" fill="rgb(0, 0, 0)" stroke="rgb(204, 204, 204)" stroke-width="1px"></line><line x1="976.8125" y1="0" x2="976.8125" y2="5" style="visibility: inherit;" fill="rgb(0, 0, 0)" stroke="rgb(204, 204, 204)" stroke-width="1px"></line><line x1="1098.9140625" y1="0" x2="1098.9140625" y2="5" style="visibility: inherit;" fill="rgb(0, 0, 0)" stroke="rgb(204, 204, 204)" stroke-width="1px"></line><line x1="1221.015625" y1="0" x2="1221.015625" y2="5" style="visibility: inherit;" fill="rgb(0, 0, 0)" stroke="rgb(204, 204, 204)" stroke-width="1px"></line><line x1="1343.1171875" y1="0" x2="1343.1171875" y2="5" style="visibility: inherit;" fill="rgb(0, 0, 0)" stroke="rgb(204, 204, 204)" stroke-width="1px"></line><line x1="1465.21875" y1="0" x2="1465.21875" y2="5" style="visibility: inherit;" fill="rgb(0, 0, 0)" stroke="rgb(204, 204, 204)" stroke-width="1px"></line></g><g transform="translate(0, 8)"><text x="0" y="0" dx="0em" dy="0.95em" style="text-anchor: middle; visibility: hidden; font-family: Roboto, sans-serif; font-size: 12px; font-weight: 200;" fill="rgb(50, 49, 63)" stroke="none" stroke-width="1px">-200</text><text x="122.1015625" y="0" dx="0em" dy="0.95em" style="text-anchor: middle; visibility: inherit; font-family: Roboto, sans-serif; font-size: 12px; font-weight: 200;" fill="rgb(50, 49, 63)" stroke="none" stroke-width="1px">0</text><text x="244.203125" y="0" dx="0em" dy="0.95em" style="text-anchor: middle; visibility: inherit; font-family: Roboto, sans-serif; font-size: 12px; font-weight: 200;" fill="rgb(50, 49, 63)" stroke="none" stroke-width="1px">200</text><text x="366.3046875" y="0" dx="0em" dy="0.95em" style="text-anchor: middle; visibility: inherit; font-family: Roboto, sans-serif; font-size: 12px; font-weight: 200;" fill="rgb(50, 49, 63)" stroke="none" stroke-width="1px">400</text><text x="488.40625" y="0" dx="0em" dy="0.95em" style="text-anchor: middle; visibility: inherit; font-family: Roboto, sans-serif; font-size: 12px; font-weight: 200;" fill="rgb(50, 49, 63)" stroke="none" stroke-width="1px">600</text><text x="610.5078125" y="0" dx="0em" dy="0.95em" style="text-anchor: middle; visibility: inherit; font-family: Roboto, sans-serif; font-size: 12px; font-weight: 200;" fill="rgb(50, 49, 63)" stroke="none" stroke-width="1px">800</text><text x="732.609375" y="0" dx="0em" dy="0.95em" style="text-anchor: middle; visibility: inherit; font-family: Roboto, sans-serif; font-size: 12px; font-weight: 200;" fill="rgb(50, 49, 63)" stroke="none" stroke-width="1px">1k</text><text x="854.7109375" y="0" dx="0em" dy="0.95em" style="text-anchor: middle; visibility: inherit; font-family: Roboto, sans-serif; font-size: 12px; font-weight: 200;" fill="rgb(50, 49, 63)" stroke="none" stroke-width="1px">1.2k</text><text x="976.8125" y="0" dx="0em" dy="0.95em" style="text-anchor: middle; visibility: inherit; font-family: Roboto, sans-serif; font-size: 12px; font-weight: 200;" fill="rgb(50, 49, 63)" stroke="none" stroke-width="1px">1.4k</text><text x="1098.9140625" y="0" dx="0em" dy="0.95em" style="text-anchor: middle; visibility: inherit; font-family: Roboto, sans-serif; font-size: 12px; font-weight: 200;" fill="rgb(50, 49, 63)" stroke="none" stroke-width="1px">1.6k</text><text x="1221.015625" y="0" dx="0em" dy="0.95em" style="text-anchor: middle; visibility: inherit; font-family: Roboto, sans-serif; font-size: 12px; font-weight: 200;" fill="rgb(50, 49, 63)" stroke="none" stroke-width="1px">1.8k</text><text x="1343.1171875" y="0" dx="0em" dy="0.95em" style="text-anchor: middle; visibility: inherit; font-family: Roboto, sans-serif; font-size: 12px; font-weight: 200;" fill="rgb(50, 49, 63)" stroke="none" stroke-width="1px">2k</text><text x="1465.21875" y="0" dx="0em" dy="0.95em" style="text-anchor: middle; visibility: hidden; font-family: Roboto, sans-serif; font-size: 12px; font-weight: 200;" fill="rgb(50, 49, 63)" stroke="none" stroke-width="1px">2.2k</text></g><line x1="0" y1="0" x2="1465.21875" y2="0" fill="rgb(0, 0, 0)" stroke="rgb(204, 204, 204)" stroke-width="1px"></line></g></g></g></g></svg>