<?xml version="1.0" encoding="utf-8" standalone="no"?>
<!DOCTYPE svg PUBLIC "-//W3C//DTD SVG 1.1//EN"
  "http://www.w3.org/Graphics/SVG/1.1/DTD/svg11.dtd">
<!-- Created with matplotlib (https://matplotlib.org/) -->
<svg height="288pt" version="1.1" viewBox="0 0 720 288" width="720pt" xmlns="http://www.w3.org/2000/svg" xmlns:xlink="http://www.w3.org/1999/xlink">
 <metadata>
  <rdf:RDF xmlns:cc="http://creativecommons.org/ns#" xmlns:dc="http://purl.org/dc/elements/1.1/" xmlns:rdf="http://www.w3.org/1999/02/22-rdf-syntax-ns#">
   <cc:Work>
    <dc:type rdf:resource="http://purl.org/dc/dcmitype/StillImage"/>
    <dc:date>2021-04-26T14:42:37.434485</dc:date>
    <dc:format>image/svg+xml</dc:format>
    <dc:creator>
     <cc:Agent>
      <dc:title>Matplotlib v3.3.4, https://matplotlib.org/</dc:title>
     </cc:Agent>
    </dc:creator>
   </cc:Work>
  </rdf:RDF>
 </metadata>
 <defs>
  <style type="text/css">*{stroke-linecap:butt;stroke-linejoin:round;}</style>
 </defs>
 <g id="figure_1">
  <g id="patch_1">
   <path d="M 0 288 
L 720 288 
L 720 0 
L 0 0 
z
" style="fill:#ffffff;"/>
  </g>
  <g id="axes_1">
   <g id="line2d_1">
    <path clip-path="url(#p91868ee1c2)" d="M 148.832869 225.186436 
L 143.706643 224.862488 
L 112.039682 223.196757 
L 90.456336 221.56936 
L 83.520843 221.387708 
L 76.677307 221.476722 
L 69.029351 221.813462 
L 62.328653 222.301206 
L 58.227504 222.733261 
L 53.957839 223.375532 
L 51.238008 223.967712 
L 48.678801 224.79006 
L 48.202522 224.995759 
L 46.539251 226.056491 
L 46.155715 226.561825 
L 46.030067 227.142701 
L 46.177895 227.57615 
L 46.523243 227.966323 
L 46.76233 228.144532 
L 48.08511 228.742148 
L 50.068718 229.209557 
L 53.334057 229.599822 
L 57.632235 229.830415 
L 66.151175 229.997794 
L 77.776592 230.251179 
L 96.623623 230.794818 
L 103.150974 230.643345 
L 109.403202 230.246311 
L 116.619283 229.539376 
L 129.163541 227.998867 
L 138.914095 226.893895 
L 145.896289 226.330642 
L 148.838353 226.176453 
L 148.838353 226.176453 
" style="fill:none;stroke:#000000;stroke-linecap:square;stroke-opacity:0.7;stroke-width:1.2;"/>
   </g>
   <g id="line2d_2">
    <path clip-path="url(#p91868ee1c2)" d="M 148.493682 185.081446 
L 143.88841 183.920605 
L 134.530951 181.845973 
L 121.212444 179.168825 
L 108.246985 176.767129 
L 100.357991 175.527597 
L 95.228051 174.898175 
L 89.969465 174.450927 
L 85.077089 174.25126 
L 80.100641 174.29643 
L 76.061693 174.541721 
L 72.504342 174.93065 
L 68.019512 175.677097 
L 64.886081 176.385189 
L 60.704618 177.597765 
L 57.295521 178.848256 
L 54.792577 179.95334 
L 52.595991 181.099578 
L 50.365674 182.522223 
L 49.192824 183.447935 
L 48.462209 184.135373 
L 47.562321 185.212111 
L 47.106938 185.986487 
L 46.740224 187.254976 
L 46.789366 188.062301 
L 47.273312 189.100785 
L 47.937652 189.764724 
L 48.714671 190.254381 
L 49.742537 190.682389 
L 51.158776 191.047266 
L 53.621323 191.34041 
L 56.977899 191.369171 
L 60.973145 191.125307 
L 67.688873 190.440519 
L 82.241223 188.890074 
L 94.34828 187.89448 
L 116.875972 186.302224 
L 126.955623 185.81368 
L 134.998021 185.635237 
L 143.023784 185.698357 
L 148.440759 185.917627 
L 148.440759 185.917627 
" style="fill:none;stroke:#000000;stroke-linecap:square;stroke-opacity:0.7;stroke-width:1.2;"/>
   </g>
   <g id="line2d_3">
    <path clip-path="url(#p91868ee1c2)" d="M 148.798714 146.076022 
L 140.178035 145.821356 
L 127.454005 145.425478 
L 119.234647 144.964036 
L 110.991262 144.282701 
L 99.516024 143.065455 
L 90.210954 142.133142 
L 84.136614 141.746374 
L 78.167374 141.62312 
L 72.427555 141.747674 
L 67.275777 142.054244 
L 62.552218 142.511735 
L 57.712563 143.204405 
L 54.395598 143.86508 
L 50.974279 144.799462 
L 48.582118 145.722525 
L 47.569661 146.241301 
L 46.090106 147.353576 
L 45.603846 148.130413 
L 45.562736 148.682302 
L 45.828988 149.232234 
L 46.475487 149.767125 
L 47.858507 150.359092 
L 49.881928 150.843033 
L 53.606143 151.328927 
L 59.274231 151.703169 
L 70.59185 152.111566 
L 91.656346 152.709709 
L 97.93096 152.607823 
L 103.721361 152.265522 
L 109.756903 151.664183 
L 116.31132 150.799484 
L 136.874314 147.90256 
L 142.561853 147.380136 
L 148.343598 147.078065 
L 148.811703 147.065147 
L 148.811703 147.065147 
" style="fill:none;stroke:#000000;stroke-linecap:square;stroke-opacity:0.7;stroke-width:1.2;"/>
   </g>
   <g id="line2d_4">
    <path clip-path="url(#p91868ee1c2)" d="M 149.050227 107.931254 
L 122.882655 106.375971 
L 115.258772 105.607706 
L 108.019794 104.667696 
L 87.862426 101.872904 
L 83.094162 101.532624 
L 78.389824 101.447759 
L 73.552059 101.619179 
L 68.533595 102.030472 
L 63.570398 102.633245 
L 58.722422 103.407771 
L 54.05032 104.371949 
L 50.23205 105.408994 
L 47.741715 106.31103 
L 46.063869 107.141515 
L 45.477403 107.529786 
L 44.719003 108.279409 
L 44.509091 108.879735 
L 44.624047 109.312765 
L 44.892042 109.636702 
L 45.42126 109.995203 
L 46.097627 110.289645 
L 48.067816 110.796808 
L 51.341636 111.22483 
L 56.478998 111.535274 
L 66.166442 111.788887 
L 94.439525 112.321664 
L 100.984451 112.102775 
L 108.335657 111.628413 
L 119.558372 110.627057 
L 131.202174 109.626118 
L 138.250902 109.235902 
L 144.58904 109.09287 
L 149.053942 109.118839 
L 149.053942 109.118839 
" style="fill:none;stroke:#000000;stroke-linecap:square;stroke-opacity:0.7;stroke-width:1.2;"/>
   </g>
   <g id="line2d_5">
    <path clip-path="url(#p91868ee1c2)" d="M 148.379465 67.19011 
L 117.532201 63.462223 
L 106.759024 61.754394 
L 95.524295 59.996244 
L 89.596595 59.275088 
L 85.009514 58.889055 
L 79.58735 58.67635 
L 75.354879 58.720358 
L 70.956836 58.980349 
L 66.676004 59.459521 
L 62.986409 60.069156 
L 59.862891 60.747882 
L 56.374407 61.721003 
L 53.512306 62.743718 
L 50.835137 63.975692 
L 48.741906 65.264175 
L 47.508146 66.307381 
L 46.736913 67.248219 
L 46.290146 68.264124 
L 46.27339 69.102783 
L 46.471951 69.640728 
L 46.926257 70.221029 
L 47.924222 70.908893 
L 49.358457 71.475869 
L 51.488456 71.971537 
L 54.338894 72.34725 
L 58.21502 72.615081 
L 65.148821 72.814614 
L 82.001394 72.986751 
L 89.198509 72.930634 
L 96.094441 72.643314 
L 102.113347 72.158633 
L 109.196235 71.358969 
L 133.548657 68.358278 
L 138.311166 68.039238 
L 143.04857 67.901807 
L 148.168552 68.001083 
L 148.334204 68.009449 
L 148.334204 68.009449 
" style="fill:none;stroke:#000000;stroke-linecap:square;stroke-opacity:0.7;stroke-width:1.2;"/>
   </g>
   <g id="line2d_6">
    <path clip-path="url(#p91868ee1c2)" d="M 279.65074 226.364959 
L 271.97367 225.557649 
L 259.133867 224.472713 
L 235.499181 222.514957 
L 216.308615 220.812988 
L 210.266804 220.533116 
L 205.224927 220.485586 
L 199.09075 220.695916 
L 195.071797 221.0186 
L 191.134323 221.509898 
L 187.957065 222.070785 
L 184.302858 222.981061 
L 182.227089 223.694671 
L 180.01557 224.735457 
L 178.521653 225.778219 
L 177.741941 226.641273 
L 177.364501 227.564494 
L 177.369851 227.965516 
L 177.463882 228.282784 
L 178.009478 228.9467 
L 178.725934 229.360227 
L 179.516679 229.639083 
L 182.102237 230.064127 
L 184.588277 230.174002 
L 189.732234 230.05987 
L 208.604142 229.269841 
L 215.245066 229.303281 
L 234.034437 229.582412 
L 241.805525 229.343414 
L 252.388785 228.734888 
L 272.874628 227.465627 
L 279.731611 227.234563 
L 279.731611 227.234563 
" style="fill:none;stroke:#000000;stroke-linecap:square;stroke-opacity:0.7;stroke-width:1.2;"/>
   </g>
   <g id="line2d_7">
    <path clip-path="url(#p91868ee1c2)" d="M 279.637499 185.947067 
L 270.132422 183.930543 
L 256.280374 181.222409 
L 242.123929 178.656927 
L 233.326635 177.268051 
L 226.489314 176.434325 
L 221.610432 176.041051 
L 216.667815 175.857651 
L 211.068443 175.944728 
L 205.624121 176.345718 
L 200.770253 176.96729 
L 196.398116 177.741007 
L 192.366215 178.645665 
L 188.485653 179.7219 
L 184.933826 180.948745 
L 182.194424 182.14349 
L 179.994889 183.385959 
L 178.843968 184.229657 
L 177.651487 185.433264 
L 177.010884 186.538503 
L 176.844185 187.172424 
L 176.845509 187.8975 
L 177.112266 188.696769 
L 177.558382 189.331737 
L 178.362625 190.038007 
L 180.007633 190.918332 
L 181.296146 191.378018 
L 184.559152 192.133723 
L 187.94626 192.609182 
L 193.175463 193.082797 
L 205.941465 193.907696 
L 215.117543 194.369884 
L 221.163053 194.474152 
L 226.466203 194.356155 
L 231.265418 194.067879 
L 237.920637 193.414221 
L 245.043528 192.462616 
L 254.483001 190.947455 
L 277.363832 187.140583 
L 279.575704 186.85044 
L 279.575704 186.85044 
" style="fill:none;stroke:#000000;stroke-linecap:square;stroke-opacity:0.7;stroke-width:1.2;"/>
   </g>
   <g id="line2d_8">
    <path clip-path="url(#p91868ee1c2)" d="M 280.229378 147.065938 
L 268.321494 145.274714 
L 243.88438 141.869719 
L 233.081271 140.540529 
L 226.998056 139.980145 
L 220.390107 139.628842 
L 215.129193 139.592861 
L 210.193924 139.784531 
L 205.498399 140.181913 
L 200.676056 140.809685 
L 196.521634 141.525309 
L 191.089901 142.708155 
L 186.432128 143.987978 
L 183.436676 145.013271 
L 181.828885 145.683597 
L 180.106255 146.602953 
L 179.207513 147.303003 
L 178.673221 148.211471 
L 178.720759 148.609471 
L 178.980593 148.987425 
L 179.477486 149.336897 
L 180.546446 149.738325 
L 181.821281 150.000172 
L 184.660075 150.254484 
L 187.731396 150.298522 
L 193.667026 150.118433 
L 208.004796 149.574712 
L 235.385191 148.983211 
L 263.223852 147.688966 
L 270.785155 147.715497 
L 277.427215 147.94881 
L 280.237392 148.106719 
L 280.237392 148.106719 
" style="fill:none;stroke:#000000;stroke-linecap:square;stroke-opacity:0.7;stroke-width:1.2;"/>
   </g>
   <g id="line2d_9">
    <path clip-path="url(#p91868ee1c2)" d="M 279.561692 106.64096 
L 275.470364 106.864051 
L 269.456446 106.969969 
L 263.517934 106.833945 
L 257.730216 106.475655 
L 251.969222 105.910549 
L 244.669861 104.945579 
L 222.607497 101.758996 
L 217.512829 101.352764 
L 212.491791 101.165603 
L 207.816023 101.185068 
L 202.482295 101.425756 
L 198.304592 101.770515 
L 193.472341 102.3482 
L 188.457975 103.203359 
L 184.916378 104.053906 
L 182.445367 104.864988 
L 180.422244 105.786909 
L 178.83846 106.881383 
L 178.054785 107.798602 
L 177.675534 108.902094 
L 177.675593 109.229027 
L 177.983296 110.2001 
L 178.484068 110.874205 
L 178.903109 111.273854 
L 180.455561 112.299345 
L 181.120049 112.628306 
L 183.317936 113.487303 
L 186.785558 114.454388 
L 190.67017 115.2474 
L 195.336508 115.971228 
L 201.158331 116.647904 
L 207.692262 117.168372 
L 212.685797 117.386102 
L 217.125391 117.418773 
L 222.362586 117.217874 
L 227.084666 116.784031 
L 231.948046 116.087013 
L 236.725728 115.192755 
L 244.243992 113.516241 
L 260.126559 109.864354 
L 267.161719 108.533969 
L 272.481332 107.74073 
L 277.455697 107.221737 
L 279.572704 107.089327 
L 279.572704 107.089327 
" style="fill:none;stroke:#000000;stroke-linecap:square;stroke-opacity:0.7;stroke-width:1.2;"/>
   </g>
   <g id="line2d_10">
    <path clip-path="url(#p91868ee1c2)" d="M 280.405466 68.433851 
L 275.20024 67.439708 
L 265.792367 65.893918 
L 233.827696 61.032804 
L 227.320043 60.236039 
L 221.727541 59.746242 
L 216.534171 59.500909 
L 211.769101 59.467705 
L 205.898607 59.669288 
L 200.820358 60.048185 
L 196.001758 60.596021 
L 191.624793 61.300843 
L 188.059612 62.098919 
L 186.37352 62.58727 
L 183.807599 63.565061 
L 181.744753 64.756479 
L 180.627397 65.804996 
L 180.081152 66.686791 
L 179.83474 67.620099 
L 179.887717 68.503259 
L 180.254205 69.464708 
L 180.880438 70.336159 
L 181.350781 70.808974 
L 182.534919 71.700771 
L 183.582851 72.292291 
L 184.818098 72.849326 
L 187.125958 73.636783 
L 190.147565 74.366976 
L 193.894288 74.999541 
L 199.688337 75.65031 
L 205.63289 76.086722 
L 213.189993 76.422545 
L 220.519267 76.516487 
L 226.646668 76.375908 
L 232.765428 76.011574 
L 239.522043 75.370209 
L 246.793092 74.463637 
L 257.509519 72.874266 
L 276.639445 69.957711 
L 280.3574 69.527853 
L 280.3574 69.527853 
" style="fill:none;stroke:#000000;stroke-linecap:square;stroke-opacity:0.7;stroke-width:1.2;"/>
   </g>
   <g id="line2d_11">
    <path clip-path="url(#p91868ee1c2)" d="M 412.446364 226.707608 
L 408.045505 226.031687 
L 400.009037 225.024152 
L 379.962943 222.608377 
L 358.396407 219.742458 
L 352.647001 219.317099 
L 347.690077 219.187471 
L 342.579361 219.29129 
L 337.02738 219.650201 
L 331.485067 220.227169 
L 326.237513 220.96032 
L 321.260663 221.844884 
L 316.486541 222.937655 
L 313.03087 223.983801 
L 310.481527 225.04323 
L 309.475112 225.616134 
L 308.587216 226.332797 
L 308.212653 226.872887 
L 308.129973 227.367422 
L 308.257444 227.717125 
L 308.579289 228.059811 
L 309.234079 228.425923 
L 310.146676 228.719459 
L 311.528881 228.973991 
L 314.912652 229.200898 
L 319.891627 229.127212 
L 327.736363 228.701415 
L 339.61514 228.078765 
L 348.66225 227.848081 
L 369.013997 227.450597 
L 392.85836 226.695064 
L 399.141888 226.818657 
L 405.129338 227.168118 
L 411.786339 227.813037 
L 412.425104 227.888082 
L 412.425104 227.888082 
" style="fill:none;stroke:#000000;stroke-linecap:square;stroke-opacity:0.7;stroke-width:1.2;"/>
   </g>
   <g id="line2d_12">
    <path clip-path="url(#p91868ee1c2)" d="M 412.316949 187.86994 
L 405.738003 187.038938 
L 371.175149 183.008704 
L 360.653293 181.67395 
L 354.011073 181.073023 
L 348.289122 180.815991 
L 343.619466 180.801635 
L 337.97375 180.999093 
L 332.454576 181.384982 
L 325.555102 182.116256 
L 320.581393 182.873049 
L 316.690113 183.716243 
L 314.457661 184.397263 
L 312.710003 185.140403 
L 311.650567 185.788272 
L 310.850183 186.568363 
L 310.566835 187.114327 
L 310.514284 187.750153 
L 310.731855 188.317353 
L 311.324625 188.956236 
L 312.297375 189.542827 
L 314.009064 190.153442 
L 315.701115 190.525587 
L 318.351548 190.880813 
L 321.082471 191.091007 
L 327.879071 191.341754 
L 347.452514 191.941617 
L 358.372079 192.216064 
L 366.109439 192.163201 
L 373.504626 191.880387 
L 381.865754 191.335364 
L 399.376578 189.857504 
L 408.669945 189.1696 
L 412.262382 188.969564 
L 412.262382 188.969564 
" style="fill:none;stroke:#000000;stroke-linecap:square;stroke-opacity:0.7;stroke-width:1.2;"/>
   </g>
   <g id="line2d_13">
    <path clip-path="url(#p91868ee1c2)" d="M 412.076644 147.397029 
L 388.173108 145.171372 
L 379.808183 144.151482 
L 372.000262 142.979864 
L 363.284611 141.435673 
L 353.845615 139.77914 
L 348.550091 139.062901 
L 343.826198 138.632899 
L 339.080749 138.424574 
L 334.505497 138.448472 
L 330.15827 138.689339 
L 326.254184 139.106859 
L 323.297711 139.569904 
L 319.119791 140.494922 
L 316.154181 141.412361 
L 313.697855 142.421037 
L 312.045942 143.301071 
L 311.115228 143.913157 
L 310.339321 144.528242 
L 309.051563 146.048706 
L 308.733447 146.844903 
L 308.854153 148.218839 
L 309.124564 148.665098 
L 310.065984 149.491326 
L 310.916788 149.934972 
L 312.720648 150.526417 
L 314.282295 150.844491 
L 317.053604 151.182699 
L 321.20286 151.410445 
L 328.429818 151.503439 
L 339.235192 151.647577 
L 347.4114 152.002305 
L 358.218036 152.489986 
L 364.115716 152.549322 
L 371.128965 152.369331 
L 377.985848 151.955759 
L 385.343284 151.305837 
L 398.528053 149.871512 
L 407.421674 149.000085 
L 412.0656 148.696481 
L 412.0656 148.696481 
" style="fill:none;stroke:#000000;stroke-linecap:square;stroke-opacity:0.7;stroke-width:1.2;"/>
   </g>
   <g id="line2d_14">
    <path clip-path="url(#p91868ee1c2)" d="M 411.497384 106.986855 
L 390.369731 105.572815 
L 359.471687 103.715503 
L 351.105078 103.449516 
L 343.922763 103.459467 
L 337.567368 103.70065 
L 331.646657 104.126097 
L 324.527931 104.89215 
L 318.973335 105.740872 
L 315.56599 106.467542 
L 313.114035 107.220669 
L 311.664684 107.921467 
L 310.976546 108.511101 
L 310.720185 109.110852 
L 310.796058 109.536816 
L 311.089267 109.963818 
L 311.826184 110.520923 
L 312.670533 110.931765 
L 314.593721 111.550297 
L 316.984817 112.03859 
L 320.147192 112.445341 
L 324.362033 112.756037 
L 331.242382 112.98242 
L 345.694127 113.140809 
L 353.547931 113.070199 
L 359.928931 112.789269 
L 367.25701 112.203927 
L 375.736465 111.282684 
L 398.035927 108.711039 
L 405.665088 108.127452 
L 411.461152 107.872962 
L 411.461152 107.872962 
" style="fill:none;stroke:#000000;stroke-linecap:square;stroke-opacity:0.7;stroke-width:1.2;"/>
   </g>
   <g id="line2d_15">
    <path clip-path="url(#p91868ee1c2)" d="M 411.59981 68.596528 
L 393.444918 64.503669 
L 375.631604 60.714538 
L 362.229446 58.042189 
L 354.746162 56.796901 
L 348.926755 56.086558 
L 343.82766 55.717434 
L 339.905483 55.625145 
L 335.091741 55.771803 
L 331.150294 56.130505 
L 327.363472 56.702411 
L 324.377369 57.330051 
L 320.899665 58.288897 
L 318.851974 58.989142 
L 316.451565 59.968738 
L 313.7564 61.338984 
L 311.326227 62.954689 
L 310.017482 64.090267 
L 308.889799 65.385285 
L 308.035376 66.987866 
L 307.845036 67.983661 
L 307.971278 68.912274 
L 308.308733 69.571953 
L 308.525904 69.837382 
L 309.125568 70.341352 
L 310.350127 70.923603 
L 310.973897 71.105833 
L 313.131898 71.436267 
L 315.796198 71.495715 
L 319.92212 71.236096 
L 327.250118 70.395337 
L 336.943945 69.30707 
L 343.028792 68.860764 
L 350.802954 68.594865 
L 390.470526 68.040969 
L 397.608032 68.213301 
L 403.350507 68.565298 
L 409.003829 69.124919 
L 411.605765 69.457605 
L 411.605765 69.457605 
" style="fill:none;stroke:#000000;stroke-linecap:square;stroke-opacity:0.7;stroke-width:1.2;"/>
   </g>
   <g id="line2d_16">
    <path clip-path="url(#p91868ee1c2)" d="M 543.764537 226.620573 
L 539.921855 225.37034 
L 533.963401 223.708661 
L 527.556256 222.161337 
L 519.70035 220.506501 
L 510.186556 218.762268 
L 501.597378 217.390418 
L 493.629633 216.331186 
L 486.773854 215.664421 
L 482.038571 215.388315 
L 477.071808 215.308034 
L 472.727295 215.448732 
L 468.416843 215.807937 
L 464.081917 216.4009 
L 460.545136 217.057005 
L 455.558225 218.246571 
L 451.620894 219.423936 
L 448.848531 220.409609 
L 445.226886 221.986393 
L 442.829816 223.353446 
L 441.32269 224.519188 
L 440.401274 225.57592 
L 439.967534 226.525276 
L 439.911867 226.888765 
L 439.984422 227.526317 
L 440.434425 228.308302 
L 441.015059 228.816192 
L 442.164458 229.417412 
L 443.127984 229.739585 
L 444.002623 229.951551 
L 446.712727 230.323064 
L 449.866241 230.447546 
L 453.450591 230.377469 
L 460.04744 229.977404 
L 477.62797 228.761355 
L 487.568684 228.39135 
L 504.000108 228.11198 
L 538.290309 227.600339 
L 543.7017 227.810853 
L 543.7017 227.810853 
" style="fill:none;stroke:#000000;stroke-linecap:square;stroke-opacity:0.7;stroke-width:1.2;"/>
   </g>
   <g id="line2d_17">
    <path clip-path="url(#p91868ee1c2)" d="M 543.722338 186.841678 
L 530.077502 186.667571 
L 522.699635 186.360509 
L 516.012364 185.882992 
L 508.886969 185.166721 
L 497.626604 183.760875 
L 488.814307 182.731398 
L 483.588633 182.305823 
L 478.092292 182.085268 
L 473.059244 182.100469 
L 467.420192 182.334747 
L 460.453789 182.879614 
L 454.438057 183.566758 
L 449.874482 184.280692 
L 447.101719 184.863504 
L 444.543916 185.609849 
L 443.927932 185.846517 
L 442.326358 186.715124 
L 441.734745 187.315218 
L 441.574162 187.620526 
L 441.505984 188.161707 
L 441.783289 188.815428 
L 442.134727 189.199319 
L 442.931553 189.76335 
L 444.221005 190.362931 
L 447.343909 191.232595 
L 450.374588 191.71632 
L 453.369644 192.005404 
L 457.407417 192.210417 
L 464.482243 192.28336 
L 492.026811 192.019459 
L 499.47306 191.705147 
L 507.736644 191.105761 
L 517.567329 190.132559 
L 534.842943 188.340797 
L 541.995834 187.87202 
L 543.671844 187.811969 
L 543.671844 187.811969 
" style="fill:none;stroke:#000000;stroke-linecap:square;stroke-opacity:0.7;stroke-width:1.2;"/>
   </g>
   <g id="line2d_18">
    <path clip-path="url(#p91868ee1c2)" d="M 543.978802 146.828956 
L 539.86501 145.737161 
L 533.653537 144.329523 
L 524.886903 142.623416 
L 513.44905 140.65583 
L 501.361947 138.778322 
L 494.132012 137.859449 
L 488.066533 137.327623 
L 482.484623 137.110796 
L 477.682349 137.170567 
L 472.983816 137.458929 
L 468.435486 137.945918 
L 462.999295 138.777197 
L 458.622287 139.642253 
L 453.880452 140.811711 
L 450.853206 141.731689 
L 447.687688 142.922178 
L 444.88986 144.326878 
L 443.612168 145.196738 
L 442.22117 146.641001 
L 441.839525 147.554602 
L 441.903225 148.388648 
L 442.144228 148.829346 
L 442.623491 149.302436 
L 443.15455 149.637987 
L 444.138597 150.050171 
L 445.913692 150.487215 
L 448.457946 150.80771 
L 452.246431 150.988814 
L 458.002919 150.981036 
L 473.890098 150.577574 
L 491.675505 150.034159 
L 502.399499 149.426532 
L 527.967956 147.775404 
L 534.161551 147.670136 
L 540.537836 147.813651 
L 543.96447 148.021495 
L 543.96447 148.021495 
" style="fill:none;stroke:#000000;stroke-linecap:square;stroke-opacity:0.7;stroke-width:1.2;"/>
   </g>
   <g id="line2d_19">
    <path clip-path="url(#p91868ee1c2)" d="M 543.868557 108.341892 
L 532.20785 107.020343 
L 490.978564 102.622253 
L 484.477895 102.280288 
L 478.749418 102.213151 
L 473.589296 102.369858 
L 468.092324 102.765701 
L 462.2441 103.422522 
L 455.758366 104.402472 
L 450.430519 105.420323 
L 446.38678 106.399201 
L 443.679764 107.28826 
L 442.661428 107.760467 
L 441.827592 108.390704 
L 441.673931 108.725326 
L 441.7274 108.985173 
L 441.893148 109.182112 
L 442.751487 109.594643 
L 443.491989 109.77501 
L 445.574918 110.029749 
L 449.052767 110.126822 
L 453.495104 110.010227 
L 463.456903 109.455589 
L 472.629849 109.026783 
L 482.228891 108.825908 
L 495.606288 108.546129 
L 521.506182 107.796034 
L 528.772098 107.965574 
L 534.786161 108.340072 
L 540.811712 108.946551 
L 543.83274 109.34809 
L 543.83274 109.34809 
" style="fill:none;stroke:#000000;stroke-linecap:square;stroke-opacity:0.7;stroke-width:1.2;"/>
   </g>
   <g id="line2d_20">
    <path clip-path="url(#p91868ee1c2)" d="M 543.330417 67.031287 
L 534.849594 66.42028 
L 515.628374 65.09535 
L 503.188292 63.931714 
L 491.463075 62.847719 
L 484.08048 62.379241 
L 478.696354 62.229471 
L 473.295342 62.288219 
L 467.676847 62.589959 
L 462.059682 63.136898 
L 456.334616 63.966716 
L 451.953143 64.847067 
L 448.862442 65.670554 
L 447.182481 66.234741 
L 444.953193 67.223892 
L 443.77903 67.99045 
L 443.06874 68.730241 
L 442.772355 69.450733 
L 442.793915 69.897873 
L 443.049278 70.435724 
L 443.536833 70.930392 
L 444.638196 71.58173 
L 446.436108 72.224557 
L 447.980766 72.601124 
L 451.802427 73.206764 
L 456.632518 73.642012 
L 462.532213 73.945157 
L 474.310972 74.282107 
L 483.917237 74.372084 
L 490.294236 74.195035 
L 496.381841 73.772954 
L 502.319569 73.139632 
L 510.541016 72.002414 
L 531.275009 68.936432 
L 537.141898 68.355471 
L 542.689706 68.050799 
L 543.327355 68.034572 
L 543.327355 68.034572 
" style="fill:none;stroke:#000000;stroke-linecap:square;stroke-opacity:0.7;stroke-width:1.2;"/>
   </g>
   <g id="line2d_21">
    <path clip-path="url(#p91868ee1c2)" d="M 675.216643 225.243228 
L 671.479737 224.311157 
L 665.137225 222.930157 
L 654.786842 220.927382 
L 635.794557 217.513669 
L 626.513175 216.028523 
L 620.594662 215.283939 
L 615.743082 214.868536 
L 611.480489 214.696024 
L 607.036333 214.74396 
L 603.108859 214.993861 
L 598.639164 215.510053 
L 594.255015 216.238702 
L 589.489685 217.268506 
L 585.447517 218.351968 
L 582.13741 219.420431 
L 578.548481 220.849471 
L 576.273714 221.991857 
L 574.759068 222.931333 
L 573.600409 223.823534 
L 572.234146 225.349288 
L 571.768433 226.372751 
L 571.684241 227.122902 
L 571.876253 227.920344 
L 572.36902 228.650934 
L 572.91895 229.141119 
L 574.264398 229.903984 
L 575.009357 230.200471 
L 577.845503 230.959324 
L 581.776686 231.547605 
L 586.72985 231.955392 
L 593.620051 232.242394 
L 602.272941 232.372402 
L 611.172837 232.28884 
L 617.217022 232.06126 
L 623.87802 231.601086 
L 630.846503 230.881347 
L 639.54801 229.733055 
L 656.040992 227.492992 
L 662.848874 226.829803 
L 668.845599 226.472857 
L 674.687432 226.369574 
L 675.219423 226.374009 
L 675.219423 226.374009 
" style="fill:none;stroke:#000000;stroke-linecap:square;stroke-opacity:0.7;stroke-width:1.2;"/>
   </g>
   <g id="line2d_22">
    <path clip-path="url(#p91868ee1c2)" d="M 674.741322 185.79889 
L 669.480982 185.068162 
L 660.562054 184.048427 
L 614.47817 179.337648 
L 607.511535 178.815325 
L 602.968479 178.677941 
L 598.407807 178.77661 
L 594.243438 179.100099 
L 589.82946 179.689776 
L 585.262917 180.576904 
L 581.840644 181.45766 
L 578.938217 182.398241 
L 576.918396 183.202312 
L 575.033453 184.123146 
L 573.245149 185.268439 
L 572.538834 185.867669 
L 571.860921 186.637559 
L 571.352921 188.280011 
L 571.428831 188.607698 
L 571.822402 189.290034 
L 572.503951 189.903378 
L 573.365765 190.409511 
L 574.954738 191.042344 
L 577.894333 191.786168 
L 580.179995 192.18231 
L 585.957975 192.853924 
L 592.763537 193.349812 
L 602.109193 193.765518 
L 609.314164 193.881003 
L 615.14602 193.786092 
L 621.012768 193.480786 
L 627.316658 192.925256 
L 635.129719 191.992429 
L 648.096891 190.165889 
L 664.005016 187.967399 
L 671.368577 187.147313 
L 674.781971 186.884993 
L 674.781971 186.884993 
" style="fill:none;stroke:#000000;stroke-linecap:square;stroke-opacity:0.7;stroke-width:1.2;"/>
   </g>
   <g id="line2d_23">
    <path clip-path="url(#p91868ee1c2)" d="M 675.21852 147.778245 
L 666.657911 146.750457 
L 648.52992 144.876451 
L 630.998684 142.964714 
L 619.953016 141.824441 
L 613.482535 141.400264 
L 608.216357 141.276271 
L 601.862179 141.425959 
L 596.768983 141.783711 
L 592.380096 142.257015 
L 587.643218 142.942182 
L 583.834105 143.650131 
L 580.241897 144.527254 
L 578.239954 145.19205 
L 576.164247 146.206075 
L 575.21346 146.959596 
L 574.503797 148.061565 
L 574.405764 148.611889 
L 574.505777 149.295178 
L 575.033618 150.207936 
L 575.792106 150.916648 
L 576.294531 151.263953 
L 577.696333 151.993592 
L 579.8658 152.764576 
L 582.27927 153.357161 
L 584.944899 153.824087 
L 588.302368 154.238286 
L 594.484039 154.708042 
L 601.856187 155.011618 
L 611.088417 155.171911 
L 618.115389 155.10253 
L 625.340687 154.788788 
L 631.913622 154.280553 
L 640.376762 153.373743 
L 651.829009 151.877227 
L 669.307134 149.566689 
L 675.290587 148.970116 
L 675.290587 148.970116 
" style="fill:none;stroke:#000000;stroke-linecap:square;stroke-opacity:0.7;stroke-width:1.2;"/>
   </g>
   <g id="line2d_24">
    <path clip-path="url(#p91868ee1c2)" d="M 673.600955 106.655032 
L 665.728182 105.865681 
L 655.715184 104.639482 
L 645.538761 103.188052 
L 630.172661 100.729985 
L 620.331672 99.239376 
L 615.062617 98.625885 
L 610.319794 98.270835 
L 606.091017 98.155776 
L 601.137654 98.29363 
L 597.860342 98.550999 
L 593.53535 99.087323 
L 589.936832 99.697187 
L 585.510386 100.650988 
L 581.514829 101.731468 
L 578.541542 102.720425 
L 575.644965 103.934592 
L 574.323379 104.633242 
L 572.374174 106.046855 
L 571.656195 106.902737 
L 571.311248 108.508567 
L 571.416897 108.818491 
L 571.649339 109.213829 
L 572.267834 109.828369 
L 572.901721 110.239934 
L 574.705426 110.983919 
L 575.713712 111.26377 
L 578.480425 111.787098 
L 582.275195 112.197337 
L 587.585692 112.506855 
L 599.359604 112.879705 
L 612.617865 113.142057 
L 619.560323 113.046377 
L 625.919966 112.689039 
L 630.67162 112.245427 
L 637.69799 111.379042 
L 663.563021 107.898227 
L 669.408751 107.398051 
L 673.595427 107.24526 
L 673.595427 107.24526 
" style="fill:none;stroke:#000000;stroke-linecap:square;stroke-opacity:0.7;stroke-width:1.2;"/>
   </g>
   <g id="line2d_25">
    <path clip-path="url(#p91868ee1c2)" d="M 675.490909 68.163277 
L 666.680318 67.168566 
L 649.010719 65.180537 
L 639.260278 63.831798 
L 616.19925 60.416086 
L 611.043338 59.961658 
L 606.552298 59.776738 
L 603.22825 59.789166 
L 599.274099 59.983265 
L 594.836701 60.438551 
L 591.02813 61.027378 
L 586.520801 61.958118 
L 582.347646 63.056802 
L 579.278838 64.034048 
L 575.351713 65.57694 
L 572.940554 66.806011 
L 571.61429 67.692319 
L 571.097118 68.140547 
L 570.484844 69.031078 
L 570.466068 69.349022 
L 570.7092 69.732531 
L 571.049508 69.927944 
L 571.961501 70.145321 
L 573.63513 70.206081 
L 576.149334 70.023935 
L 581.380993 69.313363 
L 593.265284 67.600195 
L 598.639136 67.044506 
L 604.452864 66.663095 
L 610.653164 66.48851 
L 618.755259 66.484677 
L 654.948817 66.857976 
L 660.920793 67.250676 
L 666.140785 67.783204 
L 672.268606 68.622872 
L 675.449137 69.134136 
L 675.449137 69.134136 
" style="fill:none;stroke:#000000;stroke-linecap:square;stroke-opacity:0.7;stroke-width:1.2;"/>
   </g>
  </g>
 </g>
 <defs>
  <clipPath id="p91868ee1c2">
   <rect height="262.08" width="694.08" x="12.96" y="12.96"/>
  </clipPath>
 </defs>
</svg>
