<?xml version="1.0" encoding="utf-8" standalone="no"?>
<!DOCTYPE svg PUBLIC "-//W3C//DTD SVG 1.1//EN"
  "http://www.w3.org/Graphics/SVG/1.1/DTD/svg11.dtd">
<!-- Created with matplotlib (https://matplotlib.org/) -->
<svg height="288pt" version="1.1" viewBox="0 0 720 288" width="720pt" xmlns="http://www.w3.org/2000/svg" xmlns:xlink="http://www.w3.org/1999/xlink">
 <metadata>
  <rdf:RDF xmlns:cc="http://creativecommons.org/ns#" xmlns:dc="http://purl.org/dc/elements/1.1/" xmlns:rdf="http://www.w3.org/1999/02/22-rdf-syntax-ns#">
   <cc:Work>
    <dc:type rdf:resource="http://purl.org/dc/dcmitype/StillImage"/>
    <dc:date>2021-05-06T01:05:43.473643</dc:date>
    <dc:format>image/svg+xml</dc:format>
    <dc:creator>
     <cc:Agent>
      <dc:title>Matplotlib v3.3.4, https://matplotlib.org/</dc:title>
     </cc:Agent>
    </dc:creator>
   </cc:Work>
  </rdf:RDF>
 </metadata>
 <defs>
  <style type="text/css">*{stroke-linecap:butt;stroke-linejoin:round;}</style>
 </defs>
 <g id="figure_1">
  <g id="patch_1">
   <path d="M 0 288 
L 720 288 
L 720 0 
L 0 0 
z
" style="fill:#ffffff;"/>
  </g>
  <g id="axes_1">
   <g id="line2d_1">
    <path clip-path="url(#pa0a20fc85e)" d="M 113.942869 229.634257 
L 109.082947 227.697911 
L 104.035048 225.888943 
L 98.925686 224.302917 
L 93.844946 222.955326 
L 88.181249 221.697173 
L 83.137998 220.82736 
L 79.366337 220.396628 
L 75.844255 220.223028 
L 72.613496 220.283862 
L 69.20858 220.573168 
L 65.592884 221.111529 
L 62.250555 221.801286 
L 58.060246 222.916406 
L 54.490638 224.10546 
L 51.401081 225.364962 
L 48.76299 226.702875 
L 46.943398 227.882647 
L 45.578843 229.077319 
L 44.796656 230.140819 
L 44.509091 231.091762 
L 44.598478 231.71791 
L 44.876513 232.200797 
L 45.311777 232.610769 
L 46.076146 233.04971 
L 48.002176 233.643656 
L 50.215081 233.990439 
L 53.454298 234.238666 
L 57.966297 234.346357 
L 64.077996 234.246879 
L 69.892489 233.908045 
L 75.11078 233.363288 
L 81.967774 232.381881 
L 91.938169 230.932038 
L 98.227493 230.266223 
L 103.692985 229.917649 
L 108.482928 229.803512 
L 113.883191 229.915634 
L 113.937337 229.918227 
L 113.937337 229.918227 
" style="fill:none;stroke:#000000;stroke-linecap:square;stroke-opacity:0.7;stroke-width:1.2;"/>
   </g>
   <g id="line2d_2">
    <path clip-path="url(#pa0a20fc85e)" d="M 114.28338 205.030331 
L 86.057914 202.34894 
L 79.91808 202.06445 
L 74.482104 202.062053 
L 69.046908 202.319656 
L 63.560824 202.804128 
L 57.862281 203.524684 
L 53.063485 204.358301 
L 49.441529 205.226303 
L 47.16259 205.983535 
L 45.886468 206.587002 
L 45.267664 207.077335 
L 45.166317 207.410392 
L 45.299071 207.59947 
L 45.531673 207.734129 
L 46.031748 207.886711 
L 48.013867 208.106792 
L 51.765035 208.160699 
L 60.063853 207.963427 
L 72.300116 207.453895 
L 83.392397 206.744219 
L 98.939457 205.757751 
L 107.227034 205.475353 
L 114.267969 205.45828 
L 114.267969 205.45828 
" style="fill:none;stroke:#000000;stroke-linecap:square;stroke-opacity:0.7;stroke-width:1.2;"/>
   </g>
   <g id="line2d_3">
    <path clip-path="url(#pa0a20fc85e)" d="M 114.400459 181.284699 
L 95.263491 177.564214 
L 88.622539 176.492174 
L 83.117914 175.838904 
L 78.499443 175.503276 
L 73.297625 175.362953 
L 68.720017 175.445877 
L 64.474876 175.724517 
L 60.584566 176.200411 
L 57.540166 176.758838 
L 54.623801 177.48406 
L 51.625041 178.481405 
L 49.384552 179.465676 
L 47.784887 180.37702 
L 46.685889 181.202119 
L 45.977333 181.954645 
L 45.615388 182.616544 
L 45.5623 183.313365 
L 45.729869 183.716237 
L 46.158938 184.176414 
L 46.741839 184.543974 
L 47.749143 184.957584 
L 49.738049 185.466406 
L 52.46904 185.900984 
L 56.242905 186.285702 
L 61.857705 186.620701 
L 67.36975 186.73523 
L 72.164812 186.624749 
L 76.767161 186.296238 
L 82.258793 185.660539 
L 91.523666 184.304198 
L 101.492255 182.913497 
L 107.923505 182.233184 
L 114.37994 181.771305 
L 114.37994 181.771305 
" style="fill:none;stroke:#000000;stroke-linecap:square;stroke-opacity:0.7;stroke-width:1.2;"/>
   </g>
   <g id="line2d_4">
    <path clip-path="url(#pa0a20fc85e)" d="M 114.431117 156.764518 
L 86.002355 153.167385 
L 79.593257 152.679572 
L 73.611719 152.476225 
L 68.438146 152.510292 
L 63.706093 152.742409 
L 60.175542 153.088407 
L 56.747671 153.622466 
L 53.858936 154.280886 
L 51.814658 154.907514 
L 49.282776 155.96946 
L 47.933908 156.761387 
L 47.073935 157.445073 
L 46.392164 158.288608 
L 46.184598 159.018196 
L 46.248211 159.386964 
L 46.626434 159.937874 
L 47.089816 160.279325 
L 48.595874 160.889277 
L 51.02816 161.405472 
L 54.191316 161.796279 
L 59.548932 162.180959 
L 65.515043 162.388699 
L 71.067846 162.376939 
L 75.858324 162.161986 
L 81.465318 161.670715 
L 88.737507 160.775946 
L 101.928407 158.854648 
L 110.545252 157.706679 
L 114.408579 157.281865 
L 114.408579 157.281865 
" style="fill:none;stroke:#000000;stroke-linecap:square;stroke-opacity:0.7;stroke-width:1.2;"/>
   </g>
   <g id="line2d_5">
    <path clip-path="url(#pa0a20fc85e)" d="M 114.340126 134.413795 
L 105.725208 132.630208 
L 96.842704 130.861433 
L 91.373173 129.987005 
L 85.994152 129.363699 
L 81.286751 129.033436 
L 75.904823 128.889058 
L 69.435038 128.966292 
L 62.52032 129.292415 
L 58.621898 129.662622 
L 55.019958 130.224634 
L 52.161005 130.900002 
L 49.60634 131.768571 
L 47.980911 132.532238 
L 46.970751 133.151672 
L 45.97454 133.992237 
L 45.430978 134.767958 
L 45.305481 135.519145 
L 45.43244 135.890564 
L 45.868747 136.381787 
L 46.091386 136.538256 
L 47.636085 137.179015 
L 49.590859 137.619653 
L 52.776718 138.079112 
L 58.476307 138.627949 
L 64.730625 138.988922 
L 69.697132 139.061327 
L 74.29205 138.910216 
L 79.141417 138.50409 
L 84.780735 137.783202 
L 97.008607 136.138397 
L 104.088445 135.466801 
L 111.94837 134.954656 
L 114.343391 134.838491 
L 114.343391 134.838491 
" style="fill:none;stroke:#000000;stroke-linecap:square;stroke-opacity:0.7;stroke-width:1.2;"/>
   </g>
   <g id="line2d_6">
    <path clip-path="url(#pa0a20fc85e)" d="M 114.445391 108.681597 
L 97.346384 107.060126 
L 87.010719 106.143792 
L 79.553997 105.706196 
L 72.499932 105.505854 
L 66.432083 105.539314 
L 62.063987 105.78047 
L 57.992127 106.25198 
L 54.505459 106.891767 
L 51.115144 107.772583 
L 48.477012 108.695907 
L 46.372542 109.67923 
L 45.147818 110.509125 
L 44.825968 110.927696 
L 44.864316 111.178891 
L 45.067299 111.295547 
L 45.765351 111.369361 
L 47.485529 111.208263 
L 51.895866 110.447868 
L 59.616439 109.144414 
L 65.188308 108.41555 
L 70.30281 107.930118 
L 76.985379 107.534556 
L 84.611939 107.334006 
L 91.956573 107.372746 
L 98.591174 107.635156 
L 105.459048 108.139131 
L 112.463802 108.883753 
L 114.429219 109.138346 
L 114.429219 109.138346 
" style="fill:none;stroke:#000000;stroke-linecap:square;stroke-opacity:0.7;stroke-width:1.2;"/>
   </g>
   <g id="line2d_7">
    <path clip-path="url(#pa0a20fc85e)" d="M 113.666102 85.338495 
L 99.806196 83.2208 
L 91.936861 82.242326 
L 85.675055 81.672435 
L 80.156516 81.395915 
L 75.176396 81.378473 
L 69.513824 81.619258 
L 63.371726 82.127099 
L 58.056742 82.794465 
L 53.989657 83.519669 
L 50.537747 84.360962 
L 48.226253 85.112045 
L 46.361121 85.927886 
L 45.35296 86.566478 
L 44.882633 87.123837 
L 44.914595 87.469204 
L 45.263704 87.710048 
L 46.161905 87.897757 
L 48.23662 87.949117 
L 52.520729 87.733209 
L 66.835771 86.928335 
L 79.7635 86.190493 
L 91.284418 85.538778 
L 98.72519 85.342135 
L 105.248832 85.373547 
L 112.194511 85.639058 
L 113.659869 85.731744 
L 113.659869 85.731744 
" style="fill:none;stroke:#000000;stroke-linecap:square;stroke-opacity:0.7;stroke-width:1.2;"/>
   </g>
   <g id="line2d_8">
    <path clip-path="url(#pa0a20fc85e)" d="M 113.586449 61.908997 
L 103.251436 58.123542 
L 98.395549 56.553465 
L 92.31742 54.850356 
L 86.646222 53.523836 
L 82.494353 52.744741 
L 79.024797 52.264264 
L 75.741725 51.996088 
L 72.292206 51.940187 
L 68.984235 52.105774 
L 65.80501 52.451037 
L 62.28994 53.02709 
L 58.378252 53.908625 
L 55.581296 54.720729 
L 52.586597 55.823487 
L 50.30796 56.911126 
L 48.864107 57.780971 
L 47.548137 58.776401 
L 46.46644 59.851769 
L 45.869801 60.644863 
L 45.241736 61.983039 
L 45.125693 62.726106 
L 45.209228 63.385481 
L 45.349262 63.731412 
L 45.697074 64.203599 
L 46.273124 64.640158 
L 47.246846 65.048485 
L 49.003701 65.398357 
L 51.14712 65.558336 
L 54.973721 65.565388 
L 60.735476 65.31346 
L 68.630287 64.730774 
L 81.14411 63.53821 
L 92.188099 62.575059 
L 99.239306 62.196778 
L 105.30371 62.083791 
L 111.657485 62.194518 
L 113.586303 62.280434 
L 113.586303 62.280434 
" style="fill:none;stroke:#000000;stroke-linecap:square;stroke-opacity:0.7;stroke-width:1.2;"/>
   </g>
   <g id="line2d_9">
    <path clip-path="url(#pa0a20fc85e)" d="M 194.362935 229.104653 
L 186.859638 227.08313 
L 180.612349 225.620845 
L 174.910481 224.504781 
L 169.512212 223.657857 
L 164.690323 223.113226 
L 160.383583 222.851043 
L 156.539455 222.831475 
L 151.970331 223.05429 
L 146.570927 223.559355 
L 140.791152 224.317787 
L 136.82476 225.021219 
L 133.341144 225.874395 
L 130.875778 226.716494 
L 128.760186 227.708001 
L 127.174035 228.727418 
L 126.261471 229.513317 
L 125.587171 230.317946 
L 125.203955 231.216243 
L 125.233564 231.684415 
L 125.466457 232.074836 
L 125.88118 232.379193 
L 126.690019 232.673757 
L 128.07459 232.898157 
L 130.715138 233.013789 
L 134.682984 232.935858 
L 142.383103 232.518307 
L 152.40708 231.737819 
L 162.720349 230.694161 
L 174.292639 229.536834 
L 180.394733 229.18065 
L 185.942772 229.097438 
L 191.322373 229.25853 
L 194.353611 229.466689 
L 194.353611 229.466689 
" style="fill:none;stroke:#000000;stroke-linecap:square;stroke-opacity:0.7;stroke-width:1.2;"/>
   </g>
   <g id="line2d_10">
    <path clip-path="url(#pa0a20fc85e)" d="M 194.480696 205.050937 
L 182.08917 202.556535 
L 158.948188 198.10254 
L 154.005306 197.517232 
L 149.780099 197.237672 
L 145.410468 197.1797 
L 141.444113 197.373928 
L 138.310219 197.755676 
L 135.271652 198.403488 
L 133.005997 199.134797 
L 130.83171 200.106504 
L 129.717449 200.734158 
L 127.591853 202.256355 
L 126.195903 203.600639 
L 125.081151 205.121526 
L 124.64014 206.275955 
L 124.642889 206.918427 
L 124.92522 207.482931 
L 125.515438 207.915373 
L 126.547886 208.243632 
L 128.34377 208.452185 
L 131.019758 208.493631 
L 137.414431 208.268399 
L 151.339715 207.722544 
L 172.490684 207.091606 
L 180.934878 206.516524 
L 194.461598 205.557199 
L 194.461598 205.557199 
" style="fill:none;stroke:#000000;stroke-linecap:square;stroke-opacity:0.7;stroke-width:1.2;"/>
   </g>
   <g id="line2d_11">
    <path clip-path="url(#pa0a20fc85e)" d="M 194.364461 182.648764 
L 186.779488 181.564225 
L 172.79044 179.523582 
L 165.721736 178.710824 
L 159.643448 178.244471 
L 154.439395 178.090058 
L 149.551178 178.169685 
L 143.91105 178.50538 
L 138.335192 179.069954 
L 133.422773 179.791972 
L 129.757154 180.554345 
L 127.351965 181.27321 
L 126.28264 181.726781 
L 125.326819 182.372141 
L 125.075083 182.811503 
L 125.152518 183.179589 
L 125.382235 183.427311 
L 125.654251 183.606182 
L 126.657871 184.003926 
L 128.799227 184.473363 
L 132.698368 184.981562 
L 139.278697 185.560291 
L 146.096334 185.970804 
L 151.607053 186.09151 
L 156.173895 185.988926 
L 161.678559 185.636863 
L 170.816808 184.766186 
L 181.172571 183.829251 
L 191.305504 183.161831 
L 194.359774 183.004733 
L 194.359774 183.004733 
" style="fill:none;stroke:#000000;stroke-linecap:square;stroke-opacity:0.7;stroke-width:1.2;"/>
   </g>
   <g id="line2d_12">
    <path clip-path="url(#pa0a20fc85e)" d="M 194.42068 157.487775 
L 188.497856 155.236942 
L 183.701851 153.621162 
L 178.339666 152.067009 
L 173.074699 150.780979 
L 167.736554 149.715135 
L 163.183647 149.028317 
L 159.305972 148.646413 
L 155.814143 148.491947 
L 152.392374 148.52893 
L 148.69204 148.781288 
L 144.91895 149.264831 
L 141.145122 149.98529 
L 138.201965 150.72989 
L 135.26654 151.665049 
L 132.31453 152.863623 
L 129.771545 154.212615 
L 128.066771 155.402229 
L 126.888816 156.49327 
L 126.016804 157.687383 
L 125.679468 158.651893 
L 125.692189 159.277026 
L 125.886461 159.777946 
L 126.059691 160.020439 
L 126.500771 160.420571 
L 126.997278 160.71566 
L 128.667546 161.279284 
L 130.256539 161.563857 
L 132.802452 161.812038 
L 137.231059 161.976234 
L 143.176747 161.95044 
L 148.637191 161.737467 
L 154.939942 161.246844 
L 163.335026 160.322532 
L 177.454557 158.767784 
L 183.985056 158.266909 
L 190.304594 157.998228 
L 194.407118 157.966179 
L 194.407118 157.966179 
" style="fill:none;stroke:#000000;stroke-linecap:square;stroke-opacity:0.7;stroke-width:1.2;"/>
   </g>
   <g id="line2d_13">
    <path clip-path="url(#pa0a20fc85e)" d="M 194.383534 134.271996 
L 181.0767 131.068549 
L 172.843236 129.333831 
L 166.198388 128.132936 
L 159.694105 127.180825 
L 154.337671 126.602711 
L 149.71122 126.29373 
L 145.668128 126.226178 
L 142.128671 126.385332 
L 139.335652 126.697564 
L 136.545601 127.209767 
L 133.580763 128.017817 
L 131.625342 128.731553 
L 129.431061 129.751571 
L 127.358499 131.015957 
L 125.890529 132.224567 
L 125.28861 132.883444 
L 124.62658 134.011681 
L 124.518746 134.560779 
L 124.561663 134.956142 
L 124.824562 135.463496 
L 125.530208 136.01161 
L 126.535383 136.399468 
L 128.249527 136.739972 
L 131.190352 136.983256 
L 134.912051 137.055975 
L 143.319035 136.921071 
L 171.358605 136.14233 
L 184.718648 135.250463 
L 194.375841 134.706215 
L 194.375841 134.706215 
" style="fill:none;stroke:#000000;stroke-linecap:square;stroke-opacity:0.7;stroke-width:1.2;"/>
   </g>
   <g id="line2d_14">
    <path clip-path="url(#pa0a20fc85e)" d="M 194.262194 109.813222 
L 188.480731 109.463258 
L 179.45922 108.663449 
L 170.177422 107.897056 
L 164.194239 107.641847 
L 159.498587 107.656422 
L 154.363852 107.900558 
L 143.344308 108.767124 
L 133.283296 109.606999 
L 129.408703 110.159871 
L 127.449273 110.613427 
L 126.197645 111.11038 
L 125.873024 111.362427 
L 125.752709 111.66975 
L 125.898864 111.932778 
L 126.330516 112.215555 
L 127.476455 112.615838 
L 129.657637 113.075085 
L 133.823859 113.64109 
L 139.18349 114.122873 
L 144.746819 114.411098 
L 149.670745 114.453662 
L 154.181472 114.271672 
L 158.897711 113.849877 
L 164.922371 113.065287 
L 178.322985 111.220311 
L 184.513566 110.62467 
L 190.562517 110.247277 
L 194.250236 110.126812 
L 194.250236 110.126812 
" style="fill:none;stroke:#000000;stroke-linecap:square;stroke-opacity:0.7;stroke-width:1.2;"/>
   </g>
   <g id="line2d_15">
    <path clip-path="url(#pa0a20fc85e)" d="M 194.15136 85.240721 
L 185.976757 84.184812 
L 162.798907 80.993484 
L 157.335728 80.5759 
L 150.896541 80.336834 
L 144.893497 80.339695 
L 141.141633 80.503427 
L 137.997107 80.809978 
L 134.692441 81.389963 
L 132.58004 81.954706 
L 130.483772 82.720109 
L 128.748187 83.569653 
L 127.242671 84.568921 
L 126.322758 85.452269 
L 125.906755 86.115098 
L 125.791374 86.66818 
L 125.931661 87.143978 
L 126.44437 87.634724 
L 127.296449 88.016667 
L 128.661148 88.346609 
L 130.519877 88.596565 
L 134.591481 88.857025 
L 141.589463 88.981099 
L 148.778463 88.884408 
L 156.400098 88.547181 
L 168.928761 87.695823 
L 182.960424 86.539607 
L 194.181412 85.596151 
L 194.181412 85.596151 
" style="fill:none;stroke:#000000;stroke-linecap:square;stroke-opacity:0.7;stroke-width:1.2;"/>
   </g>
   <g id="line2d_16">
    <path clip-path="url(#pa0a20fc85e)" d="M 194.465001 60.846109 
L 188.57929 60.437613 
L 181.851783 59.735903 
L 162.511032 57.451566 
L 157.507267 57.192862 
L 152.063779 57.132705 
L 146.751315 57.27128 
L 141.647707 57.627896 
L 137.549922 58.150392 
L 134.197802 58.800646 
L 131.459859 59.534501 
L 129.46342 60.229337 
L 127.775291 60.977335 
L 126.396149 61.796953 
L 125.621866 62.511408 
L 125.407027 62.939005 
L 125.417639 63.247379 
L 125.688918 63.601025 
L 126.032739 63.800613 
L 127.210363 64.134949 
L 129.062574 64.357536 
L 132.599463 64.48894 
L 138.52481 64.429537 
L 146.491899 64.116827 
L 154.804558 63.57192 
L 177.320089 61.950017 
L 188.066688 61.417003 
L 194.446033 61.298576 
L 194.446033 61.298576 
" style="fill:none;stroke:#000000;stroke-linecap:square;stroke-opacity:0.7;stroke-width:1.2;"/>
   </g>
   <g id="line2d_17">
    <path clip-path="url(#pa0a20fc85e)" d="M 274.244243 229.377347 
L 263.636591 228.084516 
L 249.981591 226.435587 
L 243.554492 225.915863 
L 237.94288 225.717705 
L 232.782679 225.746196 
L 226.215682 225.991886 
L 220.998683 226.368217 
L 216.988737 226.85518 
L 213.45761 227.520964 
L 211.77115 227.954281 
L 209.213896 228.830178 
L 207.655518 229.577788 
L 206.576278 230.301256 
L 205.854137 231.100681 
L 205.685597 231.614577 
L 205.731305 231.949957 
L 206.029548 232.384295 
L 206.614914 232.773771 
L 208.171937 233.293758 
L 210.410992 233.678627 
L 214.011031 234.008992 
L 219.678038 234.253753 
L 226.290137 234.299261 
L 231.958997 234.12131 
L 237.051669 233.758701 
L 244.223846 232.98058 
L 267.011751 230.258274 
L 274.257321 229.731815 
L 274.257321 229.731815 
" style="fill:none;stroke:#000000;stroke-linecap:square;stroke-opacity:0.7;stroke-width:1.2;"/>
   </g>
   <g id="line2d_18">
    <path clip-path="url(#pa0a20fc85e)" d="M 274.513049 206.205922 
L 246.212571 200.959658 
L 240.574921 200.246939 
L 235.636331 199.844336 
L 231.556775 199.690255 
L 227.450474 199.721795 
L 223.66754 199.949236 
L 220.478889 200.316019 
L 217.050488 200.917395 
L 213.921533 201.686908 
L 211.216192 202.568177 
L 208.976962 203.513985 
L 207.361166 204.397822 
L 206.11999 205.315814 
L 205.491489 206.003922 
L 205.166871 206.687473 
L 205.180616 207.229653 
L 205.443094 207.68179 
L 205.848352 208.020579 
L 206.456044 208.337049 
L 208.121509 208.830805 
L 210.092827 209.153646 
L 214.020463 209.490714 
L 219.597714 209.685645 
L 225.992876 209.691284 
L 232.447735 209.469162 
L 238.80307 209.038927 
L 250.864284 207.943158 
L 260.907626 207.12055 
L 268.609494 206.740277 
L 274.495845 206.63574 
L 274.495845 206.63574 
" style="fill:none;stroke:#000000;stroke-linecap:square;stroke-opacity:0.7;stroke-width:1.2;"/>
   </g>
   <g id="line2d_19">
    <path clip-path="url(#pa0a20fc85e)" d="M 274.778402 181.642433 
L 269.155017 179.662543 
L 263.413385 177.895065 
L 257.606223 176.368031 
L 251.597044 175.030119 
L 246.36538 174.067344 
L 241.86534 173.41671 
L 236.668691 172.90736 
L 231.958704 172.69606 
L 228.058033 172.725466 
L 224.485993 172.949977 
L 221.030164 173.393966 
L 218.304142 173.941571 
L 215.684264 174.673231 
L 213.017236 175.682134 
L 211.122157 176.612474 
L 209.168087 177.834615 
L 207.634975 179.087041 
L 206.628168 180.179315 
L 205.956222 181.217466 
L 205.608375 182.248296 
L 205.616497 182.99803 
L 205.788239 183.495675 
L 206.06555 183.907524 
L 206.794517 184.518816 
L 207.814465 185.019612 
L 208.942285 185.388339 
L 211.294264 185.891266 
L 214.612204 186.33693 
L 220.02965 186.800169 
L 227.442089 187.186736 
L 234.087364 187.325532 
L 238.831386 187.256857 
L 244.080716 186.978633 
L 249.638492 186.445709 
L 255.266999 185.682669 
L 263.3845 184.320969 
L 274.785806 182.242001 
L 274.785806 182.242001 
" style="fill:none;stroke:#000000;stroke-linecap:square;stroke-opacity:0.7;stroke-width:1.2;"/>
   </g>
   <g id="line2d_20">
    <path clip-path="url(#pa0a20fc85e)" d="M 274.545777 158.001279 
L 257.482571 155.336935 
L 250.2712 154.531445 
L 243.479141 154.008248 
L 237.741663 153.78694 
L 232.726573 153.78063 
L 226.257198 154.013287 
L 220.502156 154.457845 
L 216.184983 155.002198 
L 212.40537 155.70683 
L 209.664817 156.422698 
L 207.318754 157.270474 
L 205.909461 158.012265 
L 205.361964 158.502363 
L 205.30789 158.843454 
L 205.551498 159.025458 
L 206.039494 159.140332 
L 207.124628 159.196241 
L 209.807651 159.087885 
L 218.30678 158.639799 
L 223.996092 158.565327 
L 231.211324 158.718607 
L 241.567736 158.954489 
L 249.364163 158.862076 
L 270.962202 158.381613 
L 274.564841 158.422254 
L 274.564841 158.422254 
" style="fill:none;stroke:#000000;stroke-linecap:square;stroke-opacity:0.7;stroke-width:1.2;"/>
   </g>
   <g id="line2d_21">
    <path clip-path="url(#pa0a20fc85e)" d="M 274.099863 134.091626 
L 252.178446 129.394818 
L 245.477645 128.328209 
L 239.669976 127.644297 
L 235.0345 127.299879 
L 230.262568 127.161449 
L 226.098151 127.246761 
L 222.242561 127.534541 
L 218.703999 128.020485 
L 215.553148 128.681926 
L 213.096952 129.393906 
L 210.756768 130.293917 
L 208.736131 131.332584 
L 207.607321 132.085659 
L 206.680643 132.876045 
L 205.853323 133.926587 
L 205.606576 134.616188 
L 205.634581 135.12313 
L 205.827043 135.502935 
L 206.200603 135.849488 
L 206.729299 136.130835 
L 208.101513 136.510559 
L 210.163072 136.754591 
L 213.222808 136.867381 
L 218.36954 136.814817 
L 226.264257 136.486564 
L 236.707568 135.790643 
L 251.605259 134.800525 
L 259.806092 134.473614 
L 267.193463 134.37691 
L 274.10705 134.487165 
L 274.10705 134.487165 
" style="fill:none;stroke:#000000;stroke-linecap:square;stroke-opacity:0.7;stroke-width:1.2;"/>
   </g>
   <g id="line2d_22">
    <path clip-path="url(#pa0a20fc85e)" d="M 274.188254 109.626897 
L 266.02274 108.983273 
L 248.308714 107.504465 
L 241.759536 107.243966 
L 235.959253 107.257704 
L 229.163344 107.516148 
L 219.497588 108.113255 
L 214.106515 108.652626 
L 210.188351 109.281434 
L 207.534183 109.95905 
L 206.057235 110.563661 
L 205.329828 111.11864 
L 205.215011 111.506666 
L 205.388919 111.787235 
L 205.768235 112.029583 
L 207.268867 112.471032 
L 209.33175 112.781792 
L 213.831679 113.158673 
L 220.707728 113.455518 
L 227.165342 113.526548 
L 233.276516 113.370443 
L 240.015075 112.948372 
L 249.175403 112.114072 
L 267.381549 110.384666 
L 274.194078 109.977549 
L 274.194078 109.977549 
" style="fill:none;stroke:#000000;stroke-linecap:square;stroke-opacity:0.7;stroke-width:1.2;"/>
   </g>
   <g id="line2d_23">
    <path clip-path="url(#pa0a20fc85e)" d="M 274.376989 86.096172 
L 268.974944 85.69842 
L 260.79905 84.857276 
L 246.869964 83.400954 
L 239.834694 82.921878 
L 233.062519 82.704418 
L 226.145022 82.701756 
L 220.450229 82.895347 
L 215.810035 83.270072 
L 211.712761 83.859683 
L 209.006609 84.455573 
L 206.924686 85.100091 
L 205.356504 85.803316 
L 204.664084 86.29964 
L 204.417703 86.706207 
L 204.504042 86.988477 
L 204.677843 87.133292 
L 205.155649 87.332878 
L 206.930493 87.620857 
L 210.592389 87.812339 
L 229.791266 88.25711 
L 236.917423 88.29481 
L 243.974648 88.092776 
L 252.493579 87.587148 
L 269.490088 86.544798 
L 274.380032 86.336566 
L 274.380032 86.336566 
" style="fill:none;stroke:#000000;stroke-linecap:square;stroke-opacity:0.7;stroke-width:1.2;"/>
   </g>
   <g id="line2d_24">
    <path clip-path="url(#pa0a20fc85e)" d="M 274.709627 61.088285 
L 267.231257 60.495367 
L 254.817686 59.238716 
L 243.813319 58.192225 
L 236.137697 57.671687 
L 229.990413 57.442478 
L 225.3454 57.45807 
L 221.517096 57.666207 
L 218.360026 58.009099 
L 214.824898 58.609831 
L 211.868445 59.321177 
L 209.30316 60.138334 
L 207.445738 60.902815 
L 206.157591 61.596899 
L 205.363129 62.248844 
L 205.213134 62.615189 
L 205.310983 62.806098 
L 205.801506 63.019274 
L 206.810754 63.123893 
L 208.996357 63.072538 
L 215.220898 62.573606 
L 224.879435 61.835444 
L 231.298511 61.55571 
L 240.879331 61.408556 
L 266.272248 61.217474 
L 272.884582 61.46911 
L 274.710999 61.577766 
L 274.710999 61.577766 
" style="fill:none;stroke:#000000;stroke-linecap:square;stroke-opacity:0.7;stroke-width:1.2;"/>
   </g>
   <g id="line2d_25">
    <path clip-path="url(#pa0a20fc85e)" d="M 354.890705 228.821945 
L 345.654638 227.249076 
L 330.675346 224.890568 
L 325.02272 224.210988 
L 320.16274 223.850904 
L 315.482469 223.729299 
L 310.789339 223.809102 
L 305.583101 224.128351 
L 301.159315 224.638906 
L 297.709227 225.248209 
L 294.185252 226.133627 
L 291.711745 226.972494 
L 289.778383 227.805678 
L 288.075043 228.737912 
L 287.120892 229.400149 
L 286.067474 230.42784 
L 285.699093 231.180176 
L 285.686112 231.51138 
L 285.823899 231.882523 
L 286.104541 232.189045 
L 286.563846 232.474526 
L 287.88578 232.906163 
L 289.77875 233.206611 
L 293.087331 233.434219 
L 298.453307 233.499003 
L 304.721814 233.338715 
L 310.383931 233.00641 
L 316.915399 232.386496 
L 329.452443 230.86224 
L 338.664132 229.87372 
L 344.738536 229.433011 
L 350.361667 229.246166 
L 354.884422 229.28271 
L 354.884422 229.28271 
" style="fill:none;stroke:#000000;stroke-linecap:square;stroke-opacity:0.7;stroke-width:1.2;"/>
   </g>
   <g id="line2d_26">
    <path clip-path="url(#pa0a20fc85e)" d="M 354.775085 205.327796 
L 347.55631 204.365107 
L 336.922999 202.689574 
L 325.280764 200.898194 
L 319.247681 200.193976 
L 313.984265 199.786355 
L 308.43557 199.580974 
L 303.591914 199.631427 
L 299.512096 199.925215 
L 296.695551 200.331155 
L 294.590626 200.787473 
L 292.228962 201.512281 
L 290.040981 202.465672 
L 288.714542 203.237082 
L 287.455106 204.184517 
L 286.330226 205.373113 
L 285.762909 206.325793 
L 285.576766 206.878353 
L 285.509744 207.52431 
L 285.672618 208.267665 
L 285.986645 208.799385 
L 286.736284 209.50103 
L 287.462962 209.941307 
L 289.201328 210.647052 
L 291.486036 211.255637 
L 294.536223 211.82075 
L 298.795346 212.368766 
L 304.190018 212.802223 
L 308.859179 212.962928 
L 313.762558 212.897159 
L 318.847267 212.573473 
L 323.815528 212.047851 
L 330.209431 211.138921 
L 336.640581 209.9995 
L 344.31348 208.386559 
L 352.435936 206.436935 
L 354.794538 205.821386 
L 354.794538 205.821386 
" style="fill:none;stroke:#000000;stroke-linecap:square;stroke-opacity:0.7;stroke-width:1.2;"/>
   </g>
   <g id="line2d_27">
    <path clip-path="url(#pa0a20fc85e)" d="M 354.198336 182.234453 
L 348.280658 181.662354 
L 337.1397 180.311869 
L 327.13567 179.184868 
L 321.014754 178.718792 
L 316.06511 178.583811 
L 311.52957 178.66932 
L 304.036348 179.067673 
L 297.43412 179.608103 
L 293.473632 180.111527 
L 290.770697 180.63521 
L 288.927165 181.158457 
L 287.142645 181.930341 
L 286.287089 182.524084 
L 285.916746 182.936379 
L 285.745914 183.51043 
L 285.874068 183.798092 
L 286.232628 184.075591 
L 286.920475 184.324392 
L 288.649319 184.601087 
L 292.674411 184.867687 
L 303.995267 185.310108 
L 311.8405 185.43131 
L 317.583233 185.286349 
L 322.97706 184.941674 
L 334.548589 183.897699 
L 345.750053 182.999296 
L 354.216435 182.504499 
L 354.216435 182.504499 
" style="fill:none;stroke:#000000;stroke-linecap:square;stroke-opacity:0.7;stroke-width:1.2;"/>
   </g>
   <g id="line2d_28">
    <path clip-path="url(#pa0a20fc85e)" d="M 354.040226 157.44698 
L 347.049908 155.159471 
L 340.389787 153.200523 
L 333.643027 151.458963 
L 327.462656 150.102835 
L 322.342077 149.229002 
L 318.394463 148.785262 
L 314.569678 148.59677 
L 310.670185 148.664551 
L 306.787163 148.983779 
L 302.610059 149.601374 
L 299.127827 150.352256 
L 295.978764 151.25904 
L 293.243035 152.284342 
L 290.742238 153.508189 
L 289.155937 154.506994 
L 287.902529 155.500907 
L 286.939621 156.489181 
L 286.085808 157.806926 
L 285.866547 158.458429 
L 285.818337 159.135358 
L 286.041795 159.857672 
L 286.297632 160.210124 
L 286.932974 160.72203 
L 287.400038 160.967204 
L 289.29806 161.546866 
L 291.766274 161.905553 
L 295.490701 162.146946 
L 300.903512 162.240411 
L 307.224304 162.132212 
L 313.508525 161.785864 
L 320.024767 161.166787 
L 345.537266 158.440682 
L 353.999555 157.866946 
L 353.999555 157.866946 
" style="fill:none;stroke:#000000;stroke-linecap:square;stroke-opacity:0.7;stroke-width:1.2;"/>
   </g>
   <g id="line2d_29">
    <path clip-path="url(#pa0a20fc85e)" d="M 354.620699 133.211949 
L 348.081982 132.981461 
L 338.509818 132.423197 
L 323.025688 131.47018 
L 317.181902 131.383096 
L 311.069565 131.544451 
L 295.573437 132.267889 
L 291.967622 132.668794 
L 289.524727 133.132223 
L 288.021667 133.57623 
L 286.828112 134.140846 
L 286.251477 134.670084 
L 286.122225 135.102222 
L 286.234691 135.441183 
L 286.628101 135.843774 
L 287.107037 136.135885 
L 288.718669 136.746446 
L 290.814741 137.254427 
L 294.012053 137.798345 
L 299.110464 138.400635 
L 304.719233 138.829841 
L 309.761799 139.008311 
L 314.344969 138.954471 
L 318.840379 138.683813 
L 324.344908 138.13012 
L 332.381962 137.096282 
L 342.531288 135.564681 
L 354.670894 133.582226 
L 354.670894 133.582226 
" style="fill:none;stroke:#000000;stroke-linecap:square;stroke-opacity:0.7;stroke-width:1.2;"/>
   </g>
   <g id="line2d_30">
    <path clip-path="url(#pa0a20fc85e)" d="M 354.527894 109.607975 
L 345.39097 107.333697 
L 338.204304 105.772601 
L 331.074297 104.441333 
L 325.096478 103.522703 
L 320.291881 102.994416 
L 316.410582 102.758946 
L 312.01959 102.718774 
L 307.269716 102.931645 
L 302.810926 103.363389 
L 298.676234 103.981994 
L 295.024887 104.746912 
L 292.062673 105.577192 
L 289.836382 106.38508 
L 287.80826 107.341999 
L 286.661557 108.041497 
L 285.379815 109.111269 
L 284.653593 110.154891 
L 284.480962 110.796511 
L 284.579788 111.514069 
L 284.948168 112.101169 
L 285.528018 112.596822 
L 286.480834 113.104973 
L 288.677124 113.785011 
L 291.197133 114.232487 
L 294.475197 114.581343 
L 299.337294 114.85029 
L 304.807262 114.925085 
L 309.573414 114.803998 
L 314.901418 114.435961 
L 320.875997 113.755841 
L 328.944155 112.579026 
L 338.970649 111.151691 
L 345.002748 110.512729 
L 350.638073 110.110868 
L 354.54488 109.95585 
L 354.54488 109.95585 
" style="fill:none;stroke:#000000;stroke-linecap:square;stroke-opacity:0.7;stroke-width:1.2;"/>
   </g>
   <g id="line2d_31">
    <path clip-path="url(#pa0a20fc85e)" d="M 354.67436 85.517105 
L 348.970895 85.223494 
L 321.685061 83.493463 
L 312.911505 83.320439 
L 305.148718 83.367658 
L 299.156343 83.626355 
L 294.956307 83.996976 
L 291.913174 84.418455 
L 289.009418 85.034427 
L 287.318634 85.605411 
L 286.349232 86.18047 
L 286.080297 86.607078 
L 286.120904 86.86668 
L 286.35066 87.135584 
L 286.881815 87.438548 
L 288.067556 87.818061 
L 290.628767 88.282545 
L 293.85171 88.642101 
L 299.740894 89.05384 
L 307.34966 89.341866 
L 314.843451 89.403176 
L 322.432755 89.228373 
L 329.287259 88.858738 
L 335.794688 88.298293 
L 343.412254 87.416953 
L 354.681259 85.948674 
L 354.681259 85.948674 
" style="fill:none;stroke:#000000;stroke-linecap:square;stroke-opacity:0.7;stroke-width:1.2;"/>
   </g>
   <g id="line2d_32">
    <path clip-path="url(#pa0a20fc85e)" d="M 354.859868 62.367435 
L 347.668072 60.942205 
L 336.803403 58.79404 
L 331.200988 57.910646 
L 326.374434 57.35254 
L 321.952169 57.034677 
L 316.776895 56.900485 
L 310.810603 57.012012 
L 304.992023 57.34227 
L 300.349222 57.804797 
L 296.290055 58.43657 
L 293.77565 58.981539 
L 290.867625 59.829826 
L 289.437018 60.378662 
L 287.400503 61.465926 
L 286.586056 62.189075 
L 286.32291 62.617021 
L 286.262345 63.111877 
L 286.472028 63.529786 
L 287.016945 63.946654 
L 288.397442 64.450158 
L 290.747507 64.881378 
L 294.425312 65.253825 
L 301.08275 65.667734 
L 308.604165 65.932291 
L 313.579998 65.914871 
L 319.045353 65.651637 
L 325.293261 65.083153 
L 340.853946 63.502869 
L 348.340457 63.024224 
L 354.854269 62.779084 
L 354.854269 62.779084 
" style="fill:none;stroke:#000000;stroke-linecap:square;stroke-opacity:0.7;stroke-width:1.2;"/>
   </g>
   <g id="line2d_33">
    <path clip-path="url(#pa0a20fc85e)" d="M 434.844848 229.195825 
L 427.381249 228.7022 
L 419.021018 227.934541 
L 400.626479 226.133747 
L 394.62146 225.86396 
L 388.839395 225.825933 
L 382.971124 226.018109 
L 378.164961 226.420026 
L 374.579741 226.946474 
L 371.371697 227.680239 
L 369.60997 228.251333 
L 367.78943 229.063529 
L 366.630726 229.827202 
L 365.928524 230.629216 
L 365.785408 231.284912 
L 365.997342 231.76648 
L 366.299841 232.057994 
L 367.473379 232.636823 
L 369.100692 233.058945 
L 371.823847 233.466351 
L 375.625914 233.797037 
L 382.131609 234.098388 
L 389.047441 234.185476 
L 395.4733 234.029248 
L 402.000402 233.623727 
L 409.610832 232.914687 
L 418.391444 231.866661 
L 434.816481 229.6241 
L 434.816481 229.6241 
" style="fill:none;stroke:#000000;stroke-linecap:square;stroke-opacity:0.7;stroke-width:1.2;"/>
   </g>
   <g id="line2d_34">
    <path clip-path="url(#pa0a20fc85e)" d="M 434.175256 205.446185 
L 404.804517 200.25779 
L 399.18105 199.530265 
L 395.009195 199.227198 
L 391.172497 199.166522 
L 386.872245 199.332704 
L 382.513651 199.741262 
L 378.475255 200.361225 
L 375.053122 201.128846 
L 372.889439 201.777171 
L 370.198143 202.847101 
L 368.402802 203.810413 
L 366.943834 204.856355 
L 365.987135 205.846868 
L 365.579422 206.646092 
L 365.557135 207.022724 
L 365.812109 207.505809 
L 366.375014 207.848609 
L 366.779683 207.983601 
L 368.47857 208.255932 
L 371.242766 208.382487 
L 377.189381 208.367302 
L 390.615287 208.062299 
L 402.522779 207.597727 
L 413.351342 206.953012 
L 428.006871 206.06637 
L 434.162392 205.871012 
L 434.162392 205.871012 
" style="fill:none;stroke:#000000;stroke-linecap:square;stroke-opacity:0.7;stroke-width:1.2;"/>
   </g>
   <g id="line2d_35">
    <path clip-path="url(#pa0a20fc85e)" d="M 434.931834 181.864726 
L 423.424063 179.100459 
L 415.797077 177.51521 
L 409.200973 176.358329 
L 403.982337 175.628002 
L 399.202857 175.148787 
L 394.38507 174.888061 
L 389.721841 174.888753 
L 385.959722 175.105724 
L 382.077721 175.563071 
L 378.250166 176.275382 
L 374.942999 177.136069 
L 372.421604 177.985298 
L 369.674466 179.179425 
L 367.647173 180.355061 
L 366.238451 181.493144 
L 365.534753 182.412089 
L 365.365001 182.985142 
L 365.471143 183.447477 
L 365.87041 183.838416 
L 366.418783 184.082622 
L 367.654439 184.32935 
L 369.531892 184.436853 
L 373.248918 184.354369 
L 380.558234 183.902203 
L 393.048676 182.901708 
L 412.396304 181.223585 
L 416.900994 181.096507 
L 421.828766 181.179854 
L 427.442293 181.513937 
L 433.831191 182.125393 
L 434.931613 182.25193 
L 434.931613 182.25193 
" style="fill:none;stroke:#000000;stroke-linecap:square;stroke-opacity:0.7;stroke-width:1.2;"/>
   </g>
   <g id="line2d_36">
    <path clip-path="url(#pa0a20fc85e)" d="M 434.798328 157.134988 
L 430.253035 155.524821 
L 425.327926 153.989639 
L 420.389936 152.677352 
L 414.923314 151.459513 
L 409.364594 150.461951 
L 405.104512 149.896599 
L 401.109042 149.575973 
L 397.223616 149.499506 
L 393.153057 149.676517 
L 388.915848 150.112682 
L 384.419194 150.825157 
L 380.050894 151.770509 
L 376.317913 152.822601 
L 373.543059 153.803106 
L 370.907022 154.960957 
L 369.007792 156.003094 
L 367.277577 157.225462 
L 366.271346 158.233397 
L 365.875055 158.921463 
L 365.836886 159.460827 
L 366.098373 159.856007 
L 366.427786 160.060967 
L 367.568637 160.3605 
L 369.645665 160.486673 
L 372.626837 160.40611 
L 378.345636 159.99451 
L 386.844763 159.13347 
L 394.25084 158.16114 
L 405.32375 156.66854 
L 410.889829 156.182535 
L 415.594165 156.006142 
L 420.117936 156.063472 
L 425.129466 156.368518 
L 430.459592 156.926463 
L 434.800414 157.535354 
L 434.800414 157.535354 
" style="fill:none;stroke:#000000;stroke-linecap:square;stroke-opacity:0.7;stroke-width:1.2;"/>
   </g>
   <g id="line2d_37">
    <path clip-path="url(#pa0a20fc85e)" d="M 434.829174 133.911838 
L 419.138256 131.534814 
L 410.93685 130.592625 
L 403.913613 130.003776 
L 398.026125 129.726042 
L 392.246285 129.685869 
L 386.340614 129.881861 
L 381.900483 130.205195 
L 377.143908 130.776509 
L 373.319057 131.470592 
L 370.608679 132.144236 
L 367.762552 133.107265 
L 366.268025 133.804525 
L 365.328847 134.430003 
L 365.012095 134.8629 
L 365.097873 135.092796 
L 365.344083 135.20813 
L 366.270424 135.293327 
L 368.078313 135.184361 
L 382.099535 133.855544 
L 387.249926 133.683342 
L 393.743249 133.717735 
L 404.421737 133.807253 
L 425.56502 133.7331 
L 431.314466 134.019822 
L 434.814926 134.295677 
L 434.814926 134.295677 
" style="fill:none;stroke:#000000;stroke-linecap:square;stroke-opacity:0.7;stroke-width:1.2;"/>
   </g>
   <g id="line2d_38">
    <path clip-path="url(#pa0a20fc85e)" d="M 434.901515 109.002704 
L 426.029041 106.823291 
L 418.925482 105.29995 
L 411.786619 104.030435 
L 406.460971 103.289516 
L 401.978013 102.860763 
L 398.119083 102.687972 
L 393.647717 102.751894 
L 389.127414 103.078053 
L 383.614804 103.731849 
L 377.795614 104.679731 
L 373.776516 105.576262 
L 371.549711 106.234991 
L 369.208963 107.154382 
L 367.489473 108.097533 
L 366.218126 109.106358 
L 365.31928 110.331926 
L 365.120251 110.944324 
L 365.12338 111.740481 
L 365.41439 112.468018 
L 365.916245 113.0896 
L 366.820834 113.794281 
L 368.091431 114.470263 
L 369.834441 115.144242 
L 372.077281 115.798158 
L 375.567791 116.559532 
L 379.699235 117.209874 
L 383.872257 117.648749 
L 388.254528 117.871796 
L 392.344187 117.834765 
L 396.252286 117.565704 
L 400.652413 117.015506 
L 405.922899 116.10074 
L 413.153225 114.578038 
L 424.939352 111.814935 
L 434.940969 109.410717 
L 434.940969 109.410717 
" style="fill:none;stroke:#000000;stroke-linecap:square;stroke-opacity:0.7;stroke-width:1.2;"/>
   </g>
   <g id="line2d_39">
    <path clip-path="url(#pa0a20fc85e)" d="M 435.005041 84.449079 
L 427.145492 82.663305 
L 418.042985 80.819539 
L 410.729248 79.533779 
L 405.107539 78.755722 
L 400.709778 78.363056 
L 396.251188 78.211069 
L 391.947151 78.292482 
L 387.331306 78.588172 
L 382.762959 79.079321 
L 378.725238 79.731804 
L 375.532774 80.483516 
L 373.320739 81.196195 
L 371.410802 81.997047 
L 369.65695 82.952033 
L 368.028687 84.141818 
L 366.909811 85.302023 
L 366.239919 86.425448 
L 366.068343 87.000494 
L 366.058445 87.785707 
L 366.35167 88.528302 
L 366.843397 89.09336 
L 367.0761 89.282776 
L 368.417994 90.012148 
L 369.680088 90.438946 
L 371.138164 90.787542 
L 374.478964 91.288408 
L 378.432797 91.597578 
L 383.427574 91.727795 
L 387.927824 91.642168 
L 392.194902 91.375921 
L 396.718798 90.877907 
L 401.444532 90.137144 
L 409.455748 88.604069 
L 418.408983 86.946039 
L 425.374304 85.896351 
L 431.731883 85.160388 
L 435.008548 84.880214 
L 435.008548 84.880214 
" style="fill:none;stroke:#000000;stroke-linecap:square;stroke-opacity:0.7;stroke-width:1.2;"/>
   </g>
   <g id="line2d_40">
    <path clip-path="url(#pa0a20fc85e)" d="M 434.728028 61.396548 
L 427.998844 60.960302 
L 401.288629 58.970794 
L 394.752526 58.869772 
L 387.52784 59.014054 
L 381.134019 59.336825 
L 375.824745 59.818538 
L 372.196858 60.342086 
L 369.061513 61.032396 
L 367.494843 61.549644 
L 366.423245 62.086741 
L 365.93758 62.536547 
L 365.850105 62.964082 
L 366.050814 63.273342 
L 366.486535 63.565433 
L 367.72909 64.006744 
L 370.510293 64.525321 
L 374.20837 64.914338 
L 379.711309 65.236094 
L 385.923623 65.364906 
L 391.38732 65.263354 
L 396.684629 64.93853 
L 403.796006 64.245773 
L 417.992715 62.815432 
L 427.518509 62.129658 
L 434.712412 61.762585 
L 434.712412 61.762585 
" style="fill:none;stroke:#000000;stroke-linecap:square;stroke-opacity:0.7;stroke-width:1.2;"/>
   </g>
   <g id="line2d_41">
    <path clip-path="url(#pa0a20fc85e)" d="M 514.45381 229.806005 
L 505.391681 227.214094 
L 498.711192 225.52791 
L 491.201842 223.877844 
L 484.27904 222.585697 
L 479.579921 221.908297 
L 475.286361 221.520827 
L 471.876113 221.412309 
L 467.751483 221.539044 
L 464.16143 221.892346 
L 461.0363 222.402244 
L 458.132907 223.071859 
L 455.363144 223.926427 
L 452.942614 224.895699 
L 450.773829 226.002715 
L 448.991841 227.15355 
L 447.377575 228.504029 
L 446.485376 229.506533 
L 445.916769 230.455256 
L 445.741386 231.243726 
L 445.840771 231.670803 
L 446.157987 232.054294 
L 446.638903 232.317199 
L 447.572411 232.545185 
L 449.50021 232.650611 
L 452.397162 232.526747 
L 460.024112 231.883887 
L 471.535746 230.971711 
L 482.128876 230.356985 
L 493.011983 229.941196 
L 501.049647 229.841186 
L 508.925166 229.95682 
L 514.485705 230.183585 
L 514.485705 230.183585 
" style="fill:none;stroke:#000000;stroke-linecap:square;stroke-opacity:0.7;stroke-width:1.2;"/>
   </g>
   <g id="line2d_42">
    <path clip-path="url(#pa0a20fc85e)" d="M 514.902734 206.154611 
L 502.600075 203.567624 
L 493.468211 201.772494 
L 486.483211 200.626207 
L 481.080644 199.946732 
L 476.04 199.519572 
L 471.060714 199.320216 
L 466.724138 199.359489 
L 462.994332 199.592306 
L 459.413066 200.032638 
L 455.911366 200.723166 
L 453.412185 201.422713 
L 451.184506 202.249016 
L 449.595191 203.00849 
L 448.281498 203.804668 
L 447.065533 204.792935 
L 446.23493 205.842577 
L 445.933869 206.647005 
L 445.922007 207.200825 
L 446.07828 207.705581 
L 446.372981 208.14545 
L 447.136919 208.780433 
L 447.982848 209.220708 
L 449.804457 209.835586 
L 452.320734 210.370367 
L 456.065526 210.878748 
L 460.978456 211.293021 
L 466.996901 211.554653 
L 472.944651 211.562286 
L 478.582417 211.327054 
L 484.662618 210.842713 
L 492.184368 209.989976 
L 502.027667 208.611072 
L 514.919733 206.614487 
L 514.919733 206.614487 
" style="fill:none;stroke:#000000;stroke-linecap:square;stroke-opacity:0.7;stroke-width:1.2;"/>
   </g>
   <g id="line2d_43">
    <path clip-path="url(#pa0a20fc85e)" d="M 515.037005 181.266256 
L 506.239431 179.359107 
L 496.918714 177.566547 
L 488.593962 176.178837 
L 482.956424 175.451472 
L 477.932155 175.044109 
L 473.320499 174.914847 
L 468.789063 175.034196 
L 464.867328 175.352553 
L 460.928445 175.901748 
L 457.366831 176.6339 
L 454.329895 177.480551 
L 451.821659 178.386835 
L 449.35361 179.551515 
L 447.579186 180.683026 
L 446.536443 181.607469 
L 445.939875 182.415264 
L 445.702242 183.144278 
L 445.770096 183.700374 
L 446.148891 184.267956 
L 446.786862 184.727306 
L 448.01523 185.228381 
L 450.128569 185.712726 
L 453.102847 186.093006 
L 457.082595 186.361412 
L 462.461876 186.480621 
L 467.154982 186.391423 
L 472.330313 186.058463 
L 477.149091 185.531725 
L 486.333291 184.234674 
L 496.134927 182.910438 
L 502.526426 182.259922 
L 508.650628 181.860096 
L 514.189737 181.719263 
L 515.04382 181.719015 
L 515.04382 181.719015 
" style="fill:none;stroke:#000000;stroke-linecap:square;stroke-opacity:0.7;stroke-width:1.2;"/>
   </g>
   <g id="line2d_44">
    <path clip-path="url(#pa0a20fc85e)" d="M 515.043373 157.956753 
L 510.223499 157.54337 
L 503.582991 156.744931 
L 489.830536 154.983308 
L 484.675658 154.592732 
L 480.294039 154.462187 
L 474.607299 154.5445 
L 465.850384 154.952242 
L 458.088712 155.481764 
L 454.423938 155.903366 
L 451.632114 156.392659 
L 449.430127 156.960689 
L 447.503926 157.712195 
L 446.336583 158.453591 
L 445.817164 159.055211 
L 445.660304 159.619262 
L 445.732469 159.973792 
L 446.144404 160.53362 
L 446.581046 160.86393 
L 447.994884 161.53255 
L 449.998716 162.129353 
L 453.336229 162.79489 
L 457.620239 163.364666 
L 462.401518 163.747714 
L 467.105044 163.870507 
L 471.086619 163.75643 
L 475.227842 163.427653 
L 480.319785 162.797593 
L 489.8114 161.331876 
L 500.040518 159.822269 
L 507.159379 158.99474 
L 515.040605 158.312735 
L 515.040605 158.312735 
" style="fill:none;stroke:#000000;stroke-linecap:square;stroke-opacity:0.7;stroke-width:1.2;"/>
   </g>
   <g id="line2d_45">
    <path clip-path="url(#pa0a20fc85e)" d="M 515.12377 132.888903 
L 506.244485 131.215899 
L 494.606185 129.259416 
L 486.507451 128.077086 
L 480.25804 127.370532 
L 474.554101 126.964701 
L 469.897066 126.857122 
L 465.958276 126.982911 
L 462.455719 127.317249 
L 459.56012 127.789756 
L 456.746396 128.452872 
L 453.979275 129.342286 
L 451.414594 130.434296 
L 449.472778 131.497017 
L 447.891482 132.600251 
L 446.716253 133.713213 
L 446.178259 134.549233 
L 446.088742 135.095704 
L 446.302026 135.515847 
L 446.632616 135.738959 
L 447.591355 135.992713 
L 449.41799 136.07611 
L 452.301418 135.925908 
L 460.186622 135.189395 
L 469.713917 134.373817 
L 478.027929 133.881738 
L 489.243875 133.470477 
L 501.802007 133.218867 
L 510.541054 133.25865 
L 515.097059 133.39658 
L 515.097059 133.39658 
" style="fill:none;stroke:#000000;stroke-linecap:square;stroke-opacity:0.7;stroke-width:1.2;"/>
   </g>
   <g id="line2d_46">
    <path clip-path="url(#pa0a20fc85e)" d="M 514.733356 109.649087 
L 494.445662 105.394566 
L 487.139905 104.165867 
L 482.637804 103.59189 
L 478.39784 103.277083 
L 474.298813 103.233589 
L 470.442952 103.404404 
L 465.853881 103.810645 
L 460.73266 104.481911 
L 455.933506 105.365447 
L 452.765219 106.172816 
L 450.186612 107.063172 
L 448.311445 107.933915 
L 446.81895 108.871148 
L 445.811343 109.784118 
L 445.306131 110.592696 
L 445.244982 111.236424 
L 445.489234 111.705446 
L 445.88455 112.029145 
L 447.047023 112.490815 
L 449.053326 112.834653 
L 452.086877 113.024806 
L 457.224707 113.039541 
L 465.094713 112.775476 
L 472.327351 112.32414 
L 480.468499 111.595713 
L 493.166636 110.44201 
L 499.812433 110.062526 
L 506.958516 109.888935 
L 513.833539 109.965817 
L 514.746543 109.996987 
L 514.746543 109.996987 
" style="fill:none;stroke:#000000;stroke-linecap:square;stroke-opacity:0.7;stroke-width:1.2;"/>
   </g>
   <g id="line2d_47">
    <path clip-path="url(#pa0a20fc85e)" d="M 515.271763 84.703752 
L 507.009764 82.786074 
L 496.815352 80.619642 
L 489.478114 79.254472 
L 484.125127 78.465766 
L 479.262701 77.968311 
L 473.930278 77.682855 
L 469.29577 77.667382 
L 465.436202 77.861354 
L 461.846463 78.269366 
L 458.976133 78.796468 
L 456.301762 79.481298 
L 454.033825 80.234269 
L 451.231406 81.432303 
L 449.278469 82.497924 
L 447.64465 83.612833 
L 446.263397 84.869295 
L 445.565674 85.852171 
L 445.340992 86.661823 
L 445.462944 87.195502 
L 445.796689 87.603171 
L 446.388224 87.95999 
L 447.55053 88.311558 
L 449.39097 88.551119 
L 452.860714 88.630278 
L 457.399226 88.446997 
L 463.794797 87.942682 
L 471.900629 87.051308 
L 491.282448 84.748787 
L 496.583977 84.415315 
L 501.752468 84.319583 
L 507.441484 84.471275 
L 512.234826 84.801138 
L 515.273 85.119323 
L 515.273 85.119323 
" style="fill:none;stroke:#000000;stroke-linecap:square;stroke-opacity:0.7;stroke-width:1.2;"/>
   </g>
   <g id="line2d_48">
    <path clip-path="url(#pa0a20fc85e)" d="M 515.084127 61.795765 
L 510.630946 61.653273 
L 502.728113 61.152025 
L 489.585586 60.295563 
L 481.262297 59.996492 
L 469.327816 59.830633 
L 462.299803 59.889381 
L 456.799554 60.170431 
L 452.615357 60.615061 
L 449.925008 61.066715 
L 447.834905 61.572153 
L 446.131101 62.200217 
L 445.32979 62.742587 
L 445.186734 62.998924 
L 445.289313 63.313176 
L 445.715997 63.566256 
L 446.14575 63.697555 
L 447.772478 63.941318 
L 451.948883 64.181741 
L 459.707121 64.636473 
L 474.481488 65.623081 
L 478.999157 65.671019 
L 483.538976 65.508416 
L 489.087198 65.069721 
L 499.931256 63.913024 
L 515.080833 62.149204 
L 515.080833 62.149204 
" style="fill:none;stroke:#000000;stroke-linecap:square;stroke-opacity:0.7;stroke-width:1.2;"/>
   </g>
   <g id="line2d_49">
    <path clip-path="url(#pa0a20fc85e)" d="M 595.055775 229.526197 
L 588.452284 229.079755 
L 559.1947 226.871345 
L 552.285547 226.699567 
L 546.059404 226.751352 
L 540.667528 227.037345 
L 536.277758 227.521298 
L 532.598632 228.181761 
L 530.326143 228.764717 
L 528.080652 229.567495 
L 526.647965 230.355769 
L 526.132629 230.903179 
L 526.094782 231.226113 
L 526.303431 231.483741 
L 526.873353 231.724623 
L 527.6698 231.874492 
L 529.706796 232.003137 
L 534.026409 231.953864 
L 595.033387 229.950173 
L 595.033387 229.950173 
" style="fill:none;stroke:#000000;stroke-linecap:square;stroke-opacity:0.7;stroke-width:1.2;"/>
   </g>
   <g id="line2d_50">
    <path clip-path="url(#pa0a20fc85e)" d="M 595.30624 206.183879 
L 589.490461 205.462079 
L 564.162096 202.075954 
L 558.190103 201.565299 
L 552.620234 201.30622 
L 547.505686 201.313116 
L 542.720433 201.591246 
L 538.845976 202.044411 
L 535.602402 202.604514 
L 532.355672 203.365478 
L 529.374395 204.309419 
L 527.173956 205.278545 
L 526.047792 206.036163 
L 525.711221 206.502885 
L 525.712744 206.741128 
L 525.982413 207.014239 
L 526.107799 207.07446 
L 527.450938 207.337152 
L 529.960574 207.415651 
L 549.502508 207.40197 
L 558.504317 207.482493 
L 564.978991 207.307462 
L 585.390643 206.526646 
L 593.439612 206.545548 
L 595.31785 206.59294 
L 595.31785 206.59294 
" style="fill:none;stroke:#000000;stroke-linecap:square;stroke-opacity:0.7;stroke-width:1.2;"/>
   </g>
   <g id="line2d_51">
    <path clip-path="url(#pa0a20fc85e)" d="M 595.30111 180.911168 
L 586.65282 179.515578 
L 576.427403 178.096471 
L 568.389794 177.180117 
L 561.863125 176.648962 
L 555.997605 176.387776 
L 549.918608 176.348743 
L 545.337428 176.523216 
L 541.613435 176.865613 
L 538.389438 177.365116 
L 535.1019 178.129692 
L 532.875857 178.836775 
L 530.674809 179.737751 
L 528.841444 180.708329 
L 527.44607 181.683652 
L 526.627836 182.513317 
L 526.359867 183.052331 
L 526.415122 183.443585 
L 526.726161 183.704081 
L 526.870042 183.764307 
L 527.980439 183.940272 
L 530.105339 183.881318 
L 534.455245 183.42542 
L 552.713021 181.308127 
L 560.84892 180.594148 
L 567.482672 180.214576 
L 573.270561 180.085442 
L 579.623997 180.192043 
L 585.958156 180.534721 
L 593.517697 181.189687 
L 595.29218 181.378899 
L 595.29218 181.378899 
" style="fill:none;stroke:#000000;stroke-linecap:square;stroke-opacity:0.7;stroke-width:1.2;"/>
   </g>
   <g id="line2d_52">
    <path clip-path="url(#pa0a20fc85e)" d="M 594.935882 157.360233 
L 589.621375 155.20447 
L 584.607662 153.40633 
L 579.871197 151.951661 
L 574.601304 150.603591 
L 569.718455 149.589206 
L 564.810972 148.805713 
L 561.07792 148.396308 
L 556.979162 148.171559 
L 552.901 148.209873 
L 548.955248 148.502538 
L 545.226106 149.01458 
L 541.596751 149.758516 
L 538.614829 150.592907 
L 536.284561 151.425344 
L 533.577886 152.657216 
L 532.083072 153.499177 
L 529.890142 155.031241 
L 528.128211 156.677732 
L 527.688273 157.197864 
L 526.746848 158.76275 
L 526.571267 159.468416 
L 526.63882 160.132977 
L 526.839821 160.511309 
L 527.259742 160.898991 
L 528.242995 161.321921 
L 529.359236 161.53539 
L 531.802182 161.655715 
L 535.399793 161.497982 
L 540.507108 161.004841 
L 546.625694 160.180282 
L 552.003285 159.248276 
L 559.209768 157.727536 
L 565.35371 156.472978 
L 569.164036 155.883907 
L 572.247258 155.570856 
L 575.736259 155.417654 
L 579.623245 155.492033 
L 583.574786 155.795109 
L 587.650707 156.305047 
L 592.628315 157.171648 
L 594.989434 157.683198 
L 594.989434 157.683198 
" style="fill:none;stroke:#000000;stroke-linecap:square;stroke-opacity:0.7;stroke-width:1.2;"/>
   </g>
   <g id="line2d_53">
    <path clip-path="url(#pa0a20fc85e)" d="M 595.48877 132.557273 
L 591.678796 131.30769 
L 586.380916 129.794168 
L 580.018989 128.217366 
L 573.684102 126.84448 
L 567.76798 125.757924 
L 562.787053 125.048581 
L 558.366239 124.615423 
L 553.74998 124.373741 
L 549.728498 124.350123 
L 545.55605 124.551388 
L 542.350864 124.916394 
L 540.026674 125.333012 
L 536.938248 126.140612 
L 535.024057 126.819491 
L 532.611259 127.913949 
L 530.755658 128.975056 
L 529.175724 130.068619 
L 527.4997 131.497011 
L 526.12666 133.063915 
L 525.554679 134.107684 
L 525.437933 134.638845 
L 525.450656 134.888477 
L 525.664999 135.337304 
L 526.263157 135.706193 
L 527.312536 135.907012 
L 528.801183 135.930501 
L 531.809854 135.689981 
L 538.019849 134.882337 
L 549.885607 133.331651 
L 555.517904 132.80435 
L 562.944716 132.35912 
L 571.560032 132.068861 
L 579.175127 132.023706 
L 585.539342 132.204287 
L 591.332703 132.579091 
L 595.466984 133.000388 
L 595.466984 133.000388 
" style="fill:none;stroke:#000000;stroke-linecap:square;stroke-opacity:0.7;stroke-width:1.2;"/>
   </g>
   <g id="line2d_54">
    <path clip-path="url(#pa0a20fc85e)" d="M 594.987762 109.893071 
L 586.526785 107.287604 
L 580.970678 105.780079 
L 575.140417 104.422413 
L 569.799508 103.390705 
L 564.542676 102.617009 
L 559.99214 102.201316 
L 555.943649 102.06906 
L 551.614097 102.185476 
L 547.724544 102.506292 
L 543.98474 102.998678 
L 540.297495 103.667986 
L 536.482998 104.589054 
L 533.516919 105.521855 
L 531.274425 106.411774 
L 529.709747 107.174627 
L 527.865404 108.328327 
L 526.713296 109.346653 
L 526.107957 110.205155 
L 525.928331 110.933078 
L 526.027052 111.358981 
L 526.370261 111.791106 
L 526.913566 112.123312 
L 527.872545 112.435747 
L 529.411972 112.675773 
L 532.193681 112.804555 
L 536.587416 112.711174 
L 543.181811 112.309153 
L 550.339573 111.657964 
L 560.848381 110.420369 
L 568.676832 109.568798 
L 574.272896 109.178017 
L 578.845227 109.076349 
L 583.594152 109.190099 
L 588.639292 109.520944 
L 594.26453 110.110423 
L 595.003803 110.204403 
L 595.003803 110.204403 
" style="fill:none;stroke:#000000;stroke-linecap:square;stroke-opacity:0.7;stroke-width:1.2;"/>
   </g>
   <g id="line2d_55">
    <path clip-path="url(#pa0a20fc85e)" d="M 595.263265 85.080982 
L 589.842114 84.735733 
L 583.667596 84.137867 
L 575.546236 83.10523 
L 562.94069 81.485967 
L 556.662389 80.924096 
L 551.380315 80.653797 
L 546.217234 80.6229 
L 542.632973 80.78497 
L 538.790954 81.179776 
L 535.915533 81.664225 
L 533.084614 82.34453 
L 530.253867 83.300684 
L 528.391651 84.16045 
L 527.043204 84.995369 
L 526.326498 85.604197 
L 525.837695 86.255109 
L 525.711376 86.733048 
L 525.832937 87.1537 
L 526.199899 87.512684 
L 526.800405 87.808585 
L 528.070197 88.139139 
L 530.186757 88.407837 
L 534.215523 88.61431 
L 540.96398 88.688211 
L 550.434908 88.571564 
L 559.068969 88.256233 
L 571.123545 87.574795 
L 581.63838 86.780843 
L 595.233351 85.545334 
L 595.233351 85.545334 
" style="fill:none;stroke:#000000;stroke-linecap:square;stroke-opacity:0.7;stroke-width:1.2;"/>
   </g>
   <g id="line2d_56">
    <path clip-path="url(#pa0a20fc85e)" d="M 594.585638 62.13243 
L 587.487659 60.927665 
L 577.120366 59.160619 
L 570.957408 58.362242 
L 565.728905 57.911453 
L 561.262123 57.736638 
L 556.833636 57.79461 
L 552.410748 58.070977 
L 545.218419 58.77379 
L 536.215383 59.857198 
L 532.105204 60.546939 
L 529.85683 61.080367 
L 527.937979 61.75733 
L 527.045953 62.266129 
L 526.518282 62.859678 
L 526.479853 63.311333 
L 526.73259 63.713495 
L 527.093633 63.996239 
L 528.14754 64.487491 
L 529.581972 64.910719 
L 532.775026 65.521962 
L 537.155906 66.054684 
L 542.396864 66.426284 
L 546.934481 66.534852 
L 551.465472 66.425101 
L 556.007817 66.095907 
L 562.258769 65.373491 
L 578.234748 63.324484 
L 584.140548 62.833473 
L 590.743178 62.518848 
L 594.621935 62.466931 
L 594.621935 62.466931 
" style="fill:none;stroke:#000000;stroke-linecap:square;stroke-opacity:0.7;stroke-width:1.2;"/>
   </g>
   <g id="line2d_57">
    <path clip-path="url(#pa0a20fc85e)" d="M 675.41968 230.094962 
L 663.858846 227.871935 
L 656.128799 226.517697 
L 650.516003 225.733575 
L 645.563364 225.23933 
L 641.145715 224.993842 
L 636.655131 224.951047 
L 631.414506 225.146641 
L 625.56271 225.623366 
L 620.698924 226.21982 
L 616.102171 227.006073 
L 612.560126 227.846294 
L 610.276511 228.579496 
L 608.376867 229.420834 
L 607.17699 230.227116 
L 606.717105 230.735032 
L 606.488874 231.267541 
L 606.507881 231.689393 
L 606.663707 232.025908 
L 607.189725 232.549358 
L 607.909764 232.972958 
L 609.720968 233.647734 
L 612.519588 234.321121 
L 616.351351 234.970265 
L 621.31179 235.575057 
L 625.980021 235.942591 
L 629.778804 236.066315 
L 633.917109 235.978675 
L 637.810775 235.680173 
L 642.744867 235.073349 
L 650.645216 233.838683 
L 663.345717 231.853248 
L 670.641118 230.963116 
L 675.414893 230.52838 
L 675.414893 230.52838 
" style="fill:none;stroke:#000000;stroke-linecap:square;stroke-opacity:0.7;stroke-width:1.2;"/>
   </g>
   <g id="line2d_58">
    <path clip-path="url(#pa0a20fc85e)" d="M 675.233521 206.132286 
L 669.324389 205.510972 
L 661.515487 204.450712 
L 643.885616 201.917648 
L 638.21869 201.411408 
L 632.920717 201.171324 
L 628.599785 201.157868 
L 623.886758 201.37307 
L 619.897512 201.788192 
L 615.958285 202.452833 
L 613.279787 203.082405 
L 610.208433 204.048385 
L 608.268286 204.875461 
L 607.005076 205.604468 
L 606.256322 206.239683 
L 605.894576 206.909135 
L 605.913507 207.19856 
L 606.198437 207.618022 
L 606.874267 208.020852 
L 608.270556 208.446856 
L 609.937262 208.745896 
L 613.606727 209.13571 
L 619.360638 209.47908 
L 626.27262 209.688209 
L 632.228032 209.663536 
L 637.91844 209.407085 
L 644.460124 208.88325 
L 664.095393 207.149406 
L 673.857993 206.620127 
L 675.210351 206.56447 
L 675.210351 206.56447 
" style="fill:none;stroke:#000000;stroke-linecap:square;stroke-opacity:0.7;stroke-width:1.2;"/>
   </g>
   <g id="line2d_59">
    <path clip-path="url(#pa0a20fc85e)" d="M 675.490909 181.2868 
L 662.130908 179.011224 
L 652.575923 177.583745 
L 644.695492 176.62541 
L 638.339965 176.07559 
L 632.249636 175.758949 
L 626.737809 175.689506 
L 622.758303 175.844394 
L 619.133604 176.221324 
L 616.007594 176.801039 
L 613.215121 177.584542 
L 610.851173 178.50119 
L 608.812014 179.538449 
L 607.018996 180.737128 
L 605.929713 181.764433 
L 605.568672 182.372656 
L 605.568662 182.759519 
L 605.736363 182.962992 
L 606.222132 183.157513 
L 607.579023 183.255438 
L 609.715866 183.153246 
L 622.030025 182.324476 
L 632.25186 181.970201 
L 641.335236 181.600005 
L 655.881984 180.917985 
L 662.272019 180.901052 
L 668.026189 181.104662 
L 673.599154 181.537043 
L 675.490508 181.755786 
L 675.490508 181.755786 
" style="fill:none;stroke:#000000;stroke-linecap:square;stroke-opacity:0.7;stroke-width:1.2;"/>
   </g>
   <g id="line2d_60">
    <path clip-path="url(#pa0a20fc85e)" d="M 675.480227 158.334363 
L 667.706452 157.083357 
L 655.516559 155.135014 
L 648.93462 154.314972 
L 642.766904 153.778362 
L 636.877802 153.499283 
L 630.500641 153.438292 
L 624.950552 153.601987 
L 620.840518 153.900532 
L 616.345201 154.470696 
L 612.63379 155.211656 
L 609.974437 155.972611 
L 608.432157 156.558297 
L 606.657749 157.498949 
L 605.886294 158.158433 
L 605.555822 158.743578 
L 605.571381 159.165569 
L 605.844865 159.563016 
L 606.156062 159.793527 
L 608.109412 160.477407 
L 610.849508 160.950861 
L 616.157528 161.558587 
L 623.56129 162.195555 
L 629.10274 162.465952 
L 633.901577 162.472897 
L 638.531886 162.23572 
L 643.757713 161.703912 
L 661.378205 159.630842 
L 669.335251 159.047797 
L 675.483568 158.741832 
L 675.483568 158.741832 
" style="fill:none;stroke:#000000;stroke-linecap:square;stroke-opacity:0.7;stroke-width:1.2;"/>
   </g>
   <g id="line2d_61">
    <path clip-path="url(#pa0a20fc85e)" d="M 675.000047 133.671213 
L 662.558464 131.937599 
L 654.432652 130.943183 
L 647.298626 130.276831 
L 640.788114 129.89023 
L 634.276085 129.755576 
L 628.229073 129.859902 
L 623.228465 130.151245 
L 619.100718 130.601631 
L 615.369562 131.242805 
L 612.576793 131.92803 
L 610.048104 132.777948 
L 608.324528 133.572277 
L 607.337281 134.200845 
L 606.692952 134.883883 
L 606.623709 135.30943 
L 606.837641 135.599045 
L 607.246747 135.810227 
L 607.969906 135.993046 
L 610.034067 136.178456 
L 614.220836 136.181615 
L 624.602271 135.8366 
L 634.83597 135.315 
L 657.792502 133.922031 
L 665.152326 133.803799 
L 671.79686 133.902762 
L 674.992471 134.039272 
L 674.992471 134.039272 
" style="fill:none;stroke:#000000;stroke-linecap:square;stroke-opacity:0.7;stroke-width:1.2;"/>
   </g>
   <g id="line2d_62">
    <path clip-path="url(#pa0a20fc85e)" d="M 674.624174 109.777366 
L 668.039187 109.219643 
L 659.420276 108.261246 
L 641.166477 106.039481 
L 637.236343 105.863096 
L 633.923363 105.918051 
L 629.08203 106.260605 
L 621.747105 107.049032 
L 613.317058 108.153972 
L 609.992036 108.786606 
L 607.979121 109.3646 
L 606.594227 110.005046 
L 606.152613 110.343176 
L 605.901432 110.670606 
L 605.838688 111.087738 
L 606.007548 111.411617 
L 606.452417 111.768697 
L 607.517994 112.223051 
L 609.148932 112.631342 
L 612.27882 113.093894 
L 616.661805 113.451885 
L 622.212495 113.655583 
L 627.782453 113.648358 
L 633.784867 113.418067 
L 641.528921 112.853468 
L 674.594466 110.076941 
L 674.594466 110.076941 
" style="fill:none;stroke:#000000;stroke-linecap:square;stroke-opacity:0.7;stroke-width:1.2;"/>
   </g>
   <g id="line2d_63">
    <path clip-path="url(#pa0a20fc85e)" d="M 675.296472 86.30503 
L 666.699242 84.989593 
L 654.536867 83.159744 
L 647.823382 82.386238 
L 642.361933 81.959988 
L 636.288087 81.723212 
L 630.200774 81.710192 
L 624.422932 81.915295 
L 619.759619 82.317962 
L 615.844153 82.889367 
L 612.998586 83.479184 
L 610.051659 84.306113 
L 607.651529 85.252093 
L 606.450618 85.93326 
L 605.797721 86.505066 
L 605.579277 86.89039 
L 605.577111 87.214416 
L 605.841721 87.566742 
L 606.427839 87.871512 
L 607.548831 88.154944 
L 609.372573 88.372305 
L 612.933872 88.510547 
L 618.988265 88.465656 
L 643.903326 87.848369 
L 653.989158 87.38568 
L 666.842561 86.781441 
L 675.305448 86.59579 
L 675.305448 86.59579 
" style="fill:none;stroke:#000000;stroke-linecap:square;stroke-opacity:0.7;stroke-width:1.2;"/>
   </g>
   <g id="line2d_64">
    <path clip-path="url(#pa0a20fc85e)" d="M 675.221865 61.228469 
L 667.254422 59.176178 
L 658.744196 57.212269 
L 649.390421 55.277066 
L 642.148322 53.993495 
L 636.927023 53.290839 
L 632.855015 52.944618 
L 628.924327 52.833417 
L 625.62232 52.947488 
L 622.528693 53.255366 
L 619.706557 53.729433 
L 616.624732 54.490581 
L 613.85974 55.433791 
L 611.353458 56.561898 
L 609.180436 57.832654 
L 607.35875 59.236919 
L 606.20743 60.461613 
L 605.711388 61.233916 
L 605.443707 62.083415 
L 605.531367 62.677187 
L 605.741491 62.992583 
L 606.366377 63.40073 
L 607.340813 63.659145 
L 608.340654 63.759488 
L 610.358239 63.754234 
L 614.297895 63.443426 
L 628.185695 62.087014 
L 633.811462 61.845696 
L 641.804938 61.786034 
L 655.56874 61.682457 
L 669.243519 61.558262 
L 675.209226 61.665952 
L 675.209226 61.665952 
" style="fill:none;stroke:#000000;stroke-linecap:square;stroke-opacity:0.7;stroke-width:1.2;"/>
   </g>
  </g>
 </g>
 <defs>
  <clipPath id="pa0a20fc85e">
   <rect height="262.08" width="694.08" x="12.96" y="12.96"/>
  </clipPath>
 </defs>
</svg>
