<svg viewBox="0 0 1496 400" xmlns="http://www.w3.org/2000/svg"><g><g><g><g><g><line x1="50" y1="378" x2="45" y2="378" style="visibility: inherit;" fill="rgb(0, 0, 0)" stroke="rgb(204, 204, 204)" stroke-width="1px"></line><line x1="50" y1="340.2" x2="45" y2="340.2" style="visibility: inherit;" fill="rgb(0, 0, 0)" stroke="rgb(204, 204, 204)" stroke-width="1px"></line><line x1="50" y1="302.40000000000003" x2="45" y2="302.40000000000003" style="visibility: inherit;" fill="rgb(0, 0, 0)" stroke="rgb(204, 204, 204)" stroke-width="1px"></line><line x1="50" y1="264.59999999999997" x2="45" y2="264.59999999999997" style="visibility: inherit;" fill="rgb(0, 0, 0)" stroke="rgb(204, 204, 204)" stroke-width="1px"></line><line x1="50" y1="226.79999999999998" x2="45" y2="226.79999999999998" style="visibility: inherit;" fill="rgb(0, 0, 0)" stroke="rgb(204, 204, 204)" stroke-width="1px"></line><line x1="50" y1="189" x2="45" y2="189" style="visibility: inherit;" fill="rgb(0, 0, 0)" stroke="rgb(204, 204, 204)" stroke-width="1px"></line><line x1="50" y1="151.20000000000002" x2="45" y2="151.20000000000002" style="visibility: inherit;" fill="rgb(0, 0, 0)" stroke="rgb(204, 204, 204)" stroke-width="1px"></line><line x1="50" y1="113.40000000000002" x2="45" y2="113.40000000000002" style="visibility: inherit;" fill="rgb(0, 0, 0)" stroke="rgb(204, 204, 204)" stroke-width="1px"></line><line x1="50" y1="75.60000000000002" x2="45" y2="75.60000000000002" style="visibility: inherit;" fill="rgb(0, 0, 0)" stroke="rgb(204, 204, 204)" stroke-width="1px"></line><line x1="50" y1="37.79999999999999" x2="45" y2="37.79999999999999" style="visibility: inherit;" fill="rgb(0, 0, 0)" stroke="rgb(204, 204, 204)" stroke-width="1px"></line><line x1="50" y1="0" x2="45" y2="0" style="visibility: inherit;" fill="rgb(0, 0, 0)" stroke="rgb(204, 204, 204)" stroke-width="1px"></line></g><g transform="translate(40, 0)"><text x="0" y="378" dx="0em" dy="0.3em" style="text-anchor: end; visibility: hidden; font-family: Roboto, sans-serif; font-size: 12px; font-weight: 200;" fill="rgb(50, 49, 63)" stroke="none" stroke-width="1px">-0.2</text><text x="0" y="340.2" dx="0em" dy="0.3em" style="text-anchor: end; visibility: inherit; font-family: Roboto, sans-serif; font-size: 12px; font-weight: 200;" fill="rgb(50, 49, 63)" stroke="none" stroke-width="1px">0</text><text x="0" y="302.40000000000003" dx="0em" dy="0.3em" style="text-anchor: end; visibility: inherit; font-family: Roboto, sans-serif; font-size: 12px; font-weight: 200;" fill="rgb(50, 49, 63)" stroke="none" stroke-width="1px">0.2</text><text x="0" y="264.59999999999997" dx="0em" dy="0.3em" style="text-anchor: end; visibility: inherit; font-family: Roboto, sans-serif; font-size: 12px; font-weight: 200;" fill="rgb(50, 49, 63)" stroke="none" stroke-width="1px">0.4</text><text x="0" y="226.79999999999998" dx="0em" dy="0.3em" style="text-anchor: end; visibility: inherit; font-family: Roboto, sans-serif; font-size: 12px; font-weight: 200;" fill="rgb(50, 49, 63)" stroke="none" stroke-width="1px">0.6</text><text x="0" y="189" dx="0em" dy="0.3em" style="text-anchor: end; visibility: inherit; font-family: Roboto, sans-serif; font-size: 12px; font-weight: 200;" fill="rgb(50, 49, 63)" stroke="none" stroke-width="1px">0.8</text><text x="0" y="151.20000000000002" dx="0em" dy="0.3em" style="text-anchor: end; visibility: inherit; font-family: Roboto, sans-serif; font-size: 12px; font-weight: 200;" fill="rgb(50, 49, 63)" stroke="none" stroke-width="1px">1</text><text x="0" y="113.40000000000002" dx="0em" dy="0.3em" style="text-anchor: end; visibility: inherit; font-family: Roboto, sans-serif; font-size: 12px; font-weight: 200;" fill="rgb(50, 49, 63)" stroke="none" stroke-width="1px">1.2</text><text x="0" y="75.60000000000002" dx="0em" dy="0.3em" style="text-anchor: end; visibility: inherit; font-family: Roboto, sans-serif; font-size: 12px; font-weight: 200;" fill="rgb(50, 49, 63)" stroke="none" stroke-width="1px">1.4</text><text x="0" y="37.79999999999999" dx="0em" dy="0.3em" style="text-anchor: end; visibility: inherit; font-family: Roboto, sans-serif; font-size: 12px; font-weight: 200;" fill="rgb(50, 49, 63)" stroke="none" stroke-width="1px">1.6</text><text x="0" y="0" dx="0em" dy="0.3em" style="text-anchor: end; visibility: hidden; font-family: Roboto, sans-serif; font-size: 12px; font-weight: 200;" fill="rgb(50, 49, 63)" stroke="none" stroke-width="1px">1.8</text></g><line x1="50" y1="0" x2="50" y2="378" fill="rgb(0, 0, 0)" stroke="rgb(204, 204, 204)" stroke-width="1px"></line></g></g><g transform="translate(50, 0)" clip-path="url(#clip_0)"><clipPath id="clip_0"><rect width="1446" height="378"></rect></clipPath><g><g><g><line x1="0" y1="0" x2="0" y2="378" fill="rgb(0, 0, 0)" stroke="rgb(60, 60, 60)" stroke-width="1px" opacity="0.25"></line><line x1="120.5" y1="0" x2="120.5" y2="378" fill="rgb(0, 0, 0)" stroke="rgb(60, 60, 60)" stroke-width="1px" opacity="0.25"></line><line x1="241" y1="0" x2="241" y2="378" fill="rgb(0, 0, 0)" stroke="rgb(60, 60, 60)" stroke-width="1px" opacity="0.25"></line><line x1="361.5" y1="0" x2="361.5" y2="378" fill="rgb(0, 0, 0)" stroke="rgb(60, 60, 60)" stroke-width="1px" opacity="0.25"></line><line x1="482" y1="0" x2="482" y2="378" fill="rgb(0, 0, 0)" stroke="rgb(60, 60, 60)" stroke-width="1px" opacity="0.25"></line><line x1="602.5" y1="0" x2="602.5" y2="378" fill="rgb(0, 0, 0)" stroke="rgb(60, 60, 60)" stroke-width="1px" opacity="0.25"></line><line x1="723" y1="0" x2="723" y2="378" fill="rgb(0, 0, 0)" stroke="rgb(60, 60, 60)" stroke-width="1px" opacity="0.25"></line><line x1="843.5" y1="0" x2="843.5" y2="378" fill="rgb(0, 0, 0)" stroke="rgb(60, 60, 60)" stroke-width="1px" opacity="0.25"></line><line x1="964" y1="0" x2="964" y2="378" fill="rgb(0, 0, 0)" stroke="rgb(60, 60, 60)" stroke-width="1px" opacity="0.25"></line><line x1="1084.5" y1="0" x2="1084.5" y2="378" fill="rgb(0, 0, 0)" stroke="rgb(60, 60, 60)" stroke-width="1px" opacity="0.25"></line><line x1="1205" y1="0" x2="1205" y2="378" fill="rgb(0, 0, 0)" stroke="rgb(60, 60, 60)" stroke-width="1px" opacity="0.25"></line><line x1="1325.5" y1="0" x2="1325.5" y2="378" fill="rgb(0, 0, 0)" stroke="rgb(60, 60, 60)" stroke-width="1px" opacity="0.25"></line><line x1="1446" y1="0" x2="1446" y2="378" fill="rgb(0, 0, 0)" stroke="rgb(60, 60, 60)" stroke-width="1px" opacity="0.25"></line></g><g><line x1="0" y1="378" x2="1446" y2="378" fill="rgb(0, 0, 0)" stroke="rgb(60, 60, 60)" stroke-width="1px" opacity="0.25"></line><line x1="0" y1="340.2" x2="1446" y2="340.2" fill="rgb(0, 0, 0)" stroke="rgb(60, 60, 60)" stroke-width="1px" opacity="0.25"></line><line x1="0" y1="302.40000000000003" x2="1446" y2="302.40000000000003" fill="rgb(0, 0, 0)" stroke="rgb(60, 60, 60)" stroke-width="1px" opacity="0.25"></line><line x1="0" y1="264.59999999999997" x2="1446" y2="264.59999999999997" fill="rgb(0, 0, 0)" stroke="rgb(60, 60, 60)" stroke-width="1px" opacity="0.25"></line><line x1="0" y1="226.79999999999998" x2="1446" y2="226.79999999999998" fill="rgb(0, 0, 0)" stroke="rgb(60, 60, 60)" stroke-width="1px" opacity="0.25"></line><line x1="0" y1="189" x2="1446" y2="189" fill="rgb(0, 0, 0)" stroke="rgb(60, 60, 60)" stroke-width="1px" opacity="0.25"></line><line x1="0" y1="151.20000000000002" x2="1446" y2="151.20000000000002" fill="rgb(0, 0, 0)" stroke="rgb(60, 60, 60)" stroke-width="1px" opacity="0.25"></line><line x1="0" y1="113.40000000000002" x2="1446" y2="113.40000000000002" fill="rgb(0, 0, 0)" stroke="rgb(60, 60, 60)" stroke-width="1px" opacity="0.25"></line><line x1="0" y1="75.60000000000002" x2="1446" y2="75.60000000000002" fill="rgb(0, 0, 0)" stroke="rgb(60, 60, 60)" stroke-width="1px" opacity="0.25"></line><line x1="0" y1="37.79999999999999" x2="1446" y2="37.79999999999999" fill="rgb(0, 0, 0)" stroke="rgb(60, 60, 60)" stroke-width="1px" opacity="0.25"></line><line x1="0" y1="0" x2="1446" y2="0" fill="rgb(0, 0, 0)" stroke="rgb(60, 60, 60)" stroke-width="1px" opacity="0.25"></line></g></g></g><g><g><line x1="0" y1="340.2" x2="1446" y2="340.2" fill="rgb(0, 0, 0)" stroke="rgb(153, 153, 153)" stroke-width="1.5px"></line></g></g><g><g><line x1="120.5" y1="0" x2="120.5" y2="378" fill="rgb(0, 0, 0)" stroke="rgb(153, 153, 153)" stroke-width="1.5px"></line></g></g><g><g><g><g><g><path stroke="rgb(0, 119, 187)" stroke-width="2px" d="M120.5,74.48694999217987L121.705,99.196413230896L122.91000000000001,111.99286766052246L124.115,121.50565130710602L125.32000000000001,128.83362443447115L126.52499999999999,137.17373771667482L127.73,145.32074160575868L128.935,149.57561452388765L130.14,150.59345490932466L131.345,164.40154255628588L132.54999999999998,164.68535996675493L133.755,172.69099588394167L134.96,176.01686639785768L136.165,179.1710428118706L137.37,187.63873536586763L138.57500000000002,187.49832494258882L139.78,198.5877405524254L140.985,198.93077952861788L142.19,203.26208735704424L143.395,203.98863018751146L144.6,203.3659644842148L145.805,210.27067859172823L147.01,211.3806013584137L148.215,217.36947090625765L149.42,216.464621257782L150.625,215.29428280591966L151.82999999999998,223.82842923402788L153.035,225.5634284734726L154.24,224.3434552073479L155.445,224.5547016978264L156.65,229.9884859442711L157.855,230.54571164846422L159.06,231.08219797611238L160.26500000000001,231.38131363391878L161.47,234.967220556736L162.675,236.61396760940553L163.88,238.10981626510622L165.085,241.20169569253923L166.29000000000002,240.64951683282854L167.495,241.64019663333895L168.7,242.14473463296892L169.905,244.08446903228761L171.10999999999999,245.5511406183243L172.315,247.35801796317102L173.51999999999998,248.70908526778223L174.725,251.36765141487123L175.93,252.4383597493172L177.135,251.95263476371767L178.34,255.25288803577425L179.545,256.0545759022236L180.75,257.33401293754576L181.95499999999998,259.38477791547774L183.16000000000003,261.6186881482601L184.365,262.9322927713394L185.57,263.4401258647442L186.775,262.53634078502654L187.98000000000002,264.63665608763694L189.185,266.3500879526138L190.39,268.2132015645504L191.595,268.934714448452L192.8,270.8317816078663L194.005,271.47705109119414L195.21,270.6836657345295L196.415,272.1472112059593L197.61999999999998,274.8994256079197L198.82500000000002,275.5282590508461L200.03,277.7338652729988L201.23499999999999,278.5884210884571L202.44000000000003,278.36884955763816L203.645,279.34966097474097L204.85,280.746228736639L206.05499999999998,281.2744576156139L207.26000000000002,282.4683630287647L208.465,284.8008444428444L209.67,286.1969615936279L210.875,285.7581395924091L212.08,288.21393073797225L213.285,288.1891527593136L214.49,289.6139738380909L215.695,291.42251844406127L216.9,291.21103538274764L218.10500000000002,291.7601669847965L219.31,293.00121195316314L220.515,294.1218226522207L221.71999999999997,293.81626888811587L222.925,295.6899746775627L224.13,296.99174230992793L225.33499999999998,298.13097732961177L226.54000000000002,297.0381721526384L227.745,297.40328544080256L228.95,299.614938300848L230.15500000000003,298.748801779747L231.36,300.3850862056017L232.565,300.15059099793433L233.76999999999998,301.76936636567115L234.975,300.76310668587683L236.18,302.5734312057495L237.385,302.1781382381916L238.59,302.38663600087165L239.795,304.309965339303L241,304.32689423561095L242.205,304.6126380085945L243.41,305.34863522350787L244.61499999999998,304.89712007045745L245.82000000000002,304.74899574816226L247.025,305.16622221171855L248.23,304.97980720996856L249.43499999999997,305.79337712824343L250.64000000000001,307.64095592200755L251.845,306.9108645290136L253.04999999999998,307.2536753833294L254.25500000000002,307.17820928692817L255.46,307.8514617204666L256.66499999999996,308.34042265713214L257.87,309.6918560832739L259.075,309.45441782176493L260.28,309.8189960092306L261.485,310.41754275262355L262.69,310.3416344940662L263.895,310.8595246642828L265.09999999999997,310.68239225149154L266.305,311.2243929326534L267.51,311.82871031463145L268.715,311.39153586030005L269.92,312.5665043413639L271.125,311.4066116183996L272.33,312.7645563751459L273.535,312.6649347066879L274.74,312.93590125143527L275.945,313.44603809416293L277.15000000000003,312.91201041340827L278.355,313.16910658478736L279.56,313.52921527326106L280.765,313.5993528932333L281.97,314.3460605710745L283.175,313.6365508407354L284.38,314.21738856732844L285.58500000000004,313.8293448060751L286.79,314.68250935971736L287.995,315.1075849056244L289.2,314.84709788560866L290.40500000000003,315.24281893372535L291.61,314.07852711975573L292.815,315.58236567378043L294.02,315.09644917845725L295.225,315.53852402865886L296.43,315.4643055617809L297.635,315.24217962920665L298.84,316.3473935097456L300.04499999999996,316.48840662539004L301.25,316.17466863691806L302.455,316.4136784046888L303.65999999999997,316.61117280721663L304.865,315.9998230755329L306.07,316.66433224529027L307.275,316.77768065482377L308.48,316.9918321788311L309.685,316.86164077073335L310.89,317.6783072322607L312.09499999999997,317.38340760469436L313.3,317.08399623334407L314.505,317.58409008085727L315.71,317.7635206103325L316.915,317.54876780211924L318.12,317.55207556933163L319.325,317.73720773756503L320.53000000000003,318.4215114086866L321.735,317.56155952513217L322.94,318.2860915035009L324.145,318.5066205829382L325.35,318.707187590003L326.555,318.7229913666844L327.76,318.5256926983595L328.96500000000003,319.13388251960276L330.17,318.04744081646203L331.375,318.9046721354127L332.58000000000004,318.65069362968205L333.785,319.1857365936041L334.99,318.8076513379812L336.195,318.6850485026836L337.4,319.09766887575387L338.605,319.11623405367135L339.81,318.77576919347047L341.015,318.00791518092154L342.21999999999997,318.70653279572724L343.425,319.0316275924444L344.63,318.3356305629015L345.835,319.2287558734417L347.03999999999996,319.0612369671464L348.245,318.8708579957485L349.45,318.69894281476735L350.655,318.38211532384156L351.86,319.1319533407688L353.065,318.85666656196116L354.27,319.1117575138807L355.47499999999997,318.97397894114255L356.68,318.7812849551439L357.885,318.9343519181013L359.09,319.7529391095042L360.295,318.96289531588553L361.5,318.48751607984303L362.70500000000004,318.8385604441166L363.90999999999997,319.75216462165116L365.115,319.7311323478818L366.32000000000005,319.8300935894251L367.525,319.48159940242766L368.73,319.188735973835L369.93500000000006,319.71074219495057L371.14,320.2207100585103L372.345,319.6295237660408L373.55,320.6213075637817L374.755,320.63030147999524L375.96000000000004,320.4100131958723L377.16499999999996,319.6460273981094L378.37,320.32186239659785L379.575,320.0798673301935L380.78,319.7622033923864L381.985,320.59223047345876L383.19,320.60835953503846L384.395,320.162278470397L385.6,319.9861007899046L386.805,320.5979982957244L388.01,320.96222866773604L389.215,320.57871073186396L390.42,320.3790181919932L391.625,321.3115916892886L392.83,321.7232108607888L394.035,321.6786890745163L395.23999999999995,321.56646719276904L396.445,321.41538151055573L397.65000000000003,320.84283925294875L398.85499999999996,319.86161242872475L400.06,320.96802606135606L401.26500000000004,321.19860658496617L402.46999999999997,320.98150355815886L403.675,320.7995298922062L404.88000000000005,321.2280117765069L406.085,321.2577985793352L407.29,321.4294926792383L408.49499999999995,321.5018523752689L409.7,321.49758001863955L410.90500000000003,321.0256099373102L412.10999999999996,321.630049829185L413.315,321.1995078071952L414.52000000000004,321.79008295834063L415.72499999999997,321.2388503819704L416.93,321.1178472161293L418.13500000000005,321.1271917641163L419.34,321.3393789052963L420.545,320.91532286703585L421.75,321.76857472658156L422.955,321.49014775156974L424.16,321.5103041499853L425.365,321.2395037680864L426.57,321.64747721403836L427.775,321.3656805127859L428.98,321.3163808405399L430.185,321.15530426502227L431.39,321.22003736793994L432.595,321.5089185208082L433.8,321.3055492758751L435.005,321.49611694067715L436.21000000000004,320.87495092749595L437.41499999999996,322.1066274091601L438.62,322.5516410887241L439.825,321.6776385873556L441.03,322.0357814848423L442.235,322.1585265442729L443.43999999999994,322.1239984676242L444.645,322.0968956172466L445.85,321.74881542921065L447.05499999999995,321.6222965016961L448.26,322.163843755424L449.46500000000003,322.5306144475937L450.66999999999996,322.17436130046843L451.875,322.4679879516363L453.08000000000004,321.6524381607771L454.28499999999997,321.95923673808574L455.49,321.49101940244435L456.69500000000005,321.7405058786273L457.9,321.39742043316363L459.105,322.4848943173885L460.31000000000006,322.930300873518L461.515,322.9507558017969L462.72,322.78998338878154L463.925,323.29824737906455L465.13,323.0484820872545L466.33500000000004,323.1764753580093L467.53999999999996,322.84793479442595L468.745,323.2418125614524L469.95,323.5330045044422L471.155,322.1101097881794L472.36,322.75060701817273L473.565,321.8614118814468L474.77,322.23856915980576L475.975,322.1911324828863L477.18,323.11211119294165L478.385,322.9694463059306L479.59,323.1744180366397L480.795,323.2322075039148L482,323.79339013695716L483.205,323.2956282019615L484.41,323.2621337145567L485.61499999999995,322.9601707577705L486.82,323.7352866500616L488.02500000000003,323.2615380629897L489.22999999999996,323.4854833379388L490.435,323.1561922252178L491.64000000000004,323.6146538302302L492.84499999999997,323.2220124274492L494.05,323.75084259063004L495.25500000000005,322.82456356734036L496.46,322.74354932159184L497.665,322.6368248954415L498.86999999999995,323.1408094882965L500.075,322.5613573908806L501.28000000000003,322.8677222549915L502.48499999999996,322.4972537353635L503.69,323.22037896215915L504.89500000000004,322.6544635042548L506.09999999999997,322.70846079736947L507.305,322.91189200133084L508.51000000000005,323.0379391953349L509.715,324.1120440110564L510.92,323.6785885065794L512.125,323.54016358852385L513.3299999999999,323.6677625745535L514.535,324.12365569621323L515.74,323.413156029582L516.9449999999999,324.0940561786294L518.15,323.8105584204197L519.355,323.7512777119875L520.56,324.07961690872907L521.765,324.0864746466279L522.97,323.45068911910056L524.175,323.90654422044753L525.38,324.1800341874361L526.585,323.90398418605326L527.79,324.0831358999014L528.995,324.16498940885066L530.1999999999999,322.78278769254683L531.405,323.50255868285893L532.61,323.32745402008294L533.8149999999999,323.37612002044915L535.02,323.0521038740873L536.225,323.2751859471202L537.43,323.0610780760646L538.635,323.0895862698555L539.84,323.1591662585735L541.045,322.6904335364699L542.25,323.8452765986323L543.455,323.76758138537406L544.66,323.06555179953574L545.865,323.29700397402047L547.07,323.5623998388648L548.275,323.3706563606858L549.48,323.92596133500336L550.6850000000001,323.72184154093264L551.89,323.37990797013043L553.095,323.5905264213681L554.3000000000001,323.32606839090585L555.505,323.99587787389754L556.71,322.7146496593952L557.915,323.84826330542563L559.12,324.1482703283429L560.325,323.35278258919715L561.53,323.68273553699254L562.735,323.2165755227208L563.94,323.5653513416648L565.145,323.5381358385086L566.35,323.6246193766594L567.5550000000001,324.0864577487111L568.76,323.29888245910405L569.965,323.517347176373L571.1700000000001,323.42808956354855L572.375,323.0876556828618L573.58,323.7711398050189L574.7850000000001,324.0541700541973L575.99,323.6180643931031L577.195,324.0885685801506L578.4,323.0899298608303L579.605,323.89478045403956L580.8100000000001,324.35555707365273L582.015,323.61361601650714L583.22,323.681304846704L584.425,324.0557401522994L585.63,323.891220626235L586.835,323.52664384692906L588.04,324.06322592943906L589.245,323.8386033296585L590.45,324.1611028879881L591.655,324.4333198785782L592.86,323.35528348088263L594.0649999999999,323.49749212414025L595.27,324.2238955467939L596.475,323.38755427747964L597.68,323.59785589277743L598.885,323.81236368119716L600.0899999999999,324.2794840604067L601.295,323.98179205209016L602.5,324.287593652308L603.7049999999999,324.5519728258252L604.91,324.93224917799233L606.115,323.7274178534746L607.3199999999999,324.0815714344382L608.525,323.678168874979L609.73,323.368183632195L610.935,324.1512274637818L612.14,323.87021088302134L613.345,323.97839275449513L614.55,323.7596323236823L615.755,323.7025483444333L616.96,323.82160965800284L618.165,324.2007679313421L619.37,324.8210200488567L620.5749999999999,324.7322904959321L621.78,324.4768151164055L622.985,324.94859368801116L624.1899999999999,324.4017362639308L625.395,324.761046525836L626.6,324.7633728057146L627.805,324.91525832265614L629.01,324.70239526480435L630.215,325.04755070507525L631.42,324.4135366424918L632.625,324.64683913886546L633.83,324.60654042363166L635.035,324.96324136555194L636.24,324.9175944596529L637.445,324.7031922832131L638.65,325.1953525587916L639.855,324.67482349723576L641.0600000000001,324.7629869699478L642.265,324.53127710223197L643.47,324.0079669252038L644.6750000000001,324.5801937550306L645.88,323.74075030982493L647.085,324.81061656475066L648.29,324.2246672183275L649.495,325.1577223062515L650.7,325.1608878493309L651.905,324.8348355039954L653.11,324.71767379790543L654.315,324.3908554136753L655.52,324.0155357837677L656.725,324.11460263729094L657.9300000000001,323.8967589184642L659.135,324.5070187345147L660.34,323.97153783291577L661.5450000000001,324.3393364816904L662.75,324.94388621002435L663.955,324.4806101068854L665.1600000000001,324.76238427758216L666.365,323.8268466040492L667.57,324.30789649933575L668.775,324.08861364126204L669.98,324.6075669720769L671.1850000000001,325.2915890112519L672.39,324.09920722693204L673.595,324.91674393117427L674.8,325.36020722687243L676.005,324.84781732857226L677.21,325.28423278480767L678.415,323.9374279797077L679.62,324.2643209964037L680.825,324.75288060754536L682.03,324.19239923805L683.235,324.4960674762726L684.4399999999999,324.209712561965L685.645,324.63096354603766L686.85,324.7520624667406L688.055,324.50057640373706L689.26,324.71260301470755L690.4649999999999,324.6643425643444L691.67,324.35181277692317L692.875,324.6700878560543L694.0799999999999,324.5490325883031L695.285,324.4660286128521L696.49,324.5130724132061L697.6949999999999,324.13393667042254L698.9,324.61207871586083L700.105,324.82220149487256L701.31,324.86777236014603L702.515,325.36699596494435L703.72,324.6171748459339L704.925,324.60844566375016L706.13,325.0134422600269L707.335,324.1282589703798L708.54,324.1995062202215L709.745,324.2483214855194L710.9499999999999,324.34809101074933L712.155,324.89248697161673L713.36,324.4059368044138L714.5649999999999,324.37879593372344L715.77,324.64555489718913L716.975,325.1662642031908L718.18,325.52899770140647L719.385,325.38526120483874L720.59,325.34258129149674L721.795,325.2484753847122L723,325.537274864316L724.205,324.8851265206933L725.4100000000001,325.43326255381106L726.6149999999999,325.17819554060696L727.8199999999999,325.2527012720704L729.025,325.4898297384381L730.23,325.21197588443755L731.4350000000001,325.6304584264755L732.6400000000001,325.28881352841853L733.8449999999999,324.68622818291186L735.05,324.0137868493795L736.255,325.64578202068805L737.46,324.75726139247416L738.6650000000001,325.29043995290994L739.8700000000001,324.4964195162058L741.0749999999999,325.692910310626L742.28,325.00758290737866L743.485,324.10906856954097L744.69,324.48129728883504L745.8950000000001,324.56565450578927L747.1,324.76867875158786L748.305,324.02866828143596L749.51,325.16940721571444L750.715,324.9244169935584L751.9200000000001,324.7693926885724L753.125,324.99933109134435L754.3299999999999,324.75161467194556L755.535,325.6396283626556L756.74,325.4645617201924L757.945,325.430522274971L759.15,324.73130196779965L760.355,324.9084217071533L761.56,324.95218449532985L762.765,325.4995742037892L763.97,325.6142209365964L765.175,325.16110470592974L766.38,324.7039766281843L767.585,325.3171400696039L768.79,325.42695399820803L769.995,325.68281098902224L771.2,325.57912537157534L772.405,324.9880756705999L773.61,324.9352218031883L774.815,324.7395157635212L776.02,324.8366942748427L777.225,324.89881242513655L778.43,324.96765312999486L779.635,324.87489060759543L780.84,324.50546271800994L782.0450000000001,324.143979665637L783.25,324.7686717107892L784.4549999999999,325.18255379498004L785.66,325.15009852945803L786.865,324.8783645376563L788.07,325.1175094887614L789.275,325.43557052761315L790.4799999999999,325.5789606168866L791.685,325.5420766890049L792.89,325.700041231513L794.095,325.480559822917L795.3000000000001,325.61039215028285L796.5049999999999,325.6028162509203L797.7099999999999,325.72610486000775L798.915,325.074025516212L800.12,325.35260034799575L801.325,325.5996169120073L802.5300000000001,325.72396727353333L803.7349999999999,325.55965333878993L804.9399999999999,325.7765958353877L806.145,325.7034222230315L807.35,325.35235532820224L808.5550000000001,325.8938307657838L809.7600000000001,325.4530781775713L810.9649999999999,325.86786148399113L812.17,325.71379895210265L813.375,325.4514278143644L814.58,325.71929922401904L815.7850000000001,324.9439411282539L816.9899999999999,324.79763192385434L818.1949999999999,324.91696642041205L819.4,325.1365844205022L820.605,325.36294891387223L821.8100000000001,325.4166110649705L823.0150000000001,325.4274665683508L824.2199999999999,325.5050491288304L825.425,325.04106753766536L826.63,324.99783844202756L827.835,325.0470944613218L829.0400000000001,325.3292094066739L830.2450000000001,325.00312044918536L831.4499999999999,324.9421288266778L832.655,325.64394155591725L833.86,325.81871670931577L835.065,325.7796557664871L836.2700000000001,325.2254111364484L837.475,325.05369873046874L838.68,325.95131607055663L839.885,325.56514656990765L841.09,325.6988302141428L842.2950000000001,325.3882197484374L843.5,324.635383759439L844.7049999999999,325.27862408459185L845.91,325.75040406435727L847.115,325.33226652145385L848.32,324.87343738675116L849.525,325.0520751222968L850.73,325.223863568902L851.935,325.5362792953849L853.14,325.7533527508378L854.345,326.0180389031768L855.55,324.8446996629238L856.755,325.43607746511697L857.96,325.083591145277L859.165,325.8150400042534L860.37,325.3527665108442L861.575,325.2164749547839L862.78,325.0052847906947L863.985,325.4933261990547L865.19,324.91008333563803L866.395,325.48079921007155L867.6,324.4468537017703L868.805,325.4746399194002L870.01,324.81462559551L871.215,325.70764247775077L872.4200000000001,325.22607015520333L873.625,325.28782781660556L874.8299999999999,325.86620126366614L876.035,325.2600983351469L877.24,325.43159247636794L878.445,325.1825650602579L879.65,324.9623809799552L880.8549999999999,325.4417819201946L882.06,325.8360060945153L883.265,325.9934594750404L884.47,325.2398842021823L885.6750000000001,325.26125584244727L886.8799999999999,325.2453295558691L888.0849999999999,325.1566887170076L889.29,325.1486636146903L890.495,325.3796440556645L891.7,325.09211473613976L892.9050000000001,325.51497947126626L894.1099999999999,325.37370162159203L895.3149999999999,325.40422207564114L896.52,325.2288315564394L897.725,325.4718024775386L898.9300000000001,325.400812920928L900.1350000000001,325.25436008423566L901.3399999999999,325.71832477748393L902.545,325.60548752993344L903.75,325.353173469007L904.955,325.8587718129158L906.1600000000001,325.3294121816754L907.3649999999999,325.72058769017457L908.5699999999999,326.1187096506357L909.775,325.3498178243637L910.98,325.7040615275502L912.1850000000001,325.2829682573676L913.3900000000001,325.8179506704211L914.5949999999999,325.7189415514469L915.8,326.0602217361331L917.005,325.579480227828L918.21,325.3083869487047L919.4150000000001,325.2123997405171L920.6200000000001,325.36083526611327L921.8249999999999,325.0238372951746L923.03,325.3311878710985L924.235,325.0045778945088L925.44,325.3895546838641L926.6450000000001,325.10339832007884L927.85,325.445543114841L929.055,324.8297323331237L930.26,325.3372288763523L931.465,325.5214823529124L932.6700000000001,325.3411548256874L933.875,325.3112398803234L935.0799999999999,325.85372778475283L936.285,325.9130704522133L937.49,326.12939195036887L938.695,325.945590493083L939.9,326.1583845511079L941.105,326.22017037570475L942.31,326.09722817391156L943.515,325.6750041514635L944.72,326.1497905522585L945.925,325.50295660346745L947.13,326.17004552185534L948.335,325.8654521226883L949.54,325.85075093507766L950.745,325.06813377588986L951.95,325.27522056251763L953.155,325.3839347183704L954.36,325.59325484633445L955.565,325.2455154329538L956.77,325.7959721133113L957.975,325.701701451838L959.18,325.7647419467568L960.385,325.34611718058585L961.59,325.31507429927586L962.7950000000001,325.7766296312213L964,325.52861468195914L965.2049999999999,325.7358479171991L966.41,325.2118097215891L967.615,325.1303392320871L968.82,325.63170042335986L970.025,326.34633022248744L971.2299999999999,325.31027247458695L972.435,325.62612551897763L973.64,325.50136960744857L974.845,325.7802007243037L976.0500000000001,326.142166775465L977.2549999999999,325.4850152403116L978.4599999999999,325.313750629127L979.665,325.5763006031513L980.87,325.11034618020057L982.075,325.5649818152189L983.2800000000001,325.492502425611L984.4849999999999,325.2609868839383L985.6899999999999,326.2252256691456L986.895,326.1865590110421L988.1,326.13949127197264L989.3050000000001,325.7908633098006L990.5100000000001,325.67105848789214L991.7149999999999,325.36513860225676L992.92,325.0507331460714L994.125,325.43237400501965L995.33,326.1111886695027L996.5350000000001,326.18501144349574L997.7399999999999,326.22034217119216L998.9449999999999,326.0693564683199L1000.15,326.19177483469247L1001.355,326.18469460755585L1002.5600000000001,325.69823597073554L1003.7650000000001,325.64024372845887L1004.9699999999999,325.43260071873664L1006.175,325.2159778743982L1007.38,325.5688007444143L1008.585,325.70191408395766L1009.7900000000001,325.7346664711833L1010.9950000000001,325.8712410673499L1012.1999999999999,325.25415730923413L1013.405,325.9493840754032L1014.61,325.50019801855086L1015.815,325.28493968099355L1017.0200000000001,325.62394709587096L1018.225,325.6114975556731L1019.43,326.0078874796629L1020.635,325.96896876096724L1021.84,326.13477112054824L1023.0450000000001,325.4095998376608L1024.25,326.00667646229266L1025.455,326.02498957961797L1026.6599999999999,326.14452544301747L1027.865,325.087217156589L1029.07,325.0614492416382L1030.275,325.67907795757054L1031.48,325.8999858319759L1032.685,325.5763681948185L1033.8899999999999,326.3054541617632L1035.095,326.029453445971L1036.3,326.1966625571251L1037.505,325.9810155674815L1038.71,325.51060291081666L1039.915,325.71192046701907L1041.12,325.56431434750556L1042.325,325.9881112843752L1043.53,325.70573723763226L1044.7350000000001,325.90568887889384L1045.94,325.34442598074673L1047.145,325.37351433634757L1048.35,325.7403005182743L1049.555,325.85515706688165L1050.76,326.07876015901564L1051.9650000000001,325.349831905961L1053.17,325.91547699719666L1054.375,325.61382524371146L1055.58,326.10990724414586L1056.785,325.3770136132836L1057.99,325.61346897929906L1059.1950000000002,326.0133497312665L1060.3999999999999,325.89256342202424L1061.605,325.4595402225852L1062.81,326.0209354877472L1064.015,325.3573388054967L1065.22,325.70123112648724L1066.425,326.4178971245885L1067.6299999999999,326.26196174025534L1068.835,326.18569017648696L1070.04,326.0431323096156L1071.2450000000001,326.39937278330325L1072.45,326.3067947298288L1073.655,325.55671028494834L1074.86,325.5110718280077L1076.065,325.45232058763503L1077.27,325.8206923574209L1078.475,325.82097258120774L1079.68,326.27745994627475L1080.885,326.3509715169668L1082.09,326.1097453057766L1083.295,326.39413302093743L1084.5,326.4927408143878L1085.705,326.2751322582364L1086.91,326.1634651914239L1088.115,325.9121579647064L1089.32,325.7819890871644L1090.525,326.3722107902169L1091.73,326.1040943607688L1092.935,325.65390851050614L1094.14,325.73796860575675L1095.345,325.96143510639666L1096.55,326.21508128643035L1097.7549999999999,326.4714170515537L1098.96,325.8889627575874L1100.165,326.26511179357766L1101.3700000000001,326.11051275283097L1102.575,325.58077291846274L1103.78,326.3372954696417L1104.985,326.4371635660529L1106.19,326.20876991450785L1107.395,325.6938706755638L1108.6000000000001,326.1296510517597L1109.8049999999998,326.2909318104386L1111.01,326.4205360159278L1112.215,326.4636073976755L1113.42,326.46963713765143L1114.625,325.95750352442263L1115.83,325.5726070001721L1117.0349999999999,326.2362191721797L1118.24,325.4467766627669L1119.445,325.42300270199775L1120.65,326.1695766046643L1121.855,325.6672212526202L1123.06,325.85983074903487L1124.2649999999999,325.2857578217983L1125.47,326.0250726610422L1126.675,326.09292906224726L1127.88,325.53151549100875L1129.085,325.58536492735146L1130.29,325.9108188048005L1131.495,325.6874438345432L1132.7,325.88641962110995L1133.905,325.7040953233838L1135.1100000000001,325.5628822490573L1136.315,325.87374899983405L1137.52,326.3962480768561L1138.725,326.1514507725835L1139.93,326.4245478630066L1141.135,326.54158987551926L1142.3400000000001,326.24079991579055L1143.545,326.0642335832119L1144.75,325.66791406720876L1145.955,325.87441928386687L1147.16,325.98569065779446L1148.365,326.0289507329464L1149.5700000000002,325.7770253241062L1150.7749999999999,325.95880888849496L1151.98,326.45131134688853L1153.185,326.56253202706574L1154.39,326.3987475603819L1155.595,325.9720906510949L1156.8,326.0903985992074L1158.0049999999999,325.91564738452433L1159.21,326.11587502509354L1160.415,325.9580696046352L1161.6200000000001,325.1560522288084L1162.825,326.3732190325856L1164.03,326.45970397889613L1165.235,326.51979297101497L1166.44,326.40380567014216L1167.645,325.5644706532359L1168.85,325.3625701189041L1170.055,326.23828212618827L1171.26,326.5297190889716L1172.465,326.0399709910154L1173.67,326.5967657983303L1174.875,325.73238243609666L1176.08,325.6777979403734L1177.285,325.9871128991246L1178.49,326.32728063762187L1179.695,326.372574095428L1180.9,326.40708668231963L1182.105,326.39275302439927L1183.31,326.46812336593865L1184.515,325.56738695204257L1185.72,326.12201037704943L1186.925,325.8167438775301L1188.1299999999999,326.05693790763615L1189.335,326.28468662202357L1190.54,326.0406652137637L1191.7450000000001,325.94600871652364L1192.95,325.9720526307821L1194.155,325.6497107863426L1195.36,326.08435618579387L1196.565,326.1901723489165L1197.77,326.01102345138787L1198.9750000000001,325.8130249276757L1200.1799999999998,325.69870770424603L1201.385,325.7890946611762L1202.59,325.31610648036L1203.795,326.38753156811L1205,326.52727029919623L1206.205,325.5913383409381L1207.4099999999999,326.54733094274997L1208.615,326.511881929636L1209.82,326.42414794564246L1211.025,325.85436849743127L1212.23,325.94135897308587L1213.435,326.2235837548971L1214.6399999999999,326.11598345339297L1215.845,326.04445175528525L1217.05,325.94188984930514L1218.255,326.106596660614L1219.46,325.5960373699665L1220.665,326.7010611489415L1221.87,326.26615383177995L1223.075,326.60724109858273L1224.28,325.87418271303176L1225.4850000000001,325.8165425106883L1226.69,326.0511137589812L1227.895,326.41748312562703L1229.1,326.25964531749486L1230.305,326.0692846521735L1231.51,325.6866482242942L1232.7150000000001,325.7353156328201L1233.92,326.20780391693114L1235.125,326.0289225697517L1236.33,326.1062868654728L1237.535,325.6867834076285L1238.74,325.99281312972306L1239.9450000000002,326.1748290404677L1241.1499999999999,326.3318219527602L1242.355,326.2250257104635L1243.56,326.02509096711873L1244.765,326.21102719455956L1245.97,326.4934279963374L1247.175,325.8000797152519L1248.3799999999999,326.00243226885794L1249.585,326.1861971139908L1250.79,325.9783583700657L1251.9950000000001,326.3623029783368L1253.2,326.58681010901927L1254.405,325.95939609110354L1255.61,325.9775402292609L1256.815,326.56813087016343L1258.02,326.575749014318L1259.225,326.58571033626794L1260.43,326.6018802344799L1261.635,326.4696793824434L1262.84,326.1530011564493L1264.045,325.8967526972294L1265.25,326.1114632606506L1266.455,325.8864463761449L1267.66,326.27421132177113L1268.865,326.3392232403159L1270.07,325.68061425983905L1271.275,326.11122809797524L1272.48,325.9480054870248L1273.685,326.17038911283015L1274.89,326.52499752938746L1276.095,326.39468220323323L1277.3,326.11547651588916L1278.5049999999999,325.9431839480996L1279.71,326.2182792171836L1280.915,325.9416983395815L1282.1200000000001,325.78015566319226L1283.325,326.03304284512996L1284.53,326.5154811859131L1285.735,326.23572913259267L1286.94,326.3406778693199L1288.145,326.4339036762714L1289.3500000000001,326.27894555479287L1290.5549999999998,325.42012301534413L1291.76,326.19696249514817L1292.965,325.73106017410754L1294.17,326.51876642256974L1295.375,326.32652023136615L1296.58,326.14802190363406L1297.7849999999999,325.9789610624313L1298.99,326.59024179428815L1300.195,326.22496797591447L1301.4,326.15255758613347L1302.605,326.01951747089623L1303.81,326.4067332342267L1305.0149999999999,326.1267037734389L1306.22,326.07623673677443L1307.425,325.6638923630118L1308.63,326.32245769053696L1309.835,326.6466019794345L1311.04,326.5613125607371L1312.245,326.65048427581786L1313.45,325.5725886940956L1314.655,325.85558233112096L1315.8600000000001,326.119751688838L1317.065,326.66609372645615L1318.27,326.0054175674915L1319.475,326.54921787679194L1320.68,326.65066874474286L1321.885,326.5899911418557L1323.0900000000001,326.4471093982458L1324.295,326.2677520930767" style="fill: none;" fill="none"></path></g></g></g></g></g></g><g transform="translate(50, 378)" clip-path="url(#clip_1)"><clipPath id="clip_1"><rect width="1446" height="22"></rect></clipPath><g><g><line x1="0" y1="0" x2="0" y2="5" style="visibility: inherit;" fill="rgb(0, 0, 0)" stroke="rgb(204, 204, 204)" stroke-width="1px"></line><line x1="120.5" y1="0" x2="120.5" y2="5" style="visibility: inherit;" fill="rgb(0, 0, 0)" stroke="rgb(204, 204, 204)" stroke-width="1px"></line><line x1="241" y1="0" x2="241" y2="5" style="visibility: inherit;" fill="rgb(0, 0, 0)" stroke="rgb(204, 204, 204)" stroke-width="1px"></line><line x1="361.5" y1="0" x2="361.5" y2="5" style="visibility: inherit;" fill="rgb(0, 0, 0)" stroke="rgb(204, 204, 204)" stroke-width="1px"></line><line x1="482" y1="0" x2="482" y2="5" style="visibility: inherit;" fill="rgb(0, 0, 0)" stroke="rgb(204, 204, 204)" stroke-width="1px"></line><line x1="602.5" y1="0" x2="602.5" y2="5" style="visibility: inherit;" fill="rgb(0, 0, 0)" stroke="rgb(204, 204, 204)" stroke-width="1px"></line><line x1="723" y1="0" x2="723" y2="5" style="visibility: inherit;" fill="rgb(0, 0, 0)" stroke="rgb(204, 204, 204)" stroke-width="1px"></line><line x1="843.5" y1="0" x2="843.5" y2="5" style="visibility: inherit;" fill="rgb(0, 0, 0)" stroke="rgb(204, 204, 204)" stroke-width="1px"></line><line x1="964" y1="0" x2="964" y2="5" style="visibility: inherit;" fill="rgb(0, 0, 0)" stroke="rgb(204, 204, 204)" stroke-width="1px"></line><line x1="1084.5" y1="0" x2="1084.5" y2="5" style="visibility: inherit;" fill="rgb(0, 0, 0)" stroke="rgb(204, 204, 204)" stroke-width="1px"></line><line x1="1205" y1="0" x2="1205" y2="5" style="visibility: inherit;" fill="rgb(0, 0, 0)" stroke="rgb(204, 204, 204)" stroke-width="1px"></line><line x1="1325.5" y1="0" x2="1325.5" y2="5" style="visibility: inherit;" fill="rgb(0, 0, 0)" stroke="rgb(204, 204, 204)" stroke-width="1px"></line><line x1="1446" y1="0" x2="1446" y2="5" style="visibility: inherit;" fill="rgb(0, 0, 0)" stroke="rgb(204, 204, 204)" stroke-width="1px"></line></g><g transform="translate(0, 8)"><text x="0" y="0" dx="0em" dy="0.95em" style="text-anchor: middle; visibility: hidden; font-family: Roboto, sans-serif; font-size: 12px; font-weight: 200;" fill="rgb(50, 49, 63)" stroke="none" stroke-width="1px">-100</text><text x="120.5" y="0" dx="0em" dy="0.95em" style="text-anchor: middle; visibility: inherit; font-family: Roboto, sans-serif; font-size: 12px; font-weight: 200;" fill="rgb(50, 49, 63)" stroke="none" stroke-width="1px">0</text><text x="241" y="0" dx="0em" dy="0.95em" style="text-anchor: middle; visibility: inherit; font-family: Roboto, sans-serif; font-size: 12px; font-weight: 200;" fill="rgb(50, 49, 63)" stroke="none" stroke-width="1px">100</text><text x="361.5" y="0" dx="0em" dy="0.95em" style="text-anchor: middle; visibility: inherit; font-family: Roboto, sans-serif; font-size: 12px; font-weight: 200;" fill="rgb(50, 49, 63)" stroke="none" stroke-width="1px">200</text><text x="482" y="0" dx="0em" dy="0.95em" style="text-anchor: middle; visibility: inherit; font-family: Roboto, sans-serif; font-size: 12px; font-weight: 200;" fill="rgb(50, 49, 63)" stroke="none" stroke-width="1px">300</text><text x="602.5" y="0" dx="0em" dy="0.95em" style="text-anchor: middle; visibility: inherit; font-family: Roboto, sans-serif; font-size: 12px; font-weight: 200;" fill="rgb(50, 49, 63)" stroke="none" stroke-width="1px">400</text><text x="723" y="0" dx="0em" dy="0.95em" style="text-anchor: middle; visibility: inherit; font-family: Roboto, sans-serif; font-size: 12px; font-weight: 200;" fill="rgb(50, 49, 63)" stroke="none" stroke-width="1px">500</text><text x="843.5" y="0" dx="0em" dy="0.95em" style="text-anchor: middle; visibility: inherit; font-family: Roboto, sans-serif; font-size: 12px; font-weight: 200;" fill="rgb(50, 49, 63)" stroke="none" stroke-width="1px">600</text><text x="964" y="0" dx="0em" dy="0.95em" style="text-anchor: middle; visibility: inherit; font-family: Roboto, sans-serif; font-size: 12px; font-weight: 200;" fill="rgb(50, 49, 63)" stroke="none" stroke-width="1px">700</text><text x="1084.5" y="0" dx="0em" dy="0.95em" style="text-anchor: middle; visibility: inherit; font-family: Roboto, sans-serif; font-size: 12px; font-weight: 200;" fill="rgb(50, 49, 63)" stroke="none" stroke-width="1px">800</text><text x="1205" y="0" dx="0em" dy="0.95em" style="text-anchor: middle; visibility: inherit; font-family: Roboto, sans-serif; font-size: 12px; font-weight: 200;" fill="rgb(50, 49, 63)" stroke="none" stroke-width="1px">900</text><text x="1325.5" y="0" dx="0em" dy="0.95em" style="text-anchor: middle; visibility: inherit; font-family: Roboto, sans-serif; font-size: 12px; font-weight: 200;" fill="rgb(50, 49, 63)" stroke="none" stroke-width="1px">1k</text><text x="1446" y="0" dx="0em" dy="0.95em" style="text-anchor: middle; visibility: hidden; font-family: Roboto, sans-serif; font-size: 12px; font-weight: 200;" fill="rgb(50, 49, 63)" stroke="none" stroke-width="1px">1.1k</text></g><line x1="0" y1="0" x2="1446" y2="0" fill="rgb(0, 0, 0)" stroke="rgb(204, 204, 204)" stroke-width="1px"></line></g></g></g></g></svg>