<svg viewBox="0 0 1496 400" xmlns="http://www.w3.org/2000/svg"><g><g><g><g><g><line x1="60" y1="378" x2="55" y2="378" style="visibility: inherit;" fill="rgb(0, 0, 0)" stroke="rgb(204, 204, 204)" stroke-width="1px"></line><line x1="60" y1="352.79999999999995" x2="55" y2="352.79999999999995" style="visibility: inherit;" fill="rgb(0, 0, 0)" stroke="rgb(204, 204, 204)" stroke-width="1px"></line><line x1="60" y1="327.6" x2="55" y2="327.6" style="visibility: inherit;" fill="rgb(0, 0, 0)" stroke="rgb(204, 204, 204)" stroke-width="1px"></line><line x1="60" y1="302.40000000000003" x2="55" y2="302.40000000000003" style="visibility: inherit;" fill="rgb(0, 0, 0)" stroke="rgb(204, 204, 204)" stroke-width="1px"></line><line x1="60" y1="277.2" x2="55" y2="277.2" style="visibility: inherit;" fill="rgb(0, 0, 0)" stroke="rgb(204, 204, 204)" stroke-width="1px"></line><line x1="60" y1="252" x2="55" y2="252" style="visibility: inherit;" fill="rgb(0, 0, 0)" stroke="rgb(204, 204, 204)" stroke-width="1px"></line><line x1="60" y1="226.79999999999998" x2="55" y2="226.79999999999998" style="visibility: inherit;" fill="rgb(0, 0, 0)" stroke="rgb(204, 204, 204)" stroke-width="1px"></line><line x1="60" y1="201.59999999999997" x2="55" y2="201.59999999999997" style="visibility: inherit;" fill="rgb(0, 0, 0)" stroke="rgb(204, 204, 204)" stroke-width="1px"></line><line x1="60" y1="176.4" x2="55" y2="176.4" style="visibility: inherit;" fill="rgb(0, 0, 0)" stroke="rgb(204, 204, 204)" stroke-width="1px"></line><line x1="60" y1="151.20000000000002" x2="55" y2="151.20000000000002" style="visibility: inherit;" fill="rgb(0, 0, 0)" stroke="rgb(204, 204, 204)" stroke-width="1px"></line><line x1="60" y1="125.99999999999997" x2="55" y2="125.99999999999997" style="visibility: inherit;" fill="rgb(0, 0, 0)" stroke="rgb(204, 204, 204)" stroke-width="1px"></line><line x1="60" y1="100.79999999999998" x2="55" y2="100.79999999999998" style="visibility: inherit;" fill="rgb(0, 0, 0)" stroke="rgb(204, 204, 204)" stroke-width="1px"></line><line x1="60" y1="75.59999999999998" x2="55" y2="75.59999999999998" style="visibility: inherit;" fill="rgb(0, 0, 0)" stroke="rgb(204, 204, 204)" stroke-width="1px"></line><line x1="60" y1="50.39999999999999" x2="55" y2="50.39999999999999" style="visibility: inherit;" fill="rgb(0, 0, 0)" stroke="rgb(204, 204, 204)" stroke-width="1px"></line><line x1="60" y1="25.199999999999953" x2="55" y2="25.199999999999953" style="visibility: inherit;" fill="rgb(0, 0, 0)" stroke="rgb(204, 204, 204)" stroke-width="1px"></line><line x1="60" y1="0" x2="55" y2="0" style="visibility: inherit;" fill="rgb(0, 0, 0)" stroke="rgb(204, 204, 204)" stroke-width="1px"></line></g><g transform="translate(50, 0)"><text x="0" y="378" dx="0em" dy="0.3em" style="text-anchor: end; visibility: hidden; font-family: Roboto, sans-serif; font-size: 12px; font-weight: 200;" fill="rgb(50, 49, 63)" stroke="none" stroke-width="1px">-0.32</text><text x="0" y="352.79999999999995" dx="0em" dy="0.3em" style="text-anchor: end; visibility: inherit; font-family: Roboto, sans-serif; font-size: 12px; font-weight: 200;" fill="rgb(50, 49, 63)" stroke="none" stroke-width="1px">-0.3</text><text x="0" y="327.6" dx="0em" dy="0.3em" style="text-anchor: end; visibility: inherit; font-family: Roboto, sans-serif; font-size: 12px; font-weight: 200;" fill="rgb(50, 49, 63)" stroke="none" stroke-width="1px">-0.28</text><text x="0" y="302.40000000000003" dx="0em" dy="0.3em" style="text-anchor: end; visibility: inherit; font-family: Roboto, sans-serif; font-size: 12px; font-weight: 200;" fill="rgb(50, 49, 63)" stroke="none" stroke-width="1px">-0.26</text><text x="0" y="277.2" dx="0em" dy="0.3em" style="text-anchor: end; visibility: inherit; font-family: Roboto, sans-serif; font-size: 12px; font-weight: 200;" fill="rgb(50, 49, 63)" stroke="none" stroke-width="1px">-0.24</text><text x="0" y="252" dx="0em" dy="0.3em" style="text-anchor: end; visibility: inherit; font-family: Roboto, sans-serif; font-size: 12px; font-weight: 200;" fill="rgb(50, 49, 63)" stroke="none" stroke-width="1px">-0.22</text><text x="0" y="226.79999999999998" dx="0em" dy="0.3em" style="text-anchor: end; visibility: inherit; font-family: Roboto, sans-serif; font-size: 12px; font-weight: 200;" fill="rgb(50, 49, 63)" stroke="none" stroke-width="1px">-0.2</text><text x="0" y="201.59999999999997" dx="0em" dy="0.3em" style="text-anchor: end; visibility: inherit; font-family: Roboto, sans-serif; font-size: 12px; font-weight: 200;" fill="rgb(50, 49, 63)" stroke="none" stroke-width="1px">-0.18</text><text x="0" y="176.4" dx="0em" dy="0.3em" style="text-anchor: end; visibility: inherit; font-family: Roboto, sans-serif; font-size: 12px; font-weight: 200;" fill="rgb(50, 49, 63)" stroke="none" stroke-width="1px">-0.16</text><text x="0" y="151.20000000000002" dx="0em" dy="0.3em" style="text-anchor: end; visibility: inherit; font-family: Roboto, sans-serif; font-size: 12px; font-weight: 200;" fill="rgb(50, 49, 63)" stroke="none" stroke-width="1px">-0.14</text><text x="0" y="125.99999999999997" dx="0em" dy="0.3em" style="text-anchor: end; visibility: inherit; font-family: Roboto, sans-serif; font-size: 12px; font-weight: 200;" fill="rgb(50, 49, 63)" stroke="none" stroke-width="1px">-0.12</text><text x="0" y="100.79999999999998" dx="0em" dy="0.3em" style="text-anchor: end; visibility: inherit; font-family: Roboto, sans-serif; font-size: 12px; font-weight: 200;" fill="rgb(50, 49, 63)" stroke="none" stroke-width="1px">-0.1</text><text x="0" y="75.59999999999998" dx="0em" dy="0.3em" style="text-anchor: end; visibility: inherit; font-family: Roboto, sans-serif; font-size: 12px; font-weight: 200;" fill="rgb(50, 49, 63)" stroke="none" stroke-width="1px">-0.08</text><text x="0" y="50.39999999999999" dx="0em" dy="0.3em" style="text-anchor: end; visibility: inherit; font-family: Roboto, sans-serif; font-size: 12px; font-weight: 200;" fill="rgb(50, 49, 63)" stroke="none" stroke-width="1px">-0.06</text><text x="0" y="25.199999999999953" dx="0em" dy="0.3em" style="text-anchor: end; visibility: inherit; font-family: Roboto, sans-serif; font-size: 12px; font-weight: 200;" fill="rgb(50, 49, 63)" stroke="none" stroke-width="1px">-0.04</text><text x="0" y="0" dx="0em" dy="0.3em" style="text-anchor: end; visibility: hidden; font-family: Roboto, sans-serif; font-size: 12px; font-weight: 200;" fill="rgb(50, 49, 63)" stroke="none" stroke-width="1px">-0.02</text></g><line x1="60" y1="0" x2="60" y2="378" fill="rgb(0, 0, 0)" stroke="rgb(204, 204, 204)" stroke-width="1px"></line></g></g><g transform="translate(60, 0)" clip-path="url(#clip_0)"><clipPath id="clip_0"><rect width="1436" height="378"></rect></clipPath><g><g><g><line x1="0" y1="0" x2="0" y2="378" fill="rgb(0, 0, 0)" stroke="rgb(60, 60, 60)" stroke-width="1px" opacity="0.25"></line><line x1="119.66666666666666" y1="0" x2="119.66666666666666" y2="378" fill="rgb(0, 0, 0)" stroke="rgb(60, 60, 60)" stroke-width="1px" opacity="0.25"></line><line x1="239.33333333333331" y1="0" x2="239.33333333333331" y2="378" fill="rgb(0, 0, 0)" stroke="rgb(60, 60, 60)" stroke-width="1px" opacity="0.25"></line><line x1="359" y1="0" x2="359" y2="378" fill="rgb(0, 0, 0)" stroke="rgb(60, 60, 60)" stroke-width="1px" opacity="0.25"></line><line x1="478.66666666666663" y1="0" x2="478.66666666666663" y2="378" fill="rgb(0, 0, 0)" stroke="rgb(60, 60, 60)" stroke-width="1px" opacity="0.25"></line><line x1="598.3333333333334" y1="0" x2="598.3333333333334" y2="378" fill="rgb(0, 0, 0)" stroke="rgb(60, 60, 60)" stroke-width="1px" opacity="0.25"></line><line x1="718" y1="0" x2="718" y2="378" fill="rgb(0, 0, 0)" stroke="rgb(60, 60, 60)" stroke-width="1px" opacity="0.25"></line><line x1="837.6666666666667" y1="0" x2="837.6666666666667" y2="378" fill="rgb(0, 0, 0)" stroke="rgb(60, 60, 60)" stroke-width="1px" opacity="0.25"></line><line x1="957.3333333333333" y1="0" x2="957.3333333333333" y2="378" fill="rgb(0, 0, 0)" stroke="rgb(60, 60, 60)" stroke-width="1px" opacity="0.25"></line><line x1="1077" y1="0" x2="1077" y2="378" fill="rgb(0, 0, 0)" stroke="rgb(60, 60, 60)" stroke-width="1px" opacity="0.25"></line><line x1="1196.6666666666667" y1="0" x2="1196.6666666666667" y2="378" fill="rgb(0, 0, 0)" stroke="rgb(60, 60, 60)" stroke-width="1px" opacity="0.25"></line><line x1="1316.3333333333333" y1="0" x2="1316.3333333333333" y2="378" fill="rgb(0, 0, 0)" stroke="rgb(60, 60, 60)" stroke-width="1px" opacity="0.25"></line><line x1="1436" y1="0" x2="1436" y2="378" fill="rgb(0, 0, 0)" stroke="rgb(60, 60, 60)" stroke-width="1px" opacity="0.25"></line></g><g><line x1="0" y1="378" x2="1436" y2="378" fill="rgb(0, 0, 0)" stroke="rgb(60, 60, 60)" stroke-width="1px" opacity="0.25"></line><line x1="0" y1="352.79999999999995" x2="1436" y2="352.79999999999995" fill="rgb(0, 0, 0)" stroke="rgb(60, 60, 60)" stroke-width="1px" opacity="0.25"></line><line x1="0" y1="327.6" x2="1436" y2="327.6" fill="rgb(0, 0, 0)" stroke="rgb(60, 60, 60)" stroke-width="1px" opacity="0.25"></line><line x1="0" y1="302.40000000000003" x2="1436" y2="302.40000000000003" fill="rgb(0, 0, 0)" stroke="rgb(60, 60, 60)" stroke-width="1px" opacity="0.25"></line><line x1="0" y1="277.2" x2="1436" y2="277.2" fill="rgb(0, 0, 0)" stroke="rgb(60, 60, 60)" stroke-width="1px" opacity="0.25"></line><line x1="0" y1="252" x2="1436" y2="252" fill="rgb(0, 0, 0)" stroke="rgb(60, 60, 60)" stroke-width="1px" opacity="0.25"></line><line x1="0" y1="226.79999999999998" x2="1436" y2="226.79999999999998" fill="rgb(0, 0, 0)" stroke="rgb(60, 60, 60)" stroke-width="1px" opacity="0.25"></line><line x1="0" y1="201.59999999999997" x2="1436" y2="201.59999999999997" fill="rgb(0, 0, 0)" stroke="rgb(60, 60, 60)" stroke-width="1px" opacity="0.25"></line><line x1="0" y1="176.4" x2="1436" y2="176.4" fill="rgb(0, 0, 0)" stroke="rgb(60, 60, 60)" stroke-width="1px" opacity="0.25"></line><line x1="0" y1="151.20000000000002" x2="1436" y2="151.20000000000002" fill="rgb(0, 0, 0)" stroke="rgb(60, 60, 60)" stroke-width="1px" opacity="0.25"></line><line x1="0" y1="125.99999999999997" x2="1436" y2="125.99999999999997" fill="rgb(0, 0, 0)" stroke="rgb(60, 60, 60)" stroke-width="1px" opacity="0.25"></line><line x1="0" y1="100.79999999999998" x2="1436" y2="100.79999999999998" fill="rgb(0, 0, 0)" stroke="rgb(60, 60, 60)" stroke-width="1px" opacity="0.25"></line><line x1="0" y1="75.59999999999998" x2="1436" y2="75.59999999999998" fill="rgb(0, 0, 0)" stroke="rgb(60, 60, 60)" stroke-width="1px" opacity="0.25"></line><line x1="0" y1="50.39999999999999" x2="1436" y2="50.39999999999999" fill="rgb(0, 0, 0)" stroke="rgb(60, 60, 60)" stroke-width="1px" opacity="0.25"></line><line x1="0" y1="25.199999999999953" x2="1436" y2="25.199999999999953" fill="rgb(0, 0, 0)" stroke="rgb(60, 60, 60)" stroke-width="1px" opacity="0.25"></line><line x1="0" y1="0" x2="1436" y2="0" fill="rgb(0, 0, 0)" stroke="rgb(60, 60, 60)" stroke-width="1px" opacity="0.25"></line></g></g></g><g><g><line x1="0" y1="-25.199999999999996" x2="1436" y2="-25.199999999999996" fill="rgb(0, 0, 0)" stroke="rgb(153, 153, 153)" stroke-width="1.5px"></line></g></g><g><g><line x1="119.66666666666666" y1="0" x2="119.66666666666666" y2="378" fill="rgb(0, 0, 0)" stroke="rgb(153, 153, 153)" stroke-width="1.5px"></line></g></g><g><g><g><g><g><path stroke="rgb(0, 119, 187)" stroke-width="2px" d="M119.66666666666666,312.65860061645503L120.86333333333333,206.85751419067384L122.06,204.85920410156248L123.25666666666666,163.84698371887205L124.45333333333333,144.62751846313475L125.64999999999999,144.07296638488765L126.84666666666666,162.3665760040283L128.04333333333335,128.00477485656737L129.24,117.10419158935545L130.43666666666667,145.29502372741695L131.63333333333333,143.70646934509276L132.83,109.75442390441891L134.02666666666667,108.51734619140623L135.22333333333333,86.90303306579587L136.42,87.98870544433593L137.61666666666667,117.45386581420897L138.81333333333333,238.6340091705322L140.01,86.94749336242674L141.20666666666665,90.03387908935544L142.40333333333334,85.8984706878662L143.6,95.1083610534668L144.79666666666665,95.51811676025389L145.99333333333334,87.94184188842773L147.19,78.23087196350096L148.38666666666666,79.81041412353512L149.58333333333334,75.86546401977539L150.78,64.3454406738281L151.97666666666666,73.74819259643553L153.17333333333335,80.52298049926758L154.37,69.31417922973631L155.56666666666666,73.6490581512451L156.76333333333332,83.70729904174802L157.96,60.1307247161865L159.15666666666667,135.07276039123533L160.35333333333332,52.90953140258788L161.55,63.82873992919921L162.74666666666667,50.29178123474117L163.94333333333333,93.82982711791989L165.14000000000001,69.1099021911621L166.33666666666667,125.87608795166015L167.53333333333333,90.52714805603026L168.73,51.83647613525387L169.92666666666668,59.75281219482418L171.12333333333333,66.26264076232908L172.32,70.30972938537595L173.51666666666668,40.17195682525631L174.71333333333334,79.67342834472653L175.91,124.10128097534178L177.10666666666668,51.26269798278806L178.3033333333333,77.76884536743164L179.5,68.44720344543455L180.69666666666666,52.126068878173804L181.89333333333335,61.16472702026366L183.09,62.31108169555663L184.28666666666666,51.44865016937255L185.48333333333335,60.57112197875973L186.68,74.1789768218994L187.87666666666667,60.180592346191396L189.07333333333332,87.27493743896484L190.27,46.438755798339834L191.46666666666667,67.79111366271971L192.66333333333333,99.96715049743649L193.86,78.60878448486328L195.05666666666667,63.71188144683834L196.25333333333333,71.69460754394531L197.45000000000002,52.59650688171384L198.64666666666668,68.62925033569334L199.84333333333333,86.8886135101318L201.04000000000002,57.16570358276365L202.23666666666668,113.64650230407715L203.43333333333334,45.40595512390136L204.63,71.72675113677977L205.82666666666668,118.22951774597165L207.02333333333334,64.27905063629149L208.22,73.49434833526611L209.41666666666669,88.80851726531981L210.61333333333334,48.524784851074195L211.81,89.93053894042967L213.0066666666667,91.21748428344725L214.20333333333335,104.81512527465819L215.4,101.45657043457031L216.5966666666667,84.52380638122555L217.79333333333335,101.7921255111694L218.99,69.20723419189453L220.18666666666664,72.18817691802977L221.38333333333335,72.82684307098386L222.58,102.21750240325925L223.77666666666664,104.60694293975828L224.97333333333336,88.67844085693356L226.17,127.86538581848141L227.36666666666665,78.84971122741696L228.56333333333336,98.52849941253662L229.76,66.38821105957031L230.95666666666665,87.24669914245604L232.1533333333333,76.19651298522946L233.35,96.75158958435055L234.54666666666665,50.532407569885216L235.7433333333333,86.87359313964842L236.94,100.71846942901611L238.13666666666666,108.18149070739746L239.33333333333331,94.30537204742431L240.53,71.74177150726315L241.72666666666666,115.7541606903076L242.92333333333332,87.98780422210693L244.12,61.72048072814939L245.31666666666666,85.74676494598386L246.51333333333332,84.67911701202391L247.70999999999998,101.88735466003418L248.90666666666667,96.74407939910888L250.10333333333332,123.74680023193356L251.29999999999998,81.13070468902585L252.49666666666667,111.02424602508542L253.69333333333333,112.92552452087402L254.89,80.91411094665527L256.0866666666667,72.34258632659912L257.28333333333336,116.99153881072996L258.48,89.59738712310791L259.6766666666667,88.52102737426756L260.87333333333333,96.74828510284422L262.07,112.0579479217529L263.26666666666665,107.64255981445312L264.46333333333337,113.10036163330078L265.66,110.39038639068603L266.8566666666666,73.50486259460448L268.05333333333334,99.7421453475952L269.25,66.58017139434814L270.44666666666666,100.30721168518065L271.6433333333334,77.23742465972897L272.84,86.2454412460327L274.03666666666663,83.10408096313476L275.23333333333335,101.24328117370602L276.43,120.64959983825682L277.62666666666667,94.72053508758543L278.8233333333333,92.7552698135376L280.02,106.55688743591305L281.21666666666664,108.50352745056149L282.4133333333333,86.96221332550049L283.61,109.2482374191284L284.8066666666667,119.52787857055664L286.00333333333333,64.96488075256346L287.2,63.72239570617675L288.39666666666665,68.20687751770019L289.5933333333333,78.50844841003416L290.79,121.51297073364256L291.9866666666667,99.15875415801999L293.18333333333334,79.35439567565915L294.38,131.1398265838623L295.57666666666665,111.50730113983151L296.7733333333333,109.52130775451658L297.96999999999997,104.1941831588745L299.1666666666667,97.33858566284178L300.36333333333334,78.56612663269041L301.56,76.9661567687988L302.75666666666666,122.29342918395994L303.9533333333333,102.46924381256102L305.15,104.26267604827879L306.3466666666667,120.65831165313718L307.54333333333335,100.11795501708983L308.74,92.26290206909178L309.93666666666667,75.11384468078613L311.1333333333333,76.6032646179199L312.33,76.17758731842038L313.52666666666664,108.43383293151855L314.72333333333336,65.1820753097534L315.92,120.3185508728027L317.1166666666667,68.2789752960205L318.31333333333333,94.65774993896484L319.51,105.31350116729735L320.70666666666665,75.50767879486084L321.9033333333333,122.25377540588377L323.1,88.6162565231323L324.2966666666667,80.8696506500244L325.49333333333334,87.07877140045163L326.69,95.56948642730711L327.88666666666666,74.11228637695311L329.0833333333333,72.32996921539306L330.28000000000003,97.01114158630368L331.4766666666667,71.47290687561035L332.67333333333335,82.71265010833739L333.87,97.40828018188476L335.06666666666666,65.95802764892576L336.2633333333333,122.19489555358884L337.46,92.59935836791992L338.6566666666667,75.0970218658447L339.85333333333335,100.01010875701904L341.05,98.14337711334227L342.24666666666667,95.62295894622802L343.4433333333333,113.68405323028563L344.64,123.86576156616208L345.8366666666667,101.15646343231201L347.03333333333336,100.35647850036618L348.23,94.0914819717407L349.4266666666667,63.57579689025875L350.62333333333333,98.66668682098386L351.82,99.65833168029783L353.01666666666665,74.22734241485593L354.21333333333337,73.71574859619139L355.41,102.57588844299316L356.6066666666666,76.56301002502441L357.80333333333334,102.12197284698483L359,87.04963188171386L360.1966666666667,76.40890102386474L361.3933333333333,88.68414859771727L362.59,78.4979341506958L363.7866666666667,105.65866928100584L364.9833333333333,83.1299160003662L366.18,80.47731857299802L367.3766666666667,111.42889480590817L368.5733333333333,112.99281578063963L369.77,82.9526756286621L370.9666666666667,160.92011432647703L372.1633333333333,91.95408325195312L373.36,102.57859210968017L374.5566666666666,76.31817798614499L375.75333333333333,72.78779010772705L376.95,104.36781864166257L378.14666666666665,124.46056823730466L379.3433333333333,80.67048053741453L380.54,142.73645381927486L381.7366666666666,93.73129348754883L382.93333333333334,99.40328578948973L384.13,110.0323007583618L385.32666666666665,79.76925830841063L386.5233333333333,65.01625041961668L387.72,95.19938449859619L388.91666666666663,109.52220897674559L390.11333333333334,73.30358963012692L391.31,115.83677272796628L392.50666666666666,112.23188381195065L393.7033333333333,93.20377807617186L394.90000000000003,81.88803176879881L396.09666666666664,115.61597328186032L397.29333333333335,108.305859375L398.49,78.95215015411377L399.68666666666667,76.10008220672604L400.8833333333333,88.81212215423582L402.08000000000004,75.05887012481689L403.27666666666664,102.26166229248044L404.47333333333336,61.01272087097164L405.66999999999996,89.78994827270506L406.8666666666667,85.28744201660155L408.06333333333333,62.67607669830321L409.26,89.5721529006958L410.45666666666665,99.83647327423093L411.65333333333336,134.17754631042476L412.84999999999997,103.34793548583983L414.0466666666667,98.03462963104248L415.24333333333334,123.70203952789305L416.44,94.43544845581052L417.63666666666666,78.40330581665039L418.83333333333337,81.06641750335693L420.03,93.46813659667968L421.2266666666667,98.93615226745602L422.42333333333335,77.65559177398679L423.62,126.8067501068115L424.81666666666666,91.64826850891112L426.0133333333334,98.772430229187L427.21,93.09563140869139L428.4066666666667,91.66689376831052L429.60333333333335,90.99067668914795L430.8,94.29155330657957L431.99666666666667,77.37561206817625L433.1933333333334,96.96427803039548L434.39,126.31257991790768L435.5866666666667,74.10357456207275L436.7833333333333,96.1952350616455L437.98,96.27304058074948L439.1766666666667,77.74030666351315L440.3733333333333,81.13551120758055L441.57,94.30026512145993L442.7666666666667,89.2260835647583L443.9633333333333,84.17563419342041L445.16,79.29401378631589L446.3566666666667,101.5388820648193L447.5533333333333,112.14716892242429L448.75,100.40904979705809L449.9466666666667,89.52018241882321L451.1433333333333,90.47487716674803L452.34,92.02167491912842L453.5366666666667,74.76447086334225L454.7333333333333,95.0398681640625L455.93,83.4261177062988L457.1266666666667,95.62896709442137L458.3233333333333,96.82158451080322L459.52,113.55037193298337L460.7166666666667,88.01363925933836L461.9133333333333,82.78925399780272L463.11,94.08697586059569L464.3066666666666,68.54002933502196L465.50333333333333,131.48229103088377L466.7,83.6147735595703L467.89666666666665,86.59781913757323L469.0933333333333,86.62095050811764L470.29,92.95263748168945L471.4866666666666,71.33261661529538L472.68333333333334,138.28651885986326L473.88,90.05370597839352L475.07666666666665,77.50869255065915L476.2733333333333,92.76398162841795L477.47,83.46697311401365L478.66666666666663,126.37386302947995L479.86333333333334,120.9920642852783L481.06,110.05513172149658L482.25666666666666,104.55196838378905L483.4533333333333,119.93463020324704L484.65000000000003,105.4591987609863L485.84666666666664,83.52705459594723L487.04333333333335,103.74837856292724L488.24,83.4074924468994L489.43666666666667,81.66452865600584L490.6333333333333,76.38066272735594L491.83000000000004,111.63106899261473L493.02666666666664,82.72166233062742L494.22333333333336,78.26361637115478L495.41999999999996,103.96256904602049L496.6166666666667,67.35762577056883L497.81333333333333,106.19609813690185L499.01,123.99223308563231L500.20666666666665,122.41389255523679L501.40333333333336,100.00860671997067L502.59999999999997,84.9990509033203L503.7966666666667,61.276178169250464L504.99333333333334,112.1742055892944L506.19,84.50908641815185L507.38666666666666,99.97045497894287L508.58333333333337,85.03870468139647L509.78,70.7378099441528L510.9766666666667,72.49699573516843L512.1733333333334,125.98393421173094L513.37,86.85917358398436L514.5666666666667,86.85436706542966L515.7633333333333,89.94976501464843L516.96,92.67686347961425L518.1566666666666,60.392980384826636L519.3533333333334,91.26825313568115L520.55,103.83850078582763L521.7466666666667,86.22230987548828L522.9433333333334,85.98168354034424L524.14,49.35240726470946L525.3366666666667,113.99287204742429L526.5333333333333,121.44988517761229L527.73,82.63995151519775L528.9266666666667,146.69161777496336L530.1233333333333,97.68856029510498L531.32,71.28154735565184L532.5166666666667,93.3065174102783L533.7133333333333,75.03513793945311L534.91,76.3070629119873L536.1066666666667,87.06405143737793L537.3033333333333,93.68533115386963L538.5,87.83099155426025L539.6966666666667,111.49498443603514L540.8933333333333,96.28836135864255L542.09,83.8707206726074L543.2866666666667,60.13913612365722L544.4833333333333,88.6727331161499L545.68,80.11082153320311L546.8766666666667,100.09572486877441L548.0733333333333,70.6693170547485L549.27,130.60840587615965L550.4666666666667,94.94073371887207L551.6633333333333,95.97683887481688L552.86,120.75684528350828L554.0566666666666,74.3607233047485L555.2533333333333,71.8297908782959L556.45,110.59766750335693L557.6466666666666,91.57767276763913L558.8433333333334,94.44355945587155L560.04,106.459255027771L561.2366666666667,105.24620990753174L562.4333333333333,85.26761512756346L563.63,82.7405879974365L564.8266666666666,91.71255569458008L566.0233333333333,128.74708156585692L567.22,92.26560573577879L568.4166666666666,102.42658596038815L569.6133333333333,101.09608154296875L570.8100000000001,112.32501010894774L572.0066666666667,104.16564445495605L573.2033333333334,88.20379714965819L574.4,131.98216896057124L575.5966666666667,78.5342834472656L576.7933333333333,84.82751827239987L577.99,92.32088069915771L579.1866666666666,125.69464187622069L580.3833333333333,115.51473598480224L581.58,86.3196418762207L582.7766666666666,109.51830368041989L583.9733333333334,77.77485351562498L585.17,113.78228645324705L586.3666666666667,101.62359695434567L587.5633333333334,106.58152084350584L588.76,89.74638919830319L589.9566666666667,89.46190338134764L591.1533333333333,94.7809169769287L592.35,121.3333271026611L593.5466666666666,59.871172714233374L594.7433333333333,103.84060363769528L595.9399999999999,92.62579421997067L597.1366666666667,101.35202865600586L598.3333333333334,79.29521541595457L599.53,114.5516298294067L600.7266666666667,102.72338848114012L601.9233333333334,89.76291160583494L603.12,68.0611799240112L604.3166666666667,108.67415885925291L605.5133333333333,81.15774135589596L606.71,72.89563636779783L607.9066666666666,113.9721439361572L609.1033333333334,101.5653179168701L610.3,96.21716480255124L611.4966666666667,80.15528182983398L612.6933333333334,89.26063041687009L613.89,104.78748779296875L615.0866666666667,85.23607234954832L616.2833333333333,113.03367118835449L617.48,82.13526706695556L618.6766666666667,111.99095706939697L619.8733333333333,97.10186462402343L621.07,90.34179668426513L622.2666666666667,78.92931919097899L623.4633333333333,91.8696687698364L624.66,88.40507011413574L625.8566666666667,94.96536712646481L627.0533333333333,100.90592365264892L628.25,123.83572082519531L629.4466666666667,94.5342824935913L630.6433333333333,112.87685852050781L631.84,115.14012794494626L633.0366666666667,111.57639484405517L634.2333333333333,68.61302833557127L635.43,151.83399181365965L636.6266666666667,110.98669509887694L637.8233333333333,80.49354057312009L639.02,84.75301723480223L640.2166666666667,109.87518768310544L641.4133333333333,92.06042747497558L642.61,78.07916622161862L643.8066666666666,99.64691619873047L645.0033333333333,108.48460178375241L646.2,95.75213413238522L647.3966666666666,92.90276985168455L648.5933333333334,77.621946144104L649.79,97.54436473846435L650.9866666666667,88.64299278259277L652.1833333333333,77.60992984771727L653.38,94.82327442169188L654.5766666666666,76.48039798736569L655.7733333333333,91.29138450622557L656.97,92.61768321990964L658.1666666666666,94.68779067993161L659.3633333333333,73.6460540771484L660.5600000000001,104.46274738311766L661.7566666666667,85.16818027496335L662.9533333333334,121.25642280578613L664.15,81.76366310119627L665.3466666666667,73.85874252319333L666.5433333333333,101.1693809509277L667.74,89.68150119781491L668.9366666666666,85.20272712707518L670.1333333333333,90.32617549896239L671.33,118.56987934112549L672.5266666666666,120.91125469207763L673.7233333333334,118.90273075103757L674.92,123.3685873031616L676.1166666666667,96.25621776580809L677.3133333333334,112.00808029174804L678.51,87.30828266143799L679.7066666666667,94.00226097106932L680.9033333333333,118.47344856262207L682.1,95.38173179626462L683.2966666666666,110.99570732116698L684.4933333333333,93.0259368896484L685.6899999999999,92.93040733337399L686.8866666666667,99.34140186309814L688.0833333333334,83.85329704284665L689.28,68.08070640563965L690.4766666666667,98.67990474700927L691.6733333333334,103.51706485748288L692.87,135.85832576751704L694.0666666666667,107.49956588745114L695.2633333333333,90.1420257568359L696.46,118.8657806396484L697.6566666666666,81.7249105453491L698.8533333333334,101.88044528961179L700.05,93.74090652465819L701.2466666666667,118.4355972290039L702.4433333333334,101.99129562377927L703.64,100.86657028198239L704.8366666666667,80.26342849731445L706.0333333333333,107.44819622039792L707.23,94.94283657073971L708.4266666666667,114.47532634735106L709.6233333333333,65.51222305297851L710.82,89.91882305145262L712.0166666666667,116.51238899230957L713.2133333333333,95.07050971984863L714.41,100.56466083526608L715.6066666666667,126.31017665863035L716.8033333333333,86.21570091247557L718,92.61888484954832L719.1966666666667,90.82425098419186L720.3933333333334,100.25884609222412L721.5899999999999,81.13040428161621L722.7866666666666,115.05120735168455L723.9833333333333,83.09867362976074L725.18,100.6133268356323L726.3766666666667,130.60389976501463L727.5733333333334,110.01247386932371L728.77,71.72795276641845L729.9666666666666,66.13887290954587L731.1633333333333,79.72660045623776L732.36,99.79742031097412L733.5566666666667,109.85536079406735L734.7533333333334,81.94060306549072L735.9499999999999,87.91059951782223L737.1466666666666,84.03083782196042L738.3433333333334,87.0334098815918L739.54,69.71942882537839L740.7366666666667,115.66163520812988L741.9333333333334,104.37953453063962L743.13,119.19743041992184L744.3266666666666,71.01778964996338L745.5233333333333,90.76537113189697L746.72,65.1156852722168L747.9166666666667,70.51881294250485L749.1133333333332,86.80299739837643L750.31,95.88401298522948L751.5066666666667,125.79738121032713L752.7033333333334,76.89105491638183L753.9,90.19910316467283L755.0966666666667,99.6559284210205L756.2933333333333,67.6102684020996L757.49,72.75414447784422L758.6866666666666,86.75403099060058L759.8833333333333,95.55747013092038L761.08,108.80663852691649L762.2766666666668,87.88326244354248L763.4733333333332,100.30090312957762L764.67,82.1169422149658L765.8666666666667,105.6664798736572L767.0633333333334,74.31566219329831L768.26,86.29981498718261L769.4566666666667,92.57202129364012L770.6533333333333,126.84970836639401L771.85,81.11508350372314L773.0466666666666,164.34716205596922L774.2433333333333,100.58028202056883L775.44,88.09444885253903L776.6366666666668,108.68527393341064L777.8333333333333,99.05120830535888L779.03,129.1328046798706L780.2266666666667,91.11234169006347L781.4233333333334,106.314458656311L782.62,92.74866085052489L783.8166666666666,123.78945808410643L785.0133333333333,68.38051300048826L786.21,80.66507320404051L787.4066666666666,83.93380622863768L788.6033333333334,88.99266700744629L789.8000000000001,118.6654088973999L790.9966666666666,101.50914173126218L792.1933333333333,111.99666481018063L793.39,128.57584934234617L794.5866666666667,70.78617553710937L795.7833333333334,111.5124080657959L796.98,84.2167900085449L798.1766666666666,90.52774887084958L799.3733333333333,121.64545040130614L800.57,105.80106239318846L801.7666666666667,91.44429187774655L802.9633333333334,90.53766231536862L804.1600000000001,102.98264007568356L805.3566666666666,100.94227294921872L806.5533333333333,65.44763545989987L807.75,83.68476848602292L808.9466666666667,104.82143383026121L810.1433333333334,80.94415168762204L811.3399999999999,137.84822444915767L812.5366666666666,102.52121429443356L813.7333333333333,97.87030677795408L814.93,96.66236858367917L816.1266666666667,142.81936626434322L817.3233333333334,120.56969146728515L818.52,87.32931118011471L819.7166666666666,108.16857318878172L820.9133333333333,87.80365447998045L822.11,117.0954797744751L823.3066666666667,99.70699768066405L824.5033333333334,102.48877029418942L825.6999999999999,100.43488483428952L826.8966666666666,87.01808910369873L828.0933333333334,109.51019268035886L829.29,108.47949485778807L830.4866666666667,110.79052906036377L831.6833333333334,85.6881855010986L832.88,107.83902626037597L834.0766666666666,107.81259040832518L835.2733333333333,126.87464218139648L836.47,72.59823303222655L837.6666666666667,78.4901235580444L838.8633333333332,99.36723690032957L840.06,85.97327213287352L841.2566666666667,122.30334262847899L842.4533333333334,105.84101657867431L843.65,107.0387409210205L844.8466666666667,76.22775535583496L846.0433333333333,84.82151012420653L847.24,63.7575433731079L848.4366666666666,83.7739894866943L849.6333333333333,147.00794677734373L850.83,78.21585159301758L852.0266666666668,112.33912925720212L853.2233333333332,83.65983467102049L854.42,112.55482177734373L855.6166666666667,141.86407070159908L856.8133333333334,88.67723922729492L858.01,113.93969993591305L859.2066666666667,94.47420101165768L860.4033333333333,73.23990325927733L861.6,92.94843177795407L862.7966666666666,103.90969734191894L863.9933333333333,108.29654674530028L865.19,119.75528697967526L866.3866666666668,72.94219951629636L867.5833333333333,95.0584934234619L868.78,125.14940242767332L869.9766666666667,85.78071098327636L871.1733333333334,104.78178005218504L872.37,102.39804725646971L873.5666666666666,135.15507202148436L874.7633333333333,87.76339988708496L875.96,115.01485805511471L877.1566666666666,110.01037101745602L878.3533333333334,103.47981433868408L879.5500000000001,86.52932624816893L880.7466666666666,82.03132610321043L881.9433333333333,128.25982074737547L883.14,80.30969123840329L884.3366666666667,116.4042423248291L885.5333333333334,94.39789752960203L886.73,78.14255218505858L887.9266666666666,81.05590324401852L889.1233333333333,113.82404308319092L890.32,97.68765907287597L891.5166666666667,101.5887496948242L892.7133333333334,122.99788455963132L893.9100000000001,115.94401817321774L895.1066666666666,92.91148166656491L896.3033333333333,83.64421348571774L897.5,115.46727161407468L898.6966666666667,113.61435871124264L899.8933333333334,92.71291236877441L901.0899999999999,81.83606128692627L902.2866666666666,107.61942844390866L903.4833333333333,103.68018608093259L904.68,83.61447315216061L905.8766666666667,122.24175910949704L907.0733333333334,127.79268722534178L908.27,95.97383480072018L909.4666666666666,59.68281726837156L910.6633333333333,112.0870874404907L911.86,78.4423587799072L913.0566666666667,93.56877307891844L914.2533333333334,115.51623802185057L915.4499999999999,118.6098335266113L916.6466666666666,125.04125576019285L917.8433333333334,140.4713819503784L919.04,158.37175827026363L920.2366666666667,89.87466316223143L921.4333333333334,76.36924724578857L922.63,99.03288345336912L923.8266666666666,83.41650466918944L925.0233333333333,89.92362957000732L926.22,81.37253265380858L927.4166666666667,149.52686290740965L928.6133333333332,121.21586780548095L929.81,100.99935035705565L931.0066666666667,96.96728210449217L932.2033333333334,117.72273044586181L933.4,102.95199851989743L934.5966666666667,89.78363971710203L935.7933333333333,59.41275100708007L936.99,113.5632894515991L938.1866666666666,96.80716495513916L939.3833333333333,111.78337554931639L940.58,111.23723487854002L941.7766666666668,95.47666053771971L942.9733333333332,99.50392227172848L944.17,111.68544273376465L945.3666666666667,82.25122432708739L946.5633333333334,74.53946571350096L947.76,85.84589939117429L948.9566666666667,92.81505088806149L950.1533333333333,112.21265773773193L951.35,81.61285858154294L952.5466666666666,107.3154161453247L953.7433333333333,111.89873199462889L954.94,95.80770950317383L956.1366666666668,87.0547388076782L957.3333333333333,65.4344175338745L958.53,92.60716896057127L959.7266666666667,109.63966827392578L960.9233333333334,93.0007026672363L962.12,81.36111717224121L963.3166666666666,118.92255764007565L964.5133333333333,80.76540927886963L965.71,95.05398731231688L966.9066666666666,81.8168352127075L968.1033333333334,102.21870403289793L969.3000000000001,110.89927654266356L970.4966666666666,109.54053382873535L971.6933333333333,94.3008659362793L972.89,118.21569900512695L974.0866666666667,136.34348373413084L975.2833333333334,95.34718494415283L976.48,80.69511394500732L977.6766666666666,76.72132472991942L978.8733333333333,112.70081977844237L980.07,84.22339897155761L981.2666666666667,101.0636375427246L982.4633333333334,80.42715053558348L983.6600000000001,94.81846790313718L984.8566666666666,98.61591796875L986.0533333333333,111.01703624725339L987.25,109.87428646087643L988.4466666666667,102.27097492218016L989.6433333333334,118.63356571197508L990.8399999999999,99.94882564544677L992.0366666666666,89.30388908386227L993.2333333333333,92.39297847747802L994.43,88.01814537048338L995.6266666666667,121.32010917663573L996.8233333333334,95.07381420135496L998.02,115.5000160217285L999.2166666666666,113.40437393188473L1000.4133333333333,108.12921981811523L1001.61,86.15201454162597L1002.8066666666667,91.05316143035886L1004.0033333333334,82.44799118041992L1005.1999999999999,110.9972093582153L1006.3966666666666,92.48640518188475L1007.5933333333334,94.66195564270018L1008.79,96.09069328308105L1009.9866666666667,116.41355495452878L1011.1833333333334,90.46316127777098L1012.38,98.8856838226318L1013.5766666666666,88.87490730285641L1014.7733333333333,103.156876373291L1015.97,102.45933036804198L1017.1666666666667,93.22210292816162L1018.3633333333332,79.39104537963867L1019.56,109.33145027160644L1020.7566666666667,107.41515140533446L1021.9533333333334,121.18432502746582L1023.15,103.9361331939697L1024.3466666666668,96.53048973083496L1025.5433333333333,138.76056175231932L1026.74,117.02338199615478L1027.9366666666667,122.85218696594237L1029.1333333333334,120.84246139526365L1030.33,115.48709850311276L1031.5266666666666,79.74192123413083L1032.7233333333334,60.67356090545653L1033.92,87.33982543945312L1035.1166666666666,115.16055564880371L1036.3133333333333,115.4531524658203L1037.51,99.59043960571286L1038.7066666666667,89.34083919525143L1039.9033333333332,105.73947887420651L1041.1,100.4997728347778L1042.2966666666666,103.18781833648681L1043.4933333333333,103.53899459838865L1044.69,112.94595222473143L1045.8866666666668,100.93806724548338L1047.0833333333333,97.55758266448973L1048.28,83.94972782135007L1049.4766666666667,133.08316211700438L1050.6733333333334,104.06620960235594L1051.8700000000001,120.58951835632324L1053.0666666666666,87.98990707397458L1054.2633333333333,86.19587402343748L1055.46,115.84067802429198L1056.6566666666668,68.44570140838623L1057.8533333333335,87.46930103302L1059.05,78.77971630096434L1060.2466666666667,71.4056156158447L1061.4433333333334,93.86197071075439L1062.64,84.56706504821774L1063.8366666666666,105.21616916656492L1065.0333333333333,126.55681114196774L1066.23,113.12769870758054L1067.4266666666665,92.22835521697995L1068.6233333333332,55.863437461853L1069.82,75.10333042144772L1071.0166666666667,87.0295045852661L1072.2133333333334,82.22268562316894L1073.41,109.0595815658569L1074.6066666666666,81.72551136016843L1075.8033333333333,112.25351314544675L1077,90.53525905609129L1078.1966666666667,92.58253555297848L1079.3933333333334,112.8645418167114L1080.59,95.81431846618649L1081.7866666666666,82.09471206665039L1082.9833333333333,70.49207668304442L1084.18,94.29936389923093L1085.3766666666668,109.8766897201538L1086.5733333333335,83.76587848663327L1087.77,102.1156642913818L1088.9666666666667,100.41205387115478L1090.1633333333334,133.5526988983154L1091.36,90.2135227203369L1092.5566666666666,135.61379413604735L1093.7533333333333,122.89093952178953L1094.95,81.04869346618649L1096.1466666666665,54.3403718948364L1097.3433333333332,86.62996273040768L1098.54,116.6262434005737L1099.7366666666667,102.72218685150143L1100.9333333333334,90.30274372100828L1102.1299999999999,96.09249572753906L1103.3266666666666,81.70418243408201L1104.5233333333333,89.95126705169676L1105.72,127.95400600433348L1106.9166666666667,86.63627128601071L1108.1133333333332,116.9819257736206L1109.31,67.44384269714352L1110.5066666666667,124.67746238708496L1111.7033333333334,81.30343894958496L1112.9,102.38543014526365L1114.0966666666668,99.35041408538818L1115.2933333333333,114.97670631408691L1116.49,118.87419204711912L1117.6866666666667,100.86206417083737L1118.8833333333334,109.71987705230713L1120.08,120.57900409698483L1121.2766666666666,93.84394626617431L1122.4733333333334,96.70142154693602L1123.67,105.67939739227293L1124.8666666666666,104.79409675598141L1126.0633333333333,66.9583843231201L1127.26,98.3539627075195L1128.4566666666667,115.55258731842041L1129.6533333333332,102.50619392395018L1130.85,89.33813552856442L1132.0466666666666,113.38905315399167L1133.2433333333333,87.21155147552489L1134.44,74.013752746582L1135.6366666666668,99.90286331176758L1136.8333333333333,110.16658287048338L1138.03,100.65117816925046L1139.2266666666667,105.12454490661621L1140.4233333333334,102.74261455535888L1141.6200000000001,117.17118244171142L1142.8166666666666,122.39016036987304L1144.0133333333333,93.76283626556396L1145.21,113.36742382049557L1146.4066666666668,111.58450584411621L1147.6033333333335,88.14671974182126L1148.8,120.70367317199705L1149.9966666666667,113.95952682495114L1151.1933333333334,78.2624147415161L1152.39,137.3735807418823L1153.5866666666666,101.25169258117674L1154.7833333333333,95.90353946685788L1155.98,73.37298374176022L1157.1766666666665,81.5158269882202L1158.3733333333332,84.86056308746338L1159.57,106.15884761810301L1160.7666666666667,91.33644561767576L1161.9633333333334,103.78893356323242L1163.16,89.85033016204832L1164.3566666666666,92.0309875488281L1165.5533333333333,113.7041805267334L1166.75,93.36990337371826L1167.9466666666667,147.23655681610106L1169.1433333333334,100.08460979461668L1170.34,140.87242584228514L1171.5366666666666,79.83354549407959L1172.7333333333333,109.49336986541746L1173.93,90.31986694335936L1175.1266666666668,95.53073387145994L1176.3233333333335,97.05710391998288L1177.52,99.26690082550046L1178.7166666666667,133.5022304534912L1179.9133333333334,76.42602424621582L1181.11,97.97094326019284L1182.3066666666666,109.32664375305174L1183.5033333333333,112.21896629333496L1184.7,80.29827575683592L1185.8966666666665,116.8197057723999L1187.0933333333332,93.29149703979492L1188.29,100.13928394317624L1189.4866666666667,97.06821899414061L1190.6833333333334,91.55424098968503L1191.8799999999999,55.48462371826168L1193.0766666666666,100.47153453826904L1194.2733333333333,91.86876754760739L1195.47,110.24649124145505L1196.6666666666667,110.40360431671141L1197.8633333333332,104.93108253479001L1199.06,86.53172950744626L1200.2566666666667,81.59843902587887L1201.4533333333334,81.56239013671872L1202.65,121.1789176940918L1203.8466666666668,106.33068065643307L1205.0433333333333,85.53768138885495L1206.24,89.4498870849609L1207.4366666666667,88.32906703948973L1208.6333333333334,108.52185230255125L1209.83,126.37987117767334L1211.0266666666666,118.20368270874022L1212.2233333333334,116.28678302764891L1213.42,79.88791923522946L1214.6166666666666,99.20171241760254L1215.8133333333333,82.006392288208L1217.01,95.34207801818845L1218.2066666666667,72.10195999145508L1219.4033333333332,101.89396362304684L1220.6,91.778645324707L1221.7966666666666,83.99719219207763L1222.9933333333333,122.77948837280273L1224.19,102.44551162719723L1225.3866666666668,103.82528285980221L1226.5833333333333,117.28593807220456L1227.78,94.77671127319336L1228.9766666666667,93.02653770446777L1230.1733333333334,111.69175128936767L1231.3700000000001,126.1578701019287L1232.5666666666666,104.65981464385983L1233.7633333333333,81.69006328582763L1234.96,96.3790843963623L1236.1566666666668,65.5329511642456L1237.3533333333335,87.8418062210083L1238.55,111.22131328582763L1239.7466666666667,84.20477371215817L1240.9433333333334,118.34847908020016L1242.14,81.24786357879636L1243.3366666666666,74.13661937713621L1244.5333333333333,88.81873111724853L1245.73,69.91799812316893L1246.9266666666665,88.14972381591795L1248.1233333333332,91.04174594879149L1249.32,111.54124717712402L1250.5166666666667,139.64015464782713L1251.7133333333334,85.73114376068115L1252.91,97.28421192169186L1254.1066666666666,79.94709949493408L1255.3033333333333,83.87432556152342L1256.5,111.31804447174069L1257.6966666666667,97.53985862731933L1258.8933333333334,109.22720890045163L1260.09,109.38852767944333L1261.2866666666666,117.0651386260986L1262.4833333333333,82.74178962707519L1263.68,101.06814365386963L1264.8766666666668,85.65994720458984L1266.0733333333335,109.33024864196776L1267.27,114.89319305419919L1268.4666666666667,78.9064882278442L1269.6633333333334,72.02175121307373L1270.86,125.22630672454834L1272.0566666666666,112.4490783691406L1273.2533333333333,120.57119350433348L1274.45,113.15533618927002L1275.6466666666665,110.41351776123045L1276.8433333333332,118.75943641662595L1278.04,100.26575546264647L1279.2366666666667,66.1244533538818L1280.4333333333334,88.3639142990112L1281.6299999999999,110.20803909301756L1282.8266666666666,106.0699270248413L1284.0233333333333,120.45793991088867L1285.22,112.03782062530517L1286.4166666666667,95.90023498535155L1287.6133333333332,83.85630111694334L1288.81,84.39342956542967L1290.0066666666667,119.74327068328857L1291.2033333333334,100.20897846221922L1292.4,81.52814369201657L1293.5966666666668,94.05753593444824L1294.7933333333333,99.68867282867429L1295.99,109.45401649475097L1297.1866666666667,89.30388908386227L1298.3833333333334,88.21491222381592L1299.58,94.05092697143553L1300.7766666666666,91.91112499237057L1301.9733333333334,74.99278049468992L1303.17,113.86369686126709L1304.3666666666666,118.52632026672362L1305.5633333333333,74.79060630798337L1306.76,108.50142459869384L1307.9566666666667,105.45739631652829L1309.1533333333332,57.8968952178955L1310.35,71.74777965545654L1311.5466666666666,60.40589790344237L1312.7433333333333,103.81266574859616L1313.94,71.87635402679442L1315.1366666666668,88.48587970733641" style="fill: none;" fill="none"></path></g></g></g></g></g></g><g transform="translate(60, 378)" clip-path="url(#clip_1)"><clipPath id="clip_1"><rect width="1436" height="22"></rect></clipPath><g><g><line x1="0" y1="0" x2="0" y2="5" style="visibility: inherit;" fill="rgb(0, 0, 0)" stroke="rgb(204, 204, 204)" stroke-width="1px"></line><line x1="119.66666666666666" y1="0" x2="119.66666666666666" y2="5" style="visibility: inherit;" fill="rgb(0, 0, 0)" stroke="rgb(204, 204, 204)" stroke-width="1px"></line><line x1="239.33333333333331" y1="0" x2="239.33333333333331" y2="5" style="visibility: inherit;" fill="rgb(0, 0, 0)" stroke="rgb(204, 204, 204)" stroke-width="1px"></line><line x1="359" y1="0" x2="359" y2="5" style="visibility: inherit;" fill="rgb(0, 0, 0)" stroke="rgb(204, 204, 204)" stroke-width="1px"></line><line x1="478.66666666666663" y1="0" x2="478.66666666666663" y2="5" style="visibility: inherit;" fill="rgb(0, 0, 0)" stroke="rgb(204, 204, 204)" stroke-width="1px"></line><line x1="598.3333333333334" y1="0" x2="598.3333333333334" y2="5" style="visibility: inherit;" fill="rgb(0, 0, 0)" stroke="rgb(204, 204, 204)" stroke-width="1px"></line><line x1="718" y1="0" x2="718" y2="5" style="visibility: inherit;" fill="rgb(0, 0, 0)" stroke="rgb(204, 204, 204)" stroke-width="1px"></line><line x1="837.6666666666667" y1="0" x2="837.6666666666667" y2="5" style="visibility: inherit;" fill="rgb(0, 0, 0)" stroke="rgb(204, 204, 204)" stroke-width="1px"></line><line x1="957.3333333333333" y1="0" x2="957.3333333333333" y2="5" style="visibility: inherit;" fill="rgb(0, 0, 0)" stroke="rgb(204, 204, 204)" stroke-width="1px"></line><line x1="1077" y1="0" x2="1077" y2="5" style="visibility: inherit;" fill="rgb(0, 0, 0)" stroke="rgb(204, 204, 204)" stroke-width="1px"></line><line x1="1196.6666666666667" y1="0" x2="1196.6666666666667" y2="5" style="visibility: inherit;" fill="rgb(0, 0, 0)" stroke="rgb(204, 204, 204)" stroke-width="1px"></line><line x1="1316.3333333333333" y1="0" x2="1316.3333333333333" y2="5" style="visibility: inherit;" fill="rgb(0, 0, 0)" stroke="rgb(204, 204, 204)" stroke-width="1px"></line><line x1="1436" y1="0" x2="1436" y2="5" style="visibility: inherit;" fill="rgb(0, 0, 0)" stroke="rgb(204, 204, 204)" stroke-width="1px"></line></g><g transform="translate(0, 8)"><text x="0" y="0" dx="0em" dy="0.95em" style="text-anchor: middle; visibility: hidden; font-family: Roboto, sans-serif; font-size: 12px; font-weight: 200;" fill="rgb(50, 49, 63)" stroke="none" stroke-width="1px">-100</text><text x="119.66666666666666" y="0" dx="0em" dy="0.95em" style="text-anchor: middle; visibility: inherit; font-family: Roboto, sans-serif; font-size: 12px; font-weight: 200;" fill="rgb(50, 49, 63)" stroke="none" stroke-width="1px">0</text><text x="239.33333333333331" y="0" dx="0em" dy="0.95em" style="text-anchor: middle; visibility: inherit; font-family: Roboto, sans-serif; font-size: 12px; font-weight: 200;" fill="rgb(50, 49, 63)" stroke="none" stroke-width="1px">100</text><text x="359" y="0" dx="0em" dy="0.95em" style="text-anchor: middle; visibility: inherit; font-family: Roboto, sans-serif; font-size: 12px; font-weight: 200;" fill="rgb(50, 49, 63)" stroke="none" stroke-width="1px">200</text><text x="478.66666666666663" y="0" dx="0em" dy="0.95em" style="text-anchor: middle; visibility: inherit; font-family: Roboto, sans-serif; font-size: 12px; font-weight: 200;" fill="rgb(50, 49, 63)" stroke="none" stroke-width="1px">300</text><text x="598.3333333333334" y="0" dx="0em" dy="0.95em" style="text-anchor: middle; visibility: inherit; font-family: Roboto, sans-serif; font-size: 12px; font-weight: 200;" fill="rgb(50, 49, 63)" stroke="none" stroke-width="1px">400</text><text x="718" y="0" dx="0em" dy="0.95em" style="text-anchor: middle; visibility: inherit; font-family: Roboto, sans-serif; font-size: 12px; font-weight: 200;" fill="rgb(50, 49, 63)" stroke="none" stroke-width="1px">500</text><text x="837.6666666666667" y="0" dx="0em" dy="0.95em" style="text-anchor: middle; visibility: inherit; font-family: Roboto, sans-serif; font-size: 12px; font-weight: 200;" fill="rgb(50, 49, 63)" stroke="none" stroke-width="1px">600</text><text x="957.3333333333333" y="0" dx="0em" dy="0.95em" style="text-anchor: middle; visibility: inherit; font-family: Roboto, sans-serif; font-size: 12px; font-weight: 200;" fill="rgb(50, 49, 63)" stroke="none" stroke-width="1px">700</text><text x="1077" y="0" dx="0em" dy="0.95em" style="text-anchor: middle; visibility: inherit; font-family: Roboto, sans-serif; font-size: 12px; font-weight: 200;" fill="rgb(50, 49, 63)" stroke="none" stroke-width="1px">800</text><text x="1196.6666666666667" y="0" dx="0em" dy="0.95em" style="text-anchor: middle; visibility: inherit; font-family: Roboto, sans-serif; font-size: 12px; font-weight: 200;" fill="rgb(50, 49, 63)" stroke="none" stroke-width="1px">900</text><text x="1316.3333333333333" y="0" dx="0em" dy="0.95em" style="text-anchor: middle; visibility: inherit; font-family: Roboto, sans-serif; font-size: 12px; font-weight: 200;" fill="rgb(50, 49, 63)" stroke="none" stroke-width="1px">1k</text><text x="1436" y="0" dx="0em" dy="0.95em" style="text-anchor: middle; visibility: hidden; font-family: Roboto, sans-serif; font-size: 12px; font-weight: 200;" fill="rgb(50, 49, 63)" stroke="none" stroke-width="1px">1.1k</text></g><line x1="0" y1="0" x2="1436" y2="0" fill="rgb(0, 0, 0)" stroke="rgb(204, 204, 204)" stroke-width="1px"></line></g></g></g></g></svg>