<svg viewBox="0 0 1496 400" xmlns="http://www.w3.org/2000/svg"><g><g><g><g><g><line x1="30" y1="378" x2="25" y2="378" style="visibility: inherit;" fill="rgb(0, 0, 0)" stroke="rgb(204, 204, 204)" stroke-width="1px"></line><line x1="30" y1="336" x2="25" y2="336" style="visibility: inherit;" fill="rgb(0, 0, 0)" stroke="rgb(204, 204, 204)" stroke-width="1px"></line><line x1="30" y1="294" x2="25" y2="294" style="visibility: inherit;" fill="rgb(0, 0, 0)" stroke="rgb(204, 204, 204)" stroke-width="1px"></line><line x1="30" y1="252.00000000000003" x2="25" y2="252.00000000000003" style="visibility: inherit;" fill="rgb(0, 0, 0)" stroke="rgb(204, 204, 204)" stroke-width="1px"></line><line x1="30" y1="210" x2="25" y2="210" style="visibility: inherit;" fill="rgb(0, 0, 0)" stroke="rgb(204, 204, 204)" stroke-width="1px"></line><line x1="30" y1="168" x2="25" y2="168" style="visibility: inherit;" fill="rgb(0, 0, 0)" stroke="rgb(204, 204, 204)" stroke-width="1px"></line><line x1="30" y1="126.00000000000001" x2="25" y2="126.00000000000001" style="visibility: inherit;" fill="rgb(0, 0, 0)" stroke="rgb(204, 204, 204)" stroke-width="1px"></line><line x1="30" y1="84" x2="25" y2="84" style="visibility: inherit;" fill="rgb(0, 0, 0)" stroke="rgb(204, 204, 204)" stroke-width="1px"></line><line x1="30" y1="42.00000000000002" x2="25" y2="42.00000000000002" style="visibility: inherit;" fill="rgb(0, 0, 0)" stroke="rgb(204, 204, 204)" stroke-width="1px"></line><line x1="30" y1="0" x2="25" y2="0" style="visibility: inherit;" fill="rgb(0, 0, 0)" stroke="rgb(204, 204, 204)" stroke-width="1px"></line></g><g transform="translate(20, 0)"><text x="0" y="378" dx="0em" dy="0.3em" style="text-anchor: end; visibility: hidden; font-family: Roboto, sans-serif; font-size: 12px; font-weight: 200;" fill="rgb(50, 49, 63)" stroke="none" stroke-width="1px">-1</text><text x="0" y="336" dx="0em" dy="0.3em" style="text-anchor: end; visibility: inherit; font-family: Roboto, sans-serif; font-size: 12px; font-weight: 200;" fill="rgb(50, 49, 63)" stroke="none" stroke-width="1px">0</text><text x="0" y="294" dx="0em" dy="0.3em" style="text-anchor: end; visibility: inherit; font-family: Roboto, sans-serif; font-size: 12px; font-weight: 200;" fill="rgb(50, 49, 63)" stroke="none" stroke-width="1px">1</text><text x="0" y="252.00000000000003" dx="0em" dy="0.3em" style="text-anchor: end; visibility: inherit; font-family: Roboto, sans-serif; font-size: 12px; font-weight: 200;" fill="rgb(50, 49, 63)" stroke="none" stroke-width="1px">2</text><text x="0" y="210" dx="0em" dy="0.3em" style="text-anchor: end; visibility: inherit; font-family: Roboto, sans-serif; font-size: 12px; font-weight: 200;" fill="rgb(50, 49, 63)" stroke="none" stroke-width="1px">3</text><text x="0" y="168" dx="0em" dy="0.3em" style="text-anchor: end; visibility: inherit; font-family: Roboto, sans-serif; font-size: 12px; font-weight: 200;" fill="rgb(50, 49, 63)" stroke="none" stroke-width="1px">4</text><text x="0" y="126.00000000000001" dx="0em" dy="0.3em" style="text-anchor: end; visibility: inherit; font-family: Roboto, sans-serif; font-size: 12px; font-weight: 200;" fill="rgb(50, 49, 63)" stroke="none" stroke-width="1px">5</text><text x="0" y="84" dx="0em" dy="0.3em" style="text-anchor: end; visibility: inherit; font-family: Roboto, sans-serif; font-size: 12px; font-weight: 200;" fill="rgb(50, 49, 63)" stroke="none" stroke-width="1px">6</text><text x="0" y="42.00000000000002" dx="0em" dy="0.3em" style="text-anchor: end; visibility: inherit; font-family: Roboto, sans-serif; font-size: 12px; font-weight: 200;" fill="rgb(50, 49, 63)" stroke="none" stroke-width="1px">7</text><text x="0" y="0" dx="0em" dy="0.3em" style="text-anchor: end; visibility: hidden; font-family: Roboto, sans-serif; font-size: 12px; font-weight: 200;" fill="rgb(50, 49, 63)" stroke="none" stroke-width="1px">8</text></g><line x1="30" y1="0" x2="30" y2="378" fill="rgb(0, 0, 0)" stroke="rgb(204, 204, 204)" stroke-width="1px"></line></g></g><g transform="translate(30, 0)" clip-path="url(#clip_0)"><clipPath id="clip_0"><rect width="1466" height="378"></rect></clipPath><g><g><g><line x1="0" y1="0" x2="0" y2="378" fill="rgb(0, 0, 0)" stroke="rgb(60, 60, 60)" stroke-width="1px" opacity="0.25"></line><line x1="122.16666666666666" y1="0" x2="122.16666666666666" y2="378" fill="rgb(0, 0, 0)" stroke="rgb(60, 60, 60)" stroke-width="1px" opacity="0.25"></line><line x1="244.33333333333331" y1="0" x2="244.33333333333331" y2="378" fill="rgb(0, 0, 0)" stroke="rgb(60, 60, 60)" stroke-width="1px" opacity="0.25"></line><line x1="366.5" y1="0" x2="366.5" y2="378" fill="rgb(0, 0, 0)" stroke="rgb(60, 60, 60)" stroke-width="1px" opacity="0.25"></line><line x1="488.66666666666663" y1="0" x2="488.66666666666663" y2="378" fill="rgb(0, 0, 0)" stroke="rgb(60, 60, 60)" stroke-width="1px" opacity="0.25"></line><line x1="610.8333333333334" y1="0" x2="610.8333333333334" y2="378" fill="rgb(0, 0, 0)" stroke="rgb(60, 60, 60)" stroke-width="1px" opacity="0.25"></line><line x1="733" y1="0" x2="733" y2="378" fill="rgb(0, 0, 0)" stroke="rgb(60, 60, 60)" stroke-width="1px" opacity="0.25"></line><line x1="855.1666666666667" y1="0" x2="855.1666666666667" y2="378" fill="rgb(0, 0, 0)" stroke="rgb(60, 60, 60)" stroke-width="1px" opacity="0.25"></line><line x1="977.3333333333333" y1="0" x2="977.3333333333333" y2="378" fill="rgb(0, 0, 0)" stroke="rgb(60, 60, 60)" stroke-width="1px" opacity="0.25"></line><line x1="1099.5" y1="0" x2="1099.5" y2="378" fill="rgb(0, 0, 0)" stroke="rgb(60, 60, 60)" stroke-width="1px" opacity="0.25"></line><line x1="1221.6666666666667" y1="0" x2="1221.6666666666667" y2="378" fill="rgb(0, 0, 0)" stroke="rgb(60, 60, 60)" stroke-width="1px" opacity="0.25"></line><line x1="1343.8333333333333" y1="0" x2="1343.8333333333333" y2="378" fill="rgb(0, 0, 0)" stroke="rgb(60, 60, 60)" stroke-width="1px" opacity="0.25"></line><line x1="1466" y1="0" x2="1466" y2="378" fill="rgb(0, 0, 0)" stroke="rgb(60, 60, 60)" stroke-width="1px" opacity="0.25"></line></g><g><line x1="0" y1="378" x2="1466" y2="378" fill="rgb(0, 0, 0)" stroke="rgb(60, 60, 60)" stroke-width="1px" opacity="0.25"></line><line x1="0" y1="336" x2="1466" y2="336" fill="rgb(0, 0, 0)" stroke="rgb(60, 60, 60)" stroke-width="1px" opacity="0.25"></line><line x1="0" y1="294" x2="1466" y2="294" fill="rgb(0, 0, 0)" stroke="rgb(60, 60, 60)" stroke-width="1px" opacity="0.25"></line><line x1="0" y1="252.00000000000003" x2="1466" y2="252.00000000000003" fill="rgb(0, 0, 0)" stroke="rgb(60, 60, 60)" stroke-width="1px" opacity="0.25"></line><line x1="0" y1="210" x2="1466" y2="210" fill="rgb(0, 0, 0)" stroke="rgb(60, 60, 60)" stroke-width="1px" opacity="0.25"></line><line x1="0" y1="168" x2="1466" y2="168" fill="rgb(0, 0, 0)" stroke="rgb(60, 60, 60)" stroke-width="1px" opacity="0.25"></line><line x1="0" y1="126.00000000000001" x2="1466" y2="126.00000000000001" fill="rgb(0, 0, 0)" stroke="rgb(60, 60, 60)" stroke-width="1px" opacity="0.25"></line><line x1="0" y1="84" x2="1466" y2="84" fill="rgb(0, 0, 0)" stroke="rgb(60, 60, 60)" stroke-width="1px" opacity="0.25"></line><line x1="0" y1="42.00000000000002" x2="1466" y2="42.00000000000002" fill="rgb(0, 0, 0)" stroke="rgb(60, 60, 60)" stroke-width="1px" opacity="0.25"></line><line x1="0" y1="0" x2="1466" y2="0" fill="rgb(0, 0, 0)" stroke="rgb(60, 60, 60)" stroke-width="1px" opacity="0.25"></line></g></g></g><g><g><line x1="0" y1="336" x2="1466" y2="336" fill="rgb(0, 0, 0)" stroke="rgb(153, 153, 153)" stroke-width="1.5px"></line></g></g><g><g><line x1="122.16666666666666" y1="0" x2="122.16666666666666" y2="378" fill="rgb(0, 0, 0)" stroke="rgb(153, 153, 153)" stroke-width="1.5px"></line></g></g><g><g><g><g><g><path stroke="rgb(0, 119, 187)" stroke-width="2px" d="M122.16666666666666,59.04415512084962L123.38833333333334,105.40022277832033L124.61000000000001,158.51741981506348L125.83166666666666,159.61983489990234L127.05333333333334,223.53235244750977L128.275,244.2745027542114L129.49666666666667,201.8681116104126L130.71833333333333,172.8663396835327L131.94,218.47105836868286L133.16166666666666,210.59107160568237L134.38333333333333,219.08395957946777L135.605,231.14791059494019L136.82666666666668,232.3257179260254L138.04833333333332,200.04713201522827L139.27,237.7239089012146L140.49166666666667,190.25800609588623L141.71333333333334,143.02695178985596L142.935,245.0200438499451L144.15666666666667,221.41855573654178L145.37833333333333,263.5923664569855L146.6,232.91619873046875L147.82166666666666,246.82202768325809L149.04333333333335,231.2179355621338L150.265,224.73514366149905L151.48666666666668,232.79988098144528L152.70833333333334,234.8663535118103L153.93,231.60031414031982L155.15166666666667,247.4154725074768L156.37333333333333,255.68933844566342L157.595,270.28685545921326L158.81666666666666,245.1319556236267L160.03833333333333,258.0340533256531L161.26,243.14288806915286L162.48166666666668,237.76905012130737L163.70333333333332,281.96360635757446L164.925,280.360502243042L166.14666666666665,253.78708362579343L167.36833333333334,190.64420986175534L168.59,260.1230263710022L169.81166666666667,237.0592975616455L171.03333333333333,253.24505853652954L172.255,264.73933696746826L173.47666666666666,253.9508557319641L174.69833333333335,264.73964738845825L175.92,264.3849763870239L177.14166666666668,239.89164876937866L178.36333333333334,281.7611768245697L179.585,222.53527021408084L180.80666666666667,240.1158227920532L182.02833333333334,253.69723176956174L183.25,272.18258142471313L184.47166666666666,249.4247875213623L185.69333333333336,211.72642135620114L186.915,285.0715413093567L188.13666666666666,285.40125846862793L189.35833333333335,275.1444482803345L190.58,264.56343841552734L191.80166666666665,268.9547288417816L193.0233333333333,266.19929695129395L194.245,283.0262475013733L195.46666666666667,244.54780340194705L196.6883333333333,265.1421232223511L197.91000000000003,273.9665207862854L199.13166666666666,260.1599063873291L200.35333333333332,260.9414713382721L201.57500000000002,249.49322032928464L202.79666666666668,265.1914200782776L204.01833333333332,261.54788875579834L205.24,275.00871419906616L206.46166666666667,251.3056683540344L207.68333333333334,279.6662106513977L208.90499999999997,252.81489515304568L210.12666666666667,289.04135513305664L211.34833333333333,245.9232387542725L212.57,236.27078819274905L213.79166666666669,266.0929126739502L215.01333333333332,286.8437147140503L216.23499999999999,279.41834449768066L217.45666666666668,248.16307640075684L218.67833333333334,256.13280987739563L219.9,261.061128616333L221.1216666666667,268.7103223800659L222.34333333333333,268.2022633552551L223.565,282.2597830295563L224.78666666666666,273.72498321533203L226.00833333333335,263.46115350723267L227.23,276.75646448135376L228.45166666666665,269.25122594833374L229.67333333333335,276.8873119354248L230.895,255.97477555274963L232.11666666666665,276.91237592697144L233.33833333333334,277.20096731185913L234.56,287.1159839630127L235.78166666666667,279.26999831199646L237.0033333333333,274.723867893219L238.225,284.1267900466919L239.44666666666666,269.35660886764526L240.66833333333332,268.58540296554565L241.89000000000001,284.9982018470764L243.11166666666668,251.39552021026608L244.33333333333331,272.0908420085907L245.555,271.49418783187866L246.77666666666667,272.141966342926L247.99833333333333,270.7457528114319L249.22000000000003,268.6044988632202L250.44166666666666,288.5166234970093L251.66333333333333,275.81573367118835L252.885,279.7710428237915L254.10666666666668,283.5591902732849L255.32833333333332,263.9126057624817L256.55,288.9919681549072L257.7716666666667,287.215238571167L258.99333333333334,276.349702835083L260.215,291.3942360877991L261.43666666666667,282.75350761413574L262.65833333333336,278.18210792541504L263.88,279.9368977546692L265.1016666666667,282.3138813972473L266.3233333333333,288.9590985774994L267.545,284.27720403671265L268.76666666666665,276.6465904712677L269.98833333333334,273.80930757522583L271.21,283.23871064186096L272.4316666666667,301.8033127784729L273.65333333333336,252.3234186172485L274.875,292.86848545074463L276.09666666666664,273.28488636016846L277.3183333333333,263.4890513420105L278.54,289.33468294143677L279.76166666666666,285.981600522995L280.98333333333335,290.3495593070984L282.205,281.40430784225464L283.4266666666667,296.564658164978L284.6483333333333,289.2479953765869L285.87,285.44795179367065L287.09166666666664,288.81257486343384L288.31333333333333,292.3527159690857L289.535,289.1838834285736L290.75666666666666,274.1902642250061L291.9783333333333,286.253764629364L293.2,280.41332387924194L294.4216666666667,293.3095486164093L295.6433333333333,300.1425504684448L296.865,282.9647741317749L298.0866666666667,288.543399810791L299.30833333333334,284.91771268844604L300.53,279.7216658592224L301.75166666666667,292.1468918323517L302.97333333333336,282.3558633327484L304.195,262.65248680114746L305.4166666666667,267.1477732658386L306.6383333333333,282.78231167793274L307.86,301.908465385437L309.0816666666667,260.37485790252686L310.30333333333334,288.76668763160706L311.525,270.81003999710083L312.74666666666667,287.35444736480713L313.96833333333336,288.53162384033203L315.19,281.3487524986267L316.41166666666663,249.62395763397217L317.6333333333333,286.59588861465454L318.855,291.17276072502136L320.07666666666665,290.32243251800537L321.29833333333335,298.0925302505493L322.52,289.0384211540222L323.7416666666667,295.31355142593384L324.96333333333337,287.95615339279175L326.185,279.32635974884033L327.40666666666664,276.9262146949768L328.62833333333333,268.4818124771118L329.85,279.5671262741089L331.07166666666666,290.46953201293945L332.2933333333333,291.7739911079407L333.515,280.21382331848145L334.7366666666667,295.8262867927551L335.9583333333333,290.44856357574463L337.18,285.4722898006439L338.40166666666664,304.8500146865845L339.62333333333333,300.148894071579L340.845,291.9592022895813L342.06666666666666,298.66091108322144L343.2883333333333,293.0143232345581L344.51,276.0319719314575L345.7316666666667,263.9297490119934L346.9533333333333,276.60233545303345L348.175,293.0563201904297L349.3966666666667,276.98581552505493L350.61833333333334,290.6367437839508L351.84,272.332159280777L353.06166666666667,299.8630864620209L354.28333333333336,301.18593549728394L355.505,294.01203632354736L356.7266666666667,296.6869840621948L357.9483333333333,296.4489412307739L359.17,289.2199773788452L360.39166666666665,299.76015186309814L361.61333333333334,280.1547532081604L362.835,296.3183341026306L364.0566666666667,286.1495532989502L365.27833333333336,281.3967876434326L366.5,297.72605323791504L367.7216666666667,296.81591391563416L368.9433333333333,290.6706848144531L370.165,302.1790223121643L371.3866666666667,292.3981976509094L372.6083333333333,288.29974937438965L373.83,289.36187982559204L375.0516666666667,287.2129955291748L376.2733333333333,291.7495279312134L377.495,255.61353063583374L378.7166666666667,289.0955386161804L379.93833333333333,271.34338331222534L381.16,289.3003714084625L382.3816666666666,289.7209167480469L383.6033333333333,300.95440649986267L384.825,229.67178869247437L386.0466666666666,273.11411476135254L387.2683333333333,293.91132974624634L388.49,297.30267906188965L389.71166666666664,295.7928113937378L390.93333333333334,300.0463900566101L392.15500000000003,291.04856729507446L393.3766666666666,292.56887912750244L394.59833333333336,295.5268156528473L395.82000000000005,299.3930389881134L397.04166666666663,301.3962707519531L398.2633333333333,291.4081048965454L399.485,299.453556060791L400.70666666666665,298.89699625968933L401.92833333333334,296.80163955688477L403.15000000000003,288.94713735580444L404.37166666666667,286.8914794921875L405.59333333333336,279.1692066192627L406.81500000000005,282.6625442504883L408.03666666666663,288.36239433288574L409.2583333333333,292.18041229248047L410.48,294.80596804618835L411.70166666666665,289.10800552368164L412.92333333333335,295.56185817718506L414.145,295.2139263153076L415.3666666666667,292.3105888366699L416.58833333333337,297.49377822875977L417.80999999999995,287.9122488498688L419.03166666666664,234.16527271270755L420.25333333333333,289.2589702606201L421.47499999999997,299.488543510437L422.69666666666666,287.22128677368164L423.91833333333335,283.5705006122589L425.14,286.7932662963867L426.3616666666667,298.44082260131836L427.58333333333337,293.80779933929443L428.80499999999995,300.873411655426L430.02666666666664,297.75528287887573L431.2483333333334,297.2517499923706L432.46999999999997,288.7992067337036L433.69166666666666,288.6606488227844L434.91333333333336,298.3574345111847L436.135,278.69169902801514L437.3566666666667,281.9700050354004L438.5783333333334,292.04494857788086L439.8,292.735880613327L441.0216666666667,285.74415349960327L442.2433333333334,294.4833655357361L443.465,289.1893358230591L444.68666666666667,290.7266707420349L445.9083333333333,293.3506693840027L447.13,295.79986095428467L448.3516666666667,291.6145849227905L449.5733333333333,301.6534345149994L450.795,295.2736973762512L452.0166666666667,290.7485704421997L453.2383333333333,295.1269233226776L454.46,294.3615803718567L455.6816666666667,289.3017883300781L456.9033333333333,288.39452290534973L458.125,283.1157388687134L459.3466666666667,282.3644599914551L460.5683333333333,299.0314836502075L461.79,277.00887179374695L463.0116666666667,293.938942193985L464.2333333333333,296.6998014450073L465.455,302.04008889198303L466.6766666666667,301.8890290260315L467.8983333333333,293.37759590148926L469.12,297.4025995731354L470.3416666666667,285.49521589279175L471.56333333333333,299.4948720932007L472.785,302.9209885597229L474.0066666666666,276.28504514694214L475.2283333333333,292.7952961921692L476.45,294.757297039032L477.6716666666666,299.6116404533386L478.8933333333333,293.31518626213074L480.115,289.9291191101074L481.33666666666664,291.87300539016724L482.55833333333334,297.2281279563904L483.78000000000003,301.03248739242554L485.0016666666666,294.8914089202881L486.22333333333336,293.896559715271L487.44500000000005,288.9382302761078L488.66666666666663,296.7574095726013L489.8883333333333,295.68642711639404L491.11,280.7457346916199L492.33166666666665,298.01942110061646L493.55333333333334,297.29265546798706L494.77500000000003,295.45302057266235L495.99666666666667,294.58459281921387L497.21833333333336,302.76018047332764L498.44000000000005,293.12452268600464L499.66166666666663,296.7249505519867L500.8833333333333,296.70863342285156L502.105,300.3100075721741L503.32666666666665,300.2453598976135L504.54833333333335,296.41783905029297L505.77,295.3633689880371L506.9916666666667,293.15681648254395L508.21333333333337,278.9004921913147L509.43499999999995,293.06705474853516L510.65666666666664,289.0359528064728L511.87833333333333,298.7640609741211L513.1,290.32184171676636L514.3216666666667,297.0417101383209L515.5433333333334,292.09792041778564L516.765,287.96147060394287L517.9866666666667,293.3074858188629L519.2083333333334,300.1253271102905L520.43,291.13290667533875L521.6516666666666,303.0138895511627L522.8733333333333,271.84328627586365L524.095,299.19942140579224L525.3166666666667,292.71651434898376L526.5383333333334,298.3959217071533L527.76,273.16749715805054L528.9816666666667,294.07031536102295L530.2033333333334,297.2258849143982L531.425,297.3294253349304L532.6466666666666,301.2010259628296L533.8683333333333,289.3525221347809L535.09,293.96260929107666L536.3116666666667,292.33484172821045L537.5333333333333,275.8342537879944L538.755,293.9323682785034L539.9766666666667,252.9331455230713L541.1983333333333,287.6720931529999L542.42,301.6760401725769L543.6416666666667,284.5137948989868L544.8633333333333,297.98352241516113L546.085,292.0094254016876L547.3066666666667,297.0210871696472L548.5283333333333,270.596951007843L549.75,302.0578429698944L550.9716666666667,276.09903287887573L552.1933333333333,299.8169889450073L553.415,301.8216276168823L554.6366666666667,295.7844500541687L555.8583333333333,286.2572994232178L557.08,268.34677934646606L558.3016666666667,287.97425293922424L559.5233333333333,298.8852903842926L560.745,291.6510543823242L561.9666666666667,290.5934100151062L563.1883333333333,294.1829080581665L564.41,251.89159297943118L565.6316666666667,304.96401929855347L566.8533333333334,301.0487995147705L568.075,283.1770820617676L569.2966666666666,294.5406632423401L570.5183333333333,285.2607879638672L571.74,285.64602041244507L572.9616666666666,293.3135390281677L574.1833333333333,293.0262293815613L575.405,260.77674293518066L576.6266666666667,294.1736454963684L577.8483333333334,297.14249181747437L579.07,291.50799036026L580.2916666666666,249.96265697479245L581.5133333333333,302.03836154937744L582.735,302.2352685928345L583.9566666666666,281.58493280410767L585.1783333333333,297.9900212287903L586.4,288.2305955886841L587.6216666666667,292.3043804168701L588.8433333333334,286.00519251823425L590.065,290.46108055114746L591.2866666666666,293.7008943557739L592.5083333333333,288.3071494102478L593.73,293.43073296546936L594.9516666666666,294.4684453010559L596.1733333333334,297.62810039520264L597.395,298.26390266418457L598.6166666666667,292.53163862228394L599.8383333333334,282.98706436157227L601.06,304.1134557723999L602.2816666666666,288.3297049999237L603.5033333333333,284.13348412513733L604.725,282.63702964782715L605.9466666666667,303.0473198890686L607.1683333333334,293.94672775268555L608.39,296.94372725486755L609.6116666666667,295.07038164138794L610.8333333333334,287.7764596939087L612.055,304.89155101776123L613.2766666666666,286.7858862876892L614.4983333333333,268.75343084335327L615.72,289.91244649887085L616.9416666666667,293.2841191291809L618.1633333333334,296.58819007873535L619.385,261.8368456363678L620.6066666666667,283.44337821006775L621.8283333333334,295.5759072303772L623.05,293.58726024627686L624.2716666666666,291.94873309135437L625.4933333333333,302.37475776672363L626.715,292.86046957969666L627.9366666666667,304.05581760406494L629.1583333333333,299.63805627822876L630.38,305.30374002456665L631.6016666666667,288.2555093765259L632.8233333333333,297.2729437351227L634.045,284.12312507629395L635.2666666666667,302.73218750953674L636.4883333333333,294.59787583351135L637.71,299.7677972316742L638.9316666666667,291.88047552108765L640.1533333333333,302.4427099227905L641.375,282.2071967124939L642.5966666666667,291.9847469329834L643.8183333333333,297.56425881385803L645.04,269.3459143638611L646.2616666666667,278.37406826019287L647.4833333333333,302.90643882751465L648.705,289.93700981140137L649.9266666666667,272.66267251968384L651.1483333333333,287.9584364891052L652.37,291.82732343673706L653.5916666666667,297.691997051239L654.8133333333333,296.1643853187561L656.035,301.2958745956421L657.2566666666667,301.45092487335205L658.4783333333334,294.5263338088989L659.7,303.94867730140686L660.9216666666666,295.1057596206665L662.1433333333333,287.26019954681396L663.365,305.118123292923L664.5866666666666,282.4451894760132L665.8083333333333,280.12325048446655L667.03,293.61747121810913L668.2516666666667,300.04803228378296L669.4733333333334,303.8499433994293L670.695,299.4824652671814L671.9166666666666,299.054584980011L673.1383333333333,294.55503273010254L674.36,279.5708763599396L675.5816666666666,299.4311957359314L676.8033333333333,283.7148814201355L678.025,299.4264793395996L679.2466666666667,307.89642119407654L680.4683333333334,288.82468128204346L681.69,295.4665789604187L682.9116666666666,294.2872896194458L684.1333333333333,268.6277554035187L685.355,290.60070991516113L686.5766666666666,267.2040295600891L687.7983333333334,298.4108819961548L689.02,302.82346630096436L690.2416666666667,278.93483877182007L691.4633333333334,255.65781569480896L692.685,300.3049657344818L693.9066666666666,300.2750301361084L695.1283333333333,300.6791081428528L696.35,304.991005897522L697.5716666666667,279.11130809783936L698.7933333333334,301.2320981025696L700.015,310.2867479324341L701.2366666666667,291.9543957710266L702.4583333333334,289.9227705001831L703.68,285.7650318145752L704.9016666666666,292.81934881210327L706.1233333333333,298.73124146461487L707.345,294.30721163749695L708.5666666666667,293.4841253757477L709.7883333333334,297.6403670310974L711.01,295.68355321884155L712.2316666666667,307.047660112381L713.4533333333334,270.8728652000427L714.675,295.5716814994812L715.8966666666666,298.19510436058044L717.1183333333333,295.68634700775146L718.34,297.93311405181885L719.5616666666667,297.3057632446289L720.7833333333333,289.0828263759613L722.005,291.08475637435913L723.2266666666667,296.5182502269745L724.4483333333333,278.585985660553L725.67,289.5121285915375L726.8916666666667,305.7422297000885L728.1133333333333,290.7454161643982L729.335,285.8525505065918L730.5566666666667,296.80652618408203L731.7783333333333,298.35028982162476L733,301.83986234664917L734.2216666666667,295.0101399421692L735.4433333333334,304.0070915222168L736.665,290.8908483982086L737.8866666666667,286.21996879577637L739.1083333333333,296.18122816085815L740.33,309.68489170074463L741.5516666666667,291.47207164764404L742.7733333333334,292.27842020988464L743.9949999999999,295.3178973197937L745.2166666666666,284.55396938323975L746.4383333333333,303.1293511390686L747.66,300.5098285675049L748.8816666666667,283.5157263278961L750.1033333333334,308.79042863845825L751.3249999999999,290.4985613822937L752.5466666666666,300.58285760879517L753.7683333333333,278.0969924926758L754.99,277.89666080474854L756.2116666666667,295.8471851348877L757.4333333333334,306.9324188232422L758.655,291.8590714931488L759.8766666666667,296.2457356452942L761.0983333333334,295.7916898727417L762.32,310.30144786834717L763.5416666666667,300.23331356048584L764.7633333333332,305.7520680427551L765.9849999999999,295.8548605442047L767.2066666666666,299.23284673690796L768.4283333333333,297.2444701194763L769.65,286.3978099822998L770.8716666666668,303.7847900390625L772.0933333333332,302.6020610332489L773.3149999999999,287.8875904083252L774.5366666666666,301.9516339302063L775.7583333333333,298.03056621551514L776.98,287.91784143447876L778.2016666666667,294.11871099472046L779.4233333333333,296.34249687194824L780.645,301.2585639953613L781.8666666666667,294.8365445137024L783.0883333333334,302.855149269104L784.3100000000001,300.76490449905396L785.5316666666668,301.2560155391693L786.7533333333332,295.8651294708252L787.975,302.8629298210144L789.1966666666667,227.68664646148684L790.4183333333334,298.42580223083496L791.6400000000001,289.36067819595337L792.8616666666668,291.4326682090759L794.0833333333333,304.3936858177185L795.305,282.88937187194824L796.5266666666666,302.5614609718323L797.7483333333333,296.2982668876648L798.97,297.08630561828613L800.1916666666666,299.7863473892212L801.4133333333333,285.9547390937805L802.635,298.9341866970062L803.8566666666667,282.4077787399292L805.0783333333334,291.9531440734863L806.3000000000001,287.9989113807678L807.5216666666666,291.3616318702698L808.7433333333333,295.02900552749634L809.965,294.28166699409485L811.1866666666667,262.0524380207062L812.4083333333334,285.1193161010742L813.6300000000001,300.93566608428955L814.8516666666666,299.5690426826477L816.0733333333333,291.80358123779297L817.295,282.2383589744568L818.5166666666667,300.1093053817749L819.7383333333333,283.2228741645813L820.96,302.08715772628784L822.1816666666666,248.37596511840817L823.4033333333333,300.80173444747925L824.625,308.83256578445435L825.8466666666667,269.35832118988037L827.0683333333334,298.0627598762512L828.29,258.2518186569214L829.5116666666667,302.0093171596527L830.7333333333333,296.82105588912964L831.955,280.64318561553955L833.1766666666667,293.5425646305084L834.3983333333334,298.1850357055664L835.6199999999999,305.923180103302L836.8416666666666,295.1664619445801L838.0633333333333,291.4245171546936L839.285,289.08997106552124L840.5066666666667,290.57341289520264L841.7283333333334,299.36398458480835L842.9499999999999,298.85394287109375L844.1716666666666,292.96972274780273L845.3933333333333,284.15736150741577L846.615,247.7342348098755L847.8366666666667,291.8274836540222L849.0583333333334,300.2306399345398L850.28,304.00060272216797L851.5016666666667,280.65682911872864L852.7233333333334,297.2532420158386L853.945,296.4044759273529L855.1666666666667,300.5899772644043L856.3883333333332,292.1172866821289L857.6099999999999,289.29306650161743L858.8316666666666,291.5504479408264L860.0533333333333,299.9296016693115L861.275,305.44671392440796L862.4966666666668,307.42081117630005L863.7183333333332,281.801176071167L864.9399999999999,296.7216510772705L866.1616666666666,298.6907866001129L867.3833333333333,287.12333393096924L868.605,292.5298762321472L869.8266666666667,301.61161279678345L871.0483333333333,303.59772634506226L872.27,284.64913845062256L873.4916666666667,290.37593507766724L874.7133333333334,299.02340269088745L875.9350000000001,300.36342000961304L877.1566666666668,303.14016580581665L878.3783333333332,301.8042240142822L879.6,289.99902391433716L880.8216666666667,284.63842391967773L882.0433333333334,253.1948404312134L883.2650000000001,308.2645354270935L884.4866666666668,299.37421345710754L885.7083333333333,307.30541467666626L886.93,288.25681614875793L888.1516666666666,299.374538898468L889.3733333333333,301.8604302406311L890.595,274.77980375289917L891.8166666666666,281.0650177001953L893.0383333333333,305.5113015174866L894.26,298.238778591156L895.4816666666667,282.2999174594879L896.7033333333334,292.905565738678L897.9250000000001,305.2237515449524L899.1466666666666,298.08845472335815L900.3683333333333,275.3186745643616L901.59,299.38550877571106L902.8116666666667,297.3591556549072L904.0333333333334,297.11559534072876L905.2550000000001,274.72763299942017L906.4766666666666,302.30002641677856L907.6983333333333,300.3830966949463L908.92,306.39245653152466L910.1416666666667,295.62688636779785L911.3633333333333,299.0772156715393L912.585,289.7548027038574L913.8066666666666,297.40423679351807L915.0283333333333,295.81910705566406L916.25,297.8845181465149L917.4716666666667,303.30840396881104L918.6933333333334,297.66791439056396L919.915,292.84082794189453L921.1366666666667,301.46202993392944L922.3583333333333,292.3566312789917L923.58,297.05140829086304L924.8016666666667,297.30678963661194L926.0233333333334,300.8242049217224L927.2449999999999,297.55902671813965L928.4666666666666,285.31636333465576L929.6883333333333,306.2583546638489L930.91,299.8226065635681L932.1316666666667,249.9726605415344L933.3533333333334,299.43369913101196L934.5749999999999,297.95987033843994L935.7966666666666,301.89874720573425L937.0183333333333,301.4963264465332L938.24,292.3540577888489L939.4616666666667,278.0995759963989L940.6833333333334,297.4286699295044L941.905,290.1965618133545L943.1266666666667,292.59510469436646L944.3483333333334,312.08315420150757L945.57,302.35664319992065L946.7916666666667,292.82837104797363L948.0133333333332,276.7898597717285L949.2349999999999,297.46557998657227L950.4566666666666,294.17993903160095L951.6783333333333,298.02686619758606L952.9,297.3971071243286L954.1216666666668,277.5486488342285L955.3433333333332,294.55985927581787L956.5649999999999,303.8323595523834L957.7866666666666,297.105877161026L959.0083333333333,287.6293902397156L960.23,293.6850428581238L961.4516666666667,245.88176250457764L962.6733333333333,300.44982719421387L963.895,303.706533908844L965.1166666666667,287.0753388404846L966.3383333333334,285.24606800079346L967.5600000000001,308.02737379074097L968.7816666666668,283.92547702789307L970.0033333333332,298.696444272995L971.225,306.8596601486206L972.4466666666667,296.6632869243622L973.6683333333334,289.9227204322815L974.8900000000001,293.9769937992096L976.1116666666668,298.2846608161926L977.3333333333333,305.3978977203369L978.555,290.34369134902954L979.7766666666666,294.6232352256775L980.9983333333333,294.25797986984253L982.22,306.8738594055176L983.4416666666666,304.399293422699L984.6633333333333,303.28482699394226L985.885,300.59612560272217L987.1066666666667,284.28743290901184L988.3283333333334,302.45319414138794L989.5500000000001,284.5842704772949L990.7716666666666,307.73975372314453L991.9933333333333,281.40952491760254L993.215,284.13538670539856L994.4366666666667,278.77696466445923L995.6583333333334,289.9637060165405L996.8800000000001,294.3708679676056L998.1016666666666,300.85269355773926L999.3233333333333,302.29461908340454L1000.545,307.3829047679901L1001.7666666666667,297.26090240478516L1002.9883333333333,297.0333938598633L1004.21,300.846595287323L1005.4316666666666,297.04070377349854L1006.6533333333333,296.2117295265198L1007.875,294.27937388420105L1009.0966666666667,297.63691234588623L1010.3183333333334,287.34978103637695L1011.54,290.62650990486145L1012.7616666666667,304.4017016887665L1013.9833333333333,279.91562390327454L1015.205,302.82548904418945L1016.4266666666667,298.26269602775574L1017.6483333333334,274.56339025497437L1018.8699999999999,294.63118600845337L1020.0916666666666,287.92591738700867L1021.3133333333333,303.8816363811493L1022.535,305.38126015663147L1023.7566666666667,297.66917610168457L1024.9783333333335,302.90655398368835L1026.2,281.9709413051605L1027.4216666666666,304.936071395874L1028.6433333333334,305.50696563720703L1029.865,280.805615901947L1031.0866666666668,308.13277673721313L1032.3083333333334,298.0869576931L1033.53,307.4706287384033L1034.7516666666666,302.00616788864136L1035.9733333333334,284.0523290634155L1037.195,298.43684220314026L1038.4166666666667,285.1507787704468L1039.6383333333333,295.4798970222473L1040.86,299.94904804229736L1042.0816666666667,293.0289030075073L1043.3033333333333,298.1959705352783L1044.525,293.14008378982544L1045.7466666666667,295.25568294525146L1046.9683333333332,276.74539947509766L1048.19,300.21303606033325L1049.4116666666666,300.5514500141144L1050.6333333333334,283.4798676967621L1051.855,303.99610662460327L1053.0766666666668,303.2681894302368L1054.2983333333332,299.2608947753906L1055.52,305.5870842933655L1056.7416666666666,285.46728801727295L1057.9633333333334,302.5708487033844L1059.185,307.09446358680725L1060.4066666666668,245.38157415390012L1061.6283333333333,266.23924112319946L1062.85,289.80646276474L1064.0716666666667,304.32531809806824L1065.2933333333333,303.6170725822449L1066.515,305.23808097839355L1067.7366666666667,291.2781035900116L1068.9583333333333,303.0617594718933L1070.18,303.46176195144653L1071.4016666666666,251.00371885299683L1072.6233333333334,297.8191294670105L1073.845,291.68322801589966L1075.0666666666666,297.2885699272156L1076.2883333333332,304.7590012550354L1077.51,286.3396210670471L1078.7316666666666,290.3407173156738L1079.9533333333334,294.57779359817505L1081.175,304.82317328453064L1082.3966666666665,295.0453977584839L1083.6183333333333,306.1100986003876L1084.84,301.9292585849762L1086.0616666666667,297.84366273880005L1087.2833333333333,277.8218493461609L1088.505,296.83113956451416L1089.7266666666667,306.3922712802887L1090.9483333333333,304.3592691421509L1092.17,302.85842871665955L1093.3916666666667,307.92742824554443L1094.6133333333335,297.8326528072357L1095.835,308.61206674575806L1097.0566666666666,306.07144117355347L1098.2783333333332,294.6408040523529L1099.5,275.15362572669983L1100.7216666666668,303.54023838043213L1101.9433333333334,278.2874457836151L1103.165,307.33684730529785L1104.3866666666665,301.4433445930481L1105.6083333333333,306.1030089855194L1106.83,307.735728263855L1108.0516666666667,302.7863759994507L1109.2733333333333,239.9392433166504L1110.495,310.5302882194519L1111.7166666666667,295.0336217880249L1112.9383333333333,299.2393455505371L1114.16,304.64964294433594L1115.3816666666667,289.23467230796814L1116.6033333333335,307.05351305007935L1117.825,303.08840560913086L1119.0466666666666,310.3797941207886L1120.2683333333334,293.74871921539307L1121.49,277.38450622558594L1122.7116666666668,306.24443078041077L1123.9333333333334,299.8119821548462L1125.155,293.2869029045105L1126.3766666666666,297.8554437160492L1127.5983333333334,286.1829786300659L1128.82,289.55095624923706L1130.0416666666667,280.2590296268463L1131.2633333333333,288.71974897384644L1132.485,299.57042956352234L1133.7066666666667,292.62612676620483L1134.9283333333333,299.18652391433716L1136.15,299.42965865135193L1137.3716666666667,305.2222194671631L1138.5933333333332,302.81528520584106L1139.815,298.7642011642456L1141.0366666666666,246.1987223625183L1142.2583333333334,303.75395822525024L1143.48,290.7005703449249L1144.7016666666668,269.00437116622925L1145.9233333333332,275.1507468223572L1147.145,290.0900673866272L1148.3666666666666,301.1635000705719L1149.5883333333334,311.04871129989624L1150.81,280.92716574668884L1152.0316666666668,298.42750453948975L1153.2533333333333,300.90194034576416L1154.475,305.8079788684845L1155.6966666666667,300.7895178794861L1156.9183333333333,293.3065996170044L1158.14,301.3415765762329L1159.3616666666667,295.9217712879181L1160.5833333333333,280.44189262390137L1161.805,305.03479528427124L1163.0266666666666,302.01340770721436L1164.2483333333334,309.0346748828888L1165.47,304.02267265319824L1166.6916666666666,307.1164333820343L1167.9133333333332,293.9994192123413L1169.135,309.3879990577698L1170.3566666666666,280.30750036239624L1171.5783333333334,306.15087890625L1172.8,289.588707447052L1174.0216666666665,300.79773902893066L1175.2433333333333,296.35342168807983L1176.465,199.20203590393064L1177.6866666666667,288.236403465271L1178.9083333333333,301.3931465148926L1180.13,309.2282123565674L1181.3516666666667,294.750027179718L1182.5733333333333,306.0734839439392L1183.795,299.284987449646L1185.0166666666667,275.9374086856842L1186.2383333333335,296.6516361236572L1187.46,305.3621292114258L1188.6816666666666,293.38009428977966L1189.9033333333332,288.8112931251526L1191.125,298.927282333374L1192.3466666666668,299.65315675735474L1193.5683333333334,284.5940988063812L1194.79,276.26098251342773L1196.0116666666665,295.33104515075684L1197.2333333333333,302.26543951034546L1198.455,300.3261094093323L1199.6766666666667,281.5458948612213L1200.8983333333333,277.8514995574951L1202.12,294.68360710144043L1203.3416666666667,282.70610332489014L1204.5633333333333,299.4647762775421L1205.785,303.5738139152527L1207.0066666666667,298.0939121246338L1208.2283333333335,297.34584760665894L1209.45,277.86874294281006L1210.6716666666666,298.0175986289978L1211.8933333333334,307.41497826576233L1213.115,291.4257388114929L1214.3366666666668,301.0027320384979L1215.5583333333334,298.3879609107971L1216.78,293.9630799293518L1218.0016666666666,303.14938831329346L1219.2233333333334,294.8446705341339L1220.445,305.77254581451416L1221.6666666666667,301.87624168395996L1222.8883333333333,300.7652349472046L1224.11,296.30985260009766L1225.3316666666667,304.4479093551636L1226.5533333333333,298.0940372943878L1227.775,290.13187408447266L1228.9966666666667,297.28442430496216L1230.2183333333332,302.10320949554443L1231.44,296.4445252418518L1232.6616666666666,300.67960381507874L1233.8833333333334,296.90235114097595L1235.105,297.7186632156372L1236.3266666666668,306.3971529006958L1237.5483333333332,307.01240730285645L1238.77,296.41328287124634L1239.9916666666666,301.76763939857483L1241.2133333333334,306.2503137588501L1242.435,282.02345752716064L1243.6566666666668,299.60572242736816L1244.8783333333333,297.6602439880371L1246.1,294.35412526130676L1247.3216666666667,298.8037898540497L1248.5433333333333,299.0516710281372L1249.765,295.7997508049011L1250.9866666666667,302.6090655326843L1252.2083333333333,304.8188624382019L1253.43,288.135947227478L1254.6516666666666,281.12116384506226L1255.8733333333334,295.0267424583435L1257.095,292.65576696395874L1258.3166666666666,294.2902135848999L1259.5383333333332,307.6514890193939L1260.76,295.3574209213257L1261.9816666666666,308.21734142303467L1263.2033333333334,289.4406967163086L1264.425,312.92298316955566L1265.6466666666665,290.030962228775L1266.8683333333333,311.646507024765L1268.09,294.95881032943726L1269.3116666666667,307.7235116958618L1270.5333333333333,299.5048656463623L1271.755,313.72263264656067L1272.9766666666667,302.4321255683899L1274.1983333333333,299.98925256729126L1275.42,303.8732249736786L1276.6416666666667,234.1408996582031L1277.8633333333335,290.80935287475586L1279.085,257.0724091529846L1280.3066666666666,300.326504945755L1281.5283333333332,305.5827634334564L1282.75,308.258367061615L1283.9716666666668,300.8439517021179L1285.1933333333334,302.7501368522644L1286.415,289.2011218070984L1287.6366666666665,286.70549726486206L1288.8583333333333,302.8443396091461L1290.08,280.94928073883057L1291.3016666666667,260.22384810447693L1292.5233333333333,307.1735908985138L1293.745,297.14084458351135L1294.9666666666667,303.6244926452637L1296.1883333333333,310.8505074977875L1297.41,245.82156085968018L1298.6316666666667,303.3763861656189L1299.8533333333335,242.69090509414673L1301.075,301.46824836730957L1302.2966666666666,305.7454240322113L1303.5183333333334,300.82211208343506L1304.74,302.2992653846741L1305.9616666666668,294.2526626586914L1307.1833333333334,303.62810754776L1308.405,301.38148069381714L1309.6266666666666,291.6779408454895L1310.8483333333334,294.7585988044739L1312.07,275.58848547935486L1313.2916666666667,296.91344118118286L1314.5133333333333,304.2624578475952L1315.735,304.32826709747314L1316.9566666666667,307.0911440849304L1318.1783333333333,290.790807723999L1319.4,296.98584938049316L1320.6216666666667,288.8337986469269L1321.8433333333332,284.70989084243774L1323.065,291.0856075286865L1324.2866666666666,277.8736996650696L1325.5083333333334,303.2514817714691L1326.73,305.73162031173706L1327.9516666666668,305.36446237564087L1329.1733333333332,302.5212914943695L1330.395,301.9306654930115L1331.6166666666666,269.82837867736816L1332.8383333333334,304.61645793914795L1334.06,303.47122979164124L1335.2816666666668,295.0927720069885L1336.5033333333333,304.3130865097046L1337.725,301.7308394908905L1338.9466666666667,308.0538146495819L1340.1683333333333,259.3282034397125L1341.39,302.5126848220825L1342.6116666666667,305.2176282405853" style="fill: none;" fill="none"></path></g></g></g></g></g><g><g opacity="0.905753"><span fill="rgb(0, 0, 0)" stroke="none" stroke-width="1px">Alt + Scroll to Zoom</span></g></g></g><g transform="translate(30, 378)" clip-path="url(#clip_1)"><clipPath id="clip_1"><rect width="1466" height="22"></rect></clipPath><g><g><line x1="0" y1="0" x2="0" y2="5" style="visibility: inherit;" fill="rgb(0, 0, 0)" stroke="rgb(204, 204, 204)" stroke-width="1px"></line><line x1="122.16666666666666" y1="0" x2="122.16666666666666" y2="5" style="visibility: inherit;" fill="rgb(0, 0, 0)" stroke="rgb(204, 204, 204)" stroke-width="1px"></line><line x1="244.33333333333331" y1="0" x2="244.33333333333331" y2="5" style="visibility: inherit;" fill="rgb(0, 0, 0)" stroke="rgb(204, 204, 204)" stroke-width="1px"></line><line x1="366.5" y1="0" x2="366.5" y2="5" style="visibility: inherit;" fill="rgb(0, 0, 0)" stroke="rgb(204, 204, 204)" stroke-width="1px"></line><line x1="488.66666666666663" y1="0" x2="488.66666666666663" y2="5" style="visibility: inherit;" fill="rgb(0, 0, 0)" stroke="rgb(204, 204, 204)" stroke-width="1px"></line><line x1="610.8333333333334" y1="0" x2="610.8333333333334" y2="5" style="visibility: inherit;" fill="rgb(0, 0, 0)" stroke="rgb(204, 204, 204)" stroke-width="1px"></line><line x1="733" y1="0" x2="733" y2="5" style="visibility: inherit;" fill="rgb(0, 0, 0)" stroke="rgb(204, 204, 204)" stroke-width="1px"></line><line x1="855.1666666666667" y1="0" x2="855.1666666666667" y2="5" style="visibility: inherit;" fill="rgb(0, 0, 0)" stroke="rgb(204, 204, 204)" stroke-width="1px"></line><line x1="977.3333333333333" y1="0" x2="977.3333333333333" y2="5" style="visibility: inherit;" fill="rgb(0, 0, 0)" stroke="rgb(204, 204, 204)" stroke-width="1px"></line><line x1="1099.5" y1="0" x2="1099.5" y2="5" style="visibility: inherit;" fill="rgb(0, 0, 0)" stroke="rgb(204, 204, 204)" stroke-width="1px"></line><line x1="1221.6666666666667" y1="0" x2="1221.6666666666667" y2="5" style="visibility: inherit;" fill="rgb(0, 0, 0)" stroke="rgb(204, 204, 204)" stroke-width="1px"></line><line x1="1343.8333333333333" y1="0" x2="1343.8333333333333" y2="5" style="visibility: inherit;" fill="rgb(0, 0, 0)" stroke="rgb(204, 204, 204)" stroke-width="1px"></line><line x1="1466" y1="0" x2="1466" y2="5" style="visibility: inherit;" fill="rgb(0, 0, 0)" stroke="rgb(204, 204, 204)" stroke-width="1px"></line></g><g transform="translate(0, 8)"><text x="0" y="0" dx="0em" dy="0.95em" style="text-anchor: middle; visibility: hidden; font-family: Roboto, sans-serif; font-size: 12px; font-weight: 200;" fill="rgb(50, 49, 63)" stroke="none" stroke-width="1px">-100</text><text x="122.16666666666666" y="0" dx="0em" dy="0.95em" style="text-anchor: middle; visibility: inherit; font-family: Roboto, sans-serif; font-size: 12px; font-weight: 200;" fill="rgb(50, 49, 63)" stroke="none" stroke-width="1px">0</text><text x="244.33333333333331" y="0" dx="0em" dy="0.95em" style="text-anchor: middle; visibility: inherit; font-family: Roboto, sans-serif; font-size: 12px; font-weight: 200;" fill="rgb(50, 49, 63)" stroke="none" stroke-width="1px">100</text><text x="366.5" y="0" dx="0em" dy="0.95em" style="text-anchor: middle; visibility: inherit; font-family: Roboto, sans-serif; font-size: 12px; font-weight: 200;" fill="rgb(50, 49, 63)" stroke="none" stroke-width="1px">200</text><text x="488.66666666666663" y="0" dx="0em" dy="0.95em" style="text-anchor: middle; visibility: inherit; font-family: Roboto, sans-serif; font-size: 12px; font-weight: 200;" fill="rgb(50, 49, 63)" stroke="none" stroke-width="1px">300</text><text x="610.8333333333334" y="0" dx="0em" dy="0.95em" style="text-anchor: middle; visibility: inherit; font-family: Roboto, sans-serif; font-size: 12px; font-weight: 200;" fill="rgb(50, 49, 63)" stroke="none" stroke-width="1px">400</text><text x="733" y="0" dx="0em" dy="0.95em" style="text-anchor: middle; visibility: inherit; font-family: Roboto, sans-serif; font-size: 12px; font-weight: 200;" fill="rgb(50, 49, 63)" stroke="none" stroke-width="1px">500</text><text x="855.1666666666667" y="0" dx="0em" dy="0.95em" style="text-anchor: middle; visibility: inherit; font-family: Roboto, sans-serif; font-size: 12px; font-weight: 200;" fill="rgb(50, 49, 63)" stroke="none" stroke-width="1px">600</text><text x="977.3333333333333" y="0" dx="0em" dy="0.95em" style="text-anchor: middle; visibility: inherit; font-family: Roboto, sans-serif; font-size: 12px; font-weight: 200;" fill="rgb(50, 49, 63)" stroke="none" stroke-width="1px">700</text><text x="1099.5" y="0" dx="0em" dy="0.95em" style="text-anchor: middle; visibility: inherit; font-family: Roboto, sans-serif; font-size: 12px; font-weight: 200;" fill="rgb(50, 49, 63)" stroke="none" stroke-width="1px">800</text><text x="1221.6666666666667" y="0" dx="0em" dy="0.95em" style="text-anchor: middle; visibility: inherit; font-family: Roboto, sans-serif; font-size: 12px; font-weight: 200;" fill="rgb(50, 49, 63)" stroke="none" stroke-width="1px">900</text><text x="1343.8333333333333" y="0" dx="0em" dy="0.95em" style="text-anchor: middle; visibility: inherit; font-family: Roboto, sans-serif; font-size: 12px; font-weight: 200;" fill="rgb(50, 49, 63)" stroke="none" stroke-width="1px">1k</text><text x="1466" y="0" dx="0em" dy="0.95em" style="text-anchor: middle; visibility: hidden; font-family: Roboto, sans-serif; font-size: 12px; font-weight: 200;" fill="rgb(50, 49, 63)" stroke="none" stroke-width="1px">1.1k</text></g><line x1="0" y1="0" x2="1466" y2="0" fill="rgb(0, 0, 0)" stroke="rgb(204, 204, 204)" stroke-width="1px"></line></g></g></g></g></svg>