<svg viewBox="0 0 1496 400" xmlns="http://www.w3.org/2000/svg"><g><g><g><g><g><line x1="60" y1="378" x2="55" y2="378" style="visibility: inherit;" fill="rgb(0, 0, 0)" stroke="rgb(204, 204, 204)" stroke-width="1px"></line><line x1="60" y1="340.2" x2="55" y2="340.2" style="visibility: inherit;" fill="rgb(0, 0, 0)" stroke="rgb(204, 204, 204)" stroke-width="1px"></line><line x1="60" y1="302.4" x2="55" y2="302.4" style="visibility: inherit;" fill="rgb(0, 0, 0)" stroke="rgb(204, 204, 204)" stroke-width="1px"></line><line x1="60" y1="264.6" x2="55" y2="264.6" style="visibility: inherit;" fill="rgb(0, 0, 0)" stroke="rgb(204, 204, 204)" stroke-width="1px"></line><line x1="60" y1="226.79999999999998" x2="55" y2="226.79999999999998" style="visibility: inherit;" fill="rgb(0, 0, 0)" stroke="rgb(204, 204, 204)" stroke-width="1px"></line><line x1="60" y1="189" x2="55" y2="189" style="visibility: inherit;" fill="rgb(0, 0, 0)" stroke="rgb(204, 204, 204)" stroke-width="1px"></line><line x1="60" y1="151.20000000000002" x2="55" y2="151.20000000000002" style="visibility: inherit;" fill="rgb(0, 0, 0)" stroke="rgb(204, 204, 204)" stroke-width="1px"></line><line x1="60" y1="113.40000000000003" x2="55" y2="113.40000000000003" style="visibility: inherit;" fill="rgb(0, 0, 0)" stroke="rgb(204, 204, 204)" stroke-width="1px"></line><line x1="60" y1="75.59999999999997" x2="55" y2="75.59999999999997" style="visibility: inherit;" fill="rgb(0, 0, 0)" stroke="rgb(204, 204, 204)" stroke-width="1px"></line><line x1="60" y1="37.80000000000001" x2="55" y2="37.80000000000001" style="visibility: inherit;" fill="rgb(0, 0, 0)" stroke="rgb(204, 204, 204)" stroke-width="1px"></line><line x1="60" y1="0" x2="55" y2="0" style="visibility: inherit;" fill="rgb(0, 0, 0)" stroke="rgb(204, 204, 204)" stroke-width="1px"></line></g><g transform="translate(50, 0)"><text x="0" y="378" dx="0em" dy="0.3em" style="text-anchor: end; visibility: hidden; font-family: &quot;Helvetica Neue&quot;, sans-serif; font-size: 12px; font-weight: 200;" fill="rgb(50, 49, 63)" stroke="none" stroke-width="1px">-8e+3</text><text x="0" y="340.2" dx="0em" dy="0.3em" style="text-anchor: end; visibility: inherit; font-family: &quot;Helvetica Neue&quot;, sans-serif; font-size: 12px; font-weight: 200;" fill="rgb(50, 49, 63)" stroke="none" stroke-width="1px">-7e+3</text><text x="0" y="302.4" dx="0em" dy="0.3em" style="text-anchor: end; visibility: inherit; font-family: &quot;Helvetica Neue&quot;, sans-serif; font-size: 12px; font-weight: 200;" fill="rgb(50, 49, 63)" stroke="none" stroke-width="1px">-6e+3</text><text x="0" y="264.6" dx="0em" dy="0.3em" style="text-anchor: end; visibility: inherit; font-family: &quot;Helvetica Neue&quot;, sans-serif; font-size: 12px; font-weight: 200;" fill="rgb(50, 49, 63)" stroke="none" stroke-width="1px">-5e+3</text><text x="0" y="226.79999999999998" dx="0em" dy="0.3em" style="text-anchor: end; visibility: inherit; font-family: &quot;Helvetica Neue&quot;, sans-serif; font-size: 12px; font-weight: 200;" fill="rgb(50, 49, 63)" stroke="none" stroke-width="1px">-4e+3</text><text x="0" y="189" dx="0em" dy="0.3em" style="text-anchor: end; visibility: inherit; font-family: &quot;Helvetica Neue&quot;, sans-serif; font-size: 12px; font-weight: 200;" fill="rgb(50, 49, 63)" stroke="none" stroke-width="1px">-3e+3</text><text x="0" y="151.20000000000002" dx="0em" dy="0.3em" style="text-anchor: end; visibility: inherit; font-family: &quot;Helvetica Neue&quot;, sans-serif; font-size: 12px; font-weight: 200;" fill="rgb(50, 49, 63)" stroke="none" stroke-width="1px">-2e+3</text><text x="0" y="113.40000000000003" dx="0em" dy="0.3em" style="text-anchor: end; visibility: inherit; font-family: &quot;Helvetica Neue&quot;, sans-serif; font-size: 12px; font-weight: 200;" fill="rgb(50, 49, 63)" stroke="none" stroke-width="1px">-1e+3</text><text x="0" y="75.59999999999997" dx="0em" dy="0.3em" style="text-anchor: end; visibility: inherit; font-family: &quot;Helvetica Neue&quot;, sans-serif; font-size: 12px; font-weight: 200;" fill="rgb(50, 49, 63)" stroke="none" stroke-width="1px">0</text><text x="0" y="37.80000000000001" dx="0em" dy="0.3em" style="text-anchor: end; visibility: inherit; font-family: &quot;Helvetica Neue&quot;, sans-serif; font-size: 12px; font-weight: 200;" fill="rgb(50, 49, 63)" stroke="none" stroke-width="1px">1e+3</text><text x="0" y="0" dx="0em" dy="0.3em" style="text-anchor: end; visibility: hidden; font-family: &quot;Helvetica Neue&quot;, sans-serif; font-size: 12px; font-weight: 200;" fill="rgb(50, 49, 63)" stroke="none" stroke-width="1px">2e+3</text></g><line x1="60" y1="0" x2="60" y2="378" fill="rgb(0, 0, 0)" stroke="rgb(204, 204, 204)" stroke-width="1px"></line></g></g><g transform="translate(60, 0)" clip-path="url(#clip_0)"><clipPath id="clip_0"><rect width="1436" height="378"></rect></clipPath><g><g><g><line x1="0" y1="0" x2="0" y2="378" fill="rgb(0, 0, 0)" stroke="rgb(60, 60, 60)" stroke-width="1px" opacity="0.25"></line><line x1="119.66666666666666" y1="0" x2="119.66666666666666" y2="378" fill="rgb(0, 0, 0)" stroke="rgb(60, 60, 60)" stroke-width="1px" opacity="0.25"></line><line x1="239.33333333333331" y1="0" x2="239.33333333333331" y2="378" fill="rgb(0, 0, 0)" stroke="rgb(60, 60, 60)" stroke-width="1px" opacity="0.25"></line><line x1="359" y1="0" x2="359" y2="378" fill="rgb(0, 0, 0)" stroke="rgb(60, 60, 60)" stroke-width="1px" opacity="0.25"></line><line x1="478.66666666666663" y1="0" x2="478.66666666666663" y2="378" fill="rgb(0, 0, 0)" stroke="rgb(60, 60, 60)" stroke-width="1px" opacity="0.25"></line><line x1="598.3333333333334" y1="0" x2="598.3333333333334" y2="378" fill="rgb(0, 0, 0)" stroke="rgb(60, 60, 60)" stroke-width="1px" opacity="0.25"></line><line x1="718" y1="0" x2="718" y2="378" fill="rgb(0, 0, 0)" stroke="rgb(60, 60, 60)" stroke-width="1px" opacity="0.25"></line><line x1="837.6666666666667" y1="0" x2="837.6666666666667" y2="378" fill="rgb(0, 0, 0)" stroke="rgb(60, 60, 60)" stroke-width="1px" opacity="0.25"></line><line x1="957.3333333333333" y1="0" x2="957.3333333333333" y2="378" fill="rgb(0, 0, 0)" stroke="rgb(60, 60, 60)" stroke-width="1px" opacity="0.25"></line><line x1="1077" y1="0" x2="1077" y2="378" fill="rgb(0, 0, 0)" stroke="rgb(60, 60, 60)" stroke-width="1px" opacity="0.25"></line><line x1="1196.6666666666667" y1="0" x2="1196.6666666666667" y2="378" fill="rgb(0, 0, 0)" stroke="rgb(60, 60, 60)" stroke-width="1px" opacity="0.25"></line><line x1="1316.3333333333333" y1="0" x2="1316.3333333333333" y2="378" fill="rgb(0, 0, 0)" stroke="rgb(60, 60, 60)" stroke-width="1px" opacity="0.25"></line><line x1="1436" y1="0" x2="1436" y2="378" fill="rgb(0, 0, 0)" stroke="rgb(60, 60, 60)" stroke-width="1px" opacity="0.25"></line></g><g><line x1="0" y1="378" x2="1436" y2="378" fill="rgb(0, 0, 0)" stroke="rgb(60, 60, 60)" stroke-width="1px" opacity="0.25"></line><line x1="0" y1="340.2" x2="1436" y2="340.2" fill="rgb(0, 0, 0)" stroke="rgb(60, 60, 60)" stroke-width="1px" opacity="0.25"></line><line x1="0" y1="302.4" x2="1436" y2="302.4" fill="rgb(0, 0, 0)" stroke="rgb(60, 60, 60)" stroke-width="1px" opacity="0.25"></line><line x1="0" y1="264.6" x2="1436" y2="264.6" fill="rgb(0, 0, 0)" stroke="rgb(60, 60, 60)" stroke-width="1px" opacity="0.25"></line><line x1="0" y1="226.79999999999998" x2="1436" y2="226.79999999999998" fill="rgb(0, 0, 0)" stroke="rgb(60, 60, 60)" stroke-width="1px" opacity="0.25"></line><line x1="0" y1="189" x2="1436" y2="189" fill="rgb(0, 0, 0)" stroke="rgb(60, 60, 60)" stroke-width="1px" opacity="0.25"></line><line x1="0" y1="151.20000000000002" x2="1436" y2="151.20000000000002" fill="rgb(0, 0, 0)" stroke="rgb(60, 60, 60)" stroke-width="1px" opacity="0.25"></line><line x1="0" y1="113.40000000000003" x2="1436" y2="113.40000000000003" fill="rgb(0, 0, 0)" stroke="rgb(60, 60, 60)" stroke-width="1px" opacity="0.25"></line><line x1="0" y1="75.59999999999997" x2="1436" y2="75.59999999999997" fill="rgb(0, 0, 0)" stroke="rgb(60, 60, 60)" stroke-width="1px" opacity="0.25"></line><line x1="0" y1="37.80000000000001" x2="1436" y2="37.80000000000001" fill="rgb(0, 0, 0)" stroke="rgb(60, 60, 60)" stroke-width="1px" opacity="0.25"></line><line x1="0" y1="0" x2="1436" y2="0" fill="rgb(0, 0, 0)" stroke="rgb(60, 60, 60)" stroke-width="1px" opacity="0.25"></line></g></g></g><g><g><line x1="0" y1="75.59999999999997" x2="1436" y2="75.59999999999997" fill="rgb(0, 0, 0)" stroke="rgb(153, 153, 153)" stroke-width="1.5px"></line></g></g><g><g><line x1="119.66666666666666" y1="0" x2="119.66666666666666" y2="378" fill="rgb(0, 0, 0)" stroke="rgb(153, 153, 153)" stroke-width="1.5px"></line></g></g><g><g><g><g><g><path stroke="rgb(255, 112, 67)" stroke-width="2px" d="M119.66666666666666,75.33539241170882L125.64999999999999,75.06554861412053L131.63333333333333,74.75598029251097L137.61666666666667,74.36654371032716L143.6,73.91157298736573L149.58333333333334,73.50092264328003L155.56666666666666,73.02274407806397L161.55,72.50990825500492L167.53333333333333,87.79952779541014L173.51666666666668,82.37271648559573L179.5,81.08106921386718L185.48333333333335,73.28244835052493L191.46666666666667,73.49855509643555L197.45000000000002,90.73111690063479L203.43333333333334,75.29169201965328L209.41666666666669,81.35593478393554L215.4,82.03638900146484L221.38333333333335,154.46323081054686L227.36666666666665,175.8280658203125L233.35,86.4471776550293L239.33333333333331,304.22881494140626L245.31666666666666,223.25719130859375L251.29999999999998,273.8511439453125L257.28333333333336,114.04099193115235L263.26666666666665,143.44014726562503L269.25,73.99978649368285L275.23333333333335,74.17239636154176L281.21666666666664,74.16470078887943L287.2,73.8232849319458L293.18333333333334,74.11419730453491L299.1666666666667,73.99610489273073L305.15,73.98345360717775L311.1333333333333,74.26480163269042L317.1166666666667,75.83249284057615L323.1,75.22584757003784L329.0833333333333,74.72081135673523L335.06666666666666,79.27283963012695L341.05,88.17601201171874L347.03333333333336,90.07021213989259L353.01666666666665,82.2534938690186L359,78.24033974761966L364.9833333333333,77.61260284881592L370.9666666666667,77.28328471069335L376.95,77.81984560546874L382.93333333333334,76.11736644744872L388.91666666666663,76.00505324935915L394.90000000000003,76.25507500648501L400.8833333333333,75.87656347274782L406.8666666666667,75.67747000007631L412.84999999999997,75.74055678176882L418.83333333333337,75.54247195701595L424.81666666666666,75.50914930114749L430.8,75.44525697097777L436.7833333333333,75.38313687629699L442.7666666666667,75.44280333938599L448.75,75.42651237773896L454.7333333333333,75.41968460998538L460.7166666666667,75.40354914522175L466.7,75.37409981632231L472.68333333333334,75.341804679966L478.66666666666663,75.38782894563678L484.65000000000003,75.39473888683318L490.6333333333333,75.40923409109115L496.6166666666667,75.3661404378891L502.59999999999997,75.38641357612613L508.58333333333337,75.24577395401002L514.5666666666667,75.37325845327376L520.55,75.3932771224022L526.5333333333333,75.41020883502961L532.5166666666667,75.38965700283052L538.5,75.37881912059788L544.4833333333333,75.40960047397613L550.4666666666667,75.41350289239887L556.45,75.4199987039566L562.4333333333333,75.44856236572264L568.4166666666666,75.37629652748109L574.4,75.41509225187303L580.3833333333333,75.3899241070747L586.3666666666667,75.4113616244316L592.35,75.38143807239533L598.3333333333334,75.40683902091979L604.3166666666667,75.40253099842073L610.3,75.40522702274319L616.2833333333333,75.43550277242662L622.2666666666667,75.41824110431673L628.25,75.43552279758455L634.2333333333333,75.38404556064603L640.2166666666667,75.42229503622053L646.2,75.41650441303256L652.1833333333333,75.42719229583741L658.1666666666666,75.41469274005891L664.15,75.4377449412346L670.1333333333333,75.41837574691772L676.1166666666667,75.44248969602586L682.1,75.41133631811147L688.0833333333334,75.42416999301912L694.0666666666667,75.43114741773604L700.05,75.4235134346008L706.0333333333333,75.44247684459685L712.0166666666667,75.4212339371681L718,75.41097966842653L723.9833333333333,75.41438225097659L729.9666666666666,75.42208451070786L735.9499999999999,75.41516478223798L741.9333333333334,75.42015562477116L747.9166666666667,75.42714335947039L753.9,75.41750541858676L759.8833333333333,75.45610572195056L765.8666666666667,75.44176296844478L771.85,75.44105788822174L777.8333333333333,75.41849665489195L783.8166666666666,75.4074161456108L789.8000000000001,75.41578195724486L795.7833333333334,75.45413939924242L801.7666666666667,75.44367346944807L807.75,75.39679140243527L813.7333333333333,75.44411557302476L819.7166666666666,75.43971499500276L825.6999999999999,75.41238698101046L831.6833333333334,75.44191574363708L837.6666666666667,75.40896529254911L843.65,75.41779085369114L849.6333333333333,75.44294483127595L855.6166666666667,75.42307136707308L861.6,75.42780467634202L867.5833333333333,75.43317309494017L873.5666666666666,75.41576377058033L879.5500000000001,75.43097710475922L885.5333333333334,75.43511699523924L891.5166666666667,75.44688656101226L897.5,75.42718553667066L903.4833333333333,75.43065111465455L909.4666666666666,75.4115651204109L915.4499999999999,75.43024367208477L921.4333333333334,75.42703090496065L927.4166666666667,75.42740729141235L933.4,75.43750397243497L939.3833333333333,75.43928884305956L945.3666666666667,75.41910333967212L951.35,75.4079537967682L957.3333333333333,75.43575075273515L963.3166666666666,75.45894851932525L969.3000000000001,75.42551048898696L975.2833333333334,75.436977568531L981.2666666666667,75.44529615612032L987.25,75.44988417034148L993.2333333333333,75.43633786296846L999.2166666666666,75.42812718772888L1005.1999999999999,75.42245788707731L1011.1833333333334,75.44905857868196L1017.1666666666667,75.4367439356804L1023.15,75.41377936935424L1029.1333333333334,75.44384064617157L1035.1166666666666,75.45210586338044L1041.1,75.44006027126312L1047.0833333333333,75.4410438832283L1053.0666666666666,75.42115576515198L1059.05,75.425042952919L1065.0333333333333,75.45685604352951L1071.0166666666667,75.43295348510742L1077,75.44271406431199L1082.9833333333333,75.4225923494339L1088.9666666666667,75.41807408981322L1094.95,75.45755164289471L1100.9333333333334,75.45903345050812L1106.9166666666667,75.4127356098175L1112.9,75.44234135484697L1118.8833333333334,75.44849189014434L1124.8666666666666,75.42767823486332L1130.85,75.43850519428253L1136.8333333333333,75.40958724403384L1142.8166666666666,75.46281876411439L1148.8,75.44741146888737L1154.7833333333333,75.4216131895065L1160.7666666666667,75.43382572402953L1166.75,75.45130292844772L1172.7333333333333,75.42165790815358L1178.7166666666667,75.43594682264325L1184.7,75.4349235929489L1190.6833333333334,75.42466552104952L1196.6666666666667,75.42182275972363L1202.65,75.43452828083036L1208.6333333333334,75.44385933752062L1214.6166666666666,75.43084287672042L1220.6,75.44776226062777L1226.5833333333333,75.43434425125122L1232.5666666666666,75.44726797628402L1238.55,75.43186284399036L1244.5333333333333,75.43930019845965L1250.5166666666667,75.42996254482273L1256.5,75.46245052471164L1262.4833333333333,75.44022418556216L1268.4666666666667,75.43344445295338L1274.45,75.43654478359224L1280.4333333333334,75.46975478668213L1286.4166666666667,75.42245291233064L1292.4,75.4617520414352L1298.3833333333334,75.44986492023469L1304.3666666666666,75.42929169301988L1310.35,75.42745419101715" style="fill: none;" fill="none"></path></g></g></g></g></g></g><g transform="translate(60, 378)" clip-path="url(#clip_1)"><clipPath id="clip_1"><rect width="1436" height="22"></rect></clipPath><g><g><line x1="0" y1="0" x2="0" y2="5" style="visibility: inherit;" fill="rgb(0, 0, 0)" stroke="rgb(204, 204, 204)" stroke-width="1px"></line><line x1="119.66666666666666" y1="0" x2="119.66666666666666" y2="5" style="visibility: inherit;" fill="rgb(0, 0, 0)" stroke="rgb(204, 204, 204)" stroke-width="1px"></line><line x1="239.33333333333331" y1="0" x2="239.33333333333331" y2="5" style="visibility: inherit;" fill="rgb(0, 0, 0)" stroke="rgb(204, 204, 204)" stroke-width="1px"></line><line x1="359" y1="0" x2="359" y2="5" style="visibility: inherit;" fill="rgb(0, 0, 0)" stroke="rgb(204, 204, 204)" stroke-width="1px"></line><line x1="478.66666666666663" y1="0" x2="478.66666666666663" y2="5" style="visibility: inherit;" fill="rgb(0, 0, 0)" stroke="rgb(204, 204, 204)" stroke-width="1px"></line><line x1="598.3333333333334" y1="0" x2="598.3333333333334" y2="5" style="visibility: inherit;" fill="rgb(0, 0, 0)" stroke="rgb(204, 204, 204)" stroke-width="1px"></line><line x1="718" y1="0" x2="718" y2="5" style="visibility: inherit;" fill="rgb(0, 0, 0)" stroke="rgb(204, 204, 204)" stroke-width="1px"></line><line x1="837.6666666666667" y1="0" x2="837.6666666666667" y2="5" style="visibility: inherit;" fill="rgb(0, 0, 0)" stroke="rgb(204, 204, 204)" stroke-width="1px"></line><line x1="957.3333333333333" y1="0" x2="957.3333333333333" y2="5" style="visibility: inherit;" fill="rgb(0, 0, 0)" stroke="rgb(204, 204, 204)" stroke-width="1px"></line><line x1="1077" y1="0" x2="1077" y2="5" style="visibility: inherit;" fill="rgb(0, 0, 0)" stroke="rgb(204, 204, 204)" stroke-width="1px"></line><line x1="1196.6666666666667" y1="0" x2="1196.6666666666667" y2="5" style="visibility: inherit;" fill="rgb(0, 0, 0)" stroke="rgb(204, 204, 204)" stroke-width="1px"></line><line x1="1316.3333333333333" y1="0" x2="1316.3333333333333" y2="5" style="visibility: inherit;" fill="rgb(0, 0, 0)" stroke="rgb(204, 204, 204)" stroke-width="1px"></line><line x1="1436" y1="0" x2="1436" y2="5" style="visibility: inherit;" fill="rgb(0, 0, 0)" stroke="rgb(204, 204, 204)" stroke-width="1px"></line></g><g transform="translate(0, 8)"><text x="0" y="0" dx="0em" dy="0.95em" style="text-anchor: middle; visibility: hidden; font-family: &quot;Helvetica Neue&quot;, sans-serif; font-size: 12px; font-weight: 200;" fill="rgb(50, 49, 63)" stroke="none" stroke-width="1px">-20</text><text x="119.66666666666666" y="0" dx="0em" dy="0.95em" style="text-anchor: middle; visibility: inherit; font-family: &quot;Helvetica Neue&quot;, sans-serif; font-size: 12px; font-weight: 200;" fill="rgb(50, 49, 63)" stroke="none" stroke-width="1px">0</text><text x="239.33333333333331" y="0" dx="0em" dy="0.95em" style="text-anchor: middle; visibility: inherit; font-family: &quot;Helvetica Neue&quot;, sans-serif; font-size: 12px; font-weight: 200;" fill="rgb(50, 49, 63)" stroke="none" stroke-width="1px">20</text><text x="359" y="0" dx="0em" dy="0.95em" style="text-anchor: middle; visibility: inherit; font-family: &quot;Helvetica Neue&quot;, sans-serif; font-size: 12px; font-weight: 200;" fill="rgb(50, 49, 63)" stroke="none" stroke-width="1px">40</text><text x="478.66666666666663" y="0" dx="0em" dy="0.95em" style="text-anchor: middle; visibility: inherit; font-family: &quot;Helvetica Neue&quot;, sans-serif; font-size: 12px; font-weight: 200;" fill="rgb(50, 49, 63)" stroke="none" stroke-width="1px">60</text><text x="598.3333333333334" y="0" dx="0em" dy="0.95em" style="text-anchor: middle; visibility: inherit; font-family: &quot;Helvetica Neue&quot;, sans-serif; font-size: 12px; font-weight: 200;" fill="rgb(50, 49, 63)" stroke="none" stroke-width="1px">80</text><text x="718" y="0" dx="0em" dy="0.95em" style="text-anchor: middle; visibility: inherit; font-family: &quot;Helvetica Neue&quot;, sans-serif; font-size: 12px; font-weight: 200;" fill="rgb(50, 49, 63)" stroke="none" stroke-width="1px">100</text><text x="837.6666666666667" y="0" dx="0em" dy="0.95em" style="text-anchor: middle; visibility: inherit; font-family: &quot;Helvetica Neue&quot;, sans-serif; font-size: 12px; font-weight: 200;" fill="rgb(50, 49, 63)" stroke="none" stroke-width="1px">120</text><text x="957.3333333333333" y="0" dx="0em" dy="0.95em" style="text-anchor: middle; visibility: inherit; font-family: &quot;Helvetica Neue&quot;, sans-serif; font-size: 12px; font-weight: 200;" fill="rgb(50, 49, 63)" stroke="none" stroke-width="1px">140</text><text x="1077" y="0" dx="0em" dy="0.95em" style="text-anchor: middle; visibility: inherit; font-family: &quot;Helvetica Neue&quot;, sans-serif; font-size: 12px; font-weight: 200;" fill="rgb(50, 49, 63)" stroke="none" stroke-width="1px">160</text><text x="1196.6666666666667" y="0" dx="0em" dy="0.95em" style="text-anchor: middle; visibility: inherit; font-family: &quot;Helvetica Neue&quot;, sans-serif; font-size: 12px; font-weight: 200;" fill="rgb(50, 49, 63)" stroke="none" stroke-width="1px">180</text><text x="1316.3333333333333" y="0" dx="0em" dy="0.95em" style="text-anchor: middle; visibility: inherit; font-family: &quot;Helvetica Neue&quot;, sans-serif; font-size: 12px; font-weight: 200;" fill="rgb(50, 49, 63)" stroke="none" stroke-width="1px">200</text><text x="1436" y="0" dx="0em" dy="0.95em" style="text-anchor: middle; visibility: hidden; font-family: &quot;Helvetica Neue&quot;, sans-serif; font-size: 12px; font-weight: 200;" fill="rgb(50, 49, 63)" stroke="none" stroke-width="1px">220</text></g><line x1="0" y1="0" x2="1436" y2="0" fill="rgb(0, 0, 0)" stroke="rgb(204, 204, 204)" stroke-width="1px"></line></g></g></g></g></svg>