<?xml version="1.0" encoding="utf-8" standalone="no"?>
<!DOCTYPE svg PUBLIC "-//W3C//DTD SVG 1.1//EN"
  "http://www.w3.org/Graphics/SVG/1.1/DTD/svg11.dtd">
<!-- Created with matplotlib (https://matplotlib.org/) -->
<svg height="288pt" version="1.1" viewBox="0 0 720 288" width="720pt" xmlns="http://www.w3.org/2000/svg" xmlns:xlink="http://www.w3.org/1999/xlink">
 <defs>
  <style type="text/css">
*{stroke-linecap:butt;stroke-linejoin:round;}
  </style>
 </defs>
 <g id="figure_1">
  <g id="patch_1">
   <path d="M 0 288 
L 720 288 
L 720 0 
L 0 0 
z
" style="fill:#ffffff;"/>
  </g>
  <g id="axes_1">
   <g id="line2d_1">
    <path clip-path="url(#p785da6a5f2)" d="M 133.242845 227.206126 
L 125.57837 225.336034 
L 117.198148 223.517034 
L 109.224119 221.994948 
L 103.497754 221.029945 
L 93.730073 219.655427 
L 86.912105 218.934987 
L 81.195946 218.522916 
L 75.685601 218.337454 
L 70.879998 218.388352 
L 65.93827 218.689225 
L 62.144418 219.128023 
L 58.994527 219.721061 
L 56.882503 220.475266 
L 56.284901 220.839724 
L 54.755468 222.215984 
L 52.372395 224.828876 
L 51.885706 225.521037 
L 51.837363 225.893319 
L 51.956009 226.024633 
L 52.47977 226.195322 
L 54.536488 226.392855 
L 57.629726 226.675119 
L 66.610017 227.693824 
L 68.171744 227.593081 
L 75.760971 226.70338 
L 78.812951 226.734526 
L 81.896698 227.043122 
L 84.896257 227.566483 
L 89.936777 228.758235 
L 93.367817 229.535722 
L 94.989156 229.696554 
L 96.221828 229.582107 
L 99.793638 228.895947 
L 102.383677 228.750537 
L 106.707169 228.75846 
L 113.577827 228.738119 
L 119.770467 228.483303 
L 129.385801 227.818401 
L 133.167005 227.518827 
L 133.167005 227.518827 
" style="fill:none;stroke:#000000;stroke-linecap:square;stroke-opacity:0.7;stroke-width:1.2;"/>
   </g>
   <g id="line2d_2">
    <path clip-path="url(#p785da6a5f2)" d="M 134.495548 195.070969 
L 131.806262 194.449342 
L 127.60588 193.721333 
L 120.161101 192.68795 
L 103.774039 190.489153 
L 94.216106 188.868167 
L 89.693981 188.183515 
L 84.868817 187.726699 
L 81.108389 187.597825 
L 76.212152 187.694587 
L 71.472476 188.042933 
L 67.287071 188.561165 
L 62.752148 189.360029 
L 58.170301 190.403775 
L 53.009782 191.836856 
L 49.828307 192.942826 
L 48.034826 193.785184 
L 47.062271 194.498782 
L 46.755058 194.959859 
L 46.743033 195.406836 
L 47.073468 195.857877 
L 47.81973 196.299407 
L 49.069181 196.720823 
L 51.249656 197.160008 
L 54.910836 197.581074 
L 60.690344 197.96656 
L 68.761179 198.300357 
L 74.579153 198.367937 
L 81.008406 198.194885 
L 89.206038 197.66265 
L 99.746455 196.986477 
L 111.58654 196.484065 
L 126.2146 195.816613 
L 134.552029 195.271671 
L 134.552029 195.271671 
" style="fill:none;stroke:#000000;stroke-linecap:square;stroke-opacity:0.7;stroke-width:1.2;"/>
   </g>
   <g id="line2d_3">
    <path clip-path="url(#p785da6a5f2)" d="M 134.346764 162.632357 
L 129.406945 161.676398 
L 118.418243 159.809376 
L 89.737714 155.208247 
L 84.794941 154.694299 
L 80.423595 154.477601 
L 76.553534 154.517563 
L 73.107313 154.741412 
L 69.519443 155.147404 
L 64.844401 155.916436 
L 61.551369 156.624625 
L 57.67482 157.669724 
L 53.876512 158.981239 
L 51.151182 160.175731 
L 49.501647 161.091906 
L 48.750479 161.623697 
L 48.026561 162.378151 
L 47.873405 162.704477 
L 47.881651 163.192971 
L 48.140059 163.578114 
L 48.711388 163.978399 
L 49.688741 164.38055 
L 51.561156 164.849311 
L 53.835801 165.194589 
L 56.406965 165.418988 
L 60.556141 165.54345 
L 67.608996 165.460323 
L 86.714388 165.057084 
L 110.957464 163.639613 
L 133.720407 162.888543 
L 134.310631 162.880566 
L 134.310631 162.880566 
" style="fill:none;stroke:#000000;stroke-linecap:square;stroke-opacity:0.7;stroke-width:1.2;"/>
   </g>
   <g id="line2d_4">
    <path clip-path="url(#p785da6a5f2)" d="M 133.832074 130.035718 
L 129.12808 128.81808 
L 122.890922 127.443878 
L 115.159953 125.988878 
L 106.776667 124.650536 
L 98.61347 123.573387 
L 91.084499 122.811743 
L 84.799652 122.400012 
L 80.523089 122.262509 
L 74.799873 122.274686 
L 69.724392 122.489156 
L 65.193528 122.905286 
L 62.572065 123.309684 
L 60.021939 123.889363 
L 56.955743 124.88168 
L 54.250362 125.956424 
L 51.636599 127.200361 
L 51.161531 127.657355 
L 51.153569 127.900122 
L 51.397941 128.157792 
L 52.384914 128.553859 
L 54.00948 128.923764 
L 58.14342 129.606159 
L 62.909496 130.210725 
L 66.563536 130.387452 
L 76.088717 130.607296 
L 80.060962 130.965031 
L 84.406148 131.622494 
L 89.766487 132.513226 
L 91.532732 132.607936 
L 93.545699 132.448085 
L 100.371538 131.514825 
L 105.075403 131.213609 
L 114.311594 130.937411 
L 125.927302 130.476532 
L 133.798817 130.167275 
L 133.798817 130.167275 
" style="fill:none;stroke:#000000;stroke-linecap:square;stroke-opacity:0.7;stroke-width:1.2;"/>
   </g>
   <g id="line2d_5">
    <path clip-path="url(#p785da6a5f2)" d="M 134.441749 97.719965 
L 132.000628 97.059897 
L 127.057584 95.990443 
L 120.431587 94.822127 
L 111.24955 93.446329 
L 91.222042 90.75187 
L 84.257719 90.008627 
L 79.546173 89.75167 
L 75.311749 89.770411 
L 71.585363 89.999586 
L 66.91279 90.558737 
L 63.6302 91.125221 
L 59.651173 92.009798 
L 55.998037 93.034981 
L 53.395411 93.906456 
L 49.578297 95.426894 
L 47.184539 96.605223 
L 46.862081 96.793179 
L 45.354584 98.162702 
L 45.348699 98.612945 
L 45.580274 98.94851 
L 46.114056 99.311019 
L 46.927611 99.643083 
L 48.3761 100.022535 
L 50.056755 100.311261 
L 53.893231 100.665309 
L 57.501084 100.766859 
L 82.36117 100.755814 
L 93.690973 100.123687 
L 107.746416 99.446544 
L 126.180299 98.564149 
L 134.342943 97.954348 
L 134.342943 97.954348 
" style="fill:none;stroke:#000000;stroke-linecap:square;stroke-opacity:0.7;stroke-width:1.2;"/>
   </g>
   <g id="line2d_6">
    <path clip-path="url(#p785da6a5f2)" d="M 134.520507 65.121902 
L 131.947823 64.436738 
L 128.285225 63.683354 
L 121.787594 62.615166 
L 113.441684 61.494788 
L 86.472409 58.235737 
L 81.961332 58.071779 
L 77.648982 58.183884 
L 73.960764 58.478457 
L 68.509251 59.231793 
L 60.995668 60.637258 
L 50.739021 62.609918 
L 47.854772 63.472912 
L 46.413313 64.078773 
L 44.514227 65.80318 
L 44.533689 66.114206 
L 44.681783 66.411584 
L 45.327844 66.929858 
L 46.330756 67.328268 
L 47.498188 67.603234 
L 49.923403 67.907458 
L 55.87179 68.172598 
L 62.909159 68.533629 
L 68.210555 68.812645 
L 73.853474 68.834256 
L 79.131749 68.559291 
L 95.971298 67.484897 
L 108.631628 67.03861 
L 122.235311 66.536627 
L 130.133096 65.96421 
L 134.554679 65.42657 
L 134.554679 65.42657 
" style="fill:none;stroke:#000000;stroke-linecap:square;stroke-opacity:0.7;stroke-width:1.2;"/>
   </g>
   <g id="line2d_7">
    <path clip-path="url(#p785da6a5f2)" d="M 242.831037 227.572427 
L 239.35656 226.658745 
L 234.38064 225.582242 
L 227.510718 224.338053 
L 220.15011 223.223263 
L 211.262342 222.111343 
L 200.00115 220.947127 
L 194.465741 220.54761 
L 190.678338 220.447344 
L 185.8948 220.585345 
L 182.138873 220.914776 
L 177.698571 221.566067 
L 174.022069 222.309205 
L 166.787845 223.844995 
L 160.517271 225.04416 
L 158.211966 225.655258 
L 156.071492 226.466721 
L 154.820651 227.246652 
L 154.335854 227.925929 
L 154.349004 228.344443 
L 154.42372 228.496697 
L 154.957909 228.968113 
L 155.841379 229.338471 
L 157.400805 229.686293 
L 160.386237 229.987431 
L 172.545405 230.801249 
L 178.619061 231.275324 
L 183.412123 231.416397 
L 187.947031 231.322996 
L 195.262452 230.910482 
L 213.900059 229.800731 
L 234.219075 228.658729 
L 241.094548 228.05735 
L 242.779388 227.860906 
L 242.779388 227.860906 
" style="fill:none;stroke:#000000;stroke-linecap:square;stroke-opacity:0.7;stroke-width:1.2;"/>
   </g>
   <g id="line2d_8">
    <path clip-path="url(#p785da6a5f2)" d="M 242.383761 195.206152 
L 238.225505 193.826708 
L 232.390977 192.117967 
L 225.738967 190.432631 
L 220.332125 189.255363 
L 214.002616 188.110808 
L 209.858291 187.518143 
L 204.754838 186.992647 
L 199.918371 186.736533 
L 194.650072 186.739421 
L 189.292834 186.993758 
L 181.20023 187.636017 
L 174.766762 188.318324 
L 171.680773 188.840434 
L 168.76895 189.581594 
L 165.936852 190.575226 
L 162.522384 192.101906 
L 159.246342 193.853769 
L 157.124697 195.213782 
L 156.589408 195.806714 
L 156.55119 196.036894 
L 156.762154 196.354958 
L 157.314335 196.638896 
L 158.111853 196.872657 
L 161.291339 197.382999 
L 165.292248 197.741413 
L 168.964682 197.919217 
L 173.382436 197.939004 
L 194.777841 197.367913 
L 213.807589 196.550042 
L 233.864354 195.872551 
L 242.345913 195.357299 
L 242.345913 195.357299 
" style="fill:none;stroke:#000000;stroke-linecap:square;stroke-opacity:0.7;stroke-width:1.2;"/>
   </g>
   <g id="line2d_9">
    <path clip-path="url(#p785da6a5f2)" d="M 242.231048 162.603643 
L 237.792493 161.561661 
L 231.493264 160.284339 
L 221.948116 158.612728 
L 212.509654 157.191126 
L 203.615516 156.067756 
L 195.847129 155.303391 
L 189.919044 154.903822 
L 184.317008 154.754726 
L 180.694728 154.846924 
L 177.267106 155.131415 
L 174.256791 155.57222 
L 171.303915 156.184905 
L 167.250249 157.289767 
L 164.020202 158.359797 
L 160.119908 159.892607 
L 158.03928 160.960708 
L 157.458284 161.472797 
L 157.390046 161.783551 
L 157.530116 161.979431 
L 158.011321 162.229379 
L 159.246128 162.539464 
L 162.152762 162.957979 
L 166.834131 163.40634 
L 191.580071 165.211248 
L 195.09683 165.0845 
L 201.284843 164.487356 
L 206.925226 164.062657 
L 214.72808 163.748125 
L 238.625292 162.950387 
L 242.281999 162.805306 
L 242.281999 162.805306 
" style="fill:none;stroke:#000000;stroke-linecap:square;stroke-opacity:0.7;stroke-width:1.2;"/>
   </g>
   <g id="line2d_10">
    <path clip-path="url(#p785da6a5f2)" d="M 242.657681 130.206824 
L 237.896684 129.13603 
L 229.308397 127.455326 
L 218.300309 125.556815 
L 204.526284 123.424965 
L 197.024489 122.434802 
L 192.255903 121.997657 
L 188.092386 121.840407 
L 184.487616 121.922119 
L 180.550657 122.247733 
L 176.411883 122.819502 
L 171.855356 123.670287 
L 167.03167 124.816757 
L 163.102131 125.996801 
L 159.965299 127.194746 
L 158.077124 128.142838 
L 157.000419 128.910617 
L 156.458695 129.590089 
L 156.348137 130.095252 
L 156.428647 130.431866 
L 156.898903 131.02159 
L 157.880824 131.624875 
L 158.997078 132.061222 
L 161.145516 132.599542 
L 164.172385 132.997013 
L 167.016597 133.14033 
L 172.372602 133.119174 
L 183.258531 133.00595 
L 195.52641 132.960097 
L 202.280545 132.631188 
L 231.77244 130.842582 
L 240.814217 130.52501 
L 242.63564 130.506235 
L 242.63564 130.506235 
" style="fill:none;stroke:#000000;stroke-linecap:square;stroke-opacity:0.7;stroke-width:1.2;"/>
   </g>
   <g id="line2d_11">
    <path clip-path="url(#p785da6a5f2)" d="M 242.448379 97.638146 
L 235.910563 96.332147 
L 225.574742 94.500004 
L 214.182159 92.710887 
L 205.732433 91.579898 
L 198.1892 90.772752 
L 190.653211 90.195266 
L 184.863953 89.965102 
L 180.102838 90.003446 
L 176.388576 90.236874 
L 172.029286 90.779453 
L 168.380766 91.466549 
L 165.506989 92.17075 
L 162.255267 93.204909 
L 159.989483 94.192842 
L 158.802009 94.896902 
L 157.97056 95.565454 
L 157.391005 96.281181 
L 157.167913 96.904742 
L 157.249805 97.492833 
L 157.481516 97.853554 
L 158.240465 98.420803 
L 159.398972 98.884011 
L 161.291559 99.328535 
L 164.132045 99.708247 
L 167.707009 99.927162 
L 172.040546 99.937097 
L 180.037131 99.870095 
L 185.421255 100.076346 
L 193.51411 100.434774 
L 197.741993 100.384065 
L 203.159184 100.040469 
L 214.775489 99.233555 
L 227.350798 98.67541 
L 241.306231 97.968577 
L 242.383911 97.904252 
L 242.383911 97.904252 
" style="fill:none;stroke:#000000;stroke-linecap:square;stroke-opacity:0.7;stroke-width:1.2;"/>
   </g>
   <g id="line2d_12">
    <path clip-path="url(#p785da6a5f2)" d="M 242.50837 65.316057 
L 234.135968 63.442074 
L 223.91289 61.380306 
L 215.0797 59.816805 
L 208.171194 58.806565 
L 202.455831 58.162372 
L 196.128896 57.658343 
L 189.942068 57.358067 
L 184.69725 57.283068 
L 180.066138 57.438456 
L 176.782014 57.729029 
L 173.070386 58.263164 
L 169.411434 58.993655 
L 165.18863 60.061322 
L 161.082977 61.335893 
L 157.703956 62.643447 
L 155.779802 63.620964 
L 154.789823 64.343446 
L 154.404909 64.815311 
L 154.3063 65.054704 
L 154.297658 65.401533 
L 154.544777 65.836015 
L 155.204741 66.312863 
L 156.601771 66.872069 
L 158.274395 67.30866 
L 160.48978 67.714975 
L 163.3929 68.05951 
L 167.31563 68.254102 
L 171.39161 68.204645 
L 182.039473 67.919375 
L 201.37685 67.806958 
L 225.574667 66.487446 
L 242.495299 65.537919 
L 242.495299 65.537919 
" style="fill:none;stroke:#000000;stroke-linecap:square;stroke-opacity:0.7;stroke-width:1.2;"/>
   </g>
   <g id="line2d_13">
    <path clip-path="url(#p785da6a5f2)" d="M 350.627936 227.586189 
L 344.752841 226.293412 
L 335.520391 224.515388 
L 325.336987 222.787259 
L 315.100838 221.260802 
L 305.981318 220.091075 
L 299.820465 219.475344 
L 294.652141 219.184136 
L 291.133439 219.184589 
L 287.50795 219.417285 
L 284.127767 219.873424 
L 280.450329 220.620064 
L 276.798826 221.580073 
L 272.851999 222.823908 
L 269.602335 224.015947 
L 266.452131 225.406659 
L 264.688984 226.445204 
L 264.061178 226.97517 
L 263.646489 227.582894 
L 263.613641 228.059872 
L 263.829652 228.448363 
L 264.210204 228.767527 
L 264.926544 229.131467 
L 266.367533 229.576492 
L 268.875789 230.015642 
L 271.761461 230.266693 
L 275.64722 230.345696 
L 282.617952 230.160951 
L 290.21153 230.039249 
L 302.772135 229.94035 
L 310.542016 229.541833 
L 322.410984 228.96302 
L 350.670739 227.783596 
L 350.670739 227.783596 
" style="fill:none;stroke:#000000;stroke-linecap:square;stroke-opacity:0.7;stroke-width:1.2;"/>
   </g>
   <g id="line2d_14">
    <path clip-path="url(#p785da6a5f2)" d="M 350.960283 195.147609 
L 347.518064 194.442116 
L 341.015462 193.367793 
L 330.669902 191.957378 
L 303.939393 188.686879 
L 299.044357 188.394265 
L 294.424429 188.392424 
L 289.951971 188.66643 
L 286.259045 189.121769 
L 281.909114 189.91506 
L 269.597264 192.509515 
L 267.425251 193.138408 
L 265.582698 193.809944 
L 264.078339 194.548034 
L 263.109313 195.297305 
L 263.069083 195.343859 
L 262.795132 195.945678 
L 262.954035 196.389108 
L 263.316205 196.692216 
L 264.096515 197.027573 
L 265.26937 197.302076 
L 267.249339 197.548484 
L 274.409774 197.980748 
L 288.172571 198.740346 
L 293.851474 198.727419 
L 299.834896 198.445653 
L 320.288484 197.237835 
L 342.703354 196.187108 
L 349.461022 195.583997 
L 350.993321 195.392609 
L 350.993321 195.392609 
" style="fill:none;stroke:#000000;stroke-linecap:square;stroke-opacity:0.7;stroke-width:1.2;"/>
   </g>
   <g id="line2d_15">
    <path clip-path="url(#p785da6a5f2)" d="M 350.439977 162.597997 
L 342.213473 161.019302 
L 330.023977 158.905506 
L 317.950872 157.014405 
L 310.090257 155.995822 
L 304.109506 155.428008 
L 298.377113 155.098773 
L 293.966296 155.014355 
L 289.08195 155.151053 
L 285.267665 155.494583 
L 281.999938 155.990449 
L 278.323261 156.753372 
L 274.663266 157.680775 
L 270.595425 158.935916 
L 268.52138 159.758903 
L 267.140458 160.467596 
L 266.020073 161.308115 
L 265.626386 161.894112 
L 265.578555 162.188009 
L 265.763681 162.648147 
L 266.19259 163.003172 
L 266.910671 163.335571 
L 268.65228 163.795735 
L 271.176426 164.192676 
L 275.387768 164.635536 
L 281.041675 165.019658 
L 290.780535 165.356315 
L 299.642871 165.505989 
L 304.911404 165.346901 
L 326.764993 164.126173 
L 339.211103 163.605596 
L 346.949349 163.062993 
L 350.484597 162.745466 
L 350.484597 162.745466 
" style="fill:none;stroke:#000000;stroke-linecap:square;stroke-opacity:0.7;stroke-width:1.2;"/>
   </g>
   <g id="line2d_16">
    <path clip-path="url(#p785da6a5f2)" d="M 350.770524 130.106924 
L 348.085446 129.498627 
L 342.356759 128.472949 
L 334.298436 127.28662 
L 304.453008 123.289548 
L 299.918379 123.002716 
L 295.253332 122.984145 
L 291.066177 123.191065 
L 286.543706 123.61915 
L 281.69832 124.296152 
L 276.517455 125.281375 
L 272.445567 126.260983 
L 269.137157 127.229132 
L 266.692412 128.134873 
L 264.901008 129.084068 
L 264.130185 129.796214 
L 263.897906 130.396499 
L 263.991432 130.823485 
L 264.446267 131.34228 
L 265.272984 131.811567 
L 266.394359 132.198378 
L 268.531712 132.627845 
L 271.218805 132.895938 
L 275.491433 133.034491 
L 292.525588 133.060491 
L 299.059468 132.936756 
L 307.529329 132.51479 
L 323.186641 131.736691 
L 347.467624 130.569225 
L 350.845714 130.392824 
L 350.845714 130.392824 
" style="fill:none;stroke:#000000;stroke-linecap:square;stroke-opacity:0.7;stroke-width:1.2;"/>
   </g>
   <g id="line2d_17">
    <path clip-path="url(#p785da6a5f2)" d="M 350.712688 97.76049 
L 344.879391 96.536837 
L 334.676644 94.680847 
L 320.611914 92.36764 
L 310.737279 90.947522 
L 304.615274 90.285659 
L 300.609276 90.015563 
L 295.886915 89.936633 
L 291.524009 90.149315 
L 287.678233 90.574176 
L 283.179474 91.311888 
L 278.99687 92.172558 
L 272.754404 93.708409 
L 268.748786 94.906131 
L 266.081451 95.921545 
L 264.931106 96.513629 
L 263.999727 97.273078 
L 263.799174 97.635528 
L 263.772609 98.016798 
L 263.902498 98.335395 
L 264.595193 98.963541 
L 265.624825 99.462291 
L 267.133183 99.926808 
L 269.408915 100.338708 
L 273.303849 100.585925 
L 277.817549 100.513546 
L 286.278836 100.31049 
L 306.251489 100.167888 
L 337.424142 98.642046 
L 350.702218 98.017041 
L 350.702218 98.017041 
" style="fill:none;stroke:#000000;stroke-linecap:square;stroke-opacity:0.7;stroke-width:1.2;"/>
   </g>
   <g id="line2d_18">
    <path clip-path="url(#p785da6a5f2)" d="M 350.361245 65.159943 
L 344.781246 63.934099 
L 336.294339 62.300353 
L 326.966383 60.753568 
L 319.020313 59.648056 
L 311.059452 58.795652 
L 305.443908 58.397179 
L 299.30444 58.178479 
L 292.655112 58.183638 
L 287.292635 58.408279 
L 283.632333 58.770622 
L 280.46546 59.295596 
L 277.089351 60.079855 
L 274.089813 60.950622 
L 270.976136 62.09315 
L 268.978387 63.164888 
L 268.159821 63.883002 
L 267.837617 64.394205 
L 267.760682 64.861901 
L 267.89986 65.255976 
L 268.291915 65.648491 
L 269.100023 66.060178 
L 270.442363 66.452362 
L 274.361274 67.088545 
L 279.232887 67.574713 
L 284.369633 67.854158 
L 294.447437 68.133731 
L 300.892954 68.116046 
L 304.65669 67.919714 
L 311.168486 67.263964 
L 316.768613 66.794893 
L 321.995821 66.570971 
L 343.994383 65.885369 
L 350.37265 65.418716 
L 350.37265 65.418716 
" style="fill:none;stroke:#000000;stroke-linecap:square;stroke-opacity:0.7;stroke-width:1.2;"/>
   </g>
   <g id="line2d_19">
    <path clip-path="url(#p785da6a5f2)" d="M 458.042392 227.273293 
L 453.107179 225.907298 
L 446.196717 224.268423 
L 439.334723 222.888124 
L 432.081741 221.655323 
L 424.721374 220.624064 
L 416.375706 219.725944 
L 409.068789 219.204338 
L 402.821143 218.99398 
L 397.100942 219.02731 
L 391.451439 219.304527 
L 387.103255 219.753065 
L 384.859699 220.159043 
L 383.278437 220.623964 
L 381.399818 221.574061 
L 379.339349 223.126283 
L 376.948756 225.20025 
L 376.902513 225.489267 
L 377.241994 225.634583 
L 378.332686 225.755093 
L 381.803455 226.062692 
L 384.776124 226.510023 
L 390.22053 227.589351 
L 392.759326 227.688482 
L 395.136776 227.335878 
L 398.98464 226.701024 
L 401.816344 226.573271 
L 403.48689 226.668957 
L 406.204647 227.083092 
L 407.463472 227.371597 
L 410.898943 228.39727 
L 416.35905 230.209928 
L 418.137046 230.468504 
L 419.737725 230.30473 
L 422.9531 229.656063 
L 425.935241 229.352248 
L 430.150961 229.226123 
L 439.604768 229.031566 
L 445.939324 228.613711 
L 453.808522 227.858807 
L 457.981853 227.398236 
L 457.981853 227.398236 
" style="fill:none;stroke:#000000;stroke-linecap:square;stroke-opacity:0.7;stroke-width:1.2;"/>
   </g>
   <g id="line2d_20">
    <path clip-path="url(#p785da6a5f2)" d="M 459.163725 195.010608 
L 456.429621 194.443502 
L 450.941752 193.548191 
L 439.030163 191.903833 
L 428.13657 190.322227 
L 414.503205 188.240377 
L 410.304355 187.871537 
L 407.073593 187.756899 
L 402.693631 187.84077 
L 398.244676 188.183904 
L 393.297667 188.831965 
L 388.316669 189.71886 
L 382.124067 191.067193 
L 377.837584 192.205387 
L 375.289618 193.083187 
L 373.870105 193.752526 
L 373.074998 194.297053 
L 372.580895 194.938359 
L 372.531702 195.296312 
L 372.671231 195.662813 
L 373.169088 196.123207 
L 373.731442 196.420351 
L 375.022569 196.847493 
L 376.137384 197.086469 
L 378.928921 197.441923 
L 383.151473 197.682809 
L 394.015664 197.942441 
L 402.035965 197.955598 
L 408.598236 197.710817 
L 435.926939 196.286574 
L 455.585761 195.503061 
L 459.101746 195.330146 
L 459.101746 195.330146 
" style="fill:none;stroke:#000000;stroke-linecap:square;stroke-opacity:0.7;stroke-width:1.2;"/>
   </g>
   <g id="line2d_21">
    <path clip-path="url(#p785da6a5f2)" d="M 458.932861 162.555163 
L 454.344156 161.651798 
L 444.233013 159.936634 
L 421.4418 156.339522 
L 414.251662 155.423089 
L 409.313313 154.990791 
L 405.411878 154.812538 
L 401.300249 154.814633 
L 396.95537 155.043112 
L 392.913328 155.450824 
L 387.851142 156.196402 
L 383.358026 157.096985 
L 379.455408 158.153466 
L 376.46808 159.255976 
L 374.502088 160.256107 
L 373.546425 160.94357 
L 372.887837 161.771361 
L 372.807913 162.263831 
L 372.933918 162.631374 
L 373.228659 162.98383 
L 373.783824 163.374352 
L 375.22512 163.984861 
L 377.000254 164.465505 
L 379.507181 164.904424 
L 382.196978 165.165249 
L 386.376952 165.292359 
L 412.817482 165.255262 
L 458.91649 162.753689 
L 458.91649 162.753689 
" style="fill:none;stroke:#000000;stroke-linecap:square;stroke-opacity:0.7;stroke-width:1.2;"/>
   </g>
   <g id="line2d_22">
    <path clip-path="url(#p785da6a5f2)" d="M 458.586626 130.074045 
L 453.791877 128.854961 
L 447.879724 127.559894 
L 439.294081 125.952708 
L 431.298146 124.687217 
L 423.569514 123.671242 
L 416.350279 122.942945 
L 410.190573 122.540986 
L 404.095188 122.3835 
L 398.480345 122.467172 
L 393.622294 122.743816 
L 390.50384 123.061545 
L 387.230323 123.580152 
L 384.716129 124.154128 
L 380.999319 125.260582 
L 376.048385 126.981902 
L 375.408114 127.394434 
L 375.340294 127.668615 
L 375.548851 127.924042 
L 376.250833 128.306601 
L 378.966752 129.241135 
L 382.864123 130.359864 
L 385.98565 131.033119 
L 388.012438 131.216267 
L 390.3447 131.156215 
L 399.059812 130.515254 
L 402.497178 130.585356 
L 406.477076 130.910473 
L 416.951133 132.059808 
L 419.830619 132.017515 
L 431.26463 131.51711 
L 444.886635 131.131225 
L 453.143973 130.602583 
L 458.535036 130.155192 
L 458.535036 130.155192 
" style="fill:none;stroke:#000000;stroke-linecap:square;stroke-opacity:0.7;stroke-width:1.2;"/>
   </g>
   <g id="line2d_23">
    <path clip-path="url(#p785da6a5f2)" d="M 459.027216 97.695869 
L 452.427609 96.590737 
L 439.036209 94.614124 
L 414.928059 91.260197 
L 410.282683 90.851232 
L 406.089006 90.707746 
L 403.328458 90.753981 
L 399.429316 91.012168 
L 395.628987 91.463146 
L 390.616322 92.310911 
L 384.690691 93.586506 
L 377.67558 95.341593 
L 374.479145 96.345765 
L 373.182523 96.916778 
L 372.33861 97.520913 
L 372.108464 97.905715 
L 372.147758 98.33634 
L 372.354551 98.62203 
L 373.060716 99.103259 
L 374.143907 99.530147 
L 375.748408 99.928392 
L 377.787219 100.230475 
L 380.424428 100.418314 
L 385.06494 100.456539 
L 398.298053 100.359597 
L 407.852907 100.281397 
L 414.530847 99.945387 
L 427.403147 99.22357 
L 440.639517 98.792216 
L 453.438972 98.29629 
L 458.971267 98.002957 
L 458.971267 98.002957 
" style="fill:none;stroke:#000000;stroke-linecap:square;stroke-opacity:0.7;stroke-width:1.2;"/>
   </g>
   <g id="line2d_24">
    <path clip-path="url(#p785da6a5f2)" d="M 458.890944 65.315347 
L 453.850889 64.016849 
L 447.129553 62.52535 
L 439.976124 61.161938 
L 433.064012 60.04591 
L 425.653958 59.080119 
L 418.35886 58.361711 
L 409.631831 57.724917 
L 401.147362 57.303216 
L 396.354945 57.293472 
L 392.83801 57.537449 
L 390.07036 57.950586 
L 387.836664 58.442329 
L 384.265559 59.497476 
L 380.110745 61.026072 
L 374.893151 63.183859 
L 373.049516 64.115838 
L 372.537244 64.455951 
L 371.871659 65.205757 
L 371.888905 65.73667 
L 372.208239 66.123545 
L 372.859543 66.529002 
L 374.194049 67.03225 
L 376.347026 67.545755 
L 379.364903 67.986046 
L 382.787636 68.228359 
L 386.685081 68.263817 
L 412.805808 67.774957 
L 434.866565 66.53075 
L 452.69186 65.840192 
L 458.886736 65.520264 
L 458.886736 65.520264 
" style="fill:none;stroke:#000000;stroke-linecap:square;stroke-opacity:0.7;stroke-width:1.2;"/>
   </g>
   <g id="line2d_25">
    <path clip-path="url(#p785da6a5f2)" d="M 567.054964 227.570242 
L 563.707375 226.853246 
L 557.570549 225.78167 
L 543.232936 223.600057 
L 530.036763 221.470049 
L 522.611031 220.352587 
L 517.500929 219.837517 
L 512.91646 219.656667 
L 508.872158 219.734592 
L 504.531836 220.041152 
L 500.024139 220.572635 
L 495.38078 221.346352 
L 491.403339 222.226143 
L 487.962759 223.191184 
L 485.104525 224.182636 
L 483.109183 225.029488 
L 482.096847 225.542012 
L 480.373284 226.73237 
L 479.910991 227.301238 
L 479.738754 227.816084 
L 479.862394 228.355662 
L 480.437486 228.928302 
L 481.373577 229.383375 
L 482.553944 229.723517 
L 484.45932 230.032299 
L 487.030083 230.203527 
L 491.08473 230.20728 
L 500.641376 230.126083 
L 517.299854 230.221883 
L 524.370819 229.904554 
L 538.818061 229.212773 
L 557.180812 228.382091 
L 567.182293 227.812628 
L 567.182293 227.812628 
" style="fill:none;stroke:#000000;stroke-linecap:square;stroke-opacity:0.7;stroke-width:1.2;"/>
   </g>
   <g id="line2d_26">
    <path clip-path="url(#p785da6a5f2)" d="M 567.135829 195.117321 
L 564.04932 194.34686 
L 560.259905 193.594826 
L 553.324946 192.474891 
L 541.823183 190.908643 
L 530.245226 189.265335 
L 519.625413 187.664058 
L 515.097124 187.272939 
L 511.039297 187.181518 
L 506.679006 187.334256 
L 502.39889 187.694288 
L 498.074662 188.248449 
L 493.467899 189.064242 
L 489.321416 190.02284 
L 485.233187 191.218423 
L 482.937558 192.060396 
L 481.847443 192.538458 
L 479.606886 193.929727 
L 479.291745 194.262144 
L 478.969339 194.839746 
L 478.929227 195.225755 
L 479.014059 195.539649 
L 479.524888 196.135788 
L 479.908107 196.384485 
L 481.225194 196.914391 
L 482.725619 197.261918 
L 485.546515 197.601281 
L 489.760742 197.781952 
L 510.455644 198.159108 
L 515.842186 197.972666 
L 538.508363 196.810157 
L 557.51016 196.170785 
L 564.964576 195.64356 
L 567.296604 195.400076 
L 567.296604 195.400076 
" style="fill:none;stroke:#000000;stroke-linecap:square;stroke-opacity:0.7;stroke-width:1.2;"/>
   </g>
   <g id="line2d_27">
    <path clip-path="url(#p785da6a5f2)" d="M 566.67144 162.621699 
L 559.641303 160.927393 
L 550.898653 159.070591 
L 543.261099 157.666559 
L 535.742172 156.511774 
L 529.771883 155.798703 
L 524.608466 155.36724 
L 519.851064 155.143498 
L 513.428003 155.08785 
L 505.9068 155.267845 
L 500.379167 155.545547 
L 496.850235 155.892267 
L 493.83617 156.435703 
L 490.652165 157.337072 
L 487.332746 158.564357 
L 484.348252 159.887081 
L 482.788893 160.804619 
L 482.349923 161.258576 
L 482.279285 161.589046 
L 482.520573 161.914149 
L 483.169078 162.22465 
L 484.575507 162.567473 
L 487.590975 162.971197 
L 491.961884 163.320647 
L 498.879975 163.642912 
L 508.676779 164.134223 
L 519.951002 164.764964 
L 523.783586 164.724563 
L 528.276825 164.364528 
L 534.015508 163.948817 
L 541.390042 163.694888 
L 557.224798 163.201987 
L 566.669285 162.825566 
L 566.669285 162.825566 
" style="fill:none;stroke:#000000;stroke-linecap:square;stroke-opacity:0.7;stroke-width:1.2;"/>
   </g>
   <g id="line2d_28">
    <path clip-path="url(#p785da6a5f2)" d="M 565.16207 129.758753 
L 550.024991 126.894115 
L 538.057211 124.802163 
L 523.186757 122.47707 
L 513.467116 121.192699 
L 505.560073 120.371428 
L 500.082733 120.002854 
L 495.889625 119.921686 
L 493.833595 119.994024 
L 490.850188 120.372377 
L 489.906288 120.648227 
L 488.995177 121.204389 
L 488.734956 121.760105 
L 488.631101 124.442586 
L 488.374323 125.139455 
L 487.302784 127.141906 
L 486.785125 128.137122 
L 486.820322 128.305042 
L 487.180406 128.374621 
L 491.027668 128.068304 
L 494.257777 128.253957 
L 498.089666 129.026695 
L 502.993862 130.385247 
L 503.753465 130.472839 
L 506.024151 130.376369 
L 511.773677 129.627183 
L 513.634531 129.585446 
L 516.032166 129.725317 
L 519.168661 130.208071 
L 522.967773 131.142183 
L 527.418975 132.293231 
L 528.442539 132.366961 
L 530.44868 132.050188 
L 532.704636 131.719089 
L 535.177021 131.614846 
L 546.480548 131.559763 
L 553.91145 131.099878 
L 565.602644 130.061044 
L 565.602644 130.061044 
" style="fill:none;stroke:#000000;stroke-linecap:square;stroke-opacity:0.7;stroke-width:1.2;"/>
   </g>
   <g id="line2d_29">
    <path clip-path="url(#p785da6a5f2)" d="M 565.927381 97.360196 
L 558.491512 95.545178 
L 550.331685 93.771552 
L 542.29966 92.237325 
L 533.728888 90.837523 
L 526.607878 89.880726 
L 520.335968 89.22192 
L 513.647906 88.759835 
L 508.75832 88.627681 
L 503.681462 88.733554 
L 500.50869 88.955837 
L 496.169392 89.50439 
L 493.298027 90.085075 
L 491.179048 90.732445 
L 489.630811 91.523981 
L 488.869956 92.14234 
L 487.594641 93.537442 
L 485.0811 96.745603 
L 484.992411 97.154468 
L 485.185965 97.241076 
L 486.329645 97.178657 
L 488.801515 97.028667 
L 491.733754 97.123423 
L 498.302211 97.66466 
L 503.654399 97.348571 
L 506.766819 97.264603 
L 509.581582 97.374214 
L 513.488402 97.813555 
L 518.292299 98.691888 
L 523.244676 99.65692 
L 525.259959 99.840946 
L 526.888188 99.723546 
L 530.404587 99.118217 
L 533.68874 98.871241 
L 538.551644 98.816565 
L 547.977014 98.731595 
L 555.94756 98.364671 
L 566.075826 97.659937 
L 566.075826 97.659937 
" style="fill:none;stroke:#000000;stroke-linecap:square;stroke-opacity:0.7;stroke-width:1.2;"/>
   </g>
   <g id="line2d_30">
    <path clip-path="url(#p785da6a5f2)" d="M 566.334466 65.018002 
L 560.628696 63.566527 
L 553.664027 62.025845 
L 545.377048 60.462351 
L 537.062606 59.151745 
L 527.750892 57.976173 
L 519.787795 57.226228 
L 512.121535 56.75642 
L 506.047063 56.591694 
L 499.690019 56.656702 
L 494.998564 56.933056 
L 493.034595 57.188717 
L 492.020426 57.414096 
L 490.558434 58.053855 
L 489.799419 58.676938 
L 488.451005 60.202966 
L 485.582845 63.807453 
L 485.444604 64.343588 
L 485.592744 64.49437 
L 486.180246 64.63954 
L 493.390963 65.26627 
L 497.343367 66.051371 
L 499.537462 66.390439 
L 501.062734 66.411526 
L 503.830354 66.139018 
L 506.347396 65.876239 
L 509.906767 65.753001 
L 512.354364 65.864162 
L 516.04338 66.294147 
L 525.433832 67.726373 
L 527.429278 67.623659 
L 535.596629 66.781737 
L 540.979485 66.57103 
L 551.481815 66.215231 
L 559.718584 65.635105 
L 566.222869 65.086112 
L 566.222869 65.086112 
" style="fill:none;stroke:#000000;stroke-linecap:square;stroke-opacity:0.7;stroke-width:1.2;"/>
   </g>
   <g id="line2d_31">
    <path clip-path="url(#p785da6a5f2)" d="M 675.238573 227.61984 
L 669.962672 226.426232 
L 661.298173 224.708763 
L 651.787461 223.038142 
L 643.0651 221.698944 
L 636.394671 220.858157 
L 630.655703 220.322816 
L 624.077496 219.962151 
L 619.105392 219.875434 
L 613.81538 219.99632 
L 609.36414 220.349455 
L 605.558626 220.901796 
L 601.562944 221.747666 
L 597.287369 222.943848 
L 593.830174 224.180856 
L 591.358219 225.298583 
L 589.573526 226.34838 
L 588.725592 227.078213 
L 588.355792 227.816484 
L 588.49683 228.309847 
L 588.767367 228.599111 
L 589.781529 229.158659 
L 591.292699 229.638052 
L 592.694728 229.948877 
L 596.048934 230.431211 
L 598.960931 230.641611 
L 603.676738 230.681576 
L 618.971012 230.178474 
L 629.559472 229.71171 
L 646.414435 228.883707 
L 675.248887 227.807022 
L 675.248887 227.807022 
" style="fill:none;stroke:#000000;stroke-linecap:square;stroke-opacity:0.7;stroke-width:1.2;"/>
   </g>
   <g id="line2d_32">
    <path clip-path="url(#p785da6a5f2)" d="M 675.265285 195.084324 
L 672.533959 194.397442 
L 667.478141 193.371696 
L 659.889318 192.089682 
L 638.029871 188.777814 
L 627.662803 187.30052 
L 622.854958 186.830847 
L 619.440663 186.672653 
L 615.469912 186.736606 
L 612.343787 186.997304 
L 609.178195 187.448714 
L 606.363659 187.996981 
L 601.80153 189.150833 
L 598.136688 190.303217 
L 594.271836 191.754937 
L 591.829656 192.852747 
L 590.103805 193.847374 
L 589.251584 194.799041 
L 589.285845 195.172449 
L 589.624079 195.543079 
L 590.412591 195.940822 
L 591.99014 196.39427 
L 594.440866 196.809959 
L 596.491579 197.007473 
L 601.025143 197.181967 
L 609.942207 197.45904 
L 621.6892 197.915949 
L 625.967292 197.821396 
L 630.551439 197.478581 
L 639.402454 196.77339 
L 645.852643 196.510445 
L 665.758603 195.859722 
L 675.284499 195.350517 
L 675.284499 195.350517 
" style="fill:none;stroke:#000000;stroke-linecap:square;stroke-opacity:0.7;stroke-width:1.2;"/>
   </g>
   <g id="line2d_33">
    <path clip-path="url(#p785da6a5f2)" d="M 675.095927 162.505184 
L 670.670889 161.569586 
L 662.62102 160.122347 
L 651.266515 158.317133 
L 638.874564 156.555048 
L 630.346198 155.563931 
L 623.876628 155.025468 
L 617.937236 154.763002 
L 612.861314 154.793818 
L 609.045848 155.030526 
L 605.149478 155.489245 
L 601.396708 156.121682 
L 596.872996 157.110888 
L 593.756599 158.025464 
L 591.769372 158.863047 
L 590.610989 159.630674 
L 590.110376 160.267548 
L 590.052236 160.896026 
L 590.235094 161.247777 
L 590.86703 161.778929 
L 592.00566 162.294485 
L 593.969875 162.826894 
L 596.571602 163.257806 
L 599.261512 163.510341 
L 603.497425 163.56926 
L 613.950346 163.305807 
L 618.767948 163.569163 
L 631.099604 164.520812 
L 634.252091 164.45632 
L 645.341571 163.875251 
L 664.411448 163.284127 
L 674.973683 162.61143 
L 674.973683 162.61143 
" style="fill:none;stroke:#000000;stroke-linecap:square;stroke-opacity:0.7;stroke-width:1.2;"/>
   </g>
   <g id="line2d_34">
    <path clip-path="url(#p785da6a5f2)" d="M 675.107929 130.130388 
L 668.544465 128.724182 
L 659.033892 126.917049 
L 649.378227 125.29394 
L 641.614994 124.183618 
L 635.53343 123.502437 
L 629.563627 123.053884 
L 623.399278 122.845916 
L 617.882585 122.892677 
L 613.290516 123.135684 
L 609.701773 123.495376 
L 605.341732 124.178353 
L 602.195507 124.850817 
L 597.879965 126.028063 
L 595.099803 126.976099 
L 593.061582 127.818256 
L 590.940957 128.97686 
L 590.44306 129.362508 
L 589.915023 130.022571 
L 589.85955 130.463031 
L 589.992685 130.756467 
L 590.528173 131.211197 
L 591.267521 131.564144 
L 592.669892 132.007403 
L 595.713079 132.601713 
L 599.189618 132.94779 
L 602.965456 133.029816 
L 607.896244 132.864185 
L 618.573934 132.435925 
L 628.10124 132.106407 
L 638.570165 131.753168 
L 662.046065 131.0838 
L 673.828283 130.446004 
L 675.088929 130.363704 
L 675.088929 130.363704 
" style="fill:none;stroke:#000000;stroke-linecap:square;stroke-opacity:0.7;stroke-width:1.2;"/>
   </g>
   <g id="line2d_35">
    <path clip-path="url(#p785da6a5f2)" d="M 675.331215 97.679709 
L 672.242454 96.90252 
L 666.915494 95.804646 
L 659.582635 94.550881 
L 648.352229 92.907553 
L 629.140834 90.3417 
L 624.104119 89.912272 
L 619.974636 89.78704 
L 615.825044 89.923005 
L 611.779186 90.316062 
L 607.885133 90.91343 
L 603.35297 91.840577 
L 598.872852 92.979034 
L 594.362449 94.367228 
L 591.960332 95.269947 
L 590.019365 96.216146 
L 589.646321 96.450189 
L 588.611568 97.41334 
L 588.427441 97.84119 
L 588.447873 98.348794 
L 588.842593 98.94729 
L 589.551835 99.452201 
L 590.521146 99.881374 
L 592.057066 100.315875 
L 593.762285 100.610742 
L 596.817292 100.849391 
L 600.542238 100.840628 
L 612.731763 100.535575 
L 623.700538 100.533583 
L 631.872039 100.181381 
L 650.611023 99.320996 
L 666.156783 98.580054 
L 675.379124 97.912036 
L 675.379124 97.912036 
" style="fill:none;stroke:#000000;stroke-linecap:square;stroke-opacity:0.7;stroke-width:1.2;"/>
   </g>
   <g id="line2d_36">
    <path clip-path="url(#p785da6a5f2)" d="M 675.490909 65.225113 
L 672.301289 64.472244 
L 666.378726 63.356504 
L 658.816561 62.186551 
L 647.861289 60.739736 
L 629.618149 58.555169 
L 625.481571 58.258766 
L 621.817856 58.156578 
L 617.198777 58.25427 
L 612.408478 58.600535 
L 607.436263 59.203035 
L 602.409739 60.066196 
L 597.69554 61.102916 
L 593.175992 62.32806 
L 590.98918 63.119318 
L 589.896454 63.665361 
L 589.212439 64.160932 
L 588.751873 64.84969 
L 588.750892 65.243126 
L 589.028077 65.723946 
L 589.672101 66.214228 
L 590.638476 66.651387 
L 592.475481 67.158946 
L 595.008018 67.553341 
L 598.260913 67.798852 
L 603.566973 67.922271 
L 622.263248 68.056456 
L 629.581454 67.734175 
L 647.607373 66.855 
L 669.631991 65.870299 
L 675.436497 65.489064 
L 675.436497 65.489064 
" style="fill:none;stroke:#000000;stroke-linecap:square;stroke-opacity:0.7;stroke-width:1.2;"/>
   </g>
  </g>
 </g>
 <defs>
  <clipPath id="p785da6a5f2">
   <rect height="262.08" width="694.08" x="12.96" y="12.96"/>
  </clipPath>
 </defs>
</svg>
