<svg viewBox="0 0 1496 400" xmlns="http://www.w3.org/2000/svg"><g><g><g><g><g><line x1="30.78125" y1="378" x2="25.78125" y2="378" style="visibility: inherit;" fill="rgb(0, 0, 0)" stroke="rgb(204, 204, 204)" stroke-width="1px"></line><line x1="30.78125" y1="330.75" x2="25.78125" y2="330.75" style="visibility: inherit;" fill="rgb(0, 0, 0)" stroke="rgb(204, 204, 204)" stroke-width="1px"></line><line x1="30.78125" y1="283.5" x2="25.78125" y2="283.5" style="visibility: inherit;" fill="rgb(0, 0, 0)" stroke="rgb(204, 204, 204)" stroke-width="1px"></line><line x1="30.78125" y1="236.25" x2="25.78125" y2="236.25" style="visibility: inherit;" fill="rgb(0, 0, 0)" stroke="rgb(204, 204, 204)" stroke-width="1px"></line><line x1="30.78125" y1="189" x2="25.78125" y2="189" style="visibility: inherit;" fill="rgb(0, 0, 0)" stroke="rgb(204, 204, 204)" stroke-width="1px"></line><line x1="30.78125" y1="141.75" x2="25.78125" y2="141.75" style="visibility: inherit;" fill="rgb(0, 0, 0)" stroke="rgb(204, 204, 204)" stroke-width="1px"></line><line x1="30.78125" y1="94.5" x2="25.78125" y2="94.5" style="visibility: inherit;" fill="rgb(0, 0, 0)" stroke="rgb(204, 204, 204)" stroke-width="1px"></line><line x1="30.78125" y1="47.25" x2="25.78125" y2="47.25" style="visibility: inherit;" fill="rgb(0, 0, 0)" stroke="rgb(204, 204, 204)" stroke-width="1px"></line><line x1="30.78125" y1="0" x2="25.78125" y2="0" style="visibility: inherit;" fill="rgb(0, 0, 0)" stroke="rgb(204, 204, 204)" stroke-width="1px"></line></g><g transform="translate(20.78125, 0)"><text x="0" y="378" dx="0em" dy="0.3em" style="text-anchor: end; visibility: hidden; font-family: Roboto, sans-serif; font-size: 12px; font-weight: 200;" fill="rgb(50, 49, 63)" stroke="none" stroke-width="1px">-1</text><text x="0" y="330.75" dx="0em" dy="0.3em" style="text-anchor: end; visibility: inherit; font-family: Roboto, sans-serif; font-size: 12px; font-weight: 200;" fill="rgb(50, 49, 63)" stroke="none" stroke-width="1px">0</text><text x="0" y="283.5" dx="0em" dy="0.3em" style="text-anchor: end; visibility: inherit; font-family: Roboto, sans-serif; font-size: 12px; font-weight: 200;" fill="rgb(50, 49, 63)" stroke="none" stroke-width="1px">1</text><text x="0" y="236.25" dx="0em" dy="0.3em" style="text-anchor: end; visibility: inherit; font-family: Roboto, sans-serif; font-size: 12px; font-weight: 200;" fill="rgb(50, 49, 63)" stroke="none" stroke-width="1px">2</text><text x="0" y="189" dx="0em" dy="0.3em" style="text-anchor: end; visibility: inherit; font-family: Roboto, sans-serif; font-size: 12px; font-weight: 200;" fill="rgb(50, 49, 63)" stroke="none" stroke-width="1px">3</text><text x="0" y="141.75" dx="0em" dy="0.3em" style="text-anchor: end; visibility: inherit; font-family: Roboto, sans-serif; font-size: 12px; font-weight: 200;" fill="rgb(50, 49, 63)" stroke="none" stroke-width="1px">4</text><text x="0" y="94.5" dx="0em" dy="0.3em" style="text-anchor: end; visibility: inherit; font-family: Roboto, sans-serif; font-size: 12px; font-weight: 200;" fill="rgb(50, 49, 63)" stroke="none" stroke-width="1px">5</text><text x="0" y="47.25" dx="0em" dy="0.3em" style="text-anchor: end; visibility: inherit; font-family: Roboto, sans-serif; font-size: 12px; font-weight: 200;" fill="rgb(50, 49, 63)" stroke="none" stroke-width="1px">6</text><text x="0" y="0" dx="0em" dy="0.3em" style="text-anchor: end; visibility: hidden; font-family: Roboto, sans-serif; font-size: 12px; font-weight: 200;" fill="rgb(50, 49, 63)" stroke="none" stroke-width="1px">7</text></g><line x1="30.78125" y1="0" x2="30.78125" y2="378" fill="rgb(0, 0, 0)" stroke="rgb(204, 204, 204)" stroke-width="1px"></line></g></g><g transform="translate(30, 0)" clip-path="url(#clip_0)"><clipPath id="clip_0"><rect width="1465" height="378"></rect></clipPath><g><g><g><line x1="0" y1="0" x2="0" y2="378" fill="rgb(0, 0, 0)" stroke="rgb(60, 60, 60)" stroke-width="1px" opacity="0.25"></line><line x1="122.1015625" y1="0" x2="122.1015625" y2="378" fill="rgb(0, 0, 0)" stroke="rgb(60, 60, 60)" stroke-width="1px" opacity="0.25"></line><line x1="244.203125" y1="0" x2="244.203125" y2="378" fill="rgb(0, 0, 0)" stroke="rgb(60, 60, 60)" stroke-width="1px" opacity="0.25"></line><line x1="366.3046875" y1="0" x2="366.3046875" y2="378" fill="rgb(0, 0, 0)" stroke="rgb(60, 60, 60)" stroke-width="1px" opacity="0.25"></line><line x1="488.40625" y1="0" x2="488.40625" y2="378" fill="rgb(0, 0, 0)" stroke="rgb(60, 60, 60)" stroke-width="1px" opacity="0.25"></line><line x1="610.5078125" y1="0" x2="610.5078125" y2="378" fill="rgb(0, 0, 0)" stroke="rgb(60, 60, 60)" stroke-width="1px" opacity="0.25"></line><line x1="732.609375" y1="0" x2="732.609375" y2="378" fill="rgb(0, 0, 0)" stroke="rgb(60, 60, 60)" stroke-width="1px" opacity="0.25"></line><line x1="854.7109375" y1="0" x2="854.7109375" y2="378" fill="rgb(0, 0, 0)" stroke="rgb(60, 60, 60)" stroke-width="1px" opacity="0.25"></line><line x1="976.8125" y1="0" x2="976.8125" y2="378" fill="rgb(0, 0, 0)" stroke="rgb(60, 60, 60)" stroke-width="1px" opacity="0.25"></line><line x1="1098.9140625" y1="0" x2="1098.9140625" y2="378" fill="rgb(0, 0, 0)" stroke="rgb(60, 60, 60)" stroke-width="1px" opacity="0.25"></line><line x1="1221.015625" y1="0" x2="1221.015625" y2="378" fill="rgb(0, 0, 0)" stroke="rgb(60, 60, 60)" stroke-width="1px" opacity="0.25"></line><line x1="1343.1171875" y1="0" x2="1343.1171875" y2="378" fill="rgb(0, 0, 0)" stroke="rgb(60, 60, 60)" stroke-width="1px" opacity="0.25"></line><line x1="1465.21875" y1="0" x2="1465.21875" y2="378" fill="rgb(0, 0, 0)" stroke="rgb(60, 60, 60)" stroke-width="1px" opacity="0.25"></line></g><g><line x1="0" y1="378" x2="1465.21875" y2="378" fill="rgb(0, 0, 0)" stroke="rgb(60, 60, 60)" stroke-width="1px" opacity="0.25"></line><line x1="0" y1="330.75" x2="1465.21875" y2="330.75" fill="rgb(0, 0, 0)" stroke="rgb(60, 60, 60)" stroke-width="1px" opacity="0.25"></line><line x1="0" y1="283.5" x2="1465.21875" y2="283.5" fill="rgb(0, 0, 0)" stroke="rgb(60, 60, 60)" stroke-width="1px" opacity="0.25"></line><line x1="0" y1="236.25" x2="1465.21875" y2="236.25" fill="rgb(0, 0, 0)" stroke="rgb(60, 60, 60)" stroke-width="1px" opacity="0.25"></line><line x1="0" y1="189" x2="1465.21875" y2="189" fill="rgb(0, 0, 0)" stroke="rgb(60, 60, 60)" stroke-width="1px" opacity="0.25"></line><line x1="0" y1="141.75" x2="1465.21875" y2="141.75" fill="rgb(0, 0, 0)" stroke="rgb(60, 60, 60)" stroke-width="1px" opacity="0.25"></line><line x1="0" y1="94.5" x2="1465.21875" y2="94.5" fill="rgb(0, 0, 0)" stroke="rgb(60, 60, 60)" stroke-width="1px" opacity="0.25"></line><line x1="0" y1="47.25" x2="1465.21875" y2="47.25" fill="rgb(0, 0, 0)" stroke="rgb(60, 60, 60)" stroke-width="1px" opacity="0.25"></line><line x1="0" y1="0" x2="1465.21875" y2="0" fill="rgb(0, 0, 0)" stroke="rgb(60, 60, 60)" stroke-width="1px" opacity="0.25"></line></g></g></g><g><g><line x1="0" y1="330.75" x2="1465.21875" y2="330.75" fill="rgb(0, 0, 0)" stroke="rgb(153, 153, 153)" stroke-width="1.5px"></line></g></g><g><g><line x1="122.1015625" y1="0" x2="122.1015625" y2="378" fill="rgb(0, 0, 0)" stroke="rgb(153, 153, 153)" stroke-width="1.5px"></line></g></g><g><g><g><g><g><path stroke="rgb(51, 187, 238)" stroke-width="2px" d="M125.1541015625,46.65704083442688L125.76460937499999,102.2972846031189L128.206640625,147.16572600603104L128.8171484375,134.6181778907776L130.0381640625,147.90595614910126L130.64867187500002,143.9936040043831L131.2591796875,159.44923853874207L132.4801953125,166.26227581501007L133.090703125,137.64119267463684L133.7012109375,175.30295419692993L134.31171874999998,148.3539537191391L136.75375,161.54325091838837L142.2483203125,173.55536037683487L142.858828125,172.7137427330017L144.07984374999998,190.48649847507477L145.9113671875,191.04424238204956L146.521875,204.63657742738724L147.742890625,194.99596667289734L148.96390625,187.70537173748016L149.5744140625,202.4391948580742L150.79542968750002,212.4765236377716L152.0164453125,189.14394772052765L152.626953125,202.4150984287262L154.4584765625,193.17763817310333L155.068984375,175.57191270589828L155.6794921875,197.32679772377014L156.29000000000002,194.754709482193L156.9005078125,206.35443091392517L158.73203125,214.5345321893692L159.3425390625,191.05492186546326L160.56355468750002,220.98214638233185L161.7845703125,190.48632949590683L162.395078125,205.8269680738449L163.0055859375,195.4420604109764L163.61609375,192.9277179837227L165.4476171875,212.60170340538025L166.058125,199.6942521929741L166.6686328125,211.9576787352562L167.279140625,193.74009096622467L168.50015625,213.85768049955368L170.3316796875,209.6145122051239L173.38421875,192.28531551361084L173.9947265625,210.80574774742126L174.605234375,208.60210168361664L175.2157421875,209.58716011047363L175.82625,196.12819468975067L176.43675781250002,226.14195907115936L179.489296875,206.77568471431732L184.37335937499998,219.43903988599777L186.2048828125,193.87542074918747L186.815390625,211.03242766857147L191.0889453125,218.7125083208084L192.92046874999997,218.29588454961777L194.141484375,201.3077666759491L194.75199218749998,209.8714281320572L195.3625,211.86138314008713L197.80453125000003,202.61622869968414L198.4150390625,210.61123019456863L199.025546875,234.79974192380905L200.8570703125,208.74298524856567L201.46757812500002,205.9719296693802L203.29910156250003,218.90740889310837L205.74113281249998,217.1824695467949L206.9621484375,217.2721073627472L208.1831640625,225.66718393564224L208.79367187499997,222.66941463947296L209.4041796875,234.21526551246643L210.0146875,221.74523377418518L212.45671875,217.39453840255737L213.677734375,217.61141753196716L215.5092578125,214.94591760635376L216.11976562499999,236.6909455060959L216.7302734375,239.55705749988556L217.9512890625,231.8581525683403L218.561796875,217.39440321922302L219.17230468750003,205.91702270507812L221.003828125,214.9960480928421L222.22484375000002,222.6562567949295L222.8353515625,240.73451560735703L224.0563671875,227.29956775903702L224.66687499999998,227.36059176921844L226.4983984375,228.00998997688293L229.5509375,222.59211230278015L230.16144531249998,221.41921663284302L230.771953125,223.30455100536346L231.99296875,215.28244525194168L232.6034765625,223.69414937496185L233.8244921875,229.38764333724976L235.0455078125,233.1416620016098L235.65601562499998,209.56058531999588L236.2665234375,230.65904259681702L236.87703125,231.3434532880783L238.098046875,218.32961279153824L238.70855468749997,235.44586193561554L242.982109375,223.3636486530304L245.424140625,219.6446312069893L247.866171875,214.26969677209854L248.4766796875,227.78712898492813L249.08718750000003,242.77835243940353L251.52921874999998,234.31970590353012L253.3607421875,231.29893290996552L255.192265625,225.48841524124146L255.8027734375,232.7386241555214L257.634296875,228.25500977039337L258.2448046875,234.0394257903099L259.4658203125,227.69761508703232L260.076328125,234.76719653606415L260.6868359375,217.2137532234192L261.9078515625,242.81127521395683L262.518359375,227.17264187335968L263.739375,217.634624004364L264.3498828125,237.6510288119316L264.960390625,240.53381341695786L266.79191406250004,241.8754685819149L268.62343749999997,228.08817100524902L271.6759765625,229.70144891738892L272.8969921875,224.8665268421173L274.11800781249997,234.10044980049133L274.728515625,236.63391503691673L277.7810546875,208.034264087677L279.61257812499997,246.6553654074669L280.2230859375,228.8764250278473L280.83359375000003,230.80678671598434L281.4441015625,233.0344616174698L282.66511718749996,224.4264600276947L285.1071484375,224.7047574520111L286.3281640625,237.4292267560959L287.5491796875,224.98165798187256L288.7701953125,240.6515355706215L291.822734375,236.40039145946503L293.04375,238.98212277889252L295.48578125,230.0360051393509L298.5383203125,245.29600685834885L299.7593359375,238.66188472509384L300.36984375,243.4819028377533L302.2013671875,236.4642881155014L303.4223828125,236.11269879341125L304.032890625,226.66351890563965L304.6433984375,243.38735336065292L305.8644140625,247.2515295445919L306.474921875,235.8317427635193L307.08542968750004,230.9827390909195L309.5274609375,250.33012720942497L310.13796875,242.28974917531013L311.358984375,224.3978236913681L313.1905078125,234.61434924602509L315.63253906250003,250.5708943605423L316.243046875,240.85864207148552L316.8535546875,233.009283721447L317.4640625,239.0132036805153L318.685078125,230.03307616710663L320.5166015625,234.75518774986267L321.12710937500003,237.14694705605507L321.7376171875,239.71893954277039L323.569140625,233.54390001296997L324.1796484375,244.65141329169273L325.40066406249997,250.46697217226028L329.0637109375,248.00135770440102L330.2847265625,239.64622217416763L332.11625,235.72966808080673L332.7267578125,234.58300924301147L333.94777343749996,239.49233284592628L334.55828125,238.59249061346054L337.6108203125,246.70665621757507L338.221328125,239.94519138336182L339.44234374999996,249.5748691856861L340.663359375,238.8616687953472L341.2738671875,240.13351866602898L341.884375,220.5416740179062L343.7158984375,237.14314502477646L344.32640625,236.81276258826256L346.1579296875,229.56700909137726L346.7684375,248.0974561572075L347.989453125,249.36021494865417L348.5999609375,236.44095209240913L349.8209765625,218.04977202415466L352.2630078125,228.26656794548035L352.87351562500004,251.99077561497688L353.4840234375,249.33072245121002L354.7050390625,239.6284568309784L355.315546875,218.9113404750824L357.1470703125,233.69854974746704L357.757578125,223.62282890081406L358.36808593750004,247.5878206193447L358.97859375,244.026539593935L360.19960937499997,239.95263773202896L360.8101171875,244.1592896282673L361.42062500000003,235.27701795101166L362.0311328125,233.7644966840744L367.525703125,234.00703811645508L368.1362109375,243.7505121231079L369.3572265625,244.62825188040733L371.18875,251.05186539888382L375.46230468749997,242.30588668584824L376.0728125,233.93737363815308L378.51484375,240.71714454889297L379.1253515625,230.1550565958023L379.73585937499996,228.67576789855957L380.956875,247.96641844511032L382.177890625,243.89726489782333L384.619921875,244.7000905573368L390.1144921875,241.8167708516121L390.725,235.56927305459976L391.3355078125,253.89139133691788L391.94601562500003,245.49512627720833L393.16703125,232.10870361328125L393.7775390625,245.78797280788422L395.60906250000005,248.76985242962837L397.4405859375,243.36163473129272L401.714140625,237.22753885388374L402.3246484375,240.45412284135818L402.93515625000003,238.23513346910477L403.54566406249995,235.96458292007446L404.7666796875,253.6964513361454L405.3771875,248.46493515372276L405.9876953125,245.2417701780796L407.2087109375,241.9569109082222L407.81921875,247.1313628256321L408.4297265625,248.50014477968216L409.65074218750004,248.68130734562874L410.8717578125,240.6122760772705L411.48226562499997,235.74509024620056L413.924296875,244.06128734350204L418.1978515625,253.38899937272072L420.029375,242.1759698688984L420.63988281250005,251.9266085922718L421.8608984375,252.98445197939873L423.0819140625,257.17305690050125L424.9134375,241.89060348272324L431.62902343749994,245.1654760837555L433.460546875,237.94487231969833L434.0710546875,244.78691205382347L434.68156250000004,249.45308589935303L435.902578125,250.73051771521568L437.12359375,239.75131595134735L437.73410156250003,252.7879179418087L438.9551171875,247.89418548345566L442.00765625,243.86063021421432L442.6181640625,232.6559032201767L446.28121093749996,250.5838606953621L447.5022265625,246.30203559994698L448.112734375,246.53918659687042L448.72324218750003,239.15142863988876L449.33374999999995,247.4080774784088L449.9442578125,255.9690183699131L450.554765625,229.36786150932312L451.1652734375,245.49397158622742L451.77578125,233.9370356798172L452.38628906250005,247.7398793399334L452.996796875,245.0652151107788L454.2178125,241.124885648489L456.0493359375,255.22539737820625L456.65984375,244.05443805456161L457.27035156249997,240.65324226021767L458.49136718750003,233.1128454208374L460.9333984375,247.37852302193642L462.1544140625,239.14976701140404L463.37542968749995,243.0892966389656L465.8174609375,251.16809490323067L466.42796875000005,242.44912469387054L467.03847656249997,248.39865589141846L468.2594921875,247.26724460721016L469.48050781250004,249.01821237802505L470.7015234375,247.68326005339622L471.9225390625,241.29247918725014L472.533046875,246.23029831051826L474.36457031249995,245.98240023851395L475.5855859375,248.37353432178497L476.19609375,247.86164009571075L476.8066015625,243.95655405521393L477.41710937499994,250.96840658783913L478.02761718749997,240.38651990890503L478.638125,259.04381400346756L479.859140625,250.3748165667057L480.46964843750004,257.8880922496319L483.52218750000003,252.92730322480202L484.13269531250006,252.88384741544724L485.3537109375,247.73348066210747L485.96421875,249.2701490521431L486.5747265625,252.66148772835732L488.40625,240.98612558841705L489.627265625,247.54867377877235L490.84828125,243.8708759844303L492.06929687499996,244.33101189136505L493.2903125,248.85624021291733L494.51132812500003,241.65202742815018L495.12183593749995,248.48643493652344L495.73234375,253.56993100047112L497.5638671875,252.69637629389763L500.0058984375,250.5393572151661L500.61640625,249.24463883042336L501.837421875,232.08636456727982L502.4479296875,244.06375443935394L503.6689453125,239.83417770266533L506.11097656249996,250.78515994548798L509.16351562499995,242.28769889473915L513.4370703124999,247.0388805270195L514.047578125,248.78743189573288L515.26859375,243.96806716918945L515.8791015625001,241.2355613708496L516.489609375,240.41208082437515L517.1001171875,258.63513788580894L517.710625,256.31920516490936L518.3211328125,258.4957075417042L519.5421484374999,241.07801645994186L520.15265625,240.87471762299538L522.5946875000001,255.15221813321114L523.2051953125,260.5786461532116L524.4262109375,263.73758214712143L525.6472265625,253.59800970554352L527.47875,241.85053852200508L528.699765625,245.73796623945236L529.3102734375,246.07097911834717L529.92078125,250.95813265442848L531.7523046875,255.61761492490768L532.3628125,241.19302931427956L532.9733203125,249.34520396590233L533.5838281250001,245.22154900431633L534.1943359375,254.22706282138824L535.4153515625,242.63905727863312L536.025859375,244.18332973122597L536.6363671875,244.5992494225502L537.8573828125,243.84876787662506L538.467890625,243.10347399115562L539.0783984375,242.25275400280952L539.6889062500001,250.33743274211884L540.2994140625,254.81618052721024L540.909921875,240.8202950656414L542.1309375,257.5083622634411L542.7414453125,250.02622944116592L544.57296875,247.69864279031754L547.015,245.755534440279L548.8465234375,244.23700314760208L549.45703125,249.3928898870945L550.0675390625,250.61077907681465L551.2885546875,243.81651538610458L551.8990625,254.04965722560883L552.5095703125,257.1251006126404L553.120078125,253.89279386401176L554.34109375,256.2297870218754L554.9516015625,244.41944432258606L555.562109375,248.06346881389618L558.004140625,249.0443365573883L560.446171875,238.92545279860497L561.0566796875,249.76765751838684L562.2776953125,241.89153850078583L562.888203125,235.31070113182068L563.4987109375,258.56846433877945L564.10921875,256.74671682715416L564.7197265625,252.16271191835403L565.3302343749999,242.00364491343498L567.1617578125,258.0407142341137L567.772265625,248.5276883840561L571.4353125,247.6168343424797L572.656328125,251.23939847946167L573.2668359375,250.25722959637642L573.87734375,249.70914003252983L574.4878515625,242.8060086965561L575.7088671875,254.58070242404938L577.540390625,243.59814924001694L578.1508984375,245.3713377714157L579.982421875,263.3778423964977L580.5929296875,249.33033379912376L581.2034375,244.13693368434906L582.424453125,247.87421214580536L583.64546875,249.54418820142746L585.4769921875001,241.6642446219921L586.0875,252.98328602313995L587.3085156249999,248.85192561149597L589.1400390625,237.58449044823647L589.750546875,246.2988531589508L590.3610546875,249.09072697162628L591.5820703125,237.79070699214935L592.192578125,262.3746581375599L592.8030859375,248.4506057202816L594.0241015624999,255.66458550095558L594.634609375,236.13655865192413L595.2451171875,264.75958505272865L598.29765625,253.0297440290451L600.7396875,247.4367645084858L601.3501953125,250.26888352632523L602.5712109375,248.5557670891285L603.7922265625,254.66938269138336L605.0132421874999,259.115573823452L605.62375,258.23977732658386L606.2342578125,236.94260054826736L606.844765625,252.88667500019073L607.4552734375001,245.26207584142685L608.06578125,249.7627345919609L609.286796875,254.27327299118042L610.5078125,257.88193577528L611.728828125,254.8805615901947L613.5603515625,256.62491101026535L614.7813671875,250.2736149430275L615.391875,245.05859112739563L616.0023828125,247.99547159671783L618.4444140625,258.96438816189766L619.6654296875,247.22387892007828L620.2759375,239.07557952404022L621.496953125,252.31403839588165L623.3284765625,263.44506230950356L624.5494921875,258.6446964740753L625.1600000000001,265.1694214940071L625.7705078125,251.40033423900604L627.60203125,259.8520751595497L629.4335546875,248.58468505740166L630.0440625,249.99665808677673L631.2650781250001,259.5062536597252L632.48609375,241.33831197023392L633.707109375,250.74571457505226L636.7596484375,268.8635595738888L637.9806640625,248.26230096817017L638.591171875,258.5498372018337L639.2016796875,240.34005627036095L639.8121874999999,244.74356326460838L641.6437109375,256.75354358553886L645.3067578125,243.97771587967873L646.5277734375,255.20461857318878L647.13828125,256.67789724469185L647.7487890625,252.81577697396278L648.359296875,246.72466376423836L648.9698046875001,251.79086762666702L651.4118359375,259.0506520271301L652.6328515625,236.26268470287323L653.2433593750001,248.47758042812347L655.0748828125,255.0808019042015L655.685390625,251.25087216496468L656.2958984375,257.14865067601204L656.9064062499999,250.96424406766891L657.5169140625,256.17927914857864L658.7379296875,260.39979296922684L659.3484375,251.4291958808899L659.9589453125001,241.74151879549026L660.569453125,263.7495571374893L661.79046875,248.26980364322662L663.6219921875,260.2463598847389L664.8430078125,247.26653489470482L665.453515625,251.4859109222889L666.67453125,259.86911952495575L667.2850390625,252.48828408122063L669.1165625,248.5420797765255L669.7270703125,255.2095921933651L670.9480859375001,254.0774599313736L671.55859375,246.27297681570053L675.8321484375,246.29798009991646L676.44265625,247.49930369853973L677.0531640625001,258.7380799949169L677.663671875,261.32779276371L678.2741796875,258.1634944975376L678.8846874999999,259.7799210548401L679.4951953125,241.48213014006615L680.7162109375,243.4538410305977L681.32671875,267.2510251700878L681.9372265625,246.23125022649765L683.76875,247.9994482398033L684.3792578125,256.9694539010525L684.989765625,254.66569331288338L685.6002734374999,251.71856707334518L686.8212890625,260.21929505467415L690.4843359375,247.95160460472107L691.09484375,242.52177447080612L691.7053515625,226.61870563030243L692.9263671875,255.90603983402252L695.3683984375,256.30150178074837L697.199921875,251.57741877436638L699.0314453125001,252.14938509464264L701.4734765625,249.4402378499508L703.305,258.0480085015297L703.9155078125,245.2396973669529L704.526015625,252.1877208352089L705.7470312500001,245.18557333946228L706.3575390625,246.73076954483986L706.968046875,255.83299577236176L708.7995703125,249.85783606767654L709.410078125,258.72102999687195L710.63109375,255.3843110203743L711.852109375,257.85519763827324L712.4626171875,246.71201848983765L713.6836328124999,248.00853368639946L714.9046484375,247.20733585953712L715.51515625,250.79477486014366L716.7361718750001,253.85658726096153L717.9571875,243.91036078333855L718.5676953125,257.62237814068794L719.178203125,253.65955755114555L719.7887109375,251.00277131795883L721.620234375,254.90574511885643L722.2307421875,261.7236715257168L722.8412500000001,246.77016985416412L724.6727734374999,246.0145400762558L725.28328125,255.84757867455482L730.16734375,260.20101714134216L731.9988671875,253.30627843737602L732.609375,254.01542204618454L733.8303906250001,243.7107062637806L735.05140625,258.3972152173519L735.6619140625,257.1654866337776L737.4934374999999,243.1397256553173L738.1039453125001,251.69505643844604L739.3249609375001,246.59761396050453L739.93546875,247.4698168337345L740.5459765625,254.42859864234924L741.156484375,258.6261425614357L742.9880078125,244.50960034132004L747.8720703125,254.3394733965397L748.482578125,249.53320455551147L749.0930859375,260.72511729598045L750.3141015625,258.1518180370331L751.5351171875001,254.7980715930462L752.145625,255.58146464824677L752.7561328125,255.7392404973507L753.9771484375,257.6845568418503L755.1981640624999,245.1055391728878L755.8086718750001,256.3275527358055L756.4191796875,252.68889051675797L758.250703125,253.06706589460373L758.8612109375,258.58674225211143L759.4717187499999,254.15348929166794L762.5242578125,245.65448489785194L763.7452734375,259.99533569812775L764.35578125,251.51888439059258L765.5767968749999,249.9359551370144L766.1873046875,252.05459341406822L767.4083203125001,258.6963815689087L771.0713671875,257.5124571919441L771.6818749999999,252.24917855858803L772.9028906249999,255.95499309897423L774.12390625,252.59348487854004L776.5659375,258.9644895493984L777.7869531250001,252.7900414466858L779.0079687499999,242.56328138709068L780.228984375,252.03203469514847L781.45,251.73210230469704L782.671015625,251.0107978284359L783.2815234374999,260.62258073687553L783.8920312500001,248.0034417808056L784.5025390625,254.5761343538761L785.1130468750001,251.4235238134861L787.555078125,253.0934660732746L788.77609375,252.7283415198326L789.3866015624999,254.86489722132683L793.0496484375,244.9194367825985L794.2706640625,256.798525840044L795.4916796875001,257.61119171977043L796.1021875,239.3359144628048L796.7126953124999,248.7453110218048L800.3757421875,251.8378551006317L802.207265625,251.09293860197067L803.42828125,257.2178363800049L805.2598046874999,262.7731560766697L807.0913281249999,248.3394624888897L807.7018359375,244.98507955670357L808.9228515625,253.99645695090294L809.533359375,248.85795816779137L810.1438671875,256.6886274218559L810.754375,260.8297435641289L811.975390625,253.8523289859295L812.5858984375,248.59475621581078L813.8069140625,253.2733162343502L814.417421875,253.57715767621994L815.0279296875,253.01256448030472L816.859453125,243.02151346206665L817.4699609374999,248.5976964533329L818.6909765624999,260.2577716112137L823.5750390625001,253.0705187022686L824.185546875,256.1672928929329L824.7960546874999,252.67038729786873L825.4065625000001,248.01599130034447L827.2380859375,251.4845421910286L827.84859375,254.97798371315002L828.4591015625,262.7546472251415L830.290625,246.35276877880096L830.9011328125001,254.2512043118477L831.511640625,248.68827491998672L833.3431640625,260.2157408595085L840.6692578125,244.28846856951714L842.5007812499999,241.54157701134682L843.721796875,258.5193589925766L844.3323046875,252.23014587163925L845.5533203125,250.46238720417023L846.163828125,251.73520588874817L847.9953515625,247.1360998749733L849.826875,258.7957244217396L850.4373828125,252.9193048775196L851.0478906249999,240.63244092464447L851.6583984375001,266.9112700223923L852.26890625,255.29351288080215L852.8794140624999,256.2558323442936L853.489921875,257.9077670574188L854.1004296875,265.16361424326897L855.3214453125,253.66721230745316L856.5424609375,248.45747190713882L857.1529687499999,252.9185106754303L858.373984375,244.45873761177063L859.595,260.81284564733505L860.816015625,259.13953506946564L861.4265234375,253.35431358218193L862.03703125,260.6101495027542L862.6475390625,263.1297415494919L863.2580468749999,264.6114804446697L863.8685546875,261.4630436897278L866.3105859375,253.8299786746502L869.3631250000001,252.5651639699936L869.9736328125,250.8439309000969L871.1946484375001,255.1137415766716L871.80515625,253.18250119686127L874.2471875,258.4666656553745L874.8576953124999,251.76976776123047L875.4682031250001,253.10230368375778L876.6892187500001,266.1209037601948L878.5207421875,258.88346403837204L880.352265625,251.27580785751343L881.57328125,260.27393728494644L882.7942968750001,243.16898158192635L883.4048046875,256.0059403181076L884.6258203125,256.99974623322487L885.236328125,252.70547863841057L887.0678515625001,244.9608817398548L887.678359375,255.99147006869316L888.2888671874999,255.5552278161049L889.5098828125,255.28828579187393L890.120390625,249.6459023952484L890.7308984375,259.51298466324806L891.9519140625,256.6920802295208L892.5624218749999,236.4019010066986L893.1729296875001,245.43164080381393L893.7834375,259.68507304787636L894.3939453125,260.50840151309967L895.004453125,251.53509512543678L898.0569921875,247.58874437212944L898.6674999999999,253.02607718110085L899.888515625,260.89989244937897L902.330546875,249.32555732131004L902.9410546874999,253.29216867685318L904.1620703125,242.2570517063141L906.6041015625,258.3681282699108L907.8251171875,251.40161284804344L909.0461328124999,260.806458234787L910.2671484374999,241.52485370635986L910.8776562500001,254.1192428469658L911.4881640625,245.63950771093369L912.098671875,250.36522418260574L913.3196875,264.3736478984356L915.1512109375001,260.83397367596626L915.76171875,251.54696309566498L916.9827343750001,258.4707098901272L917.5932421875,257.21806168556213L918.20375,254.0481758415699L919.424765625,244.73397651314735L921.866796875,254.98794221878052L923.0878125,257.22162714600563L923.6983203125,260.4196649193764L924.9193359375,250.14668905735016L925.52984375,257.5772719681263L927.3613671875,246.9905412197113L927.971875,250.0099454820156L931.0244140625,254.21593835949898L931.634921875,247.19764772057533L932.2454296875,252.4015583395958L932.8559375000001,250.12232226133347L934.0769531249999,257.90219074487686L935.29796875,247.11346793174744L935.9084765625,263.7769317626953L936.518984375,247.7333961725235L937.1294921875,260.8288479745388L937.74,253.4819660782814L938.3505078124999,254.96086612343788L940.18203125,249.59380048513412L942.0135546875,260.73060911893845L943.2345703125001,262.69981348514557L944.4555859374999,259.1058631539345L945.06609375,251.10651889443398L945.6766015625,250.06707733869553L946.287109375,243.8357508480549L946.8976171875,251.94217157363892L949.3396484375,241.85064554214478L951.7816796875,252.08024445176125L953.0026953125,249.73822697997093L953.613203125,259.9059400856495L955.4447265625,254.83570325374603L956.0552343749999,250.8719758093357L956.6657421875001,253.99130871891975L958.497265625,257.2900242805481L960.3287890624999,256.5141902267933L960.9392968750001,266.36788934469223L961.5498046875,256.0336754322052L962.7708203125001,254.91963520646095L963.381328125,253.08875155448914L963.9918359375,258.9619435966015L965.823359375,254.353217035532L967.0443750000001,254.79134622216225L967.6548828125,260.4385398924351L968.2653906250001,247.73211193084717L968.8758984375,260.0744686424732L969.48640625,253.09235081076622L970.0969140625,257.7215745449066L971.3179296875,247.46334493160248L971.9284375,256.9275695979595L973.7599609375,257.6590578854084L976.8125,249.16425544023514L984.1385937499999,249.8211788535118L984.7491015625001,253.349390655756L985.359609375,255.66828614473343L985.9701171875,260.6518253982067L988.4121484374999,259.89235416054726L990.2436718749999,258.2966275513172L990.8541796875,262.04626965522766L992.0751953125,248.3571489751339L992.685703125,265.12078365683556L993.2962109375,251.40046378970146L993.90671875,259.8658638596535L995.127734375,260.9973314702511L996.3487500000001,259.41605257987976L996.9592578125,243.22867065668106L997.569765625,259.9952174127102L998.79078125,246.01548635959625L999.4012890625,249.49013176560402L1000.011796875,256.8133847415447L1001.2328125,248.42521378397942L1002.4538281250001,250.8562325835228L1006.1168749999999,245.16805019974709L1007.337890625,256.6856139600277L1010.3904296875,261.9301302731037L1011.0009375,251.55868461728096L1013.44296875,249.9084903895855L1016.4955078125,252.65722382068634L1017.106015625,246.18347418308258L1019.548046875,248.60159423947334L1021.990078125,262.5680885910988L1023.8216015625,256.4563035964966L1025.653125,254.92829820513725L1026.2636328125,258.18034735322L1026.8741406249999,257.56164702773094L1028.7056640624999,249.7074953019619L1029.316171875,256.29330629110336L1031.1476953125,257.77491000294685L1032.3687109375,265.8291724920273L1032.97921875,254.78959447145462L1033.5897265625001,258.82639414072037L1037.86328125,258.708649456501L1038.4737890625,263.7877407968044L1039.0842968749998,267.14957571029663L1039.6948046875,248.0083421766758L1040.9158203125,249.95342195034027L1041.526328125,253.75045707821846L1042.1368359375,259.9740950167179L1042.74734375,257.1250837147236L1043.3578515625,265.5148092806339L1043.968359375,254.24601665139198L1044.5788671875,255.393678098917L1045.1893750000002,235.88670605421066L1045.7998828125,243.3561710715294L1047.63140625,258.3754000067711L1048.852421875,257.94078558683395L1051.9049609375,250.62088403105736L1052.51546875,250.0355007648468L1053.1259765625,249.67186322808266L1054.3469921875,256.7828558385372L1058.620546875,254.99652072787285L1059.8415625,243.80289566516876L1062.8941015625,247.06621009111404L1063.504609375,240.80585297942162L1065.946640625,254.18009787797928L1067.1676562500002,254.02107721567154L1067.7781640625,250.28405785560608L1068.9991796875001,263.11720329523087L1069.6096875,252.51713445782661L1070.830703125,257.3872267305851L1071.4412109375,264.6701218485832L1075.1042578125,253.02131760120392L1075.714765625,244.7378405034542L1076.3252734375,260.9880939424038L1079.3778125000001,257.7765941619873L1079.9883203125,253.85314571857452L1085.482890625,250.39995503425598L1086.0933984375,259.2218673527241L1087.924921875,245.2732678949833L1088.5354296875,249.83323270082474L1089.1459375,251.00599318742752L1090.366953125,255.32631173729897L1091.58796875,264.9241876602173L1092.808984375,246.9577423632145L1094.6405078125,253.05999693274498L1095.251015625,261.9636782705784L1096.4720312499999,253.99456438422203L1097.0825390625,263.51097545027733L1098.3035546875,259.8750675916672L1099.5245703125,259.8454849720001L1100.135078125,258.5713764131069L1101.3560937500001,254.02789270877838L1101.9666015625,250.45122894644737L1104.4086328125,257.63190856575966L1105.019140625,262.15875908732414L1106.24015625,249.85358342528343L1106.8506640624998,254.87326169013977L1107.461171875,261.0650526881218L1108.0716796875,239.10821503400803L1109.2926953125,259.035663574934L1109.903203125,247.0892532169819L1110.5137109375,257.4667990207672L1111.12421875,254.95794278383255L1113.56625,255.3451923429966L1114.7872656250001,260.51705887913704L1115.3977734375,248.9676650762558L1116.00828125,261.6040342748165L1117.229296875,255.98917758464813L1118.4503124999999,256.56911408901215L1119.671328125,256.35167732834816L1120.89234375,251.02820831537247L1121.5028515625,251.57964366674423L1122.113359375,260.94958359003067L1123.3343750000001,266.040486574173L1123.9448828125,240.1823480129242L1124.555390625,251.73620849847794L1125.1658984375001,255.70806947350502L1125.77640625,251.11440458893776L1126.3869140625,246.581921428442L1127.6079296875,259.33606910705566L1128.2184375,258.1558059453964L1130.0499609375,244.8720324933529L1130.6604687499998,265.117713868618L1131.881484375,250.68863341212273L1132.4919921875,260.3574467897415L1134.323515625,258.6225038766861L1134.9340234375,256.1890348792076L1135.54453125,258.45321491360664L1136.1550390625,260.3212120234966L1136.7655468750002,259.98261719942093L1137.9865625,261.5510142445564L1140.42859375,255.73823788762093L1141.649609375,252.2469424009323L1142.2601171874999,262.28334179520607L1142.870625,250.50586554408073L1144.7021484375,260.37694135308266L1145.31265625,255.19666528701782L1146.533671875,263.33346846699715L1148.975703125,247.8565538227558L1149.5862109375,248.46397760510445L1150.19671875,253.81189227104187L1150.8072265625,258.81711718440056L1152.0282421875,258.793476998806L1154.4702734375,264.7050611078739L1155.08078125,259.3688566982746L1156.301796875,254.40481200814247L1156.9123046875,249.67755782604218L1157.5228125,255.86125472187996L1158.1333203125,264.19054770469666L1159.3543359375,258.7205399572849L1161.185859375,261.2889951467514L1161.7963671875,253.7687969505787L1162.406875,245.9865345954895L1163.0173828125,257.46160009503365L1163.627890625,256.47272273898125L1165.4594140625,258.81441351771355L1166.0699218749999,260.140792965889L1168.511953125,259.38859909772873L1169.1224609375001,253.34460854530334L1170.3434765625,256.2794274687767L1170.9539843750001,261.78216648101807L1171.5644921875,259.49888053536415L1174.0065234375,252.58938431739807L1175.838046875,253.37452349066734L1177.0590625,248.71916994452477L1178.8905859375,254.09590682387352L1179.50109375,259.9932516217232L1180.1116015625,264.6193436086178L1180.722109375,255.10292127728462L1181.3326171875,249.93254739046097L1182.5536328125002,253.70107573270798L1183.164140625,257.1176148355007L1183.7746484375,245.93764892220497L1185.606171875,249.16298246383667L1186.2166796875,254.00056877732277L1187.4376953125,265.4934672117233L1188.0482031249999,254.24862456321716L1188.6587109375,253.03588923811913L1190.490234375,256.24351939558983L1191.71125,253.0699441730976L1192.3217578125,259.4022976756096L1192.9322656250001,257.8498184680939L1193.5427734375,264.0880787372589L1197.816328125,254.5711044073105L1198.4268359374998,254.68601024150848L1200.258359375,258.3918980062008L1203.3108984375,268.0877818465233L1205.7529296875,259.6250854432583L1206.9739453125,261.15556356310844L1208.1949609375,251.38865214586258L1209.4159765625,258.33232721686363L1210.0264843749999,267.7721681892872L1210.6369921875,262.61278358101845L1211.2475,247.35041615366936L1213.68953125,264.3737549185753L1214.3000390625,245.08126813173294L1214.9105468750001,254.37769648432732L1216.1315625,258.0536298751831L1216.7420703125001,260.41696125268936L1217.352578125,255.00814086198807L1219.794609375,252.4393984079361L1221.015625,251.75819832086563L1222.2366406249998,257.0025118589401L1223.45765625,256.58584865927696L1224.0681640625,251.89226639270782L1225.2891796875,256.91593819856644L1227.7312109375,254.03035417199135L1228.9522265625,255.68960005044937L1229.562734375,266.17392379045486L1231.3942578125,256.225393563509L1233.22578125,257.8435944020748L1235.6678125,261.66507518291473L1236.888828125,267.3663421869278L1237.4993359375,265.09992599487305L1239.330859375,261.8600827753544L1241.772890625,253.84225219488144L1242.3833984375,265.3468214571476L1242.99390625,257.87131825089455L1243.6044140625,250.43099650740623L1245.4359375,254.64770829677582L1246.0464453125,259.15684416890144L1246.656953125,245.21146094799042L1247.87796875,257.989299505949L1248.4884765625,240.9649524986744L1249.098984375,255.307785987854L1250.3200000000002,261.210594445467L1250.9305078125,259.02940008044243L1252.76203125,260.73369017243385L1253.3725390625,259.1425203680992L1254.5935546875,255.85271564126015L1255.8145703124999,263.5279747545719L1256.425078125,252.03424832224846L1257.0355859375,246.1801452934742L1261.309140625,250.01525142788887L1261.9196484375,260.4083433151245L1262.5301562500001,254.6934509575367L1263.1406640625,252.6122978925705L1266.8037109375,264.1362152695656L1267.41421875,260.5461232960224L1268.0247265624998,255.34961959719658L1268.635234375,261.6479463279247L1269.2457421875,253.39495307207108L1270.4667578125,255.1716789007187L1272.29828125,258.30743658542633L1274.1298046875002,254.82418450713158L1276.5718359375,262.74587720632553L1277.18234375,250.75880482792854L1277.7928515625,259.92138478159904L1278.403359375,259.6428282558918L1279.0138671875,253.92321574687958L1280.2348828125,267.1841995418072L1280.845390625,257.60451140999794L1283.287421875,259.4524732232094L1285.1189453125,264.10793378949165L1285.729453125,251.8052195906639L1287.5609765625,262.0826902985573L1288.171484375,256.94187650084496L1288.7819921875,251.33550256490707L1289.3925,263.5037825703621L1290.0030078124998,258.307301402092L1291.2240234375,255.14393815398216L1291.83453125,257.25918558239937L1292.4450390625,262.02017363905907L1293.055546875,264.25900116562843L1293.6660546875,264.9325464963913L1296.1080859375002,266.2802849113941L1296.71859375,253.23106017708778L1297.3291015625,258.397451788187L1299.160625,252.80343586206436L1300.381640625,253.27680283784866L1300.9921484375,256.6217342019081L1301.6026562499999,257.5680851340294L1302.823671875,257.30804309248924L1303.4341796874999,264.73892453312874L1304.0446875,257.5672571361065L1305.265703125,256.13479256629944L1305.8762109375,253.863842099905L1307.707734375,261.2130221128464L1308.92875,261.5682050585747L1310.149765625,260.74021276831627L1310.7602734375,259.45504170656204L1311.9812890624999,249.07908430695534L1313.8128124999998,260.6431229710579L1315.033828125,254.59220427274704L1315.6443359375,260.30586871504784L1316.25484375,265.8655199110508L1317.475859375,259.0498916208744L1318.696875,265.1269513964653L1319.3073828125,254.48845106363297L1319.9178906250002,260.4901573956013L1322.359921875,258.4927954673767L1322.9704296875,256.3048250377178L1324.1914453125,247.17124754190445L1325.4124609374999,261.2747502028942L1328.465,253.9995999634266L1330.90703125,261.98836612701416L1331.5175390625,250.471911996603L1332.128046875,261.86704471707344L1332.7385546875,256.97870832681656L1340.0646484375,242.45530933141708L1341.2856640625,264.7224603295326L1342.5066796875,257.611310005188" style="fill: none;" fill="none"></path></g></g></g></g></g></g><g transform="translate(30, 378)" clip-path="url(#clip_1)"><clipPath id="clip_1"><rect width="1465" height="22"></rect></clipPath><g><g><line x1="0" y1="0" x2="0" y2="5" style="visibility: inherit;" fill="rgb(0, 0, 0)" stroke="rgb(204, 204, 204)" stroke-width="1px"></line><line x1="122.1015625" y1="0" x2="122.1015625" y2="5" style="visibility: inherit;" fill="rgb(0, 0, 0)" stroke="rgb(204, 204, 204)" stroke-width="1px"></line><line x1="244.203125" y1="0" x2="244.203125" y2="5" style="visibility: inherit;" fill="rgb(0, 0, 0)" stroke="rgb(204, 204, 204)" stroke-width="1px"></line><line x1="366.3046875" y1="0" x2="366.3046875" y2="5" style="visibility: inherit;" fill="rgb(0, 0, 0)" stroke="rgb(204, 204, 204)" stroke-width="1px"></line><line x1="488.40625" y1="0" x2="488.40625" y2="5" style="visibility: inherit;" fill="rgb(0, 0, 0)" stroke="rgb(204, 204, 204)" stroke-width="1px"></line><line x1="610.5078125" y1="0" x2="610.5078125" y2="5" style="visibility: inherit;" fill="rgb(0, 0, 0)" stroke="rgb(204, 204, 204)" stroke-width="1px"></line><line x1="732.609375" y1="0" x2="732.609375" y2="5" style="visibility: inherit;" fill="rgb(0, 0, 0)" stroke="rgb(204, 204, 204)" stroke-width="1px"></line><line x1="854.7109375" y1="0" x2="854.7109375" y2="5" style="visibility: inherit;" fill="rgb(0, 0, 0)" stroke="rgb(204, 204, 204)" stroke-width="1px"></line><line x1="976.8125" y1="0" x2="976.8125" y2="5" style="visibility: inherit;" fill="rgb(0, 0, 0)" stroke="rgb(204, 204, 204)" stroke-width="1px"></line><line x1="1098.9140625" y1="0" x2="1098.9140625" y2="5" style="visibility: inherit;" fill="rgb(0, 0, 0)" stroke="rgb(204, 204, 204)" stroke-width="1px"></line><line x1="1221.015625" y1="0" x2="1221.015625" y2="5" style="visibility: inherit;" fill="rgb(0, 0, 0)" stroke="rgb(204, 204, 204)" stroke-width="1px"></line><line x1="1343.1171875" y1="0" x2="1343.1171875" y2="5" style="visibility: inherit;" fill="rgb(0, 0, 0)" stroke="rgb(204, 204, 204)" stroke-width="1px"></line><line x1="1465.21875" y1="0" x2="1465.21875" y2="5" style="visibility: inherit;" fill="rgb(0, 0, 0)" stroke="rgb(204, 204, 204)" stroke-width="1px"></line></g><g transform="translate(0, 8)"><text x="0" y="0" dx="0em" dy="0.95em" style="text-anchor: middle; visibility: hidden; font-family: Roboto, sans-serif; font-size: 12px; font-weight: 200;" fill="rgb(50, 49, 63)" stroke="none" stroke-width="1px">-200</text><text x="122.1015625" y="0" dx="0em" dy="0.95em" style="text-anchor: middle; visibility: inherit; font-family: Roboto, sans-serif; font-size: 12px; font-weight: 200;" fill="rgb(50, 49, 63)" stroke="none" stroke-width="1px">0</text><text x="244.203125" y="0" dx="0em" dy="0.95em" style="text-anchor: middle; visibility: inherit; font-family: Roboto, sans-serif; font-size: 12px; font-weight: 200;" fill="rgb(50, 49, 63)" stroke="none" stroke-width="1px">200</text><text x="366.3046875" y="0" dx="0em" dy="0.95em" style="text-anchor: middle; visibility: inherit; font-family: Roboto, sans-serif; font-size: 12px; font-weight: 200;" fill="rgb(50, 49, 63)" stroke="none" stroke-width="1px">400</text><text x="488.40625" y="0" dx="0em" dy="0.95em" style="text-anchor: middle; visibility: inherit; font-family: Roboto, sans-serif; font-size: 12px; font-weight: 200;" fill="rgb(50, 49, 63)" stroke="none" stroke-width="1px">600</text><text x="610.5078125" y="0" dx="0em" dy="0.95em" style="text-anchor: middle; visibility: inherit; font-family: Roboto, sans-serif; font-size: 12px; font-weight: 200;" fill="rgb(50, 49, 63)" stroke="none" stroke-width="1px">800</text><text x="732.609375" y="0" dx="0em" dy="0.95em" style="text-anchor: middle; visibility: inherit; font-family: Roboto, sans-serif; font-size: 12px; font-weight: 200;" fill="rgb(50, 49, 63)" stroke="none" stroke-width="1px">1k</text><text x="854.7109375" y="0" dx="0em" dy="0.95em" style="text-anchor: middle; visibility: inherit; font-family: Roboto, sans-serif; font-size: 12px; font-weight: 200;" fill="rgb(50, 49, 63)" stroke="none" stroke-width="1px">1.2k</text><text x="976.8125" y="0" dx="0em" dy="0.95em" style="text-anchor: middle; visibility: inherit; font-family: Roboto, sans-serif; font-size: 12px; font-weight: 200;" fill="rgb(50, 49, 63)" stroke="none" stroke-width="1px">1.4k</text><text x="1098.9140625" y="0" dx="0em" dy="0.95em" style="text-anchor: middle; visibility: inherit; font-family: Roboto, sans-serif; font-size: 12px; font-weight: 200;" fill="rgb(50, 49, 63)" stroke="none" stroke-width="1px">1.6k</text><text x="1221.015625" y="0" dx="0em" dy="0.95em" style="text-anchor: middle; visibility: inherit; font-family: Roboto, sans-serif; font-size: 12px; font-weight: 200;" fill="rgb(50, 49, 63)" stroke="none" stroke-width="1px">1.8k</text><text x="1343.1171875" y="0" dx="0em" dy="0.95em" style="text-anchor: middle; visibility: inherit; font-family: Roboto, sans-serif; font-size: 12px; font-weight: 200;" fill="rgb(50, 49, 63)" stroke="none" stroke-width="1px">2k</text><text x="1465.21875" y="0" dx="0em" dy="0.95em" style="text-anchor: middle; visibility: hidden; font-family: Roboto, sans-serif; font-size: 12px; font-weight: 200;" fill="rgb(50, 49, 63)" stroke="none" stroke-width="1px">2.2k</text></g><line x1="0" y1="0" x2="1465.21875" y2="0" fill="rgb(0, 0, 0)" stroke="rgb(204, 204, 204)" stroke-width="1px"></line></g></g></g></g></svg>