<svg viewBox="0 0 1496 400" xmlns="http://www.w3.org/2000/svg"><g><g><g><g><g><line x1="50" y1="378" x2="45" y2="378" style="visibility: inherit;" fill="rgb(0, 0, 0)" stroke="rgb(204, 204, 204)" stroke-width="1px"></line><line x1="50" y1="351" x2="45" y2="351" style="visibility: inherit;" fill="rgb(0, 0, 0)" stroke="rgb(204, 204, 204)" stroke-width="1px"></line><line x1="50" y1="324" x2="45" y2="324" style="visibility: inherit;" fill="rgb(0, 0, 0)" stroke="rgb(204, 204, 204)" stroke-width="1px"></line><line x1="50" y1="297" x2="45" y2="297" style="visibility: inherit;" fill="rgb(0, 0, 0)" stroke="rgb(204, 204, 204)" stroke-width="1px"></line><line x1="50" y1="270" x2="45" y2="270" style="visibility: inherit;" fill="rgb(0, 0, 0)" stroke="rgb(204, 204, 204)" stroke-width="1px"></line><line x1="50" y1="243" x2="45" y2="243" style="visibility: inherit;" fill="rgb(0, 0, 0)" stroke="rgb(204, 204, 204)" stroke-width="1px"></line><line x1="50" y1="216" x2="45" y2="216" style="visibility: inherit;" fill="rgb(0, 0, 0)" stroke="rgb(204, 204, 204)" stroke-width="1px"></line><line x1="50" y1="189" x2="45" y2="189" style="visibility: inherit;" fill="rgb(0, 0, 0)" stroke="rgb(204, 204, 204)" stroke-width="1px"></line><line x1="50" y1="162" x2="45" y2="162" style="visibility: inherit;" fill="rgb(0, 0, 0)" stroke="rgb(204, 204, 204)" stroke-width="1px"></line><line x1="50" y1="134.99999999999997" x2="45" y2="134.99999999999997" style="visibility: inherit;" fill="rgb(0, 0, 0)" stroke="rgb(204, 204, 204)" stroke-width="1px"></line><line x1="50" y1="108" x2="45" y2="108" style="visibility: inherit;" fill="rgb(0, 0, 0)" stroke="rgb(204, 204, 204)" stroke-width="1px"></line><line x1="50" y1="81" x2="45" y2="81" style="visibility: inherit;" fill="rgb(0, 0, 0)" stroke="rgb(204, 204, 204)" stroke-width="1px"></line><line x1="50" y1="54" x2="45" y2="54" style="visibility: inherit;" fill="rgb(0, 0, 0)" stroke="rgb(204, 204, 204)" stroke-width="1px"></line><line x1="50" y1="27" x2="45" y2="27" style="visibility: inherit;" fill="rgb(0, 0, 0)" stroke="rgb(204, 204, 204)" stroke-width="1px"></line><line x1="50" y1="0" x2="45" y2="0" style="visibility: inherit;" fill="rgb(0, 0, 0)" stroke="rgb(204, 204, 204)" stroke-width="1px"></line></g><g transform="translate(40, 0)"><text x="0" y="378" dx="0em" dy="0.3em" style="text-anchor: end; visibility: hidden; font-family: &quot;Helvetica Neue&quot;, sans-serif; font-size: 12px; font-weight: 200;" fill="rgb(50, 49, 63)" stroke="none" stroke-width="1px">-550</text><text x="0" y="351" dx="0em" dy="0.3em" style="text-anchor: end; visibility: inherit; font-family: &quot;Helvetica Neue&quot;, sans-serif; font-size: 12px; font-weight: 200;" fill="rgb(50, 49, 63)" stroke="none" stroke-width="1px">-500</text><text x="0" y="324" dx="0em" dy="0.3em" style="text-anchor: end; visibility: inherit; font-family: &quot;Helvetica Neue&quot;, sans-serif; font-size: 12px; font-weight: 200;" fill="rgb(50, 49, 63)" stroke="none" stroke-width="1px">-450</text><text x="0" y="297" dx="0em" dy="0.3em" style="text-anchor: end; visibility: inherit; font-family: &quot;Helvetica Neue&quot;, sans-serif; font-size: 12px; font-weight: 200;" fill="rgb(50, 49, 63)" stroke="none" stroke-width="1px">-400</text><text x="0" y="270" dx="0em" dy="0.3em" style="text-anchor: end; visibility: inherit; font-family: &quot;Helvetica Neue&quot;, sans-serif; font-size: 12px; font-weight: 200;" fill="rgb(50, 49, 63)" stroke="none" stroke-width="1px">-350</text><text x="0" y="243" dx="0em" dy="0.3em" style="text-anchor: end; visibility: inherit; font-family: &quot;Helvetica Neue&quot;, sans-serif; font-size: 12px; font-weight: 200;" fill="rgb(50, 49, 63)" stroke="none" stroke-width="1px">-300</text><text x="0" y="216" dx="0em" dy="0.3em" style="text-anchor: end; visibility: inherit; font-family: &quot;Helvetica Neue&quot;, sans-serif; font-size: 12px; font-weight: 200;" fill="rgb(50, 49, 63)" stroke="none" stroke-width="1px">-250</text><text x="0" y="189" dx="0em" dy="0.3em" style="text-anchor: end; visibility: inherit; font-family: &quot;Helvetica Neue&quot;, sans-serif; font-size: 12px; font-weight: 200;" fill="rgb(50, 49, 63)" stroke="none" stroke-width="1px">-200</text><text x="0" y="162" dx="0em" dy="0.3em" style="text-anchor: end; visibility: inherit; font-family: &quot;Helvetica Neue&quot;, sans-serif; font-size: 12px; font-weight: 200;" fill="rgb(50, 49, 63)" stroke="none" stroke-width="1px">-150</text><text x="0" y="134.99999999999997" dx="0em" dy="0.3em" style="text-anchor: end; visibility: inherit; font-family: &quot;Helvetica Neue&quot;, sans-serif; font-size: 12px; font-weight: 200;" fill="rgb(50, 49, 63)" stroke="none" stroke-width="1px">-100</text><text x="0" y="108" dx="0em" dy="0.3em" style="text-anchor: end; visibility: inherit; font-family: &quot;Helvetica Neue&quot;, sans-serif; font-size: 12px; font-weight: 200;" fill="rgb(50, 49, 63)" stroke="none" stroke-width="1px">-50</text><text x="0" y="81" dx="0em" dy="0.3em" style="text-anchor: end; visibility: inherit; font-family: &quot;Helvetica Neue&quot;, sans-serif; font-size: 12px; font-weight: 200;" fill="rgb(50, 49, 63)" stroke="none" stroke-width="1px">0</text><text x="0" y="54" dx="0em" dy="0.3em" style="text-anchor: end; visibility: inherit; font-family: &quot;Helvetica Neue&quot;, sans-serif; font-size: 12px; font-weight: 200;" fill="rgb(50, 49, 63)" stroke="none" stroke-width="1px">50</text><text x="0" y="27" dx="0em" dy="0.3em" style="text-anchor: end; visibility: inherit; font-family: &quot;Helvetica Neue&quot;, sans-serif; font-size: 12px; font-weight: 200;" fill="rgb(50, 49, 63)" stroke="none" stroke-width="1px">100</text><text x="0" y="0" dx="0em" dy="0.3em" style="text-anchor: end; visibility: hidden; font-family: &quot;Helvetica Neue&quot;, sans-serif; font-size: 12px; font-weight: 200;" fill="rgb(50, 49, 63)" stroke="none" stroke-width="1px">150</text></g><line x1="50" y1="0" x2="50" y2="378" fill="rgb(0, 0, 0)" stroke="rgb(204, 204, 204)" stroke-width="1px"></line></g></g><g transform="translate(50, 0)" clip-path="url(#clip_0)"><clipPath id="clip_0"><rect width="1446" height="378"></rect></clipPath><g><g><g><line x1="0" y1="0" x2="0" y2="378" fill="rgb(0, 0, 0)" stroke="rgb(60, 60, 60)" stroke-width="1px" opacity="0.25"></line><line x1="120.5" y1="0" x2="120.5" y2="378" fill="rgb(0, 0, 0)" stroke="rgb(60, 60, 60)" stroke-width="1px" opacity="0.25"></line><line x1="241" y1="0" x2="241" y2="378" fill="rgb(0, 0, 0)" stroke="rgb(60, 60, 60)" stroke-width="1px" opacity="0.25"></line><line x1="361.5" y1="0" x2="361.5" y2="378" fill="rgb(0, 0, 0)" stroke="rgb(60, 60, 60)" stroke-width="1px" opacity="0.25"></line><line x1="482" y1="0" x2="482" y2="378" fill="rgb(0, 0, 0)" stroke="rgb(60, 60, 60)" stroke-width="1px" opacity="0.25"></line><line x1="602.5" y1="0" x2="602.5" y2="378" fill="rgb(0, 0, 0)" stroke="rgb(60, 60, 60)" stroke-width="1px" opacity="0.25"></line><line x1="723" y1="0" x2="723" y2="378" fill="rgb(0, 0, 0)" stroke="rgb(60, 60, 60)" stroke-width="1px" opacity="0.25"></line><line x1="843.5" y1="0" x2="843.5" y2="378" fill="rgb(0, 0, 0)" stroke="rgb(60, 60, 60)" stroke-width="1px" opacity="0.25"></line><line x1="964" y1="0" x2="964" y2="378" fill="rgb(0, 0, 0)" stroke="rgb(60, 60, 60)" stroke-width="1px" opacity="0.25"></line><line x1="1084.5" y1="0" x2="1084.5" y2="378" fill="rgb(0, 0, 0)" stroke="rgb(60, 60, 60)" stroke-width="1px" opacity="0.25"></line><line x1="1205" y1="0" x2="1205" y2="378" fill="rgb(0, 0, 0)" stroke="rgb(60, 60, 60)" stroke-width="1px" opacity="0.25"></line><line x1="1325.5" y1="0" x2="1325.5" y2="378" fill="rgb(0, 0, 0)" stroke="rgb(60, 60, 60)" stroke-width="1px" opacity="0.25"></line><line x1="1446" y1="0" x2="1446" y2="378" fill="rgb(0, 0, 0)" stroke="rgb(60, 60, 60)" stroke-width="1px" opacity="0.25"></line></g><g><line x1="0" y1="378" x2="1446" y2="378" fill="rgb(0, 0, 0)" stroke="rgb(60, 60, 60)" stroke-width="1px" opacity="0.25"></line><line x1="0" y1="351" x2="1446" y2="351" fill="rgb(0, 0, 0)" stroke="rgb(60, 60, 60)" stroke-width="1px" opacity="0.25"></line><line x1="0" y1="324" x2="1446" y2="324" fill="rgb(0, 0, 0)" stroke="rgb(60, 60, 60)" stroke-width="1px" opacity="0.25"></line><line x1="0" y1="297" x2="1446" y2="297" fill="rgb(0, 0, 0)" stroke="rgb(60, 60, 60)" stroke-width="1px" opacity="0.25"></line><line x1="0" y1="270" x2="1446" y2="270" fill="rgb(0, 0, 0)" stroke="rgb(60, 60, 60)" stroke-width="1px" opacity="0.25"></line><line x1="0" y1="243" x2="1446" y2="243" fill="rgb(0, 0, 0)" stroke="rgb(60, 60, 60)" stroke-width="1px" opacity="0.25"></line><line x1="0" y1="216" x2="1446" y2="216" fill="rgb(0, 0, 0)" stroke="rgb(60, 60, 60)" stroke-width="1px" opacity="0.25"></line><line x1="0" y1="189" x2="1446" y2="189" fill="rgb(0, 0, 0)" stroke="rgb(60, 60, 60)" stroke-width="1px" opacity="0.25"></line><line x1="0" y1="162" x2="1446" y2="162" fill="rgb(0, 0, 0)" stroke="rgb(60, 60, 60)" stroke-width="1px" opacity="0.25"></line><line x1="0" y1="134.99999999999997" x2="1446" y2="134.99999999999997" fill="rgb(0, 0, 0)" stroke="rgb(60, 60, 60)" stroke-width="1px" opacity="0.25"></line><line x1="0" y1="108" x2="1446" y2="108" fill="rgb(0, 0, 0)" stroke="rgb(60, 60, 60)" stroke-width="1px" opacity="0.25"></line><line x1="0" y1="81" x2="1446" y2="81" fill="rgb(0, 0, 0)" stroke="rgb(60, 60, 60)" stroke-width="1px" opacity="0.25"></line><line x1="0" y1="54" x2="1446" y2="54" fill="rgb(0, 0, 0)" stroke="rgb(60, 60, 60)" stroke-width="1px" opacity="0.25"></line><line x1="0" y1="27" x2="1446" y2="27" fill="rgb(0, 0, 0)" stroke="rgb(60, 60, 60)" stroke-width="1px" opacity="0.25"></line><line x1="0" y1="0" x2="1446" y2="0" fill="rgb(0, 0, 0)" stroke="rgb(60, 60, 60)" stroke-width="1px" opacity="0.25"></line></g></g></g><g><g><line x1="0" y1="81" x2="1446" y2="81" fill="rgb(0, 0, 0)" stroke="rgb(153, 153, 153)" stroke-width="1.5px"></line></g></g><g><g><line x1="120.5" y1="0" x2="120.5" y2="378" fill="rgb(0, 0, 0)" stroke="rgb(153, 153, 153)" stroke-width="1.5px"></line></g></g><g><g><g><g><g><path stroke="rgb(255, 112, 67)" stroke-width="2px" d="M120.5,59.51723510742187L126.52499999999999,38.8591848564148L132.54999999999998,480.18929397583L186.775,477.2231536408057L192.8,315.30331746479436L198.82500000000002,217.77500170603787L204.85,159.53635716214316L210.875,124.37794972498523L216.9,103.08917580191968L222.925,90.3861462702261L228.95,82.41426514392253L234.975,77.95737173646535L241,75.29666600467533L247.025,73.91308817292384L253.04999999999998,73.02412252516962L259.075,72.39797959665975L265.09999999999997,71.91811703643299L271.125,71.81264885054406L277.15000000000003,71.94513720593676L283.175,71.86509042259917L289.2,72.05114088522134L295.225,72.01510536056867L301.25,72.23306232209524L307.275,72.74151989832313L313.3,73.11100987228724L319.325,73.53924627072479L325.35,74.11393805399149L331.375,74.86687371967759L337.4,75.18529583411896L343.425,75.73788320625863L349.45,76.35143836399538L355.47499999999997,76.87947413360502L361.5,77.16491884776258L367.525,77.27274745891697L373.55,77.4054348904886L379.575,77.32756870405507L385.6,77.43622907721118L391.625,77.5434129872574L397.65000000000003,77.44568841735082L403.675,77.59784059405405L409.7,77.77050443959513L415.72499999999997,77.88965681262283L421.75,78.05397845189333L427.775,77.96958130026172L433.8,77.86522295465642L439.825,77.88855354589566L445.85,77.88282625748121L451.875,77.9661028093899L457.9,78.01587273757485L463.925,78.1394589223911L469.95,78.0453401865035L475.975,78.12507637676418L482,78.29727851877703L488.02500000000003,78.29728646856603L494.05,78.26819175113474L500.075,78.25808189028044L506.09999999999997,78.31708483668291L512.125,78.31381448919848L518.15,78.3864986124949L524.175,78.49710738893248L530.1999999999999,78.50223836371839L536.225,78.42908930653061L542.25,78.40984330483514L548.275,78.53346698753973L554.3000000000001,78.38851617045964L560.325,78.35219045560217L566.35,78.27755219602983L572.375,78.33299782076114L578.4,78.47955748151924L584.425,78.22800183433998L590.45,78.1050002583188L596.475,78.19171100856795L602.5,78.39421139289101L608.525,78.51007944803928L614.55,78.44712215841707L620.5749999999999,78.43419237006248L626.6,78.51543075864635L632.625,78.39368499937729L638.65,78.31254158129138L644.6750000000001,78.40112197559978L650.7,78.46483758355322L656.725,78.50428807869645L662.75,78.52358121666367L668.775,78.52826619978578L674.8,78.61187047502898L680.825,78.4766707850784L686.85,78.51060007389128L692.875,78.6114121759876L698.9,78.62161618071468L704.925,78.75240326403178L710.9499999999999,78.63867818354726L716.975,78.66493067264054L723,78.7112925138444L729.025,78.62781536807836L735.05,78.56013938564195L741.0749999999999,78.4724358194955L747.1,78.50276485168263L753.125,78.64984601046638L759.15,78.46902754799123L765.175,78.58627791032552L771.2,78.60194752469869L777.225,78.49521388301383L783.25,78.68616221957882L789.275,78.68046471150797L795.3000000000001,78.61621617813165L801.325,78.65624900161771L807.35,78.76182920443739L813.375,78.66687347023327L819.4,78.77924648433111L825.425,78.55591138547175L831.4499999999999,78.41144914451547L837.475,78.44772168626366L843.5,78.5068093041777L849.525,78.48651370979542L855.55,78.4063229139876L861.575,78.39727811957783L867.6,78.44161900034777L873.625,78.54324703497429L879.65,78.62364843918527L885.6750000000001,78.55647340723061L891.7,78.63334756820313L897.725,78.50313449459622L903.75,78.60193810032217L909.775,78.51119652871137L915.8,78.68247870900535L921.8249999999999,78.77840686499064L927.85,78.66364965640895L933.875,78.49462720992204L939.9,78.60352430034897L945.925,78.51596819501651L951.95,78.59106047404725L957.975,78.59943063791349L964,78.5797181514248L970.025,78.6325026285258L976.0500000000001,78.62465281460334L982.075,78.58185943778545L988.1,78.54791256055944L994.125,78.59584101167746L1000.15,78.64304481391565L1006.175,78.55246199729714L1012.1999999999999,78.64122444035212L1018.225,78.64211409688954L1024.25,78.70122980762102L1030.275,78.74057788853992L1036.3,78.72074102786274L1042.325,78.6834906715577L1048.35,78.73852475419193L1054.375,78.85702741965383L1060.3999999999999,78.82054945197541L1066.425,78.6204197628906L1072.45,78.70755745313227L1078.475,78.69055657423536L1084.5,78.6344421217263L1090.525,78.73694514211536L1096.55,78.6012064872773L1102.575,78.60400120559876L1108.6000000000001,78.6292799653026L1114.625,78.74011355718449L1120.65,78.76734658432292L1126.675,78.85220895309624L1132.7,78.76058329879862L1138.725,78.84294325625672L1144.75,78.86634861824376L1150.7749999999999,78.7752366077749L1156.8,78.74289004968688L1162.825,78.77316840176036L1168.85,78.86184147837315L1174.875,78.84647477532957L1180.9,78.72391076317746L1186.925,78.60054455132081L1192.95,78.5835008145022L1198.9750000000001,78.55577664760636L1205,78.50302435343201L1211.025,78.61149027123889L1217.05,78.53471208724284L1223.075,78.4837499436909L1229.1,78.59808888299312L1235.125,78.57598675264745L1241.1499999999999,78.79788782795566L1247.175,78.75766380334079L1253.2,78.71088574233158L1259.225,78.67469842995706L1265.25,78.72314088872372L1271.275,78.64909521133484L1277.3,78.85256540698276L1283.325,78.80538305522487L1289.3500000000001,78.49184288550305L1295.375,78.51775957804256L1301.4,78.71481492651304L1307.425,78.69156489737514L1313.45,78.71720325498387L1319.475,78.85253039949305" style="fill: none;" fill="none"></path></g></g></g></g><g opacity="0.2"><g><g><g><path stroke="rgb(255, 112, 67)" stroke-width="2px" d="M120.5,59.51723510742187L126.52499999999999,26.464354705810536L132.54999999999998,903.8661987304687L162.675,475.10306762695313L168.7,132.69663665771483L174.725,141.92254852294923L180.75,75.60842102050782L186.775,72.37067459106447L192.8,72.95225955963133L198.82500000000002,71.67359619140626L204.85,72.24684768676758L210.875,71.66513500213625L216.9,71.16502361297609L222.925,71.33482727050779L228.95,70.45765789031987L234.975,71.27243900299072L241,71.30575332641604L247.025,71.83776695251464L253.04999999999998,71.69069160461424L259.075,71.45877262115476L265.09999999999997,71.19832660675047L271.125,71.65444702148437L277.15000000000003,72.14386940002441L283.175,71.74502037048342L289.2,72.33021640777588L295.225,71.96105209350583L301.25,72.5599976921082L307.275,73.50420616149904L313.3,73.66524478912356L319.325,74.18160083770749L325.35,74.9759757041931L331.375,75.99627719879152L337.4,75.66292900085449L343.425,76.56676425933836L349.45,77.2717710971832L355.47499999999997,77.6715277862549L361.5,77.59308591842654L367.525,77.4344903755188L373.55,77.60446603775023L379.575,77.21076942443847L385.6,77.59921963691716L391.625,77.70418885231021L397.65000000000003,77.29910156249997L403.675,77.82606885910036L409.7,78.02950020790098L415.72499999999997,78.06838537216186L421.75,78.30046091079709L427.775,77.84298557281494L433.8,77.7086854362488L439.825,77.92354943275456L445.85,77.87423532485963L451.875,78.09101763725283L457.9,78.09052762985226L463.925,78.3248381996155L469.95,77.90416208267209L475.975,78.24468066215513L482,78.55558173179628L488.02500000000003,78.29729839324949L494.05,78.22454967498777L500.075,78.24291709899904L506.09999999999997,78.40558925628665L512.125,78.30890896797183L518.15,78.4955247974396L524.175,78.66302055358886L530.1999999999999,78.50993482589723L536.225,78.31936572074886L542.25,78.38097430229186L548.275,78.71890251159664L554.3000000000001,78.17108994483948L560.325,78.29770188331605L566.35,78.16559480667115L572.375,78.41616625785826L578.4,78.69939697265625L584.425,77.85066836357117L590.45,77.92049789428711L596.475,78.32177713394162L602.5,78.69796196937563L608.525,78.68388153076171L614.55,78.35268622398377L620.5749999999999,78.4147976875305L626.6,78.63728834152221L632.625,78.21106636047364L638.65,78.19082645416262L644.6750000000001,78.5339925670624L650.7,78.56041099548338L656.725,78.56346382141112L662.75,78.55252092361451L668.775,78.53529367446902L674.8,78.7372768878937L680.825,78.27387125015258L686.85,78.56149400711058L692.875,78.7626303291321L698.9,78.63692218780517L704.925,78.94858388900758L710.9499999999999,78.46809056282041L716.975,78.70430940628052L723,78.78083527565002L729.025,78.50259964942933L735.05,78.45862541198727L741.0749999999999,78.34088047027592L747.1,78.54825839996334L753.125,78.870467748642L759.15,78.19779985427857L765.175,78.7621534538269L771.2,78.62545194625852L777.225,78.33511342048644L783.25,78.97258472442627L789.275,78.67191844940186L795.3000000000001,78.51984337806704L801.325,78.71629823684691L807.35,78.920199508667L813.375,78.524439868927L819.4,78.9478060054779L825.425,78.22090873718264L831.4499999999999,78.19475578308106L837.475,78.50213049888612L843.5,78.5954407310486L849.525,78.45607031822203L855.55,78.28603672027589L861.575,78.38371092796325L867.6,78.50813032150268L873.625,78.69568908691406L879.65,78.7442505455017L885.6750000000001,78.45571085929873L891.7,78.74865880966183L897.725,78.3078148841858L903.75,78.7501435089111L909.775,78.37508417129516L915.8,78.93940197944642L921.8249999999999,78.9222990989685L927.85,78.49151384353638L933.875,78.24109354019163L939.9,78.7668699359894L945.925,78.3846340370178L951.95,78.70369889259342L957.975,78.6119858837128L964,78.55014942169191L970.025,78.71167934417724L976.0500000000001,78.61287809371947L982.075,78.5176693725586L988.1,78.49699224472045L994.125,78.66773368835453L1000.15,78.71385051727293L1006.175,78.41658777236938L1012.1999999999999,78.7743681049347L1018.225,78.64344858169557L1024.25,78.78990337371823L1030.275,78.79960000991821L1036.3,78.69098573684693L1042.325,78.62761513710018L1048.35,78.82107587814329L1054.375,79.03478141784666L1060.3999999999999,78.76583250045775L1066.425,78.32022522926331L1072.45,78.83826398849487L1078.475,78.66505525588991L1084.5,78.55027044296264L1090.525,78.89069967269893L1096.55,78.39759850502014L1102.575,78.60819328308105L1108.6000000000001,78.66719810485841L1114.625,78.90636394500734L1120.65,78.80819612503052L1126.675,78.9795025062561L1132.7,78.62314481735228L1138.725,78.96648319244383L1144.75,78.90145666122436L1150.7749999999999,78.63856859207152L1156.8,78.69437021255493L1162.825,78.81858592987061L1168.85,78.99485109329225L1174.875,78.82342472076414L1180.9,78.54006474494935L1186.925,78.41549523353581L1192.95,78.55793520927432L1198.9750000000001,78.51419039726255L1205,78.4238959121704L1211.025,78.77418914794924L1217.05,78.41954481124878L1223.075,78.40730672836304L1229.1,78.76959729194641L1235.125,78.54283355712892L1241.1499999999999,79.13073944091798L1247.175,78.69732776641843L1253.2,78.64071865081786L1259.225,78.62041746139528L1265.25,78.79580457687376L1271.275,78.53802669525146L1277.3,79.1577707004547L1283.325,78.7346095275879L1289.3500000000001,78.02153263092038L1295.375,78.5566346168518L1301.4,79.01039794921877L1307.425,78.65668985366818L1313.45,78.75566079139708L1319.475,79.05552111625673" style="fill: none;" fill="none"></path></g></g></g></g></g></g><g transform="translate(50, 378)" clip-path="url(#clip_1)"><clipPath id="clip_1"><rect width="1446" height="22"></rect></clipPath><g><g><line x1="0" y1="0" x2="0" y2="5" style="visibility: inherit;" fill="rgb(0, 0, 0)" stroke="rgb(204, 204, 204)" stroke-width="1px"></line><line x1="120.5" y1="0" x2="120.5" y2="5" style="visibility: inherit;" fill="rgb(0, 0, 0)" stroke="rgb(204, 204, 204)" stroke-width="1px"></line><line x1="241" y1="0" x2="241" y2="5" style="visibility: inherit;" fill="rgb(0, 0, 0)" stroke="rgb(204, 204, 204)" stroke-width="1px"></line><line x1="361.5" y1="0" x2="361.5" y2="5" style="visibility: inherit;" fill="rgb(0, 0, 0)" stroke="rgb(204, 204, 204)" stroke-width="1px"></line><line x1="482" y1="0" x2="482" y2="5" style="visibility: inherit;" fill="rgb(0, 0, 0)" stroke="rgb(204, 204, 204)" stroke-width="1px"></line><line x1="602.5" y1="0" x2="602.5" y2="5" style="visibility: inherit;" fill="rgb(0, 0, 0)" stroke="rgb(204, 204, 204)" stroke-width="1px"></line><line x1="723" y1="0" x2="723" y2="5" style="visibility: inherit;" fill="rgb(0, 0, 0)" stroke="rgb(204, 204, 204)" stroke-width="1px"></line><line x1="843.5" y1="0" x2="843.5" y2="5" style="visibility: inherit;" fill="rgb(0, 0, 0)" stroke="rgb(204, 204, 204)" stroke-width="1px"></line><line x1="964" y1="0" x2="964" y2="5" style="visibility: inherit;" fill="rgb(0, 0, 0)" stroke="rgb(204, 204, 204)" stroke-width="1px"></line><line x1="1084.5" y1="0" x2="1084.5" y2="5" style="visibility: inherit;" fill="rgb(0, 0, 0)" stroke="rgb(204, 204, 204)" stroke-width="1px"></line><line x1="1205" y1="0" x2="1205" y2="5" style="visibility: inherit;" fill="rgb(0, 0, 0)" stroke="rgb(204, 204, 204)" stroke-width="1px"></line><line x1="1325.5" y1="0" x2="1325.5" y2="5" style="visibility: inherit;" fill="rgb(0, 0, 0)" stroke="rgb(204, 204, 204)" stroke-width="1px"></line><line x1="1446" y1="0" x2="1446" y2="5" style="visibility: inherit;" fill="rgb(0, 0, 0)" stroke="rgb(204, 204, 204)" stroke-width="1px"></line></g><g transform="translate(0, 8)"><text x="0" y="0" dx="0em" dy="0.95em" style="text-anchor: middle; visibility: hidden; font-family: &quot;Helvetica Neue&quot;, sans-serif; font-size: 12px; font-weight: 200;" fill="rgb(50, 49, 63)" stroke="none" stroke-width="1px">-20</text><text x="120.5" y="0" dx="0em" dy="0.95em" style="text-anchor: middle; visibility: inherit; font-family: &quot;Helvetica Neue&quot;, sans-serif; font-size: 12px; font-weight: 200;" fill="rgb(50, 49, 63)" stroke="none" stroke-width="1px">0</text><text x="241" y="0" dx="0em" dy="0.95em" style="text-anchor: middle; visibility: inherit; font-family: &quot;Helvetica Neue&quot;, sans-serif; font-size: 12px; font-weight: 200;" fill="rgb(50, 49, 63)" stroke="none" stroke-width="1px">20</text><text x="361.5" y="0" dx="0em" dy="0.95em" style="text-anchor: middle; visibility: inherit; font-family: &quot;Helvetica Neue&quot;, sans-serif; font-size: 12px; font-weight: 200;" fill="rgb(50, 49, 63)" stroke="none" stroke-width="1px">40</text><text x="482" y="0" dx="0em" dy="0.95em" style="text-anchor: middle; visibility: inherit; font-family: &quot;Helvetica Neue&quot;, sans-serif; font-size: 12px; font-weight: 200;" fill="rgb(50, 49, 63)" stroke="none" stroke-width="1px">60</text><text x="602.5" y="0" dx="0em" dy="0.95em" style="text-anchor: middle; visibility: inherit; font-family: &quot;Helvetica Neue&quot;, sans-serif; font-size: 12px; font-weight: 200;" fill="rgb(50, 49, 63)" stroke="none" stroke-width="1px">80</text><text x="723" y="0" dx="0em" dy="0.95em" style="text-anchor: middle; visibility: inherit; font-family: &quot;Helvetica Neue&quot;, sans-serif; font-size: 12px; font-weight: 200;" fill="rgb(50, 49, 63)" stroke="none" stroke-width="1px">100</text><text x="843.5" y="0" dx="0em" dy="0.95em" style="text-anchor: middle; visibility: inherit; font-family: &quot;Helvetica Neue&quot;, sans-serif; font-size: 12px; font-weight: 200;" fill="rgb(50, 49, 63)" stroke="none" stroke-width="1px">120</text><text x="964" y="0" dx="0em" dy="0.95em" style="text-anchor: middle; visibility: inherit; font-family: &quot;Helvetica Neue&quot;, sans-serif; font-size: 12px; font-weight: 200;" fill="rgb(50, 49, 63)" stroke="none" stroke-width="1px">140</text><text x="1084.5" y="0" dx="0em" dy="0.95em" style="text-anchor: middle; visibility: inherit; font-family: &quot;Helvetica Neue&quot;, sans-serif; font-size: 12px; font-weight: 200;" fill="rgb(50, 49, 63)" stroke="none" stroke-width="1px">160</text><text x="1205" y="0" dx="0em" dy="0.95em" style="text-anchor: middle; visibility: inherit; font-family: &quot;Helvetica Neue&quot;, sans-serif; font-size: 12px; font-weight: 200;" fill="rgb(50, 49, 63)" stroke="none" stroke-width="1px">180</text><text x="1325.5" y="0" dx="0em" dy="0.95em" style="text-anchor: middle; visibility: inherit; font-family: &quot;Helvetica Neue&quot;, sans-serif; font-size: 12px; font-weight: 200;" fill="rgb(50, 49, 63)" stroke="none" stroke-width="1px">200</text><text x="1446" y="0" dx="0em" dy="0.95em" style="text-anchor: middle; visibility: hidden; font-family: &quot;Helvetica Neue&quot;, sans-serif; font-size: 12px; font-weight: 200;" fill="rgb(50, 49, 63)" stroke="none" stroke-width="1px">220</text></g><line x1="0" y1="0" x2="1446" y2="0" fill="rgb(0, 0, 0)" stroke="rgb(204, 204, 204)" stroke-width="1px"></line></g></g></g></g></svg>