<svg viewBox="0 0 1496 400" xmlns="http://www.w3.org/2000/svg"><g><g><g><g><g><line x1="60" y1="378" x2="55" y2="378" style="visibility: inherit;" fill="rgb(0, 0, 0)" stroke="rgb(204, 204, 204)" stroke-width="1px"></line><line x1="60" y1="346.5" x2="55" y2="346.5" style="visibility: inherit;" fill="rgb(0, 0, 0)" stroke="rgb(204, 204, 204)" stroke-width="1px"></line><line x1="60" y1="315" x2="55" y2="315" style="visibility: inherit;" fill="rgb(0, 0, 0)" stroke="rgb(204, 204, 204)" stroke-width="1px"></line><line x1="60" y1="283.5" x2="55" y2="283.5" style="visibility: inherit;" fill="rgb(0, 0, 0)" stroke="rgb(204, 204, 204)" stroke-width="1px"></line><line x1="60" y1="252" x2="55" y2="252" style="visibility: inherit;" fill="rgb(0, 0, 0)" stroke="rgb(204, 204, 204)" stroke-width="1px"></line><line x1="60" y1="220.5" x2="55" y2="220.5" style="visibility: inherit;" fill="rgb(0, 0, 0)" stroke="rgb(204, 204, 204)" stroke-width="1px"></line><line x1="60" y1="188.99999999999997" x2="55" y2="188.99999999999997" style="visibility: inherit;" fill="rgb(0, 0, 0)" stroke="rgb(204, 204, 204)" stroke-width="1px"></line><line x1="60" y1="157.50000000000003" x2="55" y2="157.50000000000003" style="visibility: inherit;" fill="rgb(0, 0, 0)" stroke="rgb(204, 204, 204)" stroke-width="1px"></line><line x1="60" y1="125.99999999999997" x2="55" y2="125.99999999999997" style="visibility: inherit;" fill="rgb(0, 0, 0)" stroke="rgb(204, 204, 204)" stroke-width="1px"></line><line x1="60" y1="94.5" x2="55" y2="94.5" style="visibility: inherit;" fill="rgb(0, 0, 0)" stroke="rgb(204, 204, 204)" stroke-width="1px"></line><line x1="60" y1="63" x2="55" y2="63" style="visibility: inherit;" fill="rgb(0, 0, 0)" stroke="rgb(204, 204, 204)" stroke-width="1px"></line><line x1="60" y1="31.5" x2="55" y2="31.5" style="visibility: inherit;" fill="rgb(0, 0, 0)" stroke="rgb(204, 204, 204)" stroke-width="1px"></line><line x1="60" y1="0" x2="55" y2="0" style="visibility: inherit;" fill="rgb(0, 0, 0)" stroke="rgb(204, 204, 204)" stroke-width="1px"></line></g><g transform="translate(50, 0)"><text x="0" y="378" dx="0em" dy="0.3em" style="text-anchor: end; visibility: hidden; font-family: &quot;Helvetica Neue&quot;, sans-serif; font-size: 12px; font-weight: 200;" fill="rgb(50, 49, 63)" stroke="none" stroke-width="1px">-0.01</text><text x="0" y="346.5" dx="0em" dy="0.3em" style="text-anchor: end; visibility: inherit; font-family: &quot;Helvetica Neue&quot;, sans-serif; font-size: 12px; font-weight: 200;" fill="rgb(50, 49, 63)" stroke="none" stroke-width="1px">0</text><text x="0" y="315" dx="0em" dy="0.3em" style="text-anchor: end; visibility: inherit; font-family: &quot;Helvetica Neue&quot;, sans-serif; font-size: 12px; font-weight: 200;" fill="rgb(50, 49, 63)" stroke="none" stroke-width="1px">0.01</text><text x="0" y="283.5" dx="0em" dy="0.3em" style="text-anchor: end; visibility: inherit; font-family: &quot;Helvetica Neue&quot;, sans-serif; font-size: 12px; font-weight: 200;" fill="rgb(50, 49, 63)" stroke="none" stroke-width="1px">0.02</text><text x="0" y="252" dx="0em" dy="0.3em" style="text-anchor: end; visibility: inherit; font-family: &quot;Helvetica Neue&quot;, sans-serif; font-size: 12px; font-weight: 200;" fill="rgb(50, 49, 63)" stroke="none" stroke-width="1px">0.03</text><text x="0" y="220.5" dx="0em" dy="0.3em" style="text-anchor: end; visibility: inherit; font-family: &quot;Helvetica Neue&quot;, sans-serif; font-size: 12px; font-weight: 200;" fill="rgb(50, 49, 63)" stroke="none" stroke-width="1px">0.04</text><text x="0" y="188.99999999999997" dx="0em" dy="0.3em" style="text-anchor: end; visibility: inherit; font-family: &quot;Helvetica Neue&quot;, sans-serif; font-size: 12px; font-weight: 200;" fill="rgb(50, 49, 63)" stroke="none" stroke-width="1px">0.05</text><text x="0" y="157.50000000000003" dx="0em" dy="0.3em" style="text-anchor: end; visibility: inherit; font-family: &quot;Helvetica Neue&quot;, sans-serif; font-size: 12px; font-weight: 200;" fill="rgb(50, 49, 63)" stroke="none" stroke-width="1px">0.06</text><text x="0" y="125.99999999999997" dx="0em" dy="0.3em" style="text-anchor: end; visibility: inherit; font-family: &quot;Helvetica Neue&quot;, sans-serif; font-size: 12px; font-weight: 200;" fill="rgb(50, 49, 63)" stroke="none" stroke-width="1px">0.07</text><text x="0" y="94.5" dx="0em" dy="0.3em" style="text-anchor: end; visibility: inherit; font-family: &quot;Helvetica Neue&quot;, sans-serif; font-size: 12px; font-weight: 200;" fill="rgb(50, 49, 63)" stroke="none" stroke-width="1px">0.08</text><text x="0" y="63" dx="0em" dy="0.3em" style="text-anchor: end; visibility: inherit; font-family: &quot;Helvetica Neue&quot;, sans-serif; font-size: 12px; font-weight: 200;" fill="rgb(50, 49, 63)" stroke="none" stroke-width="1px">0.09</text><text x="0" y="31.5" dx="0em" dy="0.3em" style="text-anchor: end; visibility: inherit; font-family: &quot;Helvetica Neue&quot;, sans-serif; font-size: 12px; font-weight: 200;" fill="rgb(50, 49, 63)" stroke="none" stroke-width="1px">0.1</text><text x="0" y="0" dx="0em" dy="0.3em" style="text-anchor: end; visibility: hidden; font-family: &quot;Helvetica Neue&quot;, sans-serif; font-size: 12px; font-weight: 200;" fill="rgb(50, 49, 63)" stroke="none" stroke-width="1px">0.11</text></g><line x1="60" y1="0" x2="60" y2="378" fill="rgb(0, 0, 0)" stroke="rgb(204, 204, 204)" stroke-width="1px"></line></g></g><g transform="translate(60, 0)" clip-path="url(#clip_0)"><clipPath id="clip_0"><rect width="1436" height="378"></rect></clipPath><g><g><g><line x1="0" y1="0" x2="0" y2="378" fill="rgb(0, 0, 0)" stroke="rgb(60, 60, 60)" stroke-width="1px" opacity="0.25"></line><line x1="119.66666666666666" y1="0" x2="119.66666666666666" y2="378" fill="rgb(0, 0, 0)" stroke="rgb(60, 60, 60)" stroke-width="1px" opacity="0.25"></line><line x1="239.33333333333331" y1="0" x2="239.33333333333331" y2="378" fill="rgb(0, 0, 0)" stroke="rgb(60, 60, 60)" stroke-width="1px" opacity="0.25"></line><line x1="359" y1="0" x2="359" y2="378" fill="rgb(0, 0, 0)" stroke="rgb(60, 60, 60)" stroke-width="1px" opacity="0.25"></line><line x1="478.66666666666663" y1="0" x2="478.66666666666663" y2="378" fill="rgb(0, 0, 0)" stroke="rgb(60, 60, 60)" stroke-width="1px" opacity="0.25"></line><line x1="598.3333333333334" y1="0" x2="598.3333333333334" y2="378" fill="rgb(0, 0, 0)" stroke="rgb(60, 60, 60)" stroke-width="1px" opacity="0.25"></line><line x1="718" y1="0" x2="718" y2="378" fill="rgb(0, 0, 0)" stroke="rgb(60, 60, 60)" stroke-width="1px" opacity="0.25"></line><line x1="837.6666666666667" y1="0" x2="837.6666666666667" y2="378" fill="rgb(0, 0, 0)" stroke="rgb(60, 60, 60)" stroke-width="1px" opacity="0.25"></line><line x1="957.3333333333333" y1="0" x2="957.3333333333333" y2="378" fill="rgb(0, 0, 0)" stroke="rgb(60, 60, 60)" stroke-width="1px" opacity="0.25"></line><line x1="1077" y1="0" x2="1077" y2="378" fill="rgb(0, 0, 0)" stroke="rgb(60, 60, 60)" stroke-width="1px" opacity="0.25"></line><line x1="1196.6666666666667" y1="0" x2="1196.6666666666667" y2="378" fill="rgb(0, 0, 0)" stroke="rgb(60, 60, 60)" stroke-width="1px" opacity="0.25"></line><line x1="1316.3333333333333" y1="0" x2="1316.3333333333333" y2="378" fill="rgb(0, 0, 0)" stroke="rgb(60, 60, 60)" stroke-width="1px" opacity="0.25"></line><line x1="1436" y1="0" x2="1436" y2="378" fill="rgb(0, 0, 0)" stroke="rgb(60, 60, 60)" stroke-width="1px" opacity="0.25"></line></g><g><line x1="0" y1="378" x2="1436" y2="378" fill="rgb(0, 0, 0)" stroke="rgb(60, 60, 60)" stroke-width="1px" opacity="0.25"></line><line x1="0" y1="346.5" x2="1436" y2="346.5" fill="rgb(0, 0, 0)" stroke="rgb(60, 60, 60)" stroke-width="1px" opacity="0.25"></line><line x1="0" y1="315" x2="1436" y2="315" fill="rgb(0, 0, 0)" stroke="rgb(60, 60, 60)" stroke-width="1px" opacity="0.25"></line><line x1="0" y1="283.5" x2="1436" y2="283.5" fill="rgb(0, 0, 0)" stroke="rgb(60, 60, 60)" stroke-width="1px" opacity="0.25"></line><line x1="0" y1="252" x2="1436" y2="252" fill="rgb(0, 0, 0)" stroke="rgb(60, 60, 60)" stroke-width="1px" opacity="0.25"></line><line x1="0" y1="220.5" x2="1436" y2="220.5" fill="rgb(0, 0, 0)" stroke="rgb(60, 60, 60)" stroke-width="1px" opacity="0.25"></line><line x1="0" y1="188.99999999999997" x2="1436" y2="188.99999999999997" fill="rgb(0, 0, 0)" stroke="rgb(60, 60, 60)" stroke-width="1px" opacity="0.25"></line><line x1="0" y1="157.50000000000003" x2="1436" y2="157.50000000000003" fill="rgb(0, 0, 0)" stroke="rgb(60, 60, 60)" stroke-width="1px" opacity="0.25"></line><line x1="0" y1="125.99999999999997" x2="1436" y2="125.99999999999997" fill="rgb(0, 0, 0)" stroke="rgb(60, 60, 60)" stroke-width="1px" opacity="0.25"></line><line x1="0" y1="94.5" x2="1436" y2="94.5" fill="rgb(0, 0, 0)" stroke="rgb(60, 60, 60)" stroke-width="1px" opacity="0.25"></line><line x1="0" y1="63" x2="1436" y2="63" fill="rgb(0, 0, 0)" stroke="rgb(60, 60, 60)" stroke-width="1px" opacity="0.25"></line><line x1="0" y1="31.5" x2="1436" y2="31.5" fill="rgb(0, 0, 0)" stroke="rgb(60, 60, 60)" stroke-width="1px" opacity="0.25"></line><line x1="0" y1="0" x2="1436" y2="0" fill="rgb(0, 0, 0)" stroke="rgb(60, 60, 60)" stroke-width="1px" opacity="0.25"></line></g></g></g><g><g><line x1="0" y1="346.5" x2="1436" y2="346.5" fill="rgb(0, 0, 0)" stroke="rgb(153, 153, 153)" stroke-width="1.5px"></line></g></g><g><g><line x1="119.66666666666666" y1="0" x2="119.66666666666666" y2="378" fill="rgb(0, 0, 0)" stroke="rgb(153, 153, 153)" stroke-width="1.5px"></line></g></g><g><g><g><g><g><path stroke="rgb(255, 112, 67)" stroke-width="2px" d="M119.66666666666666,47.444118574261665L125.64999999999999,36.751081623137L131.63333333333333,34.948295901928645L137.61666666666667,67.2167252980392L143.6,64.87739535296527L149.58333333333334,65.58136839852352L155.56666666666666,79.05420531916155L161.55,68.8149156546744L167.53333333333333,75.31947344688865L173.51666666666668,99.30138378325483L179.5,95.06338828115003L185.48333333333335,76.29204950433166L191.46666666666667,70.89644650772095L197.45000000000002,64.66646003473414L203.43333333333334,63.93425434512659L209.41666666666669,63.74843806582368L215.4,50.54645644873784L221.38333333333335,67.75729723345381L227.36666666666665,75.60400180969646L233.35,95.6541797641882L239.33333333333331,96.40969301961616L245.31666666666666,92.37441275007853L251.29999999999998,102.25199873310163L257.28333333333336,105.12148378617752L263.26666666666665,88.27525051827786L269.25,90.76976619540233L275.23333333333335,88.08409337528423L281.21666666666664,93.78842370529844L287.2,99.47241237274159L293.18333333333334,79.09044763769674L299.1666666666667,81.34903113596766L305.15,98.16234961778872L311.1333333333333,88.4090396970081L317.1166666666667,81.22597693543213L323.1,87.48399348967945L329.0833333333333,76.32707693342525L335.06666666666666,84.39875869479687L341.05,64.39028303064242L347.03333333333336,65.03811372208281L353.01666666666665,62.460148145613175L359,55.04802677624417L364.9833333333333,70.9305343978125L370.9666666666667,57.16432678615041L376.95,53.560137890638316L382.93333333333334,73.70668614290639L388.91666666666663,70.57681122630675L394.90000000000003,71.39656359085433L400.8833333333333,93.87035170324833L406.8666666666667,103.29186782329964L412.84999999999997,102.45166847758622L418.83333333333337,115.78766557970033L424.81666666666666,112.61637064455056L430.8,115.42289289020846L436.7833333333333,126.36695851794047L442.7666666666667,147.2309412116609L448.75,166.30713539748922L454.7333333333333,148.94350438373613L460.7166666666667,161.57906447385318L466.7,154.97376856526424L472.68333333333334,154.901528810386L478.66666666666663,181.36336071188776L484.65000000000003,196.6380491190885L490.6333333333333,220.9770295058929L496.6166666666667,236.22345857383277L502.59999999999997,233.80305615700163L508.58333333333337,207.3249342211298L514.5666666666667,201.6674872349627L520.55,205.40130197768968L526.5333333333333,213.75511630335785L532.5166666666667,231.72760718291602L538.5,237.66786069706444L544.4833333333333,247.22182206532574L550.4666666666667,253.73113459033502L556.45,250.52656453360757L562.4333333333333,259.2270241156795L568.4166666666666,253.57884845588077L574.4,252.6564216685502L580.3833333333333,248.57593617869665L586.3666666666667,251.2768977837756L592.35,240.40761189502447L598.3333333333334,257.857936756861L604.3166666666667,268.6512480062555L610.3,272.056308275897L616.2833333333333,271.9560056307546L622.2666666666667,275.2316582264681L628.25,272.29888115299815L634.2333333333333,268.6519170923416L640.2166666666667,283.482346473538L646.2,292.9659244706649L652.1833333333333,286.2188970604788L658.1666666666666,285.93455545808376L664.15,283.82609270486535L670.1333333333333,285.3939977420765L676.1166666666667,280.7716649239301L682.1,287.4438733236515L688.0833333333334,279.97307046362897L694.0666666666667,287.0209233432063L700.05,283.28810764515686L706.0333333333333,286.2464990640538L712.0166666666667,288.9823095664297L718,290.4479542681524L723.9833333333333,291.7592166384428L729.9666666666666,295.7746789713424L735.9499999999999,287.49073049186L741.9333333333334,289.6786498755713L747.9166666666667,283.84548841151593L753.9,289.68881937031745L759.8833333333333,288.63714116462944L765.8666666666667,291.21496649771257L771.85,290.4076903578003L777.8333333333333,295.35317334853767L783.8166666666666,294.3777813498566L789.8000000000001,295.49273943659L795.7833333333334,296.6941336162766L801.7666666666667,294.7893377821374L807.75,290.17775684033205L813.7333333333333,286.0114026021026L819.7166666666666,287.49445721066365L825.6999999999999,292.05065679881795L831.6833333333334,292.8834477489222L837.6666666666667,295.17417241782124L843.65,290.71646725773917L849.6333333333333,288.5642620348341L855.6166666666667,292.526420263106L861.6,288.7384245947924L867.5833333333333,290.1792002249316L873.5666666666666,291.30831514320107L879.5500000000001,290.10048351747594L885.5333333333334,293.7416793551314L891.5166666666667,297.48077402986695L897.5,301.87937823446157L903.4833333333333,295.8541092783902L909.4666666666666,291.7000850728568L915.4499999999999,262.90662867077685L921.4333333333334,277.00550719424183L927.4166666666667,287.42506423785744L933.4,295.1626545835701L939.3833333333333,288.43547715986773L945.3666666666667,286.63928529021143L951.35,296.90989894507527L957.3333333333333,297.71599480934856L963.3166666666666,298.04880086960145L969.3000000000001,299.74028775323484L975.2833333333334,300.37725210698875L981.2666666666667,295.89796929217835L987.25,299.46014810894405L993.2333333333333,293.52902165975854L999.2166666666666,297.88693766550233L1005.1999999999999,297.0265673131109L1011.1833333333334,299.80708055602673L1017.1666666666667,301.40232613403896L1023.15,297.8697662232476L1029.1333333333334,294.98048557508935L1035.1166666666666,295.2195307071146L1041.1,297.7604893739603L1047.0833333333333,295.6610493284811L1053.0666666666666,296.8968860818356L1059.05,296.3512573831325L1065.0333333333333,289.0646679278043L1071.0166666666667,296.4963750012712L1077,302.8166508007346L1082.9833333333333,301.6351785021006L1088.9666666666667,294.8055387426602L1094.95,298.8064499788992L1100.9333333333334,295.7144297849245L1106.9166666666667,301.08428224793715L1112.9,290.93051743281865L1118.8833333333334,298.76694615347975L1124.8666666666666,294.0214738199937L1130.85,300.2153069741921L1136.8333333333333,300.1149495023427L1142.8166666666666,307.6535075897239L1148.8,305.7400581296839L1154.7833333333333,303.6063482221399L1160.7666666666667,305.3805592071375L1166.75,305.6802731759167L1172.7333333333333,309.2314929467032L1178.7166666666667,298.7051066116446L1184.7,293.92222096508465L1190.6833333333334,298.81520597106646L1196.6666666666667,302.7341236410524L1202.65,306.54323874938405L1208.6333333333334,305.0358999820227L1214.6166666666666,305.25144488150926L1220.6,298.2741100060049L1226.5833333333333,291.49540905309334L1232.5666666666666,301.22668350951443L1238.55,296.1811678854619L1244.5333333333333,307.28090888845884L1250.5166666666667,303.4554822934447L1256.5,306.19045101361144L1262.4833333333333,308.98199614513914L1268.4666666666667,310.52597375663515L1274.45,308.98955466495397L1280.4333333333334,307.8377847561028L1286.4166666666667,309.83848702766215L1292.4,310.8987307830615L1298.3833333333334,312.37911221438424L1304.3666666666666,311.5018150429653L1310.35,312.86332363684335" style="fill: none;" fill="none"></path></g></g></g></g><g opacity="0.2"><g><g><g><path stroke="rgb(255, 112, 67)" stroke-width="2px" d="M119.66666666666666,47.444118574261665L125.64999999999999,30.335259452462196L131.63333333333333,33.217621609568596L137.61666666666667,105.16439826786518L143.6,61.82316617667675L149.58333333333334,66.55521655082703L155.56666666666666,98.3205776810646L161.55,53.88593302667141L167.53333333333333,84.91243274509907L173.51666666666668,134.91172568500042L179.5,88.74483333528042L185.48333333333335,48.2371941357851L191.46666666666667,62.82065959274769L197.45000000000002,55.333685517311096L203.43333333333334,62.83680649101734L209.41666666666669,63.469844698905945L215.4,30.749070659279823L221.38333333333335,93.56918857991695L227.36666666666665,87.37286330759525L233.35,125.72761403024197L239.33333333333331,97.54292146861553L245.31666666666666,86.3216251283884L251.29999999999998,117.06818269193172L257.28333333333336,109.42567737400532L263.26666666666665,63.00602035224438L269.25,94.51152907311916L275.23333333333335,84.05559101700783L281.21666666666664,102.34491044282913L287.2,107.99839013814926L293.18333333333334,48.517511799931526L299.1666666666667,84.73690563440323L305.15,123.38232399523258L311.1333333333333,73.77907598018646L317.1166666666667,70.45138330757618L323.1,96.87101805210114L329.0833333333333,59.59170238673687L335.06666666666666,96.50628121197224L341.05,34.37756972014904L347.03333333333336,66.00985975563526L353.01666666666665,58.59319978952408L359,43.92984473705292L364.9833333333333,94.75429581105709L370.9666666666667,36.5150153785944L376.95,48.15385454893112L382.93333333333334,103.92650851607323L388.91666666666663,65.88199885189533L394.90000000000003,72.62619213759899L400.8833333333333,127.58103387057781L406.8666666666667,117.42414200305939L412.84999999999997,101.19136945903301L418.83333333333337,135.79166123270988L424.81666666666666,107.85942824184895L430.8,119.6326762586832L436.7833333333333,142.78305695950985L442.7666666666667,178.5269152522087L448.75,194.92142667621374L454.7333333333333,122.89805786311626L460.7166666666667,180.53240460902452L466.7,145.0658247023821L472.68333333333334,154.79316917806867L478.66666666666663,221.05610856413838L484.65000000000003,219.5500817298889L490.6333333333333,257.4855000860989L496.6166666666667,259.0931021757424L502.59999999999997,230.17245253175497L508.58333333333337,167.60775131732225L514.5666666666667,193.18131675571203L520.55,211.00202409178016L526.5333333333333,226.28583779186008L532.5166666666667,258.6863435022533L538.5,246.578240968287L544.4833333333333,261.55276411771774L550.4666666666667,263.49510337784886L556.45,245.71970944851634L562.4333333333333,272.2777134887874L568.4166666666666,245.1065849661827L574.4,251.2727814875543L580.3833333333333,242.4552079439163L586.3666666666667,255.3283401913941L592.35,224.10368306189773L598.3333333333334,284.03342404961586L604.3166666666667,284.84121488034725L610.3,277.1638986803591L616.2833333333333,271.8055516630411L622.2666666666667,280.14513712003827L628.25,267.8997155427933L634.2333333333333,263.18147100135684L640.2166666666667,305.72799054533243L646.2,307.1912914663553L652.1833333333333,276.0983559451997L658.1666666666666,285.5080430544913L664.15,280.6633985750377L670.1333333333333,287.7458552978933L676.1166666666667,273.83816569671035L682.1,297.4521859232336L688.0833333333334,268.7668661735952L694.0666666666667,297.59270266257226L700.05,277.6888840980828L706.0333333333333,290.68408619239926L712.0166666666667,293.0860253199935L718,292.6464213207364L723.9833333333333,293.7261101938784L729.9666666666666,301.7978724706918L735.9499999999999,275.0648077726364L741.9333333333334,292.96052895113826L747.9166666666667,275.0957462154329L753.9,298.4538158085197L759.8833333333333,287.05962385609746L765.8666666666667,295.08170449733734L771.85,289.1967761479318L777.8333333333333,302.7713978346437L783.8166666666666,292.914693351835L789.8000000000001,297.1651765666902L795.7833333333334,298.49622488580644L801.7666666666667,291.9321440309286L807.75,283.260385427624L813.7333333333333,279.76187124475837L819.7166666666666,289.71903912350535L825.6999999999999,298.88495618104935L831.6833333333334,294.1326341740787L837.6666666666667,298.61025942116976L843.65,284.02990951761603L849.6333333333333,285.3359542004764L855.6166666666667,298.46965760551393L861.6,283.0564310923219L867.5833333333333,292.3403636701405L873.5666666666666,293.0019875206053L879.5500000000001,288.2887360788882L885.5333333333334,299.2034731116146L891.5166666666667,303.08941604197025L897.5,308.4772845413536L903.4833333333333,286.8162058442831L909.4666666666666,285.46904876455665L915.4499999999999,219.716444067657L921.4333333333334,298.1538249794394L927.4166666666667,303.05439980328083L933.4,306.7690401021391L939.3833333333333,278.34471102431417L945.3666666666667,283.9449974857271L951.35,312.315819427371L957.3333333333333,298.92513860575855L963.3166666666666,298.54800995998085L969.3000000000001,302.2775180786848L975.2833333333334,301.3326986376196L981.2666666666667,289.17904506996274L987.25,304.8034163340926L993.2333333333333,284.6323319859803L999.2166666666666,304.42381167411804L1005.1999999999999,295.7360117845237L1011.1833333333334,303.9778504204005L1017.1666666666667,303.79519450105727L1023.15,292.57092635706067L1029.1333333333334,290.64656460285187L1035.1166666666666,295.57809840515256L1041.1,301.57192737422884L1047.0833333333333,292.51188926026225L1053.0666666666666,298.75064121186733L1059.05,295.532814335078L1065.0333333333333,278.134783744812L1071.0166666666667,307.64393561147153L1077,312.29706449992955L1082.9833333333333,299.8629700541496L1088.9666666666667,284.56107910349965L1094.95,304.8078168332577L1100.9333333333334,291.0763994939625L1106.9166666666667,309.1390609424561L1112.9,275.69987021014094L1118.8833333333334,310.5215892344713L1124.8666666666666,286.9032653197646L1130.85,309.50605670548975L1136.8333333333333,299.96441329456866L1142.8166666666666,318.96134472079575L1148.8,302.86988393962383L1154.7833333333333,300.405783360824L1160.7666666666667,308.04187568463385L1166.75,306.12984412908554L1172.7333333333333,314.558322602883L1178.7166666666667,282.9155271090567L1184.7,286.74789249524474L1190.6833333333334,306.15468348003924L1196.6666666666667,308.6125001460314L1202.65,312.25691141188145L1208.6333333333334,302.7748918309808L1214.6166666666666,305.574762230739L1220.6,287.8081076927483L1226.5833333333333,281.32735762372613L1232.5666666666666,315.82359519414604L1238.55,288.612894449383L1244.5333333333333,323.93052039295435L1250.5166666666667,297.71734240092337L1256.5,310.2929040938616L1262.4833333333333,313.1693138424307L1268.4666666666667,312.84194017387927L1274.45,306.6849260274321L1280.4333333333334,306.1101298928261L1286.4166666666667,312.83954043500125L1292.4,312.48909641616046L1298.3833333333334,314.5996843613684L1304.3666666666666,310.1858692858368L1310.35,314.9055865276605" style="fill: none;" fill="none"></path></g></g></g></g></g></g><g transform="translate(60, 378)" clip-path="url(#clip_1)"><clipPath id="clip_1"><rect width="1436" height="22"></rect></clipPath><g><g><line x1="0" y1="0" x2="0" y2="5" style="visibility: inherit;" fill="rgb(0, 0, 0)" stroke="rgb(204, 204, 204)" stroke-width="1px"></line><line x1="119.66666666666666" y1="0" x2="119.66666666666666" y2="5" style="visibility: inherit;" fill="rgb(0, 0, 0)" stroke="rgb(204, 204, 204)" stroke-width="1px"></line><line x1="239.33333333333331" y1="0" x2="239.33333333333331" y2="5" style="visibility: inherit;" fill="rgb(0, 0, 0)" stroke="rgb(204, 204, 204)" stroke-width="1px"></line><line x1="359" y1="0" x2="359" y2="5" style="visibility: inherit;" fill="rgb(0, 0, 0)" stroke="rgb(204, 204, 204)" stroke-width="1px"></line><line x1="478.66666666666663" y1="0" x2="478.66666666666663" y2="5" style="visibility: inherit;" fill="rgb(0, 0, 0)" stroke="rgb(204, 204, 204)" stroke-width="1px"></line><line x1="598.3333333333334" y1="0" x2="598.3333333333334" y2="5" style="visibility: inherit;" fill="rgb(0, 0, 0)" stroke="rgb(204, 204, 204)" stroke-width="1px"></line><line x1="718" y1="0" x2="718" y2="5" style="visibility: inherit;" fill="rgb(0, 0, 0)" stroke="rgb(204, 204, 204)" stroke-width="1px"></line><line x1="837.6666666666667" y1="0" x2="837.6666666666667" y2="5" style="visibility: inherit;" fill="rgb(0, 0, 0)" stroke="rgb(204, 204, 204)" stroke-width="1px"></line><line x1="957.3333333333333" y1="0" x2="957.3333333333333" y2="5" style="visibility: inherit;" fill="rgb(0, 0, 0)" stroke="rgb(204, 204, 204)" stroke-width="1px"></line><line x1="1077" y1="0" x2="1077" y2="5" style="visibility: inherit;" fill="rgb(0, 0, 0)" stroke="rgb(204, 204, 204)" stroke-width="1px"></line><line x1="1196.6666666666667" y1="0" x2="1196.6666666666667" y2="5" style="visibility: inherit;" fill="rgb(0, 0, 0)" stroke="rgb(204, 204, 204)" stroke-width="1px"></line><line x1="1316.3333333333333" y1="0" x2="1316.3333333333333" y2="5" style="visibility: inherit;" fill="rgb(0, 0, 0)" stroke="rgb(204, 204, 204)" stroke-width="1px"></line><line x1="1436" y1="0" x2="1436" y2="5" style="visibility: inherit;" fill="rgb(0, 0, 0)" stroke="rgb(204, 204, 204)" stroke-width="1px"></line></g><g transform="translate(0, 8)"><text x="0" y="0" dx="0em" dy="0.95em" style="text-anchor: middle; visibility: hidden; font-family: &quot;Helvetica Neue&quot;, sans-serif; font-size: 12px; font-weight: 200;" fill="rgb(50, 49, 63)" stroke="none" stroke-width="1px">-20</text><text x="119.66666666666666" y="0" dx="0em" dy="0.95em" style="text-anchor: middle; visibility: inherit; font-family: &quot;Helvetica Neue&quot;, sans-serif; font-size: 12px; font-weight: 200;" fill="rgb(50, 49, 63)" stroke="none" stroke-width="1px">0</text><text x="239.33333333333331" y="0" dx="0em" dy="0.95em" style="text-anchor: middle; visibility: inherit; font-family: &quot;Helvetica Neue&quot;, sans-serif; font-size: 12px; font-weight: 200;" fill="rgb(50, 49, 63)" stroke="none" stroke-width="1px">20</text><text x="359" y="0" dx="0em" dy="0.95em" style="text-anchor: middle; visibility: inherit; font-family: &quot;Helvetica Neue&quot;, sans-serif; font-size: 12px; font-weight: 200;" fill="rgb(50, 49, 63)" stroke="none" stroke-width="1px">40</text><text x="478.66666666666663" y="0" dx="0em" dy="0.95em" style="text-anchor: middle; visibility: inherit; font-family: &quot;Helvetica Neue&quot;, sans-serif; font-size: 12px; font-weight: 200;" fill="rgb(50, 49, 63)" stroke="none" stroke-width="1px">60</text><text x="598.3333333333334" y="0" dx="0em" dy="0.95em" style="text-anchor: middle; visibility: inherit; font-family: &quot;Helvetica Neue&quot;, sans-serif; font-size: 12px; font-weight: 200;" fill="rgb(50, 49, 63)" stroke="none" stroke-width="1px">80</text><text x="718" y="0" dx="0em" dy="0.95em" style="text-anchor: middle; visibility: inherit; font-family: &quot;Helvetica Neue&quot;, sans-serif; font-size: 12px; font-weight: 200;" fill="rgb(50, 49, 63)" stroke="none" stroke-width="1px">100</text><text x="837.6666666666667" y="0" dx="0em" dy="0.95em" style="text-anchor: middle; visibility: inherit; font-family: &quot;Helvetica Neue&quot;, sans-serif; font-size: 12px; font-weight: 200;" fill="rgb(50, 49, 63)" stroke="none" stroke-width="1px">120</text><text x="957.3333333333333" y="0" dx="0em" dy="0.95em" style="text-anchor: middle; visibility: inherit; font-family: &quot;Helvetica Neue&quot;, sans-serif; font-size: 12px; font-weight: 200;" fill="rgb(50, 49, 63)" stroke="none" stroke-width="1px">140</text><text x="1077" y="0" dx="0em" dy="0.95em" style="text-anchor: middle; visibility: inherit; font-family: &quot;Helvetica Neue&quot;, sans-serif; font-size: 12px; font-weight: 200;" fill="rgb(50, 49, 63)" stroke="none" stroke-width="1px">160</text><text x="1196.6666666666667" y="0" dx="0em" dy="0.95em" style="text-anchor: middle; visibility: inherit; font-family: &quot;Helvetica Neue&quot;, sans-serif; font-size: 12px; font-weight: 200;" fill="rgb(50, 49, 63)" stroke="none" stroke-width="1px">180</text><text x="1316.3333333333333" y="0" dx="0em" dy="0.95em" style="text-anchor: middle; visibility: inherit; font-family: &quot;Helvetica Neue&quot;, sans-serif; font-size: 12px; font-weight: 200;" fill="rgb(50, 49, 63)" stroke="none" stroke-width="1px">200</text><text x="1436" y="0" dx="0em" dy="0.95em" style="text-anchor: middle; visibility: hidden; font-family: &quot;Helvetica Neue&quot;, sans-serif; font-size: 12px; font-weight: 200;" fill="rgb(50, 49, 63)" stroke="none" stroke-width="1px">220</text></g><line x1="0" y1="0" x2="1436" y2="0" fill="rgb(0, 0, 0)" stroke="rgb(204, 204, 204)" stroke-width="1px"></line></g></g></g></g></svg>