<svg viewBox="0 0 1496 400" xmlns="http://www.w3.org/2000/svg"><g><g><g><g><g><line x1="50" y1="378" x2="45" y2="378" style="visibility: inherit;" fill="rgb(0, 0, 0)" stroke="rgb(204, 204, 204)" stroke-width="1px"></line><line x1="50" y1="330.75" x2="45" y2="330.75" style="visibility: inherit;" fill="rgb(0, 0, 0)" stroke="rgb(204, 204, 204)" stroke-width="1px"></line><line x1="50" y1="283.5" x2="45" y2="283.5" style="visibility: inherit;" fill="rgb(0, 0, 0)" stroke="rgb(204, 204, 204)" stroke-width="1px"></line><line x1="50" y1="236.24999999999997" x2="45" y2="236.24999999999997" style="visibility: inherit;" fill="rgb(0, 0, 0)" stroke="rgb(204, 204, 204)" stroke-width="1px"></line><line x1="50" y1="188.99999999999997" x2="45" y2="188.99999999999997" style="visibility: inherit;" fill="rgb(0, 0, 0)" stroke="rgb(204, 204, 204)" stroke-width="1px"></line><line x1="50" y1="141.75" x2="45" y2="141.75" style="visibility: inherit;" fill="rgb(0, 0, 0)" stroke="rgb(204, 204, 204)" stroke-width="1px"></line><line x1="50" y1="94.5" x2="45" y2="94.5" style="visibility: inherit;" fill="rgb(0, 0, 0)" stroke="rgb(204, 204, 204)" stroke-width="1px"></line><line x1="50" y1="47.25" x2="45" y2="47.25" style="visibility: inherit;" fill="rgb(0, 0, 0)" stroke="rgb(204, 204, 204)" stroke-width="1px"></line><line x1="50" y1="0" x2="45" y2="0" style="visibility: inherit;" fill="rgb(0, 0, 0)" stroke="rgb(204, 204, 204)" stroke-width="1px"></line></g><g transform="translate(40, 0)"><text x="0" y="378" dx="0em" dy="0.3em" style="text-anchor: end; visibility: hidden; font-family: &quot;Helvetica Neue&quot;, sans-serif; font-size: 12px; font-weight: 200;" fill="rgb(50, 49, 63)" stroke="none" stroke-width="1px">-0.2</text><text x="0" y="330.75" dx="0em" dy="0.3em" style="text-anchor: end; visibility: inherit; font-family: &quot;Helvetica Neue&quot;, sans-serif; font-size: 12px; font-weight: 200;" fill="rgb(50, 49, 63)" stroke="none" stroke-width="1px">0</text><text x="0" y="283.5" dx="0em" dy="0.3em" style="text-anchor: end; visibility: inherit; font-family: &quot;Helvetica Neue&quot;, sans-serif; font-size: 12px; font-weight: 200;" fill="rgb(50, 49, 63)" stroke="none" stroke-width="1px">0.2</text><text x="0" y="236.24999999999997" dx="0em" dy="0.3em" style="text-anchor: end; visibility: inherit; font-family: &quot;Helvetica Neue&quot;, sans-serif; font-size: 12px; font-weight: 200;" fill="rgb(50, 49, 63)" stroke="none" stroke-width="1px">0.4</text><text x="0" y="188.99999999999997" dx="0em" dy="0.3em" style="text-anchor: end; visibility: inherit; font-family: &quot;Helvetica Neue&quot;, sans-serif; font-size: 12px; font-weight: 200;" fill="rgb(50, 49, 63)" stroke="none" stroke-width="1px">0.6</text><text x="0" y="141.75" dx="0em" dy="0.3em" style="text-anchor: end; visibility: inherit; font-family: &quot;Helvetica Neue&quot;, sans-serif; font-size: 12px; font-weight: 200;" fill="rgb(50, 49, 63)" stroke="none" stroke-width="1px">0.8</text><text x="0" y="94.5" dx="0em" dy="0.3em" style="text-anchor: end; visibility: inherit; font-family: &quot;Helvetica Neue&quot;, sans-serif; font-size: 12px; font-weight: 200;" fill="rgb(50, 49, 63)" stroke="none" stroke-width="1px">1</text><text x="0" y="47.25" dx="0em" dy="0.3em" style="text-anchor: end; visibility: inherit; font-family: &quot;Helvetica Neue&quot;, sans-serif; font-size: 12px; font-weight: 200;" fill="rgb(50, 49, 63)" stroke="none" stroke-width="1px">1.2</text><text x="0" y="0" dx="0em" dy="0.3em" style="text-anchor: end; visibility: hidden; font-family: &quot;Helvetica Neue&quot;, sans-serif; font-size: 12px; font-weight: 200;" fill="rgb(50, 49, 63)" stroke="none" stroke-width="1px">1.4</text></g><line x1="50" y1="0" x2="50" y2="378" fill="rgb(0, 0, 0)" stroke="rgb(204, 204, 204)" stroke-width="1px"></line></g></g><g transform="translate(50, 0)" clip-path="url(#clip_0)"><clipPath id="clip_0"><rect width="1446" height="378"></rect></clipPath><g><g><g><line x1="0" y1="0" x2="0" y2="378" fill="rgb(0, 0, 0)" stroke="rgb(60, 60, 60)" stroke-width="1px" opacity="0.25"></line><line x1="120.5" y1="0" x2="120.5" y2="378" fill="rgb(0, 0, 0)" stroke="rgb(60, 60, 60)" stroke-width="1px" opacity="0.25"></line><line x1="241" y1="0" x2="241" y2="378" fill="rgb(0, 0, 0)" stroke="rgb(60, 60, 60)" stroke-width="1px" opacity="0.25"></line><line x1="361.5" y1="0" x2="361.5" y2="378" fill="rgb(0, 0, 0)" stroke="rgb(60, 60, 60)" stroke-width="1px" opacity="0.25"></line><line x1="482" y1="0" x2="482" y2="378" fill="rgb(0, 0, 0)" stroke="rgb(60, 60, 60)" stroke-width="1px" opacity="0.25"></line><line x1="602.5" y1="0" x2="602.5" y2="378" fill="rgb(0, 0, 0)" stroke="rgb(60, 60, 60)" stroke-width="1px" opacity="0.25"></line><line x1="723" y1="0" x2="723" y2="378" fill="rgb(0, 0, 0)" stroke="rgb(60, 60, 60)" stroke-width="1px" opacity="0.25"></line><line x1="843.5" y1="0" x2="843.5" y2="378" fill="rgb(0, 0, 0)" stroke="rgb(60, 60, 60)" stroke-width="1px" opacity="0.25"></line><line x1="964" y1="0" x2="964" y2="378" fill="rgb(0, 0, 0)" stroke="rgb(60, 60, 60)" stroke-width="1px" opacity="0.25"></line><line x1="1084.5" y1="0" x2="1084.5" y2="378" fill="rgb(0, 0, 0)" stroke="rgb(60, 60, 60)" stroke-width="1px" opacity="0.25"></line><line x1="1205" y1="0" x2="1205" y2="378" fill="rgb(0, 0, 0)" stroke="rgb(60, 60, 60)" stroke-width="1px" opacity="0.25"></line><line x1="1325.5" y1="0" x2="1325.5" y2="378" fill="rgb(0, 0, 0)" stroke="rgb(60, 60, 60)" stroke-width="1px" opacity="0.25"></line><line x1="1446" y1="0" x2="1446" y2="378" fill="rgb(0, 0, 0)" stroke="rgb(60, 60, 60)" stroke-width="1px" opacity="0.25"></line></g><g><line x1="0" y1="378" x2="1446" y2="378" fill="rgb(0, 0, 0)" stroke="rgb(60, 60, 60)" stroke-width="1px" opacity="0.25"></line><line x1="0" y1="330.75" x2="1446" y2="330.75" fill="rgb(0, 0, 0)" stroke="rgb(60, 60, 60)" stroke-width="1px" opacity="0.25"></line><line x1="0" y1="283.5" x2="1446" y2="283.5" fill="rgb(0, 0, 0)" stroke="rgb(60, 60, 60)" stroke-width="1px" opacity="0.25"></line><line x1="0" y1="236.24999999999997" x2="1446" y2="236.24999999999997" fill="rgb(0, 0, 0)" stroke="rgb(60, 60, 60)" stroke-width="1px" opacity="0.25"></line><line x1="0" y1="188.99999999999997" x2="1446" y2="188.99999999999997" fill="rgb(0, 0, 0)" stroke="rgb(60, 60, 60)" stroke-width="1px" opacity="0.25"></line><line x1="0" y1="141.75" x2="1446" y2="141.75" fill="rgb(0, 0, 0)" stroke="rgb(60, 60, 60)" stroke-width="1px" opacity="0.25"></line><line x1="0" y1="94.5" x2="1446" y2="94.5" fill="rgb(0, 0, 0)" stroke="rgb(60, 60, 60)" stroke-width="1px" opacity="0.25"></line><line x1="0" y1="47.25" x2="1446" y2="47.25" fill="rgb(0, 0, 0)" stroke="rgb(60, 60, 60)" stroke-width="1px" opacity="0.25"></line><line x1="0" y1="0" x2="1446" y2="0" fill="rgb(0, 0, 0)" stroke="rgb(60, 60, 60)" stroke-width="1px" opacity="0.25"></line></g></g></g><g><g><line x1="0" y1="330.75" x2="1446" y2="330.75" fill="rgb(0, 0, 0)" stroke="rgb(153, 153, 153)" stroke-width="1.5px"></line></g></g><g><g><line x1="120.5" y1="0" x2="120.5" y2="378" fill="rgb(0, 0, 0)" stroke="rgb(153, 153, 153)" stroke-width="1.5px"></line></g></g><g><g><g><g><g><path stroke="rgb(255, 112, 67)" stroke-width="2px" d="M120.5,198.9154666364193L126.52499999999999,212.00828500371426L132.54999999999998,159.03046226607898L138.57500000000002,121.45790324154694L144.6,94.60154001882694L150.625,78.85378637693509L156.65,68.13266601513254L162.675,63.52095256867295L168.7,60.16125137144684L174.725,57.976279610293034L180.75,56.97723252143379L186.775,54.952064168735376L192.8,55.20032392993454L198.82500000000002,54.31275566559958L204.85,55.94010263502389L210.875,55.154197756355245L216.9,55.46014237805525L222.925,55.35753141655317L228.95,55.72492310280359L234.975,56.82531807848892L241,57.5963144875268L247.025,58.08311090906335L253.04999999999998,59.93490849479656L259.075,61.12236789785271L265.09999999999997,64.56623823990492L271.125,66.64994779756125L277.15000000000003,68.79302429869745L283.175,71.16359180181973L289.2,75.24697122806901L295.225,78.96383502300529L301.25,81.57110306166516L307.275,88.25298127390226L313.3,94.2831382344221L319.325,99.53467503275868L325.35,106.74031981151313L331.375,113.82977732175073L337.4,123.3621300819562L343.425,134.0270324961804L349.45,147.82964409782767L355.47499999999997,162.95912562481976L361.5,178.75089760897984L367.525,192.75777367001356L373.55,206.03258863621141L379.575,217.34108249164743L385.6,226.0816536126706L391.625,232.27919932214368L397.65000000000003,239.06164012283398L403.675,244.58385230571696L409.7,250.42675833096428L415.72499999999997,255.33549936531176L421.75,260.93461814476694L427.775,266.46667992148605L433.8,271.5521984954196L439.825,275.8953145420309L445.85,279.00487304930624L451.875,283.5599623051585L457.9,286.3116289140172L463.925,289.3359873525139L469.95,292.0703982714915L475.975,295.167917025334L482,297.27623581424143L488.02500000000003,298.6678361373233L494.05,299.9851438456528L500.075,301.3606878394635L506.09999999999997,302.06685998363804L512.125,303.07570644511884L518.15,304.28285686325495L524.175,304.65002020389716L530.1999999999999,305.49113711008954L536.225,306.0130973430844L542.25,306.4665029576344L548.275,307.2485409449591L554.3000000000001,306.90997994742116L560.325,307.5226515370686L566.35,307.7838116966533L572.375,308.4652810473947L578.4,308.7761174242025L584.425,308.516557195802L590.45,309.11031407655446L596.475,309.3805162678133L602.5,308.8657408316416L608.525,309.1309717318107L614.55,309.2090713833683L620.5749999999999,309.8421008977242L626.6,310.1802884760766L632.625,309.58348810066394L638.65,310.18567001753814L644.6750000000001,310.1429753239976L650.7,310.7333241871611L656.725,310.7052519334326L662.75,311.12786425429397L668.775,311.2742164769936L674.8,311.500932207058L680.825,311.4310344780088L686.85,310.5503219753266L692.875,310.56810696063997L698.9,311.09460587211584L704.925,311.2647494213768L710.9499999999999,311.71307104971936L716.975,311.55837551815466L723,311.5981498155782L729.025,311.2970540765696L735.05,311.6323491755887L741.0749999999999,312.0428477711239L747.1,311.95813011597147L753.125,312.1416426492962L759.15,311.9057829249342L765.175,311.95153825318454L771.2,311.74086671075605L777.225,312.18386373446214L783.25,312.19306496993204L789.275,312.20046067589817L795.3000000000001,311.7335349349934L801.325,311.83907866574873L807.35,311.7942772468778L813.375,312.09075422724203L819.4,312.1801615149684L825.425,312.4300181606952L831.4499999999999,312.1979068615761L837.475,312.3203972621993L843.5,312.41352124924873L849.525,312.46856201091657L855.55,312.5267263436273L861.575,312.3383612176153L867.6,312.535122497551L873.625,312.4191804341509L879.65,312.000838673087L885.6750000000001,312.4616161165965L891.7,312.3338534334798L897.725,312.5090656101405L903.75,312.8779912237644L909.775,312.7228877608072L915.8,313.0383356378431L921.8249999999999,313.18830755448073L927.85,313.2853293908878L933.875,312.9559718731489L939.9,312.6979944833187L945.925,312.9391945356469L951.95,313.1209618414545L957.975,313.23243229032187L964,312.7644300136901L970.025,312.5304119385146L976.0500000000001,312.76258607711566L982.075,312.5114691213141L988.1,312.8581482920271L994.125,313.1875940816535L1000.15,313.38858833279807L1006.175,313.361285162667L1012.1999999999999,313.4686107971964L1018.225,313.5475045905231L1024.25,313.4513395326268L1030.275,313.1390142386813L1036.3,313.2782360797023L1042.325,313.3578488676187L1048.35,313.03542261188846L1054.375,313.2426657512225L1060.3999999999999,313.39545646142585L1066.425,313.3986097422637L1072.45,313.37078672408444L1078.475,312.878289116975L1084.5,313.0261749914624L1090.525,313.22414661966786L1096.55,313.34250362827197L1102.575,313.2976227670241L1108.6000000000001,313.287983635475L1114.625,313.43372236827594L1120.65,313.5811398350571L1126.675,313.6754778309688L1132.7,313.5106355411723L1138.725,313.1857754484066L1144.75,313.39724161820106L1150.7749999999999,313.6282807832747L1156.8,313.74037244071303L1162.825,313.400666456072L1168.85,313.2523792769899L1174.875,313.4147141962582L1180.9,313.56567168693743L1186.925,313.67826487100723L1192.95,313.7811867131388L1198.9750000000001,313.53477462208843L1205,313.41311209769L1211.025,313.67525800762144L1217.05,313.4778463107202L1223.075,313.5859341732773L1229.1,313.5968438118465L1235.125,313.7812556590001L1241.1499999999999,313.67390274273515L1247.175,313.77666490013695L1253.2,313.81052230513274L1259.225,313.7534351361762L1265.25,313.42936877611106L1271.275,313.7147741747071L1277.3,313.8547928799492L1283.325,313.81039683337815L1289.3500000000001,313.75901572669034L1295.375,313.6151329585283L1301.4,313.76161575441773L1307.425,313.73560995236164L1313.45,313.7857400715359L1319.475,313.915310260803" style="fill: none;" fill="none"></path></g></g></g></g><g opacity="0.2"><g><g><g><path stroke="rgb(255, 112, 67)" stroke-width="2px" d="M120.5,198.9154666364193L126.52499999999999,219.86397602409124L132.54999999999998,108.17175243794918L138.57500000000002,77.2725738286972L144.6,59.537872195243835L150.625,57.068973898887634L156.65,52.80129235982895L162.675,56.797030091285706L168.7,55.206344693899155L174.725,54.7318511903286L180.75,55.48772317171097L186.775,51.92533251643181L192.8,55.571902960538864L198.82500000000002,52.98314210772514L204.85,58.37921020388603L210.875,53.97589471936226L216.9,55.91892984509468L222.925,55.20364102721214L228.95,56.27595466375351L234.975,58.47580996155739L241,58.75276681780815L247.025,58.813289523124695L253.04999999999998,62.71256831288338L259.075,62.903542935848236L265.09999999999997,69.73201927542686L271.125,69.7755032479763L277.15000000000003,72.00763356685638L283.175,74.7194394171238L289.2,81.37203660607338L295.225,84.5391286611557L301.25,85.48200425505638L307.275,98.27579726278782L313.3,103.32837295532227L319.325,107.4119798541069L325.35,117.54878666996956L331.375,124.46396340429783L337.4,137.66065907478333L343.425,150.02438601851463L349.45,168.5335614234209L355.47499999999997,185.65334786474705L361.5,202.4385555535555L367.525,213.76808774471283L373.55,225.94481107592583L379.575,234.30382326990366L385.6,239.192510291934L391.625,241.57551788538694L397.65000000000003,249.23530132323503L403.675,252.86717057973146L409.7,259.1911173686385L415.72499999999997,262.69861091673374L421.75,269.3332963138819L427.775,274.7647725865245L433.8,279.18047635629773L439.825,282.40998861193657L445.85,283.6692108102143L451.875,290.39259618893266L457.9,290.43912882730365L463.925,293.87252501025796L469.95,296.1720146499574L475.975,299.8141951560974L482,300.43871399760246L488.02500000000003,300.7552366219461L494.05,301.961105408147L500.075,303.4240038301796L506.09999999999997,303.1261181998998L512.125,304.58897613734007L518.15,306.0935824904591L524.175,305.20076521486044L530.1999999999999,306.7528124693781L536.225,306.79603769257665L542.25,307.1466113794595L548.275,308.4215979259461L554.3000000000001,306.4021384511143L560.325,308.4416589215398L566.35,308.1755519360304L572.375,309.48748507350683L578.4,309.2423719894141L584.425,308.1272168532014L590.45,310.00094939768314L596.475,309.78581955470145L602.5,308.093577677384L608.525,309.5288180820644L614.55,309.3262208607048L620.5749999999999,310.7916451692581L626.6,310.68756984360516L632.625,308.68828753754497L638.65,311.08894289284945L644.6750000000001,310.07893328368664L650.7,311.6188474819064L656.725,310.66314355283976L662.75,311.76178273558617L668.775,311.49374481104314L674.8,311.84100580215454L680.825,311.32618788443506L686.85,309.2292532213032L692.875,310.5947844386101L698.9,311.8843542393297L704.925,311.5199647452682L710.9499999999999,312.38555349223316L716.975,311.32633222080767L723,311.6578112617135L729.025,310.8454104680568L735.05,312.1352918241173L741.0749999999999,312.6585956644267L747.1,311.83105363324285L753.125,312.41691144928336L759.15,311.5519933383912L765.175,312.02017124556005L771.2,311.4248593971133L777.225,312.8483592700213L783.25,312.2068668231368L789.275,312.2115542348474L795.3000000000001,311.0331463236362L801.325,311.9973942618817L807.35,311.7270751185715L813.375,312.53546969778836L819.4,312.3142724465579L825.425,312.8048031292856L831.4499999999999,311.84973991289735L837.475,312.50413286313415L843.5,312.5532072298229L849.525,312.5511231534183L855.55,312.61397284269333L861.575,312.05581352859735L867.6,312.8302644174546L873.625,312.24526733905077L879.65,311.37332603149116L885.6750000000001,313.1527822818607L891.7,312.1422094088048L897.725,312.7718838751316L903.75,313.4313796442002L909.775,312.49023256637156L915.8,313.5115074533969L921.8249999999999,313.41326542943716L927.85,313.4308621454984L933.875,312.46193559654057L939.9,312.3110283985734L945.925,313.3009946141392L951.95,313.393612800166L957.975,313.3996379636228L964,312.0624265987426L970.025,312.1793848257512L976.0500000000001,313.11084728501737L982.075,312.1347936876118L988.1,313.37816704809666L994.125,313.681762766093L1000.15,313.690079709515L1006.175,313.32033040747046L1012.1999999999999,313.6295992489904L1018.225,313.66584528051317L1024.25,313.3070919457823L1030.275,312.670526297763L1036.3,313.48706884123385L1042.325,313.47726804949343L1048.35,312.55178322829306L1054.375,313.55353046022356L1060.3999999999999,313.6246425267309L1066.425,313.40333966352046L1072.45,313.3290521968156L1078.475,312.13954270631075L1084.5,313.24800380319357L1090.525,313.5211040619761L1096.55,313.52003914117813L1102.575,313.2303014751524L1108.6000000000001,313.27352493815124L1114.625,313.65233046747744L1120.65,313.80226603522897L1126.675,313.81698482483625L1132.7,313.2633721064776L1138.725,312.6984853092581L1144.75,313.71444087289274L1150.7749999999999,313.9748395308852L1156.8,313.90850992687047L1162.825,312.89110747911036L1168.85,313.02994850836694L1174.875,313.6582165751606L1180.9,313.79210792295635L1186.925,313.8471546471119L1192.95,313.93556947633624L1198.9750000000001,313.16515648551285L1205,313.23061831109226L1211.025,314.06847687251866L1217.05,313.18172876536846L1223.075,313.7480659671128L1229.1,313.6132082697004L1235.125,314.05787342973053L1241.1499999999999,313.51287336833775L1247.175,313.93080813623965L1253.2,313.8613084126264L1259.225,313.66780438274145L1265.25,312.9432692360133L1271.275,314.1428822726011L1277.3,314.0648209378123L1283.325,313.74380276352167L1289.3500000000001,313.6819440666586L1295.375,313.39930880628526L1301.4,313.98133994825184L1307.425,313.6966012492776L1313.45,313.8609352502972L1319.475,314.1096655447036" style="fill: none;" fill="none"></path></g></g></g></g></g></g><g transform="translate(50, 378)" clip-path="url(#clip_1)"><clipPath id="clip_1"><rect width="1446" height="22"></rect></clipPath><g><g><line x1="0" y1="0" x2="0" y2="5" style="visibility: inherit;" fill="rgb(0, 0, 0)" stroke="rgb(204, 204, 204)" stroke-width="1px"></line><line x1="120.5" y1="0" x2="120.5" y2="5" style="visibility: inherit;" fill="rgb(0, 0, 0)" stroke="rgb(204, 204, 204)" stroke-width="1px"></line><line x1="241" y1="0" x2="241" y2="5" style="visibility: inherit;" fill="rgb(0, 0, 0)" stroke="rgb(204, 204, 204)" stroke-width="1px"></line><line x1="361.5" y1="0" x2="361.5" y2="5" style="visibility: inherit;" fill="rgb(0, 0, 0)" stroke="rgb(204, 204, 204)" stroke-width="1px"></line><line x1="482" y1="0" x2="482" y2="5" style="visibility: inherit;" fill="rgb(0, 0, 0)" stroke="rgb(204, 204, 204)" stroke-width="1px"></line><line x1="602.5" y1="0" x2="602.5" y2="5" style="visibility: inherit;" fill="rgb(0, 0, 0)" stroke="rgb(204, 204, 204)" stroke-width="1px"></line><line x1="723" y1="0" x2="723" y2="5" style="visibility: inherit;" fill="rgb(0, 0, 0)" stroke="rgb(204, 204, 204)" stroke-width="1px"></line><line x1="843.5" y1="0" x2="843.5" y2="5" style="visibility: inherit;" fill="rgb(0, 0, 0)" stroke="rgb(204, 204, 204)" stroke-width="1px"></line><line x1="964" y1="0" x2="964" y2="5" style="visibility: inherit;" fill="rgb(0, 0, 0)" stroke="rgb(204, 204, 204)" stroke-width="1px"></line><line x1="1084.5" y1="0" x2="1084.5" y2="5" style="visibility: inherit;" fill="rgb(0, 0, 0)" stroke="rgb(204, 204, 204)" stroke-width="1px"></line><line x1="1205" y1="0" x2="1205" y2="5" style="visibility: inherit;" fill="rgb(0, 0, 0)" stroke="rgb(204, 204, 204)" stroke-width="1px"></line><line x1="1325.5" y1="0" x2="1325.5" y2="5" style="visibility: inherit;" fill="rgb(0, 0, 0)" stroke="rgb(204, 204, 204)" stroke-width="1px"></line><line x1="1446" y1="0" x2="1446" y2="5" style="visibility: inherit;" fill="rgb(0, 0, 0)" stroke="rgb(204, 204, 204)" stroke-width="1px"></line></g><g transform="translate(0, 8)"><text x="0" y="0" dx="0em" dy="0.95em" style="text-anchor: middle; visibility: hidden; font-family: &quot;Helvetica Neue&quot;, sans-serif; font-size: 12px; font-weight: 200;" fill="rgb(50, 49, 63)" stroke="none" stroke-width="1px">-20</text><text x="120.5" y="0" dx="0em" dy="0.95em" style="text-anchor: middle; visibility: inherit; font-family: &quot;Helvetica Neue&quot;, sans-serif; font-size: 12px; font-weight: 200;" fill="rgb(50, 49, 63)" stroke="none" stroke-width="1px">0</text><text x="241" y="0" dx="0em" dy="0.95em" style="text-anchor: middle; visibility: inherit; font-family: &quot;Helvetica Neue&quot;, sans-serif; font-size: 12px; font-weight: 200;" fill="rgb(50, 49, 63)" stroke="none" stroke-width="1px">20</text><text x="361.5" y="0" dx="0em" dy="0.95em" style="text-anchor: middle; visibility: inherit; font-family: &quot;Helvetica Neue&quot;, sans-serif; font-size: 12px; font-weight: 200;" fill="rgb(50, 49, 63)" stroke="none" stroke-width="1px">40</text><text x="482" y="0" dx="0em" dy="0.95em" style="text-anchor: middle; visibility: inherit; font-family: &quot;Helvetica Neue&quot;, sans-serif; font-size: 12px; font-weight: 200;" fill="rgb(50, 49, 63)" stroke="none" stroke-width="1px">60</text><text x="602.5" y="0" dx="0em" dy="0.95em" style="text-anchor: middle; visibility: inherit; font-family: &quot;Helvetica Neue&quot;, sans-serif; font-size: 12px; font-weight: 200;" fill="rgb(50, 49, 63)" stroke="none" stroke-width="1px">80</text><text x="723" y="0" dx="0em" dy="0.95em" style="text-anchor: middle; visibility: inherit; font-family: &quot;Helvetica Neue&quot;, sans-serif; font-size: 12px; font-weight: 200;" fill="rgb(50, 49, 63)" stroke="none" stroke-width="1px">100</text><text x="843.5" y="0" dx="0em" dy="0.95em" style="text-anchor: middle; visibility: inherit; font-family: &quot;Helvetica Neue&quot;, sans-serif; font-size: 12px; font-weight: 200;" fill="rgb(50, 49, 63)" stroke="none" stroke-width="1px">120</text><text x="964" y="0" dx="0em" dy="0.95em" style="text-anchor: middle; visibility: inherit; font-family: &quot;Helvetica Neue&quot;, sans-serif; font-size: 12px; font-weight: 200;" fill="rgb(50, 49, 63)" stroke="none" stroke-width="1px">140</text><text x="1084.5" y="0" dx="0em" dy="0.95em" style="text-anchor: middle; visibility: inherit; font-family: &quot;Helvetica Neue&quot;, sans-serif; font-size: 12px; font-weight: 200;" fill="rgb(50, 49, 63)" stroke="none" stroke-width="1px">160</text><text x="1205" y="0" dx="0em" dy="0.95em" style="text-anchor: middle; visibility: inherit; font-family: &quot;Helvetica Neue&quot;, sans-serif; font-size: 12px; font-weight: 200;" fill="rgb(50, 49, 63)" stroke="none" stroke-width="1px">180</text><text x="1325.5" y="0" dx="0em" dy="0.95em" style="text-anchor: middle; visibility: inherit; font-family: &quot;Helvetica Neue&quot;, sans-serif; font-size: 12px; font-weight: 200;" fill="rgb(50, 49, 63)" stroke="none" stroke-width="1px">200</text><text x="1446" y="0" dx="0em" dy="0.95em" style="text-anchor: middle; visibility: hidden; font-family: &quot;Helvetica Neue&quot;, sans-serif; font-size: 12px; font-weight: 200;" fill="rgb(50, 49, 63)" stroke="none" stroke-width="1px">220</text></g><line x1="0" y1="0" x2="1446" y2="0" fill="rgb(0, 0, 0)" stroke="rgb(204, 204, 204)" stroke-width="1px"></line></g></g></g></g></svg>