<?xml version="1.0" encoding="utf-8" standalone="no"?>
<!DOCTYPE svg PUBLIC "-//W3C//DTD SVG 1.1//EN"
  "http://www.w3.org/Graphics/SVG/1.1/DTD/svg11.dtd">
<!-- Created with matplotlib (https://matplotlib.org/) -->
<svg height="288pt" version="1.1" viewBox="0 0 720 288" width="720pt" xmlns="http://www.w3.org/2000/svg" xmlns:xlink="http://www.w3.org/1999/xlink">
 <metadata>
  <rdf:RDF xmlns:cc="http://creativecommons.org/ns#" xmlns:dc="http://purl.org/dc/elements/1.1/" xmlns:rdf="http://www.w3.org/1999/02/22-rdf-syntax-ns#">
   <cc:Work>
    <dc:type rdf:resource="http://purl.org/dc/dcmitype/StillImage"/>
    <dc:date>2020-11-06T23:44:47.522662</dc:date>
    <dc:format>image/svg+xml</dc:format>
    <dc:creator>
     <cc:Agent>
      <dc:title>Matplotlib v3.3.2, https://matplotlib.org/</dc:title>
     </cc:Agent>
    </dc:creator>
   </cc:Work>
  </rdf:RDF>
 </metadata>
 <defs>
  <style type="text/css">*{stroke-linecap:butt;stroke-linejoin:round;}</style>
 </defs>
 <g id="figure_1">
  <g id="patch_1">
   <path d="M 0 288 
L 720 288 
L 720 0 
L 0 0 
z
" style="fill:#ffffff;"/>
  </g>
  <g id="axes_1">
   <g id="line2d_1">
    <path clip-path="url(#p6eec6ad74d)" d="M 148.210247 224.119 
L 143.245443 222.142996 
L 136.477652 219.694162 
L 128.397636 217.027274 
L 119.670365 214.393615 
L 111.585546 212.171179 
L 104.512613 210.463853 
L 98.791873 209.340072 
L 94.138577 208.665515 
L 89.282362 208.241723 
L 84.714072 208.12868 
L 80.043304 208.303919 
L 76.25998 208.657224 
L 71.634229 209.342217 
L 67.8287 210.118953 
L 64.232298 211.044579 
L 60.875349 212.101522 
L 57.262905 213.495143 
L 54.568977 214.757902 
L 51.686139 216.40033 
L 49.913972 217.618716 
L 47.845759 219.349354 
L 46.482175 220.794658 
L 45.590739 222.000132 
L 44.96004 223.153732 
L 44.577373 224.334434 
L 44.509091 224.9422 
L 44.610023 225.792998 
L 44.778698 226.227698 
L 45.456774 227.078579 
L 46.846524 227.883892 
L 48.524287 228.391371 
L 50.80514 228.779045 
L 53.655459 229.041416 
L 58.173691 229.217969 
L 64.648714 229.216918 
L 73.117872 228.960291 
L 81.544259 228.482196 
L 89.203819 227.849644 
L 98.414799 226.852824 
L 114.218624 225.07648 
L 121.152195 224.53585 
L 127.495536 224.249142 
L 133.210007 224.171821 
L 140.66297 224.304206 
L 148.181571 224.625791 
L 148.181571 224.625791 
" style="fill:none;stroke:#000000;stroke-linecap:square;stroke-opacity:0.7;stroke-width:1.2;"/>
   </g>
   <g id="line2d_2">
    <path clip-path="url(#p6eec6ad74d)" d="M 148.013546 185.330038 
L 141.609942 183.815272 
L 133.607912 182.156276 
L 126.068726 180.847538 
L 119.938257 180.015695 
L 114.330624 179.483931 
L 108.484172 179.194841 
L 102.837175 179.16853 
L 95.683656 179.411304 
L 64.757932 181.050777 
L 58.705283 181.575851 
L 54.007553 182.236333 
L 50.995764 182.855462 
L 48.584418 183.536843 
L 47.138792 184.084188 
L 45.625563 184.90298 
L 44.920833 185.539188 
L 44.666154 185.961265 
L 44.57888 186.43962 
L 44.670938 186.841039 
L 44.980229 187.319264 
L 45.677606 187.915392 
L 47.326291 188.776842 
L 48.88961 189.35604 
L 52.018081 190.229598 
L 54.798729 190.831493 
L 60.184902 191.726568 
L 64.957906 192.312808 
L 71.429313 192.867864 
L 77.351079 193.159819 
L 84.020777 193.24707 
L 90.271973 193.08987 
L 96.339857 192.711173 
L 102.573729 192.100189 
L 110.292772 191.087509 
L 121.830992 189.293731 
L 134.011889 187.451192 
L 144.460242 186.111677 
L 148.024234 185.690048 
L 148.024234 185.690048 
" style="fill:none;stroke:#000000;stroke-linecap:square;stroke-opacity:0.7;stroke-width:1.2;"/>
   </g>
   <g id="line2d_3">
    <path clip-path="url(#p6eec6ad74d)" d="M 147.959017 145.853548 
L 140.983114 145.076434 
L 125.829939 143.664489 
L 116.494256 142.715762 
L 109.407491 141.780589 
L 102.013955 140.558258 
L 88.710359 138.272052 
L 83.397967 137.603269 
L 78.025664 137.190465 
L 73.135159 137.091908 
L 69.504615 137.210903 
L 66.254202 137.469855 
L 62.657938 137.941073 
L 59.184452 138.604531 
L 56.070355 139.404888 
L 53.292453 140.322739 
L 50.521148 141.497115 
L 48.70844 142.471075 
L 46.930253 143.700414 
L 45.763677 144.821319 
L 45.125268 145.769923 
L 44.878748 146.520551 
L 44.907966 147.242412 
L 45.098478 147.6993 
L 45.581892 148.265445 
L 46.409478 148.811369 
L 47.935099 149.403861 
L 49.810126 149.851254 
L 53.599261 150.379485 
L 58.583665 150.741776 
L 65.43137 150.951413 
L 73.814742 150.936882 
L 82.094892 150.679484 
L 89.967327 150.193117 
L 97.508575 149.496629 
L 109.974458 148.056942 
L 120.268297 146.96707 
L 127.179253 146.451851 
L 134.288689 146.169892 
L 140.790116 146.131781 
L 147.955144 146.278104 
L 147.955144 146.278104 
" style="fill:none;stroke:#000000;stroke-linecap:square;stroke-opacity:0.7;stroke-width:1.2;"/>
   </g>
   <g id="line2d_4">
    <path clip-path="url(#p6eec6ad74d)" d="M 148.001141 106.066642 
L 139.788283 104.503614 
L 119.888682 100.767687 
L 111.522919 98.931875 
L 98.16028 95.910922 
L 93.664089 95.120884 
L 88.879982 94.522227 
L 84.528672 94.222245 
L 80.586685 94.157542 
L 77.292775 94.253393 
L 73.29144 94.551823 
L 68.560468 95.16613 
L 65.094022 95.807557 
L 60.980995 96.808163 
L 57.946795 97.746122 
L 55.101292 98.820458 
L 52.9475 99.793803 
L 50.164318 101.333788 
L 48.378609 102.572627 
L 46.887099 103.875413 
L 45.754318 105.239963 
L 45.324617 106.039209 
L 45.106001 107.02084 
L 45.243889 107.720169 
L 45.514077 108.156238 
L 46.176042 108.712925 
L 47.372115 109.246251 
L 49.400715 109.723166 
L 51.550955 109.999805 
L 55.93532 110.263815 
L 62.165242 110.334454 
L 70.810332 110.158293 
L 80.085545 109.750892 
L 90.201022 109.083648 
L 103.171315 107.966779 
L 115.106747 107.009055 
L 122.738964 106.59551 
L 130.88609 106.381112 
L 139.266898 106.388084 
L 148.01088 106.549265 
L 148.01088 106.549265 
" style="fill:none;stroke:#000000;stroke-linecap:square;stroke-opacity:0.7;stroke-width:1.2;"/>
   </g>
   <g id="line2d_5">
    <path clip-path="url(#p6eec6ad74d)" d="M 147.738217 67.116101 
L 141.912381 66.610095 
L 132.213707 65.997536 
L 108.528629 64.61057 
L 101.678659 63.894421 
L 93.379923 62.782734 
L 82.919537 61.380767 
L 77.443706 60.865987 
L 72.722354 60.648677 
L 68.593536 60.678928 
L 64.414683 60.952993 
L 60.558212 61.447927 
L 57.326815 62.061346 
L 54.470066 62.777317 
L 51.611048 63.699123 
L 48.95742 64.834143 
L 47.327455 65.804646 
L 46.554287 66.473704 
L 46.09253 67.201855 
L 46.06289 67.711543 
L 46.261689 68.115128 
L 46.661178 68.481184 
L 47.690701 68.990591 
L 49.575043 69.505065 
L 52.575086 69.972859 
L 57.277518 70.377865 
L 63.090258 70.627007 
L 71.15427 70.724868 
L 80.362842 70.59748 
L 89.981018 70.225545 
L 100.329175 69.573107 
L 122.172003 68.088155 
L 131.720124 67.726508 
L 143.392268 67.538426 
L 147.771093 67.493901 
L 147.771093 67.493901 
" style="fill:none;stroke:#000000;stroke-linecap:square;stroke-opacity:0.7;stroke-width:1.2;"/>
   </g>
   <g id="line2d_6">
    <path clip-path="url(#p6eec6ad74d)" d="M 279.701765 225.069057 
L 272.662946 224.699421 
L 256.99124 223.955134 
L 251.057497 223.402712 
L 246.916284 222.800776 
L 243.38491 222.098091 
L 239.537887 221.11124 
L 236.252965 220.094101 
L 231.6698 218.469771 
L 220.85678 214.46871 
L 216.247394 213.059077 
L 212.675618 212.201246 
L 209.474505 211.638111 
L 206.051506 211.271074 
L 202.787304 211.16108 
L 199.303752 211.315834 
L 196.293333 211.689245 
L 193.989524 212.135938 
L 190.63576 213.061529 
L 188.342325 213.90766 
L 185.60784 215.188395 
L 183.438337 216.467065 
L 181.59246 217.799143 
L 179.733899 219.471373 
L 178.927048 220.35557 
L 178.002356 221.568287 
L 177.052478 223.281302 
L 176.778811 224.02397 
L 176.541848 225.223846 
L 176.583066 226.229678 
L 176.749222 226.845318 
L 177.087463 227.507966 
L 177.933998 228.41305 
L 178.458133 228.776374 
L 180.127797 229.532297 
L 181.783921 229.982505 
L 184.455236 230.412612 
L 188.130732 230.69545 
L 192.558015 230.780676 
L 198.57804 230.63433 
L 205.390118 230.227121 
L 213.56974 229.492643 
L 226.442165 228.034763 
L 236.331128 226.992229 
L 245.014099 226.298385 
L 253.722313 225.832929 
L 263.117504 225.568062 
L 276.40308 225.468984 
L 279.74101 225.457452 
L 279.74101 225.457452 
" style="fill:none;stroke:#000000;stroke-linecap:square;stroke-opacity:0.7;stroke-width:1.2;"/>
   </g>
   <g id="line2d_7">
    <path clip-path="url(#p6eec6ad74d)" d="M 279.825805 185.257231 
L 275.455047 183.633357 
L 268.381824 181.264778 
L 261.713409 179.251248 
L 254.019389 177.176418 
L 247.550172 175.646666 
L 240.802054 174.281616 
L 235.32075 173.374515 
L 229.556258 172.657276 
L 224.395774 172.258737 
L 219.62691 172.117868 
L 215.320466 172.185039 
L 210.586609 172.469641 
L 205.763402 172.981648 
L 200.516815 173.794821 
L 195.733644 174.789283 
L 191.641675 175.870293 
L 187.710886 177.17113 
L 184.680696 178.416859 
L 182.319098 179.598666 
L 179.977051 181.051289 
L 178.471411 182.234279 
L 177.300861 183.427264 
L 176.371998 184.887802 
L 176.148631 185.626149 
L 176.17227 186.570104 
L 176.381992 187.101373 
L 176.817976 187.67144 
L 177.958764 188.474674 
L 179.744446 189.170756 
L 182.099665 189.721956 
L 185.724903 190.225979 
L 190.957306 190.607684 
L 197.479259 190.785282 
L 204.85322 190.740076 
L 213.097716 190.456528 
L 221.46136 189.943529 
L 230.24116 189.18802 
L 254.795833 186.907465 
L 264.163888 186.333848 
L 277.744064 185.773947 
L 279.766693 185.697844 
L 279.766693 185.697844 
" style="fill:none;stroke:#000000;stroke-linecap:square;stroke-opacity:0.7;stroke-width:1.2;"/>
   </g>
   <g id="line2d_8">
    <path clip-path="url(#p6eec6ad74d)" d="M 279.760871 145.984465 
L 273.647767 145.198629 
L 265.250542 144.333823 
L 257.034169 143.671782 
L 247.104768 143.10531 
L 234.902237 142.68589 
L 217.885702 142.09863 
L 205.622993 141.69453 
L 199.103703 141.721626 
L 194.080039 141.962365 
L 189.510932 142.404204 
L 184.995547 143.120006 
L 181.850255 143.860675 
L 179.108469 144.800911 
L 177.885989 145.411011 
L 177.029525 146.042426 
L 176.618245 146.615459 
L 176.564921 147.042875 
L 176.743424 147.433771 
L 177.085942 147.750428 
L 177.855241 148.150196 
L 178.495541 148.370234 
L 180.445747 148.802226 
L 182.954079 149.127693 
L 187.790535 149.466614 
L 195.405405 149.68838 
L 205.797104 149.740863 
L 218.931427 149.578898 
L 227.755775 149.270076 
L 237.566845 148.673418 
L 263.808813 146.888371 
L 273.73917 146.527987 
L 279.75957 146.379132 
L 279.75957 146.379132 
" style="fill:none;stroke:#000000;stroke-linecap:square;stroke-opacity:0.7;stroke-width:1.2;"/>
   </g>
   <g id="line2d_9">
    <path clip-path="url(#p6eec6ad74d)" d="M 279.935888 105.657608 
L 270.462918 104.39739 
L 243.545529 100.899332 
L 221.266784 97.67283 
L 214.979851 97.156969 
L 209.221297 96.956686 
L 204.333681 97.009457 
L 199.840243 97.256529 
L 195.207376 97.741884 
L 190.857714 98.462388 
L 187.37365 99.284674 
L 184.409818 100.222923 
L 181.428803 101.498263 
L 179.220319 102.80378 
L 177.994133 103.779731 
L 177.305815 104.482919 
L 176.739322 105.235298 
L 176.182244 106.48107 
L 176.084713 107.26042 
L 176.196523 108.03153 
L 176.500338 108.734074 
L 177.011917 109.422291 
L 177.983149 110.267986 
L 179.757573 111.277702 
L 182.069137 112.175383 
L 184.622095 112.900767 
L 187.910472 113.59914 
L 192.349502 114.27215 
L 196.934813 114.736568 
L 202.689381 115.060265 
L 209.03281 115.130328 
L 215.275362 114.931487 
L 221.190372 114.515279 
L 228.098986 113.78007 
L 235.415247 112.769198 
L 246.33282 110.994892 
L 263.668105 108.147722 
L 272.226841 106.96763 
L 279.966538 106.078401 
L 279.966538 106.078401 
" style="fill:none;stroke:#000000;stroke-linecap:square;stroke-opacity:0.7;stroke-width:1.2;"/>
   </g>
   <g id="line2d_10">
    <path clip-path="url(#p6eec6ad74d)" d="M 279.839153 66.559832 
L 274.143298 64.939507 
L 267.135306 63.147449 
L 259.20412 61.328331 
L 250.887818 59.663551 
L 243.728141 58.456643 
L 236.997193 57.547864 
L 231.392792 56.988679 
L 225.522389 56.623871 
L 219.519839 56.502324 
L 214.201182 56.609244 
L 208.223082 56.967099 
L 202.181913 57.592859 
L 196.752321 58.414271 
L 191.977564 59.392814 
L 188.459863 60.317194 
L 184.878777 61.503814 
L 182.608683 62.436797 
L 180.490639 63.497912 
L 178.815428 64.54943 
L 177.551012 65.590177 
L 176.617677 66.79442 
L 176.40366 67.67714 
L 176.600329 68.260816 
L 177.089241 68.731654 
L 177.910531 69.128409 
L 179.879522 69.582421 
L 182.851196 69.869467 
L 187.325812 70.023705 
L 196.064113 70.047953 
L 217.667631 69.803819 
L 227.765702 69.520418 
L 238.883145 68.969037 
L 263.728223 67.643957 
L 279.813105 66.998857 
L 279.813105 66.998857 
" style="fill:none;stroke:#000000;stroke-linecap:square;stroke-opacity:0.7;stroke-width:1.2;"/>
   </g>
   <g id="line2d_11">
    <path clip-path="url(#p6eec6ad74d)" d="M 411.702684 224.883874 
L 404.39053 223.604188 
L 391.957007 221.67918 
L 373.651839 219.09753 
L 363.282849 217.815699 
L 356.820702 217.22958 
L 351.19422 216.913841 
L 345.14582 216.795153 
L 339.466863 216.89457 
L 333.473872 217.228828 
L 328.299485 217.733517 
L 323.443996 218.444411 
L 319.199948 219.337041 
L 317.360141 219.836047 
L 313.994177 221.011214 
L 312.179981 221.857228 
L 310.845861 222.643298 
L 309.474747 223.743216 
L 308.680511 224.823873 
L 308.496355 225.510696 
L 308.524096 225.895054 
L 308.830271 226.536566 
L 309.320446 227.01034 
L 310.413166 227.625102 
L 311.958084 228.164499 
L 315.370079 228.90069 
L 318.536856 229.353103 
L 323.789382 229.879905 
L 330.071727 230.296225 
L 337.095954 230.558492 
L 344.59354 230.603246 
L 350.93084 230.417352 
L 357.992903 229.931093 
L 363.994095 229.300319 
L 375.541161 227.77535 
L 385.466627 226.513606 
L 392.241144 225.853262 
L 399.119646 225.423819 
L 406.309011 225.242111 
L 411.727242 225.249103 
L 411.727242 225.249103 
" style="fill:none;stroke:#000000;stroke-linecap:square;stroke-opacity:0.7;stroke-width:1.2;"/>
   </g>
   <g id="line2d_12">
    <path clip-path="url(#p6eec6ad74d)" d="M 411.614802 185.688865 
L 407.90225 183.97491 
L 403.226638 182.025722 
L 397.508602 179.904364 
L 392.345285 178.234027 
L 387.450124 176.876961 
L 382.89698 175.820258 
L 378.159206 174.930127 
L 373.888546 174.302815 
L 368.267566 173.712292 
L 362.705025 173.372505 
L 357.677276 173.26464 
L 351.774472 173.373432 
L 345.904308 173.729577 
L 339.766036 174.365061 
L 333.891952 175.234872 
L 328.651769 176.252222 
L 324.35517 177.289691 
L 319.813282 178.642084 
L 316.628232 179.802651 
L 313.434488 181.229987 
L 311.803808 182.119577 
L 309.752369 183.547761 
L 308.776135 184.55805 
L 308.399261 185.309845 
L 308.41362 185.820989 
L 308.698077 186.219131 
L 309.091575 186.46009 
L 310.122831 186.753784 
L 311.431591 186.900521 
L 314.461554 186.945084 
L 321.432717 186.67022 
L 335.618535 186.084943 
L 344.923794 185.924266 
L 390.083202 185.746873 
L 411.53972 186.128943 
L 411.53972 186.128943 
" style="fill:none;stroke:#000000;stroke-linecap:square;stroke-opacity:0.7;stroke-width:1.2;"/>
   </g>
   <g id="line2d_13">
    <path clip-path="url(#p6eec6ad74d)" d="M 411.878349 144.964732 
L 403.872974 143.449644 
L 391.834205 141.392192 
L 377.065397 139.090366 
L 366.928261 137.70094 
L 360.492591 137.01696 
L 354.440721 136.597442 
L 348.406018 136.429598 
L 342.784374 136.505171 
L 336.740781 136.839905 
L 330.886068 137.435121 
L 325.716617 138.225758 
L 321.259299 139.167066 
L 317.619165 140.1788 
L 314.28486 141.380732 
L 311.677055 142.605693 
L 310.157964 143.515655 
L 309.037151 144.363383 
L 308.131769 145.309802 
L 307.689857 146.144242 
L 307.639944 146.667784 
L 307.77424 147.075955 
L 308.058091 147.42068 
L 308.578026 147.764386 
L 309.675251 148.154034 
L 311.463263 148.470471 
L 314.730836 148.709367 
L 320.159697 148.787215 
L 329.845831 148.638269 
L 346.003438 148.143433 
L 354.763798 147.70391 
L 362.974538 147.068065 
L 387.028423 144.931087 
L 392.480076 144.734852 
L 398.290503 144.730138 
L 404.476834 144.950686 
L 411.873476 145.451018 
L 411.873476 145.451018 
" style="fill:none;stroke:#000000;stroke-linecap:square;stroke-opacity:0.7;stroke-width:1.2;"/>
   </g>
   <g id="line2d_14">
    <path clip-path="url(#p6eec6ad74d)" d="M 411.803801 105.84383 
L 405.139894 104.236085 
L 376.566722 97.547029 
L 364.402838 94.562327 
L 359.555368 93.599503 
L 354.998006 92.921219 
L 351.330863 92.561904 
L 346.643846 92.356504 
L 342.465463 92.411512 
L 337.950796 92.716413 
L 334.237952 93.156162 
L 330.462405 93.783416 
L 325.944837 94.795762 
L 321.427705 96.151516 
L 318.455865 97.286028 
L 315.422941 98.71426 
L 312.827834 100.24276 
L 311.17213 101.439526 
L 309.727535 102.712981 
L 308.885891 103.624079 
L 308.209242 104.533916 
L 307.536987 105.907434 
L 307.38407 106.753622 
L 307.450306 107.397229 
L 307.730265 108.029315 
L 308.315603 108.651221 
L 309.271373 109.210461 
L 310.602048 109.670869 
L 313.024045 110.142035 
L 316.024463 110.445302 
L 321.317589 110.657682 
L 327.786937 110.649778 
L 336.397701 110.387722 
L 346.052613 109.846887 
L 355.812163 109.066427 
L 381.580755 106.790842 
L 389.653793 106.381473 
L 397.730546 106.188275 
L 406.902057 106.19199 
L 411.811912 106.256147 
L 411.811912 106.256147 
" style="fill:none;stroke:#000000;stroke-linecap:square;stroke-opacity:0.7;stroke-width:1.2;"/>
   </g>
   <g id="line2d_15">
    <path clip-path="url(#p6eec6ad74d)" d="M 411.847284 65.806127 
L 405.6173 64.554091 
L 395.102441 62.656724 
L 381.742927 60.480555 
L 370.868227 58.895271 
L 362.771348 57.934436 
L 357.22512 57.471924 
L 351.516514 57.214196 
L 346.106762 57.195475 
L 340.510764 57.415427 
L 335.183678 57.860015 
L 330.487068 58.460037 
L 325.74334 59.296851 
L 321.146919 60.381887 
L 317.10887 61.629999 
L 314.590147 62.602299 
L 311.763057 63.968308 
L 309.930527 65.136838 
L 308.824013 66.127194 
L 308.328096 66.924986 
L 308.306202 67.403071 
L 308.4807 67.698062 
L 308.884401 67.964744 
L 309.859262 68.214356 
L 311.13736 68.305478 
L 314.040741 68.209894 
L 319.023536 67.754252 
L 340.435695 65.569242 
L 349.991715 64.908383 
L 368.814086 63.965113 
L 378.534162 63.592845 
L 385.235553 63.551248 
L 391.11461 63.741169 
L 397.189621 64.195894 
L 403.485041 64.93798 
L 410.545406 66.030783 
L 411.837017 66.25132 
L 411.837017 66.25132 
" style="fill:none;stroke:#000000;stroke-linecap:square;stroke-opacity:0.7;stroke-width:1.2;"/>
   </g>
   <g id="line2d_16">
    <path clip-path="url(#p6eec6ad74d)" d="M 543.453222 225.123686 
L 538.449311 224.004404 
L 531.669211 222.688076 
L 524.380344 221.475641 
L 517.400524 220.523206 
L 511.40064 219.898719 
L 504.843653 219.453228 
L 499.244131 219.267772 
L 491.178927 219.241377 
L 478.573726 219.472613 
L 468.2916 219.848985 
L 461.978371 220.278734 
L 456.446807 220.872053 
L 451.359647 221.666502 
L 447.892768 222.389168 
L 444.319583 223.351621 
L 441.799325 224.247092 
L 439.943379 225.17744 
L 439.284006 225.732149 
L 439.124953 226.135141 
L 439.254158 226.38594 
L 439.736962 226.641524 
L 440.906157 226.858266 
L 444.007799 226.94973 
L 449.978198 226.721465 
L 470.014154 225.738868 
L 478.438193 225.596324 
L 486.878076 225.684116 
L 506.357371 225.998162 
L 521.983532 225.946781 
L 538.787783 225.681007 
L 543.444471 225.551551 
L 543.444471 225.551551 
" style="fill:none;stroke:#000000;stroke-linecap:square;stroke-opacity:0.7;stroke-width:1.2;"/>
   </g>
   <g id="line2d_17">
    <path clip-path="url(#p6eec6ad74d)" d="M 543.656839 184.806036 
L 535.705038 184.056874 
L 521.523115 182.729753 
L 515.395135 181.919656 
L 510.451185 181.038484 
L 505.826851 179.974963 
L 501.113798 178.648123 
L 495.312784 176.777195 
L 486.91429 174.069551 
L 481.924157 172.735989 
L 478.886187 172.087748 
L 474.938959 171.461128 
L 471.737836 171.145581 
L 468.114147 171.008327 
L 464.253552 171.133422 
L 461.317634 171.429549 
L 457.815241 172.03431 
L 454.581792 172.871389 
L 452.57454 173.549609 
L 449.524221 174.865692 
L 447.844502 175.771872 
L 445.976128 176.976361 
L 444.155255 178.416777 
L 442.576945 179.984717 
L 441.627855 181.164215 
L 440.473198 183.126875 
L 440.002918 184.47134 
L 439.848712 185.505703 
L 439.911637 186.490065 
L 440.103109 187.154657 
L 440.313727 187.592921 
L 440.766011 188.219961 
L 441.393443 188.796989 
L 442.718173 189.565569 
L 444.292249 190.125703 
L 446.345353 190.584738 
L 448.802109 190.918739 
L 452.022426 191.156309 
L 456.510022 191.265773 
L 462.338983 191.173901 
L 469.601842 190.818398 
L 477.781121 190.188251 
L 487.746951 189.183018 
L 511.60271 186.638229 
L 520.852604 185.950587 
L 529.059974 185.549118 
L 539.466083 185.282328 
L 543.670772 185.224103 
L 543.670772 185.224103 
" style="fill:none;stroke:#000000;stroke-linecap:square;stroke-opacity:0.7;stroke-width:1.2;"/>
   </g>
   <g id="line2d_18">
    <path clip-path="url(#p6eec6ad74d)" d="M 543.533265 145.691436 
L 539.018793 144.660996 
L 531.40484 143.146843 
L 524.192005 141.917522 
L 517.087126 140.911798 
L 510.566536 140.199953 
L 504.700405 139.755065 
L 497.841356 139.463565 
L 489.694803 139.359542 
L 478.366522 139.469691 
L 470.241294 139.743356 
L 464.189485 140.141111 
L 458.14124 140.792615 
L 452.963749 141.621594 
L 448.550704 142.589541 
L 445.102168 143.580103 
L 443.373852 144.192176 
L 441.35543 145.078501 
L 439.911495 145.999808 
L 439.51055 146.508588 
L 439.503136 146.808513 
L 439.70297 147.030576 
L 440.028575 147.177731 
L 440.957577 147.343591 
L 442.32184 147.392411 
L 446.133462 147.208997 
L 470.105827 145.443442 
L 476.217121 145.290869 
L 483.551608 145.342412 
L 512.694853 145.934855 
L 543.506085 146.192475 
L 543.506085 146.192475 
" style="fill:none;stroke:#000000;stroke-linecap:square;stroke-opacity:0.7;stroke-width:1.2;"/>
   </g>
   <g id="line2d_19">
    <path clip-path="url(#p6eec6ad74d)" d="M 543.570145 106.182853 
L 537.582955 104.354411 
L 525.199629 100.866503 
L 507.16449 95.765522 
L 497.759202 93.165045 
L 493.231338 92.097247 
L 489.445977 91.36744 
L 485.195565 90.766733 
L 481.803066 90.469957 
L 477.813022 90.335049 
L 474.269514 90.408448 
L 470.678651 90.665735 
L 467.099126 91.105166 
L 463.511573 91.733946 
L 459.711814 92.621354 
L 456.577361 93.548061 
L 453.48365 94.669943 
L 450.245636 96.125155 
L 447.575963 97.618981 
L 445.775793 98.838579 
L 443.912149 100.370459 
L 442.491077 101.83804 
L 441.267187 103.534936 
L 440.615406 104.94228 
L 440.417896 105.763523 
L 440.417477 106.737367 
L 440.60856 107.368623 
L 440.909325 107.854061 
L 441.180368 108.143883 
L 442.290909 108.832476 
L 443.762538 109.280832 
L 445.54983 109.554924 
L 448.922484 109.738176 
L 453.387144 109.700522 
L 460.183296 109.404643 
L 473.378757 108.550561 
L 500.793447 106.705199 
L 510.225041 106.333218 
L 518.955449 106.200744 
L 528.228844 106.266122 
L 543.500992 106.617581 
L 543.500992 106.617581 
" style="fill:none;stroke:#000000;stroke-linecap:square;stroke-opacity:0.7;stroke-width:1.2;"/>
   </g>
   <g id="line2d_20">
    <path clip-path="url(#p6eec6ad74d)" d="M 543.540388 66.474897 
L 536.434252 65.715392 
L 524.22571 64.646924 
L 509.017182 63.30462 
L 502.002248 62.451882 
L 494.569946 61.305489 
L 482.533487 59.361019 
L 476.581747 58.657058 
L 471.904 58.327743 
L 468.348747 58.237148 
L 463.506201 58.366412 
L 459.586724 58.710134 
L 455.617499 59.3069 
L 452.217637 60.049233 
L 448.7194 61.085497 
L 446.370511 61.980382 
L 444.371899 62.914403 
L 442.665765 63.894785 
L 441.198037 64.963913 
L 440.079323 66.077539 
L 439.624259 66.729838 
L 439.234751 67.860001 
L 439.287037 68.500052 
L 439.547818 69.065714 
L 439.988063 69.55867 
L 440.859778 70.142168 
L 442.384755 70.75511 
L 444.383637 71.255361 
L 447.525722 71.742748 
L 452.147563 72.147717 
L 458.155799 72.389127 
L 464.963108 72.424453 
L 472.148041 72.253449 
L 480.489881 71.812657 
L 488.548389 71.152253 
L 499.071094 70.026786 
L 517.216152 68.025429 
L 525.004631 67.408043 
L 532.761133 67.030645 
L 541.137522 66.872636 
L 543.547436 66.863687 
L 543.547436 66.863687 
" style="fill:none;stroke:#000000;stroke-linecap:square;stroke-opacity:0.7;stroke-width:1.2;"/>
   </g>
   <g id="line2d_21">
    <path clip-path="url(#p6eec6ad74d)" d="M 675.335628 224.97299 
L 669.288746 223.516453 
L 660.84599 221.693505 
L 652.452293 220.112468 
L 645.53942 219.023825 
L 638.48604 218.16233 
L 632.492826 217.652691 
L 625.516791 217.31253 
L 618.44868 217.209618 
L 610.533323 217.329044 
L 602.554162 217.675649 
L 596.387834 218.126465 
L 590.356273 218.788393 
L 585.816665 219.498777 
L 582.42189 220.203123 
L 579.10499 221.100428 
L 576.348746 222.09255 
L 574.515652 222.972851 
L 573.43841 223.653432 
L 572.588305 224.39 
L 572.055111 225.160301 
L 571.910161 225.768741 
L 572.015519 226.32197 
L 572.409482 226.906468 
L 572.772901 227.231385 
L 573.504206 227.698149 
L 575.040787 228.359356 
L 577.096448 228.967357 
L 580.726847 229.712584 
L 585.162394 230.3438 
L 591.266354 230.933443 
L 597.95604 231.324687 
L 605.01273 231.493529 
L 610.999553 231.441238 
L 617.261409 231.182771 
L 623.045036 230.756851 
L 630.114656 230.027124 
L 644.428258 228.227759 
L 654.61778 227.048641 
L 663.609213 226.227795 
L 675.332975 225.414919 
L 675.332975 225.414919 
" style="fill:none;stroke:#000000;stroke-linecap:square;stroke-opacity:0.7;stroke-width:1.2;"/>
   </g>
   <g id="line2d_22">
    <path clip-path="url(#p6eec6ad74d)" d="M 675.21128 185.952739 
L 669.444254 185.408254 
L 659.520957 184.717733 
L 645.821338 184.033747 
L 633.691782 183.389702 
L 625.42674 182.72521 
L 613.658874 181.499793 
L 604.428391 180.60816 
L 598.451377 180.242698 
L 594.275815 180.153302 
L 589.215725 180.290595 
L 584.862713 180.681742 
L 581.916884 181.128168 
L 579.532745 181.627579 
L 576.702657 182.444307 
L 574.901581 183.165229 
L 573.612551 183.865034 
L 572.609334 184.660677 
L 572.107856 185.339801 
L 571.922025 185.992154 
L 572.024827 186.643371 
L 572.286503 187.120952 
L 573.229039 188.023656 
L 574.641322 188.850917 
L 576.987493 189.801306 
L 580.06691 190.704637 
L 584.434951 191.644056 
L 589.394058 192.412746 
L 593.875452 192.91015 
L 599.890274 193.336377 
L 605.847327 193.513223 
L 611.779171 193.459378 
L 618.237726 193.151947 
L 624.591523 192.624081 
L 632.923537 191.681286 
L 648.646992 189.585294 
L 664.62884 187.553888 
L 675.22801 186.293425 
L 675.22801 186.293425 
" style="fill:none;stroke:#000000;stroke-linecap:square;stroke-opacity:0.7;stroke-width:1.2;"/>
   </g>
   <g id="line2d_23">
    <path clip-path="url(#p6eec6ad74d)" d="M 675.489784 145.128911 
L 670.174864 144.242774 
L 661.662697 143.029595 
L 652.001809 141.891347 
L 642.939016 141.065295 
L 634.671597 140.533641 
L 623.366029 140.066428 
L 610.890794 139.738416 
L 604.02735 139.725223 
L 597.717148 139.932115 
L 592.743009 140.304061 
L 587.260037 140.986048 
L 583.400916 141.675141 
L 579.680376 142.54556 
L 576.139082 143.631074 
L 573.608001 144.659642 
L 571.921387 145.620958 
L 571.360623 146.128808 
L 571.191442 146.608527 
L 571.333975 146.810592 
L 571.730665 146.984905 
L 572.385374 147.085529 
L 574.003548 147.093334 
L 578.39659 146.730416 
L 592.642139 145.365267 
L 599.717807 144.937155 
L 605.761746 144.762253 
L 612.951595 144.793282 
L 638.101716 145.243014 
L 660.401995 145.214558 
L 672.317088 145.481893 
L 675.488759 145.580168 
L 675.488759 145.580168 
" style="fill:none;stroke:#000000;stroke-linecap:square;stroke-opacity:0.7;stroke-width:1.2;"/>
   </g>
   <g id="line2d_24">
    <path clip-path="url(#p6eec6ad74d)" d="M 675.306562 106.497646 
L 669.038868 105.721178 
L 645.303052 103.008224 
L 639.597761 102.004675 
L 634.893561 100.965169 
L 628.597568 99.31918 
L 617.687524 96.381356 
L 612.872634 95.339659 
L 609.538116 94.78144 
L 605.826934 94.345357 
L 601.994237 94.120673 
L 598.478955 94.132258 
L 595.211031 94.343665 
L 591.399197 94.85653 
L 588.166236 95.542632 
L 585.88752 96.184209 
L 582.756658 97.316597 
L 580.086837 98.563897 
L 577.614638 100.028806 
L 576.110464 101.126835 
L 574.526042 102.554288 
L 573.413828 103.869084 
L 572.833999 104.804073 
L 572.438628 105.802264 
L 572.328921 106.599525 
L 572.41648 107.242529 
L 572.563903 107.620693 
L 573.25431 108.46048 
L 573.904393 108.897101 
L 575.3128 109.483719 
L 577.721955 110.041414 
L 580.538811 110.397873 
L 584.223894 110.637454 
L 589.129144 110.740485 
L 596.133202 110.635368 
L 604.763851 110.235541 
L 614.32769 109.545228 
L 635.829051 107.866006 
L 645.000884 107.429258 
L 656.147725 107.145142 
L 675.342846 106.885087 
L 675.342846 106.885087 
" style="fill:none;stroke:#000000;stroke-linecap:square;stroke-opacity:0.7;stroke-width:1.2;"/>
   </g>
   <g id="line2d_25">
    <path clip-path="url(#p6eec6ad74d)" d="M 675.490909 66.246215 
L 669.355655 64.963451 
L 661.228277 63.461287 
L 652.329963 62.046669 
L 644.338414 61.020622 
L 637.61034 60.381525 
L 630.586133 59.959745 
L 623.906131 59.777322 
L 615.715538 59.786925 
L 607.662601 59.998147 
L 600.397402 60.36962 
L 593.228124 60.973925 
L 588.185069 61.608783 
L 583.557569 62.41082 
L 580.298618 63.14988 
L 576.810453 64.176246 
L 574.227964 65.198415 
L 572.873369 65.914237 
L 571.844059 66.67264 
L 571.423985 67.164526 
L 571.238532 67.672855 
L 571.296877 68.02265 
L 571.51054 68.327149 
L 572.096685 68.718323 
L 573.44273 69.157632 
L 575.019857 69.435978 
L 578.722598 69.757771 
L 583.166508 69.903505 
L 590.892273 69.920404 
L 604.26063 69.683836 
L 620.106661 69.192232 
L 630.22599 68.660248 
L 660.117273 66.83771 
L 668.600625 66.681079 
L 675.483333 66.683672 
L 675.483333 66.683672 
" style="fill:none;stroke:#000000;stroke-linecap:square;stroke-opacity:0.7;stroke-width:1.2;"/>
   </g>
  </g>
 </g>
 <defs>
  <clipPath id="p6eec6ad74d">
   <rect height="262.08" width="694.08" x="12.96" y="12.96"/>
  </clipPath>
 </defs>
</svg>
