<?xml version="1.0" encoding="utf-8" standalone="no"?>
<!DOCTYPE svg PUBLIC "-//W3C//DTD SVG 1.1//EN"
  "http://www.w3.org/Graphics/SVG/1.1/DTD/svg11.dtd">
<!-- Created with matplotlib (https://matplotlib.org/) -->
<svg height="288pt" version="1.1" viewBox="0 0 720 288" width="720pt" xmlns="http://www.w3.org/2000/svg" xmlns:xlink="http://www.w3.org/1999/xlink">
 <metadata>
  <rdf:RDF xmlns:cc="http://creativecommons.org/ns#" xmlns:dc="http://purl.org/dc/elements/1.1/" xmlns:rdf="http://www.w3.org/1999/02/22-rdf-syntax-ns#">
   <cc:Work>
    <dc:type rdf:resource="http://purl.org/dc/dcmitype/StillImage"/>
    <dc:date>2020-11-06T23:48:59.933913</dc:date>
    <dc:format>image/svg+xml</dc:format>
    <dc:creator>
     <cc:Agent>
      <dc:title>Matplotlib v3.3.2, https://matplotlib.org/</dc:title>
     </cc:Agent>
    </dc:creator>
   </cc:Work>
  </rdf:RDF>
 </metadata>
 <defs>
  <style type="text/css">*{stroke-linecap:butt;stroke-linejoin:round;}</style>
 </defs>
 <g id="figure_1">
  <g id="patch_1">
   <path d="M 0 288 
L 720 288 
L 720 0 
L 0 0 
z
" style="fill:#ffffff;"/>
  </g>
  <g id="axes_1">
   <g id="line2d_1">
    <path clip-path="url(#pdc00f20dc6)" d="M 149.692599 226.752134 
L 139.163832 224.340688 
L 124.796062 221.261506 
L 116.079997 219.609667 
L 108.425307 218.411783 
L 102.380123 217.678699 
L 96.211636 217.133868 
L 89.316185 216.763573 
L 83.82344 216.654332 
L 77.219501 216.774639 
L 71.939624 217.119254 
L 67.092695 217.692715 
L 62.817129 218.46692 
L 60.215083 219.093289 
L 56.798494 220.135898 
L 53.443329 221.459938 
L 50.619084 222.878852 
L 48.259825 224.397809 
L 47.216023 225.263016 
L 46.157934 226.638913 
L 46.075445 227.27263 
L 46.401087 227.825289 
L 46.898295 228.154505 
L 47.987416 228.533729 
L 49.951179 228.870478 
L 53.487221 229.110148 
L 57.685535 229.151884 
L 64.178083 228.986736 
L 76.772107 228.369858 
L 87.180243 227.932542 
L 95.48178 227.827005 
L 123.146619 227.767418 
L 138.347838 227.331585 
L 149.696811 226.966046 
L 149.696811 226.966046 
" style="fill:none;stroke:#000000;stroke-linecap:square;stroke-opacity:0.7;stroke-width:1.2;"/>
   </g>
   <g id="line2d_2">
    <path clip-path="url(#pdc00f20dc6)" d="M 149.57053 187.762687 
L 136.09573 185.364329 
L 125.143482 183.609471 
L 117.918069 182.656143 
L 111.591055 182.029092 
L 105.410609 181.622787 
L 97.315641 181.329983 
L 84.494256 181.135161 
L 75.961879 181.181429 
L 70.29164 181.391812 
L 65.290316 181.775808 
L 60.904442 182.318641 
L 56.607724 183.082673 
L 52.270952 184.14435 
L 49.130533 185.164693 
L 46.604237 186.262952 
L 45.44499 186.970713 
L 44.800611 187.564021 
L 44.51354 188.16716 
L 44.600038 188.64171 
L 44.900805 189.02188 
L 45.56124 189.472679 
L 47.071094 190.086095 
L 49.686887 190.75027 
L 52.480741 191.234381 
L 56.941072 191.757516 
L 62.449259 192.135342 
L 68.291413 192.302537 
L 74.565165 192.266997 
L 82.048157 191.987507 
L 93.080374 191.292851 
L 134.476941 188.570614 
L 145.868331 188.065179 
L 149.598018 187.941314 
L 149.598018 187.941314 
" style="fill:none;stroke:#000000;stroke-linecap:square;stroke-opacity:0.7;stroke-width:1.2;"/>
   </g>
   <g id="line2d_3">
    <path clip-path="url(#pdc00f20dc6)" d="M 149.614188 148.264995 
L 121.423416 144.328426 
L 111.373426 142.657999 
L 100.481784 140.59169 
L 88.87624 138.411837 
L 83.024437 137.527804 
L 77.86302 136.975827 
L 73.527058 136.734302 
L 69.635494 136.733748 
L 66.055944 136.951674 
L 62.699902 137.382848 
L 59.171216 138.11918 
L 56.350645 138.95691 
L 54.127723 139.8037 
L 52.192742 140.701559 
L 49.655086 142.171046 
L 47.930913 143.442462 
L 46.427823 144.876891 
L 45.562529 146.010564 
L 44.991255 147.177491 
L 44.806471 148.010598 
L 44.816129 148.718813 
L 45.008237 149.449699 
L 45.284114 149.99068 
L 46.266665 151.104614 
L 47.817321 152.161121 
L 50.184328 153.228493 
L 52.847996 154.067026 
L 55.56412 154.692672 
L 59.058018 155.267467 
L 63.801867 155.747728 
L 68.136208 155.954334 
L 73.336655 155.968564 
L 79.582379 155.714797 
L 86.196013 155.208262 
L 99.115877 153.908942 
L 134.256962 150.176575 
L 149.638875 148.466666 
L 149.638875 148.466666 
" style="fill:none;stroke:#000000;stroke-linecap:square;stroke-opacity:0.7;stroke-width:1.2;"/>
   </g>
   <g id="line2d_4">
    <path clip-path="url(#pdc00f20dc6)" d="M 149.79974 108.109513 
L 142.788772 106.07904 
L 133.566478 103.635583 
L 126.688222 102.02366 
L 120.87502 100.858291 
L 114.939246 99.899429 
L 109.146519 99.20908 
L 102.943059 98.727144 
L 97.038294 98.479905 
L 89.524118 98.405774 
L 82.738418 98.547802 
L 76.185781 98.899493 
L 71.468585 99.32123 
L 66.676709 99.940804 
L 62.531708 100.677196 
L 59.20842 101.436589 
L 55.278785 102.575785 
L 52.136458 103.722696 
L 49.378835 104.967216 
L 47.259075 106.179292 
L 45.956892 107.188439 
L 45.278373 108.032506 
L 45.105797 108.525068 
L 45.130729 108.99036 
L 45.346032 109.420505 
L 45.919802 109.956133 
L 47.418962 110.704966 
L 49.037348 111.216877 
L 52.525927 111.943546 
L 56.123725 112.42671 
L 61.426062 112.862475 
L 67.52132 113.091938 
L 74.667336 113.09189 
L 82.211394 112.853641 
L 92.204702 112.296845 
L 108.28305 111.146318 
L 141.289057 108.592551 
L 149.821588 108.249123 
L 149.821588 108.249123 
" style="fill:none;stroke:#000000;stroke-linecap:square;stroke-opacity:0.7;stroke-width:1.2;"/>
   </g>
   <g id="line2d_5">
    <path clip-path="url(#pdc00f20dc6)" d="M 149.787293 68.640604 
L 136.590051 67.4589 
L 127.126137 66.386368 
L 120.009375 65.351957 
L 113.459405 64.147702 
L 107.217463 62.745599 
L 98.811884 60.576497 
L 90.469367 58.44978 
L 85.054639 57.29389 
L 81.261513 56.660346 
L 76.49026 56.127739 
L 72.283766 55.950377 
L 69.13586 56.026835 
L 65.608185 56.357196 
L 62.624358 56.866494 
L 59.743367 57.586792 
L 56.547355 58.688611 
L 54.571286 59.553796 
L 52.59295 60.584961 
L 50.565032 61.848314 
L 48.219141 63.666878 
L 46.573311 65.335158 
L 45.524208 66.815805 
L 44.974898 68.144268 
L 44.872239 68.889579 
L 44.966011 69.662041 
L 45.216392 70.265826 
L 45.90817 71.11214 
L 46.449152 71.538012 
L 48.19124 72.438545 
L 48.9491 72.715883 
L 52.173311 73.528643 
L 55.601557 74.026609 
L 59.663978 74.339956 
L 63.809045 74.451833 
L 69.570465 74.357669 
L 76.365388 73.975801 
L 85.226888 73.20472 
L 105.625517 71.324793 
L 124.725454 69.856092 
L 135.527905 69.222662 
L 145.275989 68.884823 
L 149.8124 68.801947 
L 149.8124 68.801947 
" style="fill:none;stroke:#000000;stroke-linecap:square;stroke-opacity:0.7;stroke-width:1.2;"/>
   </g>
   <g id="line2d_6">
    <path clip-path="url(#pdc00f20dc6)" d="M 281.20909 226.320731 
L 257.14985 223.65843 
L 222.429088 219.782976 
L 215.136122 219.212646 
L 209.118246 218.973598 
L 204.30982 219.005341 
L 199.905072 219.260601 
L 195.528266 219.771095 
L 191.360056 220.525874 
L 187.440226 221.495346 
L 183.666406 222.693599 
L 181.215436 223.646964 
L 179.093209 224.649377 
L 177.350882 225.751467 
L 176.600404 226.526009 
L 176.386209 227.068743 
L 176.413378 227.397105 
L 176.634862 227.79136 
L 177.353512 228.334127 
L 178.361346 228.766442 
L 180.065274 229.241316 
L 183.265171 229.799633 
L 187.639356 230.249246 
L 193.318743 230.545738 
L 199.719541 230.624285 
L 206.77732 230.469315 
L 214.382692 230.067686 
L 223.726952 229.330629 
L 242.820938 227.52219 
L 254.953616 226.480058 
L 262.271986 226.082284 
L 267.771199 225.971552 
L 274.196155 226.069376 
L 281.218372 226.414887 
L 281.218372 226.414887 
" style="fill:none;stroke:#000000;stroke-linecap:square;stroke-opacity:0.7;stroke-width:1.2;"/>
   </g>
   <g id="line2d_7">
    <path clip-path="url(#pdc00f20dc6)" d="M 281.152383 187.196689 
L 268.854278 184.446488 
L 255.574732 181.66476 
L 246.485614 179.971482 
L 239.446668 178.861164 
L 232.016156 177.929112 
L 224.855454 177.285678 
L 218.961305 176.960856 
L 213.461067 176.852598 
L 208.918354 176.935844 
L 203.997893 177.245906 
L 199.550171 177.772175 
L 195.367282 178.532828 
L 192.405832 179.258324 
L 189.22407 180.239609 
L 186.148887 181.41662 
L 183.106175 182.84391 
L 180.711873 184.205537 
L 178.630282 185.674157 
L 177.481951 186.791773 
L 177.089009 187.507382 
L 177.12351 187.965217 
L 177.369275 188.240937 
L 177.929606 188.490146 
L 179.136942 188.679571 
L 180.508169 188.714957 
L 183.422583 188.556506 
L 187.545043 188.098318 
L 194.376114 187.084308 
L 213.67874 184.048914 
L 218.481102 183.573488 
L 222.610303 183.355058 
L 227.260464 183.321638 
L 233.624378 183.54541 
L 243.685185 184.185993 
L 263.920326 185.723969 
L 275.538885 186.813775 
L 281.101843 187.403225 
L 281.101843 187.403225 
" style="fill:none;stroke:#000000;stroke-linecap:square;stroke-opacity:0.7;stroke-width:1.2;"/>
   </g>
   <g id="line2d_8">
    <path clip-path="url(#pdc00f20dc6)" d="M 281.039946 148.211679 
L 266.285805 144.94195 
L 229.648267 136.958618 
L 223.860993 135.975088 
L 219.126921 135.345857 
L 214.738604 134.944258 
L 209.820835 134.748275 
L 206.205214 134.807602 
L 202.815776 135.046676 
L 198.987648 135.565114 
L 195.968519 136.189822 
L 192.830722 137.073605 
L 189.823576 138.179225 
L 187.771679 139.099499 
L 185.001618 140.588624 
L 182.496445 142.230006 
L 180.235938 144.047875 
L 178.710697 145.608452 
L 177.864879 146.822733 
L 177.574121 147.591281 
L 177.547602 148.010316 
L 177.703028 148.480843 
L 178.238441 148.960849 
L 179.078802 149.276085 
L 180.195606 149.466634 
L 182.583958 149.559667 
L 186.012058 149.39154 
L 191.448287 148.824954 
L 199.839027 147.659818 
L 211.696969 145.979266 
L 218.01301 145.331829 
L 222.934615 145.059539 
L 228.207497 145.009619 
L 234.676922 145.206754 
L 245.006631 145.80612 
L 268.020127 147.423589 
L 280.991255 148.437252 
L 280.991255 148.437252 
" style="fill:none;stroke:#000000;stroke-linecap:square;stroke-opacity:0.7;stroke-width:1.2;"/>
   </g>
   <g id="line2d_9">
    <path clip-path="url(#pdc00f20dc6)" d="M 281.158168 108.27383 
L 264.354963 105.428151 
L 251.274444 102.994685 
L 232.453149 99.443454 
L 225.93407 98.449358 
L 219.893424 97.762636 
L 214.231441 97.383974 
L 209.295572 97.305713 
L 205.481297 97.431447 
L 200.661573 97.858021 
L 197.089707 98.395216 
L 193.422835 99.173381 
L 189.954621 100.154044 
L 186.972291 101.221105 
L 183.841611 102.614118 
L 181.233501 104.057349 
L 179.617622 105.141602 
L 178.119312 106.371864 
L 176.987147 107.631698 
L 176.421869 108.747539 
L 176.355448 109.276266 
L 176.511439 109.883466 
L 177.029743 110.488626 
L 178.122636 111.08555 
L 179.228319 111.439308 
L 181.395613 111.865073 
L 184.398963 112.191004 
L 188.843247 112.40514 
L 194.804375 112.419322 
L 201.854218 112.189437 
L 210.401558 111.683776 
L 235.573433 110.022665 
L 261.451398 108.739661 
L 271.237324 108.473785 
L 281.190834 108.422373 
L 281.190834 108.422373 
" style="fill:none;stroke:#000000;stroke-linecap:square;stroke-opacity:0.7;stroke-width:1.2;"/>
   </g>
   <g id="line2d_10">
    <path clip-path="url(#pdc00f20dc6)" d="M 281.135875 69.02944 
L 276.110557 67.247912 
L 270.133989 65.358622 
L 265.265156 64.007211 
L 260.681476 62.918046 
L 256.126513 62.046271 
L 251.174317 61.373442 
L 246.494702 61.018105 
L 241.793489 60.920289 
L 236.887559 61.040755 
L 228.59347 61.526239 
L 216.184392 62.242222 
L 202.217726 62.951809 
L 196.231743 63.538722 
L 191.743689 64.199945 
L 186.996223 65.155962 
L 182.722161 66.290862 
L 179.686464 67.314083 
L 177.357708 68.32545 
L 176.053654 69.157256 
L 175.655542 69.728129 
L 175.724666 70.049611 
L 176.01244 70.302547 
L 176.672497 70.572884 
L 177.752638 70.809554 
L 180.185676 71.072003 
L 184.672189 71.226158 
L 190.234921 71.178438 
L 198.727663 70.86456 
L 227.180495 69.557167 
L 270.323571 69.038436 
L 281.131738 69.228697 
L 281.131738 69.228697 
" style="fill:none;stroke:#000000;stroke-linecap:square;stroke-opacity:0.7;stroke-width:1.2;"/>
   </g>
   <g id="line2d_11">
    <path clip-path="url(#pdc00f20dc6)" d="M 412.374915 227.503209 
L 403.616821 226.029763 
L 393.817076 224.575976 
L 386.070612 223.643375 
L 380.259941 223.145672 
L 374.441086 222.875468 
L 368.474282 222.832254 
L 356.241367 223.071635 
L 348.019353 223.115325 
L 330.32768 223.073575 
L 325.454202 223.329913 
L 320.939046 223.779309 
L 316.773497 224.414237 
L 312.927842 225.246103 
L 310.289445 226.054012 
L 308.817651 226.747579 
L 308.312415 227.181897 
L 308.166493 227.596154 
L 308.303362 227.928277 
L 308.845389 228.365755 
L 309.853711 228.81485 
L 311.397825 229.269917 
L 313.932593 229.782998 
L 317.883608 230.309135 
L 322.745835 230.703643 
L 328.186293 230.934107 
L 335.266039 231.002338 
L 344.409931 230.835718 
L 386.903942 229.51897 
L 399.260058 228.707279 
L 412.384937 227.699857 
L 412.384937 227.699857 
" style="fill:none;stroke:#000000;stroke-linecap:square;stroke-opacity:0.7;stroke-width:1.2;"/>
   </g>
   <g id="line2d_12">
    <path clip-path="url(#pdc00f20dc6)" d="M 412.539114 187.658863 
L 405.068284 185.440825 
L 397.754796 183.459992 
L 390.541266 181.748878 
L 384.471759 180.58016 
L 379.53154 179.864644 
L 374.50601 179.376284 
L 369.747294 179.126192 
L 363.573322 179.047638 
L 354.343548 179.220213 
L 337.580304 179.782374 
L 330.92194 180.207078 
L 326.05483 180.718689 
L 321.2306 181.490272 
L 318.138069 182.176646 
L 315.060269 183.062563 
L 312.210978 184.140371 
L 310.293575 185.094408 
L 308.942331 185.984836 
L 307.90291 186.991214 
L 307.442436 187.817033 
L 307.336003 188.46101 
L 307.404271 188.945679 
L 307.712561 189.621538 
L 308.403843 190.430406 
L 308.921815 190.868126 
L 310.826723 192.053665 
L 312.7617 192.947116 
L 315.764959 194.030827 
L 318.971106 194.933984 
L 322.898413 195.790531 
L 327.801421 196.563003 
L 332.248355 197.029216 
L 337.208191 197.324556 
L 343.140382 197.411686 
L 349.028728 197.266342 
L 356.536533 196.846694 
L 365.271388 196.140709 
L 373.362294 195.27136 
L 380.85046 194.229901 
L 388.238768 192.970625 
L 396.438734 191.355363 
L 408.232434 188.792357 
L 412.562247 187.786014 
L 412.562247 187.786014 
" style="fill:none;stroke:#000000;stroke-linecap:square;stroke-opacity:0.7;stroke-width:1.2;"/>
   </g>
   <g id="line2d_13">
    <path clip-path="url(#pdc00f20dc6)" d="M 412.588282 147.752838 
L 389.213258 145.477812 
L 372.566362 144.050219 
L 340.989972 141.64061 
L 335.10237 141.414807 
L 330.217813 141.457609 
L 327.20173 141.630428 
L 323.4063 142.045 
L 319.886737 142.656079 
L 316.137024 143.580333 
L 312.718485 144.713597 
L 310.609207 145.602657 
L 309.37461 146.237316 
L 308.072312 147.132897 
L 307.641698 147.633078 
L 307.514804 148.075613 
L 307.744782 148.542186 
L 308.342851 148.931414 
L 309.836902 149.405812 
L 312.386178 149.823847 
L 316.779419 150.166363 
L 321.73338 150.293866 
L 328.415117 150.227636 
L 336.617565 149.91897 
L 359.364566 148.887832 
L 404.764134 147.931359 
L 412.613947 147.889084 
L 412.613947 147.889084 
" style="fill:none;stroke:#000000;stroke-linecap:square;stroke-opacity:0.7;stroke-width:1.2;"/>
   </g>
   <g id="line2d_14">
    <path clip-path="url(#pdc00f20dc6)" d="M 412.546805 108.611544 
L 407.685323 106.936384 
L 401.771059 105.10175 
L 395.642513 103.457238 
L 390.100419 102.256635 
L 385.411428 101.510283 
L 381.725286 101.126534 
L 378.145145 100.937256 
L 374.270431 100.933549 
L 369.381567 101.193302 
L 364.445453 101.679712 
L 342.881374 104.124767 
L 333.057463 104.751385 
L 324.833147 105.380321 
L 318.910281 106.067528 
L 313.867579 106.866575 
L 310.323341 107.643869 
L 308.619719 108.263391 
L 308.163697 108.677688 
L 308.161151 108.908885 
L 308.345139 109.148145 
L 308.89474 109.475403 
L 310.002647 109.868628 
L 312.597428 110.450604 
L 316.25509 110.984768 
L 321.674583 111.492686 
L 327.645797 111.818458 
L 334.819059 111.984995 
L 342.583908 111.957773 
L 353.575684 111.68106 
L 368.189286 111.090704 
L 379.919002 110.370374 
L 398.606589 109.151517 
L 407.346383 108.845748 
L 412.559678 108.758018 
L 412.559678 108.758018 
" style="fill:none;stroke:#000000;stroke-linecap:square;stroke-opacity:0.7;stroke-width:1.2;"/>
   </g>
   <g id="line2d_15">
    <path clip-path="url(#pdc00f20dc6)" d="M 412.389706 69.491336 
L 395.415565 68.428459 
L 374.76578 67.079889 
L 365.404632 66.241925 
L 356.996994 65.255791 
L 341.744988 63.380012 
L 336.581966 63.015951 
L 332.010428 62.948792 
L 328.505368 63.103194 
L 325.048839 63.454109 
L 321.038555 64.125021 
L 317.743238 64.896686 
L 313.993918 66.034614 
L 311.127446 67.139175 
L 309.035546 68.186295 
L 308.166462 68.802732 
L 307.702423 69.4247 
L 307.733363 69.838685 
L 308.050405 70.180509 
L 308.782725 70.543809 
L 309.989626 70.884285 
L 312.658883 71.306209 
L 316.357803 71.603686 
L 320.962711 71.754987 
L 327.827485 71.728378 
L 336.194467 71.449477 
L 362.90191 70.336941 
L 399.722321 69.680816 
L 412.420692 69.656604 
L 412.420692 69.656604 
" style="fill:none;stroke:#000000;stroke-linecap:square;stroke-opacity:0.7;stroke-width:1.2;"/>
   </g>
   <g id="line2d_16">
    <path clip-path="url(#pdc00f20dc6)" d="M 544.031194 226.764136 
L 536.958963 224.937683 
L 529.146679 223.130495 
L 522.536146 221.827732 
L 517.281374 220.999652 
L 512.187378 220.422409 
L 506.707369 220.087012 
L 501.126191 220.051608 
L 494.693427 220.323487 
L 483.049746 221.178154 
L 473.738207 221.732892 
L 456.795716 222.577277 
L 451.682711 223.148389 
L 447.527733 223.866846 
L 444.66908 224.548932 
L 442.344517 225.279882 
L 440.926411 225.87378 
L 439.755467 226.624448 
L 439.452138 227.031583 
L 439.426333 227.4632 
L 439.565144 227.714818 
L 439.988625 228.083674 
L 440.246236 228.237495 
L 441.918206 228.890487 
L 443.283597 229.247899 
L 447.535354 229.988947 
L 452.0876 230.469284 
L 458.043467 230.824937 
L 464.315752 230.976315 
L 471.972203 230.951733 
L 501.6793 230.40286 
L 510.239596 230.04824 
L 518.9765 229.451129 
L 529.042553 228.526678 
L 544.041936 226.964507 
L 544.041936 226.964507 
" style="fill:none;stroke:#000000;stroke-linecap:square;stroke-opacity:0.7;stroke-width:1.2;"/>
   </g>
   <g id="line2d_17">
    <path clip-path="url(#pdc00f20dc6)" d="M 544.132776 187.009339 
L 538.192916 185.290489 
L 530.872327 183.390059 
L 524.43881 181.970227 
L 519.584931 181.107942 
L 514.88657 180.488743 
L 510.768212 180.145259 
L 506.533505 179.994346 
L 501.825825 180.050329 
L 496.662487 180.324682 
L 485.598718 181.233742 
L 476.517822 181.877028 
L 456.324382 183.114948 
L 452.071601 183.646366 
L 447.832597 184.386358 
L 444.470207 185.17492 
L 441.61312 186.069896 
L 439.86995 186.84186 
L 438.998107 187.457524 
L 438.688652 187.937745 
L 438.714162 188.339635 
L 439.13088 188.826811 
L 440.033311 189.324377 
L 441.634964 189.869842 
L 444.748457 190.559697 
L 448.598185 191.134 
L 453.103267 191.60037 
L 460.249159 192.058347 
L 467.801086 192.283873 
L 476.384465 192.314064 
L 487.899786 192.108615 
L 496.816301 191.756626 
L 504.932904 191.208606 
L 513.754706 190.356041 
L 541.798922 187.360828 
L 544.158503 187.177641 
L 544.158503 187.177641 
" style="fill:none;stroke:#000000;stroke-linecap:square;stroke-opacity:0.7;stroke-width:1.2;"/>
   </g>
   <g id="line2d_18">
    <path clip-path="url(#pdc00f20dc6)" d="M 543.811485 148.422762 
L 536.206564 146.810587 
L 526.833758 145.029574 
L 519.3034 143.804864 
L 513.153364 143.013107 
L 507.227342 142.486627 
L 500.793337 142.192083 
L 492.510166 142.108428 
L 466.590479 142.222613 
L 461.332768 142.544637 
L 456.562242 143.086899 
L 452.163992 143.849689 
L 448.019914 144.84105 
L 444.734405 145.859407 
L 442.526119 146.711853 
L 440.540552 147.746789 
L 440.021923 148.268675 
L 440.075805 148.542322 
L 440.384462 148.695014 
L 441.258002 148.810316 
L 442.660938 148.79935 
L 446.517487 148.461223 
L 452.621959 147.657662 
L 470.301439 145.190607 
L 475.974286 144.640641 
L 481.144923 144.391551 
L 485.666214 144.427264 
L 490.438213 144.704721 
L 497.989956 145.414493 
L 509.376678 146.470895 
L 519.285281 147.155126 
L 543.793516 148.581837 
L 543.793516 148.581837 
" style="fill:none;stroke:#000000;stroke-linecap:square;stroke-opacity:0.7;stroke-width:1.2;"/>
   </g>
   <g id="line2d_19">
    <path clip-path="url(#pdc00f20dc6)" d="M 543.916564 108.842062 
L 537.664419 107.199072 
L 529.800805 105.345564 
L 522.654732 103.903751 
L 517.858644 103.117236 
L 512.730572 102.487382 
L 507.783334 102.118343 
L 503.206911 101.986294 
L 496.889767 102.071423 
L 485.539456 102.554652 
L 474.373995 102.917687 
L 464.7423 103.274341 
L 459.085765 103.710238 
L 453.627118 104.392764 
L 449.453381 105.119571 
L 445.697426 105.946314 
L 441.619762 107.084327 
L 439.2095 107.981439 
L 438.037409 108.673865 
L 437.861412 108.975839 
L 437.944923 109.174429 
L 438.160322 109.316614 
L 438.956094 109.533092 
L 440.785145 109.699555 
L 443.900343 109.719821 
L 448.871372 109.52262 
L 457.683716 108.919507 
L 475.817621 107.619752 
L 481.804326 107.423596 
L 488.076257 107.451367 
L 497.562107 107.786856 
L 512.167235 108.274392 
L 543.900952 109.026258 
L 543.900952 109.026258 
" style="fill:none;stroke:#000000;stroke-linecap:square;stroke-opacity:0.7;stroke-width:1.2;"/>
   </g>
   <g id="line2d_20">
    <path clip-path="url(#pdc00f20dc6)" d="M 544.001249 69.030837 
L 535.458295 66.831765 
L 524.871761 64.331243 
L 516.44832 62.585983 
L 509.165273 61.340506 
L 503.008605 60.515128 
L 496.260497 59.841735 
L 488.970832 59.348948 
L 481.702823 59.087805 
L 475.586524 59.079038 
L 470.084102 59.285454 
L 465.260318 59.679942 
L 460.745283 60.273943 
L 456.356272 61.104186 
L 453.259487 61.866349 
L 449.147979 63.143476 
L 446.249956 64.261093 
L 443.011171 65.799744 
L 441.380393 66.75822 
L 440.059398 67.722721 
L 439.258066 68.528936 
L 438.866843 69.232429 
L 438.818558 69.578005 
L 438.940933 70.011543 
L 439.242654 70.366914 
L 440.020338 70.826969 
L 441.411679 71.269217 
L 443.208638 71.604713 
L 446.336571 71.933216 
L 450.562967 72.131119 
L 456.751966 72.152518 
L 464.055399 71.930134 
L 472.793124 71.440169 
L 502.858482 69.541302 
L 516.655814 68.983856 
L 525.278702 68.831269 
L 533.143225 68.887516 
L 542.702773 69.184167 
L 544.002201 69.236921 
L 544.002201 69.236921 
" style="fill:none;stroke:#000000;stroke-linecap:square;stroke-opacity:0.7;stroke-width:1.2;"/>
   </g>
   <g id="line2d_21">
    <path clip-path="url(#pdc00f20dc6)" d="M 675.441309 226.684035 
L 657.37868 223.933669 
L 630.557337 219.833636 
L 621.056573 218.659425 
L 614.010261 218.018955 
L 608.107569 217.706294 
L 603.188744 217.649305 
L 598.281858 217.820042 
L 594.757887 218.108854 
L 591.078746 218.58282 
L 587.575036 219.221326 
L 584.57146 219.934033 
L 581.075519 220.98459 
L 577.848827 222.206156 
L 575.301776 223.394546 
L 572.922413 224.793128 
L 571.653303 225.783146 
L 571.003312 226.484399 
L 570.62105 227.16441 
L 570.551312 227.843342 
L 570.702315 228.260261 
L 571.154728 228.788416 
L 572.255552 229.463418 
L 574.021752 230.113186 
L 576.658371 230.7475 
L 580.217325 231.316716 
L 584.723223 231.775135 
L 590.495932 232.082825 
L 596.800729 232.150754 
L 603.215054 231.985236 
L 610.463982 231.566103 
L 620.149226 230.762802 
L 657.798024 227.433416 
L 665.15633 227.059805 
L 672.78372 226.874046 
L 675.480229 226.845969 
L 675.480229 226.845969 
" style="fill:none;stroke:#000000;stroke-linecap:square;stroke-opacity:0.7;stroke-width:1.2;"/>
   </g>
   <g id="line2d_22">
    <path clip-path="url(#pdc00f20dc6)" d="M 675.46567 187.407869 
L 669.859304 185.513753 
L 661.35319 182.870259 
L 653.176238 180.56107 
L 646.018457 178.775526 
L 640.030495 177.489916 
L 633.962831 176.396801 
L 627.979162 175.522223 
L 621.254823 174.772094 
L 615.313343 174.322527 
L 609.412006 174.10436 
L 604.582428 174.128687 
L 599.961579 174.357346 
L 595.993169 174.743988 
L 591.548872 175.427116 
L 588.079668 176.180542 
L 584.175193 177.311027 
L 581.809402 178.171907 
L 578.606746 179.60196 
L 575.800745 181.18369 
L 573.745026 182.631717 
L 572.137663 184.058294 
L 570.927379 185.512277 
L 570.604771 186.041312 
L 570.133749 187.333942 
L 570.120615 188.127902 
L 570.297897 188.739802 
L 570.720811 189.397199 
L 571.618437 190.16683 
L 572.777014 190.790899 
L 574.476905 191.415952 
L 577.168545 192.08144 
L 580.594223 192.634283 
L 585.509442 193.103049 
L 590.632523 193.328107 
L 596.345787 193.352392 
L 603.125929 193.148737 
L 612.209833 192.615713 
L 651.938493 189.769503 
L 675.490909 187.609025 
L 675.490909 187.609025 
" style="fill:none;stroke:#000000;stroke-linecap:square;stroke-opacity:0.7;stroke-width:1.2;"/>
   </g>
   <g id="line2d_23">
    <path clip-path="url(#pdc00f20dc6)" d="M 675.412886 147.797728 
L 657.895376 147.55191 
L 647.903911 147.205852 
L 640.61857 146.759154 
L 634.561842 146.192484 
L 628.5498 145.421231 
L 621.855182 144.355376 
L 608.400171 142.143163 
L 603.515751 141.587538 
L 598.892226 141.322653 
L 595.711099 141.326552 
L 592.546186 141.499016 
L 589.065521 141.888927 
L 584.982617 142.605656 
L 580.828907 143.60318 
L 576.927062 144.789178 
L 573.670431 146.048537 
L 571.915003 146.997999 
L 571.327503 147.485465 
L 571.028094 147.918671 
L 570.969506 148.353469 
L 571.185877 148.794445 
L 571.673789 149.214316 
L 572.728206 149.747993 
L 574.627609 150.363483 
L 577.29196 150.953431 
L 580.81255 151.502124 
L 585.422691 151.990407 
L 591.327405 152.357587 
L 597.406419 152.498565 
L 603.996027 152.415266 
L 611.416991 152.059423 
L 619.491345 151.426246 
L 631.822038 150.201675 
L 650.662956 148.293422 
L 657.961189 147.812215 
L 663.705783 147.64196 
L 669.830549 147.679645 
L 675.461471 147.885011 
L 675.461471 147.885011 
" style="fill:none;stroke:#000000;stroke-linecap:square;stroke-opacity:0.7;stroke-width:1.2;"/>
   </g>
   <g id="line2d_24">
    <path clip-path="url(#pdc00f20dc6)" d="M 675.276734 109.031589 
L 662.196027 107.652112 
L 646.709737 106.20014 
L 635.495588 105.386614 
L 598.770169 103.229022 
L 593.976073 103.233842 
L 589.231859 103.468553 
L 585.043086 103.915829 
L 581.393952 104.524851 
L 578.645105 105.143437 
L 575.44257 106.089363 
L 572.891298 107.137596 
L 571.76016 107.820823 
L 571.147044 108.437225 
L 570.975589 108.887779 
L 571.020588 109.251587 
L 571.353669 109.749509 
L 572.03199 110.270645 
L 572.82641 110.69626 
L 574.998006 111.532043 
L 577.979508 112.357183 
L 582.536499 113.275613 
L 587.121503 113.942023 
L 592.52768 114.488451 
L 598.876354 114.864302 
L 604.916905 114.997411 
L 612.217414 114.920026 
L 620.885953 114.587593 
L 631.586365 113.933168 
L 641.168796 113.118666 
L 651.42438 112.024133 
L 675.296169 109.211304 
L 675.296169 109.211304 
" style="fill:none;stroke:#000000;stroke-linecap:square;stroke-opacity:0.7;stroke-width:1.2;"/>
   </g>
   <g id="line2d_25">
    <path clip-path="url(#pdc00f20dc6)" d="M 675.240114 69.780561 
L 648.414402 67.196723 
L 642.277984 66.266517 
L 637.023537 65.235317 
L 631.987622 64.017197 
L 625.914116 62.293175 
L 612.327757 58.246415 
L 607.423112 57.079704 
L 603.871685 56.439001 
L 600.568014 56.035983 
L 596.88563 55.843733 
L 594.527923 55.881246 
L 590.915224 56.211852 
L 588.485104 56.639462 
L 585.223343 57.504099 
L 582.202876 58.639948 
L 579.438041 60.010175 
L 577.4561 61.227618 
L 575.915181 62.345681 
L 574.293387 63.743696 
L 572.922073 65.208037 
L 571.882447 66.689782 
L 571.361255 67.825648 
L 571.162785 68.739027 
L 571.20101 69.538537 
L 571.454606 70.246647 
L 572.019898 70.987337 
L 573.140855 71.800567 
L 574.173732 72.290376 
L 575.880148 72.863159 
L 578.34021 73.42022 
L 581.849262 73.919816 
L 586.252318 74.259304 
L 590.783268 74.390089 
L 596.879298 74.319295 
L 604.084638 73.973707 
L 614.392991 73.204964 
L 626.687047 72.319413 
L 640.684647 71.59531 
L 675.26032 70.001616 
L 675.26032 70.001616 
" style="fill:none;stroke:#000000;stroke-linecap:square;stroke-opacity:0.7;stroke-width:1.2;"/>
   </g>
  </g>
 </g>
 <defs>
  <clipPath id="pdc00f20dc6">
   <rect height="262.08" width="694.08" x="12.96" y="12.96"/>
  </clipPath>
 </defs>
</svg>
