<?xml version="1.0" encoding="utf-8" standalone="no"?>
<!DOCTYPE svg PUBLIC "-//W3C//DTD SVG 1.1//EN"
  "http://www.w3.org/Graphics/SVG/1.1/DTD/svg11.dtd">
<!-- Created with matplotlib (https://matplotlib.org/) -->
<svg height="288pt" version="1.1" viewBox="0 0 720 288" width="720pt" xmlns="http://www.w3.org/2000/svg" xmlns:xlink="http://www.w3.org/1999/xlink">
 <metadata>
  <rdf:RDF xmlns:cc="http://creativecommons.org/ns#" xmlns:dc="http://purl.org/dc/elements/1.1/" xmlns:rdf="http://www.w3.org/1999/02/22-rdf-syntax-ns#">
   <cc:Work>
    <dc:type rdf:resource="http://purl.org/dc/dcmitype/StillImage"/>
    <dc:date>2020-11-07T00:04:02.879446</dc:date>
    <dc:format>image/svg+xml</dc:format>
    <dc:creator>
     <cc:Agent>
      <dc:title>Matplotlib v3.3.2, https://matplotlib.org/</dc:title>
     </cc:Agent>
    </dc:creator>
   </cc:Work>
  </rdf:RDF>
 </metadata>
 <defs>
  <style type="text/css">*{stroke-linecap:butt;stroke-linejoin:round;}</style>
 </defs>
 <g id="figure_1">
  <g id="patch_1">
   <path d="M 0 288 
L 720 288 
L 720 0 
L 0 0 
z
" style="fill:#ffffff;"/>
  </g>
  <g id="axes_1">
   <g id="line2d_1">
    <path clip-path="url(#p5f5bf30a91)" d="M 149.284796 229.036794 
L 140.65758 226.984113 
L 130.992136 224.882391 
L 121.314255 223.007901 
L 113.104812 221.623389 
L 103.696302 220.273841 
L 95.193042 219.285761 
L 87.849056 218.662452 
L 81.630396 218.359453 
L 77.077119 218.304462 
L 71.920243 218.45643 
L 67.209448 218.846959 
L 63.594161 219.354986 
L 60.314635 220.012983 
L 56.88419 220.95165 
L 54.31411 221.862723 
L 51.709652 223.01451 
L 49.109837 224.468761 
L 47.616462 225.505379 
L 46.334583 226.601847 
L 45.523622 227.521521 
L 45.137589 228.197141 
L 45.034703 228.755708 
L 45.161589 229.134805 
L 45.496689 229.448191 
L 46.349988 229.771245 
L 48.079292 229.990848 
L 51.1538 230.019448 
L 55.826212 229.799274 
L 64.243756 229.140942 
L 89.353674 227.003466 
L 95.711834 226.799707 
L 101.806493 226.836789 
L 110.038779 227.130168 
L 149.296036 228.993317 
L 149.296036 228.993317 
" style="fill:none;stroke:#000000;stroke-linecap:square;stroke-opacity:0.7;stroke-width:1.2;"/>
   </g>
   <g id="line2d_2">
    <path clip-path="url(#p5f5bf30a91)" d="M 149.292682 189.662381 
L 143.514053 187.433101 
L 137.1444 185.17985 
L 130.871261 183.197702 
L 125.327944 181.692471 
L 120.602682 180.6301 
L 116.245337 179.849648 
L 111.93754 179.267371 
L 107.550456 178.852386 
L 101.32938 178.515788 
L 94.107005 178.389885 
L 86.057924 178.485131 
L 78.301607 178.809317 
L 72.006433 179.299206 
L 66.753909 179.930974 
L 62.253405 180.697236 
L 59.014848 181.419016 
L 55.47759 182.418254 
L 52.716163 183.392592 
L 49.980857 184.579094 
L 48.104091 185.570147 
L 46.160931 186.854083 
L 45.039114 187.887015 
L 44.63167 188.493572 
L 44.510361 189.088392 
L 44.667955 189.493748 
L 45.142647 189.910576 
L 46.408346 190.422955 
L 48.088342 190.798131 
L 51.30919 191.226166 
L 55.841901 191.571076 
L 62.192096 191.809353 
L 69.928217 191.855164 
L 78.586712 191.658473 
L 88.780749 191.171317 
L 103.535087 190.431282 
L 114.485869 190.137144 
L 149.250731 189.574865 
L 149.250731 189.574865 
" style="fill:none;stroke:#000000;stroke-linecap:square;stroke-opacity:0.7;stroke-width:1.2;"/>
   </g>
   <g id="line2d_3">
    <path clip-path="url(#p5f5bf30a91)" d="M 149.256091 150.320282 
L 141.081753 147.918139 
L 134.106909 146.049356 
L 127.978706 144.608185 
L 123.242059 143.677403 
L 118.119593 142.90711 
L 113.361282 142.45107 
L 108.889769 142.260944 
L 103.597323 142.304039 
L 96.66962 142.66739 
L 74.803976 144.080489 
L 64.235334 144.678177 
L 58.638257 145.221448 
L 55.49246 145.682146 
L 52.397295 146.306431 
L 49.022855 147.292057 
L 47.564085 147.890679 
L 46.273694 148.618077 
L 45.56351 149.27654 
L 45.358588 149.777614 
L 45.416263 150.118332 
L 45.745529 150.540685 
L 46.295189 150.909997 
L 47.508625 151.425479 
L 49.998729 152.114893 
L 54.045895 152.881968 
L 59.225587 153.58665 
L 65.615422 154.211195 
L 73.430704 154.715748 
L 80.922513 154.984582 
L 91.006851 155.092487 
L 103.591475 154.973729 
L 112.76288 154.665018 
L 120.057396 154.195589 
L 127.437738 153.481931 
L 135.383753 152.45596 
L 144.774435 150.980372 
L 149.282941 150.205447 
L 149.282941 150.205447 
" style="fill:none;stroke:#000000;stroke-linecap:square;stroke-opacity:0.7;stroke-width:1.2;"/>
   </g>
   <g id="line2d_4">
    <path clip-path="url(#p5f5bf30a91)" d="M 149.235323 110.775351 
L 140.507555 108.938774 
L 130.90112 107.12692 
L 122.972914 105.876509 
L 116.722218 105.134814 
L 110.942046 104.707538 
L 106.227981 104.560665 
L 100.370502 104.595583 
L 91.126429 104.912797 
L 75.143795 105.438151 
L 66.622736 105.778574 
L 60.673217 106.248548 
L 56.534254 106.780377 
L 53.262417 107.371681 
L 50.298785 108.094853 
L 47.787158 108.948104 
L 46.285796 109.724887 
L 45.710719 110.267682 
L 45.59105 110.578446 
L 45.665576 110.906299 
L 46.013732 111.250324 
L 46.887089 111.65942 
L 48.178873 112.014793 
L 51.09651 112.500389 
L 55.103336 112.89787 
L 61.072495 113.23253 
L 68.497633 113.404022 
L 76.712252 113.379886 
L 89.361263 113.079879 
L 126.251083 111.979726 
L 149.243666 110.7356 
L 149.243666 110.7356 
" style="fill:none;stroke:#000000;stroke-linecap:square;stroke-opacity:0.7;stroke-width:1.2;"/>
   </g>
   <g id="line2d_5">
    <path clip-path="url(#p5f5bf30a91)" d="M 149.482364 70.573007 
L 143.375337 68.510258 
L 136.583987 66.41456 
L 130.806868 64.852248 
L 125.633919 63.685959 
L 120.946107 62.868698 
L 117.447977 62.430226 
L 112.864723 62.091638 
L 108.12004 62.013252 
L 103.517816 62.160578 
L 97.470756 62.576687 
L 78.416846 64.057618 
L 65.587067 64.962467 
L 60.517918 65.546894 
L 56.432465 66.233687 
L 52.887589 67.068636 
L 50.084516 67.966855 
L 48.063545 68.827829 
L 46.900438 69.470903 
L 45.652402 70.476808 
L 45.306763 71.01823 
L 45.250964 71.521921 
L 45.371177 71.815188 
L 45.866654 72.274787 
L 46.757269 72.687838 
L 48.70397 73.189721 
L 51.289852 73.589277 
L 55.134864 73.972086 
L 61.963064 74.380073 
L 70.190523 74.634429 
L 81.052531 74.730957 
L 93.820787 74.603942 
L 103.878837 74.304157 
L 112.406667 73.840707 
L 121.501937 73.127132 
L 149.48489 70.52597 
L 149.48489 70.52597 
" style="fill:none;stroke:#000000;stroke-linecap:square;stroke-opacity:0.7;stroke-width:1.2;"/>
   </g>
   <g id="line2d_6">
    <path clip-path="url(#p5f5bf30a91)" d="M 280.719789 229.144154 
L 271.428869 227.706206 
L 258.247066 225.891932 
L 242.905306 223.779637 
L 234.075338 222.292543 
L 216.552325 219.184022 
L 211.904659 218.617043 
L 208.058874 218.314936 
L 203.967965 218.197485 
L 200.345386 218.299684 
L 197.118825 218.579434 
L 193.996798 219.044399 
L 190.32902 219.874528 
L 186.956608 220.960169 
L 183.87187 222.28904 
L 181.229911 223.765532 
L 179.751659 224.786949 
L 178.182518 226.131163 
L 177.164478 227.32098 
L 176.729797 228.100449 
L 176.552291 228.946492 
L 176.633993 229.386244 
L 176.944667 229.890378 
L 177.167296 230.101563 
L 177.751627 230.479398 
L 179.231769 231.031039 
L 181.040904 231.424624 
L 184.262416 231.834882 
L 188.923743 232.129051 
L 194.780348 232.232827 
L 201.340471 232.118287 
L 208.766243 231.760628 
L 217.976462 231.05947 
L 232.358147 229.912439 
L 240.987199 229.503177 
L 251.606462 229.246837 
L 267.437603 229.116541 
L 280.717388 229.047791 
L 280.717388 229.047791 
" style="fill:none;stroke:#000000;stroke-linecap:square;stroke-opacity:0.7;stroke-width:1.2;"/>
   </g>
   <g id="line2d_7">
    <path clip-path="url(#p5f5bf30a91)" d="M 280.74262 189.610704 
L 272.246015 187.492414 
L 263.819589 185.606599 
L 256.889391 184.265616 
L 250.57874 183.278352 
L 244.887485 182.633518 
L 239.925124 182.278564 
L 233.780039 182.073759 
L 224.839101 182.045322 
L 207.355453 182.2156 
L 201.164739 182.477666 
L 196.482692 182.870353 
L 191.69977 183.528781 
L 188.251451 184.216145 
L 184.54762 185.210746 
L 181.588096 186.256221 
L 178.995653 187.449293 
L 177.490353 188.382992 
L 176.839226 188.988989 
L 176.691056 189.425006 
L 176.887334 189.643183 
L 177.229132 189.757835 
L 178.179557 189.841867 
L 180.538343 189.746222 
L 186.076616 189.228082 
L 201.734831 187.700949 
L 209.196017 187.196847 
L 215.167093 187.008292 
L 220.19712 187.056876 
L 225.981852 187.357049 
L 236.276694 188.216148 
L 246.607159 188.984468 
L 255.035127 189.384977 
L 264.609597 189.594274 
L 276.893581 189.604056 
L 280.72901 189.571441 
L 280.72901 189.571441 
" style="fill:none;stroke:#000000;stroke-linecap:square;stroke-opacity:0.7;stroke-width:1.2;"/>
   </g>
   <g id="line2d_8">
    <path clip-path="url(#p5f5bf30a91)" d="M 280.813514 150.033096 
L 269.36016 148.028531 
L 241.206877 143.221722 
L 218.347215 138.899452 
L 213.722922 138.343067 
L 209.388106 138.025939 
L 205.818453 137.938555 
L 202.213118 138.0316 
L 198.436369 138.351329 
L 195.202897 138.833101 
L 191.699206 139.610256 
L 188.396527 140.635498 
L 185.338399 141.901558 
L 183.251137 142.989416 
L 181.229261 144.275543 
L 179.473966 145.663355 
L 178.223472 146.920537 
L 177.353608 148.101746 
L 176.947117 148.950225 
L 176.788672 149.873758 
L 176.890002 150.406679 
L 177.251024 150.997141 
L 177.966794 151.559585 
L 179.417594 152.161422 
L 180.942527 152.533976 
L 184.108046 152.98051 
L 187.520426 153.225744 
L 192.115936 153.34936 
L 197.954832 153.289146 
L 205.318155 152.970966 
L 213.794066 152.371844 
L 229.000464 151.235649 
L 237.452222 150.904822 
L 251.000769 150.678971 
L 270.471684 150.323781 
L 280.806054 150.017367 
L 280.806054 150.017367 
" style="fill:none;stroke:#000000;stroke-linecap:square;stroke-opacity:0.7;stroke-width:1.2;"/>
   </g>
   <g id="line2d_9">
    <path clip-path="url(#p5f5bf30a91)" d="M 280.659439 111.198607 
L 271.29639 109.787352 
L 235.96299 104.672968 
L 216.551235 101.324814 
L 210.419975 100.582179 
L 205.601825 100.229071 
L 201.079188 100.133907 
L 196.640228 100.315701 
L 192.725509 100.759056 
L 189.313259 101.422511 
L 186.430639 102.245062 
L 184.374439 103.023777 
L 182.49476 103.921025 
L 180.607597 105.069311 
L 179.003551 106.349995 
L 177.763349 107.710296 
L 177.02029 108.933787 
L 176.664875 110.029584 
L 176.618595 110.900294 
L 176.773692 111.642968 
L 177.179206 112.439694 
L 177.652201 113.011116 
L 178.911098 113.997282 
L 180.572079 114.851894 
L 182.5707 115.59227 
L 186.185096 116.536454 
L 189.355672 117.119855 
L 192.965628 117.598766 
L 196.756486 117.93825 
L 202.451958 118.193462 
L 207.71685 118.198269 
L 213.356632 117.993799 
L 221.118441 117.443536 
L 249.011393 114.942296 
L 260.956089 113.690549 
L 272.563261 112.233112 
L 280.655746 111.082482 
L 280.655746 111.082482 
" style="fill:none;stroke:#000000;stroke-linecap:square;stroke-opacity:0.7;stroke-width:1.2;"/>
   </g>
   <g id="line2d_10">
    <path clip-path="url(#p5f5bf30a91)" d="M 280.680377 71.508791 
L 270.920487 69.818433 
L 259.715579 68.075762 
L 250.416967 66.846382 
L 242.280794 65.985356 
L 231.535478 65.102719 
L 216.515825 64.091507 
L 208.448311 63.750141 
L 202.283217 63.727023 
L 197.707416 63.918161 
L 193.054186 64.361092 
L 189.208861 64.971922 
L 185.772222 65.761884 
L 183.388255 66.488056 
L 181.285519 67.296061 
L 179.538186 68.145569 
L 178.144203 69.025652 
L 177.037476 70.028784 
L 176.56423 70.772734 
L 176.42672 71.372863 
L 176.560742 72.012393 
L 176.83302 72.43404 
L 177.454732 72.992419 
L 177.975497 73.32037 
L 179.688401 74.080214 
L 181.793089 74.728319 
L 185.20403 75.489472 
L 189.520701 76.179671 
L 195.181931 76.799385 
L 201.481764 77.21195 
L 207.874702 77.386384 
L 213.898229 77.357185 
L 222.479175 77.067852 
L 237.634782 76.256212 
L 247.943544 75.529805 
L 256.227204 74.745542 
L 264.901981 73.715727 
L 275.968342 72.16069 
L 280.696256 71.434102 
L 280.696256 71.434102 
" style="fill:none;stroke:#000000;stroke-linecap:square;stroke-opacity:0.7;stroke-width:1.2;"/>
   </g>
   <g id="line2d_11">
    <path clip-path="url(#p5f5bf30a91)" d="M 412.239103 229.024581 
L 403.833678 226.661771 
L 396.001599 224.677052 
L 390.17957 223.401029 
L 385.521422 222.560725 
L 380.545627 221.905959 
L 375.926897 221.578801 
L 372.400709 221.531721 
L 367.857951 221.723692 
L 363.119154 222.175962 
L 355.869156 223.15197 
L 345.911228 224.484 
L 340.203038 225.051909 
L 331.905108 225.625026 
L 321.479065 226.341574 
L 316.197374 226.967592 
L 312.623998 227.615623 
L 310.075108 228.319515 
L 309.051074 228.816753 
L 308.788434 229.198752 
L 308.905563 229.442904 
L 309.17757 229.638295 
L 309.845946 229.912614 
L 311.856184 230.386064 
L 315.129671 230.856589 
L 320.343843 231.332983 
L 327.531871 231.726845 
L 337.133962 231.995085 
L 367.584724 232.41171 
L 375.700066 232.322007 
L 382.748268 232.022059 
L 390.534454 231.442827 
L 398.641264 230.613809 
L 410.902598 229.116284 
L 412.23022 228.945424 
L 412.23022 228.945424 
" style="fill:none;stroke:#000000;stroke-linecap:square;stroke-opacity:0.7;stroke-width:1.2;"/>
   </g>
   <g id="line2d_12">
    <path clip-path="url(#p5f5bf30a91)" d="M 412.223914 189.894843 
L 406.489354 187.754074 
L 398.717518 185.082917 
L 393.02679 183.327816 
L 388.099346 181.991905 
L 383.649536 180.968189 
L 378.873427 180.090531 
L 374.212709 179.464623 
L 368.98529 179.019457 
L 363.253689 178.798472 
L 356.98461 178.802572 
L 349.97681 179.020882 
L 342.338939 179.448755 
L 335.042097 180.048062 
L 328.426647 180.825829 
L 323.725039 181.597961 
L 320.833882 182.213471 
L 317.682862 183.066583 
L 314.676602 184.149605 
L 312.619586 185.137484 
L 310.99332 186.17681 
L 309.975513 187.07087 
L 309.414155 187.774071 
L 309.022563 188.662001 
L 308.973561 189.175696 
L 309.208584 190.008766 
L 309.690013 190.652081 
L 310.969545 191.615225 
L 312.333458 192.298952 
L 314.807896 193.205238 
L 316.709838 193.747903 
L 320.424316 194.585861 
L 324.980136 195.350916 
L 330.188765 195.976817 
L 336.292662 196.446263 
L 342.33146 196.674057 
L 349.311144 196.688719 
L 357.219672 196.461069 
L 366.78945 195.96452 
L 376.175255 195.258612 
L 384.35667 194.408871 
L 392.116577 193.373145 
L 400.367444 192.038619 
L 410.09888 190.209832 
L 412.206267 189.781096 
L 412.206267 189.781096 
" style="fill:none;stroke:#000000;stroke-linecap:square;stroke-opacity:0.7;stroke-width:1.2;"/>
   </g>
   <g id="line2d_13">
    <path clip-path="url(#p5f5bf30a91)" d="M 412.154894 150.331881 
L 403.939395 148.586526 
L 394.553584 146.808886 
L 386.3451 145.474459 
L 379.059053 144.50838 
L 372.07547 143.788526 
L 362.761876 143.058799 
L 349.599218 142.241274 
L 341.15717 141.92877 
L 336.259337 141.925259 
L 331.345083 142.132364 
L 327.858697 142.450136 
L 324.368222 142.947189 
L 320.905606 143.654497 
L 317.457291 144.617104 
L 314.21105 145.821345 
L 311.706178 147.025468 
L 310.099193 148.00526 
L 308.987563 148.888193 
L 308.408713 149.566288 
L 308.201051 150.172329 
L 308.315176 150.550165 
L 308.663688 150.874057 
L 309.420555 151.203064 
L 310.574677 151.469993 
L 312.558112 151.718074 
L 315.934463 151.91302 
L 320.997326 151.982608 
L 328.453813 151.850493 
L 338.446341 151.426924 
L 360.751311 150.351818 
L 369.960398 150.280558 
L 412.149647 150.295778 
L 412.149647 150.295778 
" style="fill:none;stroke:#000000;stroke-linecap:square;stroke-opacity:0.7;stroke-width:1.2;"/>
   </g>
   <g id="line2d_14">
    <path clip-path="url(#p5f5bf30a91)" d="M 412.263081 110.572655 
L 397.205443 108.428864 
L 372.463058 104.927815 
L 360.334676 102.887762 
L 351.119483 101.418824 
L 345.61482 100.750915 
L 340.942159 100.377517 
L 335.767712 100.220603 
L 331.15566 100.348685 
L 327.440973 100.667727 
L 324.184202 101.13473 
L 320.479555 101.924063 
L 317.096727 102.949159 
L 314.903896 103.817564 
L 312.505488 105.022299 
L 310.632916 106.240384 
L 309.167068 107.499467 
L 308.158324 108.731855 
L 307.845522 109.286998 
L 307.529674 110.286261 
L 307.525057 110.969059 
L 307.752177 111.698786 
L 308.253144 112.402886 
L 309.187928 113.160194 
L 309.659561 113.439193 
L 310.859354 113.999115 
L 313.395583 114.819446 
L 315.500303 115.305331 
L 318.930218 115.884389 
L 323.568572 116.397386 
L 328.053267 116.685504 
L 333.958724 116.823783 
L 340.512884 116.712193 
L 347.510017 116.345871 
L 358.819705 115.460342 
L 396.471471 112.273799 
L 412.256411 110.504102 
L 412.256411 110.504102 
" style="fill:none;stroke:#000000;stroke-linecap:square;stroke-opacity:0.7;stroke-width:1.2;"/>
   </g>
   <g id="line2d_15">
    <path clip-path="url(#p5f5bf30a91)" d="M 412.260931 71.158051 
L 406.027518 68.926058 
L 399.011249 66.647442 
L 393.614165 65.107754 
L 388.531449 63.883098 
L 383.877783 63.000362 
L 379.204634 62.377181 
L 375.283968 62.065499 
L 370.543128 61.927894 
L 364.731731 62.043853 
L 356.601187 62.498542 
L 329.144924 64.350778 
L 324.6676 64.908077 
L 320.89934 65.550206 
L 317.686981 66.268763 
L 314.876598 67.070682 
L 312.282533 68.013446 
L 310.618517 68.777798 
L 308.983908 69.779662 
L 308.302421 70.420227 
L 308.010604 71.017193 
L 308.090331 71.439836 
L 308.430416 71.79897 
L 309.022995 72.114898 
L 310.295367 72.502553 
L 312.182274 72.847404 
L 315.407151 73.208356 
L 320.357691 73.52707 
L 327.558052 73.744494 
L 336.253689 73.778634 
L 346.979098 73.598016 
L 381.770992 72.618239 
L 397.372983 71.899644 
L 412.243648 71.090586 
L 412.243648 71.090586 
" style="fill:none;stroke:#000000;stroke-linecap:square;stroke-opacity:0.7;stroke-width:1.2;"/>
   </g>
   <g id="line2d_16">
    <path clip-path="url(#p5f5bf30a91)" d="M 543.690131 229.094564 
L 533.506169 227.183888 
L 521.584792 224.907541 
L 515.797248 223.635998 
L 510.037187 222.152567 
L 505.480926 220.778602 
L 499.684487 218.769795 
L 482.911645 212.569808 
L 478.395827 211.299025 
L 474.759339 210.528974 
L 471.319393 210.044989 
L 468.759828 209.856398 
L 465.406249 209.853248 
L 462.286038 210.124447 
L 459.934425 210.523194 
L 457.27027 211.201064 
L 454.225412 212.310691 
L 452.316346 213.215278 
L 450.137049 214.474845 
L 448.275653 215.769869 
L 446.030314 217.650355 
L 444.194816 219.507522 
L 442.57266 221.475497 
L 441.350873 223.273358 
L 440.369313 225.116886 
L 439.861559 226.483741 
L 439.665976 227.403909 
L 439.665972 228.50648 
L 439.839762 229.12918 
L 440.089295 229.583397 
L 440.495456 230.040694 
L 441.576394 230.714153 
L 442.968878 231.166401 
L 444.631497 231.458607 
L 447.7816 231.673712 
L 451.400495 231.642142 
L 456.414082 231.327958 
L 462.276808 230.709347 
L 470.005974 229.625379 
L 485.888491 227.234464 
L 490.454995 226.789514 
L 495.059902 226.53323 
L 500.67358 226.457486 
L 507.262247 226.617778 
L 514.932083 227.019165 
L 531.251195 228.162731 
L 543.653935 229.001019 
L 543.653935 229.001019 
" style="fill:none;stroke:#000000;stroke-linecap:square;stroke-opacity:0.7;stroke-width:1.2;"/>
   </g>
   <g id="line2d_17">
    <path clip-path="url(#p5f5bf30a91)" d="M 543.821156 189.131535 
L 531.493334 186.077651 
L 523.31563 184.27377 
L 516.918444 183.085888 
L 511.847953 182.347358 
L 506.804962 181.835362 
L 502.586784 181.591005 
L 497.430855 181.503155 
L 490.898777 181.6368 
L 476.401639 182.264076 
L 464.130872 182.918585 
L 458.736682 183.388843 
L 454.313187 183.960233 
L 450.858631 184.582509 
L 447.896608 185.288928 
L 445.214158 186.122541 
L 443.199992 186.931172 
L 441.78411 187.661852 
L 440.820969 188.32018 
L 440.149401 189.023585 
L 439.929524 189.636392 
L 440.055323 190.111328 
L 440.39099 190.496173 
L 441.096934 190.945027 
L 442.477738 191.487188 
L 444.507789 192.023767 
L 447.500701 192.588097 
L 452.35289 193.228236 
L 458.169063 193.737048 
L 464.048601 194.050883 
L 470.50426 194.207265 
L 477.958091 194.180516 
L 487.703014 193.900715 
L 500.310491 193.307852 
L 510.391864 192.617565 
L 520.039454 191.728523 
L 535.028011 190.068198 
L 543.820103 189.066637 
L 543.820103 189.066637 
" style="fill:none;stroke:#000000;stroke-linecap:square;stroke-opacity:0.7;stroke-width:1.2;"/>
   </g>
   <g id="line2d_18">
    <path clip-path="url(#p5f5bf30a91)" d="M 543.831192 149.857227 
L 536.757451 147.236594 
L 528.740586 144.51622 
L 522.769886 142.706262 
L 516.838078 141.150894 
L 511.86869 140.071793 
L 507.179286 139.257497 
L 501.479223 138.53422 
L 495.946306 138.092793 
L 489.670839 137.865136 
L 482.980953 137.895243 
L 476.597047 138.154481 
L 469.849463 138.669969 
L 463.846269 139.371331 
L 459.030976 140.151892 
L 454.699803 141.086105 
L 451.657829 141.925478 
L 448.779031 142.913619 
L 446.597684 143.833942 
L 444.638224 144.837718 
L 442.961613 145.893096 
L 441.607641 146.967562 
L 440.603225 148.038652 
L 439.989213 149.102688 
L 439.849584 149.780174 
L 439.938544 150.367405 
L 440.292915 150.96296 
L 440.945652 151.519107 
L 442.260592 152.172835 
L 443.777782 152.663224 
L 446.691855 153.294207 
L 450.22087 153.799267 
L 454.499768 154.207945 
L 460.60688 154.551689 
L 468.189795 154.709288 
L 475.933293 154.645062 
L 486.311962 154.326926 
L 503.092935 153.569637 
L 514.134715 152.847167 
L 524.969086 151.877934 
L 537.537837 150.500977 
L 543.817432 149.760421 
L 543.817432 149.760421 
" style="fill:none;stroke:#000000;stroke-linecap:square;stroke-opacity:0.7;stroke-width:1.2;"/>
   </g>
   <g id="line2d_19">
    <path clip-path="url(#p5f5bf30a91)" d="M 543.537824 111.221722 
L 536.495465 109.921715 
L 527.300602 108.424545 
L 517.744887 107.093788 
L 507.767438 105.936636 
L 476.430325 102.701574 
L 470.145793 102.332658 
L 465.654762 102.270042 
L 461.964119 102.389922 
L 457.484241 102.796442 
L 453.931873 103.364152 
L 450.831684 104.070454 
L 447.500646 105.09198 
L 445.937656 105.685213 
L 443.319798 106.89688 
L 441.805099 107.781549 
L 440.691481 108.592386 
L 439.880134 109.391243 
L 439.478104 110.081419 
L 439.453592 110.621606 
L 439.590664 110.898596 
L 440.015086 111.269027 
L 440.884739 111.644729 
L 442.237931 111.967625 
L 445.017893 112.324022 
L 449.092412 112.578573 
L 455.268927 112.71405 
L 462.953305 112.65759 
L 472.95377 112.33734 
L 500.13045 111.249024 
L 511.686926 111.186064 
L 543.539648 111.13779 
L 543.539648 111.13779 
" style="fill:none;stroke:#000000;stroke-linecap:square;stroke-opacity:0.7;stroke-width:1.2;"/>
   </g>
   <g id="line2d_20">
    <path clip-path="url(#p5f5bf30a91)" d="M 543.958462 70.293744 
L 516.915266 63.848308 
L 504.77838 60.675357 
L 495.231429 58.219798 
L 489.67496 57.025858 
L 484.741292 56.228539 
L 480.181533 55.759123 
L 476.683698 55.586525 
L 472.241229 55.609803 
L 468.998296 55.802926 
L 465.60553 56.171604 
L 461.864202 56.791212 
L 458.623434 57.530297 
L 455.60964 58.413344 
L 452.298337 59.644233 
L 449.521575 60.934691 
L 446.635074 62.594104 
L 444.660565 63.972114 
L 442.463939 65.841315 
L 440.858637 67.608478 
L 440.007741 68.920096 
L 439.622565 69.975684 
L 439.599771 70.692662 
L 439.904137 71.409143 
L 440.777812 72.096432 
L 442.034776 72.550283 
L 444.231825 72.926498 
L 447.171411 73.114743 
L 451.592503 73.101821 
L 457.525251 72.798825 
L 464.878494 72.15842 
L 474.467927 71.061635 
L 487.536822 69.536152 
L 494.661262 68.959961 
L 501.146932 68.647788 
L 508.407797 68.501688 
L 516.426907 68.550588 
L 525.137661 68.839758 
L 533.013058 69.309142 
L 542.474834 70.095299 
L 543.963765 70.236511 
L 543.963765 70.236511 
" style="fill:none;stroke:#000000;stroke-linecap:square;stroke-opacity:0.7;stroke-width:1.2;"/>
   </g>
   <g id="line2d_21">
    <path clip-path="url(#p5f5bf30a91)" d="M 675.487775 227.901956 
L 665.191243 224.641279 
L 654.268024 221.406892 
L 646.333901 219.26934 
L 638.964398 217.525547 
L 632.790733 216.307843 
L 627.147422 215.439376 
L 622.566336 214.934233 
L 617.927455 214.619934 
L 612.4485 214.508216 
L 607.478062 214.644912 
L 602.879583 214.970182 
L 598.22866 215.500838 
L 593.099146 216.351635 
L 588.666381 217.364992 
L 585.376031 218.335939 
L 582.224424 219.498908 
L 579.306072 220.84861 
L 576.98886 222.176243 
L 575.319094 223.328909 
L 573.867723 224.526096 
L 572.596306 225.824267 
L 571.765857 226.943794 
L 571.3188 227.831811 
L 571.137794 228.562585 
L 571.163095 229.154368 
L 571.495253 229.865099 
L 572.259059 230.515455 
L 573.448737 231.050516 
L 575.063681 231.48537 
L 577.947681 231.939093 
L 582.05568 232.271549 
L 587.590209 232.430992 
L 594.051603 232.367584 
L 601.346266 232.07282 
L 610.69202 231.454435 
L 639.086589 229.374985 
L 656.579054 228.370586 
L 667.727749 227.94785 
L 675.490909 227.796955 
L 675.490909 227.796955 
" style="fill:none;stroke:#000000;stroke-linecap:square;stroke-opacity:0.7;stroke-width:1.2;"/>
   </g>
   <g id="line2d_22">
    <path clip-path="url(#p5f5bf30a91)" d="M 675.098206 189.784162 
L 667.22153 188.437835 
L 657.271344 186.95358 
L 648.576306 185.862342 
L 640.501078 185.057951 
L 631.001588 184.356073 
L 609.30953 183.084141 
L 601.080951 182.786494 
L 595.940838 182.81033 
L 591.979044 183.010002 
L 588.553409 183.349781 
L 585.259031 183.853171 
L 581.323083 184.724325 
L 577.782308 185.816686 
L 575.319231 186.814149 
L 573.478252 187.783678 
L 572.339112 188.670067 
L 572.094108 189.049052 
L 572.096951 189.404549 
L 572.233625 189.581926 
L 572.718396 189.84223 
L 573.503152 190.039209 
L 574.959856 190.214707 
L 578.355944 190.337522 
L 583.329975 190.28237 
L 593.173798 189.914988 
L 611.290387 189.19884 
L 619.357243 189.154292 
L 629.209197 189.380125 
L 647.154432 189.809463 
L 659.88962 189.861483 
L 675.092827 189.693395 
L 675.092827 189.693395 
" style="fill:none;stroke:#000000;stroke-linecap:square;stroke-opacity:0.7;stroke-width:1.2;"/>
   </g>
   <g id="line2d_23">
    <path clip-path="url(#p5f5bf30a91)" d="M 675.280791 149.720095 
L 663.691436 147.281243 
L 654.366451 145.50596 
L 646.884165 144.289743 
L 641.212532 143.547934 
L 635.323621 142.977852 
L 628.765885 142.583226 
L 620.938645 142.366443 
L 610.248614 142.311071 
L 601.397802 142.444436 
L 595.670193 142.705818 
L 591.044129 143.09612 
L 587.097623 143.615312 
L 583.684532 144.251164 
L 580.41007 145.074301 
L 577.321356 146.105169 
L 574.678157 147.273656 
L 572.771026 148.419995 
L 571.792808 149.305933 
L 571.498001 149.879174 
L 571.570714 150.291102 
L 571.83919 150.559181 
L 572.465977 150.845544 
L 573.808477 151.137468 
L 575.661671 151.337852 
L 580.174128 151.53426 
L 586.896394 151.56883 
L 598.766622 151.37592 
L 619.05492 151.016828 
L 646.449084 150.820748 
L 658.038885 150.422385 
L 675.284822 149.638357 
L 675.284822 149.638357 
" style="fill:none;stroke:#000000;stroke-linecap:square;stroke-opacity:0.7;stroke-width:1.2;"/>
   </g>
   <g id="line2d_24">
    <path clip-path="url(#p5f5bf30a91)" d="M 675.29131 110.212655 
L 657.686803 107.017975 
L 639.621463 103.964967 
L 628.018549 102.186532 
L 620.849979 101.293306 
L 614.711902 100.748363 
L 609.736812 100.491641 
L 604.730241 100.418771 
L 599.132018 100.577389 
L 594.446806 100.931166 
L 590.187094 101.465626 
L 586.881534 102.058037 
L 583.614174 102.843893 
L 581.016331 103.655178 
L 578.241336 104.767645 
L 575.711461 106.094981 
L 574.114382 107.171943 
L 572.971058 108.147042 
L 572.503585 108.639093 
L 571.732868 109.810062 
L 571.573426 110.538584 
L 571.685403 111.059586 
L 571.994187 111.498529 
L 572.661729 111.976561 
L 573.920913 112.470622 
L 576.473532 113.012616 
L 579.963433 113.417836 
L 584.660593 113.712387 
L 590.923796 113.869769 
L 599.052235 113.813167 
L 606.593347 113.555541 
L 616.704874 112.9813 
L 647.912946 111.04836 
L 660.58863 110.491045 
L 674.022872 110.152449 
L 675.295548 110.129931 
L 675.295548 110.129931 
" style="fill:none;stroke:#000000;stroke-linecap:square;stroke-opacity:0.7;stroke-width:1.2;"/>
   </g>
   <g id="line2d_25">
    <path clip-path="url(#p5f5bf30a91)" d="M 675.203559 71.184373 
L 663.595924 68.486435 
L 653.856621 66.442048 
L 645.88617 64.988093 
L 638.592256 63.88534 
L 631.638895 63.061038 
L 624.064294 62.409974 
L 616.78749 62.010135 
L 609.45055 61.826883 
L 602.277057 61.887676 
L 596.510499 62.157372 
L 591.362611 62.629039 
L 587.668859 63.153333 
L 583.609668 63.978471 
L 580.882268 64.730265 
L 577.919892 65.79537 
L 576.194172 66.579511 
L 574.367467 67.605908 
L 573.010701 68.587387 
L 572.189854 69.373202 
L 571.652498 70.117544 
L 571.428103 70.704424 
L 571.412258 71.191602 
L 571.594954 71.672269 
L 571.890433 72.023346 
L 572.884888 72.648127 
L 574.230266 73.129901 
L 575.846803 73.518918 
L 579.58403 74.096314 
L 583.895548 74.500854 
L 589.47601 74.802742 
L 597.113169 74.954019 
L 605.654025 74.865116 
L 617.098411 74.477243 
L 645.940596 73.203167 
L 659.345036 72.32273 
L 675.201378 71.141672 
L 675.201378 71.141672 
" style="fill:none;stroke:#000000;stroke-linecap:square;stroke-opacity:0.7;stroke-width:1.2;"/>
   </g>
  </g>
 </g>
 <defs>
  <clipPath id="p5f5bf30a91">
   <rect height="262.08" width="694.08" x="12.96" y="12.96"/>
  </clipPath>
 </defs>
</svg>
