<?xml version="1.0" encoding="utf-8" standalone="no"?>
<!DOCTYPE svg PUBLIC "-//W3C//DTD SVG 1.1//EN"
  "http://www.w3.org/Graphics/SVG/1.1/DTD/svg11.dtd">
<!-- Created with matplotlib (https://matplotlib.org/) -->
<svg height="288pt" version="1.1" viewBox="0 0 720 288" width="720pt" xmlns="http://www.w3.org/2000/svg" xmlns:xlink="http://www.w3.org/1999/xlink">
 <metadata>
  <rdf:RDF xmlns:cc="http://creativecommons.org/ns#" xmlns:dc="http://purl.org/dc/elements/1.1/" xmlns:rdf="http://www.w3.org/1999/02/22-rdf-syntax-ns#">
   <cc:Work>
    <dc:type rdf:resource="http://purl.org/dc/dcmitype/StillImage"/>
    <dc:date>2020-11-13T19:56:10.035648</dc:date>
    <dc:format>image/svg+xml</dc:format>
    <dc:creator>
     <cc:Agent>
      <dc:title>Matplotlib v3.3.2, https://matplotlib.org/</dc:title>
     </cc:Agent>
    </dc:creator>
   </cc:Work>
  </rdf:RDF>
 </metadata>
 <defs>
  <style type="text/css">*{stroke-linecap:butt;stroke-linejoin:round;}</style>
 </defs>
 <g id="figure_1">
  <g id="patch_1">
   <path d="M 0 288 
L 720 288 
L 720 0 
L 0 0 
z
" style="fill:#ffffff;"/>
  </g>
  <g id="axes_1">
   <g id="line2d_1">
    <path clip-path="url(#pf26f74bfb6)" d="M 101.531454 232.61197 
L 91.48733 230.561499 
L 86.094092 229.669664 
L 82.341969 229.247434 
L 79.165437 229.075011 
L 75.76137 229.093582 
L 71.078413 229.376376 
L 51.961781 230.98344 
L 49.09384 231.516861 
L 46.868489 232.114526 
L 45.102345 232.790145 
L 44.6207 233.157612 
L 44.840489 233.21809 
L 46.166704 233.123166 
L 62.132786 231.463293 
L 67.415199 231.157458 
L 71.967333 231.121793 
L 78.534034 231.344353 
L 96.924533 232.209751 
L 101.527083 232.600477 
L 101.527083 232.600477 
" style="fill:none;stroke:#000000;stroke-linecap:square;stroke-opacity:0.7;stroke-width:1.2;"/>
   </g>
   <g id="line2d_2">
    <path clip-path="url(#pf26f74bfb6)" d="M 101.409356 213.850669 
L 94.144518 212.041236 
L 88.987095 210.937932 
L 84.485785 210.203154 
L 81.355029 209.890205 
L 78.146225 209.783536 
L 74.789956 209.902222 
L 70.174926 210.332386 
L 60.821771 211.27151 
L 51.148513 212.058823 
L 48.434911 212.520588 
L 46.012911 213.15738 
L 44.898616 213.668784 
L 44.929408 213.790333 
L 45.352461 213.868379 
L 46.956932 213.888287 
L 57.001218 213.603128 
L 72.432086 213.204486 
L 81.581658 213.270686 
L 94.946036 213.598062 
L 101.414969 213.84139 
L 101.414969 213.84139 
" style="fill:none;stroke:#000000;stroke-linecap:square;stroke-opacity:0.7;stroke-width:1.2;"/>
   </g>
   <g id="line2d_3">
    <path clip-path="url(#pf26f74bfb6)" d="M 101.488503 194.494861 
L 92.926921 192.631029 
L 87.175953 191.589979 
L 83.192653 191.079842 
L 79.957463 190.861809 
L 76.572356 190.85288 
L 72.874971 191.062355 
L 52.296341 192.816373 
L 49.362786 193.320834 
L 47.111414 193.904133 
L 45.389867 194.564461 
L 45.061733 194.833453 
L 45.079675 194.854415 
L 45.342946 194.901681 
L 46.80411 194.849535 
L 55.069169 194.506671 
L 63.380572 194.373633 
L 71.370962 194.470718 
L 85.560638 194.729 
L 95.16006 194.606603 
L 101.494109 194.495339 
L 101.494109 194.495339 
" style="fill:none;stroke:#000000;stroke-linecap:square;stroke-opacity:0.7;stroke-width:1.2;"/>
   </g>
   <g id="line2d_4">
    <path clip-path="url(#pf26f74bfb6)" d="M 101.561452 175.145895 
L 88.079672 172.613666 
L 83.919375 172.052003 
L 80.098592 171.769379 
L 76.76049 171.755948 
L 72.909595 171.984302 
L 50.177119 174.039692 
L 47.338598 174.592587 
L 45.353966 175.186749 
L 44.566022 175.635488 
L 44.635257 175.763072 
L 45.089299 175.87078 
L 47.016013 175.985245 
L 55.289345 176.122998 
L 67.345889 176.112673 
L 79.176468 175.892358 
L 90.601942 175.422336 
L 99.687031 175.14881 
L 101.558681 175.130483 
L 101.558681 175.130483 
" style="fill:none;stroke:#000000;stroke-linecap:square;stroke-opacity:0.7;stroke-width:1.2;"/>
   </g>
   <g id="line2d_5">
    <path clip-path="url(#pf26f74bfb6)" d="M 101.541723 156.1011 
L 90.456513 153.851772 
L 85.308267 153.033497 
L 81.883718 152.684727 
L 78.597115 152.566597 
L 75.402851 152.675595 
L 71.308655 153.069217 
L 60.900872 154.234561 
L 49.577361 155.171146 
L 47.082612 155.703831 
L 45.648118 156.210121 
L 45.229146 156.537652 
L 45.299174 156.65922 
L 45.75119 156.79097 
L 47.353615 156.930334 
L 52.977325 157.104248 
L 67.06996 157.285553 
L 78.408474 157.271663 
L 85.858703 157.02479 
L 95.978513 156.414423 
L 101.545177 156.08287 
L 101.545177 156.08287 
" style="fill:none;stroke:#000000;stroke-linecap:square;stroke-opacity:0.7;stroke-width:1.2;"/>
   </g>
   <g id="line2d_6">
    <path clip-path="url(#pf26f74bfb6)" d="M 101.549296 136.962633 
L 87.916839 134.33906 
L 83.35473 133.734985 
L 80.20693 133.520779 
L 76.792342 133.526916 
L 72.962011 133.800422 
L 58.211812 135.220195 
L 51.282242 135.72023 
L 48.255954 136.188472 
L 46.086103 136.76696 
L 45.025439 137.280529 
L 44.872354 137.582644 
L 45.039014 137.731608 
L 45.567807 137.89297 
L 47.073643 138.086263 
L 51.107151 138.325983 
L 59.156442 138.560221 
L 68.733465 138.621815 
L 77.550529 138.467919 
L 85.208118 138.101394 
L 98.132806 137.169822 
L 101.55052 136.948261 
L 101.55052 136.948261 
" style="fill:none;stroke:#000000;stroke-linecap:square;stroke-opacity:0.7;stroke-width:1.2;"/>
   </g>
   <g id="line2d_7">
    <path clip-path="url(#pf26f74bfb6)" d="M 101.450614 118.113164 
L 92.442637 116.033863 
L 87.275575 115.052609 
L 83.997591 114.606857 
L 80.699628 114.376865 
L 77.711583 114.39641 
L 74.446597 114.646013 
L 69.104706 115.328707 
L 63.393356 115.984192 
L 58.255536 116.30658 
L 51.292365 116.682439 
L 47.903626 117.117182 
L 45.785684 117.611913 
L 44.761875 118.039421 
L 44.509091 118.33301 
L 44.574109 118.480385 
L 44.976933 118.69128 
L 46.137706 118.959907 
L 49.524498 119.393006 
L 54.612969 119.802219 
L 60.703197 120.058492 
L 65.852227 120.067985 
L 72.151991 119.829437 
L 89.736625 118.768134 
L 101.45229 118.094092 
L 101.45229 118.094092 
" style="fill:none;stroke:#000000;stroke-linecap:square;stroke-opacity:0.7;stroke-width:1.2;"/>
   </g>
   <g id="line2d_8">
    <path clip-path="url(#pf26f74bfb6)" d="M 101.56897 98.65141 
L 86.893482 95.929247 
L 82.924955 95.446102 
L 80.006916 95.277469 
L 76.962227 95.311025 
L 73.654311 95.568308 
L 66.993683 96.401142 
L 61.670369 96.962294 
L 55.831337 97.332075 
L 50.177192 97.72781 
L 47.382358 98.135477 
L 45.526596 98.64512 
L 44.939045 99.029435 
L 44.936018 99.204669 
L 45.113158 99.362538 
L 45.660547 99.57487 
L 47.156837 99.893284 
L 50.720279 100.369575 
L 56.195243 100.858637 
L 62.370317 101.186761 
L 68.618734 101.288506 
L 75.096426 101.161701 
L 81.021076 100.846306 
L 87.229364 100.298555 
L 97.056448 99.143479 
L 101.563586 98.638699 
L 101.563586 98.638699 
" style="fill:none;stroke:#000000;stroke-linecap:square;stroke-opacity:0.7;stroke-width:1.2;"/>
   </g>
   <g id="line2d_9">
    <path clip-path="url(#pf26f74bfb6)" d="M 101.480102 79.822433 
L 91.642932 77.611529 
L 86.320628 76.640746 
L 82.442754 76.191606 
L 79.407156 76.078454 
L 76.37893 76.200135 
L 72.567383 76.616378 
L 62.437249 77.888824 
L 57.249251 78.197817 
L 50.292661 78.585105 
L 47.357927 79.000258 
L 45.714955 79.434509 
L 44.996594 79.794529 
L 44.8333 80.093963 
L 44.931722 80.251663 
L 45.36557 80.494641 
L 46.569107 80.83881 
L 49.167505 81.307887 
L 53.627269 81.865809 
L 58.745388 82.291308 
L 64.052891 82.516997 
L 69.243553 82.526496 
L 75.643866 82.312841 
L 83.006715 81.851044 
L 90.018877 81.191718 
L 101.467012 79.828252 
L 101.467012 79.828252 
" style="fill:none;stroke:#000000;stroke-linecap:square;stroke-opacity:0.7;stroke-width:1.2;"/>
   </g>
   <g id="line2d_10">
    <path clip-path="url(#pf26f74bfb6)" d="M 101.434921 60.804162 
L 92.175551 58.632309 
L 86.974896 57.625767 
L 83.251992 57.131013 
L 80.064083 56.952935 
L 77.016104 57.036858 
L 73.601936 57.387499 
L 60.291985 59.118429 
L 54.868321 59.401975 
L 49.408476 59.733891 
L 46.58117 60.140439 
L 45.299761 60.53188 
L 45.015517 60.823034 
L 45.119077 60.999845 
L 45.544978 61.231153 
L 46.6107 61.565372 
L 49.246323 62.141989 
L 53.570482 62.853749 
L 58.752609 63.473137 
L 63.936909 63.85149 
L 68.983441 63.973928 
L 74.625133 63.849565 
L 80.582182 63.486488 
L 86.961998 62.864411 
L 94.091076 61.917979 
L 101.427868 60.810707 
L 101.427868 60.810707 
" style="fill:none;stroke:#000000;stroke-linecap:square;stroke-opacity:0.7;stroke-width:1.2;"/>
   </g>
   <g id="line2d_11">
    <path clip-path="url(#pf26f74bfb6)" d="M 165.277555 232.662735 
L 154.725176 230.489219 
L 149.172662 229.559349 
L 145.182168 229.100283 
L 141.454119 228.893408 
L 137.043722 228.915088 
L 128.287734 229.30801 
L 119.713763 229.797933 
L 116.657354 230.172254 
L 113.811763 230.748049 
L 111.742464 231.370233 
L 109.974066 232.109473 
L 108.887339 232.786076 
L 108.754452 233.050234 
L 108.946306 233.137877 
L 109.725016 233.133836 
L 113.657216 232.693541 
L 122.828618 231.70718 
L 128.877265 231.255871 
L 133.201752 231.122261 
L 138.28202 231.190158 
L 152.319624 231.732518 
L 160.010392 232.205943 
L 165.26167 232.679591 
L 165.26167 232.679591 
" style="fill:none;stroke:#000000;stroke-linecap:square;stroke-opacity:0.7;stroke-width:1.2;"/>
   </g>
   <g id="line2d_12">
    <path clip-path="url(#pf26f74bfb6)" d="M 165.321857 213.388013 
L 151.285389 210.770974 
L 146.64063 210.141332 
L 142.814673 209.835273 
L 138.807596 209.761865 
L 133.621932 209.950516 
L 118.882626 210.861 
L 115.951546 211.243567 
L 113.145918 211.837294 
L 111.102167 212.483791 
L 109.562385 213.177099 
L 108.862691 213.722069 
L 108.899441 213.881315 
L 109.198178 213.972565 
L 110.080324 214.00565 
L 115.127997 213.799469 
L 126.252588 213.410571 
L 137.73678 213.24768 
L 159.302798 213.117134 
L 165.328493 213.376604 
L 165.328493 213.376604 
" style="fill:none;stroke:#000000;stroke-linecap:square;stroke-opacity:0.7;stroke-width:1.2;"/>
   </g>
   <g id="line2d_13">
    <path clip-path="url(#pf26f74bfb6)" d="M 165.31921 194.314976 
L 154.149579 192.096907 
L 148.728843 191.231307 
L 144.793436 190.81634 
L 141.221177 190.655888 
L 137.306249 190.709194 
L 130.491534 191.097067 
L 117.015076 192.026469 
L 113.824978 192.547255 
L 111.493398 193.145757 
L 109.97103 193.692747 
L 108.794012 194.289319 
L 108.450034 194.638184 
L 108.531927 194.770466 
L 108.975363 194.86583 
L 111.282818 194.881339 
L 127.613931 194.666619 
L 153.825189 194.532212 
L 165.315423 194.321348 
L 165.315423 194.321348 
" style="fill:none;stroke:#000000;stroke-linecap:square;stroke-opacity:0.7;stroke-width:1.2;"/>
   </g>
   <g id="line2d_14">
    <path clip-path="url(#pf26f74bfb6)" d="M 165.291565 175.265871 
L 152.739668 172.738531 
L 148.15724 172.030594 
L 144.24197 171.64588 
L 140.464296 171.53026 
L 136.651716 171.647745 
L 122.671876 172.550614 
L 117.56427 172.949367 
L 114.870152 173.328388 
L 112.2102 173.930723 
L 110.486695 174.519229 
L 109.132509 175.2212 
L 108.723356 175.673809 
L 108.809888 175.899759 
L 109.101933 176.03716 
L 109.951161 176.18438 
L 112.280795 176.313858 
L 118.888194 176.385832 
L 129.826412 176.282345 
L 142.669018 175.944409 
L 163.549572 175.270517 
L 165.286055 175.258118 
L 165.286055 175.258118 
" style="fill:none;stroke:#000000;stroke-linecap:square;stroke-opacity:0.7;stroke-width:1.2;"/>
   </g>
   <g id="line2d_15">
    <path clip-path="url(#pf26f74bfb6)" d="M 165.181326 156.443643 
L 155.655729 154.24726 
L 150.498463 153.280398 
L 146.630533 152.767158 
L 143.525872 152.547406 
L 139.779096 152.530574 
L 134.911784 152.79671 
L 125.317934 153.398387 
L 118.009139 153.837282 
L 115.109056 154.205215 
L 112.379592 154.765757 
L 110.28631 155.414731 
L 108.988106 156.01087 
L 108.481083 156.422052 
L 108.448939 156.656974 
L 108.723165 156.854665 
L 109.501714 157.047924 
L 111.89364 157.312917 
L 117.212752 157.612902 
L 123.715507 157.744251 
L 129.916497 157.632984 
L 137.412602 157.234429 
L 147.216149 156.755283 
L 156.905804 156.528414 
L 165.181083 156.449188 
L 165.181083 156.449188 
" style="fill:none;stroke:#000000;stroke-linecap:square;stroke-opacity:0.7;stroke-width:1.2;"/>
   </g>
   <g id="line2d_16">
    <path clip-path="url(#pf26f74bfb6)" d="M 165.289222 137.024353 
L 155.040235 134.880243 
L 149.472229 133.918266 
L 145.449272 133.46377 
L 142.412552 133.324288 
L 139.053592 133.389317 
L 134.291588 133.754993 
L 126.61671 134.387015 
L 115.230139 135.112356 
L 112.753842 135.522419 
L 110.953429 135.986099 
L 109.443564 136.579029 
L 108.740632 137.035643 
L 108.51168 137.383936 
L 108.578053 137.615107 
L 108.804513 137.786421 
L 109.564448 138.033356 
L 111.436479 138.313619 
L 116.174934 138.667568 
L 123.085033 138.908882 
L 130.06473 138.926806 
L 138.516016 138.701663 
L 147.893961 138.227808 
L 162.51336 137.19228 
L 165.288138 137.015888 
L 165.288138 137.015888 
" style="fill:none;stroke:#000000;stroke-linecap:square;stroke-opacity:0.7;stroke-width:1.2;"/>
   </g>
   <g id="line2d_17">
    <path clip-path="url(#pf26f74bfb6)" d="M 165.219212 118.108694 
L 155.311603 115.861224 
L 150.523819 114.96431 
L 146.476046 114.425483 
L 143.423596 114.221585 
L 140.366956 114.217994 
L 136.299251 114.469887 
L 123.587004 115.483571 
L 116.003976 115.958001 
L 113.095334 116.373475 
L 111.003093 116.860023 
L 109.539934 117.380111 
L 108.715918 117.901169 
L 108.613535 118.127685 
L 108.705572 118.311254 
L 109.111859 118.530832 
L 110.394608 118.837825 
L 113.466263 119.248854 
L 118.788415 119.69296 
L 124.629759 119.947226 
L 130.637569 119.970046 
L 138.39398 119.741783 
L 151.564474 119.149146 
L 160.340703 118.516911 
L 165.223867 118.105986 
L 165.223867 118.105986 
" style="fill:none;stroke:#000000;stroke-linecap:square;stroke-opacity:0.7;stroke-width:1.2;"/>
   </g>
   <g id="line2d_18">
    <path clip-path="url(#pf26f74bfb6)" d="M 165.186703 99.122826 
L 156.243678 96.906178 
L 150.987748 95.830404 
L 147.070945 95.270522 
L 144.121839 95.05785 
L 140.989719 95.056361 
L 137.219785 95.308834 
L 124.495048 96.431483 
L 114.896667 96.985578 
L 111.958044 97.437707 
L 109.835963 98.01835 
L 108.773842 98.550323 
L 108.521746 98.926252 
L 108.619016 99.144135 
L 109.144188 99.454042 
L 110.536269 99.851279 
L 113.109812 100.315443 
L 117.316166 100.838152 
L 122.261306 101.225966 
L 126.857028 101.382243 
L 131.71524 101.325434 
L 137.58231 101.019027 
L 165.18212 99.114756 
L 165.18212 99.114756 
" style="fill:none;stroke:#000000;stroke-linecap:square;stroke-opacity:0.7;stroke-width:1.2;"/>
   </g>
   <g id="line2d_19">
    <path clip-path="url(#pf26f74bfb6)" d="M 165.21171 79.915415 
L 155.20933 77.656686 
L 149.898454 76.67464 
L 146.250844 76.210151 
L 142.971191 76.017235 
L 139.618839 76.064532 
L 135.285186 76.400278 
L 125.245741 77.31339 
L 114.466071 78.073334 
L 112.238095 78.445442 
L 110.305775 78.962376 
L 109.253203 79.429278 
L 108.850762 79.794508 
L 108.837582 80.038574 
L 109.095542 80.287301 
L 109.591755 80.509235 
L 111.285121 80.944884 
L 114.757061 81.510688 
L 119.171319 81.998305 
L 124.656668 82.360011 
L 130.101832 82.473995 
L 136.443027 82.345783 
L 144.787994 81.938603 
L 151.921742 81.40186 
L 159.521142 80.597375 
L 165.207774 79.911313 
L 165.207774 79.911313 
" style="fill:none;stroke:#000000;stroke-linecap:square;stroke-opacity:0.7;stroke-width:1.2;"/>
   </g>
   <g id="line2d_20">
    <path clip-path="url(#pf26f74bfb6)" d="M 165.202024 60.811327 
L 156.652752 58.816597 
L 151.146541 57.715502 
L 147.09534 57.129087 
L 144.072211 56.898413 
L 140.619672 56.898401 
L 136.746856 57.184111 
L 122.87688 58.52482 
L 114.514548 59.10541 
L 111.929148 59.51106 
L 110.12994 59.983004 
L 109.143973 60.411103 
L 108.700316 60.8286 
L 108.717087 61.083265 
L 109.056522 61.378261 
L 109.828047 61.700727 
L 111.654723 62.18828 
L 115.342956 62.885207 
L 119.876687 63.503887 
L 124.423904 63.915597 
L 129.152969 64.118931 
L 134.047555 64.09154 
L 139.947877 63.817464 
L 146.687508 63.288894 
L 153.287949 62.552165 
L 161.100484 61.434652 
L 165.19651 60.802342 
L 165.19651 60.802342 
" style="fill:none;stroke:#000000;stroke-linecap:square;stroke-opacity:0.7;stroke-width:1.2;"/>
   </g>
   <g id="line2d_21">
    <path clip-path="url(#pf26f74bfb6)" d="M 229.153552 232.296633 
L 218.626557 230.533568 
L 211.204284 229.387205 
L 206.795368 228.906483 
L 202.825172 228.675091 
L 198.013827 228.62519 
L 190.928182 228.806531 
L 185.46199 229.112834 
L 181.550757 229.539229 
L 178.598203 230.090412 
L 176.621776 230.632161 
L 174.878252 231.277428 
L 173.128185 232.190698 
L 172.404671 232.813156 
L 172.338921 233.051735 
L 172.510644 233.192078 
L 172.929078 233.258064 
L 174.277829 233.216515 
L 180.787795 232.609896 
L 190.095245 231.827059 
L 196.097934 231.529445 
L 202.062141 231.486024 
L 221.063482 231.737018 
L 226.848334 232.080963 
L 229.150847 232.287115 
L 229.150847 232.287115 
" style="fill:none;stroke:#000000;stroke-linecap:square;stroke-opacity:0.7;stroke-width:1.2;"/>
   </g>
   <g id="line2d_22">
    <path clip-path="url(#pf26f74bfb6)" d="M 229.059171 213.517435 
L 215.760476 210.845402 
L 210.923971 210.087523 
L 206.528946 209.641561 
L 203.116399 209.494965 
L 198.250088 209.543108 
L 188.626124 209.968043 
L 182.887905 210.366948 
L 179.952588 210.762495 
L 177.442968 211.311915 
L 175.318778 212.010902 
L 173.651783 212.807327 
L 172.768936 213.490304 
L 172.682222 213.769868 
L 172.812463 213.906262 
L 173.268234 214.031399 
L 174.777386 214.106028 
L 179.848429 213.995998 
L 202.5911 213.360998 
L 220.680209 213.352855 
L 229.045834 213.53073 
L 229.045834 213.53073 
" style="fill:none;stroke:#000000;stroke-linecap:square;stroke-opacity:0.7;stroke-width:1.2;"/>
   </g>
   <g id="line2d_23">
    <path clip-path="url(#pf26f74bfb6)" d="M 229.084667 194.315481 
L 214.119644 191.542255 
L 209.472066 190.919232 
L 205.41634 190.591977 
L 201.075383 190.485446 
L 195.860049 190.585757 
L 185.647815 191.024093 
L 181.294043 191.418589 
L 178.398077 191.894085 
L 176.252851 192.425274 
L 174.360107 193.078009 
L 172.862738 193.79571 
L 172.063256 194.413661 
L 172.0265 194.659465 
L 172.23244 194.784437 
L 173.053416 194.897143 
L 175.89101 194.931998 
L 216.826419 194.601766 
L 229.093068 194.310096 
L 229.093068 194.310096 
" style="fill:none;stroke:#000000;stroke-linecap:square;stroke-opacity:0.7;stroke-width:1.2;"/>
   </g>
   <g id="line2d_24">
    <path clip-path="url(#pf26f74bfb6)" d="M 228.99124 175.485667 
L 219.007371 173.273262 
L 213.697032 172.287151 
L 209.344017 171.69733 
L 205.40507 171.40849 
L 201.519018 171.351731 
L 195.74871 171.518315 
L 184.762298 172.044968 
L 180.957952 172.428239 
L 178.21512 172.918763 
L 176.055545 173.512917 
L 174.025833 174.337368 
L 172.909656 175.01526 
L 172.433733 175.531076 
L 172.40308 175.764123 
L 172.575529 175.972803 
L 173.07012 176.161538 
L 174.304197 176.345182 
L 177.600214 176.520838 
L 183.6628 176.596182 
L 190.777178 176.483068 
L 198.948067 176.111523 
L 210.465241 175.581072 
L 218.888875 175.427519 
L 228.981717 175.489687 
L 228.981717 175.489687 
" style="fill:none;stroke:#000000;stroke-linecap:square;stroke-opacity:0.7;stroke-width:1.2;"/>
   </g>
   <g id="line2d_25">
    <path clip-path="url(#pf26f74bfb6)" d="M 229.007655 156.318556 
L 218.980979 154.12001 
L 213.100764 153.040525 
L 209.296571 152.540548 
L 205.469067 152.275733 
L 201.381986 152.267048 
L 195.516341 152.554725 
L 181.003593 153.512442 
L 177.95974 154.025625 
L 175.83966 154.593399 
L 173.960812 155.338934 
L 173.021719 155.902556 
L 172.598488 156.392571 
L 172.620094 156.654565 
L 172.92712 156.897786 
L 173.797968 157.154907 
L 175.965396 157.439903 
L 180.195065 157.706366 
L 186.366805 157.848229 
L 192.506501 157.773937 
L 200.138451 157.431293 
L 215.550875 156.709119 
L 228.446276 156.339886 
L 229.00551 156.327701 
L 229.00551 156.327701 
" style="fill:none;stroke:#000000;stroke-linecap:square;stroke-opacity:0.7;stroke-width:1.2;"/>
   </g>
   <g id="line2d_26">
    <path clip-path="url(#pf26f74bfb6)" d="M 229.029087 137.092116 
L 216.88089 134.533646 
L 211.849181 133.697177 
L 207.836755 133.271156 
L 204.700246 133.139848 
L 200.430761 133.223601 
L 185.639454 134.048665 
L 181.072866 134.397274 
L 178.286957 134.810114 
L 176.033146 135.354367 
L 174.274464 135.997915 
L 173.25687 136.544974 
L 172.657144 137.063014 
L 172.506271 137.508152 
L 172.672082 137.774783 
L 172.995429 137.97286 
L 173.837849 138.237213 
L 175.810099 138.557567 
L 179.742831 138.907443 
L 185.807489 139.174325 
L 191.68057 139.193037 
L 197.571889 138.967644 
L 207.118615 138.310004 
L 220.864851 137.396101 
L 229.035104 137.085793 
L 229.035104 137.085793 
" style="fill:none;stroke:#000000;stroke-linecap:square;stroke-opacity:0.7;stroke-width:1.2;"/>
   </g>
   <g id="line2d_27">
    <path clip-path="url(#pf26f74bfb6)" d="M 228.950238 118.228322 
L 219.786669 116.06517 
L 214.512354 115.008665 
L 210.160769 114.367694 
L 206.872483 114.096041 
L 203.128597 114.033138 
L 198.582589 114.213611 
L 180.517196 115.367856 
L 177.718527 115.817478 
L 175.461739 116.395656 
L 174.025012 116.940038 
L 173.097005 117.470904 
L 172.714827 117.945664 
L 172.795665 118.243872 
L 173.168335 118.502714 
L 174.207871 118.839512 
L 176.64853 119.284377 
L 180.646899 119.750877 
L 185.740172 120.115849 
L 190.914793 120.259393 
L 195.961036 120.166491 
L 202.237725 119.798735 
L 218.592951 118.749015 
L 228.94585 118.230083 
L 228.94585 118.230083 
" style="fill:none;stroke:#000000;stroke-linecap:square;stroke-opacity:0.7;stroke-width:1.2;"/>
   </g>
   <g id="line2d_28">
    <path clip-path="url(#pf26f74bfb6)" d="M 228.93999 99.129812 
L 221.151273 97.199258 
L 215.59579 96.00513 
L 211.300557 95.305798 
L 207.856231 94.974306 
L 204.89387 94.884709 
L 201.26677 94.991756 
L 193.289065 95.56754 
L 185.239367 96.006476 
L 180.233983 96.355303 
L 178.130954 96.627458 
L 175.378749 97.209641 
L 173.638205 97.812218 
L 172.782035 98.271025 
L 172.331783 98.715588 
L 172.302157 99.038315 
L 172.496479 99.27994 
L 173.153863 99.62008 
L 174.880938 100.096624 
L 177.565744 100.578094 
L 181.876408 101.103325 
L 186.615037 101.445788 
L 191.311868 101.561525 
L 196.428558 101.442795 
L 204.394423 100.961678 
L 223.073711 99.602421 
L 228.943873 99.107614 
L 228.943873 99.107614 
" style="fill:none;stroke:#000000;stroke-linecap:square;stroke-opacity:0.7;stroke-width:1.2;"/>
   </g>
   <g id="line2d_29">
    <path clip-path="url(#pf26f74bfb6)" d="M 229.020868 79.750428 
L 217.611361 77.383344 
L 212.394627 76.520358 
L 208.502866 76.112136 
L 205.057387 75.989098 
L 201.56373 76.083104 
L 193.697415 76.624316 
L 186.837133 76.968294 
L 180.754269 77.340433 
L 178.011494 77.694261 
L 175.539748 78.218443 
L 173.655963 78.849687 
L 172.478341 79.514257 
L 172.166603 79.919344 
L 172.205935 80.226867 
L 172.471946 80.475229 
L 173.162224 80.78354 
L 174.852021 81.219785 
L 178.321103 81.810343 
L 182.667423 82.328211 
L 187.852403 82.709405 
L 192.750588 82.831796 
L 197.604365 82.729314 
L 204.111182 82.351136 
L 212.865937 81.614355 
L 221.593255 80.642374 
L 229.020557 79.738133 
L 229.020557 79.738133 
" style="fill:none;stroke:#000000;stroke-linecap:square;stroke-opacity:0.7;stroke-width:1.2;"/>
   </g>
   <g id="line2d_30">
    <path clip-path="url(#pf26f74bfb6)" d="M 229.00643 60.697196 
L 215.208822 57.796055 
L 210.871504 57.157373 
L 207.779116 56.896968 
L 204.297613 56.838858 
L 200.405452 57.020396 
L 183.413886 58.133761 
L 179.387027 58.449029 
L 176.873078 58.811604 
L 174.682076 59.3406 
L 173.39532 59.83885 
L 172.528648 60.418175 
L 172.321589 60.753948 
L 172.374613 61.096107 
L 172.622542 61.349344 
L 173.337575 61.712445 
L 175.099383 62.235575 
L 178.050329 62.842033 
L 182.392404 63.492688 
L 186.982649 63.955744 
L 191.745732 64.204172 
L 196.638241 64.222175 
L 202.85689 63.984188 
L 210.133594 63.469337 
L 216.223734 62.804808 
L 222.038549 61.931857 
L 228.990703 60.709011 
L 228.990703 60.709011 
" style="fill:none;stroke:#000000;stroke-linecap:square;stroke-opacity:0.7;stroke-width:1.2;"/>
   </g>
   <g id="line2d_31">
    <path clip-path="url(#pf26f74bfb6)" d="M 292.731539 232.89809 
L 285.530326 231.228123 
L 278.649845 229.808729 
L 273.523125 228.980453 
L 269.650997 228.559802 
L 265.248385 228.31746 
L 259.831133 228.279034 
L 252.387935 228.475975 
L 247.927333 228.769895 
L 244.268023 229.255944 
L 241.482165 229.900695 
L 239.542324 230.565262 
L 237.680047 231.455519 
L 236.552011 232.232065 
L 236.151007 232.778983 
L 236.239386 232.970276 
L 236.628823 233.095981 
L 237.44524 233.131384 
L 240.598627 232.932631 
L 261.291266 231.266171 
L 266.387759 231.193693 
L 273.169333 231.362192 
L 280.331761 231.757354 
L 288.190342 232.423539 
L 292.721288 232.897571 
L 292.721288 232.897571 
" style="fill:none;stroke:#000000;stroke-linecap:square;stroke-opacity:0.7;stroke-width:1.2;"/>
   </g>
   <g id="line2d_32">
    <path clip-path="url(#pf26f74bfb6)" d="M 292.773704 213.649371 
L 280.83495 211.156405 
L 274.895571 210.140934 
L 270.353311 209.594168 
L 265.912215 209.301588 
L 260.743278 209.204739 
L 253.883495 209.305384 
L 249.119923 209.549546 
L 245.535574 209.948243 
L 242.594767 210.527689 
L 240.221147 211.250924 
L 238.685445 211.896742 
L 237.337076 212.653279 
L 236.500898 213.342098 
L 236.273234 213.74239 
L 236.367196 213.999551 
L 236.815924 214.181463 
L 238.100052 214.284005 
L 241.519245 214.225772 
L 257.783544 213.565721 
L 270.658166 213.133054 
L 278.563967 213.097274 
L 285.632462 213.286592 
L 292.77134 213.664468 
L 292.77134 213.664468 
" style="fill:none;stroke:#000000;stroke-linecap:square;stroke-opacity:0.7;stroke-width:1.2;"/>
   </g>
   <g id="line2d_33">
    <path clip-path="url(#pf26f74bfb6)" d="M 292.823393 194.346937 
L 278.343649 191.674036 
L 272.603932 190.850341 
L 268.490659 190.457613 
L 263.891158 190.232075 
L 257.643918 190.176971 
L 251.198097 190.337255 
L 247.393039 190.616236 
L 244.228586 191.055482 
L 241.707213 191.614318 
L 239.28224 192.403955 
L 237.713292 193.109996 
L 236.347836 193.976492 
L 235.883651 194.518405 
L 235.908558 194.814801 
L 236.262187 195.027774 
L 237.310019 195.217819 
L 240.120457 195.377448 
L 246.393967 195.463067 
L 253.839364 195.35018 
L 261.21609 194.997033 
L 275.810745 194.19634 
L 282.614152 194.071857 
L 289.171053 194.181603 
L 292.83032 194.330504 
L 292.83032 194.330504 
" style="fill:none;stroke:#000000;stroke-linecap:square;stroke-opacity:0.7;stroke-width:1.2;"/>
   </g>
   <g id="line2d_34">
    <path clip-path="url(#pf26f74bfb6)" d="M 292.793666 175.319148 
L 280.037061 172.823969 
L 274.277683 171.9188 
L 269.516008 171.41693 
L 265.228499 171.195349 
L 259.334918 171.15322 
L 252.051261 171.329864 
L 247.588434 171.623723 
L 244.363913 172.037303 
L 241.846795 172.557804 
L 239.474218 173.286035 
L 237.742295 174.043488 
L 236.656543 174.711804 
L 236.067345 175.336906 
L 236.061245 175.67821 
L 236.381837 175.928326 
L 237.236665 176.163215 
L 239.475224 176.426824 
L 243.907112 176.682652 
L 249.985327 176.814752 
L 256.007436 176.715588 
L 261.643539 176.39898 
L 277.112647 175.387533 
L 284.259164 175.230652 
L 291.584285 175.296669 
L 292.791668 175.323795 
L 292.791668 175.323795 
" style="fill:none;stroke:#000000;stroke-linecap:square;stroke-opacity:0.7;stroke-width:1.2;"/>
   </g>
   <g id="line2d_35">
    <path clip-path="url(#pf26f74bfb6)" d="M 292.753253 156.35022 
L 282.34384 154.09492 
L 276.39815 153.022522 
L 272.132888 152.469093 
L 268.066621 152.174188 
L 263.52468 152.091872 
L 256.512567 152.231533 
L 249.402854 152.549645 
L 245.592906 152.92527 
L 242.795636 153.411044 
L 240.451557 154.038919 
L 238.332378 154.875875 
L 236.973266 155.672336 
L 236.4337 156.19515 
L 236.345127 156.599867 
L 236.605391 156.859896 
L 237.335023 157.108374 
L 238.691029 157.334511 
L 242.424477 157.668442 
L 247.753375 157.914448 
L 253.845541 157.968447 
L 259.491818 157.78865 
L 267.049933 157.284769 
L 276.115043 156.722715 
L 283.923493 156.462925 
L 292.748905 156.351397 
L 292.748905 156.351397 
" style="fill:none;stroke:#000000;stroke-linecap:square;stroke-opacity:0.7;stroke-width:1.2;"/>
   </g>
   <g id="line2d_36">
    <path clip-path="url(#pf26f74bfb6)" d="M 292.786445 137.142505 
L 281.351407 134.750989 
L 275.586286 133.776896 
L 271.640994 133.316776 
L 267.736775 133.082703 
L 263.331807 133.060224 
L 256.201574 133.305643 
L 247.971256 133.772502 
L 244.193629 134.209147 
L 241.403187 134.778062 
L 239.24872 135.467202 
L 237.753425 136.168841 
L 236.844704 136.824746 
L 236.588186 137.264816 
L 236.691182 137.52439 
L 237.0887 137.754373 
L 238.383976 138.058962 
L 241.300934 138.409887 
L 246.430004 138.78322 
L 252.559765 139.004773 
L 258.319567 138.985876 
L 264.790757 138.710014 
L 292.786722 137.136179 
L 292.786722 137.136179 
" style="fill:none;stroke:#000000;stroke-linecap:square;stroke-opacity:0.7;stroke-width:1.2;"/>
   </g>
   <g id="line2d_37">
    <path clip-path="url(#pf26f74bfb6)" d="M 292.86879 117.744444 
L 272.73076 114.340207 
L 268.987531 114.040198 
L 264.975707 113.955335 
L 260.056154 114.088235 
L 248.679931 114.680344 
L 244.869549 115.040374 
L 241.980031 115.533324 
L 239.85314 116.130205 
L 238.407348 116.736925 
L 237.376758 117.374025 
L 236.901754 117.836925 
L 236.702371 118.331745 
L 236.810666 118.623965 
L 237.15839 118.890306 
L 237.819623 119.134662 
L 239.445717 119.453298 
L 242.815505 119.83522 
L 248.443477 120.230955 
L 254.2423 120.427267 
L 260.076188 120.391249 
L 265.941658 120.129547 
L 273.553105 119.552236 
L 292.865021 117.736375 
L 292.865021 117.736375 
" style="fill:none;stroke:#000000;stroke-linecap:square;stroke-opacity:0.7;stroke-width:1.2;"/>
   </g>
   <g id="line2d_38">
    <path clip-path="url(#pf26f74bfb6)" d="M 292.774829 98.957842 
L 280.182043 96.24506 
L 275.547555 95.455404 
L 271.660046 95.01231 
L 268.080935 94.83723 
L 264.287455 94.880413 
L 258.169417 95.219647 
L 243.563379 96.22398 
L 240.883863 96.697094 
L 238.755186 97.311166 
L 237.492995 97.865285 
L 236.615047 98.501322 
L 236.399852 98.914065 
L 236.495893 99.252062 
L 236.935749 99.605396 
L 237.847493 99.97724 
L 239.480385 100.397113 
L 242.738386 100.95463 
L 246.696061 101.403795 
L 250.941395 101.691803 
L 255.734089 101.794369 
L 260.420948 101.676136 
L 267.050634 101.251835 
L 279.529734 100.186363 
L 292.771279 98.951565 
L 292.771279 98.951565 
" style="fill:none;stroke:#000000;stroke-linecap:square;stroke-opacity:0.7;stroke-width:1.2;"/>
   </g>
   <g id="line2d_39">
    <path clip-path="url(#pf26f74bfb6)" d="M 292.789417 79.779686 
L 280.047118 77.075363 
L 275.343235 76.292957 
L 271.481393 75.880227 
L 268.320914 75.74638 
L 264.295102 75.818845 
L 255.891584 76.319534 
L 243.948175 77.084308 
L 240.972461 77.582106 
L 239.132176 78.081823 
L 237.745899 78.63623 
L 236.78848 79.23028 
L 236.434319 79.623939 
L 236.34494 80.046237 
L 236.49021 80.320803 
L 236.890212 80.626025 
L 237.841998 81.01781 
L 239.953336 81.543866 
L 243.661779 82.159295 
L 248.607907 82.707405 
L 253.1614 82.998236 
L 257.867403 83.08423 
L 262.892078 82.949272 
L 268.977468 82.56098 
L 276.646581 81.839871 
L 285.389384 80.76866 
L 292.783452 79.768177 
L 292.783452 79.768177 
" style="fill:none;stroke:#000000;stroke-linecap:square;stroke-opacity:0.7;stroke-width:1.2;"/>
   </g>
   <g id="line2d_40">
    <path clip-path="url(#pf26f74bfb6)" d="M 292.821013 60.544325 
L 278.00252 57.615421 
L 274.057574 57.050536 
L 270.349059 56.738804 
L 266.596399 56.678284 
L 262.005284 56.866786 
L 243.774458 58.050344 
L 241.107067 58.46873 
L 238.86277 59.04711 
L 237.484654 59.600375 
L 236.591066 60.171906 
L 236.267342 60.570348 
L 236.222399 60.932322 
L 236.373249 61.193288 
L 236.795355 61.501915 
L 237.864277 61.927903 
L 239.932441 62.460481 
L 243.974141 63.208948 
L 248.602645 63.832532 
L 253.465796 64.261596 
L 258.206712 64.447224 
L 262.818399 64.406323 
L 267.944495 64.140825 
L 273.864695 63.59923 
L 279.653559 62.84395 
L 286.549722 61.693709 
L 292.807245 60.552193 
L 292.807245 60.552193 
" style="fill:none;stroke:#000000;stroke-linecap:square;stroke-opacity:0.7;stroke-width:1.2;"/>
   </g>
   <g id="line2d_41">
    <path clip-path="url(#pf26f74bfb6)" d="M 356.605536 232.565257 
L 338.04563 229.063726 
L 332.995611 228.378514 
L 328.697396 228.012946 
L 323.944901 227.847159 
L 318.501106 227.906862 
L 313.688797 228.165016 
L 309.826606 228.581742 
L 306.947902 229.105688 
L 304.701316 229.714915 
L 302.561944 230.536484 
L 300.867347 231.456614 
L 300.046207 232.095578 
L 299.668648 232.690318 
L 299.756077 232.901443 
L 300.095663 233.057847 
L 301.000687 233.15185 
L 303.408621 233.091326 
L 311.173646 232.554577 
L 324.311896 231.651516 
L 329.983478 231.537253 
L 337.783504 231.648354 
L 347.862445 232.010417 
L 356.196537 232.528908 
L 356.598691 232.560313 
L 356.598691 232.560313 
" style="fill:none;stroke:#000000;stroke-linecap:square;stroke-opacity:0.7;stroke-width:1.2;"/>
   </g>
   <g id="line2d_42">
    <path clip-path="url(#pf26f74bfb6)" d="M 356.532912 213.659624 
L 345.803184 211.43431 
L 338.177644 210.039969 
L 332.884161 209.304081 
L 328.645917 208.924587 
L 323.945375 208.726433 
L 319.287941 208.72617 
L 314.528279 208.919637 
L 310.529574 209.296522 
L 307.550845 209.791652 
L 305.519719 210.291191 
L 303.415258 211.005568 
L 301.469978 211.923701 
L 300.320747 212.668346 
L 299.604895 213.391737 
L 299.549179 213.728999 
L 299.776166 213.926109 
L 300.295672 214.058358 
L 302.188844 214.165649 
L 307.180895 214.109398 
L 315.629678 213.798717 
L 333.843911 213.013775 
L 340.793724 213.05389 
L 350.277414 213.347507 
L 356.533332 213.657888 
L 356.533332 213.657888 
" style="fill:none;stroke:#000000;stroke-linecap:square;stroke-opacity:0.7;stroke-width:1.2;"/>
   </g>
   <g id="line2d_43">
    <path clip-path="url(#pf26f74bfb6)" d="M 356.605696 194.303736 
L 336.412183 190.694589 
L 331.785498 190.171796 
L 327.456908 189.898268 
L 322.31818 189.805961 
L 316.549975 189.932873 
L 312.447993 190.208723 
L 309.241293 190.620698 
L 306.946538 191.091904 
L 304.544159 191.826576 
L 302.934519 192.520225 
L 301.332202 193.480023 
L 300.467888 194.297622 
L 300.307678 194.730239 
L 300.458043 194.98647 
L 300.933972 195.183019 
L 301.981823 195.328996 
L 305.171782 195.444117 
L 312.720376 195.438154 
L 321.002904 195.24204 
L 331.500526 194.736531 
L 342.019733 194.30398 
L 349.744395 194.208609 
L 356.604031 194.311105 
L 356.604031 194.311105 
" style="fill:none;stroke:#000000;stroke-linecap:square;stroke-opacity:0.7;stroke-width:1.2;"/>
   </g>
   <g id="line2d_44">
    <path clip-path="url(#pf26f74bfb6)" d="M 356.544285 175.382598 
L 340.084789 172.176432 
L 334.965313 171.42313 
L 330.169156 170.953422 
L 325.49981 170.730056 
L 320.400074 170.701434 
L 315.271041 170.874114 
L 310.886989 171.251114 
L 307.883194 171.727756 
L 305.450731 172.331355 
L 303.259312 173.136523 
L 301.898347 173.838148 
L 300.863155 174.578556 
L 300.324058 175.196151 
L 300.212303 175.607142 
L 300.346909 175.875365 
L 300.763342 176.112809 
L 301.614315 176.314588 
L 303.7101 176.532423 
L 308.241768 176.746236 
L 314.859905 176.832489 
L 320.660446 176.698746 
L 327.268352 176.305548 
L 337.738083 175.653713 
L 345.63429 175.416055 
L 355.2084 175.38361 
L 356.537742 175.394232 
L 356.537742 175.394232 
" style="fill:none;stroke:#000000;stroke-linecap:square;stroke-opacity:0.7;stroke-width:1.2;"/>
   </g>
   <g id="line2d_45">
    <path clip-path="url(#pf26f74bfb6)" d="M 356.635 155.987483 
L 344.795848 153.860024 
L 337.575541 152.660012 
L 332.727635 152.066238 
L 328.618355 151.779251 
L 324.169161 151.687611 
L 318.848707 151.794282 
L 313.689272 152.075971 
L 309.731272 152.474954 
L 306.705034 152.993017 
L 304.640172 153.528813 
L 302.98481 154.123344 
L 301.486912 154.862486 
L 300.43424 155.618002 
L 299.974 156.196373 
L 299.922813 156.594485 
L 300.136617 156.889758 
L 300.471891 157.080929 
L 301.196416 157.307488 
L 303.273065 157.635577 
L 307.077639 157.94173 
L 312.7617 158.150378 
L 318.398487 158.15024 
L 324.377961 157.929283 
L 332.860597 157.344952 
L 348.663751 156.235438 
L 355.951629 155.986701 
L 356.630338 155.975154 
L 356.630338 155.975154 
" style="fill:none;stroke:#000000;stroke-linecap:square;stroke-opacity:0.7;stroke-width:1.2;"/>
   </g>
   <g id="line2d_46">
    <path clip-path="url(#pf26f74bfb6)" d="M 356.555487 137.093932 
L 341.649611 134.174245 
L 336.564945 133.393614 
L 332.523233 132.965759 
L 328.436143 132.732918 
L 322.761468 132.665898 
L 316.177755 132.820688 
L 311.641158 133.118048 
L 308.573392 133.502897 
L 305.856882 134.058547 
L 303.745779 134.703571 
L 302.226659 135.343823 
L 300.998702 136.047922 
L 300.126458 136.820862 
L 299.936245 137.161199 
L 299.933268 137.512556 
L 300.239534 137.851858 
L 300.829825 138.114491 
L 302.271653 138.450687 
L 305.183173 138.848296 
L 309.807399 139.24062 
L 314.751961 139.44804 
L 319.662372 139.429004 
L 324.480566 139.175389 
L 331.70711 138.517254 
L 341.287637 137.688679 
L 348.777161 137.280514 
L 356.560224 137.087054 
L 356.560224 137.087054 
" style="fill:none;stroke:#000000;stroke-linecap:square;stroke-opacity:0.7;stroke-width:1.2;"/>
   </g>
   <g id="line2d_47">
    <path clip-path="url(#pf26f74bfb6)" d="M 356.579403 117.942183 
L 339.25508 114.614636 
L 334.651356 114.021966 
L 330.793345 113.745643 
L 326.3553 113.671012 
L 320.448597 113.819652 
L 312.385721 114.23469 
L 308.772037 114.596604 
L 306.026638 115.074093 
L 303.740771 115.715257 
L 302.228167 116.344398 
L 301.001345 117.084167 
L 300.420495 117.616102 
L 300.107259 118.215865 
L 300.156016 118.537068 
L 300.409045 118.819592 
L 301.023212 119.11233 
L 302.372741 119.427583 
L 305.439993 119.804454 
L 310.374192 120.144076 
L 316.381356 120.328044 
L 322.259905 120.301423 
L 330.989805 119.999278 
L 340.787297 119.458646 
L 348.423735 118.80555 
L 356.57222 117.949785 
L 356.57222 117.949785 
" style="fill:none;stroke:#000000;stroke-linecap:square;stroke-opacity:0.7;stroke-width:1.2;"/>
   </g>
   <g id="line2d_48">
    <path clip-path="url(#pf26f74bfb6)" d="M 356.486513 99.107568 
L 344.113897 96.276332 
L 339.292274 95.39842 
L 335.391421 94.897302 
L 332.142816 94.664173 
L 328.094855 94.595737 
L 322.656744 94.756602 
L 312.949487 95.298582 
L 308.78039 95.695533 
L 305.667097 96.215107 
L 303.382609 96.834236 
L 301.555697 97.599992 
L 300.753735 98.098436 
L 300.10438 98.788878 
L 300.02579 99.166899 
L 300.217336 99.531522 
L 300.762733 99.886762 
L 302.042365 100.311219 
L 304.805785 100.848067 
L 309.1287 101.390469 
L 314.251923 101.778176 
L 318.816742 101.905072 
L 323.449037 101.804867 
L 328.53576 101.461373 
L 356.487081 99.085292 
L 356.487081 99.085292 
" style="fill:none;stroke:#000000;stroke-linecap:square;stroke-opacity:0.7;stroke-width:1.2;"/>
   </g>
   <g id="line2d_49">
    <path clip-path="url(#pf26f74bfb6)" d="M 356.461663 80.052978 
L 350.793567 78.606762 
L 344.306416 77.098815 
L 339.553614 76.207133 
L 335.749407 75.723419 
L 332.058952 75.505893 
L 328.374446 75.523721 
L 322.305754 75.847409 
L 312.617044 76.351433 
L 308.045405 76.645514 
L 305.141929 77.046981 
L 302.87295 77.61373 
L 301.464237 78.166946 
L 300.29147 78.885994 
L 299.798214 79.431101 
L 299.662259 79.855617 
L 299.751909 80.214971 
L 300.081927 80.579829 
L 300.751812 80.966882 
L 302.552296 81.572215 
L 305.545035 82.215475 
L 309.275066 82.765759 
L 313.335172 83.153804 
L 317.642584 83.353475 
L 322.639053 83.32981 
L 328.285582 83.057496 
L 338.510434 82.301909 
L 345.445372 81.591606 
L 352.446395 80.642649 
L 356.456211 80.022787 
L 356.456211 80.022787 
" style="fill:none;stroke:#000000;stroke-linecap:square;stroke-opacity:0.7;stroke-width:1.2;"/>
   </g>
   <g id="line2d_50">
    <path clip-path="url(#pf26f74bfb6)" d="M 356.609534 60.470443 
L 338.575181 57.147387 
L 334.921996 56.7406 
L 331.064768 56.539483 
L 326.573819 56.562519 
L 317.397132 56.930667 
L 310.895903 57.309924 
L 307.366311 57.710189 
L 304.947584 58.174446 
L 302.787571 58.826423 
L 301.359522 59.493081 
L 300.489032 60.149861 
L 300.15333 60.717466 
L 300.22073 61.159228 
L 300.573295 61.534327 
L 301.105431 61.841849 
L 302.675161 62.406613 
L 305.691528 63.13953 
L 309.802775 63.878784 
L 314.101209 64.433554 
L 318.430714 64.768692 
L 322.348602 64.86365 
L 326.207225 64.763604 
L 331.052266 64.404804 
L 336.21572 63.804204 
L 342.606799 62.835516 
L 356.59483 60.470089 
L 356.59483 60.470089 
" style="fill:none;stroke:#000000;stroke-linecap:square;stroke-opacity:0.7;stroke-width:1.2;"/>
   </g>
   <g id="line2d_51">
    <path clip-path="url(#pf26f74bfb6)" d="M 420.319819 232.734668 
L 403.955789 229.340588 
L 397.952423 228.325993 
L 393.330533 227.789228 
L 388.816406 227.523797 
L 384.221807 227.495844 
L 379.37234 227.698582 
L 375.610789 228.050044 
L 372.242897 228.599855 
L 369.734334 229.244735 
L 367.421238 230.103967 
L 365.572033 231.04889 
L 364.144005 232.060631 
L 363.678953 232.613167 
L 363.679026 232.931784 
L 363.891301 233.079776 
L 364.69898 233.221206 
L 366.582281 233.230467 
L 371.61441 232.938158 
L 379.785869 232.207636 
L 391.22169 231.146479 
L 395.693223 230.996194 
L 401.101906 231.054162 
L 407.026423 231.34922 
L 413.374722 231.903293 
L 420.319641 232.73485 
L 420.319641 232.73485 
" style="fill:none;stroke:#000000;stroke-linecap:square;stroke-opacity:0.7;stroke-width:1.2;"/>
   </g>
   <g id="line2d_52">
    <path clip-path="url(#pf26f74bfb6)" d="M 420.34603 213.499072 
L 398.938531 209.533214 
L 393.857167 208.871333 
L 389.91965 208.546636 
L 385.274702 208.388969 
L 380.576205 208.472867 
L 376.97942 208.725857 
L 373.70518 209.15772 
L 371.192653 209.683494 
L 369.105028 210.306336 
L 367.435356 210.972814 
L 365.819577 211.824029 
L 364.752695 212.573387 
L 364.001753 213.349282 
L 363.832112 213.841645 
L 363.98599 214.09759 
L 364.497302 214.294377 
L 365.615016 214.40402 
L 368.589358 214.3976 
L 377.490055 214.075302 
L 386.350063 213.556914 
L 398.291979 212.823205 
L 404.033004 212.707768 
L 409.873578 212.812118 
L 415.912969 213.147811 
L 420.348585 213.509027 
L 420.348585 213.509027 
" style="fill:none;stroke:#000000;stroke-linecap:square;stroke-opacity:0.7;stroke-width:1.2;"/>
   </g>
   <g id="line2d_53">
    <path clip-path="url(#pf26f74bfb6)" d="M 420.377776 194.280248 
L 395.958801 190.023565 
L 391.437005 189.600463 
L 386.962246 189.415451 
L 381.95792 189.451547 
L 377.593687 189.695685 
L 374.018274 190.110803 
L 371.588561 190.568174 
L 369.197925 191.22289 
L 367.419835 191.889951 
L 365.819754 192.674393 
L 364.631727 193.436384 
L 363.812937 194.175064 
L 363.507089 194.781623 
L 363.590403 195.060365 
L 363.878925 195.285411 
L 364.801102 195.55487 
L 366.911143 195.784366 
L 370.924857 195.934834 
L 376.628682 195.925802 
L 382.704788 195.693099 
L 388.640092 195.231398 
L 402.45647 193.995387 
L 407.530009 193.797506 
L 412.230022 193.819279 
L 417.846541 194.088951 
L 420.384343 194.276631 
L 420.384343 194.276631 
" style="fill:none;stroke:#000000;stroke-linecap:square;stroke-opacity:0.7;stroke-width:1.2;"/>
   </g>
   <g id="line2d_54">
    <path clip-path="url(#pf26f74bfb6)" d="M 420.346034 175.273741 
L 401.31464 171.653997 
L 396.6081 170.990834 
L 392.334523 170.594946 
L 387.776492 170.400755 
L 382.506088 170.420891 
L 378.046534 170.635586 
L 374.341965 171.018054 
L 371.412523 171.541366 
L 368.912489 172.228448 
L 366.915628 173.00777 
L 365.327184 173.848954 
L 364.204751 174.675828 
L 363.691289 175.300371 
L 363.611098 175.669113 
L 363.740983 175.9352 
L 364.056432 176.156799 
L 364.669091 176.374111 
L 366.272748 176.663992 
L 369.379166 176.94982 
L 374.128708 177.154164 
L 379.565083 177.166944 
L 384.857841 176.950931 
L 390.226466 176.503814 
L 403.920069 175.227214 
L 408.746487 175.026694 
L 414.120475 175.030113 
L 420.345852 175.262891 
L 420.345852 175.262891 
" style="fill:none;stroke:#000000;stroke-linecap:square;stroke-opacity:0.7;stroke-width:1.2;"/>
   </g>
   <g id="line2d_55">
    <path clip-path="url(#pf26f74bfb6)" d="M 420.372341 156.104829 
L 398.439293 152.088599 
L 393.942115 151.587156 
L 389.380467 151.326094 
L 384.205633 151.295277 
L 379.134501 151.489556 
L 374.966147 151.85941 
L 371.856659 152.351486 
L 369.572888 152.907093 
L 367.4474 153.647191 
L 365.851541 154.415218 
L 364.518486 155.311414 
L 363.800217 156.084989 
L 363.630057 156.60169 
L 363.729746 156.911482 
L 363.969884 157.143797 
L 364.531905 157.411529 
L 365.894471 157.733022 
L 368.168101 158.016187 
L 372.31253 158.290941 
L 377.538003 158.419605 
L 383.05843 158.335973 
L 388.377122 158.036741 
L 396.74207 157.291991 
L 406.421204 156.500947 
L 412.860197 156.19691 
L 420.362801 156.092568 
L 420.362801 156.092568 
" style="fill:none;stroke:#000000;stroke-linecap:square;stroke-opacity:0.7;stroke-width:1.2;"/>
   </g>
   <g id="line2d_56">
    <path clip-path="url(#pf26f74bfb6)" d="M 420.348958 137.057791 
L 400.50873 133.286896 
L 395.965454 132.708664 
L 391.435138 132.385452 
L 386.923155 132.295281 
L 381.049149 132.423364 
L 375.95713 132.760593 
L 372.847111 133.156948 
L 370.531922 133.620109 
L 368.263757 134.287887 
L 366.616089 134.968177 
L 365.231339 135.745209 
L 364.276305 136.51542 
L 363.842861 137.146495 
L 363.809037 137.521475 
L 363.993606 137.835211 
L 364.312022 138.060444 
L 365.343702 138.424113 
L 367.19498 138.767773 
L 370.414779 139.118822 
L 375.211555 139.402716 
L 380.25191 139.487323 
L 385.647543 139.348554 
L 392.130615 138.926028 
L 411.803702 137.510189 
L 420.345182 137.052716 
L 420.345182 137.052716 
" style="fill:none;stroke:#000000;stroke-linecap:square;stroke-opacity:0.7;stroke-width:1.2;"/>
   </g>
   <g id="line2d_57">
    <path clip-path="url(#pf26f74bfb6)" d="M 420.331391 117.936389 
L 399.708885 114.155463 
L 395.02112 113.648781 
L 391.023758 113.428534 
L 385.843445 113.383166 
L 379.460855 113.559675 
L 374.642871 113.886105 
L 371.674701 114.272011 
L 369.612147 114.690652 
L 367.167287 115.437321 
L 365.491814 116.197786 
L 364.273259 117.011801 
L 363.713792 117.63645 
L 363.571543 118.072974 
L 363.672463 118.417253 
L 363.964861 118.702552 
L 364.690819 119.052898 
L 366.33529 119.490686 
L 369.021211 119.94245 
L 373.217958 120.407179 
L 378.08327 120.704464 
L 382.220828 120.763325 
L 387.152732 120.594714 
L 392.665062 120.166622 
L 412.738281 118.438644 
L 420.338584 117.926756 
L 420.338584 117.926756 
" style="fill:none;stroke:#000000;stroke-linecap:square;stroke-opacity:0.7;stroke-width:1.2;"/>
   </g>
   <g id="line2d_58">
    <path clip-path="url(#pf26f74bfb6)" d="M 420.377044 98.726306 
L 398.587896 94.824745 
L 394.22879 94.427104 
L 390.28494 94.28419 
L 385.009429 94.333704 
L 378.308003 94.637333 
L 373.907399 95.018975 
L 370.899951 95.468612 
L 368.615868 96.00385 
L 366.854515 96.604901 
L 365.40294 97.307541 
L 364.458054 97.966129 
L 363.983265 98.464262 
L 363.727826 99.068367 
L 363.803 99.430104 
L 364.116835 99.781563 
L 364.895036 100.18516 
L 366.467408 100.634161 
L 369.479285 101.159253 
L 373.865246 101.638771 
L 378.88062 101.93338 
L 383.529246 101.991216 
L 388.728159 101.823523 
L 395.345284 101.358613 
L 404.625242 100.475046 
L 420.373172 98.719464 
L 420.373172 98.719464 
" style="fill:none;stroke:#000000;stroke-linecap:square;stroke-opacity:0.7;stroke-width:1.2;"/>
   </g>
   <g id="line2d_59">
    <path clip-path="url(#pf26f74bfb6)" d="M 420.358077 79.684403 
L 403.378943 76.329558 
L 398.900995 75.713408 
L 394.922777 75.401229 
L 390.385056 75.312315 
L 383.806653 75.481118 
L 376.06674 75.882635 
L 372.36764 76.259703 
L 369.700142 76.728391 
L 367.275465 77.41477 
L 365.744908 78.069459 
L 364.474917 78.895432 
L 364.050847 79.339918 
L 363.795288 79.976017 
L 363.915037 80.386485 
L 364.25106 80.730167 
L 365.066013 81.161817 
L 366.518939 81.627447 
L 369.648582 82.281739 
L 373.921777 82.873145 
L 378.22631 83.238826 
L 382.733341 83.397177 
L 387.144236 83.339463 
L 392.571587 83.040958 
L 399.940439 82.406586 
L 407.514603 81.546805 
L 415.498692 80.414013 
L 420.350179 79.674604 
L 420.350179 79.674604 
" style="fill:none;stroke:#000000;stroke-linecap:square;stroke-opacity:0.7;stroke-width:1.2;"/>
   </g>
   <g id="line2d_60">
    <path clip-path="url(#pf26f74bfb6)" d="M 420.316655 60.679994 
L 406.611315 57.77761 
L 401.960553 56.996652 
L 398.038794 56.553934 
L 394.117712 56.349558 
L 389.526359 56.350664 
L 380.961545 56.636183 
L 374.67833 56.987366 
L 371.182534 57.372919 
L 368.461079 57.897779 
L 366.675173 58.43098 
L 365.159981 59.094896 
L 364.130819 59.79725 
L 363.674794 60.36364 
L 363.582479 60.92759 
L 363.78371 61.334565 
L 364.253243 61.744495 
L 365.044 62.169067 
L 366.939402 62.849414 
L 370.145514 63.658393 
L 373.750286 64.323909 
L 377.523613 64.810472 
L 381.109122 65.081249 
L 384.859709 65.161896 
L 388.803444 65.035467 
L 394.057351 64.612145 
L 401.128076 63.790361 
L 409.143118 62.629894 
L 417.798657 61.12298 
L 420.306452 60.658096 
L 420.306452 60.658096 
" style="fill:none;stroke:#000000;stroke-linecap:square;stroke-opacity:0.7;stroke-width:1.2;"/>
   </g>
   <g id="line2d_61">
    <path clip-path="url(#pf26f74bfb6)" d="M 484.128782 232.575623 
L 471.640112 230.148017 
L 460.521152 228.021673 
L 455.949755 227.393008 
L 451.999636 227.073093 
L 448.186542 226.970197 
L 444.28807 227.067406 
L 440.340251 227.394179 
L 437.299342 227.855023 
L 434.802176 228.431112 
L 432.48242 229.192771 
L 430.401338 230.138422 
L 428.962156 231.012592 
L 427.985636 231.799586 
L 427.360995 232.590988 
L 427.288531 233.002962 
L 427.452954 233.257762 
L 427.76671 233.418537 
L 428.592974 233.568033 
L 430.376453 233.604485 
L 434.387488 233.393968 
L 441.421187 232.768956 
L 458.324564 231.121084 
L 463.380658 230.9964 
L 468.70533 231.090193 
L 473.857937 231.394988 
L 479.618564 231.976537 
L 484.132089 232.575432 
L 484.132089 232.575432 
" style="fill:none;stroke:#000000;stroke-linecap:square;stroke-opacity:0.7;stroke-width:1.2;"/>
   </g>
   <g id="line2d_62">
    <path clip-path="url(#pf26f74bfb6)" d="M 484.071984 213.655191 
L 463.068672 209.163891 
L 458.246276 208.368 
L 454.525078 207.945134 
L 450.438479 207.699569 
L 446.509316 207.676337 
L 442.583901 207.86809 
L 439.335819 208.227005 
L 436.340185 208.787873 
L 433.962429 209.462015 
L 431.895479 210.282627 
L 429.999488 211.308997 
L 428.905345 212.083196 
L 427.900255 213.056602 
L 427.607177 213.623169 
L 427.664168 213.919214 
L 427.882319 214.103187 
L 428.514349 214.301014 
L 429.938959 214.464152 
L 433.518795 214.581382 
L 439.195297 214.526856 
L 445.334463 214.249995 
L 453.605397 213.61526 
L 459.474121 213.250852 
L 465.378895 213.121296 
L 472.118085 213.202916 
L 482.575935 213.586335 
L 484.074577 213.656866 
L 484.074577 213.656866 
" style="fill:none;stroke:#000000;stroke-linecap:square;stroke-opacity:0.7;stroke-width:1.2;"/>
   </g>
   <g id="line2d_63">
    <path clip-path="url(#pf26f74bfb6)" d="M 484.154736 194.277879 
L 474.333755 192.436264 
L 459.27852 189.604692 
L 454.772197 189.063234 
L 450.780816 188.815407 
L 446.32227 188.785612 
L 441.974723 189.001261 
L 438.931197 189.330694 
L 435.978434 189.861681 
L 433.576784 190.525228 
L 431.514843 191.338273 
L 429.825719 192.24779 
L 428.581942 193.143932 
L 427.672293 194.094582 
L 427.401093 194.713196 
L 427.487078 195.081264 
L 427.715362 195.293381 
L 428.504052 195.579791 
L 429.856368 195.774863 
L 433.160315 195.938579 
L 438.407622 195.938787 
L 444.638726 195.723375 
L 452.09361 195.227755 
L 462.831378 194.505904 
L 470.468291 194.238335 
L 478.26872 194.182208 
L 484.156713 194.278637 
L 484.156713 194.278637 
" style="fill:none;stroke:#000000;stroke-linecap:square;stroke-opacity:0.7;stroke-width:1.2;"/>
   </g>
   <g id="line2d_64">
    <path clip-path="url(#pf26f74bfb6)" d="M 484.031185 175.508322 
L 471.490872 172.71468 
L 463.037169 170.998031 
L 458.345686 170.271033 
L 454.07459 169.866557 
L 449.838384 169.725683 
L 445.335671 169.822998 
L 441.16501 170.120623 
L 437.690005 170.56125 
L 434.639556 171.187342 
L 432.692495 171.777281 
L 430.720985 172.604795 
L 429.357562 173.376825 
L 428.115617 174.339369 
L 427.471599 175.165536 
L 427.376679 175.567615 
L 427.539779 175.950487 
L 427.972518 176.242382 
L 428.631712 176.4669 
L 430.161008 176.74917 
L 433.385926 177.046678 
L 438.402734 177.223065 
L 443.654058 177.16374 
L 448.758894 176.876677 
L 456.636533 176.136258 
L 463.048415 175.639732 
L 469.303085 175.402936 
L 476.074408 175.375848 
L 484.042876 175.502371 
L 484.042876 175.502371 
" style="fill:none;stroke:#000000;stroke-linecap:square;stroke-opacity:0.7;stroke-width:1.2;"/>
   </g>
   <g id="line2d_65">
    <path clip-path="url(#pf26f74bfb6)" d="M 484.017834 156.441758 
L 465.371513 152.417286 
L 460.388703 151.547356 
L 456.371229 151.039987 
L 452.214321 150.741711 
L 447.930907 150.667456 
L 443.29175 150.831109 
L 439.146286 151.219877 
L 436.207134 151.700698 
L 433.851882 152.2775 
L 431.464773 153.123818 
L 429.948651 153.864991 
L 428.647718 154.711617 
L 427.756909 155.540169 
L 427.374016 156.176522 
L 427.338848 156.586443 
L 427.527736 156.931343 
L 427.897858 157.195348 
L 428.635837 157.472983 
L 430.492692 157.836017 
L 433.90609 158.18493 
L 438.171575 158.40372 
L 443.539716 158.443519 
L 448.22528 158.264308 
L 453.391492 157.847789 
L 464.11679 156.890245 
L 470.641433 156.594713 
L 479.198192 156.470638 
L 484.020732 156.440708 
L 484.020732 156.440708 
" style="fill:none;stroke:#000000;stroke-linecap:square;stroke-opacity:0.7;stroke-width:1.2;"/>
   </g>
   <g id="line2d_66">
    <path clip-path="url(#pf26f74bfb6)" d="M 484.067261 137.197035 
L 467.285982 133.625583 
L 461.37147 132.573761 
L 457.390198 132.060696 
L 453.346512 131.754466 
L 448.77889 131.663233 
L 443.878285 131.82681 
L 439.432933 132.223695 
L 436.46519 132.683326 
L 434.136791 133.218711 
L 431.770337 134.006279 
L 430.221681 134.726092 
L 428.748765 135.684035 
L 428.059468 136.356774 
L 427.711097 136.998849 
L 427.733972 137.458951 
L 427.976449 137.789459 
L 428.487558 138.106255 
L 429.806236 138.525157 
L 432.251223 138.956268 
L 435.970674 139.355561 
L 440.63443 139.628879 
L 445.092591 139.687549 
L 449.364676 139.550094 
L 454.778152 139.127043 
L 469.61248 137.768763 
L 476.676459 137.42112 
L 484.062486 137.206089 
L 484.062486 137.206089 
" style="fill:none;stroke:#000000;stroke-linecap:square;stroke-opacity:0.7;stroke-width:1.2;"/>
   </g>
   <g id="line2d_67">
    <path clip-path="url(#pf26f74bfb6)" d="M 484.109873 117.969897 
L 461.904951 113.626127 
L 457.867856 113.108788 
L 453.919106 112.806088 
L 449.318227 112.696752 
L 444.483287 112.815526 
L 440.025844 113.139804 
L 436.438466 113.631483 
L 433.931944 114.185106 
L 431.645456 114.936784 
L 430.172692 115.615591 
L 428.989286 116.348681 
L 428.019762 117.232431 
L 427.642143 117.911812 
L 427.645987 118.376536 
L 427.877386 118.734375 
L 428.293056 119.027562 
L 429.479765 119.46224 
L 431.552326 119.883181 
L 434.744939 120.28728 
L 439.227585 120.626319 
L 444.033252 120.774085 
L 449.155319 120.699421 
L 454.47151 120.395375 
L 466.922968 119.351771 
L 484.101513 117.970579 
L 484.101513 117.970579 
" style="fill:none;stroke:#000000;stroke-linecap:square;stroke-opacity:0.7;stroke-width:1.2;"/>
   </g>
   <g id="line2d_68">
    <path clip-path="url(#pf26f74bfb6)" d="M 484.080607 98.944563 
L 466.128849 95.115807 
L 461.27783 94.345128 
L 457.166467 93.921287 
L 452.714647 93.720973 
L 447.919405 93.744444 
L 442.292902 93.988701 
L 437.638373 94.39911 
L 434.824303 94.834298 
L 432.515248 95.392853 
L 430.546424 96.109352 
L 428.928752 96.989695 
L 427.954708 97.805254 
L 427.479253 98.524255 
L 427.409441 99.075054 
L 427.58981 99.492804 
L 428.065868 99.922776 
L 429.12656 100.426943 
L 430.739107 100.898742 
L 433.657582 101.457621 
L 437.683063 101.936125 
L 441.789169 102.188306 
L 446.170607 102.22961 
L 450.888146 102.035493 
L 457.620123 101.474788 
L 484.073051 98.94216 
L 484.073051 98.94216 
" style="fill:none;stroke:#000000;stroke-linecap:square;stroke-opacity:0.7;stroke-width:1.2;"/>
   </g>
   <g id="line2d_69">
    <path clip-path="url(#pf26f74bfb6)" d="M 484.18235 79.476578 
L 475.691175 77.919275 
L 463.931379 75.785991 
L 459.505364 75.216577 
L 455.550291 74.917088 
L 451.277945 74.805476 
L 445.845275 74.888419 
L 440.000897 75.189728 
L 436.209675 75.584399 
L 433.545788 76.068427 
L 432.030658 76.478389 
L 430.109063 77.235455 
L 429.183769 77.757431 
L 428.191271 78.559713 
L 427.680089 79.286336 
L 427.562318 79.77238 
L 427.659275 80.212272 
L 427.972244 80.601789 
L 428.44794 80.91978 
L 429.44511 81.33095 
L 431.365855 81.840087 
L 434.464103 82.402074 
L 438.370986 82.886785 
L 442.651307 83.209135 
L 447.205264 83.340828 
L 451.942303 83.272831 
L 458.253507 82.942622 
L 464.923558 82.386881 
L 471.167396 81.650928 
L 477.275104 80.697796 
L 484.177411 79.471293 
L 484.177411 79.471293 
" style="fill:none;stroke:#000000;stroke-linecap:square;stroke-opacity:0.7;stroke-width:1.2;"/>
   </g>
   <g id="line2d_70">
    <path clip-path="url(#pf26f74bfb6)" d="M 484.145734 60.468873 
L 472.303554 58.146891 
L 465.837214 56.984672 
L 461.191223 56.376978 
L 457.398219 56.095327 
L 452.848435 55.994463 
L 447.01915 56.105767 
L 440.75454 56.412783 
L 436.675517 56.79492 
L 433.529293 57.325146 
L 431.185736 57.982848 
L 429.664313 58.630766 
L 428.435395 59.418332 
L 427.853966 60.015782 
L 427.585717 60.53671 
L 427.579612 61.092355 
L 427.800805 61.49909 
L 428.443577 62.025785 
L 429.472478 62.520284 
L 431.098782 63.062944 
L 433.705098 63.703273 
L 437.547714 64.384682 
L 441.269266 64.828124 
L 445.323247 65.09283 
L 449.781885 65.132195 
L 454.114321 64.946619 
L 459.811604 64.459709 
L 466.414436 63.660267 
L 472.602906 62.693584 
L 480.538486 61.187804 
L 484.130116 60.472278 
L 484.130116 60.472278 
" style="fill:none;stroke:#000000;stroke-linecap:square;stroke-opacity:0.7;stroke-width:1.2;"/>
   </g>
   <g id="line2d_71">
    <path clip-path="url(#pf26f74bfb6)" d="M 547.854099 232.734375 
L 534.615034 229.836474 
L 522.915606 227.21537 
L 519.15818 226.621286 
L 515.279776 226.261249 
L 511.683469 226.16477 
L 507.990584 226.291165 
L 504.600989 226.612619 
L 501.596553 227.097827 
L 498.735132 227.806143 
L 496.418044 228.633994 
L 494.838652 229.37878 
L 493.03192 230.486251 
L 491.909956 231.403074 
L 491.180576 232.274562 
L 491.005316 232.814937 
L 491.135821 233.143234 
L 491.458243 233.356344 
L 492.295722 233.555367 
L 493.88106 233.644311 
L 496.810304 233.56326 
L 502.130521 233.150004 
L 508.470873 232.41821 
L 520.540366 230.918763 
L 524.431549 230.711436 
L 528.602251 230.691436 
L 533.148562 230.882811 
L 537.970783 231.308337 
L 543.39483 232.020896 
L 547.852129 232.73794 
L 547.852129 232.73794 
" style="fill:none;stroke:#000000;stroke-linecap:square;stroke-opacity:0.7;stroke-width:1.2;"/>
   </g>
   <g id="line2d_72">
    <path clip-path="url(#pf26f74bfb6)" d="M 547.860879 213.575905 
L 535.39514 210.933754 
L 522.764923 208.222467 
L 518.758943 207.647655 
L 515.4704 207.3793 
L 511.624735 207.297445 
L 507.847472 207.436291 
L 504.270957 207.763295 
L 500.788465 208.319631 
L 498.503352 208.88608 
L 496.272838 209.68147 
L 494.488205 210.563972 
L 493.336668 211.295892 
L 492.101885 212.316305 
L 491.41434 213.213613 
L 491.336375 213.698528 
L 491.513285 213.973219 
L 491.956736 214.20447 
L 492.890996 214.404611 
L 494.892964 214.562345 
L 499.054835 214.609887 
L 504.771062 214.446257 
L 511.051517 214.051361 
L 525.765053 212.960382 
L 530.834768 212.871153 
L 536.876519 212.978947 
L 544.4952 213.358436 
L 547.867046 213.586559 
L 547.867046 213.586559 
" style="fill:none;stroke:#000000;stroke-linecap:square;stroke-opacity:0.7;stroke-width:1.2;"/>
   </g>
   <g id="line2d_73">
    <path clip-path="url(#pf26f74bfb6)" d="M 547.896626 194.319021 
L 537.548759 192.209168 
L 528.575469 190.13295 
L 522.308745 188.74346 
L 518.292126 188.102951 
L 515.103826 187.801521 
L 511.477449 187.685261 
L 507.576384 187.804444 
L 503.937475 188.131259 
L 500.792095 188.61554 
L 498.262017 189.213396 
L 496.291738 189.884391 
L 494.862046 190.537823 
L 493.289062 191.492676 
L 492.073252 192.502062 
L 491.325915 193.377415 
L 490.949173 194.123061 
L 490.915939 194.657792 
L 491.058487 194.952913 
L 491.400202 195.228945 
L 492.501926 195.568194 
L 494.608823 195.783977 
L 498.227817 195.868139 
L 503.953685 195.749691 
L 510.30989 195.394415 
L 526.489063 194.31485 
L 533.799745 194.178943 
L 543.574003 194.236807 
L 547.896407 194.332585 
L 547.896407 194.332585 
" style="fill:none;stroke:#000000;stroke-linecap:square;stroke-opacity:0.7;stroke-width:1.2;"/>
   </g>
   <g id="line2d_74">
    <path clip-path="url(#pf26f74bfb6)" d="M 547.814162 175.509573 
L 526.983673 170.694217 
L 522.252789 169.747525 
L 518.70495 169.231335 
L 515.328908 168.936125 
L 511.348951 168.833984 
L 507.163226 168.99239 
L 503.692453 169.338857 
L 500.77936 169.830418 
L 498.125108 170.524001 
L 495.99771 171.340416 
L 494.322516 172.224653 
L 492.886476 173.240727 
L 491.87684 174.230634 
L 491.422045 174.929714 
L 491.3011 175.477947 
L 491.487262 175.923599 
L 491.873394 176.220163 
L 492.91738 176.596046 
L 495.07356 176.968755 
L 498.353995 177.248059 
L 502.694418 177.376282 
L 507.351498 177.295703 
L 512.999438 176.940096 
L 526.685221 175.863963 
L 533.248988 175.674238 
L 547.817401 175.523946 
L 547.817401 175.523946 
" style="fill:none;stroke:#000000;stroke-linecap:square;stroke-opacity:0.7;stroke-width:1.2;"/>
   </g>
   <g id="line2d_75">
    <path clip-path="url(#pf26f74bfb6)" d="M 547.884056 156.146375 
L 537.554495 154.062912 
L 521.353938 150.737712 
L 517.355338 150.268955 
L 513.680886 150.077288 
L 509.963259 150.100244 
L 505.666497 150.373285 
L 502.088962 150.828771 
L 499.292531 151.403224 
L 496.89802 152.143079 
L 494.980926 152.990459 
L 493.4076 153.949582 
L 492.269448 154.916788 
L 491.656309 155.717034 
L 491.460549 156.331631 
L 491.54254 156.729379 
L 491.829004 157.0659 
L 492.420332 157.391648 
L 493.613511 157.737986 
L 495.725477 158.077673 
L 499.519626 158.405575 
L 504.243411 158.568242 
L 509.033835 158.520831 
L 514.248064 158.237486 
L 521.069038 157.604916 
L 530.622338 156.750421 
L 537.775935 156.35851 
L 545.948045 156.161427 
L 547.886409 156.140397 
L 547.886409 156.140397 
" style="fill:none;stroke:#000000;stroke-linecap:square;stroke-opacity:0.7;stroke-width:1.2;"/>
   </g>
   <g id="line2d_76">
    <path clip-path="url(#pf26f74bfb6)" d="M 547.918627 136.929745 
L 538.625199 135.148977 
L 520.709109 131.627917 
L 516.941796 131.232624 
L 512.963115 131.052959 
L 509.178344 131.089479 
L 505.465668 131.314512 
L 502.209274 131.697449 
L 499.188525 132.283112 
L 496.881509 132.966264 
L 495.235181 133.646071 
L 493.733091 134.480866 
L 492.423548 135.499777 
L 491.598393 136.503216 
L 491.318778 137.284262 
L 491.372033 137.738513 
L 491.701908 138.201765 
L 492.204349 138.523776 
L 493.528171 138.961694 
L 495.537197 139.318135 
L 499.289304 139.683454 
L 503.635196 139.877823 
L 508.420278 139.88846 
L 513.902123 139.660993 
L 519.950731 139.167982 
L 540.264714 137.323004 
L 547.90827 136.910298 
L 547.90827 136.910298 
" style="fill:none;stroke:#000000;stroke-linecap:square;stroke-opacity:0.7;stroke-width:1.2;"/>
   </g>
   <g id="line2d_77">
    <path clip-path="url(#pf26f74bfb6)" d="M 547.895371 117.8837 
L 537.992715 115.941317 
L 523.410497 113.05093 
L 519.560849 112.55581 
L 515.456333 112.269145 
L 511.635857 112.213929 
L 507.22603 112.37485 
L 503.220088 112.743705 
L 500.076153 113.246018 
L 497.81897 113.790871 
L 495.515564 114.601366 
L 493.914955 115.406064 
L 492.60861 116.328959 
L 491.833631 117.142557 
L 491.444122 117.916755 
L 491.457767 118.49601 
L 491.67301 118.863038 
L 492.105471 119.215703 
L 493.181167 119.685028 
L 494.992202 120.140365 
L 497.840945 120.590041 
L 502.060302 120.983786 
L 506.405502 121.153656 
L 510.966786 121.097988 
L 515.876033 120.788274 
L 523.086018 120.056439 
L 536.118804 118.744076 
L 545.896591 117.993478 
L 547.892368 117.866859 
L 547.892368 117.866859 
" style="fill:none;stroke:#000000;stroke-linecap:square;stroke-opacity:0.7;stroke-width:1.2;"/>
   </g>
   <g id="line2d_78">
    <path clip-path="url(#pf26f74bfb6)" d="M 547.83202 98.94742 
L 525.754282 94.328657 
L 521.251118 93.704569 
L 517.240228 93.377858 
L 512.912836 93.256546 
L 507.898877 93.37101 
L 503.596166 93.700039 
L 500.540475 94.128055 
L 498.18977 94.635336 
L 496.147713 95.270455 
L 494.404561 96.034089 
L 493.029824 96.880381 
L 491.995078 97.83535 
L 491.543609 98.602208 
L 491.471829 99.089791 
L 491.592865 99.506575 
L 491.823381 99.808777 
L 492.30177 100.164896 
L 493.229023 100.58072 
L 495.015137 101.083115 
L 498.137 101.645129 
L 501.821528 102.057939 
L 505.657062 102.279393 
L 510.26782 102.292478 
L 514.558658 102.077868 
L 521.146413 101.483081 
L 536.644212 100.056827 
L 547.828603 98.941493 
L 547.828603 98.941493 
" style="fill:none;stroke:#000000;stroke-linecap:square;stroke-opacity:0.7;stroke-width:1.2;"/>
   </g>
   <g id="line2d_79">
    <path clip-path="url(#pf26f74bfb6)" d="M 547.882445 79.691455 
L 523.845625 74.990005 
L 520.093896 74.598534 
L 516.057379 74.40042 
L 511.501461 74.403301 
L 505.784532 74.640888 
L 501.203278 75.043725 
L 498.222413 75.523293 
L 495.8017 76.175384 
L 494.05 76.915079 
L 493.016154 77.538733 
L 492.170731 78.248787 
L 491.651105 78.899254 
L 491.341492 79.70105 
L 491.396384 80.296237 
L 491.70742 80.800092 
L 492.131461 81.156954 
L 493.000473 81.611395 
L 494.580563 82.134122 
L 497.355177 82.730215 
L 500.423808 83.171001 
L 504.733594 83.54605 
L 509.085767 83.692621 
L 514.106221 83.614145 
L 520.141923 83.26343 
L 528.230782 82.565359 
L 535.039699 81.783801 
L 541.309536 80.840143 
L 547.868719 79.691042 
L 547.868719 79.691042 
" style="fill:none;stroke:#000000;stroke-linecap:square;stroke-opacity:0.7;stroke-width:1.2;"/>
   </g>
   <g id="line2d_80">
    <path clip-path="url(#pf26f74bfb6)" d="M 547.835321 60.72028 
L 529.914637 56.918313 
L 525.440766 56.231124 
L 521.729238 55.857547 
L 517.178689 55.64432 
L 511.919038 55.645962 
L 506.076052 55.857348 
L 502.024815 56.173111 
L 498.689611 56.648088 
L 496.365205 57.193951 
L 494.526358 57.84418 
L 493.124751 58.569416 
L 492.017281 59.451748 
L 491.542672 60.100946 
L 491.357055 60.792974 
L 491.520736 61.406888 
L 491.840466 61.811952 
L 492.387383 62.23252 
L 493.415994 62.758105 
L 495.103914 63.364803 
L 498.093052 64.135746 
L 501.508648 64.758688 
L 505.249955 65.205312 
L 509.161221 65.434598 
L 513.205587 65.430533 
L 517.509783 65.193794 
L 523.184686 64.644174 
L 531.385269 63.612732 
L 538.254356 62.535409 
L 545.864832 61.103399 
L 547.813751 60.714557 
L 547.813751 60.714557 
" style="fill:none;stroke:#000000;stroke-linecap:square;stroke-opacity:0.7;stroke-width:1.2;"/>
   </g>
   <g id="line2d_81">
    <path clip-path="url(#pf26f74bfb6)" d="M 611.690905 232.482391 
L 603.865071 231.031155 
L 597.35029 229.624755 
L 590.012171 227.782646 
L 584.243399 226.407252 
L 580.496879 225.74969 
L 577.043481 225.372138 
L 573.378589 225.226633 
L 569.957808 225.341124 
L 566.869203 225.685789 
L 564.292217 226.19889 
L 561.965454 226.900366 
L 559.724319 227.867692 
L 558.191788 228.751208 
L 556.607387 229.93406 
L 555.462466 231.073517 
L 554.778118 232.064787 
L 554.571386 232.747655 
L 554.707146 233.206765 
L 555.03042 233.45928 
L 555.654345 233.653333 
L 557.10057 233.777111 
L 559.779002 233.70847 
L 564.58715 233.313825 
L 571.659706 232.478491 
L 581.766058 231.244401 
L 586.355955 230.932873 
L 591.047158 230.822392 
L 595.934468 230.901959 
L 601.326328 231.218531 
L 606.308748 231.729928 
L 611.688288 232.484054 
L 611.688288 232.484054 
" style="fill:none;stroke:#000000;stroke-linecap:square;stroke-opacity:0.7;stroke-width:1.2;"/>
   </g>
   <g id="line2d_82">
    <path clip-path="url(#pf26f74bfb6)" d="M 611.689533 213.386824 
L 602.511786 211.552442 
L 595.435719 209.89157 
L 584.790986 207.280735 
L 581.608332 206.740976 
L 578.291628 206.392414 
L 574.848908 206.265908 
L 571.418897 206.366142 
L 568.147846 206.674164 
L 565.19323 207.167595 
L 562.773031 207.786366 
L 561.122311 208.366165 
L 558.992947 209.378121 
L 557.450779 210.366267 
L 556.217753 211.390992 
L 555.248764 212.491479 
L 554.828192 213.286044 
L 554.762583 213.776386 
L 554.854788 214.080237 
L 555.130728 214.385077 
L 555.646268 214.648808 
L 556.66674 214.900732 
L 558.471067 215.094562 
L 561.621347 215.1841 
L 565.587409 215.099538 
L 570.892181 214.767947 
L 577.043768 214.142538 
L 586.497054 213.149264 
L 591.994762 212.83798 
L 597.044148 212.746729 
L 603.103888 212.864078 
L 609.918924 213.247131 
L 611.693303 213.382256 
L 611.693303 213.382256 
" style="fill:none;stroke:#000000;stroke-linecap:square;stroke-opacity:0.7;stroke-width:1.2;"/>
   </g>
   <g id="line2d_83">
    <path clip-path="url(#pf26f74bfb6)" d="M 611.552221 194.680418 
L 597.309938 191.265699 
L 583.990943 187.960615 
L 580.74923 187.433289 
L 577.362257 187.090299 
L 574.084083 186.961878 
L 570.919366 187.02814 
L 567.466683 187.339884 
L 564.601313 187.849541 
L 562.46195 188.443922 
L 560.653474 189.147282 
L 559.157496 189.91611 
L 557.565275 190.988942 
L 556.196982 192.234459 
L 555.330214 193.358212 
L 554.934892 194.278487 
L 554.940585 194.880961 
L 555.2036 195.303487 
L 555.648888 195.596906 
L 556.258906 195.814752 
L 558.097227 196.122794 
L 561.265467 196.304337 
L 565.817485 196.293359 
L 570.693608 196.067221 
L 576.623336 195.556092 
L 587.290038 194.559476 
L 592.744726 194.366845 
L 599.417025 194.399997 
L 611.546936 194.694372 
L 611.546936 194.694372 
" style="fill:none;stroke:#000000;stroke-linecap:square;stroke-opacity:0.7;stroke-width:1.2;"/>
   </g>
   <g id="line2d_84">
    <path clip-path="url(#pf26f74bfb6)" d="M 611.621807 175.337367 
L 599.410427 172.602216 
L 584.321359 169.073979 
L 580.769209 168.568411 
L 577.332047 168.291626 
L 573.886661 168.213172 
L 570.086819 168.346323 
L 566.836977 168.665363 
L 564.003187 169.162264 
L 561.945624 169.720306 
L 560.02287 170.467986 
L 558.587203 171.224625 
L 556.989932 172.346163 
L 555.759406 173.53091 
L 555.161756 174.329112 
L 554.790776 175.132417 
L 554.736888 175.666 
L 554.892536 176.115146 
L 555.24801 176.481608 
L 555.91337 176.831807 
L 557.352713 177.22625 
L 559.800977 177.560977 
L 563.020641 177.755321 
L 567.589613 177.770094 
L 571.889399 177.572078 
L 577.427282 177.06831 
L 588.996479 175.881726 
L 595.270693 175.543803 
L 602.970619 175.366237 
L 611.627379 175.335192 
L 611.627379 175.335192 
" style="fill:none;stroke:#000000;stroke-linecap:square;stroke-opacity:0.7;stroke-width:1.2;"/>
   </g>
   <g id="line2d_85">
    <path clip-path="url(#pf26f74bfb6)" d="M 611.622881 156.251308 
L 601.198997 153.946106 
L 592.023881 151.684461 
L 586.393013 150.357476 
L 582.442709 149.658558 
L 578.706089 149.251207 
L 575.08014 149.09318 
L 571.20449 149.161963 
L 567.735781 149.435738 
L 564.851056 149.863535 
L 562.672281 150.374515 
L 560.765948 151.03173 
L 559.17846 151.801481 
L 557.596714 152.862168 
L 556.836823 153.523072 
L 555.952945 154.50144 
L 555.376542 155.420984 
L 555.145922 156.120615 
L 555.185539 156.75318 
L 555.407033 157.135983 
L 555.901702 157.524198 
L 557.066195 157.965984 
L 558.872228 158.317865 
L 561.962253 158.627284 
L 565.978881 158.78057 
L 570.586326 158.729068 
L 575.26158 158.46848 
L 582.069955 157.829792 
L 590.000582 157.129111 
L 597.427347 156.726362 
L 611.030397 156.274137 
L 611.622037 156.25695 
L 611.622037 156.25695 
" style="fill:none;stroke:#000000;stroke-linecap:square;stroke-opacity:0.7;stroke-width:1.2;"/>
   </g>
   <g id="line2d_86">
    <path clip-path="url(#pf26f74bfb6)" d="M 611.68561 136.898942 
L 604.346629 135.519809 
L 597.032026 133.934527 
L 584.146558 130.998302 
L 580.335651 130.466486 
L 576.745111 130.19958 
L 573.372186 130.147922 
L 569.553976 130.317773 
L 566.378173 130.670777 
L 563.820808 131.145868 
L 561.418492 131.8224 
L 559.758983 132.481811 
L 558.174807 133.32922 
L 556.770575 134.360117 
L 555.982597 135.143615 
L 555.351269 136.017279 
L 555.014238 136.828057 
L 554.969775 137.467414 
L 555.194568 138.044684 
L 555.503692 138.368811 
L 556.221864 138.777614 
L 557.470175 139.158378 
L 559.992462 139.562327 
L 563.728358 139.854874 
L 568.242152 139.96795 
L 572.960938 139.879358 
L 578.556986 139.546335 
L 611.68144 136.886705 
L 611.68144 136.886705 
" style="fill:none;stroke:#000000;stroke-linecap:square;stroke-opacity:0.7;stroke-width:1.2;"/>
   </g>
   <g id="line2d_87">
    <path clip-path="url(#pf26f74bfb6)" d="M 611.628758 117.96499 
L 601.42017 115.734568 
L 591.37438 113.298646 
L 586.085052 112.120999 
L 582.64878 111.558032 
L 578.927293 111.192047 
L 575.65689 111.079139 
L 572.000408 111.160773 
L 568.036107 111.485371 
L 564.801425 111.971174 
L 562.572887 112.48041 
L 560.444917 113.178829 
L 558.932634 113.86799 
L 557.419329 114.811361 
L 556.394202 115.696292 
L 555.660848 116.599575 
L 555.252042 117.490448 
L 555.224335 118.216457 
L 555.327347 118.507277 
L 555.662236 118.936889 
L 556.331289 119.369714 
L 557.695101 119.850499 
L 559.928877 120.312392 
L 563.092961 120.717607 
L 567.287982 121.012457 
L 571.382126 121.096593 
L 575.867882 120.984506 
L 581.184649 120.632635 
L 609.134881 118.23005 
L 611.624359 117.966084 
L 611.624359 117.966084 
" style="fill:none;stroke:#000000;stroke-linecap:square;stroke-opacity:0.7;stroke-width:1.2;"/>
   </g>
   <g id="line2d_88">
    <path clip-path="url(#pf26f74bfb6)" d="M 611.50169 99.241241 
L 603.896858 97.309341 
L 589.852133 93.888465 
L 585.506742 93.079865 
L 581.692139 92.601986 
L 577.74239 92.350299 
L 573.754797 92.322015 
L 569.81687 92.496509 
L 566.522867 92.817927 
L 563.275189 93.368184 
L 560.878026 94.01781 
L 558.873583 94.82284 
L 557.358191 95.689861 
L 556.416934 96.42082 
L 555.661558 97.221802 
L 555.108177 98.201165 
L 555.004392 98.688989 
L 555.122916 99.39018 
L 555.387914 99.795927 
L 555.945992 100.264982 
L 557.222144 100.875742 
L 558.675208 101.322244 
L 561.335933 101.870941 
L 564.751166 102.299704 
L 568.59221 102.526434 
L 572.487196 102.525191 
L 576.613442 102.302208 
L 582.705924 101.703191 
L 590.45648 100.966462 
L 610.350064 99.352459 
L 611.504727 99.22207 
L 611.504727 99.22207 
" style="fill:none;stroke:#000000;stroke-linecap:square;stroke-opacity:0.7;stroke-width:1.2;"/>
   </g>
   <g id="line2d_89">
    <path clip-path="url(#pf26f74bfb6)" d="M 611.55978 79.971288 
L 591.70441 75.354272 
L 587.086204 74.527537 
L 583.471547 74.086168 
L 579.554979 73.833218 
L 574.989205 73.795621 
L 570.485127 73.977292 
L 566.037295 74.383436 
L 562.947388 74.881275 
L 560.612995 75.471909 
L 559.053835 76.037085 
L 557.556661 76.787611 
L 556.615545 77.429934 
L 555.836277 78.150842 
L 555.288123 78.915466 
L 555.058129 79.531215 
L 555.064434 80.215374 
L 555.336499 80.774202 
L 555.715395 81.164345 
L 556.424167 81.627788 
L 557.8983 82.240224 
L 559.994562 82.817844 
L 562.980697 83.376435 
L 566.662263 83.803713 
L 570.445294 84.007626 
L 574.413391 83.994288 
L 578.825559 83.742688 
L 585.461366 83.083324 
L 607.162617 80.610725 
L 611.542383 79.971836 
L 611.542383 79.971836 
" style="fill:none;stroke:#000000;stroke-linecap:square;stroke-opacity:0.7;stroke-width:1.2;"/>
   </g>
   <g id="line2d_90">
    <path clip-path="url(#pf26f74bfb6)" d="M 611.655427 60.521935 
L 602.329638 58.597271 
L 591.069145 56.282798 
L 586.508807 55.600756 
L 582.588068 55.253746 
L 578.660499 55.123469 
L 573.879515 55.187153 
L 568.352357 55.487569 
L 564.685232 55.858612 
L 561.674713 56.375515 
L 559.736919 56.909276 
L 558.231765 57.523037 
L 556.843713 58.3743 
L 556.079588 59.086785 
L 555.568035 59.849471 
L 555.376089 60.445842 
L 555.430965 61.216364 
L 555.765154 61.807009 
L 556.360645 62.343903 
L 556.995453 62.727651 
L 558.525534 63.375582 
L 561.000622 64.097549 
L 563.998709 64.719312 
L 567.872992 65.257701 
L 571.584688 65.542879 
L 575.534668 65.62143 
L 579.981948 65.461367 
L 585.299354 65.000918 
L 591.108747 64.277235 
L 597.813835 63.231892 
L 604.931664 61.899333 
L 611.636372 60.528481 
L 611.636372 60.528481 
" style="fill:none;stroke:#000000;stroke-linecap:square;stroke-opacity:0.7;stroke-width:1.2;"/>
   </g>
   <g id="line2d_91">
    <path clip-path="url(#pf26f74bfb6)" d="M 675.490909 232.384168 
L 669.204086 231.270576 
L 663.398555 230.0254 
L 658.603318 228.784421 
L 645.443093 225.16047 
L 642.225175 224.604767 
L 638.547388 224.233455 
L 635.379173 224.153076 
L 632.38015 224.308559 
L 629.870592 224.655025 
L 627.51934 225.221453 
L 625.650742 225.900014 
L 623.827968 226.827058 
L 622.248673 227.914212 
L 620.918059 229.11622 
L 619.71325 230.582625 
L 618.998304 231.93904 
L 618.855 232.625818 
L 618.953402 233.152382 
L 619.169188 233.432865 
L 619.618461 233.686318 
L 620.399506 233.857137 
L 621.859283 233.913271 
L 624.980446 233.717962 
L 630.146069 233.129297 
L 645.235623 231.246963 
L 649.942459 231.016816 
L 655.557421 231.006821 
L 662.232549 231.242032 
L 668.962401 231.70596 
L 675.48715 232.379372 
L 675.48715 232.379372 
" style="fill:none;stroke:#000000;stroke-linecap:square;stroke-opacity:0.7;stroke-width:1.2;"/>
   </g>
   <g id="line2d_92">
    <path clip-path="url(#pf26f74bfb6)" d="M 675.385038 213.598824 
L 667.133517 211.783569 
L 660.031224 210.002618 
L 646.853518 206.51687 
L 643.220782 205.88766 
L 639.86822 205.520112 
L 636.651245 205.361941 
L 633.278331 205.413739 
L 630.607793 205.64703 
L 627.821806 206.146902 
L 625.837901 206.739474 
L 624.004955 207.545022 
L 622.427657 208.514843 
L 621.256303 209.460962 
L 620.373722 210.351236 
L 619.312991 211.770111 
L 618.774383 212.944218 
L 618.688454 213.737035 
L 618.828541 214.167246 
L 619.055769 214.445532 
L 619.631664 214.788259 
L 620.397497 215.013022 
L 622.483058 215.255962 
L 625.088102 215.3062 
L 629.300472 215.147082 
L 634.421436 214.711539 
L 641.228776 213.873663 
L 646.755703 213.242415 
L 651.161401 212.958673 
L 656.073961 212.87448 
L 662.78004 213.013911 
L 673.302271 213.492128 
L 675.380923 213.609649 
L 675.380923 213.609649 
" style="fill:none;stroke:#000000;stroke-linecap:square;stroke-opacity:0.7;stroke-width:1.2;"/>
   </g>
   <g id="line2d_93">
    <path clip-path="url(#pf26f74bfb6)" d="M 675.408461 194.421884 
L 666.491141 192.494268 
L 660.454357 190.97581 
L 653.174588 188.8763 
L 648.567461 187.627042 
L 644.637452 186.805967 
L 641.288228 186.341251 
L 638.156739 186.112962 
L 634.868475 186.095659 
L 631.878545 186.303615 
L 629.123901 186.738078 
L 627.416722 187.165538 
L 625.444605 187.863833 
L 623.873596 188.622439 
L 622.06867 189.780704 
L 620.559457 191.062685 
L 619.36274 192.405849 
L 618.594517 193.665981 
L 618.369957 194.440514 
L 618.436221 195.036074 
L 618.735692 195.465891 
L 619.235302 195.790395 
L 620.042416 196.072356 
L 621.753235 196.371612 
L 624.506318 196.568507 
L 628.626621 196.596979 
L 633.466342 196.384452 
L 638.878085 195.89273 
L 653.751663 194.27965 
L 659.141557 194.076579 
L 665.208373 194.081079 
L 673.448863 194.331722 
L 675.416828 194.417879 
L 675.416828 194.417879 
" style="fill:none;stroke:#000000;stroke-linecap:square;stroke-opacity:0.7;stroke-width:1.2;"/>
   </g>
   <g id="line2d_94">
    <path clip-path="url(#pf26f74bfb6)" d="M 675.472326 175.073452 
L 668.914528 173.898022 
L 663.71506 172.782598 
L 658.26878 171.380795 
L 647.229651 168.359466 
L 643.818338 167.729691 
L 640.653018 167.358781 
L 636.966293 167.190004 
L 633.722969 167.280611 
L 630.730883 167.589327 
L 628.101981 168.092239 
L 625.944501 168.734926 
L 624.33672 169.405989 
L 622.771544 170.279389 
L 621.27527 171.400792 
L 620.06428 172.627337 
L 619.287549 173.703455 
L 618.86334 174.556272 
L 618.655242 175.530538 
L 618.796307 176.185667 
L 619.145583 176.631758 
L 619.607621 176.938557 
L 620.442179 177.258665 
L 622.016432 177.583353 
L 624.385153 177.826112 
L 627.694459 177.954481 
L 632.357404 177.893971 
L 636.822238 177.629403 
L 642.665986 177.036659 
L 653.347436 175.858676 
L 660.092102 175.372137 
L 667.386025 175.084872 
L 674.250805 175.035022 
L 675.477976 175.046886 
L 675.477976 175.046886 
" style="fill:none;stroke:#000000;stroke-linecap:square;stroke-opacity:0.7;stroke-width:1.2;"/>
   </g>
   <g id="line2d_95">
    <path clip-path="url(#pf26f74bfb6)" d="M 675.433527 156.115517 
L 668.207648 154.638485 
L 661.291769 153.006402 
L 653.982677 151.006825 
L 648.734046 149.633725 
L 644.765574 148.838954 
L 641.072649 148.359821 
L 637.874587 148.156616 
L 634.64152 148.155501 
L 631.719283 148.354398 
L 628.824749 148.798936 
L 626.56919 149.395714 
L 624.588993 150.192739 
L 622.980558 151.114339 
L 621.571628 152.216808 
L 620.356968 153.523984 
L 619.617178 154.658116 
L 619.237149 155.586417 
L 619.13269 156.445516 
L 619.279186 157.017526 
L 619.62648 157.480041 
L 620.293929 157.909989 
L 621.40697 158.283749 
L 623.107305 158.593131 
L 626.116279 158.866363 
L 629.97971 158.984125 
L 634.931198 158.893781 
L 640.120358 158.564496 
L 647.735426 157.814762 
L 656.27108 157.044508 
L 664.326265 156.552221 
L 675.423874 156.11398 
L 675.423874 156.11398 
" style="fill:none;stroke:#000000;stroke-linecap:square;stroke-opacity:0.7;stroke-width:1.2;"/>
   </g>
   <g id="line2d_96">
    <path clip-path="url(#pf26f74bfb6)" d="M 675.430712 137.00109 
L 667.596467 135.395632 
L 661.006175 133.829061 
L 653.741224 131.83459 
L 648.501466 130.476314 
L 644.549354 129.700478 
L 640.859486 129.233472 
L 637.721775 129.040531 
L 634.639862 129.041571 
L 631.616763 129.253668 
L 629.078385 129.640172 
L 626.637803 130.262922 
L 624.878217 130.926035 
L 623.288451 131.73913 
L 621.684804 132.847874 
L 620.327954 134.138007 
L 619.502222 135.224673 
L 619.032087 136.113685 
L 618.805914 136.862416 
L 618.801242 137.609961 
L 619.068227 138.215276 
L 619.565785 138.673673 
L 620.764796 139.203591 
L 622.456779 139.589518 
L 625.063466 139.917793 
L 628.956829 140.140616 
L 632.945112 140.161617 
L 637.749674 139.969034 
L 643.734067 139.476785 
L 655.376583 138.43752 
L 675.423214 136.99921 
L 675.423214 136.99921 
" style="fill:none;stroke:#000000;stroke-linecap:square;stroke-opacity:0.7;stroke-width:1.2;"/>
   </g>
   <g id="line2d_97">
    <path clip-path="url(#pf26f74bfb6)" d="M 675.381559 118.011359 
L 665.598002 115.872092 
L 659.106538 114.22919 
L 648.530099 111.432585 
L 645.239555 110.807915 
L 641.954809 110.384392 
L 638.280583 110.150967 
L 635.050689 110.151916 
L 631.743125 110.367538 
L 629.323575 110.694841 
L 626.886954 111.225243 
L 625.070111 111.80591 
L 623.069306 112.710614 
L 621.713594 113.549155 
L 620.597433 114.443606 
L 619.557509 115.555587 
L 618.99241 116.397054 
L 618.58328 117.389057 
L 618.506459 118.141686 
L 618.691756 118.817012 
L 619.11584 119.358317 
L 619.725134 119.784245 
L 620.743504 120.22079 
L 622.523814 120.686863 
L 625.061231 121.089657 
L 628.227719 121.377615 
L 632.459893 121.518635 
L 636.470659 121.441212 
L 640.917273 121.144658 
L 647.52342 120.438167 
L 656.342234 119.522578 
L 668.52819 118.562875 
L 675.379935 118.014569 
L 675.379935 118.014569 
" style="fill:none;stroke:#000000;stroke-linecap:square;stroke-opacity:0.7;stroke-width:1.2;"/>
   </g>
   <g id="line2d_98">
    <path clip-path="url(#pf26f74bfb6)" d="M 675.48112 98.594225 
L 668.556829 97.303027 
L 661.856199 95.828879 
L 647.409565 92.439273 
L 644.038086 91.968462 
L 640.121902 91.671975 
L 636.289974 91.630523 
L 632.892775 91.79802 
L 629.507317 92.190975 
L 626.778539 92.739224 
L 625.072455 93.237976 
L 623.307061 93.941201 
L 621.561289 94.922964 
L 620.574713 95.684232 
L 619.662338 96.641974 
L 619.123182 97.47559 
L 618.820666 98.3057 
L 618.774202 98.967357 
L 618.936102 99.580671 
L 619.305685 100.1111 
L 619.723567 100.464976 
L 620.404936 100.854782 
L 621.90331 101.406162 
L 624.233547 101.956534 
L 627.233873 102.425964 
L 631.075208 102.78565 
L 635.360667 102.931649 
L 639.720671 102.83484 
L 644.85582 102.461815 
L 652.73333 101.60912 
L 665.168066 100.035059 
L 675.471915 98.580361 
L 675.471915 98.580361 
" style="fill:none;stroke:#000000;stroke-linecap:square;stroke-opacity:0.7;stroke-width:1.2;"/>
   </g>
   <g id="line2d_99">
    <path clip-path="url(#pf26f74bfb6)" d="M 675.388479 79.737611 
L 666.277596 77.76393 
L 655.7537 75.253008 
L 650.570708 74.11491 
L 646.641998 73.475317 
L 642.904622 73.097628 
L 638.851393 72.92791 
L 635.009254 72.969078 
L 630.931311 73.234232 
L 627.717581 73.668821 
L 625.453927 74.172954 
L 623.576918 74.79402 
L 622.014368 75.531503 
L 621.033845 76.151259 
L 619.800816 77.226709 
L 619.014586 78.299622 
L 618.704916 79.038011 
L 618.625261 80.064143 
L 618.885364 80.781139 
L 619.247464 81.24623 
L 619.791502 81.697168 
L 620.765102 82.237189 
L 622.692797 82.929784 
L 625.04646 83.491393 
L 628.006102 83.965678 
L 631.310697 84.285216 
L 635.19368 84.430957 
L 639.382861 84.343285 
L 643.842379 84.013204 
L 649.827842 83.323147 
L 665.489114 81.196293 
L 675.377776 79.723149 
L 675.377776 79.723149 
" style="fill:none;stroke:#000000;stroke-linecap:square;stroke-opacity:0.7;stroke-width:1.2;"/>
   </g>
   <g id="line2d_100">
    <path clip-path="url(#pf26f74bfb6)" d="M 675.342275 60.788624 
L 659.58799 57.039839 
L 652.994838 55.512075 
L 648.881319 54.777855 
L 645.128295 54.339128 
L 641.147758 54.115296 
L 636.999643 54.108552 
L 632.44338 54.339307 
L 628.655002 54.765299 
L 626.211051 55.224251 
L 624.302228 55.751193 
L 622.567726 56.434925 
L 621.071886 57.280131 
L 619.93142 58.211729 
L 619.254485 59.018619 
L 618.809376 59.879365 
L 618.664446 60.633081 
L 618.743452 61.234178 
L 619.028545 61.81632 
L 619.370517 62.213969 
L 620.270758 62.877042 
L 621.943776 63.648949 
L 624.010087 64.306843 
L 626.521782 64.890775 
L 629.666923 65.40072 
L 632.978877 65.72467 
L 636.652398 65.857094 
L 640.305945 65.773018 
L 644.919429 65.413085 
L 651.495846 64.628042 
L 663.304248 62.9871 
L 669.917352 61.850338 
L 675.326332 60.781256 
L 675.326332 60.781256 
" style="fill:none;stroke:#000000;stroke-linecap:square;stroke-opacity:0.7;stroke-width:1.2;"/>
   </g>
  </g>
 </g>
 <defs>
  <clipPath id="pf26f74bfb6">
   <rect height="262.08" width="694.08" x="12.96" y="12.96"/>
  </clipPath>
 </defs>
</svg>
