<?xml version="1.0" encoding="utf-8" standalone="no"?>
<!DOCTYPE svg PUBLIC "-//W3C//DTD SVG 1.1//EN"
  "http://www.w3.org/Graphics/SVG/1.1/DTD/svg11.dtd">
<!-- Created with matplotlib (https://matplotlib.org/) -->
<svg height="288pt" version="1.1" viewBox="0 0 720 288" width="720pt" xmlns="http://www.w3.org/2000/svg" xmlns:xlink="http://www.w3.org/1999/xlink">
 <metadata>
  <rdf:RDF xmlns:cc="http://creativecommons.org/ns#" xmlns:dc="http://purl.org/dc/elements/1.1/" xmlns:rdf="http://www.w3.org/1999/02/22-rdf-syntax-ns#">
   <cc:Work>
    <dc:type rdf:resource="http://purl.org/dc/dcmitype/StillImage"/>
    <dc:date>2020-11-07T00:05:13.809165</dc:date>
    <dc:format>image/svg+xml</dc:format>
    <dc:creator>
     <cc:Agent>
      <dc:title>Matplotlib v3.3.2, https://matplotlib.org/</dc:title>
     </cc:Agent>
    </dc:creator>
   </cc:Work>
  </rdf:RDF>
 </metadata>
 <defs>
  <style type="text/css">*{stroke-linecap:butt;stroke-linejoin:round;}</style>
 </defs>
 <g id="figure_1">
  <g id="patch_1">
   <path d="M 0 288 
L 720 288 
L 720 0 
L 0 0 
z
" style="fill:#ffffff;"/>
  </g>
  <g id="axes_1">
   <g id="line2d_1">
    <path clip-path="url(#pfaffd7100a)" d="M 148.540814 223.937991 
L 129.505074 218.879068 
L 105.983172 212.530447 
L 100.866555 211.420672 
L 95.953496 210.571266 
L 91.291222 209.996755 
L 87.078361 209.686328 
L 82.493937 209.576221 
L 77.878765 209.698751 
L 73.271174 210.046117 
L 68.494196 210.642787 
L 64.024435 211.438865 
L 60.644365 212.227313 
L 57.491523 213.155977 
L 54.523856 214.268725 
L 52.393464 215.269665 
L 50.650523 216.264478 
L 48.518682 217.793452 
L 46.986148 219.228249 
L 46.043139 220.361204 
L 45.158566 221.804369 
L 44.707515 222.983839 
L 44.538904 224.168535 
L 44.608252 224.891052 
L 44.87323 225.675349 
L 45.636091 226.714959 
L 46.017357 227.052505 
L 46.819737 227.601446 
L 47.713842 228.06638 
L 49.896558 228.879885 
L 52.569198 229.566152 
L 55.923012 230.1797 
L 60.227892 230.72485 
L 64.946527 231.105433 
L 70.761391 231.331044 
L 76.431965 231.329121 
L 82.305778 231.121757 
L 89.893912 230.593752 
L 98.55701 229.747351 
L 113.747295 227.993318 
L 148.513665 223.740471 
L 148.513665 223.740471 
" style="fill:none;stroke:#000000;stroke-linecap:square;stroke-opacity:0.7;stroke-width:1.2;"/>
   </g>
   <g id="line2d_2">
    <path clip-path="url(#pfaffd7100a)" d="M 148.416733 184.6722 
L 123.609004 181.67444 
L 114.146942 180.301283 
L 105.058729 178.758214 
L 91.315634 176.40357 
L 85.541964 175.644065 
L 80.845218 175.211016 
L 76.022206 174.978563 
L 71.677229 174.980211 
L 66.811012 175.251148 
L 63.199767 175.661892 
L 60.167014 176.167871 
L 56.403292 177.043356 
L 53.502379 177.95579 
L 50.984179 178.976192 
L 48.997951 179.995831 
L 47.196212 181.184764 
L 45.965457 182.270826 
L 45.086275 183.404563 
L 44.68155 184.419184 
L 44.676266 185.238252 
L 45.031436 186.021453 
L 45.588106 186.583425 
L 46.78563 187.277625 
L 48.606783 187.910399 
L 51.488277 188.541756 
L 55.191003 189.073537 
L 60.412174 189.562644 
L 66.444605 189.898655 
L 73.661415 190.065319 
L 81.199877 190.00766 
L 89.26243 189.717966 
L 98.855936 189.138274 
L 109.812699 188.258237 
L 122.283948 187.037775 
L 147.105235 184.517062 
L 148.407284 184.405015 
L 148.407284 184.405015 
" style="fill:none;stroke:#000000;stroke-linecap:square;stroke-opacity:0.7;stroke-width:1.2;"/>
   </g>
   <g id="line2d_3">
    <path clip-path="url(#pfaffd7100a)" d="M 148.277624 145.611465 
L 140.371741 143.261368 
L 131.600172 140.879184 
L 124.665676 139.239044 
L 118.935003 138.117316 
L 114.293578 137.400868 
L 109.207515 136.830316 
L 104.527431 136.498831 
L 99.427709 136.325962 
L 93.414847 136.328289 
L 85.311989 136.585487 
L 76.036804 137.116266 
L 67.593624 137.816871 
L 61.599543 138.543135 
L 57.635895 139.210741 
L 55.128149 139.749043 
L 51.398377 140.793678 
L 49.480987 141.49754 
L 47.510125 142.417397 
L 46.293156 143.160771 
L 45.310491 143.983811 
L 44.786273 144.685246 
L 44.594311 145.316215 
L 44.689408 145.871372 
L 45.039633 146.373675 
L 46.011135 147.046753 
L 47.457303 147.636871 
L 49.862932 148.295712 
L 53.535014 149.006492 
L 58.802434 149.744643 
L 64.585699 150.329853 
L 71.051593 150.772935 
L 77.064242 151.005046 
L 83.340155 151.070666 
L 90.636723 150.941454 
L 100.292074 150.516951 
L 110.521218 149.838168 
L 120.44935 148.944191 
L 130.615332 147.787145 
L 145.911886 145.773284 
L 148.263695 145.456516 
L 148.263695 145.456516 
" style="fill:none;stroke:#000000;stroke-linecap:square;stroke-opacity:0.7;stroke-width:1.2;"/>
   </g>
   <g id="line2d_4">
    <path clip-path="url(#pfaffd7100a)" d="M 148.273867 105.934824 
L 136.280507 103.570145 
L 126.007596 101.753445 
L 119.196609 100.760045 
L 114.128257 100.203738 
L 108.443398 99.827907 
L 103.98701 99.733832 
L 98.340484 99.842143 
L 90.531164 100.27499 
L 55.897764 102.748202 
L 51.507015 103.404982 
L 48.803455 103.988645 
L 46.359522 104.76057 
L 45.225769 105.324172 
L 44.657622 105.818396 
L 44.522767 106.332275 
L 44.702503 106.646029 
L 45.25253 107.037455 
L 46.259779 107.444026 
L 47.87613 107.878728 
L 51.194443 108.499963 
L 55.735082 109.119722 
L 62.665168 109.819694 
L 69.937957 110.341293 
L 78.252781 110.70879 
L 85.925674 110.836715 
L 94.422383 110.755843 
L 102.619412 110.47939 
L 111.434521 109.958357 
L 119.766924 109.234587 
L 129.15672 108.17589 
L 148.288236 105.695782 
L 148.288236 105.695782 
" style="fill:none;stroke:#000000;stroke-linecap:square;stroke-opacity:0.7;stroke-width:1.2;"/>
   </g>
   <g id="line2d_5">
    <path clip-path="url(#pfaffd7100a)" d="M 148.256728 66.47373 
L 137.516623 64.287964 
L 128.123547 62.554875 
L 121.038375 61.436898 
L 115.047246 60.699941 
L 109.626023 60.259922 
L 104.69235 60.073622 
L 98.702741 60.104992 
L 91.443562 60.417915 
L 64.604252 62.097424 
L 58.36694 62.640942 
L 54.021201 63.214762 
L 51.008085 63.777485 
L 48.012238 64.572731 
L 46.361171 65.212622 
L 45.329032 65.810989 
L 44.885698 66.246057 
L 44.736517 66.582015 
L 44.789957 66.937265 
L 45.136629 67.316946 
L 46.001147 67.752431 
L 47.302724 68.140954 
L 49.274636 68.542895 
L 53.585529 69.148939 
L 59.775066 69.759091 
L 67.015638 70.268311 
L 76.04735 70.672718 
L 84.466865 70.840288 
L 94.506737 70.805632 
L 103.588161 70.569812 
L 111.917781 70.145759 
L 120.011566 69.516487 
L 129.415204 68.546762 
L 148.255201 66.2934 
L 148.255201 66.2934 
" style="fill:none;stroke:#000000;stroke-linecap:square;stroke-opacity:0.7;stroke-width:1.2;"/>
   </g>
   <g id="line2d_6">
    <path clip-path="url(#pfaffd7100a)" d="M 280.227204 223.852557 
L 258.632019 219.5914 
L 248.787437 217.880209 
L 241.798827 216.869232 
L 235.441871 216.158294 
L 229.863884 215.726221 
L 223.783233 215.468991 
L 217.523976 215.428677 
L 210.796334 215.617904 
L 204.481009 216.003083 
L 198.725935 216.547362 
L 193.207241 217.300729 
L 188.662248 218.170944 
L 185.515682 218.965949 
L 182.512701 219.936892 
L 179.791067 221.089635 
L 178.18519 221.976817 
L 176.921381 222.898864 
L 176.142063 223.750782 
L 175.880783 224.316936 
L 175.912866 224.860985 
L 176.167611 225.209338 
L 176.68518 225.526195 
L 177.575093 225.801306 
L 179.113701 226.0311 
L 181.889048 226.190583 
L 187.20478 226.230425 
L 200.138246 226.028905 
L 226.620947 225.393891 
L 240.091219 224.840163 
L 264.78994 223.757576 
L 274.184637 223.603708 
L 280.223089 223.607737 
L 280.223089 223.607737 
" style="fill:none;stroke:#000000;stroke-linecap:square;stroke-opacity:0.7;stroke-width:1.2;"/>
   </g>
   <g id="line2d_7">
    <path clip-path="url(#pfaffd7100a)" d="M 280.002253 185.022096 
L 267.041161 183.844772 
L 231.880905 180.818654 
L 219.536382 179.256242 
L 211.249433 178.291514 
L 205.690181 177.859597 
L 200.905182 177.729423 
L 197.170322 177.833189 
L 194.062257 178.080832 
L 190.892166 178.50123 
L 187.033036 179.267257 
L 183.756633 180.172544 
L 180.771109 181.264098 
L 178.472293 182.379758 
L 177.217674 183.197825 
L 176.386638 184.002955 
L 176.133055 184.575855 
L 176.177639 184.886714 
L 176.377231 185.154795 
L 176.986668 185.494154 
L 178.057192 185.771101 
L 180.036193 186.013078 
L 183.346374 186.18076 
L 189.313548 186.249171 
L 200.409041 186.104959 
L 212.694436 185.721245 
L 224.685029 185.140445 
L 246.946412 183.998325 
L 255.842325 183.827229 
L 263.742567 183.918641 
L 272.151363 184.258523 
L 280.022339 184.740166 
L 280.022339 184.740166 
" style="fill:none;stroke:#000000;stroke-linecap:square;stroke-opacity:0.7;stroke-width:1.2;"/>
   </g>
   <g id="line2d_8">
    <path clip-path="url(#pfaffd7100a)" d="M 280.219357 145.157265 
L 261.97039 141.906906 
L 253.521132 140.143959 
L 245.952469 138.298217 
L 236.513772 135.701167 
L 228.312876 133.476689 
L 222.578308 132.136522 
L 217.92559 131.258422 
L 213.010235 130.580517 
L 208.142181 130.197635 
L 203.908096 130.127417 
L 200.550322 130.269227 
L 196.962962 130.646169 
L 193.699307 131.232956 
L 191.67746 131.738209 
L 188.715638 132.720238 
L 186.649881 133.612985 
L 184.448245 134.799514 
L 182.075937 136.424006 
L 180.332491 137.925978 
L 178.663507 139.73359 
L 177.390091 141.557489 
L 176.552387 143.341124 
L 176.242716 144.749697 
L 176.2817 145.705884 
L 176.525829 146.469551 
L 176.847755 146.990488 
L 177.430615 147.579545 
L 178.659763 148.313798 
L 180.440319 148.933625 
L 182.542071 149.389961 
L 185.350267 149.778693 
L 190.181873 150.144183 
L 195.28868 150.288749 
L 201.561159 150.238248 
L 208.387558 149.959602 
L 216.176973 149.412436 
L 228.333233 148.287164 
L 243.373282 146.963645 
L 256.793953 146.009944 
L 269.314434 145.323133 
L 280.20453 144.917127 
L 280.20453 144.917127 
" style="fill:none;stroke:#000000;stroke-linecap:square;stroke-opacity:0.7;stroke-width:1.2;"/>
   </g>
   <g id="line2d_9">
    <path clip-path="url(#pfaffd7100a)" d="M 280.122456 105.797962 
L 270.927837 102.992695 
L 263.825941 101.035613 
L 257.329273 99.487035 
L 251.841784 98.445676 
L 246.983808 97.795936 
L 242.488623 97.460848 
L 237.513169 97.396278 
L 232.813659 97.601486 
L 227.198117 98.106803 
L 218.542077 99.188616 
L 206.857739 100.659859 
L 196.894237 101.644787 
L 187.479538 102.59575 
L 183.299089 103.216186 
L 180.359252 103.833717 
L 178.629868 104.330803 
L 177.127428 104.941992 
L 176.303798 105.507842 
L 176.067079 105.942299 
L 176.161085 106.276182 
L 176.63401 106.65946 
L 177.40241 106.982225 
L 179.448297 107.493881 
L 182.897239 108.04957 
L 188.993702 108.753785 
L 198.395032 109.574396 
L 210.187961 110.354718 
L 220.907241 110.844508 
L 228.859285 111.014907 
L 235.378138 110.971332 
L 242.607991 110.679116 
L 249.122333 110.1778 
L 256.060812 109.406541 
L 263.879144 108.296582 
L 275.833457 106.330254 
L 280.080832 105.619615 
L 280.080832 105.619615 
" style="fill:none;stroke:#000000;stroke-linecap:square;stroke-opacity:0.7;stroke-width:1.2;"/>
   </g>
   <g id="line2d_10">
    <path clip-path="url(#pfaffd7100a)" d="M 280.04289 66.450422 
L 267.014182 64.712117 
L 240.580346 61.263737 
L 216.436019 57.69198 
L 210.631971 57.185055 
L 205.865536 57.001045 
L 202.189198 57.036661 
L 197.733981 57.324221 
L 194.262951 57.761154 
L 190.797637 58.411239 
L 187.70724 59.199812 
L 184.479138 60.279191 
L 182.312998 61.191691 
L 180.226834 62.273162 
L 178.663302 63.290081 
L 177.461692 64.309032 
L 176.764615 65.151612 
L 176.420271 65.893671 
L 176.378352 66.437701 
L 176.499249 66.833409 
L 176.790064 67.225261 
L 177.466791 67.698584 
L 178.667865 68.161576 
L 180.488127 68.572703 
L 184.00344 69.022911 
L 188.767231 69.348959 
L 195.320231 69.546261 
L 202.162401 69.550107 
L 210.521217 69.316345 
L 218.844472 68.833255 
L 230.401541 67.876866 
L 242.934612 66.876617 
L 251.591135 66.385057 
L 260.219888 66.11309 
L 268.682648 66.059072 
L 280.039183 66.229716 
L 280.039183 66.229716 
" style="fill:none;stroke:#000000;stroke-linecap:square;stroke-opacity:0.7;stroke-width:1.2;"/>
   </g>
   <g id="line2d_11">
    <path clip-path="url(#pfaffd7100a)" d="M 412.031682 223.852585 
L 404.736072 221.19738 
L 397.818923 218.921217 
L 392.13735 217.299778 
L 387.709047 216.24748 
L 383.447974 215.450169 
L 378.570313 214.827778 
L 374.290826 214.541365 
L 370.344148 214.476363 
L 365.625337 214.611051 
L 359.575318 215.036275 
L 350.845276 215.926706 
L 325.059078 218.883674 
L 319.951403 219.708287 
L 315.405527 220.701133 
L 312.489677 221.563893 
L 310.695346 222.253952 
L 309.236008 222.994661 
L 308.306906 223.681151 
L 307.848241 224.310316 
L 307.79137 224.730261 
L 307.986824 225.154994 
L 308.279034 225.430107 
L 309.008795 225.83958 
L 310.334318 226.301032 
L 313.289143 226.964028 
L 317.423169 227.622531 
L 324.457864 228.479465 
L 332.467973 229.235362 
L 340.642903 229.807821 
L 348.326141 230.142615 
L 354.771553 230.238633 
L 362.154838 230.102055 
L 368.253008 229.771448 
L 374.265895 229.25088 
L 381.503433 228.390189 
L 390.255719 227.087922 
L 412.020907 223.630982 
L 412.020907 223.630982 
" style="fill:none;stroke:#000000;stroke-linecap:square;stroke-opacity:0.7;stroke-width:1.2;"/>
   </g>
   <g id="line2d_12">
    <path clip-path="url(#pfaffd7100a)" d="M 411.757403 185.200307 
L 398.331322 182.241904 
L 363.856326 175.022206 
L 357.47564 173.934546 
L 352.231867 173.253272 
L 347.03406 172.814191 
L 342.134082 172.642683 
L 337.870117 172.699929 
L 333.458381 172.976324 
L 329.636278 173.411598 
L 325.127274 174.195036 
L 321.082404 175.20139 
L 318.219668 176.133533 
L 314.978396 177.478268 
L 312.181471 178.983898 
L 310.541054 180.09492 
L 308.914681 181.496539 
L 307.806694 182.87788 
L 307.45962 183.620742 
L 307.377884 184.460177 
L 307.526729 184.872871 
L 307.88885 185.284148 
L 308.190077 185.484988 
L 309.649728 185.965908 
L 311.247703 186.167839 
L 314.286454 186.245011 
L 318.204799 186.100092 
L 324.441221 185.618545 
L 332.381271 184.766577 
L 344.233264 183.224524 
L 354.159379 181.992393 
L 359.821575 181.509529 
L 365.028075 181.267126 
L 371.04465 181.216906 
L 377.429495 181.395255 
L 384.639891 181.837795 
L 392.136973 182.526857 
L 401.051144 183.587216 
L 411.723626 185.086627 
L 411.723626 185.086627 
" style="fill:none;stroke:#000000;stroke-linecap:square;stroke-opacity:0.7;stroke-width:1.2;"/>
   </g>
   <g id="line2d_13">
    <path clip-path="url(#pfaffd7100a)" d="M 411.981482 145.184823 
L 404.217427 142.604355 
L 394.819727 139.702429 
L 387.774231 137.749768 
L 382.068508 136.3774 
L 377.257137 135.406475 
L 372.306212 134.610457 
L 367.162635 134.013932 
L 362.384527 133.670701 
L 357.305613 133.52003 
L 352.28869 133.571993 
L 345.952722 133.889841 
L 340.139554 134.39633 
L 334.472015 135.072914 
L 328.294001 136.040625 
L 323.61751 136.992451 
L 319.899004 137.95405 
L 316.708626 138.999346 
L 313.667793 140.295576 
L 311.821811 141.318415 
L 310.285586 142.418366 
L 309.123326 143.57464 
L 308.407693 144.771475 
L 308.23693 145.632697 
L 308.359424 146.334059 
L 308.667729 146.890654 
L 309.140021 147.384719 
L 309.939541 147.930911 
L 311.543225 148.637861 
L 313.346493 149.182502 
L 316.898331 149.936253 
L 321.336897 150.596307 
L 327.127015 151.201723 
L 334.106653 151.666948 
L 341.307216 151.89411 
L 347.895529 151.891918 
L 355.5636 151.652692 
L 364.222077 151.117605 
L 373.34947 150.30183 
L 382.393489 149.272484 
L 393.189423 147.804872 
L 411.952216 144.98565 
L 411.952216 144.98565 
" style="fill:none;stroke:#000000;stroke-linecap:square;stroke-opacity:0.7;stroke-width:1.2;"/>
   </g>
   <g id="line2d_14">
    <path clip-path="url(#pfaffd7100a)" d="M 411.993614 105.341399 
L 381.152333 99.344902 
L 371.518736 97.691049 
L 364.575105 96.704747 
L 358.347401 96.049738 
L 352.147793 95.66329 
L 346.170992 95.559931 
L 340.598056 95.701815 
L 334.506844 96.12168 
L 329.936271 96.634375 
L 325.536743 97.321804 
L 321.143879 98.25647 
L 317.154318 99.402759 
L 314.015353 100.590087 
L 311.971518 101.562651 
L 310.220253 102.595278 
L 308.861553 103.634058 
L 308.080979 104.473179 
L 307.714519 105.134059 
L 307.634119 105.590145 
L 307.780939 106.092755 
L 308.084969 106.432794 
L 308.828109 106.856581 
L 310.24913 107.280716 
L 313.034722 107.713785 
L 316.979011 108.040628 
L 323.194006 108.30424 
L 330.783742 108.41773 
L 339.768052 108.341982 
L 349.264312 108.025518 
L 358.581434 107.484937 
L 373.03789 106.369924 
L 385.958734 105.430414 
L 394.293606 105.045279 
L 401.42691 104.924002 
L 409.5204 105.021741 
L 411.999281 105.09459 
L 411.999281 105.09459 
" style="fill:none;stroke:#000000;stroke-linecap:square;stroke-opacity:0.7;stroke-width:1.2;"/>
   </g>
   <g id="line2d_15">
    <path clip-path="url(#pfaffd7100a)" d="M 411.908091 66.167886 
L 401.853014 63.257594 
L 393.048793 60.939414 
L 387.244579 59.592824 
L 381.408976 58.451294 
L 375.950018 57.625206 
L 371.052749 57.103512 
L 365.668236 56.764716 
L 360.212856 56.64534 
L 353.524853 56.750099 
L 346.180868 57.108574 
L 338.658692 57.685456 
L 331.803165 58.408009 
L 325.796323 59.268469 
L 320.772281 60.250793 
L 316.732938 61.314649 
L 313.91578 62.281777 
L 311.309049 63.455409 
L 309.940357 64.274676 
L 308.9186 65.110835 
L 308.389034 65.818679 
L 308.252315 66.373004 
L 308.427781 66.86523 
L 308.737007 67.162764 
L 309.321822 67.477913 
L 310.727192 67.885948 
L 313.305652 68.27535 
L 317.510796 68.6318 
L 325.730907 69.050317 
L 337.693857 69.424437 
L 348.583981 69.571501 
L 356.761146 69.497311 
L 365.48264 69.182113 
L 374.383976 68.631084 
L 393.216062 67.149862 
L 406.518836 66.250904 
L 411.865921 65.966445 
L 411.865921 65.966445 
" style="fill:none;stroke:#000000;stroke-linecap:square;stroke-opacity:0.7;stroke-width:1.2;"/>
   </g>
   <g id="line2d_16">
    <path clip-path="url(#pfaffd7100a)" d="M 543.781894 224.020418 
L 525.144431 218.601017 
L 506.091904 213.134182 
L 500.141085 211.653555 
L 495.088899 210.604114 
L 490.99125 209.931977 
L 486.306662 209.387049 
L 482.44375 209.127279 
L 477.767305 209.044191 
L 472.77627 209.228959 
L 468.434934 209.613604 
L 463.510593 210.30654 
L 459.540959 211.085056 
L 456.020878 211.97642 
L 452.996152 212.938966 
L 450.194987 214.05032 
L 447.610523 215.33792 
L 445.194831 216.875984 
L 443.500804 218.254106 
L 442.843517 218.891226 
L 441.275768 220.8392 
L 440.623014 222.070085 
L 440.241867 223.448431 
L 440.291487 224.59527 
L 440.525994 225.233835 
L 441.148557 226.040201 
L 441.612929 226.409034 
L 442.97746 227.097175 
L 444.412388 227.538648 
L 447.388916 228.088708 
L 451.320138 228.489924 
L 457.12172 228.783957 
L 464.057829 228.882799 
L 472.618887 228.749192 
L 480.972381 228.398388 
L 491.704469 227.698972 
L 512.295313 226.038022 
L 532.254043 224.51019 
L 543.757667 223.799141 
L 543.757667 223.799141 
" style="fill:none;stroke:#000000;stroke-linecap:square;stroke-opacity:0.7;stroke-width:1.2;"/>
   </g>
   <g id="line2d_17">
    <path clip-path="url(#pfaffd7100a)" d="M 543.843485 184.229912 
L 524.7298 178.678984 
L 510.620821 174.726871 
L 503.213565 172.897388 
L 497.981412 171.821642 
L 493.420509 171.081055 
L 488.308927 170.50499 
L 483.294039 170.219405 
L 478.768401 170.201243 
L 473.854624 170.430626 
L 469.177701 170.880909 
L 464.951364 171.482186 
L 460.506612 172.330095 
L 456.680347 173.271154 
L 453.308338 174.3099 
L 450.33005 175.446077 
L 447.677321 176.69427 
L 445.766281 177.782843 
L 443.974821 179.006891 
L 442.370307 180.35647 
L 440.868282 182.028727 
L 440.046563 183.396748 
L 439.705666 184.46789 
L 439.679943 185.263257 
L 439.839324 185.861979 
L 440.234906 186.473209 
L 441.101399 187.137158 
L 442.515871 187.699532 
L 444.166557 188.069343 
L 447.331014 188.444042 
L 451.323275 188.649219 
L 457.711482 188.704676 
L 465.940415 188.512095 
L 474.820615 188.07698 
L 485.64136 187.294519 
L 520.229055 184.491572 
L 528.941734 184.10463 
L 537.827796 183.948806 
L 543.822085 183.976061 
L 543.822085 183.976061 
" style="fill:none;stroke:#000000;stroke-linecap:square;stroke-opacity:0.7;stroke-width:1.2;"/>
   </g>
   <g id="line2d_18">
    <path clip-path="url(#pfaffd7100a)" d="M 543.375813 145.905881 
L 535.020981 144.51651 
L 525.255318 143.097448 
L 517.124997 142.11685 
L 509.48726 141.433533 
L 503.295921 141.095381 
L 496.252084 140.94636 
L 486.358499 141.013933 
L 466.268453 141.196643 
L 458.403006 141.372033 
L 453.604512 141.680195 
L 450.042097 142.074278 
L 446.431564 142.687125 
L 443.689295 143.385736 
L 441.716059 144.148757 
L 440.624059 144.873498 
L 440.307006 145.386852 
L 440.373593 145.809769 
L 440.71976 146.171365 
L 441.62609 146.617897 
L 442.672468 146.931172 
L 445.577369 147.477749 
L 450.077065 148.008378 
L 456.111875 148.495668 
L 464.446936 148.956762 
L 473.973373 149.276324 
L 485.029013 149.410555 
L 495.671271 149.310947 
L 504.905931 149.007523 
L 513.169291 148.536356 
L 522.355736 147.807719 
L 536.735607 146.403666 
L 543.387367 145.72201 
L 543.387367 145.72201 
" style="fill:none;stroke:#000000;stroke-linecap:square;stroke-opacity:0.7;stroke-width:1.2;"/>
   </g>
   <g id="line2d_19">
    <path clip-path="url(#pfaffd7100a)" d="M 543.592911 105.997899 
L 535.383144 103.580309 
L 526.554414 101.200523 
L 520.247928 99.712673 
L 514.404402 98.564887 
L 509.811858 97.856037 
L 504.887566 97.302541 
L 499.10788 96.919853 
L 493.157483 96.792332 
L 486.756324 96.896824 
L 478.842756 97.274651 
L 469.310875 97.975513 
L 461.082773 98.793628 
L 455.466608 99.548995 
L 450.376211 100.489472 
L 446.570368 101.464168 
L 443.731956 102.456141 
L 442.143869 103.191476 
L 440.825414 104.008075 
L 439.916935 104.881223 
L 439.587311 105.595416 
L 439.592798 106.016634 
L 439.846175 106.545501 
L 440.331261 107.009331 
L 440.905236 107.371272 
L 442.499426 108.05039 
L 445.411147 108.877617 
L 449.654409 109.749941 
L 454.5534 110.528803 
L 461.112343 111.32836 
L 467.341912 111.873686 
L 473.991025 112.231565 
L 480.358894 112.349146 
L 485.953235 112.269047 
L 493.299224 111.923414 
L 500.403156 111.367075 
L 507.739932 110.601902 
L 517.921941 109.296927 
L 543.563112 105.816376 
L 543.563112 105.816376 
" style="fill:none;stroke:#000000;stroke-linecap:square;stroke-opacity:0.7;stroke-width:1.2;"/>
   </g>
   <g id="line2d_20">
    <path clip-path="url(#pfaffd7100a)" d="M 543.515877 66.490888 
L 532.823874 64.472588 
L 520.2497 62.301087 
L 506.09431 60.088311 
L 495.040955 58.543098 
L 487.68092 57.700896 
L 480.847173 57.152221 
L 475.105929 56.923376 
L 469.815399 56.940194 
L 465.230303 57.162126 
L 460.690377 57.607028 
L 456.417808 58.274311 
L 453.071463 59.004352 
L 449.283594 60.109194 
L 446.327861 61.240896 
L 444.552128 62.077361 
L 442.697233 63.13746 
L 441.290222 64.156919 
L 440.307534 65.127282 
L 439.871829 65.809116 
L 439.747455 66.51629 
L 439.879274 66.860625 
L 440.266247 67.230021 
L 440.899071 67.523726 
L 442.031755 67.794032 
L 444.532454 68.03842 
L 448.001767 68.119421 
L 454.352477 68.022155 
L 465.6977 67.587005 
L 497.963041 66.188585 
L 510.003014 66.005932 
L 524.714476 66.028096 
L 543.538495 66.279316 
L 543.538495 66.279316 
" style="fill:none;stroke:#000000;stroke-linecap:square;stroke-opacity:0.7;stroke-width:1.2;"/>
   </g>
   <g id="line2d_21">
    <path clip-path="url(#pfaffd7100a)" d="M 675.488698 223.984049 
L 664.897271 221.508103 
L 655.771625 219.579497 
L 648.616129 218.299226 
L 642.956597 217.498798 
L 637.125454 216.912073 
L 630.802319 216.550411 
L 623.928968 216.421578 
L 615.696071 216.503795 
L 605.773716 216.831972 
L 598.644228 217.262314 
L 593.481374 217.743144 
L 588.184184 218.459255 
L 584.336796 219.173998 
L 580.84081 220.01491 
L 577.747308 220.965944 
L 575.059663 222.027449 
L 573.324579 222.912011 
L 571.85092 223.961455 
L 571.309358 224.698085 
L 571.308427 225.057066 
L 571.491751 225.279602 
L 572.029465 225.496264 
L 573.254103 225.611473 
L 575.334236 225.535209 
L 581.045324 225.00536 
L 592.110005 223.988077 
L 600.590805 223.446317 
L 607.930647 223.208371 
L 615.164948 223.213553 
L 626.303861 223.529046 
L 637.979755 223.77697 
L 649.027362 223.766164 
L 670.607939 223.674323 
L 675.490909 223.731073 
L 675.490909 223.731073 
" style="fill:none;stroke:#000000;stroke-linecap:square;stroke-opacity:0.7;stroke-width:1.2;"/>
   </g>
   <g id="line2d_22">
    <path clip-path="url(#pfaffd7100a)" d="M 675.45548 184.567929 
L 653.241438 179.744757 
L 642.827974 177.25449 
L 627.87378 173.630135 
L 622.955652 172.657941 
L 618.379261 171.94848 
L 613.18254 171.413653 
L 608.549933 171.199028 
L 603.677245 171.247926 
L 599.221008 171.544094 
L 595.498062 171.984172 
L 591.06329 172.761311 
L 587.324 173.667789 
L 583.874304 174.75815 
L 580.7219 176.027544 
L 578.039441 177.378103 
L 576.049567 178.599145 
L 574.342243 179.864834 
L 572.94842 181.148094 
L 572.01821 182.270453 
L 571.379818 183.49917 
L 571.26698 184.138121 
L 571.349339 184.681859 
L 571.712875 185.257619 
L 572.128872 185.591399 
L 573.439428 186.146511 
L 575.349994 186.536164 
L 578.845825 186.848744 
L 583.716189 186.963251 
L 590.690584 186.84337 
L 599.584799 186.411379 
L 609.313914 185.673562 
L 624.888488 184.172317 
L 633.535072 183.440492 
L 641.881278 182.974831 
L 649.147635 182.823279 
L 656.179163 182.925501 
L 662.709086 183.231773 
L 670.932129 183.856797 
L 675.463082 184.286351 
L 675.463082 184.286351 
" style="fill:none;stroke:#000000;stroke-linecap:square;stroke-opacity:0.7;stroke-width:1.2;"/>
   </g>
   <g id="line2d_23">
    <path clip-path="url(#pfaffd7100a)" d="M 675.448129 145.131671 
L 647.418049 140.641045 
L 638.460149 138.916763 
L 616.410342 134.426449 
L 610.974231 133.676032 
L 606.03732 133.251525 
L 601.590611 133.119087 
L 597.171826 133.255609 
L 593.881583 133.551943 
L 590.201378 134.105583 
L 586.555685 134.919058 
L 583.269431 135.919431 
L 580.108485 137.174633 
L 577.870954 138.282748 
L 575.633298 139.636011 
L 574.152542 140.723088 
L 572.376735 142.378406 
L 571.842004 143.023867 
L 571.028239 144.474945 
L 570.904729 145.204496 
L 571.091698 145.858342 
L 571.43236 146.223261 
L 572.106443 146.563639 
L 573.469361 146.82778 
L 575.603451 146.880025 
L 579.629809 146.593248 
L 585.481191 145.868128 
L 594.089273 144.556241 
L 612.548398 141.642938 
L 617.897654 141.037996 
L 622.354403 140.709475 
L 627.792882 140.528516 
L 633.657644 140.56116 
L 641.349703 140.874265 
L 649.420996 141.461511 
L 658.178491 142.367509 
L 666.916905 143.535071 
L 675.439452 144.887953 
L 675.439452 144.887953 
" style="fill:none;stroke:#000000;stroke-linecap:square;stroke-opacity:0.7;stroke-width:1.2;"/>
   </g>
   <g id="line2d_24">
    <path clip-path="url(#pfaffd7100a)" d="M 675.327963 105.755385 
L 658.93361 104.77729 
L 638.582219 103.537604 
L 630.116092 102.754909 
L 621.287726 101.663797 
L 604.455545 99.468095 
L 599.602155 99.083364 
L 595.093448 98.952654 
L 591.260096 99.063175 
L 587.737581 99.376927 
L 584.409871 99.885148 
L 581.213876 100.594518 
L 579.325441 101.132523 
L 575.938242 102.38486 
L 573.953349 103.375622 
L 572.565729 104.294408 
L 571.62682 105.228692 
L 571.379743 105.714591 
L 571.384835 106.195124 
L 571.600603 106.499964 
L 572.168598 106.813607 
L 572.986118 107.016679 
L 574.076601 107.141376 
L 576.953535 107.201214 
L 582.943242 106.986358 
L 610.955958 105.691903 
L 622.923929 105.488813 
L 660.050522 105.20337 
L 672.311797 105.41552 
L 675.347276 105.49795 
L 675.347276 105.49795 
" style="fill:none;stroke:#000000;stroke-linecap:square;stroke-opacity:0.7;stroke-width:1.2;"/>
   </g>
   <g id="line2d_25">
    <path clip-path="url(#pfaffd7100a)" d="M 675.365478 66.353315 
L 657.612769 64.246966 
L 643.990104 62.840218 
L 633.65596 62.010684 
L 623.911219 61.444673 
L 609.266127 60.844421 
L 600.39806 60.656126 
L 594.203304 60.7248 
L 589.99437 60.936919 
L 586.295592 61.278442 
L 582.372538 61.847909 
L 579.225706 62.508398 
L 576.671869 63.231939 
L 574.436599 64.08223 
L 572.913795 64.88066 
L 572.005778 65.566208 
L 571.457807 66.305532 
L 571.394133 66.862529 
L 571.62132 67.307815 
L 572.316952 67.830344 
L 573.183101 68.197501 
L 574.282411 68.519766 
L 576.644873 68.996504 
L 580.774997 69.55236 
L 587.776085 70.182274 
L 595.499012 70.647446 
L 605.044922 70.984483 
L 614.364863 71.069372 
L 622.707566 70.923114 
L 630.657273 70.571696 
L 639.243032 69.956415 
L 648.483649 69.058708 
L 675.363191 66.107328 
L 675.363191 66.107328 
" style="fill:none;stroke:#000000;stroke-linecap:square;stroke-opacity:0.7;stroke-width:1.2;"/>
   </g>
  </g>
 </g>
 <defs>
  <clipPath id="pfaffd7100a">
   <rect height="262.08" width="694.08" x="12.96" y="12.96"/>
  </clipPath>
 </defs>
</svg>
