<?xml version="1.0" encoding="utf-8" standalone="no"?>
<!DOCTYPE svg PUBLIC "-//W3C//DTD SVG 1.1//EN"
  "http://www.w3.org/Graphics/SVG/1.1/DTD/svg11.dtd">
<!-- Created with matplotlib (https://matplotlib.org/) -->
<svg height="288pt" version="1.1" viewBox="0 0 720 288" width="720pt" xmlns="http://www.w3.org/2000/svg" xmlns:xlink="http://www.w3.org/1999/xlink">
 <metadata>
  <rdf:RDF xmlns:cc="http://creativecommons.org/ns#" xmlns:dc="http://purl.org/dc/elements/1.1/" xmlns:rdf="http://www.w3.org/1999/02/22-rdf-syntax-ns#">
   <cc:Work>
    <dc:type rdf:resource="http://purl.org/dc/dcmitype/StillImage"/>
    <dc:date>2020-11-06T23:42:34.196289</dc:date>
    <dc:format>image/svg+xml</dc:format>
    <dc:creator>
     <cc:Agent>
      <dc:title>Matplotlib v3.3.2, https://matplotlib.org/</dc:title>
     </cc:Agent>
    </dc:creator>
   </cc:Work>
  </rdf:RDF>
 </metadata>
 <defs>
  <style type="text/css">*{stroke-linecap:butt;stroke-linejoin:round;}</style>
 </defs>
 <g id="figure_1">
  <g id="patch_1">
   <path d="M 0 288 
L 720 288 
L 720 0 
L 0 0 
z
" style="fill:#ffffff;"/>
  </g>
  <g id="axes_1">
   <g id="line2d_1">
    <path clip-path="url(#p5161e0a085)" d="M 149.111645 227.539712 
L 137.545532 225.5202 
L 124.163149 223.109056 
L 116.126818 221.424932 
L 108.943318 219.698125 
L 96.756438 216.694326 
L 92.178731 215.776486 
L 87.266876 215.03146 
L 82.552036 214.589543 
L 77.926452 214.440695 
L 74.310939 214.534434 
L 70.574056 214.839523 
L 66.994323 215.347675 
L 63.400459 216.093885 
L 60.062474 217.026626 
L 57.056112 218.093838 
L 54.071785 219.403814 
L 51.381048 220.847963 
L 49.311944 222.182033 
L 47.585887 223.512341 
L 45.903342 225.155663 
L 44.941926 226.507619 
L 44.540088 227.59615 
L 44.51324 228.120393 
L 44.725099 228.824271 
L 44.991752 229.190838 
L 45.937636 229.872141 
L 47.267195 230.370385 
L 49.195754 230.774982 
L 52.174627 231.090264 
L 55.769095 231.231535 
L 60.602242 231.204386 
L 67.491024 230.920513 
L 76.445578 230.301959 
L 107.50476 227.895422 
L 118.046613 227.386428 
L 128.525733 227.105098 
L 137.164656 227.07937 
L 147.480575 227.289722 
L 149.116302 227.342326 
L 149.116302 227.342326 
" style="fill:none;stroke:#000000;stroke-linecap:square;stroke-opacity:0.7;stroke-width:1.2;"/>
   </g>
   <g id="line2d_2">
    <path clip-path="url(#p5161e0a085)" d="M 149.110735 187.554512 
L 146.527346 186.251596 
L 142.534761 184.431812 
L 138.008668 182.624094 
L 134.903602 181.539996 
L 129.858419 180.05971 
L 125.257127 179.023172 
L 121.04317 178.336546 
L 117.424538 177.938266 
L 112.523469 177.652817 
L 107.576958 177.613656 
L 101.600978 177.817195 
L 93.80869 178.348482 
L 82.957412 179.344731 
L 72.532236 180.494549 
L 65.775438 181.42117 
L 59.916158 182.447098 
L 55.703997 183.386187 
L 51.861817 184.469756 
L 48.947993 185.530962 
L 46.823577 186.568631 
L 45.657505 187.38613 
L 45.005169 188.174631 
L 44.875145 188.715966 
L 45.067465 189.262246 
L 45.603982 189.765654 
L 46.476483 190.225803 
L 47.728864 190.661983 
L 50.522111 191.298305 
L 54.467126 191.885181 
L 60.161255 192.455001 
L 67.119979 192.910304 
L 75.052395 193.199227 
L 82.630379 193.255079 
L 88.730219 193.117181 
L 94.626871 192.797043 
L 100.493216 192.280038 
L 107.889998 191.377227 
L 132.010086 188.134613 
L 137.214918 187.737978 
L 143.675932 187.502118 
L 149.164135 187.509834 
L 149.164135 187.509834 
" style="fill:none;stroke:#000000;stroke-linecap:square;stroke-opacity:0.7;stroke-width:1.2;"/>
   </g>
   <g id="line2d_3">
    <path clip-path="url(#p5161e0a085)" d="M 149.157319 148.377062 
L 144.691687 146.637328 
L 138.2637 144.360798 
L 131.53559 142.188571 
L 124.27042 140.069618 
L 117.389195 138.29209 
L 110.504468 136.76312 
L 104.411507 135.652873 
L 98.935336 134.886649 
L 94.173665 134.425031 
L 89.604772 134.176777 
L 84.880073 134.130016 
L 80.13375 134.305763 
L 75.548994 134.698797 
L 72.001503 135.165959 
L 67.349517 136.022134 
L 63.865837 136.873663 
L 60.346308 137.954085 
L 57.634384 138.96773 
L 54.533439 140.364647 
L 52.067115 141.704749 
L 49.941216 143.081081 
L 48.441276 144.231847 
L 46.877682 145.70744 
L 46.021027 146.773923 
L 45.514663 147.668667 
L 45.253162 148.594138 
L 45.292317 149.283528 
L 45.390898 149.581302 
L 45.695599 150.07517 
L 46.447708 150.715428 
L 47.558337 151.253952 
L 49.061629 151.707218 
L 50.965927 152.074893 
L 54.121853 152.433691 
L 58.451512 152.662668 
L 64.370917 152.711791 
L 71.231055 152.544886 
L 79.909799 152.115562 
L 90.840892 151.339132 
L 104.744876 150.096271 
L 118.477688 148.905482 
L 127.133539 148.368781 
L 135.092443 148.089541 
L 143.826593 148.027531 
L 149.180529 148.09667 
L 149.180529 148.09667 
" style="fill:none;stroke:#000000;stroke-linecap:square;stroke-opacity:0.7;stroke-width:1.2;"/>
   </g>
   <g id="line2d_4">
    <path clip-path="url(#p5161e0a085)" d="M 148.736016 110.096626 
L 141.287152 108.514785 
L 114.221924 102.978081 
L 104.712998 100.627518 
L 96.238644 98.547753 
L 91.064162 97.479837 
L 86.381515 96.737467 
L 81.839498 96.267933 
L 77.481693 96.080956 
L 73.893797 96.140351 
L 70.111675 96.431829 
L 66.939272 96.875602 
L 63.518864 97.581705 
L 60.295014 98.492274 
L 56.966244 99.7233 
L 54.082589 101.077043 
L 51.825067 102.371469 
L 49.960914 103.649362 
L 48.198965 105.123738 
L 47.100382 106.284369 
L 46.137431 107.732366 
L 45.818581 108.726706 
L 45.802787 109.2097 
L 45.967199 109.831911 
L 46.452247 110.480221 
L 47.430578 111.11614 
L 48.746551 111.591914 
L 50.798098 112.01473 
L 53.680634 112.318316 
L 58.664238 112.475351 
L 64.350277 112.366382 
L 71.031594 112.021216 
L 81.555729 111.226624 
L 94.686623 110.245247 
L 103.151057 109.873554 
L 112.460918 109.705555 
L 125.381408 109.7255 
L 148.728641 109.986891 
L 148.728641 109.986891 
" style="fill:none;stroke:#000000;stroke-linecap:square;stroke-opacity:0.7;stroke-width:1.2;"/>
   </g>
   <g id="line2d_5">
    <path clip-path="url(#p5161e0a085)" d="M 148.744797 70.538904 
L 143.098609 69.438223 
L 134.496754 67.964649 
L 125.477947 66.630423 
L 114.936376 65.311268 
L 85.631073 62.025873 
L 79.603692 61.616143 
L 74.51451 61.505259 
L 69.752103 61.660028 
L 65.841852 62.011121 
L 61.67801 62.638373 
L 58.212444 63.381418 
L 55.333422 64.168124 
L 51.706989 65.414264 
L 49.293831 66.447688 
L 46.956178 67.712556 
L 45.671109 68.695878 
L 45.217949 69.329517 
L 45.198839 69.726675 
L 45.387102 69.987388 
L 45.699456 70.174868 
L 46.814817 70.44991 
L 48.303036 70.559944 
L 51.118774 70.521124 
L 56.519668 70.125793 
L 65.367614 69.174061 
L 80.592656 67.496066 
L 86.086291 67.087134 
L 91.615099 66.900802 
L 97.686309 66.970665 
L 105.700502 67.330131 
L 122.515615 68.365103 
L 137.747133 69.509558 
L 148.708563 70.438474 
L 148.708563 70.438474 
" style="fill:none;stroke:#000000;stroke-linecap:square;stroke-opacity:0.7;stroke-width:1.2;"/>
   </g>
   <g id="line2d_6">
    <path clip-path="url(#p5161e0a085)" d="M 280.702136 227.574689 
L 275.516247 225.994831 
L 268.866794 224.190042 
L 263.283496 222.865338 
L 257.073623 221.630385 
L 252.35589 220.884769 
L 246.803937 220.23598 
L 241.259917 219.82554 
L 234.90731 219.596759 
L 226.853566 219.55485 
L 217.241894 219.707922 
L 208.102973 220.045381 
L 201.30527 220.512626 
L 196.586176 221.012751 
L 191.513696 221.776613 
L 187.369488 222.632618 
L 184.81573 223.298123 
L 181.450935 224.404533 
L 179.083339 225.441272 
L 178.158321 225.959985 
L 176.919949 226.938836 
L 176.579134 227.504498 
L 176.605539 227.976883 
L 176.775537 228.211997 
L 177.32724 228.55607 
L 178.120858 228.808334 
L 179.894537 229.092919 
L 183.314818 229.314424 
L 189.893643 229.428697 
L 220.665641 229.697321 
L 230.861958 229.767816 
L 238.447838 229.610955 
L 247.075439 229.219463 
L 265.179333 228.083317 
L 279.370944 227.29594 
L 280.724267 227.233873 
L 280.724267 227.233873 
" style="fill:none;stroke:#000000;stroke-linecap:square;stroke-opacity:0.7;stroke-width:1.2;"/>
   </g>
   <g id="line2d_7">
    <path clip-path="url(#p5161e0a085)" d="M 280.562616 188.908779 
L 271.40862 187.717553 
L 254.851753 185.810232 
L 240.77278 184.136495 
L 230.677988 182.659699 
L 218.773196 180.891404 
L 213.038061 180.265649 
L 208.178592 179.952552 
L 204.983118 179.881949 
L 200.992815 179.967407 
L 197.157661 180.251823 
L 193.609034 180.710772 
L 189.984423 181.396269 
L 186.43976 182.310651 
L 183.195053 183.409497 
L 181.051104 184.321086 
L 178.520172 185.706382 
L 177.206123 186.690359 
L 176.35743 187.613557 
L 176.039249 188.209931 
L 175.950197 188.858399 
L 176.123274 189.366462 
L 176.447786 189.754572 
L 177.010555 190.150755 
L 177.482629 190.382844 
L 179.024406 190.886315 
L 181.645265 191.37892 
L 184.857311 191.732338 
L 189.374791 192.015001 
L 196.363163 192.199102 
L 204.693012 192.190472 
L 215.462626 191.95312 
L 229.92513 191.391035 
L 247.213917 190.47413 
L 275.433002 188.937887 
L 280.54825 188.70991 
L 280.54825 188.70991 
" style="fill:none;stroke:#000000;stroke-linecap:square;stroke-opacity:0.7;stroke-width:1.2;"/>
   </g>
   <g id="line2d_8">
    <path clip-path="url(#p5161e0a085)" d="M 280.545174 149.090472 
L 269.768028 147.261509 
L 258.380757 145.545979 
L 248.025749 144.226389 
L 237.351901 143.117845 
L 225.273862 142.077313 
L 215.831025 141.472342 
L 209.15135 141.262612 
L 203.641886 141.29727 
L 198.598137 141.547761 
L 193.970652 142.01035 
L 189.460142 142.729682 
L 185.912536 143.530319 
L 182.79359 144.460359 
L 181.146594 145.068275 
L 178.580453 146.274598 
L 177.207986 147.172621 
L 176.283646 148.088768 
L 175.957233 148.726993 
L 175.927167 149.301344 
L 176.116854 149.759825 
L 176.645251 150.306687 
L 177.642629 150.881159 
L 179.373743 151.497923 
L 182.019342 152.110349 
L 186.057158 152.724865 
L 190.785864 153.198924 
L 197.063851 153.586995 
L 203.461029 153.779936 
L 211.009193 153.788392 
L 219.109239 153.550091 
L 226.983894 153.085407 
L 236.059322 152.316261 
L 266.29238 149.511584 
L 274.769257 149.057403 
L 280.567707 148.83764 
L 280.567707 148.83764 
" style="fill:none;stroke:#000000;stroke-linecap:square;stroke-opacity:0.7;stroke-width:1.2;"/>
   </g>
   <g id="line2d_9">
    <path clip-path="url(#p5161e0a085)" d="M 280.423197 109.963036 
L 273.455344 108.300632 
L 265.060902 106.543095 
L 258.12194 105.324581 
L 251.985144 104.480435 
L 246.238074 103.929521 
L 240.658441 103.620449 
L 233.061565 103.476257 
L 217.700256 103.530473 
L 205.675878 103.689028 
L 198.964501 103.989444 
L 193.769558 104.424956 
L 188.903756 105.051307 
L 184.334064 105.893342 
L 181.025076 106.726819 
L 178.623195 107.54148 
L 177.293532 108.160258 
L 176.511712 108.689239 
L 176.099371 109.255455 
L 176.105362 109.568138 
L 176.277178 109.834031 
L 176.846651 110.203122 
L 177.879424 110.551269 
L 179.668918 110.898556 
L 183.061765 111.261611 
L 187.822502 111.520276 
L 195.01606 111.672665 
L 206.076073 111.642608 
L 241.454036 111.109764 
L 255.874965 110.687455 
L 280.444236 109.770164 
L 280.444236 109.770164 
" style="fill:none;stroke:#000000;stroke-linecap:square;stroke-opacity:0.7;stroke-width:1.2;"/>
   </g>
   <g id="line2d_10">
    <path clip-path="url(#p5161e0a085)" d="M 280.694291 69.524414 
L 275.977713 67.762847 
L 267.842459 64.984223 
L 258.836593 62.159421 
L 250.756742 59.841014 
L 244.345826 58.178248 
L 238.138432 56.768316 
L 232.168296 55.661419 
L 228.083732 55.077971 
L 223.013744 54.57639 
L 218.010286 54.338125 
L 212.979853 54.365858 
L 208.295071 54.644699 
L 204.372224 55.081415 
L 200.666855 55.68438 
L 197.190527 56.443653 
L 194.079251 57.310212 
L 191.041953 58.360338 
L 188.083743 59.619626 
L 185.221793 61.117218 
L 182.447567 62.919351 
L 180.818287 64.207677 
L 179.46194 65.486688 
L 178.425501 66.691489 
L 177.651075 67.905144 
L 177.302849 68.784672 
L 177.196639 69.547976 
L 177.299606 70.182559 
L 177.658607 70.825603 
L 178.041742 71.205162 
L 179.14572 71.84917 
L 181.071082 72.442886 
L 182.642072 72.728288 
L 186.020286 73.064157 
L 189.211324 73.188552 
L 194.288451 73.168294 
L 200.402177 72.91954 
L 207.823604 72.399808 
L 217.773839 71.456179 
L 242.184939 68.964576 
L 250.298182 68.444695 
L 256.454472 68.245447 
L 262.293004 68.233087 
L 268.972069 68.432321 
L 276.815787 68.92286 
L 280.68679 69.243149 
L 280.68679 69.243149 
" style="fill:none;stroke:#000000;stroke-linecap:square;stroke-opacity:0.7;stroke-width:1.2;"/>
   </g>
   <g id="line2d_11">
    <path clip-path="url(#p5161e0a085)" d="M 412.068821 228.366187 
L 407.513542 226.652714 
L 401.196775 224.495887 
L 394.307315 222.378405 
L 388.571925 220.812984 
L 382.321324 219.338092 
L 376.796266 218.252917 
L 371.305577 217.383284 
L 365.662778 216.703569 
L 359.892039 216.228427 
L 354.163676 215.975564 
L 348.436694 215.943604 
L 342.272702 216.166731 
L 336.793697 216.610428 
L 331.858296 217.238936 
L 327.332743 218.044738 
L 323.722299 218.87996 
L 319.694484 220.063567 
L 316.243863 221.350245 
L 313.447814 222.649487 
L 311.480776 223.772314 
L 309.903022 224.89109 
L 308.739163 225.997161 
L 308.227898 226.727653 
L 307.992778 227.421165 
L 308.006933 227.82451 
L 308.269015 228.356703 
L 308.840607 228.821701 
L 309.906693 229.265603 
L 311.559013 229.632297 
L 313.84216 229.897059 
L 317.815833 230.079852 
L 322.890323 230.07927 
L 331.328079 229.807626 
L 344.423882 229.09591 
L 357.544932 228.426667 
L 367.143489 228.194554 
L 380.552077 228.148713 
L 412.080841 228.249857 
L 412.080841 228.249857 
" style="fill:none;stroke:#000000;stroke-linecap:square;stroke-opacity:0.7;stroke-width:1.2;"/>
   </g>
   <g id="line2d_12">
    <path clip-path="url(#p5161e0a085)" d="M 412.076315 189.159379 
L 404.441893 188.071883 
L 394.61276 186.910117 
L 386.285088 186.134963 
L 376.963352 185.515894 
L 352.608746 184.115729 
L 339.802961 183.228965 
L 334.313494 183.087937 
L 329.091222 183.21335 
L 323.975524 183.639711 
L 319.477094 184.29951 
L 315.531048 185.140367 
L 312.694168 185.952962 
L 310.597081 186.747851 
L 310.020638 187.021019 
L 308.614978 187.99408 
L 308.394758 188.353122 
L 308.404452 188.782077 
L 308.61728 189.068289 
L 309.31148 189.478729 
L 310.677692 189.887074 
L 313.008982 190.261896 
L 317.220161 190.590682 
L 323.425491 190.753844 
L 331.697301 190.716503 
L 360.20672 190.380441 
L 376.557477 190.411897 
L 387.072856 190.184253 
L 399.191789 189.679174 
L 412.066863 188.984271 
L 412.066863 188.984271 
" style="fill:none;stroke:#000000;stroke-linecap:square;stroke-opacity:0.7;stroke-width:1.2;"/>
   </g>
   <g id="line2d_13">
    <path clip-path="url(#p5161e0a085)" d="M 412.256231 148.809822 
L 400.557853 147.15584 
L 388.511093 145.652887 
L 378.736126 144.644978 
L 367.99765 143.785239 
L 352.527444 142.805775 
L 343.823373 142.443334 
L 338.148853 142.380388 
L 332.836585 142.511263 
L 328.038731 142.833682 
L 324.249524 143.254196 
L 320.827767 143.782394 
L 317.212184 144.525567 
L 313.922529 145.419797 
L 311.659923 146.216567 
L 309.696964 147.129243 
L 308.396391 148.018849 
L 307.879116 148.631288 
L 307.729577 149.061299 
L 307.805474 149.525752 
L 308.182465 149.985583 
L 308.919112 150.428926 
L 310.074653 150.846883 
L 311.950251 151.277732 
L 315.651038 151.783506 
L 319.919812 152.117807 
L 326.004508 152.364808 
L 333.053062 152.446451 
L 341.74538 152.335267 
L 352.403404 151.950208 
L 363.125484 151.343264 
L 375.78673 150.393427 
L 393.107872 149.073343 
L 401.46608 148.674381 
L 409.909007 148.524814 
L 412.283515 148.526982 
L 412.283515 148.526982 
" style="fill:none;stroke:#000000;stroke-linecap:square;stroke-opacity:0.7;stroke-width:1.2;"/>
   </g>
   <g id="line2d_14">
    <path clip-path="url(#p5161e0a085)" d="M 412.202686 109.758094 
L 401.15835 108.512511 
L 385.760097 106.999047 
L 360.52116 104.614246 
L 348.259575 103.383751 
L 342.299932 102.987602 
L 336.827788 102.848722 
L 331.888795 102.960613 
L 327.100472 103.321657 
L 322.523976 103.93388 
L 318.262931 104.785038 
L 315.527497 105.515608 
L 312.693945 106.495185 
L 310.678455 107.428637 
L 309.318553 108.311173 
L 308.594638 109.05106 
L 308.307388 109.736344 
L 308.385216 110.251626 
L 308.796229 110.776752 
L 309.894059 111.405196 
L 311.421714 111.892931 
L 313.427686 112.302819 
L 316.807051 112.738656 
L 321.07158 113.066699 
L 327.746421 113.325563 
L 336.078266 113.401671 
L 346.743838 113.259879 
L 359.194587 112.873178 
L 369.800645 112.327774 
L 382.082102 111.453548 
L 400.700461 110.112109 
L 410.874268 109.602778 
L 412.208278 109.550267 
L 412.208278 109.550267 
" style="fill:none;stroke:#000000;stroke-linecap:square;stroke-opacity:0.7;stroke-width:1.2;"/>
   </g>
   <g id="line2d_15">
    <path clip-path="url(#p5161e0a085)" d="M 412.321933 69.67476 
L 408.619415 68.293671 
L 402.900043 66.396941 
L 398.099492 65.018474 
L 393.000607 63.78561 
L 388.514734 62.919278 
L 383.920711 62.262115 
L 379.404478 61.84989 
L 374.43106 61.651304 
L 369.927054 61.669916 
L 363.385745 61.938854 
L 351.758985 62.732486 
L 331.90147 64.258303 
L 326.027584 64.913625 
L 320.843355 65.694551 
L 316.033055 66.665683 
L 312.6198 67.571797 
L 310.144331 68.440067 
L 308.72625 69.154358 
L 308.237008 69.564749 
L 308.091985 69.874719 
L 308.204642 70.150265 
L 308.556849 70.370258 
L 309.189633 70.557629 
L 311.011856 70.778469 
L 313.784608 70.855036 
L 318.702211 70.755532 
L 330.529255 70.205513 
L 343.625997 69.656882 
L 351.760256 69.516005 
L 378.808808 69.299868 
L 394.555876 69.00822 
L 403.587218 69.084856 
L 412.341861 69.387669 
L 412.341861 69.387669 
" style="fill:none;stroke:#000000;stroke-linecap:square;stroke-opacity:0.7;stroke-width:1.2;"/>
   </g>
   <g id="line2d_16">
    <path clip-path="url(#p5161e0a085)" d="M 543.82397 228.022875 
L 540.384004 226.234103 
L 535.697767 224.061269 
L 531.027754 222.142174 
L 526.541592 220.519745 
L 521.40196 218.932025 
L 516.578198 217.708596 
L 511.512654 216.693304 
L 506.471462 215.93321 
L 501.495239 215.395836 
L 495.213607 214.974278 
L 489.332314 214.809595 
L 482.904521 214.874902 
L 477.07752 215.165939 
L 471.11982 215.716017 
L 466.346961 216.368083 
L 461.572051 217.243772 
L 457.196739 218.283558 
L 453.163705 219.490936 
L 450.79569 220.336458 
L 447.638658 221.662267 
L 444.563519 223.252591 
L 442.496943 224.595426 
L 441.335111 225.545007 
L 440.413167 226.561174 
L 439.950518 227.481096 
L 439.897936 227.92589 
L 440.04901 228.487252 
L 440.477027 229.003494 
L 441.155855 229.446771 
L 442.651045 230.011915 
L 445.550559 230.6052 
L 448.198423 230.919689 
L 452.76286 231.225386 
L 459.424349 231.380171 
L 467.18822 231.302366 
L 476.866743 230.944418 
L 487.972824 230.278954 
L 518.884135 228.230751 
L 528.69302 227.928012 
L 538.666864 227.843796 
L 543.857185 227.855294 
L 543.857185 227.855294 
" style="fill:none;stroke:#000000;stroke-linecap:square;stroke-opacity:0.7;stroke-width:1.2;"/>
   </g>
   <g id="line2d_17">
    <path clip-path="url(#p5161e0a085)" d="M 543.696476 188.947384 
L 535.813317 187.661462 
L 526.127093 186.305175 
L 517.939794 185.402388 
L 510.673394 184.86025 
L 503.470329 184.589556 
L 492.335694 184.481943 
L 480.009903 184.300704 
L 465.42007 184.049527 
L 459.876546 184.15204 
L 454.34617 184.478027 
L 449.560998 185.00473 
L 445.580691 185.687915 
L 442.48846 186.480804 
L 440.7659 187.147888 
L 439.879023 187.699363 
L 439.507957 188.203037 
L 439.500612 188.477076 
L 439.684312 188.791457 
L 440.25091 189.185139 
L 440.85258 189.439601 
L 442.909037 189.981362 
L 446.554799 190.54716 
L 451.280036 191.019962 
L 458.250764 191.486663 
L 467.433176 191.88383 
L 479.689492 192.174683 
L 489.704029 192.202221 
L 498.069891 192.005523 
L 506.362145 191.594891 
L 517.081434 190.829101 
L 543.701817 188.721303 
L 543.701817 188.721303 
" style="fill:none;stroke:#000000;stroke-linecap:square;stroke-opacity:0.7;stroke-width:1.2;"/>
   </g>
   <g id="line2d_18">
    <path clip-path="url(#p5161e0a085)" d="M 543.795349 149.198979 
L 536.878348 147.405758 
L 527.406862 145.177725 
L 517.890141 143.169608 
L 508.836066 141.505691 
L 501.159371 140.31046 
L 493.235917 139.315026 
L 486.35714 138.689193 
L 479.923787 138.351018 
L 473.988648 138.293445 
L 469.073143 138.464782 
L 464.190098 138.869098 
L 459.779839 139.474815 
L 456.361123 140.132554 
L 453.178009 140.92068 
L 450.217292 141.834642 
L 446.977706 143.083072 
L 444.712768 144.160688 
L 442.773515 145.284566 
L 441.010026 146.611807 
L 440.175604 147.522383 
L 439.825627 148.197821 
L 439.786687 148.694678 
L 439.905347 149.003747 
L 440.422008 149.457865 
L 441.261855 149.771746 
L 442.549378 149.995094 
L 444.549876 150.118261 
L 448.275763 150.06939 
L 454.060056 149.717411 
L 464.131692 148.825841 
L 478.071637 147.577777 
L 484.612648 147.22122 
L 490.131778 147.144034 
L 497.304122 147.317338 
L 538.365944 148.855601 
L 543.805122 148.98422 
L 543.805122 148.98422 
" style="fill:none;stroke:#000000;stroke-linecap:square;stroke-opacity:0.7;stroke-width:1.2;"/>
   </g>
   <g id="line2d_19">
    <path clip-path="url(#p5161e0a085)" d="M 543.917013 109.534831 
L 537.286439 107.505258 
L 529.390645 105.313831 
L 521.903771 103.46959 
L 515.157039 102.04864 
L 509.324772 101.032971 
L 503.619936 100.235837 
L 496.518243 99.497023 
L 489.448162 99.015983 
L 482.675752 98.792786 
L 477.191322 98.802694 
L 471.710547 99.01246 
L 465.992501 99.484475 
L 461.244525 100.112007 
L 457.97106 100.692576 
L 453.767409 101.649609 
L 450.661697 102.541055 
L 447.339256 103.718409 
L 445.265529 104.611439 
L 443.225041 105.668797 
L 441.629261 106.706411 
L 440.447692 107.742266 
L 439.872453 108.503777 
L 439.584496 109.35766 
L 439.64222 109.895123 
L 439.931281 110.431931 
L 440.610578 111.040694 
L 441.890799 111.698258 
L 443.836447 112.329261 
L 446.586658 112.928601 
L 450.135309 113.464409 
L 454.609806 113.931402 
L 461.039138 114.35249 
L 468.190716 114.579834 
L 476.618062 114.591537 
L 485.504991 114.340638 
L 494.189209 113.859929 
L 504.124747 113.082143 
L 519.192411 111.656553 
L 543.934599 109.310686 
L 543.934599 109.310686 
" style="fill:none;stroke:#000000;stroke-linecap:square;stroke-opacity:0.7;stroke-width:1.2;"/>
   </g>
   <g id="line2d_20">
    <path clip-path="url(#p5161e0a085)" d="M 543.85421 69.710277 
L 538.621542 68.113049 
L 529.053165 65.439423 
L 519.671169 63.061957 
L 510.848545 61.07529 
L 504.702981 59.880106 
L 498.452662 58.880234 
L 492.930083 58.222594 
L 487.900239 57.831181 
L 482.251694 57.633169 
L 476.078934 57.701319 
L 470.657278 58.004101 
L 465.615093 58.505345 
L 460.768389 59.225186 
L 456.792394 60.038382 
L 453.870528 60.801159 
L 450.487363 61.909895 
L 447.399001 63.198145 
L 444.600482 64.68591 
L 442.833997 65.867133 
L 441.622116 66.867566 
L 441.059457 67.427188 
L 440.085948 68.779354 
L 439.895823 69.268922 
L 439.81805 69.878073 
L 439.978476 70.502357 
L 440.337442 70.987534 
L 441.099808 71.530232 
L 441.472057 71.710872 
L 443.323679 72.296136 
L 446.063196 72.760247 
L 449.71427 73.085305 
L 454.581237 73.274746 
L 460.713914 73.299803 
L 469.412192 73.094354 
L 480.150101 72.599606 
L 496.803302 71.569577 
L 519.057787 70.203437 
L 530.5543 69.739189 
L 542.551846 69.500567 
L 543.888461 69.485697 
L 543.888461 69.485697 
" style="fill:none;stroke:#000000;stroke-linecap:square;stroke-opacity:0.7;stroke-width:1.2;"/>
   </g>
   <g id="line2d_21">
    <path clip-path="url(#p5161e0a085)" d="M 675.404419 228.343685 
L 665.054256 226.827286 
L 649.66378 224.549358 
L 642.30558 223.233699 
L 635.973485 221.867487 
L 628.289416 219.946838 
L 619.111255 217.66111 
L 614.646734 216.73979 
L 610.668879 216.095444 
L 606.136083 215.605121 
L 602.741308 215.427655 
L 599.049181 215.435221 
L 595.692724 215.637385 
L 591.883073 216.113082 
L 588.267426 216.834817 
L 584.81122 217.808363 
L 582.004558 218.840541 
L 579.592984 219.938614 
L 577.440323 221.127956 
L 575.54308 222.398 
L 573.947032 223.709185 
L 572.474532 225.286361 
L 571.747947 226.377558 
L 571.335912 227.320279 
L 571.159618 228.340415 
L 571.254954 229.093963 
L 571.495922 229.674467 
L 572.259047 230.575789 
L 573.411902 231.325945 
L 575.186419 232.033733 
L 577.441505 232.604982 
L 580.61336 233.107758 
L 584.925236 233.487359 
L 589.431774 233.658565 
L 595.37385 233.651494 
L 602.775546 233.382217 
L 611.359638 232.828837 
L 648.783873 230.127562 
L 674.062619 228.248883 
L 675.417631 228.141862 
L 675.417631 228.141862 
" style="fill:none;stroke:#000000;stroke-linecap:square;stroke-opacity:0.7;stroke-width:1.2;"/>
   </g>
   <g id="line2d_22">
    <path clip-path="url(#p5161e0a085)" d="M 675.482204 188.54718 
L 667.039414 187.387357 
L 654.208075 185.850852 
L 633.808562 183.453496 
L 624.652563 182.101505 
L 612.808474 180.351288 
L 607.903727 179.832966 
L 603.100656 179.555092 
L 599.229454 179.540605 
L 595.845126 179.703512 
L 592.064642 180.095729 
L 588.995208 180.586544 
L 585.601158 181.318403 
L 581.588337 182.45946 
L 578.153422 183.710997 
L 576.194158 184.570957 
L 573.489187 186.042286 
L 572.070612 187.135454 
L 571.564317 187.841191 
L 571.529389 188.219731 
L 571.72827 188.526535 
L 572.24958 188.797449 
L 573.274026 189.005684 
L 574.709044 189.097454 
L 578.251236 189.011392 
L 583.098493 188.640937 
L 592.594982 187.649679 
L 608.204176 186.000622 
L 614.136252 185.576526 
L 620.113691 185.389898 
L 625.680664 185.440481 
L 634.560234 185.772953 
L 653.197247 186.725613 
L 666.373875 187.609342 
L 675.464366 188.337492 
L 675.464366 188.337492 
" style="fill:none;stroke:#000000;stroke-linecap:square;stroke-opacity:0.7;stroke-width:1.2;"/>
   </g>
   <g id="line2d_23">
    <path clip-path="url(#p5161e0a085)" d="M 675.317728 149.564743 
L 667.114977 147.331465 
L 655.494867 144.396998 
L 643.396038 141.578883 
L 633.760095 139.553556 
L 626.766245 138.293139 
L 621.179947 137.488995 
L 615.529399 136.914181 
L 610.24211 136.624931 
L 605.585463 136.585171 
L 601.395956 136.733058 
L 596.722199 137.122029 
L 592.917681 137.635407 
L 589.623635 138.246474 
L 586.135814 139.09614 
L 582.898109 140.117526 
L 579.800981 141.370116 
L 577.226859 142.695936 
L 575.575212 143.744868 
L 573.899438 145.062415 
L 572.63538 146.372086 
L 571.856547 147.522618 
L 571.449698 148.551031 
L 571.354436 149.371163 
L 571.438407 149.969468 
L 571.752587 150.696344 
L 572.520226 151.567886 
L 573.899693 152.45267 
L 575.800492 153.21569 
L 577.442089 153.68274 
L 580.602902 154.318757 
L 585.001522 154.872951 
L 589.76495 155.209549 
L 595.750154 155.369654 
L 601.769903 155.309016 
L 608.887208 155.015282 
L 618.591314 154.349952 
L 647.961283 151.925819 
L 670.376333 149.895407 
L 675.349996 149.4061 
L 675.349996 149.4061 
" style="fill:none;stroke:#000000;stroke-linecap:square;stroke-opacity:0.7;stroke-width:1.2;"/>
   </g>
   <g id="line2d_24">
    <path clip-path="url(#p5161e0a085)" d="M 675.461071 109.477039 
L 667.977366 107.416146 
L 659.099974 105.15196 
L 650.235593 103.115947 
L 643.287498 101.731165 
L 636.140916 100.546798 
L 629.358069 99.675944 
L 623.1061 99.109816 
L 617.404719 98.805291 
L 612.127648 98.713375 
L 606.300844 98.834289 
L 601.618278 99.111015 
L 596.688168 99.592784 
L 592.359998 100.200483 
L 587.49218 101.136822 
L 583.227137 102.245411 
L 579.708511 103.447565 
L 577.387686 104.452954 
L 575.636825 105.387044 
L 574.399746 106.1959 
L 573.023592 107.387157 
L 572.236551 108.486567 
L 571.984382 109.343654 
L 572.08694 110.1248 
L 572.370643 110.644484 
L 572.945215 111.227852 
L 574.098579 111.929344 
L 575.647881 112.536079 
L 577.507027 113.047208 
L 580.502134 113.625973 
L 584.173076 114.113234 
L 589.215828 114.555922 
L 595.373946 114.872511 
L 603.275675 115.025094 
L 611.218543 114.937748 
L 618.579373 114.639291 
L 625.807135 114.12846 
L 633.809014 113.338837 
L 650.970237 111.324092 
L 660.859737 110.291614 
L 669.407771 109.596746 
L 675.490909 109.209375 
L 675.490909 109.209375 
" style="fill:none;stroke:#000000;stroke-linecap:square;stroke-opacity:0.7;stroke-width:1.2;"/>
   </g>
   <g id="line2d_25">
    <path clip-path="url(#p5161e0a085)" d="M 675.386016 70.449919 
L 665.504286 69.549125 
L 650.678813 68.414527 
L 617.686455 66.089024 
L 605.22153 65.011516 
L 599.132219 64.705956 
L 594.143411 64.661072 
L 589.998316 64.799733 
L 585.399518 65.172706 
L 580.982761 65.791499 
L 577.203013 66.594454 
L 574.37884 67.465867 
L 572.387535 68.398377 
L 571.640139 68.96461 
L 571.28129 69.454811 
L 571.211085 69.691398 
L 571.368633 70.281458 
L 571.867721 70.72981 
L 572.378771 71.00554 
L 574.436752 71.658672 
L 576.984677 72.124117 
L 581.188104 72.592532 
L 587.325078 72.974425 
L 594.812619 73.190833 
L 605.183589 73.232311 
L 619.17165 73.034603 
L 633.023355 72.634647 
L 644.254868 72.090625 
L 675.4074 70.203495 
L 675.4074 70.203495 
" style="fill:none;stroke:#000000;stroke-linecap:square;stroke-opacity:0.7;stroke-width:1.2;"/>
   </g>
  </g>
 </g>
 <defs>
  <clipPath id="p5161e0a085">
   <rect height="262.08" width="694.08" x="12.96" y="12.96"/>
  </clipPath>
 </defs>
</svg>
