<svg viewBox="0 0 1108 400" xmlns="http://www.w3.org/2000/svg"><g><g><g><g><g><line x1="50" y1="378" x2="45" y2="378" style="visibility: inherit;" fill="rgb(0, 0, 0)" stroke="rgb(204, 204, 204)" stroke-width="1px"></line><line x1="50" y1="340.2" x2="45" y2="340.2" style="visibility: inherit;" fill="rgb(0, 0, 0)" stroke="rgb(204, 204, 204)" stroke-width="1px"></line><line x1="50" y1="302.4" x2="45" y2="302.4" style="visibility: inherit;" fill="rgb(0, 0, 0)" stroke="rgb(204, 204, 204)" stroke-width="1px"></line><line x1="50" y1="264.6" x2="45" y2="264.6" style="visibility: inherit;" fill="rgb(0, 0, 0)" stroke="rgb(204, 204, 204)" stroke-width="1px"></line><line x1="50" y1="226.79999999999998" x2="45" y2="226.79999999999998" style="visibility: inherit;" fill="rgb(0, 0, 0)" stroke="rgb(204, 204, 204)" stroke-width="1px"></line><line x1="50" y1="189" x2="45" y2="189" style="visibility: inherit;" fill="rgb(0, 0, 0)" stroke="rgb(204, 204, 204)" stroke-width="1px"></line><line x1="50" y1="151.20000000000002" x2="45" y2="151.20000000000002" style="visibility: inherit;" fill="rgb(0, 0, 0)" stroke="rgb(204, 204, 204)" stroke-width="1px"></line><line x1="50" y1="113.40000000000003" x2="45" y2="113.40000000000003" style="visibility: inherit;" fill="rgb(0, 0, 0)" stroke="rgb(204, 204, 204)" stroke-width="1px"></line><line x1="50" y1="75.59999999999997" x2="45" y2="75.59999999999997" style="visibility: inherit;" fill="rgb(0, 0, 0)" stroke="rgb(204, 204, 204)" stroke-width="1px"></line><line x1="50" y1="37.80000000000001" x2="45" y2="37.80000000000001" style="visibility: inherit;" fill="rgb(0, 0, 0)" stroke="rgb(204, 204, 204)" stroke-width="1px"></line><line x1="50" y1="0" x2="45" y2="0" style="visibility: inherit;" fill="rgb(0, 0, 0)" stroke="rgb(204, 204, 204)" stroke-width="1px"></line></g><g transform="translate(40, 0)"><text x="0" y="378" dx="0em" dy="0.3em" style="text-anchor: end; visibility: hidden; font-family: &quot;Helvetica Neue&quot;, sans-serif; font-size: 12px; font-weight: 200;" fill="rgb(50, 49, 63)" stroke="none" stroke-width="1px">-3.5</text><text x="0" y="340.2" dx="0em" dy="0.3em" style="text-anchor: end; visibility: inherit; font-family: &quot;Helvetica Neue&quot;, sans-serif; font-size: 12px; font-weight: 200;" fill="rgb(50, 49, 63)" stroke="none" stroke-width="1px">-3</text><text x="0" y="302.4" dx="0em" dy="0.3em" style="text-anchor: end; visibility: inherit; font-family: &quot;Helvetica Neue&quot;, sans-serif; font-size: 12px; font-weight: 200;" fill="rgb(50, 49, 63)" stroke="none" stroke-width="1px">-2.5</text><text x="0" y="264.6" dx="0em" dy="0.3em" style="text-anchor: end; visibility: inherit; font-family: &quot;Helvetica Neue&quot;, sans-serif; font-size: 12px; font-weight: 200;" fill="rgb(50, 49, 63)" stroke="none" stroke-width="1px">-2</text><text x="0" y="226.79999999999998" dx="0em" dy="0.3em" style="text-anchor: end; visibility: inherit; font-family: &quot;Helvetica Neue&quot;, sans-serif; font-size: 12px; font-weight: 200;" fill="rgb(50, 49, 63)" stroke="none" stroke-width="1px">-1.5</text><text x="0" y="189" dx="0em" dy="0.3em" style="text-anchor: end; visibility: inherit; font-family: &quot;Helvetica Neue&quot;, sans-serif; font-size: 12px; font-weight: 200;" fill="rgb(50, 49, 63)" stroke="none" stroke-width="1px">-1</text><text x="0" y="151.20000000000002" dx="0em" dy="0.3em" style="text-anchor: end; visibility: inherit; font-family: &quot;Helvetica Neue&quot;, sans-serif; font-size: 12px; font-weight: 200;" fill="rgb(50, 49, 63)" stroke="none" stroke-width="1px">-0.5</text><text x="0" y="113.40000000000003" dx="0em" dy="0.3em" style="text-anchor: end; visibility: inherit; font-family: &quot;Helvetica Neue&quot;, sans-serif; font-size: 12px; font-weight: 200;" fill="rgb(50, 49, 63)" stroke="none" stroke-width="1px">0</text><text x="0" y="75.59999999999997" dx="0em" dy="0.3em" style="text-anchor: end; visibility: inherit; font-family: &quot;Helvetica Neue&quot;, sans-serif; font-size: 12px; font-weight: 200;" fill="rgb(50, 49, 63)" stroke="none" stroke-width="1px">0.5</text><text x="0" y="37.80000000000001" dx="0em" dy="0.3em" style="text-anchor: end; visibility: inherit; font-family: &quot;Helvetica Neue&quot;, sans-serif; font-size: 12px; font-weight: 200;" fill="rgb(50, 49, 63)" stroke="none" stroke-width="1px">1</text><text x="0" y="0" dx="0em" dy="0.3em" style="text-anchor: end; visibility: hidden; font-family: &quot;Helvetica Neue&quot;, sans-serif; font-size: 12px; font-weight: 200;" fill="rgb(50, 49, 63)" stroke="none" stroke-width="1px">1.5</text></g><line x1="50" y1="0" x2="50" y2="378" fill="rgb(0, 0, 0)" stroke="rgb(204, 204, 204)" stroke-width="1px"></line></g></g><g transform="translate(50, 0)" clip-path="url(#clip_0)"><clipPath id="clip_0"><rect width="1058" height="378"></rect></clipPath><g><g><g><line x1="0" y1="0" x2="0" y2="378" fill="rgb(0, 0, 0)" stroke="rgb(60, 60, 60)" stroke-width="1px" opacity="0.25"></line><line x1="88.16666666666666" y1="0" x2="88.16666666666666" y2="378" fill="rgb(0, 0, 0)" stroke="rgb(60, 60, 60)" stroke-width="1px" opacity="0.25"></line><line x1="176.33333333333331" y1="0" x2="176.33333333333331" y2="378" fill="rgb(0, 0, 0)" stroke="rgb(60, 60, 60)" stroke-width="1px" opacity="0.25"></line><line x1="264.5" y1="0" x2="264.5" y2="378" fill="rgb(0, 0, 0)" stroke="rgb(60, 60, 60)" stroke-width="1px" opacity="0.25"></line><line x1="352.66666666666663" y1="0" x2="352.66666666666663" y2="378" fill="rgb(0, 0, 0)" stroke="rgb(60, 60, 60)" stroke-width="1px" opacity="0.25"></line><line x1="440.83333333333337" y1="0" x2="440.83333333333337" y2="378" fill="rgb(0, 0, 0)" stroke="rgb(60, 60, 60)" stroke-width="1px" opacity="0.25"></line><line x1="529" y1="0" x2="529" y2="378" fill="rgb(0, 0, 0)" stroke="rgb(60, 60, 60)" stroke-width="1px" opacity="0.25"></line><line x1="617.1666666666667" y1="0" x2="617.1666666666667" y2="378" fill="rgb(0, 0, 0)" stroke="rgb(60, 60, 60)" stroke-width="1px" opacity="0.25"></line><line x1="705.3333333333333" y1="0" x2="705.3333333333333" y2="378" fill="rgb(0, 0, 0)" stroke="rgb(60, 60, 60)" stroke-width="1px" opacity="0.25"></line><line x1="793.5" y1="0" x2="793.5" y2="378" fill="rgb(0, 0, 0)" stroke="rgb(60, 60, 60)" stroke-width="1px" opacity="0.25"></line><line x1="881.6666666666667" y1="0" x2="881.6666666666667" y2="378" fill="rgb(0, 0, 0)" stroke="rgb(60, 60, 60)" stroke-width="1px" opacity="0.25"></line><line x1="969.8333333333333" y1="0" x2="969.8333333333333" y2="378" fill="rgb(0, 0, 0)" stroke="rgb(60, 60, 60)" stroke-width="1px" opacity="0.25"></line><line x1="1058" y1="0" x2="1058" y2="378" fill="rgb(0, 0, 0)" stroke="rgb(60, 60, 60)" stroke-width="1px" opacity="0.25"></line></g><g><line x1="0" y1="378" x2="1058" y2="378" fill="rgb(0, 0, 0)" stroke="rgb(60, 60, 60)" stroke-width="1px" opacity="0.25"></line><line x1="0" y1="340.2" x2="1058" y2="340.2" fill="rgb(0, 0, 0)" stroke="rgb(60, 60, 60)" stroke-width="1px" opacity="0.25"></line><line x1="0" y1="302.4" x2="1058" y2="302.4" fill="rgb(0, 0, 0)" stroke="rgb(60, 60, 60)" stroke-width="1px" opacity="0.25"></line><line x1="0" y1="264.6" x2="1058" y2="264.6" fill="rgb(0, 0, 0)" stroke="rgb(60, 60, 60)" stroke-width="1px" opacity="0.25"></line><line x1="0" y1="226.79999999999998" x2="1058" y2="226.79999999999998" fill="rgb(0, 0, 0)" stroke="rgb(60, 60, 60)" stroke-width="1px" opacity="0.25"></line><line x1="0" y1="189" x2="1058" y2="189" fill="rgb(0, 0, 0)" stroke="rgb(60, 60, 60)" stroke-width="1px" opacity="0.25"></line><line x1="0" y1="151.20000000000002" x2="1058" y2="151.20000000000002" fill="rgb(0, 0, 0)" stroke="rgb(60, 60, 60)" stroke-width="1px" opacity="0.25"></line><line x1="0" y1="113.40000000000003" x2="1058" y2="113.40000000000003" fill="rgb(0, 0, 0)" stroke="rgb(60, 60, 60)" stroke-width="1px" opacity="0.25"></line><line x1="0" y1="75.59999999999997" x2="1058" y2="75.59999999999997" fill="rgb(0, 0, 0)" stroke="rgb(60, 60, 60)" stroke-width="1px" opacity="0.25"></line><line x1="0" y1="37.80000000000001" x2="1058" y2="37.80000000000001" fill="rgb(0, 0, 0)" stroke="rgb(60, 60, 60)" stroke-width="1px" opacity="0.25"></line><line x1="0" y1="0" x2="1058" y2="0" fill="rgb(0, 0, 0)" stroke="rgb(60, 60, 60)" stroke-width="1px" opacity="0.25"></line></g></g></g><g><g><line x1="0" y1="113.40000000000003" x2="1058" y2="113.40000000000003" fill="rgb(0, 0, 0)" stroke="rgb(153, 153, 153)" stroke-width="1.5px"></line></g></g><g><g><line x1="88.16666666666666" y1="0" x2="88.16666666666666" y2="378" fill="rgb(0, 0, 0)" stroke="rgb(153, 153, 153)" stroke-width="1.5px"></line></g></g><g><g><g><g><g><path stroke="rgb(255, 112, 67)" stroke-width="2px" d="M88.16666666666666,101.74754692912103L89.93,114.4207140874118L91.69333333333334,120.61224154829978L93.45666666666666,140.70848901271822L95.22,146.23183221817018L96.98333333333332,156.31403059959413L98.74666666666667,163.34036464691164L100.51,173.67179152965545L102.27333333333333,182.5485375881195L104.03666666666666,180.98216829299926L105.80000000000001,184.75918164253235L107.56333333333333,202.7485055923462L109.32666666666667,193.64759402275084L111.08999999999999,203.74230136871338L112.85333333333334,197.93759207725523L114.61666666666667,200.26783733367918L116.38,200.64343070983887L118.14333333333333,193.60400190353394L119.90666666666667,206.7737696170807L121.67,205.46741194725038L123.43333333333334,210.00596709251406L125.19666666666666,230.4738324165344L126.96,231.52350397109987L128.72333333333333,237.21517295837404L130.48666666666668,239.90826830863952L132.25,238.7570560455322L134.01333333333335,238.95480222702028L135.77666666666667,240.02783346176147L137.54,232.70123019218445L139.3033333333333,250.34287161827086L141.06666666666666,249.65696940422058L142.83,244.45561037063598L144.59333333333333,239.99255061149597L146.35666666666668,221.63381567001343L148.12,254.22147073745725L149.88333333333333,221.28747596740723L151.64666666666668,236.88653326034546L153.41,260.233668422699L155.17333333333335,251.3281238079071L156.93666666666667,261.85927505493163L158.7,250.46797027587888L160.46333333333334,251.1731496334076L162.22666666666666,226.95686674118042L163.99,265.38238706588743L165.75333333333333,256.1412993907928L167.51666666666665,230.17554588317873L169.28,247.08508844375612L171.04333333333332,262.9030345916748L172.80666666666667,255.26657309532163L174.57000000000002,265.5879558563232L176.33333333333331,260.6399754524231L178.09666666666666,261.6175582408905L179.86,247.9620497703552L181.62333333333333,248.7520071029663L183.38666666666668,259.3279761314392L185.14999999999998,252.5702513694763L186.91333333333333,279.48431596755984L188.67666666666668,256.77551651000977L190.44,258.0475916862488L192.20333333333335,273.56398887634276L193.96666666666664,259.0776526451111L195.73,261.6717667579651L197.49333333333334,267.19108600616454L199.25666666666666,254.49506378173828L201.02,272.88598136901857L202.78333333333336,272.09620428085327L204.54666666666665,269.0437465667725L206.31,265.75558319091795L208.07333333333332,263.8268774986267L209.83666666666667,272.32819690704343L211.60000000000002,273.8200801849365L213.36333333333332,268.89120569229124L215.12666666666667,258.28017911911013L216.89,245.59039335250853L218.65333333333334,267.25325231552125L220.41666666666669,260.0381572723389L222.17999999999998,278.6134108543396L223.94333333333333,274.68489303588865L225.70666666666668,246.56419100761414L227.47,272.47378034591674L229.23333333333335,261.2671630382538L230.99666666666667,282.105592918396L232.76,274.51009197235106L234.52333333333334,267.3493766784668L236.28666666666666,279.53685722351076L238.05,286.595157623291L239.81333333333333,225.7531943321228L241.57666666666665,261.67739939689636L243.34,249.2719672679901L245.10333333333332,281.00981483459475L246.86666666666667,284.55239324569703L248.63,248.75824356079102L250.39333333333332,282.18335037231446L252.15666666666667,235.90326375961305L253.92,242.41124181747435L255.68333333333334,277.31516418457034L257.44666666666666,242.4861243724823L259.21,285.8067684173584L260.97333333333336,276.1985498428345L262.7366666666667,286.89883346557616L264.5,255.62685470581056L266.2633333333333,258.9097098827362L268.0266666666667,239.62570810317993L269.79,257.8758547782898L271.55333333333334,233.33541126251222L273.3166666666667,260.8974726676941L275.08,267.8776731491089L276.8433333333333,280.3535448074341L278.6066666666666,288.61544551849363L280.37,276.64642124176027L282.1333333333333,268.0233106613159L283.89666666666665,249.41486506462095L285.66,253.0548655986786L287.42333333333335,284.10488233566286L289.18666666666667,281.7486548423767L290.95000000000005,276.16264514923097L292.71333333333337,261.8716758728027L294.47666666666663,269.28179540634153L296.24,267.0541723251343L298.00333333333333,281.07194509506223L299.76666666666665,280.3347993850708L301.53,271.8584798812866L303.29333333333335,286.87395973205565L305.0566666666667,275.61408920288085L306.82,291.15784749984743L308.58333333333337,278.31306953430175L310.3466666666667,251.96212463378907L312.10999999999996,270.5053668022156L313.87333333333333,289.08790225982665L315.63666666666666,278.98420972824096L317.4,274.86838188171384L319.16333333333336,283.76522970199585L320.9266666666667,273.24787616729736L322.69,295.4654013633728L324.4533333333333,283.13733015060427L326.2166666666667,297.5989368438721L327.98,245.46371755599975L329.74333333333334,276.80647830963136L331.50666666666666,271.98248805999754L333.27,291.36707525253297L335.0333333333333,273.13471870422364L336.7966666666667,265.20677490234374L338.56,274.89228229522706L340.3233333333333,262.75892915725706L342.08666666666664,268.60045337677L343.85,271.5962422370911L345.61333333333334,283.6634276390076L347.37666666666667,283.6028114318848L349.14000000000004,283.01534070968626L350.9033333333333,260.0755670070648L352.66666666666663,290.798169708252L354.43,271.36924238204955L356.1933333333333,267.9538444519043L357.95666666666665,282.95021839141845L359.72,274.4365882873535L361.48333333333335,245.723864364624L363.24666666666667,291.2601362228394L365.01,248.04327692985535L366.77333333333337,297.3143669128418L368.53666666666663,287.0805919647217L370.29999999999995,269.3915282249451L372.06333333333333,273.08484506607056L373.82666666666665,283.6090118408203L375.59,270.7108274459839L377.35333333333335,282.4025456428528L379.1166666666667,266.8154926300049L380.88,282.5737237930298L382.6433333333334,278.2029041290283L384.4066666666667,251.1111815929413L386.17,259.08328528404235L387.9333333333333,267.4025668144226L389.69666666666666,269.4263875007629L391.46,288.3511350631714L393.2233333333333,268.05777339935304L394.9866666666667,293.4298828125L396.75,291.909881401062L398.5133333333333,291.74074001312255L400.2766666666667,270.8943162918091L402.04,272.3725370407104L403.80333333333334,279.97420234680175L405.5666666666667,297.1473163604736L407.33,278.6829131126404L409.0933333333333,242.16519012451172L410.8566666666666,299.7133483886719L412.62,290.31612396240234L414.3833333333333,298.1613175392151L416.14666666666665,278.0253273010254L417.91,280.33223991394044L419.67333333333335,244.06958084106444L421.43666666666667,274.75672044754026L423.20000000000005,274.26593284606935L424.96333333333337,262.6538466453552L426.72666666666663,274.22186307907106L428.49,267.79607648849486L430.25333333333333,287.81530437469485L432.01666666666665,278.5404298782349L433.78,284.39750919342043L435.54333333333335,302.23309364318845L437.3066666666667,272.2636513710022L439.07,271.54748611450196L440.83333333333337,283.46166200637816L442.5966666666667,297.60517330169677L444.35999999999996,241.40987577438355L446.12333333333333,289.9484613418579L447.88666666666666,303.96470203399656L449.65,291.745444393158L451.41333333333336,290.95541496276854L453.1766666666667,288.7830187797546L454.94,262.0425295829773L456.7033333333333,283.63493099212644L458.4666666666667,287.5305181503296L460.23,299.4028953552246L461.99333333333334,295.6258729934692L463.75666666666666,273.85191135406495L465.52,264.9335964202881L467.2833333333333,264.3617438793182L469.0466666666667,298.5186882019043L470.81,263.82300224304197L472.5733333333333,296.3579358100891L474.33666666666664,286.1415184020996L476.1,290.86273326873777L477.86333333333334,289.73571882247927L479.62666666666667,281.18802251815794L481.39000000000004,276.5614179611206L483.1533333333333,297.27849826812746L484.91666666666663,300.0654919624329L486.68,271.80471296310424L488.4433333333333,301.7172700881958L490.20666666666665,314.17066526412964L491.97,298.6464454650879L493.73333333333335,291.68965873718264L495.49666666666667,240.8614730358124L497.26,269.13358039855956L499.02333333333337,274.94152507781985L500.78666666666663,286.7931381225586L502.54999999999995,252.64538626670839L504.31333333333333,276.16527671813964L506.07666666666665,295.8180856704712L507.84,287.9399794578552L509.60333333333335,304.15057010650634L511.3666666666667,273.19171199798586L513.13,293.11950187683107L514.8933333333333,287.99396266937254L516.6566666666666,286.5883083343506L518.42,300.9739059448242L520.1833333333333,236.10543494224547L521.9466666666667,289.6298973083496L523.71,297.6599856376648L525.4733333333334,296.8345381736755L527.2366666666667,293.05279340744016L529,286.1595428466797L530.7633333333333,262.80408039093015L532.5266666666666,284.1363349914551L534.29,301.1302499771118L536.0533333333334,304.2811752319336L537.8166666666666,270.43389987945557L539.58,308.4588629722595L541.3433333333334,275.36030502319335L543.1066666666667,256.9521831035614L544.87,297.7455476760864L546.6333333333334,284.498482131958L548.3966666666666,287.7219557762146L550.16,305.507306098938L551.9233333333333,304.830704498291L553.6866666666666,297.29769430160525L555.45,296.9097361564636L557.2133333333333,261.73024706840516L558.9766666666667,210.42148461341858L560.74,169.4491282939911L562.5033333333333,295.23953704833986L564.2666666666667,302.4709442138672L566.0300000000001,293.2165454864502L567.7933333333333,294.9907636642456L569.5566666666666,279.0280632019043L571.32,250.94581632614137L573.0833333333333,301.8968476295471L574.8466666666667,291.7436960220337L576.61,301.8448651313782L578.3733333333333,297.11535902023314L580.1366666666667,286.95806179046633L581.9000000000001,282.14196624755857L583.6633333333333,261.9813185691834L585.4266666666667,273.73743810653684L587.19,299.2223084449768L588.9533333333333,308.081160736084L590.7166666666667,312.23583126068115L592.48,244.90654592514036L594.2433333333333,298.1079291343689L596.0066666666667,306.7267318725586L597.77,282.4743009567261L599.5333333333333,294.3954162597656L601.2966666666667,260.99040670394896L603.06,293.9047908782959L604.8233333333333,297.0692885398865L606.5866666666667,274.5542338371277L608.3499999999999,286.78034076690676L610.1133333333333,262.9519889831543L611.8766666666667,299.6543363571167L613.64,310.898219203949L615.4033333333333,285.4040662765503L617.1666666666667,299.43962917327883L618.93,289.917982006073L620.6933333333334,308.69409999847414L622.4566666666667,287.196471118927L624.2199999999999,300.39788074493407L625.9833333333333,305.71011714935304L627.7466666666667,304.8255495071411L629.51,288.76580543518065L631.2733333333333,278.642538356781L633.0366666666667,286.35363006591797L634.8,308.29325437545776L636.5633333333334,297.3796154022217L638.3266666666667,276.4263788223267L640.09,287.02237300872804L641.8533333333334,284.8254095077515L643.6166666666666,237.97946348190308L645.38,285.67003498077395L647.1433333333333,299.15648317337036L648.9066666666666,309.69218559265136L650.67,303.3870906829834L652.4333333333334,293.13244342803955L654.1966666666666,290.3685390472412L655.96,294.5593305587769L657.7233333333334,266.4619791984558L659.4866666666667,260.7471938610077L661.25,304.30767116546633L663.0133333333333,298.47121181488035L664.7766666666666,253.78416166305544L666.54,312.8221664428711L668.3033333333334,285.8617249488831L670.0666666666666,281.42666616439817L671.83,274.98483781814576L673.5933333333334,286.0745035171509L675.3566666666667,305.5436794281006L677.12,305.2945095062256L678.8833333333334,289.7913963317871L680.6466666666666,289.10473709106446L682.41,306.6040755271912L684.1733333333333,268.3142972946167L685.9366666666666,212.66176085472105L687.7,290.9472498893738L689.4633333333333,290.94690742492674L691.2266666666667,305.58967781066895L692.99,300.0195837020874L694.7533333333333,278.083203792572L696.5166666666667,283.562238407135L698.2800000000001,299.7660698890686L700.0433333333333,295.8958070755005L701.8066666666666,305.65534086227416L703.57,293.90396175384524L705.3333333333333,279.3824778556824L707.0966666666667,289.45030174255373L708.86,296.10485458374023L710.6233333333333,287.96980991363523L712.3866666666667,295.56671676635744L714.1500000000001,290.5011268615723L715.9133333333333,280.692728805542L717.6766666666667,297.40868883132936L719.44,290.9993765830994L721.2033333333333,272.4276197433472L722.9666666666667,260.7610366344452L724.73,280.97387409210205L726.4933333333333,286.61514673233035L728.2566666666667,266.14020681381226L730.02,256.8949825286865L731.7833333333333,312.63373889923093L733.5466666666667,305.64631061553956L735.31,241.229171705246L737.0733333333333,311.7841026306152L738.8366666666667,313.0559795379639L740.5999999999999,303.9639269828796L742.3633333333333,223.93171606063842L744.1266666666667,252.09650588035583L745.89,291.1063877105713L747.6533333333333,298.8365312576294L749.4166666666667,301.0123160362244L751.18,296.44454326629636L752.9433333333334,316.20924797058103L754.7066666666667,313.8263262748718L756.4699999999999,291.6036460876465L758.2333333333333,298.7570074081421L759.9966666666667,278.889347076416L761.76,301.69558668136597L763.5233333333333,317.5342969894409L765.2866666666667,299.45923976898194L767.05,307.1324080467224L768.8133333333334,306.82330684661866L770.5766666666667,298.9475257873535L772.34,308.80943841934203L774.1033333333334,245.62443251609804L775.8666666666666,248.86595764160157L777.63,227.12887401580812L779.3933333333333,300.87022933959963L781.1566666666666,296.1940034866333L782.92,292.3230737686157L784.6833333333334,295.00121784210205L786.4466666666666,313.50772619247437L788.21,309.5465480804443L789.9733333333334,287.9278490066528L791.7366666666667,317.0874710083008L793.5,253.96643385887148L795.2633333333333,299.27917556762696L797.0266666666666,289.7446769714355L798.79,306.31545009613035L800.5533333333334,254.16067428588866L802.3166666666666,298.01622076034545L804.08,305.83540506362914L805.8433333333334,305.22731437683103L807.6066666666667,315.40589847564695L809.37,290.40795850753784L811.1333333333334,311.15647344589235L812.8966666666666,297.1505247116089L814.66,283.97359228134155L816.4233333333333,277.35424118041993L818.1866666666666,306.8568323135376L819.95,310.3104961395264L821.7133333333333,310.3739782333374L823.4766666666667,275.20403308868407L825.24,295.4629320144653L827.0033333333333,307.75088081359866L828.7666666666667,302.2812910079956L830.5300000000001,305.80672817230226L832.2933333333333,305.3672561645508L834.0566666666666,255.44026565551758L835.82,303.12047309875487L837.5833333333333,305.35162897109984L839.3466666666667,308.16309986114504L841.11,287.7851134300232L842.8733333333333,294.0714448928833L844.6366666666667,300.54818658828736L846.4000000000001,302.85306243896486L848.1633333333333,302.67815322875975L849.9266666666667,254.47255125045774L851.69,308.7908191680908L853.4533333333333,286.45629730224607L855.2166666666667,307.38300189971926L856.98,292.45097522735597L858.7433333333333,316.2475679397583L860.5066666666667,288.704666519165L862.27,276.7434648513794L864.0333333333333,280.57344303131106L865.7966666666667,309.29398956298826L867.56,304.17128019332887L869.3233333333333,275.45484323501586L871.0866666666667,314.7468346595764L872.8499999999999,282.9988303184509L874.6133333333333,286.2042254447937L876.3766666666667,296.143282699585L878.14,295.90606298446653L879.9033333333333,310.0869029045105L881.6666666666667,320.846342754364L883.43,245.39015078544617L885.1933333333334,282.3150009155273L886.9566666666667,308.07532081604006L888.7199999999999,310.6163709640503L890.4833333333333,293.78698310852053L892.2466666666667,287.36898307800294L894.01,300.6269534111023L895.7733333333333,314.6132194519043L897.5366666666667,313.1645407676697L899.3,307.95792760848997L901.0633333333334,301.56523389816283L902.8266666666667,292.61121253967286L904.59,298.5103609085083L906.3533333333334,267.3349931716919L908.1166666666666,295.76844635009763L909.88,267.18102836608887L911.6433333333333,315.92813873291016L913.4066666666666,306.2466688156128L915.17,307.7124346733093L916.9333333333334,309.535661315918L918.6966666666666,303.22997159957885L920.46,306.52392082214357L922.2233333333334,266.85626392364503L923.9866666666667,282.2161548614502L925.75,307.70185432434084L927.5133333333333,282.1488515853882L929.2766666666666,287.34380292892456L931.04,304.1855555534363L932.8033333333334,289.982365322113L934.5666666666666,311.6127442359924L936.33,309.84186058044435L938.0933333333334,297.7452773094177L939.8566666666667,286.82621297836306L941.62,320.2351698875427L943.3833333333334,310.30851345062257L945.1466666666666,305.90382585525515L946.91,283.5353819847107L948.6733333333333,301.6943069458008L950.4366666666666,289.912015914917L952.2,300.62048263549804L953.9633333333333,303.93651180267335L955.7266666666667,311.02763471603396L957.49,307.2084171295166L959.2533333333333,316.24289960861205L961.0166666666667,318.96085968017576L962.7800000000001,322.5691732406616L964.5433333333333,276.05426416397097L966.3066666666666,296.10348472595217L968.07,268.2239768028259" style="fill: none;" fill="none"></path></g></g></g></g></g></g><g transform="translate(50, 378)" clip-path="url(#clip_1)"><clipPath id="clip_1"><rect width="1058" height="22"></rect></clipPath><g><g><line x1="0" y1="0" x2="0" y2="5" style="visibility: inherit;" fill="rgb(0, 0, 0)" stroke="rgb(204, 204, 204)" stroke-width="1px"></line><line x1="88.16666666666666" y1="0" x2="88.16666666666666" y2="5" style="visibility: inherit;" fill="rgb(0, 0, 0)" stroke="rgb(204, 204, 204)" stroke-width="1px"></line><line x1="176.33333333333331" y1="0" x2="176.33333333333331" y2="5" style="visibility: inherit;" fill="rgb(0, 0, 0)" stroke="rgb(204, 204, 204)" stroke-width="1px"></line><line x1="264.5" y1="0" x2="264.5" y2="5" style="visibility: inherit;" fill="rgb(0, 0, 0)" stroke="rgb(204, 204, 204)" stroke-width="1px"></line><line x1="352.66666666666663" y1="0" x2="352.66666666666663" y2="5" style="visibility: inherit;" fill="rgb(0, 0, 0)" stroke="rgb(204, 204, 204)" stroke-width="1px"></line><line x1="440.83333333333337" y1="0" x2="440.83333333333337" y2="5" style="visibility: inherit;" fill="rgb(0, 0, 0)" stroke="rgb(204, 204, 204)" stroke-width="1px"></line><line x1="529" y1="0" x2="529" y2="5" style="visibility: inherit;" fill="rgb(0, 0, 0)" stroke="rgb(204, 204, 204)" stroke-width="1px"></line><line x1="617.1666666666667" y1="0" x2="617.1666666666667" y2="5" style="visibility: inherit;" fill="rgb(0, 0, 0)" stroke="rgb(204, 204, 204)" stroke-width="1px"></line><line x1="705.3333333333333" y1="0" x2="705.3333333333333" y2="5" style="visibility: inherit;" fill="rgb(0, 0, 0)" stroke="rgb(204, 204, 204)" stroke-width="1px"></line><line x1="793.5" y1="0" x2="793.5" y2="5" style="visibility: inherit;" fill="rgb(0, 0, 0)" stroke="rgb(204, 204, 204)" stroke-width="1px"></line><line x1="881.6666666666667" y1="0" x2="881.6666666666667" y2="5" style="visibility: inherit;" fill="rgb(0, 0, 0)" stroke="rgb(204, 204, 204)" stroke-width="1px"></line><line x1="969.8333333333333" y1="0" x2="969.8333333333333" y2="5" style="visibility: inherit;" fill="rgb(0, 0, 0)" stroke="rgb(204, 204, 204)" stroke-width="1px"></line><line x1="1058" y1="0" x2="1058" y2="5" style="visibility: inherit;" fill="rgb(0, 0, 0)" stroke="rgb(204, 204, 204)" stroke-width="1px"></line></g><g transform="translate(0, 8)"><text x="0" y="0" dx="0em" dy="0.95em" style="text-anchor: middle; visibility: hidden; font-family: &quot;Helvetica Neue&quot;, sans-serif; font-size: 12px; font-weight: 200;" fill="rgb(50, 49, 63)" stroke="none" stroke-width="1px">-50</text><text x="88.16666666666666" y="0" dx="0em" dy="0.95em" style="text-anchor: middle; visibility: inherit; font-family: &quot;Helvetica Neue&quot;, sans-serif; font-size: 12px; font-weight: 200;" fill="rgb(50, 49, 63)" stroke="none" stroke-width="1px">0</text><text x="176.33333333333331" y="0" dx="0em" dy="0.95em" style="text-anchor: middle; visibility: inherit; font-family: &quot;Helvetica Neue&quot;, sans-serif; font-size: 12px; font-weight: 200;" fill="rgb(50, 49, 63)" stroke="none" stroke-width="1px">50</text><text x="264.5" y="0" dx="0em" dy="0.95em" style="text-anchor: middle; visibility: inherit; font-family: &quot;Helvetica Neue&quot;, sans-serif; font-size: 12px; font-weight: 200;" fill="rgb(50, 49, 63)" stroke="none" stroke-width="1px">100</text><text x="352.66666666666663" y="0" dx="0em" dy="0.95em" style="text-anchor: middle; visibility: inherit; font-family: &quot;Helvetica Neue&quot;, sans-serif; font-size: 12px; font-weight: 200;" fill="rgb(50, 49, 63)" stroke="none" stroke-width="1px">150</text><text x="440.83333333333337" y="0" dx="0em" dy="0.95em" style="text-anchor: middle; visibility: inherit; font-family: &quot;Helvetica Neue&quot;, sans-serif; font-size: 12px; font-weight: 200;" fill="rgb(50, 49, 63)" stroke="none" stroke-width="1px">200</text><text x="529" y="0" dx="0em" dy="0.95em" style="text-anchor: middle; visibility: inherit; font-family: &quot;Helvetica Neue&quot;, sans-serif; font-size: 12px; font-weight: 200;" fill="rgb(50, 49, 63)" stroke="none" stroke-width="1px">250</text><text x="617.1666666666667" y="0" dx="0em" dy="0.95em" style="text-anchor: middle; visibility: inherit; font-family: &quot;Helvetica Neue&quot;, sans-serif; font-size: 12px; font-weight: 200;" fill="rgb(50, 49, 63)" stroke="none" stroke-width="1px">300</text><text x="705.3333333333333" y="0" dx="0em" dy="0.95em" style="text-anchor: middle; visibility: inherit; font-family: &quot;Helvetica Neue&quot;, sans-serif; font-size: 12px; font-weight: 200;" fill="rgb(50, 49, 63)" stroke="none" stroke-width="1px">350</text><text x="793.5" y="0" dx="0em" dy="0.95em" style="text-anchor: middle; visibility: inherit; font-family: &quot;Helvetica Neue&quot;, sans-serif; font-size: 12px; font-weight: 200;" fill="rgb(50, 49, 63)" stroke="none" stroke-width="1px">400</text><text x="881.6666666666667" y="0" dx="0em" dy="0.95em" style="text-anchor: middle; visibility: inherit; font-family: &quot;Helvetica Neue&quot;, sans-serif; font-size: 12px; font-weight: 200;" fill="rgb(50, 49, 63)" stroke="none" stroke-width="1px">450</text><text x="969.8333333333333" y="0" dx="0em" dy="0.95em" style="text-anchor: middle; visibility: inherit; font-family: &quot;Helvetica Neue&quot;, sans-serif; font-size: 12px; font-weight: 200;" fill="rgb(50, 49, 63)" stroke="none" stroke-width="1px">500</text><text x="1058" y="0" dx="0em" dy="0.95em" style="text-anchor: middle; visibility: hidden; font-family: &quot;Helvetica Neue&quot;, sans-serif; font-size: 12px; font-weight: 200;" fill="rgb(50, 49, 63)" stroke="none" stroke-width="1px">550</text></g><line x1="0" y1="0" x2="1058" y2="0" fill="rgb(0, 0, 0)" stroke="rgb(204, 204, 204)" stroke-width="1px"></line></g></g></g></g></svg>