<svg viewBox="0 0 1108 400" xmlns="http://www.w3.org/2000/svg"><g><g><g><g><g><line x1="50" y1="378" x2="45" y2="378" style="visibility: inherit;" fill="rgb(0, 0, 0)" stroke="rgb(204, 204, 204)" stroke-width="1px"></line><line x1="50" y1="348.9230769230769" x2="45" y2="348.9230769230769" style="visibility: inherit;" fill="rgb(0, 0, 0)" stroke="rgb(204, 204, 204)" stroke-width="1px"></line><line x1="50" y1="319.8461538461538" x2="45" y2="319.8461538461538" style="visibility: inherit;" fill="rgb(0, 0, 0)" stroke="rgb(204, 204, 204)" stroke-width="1px"></line><line x1="50" y1="290.7692307692308" x2="45" y2="290.7692307692308" style="visibility: inherit;" fill="rgb(0, 0, 0)" stroke="rgb(204, 204, 204)" stroke-width="1px"></line><line x1="50" y1="261.6923076923077" x2="45" y2="261.6923076923077" style="visibility: inherit;" fill="rgb(0, 0, 0)" stroke="rgb(204, 204, 204)" stroke-width="1px"></line><line x1="50" y1="232.61538461538464" x2="45" y2="232.61538461538464" style="visibility: inherit;" fill="rgb(0, 0, 0)" stroke="rgb(204, 204, 204)" stroke-width="1px"></line><line x1="50" y1="203.53846153846155" x2="45" y2="203.53846153846155" style="visibility: inherit;" fill="rgb(0, 0, 0)" stroke="rgb(204, 204, 204)" stroke-width="1px"></line><line x1="50" y1="174.46153846153848" x2="45" y2="174.46153846153848" style="visibility: inherit;" fill="rgb(0, 0, 0)" stroke="rgb(204, 204, 204)" stroke-width="1px"></line><line x1="50" y1="145.38461538461542" x2="45" y2="145.38461538461542" style="visibility: inherit;" fill="rgb(0, 0, 0)" stroke="rgb(204, 204, 204)" stroke-width="1px"></line><line x1="50" y1="116.30769230769232" x2="45" y2="116.30769230769232" style="visibility: inherit;" fill="rgb(0, 0, 0)" stroke="rgb(204, 204, 204)" stroke-width="1px"></line><line x1="50" y1="87.23076923076928" x2="45" y2="87.23076923076928" style="visibility: inherit;" fill="rgb(0, 0, 0)" stroke="rgb(204, 204, 204)" stroke-width="1px"></line><line x1="50" y1="58.15384615384613" x2="45" y2="58.15384615384613" style="visibility: inherit;" fill="rgb(0, 0, 0)" stroke="rgb(204, 204, 204)" stroke-width="1px"></line><line x1="50" y1="29.076923076923038" x2="45" y2="29.076923076923038" style="visibility: inherit;" fill="rgb(0, 0, 0)" stroke="rgb(204, 204, 204)" stroke-width="1px"></line><line x1="50" y1="0" x2="45" y2="0" style="visibility: inherit;" fill="rgb(0, 0, 0)" stroke="rgb(204, 204, 204)" stroke-width="1px"></line></g><g transform="translate(40, 0)"><text x="0" y="378" dx="0em" dy="0.3em" style="text-anchor: end; visibility: hidden; font-family: &quot;Helvetica Neue&quot;, sans-serif; font-size: 12px; font-weight: 200;" fill="rgb(50, 49, 63)" stroke="none" stroke-width="1px">-0.1</text><text x="0" y="348.9230769230769" dx="0em" dy="0.3em" style="text-anchor: end; visibility: inherit; font-family: &quot;Helvetica Neue&quot;, sans-serif; font-size: 12px; font-weight: 200;" fill="rgb(50, 49, 63)" stroke="none" stroke-width="1px">0</text><text x="0" y="319.8461538461538" dx="0em" dy="0.3em" style="text-anchor: end; visibility: inherit; font-family: &quot;Helvetica Neue&quot;, sans-serif; font-size: 12px; font-weight: 200;" fill="rgb(50, 49, 63)" stroke="none" stroke-width="1px">0.1</text><text x="0" y="290.7692307692308" dx="0em" dy="0.3em" style="text-anchor: end; visibility: inherit; font-family: &quot;Helvetica Neue&quot;, sans-serif; font-size: 12px; font-weight: 200;" fill="rgb(50, 49, 63)" stroke="none" stroke-width="1px">0.2</text><text x="0" y="261.6923076923077" dx="0em" dy="0.3em" style="text-anchor: end; visibility: inherit; font-family: &quot;Helvetica Neue&quot;, sans-serif; font-size: 12px; font-weight: 200;" fill="rgb(50, 49, 63)" stroke="none" stroke-width="1px">0.3</text><text x="0" y="232.61538461538464" dx="0em" dy="0.3em" style="text-anchor: end; visibility: inherit; font-family: &quot;Helvetica Neue&quot;, sans-serif; font-size: 12px; font-weight: 200;" fill="rgb(50, 49, 63)" stroke="none" stroke-width="1px">0.4</text><text x="0" y="203.53846153846155" dx="0em" dy="0.3em" style="text-anchor: end; visibility: inherit; font-family: &quot;Helvetica Neue&quot;, sans-serif; font-size: 12px; font-weight: 200;" fill="rgb(50, 49, 63)" stroke="none" stroke-width="1px">0.5</text><text x="0" y="174.46153846153848" dx="0em" dy="0.3em" style="text-anchor: end; visibility: inherit; font-family: &quot;Helvetica Neue&quot;, sans-serif; font-size: 12px; font-weight: 200;" fill="rgb(50, 49, 63)" stroke="none" stroke-width="1px">0.6</text><text x="0" y="145.38461538461542" dx="0em" dy="0.3em" style="text-anchor: end; visibility: inherit; font-family: &quot;Helvetica Neue&quot;, sans-serif; font-size: 12px; font-weight: 200;" fill="rgb(50, 49, 63)" stroke="none" stroke-width="1px">0.7</text><text x="0" y="116.30769230769232" dx="0em" dy="0.3em" style="text-anchor: end; visibility: inherit; font-family: &quot;Helvetica Neue&quot;, sans-serif; font-size: 12px; font-weight: 200;" fill="rgb(50, 49, 63)" stroke="none" stroke-width="1px">0.8</text><text x="0" y="87.23076923076928" dx="0em" dy="0.3em" style="text-anchor: end; visibility: inherit; font-family: &quot;Helvetica Neue&quot;, sans-serif; font-size: 12px; font-weight: 200;" fill="rgb(50, 49, 63)" stroke="none" stroke-width="1px">0.9</text><text x="0" y="58.15384615384613" dx="0em" dy="0.3em" style="text-anchor: end; visibility: inherit; font-family: &quot;Helvetica Neue&quot;, sans-serif; font-size: 12px; font-weight: 200;" fill="rgb(50, 49, 63)" stroke="none" stroke-width="1px">1</text><text x="0" y="29.076923076923038" dx="0em" dy="0.3em" style="text-anchor: end; visibility: inherit; font-family: &quot;Helvetica Neue&quot;, sans-serif; font-size: 12px; font-weight: 200;" fill="rgb(50, 49, 63)" stroke="none" stroke-width="1px">1.1</text><text x="0" y="0" dx="0em" dy="0.3em" style="text-anchor: end; visibility: hidden; font-family: &quot;Helvetica Neue&quot;, sans-serif; font-size: 12px; font-weight: 200;" fill="rgb(50, 49, 63)" stroke="none" stroke-width="1px">1.2</text></g><line x1="50" y1="0" x2="50" y2="378" fill="rgb(0, 0, 0)" stroke="rgb(204, 204, 204)" stroke-width="1px"></line></g></g><g transform="translate(50, 0)" clip-path="url(#clip_0)"><clipPath id="clip_0"><rect width="1058" height="378"></rect></clipPath><g><g><g><line x1="0" y1="0" x2="0" y2="378" fill="rgb(0, 0, 0)" stroke="rgb(60, 60, 60)" stroke-width="1px" opacity="0.25"></line><line x1="88.16666666666666" y1="0" x2="88.16666666666666" y2="378" fill="rgb(0, 0, 0)" stroke="rgb(60, 60, 60)" stroke-width="1px" opacity="0.25"></line><line x1="176.33333333333331" y1="0" x2="176.33333333333331" y2="378" fill="rgb(0, 0, 0)" stroke="rgb(60, 60, 60)" stroke-width="1px" opacity="0.25"></line><line x1="264.5" y1="0" x2="264.5" y2="378" fill="rgb(0, 0, 0)" stroke="rgb(60, 60, 60)" stroke-width="1px" opacity="0.25"></line><line x1="352.66666666666663" y1="0" x2="352.66666666666663" y2="378" fill="rgb(0, 0, 0)" stroke="rgb(60, 60, 60)" stroke-width="1px" opacity="0.25"></line><line x1="440.83333333333337" y1="0" x2="440.83333333333337" y2="378" fill="rgb(0, 0, 0)" stroke="rgb(60, 60, 60)" stroke-width="1px" opacity="0.25"></line><line x1="529" y1="0" x2="529" y2="378" fill="rgb(0, 0, 0)" stroke="rgb(60, 60, 60)" stroke-width="1px" opacity="0.25"></line><line x1="617.1666666666667" y1="0" x2="617.1666666666667" y2="378" fill="rgb(0, 0, 0)" stroke="rgb(60, 60, 60)" stroke-width="1px" opacity="0.25"></line><line x1="705.3333333333333" y1="0" x2="705.3333333333333" y2="378" fill="rgb(0, 0, 0)" stroke="rgb(60, 60, 60)" stroke-width="1px" opacity="0.25"></line><line x1="793.5" y1="0" x2="793.5" y2="378" fill="rgb(0, 0, 0)" stroke="rgb(60, 60, 60)" stroke-width="1px" opacity="0.25"></line><line x1="881.6666666666667" y1="0" x2="881.6666666666667" y2="378" fill="rgb(0, 0, 0)" stroke="rgb(60, 60, 60)" stroke-width="1px" opacity="0.25"></line><line x1="969.8333333333333" y1="0" x2="969.8333333333333" y2="378" fill="rgb(0, 0, 0)" stroke="rgb(60, 60, 60)" stroke-width="1px" opacity="0.25"></line><line x1="1058" y1="0" x2="1058" y2="378" fill="rgb(0, 0, 0)" stroke="rgb(60, 60, 60)" stroke-width="1px" opacity="0.25"></line></g><g><line x1="0" y1="378" x2="1058" y2="378" fill="rgb(0, 0, 0)" stroke="rgb(60, 60, 60)" stroke-width="1px" opacity="0.25"></line><line x1="0" y1="348.9230769230769" x2="1058" y2="348.9230769230769" fill="rgb(0, 0, 0)" stroke="rgb(60, 60, 60)" stroke-width="1px" opacity="0.25"></line><line x1="0" y1="319.8461538461538" x2="1058" y2="319.8461538461538" fill="rgb(0, 0, 0)" stroke="rgb(60, 60, 60)" stroke-width="1px" opacity="0.25"></line><line x1="0" y1="290.7692307692308" x2="1058" y2="290.7692307692308" fill="rgb(0, 0, 0)" stroke="rgb(60, 60, 60)" stroke-width="1px" opacity="0.25"></line><line x1="0" y1="261.6923076923077" x2="1058" y2="261.6923076923077" fill="rgb(0, 0, 0)" stroke="rgb(60, 60, 60)" stroke-width="1px" opacity="0.25"></line><line x1="0" y1="232.61538461538464" x2="1058" y2="232.61538461538464" fill="rgb(0, 0, 0)" stroke="rgb(60, 60, 60)" stroke-width="1px" opacity="0.25"></line><line x1="0" y1="203.53846153846155" x2="1058" y2="203.53846153846155" fill="rgb(0, 0, 0)" stroke="rgb(60, 60, 60)" stroke-width="1px" opacity="0.25"></line><line x1="0" y1="174.46153846153848" x2="1058" y2="174.46153846153848" fill="rgb(0, 0, 0)" stroke="rgb(60, 60, 60)" stroke-width="1px" opacity="0.25"></line><line x1="0" y1="145.38461538461542" x2="1058" y2="145.38461538461542" fill="rgb(0, 0, 0)" stroke="rgb(60, 60, 60)" stroke-width="1px" opacity="0.25"></line><line x1="0" y1="116.30769230769232" x2="1058" y2="116.30769230769232" fill="rgb(0, 0, 0)" stroke="rgb(60, 60, 60)" stroke-width="1px" opacity="0.25"></line><line x1="0" y1="87.23076923076928" x2="1058" y2="87.23076923076928" fill="rgb(0, 0, 0)" stroke="rgb(60, 60, 60)" stroke-width="1px" opacity="0.25"></line><line x1="0" y1="58.15384615384613" x2="1058" y2="58.15384615384613" fill="rgb(0, 0, 0)" stroke="rgb(60, 60, 60)" stroke-width="1px" opacity="0.25"></line><line x1="0" y1="29.076923076923038" x2="1058" y2="29.076923076923038" fill="rgb(0, 0, 0)" stroke="rgb(60, 60, 60)" stroke-width="1px" opacity="0.25"></line><line x1="0" y1="0" x2="1058" y2="0" fill="rgb(0, 0, 0)" stroke="rgb(60, 60, 60)" stroke-width="1px" opacity="0.25"></line></g></g></g><g><g><line x1="0" y1="348.9230769230769" x2="1058" y2="348.9230769230769" fill="rgb(0, 0, 0)" stroke="rgb(153, 153, 153)" stroke-width="1.5px"></line></g></g><g><g><line x1="88.16666666666666" y1="0" x2="88.16666666666666" y2="378" fill="rgb(0, 0, 0)" stroke="rgb(153, 153, 153)" stroke-width="1.5px"></line></g></g><g><g><g><g><g><path stroke="rgb(255, 112, 67)" stroke-width="2px" d="M88.16666666666666,82.83700583531305L89.93,140.80729381854718L91.69333333333334,180.50805676900424L93.45666666666666,204.61531811494095L95.22,217.76330120746906L96.98333333333332,233.29856132544006L98.74666666666667,247.06950561816876L100.51,257.18855012380163L102.27333333333333,263.1649360106542L104.03666666666666,273.40434567744916L105.80000000000001,281.85602940504367L107.56333333333333,292.1061367530089L109.32666666666667,293.55480382534176L111.08999999999999,297.0225639801759L112.85333333333334,299.5617879399887L114.61666666666667,302.3459363717299L116.38,306.09870805648654L118.14333333333333,307.3817885426374L119.90666666666667,307.87355691653033L121.67,307.65786150785596L123.43333333333334,312.02492879445737L125.19666666666666,313.34922286638846L126.96,316.2878009264286L128.72333333333333,312.36158295778125L130.48666666666668,315.8780112793812L132.25,315.0324286910204L134.01333333333335,316.8743102871455L135.77666666666667,316.6645356485477L137.54,317.3137471125676L139.3033333333333,315.55358644173697L141.06666666666666,317.62601628211826L142.83,320.89247025434787L144.59333333333333,319.76558284576123L146.35666666666668,319.46862795490483L148.12,321.2899742493263L149.88333333333333,317.09712015207L151.64666666666668,321.7087869506616L153.41,320.0070042495544L155.17333333333335,321.1761191189289L156.93666666666667,320.43565890422235L158.7,319.5784340844705L160.46333333333334,322.01539531808635L162.22666666666666,323.5595551179006L163.99,323.11950086859554L165.75333333333333,320.6212760210037L167.51666666666665,321.82298653859357L169.28,321.73734226364354L171.04333333333332,323.27144780296544L172.80666666666667,322.99514736579016L174.57000000000002,322.0383851505243L176.33333333333331,323.51352129303496L178.09666666666666,322.2298472133966L179.86,324.58133531763L181.62333333333333,323.5800622564096L183.38666666666668,324.797591823798L185.14999999999998,321.8971553949209L186.91333333333333,323.61339881328433L188.67666666666668,323.5506122203974L190.44,324.6449364767625L192.20333333333335,324.5455723932156L193.96666666666664,325.07578352781445L195.73,325.22621181607246L197.49333333333334,323.95465874213437L199.25666666666666,324.12613793519824L201.02,324.80201994455774L202.78333333333336,325.59290527609676L204.54666666666665,323.93893068111856L206.31,323.8099952431826L208.07333333333332,322.72576640890196L209.83666666666667,325.2043333466236L211.60000000000002,325.6510666058614L213.36333333333332,323.41296568971416L215.12666666666667,325.4834890984572L216.89,322.98947139886707L218.65333333333334,324.7496840632879L220.41666666666669,324.27887777181775L222.17999999999998,325.40667290183217L223.94333333333333,324.85862146661833L225.70666666666668,326.52319625478526L227.47,324.0298891342603L229.23333333333335,324.56871170722525L230.99666666666667,325.8717122375965L232.76,325.83315682411194L234.52333333333334,323.9198533663383L236.28666666666666,326.4717117685538L238.05,325.1563129333349L239.81333333333333,322.9880372423392L241.57666666666665,324.5332000851631L243.34,325.3308727466143L245.10333333333332,324.61282393565546L246.86666666666667,325.66283015562936L248.63,325.06460273953587L250.39333333333332,323.12793682859495L252.15666666666667,325.634582471389L253.92,325.2275181550246L255.68333333333334,325.97921331799944L257.44666666666666,326.38846786434834L259.21,326.0649399161339L260.97333333333336,326.274686391537L262.7366666666667,325.4683871269226L264.5,326.323859329407L266.2633333333333,326.2623509122775L268.0266666666667,326.3849799610101L269.79,324.6402895496442L271.55333333333334,325.36420063789075L273.3166666666667,323.51094977672284L275.08,325.17791843643556L276.8433333333333,326.82117585264723L278.6066666666666,325.71474358897945L280.37,326.51482528677354L282.1333333333333,326.90710825874254L283.89666666666665,324.2452465845988L285.66,326.9953738771952L287.42333333333335,325.7660894256372L289.18666666666667,326.7226869945343L290.95000000000005,327.0404653182396L292.71333333333337,326.57123183287104L294.47666666666663,327.1386963748015L296.24,325.44216502629797L298.00333333333333,326.291077370827L299.76666666666665,327.3137241303921L301.53,326.2435465638454L303.29333333333335,326.2612200516921L305.0566666666667,325.81095122832517L306.82,324.0358748963246L308.58333333333337,326.59194911214024L310.3466666666667,326.5216169494849L312.10999999999996,327.43521148654133L313.87333333333333,326.53391559995134L315.63666666666666,326.43515594188983L317.4,327.0629265491779L319.16333333333336,326.7329448965879L320.9266666666667,327.1721845796475L322.69,327.6819449021266L324.4533333333333,326.8035846879849L326.2166666666667,327.00749921569457L327.98,327.02554315787097L329.74333333333334,327.4624691261695L331.50666666666666,327.4949672864034L333.27,326.3453781765241L335.0333333333333,326.16630575290094L336.7966666666667,326.3765158378161L338.56,327.27441480985055L340.3233333333333,326.4813544131242L342.08666666666664,325.9399906534415L343.85,326.906352185286L345.61333333333334,325.02823105683694L347.37666666666667,326.8022913474303L349.14000000000004,326.48691772726863L350.9033333333333,327.69331416716943L352.66666666666663,326.7809566442783L354.43,326.8733080923557L356.1933333333333,324.66675861982196L357.95666666666665,327.57557251590947L359.72,326.96487097098276L361.48333333333335,327.138198102896L363.24666666666667,326.78926262030234L365.01,327.12758924410895L366.77333333333337,327.927413140352L368.53666666666663,325.0612989801627L370.29999999999995,326.7167358948634L372.06333333333333,324.6215523595993L373.82666666666665,326.4702277848354L375.59,327.30816731544644L377.35333333333335,326.31544936620276L379.1166666666667,327.65408716981227L380.88,328.00853397296027L382.6433333333334,327.33068053997476L384.4066666666667,328.1095401873955L386.17,326.1704349105175L387.9333333333333,327.9217393398285L389.69666666666666,328.1494431014244L391.46,327.00044108583376L393.2233333333333,327.1805555476592L394.9866666666667,327.254880384757L396.75,327.96829743339464L398.5133333333333,327.5374720463386L400.2766666666667,327.3462721178165L402.04,327.73335356437246L403.80333333333334,326.0304768314728L405.5666666666667,327.8721179572435L407.33,326.9226738397892L409.0933333333333,327.7742248590176L410.8566666666666,327.1400135457516L412.62,326.27677046794156L414.3833333333333,326.2688566102431L416.14666666666665,326.7003145859792L417.91,326.537643973644L419.67333333333335,328.01314623768513L421.43666666666667,325.64786250086934L423.20000000000005,328.3606085685583L424.96333333333337,328.4063282654836L426.72666666666663,327.68487604077046L428.49,327.8188115289578L430.25333333333333,327.4902423688999L432.01666666666665,328.09300189293344L433.78,325.7889384421019L435.54333333333335,327.9845432639122L437.3066666666667,325.3817831369547L439.07,325.6757873915709L440.83333333333337,328.1442025808187L442.5966666666667,328.0491258020584L444.35999999999996,327.91367600055844L446.12333333333333,327.1060812289898L447.88666666666666,326.89395171403885L449.65,326.4208360406069L451.41333333333336,327.2476424437303L453.1766666666667,328.2857161347683L454.94,326.3662254397686L456.7033333333333,327.0825324654579L458.4666666666667,328.0917107187785L460.23,328.0504603042052L461.99333333333334,328.05871212023953L463.75666666666666,328.35617178220014L465.52,327.9271856683951L467.2833333333333,326.71410805216203L469.0466666666667,327.7600024457161L470.81,325.74571443750307L472.5733333333333,326.09308794599315L474.33666666666664,326.23643644039447L476.1,327.40258767513126L477.86333333333334,328.23240754008293L479.62666666666667,327.4880218093212L481.39000000000004,327.56532111305455L483.1533333333333,326.8334875015112L484.91666666666663,327.053344563796L486.68,327.0287927572544L488.4433333333333,327.35859459867845L490.20666666666665,327.1937359227584L491.97,327.23884036220034L493.73333333333335,328.2207241470997L495.49666666666667,328.1083876628142L497.26,326.5768038126139L499.02333333333337,328.23064625721713L500.78666666666663,327.8973066852643L502.54999999999995,327.4947853088379L504.31333333333333,328.1035999197226L506.07666666666665,327.7464386178897L507.84,327.8260321387878L509.60333333333335,328.33384920083563L511.3666666666667,327.87950321344226L513.13,328.08893556090504L514.8933333333333,327.4809875098558L516.6566666666666,328.2309062251678L518.42,327.6451356067107L520.1833333333333,326.48458234851176L521.9466666666667,328.1284528558071L523.71,326.71124190550586L525.4733333333334,327.7219994641267L527.2366666666667,328.0001825025448L529,327.73385833547667L530.7633333333333,328.25991214926427L532.5266666666666,327.9540143609047L534.29,327.17145017018686L536.0533333333334,328.21274746381323L537.8166666666666,327.42330495440046L539.58,328.2482590858753L541.3433333333334,327.97906443935176L543.1066666666667,327.91024009081036L544.87,328.25392855359956L546.6333333333334,327.59750081254884L548.3966666666666,326.6300755785062L550.16,328.5328113390849L551.9233333333333,328.4006782953556L553.6866666666666,328.41749388896505L555.45,327.3943510238941L557.2133333333333,326.4630591685955L558.9766666666667,327.36925545105566L560.74,326.9786276083726L562.5033333333333,327.6283828386894L564.2666666666667,326.96081547095224L566.0300000000001,328.45390673325613L567.7933333333333,328.1865145311906L569.5566666666666,328.55213995621756L571.32,327.5657522265728L573.0833333333333,326.20513846553285L574.8466666666667,327.57686802286366L576.61,327.8956537223779L578.3733333333333,327.84380961381476L580.1366666666667,328.2294807342382L581.9000000000001,327.60624873408904L583.6633333333333,328.46356454262366L585.4266666666667,327.2109761306873L587.19,327.5041918158531L588.9533333333333,328.03479290237794L590.7166666666667,327.65480424807623L592.48,327.22969165673624L594.2433333333333,327.6085342856554L596.0066666666667,326.9497819978457L597.77,328.41339722734233L599.5333333333333,328.6718140359108L601.2966666666667,328.50401122294943L603.06,328.61826280447156L604.8233333333333,328.7561693031054L606.5866666666667,326.76594349512686L608.3499999999999,328.49250330833286L610.1133333333333,328.1881263324848L611.8766666666667,326.86590983775943L613.64,327.7507584186701L615.4033333333333,328.4878845444092L617.1666666666667,326.62326008539935L618.93,327.40561630175665L620.6933333333334,327.9993614371006L622.4566666666667,327.4633421852038L624.2199999999999,328.5824825488604L625.9833333333333,328.4825898638138L627.7466666666667,327.30007364658206L629.51,328.6160595760896L631.2733333333333,328.58623691934804L633.0366666666667,328.0629171018417L634.8,328.50262039441327L636.5633333333334,328.33653553632587L638.3266666666667,327.06617614856134L640.09,327.8389503795367L641.8533333333334,328.57800460091005L643.6166666666666,328.5592782428631L645.38,328.3356624772915L647.1433333333333,327.7034789140408L648.9066666666666,328.50823786854744L650.67,327.89843971224934L652.4333333333334,327.3956378652499L654.1966666666666,328.235306182733L655.96,328.31774201989174L657.7233333333334,327.61585888266563L659.4866666666667,328.09855870787914L661.25,327.44239526757826L663.0133333333333,328.5799370293434L664.7766666666666,328.278976465647L666.54,328.11642933808844L668.3033333333334,327.20158262206957L670.0666666666666,327.8231053329431L671.83,328.7306079543554L673.5933333333334,328.0488788325053L675.3566666666667,328.21765435888216L677.12,328.49044089592417L678.8833333333334,328.2638203341227L680.6466666666666,327.81742070042174L682.41,328.58066927240446L684.1733333333333,327.80554883067424L685.9366666666666,328.05237756784146L687.7,328.35520123518427L689.4633333333333,328.59415944264487L691.2266666666667,328.41518883980234L692.99,327.61395678382655L694.7533333333333,327.91555643540164L696.5166666666667,327.1423445917093L698.2800000000001,328.5578397535361L700.0433333333333,327.390135210294L701.8066666666666,328.0706749787697L703.57,327.9640534565999L705.3333333333333,327.6863556916897L707.0966666666667,328.63329761761884L708.86,327.6164503097534L710.6233333333333,328.1127269611909L712.3866666666667,328.6982852724882L714.1500000000001,327.6427114055707L715.9133333333333,327.69217897378485L717.6766666666667,328.6231718659401L719.44,327.90182362840727L721.2033333333333,328.5822832400982L722.9666666666667,328.2251154390665L724.73,326.5502177568583L726.4933333333333,327.0783599798496L728.2566666666667,328.5725257763496L730.02,328.6815974964545L731.7833333333333,328.437147466036L733.5466666666667,328.5597353531764L735.31,328.2877958783737L737.0733333333333,328.46852776408195L738.8366666666667,328.63671619617025L740.5999999999999,328.0607247054577L742.3633333333333,327.98224038114915L744.1266666666667,327.8058846226105L745.89,327.30949315199484L747.6533333333333,328.010548724578L749.4166666666667,328.7320204468874L751.18,326.77382918963065L752.9433333333334,328.08255551411554L754.7066666666667,328.2832594376344L756.4699999999999,328.12723100643893L758.2333333333333,328.49309690182025L759.9966666666667,327.57824152020305L761.76,328.65145854537303L763.5233333333333,328.64709758300046L765.2866666666667,328.50768760305186L767.05,328.3868804963736L768.8133333333334,328.3861439205133L770.5766666666667,326.76512892888144L772.34,328.20681152893945L774.1033333333334,328.05943136490305L775.8666666666666,328.7284675515615L777.63,328.41314592499L779.3933333333333,327.77472313092306L781.1566666666666,328.6177060397772L782.92,327.46825774587114L784.6833333333334,328.65627228525966L786.4466666666666,328.7367626955876L788.21,328.4570350142626L789.9733333333334,327.5852628212709L791.7366666666667,328.18896906192487L793.5,328.2583978359516L795.2633333333333,328.6568615459479L797.0266666666666,328.5646292498478L798.79,328.6445433978851L800.5533333333334,328.7255212481205L802.3166666666666,327.0109957846312L804.08,327.63636602117464L805.8433333333334,328.51045192892735L807.6066666666667,328.1720538139343L809.37,328.5342736588075L811.1333333333334,328.65840185605566L812.8966666666666,327.9645343973086L814.66,327.4120396765379L816.4233333333333,328.3223932798092L818.1866666666666,328.71009864944676L819.95,328.9297672349673L821.7133333333333,328.63396486869226L823.4766666666667,327.1759866109261L825.24,328.0390802071645L827.0033333333333,328.4722864673688L828.7666666666667,328.73980432061046L830.5300000000001,327.8044093044905L832.2933333333333,327.19943572007696L834.0566666666666,328.36328407205065L835.82,328.4605944087872L837.5833333333333,328.37475949067334L839.3466666666667,327.87617345727404L841.11,327.33815895135587L842.8733333333333,327.43454206906836L844.6366666666667,328.28432963903134L846.4000000000001,328.4906120414917L848.1633333333333,328.51451176175703L849.9266666666667,328.3226077533685L851.69,328.1056839961272L853.4533333333333,328.59458838976343L855.2166666666667,328.73059062315866L856.98,328.622888067594L858.7433333333333,328.3961245234196L860.5066666666667,328.0093095440131L862.27,328.66927718199213L864.0333333333333,328.153171475117L865.7966666666667,327.9943202252571L867.56,328.54105015672167L869.3233333333333,328.01185073073094L871.0866666666667,328.82577788829803L872.8499999999999,328.91362539163003L874.6133333333333,328.8009921106009L876.3766666666667,328.01053139338126L878.14,327.5986598363289L879.9033333333333,328.43964965756123L881.6666666666667,328.52408508154065L883.43,328.5399756225256L885.1933333333334,328.5977578323621L886.9566666666667,327.37033648445055L888.7199999999999,327.2203934697004L890.4833333333333,327.6556903055081L892.2466666666667,328.0146020582089L894.01,328.79739155448397L895.7733333333333,327.8840916477717L897.5366666666667,328.7585133474607L899.3,327.4139894361679L901.0633333333334,328.75580751437406L902.8266666666667,328.21026693628386L904.59,328.0354688190497L906.3533333333334,328.3109590227787L908.1166666666666,328.8386571338543L909.88,328.2820635850613L911.6433333333333,328.1343324642915L913.4066666666666,327.43429943231433L915.17,328.75486079775374L916.9333333333334,328.71288680571774L918.6966666666666,328.11707059236676L920.46,328.6981076277219L922.2233333333334,328.89236001326486L923.9866666666667,327.40899155231625L925.75,328.51703345087856L927.5133333333333,328.6415061056614L929.2766666666666,328.6314496787695L931.04,328.67657144940813L932.8033333333334,328.8295712539783L934.5666666666666,328.5470055891917L936.33,328.51335490437657L938.0933333333334,328.94851525701006L939.8566666666667,328.3560677950199L941.62,328.21524315613965L943.3833333333334,327.8390088723256L945.1466666666666,328.4734584895464L946.91,327.51806543882077L948.6733333333333,328.2869444833352L950.4366666666666,328.6083601919504L952.2,327.929399728775L953.9633333333333,328.84173558767026L955.7266666666667,328.4614393046269L957.49,328.3787240019211L959.2533333333333,327.79100362383406L961.0166666666667,328.37009306595877L962.7800000000001,328.5453677911025L964.5433333333333,328.178669998279L966.3066666666666,328.49671045633465L968.07,328.9342343509197" style="fill: none;" fill="none"></path></g></g></g></g></g><g><g opacity="0.967224"><span fill="rgb(0, 0, 0)" stroke="none" stroke-width="1px">Alt + Scroll to Zoom</span></g></g></g><g transform="translate(50, 378)" clip-path="url(#clip_1)"><clipPath id="clip_1"><rect width="1058" height="22"></rect></clipPath><g><g><line x1="0" y1="0" x2="0" y2="5" style="visibility: inherit;" fill="rgb(0, 0, 0)" stroke="rgb(204, 204, 204)" stroke-width="1px"></line><line x1="88.16666666666666" y1="0" x2="88.16666666666666" y2="5" style="visibility: inherit;" fill="rgb(0, 0, 0)" stroke="rgb(204, 204, 204)" stroke-width="1px"></line><line x1="176.33333333333331" y1="0" x2="176.33333333333331" y2="5" style="visibility: inherit;" fill="rgb(0, 0, 0)" stroke="rgb(204, 204, 204)" stroke-width="1px"></line><line x1="264.5" y1="0" x2="264.5" y2="5" style="visibility: inherit;" fill="rgb(0, 0, 0)" stroke="rgb(204, 204, 204)" stroke-width="1px"></line><line x1="352.66666666666663" y1="0" x2="352.66666666666663" y2="5" style="visibility: inherit;" fill="rgb(0, 0, 0)" stroke="rgb(204, 204, 204)" stroke-width="1px"></line><line x1="440.83333333333337" y1="0" x2="440.83333333333337" y2="5" style="visibility: inherit;" fill="rgb(0, 0, 0)" stroke="rgb(204, 204, 204)" stroke-width="1px"></line><line x1="529" y1="0" x2="529" y2="5" style="visibility: inherit;" fill="rgb(0, 0, 0)" stroke="rgb(204, 204, 204)" stroke-width="1px"></line><line x1="617.1666666666667" y1="0" x2="617.1666666666667" y2="5" style="visibility: inherit;" fill="rgb(0, 0, 0)" stroke="rgb(204, 204, 204)" stroke-width="1px"></line><line x1="705.3333333333333" y1="0" x2="705.3333333333333" y2="5" style="visibility: inherit;" fill="rgb(0, 0, 0)" stroke="rgb(204, 204, 204)" stroke-width="1px"></line><line x1="793.5" y1="0" x2="793.5" y2="5" style="visibility: inherit;" fill="rgb(0, 0, 0)" stroke="rgb(204, 204, 204)" stroke-width="1px"></line><line x1="881.6666666666667" y1="0" x2="881.6666666666667" y2="5" style="visibility: inherit;" fill="rgb(0, 0, 0)" stroke="rgb(204, 204, 204)" stroke-width="1px"></line><line x1="969.8333333333333" y1="0" x2="969.8333333333333" y2="5" style="visibility: inherit;" fill="rgb(0, 0, 0)" stroke="rgb(204, 204, 204)" stroke-width="1px"></line><line x1="1058" y1="0" x2="1058" y2="5" style="visibility: inherit;" fill="rgb(0, 0, 0)" stroke="rgb(204, 204, 204)" stroke-width="1px"></line></g><g transform="translate(0, 8)"><text x="0" y="0" dx="0em" dy="0.95em" style="text-anchor: middle; visibility: hidden; font-family: &quot;Helvetica Neue&quot;, sans-serif; font-size: 12px; font-weight: 200;" fill="rgb(50, 49, 63)" stroke="none" stroke-width="1px">-50</text><text x="88.16666666666666" y="0" dx="0em" dy="0.95em" style="text-anchor: middle; visibility: inherit; font-family: &quot;Helvetica Neue&quot;, sans-serif; font-size: 12px; font-weight: 200;" fill="rgb(50, 49, 63)" stroke="none" stroke-width="1px">0</text><text x="176.33333333333331" y="0" dx="0em" dy="0.95em" style="text-anchor: middle; visibility: inherit; font-family: &quot;Helvetica Neue&quot;, sans-serif; font-size: 12px; font-weight: 200;" fill="rgb(50, 49, 63)" stroke="none" stroke-width="1px">50</text><text x="264.5" y="0" dx="0em" dy="0.95em" style="text-anchor: middle; visibility: inherit; font-family: &quot;Helvetica Neue&quot;, sans-serif; font-size: 12px; font-weight: 200;" fill="rgb(50, 49, 63)" stroke="none" stroke-width="1px">100</text><text x="352.66666666666663" y="0" dx="0em" dy="0.95em" style="text-anchor: middle; visibility: inherit; font-family: &quot;Helvetica Neue&quot;, sans-serif; font-size: 12px; font-weight: 200;" fill="rgb(50, 49, 63)" stroke="none" stroke-width="1px">150</text><text x="440.83333333333337" y="0" dx="0em" dy="0.95em" style="text-anchor: middle; visibility: inherit; font-family: &quot;Helvetica Neue&quot;, sans-serif; font-size: 12px; font-weight: 200;" fill="rgb(50, 49, 63)" stroke="none" stroke-width="1px">200</text><text x="529" y="0" dx="0em" dy="0.95em" style="text-anchor: middle; visibility: inherit; font-family: &quot;Helvetica Neue&quot;, sans-serif; font-size: 12px; font-weight: 200;" fill="rgb(50, 49, 63)" stroke="none" stroke-width="1px">250</text><text x="617.1666666666667" y="0" dx="0em" dy="0.95em" style="text-anchor: middle; visibility: inherit; font-family: &quot;Helvetica Neue&quot;, sans-serif; font-size: 12px; font-weight: 200;" fill="rgb(50, 49, 63)" stroke="none" stroke-width="1px">300</text><text x="705.3333333333333" y="0" dx="0em" dy="0.95em" style="text-anchor: middle; visibility: inherit; font-family: &quot;Helvetica Neue&quot;, sans-serif; font-size: 12px; font-weight: 200;" fill="rgb(50, 49, 63)" stroke="none" stroke-width="1px">350</text><text x="793.5" y="0" dx="0em" dy="0.95em" style="text-anchor: middle; visibility: inherit; font-family: &quot;Helvetica Neue&quot;, sans-serif; font-size: 12px; font-weight: 200;" fill="rgb(50, 49, 63)" stroke="none" stroke-width="1px">400</text><text x="881.6666666666667" y="0" dx="0em" dy="0.95em" style="text-anchor: middle; visibility: inherit; font-family: &quot;Helvetica Neue&quot;, sans-serif; font-size: 12px; font-weight: 200;" fill="rgb(50, 49, 63)" stroke="none" stroke-width="1px">450</text><text x="969.8333333333333" y="0" dx="0em" dy="0.95em" style="text-anchor: middle; visibility: inherit; font-family: &quot;Helvetica Neue&quot;, sans-serif; font-size: 12px; font-weight: 200;" fill="rgb(50, 49, 63)" stroke="none" stroke-width="1px">500</text><text x="1058" y="0" dx="0em" dy="0.95em" style="text-anchor: middle; visibility: hidden; font-family: &quot;Helvetica Neue&quot;, sans-serif; font-size: 12px; font-weight: 200;" fill="rgb(50, 49, 63)" stroke="none" stroke-width="1px">550</text></g><line x1="0" y1="0" x2="1058" y2="0" fill="rgb(0, 0, 0)" stroke="rgb(204, 204, 204)" stroke-width="1px"></line></g></g></g></g></svg>