<?xml version="1.0" encoding="utf-8" standalone="no"?>
<!DOCTYPE svg PUBLIC "-//W3C//DTD SVG 1.1//EN"
  "http://www.w3.org/Graphics/SVG/1.1/DTD/svg11.dtd">
<!-- Created with matplotlib (https://matplotlib.org/) -->
<svg height="288pt" version="1.1" viewBox="0 0 720 288" width="720pt" xmlns="http://www.w3.org/2000/svg" xmlns:xlink="http://www.w3.org/1999/xlink">
 <metadata>
  <rdf:RDF xmlns:cc="http://creativecommons.org/ns#" xmlns:dc="http://purl.org/dc/elements/1.1/" xmlns:rdf="http://www.w3.org/1999/02/22-rdf-syntax-ns#">
   <cc:Work>
    <dc:type rdf:resource="http://purl.org/dc/dcmitype/StillImage"/>
    <dc:date>2020-11-06T17:52:36.890422</dc:date>
    <dc:format>image/svg+xml</dc:format>
    <dc:creator>
     <cc:Agent>
      <dc:title>Matplotlib v3.3.2, https://matplotlib.org/</dc:title>
     </cc:Agent>
    </dc:creator>
   </cc:Work>
  </rdf:RDF>
 </metadata>
 <defs>
  <style type="text/css">*{stroke-linecap:butt;stroke-linejoin:round;}</style>
 </defs>
 <g id="figure_1">
  <g id="patch_1">
   <path d="M 0 288 
L 720 288 
L 720 0 
L 0 0 
z
" style="fill:#ffffff;"/>
  </g>
  <g id="axes_1">
   <g id="line2d_1">
    <path clip-path="url(#p70df516f6c)" d="M 148.938494 222.064288 
L 140.835557 219.666485 
L 133.952015 217.860123 
L 128.107419 216.548586 
L 122.677183 215.543839 
L 117.305015 214.767406 
L 111.580604 214.183361 
L 106.214906 213.863845 
L 100.857888 213.765708 
L 96.240045 213.861266 
L 90.794211 214.190357 
L 85.196024 214.757029 
L 78.25634 215.702344 
L 66.451585 217.597603 
L 55.188724 219.595476 
L 50.871115 220.566726 
L 47.638795 221.600324 
L 45.862408 222.522112 
L 45.15481 223.148214 
L 44.836685 223.677333 
L 44.76886 224.242117 
L 44.878245 224.61202 
L 45.199849 225.079926 
L 46.010109 225.724722 
L 47.291635 226.3607 
L 49.152963 226.993619 
L 51.331652 227.531251 
L 54.787394 228.141879 
L 58.272573 228.566148 
L 62.703288 228.90378 
L 67.775726 229.057203 
L 72.68308 228.983516 
L 76.783778 228.753212 
L 81.562809 228.284734 
L 85.873391 227.675159 
L 91.570146 226.618375 
L 99.289493 224.901445 
L 106.336352 223.386564 
L 111.847254 222.440118 
L 116.935645 221.819504 
L 121.432729 221.483464 
L 126.440065 221.334497 
L 130.916652 221.38495 
L 136.005847 221.625475 
L 142.285003 222.141733 
L 148.952959 222.897633 
L 148.952959 222.897633 
" style="fill:none;stroke:#000000;stroke-linecap:square;stroke-opacity:0.7;stroke-width:1.2;"/>
   </g>
   <g id="line2d_2">
    <path clip-path="url(#p70df516f6c)" d="M 148.725117 182.922398 
L 141.623824 181.525939 
L 134.183685 180.257759 
L 126.954119 179.253948 
L 120.34585 178.560403 
L 113.235677 178.062531 
L 106.102491 177.806439 
L 98.991935 177.759288 
L 90.007927 177.932616 
L 80.231404 178.347765 
L 71.686155 178.902891 
L 63.816307 179.639864 
L 58.262982 180.364182 
L 53.404734 181.226862 
L 49.432853 182.217271 
L 46.952982 183.108355 
L 45.450513 183.918682 
L 44.963711 184.315152 
L 44.5339 184.97468 
L 44.51041 185.249179 
L 44.705898 185.69446 
L 45.180902 186.088243 
L 46.009927 186.465946 
L 47.22329 186.80226 
L 49.119689 187.119087 
L 51.754652 187.356686 
L 55.624804 187.478661 
L 61.016233 187.382015 
L 67.593682 186.983758 
L 74.741035 186.289937 
L 83.247123 185.201319 
L 97.332004 183.329071 
L 103.330472 182.816265 
L 109.686379 182.519051 
L 116.753376 182.417783 
L 125.420253 182.529119 
L 134.240392 182.842823 
L 145.208233 183.470759 
L 148.756614 183.735483 
L 148.756614 183.735483 
" style="fill:none;stroke:#000000;stroke-linecap:square;stroke-opacity:0.7;stroke-width:1.2;"/>
   </g>
   <g id="line2d_3">
    <path clip-path="url(#p70df516f6c)" d="M 149.196152 144.05753 
L 140.285694 142.500591 
L 129.41311 140.831899 
L 110.552922 138.227624 
L 94.260677 136.094403 
L 88.535104 135.518578 
L 82.331151 135.143903 
L 77.100269 135.086503 
L 72.536676 135.251783 
L 67.918554 135.640308 
L 63.525889 136.242169 
L 59.848825 136.953089 
L 56.145909 137.910245 
L 53.324129 138.855354 
L 51.382802 139.654998 
L 48.429711 141.243108 
L 47.221566 142.1281 
L 46.277536 143.050275 
L 45.670193 144.004622 
L 45.532558 144.525328 
L 45.575712 145.035493 
L 45.905814 145.582712 
L 46.445813 145.981583 
L 47.428946 146.371359 
L 48.191469 146.556842 
L 50.103485 146.832114 
L 54.127863 147.070072 
L 63.261187 147.229289 
L 77.964785 147.538492 
L 95.93216 148.000019 
L 103.316691 147.916814 
L 111.489683 147.570437 
L 122.843336 146.820404 
L 147.7162 145.07655 
L 149.20094 145.005321 
L 149.20094 145.005321 
" style="fill:none;stroke:#000000;stroke-linecap:square;stroke-opacity:0.7;stroke-width:1.2;"/>
   </g>
   <g id="line2d_4">
    <path clip-path="url(#p70df516f6c)" d="M 149.021797 104.453681 
L 135.044392 101.528038 
L 119.46119 98.233095 
L 107.96309 95.552226 
L 95.465817 92.629247 
L 90.191928 91.620296 
L 85.369378 90.948265 
L 80.926236 90.601553 
L 77.55291 90.532849 
L 73.199428 90.703922 
L 69.726296 91.056045 
L 65.502684 91.754629 
L 61.540091 92.705751 
L 58.409915 93.692378 
L 55.393209 94.884705 
L 53.184425 95.948588 
L 50.704233 97.405178 
L 48.896318 98.722105 
L 47.539397 99.943902 
L 46.281679 101.443868 
L 45.730899 102.414593 
L 45.470745 103.216583 
L 45.44883 103.976808 
L 45.609704 104.471286 
L 46.154317 105.092249 
L 46.893707 105.484391 
L 48.366736 105.841433 
L 50.04823 105.983629 
L 52.415165 105.983947 
L 56.912476 105.727578 
L 74.232265 104.466029 
L 80.642403 104.317234 
L 86.571211 104.436314 
L 93.389095 104.835325 
L 104.896689 105.561304 
L 112.177653 105.786679 
L 120.497306 105.826846 
L 132.10263 105.640694 
L 149.038829 105.290005 
L 149.038829 105.290005 
" style="fill:none;stroke:#000000;stroke-linecap:square;stroke-opacity:0.7;stroke-width:1.2;"/>
   </g>
   <g id="line2d_5">
    <path clip-path="url(#p70df516f6c)" d="M 148.700856 64.063333 
L 141.461737 62.446475 
L 134.382214 61.077945 
L 128.82432 60.192195 
L 122.760065 59.449503 
L 117.151959 58.991213 
L 111.084912 58.752671 
L 105.149552 58.774434 
L 98.98876 59.045431 
L 92.041118 59.602226 
L 52.194391 63.540251 
L 49.67374 64.003473 
L 48.101546 64.456713 
L 46.88955 65.067996 
L 46.627782 65.292556 
L 46.26593 65.976615 
L 46.336363 66.481021 
L 46.723833 67.073074 
L 47.535564 67.747219 
L 48.638123 68.371685 
L 50.970936 69.304826 
L 53.849358 70.12571 
L 57.269392 70.84537 
L 61.371258 71.471346 
L 65.624958 71.919355 
L 69.834182 72.198428 
L 75.557915 72.347368 
L 80.364883 72.277762 
L 86.09086 71.961352 
L 91.974079 71.368123 
L 97.774517 70.544941 
L 123.224761 66.543124 
L 129.77547 65.860992 
L 136.815463 65.345689 
L 143.640397 65.056076 
L 148.707564 64.973005 
L 148.707564 64.973005 
" style="fill:none;stroke:#000000;stroke-linecap:square;stroke-opacity:0.7;stroke-width:1.2;"/>
   </g>
   <g id="line2d_6">
    <path clip-path="url(#p70df516f6c)" d="M 280.730807 222.589088 
L 271.912343 220.307695 
L 262.729888 218.16962 
L 254.589046 216.506046 
L 246.591596 215.110249 
L 239.64152 214.110098 
L 232.516668 213.329322 
L 226.691718 212.927698 
L 221.618561 212.800544 
L 216.902107 212.897135 
L 212.325928 213.192567 
L 207.627099 213.687663 
L 201.670193 214.563751 
L 196.534374 215.527996 
L 191.806217 216.600418 
L 187.302205 217.83717 
L 184.472011 218.777358 
L 181.582955 219.968797 
L 179.382045 221.210043 
L 178.407701 221.996176 
L 177.659852 222.951589 
L 177.408511 223.783934 
L 177.472097 224.380839 
L 177.691006 224.873415 
L 178.105386 225.398015 
L 179.308795 226.296471 
L 181.330776 227.227006 
L 184.434745 228.196256 
L 188.634306 229.155063 
L 194.138247 230.128509 
L 200.530321 231.027965 
L 207.412545 231.771914 
L 213.36751 232.201308 
L 218.94366 232.364301 
L 223.264042 232.289108 
L 227.824484 231.995976 
L 232.672541 231.457477 
L 238.618965 230.558308 
L 248.072722 228.863781 
L 265.576135 225.716807 
L 274.874545 224.270746 
L 280.709915 223.499755 
L 280.709915 223.499755 
" style="fill:none;stroke:#000000;stroke-linecap:square;stroke-opacity:0.7;stroke-width:1.2;"/>
   </g>
   <g id="line2d_7">
    <path clip-path="url(#p70df516f6c)" d="M 280.21664 183.172904 
L 268.763568 180.735661 
L 253.275988 177.687097 
L 222.535757 171.879303 
L 217.171964 171.218706 
L 212.905685 170.918467 
L 208.898999 170.842455 
L 204.841443 170.976366 
L 200.422013 171.370385 
L 197.529085 171.776528 
L 192.864576 172.710659 
L 189.259762 173.717423 
L 186.327227 174.77441 
L 183.960193 175.833417 
L 182.15735 176.804473 
L 180.786896 177.669812 
L 178.630817 179.364181 
L 177.203311 180.894873 
L 176.744598 181.537603 
L 176.149256 182.676411 
L 175.8745 183.93498 
L 175.936718 184.566121 
L 176.28904 185.358848 
L 176.735669 185.858618 
L 177.176213 186.19484 
L 178.164975 186.709582 
L 179.66842 187.20586 
L 181.726199 187.641581 
L 185.106218 188.094488 
L 190.056864 188.512022 
L 198.619744 188.975684 
L 212.598738 189.470939 
L 222.793336 189.643775 
L 229.916814 189.550896 
L 236.596556 189.22821 
L 243.043447 188.714488 
L 251.700401 187.794205 
L 263.752719 186.24462 
L 280.246562 184.014539 
L 280.246562 184.014539 
" style="fill:none;stroke:#000000;stroke-linecap:square;stroke-opacity:0.7;stroke-width:1.2;"/>
   </g>
   <g id="line2d_8">
    <path clip-path="url(#p70df516f6c)" d="M 280.545061 143.539852 
L 270.968021 141.599316 
L 261.093334 139.815363 
L 251.707041 138.35063 
L 243.315469 137.245747 
L 235.674411 136.432252 
L 228.986988 135.919416 
L 223.496917 135.689144 
L 217.977285 135.66956 
L 212.995288 135.837768 
L 206.622612 136.281209 
L 200.090035 136.971518 
L 194.778474 137.71444 
L 189.481174 138.661847 
L 185.052074 139.690576 
L 181.798284 140.678402 
L 179.620708 141.537325 
L 177.632697 142.604101 
L 176.464851 143.545741 
L 175.910287 144.292591 
L 175.694372 145.056162 
L 175.733929 145.447208 
L 175.885619 145.833937 
L 176.643938 146.649852 
L 177.695661 147.253034 
L 179.324216 147.855358 
L 181.925608 148.490223 
L 185.892368 149.124959 
L 190.054351 149.576928 
L 196.103856 150.011985 
L 203.452258 150.296834 
L 210.542948 150.353827 
L 216.419747 150.229534 
L 222.957362 149.882219 
L 229.103601 149.34832 
L 238.006899 148.325612 
L 255.920185 146.222219 
L 265.305367 145.357168 
L 274.146568 144.750864 
L 280.579339 144.451827 
L 280.579339 144.451827 
" style="fill:none;stroke:#000000;stroke-linecap:square;stroke-opacity:0.7;stroke-width:1.2;"/>
   </g>
   <g id="line2d_9">
    <path clip-path="url(#p70df516f6c)" d="M 280.625954 104.643252 
L 271.600069 103.364961 
L 260.891818 102.065664 
L 232.787492 98.799123 
L 218.331327 96.961526 
L 212.528784 96.501065 
L 208.032807 96.358293 
L 203.04493 96.457453 
L 199.383618 96.719261 
L 194.718559 97.309524 
L 191.55332 97.895218 
L 188.061242 98.748624 
L 185.836202 99.431012 
L 182.60519 100.682679 
L 179.867186 102.131204 
L 178.386305 103.229087 
L 177.598105 104.068794 
L 177.200347 104.784348 
L 177.142831 105.469065 
L 177.352016 105.883048 
L 177.926492 106.299607 
L 178.720339 106.559904 
L 180.309377 106.764948 
L 183.169317 106.788157 
L 189.807109 106.457915 
L 197.725904 106.091713 
L 205.123986 105.985583 
L 211.017673 106.102845 
L 218.317674 106.48103 
L 232.898871 107.375304 
L 238.816898 107.490482 
L 245.851325 107.404358 
L 254.508913 107.060517 
L 268.451413 106.230171 
L 280.631859 105.535097 
L 280.631859 105.535097 
" style="fill:none;stroke:#000000;stroke-linecap:square;stroke-opacity:0.7;stroke-width:1.2;"/>
   </g>
   <g id="line2d_10">
    <path clip-path="url(#p70df516f6c)" d="M 280.777673 65.189117 
L 270.701678 63.864068 
L 256.243034 62.226486 
L 243.052873 60.677362 
L 233.588724 59.336558 
L 218.795998 57.182938 
L 213.231467 56.625981 
L 208.662035 56.367646 
L 204.564855 56.316121 
L 199.987565 56.484466 
L 195.413478 56.92296 
L 191.102528 57.630001 
L 188.039572 58.345933 
L 184.713416 59.384543 
L 182.629566 60.220808 
L 180.008805 61.583133 
L 178.771391 62.42676 
L 177.53153 63.5525 
L 176.901093 64.429426 
L 176.630223 65.212488 
L 176.674751 65.836229 
L 177.01385 66.405568 
L 177.210594 66.588309 
L 178.139517 67.102895 
L 179.523353 67.494001 
L 182.151838 67.85207 
L 187.055743 68.130014 
L 201.77105 68.793316 
L 209.543265 69.394342 
L 226.415026 70.80923 
L 231.999445 70.966978 
L 238.100167 70.860803 
L 244.602378 70.484298 
L 252.449345 69.775443 
L 262.425408 68.617664 
L 280.789697 66.186886 
L 280.789697 66.186886 
" style="fill:none;stroke:#000000;stroke-linecap:square;stroke-opacity:0.7;stroke-width:1.2;"/>
   </g>
   <g id="line2d_11">
    <path clip-path="url(#p70df516f6c)" d="M 412.211956 222.815019 
L 398.22793 219.715077 
L 379.941383 215.664172 
L 369.312444 213.060072 
L 358.553558 210.424895 
L 352.576748 209.214295 
L 348.016311 208.544314 
L 343.577547 208.166089 
L 340.122559 208.079683 
L 336.302337 208.206527 
L 333.164273 208.491122 
L 329.7431 208.995882 
L 326.359098 209.711722 
L 322.847736 210.71629 
L 319.958884 211.787063 
L 316.911182 213.234003 
L 314.991803 214.378325 
L 313.252724 215.647612 
L 311.763861 217.014264 
L 310.358548 218.78072 
L 309.70541 220.028392 
L 309.368785 221.195655 
L 309.351291 222.300571 
L 309.528306 222.945098 
L 309.963339 223.641968 
L 310.805454 224.306194 
L 311.870389 224.744355 
L 313.35065 225.061777 
L 315.050633 225.235908 
L 318.202855 225.330799 
L 324.840801 225.249758 
L 334.205231 225.177012 
L 341.37502 225.336617 
L 348.705235 225.719822 
L 362.236184 226.535072 
L 367.845639 226.649129 
L 375.232052 226.536107 
L 383.529671 226.133941 
L 394.452755 225.319419 
L 412.231548 223.740273 
L 412.231548 223.740273 
" style="fill:none;stroke:#000000;stroke-linecap:square;stroke-opacity:0.7;stroke-width:1.2;"/>
   </g>
   <g id="line2d_12">
    <path clip-path="url(#p70df516f6c)" d="M 412.062841 183.373681 
L 403.067318 182.338419 
L 391.271152 181.208471 
L 369.153752 179.174478 
L 346.548857 176.824509 
L 340.750801 176.531408 
L 336.115083 176.49156 
L 331.202443 176.678335 
L 327.148378 177.04328 
L 323.297494 177.604543 
L 320.225784 178.238019 
L 316.858034 179.180414 
L 314.157369 180.198352 
L 312.002438 181.27489 
L 310.716894 182.11317 
L 309.69183 183.006479 
L 309.179868 183.66071 
L 308.9261 184.281732 
L 308.934908 184.689846 
L 309.241582 185.148797 
L 309.833863 185.44761 
L 310.693144 185.617293 
L 312.567903 185.655429 
L 315.832677 185.370543 
L 322.497879 184.458913 
L 332.639665 183.110974 
L 339.162667 182.481355 
L 345.02544 182.170115 
L 349.962494 182.141042 
L 354.468832 182.302756 
L 363.213943 182.92037 
L 372.795627 183.571071 
L 381.872414 183.956213 
L 392.552337 184.157252 
L 412.094797 184.271408 
L 412.094797 184.271408 
" style="fill:none;stroke:#000000;stroke-linecap:square;stroke-opacity:0.7;stroke-width:1.2;"/>
   </g>
   <g id="line2d_13">
    <path clip-path="url(#p70df516f6c)" d="M 412.257768 143.935785 
L 403.697314 142.799564 
L 391.250756 141.374715 
L 363.619278 138.292956 
L 353.804458 137.259052 
L 347.574088 136.810488 
L 341.736326 136.618854 
L 336.569355 136.664882 
L 332.184816 136.880835 
L 327.711707 137.294135 
L 324.144039 137.793675 
L 320.967029 138.401697 
L 317.432842 139.32794 
L 314.847084 140.256797 
L 312.667143 141.324245 
L 311.514696 142.084749 
L 310.575912 142.927465 
L 310.115217 143.53215 
L 309.781286 144.586422 
L 309.944251 145.21784 
L 310.442009 145.79232 
L 311.228145 146.264759 
L 312.447469 146.70903 
L 314.40129 147.158228 
L 317.982989 147.68383 
L 325.444452 148.437089 
L 345.075864 150.118139 
L 352.436729 150.576476 
L 358.088275 150.726394 
L 363.562622 150.642499 
L 368.488569 150.375711 
L 375.063181 149.796897 
L 383.310276 148.837391 
L 396.451845 147.054858 
L 412.250664 144.896398 
L 412.250664 144.896398 
" style="fill:none;stroke:#000000;stroke-linecap:square;stroke-opacity:0.7;stroke-width:1.2;"/>
   </g>
   <g id="line2d_14">
    <path clip-path="url(#p70df516f6c)" d="M 412.278666 104.707954 
L 403.188581 103.563833 
L 391.200106 102.295447 
L 374.003952 100.510388 
L 364.441032 99.252956 
L 348.163233 97.004729 
L 342.542927 96.507308 
L 337.807185 96.315779 
L 333.873765 96.348957 
L 330.448543 96.540147 
L 325.695413 97.093035 
L 321.795298 97.842156 
L 318.885956 98.614531 
L 316.675132 99.353468 
L 313.778807 100.58544 
L 312.545947 101.235489 
L 310.444048 102.639313 
L 309.208358 103.863232 
L 308.869671 104.393021 
L 308.669355 105.104544 
L 308.776787 105.565639 
L 309.031547 105.870759 
L 309.699667 106.210494 
L 310.462597 106.373166 
L 311.731719 106.450926 
L 313.599143 106.376531 
L 318.26314 105.861104 
L 328.939459 104.556722 
L 334.470305 104.127324 
L 339.129299 103.971546 
L 343.59274 104.02529 
L 348.678379 104.329854 
L 353.500119 104.805772 
L 364.480631 105.970747 
L 370.199181 106.365213 
L 377.47867 106.606716 
L 384.84583 106.607634 
L 393.642103 106.379928 
L 412.285117 105.601083 
L 412.285117 105.601083 
" style="fill:none;stroke:#000000;stroke-linecap:square;stroke-opacity:0.7;stroke-width:1.2;"/>
   </g>
   <g id="line2d_15">
    <path clip-path="url(#p70df516f6c)" d="M 412.114741 65.131957 
L 401.72263 63.822157 
L 371.910271 60.271164 
L 362.589275 58.770102 
L 350.520569 56.820972 
L 344.914578 56.140707 
L 340.205604 55.771937 
L 335.234774 55.635699 
L 331.923365 55.714207 
L 328.147479 55.995854 
L 324.193878 56.548657 
L 320.948309 57.241889 
L 318.486337 57.945505 
L 315.812334 58.929357 
L 313.382406 60.086904 
L 312.66711 60.491206 
L 310.510311 61.971397 
L 309.290833 63.103512 
L 308.601562 63.978692 
L 308.185558 64.836585 
L 308.137827 65.542746 
L 308.402676 66.009888 
L 308.892689 66.302642 
L 309.698517 66.47934 
L 310.657545 66.51827 
L 312.418187 66.400697 
L 315.763338 65.940023 
L 327.817683 64.078087 
L 333.043598 63.500696 
L 338.12672 63.172186 
L 342.05937 63.117865 
L 346.500384 63.307397 
L 350.153229 63.677932 
L 354.723336 64.37831 
L 366.619855 66.400755 
L 371.997533 66.99662 
L 377.842737 67.364527 
L 384.018723 67.481838 
L 390.432956 67.367012 
L 398.668171 66.961922 
L 412.153248 66.027014 
L 412.153248 66.027014 
" style="fill:none;stroke:#000000;stroke-linecap:square;stroke-opacity:0.7;stroke-width:1.2;"/>
   </g>
   <g id="line2d_16">
    <path clip-path="url(#p70df516f6c)" d="M 543.735359 222.475472 
L 534.517798 220.203546 
L 525.541609 218.220527 
L 519.016982 216.946846 
L 511.164141 215.625375 
L 503.905035 214.634714 
L 497.474133 213.974374 
L 491.488631 213.583229 
L 486.542367 213.456147 
L 481.426285 213.538495 
L 476.985801 213.795071 
L 471.843095 214.298681 
L 466.632505 215.009703 
L 460.481209 216.069811 
L 455.155462 217.166699 
L 449.701288 218.515725 
L 446.115736 219.647193 
L 444.178634 220.435646 
L 442.63669 221.245492 
L 441.337842 222.193236 
L 440.631154 222.970524 
L 440.203104 223.827423 
L 440.151678 224.625036 
L 440.307263 225.104199 
L 440.650982 225.600919 
L 441.273003 226.125758 
L 442.370159 226.69643 
L 443.632743 227.130136 
L 445.882746 227.64449 
L 449.553989 228.161398 
L 454.212153 228.551444 
L 461.340582 228.855396 
L 468.543529 228.924757 
L 476.413992 228.759856 
L 482.759824 228.432458 
L 490.778828 227.767332 
L 502.791685 226.460838 
L 515.168187 225.160038 
L 525.742649 224.267377 
L 535.748056 223.658061 
L 543.748569 223.3632 
L 543.748569 223.3632 
" style="fill:none;stroke:#000000;stroke-linecap:square;stroke-opacity:0.7;stroke-width:1.2;"/>
   </g>
   <g id="line2d_17">
    <path clip-path="url(#p70df516f6c)" d="M 543.703083 183.014076 
L 535.003474 181.681493 
L 525.141476 180.409799 
L 515.142332 179.368105 
L 503.61566 178.407595 
L 490.397867 177.519827 
L 482.380464 177.1606 
L 476.311819 177.068049 
L 470.539942 177.174444 
L 464.394611 177.529089 
L 459.270771 178.040637 
L 454.593928 178.711364 
L 450.276197 179.552277 
L 447.086072 180.365839 
L 444.33791 181.274882 
L 442.630195 182.010489 
L 440.996974 182.989719 
L 440.300757 183.650351 
L 440.029634 184.092064 
L 439.935679 184.57987 
L 440.028081 184.935994 
L 440.478622 185.454993 
L 441.513507 185.986994 
L 442.901996 186.377652 
L 446.209287 186.863898 
L 450.722181 187.176325 
L 457.453001 187.386115 
L 469.43439 187.509657 
L 482.350755 187.446636 
L 490.392709 187.209562 
L 498.514052 186.74593 
L 517.364488 185.317627 
L 529.459065 184.533177 
L 539.922806 184.064321 
L 543.716896 183.964746 
L 543.716896 183.964746 
" style="fill:none;stroke:#000000;stroke-linecap:square;stroke-opacity:0.7;stroke-width:1.2;"/>
   </g>
   <g id="line2d_18">
    <path clip-path="url(#p70df516f6c)" d="M 543.809392 143.308856 
L 535.601508 141.570933 
L 529.456103 140.470319 
L 523.919709 139.671737 
L 519.157462 139.154922 
L 513.142866 138.746507 
L 507.568052 138.614409 
L 501.730297 138.712567 
L 494.888877 139.079461 
L 482.576702 140.063056 
L 471.971315 140.786543 
L 453.515038 141.953597 
L 448.461336 142.488372 
L 444.270422 143.16601 
L 442.514357 143.596954 
L 440.909425 144.213742 
L 440.258282 144.675867 
L 439.985065 145.118551 
L 440.006129 145.592687 
L 440.308312 146.072384 
L 440.838671 146.535566 
L 441.766944 147.092097 
L 443.510145 147.837603 
L 446.006061 148.615522 
L 449.77268 149.468108 
L 453.282812 150.048902 
L 457.992087 150.599214 
L 463.250928 150.965653 
L 468.893121 151.106149 
L 473.865781 151.027193 
L 479.893477 150.683127 
L 485.472206 150.130491 
L 492.52048 149.167549 
L 511.626672 146.334229 
L 519.240325 145.480274 
L 527.473744 144.798095 
L 535.124129 144.395897 
L 542.512399 144.230878 
L 543.811269 144.228081 
L 543.811269 144.228081 
" style="fill:none;stroke:#000000;stroke-linecap:square;stroke-opacity:0.7;stroke-width:1.2;"/>
   </g>
   <g id="line2d_19">
    <path clip-path="url(#p70df516f6c)" d="M 543.927964 104.679614 
L 534.883635 103.785936 
L 521.432822 102.708429 
L 508.798398 101.679218 
L 500.349688 100.754336 
L 491.835255 99.567813 
L 478.88064 97.727554 
L 474.57201 97.299478 
L 470.503023 97.050433 
L 465.564584 96.994395 
L 461.335266 97.196368 
L 457.495584 97.611277 
L 453.66144 98.282623 
L 450.6234 99.031504 
L 447.948185 99.885458 
L 445.578997 100.836184 
L 443.220977 102.044072 
L 441.525828 103.210788 
L 440.71454 104.022585 
L 440.395499 104.652563 
L 440.469778 105.050328 
L 440.803948 105.298798 
L 441.375327 105.437417 
L 442.6839 105.458516 
L 445.192564 105.19141 
L 459.663349 103.167586 
L 464.412241 102.787521 
L 468.891731 102.629896 
L 472.410661 102.660908 
L 475.868971 102.833735 
L 481.12654 103.360881 
L 487.52708 104.308083 
L 495.490538 105.483247 
L 500.707805 106.042607 
L 506.376527 106.428376 
L 512.937208 106.624349 
L 521.126058 106.575557 
L 530.557322 106.246376 
L 543.954691 105.627502 
L 543.954691 105.627502 
" style="fill:none;stroke:#000000;stroke-linecap:square;stroke-opacity:0.7;stroke-width:1.2;"/>
   </g>
   <g id="line2d_20">
    <path clip-path="url(#p70df516f6c)" d="M 543.51592 64.902872 
L 532.9931 63.35837 
L 481.465809 56.406021 
L 475.964495 56.029181 
L 471.433853 55.919911 
L 466.859739 56.016154 
L 462.167048 56.352714 
L 457.689012 56.933293 
L 454.80787 57.470391 
L 452.10945 58.121565 
L 449.683923 58.865763 
L 447.754267 59.601534 
L 445.08745 60.926913 
L 443.783275 61.77709 
L 442.597998 62.750788 
L 441.567831 63.909791 
L 440.977603 65.011707 
L 440.855202 65.560725 
L 440.962732 66.298827 
L 441.164611 66.612606 
L 441.337203 66.778613 
L 441.918632 67.100994 
L 442.983985 67.339796 
L 444.74519 67.395023 
L 448.013738 67.142178 
L 466.714116 65.174603 
L 472.082428 64.932365 
L 477.403358 64.90256 
L 482.200576 65.056873 
L 490.699549 65.611722 
L 500.574957 66.216558 
L 507.948022 66.440627 
L 515.968114 66.472484 
L 525.764419 66.29238 
L 543.559736 65.754805 
L 543.559736 65.754805 
" style="fill:none;stroke:#000000;stroke-linecap:square;stroke-opacity:0.7;stroke-width:1.2;"/>
   </g>
   <g id="line2d_21">
    <path clip-path="url(#p70df516f6c)" d="M 675.190985 222.705978 
L 665.117023 221.513926 
L 654.243755 220.448351 
L 636.492863 219.006695 
L 622.481767 217.768208 
L 610.291565 216.72196 
L 603.731274 216.394968 
L 599.034556 216.335267 
L 593.781107 216.481994 
L 589.480379 216.80243 
L 585.889238 217.238361 
L 582.519183 217.821904 
L 578.830051 218.721784 
L 576.179193 219.619683 
L 574.45495 220.39044 
L 573.012546 221.24228 
L 571.900525 222.191566 
L 571.302618 223.099176 
L 571.175343 223.652628 
L 571.230441 224.124779 
L 571.429282 224.543134 
L 571.931539 225.067635 
L 572.939661 225.644536 
L 574.564698 226.18557 
L 576.935856 226.66969 
L 580.471197 227.132316 
L 587.272834 227.715393 
L 598.649372 228.406464 
L 608.573861 228.83294 
L 616.76595 228.966193 
L 622.612284 228.858075 
L 629.119854 228.504863 
L 636.041439 227.910418 
L 647.780478 226.628474 
L 673.822136 223.690197 
L 675.182494 223.564512 
L 675.182494 223.564512 
" style="fill:none;stroke:#000000;stroke-linecap:square;stroke-opacity:0.7;stroke-width:1.2;"/>
   </g>
   <g id="line2d_22">
    <path clip-path="url(#p70df516f6c)" d="M 675.340891 182.849117 
L 666.247367 181.207289 
L 658.099641 179.942927 
L 650.7923 179.015184 
L 643.077648 178.272773 
L 635.965253 177.812319 
L 628.143658 177.553471 
L 620.713407 177.542725 
L 612.309284 177.775386 
L 601.91637 178.303952 
L 592.853144 178.955178 
L 585.811784 179.698486 
L 581.463472 180.360077 
L 578.586542 180.943472 
L 576.33169 181.529636 
L 573.901283 182.382468 
L 572.302953 183.229843 
L 571.584749 183.915382 
L 571.436538 184.311478 
L 571.475279 184.595962 
L 571.789682 185.001162 
L 572.384193 185.353724 
L 573.392678 185.704301 
L 575.30318 186.095936 
L 578.328706 186.433945 
L 582.608609 186.642245 
L 587.638919 186.657125 
L 593.645308 186.448513 
L 600.635119 185.953152 
L 608.121048 185.157859 
L 616.928852 183.959908 
L 627.000361 182.605793 
L 632.553153 182.065745 
L 638.432673 181.720294 
L 644.507991 181.602856 
L 651.060733 181.716651 
L 658.406543 182.088256 
L 667.186738 182.791261 
L 675.39958 183.646691 
L 675.39958 183.646691 
" style="fill:none;stroke:#000000;stroke-linecap:square;stroke-opacity:0.7;stroke-width:1.2;"/>
   </g>
   <g id="line2d_23">
    <path clip-path="url(#p70df516f6c)" d="M 675.30613 143.119461 
L 666.827892 140.843145 
L 659.992748 139.201312 
L 653.502982 137.855917 
L 647.261786 136.791759 
L 641.027412 135.974288 
L 635.288924 135.447442 
L 629.109361 135.122997 
L 623.75399 135.038571 
L 617.14093 135.157841 
L 609.105795 135.548337 
L 600.612113 136.160102 
L 592.454995 136.964944 
L 586.823278 137.722343 
L 581.579881 138.687744 
L 578.470573 139.461779 
L 575.476075 140.456452 
L 573.517613 141.336972 
L 572.001401 142.255436 
L 570.651234 143.477431 
L 570.168677 144.19326 
L 570.023677 144.511343 
L 569.855762 145.605685 
L 570.046267 146.327767 
L 570.462587 146.987912 
L 570.928606 147.462206 
L 572.722526 148.573805 
L 575.59645 149.585981 
L 578.469959 150.234025 
L 582.412398 150.821948 
L 586.437721 151.192455 
L 590.878984 151.404462 
L 595.834167 151.441334 
L 600.657517 151.298364 
L 606.368483 150.918474 
L 611.870669 150.352706 
L 619.250047 149.344005 
L 638.7319 146.485674 
L 647.703884 145.502578 
L 656.573958 144.783447 
L 665.168665 144.321092 
L 673.22151 144.102833 
L 675.300513 144.085792 
L 675.300513 144.085792 
" style="fill:none;stroke:#000000;stroke-linecap:square;stroke-opacity:0.7;stroke-width:1.2;"/>
   </g>
   <g id="line2d_24">
    <path clip-path="url(#p70df516f6c)" d="M 675.45244 103.855404 
L 667.097574 101.449239 
L 659.779195 99.575365 
L 653.629492 98.217011 
L 648.086144 97.191057 
L 642.467464 96.361637 
L 636.696676 95.742962 
L 631.268084 95.386435 
L 625.239713 95.259272 
L 620.375509 95.370611 
L 615.642666 95.659141 
L 609.086786 96.308844 
L 601.02449 97.3593 
L 587.574914 99.361346 
L 581.250074 100.482764 
L 577.605207 101.320835 
L 574.887321 102.168407 
L 573.344708 102.825733 
L 572.295282 103.42262 
L 571.258343 104.303626 
L 570.859044 104.908271 
L 570.697104 105.605474 
L 570.755936 106.022539 
L 571.034516 106.585402 
L 571.693604 107.245508 
L 572.237612 107.608542 
L 574.149266 108.450324 
L 575.984674 108.977471 
L 579.584418 109.662252 
L 584.275083 110.194362 
L 589.396733 110.502255 
L 594.536852 110.60428 
L 600.422928 110.504746 
L 605.638008 110.233968 
L 611.50508 109.726488 
L 617.722592 108.967134 
L 628.112016 107.388237 
L 636.826989 106.144866 
L 643.81608 105.380298 
L 650.878452 104.853064 
L 656.855024 104.59562 
L 663.878556 104.498649 
L 671.98374 104.634113 
L 675.490909 104.76922 
L 675.490909 104.76922 
" style="fill:none;stroke:#000000;stroke-linecap:square;stroke-opacity:0.7;stroke-width:1.2;"/>
   </g>
   <g id="line2d_25">
    <path clip-path="url(#p70df516f6c)" d="M 675.333222 64.707262 
L 666.726679 63.477766 
L 657.647201 62.423546 
L 649.638009 61.704331 
L 640.436802 61.087229 
L 623.2149 60.219182 
L 610.222722 59.697693 
L 602.978633 59.617243 
L 596.295859 59.789284 
L 590.537802 60.18216 
L 585.607962 60.743763 
L 581.409918 61.433835 
L 577.689322 62.27233 
L 574.696997 63.189229 
L 572.841493 63.952205 
L 571.119154 64.974458 
L 570.473619 65.61267 
L 570.225571 66.090491 
L 570.206064 66.529166 
L 570.367707 66.879795 
L 570.7129 67.213836 
L 571.754134 67.714688 
L 573.334881 68.101125 
L 575.02929 68.337173 
L 579.038995 68.596918 
L 585.081325 68.652985 
L 593.192471 68.460962 
L 604.356061 67.961836 
L 646.269248 65.831486 
L 658.929509 65.560894 
L 670.341695 65.53749 
L 675.391259 65.607536 
L 675.391259 65.607536 
" style="fill:none;stroke:#000000;stroke-linecap:square;stroke-opacity:0.7;stroke-width:1.2;"/>
   </g>
  </g>
 </g>
 <defs>
  <clipPath id="p70df516f6c">
   <rect height="262.08" width="694.08" x="12.96" y="12.96"/>
  </clipPath>
 </defs>
</svg>
