<?xml version="1.0" encoding="utf-8" standalone="no"?>
<!DOCTYPE svg PUBLIC "-//W3C//DTD SVG 1.1//EN"
  "http://www.w3.org/Graphics/SVG/1.1/DTD/svg11.dtd">
<!-- Created with matplotlib (https://matplotlib.org/) -->
<svg height="288pt" version="1.1" viewBox="0 0 720 288" width="720pt" xmlns="http://www.w3.org/2000/svg" xmlns:xlink="http://www.w3.org/1999/xlink">
 <metadata>
  <rdf:RDF xmlns:cc="http://creativecommons.org/ns#" xmlns:dc="http://purl.org/dc/elements/1.1/" xmlns:rdf="http://www.w3.org/1999/02/22-rdf-syntax-ns#">
   <cc:Work>
    <dc:type rdf:resource="http://purl.org/dc/dcmitype/StillImage"/>
    <dc:date>2020-11-06T17:59:40.153575</dc:date>
    <dc:format>image/svg+xml</dc:format>
    <dc:creator>
     <cc:Agent>
      <dc:title>Matplotlib v3.3.2, https://matplotlib.org/</dc:title>
     </cc:Agent>
    </dc:creator>
   </cc:Work>
  </rdf:RDF>
 </metadata>
 <defs>
  <style type="text/css">*{stroke-linecap:butt;stroke-linejoin:round;}</style>
 </defs>
 <g id="figure_1">
  <g id="patch_1">
   <path d="M 0 288 
L 720 288 
L 720 0 
L 0 0 
z
" style="fill:#ffffff;"/>
  </g>
  <g id="axes_1">
   <g id="line2d_1">
    <path clip-path="url(#p45c9107137)" d="M 149.526648 225.43675 
L 140.533897 224.234402 
L 131.150449 223.211789 
L 123.072125 222.535703 
L 114.401945 222.020743 
L 101.502908 221.519296 
L 86.97055 220.894851 
L 75.342934 220.412908 
L 70.214915 220.394289 
L 65.251654 220.58678 
L 61.463447 220.916573 
L 58.17653 221.362707 
L 54.313327 222.124523 
L 52.124715 222.699896 
L 49.360672 223.630098 
L 47.478556 224.462208 
L 46.196839 225.226253 
L 45.630588 225.748913 
L 45.485131 226.183101 
L 45.656684 226.435618 
L 46.039395 226.628749 
L 47.171913 226.855891 
L 48.584094 226.95381 
L 52.197171 226.909938 
L 57.028909 226.552469 
L 62.704957 225.877719 
L 69.445085 224.824691 
L 78.063484 223.221797 
L 87.096239 221.559882 
L 91.622893 220.929338 
L 95.72916 220.560764 
L 98.785536 220.420814 
L 104.086138 220.419441 
L 109.303861 220.651158 
L 115.915292 221.170562 
L 125.067448 222.139926 
L 143.668196 224.421053 
L 149.495192 225.12318 
L 149.495192 225.12318 
" style="fill:none;stroke:#000000;stroke-linecap:square;stroke-opacity:0.7;stroke-width:1.2;"/>
   </g>
   <g id="line2d_2">
    <path clip-path="url(#p45c9107137)" d="M 149.580529 186.124177 
L 138.274829 183.032551 
L 127.151185 180.201728 
L 117.83938 178.050697 
L 109.754375 176.425038 
L 102.914679 175.289755 
L 97.047198 174.538159 
L 91.205417 174.034608 
L 85.679191 173.813123 
L 81.047941 173.833123 
L 76.244764 174.062255 
L 71.862583 174.468237 
L 67.043646 175.157407 
L 62.610233 176.06107 
L 59.211875 176.976645 
L 56.008727 178.07231 
L 53.27042 179.245953 
L 50.432196 180.780746 
L 48.020898 182.466865 
L 46.391239 183.969998 
L 45.742959 184.754282 
L 45.187188 185.728849 
L 45.047698 186.40604 
L 45.140529 186.831705 
L 45.507461 187.26317 
L 46.210861 187.596284 
L 47.270584 187.813153 
L 49.014329 187.927666 
L 52.34579 187.857277 
L 58.434166 187.411793 
L 70.888472 186.184939 
L 81.917274 185.180128 
L 88.04362 184.807451 
L 93.966683 184.650156 
L 99.822478 184.688115 
L 109.443066 185.003332 
L 130.41065 185.775447 
L 141.555829 185.927747 
L 149.561683 185.865438 
L 149.561683 185.865438 
" style="fill:none;stroke:#000000;stroke-linecap:square;stroke-opacity:0.7;stroke-width:1.2;"/>
   </g>
   <g id="line2d_3">
    <path clip-path="url(#p45c9107137)" d="M 149.368591 146.120507 
L 140.525831 143.914169 
L 132.517207 142.165722 
L 126.246272 141.025018 
L 120.354991 140.186179 
L 114.665671 139.625984 
L 109.22706 139.33954 
L 104.129998 139.294212 
L 97.880209 139.510051 
L 91.001711 140.013109 
L 60.453829 142.807978 
L 55.662323 143.47207 
L 51.729954 144.266163 
L 48.853626 145.130991 
L 47.17583 145.895367 
L 46.309134 146.558326 
L 46.048643 147.065885 
L 46.16007 147.518332 
L 46.593405 147.935244 
L 47.108627 148.226514 
L 48.776434 148.812025 
L 50.854674 149.264371 
L 53.170752 149.598242 
L 56.871121 149.903784 
L 60.867048 150.008911 
L 65.056047 149.921424 
L 70.519832 149.55003 
L 76.056274 148.916059 
L 82.135812 147.97574 
L 101.103373 144.782835 
L 105.961384 144.291899 
L 112.082014 143.943552 
L 118.689566 143.864015 
L 125.814767 144.056823 
L 133.768501 144.526729 
L 145.30006 145.482023 
L 149.343565 145.840579 
L 149.343565 145.840579 
" style="fill:none;stroke:#000000;stroke-linecap:square;stroke-opacity:0.7;stroke-width:1.2;"/>
   </g>
   <g id="line2d_4">
    <path clip-path="url(#p45c9107137)" d="M 149.647033 106.65604 
L 142.693332 104.200093 
L 136.930101 102.343629 
L 131.51258 100.796577 
L 126.399623 99.555985 
L 121.089425 98.530545 
L 117.057358 97.946603 
L 112.157004 97.470983 
L 107.388473 97.253199 
L 102.78975 97.262511 
L 98.055276 97.477849 
L 91.93416 98.011962 
L 83.282892 99.068901 
L 66.417575 101.423852 
L 59.026682 102.662562 
L 53.898617 103.771883 
L 50.568541 104.717159 
L 48.120015 105.627872 
L 46.664256 106.335554 
L 45.291159 107.276768 
L 44.742431 107.900833 
L 44.522916 108.446435 
L 44.561228 108.940891 
L 44.885901 109.467018 
L 45.751419 110.115168 
L 47.381864 110.824005 
L 49.487417 111.44127 
L 52.646738 112.100243 
L 56.501924 112.658012 
L 61.446801 113.096597 
L 66.204268 113.274121 
L 71.745892 113.203456 
L 76.489474 112.914192 
L 81.613145 112.372878 
L 87.098408 111.553108 
L 94.557853 110.159701 
L 103.357139 108.498045 
L 109.6061 107.552888 
L 114.218323 107.021831 
L 121.389402 106.460439 
L 127.733402 106.193652 
L 135.431094 106.096778 
L 145.859432 106.221775 
L 149.668762 106.301068 
L 149.668762 106.301068 
" style="fill:none;stroke:#000000;stroke-linecap:square;stroke-opacity:0.7;stroke-width:1.2;"/>
   </g>
   <g id="line2d_5">
    <path clip-path="url(#p45c9107137)" d="M 149.637588 67.458608 
L 143.090429 65.23708 
L 135.199306 62.792669 
L 129.136399 61.130086 
L 123.520138 59.79944 
L 118.607795 58.8264 
L 113.669411 58.04331 
L 108.704622 57.461657 
L 103.24163 57.064569 
L 98.213165 56.925179 
L 92.488421 57.025974 
L 86.456917 57.4112 
L 80.524071 58.030371 
L 74.417548 58.872972 
L 67.052338 60.146205 
L 62.272839 61.155383 
L 57.936575 62.259143 
L 53.985472 63.516832 
L 51.242016 64.628071 
L 49.082379 65.749228 
L 47.856921 66.57265 
L 46.961287 67.384195 
L 46.448038 68.166292 
L 46.353164 68.613824 
L 46.47878 69.124565 
L 46.640965 69.3609 
L 47.293678 69.88486 
L 48.594582 70.4633 
L 50.535682 71.012648 
L 53.375867 71.567152 
L 57.416351 72.112763 
L 62.56262 72.556498 
L 67.420976 72.777573 
L 73.281806 72.816825 
L 78.840554 72.632574 
L 84.841599 72.196941 
L 91.911275 71.401138 
L 115.039065 68.444176 
L 122.669964 67.857016 
L 130.489808 67.481284 
L 139.633566 67.265798 
L 149.640928 67.180804 
L 149.640928 67.180804 
" style="fill:none;stroke:#000000;stroke-linecap:square;stroke-opacity:0.7;stroke-width:1.2;"/>
   </g>
   <g id="line2d_6">
    <path clip-path="url(#p45c9107137)" d="M 280.979688 225.323513 
L 271.150689 222.584638 
L 263.282863 220.599093 
L 256.696576 219.158773 
L 250.83071 218.104008 
L 245.285014 217.341259 
L 240.238868 216.862678 
L 234.625816 216.576387 
L 229.071562 216.535359 
L 222.991397 216.720995 
L 213.710383 217.283803 
L 202.350448 218.200287 
L 195.7349 218.936484 
L 190.757339 219.719563 
L 187.593794 220.396836 
L 184.280746 221.3501 
L 181.537443 222.447623 
L 180.047228 223.243678 
L 178.475958 224.385484 
L 177.567779 225.412886 
L 177.222188 226.117835 
L 177.126267 226.865065 
L 177.310226 227.538658 
L 177.766862 228.189226 
L 178.352199 228.709214 
L 179.795617 229.571168 
L 182.656963 230.704053 
L 185.791636 231.607368 
L 189.944411 232.529809 
L 195.231608 233.402962 
L 199.730343 233.930451 
L 204.526658 234.291147 
L 209.162182 234.442369 
L 213.909912 234.389165 
L 218.474198 234.131788 
L 223.139126 233.660088 
L 228.818894 232.834588 
L 237.294572 231.299688 
L 249.548975 229.076433 
L 257.846163 227.78034 
L 267.097357 226.556479 
L 278.538006 225.289463 
L 280.96897 225.042929 
L 280.96897 225.042929 
" style="fill:none;stroke:#000000;stroke-linecap:square;stroke-opacity:0.7;stroke-width:1.2;"/>
   </g>
   <g id="line2d_7">
    <path clip-path="url(#p45c9107137)" d="M 280.904541 185.514883 
L 272.790907 183.340704 
L 266.043135 181.728268 
L 259.920461 180.489322 
L 254.381622 179.603584 
L 249.494812 179.038075 
L 245.065022 178.714447 
L 240.048502 178.569201 
L 235.583294 178.630623 
L 229.825139 178.944176 
L 222.901244 179.570597 
L 201.857832 181.631514 
L 192.416488 182.620578 
L 186.432592 183.487517 
L 182.276825 184.317723 
L 179.589505 185.041407 
L 177.460581 185.852611 
L 176.492522 186.48346 
L 176.268867 186.891077 
L 176.365499 187.209087 
L 176.73237 187.52715 
L 177.354715 187.831665 
L 178.61775 188.237046 
L 181.006542 188.744812 
L 184.49931 189.218933 
L 188.419255 189.519556 
L 192.760028 189.632369 
L 197.446817 189.526655 
L 201.947055 189.216946 
L 206.973024 188.638786 
L 211.708213 187.879888 
L 217.375447 186.733025 
L 232.72426 183.376889 
L 237.582515 182.689154 
L 242.378147 182.286288 
L 247.272703 182.13466 
L 252.169629 182.206145 
L 258.309863 182.549178 
L 265.752841 183.243158 
L 275.159673 184.376212 
L 280.888002 185.118917 
L 280.888002 185.118917 
" style="fill:none;stroke:#000000;stroke-linecap:square;stroke-opacity:0.7;stroke-width:1.2;"/>
   </g>
   <g id="line2d_8">
    <path clip-path="url(#p45c9107137)" d="M 281.083062 146.734586 
L 270.147541 144.445103 
L 259.29258 142.397852 
L 251.29493 141.088141 
L 243.252901 139.999492 
L 236.327994 139.27335 
L 229.1369 138.733518 
L 221.023789 138.375442 
L 213.031507 138.265995 
L 206.201428 138.384406 
L 200.545557 138.689241 
L 195.741831 139.165909 
L 192.571984 139.634282 
L 189.024158 140.356185 
L 185.867841 141.233764 
L 182.801305 142.384859 
L 180.655041 143.44861 
L 178.65918 144.765811 
L 177.598355 145.740061 
L 176.991052 146.576194 
L 176.781278 147.123347 
L 176.757832 147.588872 
L 176.973196 148.118655 
L 177.398119 148.528726 
L 177.765639 148.752498 
L 179.227968 149.286216 
L 181.884333 149.796856 
L 186.260752 150.265082 
L 191.644035 150.605913 
L 199.354199 150.867044 
L 207.885311 150.9299 
L 216.166652 150.775648 
L 224.000189 150.431653 
L 235.48546 149.677006 
L 278.49975 146.677499 
L 281.102128 146.508032 
L 281.102128 146.508032 
" style="fill:none;stroke:#000000;stroke-linecap:square;stroke-opacity:0.7;stroke-width:1.2;"/>
   </g>
   <g id="line2d_9">
    <path clip-path="url(#p45c9107137)" d="M 280.903971 107.010706 
L 271.71359 104.264046 
L 263.517257 102.02458 
L 255.885762 100.175478 
L 249.28491 98.816205 
L 242.902058 97.757705 
L 237.391008 97.071756 
L 232.657061 96.665294 
L 226.739172 96.408618 
L 222.057491 96.407622 
L 216.756587 96.614042 
L 210.877355 97.074406 
L 204.711352 97.783649 
L 198.408752 98.740922 
L 192.884867 99.82477 
L 188.688765 100.88251 
L 185.329178 101.96101 
L 182.833151 102.967629 
L 180.871062 103.947356 
L 179.620369 104.705324 
L 178.143188 105.840408 
L 177.388101 106.642495 
L 176.882094 107.511301 
L 176.785857 108.249164 
L 176.921698 108.669209 
L 177.338639 109.167433 
L 178.186831 109.679379 
L 179.686042 110.187985 
L 182.050439 110.664489 
L 185.502732 111.091528 
L 190.022062 111.432227 
L 195.951777 111.665855 
L 201.855868 111.720736 
L 209.476941 111.555324 
L 216.86872 111.137326 
L 223.884556 110.512638 
L 249.008455 107.968789 
L 257.973918 107.427146 
L 268.527855 107.034741 
L 280.903858 106.756357 
L 280.903858 106.756357 
" style="fill:none;stroke:#000000;stroke-linecap:square;stroke-opacity:0.7;stroke-width:1.2;"/>
   </g>
   <g id="line2d_10">
    <path clip-path="url(#p45c9107137)" d="M 281.038206 68.171601 
L 266.574849 64.812886 
L 245.355579 60.11761 
L 231.244588 57.185624 
L 223.530805 55.763542 
L 216.862531 54.731775 
L 212.007541 54.143283 
L 206.313499 53.683509 
L 202.516071 53.554363 
L 198.203335 53.638534 
L 194.492834 53.980404 
L 191.394678 54.536874 
L 188.519927 55.363848 
L 186.938797 55.986265 
L 184.893925 57.012807 
L 182.875962 58.319856 
L 180.561589 60.253913 
L 178.823687 62.085509 
L 177.685448 63.532965 
L 176.464556 65.54328 
L 176.076349 66.587493 
L 176.01133 67.449149 
L 176.089042 67.750697 
L 176.379965 68.196513 
L 176.748146 68.479751 
L 177.822773 68.893668 
L 179.102916 69.135551 
L 181.902849 69.391845 
L 188.503677 69.631491 
L 212.68324 70.260144 
L 223.635956 70.824126 
L 234.802005 71.382968 
L 241.185246 71.508792 
L 248.382912 71.412027 
L 254.568717 71.120059 
L 262.10563 70.513711 
L 269.097361 69.72576 
L 276.664666 68.663231 
L 281.075435 67.959639 
L 281.075435 67.959639 
" style="fill:none;stroke:#000000;stroke-linecap:square;stroke-opacity:0.7;stroke-width:1.2;"/>
   </g>
   <g id="line2d_11">
    <path clip-path="url(#p45c9107137)" d="M 412.479206 225.620509 
L 401.11134 222.647766 
L 389.395852 219.805753 
L 379.065931 217.530995 
L 370.250842 215.826984 
L 363.240729 214.689046 
L 357.481907 213.949373 
L 352.457847 213.484547 
L 347.691732 213.223102 
L 342.344208 213.157531 
L 337.586099 213.318314 
L 332.718556 213.724335 
L 328.281343 214.354085 
L 325.052583 215.013816 
L 321.837492 215.896747 
L 318.923111 216.961587 
L 316.587547 218.064937 
L 315.029552 218.96774 
L 312.610745 220.74879 
L 311.630839 221.664786 
L 310.358221 223.161839 
L 309.574277 224.504272 
L 309.276288 225.496756 
L 309.295026 226.199729 
L 309.51936 226.713401 
L 309.804893 227.024069 
L 310.760429 227.528089 
L 312.296605 227.866637 
L 314.661368 228.065854 
L 318.48171 228.124664 
L 325.744164 227.961135 
L 356.654311 226.990221 
L 384.488498 226.660912 
L 397.02291 226.196393 
L 412.484514 225.393354 
L 412.484514 225.393354 
" style="fill:none;stroke:#000000;stroke-linecap:square;stroke-opacity:0.7;stroke-width:1.2;"/>
   </g>
   <g id="line2d_12">
    <path clip-path="url(#p45c9107137)" d="M 412.268652 186.030191 
L 402.789889 184.535275 
L 392.629727 183.145702 
L 383.962574 182.170111 
L 376.047435 181.479513 
L 367.536867 180.956203 
L 357.801457 180.588274 
L 343.492557 180.305247 
L 334.922467 180.313673 
L 329.603523 180.497191 
L 324.908162 180.867524 
L 321.747966 181.279906 
L 319.595352 181.661628 
L 316.005379 182.540727 
L 313.411803 183.439855 
L 311.723545 184.213373 
L 310.222078 185.138403 
L 309.315016 186.005741 
L 309.013759 186.671012 
L 309.079043 187.145483 
L 309.342336 187.512183 
L 310.020455 187.973227 
L 310.563466 188.212604 
L 312.872914 188.856645 
L 316.354862 189.436306 
L 320.888271 189.930988 
L 327.671715 190.395462 
L 334.215938 190.631507 
L 341.518668 190.685694 
L 349.400186 190.497097 
L 356.741218 190.086762 
L 366.014596 189.319287 
L 387.676264 187.444833 
L 403.21329 186.395837 
L 412.252978 185.857103 
L 412.252978 185.857103 
" style="fill:none;stroke:#000000;stroke-linecap:square;stroke-opacity:0.7;stroke-width:1.2;"/>
   </g>
   <g id="line2d_13">
    <path clip-path="url(#p45c9107137)" d="M 412.479538 146.597179 
L 403.111827 145.404885 
L 392.810066 144.295972 
L 382.277519 143.381804 
L 370.38054 142.585192 
L 354.781573 141.77581 
L 343.85606 141.394062 
L 336.819765 141.349624 
L 331.253288 141.520582 
L 326.971797 141.832975 
L 322.74913 142.347912 
L 318.431007 143.155155 
L 315.637193 143.879432 
L 312.498489 144.973118 
L 310.609882 145.889321 
L 309.711893 146.523814 
L 309.367596 147.035282 
L 309.462988 147.307882 
L 309.74782 147.477296 
L 310.676157 147.659364 
L 312.744665 147.696637 
L 315.948924 147.491522 
L 321.356664 146.869042 
L 327.850612 145.875484 
L 337.379175 144.156435 
L 345.858428 142.64868 
L 350.589499 141.999609 
L 354.755607 141.638672 
L 359.538986 141.497521 
L 363.90033 141.589967 
L 368.873937 141.881202 
L 376.958979 142.607419 
L 391.642849 144.228418 
L 407.885598 145.946851 
L 412.447537 146.375933 
L 412.447537 146.375933 
" style="fill:none;stroke:#000000;stroke-linecap:square;stroke-opacity:0.7;stroke-width:1.2;"/>
   </g>
   <g id="line2d_14">
    <path clip-path="url(#p45c9107137)" d="M 412.3691 107.200837 
L 401.276542 103.841685 
L 390.831909 100.893237 
L 382.482019 98.742159 
L 374.975439 97.022219 
L 367.554504 95.573609 
L 360.981736 94.549192 
L 356.216812 93.991956 
L 350.629601 93.573196 
L 345.696876 93.438323 
L 340.647997 93.545239 
L 336.330989 93.845856 
L 332.586541 94.277894 
L 327.992557 95.061352 
L 324.683001 95.838798 
L 321.569148 96.781481 
L 318.491701 97.980127 
L 316.510914 98.939007 
L 314.15647 100.341874 
L 312.062532 101.936969 
L 310.551082 103.422133 
L 309.299212 105.092329 
L 308.628726 106.527916 
L 308.453459 107.57968 
L 308.568732 108.297429 
L 308.972745 108.979795 
L 309.353639 109.32423 
L 309.949524 109.680405 
L 311.495123 110.208154 
L 314.007027 110.63996 
L 318.020076 110.976834 
L 324.105447 111.195515 
L 332.616098 111.244731 
L 341.166202 111.105827 
L 351.450499 110.731365 
L 364.950265 109.976059 
L 412.345767 107.017526 
L 412.345767 107.017526 
" style="fill:none;stroke:#000000;stroke-linecap:square;stroke-opacity:0.7;stroke-width:1.2;"/>
   </g>
   <g id="line2d_15">
    <path clip-path="url(#p45c9107137)" d="M 412.524544 67.769094 
L 402.945239 64.91122 
L 393.776976 62.37373 
L 385.39185 60.247275 
L 377.318553 58.410519 
L 370.142717 56.984423 
L 363.304061 55.848019 
L 357.224686 55.07014 
L 351.662219 54.597765 
L 346.425528 54.396878 
L 341.436728 54.446531 
L 336.985873 54.704109 
L 332.346143 55.209798 
L 328.604882 55.822506 
L 325.417368 56.519398 
L 321.632959 57.609852 
L 318.646556 58.730867 
L 317.032609 59.458911 
L 314.746369 60.676291 
L 312.569826 62.098143 
L 310.793905 63.53011 
L 309.319184 65.029892 
L 308.33635 66.388859 
L 307.879823 67.472142 
L 307.856113 68.183935 
L 308.151474 68.732173 
L 308.766339 69.125783 
L 309.586125 69.362741 
L 311.084007 69.538268 
L 313.800251 69.568431 
L 318.375273 69.338805 
L 324.686304 68.807115 
L 338.12341 67.392837 
L 348.126555 66.430316 
L 353.165895 66.117783 
L 357.879386 65.985539 
L 363.954079 66.03057 
L 372.345197 66.337999 
L 395.686166 67.316144 
L 406.294172 67.510186 
L 412.521805 67.524683 
L 412.521805 67.524683 
" style="fill:none;stroke:#000000;stroke-linecap:square;stroke-opacity:0.7;stroke-width:1.2;"/>
   </g>
   <g id="line2d_16">
    <path clip-path="url(#p45c9107137)" d="M 543.834781 225.065304 
L 535.273578 222.352615 
L 528.136889 220.326679 
L 523.578397 219.192185 
L 518.546165 218.122084 
L 513.443367 217.262192 
L 508.889012 216.703724 
L 504.418346 216.355019 
L 499.348778 216.199422 
L 494.10472 216.296041 
L 489.101023 216.604695 
L 482.182583 217.277803 
L 459.764315 219.869124 
L 454.28503 220.65628 
L 450.129687 221.428441 
L 446.66134 222.294079 
L 444.318038 223.084836 
L 442.285724 224.028232 
L 441.553723 224.477694 
L 440.201555 225.720377 
L 439.879147 226.329562 
L 439.788352 226.943829 
L 440.003438 227.647337 
L 440.421441 228.176329 
L 441.396976 228.891975 
L 443.022357 229.646902 
L 444.870951 230.26251 
L 447.742043 230.984006 
L 452.110233 231.781603 
L 457.013695 232.391067 
L 462.069184 232.763856 
L 466.87102 232.896984 
L 471.879775 232.812149 
L 476.542039 232.52923 
L 481.246417 232.048904 
L 486.717588 231.267346 
L 494.037201 229.965555 
L 505.443957 227.919359 
L 512.040621 226.957589 
L 519.27126 226.139704 
L 526.982351 225.518323 
L 535.310443 225.081509 
L 543.84437 224.800953 
L 543.84437 224.800953 
" style="fill:none;stroke:#000000;stroke-linecap:square;stroke-opacity:0.7;stroke-width:1.2;"/>
   </g>
   <g id="line2d_17">
    <path clip-path="url(#p45c9107137)" d="M 544.050593 186.444579 
L 533.983646 184.020616 
L 522.158478 181.387932 
L 511.990119 179.328635 
L 502.529073 177.631805 
L 494.14003 176.356092 
L 486.984545 175.488018 
L 480.482549 174.918795 
L 474.008732 174.597817 
L 468.884459 174.544413 
L 463.888119 174.696519 
L 459.569217 175.033963 
L 455.703627 175.555197 
L 452.279391 176.260307 
L 450.177609 176.849584 
L 448.154525 177.567567 
L 445.596864 178.759861 
L 443.827881 179.840638 
L 442.105334 181.190527 
L 440.935504 182.374657 
L 439.982712 183.668365 
L 439.552571 184.521536 
L 439.290083 185.611144 
L 439.291524 185.943873 
L 439.50323 186.741956 
L 439.795759 187.205217 
L 440.442241 187.826411 
L 442.060391 188.738049 
L 443.609992 189.326078 
L 447.085258 190.280178 
L 450.902416 191.05529 
L 455.687588 191.804089 
L 462.141267 192.541774 
L 468.283004 193.007789 
L 475.26942 193.28667 
L 482.343004 193.317385 
L 489.366792 193.130337 
L 496.879558 192.731151 
L 505.146599 192.074862 
L 513.216945 191.219953 
L 521.793822 190.085987 
L 530.954502 188.632017 
L 541.195544 186.753134 
L 544.059699 186.192501 
L 544.059699 186.192501 
" style="fill:none;stroke:#000000;stroke-linecap:square;stroke-opacity:0.7;stroke-width:1.2;"/>
   </g>
   <g id="line2d_18">
    <path clip-path="url(#p45c9107137)" d="M 543.993083 146.509808 
L 534.753334 144.527887 
L 527.708687 143.213258 
L 520.513698 142.111481 
L 514.25437 141.397971 
L 508.842345 140.98669 
L 502.696639 140.753548 
L 496.774441 140.741469 
L 488.028833 140.985589 
L 470.349628 141.551829 
L 460.613806 141.930535 
L 455.851066 142.292286 
L 451.151278 142.869056 
L 447.922329 143.460124 
L 444.67562 144.310698 
L 443.080697 144.881385 
L 441.362115 145.71296 
L 440.543312 146.280646 
L 439.982949 146.871796 
L 439.732956 147.471018 
L 439.757003 147.861903 
L 440.024098 148.363227 
L 440.448792 148.769745 
L 441.532133 149.418826 
L 443.194455 150.092439 
L 445.396171 150.759403 
L 449.179943 151.62307 
L 453.612436 152.366493 
L 458.01072 152.898236 
L 463.486755 153.320756 
L 468.730322 153.49714 
L 473.602701 153.467645 
L 479.501857 153.186055 
L 485.006106 152.691955 
L 491.309309 151.903653 
L 515.784733 148.554867 
L 525.830922 147.541646 
L 537.122557 146.659254 
L 543.990049 146.220985 
L 543.990049 146.220985 
" style="fill:none;stroke:#000000;stroke-linecap:square;stroke-opacity:0.7;stroke-width:1.2;"/>
   </g>
   <g id="line2d_19">
    <path clip-path="url(#p45c9107137)" d="M 543.624979 106.407107 
L 536.490652 103.482391 
L 530.122077 101.116096 
L 525.062462 99.453841 
L 520.542941 98.167704 
L 516.896314 97.284673 
L 511.92987 96.324259 
L 507.416215 95.707504 
L 503.5063 95.377129 
L 499.049234 95.234377 
L 494.654591 95.334824 
L 490.230851 95.663798 
L 485.214635 96.269979 
L 478.263282 97.366308 
L 457.964144 100.924103 
L 452.622405 102.050261 
L 448.61706 103.115892 
L 445.709923 104.12961 
L 443.80296 104.999687 
L 441.993114 106.133398 
L 441.001726 107.092755 
L 440.598473 107.805625 
L 440.510721 108.381249 
L 440.644191 108.898195 
L 441.048694 109.452571 
L 442.017216 110.154126 
L 443.440532 110.799179 
L 445.777602 111.51845 
L 448.288043 112.066337 
L 451.586041 112.576781 
L 455.225091 112.943048 
L 460.073842 113.177138 
L 464.523258 113.170677 
L 469.695436 112.919576 
L 474.933782 112.414167 
L 479.732619 111.746809 
L 485.667512 110.700146 
L 502.114597 107.58728 
L 508.165227 106.777895 
L 514.207095 106.230478 
L 520.543838 105.912465 
L 527.655997 105.812141 
L 535.830945 105.931013 
L 543.659431 106.154733 
L 543.659431 106.154733 
" style="fill:none;stroke:#000000;stroke-linecap:square;stroke-opacity:0.7;stroke-width:1.2;"/>
   </g>
   <g id="line2d_20">
    <path clip-path="url(#p45c9107137)" d="M 543.884387 67.53925 
L 535.753411 65.657545 
L 528.55725 64.190757 
L 521.690855 63.018926 
L 515.105352 62.150441 
L 509.185404 61.607275 
L 503.74349 61.309099 
L 497.013505 61.186259 
L 489.734373 61.298286 
L 474.880321 61.856678 
L 461.943679 62.448913 
L 456.137699 62.922354 
L 452.363562 63.391861 
L 448.914812 63.997869 
L 445.804151 64.76575 
L 443.644993 65.494315 
L 441.629373 66.437559 
L 440.539573 67.181874 
L 439.899838 67.878856 
L 439.666681 68.519763 
L 439.745993 68.990516 
L 439.947889 69.323051 
L 440.653204 69.921479 
L 442.359643 70.718253 
L 443.665475 71.141117 
L 445.918137 71.705857 
L 449.477454 72.359757 
L 454.388023 72.970025 
L 459.071546 73.32736 
L 464.311324 73.515451 
L 470.091436 73.491378 
L 476.299412 73.213231 
L 482.083157 72.737946 
L 490.185911 71.810459 
L 504.592623 70.064431 
L 514.412822 69.114596 
L 526.008528 68.23921 
L 540.154403 67.417994 
L 543.915135 67.229882 
L 543.915135 67.229882 
" style="fill:none;stroke:#000000;stroke-linecap:square;stroke-opacity:0.7;stroke-width:1.2;"/>
   </g>
   <g id="line2d_21">
    <path clip-path="url(#p45c9107137)" d="M 675.414315 225.210978 
L 667.197582 222.552942 
L 659.77461 220.375584 
L 653.60211 218.79094 
L 647.82976 217.547827 
L 642.740193 216.675959 
L 638.262614 216.098952 
L 633.485352 215.688319 
L 629.089217 215.49934 
L 624.306829 215.49394 
L 619.162663 215.701375 
L 613.063007 216.178797 
L 605.193404 217.035936 
L 595.41063 218.337189 
L 588.556952 219.447581 
L 583.526941 220.466944 
L 579.868621 221.408616 
L 576.756681 222.448345 
L 574.799747 223.306987 
L 573.052585 224.362517 
L 572.138368 225.223671 
L 571.760056 225.891956 
L 571.695861 226.502727 
L 571.919444 227.085937 
L 572.558944 227.748294 
L 573.523055 228.341398 
L 575.485588 229.143838 
L 578.262215 229.933732 
L 581.345973 230.58435 
L 585.361276 231.210511 
L 590.534256 231.74254 
L 595.069944 231.991766 
L 600.316907 232.044933 
L 604.925262 231.889984 
L 610.120394 231.496334 
L 615.105357 230.917141 
L 621.800289 229.901038 
L 637.710511 227.349534 
L 644.751811 226.499657 
L 652.021721 225.852586 
L 660.350829 225.360645 
L 670.720886 225.004622 
L 675.395989 224.888378 
L 675.395989 224.888378 
" style="fill:none;stroke:#000000;stroke-linecap:square;stroke-opacity:0.7;stroke-width:1.2;"/>
   </g>
   <g id="line2d_22">
    <path clip-path="url(#p45c9107137)" d="M 675.374335 186.387785 
L 665.540686 183.85116 
L 654.99961 181.355613 
L 643.996125 178.984317 
L 634.541817 177.142941 
L 626.426246 175.739419 
L 618.980586 174.65814 
L 613.212525 174.010225 
L 607.674394 173.589867 
L 602.339343 173.415802 
L 597.507476 173.50245 
L 594.354469 173.716838 
L 590.496789 174.197877 
L 586.733459 174.971599 
L 583.717643 175.88149 
L 580.897209 177.037581 
L 579.003197 178.018527 
L 576.506969 179.617239 
L 574.094336 181.574694 
L 572.496245 183.193572 
L 571.602919 184.321164 
L 570.981903 185.494615 
L 570.913492 185.955563 
L 570.980157 186.248014 
L 571.433743 186.68334 
L 572.119283 186.908667 
L 573.966063 187.088325 
L 577.173812 187.055169 
L 582.795311 186.757661 
L 601.939595 185.622903 
L 608.659599 185.478277 
L 614.824919 185.592561 
L 621.451878 185.971271 
L 638.078609 187.069152 
L 645.594157 187.297476 
L 653.142615 187.302783 
L 661.55533 187.053986 
L 669.681161 186.589683 
L 675.378735 186.155722 
L 675.378735 186.155722 
" style="fill:none;stroke:#000000;stroke-linecap:square;stroke-opacity:0.7;stroke-width:1.2;"/>
   </g>
   <g id="line2d_23">
    <path clip-path="url(#p45c9107137)" d="M 675.295216 146.837239 
L 664.507598 145.992195 
L 653.989405 145.391546 
L 641.410788 144.927776 
L 629.541975 144.463807 
L 622.472703 143.945591 
L 616.57446 143.288907 
L 606.987345 141.930149 
L 601.232374 141.214021 
L 597.252027 140.893569 
L 593.30162 140.778357 
L 589.841447 140.876721 
L 586.871482 141.129661 
L 583.110722 141.701389 
L 579.539503 142.546103 
L 577.692473 143.123322 
L 575.076633 144.164215 
L 573.451029 145.02181 
L 572.463795 145.716635 
L 571.857368 146.35886 
L 571.656154 146.891777 
L 571.78978 147.323199 
L 572.076958 147.599017 
L 572.728442 147.935184 
L 574.353484 148.387506 
L 577.604391 148.88534 
L 582.003092 149.298475 
L 588.537987 149.69289 
L 598.132797 150.02103 
L 607.865889 150.131328 
L 617.614987 150.00382 
L 626.599427 149.650023 
L 640.205804 148.850413 
L 675.298124 146.66276 
L 675.298124 146.66276 
" style="fill:none;stroke:#000000;stroke-linecap:square;stroke-opacity:0.7;stroke-width:1.2;"/>
   </g>
   <g id="line2d_24">
    <path clip-path="url(#p45c9107137)" d="M 675.481314 107.859726 
L 663.286752 106.951024 
L 648.448654 106.088706 
L 637.216878 105.401431 
L 630.951301 104.822411 
L 624.881412 104.022105 
L 618.669895 102.937899 
L 600.53171 99.497145 
L 596.490912 99.114514 
L 592.412139 99.033768 
L 588.951136 99.256706 
L 585.743331 99.739012 
L 582.448315 100.546232 
L 580.076999 101.347168 
L 577.44235 102.487609 
L 575.843082 103.334331 
L 573.398252 104.946858 
L 572.390512 105.799433 
L 571.506026 106.78348 
L 571.158026 107.416809 
L 571.110757 108.016517 
L 571.264693 108.299809 
L 571.569353 108.543731 
L 572.337579 108.83111 
L 573.364123 109.014364 
L 576.568444 109.226515 
L 583.825672 109.314269 
L 603.783463 109.472915 
L 614.571211 109.810121 
L 630.289708 110.372858 
L 637.33767 110.40031 
L 644.942002 110.212594 
L 652.728133 109.798445 
L 661.053587 109.137455 
L 671.727112 108.036166 
L 675.487719 107.602374 
L 675.487719 107.602374 
" style="fill:none;stroke:#000000;stroke-linecap:square;stroke-opacity:0.7;stroke-width:1.2;"/>
   </g>
   <g id="line2d_25">
    <path clip-path="url(#p45c9107137)" d="M 675.490909 67.90278 
L 666.378488 66.473424 
L 656.763798 65.179369 
L 648.280161 64.261304 
L 639.739052 63.574839 
L 629.59061 63.029997 
L 606.169427 62.140137 
L 599.274784 62.030266 
L 592.985638 62.176504 
L 588.260889 62.521025 
L 583.713989 63.109484 
L 580.384942 63.748458 
L 576.856721 64.691846 
L 574.217833 65.678332 
L 572.686667 66.464053 
L 571.73474 67.148025 
L 571.205866 67.764816 
L 571.05751 68.333329 
L 571.118739 68.57207 
L 571.36515 68.907584 
L 571.958081 69.295133 
L 573.300339 69.75303 
L 575.935072 70.222179 
L 580.372202 70.625671 
L 586.543842 70.88409 
L 594.811936 70.956248 
L 604.243309 70.785277 
L 614.940578 70.334747 
L 653.564569 68.373822 
L 675.485801 67.709142 
L 675.485801 67.709142 
" style="fill:none;stroke:#000000;stroke-linecap:square;stroke-opacity:0.7;stroke-width:1.2;"/>
   </g>
  </g>
 </g>
 <defs>
  <clipPath id="p45c9107137">
   <rect height="262.08" width="694.08" x="12.96" y="12.96"/>
  </clipPath>
 </defs>
</svg>
