<?xml version="1.0" encoding="utf-8" standalone="no"?>
<!DOCTYPE svg PUBLIC "-//W3C//DTD SVG 1.1//EN"
  "http://www.w3.org/Graphics/SVG/1.1/DTD/svg11.dtd">
<!-- Created with matplotlib (https://matplotlib.org/) -->
<svg height="288pt" version="1.1" viewBox="0 0 720 288" width="720pt" xmlns="http://www.w3.org/2000/svg" xmlns:xlink="http://www.w3.org/1999/xlink">
 <metadata>
  <rdf:RDF xmlns:cc="http://creativecommons.org/ns#" xmlns:dc="http://purl.org/dc/elements/1.1/" xmlns:rdf="http://www.w3.org/1999/02/22-rdf-syntax-ns#">
   <cc:Work>
    <dc:type rdf:resource="http://purl.org/dc/dcmitype/StillImage"/>
    <dc:date>2020-11-06T17:39:32.019825</dc:date>
    <dc:format>image/svg+xml</dc:format>
    <dc:creator>
     <cc:Agent>
      <dc:title>Matplotlib v3.3.2, https://matplotlib.org/</dc:title>
     </cc:Agent>
    </dc:creator>
   </cc:Work>
  </rdf:RDF>
 </metadata>
 <defs>
  <style type="text/css">*{stroke-linecap:butt;stroke-linejoin:round;}</style>
 </defs>
 <g id="figure_1">
  <g id="patch_1">
   <path d="M 0 288 
L 720 288 
L 720 0 
L 0 0 
z
" style="fill:#ffffff;"/>
  </g>
  <g id="axes_1">
   <g id="line2d_1">
    <path clip-path="url(#p4631beb61c)" d="M 150.063675 224.480397 
L 146.968024 223.854789 
L 141.63125 223.064341 
L 130.478575 221.786242 
L 124.51359 221.011194 
L 118.818858 220.023772 
L 112.853272 218.680829 
L 106.26925 216.913478 
L 91.402551 212.747751 
L 86.606159 211.737996 
L 82.627746 211.182626 
L 79.360829 210.960529 
L 76.023245 210.970124 
L 72.266341 211.270821 
L 69.040671 211.767153 
L 65.445811 212.568274 
L 61.448748 213.760316 
L 58.566862 214.828095 
L 55.393828 216.247154 
L 52.845624 217.646511 
L 51.306272 218.676173 
L 49.613684 220.144756 
L 48.728076 221.333908 
L 48.524361 221.786859 
L 48.3803 222.511375 
L 48.438243 223.032351 
L 48.852696 223.826501 
L 49.523218 224.440355 
L 50.192923 224.84824 
L 52.511734 225.727449 
L 56.237002 226.526654 
L 60.794823 227.161114 
L 101.587156 231.833609 
L 106.840876 232.13806 
L 111.81277 232.196204 
L 117.024631 231.995097 
L 121.859657 231.563319 
L 126.432804 230.936914 
L 130.653627 230.171027 
L 135.843576 228.987043 
L 141.096025 227.537507 
L 148.662893 225.146231 
L 150.007571 224.720963 
L 150.007571 224.720963 
" style="fill:none;stroke:#000000;stroke-linecap:square;stroke-opacity:0.7;stroke-width:1.2;"/>
   </g>
   <g id="line2d_2">
    <path clip-path="url(#p4631beb61c)" d="M 150.712929 184.744401 
L 147.193959 183.828433 
L 141.198243 182.496081 
L 133.348773 181.025731 
L 125.809187 179.847914 
L 118.311534 178.880344 
L 110.566748 178.09178 
L 103.510696 177.590667 
L 97.480166 177.381499 
L 92.755506 177.408525 
L 87.949085 177.654219 
L 83.384387 178.115227 
L 78.021092 178.915881 
L 56.123535 182.819599 
L 54.012118 183.316006 
L 51.18275 184.300751 
L 50.417752 184.703706 
L 49.360597 185.565599 
L 49.073303 186.06079 
L 49.041338 186.657266 
L 49.506485 187.329739 
L 49.969377 187.633966 
L 51.012053 188.03013 
L 53.278039 188.372301 
L 54.578198 188.408866 
L 57.616767 188.238695 
L 62.240237 187.576305 
L 68.360914 186.389799 
L 75.015752 185.165848 
L 79.808839 184.525576 
L 84.60191 184.154055 
L 89.288531 184.043962 
L 94.8154 184.171523 
L 102.442612 184.608439 
L 131.250419 186.426937 
L 138.164716 186.666569 
L 144.298689 186.691639 
L 150.532701 186.463536 
L 150.732381 186.451208 
L 150.732381 186.451208 
" style="fill:none;stroke:#000000;stroke-linecap:square;stroke-opacity:0.7;stroke-width:1.2;"/>
   </g>
   <g id="line2d_3">
    <path clip-path="url(#p4631beb61c)" d="M 149.632183 144.795144 
L 132.512125 141.544596 
L 119.920596 139.088461 
L 109.274162 136.763274 
L 94.218848 133.416698 
L 88.406483 132.420949 
L 85.48188 132.055534 
L 80.589157 131.704026 
L 76.333658 131.697703 
L 72.165006 131.980998 
L 68.567231 132.460774 
L 65.429701 133.056678 
L 61.315974 134.085687 
L 57.862707 135.168972 
L 54.47601 136.452236 
L 51.391921 137.901102 
L 49.495709 139.052726 
L 48.778508 139.597947 
L 47.48468 141.01539 
L 47.115496 141.869653 
L 47.047904 142.561027 
L 47.306502 143.527 
L 47.670108 144.113948 
L 48.230009 144.732597 
L 49.529092 145.718777 
L 50.703494 146.371259 
L 53.0369 147.334373 
L 56.277509 148.238734 
L 59.111555 148.755088 
L 62.312823 149.114156 
L 66.997149 149.34479 
L 74.689667 149.393279 
L 82.796629 149.484514 
L 93.774966 149.885486 
L 100.64406 150.04907 
L 105.325458 149.945078 
L 110.617044 149.578678 
L 118.799086 148.710511 
L 131.048605 147.389992 
L 140.042454 146.670044 
L 148.234505 146.244936 
L 149.725088 146.189363 
L 149.725088 146.189363 
" style="fill:none;stroke:#000000;stroke-linecap:square;stroke-opacity:0.7;stroke-width:1.2;"/>
   </g>
   <g id="line2d_4">
    <path clip-path="url(#p4631beb61c)" d="M 150.560165 106.714642 
L 146.337546 106.439123 
L 135.275185 105.721709 
L 127.187932 104.94141 
L 120.151075 104.02826 
L 110.419836 102.516051 
L 100.966549 101.06409 
L 93.080227 100.079395 
L 86.565221 99.533407 
L 81.401549 99.338835 
L 76.736313 99.39079 
L 72.859189 99.62447 
L 68.47712 100.114697 
L 64.393547 100.790775 
L 59.870464 101.774112 
L 56.529254 102.648433 
L 51.843921 104.100276 
L 48.49849 105.382321 
L 46.369054 106.447994 
L 44.999365 107.488917 
L 44.612523 108.047056 
L 44.509091 108.599641 
L 44.613665 108.966674 
L 45.619153 109.893179 
L 46.482529 110.299852 
L 49.05233 111.032533 
L 50.728083 111.328009 
L 54.300604 111.69621 
L 58.174187 111.821915 
L 62.920934 111.718414 
L 80.771547 110.948621 
L 86.557576 111.065412 
L 91.803456 111.373368 
L 98.783129 112.018206 
L 110.925783 113.264087 
L 116.948324 113.59994 
L 121.18535 113.63246 
L 126.70697 113.400484 
L 131.75333 112.925971 
L 136.850612 112.218166 
L 142.910537 111.133805 
L 150.592435 109.520663 
L 150.592435 109.520663 
" style="fill:none;stroke:#000000;stroke-linecap:square;stroke-opacity:0.7;stroke-width:1.2;"/>
   </g>
   <g id="line2d_5">
    <path clip-path="url(#p4631beb61c)" d="M 149.147216 66.883404 
L 141.14187 64.673892 
L 132.089182 62.428266 
L 124.347344 60.727568 
L 114.920112 58.902023 
L 105.963985 57.391363 
L 99.058666 56.415547 
L 93.214697 55.789504 
L 88.563731 55.483982 
L 84.119073 55.404758 
L 79.700565 55.573905 
L 75.252925 56.016466 
L 71.734929 56.556652 
L 67.420036 57.421594 
L 61.396856 58.921183 
L 56.246741 60.436868 
L 51.943675 61.966719 
L 49.511541 63.074682 
L 47.853223 64.095066 
L 47.15903 64.6938 
L 46.554838 65.535496 
L 46.410512 66.083452 
L 46.480518 66.632701 
L 46.976527 67.391503 
L 47.659302 67.927165 
L 48.954945 68.56728 
L 50.063679 68.943591 
L 51.786203 69.358865 
L 55.163665 69.812028 
L 58.749062 69.954438 
L 62.574504 69.840476 
L 67.17525 69.45538 
L 84.68087 67.645512 
L 89.238859 67.472249 
L 94.847285 67.474 
L 102.762097 67.733614 
L 113.160728 68.058661 
L 123.08137 68.087864 
L 146.563075 68.036169 
L 149.256387 68.098308 
L 149.256387 68.098308 
" style="fill:none;stroke:#000000;stroke-linecap:square;stroke-opacity:0.7;stroke-width:1.2;"/>
   </g>
   <g id="line2d_6">
    <path clip-path="url(#p4631beb61c)" d="M 280.57213 224.411776 
L 276.614196 223.139469 
L 270.926374 221.561577 
L 262.613329 219.514716 
L 254.96024 217.85395 
L 248.562241 216.670245 
L 242.671347 215.793961 
L 237.269344 215.214829 
L 232.820127 214.938242 
L 228.346272 214.885103 
L 224.569729 215.045777 
L 221.558941 215.318699 
L 216.385421 216.065782 
L 206.732222 217.905935 
L 200.542902 218.933285 
L 189.067789 220.736688 
L 185.357263 221.568379 
L 182.279539 222.555914 
L 180.914815 223.269413 
L 180.500079 223.73066 
L 180.498125 223.985262 
L 180.655866 224.173402 
L 181.368107 224.453904 
L 182.52331 224.609982 
L 184.645515 224.648315 
L 188.038493 224.472201 
L 198.540982 223.515783 
L 205.17463 223.028789 
L 211.323764 222.81617 
L 216.534076 222.85194 
L 222.958177 223.150202 
L 246.157089 224.614258 
L 254.988091 224.7656 
L 275.207599 224.953696 
L 280.324671 225.259115 
L 280.723737 225.296774 
L 280.723737 225.296774 
" style="fill:none;stroke:#000000;stroke-linecap:square;stroke-opacity:0.7;stroke-width:1.2;"/>
   </g>
   <g id="line2d_7">
    <path clip-path="url(#p4631beb61c)" d="M 281.785713 185.941951 
L 275.285677 185.052187 
L 265.171808 183.43003 
L 232.638623 177.874616 
L 225.157719 176.914556 
L 218.869768 176.37052 
L 212.980502 176.171984 
L 208.607613 176.258686 
L 204.10771 176.584566 
L 200.180089 177.085889 
L 196.244593 177.804926 
L 191.45943 178.97103 
L 187.69734 180.136455 
L 185.07764 181.183004 
L 183.227957 182.202361 
L 181.989548 183.23957 
L 181.645892 183.665396 
L 181.135694 184.811271 
L 181.110111 185.656815 
L 181.718345 187.107596 
L 182.260085 187.747733 
L 183.311207 188.618016 
L 184.325716 189.233535 
L 186.151129 190.045327 
L 186.676753 190.231086 
L 190.08451 191.108381 
L 193.430953 191.630508 
L 198.180213 192.110012 
L 232.997676 194.877366 
L 239.373694 195.088041 
L 243.52095 195.049248 
L 248.795875 194.775751 
L 254.797962 194.168375 
L 260.022347 193.401612 
L 265.072481 192.461424 
L 271.038593 191.105753 
L 276.886596 189.533668 
L 281.799507 188.083925 
L 281.799507 188.083925 
" style="fill:none;stroke:#000000;stroke-linecap:square;stroke-opacity:0.7;stroke-width:1.2;"/>
   </g>
   <g id="line2d_8">
    <path clip-path="url(#p4631beb61c)" d="M 281.096428 144.815385 
L 267.338701 143.907173 
L 262.727119 143.286157 
L 257.799963 142.36084 
L 252.361147 141.059634 
L 245.074396 139.051211 
L 234.887575 136.242071 
L 229.366602 134.92796 
L 224.672727 134.022522 
L 220.487658 133.42883 
L 216.929058 133.10845 
L 212.768126 132.969203 
L 208.771368 133.086442 
L 205.60902 133.357699 
L 201.61515 133.92826 
L 197.711801 134.734421 
L 194.066545 135.713988 
L 189.943403 137.100722 
L 186.327502 138.59552 
L 183.50147 140.00614 
L 181.740432 141.054812 
L 179.975051 142.368109 
L 179.11854 143.245716 
L 178.673826 143.93902 
L 178.514539 144.438688 
L 178.612474 145.168584 
L 178.931556 145.59524 
L 179.768589 146.114276 
L 181.103441 146.506273 
L 182.911215 146.730678 
L 185.550893 146.75661 
L 189.867886 146.380629 
L 194.660719 145.61848 
L 206.481868 143.499721 
L 210.376815 143.077512 
L 213.798852 142.892893 
L 217.486846 142.885405 
L 222.107262 143.119319 
L 226.888216 143.573683 
L 243.956705 145.429212 
L 251.070156 145.864145 
L 260.09739 146.195858 
L 271.611221 146.389113 
L 280.779089 146.315975 
L 281.129443 146.306865 
L 281.129443 146.306865 
" style="fill:none;stroke:#000000;stroke-linecap:square;stroke-opacity:0.7;stroke-width:1.2;"/>
   </g>
   <g id="line2d_9">
    <path clip-path="url(#p4631beb61c)" d="M 281.878411 106.036907 
L 278.736082 105.536272 
L 273.169067 104.8766 
L 264.788001 104.14903 
L 241.818339 102.318898 
L 226.501803 100.975896 
L 218.953918 100.577197 
L 213.01766 100.470737 
L 206.477187 100.599 
L 201.263079 100.904697 
L 195.868964 101.432896 
L 189.566591 102.367527 
L 185.416584 103.218028 
L 181.434553 104.312855 
L 179.028583 105.284641 
L 178.190049 105.816453 
L 177.851412 106.15219 
L 177.649974 106.574713 
L 177.737056 107.041169 
L 177.898798 107.263201 
L 179.028591 107.998712 
L 180.809034 108.63035 
L 182.988651 109.149525 
L 185.904684 109.617094 
L 188.918417 109.892601 
L 192.177116 109.974927 
L 196.194292 109.834958 
L 212.57407 108.978217 
L 220.86355 108.882851 
L 249.343624 108.823119 
L 281.90369 108.181027 
L 281.90369 108.181027 
" style="fill:none;stroke:#000000;stroke-linecap:square;stroke-opacity:0.7;stroke-width:1.2;"/>
   </g>
   <g id="line2d_10">
    <path clip-path="url(#p4631beb61c)" d="M 281.437412 67.952133 
L 279.216906 67.384931 
L 276.12118 66.796865 
L 272.323394 66.270573 
L 266.533291 65.723006 
L 257.047352 65.129863 
L 246.087498 64.39782 
L 219.355549 62.428595 
L 210.117811 62.077014 
L 199.794067 61.938502 
L 189.551028 62.021823 
L 185.617978 62.199463 
L 182.68007 62.537486 
L 180.937597 62.983941 
L 180.065166 63.422272 
L 179.517025 64.007077 
L 179.395106 64.37467 
L 179.384903 64.636032 
L 179.585117 65.298467 
L 179.939824 65.828684 
L 180.514023 66.420389 
L 181.431438 67.122609 
L 182.67758 67.852602 
L 184.524964 68.673184 
L 186.968354 69.457181 
L 189.043205 69.933202 
L 191.393502 70.314216 
L 193.593238 70.551574 
L 197.300398 70.759389 
L 203.253296 70.788961 
L 219.880473 70.642658 
L 237.993528 70.843236 
L 244.513347 70.505404 
L 251.146895 69.885724 
L 260.687029 68.977968 
L 265.481436 68.719293 
L 269.314158 68.68055 
L 272.868533 68.811185 
L 276.683993 69.160529 
L 280.278387 69.726257 
L 281.504863 69.98497 
L 281.504863 69.98497 
" style="fill:none;stroke:#000000;stroke-linecap:square;stroke-opacity:0.7;stroke-width:1.2;"/>
   </g>
   <g id="line2d_11">
    <path clip-path="url(#p4631beb61c)" d="M 412.47504 224.548569 
L 404.897683 221.504311 
L 376.361919 210.215196 
L 371.181464 208.538456 
L 367.132189 207.415676 
L 363.562066 206.594259 
L 361.170483 206.148612 
L 357.07939 205.617255 
L 353.842024 205.437657 
L 350.996229 205.48077 
L 347.878228 205.76366 
L 344.493875 206.363977 
L 340.925705 207.33092 
L 337.444682 208.593015 
L 333.983694 210.133756 
L 331.051924 211.631641 
L 325.030406 215.105062 
L 319.528572 218.550227 
L 316.630184 220.540638 
L 314.70104 222.163165 
L 313.964279 223.039685 
L 313.550525 223.987859 
L 313.546278 224.433612 
L 313.818313 225.045275 
L 314.331295 225.513274 
L 315.121736 225.923111 
L 315.697997 226.124889 
L 317.50317 226.506766 
L 319.923959 226.706159 
L 322.176194 226.711378 
L 325.799879 226.497968 
L 331.016251 225.922771 
L 342.925317 224.498246 
L 347.713672 224.149836 
L 354.00264 223.951709 
L 361.060303 223.984396 
L 375.881477 224.129299 
L 389.49793 224.16657 
L 395.668904 224.449061 
L 400.956571 224.921474 
L 405.952029 225.594338 
L 410.440094 226.434071 
L 412.620914 226.966629 
L 412.620914 226.966629 
" style="fill:none;stroke:#000000;stroke-linecap:square;stroke-opacity:0.7;stroke-width:1.2;"/>
   </g>
   <g id="line2d_12">
    <path clip-path="url(#p4631beb61c)" d="M 412.409336 185.936 
L 403.545775 185.033877 
L 397.434028 184.194885 
L 392.807819 183.346022 
L 388.978621 182.461977 
L 383.976147 181.048121 
L 379.023117 179.400672 
L 371.710775 176.690735 
L 361.450876 172.883558 
L 357.89563 171.729232 
L 354.052072 170.665176 
L 349.728947 169.758542 
L 346.289905 169.287309 
L 342.830675 169.047758 
L 338.69429 169.068057 
L 334.925209 169.36753 
L 331.093036 169.935546 
L 326.211183 171.037117 
L 323.232685 171.926798 
L 320.475886 172.920408 
L 318.716335 173.660686 
L 316.308805 174.862575 
L 313.786205 176.546535 
L 312.630326 177.681913 
L 312.02177 178.601333 
L 311.731341 179.445606 
L 311.698347 180.165607 
L 311.875438 180.87602 
L 312.291366 181.594075 
L 312.607158 181.959237 
L 313.645565 182.788473 
L 315.154928 183.55547 
L 316.788584 184.107426 
L 319.166369 184.626387 
L 322.495577 185.04396 
L 338.67164 186.467817 
L 346.379571 187.587367 
L 358.56172 189.406548 
L 363.804249 189.915433 
L 368.860148 190.132434 
L 374.513453 190.078149 
L 381.350022 189.745661 
L 405.440825 188.347211 
L 412.500301 187.94948 
L 412.500301 187.94948 
" style="fill:none;stroke:#000000;stroke-linecap:square;stroke-opacity:0.7;stroke-width:1.2;"/>
   </g>
   <g id="line2d_13">
    <path clip-path="url(#p4631beb61c)" d="M 413.387713 147.833981 
L 411.260607 147.033353 
L 406.092432 145.397173 
L 399.058937 143.431595 
L 389.994194 141.13986 
L 379.014055 138.613909 
L 370.252274 136.782123 
L 363.507383 135.588353 
L 358.271172 134.876776 
L 352.803553 134.389088 
L 346.928121 134.178976 
L 341.899501 134.251237 
L 336.698293 134.551867 
L 330.847891 135.139836 
L 325.481658 135.898545 
L 319.969285 136.9216 
L 316.45344 137.771469 
L 313.532529 138.722826 
L 311.910615 139.470274 
L 310.716141 140.281871 
L 310.144657 140.893669 
L 309.866076 141.377627 
L 309.705712 142.087962 
L 309.868 142.925076 
L 310.163798 143.454789 
L 310.625262 143.991321 
L 311.676796 144.797456 
L 312.833074 145.398314 
L 315.140184 146.171623 
L 317.627232 146.64504 
L 320.842289 146.930968 
L 324.827027 146.982592 
L 330.41738 146.777873 
L 342.506133 146.241008 
L 348.548098 146.208706 
L 354.812763 146.420168 
L 361.917461 146.935532 
L 378.21638 148.322827 
L 386.417875 148.69494 
L 397.74159 148.934947 
L 407.434413 149.169211 
L 413.36736 149.542499 
L 413.36736 149.542499 
" style="fill:none;stroke:#000000;stroke-linecap:square;stroke-opacity:0.7;stroke-width:1.2;"/>
   </g>
   <g id="line2d_14">
    <path clip-path="url(#p4631beb61c)" d="M 412.829374 106.334408 
L 409.767858 105.983747 
L 401.276094 105.434043 
L 395.888243 105.004879 
L 391.913065 104.527311 
L 388.414117 103.962729 
L 383.366204 102.919135 
L 376.206689 101.127882 
L 365.095684 98.293782 
L 359.870724 97.198682 
L 356.329507 96.618252 
L 351.769341 96.117233 
L 347.536555 95.935587 
L 343.066866 96.052061 
L 339.230848 96.389587 
L 334.477896 97.066818 
L 329.915204 97.928497 
L 323.970458 99.285245 
L 319.632485 100.442301 
L 315.779923 101.661748 
L 313.351106 102.605671 
L 310.907695 103.842965 
L 309.731305 104.664196 
L 308.73488 105.692972 
L 308.324737 106.478785 
L 308.221273 107.192012 
L 308.471801 108.068685 
L 308.906804 108.658604 
L 309.543429 109.207988 
L 310.096103 109.561692 
L 312.202942 110.460585 
L 313.517474 110.83219 
L 316.782934 111.438575 
L 321.61058 111.885945 
L 327.188844 112.076775 
L 341.907134 112.13209 
L 351.434947 112.292156 
L 364.967887 112.553867 
L 372.028802 112.435438 
L 379.599337 112.07746 
L 389.337968 111.397777 
L 399.647856 110.469838 
L 407.411512 109.567916 
L 412.731231 108.775948 
L 412.731231 108.775948 
" style="fill:none;stroke:#000000;stroke-linecap:square;stroke-opacity:0.7;stroke-width:1.2;"/>
   </g>
   <g id="line2d_15">
    <path clip-path="url(#p4631beb61c)" d="M 413.02891 68.051543 
L 409.928096 66.909694 
L 404.559277 65.206836 
L 397.650394 63.275673 
L 387.631145 60.736096 
L 377.796792 58.469759 
L 370.542375 57.04102 
L 364.956001 56.14926 
L 359.09545 55.457613 
L 354.099353 55.106769 
L 349.225688 55.02003 
L 345.01202 55.181343 
L 340.869708 55.575336 
L 336.615968 56.229057 
L 332.291302 57.13196 
L 326.070134 58.725206 
L 315.180427 61.781509 
L 312.275874 62.754817 
L 310.141895 63.712883 
L 309.168752 64.363996 
L 308.535698 65.077985 
L 308.342148 65.583392 
L 308.366537 66.197806 
L 309.147119 67.386836 
L 309.422343 67.632324 
L 312.588279 69.374974 
L 314.837488 70.116029 
L 316.847858 70.587152 
L 319.276546 70.979763 
L 323.306593 71.364042 
L 360.435093 73.780609 
L 365.580151 73.867242 
L 371.298378 73.726056 
L 377.494162 73.314734 
L 386.580866 72.429192 
L 401.342475 70.724759 
L 410.927346 69.67011 
L 413.169595 69.52237 
L 413.169595 69.52237 
" style="fill:none;stroke:#000000;stroke-linecap:square;stroke-opacity:0.7;stroke-width:1.2;"/>
   </g>
   <g id="line2d_16">
    <path clip-path="url(#p4631beb61c)" d="M 543.602563 222.392128 
L 540.616059 222.100751 
L 534.142317 221.172505 
L 516.405764 218.370957 
L 508.087743 216.791662 
L 486.684845 212.477718 
L 482.80644 211.976895 
L 478.780886 211.680968 
L 474.730712 211.66583 
L 471.522096 211.871906 
L 467.219813 212.432983 
L 462.607169 213.319643 
L 455.276283 215.066458 
L 448.197564 216.983778 
L 445.297678 217.908339 
L 442.267945 219.138944 
L 441.973349 219.287919 
L 440.062848 220.597157 
L 439.481619 221.370753 
L 439.280223 222.073093 
L 439.482346 223.043839 
L 439.989142 223.7741 
L 440.712792 224.435974 
L 441.954213 225.242684 
L 443.665838 226.058927 
L 446.423544 227.01778 
L 448.33841 227.527727 
L 452.580744 228.378975 
L 455.10371 228.766663 
L 465.4179 230.002969 
L 490.455921 232.809613 
L 493.763679 232.964294 
L 496.972364 232.963747 
L 500.326759 232.765927 
L 503.615105 232.360474 
L 507.575187 231.621271 
L 512.944669 230.323033 
L 527.074586 226.730436 
L 532.065694 225.742829 
L 537.01304 225.007563 
L 541.441034 224.586359 
L 543.488266 224.481024 
L 543.488266 224.481024 
" style="fill:none;stroke:#000000;stroke-linecap:square;stroke-opacity:0.7;stroke-width:1.2;"/>
   </g>
   <g id="line2d_17">
    <path clip-path="url(#p4631beb61c)" d="M 543.932332 184.675309 
L 538.629906 183.862332 
L 531.406038 182.56192 
L 523.195029 180.8458 
L 514.816655 178.83241 
L 494.432166 173.733451 
L 487.875852 172.369705 
L 482.882775 171.548578 
L 479.271614 171.128355 
L 475.253936 170.893185 
L 471.238286 170.967596 
L 468.287284 171.253936 
L 465.821345 171.655967 
L 462.055548 172.557972 
L 459.052752 173.510748 
L 455.673482 174.792391 
L 450.37012 177.122147 
L 445.810564 179.318101 
L 441.936793 181.386039 
L 440.411545 182.411565 
L 439.841302 182.928536 
L 439.356553 183.695812 
L 439.318378 184.115968 
L 439.536824 184.647715 
L 439.798438 184.946595 
L 441.099658 185.794436 
L 442.777788 186.48681 
L 445.660299 187.343873 
L 449.443882 188.164384 
L 454.659795 188.968921 
L 460.638533 189.605477 
L 468.489433 190.191226 
L 479.368387 190.764742 
L 487.769133 190.989629 
L 494.565866 190.894874 
L 500.122229 190.541789 
L 505.634786 189.945483 
L 514.709605 188.682652 
L 524.707199 187.360421 
L 531.204267 186.722975 
L 536.435981 186.414458 
L 540.796599 186.363689 
L 543.824205 186.510573 
L 543.824205 186.510573 
" style="fill:none;stroke:#000000;stroke-linecap:square;stroke-opacity:0.7;stroke-width:1.2;"/>
   </g>
   <g id="line2d_18">
    <path clip-path="url(#p4631beb61c)" d="M 544.037598 146.763661 
L 538.468017 145.608763 
L 529.939457 144.05369 
L 518.555351 142.214524 
L 509.166104 140.910931 
L 500.435155 139.912473 
L 493.244551 139.29435 
L 486.622961 138.96151 
L 481.012423 138.93287 
L 476.203614 139.14114 
L 470.916807 139.623995 
L 464.259073 140.513794 
L 450.404575 142.683185 
L 446.334086 143.456384 
L 442.48331 144.433498 
L 440.19217 145.250611 
L 438.659617 146.007084 
L 437.849823 146.558341 
L 437.108072 147.367937 
L 436.935167 147.862521 
L 436.98541 148.274581 
L 437.411019 148.812677 
L 438.474956 149.32432 
L 439.57101 149.578296 
L 441.819716 149.786514 
L 444.318306 149.782255 
L 448.362842 149.528348 
L 455.792627 148.755904 
L 468.690524 147.405963 
L 476.946577 146.807942 
L 483.971354 146.525752 
L 491.364701 146.479201 
L 497.920242 146.667079 
L 504.838996 147.09039 
L 517.708978 148.201198 
L 525.332344 148.752033 
L 531.128273 148.967126 
L 536.185361 148.943395 
L 541.01381 148.698888 
L 544.142433 148.411872 
L 544.142433 148.411872 
" style="fill:none;stroke:#000000;stroke-linecap:square;stroke-opacity:0.7;stroke-width:1.2;"/>
   </g>
   <g id="line2d_19">
    <path clip-path="url(#p4631beb61c)" d="M 544.039401 107.556725 
L 537.623264 106.134204 
L 527.734054 104.020772 
L 520.955904 102.77524 
L 513.740397 101.654015 
L 504.494463 100.493314 
L 496.136542 99.668814 
L 488.805348 99.15495 
L 483.057595 98.973491 
L 478.755115 99.022924 
L 473.863065 99.3098 
L 468.770818 99.86736 
L 463.004439 100.747853 
L 451.537471 102.597156 
L 447.431481 103.193675 
L 445.42144 103.720073 
L 444.100405 104.33958 
L 443.441441 104.822378 
L 443.076603 105.189098 
L 442.510955 106.167787 
L 442.409827 106.690565 
L 442.489409 107.40966 
L 442.911069 108.194268 
L 443.3718 108.648366 
L 444.305006 109.212269 
L 445.7714 109.699672 
L 447.085136 109.934865 
L 448.484822 110.067039 
L 453.617182 110.058835 
L 469.773624 109.422573 
L 476.473592 109.499409 
L 492.659666 109.865892 
L 496.778292 109.666641 
L 502.508116 109.157409 
L 512.093457 108.274546 
L 518.335406 107.937715 
L 524.342175 107.84749 
L 530.194796 107.973137 
L 536.661335 108.324064 
L 543.986671 108.93621 
L 543.986671 108.93621 
" style="fill:none;stroke:#000000;stroke-linecap:square;stroke-opacity:0.7;stroke-width:1.2;"/>
   </g>
   <g id="line2d_20">
    <path clip-path="url(#p4631beb61c)" d="M 543.235737 64.966011 
L 539.064929 64.803239 
L 529.625987 64.155657 
L 520.793914 63.33328 
L 513.108505 62.38548 
L 505.599355 61.225803 
L 483.747171 57.652641 
L 478.160623 57.03869 
L 473.654025 56.733234 
L 468.707276 56.653346 
L 464.542392 56.844054 
L 460.838247 57.2543 
L 457.47327 57.859551 
L 455.109258 58.438081 
L 451.33005 59.674528 
L 448.783752 60.776422 
L 447.818665 61.269173 
L 445.519745 62.705913 
L 444.296101 63.784415 
L 443.621996 64.771983 
L 443.481644 65.466951 
L 443.608168 65.959076 
L 444.263213 66.66216 
L 445.117628 67.100077 
L 446.821465 67.574574 
L 448.508072 67.824267 
L 451.948451 68.021808 
L 455.533055 68.006174 
L 464.921723 67.863638 
L 469.675765 68.055865 
L 473.941165 68.40631 
L 482.896263 69.455674 
L 491.083063 70.363149 
L 496.006116 70.642756 
L 500.487127 70.625258 
L 505.549135 70.312173 
L 511.859848 69.641533 
L 534.903634 66.924235 
L 543.274992 66.20815 
L 543.274992 66.20815 
" style="fill:none;stroke:#000000;stroke-linecap:square;stroke-opacity:0.7;stroke-width:1.2;"/>
   </g>
   <g id="line2d_21">
    <path clip-path="url(#p4631beb61c)" d="M 675.082149 224.908818 
L 663.78044 224.150276 
L 656.754561 223.520413 
L 651.112203 222.777028 
L 644.864027 221.649673 
L 638.90985 220.325019 
L 618.134204 215.457306 
L 613.217991 214.652783 
L 609.346202 214.205693 
L 604.397619 213.899962 
L 601.264184 213.862746 
L 596.745263 214.013983 
L 591.861314 214.430138 
L 586.58503 215.152355 
L 581.792396 216.065406 
L 578.265278 216.953491 
L 575.34211 217.938117 
L 573.434467 218.827777 
L 571.936817 219.86741 
L 571.202812 220.737811 
L 570.981724 221.216818 
L 570.897794 222.105915 
L 571.140495 222.828651 
L 571.783583 223.658687 
L 572.587607 224.302411 
L 574.236013 225.178626 
L 575.808112 225.748824 
L 578.394137 226.379691 
L 581.687316 226.841087 
L 585.323689 227.072604 
L 591.272017 227.118866 
L 600.536442 227.101915 
L 605.239164 227.27438 
L 611.72242 227.765837 
L 620.384376 228.709969 
L 629.033908 229.620605 
L 635.318742 230.038334 
L 641.207408 230.155634 
L 647.570201 229.985344 
L 653.380858 229.594828 
L 659.703688 228.955039 
L 668.07765 227.850018 
L 675.089722 226.953458 
L 675.089722 226.953458 
" style="fill:none;stroke:#000000;stroke-linecap:square;stroke-opacity:0.7;stroke-width:1.2;"/>
   </g>
   <g id="line2d_22">
    <path clip-path="url(#p4631beb61c)" d="M 675.447699 186.856426 
L 649.891755 179.511624 
L 643.537655 178.003214 
L 637.494579 176.814762 
L 631.164983 175.845579 
L 626.617465 175.309217 
L 619.507347 174.695258 
L 612.450447 174.324509 
L 606.269699 174.217354 
L 600.846198 174.351948 
L 596.093587 174.719168 
L 592.98805 175.130172 
L 589.7242 175.749444 
L 586.054196 176.715608 
L 582.658558 177.874368 
L 580.472173 178.751262 
L 576.271841 180.769934 
L 574.404734 181.887029 
L 573.514829 182.509574 
L 572.206004 183.641751 
L 571.400382 184.705321 
L 571.120646 185.541081 
L 571.154489 186.13829 
L 571.780208 187.149465 
L 573.149719 188.047443 
L 574.787232 188.683878 
L 576.639395 189.188146 
L 578.35522 189.546485 
L 584.380623 190.392224 
L 589.333374 190.838803 
L 597.300685 191.325571 
L 606.805219 191.686081 
L 617.499708 191.877393 
L 627.635398 191.834747 
L 639.540497 191.520998 
L 653.77476 190.901036 
L 664.095275 190.249585 
L 674.112346 189.372194 
L 675.490909 189.237248 
L 675.490909 189.237248 
" style="fill:none;stroke:#000000;stroke-linecap:square;stroke-opacity:0.7;stroke-width:1.2;"/>
   </g>
   <g id="line2d_23">
    <path clip-path="url(#p4631beb61c)" d="M 674.123442 144.065245 
L 669.901419 143.74345 
L 657.617395 142.858424 
L 652.358556 142.255165 
L 646.700851 141.359538 
L 641.429745 140.285415 
L 635.172356 138.754251 
L 615.766363 133.681786 
L 611.80262 133.00383 
L 607.632813 132.57531 
L 604.10591 132.467108 
L 600.462025 132.608201 
L 596.696069 133.021179 
L 592.585503 133.771725 
L 589.210219 134.613498 
L 585.254245 135.855963 
L 581.742943 137.210613 
L 578.863725 138.557442 
L 577.123732 139.540067 
L 575.588118 140.618785 
L 574.879464 141.264103 
L 574.115507 142.335909 
L 573.981737 142.764917 
L 574.019045 143.43269 
L 574.348834 144.00122 
L 574.927557 144.486334 
L 576.270774 145.098082 
L 577.484242 145.423919 
L 580.045568 145.804575 
L 583.010438 145.971445 
L 587.894486 145.937041 
L 601.93948 145.573461 
L 607.543951 145.695364 
L 613.227727 146.01913 
L 622.246436 146.829202 
L 629.141735 147.404867 
L 633.466953 147.564866 
L 637.497314 147.540299 
L 644.413508 147.236164 
L 671.388215 145.537717 
L 674.402903 145.307241 
L 674.402903 145.307241 
" style="fill:none;stroke:#000000;stroke-linecap:square;stroke-opacity:0.7;stroke-width:1.2;"/>
   </g>
   <g id="line2d_24">
    <path clip-path="url(#p4631beb61c)" d="M 675.239582 105.593003 
L 666.115788 103.976092 
L 659.70402 103.066437 
L 655.140899 102.571708 
L 648.903632 102.136513 
L 643.69773 101.986838 
L 635.981909 102.01355 
L 621.013342 102.14289 
L 613.626195 101.965177 
L 591.728863 101.182581 
L 587.83442 101.329167 
L 584.307146 101.660316 
L 581.362005 102.156812 
L 579.448568 102.647011 
L 577.606589 103.333058 
L 575.962758 104.345268 
L 575.357434 105.056285 
L 575.146191 105.670576 
L 575.23846 106.340797 
L 575.490857 106.778267 
L 576.177424 107.421078 
L 576.782461 107.794053 
L 578.305992 108.435035 
L 580.708521 109.052816 
L 583.024972 109.422387 
L 587.434311 109.81861 
L 607.868988 111.055789 
L 626.8297 112.839417 
L 630.693472 112.852638 
L 634.77237 112.622021 
L 639.706529 112.066594 
L 647.040302 110.930775 
L 660.607442 108.764931 
L 667.467689 107.937154 
L 672.561272 107.527843 
L 675.29725 107.406361 
L 675.29725 107.406361 
" style="fill:none;stroke:#000000;stroke-linecap:square;stroke-opacity:0.7;stroke-width:1.2;"/>
   </g>
   <g id="line2d_25">
    <path clip-path="url(#p4631beb61c)" d="M 675.155983 66.602005 
L 672.00553 65.847451 
L 667.875911 65.011682 
L 660.152837 63.71944 
L 654.194141 62.91653 
L 646.626278 62.134249 
L 640.183598 61.679075 
L 631.968565 61.354468 
L 623.121647 61.2573 
L 614.078513 61.362668 
L 605.427976 61.680535 
L 598.965334 62.158091 
L 593.802676 62.782482 
L 589.053504 63.614476 
L 585.130052 64.513731 
L 579.543403 66.081954 
L 573.883857 67.868605 
L 572.659933 68.468492 
L 572.685025 68.856197 
L 573.120576 69.071193 
L 574.38566 69.39868 
L 577.379675 69.879509 
L 582.049756 70.393976 
L 588.663698 70.862337 
L 600.082102 71.620339 
L 609.847458 72.592941 
L 616.632383 73.2208 
L 621.865508 73.490673 
L 625.818402 73.504252 
L 630.283078 73.321743 
L 638.581597 72.624173 
L 654.226036 70.964972 
L 665.237388 69.635871 
L 675.17461 68.26125 
L 675.17461 68.26125 
" style="fill:none;stroke:#000000;stroke-linecap:square;stroke-opacity:0.7;stroke-width:1.2;"/>
   </g>
  </g>
 </g>
 <defs>
  <clipPath id="p4631beb61c">
   <rect height="262.08" width="694.08" x="12.96" y="12.96"/>
  </clipPath>
 </defs>
</svg>
