<?xml version="1.0" encoding="utf-8" standalone="no"?>
<!DOCTYPE svg PUBLIC "-//W3C//DTD SVG 1.1//EN"
  "http://www.w3.org/Graphics/SVG/1.1/DTD/svg11.dtd">
<!-- Created with matplotlib (https://matplotlib.org/) -->
<svg height="288pt" version="1.1" viewBox="0 0 720 288" width="720pt" xmlns="http://www.w3.org/2000/svg" xmlns:xlink="http://www.w3.org/1999/xlink">
 <metadata>
  <rdf:RDF xmlns:cc="http://creativecommons.org/ns#" xmlns:dc="http://purl.org/dc/elements/1.1/" xmlns:rdf="http://www.w3.org/1999/02/22-rdf-syntax-ns#">
   <cc:Work>
    <dc:type rdf:resource="http://purl.org/dc/dcmitype/StillImage"/>
    <dc:date>2020-11-06T18:07:54.255933</dc:date>
    <dc:format>image/svg+xml</dc:format>
    <dc:creator>
     <cc:Agent>
      <dc:title>Matplotlib v3.3.2, https://matplotlib.org/</dc:title>
     </cc:Agent>
    </dc:creator>
   </cc:Work>
  </rdf:RDF>
 </metadata>
 <defs>
  <style type="text/css">*{stroke-linecap:butt;stroke-linejoin:round;}</style>
 </defs>
 <g id="figure_1">
  <g id="patch_1">
   <path d="M 0 288 
L 720 288 
L 720 0 
L 0 0 
z
" style="fill:#ffffff;"/>
  </g>
  <g id="axes_1">
   <g id="line2d_1">
    <path clip-path="url(#pbde3e47c3d)" d="M 149.459637 224.598746 
L 137.245639 221.804067 
L 127.982388 219.892885 
L 120.579867 218.582211 
L 113.629175 217.592131 
L 107.46189 216.946181 
L 101.360074 216.544675 
L 95.674684 216.396091 
L 89.887947 216.472318 
L 83.523897 216.803746 
L 76.771666 217.38923 
L 69.104634 218.283629 
L 62.117911 219.310789 
L 56.716618 220.306966 
L 52.378642 221.340274 
L 49.362938 222.303582 
L 47.611257 223.056818 
L 46.293984 223.84278 
L 45.63608 224.430342 
L 45.282752 224.978791 
L 45.203449 225.482027 
L 45.389794 225.971477 
L 45.787719 226.381053 
L 46.49146 226.807052 
L 47.702431 227.277342 
L 49.647271 227.77722 
L 52.635287 228.288724 
L 56.191862 228.69557 
L 61.302869 229.051467 
L 66.824209 229.21485 
L 72.999322 229.165913 
L 79.450091 228.86661 
L 85.250104 228.384624 
L 92.234662 227.56367 
L 109.226573 225.35246 
L 115.431367 224.838155 
L 121.808208 224.530967 
L 128.933491 224.414688 
L 137.400223 224.507643 
L 149.461674 224.874601 
L 149.461674 224.874601 
" style="fill:none;stroke:#000000;stroke-linecap:square;stroke-opacity:0.7;stroke-width:1.2;"/>
   </g>
   <g id="line2d_2">
    <path clip-path="url(#pbde3e47c3d)" d="M 149.471183 185.446092 
L 131.951776 181.043263 
L 119.977634 178.240131 
L 112.103087 176.606267 
L 105.027303 175.373255 
L 99.105451 174.572864 
L 94.14333 174.104076 
L 89.138655 173.848383 
L 84.652365 173.820878 
L 79.903795 174.003532 
L 75.190728 174.393176 
L 69.592127 175.113637 
L 65.104645 175.896114 
L 60.36195 176.953264 
L 56.211936 178.139658 
L 52.844366 179.375513 
L 50.155292 180.647463 
L 48.543845 181.607525 
L 47.280422 182.533425 
L 46.16229 183.588438 
L 45.412898 184.612921 
L 45.078839 185.520085 
L 45.079375 186.091404 
L 45.282507 186.620386 
L 45.76415 187.151267 
L 46.840644 187.759575 
L 48.648022 188.321199 
L 50.764861 188.731233 
L 53.906185 189.139917 
L 59.683479 189.621718 
L 67.311723 190.003408 
L 75.903107 190.213577 
L 84.463482 190.204886 
L 92.668599 189.959133 
L 101.231547 189.441897 
L 113.98232 188.381664 
L 131.211006 186.984183 
L 149.321005 185.780119 
L 149.467616 185.770754 
L 149.467616 185.770754 
" style="fill:none;stroke:#000000;stroke-linecap:square;stroke-opacity:0.7;stroke-width:1.2;"/>
   </g>
   <g id="line2d_3">
    <path clip-path="url(#pbde3e47c3d)" d="M 149.554605 145.694043 
L 141.82529 144.877416 
L 134.046651 144.25579 
L 126.516148 143.882942 
L 119.320198 143.753387 
L 111.192908 143.852261 
L 87.15341 144.435094 
L 78.268031 144.208766 
L 68.567228 143.99521 
L 61.946919 144.099408 
L 56.522727 144.424266 
L 51.745546 144.956598 
L 48.041194 145.642378 
L 46.523893 146.132266 
L 46.005389 146.515575 
L 46.001104 146.780703 
L 46.280115 147.054914 
L 46.886552 147.359592 
L 48.358461 147.831402 
L 51.121687 148.423977 
L 54.815146 148.951097 
L 58.783125 149.301802 
L 63.493252 149.492707 
L 68.819313 149.456069 
L 74.104567 149.182005 
L 79.822937 148.6449 
L 86.726655 147.718499 
L 105.718693 144.895985 
L 110.975756 144.447348 
L 117.006397 144.195926 
L 122.668624 144.188835 
L 128.986594 144.391935 
L 137.891229 144.943197 
L 149.539261 145.893366 
L 149.539261 145.893366 
" style="fill:none;stroke:#000000;stroke-linecap:square;stroke-opacity:0.7;stroke-width:1.2;"/>
   </g>
   <g id="line2d_4">
    <path clip-path="url(#pbde3e47c3d)" d="M 149.555621 106.451119 
L 139.961351 104.374202 
L 130.463967 102.541437 
L 123.125738 101.334541 
L 116.514971 100.442619 
L 109.99231 99.772388 
L 104.403658 99.382436 
L 98.888694 99.180532 
L 92.458815 99.192149 
L 86.28933 99.452091 
L 78.590349 100.052688 
L 69.409093 101.016588 
L 61.286622 102.057854 
L 56.137753 102.889272 
L 52.785902 103.580628 
L 49.465308 104.502549 
L 47.257799 105.392586 
L 45.771114 106.323111 
L 45.154013 106.977118 
L 44.871437 107.608486 
L 44.880118 108.176158 
L 45.221389 108.844373 
L 45.666256 109.296912 
L 47.11296 110.204751 
L 48.793463 110.9154 
L 51.416776 111.745263 
L 55.533727 112.716087 
L 60.553039 113.590405 
L 64.925535 114.161912 
L 71.120698 114.732708 
L 76.570225 115.031315 
L 82.753058 115.151871 
L 88.906883 115.038866 
L 94.398962 114.734928 
L 100.620257 114.164386 
L 108.316639 113.189083 
L 119.217188 111.533978 
L 149.541342 106.742548 
L 149.541342 106.742548 
" style="fill:none;stroke:#000000;stroke-linecap:square;stroke-opacity:0.7;stroke-width:1.2;"/>
   </g>
   <g id="line2d_5">
    <path clip-path="url(#pbde3e47c3d)" d="M 149.641732 66.798916 
L 140.966065 63.760523 
L 132.631464 61.071488 
L 126.452633 59.285194 
L 120.151191 57.696256 
L 114.345882 56.47147 
L 109.308961 55.61103 
L 103.450712 54.864487 
L 98.085355 54.441745 
L 94.421487 54.309833 
L 88.958115 54.368758 
L 84.226874 54.675282 
L 79.332339 55.231496 
L 73.495273 56.172581 
L 67.82713 57.330321 
L 62.351746 58.665091 
L 57.001951 60.225883 
L 53.175834 61.581344 
L 49.794259 63.056606 
L 47.673705 64.207 
L 45.896922 65.447233 
L 45.030997 66.302217 
L 44.580373 67.074079 
L 44.525832 67.677296 
L 44.601406 67.92282 
L 44.865647 68.308888 
L 45.676764 68.874241 
L 47.598577 69.521532 
L 50.316878 69.983012 
L 53.711485 70.261022 
L 57.570657 70.353223 
L 61.993378 70.257659 
L 66.797558 69.961123 
L 72.104428 69.432021 
L 78.258961 68.581024 
L 85.674084 67.274358 
L 100.040871 64.593354 
L 104.773238 63.977724 
L 109.682966 63.578684 
L 114.504315 63.425708 
L 119.303079 63.488406 
L 125.354537 63.830202 
L 131.470204 64.419044 
L 138.807017 65.37066 
L 148.317163 66.86825 
L 149.61214 67.086772 
L 149.61214 67.086772 
" style="fill:none;stroke:#000000;stroke-linecap:square;stroke-opacity:0.7;stroke-width:1.2;"/>
   </g>
   <g id="line2d_6">
    <path clip-path="url(#pbde3e47c3d)" d="M 280.938333 224.882563 
L 270.160803 223.579758 
L 261.054781 222.685262 
L 252.18291 222.055226 
L 244.655691 221.727308 
L 233.76828 221.514685 
L 218.529077 221.246682 
L 202.433959 220.854405 
L 196.320629 220.944552 
L 191.429228 221.204905 
L 186.679113 221.678968 
L 183.27481 222.213478 
L 180.019353 222.986895 
L 178.138386 223.673539 
L 177.08279 224.250275 
L 176.315287 224.94505 
L 176.017154 225.583266 
L 176.03769 226.153191 
L 176.252042 226.642245 
L 176.701573 227.196139 
L 177.748903 228.011172 
L 179.753345 229.048759 
L 182.801161 230.154089 
L 185.386531 230.870224 
L 189.500185 231.757366 
L 194.135762 232.498795 
L 199.384911 233.092767 
L 204.99193 233.493711 
L 210.653198 233.68495 
L 216.453963 233.673671 
L 222.511547 233.443704 
L 229.12289 232.943787 
L 236.272406 232.140534 
L 245.262612 230.85782 
L 262.050494 228.151112 
L 280.914032 225.096263 
L 280.914032 225.096263 
" style="fill:none;stroke:#000000;stroke-linecap:square;stroke-opacity:0.7;stroke-width:1.2;"/>
   </g>
   <g id="line2d_7">
    <path clip-path="url(#pbde3e47c3d)" d="M 280.924562 185.507231 
L 262.741301 181.717022 
L 248.482379 178.940245 
L 240.148249 177.523336 
L 233.385845 176.596148 
L 227.609341 176.030349 
L 222.82592 175.755715 
L 217.897704 175.67593 
L 212.892995 175.808831 
L 208.448895 176.099565 
L 202.251761 176.760772 
L 196.301731 177.681343 
L 191.659586 178.631226 
L 188.66467 179.387667 
L 184.86138 180.585722 
L 182.306682 181.623243 
L 180.546428 182.525505 
L 179.212771 183.394354 
L 177.980317 184.533484 
L 177.677811 184.959218 
L 177.380881 185.787965 
L 177.418388 186.229012 
L 177.604119 186.619865 
L 178.054836 187.066324 
L 178.779949 187.470982 
L 180.081359 187.90535 
L 182.149877 188.319484 
L 185.671713 188.740027 
L 191.601076 189.15461 
L 199.439047 189.475612 
L 209.06273 189.662094 
L 217.345371 189.629325 
L 224.536253 189.402065 
L 232.115557 188.932073 
L 265.509815 186.459827 
L 280.913944 185.793019 
L 280.913944 185.793019 
" style="fill:none;stroke:#000000;stroke-linecap:square;stroke-opacity:0.7;stroke-width:1.2;"/>
   </g>
   <g id="line2d_8">
    <path clip-path="url(#pbde3e47c3d)" d="M 280.742819 145.769696 
L 267.817592 142.661526 
L 258.379373 140.613883 
L 251.782986 139.379704 
L 246.185772 138.508064 
L 240.031129 137.772138 
L 233.956311 137.298529 
L 228.228767 137.094323 
L 223.011644 137.114327 
L 216.973237 137.367384 
L 210.206477 137.896612 
L 202.974725 138.682918 
L 195.881216 139.651684 
L 189.746462 140.696088 
L 185.166283 141.69315 
L 181.920805 142.614929 
L 179.262874 143.640732 
L 178.463741 144.040211 
L 176.889625 145.119733 
L 176.371264 145.714729 
L 176.099331 146.358008 
L 176.143232 146.950276 
L 176.337163 147.323223 
L 177.045606 147.975945 
L 178.20691 148.577525 
L 180.490221 149.311832 
L 183.123372 149.874173 
L 187.614488 150.506744 
L 192.6368 150.92243 
L 197.811575 151.117731 
L 203.989962 151.090198 
L 210.275056 150.796718 
L 216.029766 150.310459 
L 223.318255 149.443778 
L 243.263307 146.846716 
L 249.449278 146.337051 
L 257.070694 145.966702 
L 264.092892 145.838538 
L 274.278808 145.899987 
L 280.74814 146.019819 
L 280.74814 146.019819 
" style="fill:none;stroke:#000000;stroke-linecap:square;stroke-opacity:0.7;stroke-width:1.2;"/>
   </g>
   <g id="line2d_9">
    <path clip-path="url(#pbde3e47c3d)" d="M 280.926474 106.498416 
L 268.353954 104.797911 
L 257.734147 103.603701 
L 248.604018 102.824645 
L 240.016738 102.324669 
L 230.608706 101.999155 
L 218.048834 101.792558 
L 208.007367 101.807201 
L 200.366038 102.03884 
L 194.39108 102.441072 
L 189.176578 103.025849 
L 184.92292 103.744557 
L 181.828362 104.489248 
L 179.812891 105.155155 
L 178.02914 106.015494 
L 177.307395 106.583689 
L 176.912676 107.293102 
L 177.043275 107.892178 
L 177.46468 108.358828 
L 178.064011 108.757099 
L 179.214839 109.279455 
L 181.11332 109.878872 
L 184.161719 110.549465 
L 187.987459 111.12688 
L 192.513785 111.570608 
L 197.475847 111.834893 
L 202.976334 111.902308 
L 209.400994 111.713905 
L 214.830386 111.346886 
L 221.169825 110.70014 
L 228.533823 109.727952 
L 241.176393 108.034216 
L 247.919579 107.374687 
L 254.812986 106.930708 
L 262.789584 106.672742 
L 272.320772 106.622011 
L 280.922105 106.697393 
L 280.922105 106.697393 
" style="fill:none;stroke:#000000;stroke-linecap:square;stroke-opacity:0.7;stroke-width:1.2;"/>
   </g>
   <g id="line2d_10">
    <path clip-path="url(#pbde3e47c3d)" d="M 280.965587 67.284914 
L 266.859807 63.7835 
L 250.747928 59.996203 
L 241.616652 58.023995 
L 234.329457 56.665057 
L 228.702617 55.824532 
L 223.670274 55.27464 
L 219.244581 54.974601 
L 214.24467 54.860926 
L 209.842914 54.966042 
L 205.140456 55.293505 
L 200.025749 55.910233 
L 195.400973 56.728864 
L 191.482039 57.665634 
L 188.120958 58.711926 
L 185.59134 59.705719 
L 183.400686 60.76366 
L 181.524184 61.867317 
L 179.680558 63.203467 
L 178.246643 64.521624 
L 177.228452 65.788868 
L 176.779271 66.686789 
L 176.672493 67.230322 
L 176.723226 67.648242 
L 176.946135 68.048934 
L 177.193675 68.275715 
L 177.632271 68.523389 
L 178.859747 68.870234 
L 180.518005 69.068022 
L 184.290246 69.185069 
L 192.1532 69.08482 
L 211.985797 68.776292 
L 253.035215 68.472324 
L 278.066327 67.726544 
L 280.969843 67.631281 
L 280.969843 67.631281 
" style="fill:none;stroke:#000000;stroke-linecap:square;stroke-opacity:0.7;stroke-width:1.2;"/>
   </g>
   <g id="line2d_11">
    <path clip-path="url(#pbde3e47c3d)" d="M 412.459559 224.916565 
L 403.028185 223.713856 
L 392.229505 222.571291 
L 381.685606 221.697038 
L 367.020467 220.751833 
L 339.810801 219.211669 
L 333.996377 219.141273 
L 328.465294 219.313251 
L 323.574741 219.731446 
L 320.008974 220.243224 
L 316.617435 220.942752 
L 313.665815 221.781757 
L 311.584666 222.565074 
L 309.571411 223.601872 
L 308.671453 224.283469 
L 308.201353 224.85584 
L 308.049651 225.38363 
L 308.161685 225.779687 
L 308.524005 226.174915 
L 309.351328 226.629433 
L 310.723697 227.067527 
L 313.367663 227.573377 
L 316.476584 227.941036 
L 321.047752 228.267467 
L 327.197154 228.468233 
L 334.518799 228.455575 
L 341.937132 228.207528 
L 349.87138 227.699408 
L 360.568607 226.723272 
L 370.849174 225.820955 
L 379.093357 225.325977 
L 387.436388 225.049732 
L 397.286303 224.963607 
L 410.117151 225.108742 
L 412.438367 225.151705 
L 412.438367 225.151705 
" style="fill:none;stroke:#000000;stroke-linecap:square;stroke-opacity:0.7;stroke-width:1.2;"/>
   </g>
   <g id="line2d_12">
    <path clip-path="url(#pbde3e47c3d)" d="M 412.475574 185.98873 
L 389.707272 182.19039 
L 379.782798 180.278519 
L 355.940378 175.412943 
L 350.662724 174.641212 
L 344.788213 174.034878 
L 339.726554 173.745296 
L 334.302219 173.691557 
L 329.930217 173.864584 
L 325.876941 174.235142 
L 322.690895 174.710559 
L 319.279053 175.469178 
L 316.699348 176.286554 
L 314.955511 177.007 
L 312.617167 178.276855 
L 311.042441 179.417555 
L 310.223411 180.147413 
L 308.686882 181.981633 
L 308.025592 183.332831 
L 307.884182 184.248359 
L 307.958189 184.698636 
L 308.298262 185.288153 
L 308.605509 185.560668 
L 309.588503 186.043308 
L 310.785392 186.3536 
L 313.576797 186.727842 
L 318.788182 187.087199 
L 335.094951 188.070107 
L 345.921814 188.99657 
L 363.016642 190.578191 
L 369.093247 190.878105 
L 374.849934 190.926467 
L 381.414341 190.684919 
L 386.615468 190.280004 
L 393.267365 189.520926 
L 400.881053 188.385251 
L 410.351866 186.698358 
L 412.476539 186.290667 
L 412.476539 186.290667 
" style="fill:none;stroke:#000000;stroke-linecap:square;stroke-opacity:0.7;stroke-width:1.2;"/>
   </g>
   <g id="line2d_13">
    <path clip-path="url(#pbde3e47c3d)" d="M 412.383753 145.855347 
L 399.260842 141.561576 
L 389.463486 138.551816 
L 381.107737 136.212897 
L 374.033062 134.474102 
L 367.556854 133.13594 
L 362.322243 132.274302 
L 357.384057 131.681452 
L 352.370622 131.339513 
L 348.694876 131.277504 
L 344.874521 131.395097 
L 341.027762 131.706008 
L 336.349091 132.343615 
L 331.962321 133.196705 
L 327.375144 134.356818 
L 323.427558 135.593136 
L 319.964057 136.892436 
L 316.194597 138.606956 
L 313.423605 140.159359 
L 311.937329 141.149215 
L 310.228989 142.509155 
L 309.024011 143.73019 
L 308.301045 144.714179 
L 307.807101 145.892204 
L 307.807597 146.654664 
L 308.038247 147.16471 
L 308.583074 147.679355 
L 309.519393 148.134032 
L 311.274827 148.581716 
L 314.185382 148.949175 
L 317.753444 149.163899 
L 322.797952 149.274087 
L 330.819894 149.202775 
L 340.018175 148.868902 
L 350.101855 148.248708 
L 373.800698 146.594013 
L 382.919814 146.265262 
L 393.040516 146.105411 
L 407.837743 146.124337 
L 412.384198 146.160058 
L 412.384198 146.160058 
" style="fill:none;stroke:#000000;stroke-linecap:square;stroke-opacity:0.7;stroke-width:1.2;"/>
   </g>
   <g id="line2d_14">
    <path clip-path="url(#pbde3e47c3d)" d="M 412.431804 107.025397 
L 401.942575 105.718427 
L 386.223172 104.018355 
L 372.622652 102.513812 
L 361.757455 101.070866 
L 343.268731 98.528053 
L 337.237441 97.968187 
L 332.776908 97.75117 
L 328.670961 97.76466 
L 325.500327 97.963771 
L 321.93842 98.449739 
L 319.585741 98.966951 
L 317.536766 99.57762 
L 315.594887 100.323785 
L 313.607666 101.293964 
L 311.548358 102.582828 
L 310.23885 103.612017 
L 309.078328 104.763294 
L 308.480402 105.590352 
L 308.255742 106.312295 
L 308.32379 106.555109 
L 308.526049 106.757541 
L 309.181035 106.956918 
L 310.504346 106.990357 
L 313.530843 106.742458 
L 322.449573 105.872909 
L 329.957892 105.402263 
L 335.639853 105.255035 
L 341.977571 105.335184 
L 347.524098 105.639229 
L 353.192201 106.168323 
L 372.318831 108.247897 
L 378.134682 108.568661 
L 384.270746 108.697452 
L 391.579209 108.599976 
L 398.64702 108.291021 
L 407.852454 107.649652 
L 412.404575 107.256608 
L 412.404575 107.256608 
" style="fill:none;stroke:#000000;stroke-linecap:square;stroke-opacity:0.7;stroke-width:1.2;"/>
   </g>
   <g id="line2d_15">
    <path clip-path="url(#pbde3e47c3d)" d="M 412.457798 67.017192 
L 401.086997 63.918044 
L 392.113314 61.688374 
L 384.814216 60.10365 
L 378.522227 58.957781 
L 372.762637 58.118327 
L 367.59544 57.550337 
L 361.828912 57.133986 
L 356.34473 56.959478 
L 350.594443 57.015057 
L 344.832585 57.314557 
L 338.944496 57.861488 
L 332.453485 58.733618 
L 327.02823 59.685727 
L 321.445481 60.917347 
L 317.265169 62.06854 
L 314.205815 63.103194 
L 310.980933 64.51077 
L 309.420916 65.427104 
L 307.993741 66.623446 
L 307.381448 67.494078 
L 307.134996 68.350415 
L 307.260182 69.199705 
L 307.603177 69.812985 
L 308.362423 70.569556 
L 309.431808 71.256127 
L 310.596607 71.803263 
L 313.092816 72.653804 
L 316.278339 73.424016 
L 321.216246 74.272053 
L 326.464257 74.909705 
L 332.265691 75.406619 
L 338.412146 75.75106 
L 345.609848 75.95246 
L 353.774442 75.931697 
L 360.322972 75.711508 
L 366.905698 75.283586 
L 373.546896 74.626058 
L 379.969569 73.779336 
L 387.422643 72.565747 
L 395.06757 71.112058 
L 406.286281 68.72995 
L 412.445512 67.367947 
L 412.445512 67.367947 
" style="fill:none;stroke:#000000;stroke-linecap:square;stroke-opacity:0.7;stroke-width:1.2;"/>
   </g>
   <g id="line2d_16">
    <path clip-path="url(#pbde3e47c3d)" d="M 543.899863 225.248678 
L 512.349581 219.404456 
L 497.221411 216.529211 
L 490.203425 215.436572 
L 484.505495 214.781706 
L 480.08402 214.452103 
L 475.051273 214.28687 
L 470.104334 214.353289 
L 464.914908 214.678954 
L 460.108434 215.237433 
L 455.719014 216.004712 
L 452.256763 216.832121 
L 449.217652 217.776595 
L 446.415457 218.901813 
L 444.712691 219.755497 
L 442.852884 220.908365 
L 441.473677 222.001596 
L 440.340531 223.206128 
L 439.732346 224.172647 
L 439.453038 225.157014 
L 439.505861 225.698813 
L 439.848994 226.308875 
L 440.469249 226.779744 
L 441.621734 227.218491 
L 443.349307 227.547698 
L 446.491982 227.820519 
L 452.848885 228.019 
L 500.202439 228.731263 
L 508.328268 228.444081 
L 517.923728 227.852192 
L 529.9513 226.851657 
L 543.900264 225.503729 
L 543.900264 225.503729 
" style="fill:none;stroke:#000000;stroke-linecap:square;stroke-opacity:0.7;stroke-width:1.2;"/>
   </g>
   <g id="line2d_17">
    <path clip-path="url(#pbde3e47c3d)" d="M 543.981662 185.285764 
L 532.072344 180.802494 
L 524.190426 178.039019 
L 517.449734 175.89162 
L 511.422459 174.196169 
L 506.287737 172.947521 
L 500.605966 171.798539 
L 496.110459 171.079431 
L 490.754745 170.468681 
L 486.103344 170.184542 
L 482.554718 170.139802 
L 477.94284 170.319483 
L 473.499752 170.748608 
L 468.821896 171.45851 
L 463.952231 172.457653 
L 459.412122 173.616778 
L 454.519499 175.122099 
L 451.219187 176.313138 
L 447.760567 177.764009 
L 445.06382 179.107804 
L 442.76166 180.505689 
L 440.976062 181.902014 
L 440.259942 182.620576 
L 439.280669 183.997866 
L 438.88678 185.080455 
L 438.851336 186.18432 
L 439.183082 187.198707 
L 439.681793 187.943039 
L 440.864998 189.023747 
L 441.78694 189.615794 
L 444.294906 190.775534 
L 446.287659 191.451879 
L 450.252177 192.465678 
L 454.677474 193.287913 
L 459.525447 193.951652 
L 465.743957 194.545413 
L 472.437876 194.930228 
L 479.670689 195.086449 
L 486.524989 194.98778 
L 492.269532 194.70627 
L 498.763608 194.154827 
L 505.757105 193.29156 
L 512.885234 192.164503 
L 521.439274 190.559657 
L 532.086642 188.309153 
L 543.976691 185.650954 
L 543.976691 185.650954 
" style="fill:none;stroke:#000000;stroke-linecap:square;stroke-opacity:0.7;stroke-width:1.2;"/>
   </g>
   <g id="line2d_18">
    <path clip-path="url(#pbde3e47c3d)" d="M 544.007838 145.957419 
L 533.380397 144.163268 
L 523.301101 142.679222 
L 515.150049 141.695315 
L 506.848093 140.937807 
L 498.673341 140.440731 
L 490.326759 140.159889 
L 481.970759 140.07695 
L 474.386761 140.178451 
L 467.462408 140.453507 
L 461.012465 140.913103 
L 455.192039 141.551739 
L 450.524668 142.278348 
L 446.242503 143.204731 
L 443.336635 144.084065 
L 441.636148 144.796505 
L 440.633088 145.38566 
L 440.040878 145.91719 
L 439.783991 146.365985 
L 439.757998 146.762732 
L 439.910359 147.117419 
L 440.385445 147.578098 
L 441.136065 148.001357 
L 442.756183 148.58511 
L 444.705252 149.064294 
L 448.061471 149.64311 
L 452.707936 150.176021 
L 458.890724 150.591806 
L 464.311213 150.749022 
L 470.326698 150.723526 
L 476.269172 150.496999 
L 482.133595 150.076493 
L 489.395896 149.307006 
L 508.647026 147.018995 
L 515.808018 146.496604 
L 523.644462 146.184851 
L 531.787565 146.094748 
L 543.982621 146.226831 
L 543.982621 146.226831 
" style="fill:none;stroke:#000000;stroke-linecap:square;stroke-opacity:0.7;stroke-width:1.2;"/>
   </g>
   <g id="line2d_19">
    <path clip-path="url(#pbde3e47c3d)" d="M 544.064106 106.9657 
L 497.404822 95.335076 
L 491.717623 94.179245 
L 485.901107 93.228406 
L 481.256719 92.683189 
L 476.469337 92.354342 
L 471.709705 92.28524 
L 467.632693 92.443011 
L 464.524084 92.704576 
L 460.685693 93.208025 
L 457.021859 93.896544 
L 454.190676 94.593067 
L 451.08937 95.561851 
L 447.982393 96.817996 
L 445.898827 97.879856 
L 444.319369 98.845241 
L 442.302995 100.361105 
L 441.01587 101.57902 
L 439.671424 103.248509 
L 438.840368 104.887217 
L 438.64406 105.762527 
L 438.657254 106.451381 
L 438.843678 107.072049 
L 439.293262 107.720891 
L 440.431716 108.525478 
L 442.154753 109.171661 
L 444.623379 109.723653 
L 448.188832 110.235557 
L 454.666981 110.859772 
L 466.96624 111.748826 
L 490.699808 113.263241 
L 496.675672 113.43157 
L 502.668109 113.380741 
L 508.791875 113.072087 
L 514.714774 112.531675 
L 521.381514 111.667211 
L 528.542131 110.485775 
L 536.502776 108.940888 
L 544.061919 107.325686 
L 544.061919 107.325686 
" style="fill:none;stroke:#000000;stroke-linecap:square;stroke-opacity:0.7;stroke-width:1.2;"/>
   </g>
   <g id="line2d_20">
    <path clip-path="url(#pbde3e47c3d)" d="M 543.803654 67.51752 
L 532.894199 67.717551 
L 511.505568 68.163419 
L 505.247333 68.042247 
L 499.453996 67.694523 
L 494.33574 67.161548 
L 489.317564 66.430938 
L 483.163877 65.303631 
L 469.767261 62.698982 
L 464.876935 62.04352 
L 461.628537 61.789737 
L 458.011516 61.722936 
L 455.120465 61.86155 
L 451.833941 62.260734 
L 448.625223 62.943446 
L 445.872227 63.817855 
L 444.236261 64.505989 
L 442.422409 65.49416 
L 441.305358 66.323607 
L 440.561348 67.172721 
L 440.367689 67.699314 
L 440.459952 68.144933 
L 440.802811 68.481101 
L 441.305942 68.7152 
L 442.326143 68.955739 
L 444.07772 69.131367 
L 447.734753 69.202341 
L 454.519497 69.042973 
L 500.244347 67.528396 
L 514.381919 67.417441 
L 531.609595 67.52995 
L 543.826746 67.695904 
L 543.826746 67.695904 
" style="fill:none;stroke:#000000;stroke-linecap:square;stroke-opacity:0.7;stroke-width:1.2;"/>
   </g>
   <g id="line2d_21">
    <path clip-path="url(#pbde3e47c3d)" d="M 675.440269 224.719127 
L 662.191928 221.063067 
L 652.395042 218.592087 
L 645.491662 217.064057 
L 638.726657 215.807998 
L 632.976795 214.966752 
L 627.448179 214.381816 
L 622.576934 214.070084 
L 617.990783 213.968722 
L 613.378488 214.066283 
L 608.2296 214.411411 
L 603.439138 214.940456 
L 597.782514 215.791224 
L 591.570885 216.975376 
L 585.577726 218.371535 
L 581.021263 219.653677 
L 577.658879 220.80004 
L 574.918923 221.96925 
L 572.810754 223.188437 
L 571.870031 223.975032 
L 571.364451 224.622563 
L 571.148663 225.202472 
L 571.160542 225.62288 
L 571.324788 226.006836 
L 571.783988 226.47626 
L 572.666704 226.955938 
L 574.66407 227.539238 
L 577.490996 227.987711 
L 581.916437 228.362324 
L 587.638068 228.564049 
L 594.399404 228.542347 
L 600.748561 228.307359 
L 607.886205 227.803104 
L 615.16056 227.042536 
L 633.699896 224.885726 
L 640.018036 224.468298 
L 647.26472 224.248799 
L 655.216214 224.26943 
L 664.235906 224.528087 
L 675.429663 225.024411 
L 675.429663 225.024411 
" style="fill:none;stroke:#000000;stroke-linecap:square;stroke-opacity:0.7;stroke-width:1.2;"/>
   </g>
   <g id="line2d_22">
    <path clip-path="url(#pbde3e47c3d)" d="M 675.15067 185.192868 
L 659.707027 181.968794 
L 649.870307 180.124919 
L 641.866831 178.858636 
L 634.6275 177.975722 
L 628.399489 177.455282 
L 622.044756 177.171547 
L 616.228387 177.136102 
L 609.887685 177.332497 
L 603.972942 177.715624 
L 597.603513 178.323239 
L 591.533032 179.093409 
L 585.452842 180.09652 
L 580.624302 181.142887 
L 577.8457 181.91334 
L 574.953039 182.959329 
L 573.273795 183.800376 
L 572.115846 184.656644 
L 571.650705 185.24686 
L 571.50494 185.662647 
L 571.602727 186.244925 
L 571.863092 186.587811 
L 572.457911 187.014394 
L 573.303121 187.390527 
L 574.679428 187.79847 
L 576.82606 188.219503 
L 580.571736 188.667781 
L 585.016584 188.945206 
L 590.74652 189.036038 
L 596.526866 188.884787 
L 602.425037 188.505764 
L 608.225626 187.927377 
L 615.555782 186.951026 
L 629.75978 184.936398 
L 635.780329 184.388644 
L 641.848785 184.106949 
L 647.939005 184.066386 
L 655.099891 184.25907 
L 664.659586 184.777387 
L 675.151648 185.483067 
L 675.151648 185.483067 
" style="fill:none;stroke:#000000;stroke-linecap:square;stroke-opacity:0.7;stroke-width:1.2;"/>
   </g>
   <g id="line2d_23">
    <path clip-path="url(#pbde3e47c3d)" d="M 675.249098 146.031208 
L 658.324089 140.627913 
L 644.083157 136.297843 
L 635.89214 134.021341 
L 628.833304 132.305816 
L 623.960131 131.31475 
L 618.882593 130.500214 
L 614.538689 130.014827 
L 609.81883 129.740796 
L 605.082374 129.756919 
L 601.063405 130.013901 
L 597.533787 130.432699 
L 593.60149 131.124176 
L 590.306208 131.901704 
L 586.667235 132.999249 
L 583.265082 134.298226 
L 580.215257 135.750512 
L 577.378446 137.433407 
L 575.785615 138.569816 
L 573.909702 140.15642 
L 572.707287 141.374517 
L 571.561091 142.783949 
L 570.874686 143.896676 
L 570.531578 144.891178 
L 570.593468 145.498427 
L 570.811872 145.812392 
L 571.497165 146.187072 
L 572.608305 146.409913 
L 575.141206 146.518136 
L 579.524388 146.376285 
L 589.156411 145.764275 
L 604.549525 144.788358 
L 611.661514 144.527507 
L 618.095545 144.501965 
L 625.211125 144.711071 
L 658.509293 146.053762 
L 673.785685 146.313864 
L 675.243626 146.327665 
L 675.243626 146.327665 
" style="fill:none;stroke:#000000;stroke-linecap:square;stroke-opacity:0.7;stroke-width:1.2;"/>
   </g>
   <g id="line2d_24">
    <path clip-path="url(#pbde3e47c3d)" d="M 675.327243 106.561325 
L 666.314302 104.95931 
L 656.203271 103.39316 
L 646.933689 102.179503 
L 637.57834 101.169375 
L 628.316669 100.370959 
L 618.673251 99.774896 
L 611.359918 99.533178 
L 604.334539 99.521026 
L 598.127542 99.725468 
L 592.830335 100.095601 
L 587.888703 100.652864 
L 583.877357 101.311185 
L 580.083532 102.178451 
L 576.966718 103.160205 
L 575.39938 103.795039 
L 573.256724 104.926357 
L 571.87371 106.007645 
L 571.27051 106.829198 
L 571.153502 107.448679 
L 571.348288 107.889784 
L 571.814061 108.251893 
L 572.635797 108.556599 
L 574.112637 108.81062 
L 577.231336 108.968338 
L 581.410398 108.912323 
L 589.064478 108.533521 
L 598.71255 107.822633 
L 613.112805 106.504597 
L 622.628382 105.696222 
L 629.871233 105.32078 
L 637.242771 105.196854 
L 645.672302 105.311655 
L 655.989685 105.708317 
L 670.660516 106.535625 
L 675.300472 106.818642 
L 675.300472 106.818642 
" style="fill:none;stroke:#000000;stroke-linecap:square;stroke-opacity:0.7;stroke-width:1.2;"/>
   </g>
   <g id="line2d_25">
    <path clip-path="url(#pbde3e47c3d)" d="M 675.490909 67.539183 
L 653.508332 63.982176 
L 623.027118 59.124767 
L 616.551047 58.378172 
L 610.931782 57.937972 
L 604.857104 57.722248 
L 599.658357 57.77804 
L 595.465089 58.004227 
L 591.053554 58.445463 
L 587.876776 58.918171 
L 584.246145 59.658107 
L 580.742301 60.636108 
L 578.214191 61.560973 
L 576.141813 62.510589 
L 573.899539 63.832634 
L 572.279548 65.14513 
L 571.549093 65.997296 
L 571.132274 66.863911 
L 571.116001 67.415092 
L 571.372062 67.911768 
L 572.144436 68.436733 
L 573.299982 68.8064 
L 574.900747 69.089706 
L 577.78832 69.367503 
L 583.044958 69.612059 
L 594.109737 69.816972 
L 612.063017 69.884871 
L 625.806144 69.726905 
L 639.18068 69.326362 
L 663.430724 68.30274 
L 675.477746 67.775117 
L 675.477746 67.775117 
" style="fill:none;stroke:#000000;stroke-linecap:square;stroke-opacity:0.7;stroke-width:1.2;"/>
   </g>
  </g>
 </g>
 <defs>
  <clipPath id="pbde3e47c3d">
   <rect height="262.08" width="694.08" x="12.96" y="12.96"/>
  </clipPath>
 </defs>
</svg>
