<?xml version="1.0" encoding="utf-8" standalone="no"?>
<!DOCTYPE svg PUBLIC "-//W3C//DTD SVG 1.1//EN"
  "http://www.w3.org/Graphics/SVG/1.1/DTD/svg11.dtd">
<!-- Created with matplotlib (https://matplotlib.org/) -->
<svg height="288pt" version="1.1" viewBox="0 0 720 288" width="720pt" xmlns="http://www.w3.org/2000/svg" xmlns:xlink="http://www.w3.org/1999/xlink">
 <metadata>
  <rdf:RDF xmlns:cc="http://creativecommons.org/ns#" xmlns:dc="http://purl.org/dc/elements/1.1/" xmlns:rdf="http://www.w3.org/1999/02/22-rdf-syntax-ns#">
   <cc:Work>
    <dc:type rdf:resource="http://purl.org/dc/dcmitype/StillImage"/>
    <dc:date>2020-11-06T17:41:33.338330</dc:date>
    <dc:format>image/svg+xml</dc:format>
    <dc:creator>
     <cc:Agent>
      <dc:title>Matplotlib v3.3.2, https://matplotlib.org/</dc:title>
     </cc:Agent>
    </dc:creator>
   </cc:Work>
  </rdf:RDF>
 </metadata>
 <defs>
  <style type="text/css">*{stroke-linecap:butt;stroke-linejoin:round;}</style>
 </defs>
 <g id="figure_1">
  <g id="patch_1">
   <path d="M 0 288 
L 720 288 
L 720 0 
L 0 0 
z
" style="fill:#ffffff;"/>
  </g>
  <g id="axes_1">
   <g id="line2d_1">
    <path clip-path="url(#p2b9d4768a2)" d="M 148.152828 226.06373 
L 126.526459 219.093794 
L 119.666907 217.177074 
L 113.542662 215.712225 
L 107.474891 214.54531 
L 102.616368 213.84636 
L 98.257931 213.418942 
L 94.766573 213.225209 
L 89.747388 213.193783 
L 85.387596 213.405082 
L 80.384825 213.898429 
L 75.09838 214.660735 
L 68.946986 215.789111 
L 62.970172 217.103299 
L 57.623183 218.507086 
L 53.868523 219.699377 
L 51.27322 220.685243 
L 48.271383 222.103396 
L 46.064816 223.529455 
L 45.15697 224.375878 
L 44.746858 224.942955 
L 44.584848 225.311951 
L 44.528649 225.744429 
L 44.730687 226.266987 
L 45.265703 226.696351 
L 46.11455 227.017736 
L 46.661541 227.141508 
L 49.081349 227.378637 
L 52.416854 227.363742 
L 58.021397 227.040707 
L 84.144809 225.195366 
L 95.166403 224.795471 
L 105.926697 224.612063 
L 113.857832 224.679706 
L 122.448672 225.000901 
L 131.470557 225.585679 
L 142.307354 226.54756 
L 148.165125 227.15456 
L 148.165125 227.15456 
" style="fill:none;stroke:#000000;stroke-linecap:square;stroke-opacity:0.7;stroke-width:1.2;"/>
   </g>
   <g id="line2d_2">
    <path clip-path="url(#p2b9d4768a2)" d="M 147.794783 186.477924 
L 116.337007 181.285999 
L 108.065801 180.184241 
L 98.255586 179.115991 
L 90.394007 178.493796 
L 83.103154 178.158289 
L 77.165407 178.095308 
L 71.331362 178.243002 
L 65.4092 178.627722 
L 60.129292 179.199976 
L 56.176687 179.804289 
L 52.55637 180.537966 
L 49.276382 181.430863 
L 47.97932 181.881885 
L 46.11067 182.72272 
L 45.032746 183.46188 
L 44.560759 184.095609 
L 44.509091 184.385411 
L 44.718238 184.864066 
L 45.169291 185.196301 
L 46.157802 185.550198 
L 47.791347 185.807299 
L 50.042644 185.895182 
L 54.350858 185.674096 
L 58.598595 185.214513 
L 74.384629 183.290318 
L 80.192063 182.895378 
L 85.731596 182.75696 
L 91.771518 182.860566 
L 98.593689 183.241282 
L 108.056981 184.034146 
L 141.721537 187.004751 
L 147.769435 187.41238 
L 147.769435 187.41238 
" style="fill:none;stroke:#000000;stroke-linecap:square;stroke-opacity:0.7;stroke-width:1.2;"/>
   </g>
   <g id="line2d_3">
    <path clip-path="url(#p2b9d4768a2)" d="M 148.078878 146.47618 
L 130.723574 141.103896 
L 122.591957 138.845852 
L 116.568765 137.391358 
L 111.125688 136.30119 
L 106.31329 135.560884 
L 101.598732 135.077679 
L 96.601757 134.860103 
L 92.358256 134.922106 
L 88.457438 135.163891 
L 83.033265 135.732034 
L 75.438238 136.807347 
L 66.899484 138.235015 
L 62.274883 139.124762 
L 57.657777 140.175914 
L 54.211747 141.147215 
L 50.935644 142.329426 
L 48.847317 143.314279 
L 47.631953 144.041062 
L 46.213165 145.227005 
L 45.818097 145.756005 
L 45.581829 146.341571 
L 45.624212 146.961701 
L 45.822754 147.303225 
L 46.346102 147.739975 
L 47.26213 148.143742 
L 48.860009 148.520373 
L 51.362881 148.810304 
L 54.727353 148.972505 
L 61.503112 149.00376 
L 72.605526 148.775206 
L 89.74499 148.191566 
L 102.429704 147.535698 
L 114.398995 146.96738 
L 122.478156 146.802172 
L 130.656627 146.833464 
L 141.109114 147.097385 
L 148.071391 147.344161 
L 148.071391 147.344161 
" style="fill:none;stroke:#000000;stroke-linecap:square;stroke-opacity:0.7;stroke-width:1.2;"/>
   </g>
   <g id="line2d_4">
    <path clip-path="url(#p2b9d4768a2)" d="M 147.997755 107.928512 
L 128.895466 102.092583 
L 119.447672 99.446317 
L 111.969844 97.533692 
L 105.124531 95.976202 
L 98.584467 94.732083 
L 93.987164 94.050934 
L 89.084138 93.544219 
L 84.503749 93.302329 
L 79.786808 93.298826 
L 74.982212 93.551084 
L 69.927757 94.091578 
L 65.215778 94.854752 
L 61.143595 95.733685 
L 57.532651 96.711982 
L 53.701724 98.011164 
L 50.814199 99.241698 
L 49.704914 99.798339 
L 47.650939 101.024489 
L 45.953708 102.400664 
L 44.838135 103.902732 
L 44.645461 104.401694 
L 44.567336 105.574039 
L 44.675521 105.994494 
L 45.209674 106.941375 
L 45.980921 107.714261 
L 47.223592 108.547682 
L 48.621728 109.217339 
L 51.120039 110.056756 
L 54.552879 110.79578 
L 57.249343 111.172469 
L 62.098435 111.570892 
L 67.610521 111.755386 
L 75.226534 111.76103 
L 88.329005 111.494711 
L 99.49589 111.07089 
L 111.592335 110.310479 
L 127.665013 109.32145 
L 138.556744 108.870942 
L 148.107583 108.661483 
L 148.107583 108.661483 
" style="fill:none;stroke:#000000;stroke-linecap:square;stroke-opacity:0.7;stroke-width:1.2;"/>
   </g>
   <g id="line2d_5">
    <path clip-path="url(#p2b9d4768a2)" d="M 148.217487 68.46714 
L 138.44508 66.406499 
L 130.202786 64.903576 
L 123.956442 63.98244 
L 118.470339 63.377263 
L 112.662824 62.982276 
L 106.729613 62.857633 
L 101.063792 62.98659 
L 94.355296 63.3783 
L 79.89487 64.338517 
L 74.577055 64.446853 
L 68.860082 64.340272 
L 56.703258 63.978314 
L 53.38092 64.181865 
L 51.857905 64.387495 
L 49.542725 64.929573 
L 48.174149 65.492185 
L 47.210023 66.182097 
L 46.80792 66.777376 
L 46.72538 67.330049 
L 46.837629 67.752363 
L 47.130113 68.210479 
L 47.940485 68.912292 
L 48.679661 69.34444 
L 50.615455 70.140279 
L 52.891523 70.785174 
L 56.179791 71.437526 
L 59.176411 71.853332 
L 64.145902 72.285846 
L 69.529341 72.475431 
L 75.064404 72.412573 
L 80.204838 72.132182 
L 85.584702 71.608653 
L 91.076196 70.834759 
L 98.38093 69.519019 
L 105.988458 68.150676 
L 110.603322 67.5218 
L 115.484729 67.099091 
L 120.423634 66.931522 
L 125.247398 66.998812 
L 130.788918 67.313623 
L 137.377119 67.935712 
L 148.18125 69.219592 
L 148.18125 69.219592 
" style="fill:none;stroke:#000000;stroke-linecap:square;stroke-opacity:0.7;stroke-width:1.2;"/>
   </g>
   <g id="line2d_6">
    <path clip-path="url(#p2b9d4768a2)" d="M 279.627078 225.341496 
L 270.010392 224.867402 
L 260.76997 224.231666 
L 253.660189 223.561481 
L 246.015575 222.609185 
L 237.063058 221.21359 
L 223.202562 218.961943 
L 217.449364 218.279467 
L 211.697419 217.873224 
L 206.772839 217.765296 
L 201.957521 217.880588 
L 196.859334 218.256933 
L 193.851976 218.615284 
L 188.988366 219.445738 
L 185.495187 220.273485 
L 183.504589 220.853985 
L 179.968533 222.156756 
L 178.173125 223.039968 
L 177.013472 223.826396 
L 176.574173 224.461466 
L 176.672616 224.680627 
L 177.042225 224.840595 
L 177.763625 224.904885 
L 179.427824 224.788462 
L 182.972833 224.234371 
L 194.016129 222.307548 
L 199.155936 221.646365 
L 203.585015 221.27586 
L 208.403221 221.119273 
L 212.343171 221.200694 
L 216.7811 221.527041 
L 221.774733 222.176184 
L 227.921591 223.26685 
L 235.577102 224.647976 
L 241.205868 225.435318 
L 246.492998 225.968611 
L 252.761477 226.380153 
L 260.183976 226.617986 
L 267.550134 226.642515 
L 277.2737 226.438267 
L 279.603459 226.360451 
L 279.603459 226.360451 
" style="fill:none;stroke:#000000;stroke-linecap:square;stroke-opacity:0.7;stroke-width:1.2;"/>
   </g>
   <g id="line2d_7">
    <path clip-path="url(#p2b9d4768a2)" d="M 279.701569 186.524935 
L 267.295178 183.636486 
L 253.21474 180.139948 
L 239.332993 176.450841 
L 226.115055 172.947507 
L 220.951056 171.797956 
L 216.630814 171.053612 
L 213.690769 170.69764 
L 209.867755 170.450226 
L 206.948184 170.442051 
L 203.602973 170.639331 
L 200.075077 171.099203 
L 196.626276 171.809894 
L 192.914393 172.873447 
L 189.872564 173.981419 
L 186.532187 175.451113 
L 182.991658 177.325926 
L 180.948895 178.591878 
L 177.984393 180.832622 
L 176.848746 181.981092 
L 176.356743 182.646401 
L 176.015695 183.38764 
L 175.986394 183.986706 
L 176.263686 184.487196 
L 176.84694 184.864088 
L 177.703517 185.11938 
L 178.795965 185.268872 
L 180.776155 185.335704 
L 185.139373 185.152503 
L 201.007254 184.185754 
L 207.206314 184.122649 
L 212.693624 184.317281 
L 217.617142 184.730653 
L 223.034079 185.461239 
L 238.561694 187.893841 
L 243.332449 188.243402 
L 248.469541 188.405081 
L 255.79801 188.373908 
L 263.930739 188.119967 
L 279.679968 187.375974 
L 279.679968 187.375974 
" style="fill:none;stroke:#000000;stroke-linecap:square;stroke-opacity:0.7;stroke-width:1.2;"/>
   </g>
   <g id="line2d_8">
    <path clip-path="url(#p2b9d4768a2)" d="M 279.933076 147.13007 
L 270.371737 145.005624 
L 234.743539 136.882123 
L 228.320603 135.698985 
L 222.475565 134.853255 
L 218.340974 134.441931 
L 213.958022 134.212718 
L 210.519834 134.196331 
L 206.318746 134.380501 
L 202.087004 134.800233 
L 197.839238 135.470259 
L 193.75742 136.371046 
L 190.099744 137.423499 
L 186.730666 138.640469 
L 184.096525 139.803094 
L 181.310988 141.323076 
L 179.452366 142.623613 
L 178.456486 143.526024 
L 177.687469 144.532616 
L 177.471119 145.075382 
L 177.468532 145.649144 
L 177.715376 146.083399 
L 178.177385 146.416084 
L 178.587738 146.583639 
L 180.079368 146.854883 
L 182.276328 146.893734 
L 184.829504 146.741399 
L 203.990596 145.148146 
L 207.947777 145.061596 
L 213.847402 145.137844 
L 219.893195 145.442386 
L 230.185098 146.24395 
L 238.905738 146.839758 
L 248.160362 147.230347 
L 260.255971 147.503013 
L 279.950615 147.858243 
L 279.950615 147.858243 
" style="fill:none;stroke:#000000;stroke-linecap:square;stroke-opacity:0.7;stroke-width:1.2;"/>
   </g>
   <g id="line2d_9">
    <path clip-path="url(#p2b9d4768a2)" d="M 279.995697 107.997991 
L 267.404912 105.702081 
L 259.730053 104.53879 
L 253.986354 103.848989 
L 247.606871 103.306841 
L 241.23375 103.025869 
L 235.37347 102.99611 
L 228.077022 103.220382 
L 215.306416 103.951446 
L 205.23813 104.409065 
L 184.048276 105.161255 
L 180.41655 105.599764 
L 178.373077 106.089481 
L 177.254967 106.638234 
L 176.945925 106.98386 
L 176.864518 107.268159 
L 176.968963 107.66132 
L 177.439444 108.176738 
L 178.064931 108.589173 
L 179.57019 109.271674 
L 181.877872 110.004704 
L 184.584533 110.640683 
L 188.114735 111.253394 
L 192.799504 111.791804 
L 197.446174 112.065556 
L 202.534257 112.093439 
L 207.723176 111.850914 
L 213.602482 111.286676 
L 220.174306 110.377194 
L 238.315639 107.629385 
L 244.339448 107.083539 
L 249.678612 106.828217 
L 255.846731 106.786416 
L 262.017189 106.987624 
L 268.219941 107.398694 
L 276.182855 108.167251 
L 279.890389 108.596544 
L 279.890389 108.596544 
" style="fill:none;stroke:#000000;stroke-linecap:square;stroke-opacity:0.7;stroke-width:1.2;"/>
   </g>
   <g id="line2d_10">
    <path clip-path="url(#p2b9d4768a2)" d="M 279.623928 68.209117 
L 271.37013 66.614916 
L 254.752284 63.156222 
L 236.897617 59.202381 
L 226.526666 56.980528 
L 219.516155 55.720724 
L 214.993415 55.091202 
L 209.769463 54.597158 
L 205.01621 54.404477 
L 200.522507 54.489516 
L 197.21896 54.750188 
L 193.400455 55.304505 
L 190.118163 56.039154 
L 187.397987 56.859998 
L 184.708032 57.890546 
L 182.065904 59.154592 
L 181.055384 59.71787 
L 178.216565 61.629247 
L 176.362958 63.331599 
L 175.437738 64.547093 
L 175.017608 65.415837 
L 174.85651 66.319439 
L 174.998049 67.01877 
L 175.417936 67.643384 
L 175.545749 67.766238 
L 176.440296 68.342638 
L 178.220437 68.93296 
L 179.983455 69.253979 
L 184.280253 69.650276 
L 192.453962 69.98989 
L 204.730371 70.530858 
L 213.324948 71.136439 
L 231.519777 72.596732 
L 235.88606 72.67297 
L 241.561574 72.530005 
L 248.106944 72.13019 
L 257.659619 71.303693 
L 273.501268 69.66068 
L 279.570265 68.981601 
L 279.570265 68.981601 
" style="fill:none;stroke:#000000;stroke-linecap:square;stroke-opacity:0.7;stroke-width:1.2;"/>
   </g>
   <g id="line2d_11">
    <path clip-path="url(#p2b9d4768a2)" d="M 411.694664 226.45018 
L 390.362241 220.559157 
L 381.79409 218.451752 
L 375.678861 217.118035 
L 369.717523 216.011264 
L 364.848677 215.295235 
L 360.180345 214.808022 
L 355.777835 214.554424 
L 350.993167 214.513575 
L 345.893575 214.714463 
L 340.389992 215.158751 
L 334.438298 215.848769 
L 328.111149 216.810988 
L 322.81606 217.855926 
L 318.933358 218.841904 
L 315.756203 219.879053 
L 313.185733 220.985909 
L 311.842317 221.74114 
L 311.279347 222.121932 
L 310.064104 223.215796 
L 309.461368 224.226399 
L 309.349248 224.967843 
L 309.395236 225.294201 
L 309.82005 226.143796 
L 310.648336 226.914241 
L 311.724807 227.550376 
L 313.839494 228.38729 
L 315.746401 228.926079 
L 319.537444 229.70273 
L 324.163932 230.361489 
L 330.136603 230.944368 
L 336.509685 231.343894 
L 343.771232 231.572535 
L 350.459951 231.563652 
L 356.220341 231.355862 
L 362.05825 230.936362 
L 370.170836 230.0881 
L 382.830574 228.729114 
L 390.369735 228.133555 
L 398.972908 227.686562 
L 410.677084 227.352895 
L 411.746146 227.328648 
L 411.746146 227.328648 
" style="fill:none;stroke:#000000;stroke-linecap:square;stroke-opacity:0.7;stroke-width:1.2;"/>
   </g>
   <g id="line2d_12">
    <path clip-path="url(#p2b9d4768a2)" d="M 411.379394 185.892104 
L 398.893684 182.838603 
L 387.157968 180.059431 
L 379.648084 178.47893 
L 372.381646 177.173432 
L 366.563839 176.317877 
L 360.566472 175.642107 
L 356.060886 175.297452 
L 350.598135 175.101479 
L 345.295112 175.169143 
L 340.561949 175.448454 
L 335.958447 175.909793 
L 331.343545 176.5505 
L 325.739652 177.567722 
L 321.254839 178.592333 
L 316.643213 179.901676 
L 314.051527 180.802346 
L 310.990477 182.127272 
L 309.87675 182.733928 
L 308.544746 183.656764 
L 307.752552 184.519535 
L 307.57125 184.92083 
L 307.56225 185.390495 
L 307.727488 185.711609 
L 308.076444 186.017877 
L 308.793329 186.346019 
L 310.038683 186.630138 
L 313.017495 186.838291 
L 316.571407 186.760948 
L 322.573889 186.325802 
L 347.373062 184.150756 
L 353.81225 183.937728 
L 360.310058 183.962052 
L 368.876568 184.282492 
L 383.624933 185.127532 
L 411.427424 186.826974 
L 411.427424 186.826974 
" style="fill:none;stroke:#000000;stroke-linecap:square;stroke-opacity:0.7;stroke-width:1.2;"/>
   </g>
   <g id="line2d_13">
    <path clip-path="url(#p2b9d4768a2)" d="M 411.896579 145.473642 
L 403.764095 143.42142 
L 381.829264 137.793912 
L 373.618737 135.980319 
L 366.864311 134.720878 
L 361.033622 133.863645 
L 356.691974 133.412195 
L 352.584837 133.172001 
L 348.126385 133.148026 
L 343.430517 133.397345 
L 338.778514 133.901752 
L 334.021055 134.650112 
L 328.767185 135.722371 
L 324.318056 136.833298 
L 321.181492 137.745094 
L 316.85369 139.234454 
L 313.628699 140.606946 
L 310.951464 142.060998 
L 309.338196 143.238691 
L 309.071118 143.480249 
L 308.083484 144.69795 
L 307.791571 145.550871 
L 307.881941 146.348663 
L 308.181113 146.879308 
L 308.695013 147.391341 
L 309.895345 148.107681 
L 311.525139 148.716226 
L 314.595447 149.440915 
L 317.442139 149.888206 
L 323.28464 150.500365 
L 331.942178 151.067159 
L 342.032043 151.493923 
L 351.302478 151.689376 
L 357.789548 151.63026 
L 364.000844 151.339244 
L 370.946587 150.762117 
L 384.490947 149.335168 
L 411.850385 146.35066 
L 411.850385 146.35066 
" style="fill:none;stroke:#000000;stroke-linecap:square;stroke-opacity:0.7;stroke-width:1.2;"/>
   </g>
   <g id="line2d_14">
    <path clip-path="url(#p2b9d4768a2)" d="M 411.768589 107.549453 
L 399.685251 104.963481 
L 382.845436 101.139957 
L 362.542191 96.505512 
L 355.821373 95.265198 
L 351.354579 94.663646 
L 347.074373 94.311064 
L 342.888335 94.199208 
L 338.764268 94.313432 
L 335.209893 94.584254 
L 330.22924 95.229918 
L 327.018236 95.821531 
L 323.44335 96.669836 
L 320.759571 97.469591 
L 317.411783 98.736089 
L 315.428667 99.689049 
L 314.119873 100.441682 
L 312.41514 101.655016 
L 310.972705 103.085325 
L 310.268311 104.171272 
L 309.921345 105.319437 
L 309.941267 105.951867 
L 310.14062 106.5454 
L 310.697286 107.23874 
L 311.810841 107.888897 
L 313.503936 108.335982 
L 315.669141 108.54539 
L 319.140791 108.545356 
L 334.986933 108.049851 
L 340.411097 108.17259 
L 347.200531 108.574371 
L 356.20983 109.388295 
L 364.461789 110.066151 
L 369.934715 110.281352 
L 376.352076 110.268739 
L 384.520488 109.980218 
L 399.468135 109.155594 
L 411.822843 108.483662 
L 411.822843 108.483662 
" style="fill:none;stroke:#000000;stroke-linecap:square;stroke-opacity:0.7;stroke-width:1.2;"/>
   </g>
   <g id="line2d_15">
    <path clip-path="url(#p2b9d4768a2)" d="M 412.045756 68.335943 
L 402.67078 66.817245 
L 390.452002 65.033719 
L 342.701197 58.52362 
L 337.544103 58.152865 
L 331.77154 58.074808 
L 327.039945 58.340768 
L 323.196198 58.815941 
L 320.183855 59.375778 
L 317.020243 60.171963 
L 314.382762 61.037959 
L 310.829753 62.659876 
L 309.716194 63.383451 
L 308.601024 64.458866 
L 308.261552 65.217536 
L 308.25544 65.560255 
L 308.595907 66.252138 
L 309.201714 66.736436 
L 310.206721 67.202524 
L 312.042269 67.697685 
L 315.419756 68.150948 
L 319.049852 68.349286 
L 322.05296 68.40045 
L 332.123814 68.264659 
L 351.267983 67.888734 
L 359.844552 67.940658 
L 374.082216 68.336353 
L 391.595007 68.677756 
L 412.052646 69.01937 
L 412.052646 69.01937 
" style="fill:none;stroke:#000000;stroke-linecap:square;stroke-opacity:0.7;stroke-width:1.2;"/>
   </g>
   <g id="line2d_16">
    <path clip-path="url(#p2b9d4768a2)" d="M 542.854052 225.917702 
L 530.339612 221.209859 
L 524.156443 219.137173 
L 519.741677 217.832349 
L 514.461764 216.50976 
L 509.690337 215.568404 
L 505.226522 214.923812 
L 500.153403 214.478463 
L 496.454646 214.347228 
L 492.571556 214.381239 
L 487.869144 214.645026 
L 483.775998 215.051743 
L 477.469478 215.929439 
L 468.068041 217.55274 
L 444.888901 221.842915 
L 441.676626 222.686445 
L 440.146119 223.24686 
L 438.738848 224.043991 
L 438.114913 224.773612 
L 437.987141 225.267487 
L 438.090991 225.844997 
L 438.462338 226.461108 
L 439.210959 227.194478 
L 440.769699 228.225898 
L 443.707208 229.587354 
L 444.81986 230.002329 
L 449.238907 231.320423 
L 452.727858 232.085766 
L 456.541097 232.709873 
L 459.950058 233.110706 
L 464.056538 233.425232 
L 468.924782 233.591032 
L 474.020084 233.549416 
L 478.848104 233.316247 
L 484.128124 232.838837 
L 489.076424 232.16648 
L 493.245576 231.432147 
L 500.685539 229.863837 
L 508.621181 228.236288 
L 513.162529 227.489157 
L 518.279221 226.859041 
L 522.868964 226.488314 
L 528.309004 226.273152 
L 534.461784 226.286779 
L 541.661866 226.565944 
L 542.89572 226.632495 
L 542.89572 226.632495 
" style="fill:none;stroke:#000000;stroke-linecap:square;stroke-opacity:0.7;stroke-width:1.2;"/>
   </g>
   <g id="line2d_17">
    <path clip-path="url(#p2b9d4768a2)" d="M 543.689293 186.464515 
L 517.983823 176.901625 
L 510.045798 174.269259 
L 504.261669 172.536772 
L 497.879772 170.871528 
L 492.482065 169.740975 
L 488.032248 169.069558 
L 483.805042 168.705084 
L 480.133226 168.633824 
L 476.607487 168.789759 
L 473.246342 169.139787 
L 469.896228 169.674368 
L 465.345943 170.675894 
L 460.909703 171.935766 
L 456.314912 173.524434 
L 451.380738 175.570968 
L 447.631028 177.41868 
L 444.666957 179.15213 
L 441.915955 181.202302 
L 440.768187 182.401608 
L 440.354058 183.002124 
L 440.045632 183.675131 
L 439.969785 184.630749 
L 440.23483 185.246649 
L 440.756941 185.769178 
L 441.855216 186.334058 
L 442.139025 186.431236 
L 444.995567 186.9564 
L 447.914462 187.103261 
L 451.840211 187.074461 
L 470.870517 186.653994 
L 479.383807 186.780077 
L 507.931307 187.526703 
L 543.644356 187.412849 
L 543.644356 187.412849 
" style="fill:none;stroke:#000000;stroke-linecap:square;stroke-opacity:0.7;stroke-width:1.2;"/>
   </g>
   <g id="line2d_18">
    <path clip-path="url(#p2b9d4768a2)" d="M 543.234113 147.20485 
L 524.841646 144.2133 
L 506.866017 141.543025 
L 494.6618 139.89698 
L 488.049672 139.192897 
L 482.49682 138.799941 
L 477.608448 138.625403 
L 470.967936 138.622751 
L 464.015821 138.877814 
L 458.823234 139.256296 
L 453.761805 139.841611 
L 450.054073 140.478168 
L 447.677646 141.029501 
L 444.959492 141.881311 
L 443.538355 142.48124 
L 442.693241 142.924042 
L 441.250604 143.98727 
L 440.706955 144.677277 
L 440.446675 145.453813 
L 440.49427 145.996601 
L 440.833499 146.653731 
L 441.481775 147.268262 
L 442.316148 147.77241 
L 443.781755 148.368116 
L 445.635298 148.876769 
L 447.949383 149.317032 
L 452.621817 149.878497 
L 459.537386 150.351552 
L 470.423598 150.792741 
L 483.46978 151.106765 
L 491.320307 151.095953 
L 498.301243 150.848824 
L 507.572489 150.235019 
L 531.362473 148.534046 
L 543.291271 147.899388 
L 543.291271 147.899388 
" style="fill:none;stroke:#000000;stroke-linecap:square;stroke-opacity:0.7;stroke-width:1.2;"/>
   </g>
   <g id="line2d_19">
    <path clip-path="url(#p2b9d4768a2)" d="M 543.144717 107.195116 
L 535.040315 105.023915 
L 527.804719 103.287831 
L 520.463708 101.774029 
L 514.20745 100.716843 
L 507.944999 99.887313 
L 501.482331 99.258815 
L 494.287787 98.79495 
L 486.593452 98.537586 
L 479.257989 98.523615 
L 472.395343 98.739898 
L 465.492455 99.193682 
L 459.285007 99.804835 
L 453.220656 100.602052 
L 448.649511 101.370187 
L 443.832435 102.435314 
L 441.327425 103.183134 
L 438.749276 104.268617 
L 437.461005 105.121131 
L 436.927937 105.67839 
L 436.588453 106.404773 
L 436.580355 106.792027 
L 436.639869 107.025262 
L 437.056346 107.622119 
L 437.665646 108.04724 
L 438.910573 108.524789 
L 439.64126 108.694465 
L 441.917199 108.963215 
L 444.518109 109.000288 
L 449.043462 108.724202 
L 455.463805 107.992674 
L 481.823102 104.598674 
L 488.395819 104.089515 
L 494.00036 103.896797 
L 499.782741 103.954732 
L 506.255921 104.271637 
L 514.477236 104.924948 
L 525.451378 106.047279 
L 543.240997 108.134024 
L 543.240997 108.134024 
" style="fill:none;stroke:#000000;stroke-linecap:square;stroke-opacity:0.7;stroke-width:1.2;"/>
   </g>
   <g id="line2d_20">
    <path clip-path="url(#p2b9d4768a2)" d="M 543.481638 67.211163 
L 521.50016 60.602885 
L 514.475834 58.750497 
L 508.023947 57.27094 
L 503.019831 56.312432 
L 498.110712 55.565219 
L 493.251636 55.042318 
L 488.998805 54.781458 
L 484.618355 54.71722 
L 480.311937 54.857384 
L 476.033815 55.185887 
L 470.755245 55.825084 
L 465.122018 56.75743 
L 460.719233 57.649759 
L 454.659227 59.114552 
L 449.25123 60.70265 
L 446.413623 61.694068 
L 443.374056 62.977454 
L 442.047141 63.675049 
L 440.128371 65.099763 
L 439.491401 66.024142 
L 439.34372 66.92727 
L 439.410367 67.271126 
L 439.7514 67.965888 
L 440.496802 68.769354 
L 441.649106 69.573496 
L 444.114352 70.704918 
L 446.118461 71.346349 
L 448.861441 71.995994 
L 452.084098 72.533425 
L 455.969691 72.952315 
L 460.540091 73.204216 
L 464.447405 73.253273 
L 470.551726 73.075285 
L 475.622591 72.726468 
L 481.810083 72.097037 
L 489.69413 71.070969 
L 499.539937 69.803772 
L 506.765192 69.119634 
L 514.846251 68.599505 
L 524.29321 68.228371 
L 536.326744 67.99921 
L 543.502082 67.938747 
L 543.502082 67.938747 
" style="fill:none;stroke:#000000;stroke-linecap:square;stroke-opacity:0.7;stroke-width:1.2;"/>
   </g>
   <g id="line2d_21">
    <path clip-path="url(#p2b9d4768a2)" d="M 675.239794 225.863908 
L 664.666528 223.708811 
L 641.463958 218.938505 
L 632.228439 217.291043 
L 626.504757 216.452133 
L 620.414602 215.797063 
L 615.882649 215.500952 
L 609.863037 215.357594 
L 604.35433 215.442925 
L 597.38669 215.808657 
L 591.597457 216.353865 
L 587.099838 216.992749 
L 583.370827 217.738268 
L 580.159631 218.608885 
L 577.344284 219.622712 
L 574.775037 220.864427 
L 573.030908 222.028509 
L 571.9607 223.093785 
L 571.56321 223.821772 
L 571.516756 224.460786 
L 571.775315 224.962687 
L 572.432265 225.441732 
L 573.520403 225.822515 
L 574.96598 226.081395 
L 577.996305 226.288648 
L 582.624175 226.276839 
L 591.686928 225.933909 
L 603.893652 225.500266 
L 612.518914 225.412391 
L 622.224026 225.559566 
L 647.936541 226.113359 
L 675.183038 226.381929 
L 675.183038 226.381929 
" style="fill:none;stroke:#000000;stroke-linecap:square;stroke-opacity:0.7;stroke-width:1.2;"/>
   </g>
   <g id="line2d_22">
    <path clip-path="url(#p2b9d4768a2)" d="M 675.490909 187.670031 
L 662.51692 186.157959 
L 638.465366 183.458796 
L 630.009985 182.251076 
L 611.349933 179.42529 
L 606.295224 178.926849 
L 601.433291 178.648965 
L 597.137253 178.594999 
L 592.898898 178.752573 
L 588.848107 179.144333 
L 585.653952 179.657966 
L 582.307932 180.434504 
L 579.384643 181.365042 
L 577.171533 182.285959 
L 575.57514 183.142078 
L 574.462926 183.970391 
L 574.041296 184.55712 
L 574.064595 184.917463 
L 574.38784 185.181001 
L 575.429587 185.413743 
L 576.816938 185.46711 
L 580.490669 185.282288 
L 599.9579 183.745951 
L 605.962333 183.577615 
L 610.551044 183.615661 
L 616.412675 183.899351 
L 622.164903 184.409347 
L 643.123325 186.524833 
L 654.40019 187.299586 
L 667.478997 187.947935 
L 675.434499 188.24064 
L 675.434499 188.24064 
" style="fill:none;stroke:#000000;stroke-linecap:square;stroke-opacity:0.7;stroke-width:1.2;"/>
   </g>
   <g id="line2d_23">
    <path clip-path="url(#p2b9d4768a2)" d="M 675.248313 146.579532 
L 666.120151 145.47082 
L 652.458614 143.59488 
L 641.749046 141.905651 
L 630.411899 139.87717 
L 620.239427 138.106328 
L 614.696763 137.372655 
L 609.968531 136.966124 
L 604.963874 136.779268 
L 600.736265 136.814365 
L 594.854921 137.154046 
L 590.508588 137.636512 
L 586.242656 138.336073 
L 582.655058 139.145244 
L 580.301023 139.821943 
L 577.28395 140.929566 
L 574.838965 142.139474 
L 573.064914 143.361915 
L 572.139728 144.286312 
L 571.719026 144.921577 
L 571.500715 145.56158 
L 571.501191 146.004804 
L 571.880084 146.697948 
L 572.006141 146.808151 
L 572.814182 147.225741 
L 574.098055 147.497727 
L 576.114024 147.580868 
L 579.362876 147.375419 
L 584.954289 146.715761 
L 594.89577 145.543577 
L 601.086043 145.043385 
L 606.381698 144.816006 
L 610.347158 144.783323 
L 616.763764 144.992753 
L 622.978486 145.460015 
L 637.620946 146.719111 
L 646.63828 147.20954 
L 655.881871 147.468306 
L 666.331025 147.508849 
L 675.330354 147.351018 
L 675.330354 147.351018 
" style="fill:none;stroke:#000000;stroke-linecap:square;stroke-opacity:0.7;stroke-width:1.2;"/>
   </g>
   <g id="line2d_24">
    <path clip-path="url(#p2b9d4768a2)" d="M 674.688321 107.097849 
L 661.172093 104.15586 
L 649.396111 101.379901 
L 640.260544 99.006853 
L 619.92922 93.559215 
L 615.081039 92.576267 
L 610.72157 91.939849 
L 606.350016 91.581024 
L 602.87655 91.509259 
L 598.956807 91.660068 
L 595.244056 92.031687 
L 591.880862 92.563972 
L 587.186798 93.632379 
L 583.295686 94.83182 
L 581.390645 95.536321 
L 578.336642 96.855856 
L 575.663601 98.252974 
L 573.359448 99.724589 
L 571.426043 101.30605 
L 570.435461 102.395121 
L 569.969063 103.085152 
L 569.632138 103.8169 
L 569.486969 104.714046 
L 569.539552 105.111792 
L 569.677199 105.499456 
L 570.315168 106.296034 
L 570.699734 106.578763 
L 571.990146 107.18888 
L 574.265694 107.753594 
L 574.708951 107.825992 
L 578.352669 108.194134 
L 582.826228 108.385899 
L 595.386405 108.845216 
L 601.964546 109.34662 
L 608.025647 110.01022 
L 616.853183 111.238742 
L 624.34233 112.268141 
L 628.945149 112.705599 
L 632.920256 112.891827 
L 637.401246 112.884702 
L 642.298394 112.652142 
L 648.489372 112.100658 
L 655.276018 111.256727 
L 664.011689 109.92159 
L 674.772374 108.08016 
L 674.772374 108.08016 
" style="fill:none;stroke:#000000;stroke-linecap:square;stroke-opacity:0.7;stroke-width:1.2;"/>
   </g>
   <g id="line2d_25">
    <path clip-path="url(#p2b9d4768a2)" d="M 674.563329 68.286655 
L 653.950913 65.279188 
L 644.482812 63.676884 
L 634.331451 61.710709 
L 617.870303 58.436318 
L 612.583856 57.613236 
L 606.518612 56.92865 
L 601.887735 56.621571 
L 597.679031 56.530347 
L 594.313308 56.612418 
L 591.33703 56.827023 
L 587.710018 57.317042 
L 584.774932 57.94802 
L 582.567972 58.596932 
L 580.138536 59.528461 
L 577.445379 60.916234 
L 575.527744 62.256294 
L 573.876875 63.932963 
L 573.343276 64.849863 
L 573.173152 65.855202 
L 573.431245 66.487444 
L 573.81082 66.846884 
L 574.449843 67.178615 
L 575.910791 67.537043 
L 577.919753 67.720602 
L 581.031609 67.78695 
L 590.926519 67.920094 
L 596.550341 68.24442 
L 601.488085 68.698659 
L 609.532091 69.702719 
L 622.54651 71.420417 
L 627.838833 71.845022 
L 633.141855 72.013879 
L 637.806893 71.973891 
L 644.256134 71.703941 
L 652.473381 71.124665 
L 665.07784 69.96633 
L 674.55664 69.016294 
L 674.55664 69.016294 
" style="fill:none;stroke:#000000;stroke-linecap:square;stroke-opacity:0.7;stroke-width:1.2;"/>
   </g>
  </g>
 </g>
 <defs>
  <clipPath id="p2b9d4768a2">
   <rect height="262.08" width="694.08" x="12.96" y="12.96"/>
  </clipPath>
 </defs>
</svg>
