<svg viewBox="0 0 1496 400" xmlns="http://www.w3.org/2000/svg"><g><g><g><g><g><line x1="50" y1="378" x2="45" y2="378" style="visibility: inherit;" fill="rgb(0, 0, 0)" stroke="rgb(204, 204, 204)" stroke-width="1px"></line><line x1="50" y1="340.2" x2="45" y2="340.2" style="visibility: inherit;" fill="rgb(0, 0, 0)" stroke="rgb(204, 204, 204)" stroke-width="1px"></line><line x1="50" y1="302.4" x2="45" y2="302.4" style="visibility: inherit;" fill="rgb(0, 0, 0)" stroke="rgb(204, 204, 204)" stroke-width="1px"></line><line x1="50" y1="264.6" x2="45" y2="264.6" style="visibility: inherit;" fill="rgb(0, 0, 0)" stroke="rgb(204, 204, 204)" stroke-width="1px"></line><line x1="50" y1="226.79999999999998" x2="45" y2="226.79999999999998" style="visibility: inherit;" fill="rgb(0, 0, 0)" stroke="rgb(204, 204, 204)" stroke-width="1px"></line><line x1="50" y1="189" x2="45" y2="189" style="visibility: inherit;" fill="rgb(0, 0, 0)" stroke="rgb(204, 204, 204)" stroke-width="1px"></line><line x1="50" y1="151.20000000000002" x2="45" y2="151.20000000000002" style="visibility: inherit;" fill="rgb(0, 0, 0)" stroke="rgb(204, 204, 204)" stroke-width="1px"></line><line x1="50" y1="113.40000000000003" x2="45" y2="113.40000000000003" style="visibility: inherit;" fill="rgb(0, 0, 0)" stroke="rgb(204, 204, 204)" stroke-width="1px"></line><line x1="50" y1="75.59999999999997" x2="45" y2="75.59999999999997" style="visibility: inherit;" fill="rgb(0, 0, 0)" stroke="rgb(204, 204, 204)" stroke-width="1px"></line><line x1="50" y1="37.80000000000001" x2="45" y2="37.80000000000001" style="visibility: inherit;" fill="rgb(0, 0, 0)" stroke="rgb(204, 204, 204)" stroke-width="1px"></line><line x1="50" y1="0" x2="45" y2="0" style="visibility: inherit;" fill="rgb(0, 0, 0)" stroke="rgb(204, 204, 204)" stroke-width="1px"></line></g><g transform="translate(40, 0)"><text x="0" y="378" dx="0em" dy="0.3em" style="text-anchor: end; visibility: hidden; font-family: &quot;Helvetica Neue&quot;, sans-serif; font-size: 12px; font-weight: 200;" fill="rgb(50, 49, 63)" stroke="none" stroke-width="1px">-3.5</text><text x="0" y="340.2" dx="0em" dy="0.3em" style="text-anchor: end; visibility: inherit; font-family: &quot;Helvetica Neue&quot;, sans-serif; font-size: 12px; font-weight: 200;" fill="rgb(50, 49, 63)" stroke="none" stroke-width="1px">-3</text><text x="0" y="302.4" dx="0em" dy="0.3em" style="text-anchor: end; visibility: inherit; font-family: &quot;Helvetica Neue&quot;, sans-serif; font-size: 12px; font-weight: 200;" fill="rgb(50, 49, 63)" stroke="none" stroke-width="1px">-2.5</text><text x="0" y="264.6" dx="0em" dy="0.3em" style="text-anchor: end; visibility: inherit; font-family: &quot;Helvetica Neue&quot;, sans-serif; font-size: 12px; font-weight: 200;" fill="rgb(50, 49, 63)" stroke="none" stroke-width="1px">-2</text><text x="0" y="226.79999999999998" dx="0em" dy="0.3em" style="text-anchor: end; visibility: inherit; font-family: &quot;Helvetica Neue&quot;, sans-serif; font-size: 12px; font-weight: 200;" fill="rgb(50, 49, 63)" stroke="none" stroke-width="1px">-1.5</text><text x="0" y="189" dx="0em" dy="0.3em" style="text-anchor: end; visibility: inherit; font-family: &quot;Helvetica Neue&quot;, sans-serif; font-size: 12px; font-weight: 200;" fill="rgb(50, 49, 63)" stroke="none" stroke-width="1px">-1</text><text x="0" y="151.20000000000002" dx="0em" dy="0.3em" style="text-anchor: end; visibility: inherit; font-family: &quot;Helvetica Neue&quot;, sans-serif; font-size: 12px; font-weight: 200;" fill="rgb(50, 49, 63)" stroke="none" stroke-width="1px">-0.5</text><text x="0" y="113.40000000000003" dx="0em" dy="0.3em" style="text-anchor: end; visibility: inherit; font-family: &quot;Helvetica Neue&quot;, sans-serif; font-size: 12px; font-weight: 200;" fill="rgb(50, 49, 63)" stroke="none" stroke-width="1px">0</text><text x="0" y="75.59999999999997" dx="0em" dy="0.3em" style="text-anchor: end; visibility: inherit; font-family: &quot;Helvetica Neue&quot;, sans-serif; font-size: 12px; font-weight: 200;" fill="rgb(50, 49, 63)" stroke="none" stroke-width="1px">0.5</text><text x="0" y="37.80000000000001" dx="0em" dy="0.3em" style="text-anchor: end; visibility: inherit; font-family: &quot;Helvetica Neue&quot;, sans-serif; font-size: 12px; font-weight: 200;" fill="rgb(50, 49, 63)" stroke="none" stroke-width="1px">1</text><text x="0" y="0" dx="0em" dy="0.3em" style="text-anchor: end; visibility: hidden; font-family: &quot;Helvetica Neue&quot;, sans-serif; font-size: 12px; font-weight: 200;" fill="rgb(50, 49, 63)" stroke="none" stroke-width="1px">1.5</text></g><line x1="50" y1="0" x2="50" y2="378" fill="rgb(0, 0, 0)" stroke="rgb(204, 204, 204)" stroke-width="1px"></line></g></g><g transform="translate(50, 0)" clip-path="url(#clip_0)"><clipPath id="clip_0"><rect width="1446" height="378"></rect></clipPath><g><g><g><line x1="0" y1="0" x2="0" y2="378" fill="rgb(0, 0, 0)" stroke="rgb(60, 60, 60)" stroke-width="1px" opacity="0.25"></line><line x1="120.5" y1="0" x2="120.5" y2="378" fill="rgb(0, 0, 0)" stroke="rgb(60, 60, 60)" stroke-width="1px" opacity="0.25"></line><line x1="241" y1="0" x2="241" y2="378" fill="rgb(0, 0, 0)" stroke="rgb(60, 60, 60)" stroke-width="1px" opacity="0.25"></line><line x1="361.5" y1="0" x2="361.5" y2="378" fill="rgb(0, 0, 0)" stroke="rgb(60, 60, 60)" stroke-width="1px" opacity="0.25"></line><line x1="482" y1="0" x2="482" y2="378" fill="rgb(0, 0, 0)" stroke="rgb(60, 60, 60)" stroke-width="1px" opacity="0.25"></line><line x1="602.5" y1="0" x2="602.5" y2="378" fill="rgb(0, 0, 0)" stroke="rgb(60, 60, 60)" stroke-width="1px" opacity="0.25"></line><line x1="723" y1="0" x2="723" y2="378" fill="rgb(0, 0, 0)" stroke="rgb(60, 60, 60)" stroke-width="1px" opacity="0.25"></line><line x1="843.5" y1="0" x2="843.5" y2="378" fill="rgb(0, 0, 0)" stroke="rgb(60, 60, 60)" stroke-width="1px" opacity="0.25"></line><line x1="964" y1="0" x2="964" y2="378" fill="rgb(0, 0, 0)" stroke="rgb(60, 60, 60)" stroke-width="1px" opacity="0.25"></line><line x1="1084.5" y1="0" x2="1084.5" y2="378" fill="rgb(0, 0, 0)" stroke="rgb(60, 60, 60)" stroke-width="1px" opacity="0.25"></line><line x1="1205" y1="0" x2="1205" y2="378" fill="rgb(0, 0, 0)" stroke="rgb(60, 60, 60)" stroke-width="1px" opacity="0.25"></line><line x1="1325.5" y1="0" x2="1325.5" y2="378" fill="rgb(0, 0, 0)" stroke="rgb(60, 60, 60)" stroke-width="1px" opacity="0.25"></line><line x1="1446" y1="0" x2="1446" y2="378" fill="rgb(0, 0, 0)" stroke="rgb(60, 60, 60)" stroke-width="1px" opacity="0.25"></line></g><g><line x1="0" y1="378" x2="1446" y2="378" fill="rgb(0, 0, 0)" stroke="rgb(60, 60, 60)" stroke-width="1px" opacity="0.25"></line><line x1="0" y1="340.2" x2="1446" y2="340.2" fill="rgb(0, 0, 0)" stroke="rgb(60, 60, 60)" stroke-width="1px" opacity="0.25"></line><line x1="0" y1="302.4" x2="1446" y2="302.4" fill="rgb(0, 0, 0)" stroke="rgb(60, 60, 60)" stroke-width="1px" opacity="0.25"></line><line x1="0" y1="264.6" x2="1446" y2="264.6" fill="rgb(0, 0, 0)" stroke="rgb(60, 60, 60)" stroke-width="1px" opacity="0.25"></line><line x1="0" y1="226.79999999999998" x2="1446" y2="226.79999999999998" fill="rgb(0, 0, 0)" stroke="rgb(60, 60, 60)" stroke-width="1px" opacity="0.25"></line><line x1="0" y1="189" x2="1446" y2="189" fill="rgb(0, 0, 0)" stroke="rgb(60, 60, 60)" stroke-width="1px" opacity="0.25"></line><line x1="0" y1="151.20000000000002" x2="1446" y2="151.20000000000002" fill="rgb(0, 0, 0)" stroke="rgb(60, 60, 60)" stroke-width="1px" opacity="0.25"></line><line x1="0" y1="113.40000000000003" x2="1446" y2="113.40000000000003" fill="rgb(0, 0, 0)" stroke="rgb(60, 60, 60)" stroke-width="1px" opacity="0.25"></line><line x1="0" y1="75.59999999999997" x2="1446" y2="75.59999999999997" fill="rgb(0, 0, 0)" stroke="rgb(60, 60, 60)" stroke-width="1px" opacity="0.25"></line><line x1="0" y1="37.80000000000001" x2="1446" y2="37.80000000000001" fill="rgb(0, 0, 0)" stroke="rgb(60, 60, 60)" stroke-width="1px" opacity="0.25"></line><line x1="0" y1="0" x2="1446" y2="0" fill="rgb(0, 0, 0)" stroke="rgb(60, 60, 60)" stroke-width="1px" opacity="0.25"></line></g></g></g><g><g><line x1="0" y1="113.40000000000003" x2="1446" y2="113.40000000000003" fill="rgb(0, 0, 0)" stroke="rgb(153, 153, 153)" stroke-width="1.5px"></line></g></g><g><g><line x1="120.5" y1="0" x2="120.5" y2="378" fill="rgb(0, 0, 0)" stroke="rgb(153, 153, 153)" stroke-width="1.5px"></line></g></g><g><g><g><g><g><path stroke="rgb(255, 112, 67)" stroke-width="2px" d="M120.5,81.59986896514891L122.91000000000001,83.7779180645943L125.32000000000001,110.79681452214714L127.73,119.72002816200256L130.14,107.41643639802936L132.54999999999998,127.53940510153771L134.96,134.71984251737595L137.37,141.6873019695282L139.78,141.68720058202743L142.19,141.49552187919616L144.6,148.37025682926176L147.01,150.3931132078171L149.42,159.02579026222227L151.82999999999998,154.53637425899504L154.24,157.60809109210967L156.65,162.9517936706543L159.06,164.43790912628174L161.47,175.32501611709594L163.88,173.5186964035034L166.29000000000002,183.4725877761841L168.7,206.12780957221983L171.10999999999999,211.45710611343384L173.51999999999998,225.0087577342987L175.93,205.7626072883606L178.34,231.89788970947265L180.75,226.98267774581907L183.16000000000003,227.15151271820068L185.57,233.81579875946045L187.98000000000002,238.72372884750368L190.39,227.90557436943052L192.8,232.10750498771668L195.21,225.61117973327637L197.61999999999998,232.348140335083L200.03,225.06118183135985L202.44000000000003,255.86924743652344L204.85,245.49464750289917L207.26000000000002,258.6136673927307L209.67,245.24051184654238L212.08,259.6539752483368L214.49,246.20019636154174L216.9,256.433259344101L219.31,254.06089096069337L221.71999999999997,251.54487676620482L224.13,246.1946448326111L226.54000000000002,256.612206029892L228.95,251.7871793746948L231.36,271.2969102859497L233.76999999999998,263.49055938720704L236.18,266.9078498840332L238.59,267.40561294555664L241,254.13082580566407L243.41,273.2148013114929L245.82000000000002,262.26542887687685L248.23,267.3225202560425L250.64000000000001,272.4687335014343L253.04999999999998,252.83486824035646L255.46,274.6307295799255L257.87,262.9541338920593L260.28,248.59869117736818L262.69,253.65881967544556L265.09999999999997,247.72942628860474L267.51,276.5219083786011L269.92,266.589412021637L272.33,276.76217422485354L274.74,256.89986715316775L277.15000000000003,264.74906215667727L279.56,269.1220627784729L281.97,258.1942205429077L284.38,278.2130699157715L286.79,277.8320511817932L289.2,268.61058311462403L291.61,260.94435424804686L294.02,261.6050853252411L296.43,237.71393637657164L298.84,256.7013098716736L301.25,269.3759551048279L303.65999999999997,261.54646983146665L306.07,212.6275414466858L308.48,254.691836643219L310.89,270.10306119918823L313.3,254.9863200187683L315.71,265.7560157775879L318.12,256.9154402732849L320.53000000000003,252.51610593795778L322.94,265.2789087295532L325.35,263.4212013244629L327.76,269.21555557250974L330.17,280.77895774841306L332.58000000000004,282.16107215881345L334.99,204.8647916793823L337.4,264.7459619522095L339.81,277.06150617599485L342.21999999999997,266.269460105896L344.63,283.2086168289185L347.03999999999996,270.87535457611085L349.45,239.22278966903687L351.86,287.819287776947L354.27,293.33073034286497L356.68,293.4783505439758L359.09,256.2421371459961L361.5,269.38213748931884L363.90999999999997,292.47718276977537L366.32000000000005,274.4161485671997L368.73,281.097665977478L371.14,280.34824562072754L373.55,273.021813583374L375.96000000000004,252.92938842773435L378.37,251.80996227264404L380.78,262.6726100921631L383.19,284.1049364089966L385.6,266.32670574188234L388.01,280.19170331954956L390.42,280.8753705024719L392.83,294.1924970626831L395.23999999999995,285.33654670715333L397.65000000000003,256.62136244773865L400.06,297.4111401557922L402.46999999999997,289.8867636680603L404.88000000000005,259.4293996810913L407.29,285.0114938735962L409.7,280.1194613456726L412.10999999999996,222.5527108669281L414.52000000000004,272.8108374595642L416.93,251.90365333557128L419.34,283.090340423584L421.75,145.95268313884733L424.16,270.2995997428894L426.57,256.2915241241455L428.98,296.7110887527466L431.39,279.1235567092896L433.8,292.74574699401853L436.21000000000004,274.86632709503175L438.62,251.8498954296112L441.03,281.360228061676L443.43999999999994,277.54501190185545L445.85,291.2331356048584L448.26,298.5788177490234L450.66999999999996,267.0736026763916L453.08000000000004,272.18533515930176L455.49,288.9549900054932L457.9,283.48267850875857L460.31000000000006,282.015110206604L462.72,274.40749683380125L465.13,268.1702819824219L467.53999999999996,288.4203489303589L469.95,293.78530683517454L472.36,285.90417251586916L474.77,281.5773144721985L477.18,293.79718494415283L479.59,271.92502613067626L482,269.0731985092163L484.41,276.47160215377806L486.82,291.0301443099976L489.22999999999996,280.33786354064944L491.64000000000004,285.9584621429443L494.05,274.767120552063L496.46,289.3887122154236L498.86999999999995,268.16620845794677L501.28000000000003,282.70202178955077L503.69,280.6521738052368L506.09999999999997,277.71694707870483L508.51000000000005,279.62148199081423L510.92,292.4715411186218L513.3299999999999,268.9400339126587L515.74,302.94354515075685L518.15,283.7512607574463L520.56,277.28780307769773L522.97,299.2793197631836L525.38,286.5318377494812L527.79,281.20849828720094L530.1999999999999,296.2269882202148L532.61,269.91394872665404L535.02,280.65520191192627L537.43,276.83634481430056L539.84,262.70069217681885L542.25,256.08548669815065L544.66,248.52513341903685L547.07,287.1114858627319L549.48,283.4591025352478L551.89,292.5031379699707L554.3000000000001,288.2365356445313L556.71,238.6067141532898L559.12,266.48077869415283L561.53,285.1963165283203L563.94,289.8891248703003L566.35,259.9721787929535L568.76,271.0519220352173L571.1700000000001,300.4429058074951L573.58,306.3043830871582L575.99,268.2133243560791L578.4,288.92465486526487L580.8100000000001,286.8803223609924L583.22,287.7028498649597L585.63,246.838090467453L588.04,296.6644775390625L590.45,284.3658222198486L592.86,249.02113008499146L595.27,286.30984869003294L597.68,291.7712914466858L600.0899999999999,279.2011879920959L602.5,275.2435787200928L604.91,300.09759349822997L607.3199999999999,295.8502773284912L609.73,306.3091775894165L612.14,263.72028093338014L614.55,296.57875328063966L616.96,295.05666103363035L619.37,292.0642427444458L621.78,260.6540074825287L624.1899999999999,289.48193464279177L626.6,290.2277320861816L629.01,287.23069953918457L631.42,291.53158435821535L633.83,294.7047698020935L636.24,289.72277727127073L638.65,280.0046276092529L641.0600000000001,293.2580738067627L643.47,251.91580181121827L645.88,277.5104049682617L648.29,267.24919681549073L650.7,219.79739513397217L653.11,294.7639440536499L655.52,217.5942131996155L657.9300000000001,277.16503858566284L660.34,179.92495801448823L662.75,287.0148027420044L665.1600000000001,291.8965613365173L667.57,299.1623050689697L669.98,293.7289984703064L672.39,302.6645627975464L674.8,285.36812553405764L677.21,275.04094791412354L679.62,259.2343301296234L682.03,294.83186016082766L684.4399999999999,308.78669157028196L686.85,271.2273719787598L689.26,300.96702060699465L691.67,289.10720643997195L694.0799999999999,268.2395499229431L696.49,282.60249080657957L698.9,284.49448070526125L701.31,293.35335102081297L703.72,282.5183526992798L706.13,297.6850396156311L708.54,296.9749846458435L710.9499999999999,297.7181324958801L713.36,284.1351994514465L715.77,292.71391582489014L718.18,297.6314529418945L720.59,294.31915483474734L723,278.1363038063049L725.4100000000001,288.4013511657715L727.8199999999999,263.4100532054901L730.23,298.6590085029602L732.6400000000001,274.9191387176514L735.05,293.68399143218994L737.46,274.0960344314575L739.8700000000001,292.72700157165525L742.28,281.63286581039426L744.69,274.2642024993896L747.1,298.19327487945554L749.51,314.2388156890869L751.9200000000001,298.6234823226929L754.3299999999999,285.8245044708252L756.74,276.71639213562014L759.15,296.10321435928347L761.56,275.60105752944946L763.97,179.82321002483368L766.38,306.998720741272L768.79,279.33325309753417L771.2,269.29095182418826L773.61,300.59535655975344L776.02,303.40753040313723L778.43,291.3535028457642L780.84,274.4380662918091L783.25,237.7939558982849L785.66,290.53054275512693L788.07,253.39733905792235L790.4799999999999,301.50458164215087L792.89,273.3713075637817L795.3000000000001,298.488695526123L797.7099999999999,295.4845072746277L800.12,289.277267074585L802.5300000000001,304.19736156463625L804.9399999999999,302.07483901977537L807.35,301.535439491272L809.7600000000001,287.7327524185181L812.17,269.1810027122498L814.58,286.33501081466676L816.9899999999999,300.2317314147949L819.4,288.2837957382202L821.8100000000001,277.5666953086853L824.2199999999999,291.5146774291992L826.63,307.5384447097778L829.0400000000001,299.0654236793518L831.4499999999999,284.6852334022522L833.86,282.81615257263184L836.2700000000001,255.10128893852232L838.68,260.9250951290131L841.09,290.33730268478394L843.5,295.86426429748536L845.91,288.84972724914553L848.32,267.45644187927246L850.73,298.65816135406493L853.14,298.7718415260315L855.55,287.61732387542725L857.96,251.7568171977997L860.37,249.26602821350096L862.78,297.6357427597046L865.19,225.22902545928955L867.6,312.31479635238645L870.01,307.4553159713745L872.4200000000001,299.186457824707L874.8299999999999,299.32863464355466L877.24,301.4213267326355L879.65,274.5337760925293L882.06,300.0577234268188L884.47,299.82537031173706L886.8799999999999,261.03248476982117L889.29,289.2722382545471L891.7,262.94361662864685L894.1099999999999,304.67951545715334L896.52,304.65089263916013L898.9300000000001,313.98780727386475L901.3399999999999,282.98904304504396L903.75,305.9794384002686L906.1600000000001,293.1858498573303L908.5699999999999,303.93434886932374L910.98,309.7686092376709L913.3900000000001,314.6651659011841L915.8,303.2633348464966L918.21,291.55799016952517L920.6200000000001,288.33523750305176L923.03,285.7207197189331L925.44,316.07925567626955L927.85,303.57705030441286L930.26,290.16843166351316L932.6700000000001,275.01194658279417L935.0799999999999,300.6875335693359L937.49,298.1861011505127L939.9,299.22097463607787L942.31,301.9009031295776L944.72,301.2778341293335L947.13,293.5569731712341L949.54,289.26585760116575L951.95,303.1045214653015L954.36,278.46984615325925L956.77,310.36651611328125L959.18,290.5550019264221L961.59,291.7913166046143L964,288.22332372665403L966.41,310.8736158370972L968.82,282.0296018600464L971.2299999999999,294.3994897842407L973.64,258.6995448589325L976.0500000000001,297.54787359237673L978.4599999999999,304.09602813720704L980.87,309.8288649559021L983.2800000000001,301.75148048400877L985.6899999999999,299.10282440185546L988.1,288.64392414093015L990.5100000000001,301.0487975120544L992.92,300.83281059265136L995.33,302.21113986968993L997.7399999999999,308.7209924697876L1000.15,298.18163108825684L1002.5600000000001,297.75601987838746L1004.9699999999999,292.12617473602296L1007.38,298.88651304244996L1009.7900000000001,300.1470886230469L1012.1999999999999,298.92441844940186L1014.61,292.69634199142456L1017.0200000000001,309.7974843978882L1019.43,268.8420530319214L1021.84,290.2302194595337L1024.25,301.0767714500427L1026.6599999999999,285.7809574127197L1029.07,306.3289323806763L1031.48,288.2140591621399L1033.8899999999999,289.76331424713135L1036.3,284.9143601417542L1038.71,297.62755966186523L1041.12,304.87590980529785L1043.53,253.53517198562622L1045.94,279.0936541557312L1048.35,302.19149322509764L1050.76,311.5432780265808L1053.17,308.5271215438843L1055.58,308.4833762168884L1057.99,293.233380317688L1060.3999999999999,302.43768911361695L1062.81,277.0385069847107L1065.22,317.6473463058472L1067.6299999999999,292.36276359558104L1070.04,294.10787229537965L1072.45,299.5773539543152L1074.86,303.3067737579346L1077.27,311.2833475112915L1079.68,270.30509719848635L1082.09,283.1345724105835L1084.5,284.29159755706786L1086.91,298.71209049224854L1089.32,301.6582220077515L1091.73,305.11727514266965L1094.14,314.4528559684753L1096.55,289.55522203445435L1098.96,307.6704016685486L1101.3700000000001,306.2306270599365L1103.78,303.5167945861816L1106.19,291.1633089065552L1108.6000000000001,295.6734214782715L1111.01,303.03291034698486L1113.42,304.3015789031982L1115.83,164.55619904994964L1118.24,309.33339099884034L1120.65,313.8173320770264L1123.06,304.32291984558105L1125.47,306.87098150253297L1127.88,300.74849224090576L1130.29,310.32433891296387L1132.7,293.138175201416L1135.1100000000001,284.06831073760986L1137.52,272.18976917266843L1139.93,291.6153980255127L1142.3400000000001,311.0059513092041L1144.75,304.3264165878296L1147.16,305.1359124183655L1149.5700000000002,285.041504573822L1151.98,300.85382709503176L1154.39,307.28741827011106L1156.8,310.2187156677246L1159.21,315.2143527030945L1161.6200000000001,305.00130586624147L1164.03,308.1686153411865L1166.44,305.3416254043579L1168.85,262.71986117362974L1171.26,301.0251314163208L1173.67,314.95054693222045L1176.08,303.09028215408324L1178.49,291.97541828155516L1180.9,265.1138408660889L1183.31,273.68010234832764L1185.72,322.8177123069763L1188.1299999999999,314.6809733390808L1190.54,295.31653747558596L1192.95,308.50868253707887L1195.36,316.0626371383667L1197.77,299.9425472259521L1200.1799999999998,305.13874225616456L1202.59,308.33245754241943L1205,285.8646809577942L1207.4099999999999,277.63051986694336L1209.82,279.1493316650391L1212.23,284.74583158493044L1214.6399999999999,273.2727138519287L1217.05,306.8571928024292L1219.46,296.3566020011902L1221.87,311.78799591064455L1224.28,307.4054964065552L1226.69,315.5338720321655L1229.1,318.3954689025879L1231.51,313.2769772529602L1233.92,298.0294687271118L1236.33,292.16218757629395L1238.74,299.739267539978L1241.1499999999999,280.9979727745056L1243.56,312.4567568778992L1245.97,287.15706968307495L1248.3799999999999,300.1682493209839L1250.79,309.71345443725585L1253.2,324.020952129364L1255.61,304.49642314910886L1258.02,297.8353274345398L1260.43,315.81757678985593L1262.84,293.6647773742676L1265.25,305.5040616989136L1267.66,311.25879821777346L1270.07,283.6194479942322L1272.48,305.97163381576536L1274.89,308.5984622955322L1277.3,319.56428203582766L1279.71,285.0086820602417L1282.1200000000001,309.1549670219421L1284.53,282.16236991882323L1286.94,309.74687175750734L1289.3500000000001,312.6574770927429L1291.76,272.33338794708254L1294.17,295.44427671432493L1296.58,321.7506651878357L1298.99,311.18569107055663L1301.4,304.6779653549194L1303.81,300.2152750968933L1306.22,324.7296011924744L1308.63,277.21235275268555L1311.04,313.65394048690797L1313.45,299.0139638900757L1315.8600000000001,310.9959297180176L1318.27,300.5142826080322L1320.68,318.35111074447633L1323.0900000000001,296.42035446166994" style="fill: none;" fill="none"></path></g></g></g></g></g></g><g transform="translate(50, 378)" clip-path="url(#clip_1)"><clipPath id="clip_1"><rect width="1446" height="22"></rect></clipPath><g><g><line x1="0" y1="0" x2="0" y2="5" style="visibility: inherit;" fill="rgb(0, 0, 0)" stroke="rgb(204, 204, 204)" stroke-width="1px"></line><line x1="120.5" y1="0" x2="120.5" y2="5" style="visibility: inherit;" fill="rgb(0, 0, 0)" stroke="rgb(204, 204, 204)" stroke-width="1px"></line><line x1="241" y1="0" x2="241" y2="5" style="visibility: inherit;" fill="rgb(0, 0, 0)" stroke="rgb(204, 204, 204)" stroke-width="1px"></line><line x1="361.5" y1="0" x2="361.5" y2="5" style="visibility: inherit;" fill="rgb(0, 0, 0)" stroke="rgb(204, 204, 204)" stroke-width="1px"></line><line x1="482" y1="0" x2="482" y2="5" style="visibility: inherit;" fill="rgb(0, 0, 0)" stroke="rgb(204, 204, 204)" stroke-width="1px"></line><line x1="602.5" y1="0" x2="602.5" y2="5" style="visibility: inherit;" fill="rgb(0, 0, 0)" stroke="rgb(204, 204, 204)" stroke-width="1px"></line><line x1="723" y1="0" x2="723" y2="5" style="visibility: inherit;" fill="rgb(0, 0, 0)" stroke="rgb(204, 204, 204)" stroke-width="1px"></line><line x1="843.5" y1="0" x2="843.5" y2="5" style="visibility: inherit;" fill="rgb(0, 0, 0)" stroke="rgb(204, 204, 204)" stroke-width="1px"></line><line x1="964" y1="0" x2="964" y2="5" style="visibility: inherit;" fill="rgb(0, 0, 0)" stroke="rgb(204, 204, 204)" stroke-width="1px"></line><line x1="1084.5" y1="0" x2="1084.5" y2="5" style="visibility: inherit;" fill="rgb(0, 0, 0)" stroke="rgb(204, 204, 204)" stroke-width="1px"></line><line x1="1205" y1="0" x2="1205" y2="5" style="visibility: inherit;" fill="rgb(0, 0, 0)" stroke="rgb(204, 204, 204)" stroke-width="1px"></line><line x1="1325.5" y1="0" x2="1325.5" y2="5" style="visibility: inherit;" fill="rgb(0, 0, 0)" stroke="rgb(204, 204, 204)" stroke-width="1px"></line><line x1="1446" y1="0" x2="1446" y2="5" style="visibility: inherit;" fill="rgb(0, 0, 0)" stroke="rgb(204, 204, 204)" stroke-width="1px"></line></g><g transform="translate(0, 8)"><text x="0" y="0" dx="0em" dy="0.95em" style="text-anchor: middle; visibility: hidden; font-family: &quot;Helvetica Neue&quot;, sans-serif; font-size: 12px; font-weight: 200;" fill="rgb(50, 49, 63)" stroke="none" stroke-width="1px">-50</text><text x="120.5" y="0" dx="0em" dy="0.95em" style="text-anchor: middle; visibility: inherit; font-family: &quot;Helvetica Neue&quot;, sans-serif; font-size: 12px; font-weight: 200;" fill="rgb(50, 49, 63)" stroke="none" stroke-width="1px">0</text><text x="241" y="0" dx="0em" dy="0.95em" style="text-anchor: middle; visibility: inherit; font-family: &quot;Helvetica Neue&quot;, sans-serif; font-size: 12px; font-weight: 200;" fill="rgb(50, 49, 63)" stroke="none" stroke-width="1px">50</text><text x="361.5" y="0" dx="0em" dy="0.95em" style="text-anchor: middle; visibility: inherit; font-family: &quot;Helvetica Neue&quot;, sans-serif; font-size: 12px; font-weight: 200;" fill="rgb(50, 49, 63)" stroke="none" stroke-width="1px">100</text><text x="482" y="0" dx="0em" dy="0.95em" style="text-anchor: middle; visibility: inherit; font-family: &quot;Helvetica Neue&quot;, sans-serif; font-size: 12px; font-weight: 200;" fill="rgb(50, 49, 63)" stroke="none" stroke-width="1px">150</text><text x="602.5" y="0" dx="0em" dy="0.95em" style="text-anchor: middle; visibility: inherit; font-family: &quot;Helvetica Neue&quot;, sans-serif; font-size: 12px; font-weight: 200;" fill="rgb(50, 49, 63)" stroke="none" stroke-width="1px">200</text><text x="723" y="0" dx="0em" dy="0.95em" style="text-anchor: middle; visibility: inherit; font-family: &quot;Helvetica Neue&quot;, sans-serif; font-size: 12px; font-weight: 200;" fill="rgb(50, 49, 63)" stroke="none" stroke-width="1px">250</text><text x="843.5" y="0" dx="0em" dy="0.95em" style="text-anchor: middle; visibility: inherit; font-family: &quot;Helvetica Neue&quot;, sans-serif; font-size: 12px; font-weight: 200;" fill="rgb(50, 49, 63)" stroke="none" stroke-width="1px">300</text><text x="964" y="0" dx="0em" dy="0.95em" style="text-anchor: middle; visibility: inherit; font-family: &quot;Helvetica Neue&quot;, sans-serif; font-size: 12px; font-weight: 200;" fill="rgb(50, 49, 63)" stroke="none" stroke-width="1px">350</text><text x="1084.5" y="0" dx="0em" dy="0.95em" style="text-anchor: middle; visibility: inherit; font-family: &quot;Helvetica Neue&quot;, sans-serif; font-size: 12px; font-weight: 200;" fill="rgb(50, 49, 63)" stroke="none" stroke-width="1px">400</text><text x="1205" y="0" dx="0em" dy="0.95em" style="text-anchor: middle; visibility: inherit; font-family: &quot;Helvetica Neue&quot;, sans-serif; font-size: 12px; font-weight: 200;" fill="rgb(50, 49, 63)" stroke="none" stroke-width="1px">450</text><text x="1325.5" y="0" dx="0em" dy="0.95em" style="text-anchor: middle; visibility: inherit; font-family: &quot;Helvetica Neue&quot;, sans-serif; font-size: 12px; font-weight: 200;" fill="rgb(50, 49, 63)" stroke="none" stroke-width="1px">500</text><text x="1446" y="0" dx="0em" dy="0.95em" style="text-anchor: middle; visibility: hidden; font-family: &quot;Helvetica Neue&quot;, sans-serif; font-size: 12px; font-weight: 200;" fill="rgb(50, 49, 63)" stroke="none" stroke-width="1px">550</text></g><line x1="0" y1="0" x2="1446" y2="0" fill="rgb(0, 0, 0)" stroke="rgb(204, 204, 204)" stroke-width="1px"></line></g></g></g></g></svg>