<svg viewBox="0 0 1496 400" xmlns="http://www.w3.org/2000/svg"><g><g><g><g><g><line x1="50" y1="378" x2="45" y2="378" style="visibility: inherit;" fill="rgb(0, 0, 0)" stroke="rgb(204, 204, 204)" stroke-width="1px"></line><line x1="50" y1="336" x2="45" y2="336" style="visibility: inherit;" fill="rgb(0, 0, 0)" stroke="rgb(204, 204, 204)" stroke-width="1px"></line><line x1="50" y1="294" x2="45" y2="294" style="visibility: inherit;" fill="rgb(0, 0, 0)" stroke="rgb(204, 204, 204)" stroke-width="1px"></line><line x1="50" y1="252" x2="45" y2="252" style="visibility: inherit;" fill="rgb(0, 0, 0)" stroke="rgb(204, 204, 204)" stroke-width="1px"></line><line x1="50" y1="210" x2="45" y2="210" style="visibility: inherit;" fill="rgb(0, 0, 0)" stroke="rgb(204, 204, 204)" stroke-width="1px"></line><line x1="50" y1="168" x2="45" y2="168" style="visibility: inherit;" fill="rgb(0, 0, 0)" stroke="rgb(204, 204, 204)" stroke-width="1px"></line><line x1="50" y1="126.00000000000001" x2="45" y2="126.00000000000001" style="visibility: inherit;" fill="rgb(0, 0, 0)" stroke="rgb(204, 204, 204)" stroke-width="1px"></line><line x1="50" y1="84.00000000000004" x2="45" y2="84.00000000000004" style="visibility: inherit;" fill="rgb(0, 0, 0)" stroke="rgb(204, 204, 204)" stroke-width="1px"></line><line x1="50" y1="42.00000000000002" x2="45" y2="42.00000000000002" style="visibility: inherit;" fill="rgb(0, 0, 0)" stroke="rgb(204, 204, 204)" stroke-width="1px"></line><line x1="50" y1="0" x2="45" y2="0" style="visibility: inherit;" fill="rgb(0, 0, 0)" stroke="rgb(204, 204, 204)" stroke-width="1px"></line></g><g transform="translate(40, 0)"><text x="0" y="378" dx="0em" dy="0.3em" style="text-anchor: end; visibility: hidden; font-family: Roboto, sans-serif; font-size: 12px; font-weight: 200;" fill="rgb(50, 49, 63)" stroke="none" stroke-width="1px">-0.2</text><text x="0" y="336" dx="0em" dy="0.3em" style="text-anchor: end; visibility: inherit; font-family: Roboto, sans-serif; font-size: 12px; font-weight: 200;" fill="rgb(50, 49, 63)" stroke="none" stroke-width="1px">0</text><text x="0" y="294" dx="0em" dy="0.3em" style="text-anchor: end; visibility: inherit; font-family: Roboto, sans-serif; font-size: 12px; font-weight: 200;" fill="rgb(50, 49, 63)" stroke="none" stroke-width="1px">0.2</text><text x="0" y="252" dx="0em" dy="0.3em" style="text-anchor: end; visibility: inherit; font-family: Roboto, sans-serif; font-size: 12px; font-weight: 200;" fill="rgb(50, 49, 63)" stroke="none" stroke-width="1px">0.4</text><text x="0" y="210" dx="0em" dy="0.3em" style="text-anchor: end; visibility: inherit; font-family: Roboto, sans-serif; font-size: 12px; font-weight: 200;" fill="rgb(50, 49, 63)" stroke="none" stroke-width="1px">0.6</text><text x="0" y="168" dx="0em" dy="0.3em" style="text-anchor: end; visibility: inherit; font-family: Roboto, sans-serif; font-size: 12px; font-weight: 200;" fill="rgb(50, 49, 63)" stroke="none" stroke-width="1px">0.8</text><text x="0" y="126.00000000000001" dx="0em" dy="0.3em" style="text-anchor: end; visibility: inherit; font-family: Roboto, sans-serif; font-size: 12px; font-weight: 200;" fill="rgb(50, 49, 63)" stroke="none" stroke-width="1px">1</text><text x="0" y="84.00000000000004" dx="0em" dy="0.3em" style="text-anchor: end; visibility: inherit; font-family: Roboto, sans-serif; font-size: 12px; font-weight: 200;" fill="rgb(50, 49, 63)" stroke="none" stroke-width="1px">1.2</text><text x="0" y="42.00000000000002" dx="0em" dy="0.3em" style="text-anchor: end; visibility: inherit; font-family: Roboto, sans-serif; font-size: 12px; font-weight: 200;" fill="rgb(50, 49, 63)" stroke="none" stroke-width="1px">1.4</text><text x="0" y="0" dx="0em" dy="0.3em" style="text-anchor: end; visibility: hidden; font-family: Roboto, sans-serif; font-size: 12px; font-weight: 200;" fill="rgb(50, 49, 63)" stroke="none" stroke-width="1px">1.6</text></g><line x1="50" y1="0" x2="50" y2="378" fill="rgb(0, 0, 0)" stroke="rgb(204, 204, 204)" stroke-width="1px"></line></g></g><g transform="translate(50, 0)" clip-path="url(#clip_0)"><clipPath id="clip_0"><rect width="1446" height="378"></rect></clipPath><g><g><g><line x1="0" y1="0" x2="0" y2="378" fill="rgb(0, 0, 0)" stroke="rgb(60, 60, 60)" stroke-width="1px" opacity="0.25"></line><line x1="120.5" y1="0" x2="120.5" y2="378" fill="rgb(0, 0, 0)" stroke="rgb(60, 60, 60)" stroke-width="1px" opacity="0.25"></line><line x1="241" y1="0" x2="241" y2="378" fill="rgb(0, 0, 0)" stroke="rgb(60, 60, 60)" stroke-width="1px" opacity="0.25"></line><line x1="361.5" y1="0" x2="361.5" y2="378" fill="rgb(0, 0, 0)" stroke="rgb(60, 60, 60)" stroke-width="1px" opacity="0.25"></line><line x1="482" y1="0" x2="482" y2="378" fill="rgb(0, 0, 0)" stroke="rgb(60, 60, 60)" stroke-width="1px" opacity="0.25"></line><line x1="602.5" y1="0" x2="602.5" y2="378" fill="rgb(0, 0, 0)" stroke="rgb(60, 60, 60)" stroke-width="1px" opacity="0.25"></line><line x1="723" y1="0" x2="723" y2="378" fill="rgb(0, 0, 0)" stroke="rgb(60, 60, 60)" stroke-width="1px" opacity="0.25"></line><line x1="843.5" y1="0" x2="843.5" y2="378" fill="rgb(0, 0, 0)" stroke="rgb(60, 60, 60)" stroke-width="1px" opacity="0.25"></line><line x1="964" y1="0" x2="964" y2="378" fill="rgb(0, 0, 0)" stroke="rgb(60, 60, 60)" stroke-width="1px" opacity="0.25"></line><line x1="1084.5" y1="0" x2="1084.5" y2="378" fill="rgb(0, 0, 0)" stroke="rgb(60, 60, 60)" stroke-width="1px" opacity="0.25"></line><line x1="1205" y1="0" x2="1205" y2="378" fill="rgb(0, 0, 0)" stroke="rgb(60, 60, 60)" stroke-width="1px" opacity="0.25"></line><line x1="1325.5" y1="0" x2="1325.5" y2="378" fill="rgb(0, 0, 0)" stroke="rgb(60, 60, 60)" stroke-width="1px" opacity="0.25"></line><line x1="1446" y1="0" x2="1446" y2="378" fill="rgb(0, 0, 0)" stroke="rgb(60, 60, 60)" stroke-width="1px" opacity="0.25"></line></g><g><line x1="0" y1="378" x2="1446" y2="378" fill="rgb(0, 0, 0)" stroke="rgb(60, 60, 60)" stroke-width="1px" opacity="0.25"></line><line x1="0" y1="336" x2="1446" y2="336" fill="rgb(0, 0, 0)" stroke="rgb(60, 60, 60)" stroke-width="1px" opacity="0.25"></line><line x1="0" y1="294" x2="1446" y2="294" fill="rgb(0, 0, 0)" stroke="rgb(60, 60, 60)" stroke-width="1px" opacity="0.25"></line><line x1="0" y1="252" x2="1446" y2="252" fill="rgb(0, 0, 0)" stroke="rgb(60, 60, 60)" stroke-width="1px" opacity="0.25"></line><line x1="0" y1="210" x2="1446" y2="210" fill="rgb(0, 0, 0)" stroke="rgb(60, 60, 60)" stroke-width="1px" opacity="0.25"></line><line x1="0" y1="168" x2="1446" y2="168" fill="rgb(0, 0, 0)" stroke="rgb(60, 60, 60)" stroke-width="1px" opacity="0.25"></line><line x1="0" y1="126.00000000000001" x2="1446" y2="126.00000000000001" fill="rgb(0, 0, 0)" stroke="rgb(60, 60, 60)" stroke-width="1px" opacity="0.25"></line><line x1="0" y1="84.00000000000004" x2="1446" y2="84.00000000000004" fill="rgb(0, 0, 0)" stroke="rgb(60, 60, 60)" stroke-width="1px" opacity="0.25"></line><line x1="0" y1="42.00000000000002" x2="1446" y2="42.00000000000002" fill="rgb(0, 0, 0)" stroke="rgb(60, 60, 60)" stroke-width="1px" opacity="0.25"></line><line x1="0" y1="0" x2="1446" y2="0" fill="rgb(0, 0, 0)" stroke="rgb(60, 60, 60)" stroke-width="1px" opacity="0.25"></line></g></g></g><g><g><line x1="0" y1="336" x2="1446" y2="336" fill="rgb(0, 0, 0)" stroke="rgb(153, 153, 153)" stroke-width="1.5px"></line></g></g><g><g><line x1="120.5" y1="0" x2="120.5" y2="378" fill="rgb(0, 0, 0)" stroke="rgb(153, 153, 153)" stroke-width="1.5px"></line></g></g><g><g><g><g><g><path stroke="rgb(204, 51, 17)" stroke-width="2px" d="M123.5125,83.47467756271367L124.115,95.914448261261L126.52499999999999,115.56084251403809L127.12750000000001,118.91484117507937L128.33249999999998,138.6121670007706L128.935,135.761563539505L129.5375,146.30194580554962L130.7425,148.52476036548617L131.345,149.44882607460022L131.9475,149.86769413948062L132.54999999999998,156.8800542354584L134.96,164.5333585739136L140.3825,192.78498566150665L140.985,191.06863296031952L142.19,195.42567944526672L143.9975,202.0705536603928L144.6,203.8757894039154L145.805,208.49902188777926L147.01,210.20602440834045L147.6125,210.88180339336398L148.8175,213.59802460670474L150.02249999999998,218.6294481754303L150.625,216.75902402400973L152.4325,218.38799571990967L153.035,220.61798250675204L153.6375,223.71962642669678L154.24,222.0485851764679L154.8425,225.5715880393982L156.65,227.73788845539093L157.2525,227.2276840209961L158.4575,231.55200487375262L159.6625,232.80401533842087L160.26500000000001,232.14808827638626L160.8675,234.1078773736954L161.47,234.5486939549446L163.2775,236.83026945590973L163.88,238.661190032959L164.48250000000002,238.88833558559418L165.085,236.68464696407318L166.29000000000002,241.20406365394592L168.0975,242.12613290548325L171.10999999999999,245.45238769054413L171.7125,245.94412332773211L172.315,247.54033809900284L172.9175,246.45843333005905L173.51999999999998,248.62552231550217L174.1225,249.17993044853213L177.135,252.67480766773224L181.95499999999998,257.20254188776016L183.7625,258.81004697084427L184.365,260.164020717144L188.58249999999998,264.34229350090027L190.39,267.160509288311L191.595,268.2590303421021L192.1975,269.1668427586556L192.8,267.7094913125038L195.21,270.2215168476105L195.8125,269.4458711743355L196.415,271.4632195830345L198.2225,273.68033266067505L198.82500000000002,274.7138092517853L200.63250000000002,274.63685488700867L203.0425,279.0279412865639L204.24749999999997,278.53891557455063L205.45250000000001,279.618880212307L206.05499999999998,280.5470827817917L206.6575,280.74484473466873L207.26000000000002,281.9390017390251L209.67,283.3894062638283L210.875,284.3204126358032L212.6825,286.79379826784134L213.285,287.8450114130974L213.8875,286.9709760546684L215.0925,286.7366833090782L215.695,288.3586329817772L216.2975,289.99599105119705L218.10500000000002,290.7404944896698L219.31,290.84613463282585L219.9125,291.489766895771L221.1175,292.06197103857994L221.71999999999997,293.19908505678177L223.52749999999997,293.3313707113266L226.54000000000002,295.4187234342098L227.14249999999998,297.04473799467087L227.745,296.0907003879547L228.95,296.28306126594543L229.5525,297.63045421242714L230.7575,297.41950875520706L231.9625,298.57065430283546L232.565,297.10700994729996L233.16750000000002,299.163470774889L233.76999999999998,299.4427213668823L234.975,300.0514938533306L235.5775,299.61784011125565L239.795,302.21475890278816L242.205,302.5077531337738L244.61499999999998,302.0130541026592L245.2175,302.49377167224884L245.82000000000002,302.9431060552597L248.23,304.30852031707764L250.0375,304.4367598593235L251.845,305.6620872616768L252.44750000000002,305.2620165646076L254.25500000000002,306.3067271411419L254.8575,303.83080995082855L256.0625,304.79054591059685L256.66499999999996,303.51833617687225L257.2675,305.44830045104027L258.47249999999997,304.3324997127056L259.075,305.3376065790653L260.28,307.050720512867L260.8825,305.85683262348175L261.485,305.2555922269821L263.2925,306.91122195124626L265.09999999999997,306.57654306292534L268.1125,307.4861923456192L269.3175,306.8752888441086L270.5225,307.09666407108307L271.125,307.6756993532181L274.1375,307.5282556414604L275.945,309.0676746368408L276.5475,308.9825372993946L277.15000000000003,308.9572780430317L277.7525,307.7876136302948L278.9575,308.81936287879944L281.3675,309.7911166995764L282.5725,309.32280188798904L283.77750000000003,308.7042880654335L284.9825,310.082497805357L287.995,309.7973454594612L289.2,310.3575771152973L291.61,310.5660848915577L294.6225,310.73472610116005L295.8275,311.38613453507423L296.43,309.7851523607969L298.2375,310.40331414341927L299.4425,311.047185793519L300.04499999999996,309.8582546263933L300.6475,310.8484005779028L301.85249999999996,311.5341884493828L302.455,311.3515939414501L303.0575,311.42256988584995L305.4675,311.46521209180355L306.07,311.5695692449808L307.275,311.9203965961933L309.0825,312.34742572903633L311.4925,311.6633824110031L312.09499999999997,311.94332456588745L312.6975,311.31458280980587L313.3,311.911977365613L314.505,312.74571588635445L316.3125,312.21390402317047L316.915,312.7035258561373L317.5175,312.9736844301224L319.325,312.16148449480534L319.9275,312.2560299038887L321.1325,313.16366708278656L324.7475,313.0058733969927L325.9525,313.49756053090096L327.76,313.2065345942974L328.3625,313.03967079520226L329.5675,313.122156098485L330.17,312.2856998294592L333.1825,313.1051126718521L333.785,312.8865083903074L334.99,313.4979720264673L336.195,314.31815153360367L336.7975,313.9543346911669L337.4,313.38970801234245L339.2075,313.2460287809372L339.81,313.76047334074974L341.6175,314.8145513087511L342.21999999999997,313.3383555561304L343.425,314.0357810854912L344.0275,313.7483193576336L345.23249999999996,314.1059653311968L347.6425,314.03149558603764L348.245,313.36977629363537L348.84749999999997,313.85392820835114L350.0525,314.4686712920666L350.655,314.403726965189L352.4625,314.4474331140518L353.065,313.68911093473434L353.6675,314.0690089613199L354.27,314.4921844303608L355.47499999999997,314.53913247585297L356.0775,313.438136190176L356.68,314.0981766432524L357.28249999999997,314.27262103557587L362.70500000000004,315.0709912776947L363.30749999999995,314.70132744312286L364.5125,314.5838869214058L366.32000000000005,314.6574773490429L370.53749999999997,314.7792643904686L371.14,314.46188709139824L373.55,314.91971580684185L374.1525,314.55080612003803L374.755,314.8544476032257L375.96000000000004,315.5396753400564L377.16499999999996,314.6817117780447L379.575,314.7885394692421L384.9975,314.7815988063812L385.6,315.44471687078476L386.2025,315.3866975605488L386.805,315.30442817509174L388.01,315.8327399790287L388.6125,315.70927096903324L390.42,315.1872786730528L392.22749999999996,315.7761272639036L396.445,315.71206068992615L397.0475,315.5001420378685L397.65000000000003,315.74089197814465L398.25249999999994,315.7068692743778L399.4575,315.69997242093086L400.06,316.03078043460846L400.6625,315.4508767873049L401.86749999999995,315.68605510890484L402.46999999999997,315.7076140344143L403.0725,316.19346982240677L404.27750000000003,316.6524235010147L405.48249999999996,315.66299414634705L406.085,315.4270569831133L408.49499999999995,316.04287496209145L412.7125,315.9278908967972L414.52000000000004,315.9078793823719L415.12250000000006,315.93133150041103L416.3275,315.835919290781L417.5325,316.0924891233444L419.34,316.3584060072899L425.9675,316.22615008056164L427.775,316.7247059047222L428.3775,317.25602178275585L428.98,316.96733652055264L430.185,316.34521624445915L431.39,316.3879304230213L431.9925,315.93366435170174L433.1975,316.4555533826351L436.21000000000004,316.8381738513708L436.8125,316.5221640318632L440.42749999999995,316.9519390761852L441.6325,316.6539286673069L442.235,316.32071113586426L442.83750000000003,316.62658689916134L443.43999999999994,317.01125076413155L444.04249999999996,316.74653550982475L444.645,316.338134765625L445.2475,316.5452547222376L445.85,316.37203542888165L446.45250000000004,316.42195312678814L447.05499999999995,317.38984702527523L448.26,316.43843172490597L450.06750000000005,316.66344782710075L450.66999999999996,316.572055131197L451.2725,316.78151889145374L452.4775,316.6576868891716L454.8875,316.9834536910057L456.09250000000003,317.0691026598215L457.29749999999996,317.14161662757397L459.70750000000004,318.02104836702347L460.31000000000006,317.76634669303894L460.91249999999997,317.7607891559601L462.1175,317.77387565374374L463.32250000000005,317.79013051092625L464.5275,317.81726418435574L465.7325,317.7115771025419L466.33500000000004,318.2433764487505L468.1425,318.0259362459183L469.3475,318.2697935253382L469.95,318.11419500410557L470.5525,318.0988132059574L471.155,318.0064504444599L471.7575,317.93830490112305L472.36,318.1188638359308L473.565,318.289584428072L474.1675,317.77674047648907L477.18,318.15375803411007L477.7825,318.22806975245476L478.9875,318.0984736829996L479.59,318.30015344917774L480.1925,318.27745078504086L482,318.1743030846119L483.205,318.52210445702076L484.41,318.0943509042263L485.61499999999995,318.42908611893654L486.82,317.94624066352844L488.02500000000003,318.2337430715561L488.62749999999994,318.3408007621765L489.22999999999996,318.4670845270157L491.0375,318.59978480637074L493.4475,318.0739232003689L494.05,318.7041122317314L495.25500000000005,318.2962012141943L495.85749999999996,318.2919876873493L497.0625,318.5681512802839L499.47249999999997,318.59452767670155L502.48499999999996,318.04167008399963L506.7025,318.6090520620346L507.305,318.38858588039875L508.51000000000005,318.5122019648552L509.1125,318.5181569159031L509.715,318.5683734565973L510.3175,318.196896225214L510.92,318.7252346277237L511.52250000000004,318.5302045047283L512.7275,318.39232063293457L513.3299999999999,318.79180616140366L515.74,318.7052231132984L516.3425,318.5899026542902L517.5475,318.54301719367504L518.7525,318.40993201732635L520.56,318.57615119218826L521.765,318.703345566988L522.3675000000001,318.59496577084064L522.97,318.59408488869667L524.7775,318.45553605258465L525.38,318.49132834374905L525.9825000000001,318.78984256088734L526.585,318.5779974460602L527.1875,318.60981403291225L528.3925,318.4060282856226L528.995,318.32476338744164L529.5975000000001,318.8690531104803L530.8025,318.8441083431244L531.405,318.87981927394867L532.0075,318.61891700327396L532.61,318.6877447217703L533.2125,319.0333149433136L533.8149999999999,318.7819099277258L535.02,318.40737698972225L535.6225000000001,319.0519699305296L537.43,319.1407653540373L539.84,318.9185624420643L541.6475,318.7506832033396L542.25,319.11639949679375L542.8525,318.9341820627451L544.0575,318.8065386414528L544.66,318.7184206992388L545.2625,318.84663677215576L545.865,319.076548576355L547.07,319.00041407346725L547.6725,318.7600349485874L548.275,319.1197368353605L550.6850000000001,318.7993570268154L553.095,318.827934846282L553.6975,318.8856349736452L554.9024999999999,318.91351966559887L555.505,318.84965492784977L556.1075,319.05432468652725L556.71,319.1226971000433L557.3125,319.1177466362715L557.915,318.8155868500471L559.7225,319.1578291207552L560.325,319.24674658477306L563.94,318.7960431575775L565.145,318.9387554526329L565.7475,319.141693174839L566.35,318.92567677795887L566.9525,319.15288960933685L568.1575,319.1524781137705L569.965,319.02465319633484L570.5675,319.268064558506L572.375,319.0714776366949L572.9775,319.34652096033096L573.58,319.0696924030781L574.7850000000001,319.28581988811493L575.99,319.40176932513714L577.7975,319.3248572051525L578.4,319.0342349410057L579.605,318.74288669228554L581.4125,318.98435635864735L582.015,319.27374413609505L582.6175,319.0413054674864L583.8225,319.27697820961475L584.425,319.2002976536751L585.0275,318.9856941103935L586.2325,319.3951634913683L586.835,319.33127841353416L587.4375,319.20505410432816L590.45,319.15986782312393L592.86,319.3840139955282L593.4625,319.19553181529045L594.6675,319.19404542446136L595.8725000000001,319.09396751224995L597.0775,319.3992674946785L597.68,319.0726573616266L598.2825,318.8977044671774L598.885,319.31904150545597L599.4875000000001,319.3147184550762L600.0899999999999,319.21327932178974L601.295,319.50440695881844L602.5,319.0534391105175L603.7049999999999,319.3664871007204L605.5125,319.45129430294037L606.7175,319.26651871204376L607.3199999999999,319.11234556138515L607.9225,319.37814666330814L610.3325,319.4862260520458L611.5375,319.5657197982073L612.14,319.4924438595772L613.345,319.35333801805973L615.1525,319.28700117766857L616.3575000000001,319.1661310046911L616.96,319.26843693852425L617.5625,319.475658595562L619.37,319.6040248721838L621.1775,319.19978289306164L621.78,319.3235789090395L622.985,319.6571750789881L624.1899999999999,319.4278093278408L625.395,319.23525443673134L628.4075,319.26238967478275L629.6125,319.5229054838419L630.215,319.33852730691433L630.8175,319.71398024261L631.42,319.5409440100193L633.2275,319.46186488866806L636.8425,319.5862523317337L638.0475,319.37321653962135L638.65,319.4923030436039L639.2524999999999,319.57649847865105L639.855,319.7254364043474L640.4575,319.54281686246395L642.8675,319.7440413236618L644.0725,319.65966752171516L644.6750000000001,319.5303968936205L646.4825,319.4092638641596L647.085,319.2964812219143L647.6875,319.5065207630396L648.29,319.7676092237234L648.8924999999999,319.6953502893448L650.0975,319.50745014846325L650.7,319.4615018963814L651.3025,319.7137893587351L651.905,319.636949211359L653.11,319.5661281645298L654.9175,319.6893030256033L656.1225,319.78950767219067L656.725,319.5965772718191L657.9300000000001,319.72420974075794L658.5325,319.6992774903774L660.34,319.5442641377449L660.9425,319.48282143473625L662.1475,319.37501272559166L662.75,319.7160846590996L666.9675,319.7641842663288L667.57,319.94794441759586L668.1725,319.91350865364075L668.775,319.6683824658394L669.3774999999999,319.6687955260277L669.98,319.91563184559345L670.5825,319.7505016475916L671.7875,319.76479133963585L672.39,319.72891142964363L672.9925,319.5034744441509L674.8,319.6060432344675L675.4025,319.5246453434229L676.005,319.6743076890707L676.6075,319.6022490262985L677.8125,319.70831474661827L681.4275,319.70032891631126L682.03,319.7549498677254L682.6325,319.6729699373245L683.8375,319.6959698796272L686.2475000000001,319.4764002263546L688.055,319.7134514003992L689.8625000000001,319.57886731624603L692.2725,319.86331245303154L694.0799999999999,319.91049206256866L694.6825,319.9153079688549L695.285,319.71034875512123L696.49,319.97283755242825L697.0925,319.9006146043539L697.6949999999999,319.77817042171955L699.5025,319.8997493684292L700.105,319.6599350720644L701.31,319.83035369217396L702.515,319.7947475910187L703.1175000000001,319.729657754302L704.3225,319.8048081099987L705.5275,319.8896794617176L706.13,319.85900661349297L707.335,319.9155661314726L708.54,319.9733022451401L709.1425,320.0079179406166L709.745,320.0098126977682L710.3475000000001,319.8915742188692L712.155,319.9773405343294L712.7575,319.8929323107004L713.36,319.75416599214077L715.1675,319.9081498235464L715.77,319.8456353545189L720.59,319.7019123136997L722.3975,319.65653045475483L723,320.12328846752644L724.205,319.88698048889637L725.4100000000001,319.7969286739826L726.0125,319.6928703635931L727.8199999999999,319.91149029135704L728.4225,320.14284467697144L729.6275,320.01378996670246L730.23,319.8747310638428L730.8325,319.7171798944473L731.4350000000001,319.98244746029377L733.2425,319.81697461009026L738.0625,320.0490002185106L738.6650000000001,320.0305204689503L739.2674999999999,319.7753040343523L740.4725,320.0074188262224L741.6775,319.9893677830696L742.28,320.05953638255596L742.8825,319.9682172238827L744.0875,319.895183801651L745.2924999999999,320.066850990057L745.8950000000001,320.03932616114616L746.4975,319.7674245983362L748.305,319.9818388223648L748.9075,320.0273677557707L749.51,320.0317690372467L752.5224999999999,319.9720990508795L753.7275,319.9275871217251L754.3299999999999,320.2375058680773L755.535,320.1769299656153L756.1375,320.0575070679188L757.3425000000001,320.1169423609972L760.9575,319.90791669487953L761.56,320.1276052594185L762.765,320.1735269129276L763.97,320.13901917636395L766.38,319.9230841398239L767.585,320.1965816169977L768.79,320.08141136169434L769.995,320.15687777101994L771.2,319.8808111846447L772.405,320.2000050097704L773.0074999999999,320.13763448596L773.61,320.0975473076105L774.2125,320.0307676792145L774.815,319.9776988327503L777.225,320.2955283075571L778.43,320.26569879055023L779.0324999999999,320.32811312377453L782.6475,320.0040345489979L783.8525000000001,320.2807801812887L785.0575000000001,320.1320065408945L785.66,320.12484996020794L786.2624999999999,319.91792714595795L789.8775,320.17990274727345L791.685,320.0723052620888L792.89,320.1003902256489L794.6975,320.2568524181843L796.5049999999999,320.1532947868109L797.1075000000001,320.11597698926926L798.3125,320.30447168648243L798.915,320.3026426434517L799.5174999999999,320.3489445000887L800.12,320.2253315448761L801.325,320.1424895077944L801.9275,320.30494107306004L803.1325,320.07659858465195L803.7349999999999,319.9971110969782L804.3375,320.2813043296337L806.145,320.2838718742132L806.7475,320.23620879650116L807.9525,320.19597923755646L812.7725,320.2664294689894L813.375,320.1918580234051L813.9775,320.22635793685913L814.58,320.247614890337L816.3875,319.50306764245033L816.9899999999999,319.11989955604076L817.5925,319.17140221595764L819.4,319.34871143102646L820.0025,319.62699665129185L820.605,319.24506774544716L822.4125,319.45679864287376L829.6424999999999,319.4612124413252L831.4499999999999,319.7566850334406L832.655,319.3032513409853L833.2575,319.33688132464886L834.4625,319.7369144707918L835.065,319.37915897369385L836.8725,319.16300958395004L838.68,319.31417866051197L839.2825,319.5183320939541L839.885,319.53900231420994L840.4875000000001,319.2290006428957L841.09,319.33769649267197L841.6924999999999,319.3462330698967L842.2950000000001,319.4955684095621L842.8974999999999,319.4455896914005L844.1025,319.53822000324726L845.3075,319.3669486641884L845.91,319.75681802630424L847.115,319.25784757733345L848.32,319.240879252553L849.525,319.2437425106764L850.1274999999999,319.5807245224714L850.73,319.6875084042549L851.3325,319.3312940597534L851.935,319.3907324820757L852.5375,319.2612381130457L854.9475000000001,319.1824906915426L857.96,319.434721827507L858.5625,319.35367128252983L859.7675,319.51533740758896L860.37,319.4369310736656L862.78,319.488192781806L863.3824999999999,319.4573572129011L863.985,319.3775395900011L865.19,319.2198992371559L866.9975000000001,319.6770770698786L868.805,319.78791332244873L870.01,319.478090018034L871.215,319.2322722673416L871.8175,319.3375947922468L873.0225,319.57661582529545L873.625,319.4519561380148L875.4325000000001,319.6257340013981L876.035,319.4171260893345L876.6374999999999,319.4556345641613L877.8425,319.5296208411455L878.445,319.6055816709995L879.0475,319.397181853652L880.2525,319.56465116143227L880.8549999999999,319.5012949258089L881.4575000000001,319.7683618068695L882.06,319.3902396261692L882.6625,319.5012745857239L883.265,319.3938319981098L886.2775,319.55088874697685L886.8799999999999,319.5391040146351L888.0849999999999,319.7028432637453L890.495,319.3580882102251L891.0975,319.6505974084139L892.3025,319.72898027300835L894.7125,319.4312890470028L895.9175,319.93489234149456L897.1225,319.4869410842657L898.3275,319.42629477381706L898.9300000000001,319.5246469080448L899.5325,319.5814990103245L900.1350000000001,319.49545888602734L901.3399999999999,319.57227087020874L903.1475,319.6634773761034L903.75,319.5637092590332L904.955,319.5116636753082L905.5575,319.42543736100197L906.1600000000001,319.4950802475214L907.3649999999999,319.44273425638676L909.775,319.9832563698292L910.98,319.5487749427557L911.5825,319.52483309805393L912.7875,319.40220116078854L913.3900000000001,319.6935196816921L915.1975,319.72830122709274L915.8,319.3704002201557L918.8125,319.60261358320713L919.4150000000001,319.5357338190079L920.0174999999999,319.71033154428005L920.6200000000001,319.52283976972103L921.8249999999999,319.7085885554552L923.03,319.63293439149857L923.6325,319.87256875634193L924.235,319.72288294136524L924.8375,319.50986905395985L925.44,319.49889166653156L926.0424999999999,319.4367933869362L927.85,319.64831149578094L929.6575,319.704547137022L930.8625000000001,319.54464903473854L932.0674999999999,320.0185495465994L932.6700000000001,319.43471243977547L933.2724999999999,319.42646688222885L933.875,319.7309141457081L934.4775,319.6405994743109L936.8875,319.61571572721004L939.2974999999999,319.85188914835453L940.5024999999999,319.5514660924673L941.105,319.7859669327736L942.9125,319.5098847001791L943.515,319.6212419718504L944.1175000000001,319.56073021888733L945.925,319.4995425492525L947.7325,319.59797447919846L948.335,319.6468657851219L948.9375,319.8283697515726L950.1425,319.43594066798687L950.745,319.55806566774845L951.3475000000001,319.5473480075598L953.155,320.00447107851505L954.36,319.94689455628395L954.9625,319.8641479611397L955.565,319.6053532361984L956.1675,319.52106861770153L956.77,319.41873452067375L957.3725000000001,319.5198951512575L958.5775000000001,319.7512855231762L959.18,319.6773931235075L960.9875,319.64364579319954L964,319.6650341749191L971.2299999999999,319.574780523777L971.8325000000001,319.58123145997524L972.435,319.75675700604916L973.0375,319.75241205096245L975.4475,319.934757784009L977.2549999999999,319.79502452909946L977.8575000000001,319.7876708060503L979.0625,319.5934714972973L979.665,319.7581792473793L980.2674999999999,319.74250642955303L980.87,319.55868212878704L982.075,319.63126806914806L983.2800000000001,319.69613103568554L983.8825,319.863407894969L984.4849999999999,320.05580163002014L985.6899999999999,319.9661753922701L986.2925,319.6626559495926L986.895,319.97864542901516L988.1,319.82910043001175L989.3050000000001,319.67461904883385L992.92,319.6526345461607L994.125,319.7934395670891L997.1375,319.6939609050751L997.7399999999999,319.62204775214195L1000.15,319.8772501051426L1003.1625,320.40554313361645L1003.7650000000001,320.0203848481178L1006.175,320.0537676215172L1008.585,319.57983112335205L1010.3924999999999,319.6986641585827L1012.1999999999999,319.7042858451605L1012.8025,319.67366932332516L1013.405,319.79371494054794L1015.2125,319.8560838997364L1015.815,319.9613876491785L1017.6225,319.7196911126375L1018.8275,319.8097585737705L1019.43,319.5577527433634L1020.0325,319.7184566259384L1024.25,319.83608490228653L1024.8525,319.71630996465683L1025.455,319.6282217502594L1026.0575000000001,319.73443610966206L1027.2625,320.1187369823456L1027.865,319.68750371038914L1028.4675,319.7982789427042L1029.07,319.7945144623518L1029.6725,319.82968559861183L1030.275,319.6423706263304L1030.8775,319.82434241473675L1031.48,319.84211495518684L1032.0825,319.7130320817232L1033.8899999999999,319.72176736593246L1035.095,319.8032826036215L1038.1075,319.798094317317L1038.71,319.8337317109108L1039.3125,319.8553563505411L1040.5175,319.77083390951157L1044.7350000000001,319.7070035934448L1045.94,319.8141207396984L1048.9525,319.7581667304039L1049.555,319.8817984610796L1051.9650000000001,320.17271487414837L1053.17,319.73299196362495L1053.7725,319.95576283335686L1054.9775,319.84338699281216L1055.58,320.17219541966915L1056.785,319.71856927871704L1057.3875,319.86186830699444L1061.0025,319.85169982910156L1061.605,319.8450267165899L1062.2075,320.11805793643L1065.22,319.807128444314L1065.8225,319.73211577534676L1071.2450000000001,319.90949852764606L1071.8474999999999,319.84197413921356L1073.655,320.06911969184875L1074.2575,320.2908735573292L1074.86,320.1538267582655L1076.065,319.6377002298832L1077.27,319.9007194340229L1078.475,319.7739772349596L1080.2825,319.8752207905054L1080.885,319.8695568591356L1082.09,320.16736856102943L1082.6925,320.2204640060663L1083.8975,319.73923167586327L1085.1025,319.94638761878014L1085.705,319.94267946481705L1086.91,320.2802122235298L1087.5125,319.83610367774963L1089.9225000000001,320.01172310113907L1090.525,319.85825403034687L1091.73,319.7903556972742L1092.3325,319.9029975235462L1092.935,320.09371085464954L1093.5375,319.9674849808216L1094.7425,319.80082458257675L1095.345,319.76178726553917L1095.9475,319.8364713639021L1096.55,320.0387535095215L1098.96,320.0601199865341L1100.165,319.99133138358593L1100.7675,319.7876520305872L1101.3700000000001,319.9735870063305L1102.575,320.03106182813644L1103.78,319.88574443757534L1104.985,320.1538768261671L1106.19,319.97399067878723L1106.7925,320.10349756479263L1107.395,320.0203848481178L1108.6000000000001,319.9970266073942L1109.2025,320.20194670557976L1109.8049999999998,320.0162370353937L1110.4075,320.03294406831264L1111.01,319.8982927054167L1111.6125,320.1495569050312L1112.8174999999999,319.843347877264L1113.42,320.181127846241L1115.2275,319.8049817830324L1115.83,319.92086550593376L1117.0349999999999,319.89168687164783L1117.6375,320.3170387297869L1119.445,320.09213684499264L1120.0475,319.8197612017393L1120.65,319.8924629241228L1121.2525,319.90328228473663L1121.855,319.9263432472944L1123.06,319.9520640671253L1125.47,320.0334838628769L1126.675,319.9958828687668L1127.2775,319.9696019142866L1127.88,319.9302422851324L1129.6875,319.9201504737139L1130.29,320.01403091847897L1131.495,320.0162417292595L1133.905,320.0075033158064L1134.5075,319.945677280426L1135.1100000000001,319.9464220404625L1135.7125,319.98257575929165L1136.9175,319.97634387016296L1139.3275,319.9022605866194L1139.93,320.06329929828644L1141.135,320.11885902285576L1141.7375,319.97220857441425L1142.3400000000001,320.06959377229214L1142.9424999999999,319.998980820179L1144.1475,319.866131901741L1145.955,319.9001577347517L1146.5575000000001,320.0065786242485L1147.16,319.9665086567402L1147.7625,319.9771543443203L1148.365,320.04973715543747L1150.1725,320.0273302048445L1150.7749999999999,319.97767692804337L1153.185,320.0168331563473L1153.7875000000001,320.0249989181757L1154.9924999999998,319.96216213703156L1155.595,320.0118044614792L1156.1975,319.98471146821976L1158.6075,319.99117335677147L1160.415,320.2205062508583L1161.6200000000001,320.09633472561836L1163.4275,319.8244754076004L1164.03,319.9520186930895L1164.6325,320.1426584869623L1165.235,320.07369777560234L1165.8375,320.17447350919247L1167.0425,320.038428068161L1167.645,320.0945854783058L1168.2475,319.99829238653183L1170.055,319.96255016326904L1170.6575,319.9766661822796L1171.8625,319.9748825132847L1172.465,320.0410738438368L1173.0675,320.07924592494965L1174.875,320.0150526165962L1176.08,319.89945209026337L1176.6825,319.90185847878456L1177.285,320.0113037824631L1177.8875,320.1441761702299L1182.105,320.2371115833521L1182.7075,320.47643615305424L1184.515,319.89144591987133L1187.5275000000001,319.961146697402L1189.9375,320.034403860569L1191.1425,320.06947642564774L1192.3475,320.0423881262541L1193.5525,320.19939011335373L1194.155,320.1795225441456L1194.7575000000002,320.3755681067705L1195.36,320.18427273631096L1197.77,320.0311932563782L1198.3725,320.0113554149866L1198.9750000000001,320.13302198052406L1200.1799999999998,319.9161732047796L1200.7825,320.1401472687721L1201.385,320.1607830673456L1203.795,320.2830113321543L1205,320.0600276738405L1206.205,320.27231401205063L1207.4099999999999,320.16241966187954L1208.0125,320.25853595137596L1209.2175,320.0651299059391L1211.6275,320.0813362598419L1212.8325,320.0975034981966L1213.435,320.12445567548275L1215.2425,319.91712605953217L1217.05,320.014428332448L1219.46,320.2494251579046L1220.665,320.3115719407797L1221.2675,320.2298126220703L1223.075,320.0128433704376L1225.4850000000001,320.02182273566723L1226.0875,320.19105380773544L1226.69,320.06791493296623L1227.2925,320.0665192902088L1229.1,320.1699689626694L1229.7025,320.18929673731327L1230.305,320.2368236929178L1231.51,320.0477594733238L1232.1125,320.2279914021492L1232.7150000000001,320.239796474576L1233.92,320.5221059024334L1234.5225,320.1449475288391L1236.33,320.0584333240986L1236.9325000000001,320.0856546163559L1238.1375,320.1651687026024L1239.3425,320.0416230261326L1239.9450000000002,320.2361555993557L1240.5475,320.23257261514664L1244.765,320.1030453890562L1245.3674999999998,320.37123723328114L1245.97,320.152055606246L1246.5725,320.1547279804945L1250.1875,320.5350453257561L1250.79,320.1433234512806L1251.3925,320.09532085061073L1251.9950000000001,320.1522777825594L1252.5974999999999,320.0265306830406L1253.8025,320.23166669905186L1255.61,320.0783055871725L1257.4175,320.05463598668575L1259.8274999999999,320.2205735296011L1260.43,320.12112303078175L1261.0325,319.9757461845875L1261.635,319.9770620316267L1262.2375,319.96121084690094L1263.4425,320.3174486607313L1264.045,320.0157113224268L1266.455,320.07123506069183L1268.2625,320.3330244719982L1268.865,320.2002835124731L1270.6725000000001,320.1288413107395L1271.275,320.05501775443554L1271.8775,320.38958555459976L1272.48,320.3624597042799L1273.0825,320.20064494013786L1274.2875,319.99276457726955L1274.89,320.20933797955513L1275.4925,320.2141069471836L1276.095,320.16183449327946L1276.6975,320.2758437991142L1279.1075,320.3666388094425L1279.71,320.25910390913486L1280.3125,320.194458425045L1282.1200000000001,320.26001764833927L1283.325,320.3569553643465L1283.9275,320.1904842853546L1284.53,320.0782257914543L1285.735,320.02573585510254L1286.3374999999999,320.1946555674076L1286.94,320.3026301264763L1288.145,320.16609182953835L1288.7475,320.09017480909824L1290.5549999999998,320.402764365077L1291.76,320.1898787766695L1292.965,320.00848902761936L1293.5674999999999,320.49065387248993L1294.7725,320.16610434651375L1296.58,319.9611169695854L1297.7849999999999,320.14981193840504L1298.3875,320.64612409472466L1298.99,320.3569256365299L1300.195,320.0991213172674L1301.4,320.25995349884033L1302.0025,320.47800390422344L1302.605,320.11135978996754L1305.0149999999999,320.290814101696L1305.6175,320.195254817605L1306.8225,320.3066355586052L1308.0275,320.2064121365547L1311.04,320.41188767552376L1313.45,320.1774822771549L1314.0525,320.10388246178627L1314.655,320.17624935507774L1315.2575,320.216593131423L1322.4875,320.146333783865L1323.6924999999999,320.3371644616127L1324.8975,320.2830128967762" style="fill: none;" fill="none"></path></g></g></g></g></g><g><g opacity="0.396134"><span fill="rgb(0, 0, 0)" stroke="none" stroke-width="1px">Alt + Scroll to Zoom</span></g></g></g><g transform="translate(50, 378)" clip-path="url(#clip_1)"><clipPath id="clip_1"><rect width="1446" height="22"></rect></clipPath><g><g><line x1="0" y1="0" x2="0" y2="5" style="visibility: inherit;" fill="rgb(0, 0, 0)" stroke="rgb(204, 204, 204)" stroke-width="1px"></line><line x1="120.5" y1="0" x2="120.5" y2="5" style="visibility: inherit;" fill="rgb(0, 0, 0)" stroke="rgb(204, 204, 204)" stroke-width="1px"></line><line x1="241" y1="0" x2="241" y2="5" style="visibility: inherit;" fill="rgb(0, 0, 0)" stroke="rgb(204, 204, 204)" stroke-width="1px"></line><line x1="361.5" y1="0" x2="361.5" y2="5" style="visibility: inherit;" fill="rgb(0, 0, 0)" stroke="rgb(204, 204, 204)" stroke-width="1px"></line><line x1="482" y1="0" x2="482" y2="5" style="visibility: inherit;" fill="rgb(0, 0, 0)" stroke="rgb(204, 204, 204)" stroke-width="1px"></line><line x1="602.5" y1="0" x2="602.5" y2="5" style="visibility: inherit;" fill="rgb(0, 0, 0)" stroke="rgb(204, 204, 204)" stroke-width="1px"></line><line x1="723" y1="0" x2="723" y2="5" style="visibility: inherit;" fill="rgb(0, 0, 0)" stroke="rgb(204, 204, 204)" stroke-width="1px"></line><line x1="843.5" y1="0" x2="843.5" y2="5" style="visibility: inherit;" fill="rgb(0, 0, 0)" stroke="rgb(204, 204, 204)" stroke-width="1px"></line><line x1="964" y1="0" x2="964" y2="5" style="visibility: inherit;" fill="rgb(0, 0, 0)" stroke="rgb(204, 204, 204)" stroke-width="1px"></line><line x1="1084.5" y1="0" x2="1084.5" y2="5" style="visibility: inherit;" fill="rgb(0, 0, 0)" stroke="rgb(204, 204, 204)" stroke-width="1px"></line><line x1="1205" y1="0" x2="1205" y2="5" style="visibility: inherit;" fill="rgb(0, 0, 0)" stroke="rgb(204, 204, 204)" stroke-width="1px"></line><line x1="1325.5" y1="0" x2="1325.5" y2="5" style="visibility: inherit;" fill="rgb(0, 0, 0)" stroke="rgb(204, 204, 204)" stroke-width="1px"></line><line x1="1446" y1="0" x2="1446" y2="5" style="visibility: inherit;" fill="rgb(0, 0, 0)" stroke="rgb(204, 204, 204)" stroke-width="1px"></line></g><g transform="translate(0, 8)"><text x="0" y="0" dx="0em" dy="0.95em" style="text-anchor: middle; visibility: hidden; font-family: Roboto, sans-serif; font-size: 12px; font-weight: 200;" fill="rgb(50, 49, 63)" stroke="none" stroke-width="1px">-200</text><text x="120.5" y="0" dx="0em" dy="0.95em" style="text-anchor: middle; visibility: inherit; font-family: Roboto, sans-serif; font-size: 12px; font-weight: 200;" fill="rgb(50, 49, 63)" stroke="none" stroke-width="1px">0</text><text x="241" y="0" dx="0em" dy="0.95em" style="text-anchor: middle; visibility: inherit; font-family: Roboto, sans-serif; font-size: 12px; font-weight: 200;" fill="rgb(50, 49, 63)" stroke="none" stroke-width="1px">200</text><text x="361.5" y="0" dx="0em" dy="0.95em" style="text-anchor: middle; visibility: inherit; font-family: Roboto, sans-serif; font-size: 12px; font-weight: 200;" fill="rgb(50, 49, 63)" stroke="none" stroke-width="1px">400</text><text x="482" y="0" dx="0em" dy="0.95em" style="text-anchor: middle; visibility: inherit; font-family: Roboto, sans-serif; font-size: 12px; font-weight: 200;" fill="rgb(50, 49, 63)" stroke="none" stroke-width="1px">600</text><text x="602.5" y="0" dx="0em" dy="0.95em" style="text-anchor: middle; visibility: inherit; font-family: Roboto, sans-serif; font-size: 12px; font-weight: 200;" fill="rgb(50, 49, 63)" stroke="none" stroke-width="1px">800</text><text x="723" y="0" dx="0em" dy="0.95em" style="text-anchor: middle; visibility: inherit; font-family: Roboto, sans-serif; font-size: 12px; font-weight: 200;" fill="rgb(50, 49, 63)" stroke="none" stroke-width="1px">1k</text><text x="843.5" y="0" dx="0em" dy="0.95em" style="text-anchor: middle; visibility: inherit; font-family: Roboto, sans-serif; font-size: 12px; font-weight: 200;" fill="rgb(50, 49, 63)" stroke="none" stroke-width="1px">1.2k</text><text x="964" y="0" dx="0em" dy="0.95em" style="text-anchor: middle; visibility: inherit; font-family: Roboto, sans-serif; font-size: 12px; font-weight: 200;" fill="rgb(50, 49, 63)" stroke="none" stroke-width="1px">1.4k</text><text x="1084.5" y="0" dx="0em" dy="0.95em" style="text-anchor: middle; visibility: inherit; font-family: Roboto, sans-serif; font-size: 12px; font-weight: 200;" fill="rgb(50, 49, 63)" stroke="none" stroke-width="1px">1.6k</text><text x="1205" y="0" dx="0em" dy="0.95em" style="text-anchor: middle; visibility: inherit; font-family: Roboto, sans-serif; font-size: 12px; font-weight: 200;" fill="rgb(50, 49, 63)" stroke="none" stroke-width="1px">1.8k</text><text x="1325.5" y="0" dx="0em" dy="0.95em" style="text-anchor: middle; visibility: inherit; font-family: Roboto, sans-serif; font-size: 12px; font-weight: 200;" fill="rgb(50, 49, 63)" stroke="none" stroke-width="1px">2k</text><text x="1446" y="0" dx="0em" dy="0.95em" style="text-anchor: middle; visibility: hidden; font-family: Roboto, sans-serif; font-size: 12px; font-weight: 200;" fill="rgb(50, 49, 63)" stroke="none" stroke-width="1px">2.2k</text></g><line x1="0" y1="0" x2="1446" y2="0" fill="rgb(0, 0, 0)" stroke="rgb(204, 204, 204)" stroke-width="1px"></line></g></g></g></g></svg>