<svg viewBox="0 0 1496 400" xmlns="http://www.w3.org/2000/svg"><g><g><g><g><g><line x1="60" y1="378" x2="55" y2="378" style="visibility: inherit;" fill="rgb(0, 0, 0)" stroke="rgb(204, 204, 204)" stroke-width="1px"></line><line x1="60" y1="351.00000000000006" x2="55" y2="351.00000000000006" style="visibility: inherit;" fill="rgb(0, 0, 0)" stroke="rgb(204, 204, 204)" stroke-width="1px"></line><line x1="60" y1="324" x2="55" y2="324" style="visibility: inherit;" fill="rgb(0, 0, 0)" stroke="rgb(204, 204, 204)" stroke-width="1px"></line><line x1="60" y1="297" x2="55" y2="297" style="visibility: inherit;" fill="rgb(0, 0, 0)" stroke="rgb(204, 204, 204)" stroke-width="1px"></line><line x1="60" y1="270" x2="55" y2="270" style="visibility: inherit;" fill="rgb(0, 0, 0)" stroke="rgb(204, 204, 204)" stroke-width="1px"></line><line x1="60" y1="243.00000000000003" x2="55" y2="243.00000000000003" style="visibility: inherit;" fill="rgb(0, 0, 0)" stroke="rgb(204, 204, 204)" stroke-width="1px"></line><line x1="60" y1="216" x2="55" y2="216" style="visibility: inherit;" fill="rgb(0, 0, 0)" stroke="rgb(204, 204, 204)" stroke-width="1px"></line><line x1="60" y1="189" x2="55" y2="189" style="visibility: inherit;" fill="rgb(0, 0, 0)" stroke="rgb(204, 204, 204)" stroke-width="1px"></line><line x1="60" y1="162" x2="55" y2="162" style="visibility: inherit;" fill="rgb(0, 0, 0)" stroke="rgb(204, 204, 204)" stroke-width="1px"></line><line x1="60" y1="134.99999999999997" x2="55" y2="134.99999999999997" style="visibility: inherit;" fill="rgb(0, 0, 0)" stroke="rgb(204, 204, 204)" stroke-width="1px"></line><line x1="60" y1="108" x2="55" y2="108" style="visibility: inherit;" fill="rgb(0, 0, 0)" stroke="rgb(204, 204, 204)" stroke-width="1px"></line><line x1="60" y1="81" x2="55" y2="81" style="visibility: inherit;" fill="rgb(0, 0, 0)" stroke="rgb(204, 204, 204)" stroke-width="1px"></line><line x1="60" y1="53.99999999999998" x2="55" y2="53.99999999999998" style="visibility: inherit;" fill="rgb(0, 0, 0)" stroke="rgb(204, 204, 204)" stroke-width="1px"></line><line x1="60" y1="26.999999999999947" x2="55" y2="26.999999999999947" style="visibility: inherit;" fill="rgb(0, 0, 0)" stroke="rgb(204, 204, 204)" stroke-width="1px"></line><line x1="60" y1="0" x2="55" y2="0" style="visibility: inherit;" fill="rgb(0, 0, 0)" stroke="rgb(204, 204, 204)" stroke-width="1px"></line></g><g transform="translate(50, 0)"><text x="0" y="378" dx="0em" dy="0.3em" style="text-anchor: end; visibility: hidden; font-family: Roboto, sans-serif; font-size: 12px; font-weight: 200;" fill="rgb(50, 49, 63)" stroke="none" stroke-width="1px">-0.15</text><text x="0" y="351.00000000000006" dx="0em" dy="0.3em" style="text-anchor: end; visibility: inherit; font-family: Roboto, sans-serif; font-size: 12px; font-weight: 200;" fill="rgb(50, 49, 63)" stroke="none" stroke-width="1px">-0.14</text><text x="0" y="324" dx="0em" dy="0.3em" style="text-anchor: end; visibility: inherit; font-family: Roboto, sans-serif; font-size: 12px; font-weight: 200;" fill="rgb(50, 49, 63)" stroke="none" stroke-width="1px">-0.13</text><text x="0" y="297" dx="0em" dy="0.3em" style="text-anchor: end; visibility: inherit; font-family: Roboto, sans-serif; font-size: 12px; font-weight: 200;" fill="rgb(50, 49, 63)" stroke="none" stroke-width="1px">-0.12</text><text x="0" y="270" dx="0em" dy="0.3em" style="text-anchor: end; visibility: inherit; font-family: Roboto, sans-serif; font-size: 12px; font-weight: 200;" fill="rgb(50, 49, 63)" stroke="none" stroke-width="1px">-0.11</text><text x="0" y="243.00000000000003" dx="0em" dy="0.3em" style="text-anchor: end; visibility: inherit; font-family: Roboto, sans-serif; font-size: 12px; font-weight: 200;" fill="rgb(50, 49, 63)" stroke="none" stroke-width="1px">-0.1</text><text x="0" y="216" dx="0em" dy="0.3em" style="text-anchor: end; visibility: inherit; font-family: Roboto, sans-serif; font-size: 12px; font-weight: 200;" fill="rgb(50, 49, 63)" stroke="none" stroke-width="1px">-0.09</text><text x="0" y="189" dx="0em" dy="0.3em" style="text-anchor: end; visibility: inherit; font-family: Roboto, sans-serif; font-size: 12px; font-weight: 200;" fill="rgb(50, 49, 63)" stroke="none" stroke-width="1px">-0.08</text><text x="0" y="162" dx="0em" dy="0.3em" style="text-anchor: end; visibility: inherit; font-family: Roboto, sans-serif; font-size: 12px; font-weight: 200;" fill="rgb(50, 49, 63)" stroke="none" stroke-width="1px">-0.07</text><text x="0" y="134.99999999999997" dx="0em" dy="0.3em" style="text-anchor: end; visibility: inherit; font-family: Roboto, sans-serif; font-size: 12px; font-weight: 200;" fill="rgb(50, 49, 63)" stroke="none" stroke-width="1px">-0.06</text><text x="0" y="108" dx="0em" dy="0.3em" style="text-anchor: end; visibility: inherit; font-family: Roboto, sans-serif; font-size: 12px; font-weight: 200;" fill="rgb(50, 49, 63)" stroke="none" stroke-width="1px">-0.05</text><text x="0" y="81" dx="0em" dy="0.3em" style="text-anchor: end; visibility: inherit; font-family: Roboto, sans-serif; font-size: 12px; font-weight: 200;" fill="rgb(50, 49, 63)" stroke="none" stroke-width="1px">-0.04</text><text x="0" y="53.99999999999998" dx="0em" dy="0.3em" style="text-anchor: end; visibility: inherit; font-family: Roboto, sans-serif; font-size: 12px; font-weight: 200;" fill="rgb(50, 49, 63)" stroke="none" stroke-width="1px">-0.03</text><text x="0" y="26.999999999999947" dx="0em" dy="0.3em" style="text-anchor: end; visibility: inherit; font-family: Roboto, sans-serif; font-size: 12px; font-weight: 200;" fill="rgb(50, 49, 63)" stroke="none" stroke-width="1px">-0.02</text><text x="0" y="0" dx="0em" dy="0.3em" style="text-anchor: end; visibility: hidden; font-family: Roboto, sans-serif; font-size: 12px; font-weight: 200;" fill="rgb(50, 49, 63)" stroke="none" stroke-width="1px">-0.01</text></g><line x1="60" y1="0" x2="60" y2="378" fill="rgb(0, 0, 0)" stroke="rgb(204, 204, 204)" stroke-width="1px"></line></g></g><g transform="translate(60, 0)" clip-path="url(#clip_0)"><clipPath id="clip_0"><rect width="1436" height="378"></rect></clipPath><g><g><g><line x1="0" y1="0" x2="0" y2="378" fill="rgb(0, 0, 0)" stroke="rgb(60, 60, 60)" stroke-width="1px" opacity="0.25"></line><line x1="119.66666666666666" y1="0" x2="119.66666666666666" y2="378" fill="rgb(0, 0, 0)" stroke="rgb(60, 60, 60)" stroke-width="1px" opacity="0.25"></line><line x1="239.33333333333331" y1="0" x2="239.33333333333331" y2="378" fill="rgb(0, 0, 0)" stroke="rgb(60, 60, 60)" stroke-width="1px" opacity="0.25"></line><line x1="359" y1="0" x2="359" y2="378" fill="rgb(0, 0, 0)" stroke="rgb(60, 60, 60)" stroke-width="1px" opacity="0.25"></line><line x1="478.66666666666663" y1="0" x2="478.66666666666663" y2="378" fill="rgb(0, 0, 0)" stroke="rgb(60, 60, 60)" stroke-width="1px" opacity="0.25"></line><line x1="598.3333333333334" y1="0" x2="598.3333333333334" y2="378" fill="rgb(0, 0, 0)" stroke="rgb(60, 60, 60)" stroke-width="1px" opacity="0.25"></line><line x1="718" y1="0" x2="718" y2="378" fill="rgb(0, 0, 0)" stroke="rgb(60, 60, 60)" stroke-width="1px" opacity="0.25"></line><line x1="837.6666666666667" y1="0" x2="837.6666666666667" y2="378" fill="rgb(0, 0, 0)" stroke="rgb(60, 60, 60)" stroke-width="1px" opacity="0.25"></line><line x1="957.3333333333333" y1="0" x2="957.3333333333333" y2="378" fill="rgb(0, 0, 0)" stroke="rgb(60, 60, 60)" stroke-width="1px" opacity="0.25"></line><line x1="1077" y1="0" x2="1077" y2="378" fill="rgb(0, 0, 0)" stroke="rgb(60, 60, 60)" stroke-width="1px" opacity="0.25"></line><line x1="1196.6666666666667" y1="0" x2="1196.6666666666667" y2="378" fill="rgb(0, 0, 0)" stroke="rgb(60, 60, 60)" stroke-width="1px" opacity="0.25"></line><line x1="1316.3333333333333" y1="0" x2="1316.3333333333333" y2="378" fill="rgb(0, 0, 0)" stroke="rgb(60, 60, 60)" stroke-width="1px" opacity="0.25"></line><line x1="1436" y1="0" x2="1436" y2="378" fill="rgb(0, 0, 0)" stroke="rgb(60, 60, 60)" stroke-width="1px" opacity="0.25"></line></g><g><line x1="0" y1="378" x2="1436" y2="378" fill="rgb(0, 0, 0)" stroke="rgb(60, 60, 60)" stroke-width="1px" opacity="0.25"></line><line x1="0" y1="351.00000000000006" x2="1436" y2="351.00000000000006" fill="rgb(0, 0, 0)" stroke="rgb(60, 60, 60)" stroke-width="1px" opacity="0.25"></line><line x1="0" y1="324" x2="1436" y2="324" fill="rgb(0, 0, 0)" stroke="rgb(60, 60, 60)" stroke-width="1px" opacity="0.25"></line><line x1="0" y1="297" x2="1436" y2="297" fill="rgb(0, 0, 0)" stroke="rgb(60, 60, 60)" stroke-width="1px" opacity="0.25"></line><line x1="0" y1="270" x2="1436" y2="270" fill="rgb(0, 0, 0)" stroke="rgb(60, 60, 60)" stroke-width="1px" opacity="0.25"></line><line x1="0" y1="243.00000000000003" x2="1436" y2="243.00000000000003" fill="rgb(0, 0, 0)" stroke="rgb(60, 60, 60)" stroke-width="1px" opacity="0.25"></line><line x1="0" y1="216" x2="1436" y2="216" fill="rgb(0, 0, 0)" stroke="rgb(60, 60, 60)" stroke-width="1px" opacity="0.25"></line><line x1="0" y1="189" x2="1436" y2="189" fill="rgb(0, 0, 0)" stroke="rgb(60, 60, 60)" stroke-width="1px" opacity="0.25"></line><line x1="0" y1="162" x2="1436" y2="162" fill="rgb(0, 0, 0)" stroke="rgb(60, 60, 60)" stroke-width="1px" opacity="0.25"></line><line x1="0" y1="134.99999999999997" x2="1436" y2="134.99999999999997" fill="rgb(0, 0, 0)" stroke="rgb(60, 60, 60)" stroke-width="1px" opacity="0.25"></line><line x1="0" y1="108" x2="1436" y2="108" fill="rgb(0, 0, 0)" stroke="rgb(60, 60, 60)" stroke-width="1px" opacity="0.25"></line><line x1="0" y1="81" x2="1436" y2="81" fill="rgb(0, 0, 0)" stroke="rgb(60, 60, 60)" stroke-width="1px" opacity="0.25"></line><line x1="0" y1="53.99999999999998" x2="1436" y2="53.99999999999998" fill="rgb(0, 0, 0)" stroke="rgb(60, 60, 60)" stroke-width="1px" opacity="0.25"></line><line x1="0" y1="26.999999999999947" x2="1436" y2="26.999999999999947" fill="rgb(0, 0, 0)" stroke="rgb(60, 60, 60)" stroke-width="1px" opacity="0.25"></line><line x1="0" y1="0" x2="1436" y2="0" fill="rgb(0, 0, 0)" stroke="rgb(60, 60, 60)" stroke-width="1px" opacity="0.25"></line></g></g></g><g><g><line x1="0" y1="-26.99999999999999" x2="1436" y2="-26.99999999999999" fill="rgb(0, 0, 0)" stroke="rgb(153, 153, 153)" stroke-width="1.5px"></line></g></g><g><g><line x1="119.66666666666666" y1="0" x2="119.66666666666666" y2="378" fill="rgb(0, 0, 0)" stroke="rgb(153, 153, 153)" stroke-width="1.5px"></line></g></g><g><g><g><g><g><path stroke="rgb(204, 51, 17)" stroke-width="2px" d="M122.65833333333333,261.6460304260254L123.25666666666666,267.73958015441895L125.64999999999999,201.40962409973147L126.24833333333333,159.82723045349118L127.445,183.0839138031006L128.04333333333335,186.8008117675781L128.64166666666668,151.17935943603516L129.83833333333334,154.52546882629395L130.43666666666667,147.977445602417L131.035,229.7376136779785L131.63333333333333,153.54571151733396L134.02666666666667,319.71950340270996L139.41166666666666,144.1935997009277L140.01,141.11656951904297L141.20666666666665,138.97423553466797L143.00166666666667,157.82007980346677L143.6,121.50983619689939L144.79666666666665,128.7814121246338L145.99333333333334,94.97399139404297L146.59166666666667,141.2633399963379L147.78833333333333,129.71997070312497L148.98499999999999,175.77371406555176L149.58333333333334,98.22096633911133L151.37833333333333,89.31946563720703L151.97666666666666,114.70947074890135L152.575,86.99173736572266L153.17333333333335,110.61405944824216L153.77166666666668,98.70376396179198L155.56666666666666,109.37037277221677L156.165,108.42022705078125L157.36166666666668,96.12498092651364L158.55833333333334,82.302806854248L159.15666666666667,109.94586753845215L159.755,94.453857421875L160.35333333333332,61.89269828796387L162.14833333333334,111.98005485534668L162.74666666666667,115.52829551696775L163.345,121.76089096069336L163.94333333333333,105.4449062347412L165.14000000000001,142.9460506439209L166.935,104.06346130371094L169.92666666666668,124.39245986938477L170.525,67.89226341247554L171.12333333333333,95.24950790405273L171.72166666666666,83.50915718078612L172.32,88.63453674316406L172.91833333333335,118.41220664978025L175.91,76.53240966796872L180.69666666666666,108.81418991088864L182.49166666666665,73.70514678955074L183.09,76.30324172973633L187.2783333333333,74.4737606048584L189.07333333333332,71.47912788391109L190.27,76.69462966918942L190.8683333333333,64.10069274902344L191.46666666666667,87.73588943481444L193.86,82.07235145568845L194.45833333333331,88.82379341125488L195.05666666666667,106.024263381958L196.85166666666666,69.08573913574216L197.45000000000002,67.30840015411374L199.245,57.55202579498289L201.63833333333332,84.90347671508789L202.83499999999998,66.84684562683101L204.03166666666667,75.02350616455078L204.63,69.28014564514156L205.22833333333332,69.73655033111571L205.82666666666668,94.16804122924805L208.22,74.44157409667966L209.41666666666669,90.02306270599364L211.21166666666667,81.80842208862303L211.81,96.56142997741698L212.40833333333333,82.86928939819335L213.605,77.27656173706055L214.20333333333335,60.845349311828606L214.80166666666668,89.11089706420896L216.5966666666667,99.59468650817868L217.79333333333335,74.2890100479126L218.39166666666665,87.66572284698486L219.58833333333334,85.76028156280516L220.18666666666664,95.7593421936035L221.98166666666665,79.23092651367186L224.97333333333336,107.38060283660887L225.57166666666666,105.30199813842773L226.17,97.88687038421628L227.36666666666665,114.11208915710449L227.965,87.6946907043457L229.16166666666666,109.92719936370847L230.35833333333335,121.9540100097656L230.95666666666665,154.09545707702634L231.555,120.6163387298584L232.1533333333333,139.3269996643066L233.35,97.74782466888428L233.94833333333332,129.27257823944092L238.13666666666666,87.9470329284668L240.53,108.60433387756345L242.92333333333332,122.73292350769042L243.52166666666668,144.13823890686035L244.12,125.68828868865967L246.51333333333332,140.3189878463745L248.30833333333334,114.25950336456296L250.10333333333332,152.34515476226804L250.70166666666668,154.42697811126706L252.49666666666667,169.53983116149902L253.095,216.2746410369873L254.29166666666669,181.07676315307617L254.89,172.28212165832517L255.48833333333334,133.82310676574704L256.685,148.87995529174802L257.28333333333336,177.9520969390869L258.48,194.29898071289065L259.0783333333333,160.4567985534668L259.6766666666667,149.6002893447876L261.4716666666667,211.5213375091553L263.26666666666665,157.2909336090088L266.2583333333333,155.79361724853516L267.455,169.6679334640503L268.65166666666664,162.88430500030518L269.25,152.10826206207273L272.2416666666667,194.66719436645508L274.03666666666663,159.0212802886963L274.635,221.53198528289792L275.23333333333335,145.17335700988767L275.83166666666665,138.23973941802979L277.0283333333333,204.246542930603L279.4216666666667,197.7879981994629L280.61833333333334,127.41155433654785L281.815,170.3541498184204L283.01166666666666,119.42286300659178L286.00333333333333,186.85231018066406L287.2,186.3566379547119L289.5933333333333,229.8979024887085L292.585,184.78786754608154L293.7816666666667,193.1782464981079L294.38,201.05685997009277L296.175,173.36165714263913L297.37166666666667,209.27407550811768L297.96999999999997,157.99646186828613L298.5683333333333,157.99581813812253L299.765,187.99557495117188L300.36333333333334,204.3173532485962L300.9616666666667,226.80735397338867L303.355,218.77617645263675L303.9533333333333,156.256459236145L305.15,217.70951557159424L306.945,149.49214267730713L309.33833333333337,171.68602752685547L309.93666666666667,170.47517108917233L310.535,173.45499801635742L311.1333333333333,184.3340377807617L312.33,180.9763412475586L314.125,179.9540977478027L314.72333333333336,160.47997283935547L315.32166666666666,168.89738845825195L317.1166666666667,165.68324375152585L317.715,144.31848335266113L318.91166666666663,174.8615484237671L322.50166666666667,198.84242820739746L323.6983333333333,163.9722089767456L325.49333333333334,216.4040307998657L326.09166666666664,153.20904064178467L327.2883333333333,162.74525928497312L327.88666666666666,171.77550601959226L330.87833333333333,240.80848503112793L331.4766666666667,149.65436267852783L332.67333333333335,153.78453540802L333.87,187.72327709197998L334.4683333333333,193.7576036453247L335.06666666666666,166.42675209045407L336.8616666666667,193.14734745025635L337.46,202.2928218841553L339.255,157.40165519714355L339.85333333333335,155.38871097564694L341.05,166.35787296295166L341.6483333333333,191.9249038696289L342.84499999999997,187.06989097595215L345.23833333333334,168.26138305664062L345.8366666666667,182.84187126159668L346.435,209.63842678070068L347.63166666666666,217.96121406555176L348.23,202.50975894927979L350.025,187.65117931365967L350.62333333333333,225.51216888427734L351.2216666666667,185.05501556396482L351.82,193.42994499206543L353.01666666666665,171.39763641357422L353.615,182.91075038909912L354.21333333333337,190.329740524292L354.81166666666667,197.46613311767578L360.1966666666667,194.67363166809082L360.79499999999996,181.60784053802487L361.9916666666667,184.05852127075195L363.7866666666667,138.31312465667722L367.97499999999997,178.56879043579102L368.5733333333333,145.9400396347046L370.9666666666667,187.7303581237793L371.565,197.35669898986814L372.1633333333333,213.63019752502444L373.36,164.8386697769165L374.5566666666666,166.7531232833862L376.95,161.9341592788696L382.335,172.6638536453247L382.93333333333334,188.50991535186768L383.5316666666667,160.1220588684082L384.13,189.14141464233398L385.32666666666665,196.16772937774658L385.925,209.21163368225098L387.72,178.25593757629395L389.515,185.20178604125977L393.7033333333333,186.71455192565918L394.3016666666667,197.3084192276001L394.90000000000003,197.7004508972168L395.4983333333333,187.18640613555905L396.695,164.57602787017822L397.29333333333335,191.87147426605225L397.8916666666667,170.01104164123532L399.0883333333333,183.49783229827878L399.68666666666667,225.01263427734378L400.285,182.71698760986328L401.4816666666667,153.38606643676755L402.6783333333333,211.38229179382324L403.27666666666664,209.61460876464844L405.66999999999996,180.75618553161618L409.8583333333333,169.14264965057373L411.65333333333336,195.4100589752197L412.2516666666667,204.61153793334958L413.4483333333333,178.9415102005005L414.645,179.0657501220703L416.44,168.9006071090698L423.02166666666665,187.5456075668335L424.81666666666666,203.5860757827759L425.415,198.478720664978L426.0133333333334,166.7614917755127L427.21,176.38847637176514L428.4066666666667,187.66856002807614L429.005,181.59625339508054L430.20166666666665,186.26844692230225L433.1933333333334,216.5765504837036L433.79166666666663,186.6643409729004L437.38166666666666,221.28608036041263L438.5783333333333,205.2668552398682L439.1766666666667,180.71820545196533L439.77500000000003,166.92435550689694L440.3733333333333,217.950270652771L440.97166666666664,154.9902420043945L441.57,172.73852634429932L442.16833333333335,203.31828403472898L442.7666666666667,184.77048683166504L443.365,174.62980556488034L443.9633333333333,172.1347074508667L445.16,216.29266548156738L446.95500000000004,191.7974452972412L447.5533333333333,242.07534599304196L448.15166666666664,141.46096515655515L449.34833333333336,200.80323028564453L451.7416666666667,205.92346000671387L452.93833333333333,200.23417282104492L454.135,202.55353260040283L456.52833333333336,186.80467414855957L457.1266666666667,191.70925426483154L457.72499999999997,157.81621742248535L458.9216666666667,160.19866275787354L460.11833333333334,220.36490249633786L461.315,164.68224334716797L462.51166666666666,199.38702392578125L463.11,189.33453369140625L464.905,197.9534368515015L466.1016666666667,145.17915058135986L466.7,168.88322639465332L467.29833333333335,205.2134256362915L467.89666666666665,194.21272087097168L468.495,158.13164520263672L469.0933333333333,176.7966012954712L470.29,197.90451335906982L470.8883333333334,187.28039073944092L473.88,212.16378021240232L474.47833333333335,199.0619401931763L475.675,217.36898231506348L476.2733333333333,203.77468872070312L476.87166666666667,190.31879711151123L478.66666666666663,195.87161350250247L479.86333333333334,182.72342491149902L481.06,214.97752475738528L482.25666666666666,198.33774375915527L483.4533333333333,185.3807430267334L484.65000000000003,197.86588954925534L485.2483333333333,214.26169681549072L485.84666666666664,193.7930088043213L487.6416666666667,164.56250953674316L490.035,145.2821474075317L490.6333333333333,171.2733964920044L491.83000000000004,176.84745597839355L492.4283333333333,205.0434808731079L493.625,219.98574542999268L496.0183333333333,218.40603160858154L499.01,192.36650276184082L503.1983333333333,212.35754299163816L503.7966666666667,184.3346815109253L504.99333333333334,168.64504623413086L505.5916666666667,173.89530944824216L506.19,174.24871730804443L506.7883333333333,171.39377403259277L507.38666666666666,128.97388744354245L507.985,167.15996074676514L509.1816666666666,171.21674823760983L509.78,172.16496276855466L512.1733333333334,238.52324295043945L512.7716666666666,225.94218063354492L513.9683333333334,218.04168033599856L515.165,195.03025817871094L516.96,141.00713539123535L518.1566666666666,171.38733673095703L518.755,199.80416107177734L519.3533333333334,160.0924472808838L521.1483333333333,175.74345874786377L521.7466666666667,206.323860168457L522.345,192.57378387451172L522.9433333333334,204.88061714172363L523.5416666666666,168.3766107559204L524.7383333333333,197.74100589752197L525.3366666666667,167.68331336975098L525.9350000000001,214.6118860244751L527.1316666666667,187.45741653442383L527.73,196.56748580932617L528.3283333333334,189.86561107635498L528.9266666666667,209.2238645553589L529.525,203.67426681518552L530.1233333333333,222.69649314880374L531.32,206.4667682647705L531.9183333333333,226.96378040313724L533.7133333333333,155.78975486755368L536.1066666666667,182.15050506591794L537.9016666666666,191.99571418762207L538.5,196.81532192230225L539.0983333333334,180.8784942626953L540.295,173.11575222015378L540.8933333333333,187.02804851531982L541.4916666666667,204.15577697753906L542.09,159.7750883102417L543.2866666666667,210.58728504180908L543.885,201.69930267333984L544.4833333333333,269.1120128631592L546.8766666666667,170.8459596633911L549.27,206.68563652038574L549.8683333333333,195.33023643493652L551.0649999999999,188.10822772979736L551.6633333333333,213.94305038452148L552.2616666666667,227.9010515213013L552.86,191.56505870819092L553.4583333333334,164.94552898406982L554.0566666666666,203.9781074523926L555.8516666666667,230.30538368225095L556.45,233.20796298980713L560.04,191.9622402191162L561.2366666666667,191.2599306106567L561.835,203.54423332214355L562.4333333333333,205.17737674713135L563.0316666666666,209.00435256958008L564.2283333333334,231.85355472564697L566.0233333333333,183.802960395813L566.6216666666667,210.78491020202634L568.4166666666666,192.30019855499268L569.015,197.70431327819824L569.6133333333333,185.63630390167233L570.8100000000001,179.08184337615964L572.0066666666667,179.5453290939331L573.8016666666667,238.53804874420163L574.4,161.7075662612915L575.5966666666667,171.40986728668213L577.3916666666667,221.88539314270022L577.99,187.4078493118286L578.5883333333333,190.71018505096433L579.785,181.19199085235596L580.3833333333333,190.7121162414551L580.9816666666667,159.90576553344727L582.1783333333333,203.16443252563477L582.7766666666666,236.35902214050296L583.375,178.93829154968262L586.3666666666667,182.02562141418457L588.76,213.05277156829834L589.3583333333333,175.22654342651367L590.555,191.4704303741455L591.7516666666667,219.88081741333008L592.9483333333333,190.3361778259277L593.5466666666666,202.32114601135254L594.145,221.3884334564209L594.7433333333333,180.99500942230222L595.3416666666667,217.1784381866455L595.9399999999999,178.7979583740234L597.1366666666667,213.66367149353027L598.3333333333334,144.68540954589844L599.53,193.43702602386475L601.325,164.9352293014526L602.5216666666666,170.07541465759277L603.12,211.80586624145508L603.7183333333334,221.6027956008911L606.1116666666667,183.83965301513672L607.3083333333333,231.60700607299805L607.9066666666666,187.67306613922116L609.1033333333334,208.82539558410645L610.8983333333333,183.5029821395874L612.095,290.95828342437744L612.6933333333334,215.00263023376462L613.2916666666666,197.90065097808838L615.0866666666667,193.45247554779053L616.8816666666667,208.3792905807495L617.48,206.0251693725586L618.6766666666667,203.03568649291992L619.8733333333333,201.53386402130124L621.07,225.80184745788574L624.0616666666666,222.50079917907712L625.2583333333333,191.7053918838501L625.8566666666667,219.31240367889407L626.455,183.74695587158203L627.0533333333333,193.07203102111816L628.8483333333334,190.03362464904785L632.4383333333334,211.37134838104248L633.635,183.3201627731323L634.2333333333333,174.84288024902344L634.8316666666667,209.8006467819214L635.43,250.44576930999756L636.0283333333333,224.52339935302734L638.4216666666666,194.6317892074585L639.6183333333333,201.28667163848877L640.2166666666667,158.02607345581055L642.0116666666667,172.92971420288086L642.61,163.8299446105957L643.2083333333334,219.7681646347046L643.8066666666666,229.61015510559082L644.405,195.38173484802246L645.6016666666667,196.13103675842282L646.2,216.11113357543942L646.7983333333334,133.21156311035156L647.3966666666666,162.37318325042722L648.5933333333334,222.87995624542236L650.3883333333333,182.63459014892578L651.585,212.22557830810547L652.1833333333333,179.64124488830566L653.38,208.3818655014038L653.9783333333334,209.7201805114746L655.7733333333333,218.31848430633545L656.3716666666667,164.9506788253784L657.5683333333334,168.40493488311765L658.1666666666666,189.6872978210449L662.355,185.19985485076904L662.9533333333334,210.8492832183838L663.5516666666667,179.3129425048828L664.15,182.1189622879028L664.7483333333333,166.5194492340088L665.3466666666667,205.34281539916992L665.945,211.6050224304199L667.1416666666667,163.62395095825192L667.74,174.99480056762692L668.3383333333333,182.6738576889038L670.1333333333333,180.65254497528073L670.7316666666667,193.78657150268555L671.33,175.22139358520508L671.9283333333333,194.3768720626831L673.125,169.58424854278564L676.715,195.64888286590573L677.3133333333334,205.76059627532956L677.9116666666667,174.56800746917725L679.1083333333333,220.5445032119751L681.5016666666667,178.84173202514648L683.2966666666666,205.27393627166745L685.0916666666667,218.94032764434814L687.485,166.21560859680176L689.28,197.6289968490601L689.8783333333333,172.11861419677734L690.4766666666667,173.82964897155762L691.6733333333334,218.19617557525635L692.2716666666666,201.0381917953491L692.87,189.31715297698975L694.665,191.23482513427737L695.2633333333333,142.86815929412842L696.46,230.66973495483398L697.6566666666666,183.09807586669922L698.255,195.02317714691162L699.4516666666666,204.43386840820312L700.6483333333333,228.30467033386228L701.2466666666667,211.9725923538208L702.4433333333334,210.06200122833252L703.64,206.2144260406494L704.2383333333333,200.8392791748047L704.8366666666667,204.9836139678955L705.4350000000001,182.92941856384277L707.23,208.64643859863284L707.8283333333334,167.5255994796753L708.4266666666667,181.34391117095944L710.2216666666667,187.67177867889404L710.82,179.20350837707517L715.6066666666667,155.8200101852417L717.4016666666666,216.87717247009275L718,183.23519039154053L719.1966666666667,200.18589305877686L720.3933333333334,211.06943893432617L720.9916666666667,148.2542495727539L722.7866666666666,216.01586151123047L723.385,180.20064640045166L724.5816666666667,138.35754203796387L725.18,217.22736167907715L725.7783333333333,240.77887344360352L726.3766666666667,144.22836112976074L728.1716666666666,207.5578908920288L732.9583333333333,208.64965724945068L733.5566666666667,196.11172485351562L734.155,193.38037776947021L735.3516666666667,214.66016578674314L736.5483333333334,159.77444458007812L737.1466666666666,206.2807302474976L737.745,181.71212482452393L738.9416666666666,203.5577516555786L740.1383333333333,179.29878044128418L740.7366666666667,205.29196071624753L741.335,181.7230682373047L743.13,195.70681858062744L743.7283333333334,200.90043354034427L744.3266666666666,197.78864192962646L747.3183333333333,206.15005302429202L748.515,165.4856185913086L749.1133333333332,213.16671180725098L750.31,224.7293930053711L750.9083333333334,170.1462249755859L752.105,230.8789472579956L755.695,243.13235092163086L756.2933333333333,187.2874717712402L757.49,249.15895271301267L758.6866666666666,171.56822490692136L761.08,230.50815868377683L762.2766666666668,213.4956579208374L763.4733333333332,212.83261585235599L764.67,196.96080493927002L765.8666666666667,155.8747272491455L767.0633333333334,213.58449268341064L767.6616666666666,218.1923131942749L768.26,231.07271003723145L768.8583333333333,209.5856409072876L769.4566666666667,211.17179203033447L771.85,207.67762470245364L773.0466666666666,200.3745059967041L773.645,183.7649803161621L777.235,185.52751350402832L778.4316666666667,216.5469388961792L779.6283333333334,176.59253883361814L780.2266666666667,183.38711071014404L780.8249999999999,198.84049701690674L784.415,207.7954273223877L786.21,208.66768169403076L787.4066666666666,222.37076568603516L789.2016666666666,187.2533540725708L790.9966666666666,195.82204627990725L791.595,228.2126169204712L792.7916666666667,211.48078250885013L793.39,223.35502910614014L793.9883333333332,217.4507360458374L794.5866666666667,215.25947856903073L795.7833333333334,182.12604331970212L796.3816666666667,172.65033531188965L797.5783333333334,171.00431728363037L798.1766666666666,204.0946226119995L798.775,187.6827220916748L800.57,167.66979503631592L801.1683333333333,205.5333595275879L802.365,191.42021942138672L807.1516666666668,212.23587799072263L807.75,217.20225620269775L808.3483333333332,239.7321681976318L808.9466666666667,154.84411525726318L810.7416666666667,189.86561107635498L811.3399999999999,173.57086944580075L811.9383333333334,208.67347526550296L813.7333333333333,165.51844882965085L814.3316666666667,216.52827072143555L814.93,188.04642963409424L816.725,186.97912502288816L823.905,188.40563106536865L825.6999999999999,208.39216518402097L826.8966666666666,167.47152614593506L827.495,182.85538959503174L828.6916666666666,185.34340667724607L829.29,209.01014614105225L831.085,208.28659343719482L832.88,164.84832572937012L833.4783333333334,196.13876152038574L834.0766666666666,205.62090682983396L834.6750000000001,200.23546028137207L835.2733333333333,193.49109935760498L835.8716666666666,172.6413230895996L836.47,171.51865768432614L837.0683333333333,188.5993938446045L838.265,186.209867477417L839.4616666666667,232.74254608154297L840.06,178.2688121795654L841.2566666666667,234.99624538421628L842.4533333333334,179.63158893585202L843.65,204.78598880767822L844.2483333333333,252.91254329681394L844.8466666666667,186.81046772003174L845.445,161.48354816436765L846.0433333333333,238.909481048584L846.6416666666667,230.75148868560788L849.0350000000001,212.36784267425537L852.0266666666668,194.7431545257568L852.625,208.50095558166504L853.8216666666667,209.08353137969974L854.42,193.70159912109375L856.8133333333334,233.12234687805176L857.4116666666666,173.22261142730713L858.01,212.5062446594238L859.2066666666667,176.45928668975827L861.0016666666667,191.57728958129886L862.7966666666666,231.11712741851807L863.9933333333333,208.37285327911377L865.19,222.07143115997314L865.7883333333333,242.38369274139407L866.985,215.1011209487915L867.5833333333333,235.8601312637329L869.3783333333334,182.19299125671387L869.9766666666667,202.49817180633542L870.5749999999999,197.90580081939697L871.7716666666666,211.6545896530151L872.37,190.07675457000735L872.9683333333334,232.41553115844727L874.165,182.93328094482422L874.7633333333333,184.30313873291016L875.3616666666667,237.15660381317142L875.96,183.92848777770993L876.5583333333334,225.5907039642334L877.1566666666666,214.3395881652832L880.1483333333333,223.7670164108276L880.7466666666666,190.1971321105957L881.9433333333333,245.99823760986328L884.3366666666667,167.7998285293579L884.935,198.35641193389893L886.1316666666667,196.98719787597653L888.525,164.6861057281494L889.7216666666667,187.20056819915771L890.9183333333333,197.29876327514648L892.115,210.73598670959473L892.7133333333334,187.6080493927002L893.3116666666666,208.47585010528564L893.9100000000001,197.91803169250488L895.1066666666666,214.7039394378662L896.9016666666668,208.05291938781738L897.5,197.9824047088623L898.6966666666667,225.66666412353516L899.295,208.21578311920166L899.8933333333334,195.8574514389038L901.0899999999999,183.7450246810913L903.4833333333333,166.62759590148926L904.68,193.0437068939209L905.2783333333333,188.60711860656738L906.475,189.78063869476318L907.0733333333334,198.70209503173828L908.8683333333333,172.85568523406982L909.4666666666666,226.72045040130618L912.4583333333333,201.01759243011477L913.0566666666667,147.27964210510254L913.655,212.052414894104L914.2533333333334,220.80843257904056L915.4499999999999,186.03091049194336L916.6466666666666,239.8931007385254L917.245,222.73962306976316L917.8433333333334,203.74636459350583L918.4416666666666,205.76574611663818L919.04,138.85707664489746L919.6383333333333,195.03283309936523L921.4333333333334,191.67964267730713L923.2283333333334,177.59675788879395L924.4250000000001,204.38494491577148L925.6216666666666,189.4703607559204L926.22,230.98451900482178L926.8183333333333,169.31903171539307L927.4166666666667,182.41057205200195L928.015,180.6210021972656L930.4083333333334,185.33632564544675L932.8016666666666,197.056077003479L933.9983333333333,260.0927095413208L934.5966666666667,198.9460687637329L936.3916666666667,259.6961717605591L936.99,180.4240207672119L937.5883333333334,205.91380405426023L939.3833333333333,216.08924674987793L941.1783333333333,207.86688137054446L941.7766666666668,186.80982398986814L942.375,209.3687038421631L943.5716666666667,207.9640846252441L944.17,282.5968723297119L944.7683333333334,188.62063694000244L946.5633333333334,186.17768096923828L947.76,198.4793643951416L948.3583333333333,204.4872980117798L948.9566666666667,239.86606407165527L949.555,210.87825107574463L950.1533333333333,189.7851448059082L950.7516666666667,244.3670253753662L951.9483333333334,227.16269302368164L952.5466666666666,207.54952239990232L954.3416666666666,203.02796173095703L957.3333333333333,202.21621799468997L964.5133333333333,191.72470378875732L965.1116666666667,232.8622798919678L965.71,211.46468925476074L966.3083333333334,200.79293060302734L968.7016666666666,214.28100872039795L970.4966666666666,232.89961624145508L971.095,211.6552333831787L972.2916666666667,190.67477989196777L972.89,166.60570907592773L973.4883333333332,248.8918046951294L974.0866666666667,209.56568527221683L975.2833333333334,177.83622550964353L976.48,208.72819232940674L977.0783333333334,253.7783603668213L977.6766666666666,163.83316326141355L978.8733333333333,255.87305831909177L979.4716666666667,155.20846652984616L980.07,213.1763677597046L981.2666666666667,172.61299896240234L982.4633333333334,199.22158527374268L986.0533333333333,161.36960792541504L987.25,239.8757200241089L990.2416666666667,224.97465419769284L990.8399999999999,239.72701835632324L993.2333333333333,200.91202068328855L996.225,195.7126121520996L996.8233333333334,232.02349948883057L999.2166666666666,207.6428632736206L1001.61,233.5510711669922L1003.405,216.91515254974368L1005.1999999999999,214.73870086669925L1005.7983333333334,200.56505012512204L1006.3966666666666,206.6090326309204L1008.1916666666666,234.24951839447021L1008.79,196.68528842926023L1010.585,278.06951808929443L1011.7816666666666,177.50599193572998L1012.38,218.27792930603027L1012.9783333333334,229.60178661346436L1017.1666666666667,219.84090614318848L1017.765,175.60956287384033L1018.3633333333332,210.83962726593018L1018.9616666666667,195.11008071899417L1020.1583333333334,205.13939666748047L1020.7566666666667,226.41789722442627L1021.355,228.9316635131836L1021.9533333333334,185.34147548675537L1022.5516666666666,202.16150093078613L1023.15,194.5571165084839L1023.7483333333333,260.48860359191895L1024.3466666666668,203.3260087966919L1024.945,248.09164810180664L1026.74,224.39594078063965L1027.9366666666667,151.36346626281738L1030.9283333333333,183.0510835647583L1031.5266666666666,196.99234771728516L1032.125,235.95862197875977L1033.3216666666667,234.28942966461182L1037.51,232.8848104476929L1038.7066666666667,167.72000598907468L1041.6983333333335,239.338849067688L1042.2966666666666,187.4780158996582L1044.69,191.4504747390747L1045.8866666666668,252.4947624206543L1046.485,186.88192176818845L1047.6816666666666,213.93661308288577L1048.28,208.07158756256104L1049.4766666666667,201.97932529449463L1050.075,196.32351207733154L1053.665,164.40608310699463L1054.2633333333333,226.33099365234372L1054.8616666666667,248.47852993011472L1057.8533333333335,167.86870765686032L1058.4516666666666,200.94420719146729L1063.8366666666666,246.2615232467651L1064.435,207.51411724090576L1066.23,157.00897979736325L1066.8283333333334,249.4943361282349L1067.4266666666665,218.93839645385745L1068.6233333333332,220.00055122375488L1069.82,234.8391752243042L1071.0166666666667,207.31777954101562L1072.8116666666667,208.81702709197998L1073.41,213.6598091125488L1074.6066666666666,164.1524534225464L1075.205,216.99690628051758L1076.4016666666666,161.14043998718262L1077.5983333333334,204.32894039154053L1078.1966666666667,194.714186668396L1079.3933333333334,212.03825283050537L1079.9916666666666,254.3100814819336L1082.385,163.57695865631104L1082.9833333333333,218.6969976425171L1084.18,160.42268085479736L1084.7783333333332,199.48229598999023L1085.3766666666668,172.72629547119138L1085.975,157.14416313171384L1087.1716666666666,209.26377582550052L1087.77,168.90704441070554L1088.3683333333333,193.22137641906738L1088.9666666666667,171.7104892730713L1091.36,192.01245117187497L1092.5566666666666,175.28319168090817L1093.155,186.52014541625977L1093.7533333333333,213.04826545715332L1094.95,168.71070671081543L1096.1466666666665,196.9163875579834L1097.3433333333332,207.9048614501953L1098.54,221.38392734527588L1099.1383333333333,218.73304653167725L1099.7366666666667,191.8354253768921L1100.9333333333334,256.72020721435547L1101.5316666666668,167.73545551300046L1102.1299999999999,190.74816513061526L1102.7283333333335,230.15410709381106L1103.3266666666666,179.10244274139401L1103.925,206.94956588745117L1105.1216666666667,209.22643947601318L1105.72,187.35956954956052L1107.515,177.54525947570798L1108.1133333333332,200.46849060058594L1109.31,197.98433589935303L1109.9083333333333,175.6926040649414L1111.7033333333334,167.83137130737305L1112.3016666666665,220.73890972137448L1112.9,210.95034885406494L1113.4983333333332,189.6982412338257L1114.0966666666668,177.2311191558838L1115.2933333333333,197.97339248657227L1117.6866666666667,222.12292957305908L1118.8833333333334,215.08760261535645L1119.4816666666666,177.7873020172119L1120.08,182.74853038787842L1121.875,208.72239875793457L1122.4733333333334,229.20460510253906L1123.67,202.03339862823486L1126.0633333333333,205.02610015869138L1126.6616666666666,168.17769813537598L1127.26,217.260835647583L1127.8583333333333,214.16191864013675L1129.055,214.92473888397217L1131.4483333333335,194.01702690124512L1132.0466666666666,235.37733364105225L1133.2433333333333,192.0890550613403L1133.8416666666667,227.97636795043945L1134.44,213.43900966644284L1135.0383333333334,205.67240524291995L1136.235,207.27786827087402L1138.03,208.43336391448975L1138.6283333333333,181.50870609283444L1139.2266666666667,229.07585906982422L1139.825,186.44933509826657L1140.4233333333334,211.45438957214355L1142.2183333333332,135.53414154052734L1142.8166666666666,188.00780582427979L1145.21,183.12382507324216L1145.8083333333334,258.7769250869751L1147.0049999999999,205.71617889404297L1147.6033333333335,214.60094261169434L1148.2016666666666,203.61182498931885L1150.595,199.99148654937744L1152.39,188.59553146362305L1153.5866666666666,232.40008163452148L1155.3816666666667,259.40778064727783L1155.98,191.0738925933838L1156.5783333333334,226.39086055755615L1157.1766666666665,203.45861721038818L1157.775,216.07444095611572L1158.9716666666668,208.13660430908203L1159.57,193.07911205291748L1160.1683333333333,177.1731834411621L1161.9633333333334,205.6801300048828L1162.5616666666667,206.16357135772708L1163.7583333333334,193.44217586517334L1164.3566666666666,198.51026344299314L1164.955,212.17536735534668L1166.75,173.08807182312012L1167.9466666666667,199.81896686553958L1168.545,228.68962097167972L1169.1433333333334,193.8451509475708L1169.7416666666666,176.1998634338379L1173.93,175.34112739562988L1174.5283333333332,148.37720203399655L1176.3233333333335,194.06466293334964L1179.315,172.05617237091064L1181.7083333333333,169.44455909729004L1182.905,232.3749761581421L1184.1016666666667,187.3846750259399L1185.2983333333334,181.99343490600586L1185.8966666666665,188.03355503082273L1186.4950000000001,176.32989692687988L1187.0933333333332,185.6923084259033L1189.4866666666667,234.07378005981445L1190.085,200.1414756774902L1190.6833333333334,218.50774097442627L1191.8799999999999,209.81159019470212L1192.4783333333335,181.79001617431638L1193.0766666666666,189.14720821380615L1195.47,186.1364822387695L1196.6666666666667,176.90024185180664L1197.8633333333332,187.51084613800046L1199.06,163.23706912994385L1199.6583333333333,218.72274684906006L1200.855,220.30117321014404L1203.2483333333332,197.92704391479492L1204.445,176.86226177215576L1205.0433333333333,196.4818696975708L1206.8383333333334,199.92904472351074L1208.6333333333334,229.38420581817627L1211.0266666666666,212.24810886383057L1212.2233333333334,182.95259284973142L1212.8216666666667,208.08124351501462L1214.6166666666666,221.52619171142578L1217.01,186.0695343017578L1217.6083333333333,176.83844375610352L1218.2066666666667,195.14677333831787L1218.805,163.65999984741208L1220.6,221.8976240158081L1221.1983333333335,204.02188110351562L1221.7966666666666,225.11627483367923L1222.9933333333333,202.4041872024536L1223.5916666666667,219.6580867767334L1224.19,208.35354137420657L1225.3866666666668,180.4864625930786L1225.985,184.91210746765137L1227.78,226.96056175231934L1228.3783333333333,212.03632164001465L1229.575,172.102520942688L1230.7716666666665,165.62402057647705L1231.3700000000001,165.9651975631714L1231.9683333333332,189.62163734436038L1236.1566666666668,180.16845989227295L1236.7549999999999,235.68246173858643L1237.3533333333335,184.0565900802612L1237.9516666666666,184.7788553237915L1241.5416666666667,202.095196723938L1242.14,242.98493671417236L1242.7383333333332,218.62876224517822L1243.3366666666666,210.3967409133911L1243.935,223.40781497955322L1245.1316666666667,211.73119354248044L1246.9266666666665,167.9575424194336L1248.7216666666668,210.7269744873047L1251.115,228.60142993927002L1251.7133333333334,197.88713264465332L1252.3116666666667,185.56999969482422L1252.91,207.67440605163574L1253.5083333333334,226.24087142944333L1254.705,205.0801734924316L1255.3033333333333,180.02104568481445L1257.6966666666667,207.8005771636963L1259.4916666666666,248.15087127685547L1260.09,178.8192014694214L1261.885,200.67126560211182L1262.4833333333333,225.16777324676514L1263.0816666666667,212.6845579147339L1263.68,204.20405673980713L1264.2783333333332,212.60988521575925L1265.475,191.82383823394775L1266.0733333333335,192.11416053771973L1266.6716666666666,252.05123233795166L1267.27,184.16666793823242L1267.8683333333333,219.08001708984375L1270.2616666666668,187.79151248931885L1270.86,220.87087440490723L1271.4583333333333,199.1501312255859L1273.2533333333333,207.2205762863159L1274.45,219.9754457473755L1275.0483333333334,248.86669921875L1275.6466666666665,223.06985664367676L1276.8433333333332,230.19144344329834L1277.4416666666666,165.14379787445068L1278.04,191.42730045318604L1279.2366666666667,211.2136344909668L1279.835,170.27625846862793L1281.6299999999999,202.169225692749L1282.8266666666666,205.1735143661499L1284.0233333333333,204.85551166534424L1284.6216666666667,189.51220321655273L1285.8183333333334,184.98935508728025L1287.6133333333332,191.33267211914062L1288.81,250.8815746307373L1289.4083333333333,195.3907470703125L1290.0066666666667,204.66625499725342L1291.2033333333334,185.0363473892212L1292.4,193.7582473754883L1292.9983333333332,227.44271564483643L1293.5966666666668,174.6040563583374L1295.99,209.82703971862796L1296.5883333333334,193.20914554595947L1297.785,198.87976455688474L1298.9816666666666,159.56909465789795L1301.9733333333334,206.72361660003662L1304.3666666666666,165.07298755645752L1304.965,200.91008949279785L1305.5633333333333,201.2512664794922L1306.1616666666666,231.6572170257568L1313.3416666666667,200.29082107543945L1314.5383333333334,227.64420318603518L1315.735,206.13395977020264" style="fill: none;" fill="none"></path></g></g></g></g></g></g><g transform="translate(60, 378)" clip-path="url(#clip_1)"><clipPath id="clip_1"><rect width="1436" height="22"></rect></clipPath><g><g><line x1="0" y1="0" x2="0" y2="5" style="visibility: inherit;" fill="rgb(0, 0, 0)" stroke="rgb(204, 204, 204)" stroke-width="1px"></line><line x1="119.66666666666666" y1="0" x2="119.66666666666666" y2="5" style="visibility: inherit;" fill="rgb(0, 0, 0)" stroke="rgb(204, 204, 204)" stroke-width="1px"></line><line x1="239.33333333333331" y1="0" x2="239.33333333333331" y2="5" style="visibility: inherit;" fill="rgb(0, 0, 0)" stroke="rgb(204, 204, 204)" stroke-width="1px"></line><line x1="359" y1="0" x2="359" y2="5" style="visibility: inherit;" fill="rgb(0, 0, 0)" stroke="rgb(204, 204, 204)" stroke-width="1px"></line><line x1="478.66666666666663" y1="0" x2="478.66666666666663" y2="5" style="visibility: inherit;" fill="rgb(0, 0, 0)" stroke="rgb(204, 204, 204)" stroke-width="1px"></line><line x1="598.3333333333334" y1="0" x2="598.3333333333334" y2="5" style="visibility: inherit;" fill="rgb(0, 0, 0)" stroke="rgb(204, 204, 204)" stroke-width="1px"></line><line x1="718" y1="0" x2="718" y2="5" style="visibility: inherit;" fill="rgb(0, 0, 0)" stroke="rgb(204, 204, 204)" stroke-width="1px"></line><line x1="837.6666666666667" y1="0" x2="837.6666666666667" y2="5" style="visibility: inherit;" fill="rgb(0, 0, 0)" stroke="rgb(204, 204, 204)" stroke-width="1px"></line><line x1="957.3333333333333" y1="0" x2="957.3333333333333" y2="5" style="visibility: inherit;" fill="rgb(0, 0, 0)" stroke="rgb(204, 204, 204)" stroke-width="1px"></line><line x1="1077" y1="0" x2="1077" y2="5" style="visibility: inherit;" fill="rgb(0, 0, 0)" stroke="rgb(204, 204, 204)" stroke-width="1px"></line><line x1="1196.6666666666667" y1="0" x2="1196.6666666666667" y2="5" style="visibility: inherit;" fill="rgb(0, 0, 0)" stroke="rgb(204, 204, 204)" stroke-width="1px"></line><line x1="1316.3333333333333" y1="0" x2="1316.3333333333333" y2="5" style="visibility: inherit;" fill="rgb(0, 0, 0)" stroke="rgb(204, 204, 204)" stroke-width="1px"></line><line x1="1436" y1="0" x2="1436" y2="5" style="visibility: inherit;" fill="rgb(0, 0, 0)" stroke="rgb(204, 204, 204)" stroke-width="1px"></line></g><g transform="translate(0, 8)"><text x="0" y="0" dx="0em" dy="0.95em" style="text-anchor: middle; visibility: hidden; font-family: Roboto, sans-serif; font-size: 12px; font-weight: 200;" fill="rgb(50, 49, 63)" stroke="none" stroke-width="1px">-200</text><text x="119.66666666666666" y="0" dx="0em" dy="0.95em" style="text-anchor: middle; visibility: inherit; font-family: Roboto, sans-serif; font-size: 12px; font-weight: 200;" fill="rgb(50, 49, 63)" stroke="none" stroke-width="1px">0</text><text x="239.33333333333331" y="0" dx="0em" dy="0.95em" style="text-anchor: middle; visibility: inherit; font-family: Roboto, sans-serif; font-size: 12px; font-weight: 200;" fill="rgb(50, 49, 63)" stroke="none" stroke-width="1px">200</text><text x="359" y="0" dx="0em" dy="0.95em" style="text-anchor: middle; visibility: inherit; font-family: Roboto, sans-serif; font-size: 12px; font-weight: 200;" fill="rgb(50, 49, 63)" stroke="none" stroke-width="1px">400</text><text x="478.66666666666663" y="0" dx="0em" dy="0.95em" style="text-anchor: middle; visibility: inherit; font-family: Roboto, sans-serif; font-size: 12px; font-weight: 200;" fill="rgb(50, 49, 63)" stroke="none" stroke-width="1px">600</text><text x="598.3333333333334" y="0" dx="0em" dy="0.95em" style="text-anchor: middle; visibility: inherit; font-family: Roboto, sans-serif; font-size: 12px; font-weight: 200;" fill="rgb(50, 49, 63)" stroke="none" stroke-width="1px">800</text><text x="718" y="0" dx="0em" dy="0.95em" style="text-anchor: middle; visibility: inherit; font-family: Roboto, sans-serif; font-size: 12px; font-weight: 200;" fill="rgb(50, 49, 63)" stroke="none" stroke-width="1px">1k</text><text x="837.6666666666667" y="0" dx="0em" dy="0.95em" style="text-anchor: middle; visibility: inherit; font-family: Roboto, sans-serif; font-size: 12px; font-weight: 200;" fill="rgb(50, 49, 63)" stroke="none" stroke-width="1px">1.2k</text><text x="957.3333333333333" y="0" dx="0em" dy="0.95em" style="text-anchor: middle; visibility: inherit; font-family: Roboto, sans-serif; font-size: 12px; font-weight: 200;" fill="rgb(50, 49, 63)" stroke="none" stroke-width="1px">1.4k</text><text x="1077" y="0" dx="0em" dy="0.95em" style="text-anchor: middle; visibility: inherit; font-family: Roboto, sans-serif; font-size: 12px; font-weight: 200;" fill="rgb(50, 49, 63)" stroke="none" stroke-width="1px">1.6k</text><text x="1196.6666666666667" y="0" dx="0em" dy="0.95em" style="text-anchor: middle; visibility: inherit; font-family: Roboto, sans-serif; font-size: 12px; font-weight: 200;" fill="rgb(50, 49, 63)" stroke="none" stroke-width="1px">1.8k</text><text x="1316.3333333333333" y="0" dx="0em" dy="0.95em" style="text-anchor: middle; visibility: inherit; font-family: Roboto, sans-serif; font-size: 12px; font-weight: 200;" fill="rgb(50, 49, 63)" stroke="none" stroke-width="1px">2k</text><text x="1436" y="0" dx="0em" dy="0.95em" style="text-anchor: middle; visibility: hidden; font-family: Roboto, sans-serif; font-size: 12px; font-weight: 200;" fill="rgb(50, 49, 63)" stroke="none" stroke-width="1px">2.2k</text></g><line x1="0" y1="0" x2="1436" y2="0" fill="rgb(0, 0, 0)" stroke="rgb(204, 204, 204)" stroke-width="1px"></line></g></g></g></g></svg>