<?xml version="1.0" encoding="utf-8" standalone="no"?>
<!DOCTYPE svg PUBLIC "-//W3C//DTD SVG 1.1//EN"
  "http://www.w3.org/Graphics/SVG/1.1/DTD/svg11.dtd">
<!-- Created with matplotlib (https://matplotlib.org/) -->
<svg height="288pt" version="1.1" viewBox="0 0 720 288" width="720pt" xmlns="http://www.w3.org/2000/svg" xmlns:xlink="http://www.w3.org/1999/xlink">
 <metadata>
  <rdf:RDF xmlns:cc="http://creativecommons.org/ns#" xmlns:dc="http://purl.org/dc/elements/1.1/" xmlns:rdf="http://www.w3.org/1999/02/22-rdf-syntax-ns#">
   <cc:Work>
    <dc:type rdf:resource="http://purl.org/dc/dcmitype/StillImage"/>
    <dc:date>2021-05-07T22:44:48.183412</dc:date>
    <dc:format>image/svg+xml</dc:format>
    <dc:creator>
     <cc:Agent>
      <dc:title>Matplotlib v3.3.4, https://matplotlib.org/</dc:title>
     </cc:Agent>
    </dc:creator>
   </cc:Work>
  </rdf:RDF>
 </metadata>
 <defs>
  <style type="text/css">*{stroke-linecap:butt;stroke-linejoin:round;}</style>
 </defs>
 <g id="figure_1">
  <g id="patch_1">
   <path d="M 0 288 
L 720 288 
L 720 0 
L 0 0 
z
" style="fill:#ffffff;"/>
  </g>
  <g id="axes_1">
   <g id="line2d_1">
    <path clip-path="url(#pe2e7bb5a0f)" d="M 101.451679 234.206707 
L 86.968928 232.766211 
L 75.624749 231.856282 
L 67.686622 231.427116 
L 61.833734 231.32884 
L 57.29545 231.488824 
L 53.50141 231.851666 
L 50.149662 232.389956 
L 47.252521 233.075427 
L 45.202592 233.792201 
L 44.766408 234.128881 
L 44.942295 234.191256 
L 45.632037 234.170943 
L 48.841879 233.755312 
L 54.844358 233.005679 
L 59.137785 232.674496 
L 62.868949 232.593075 
L 67.417224 232.733077 
L 88.467004 233.705406 
L 101.460852 234.179475 
L 101.460852 234.179475 
" style="fill:none;stroke:#000000;stroke-linecap:square;stroke-opacity:0.7;stroke-width:1.2;"/>
   </g>
   <g id="line2d_2">
    <path clip-path="url(#pe2e7bb5a0f)" d="M 101.76429 215.485458 
L 76.804612 212.733071 
L 70.673704 212.354431 
L 65.405825 212.230991 
L 60.336883 212.338831 
L 56.332555 212.633547 
L 52.590379 213.108886 
L 48.906936 213.801017 
L 46.125447 214.54772 
L 45.028169 215.031821 
L 45.017924 215.164784 
L 45.41571 215.234397 
L 46.854358 215.189218 
L 60.459719 214.321608 
L 66.194413 214.314321 
L 94.571632 214.959543 
L 101.76866 215.43618 
L 101.76866 215.43618 
" style="fill:none;stroke:#000000;stroke-linecap:square;stroke-opacity:0.7;stroke-width:1.2;"/>
   </g>
   <g id="line2d_3">
    <path clip-path="url(#pe2e7bb5a0f)" d="M 101.619122 196.151282 
L 90.857966 195.196832 
L 74.5513 193.732855 
L 66.608115 193.285956 
L 61.305588 193.172034 
L 57.044614 193.295158 
L 53.180764 193.644505 
L 50.18595 194.109814 
L 47.311027 194.781634 
L 45.615126 195.378621 
L 44.827169 195.888405 
L 44.81738 196.112583 
L 45.112322 196.272076 
L 45.76233 196.385988 
L 48.025373 196.455281 
L 55.191893 196.264736 
L 62.840508 196.154357 
L 85.145283 196.149906 
L 97.490125 196.044191 
L 101.615149 196.100088 
L 101.615149 196.100088 
" style="fill:none;stroke:#000000;stroke-linecap:square;stroke-opacity:0.7;stroke-width:1.2;"/>
   </g>
   <g id="line2d_4">
    <path clip-path="url(#pe2e7bb5a0f)" d="M 101.613945 176.816985 
L 91.904117 176.315158 
L 79.558705 175.437841 
L 68.413132 174.695974 
L 61.542288 174.473103 
L 56.564376 174.534155 
L 52.57922 174.78949 
L 49.212246 175.210326 
L 46.931658 175.672933 
L 45.245835 176.231902 
L 44.574888 176.689525 
L 44.527662 176.957873 
L 44.745533 177.162196 
L 45.240844 177.3433 
L 46.486372 177.546124 
L 49.027846 177.70639 
L 54.942985 177.801941 
L 72.998504 177.803824 
L 82.665278 177.523567 
L 101.609087 176.806451 
L 101.609087 176.806451 
" style="fill:none;stroke:#000000;stroke-linecap:square;stroke-opacity:0.7;stroke-width:1.2;"/>
   </g>
   <g id="line2d_5">
    <path clip-path="url(#pe2e7bb5a0f)" d="M 101.668129 158.076631 
L 92.543376 157.347589 
L 73.64402 155.693842 
L 67.458097 155.486551 
L 61.983538 155.509489 
L 56.920701 155.72569 
L 51.739368 156.182554 
L 48.196146 156.685458 
L 45.700241 157.244087 
L 44.801857 157.638486 
L 44.685743 157.840506 
L 44.865806 158.038057 
L 45.399493 158.231558 
L 46.715782 158.473599 
L 49.966935 158.79393 
L 55.816079 159.116426 
L 64.241721 159.346873 
L 70.619667 159.330503 
L 78.053446 159.085537 
L 101.673298 158.039531 
L 101.673298 158.039531 
" style="fill:none;stroke:#000000;stroke-linecap:square;stroke-opacity:0.7;stroke-width:1.2;"/>
   </g>
   <g id="line2d_6">
    <path clip-path="url(#pe2e7bb5a0f)" d="M 101.653359 138.813244 
L 92.999133 138.392032 
L 71.634472 137.165667 
L 64.315453 137.096261 
L 55.976497 137.237427 
L 51.186612 137.504502 
L 47.737628 137.894817 
L 45.714378 138.353294 
L 45.074432 138.687302 
L 44.974967 138.945233 
L 45.191328 139.189025 
L 45.697773 139.420994 
L 47.080137 139.763803 
L 50.092886 140.173714 
L 54.755017 140.532551 
L 61.501142 140.812021 
L 68.310834 140.879182 
L 74.793058 140.724303 
L 81.96242 140.339549 
L 92.493476 139.518961 
L 101.657065 138.766179 
L 101.657065 138.766179 
" style="fill:none;stroke:#000000;stroke-linecap:square;stroke-opacity:0.7;stroke-width:1.2;"/>
   </g>
   <g id="line2d_7">
    <path clip-path="url(#pe2e7bb5a0f)" d="M 101.770619 120.175818 
L 95.160649 119.535404 
L 77.747238 117.727639 
L 71.302557 117.335986 
L 63.981619 117.09888 
L 58.173607 117.10666 
L 54.405839 117.309085 
L 50.983872 117.703226 
L 48.220452 118.236732 
L 46.185528 118.873544 
L 45.482308 119.246732 
L 45.159597 119.665028 
L 45.252959 119.908321 
L 45.566765 120.127284 
L 46.458658 120.42533 
L 48.615047 120.788001 
L 52.331287 121.115555 
L 58.145509 121.380431 
L 65.840687 121.515043 
L 73.134206 121.423356 
L 80.973426 121.076503 
L 99.683899 120.119643 
L 101.77853 120.06633 
L 101.77853 120.06633 
" style="fill:none;stroke:#000000;stroke-linecap:square;stroke-opacity:0.7;stroke-width:1.2;"/>
   </g>
   <g id="line2d_8">
    <path clip-path="url(#pe2e7bb5a0f)" d="M 101.628418 100.782725 
L 93.905059 100.220098 
L 76.342383 98.835007 
L 69.451538 98.596582 
L 57.453493 98.476851 
L 52.538444 98.613686 
L 49.276793 98.895928 
L 47.030991 99.281302 
L 45.619123 99.732462 
L 44.97616 100.169492 
L 44.868481 100.499445 
L 45.003561 100.750717 
L 45.425506 101.043208 
L 46.642793 101.460482 
L 48.544495 101.829513 
L 52.252589 102.265002 
L 57.978756 102.675409 
L 65.076797 102.955697 
L 70.902264 102.974572 
L 76.704789 102.778513 
L 83.886722 102.309439 
L 95.537667 101.278452 
L 101.636473 100.727796 
L 101.636473 100.727796 
" style="fill:none;stroke:#000000;stroke-linecap:square;stroke-opacity:0.7;stroke-width:1.2;"/>
   </g>
   <g id="line2d_9">
    <path clip-path="url(#pe2e7bb5a0f)" d="M 101.387686 81.842825 
L 94.929005 81.389765 
L 74.839063 79.80321 
L 68.95173 79.666793 
L 62.496008 79.769222 
L 53.859903 80.170109 
L 48.415337 80.581921 
L 46.080215 80.95827 
L 45.513492 81.154486 
L 45.109454 81.547922 
L 45.231494 81.863455 
L 45.690957 82.211723 
L 46.632819 82.627641 
L 48.324081 83.113285 
L 50.539631 83.538803 
L 53.924946 83.95381 
L 58.070072 84.249299 
L 64.078195 84.439739 
L 69.578284 84.387074 
L 74.927416 84.110287 
L 81.955554 83.504942 
L 101.393211 81.722094 
L 101.393211 81.722094 
" style="fill:none;stroke:#000000;stroke-linecap:square;stroke-opacity:0.7;stroke-width:1.2;"/>
   </g>
   <g id="line2d_10">
    <path clip-path="url(#pe2e7bb5a0f)" d="M 101.635228 62.621494 
L 94.571218 62.242464 
L 84.084105 61.429284 
L 74.963202 60.776062 
L 67.60163 60.485641 
L 57.913735 60.347613 
L 52.406913 60.476621 
L 48.984604 60.750171 
L 46.514174 61.16122 
L 45.221521 61.599448 
L 44.737095 62.002672 
L 44.724115 62.347485 
L 45.028586 62.689739 
L 45.464113 62.952135 
L 46.969478 63.510786 
L 49.484471 64.106816 
L 53.30579 64.732219 
L 58.661595 65.323009 
L 63.569166 65.634871 
L 68.602583 65.71983 
L 73.832595 65.579755 
L 79.785764 65.202314 
L 86.263294 64.576655 
L 94.808702 63.501966 
L 101.650186 62.556237 
L 101.650186 62.556237 
" style="fill:none;stroke:#000000;stroke-linecap:square;stroke-opacity:0.7;stroke-width:1.2;"/>
   </g>
   <g id="line2d_11">
    <path clip-path="url(#pe2e7bb5a0f)" d="M 165.291297 234.470659 
L 149.994589 232.394134 
L 142.571736 231.621326 
L 135.41809 231.102016 
L 128.7346 230.861256 
L 123.581704 230.906688 
L 119.467378 231.18332 
L 116.447048 231.57947 
L 113.62826 232.140881 
L 111.022117 232.885612 
L 109.201587 233.640554 
L 108.641207 234.064123 
L 108.699315 234.18226 
L 109.019074 234.2304 
L 110.12186 234.147359 
L 122.914612 232.612171 
L 127.423516 232.448461 
L 132.066062 232.529927 
L 148.258076 233.268384 
L 158.555967 233.860039 
L 165.286305 234.420026 
L 165.286305 234.420026 
" style="fill:none;stroke:#000000;stroke-linecap:square;stroke-opacity:0.7;stroke-width:1.2;"/>
   </g>
   <g id="line2d_12">
    <path clip-path="url(#pe2e7bb5a0f)" d="M 165.102314 215.442348 
L 150.109801 213.265867 
L 142.726755 212.461339 
L 136.010591 211.95624 
L 130.117252 211.718074 
L 124.969457 211.72547 
L 121.020744 211.93198 
L 117.332388 212.336465 
L 114.041348 212.919127 
L 111.366007 213.612477 
L 109.635807 214.259903 
L 108.882585 214.748281 
L 108.879405 214.940141 
L 109.148469 215.04652 
L 110.188195 215.096565 
L 113.628395 214.882738 
L 121.405483 214.38325 
L 126.620342 214.276791 
L 133.419109 214.392251 
L 163.822098 215.328798 
L 165.107719 215.40589 
L 165.107719 215.40589 
" style="fill:none;stroke:#000000;stroke-linecap:square;stroke-opacity:0.7;stroke-width:1.2;"/>
   </g>
   <g id="line2d_13">
    <path clip-path="url(#pe2e7bb5a0f)" d="M 165.456261 195.672544 
L 136.773586 193.490646 
L 130.812169 193.345193 
L 125.351615 193.44182 
L 118.77226 193.809953 
L 113.938531 194.281932 
L 110.769805 194.799227 
L 108.917965 195.316282 
L 108.253294 195.70917 
L 108.32091 195.881225 
L 108.640618 195.971627 
L 109.736491 196.034659 
L 113.762963 195.938322 
L 120.884675 195.819935 
L 126.313452 195.94338 
L 142.273443 196.501492 
L 149.407111 196.411448 
L 157.264595 196.08911 
L 165.460364 195.644801 
L 165.460364 195.644801 
" style="fill:none;stroke:#000000;stroke-linecap:square;stroke-opacity:0.7;stroke-width:1.2;"/>
   </g>
   <g id="line2d_14">
    <path clip-path="url(#pe2e7bb5a0f)" d="M 165.557855 177.09733 
L 155.362088 175.934756 
L 139.575438 174.109822 
L 132.84494 173.581015 
L 127.88609 173.388355 
L 123.76328 173.429172 
L 120.001401 173.681344 
L 116.38937 174.151309 
L 113.209951 174.787959 
L 110.804938 175.471656 
L 109.142916 176.169498 
L 108.551228 176.627148 
L 108.484671 176.875701 
L 108.651636 177.077704 
L 109.247135 177.298841 
L 110.631796 177.497504 
L 114.001033 177.655909 
L 122.564203 177.726904 
L 136.11412 177.667828 
L 146.540566 177.308631 
L 156.983119 177.001059 
L 163.85508 177.007003 
L 165.563561 177.043635 
L 165.563561 177.043635 
" style="fill:none;stroke:#000000;stroke-linecap:square;stroke-opacity:0.7;stroke-width:1.2;"/>
   </g>
   <g id="line2d_15">
    <path clip-path="url(#pe2e7bb5a0f)" d="M 165.132035 158.113525 
L 153.570889 156.489096 
L 146.450562 155.705422 
L 139.948713 155.202513 
L 133.720619 154.924463 
L 126.81737 154.855516 
L 121.153334 155.035084 
L 116.691349 155.404802 
L 113.265102 155.892314 
L 110.536955 156.519884 
L 109.088317 157.123861 
L 108.730842 157.468593 
L 108.743957 157.799136 
L 109.040387 158.051329 
L 109.835466 158.351477 
L 111.517157 158.668769 
L 114.467817 158.946642 
L 120.190079 159.187076 
L 129.349783 159.317072 
L 136.45107 159.214117 
L 145.553042 158.824789 
L 160.342432 158.182374 
L 165.138206 158.064154 
L 165.138206 158.064154 
" style="fill:none;stroke:#000000;stroke-linecap:square;stroke-opacity:0.7;stroke-width:1.2;"/>
   </g>
   <g id="line2d_16">
    <path clip-path="url(#pe2e7bb5a0f)" d="M 165.395284 138.990643 
L 155.032016 138.020536 
L 140.890962 136.709815 
L 134.372448 136.342894 
L 127.80942 136.190612 
L 122.118494 136.256181 
L 117.606118 136.513033 
L 113.927685 136.921453 
L 110.873589 137.493556 
L 109.530325 137.896541 
L 108.619552 138.382117 
L 108.461885 138.678439 
L 108.614032 138.928867 
L 109.142278 139.194597 
L 110.329975 139.489933 
L 112.954962 139.844936 
L 117.525845 140.20327 
L 124.688388 140.524376 
L 131.393593 140.602241 
L 137.882335 140.444978 
L 147.907962 139.934012 
L 165.389595 138.95281 
L 165.389595 138.95281 
" style="fill:none;stroke:#000000;stroke-linecap:square;stroke-opacity:0.7;stroke-width:1.2;"/>
   </g>
   <g id="line2d_17">
    <path clip-path="url(#pe2e7bb5a0f)" d="M 165.426496 119.763263 
L 157.499634 119.134825 
L 136.6668 117.327491 
L 130.216588 117.097557 
L 123.451128 117.07022 
L 119.034842 117.243148 
L 114.894106 117.624243 
L 112.07703 118.077798 
L 110.055763 118.614199 
L 109.158212 119.039286 
L 108.843064 119.389282 
L 108.877937 119.665952 
L 109.208349 119.951586 
L 110.029445 120.282642 
L 112.15093 120.742372 
L 115.809496 121.201095 
L 121.508457 121.633212 
L 127.918404 121.89013 
L 133.645802 121.916992 
L 140.110009 121.713511 
L 147.578392 121.244469 
L 160.718267 120.137187 
L 165.41788 119.743307 
L 165.41788 119.743307 
" style="fill:none;stroke:#000000;stroke-linecap:square;stroke-opacity:0.7;stroke-width:1.2;"/>
   </g>
   <g id="line2d_18">
    <path clip-path="url(#pe2e7bb5a0f)" d="M 165.461307 100.880313 
L 158.541533 100.225406 
L 140.43604 98.379081 
L 134.246514 98.051584 
L 125.878996 97.859305 
L 120.361286 97.92965 
L 116.410023 98.182964 
L 113.31855 98.57282 
L 111.051289 99.046631 
L 109.645468 99.520786 
L 108.793963 100.068576 
L 108.644754 100.425244 
L 108.767689 100.711762 
L 109.18359 101.027261 
L 110.372121 101.472982 
L 112.297651 101.889904 
L 115.61755 102.344278 
L 120.987472 102.80619 
L 126.722056 103.09441 
L 132.390119 103.180749 
L 138.428862 103.039818 
L 145.66955 102.624254 
L 154.646464 101.865244 
L 165.46819 100.808667 
L 165.46819 100.808667 
" style="fill:none;stroke:#000000;stroke-linecap:square;stroke-opacity:0.7;stroke-width:1.2;"/>
   </g>
   <g id="line2d_19">
    <path clip-path="url(#pe2e7bb5a0f)" d="M 165.540832 81.615728 
L 157.35983 80.908992 
L 134.860729 78.78401 
L 127.358188 78.4536 
L 122.449743 78.423149 
L 118.713005 78.58012 
L 115.311151 78.916181 
L 112.400634 79.415482 
L 110.206657 80.031767 
L 109.056542 80.596407 
L 108.70122 80.954389 
L 108.643489 81.308559 
L 108.853768 81.620643 
L 109.47477 82.002107 
L 110.769558 82.452809 
L 113.420123 83.03928 
L 117.411447 83.650296 
L 122.893606 84.241886 
L 127.801539 84.564934 
L 132.775592 84.663644 
L 138.001428 84.537872 
L 143.948422 84.179184 
L 150.598646 83.560287 
L 158.288875 82.610331 
L 165.551359 81.574958 
L 165.551359 81.574958 
" style="fill:none;stroke:#000000;stroke-linecap:square;stroke-opacity:0.7;stroke-width:1.2;"/>
   </g>
   <g id="line2d_20">
    <path clip-path="url(#pe2e7bb5a0f)" d="M 165.387838 62.624604 
L 154.975572 61.592828 
L 143.36868 60.494373 
L 136.316378 60.073978 
L 129.865812 59.924154 
L 121.023702 59.959049 
L 115.877292 60.181814 
L 113.42733 60.419204 
L 111.000654 60.840814 
L 109.515045 61.333117 
L 108.902832 61.728553 
L 108.655074 62.128535 
L 108.735727 62.553443 
L 109.173089 62.996039 
L 110.044253 63.468174 
L 111.645518 64.024579 
L 114.074077 64.609399 
L 117.979851 65.272241 
L 122.386279 65.775424 
L 126.454619 66.042007 
L 130.879053 66.113065 
L 135.881457 65.95177 
L 142.067858 65.522017 
L 149.699206 64.766302 
L 157.784033 63.723261 
L 165.396016 62.567376 
L 165.396016 62.567376 
" style="fill:none;stroke:#000000;stroke-linecap:square;stroke-opacity:0.7;stroke-width:1.2;"/>
   </g>
   <g id="line2d_21">
    <path clip-path="url(#pe2e7bb5a0f)" d="M 229.270781 233.96339 
L 205.083495 231.255311 
L 198.823178 230.778216 
L 192.728105 230.546056 
L 187.61184 230.557408 
L 183.368142 230.778004 
L 179.886522 231.196178 
L 177.435568 231.681186 
L 175.301149 232.285903 
L 173.351186 233.071282 
L 172.323785 233.726482 
L 172.266972 233.974416 
L 172.541938 234.046354 
L 173.437016 234.002199 
L 183.954688 232.876493 
L 187.999441 232.748498 
L 192.704496 232.833504 
L 217.780243 233.745606 
L 229.279895 233.916273 
L 229.279895 233.916273 
" style="fill:none;stroke:#000000;stroke-linecap:square;stroke-opacity:0.7;stroke-width:1.2;"/>
   </g>
   <g id="line2d_22">
    <path clip-path="url(#pe2e7bb5a0f)" d="M 228.663858 215.108937 
L 215.974646 213.202675 
L 208.478111 212.299036 
L 202.256397 211.786155 
L 196.689854 211.537185 
L 191.026672 211.508038 
L 186.454319 211.696182 
L 182.080286 212.112373 
L 178.536259 212.67005 
L 175.66391 213.330647 
L 173.558626 214.024295 
L 172.334372 214.669862 
L 172.141635 214.993405 
L 172.253252 215.121668 
L 172.817535 215.268563 
L 174.364502 215.320108 
L 178.79247 215.133976 
L 186.819123 214.833313 
L 193.150139 214.843631 
L 211.815955 215.040894 
L 228.67018 215.107963 
L 228.67018 215.107963 
" style="fill:none;stroke:#000000;stroke-linecap:square;stroke-opacity:0.7;stroke-width:1.2;"/>
   </g>
   <g id="line2d_23">
    <path clip-path="url(#pe2e7bb5a0f)" d="M 229.293229 196.048419 
L 203.077585 192.694777 
L 196.862503 192.191505 
L 191.757853 191.980577 
L 187.363253 192.031229 
L 184.181092 192.260453 
L 181.008804 192.685806 
L 178.147492 193.266649 
L 175.916531 193.883088 
L 173.660334 194.738571 
L 172.507583 195.407933 
L 172.162821 195.833801 
L 172.206477 196.069315 
L 172.591913 196.300995 
L 173.650222 196.494467 
L 175.803689 196.58855 
L 181.752121 196.508024 
L 191.46508 196.405772 
L 203.817081 196.357324 
L 225.755339 195.914661 
L 229.298611 195.998349 
L 229.298611 195.998349 
" style="fill:none;stroke:#000000;stroke-linecap:square;stroke-opacity:0.7;stroke-width:1.2;"/>
   </g>
   <g id="line2d_24">
    <path clip-path="url(#pe2e7bb5a0f)" d="M 228.90698 176.793736 
L 212.988348 174.627821 
L 205.940021 173.870478 
L 199.836909 173.433423 
L 193.475071 173.220287 
L 187.960472 173.239776 
L 183.431299 173.471237 
L 179.684795 173.894841 
L 176.610865 174.482053 
L 174.429749 175.122579 
L 172.905176 175.815746 
L 172.191822 176.404799 
L 172.071921 176.796243 
L 172.211485 177.040743 
L 172.524568 177.241452 
L 173.432529 177.50175 
L 175.282498 177.71717 
L 179.062492 177.867244 
L 189.833952 177.976355 
L 199.111389 177.907106 
L 207.822817 177.593304 
L 227.208957 176.81893 
L 228.906648 176.78703 
L 228.906648 176.78703 
" style="fill:none;stroke:#000000;stroke-linecap:square;stroke-opacity:0.7;stroke-width:1.2;"/>
   </g>
   <g id="line2d_25">
    <path clip-path="url(#pe2e7bb5a0f)" d="M 229.181573 158.133854 
L 217.71132 156.340315 
L 209.198077 155.227242 
L 201.510932 154.433493 
L 195.586746 154.014346 
L 190.630855 153.880129 
L 186.394861 154.013797 
L 182.517951 154.400101 
L 179.555595 154.897487 
L 176.45362 155.660235 
L 174.441833 156.366698 
L 173.251666 156.970461 
L 172.649284 157.514473 
L 172.577489 157.827804 
L 172.752287 158.096617 
L 173.307868 158.383346 
L 174.670124 158.692308 
L 176.904576 158.92993 
L 180.893638 159.118271 
L 188.860587 159.232734 
L 197.156939 159.15312 
L 204.464873 158.864452 
L 221.081699 158.112983 
L 228.315631 158.06848 
L 229.181173 158.08071 
L 229.181173 158.08071 
" style="fill:none;stroke:#000000;stroke-linecap:square;stroke-opacity:0.7;stroke-width:1.2;"/>
   </g>
   <g id="line2d_26">
    <path clip-path="url(#pe2e7bb5a0f)" d="M 228.917699 138.839649 
L 213.328192 136.62067 
L 206.212481 135.831856 
L 200.325224 135.417624 
L 194.596797 135.264605 
L 188.832708 135.356115 
L 183.953081 135.637832 
L 179.719872 136.093192 
L 176.75692 136.601669 
L 174.579319 137.169252 
L 173.252185 137.71409 
L 172.635892 138.163857 
L 172.467959 138.500474 
L 172.541641 138.766844 
L 172.886378 139.061339 
L 173.833398 139.426782 
L 175.583309 139.783 
L 178.580719 140.130473 
L 183.53235 140.452443 
L 190.10714 140.639183 
L 196.869889 140.589166 
L 204.112468 140.304267 
L 216.087475 139.569369 
L 228.917945 138.829559 
L 228.917945 138.829559 
" style="fill:none;stroke:#000000;stroke-linecap:square;stroke-opacity:0.7;stroke-width:1.2;"/>
   </g>
   <g id="line2d_27">
    <path clip-path="url(#pe2e7bb5a0f)" d="M 229.219954 119.874774 
L 205.883824 116.736711 
L 199.281842 116.14565 
L 193.463149 115.862503 
L 189.007937 115.840589 
L 184.541797 116.054827 
L 180.890015 116.453271 
L 177.585374 117.038271 
L 175.104992 117.692221 
L 173.639489 118.253036 
L 172.811614 118.732266 
L 172.421915 119.162584 
L 172.387322 119.482373 
L 172.608078 119.789352 
L 173.261612 120.143191 
L 174.699887 120.541539 
L 176.953989 120.907762 
L 181.365081 121.344468 
L 187.464644 121.698882 
L 193.733428 121.835166 
L 199.4878 121.741242 
L 206.904972 121.392442 
L 218.411456 120.602919 
L 229.225667 119.824929 
L 229.225667 119.824929 
" style="fill:none;stroke:#000000;stroke-linecap:square;stroke-opacity:0.7;stroke-width:1.2;"/>
   </g>
   <g id="line2d_28">
    <path clip-path="url(#pe2e7bb5a0f)" d="M 229.034435 100.885398 
L 211.443119 98.514695 
L 204.250949 97.803426 
L 197.92252 97.396398 
L 191.928524 97.236767 
L 186.86117 97.3169 
L 182.693743 97.577985 
L 178.693313 98.048783 
L 175.953003 98.567352 
L 174.222874 99.062208 
L 172.9861 99.640045 
L 172.53339 100.052647 
L 172.408928 100.48309 
L 172.545024 100.807077 
L 173.069526 101.253545 
L 173.64993 101.547959 
L 175.452476 102.124829 
L 177.96749 102.614988 
L 181.702989 103.061598 
L 186.952757 103.404124 
L 192.773266 103.536125 
L 198.466613 103.429883 
L 204.586041 103.071906 
L 213.067176 102.321716 
L 229.043824 100.840311 
L 229.043824 100.840311 
" style="fill:none;stroke:#000000;stroke-linecap:square;stroke-opacity:0.7;stroke-width:1.2;"/>
   </g>
   <g id="line2d_29">
    <path clip-path="url(#pe2e7bb5a0f)" d="M 229.249528 81.396449 
L 221.152509 80.592214 
L 201.726665 78.533286 
L 196.203416 78.250312 
L 188.997646 78.118283 
L 183.755176 78.217667 
L 180.238362 78.48146 
L 177.591008 78.85737 
L 175.367616 79.362187 
L 173.780018 79.91491 
L 172.859207 80.406703 
L 172.30925 80.932557 
L 172.202603 81.35062 
L 172.3178 81.627498 
L 172.737899 81.987692 
L 173.234517 82.231839 
L 174.880674 82.717735 
L 177.577346 83.192709 
L 181.963368 83.696096 
L 187.782042 84.130584 
L 193.376795 84.340098 
L 198.612317 84.313735 
L 203.99635 84.058053 
L 210.595601 83.502471 
L 220.325153 82.419208 
L 229.256643 81.342754 
L 229.256643 81.342754 
" style="fill:none;stroke:#000000;stroke-linecap:square;stroke-opacity:0.7;stroke-width:1.2;"/>
   </g>
   <g id="line2d_30">
    <path clip-path="url(#pe2e7bb5a0f)" d="M 229.274688 62.478847 
L 221.420155 61.692104 
L 201.482528 59.532321 
L 195.024286 59.181492 
L 188.600575 59.059523 
L 184.076268 59.167974 
L 180.377402 59.451645 
L 177.227511 59.8975 
L 174.954444 60.409435 
L 173.414282 60.941925 
L 172.436733 61.515697 
L 172.115694 61.932861 
L 172.112418 62.347121 
L 172.425354 62.758608 
L 173.196802 63.236975 
L 174.918534 63.872766 
L 177.524524 64.523993 
L 181.184759 65.196572 
L 185.59765 65.796896 
L 190.192154 66.213803 
L 194.783462 66.39442 
L 199.19218 66.34107 
L 204.212988 66.052693 
L 209.602782 65.526319 
L 216.016624 64.67062 
L 224.515346 63.280093 
L 229.284952 62.425262 
L 229.284952 62.425262 
" style="fill:none;stroke:#000000;stroke-linecap:square;stroke-opacity:0.7;stroke-width:1.2;"/>
   </g>
   <g id="line2d_31">
    <path clip-path="url(#pe2e7bb5a0f)" d="M 293.077331 233.82879 
L 262.480343 230.1721 
L 256.582227 229.779236 
L 252.519797 229.714312 
L 248.70768 229.887559 
L 245.564879 230.250299 
L 242.437237 230.852603 
L 239.674457 231.641981 
L 237.974116 232.302327 
L 236.674246 232.969216 
L 235.79425 233.665764 
L 235.662409 234.026007 
L 235.835482 234.224229 
L 236.316766 234.357738 
L 237.606885 234.395871 
L 240.537854 234.190537 
L 251.303127 233.308178 
L 257.303749 233.096071 
L 266.536561 233.071194 
L 280.758206 233.236942 
L 289.652388 233.549945 
L 293.082322 233.753131 
L 293.082322 233.753131 
" style="fill:none;stroke:#000000;stroke-linecap:square;stroke-opacity:0.7;stroke-width:1.2;"/>
   </g>
   <g id="line2d_32">
    <path clip-path="url(#pe2e7bb5a0f)" d="M 293.023899 215.020333 
L 280.153506 213.114277 
L 269.037843 211.680017 
L 263.001761 211.071432 
L 257.759322 210.740542 
L 253.619016 210.695617 
L 250.003258 210.886054 
L 246.51992 211.325231 
L 243.430526 211.95907 
L 240.58789 212.785665 
L 238.425059 213.635653 
L 236.990947 214.430771 
L 236.589222 214.827193 
L 236.576634 215.042716 
L 236.804144 215.185138 
L 237.395401 215.270246 
L 239.071123 215.233822 
L 244.811018 214.752384 
L 251.91071 214.262315 
L 257.44894 214.121909 
L 266.81379 214.17526 
L 281.99399 214.42104 
L 290.13446 214.774971 
L 293.031373 214.957605 
L 293.031373 214.957605 
" style="fill:none;stroke:#000000;stroke-linecap:square;stroke-opacity:0.7;stroke-width:1.2;"/>
   </g>
   <g id="line2d_33">
    <path clip-path="url(#pe2e7bb5a0f)" d="M 292.770387 196.104909 
L 283.584038 194.438307 
L 275.127479 193.116124 
L 268.54379 192.313333 
L 263.176328 191.856813 
L 258.080331 191.620589 
L 253.66951 191.619958 
L 250.053751 191.817829 
L 246.795377 192.187894 
L 243.280247 192.830031 
L 240.400919 193.598858 
L 238.349756 194.356106 
L 236.882116 195.142856 
L 236.325626 195.725299 
L 236.339094 196.010081 
L 236.606096 196.224513 
L 237.432485 196.436666 
L 238.979782 196.548113 
L 242.073325 196.528668 
L 258.876103 196.163759 
L 272.877008 196.035489 
L 284.912575 195.965079 
L 292.7769 196.111527 
L 292.7769 196.111527 
" style="fill:none;stroke:#000000;stroke-linecap:square;stroke-opacity:0.7;stroke-width:1.2;"/>
   </g>
   <g id="line2d_34">
    <path clip-path="url(#pe2e7bb5a0f)" d="M 292.710685 176.998236 
L 283.677441 175.397284 
L 275.777777 174.197906 
L 269.109494 173.407855 
L 263.282495 172.928516 
L 257.639623 172.692584 
L 253.365695 172.720115 
L 249.339807 172.97142 
L 245.574785 173.44544 
L 242.109454 174.131229 
L 239.493529 174.875673 
L 237.758232 175.56774 
L 236.73457 176.176156 
L 236.311833 176.699928 
L 236.36461 177.015204 
L 236.645391 177.247621 
L 237.488855 177.532071 
L 238.923319 177.750448 
L 242.06226 177.947854 
L 248.787495 178.057046 
L 259.788195 178.004146 
L 268.71202 177.736647 
L 288.82626 177.037559 
L 292.709831 176.995485 
L 292.709831 176.995485 
" style="fill:none;stroke:#000000;stroke-linecap:square;stroke-opacity:0.7;stroke-width:1.2;"/>
   </g>
   <g id="line2d_35">
    <path clip-path="url(#pe2e7bb5a0f)" d="M 292.80602 157.730989 
L 280.269026 155.814616 
L 271.664241 154.713785 
L 265.449895 154.134385 
L 259.478358 153.812962 
L 254.580447 153.751087 
L 249.600855 153.917308 
L 245.85007 154.249567 
L 242.33112 154.795608 
L 239.614827 155.461808 
L 237.731959 156.159725 
L 236.594684 156.822126 
L 236.112764 157.387292 
L 236.121068 157.785158 
L 236.312914 158.012107 
L 236.78037 158.270008 
L 237.914685 158.578453 
L 240.410409 158.897326 
L 244.770388 159.162689 
L 252.36239 159.376596 
L 259.526468 159.365441 
L 266.768834 159.115341 
L 278.950551 158.406898 
L 290.913188 157.7886 
L 292.809056 157.721794 
L 292.809056 157.721794 
" style="fill:none;stroke:#000000;stroke-linecap:square;stroke-opacity:0.7;stroke-width:1.2;"/>
   </g>
   <g id="line2d_36">
    <path clip-path="url(#pe2e7bb5a0f)" d="M 292.910503 138.679332 
L 270.861266 135.447559 
L 264.668271 134.753838 
L 259.488856 134.379962 
L 254.831891 134.246694 
L 250.486071 134.341648 
L 247.222526 134.599363 
L 244.115297 135.038548 
L 241.483448 135.602994 
L 239.36199 136.239947 
L 237.854082 136.853235 
L 236.505663 137.657399 
L 236.067492 138.10096 
L 235.893795 138.550435 
L 236.013314 138.901501 
L 236.419023 139.225833 
L 236.996517 139.465388 
L 238.574087 139.815805 
L 241.432148 140.129921 
L 246.498436 140.407969 
L 254.318032 140.608782 
L 261.579104 140.578484 
L 268.19091 140.309649 
L 277.533078 139.655806 
L 290.746812 138.743264 
L 292.909614 138.64115 
L 292.909614 138.64115 
" style="fill:none;stroke:#000000;stroke-linecap:square;stroke-opacity:0.7;stroke-width:1.2;"/>
   </g>
   <g id="line2d_37">
    <path clip-path="url(#pe2e7bb5a0f)" d="M 293.034501 119.722836 
L 270.096169 116.411414 
L 264.143853 115.823585 
L 258.473856 115.484938 
L 253.216832 115.392243 
L 249.486748 115.513608 
L 245.637821 115.872295 
L 242.584604 116.376436 
L 239.708947 117.100348 
L 238.013758 117.712881 
L 236.710932 118.396082 
L 236.182451 118.843489 
L 235.948237 119.291078 
L 236.021207 119.641853 
L 236.347928 119.962818 
L 237.122486 120.32373 
L 238.854051 120.748866 
L 241.256064 121.093568 
L 245.709034 121.486206 
L 251.967867 121.819685 
L 258.79227 121.97784 
L 264.739642 121.889051 
L 271.127325 121.551345 
L 279.773743 120.826561 
L 293.036898 119.673332 
L 293.036898 119.673332 
" style="fill:none;stroke:#000000;stroke-linecap:square;stroke-opacity:0.7;stroke-width:1.2;"/>
   </g>
   <g id="line2d_38">
    <path clip-path="url(#pe2e7bb5a0f)" d="M 292.80497 100.64049 
L 280.648618 98.775843 
L 271.590761 97.584213 
L 264.887737 96.908297 
L 259.134639 96.537917 
L 253.927768 96.435161 
L 250.05579 96.556393 
L 246.252959 96.880642 
L 243.065283 97.343023 
L 239.988989 98.02488 
L 237.861183 98.754197 
L 236.788102 99.341755 
L 236.296836 99.816452 
L 236.143227 100.231288 
L 236.228508 100.58665 
L 236.548551 100.953779 
L 237.405164 101.44379 
L 238.486499 101.823205 
L 240.380807 102.267468 
L 243.430303 102.728844 
L 248.053566 103.152087 
L 253.255704 103.405969 
L 258.553933 103.468682 
L 264.443572 103.308221 
L 270.965974 102.890009 
L 279.345413 102.101878 
L 292.809483 100.633744 
L 292.809483 100.633744 
" style="fill:none;stroke:#000000;stroke-linecap:square;stroke-opacity:0.7;stroke-width:1.2;"/>
   </g>
   <g id="line2d_39">
    <path clip-path="url(#pe2e7bb5a0f)" d="M 292.807869 81.657453 
L 274.707259 78.972639 
L 267.348203 78.13406 
L 261.271675 77.658624 
L 255.194775 77.407805 
L 250.685849 77.422332 
L 246.608208 77.661846 
L 243.427805 78.052727 
L 240.457188 78.652742 
L 238.292078 79.338968 
L 237.038293 79.953829 
L 236.459086 80.39375 
L 236.085313 80.940678 
L 236.077895 81.393561 
L 236.295448 81.760666 
L 236.711619 82.107373 
L 237.489875 82.507538 
L 239.293362 83.081815 
L 242.039379 83.637819 
L 246.094975 84.181522 
L 251.154708 84.6064 
L 255.830773 84.789014 
L 260.887024 84.752576 
L 266.862671 84.445815 
L 274.137244 83.824721 
L 283.176267 82.825293 
L 292.812635 81.635532 
L 292.812635 81.635532 
" style="fill:none;stroke:#000000;stroke-linecap:square;stroke-opacity:0.7;stroke-width:1.2;"/>
   </g>
   <g id="line2d_40">
    <path clip-path="url(#pe2e7bb5a0f)" d="M 292.606093 62.632065 
L 275.752802 59.783332 
L 269.517118 58.952067 
L 264.20753 58.461167 
L 259.405425 58.248257 
L 254.863557 58.284086 
L 250.251581 58.556361 
L 245.631848 59.052867 
L 241.961282 59.639093 
L 239.203157 60.293439 
L 237.897743 60.771261 
L 237.011593 61.309596 
L 236.62058 61.838588 
L 236.587872 62.306216 
L 236.886964 62.889125 
L 237.656646 63.56155 
L 238.956529 64.257156 
L 240.419119 64.800837 
L 242.697414 65.396869 
L 245.929621 65.94647 
L 249.641519 66.329565 
L 253.904469 66.556734 
L 258.646 66.571041 
L 262.82249 66.367257 
L 268.124794 65.856279 
L 275.553504 64.875968 
L 292.616487 62.560508 
L 292.616487 62.560508 
" style="fill:none;stroke:#000000;stroke-linecap:square;stroke-opacity:0.7;stroke-width:1.2;"/>
   </g>
   <g id="line2d_41">
    <path clip-path="url(#pe2e7bb5a0f)" d="M 356.642465 234.483973 
L 350.790442 233.128504 
L 344.280019 231.855964 
L 338.287936 230.905916 
L 331.775645 230.101913 
L 325.749395 229.565367 
L 320.456342 229.301623 
L 316.79648 229.304657 
L 313.432908 229.509415 
L 310.314978 229.918473 
L 307.27298 230.558446 
L 304.506334 231.392165 
L 302.446757 232.227851 
L 300.817686 233.135042 
L 300.189742 233.698578 
L 300.112836 234.022403 
L 300.347277 234.191469 
L 300.818333 234.265925 
L 302.177414 234.212437 
L 305.301163 233.804095 
L 313.791565 232.625184 
L 318.140763 232.256177 
L 322.782195 232.116792 
L 328.614048 232.193784 
L 338.243947 232.558348 
L 344.815338 233.017195 
L 351.346696 233.720017 
L 356.640058 234.460914 
L 356.640058 234.460914 
" style="fill:none;stroke:#000000;stroke-linecap:square;stroke-opacity:0.7;stroke-width:1.2;"/>
   </g>
   <g id="line2d_42">
    <path clip-path="url(#pe2e7bb5a0f)" d="M 356.368217 215.260689 
L 348.073398 213.545923 
L 340.986152 212.305881 
L 334.488851 211.399327 
L 327.827605 210.707385 
L 322.377781 210.34719 
L 317.903463 210.255893 
L 314.512292 210.374825 
L 311.051606 210.721481 
L 308.301113 211.192004 
L 305.697716 211.830157 
L 303.553632 212.542713 
L 301.648678 213.414768 
L 300.615653 214.165973 
L 300.444835 214.540593 
L 300.548568 214.713357 
L 300.917997 214.867697 
L 301.612094 214.952271 
L 303.582131 214.922701 
L 317.54181 214.226656 
L 324.231235 214.321579 
L 356.370754 215.228004 
L 356.370754 215.228004 
" style="fill:none;stroke:#000000;stroke-linecap:square;stroke-opacity:0.7;stroke-width:1.2;"/>
   </g>
   <g id="line2d_43">
    <path clip-path="url(#pe2e7bb5a0f)" d="M 356.509146 196.143264 
L 349.466484 194.637403 
L 343.113418 193.484621 
L 337.357649 192.640899 
L 331.302736 191.977546 
L 324.852058 191.510051 
L 319.056818 191.318592 
L 315.00707 191.412706 
L 311.941839 191.674746 
L 308.651722 192.178271 
L 305.707415 192.858992 
L 303.036383 193.725566 
L 301.485654 194.403593 
L 300.310622 195.118434 
L 299.799832 195.692812 
L 299.775943 195.969404 
L 299.972046 196.21447 
L 300.478266 196.432837 
L 302.00708 196.657885 
L 304.509986 196.725914 
L 310.075969 196.583986 
L 323.127204 196.200775 
L 346.614941 195.931578 
L 355.756994 196.103791 
L 356.507573 196.130544 
L 356.507573 196.130544 
" style="fill:none;stroke:#000000;stroke-linecap:square;stroke-opacity:0.7;stroke-width:1.2;"/>
   </g>
   <g id="line2d_44">
    <path clip-path="url(#pe2e7bb5a0f)" d="M 356.37886 177.121306 
L 346.765112 175.149621 
L 340.443995 174.041209 
L 334.595385 173.216908 
L 328.872538 172.630786 
L 323.589031 172.306601 
L 318.753316 172.211451 
L 314.139241 172.347315 
L 310.464387 172.689911 
L 307.292854 173.225656 
L 304.766337 173.870292 
L 302.371844 174.749919 
L 301.262974 175.31678 
L 300.245503 176.11322 
L 300.035015 176.549372 
L 300.118597 176.846728 
L 300.427299 177.095624 
L 301.219666 177.359312 
L 302.769962 177.567622 
L 306.038385 177.687115 
L 315.480356 177.644946 
L 329.573802 177.467759 
L 349.461123 177.048588 
L 356.38338 177.089176 
L 356.38338 177.089176 
" style="fill:none;stroke:#000000;stroke-linecap:square;stroke-opacity:0.7;stroke-width:1.2;"/>
   </g>
   <g id="line2d_45">
    <path clip-path="url(#pe2e7bb5a0f)" d="M 356.71643 158.079418 
L 348.955997 156.49779 
L 341.313667 155.161201 
L 334.518804 154.197851 
L 328.59496 153.585567 
L 323.381439 153.258897 
L 318.051059 153.159847 
L 314.076965 153.290263 
L 310.630212 153.606516 
L 307.527811 154.108371 
L 304.653237 154.817711 
L 302.297746 155.656812 
L 300.922892 156.342736 
L 300.07078 156.960346 
L 299.691247 157.486594 
L 299.706051 157.865218 
L 299.931027 158.120061 
L 300.464289 158.382821 
L 301.643401 158.658864 
L 304.087174 158.910796 
L 308.355122 159.080409 
L 317.73467 159.183682 
L 326.10814 159.102615 
L 334.073526 158.798096 
L 351.203079 158.078798 
L 356.718034 158.001781 
L 356.718034 158.001781 
" style="fill:none;stroke:#000000;stroke-linecap:square;stroke-opacity:0.7;stroke-width:1.2;"/>
   </g>
   <g id="line2d_46">
    <path clip-path="url(#pe2e7bb5a0f)" d="M 356.403343 138.826951 
L 345.552649 136.663829 
L 337.467131 135.277993 
L 330.905546 134.39042 
L 325.677764 133.895104 
L 320.61687 133.649874 
L 317.092563 133.647315 
L 313.096227 133.855064 
L 309.541736 134.279544 
L 306.379569 134.903801 
L 303.773585 135.657465 
L 301.743605 136.479946 
L 300.547228 137.149969 
L 299.733837 137.82216 
L 299.387521 138.458935 
L 299.442514 138.812317 
L 299.746101 139.153458 
L 300.414662 139.490604 
L 301.840866 139.85638 
L 304.092674 140.166622 
L 308.134327 140.471116 
L 314.346408 140.708364 
L 320.966604 140.755476 
L 327.340049 140.584558 
L 335.754013 140.121554 
L 356.410933 138.805355 
L 356.410933 138.805355 
" style="fill:none;stroke:#000000;stroke-linecap:square;stroke-opacity:0.7;stroke-width:1.2;"/>
   </g>
   <g id="line2d_47">
    <path clip-path="url(#pe2e7bb5a0f)" d="M 356.513239 119.959009 
L 347.992902 118.143779 
L 339.988362 116.654058 
L 333.392081 115.641049 
L 327.729934 114.993961 
L 323.289823 114.679773 
L 318.760492 114.574784 
L 314.882627 114.6982 
L 311.303545 115.031297 
L 308.167026 115.536181 
L 305.223899 116.244871 
L 302.866252 117.061641 
L 301.526406 117.711894 
L 300.620507 118.341983 
L 300.114905 118.959517 
L 300.015232 119.36182 
L 300.122714 119.745655 
L 300.553526 120.186854 
L 301.16299 120.518456 
L 302.802364 121.023968 
L 305.100535 121.417988 
L 308.792829 121.768823 
L 314.373074 122.024738 
L 320.554943 122.104928 
L 326.563372 121.980652 
L 333.335098 121.598039 
L 356.516637 119.928553 
L 356.516637 119.928553 
" style="fill:none;stroke:#000000;stroke-linecap:square;stroke-opacity:0.7;stroke-width:1.2;"/>
   </g>
   <g id="line2d_48">
    <path clip-path="url(#pe2e7bb5a0f)" d="M 356.640386 100.391005 
L 336.082817 97.122553 
L 330.179145 96.437907 
L 324.782529 96.029574 
L 319.665217 95.877692 
L 315.850488 95.943346 
L 311.794309 96.222869 
L 308.107715 96.713193 
L 305.065134 97.348657 
L 302.792458 98.037978 
L 301.212501 98.726297 
L 300.211193 99.399476 
L 299.759286 100.024237 
L 299.738894 100.396014 
L 300.002856 100.827442 
L 300.623395 101.238661 
L 301.346804 101.529714 
L 303.299125 102.022035 
L 306.428236 102.502116 
L 310.995647 102.950487 
L 316.864628 103.295997 
L 322.042274 103.405963 
L 327.40553 103.310656 
L 333.612464 102.955584 
L 340.275219 102.341876 
L 349.879278 101.206758 
L 356.652657 100.361963 
L 356.652657 100.361963 
" style="fill:none;stroke:#000000;stroke-linecap:square;stroke-opacity:0.7;stroke-width:1.2;"/>
   </g>
   <g id="line2d_49">
    <path clip-path="url(#pe2e7bb5a0f)" d="M 356.363817 81.499152 
L 346.136038 79.520569 
L 338.530493 78.249877 
L 332.703217 77.487048 
L 327.222785 77.00035 
L 322.023689 76.781649 
L 316.84127 76.811311 
L 312.380777 77.060697 
L 308.743334 77.469363 
L 305.760612 78.003898 
L 303.198638 78.699935 
L 301.829129 79.240774 
L 300.636583 79.941629 
L 300.06397 80.530145 
L 299.88515 80.927985 
L 299.899536 81.418869 
L 300.094892 81.793117 
L 300.469618 82.171973 
L 301.255255 82.664778 
L 302.264414 83.097166 
L 304.226035 83.686474 
L 307.22156 84.300829 
L 311.092953 84.837024 
L 315.751352 85.232746 
L 320.160997 85.390903 
L 324.787481 85.341453 
L 330.25495 85.037665 
L 336.128074 84.471408 
L 343.268279 83.528912 
L 355.799953 81.576907 
L 356.361704 81.488154 
L 356.361704 81.488154 
" style="fill:none;stroke:#000000;stroke-linecap:square;stroke-opacity:0.7;stroke-width:1.2;"/>
   </g>
   <g id="line2d_50">
    <path clip-path="url(#pe2e7bb5a0f)" d="M 356.555941 62.676549 
L 344.594453 60.371498 
L 336.478835 59.008202 
L 330.583245 58.221591 
L 325.299266 57.74477 
L 320.445871 57.538327 
L 315.552535 57.566748 
L 311.209463 57.830247 
L 308.050285 58.219365 
L 305.662582 58.67422 
L 303.688723 59.208244 
L 302.057105 59.829889 
L 300.798559 60.534812 
L 299.980746 61.299499 
L 299.672108 61.968071 
L 299.702063 62.552372 
L 300.025931 63.143846 
L 300.758393 63.802471 
L 302.047343 64.521178 
L 303.735557 65.182486 
L 306.188735 65.896961 
L 309.318419 66.574976 
L 313.356226 67.181971 
L 316.963291 67.497183 
L 320.964234 67.59621 
L 324.805506 67.458282 
L 329.348086 67.064568 
L 335.351199 66.299019 
L 343.11831 65.07152 
L 353.765758 63.148417 
L 356.559555 62.615197 
L 356.559555 62.615197 
" style="fill:none;stroke:#000000;stroke-linecap:square;stroke-opacity:0.7;stroke-width:1.2;"/>
   </g>
   <g id="line2d_51">
    <path clip-path="url(#pe2e7bb5a0f)" d="M 419.832776 234.248156 
L 413.164075 232.740823 
L 406.091983 231.348167 
L 399.605519 230.292649 
L 393.61242 229.533979 
L 388.197656 229.044395 
L 383.595815 228.812797 
L 379.577751 228.815448 
L 376.491352 229.004824 
L 373.401806 229.408121 
L 370.816659 229.949463 
L 368.219001 230.735797 
L 366.232266 231.572571 
L 364.824678 232.385996 
L 363.992427 233.123564 
L 363.831507 233.484162 
L 363.969865 233.742019 
L 364.372056 233.880456 
L 365.438434 233.915885 
L 367.633387 233.719188 
L 375.146934 232.922743 
L 379.779589 232.685277 
L 384.868033 232.666267 
L 393.358611 232.911927 
L 408.019875 233.566026 
L 419.854377 234.243805 
L 419.854377 234.243805 
" style="fill:none;stroke:#000000;stroke-linecap:square;stroke-opacity:0.7;stroke-width:1.2;"/>
   </g>
   <g id="line2d_52">
    <path clip-path="url(#pe2e7bb5a0f)" d="M 420.197322 215.232406 
L 412.947601 213.572851 
L 405.446009 212.073395 
L 398.779415 210.983782 
L 392.744041 210.243016 
L 387.168848 209.804157 
L 382.698036 209.67768 
L 379.049325 209.787672 
L 375.48021 210.139869 
L 372.361198 210.689659 
L 369.69135 211.382897 
L 367.347025 212.220306 
L 365.537393 213.097703 
L 364.457396 213.819037 
L 363.879017 214.414253 
L 363.737095 214.877432 
L 363.903195 215.144597 
L 364.393556 215.364009 
L 365.563115 215.511847 
L 367.870949 215.489227 
L 374.107879 215.085407 
L 381.227399 214.709431 
L 388.283588 214.584533 
L 403.127734 214.609445 
L 412.121244 214.832413 
L 420.208444 215.23267 
L 420.208444 215.23267 
" style="fill:none;stroke:#000000;stroke-linecap:square;stroke-opacity:0.7;stroke-width:1.2;"/>
   </g>
   <g id="line2d_53">
    <path clip-path="url(#pe2e7bb5a0f)" d="M 420.419434 195.70331 
L 411.989481 194.131155 
L 403.774083 192.819869 
L 396.468015 191.865076 
L 390.54533 191.306721 
L 385.194302 191.036845 
L 380.557148 191.019621 
L 376.71848 191.200068 
L 373.157357 191.598438 
L 370.247687 192.164656 
L 367.827946 192.872714 
L 366.064987 193.587898 
L 364.429412 194.51337 
L 363.62899 195.198179 
L 363.304236 195.780804 
L 363.36583 196.092934 
L 363.53158 196.262463 
L 364.247362 196.533697 
L 365.46248 196.682165 
L 367.922632 196.728939 
L 375.736823 196.515877 
L 387.167229 196.266379 
L 407.557205 195.857633 
L 419.742427 195.681267 
L 420.425441 195.684108 
L 420.425441 195.684108 
" style="fill:none;stroke:#000000;stroke-linecap:square;stroke-opacity:0.7;stroke-width:1.2;"/>
   </g>
   <g id="line2d_54">
    <path clip-path="url(#pe2e7bb5a0f)" d="M 419.675791 176.918307 
L 413.301897 175.389433 
L 405.639912 173.765838 
L 400.29812 172.844348 
L 395.471578 172.234178 
L 390.976579 171.889315 
L 386.844656 171.774448 
L 382.010963 171.890955 
L 377.320746 172.247321 
L 372.542609 172.821501 
L 368.421507 173.529813 
L 365.945138 174.161174 
L 364.467783 174.745107 
L 363.754547 175.195555 
L 363.337658 175.666998 
L 363.232713 176.142375 
L 363.332339 176.433932 
L 363.817287 176.908338 
L 364.866682 177.376157 
L 366.541748 177.758011 
L 369.111714 178.047579 
L 373.429907 178.244449 
L 380.942125 178.313198 
L 389.500605 178.158867 
L 403.434605 177.619818 
L 419.680243 176.901056 
L 419.680243 176.901056 
" style="fill:none;stroke:#000000;stroke-linecap:square;stroke-opacity:0.7;stroke-width:1.2;"/>
   </g>
   <g id="line2d_55">
    <path clip-path="url(#pe2e7bb5a0f)" d="M 420.397963 157.650368 
L 410.056504 155.73406 
L 401.631354 154.376264 
L 395.075301 153.541508 
L 389.183115 153.037353 
L 383.618778 152.815845 
L 378.93019 152.856809 
L 375.245974 153.104458 
L 372.22378 153.517697 
L 369.909029 154.009161 
L 367.553746 154.723534 
L 365.546835 155.593267 
L 364.273304 156.392691 
L 363.580386 157.096662 
L 363.404602 157.517287 
L 363.497757 157.947388 
L 363.864788 158.275945 
L 364.590329 158.575 
L 366.081706 158.879767 
L 368.811801 159.145931 
L 373.732894 159.360411 
L 381.679593 159.46687 
L 389.101409 159.351063 
L 397.196094 158.983835 
L 420.402599 157.61236 
L 420.402599 157.61236 
" style="fill:none;stroke:#000000;stroke-linecap:square;stroke-opacity:0.7;stroke-width:1.2;"/>
   </g>
   <g id="line2d_56">
    <path clip-path="url(#pe2e7bb5a0f)" d="M 419.963551 138.719337 
L 412.376858 137.045035 
L 404.9461 135.609394 
L 398.785247 134.642724 
L 393.215384 133.993839 
L 387.706546 133.595486 
L 382.873861 133.485606 
L 378.338101 133.640666 
L 374.535068 134.009045 
L 371.469079 134.502281 
L 368.632231 135.175242 
L 366.306547 135.990903 
L 364.904091 136.734293 
L 364.16315 137.351169 
L 363.822371 137.870146 
L 363.761474 138.406564 
L 363.971562 138.844087 
L 364.519363 139.301532 
L 365.310173 139.670973 
L 367.066732 140.140108 
L 369.67829 140.514172 
L 373.635333 140.803867 
L 379.234929 140.97443 
L 385.951801 140.947021 
L 392.437737 140.689655 
L 401.105519 140.091601 
L 419.980218 138.722144 
L 419.980218 138.722144 
" style="fill:none;stroke:#000000;stroke-linecap:square;stroke-opacity:0.7;stroke-width:1.2;"/>
   </g>
   <g id="line2d_57">
    <path clip-path="url(#pe2e7bb5a0f)" d="M 420.003724 119.467962 
L 406.359464 116.682017 
L 399.532449 115.512579 
L 394.626984 114.876328 
L 390.565517 114.536383 
L 385.956191 114.394745 
L 381.181339 114.504001 
L 376.579934 114.836403 
L 373.341661 115.24289 
L 370.358689 115.802321 
L 367.79372 116.4995 
L 365.836863 117.2615 
L 364.484687 118.03071 
L 363.609412 118.887112 
L 363.437832 119.346429 
L 363.524655 119.777015 
L 363.70936 120.014913 
L 364.11406 120.3054 
L 365.450726 120.795155 
L 367.529811 121.200897 
L 371.113094 121.617811 
L 376.845431 122.000854 
L 381.996636 122.137598 
L 387.13087 122.071227 
L 393.549956 121.740844 
L 402.438193 121.017546 
L 419.992667 119.471035 
L 419.992667 119.471035 
" style="fill:none;stroke:#000000;stroke-linecap:square;stroke-opacity:0.7;stroke-width:1.2;"/>
   </g>
   <g id="line2d_58">
    <path clip-path="url(#pe2e7bb5a0f)" d="M 419.91668 100.707123 
L 411.408112 98.710574 
L 403.665262 97.097524 
L 397.618752 96.063027 
L 392.777471 95.44646 
L 388.365363 95.105428 
L 384.308154 95.023972 
L 380.185101 95.193101 
L 376.347685 95.579956 
L 372.638481 96.180675 
L 369.745206 96.850743 
L 367.339072 97.63032 
L 365.698198 98.409782 
L 365.004041 98.895267 
L 364.416729 99.570807 
L 364.267417 99.972313 
L 364.299569 100.502852 
L 364.626878 101.050972 
L 365.119868 101.477137 
L 365.945096 101.937385 
L 367.56879 102.510062 
L 369.89801 103.012387 
L 373.11909 103.429361 
L 377.542184 103.741863 
L 382.713842 103.858052 
L 387.289615 103.751797 
L 392.585059 103.40805 
L 400.579599 102.620532 
L 417.845821 100.870962 
L 419.91468 100.685223 
L 419.91468 100.685223 
" style="fill:none;stroke:#000000;stroke-linecap:square;stroke-opacity:0.7;stroke-width:1.2;"/>
   </g>
   <g id="line2d_59">
    <path clip-path="url(#pe2e7bb5a0f)" d="M 419.930924 81.448547 
L 412.602109 79.760975 
L 405.560548 78.336819 
L 399.235311 77.282646 
L 394.061968 76.639327 
L 389.421276 76.278496 
L 384.906028 76.161678 
L 380.293808 76.290203 
L 375.864564 76.653612 
L 372.07139 77.202934 
L 369.036546 77.879267 
L 366.67967 78.651708 
L 365.2322 79.336307 
L 364.506875 79.812028 
L 363.751411 80.617761 
L 363.582385 81.136679 
L 363.649592 81.569698 
L 363.969907 82.043766 
L 364.632085 82.54172 
L 365.570456 82.989756 
L 367.702519 83.65083 
L 370.229278 84.175078 
L 373.971445 84.709009 
L 378.666744 85.121439 
L 383.259771 85.290968 
L 388.06111 85.231502 
L 393.126618 84.941663 
L 399.253189 84.34957 
L 406.810117 83.368915 
L 419.945348 81.427861 
L 419.945348 81.427861 
" style="fill:none;stroke:#000000;stroke-linecap:square;stroke-opacity:0.7;stroke-width:1.2;"/>
   </g>
   <g id="line2d_60">
    <path clip-path="url(#pe2e7bb5a0f)" d="M 420.523288 61.947029 
L 402.735211 58.836705 
L 395.977101 57.886611 
L 390.797669 57.393918 
L 386.240619 57.201683 
L 381.706839 57.243819 
L 377.213522 57.496368 
L 373.311271 57.918896 
L 370.412381 58.418737 
L 367.870837 59.070909 
L 366.282698 59.648536 
L 364.866424 60.374311 
L 364.167551 60.892362 
L 363.628652 61.537086 
L 363.471772 62.087128 
L 363.56124 62.498778 
L 363.913357 62.96597 
L 364.375333 63.315045 
L 365.677138 63.938462 
L 367.715405 64.585369 
L 371.090764 65.355247 
L 375.313203 66.057543 
L 379.423356 66.523983 
L 383.173 66.753124 
L 387.086752 66.779267 
L 391.101986 66.593008 
L 396.193647 66.102546 
L 401.55611 65.360224 
L 408.833182 64.119775 
L 420.530888 61.901694 
L 420.530888 61.901694 
" style="fill:none;stroke:#000000;stroke-linecap:square;stroke-opacity:0.7;stroke-width:1.2;"/>
   </g>
   <g id="line2d_61">
    <path clip-path="url(#pe2e7bb5a0f)" d="M 484.287279 233.830878 
L 476.343989 232.086347 
L 467.716889 230.40901 
L 460.58772 229.234363 
L 455.304724 228.562955 
L 450.40395 228.169138 
L 446.411944 228.071146 
L 443.282133 228.174204 
L 439.76848 228.522167 
L 436.914913 229.021787 
L 434.264793 229.698396 
L 431.864832 230.535622 
L 429.951719 231.413938 
L 428.279232 232.435023 
L 427.330975 233.265602 
L 427.009332 233.753713 
L 426.977186 234.087049 
L 427.168142 234.324974 
L 427.509535 234.461061 
L 428.516015 234.553134 
L 430.726901 234.41028 
L 436.345503 233.702846 
L 443.378306 232.867553 
L 448.81198 232.438436 
L 454.828685 232.196897 
L 461.960013 232.14512 
L 468.297834 232.310127 
L 474.425916 232.680337 
L 480.671436 233.279025 
L 484.288031 233.73504 
L 484.288031 233.73504 
" style="fill:none;stroke:#000000;stroke-linecap:square;stroke-opacity:0.7;stroke-width:1.2;"/>
   </g>
   <g id="line2d_62">
    <path clip-path="url(#pe2e7bb5a0f)" d="M 484.337079 214.604846 
L 476.374972 212.889968 
L 468.25029 211.372113 
L 461.109032 210.263187 
L 455.801382 209.63798 
L 451.061264 209.283977 
L 446.941488 209.177822 
L 442.892823 209.304797 
L 439.470467 209.640291 
L 436.229024 210.202596 
L 433.893328 210.791889 
L 431.649214 211.544986 
L 429.868757 212.320732 
L 428.584407 213.032525 
L 427.426602 213.904595 
L 426.913602 214.604742 
L 426.895955 214.929093 
L 427.019624 215.12612 
L 427.532621 215.385031 
L 428.747174 215.558708 
L 430.915345 215.580379 
L 436.598192 215.32826 
L 457.026977 214.331789 
L 465.991963 214.08286 
L 473.661028 214.082927 
L 481.093519 214.312755 
L 484.333332 214.510739 
L 484.333332 214.510739 
" style="fill:none;stroke:#000000;stroke-linecap:square;stroke-opacity:0.7;stroke-width:1.2;"/>
   </g>
   <g id="line2d_63">
    <path clip-path="url(#pe2e7bb5a0f)" d="M 484.116936 196.155253 
L 478.910764 194.673041 
L 473.29478 193.298267 
L 467.331788 192.080275 
L 462.054461 191.211746 
L 456.647501 190.532235 
L 451.455675 190.08246 
L 447.024248 189.895034 
L 443.370519 189.959427 
L 440.283376 190.237966 
L 437.802068 190.646579 
L 435.2958 191.254693 
L 432.99991 192.016309 
L 430.930313 192.920072 
L 429.115455 193.979032 
L 428.030184 194.882518 
L 427.576389 195.522777 
L 427.509501 196.024718 
L 427.646955 196.2858 
L 428.159613 196.618878 
L 428.904325 196.825768 
L 430.455452 196.996185 
L 433.70777 197.016426 
L 439.616404 196.744441 
L 456.119194 195.901796 
L 466.12685 195.62068 
L 473.406374 195.643315 
L 480.645182 195.913621 
L 484.116 196.134991 
L 484.116 196.134991 
" style="fill:none;stroke:#000000;stroke-linecap:square;stroke-opacity:0.7;stroke-width:1.2;"/>
   </g>
   <g id="line2d_64">
    <path clip-path="url(#pe2e7bb5a0f)" d="M 484.093865 177.060329 
L 477.700777 175.414058 
L 471.240837 173.975997 
L 465.02416 172.825003 
L 459.36897 172.007058 
L 453.969624 171.466511 
L 449.348491 171.216255 
L 444.900297 171.197519 
L 441.194671 171.409975 
L 438.162748 171.797524 
L 435.53636 172.33567 
L 433.294875 172.982864 
L 431.241638 173.774109 
L 429.486926 174.669154 
L 428.152001 175.603397 
L 427.386044 176.474812 
L 427.252027 176.957732 
L 427.342739 177.244516 
L 427.631422 177.511527 
L 428.506051 177.819714 
L 430.356306 178.02931 
L 433.876337 178.07582 
L 442.164927 177.863721 
L 476.867776 176.926685 
L 484.09869 177.038431 
L 484.09869 177.038431 
" style="fill:none;stroke:#000000;stroke-linecap:square;stroke-opacity:0.7;stroke-width:1.2;"/>
   </g>
   <g id="line2d_65">
    <path clip-path="url(#pe2e7bb5a0f)" d="M 483.894947 157.886422 
L 477.472989 156.193132 
L 471.497132 154.824197 
L 465.644467 153.697695 
L 460.492229 152.902501 
L 455.494093 152.339354 
L 451.03227 152.045631 
L 446.753535 151.980316 
L 442.868178 152.140303 
L 439.835387 152.448911 
L 436.54206 153.017569 
L 434.284851 153.583805 
L 431.724273 154.45853 
L 429.685818 155.421972 
L 428.391596 156.275299 
L 427.762482 156.873791 
L 427.38272 157.60041 
L 427.472349 158.066924 
L 427.822744 158.406946 
L 428.407309 158.677747 
L 429.319974 158.910925 
L 431.246652 159.156724 
L 434.409187 159.316998 
L 440.863227 159.367721 
L 449.547534 159.214232 
L 458.945943 158.819638 
L 477.66405 157.980071 
L 483.885802 157.855583 
L 483.885802 157.855583 
" style="fill:none;stroke:#000000;stroke-linecap:square;stroke-opacity:0.7;stroke-width:1.2;"/>
   </g>
   <g id="line2d_66">
    <path clip-path="url(#pe2e7bb5a0f)" d="M 484.088019 138.517416 
L 475.832316 136.67602 
L 467.908323 135.104876 
L 460.82279 133.920363 
L 455.489862 133.234687 
L 451.267426 132.876837 
L 447.3189 132.744954 
L 443.574903 132.847542 
L 440.18464 133.163542 
L 437.19616 133.642056 
L 434.153387 134.360339 
L 431.724512 135.15795 
L 429.689836 136.069734 
L 428.375882 136.888173 
L 427.487863 137.736667 
L 427.208215 138.267454 
L 427.194941 138.749486 
L 427.358905 139.06811 
L 427.892612 139.488357 
L 428.483949 139.741919 
L 430.13668 140.135783 
L 433.048821 140.474095 
L 437.563556 140.727841 
L 444.26203 140.878625 
L 450.984237 140.816366 
L 457.721045 140.523894 
L 466.490695 139.893668 
L 484.097277 138.504677 
L 484.097277 138.504677 
" style="fill:none;stroke:#000000;stroke-linecap:square;stroke-opacity:0.7;stroke-width:1.2;"/>
   </g>
   <g id="line2d_67">
    <path clip-path="url(#pe2e7bb5a0f)" d="M 484.108016 119.909433 
L 478.65529 118.411073 
L 472.089575 116.842674 
L 466.127541 115.640329 
L 460.400475 114.707706 
L 455.444149 114.113985 
L 451.26873 113.80041 
L 446.910417 113.690239 
L 443.165068 113.814858 
L 440.002269 114.120587 
L 437.140137 114.591471 
L 434.107401 115.337958 
L 431.884341 116.096673 
L 430.26697 116.814228 
L 428.785189 117.690467 
L 427.830279 118.542777 
L 427.457259 119.204548 
L 427.432854 119.665488 
L 427.65669 120.125023 
L 428.104552 120.517096 
L 428.78548 120.871876 
L 429.866521 121.235861 
L 432.217465 121.710429 
L 435.392856 122.0671 
L 439.84812 122.315937 
L 445.328114 122.390888 
L 451.132869 122.261737 
L 458.535655 121.854305 
L 470.87025 120.895038 
L 484.114324 119.888791 
L 484.114324 119.888791 
" style="fill:none;stroke:#000000;stroke-linecap:square;stroke-opacity:0.7;stroke-width:1.2;"/>
   </g>
   <g id="line2d_68">
    <path clip-path="url(#pe2e7bb5a0f)" d="M 483.69514 100.598902 
L 473.786196 98.148443 
L 466.382 96.531481 
L 460.869449 95.539514 
L 456.117827 94.877429 
L 451.863626 94.469979 
L 447.945457 94.288416 
L 444.68929 94.313109 
L 440.778565 94.591051 
L 437.547754 95.049829 
L 434.876462 95.618095 
L 432.287096 96.400864 
L 430.337395 97.242958 
L 428.918817 98.129539 
L 427.977011 99.046283 
L 427.550321 99.818334 
L 427.453205 100.421181 
L 427.563189 100.96577 
L 428.017234 101.644754 
L 428.689465 102.17474 
L 430.014411 102.802033 
L 431.750367 103.304457 
L 434.380708 103.765011 
L 438.017267 104.109111 
L 442.128959 104.270191 
L 447.090811 104.236507 
L 452.192632 103.982593 
L 458.183421 103.478672 
L 468.813634 102.323177 
L 483.708026 100.594651 
L 483.708026 100.594651 
" style="fill:none;stroke:#000000;stroke-linecap:square;stroke-opacity:0.7;stroke-width:1.2;"/>
   </g>
   <g id="line2d_69">
    <path clip-path="url(#pe2e7bb5a0f)" d="M 484.065905 81.147649 
L 474.674118 78.900055 
L 467.255057 77.324523 
L 462.090076 76.434394 
L 457.413497 75.852982 
L 453.438206 75.576313 
L 449.80922 75.525708 
L 445.472411 75.71985 
L 441.041854 76.171796 
L 436.686893 76.85792 
L 433.376704 77.600479 
L 430.888165 78.387692 
L 429.074587 79.219241 
L 428.450386 79.608752 
L 427.576817 80.377109 
L 427.226859 80.937101 
L 427.137128 81.504443 
L 427.324019 82.013339 
L 428.008275 82.64664 
L 429.450549 83.313637 
L 431.511551 83.900111 
L 434.8716 84.55052 
L 438.604615 85.063047 
L 443.716304 85.511907 
L 447.850954 85.656975 
L 451.554402 85.609559 
L 456.203731 85.329253 
L 461.603501 84.760033 
L 468.670435 83.754635 
L 479.062511 82.011303 
L 484.082624 81.133872 
L 484.082624 81.133872 
" style="fill:none;stroke:#000000;stroke-linecap:square;stroke-opacity:0.7;stroke-width:1.2;"/>
   </g>
   <g id="line2d_70">
    <path clip-path="url(#pe2e7bb5a0f)" d="M 484.005058 62.146323 
L 474.116621 59.914083 
L 466.088924 58.324128 
L 460.066204 57.361593 
L 455.430973 56.83083 
L 450.897905 56.550231 
L 446.868424 56.525879 
L 442.554586 56.728129 
L 438.536672 57.135975 
L 434.995524 57.730102 
L 432.583067 58.330651 
L 430.345997 59.134258 
L 429.107724 59.768604 
L 427.963452 60.637824 
L 427.39032 61.420687 
L 427.234329 61.932364 
L 427.32492 62.685887 
L 427.668722 63.262228 
L 428.157485 63.746201 
L 429.111499 64.387786 
L 430.772137 65.163533 
L 433.062939 65.944429 
L 436.131083 66.731556 
L 439.457597 67.365358 
L 442.744427 67.796972 
L 446.556644 68.051395 
L 449.754199 68.057994 
L 453.612863 67.835177 
L 457.489298 67.401545 
L 462.867587 66.546048 
L 469.42085 65.2604 
L 484.019288 62.149955 
L 484.019288 62.149955 
" style="fill:none;stroke:#000000;stroke-linecap:square;stroke-opacity:0.7;stroke-width:1.2;"/>
   </g>
   <g id="line2d_71">
    <path clip-path="url(#pe2e7bb5a0f)" d="M 547.684389 234.001943 
L 541.802878 232.342282 
L 535.710442 230.820548 
L 529.910152 229.583346 
L 524.499687 228.657139 
L 519.782839 228.064401 
L 515.244747 227.71353 
L 511.012905 227.607122 
L 507.839763 227.689214 
L 504.229573 227.992998 
L 500.978663 228.52138 
L 498.530916 229.139099 
L 496.323783 229.921566 
L 494.55583 230.763491 
L 493.077466 231.68077 
L 491.834959 232.699527 
L 491.028515 233.685078 
L 490.883673 234.250293 
L 490.948925 234.397232 
L 491.224231 234.575834 
L 491.917568 234.661229 
L 493.486108 234.533954 
L 498.926235 233.68399 
L 504.780885 232.868874 
L 509.473041 232.432409 
L 514.22534 232.208333 
L 520.175885 232.166549 
L 526.341288 232.328748 
L 534.384049 232.785677 
L 543.19418 233.519748 
L 547.699285 233.970985 
L 547.699285 233.970985 
" style="fill:none;stroke:#000000;stroke-linecap:square;stroke-opacity:0.7;stroke-width:1.2;"/>
   </g>
   <g id="line2d_72">
    <path clip-path="url(#pe2e7bb5a0f)" d="M 547.902443 214.909005 
L 543.105776 213.438645 
L 537.378357 211.922635 
L 531.486408 210.594665 
L 525.50838 209.46806 
L 519.914126 208.637838 
L 515.204809 208.152551 
L 511.301172 207.944477 
L 508.056656 207.951524 
L 504.832703 208.17765 
L 502.489752 208.519178 
L 499.874389 209.122943 
L 497.386886 209.97092 
L 495.427595 210.883773 
L 493.709772 211.933212 
L 492.189749 213.191505 
L 491.463434 214.064375 
L 491.135512 214.827063 
L 491.180456 215.23432 
L 491.50669 215.571122 
L 492.008 215.750367 
L 493.301466 215.858198 
L 496.004373 215.689165 
L 503.674206 214.774767 
L 512.099856 213.859438 
L 518.815487 213.332137 
L 525.117881 213.058244 
L 530.464336 213.054497 
L 535.590248 213.296239 
L 540.463948 213.765218 
L 545.642163 214.493861 
L 547.90834 214.876566 
L 547.90834 214.876566 
" style="fill:none;stroke:#000000;stroke-linecap:square;stroke-opacity:0.7;stroke-width:1.2;"/>
   </g>
   <g id="line2d_73">
    <path clip-path="url(#pe2e7bb5a0f)" d="M 547.947258 195.859926 
L 542.507411 194.24913 
L 536.690724 192.760995 
L 530.02135 191.301568 
L 524.179936 190.237644 
L 519.003169 189.516951 
L 514.345821 189.11564 
L 510.322536 189.006215 
L 507.176404 189.110428 
L 504.10645 189.414765 
L 501.383343 189.894049 
L 498.963205 190.524426 
L 496.628703 191.359723 
L 494.584263 192.330882 
L 493.000339 193.307577 
L 491.854043 194.232715 
L 491.078401 195.149084 
L 490.842303 195.770728 
L 490.906511 196.164022 
L 491.279056 196.536587 
L 491.891934 196.775776 
L 493.32108 196.983781 
L 495.696925 197.033701 
L 500.302135 196.855165 
L 516.799384 195.825014 
L 526.434332 195.34878 
L 533.168519 195.219166 
L 539.109472 195.312262 
L 545.02987 195.619166 
L 547.947098 195.856526 
L 547.947098 195.856526 
" style="fill:none;stroke:#000000;stroke-linecap:square;stroke-opacity:0.7;stroke-width:1.2;"/>
   </g>
   <g id="line2d_74">
    <path clip-path="url(#pe2e7bb5a0f)" d="M 547.850037 177.287792 
L 543.887458 175.867529 
L 538.744143 174.277036 
L 533.128206 172.79935 
L 527.68146 171.598779 
L 522.818602 170.732941 
L 518.130977 170.115245 
L 514.117648 169.784996 
L 510.049805 169.670634 
L 506.318623 169.816449 
L 503.292027 170.174864 
L 500.951691 170.644384 
L 498.451388 171.377515 
L 496.396578 172.202096 
L 494.435024 173.238843 
L 493.086992 174.1691 
L 492.108767 175.077211 
L 491.654319 175.708795 
L 491.455663 176.410477 
L 491.532776 176.75003 
L 491.948185 177.218015 
L 492.398647 177.463409 
L 493.34597 177.760476 
L 495.069522 178.029913 
L 497.628529 178.190479 
L 502.211101 178.216538 
L 512.287979 177.973902 
L 525.231575 177.47978 
L 535.135391 177.153019 
L 542.165988 177.137608 
L 547.845097 177.256838 
L 547.845097 177.256838 
" style="fill:none;stroke:#000000;stroke-linecap:square;stroke-opacity:0.7;stroke-width:1.2;"/>
   </g>
   <g id="line2d_75">
    <path clip-path="url(#pe2e7bb5a0f)" d="M 548.02678 157.685742 
L 543.230848 156.201518 
L 538.017445 154.819099 
L 532.270521 153.521979 
L 526.825132 152.503595 
L 521.52726 151.741265 
L 517.161745 151.318325 
L 512.696993 151.105629 
L 508.66589 151.139413 
L 505.484621 151.364066 
L 502.229024 151.834186 
L 499.515834 152.46217 
L 497.117781 153.243923 
L 494.774708 154.283934 
L 493.224211 155.19994 
L 492.097083 156.080696 
L 491.333837 156.960688 
L 491.093538 157.486195 
L 491.089777 158.011397 
L 491.299455 158.371374 
L 491.820893 158.738737 
L 492.944067 159.103485 
L 495.055195 159.408111 
L 498.515213 159.607591 
L 504.103756 159.688422 
L 511.427877 159.581042 
L 518.121129 159.280715 
L 529.595714 158.493454 
L 540.40162 157.824359 
L 547.519069 157.613436 
L 548.029559 157.609643 
L 548.029559 157.609643 
" style="fill:none;stroke:#000000;stroke-linecap:square;stroke-opacity:0.7;stroke-width:1.2;"/>
   </g>
   <g id="line2d_76">
    <path clip-path="url(#pe2e7bb5a0f)" d="M 547.817051 138.840212 
L 541.332078 136.970466 
L 534.550432 135.243436 
L 528.673219 133.96996 
L 523.503821 133.056114 
L 518.677408 132.408339 
L 514.011769 132.011844 
L 510.368648 131.903106 
L 507.019979 132.007099 
L 503.967385 132.318315 
L 500.857456 132.895304 
L 498.285664 133.60789 
L 496.298642 134.333147 
L 494.007218 135.416176 
L 492.43884 136.395115 
L 491.320445 137.362839 
L 490.920387 137.890549 
L 490.705778 138.55665 
L 490.800423 138.954426 
L 491.102765 139.311099 
L 491.595326 139.61026 
L 492.822661 140.007801 
L 494.732786 140.325153 
L 498.102695 140.59274 
L 503.389697 140.738746 
L 510.740443 140.706529 
L 517.869832 140.472162 
L 527.622189 139.904836 
L 543.845934 138.95691 
L 547.816162 138.801621 
L 547.816162 138.801621 
" style="fill:none;stroke:#000000;stroke-linecap:square;stroke-opacity:0.7;stroke-width:1.2;"/>
   </g>
   <g id="line2d_77">
    <path clip-path="url(#pe2e7bb5a0f)" d="M 547.864807 119.219122 
L 538.748136 116.880679 
L 531.325564 115.201877 
L 525.452378 114.11586 
L 521.233275 113.522682 
L 516.840066 113.124959 
L 512.989247 113.005186 
L 509.231061 113.116755 
L 505.431569 113.4555 
L 502.016101 113.959704 
L 499.063257 114.58468 
L 496.744689 115.25359 
L 494.795715 116.008722 
L 493.37819 116.742572 
L 492.187041 117.582992 
L 491.507118 118.265401 
L 491.111564 118.881485 
L 490.960647 119.631533 
L 491.088921 120.053124 
L 491.406776 120.446832 
L 492.25028 120.962544 
L 493.730988 121.444759 
L 495.954813 121.872136 
L 499.429691 122.282257 
L 503.957341 122.596919 
L 509.50209 122.750122 
L 514.803707 122.669836 
L 520.695733 122.338051 
L 527.536154 121.701361 
L 537.407179 120.510605 
L 547.8716 119.204365 
L 547.8716 119.204365 
" style="fill:none;stroke:#000000;stroke-linecap:square;stroke-opacity:0.7;stroke-width:1.2;"/>
   </g>
   <g id="line2d_78">
    <path clip-path="url(#pe2e7bb5a0f)" d="M 547.771093 100.40488 
L 541.37434 98.614795 
L 534.510024 96.914991 
L 527.935775 95.517549 
L 523.260296 94.711902 
L 519.02552 94.176181 
L 515.08261 93.889721 
L 511.178095 93.824395 
L 507.262615 93.974789 
L 503.689593 94.324609 
L 500.541757 94.855477 
L 498.01153 95.49272 
L 495.829036 96.257144 
L 493.84863 97.213572 
L 492.374385 98.217097 
L 491.626063 98.940768 
L 491.127071 99.688051 
L 490.9586 100.244097 
L 490.991393 100.761076 
L 491.283041 101.309776 
L 491.740587 101.728618 
L 492.609503 102.21148 
L 494.310926 102.788433 
L 496.704794 103.305181 
L 499.835094 103.758936 
L 504.390322 104.167935 
L 508.761073 104.337037 
L 513.412881 104.284037 
L 518.673948 103.969807 
L 524.725368 103.375601 
L 533.801538 102.240819 
L 547.778184 100.368725 
L 547.778184 100.368725 
" style="fill:none;stroke:#000000;stroke-linecap:square;stroke-opacity:0.7;stroke-width:1.2;"/>
   </g>
   <g id="line2d_79">
    <path clip-path="url(#pe2e7bb5a0f)" d="M 547.986549 81.175707 
L 541.615376 79.491481 
L 534.004706 77.722327 
L 527.498946 76.413355 
L 522.22116 75.543546 
L 517.400703 74.972484 
L 512.667165 74.68094 
L 508.680246 74.67324 
L 504.829704 74.905318 
L 501.772489 75.300791 
L 499.287309 75.806472 
L 496.759722 76.558523 
L 494.743173 77.416205 
L 493.346711 78.229657 
L 492.452708 78.916455 
L 491.550286 79.901888 
L 491.177128 80.583159 
L 491.039539 81.10278 
L 491.043707 81.608492 
L 491.197103 82.094496 
L 491.750761 82.809646 
L 492.607736 83.415651 
L 493.91315 84.018926 
L 496.297969 84.760236 
L 499.222832 85.393301 
L 503.321602 86.004596 
L 507.046925 86.343921 
L 510.923147 86.480631 
L 515.128675 86.374661 
L 519.52179 86.016122 
L 525.021942 85.315624 
L 532.500562 84.101493 
L 542.718193 82.192322 
L 547.990583 81.13254 
L 547.990583 81.13254 
" style="fill:none;stroke:#000000;stroke-linecap:square;stroke-opacity:0.7;stroke-width:1.2;"/>
   </g>
   <g id="line2d_80">
    <path clip-path="url(#pe2e7bb5a0f)" d="M 547.942489 62.27219 
L 541.786166 60.549451 
L 534.369354 58.720018 
L 528.103201 57.385084 
L 522.917033 56.491476 
L 519.047224 56.010838 
L 514.996329 55.72769 
L 510.799747 55.684059 
L 506.521311 55.885385 
L 503.010018 56.248781 
L 499.664438 56.818716 
L 497.152289 57.461865 
L 494.873051 58.305254 
L 493.590687 58.961495 
L 492.316723 59.861145 
L 491.671661 60.516473 
L 491.216349 61.213153 
L 490.977752 62.004195 
L 491.051402 62.813174 
L 491.360459 63.458203 
L 491.871154 64.062023 
L 492.735292 64.748511 
L 494.183091 65.56218 
L 495.994347 66.324457 
L 498.737448 67.20691 
L 501.506095 67.88458 
L 504.61104 68.439355 
L 507.765921 68.789061 
L 511.149177 68.921257 
L 514.210417 68.834003 
L 518.036325 68.492278 
L 522.700162 67.819619 
L 528.753657 66.680252 
L 536.998163 64.861684 
L 547.940424 62.264997 
L 547.940424 62.264997 
" style="fill:none;stroke:#000000;stroke-linecap:square;stroke-opacity:0.7;stroke-width:1.2;"/>
   </g>
   <g id="line2d_81">
    <path clip-path="url(#pe2e7bb5a0f)" d="M 611.635085 234.094481 
L 608.080465 232.505071 
L 603.76012 230.81731 
L 598.734058 229.113021 
L 593.33581 227.539152 
L 588.002678 226.237987 
L 583.393729 225.353389 
L 579.287796 224.80423 
L 576.005229 224.569351 
L 572.747797 224.564358 
L 570.121139 224.770066 
L 567.733104 225.159827 
L 565.130476 225.853173 
L 562.919882 226.707473 
L 560.797699 227.80698 
L 558.878721 229.097454 
L 557.506728 230.252428 
L 556.058729 231.819289 
L 555.330263 232.944866 
L 555.053715 233.833277 
L 555.087081 234.156358 
L 555.262745 234.449448 
L 555.61778 234.663677 
L 556.251241 234.785616 
L 557.465149 234.748314 
L 559.826354 234.366694 
L 565.093676 233.166018 
L 572.146328 231.57721 
L 576.831612 230.760185 
L 580.964083 230.254975 
L 585.219473 229.936161 
L 589.336918 229.826148 
L 593.029584 229.918188 
L 596.601261 230.213723 
L 600.162975 230.745082 
L 603.778476 231.540714 
L 607.487944 232.600122 
L 611.634343 234.031908 
L 611.634343 234.031908 
" style="fill:none;stroke:#000000;stroke-linecap:square;stroke-opacity:0.7;stroke-width:1.2;"/>
   </g>
   <g id="line2d_82">
    <path clip-path="url(#pe2e7bb5a0f)" d="M 611.41764 215.324675 
L 606.937971 213.678903 
L 601.543805 211.937632 
L 595.951288 210.38156 
L 590.126405 208.993902 
L 583.799066 207.716651 
L 578.663253 206.888395 
L 574.329693 206.430778 
L 571.221724 206.317901 
L 568.1403 206.450344 
L 565.335392 206.835325 
L 562.896446 207.421338 
L 561.085811 208.043068 
L 558.954843 209.041701 
L 557.50434 209.954419 
L 556.129862 211.11945 
L 555.398715 212.00627 
L 555.042197 212.682882 
L 554.915342 213.288812 
L 554.987033 213.731969 
L 555.308531 214.203632 
L 556.022229 214.63351 
L 556.693489 214.84256 
L 558.571665 215.093573 
L 561.404318 215.124908 
L 565.972676 214.91238 
L 577.163152 214.352622 
L 585.817958 214.170436 
L 592.892095 214.222973 
L 599.829227 214.494917 
L 608.792948 215.094289 
L 611.424915 215.315686 
L 611.424915 215.315686 
" style="fill:none;stroke:#000000;stroke-linecap:square;stroke-opacity:0.7;stroke-width:1.2;"/>
   </g>
   <g id="line2d_83">
    <path clip-path="url(#pe2e7bb5a0f)" d="M 611.632641 195.747383 
L 607.629027 194.196355 
L 602.752138 192.54784 
L 597.70415 191.084198 
L 593.069596 189.9582 
L 588.424656 189.062732 
L 584.57642 188.526708 
L 580.569269 188.195171 
L 576.768787 188.108682 
L 573.014152 188.250918 
L 569.497539 188.620868 
L 566.680605 189.126178 
L 564.231676 189.757814 
L 561.597915 190.692193 
L 559.368484 191.758605 
L 557.767815 192.750285 
L 556.546713 193.71611 
L 555.736119 194.560236 
L 555.203719 195.413136 
L 555.092476 196.037686 
L 555.246845 196.428013 
L 555.570291 196.705158 
L 556.223885 196.955992 
L 557.651626 197.149228 
L 560.004818 197.172899 
L 565.060501 196.918695 
L 576.117942 196.076233 
L 587.957866 195.200304 
L 594.113703 194.980941 
L 599.96215 195.001163 
L 605.658281 195.244865 
L 611.638894 195.71914 
L 611.638894 195.71914 
" style="fill:none;stroke:#000000;stroke-linecap:square;stroke-opacity:0.7;stroke-width:1.2;"/>
   </g>
   <g id="line2d_84">
    <path clip-path="url(#pe2e7bb5a0f)" d="M 611.641646 176.548633 
L 606.374733 174.779103 
L 600.610332 173.059182 
L 594.804151 171.553016 
L 589.753835 170.473492 
L 585.148581 169.742241 
L 581.255237 169.366694 
L 577.888099 169.247715 
L 574.527758 169.325124 
L 570.737166 169.650117 
L 567.403166 170.165833 
L 564.829137 170.743268 
L 562.337655 171.492627 
L 559.998987 172.422445 
L 557.861358 173.548736 
L 556.42955 174.543908 
L 555.41521 175.494403 
L 554.784164 176.495483 
L 554.721395 176.970043 
L 554.90854 177.410376 
L 555.428764 177.786848 
L 556.27461 178.060076 
L 558.062564 178.304836 
L 561.141652 178.423374 
L 566.962102 178.361464 
L 576.859214 178.004711 
L 591.757956 177.211092 
L 603.630473 176.672019 
L 611.549078 176.534396 
L 611.641287 176.534796 
L 611.641287 176.534796 
" style="fill:none;stroke:#000000;stroke-linecap:square;stroke-opacity:0.7;stroke-width:1.2;"/>
   </g>
   <g id="line2d_85">
    <path clip-path="url(#pe2e7bb5a0f)" d="M 611.698784 157.430076 
L 606.306487 155.671904 
L 600.091577 153.869686 
L 593.509769 152.182942 
L 587.650554 150.90486 
L 582.974764 150.103935 
L 579.142132 149.658145 
L 575.365024 149.465933 
L 571.80906 149.560547 
L 568.743354 149.893037 
L 565.740869 150.477499 
L 563.418565 151.132562 
L 561.126069 151.987458 
L 559.114103 152.953596 
L 557.375192 154.017387 
L 555.899088 155.205258 
L 555.034046 156.190754 
L 554.595112 157.062797 
L 554.543809 157.675042 
L 554.765586 158.207734 
L 555.183324 158.602005 
L 555.989317 159.004083 
L 557.472322 159.390532 
L 559.91402 159.695301 
L 563.921716 159.875093 
L 569.706627 159.850406 
L 576.451938 159.588812 
L 585.050929 159.005181 
L 603.130219 157.697141 
L 610.27666 157.422979 
L 611.702237 157.401503 
L 611.702237 157.401503 
" style="fill:none;stroke:#000000;stroke-linecap:square;stroke-opacity:0.7;stroke-width:1.2;"/>
   </g>
   <g id="line2d_86">
    <path clip-path="url(#pe2e7bb5a0f)" d="M 611.590034 138.418215 
L 606.560057 136.770863 
L 599.591309 134.722398 
L 593.613066 133.174719 
L 588.520612 132.061901 
L 583.992138 131.289499 
L 580.127115 130.837321 
L 576.467721 130.623864 
L 573.38877 130.63606 
L 570.134451 130.87194 
L 567.130778 131.324538 
L 564.675813 131.889555 
L 562.232524 132.662795 
L 559.975667 133.619085 
L 558.034387 134.710174 
L 556.576948 135.801524 
L 555.513383 136.912937 
L 555.034982 137.673102 
L 554.799271 138.47765 
L 554.87772 139.071363 
L 555.124629 139.478498 
L 555.605781 139.870864 
L 556.403428 140.226102 
L 557.762349 140.551758 
L 560.076004 140.818238 
L 563.991322 140.985246 
L 570.503839 141.003892 
L 578.373134 140.811034 
L 585.945385 140.387949 
L 596.324145 139.542501 
L 608.896665 138.550474 
L 611.595511 138.396695 
L 611.595511 138.396695 
" style="fill:none;stroke:#000000;stroke-linecap:square;stroke-opacity:0.7;stroke-width:1.2;"/>
   </g>
   <g id="line2d_87">
    <path clip-path="url(#pe2e7bb5a0f)" d="M 611.619649 119.669264 
L 607.556945 118.251445 
L 602.191816 116.604823 
L 596.295648 115.016812 
L 590.319552 113.637194 
L 585.736087 112.778215 
L 581.879323 112.237153 
L 578.145164 111.914033 
L 574.211348 111.826835 
L 570.824123 111.99265 
L 567.77721 112.36611 
L 564.874564 112.958888 
L 562.243337 113.744604 
L 559.889021 114.716507 
L 557.916936 115.830169 
L 556.710626 116.753107 
L 556.025513 117.447015 
L 555.458843 118.265735 
L 555.221308 118.872691 
L 555.175159 119.559015 
L 555.391329 120.172064 
L 555.807017 120.661088 
L 556.316472 121.024476 
L 557.653972 121.589418 
L 559.236303 121.972114 
L 561.534612 122.299356 
L 565.079576 122.55919 
L 570.299393 122.677529 
L 576.122118 122.576128 
L 582.99226 122.219381 
L 592.576095 121.466891 
L 611.622825 119.674544 
L 611.622825 119.674544 
" style="fill:none;stroke:#000000;stroke-linecap:square;stroke-opacity:0.7;stroke-width:1.2;"/>
   </g>
   <g id="line2d_88">
    <path clip-path="url(#pe2e7bb5a0f)" d="M 611.63967 100.117912 
L 606.232132 98.3607 
L 600.351069 96.670212 
L 594.730168 95.264514 
L 589.574302 94.183351 
L 584.851457 93.415594 
L 580.626979 92.965242 
L 577.310994 92.805876 
L 573.416607 92.865938 
L 569.854886 93.168919 
L 566.628886 93.669 
L 563.673928 94.356585 
L 561.217385 95.152116 
L 559.112035 96.072156 
L 557.444346 97.055229 
L 556.285003 97.983801 
L 555.365572 99.0689 
L 554.987407 99.870945 
L 554.917223 100.673952 
L 555.081314 101.170463 
L 555.520494 101.708139 
L 556.106635 102.109164 
L 557.589987 102.69256 
L 559.742101 103.178303 
L 562.775908 103.610938 
L 567.229204 104.013169 
L 572.500031 104.252405 
L 576.879469 104.256585 
L 581.656417 104.051818 
L 586.830508 103.613531 
L 593.301747 102.836363 
L 603.205881 101.388016 
L 611.636685 100.110655 
L 611.636685 100.110655 
" style="fill:none;stroke:#000000;stroke-linecap:square;stroke-opacity:0.7;stroke-width:1.2;"/>
   </g>
   <g id="line2d_89">
    <path clip-path="url(#pe2e7bb5a0f)" d="M 611.765976 80.784175 
L 603.068651 78.354482 
L 595.872067 76.558401 
L 590.694402 75.479282 
L 585.670231 74.68173 
L 581.485353 74.260449 
L 577.624527 74.104368 
L 574.195227 74.163819 
L 570.02526 74.482838 
L 566.488239 74.97879 
L 563.58967 75.579289 
L 560.996461 76.324059 
L 558.900629 77.139586 
L 557.369881 77.926942 
L 555.904727 78.961855 
L 555.019785 79.921144 
L 554.623944 80.749498 
L 554.596667 81.435281 
L 554.818906 81.984028 
L 555.194519 82.425514 
L 555.912738 82.943513 
L 557.387738 83.610922 
L 559.715232 84.301607 
L 562.806031 84.948631 
L 566.645045 85.523331 
L 570.618769 85.906682 
L 574.61203 86.067581 
L 578.306612 86.005764 
L 582.34311 85.723518 
L 587.204503 85.145617 
L 593.223104 84.186583 
L 603.073396 82.342284 
L 611.771105 80.716727 
L 611.771105 80.716727 
" style="fill:none;stroke:#000000;stroke-linecap:square;stroke-opacity:0.7;stroke-width:1.2;"/>
   </g>
   <g id="line2d_90">
    <path clip-path="url(#pe2e7bb5a0f)" d="M 611.611792 62.778235 
L 606.639668 60.966447 
L 601.199373 59.218689 
L 595.657607 57.688528 
L 590.454053 56.505882 
L 585.891889 55.699869 
L 581.30027 55.140119 
L 577.034859 54.873231 
L 573.196157 54.856279 
L 569.972734 55.020881 
L 566.809278 55.37296 
L 563.979709 55.893647 
L 561.807316 56.468874 
L 559.458165 57.334358 
L 558.012414 58.057027 
L 556.612057 59.000283 
L 555.598934 60.002449 
L 555.167112 60.655796 
L 554.869194 61.457795 
L 554.819879 62.187728 
L 555.053232 63.062461 
L 555.510055 63.782695 
L 556.225388 64.485577 
L 557.089097 65.083839 
L 558.749754 65.892508 
L 560.692982 66.546015 
L 563.078703 67.109757 
L 566.3512 67.626548 
L 570.017001 67.978699 
L 574.085438 68.16154 
L 578.696181 68.125856 
L 582.780548 67.877361 
L 587.665918 67.330985 
L 592.665456 66.543828 
L 599.857516 65.162907 
L 611.612007 62.706753 
L 611.612007 62.706753 
" style="fill:none;stroke:#000000;stroke-linecap:square;stroke-opacity:0.7;stroke-width:1.2;"/>
   </g>
   <g id="line2d_91">
    <path clip-path="url(#pe2e7bb5a0f)" d="M 675.441163 233.629191 
L 671.245305 231.96069 
L 666.154174 230.139578 
L 661.145662 228.581511 
L 656.602336 227.407943 
L 652.872495 226.639996 
L 648.571115 225.999178 
L 644.514112 225.658544 
L 640.618565 225.586293 
L 637.316271 225.720271 
L 633.960212 226.043816 
L 630.570102 226.598407 
L 627.643401 227.330424 
L 625.650473 228.020726 
L 624.17941 228.668142 
L 622.48916 229.608227 
L 620.828605 230.817987 
L 619.434053 232.182159 
L 618.60684 233.345498 
L 618.359843 234.117264 
L 618.476453 234.486275 
L 618.79883 234.700329 
L 619.350986 234.809727 
L 620.964588 234.767852 
L 624.680755 234.317572 
L 633.059976 233.298103 
L 638.800192 232.841158 
L 644.536014 232.602397 
L 651.83141 232.544678 
L 659.829584 232.720141 
L 668.802621 233.140088 
L 675.435084 233.594582 
L 675.435084 233.594582 
" style="fill:none;stroke:#000000;stroke-linecap:square;stroke-opacity:0.7;stroke-width:1.2;"/>
   </g>
   <g id="line2d_92">
    <path clip-path="url(#pe2e7bb5a0f)" d="M 675.235766 215.031414 
L 671.407962 213.438377 
L 666.07281 211.478243 
L 660.355115 209.618894 
L 653.417562 207.60902 
L 647.235634 206.028479 
L 642.65703 205.073282 
L 639.41669 204.598547 
L 636.346948 204.37822 
L 633.792586 204.414472 
L 631.077325 204.723606 
L 628.88534 205.222247 
L 626.911047 205.908054 
L 625.442287 206.597309 
L 623.675063 207.678898 
L 622.034635 208.995411 
L 620.733896 210.32314 
L 619.54078 211.870335 
L 618.748182 213.249255 
L 618.341498 214.428778 
L 618.30218 214.979802 
L 618.424951 215.459391 
L 618.718415 215.821797 
L 619.176649 216.075947 
L 619.932009 216.257913 
L 621.117554 216.333813 
L 623.366913 216.239095 
L 628.573902 215.719685 
L 641.876811 214.33674 
L 648.570882 213.853843 
L 654.35739 213.655772 
L 659.433427 213.696896 
L 665.000746 213.9831 
L 671.065161 214.537558 
L 675.244365 215.036983 
L 675.244365 215.036983 
" style="fill:none;stroke:#000000;stroke-linecap:square;stroke-opacity:0.7;stroke-width:1.2;"/>
   </g>
   <g id="line2d_93">
    <path clip-path="url(#pe2e7bb5a0f)" d="M 675.314464 195.723249 
L 671.199471 194.041969 
L 665.727017 192.049507 
L 659.936085 190.173645 
L 654.603312 188.670474 
L 649.978475 187.577747 
L 646.113238 186.853851 
L 642.627133 186.389082 
L 638.987651 186.145024 
L 635.731116 186.185207 
L 632.728536 186.485265 
L 630.339927 186.940794 
L 628.430426 187.471426 
L 626.210239 188.316651 
L 624.077182 189.422505 
L 622.44899 190.52225 
L 621.094222 191.667594 
L 619.762976 193.103993 
L 618.794325 194.563132 
L 618.382471 195.72351 
L 618.382513 196.286956 
L 618.557899 196.722221 
L 618.939405 197.08577 
L 619.654539 197.387258 
L 620.966747 197.59334 
L 623.333649 197.631199 
L 626.982433 197.444256 
L 637.02515 196.624987 
L 648.894824 195.716045 
L 656.122404 195.385422 
L 662.995828 195.297931 
L 669.919726 195.440474 
L 675.314443 195.708722 
L 675.314443 195.708722 
" style="fill:none;stroke:#000000;stroke-linecap:square;stroke-opacity:0.7;stroke-width:1.2;"/>
   </g>
   <g id="line2d_94">
    <path clip-path="url(#pe2e7bb5a0f)" d="M 675.445793 177.103115 
L 672.653141 175.6307 
L 668.821802 173.896407 
L 664.691444 172.28619 
L 659.614761 170.571912 
L 654.171505 168.992116 
L 649.083824 167.752814 
L 644.498732 166.87833 
L 641.1192 166.431849 
L 638.114557 166.22364 
L 635.249685 166.239236 
L 632.737953 166.469667 
L 630.355423 166.918837 
L 628.15007 167.576909 
L 626.305943 168.342527 
L 624.223129 169.498541 
L 622.685283 170.606804 
L 621.624383 171.544037 
L 620.473963 172.808651 
L 619.637577 174.069034 
L 619.205168 175.208098 
L 619.165184 175.977644 
L 619.444224 176.729782 
L 619.878646 177.198013 
L 620.466174 177.570436 
L 621.327597 177.910148 
L 622.923551 178.260159 
L 625.29215 178.481832 
L 628.870716 178.520036 
L 634.322451 178.299481 
L 662.152992 176.855304 
L 669.148045 176.885751 
L 675.440428 177.084776 
L 675.440428 177.084776 
" style="fill:none;stroke:#000000;stroke-linecap:square;stroke-opacity:0.7;stroke-width:1.2;"/>
   </g>
   <g id="line2d_95">
    <path clip-path="url(#pe2e7bb5a0f)" d="M 675.446141 157.712628 
L 671.983013 156.249247 
L 667.30926 154.522638 
L 662.260565 152.89702 
L 656.507019 151.281467 
L 650.685552 149.891693 
L 646.132543 149.02747 
L 642.295626 148.518673 
L 638.969445 148.291215 
L 635.96214 148.29354 
L 633.404165 148.479587 
L 630.781877 148.879322 
L 628.285652 149.497538 
L 626.067948 150.28745 
L 624.293191 151.124002 
L 622.378182 152.29168 
L 620.904633 153.449016 
L 619.639711 154.733551 
L 618.911304 155.718877 
L 618.383513 156.813031 
L 618.259019 157.522242 
L 618.357832 158.100294 
L 618.588165 158.492333 
L 619.047503 158.890885 
L 619.719237 159.218474 
L 620.705282 159.500542 
L 622.69602 159.793995 
L 625.656337 159.968215 
L 630.257108 159.998897 
L 636.707338 159.811249 
L 645.158834 159.319663 
L 667.023111 157.899219 
L 674.386786 157.684856 
L 675.442753 157.672979 
L 675.442753 157.672979 
" style="fill:none;stroke:#000000;stroke-linecap:square;stroke-opacity:0.7;stroke-width:1.2;"/>
   </g>
   <g id="line2d_96">
    <path clip-path="url(#pe2e7bb5a0f)" d="M 675.490909 138.179883 
L 670.116583 136.338503 
L 663.605007 134.33868 
L 657.905648 132.8255 
L 653.140066 131.786206 
L 649.117962 131.117813 
L 645.312833 130.70709 
L 641.8343 130.552031 
L 637.965441 130.634634 
L 634.221213 130.949702 
L 630.676717 131.461206 
L 627.508814 132.150766 
L 625.152205 132.885764 
L 622.995763 133.824253 
L 621.640929 134.610208 
L 620.336362 135.587966 
L 619.370672 136.552034 
L 618.710377 137.505895 
L 618.429907 138.317245 
L 618.474151 138.927453 
L 618.66748 139.292783 
L 619.127432 139.703189 
L 619.621397 139.960844 
L 621.09483 140.394669 
L 623.071218 140.702275 
L 626.688686 140.996355 
L 631.927454 141.173265 
L 638.381534 141.153085 
L 644.753745 140.905388 
L 651.566582 140.426244 
L 661.775225 139.456777 
L 675.486396 138.116144 
L 675.486396 138.116144 
" style="fill:none;stroke:#000000;stroke-linecap:square;stroke-opacity:0.7;stroke-width:1.2;"/>
   </g>
   <g id="line2d_97">
    <path clip-path="url(#pe2e7bb5a0f)" d="M 675.450008 119.447521 
L 671.87256 117.820382 
L 667.247285 115.981574 
L 661.935197 114.129384 
L 656.219031 112.384342 
L 650.911066 111.018183 
L 646.774963 110.192658 
L 643.591472 109.750067 
L 640.301216 109.503258 
L 637.125891 109.493251 
L 633.986714 109.734178 
L 631.152121 110.203999 
L 628.726798 110.834591 
L 626.483 111.646494 
L 624.316613 112.690419 
L 622.30103 113.965711 
L 620.807642 115.186228 
L 619.567773 116.511003 
L 618.788503 117.680055 
L 618.359666 118.808714 
L 618.315725 119.646942 
L 618.480575 120.228628 
L 618.800929 120.726319 
L 619.321435 121.199842 
L 620.164751 121.68112 
L 621.622062 122.195545 
L 623.788032 122.65335 
L 626.782402 123.013393 
L 630.87091 123.235707 
L 635.408064 123.240866 
L 640.308524 123.023388 
L 646.52649 122.508268 
L 656.240061 121.436802 
L 671.243507 119.777324 
L 675.454531 119.407652 
L 675.454531 119.407652 
" style="fill:none;stroke:#000000;stroke-linecap:square;stroke-opacity:0.7;stroke-width:1.2;"/>
   </g>
   <g id="line2d_98">
    <path clip-path="url(#pe2e7bb5a0f)" d="M 675.27959 100.627737 
L 670.564989 98.843365 
L 664.95257 96.9525 
L 658.179324 94.90939 
L 650.483854 92.824904 
L 644.815942 91.493288 
L 641.194841 90.820078 
L 637.933304 90.416549 
L 634.780931 90.28037 
L 632.110681 90.405253 
L 629.890755 90.705846 
L 627.541459 91.256611 
L 625.548297 91.959678 
L 623.698273 92.873899 
L 622.180145 93.893054 
L 620.826301 95.119429 
L 619.741966 96.482708 
L 619.024292 97.800566 
L 618.624395 99.019676 
L 618.492411 100.213355 
L 618.608666 101.181687 
L 618.907912 102.003897 
L 619.282656 102.610582 
L 619.978122 103.349539 
L 620.809873 103.948859 
L 622.261172 104.656815 
L 624.05144 105.234011 
L 626.512469 105.75121 
L 629.42164 106.124925 
L 633.096772 106.358872 
L 637.046365 106.386222 
L 641.161127 106.208395 
L 645.950004 105.783784 
L 651.748261 105.038151 
L 658.688263 103.917714 
L 667.704365 102.216123 
L 675.277519 100.634385 
L 675.277519 100.634385 
" style="fill:none;stroke:#000000;stroke-linecap:square;stroke-opacity:0.7;stroke-width:1.2;"/>
   </g>
   <g id="line2d_99">
    <path clip-path="url(#pe2e7bb5a0f)" d="M 675.446935 81.193564 
L 670.57384 79.467322 
L 664.786761 77.64651 
L 659.194941 76.102799 
L 653.626039 74.799863 
L 649.046332 73.959342 
L 645.836139 73.540664 
L 642.182395 73.28341 
L 638.75027 73.276602 
L 635.089628 73.504322 
L 631.190596 73.990545 
L 627.868881 74.637454 
L 625.477391 75.301903 
L 623.487124 76.056647 
L 621.759879 76.94731 
L 620.429622 77.878628 
L 619.635647 78.611627 
L 618.805375 79.689434 
L 618.377517 80.704543 
L 618.321008 81.611328 
L 618.553695 82.345344 
L 618.970942 82.937566 
L 619.805632 83.641767 
L 621.084313 84.334467 
L 622.85239 84.993067 
L 624.957569 85.556464 
L 628.198866 86.154073 
L 631.350249 86.514031 
L 635.015459 86.705527 
L 638.991956 86.6626 
L 643.002534 86.388114 
L 647.817396 85.825321 
L 654.570193 84.780604 
L 675.448381 81.177129 
L 675.448381 81.177129 
" style="fill:none;stroke:#000000;stroke-linecap:square;stroke-opacity:0.7;stroke-width:1.2;"/>
   </g>
   <g id="line2d_100">
    <path clip-path="url(#pe2e7bb5a0f)" d="M 675.410037 61.890525 
L 669.925306 59.897929 
L 663.60179 57.812312 
L 657.585907 56.050508 
L 652.723924 54.837812 
L 648.68978 54.027783 
L 644.852973 53.477407 
L 641.527592 53.218084 
L 638.608163 53.180385 
L 635.193527 53.367398 
L 631.795223 53.795885 
L 628.795151 54.390699 
L 626.251166 55.100151 
L 623.97475 55.970875 
L 622.288176 56.842063 
L 620.745778 57.922731 
L 619.667714 58.971687 
L 618.93242 59.989104 
L 618.488888 60.945889 
L 618.27616 62.016849 
L 618.350854 62.91645 
L 618.583991 63.595867 
L 619.018401 64.307374 
L 619.718213 65.053447 
L 620.611607 65.734333 
L 622.022429 66.533006 
L 623.746189 67.273099 
L 625.959166 68.005218 
L 628.638769 68.670447 
L 631.618789 69.184158 
L 634.969955 69.504522 
L 638.292954 69.566553 
L 641.69749 69.387705 
L 645.167973 68.989612 
L 649.666855 68.221329 
L 655.225527 67.003285 
L 663.82011 64.829218 
L 675.408013 61.898532 
L 675.408013 61.898532 
" style="fill:none;stroke:#000000;stroke-linecap:square;stroke-opacity:0.7;stroke-width:1.2;"/>
   </g>
  </g>
 </g>
 <defs>
  <clipPath id="pe2e7bb5a0f">
   <rect height="262.08" width="694.08" x="12.96" y="12.96"/>
  </clipPath>
 </defs>
</svg>
