<svg viewBox="0 0 1496 400" xmlns="http://www.w3.org/2000/svg"><g><g><g><g><g><line x1="60" y1="378" x2="55" y2="378" style="visibility: inherit;" fill="rgb(0, 0, 0)" stroke="rgb(204, 204, 204)" stroke-width="1px"></line><line x1="60" y1="348.92307692307696" x2="55" y2="348.92307692307696" style="visibility: inherit;" fill="rgb(0, 0, 0)" stroke="rgb(204, 204, 204)" stroke-width="1px"></line><line x1="60" y1="319.84615384615387" x2="55" y2="319.84615384615387" style="visibility: inherit;" fill="rgb(0, 0, 0)" stroke="rgb(204, 204, 204)" stroke-width="1px"></line><line x1="60" y1="290.7692307692308" x2="55" y2="290.7692307692308" style="visibility: inherit;" fill="rgb(0, 0, 0)" stroke="rgb(204, 204, 204)" stroke-width="1px"></line><line x1="60" y1="261.6923076923077" x2="55" y2="261.6923076923077" style="visibility: inherit;" fill="rgb(0, 0, 0)" stroke="rgb(204, 204, 204)" stroke-width="1px"></line><line x1="60" y1="232.61538461538464" x2="55" y2="232.61538461538464" style="visibility: inherit;" fill="rgb(0, 0, 0)" stroke="rgb(204, 204, 204)" stroke-width="1px"></line><line x1="60" y1="203.53846153846158" x2="55" y2="203.53846153846158" style="visibility: inherit;" fill="rgb(0, 0, 0)" stroke="rgb(204, 204, 204)" stroke-width="1px"></line><line x1="60" y1="174.46153846153848" x2="55" y2="174.46153846153848" style="visibility: inherit;" fill="rgb(0, 0, 0)" stroke="rgb(204, 204, 204)" stroke-width="1px"></line><line x1="60" y1="145.38461538461542" x2="55" y2="145.38461538461542" style="visibility: inherit;" fill="rgb(0, 0, 0)" stroke="rgb(204, 204, 204)" stroke-width="1px"></line><line x1="60" y1="116.30769230769232" x2="55" y2="116.30769230769232" style="visibility: inherit;" fill="rgb(0, 0, 0)" stroke="rgb(204, 204, 204)" stroke-width="1px"></line><line x1="60" y1="87.23076923076925" x2="55" y2="87.23076923076925" style="visibility: inherit;" fill="rgb(0, 0, 0)" stroke="rgb(204, 204, 204)" stroke-width="1px"></line><line x1="60" y1="58.15384615384616" x2="55" y2="58.15384615384616" style="visibility: inherit;" fill="rgb(0, 0, 0)" stroke="rgb(204, 204, 204)" stroke-width="1px"></line><line x1="60" y1="29.076923076923098" x2="55" y2="29.076923076923098" style="visibility: inherit;" fill="rgb(0, 0, 0)" stroke="rgb(204, 204, 204)" stroke-width="1px"></line><line x1="60" y1="0" x2="55" y2="0" style="visibility: inherit;" fill="rgb(0, 0, 0)" stroke="rgb(204, 204, 204)" stroke-width="1px"></line></g><g transform="translate(50, 0)"><text x="0" y="378" dx="0em" dy="0.3em" style="text-anchor: end; visibility: hidden; font-family: Roboto, sans-serif; font-size: 12px; font-weight: 200;" fill="rgb(50, 49, 63)" stroke="none" stroke-width="1px">-0.24</text><text x="0" y="348.92307692307696" dx="0em" dy="0.3em" style="text-anchor: end; visibility: inherit; font-family: Roboto, sans-serif; font-size: 12px; font-weight: 200;" fill="rgb(50, 49, 63)" stroke="none" stroke-width="1px">-0.22</text><text x="0" y="319.84615384615387" dx="0em" dy="0.3em" style="text-anchor: end; visibility: inherit; font-family: Roboto, sans-serif; font-size: 12px; font-weight: 200;" fill="rgb(50, 49, 63)" stroke="none" stroke-width="1px">-0.2</text><text x="0" y="290.7692307692308" dx="0em" dy="0.3em" style="text-anchor: end; visibility: inherit; font-family: Roboto, sans-serif; font-size: 12px; font-weight: 200;" fill="rgb(50, 49, 63)" stroke="none" stroke-width="1px">-0.18</text><text x="0" y="261.6923076923077" dx="0em" dy="0.3em" style="text-anchor: end; visibility: inherit; font-family: Roboto, sans-serif; font-size: 12px; font-weight: 200;" fill="rgb(50, 49, 63)" stroke="none" stroke-width="1px">-0.16</text><text x="0" y="232.61538461538464" dx="0em" dy="0.3em" style="text-anchor: end; visibility: inherit; font-family: Roboto, sans-serif; font-size: 12px; font-weight: 200;" fill="rgb(50, 49, 63)" stroke="none" stroke-width="1px">-0.14</text><text x="0" y="203.53846153846158" dx="0em" dy="0.3em" style="text-anchor: end; visibility: inherit; font-family: Roboto, sans-serif; font-size: 12px; font-weight: 200;" fill="rgb(50, 49, 63)" stroke="none" stroke-width="1px">-0.12</text><text x="0" y="174.46153846153848" dx="0em" dy="0.3em" style="text-anchor: end; visibility: inherit; font-family: Roboto, sans-serif; font-size: 12px; font-weight: 200;" fill="rgb(50, 49, 63)" stroke="none" stroke-width="1px">-0.1</text><text x="0" y="145.38461538461542" dx="0em" dy="0.3em" style="text-anchor: end; visibility: inherit; font-family: Roboto, sans-serif; font-size: 12px; font-weight: 200;" fill="rgb(50, 49, 63)" stroke="none" stroke-width="1px">-0.08</text><text x="0" y="116.30769230769232" dx="0em" dy="0.3em" style="text-anchor: end; visibility: inherit; font-family: Roboto, sans-serif; font-size: 12px; font-weight: 200;" fill="rgb(50, 49, 63)" stroke="none" stroke-width="1px">-0.06</text><text x="0" y="87.23076923076925" dx="0em" dy="0.3em" style="text-anchor: end; visibility: inherit; font-family: Roboto, sans-serif; font-size: 12px; font-weight: 200;" fill="rgb(50, 49, 63)" stroke="none" stroke-width="1px">-0.04</text><text x="0" y="58.15384615384616" dx="0em" dy="0.3em" style="text-anchor: end; visibility: inherit; font-family: Roboto, sans-serif; font-size: 12px; font-weight: 200;" fill="rgb(50, 49, 63)" stroke="none" stroke-width="1px">-0.02</text><text x="0" y="29.076923076923098" dx="0em" dy="0.3em" style="text-anchor: end; visibility: inherit; font-family: Roboto, sans-serif; font-size: 12px; font-weight: 200;" fill="rgb(50, 49, 63)" stroke="none" stroke-width="1px">0</text><text x="0" y="0" dx="0em" dy="0.3em" style="text-anchor: end; visibility: hidden; font-family: Roboto, sans-serif; font-size: 12px; font-weight: 200;" fill="rgb(50, 49, 63)" stroke="none" stroke-width="1px">0.02</text></g><line x1="60" y1="0" x2="60" y2="378" fill="rgb(0, 0, 0)" stroke="rgb(204, 204, 204)" stroke-width="1px"></line></g></g><g transform="translate(60, 0)" clip-path="url(#clip_0)"><clipPath id="clip_0"><rect width="1436" height="378"></rect></clipPath><g><g><g><line x1="0" y1="0" x2="0" y2="378" fill="rgb(0, 0, 0)" stroke="rgb(60, 60, 60)" stroke-width="1px" opacity="0.25"></line><line x1="119.66666666666666" y1="0" x2="119.66666666666666" y2="378" fill="rgb(0, 0, 0)" stroke="rgb(60, 60, 60)" stroke-width="1px" opacity="0.25"></line><line x1="239.33333333333331" y1="0" x2="239.33333333333331" y2="378" fill="rgb(0, 0, 0)" stroke="rgb(60, 60, 60)" stroke-width="1px" opacity="0.25"></line><line x1="359" y1="0" x2="359" y2="378" fill="rgb(0, 0, 0)" stroke="rgb(60, 60, 60)" stroke-width="1px" opacity="0.25"></line><line x1="478.66666666666663" y1="0" x2="478.66666666666663" y2="378" fill="rgb(0, 0, 0)" stroke="rgb(60, 60, 60)" stroke-width="1px" opacity="0.25"></line><line x1="598.3333333333334" y1="0" x2="598.3333333333334" y2="378" fill="rgb(0, 0, 0)" stroke="rgb(60, 60, 60)" stroke-width="1px" opacity="0.25"></line><line x1="718" y1="0" x2="718" y2="378" fill="rgb(0, 0, 0)" stroke="rgb(60, 60, 60)" stroke-width="1px" opacity="0.25"></line><line x1="837.6666666666667" y1="0" x2="837.6666666666667" y2="378" fill="rgb(0, 0, 0)" stroke="rgb(60, 60, 60)" stroke-width="1px" opacity="0.25"></line><line x1="957.3333333333333" y1="0" x2="957.3333333333333" y2="378" fill="rgb(0, 0, 0)" stroke="rgb(60, 60, 60)" stroke-width="1px" opacity="0.25"></line><line x1="1077" y1="0" x2="1077" y2="378" fill="rgb(0, 0, 0)" stroke="rgb(60, 60, 60)" stroke-width="1px" opacity="0.25"></line><line x1="1196.6666666666667" y1="0" x2="1196.6666666666667" y2="378" fill="rgb(0, 0, 0)" stroke="rgb(60, 60, 60)" stroke-width="1px" opacity="0.25"></line><line x1="1316.3333333333333" y1="0" x2="1316.3333333333333" y2="378" fill="rgb(0, 0, 0)" stroke="rgb(60, 60, 60)" stroke-width="1px" opacity="0.25"></line><line x1="1436" y1="0" x2="1436" y2="378" fill="rgb(0, 0, 0)" stroke="rgb(60, 60, 60)" stroke-width="1px" opacity="0.25"></line></g><g><line x1="0" y1="378" x2="1436" y2="378" fill="rgb(0, 0, 0)" stroke="rgb(60, 60, 60)" stroke-width="1px" opacity="0.25"></line><line x1="0" y1="348.92307692307696" x2="1436" y2="348.92307692307696" fill="rgb(0, 0, 0)" stroke="rgb(60, 60, 60)" stroke-width="1px" opacity="0.25"></line><line x1="0" y1="319.84615384615387" x2="1436" y2="319.84615384615387" fill="rgb(0, 0, 0)" stroke="rgb(60, 60, 60)" stroke-width="1px" opacity="0.25"></line><line x1="0" y1="290.7692307692308" x2="1436" y2="290.7692307692308" fill="rgb(0, 0, 0)" stroke="rgb(60, 60, 60)" stroke-width="1px" opacity="0.25"></line><line x1="0" y1="261.6923076923077" x2="1436" y2="261.6923076923077" fill="rgb(0, 0, 0)" stroke="rgb(60, 60, 60)" stroke-width="1px" opacity="0.25"></line><line x1="0" y1="232.61538461538464" x2="1436" y2="232.61538461538464" fill="rgb(0, 0, 0)" stroke="rgb(60, 60, 60)" stroke-width="1px" opacity="0.25"></line><line x1="0" y1="203.53846153846158" x2="1436" y2="203.53846153846158" fill="rgb(0, 0, 0)" stroke="rgb(60, 60, 60)" stroke-width="1px" opacity="0.25"></line><line x1="0" y1="174.46153846153848" x2="1436" y2="174.46153846153848" fill="rgb(0, 0, 0)" stroke="rgb(60, 60, 60)" stroke-width="1px" opacity="0.25"></line><line x1="0" y1="145.38461538461542" x2="1436" y2="145.38461538461542" fill="rgb(0, 0, 0)" stroke="rgb(60, 60, 60)" stroke-width="1px" opacity="0.25"></line><line x1="0" y1="116.30769230769232" x2="1436" y2="116.30769230769232" fill="rgb(0, 0, 0)" stroke="rgb(60, 60, 60)" stroke-width="1px" opacity="0.25"></line><line x1="0" y1="87.23076923076925" x2="1436" y2="87.23076923076925" fill="rgb(0, 0, 0)" stroke="rgb(60, 60, 60)" stroke-width="1px" opacity="0.25"></line><line x1="0" y1="58.15384615384616" x2="1436" y2="58.15384615384616" fill="rgb(0, 0, 0)" stroke="rgb(60, 60, 60)" stroke-width="1px" opacity="0.25"></line><line x1="0" y1="29.076923076923098" x2="1436" y2="29.076923076923098" fill="rgb(0, 0, 0)" stroke="rgb(60, 60, 60)" stroke-width="1px" opacity="0.25"></line><line x1="0" y1="0" x2="1436" y2="0" fill="rgb(0, 0, 0)" stroke="rgb(60, 60, 60)" stroke-width="1px" opacity="0.25"></line></g></g></g><g><g><line x1="0" y1="29.076923076923098" x2="1436" y2="29.076923076923098" fill="rgb(0, 0, 0)" stroke="rgb(153, 153, 153)" stroke-width="1.5px"></line></g></g><g><g><line x1="119.66666666666666" y1="0" x2="119.66666666666666" y2="378" fill="rgb(0, 0, 0)" stroke="rgb(153, 153, 153)" stroke-width="1.5px"></line></g></g><g><g><g><g><g><path stroke="rgb(51, 187, 238)" stroke-width="2px" d="M122.65833333333333,225.31806344252368L123.25666666666666,227.55309457045337L125.64999999999999,185.5644576732929L126.24833333333333,198.15591870821444L127.445,193.26852123553937L128.04333333333335,174.2693701524001L128.64166666666668,162.95209869971646L129.83833333333334,170.54732234661398L130.43666666666667,137.59239842341498L131.035,148.77864602895886L131.63333333333333,141.521727341872L134.02666666666667,126.33474628741926L139.41166666666666,148.795283977802L140.01,153.11144520686224L141.20666666666665,334.3201987926777L143.00166666666667,184.86219758253833L143.6,148.99008662884054L144.79666666666665,164.71364153348483L145.99333333333334,190.43452394925635L146.59166666666667,158.39607370816745L147.78833333333333,169.0041525914119L148.98499999999999,206.5206474891076L149.58333333333334,145.2326831817627L151.37833333333333,153.2729719602145L151.97666666666666,160.64635628920337L152.575,176.24096709031326L153.17333333333335,175.14979494535007L153.77166666666668,181.14777550330533L155.56666666666666,201.21660804748535L156.165,158.7593355912429L157.36166666666668,142.67806478647088L158.55833333333334,165.08660888671875L159.15666666666667,161.00684518080493L159.755,191.3579301100511L160.35333333333332,172.28044201777533L162.14833333333334,183.76270646315356L162.74666666666667,165.75212684044473L163.345,152.95199819711542L163.94333333333333,166.43289624727694L165.14000000000001,158.73229892437277L166.935,167.60379189711352L169.92666666666668,167.77363762488736L170.525,183.6247501373291L171.12333333333333,194.38950303884656L171.72166666666666,144.16854770366965L172.32,192.71946892371548L172.91833333333335,203.06272712120645L175.91,205.4606714982253L180.69666666666666,163.78052990253155L182.49166666666665,172.26935005187988L183.09,154.61094034635104L187.2783333333333,169.0977410536546L189.07333333333332,168.31159797081582L190.27,146.62472490163952L190.8683333333333,189.24699035057657L191.46666666666667,160.36697739821216L193.86,276.4575722034161L194.45833333333331,139.85723920968866L195.05666666666667,163.3070416083703L196.85166666666666,185.93118579571066L197.45000000000002,180.88919404836804L199.245,163.16700553894043L201.63833333333332,162.8592034853422L202.83499999999998,183.34814423781177L204.03166666666667,178.72903369023254L204.63,162.45711972163275L205.22833333333332,178.89887941800632L205.82666666666668,177.57338949350213L208.22,207.5605192918044L209.41666666666669,167.3576889038086L211.21166666666667,173.21355364872863L211.81,170.65893525343677L212.40833333333333,181.74535516592175L213.605,186.1142032329853L214.20333333333335,158.60196832510144L214.80166666666668,155.85254727877108L216.5966666666667,150.49027501619784L217.79333333333335,200.29874786963833L218.39166666666665,182.04622474083536L219.58833333333334,166.5271779573881L220.18666666666664,189.48893385667068L221.98166666666665,174.41321908510653L224.97333333333336,162.66232109069824L225.57166666666666,152.49306810819186L226.17,189.04664171659033L227.36666666666665,166.8835073617789L227.965,153.69827952751749L229.16166666666666,183.94711039616516L230.35833333333335,255.03482657212479L230.95666666666665,141.60318396641662L231.555,190.12810839139502L232.1533333333333,155.81303215026855L233.35,166.89737231914816L233.94833333333332,178.83232762263373L238.13666666666666,183.45837064889764L240.53,154.66640017582824L242.92333333333332,159.36384773254395L243.52166666666668,154.62064581650955L244.12,148.9789946629451L246.51333333333332,160.91533646216763L248.30833333333334,165.08106290377108L250.10333333333332,181.22021990555984L250.70166666666668,195.230412703294L252.49666666666667,185.85562177804803L253.095,158.23731994628906L254.29166666666669,183.5845417609582L254.89,152.25875032865085L255.48833333333334,145.4066883967473L256.685,183.09649526155917L257.28333333333336,142.49712709280163L258.48,165.92266581608703L259.0783333333333,167.11019941476678L259.6766666666667,159.20370747492865L261.4716666666667,157.75308631016662L263.26666666666665,140.36885613661548L266.2583333333333,153.56378944103537L267.455,163.4921387892503L268.65166666666664,175.27319306593677L269.25,161.95243527339056L272.2416666666667,186.8746961446909L274.03666666666663,159.64738611074597L274.635,176.35535298860995L275.23333333333335,150.9329137802124L275.83166666666665,186.6244336641752L277.0283333333333,175.78550324073208L279.4216666666667,161.21828578068664L280.61833333333334,176.7609029916617L281.815,165.30359546954816L283.01166666666666,138.7750792870155L286.00333333333333,161.91811950390158L287.2,162.32262963515063L289.5933333333333,167.58022146958572L292.585,163.2158795136672L293.7816666666667,172.24162013714133L294.38,193.2983308938834L296.175,186.1402000280527L297.37166666666667,149.54884441082297L297.96999999999997,150.51523193946255L298.5683333333333,167.33758471562317L299.765,149.03549436422497L300.36333333333334,167.05612608102655L300.9616666666667,168.49461540809048L303.355,169.98821794069735L303.9533333333333,157.05949181776782L305.15,151.94193605276257L306.945,178.20840454101562L309.33833333333337,189.44872548029974L309.93666666666667,181.83790375636175L310.535,166.86305654965915L311.1333333333333,168.46203275827264L312.33,173.81009343954236L314.125,132.2744940244235L314.72333333333336,173.3359118975126L315.32166666666666,161.7101451433622L317.1166666666667,195.73301740793084L317.715,175.49711212745083L318.91166666666663,175.9706004216121L322.50166666666667,159.04148747370795L323.6983333333333,148.76235470404995L325.49333333333334,169.75078054574823L326.09166666666664,166.28176821195163L327.2883333333333,171.89603607471173L327.88666666666666,174.63991113809442L330.87833333333333,160.12087440490723L331.4766666666667,175.33211913475625L332.67333333333335,152.75476917853726L333.87,191.61616494105414L334.4683333333333,194.1711299602802L335.06666666666666,166.09597778320312L336.8616666666667,169.5573643904466L337.46,186.78873340900128L339.255,167.50500407585733L339.85333333333335,149.87709727654092L341.05,142.7470429493831L341.6483333333333,167.76878488980807L342.84499999999997,163.67203661111688L345.23833333333334,174.9952006706825L345.8366666666667,202.151799422044L346.435,158.83593948070822L347.63166666666666,171.20244158231296L348.23,165.36772089738113L350.025,168.57260579329272L350.62333333333333,163.37186028407172L351.2216666666667,190.6837465579693L351.82,166.02630637242248L353.01666666666665,162.89698549417352L353.615,173.67594997699445L354.21333333333337,138.85168317648083L354.81166666666667,164.22420853834888L360.1966666666667,170.20312477992132L360.79499999999996,173.7473545074463L361.9916666666667,160.77980650388278L363.7866666666667,155.32498565086954L367.97499999999997,155.47438056652365L368.5733333333333,145.8812165627113L370.9666666666667,168.2349940813505L371.565,158.10490960341235L372.1633333333333,172.19898539323074L373.36,144.55226039886475L374.5566666666666,165.3975305557251L376.95,144.65278133979214L382.335,150.04832950005166L382.93333333333334,162.76180215982293L383.5316666666667,177.6354351777297L384.13,176.63369200779846L385.32666666666665,189.56241813072793L385.925,160.01619397676913L387.72,161.17218479743374L389.515,132.7396633441632L393.7033333333333,159.49868444296033L394.3016666666667,169.4915058429425L394.90000000000003,196.17461630014276L395.4983333333333,160.61827975053055L396.695,162.88000092139615L397.29333333333335,181.21536717048062L397.8916666666667,192.34164883540228L399.0883333333333,187.01681195772616L399.68666666666667,170.17435499338006L400.285,156.92846797062805L401.4816666666667,159.2934830738948L402.6783333333333,174.6312455397386L403.27666666666664,150.53013676863452L405.66999999999996,164.8512512353751L409.8583333333333,210.78966786311224L411.65333333333336,162.85435075026294L412.2516666666667,190.75411121661847L413.4483333333333,165.8238779948308L414.645,195.03664992405817L416.44,144.8673415550819L423.02166666666665,182.05731670673077L424.81666666666666,165.45714987241305L425.415,186.3034599010761L426.0133333333334,146.5481210121742L427.21,145.01777634253872L428.4066666666667,157.65776472825272L429.005,171.11023961580722L430.20166666666665,168.3583922019372L433.1933333333334,157.6896541302021L433.79166666666663,172.8329605689416L437.38166666666666,208.49120455521805L438.5783333333333,160.66126111837536L439.1766666666667,153.1804233697745L439.77500000000003,160.19713167043835L440.3733333333333,174.9050784477821L440.97166666666664,183.5332414186918L441.57,169.21975267850436L442.16833333333335,175.5605443074153L442.7666666666667,178.1220951813918L443.365,149.75300590808575L443.9633333333333,180.95678571554333L445.16,178.72799381842984L446.95500000000004,162.55278792748086L447.5533333333333,176.4745916219858L448.15166666666664,173.8440625850971L449.34833333333336,174.31997724679803L451.7416666666667,175.25066251021167L452.93833333333333,157.27093241764953L454.135,178.40528693565957L456.52833333333336,160.53439675844638L457.1266666666667,155.11770453819864L457.72499999999997,196.65919656019946L458.9216666666667,150.3110704421997L460.11833333333334,154.23485337770907L461.315,170.08007328326886L462.51166666666666,149.0864480825571L463.11,168.21835613250732L464.905,177.08049025902383L466.1016666666667,154.1461176505456L466.7,157.5794277191162L467.29833333333335,175.86245375413162L467.89666666666665,178.33180266160232L468.495,156.15757634089545L469.0933333333333,172.69743061065674L470.29,171.40175034449652L470.8883333333334,161.1749577889076L473.88,202.1393209604117L474.47833333333335,153.57592127873352L475.675,188.3086793606098L476.2733333333333,170.36534478114203L476.87166666666667,149.49858394035928L478.66666666666663,209.5882693070632L479.86333333333334,169.20450122539816L481.06,149.6965062068059L482.25666666666666,171.52618833688592L483.4533333333333,175.92172644688537L484.65000000000003,195.6681987322294L485.2483333333333,189.41683607835037L485.84666666666664,159.55483752030594L487.6416666666667,169.72790336608887L490.035,178.1862206092248L490.6333333333333,158.273022211515L491.83000000000004,166.65889505239636L492.4283333333333,174.94390032841613L493.625,160.48101667257458L496.0183333333333,181.34569776975192L499.01,165.27239931546725L503.1983333333333,176.19486610706036L503.7966666666667,162.44672100360577L504.99333333333334,171.77679744133584L505.5916666666667,142.25379709097058L506.19,174.5182461371789L506.7883333333333,177.4011173981887L507.38666666666666,180.0361525462224L507.985,174.66972079643838L509.1816666666666,201.14104402982275L509.78,171.41561530186584L512.1733333333334,179.247583095844L512.7716666666666,179.77133186046896L513.9683333333334,210.27597119258002L515.165,158.6026615729699L516.96,167.159766637362L518.1566666666666,191.0837505780734L518.755,200.33271701519308L519.3533333333334,158.31739007509677L521.1483333333333,169.5507785356962L521.7466666666667,161.626262151278L522.345,201.07102599510782L522.9433333333334,149.093727185176L523.5416666666666,158.81791503612814L524.7383333333333,156.01892676720254L525.3366666666667,176.99764713874234L525.9350000000001,138.80142270601718L527.1316666666667,134.5552795116718L527.73,170.40971264472378L528.3283333333334,197.00443399869482L528.9266666666667,166.14311863825873L529.525,158.74547063387362L530.1233333333333,184.57034022991476L531.32,162.70218284313498L531.9183333333333,166.6058615904588L533.7133333333333,176.30578576601474L536.1066666666667,187.3502641824576L537.9016666666666,170.69741051013654L538.5,188.97835680154657L539.0983333333334,152.32911498730002L540.295,167.8031006592971L540.8933333333333,164.26545678652255L541.4916666666667,161.3253925763644L542.09,158.0459835345929L543.2866666666667,182.26459781940167L543.885,179.0777373680702L544.4833333333333,179.44099925114563L546.8766666666667,181.22333952096795L549.27,182.90723859346835L549.8683333333333,189.1031414178702L551.0649999999999,148.2451917941754L551.6633333333333,158.7551761040321L552.2616666666667,172.11510240114657L552.86,156.2910265555749L553.4583333333334,156.8369592519907L554.0566666666666,161.6169033050537L555.8516666666667,197.3826007109422L556.45,184.09061270493729L560.04,178.75988322037918L561.2366666666667,144.80945535806512L561.835,168.54244951101452L562.4333333333333,176.90163230895996L563.0316666666666,199.05644768934985L564.2283333333334,168.69184442666864L566.0233333333333,158.75170986468976L566.6216666666667,180.1411795982948L568.4166666666666,197.78607097038858L569.015,176.00006345602185L569.6133333333333,160.70701547769403L570.8100000000001,181.730796960684L572.0066666666667,179.80911386930026L573.8016666666667,156.09865027207596L574.4,159.1021466621986L575.5966666666667,186.007789685176L577.3916666666667,174.5636538725633L577.99,175.18203097123367L578.5883333333333,178.0617826168354L579.785,166.52197859837463L580.3833333333333,161.54064603952264L580.9816666666667,175.32241366459778L582.1783333333333,185.78283075185925L582.7766666666666,173.0814899297861L583.375,174.0738742534931L586.3666666666667,158.40439268258905L588.76,162.92506203284634L589.3583333333333,176.75709012838513L590.555,202.41176737271826L591.7516666666667,176.03021973830005L592.9483333333333,163.47446096860446L593.5466666666666,200.90014039553134L594.145,187.03968913738547L594.7433333333333,173.46520262498123L595.3416666666667,185.7758982731746L595.9399999999999,195.50805847461407L597.1366666666667,139.4291586509118L598.3333333333334,147.50930918180026L599.53,186.21056468670187L601.325,173.63054224161004L602.5216666666666,152.2036371231079L603.12,180.21293075268088L603.7183333333334,186.91698426466724L606.1116666666667,158.2761418269231L607.3083333333333,142.7071811969464L607.9066666666666,155.2996821036706L609.1033333333334,193.84565008603613L610.8983333333333,140.2582831015954L612.095,167.03186240563028L612.6933333333334,163.10530647864712L613.2916666666666,165.0838358952449L615.0866666666667,170.85200478480414L616.8816666666667,206.8807897567749L617.48,165.92162594428433L618.6766666666667,181.40601033430835L619.8733333333333,182.0639025614812L621.07,185.51350395496075L624.0616666666666,168.36359156095065L625.2583333333333,170.4949821325449L625.8566666666667,178.96023185436545L626.455,179.32002749809854L627.0533333333333,150.07848578232986L628.8483333333334,182.7931993191059L632.4383333333334,194.10596466064453L633.635,209.03228451655463L634.2333333333333,201.45265894669754L634.8316666666667,152.1152480198787L635.43,191.85741519927979L636.0283333333333,175.40941627209006L638.4216666666666,159.71636427365817L639.6183333333333,174.64372400137097L640.2166666666667,152.52807712554932L642.0116666666667,177.810480264517L642.61,160.28032141465408L643.2083333333334,178.10337748894327L643.8066666666666,197.63424968719482L644.405,187.45841084993808L645.6016666666667,171.78303667215204L646.2,163.9656270834116L646.7983333333334,193.64114196483908L647.3966666666666,173.97785942371075L648.5933333333334,162.14931766803448L650.3883333333333,164.9708364926852L651.585,151.30068177443286L652.1833333333333,197.82939896216763L653.38,167.26929980057938L653.9783333333334,170.31543093461258L655.7733333333333,160.9073641116803L656.3716666666667,167.19408240685098L657.5683333333334,157.52674088111294L658.1666666666666,170.32790939624493L662.355,173.82222527724048L662.9533333333334,163.93928366440994L663.5516666666667,172.47593791668234L664.15,171.85513445047235L664.7483333333333,156.528463950524L665.3466666666667,156.49900091611423L665.945,144.1581489856427L667.1416666666667,188.59360423454874L667.74,191.83765763502856L668.3383333333333,191.70247430067798L670.1333333333333,172.5591276608981L670.7316666666667,174.02188066335827L671.33,208.82396353208105L671.9283333333333,178.8482723236084L673.125,173.62672937833347L676.715,175.16539302239053L677.3133333333334,170.71855457012472L677.9116666666667,137.19690051445596L679.1083333333333,191.8640010540302L681.5016666666667,176.02571362715503L683.2966666666666,193.94790414663464L685.0916666666667,177.87009958120495L687.485,159.5905397855319L689.28,168.9362143003024L689.8783333333333,172.54318295992343L690.4766666666667,176.83300076998202L691.6733333333334,148.59597521561844L692.2716666666666,183.15403483464172L692.87,185.72251818730285L694.665,172.8516782613901L695.2633333333333,181.4313138815073L696.46,167.33758471562317L697.6566666666666,151.0736430975107L698.255,165.15385392995984L699.4516666666666,178.10719035221985L700.6483333333333,158.9239819600032L701.2466666666667,157.59641229189364L702.4433333333334,163.66545075636645L703.64,174.33141583662768L704.2383333333333,148.36685679509094L704.8366666666667,165.32577940133905L705.4350000000001,191.10073515085077L707.23,167.3348117241493L707.8283333333334,223.32982855576736L708.4266666666667,161.44879069695108L710.2216666666667,157.92570502941427L710.82,165.29839611053467L715.6066666666667,174.82708806257983L717.4016666666666,141.70786439455478L718,162.40165989215558L719.1966666666667,171.96813385303204L720.3933333333334,199.31086965707635L720.9916666666667,167.18160394521863L722.7866666666666,159.1524071326623L723.385,167.49079249455383L724.5816666666667,158.11877456078165L725.18,155.87091834728537L725.7783333333333,157.35966814481296L726.3766666666667,191.6369623771081L728.1716666666666,166.4939020597018L732.9583333333333,173.93037194472095L733.5566666666667,160.4907221427331L734.155,157.68133515578052L735.3516666666667,161.9014815550584L736.5483333333334,176.20179858574502L737.1466666666666,191.19709660456732L737.745,178.7203680918767L738.9416666666666,188.20989153935363L740.1383333333333,177.44167239849386L740.7366666666667,156.64978232750528L741.335,208.34388938316934L743.13,167.8783180530255L743.7283333333334,179.7040868172279L744.3266666666666,166.7358455657959L747.3183333333333,191.02863737253045L748.515,176.74079880347622L749.1133333333332,196.83493489485522L750.31,183.99910398629999L750.9083333333334,199.25610307546765L752.105,171.98303868220404L755.695,195.64913441584662L756.2933333333333,177.282225388747L757.49,160.80337693141058L758.6866666666666,185.5363811346201L761.08,139.8589723293598L762.2766666666668,168.67070036668045L763.4733333333332,152.01403383108288L764.67,180.93321528801553L765.8666666666667,154.77662658691406L767.0633333333334,173.92447933783902L767.6616666666666,149.09303393730752L768.26,179.04862095759466L768.8583333333333,141.00872391920825L769.4566666666667,178.44826830350436L771.85,165.47101482978238L773.0466666666666,192.54095759758584L773.645,189.429661163917L777.235,172.0041827421922L778.4316666666667,164.81208273080682L779.6283333333334,192.3485813140869L780.2266666666667,156.9870474155133L780.8249999999999,175.18376409090487L784.415,166.68697159106915L786.21,170.4152586276715L787.4066666666666,167.74244147080643L789.2016666666666,178.70199702336242L790.9966666666666,168.1767612603995L791.595,174.4163387005146L792.7916666666667,179.66838455200195L793.39,172.076973768381L793.9883333333332,212.4236530890832L794.5866666666667,141.78412166008584L795.7833333333334,160.7250399222741L796.3816666666667,170.48354354271524L797.5783333333334,172.7002036021306L798.1766666666666,168.381962629465L798.775,171.77853056100702L800.57,186.98180294036865L801.1683333333333,183.46599637545077L802.365,203.04955541170565L807.1516666666668,183.47015586266153L807.75,174.26347754551819L808.3483333333332,189.34577817183276L808.9466666666667,164.87343516716592L810.7416666666667,176.21323717557468L811.3399999999999,153.69793290358325L811.9383333333334,190.26051873427173L813.7333333333333,188.1312079062829L814.3316666666667,167.95734831003045L814.93,219.07917925027698L816.725,177.9962706932655L823.905,198.26475862356335L825.6999999999999,185.91004173572247L826.8966666666666,174.51166028242847L827.495,158.8525774295514L828.6916666666666,192.308372937716L829.29,186.0348263520461L831.085,164.28833396618185L832.88,180.8094705434946L833.4783333333334,203.03569045433633L834.0766666666666,163.4252403699435L834.6750000000001,202.33758985079257L835.2733333333333,145.86561848567084L835.8716666666666,177.6021592800434L836.47,171.04992705125076L837.0683333333333,172.27073654761685L838.265,156.40991856501654L839.4616666666667,150.64625578660232L840.06,192.11911626962518L841.2566666666667,178.25658526787393L842.4533333333334,167.16392612457275L843.65,166.7569896257841L844.2483333333333,151.57555455427905L844.8466666666667,154.66778667156515L845.445,181.73980918297403L846.0433333333333,182.21121773352994L846.6416666666667,154.0785259833703L849.0350000000001,169.73622234051047L852.0266666666668,194.89418748708874L852.625,170.7012233734131L853.8216666666667,179.6437742526715L854.42,203.18369887425348L856.8133333333334,189.46051069406366L857.4116666666666,166.85716394277722L858.01,185.59080109229458L859.2066666666667,170.16915563436658L861.0016666666667,158.05534238081714L862.7966666666666,142.64894837599536L863.9933333333333,178.7643893315242L865.19,160.37425650083102L865.7883333333333,161.28414432819073L866.985,190.5059284797082L867.5833333333333,175.23437118530273L869.3783333333334,177.5408068436843L869.9766666666667,181.12316520397482L870.5749999999999,169.82079858046313L871.7716666666666,187.56239803020773L872.37,184.62476018758923L872.9683333333334,180.72732067108154L874.165,156.95030527848465L874.7633333333333,190.83695433689996L875.3616666666667,197.4179563522339L875.96,187.36932849884033L876.5583333333334,156.44076809516324L877.1566666666666,158.8054365744958L880.1483333333333,157.3998765211839L880.7466666666666,185.56307117755597L881.9433333333333,160.48413628798266L884.3366666666667,176.0565631573017L884.935,184.77450172717755L886.1316666666667,157.15134716033936L888.525,189.42064894162695L889.7216666666667,159.50769666525036L890.9183333333333,172.71996116638184L892.115,164.40965234316317L892.7133333333334,175.47007546058072L893.3116666666666,162.78502596341647L893.9100000000001,151.20328044891357L895.1066666666666,184.49269646864673L896.9016666666668,180.3332092578595L897.5,155.19534829946667L898.6966666666667,188.82584227048434L899.295,158.58637024806097L899.8933333333334,179.62956267136795L901.0899999999999,162.02661279531628L903.4833333333333,159.81480547098016L904.68,177.74982107602634L905.2783333333333,164.72854636265686L906.475,192.2525664843046L907.0733333333334,168.74626438434308L908.8683333333333,175.40179054553693L909.4666666666666,167.8689592068012L912.4583333333333,148.3956265816322L913.0566666666667,157.0775162623479L913.655,162.90703758826626L914.2533333333334,199.0786316211407L915.4499999999999,212.08985424041748L916.6466666666666,153.11941755734958L917.245,170.46967858534595L917.8433333333334,166.82562116476208L918.4416666666666,163.96112097226657L919.04,179.07288463299093L919.6383333333333,196.8872751089243L921.4333333333334,158.253611271198L923.2283333333334,162.1427318132841L924.4250000000001,183.01850487635687L925.6216666666666,172.80037791912375L926.22,198.87447012387793L926.8183333333333,181.65904580629794L927.4166666666667,164.9150300392738L928.015,166.55040176098166L930.4083333333334,178.67911984370306L932.8016666666666,184.57484634105978L933.9983333333333,190.6217008737418L934.5966666666667,175.70404661618747L936.3916666666667,200.05715098747842L936.99,186.67989349365234L937.5883333333334,154.32393572880676L939.3833333333333,172.83885317582352L941.1783333333333,174.86244370387152L941.7766666666668,169.34800353417032L942.375,202.85856562394363L943.5716666666667,179.2486229676467L944.17,172.09777120443493L944.7683333333334,151.66151728996866L946.5633333333334,202.5070889546321L947.76,159.42381367316617L948.3583333333333,164.78019332885742L948.9566666666667,165.10324683556192L949.555,179.18553741161642L950.1533333333333,180.71276246584384L950.7516666666667,170.2911672592163L951.9483333333334,157.11183203183688L952.5466666666666,178.02088099259598L954.3416666666666,191.9839329352746L957.3333333333333,172.4863366347093L964.5133333333333,149.3838514181284L965.1116666666667,158.90942375476544L965.71,169.03465549762433L966.3083333333334,156.180800144489L968.7016666666666,147.73842760232782L970.4966666666666,216.06597738999588L971.095,172.20383812831L972.2916666666667,179.01187882056607L972.89,177.32451350872336L973.4883333333332,171.4031368402335L974.0866666666667,162.9323411354652L975.2833333333334,171.97679945138788L976.48,180.1068638288058L977.0783333333334,176.85726444537823L977.6766666666666,172.3185706505409L978.8733333333333,193.23420546605035L979.4716666666667,181.38036016317517L980.07,182.7564571820773L981.2666666666667,168.01558113098145L982.4633333333334,164.61935982337369L986.0533333333333,172.03017953725964L987.25,169.81559922144965L990.2416666666667,186.25770554175747L990.8399999999999,178.95191287994385L993.2333333333333,161.92851822192853L996.225,183.13601039006164L996.8233333333334,169.9750462311965L999.2166666666666,161.6227959119357L1001.61,188.2442073088426L1003.405,174.55464165027325L1005.1999999999999,186.82235593062182L1005.7983333333334,178.86629676818848L1006.3966666666666,177.78760308485766L1008.1916666666666,184.95578604478104L1008.79,172.45548710456265L1010.585,166.27240936572736L1011.7816666666666,152.466378065256L1012.38,192.95447995112494L1012.9783333333334,189.85566197908847L1017.1666666666667,161.01031142014725L1017.765,172.85410462892978L1018.3633333333332,172.21389022240274L1018.9616666666667,160.6026816734901L1020.1583333333334,187.95685606736404L1020.7566666666667,149.6254483002883L1021.355,190.28235604212836L1021.9533333333334,200.1763896208543L1022.5516666666666,158.95344499441296L1023.15,166.54173616262585L1023.7483333333333,178.60875518505392L1024.3466666666668,191.27751335730923L1024.945,167.51020343487082L1026.74,181.05626678466797L1027.9366666666667,155.28928338564364L1030.9283333333333,158.82588738661548L1031.5266666666666,169.53206084324768L1032.125,191.5180703676664L1033.3216666666667,163.54517225118786L1037.51,165.04293427100552L1038.7066666666667,175.8354170872615L1041.6983333333335,161.45052381662225L1042.2966666666666,189.32775372725268L1044.69,209.3976261432354L1045.8866666666668,189.75028830308182L1046.485,168.04365766965427L1047.6816666666666,183.00463991898758L1048.28,184.08298697838418L1049.4766666666667,178.84584595606879L1050.075,194.69245235736554L1053.665,168.0301393362192L1054.2633333333333,179.5761825854962L1054.8616666666667,159.33022521092346L1057.8533333333335,185.44799203139087L1058.4516666666666,179.69923408214865L1063.8366666666666,151.92252511244556L1064.435,151.8143784449651L1066.23,192.1818552017212L1066.8283333333334,161.44220484220065L1067.4266666666665,168.3393278855544L1068.6233333333332,178.43093710679275L1069.82,167.98542484870327L1071.0166666666667,177.07945038722113L1072.8116666666667,147.13114246955288L1073.41,167.77710386422967L1074.6066666666666,159.55206452883212L1075.205,209.9106295658992L1076.4016666666666,171.91440714322604L1077.5983333333334,201.47103001521185L1078.1966666666667,182.20705824631912L1079.3933333333334,184.824415573707L1079.9916666666666,166.43774898235617L1082.385,172.91615031315735L1082.9833333333333,188.28441568521356L1084.18,165.5486585910504L1084.7783333333332,174.61911370204047L1085.3766666666668,171.03328910240762L1085.975,165.0162442280696L1087.1716666666666,173.4541106590858L1087.77,146.45141293452338L1088.3683333333333,195.3430654819195L1088.9666666666667,190.39084933354303L1091.36,199.0450090995202L1092.5566666666666,163.41518827585077L1093.155,176.73871905987082L1093.7533333333333,188.1689899151142L1094.95,183.0576733809251L1096.1466666666665,198.15175922100363L1097.3433333333332,157.40680899986856L1098.54,182.3311496147743L1099.1383333333333,202.97121840256912L1099.7366666666667,176.53559743441073L1100.9333333333334,152.0885579769428L1101.5316666666668,156.75896886678845L1102.1299999999999,165.1320166221032L1102.7283333333335,183.26530111753024L1103.3266666666666,159.30041555257947L1103.925,178.28847466982333L1105.1216666666667,160.9947133431068L1105.72,191.98115994380072L1107.515,190.47473232562726L1108.1133333333332,172.77923385913556L1109.31,153.63034123640796L1109.9083333333333,191.52604271815375L1111.7033333333334,196.33198356628418L1112.3016666666665,183.59632697472207L1112.9,158.5787445215079L1113.4983333333332,177.9245195388794L1114.0966666666668,183.6985810353206L1115.2933333333333,180.3106787021344L1117.6866666666667,177.73526287078857L1118.8833333333334,164.4093057192289L1119.4816666666666,169.91334717090314L1120.08,188.3786973953247L1121.875,185.25318938035232L1122.4733333333334,183.651440180265L1123.67,164.71710777282715L1126.0633333333333,162.09697745396545L1126.6616666666666,167.57051599942722L1127.26,174.13210707444412L1127.8583333333333,180.64447755080005L1129.055,151.16064570500305L1131.4483333333335,185.74088925581714L1132.0466666666666,158.2910466560951L1133.2433333333333,192.17561597090503L1133.8416666666667,169.45025759476883L1134.44,189.57212360088644L1135.0383333333334,177.78171047797574L1136.235,153.13050952324502L1138.03,175.24858276660626L1138.6283333333333,188.4542614129874L1139.2266666666667,184.01192907186658L1139.825,179.83996339944696L1140.4233333333334,161.63770074110766L1142.2183333333332,180.39074883094204L1142.8166666666666,156.68583121666543L1145.21,167.03116915776184L1145.8083333333334,177.37581385098972L1147.0049999999999,191.21096156193659L1147.6033333333335,165.3604417947623L1148.2016666666666,178.6708008692815L1150.595,192.8979802498451L1152.39,176.76679559854364L1153.5866666666666,165.7975345758292L1155.3816666666667,176.0444313196036L1155.98,166.17708778381348L1156.5783333333334,167.22701168060303L1157.1766666666665,182.23513478499194L1157.775,187.7630932881282L1158.9716666666668,146.1595555818998L1159.57,163.16423254746658L1160.1683333333333,185.02580407949597L1161.9633333333334,176.00560943896954L1162.5616666666667,178.13803988236648L1163.7583333333334,171.70816590235785L1164.3566666666666,167.05127334594727L1164.955,162.29663284008322L1166.75,164.960091150724L1167.9466666666667,155.95653445904074L1168.545,206.30574064988357L1169.1433333333334,180.98451563028192L1169.7416666666666,176.4281440147987L1173.93,164.80099076491138L1174.5283333333332,176.95223940335788L1176.3233333333335,203.34106614039496L1179.315,167.01765082432678L1181.7083333333333,166.48662295708291L1182.905,159.05569905501147L1184.1016666666667,191.25532942551834L1185.2983333333334,167.75561318030728L1185.8966666666665,169.81871883685773L1186.4950000000001,150.88230668581454L1187.0933333333332,165.73098278045654L1189.4866666666667,161.11291210468L1190.085,188.0338065807636L1190.6833333333334,180.4988954984225L1191.8799999999999,180.89924614246075L1192.4783333333335,171.16050008627087L1193.0766666666666,163.86060003133923L1195.47,149.3942501361554L1196.6666666666667,183.75438748873202L1197.8633333333332,180.47601831876315L1199.06,183.46807611905612L1199.6583333333333,182.90342573019177L1200.855,156.41373142829312L1203.2483333333332,165.81971850762002L1204.445,201.22527364584118L1205.0433333333333,191.08687019348145L1206.8383333333334,178.83787360558145L1208.6333333333334,185.89964301769552L1211.0266666666666,169.66724417759826L1212.2233333333334,159.30873452700106L1212.8216666666667,169.2145533194909L1214.6166666666666,195.59020834702713L1217.01,154.56587923490085L1217.6083333333333,156.54024916428787L1218.2066666666667,181.7675390977126L1218.805,187.0261708039504L1220.6,166.5573342396663L1221.1983333333335,153.52912704761212L1221.7966666666666,159.0383678582999L1222.9933333333333,198.3735985389123L1223.5916666666667,205.46483098543612L1224.19,166.41625829843377L1225.3866666666668,184.58697817875793L1225.985,204.10779828291675L1227.78,164.27758862422064L1228.3783333333333,179.9851988278903L1229.575,152.2677625509409L1230.7716666666665,146.2333864798913L1231.3700000000001,173.52551518953769L1231.9683333333332,207.35427805093622L1236.1566666666668,158.67094648801364L1236.7549999999999,186.79809225522555L1237.3533333333335,152.48093627049377L1237.9516666666666,195.14791620694677L1241.5416666666667,200.15732530447156L1242.14,204.85719922872693L1242.7383333333332,191.79467626718377L1243.3366666666666,150.45006663982687L1243.935,163.2158795136672L1245.1316666666667,167.5195622810951L1246.9266666666665,141.51132862384503L1248.7216666666668,166.59442300062915L1251.115,174.9588051575881L1251.7133333333334,164.2886805901161L1252.3116666666667,174.22638878455533L1252.91,151.4632483995878L1253.5083333333334,212.1016394541814L1254.705,164.1597364865817L1255.3033333333333,191.33713267399713L1257.6966666666667,189.72983749096213L1259.4916666666666,175.57787550412692L1260.09,202.6356864342323L1261.885,160.28170791039102L1262.4833333333333,163.1923090861394L1263.0816666666667,172.7570499273447L1263.68,187.42617482405444L1264.2783333333332,184.73741296621472L1265.475,188.76206346658563L1266.0733333333335,164.91676315894497L1266.6716666666666,157.64251327514648L1267.27,135.75598481985242L1267.8683333333333,164.17221494821405L1270.2616666666668,183.80291483952453L1270.86,182.43686991471512L1271.4583333333333,176.34946038172797L1273.2533333333333,167.17848432981052L1274.45,182.5204062828651L1275.0483333333334,157.43107267526483L1275.6466666666665,149.90621368701642L1276.8433333333332,192.4466758874747L1277.4416666666666,184.35439351888806L1278.04,173.68634869502142L1279.2366666666667,198.30254063239468L1279.835,179.32280048957242L1281.6299999999999,167.8741585658147L1282.8266666666666,206.40071560786322L1284.0233333333333,186.9488736666166L1284.6216666666667,193.1312581575834L1285.8183333333334,178.54185676574707L1287.6133333333332,174.64649699284485L1288.81,150.8878526687622L1289.4083333333333,169.31091477320746L1290.0066666666667,165.25194850334756L1291.2033333333334,186.9003463158241L1292.4,176.26003140669604L1292.9983333333332,189.21995368370645L1293.5966666666668,171.95496214353122L1295.99,198.73408743051385L1296.5883333333334,184.43203728015607L1297.785,167.5958195466262L1298.9816666666666,180.51137396005487L1301.9733333333334,175.33107926295355L1304.3666666666666,161.39783697861893L1304.965,207.59240869375378L1305.5633333333333,160.10250333639294L1306.1616666666666,159.13715567955606L1313.3416666666667,212.30822731898382L1314.5383333333334,156.80299010643594L1315.735,193.26713473980246" style="fill: none;" fill="none"></path></g></g></g></g></g></g><g transform="translate(60, 378)" clip-path="url(#clip_1)"><clipPath id="clip_1"><rect width="1436" height="22"></rect></clipPath><g><g><line x1="0" y1="0" x2="0" y2="5" style="visibility: inherit;" fill="rgb(0, 0, 0)" stroke="rgb(204, 204, 204)" stroke-width="1px"></line><line x1="119.66666666666666" y1="0" x2="119.66666666666666" y2="5" style="visibility: inherit;" fill="rgb(0, 0, 0)" stroke="rgb(204, 204, 204)" stroke-width="1px"></line><line x1="239.33333333333331" y1="0" x2="239.33333333333331" y2="5" style="visibility: inherit;" fill="rgb(0, 0, 0)" stroke="rgb(204, 204, 204)" stroke-width="1px"></line><line x1="359" y1="0" x2="359" y2="5" style="visibility: inherit;" fill="rgb(0, 0, 0)" stroke="rgb(204, 204, 204)" stroke-width="1px"></line><line x1="478.66666666666663" y1="0" x2="478.66666666666663" y2="5" style="visibility: inherit;" fill="rgb(0, 0, 0)" stroke="rgb(204, 204, 204)" stroke-width="1px"></line><line x1="598.3333333333334" y1="0" x2="598.3333333333334" y2="5" style="visibility: inherit;" fill="rgb(0, 0, 0)" stroke="rgb(204, 204, 204)" stroke-width="1px"></line><line x1="718" y1="0" x2="718" y2="5" style="visibility: inherit;" fill="rgb(0, 0, 0)" stroke="rgb(204, 204, 204)" stroke-width="1px"></line><line x1="837.6666666666667" y1="0" x2="837.6666666666667" y2="5" style="visibility: inherit;" fill="rgb(0, 0, 0)" stroke="rgb(204, 204, 204)" stroke-width="1px"></line><line x1="957.3333333333333" y1="0" x2="957.3333333333333" y2="5" style="visibility: inherit;" fill="rgb(0, 0, 0)" stroke="rgb(204, 204, 204)" stroke-width="1px"></line><line x1="1077" y1="0" x2="1077" y2="5" style="visibility: inherit;" fill="rgb(0, 0, 0)" stroke="rgb(204, 204, 204)" stroke-width="1px"></line><line x1="1196.6666666666667" y1="0" x2="1196.6666666666667" y2="5" style="visibility: inherit;" fill="rgb(0, 0, 0)" stroke="rgb(204, 204, 204)" stroke-width="1px"></line><line x1="1316.3333333333333" y1="0" x2="1316.3333333333333" y2="5" style="visibility: inherit;" fill="rgb(0, 0, 0)" stroke="rgb(204, 204, 204)" stroke-width="1px"></line><line x1="1436" y1="0" x2="1436" y2="5" style="visibility: inherit;" fill="rgb(0, 0, 0)" stroke="rgb(204, 204, 204)" stroke-width="1px"></line></g><g transform="translate(0, 8)"><text x="0" y="0" dx="0em" dy="0.95em" style="text-anchor: middle; visibility: hidden; font-family: Roboto, sans-serif; font-size: 12px; font-weight: 200;" fill="rgb(50, 49, 63)" stroke="none" stroke-width="1px">-200</text><text x="119.66666666666666" y="0" dx="0em" dy="0.95em" style="text-anchor: middle; visibility: inherit; font-family: Roboto, sans-serif; font-size: 12px; font-weight: 200;" fill="rgb(50, 49, 63)" stroke="none" stroke-width="1px">0</text><text x="239.33333333333331" y="0" dx="0em" dy="0.95em" style="text-anchor: middle; visibility: inherit; font-family: Roboto, sans-serif; font-size: 12px; font-weight: 200;" fill="rgb(50, 49, 63)" stroke="none" stroke-width="1px">200</text><text x="359" y="0" dx="0em" dy="0.95em" style="text-anchor: middle; visibility: inherit; font-family: Roboto, sans-serif; font-size: 12px; font-weight: 200;" fill="rgb(50, 49, 63)" stroke="none" stroke-width="1px">400</text><text x="478.66666666666663" y="0" dx="0em" dy="0.95em" style="text-anchor: middle; visibility: inherit; font-family: Roboto, sans-serif; font-size: 12px; font-weight: 200;" fill="rgb(50, 49, 63)" stroke="none" stroke-width="1px">600</text><text x="598.3333333333334" y="0" dx="0em" dy="0.95em" style="text-anchor: middle; visibility: inherit; font-family: Roboto, sans-serif; font-size: 12px; font-weight: 200;" fill="rgb(50, 49, 63)" stroke="none" stroke-width="1px">800</text><text x="718" y="0" dx="0em" dy="0.95em" style="text-anchor: middle; visibility: inherit; font-family: Roboto, sans-serif; font-size: 12px; font-weight: 200;" fill="rgb(50, 49, 63)" stroke="none" stroke-width="1px">1k</text><text x="837.6666666666667" y="0" dx="0em" dy="0.95em" style="text-anchor: middle; visibility: inherit; font-family: Roboto, sans-serif; font-size: 12px; font-weight: 200;" fill="rgb(50, 49, 63)" stroke="none" stroke-width="1px">1.2k</text><text x="957.3333333333333" y="0" dx="0em" dy="0.95em" style="text-anchor: middle; visibility: inherit; font-family: Roboto, sans-serif; font-size: 12px; font-weight: 200;" fill="rgb(50, 49, 63)" stroke="none" stroke-width="1px">1.4k</text><text x="1077" y="0" dx="0em" dy="0.95em" style="text-anchor: middle; visibility: inherit; font-family: Roboto, sans-serif; font-size: 12px; font-weight: 200;" fill="rgb(50, 49, 63)" stroke="none" stroke-width="1px">1.6k</text><text x="1196.6666666666667" y="0" dx="0em" dy="0.95em" style="text-anchor: middle; visibility: inherit; font-family: Roboto, sans-serif; font-size: 12px; font-weight: 200;" fill="rgb(50, 49, 63)" stroke="none" stroke-width="1px">1.8k</text><text x="1316.3333333333333" y="0" dx="0em" dy="0.95em" style="text-anchor: middle; visibility: inherit; font-family: Roboto, sans-serif; font-size: 12px; font-weight: 200;" fill="rgb(50, 49, 63)" stroke="none" stroke-width="1px">2k</text><text x="1436" y="0" dx="0em" dy="0.95em" style="text-anchor: middle; visibility: hidden; font-family: Roboto, sans-serif; font-size: 12px; font-weight: 200;" fill="rgb(50, 49, 63)" stroke="none" stroke-width="1px">2.2k</text></g><line x1="0" y1="0" x2="1436" y2="0" fill="rgb(0, 0, 0)" stroke="rgb(204, 204, 204)" stroke-width="1px"></line></g></g></g></g></svg>