<svg viewBox="0 0 1496 400" xmlns="http://www.w3.org/2000/svg"><g><g><g><g><g><line x1="51.5625" y1="378" x2="46.5625" y2="378" style="visibility: inherit;" fill="rgb(0, 0, 0)" stroke="rgb(204, 204, 204)" stroke-width="1px"></line><line x1="51.5625" y1="346.5" x2="46.5625" y2="346.5" style="visibility: inherit;" fill="rgb(0, 0, 0)" stroke="rgb(204, 204, 204)" stroke-width="1px"></line><line x1="51.5625" y1="315" x2="46.5625" y2="315" style="visibility: inherit;" fill="rgb(0, 0, 0)" stroke="rgb(204, 204, 204)" stroke-width="1px"></line><line x1="51.5625" y1="283.5" x2="46.5625" y2="283.5" style="visibility: inherit;" fill="rgb(0, 0, 0)" stroke="rgb(204, 204, 204)" stroke-width="1px"></line><line x1="51.5625" y1="252.00000000000003" x2="46.5625" y2="252.00000000000003" style="visibility: inherit;" fill="rgb(0, 0, 0)" stroke="rgb(204, 204, 204)" stroke-width="1px"></line><line x1="51.5625" y1="220.49999999999997" x2="46.5625" y2="220.49999999999997" style="visibility: inherit;" fill="rgb(0, 0, 0)" stroke="rgb(204, 204, 204)" stroke-width="1px"></line><line x1="51.5625" y1="189" x2="46.5625" y2="189" style="visibility: inherit;" fill="rgb(0, 0, 0)" stroke="rgb(204, 204, 204)" stroke-width="1px"></line><line x1="51.5625" y1="157.5" x2="46.5625" y2="157.5" style="visibility: inherit;" fill="rgb(0, 0, 0)" stroke="rgb(204, 204, 204)" stroke-width="1px"></line><line x1="51.5625" y1="126.00000000000001" x2="46.5625" y2="126.00000000000001" style="visibility: inherit;" fill="rgb(0, 0, 0)" stroke="rgb(204, 204, 204)" stroke-width="1px"></line><line x1="51.5625" y1="94.5" x2="46.5625" y2="94.5" style="visibility: inherit;" fill="rgb(0, 0, 0)" stroke="rgb(204, 204, 204)" stroke-width="1px"></line><line x1="51.5625" y1="62.999999999999986" x2="46.5625" y2="62.999999999999986" style="visibility: inherit;" fill="rgb(0, 0, 0)" stroke="rgb(204, 204, 204)" stroke-width="1px"></line><line x1="51.5625" y1="31.500000000000014" x2="46.5625" y2="31.500000000000014" style="visibility: inherit;" fill="rgb(0, 0, 0)" stroke="rgb(204, 204, 204)" stroke-width="1px"></line><line x1="51.5625" y1="0" x2="46.5625" y2="0" style="visibility: inherit;" fill="rgb(0, 0, 0)" stroke="rgb(204, 204, 204)" stroke-width="1px"></line></g><g transform="translate(41.5625, 0)"><text x="0" y="378" dx="0em" dy="0.3em" style="text-anchor: end; visibility: hidden; font-family: Roboto, sans-serif; font-size: 12px; font-weight: 200;" fill="rgb(50, 49, 63)" stroke="none" stroke-width="1px">-0.5</text><text x="0" y="346.5" dx="0em" dy="0.3em" style="text-anchor: end; visibility: inherit; font-family: Roboto, sans-serif; font-size: 12px; font-weight: 200;" fill="rgb(50, 49, 63)" stroke="none" stroke-width="1px">0</text><text x="0" y="315" dx="0em" dy="0.3em" style="text-anchor: end; visibility: inherit; font-family: Roboto, sans-serif; font-size: 12px; font-weight: 200;" fill="rgb(50, 49, 63)" stroke="none" stroke-width="1px">0.5</text><text x="0" y="283.5" dx="0em" dy="0.3em" style="text-anchor: end; visibility: inherit; font-family: Roboto, sans-serif; font-size: 12px; font-weight: 200;" fill="rgb(50, 49, 63)" stroke="none" stroke-width="1px">1</text><text x="0" y="252.00000000000003" dx="0em" dy="0.3em" style="text-anchor: end; visibility: inherit; font-family: Roboto, sans-serif; font-size: 12px; font-weight: 200;" fill="rgb(50, 49, 63)" stroke="none" stroke-width="1px">1.5</text><text x="0" y="220.49999999999997" dx="0em" dy="0.3em" style="text-anchor: end; visibility: inherit; font-family: Roboto, sans-serif; font-size: 12px; font-weight: 200;" fill="rgb(50, 49, 63)" stroke="none" stroke-width="1px">2</text><text x="0" y="189" dx="0em" dy="0.3em" style="text-anchor: end; visibility: inherit; font-family: Roboto, sans-serif; font-size: 12px; font-weight: 200;" fill="rgb(50, 49, 63)" stroke="none" stroke-width="1px">2.5</text><text x="0" y="157.5" dx="0em" dy="0.3em" style="text-anchor: end; visibility: inherit; font-family: Roboto, sans-serif; font-size: 12px; font-weight: 200;" fill="rgb(50, 49, 63)" stroke="none" stroke-width="1px">3</text><text x="0" y="126.00000000000001" dx="0em" dy="0.3em" style="text-anchor: end; visibility: inherit; font-family: Roboto, sans-serif; font-size: 12px; font-weight: 200;" fill="rgb(50, 49, 63)" stroke="none" stroke-width="1px">3.5</text><text x="0" y="94.5" dx="0em" dy="0.3em" style="text-anchor: end; visibility: inherit; font-family: Roboto, sans-serif; font-size: 12px; font-weight: 200;" fill="rgb(50, 49, 63)" stroke="none" stroke-width="1px">4</text><text x="0" y="62.999999999999986" dx="0em" dy="0.3em" style="text-anchor: end; visibility: inherit; font-family: Roboto, sans-serif; font-size: 12px; font-weight: 200;" fill="rgb(50, 49, 63)" stroke="none" stroke-width="1px">4.5</text><text x="0" y="31.500000000000014" dx="0em" dy="0.3em" style="text-anchor: end; visibility: inherit; font-family: Roboto, sans-serif; font-size: 12px; font-weight: 200;" fill="rgb(50, 49, 63)" stroke="none" stroke-width="1px">5</text><text x="0" y="0" dx="0em" dy="0.3em" style="text-anchor: end; visibility: hidden; font-family: Roboto, sans-serif; font-size: 12px; font-weight: 200;" fill="rgb(50, 49, 63)" stroke="none" stroke-width="1px">5.5</text></g><line x1="51.5625" y1="0" x2="51.5625" y2="378" fill="rgb(0, 0, 0)" stroke="rgb(204, 204, 204)" stroke-width="1px"></line></g></g><g transform="translate(51, 0)" clip-path="url(#clip_0)"><clipPath id="clip_0"><rect width="1444" height="378"></rect></clipPath><g><g><g><line x1="0" y1="0" x2="0" y2="378" fill="rgb(0, 0, 0)" stroke="rgb(60, 60, 60)" stroke-width="1px" opacity="0.25"></line><line x1="120.36979166666666" y1="0" x2="120.36979166666666" y2="378" fill="rgb(0, 0, 0)" stroke="rgb(60, 60, 60)" stroke-width="1px" opacity="0.25"></line><line x1="240.73958333333331" y1="0" x2="240.73958333333331" y2="378" fill="rgb(0, 0, 0)" stroke="rgb(60, 60, 60)" stroke-width="1px" opacity="0.25"></line><line x1="361.109375" y1="0" x2="361.109375" y2="378" fill="rgb(0, 0, 0)" stroke="rgb(60, 60, 60)" stroke-width="1px" opacity="0.25"></line><line x1="481.47916666666663" y1="0" x2="481.47916666666663" y2="378" fill="rgb(0, 0, 0)" stroke="rgb(60, 60, 60)" stroke-width="1px" opacity="0.25"></line><line x1="601.8489583333334" y1="0" x2="601.8489583333334" y2="378" fill="rgb(0, 0, 0)" stroke="rgb(60, 60, 60)" stroke-width="1px" opacity="0.25"></line><line x1="722.21875" y1="0" x2="722.21875" y2="378" fill="rgb(0, 0, 0)" stroke="rgb(60, 60, 60)" stroke-width="1px" opacity="0.25"></line><line x1="842.5885416666667" y1="0" x2="842.5885416666667" y2="378" fill="rgb(0, 0, 0)" stroke="rgb(60, 60, 60)" stroke-width="1px" opacity="0.25"></line><line x1="962.9583333333333" y1="0" x2="962.9583333333333" y2="378" fill="rgb(0, 0, 0)" stroke="rgb(60, 60, 60)" stroke-width="1px" opacity="0.25"></line><line x1="1083.328125" y1="0" x2="1083.328125" y2="378" fill="rgb(0, 0, 0)" stroke="rgb(60, 60, 60)" stroke-width="1px" opacity="0.25"></line><line x1="1203.6979166666667" y1="0" x2="1203.6979166666667" y2="378" fill="rgb(0, 0, 0)" stroke="rgb(60, 60, 60)" stroke-width="1px" opacity="0.25"></line><line x1="1324.0677083333333" y1="0" x2="1324.0677083333333" y2="378" fill="rgb(0, 0, 0)" stroke="rgb(60, 60, 60)" stroke-width="1px" opacity="0.25"></line><line x1="1444.4375" y1="0" x2="1444.4375" y2="378" fill="rgb(0, 0, 0)" stroke="rgb(60, 60, 60)" stroke-width="1px" opacity="0.25"></line></g><g><line x1="0" y1="378" x2="1444.4375" y2="378" fill="rgb(0, 0, 0)" stroke="rgb(60, 60, 60)" stroke-width="1px" opacity="0.25"></line><line x1="0" y1="346.5" x2="1444.4375" y2="346.5" fill="rgb(0, 0, 0)" stroke="rgb(60, 60, 60)" stroke-width="1px" opacity="0.25"></line><line x1="0" y1="315" x2="1444.4375" y2="315" fill="rgb(0, 0, 0)" stroke="rgb(60, 60, 60)" stroke-width="1px" opacity="0.25"></line><line x1="0" y1="283.5" x2="1444.4375" y2="283.5" fill="rgb(0, 0, 0)" stroke="rgb(60, 60, 60)" stroke-width="1px" opacity="0.25"></line><line x1="0" y1="252.00000000000003" x2="1444.4375" y2="252.00000000000003" fill="rgb(0, 0, 0)" stroke="rgb(60, 60, 60)" stroke-width="1px" opacity="0.25"></line><line x1="0" y1="220.49999999999997" x2="1444.4375" y2="220.49999999999997" fill="rgb(0, 0, 0)" stroke="rgb(60, 60, 60)" stroke-width="1px" opacity="0.25"></line><line x1="0" y1="189" x2="1444.4375" y2="189" fill="rgb(0, 0, 0)" stroke="rgb(60, 60, 60)" stroke-width="1px" opacity="0.25"></line><line x1="0" y1="157.5" x2="1444.4375" y2="157.5" fill="rgb(0, 0, 0)" stroke="rgb(60, 60, 60)" stroke-width="1px" opacity="0.25"></line><line x1="0" y1="126.00000000000001" x2="1444.4375" y2="126.00000000000001" fill="rgb(0, 0, 0)" stroke="rgb(60, 60, 60)" stroke-width="1px" opacity="0.25"></line><line x1="0" y1="94.5" x2="1444.4375" y2="94.5" fill="rgb(0, 0, 0)" stroke="rgb(60, 60, 60)" stroke-width="1px" opacity="0.25"></line><line x1="0" y1="62.999999999999986" x2="1444.4375" y2="62.999999999999986" fill="rgb(0, 0, 0)" stroke="rgb(60, 60, 60)" stroke-width="1px" opacity="0.25"></line><line x1="0" y1="31.500000000000014" x2="1444.4375" y2="31.500000000000014" fill="rgb(0, 0, 0)" stroke="rgb(60, 60, 60)" stroke-width="1px" opacity="0.25"></line><line x1="0" y1="0" x2="1444.4375" y2="0" fill="rgb(0, 0, 0)" stroke="rgb(60, 60, 60)" stroke-width="1px" opacity="0.25"></line></g></g></g><g><g><line x1="0" y1="346.5" x2="1444.4375" y2="346.5" fill="rgb(0, 0, 0)" stroke="rgb(153, 153, 153)" stroke-width="1.5px"></line></g></g><g><g><line x1="120.36979166666666" y1="0" x2="120.36979166666666" y2="378" fill="rgb(0, 0, 0)" stroke="rgb(153, 153, 153)" stroke-width="1.5px"></line></g></g><g><g><g><g><g><path stroke="rgb(51, 187, 238)" stroke-width="2px" d="M123.37903645833333,141.15671038627625L123.98088541666667,189.63273310661313L126.38828124999999,136.42075753211975L126.99013020833334,192.98751783370975L128.19382812499998,195.9079134464264L128.79567708333335,219.15160632133484L129.39752604166668,162.0938000679016L130.60122395833335,162.73688220977783L131.20307291666666,256.7364785671234L131.804921875,200.784036397934L132.40677083333333,209.58699488639834L134.81416666666667,219.86349678039554L140.23080729166665,237.80944490432742L140.83265625,237.99231791496274L142.03635416666665,71.34393596649171L143.84190104166666,235.474648475647L144.44375,229.3660590648651L145.64744791666666,237.75182676315305L146.85114583333333,248.6296842098236L147.45299479166667,237.1333479881287L148.65669270833334,264.1274321079254L149.86039062499998,244.2534091472626L150.46223958333334,266.3027422428131L152.26778645833335,222.07674837112427L152.86963541666668,267.40061116218567L153.471484375,271.99028062820435L154.07333333333335,267.19460678100586L154.67518229166666,223.31367588043213L156.48072916666666,230.88532447814939L157.082578125,266.2908761501312L158.28627604166667,248.27904868125913L159.48997395833334,267.8832757472992L160.09182291666667,254.0088844299316L160.693671875,241.82619237899783L161.29552083333334,262.2072880268097L163.10106770833332,274.376416683197L163.70291666666665,266.2302088737488L164.30476562500002,230.6504058837891L164.90661458333332,269.12239623069763L166.11031250000002,241.12950253486636L167.915859375,281.011905670166L170.92510416666667,271.2859454154968L171.526953125,246.79731917381287L172.12880208333334,247.15807843208313L172.73065104166668,285.8455059528351L173.33249999999998,282.060507774353L173.93434895833335,264.20320987701416L176.94359375,257.2790744304657L181.75838541666664,278.0334713459015L183.56393229166665,290.83905816078186L184.16578125,284.69631242752075L188.37872395833332,291.3382000923157L190.18427083333333,269.37481355667114L191.38796875,265.53709387779236L191.9898177083333,295.02149534225464L192.59166666666667,275.2283570766449L194.9990625,193.01327776908875L195.60091145833331,219.9945344924927L196.20276041666668,302.6515882015228L198.00830729166668,294.7623188495636L198.61015625000002,276.8866059780121L200.41570312500002,266.8939890861511L202.82309895833333,305.04517436027527L204.02679687499997,265.7218143939972L205.23049479166667,296.52003264427185L205.83234374999998,301.9337947368622L206.43419270833334,292.96703910827637L207.03604166666668,286.57468485832214L209.4434375,292.5526421070099L210.64713541666669,255.75381588935855L212.4526822916667,303.0280587673187L213.05453125,298.16929936408997L213.65638020833333,258.24016785621643L214.860078125,285.96949911117554L215.46192708333334,286.77471113204956L216.06377604166667,299.9368665218353L217.86932291666668,268.8250079154968L219.07302083333335,291.86433362960815L219.67486979166665,294.8832178115845L220.87856770833335,303.0301465988159L221.48041666666666,277.4059953689575L223.28596354166666,290.3762204647064L226.29520833333333,295.2287163734436L226.89705729166664,285.04708313941956L227.49890625,269.34212923049927L228.70260416666665,277.9655191898346L229.304453125,313.3649275302887L230.50815104166665,271.1251223087311L231.71184895833335,242.43583917617795L232.31369791666665,298.02426266670227L232.91554687500002,292.2167866230011L233.51739583333332,267.1871566772461L234.72109375,304.7452926635742L235.32294270833333,305.6695110797882L239.53588541666667,304.92613792419434L241.94328125,302.3728551864624L244.35067708333332,311.70517659187317L244.95252604166666,302.62313961982727L245.55437500000002,295.8300268650055L247.96177083333333,293.7363374233246L249.76731770833334,300.6385281085968L251.57286458333334,286.88572669029236L252.17471354166668,274.7368755340576L253.98026041666668,304.5343015193939L254.582109375,281.7464919090271L255.78580729166669,297.60645604133606L256.38765624999996,288.0652012825012L256.98950520833336,310.10574746131897L258.19320312499997,295.47755885124207L258.79505208333336,301.61898279190063L259.99875,298.86217403411865L260.60059895833336,289.3237130641937L261.2024479166667,298.5330476760864L263.0079947916667,298.75034737586975L264.81354166666665,294.54821848869324L267.8227864583333,315.2455530166626L269.026484375,286.3717896938324L270.23018229166667,291.80288529396057L270.83203125,304.9903349876404L273.8412760416667,294.0308117866516L275.6468229166667,292.8726210594177L276.248671875,301.6844265460968L276.85052083333335,309.342577457428L277.4523697916667,290.19035840034485L278.6560677083333,288.92993903160095L281.06346354166664,305.4289298057556L282.2671614583333,296.3333294391632L283.47085937500003,308.4686622619629L284.67455729166664,314.41223788261414L287.6838020833333,296.8107669353485L288.8875,290.39320850372314L291.2948958333333,306.85915446281433L294.304140625,302.02339124679565L295.5078385416667,297.1346061229706L296.1096875,308.2829203605652L297.915234375,298.6936004161835L299.1189322916667,307.34509348869324L299.72078124999996,300.5050120353699L300.32263020833335,287.0377779006958L301.52632812499996,303.8394441604614L302.12817708333336,315.379549741745L302.7300260416667,297.59416937828064L305.137421875,321.91076731681824L305.73927083333336,297.77023816108704L306.94296875,312.4740843772888L308.748515625,307.45942854881287L311.1559114583333,292.14039301872253L311.75776041666666,308.92468070983887L312.359609375,304.0968782901764L312.9614583333333,295.876184463501L314.16515625,307.45655965805054L315.970703125,310.190327167511L316.57255208333333,315.1485815048218L317.17440104166667,312.27435851097107L318.9799479166667,302.60143518447876L319.581796875,311.00582814216614L320.7854947916667,291.93572545051575L324.3965885416667,284.0350556373596L325.6002864583333,303.6616179943085L327.4058333333333,300.2931797504425L328.00768229166664,318.75614404678345L329.2113802083333,297.1404490470886L329.81322916666664,315.08582639694214L332.8224739583333,309.14752292633057L333.42432291666665,291.81230306625366L334.6280208333333,307.19571590423584L335.83171875,298.4614906311035L336.4335677083333,318.18631625175476L337.03541666666666,296.0314350128174L338.84096354166667,311.26198554039L339.4428125,310.44307494163513L341.248359375,310.1988136768341L341.85020833333334,320.5486750602722L343.05390625,310.1664297580719L343.65575520833335,306.9349172115326L344.85945312499996,302.8599808216095L347.26684895833336,309.14345240592957L347.8686979166667,308.58197593688965L348.47054687499997,314.12875843048096L349.6742447916667,308.80690598487854L350.27609375,307.3107419013977L352.081640625,307.2093243598938L352.6834895833333,308.9244854450226L353.2853385416667,308.8642387390137L353.8871875,305.33346033096313L355.09088541666665,300.5396189689636L355.692734375,305.4530825614929L356.2945833333333,322.23846673965454L356.89643229166666,297.05782198905945L362.31307291666667,309.1826856136322L362.91492187499995,312.74376010894775L364.1186197916667,318.4807906150818L365.9241666666667,309.055312871933L370.13710937499997,323.03029561042786L370.7389583333333,316.8087229728699L373.1463541666667,318.80662751197815L373.748203125,310.93688464164734L374.3500520833333,316.4530255794525L375.55375000000004,316.8677680492401L376.75744791666665,311.31523275375366L379.16484375,304.9818334579468L384.581484375,313.3613827228546L385.18333333333334,324.4843125343323L385.7851822916667,305.0103871822357L386.38703125,302.24973320961L387.5907291666666,312.5409851074219L388.192578125,309.7439968585968L389.998125,292.80998611450195L391.80367187499996,305.04059314727783L396.01661458333336,308.784330368042L396.6184635416667,310.6396164894104L397.22031250000003,312.18425130844116L397.8221614583333,315.04917669296265L399.025859375,320.12287759780884L399.6277083333333,315.30213475227356L400.2295572916667,307.6367139816284L401.4332552083333,301.87972140312195L402.03510416666666,316.84999895095825L402.636953125,312.3785698413849L403.8406510416667,310.6120390892029L405.04434895833333,311.9294307231903L405.64619791666667,316.0111563205719L408.05359374999995,306.5163595676422L412.2665364583333,307.13184928894043L414.07208333333335,321.0968885421753L414.6739322916667,308.10081338882446L415.8776302083333,301.25274109840393L417.081328125,321.3358325958252L418.886875,314.32854437828064L425.50721354166666,313.22101736068726L427.31276041666666,315.02428793907166L427.914609375,317.418399810791L428.5164583333334,311.7882843017578L429.72015625,316.32632875442505L430.9238541666667,313.70073795318604L431.525703125,314.45085525512695L432.7294010416666,307.89806842803955L435.73864583333335,303.8114011287689L436.34049479166663,312.65736293792725L439.95158854166664,299.90916895866394L441.15528645833336,316.20691680908203L441.7571354166667,314.7507219314575L442.35898437500003,315.9149959087372L442.9608333333333,322.1673903465271L443.56268229166665,308.16242694854736L444.16453125,323.49463534355164L444.7663802083333,310.7606956958771L445.3682291666667,309.7676088809967L445.97007812500004,318.76228737831116L446.5719270833333,311.2261018753052L447.775625,314.07357358932495L449.58117187500005,314.47693061828613L450.18302083333333,312.19386434555054L450.78486979166667,313.36895298957825L451.98856770833333,313.42783284187317L454.3959635416667,318.9191300868988L455.59966145833334,320.6158010959625L456.80335937499996,315.1101293563843L459.21075520833335,303.1459536552429L459.8126041666667,315.931458234787L460.41445312499997,312.0802803039551L461.61815104166664,320.15760469436646L462.82184895833336,311.36075949668884L464.025546875,316.5787761211395L465.22924479166664,324.61715269088745L465.83109375000004,313.016770362854L467.636640625,317.21625566482544L468.84033854166665,313.3113648891449L469.4421875,315.32684326171875L470.0440364583334,321.35295581817627L470.64588541666666,300.9836962223053L471.247734375,310.44469714164734L471.8495833333333,310.29549980163574L473.05328125,314.3094985485077L473.6551302083334,320.9756591320038L476.664375,314.4434652328491L477.26622395833334,317.61001467704773L478.469921875,317.2882182598114L479.07177083333335,319.85616087913513L479.6736197916667,315.27389645576477L481.47916666666663,318.55725932121277L482.68286458333336,315.10039615631104L483.8865625,312.8713731765747L485.09026041666664,322.59413409233093L486.29395833333336,285.9060080051422L487.49765625000003,320.0700960159302L488.0995052083333,320.5649571418762L488.70135416666665,316.79253101348877L490.5069010416667,318.9619081020355L492.914296875,319.49567198753357L493.5161458333333,319.14601278305054L494.71984375000005,311.2670624256134L495.32169270833333,313.94510436058044L496.525390625,321.2125904560089L498.9327864583333,316.4637801647186L501.94203124999996,318.9661889076233L506.1549739583333,320.4135067462921L506.75682291666664,318.3618893623352L507.96052083333336,308.96974182128906L508.5623697916667,316.6439645290375L509.16421875,316.2059555053711L509.7660677083333,323.77110028266907L510.36791666666664,307.2795295715332L510.96976562500004,319.2886312007904L512.1734635416666,305.600056886673L512.7753124999999,318.21545577049255L515.1827083333334,322.2046408653259L515.7845572916666,309.01218938827515L516.9882552083333,315.6091511249542L518.191953125,317.3291337490082L519.9975,322.96788597106934L521.2011979166667,299.93296122550964L521.8030468750001,313.56456327438354L522.4048958333334,307.71965646743774L524.2104427083333,312.52661061286926L524.8122916666666,314.62530183792114L525.4141406250001,315.789395570755L526.0159895833334,323.5628728866577L526.6178385416666,316.1022698879242L527.8215364583333,316.8304274082184L528.4233854166666,310.71628046035767L529.0252343750001,318.39606070518494L530.2289322916666,325.94188928604126L530.83078125,313.20347356796265L531.4326302083333,321.70982480049133L532.0344791666666,319.56761956214905L532.636328125,319.3263623714447L533.2381770833333,328.7390878200531L534.441875,329.909024477005L535.0437239583333,310.65556812286377L536.8492708333333,318.29064774513245L539.2566666666667,311.90431666374207L541.0622135416667,325.19033002853394L541.6640625,320.12648248672485L542.2659114583333,322.8905761241913L543.469609375,319.35562205314636L544.0714583333333,322.73184084892273L544.6733072916667,305.5513758659363L545.27515625,320.5779798030853L546.4788541666667,324.34182929992676L547.080703125,315.4428906440735L547.6825520833333,324.8790328502655L550.0899479166667,311.10188341140747L552.49734375,308.8397855758667L553.0991927083334,328.36925625801086L554.3028906249999,320.88012957572937L554.9047395833334,319.8493866920471L555.5065885416667,320.6070291996002L556.1084375,309.2815947532654L556.7102864583334,323.6794009208679L557.3121354166666,324.062961101532L559.1176822916667,323.1997103691101L559.71953125,317.7051086425781L563.330625,313.6539795398712L564.5343229166666,325.18912839889526L565.136171875,317.0032217502594L565.7380208333333,311.63500142097473L566.3398697916667,325.1584417819977L567.5435677083334,315.048846244812L569.3491145833333,326.65329909324646L569.9509635416666,320.3337335586548L571.7565104166666,312.17900919914246L572.358359375,314.30455684661865L572.9602083333333,325.92045521736145L574.1639062500001,319.12283635139465L575.3676041666666,313.0667881965637L577.1731510416666,325.8434908390045L577.775,321.4228456020355L578.9786979166666,316.2434012889862L580.7842447916667,323.3433201313019L581.38609375,313.3898012638092L581.9879427083333,321.57671427726746L583.191640625,313.32706117630005L583.7934895833333,317.8662922382355L584.3953385416667,321.6706817150116L585.5990364583333,313.2884588241577L586.2008854166667,321.7154724597931L586.802734375,318.15774750709534L589.8119791666667,314.3281087875366L592.219375,322.33536314964294L592.8212239583333,319.41146779060364L594.024921875,317.3338351249695L595.2286197916667,320.3088147640228L596.4323177083334,318.94750356674194L597.0341666666667,323.15796875953674L597.636015625,318.9546082019806L598.2378645833334,321.3120403289795L598.8397135416667,318.65344977378845L599.4415624999999,318.1750810146332L600.6452604166667,319.6339945793152L601.8489583333334,323.75175404548645L603.0526562499999,308.89964175224304L604.858203125,317.7222318649292L606.0619010416666,319.2621202468872L606.6637499999999,311.4840466976166L607.2655989583333,316.332261800766L609.6729947916666,327.5666878223419L610.8766927083333,298.7864112854004L611.4785416666667,313.28192496299744L612.6822395833334,319.56267786026L614.4877864583333,326.1145033836365L615.6914843750001,320.25340461730957L616.2933333333334,313.99558782577515L616.8951822916666,321.7936234474182L618.7007291666666,318.2311370372772L620.5062760416666,319.7455508708954L621.108125,311.10723066329956L622.3118229166666,317.92224311828613L623.5155208333333,320.66933369636536L624.71921875,320.0968472957611L627.7284635416667,322.71290016174316L628.9321614583333,322.6005778312683L629.5340104166667,322.73346304893494L630.135859375,320.4846131801605L630.7377083333333,318.602725982666L632.5432552083333,313.7991964817047L636.1543489583333,320.7913591861725L637.358046875,322.744247674942L637.9598958333333,323.88555550575256L638.5617447916667,315.0044460296631L639.16359375,315.10997915267944L639.7654427083334,326.51523184776306L642.1728385416667,311.59591841697693L643.3765364583334,324.76298546791077L643.9783854166667,330.92621898651123L645.7839322916667,317.9511573314667L646.38578125,318.02429151535034L646.9876302083334,321.3229751586914L647.5894791666666,318.940203666687L648.1913281249999,321.6264617443085L649.3950260416667,323.8954689502716L649.996875,318.4384181499481L650.5987239583334,321.84515833854675L651.2005729166666,319.62298464775085L652.4042708333333,320.5636203289032L654.2098177083334,324.19817447662354L655.413515625,319.85378766059875L656.0153645833333,319.98372888565063L657.2190625000001,315.90750074386597L657.8209114583334,322.4206337928772L659.6264583333333,308.493896484375L660.2283072916666,309.0231091976166L661.4320052083334,323.34803652763367L662.0338541666666,325.5259301662445L666.246796875,323.32415413856506L666.8486458333333,322.2238669395447L667.4504947916666,322.631174325943L668.05234375,320.1550962924957L668.6541927083333,323.3648293018341L669.2560416666666,328.5755009651184L669.857890625,318.8119897842407L671.0615885416667,317.28275084495544L671.6634375,316.87922859191895L672.2652864583333,322.6386544704437L674.0708333333333,313.87812852859497L674.6726822916667,321.3901162147522L675.27453125,321.1629481315613L675.8763802083333,329.52879881858826L677.080078125,313.8307843208313L680.691171875,319.22571086883545L681.2930208333333,323.5468010902405L681.8948697916667,325.2853789329529L683.0985677083333,310.62292885780334L685.5059635416667,328.58325147628784L687.3115104166667,311.95245695114136L689.1170572916667,324.19063425064087L691.524453125,304.8197486400604L693.3299999999999,323.5349950790405L693.9318489583334,323.68751192092896L694.5336979166667,323.60489988327026L695.7373958333334,320.42082166671753L696.3392447916666,322.2062780857086L696.9410937499999,320.68600630760193L698.746640625,325.1338233947754L699.3484895833334,313.36685013771057L700.5521875,319.8647825717926L701.7558854166667,318.3037004470825L702.3577343750001,321.78941774368286L703.5614322916666,318.85114789009094L704.7651302083333,314.4482717514038L705.3669791666666,314.27235317230225L706.5706770833334,307.67105054855347L707.774375,317.21595525741577L708.3762239583333,319.0702049732208L708.9780729166666,322.0822548866272L709.5799218750001,321.01077675819397L711.38546875,318.98678183555603L711.9873177083333,309.8839416503906L712.5891666666666,321.8365066051483L714.3947135416666,328.74276781082153L714.9965625,324.7449460029602L719.8113541666667,325.2426459789276L721.6169010416667,321.59754753112793L722.21875,321.5955648422241L723.4224479166667,311.60629749298096L724.6261458333333,318.4969825744629L725.2279947916667,322.0969748497009L727.0335416666666,326.15776205062866L727.635390625,319.3694257736206L728.8390885416667,321.6720485687256L729.4409375,323.992800951004L730.0427864583332,322.582763671875L730.6446354166667,326.84874415397644L732.4501822916667,328.0635166168213L737.2649739583333,327.32293725013733L737.8668229166667,321.74770617485046L738.4686718749999,301.54063653945923L739.6723697916667,323.2162628173828L740.8760677083334,315.9146053791046L741.4779166666666,317.0517075061798L742.079765625,326.26952862739563L743.2834635416666,317.1680703163147L744.4871614583333,330.6403212547302L745.0890104166667,313.8209910392761L745.690859375,317.0823040008545L747.49640625,326.99857234954834L748.0982552083334,319.2665662765503L748.7001041666666,325.8821382522583L751.7093489583333,316.5126714706421L752.913046875,329.0694007873535L753.5148958333333,320.45754647254944L754.71859375,322.7906906604767L755.3204427083334,309.3749463558197L756.5241406250001,319.27563858032227L760.135234375,319.5763614177704L760.7370833333333,319.11027932167053L761.94078125,319.02864360809326L763.1444791666667,320.9280595779419L765.551875,322.4435248374939L766.7555729166668,324.5760118961334L767.9592708333332,316.35600900650024L769.16296875,319.4448130130768L770.3666666666667,325.1261179447174L771.5703645833333,307.59108209609985L772.1722135416666,328.7829773426056L772.7740625,325.05469608306885L773.3759114583333,323.1419270038605L773.9777604166667,323.63982224464417L776.38515625,318.13918232917786L777.5888541666667,312.0674829483032L778.1907031249999,319.7106285095215L781.801796875,319.39363861083984L783.0054947916667,324.9541347026825L784.2091927083334,330.55671787261963L784.8110416666667,309.13561177253723L785.4128906249999,322.74819803237915L789.023984375,323.0040400028229L790.82953125,322.9746150970459L792.0332291666667,319.9350779056549L793.8387760416666,322.8172917366028L795.6443229166666,316.47570633888245L796.2461718750001,308.791134595871L797.4498697916667,323.7900559902191L798.05171875,325.82438492774963L798.6535677083333,313.2302098274231L799.2554166666666,329.2869107723236L800.4591145833334,319.3859632015228L801.0609635416666,319.9236173629761L802.2646614583333,326.3576831817627L802.8665104166666,320.3951518535614L803.468359375,325.1504809856415L805.27390625,320.5285177230835L805.8757552083333,312.9577853679657L807.079453125,321.8094699382782L811.8942447916668,320.7382471561432L812.49609375,313.0324966907501L813.0979427083332,312.3185634613037L813.6997916666667,326.0830056667328L815.5053385416667,316.7533278465271L816.1071874999999,314.7320966720581L816.7090364583333,314.51526260375977L818.5145833333333,320.6015167236328L819.1164322916667,321.32791686058044L819.71828125,318.17554664611816L821.523828125,322.91693687438965L828.7460156249999,318.6121437549591L830.5515624999999,326.1395573616028L831.7552604166666,321.2167811393738L832.357109375,327.4103558063507L833.5608072916666,321.6435248851776L834.16265625,324.4864754676819L835.968203125,324.72154426574707L837.77375,326.88988494873047L838.3755989583334,320.4845681190491L838.9774479166666,309.1568956375122L839.5792968750001,319.45154213905334L840.1811458333333,322.6488833427429L840.7829947916666,318.557980298996L841.3848437500001,319.1660649776459L841.9866927083333,325.98603415489197L843.190390625,309.7755997180939L844.3940885416666,327.93372559547424L844.9959375,315.40048813819885L846.1996354166666,325.4152600765228L847.4033333333333,324.83583426475525L848.60703125,320.5412850379944L849.2088802083333,330.1625533103943L849.8107291666668,329.3093662261963L850.412578125,328.08127069473267L851.0144270833333,320.91090631484985L851.6162760416667,330.0834710597992L854.0236718750001,326.76092004776L857.0329166666668,320.11373019218445L857.634765625,322.95049238204956L858.8384635416667,322.9535565376282L859.4403125,314.3936276435852L861.8477083333333,321.6921157836914L862.4495572916666,328.3993420600891L863.05140625,309.90725326538086L864.2551041666667,324.3118486404419L866.0606510416667,326.0303592681885L867.8661979166667,326.03971695899963L869.0698958333334,316.6966710090637L870.27359375,324.7486710548401L870.8754427083334,323.2975981235504L872.079140625,322.3505036830902L872.6809895833333,317.4707758426666L874.4865364583334,323.3374171257019L875.0883854166667,322.56445384025574L875.6902343749999,324.1939387321472L876.8939322916666,321.0162742137909L877.49578125,321.8948607444763L878.0976302083333,324.00660467147827L879.301328125,325.1067416667938L879.9031770833333,328.82446360588074L880.5050260416667,324.656445980072L881.106875,322.29275035858154L881.7087239583334,318.91602087020874L882.3105729166667,318.0201458930969L885.3198177083333,322.3003206253052L885.9216666666666,315.31102681159973L887.1253645833333,323.8790817260742L889.5327604166666,324.01330375671387L890.134609375,322.9090061187744L891.3383072916666,325.97020268440247L893.745703125,313.4354932308197L894.9494010416668,317.9974801540375L896.1530989583333,322.10337352752686L897.356796875,325.4792318344116L897.9586458333334,304.34282183647156L898.5604947916667,321.06503033638L899.1623437500001,326.35182523727417L900.3660416666667,318.81658601760864L902.1715885416668,325.7324151992798L902.7734375,321.86478996276855L903.9771354166667,328.109899520874L904.578984375,324.77474641799927L905.1808333333333,329.22361493110657L906.3845312499999,324.72950506210327L908.7919270833333,325.2144076824188L909.995625,327.3983995914459L910.5974739583332,324.41964983940125L911.801171875,319.3276240825653L912.4030208333334,328.9941337108612L914.2085677083334,325.04419684410095L914.8104166666666,325.86995673179626L917.8196614583333,327.8317973613739L918.4215104166667,319.12101888656616L919.0233593749999,329.94073247909546L919.6252083333334,324.352463722229L920.8289062499999,317.428808927536L922.0326041666666,318.3617241382599L922.634453125,318.66132044792175L923.2363020833333,324.46795535087585L923.8381510416666,325.1379690170288L924.44,327.0454659461975L925.0418489583333,325.2705388069153L926.8473958333334,322.85240936279297L928.6529427083334,323.40195965766907L929.8566406250001,329.4356575012207L931.0603385416666,323.82574439048767L931.6621875000001,330.2579176425934L932.2640364583333,323.05426812171936L932.8658854166667,327.53326749801636L933.467734375,317.32272005081177L935.8751302083334,322.2669904232025L938.2825260416666,317.6691949367523L939.4862239583333,319.4602539539337L940.0880729166668,315.1088376045227L941.8936197916667,313.35501408576965L942.49546875,320.9465346336365L943.0973177083334,328.39214730262756L944.9028645833333,325.432293176651L946.7084114583333,330.0620069503784L947.3102604166668,315.8926455974579L947.912109375,326.67067766189575L949.1158072916667,326.29401183128357L949.71765625,328.25699400901794L950.3195052083333,327.9365043640137L952.1250520833333,324.5605409145355L953.32875,329.03997588157654L953.9305989583333,323.9206280708313L954.5324479166667,316.9890275001526L955.134296875,328.8933320045471L955.7361458333332,322.2381663322449L956.3379947916667,323.64200019836426L957.5416927083334,310.8445394039154L958.1435416666667,324.5588436126709L959.9490885416666,328.5594742298126L962.9583333333333,323.66334414482117L970.1805208333333,331.16035652160645L970.7823697916667,334.0710639953613L971.38421875,319.07559728622437L971.9860677083334,319.9668459892273L974.3934635416666,320.22636795043945L976.1990104166666,314.6558532714844L976.8008593750001,322.87965631484985L978.0045572916667,324.7791323661804L978.60640625,326.4933922290802L979.2082552083333,329.18128752708435L979.8101041666666,323.237832069397L981.0138020833334,327.75157356262207L982.2175000000001,324.59765625L982.8193489583333,312.7721486091614L983.4211979166666,328.62179374694824L984.6248958333333,321.2569305896759L985.2267447916668,318.0079643726349L985.82859375,317.2675051689148L987.0322916666667,316.48536443710327L988.2359895833334,326.9995336532593L991.8470833333333,316.0921311378479L993.05078125,319.50285172462463L996.0600260416667,320.97678565979004L996.6618749999999,315.65281534194946L999.0692708333333,327.2371709346771L1002.078515625,319.9655091762543L1002.6803645833334,327.9623394012451L1005.0877604166666,326.21287178993225L1007.49515625,324.16756296157837L1009.3007031249999,320.46187233924866L1011.1062499999999,327.34328985214233L1011.7080989583334,327.6756155490875L1012.3099479166666,319.9483709335327L1014.1154947916666,326.16066098213196L1014.71734375,316.01408529281616L1016.522890625,325.40512132644653L1017.7265885416667,323.8891603946686L1018.3284375,324.51680159568787L1018.9302864583334,322.6349594593048L1023.1432291666667,317.30121088027954L1023.745078125,325.2752401828766L1024.3469270833332,322.50624990463257L1024.9487760416666,331.9213936328888L1026.1524739583333,327.44209384918213L1026.7543229166668,315.4140214920044L1027.356171875,324.77701449394226L1027.9580208333334,331.4793291091919L1028.5598697916666,311.4113781452179L1029.16171875,324.046213388443L1029.7635677083333,325.8177909851074L1030.3654166666668,312.3569254875183L1030.967265625,327.67567563056946L1032.7728124999999,325.19429540634155L1033.9765104166665,318.16713523864746L1036.9857552083333,324.2435510158539L1037.5876041666668,328.56668400764465L1038.189453125,329.8557472229004L1039.3931510416667,327.78433299064636L1043.6060937500001,328.7789068222046L1044.8097916666668,321.72212648391724L1047.8190364583334,328.6727879047394L1048.4208854166666,324.62195920944214L1050.8282812500001,324.29606223106384L1052.0319791666668,326.25755739212036L1052.633828125,320.080685377121L1053.8375260416667,316.3882427215576L1054.439375,327.9154758453369L1055.6430729166666,323.065878868103L1056.244921875,321.4492063522339L1059.856015625,323.8844139575958L1060.4578645833333,323.4257218837738L1061.0597135416667,330.12539291381836L1064.0689583333333,321.28377199172974L1064.6708072916667,320.03412222862244L1070.0874479166666,328.2183015346527L1070.6892968749999,322.58010506629944L1072.49484375,328.60650300979614L1073.0966927083334,326.87106442451477L1073.6985416666666,321.2524244785309L1074.9022395833333,326.7299931049347L1076.1059375,330.4505989551544L1077.3096354166667,323.2109155654907L1079.1151822916665,322.27998304367065L1079.71703125,324.7185251712799L1080.9207291666667,326.4750974178314L1081.522578125,326.4848005771637L1082.7262760416668,328.34295558929443L1083.9299739583332,321.71632862091064L1084.5318229166667,318.0832164287567L1085.7355208333333,317.40823101997375L1086.3373697916666,327.3493731021881L1088.7447656250001,327.1266510486603L1089.3466145833333,322.738374710083L1090.5503125,327.39176058769226L1091.1521614583332,328.79494857788086L1091.7540104166667,327.24284863471985L1092.355859375,323.0940570831299L1093.5595572916666,327.04181599617004L1094.16140625,326.63546991348267L1094.7632552083332,313.7777774333954L1095.3651041666667,322.27663350105286L1097.7725,321.6841850280762L1098.9761979166667,327.7689971923828L1099.578046875,325.6690442562103L1100.1798958333334,324.0472047328949L1101.38359375,329.4814546108246L1102.5872916666667,322.5100200176239L1103.7909895833334,320.1066105365753L1104.9946875,327.895934343338L1105.5965364583333,328.29272747039795L1106.1983854166667,326.17614698410034L1107.4020833333334,328.63890194892883L1108.0039322916666,315.2897279262543L1108.6057812499998,319.7350516319275L1109.2076302083333,325.01372051239014L1109.8094791666667,326.4622550010681L1110.411328125,322.77119421958923L1111.6150260416666,327.92249035835266L1112.216875,326.09155225753784L1114.022421875,326.71602416038513L1114.6242708333332,327.3133542537689L1115.8279687499999,321.38030791282654L1116.4298177083333,326.57741618156433L1118.2353645833334,320.86622071266174L1118.8372135416666,322.3656892776489L1119.4390625,317.00229048728943L1120.0409114583333,317.7166292667389L1120.6427604166668,330.6546206474304L1121.8464583333332,327.0401186943054L1124.2538541666665,323.23584938049316L1125.4575520833334,319.6590485572815L1126.0594010416667,328.3690309524536L1126.66125,329.21640515327454L1128.466796875,330.80314207077026L1129.0686458333332,324.8549551963806L1130.27234375,325.94957971572876L1132.6797395833335,324.27162408828735L1133.2815885416667,317.44913148880005L1133.8834375000001,327.40379190444946L1134.4852864583333,330.78849720954895L1135.688984375,328.10970425605774L1138.0963802083334,327.26321625709534L1138.6982291666666,321.4632954597473L1139.9019270833332,318.8051404953003L1140.5037760416667,329.90294122695923L1141.1056250000001,330.5176498889923L1141.7074739583334,320.4157598018646L1142.911171875,321.18170857429504L1144.71671875,326.218955039978L1145.3185677083334,326.2304456233978L1145.9204166666666,316.8702914714813L1146.522265625,314.87554121017456L1147.1241145833333,324.97134804725647L1148.9296614583334,321.7872998714447L1149.5315104166666,331.150803565979L1151.93890625,316.9170949459076L1152.5407552083334,324.48634028434753L1153.7444531249998,325.5736048221588L1154.3463020833333,328.03406167030334L1154.9481510416667,314.981885433197L1157.355546875,319.5732972621918L1159.16109375,329.4730131626129L1160.3647916666666,321.49094796180725L1162.1703385416668,325.3601653575897L1162.7721875,323.4267282485962L1163.3740364583334,323.85455346107483L1163.9758854166666,321.50497698783875L1164.577734375,327.0079300403595L1165.7814322916668,328.5099821090698L1166.38328125,310.3926215171814L1166.9851302083332,323.6076936721802L1168.7906770833333,324.5414049625397L1169.3925260416665,325.1345443725586L1170.5962239583334,317.7775368690491L1171.1980729166667,318.8814740180969L1171.799921875,320.32354974746704L1173.60546875,322.7607400417328L1174.8091666666667,324.4405732154846L1175.411015625,325.1219873428345L1176.0128645833333,318.0955331325531L1176.6147135416666,332.0161271095276L1180.82765625,324.1253707408905L1181.4295052083332,328.3050742149353L1183.2350520833334,326.6788487434387L1186.2442968750001,327.9296851158142L1188.6516927083333,328.6019518375397L1189.855390625,317.9465160369873L1191.0590885416666,329.7677128314972L1192.2627864583333,325.31573510169983L1192.8646354166667,314.9722123146057L1193.4664843750002,328.9361550807953L1194.0683333333334,317.6941587924957L1196.4757291666667,327.44994950294495L1197.077578125,324.52351570129395L1197.6794270833334,325.4039647579193L1198.8831249999998,324.13056778907776L1199.4849739583333,323.20112228393555L1200.0868229166667,327.49483036994934L1202.49421875,327.66699385643005L1203.6979166666667,331.6661374568939L1204.9016145833332,311.0130078792572L1206.1053124999999,330.5535936355591L1206.7071614583333,322.658331155777L1207.910859375,324.30744767189026L1210.3182552083333,323.5744686126709L1211.521953125,325.5732743740082L1212.1238020833332,322.9761471748352L1213.9293489583333,320.5038843154907L1215.7348958333334,320.9068658351898L1218.1422916666668,325.4405093193054L1219.3459895833332,327.47962975502014L1219.9478385416667,328.50110507011414L1221.7533854166666,324.1080222129822L1224.1607812500001,323.1673414707184L1224.7626302083333,316.448970079422L1225.3644791666668,326.1625235080719L1225.966328125,331.16514801979065L1227.771875,322.0619173049927L1228.3737239583334,326.7471613883972L1228.9755729166666,325.7655351161957L1230.1792708333332,322.5062048435211L1230.7811197916667,316.85977721214294L1231.3829687500001,331.10416531562805L1232.5866666666668,326.63339710235596L1233.188515625,327.97615814208984L1234.9940625,323.17180252075195L1235.5959114583334,325.4577076435089L1236.799609375,322.14852476119995L1238.0033072916667,328.71299743652344L1238.6051562500002,322.78257966041565L1239.2070052083334,331.0962495803833L1243.4199479166666,329.48919010162354L1244.0217968749998,327.224613904953L1244.6236458333333,323.91832995414734L1245.2254947916667,322.08564949035645L1248.8365885416667,320.4653420448303L1249.4384375,330.8385901451111L1250.0402864583332,331.48125171661377L1250.6421354166666,326.25267577171326L1251.2439843749999,325.84880805015564L1252.4476822916668,326.97484016418457L1254.2532291666666,328.70129656791687L1256.0587760416668,328.8132884502411L1258.4661718749999,321.7014434337616L1259.0680208333333,323.4297773838043L1259.6698697916665,325.2935199737549L1260.27171875,323.3542699813843L1260.8735677083334,331.11086440086365L1262.077265625,322.73136019706726L1262.6791145833333,324.25741481781006L1265.0865104166667,313.8484332561493L1266.8920572916666,319.8200068473816L1267.49390625,330.0181324481964L1269.2994531250001,326.20516633987427L1269.9013020833333,328.6373248100281L1270.5031510416668,330.4764039516449L1271.105,331.49546098709106L1271.7068489583332,319.64713740348816L1272.910546875,326.499475479126L1273.5123958333334,326.931040763855L1274.1142447916666,325.27663707733154L1274.71609375,326.6182565689087L1275.3179427083332,330.1106278896332L1277.7253385416668,315.42753982543945L1278.3271875,325.3408191204071L1278.9290364583333,319.98055958747864L1280.7345833333334,323.95114946365356L1281.93828125,326.4061839580536L1282.5401302083333,330.0499005317688L1283.1419791666667,326.3234066963196L1284.3456770833334,328.09342217445374L1284.9475260416666,328.5580472946167L1285.549375,322.76365399360657L1286.7530729166667,320.7272672653198L1287.354921875,329.30478501319885L1289.1604687499998,327.4362359046936L1290.3641666666667,315.6386661529541L1291.5678645833334,326.32143902778625L1292.1697135416666,331.1252238750458L1293.3734114583333,319.38730001449585L1295.1789583333332,325.861154794693L1296.3826562499999,319.5358364582062L1296.9845052083333,330.3718922138214L1297.5863541666668,326.1948022842407L1298.7900520833334,321.697913646698L1299.99375,322.62985253334045L1300.5955989583333,321.9924781322479L1301.1974479166668,326.4885106086731L1303.6048437499999,320.9173800945282L1304.2066927083333,328.8267617225647L1305.410390625,331.7186336517334L1306.6140885416667,318.57130336761475L1309.6233333333332,328.99619150161743L1312.0307291666666,329.5734543800354L1312.632578125,325.3316717147827L1313.2344270833335,328.21029567718506L1313.8362760416667,319.8253540992737L1321.0584635416667,330.42586040496826L1322.2621614583334,329.46403098106384L1323.465859375,321.9263734817505" style="fill: none;" fill="none"></path></g></g></g></g></g><g><g><span fill="rgb(0, 0, 0)" stroke="none" stroke-width="1px">Alt + Scroll to Zoom</span></g></g></g><g transform="translate(51, 378)" clip-path="url(#clip_1)"><clipPath id="clip_1"><rect width="1444" height="22"></rect></clipPath><g><g><line x1="0" y1="0" x2="0" y2="5" style="visibility: inherit;" fill="rgb(0, 0, 0)" stroke="rgb(204, 204, 204)" stroke-width="1px"></line><line x1="120.36979166666666" y1="0" x2="120.36979166666666" y2="5" style="visibility: inherit;" fill="rgb(0, 0, 0)" stroke="rgb(204, 204, 204)" stroke-width="1px"></line><line x1="240.73958333333331" y1="0" x2="240.73958333333331" y2="5" style="visibility: inherit;" fill="rgb(0, 0, 0)" stroke="rgb(204, 204, 204)" stroke-width="1px"></line><line x1="361.109375" y1="0" x2="361.109375" y2="5" style="visibility: inherit;" fill="rgb(0, 0, 0)" stroke="rgb(204, 204, 204)" stroke-width="1px"></line><line x1="481.47916666666663" y1="0" x2="481.47916666666663" y2="5" style="visibility: inherit;" fill="rgb(0, 0, 0)" stroke="rgb(204, 204, 204)" stroke-width="1px"></line><line x1="601.8489583333334" y1="0" x2="601.8489583333334" y2="5" style="visibility: inherit;" fill="rgb(0, 0, 0)" stroke="rgb(204, 204, 204)" stroke-width="1px"></line><line x1="722.21875" y1="0" x2="722.21875" y2="5" style="visibility: inherit;" fill="rgb(0, 0, 0)" stroke="rgb(204, 204, 204)" stroke-width="1px"></line><line x1="842.5885416666667" y1="0" x2="842.5885416666667" y2="5" style="visibility: inherit;" fill="rgb(0, 0, 0)" stroke="rgb(204, 204, 204)" stroke-width="1px"></line><line x1="962.9583333333333" y1="0" x2="962.9583333333333" y2="5" style="visibility: inherit;" fill="rgb(0, 0, 0)" stroke="rgb(204, 204, 204)" stroke-width="1px"></line><line x1="1083.328125" y1="0" x2="1083.328125" y2="5" style="visibility: inherit;" fill="rgb(0, 0, 0)" stroke="rgb(204, 204, 204)" stroke-width="1px"></line><line x1="1203.6979166666667" y1="0" x2="1203.6979166666667" y2="5" style="visibility: inherit;" fill="rgb(0, 0, 0)" stroke="rgb(204, 204, 204)" stroke-width="1px"></line><line x1="1324.0677083333333" y1="0" x2="1324.0677083333333" y2="5" style="visibility: inherit;" fill="rgb(0, 0, 0)" stroke="rgb(204, 204, 204)" stroke-width="1px"></line><line x1="1444.4375" y1="0" x2="1444.4375" y2="5" style="visibility: inherit;" fill="rgb(0, 0, 0)" stroke="rgb(204, 204, 204)" stroke-width="1px"></line></g><g transform="translate(0, 8)"><text x="0" y="0" dx="0em" dy="0.95em" style="text-anchor: middle; visibility: hidden; font-family: Roboto, sans-serif; font-size: 12px; font-weight: 200;" fill="rgb(50, 49, 63)" stroke="none" stroke-width="1px">-200</text><text x="120.36979166666666" y="0" dx="0em" dy="0.95em" style="text-anchor: middle; visibility: inherit; font-family: Roboto, sans-serif; font-size: 12px; font-weight: 200;" fill="rgb(50, 49, 63)" stroke="none" stroke-width="1px">0</text><text x="240.73958333333331" y="0" dx="0em" dy="0.95em" style="text-anchor: middle; visibility: inherit; font-family: Roboto, sans-serif; font-size: 12px; font-weight: 200;" fill="rgb(50, 49, 63)" stroke="none" stroke-width="1px">200</text><text x="361.109375" y="0" dx="0em" dy="0.95em" style="text-anchor: middle; visibility: inherit; font-family: Roboto, sans-serif; font-size: 12px; font-weight: 200;" fill="rgb(50, 49, 63)" stroke="none" stroke-width="1px">400</text><text x="481.47916666666663" y="0" dx="0em" dy="0.95em" style="text-anchor: middle; visibility: inherit; font-family: Roboto, sans-serif; font-size: 12px; font-weight: 200;" fill="rgb(50, 49, 63)" stroke="none" stroke-width="1px">600</text><text x="601.8489583333334" y="0" dx="0em" dy="0.95em" style="text-anchor: middle; visibility: inherit; font-family: Roboto, sans-serif; font-size: 12px; font-weight: 200;" fill="rgb(50, 49, 63)" stroke="none" stroke-width="1px">800</text><text x="722.21875" y="0" dx="0em" dy="0.95em" style="text-anchor: middle; visibility: inherit; font-family: Roboto, sans-serif; font-size: 12px; font-weight: 200;" fill="rgb(50, 49, 63)" stroke="none" stroke-width="1px">1k</text><text x="842.5885416666667" y="0" dx="0em" dy="0.95em" style="text-anchor: middle; visibility: inherit; font-family: Roboto, sans-serif; font-size: 12px; font-weight: 200;" fill="rgb(50, 49, 63)" stroke="none" stroke-width="1px">1.2k</text><text x="962.9583333333333" y="0" dx="0em" dy="0.95em" style="text-anchor: middle; visibility: inherit; font-family: Roboto, sans-serif; font-size: 12px; font-weight: 200;" fill="rgb(50, 49, 63)" stroke="none" stroke-width="1px">1.4k</text><text x="1083.328125" y="0" dx="0em" dy="0.95em" style="text-anchor: middle; visibility: inherit; font-family: Roboto, sans-serif; font-size: 12px; font-weight: 200;" fill="rgb(50, 49, 63)" stroke="none" stroke-width="1px">1.6k</text><text x="1203.6979166666667" y="0" dx="0em" dy="0.95em" style="text-anchor: middle; visibility: inherit; font-family: Roboto, sans-serif; font-size: 12px; font-weight: 200;" fill="rgb(50, 49, 63)" stroke="none" stroke-width="1px">1.8k</text><text x="1324.0677083333333" y="0" dx="0em" dy="0.95em" style="text-anchor: middle; visibility: inherit; font-family: Roboto, sans-serif; font-size: 12px; font-weight: 200;" fill="rgb(50, 49, 63)" stroke="none" stroke-width="1px">2k</text><text x="1444.4375" y="0" dx="0em" dy="0.95em" style="text-anchor: middle; visibility: hidden; font-family: Roboto, sans-serif; font-size: 12px; font-weight: 200;" fill="rgb(50, 49, 63)" stroke="none" stroke-width="1px">2.2k</text></g><line x1="0" y1="0" x2="1444.4375" y2="0" fill="rgb(0, 0, 0)" stroke="rgb(204, 204, 204)" stroke-width="1px"></line></g></g></g></g></svg>