<svg viewBox="0 0 1496 400" xmlns="http://www.w3.org/2000/svg"><g><g><g><g><g><line x1="50" y1="378" x2="45" y2="378" style="visibility: inherit;" fill="rgb(0, 0, 0)" stroke="rgb(204, 204, 204)" stroke-width="1px"></line><line x1="50" y1="336" x2="45" y2="336" style="visibility: inherit;" fill="rgb(0, 0, 0)" stroke="rgb(204, 204, 204)" stroke-width="1px"></line><line x1="50" y1="294" x2="45" y2="294" style="visibility: inherit;" fill="rgb(0, 0, 0)" stroke="rgb(204, 204, 204)" stroke-width="1px"></line><line x1="50" y1="252" x2="45" y2="252" style="visibility: inherit;" fill="rgb(0, 0, 0)" stroke="rgb(204, 204, 204)" stroke-width="1px"></line><line x1="50" y1="210" x2="45" y2="210" style="visibility: inherit;" fill="rgb(0, 0, 0)" stroke="rgb(204, 204, 204)" stroke-width="1px"></line><line x1="50" y1="168" x2="45" y2="168" style="visibility: inherit;" fill="rgb(0, 0, 0)" stroke="rgb(204, 204, 204)" stroke-width="1px"></line><line x1="50" y1="126.00000000000001" x2="45" y2="126.00000000000001" style="visibility: inherit;" fill="rgb(0, 0, 0)" stroke="rgb(204, 204, 204)" stroke-width="1px"></line><line x1="50" y1="84.00000000000004" x2="45" y2="84.00000000000004" style="visibility: inherit;" fill="rgb(0, 0, 0)" stroke="rgb(204, 204, 204)" stroke-width="1px"></line><line x1="50" y1="42.00000000000002" x2="45" y2="42.00000000000002" style="visibility: inherit;" fill="rgb(0, 0, 0)" stroke="rgb(204, 204, 204)" stroke-width="1px"></line><line x1="50" y1="0" x2="45" y2="0" style="visibility: inherit;" fill="rgb(0, 0, 0)" stroke="rgb(204, 204, 204)" stroke-width="1px"></line></g><g transform="translate(40, 0)"><text x="0" y="378" dx="0em" dy="0.3em" style="text-anchor: end; visibility: hidden; font-family: Roboto, sans-serif; font-size: 12px; font-weight: 200;" fill="rgb(50, 49, 63)" stroke="none" stroke-width="1px">-0.2</text><text x="0" y="336" dx="0em" dy="0.3em" style="text-anchor: end; visibility: inherit; font-family: Roboto, sans-serif; font-size: 12px; font-weight: 200;" fill="rgb(50, 49, 63)" stroke="none" stroke-width="1px">0</text><text x="0" y="294" dx="0em" dy="0.3em" style="text-anchor: end; visibility: inherit; font-family: Roboto, sans-serif; font-size: 12px; font-weight: 200;" fill="rgb(50, 49, 63)" stroke="none" stroke-width="1px">0.2</text><text x="0" y="252" dx="0em" dy="0.3em" style="text-anchor: end; visibility: inherit; font-family: Roboto, sans-serif; font-size: 12px; font-weight: 200;" fill="rgb(50, 49, 63)" stroke="none" stroke-width="1px">0.4</text><text x="0" y="210" dx="0em" dy="0.3em" style="text-anchor: end; visibility: inherit; font-family: Roboto, sans-serif; font-size: 12px; font-weight: 200;" fill="rgb(50, 49, 63)" stroke="none" stroke-width="1px">0.6</text><text x="0" y="168" dx="0em" dy="0.3em" style="text-anchor: end; visibility: inherit; font-family: Roboto, sans-serif; font-size: 12px; font-weight: 200;" fill="rgb(50, 49, 63)" stroke="none" stroke-width="1px">0.8</text><text x="0" y="126.00000000000001" dx="0em" dy="0.3em" style="text-anchor: end; visibility: inherit; font-family: Roboto, sans-serif; font-size: 12px; font-weight: 200;" fill="rgb(50, 49, 63)" stroke="none" stroke-width="1px">1</text><text x="0" y="84.00000000000004" dx="0em" dy="0.3em" style="text-anchor: end; visibility: inherit; font-family: Roboto, sans-serif; font-size: 12px; font-weight: 200;" fill="rgb(50, 49, 63)" stroke="none" stroke-width="1px">1.2</text><text x="0" y="42.00000000000002" dx="0em" dy="0.3em" style="text-anchor: end; visibility: inherit; font-family: Roboto, sans-serif; font-size: 12px; font-weight: 200;" fill="rgb(50, 49, 63)" stroke="none" stroke-width="1px">1.4</text><text x="0" y="0" dx="0em" dy="0.3em" style="text-anchor: end; visibility: hidden; font-family: Roboto, sans-serif; font-size: 12px; font-weight: 200;" fill="rgb(50, 49, 63)" stroke="none" stroke-width="1px">1.6</text></g><line x1="50" y1="0" x2="50" y2="378" fill="rgb(0, 0, 0)" stroke="rgb(204, 204, 204)" stroke-width="1px"></line></g></g><g transform="translate(50, 0)" clip-path="url(#clip_0)"><clipPath id="clip_0"><rect width="1446" height="378"></rect></clipPath><g><g><g><line x1="0" y1="0" x2="0" y2="378" fill="rgb(0, 0, 0)" stroke="rgb(60, 60, 60)" stroke-width="1px" opacity="0.25"></line><line x1="120.5" y1="0" x2="120.5" y2="378" fill="rgb(0, 0, 0)" stroke="rgb(60, 60, 60)" stroke-width="1px" opacity="0.25"></line><line x1="241" y1="0" x2="241" y2="378" fill="rgb(0, 0, 0)" stroke="rgb(60, 60, 60)" stroke-width="1px" opacity="0.25"></line><line x1="361.5" y1="0" x2="361.5" y2="378" fill="rgb(0, 0, 0)" stroke="rgb(60, 60, 60)" stroke-width="1px" opacity="0.25"></line><line x1="482" y1="0" x2="482" y2="378" fill="rgb(0, 0, 0)" stroke="rgb(60, 60, 60)" stroke-width="1px" opacity="0.25"></line><line x1="602.5" y1="0" x2="602.5" y2="378" fill="rgb(0, 0, 0)" stroke="rgb(60, 60, 60)" stroke-width="1px" opacity="0.25"></line><line x1="723" y1="0" x2="723" y2="378" fill="rgb(0, 0, 0)" stroke="rgb(60, 60, 60)" stroke-width="1px" opacity="0.25"></line><line x1="843.5" y1="0" x2="843.5" y2="378" fill="rgb(0, 0, 0)" stroke="rgb(60, 60, 60)" stroke-width="1px" opacity="0.25"></line><line x1="964" y1="0" x2="964" y2="378" fill="rgb(0, 0, 0)" stroke="rgb(60, 60, 60)" stroke-width="1px" opacity="0.25"></line><line x1="1084.5" y1="0" x2="1084.5" y2="378" fill="rgb(0, 0, 0)" stroke="rgb(60, 60, 60)" stroke-width="1px" opacity="0.25"></line><line x1="1205" y1="0" x2="1205" y2="378" fill="rgb(0, 0, 0)" stroke="rgb(60, 60, 60)" stroke-width="1px" opacity="0.25"></line><line x1="1325.5" y1="0" x2="1325.5" y2="378" fill="rgb(0, 0, 0)" stroke="rgb(60, 60, 60)" stroke-width="1px" opacity="0.25"></line><line x1="1446" y1="0" x2="1446" y2="378" fill="rgb(0, 0, 0)" stroke="rgb(60, 60, 60)" stroke-width="1px" opacity="0.25"></line></g><g><line x1="0" y1="378" x2="1446" y2="378" fill="rgb(0, 0, 0)" stroke="rgb(60, 60, 60)" stroke-width="1px" opacity="0.25"></line><line x1="0" y1="336" x2="1446" y2="336" fill="rgb(0, 0, 0)" stroke="rgb(60, 60, 60)" stroke-width="1px" opacity="0.25"></line><line x1="0" y1="294" x2="1446" y2="294" fill="rgb(0, 0, 0)" stroke="rgb(60, 60, 60)" stroke-width="1px" opacity="0.25"></line><line x1="0" y1="252" x2="1446" y2="252" fill="rgb(0, 0, 0)" stroke="rgb(60, 60, 60)" stroke-width="1px" opacity="0.25"></line><line x1="0" y1="210" x2="1446" y2="210" fill="rgb(0, 0, 0)" stroke="rgb(60, 60, 60)" stroke-width="1px" opacity="0.25"></line><line x1="0" y1="168" x2="1446" y2="168" fill="rgb(0, 0, 0)" stroke="rgb(60, 60, 60)" stroke-width="1px" opacity="0.25"></line><line x1="0" y1="126.00000000000001" x2="1446" y2="126.00000000000001" fill="rgb(0, 0, 0)" stroke="rgb(60, 60, 60)" stroke-width="1px" opacity="0.25"></line><line x1="0" y1="84.00000000000004" x2="1446" y2="84.00000000000004" fill="rgb(0, 0, 0)" stroke="rgb(60, 60, 60)" stroke-width="1px" opacity="0.25"></line><line x1="0" y1="42.00000000000002" x2="1446" y2="42.00000000000002" fill="rgb(0, 0, 0)" stroke="rgb(60, 60, 60)" stroke-width="1px" opacity="0.25"></line><line x1="0" y1="0" x2="1446" y2="0" fill="rgb(0, 0, 0)" stroke="rgb(60, 60, 60)" stroke-width="1px" opacity="0.25"></line></g></g></g><g><g><line x1="0" y1="336" x2="1446" y2="336" fill="rgb(0, 0, 0)" stroke="rgb(153, 153, 153)" stroke-width="1.5px"></line></g></g><g><g><line x1="120.5" y1="0" x2="120.5" y2="378" fill="rgb(0, 0, 0)" stroke="rgb(153, 153, 153)" stroke-width="1.5px"></line></g></g><g><g><g><g><g><path stroke="rgb(51, 187, 238)" stroke-width="2px" d="M123.5125,81.82256197929385L124.115,93.64206647872926L126.52499999999999,135.01428759098053L127.12750000000001,143.3043555021286L128.33249999999998,142.7561119794846L128.935,147.80050313472748L129.5375,152.26042664051056L130.7425,156.62354385852817L131.345,158.769028544426L131.9475,158.5884711742401L132.54999999999998,163.1009910106659L134.96,165.9520951509476L140.3825,180.59477841854095L140.985,181.50923109054568L142.19,179.61313462257385L143.9975,185.3350195884705L144.6,186.52253007888794L145.805,188.59989738464355L147.01,192.76563441753387L147.6125,191.89469075202942L148.8175,190.95593011379242L150.02249999999998,192.38742148876193L150.625,196.54701268672946L152.4325,197.33877396583557L153.035,198.85103738307956L153.6375,198.86162674427035L154.24,201.0531738996506L154.8425,200.1846835613251L156.65,204.9248371124268L157.2525,202.78557336330417L158.4575,208.48897075653076L159.6625,207.70414388179782L160.26500000000001,206.02297639846805L160.8675,208.46243476867676L161.47,210.12003278732303L163.2775,208.07288146018982L163.88,210.54941511154178L164.48250000000002,214.19348216056824L165.085,214.26583027839663L166.29000000000002,212.01287484169006L168.0975,216.37293791770938L171.10999999999999,218.1029716730118L171.7125,218.97446608543396L172.315,221.83219170570374L172.9175,219.78795683383944L173.51999999999998,220.8181414604187L174.1225,219.64966928958896L177.135,225.93763446807864L181.95499999999998,230.62058544158938L183.7625,233.06403046846393L184.365,234.7838190793991L188.58249999999998,237.91731244325638L190.39,238.64212042093277L191.595,241.54898142814633L192.1975,241.93516141176227L192.8,240.8004850745201L195.21,244.48221570253372L195.8125,242.02485805749893L196.415,243.79164165258408L198.2225,247.04756355285642L198.82500000000002,245.8186656832695L200.63250000000002,249.30542564392093L203.0425,249.83509397506717L204.24749999999997,253.35521793365476L205.45250000000001,254.6465629935265L206.05499999999998,255.28146779537198L206.6575,254.49753588438037L207.26000000000002,256.12713968753815L209.67,258.58809596300125L210.875,259.71210157871246L212.6825,261.50333082675934L213.285,262.14254146814346L213.8875,263.5543248653412L215.0925,265.9990904331207L215.695,265.2043501138687L216.2975,265.35042321681976L218.10500000000002,268.9241886734963L219.31,267.5948420763016L219.9125,269.30302119255066L221.1175,270.75657999515533L221.71999999999997,271.9401601552963L223.52749999999997,272.6740930080414L226.54000000000002,276.49921810626984L227.14249999999998,279.0146795511246L227.745,277.27633452415466L228.95,279.4833213686943L229.5525,279.31228941679L230.7575,280.7293549776077L231.9625,281.13350307941437L232.565,281.6232485175133L233.16750000000002,281.9702253341675L233.76999999999998,282.1209046840668L234.975,283.4293854832649L235.5775,283.69550263881683L239.795,287.54573053121567L242.205,288.15589866042137L244.61499999999998,290.8354482650757L245.2175,289.2799731194973L245.82000000000002,291.2651497721672L248.23,291.05547165870667L250.0375,293.4390918016434L251.845,293.33731001615524L252.44750000000002,292.8802119791508L254.25500000000002,295.26423266530037L254.8575,296.0403633713722L256.0625,294.56027483940125L256.66499999999996,295.9550226330757L257.2675,295.6927544474602L258.47249999999997,297.4897383749485L259.075,297.5371558070183L260.28,296.16139939427376L260.8825,298.5521792471409L261.485,298.0110735297203L263.2925,299.38500559329987L265.09999999999997,299.09376686811447L268.1125,299.41506510972977L269.3175,301.4445017874241L270.5225,301.05155324935913L271.125,300.7239527106285L274.1375,302.39984115958214L275.945,301.90507328510284L276.5475,302.08063012361526L277.15000000000003,302.83681190013885L277.7525,303.93540492653847L278.9575,302.7701558768749L281.3675,302.9893750548363L282.5725,304.1290206313133L283.77750000000003,303.77917742729187L284.9825,303.7715514600277L287.995,304.3017361164093L289.2,306.1082047820091L291.61,305.962090998888L294.6225,306.85397243499756L295.8275,305.3175481259823L296.43,305.9527408182621L298.2375,306.82129687070847L299.4425,306.3845889866352L300.04499999999996,307.1839856207371L300.6475,307.48137018084526L301.85249999999996,306.88172256946564L302.455,307.6413965821266L303.0575,308.328412681818L305.4675,307.86722472310066L306.07,307.714351773262L307.275,307.0299579799175L309.0825,307.6269363462925L311.4925,308.9264299571514L312.09499999999997,309.48725616931915L312.6975,309.59820663928986L313.3,308.9011268913746L314.505,307.8200482428074L316.3125,309.193329423666L316.915,310.7594690322876L317.5175,308.77475863695145L319.325,309.70374977588654L319.9275,309.1185279786587L321.1325,309.04999127984047L324.7475,309.69768530130386L325.9525,310.64893475174904L327.76,310.5333858579397L328.3625,309.7812454998493L329.5675,310.4902664422989L330.17,310.5857521891594L333.1825,311.1619476824999L333.785,311.6704983115196L334.99,309.99658128619194L336.195,310.5658627152443L336.7975,310.5087070763111L337.4,311.3031000494957L339.2075,311.4341371357441L339.81,311.8729650825262L341.6175,311.4170624166727L342.21999999999997,311.71877628564835L343.425,311.3931972384453L344.0275,311.35873018205166L345.23249999999996,312.00184455513954L347.6425,311.17500288784504L348.245,311.66555567085743L348.84749999999997,312.4379969984293L350.0525,311.9476241469383L350.655,311.62682032585144L352.4625,312.0151485353708L353.065,312.6383781284094L353.6675,311.99347069859505L354.27,312.7111502587795L355.47499999999997,311.99243491888046L356.0775,312.36013984680176L356.68,312.144135966897L357.28249999999997,312.590344235301L362.70500000000004,312.2260673940182L363.30749999999995,312.1504617333412L364.5125,312.6276839375496L366.32000000000005,312.3444247841835L370.53749999999997,313.15428717434406L371.14,313.5945123285055L373.55,313.38553516566753L374.1525,312.9807267934084L374.755,313.6212814450264L375.96000000000004,313.2536578774452L377.16499999999996,313.49216571450233L379.575,313.62973353266716L384.9975,314.36340352892876L385.6,313.627871632576L386.2025,313.85481065511703L386.805,313.88726560771465L388.01,313.9973132908344L388.6125,314.2442857325077L390.42,313.6052910089493L392.22749999999996,314.1968792527914L396.445,313.96727880835533L397.0475,314.24287600815296L397.65000000000003,314.3844179660082L398.25249999999994,314.25273156166077L399.4575,314.2993134856224L400.06,314.81625205278397L400.6625,314.3165368437767L401.86749999999995,314.7221525609493L402.46999999999997,314.5591956228018L403.0725,314.142222315073L404.27750000000003,315.1744738072157L405.48249999999996,314.2598990947008L406.085,314.30158062279224L408.49499999999995,315.2727179825306L412.7125,314.4320215880871L414.52000000000004,314.874416872859L415.12250000000006,315.81989599764347L416.3275,314.8029997050762L417.5325,314.7121968716383L419.34,315.1601622104645L425.9675,315.74305272102356L427.775,315.67170909047127L428.3775,315.38296906650066L428.98,315.69852671027184L430.185,315.37160834670067L431.39,316.32296419143677L431.9925,315.3554598838091L433.1975,315.1835908591747L436.21000000000004,315.25699666142464L436.8125,315.63847026228905L440.42749999999995,315.2031220346689L441.6325,315.4526182115078L442.235,315.5628207921982L442.83750000000003,315.6845671534538L443.43999999999994,315.32338044047356L444.04249999999996,315.7059899568558L444.645,315.41734850406647L445.2475,315.58149142563343L445.85,315.6095419675112L446.45250000000004,315.6155720204115L447.05499999999995,316.031166896224L448.26,315.9409992992878L450.06750000000005,315.5146069675684L450.66999999999996,315.55247551202774L451.2725,315.7061824053526L452.4775,315.4763597846031L454.8875,315.57088954746723L456.09250000000003,315.65708926320076L457.29749999999996,315.6024166792631L459.70750000000004,316.7985810935497L460.31000000000006,315.9659550189972L460.91249999999997,315.9662210047245L462.1175,316.1007252931595L463.32250000000005,316.20366959273815L464.5275,315.97509241104126L465.7325,315.9882508814335L466.33500000000004,316.4522567242384L468.1425,316.3755558282137L469.3475,316.1659731566906L469.95,316.0380089879036L470.5525,316.3903352469206L471.155,316.608232319355L471.7575,316.0628927350044L472.36,315.8806017637253L473.565,316.64713194966316L474.1675,316.55938325822353L477.18,316.1777046918869L477.7825,316.13197392225266L478.9875,316.066507011652L479.59,316.22249199450016L480.1925,316.68028941750526L482,316.38649097085L483.205,316.08038833737373L484.41,316.3513542562723L485.61499999999995,316.0746665149927L486.82,316.4708272218704L488.02500000000003,316.58130986988544L488.62749999999994,316.5077366530895L489.22999999999996,316.5219043046236L491.0375,316.69720298051834L493.4475,316.5641991645098L494.05,316.71637585759163L495.25500000000005,316.80558590590954L495.85749999999996,316.91361053287983L497.0625,316.8011705428362L499.47249999999997,316.7916858047247L502.48499999999996,316.6479596346617L506.7025,316.5041129887104L507.305,315.99739296734333L508.51000000000005,316.3937742859125L509.1125,316.93428388237953L509.715,316.97329773008823L510.3175,316.7716070115566L510.92,317.37816555798054L511.52250000000004,316.7004714757204L512.7275,316.7486540079117L513.3299999999999,316.70447377860546L515.74,316.735966488719L516.3425,316.72817623615265L517.5475,317.31791822612286L518.7525,317.4341039210558L520.56,316.9990185499191L521.765,316.45424222946167L522.3675000000001,316.9855283796787L522.97,316.9996271878481L524.7775,316.7163007557392L525.38,317.0375864803791L525.9825000000001,317.0591720044613L526.585,316.7917358726263L527.1875,317.22755974531174L528.3925,317.1021865904331L528.995,317.3365528732538L529.5975000000001,316.79034492373466L530.8025,316.9356717020273L531.405,317.1201359331608L532.0075,316.66579945385456L532.61,317.3264422863722L533.2125,317.3423200696707L533.8149999999999,316.9458886831999L535.02,316.86204528808594L535.6225000000001,317.41301438212395L537.43,317.00088983774185L539.84,317.44697450101376L541.6475,316.8941325545311L542.25,317.1840898543596L542.8525,317.2835857272148L544.0575,317.2088593840599L544.66,317.2143199145794L545.2625,316.9719380736351L545.865,317.0799877345562L547.07,317.1544778198004L547.6725,317.6407059878111L548.275,317.81495636701584L550.6850000000001,317.1769285798073L553.095,317.18234530091286L553.6975,317.3849075138569L554.9024999999999,317.3159045577049L555.505,317.2702911347151L556.1075,317.2956067174673L556.71,317.6505865752697L557.3125,317.44121043384075L557.915,317.08470506966114L559.7225,317.5432848036289L560.325,318.12790109217167L563.94,317.3858713209629L565.145,317.53616420924664L565.7475,317.8909641355276L566.35,317.7185568809509L566.9525,317.8835759907961L568.1575,317.02623984217644L569.965,317.42071701586246L570.5675,317.59682616591454L572.375,317.425798907876L572.9775,317.406284943223L573.58,317.615869179368L574.7850000000001,317.87155969440937L575.99,317.2148033827543L577.7975,317.6930942237377L578.4,317.7891025543213L579.605,317.82799592614174L581.4125,317.6496618837118L582.015,317.4902848005295L582.6175,317.63592763245106L583.8225,317.68479546904564L584.425,317.6831400990486L585.0275,317.82986095547676L586.2325,317.87024384737015L586.835,317.8394098430872L587.4375,317.5276776999235L590.45,317.5472135692835L592.86,318.07402646541595L593.4625,318.0118421316147L594.6675,317.7649870365858L595.8725000000001,317.9249774515629L597.0775,317.8793061375618L597.68,317.8293446302414L598.2825,317.8849387764931L598.885,317.6103945672512L599.4875000000001,317.5997739136219L600.0899999999999,318.0418906956911L601.295,317.8285998702049L602.5,317.7391613870859L603.7049999999999,318.600449770689L605.5125,317.9324281811714L606.7175,317.8913020938635L607.3199999999999,317.9283351302147L607.9225,318.1550300717354L610.3325,317.7017747461796L611.5375,318.06228241324425L612.14,318.00791023671627L613.345,317.67418263852596L615.1525,317.64743699133396L616.3575000000001,317.6975565254688L616.96,317.9491946697235L617.5625,318.14775770902634L619.37,318.0055914670229L621.1775,318.11646370589733L621.78,318.13757514953613L622.985,318.09679640829563L624.1899999999999,317.90956592559814L625.395,318.1523295342922L628.4075,317.9903129339218L629.6125,317.96297585964203L630.215,318.11989022791386L630.8175,318.13794752955437L631.42,318.25667886435986L633.2275,318.10953556001186L636.8425,317.78898207843304L638.0475,318.00114637613297L638.65,317.9532783329487L639.2524999999999,318.4905804544687L639.855,318.24755242466927L640.4575,317.9553232938051L642.8675,318.08378344774246L644.0725,318.090710029006L644.6750000000001,318.1685030311346L646.4825,318.32336461544037L647.085,318.21927501261234L647.6875,318.1021521091461L648.29,318.0759102702141L648.8924999999999,318.22211949527264L650.0975,318.3367343097925L650.7,318.4244751781225L651.3025,318.1826393902302L651.905,317.94190979003906L653.11,318.1179720014334L654.9175,318.2285923361778L656.1225,318.3092970997095L656.725,318.4903754889965L657.9300000000001,318.34142661094666L658.5325,318.5263570994139L660.34,318.53350742161274L660.9425,318.2741822898388L662.1475,318.1025589108467L662.75,318.153906673193L666.9675,318.0836942642927L667.57,318.1816176921129L668.1725,318.2264800965786L668.775,318.2675060480833L669.3774999999999,318.54573337733746L669.98,318.6088736951351L670.5825,318.1408013999462L671.7875,318.3393691331148L672.39,318.23959006369114L672.9925,318.74528056383133L674.8,318.17748552560806L675.4025,318.5233843177557L676.005,318.43066638708115L676.6075,318.4668388813734L677.8125,318.512017339468L681.4275,318.3280616104603L682.03,318.40656182169914L682.6325,318.2557134926319L683.8375,318.6164370775223L686.2475000000001,318.1001775562763L688.055,318.6785087585449L689.8625000000001,318.6537720859051L692.2725,318.06294894218445L694.0799999999999,318.1269451081753L694.6825,318.5201001763344L695.285,318.3679047077894L696.49,318.78732508420944L697.0925,318.52997919917107L697.6949999999999,318.45672829449177L699.5025,318.1911509335041L700.105,318.50438667833805L701.31,318.58939415216446L702.515,318.7271231263876L703.1175000000001,318.5348733365536L704.3225,318.6039107143879L705.5275,318.7146077156067L706.13,318.46380664408207L707.335,318.574585005641L708.54,318.8588157892227L709.1425,318.62490168213844L709.745,318.6235952228308L710.3475000000001,318.2586377710104L712.155,318.94376224279404L712.7575,318.6080444455147L713.36,318.7891118824482L715.1675,318.74588607251644L715.77,318.63331308960915L720.59,318.6254962384701L722.3975,319.07776741683483L723,318.7317997813225L724.205,318.6123534142971L725.4100000000001,318.5607553124428L726.0125,318.7201198786497L727.8199999999999,318.55362689495087L728.4225,318.4835553020239L729.6275,318.8261402249336L730.23,318.5976397097111L730.8325,318.72715754806995L731.4350000000001,318.5143752247095L733.2425,318.61990897357464L738.0625,318.58142083883286L738.6650000000001,318.694248855114L739.2674999999999,318.9340647161007L740.4725,318.9803837835789L741.6775,318.94529244303703L742.28,318.7147579193115L742.8825,318.9096096754074L744.0875,318.9603973031044L745.2924999999999,318.5192052125931L745.8950000000001,318.8944516181946L746.4975,318.71019861102104L748.305,318.5137822329998L748.9075,318.75843746960163L749.51,318.83214055001736L752.5224999999999,318.9355213791132L753.7275,318.57462725043297L754.3299999999999,318.91290007531643L755.535,318.6302667707205L756.1375,318.74085111916065L757.3425000000001,318.49049596488476L760.9575,318.90975362062454L761.56,318.85971231758595L762.765,318.9427921772003L763.97,318.997694760561L766.38,318.679303586483L767.585,318.42007702589035L768.79,318.9378464072943L769.995,319.03781010210514L771.2,319.04158084094524L772.405,319.2187695801258L773.0074999999999,318.8453600406647L773.61,318.7512104809284L774.2125,318.83150374889374L774.815,318.85606518387794L777.225,319.04176546633244L778.43,318.78853453695774L779.0324999999999,318.8712075948715L782.6475,318.5270330160856L783.8525000000001,319.0014154314995L785.0575000000001,318.8365981578827L785.66,319.6124534904957L786.2624999999999,318.9481369256973L789.8775,318.85247437655926L791.685,318.93312281370163L792.89,319.3084286749363L794.6975,319.0796402692795L796.5049999999999,318.93525226414204L797.1075000000001,319.1466045230627L798.3125,319.0577527731657L798.915,319.0105606466532L799.5174999999999,319.2373134791851L800.12,319.07245552539825L801.325,318.64911264181137L801.9275,318.822547852993L803.1325,319.0245530605316L803.7349999999999,319.3745198696852L804.3375,318.9730159789324L806.145,319.17672818899155L806.7475,319.54013353586197L807.9525,318.87443071603775L812.7725,319.0651205778122L813.375,318.9013719409704L813.9775,319.24802331626415L814.58,319.0173026025295L816.3875,319.0526489764452L816.9899999999999,319.3340258896351L817.5925,318.9313250631094L819.4,318.93393172323704L820.0025,318.9292769730091L820.605,318.99456864595413L822.4125,319.22930730879307L829.6424999999999,319.2596218585968L831.4499999999999,319.23911905288696L832.655,319.12086805701256L833.2575,319.1060479581356L834.4625,319.28895695507526L835.065,319.1014260649681L836.8725,319.46188835799694L838.68,319.1094431877136L839.2825,319.16772535443306L839.885,319.49388018250465L840.4875000000001,319.0750324577093L841.09,319.31666484475136L841.6924999999999,319.1793113797903L842.2950000000001,319.0004344135523L842.8974999999999,318.88597606122494L844.1025,319.237169533968L845.3075,319.18852700293064L845.91,319.2040433585644L847.115,319.06698091328144L848.32,319.40323224663734L849.525,319.23514334857464L850.1274999999999,319.2202935218811L850.73,319.15740667283535L851.3325,319.0928488075733L851.935,319.1207585334778L852.5375,319.07318463921547L854.9475000000001,319.1595267355442L857.96,319.06572139263153L858.5625,319.24687488377094L859.7675,319.19924622774124L860.37,319.4333011507988L862.78,318.97706365585327L863.3824999999999,319.2283043861389L863.985,319.097530156374L865.19,319.40598598122597L866.9975000000001,319.1171254813671L868.805,319.437739983201L870.01,319.28611090779305L871.215,319.07911925017834L871.8175,319.53675551712513L873.0225,319.4119065105915L873.625,319.3080406486988L875.4325000000001,319.0030645430088L876.035,319.3310405910015L876.6374999999999,318.96157859265804L877.8425,319.40954549610615L878.445,319.3358158171177L879.0475,319.30745704472065L880.2525,319.4118627011776L880.8549999999999,319.3896466344595L881.4575000000001,319.3656343817711L882.06,319.15118104219437L882.6625,319.2965688407421L883.265,319.1850019097328L886.2775,319.3454429358244L886.8799999999999,319.3087635040283L888.0849999999999,319.4270004183054L890.495,319.40913712978363L891.0975,319.1885629892349L892.3025,319.4332041442394L894.7125,319.5598164796829L895.9175,319.17735247313976L897.1225,319.33819404244423L898.3275,319.3222771435976L898.9300000000001,319.4633653610945L899.5325,319.53248097002506L900.1350000000001,319.4290062636137L901.3399999999999,319.14715526998043L903.1475,319.5755628347397L903.75,319.3673085272312L904.955,319.45681585371494L905.5575,319.3145682513714L906.1600000000001,319.26641857624054L907.3649999999999,319.36754322052L909.775,319.6184772849083L910.98,319.0619068443775L911.5825,319.0385736376047L912.7875,319.32982800900936L913.3900000000001,319.396532535553L915.1975,319.48558612167835L915.8,319.36982756853104L918.8125,319.55581261217594L919.4150000000001,319.58967885375023L920.0174999999999,319.3018212765455L920.6200000000001,319.3316007256508L921.8249999999999,319.34287852048874L923.03,319.5679806768894L923.6325,319.3351430296898L924.235,319.4859475493431L924.8375,319.5239287465811L925.44,319.35283420979977L926.0424999999999,319.1743061542511L927.85,319.7435735017061L929.6575,319.4657905250788L930.8625000000001,319.3555144071579L932.0674999999999,319.2331531494856L932.6700000000001,319.4049455076456L933.2724999999999,319.34126226603985L933.875,319.4626268595457L934.4775,319.40802624821663L936.8875,319.228407651186L939.2974999999999,319.4967512637377L940.5024999999999,319.5726150870323L941.105,319.68841901421547L942.9125,319.77533689141273L943.515,319.4352381527424L944.1175000000001,319.5123161226511L945.925,319.448179140687L947.7325,319.24107326567173L948.335,319.5638093948364L948.9375,319.5671342164278L950.1425,319.29006001353264L950.745,319.3438689261675L951.3475000000001,319.6394150555134L953.155,319.33167269825935L954.36,319.4877781569958L954.9625,319.4607086330652L955.565,319.575619161129L956.1675,319.6342564970255L956.77,320.08095449209213L957.3725000000001,319.5198748111725L958.5775000000001,319.4407112002373L959.18,319.36896389722824L960.9875,319.400179669261L964,319.7490637600422L971.2299999999999,319.71863812208176L971.8325000000001,319.38133223354816L972.435,319.48473966121674L973.0375,319.52179303765297L975.4475,319.81384536623955L977.2549999999999,319.63920226693153L977.8575000000001,319.38781759142876L979.0625,319.4770855307579L979.665,319.29062171280384L980.2674999999999,319.51084537804127L980.87,319.93013432621956L982.075,319.2745984196663L983.2800000000001,319.4878031909466L983.8825,319.6235873401165L984.4849999999999,319.6815096437931L985.6899999999999,319.5297319293022L986.2925,319.44573989510536L986.895,319.68912778794765L988.1,319.5348764061928L989.3050000000001,319.54316264390945L992.92,319.7373775988817L994.125,319.821067661047L997.1375,319.8339836150408L997.7399999999999,319.7539281696081L1000.15,319.54920521378517L1003.1625,319.82194697856903L1003.7650000000001,319.6637058109045L1006.175,319.6920692771673L1008.585,319.6235998570919L1010.3924999999999,319.66882994771004L1012.1999999999999,319.59546795487404L1012.8025,319.69318798184395L1013.405,319.5744832456112L1015.2125,319.595175370574L1015.815,319.45492735505104L1017.6225,319.6752402037382L1018.8275,319.5113413631916L1019.43,319.7821899354458L1020.0325,319.6965128034353L1024.25,319.77046778798103L1024.8525,319.6609771102667L1025.455,319.64523857831955L1026.0575000000001,319.58889028429985L1027.2625,319.57972003519535L1027.865,319.79012882709503L1028.4675,319.85486975312233L1029.07,319.65238420665264L1029.6725,319.8197784125805L1030.275,319.6318798363209L1030.8775,319.6894407123327L1031.48,319.52623499929905L1032.0825,319.74544009566307L1033.8899999999999,319.8038083165884L1035.095,319.89822855591774L1038.1075,319.81150782108307L1038.71,319.5401413589716L1039.3125,319.81364196538925L1040.5175,319.6439258605242L1044.7350000000001,319.66221629083157L1045.94,319.7359146773815L1048.9525,319.6169549077749L1049.555,319.8550090044737L1051.9650000000001,319.9524395763874L1053.17,319.76788929104805L1053.7725,319.5044226050377L1054.9775,319.6552881449461L1055.58,319.6762071400881L1056.785,319.7761551886797L1057.3875,319.67818482220173L1061.0025,319.6994370818138L1061.605,319.62374536693096L1062.2075,319.8253954052925L1065.22,319.55256758630276L1065.8225,319.71835961937904L1071.2450000000001,319.8483624905348L1071.8474999999999,319.79445500671864L1073.655,319.7532851099968L1074.2575,319.78924012184143L1074.86,320.2556022852659L1076.065,319.5648201406002L1077.27,319.4940178692341L1078.475,319.7979394197464L1080.2825,319.7594919651747L1080.885,319.89378502964973L1082.09,319.70869651436806L1082.6925,319.57189536094666L1083.8975,319.8249197602272L1085.1025,319.8260869681835L1085.705,319.9717626571655L1086.91,319.79407323896885L1087.5125,319.7561984360218L1089.9225000000001,319.8509315997362L1090.525,319.80033798515797L1091.73,319.66946049034595L1092.3325,319.70319060981274L1092.935,319.9359265565872L1093.5375,320.11723025143147L1094.7425,319.9091871678829L1095.345,319.65706868469715L1095.9475,319.6336478590965L1096.55,319.82063269615173L1098.96,319.6803252249956L1100.165,319.8408350944519L1100.7675,319.7543646991253L1101.3700000000001,319.75300347805023L1102.575,319.84357787668705L1103.78,319.7980207800865L1104.985,320.1060932725668L1106.19,319.6114975064993L1106.7925,319.68718296289444L1107.395,319.79424691200256L1108.6000000000001,319.7161488085985L1109.2025,320.0269969403744L1109.8049999999998,320.07971531152725L1110.4075,319.79612758755684L1111.01,319.7275815010071L1111.6125,319.81083503365517L1112.8174999999999,319.9442691206932L1113.42,319.76537650823593L1115.2275,319.7777245044708L1115.83,319.92101258039474L1117.0349999999999,319.92996847629547L1117.6375,319.80097791552544L1119.445,319.8086633384228L1120.0475,320.1791767627001L1120.65,319.82765002548695L1121.2525,320.0771133452654L1121.855,319.9388336241245L1123.06,319.9793322980404L1125.47,319.93045976758003L1126.675,319.8542454689741L1127.2775,319.7528783082962L1127.88,319.892185986042L1129.6875,319.833769261837L1130.29,319.8987323641777L1131.495,319.70217986404896L1133.905,319.89550767838955L1134.5075,319.9578954130411L1135.1100000000001,319.80882292985916L1135.7125,319.9860226213932L1136.9175,319.7994398921728L1139.3275,319.73780004680157L1139.93,319.847393989563L1141.135,319.85625287890434L1141.7375,319.962047919631L1142.3400000000001,319.81236992776394L1142.9424999999999,319.8821082562208L1144.1475,319.8948818296194L1145.955,319.96743804216385L1146.5575000000001,319.8641072809696L1147.16,319.74767281115055L1147.7625,319.7315431237221L1148.365,319.9093890041113L1150.1725,319.8651790469885L1150.7749999999999,319.86562652885914L1153.185,319.99102471768856L1153.7875000000001,319.9338581264019L1154.9924999999998,319.99448566138744L1155.595,319.9439342916012L1156.1975,320.07371811568737L1158.6075,319.8532988727093L1160.415,320.03982527554035L1161.6200000000001,320.01313439011574L1163.4275,320.0840868651867L1164.03,320.14186522364616L1164.6325,319.7696760892868L1165.235,319.8223412632942L1165.8375,319.82517009973526L1167.0425,319.93129371106625L1167.645,320.2365029454231L1168.2475,319.9036452770233L1170.055,320.07057479023933L1170.6575,320.01601798832417L1171.8625,319.8388182967901L1172.465,319.96359845995903L1173.0675,319.95038679242134L1174.875,319.7722248584032L1176.08,319.78753937780857L1176.6825,319.866760879755L1177.285,320.06787268817425L1177.8875,319.8562497496605L1182.105,319.9958234131336L1182.7075,319.83329674601555L1184.515,319.9312107861042L1187.5275000000001,319.95354732871056L1189.9375,319.9286729693413L1191.1425,320.0741593390703L1192.3475,319.9048547297716L1193.5525,320.33385372161865L1194.155,319.96918572485447L1194.7575000000002,319.99007342755795L1195.36,319.863470479846L1197.77,320.1522339731455L1198.3725,320.0547627210617L1198.9750000000001,320.4632526487112L1200.1799999999998,320.0084843337536L1200.7825,319.8380751013756L1201.385,320.1817317903042L1203.795,319.97699162364006L1205,319.8326630741358L1206.205,319.69874082505703L1207.4099999999999,320.2683680355549L1208.0125,319.95638555288315L1209.2175,320.13979053497314L1211.6275,319.96502539515495L1212.8325,320.14438739418983L1213.435,319.9998131990433L1215.2425,319.9750061184168L1217.05,320.18648824095726L1219.46,320.3317571282387L1220.665,320.1237985342741L1221.2675,319.98627921938896L1223.075,320.0619146078825L1225.4850000000001,320.05118599534035L1226.0875,320.0048434585333L1226.69,319.8745480030775L1227.2925,319.9709521830082L1229.1,320.1066487133503L1229.7025,320.12418499588966L1230.305,320.02654476463795L1231.51,320.03044536709785L1232.1125,319.8077871501446L1232.7150000000001,319.9332729578018L1233.92,319.9918617904186L1234.5225,319.9633997529745L1236.33,320.44407038390636L1236.9325000000001,320.015958532691L1238.1375,320.1727727651596L1239.3425,319.87505024671555L1239.9450000000002,320.33234073221684L1240.5475,319.9578203111887L1244.765,320.0726213157177L1245.3674999999998,320.0451277792454L1245.97,320.3154553323984L1246.5725,320.0329425036907L1250.1875,320.200788885355L1250.79,320.40296307206154L1251.3925,320.00760032236576L1251.9950000000001,319.97640645504L1252.5974999999999,320.0709815919399L1253.8025,320.1048916429281L1255.61,320.06088821589947L1257.4175,319.973890542984L1259.8274999999999,320.0022899955511L1260.43,320.1153182834387L1261.0325,320.125561863184L1261.635,320.12115901708603L1262.2375,320.3009293824434L1263.4425,320.13381054997444L1264.045,319.8396569341421L1266.455,320.1638497263193L1268.2625,320.0240116417408L1268.865,320.2579648643732L1270.6725000000001,319.9752298593521L1271.275,320.0946824848652L1271.8775,320.0794946998358L1272.48,320.1525249928236L1273.0825,320.3917556852102L1274.2875,320.2105458676815L1274.89,320.40842516720295L1275.4925,320.2798789590597L1276.095,320.163101837039L1276.6975,320.3367451429367L1279.1075,320.0252383053303L1279.71,320.0992433577776L1280.3125,319.86804699897766L1282.1200000000001,320.0944603085518L1283.325,319.9107486605644L1283.9275,320.00503747165203L1284.53,320.1010019928217L1285.735,320.2786022275686L1286.3374999999999,320.08264741301537L1286.94,320.1576710343361L1288.145,320.007323384285L1288.7475,320.1592825949192L1290.5549999999998,320.0033273398876L1291.76,320.12979885935783L1292.965,320.24794659018517L1293.5674999999999,320.2556148022413L1294.7725,320.0554605424404L1296.58,320.3647565692663L1297.7849999999999,320.1975970566273L1298.3875,320.4940162450075L1298.99,320.0465359389782L1300.195,319.92353162169456L1301.4,320.1848485171795L1302.0025,320.37685266137123L1302.605,320.2277880012989L1305.0149999999999,320.40902911126614L1305.6175,320.20405738055706L1306.8225,320.3372614681721L1308.0275,320.24158327281475L1311.04,320.19758453965187L1313.45,319.97902876138687L1314.0525,320.47202548384666L1314.655,320.51985597610474L1315.2575,320.3737202882767L1322.4875,320.10620279610157L1323.6924999999999,320.2300144582987L1324.8975,320.1179124265909" style="fill: none;" fill="none"></path></g></g></g></g></g><g><g opacity="0.00141221"><span fill="rgb(0, 0, 0)" stroke="none" stroke-width="1px">Alt + Scroll to Zoom</span></g></g></g><g transform="translate(50, 378)" clip-path="url(#clip_1)"><clipPath id="clip_1"><rect width="1446" height="22"></rect></clipPath><g><g><line x1="0" y1="0" x2="0" y2="5" style="visibility: inherit;" fill="rgb(0, 0, 0)" stroke="rgb(204, 204, 204)" stroke-width="1px"></line><line x1="120.5" y1="0" x2="120.5" y2="5" style="visibility: inherit;" fill="rgb(0, 0, 0)" stroke="rgb(204, 204, 204)" stroke-width="1px"></line><line x1="241" y1="0" x2="241" y2="5" style="visibility: inherit;" fill="rgb(0, 0, 0)" stroke="rgb(204, 204, 204)" stroke-width="1px"></line><line x1="361.5" y1="0" x2="361.5" y2="5" style="visibility: inherit;" fill="rgb(0, 0, 0)" stroke="rgb(204, 204, 204)" stroke-width="1px"></line><line x1="482" y1="0" x2="482" y2="5" style="visibility: inherit;" fill="rgb(0, 0, 0)" stroke="rgb(204, 204, 204)" stroke-width="1px"></line><line x1="602.5" y1="0" x2="602.5" y2="5" style="visibility: inherit;" fill="rgb(0, 0, 0)" stroke="rgb(204, 204, 204)" stroke-width="1px"></line><line x1="723" y1="0" x2="723" y2="5" style="visibility: inherit;" fill="rgb(0, 0, 0)" stroke="rgb(204, 204, 204)" stroke-width="1px"></line><line x1="843.5" y1="0" x2="843.5" y2="5" style="visibility: inherit;" fill="rgb(0, 0, 0)" stroke="rgb(204, 204, 204)" stroke-width="1px"></line><line x1="964" y1="0" x2="964" y2="5" style="visibility: inherit;" fill="rgb(0, 0, 0)" stroke="rgb(204, 204, 204)" stroke-width="1px"></line><line x1="1084.5" y1="0" x2="1084.5" y2="5" style="visibility: inherit;" fill="rgb(0, 0, 0)" stroke="rgb(204, 204, 204)" stroke-width="1px"></line><line x1="1205" y1="0" x2="1205" y2="5" style="visibility: inherit;" fill="rgb(0, 0, 0)" stroke="rgb(204, 204, 204)" stroke-width="1px"></line><line x1="1325.5" y1="0" x2="1325.5" y2="5" style="visibility: inherit;" fill="rgb(0, 0, 0)" stroke="rgb(204, 204, 204)" stroke-width="1px"></line><line x1="1446" y1="0" x2="1446" y2="5" style="visibility: inherit;" fill="rgb(0, 0, 0)" stroke="rgb(204, 204, 204)" stroke-width="1px"></line></g><g transform="translate(0, 8)"><text x="0" y="0" dx="0em" dy="0.95em" style="text-anchor: middle; visibility: hidden; font-family: Roboto, sans-serif; font-size: 12px; font-weight: 200;" fill="rgb(50, 49, 63)" stroke="none" stroke-width="1px">-200</text><text x="120.5" y="0" dx="0em" dy="0.95em" style="text-anchor: middle; visibility: inherit; font-family: Roboto, sans-serif; font-size: 12px; font-weight: 200;" fill="rgb(50, 49, 63)" stroke="none" stroke-width="1px">0</text><text x="241" y="0" dx="0em" dy="0.95em" style="text-anchor: middle; visibility: inherit; font-family: Roboto, sans-serif; font-size: 12px; font-weight: 200;" fill="rgb(50, 49, 63)" stroke="none" stroke-width="1px">200</text><text x="361.5" y="0" dx="0em" dy="0.95em" style="text-anchor: middle; visibility: inherit; font-family: Roboto, sans-serif; font-size: 12px; font-weight: 200;" fill="rgb(50, 49, 63)" stroke="none" stroke-width="1px">400</text><text x="482" y="0" dx="0em" dy="0.95em" style="text-anchor: middle; visibility: inherit; font-family: Roboto, sans-serif; font-size: 12px; font-weight: 200;" fill="rgb(50, 49, 63)" stroke="none" stroke-width="1px">600</text><text x="602.5" y="0" dx="0em" dy="0.95em" style="text-anchor: middle; visibility: inherit; font-family: Roboto, sans-serif; font-size: 12px; font-weight: 200;" fill="rgb(50, 49, 63)" stroke="none" stroke-width="1px">800</text><text x="723" y="0" dx="0em" dy="0.95em" style="text-anchor: middle; visibility: inherit; font-family: Roboto, sans-serif; font-size: 12px; font-weight: 200;" fill="rgb(50, 49, 63)" stroke="none" stroke-width="1px">1k</text><text x="843.5" y="0" dx="0em" dy="0.95em" style="text-anchor: middle; visibility: inherit; font-family: Roboto, sans-serif; font-size: 12px; font-weight: 200;" fill="rgb(50, 49, 63)" stroke="none" stroke-width="1px">1.2k</text><text x="964" y="0" dx="0em" dy="0.95em" style="text-anchor: middle; visibility: inherit; font-family: Roboto, sans-serif; font-size: 12px; font-weight: 200;" fill="rgb(50, 49, 63)" stroke="none" stroke-width="1px">1.4k</text><text x="1084.5" y="0" dx="0em" dy="0.95em" style="text-anchor: middle; visibility: inherit; font-family: Roboto, sans-serif; font-size: 12px; font-weight: 200;" fill="rgb(50, 49, 63)" stroke="none" stroke-width="1px">1.6k</text><text x="1205" y="0" dx="0em" dy="0.95em" style="text-anchor: middle; visibility: inherit; font-family: Roboto, sans-serif; font-size: 12px; font-weight: 200;" fill="rgb(50, 49, 63)" stroke="none" stroke-width="1px">1.8k</text><text x="1325.5" y="0" dx="0em" dy="0.95em" style="text-anchor: middle; visibility: inherit; font-family: Roboto, sans-serif; font-size: 12px; font-weight: 200;" fill="rgb(50, 49, 63)" stroke="none" stroke-width="1px">2k</text><text x="1446" y="0" dx="0em" dy="0.95em" style="text-anchor: middle; visibility: hidden; font-family: Roboto, sans-serif; font-size: 12px; font-weight: 200;" fill="rgb(50, 49, 63)" stroke="none" stroke-width="1px">2.2k</text></g><line x1="0" y1="0" x2="1446" y2="0" fill="rgb(0, 0, 0)" stroke="rgb(204, 204, 204)" stroke-width="1px"></line></g></g></g></g></svg>