<?xml version="1.0" encoding="utf-8" standalone="no"?>
<!DOCTYPE svg PUBLIC "-//W3C//DTD SVG 1.1//EN"
  "http://www.w3.org/Graphics/SVG/1.1/DTD/svg11.dtd">
<!-- Created with matplotlib (https://matplotlib.org/) -->
<svg height="288pt" version="1.1" viewBox="0 0 720 288" width="720pt" xmlns="http://www.w3.org/2000/svg" xmlns:xlink="http://www.w3.org/1999/xlink">
 <defs>
  <style type="text/css">
*{stroke-linecap:butt;stroke-linejoin:round;}
  </style>
 </defs>
 <g id="figure_1">
  <g id="patch_1">
   <path d="M 0 288 
L 720 288 
L 720 0 
L 0 0 
z
" style="fill:#ffffff;"/>
  </g>
  <g id="axes_1">
   <g id="line2d_1">
    <path clip-path="url(#p585f4a7247)" d="M 144.485678 224.698232 
L 139.117406 223.274188 
L 128.967361 220.801501 
L 119.084252 218.588485 
L 110.698574 216.906215 
L 103.155437 215.590937 
L 95.59449 214.50421 
L 89.415554 213.82241 
L 83.7959 213.392613 
L 78.908678 213.190736 
L 73.294084 213.193345 
L 68.501825 213.438147 
L 64.654673 213.837335 
L 60.573882 214.507356 
L 57.404582 215.238308 
L 54.0346 216.251484 
L 51.013251 217.401419 
L 48.625106 218.517665 
L 46.482498 219.772498 
L 45.369126 220.638547 
L 44.623129 221.57613 
L 44.509091 222.141946 
L 44.642906 222.544004 
L 44.968729 222.920276 
L 45.389853 223.222005 
L 46.913307 223.903417 
L 48.773148 224.463996 
L 52.216753 225.237908 
L 57.239903 226.092557 
L 63.628264 226.908608 
L 69.458274 227.436088 
L 75.074701 227.74579 
L 81.803284 227.869432 
L 89.363051 227.75823 
L 100.284321 227.317962 
L 116.068326 226.405319 
L 144.539032 224.601985 
L 144.539032 224.601985 
" style="fill:none;stroke:#000000;stroke-linecap:square;stroke-opacity:0.7;stroke-width:1.2;"/>
   </g>
   <g id="line2d_2">
    <path clip-path="url(#p585f4a7247)" d="M 144.422849 184.966502 
L 138.425959 183.630189 
L 109.944956 177.62739 
L 99.22159 175.571847 
L 91.63047 174.334471 
L 85.383559 173.522564 
L 79.120462 172.956414 
L 74.149049 172.730261 
L 69.320543 172.751157 
L 65.143839 173.013571 
L 61.88474 173.415167 
L 58.397229 174.072521 
L 55.706876 174.761875 
L 52.403653 175.86119 
L 49.982104 176.90504 
L 48.632659 177.642042 
L 47.409954 178.583789 
L 47.020422 179.183402 
L 46.973318 179.522685 
L 47.092202 179.906353 
L 47.700596 180.538957 
L 48.448138 181.001423 
L 49.828857 181.637819 
L 53.275991 182.830148 
L 56.673185 183.780567 
L 62.566997 185.158997 
L 68.981518 186.372318 
L 75.452912 187.306472 
L 81.27359 187.889515 
L 87.157236 188.247817 
L 93.927505 188.419847 
L 100.796344 188.384326 
L 107.701135 188.175689 
L 117.265721 187.646765 
L 125.81955 186.967496 
L 135.94576 185.941024 
L 144.505431 184.901167 
L 144.505431 184.901167 
" style="fill:none;stroke:#000000;stroke-linecap:square;stroke-opacity:0.7;stroke-width:1.2;"/>
   </g>
   <g id="line2d_3">
    <path clip-path="url(#p585f4a7247)" d="M 144.436304 145.18457 
L 138.558794 143.585115 
L 126.473351 140.515703 
L 117.269626 138.370273 
L 108.439898 136.533601 
L 99.552596 134.954466 
L 92.746997 133.960862 
L 86.110784 133.204323 
L 79.922509 132.723045 
L 74.257758 132.514181 
L 70.096979 132.538155 
L 65.308547 132.815299 
L 61.292222 133.338079 
L 58.412582 133.94068 
L 55.976023 134.641195 
L 54.18607 135.289008 
L 52.269831 136.133701 
L 49.964456 137.439599 
L 48.627048 138.479058 
L 47.901234 139.339578 
L 47.687054 139.82386 
L 47.674483 140.452903 
L 47.969341 141.0263 
L 48.465967 141.514706 
L 49.704529 142.297547 
L 51.748629 143.222282 
L 55.225432 144.463598 
L 60.952522 146.145261 
L 66.747596 147.576092 
L 72.453249 148.740002 
L 77.099482 149.485712 
L 81.725291 150.035685 
L 87.086284 150.444572 
L 92.165907 150.633275 
L 98.022506 150.646906 
L 104.276648 150.453287 
L 111.900652 149.958823 
L 118.66995 149.298833 
L 125.933784 148.370881 
L 133.540667 147.170742 
L 141.719454 145.65185 
L 144.514083 145.08544 
L 144.514083 145.08544 
" style="fill:none;stroke:#000000;stroke-linecap:square;stroke-opacity:0.7;stroke-width:1.2;"/>
   </g>
   <g id="line2d_4">
    <path clip-path="url(#p585f4a7247)" d="M 144.443058 105.397836 
L 109.398319 101.624302 
L 81.936809 98.262964 
L 76.328383 97.867267 
L 70.803369 97.719491 
L 65.626498 97.844409 
L 60.921655 98.210003 
L 57.001831 98.722313 
L 52.672017 99.545617 
L 50.309513 100.136945 
L 47.607352 100.999396 
L 45.754589 101.839432 
L 45.001043 102.481196 
L 44.955119 102.778153 
L 45.066313 102.957089 
L 45.474691 103.213575 
L 46.064862 103.416688 
L 48.506474 103.885814 
L 54.563438 104.618196 
L 71.936561 106.368093 
L 80.381299 107.013079 
L 88.38976 107.360628 
L 96.248712 107.468571 
L 106.524266 107.346727 
L 116.611609 107.007741 
L 128.721084 106.376197 
L 144.514861 105.300824 
L 144.514861 105.300824 
" style="fill:none;stroke:#000000;stroke-linecap:square;stroke-opacity:0.7;stroke-width:1.2;"/>
   </g>
   <g id="line2d_5">
    <path clip-path="url(#p585f4a7247)" d="M 144.538089 65.134961 
L 141.980225 63.805098 
L 137.69493 61.807984 
L 133.801761 60.268208 
L 129.926661 59.007623 
L 125.930277 57.962445 
L 121.921944 57.132721 
L 116.97988 56.358769 
L 112.137119 55.824769 
L 107.621306 55.500942 
L 102.272662 55.314301 
L 97.028988 55.326435 
L 90.723365 55.590794 
L 85.494685 56.020431 
L 79.777522 56.72186 
L 75.067103 57.499363 
L 70.202042 58.518779 
L 65.32943 59.801502 
L 62.039198 60.845376 
L 58.211573 62.273065 
L 54.170191 64.070161 
L 50.738117 65.895145 
L 48.700568 67.191083 
L 47.343998 68.248836 
L 46.294373 69.451522 
L 46.060843 70.092482 
L 46.139711 70.672789 
L 46.4962 71.162695 
L 47.035755 71.55704 
L 48.198978 72.072567 
L 49.213556 72.374931 
L 51.255623 72.792888 
L 54.533151 73.182835 
L 58.868718 73.401119 
L 63.812701 73.382736 
L 67.918721 73.204371 
L 74.03754 72.718848 
L 82.010343 71.791414 
L 95.485753 69.881009 
L 110.120202 67.866721 
L 120.381684 66.673423 
L 129.863086 65.804282 
L 138.71149 65.238041 
L 144.550589 65.008112 
L 144.550589 65.008112 
" style="fill:none;stroke:#000000;stroke-linecap:square;stroke-opacity:0.7;stroke-width:1.2;"/>
   </g>
   <g id="line2d_6">
    <path clip-path="url(#p585f4a7247)" d="M 277.131869 224.92248 
L 247.96695 221.036121 
L 237.580286 219.326008 
L 221.537462 216.404211 
L 212.979392 214.938016 
L 208.217337 214.268037 
L 202.857817 213.737284 
L 199.110944 213.564813 
L 195.305632 213.613481 
L 192.295181 213.850831 
L 188.731246 214.406068 
L 186.378917 214.964975 
L 183.760459 215.830504 
L 182.5203 216.408819 
L 181.783267 216.96705 
L 181.667149 217.303709 
L 181.786835 217.525845 
L 182.186431 217.789738 
L 182.812615 218.025406 
L 185.116691 218.548282 
L 190.739503 219.419862 
L 203.379054 221.350522 
L 214.787313 223.155003 
L 222.036055 224.033269 
L 228.592806 224.601488 
L 235.256035 224.995854 
L 244.541457 225.302487 
L 254.568217 225.38059 
L 265.223204 225.231821 
L 277.210058 224.837022 
L 277.210058 224.837022 
" style="fill:none;stroke:#000000;stroke-linecap:square;stroke-opacity:0.7;stroke-width:1.2;"/>
   </g>
   <g id="line2d_7">
    <path clip-path="url(#p585f4a7247)" d="M 277.181755 184.646746 
L 270.77986 183.694489 
L 261.359085 182.496004 
L 253.014407 181.660448 
L 246.045198 181.1959 
L 240.640522 181.025005 
L 234.693809 181.068163 
L 230.228041 181.283615 
L 225.097765 181.747875 
L 220.778385 182.331817 
L 216.40881 183.107989 
L 210.811229 184.367153 
L 205.726314 185.738982 
L 198.554543 187.938243 
L 186.866995 191.801212 
L 182.637423 193.367804 
L 181.181897 194.0459 
L 180.197781 194.762912 
L 180.140702 194.98295 
L 180.295384 195.143631 
L 180.755373 195.261426 
L 181.80477 195.287422 
L 183.913556 195.100599 
L 187.864787 194.491967 
L 195.534658 193.012699 
L 214.06078 189.348963 
L 222.004463 188.039496 
L 230.958924 186.831477 
L 239.824189 185.900837 
L 248.779264 185.206506 
L 256.956873 184.776797 
L 266.009188 184.523876 
L 274.94725 184.504614 
L 277.248514 184.542537 
L 277.248514 184.542537 
" style="fill:none;stroke:#000000;stroke-linecap:square;stroke-opacity:0.7;stroke-width:1.2;"/>
   </g>
   <g id="line2d_8">
    <path clip-path="url(#p585f4a7247)" d="M 277.150002 145.179705 
L 250.855237 144.647812 
L 236.845257 144.12227 
L 212.242407 143.051842 
L 206.506539 143.112416 
L 201.340829 143.37142 
L 194.701329 143.923397 
L 187.831173 144.683042 
L 182.618874 145.41684 
L 178.809315 146.165944 
L 177.240517 146.68053 
L 176.806453 146.977396 
L 176.769126 147.168771 
L 177.058632 147.370106 
L 178.014363 147.544449 
L 179.977647 147.588534 
L 183.457011 147.387089 
L 188.378346 146.873904 
L 198.510859 145.502969 
L 214.652728 143.251867 
L 221.565019 142.500193 
L 228.250972 141.993969 
L 234.753106 141.732118 
L 240.808958 141.689778 
L 247.519598 141.858685 
L 254.620591 142.271508 
L 261.856621 142.926401 
L 269.033886 143.792063 
L 277.189862 145.008918 
L 277.189862 145.008918 
" style="fill:none;stroke:#000000;stroke-linecap:square;stroke-opacity:0.7;stroke-width:1.2;"/>
   </g>
   <g id="line2d_9">
    <path clip-path="url(#p585f4a7247)" d="M 277.193603 104.831555 
L 275.080978 103.545986 
L 272.216469 101.971179 
L 268.606394 100.245499 
L 265.02166 98.824791 
L 260.861118 97.508664 
L 257.735168 96.717483 
L 252.735635 95.73463 
L 248.006311 95.063644 
L 242.347344 94.528575 
L 236.457467 94.234621 
L 230.504363 94.180113 
L 224.790399 94.344109 
L 219.212496 94.708126 
L 213.367739 95.318506 
L 207.467036 96.205572 
L 202.546984 97.20003 
L 198.020648 98.37656 
L 193.682366 99.802825 
L 190.564507 101.047809 
L 187.741141 102.366554 
L 185.029148 103.853004 
L 182.634174 105.446831 
L 181.343847 106.533784 
L 180.685633 107.25735 
L 180.206027 108.105381 
L 180.161772 108.727319 
L 180.3916 109.169423 
L 180.996975 109.609598 
L 181.898038 109.932777 
L 183.413259 110.206919 
L 185.449199 110.357361 
L 189.042469 110.345628 
L 194.190646 110.017653 
L 199.836744 109.424326 
L 208.923381 108.194866 
L 226.889107 105.670486 
L 233.85804 104.918672 
L 241.897061 104.293102 
L 249.308344 103.957051 
L 256.318338 103.853497 
L 263.315533 103.956771 
L 270.841829 104.295308 
L 277.252103 104.781785 
L 277.252103 104.781785 
" style="fill:none;stroke:#000000;stroke-linecap:square;stroke-opacity:0.7;stroke-width:1.2;"/>
   </g>
   <g id="line2d_10">
    <path clip-path="url(#p585f4a7247)" d="M 277.167052 65.426695 
L 270.935822 63.9078 
L 257.241227 60.811246 
L 248.24193 58.96655 
L 240.995375 57.657339 
L 233.515731 56.517901 
L 226.231169 55.655031 
L 220.552291 55.178274 
L 214.002179 54.874644 
L 208.524864 54.854912 
L 203.862058 55.034746 
L 198.566576 55.497356 
L 194.886234 56.005017 
L 191.284044 56.665767 
L 187.630813 57.515288 
L 184.216337 58.497245 
L 181.706136 59.372814 
L 179.491109 60.3234 
L 177.553314 61.482453 
L 176.932033 62.089439 
L 176.63949 62.711755 
L 176.712266 63.234448 
L 176.997288 63.639703 
L 177.649816 64.140457 
L 178.44673 64.553875 
L 179.24453 64.882467 
L 183.078378 66.029673 
L 187.532113 67.018359 
L 193.387847 68.069653 
L 199.404619 68.942044 
L 204.845178 69.555555 
L 211.204398 70.045715 
L 217.264069 70.286813 
L 224.136205 70.326137 
L 232.129958 70.1147 
L 240.837052 69.624784 
L 249.907671 68.866193 
L 258.854151 67.897043 
L 269.537852 66.49361 
L 277.237755 65.347012 
L 277.237755 65.347012 
" style="fill:none;stroke:#000000;stroke-linecap:square;stroke-opacity:0.7;stroke-width:1.2;"/>
   </g>
   <g id="line2d_11">
    <path clip-path="url(#p585f4a7247)" d="M 409.89487 225.054303 
L 390.558491 223.200476 
L 379.151273 221.829502 
L 366.804806 220.083237 
L 349.806641 217.642737 
L 343.522853 216.94891 
L 338.070889 216.544304 
L 333.616722 216.390764 
L 328.44739 216.452253 
L 324.041254 216.745808 
L 319.764592 217.296545 
L 316.518785 217.968037 
L 314.498092 218.617453 
L 313.558419 219.156031 
L 313.346276 219.47321 
L 313.374397 219.745059 
L 313.669481 220.095673 
L 314.341425 220.531048 
L 315.997848 221.304682 
L 320.619755 223.103169 
L 329.739618 226.369548 
L 336.3385 228.505131 
L 340.885876 229.765974 
L 345.94168 230.901747 
L 350.621805 231.695647 
L 355.36256 232.264958 
L 359.83373 232.603374 
L 364.854269 232.76856 
L 370.285103 232.700525 
L 375.12525 232.425947 
L 380.7919 231.847434 
L 385.160201 231.212761 
L 389.831798 230.357078 
L 395.342771 229.128192 
L 401.434521 227.528632 
L 408.594925 225.389507 
L 409.935097 224.963354 
L 409.935097 224.963354 
" style="fill:none;stroke:#000000;stroke-linecap:square;stroke-opacity:0.7;stroke-width:1.2;"/>
   </g>
   <g id="line2d_12">
    <path clip-path="url(#p585f4a7247)" d="M 409.890022 185.046113 
L 404.522181 183.596528 
L 388.740612 179.619155 
L 375.89857 176.565434 
L 367.531784 174.760528 
L 360.159704 173.363477 
L 352.543121 172.176187 
L 346.28671 171.446893 
L 340.396571 171.011021 
L 336.04834 170.880197 
L 331.98298 170.94079 
L 327.516104 171.269346 
L 323.871038 171.801877 
L 320.951006 172.445296 
L 318.047155 173.324271 
L 315.534108 174.357364 
L 314.168639 175.115447 
L 313.171449 175.914367 
L 312.761139 176.503683 
L 312.657818 176.882462 
L 312.681266 177.24665 
L 313.034594 177.919433 
L 313.737235 178.58067 
L 314.722379 179.235202 
L 316.174225 180.003423 
L 319.28854 181.341374 
L 323.578607 182.879961 
L 328.710903 184.475318 
L 333.888166 185.887743 
L 339.694143 187.240442 
L 344.564498 188.16123 
L 349.813913 188.917746 
L 355.041162 189.436453 
L 359.443608 189.708647 
L 365.403469 189.863864 
L 371.703124 189.788573 
L 378.451112 189.458866 
L 385.205258 188.887283 
L 392.058201 188.074163 
L 399.233187 186.99016 
L 407.059621 185.565512 
L 409.95454 184.976062 
L 409.95454 184.976062 
" style="fill:none;stroke:#000000;stroke-linecap:square;stroke-opacity:0.7;stroke-width:1.2;"/>
   </g>
   <g id="line2d_13">
    <path clip-path="url(#p585f4a7247)" d="M 409.905414 144.912277 
L 404.736914 143.865773 
L 394.603945 142.053589 
L 384.751734 140.525071 
L 376.364493 139.459429 
L 368.942267 138.755766 
L 364.995813 138.49336 
L 357.452271 138.246813 
L 352.101104 138.299978 
L 346.725959 138.560762 
L 341.92448 138.975864 
L 335.649333 139.781266 
L 330.639689 140.641336 
L 325.068881 141.835472 
L 321.258603 142.81386 
L 316.684116 144.228733 
L 313.658487 145.471229 
L 312.90733 145.896301 
L 312.290073 146.384937 
L 312.03212 146.823172 
L 312.107553 147.169523 
L 312.362974 147.402873 
L 312.848333 147.626267 
L 314.09175 147.903985 
L 316.452692 148.097617 
L 319.806453 148.120191 
L 327.732212 147.793042 
L 347.651784 146.549377 
L 367.479335 145.420854 
L 381.065615 144.879452 
L 391.97248 144.658455 
L 402.508087 144.666124 
L 409.981059 144.826478 
L 409.981059 144.826478 
" style="fill:none;stroke:#000000;stroke-linecap:square;stroke-opacity:0.7;stroke-width:1.2;"/>
   </g>
   <g id="line2d_14">
    <path clip-path="url(#p585f4a7247)" d="M 409.946294 105.094972 
L 402.617472 103.852993 
L 391.565228 102.204723 
L 384.741095 101.36275 
L 376.861269 100.628758 
L 370.008661 100.250277 
L 364.688345 100.153342 
L 358.847601 100.27073 
L 352.707275 100.66826 
L 347.303583 101.257362 
L 341.317906 102.157215 
L 335.225662 103.298525 
L 328.242341 104.82423 
L 322.24924 106.351588 
L 319.177845 107.298124 
L 316.322023 108.419925 
L 314.838233 109.252584 
L 314.323042 109.701772 
L 314.092887 110.20852 
L 314.251186 110.533234 
L 314.646259 110.785816 
L 315.581309 111.073129 
L 317.226879 111.329939 
L 320.502875 111.569976 
L 325.77002 111.686037 
L 331.550635 111.622208 
L 338.840522 111.333198 
L 346.87755 110.776149 
L 356.596214 109.863344 
L 396.638254 105.850236 
L 406.627977 105.187182 
L 409.970148 105.024706 
L 409.970148 105.024706 
" style="fill:none;stroke:#000000;stroke-linecap:square;stroke-opacity:0.7;stroke-width:1.2;"/>
   </g>
   <g id="line2d_15">
    <path clip-path="url(#p585f4a7247)" d="M 409.917059 65.185211 
L 407.60665 64.017077 
L 403.478165 62.1275 
L 399.058675 60.311016 
L 394.611008 58.701141 
L 390.292631 57.346363 
L 385.253099 56.003507 
L 380.575389 54.959718 
L 374.687461 53.888124 
L 368.405136 53.010301 
L 362.462066 52.413667 
L 356.306208 52.030011 
L 350.306715 51.894309 
L 345.377859 51.976736 
L 340.212676 52.282959 
L 335.37644 52.820737 
L 331.062159 53.559621 
L 326.989026 54.534179 
L 322.782698 55.872104 
L 319.804844 57.050048 
L 316.058573 58.871077 
L 313.586951 60.419692 
L 312.260344 61.586069 
L 311.744598 62.405921 
L 311.677746 62.849183 
L 311.778159 63.223787 
L 311.957135 63.489396 
L 312.674513 64.029127 
L 313.613745 64.429567 
L 315.508741 64.925716 
L 318.009589 65.319097 
L 321.449596 65.630372 
L 325.344607 65.802116 
L 332.016082 65.835098 
L 340.321498 65.610346 
L 372.640785 64.389405 
L 384.195021 64.294072 
L 394.808412 64.439592 
L 405.280184 64.842297 
L 409.969009 65.123557 
L 409.969009 65.123557 
" style="fill:none;stroke:#000000;stroke-linecap:square;stroke-opacity:0.7;stroke-width:1.2;"/>
   </g>
   <g id="line2d_16">
    <path clip-path="url(#p585f4a7247)" d="M 542.613409 225.046513 
L 520.747489 223.569461 
L 510.16542 222.553274 
L 501.843653 221.533125 
L 493.375773 220.291984 
L 470.732637 216.794417 
L 465.343918 216.303 
L 460.474577 216.099907 
L 456.832467 216.117282 
L 452.238796 216.365045 
L 448.494315 216.79727 
L 446.812994 217.147211 
L 446.159417 217.487147 
L 446.158829 217.68249 
L 446.457248 217.938767 
L 447.407275 218.354434 
L 448.693573 218.771001 
L 454.326528 220.257175 
L 471.825947 224.495389 
L 479.113306 226.038794 
L 483.311917 226.738094 
L 488.627138 227.39877 
L 494.444686 227.86458 
L 500.516563 228.1101 
L 507.295336 228.138572 
L 514.624726 227.913518 
L 521.076462 227.514542 
L 528.547175 226.834344 
L 536.979942 225.809717 
L 542.669143 224.978899 
L 542.669143 224.978899 
" style="fill:none;stroke:#000000;stroke-linecap:square;stroke-opacity:0.7;stroke-width:1.2;"/>
   </g>
   <g id="line2d_17">
    <path clip-path="url(#p585f4a7247)" d="M 542.698586 184.528864 
L 537.870705 183.283158 
L 531.682942 181.891087 
L 526.563664 180.917723 
L 520.999482 180.075532 
L 515.719608 179.504031 
L 510.542817 179.167684 
L 505.202077 179.056579 
L 499.647984 179.19746 
L 494.713116 179.544284 
L 489.744621 180.106671 
L 484.662146 180.905041 
L 479.835164 181.871402 
L 474.433045 183.187043 
L 469.739679 184.519835 
L 462.850701 186.767057 
L 457.267728 188.83238 
L 452.756289 190.704848 
L 449.650239 192.172777 
L 446.771368 193.816642 
L 445.660125 194.725192 
L 445.405248 195.216861 
L 445.54149 195.532664 
L 445.884115 195.731344 
L 446.475254 195.888779 
L 447.831823 196.023402 
L 450.606904 195.985084 
L 454.599379 195.633595 
L 459.579797 194.94258 
L 466.530089 193.705606 
L 477.741612 191.386794 
L 490.325581 188.804944 
L 499.131739 187.243341 
L 506.765774 186.124727 
L 513.878033 185.305566 
L 519.891112 184.793828 
L 527.342553 184.401551 
L 534.395059 184.280254 
L 540.884276 184.37787 
L 542.748674 184.448626 
L 542.748674 184.448626 
" style="fill:none;stroke:#000000;stroke-linecap:square;stroke-opacity:0.7;stroke-width:1.2;"/>
   </g>
   <g id="line2d_18">
    <path clip-path="url(#p585f4a7247)" d="M 542.614156 145.331017 
L 513.772445 141.028779 
L 502.989484 139.032219 
L 485.709415 135.791463 
L 478.845085 134.776169 
L 473.400653 134.208342 
L 468.622303 133.941233 
L 464.99075 133.915312 
L 461.732707 134.044292 
L 457.468358 134.460546 
L 454.094219 135.012135 
L 450.91172 135.744684 
L 447.936453 136.703029 
L 446.848943 137.181728 
L 445.726719 137.90077 
L 445.368757 138.388898 
L 445.348745 138.720014 
L 445.537328 139.054845 
L 445.851533 139.325267 
L 446.637274 139.757101 
L 449.351311 140.757371 
L 468.133449 146.757647 
L 473.703715 148.381184 
L 478.503482 149.541101 
L 483.237949 150.433782 
L 488.223633 151.111254 
L 493.092761 151.532468 
L 498.67769 151.746118 
L 504.072316 151.696445 
L 509.439258 151.409554 
L 515.272572 150.840874 
L 521.181582 150.007555 
L 527.824589 148.791123 
L 534.554388 147.303686 
L 542.674231 145.247508 
L 542.674231 145.247508 
" style="fill:none;stroke:#000000;stroke-linecap:square;stroke-opacity:0.7;stroke-width:1.2;"/>
   </g>
   <g id="line2d_19">
    <path clip-path="url(#p585f4a7247)" d="M 542.664377 104.971036 
L 537.413732 103.952789 
L 528.529156 102.445094 
L 520.35411 101.29244 
L 513.756837 100.576868 
L 506.956609 100.086293 
L 501.202934 99.898424 
L 496.47873 99.919035 
L 491.551007 100.123938 
L 485.546808 100.643124 
L 479.876268 101.411391 
L 473.220565 102.640261 
L 466.858544 104.098728 
L 460.124361 105.884267 
L 453.647705 107.840464 
L 449.12126 109.461285 
L 447.105869 110.343285 
L 445.420707 111.314494 
L 444.959568 111.729132 
L 444.785443 112.211715 
L 444.96608 112.434301 
L 445.51322 112.636848 
L 446.756669 112.762273 
L 449.380779 112.683619 
L 452.20542 112.420457 
L 458.322362 111.589733 
L 467.058695 110.108738 
L 487.62523 106.491511 
L 494.555468 105.54837 
L 501.237339 104.842097 
L 508.300212 104.318384 
L 515.296692 104.02432 
L 522.495299 103.9522 
L 528.447992 104.065508 
L 536.978626 104.488111 
L 542.698516 104.932069 
L 542.698516 104.932069 
" style="fill:none;stroke:#000000;stroke-linecap:square;stroke-opacity:0.7;stroke-width:1.2;"/>
   </g>
   <g id="line2d_20">
    <path clip-path="url(#p585f4a7247)" d="M 542.707421 65.389278 
L 538.982593 64.147756 
L 530.874452 61.686935 
L 523.591402 59.697626 
L 516.522916 57.991026 
L 510.003724 56.624931 
L 503.836291 55.523443 
L 497.606732 54.609 
L 490.905601 53.864855 
L 484.21649 53.396404 
L 478.209458 53.240738 
L 473.49645 53.319314 
L 469.503474 53.543416 
L 464.693343 54.034455 
L 460.64973 54.665263 
L 457.219913 55.383195 
L 453.41847 56.407407 
L 449.976099 57.58755 
L 447.695096 58.563409 
L 446.041892 59.470735 
L 445.04299 60.290125 
L 444.761084 60.744089 
L 444.742616 61.246369 
L 444.96919 61.623151 
L 445.428201 62.000469 
L 446.701325 62.613395 
L 448.069096 63.066599 
L 450.95311 63.780799 
L 455.347219 64.594828 
L 461.388001 65.445332 
L 468.707017 66.210429 
L 475.907008 66.724589 
L 482.888707 66.996477 
L 490.211961 67.061719 
L 499.56182 66.910979 
L 513.298839 66.431917 
L 542.742908 65.305698 
L 542.742908 65.305698 
" style="fill:none;stroke:#000000;stroke-linecap:square;stroke-opacity:0.7;stroke-width:1.2;"/>
   </g>
   <g id="line2d_21">
    <path clip-path="url(#p585f4a7247)" d="M 675.410226 224.621628 
L 669.286976 223.255195 
L 659.767827 221.334354 
L 652.068147 219.973813 
L 644.115258 218.809093 
L 636.833715 217.995132 
L 629.950715 217.473052 
L 623.54702 217.22242 
L 617.89338 217.203439 
L 611.655311 217.41611 
L 605.85424 217.844357 
L 600.127056 218.496371 
L 594.391448 219.400918 
L 590.526842 220.178449 
L 585.753296 221.377313 
L 582.848551 222.273224 
L 579.752807 223.420727 
L 577.739125 224.325305 
L 575.709426 225.468789 
L 574.304687 226.609436 
L 573.82543 227.261354 
L 573.617623 227.977936 
L 573.692443 228.479435 
L 574.06677 229.119957 
L 574.85467 229.836986 
L 576.112353 230.608391 
L 577.993981 231.475073 
L 580.500585 232.389843 
L 584.375878 233.510506 
L 588.94085 234.523887 
L 592.88046 235.181716 
L 598.086985 235.770507 
L 602.943222 236.050481 
L 607.655544 236.099691 
L 612.06248 235.976678 
L 618.571402 235.553882 
L 624.69106 234.947226 
L 632.848205 233.883974 
L 639.789192 232.778042 
L 647.587783 231.327869 
L 655.228262 229.699418 
L 663.949888 227.605323 
L 674.362033 224.841592 
L 675.490909 224.528261 
L 675.490909 224.528261 
" style="fill:none;stroke:#000000;stroke-linecap:square;stroke-opacity:0.7;stroke-width:1.2;"/>
   </g>
   <g id="line2d_22">
    <path clip-path="url(#p585f4a7247)" d="M 675.325093 185.069854 
L 657.751955 183.425872 
L 647.595948 182.233051 
L 637.586529 180.844068 
L 614.514183 177.528696 
L 608.835236 176.996143 
L 603.230291 176.712922 
L 597.657815 176.692204 
L 593.169233 176.852435 
L 587.663637 177.251697 
L 582.895234 177.842623 
L 580.268028 178.41952 
L 579.208694 178.895651 
L 578.981904 179.201956 
L 579.071711 179.478304 
L 579.31799 179.678596 
L 580.052711 179.99657 
L 580.962244 180.245517 
L 583.453888 180.689078 
L 587.845909 181.194002 
L 598.530183 182.083581 
L 623.914759 184.023967 
L 634.389262 184.477304 
L 646.26294 184.747308 
L 663.39827 184.880685 
L 675.420504 184.956914 
L 675.420504 184.956914 
" style="fill:none;stroke:#000000;stroke-linecap:square;stroke-opacity:0.7;stroke-width:1.2;"/>
   </g>
   <g id="line2d_23">
    <path clip-path="url(#p585f4a7247)" d="M 675.365758 144.961377 
L 673.455549 143.937891 
L 669.419836 141.968813 
L 664.969182 140.030307 
L 660.2593 138.258395 
L 655.427191 136.729534 
L 650.726468 135.489765 
L 644.986015 134.257384 
L 638.921556 133.243594 
L 632.32601 132.436776 
L 626.498614 131.961354 
L 620.832369 131.70732 
L 615.135266 131.66389 
L 609.357151 131.854196 
L 604.728314 132.200777 
L 601.094063 132.617269 
L 596.811006 133.312272 
L 593.272551 134.101934 
L 590.57238 134.873467 
L 587.244434 136.074696 
L 584.189608 137.475607 
L 581.543067 139.005246 
L 580.010058 140.126539 
L 578.9386 141.176008 
L 578.498894 141.8371 
L 578.301113 142.481885 
L 578.327258 142.926561 
L 578.614435 143.535107 
L 579.277607 144.18726 
L 580.278748 144.815102 
L 582.437106 145.754985 
L 584.367696 146.400753 
L 588.090736 147.403447 
L 592.95 148.438492 
L 598.290377 149.340747 
L 604.165458 150.100455 
L 610.298575 150.64254 
L 616.379569 150.930799 
L 623.086136 150.987949 
L 628.835618 150.849129 
L 635.732707 150.484169 
L 643.395558 149.849684 
L 650.469184 149.063668 
L 658.118258 148.007423 
L 665.740337 146.75515 
L 675.258454 144.94159 
L 675.447694 144.902912 
L 675.447694 144.902912 
" style="fill:none;stroke:#000000;stroke-linecap:square;stroke-opacity:0.7;stroke-width:1.2;"/>
   </g>
   <g id="line2d_24">
    <path clip-path="url(#p585f4a7247)" d="M 675.353739 105.3834 
L 621.219985 99.862033 
L 614.449244 99.464697 
L 608.798321 99.352427 
L 602.555075 99.521319 
L 597.754137 99.87176 
L 591.91116 100.545196 
L 586.841737 101.350367 
L 582.661092 102.221155 
L 579.707962 103.072769 
L 578.181414 103.782786 
L 577.755472 104.184948 
L 577.672866 104.456646 
L 577.834141 104.808808 
L 578.307635 105.161359 
L 579.467077 105.659238 
L 581.391199 106.241141 
L 585.309069 107.180079 
L 590.461619 108.239398 
L 598.498156 109.652453 
L 603.69128 110.376662 
L 608.241826 110.849726 
L 614.003891 111.216789 
L 619.922682 111.349743 
L 626.103672 111.271419 
L 633.370323 110.947156 
L 641.151136 110.360869 
L 649.692377 109.457304 
L 657.573772 108.395333 
L 666.507391 106.951714 
L 675.438802 105.304451 
L 675.438802 105.304451 
" style="fill:none;stroke:#000000;stroke-linecap:square;stroke-opacity:0.7;stroke-width:1.2;"/>
   </g>
   <g id="line2d_25">
    <path clip-path="url(#p585f4a7247)" d="M 675.354296 65.143036 
L 670.791097 63.7761 
L 664.881372 62.194988 
L 658.851103 60.801575 
L 652.651645 59.631278 
L 647.208241 58.830331 
L 641.192427 58.18543 
L 635.641321 57.805246 
L 629.9665 57.622427 
L 623.848965 57.653504 
L 618.452957 57.876117 
L 612.126293 58.3724 
L 606.960078 58.971839 
L 601.755192 59.765395 
L 596.364389 60.820361 
L 593.370664 61.533911 
L 589.072131 62.772601 
L 586.31376 63.745526 
L 582.537061 65.425062 
L 580.674405 66.515886 
L 579.512845 67.408221 
L 578.800344 68.22694 
L 578.579834 68.821344 
L 578.670879 69.266065 
L 578.826541 69.468755 
L 579.486976 69.854065 
L 580.389318 70.077721 
L 582.482077 70.213065 
L 585.367 70.057506 
L 589.331038 69.553246 
L 594.519277 68.630463 
L 603.151503 66.78112 
L 616.471613 63.863043 
L 622.801931 62.728139 
L 628.266538 61.986575 
L 633.048096 61.542788 
L 638.519228 61.272618 
L 644.461972 61.255296 
L 650.001116 61.482085 
L 655.854266 61.958153 
L 662.379324 62.751729 
L 669.107876 63.830819 
L 675.371935 65.050921 
L 675.371935 65.050921 
" style="fill:none;stroke:#000000;stroke-linecap:square;stroke-opacity:0.7;stroke-width:1.2;"/>
   </g>
  </g>
 </g>
 <defs>
  <clipPath id="p585f4a7247">
   <rect height="262.08" width="694.08" x="12.96" y="12.96"/>
  </clipPath>
 </defs>
</svg>
