<?xml version="1.0" encoding="utf-8" standalone="no"?>
<!DOCTYPE svg PUBLIC "-//W3C//DTD SVG 1.1//EN"
  "http://www.w3.org/Graphics/SVG/1.1/DTD/svg11.dtd">
<!-- Created with matplotlib (https://matplotlib.org/) -->
<svg height="288pt" version="1.1" viewBox="0 0 720 288" width="720pt" xmlns="http://www.w3.org/2000/svg" xmlns:xlink="http://www.w3.org/1999/xlink">
 <defs>
  <style type="text/css">
*{stroke-linecap:butt;stroke-linejoin:round;}
  </style>
 </defs>
 <g id="figure_1">
  <g id="patch_1">
   <path d="M 0 288 
L 720 288 
L 720 0 
L 0 0 
z
" style="fill:#ffffff;"/>
  </g>
  <g id="axes_1">
   <g id="line2d_1">
    <path clip-path="url(#p2d5ee71937)" d="M 98.731872 232.87012 
L 92.503705 232.386878 
L 86.009584 231.677589 
L 78.05565 230.56157 
L 67.92315 229.139869 
L 61.093579 228.435769 
L 56.946121 228.172848 
L 54.404005 228.169431 
L 52.193497 228.361039 
L 49.888439 228.828172 
L 48.279201 229.330642 
L 45.979676 230.312753 
L 44.893561 231.00001 
L 45.011203 231.042841 
L 46.305293 231.01659 
L 52.616521 230.711954 
L 58.814102 230.18375 
L 67.163841 229.38801 
L 70.073629 229.370337 
L 73.381391 229.563989 
L 78.996661 230.180106 
L 88.563808 231.519823 
L 98.719411 232.862422 
L 98.719411 232.862422 
" style="fill:none;stroke:#000000;stroke-linecap:square;stroke-opacity:0.7;stroke-width:1.2;"/>
   </g>
   <g id="line2d_2">
    <path clip-path="url(#p2d5ee71937)" d="M 98.725402 213.645619 
L 92.952824 213.284516 
L 86.970323 212.701676 
L 80.903964 211.90236 
L 67.549022 210.017486 
L 61.637971 209.483492 
L 57.110495 209.267097 
L 54.421768 209.312556 
L 52.0967 209.562816 
L 49.883709 210.033494 
L 47.378948 210.813561 
L 45.60075 211.494086 
L 45.64422 211.518805 
L 47.188737 211.715117 
L 50.918933 212.07222 
L 55.759829 212.332782 
L 60.420809 212.358438 
L 66.916625 212.10336 
L 71.465482 212.019649 
L 76.225784 212.138732 
L 83.339972 212.560019 
L 98.719631 213.64824 
L 98.719631 213.64824 
" style="fill:none;stroke:#000000;stroke-linecap:square;stroke-opacity:0.7;stroke-width:1.2;"/>
   </g>
   <g id="line2d_3">
    <path clip-path="url(#p2d5ee71937)" d="M 98.734048 194.423708 
L 92.765407 193.977385 
L 86.10601 193.247684 
L 75.72935 191.808226 
L 69.948541 191.132017 
L 64.850984 190.754678 
L 59.63244 190.571048 
L 56.003319 190.632644 
L 53.387865 190.872479 
L 50.901773 191.27792 
L 47.321538 192.112091 
L 47.42093 192.142129 
L 52.780508 192.829659 
L 58.353245 193.351823 
L 63.012765 193.56197 
L 69.172051 193.537337 
L 75.95315 193.549969 
L 83.286911 193.796968 
L 98.720855 194.419574 
L 98.720855 194.419574 
" style="fill:none;stroke:#000000;stroke-linecap:square;stroke-opacity:0.7;stroke-width:1.2;"/>
   </g>
   <g id="line2d_4">
    <path clip-path="url(#p2d5ee71937)" d="M 98.734189 175.204787 
L 93.260441 174.881459 
L 87.069114 174.308488 
L 80.428304 173.453685 
L 64.446747 171.23669 
L 58.928368 170.772859 
L 56.304918 170.694684 
L 53.405418 170.835915 
L 51.208538 171.158646 
L 48.665739 171.769993 
L 45.933993 172.694979 
L 44.569563 173.362118 
L 44.576201 173.463781 
L 44.836706 173.568234 
L 46.852249 173.939195 
L 51.684665 174.61079 
L 56.57114 175.064759 
L 60.621232 175.229512 
L 68.637043 175.221892 
L 79.222338 175.358112 
L 90.28004 175.446944 
L 97.084174 175.279995 
L 98.723952 175.202832 
L 98.723952 175.202832 
" style="fill:none;stroke:#000000;stroke-linecap:square;stroke-opacity:0.7;stroke-width:1.2;"/>
   </g>
   <g id="line2d_5">
    <path clip-path="url(#p2d5ee71937)" d="M 98.73202 155.984496 
L 93.464108 155.687286 
L 87.262688 155.114876 
L 81.50033 154.373096 
L 64.091317 151.904524 
L 58.908372 151.503581 
L 56.195087 151.484709 
L 54.147091 151.648844 
L 52.222462 151.982078 
L 49.926604 152.602691 
L 47.56453 153.473571 
L 46.22307 154.169563 
L 46.281917 154.291727 
L 46.665764 154.423654 
L 49.708956 155.053667 
L 54.44424 155.807861 
L 58.589327 156.236285 
L 62.281038 156.402674 
L 71.499265 156.466814 
L 88.0837 156.53741 
L 94.034589 156.320619 
L 98.719315 155.979559 
L 98.719315 155.979559 
" style="fill:none;stroke:#000000;stroke-linecap:square;stroke-opacity:0.7;stroke-width:1.2;"/>
   </g>
   <g id="line2d_6">
    <path clip-path="url(#p2d5ee71937)" d="M 98.732913 136.763654 
L 93.320285 136.459857 
L 87.065172 135.873978 
L 81.241392 135.106838 
L 66.148807 132.959464 
L 60.508545 132.478918 
L 56.259208 132.325252 
L 53.721018 132.424792 
L 51.163477 132.766121 
L 48.961679 133.26744 
L 45.896304 134.231897 
L 44.511173 134.851178 
L 44.575684 134.951712 
L 45.306754 135.227544 
L 48.034062 135.958652 
L 52.108126 136.82407 
L 56.424281 137.453076 
L 59.584284 137.693786 
L 63.877935 137.768384 
L 89.252787 137.545469 
L 94.492512 137.209611 
L 98.726801 136.762465 
L 98.726801 136.762465 
" style="fill:none;stroke:#000000;stroke-linecap:square;stroke-opacity:0.7;stroke-width:1.2;"/>
   </g>
   <g id="line2d_7">
    <path clip-path="url(#p2d5ee71937)" d="M 98.737912 117.546636 
L 93.399647 117.19098 
L 88.176654 116.649748 
L 82.513248 115.841783 
L 66.153876 113.266848 
L 61.288876 112.829989 
L 57.428454 112.682025 
L 54.705418 112.800077 
L 52.435007 113.129812 
L 50.082531 113.710495 
L 47.477561 114.603172 
L 45.637455 115.463295 
L 45.552929 115.639516 
L 45.705911 115.767651 
L 46.754814 116.152078 
L 50.014755 117.053226 
L 52.993166 117.733888 
L 57.138614 118.435351 
L 59.972669 118.71347 
L 64.163177 118.872875 
L 79.025038 118.995507 
L 85.582736 118.879766 
L 90.672701 118.580762 
L 95.101297 118.100997 
L 98.730211 117.544853 
L 98.730211 117.544853 
" style="fill:none;stroke:#000000;stroke-linecap:square;stroke-opacity:0.7;stroke-width:1.2;"/>
   </g>
   <g id="line2d_8">
    <path clip-path="url(#p2d5ee71937)" d="M 98.740789 98.323276 
L 93.523041 98.092665 
L 88.43937 97.671601 
L 83.373406 97.052117 
L 76.756589 96.009196 
L 69.472449 94.900374 
L 64.170628 94.328544 
L 59.228985 94.011911 
L 56.294786 93.988412 
L 53.630695 94.183396 
L 51.298595 94.593512 
L 48.746702 95.304403 
L 46.239925 96.251 
L 45.725815 96.598341 
L 45.836049 96.692551 
L 46.832716 97.085496 
L 50.697528 98.342566 
L 53.624174 99.135987 
L 57.076867 99.848874 
L 59.831573 100.206771 
L 63.154085 100.40883 
L 69.056882 100.481532 
L 81.345579 100.401407 
L 86.80788 100.162323 
L 91.011156 99.757713 
L 94.802549 99.161771 
L 98.734117 98.319731 
L 98.734117 98.319731 
" style="fill:none;stroke:#000000;stroke-linecap:square;stroke-opacity:0.7;stroke-width:1.2;"/>
   </g>
   <g id="line2d_9">
    <path clip-path="url(#p2d5ee71937)" d="M 98.740686 79.091183 
L 93.127712 78.740423 
L 86.828313 78.134252 
L 80.026072 77.238763 
L 67.409626 75.489899 
L 61.080978 74.888093 
L 56.577662 74.629556 
L 53.934462 74.66541 
L 51.567655 74.952779 
L 49.887813 75.339685 
L 47.663649 76.080801 
L 45.832205 76.894736 
L 45.008287 77.469874 
L 45.135767 77.601468 
L 46.095778 77.972483 
L 50.355528 79.365423 
L 54.064577 80.342743 
L 57.665275 81.030919 
L 60.79542 81.414821 
L 66.024374 81.787798 
L 75.72735 82.212625 
L 81.235974 82.251442 
L 84.268289 82.137338 
L 88.154433 81.768985 
L 91.277874 81.238007 
L 94.353412 80.488884 
L 98.073641 79.323944 
L 98.737561 79.094847 
L 98.737561 79.094847 
" style="fill:none;stroke:#000000;stroke-linecap:square;stroke-opacity:0.7;stroke-width:1.2;"/>
   </g>
   <g id="line2d_10">
    <path clip-path="url(#p2d5ee71937)" d="M 98.748478 59.87629 
L 92.136378 59.290572 
L 85.679877 58.470921 
L 78.490039 57.312321 
L 69.968202 55.980317 
L 64.320932 55.334635 
L 58.635727 54.908686 
L 56.147759 54.869033 
L 53.963972 55.022308 
L 52.093197 55.358831 
L 49.997876 55.971395 
L 48.041612 56.75271 
L 46.379388 57.610628 
L 45.883086 58.058861 
L 45.946386 58.213301 
L 46.270537 58.434005 
L 48.24801 59.383905 
L 51.936686 60.915973 
L 54.933209 61.927774 
L 57.396637 62.567203 
L 60.744663 63.168628 
L 65.373538 63.702602 
L 72.503515 64.278179 
L 78.279975 64.533655 
L 82.00579 64.501171 
L 84.830506 64.29981 
L 87.783817 63.856381 
L 89.862979 63.371634 
L 92.953749 62.380104 
L 95.875094 61.193881 
L 98.741493 59.878198 
L 98.741493 59.878198 
" style="fill:none;stroke:#000000;stroke-linecap:square;stroke-opacity:0.7;stroke-width:1.2;"/>
   </g>
   <g id="line2d_11">
    <path clip-path="url(#p2d5ee71937)" d="M 162.813686 232.865364 
L 156.965802 232.319169 
L 150.477456 231.48324 
L 141.414566 230.029653 
L 135.443318 229.167686 
L 130.134867 228.645963 
L 125.24211 228.384892 
L 121.04563 228.34843 
L 117.943642 228.525382 
L 115.583655 228.892602 
L 113.43537 229.477538 
L 110.988638 230.443375 
L 109.34604 231.277392 
L 109.403479 231.294596 
L 112.001161 231.36911 
L 117.044885 231.350183 
L 122.172909 231.103468 
L 127.557808 230.607355 
L 132.229034 230.218646 
L 136.071586 230.150273 
L 140.626655 230.34147 
L 146.357928 230.855512 
L 155.12145 231.924002 
L 162.803786 232.863773 
L 162.803786 232.863773 
" style="fill:none;stroke:#000000;stroke-linecap:square;stroke-opacity:0.7;stroke-width:1.2;"/>
   </g>
   <g id="line2d_12">
    <path clip-path="url(#p2d5ee71937)" d="M 162.807942 213.646064 
L 158.21288 213.366938 
L 153.031701 212.844677 
L 147.443773 212.05902 
L 134.346415 210.07456 
L 128.547402 209.56024 
L 123.326985 209.348887 
L 120.318329 209.406473 
L 117.630129 209.676745 
L 115.183047 210.167757 
L 112.686575 210.917883 
L 110.098587 211.963509 
L 110.044316 212.024456 
L 110.142503 212.05843 
L 112.841588 212.327519 
L 117.585871 212.663146 
L 122.601347 212.796842 
L 126.446094 212.716831 
L 139.80958 212.199931 
L 145.503775 212.411031 
L 153.669932 212.980378 
L 162.802139 213.644635 
L 162.802139 213.644635 
" style="fill:none;stroke:#000000;stroke-linecap:square;stroke-opacity:0.7;stroke-width:1.2;"/>
   </g>
   <g id="line2d_13">
    <path clip-path="url(#p2d5ee71937)" d="M 162.806708 194.424654 
L 157.443473 194.05849 
L 150.796011 193.372878 
L 143.035809 192.312883 
L 134.647937 191.207889 
L 129.663385 190.773923 
L 123.976505 190.510617 
L 120.399621 190.517139 
L 117.389123 190.757329 
L 114.659344 191.24347 
L 111.72661 192.014479 
L 109.30403 192.851183 
L 109.419026 192.918123 
L 110.436093 193.123863 
L 114.009575 193.618285 
L 118.411936 194.027712 
L 122.891169 194.2088 
L 127.427304 194.129677 
L 136.589806 193.861313 
L 143.381885 193.947737 
L 162.799011 194.421681 
L 162.799011 194.421681 
" style="fill:none;stroke:#000000;stroke-linecap:square;stroke-opacity:0.7;stroke-width:1.2;"/>
   </g>
   <g id="line2d_14">
    <path clip-path="url(#p2d5ee71937)" d="M 162.812496 175.198645 
L 157.020324 174.699597 
L 151.09841 173.965203 
L 144.532403 172.923254 
L 135.178722 171.432869 
L 130.100719 170.869745 
L 125.271667 170.543894 
L 121.060826 170.466343 
L 118.13866 170.618806 
L 115.785022 170.959421 
L 113.285668 171.596939 
L 110.785216 172.521616 
L 108.69299 173.558577 
L 108.513873 173.790089 
L 108.662046 173.887168 
L 109.589526 174.108044 
L 113.431057 174.721429 
L 118.010694 175.242001 
L 122.488659 175.515317 
L 126.842964 175.522037 
L 144.003929 175.150318 
L 162.801338 175.196648 
L 162.801338 175.196648 
" style="fill:none;stroke:#000000;stroke-linecap:square;stroke-opacity:0.7;stroke-width:1.2;"/>
   </g>
   <g id="line2d_15">
    <path clip-path="url(#p2d5ee71937)" d="M 162.816841 155.985792 
L 157.516043 155.555647 
L 152.271678 154.944487 
L 144.588531 153.799539 
L 137.464556 152.792527 
L 132.67326 152.354883 
L 127.811229 152.137904 
L 122.794732 152.118684 
L 119.288347 152.297069 
L 116.340021 152.677355 
L 113.499995 153.261514 
L 110.271858 154.154216 
L 109.880502 154.369958 
L 109.893795 154.402974 
L 110.069946 154.504693 
L 111.503401 154.892852 
L 115.427426 155.668621 
L 119.440097 156.251299 
L 122.848724 156.567215 
L 126.881253 156.707996 
L 133.519369 156.629595 
L 145.343267 156.549205 
L 155.224517 156.415494 
L 161.433613 156.087174 
L 162.800541 155.981311 
L 162.800541 155.981311 
" style="fill:none;stroke:#000000;stroke-linecap:square;stroke-opacity:0.7;stroke-width:1.2;"/>
   </g>
   <g id="line2d_16">
    <path clip-path="url(#p2d5ee71937)" d="M 162.822565 136.761528 
L 156.765411 136.173421 
L 150.877161 135.386831 
L 141.097496 133.78576 
L 135.068119 132.939631 
L 130.253668 132.481779 
L 124.80162 132.197364 
L 120.455767 132.196294 
L 117.832335 132.393155 
L 115.719867 132.734185 
L 113.475135 133.300684 
L 111.683238 133.896013 
L 109.103042 134.994434 
L 108.48088 135.451398 
L 108.55516 135.58874 
L 109.116204 135.800908 
L 111.678614 136.342758 
L 116.094303 137.042378 
L 120.445994 137.524777 
L 124.357662 137.74983 
L 129.241355 137.782067 
L 154.5302 137.461774 
L 159.792285 137.075958 
L 162.809437 136.752067 
L 162.809437 136.752067 
" style="fill:none;stroke:#000000;stroke-linecap:square;stroke-opacity:0.7;stroke-width:1.2;"/>
   </g>
   <g id="line2d_17">
    <path clip-path="url(#p2d5ee71937)" d="M 162.825679 117.538279 
L 157.24837 117.098039 
L 151.890663 116.475293 
L 146.218842 115.608153 
L 134.326853 113.683814 
L 129.933097 113.218681 
L 124.663153 112.894371 
L 120.714785 112.877139 
L 118.20462 113.063385 
L 115.688676 113.488983 
L 113.389933 114.108679 
L 110.826 115.061636 
L 109.215688 115.886491 
L 109.000772 116.209626 
L 109.219082 116.373708 
L 110.217839 116.711301 
L 113.570285 117.561477 
L 117.795199 118.41777 
L 121.150589 118.905145 
L 124.692101 119.182203 
L 128.355325 119.235326 
L 146.101612 118.972751 
L 152.660379 118.701192 
L 157.75835 118.248615 
L 162.577789 117.57438 
L 162.814793 117.535942 
L 162.814793 117.535942 
" style="fill:none;stroke:#000000;stroke-linecap:square;stroke-opacity:0.7;stroke-width:1.2;"/>
   </g>
   <g id="line2d_18">
    <path clip-path="url(#p2d5ee71937)" d="M 162.827745 98.317251 
L 157.69258 97.923758 
L 152.085577 97.291627 
L 145.761211 96.342433 
L 133.886611 94.458806 
L 129.039133 93.957541 
L 124.60491 93.693805 
L 120.876531 93.68204 
L 118.040538 93.925282 
L 115.690276 94.37154 
L 113.069503 95.14159 
L 110.653274 96.112533 
L 109.593807 96.744612 
L 109.591487 96.924349 
L 109.838365 97.080997 
L 111.04732 97.505 
L 114.866442 98.586976 
L 119.041353 99.553157 
L 121.860064 100.030408 
L 125.084999 100.353796 
L 129.081409 100.489719 
L 138.512458 100.476455 
L 147.097796 100.30879 
L 152.436682 99.983424 
L 156.633362 99.491153 
L 160.559891 98.80016 
L 162.819578 98.315487 
L 162.819578 98.315487 
" style="fill:none;stroke:#000000;stroke-linecap:square;stroke-opacity:0.7;stroke-width:1.2;"/>
   </g>
   <g id="line2d_19">
    <path clip-path="url(#p2d5ee71937)" d="M 162.830956 79.10318 
L 157.768969 78.672111 
L 152.297703 77.981937 
L 146.442652 76.99429 
L 135.741779 75.100446 
L 130.528234 74.475727 
L 126.191674 74.144154 
L 121.85533 74.025877 
L 119.068948 74.174439 
L 117.044526 74.489429 
L 115.405488 74.90795 
L 113.308594 75.659244 
L 111.273457 76.609928 
L 109.670926 77.590582 
L 109.531493 77.840034 
L 109.641082 77.969109 
L 110.303429 78.294353 
L 112.48827 79.138285 
L 116.313496 80.385862 
L 119.52984 81.17396 
L 122.351317 81.629891 
L 125.701674 81.92606 
L 131.460688 82.160769 
L 140.386059 82.313185 
L 145.967518 82.208823 
L 149.646967 81.965092 
L 153.428848 81.489098 
L 156.842467 80.814414 
L 159.508208 80.122625 
L 162.819464 79.101754 
L 162.819464 79.101754 
" style="fill:none;stroke:#000000;stroke-linecap:square;stroke-opacity:0.7;stroke-width:1.2;"/>
   </g>
   <g id="line2d_20">
    <path clip-path="url(#p2d5ee71937)" d="M 162.834421 59.881919 
L 157.411411 59.295428 
L 151.02341 58.368101 
L 134.349782 55.735528 
L 129.112751 55.318187 
L 123.64713 55.131681 
L 120.036135 55.201195 
L 117.28551 55.498578 
L 115.173113 55.970058 
L 113.329601 56.576427 
L 111.156081 57.526332 
L 110.140085 58.185292 
L 110.18501 58.350343 
L 110.744017 58.702354 
L 113.956257 60.224094 
L 117.227272 61.549651 
L 120.149273 62.50575 
L 122.655011 63.120036 
L 125.427645 63.600794 
L 129.969944 64.147855 
L 137.750438 64.842359 
L 142.851716 65.101067 
L 146.367054 65.077181 
L 148.723136 64.901627 
L 151.390912 64.482001 
L 153.888098 63.834338 
L 156.192287 63.018285 
L 159.459904 61.577889 
L 162.817402 59.890889 
L 162.817402 59.890889 
" style="fill:none;stroke:#000000;stroke-linecap:square;stroke-opacity:0.7;stroke-width:1.2;"/>
   </g>
   <g id="line2d_21">
    <path clip-path="url(#p2d5ee71937)" d="M 226.892633 232.861704 
L 221.562072 232.271705 
L 215.095843 231.330427 
L 199.672026 228.901956 
L 193.963766 228.351988 
L 188.318154 228.04943 
L 184.446704 228.060375 
L 182.313704 228.222202 
L 179.815554 228.64221 
L 177.611472 229.271503 
L 175.850952 229.967996 
L 174.064812 230.881271 
L 172.847698 231.726947 
L 172.716631 231.989515 
L 172.728408 231.999301 
L 172.978457 232.045223 
L 174.389427 231.975262 
L 179.536181 231.494596 
L 186.632845 230.582389 
L 193.12385 229.750419 
L 195.986746 229.618811 
L 199.539205 229.713684 
L 203.750988 230.054878 
L 210.790658 230.87729 
L 226.880681 232.862882 
L 226.880681 232.862882 
" style="fill:none;stroke:#000000;stroke-linecap:square;stroke-opacity:0.7;stroke-width:1.2;"/>
   </g>
   <g id="line2d_22">
    <path clip-path="url(#p2d5ee71937)" d="M 226.893613 213.635463 
L 221.346244 213.019252 
L 214.573924 212.039814 
L 202.053721 210.138308 
L 197.19065 209.682737 
L 191.903811 209.42842 
L 186.879337 209.398927 
L 183.632382 209.550773 
L 181.000113 209.899788 
L 178.649056 210.476831 
L 176.409449 211.276402 
L 174.252296 212.287759 
L 173.862408 212.598818 
L 173.887955 212.618615 
L 174.384961 212.696902 
L 178.180706 212.885655 
L 182.825661 212.931966 
L 187.962659 212.763643 
L 202.099 212.042661 
L 207.170186 212.211555 
L 215.098596 212.755335 
L 226.889377 213.630165 
L 226.889377 213.630165 
" style="fill:none;stroke:#000000;stroke-linecap:square;stroke-opacity:0.7;stroke-width:1.2;"/>
   </g>
   <g id="line2d_23">
    <path clip-path="url(#p2d5ee71937)" d="M 226.899178 194.42218 
L 220.785305 193.743828 
L 213.800928 192.730904 
L 201.385325 190.808885 
L 196.788717 190.369787 
L 192.094301 190.148809 
L 187.418045 190.132083 
L 183.457487 190.31299 
L 181.040541 190.60318 
L 178.803011 191.076244 
L 176.521436 191.782885 
L 174.063907 192.782126 
L 173.589222 193.105666 
L 173.59496 193.115763 
L 173.787523 193.206089 
L 175.341185 193.497638 
L 179.287534 193.994034 
L 183.286875 194.286828 
L 187.096957 194.363204 
L 191.346836 194.220106 
L 199.334891 193.875019 
L 204.725478 193.884607 
L 214.554443 194.167971 
L 225.233065 194.416341 
L 226.885225 194.421408 
L 226.885225 194.421408 
" style="fill:none;stroke:#000000;stroke-linecap:square;stroke-opacity:0.7;stroke-width:1.2;"/>
   </g>
   <g id="line2d_24">
    <path clip-path="url(#p2d5ee71937)" d="M 226.899322 175.205042 
L 221.371159 174.570782 
L 214.774311 173.598244 
L 199.944761 171.274684 
L 195.676639 170.871212 
L 190.251603 170.583971 
L 186.154014 170.539292 
L 182.491707 170.734791 
L 179.854812 171.152902 
L 177.593209 171.774639 
L 175.780911 172.464224 
L 173.755084 173.463009 
L 172.713319 174.190115 
L 172.707387 174.372328 
L 172.929374 174.454532 
L 174.622477 174.688559 
L 179.49447 175.153365 
L 184.360893 175.386402 
L 189.055481 175.37031 
L 198.47852 175.250677 
L 221.802864 175.430204 
L 226.884668 175.20093 
L 226.884668 175.20093 
" style="fill:none;stroke:#000000;stroke-linecap:square;stroke-opacity:0.7;stroke-width:1.2;"/>
   </g>
   <g id="line2d_25">
    <path clip-path="url(#p2d5ee71937)" d="M 226.896369 155.981556 
L 221.657044 155.437741 
L 215.686987 154.609059 
L 201.057441 152.38797 
L 196.156787 151.97226 
L 191.009295 151.782881 
L 186.010093 151.814097 
L 182.774078 152.031687 
L 180.208411 152.445498 
L 178.339604 152.931385 
L 176.128228 153.71809 
L 174.056721 154.683443 
L 173.419654 155.171387 
L 173.576151 155.25734 
L 175.314739 155.570496 
L 180.276207 156.272367 
L 183.739728 156.585323 
L 188.001763 156.719893 
L 195.891292 156.5926 
L 205.509601 156.564587 
L 216.7621 156.496155 
L 223.243557 156.236215 
L 226.884462 155.977442 
L 226.884462 155.977442 
" style="fill:none;stroke:#000000;stroke-linecap:square;stroke-opacity:0.7;stroke-width:1.2;"/>
   </g>
   <g id="line2d_26">
    <path clip-path="url(#p2d5ee71937)" d="M 226.907665 136.763401 
L 221.474518 136.118896 
L 214.870589 135.10535 
L 203.062105 133.222084 
L 198.345656 132.751872 
L 193.89007 132.527898 
L 188.792838 132.501821 
L 184.70157 132.666007 
L 182.34933 132.902149 
L 180.08413 133.311899 
L 177.893037 133.924608 
L 175.563301 134.81497 
L 173.905794 135.671639 
L 173.899994 135.838881 
L 174.236487 135.986747 
L 176.789752 136.621769 
L 180.510554 137.337027 
L 184.031404 137.800074 
L 187.099667 138.005758 
L 191.776057 138.054534 
L 214.977297 137.788839 
L 220.472607 137.461397 
L 225.648841 136.923335 
L 226.892375 136.761359 
L 226.892375 136.761359 
" style="fill:none;stroke:#000000;stroke-linecap:square;stroke-opacity:0.7;stroke-width:1.2;"/>
   </g>
   <g id="line2d_27">
    <path clip-path="url(#p2d5ee71937)" d="M 226.910102 117.539815 
L 222.178595 117.021374 
L 216.943251 116.258898 
L 209.003249 114.828671 
L 202.441384 113.726566 
L 197.341201 113.118407 
L 192.219544 112.739948 
L 187.897314 112.605317 
L 184.661975 112.691284 
L 182.154202 112.965817 
L 179.948249 113.410785 
L 177.300043 114.200111 
L 174.886817 115.149526 
L 172.861564 116.187529 
L 172.469619 116.585917 
L 172.584443 116.754428 
L 173.155131 116.987099 
L 175.039105 117.477248 
L 179.109486 118.288844 
L 182.849824 118.814303 
L 186.749789 119.115071 
L 191.083939 119.190983 
L 210.953638 119.051522 
L 216.596944 118.78601 
L 221.208055 118.365599 
L 225.675684 117.742316 
L 226.902 117.535318 
L 226.901993 117.535319 
" style="fill:none;stroke:#000000;stroke-linecap:square;stroke-opacity:0.7;stroke-width:1.2;"/>
   </g>
   <g id="line2d_28">
    <path clip-path="url(#p2d5ee71937)" d="M 226.916792 98.321905 
L 221.612968 97.706392 
L 216.060247 96.855478 
L 200.979306 94.367513 
L 196.414546 93.929426 
L 191.596393 93.67162 
L 186.513432 93.622393 
L 183.36727 93.79158 
L 181.048859 94.11747 
L 178.830297 94.657251 
L 176.334378 95.556557 
L 174.393278 96.486177 
L 173.15325 97.292143 
L 173.058886 97.534501 
L 173.260961 97.689413 
L 174.311622 98.050589 
L 177.877022 98.986563 
L 181.755154 99.769798 
L 185.283249 100.238469 
L 188.376107 100.447654 
L 193.955624 100.543528 
L 208.240751 100.504466 
L 213.685169 100.280959 
L 218.07093 99.889509 
L 221.94834 99.331502 
L 226.117265 98.498478 
L 226.905444 98.317947 
L 226.905444 98.317947 
" style="fill:none;stroke:#000000;stroke-linecap:square;stroke-opacity:0.7;stroke-width:1.2;"/>
   </g>
   <g id="line2d_29">
    <path clip-path="url(#p2d5ee71937)" d="M 226.908758 79.09493 
L 221.688597 78.481338 
L 215.600716 77.537774 
L 199.881208 74.810097 
L 195.298587 74.368432 
L 190.101739 74.125869 
L 185.504067 74.143682 
L 182.435709 74.366146 
L 180.709645 74.635571 
L 178.475886 75.203301 
L 176.283985 76.014914 
L 174.012879 77.117643 
L 172.847356 77.892066 
L 172.828529 78.100998 
L 172.998417 78.221731 
L 174.393284 78.7878 
L 177.883277 79.965896 
L 181.325838 80.876225 
L 183.822502 81.346174 
L 186.591007 81.668 
L 190.168872 81.850948 
L 198.182263 81.9492 
L 207.142923 81.890596 
L 212.075931 81.683654 
L 216.330309 81.300049 
L 219.96272 80.755472 
L 223.47734 80.00933 
L 226.900807 79.096848 
L 226.900807 79.096848 
" style="fill:none;stroke:#000000;stroke-linecap:square;stroke-opacity:0.7;stroke-width:1.2;"/>
   </g>
   <g id="line2d_30">
    <path clip-path="url(#p2d5ee71937)" d="M 226.909954 59.877037 
L 221.327932 59.302432 
L 215.4005 58.459436 
L 198.60946 55.797643 
L 194.179805 55.453095 
L 189.528659 55.305395 
L 184.820556 55.383782 
L 182.004551 55.633358 
L 180.026461 55.992849 
L 178.180005 56.506136 
L 175.844254 57.39108 
L 173.690462 58.433784 
L 173.438314 58.725757 
L 173.567206 58.88292 
L 174.262956 59.316595 
L 177.150343 60.765857 
L 180.041506 61.975049 
L 182.555761 62.813154 
L 185.199647 63.457642 
L 187.948419 63.905244 
L 192.753481 64.403164 
L 200.347671 64.927927 
L 206.066466 65.106736 
L 209.917245 65.011238 
L 212.605653 64.767132 
L 215.20001 64.337377 
L 218.020808 63.613509 
L 220.704472 62.67962 
L 223.745295 61.391872 
L 226.901323 59.892241 
L 226.901323 59.892241 
" style="fill:none;stroke:#000000;stroke-linecap:square;stroke-opacity:0.7;stroke-width:1.2;"/>
   </g>
   <g id="line2d_31">
    <path clip-path="url(#p2d5ee71937)" d="M 290.971332 232.857548 
L 285.196094 232.036246 
L 276.644027 230.565947 
L 270.272581 229.559611 
L 265.342986 229.021568 
L 261.058534 228.766276 
L 255.721339 228.700862 
L 250.49845 228.866586 
L 247.124023 229.148233 
L 244.361112 229.628986 
L 242.313937 230.221311 
L 240.208047 231.078311 
L 238.53552 232.005257 
L 238.475412 232.102909 
L 238.535069 232.133047 
L 239.370195 232.158885 
L 243.299103 232.024077 
L 248.834521 231.603127 
L 254.127212 230.987777 
L 261.440271 230.122458 
L 264.776969 230.000032 
L 268.093974 230.083012 
L 272.935871 230.467666 
L 279.220086 231.239572 
L 290.969198 232.85936 
L 290.969198 232.85936 
" style="fill:none;stroke:#000000;stroke-linecap:square;stroke-opacity:0.7;stroke-width:1.2;"/>
   </g>
   <g id="line2d_32">
    <path clip-path="url(#p2d5ee71937)" d="M 290.978451 213.636384 
L 285.87124 213.001525 
L 279.547926 211.967605 
L 269.009487 210.190442 
L 264.310939 209.669448 
L 259.802721 209.37751 
L 254.203143 209.261633 
L 249.596844 209.394803 
L 246.683249 209.69163 
L 244.692393 210.059944 
L 242.046477 210.800672 
L 239.387235 211.848108 
L 237.631964 212.79622 
L 237.560387 212.953668 
L 237.583773 212.971567 
L 237.991358 213.060738 
L 240.740872 213.259041 
L 245.307641 213.393529 
L 250.602001 213.301344 
L 255.452881 212.984472 
L 262.984397 212.464972 
L 267.206915 212.408947 
L 272.725855 212.56369 
L 280.606336 213.026111 
L 290.971408 213.634802 
L 290.971408 213.634802 
" style="fill:none;stroke:#000000;stroke-linecap:square;stroke-opacity:0.7;stroke-width:1.2;"/>
   </g>
   <g id="line2d_33">
    <path clip-path="url(#p2d5ee71937)" d="M 290.979572 194.419396 
L 285.920751 193.792508 
L 279.715031 192.798358 
L 269.190094 191.039471 
L 264.30801 190.497143 
L 259.513007 190.209977 
L 255.014053 190.138855 
L 249.550101 190.287619 
L 245.951342 190.604846 
L 243.157868 191.094623 
L 240.851071 191.712988 
L 238.0738 192.723642 
L 236.229766 193.631997 
L 236.166069 193.773517 
L 236.194154 193.799498 
L 236.475989 193.896071 
L 238.496826 194.207191 
L 242.52793 194.619002 
L 247.251143 194.861869 
L 251.729739 194.836152 
L 257.636829 194.495261 
L 263.889091 194.174528 
L 269.850133 194.102546 
L 279.042597 194.263691 
L 289.964688 194.423239 
L 290.9697 194.415663 
L 290.9697 194.415663 
" style="fill:none;stroke:#000000;stroke-linecap:square;stroke-opacity:0.7;stroke-width:1.2;"/>
   </g>
   <g id="line2d_34">
    <path clip-path="url(#p2d5ee71937)" d="M 290.977905 175.204937 
L 283.062034 173.969953 
L 267.08194 171.350181 
L 262.638668 170.936176 
L 257.615597 170.733918 
L 252.969537 170.768004 
L 247.836589 171.02576 
L 244.970407 171.334726 
L 243.072457 171.686438 
L 241.069842 172.259766 
L 239.214873 173.004481 
L 237.06934 174.127104 
L 236.652947 174.486328 
L 236.877858 174.580077 
L 238.869051 174.918675 
L 242.953847 175.428162 
L 246.38704 175.667155 
L 250.37322 175.716511 
L 267.08371 175.490237 
L 281.922629 175.548223 
L 288.741132 175.332423 
L 290.968936 175.203928 
L 290.968936 175.203928 
" style="fill:none;stroke:#000000;stroke-linecap:square;stroke-opacity:0.7;stroke-width:1.2;"/>
   </g>
   <g id="line2d_35">
    <path clip-path="url(#p2d5ee71937)" d="M 290.98676 155.980235 
L 285.772848 155.2367 
L 279.053301 154.021458 
L 271.462995 152.637473 
L 266.71275 152.003904 
L 262.307198 151.641493 
L 257.669453 151.479989 
L 252.589831 151.529155 
L 248.295228 151.792771 
L 245.54482 152.176139 
L 243.229463 152.715429 
L 240.552032 153.618951 
L 238.180393 154.697573 
L 237.370518 155.261771 
L 237.416856 155.416715 
L 237.806408 155.573142 
L 239.573214 155.944337 
L 243.939419 156.587947 
L 248.13972 156.963928 
L 252.194286 157.077933 
L 256.107535 156.976301 
L 268.175028 156.506048 
L 290.710211 155.990294 
L 290.977231 155.973379 
L 290.977231 155.973379 
" style="fill:none;stroke:#000000;stroke-linecap:square;stroke-opacity:0.7;stroke-width:1.2;"/>
   </g>
   <g id="line2d_36">
    <path clip-path="url(#p2d5ee71937)" d="M 290.984997 136.761162 
L 286.746912 136.214132 
L 281.698128 135.346043 
L 269.127744 133.031627 
L 264.821394 132.537774 
L 259.821983 132.218079 
L 254.653048 132.139675 
L 249.86221 132.304118 
L 246.950091 132.586065 
L 244.228132 133.068412 
L 241.630002 133.778711 
L 239.028634 134.749389 
L 237.007574 135.745235 
L 236.43335 136.226433 
L 236.501386 136.391426 
L 236.866033 136.549359 
L 238.119799 136.845349 
L 242.207939 137.548428 
L 246.425716 138.063084 
L 250.350516 138.318454 
L 254.046181 138.338484 
L 260.807492 138.081904 
L 270.85753 137.786686 
L 282.422786 137.449884 
L 287.862515 137.074159 
L 290.97653 136.753837 
L 290.97653 136.753837 
" style="fill:none;stroke:#000000;stroke-linecap:square;stroke-opacity:0.7;stroke-width:1.2;"/>
   </g>
   <g id="line2d_37">
    <path clip-path="url(#p2d5ee71937)" d="M 290.983281 117.538073 
L 286.651888 116.949164 
L 281.047549 115.960887 
L 270.130972 113.922414 
L 265.455936 113.333039 
L 261.249946 113.012804 
L 256.426862 112.875182 
L 251.521138 112.970753 
L 247.832604 113.251643 
L 245.407379 113.632796 
L 243.061751 114.253749 
L 240.973411 115.058493 
L 238.91012 116.115005 
L 237.858525 116.873655 
L 237.840394 117.100836 
L 238.17332 117.257257 
L 239.392805 117.562533 
L 243.775766 118.416469 
L 247.804752 118.96803 
L 251.085574 119.21374 
L 255.385952 119.283925 
L 271.503857 119.058147 
L 279.203349 118.81803 
L 283.935753 118.470473 
L 288.761847 117.880578 
L 290.970707 117.534993 
L 290.970707 117.534993 
" style="fill:none;stroke:#000000;stroke-linecap:square;stroke-opacity:0.7;stroke-width:1.2;"/>
   </g>
   <g id="line2d_38">
    <path clip-path="url(#p2d5ee71937)" d="M 290.987317 98.316228 
L 285.586098 97.501776 
L 279.025914 96.275463 
L 270.695107 94.728075 
L 265.946 94.09688 
L 261.900166 93.750849 
L 256.787044 93.545264 
L 251.94994 93.573009 
L 248.283859 93.804118 
L 245.773977 94.185567 
L 243.647865 94.735979 
L 241.628211 95.473791 
L 239.597732 96.430548 
L 237.932132 97.470161 
L 237.715457 97.778279 
L 237.824111 97.946795 
L 238.241483 98.145361 
L 240.189995 98.710904 
L 244.058613 99.5669 
L 247.469917 100.106582 
L 250.777853 100.412787 
L 255.158902 100.532493 
L 265.851523 100.461782 
L 275.337321 100.257027 
L 280.28809 99.946436 
L 284.384319 99.493303 
L 288.766591 98.768814 
L 290.979242 98.315146 
L 290.979242 98.315146 
" style="fill:none;stroke:#000000;stroke-linecap:square;stroke-opacity:0.7;stroke-width:1.2;"/>
   </g>
   <g id="line2d_39">
    <path clip-path="url(#p2d5ee71937)" d="M 290.991394 79.095595 
L 284.901958 78.133615 
L 277.76128 76.763543 
L 270.127892 75.309076 
L 265.480969 74.648852 
L 260.867857 74.229299 
L 256.053287 74.024367 
L 251.32632 74.03522 
L 248.251046 74.193787 
L 245.880259 74.475299 
L 243.422833 75.021696 
L 241.373168 75.731686 
L 239.251517 76.724401 
L 237.610496 77.704077 
L 236.773353 78.443727 
L 236.808509 78.626447 
L 237.13718 78.811161 
L 238.294544 79.197288 
L 242.53678 80.350445 
L 246.348712 81.145734 
L 249.832812 81.632076 
L 253.027051 81.875716 
L 258.932058 82.058523 
L 269.97058 82.183133 
L 275.646788 82.017836 
L 279.73269 81.657742 
L 282.959087 81.16347 
L 286.617695 80.352881 
L 290.976478 79.097193 
L 290.976478 79.097193 
" style="fill:none;stroke:#000000;stroke-linecap:square;stroke-opacity:0.7;stroke-width:1.2;"/>
   </g>
   <g id="line2d_40">
    <path clip-path="url(#p2d5ee71937)" d="M 290.990919 59.876467 
L 286.367859 59.244798 
L 281.113155 58.314203 
L 268.272533 55.877854 
L 264.043448 55.38167 
L 259.616493 55.085487 
L 255.266249 54.99096 
L 250.752542 55.096392 
L 247.90311 55.338161 
L 245.73777 55.706325 
L 243.431879 56.354525 
L 241.197167 57.250568 
L 239.080352 58.3388 
L 237.981617 59.122486 
L 237.994525 59.279879 
L 238.292482 59.502888 
L 240.230142 60.467719 
L 243.072195 61.670416 
L 245.67526 62.55871 
L 248.590594 63.289691 
L 251.180031 63.723461 
L 255.169321 64.145789 
L 262.127888 64.615941 
L 268.313079 64.833838 
L 272.109208 64.799699 
L 275.620116 64.570372 
L 278.88677 64.105706 
L 281.606979 63.485938 
L 283.975625 62.765269 
L 287.007909 61.627492 
L 290.978307 59.885431 
L 290.978307 59.885431 
" style="fill:none;stroke:#000000;stroke-linecap:square;stroke-opacity:0.7;stroke-width:1.2;"/>
   </g>
   <g id="line2d_41">
    <path clip-path="url(#p2d5ee71937)" d="M 355.048485 232.856771 
L 349.256939 231.865933 
L 335.321308 229.336411 
L 330.562222 228.798328 
L 325.799842 228.500571 
L 320.923707 228.418677 
L 315.285911 228.572276 
L 310.997585 228.914998 
L 308.907044 229.215775 
L 306.164463 229.831079 
L 303.791124 230.607101 
L 301.457721 231.616608 
L 299.980603 232.466808 
L 299.796795 232.729591 
L 300.018976 232.803879 
L 301.110677 232.830053 
L 305.08181 232.642624 
L 310.997285 232.112993 
L 316.849243 231.369359 
L 325.347401 230.2512 
L 328.472544 230.087194 
L 332.341927 230.131031 
L 336.780165 230.439189 
L 342.50919 231.095339 
L 355.050578 232.858771 
L 355.050578 232.858771 
" style="fill:none;stroke:#000000;stroke-linecap:square;stroke-opacity:0.7;stroke-width:1.2;"/>
   </g>
   <g id="line2d_42">
    <path clip-path="url(#p2d5ee71937)" d="M 355.060523 213.637782 
L 349.721063 212.695235 
L 336.553093 210.187963 
L 332.292042 209.678292 
L 327.98037 209.38295 
L 323.372458 209.294827 
L 318.63687 209.416904 
L 313.701881 209.762035 
L 310.284823 210.22429 
L 307.941226 210.761729 
L 305.776882 211.478706 
L 303.794356 212.351582 
L 302.308883 213.236688 
L 302.199317 213.43226 
L 302.228935 213.458832 
L 302.500593 213.524586 
L 304.502377 213.613823 
L 309.515647 213.610546 
L 315.076345 213.363135 
L 321.12017 212.834955 
L 326.81227 212.367921 
L 330.977743 212.252002 
L 335.360609 212.333537 
L 341.904427 212.703086 
L 355.051799 213.634952 
L 355.051799 213.634952 
" style="fill:none;stroke:#000000;stroke-linecap:square;stroke-opacity:0.7;stroke-width:1.2;"/>
   </g>
   <g id="line2d_43">
    <path clip-path="url(#p2d5ee71937)" d="M 355.059024 194.411909 
L 348.626988 193.383874 
L 332.481838 190.630989 
L 327.599946 190.189422 
L 323.139916 190.00908 
L 318.435474 190.019377 
L 313.391981 190.251319 
L 310.508237 190.563502 
L 308.095715 191.060638 
L 306.073289 191.718098 
L 303.951385 192.647735 
L 301.852402 193.833053 
L 301.785985 194.017184 
L 302.095542 194.112913 
L 303.967539 194.360612 
L 307.866235 194.681178 
L 312.399419 194.820506 
L 316.202427 194.736619 
L 322.594151 194.296497 
L 328.430992 193.973647 
L 334.399715 193.899716 
L 342.192574 194.062269 
L 355.055439 194.408067 
L 355.055439 194.408067 
" style="fill:none;stroke:#000000;stroke-linecap:square;stroke-opacity:0.7;stroke-width:1.2;"/>
   </g>
   <g id="line2d_44">
    <path clip-path="url(#p2d5ee71937)" d="M 355.067233 175.191087 
L 349.694704 174.308605 
L 342.16244 172.811507 
L 335.750218 171.586406 
L 331.12062 170.929362 
L 327.203825 170.558993 
L 321.92169 170.309706 
L 317.191863 170.308711 
L 313.431865 170.487447 
L 310.402573 170.851787 
L 308.350862 171.302288 
L 306.362219 171.94219 
L 303.741183 173.098119 
L 301.835201 174.199572 
L 301.141315 174.797667 
L 301.16928 174.994866 
L 301.438366 175.116526 
L 302.8666 175.364926 
L 307.233244 175.794372 
L 311.612757 176.024003 
L 316.068934 176.042413 
L 320.79282 175.809355 
L 332.269158 175.068351 
L 337.830126 174.973462 
L 347.325057 175.082603 
L 355.060076 175.186624 
L 355.060076 175.186624 
" style="fill:none;stroke:#000000;stroke-linecap:square;stroke-opacity:0.7;stroke-width:1.2;"/>
   </g>
   <g id="line2d_45">
    <path clip-path="url(#p2d5ee71937)" d="M 355.064421 155.971977 
L 350.149533 155.193236 
L 343.389241 153.862633 
L 336.616419 152.555524 
L 331.915465 151.880283 
L 327.596514 151.480698 
L 322.819874 151.276113 
L 318.149399 151.290887 
L 313.595981 151.528171 
L 310.725551 151.881596 
L 308.00651 152.475816 
L 305.242299 153.393896 
L 302.8983 154.43709 
L 301.265648 155.388934 
L 300.925323 155.778511 
L 301.0053 155.889162 
L 301.497916 156.045385 
L 304.105852 156.457399 
L 308.912101 156.997491 
L 313.061969 157.229612 
L 316.669 157.229266 
L 351.588174 156.232501 
L 355.055663 155.967581 
L 355.055663 155.967581 
" style="fill:none;stroke:#000000;stroke-linecap:square;stroke-opacity:0.7;stroke-width:1.2;"/>
   </g>
   <g id="line2d_46">
    <path clip-path="url(#p2d5ee71937)" d="M 355.06051 136.75545 
L 349.643388 135.749347 
L 336.836073 133.245615 
L 333.189029 132.770789 
L 328.459726 132.397266 
L 323.741299 132.282698 
L 318.726971 132.408921 
L 314.194456 132.727137 
L 310.51468 133.216877 
L 307.77144 133.867779 
L 305.911229 134.491532 
L 303.499342 135.545168 
L 302.356678 136.263985 
L 302.31915 136.473944 
L 302.638025 136.650552 
L 303.890207 136.967934 
L 307.323335 137.562793 
L 311.185417 138.008985 
L 314.447597 138.204067 
L 318.667896 138.212915 
L 346.941457 137.378398 
L 352.399835 137.004237 
L 355.055291 136.746634 
L 355.055291 136.746634 
" style="fill:none;stroke:#000000;stroke-linecap:square;stroke-opacity:0.7;stroke-width:1.2;"/>
   </g>
   <g id="line2d_47">
    <path clip-path="url(#p2d5ee71937)" d="M 355.074167 117.537022 
L 349.842356 116.620156 
L 342.0849 114.988495 
L 336.639447 113.928286 
L 332.09226 113.278355 
L 328.069658 112.912682 
L 323.375814 112.714361 
L 318.354082 112.738953 
L 313.846023 112.978418 
L 311.010418 113.308696 
L 308.702 113.774382 
L 306.568964 114.420161 
L 304.387849 115.310556 
L 302.259494 116.431757 
L 301.266524 117.182244 
L 301.23341 117.392046 
L 301.464369 117.560965 
L 302.450839 117.871965 
L 305.439505 118.524611 
L 309.366887 119.152042 
L 312.928504 119.499309 
L 316.48743 119.617739 
L 320.80972 119.535867 
L 346.962718 118.539062 
L 351.731041 118.024025 
L 355.06888 117.53374 
L 355.06888 117.53374 
" style="fill:none;stroke:#000000;stroke-linecap:square;stroke-opacity:0.7;stroke-width:1.2;"/>
   </g>
   <g id="line2d_48">
    <path clip-path="url(#p2d5ee71937)" d="M 355.076026 98.314466 
L 350.052959 97.484665 
L 342.336912 95.938648 
L 335.822031 94.672911 
L 331.447075 94.030707 
L 326.845707 93.582395 
L 322.045156 93.347004 
L 317.134119 93.336438 
L 313.422362 93.53367 
L 310.466678 93.946841 
L 308.36124 94.468087 
L 306.530278 95.094498 
L 303.928201 96.252395 
L 302.109041 97.280118 
L 301.219303 98.020617 
L 301.233855 98.262602 
L 301.617598 98.481678 
L 303.10646 98.8911 
L 307.539638 99.746754 
L 311.454513 100.271287 
L 314.661344 100.515173 
L 318.774002 100.593387 
L 332.510225 100.420338 
L 340.675072 100.180509 
L 345.755123 99.805006 
L 350.137477 99.241754 
L 354.226669 98.487569 
L 355.066154 98.308744 
L 355.066154 98.308744 
" style="fill:none;stroke:#000000;stroke-linecap:square;stroke-opacity:0.7;stroke-width:1.2;"/>
   </g>
   <g id="line2d_49">
    <path clip-path="url(#p2d5ee71937)" d="M 355.070966 79.090454 
L 349.496128 78.032278 
L 335.532427 75.240713 
L 330.901808 74.671783 
L 326.632533 74.378858 
L 322.733243 74.289288 
L 317.441368 74.403957 
L 313.018812 74.718903 
L 310.407384 75.085022 
L 308.518554 75.521369 
L 306.23587 76.317758 
L 304.129555 77.343106 
L 302.765916 78.199944 
L 302.198372 78.739313 
L 302.227143 78.942084 
L 302.450725 79.095619 
L 303.451403 79.482518 
L 306.164595 80.306279 
L 309.525841 81.109601 
L 312.532658 81.614404 
L 315.910251 81.930531 
L 319.368729 82.044166 
L 328.370285 82.034633 
L 336.918316 81.873453 
L 341.805533 81.583753 
L 345.616959 81.156722 
L 348.981411 80.584659 
L 353.015541 79.650722 
L 355.062376 79.091405 
L 355.062376 79.091405 
" style="fill:none;stroke:#000000;stroke-linecap:square;stroke-opacity:0.7;stroke-width:1.2;"/>
   </g>
   <g id="line2d_50">
    <path clip-path="url(#p2d5ee71937)" d="M 355.067594 59.87299 
L 350.969805 59.210615 
L 345.393527 58.082064 
L 337.456103 56.461422 
L 333.404772 55.854441 
L 329.085345 55.431547 
L 324.331293 55.221035 
L 319.790067 55.240219 
L 314.868111 55.487718 
L 311.318099 55.874216 
L 308.650903 56.403888 
L 306.383186 57.104378 
L 304.565898 57.851162 
L 302.36526 59.009707 
L 301.415711 59.748287 
L 301.424017 59.97386 
L 301.749784 60.194335 
L 302.715417 60.601023 
L 306.089611 61.772052 
L 309.371859 62.711173 
L 312.827897 63.460318 
L 315.874927 63.896472 
L 320.200447 64.239081 
L 328.345901 64.578493 
L 335.065216 64.693449 
L 339.157935 64.563022 
L 342.284242 64.246546 
L 344.442646 63.864699 
L 347.538404 63.036165 
L 350.243563 62.05018 
L 354.077553 60.34854 
L 355.059121 59.876239 
L 355.059121 59.876239 
" style="fill:none;stroke:#000000;stroke-linecap:square;stroke-opacity:0.7;stroke-width:1.2;"/>
   </g>
   <g id="line2d_51">
    <path clip-path="url(#p2d5ee71937)" d="M 419.145747 232.855283 
L 411.728892 231.271962 
L 403.334057 229.48089 
L 398.817272 228.752762 
L 394.519044 228.282295 
L 389.686599 227.998522 
L 384.823456 227.938091 
L 379.519278 228.10087 
L 375.470183 228.426565 
L 372.538303 228.891449 
L 370.229256 229.526517 
L 368.021927 230.435083 
L 366.18003 231.439324 
L 364.559303 232.604292 
L 364.486506 232.846623 
L 364.797847 232.924734 
L 366.538858 232.963501 
L 370.719745 232.793537 
L 375.852142 232.346456 
L 381.083965 231.676338 
L 389.657281 230.509416 
L 393.291458 230.319357 
L 396.390181 230.344861 
L 400.421258 230.576212 
L 406.271411 231.17322 
L 417.708608 232.666566 
L 419.139529 232.849074 
L 419.139529 232.849074 
" style="fill:none;stroke:#000000;stroke-linecap:square;stroke-opacity:0.7;stroke-width:1.2;"/>
   </g>
   <g id="line2d_52">
    <path clip-path="url(#p2d5ee71937)" d="M 419.141388 213.632092 
L 414.042534 212.59344 
L 401.872491 209.966564 
L 397.874589 209.39253 
L 393.120885 208.953664 
L 388.301492 208.746602 
L 383.284301 208.755892 
L 379.208607 208.94692 
L 376.172238 209.261502 
L 373.283991 209.806615 
L 370.745931 210.557034 
L 368.249072 211.566327 
L 366.489344 212.463036 
L 364.975708 213.489291 
L 364.817311 213.793527 
L 364.964801 213.902842 
L 365.803409 214.019479 
L 368.557805 214.070149 
L 373.652349 213.914801 
L 378.951071 213.526808 
L 393.146202 212.255088 
L 397.864861 212.276232 
L 403.453353 212.531511 
L 417.029092 213.497895 
L 419.135947 213.630017 
L 419.135947 213.630017 
" style="fill:none;stroke:#000000;stroke-linecap:square;stroke-opacity:0.7;stroke-width:1.2;"/>
   </g>
   <g id="line2d_53">
    <path clip-path="url(#p2d5ee71937)" d="M 419.14562 194.415443 
L 414.340952 193.513551 
L 402.18335 191.108036 
L 397.916747 190.567005 
L 393.550016 190.249534 
L 389.546467 190.155107 
L 384.720598 190.260983 
L 379.383838 190.618833 
L 376.150241 190.977083 
L 373.256498 191.473647 
L 370.695839 192.134537 
L 368.179244 193.02775 
L 366.008121 194.050583 
L 365.354862 194.562206 
L 365.498546 194.670086 
L 366.397955 194.80655 
L 370.529433 195.104488 
L 375.088465 195.228235 
L 379.440483 195.132072 
L 384.755864 194.761036 
L 392.073949 194.244889 
L 397.881592 194.093217 
L 405.291823 194.165581 
L 419.136607 194.409931 
L 419.136607 194.409931 
" style="fill:none;stroke:#000000;stroke-linecap:square;stroke-opacity:0.7;stroke-width:1.2;"/>
   </g>
   <g id="line2d_54">
    <path clip-path="url(#p2d5ee71937)" d="M 419.152189 175.194466 
L 414.015965 174.129258 
L 401.891212 171.467561 
L 397.446277 170.830808 
L 393.134112 170.441346 
L 387.980529 170.222184 
L 383.047067 170.218639 
L 378.173149 170.41755 
L 374.964596 170.733385 
L 372.489092 171.170831 
L 370.141657 171.806231 
L 368.126042 172.537828 
L 365.846293 173.575448 
L 363.814539 174.743222 
L 363.077778 175.371345 
L 363.06234 175.56147 
L 363.332657 175.711977 
L 364.189138 175.879439 
L 366.825318 176.149277 
L 371.384676 176.369075 
L 376.40299 176.348607 
L 381.607873 176.069671 
L 390.699419 175.492253 
L 396.73569 175.386216 
L 418.169391 175.237077 
L 419.141217 175.192283 
L 419.141217 175.192283 
" style="fill:none;stroke:#000000;stroke-linecap:square;stroke-opacity:0.7;stroke-width:1.2;"/>
   </g>
   <g id="line2d_55">
    <path clip-path="url(#p2d5ee71937)" d="M 419.144575 155.973611 
L 413.816194 154.93033 
L 400.551942 152.164633 
L 395.990497 151.564272 
L 391.72371 151.234188 
L 387.191277 151.111033 
L 382.329185 151.216948 
L 377.919016 151.533795 
L 375.127026 151.89152 
L 372.488835 152.439117 
L 369.96649 153.265741 
L 367.642243 154.335121 
L 365.618501 155.535254 
L 365.328924 155.881004 
L 365.48308 156.001455 
L 366.405806 156.257964 
L 369.530753 156.822416 
L 373.308651 157.273234 
L 377.143077 157.487532 
L 380.75425 157.458739 
L 385.693986 157.160723 
L 394.362602 156.618215 
L 402.019937 156.395366 
L 417.894049 156.033256 
L 419.139958 155.966546 
L 419.139958 155.966546 
" style="fill:none;stroke:#000000;stroke-linecap:square;stroke-opacity:0.7;stroke-width:1.2;"/>
   </g>
   <g id="line2d_56">
    <path clip-path="url(#p2d5ee71937)" d="M 419.152811 136.752715 
L 414.818851 135.809393 
L 402.969353 133.052088 
L 398.871523 132.439966 
L 394.329612 132.029486 
L 390.610068 131.877699 
L 385.82388 131.89206 
L 381.473022 132.094499 
L 377.553479 132.466456 
L 374.791417 132.920852 
L 372.461315 133.520789 
L 370.07993 134.400623 
L 368.341137 135.223705 
L 366.120479 136.539926 
L 365.68097 136.996777 
L 365.775213 137.116921 
L 366.501579 137.345407 
L 369.166154 137.837996 
L 372.74512 138.300997 
L 376.786347 138.589032 
L 380.352267 138.63241 
L 384.939544 138.45476 
L 399.165555 137.743918 
L 413.841394 137.173676 
L 419.144389 136.750237 
L 419.144389 136.750237 
" style="fill:none;stroke:#000000;stroke-linecap:square;stroke-opacity:0.7;stroke-width:1.2;"/>
   </g>
   <g id="line2d_57">
    <path clip-path="url(#p2d5ee71937)" d="M 419.154839 117.533063 
L 414.012294 116.469227 
L 400.589006 113.496025 
L 396.897851 112.967068 
L 392.733386 112.572839 
L 387.96126 112.357311 
L 382.829752 112.373598 
L 378.636301 112.587999 
L 375.434799 112.947216 
L 372.842918 113.465754 
L 371.006959 114.004733 
L 368.844596 114.839153 
L 366.413117 116.045314 
L 364.649874 117.182809 
L 364.224769 117.672087 
L 364.270295 117.829643 
L 364.607366 118.017535 
L 365.65552 118.300724 
L 368.832646 118.885129 
L 372.814037 119.378144 
L 376.941116 119.627256 
L 380.881653 119.628716 
L 405.057941 118.943403 
L 410.507591 118.601127 
L 415.821913 118.026894 
L 419.147634 117.528262 
L 419.147634 117.528262 
" style="fill:none;stroke:#000000;stroke-linecap:square;stroke-opacity:0.7;stroke-width:1.2;"/>
   </g>
   <g id="line2d_58">
    <path clip-path="url(#p2d5ee71937)" d="M 419.146844 98.312766 
L 413.920667 97.120346 
L 403.01543 94.535324 
L 398.740089 93.817979 
L 394.515321 93.344313 
L 390.209909 93.084259 
L 385.278197 93.029113 
L 380.814271 93.188407 
L 376.631647 93.5706 
L 373.694377 94.099981 
L 371.521851 94.746363 
L 369.617011 95.55175 
L 367.952652 96.461399 
L 366.03364 97.823505 
L 365.469412 98.486778 
L 365.526458 98.644658 
L 365.881496 98.80726 
L 367.539139 99.194553 
L 371.44331 99.907125 
L 375.523441 100.417302 
L 378.816005 100.627957 
L 383.75269 100.675663 
L 401.630067 100.428218 
L 407.512604 100.108564 
L 412.072568 99.615265 
L 415.80058 99.006585 
L 419.138302 98.308944 
L 419.138302 98.308944 
" style="fill:none;stroke:#000000;stroke-linecap:square;stroke-opacity:0.7;stroke-width:1.2;"/>
   </g>
   <g id="line2d_59">
    <path clip-path="url(#p2d5ee71937)" d="M 419.152543 79.087845 
L 412.452913 77.591893 
L 403.604343 75.593713 
L 399.271774 74.843447 
L 394.804104 74.300649 
L 390.570309 73.995226 
L 385.457258 73.867864 
L 380.517922 73.971595 
L 375.842099 74.305133 
L 373.127253 74.695485 
L 370.734896 75.298248 
L 368.928358 75.993218 
L 367.493531 76.712123 
L 365.103254 78.286341 
L 364.239113 79.149195 
L 364.222758 79.412348 
L 364.425929 79.571257 
L 365.046161 79.795387 
L 367.831236 80.481836 
L 372.281677 81.303 
L 376.103534 81.755007 
L 379.700974 81.954783 
L 384.024988 81.980321 
L 400.939417 81.699805 
L 405.877862 81.427527 
L 409.857363 81.009905 
L 413.834887 80.350957 
L 417.881 79.421917 
L 419.142244 79.086804 
L 419.142244 79.086804 
" style="fill:none;stroke:#000000;stroke-linecap:square;stroke-opacity:0.7;stroke-width:1.2;"/>
   </g>
   <g id="line2d_60">
    <path clip-path="url(#p2d5ee71937)" d="M 419.169734 59.870474 
L 412.617337 58.306224 
L 404.51552 56.367166 
L 400.204526 55.579561 
L 396.289998 55.071573 
L 391.929931 54.727679 
L 387.072201 54.587602 
L 382.027591 54.678447 
L 377.506987 54.973128 
L 374.547685 55.356828 
L 372.196447 55.903042 
L 370.590024 56.476826 
L 368.768799 57.369086 
L 366.829861 58.639432 
L 365.700576 59.631993 
L 365.446596 60.112626 
L 365.592931 60.315413 
L 366.26037 60.665939 
L 368.730236 61.6745 
L 372.121624 62.811944 
L 375.115544 63.560008 
L 377.941378 64.039904 
L 381.78919 64.419632 
L 388.260622 64.756342 
L 395.871692 64.961977 
L 400.868524 64.876839 
L 404.425375 64.586479 
L 406.785341 64.231532 
L 409.5314 63.61543 
L 412.855017 62.565397 
L 415.333764 61.594328 
L 419.158225 59.88147 
L 419.158225 59.88147 
" style="fill:none;stroke:#000000;stroke-linecap:square;stroke-opacity:0.7;stroke-width:1.2;"/>
   </g>
   <g id="line2d_61">
    <path clip-path="url(#p2d5ee71937)" d="M 483.225877 232.845882 
L 477.725581 231.426776 
L 470.380519 229.544947 
L 466.199122 228.751188 
L 461.869565 228.200314 
L 457.824871 227.904589 
L 452.812302 227.783225 
L 447.869709 227.89534 
L 443.105099 228.242578 
L 440.357619 228.623314 
L 437.765024 229.214411 
L 435.346023 230.047495 
L 433.217998 231.023496 
L 431.086811 232.252266 
L 429.869933 233.206795 
L 429.874253 233.393657 
L 430.118593 233.45851 
L 431.19582 233.478348 
L 434.651838 233.26541 
L 439.355117 232.750583 
L 444.966286 231.890986 
L 454.632263 230.271076 
L 457.740542 230.040788 
L 461.275096 230.025889 
L 465.347496 230.268916 
L 469.937686 230.778389 
L 476.979725 231.830916 
L 483.220391 232.848123 
L 483.220391 232.848123 
" style="fill:none;stroke:#000000;stroke-linecap:square;stroke-opacity:0.7;stroke-width:1.2;"/>
   </g>
   <g id="line2d_62">
    <path clip-path="url(#p2d5ee71937)" d="M 483.224271 213.63574 
L 468.044474 209.831597 
L 464.528685 209.282858 
L 460.655844 208.881567 
L 456.393344 208.65859 
L 451.928812 208.634882 
L 446.822586 208.832011 
L 442.542737 209.179632 
L 439.110126 209.64506 
L 436.136574 210.323155 
L 433.983255 211.067658 
L 432.209524 211.873081 
L 430.166021 213.054556 
L 429.007559 213.97353 
L 428.955103 214.21304 
L 429.229824 214.307606 
L 430.698171 214.382901 
L 434.370859 214.339464 
L 439.822606 214.033023 
L 445.491646 213.466288 
L 453.146538 212.653888 
L 457.29595 212.471672 
L 461.678191 212.492216 
L 467.78205 212.750212 
L 483.21651 213.635962 
L 483.21651 213.635962 
" style="fill:none;stroke:#000000;stroke-linecap:square;stroke-opacity:0.7;stroke-width:1.2;"/>
   </g>
   <g id="line2d_63">
    <path clip-path="url(#p2d5ee71937)" d="M 483.229435 194.412261 
L 473.561001 191.83962 
L 469.031026 190.760451 
L 465.102951 190.041306 
L 461.444951 189.573575 
L 457.673679 189.284292 
L 453.631024 189.169417 
L 448.714661 189.269052 
L 444.352373 189.562506 
L 440.865583 189.97171 
L 438.086993 190.511932 
L 435.951514 191.16164 
L 434.008875 191.98436 
L 432.119725 193.012422 
L 430.376838 194.201967 
L 429.681154 194.900663 
L 429.77754 195.051297 
L 430.323752 195.150748 
L 433.064749 195.280945 
L 437.223301 195.278498 
L 442.40489 195.024185 
L 457.152145 193.996978 
L 462.927294 194.014632 
L 483.223952 194.407594 
L 483.223952 194.407594 
" style="fill:none;stroke:#000000;stroke-linecap:square;stroke-opacity:0.7;stroke-width:1.2;"/>
   </g>
   <g id="line2d_64">
    <path clip-path="url(#p2d5ee71937)" d="M 483.225616 175.196027 
L 467.918231 171.66461 
L 463.803928 171.117815 
L 459.738534 170.816623 
L 455.297369 170.740215 
L 451.179621 170.885189 
L 446.840769 171.239504 
L 441.616147 171.895103 
L 437.838188 172.537326 
L 434.752645 173.334141 
L 432.152838 174.302772 
L 430.024101 175.352476 
L 429.690867 175.682402 
L 429.860958 175.803746 
L 430.689505 175.980489 
L 433.616002 176.305552 
L 437.74485 176.515497 
L 441.805558 176.489774 
L 446.827175 176.185396 
L 455.269566 175.574728 
L 461.770127 175.3907 
L 472.33428 175.390124 
L 480.621853 175.290979 
L 483.216021 175.192522 
L 483.216021 175.192522 
" style="fill:none;stroke:#000000;stroke-linecap:square;stroke-opacity:0.7;stroke-width:1.2;"/>
   </g>
   <g id="line2d_65">
    <path clip-path="url(#p2d5ee71937)" d="M 483.243253 155.972812 
L 475.904584 153.936365 
L 471.084004 152.70046 
L 467.236515 151.94953 
L 464.109558 151.514864 
L 460.029317 151.16604 
L 455.55818 151.033323 
L 451.185097 151.124297 
L 446.262029 151.462193 
L 441.884212 151.975692 
L 438.562104 152.564528 
L 436.04998 153.217431 
L 433.821682 153.993088 
L 431.645414 154.941939 
L 429.848082 155.967988 
L 429.680536 156.286276 
L 429.877132 156.41556 
L 430.672231 156.613258 
L 433.434202 157.00429 
L 438.361063 157.437875 
L 442.506856 157.580767 
L 446.767725 157.486679 
L 452.855667 157.0623 
L 460.892803 156.567965 
L 468.90347 156.328896 
L 483.225921 155.962709 
L 483.225921 155.962709 
" style="fill:none;stroke:#000000;stroke-linecap:square;stroke-opacity:0.7;stroke-width:1.2;"/>
   </g>
   <g id="line2d_66">
    <path clip-path="url(#p2d5ee71937)" d="M 483.236482 136.746724 
L 469.427806 133.164414 
L 465.614822 132.504426 
L 461.439774 132.028364 
L 457.017698 131.779164 
L 452.203666 131.768587 
L 447.76901 131.97048 
L 442.872846 132.412381 
L 438.95378 132.977395 
L 436.21793 133.623948 
L 434.307246 134.31379 
L 432.668126 135.098637 
L 430.414883 136.505335 
L 429.614222 137.241942 
L 429.604666 137.459342 
L 429.871822 137.621867 
L 430.980991 137.878918 
L 434.06282 138.295213 
L 438.298372 138.606371 
L 442.024878 138.66361 
L 446.438996 138.504888 
L 459.518484 137.849212 
L 477.277576 137.250955 
L 483.226509 136.743005 
L 483.226509 136.743005 
" style="fill:none;stroke:#000000;stroke-linecap:square;stroke-opacity:0.7;stroke-width:1.2;"/>
   </g>
   <g id="line2d_67">
    <path clip-path="url(#p2d5ee71937)" d="M 483.243972 117.529354 
L 468.571587 113.790898 
L 464.430358 113.103223 
L 460.524747 112.682388 
L 456.1143 112.447576 
L 451.55042 112.437991 
L 446.617649 112.659618 
L 441.885822 113.089432 
L 438.322008 113.618678 
L 436.001286 114.169495 
L 433.754762 114.964219 
L 431.439232 116.093448 
L 429.55001 117.297409 
L 428.947165 117.90289 
L 428.996045 118.111711 
L 429.393771 118.309303 
L 430.882187 118.674025 
L 434.24996 119.24906 
L 438.029717 119.675938 
L 441.982587 119.873319 
L 446.016666 119.826937 
L 467.932283 118.902359 
L 474.939452 118.479728 
L 480.667778 117.880616 
L 483.232525 117.526949 
L 483.232525 117.526949 
" style="fill:none;stroke:#000000;stroke-linecap:square;stroke-opacity:0.7;stroke-width:1.2;"/>
   </g>
   <g id="line2d_68">
    <path clip-path="url(#p2d5ee71937)" d="M 483.234467 98.311231 
L 468.667477 94.468676 
L 465.123566 93.845458 
L 461.006196 93.354051 
L 457.315422 93.113546 
L 452.554519 93.056882 
L 448.082206 93.237543 
L 443.411086 93.648389 
L 439.44262 94.217872 
L 437.084931 94.762377 
L 434.97575 95.512178 
L 433.517306 96.219828 
L 431.568777 97.435476 
L 430.242608 98.530352 
L 430.005957 98.931632 
L 430.161814 99.120092 
L 430.52329 99.269422 
L 432.719325 99.834504 
L 435.966844 100.448938 
L 439.628608 100.87518 
L 442.74242 101.017745 
L 447.792994 100.975197 
L 467.259515 100.402368 
L 472.684391 99.992456 
L 477.437221 99.392198 
L 481.924736 98.5837 
L 483.226908 98.308178 
L 483.226908 98.308178 
" style="fill:none;stroke:#000000;stroke-linecap:square;stroke-opacity:0.7;stroke-width:1.2;"/>
   </g>
   <g id="line2d_69">
    <path clip-path="url(#p2d5ee71937)" d="M 483.233831 79.089726 
L 477.941967 77.54978 
L 471.263374 75.606038 
L 467.75105 74.803905 
L 463.684879 74.119235 
L 460.069818 73.710605 
L 455.606785 73.428761 
L 450.820773 73.360741 
L 446.021294 73.51426 
L 441.887095 73.857666 
L 439.101148 74.285024 
L 437.411169 74.683534 
L 435.739288 75.223084 
L 433.855799 76.028442 
L 431.666679 77.238662 
L 429.823591 78.5267 
L 428.811092 79.51189 
L 428.751422 79.820057 
L 429.011463 80.035005 
L 429.95796 80.368487 
L 433.007179 81.180129 
L 436.347423 81.891109 
L 439.887444 82.403362 
L 443.479359 82.651327 
L 448.25401 82.716873 
L 460.34766 82.59901 
L 466.45463 82.3441 
L 470.672674 81.961104 
L 473.888693 81.491734 
L 477.492693 80.743424 
L 481.191602 79.7322 
L 483.22312 79.090039 
L 483.22312 79.090039 
" style="fill:none;stroke:#000000;stroke-linecap:square;stroke-opacity:0.7;stroke-width:1.2;"/>
   </g>
   <g id="line2d_70">
    <path clip-path="url(#p2d5ee71937)" d="M 483.23698 59.870366 
L 471.177656 56.569559 
L 466.975707 55.751326 
L 462.766291 55.19342 
L 458.808068 54.897067 
L 454.435587 54.811453 
L 450.313099 54.951707 
L 445.935899 55.324786 
L 441.565934 55.919153 
L 438.614629 56.471513 
L 436.66712 56.982596 
L 434.77299 57.736914 
L 433.471329 58.470484 
L 432.021724 59.525494 
L 431.110759 60.430276 
L 431.102311 60.674415 
L 431.342906 60.872985 
L 432.559502 61.469878 
L 435.246194 62.53746 
L 438.099289 63.42164 
L 440.407004 63.950838 
L 443.339869 64.400358 
L 447.464482 64.739382 
L 454.861238 65.044421 
L 462.048649 65.156441 
L 466.117553 65.020889 
L 469.219045 64.712886 
L 471.684048 64.279369 
L 474.512456 63.533649 
L 477.142416 62.607688 
L 480.53092 61.159864 
L 483.225808 59.878546 
L 483.225808 59.878546 
" style="fill:none;stroke:#000000;stroke-linecap:square;stroke-opacity:0.7;stroke-width:1.2;"/>
   </g>
   <g id="line2d_71">
    <path clip-path="url(#p2d5ee71937)" d="M 547.31515 232.848646 
L 538.196047 230.008031 
L 534.356288 229.070133 
L 530.806482 228.430843 
L 526.508213 227.930222 
L 522.029536 227.676222 
L 517.155902 227.654169 
L 512.411558 227.849775 
L 507.890622 228.226662 
L 504.035814 228.74005 
L 501.20647 229.340046 
L 499.468835 229.885363 
L 497.107002 230.927248 
L 495.064763 232.13618 
L 493.410295 233.400928 
L 493.299484 233.66107 
L 493.471329 233.713306 
L 494.773138 233.720467 
L 498.697061 233.45941 
L 503.90997 232.864667 
L 509.497649 231.980966 
L 518.253523 230.49537 
L 521.390863 230.225309 
L 525.051308 230.170942 
L 528.578533 230.340384 
L 532.893141 230.762163 
L 539.25457 231.633914 
L 547.303418 232.850628 
L 547.303418 232.850628 
" style="fill:none;stroke:#000000;stroke-linecap:square;stroke-opacity:0.7;stroke-width:1.2;"/>
   </g>
   <g id="line2d_72">
    <path clip-path="url(#p2d5ee71937)" d="M 547.312063 213.629544 
L 538.632014 210.805141 
L 535.229175 209.912364 
L 531.477146 209.170612 
L 527.818982 208.678763 
L 523.577349 208.34932 
L 519.113794 208.23303 
L 514.191485 208.335959 
L 508.938948 208.693229 
L 505.044981 209.151557 
L 501.806589 209.755077 
L 500.357684 210.151509 
L 498.250081 210.963914 
L 496.484433 211.917693 
L 494.559852 213.269044 
L 493.270713 214.456707 
L 493.286628 214.631977 
L 493.679831 214.710123 
L 496.032526 214.758915 
L 499.807216 214.632494 
L 504.849869 214.228028 
L 509.929408 213.60075 
L 518.85672 212.442726 
L 522.697522 212.223467 
L 526.979521 212.21525 
L 532.421554 212.456717 
L 541.092274 213.123588 
L 547.305934 213.621687 
L 547.305934 213.621687 
" style="fill:none;stroke:#000000;stroke-linecap:square;stroke-opacity:0.7;stroke-width:1.2;"/>
   </g>
   <g id="line2d_73">
    <path clip-path="url(#p2d5ee71937)" d="M 547.314899 194.409651 
L 538.184215 191.310085 
L 534.821399 190.48402 
L 531.397502 189.891088 
L 527.900135 189.501494 
L 523.506894 189.257749 
L 518.744136 189.242172 
L 513.925039 189.448557 
L 508.91283 189.887345 
L 504.807462 190.470332 
L 502.209037 191.04941 
L 500.045133 191.764874 
L 498.330259 192.528468 
L 496.142269 193.787959 
L 494.643159 194.934603 
L 494.418861 195.323713 
L 494.554596 195.424814 
L 495.164883 195.524144 
L 496.801857 195.606369 
L 501.245688 195.610409 
L 506.109459 195.377255 
L 511.825498 194.836147 
L 520.27722 193.97307 
L 524.170374 193.789291 
L 529.640845 193.774706 
L 537.33549 194.027336 
L 547.303992 194.403935 
L 547.303992 194.403935 
" style="fill:none;stroke:#000000;stroke-linecap:square;stroke-opacity:0.7;stroke-width:1.2;"/>
   </g>
   <g id="line2d_74">
    <path clip-path="url(#p2d5ee71937)" d="M 547.313531 175.193146 
L 537.67134 172.229937 
L 533.901363 171.3402 
L 529.957915 170.66921 
L 526.2068 170.256872 
L 522.312732 170.031044 
L 517.712494 169.995589 
L 513.070004 170.186389 
L 508.56032 170.577089 
L 504.69937 171.09481 
L 501.96199 171.635861 
L 499.987015 172.203138 
L 497.887298 173.059217 
L 495.999518 174.092424 
L 494.212896 175.341166 
L 493.446115 176.131196 
L 493.49446 176.276301 
L 493.865382 176.398114 
L 495.006069 176.525434 
L 498.423797 176.680101 
L 502.607327 176.654139 
L 507.551976 176.378047 
L 520.984786 175.367882 
L 526.841212 175.294024 
L 546.047395 175.235296 
L 547.29853 175.186353 
L 547.29853 175.186353 
" style="fill:none;stroke:#000000;stroke-linecap:square;stroke-opacity:0.7;stroke-width:1.2;"/>
   </g>
   <g id="line2d_75">
    <path clip-path="url(#p2d5ee71937)" d="M 547.308433 155.966735 
L 538.888443 153.20794 
L 535.18413 152.252921 
L 531.69635 151.591528 
L 528.550177 151.183347 
L 524.500458 150.887816 
L 520.294874 150.816972 
L 515.899941 150.966142 
L 511.008144 151.371631 
L 506.208013 152.003009 
L 502.329536 152.73396 
L 500.100302 153.343387 
L 497.933349 154.178266 
L 495.821366 155.275042 
L 494.194974 156.380555 
L 493.846326 156.822285 
L 494.006641 156.991406 
L 494.49415 157.130172 
L 496.826511 157.449713 
L 500.854692 157.734332 
L 505.009215 157.784522 
L 509.138202 157.606323 
L 526.583065 156.473339 
L 538.95718 156.273272 
L 546.686352 155.997693 
L 547.299709 155.9639 
L 547.299709 155.9639 
" style="fill:none;stroke:#000000;stroke-linecap:square;stroke-opacity:0.7;stroke-width:1.2;"/>
   </g>
   <g id="line2d_76">
    <path clip-path="url(#p2d5ee71937)" d="M 547.314353 136.74908 
L 538.052427 133.753016 
L 534.76028 132.925396 
L 530.950813 132.215448 
L 527.367666 131.772281 
L 523.517488 131.506342 
L 519.185593 131.432611 
L 514.747983 131.575275 
L 510.042683 131.946705 
L 505.788221 132.482983 
L 502.513035 133.092017 
L 500.340499 133.693822 
L 498.264116 134.523913 
L 496.537983 135.449378 
L 494.569514 136.827401 
L 493.858906 137.596164 
L 493.916428 137.803057 
L 494.342587 137.971861 
L 496.05031 138.255536 
L 499.168109 138.564177 
L 502.875431 138.729332 
L 506.901203 138.687944 
L 512.345745 138.366347 
L 520.27161 137.902886 
L 528.57534 137.70352 
L 538.594466 137.423933 
L 544.720119 137.000749 
L 547.302806 136.742736 
L 547.302806 136.742736 
" style="fill:none;stroke:#000000;stroke-linecap:square;stroke-opacity:0.7;stroke-width:1.2;"/>
   </g>
   <g id="line2d_77">
    <path clip-path="url(#p2d5ee71937)" d="M 547.322039 117.524125 
L 538.829142 114.620938 
L 535.162676 113.646228 
L 531.551427 112.94998 
L 528.174896 112.516957 
L 524.323584 112.2415 
L 519.672436 112.16967 
L 515.241963 112.328895 
L 510.108197 112.762314 
L 505.402585 113.399093 
L 502.195281 114.036486 
L 500.357945 114.563985 
L 498.323933 115.384334 
L 496.078409 116.628558 
L 494.301167 117.914797 
L 493.870458 118.46092 
L 493.978154 118.619461 
L 494.303691 118.76071 
L 495.849413 119.124232 
L 499.322178 119.677584 
L 502.872646 120.020519 
L 506.657425 120.142619 
L 511.091912 120.0094 
L 541.046207 118.290921 
L 546.56489 117.628991 
L 547.313744 117.520381 
L 547.313744 117.520381 
" style="fill:none;stroke:#000000;stroke-linecap:square;stroke-opacity:0.7;stroke-width:1.2;"/>
   </g>
   <g id="line2d_78">
    <path clip-path="url(#p2d5ee71937)" d="M 547.3134 98.303389 
L 539.204489 95.640976 
L 535.571958 94.678996 
L 532.20213 94.000541 
L 528.150888 93.444309 
L 524.403747 93.152486 
L 520.135403 93.051589 
L 516.183692 93.160823 
L 511.903906 93.48712 
L 507.425217 94.051104 
L 503.234054 94.810408 
L 500.679089 95.513874 
L 498.865011 96.249636 
L 497.487427 96.966616 
L 495.617213 98.1641 
L 494.389396 99.201683 
L 494.312282 99.499645 
L 494.545866 99.678052 
L 495.248871 99.914057 
L 497.663764 100.43782 
L 501.10658 100.924436 
L 504.069967 101.144664 
L 508.078285 101.188966 
L 515.524236 100.916276 
L 535.293543 100.051963 
L 539.880749 99.565465 
L 544.081627 98.920991 
L 547.302466 98.299408 
L 547.302466 98.299408 
" style="fill:none;stroke:#000000;stroke-linecap:square;stroke-opacity:0.7;stroke-width:1.2;"/>
   </g>
   <g id="line2d_79">
    <path clip-path="url(#p2d5ee71937)" d="M 547.321781 79.088771 
L 537.17789 75.587913 
L 533.989312 74.780442 
L 530.592785 74.144656 
L 526.663496 73.654916 
L 522.602272 73.376196 
L 517.992977 73.292216 
L 513.00988 73.441627 
L 508.152717 73.820063 
L 504.568843 74.302727 
L 502.06339 74.850955 
L 500.38099 75.394103 
L 498.693176 76.124044 
L 496.726981 77.225827 
L 494.812268 78.580522 
L 493.544523 79.737693 
L 493.252793 80.241863 
L 493.336805 80.445528 
L 493.609851 80.614277 
L 494.688537 80.977356 
L 497.832417 81.735142 
L 501.087789 82.281798 
L 504.552329 82.607079 
L 507.809281 82.700479 
L 514.290213 82.592078 
L 528.499927 82.135062 
L 533.673912 81.751578 
L 537.816293 81.229551 
L 541.601261 80.532315 
L 545.841683 79.497407 
L 547.310757 79.08518 
L 547.310757 79.08518 
" style="fill:none;stroke:#000000;stroke-linecap:square;stroke-opacity:0.7;stroke-width:1.2;"/>
   </g>
   <g id="line2d_80">
    <path clip-path="url(#p2d5ee71937)" d="M 547.325476 59.867292 
L 538.364513 56.739612 
L 535.251976 55.906434 
L 531.989825 55.248816 
L 528.418864 54.751478 
L 524.713956 54.440817 
L 520.280976 54.298974 
L 515.594246 54.383215 
L 510.995446 54.676946 
L 506.569162 55.161 
L 502.947297 55.777165 
L 500.553741 56.433968 
L 498.696772 57.204298 
L 497.449706 57.882956 
L 495.759083 59.029686 
L 494.383278 60.226226 
L 493.924117 60.881528 
L 494.010223 61.158153 
L 494.489315 61.445642 
L 495.583241 61.862811 
L 498.356959 62.702578 
L 501.964477 63.52575 
L 505.280244 64.02327 
L 508.18606 64.271651 
L 513.583465 64.46383 
L 526.04984 64.619021 
L 530.747851 64.462734 
L 534.133358 64.125622 
L 536.489756 63.720092 
L 538.95313 63.115422 
L 542.015108 62.107676 
L 545.63272 60.628316 
L 547.31714 59.869166 
L 547.31714 59.869166 
" style="fill:none;stroke:#000000;stroke-linecap:square;stroke-opacity:0.7;stroke-width:1.2;"/>
   </g>
   <g id="line2d_81">
    <path clip-path="url(#p2d5ee71937)" d="M 611.396026 232.846356 
L 605.826344 230.573366 
L 602.701735 229.503756 
L 599.612508 228.679029 
L 596.303689 228.049231 
L 592.520114 227.593583 
L 588.202522 227.339655 
L 583.688863 227.309126 
L 578.655086 227.503705 
L 573.135156 227.961059 
L 568.91105 228.500756 
L 566.133652 229.002316 
L 563.603557 229.667763 
L 561.960613 230.277392 
L 559.734827 231.390205 
L 557.802272 232.654636 
L 556.521977 233.750517 
L 556.377604 234.088502 
L 556.588314 234.18713 
L 557.310927 234.223856 
L 560.068208 234.063739 
L 563.992803 233.632719 
L 569.823068 232.74238 
L 583.451449 230.411268 
L 586.40731 230.23688 
L 590.067458 230.263785 
L 594.307567 230.551998 
L 599.441502 231.138918 
L 610.281127 232.687686 
L 611.384376 232.843542 
L 611.384376 232.843542 
" style="fill:none;stroke:#000000;stroke-linecap:square;stroke-opacity:0.7;stroke-width:1.2;"/>
   </g>
   <g id="line2d_82">
    <path clip-path="url(#p2d5ee71937)" d="M 611.390832 213.632792 
L 606.006322 211.477103 
L 602.578534 210.325927 
L 599.417401 209.50075 
L 596.369521 208.917924 
L 593.552027 208.539912 
L 589.858583 208.239524 
L 585.569702 208.12142 
L 581.991598 208.18353 
L 576.429365 208.532042 
L 571.601281 209.068339 
L 567.326693 209.76602 
L 564.648172 210.415124 
L 562.343462 211.270529 
L 560.715296 212.136775 
L 558.978597 213.355093 
L 557.670392 214.557709 
L 557.522239 214.883314 
L 557.733563 214.963053 
L 558.615481 214.996945 
L 562.258351 214.851798 
L 567.135665 214.394645 
L 573.325215 213.545603 
L 579.693443 212.700143 
L 584.028478 212.434402 
L 588.734194 212.441938 
L 595.129293 212.728782 
L 611.382214 213.63066 
L 611.382214 213.63066 
" style="fill:none;stroke:#000000;stroke-linecap:square;stroke-opacity:0.7;stroke-width:1.2;"/>
   </g>
   <g id="line2d_83">
    <path clip-path="url(#p2d5ee71937)" d="M 611.397875 194.404707 
L 605.754874 192.226648 
L 602.369161 191.120004 
L 598.915337 190.255585 
L 595.7866 189.705535 
L 592.307857 189.315007 
L 588.163915 189.095499 
L 583.394431 189.108379 
L 578.719528 189.350412 
L 573.948678 189.807998 
L 569.149192 190.497877 
L 565.687036 191.21964 
L 564.009473 191.705434 
L 561.77941 192.593704 
L 559.85678 193.638973 
L 557.887407 195.003513 
L 557.120654 195.753784 
L 557.190546 195.866576 
L 557.616558 195.966613 
L 559.529169 196.097618 
L 563.614399 196.130661 
L 568.049812 195.942224 
L 573.171356 195.470543 
L 585.647418 194.058915 
L 590.354292 193.87654 
L 595.749945 193.904498 
L 605.510851 194.238768 
L 611.390055 194.402964 
L 611.390055 194.402964 
" style="fill:none;stroke:#000000;stroke-linecap:square;stroke-opacity:0.7;stroke-width:1.2;"/>
   </g>
   <g id="line2d_84">
    <path clip-path="url(#p2d5ee71937)" d="M 611.393159 175.18432 
L 605.776132 172.794903 
L 602.861006 171.777742 
L 599.92854 170.991686 
L 596.6189 170.368971 
L 592.926003 169.938405 
L 589.104707 169.721779 
L 584.841468 169.70096 
L 579.962959 169.917521 
L 575.097518 170.361729 
L 570.319611 171.022399 
L 567.29905 171.601887 
L 565.054484 172.204179 
L 563.047018 172.985612 
L 561.675475 173.703831 
L 560.093105 174.746513 
L 558.843091 175.772959 
L 558.289714 176.451757 
L 558.368073 176.585011 
L 558.766925 176.686946 
L 560.650728 176.828949 
L 564.328981 176.895045 
L 568.713365 176.747385 
L 573.349826 176.369433 
L 583.119824 175.46828 
L 588.178817 175.296956 
L 595.735755 175.304067 
L 606.887105 175.314956 
L 611.378639 175.183837 
L 611.378639 175.183837 
" style="fill:none;stroke:#000000;stroke-linecap:square;stroke-opacity:0.7;stroke-width:1.2;"/>
   </g>
   <g id="line2d_85">
    <path clip-path="url(#p2d5ee71937)" d="M 611.394066 155.963129 
L 604.587034 153.160061 
L 601.973736 152.302181 
L 599.368004 151.637515 
L 595.950112 151.019959 
L 592.108807 150.592662 
L 587.824855 150.366196 
L 583.568388 150.346577 
L 578.182647 150.568989 
L 573.342112 150.996849 
L 569.258678 151.577584 
L 566.716643 152.128069 
L 564.287463 152.912246 
L 561.997644 153.965184 
L 560.482052 154.836876 
L 558.172423 156.467519 
L 557.426662 157.247421 
L 557.463442 157.472008 
L 557.707952 157.596159 
L 558.736412 157.783536 
L 561.640941 158.012803 
L 565.275288 158.108546 
L 570.079013 157.992534 
L 575.061262 157.615669 
L 586.758783 156.564637 
L 593.125613 156.314835 
L 611.384596 155.958285 
L 611.384596 155.958285 
" style="fill:none;stroke:#000000;stroke-linecap:square;stroke-opacity:0.7;stroke-width:1.2;"/>
   </g>
   <g id="line2d_86">
    <path clip-path="url(#p2d5ee71937)" d="M 611.406469 136.748098 
L 605.474503 134.242422 
L 602.098016 133.080685 
L 598.956526 132.269539 
L 596.062038 131.734373 
L 592.48622 131.299794 
L 588.590155 131.05115 
L 584.088379 130.995504 
L 579.558992 131.146797 
L 574.482129 131.533499 
L 569.765642 132.101644 
L 566.314076 132.704318 
L 564.270586 133.211508 
L 561.900659 134.053312 
L 559.598877 135.192568 
L 557.554988 136.465922 
L 555.823501 137.822345 
L 555.560059 138.274529 
L 555.674256 138.426043 
L 556.23566 138.620292 
L 558.241251 138.909875 
L 561.913705 139.156937 
L 566.245028 139.189948 
L 570.694557 138.98897 
L 586.477074 137.976547 
L 605.531205 137.28683 
L 611.392849 136.743115 
L 611.392849 136.743115 
" style="fill:none;stroke:#000000;stroke-linecap:square;stroke-opacity:0.7;stroke-width:1.2;"/>
   </g>
   <g id="line2d_87">
    <path clip-path="url(#p2d5ee71937)" d="M 611.408102 117.518696 
L 606.523188 115.18642 
L 603.695746 114.048882 
L 601.141288 113.243447 
L 598.581227 112.64242 
L 595.30108 112.113624 
L 591.400825 111.747975 
L 587.021444 111.590448 
L 582.486402 111.647541 
L 577.243481 111.947576 
L 572.641625 112.407781 
L 568.298081 113.0608 
L 565.544941 113.694343 
L 563.0931 114.566668 
L 561.692261 115.252084 
L 559.894855 116.35265 
L 557.819154 117.972563 
L 556.900731 118.947372 
L 556.776105 119.336949 
L 556.94267 119.502563 
L 557.303985 119.622274 
L 559.109246 119.901191 
L 562.892053 120.260354 
L 567.287629 120.443761 
L 571.482205 120.379153 
L 576.290201 120.080759 
L 588.97623 119.204962 
L 604.375458 118.28769 
L 610.377587 117.649317 
L 611.399694 117.515601 
L 611.399694 117.515601 
" style="fill:none;stroke:#000000;stroke-linecap:square;stroke-opacity:0.7;stroke-width:1.2;"/>
   </g>
   <g id="line2d_88">
    <path clip-path="url(#p2d5ee71937)" d="M 611.4098 98.305805 
L 606.216908 95.755029 
L 603.428214 94.64108 
L 600.911476 93.878578 
L 597.967241 93.249869 
L 594.655012 92.804591 
L 591.04171 92.556227 
L 586.956499 92.506209 
L 582.544242 92.676239 
L 577.895326 93.073134 
L 572.988556 93.722396 
L 568.906547 94.48891 
L 566.46662 95.146862 
L 564.534616 95.884944 
L 562.666265 96.843808 
L 560.625359 98.1694 
L 559.045413 99.441723 
L 558.862876 99.758983 
L 558.993767 99.927818 
L 559.474043 100.135096 
L 561.548335 100.674126 
L 564.411986 101.181984 
L 567.43596 101.501793 
L 570.315384 101.618704 
L 574.66903 101.530644 
L 595.822669 100.456919 
L 600.845228 100.046871 
L 605.638177 99.418747 
L 610.265084 98.552305 
L 611.398855 98.304821 
L 611.398855 98.304821 
" style="fill:none;stroke:#000000;stroke-linecap:square;stroke-opacity:0.7;stroke-width:1.2;"/>
   </g>
   <g id="line2d_89">
    <path clip-path="url(#p2d5ee71937)" d="M 611.406734 79.08157 
L 606.540899 76.870975 
L 603.126908 75.576925 
L 600.413441 74.779063 
L 597.321017 74.106213 
L 593.985203 73.610924 
L 590.301667 73.284742 
L 585.984708 73.142083 
L 581.402343 73.231182 
L 576.384837 73.58467 
L 572.259106 74.0724 
L 568.306687 74.736354 
L 565.820579 75.320286 
L 563.952035 75.946858 
L 562.304733 76.746538 
L 560.783788 77.758549 
L 558.859643 79.447021 
L 557.987578 80.515106 
L 557.984222 80.757907 
L 558.209408 80.949412 
L 558.782342 81.188534 
L 560.765534 81.751931 
L 563.490756 82.300434 
L 565.969506 82.630272 
L 569.3741 82.850411 
L 573.648983 82.83459 
L 584.047651 82.407194 
L 594.627181 81.897409 
L 600.051263 81.393596 
L 603.996096 80.800903 
L 608.128003 79.933067 
L 611.39067 79.082976 
L 611.39067 79.082976 
" style="fill:none;stroke:#000000;stroke-linecap:square;stroke-opacity:0.7;stroke-width:1.2;"/>
   </g>
   <g id="line2d_90">
    <path clip-path="url(#p2d5ee71937)" d="M 611.403042 59.86438 
L 606.122834 57.50906 
L 602.736103 56.265164 
L 600.076873 55.526342 
L 597.410582 54.984722 
L 593.963306 54.527761 
L 590.245759 54.280249 
L 586.457408 54.239999 
L 582.114194 54.415695 
L 577.048132 54.883941 
L 572.673551 55.502288 
L 568.504093 56.300496 
L 566.372361 56.845957 
L 564.232611 57.609363 
L 562.695322 58.364963 
L 560.801576 59.545073 
L 559.129987 60.842512 
L 559.076912 61.112049 
L 559.361556 61.360127 
L 560.694372 62.039116 
L 562.852369 62.900817 
L 565.211536 63.64486 
L 567.78272 64.243966 
L 570.540131 64.658191 
L 574.070312 64.923237 
L 580.263443 65.080751 
L 590.080283 65.125997 
L 594.542931 64.946232 
L 597.866274 64.587852 
L 600.569717 64.068991 
L 603.781372 63.134476 
L 606.652663 62.035862 
L 610.222263 60.435684 
L 611.389725 59.876739 
L 611.389725 59.876739 
" style="fill:none;stroke:#000000;stroke-linecap:square;stroke-opacity:0.7;stroke-width:1.2;"/>
   </g>
   <g id="line2d_91">
    <path clip-path="url(#p2d5ee71937)" d="M 675.464127 232.851025 
L 671.453352 230.407075 
L 669.158324 229.264798 
L 667.07403 228.481148 
L 664.851258 227.890547 
L 662.279341 227.443378 
L 658.785714 227.114917 
L 654.920466 227.009946 
L 650.450304 227.134248 
L 646.079914 227.458733 
L 640.91663 228.06696 
L 636.077833 228.855784 
L 632.087904 229.726271 
L 629.548526 230.51293 
L 627.479862 231.428316 
L 625.76522 232.429326 
L 623.73241 233.921763 
L 623.202882 234.48623 
L 623.422453 234.521878 
L 624.95269 234.38142 
L 629.446959 233.744641 
L 634.836668 232.770185 
L 646.896883 230.444236 
L 650.102849 230.170138 
L 653.121253 230.13549 
L 656.742917 230.32296 
L 661.449712 230.818558 
L 668.593604 231.835028 
L 675.463993 232.848835 
L 675.463993 232.848835 
" style="fill:none;stroke:#000000;stroke-linecap:square;stroke-opacity:0.7;stroke-width:1.2;"/>
   </g>
   <g id="line2d_92">
    <path clip-path="url(#p2d5ee71937)" d="M 675.45936 213.623406 
L 671.553384 211.706836 
L 668.411443 210.414013 
L 666.074065 209.661943 
L 662.915761 208.929669 
L 660.082685 208.500729 
L 656.667192 208.201183 
L 652.437605 208.08255 
L 648.109861 208.190329 
L 643.398261 208.52946 
L 638.96786 209.040024 
L 633.801967 209.872289 
L 630.565466 210.566726 
L 627.870682 211.371154 
L 625.688209 212.347051 
L 623.991887 213.385269 
L 622.260687 214.727528 
L 621.680466 215.398294 
L 621.798311 215.484353 
L 622.2887 215.528306 
L 624.710767 215.432817 
L 628.704524 215.016928 
L 633.701969 214.236736 
L 644.748358 212.348435 
L 648.065214 212.115847 
L 652.134429 212.098665 
L 657.065667 212.319377 
L 666.979072 213.052083 
L 675.46015 213.625601 
L 675.46015 213.625601 
" style="fill:none;stroke:#000000;stroke-linecap:square;stroke-opacity:0.7;stroke-width:1.2;"/>
   </g>
   <g id="line2d_93">
    <path clip-path="url(#p2d5ee71937)" d="M 675.477908 194.404882 
L 671.377988 191.930001 
L 669.291906 190.86563 
L 666.820482 189.891724 
L 665.033708 189.379198 
L 662.195228 188.820167 
L 659.062991 188.461264 
L 655.172811 188.272007 
L 650.755425 188.302699 
L 645.643374 188.586631 
L 640.359297 189.118535 
L 635.619255 189.811286 
L 632.423121 190.454273 
L 630.230041 191.05573 
L 627.992782 191.888191 
L 625.889972 192.905252 
L 623.537415 194.306521 
L 621.736837 195.642272 
L 621.496987 196.009291 
L 621.596586 196.122858 
L 622.077141 196.240013 
L 623.722794 196.34812 
L 627.128035 196.34005 
L 631.502056 196.105964 
L 636.44374 195.613613 
L 647.629979 194.322421 
L 652.616717 194.104959 
L 658.592958 194.10292 
L 675.472181 194.40189 
L 675.472181 194.40189 
" style="fill:none;stroke:#000000;stroke-linecap:square;stroke-opacity:0.7;stroke-width:1.2;"/>
   </g>
   <g id="line2d_94">
    <path clip-path="url(#p2d5ee71937)" d="M 675.486361 175.179802 
L 671.551851 172.679579 
L 669.582391 171.607001 
L 667.416307 170.666078 
L 665.208352 169.973157 
L 662.857691 169.470465 
L 660.219536 169.113467 
L 657.005297 168.888082 
L 653.00216 168.839446 
L 648.470466 169.018923 
L 643.590135 169.439719 
L 638.535968 170.10586 
L 633.953474 170.954535 
L 631.233656 171.660379 
L 628.867429 172.520193 
L 626.587259 173.639003 
L 624.293434 175.059007 
L 622.666658 176.300528 
L 622.179743 176.88804 
L 622.239992 177.043932 
L 622.5619 177.165729 
L 623.647434 177.299196 
L 626.742321 177.425319 
L 630.504102 177.382511 
L 635.086532 177.097962 
L 640.401698 176.509612 
L 648.434482 175.599232 
L 653.601114 175.287531 
L 659.917759 175.164563 
L 675.479476 175.181418 
L 675.479476 175.181418 
" style="fill:none;stroke:#000000;stroke-linecap:square;stroke-opacity:0.7;stroke-width:1.2;"/>
   </g>
   <g id="line2d_95">
    <path clip-path="url(#p2d5ee71937)" d="M 675.483106 155.955008 
L 671.700459 153.733404 
L 669.228254 152.485881 
L 666.771163 151.511295 
L 664.739116 150.907029 
L 661.789948 150.285809 
L 658.850033 149.88808 
L 655.152025 149.615 
L 650.971017 149.537974 
L 646.693716 149.664388 
L 641.709096 150.039753 
L 636.956325 150.621317 
L 633.038832 151.301366 
L 629.943685 152.064958 
L 628.330359 152.616795 
L 626.281787 153.562095 
L 624.56492 154.606022 
L 622.433958 156.246093 
L 621.207863 157.471523 
L 620.997863 157.878495 
L 621.12671 158.080398 
L 621.550875 158.208809 
L 623.036718 158.368166 
L 626.599534 158.494032 
L 630.74627 158.416241 
L 635.039971 158.122129 
L 643.119897 157.253451 
L 647.745738 156.860909 
L 654.046813 156.572569 
L 666.034554 156.346863 
L 673.748872 156.06366 
L 675.472089 155.961177 
L 675.472089 155.961177 
" style="fill:none;stroke:#000000;stroke-linecap:square;stroke-opacity:0.7;stroke-width:1.2;"/>
   </g>
   <g id="line2d_96">
    <path clip-path="url(#p2d5ee71937)" d="M 675.487475 136.736697 
L 671.320653 134.275544 
L 669.06934 133.172763 
L 667.208069 132.456169 
L 664.999178 131.824718 
L 662.228576 131.292355 
L 658.711322 130.907015 
L 655.116037 130.748956 
L 650.652014 130.797952 
L 645.600491 131.115443 
L 640.635901 131.665671 
L 636.297001 132.344279 
L 632.460486 133.158523 
L 630.016277 133.888033 
L 627.863741 134.797616 
L 625.836062 135.960004 
L 624.001917 137.282932 
L 622.619883 138.541325 
L 622.457804 138.901324 
L 622.597423 139.032308 
L 623.200776 139.182212 
L 625.314347 139.416304 
L 628.929421 139.605313 
L 632.873416 139.584838 
L 636.980277 139.33617 
L 643.906731 138.629681 
L 650.747162 138.022649 
L 657.611442 137.645459 
L 674.170096 136.842381 
L 675.476719 136.736785 
L 675.476719 136.736785 
" style="fill:none;stroke:#000000;stroke-linecap:square;stroke-opacity:0.7;stroke-width:1.2;"/>
   </g>
   <g id="line2d_97">
    <path clip-path="url(#p2d5ee71937)" d="M 675.488238 117.521824 
L 671.550356 115.076347 
L 669.249992 113.858773 
L 666.920359 112.896384 
L 664.864407 112.273357 
L 662.196026 111.709766 
L 659.154911 111.30819 
L 655.041866 111.048312 
L 650.836957 111.028563 
L 645.722085 111.266588 
L 640.447279 111.774901 
L 635.670256 112.473222 
L 632.302162 113.159718 
L 630.006542 113.813463 
L 628.128018 114.565998 
L 626.707903 115.314494 
L 624.811782 116.563259 
L 622.91814 118.073284 
L 621.717236 119.257345 
L 621.628782 119.574848 
L 621.77708 119.71029 
L 622.356135 119.905212 
L 623.980282 120.203901 
L 626.802381 120.507273 
L 630.2252 120.649772 
L 633.672136 120.591883 
L 638.775692 120.239757 
L 650.129641 119.337124 
L 671.509865 118.004249 
L 675.480208 117.519914 
L 675.480208 117.519914 
" style="fill:none;stroke:#000000;stroke-linecap:square;stroke-opacity:0.7;stroke-width:1.2;"/>
   </g>
   <g id="line2d_98">
    <path clip-path="url(#p2d5ee71937)" d="M 675.489544 98.297894 
L 671.78981 96.0803 
L 668.938206 94.645937 
L 666.876087 93.846615 
L 664.51741 93.171891 
L 661.85668 92.650126 
L 658.808027 92.277823 
L 655.567786 92.076315 
L 651.330465 92.043877 
L 646.583155 92.260029 
L 641.534626 92.745492 
L 636.936892 93.410688 
L 633.046905 94.171086 
L 630.12681 94.957616 
L 628.711694 95.480253 
L 626.847441 96.403084 
L 625.135881 97.518622 
L 623.540139 98.786817 
L 622.275343 100.028647 
L 622.075419 100.486648 
L 622.228451 100.67375 
L 622.86507 100.930193 
L 624.460704 101.304014 
L 626.833109 101.666344 
L 629.467582 101.888902 
L 632.921529 101.948388 
L 637.02167 101.770749 
L 657.130625 100.54012 
L 664.05376 100.027543 
L 668.902493 99.454124 
L 673.463454 98.69884 
L 675.477568 98.29857 
L 675.477568 98.29857 
" style="fill:none;stroke:#000000;stroke-linecap:square;stroke-opacity:0.7;stroke-width:1.2;"/>
   </g>
   <g id="line2d_99">
    <path clip-path="url(#p2d5ee71937)" d="M 675.490909 79.08069 
L 671.380855 76.580871 
L 669.142766 75.411404 
L 666.73686 74.411734 
L 664.372339 73.692411 
L 661.475772 73.089432 
L 658.627358 72.713188 
L 655.182547 72.466674 
L 651.557898 72.395637 
L 647.056566 72.521891 
L 642.237957 72.882431 
L 637.489158 73.457291 
L 633.408678 74.169912 
L 630.711817 74.851227 
L 628.768041 75.559745 
L 627.337721 76.254942 
L 625.458189 77.415255 
L 623.655432 78.786918 
L 622.373482 79.960423 
L 621.757374 80.810359 
L 621.795957 81.062266 
L 622.156412 81.334457 
L 622.915555 81.636665 
L 625.387953 82.311476 
L 628.179149 82.831412 
L 631.06369 83.150594 
L 634.311288 83.2686 
L 638.499382 83.15461 
L 660.243726 81.996151 
L 664.621068 81.498817 
L 668.173611 80.900043 
L 672.370741 79.943821 
L 675.480084 79.08409 
L 675.480084 79.08409 
" style="fill:none;stroke:#000000;stroke-linecap:square;stroke-opacity:0.7;stroke-width:1.2;"/>
   </g>
   <g id="line2d_100">
    <path clip-path="url(#p2d5ee71937)" d="M 675.483969 59.863158 
L 672.049474 57.765922 
L 669.698833 56.516653 
L 667.618427 55.622339 
L 665.413087 54.904914 
L 662.692752 54.285719 
L 659.442068 53.821285 
L 655.887421 53.555116 
L 651.916109 53.478932 
L 647.189796 53.630062 
L 642.731605 53.981288 
L 638.098853 54.552439 
L 633.810587 55.295773 
L 630.913359 55.988156 
L 629.281626 56.522214 
L 627.53259 57.319208 
L 626.109085 58.212664 
L 625.063539 59.030508 
L 623.457169 60.605106 
L 622.803821 61.557058 
L 622.831237 61.873755 
L 623.048736 62.065388 
L 624.119858 62.550941 
L 626.496041 63.337676 
L 629.423191 64.039802 
L 631.83913 64.419923 
L 634.573465 64.653175 
L 638.515317 64.723266 
L 646.840896 64.539087 
L 656.86123 64.169459 
L 660.982824 63.813576 
L 664.293761 63.321451 
L 667.143777 62.6977 
L 670.46087 61.727049 
L 674.447614 60.276485 
L 675.476355 59.865745 
L 675.476355 59.865745 
" style="fill:none;stroke:#000000;stroke-linecap:square;stroke-opacity:0.7;stroke-width:1.2;"/>
   </g>
  </g>
 </g>
 <defs>
  <clipPath id="p2d5ee71937">
   <rect height="262.08" width="694.08" x="12.96" y="12.96"/>
  </clipPath>
 </defs>
</svg>
