<svg viewBox="0 0 1496 400" xmlns="http://www.w3.org/2000/svg"><g><g><g><g><g><line x1="50" y1="378" x2="45" y2="378" style="visibility: inherit;" fill="rgb(0, 0, 0)" stroke="rgb(204, 204, 204)" stroke-width="1px"></line><line x1="50" y1="336" x2="45" y2="336" style="visibility: inherit;" fill="rgb(0, 0, 0)" stroke="rgb(204, 204, 204)" stroke-width="1px"></line><line x1="50" y1="294" x2="45" y2="294" style="visibility: inherit;" fill="rgb(0, 0, 0)" stroke="rgb(204, 204, 204)" stroke-width="1px"></line><line x1="50" y1="252" x2="45" y2="252" style="visibility: inherit;" fill="rgb(0, 0, 0)" stroke="rgb(204, 204, 204)" stroke-width="1px"></line><line x1="50" y1="210" x2="45" y2="210" style="visibility: inherit;" fill="rgb(0, 0, 0)" stroke="rgb(204, 204, 204)" stroke-width="1px"></line><line x1="50" y1="168" x2="45" y2="168" style="visibility: inherit;" fill="rgb(0, 0, 0)" stroke="rgb(204, 204, 204)" stroke-width="1px"></line><line x1="50" y1="126" x2="45" y2="126" style="visibility: inherit;" fill="rgb(0, 0, 0)" stroke="rgb(204, 204, 204)" stroke-width="1px"></line><line x1="50" y1="84" x2="45" y2="84" style="visibility: inherit;" fill="rgb(0, 0, 0)" stroke="rgb(204, 204, 204)" stroke-width="1px"></line><line x1="50" y1="42" x2="45" y2="42" style="visibility: inherit;" fill="rgb(0, 0, 0)" stroke="rgb(204, 204, 204)" stroke-width="1px"></line><line x1="50" y1="0" x2="45" y2="0" style="visibility: inherit;" fill="rgb(0, 0, 0)" stroke="rgb(204, 204, 204)" stroke-width="1px"></line></g><g transform="translate(40, 0)"><text x="0" y="378" dx="0em" dy="0.3em" style="text-anchor: end; visibility: hidden; font-family: &quot;Helvetica Neue&quot;, sans-serif; font-size: 12px; font-weight: 200;" fill="rgb(50, 49, 63)" stroke="none" stroke-width="1px">-3.5</text><text x="0" y="336" dx="0em" dy="0.3em" style="text-anchor: end; visibility: inherit; font-family: &quot;Helvetica Neue&quot;, sans-serif; font-size: 12px; font-weight: 200;" fill="rgb(50, 49, 63)" stroke="none" stroke-width="1px">-3</text><text x="0" y="294" dx="0em" dy="0.3em" style="text-anchor: end; visibility: inherit; font-family: &quot;Helvetica Neue&quot;, sans-serif; font-size: 12px; font-weight: 200;" fill="rgb(50, 49, 63)" stroke="none" stroke-width="1px">-2.5</text><text x="0" y="252" dx="0em" dy="0.3em" style="text-anchor: end; visibility: inherit; font-family: &quot;Helvetica Neue&quot;, sans-serif; font-size: 12px; font-weight: 200;" fill="rgb(50, 49, 63)" stroke="none" stroke-width="1px">-2</text><text x="0" y="210" dx="0em" dy="0.3em" style="text-anchor: end; visibility: inherit; font-family: &quot;Helvetica Neue&quot;, sans-serif; font-size: 12px; font-weight: 200;" fill="rgb(50, 49, 63)" stroke="none" stroke-width="1px">-1.5</text><text x="0" y="168" dx="0em" dy="0.3em" style="text-anchor: end; visibility: inherit; font-family: &quot;Helvetica Neue&quot;, sans-serif; font-size: 12px; font-weight: 200;" fill="rgb(50, 49, 63)" stroke="none" stroke-width="1px">-1</text><text x="0" y="126" dx="0em" dy="0.3em" style="text-anchor: end; visibility: inherit; font-family: &quot;Helvetica Neue&quot;, sans-serif; font-size: 12px; font-weight: 200;" fill="rgb(50, 49, 63)" stroke="none" stroke-width="1px">-0.5</text><text x="0" y="84" dx="0em" dy="0.3em" style="text-anchor: end; visibility: inherit; font-family: &quot;Helvetica Neue&quot;, sans-serif; font-size: 12px; font-weight: 200;" fill="rgb(50, 49, 63)" stroke="none" stroke-width="1px">0</text><text x="0" y="42" dx="0em" dy="0.3em" style="text-anchor: end; visibility: inherit; font-family: &quot;Helvetica Neue&quot;, sans-serif; font-size: 12px; font-weight: 200;" fill="rgb(50, 49, 63)" stroke="none" stroke-width="1px">0.5</text><text x="0" y="0" dx="0em" dy="0.3em" style="text-anchor: end; visibility: hidden; font-family: &quot;Helvetica Neue&quot;, sans-serif; font-size: 12px; font-weight: 200;" fill="rgb(50, 49, 63)" stroke="none" stroke-width="1px">1</text></g><line x1="50" y1="0" x2="50" y2="378" fill="rgb(0, 0, 0)" stroke="rgb(204, 204, 204)" stroke-width="1px"></line></g></g><g transform="translate(50, 0)" clip-path="url(#clip_0)"><clipPath id="clip_0"><rect width="1446" height="378"></rect></clipPath><g><g><g><line x1="0" y1="0" x2="0" y2="378" fill="rgb(0, 0, 0)" stroke="rgb(60, 60, 60)" stroke-width="1px" opacity="0.25"></line><line x1="120.5" y1="0" x2="120.5" y2="378" fill="rgb(0, 0, 0)" stroke="rgb(60, 60, 60)" stroke-width="1px" opacity="0.25"></line><line x1="241" y1="0" x2="241" y2="378" fill="rgb(0, 0, 0)" stroke="rgb(60, 60, 60)" stroke-width="1px" opacity="0.25"></line><line x1="361.5" y1="0" x2="361.5" y2="378" fill="rgb(0, 0, 0)" stroke="rgb(60, 60, 60)" stroke-width="1px" opacity="0.25"></line><line x1="482" y1="0" x2="482" y2="378" fill="rgb(0, 0, 0)" stroke="rgb(60, 60, 60)" stroke-width="1px" opacity="0.25"></line><line x1="602.5" y1="0" x2="602.5" y2="378" fill="rgb(0, 0, 0)" stroke="rgb(60, 60, 60)" stroke-width="1px" opacity="0.25"></line><line x1="723" y1="0" x2="723" y2="378" fill="rgb(0, 0, 0)" stroke="rgb(60, 60, 60)" stroke-width="1px" opacity="0.25"></line><line x1="843.5" y1="0" x2="843.5" y2="378" fill="rgb(0, 0, 0)" stroke="rgb(60, 60, 60)" stroke-width="1px" opacity="0.25"></line><line x1="964" y1="0" x2="964" y2="378" fill="rgb(0, 0, 0)" stroke="rgb(60, 60, 60)" stroke-width="1px" opacity="0.25"></line><line x1="1084.5" y1="0" x2="1084.5" y2="378" fill="rgb(0, 0, 0)" stroke="rgb(60, 60, 60)" stroke-width="1px" opacity="0.25"></line><line x1="1205" y1="0" x2="1205" y2="378" fill="rgb(0, 0, 0)" stroke="rgb(60, 60, 60)" stroke-width="1px" opacity="0.25"></line><line x1="1325.5" y1="0" x2="1325.5" y2="378" fill="rgb(0, 0, 0)" stroke="rgb(60, 60, 60)" stroke-width="1px" opacity="0.25"></line><line x1="1446" y1="0" x2="1446" y2="378" fill="rgb(0, 0, 0)" stroke="rgb(60, 60, 60)" stroke-width="1px" opacity="0.25"></line></g><g><line x1="0" y1="378" x2="1446" y2="378" fill="rgb(0, 0, 0)" stroke="rgb(60, 60, 60)" stroke-width="1px" opacity="0.25"></line><line x1="0" y1="336" x2="1446" y2="336" fill="rgb(0, 0, 0)" stroke="rgb(60, 60, 60)" stroke-width="1px" opacity="0.25"></line><line x1="0" y1="294" x2="1446" y2="294" fill="rgb(0, 0, 0)" stroke="rgb(60, 60, 60)" stroke-width="1px" opacity="0.25"></line><line x1="0" y1="252" x2="1446" y2="252" fill="rgb(0, 0, 0)" stroke="rgb(60, 60, 60)" stroke-width="1px" opacity="0.25"></line><line x1="0" y1="210" x2="1446" y2="210" fill="rgb(0, 0, 0)" stroke="rgb(60, 60, 60)" stroke-width="1px" opacity="0.25"></line><line x1="0" y1="168" x2="1446" y2="168" fill="rgb(0, 0, 0)" stroke="rgb(60, 60, 60)" stroke-width="1px" opacity="0.25"></line><line x1="0" y1="126" x2="1446" y2="126" fill="rgb(0, 0, 0)" stroke="rgb(60, 60, 60)" stroke-width="1px" opacity="0.25"></line><line x1="0" y1="84" x2="1446" y2="84" fill="rgb(0, 0, 0)" stroke="rgb(60, 60, 60)" stroke-width="1px" opacity="0.25"></line><line x1="0" y1="42" x2="1446" y2="42" fill="rgb(0, 0, 0)" stroke="rgb(60, 60, 60)" stroke-width="1px" opacity="0.25"></line><line x1="0" y1="0" x2="1446" y2="0" fill="rgb(0, 0, 0)" stroke="rgb(60, 60, 60)" stroke-width="1px" opacity="0.25"></line></g></g></g><g><g><line x1="0" y1="84" x2="1446" y2="84" fill="rgb(0, 0, 0)" stroke="rgb(153, 153, 153)" stroke-width="1.5px"></line></g></g><g><g><line x1="120.5" y1="0" x2="120.5" y2="378" fill="rgb(0, 0, 0)" stroke="rgb(153, 153, 153)" stroke-width="1.5px"></line></g></g><g><g><g><g><g><path stroke="rgb(255, 112, 67)" stroke-width="2px" d="M120.5,69.54522407054901L122.91000000000001,78.06140801310539L125.32000000000001,92.02296817302704L127.73,105.75342428684235L130.14,106.75542068481445L132.54999999999998,137.20044994354248L134.96,146.2182297706604L137.37,153.7207896709442L139.78,160.86564445495605L142.19,170.36935329437256L144.6,192.44770574569702L147.01,176.46551084518435L149.42,190.56425142288208L151.82999999999998,205.33084774017334L154.24,196.43918895721436L156.65,209.20706462860107L159.06,208.60546875L161.47,197.3280544281006L163.88,222.021803855896L166.29000000000002,223.39779996871948L168.7,239.99674129486084L171.10999999999999,232.40533590316772L173.51999999999998,235.54848861694336L175.93,245.02143573760986L178.34,238.70250606536865L180.75,238.9365234375L183.16000000000003,222.59946727752686L185.57,230.6461901664734L187.98000000000002,248.83081197738647L190.39,232.16613149642944L192.8,243.79631423950195L195.21,239.02563428878784L197.61999999999998,250.62910079956055L200.03,238.7980456352234L202.44000000000003,249.71658325195312L204.85,256.7632999420166L207.26000000000002,225.15309047698975L209.67,236.65749263763428L212.08,250.6626262664795L214.49,250.23238277435303L216.9,264.2186508178711L219.31,243.08969593048096L221.71999999999997,256.9822769165039L224.13,230.0305151939392L226.54000000000002,258.32826232910156L228.95,209.4315791130066L231.36,264.4447774887085L233.76999999999998,229.42758750915527L236.18,237.3730731010437L238.59,258.90382289886475L241,248.9720335006714L243.41,248.0839490890503L245.82000000000002,244.73374557495117L248.23,243.80027961730957L250.64000000000001,213.5247802734375L253.04999999999998,269.7627296447754L255.46,250.9071979522705L257.87,256.78585052490234L260.28,261.2207250595093L262.69,254.38040828704834L265.09999999999997,230.2928009033203L267.51,260.0509386062622L269.92,258.0390901565552L272.33,262.70155334472656L274.74,263.7490940093994L277.15000000000003,268.8774290084839L279.56,269.36851501464844L281.97,271.6979341506958L284.38,258.5211639404297L286.79,269.9893169403076L289.2,255.76855087280273L291.61,257.50987243652344L294.02,275.5244836807251L296.43,275.0680847167969L298.84,275.6058940887451L301.25,267.0514726638794L303.65999999999997,245.72571086883545L306.07,273.65911388397217L308.48,270.07010650634766L310.89,270.37578105926514L313.3,261.37595558166504L315.71,261.3167552947998L318.12,270.2069721221924L320.53000000000003,269.056191444397L322.94,261.13162422180176L325.35,271.5564823150635L327.76,259.16211318969727L330.17,267.20171642303467L332.58000000000004,283.38686656951904L334.99,252.97027587890625L337.4,235.89818286895752L339.81,240.04064083099365L342.21999999999997,275.1862449645996L344.63,281.4548063278198L347.03999999999996,266.12683868408203L349.45,272.8513984680176L351.86,257.6384468078613L354.27,278.9152021408081L356.68,261.0377769470215L359.09,261.37523460388184L361.5,277.4985809326172L363.90999999999997,283.619441986084L366.32000000000005,237.5096583366394L368.73,235.66192245483398L371.14,256.77659797668457L373.55,286.9193572998047L375.96000000000004,230.82395124435425L378.37,260.3280143737793L380.78,289.6263885498047L383.19,262.5830726623535L385.6,269.91814041137695L388.01,233.76777362823486L390.42,272.0688772201538L392.83,246.88808727264404L395.23999999999995,270.88933753967285L397.65000000000003,243.41278409957886L400.06,245.88766050338745L402.46999999999997,273.7317523956299L404.88000000000005,241.7519416809082L407.29,276.4789981842041L409.7,256.0771493911743L412.10999999999996,278.0397148132324L414.52000000000004,271.292103767395L416.93,263.93346405029297L419.34,252.91415977478027L421.75,245.69784307479858L424.16,269.8514699935913L426.57,249.4068832397461L428.98,278.73245429992676L431.39,260.25621700286865L433.8,264.13003063201904L436.21000000000004,276.96189308166504L438.62,274.6391830444336L441.03,274.94615936279297L443.43999999999994,278.9803304672241L445.85,265.51202487945557L448.26,267.77551460266113L450.66999999999996,245.8796796798706L453.08000000000004,286.5136671066284L455.49,271.4798183441162L457.9,282.56499195098877L460.31000000000006,292.34653759002686L462.72,281.4448528289795L465.13,265.8469591140747L467.53999999999996,261.46369457244873L469.95,253.46508693695068L472.36,247.71595001220703L474.77,283.0039873123169L477.18,268.25093936920166L479.59,268.2862071990967L482,280.93015480041504L484.41,248.1909942626953L486.82,281.1543388366699L489.22999999999996,265.50755882263184L491.64000000000004,265.08482551574707L494.05,249.79274654388428L496.46,275.5769748687744L498.86999999999995,281.2002010345459L501.28000000000003,278.1255712509155L503.69,268.1664047241211L506.09999999999997,264.46045875549316L508.51000000000005,284.133318901062L510.92,241.40589237213135L513.3299999999999,292.18778228759766L515.74,281.44164848327637L518.15,258.45625591278076L520.56,268.9606018066406L522.97,250.424813747406L525.38,280.7722406387329L527.79,257.2624168395996L530.1999999999999,270.31331634521484L532.61,277.29658699035645L535.02,300.4273567199707L537.43,266.6132583618164L539.84,259.6471710205078L542.25,278.7257251739502L544.66,251.8386812210083L547.07,283.6055030822754L549.48,274.8222312927246L551.89,290.0723133087158L554.3000000000001,277.1619644165039L556.71,267.5789680480957L559.12,283.90258598327637L561.53,280.4213047027588L563.94,289.2214193344116L566.35,291.05035972595215L568.76,288.73950576782227L571.1700000000001,288.6926021575928L573.58,240.45674514770508L575.99,262.5776653289795L578.4,274.88463592529297L580.8100000000001,268.84224128723145L583.22,277.26250076293945L585.63,278.07436180114746L588.04,287.97274589538574L590.45,280.7172260284424L592.86,287.54752922058105L595.27,254.56924438476562L597.68,266.4991235733032L600.0899999999999,290.7767086029053L602.5,274.07205390930176L604.91,263.7798156738281L607.3199999999999,275.4725933074951L609.73,288.2093868255615L612.14,260.9896116256714L614.55,240.98709440231323L616.96,286.0395040512085L619.37,285.1088819503784L621.78,290.47694206237793L624.1899999999999,283.6448965072632L626.6,219.81758451461792L629.01,263.8887233734131L631.42,295.85431480407715L633.83,289.681923866272L636.24,276.3944435119629L638.65,282.50697326660156L641.0600000000001,276.0407238006592L643.47,275.31137466430664L645.88,280.12818717956543L648.29,288.0760860443115L650.7,274.2620315551758L653.11,280.99964904785156L655.52,274.7577838897705L657.9300000000001,256.598876953125L660.34,247.84239149093628L662.75,270.73693084716797L665.1600000000001,282.0033302307129L667.57,290.00406074523926L669.98,281.99179458618164L672.39,269.8945484161377L674.8,297.6118984222412L677.21,280.4315185546875L679.62,269.4456796646118L682.03,283.56478786468506L684.4399999999999,292.80121421813965L686.85,286.55788707733154L689.26,280.3548746109009L691.67,274.38924407958984L694.0799999999999,279.48471450805664L696.49,253.25189781188965L698.9,262.7881908416748L701.31,253.34161949157715L703.72,256.5315456390381L706.13,286.4516429901123L708.54,262.78538703918457L710.9499999999999,264.32936096191406L713.36,277.3536443710327L715.77,261.1047477722168L718.18,280.1497564315796L720.59,275.1050548553467L723,287.51911067962646L725.4100000000001,289.62502670288086L727.8199999999999,280.6438865661621L730.23,288.35039806365967L732.6400000000001,303.67724418640137L735.05,290.87946796417236L737.46,257.6379060745239L739.8700000000001,290.9131736755371L742.28,266.5341110229492L744.69,295.6522407531738L747.1,283.4197111129761L749.51,290.98308849334717L751.9200000000001,282.63414573669434L754.3299999999999,260.0684623718262L756.74,280.9702491760254L759.15,279.47297859191895L761.56,299.5741596221924L763.97,287.5670557022095L766.38,289.6053800582886L768.79,274.28221893310547L771.2,268.2520008087158L773.61,227.90828704833984L776.02,288.68427085876465L778.43,276.8410692214966L780.84,281.0902318954468L783.25,293.60412311553955L785.66,273.2306327819824L788.07,294.57437896728516L790.4799999999999,275.1683406829834L792.89,288.416467666626L795.3000000000001,284.0651264190674L797.7099999999999,269.1621551513672L800.12,295.7494926452637L802.5300000000001,295.3183879852295L804.9399999999999,294.20730113983154L807.35,281.65832233428955L809.7600000000001,284.71969413757324L812.17,293.7734127044678L814.58,265.0654191970825L816.9899999999999,280.1524600982666L819.4,294.35840606689453L821.8100000000001,291.61760902404785L824.2199999999999,235.8896713256836L826.63,218.78873920440674L829.0400000000001,240.71623706817627L831.4499999999999,292.9762716293335L833.86,294.13826751708984L836.2700000000001,277.4154281616211L838.68,301.6385192871094L841.09,232.3259882926941L843.5,278.59911346435547L845.91,251.5233736038208L848.32,296.2078742980957L850.73,265.5704040527344L853.14,295.08679389953613L855.55,297.04498958587646L857.96,298.6985921859741L860.37,286.2570791244507L862.78,249.08612823486328L865.19,261.7330598831177L867.6,271.95105743408203L870.01,300.53532314300537L872.4200000000001,276.4316940307617L874.8299999999999,264.16313552856445L877.24,297.65145206451416L879.65,251.45097541809082L882.06,247.38481092453003L884.47,303.11642360687256L886.8799999999999,300.975359916687L889.29,296.43542289733887L891.7,263.63253593444824L894.1099999999999,283.6346426010132L896.52,277.60668754577637L898.9300000000001,237.70356130599976L901.3399999999999,286.51214504241943L903.75,282.3138313293457L906.1600000000001,288.4370355606079L908.5699999999999,274.8750629425049L910.98,288.2291135787964L913.3900000000001,307.4729518890381L915.8,281.08294200897217L918.21,267.03274726867676L920.6200000000001,300.05873680114746L923.03,293.03174686431885L925.44,292.19286918640137L927.85,285.8099727630615L930.26,273.8776903152466L932.6700000000001,278.98641872406006L935.0799999999999,289.88447856903076L937.49,279.2805576324463L939.9,253.19355869293213L942.31,277.0415210723877L944.72,266.13458919525146L947.13,281.2225914001465L949.54,301.32343196868896L951.95,295.8566379547119L954.36,250.16377973556519L956.77,271.43972396850586L959.18,232.5915985107422L961.59,255.12976455688477L964,282.3065814971924L966.41,289.6772975921631L968.82,288.41929149627686L971.2299999999999,282.44310665130615L973.64,292.4626350402832L976.0500000000001,293.4353141784668L978.4599999999999,284.4817714691162L980.87,209.51534271240234L983.2800000000001,275.72976207733154L985.6899999999999,271.19034576416016L988.1,263.1045799255371L990.5100000000001,295.47235679626465L992.92,288.86812019348145L995.33,261.31102752685547L997.7399999999999,291.26609230041504L1000.15,288.7120084762573L1002.5600000000001,275.8935241699219L1004.9699999999999,302.4770164489746L1007.38,283.873366355896L1009.7900000000001,297.38983726501465L1012.1999999999999,291.96115493774414L1014.61,294.73071098327637L1017.0200000000001,302.09543895721436L1019.43,274.47762393951416L1021.84,302.7177429199219L1024.25,255.85112285614014L1026.6599999999999,289.76057052612305L1029.07,296.0992069244385L1031.48,264.3965721130371L1033.8899999999999,293.8339548110962L1036.3,298.9169683456421L1038.71,279.39895820617676L1041.12,292.9743490219116L1043.53,271.21157455444336L1045.94,294.6531057357788L1048.35,289.98827934265137L1050.76,304.2194995880127L1053.17,269.52444648742676L1055.58,231.7470932006836L1057.99,304.6083869934082L1060.3999999999999,295.7948741912842L1062.81,285.85679626464844L1065.22,284.2411651611328L1067.6299999999999,291.97577476501465L1070.04,296.5957202911377L1072.45,308.6392936706543L1074.86,301.1818599700928L1077.27,295.9534091949463L1079.68,282.35941314697266L1082.09,297.9208574295044L1084.5,281.2454824447632L1086.91,289.1901969909668L1089.32,264.6374788284302L1091.73,282.8735103607178L1094.14,284.9359073638916L1096.55,274.1090040206909L1098.96,286.9205389022827L1101.3700000000001,294.4763059616089L1103.78,284.5433750152588L1106.19,276.35669231414795L1108.6000000000001,287.5093173980713L1111.01,297.4117069244385L1113.42,243.13067150115967L1115.83,282.6140384674072L1118.24,300.2888488769531L1120.65,298.98768424987793L1123.06,209.02611923217773L1125.47,244.40865468978882L1127.88,300.9788246154785L1130.29,297.91220569610596L1132.7,302.3949451446533L1135.1100000000001,275.88060665130615L1137.52,279.8325262069702L1139.93,289.1703701019287L1142.3400000000001,289.35365867614746L1144.75,297.00791931152344L1147.16,279.0641441345215L1149.5700000000002,265.086688041687L1151.98,281.6201505661011L1154.39,294.21755504608154L1156.8,272.08211517333984L1159.21,285.7803726196289L1161.6200000000001,290.00850677490234L1164.03,298.4937343597412L1166.44,277.37226963043213L1168.85,287.19737434387207L1171.26,302.2390937805176L1173.67,240.7650032043457L1176.08,297.53078842163086L1178.49,287.0662565231323L1180.9,286.1054735183716L1183.31,277.41963386535645L1185.72,298.20588397979736L1188.1299999999999,279.6917953491211L1190.54,291.12365913391113L1192.95,286.7628450393677L1195.36,287.3174772262573L1197.77,296.19760036468506L1200.1799999999998,275.42951488494873L1202.59,273.25502586364746L1205,295.9123134613037L1207.4099999999999,305.97397899627686L1209.82,284.2957992553711L1212.23,253.57189178466797L1214.6399999999999,272.8735885620117L1217.05,292.27656269073486L1219.46,304.7974433898926L1221.87,278.41310119628906L1224.28,257.83431243896484L1226.69,294.7433681488037L1229.1,270.9079427719116L1231.51,288.7097854614258L1233.92,290.60918140411377L1236.33,298.8077201843262L1238.74,270.1808967590332L1241.1499999999999,301.66054916381836L1243.56,303.5892448425293L1245.97,306.6963186264038L1248.3799999999999,263.7111625671387L1250.79,281.06872272491455L1253.2,280.9834270477295L1255.61,313.24349784851074L1258.02,284.7344341278076L1260.43,310.194522857666L1262.84,271.660683631897L1265.25,274.1386241912842L1267.66,278.9779472351074L1270.07,275.94299125671387L1272.48,308.0472707748413L1274.89,301.36076259613037L1277.3,301.4744567871094L1279.71,294.1849308013916L1282.1200000000001,290.1548652648926L1284.53,297.8145933151245L1286.94,259.9607162475586L1289.3500000000001,301.2634506225586L1291.76,269.8148002624512L1294.17,296.6136245727539L1296.58,305.21280670166016L1298.99,289.28484535217285L1301.4,278.17275524139404L1303.81,267.3432083129883L1306.22,294.94724464416504L1308.63,271.45105934143066L1311.04,292.09189224243164L1313.45,301.6002674102783L1315.8600000000001,294.43675231933594L1318.27,271.46792221069336L1320.68,295.10181427001953L1323.0900000000001,176.60633182525635" style="fill: none;" fill="none"></path></g></g></g></g></g></g><g transform="translate(50, 378)" clip-path="url(#clip_1)"><clipPath id="clip_1"><rect width="1446" height="22"></rect></clipPath><g><g><line x1="0" y1="0" x2="0" y2="5" style="visibility: inherit;" fill="rgb(0, 0, 0)" stroke="rgb(204, 204, 204)" stroke-width="1px"></line><line x1="120.5" y1="0" x2="120.5" y2="5" style="visibility: inherit;" fill="rgb(0, 0, 0)" stroke="rgb(204, 204, 204)" stroke-width="1px"></line><line x1="241" y1="0" x2="241" y2="5" style="visibility: inherit;" fill="rgb(0, 0, 0)" stroke="rgb(204, 204, 204)" stroke-width="1px"></line><line x1="361.5" y1="0" x2="361.5" y2="5" style="visibility: inherit;" fill="rgb(0, 0, 0)" stroke="rgb(204, 204, 204)" stroke-width="1px"></line><line x1="482" y1="0" x2="482" y2="5" style="visibility: inherit;" fill="rgb(0, 0, 0)" stroke="rgb(204, 204, 204)" stroke-width="1px"></line><line x1="602.5" y1="0" x2="602.5" y2="5" style="visibility: inherit;" fill="rgb(0, 0, 0)" stroke="rgb(204, 204, 204)" stroke-width="1px"></line><line x1="723" y1="0" x2="723" y2="5" style="visibility: inherit;" fill="rgb(0, 0, 0)" stroke="rgb(204, 204, 204)" stroke-width="1px"></line><line x1="843.5" y1="0" x2="843.5" y2="5" style="visibility: inherit;" fill="rgb(0, 0, 0)" stroke="rgb(204, 204, 204)" stroke-width="1px"></line><line x1="964" y1="0" x2="964" y2="5" style="visibility: inherit;" fill="rgb(0, 0, 0)" stroke="rgb(204, 204, 204)" stroke-width="1px"></line><line x1="1084.5" y1="0" x2="1084.5" y2="5" style="visibility: inherit;" fill="rgb(0, 0, 0)" stroke="rgb(204, 204, 204)" stroke-width="1px"></line><line x1="1205" y1="0" x2="1205" y2="5" style="visibility: inherit;" fill="rgb(0, 0, 0)" stroke="rgb(204, 204, 204)" stroke-width="1px"></line><line x1="1325.5" y1="0" x2="1325.5" y2="5" style="visibility: inherit;" fill="rgb(0, 0, 0)" stroke="rgb(204, 204, 204)" stroke-width="1px"></line><line x1="1446" y1="0" x2="1446" y2="5" style="visibility: inherit;" fill="rgb(0, 0, 0)" stroke="rgb(204, 204, 204)" stroke-width="1px"></line></g><g transform="translate(0, 8)"><text x="0" y="0" dx="0em" dy="0.95em" style="text-anchor: middle; visibility: hidden; font-family: &quot;Helvetica Neue&quot;, sans-serif; font-size: 12px; font-weight: 200;" fill="rgb(50, 49, 63)" stroke="none" stroke-width="1px">-50</text><text x="120.5" y="0" dx="0em" dy="0.95em" style="text-anchor: middle; visibility: inherit; font-family: &quot;Helvetica Neue&quot;, sans-serif; font-size: 12px; font-weight: 200;" fill="rgb(50, 49, 63)" stroke="none" stroke-width="1px">0</text><text x="241" y="0" dx="0em" dy="0.95em" style="text-anchor: middle; visibility: inherit; font-family: &quot;Helvetica Neue&quot;, sans-serif; font-size: 12px; font-weight: 200;" fill="rgb(50, 49, 63)" stroke="none" stroke-width="1px">50</text><text x="361.5" y="0" dx="0em" dy="0.95em" style="text-anchor: middle; visibility: inherit; font-family: &quot;Helvetica Neue&quot;, sans-serif; font-size: 12px; font-weight: 200;" fill="rgb(50, 49, 63)" stroke="none" stroke-width="1px">100</text><text x="482" y="0" dx="0em" dy="0.95em" style="text-anchor: middle; visibility: inherit; font-family: &quot;Helvetica Neue&quot;, sans-serif; font-size: 12px; font-weight: 200;" fill="rgb(50, 49, 63)" stroke="none" stroke-width="1px">150</text><text x="602.5" y="0" dx="0em" dy="0.95em" style="text-anchor: middle; visibility: inherit; font-family: &quot;Helvetica Neue&quot;, sans-serif; font-size: 12px; font-weight: 200;" fill="rgb(50, 49, 63)" stroke="none" stroke-width="1px">200</text><text x="723" y="0" dx="0em" dy="0.95em" style="text-anchor: middle; visibility: inherit; font-family: &quot;Helvetica Neue&quot;, sans-serif; font-size: 12px; font-weight: 200;" fill="rgb(50, 49, 63)" stroke="none" stroke-width="1px">250</text><text x="843.5" y="0" dx="0em" dy="0.95em" style="text-anchor: middle; visibility: inherit; font-family: &quot;Helvetica Neue&quot;, sans-serif; font-size: 12px; font-weight: 200;" fill="rgb(50, 49, 63)" stroke="none" stroke-width="1px">300</text><text x="964" y="0" dx="0em" dy="0.95em" style="text-anchor: middle; visibility: inherit; font-family: &quot;Helvetica Neue&quot;, sans-serif; font-size: 12px; font-weight: 200;" fill="rgb(50, 49, 63)" stroke="none" stroke-width="1px">350</text><text x="1084.5" y="0" dx="0em" dy="0.95em" style="text-anchor: middle; visibility: inherit; font-family: &quot;Helvetica Neue&quot;, sans-serif; font-size: 12px; font-weight: 200;" fill="rgb(50, 49, 63)" stroke="none" stroke-width="1px">400</text><text x="1205" y="0" dx="0em" dy="0.95em" style="text-anchor: middle; visibility: inherit; font-family: &quot;Helvetica Neue&quot;, sans-serif; font-size: 12px; font-weight: 200;" fill="rgb(50, 49, 63)" stroke="none" stroke-width="1px">450</text><text x="1325.5" y="0" dx="0em" dy="0.95em" style="text-anchor: middle; visibility: inherit; font-family: &quot;Helvetica Neue&quot;, sans-serif; font-size: 12px; font-weight: 200;" fill="rgb(50, 49, 63)" stroke="none" stroke-width="1px">500</text><text x="1446" y="0" dx="0em" dy="0.95em" style="text-anchor: middle; visibility: hidden; font-family: &quot;Helvetica Neue&quot;, sans-serif; font-size: 12px; font-weight: 200;" fill="rgb(50, 49, 63)" stroke="none" stroke-width="1px">550</text></g><line x1="0" y1="0" x2="1446" y2="0" fill="rgb(0, 0, 0)" stroke="rgb(204, 204, 204)" stroke-width="1px"></line></g></g></g></g></svg>