<svg viewBox="0 0 1496 400" xmlns="http://www.w3.org/2000/svg"><g><g><g><g><g><line x1="50" y1="378" x2="45" y2="378" style="visibility: inherit;" fill="rgb(0, 0, 0)" stroke="rgb(204, 204, 204)" stroke-width="1px"></line><line x1="50" y1="340.2" x2="45" y2="340.2" style="visibility: inherit;" fill="rgb(0, 0, 0)" stroke="rgb(204, 204, 204)" stroke-width="1px"></line><line x1="50" y1="302.4" x2="45" y2="302.4" style="visibility: inherit;" fill="rgb(0, 0, 0)" stroke="rgb(204, 204, 204)" stroke-width="1px"></line><line x1="50" y1="264.59999999999997" x2="45" y2="264.59999999999997" style="visibility: inherit;" fill="rgb(0, 0, 0)" stroke="rgb(204, 204, 204)" stroke-width="1px"></line><line x1="50" y1="226.79999999999998" x2="45" y2="226.79999999999998" style="visibility: inherit;" fill="rgb(0, 0, 0)" stroke="rgb(204, 204, 204)" stroke-width="1px"></line><line x1="50" y1="189" x2="45" y2="189" style="visibility: inherit;" fill="rgb(0, 0, 0)" stroke="rgb(204, 204, 204)" stroke-width="1px"></line><line x1="50" y1="151.20000000000002" x2="45" y2="151.20000000000002" style="visibility: inherit;" fill="rgb(0, 0, 0)" stroke="rgb(204, 204, 204)" stroke-width="1px"></line><line x1="50" y1="113.40000000000003" x2="45" y2="113.40000000000003" style="visibility: inherit;" fill="rgb(0, 0, 0)" stroke="rgb(204, 204, 204)" stroke-width="1px"></line><line x1="50" y1="75.60000000000002" x2="45" y2="75.60000000000002" style="visibility: inherit;" fill="rgb(0, 0, 0)" stroke="rgb(204, 204, 204)" stroke-width="1px"></line><line x1="50" y1="37.80000000000001" x2="45" y2="37.80000000000001" style="visibility: inherit;" fill="rgb(0, 0, 0)" stroke="rgb(204, 204, 204)" stroke-width="1px"></line><line x1="50" y1="0" x2="45" y2="0" style="visibility: inherit;" fill="rgb(0, 0, 0)" stroke="rgb(204, 204, 204)" stroke-width="1px"></line></g><g transform="translate(40, 0)"><text x="0" y="378" dx="0em" dy="0.3em" style="text-anchor: end; visibility: hidden; font-family: &quot;Helvetica Neue&quot;, sans-serif; font-size: 12px; font-weight: 200;" fill="rgb(50, 49, 63)" stroke="none" stroke-width="1px">-0.1</text><text x="0" y="340.2" dx="0em" dy="0.3em" style="text-anchor: end; visibility: inherit; font-family: &quot;Helvetica Neue&quot;, sans-serif; font-size: 12px; font-weight: 200;" fill="rgb(50, 49, 63)" stroke="none" stroke-width="1px">0</text><text x="0" y="302.4" dx="0em" dy="0.3em" style="text-anchor: end; visibility: inherit; font-family: &quot;Helvetica Neue&quot;, sans-serif; font-size: 12px; font-weight: 200;" fill="rgb(50, 49, 63)" stroke="none" stroke-width="1px">0.1</text><text x="0" y="264.59999999999997" dx="0em" dy="0.3em" style="text-anchor: end; visibility: inherit; font-family: &quot;Helvetica Neue&quot;, sans-serif; font-size: 12px; font-weight: 200;" fill="rgb(50, 49, 63)" stroke="none" stroke-width="1px">0.2</text><text x="0" y="226.79999999999998" dx="0em" dy="0.3em" style="text-anchor: end; visibility: inherit; font-family: &quot;Helvetica Neue&quot;, sans-serif; font-size: 12px; font-weight: 200;" fill="rgb(50, 49, 63)" stroke="none" stroke-width="1px">0.3</text><text x="0" y="189" dx="0em" dy="0.3em" style="text-anchor: end; visibility: inherit; font-family: &quot;Helvetica Neue&quot;, sans-serif; font-size: 12px; font-weight: 200;" fill="rgb(50, 49, 63)" stroke="none" stroke-width="1px">0.4</text><text x="0" y="151.20000000000002" dx="0em" dy="0.3em" style="text-anchor: end; visibility: inherit; font-family: &quot;Helvetica Neue&quot;, sans-serif; font-size: 12px; font-weight: 200;" fill="rgb(50, 49, 63)" stroke="none" stroke-width="1px">0.5</text><text x="0" y="113.40000000000003" dx="0em" dy="0.3em" style="text-anchor: end; visibility: inherit; font-family: &quot;Helvetica Neue&quot;, sans-serif; font-size: 12px; font-weight: 200;" fill="rgb(50, 49, 63)" stroke="none" stroke-width="1px">0.6</text><text x="0" y="75.60000000000002" dx="0em" dy="0.3em" style="text-anchor: end; visibility: inherit; font-family: &quot;Helvetica Neue&quot;, sans-serif; font-size: 12px; font-weight: 200;" fill="rgb(50, 49, 63)" stroke="none" stroke-width="1px">0.7</text><text x="0" y="37.80000000000001" dx="0em" dy="0.3em" style="text-anchor: end; visibility: inherit; font-family: &quot;Helvetica Neue&quot;, sans-serif; font-size: 12px; font-weight: 200;" fill="rgb(50, 49, 63)" stroke="none" stroke-width="1px">0.8</text><text x="0" y="0" dx="0em" dy="0.3em" style="text-anchor: end; visibility: hidden; font-family: &quot;Helvetica Neue&quot;, sans-serif; font-size: 12px; font-weight: 200;" fill="rgb(50, 49, 63)" stroke="none" stroke-width="1px">0.9</text></g><line x1="50" y1="0" x2="50" y2="378" fill="rgb(0, 0, 0)" stroke="rgb(204, 204, 204)" stroke-width="1px"></line></g></g><g transform="translate(50, 0)" clip-path="url(#clip_0)"><clipPath id="clip_0"><rect width="1446" height="378"></rect></clipPath><g><g><g><line x1="0" y1="0" x2="0" y2="378" fill="rgb(0, 0, 0)" stroke="rgb(60, 60, 60)" stroke-width="1px" opacity="0.25"></line><line x1="120.5" y1="0" x2="120.5" y2="378" fill="rgb(0, 0, 0)" stroke="rgb(60, 60, 60)" stroke-width="1px" opacity="0.25"></line><line x1="241" y1="0" x2="241" y2="378" fill="rgb(0, 0, 0)" stroke="rgb(60, 60, 60)" stroke-width="1px" opacity="0.25"></line><line x1="361.5" y1="0" x2="361.5" y2="378" fill="rgb(0, 0, 0)" stroke="rgb(60, 60, 60)" stroke-width="1px" opacity="0.25"></line><line x1="482" y1="0" x2="482" y2="378" fill="rgb(0, 0, 0)" stroke="rgb(60, 60, 60)" stroke-width="1px" opacity="0.25"></line><line x1="602.5" y1="0" x2="602.5" y2="378" fill="rgb(0, 0, 0)" stroke="rgb(60, 60, 60)" stroke-width="1px" opacity="0.25"></line><line x1="723" y1="0" x2="723" y2="378" fill="rgb(0, 0, 0)" stroke="rgb(60, 60, 60)" stroke-width="1px" opacity="0.25"></line><line x1="843.5" y1="0" x2="843.5" y2="378" fill="rgb(0, 0, 0)" stroke="rgb(60, 60, 60)" stroke-width="1px" opacity="0.25"></line><line x1="964" y1="0" x2="964" y2="378" fill="rgb(0, 0, 0)" stroke="rgb(60, 60, 60)" stroke-width="1px" opacity="0.25"></line><line x1="1084.5" y1="0" x2="1084.5" y2="378" fill="rgb(0, 0, 0)" stroke="rgb(60, 60, 60)" stroke-width="1px" opacity="0.25"></line><line x1="1205" y1="0" x2="1205" y2="378" fill="rgb(0, 0, 0)" stroke="rgb(60, 60, 60)" stroke-width="1px" opacity="0.25"></line><line x1="1325.5" y1="0" x2="1325.5" y2="378" fill="rgb(0, 0, 0)" stroke="rgb(60, 60, 60)" stroke-width="1px" opacity="0.25"></line><line x1="1446" y1="0" x2="1446" y2="378" fill="rgb(0, 0, 0)" stroke="rgb(60, 60, 60)" stroke-width="1px" opacity="0.25"></line></g><g><line x1="0" y1="378" x2="1446" y2="378" fill="rgb(0, 0, 0)" stroke="rgb(60, 60, 60)" stroke-width="1px" opacity="0.25"></line><line x1="0" y1="340.2" x2="1446" y2="340.2" fill="rgb(0, 0, 0)" stroke="rgb(60, 60, 60)" stroke-width="1px" opacity="0.25"></line><line x1="0" y1="302.4" x2="1446" y2="302.4" fill="rgb(0, 0, 0)" stroke="rgb(60, 60, 60)" stroke-width="1px" opacity="0.25"></line><line x1="0" y1="264.59999999999997" x2="1446" y2="264.59999999999997" fill="rgb(0, 0, 0)" stroke="rgb(60, 60, 60)" stroke-width="1px" opacity="0.25"></line><line x1="0" y1="226.79999999999998" x2="1446" y2="226.79999999999998" fill="rgb(0, 0, 0)" stroke="rgb(60, 60, 60)" stroke-width="1px" opacity="0.25"></line><line x1="0" y1="189" x2="1446" y2="189" fill="rgb(0, 0, 0)" stroke="rgb(60, 60, 60)" stroke-width="1px" opacity="0.25"></line><line x1="0" y1="151.20000000000002" x2="1446" y2="151.20000000000002" fill="rgb(0, 0, 0)" stroke="rgb(60, 60, 60)" stroke-width="1px" opacity="0.25"></line><line x1="0" y1="113.40000000000003" x2="1446" y2="113.40000000000003" fill="rgb(0, 0, 0)" stroke="rgb(60, 60, 60)" stroke-width="1px" opacity="0.25"></line><line x1="0" y1="75.60000000000002" x2="1446" y2="75.60000000000002" fill="rgb(0, 0, 0)" stroke="rgb(60, 60, 60)" stroke-width="1px" opacity="0.25"></line><line x1="0" y1="37.80000000000001" x2="1446" y2="37.80000000000001" fill="rgb(0, 0, 0)" stroke="rgb(60, 60, 60)" stroke-width="1px" opacity="0.25"></line><line x1="0" y1="0" x2="1446" y2="0" fill="rgb(0, 0, 0)" stroke="rgb(60, 60, 60)" stroke-width="1px" opacity="0.25"></line></g></g></g><g><g><line x1="0" y1="340.2" x2="1446" y2="340.2" fill="rgb(0, 0, 0)" stroke="rgb(153, 153, 153)" stroke-width="1.5px"></line></g></g><g><g><line x1="120.5" y1="0" x2="120.5" y2="378" fill="rgb(0, 0, 0)" stroke="rgb(153, 153, 153)" stroke-width="1.5px"></line></g></g><g><g><g><g><g><path stroke="rgb(255, 112, 67)" stroke-width="2px" d="M120.5,64.67773182392119L122.91000000000001,115.72832114696502L125.32000000000001,150.04760713577272L127.73,166.54609097242357L130.14,186.61263753175737L132.54999999999998,202.68286056518556L134.96,216.35244162082674L137.37,228.524225127697L139.78,238.12012399435045L142.19,244.20688880681993L144.6,255.3920142173767L147.01,257.7429763197899L149.42,264.23495880961417L151.82999999999998,269.767409992218L154.24,273.1985601603985L156.65,275.3816358268261L159.06,278.7288484096527L161.47,280.67595593333243L163.88,284.32720146775245L166.29000000000002,289.1064280092716L168.7,288.7225129723549L171.10999999999999,291.1231211543083L173.51999999999998,292.7678460896015L175.93,294.54473244845866L178.34,295.3826241016388L180.75,298.46159915328025L183.16000000000003,300.3501779258251L185.57,299.8735327541828L187.98000000000002,299.8250526309013L190.39,302.07241642177104L192.8,302.771891605854L195.21,303.82985046207904L197.61999999999998,305.4123966962099L200.03,305.9629787027836L202.44000000000003,304.6594198912382L204.85,306.7599971115589L207.26000000000002,307.0289190083742L209.67,307.3080528795719L212.08,306.75079619586467L214.49,307.47691657841204L216.9,309.0865079283714L219.31,309.04081314504145L221.71999999999997,307.9149697244167L224.13,308.8666463166475L226.54000000000002,309.4580762207508L228.95,309.739874330163L231.36,309.89540838897227L233.76999999999998,311.11217386722564L236.18,311.1162096530199L238.59,311.06871805787085L241,311.5041323125362L243.41,311.91436585485934L245.82000000000002,310.02129786908625L248.23,311.40710165798663L250.64000000000001,312.3159561127424L253.04999999999998,312.7678824484348L255.46,312.45618347525595L257.87,311.9709428966045L260.28,312.5117888867855L262.69,312.6616762250662L265.09999999999997,312.74579968750476L267.51,313.38711505830287L269.92,313.22900406718253L272.33,312.0445755690336L274.74,313.5414296507835L277.15000000000003,311.42003419697284L279.56,313.6170957058668L281.97,312.34204931259154L284.38,312.9898112386465L286.79,313.3887682378292L289.2,313.8718205362558L291.61,313.4141770720482L294.02,313.8250555515289L296.43,313.81566875874995L298.84,313.60293806791304L301.25,313.8234249025583L303.65999999999997,313.11636537015437L306.07,312.53494748175143L308.48,314.1166713505983L310.89,314.013267365098L313.3,314.1307050704956L315.71,314.14268287718295L318.12,314.22813282608985L320.53000000000003,314.17624495625495L322.94,312.9234305888414L325.35,313.624989849329L327.76,314.43116692900657L330.17,314.38399357795714L332.58000000000004,314.2680851340294L334.99,313.8137564778328L337.4,313.85939493477343L339.81,314.5293072134256L342.21999999999997,314.125506144762L344.63,314.5836790770292L347.03999999999996,313.71010747253894L349.45,314.3434273123741L351.86,314.0027202486992L354.27,314.03065532147883L356.68,314.59188019931315L359.09,314.54765553474425L361.5,313.59411172270774L363.90999999999997,313.918684092164L366.32000000000005,314.8986280828714L368.73,313.8916896700859L371.14,314.588165473938L373.55,315.14085408747195L375.96000000000004,315.1995912462473L378.37,314.22742874622344L380.78,314.98461594879626L383.19,314.94413698911666L385.6,314.74442895948886L388.01,314.52965643703936L390.42,314.8101703047752L392.83,314.4317273765802L395.23999999999995,314.86308894753455L397.65000000000003,314.21949517428874L400.06,314.1788387864828L402.46999999999997,313.98127397596835L404.88000000000005,314.92351026535033L407.29,314.4963872551918L409.7,314.7085828453302L412.10999999999996,315.04901954233645L414.52000000000004,314.69278610944747L416.93,315.14630366563796L419.34,313.1787834584713L421.75,315.07569008767604L424.16,314.6597619473934L426.57,314.9598126232624L428.98,314.6461647570133L431.39,315.07278646230696L433.8,313.9023945003748L436.21000000000004,312.7421638190746L438.62,315.07007434666156L441.03,315.1163267612457L443.43999999999994,315.15449352264403L445.85,314.7013082921505L448.26,315.404264447093L450.66999999999996,314.327864331007L453.08000000000004,314.98651696443557L455.49,314.6850299656391L457.9,314.92622238099574L460.31000000000006,314.83179682195185L462.72,314.9081190794706L465.13,313.2878285318613L467.53999999999996,314.50935640633105L469.95,314.6074797928333L472.36,314.82765119969844L474.77,314.98697039186953L477.18,315.0130016326904L479.59,315.48524208068847L482,313.5732625097036L484.41,314.91148458123206L486.82,314.76419107317923L489.22999999999996,314.82409982085227L491.64000000000004,315.15265446603297L494.05,315.02790841162204L496.46,314.9288302928209L498.86999999999995,314.6134081453085L501.28000000000003,315.1988505542278L503.69,314.5486327975988L506.09999999999997,314.8153833121061L508.51000000000005,315.3227010190487L510.92,314.81316686868666L513.3299999999999,315.5352655470371L515.74,313.03602422475814L518.15,314.97885375916957L520.56,314.66429903805255L522.97,315.11819398105143L525.38,315.0035838603973L527.79,315.54353989362716L530.1999999999999,315.02975873351096L532.61,315.5232764750719L535.02,313.4824390232563L537.43,315.3787485927343L539.84,315.23691874444484L542.25,315.38545143306254L544.66,315.64456972181796L547.07,315.2489613264799L549.48,314.5154086768627L551.89,315.5359865248203L554.3000000000001,315.45563129782676L556.71,315.4190078794956L559.12,315.67737984359263L561.53,315.33787534832953L563.94,315.05812470316886L566.35,315.7913055986166L568.76,315.4127978950739L571.1700000000001,315.49166892170905L573.58,314.76263364851474L575.99,314.61437695920466L578.4,315.5397181481123L580.8100000000001,313.86132129728793L583.22,315.5700893372297L585.63,315.4497451901436L588.04,315.4637901753187L590.45,315.62230108380317L592.86,315.33752894103526L595.27,314.95370965898036L597.68,315.52723058760165L600.0899999999999,315.4078890502453L602.5,315.0600060045719L604.91,315.01815268099307L607.3199999999999,314.780477848649L609.73,314.6761613756418L612.14,315.1836734086275L614.55,315.3842235177755L616.96,315.7731121748686L619.37,314.3161512583494L621.78,315.5595900982618L624.1899999999999,314.97324928343295L626.6,314.89901955127715L629.01,315.3829899698496L631.42,315.84517052471637L633.83,315.5248310834169L636.24,315.7877401381731L638.65,315.5939632773399L641.0600000000001,315.1831664711237L643.47,315.4881090939045L645.88,315.8119351387024L648.29,315.1819667190313L650.7,315.2390028208494L653.11,315.65885691046714L655.52,315.52354402542113L657.9300000000001,314.913087067008L660.34,315.53439248800277L662.75,314.9242481410503L665.1600000000001,315.5875814974308L667.57,315.72792996168135L669.98,315.84680399000644L672.39,315.16774430572985L674.8,315.76444354355334L677.21,314.8154002100229L679.62,316.0472104668617L682.03,315.76907357275485L684.4399999999999,315.6160122424364L686.85,316.0943866342306L689.26,315.478846219182L691.67,315.48868643939494L694.0799999999999,315.423032400012L696.49,315.5801802098751L698.9,315.69388629198073L701.31,315.1378659725189L703.72,315.8994100213051L706.13,315.4799868285656L708.54,315.79620881080626L710.9499999999999,315.348039445281L713.36,315.87380122840403L715.77,315.6365826398134L718.18,316.00603305995463L720.59,315.5354204446077L723,315.2467505156994L725.4100000000001,315.6830688089132L727.8199999999999,315.51280539929866L730.23,315.5869590908289L732.6400000000001,315.42288876771926L735.05,315.7664205998182L737.46,315.66370942890643L739.8700000000001,315.2561570227146L742.28,316.03038859069346L744.69,315.09889092743396L747.1,315.6647627323866L749.51,315.66082270145415L751.9200000000001,315.54435099363326L754.3299999999999,315.7369478166103L756.74,315.1761397540569L759.15,315.7210496932268L761.56,315.4323093563318L763.97,315.18443099856376L766.38,315.7845830440521L768.79,315.57180729210376L771.2,315.403405469656L773.61,314.40276997983455L776.02,315.4628157287836L778.43,315.00033664405345L780.84,315.1680850803852L783.25,315.8791972965002L785.66,315.4073849290609L788.07,315.4998446971178L790.4799999999999,316.1716241955757L792.89,314.8125247478485L795.3000000000001,315.198712554574L797.7099999999999,315.85203107893466L800.12,315.7432676374912L802.5300000000001,315.66028196811675L804.9399999999999,316.0000202178955L807.35,315.90425690710543L809.7600000000001,315.54648294746875L812.17,315.34726777374743L814.58,315.7404316037893L816.9899999999999,315.17700436413287L819.4,316.03226707577704L821.8100000000001,315.705258589983L824.2199999999999,315.8588775515556L826.63,315.8959656625986L829.0400000000001,315.5447818905115L831.4499999999999,315.75716335773467L833.86,316.0659220933914L836.2700000000001,315.3587273776531L838.68,315.3942101866007L841.09,315.91101044118403L843.5,314.83248682022094L845.91,315.6148491024971L848.32,315.0100107014179L850.73,316.07386129796504L853.14,315.5390534967184L855.55,315.6965589791536L857.96,315.9862737625837L860.37,314.99701057076453L862.78,315.74526440799235L865.19,315.4545723617077L867.6,315.35251176059245L870.01,315.7683976560831L872.4200000000001,315.3457525938749L874.8299999999999,315.55033567249774L877.24,315.0573192358017L879.65,315.9579415887594L882.06,316.11975603997706L884.47,315.34227443933486L886.8799999999999,315.7526854097843L889.29,315.88702948093413L891.7,315.80533086955546L894.1099999999999,315.3768503934145L896.52,315.60096183121203L898.9300000000001,315.6104302972555L901.3399999999999,315.5074656575918L903.75,315.87204666137694L906.1600000000001,315.3182146221399L908.5699999999999,315.88704356253146L910.98,315.674031239748L913.3900000000001,315.9087517529726L915.8,316.05222351551055L918.21,315.6913797676563L920.6200000000001,315.6756956845522L923.03,315.6694659858942L925.44,315.24460448026656L927.85,315.47620451152324L930.26,315.8961543560028L932.6700000000001,315.95975811481475L935.0799999999999,316.1477981328964L937.49,315.49854355752467L939.9,315.90114769041537L942.31,315.80068394243716L944.72,315.7683385133743L947.13,315.8285317093134L949.54,315.7101392716169L951.95,316.00464743077754L954.36,315.9576796710491L956.77,315.7860982239246L959.18,315.88118561804293L961.59,315.5080965131521L964,316.00083695054053L966.41,315.73155174851416L968.82,315.31379581689833L971.2299999999999,315.770780262351L973.64,315.5449311554432L976.0500000000001,315.8908005326986L978.4599999999999,315.69352298676966L980.87,315.6276999682188L983.2800000000001,315.8876716017723L985.6899999999999,314.604883146286L988.1,315.88391463160514L990.5100000000001,315.5345220386982L992.92,315.83524018228053L995.33,315.1590221643448L997.7399999999999,316.08311290740966L1000.15,315.55078628361224L1002.5600000000001,315.83831841945647L1004.9699999999999,315.6857978224754L1007.38,315.7811274200678L1009.7900000000001,315.88046464025973L1012.1999999999999,316.07013249099253L1014.61,315.696361836791L1017.0200000000001,315.53686803281306L1019.43,314.8284594833851L1021.84,315.37278081178664L1024.25,316.1403236210346L1026.6599999999999,315.8116225272417L1029.07,316.32390822172164L1031.48,316.0993208259344L1033.8899999999999,315.38688775599L1036.3,315.198428106308L1038.71,316.18221074044703L1041.12,315.99724614322184L1043.53,315.9934638261795L1045.94,316.2781204998493L1048.35,315.96969127357005L1050.76,315.76334517896174L1053.17,316.0764213323593L1055.58,314.80230150818824L1057.99,316.03708579838275L1060.3999999999999,316.2717443525791L1062.81,316.032393810153L1065.22,315.9692772746086L1067.6299999999999,315.91797519922255L1070.04,315.1642999470234L1072.45,315.7140032619238L1074.86,316.2965138822794L1077.27,315.83092839717864L1079.68,315.24316252470015L1082.09,315.80231740772723L1084.5,316.1424048811197L1086.91,316.1613080173731L1089.32,316.25256240069865L1091.73,315.92759856283664L1094.14,315.7982224792242L1096.55,315.9294883131981L1098.96,315.3123088002205L1101.3700000000001,316.0492354005575L1103.78,316.0424001932144L1106.19,316.0771901875734L1108.6000000000001,315.78351565897464L1111.01,315.86728426516055L1113.42,315.78907225728034L1115.83,315.8267123669386L1118.24,315.7031519830227L1120.65,314.47010536193847L1123.06,315.8394055187702L1125.47,315.8740434318781L1127.88,315.67346797585486L1130.29,316.0036504536867L1132.7,315.74422236979007L1135.1100000000001,315.6429418891668L1137.52,315.5093610405922L1139.93,315.55299709439277L1142.3400000000001,315.56473551392554L1144.75,315.8910173892975L1147.16,315.74707530140876L1149.5700000000002,315.98367429971694L1151.98,316.10341293811797L1154.39,316.12556047439574L1156.8,316.02217620313166L1159.21,316.1664703309536L1161.6200000000001,315.01104710698127L1164.03,316.3502182781696L1166.44,316.14417071342467L1168.85,316.11106769442557L1171.26,315.9483520209789L1173.67,315.98423756361007L1176.08,316.226472017169L1178.49,315.77269535958766L1180.9,316.03450323343276L1183.31,315.96580756902694L1185.72,316.1002642929554L1188.1299999999999,316.10034033358096L1190.54,316.3592361330986L1192.95,316.0252797871828L1195.36,316.41779023110865L1197.77,316.0485313206911L1200.1799999999998,316.3019043177366L1202.59,315.50324117839335L1205,315.9821957319975L1207.4099999999999,316.06803151667117L1209.82,316.0353847414255L1212.23,316.11850277781485L1214.6399999999999,316.17389133274554L1217.05,316.06203275620936L1219.46,315.94592153728007L1221.87,315.9318878173828L1224.28,316.399568644166L1226.69,316.05680566728114L1229.1,316.0701184093952L1231.51,316.08067115843295L1233.92,316.20157575309275L1236.33,315.82012499570845L1238.74,316.2301247835159L1241.1499999999999,315.20384670495986L1243.56,315.8813545972109L1245.97,316.0683835566044L1248.3799999999999,315.7871092826128L1250.79,316.1191139191389L1253.2,315.75022394657134L1255.61,315.8456661969423L1258.02,316.12258644104L1260.43,315.57188896536826L1262.84,315.69272033572196L1265.25,316.20266566872596L1267.66,315.3989528685808L1270.07,315.7921082496643L1272.48,315.99904858767985L1274.89,315.76490260362624L1277.3,316.18749415576457L1279.71,316.25893854796885L1282.1200000000001,316.0974705040455L1284.53,315.6226249605417L1286.94,316.05172221064566L1289.3500000000001,316.0791587948799L1291.76,315.83632164895533L1294.17,316.13872395157813L1296.58,316.32761168181895L1298.99,316.3462275534868L1301.4,316.07633684277533L1303.81,316.4339249253273L1306.22,315.704520714283L1308.63,316.0885512202978L1311.04,316.2783401727676L1313.45,316.07086191773413L1315.8600000000001,316.205242601037L1318.27,315.9007365077734L1320.68,316.1924508780241L1323.0900000000001,315.7184417814016" style="fill: none;" fill="none"></path></g></g></g></g></g><g><g opacity="0.878277"><span fill="rgb(0, 0, 0)" stroke="none" stroke-width="1px">Alt + Scroll to Zoom</span></g></g></g><g transform="translate(50, 378)" clip-path="url(#clip_1)"><clipPath id="clip_1"><rect width="1446" height="22"></rect></clipPath><g><g><line x1="0" y1="0" x2="0" y2="5" style="visibility: inherit;" fill="rgb(0, 0, 0)" stroke="rgb(204, 204, 204)" stroke-width="1px"></line><line x1="120.5" y1="0" x2="120.5" y2="5" style="visibility: inherit;" fill="rgb(0, 0, 0)" stroke="rgb(204, 204, 204)" stroke-width="1px"></line><line x1="241" y1="0" x2="241" y2="5" style="visibility: inherit;" fill="rgb(0, 0, 0)" stroke="rgb(204, 204, 204)" stroke-width="1px"></line><line x1="361.5" y1="0" x2="361.5" y2="5" style="visibility: inherit;" fill="rgb(0, 0, 0)" stroke="rgb(204, 204, 204)" stroke-width="1px"></line><line x1="482" y1="0" x2="482" y2="5" style="visibility: inherit;" fill="rgb(0, 0, 0)" stroke="rgb(204, 204, 204)" stroke-width="1px"></line><line x1="602.5" y1="0" x2="602.5" y2="5" style="visibility: inherit;" fill="rgb(0, 0, 0)" stroke="rgb(204, 204, 204)" stroke-width="1px"></line><line x1="723" y1="0" x2="723" y2="5" style="visibility: inherit;" fill="rgb(0, 0, 0)" stroke="rgb(204, 204, 204)" stroke-width="1px"></line><line x1="843.5" y1="0" x2="843.5" y2="5" style="visibility: inherit;" fill="rgb(0, 0, 0)" stroke="rgb(204, 204, 204)" stroke-width="1px"></line><line x1="964" y1="0" x2="964" y2="5" style="visibility: inherit;" fill="rgb(0, 0, 0)" stroke="rgb(204, 204, 204)" stroke-width="1px"></line><line x1="1084.5" y1="0" x2="1084.5" y2="5" style="visibility: inherit;" fill="rgb(0, 0, 0)" stroke="rgb(204, 204, 204)" stroke-width="1px"></line><line x1="1205" y1="0" x2="1205" y2="5" style="visibility: inherit;" fill="rgb(0, 0, 0)" stroke="rgb(204, 204, 204)" stroke-width="1px"></line><line x1="1325.5" y1="0" x2="1325.5" y2="5" style="visibility: inherit;" fill="rgb(0, 0, 0)" stroke="rgb(204, 204, 204)" stroke-width="1px"></line><line x1="1446" y1="0" x2="1446" y2="5" style="visibility: inherit;" fill="rgb(0, 0, 0)" stroke="rgb(204, 204, 204)" stroke-width="1px"></line></g><g transform="translate(0, 8)"><text x="0" y="0" dx="0em" dy="0.95em" style="text-anchor: middle; visibility: hidden; font-family: &quot;Helvetica Neue&quot;, sans-serif; font-size: 12px; font-weight: 200;" fill="rgb(50, 49, 63)" stroke="none" stroke-width="1px">-50</text><text x="120.5" y="0" dx="0em" dy="0.95em" style="text-anchor: middle; visibility: inherit; font-family: &quot;Helvetica Neue&quot;, sans-serif; font-size: 12px; font-weight: 200;" fill="rgb(50, 49, 63)" stroke="none" stroke-width="1px">0</text><text x="241" y="0" dx="0em" dy="0.95em" style="text-anchor: middle; visibility: inherit; font-family: &quot;Helvetica Neue&quot;, sans-serif; font-size: 12px; font-weight: 200;" fill="rgb(50, 49, 63)" stroke="none" stroke-width="1px">50</text><text x="361.5" y="0" dx="0em" dy="0.95em" style="text-anchor: middle; visibility: inherit; font-family: &quot;Helvetica Neue&quot;, sans-serif; font-size: 12px; font-weight: 200;" fill="rgb(50, 49, 63)" stroke="none" stroke-width="1px">100</text><text x="482" y="0" dx="0em" dy="0.95em" style="text-anchor: middle; visibility: inherit; font-family: &quot;Helvetica Neue&quot;, sans-serif; font-size: 12px; font-weight: 200;" fill="rgb(50, 49, 63)" stroke="none" stroke-width="1px">150</text><text x="602.5" y="0" dx="0em" dy="0.95em" style="text-anchor: middle; visibility: inherit; font-family: &quot;Helvetica Neue&quot;, sans-serif; font-size: 12px; font-weight: 200;" fill="rgb(50, 49, 63)" stroke="none" stroke-width="1px">200</text><text x="723" y="0" dx="0em" dy="0.95em" style="text-anchor: middle; visibility: inherit; font-family: &quot;Helvetica Neue&quot;, sans-serif; font-size: 12px; font-weight: 200;" fill="rgb(50, 49, 63)" stroke="none" stroke-width="1px">250</text><text x="843.5" y="0" dx="0em" dy="0.95em" style="text-anchor: middle; visibility: inherit; font-family: &quot;Helvetica Neue&quot;, sans-serif; font-size: 12px; font-weight: 200;" fill="rgb(50, 49, 63)" stroke="none" stroke-width="1px">300</text><text x="964" y="0" dx="0em" dy="0.95em" style="text-anchor: middle; visibility: inherit; font-family: &quot;Helvetica Neue&quot;, sans-serif; font-size: 12px; font-weight: 200;" fill="rgb(50, 49, 63)" stroke="none" stroke-width="1px">350</text><text x="1084.5" y="0" dx="0em" dy="0.95em" style="text-anchor: middle; visibility: inherit; font-family: &quot;Helvetica Neue&quot;, sans-serif; font-size: 12px; font-weight: 200;" fill="rgb(50, 49, 63)" stroke="none" stroke-width="1px">400</text><text x="1205" y="0" dx="0em" dy="0.95em" style="text-anchor: middle; visibility: inherit; font-family: &quot;Helvetica Neue&quot;, sans-serif; font-size: 12px; font-weight: 200;" fill="rgb(50, 49, 63)" stroke="none" stroke-width="1px">450</text><text x="1325.5" y="0" dx="0em" dy="0.95em" style="text-anchor: middle; visibility: inherit; font-family: &quot;Helvetica Neue&quot;, sans-serif; font-size: 12px; font-weight: 200;" fill="rgb(50, 49, 63)" stroke="none" stroke-width="1px">500</text><text x="1446" y="0" dx="0em" dy="0.95em" style="text-anchor: middle; visibility: hidden; font-family: &quot;Helvetica Neue&quot;, sans-serif; font-size: 12px; font-weight: 200;" fill="rgb(50, 49, 63)" stroke="none" stroke-width="1px">550</text></g><line x1="0" y1="0" x2="1446" y2="0" fill="rgb(0, 0, 0)" stroke="rgb(204, 204, 204)" stroke-width="1px"></line></g></g></g></g></svg>