<svg viewBox="0 0 1496 400" xmlns="http://www.w3.org/2000/svg"><g><g><g><g><g><line x1="50" y1="378" x2="45" y2="378" style="visibility: inherit;" fill="rgb(0, 0, 0)" stroke="rgb(204, 204, 204)" stroke-width="1px"></line><line x1="50" y1="340.2" x2="45" y2="340.2" style="visibility: inherit;" fill="rgb(0, 0, 0)" stroke="rgb(204, 204, 204)" stroke-width="1px"></line><line x1="50" y1="302.4" x2="45" y2="302.4" style="visibility: inherit;" fill="rgb(0, 0, 0)" stroke="rgb(204, 204, 204)" stroke-width="1px"></line><line x1="50" y1="264.59999999999997" x2="45" y2="264.59999999999997" style="visibility: inherit;" fill="rgb(0, 0, 0)" stroke="rgb(204, 204, 204)" stroke-width="1px"></line><line x1="50" y1="226.79999999999998" x2="45" y2="226.79999999999998" style="visibility: inherit;" fill="rgb(0, 0, 0)" stroke="rgb(204, 204, 204)" stroke-width="1px"></line><line x1="50" y1="189" x2="45" y2="189" style="visibility: inherit;" fill="rgb(0, 0, 0)" stroke="rgb(204, 204, 204)" stroke-width="1px"></line><line x1="50" y1="151.20000000000002" x2="45" y2="151.20000000000002" style="visibility: inherit;" fill="rgb(0, 0, 0)" stroke="rgb(204, 204, 204)" stroke-width="1px"></line><line x1="50" y1="113.40000000000003" x2="45" y2="113.40000000000003" style="visibility: inherit;" fill="rgb(0, 0, 0)" stroke="rgb(204, 204, 204)" stroke-width="1px"></line><line x1="50" y1="75.60000000000002" x2="45" y2="75.60000000000002" style="visibility: inherit;" fill="rgb(0, 0, 0)" stroke="rgb(204, 204, 204)" stroke-width="1px"></line><line x1="50" y1="37.80000000000001" x2="45" y2="37.80000000000001" style="visibility: inherit;" fill="rgb(0, 0, 0)" stroke="rgb(204, 204, 204)" stroke-width="1px"></line><line x1="50" y1="0" x2="45" y2="0" style="visibility: inherit;" fill="rgb(0, 0, 0)" stroke="rgb(204, 204, 204)" stroke-width="1px"></line></g><g transform="translate(40, 0)"><text x="0" y="378" dx="0em" dy="0.3em" style="text-anchor: end; visibility: hidden; font-family: &quot;Helvetica Neue&quot;, sans-serif; font-size: 12px; font-weight: 200;" fill="rgb(50, 49, 63)" stroke="none" stroke-width="1px">-0.2</text><text x="0" y="340.2" dx="0em" dy="0.3em" style="text-anchor: end; visibility: inherit; font-family: &quot;Helvetica Neue&quot;, sans-serif; font-size: 12px; font-weight: 200;" fill="rgb(50, 49, 63)" stroke="none" stroke-width="1px">0</text><text x="0" y="302.4" dx="0em" dy="0.3em" style="text-anchor: end; visibility: inherit; font-family: &quot;Helvetica Neue&quot;, sans-serif; font-size: 12px; font-weight: 200;" fill="rgb(50, 49, 63)" stroke="none" stroke-width="1px">0.2</text><text x="0" y="264.59999999999997" dx="0em" dy="0.3em" style="text-anchor: end; visibility: inherit; font-family: &quot;Helvetica Neue&quot;, sans-serif; font-size: 12px; font-weight: 200;" fill="rgb(50, 49, 63)" stroke="none" stroke-width="1px">0.4</text><text x="0" y="226.79999999999998" dx="0em" dy="0.3em" style="text-anchor: end; visibility: inherit; font-family: &quot;Helvetica Neue&quot;, sans-serif; font-size: 12px; font-weight: 200;" fill="rgb(50, 49, 63)" stroke="none" stroke-width="1px">0.6</text><text x="0" y="189" dx="0em" dy="0.3em" style="text-anchor: end; visibility: inherit; font-family: &quot;Helvetica Neue&quot;, sans-serif; font-size: 12px; font-weight: 200;" fill="rgb(50, 49, 63)" stroke="none" stroke-width="1px">0.8</text><text x="0" y="151.20000000000002" dx="0em" dy="0.3em" style="text-anchor: end; visibility: inherit; font-family: &quot;Helvetica Neue&quot;, sans-serif; font-size: 12px; font-weight: 200;" fill="rgb(50, 49, 63)" stroke="none" stroke-width="1px">1</text><text x="0" y="113.40000000000003" dx="0em" dy="0.3em" style="text-anchor: end; visibility: inherit; font-family: &quot;Helvetica Neue&quot;, sans-serif; font-size: 12px; font-weight: 200;" fill="rgb(50, 49, 63)" stroke="none" stroke-width="1px">1.2</text><text x="0" y="75.60000000000002" dx="0em" dy="0.3em" style="text-anchor: end; visibility: inherit; font-family: &quot;Helvetica Neue&quot;, sans-serif; font-size: 12px; font-weight: 200;" fill="rgb(50, 49, 63)" stroke="none" stroke-width="1px">1.4</text><text x="0" y="37.80000000000001" dx="0em" dy="0.3em" style="text-anchor: end; visibility: inherit; font-family: &quot;Helvetica Neue&quot;, sans-serif; font-size: 12px; font-weight: 200;" fill="rgb(50, 49, 63)" stroke="none" stroke-width="1px">1.6</text><text x="0" y="0" dx="0em" dy="0.3em" style="text-anchor: end; visibility: hidden; font-family: &quot;Helvetica Neue&quot;, sans-serif; font-size: 12px; font-weight: 200;" fill="rgb(50, 49, 63)" stroke="none" stroke-width="1px">1.8</text></g><line x1="50" y1="0" x2="50" y2="378" fill="rgb(0, 0, 0)" stroke="rgb(204, 204, 204)" stroke-width="1px"></line></g></g><g transform="translate(50, 0)" clip-path="url(#clip_0)"><clipPath id="clip_0"><rect width="1446" height="378"></rect></clipPath><g><g><g><line x1="0" y1="0" x2="0" y2="378" fill="rgb(0, 0, 0)" stroke="rgb(60, 60, 60)" stroke-width="1px" opacity="0.25"></line><line x1="120.5" y1="0" x2="120.5" y2="378" fill="rgb(0, 0, 0)" stroke="rgb(60, 60, 60)" stroke-width="1px" opacity="0.25"></line><line x1="241" y1="0" x2="241" y2="378" fill="rgb(0, 0, 0)" stroke="rgb(60, 60, 60)" stroke-width="1px" opacity="0.25"></line><line x1="361.5" y1="0" x2="361.5" y2="378" fill="rgb(0, 0, 0)" stroke="rgb(60, 60, 60)" stroke-width="1px" opacity="0.25"></line><line x1="482" y1="0" x2="482" y2="378" fill="rgb(0, 0, 0)" stroke="rgb(60, 60, 60)" stroke-width="1px" opacity="0.25"></line><line x1="602.5" y1="0" x2="602.5" y2="378" fill="rgb(0, 0, 0)" stroke="rgb(60, 60, 60)" stroke-width="1px" opacity="0.25"></line><line x1="723" y1="0" x2="723" y2="378" fill="rgb(0, 0, 0)" stroke="rgb(60, 60, 60)" stroke-width="1px" opacity="0.25"></line><line x1="843.5" y1="0" x2="843.5" y2="378" fill="rgb(0, 0, 0)" stroke="rgb(60, 60, 60)" stroke-width="1px" opacity="0.25"></line><line x1="964" y1="0" x2="964" y2="378" fill="rgb(0, 0, 0)" stroke="rgb(60, 60, 60)" stroke-width="1px" opacity="0.25"></line><line x1="1084.5" y1="0" x2="1084.5" y2="378" fill="rgb(0, 0, 0)" stroke="rgb(60, 60, 60)" stroke-width="1px" opacity="0.25"></line><line x1="1205" y1="0" x2="1205" y2="378" fill="rgb(0, 0, 0)" stroke="rgb(60, 60, 60)" stroke-width="1px" opacity="0.25"></line><line x1="1325.5" y1="0" x2="1325.5" y2="378" fill="rgb(0, 0, 0)" stroke="rgb(60, 60, 60)" stroke-width="1px" opacity="0.25"></line><line x1="1446" y1="0" x2="1446" y2="378" fill="rgb(0, 0, 0)" stroke="rgb(60, 60, 60)" stroke-width="1px" opacity="0.25"></line></g><g><line x1="0" y1="378" x2="1446" y2="378" fill="rgb(0, 0, 0)" stroke="rgb(60, 60, 60)" stroke-width="1px" opacity="0.25"></line><line x1="0" y1="340.2" x2="1446" y2="340.2" fill="rgb(0, 0, 0)" stroke="rgb(60, 60, 60)" stroke-width="1px" opacity="0.25"></line><line x1="0" y1="302.4" x2="1446" y2="302.4" fill="rgb(0, 0, 0)" stroke="rgb(60, 60, 60)" stroke-width="1px" opacity="0.25"></line><line x1="0" y1="264.59999999999997" x2="1446" y2="264.59999999999997" fill="rgb(0, 0, 0)" stroke="rgb(60, 60, 60)" stroke-width="1px" opacity="0.25"></line><line x1="0" y1="226.79999999999998" x2="1446" y2="226.79999999999998" fill="rgb(0, 0, 0)" stroke="rgb(60, 60, 60)" stroke-width="1px" opacity="0.25"></line><line x1="0" y1="189" x2="1446" y2="189" fill="rgb(0, 0, 0)" stroke="rgb(60, 60, 60)" stroke-width="1px" opacity="0.25"></line><line x1="0" y1="151.20000000000002" x2="1446" y2="151.20000000000002" fill="rgb(0, 0, 0)" stroke="rgb(60, 60, 60)" stroke-width="1px" opacity="0.25"></line><line x1="0" y1="113.40000000000003" x2="1446" y2="113.40000000000003" fill="rgb(0, 0, 0)" stroke="rgb(60, 60, 60)" stroke-width="1px" opacity="0.25"></line><line x1="0" y1="75.60000000000002" x2="1446" y2="75.60000000000002" fill="rgb(0, 0, 0)" stroke="rgb(60, 60, 60)" stroke-width="1px" opacity="0.25"></line><line x1="0" y1="37.80000000000001" x2="1446" y2="37.80000000000001" fill="rgb(0, 0, 0)" stroke="rgb(60, 60, 60)" stroke-width="1px" opacity="0.25"></line><line x1="0" y1="0" x2="1446" y2="0" fill="rgb(0, 0, 0)" stroke="rgb(60, 60, 60)" stroke-width="1px" opacity="0.25"></line></g></g></g><g><g><line x1="0" y1="340.2" x2="1446" y2="340.2" fill="rgb(0, 0, 0)" stroke="rgb(153, 153, 153)" stroke-width="1.5px"></line></g></g><g><g><line x1="120.5" y1="0" x2="120.5" y2="378" fill="rgb(0, 0, 0)" stroke="rgb(153, 153, 153)" stroke-width="1.5px"></line></g></g><g><g><g><g><g><path stroke="rgb(255, 112, 67)" stroke-width="2px" d="M120.5,68.46577162742614L122.91000000000001,226.8051324605942L125.32000000000001,273.0516046106815L127.73,299.59066725969313L130.14,315.006847974658L132.54999999999998,302.22381049096583L134.96,292.5061029911041L137.37,301.1454558491707L139.78,299.16171364188193L142.19,302.71687762141227L144.6,303.57270641326903L147.01,299.9024225592613L149.42,302.5532015830278L151.82999999999998,301.9357150912285L154.24,308.93459565639495L156.65,299.736316037178L159.06,312.3076226234436L161.47,308.92834342718123L163.88,309.2977797657251L166.29000000000002,312.6154266268015L168.7,308.4078932225704L171.10999999999999,315.3721217930317L173.51999999999998,302.04270425140857L175.93,312.44906945228576L178.34,307.8480539739132L180.75,317.08589161634444L183.16000000000003,312.7224777460098L185.57,315.7482356250286L187.98000000000002,309.65892767608165L190.39,307.6802576601505L192.8,314.5527023792267L195.21,306.0913409113884L197.61999999999998,309.25577436089515L200.03,306.77077234983443L202.44000000000003,311.91147067844867L204.85,309.8784062683582L207.26000000000002,299.43998571932315L209.67,311.9650596052408L212.08,310.5482115268707L214.49,312.0342762887478L216.9,310.3012625545263L219.31,318.4712053656578L221.71999999999997,322.0634828031063L224.13,315.11601133346556L226.54000000000002,319.3524204611778L228.95,316.18520730435847L231.36,315.7003075003624L233.76999999999998,313.7525465905666L236.18,317.6918396472931L238.59,308.764075961709L241,315.7032139420509L243.41,317.9449648082256L245.82000000000002,321.5131796121597L248.23,322.8415135860443L250.64000000000001,321.15263439416884L253.04999999999998,320.98208653628825L255.46,317.29530609101056L257.87,320.8253865212202L260.28,320.86600911319255L262.69,320.05063675045966L265.09999999999997,315.1226071536541L267.51,317.90925387740134L269.92,322.23382788598536L272.33,312.2927693545818L274.74,319.88145199120044L277.15000000000003,313.5345127701759L279.56,315.52972866296767L281.97,312.2013938695192L284.38,323.4322703897953L286.79,318.62529746890067L289.2,322.2187211483717L291.61,313.1929213821888L294.02,315.96669189333915L296.43,318.1558057487011L298.84,312.5501358926296L301.25,318.0181327879429L303.65999999999997,321.52969169318675L306.07,326.2686702132225L308.48,323.616863232851L310.89,323.9634507715702L313.3,323.34020209014415L315.71,324.92099938988684L318.12,319.42819635272025L320.53000000000003,322.42496303915976L322.94,318.6735269397497L325.35,318.6813450425863L327.76,322.3080238223076L330.17,321.96802928745745L332.58000000000004,321.52325077056884L334.99,315.9309387177229L337.4,324.8938247233629L339.81,322.48655594587325L342.21999999999997,324.2482454448938L344.63,326.12793309688567L347.03999999999996,320.4598198056221L349.45,324.6418289065361L351.86,320.8723965257406L354.27,319.9064214795828L356.68,322.9839489430189L359.09,324.119514298439L361.5,323.788774189353L363.90999999999997,324.4245639413595L366.32000000000005,322.39776865839957L368.73,322.12233261466025L371.14,316.1262842684984L373.55,316.7799829959869L375.96000000000004,321.56839355528354L378.37,324.6724817276001L380.78,314.6230850189924L383.19,313.18696768283843L385.6,320.413235065341L388.01,321.29149584174155L390.42,317.5212720751762L392.83,313.6109223335981L395.23999999999995,321.1565068334341L397.65000000000003,321.00082914233207L400.06,322.51943929195403L402.46999999999997,322.69014204740523L404.88000000000005,325.77092235982417L407.29,324.2123401880264L409.7,323.047541436553L412.10999999999996,321.4522964179516L414.52000000000004,314.6005967080593L416.93,324.2102110505104L419.34,323.6643914401531L421.75,316.82933195382356L424.16,318.3842796653509L426.57,326.19801720678805L428.98,312.5646512031555L431.39,318.3710457801819L433.8,324.1123214185238L436.21000000000004,321.87668759822844L438.62,324.4081391662359L441.03,322.144685742259L443.43999999999994,319.49137766361235L445.85,316.0654067069292L448.26,327.2747411996126L450.66999999999996,319.7655914247036L453.08000000000004,319.4547035515308L455.49,317.6087976515293L457.9,321.3110974252224L460.31000000000006,324.0511396944523L462.72,311.3051649749279L465.13,322.106127512455L467.53999999999996,317.317460668087L469.95,324.6357400238514L472.36,325.74097643494605L474.77,320.7415334254503L477.18,322.4723307162523L479.59,301.20960597395896L482,317.6051026403904L484.41,318.17574810683726L486.82,320.92978748381137L489.22999999999996,327.30698805749415L491.64000000000004,320.62892852425574L494.05,325.2837920308113L496.46,322.08066516816615L498.86999999999995,327.91324306726455L501.28000000000003,322.98961537778376L503.69,326.7926464498043L506.09999999999997,319.3698577031493L508.51000000000005,322.7294832140207L510.92,326.16303007006644L513.3299999999999,323.4622726410627L515.74,325.8883347183466L518.15,323.8178752183914L520.56,322.8325576901436L522.97,325.5799899816513L525.38,322.6713093191385L527.79,313.8119934618473L530.1999999999999,320.7467548817396L532.61,311.91893674135207L535.02,316.07282770872115L537.43,321.85900533646344L539.84,317.56483772099017L542.25,315.2779102742672L544.66,313.7134729743004L547.07,321.50381816625594L549.48,316.612124723196L551.89,319.239916947484L554.3000000000001,319.89616162776946L556.71,315.34184072613715L559.12,317.7037569031119L561.53,321.6529450982809L563.94,320.5541298955679L566.35,324.59789432287215L568.76,322.94063113331794L571.1700000000001,322.16913984417914L573.58,322.5778441250324L575.99,325.2711270421743L578.4,326.07182638049125L580.8100000000001,316.2133564174175L583.22,325.8691978275776L585.63,324.9421640306711L588.04,323.4184760570526L590.45,318.9860848903656L592.86,324.3030453890562L595.27,323.9370167970657L597.68,320.8050611436367L600.0899999999999,326.13204210698603L602.5,317.778844204545L604.91,322.84277811348437L607.3199999999999,321.3767514646053L609.73,325.68121976852416L612.14,326.1345204681158L614.55,321.4838870733976L616.96,321.8811092197895L619.37,321.04563678503035L621.78,319.2284911394119L624.1899999999999,325.16730060875415L626.6,319.6068129658699L629.01,311.38867729604243L631.42,324.6987748861313L633.83,325.6171991944313L636.24,323.85692348778247L638.65,324.45772047042846L641.0600000000001,324.7171654522419L643.47,327.14110402464866L645.88,315.16898066997527L648.29,312.7165437608957L650.7,320.87686884105204L653.11,326.95480449199675L655.52,320.5302615880966L657.9300000000001,322.48669394552707L660.34,325.6386482834816L662.75,315.1803388863802L665.1600000000001,326.7659759044647L667.57,322.3111274063587L669.98,322.1998630732298L672.39,324.81673361063L674.8,319.9814623117447L677.21,320.1905712157488L679.62,323.7357457101345L682.03,319.272166621685L684.4399999999999,326.75076777935027L686.85,324.24393929243087L689.26,312.89003748893737L691.67,324.9689641267061L694.0799999999999,322.80378335416316L696.49,324.77553085684775L698.9,323.7188703238964L701.31,321.9976119071245L703.72,327.53617731928824L706.13,318.4358408421278L708.54,324.39693303108214L710.9499999999999,318.50525466799735L713.36,322.15268972218036L715.77,319.3568984091282L718.18,318.79358382225035L720.59,327.2597442984581L723,324.82453481554984L725.4100000000001,322.3873144805431L727.8199999999999,326.6562830775976L730.23,320.44915158748626L732.6400000000001,323.86914631426333L735.05,327.5628028035164L737.46,323.05461039841174L739.8700000000001,323.80784912109374L742.28,316.6523445814848L744.69,321.5579619079828L747.1,324.15370441675185L749.51,324.01545692682265L751.9200000000001,318.5905947804451L754.3299999999999,327.89040834903716L756.74,324.7955013781786L759.15,322.37779813706874L761.56,322.34870274066924L763.97,325.0859793841839L766.38,326.83667960464953L768.79,325.77611283659934L771.2,327.79358328580855L773.61,321.15685324072837L776.02,326.13705515563487L778.43,328.3833825409412L780.84,327.0872616291046L783.25,326.31660397052764L785.66,321.65975214242934L788.07,325.90940923690795L790.4799999999999,327.7568443983793L792.89,317.351391685009L795.3000000000001,327.85612529218196L797.7099999999999,323.7465491116047L800.12,321.22285650372504L802.5300000000001,324.3370580792427L804.9399999999999,319.0265286460519L807.35,326.89449301064013L809.7600000000001,324.6454732239246L812.17,318.6016488343477L814.58,322.0180443048477L816.9899999999999,323.0735726773739L819.4,318.4917194366455L821.8100000000001,326.17911688685416L824.2199999999999,325.75662108957766L826.63,325.4626311331987L829.0400000000001,318.6467521905899L831.4499999999999,321.6009671062231L833.86,324.14682133197783L836.2700000000001,324.7969996601343L838.68,322.93168087005614L841.09,322.5725156486034L843.5,323.94444061517714L845.91,322.30742676258086L848.32,321.70581023097037L850.73,319.8384538337588L853.14,322.3635729074478L855.55,323.66305087208747L857.96,323.4275248914957L860.37,325.2402489155531L862.78,326.9796331644058L865.19,317.87728865146636L867.6,318.76321826577185L870.01,323.094585236907L872.4200000000001,321.5389672413468L874.8299999999999,328.31718213558196L877.24,322.3927809566259L879.65,323.27786567509173L882.06,322.48199069201945L884.47,321.261299264431L886.8799999999999,312.6144352823496L889.29,317.47363684773444L891.7,320.73188471496104L894.1099999999999,324.4114596068859L896.52,322.75074079334735L898.9300000000001,326.85597984194754L901.3399999999999,323.35477372705935L903.75,326.53086673915385L906.1600000000001,326.9696746587753L908.5699999999999,321.2806980729103L910.98,317.9303199470043L913.3900000000001,323.036352199316L915.8,324.94518594145774L918.21,326.8030893623829L920.6200000000001,323.0416637778282L923.03,320.534449455142L925.44,323.1585269540548L927.85,322.0286026865244L930.26,316.6558734297752L932.6700000000001,320.3595405265689L935.0799999999999,319.15870837569236L937.49,323.14417499005793L939.9,327.0648211956024L942.31,325.6737593382597L944.72,324.08119545578955L947.13,315.3704995930195L949.54,323.06240315437316L951.95,320.2755846351385L954.36,324.3737828850746L956.77,324.32800642848014L959.18,317.05258300602435L961.59,324.0614305257797L964,317.98252324461936L966.41,319.335685890913L968.82,325.1182008951902L971.2299999999999,326.1404882490635L973.64,319.3131975799799L976.0500000000001,326.8529579311609L978.4599999999999,319.5780020177364L980.87,326.64117352366446L983.2800000000001,323.7328505337238L985.6899999999999,323.92745820879935L988.1,325.66177871525286L990.5100000000001,328.0038947582245L992.92,325.3397860944271L995.33,326.0008213341236L997.7399999999999,322.6423688203096L1000.15,315.79764513373374L1002.5600000000001,318.87670749127864L1004.9699999999999,325.01213548779486L1007.38,323.24421910643576L1009.7900000000001,321.3442652195692L1012.1999999999999,324.19385668337344L1014.61,322.71311194896697L1017.0200000000001,321.22594600617884L1019.43,325.640949216485L1021.84,313.24147472977637L1024.25,318.78416886627673L1026.6599999999999,327.3406768709421L1029.07,313.6108096808195L1031.48,324.78040872216224L1033.8899999999999,325.318277862668L1036.3,321.273674172163L1038.71,323.04733021259307L1041.12,320.7541871488094L1043.53,319.8864312440157L1045.94,318.4812807485461L1048.35,321.79702518582343L1050.76,324.0992649614811L1053.17,322.6014899432659L1055.58,321.37747807502745L1057.99,325.4797318249941L1060.3999999999999,319.74076275229453L1062.81,322.70132846832274L1065.22,323.5140225112438L1067.6299999999999,326.07458918988704L1070.04,324.42365990281104L1072.45,319.1399347901344L1074.86,325.77784205675124L1077.27,313.54761428833007L1079.68,327.15376619696616L1082.09,317.0575369119644L1084.5,325.5364637643099L1086.91,322.0621478676796L1089.32,324.3717354208231L1091.73,326.92457975149154L1094.14,322.3671552658081L1096.55,326.1145161509514L1098.96,324.57014231085776L1101.3700000000001,326.1981918185949L1103.78,314.47368772029876L1106.19,323.4255562841892L1108.6000000000001,320.48266578912734L1111.01,322.9652288675308L1113.42,317.2772041976452L1115.83,323.4350979745388L1118.24,324.0826092481613L1120.65,318.0829362988472L1123.06,320.7668479129672L1125.47,324.59893636107444L1127.88,324.40141661167144L1130.29,323.78526787161826L1132.7,327.356625688076L1135.1100000000001,317.82269711494445L1137.52,326.7005415380001L1139.93,321.0997439146042L1142.3400000000001,326.0807146847248L1144.75,323.1081486314535L1147.16,323.6569169282913L1149.5700000000002,325.6007997661829L1151.98,326.822952863574L1154.39,324.72504551410674L1156.8,322.2040988177061L1159.21,322.1613386392593L1161.6200000000001,324.5887694478035L1164.03,325.8602362990379L1166.44,321.68635509610175L1168.85,321.79161503612994L1171.26,324.2383066534996L1173.67,320.82935753166674L1176.08,326.8541126221418L1178.49,323.8338578313589L1180.9,327.6896554648876L1183.31,316.86558784246444L1185.72,325.1400696158409L1188.1299999999999,321.7941525399685L1190.54,318.38166893720626L1192.95,326.32127624452113L1195.36,326.2164274871349L1197.77,322.626439717412L1200.1799999999998,318.0753716647625L1202.59,320.7745547711849L1205,322.8548742055893L1207.4099999999999,320.8563998311758L1209.82,325.8824880391359L1212.23,321.5356707394123L1214.6399999999999,318.959208753705L1217.05,323.7668237954378L1219.46,325.980628323555L1221.87,325.4673062235117L1224.28,325.50579686164855L1226.69,324.18557952046393L1229.1,319.40522363483905L1231.51,328.3322438120842L1233.92,314.4202903032303L1236.33,320.06902731657027L1238.74,322.6533468335867L1241.1499999999999,323.26366015970706L1243.56,326.90758044719695L1245.97,327.66332006156443L1248.3799999999999,325.1714603126049L1250.79,323.78186012506484L1253.2,324.1451259076595L1255.61,325.61168765723704L1258.02,324.82317453324794L1260.43,322.79625251591204L1262.84,321.81890517175196L1265.25,313.8444656252861L1267.66,323.10625324845313L1270.07,318.86837963461875L1272.48,320.28635705709456L1274.89,318.2050800740719L1277.3,319.94232532829045L1279.71,319.43536670207976L1282.1200000000001,319.57747536599635L1284.53,328.276815828681L1286.94,323.69981229007243L1289.3500000000001,322.50354398489L1291.76,327.12858830094336L1294.17,323.00192832648753L1296.58,318.7587910115719L1298.99,316.8226615011692L1301.4,327.6737798720598L1303.81,324.18557952046393L1306.22,325.2736870765686L1308.63,320.5544129356742L1311.04,322.72494893968104L1313.45,324.86232419013976L1315.8600000000001,321.7004648566246L1318.27,326.23684017062186L1320.68,324.99044701159L1323.0900000000001,323.519950863719" style="fill: none;" fill="none"></path></g></g></g></g></g><g><g opacity="0.878564"><span fill="rgb(0, 0, 0)" stroke="none" stroke-width="1px">Alt + Scroll to Zoom</span></g></g></g><g transform="translate(50, 378)" clip-path="url(#clip_1)"><clipPath id="clip_1"><rect width="1446" height="22"></rect></clipPath><g><g><line x1="0" y1="0" x2="0" y2="5" style="visibility: inherit;" fill="rgb(0, 0, 0)" stroke="rgb(204, 204, 204)" stroke-width="1px"></line><line x1="120.5" y1="0" x2="120.5" y2="5" style="visibility: inherit;" fill="rgb(0, 0, 0)" stroke="rgb(204, 204, 204)" stroke-width="1px"></line><line x1="241" y1="0" x2="241" y2="5" style="visibility: inherit;" fill="rgb(0, 0, 0)" stroke="rgb(204, 204, 204)" stroke-width="1px"></line><line x1="361.5" y1="0" x2="361.5" y2="5" style="visibility: inherit;" fill="rgb(0, 0, 0)" stroke="rgb(204, 204, 204)" stroke-width="1px"></line><line x1="482" y1="0" x2="482" y2="5" style="visibility: inherit;" fill="rgb(0, 0, 0)" stroke="rgb(204, 204, 204)" stroke-width="1px"></line><line x1="602.5" y1="0" x2="602.5" y2="5" style="visibility: inherit;" fill="rgb(0, 0, 0)" stroke="rgb(204, 204, 204)" stroke-width="1px"></line><line x1="723" y1="0" x2="723" y2="5" style="visibility: inherit;" fill="rgb(0, 0, 0)" stroke="rgb(204, 204, 204)" stroke-width="1px"></line><line x1="843.5" y1="0" x2="843.5" y2="5" style="visibility: inherit;" fill="rgb(0, 0, 0)" stroke="rgb(204, 204, 204)" stroke-width="1px"></line><line x1="964" y1="0" x2="964" y2="5" style="visibility: inherit;" fill="rgb(0, 0, 0)" stroke="rgb(204, 204, 204)" stroke-width="1px"></line><line x1="1084.5" y1="0" x2="1084.5" y2="5" style="visibility: inherit;" fill="rgb(0, 0, 0)" stroke="rgb(204, 204, 204)" stroke-width="1px"></line><line x1="1205" y1="0" x2="1205" y2="5" style="visibility: inherit;" fill="rgb(0, 0, 0)" stroke="rgb(204, 204, 204)" stroke-width="1px"></line><line x1="1325.5" y1="0" x2="1325.5" y2="5" style="visibility: inherit;" fill="rgb(0, 0, 0)" stroke="rgb(204, 204, 204)" stroke-width="1px"></line><line x1="1446" y1="0" x2="1446" y2="5" style="visibility: inherit;" fill="rgb(0, 0, 0)" stroke="rgb(204, 204, 204)" stroke-width="1px"></line></g><g transform="translate(0, 8)"><text x="0" y="0" dx="0em" dy="0.95em" style="text-anchor: middle; visibility: hidden; font-family: &quot;Helvetica Neue&quot;, sans-serif; font-size: 12px; font-weight: 200;" fill="rgb(50, 49, 63)" stroke="none" stroke-width="1px">-50</text><text x="120.5" y="0" dx="0em" dy="0.95em" style="text-anchor: middle; visibility: inherit; font-family: &quot;Helvetica Neue&quot;, sans-serif; font-size: 12px; font-weight: 200;" fill="rgb(50, 49, 63)" stroke="none" stroke-width="1px">0</text><text x="241" y="0" dx="0em" dy="0.95em" style="text-anchor: middle; visibility: inherit; font-family: &quot;Helvetica Neue&quot;, sans-serif; font-size: 12px; font-weight: 200;" fill="rgb(50, 49, 63)" stroke="none" stroke-width="1px">50</text><text x="361.5" y="0" dx="0em" dy="0.95em" style="text-anchor: middle; visibility: inherit; font-family: &quot;Helvetica Neue&quot;, sans-serif; font-size: 12px; font-weight: 200;" fill="rgb(50, 49, 63)" stroke="none" stroke-width="1px">100</text><text x="482" y="0" dx="0em" dy="0.95em" style="text-anchor: middle; visibility: inherit; font-family: &quot;Helvetica Neue&quot;, sans-serif; font-size: 12px; font-weight: 200;" fill="rgb(50, 49, 63)" stroke="none" stroke-width="1px">150</text><text x="602.5" y="0" dx="0em" dy="0.95em" style="text-anchor: middle; visibility: inherit; font-family: &quot;Helvetica Neue&quot;, sans-serif; font-size: 12px; font-weight: 200;" fill="rgb(50, 49, 63)" stroke="none" stroke-width="1px">200</text><text x="723" y="0" dx="0em" dy="0.95em" style="text-anchor: middle; visibility: inherit; font-family: &quot;Helvetica Neue&quot;, sans-serif; font-size: 12px; font-weight: 200;" fill="rgb(50, 49, 63)" stroke="none" stroke-width="1px">250</text><text x="843.5" y="0" dx="0em" dy="0.95em" style="text-anchor: middle; visibility: inherit; font-family: &quot;Helvetica Neue&quot;, sans-serif; font-size: 12px; font-weight: 200;" fill="rgb(50, 49, 63)" stroke="none" stroke-width="1px">300</text><text x="964" y="0" dx="0em" dy="0.95em" style="text-anchor: middle; visibility: inherit; font-family: &quot;Helvetica Neue&quot;, sans-serif; font-size: 12px; font-weight: 200;" fill="rgb(50, 49, 63)" stroke="none" stroke-width="1px">350</text><text x="1084.5" y="0" dx="0em" dy="0.95em" style="text-anchor: middle; visibility: inherit; font-family: &quot;Helvetica Neue&quot;, sans-serif; font-size: 12px; font-weight: 200;" fill="rgb(50, 49, 63)" stroke="none" stroke-width="1px">400</text><text x="1205" y="0" dx="0em" dy="0.95em" style="text-anchor: middle; visibility: inherit; font-family: &quot;Helvetica Neue&quot;, sans-serif; font-size: 12px; font-weight: 200;" fill="rgb(50, 49, 63)" stroke="none" stroke-width="1px">450</text><text x="1325.5" y="0" dx="0em" dy="0.95em" style="text-anchor: middle; visibility: inherit; font-family: &quot;Helvetica Neue&quot;, sans-serif; font-size: 12px; font-weight: 200;" fill="rgb(50, 49, 63)" stroke="none" stroke-width="1px">500</text><text x="1446" y="0" dx="0em" dy="0.95em" style="text-anchor: middle; visibility: hidden; font-family: &quot;Helvetica Neue&quot;, sans-serif; font-size: 12px; font-weight: 200;" fill="rgb(50, 49, 63)" stroke="none" stroke-width="1px">550</text></g><line x1="0" y1="0" x2="1446" y2="0" fill="rgb(0, 0, 0)" stroke="rgb(204, 204, 204)" stroke-width="1px"></line></g></g></g></g></svg>