<svg viewBox="0 0 1496 400" xmlns="http://www.w3.org/2000/svg"><g><g><g><g><g><line x1="50" y1="378" x2="45" y2="378" style="visibility: inherit;" fill="rgb(0, 0, 0)" stroke="rgb(204, 204, 204)" stroke-width="1px"></line><line x1="50" y1="336" x2="45" y2="336" style="visibility: inherit;" fill="rgb(0, 0, 0)" stroke="rgb(204, 204, 204)" stroke-width="1px"></line><line x1="50" y1="294" x2="45" y2="294" style="visibility: inherit;" fill="rgb(0, 0, 0)" stroke="rgb(204, 204, 204)" stroke-width="1px"></line><line x1="50" y1="252" x2="45" y2="252" style="visibility: inherit;" fill="rgb(0, 0, 0)" stroke="rgb(204, 204, 204)" stroke-width="1px"></line><line x1="50" y1="210" x2="45" y2="210" style="visibility: inherit;" fill="rgb(0, 0, 0)" stroke="rgb(204, 204, 204)" stroke-width="1px"></line><line x1="50" y1="168" x2="45" y2="168" style="visibility: inherit;" fill="rgb(0, 0, 0)" stroke="rgb(204, 204, 204)" stroke-width="1px"></line><line x1="50" y1="126.00000000000001" x2="45" y2="126.00000000000001" style="visibility: inherit;" fill="rgb(0, 0, 0)" stroke="rgb(204, 204, 204)" stroke-width="1px"></line><line x1="50" y1="84.00000000000004" x2="45" y2="84.00000000000004" style="visibility: inherit;" fill="rgb(0, 0, 0)" stroke="rgb(204, 204, 204)" stroke-width="1px"></line><line x1="50" y1="42.00000000000002" x2="45" y2="42.00000000000002" style="visibility: inherit;" fill="rgb(0, 0, 0)" stroke="rgb(204, 204, 204)" stroke-width="1px"></line><line x1="50" y1="0" x2="45" y2="0" style="visibility: inherit;" fill="rgb(0, 0, 0)" stroke="rgb(204, 204, 204)" stroke-width="1px"></line></g><g transform="translate(40, 0)"><text x="0" y="378" dx="0em" dy="0.3em" style="text-anchor: end; visibility: hidden; font-family: Roboto, sans-serif; font-size: 12px; font-weight: 200;" fill="rgb(50, 49, 63)" stroke="none" stroke-width="1px">-0.2</text><text x="0" y="336" dx="0em" dy="0.3em" style="text-anchor: end; visibility: inherit; font-family: Roboto, sans-serif; font-size: 12px; font-weight: 200;" fill="rgb(50, 49, 63)" stroke="none" stroke-width="1px">0</text><text x="0" y="294" dx="0em" dy="0.3em" style="text-anchor: end; visibility: inherit; font-family: Roboto, sans-serif; font-size: 12px; font-weight: 200;" fill="rgb(50, 49, 63)" stroke="none" stroke-width="1px">0.2</text><text x="0" y="252" dx="0em" dy="0.3em" style="text-anchor: end; visibility: inherit; font-family: Roboto, sans-serif; font-size: 12px; font-weight: 200;" fill="rgb(50, 49, 63)" stroke="none" stroke-width="1px">0.4</text><text x="0" y="210" dx="0em" dy="0.3em" style="text-anchor: end; visibility: inherit; font-family: Roboto, sans-serif; font-size: 12px; font-weight: 200;" fill="rgb(50, 49, 63)" stroke="none" stroke-width="1px">0.6</text><text x="0" y="168" dx="0em" dy="0.3em" style="text-anchor: end; visibility: inherit; font-family: Roboto, sans-serif; font-size: 12px; font-weight: 200;" fill="rgb(50, 49, 63)" stroke="none" stroke-width="1px">0.8</text><text x="0" y="126.00000000000001" dx="0em" dy="0.3em" style="text-anchor: end; visibility: inherit; font-family: Roboto, sans-serif; font-size: 12px; font-weight: 200;" fill="rgb(50, 49, 63)" stroke="none" stroke-width="1px">1</text><text x="0" y="84.00000000000004" dx="0em" dy="0.3em" style="text-anchor: end; visibility: inherit; font-family: Roboto, sans-serif; font-size: 12px; font-weight: 200;" fill="rgb(50, 49, 63)" stroke="none" stroke-width="1px">1.2</text><text x="0" y="42.00000000000002" dx="0em" dy="0.3em" style="text-anchor: end; visibility: inherit; font-family: Roboto, sans-serif; font-size: 12px; font-weight: 200;" fill="rgb(50, 49, 63)" stroke="none" stroke-width="1px">1.4</text><text x="0" y="0" dx="0em" dy="0.3em" style="text-anchor: end; visibility: hidden; font-family: Roboto, sans-serif; font-size: 12px; font-weight: 200;" fill="rgb(50, 49, 63)" stroke="none" stroke-width="1px">1.6</text></g><line x1="50" y1="0" x2="50" y2="378" fill="rgb(0, 0, 0)" stroke="rgb(204, 204, 204)" stroke-width="1px"></line></g></g><g transform="translate(50, 0)" clip-path="url(#clip_0)"><clipPath id="clip_0"><rect width="1446" height="378"></rect></clipPath><g><g><g><line x1="0" y1="0" x2="0" y2="378" fill="rgb(0, 0, 0)" stroke="rgb(60, 60, 60)" stroke-width="1px" opacity="0.25"></line><line x1="120.5" y1="0" x2="120.5" y2="378" fill="rgb(0, 0, 0)" stroke="rgb(60, 60, 60)" stroke-width="1px" opacity="0.25"></line><line x1="241" y1="0" x2="241" y2="378" fill="rgb(0, 0, 0)" stroke="rgb(60, 60, 60)" stroke-width="1px" opacity="0.25"></line><line x1="361.5" y1="0" x2="361.5" y2="378" fill="rgb(0, 0, 0)" stroke="rgb(60, 60, 60)" stroke-width="1px" opacity="0.25"></line><line x1="482" y1="0" x2="482" y2="378" fill="rgb(0, 0, 0)" stroke="rgb(60, 60, 60)" stroke-width="1px" opacity="0.25"></line><line x1="602.5" y1="0" x2="602.5" y2="378" fill="rgb(0, 0, 0)" stroke="rgb(60, 60, 60)" stroke-width="1px" opacity="0.25"></line><line x1="723" y1="0" x2="723" y2="378" fill="rgb(0, 0, 0)" stroke="rgb(60, 60, 60)" stroke-width="1px" opacity="0.25"></line><line x1="843.5" y1="0" x2="843.5" y2="378" fill="rgb(0, 0, 0)" stroke="rgb(60, 60, 60)" stroke-width="1px" opacity="0.25"></line><line x1="964" y1="0" x2="964" y2="378" fill="rgb(0, 0, 0)" stroke="rgb(60, 60, 60)" stroke-width="1px" opacity="0.25"></line><line x1="1084.5" y1="0" x2="1084.5" y2="378" fill="rgb(0, 0, 0)" stroke="rgb(60, 60, 60)" stroke-width="1px" opacity="0.25"></line><line x1="1205" y1="0" x2="1205" y2="378" fill="rgb(0, 0, 0)" stroke="rgb(60, 60, 60)" stroke-width="1px" opacity="0.25"></line><line x1="1325.5" y1="0" x2="1325.5" y2="378" fill="rgb(0, 0, 0)" stroke="rgb(60, 60, 60)" stroke-width="1px" opacity="0.25"></line><line x1="1446" y1="0" x2="1446" y2="378" fill="rgb(0, 0, 0)" stroke="rgb(60, 60, 60)" stroke-width="1px" opacity="0.25"></line></g><g><line x1="0" y1="378" x2="1446" y2="378" fill="rgb(0, 0, 0)" stroke="rgb(60, 60, 60)" stroke-width="1px" opacity="0.25"></line><line x1="0" y1="336" x2="1446" y2="336" fill="rgb(0, 0, 0)" stroke="rgb(60, 60, 60)" stroke-width="1px" opacity="0.25"></line><line x1="0" y1="294" x2="1446" y2="294" fill="rgb(0, 0, 0)" stroke="rgb(60, 60, 60)" stroke-width="1px" opacity="0.25"></line><line x1="0" y1="252" x2="1446" y2="252" fill="rgb(0, 0, 0)" stroke="rgb(60, 60, 60)" stroke-width="1px" opacity="0.25"></line><line x1="0" y1="210" x2="1446" y2="210" fill="rgb(0, 0, 0)" stroke="rgb(60, 60, 60)" stroke-width="1px" opacity="0.25"></line><line x1="0" y1="168" x2="1446" y2="168" fill="rgb(0, 0, 0)" stroke="rgb(60, 60, 60)" stroke-width="1px" opacity="0.25"></line><line x1="0" y1="126.00000000000001" x2="1446" y2="126.00000000000001" fill="rgb(0, 0, 0)" stroke="rgb(60, 60, 60)" stroke-width="1px" opacity="0.25"></line><line x1="0" y1="84.00000000000004" x2="1446" y2="84.00000000000004" fill="rgb(0, 0, 0)" stroke="rgb(60, 60, 60)" stroke-width="1px" opacity="0.25"></line><line x1="0" y1="42.00000000000002" x2="1446" y2="42.00000000000002" fill="rgb(0, 0, 0)" stroke="rgb(60, 60, 60)" stroke-width="1px" opacity="0.25"></line><line x1="0" y1="0" x2="1446" y2="0" fill="rgb(0, 0, 0)" stroke="rgb(60, 60, 60)" stroke-width="1px" opacity="0.25"></line></g></g></g><g><g><line x1="0" y1="336" x2="1446" y2="336" fill="rgb(0, 0, 0)" stroke="rgb(153, 153, 153)" stroke-width="1.5px"></line></g></g><g><g><line x1="120.5" y1="0" x2="120.5" y2="378" fill="rgb(0, 0, 0)" stroke="rgb(153, 153, 153)" stroke-width="1.5px"></line></g></g><g><g><g><g><g><path stroke="rgb(0, 119, 187)" stroke-width="2px" d="M123.5125,122.37167930603029L124.115,133.66058921813965L126.52499999999999,158.65802800655365L127.12750000000001,160.4388681650162L128.33249999999998,164.410542011261L128.935,170.82880890369415L129.5375,174.80024492740634L130.7425,175.01970505714417L131.345,180.87391948699954L131.9475,181.6860834360123L132.54999999999998,184.21505069732666L134.96,192.85976207256317L140.3825,202.2280172109604L140.985,204.15924882888797L142.19,205.91705775260925L143.9975,212.62288963794708L144.6,212.40841126441958L145.805,214.30916404724124L147.01,217.63297176361087L147.6125,219.48460793495178L148.8175,224.1018823385239L150.02249999999998,224.66958975791934L150.625,227.3188076019287L152.4325,227.92094922065735L153.035,229.64746570587158L153.6375,233.17374801635745L154.24,229.31524014472961L154.8425,235.61131632328033L156.65,236.59436827898026L157.2525,233.58745908737183L158.4575,237.51584297418592L159.6625,243.3316365480423L160.26500000000001,243.21818268299103L160.8675,241.326367020607L161.47,243.9949736595154L163.2775,246.98084181547165L163.88,245.1646286845207L164.48250000000002,245.92673724889755L165.085,252.28363966941833L166.29000000000002,251.17662584781644L168.0975,254.8345116376877L171.10999999999999,260.26537692546844L171.7125,260.1021430492401L172.315,261.35973608493805L172.9175,263.6632162928581L173.51999999999998,260.31490659713745L174.1225,264.0202379822731L177.135,268.8713420033455L181.95499999999998,270.6919736266136L183.7625,273.61053174734116L184.365,274.7622061371803L188.58249999999998,279.7784591317177L190.39,280.99855130910873L191.595,281.39809942245483L192.1975,284.6262930929661L192.8,284.0653229355812L195.21,284.91276597976685L195.8125,287.41919642686844L196.415,287.5486344695091L198.2225,288.9503823816776L198.82500000000002,287.25880390405655L200.63250000000002,290.31506752967834L203.0425,292.42470985651016L204.24749999999997,292.55694857239723L205.45250000000001,294.533303886652L206.05499999999998,293.24433079361916L206.6575,294.1306202709675L207.26000000000002,293.91558489203453L209.67,294.73552188277245L210.875,296.38805052638054L212.6825,296.45369267463684L213.285,298.33715012669563L213.8875,297.1837577819824L215.0925,298.48570784926414L215.695,296.89353293180466L216.2975,299.24974089860916L218.10500000000002,299.44242095947266L219.31,301.9745706617832L219.9125,300.0519069135189L221.1175,299.2264280319214L221.71999999999997,301.7038754224777L223.52749999999997,301.3964553773403L226.54000000000002,301.08218854665756L227.14249999999998,302.6289894282818L227.745,302.4692509174347L228.95,301.94087183475494L229.5525,302.7464956641197L230.7575,303.56644517183304L231.9625,303.515889108181L232.565,304.175580650568L233.16750000000002,304.59988421201706L233.76999999999998,303.42172077298164L234.975,302.97356298565865L235.5775,303.7408942580223L239.795,305.4202436506748L242.205,305.67206954956055L244.61499999999998,306.9789043664932L245.2175,307.54802933335304L245.82000000000002,306.53828179836273L248.23,307.00860714912415L250.0375,308.36998468637466L251.845,307.57252818346024L252.44750000000002,307.84973537921906L254.25500000000002,308.65912368893623L254.8575,308.46639981865883L256.0625,308.93485075235367L256.66499999999996,309.2775655388832L257.2675,308.4391222000122L258.47249999999997,309.26442271471024L259.075,308.4582450091839L260.28,309.3522167801857L260.8825,310.2716433852911L261.485,308.7639126777649L263.2925,309.6347530782223L265.09999999999997,309.4584201872349L268.1125,310.31779973208904L269.3175,309.91304455697536L270.5225,311.1520436257124L271.125,310.92384038865566L274.1375,309.8319595903158L275.945,309.2811641693115L276.5475,309.3039513230324L277.15000000000003,310.0538151562214L277.7525,310.52297016978264L278.9575,310.884385317564L281.3675,310.0992110967636L282.5725,311.5913659930229L283.77750000000003,310.0954028069973L284.9825,311.2613324671984L287.995,311.2114914357662L289.2,310.49615098536015L291.61,310.8582608252764L294.6225,311.43294958770275L295.8275,311.50832994282246L296.43,311.94669476151466L298.2375,311.21476462483406L299.4425,313.0604036003351L300.04499999999996,311.10104164481163L300.6475,311.28602063655853L301.85249999999996,311.7245747745037L302.455,311.5012109130621L303.0575,311.69632552564144L305.4675,311.3688908368349L306.07,312.973859667778L307.275,312.0064445436001L309.0825,312.2211372703314L311.4925,313.49802365899086L312.09499999999997,312.33445501327515L312.6975,312.76322400569916L313.3,313.4102483689785L314.505,312.10148280858994L316.3125,312.84506468474865L316.915,312.74687683582306L317.5175,312.666955947876L319.325,312.26574620604515L319.9275,312.85688227415085L321.1325,313.02809415757656L324.7475,313.82015427947044L325.9525,314.3983916044235L327.76,313.9823711514473L328.3625,313.8074714541435L329.5675,314.58908146619797L330.17,314.01009468734264L333.1825,314.2962640374899L333.785,314.54363076388836L334.99,315.0147118270397L336.195,315.0525209158659L336.7975,314.8465587794781L337.4,314.15856009721756L339.2075,315.0361565351486L339.81,314.99866349995136L341.6175,314.7039591372013L342.21999999999997,315.28141102194786L343.425,315.012987613678L344.0275,314.72274555265903L345.23249999999996,315.3575079739094L347.6425,315.1396985203028L348.245,315.5257721096277L348.84749999999997,315.6655335277319L350.0525,315.41399082541466L350.655,314.9723825454712L352.4625,315.339532032609L353.065,315.7596001625061L353.6675,314.8994351774454L354.27,315.02115650475025L355.47499999999997,315.51477751135826L356.0775,315.2759645730257L356.68,315.6697376668453L357.28249999999997,315.7311897575855L362.70500000000004,316.2188964933157L363.30749999999995,315.4419287145138L364.5125,315.55618366599083L366.32000000000005,315.45013359189034L370.53749999999997,315.74774189293385L371.14,316.0252275913954L373.55,315.49706442654133L374.1525,316.5601108074188L374.755,316.2710250020027L375.96000000000004,316.38556158542633L377.16499999999996,316.31868651509285L379.575,315.94410663843155L384.9975,315.71323415637016L385.6,315.5792853087187L386.2025,315.39110040664673L386.805,314.83388221263885L388.01,315.29465241730213L388.6125,316.9450187534094L390.42,314.9472422003746L392.22749999999996,316.1733472198248L396.445,315.98127579689026L397.0475,315.22759898006916L397.65000000000003,315.59003895521164L398.25249999999994,315.7823591530323L399.4575,315.27054941654205L400.06,315.5134084671736L400.6625,315.6559799462557L401.86749999999995,316.45044645667076L402.46999999999997,315.8815796524286L403.0725,315.2897379398346L404.27750000000003,316.0626564770937L405.48249999999996,315.68972727656364L406.085,315.7372479736805L408.49499999999995,316.01264959573746L412.7125,316.75908221304417L414.52000000000004,315.2983965575695L415.12250000000006,315.9512788653374L416.3275,315.5410396903753L417.5325,315.6539584547281L419.34,315.8154978454113L425.9675,316.5873117595911L427.775,316.4671425372362L428.3775,316.0671923160553L428.98,316.6654740124941L430.185,316.1200123876333L431.39,317.0627721995115L431.9925,316.08591771125793L433.1975,316.3290458768606L436.21000000000004,315.7680162638426L436.8125,316.535122230649L440.42749999999995,315.8344814032316L441.6325,316.09345918893814L442.235,316.44207729399204L442.83750000000003,316.33664368093014L443.43999999999994,316.37523195147514L444.04249999999996,316.8559776842594L444.645,316.2820336818695L445.2475,315.95681919157505L445.85,316.63183933496475L446.45250000000004,316.27572825551033L447.05499999999995,316.33898904919624L448.26,316.80470502376556L450.06750000000005,316.42794093489647L450.66999999999996,316.74575789272785L451.2725,316.55908754467964L452.4775,315.90808591246605L454.8875,316.61053544282913L456.09250000000003,316.7119479775429L457.29749999999996,317.59588269889355L459.70750000000004,317.4080576598644L460.31000000000006,316.5945559591055L460.91249999999997,316.9804480522871L462.1175,317.22914783656597L463.32250000000005,316.90461552143097L464.5275,316.2766388654709L465.7325,316.9665823727846L466.33500000000004,316.75306311249733L468.1425,316.71357674896717L469.3475,316.925470367074L469.95,316.3730008006096L470.5525,316.80142557621L471.155,316.4742631316185L471.7575,317.0930836200714L472.36,317.31844237446785L473.565,316.24742268025875L474.1675,316.82389667630196L477.18,316.9478162974119L477.7825,316.8752616494894L478.9875,317.2191139161587L479.59,317.12477973103523L480.1925,316.77005334198475L482,317.1564038693905L483.205,316.724605768919L484.41,316.67422807216644L485.61499999999995,316.76902225613594L486.82,317.47620007395744L488.02500000000003,318.0056853443384L488.62749999999994,318.1360246092081L489.22999999999996,318.0932415872812L491.0375,318.0769898593426L493.4475,317.94941371679306L494.05,318.06359826028347L495.25500000000005,317.8522444367409L495.85749999999996,317.90406158566475L497.0625,318.266381084919L499.47249999999997,317.9866079092026L502.48499999999996,317.8356641381979L506.7025,317.8236806988716L507.305,318.4606195092201L508.51000000000005,318.2639340162277L509.1125,317.96945652365685L509.715,318.32490107417107L510.3175,318.3323893547058L510.92,318.4568221718073L511.52250000000004,318.22652077674866L512.7275,318.16024339199066L513.3299999999999,318.1974501013756L515.74,318.36192785203457L516.3425,318.4830874800682L517.5475,318.32246965169907L518.7525,317.89276188611984L520.56,318.34758496284485L521.765,318.0057228952646L522.3675000000001,318.2775477916002L522.97,318.64629788696766L524.7775,318.2156012803316L525.38,318.24737875163555L525.9825000000001,318.4430613219738L526.585,318.2799604386091L527.1875,318.27886989712715L528.3925,318.61467061936855L528.995,318.3390593379736L529.5975000000001,318.73282930254936L530.8025,318.4770715087652L531.405,318.51566134393215L532.0075,318.5592438876629L532.61,319.0176577717066L533.2125,317.2921082228422L533.8149999999999,317.58601619303226L535.02,317.67441576719284L535.6225000000001,317.899696290493L537.43,317.5167409926653L539.84,318.0773872733116L541.6475,317.1685609817505L542.25,317.2468656152487L542.8525,317.6135801374912L544.0575,318.6575944572687L544.66,318.3181841522455L545.2625,317.60842157900333L545.865,317.4486815035343L547.07,317.8755103647709L547.6725,317.348832026124L548.275,317.43512561917305L550.6850000000001,317.61672815680504L553.095,317.6186025738716L553.6975,317.5229447185993L554.9024999999999,317.87165826559067L555.505,317.8992879241705L556.1075,317.59901663661003L556.71,317.9502680003643L557.3125,317.7429430782795L557.915,318.02696576714516L559.7225,317.5477627515793L560.325,317.8745668977499L563.94,318.4313110113144L565.145,318.04353511333466L565.7475,317.37224189937115L566.35,317.7065405845642L566.9525,317.7531569302082L568.1575,317.67764984071255L569.965,317.62341848015785L570.5675,317.4682502299547L572.375,317.73515126109123L572.9775,318.5519026815891L573.58,317.72856733202934L574.7850000000001,318.4166317284107L575.99,318.81098529696465L577.7975,318.87036895751953L578.4,318.7835715562105L579.605,318.8775364905596L581.4125,318.59052850306034L582.015,318.61544823646545L582.6175,318.55109690129757L583.8225,318.7391691505909L584.425,318.6639014482498L585.0275,318.5496058166027L586.2325,318.5352097302675L586.835,319.1306657195091L587.4375,318.86895141005516L590.45,318.93605022132397L592.86,318.365942671895L593.4625,318.7056283503771L594.6675,318.946425229311L595.8725000000001,318.820640578866L597.0775,319.0762732028961L597.68,318.99190409481525L598.2825,319.0072499066591L598.885,318.7672979235649L599.4875000000001,319.05215142667294L600.0899999999999,318.8197330981493L601.295,318.8033311665058L602.5,318.9758448153734L603.7049999999999,318.80723333358765L605.5125,318.8733213990927L606.7175,319.24861004948616L607.3199999999999,319.18103089928627L607.9225,318.87926226854324L610.3325,318.98432506620884L611.5375,318.89147570729256L612.14,319.0362392216921L613.345,318.83816277980804L615.1525,319.2119853794575L616.3575000000001,319.3068249374628L616.96,318.91804924607277L617.5625,319.21588441729546L619.37,319.08021761476994L621.1775,319.2219426333904L621.78,319.3233332633972L622.985,319.0760259926319L624.1899999999999,319.17830845713615L625.395,319.1364344805479L628.4075,319.33359874784946L629.6125,319.27699698507786L630.215,319.0893925577402L630.8175,319.2847934961319L631.42,319.1161194294691L633.2275,318.86808148026466L636.8425,318.98957124352455L638.0475,318.3142381757498L638.65,318.1755735576153L639.2524999999999,318.3915805667639L639.855,318.0324419438839L640.4575,318.53521755337715L642.8675,318.67724454402924L644.0725,318.321360334754L644.6750000000001,317.79758436977863L646.4825,318.21592985093594L647.085,318.04661898314953L647.6875,318.61966176331043L648.29,318.300483584404L648.8924999999999,318.91322238743305L650.0975,319.3228153735399L650.7,319.3246913552284L651.3025,318.91004307568073L651.905,318.84245923161507L653.11,319.21053966879845L654.9175,319.12868021428585L656.1225,319.5684797912836L656.725,319.13573978841305L657.9300000000001,319.24600495398045L658.5325,319.11269760131836L660.34,319.4186641126871L660.9425,319.1767062842846L662.1475,319.56786645948887L662.75,319.1558044999838L666.9675,319.2362010329962L667.57,319.2114487141371L668.1725,319.25013242661953L668.775,319.4468961507082L669.3774999999999,319.5610353201628L669.98,319.06208677589893L670.5825,319.45090471208096L671.7875,319.1536531448364L672.39,319.4164220094681L672.9925,319.4425934404135L674.8,319.26543912291527L675.4025,319.14677976071835L676.005,319.31504076719284L676.6075,319.6381821334362L677.8125,319.0076238512993L681.4275,319.4830655157566L682.03,319.26462864875793L682.6325,318.9745524376631L683.8375,319.51274013519287L686.2475000000001,319.54586005210876L688.055,319.30378487706184L689.8625000000001,319.60485881567L692.2725,319.31001207232475L694.0799999999999,319.3050052821636L694.6825,319.0812768638134L695.285,319.37808564305305L696.49,319.4512285888195L697.0925,319.2251673191786L697.6949999999999,319.50080363452435L699.5025,319.31134513020515L700.105,319.53803537786007L701.31,319.803376480937L702.515,319.5156800597906L703.1175000000001,319.48285116255283L704.3225,319.73747929930687L705.5275,319.53201627731323L706.13,319.74457485973835L707.335,319.60663935542107L708.54,319.417806699872L709.1425,319.4565983712673L709.745,319.43526788055897L710.3475000000001,319.5326061397791L712.155,319.61455008387566L712.7575,319.6577696353197L713.36,319.5435741394758L715.1675,319.05827379226685L715.77,319.49238753318787L720.59,319.43319945037365L722.3975,319.51041197776794L723,319.66842314600945L724.205,319.560758382082L725.4100000000001,319.25338058173656L726.0125,319.59301306307316L727.8199999999999,319.6142183840275L728.4225,319.72112430632114L729.6275,319.42245675623417L730.23,319.6717886477709L730.8325,319.65541487932205L731.4350000000001,319.5486278682947L733.2425,319.60891431570053L738.0625,319.7710592150688L738.6650000000001,319.50981429219246L739.2674999999999,319.4813851118088L740.4725,319.5323839634657L741.6775,319.84908847510815L742.28,319.60805220901966L742.8825,319.64938482642174L744.0875,319.89407604932785L745.2924999999999,319.4535473585129L745.8950000000001,319.67659360170364L746.4975,319.2936508208513L748.305,319.6331221461296L748.9075,319.7648570537567L749.51,319.6533245444298L752.5224999999999,319.50982680916786L753.7275,319.6835718154907L754.3299999999999,319.807882592082L755.535,319.4260053187609L756.1375,319.820019364357L757.3425000000001,319.81098210811615L760.9575,319.6790218949318L761.56,319.7687999010086L762.765,319.80215138196945L763.97,318.9910685867071L766.38,318.9647297412157L767.585,319.1577743589878L768.79,318.67396196722984L769.995,319.0991902202368L771.2,318.88578048348427L772.405,318.9813303798437L773.0074999999999,319.40046912431717L773.61,318.76941172778606L774.2125,318.71927028894424L774.815,318.53158919513226L777.225,318.9120645672083L778.43,319.0568155646324L779.0324999999999,319.1452605128288L782.6475,318.88015097379684L783.8525000000001,318.94390618801117L785.0575000000001,319.0177140980959L785.66,318.9637221246958L786.2624999999999,318.8826089948416L789.8775,319.6314745992422L791.685,319.3058877289295L792.89,318.773080766201L794.6975,319.1797854602337L796.5049999999999,318.9823489487171L797.1075000000001,318.70006611943245L798.3125,318.8027694672346L798.915,319.10964189469814L799.5174999999999,319.1516472995281L800.12,319.26677687466145L801.325,318.8114077448845L801.9275,318.8100324422121L803.1325,319.12066465616226L803.7349999999999,319.2635459303856L804.3375,318.78846725821495L806.145,319.1848970800638L806.7475,318.7034566551447L807.9525,318.8415533155203L812.7725,320.04007248580456L813.375,319.8802745193243L813.9775,319.9113964140415L814.58,319.73832419514656L816.3875,319.8836572319269L816.9899999999999,320.05976951122284L817.5925,319.8978749513626L819.4,319.85873906314373L820.0025,320.0213330090046L820.605,319.86952087283134L822.4125,319.8392376154661L829.6424999999999,319.8230140507221L831.4499999999999,319.92261788249016L832.655,320.0184384584427L833.2575,320.2344955354929L834.4625,320.08032082021236L835.065,320.111769720912L836.8725,319.965737298131L838.68,320.0555904060602L839.2825,319.80123138427734L839.885,319.8783187419176L840.4875000000001,319.9896134287119L841.09,319.80474865436554L841.6924999999999,320.00219455361366L842.2950000000001,319.6613776534796L842.8974999999999,319.93645226955414L844.1025,320.03999269008636L845.3075,319.98130372166634L845.91,319.8675744831562L847.115,319.99429477751255L848.32,320.1443529725075L849.525,319.6715383082628L850.1274999999999,319.8850826025009L850.73,320.13499340415L851.3325,319.83911088109016L851.935,319.681134134531L852.5375,320.0451183915138L854.9475000000001,320.11368168890476L857.96,319.9751750975847L858.5625,320.11281801760197L859.7675,320.01643730700016L860.37,320.0586508065462L862.78,319.85595716536045L863.3824999999999,320.0164466947317L863.985,319.97135116159916L865.19,320.22971561551094L866.9975000000001,320.05677795410156L868.805,319.8235632330179L870.01,319.9591173827648L871.215,319.814045637846L871.8175,319.9781165868044L873.0225,319.9090447872877L873.625,319.9389806985855L875.4325000000001,320.1123392432928L876.035,320.10698041319847L876.6374999999999,319.89850705862045L877.8425,319.80049757659435L878.445,319.81701059639454L879.0475,320.1822089999914L880.2525,319.8234740495682L880.8549999999999,320.16164986789227L881.4575000000001,320.164862036705L882.06,320.0248440206051L882.6625,319.93608145415783L883.265,319.92035856842995L886.2775,319.96835647523403L886.8799999999999,319.77433709800243L888.0849999999999,319.76823976635933L890.495,320.1031079739332L891.0975,320.06712636351585L892.3025,319.9256704598665L894.7125,320.12056758999825L895.9175,320.1244885325432L897.1225,320.2165946960449L898.3275,320.08406496047974L898.9300000000001,320.06535990536213L899.5325,320.0015248954296L900.1350000000001,320.23464573919773L901.3399999999999,320.15413811802864L903.1475,319.9329647272825L903.75,319.8870696723461L904.955,319.9841169118881L905.5575,319.77088241279125L906.1600000000001,320.0951409190893L907.3649999999999,319.9855407178402L909.775,319.5603265464306L910.98,319.64006750285625L911.5825,319.35650011897087L912.7875,319.1398969888687L913.3900000000001,319.3967312425375L915.1975,319.96010778844357L915.8,319.3447936177254L918.8125,319.29657196998596L919.4150000000001,319.29907692968845L920.0174999999999,319.59010599553585L920.6200000000001,319.47047187387943L921.8249999999999,319.3943295478821L923.03,319.14951941370964L923.6325,320.0756379067898L924.235,319.58513206243515L924.8375,319.71589846909046L925.44,319.2231552153826L926.0424999999999,319.17108303308487L927.85,319.58538553118706L929.6575,319.21213088929653L930.8625000000001,319.18447306752205L932.0674999999999,319.4432443231344L932.6700000000001,319.6479312926531L933.2724999999999,319.53764422237873L933.875,319.734772503376L934.4775,319.3647018671036L936.8875,319.3797175437212L939.2974999999999,319.22349317371845L940.5024999999999,319.60533602535725L941.105,319.5025341063738L942.9125,319.26980598270893L943.515,319.44220228493214L944.1175000000001,319.2730071991682L945.925,319.23966667056084L947.7325,319.1741950660944L948.335,319.30328576266766L948.9375,319.77673879265785L950.1425,320.24018293619156L950.745,319.3597310632467L951.3475000000001,319.34518633782864L953.155,319.45924101769924L954.36,319.6014401167631L954.9625,319.4264074265957L955.565,319.2712782919407L956.1675,319.1339827179909L956.77,319.225514665246L957.3725000000001,319.2256367057562L958.5775000000001,319.38466957211494L959.18,319.6499136686325L960.9875,319.8654810190201L964,319.4654822945595L971.2299999999999,320.16451156139374L971.8325000000001,320.3393987417221L972.435,320.1920801997185L973.0375,319.95156495273113L975.4475,320.34311002492905L977.2549999999999,320.20087963342667L977.8575000000001,320.37001682817936L979.0625,320.17541071772575L979.665,320.3950054049492L980.2674999999999,320.2293260246515L980.87,320.24089953303337L982.075,320.2177478224039L983.2800000000001,320.28257793188095L983.8825,320.06048610806465L984.4849999999999,320.27411176264286L985.6899999999999,320.0479785203934L986.2925,320.26786109805107L986.895,320.424564242363L988.1,320.4649236649275L989.3050000000001,320.2995572090149L992.92,320.3684083968401L994.125,320.37760680913925L997.1375,320.3725233525038L997.7399999999999,320.19170156121254L1000.15,319.88490580022335L1003.1625,320.1804378479719L1003.7650000000001,320.42240193486214L1006.175,320.40714061260223L1008.585,320.41040597856045L1010.3924999999999,320.38231006264687L1012.1999999999999,320.1294405609369L1012.8025,320.334684535861L1013.405,320.0880046784878L1015.2125,320.40675415098667L1015.815,320.39047425985336L1017.6225,320.22293454408646L1018.8275,320.3374992907047L1019.43,320.3492605537176L1020.0325,320.30592209100723L1024.25,320.34106662869453L1024.8525,320.51638877391815L1025.455,320.39817376434803L1026.0575000000001,320.44884561002254L1027.2625,320.3341963738203L1027.865,320.0533623844385L1028.4675,320.38285142183304L1029.07,320.3093314021826L1029.6725,320.4224113225937L1030.275,320.010886028409L1030.8775,320.3231016397476L1031.48,320.2225183546543L1032.0825,320.49967861175537L1033.8899999999999,320.3132945895195L1035.095,320.3525916337967L1038.1075,320.4633371382952L1038.71,320.4346685707569L1039.3125,320.14955377578735L1040.5175,320.27741937339306L1044.7350000000001,320.37806993722916L1045.94,320.2122247070074L1048.9525,320.46424305438995L1049.555,320.18770395219326L1051.9650000000001,320.1676314175129L1053.17,320.4361925125122L1053.7725,320.5206195116043L1054.9775,320.39235493540764L1055.58,320.3690561503172L1056.785,320.19229455292225L1057.3875,320.39669519662857L1061.0025,320.1952469944954L1061.605,320.3466726690531L1062.2075,319.9892879873514L1065.22,320.38780657947063L1065.8225,320.2560528963804L1071.2450000000001,319.66637974977493L1071.8474999999999,319.59233871102333L1073.655,319.6282029747963L1074.2575,319.5077380388975L1074.86,319.5867999494076L1076.065,319.7679284065962L1077.27,319.6203344911337L1078.475,320.4062206149101L1080.2825,320.6054595708847L1080.885,320.4036405533552L1082.09,320.4700665771961L1082.6925,320.31602485477924L1083.8975,320.50734838843346L1085.1025,320.55253154039383L1085.705,320.4245485961437L1086.91,320.4974975287914L1087.5125,320.3194795399904L1089.9225000000001,319.66301737725735L1090.525,319.9546300470829L1091.73,320.11360658705235L1092.3325,319.71832363307476L1092.935,319.56948897242546L1093.5375,319.471717312932L1094.7425,319.51925678551197L1095.345,319.98564867675304L1095.9475,319.5856217890978L1096.55,319.42792823910713L1098.96,319.8285653293133L1100.165,319.7433810532093L1100.7675,319.6375594139099L1101.3700000000001,319.9474343508482L1102.575,319.5685298591852L1103.78,320.1788497567177L1104.985,319.7474475055933L1106.19,319.701466396451L1106.7925,319.3988857269287L1107.395,319.8662289083004L1108.6000000000001,319.78502033650875L1109.2025,319.85535791516304L1109.8049999999998,319.64255368709564L1110.4075,320.07743722200394L1111.01,319.6057944595814L1111.6125,319.5154328495264L1112.8174999999999,319.6041343957186L1113.42,319.9909605681896L1115.2275,319.41034501791L1115.83,319.64710830152035L1117.0349999999999,319.6803612112999L1117.6375,319.7428569048643L1119.445,320.049768447876L1120.0475,320.63698357343674L1120.65,319.71410697698593L1121.2525,319.5737979412079L1121.855,319.78439605236053L1123.06,319.7622503936291L1125.47,319.8242579251528L1126.675,319.92657950520515L1127.2775,319.8016976416111L1127.88,319.69412675499916L1129.6875,320.05454210937023L1130.29,319.48350517451763L1131.495,319.7587174773216L1133.905,319.6559233814478L1134.5075,320.5100958645344L1135.1100000000001,319.7004415690899L1135.7125,319.67703169584274L1136.9175,319.46904180943966L1139.3275,319.86099211871624L1139.93,319.8400762528181L1141.135,319.64360824227333L1141.7375,319.7424047291279L1142.3400000000001,319.71101059019566L1142.9424999999999,319.834355995059L1144.1475,319.84648337960243L1145.955,319.7780734151602L1146.5575000000001,319.3952010422945L1147.16,319.8149781525135L1147.7625,319.74680757522583L1148.365,319.8252029567957L1150.1725,319.7967237085104L1150.7749999999999,319.702849522233L1153.185,319.65938276052475L1153.7875000000001,320.01933185756207L1154.9924999999998,319.6726554483175L1155.595,319.7683977931738L1156.1975,319.64498510956764L1158.6075,319.66098023951054L1160.415,319.64844761788845L1161.6200000000001,319.63636404275894L1163.4275,319.75779278576374L1164.03,319.6324931681156L1164.6325,319.8289987295866L1165.235,319.70127864181995L1165.8375,319.8558851927519L1167.0425,319.635293841362L1167.645,319.73754657804966L1168.2475,319.98419201374054L1170.055,319.3123840391636L1170.6575,319.8302128762007L1171.8625,319.953118622303L1172.465,319.5375112295151L1173.0675,320.46109659969807L1174.875,320.6699720621109L1176.08,320.51131626963615L1176.6825,320.6248546242714L1177.285,320.72438648343086L1177.8875,320.65312890708447L1182.105,320.35900814831257L1182.7075,320.4781572371721L1184.515,320.396602883935L1187.5275000000001,320.67032566666603L1189.9375,320.5002982020378L1191.1425,320.3295353651047L1192.3475,320.5055866241455L1193.5525,320.61883552372456L1194.155,320.5882049202919L1194.7575000000002,320.61724899709225L1195.36,320.5530901104212L1197.77,320.7600207477808L1198.3725,320.53800559043884L1198.9750000000001,320.29090797901154L1200.1799999999998,320.45141315460205L1200.7825,320.6180782467127L1201.385,320.6329155564308L1203.795,320.51960250735283L1205,320.60373379290104L1206.205,320.55204024910927L1207.4099999999999,320.57841508090496L1208.0125,320.59159702062607L1209.2175,319.8917713612318L1211.6275,320.2421121150255L1212.8325,319.76525916159153L1213.435,319.82656417787075L1215.2425,319.9860288798809L1217.05,319.5736383497715L1219.46,319.8015912473202L1220.665,319.9528354257345L1221.2675,319.9197640120983L1223.075,319.905181735754L1225.4850000000001,320.4352834671736L1226.0875,319.83359402418137L1226.69,319.8296590000391L1227.2925,320.0335699170828L1229.1,319.90775866806507L1229.7025,319.8507641851902L1230.305,319.8401982933283L1231.51,319.4917178750038L1232.1125,319.8613770157099L1232.7150000000001,320.59775380790234L1233.92,319.72892394661903L1234.5225,320.02764938771725L1236.33,319.93322445452213L1236.9325000000001,319.89621801674366L1238.1375,320.1683542728424L1239.3425,319.83605517446995L1239.9450000000002,319.8082706183195L1240.5475,320.3046625703573L1244.765,320.0143360197544L1245.3674999999998,320.0581438690424L1245.97,320.4277545064688L1246.5725,319.93115289509296L1250.1875,319.70789386332035L1250.79,320.0210857987404L1251.3925,319.96528512239456L1251.9950000000001,319.6088376492262L1252.5974999999999,319.8649944216013L1253.8025,319.73933494091034L1255.61,320.1156640648842L1257.4175,319.98300290107727L1259.8274999999999,320.17703948915005L1260.43,319.92920181155205L1261.0325,320.04311567544937L1261.635,320.0280906111002L1262.2375,320.2991879582405L1263.4425,320.0145315974951L1264.045,320.3644765019417L1266.455,320.09763023257256L1268.2625,319.7591649591923L1268.865,320.08033333718777L1270.6725000000001,319.9285071194172L1271.275,320.69402499496937L1271.8775,320.80755865573883L1272.48,320.5154656469822L1273.0825,320.5284081995487L1274.2875,320.60443787276745L1274.89,320.7525215148926L1275.4925,319.83325450122356L1276.095,320.1938482224941L1276.6975,319.8612549751997L1279.1075,320.0497011691332L1279.71,319.94729509949684L1280.3125,319.87819826602936L1282.1200000000001,319.7247980386019L1283.325,319.8810083270073L1283.9275,320.5141388475895L1284.53,319.895183801651L1285.735,319.93276289105415L1286.3374999999999,320.1520696878433L1286.94,319.7659851461649L1288.145,319.85416254401207L1288.7475,320.1896393895149L1290.5549999999998,319.87172542512417L1291.76,319.8380078226328L1292.965,320.00193326175213L1293.5674999999999,320.44866098463535L1294.7725,319.98163229227066L1296.58,319.92271019518375L1297.7849999999999,320.1627685725689L1298.3875,320.3207734823227L1298.99,320.70020838081837L1300.195,319.91555830836296L1301.4,320.0662830322981L1302.0025,319.799477443099L1302.605,319.7949103116989L1305.0149999999999,320.2913930118084L1305.6175,319.7271183729172L1306.8225,320.3137311190367L1308.0275,319.7557462602854L1311.04,320.0771399438381L1313.45,320.1334491223097L1314.0525,319.991896212101L1314.655,319.9413683116436L1315.2575,319.9907477796078L1322.4875,320.0292562544346L1323.6924999999999,320.0443767607212L1324.8975,320.0759038925171" style="fill: none;" fill="none"></path></g></g></g></g></g></g><g transform="translate(50, 378)" clip-path="url(#clip_1)"><clipPath id="clip_1"><rect width="1446" height="22"></rect></clipPath><g><g><line x1="0" y1="0" x2="0" y2="5" style="visibility: inherit;" fill="rgb(0, 0, 0)" stroke="rgb(204, 204, 204)" stroke-width="1px"></line><line x1="120.5" y1="0" x2="120.5" y2="5" style="visibility: inherit;" fill="rgb(0, 0, 0)" stroke="rgb(204, 204, 204)" stroke-width="1px"></line><line x1="241" y1="0" x2="241" y2="5" style="visibility: inherit;" fill="rgb(0, 0, 0)" stroke="rgb(204, 204, 204)" stroke-width="1px"></line><line x1="361.5" y1="0" x2="361.5" y2="5" style="visibility: inherit;" fill="rgb(0, 0, 0)" stroke="rgb(204, 204, 204)" stroke-width="1px"></line><line x1="482" y1="0" x2="482" y2="5" style="visibility: inherit;" fill="rgb(0, 0, 0)" stroke="rgb(204, 204, 204)" stroke-width="1px"></line><line x1="602.5" y1="0" x2="602.5" y2="5" style="visibility: inherit;" fill="rgb(0, 0, 0)" stroke="rgb(204, 204, 204)" stroke-width="1px"></line><line x1="723" y1="0" x2="723" y2="5" style="visibility: inherit;" fill="rgb(0, 0, 0)" stroke="rgb(204, 204, 204)" stroke-width="1px"></line><line x1="843.5" y1="0" x2="843.5" y2="5" style="visibility: inherit;" fill="rgb(0, 0, 0)" stroke="rgb(204, 204, 204)" stroke-width="1px"></line><line x1="964" y1="0" x2="964" y2="5" style="visibility: inherit;" fill="rgb(0, 0, 0)" stroke="rgb(204, 204, 204)" stroke-width="1px"></line><line x1="1084.5" y1="0" x2="1084.5" y2="5" style="visibility: inherit;" fill="rgb(0, 0, 0)" stroke="rgb(204, 204, 204)" stroke-width="1px"></line><line x1="1205" y1="0" x2="1205" y2="5" style="visibility: inherit;" fill="rgb(0, 0, 0)" stroke="rgb(204, 204, 204)" stroke-width="1px"></line><line x1="1325.5" y1="0" x2="1325.5" y2="5" style="visibility: inherit;" fill="rgb(0, 0, 0)" stroke="rgb(204, 204, 204)" stroke-width="1px"></line><line x1="1446" y1="0" x2="1446" y2="5" style="visibility: inherit;" fill="rgb(0, 0, 0)" stroke="rgb(204, 204, 204)" stroke-width="1px"></line></g><g transform="translate(0, 8)"><text x="0" y="0" dx="0em" dy="0.95em" style="text-anchor: middle; visibility: hidden; font-family: Roboto, sans-serif; font-size: 12px; font-weight: 200;" fill="rgb(50, 49, 63)" stroke="none" stroke-width="1px">-200</text><text x="120.5" y="0" dx="0em" dy="0.95em" style="text-anchor: middle; visibility: inherit; font-family: Roboto, sans-serif; font-size: 12px; font-weight: 200;" fill="rgb(50, 49, 63)" stroke="none" stroke-width="1px">0</text><text x="241" y="0" dx="0em" dy="0.95em" style="text-anchor: middle; visibility: inherit; font-family: Roboto, sans-serif; font-size: 12px; font-weight: 200;" fill="rgb(50, 49, 63)" stroke="none" stroke-width="1px">200</text><text x="361.5" y="0" dx="0em" dy="0.95em" style="text-anchor: middle; visibility: inherit; font-family: Roboto, sans-serif; font-size: 12px; font-weight: 200;" fill="rgb(50, 49, 63)" stroke="none" stroke-width="1px">400</text><text x="482" y="0" dx="0em" dy="0.95em" style="text-anchor: middle; visibility: inherit; font-family: Roboto, sans-serif; font-size: 12px; font-weight: 200;" fill="rgb(50, 49, 63)" stroke="none" stroke-width="1px">600</text><text x="602.5" y="0" dx="0em" dy="0.95em" style="text-anchor: middle; visibility: inherit; font-family: Roboto, sans-serif; font-size: 12px; font-weight: 200;" fill="rgb(50, 49, 63)" stroke="none" stroke-width="1px">800</text><text x="723" y="0" dx="0em" dy="0.95em" style="text-anchor: middle; visibility: inherit; font-family: Roboto, sans-serif; font-size: 12px; font-weight: 200;" fill="rgb(50, 49, 63)" stroke="none" stroke-width="1px">1k</text><text x="843.5" y="0" dx="0em" dy="0.95em" style="text-anchor: middle; visibility: inherit; font-family: Roboto, sans-serif; font-size: 12px; font-weight: 200;" fill="rgb(50, 49, 63)" stroke="none" stroke-width="1px">1.2k</text><text x="964" y="0" dx="0em" dy="0.95em" style="text-anchor: middle; visibility: inherit; font-family: Roboto, sans-serif; font-size: 12px; font-weight: 200;" fill="rgb(50, 49, 63)" stroke="none" stroke-width="1px">1.4k</text><text x="1084.5" y="0" dx="0em" dy="0.95em" style="text-anchor: middle; visibility: inherit; font-family: Roboto, sans-serif; font-size: 12px; font-weight: 200;" fill="rgb(50, 49, 63)" stroke="none" stroke-width="1px">1.6k</text><text x="1205" y="0" dx="0em" dy="0.95em" style="text-anchor: middle; visibility: inherit; font-family: Roboto, sans-serif; font-size: 12px; font-weight: 200;" fill="rgb(50, 49, 63)" stroke="none" stroke-width="1px">1.8k</text><text x="1325.5" y="0" dx="0em" dy="0.95em" style="text-anchor: middle; visibility: inherit; font-family: Roboto, sans-serif; font-size: 12px; font-weight: 200;" fill="rgb(50, 49, 63)" stroke="none" stroke-width="1px">2k</text><text x="1446" y="0" dx="0em" dy="0.95em" style="text-anchor: middle; visibility: hidden; font-family: Roboto, sans-serif; font-size: 12px; font-weight: 200;" fill="rgb(50, 49, 63)" stroke="none" stroke-width="1px">2.2k</text></g><line x1="0" y1="0" x2="1446" y2="0" fill="rgb(0, 0, 0)" stroke="rgb(204, 204, 204)" stroke-width="1px"></line></g></g></g></g></svg>