<svg viewBox="0 0 1496 400" xmlns="http://www.w3.org/2000/svg"><g><g><g><g><g><line x1="50" y1="378" x2="45" y2="378" style="visibility: inherit;" fill="rgb(0, 0, 0)" stroke="rgb(204, 204, 204)" stroke-width="1px"></line><line x1="50" y1="330.75" x2="45" y2="330.75" style="visibility: inherit;" fill="rgb(0, 0, 0)" stroke="rgb(204, 204, 204)" stroke-width="1px"></line><line x1="50" y1="283.5" x2="45" y2="283.5" style="visibility: inherit;" fill="rgb(0, 0, 0)" stroke="rgb(204, 204, 204)" stroke-width="1px"></line><line x1="50" y1="236.24999999999997" x2="45" y2="236.24999999999997" style="visibility: inherit;" fill="rgb(0, 0, 0)" stroke="rgb(204, 204, 204)" stroke-width="1px"></line><line x1="50" y1="188.99999999999997" x2="45" y2="188.99999999999997" style="visibility: inherit;" fill="rgb(0, 0, 0)" stroke="rgb(204, 204, 204)" stroke-width="1px"></line><line x1="50" y1="141.75" x2="45" y2="141.75" style="visibility: inherit;" fill="rgb(0, 0, 0)" stroke="rgb(204, 204, 204)" stroke-width="1px"></line><line x1="50" y1="94.5" x2="45" y2="94.5" style="visibility: inherit;" fill="rgb(0, 0, 0)" stroke="rgb(204, 204, 204)" stroke-width="1px"></line><line x1="50" y1="47.25" x2="45" y2="47.25" style="visibility: inherit;" fill="rgb(0, 0, 0)" stroke="rgb(204, 204, 204)" stroke-width="1px"></line><line x1="50" y1="0" x2="45" y2="0" style="visibility: inherit;" fill="rgb(0, 0, 0)" stroke="rgb(204, 204, 204)" stroke-width="1px"></line></g><g transform="translate(40, 0)"><text x="0" y="378" dx="0em" dy="0.3em" style="text-anchor: end; visibility: hidden; font-family: &quot;Helvetica Neue&quot;, sans-serif; font-size: 12px; font-weight: 200;" fill="rgb(50, 49, 63)" stroke="none" stroke-width="1px">-0.2</text><text x="0" y="330.75" dx="0em" dy="0.3em" style="text-anchor: end; visibility: inherit; font-family: &quot;Helvetica Neue&quot;, sans-serif; font-size: 12px; font-weight: 200;" fill="rgb(50, 49, 63)" stroke="none" stroke-width="1px">0</text><text x="0" y="283.5" dx="0em" dy="0.3em" style="text-anchor: end; visibility: inherit; font-family: &quot;Helvetica Neue&quot;, sans-serif; font-size: 12px; font-weight: 200;" fill="rgb(50, 49, 63)" stroke="none" stroke-width="1px">0.2</text><text x="0" y="236.24999999999997" dx="0em" dy="0.3em" style="text-anchor: end; visibility: inherit; font-family: &quot;Helvetica Neue&quot;, sans-serif; font-size: 12px; font-weight: 200;" fill="rgb(50, 49, 63)" stroke="none" stroke-width="1px">0.4</text><text x="0" y="188.99999999999997" dx="0em" dy="0.3em" style="text-anchor: end; visibility: inherit; font-family: &quot;Helvetica Neue&quot;, sans-serif; font-size: 12px; font-weight: 200;" fill="rgb(50, 49, 63)" stroke="none" stroke-width="1px">0.6</text><text x="0" y="141.75" dx="0em" dy="0.3em" style="text-anchor: end; visibility: inherit; font-family: &quot;Helvetica Neue&quot;, sans-serif; font-size: 12px; font-weight: 200;" fill="rgb(50, 49, 63)" stroke="none" stroke-width="1px">0.8</text><text x="0" y="94.5" dx="0em" dy="0.3em" style="text-anchor: end; visibility: inherit; font-family: &quot;Helvetica Neue&quot;, sans-serif; font-size: 12px; font-weight: 200;" fill="rgb(50, 49, 63)" stroke="none" stroke-width="1px">1</text><text x="0" y="47.25" dx="0em" dy="0.3em" style="text-anchor: end; visibility: inherit; font-family: &quot;Helvetica Neue&quot;, sans-serif; font-size: 12px; font-weight: 200;" fill="rgb(50, 49, 63)" stroke="none" stroke-width="1px">1.2</text><text x="0" y="0" dx="0em" dy="0.3em" style="text-anchor: end; visibility: hidden; font-family: &quot;Helvetica Neue&quot;, sans-serif; font-size: 12px; font-weight: 200;" fill="rgb(50, 49, 63)" stroke="none" stroke-width="1px">1.4</text></g><line x1="50" y1="0" x2="50" y2="378" fill="rgb(0, 0, 0)" stroke="rgb(204, 204, 204)" stroke-width="1px"></line></g></g><g transform="translate(50, 0)" clip-path="url(#clip_0)"><clipPath id="clip_0"><rect width="1446" height="378"></rect></clipPath><g><g><g><line x1="0" y1="0" x2="0" y2="378" fill="rgb(0, 0, 0)" stroke="rgb(60, 60, 60)" stroke-width="1px" opacity="0.25"></line><line x1="120.5" y1="0" x2="120.5" y2="378" fill="rgb(0, 0, 0)" stroke="rgb(60, 60, 60)" stroke-width="1px" opacity="0.25"></line><line x1="241" y1="0" x2="241" y2="378" fill="rgb(0, 0, 0)" stroke="rgb(60, 60, 60)" stroke-width="1px" opacity="0.25"></line><line x1="361.5" y1="0" x2="361.5" y2="378" fill="rgb(0, 0, 0)" stroke="rgb(60, 60, 60)" stroke-width="1px" opacity="0.25"></line><line x1="482" y1="0" x2="482" y2="378" fill="rgb(0, 0, 0)" stroke="rgb(60, 60, 60)" stroke-width="1px" opacity="0.25"></line><line x1="602.5" y1="0" x2="602.5" y2="378" fill="rgb(0, 0, 0)" stroke="rgb(60, 60, 60)" stroke-width="1px" opacity="0.25"></line><line x1="723" y1="0" x2="723" y2="378" fill="rgb(0, 0, 0)" stroke="rgb(60, 60, 60)" stroke-width="1px" opacity="0.25"></line><line x1="843.5" y1="0" x2="843.5" y2="378" fill="rgb(0, 0, 0)" stroke="rgb(60, 60, 60)" stroke-width="1px" opacity="0.25"></line><line x1="964" y1="0" x2="964" y2="378" fill="rgb(0, 0, 0)" stroke="rgb(60, 60, 60)" stroke-width="1px" opacity="0.25"></line><line x1="1084.5" y1="0" x2="1084.5" y2="378" fill="rgb(0, 0, 0)" stroke="rgb(60, 60, 60)" stroke-width="1px" opacity="0.25"></line><line x1="1205" y1="0" x2="1205" y2="378" fill="rgb(0, 0, 0)" stroke="rgb(60, 60, 60)" stroke-width="1px" opacity="0.25"></line><line x1="1325.5" y1="0" x2="1325.5" y2="378" fill="rgb(0, 0, 0)" stroke="rgb(60, 60, 60)" stroke-width="1px" opacity="0.25"></line><line x1="1446" y1="0" x2="1446" y2="378" fill="rgb(0, 0, 0)" stroke="rgb(60, 60, 60)" stroke-width="1px" opacity="0.25"></line></g><g><line x1="0" y1="378" x2="1446" y2="378" fill="rgb(0, 0, 0)" stroke="rgb(60, 60, 60)" stroke-width="1px" opacity="0.25"></line><line x1="0" y1="330.75" x2="1446" y2="330.75" fill="rgb(0, 0, 0)" stroke="rgb(60, 60, 60)" stroke-width="1px" opacity="0.25"></line><line x1="0" y1="283.5" x2="1446" y2="283.5" fill="rgb(0, 0, 0)" stroke="rgb(60, 60, 60)" stroke-width="1px" opacity="0.25"></line><line x1="0" y1="236.24999999999997" x2="1446" y2="236.24999999999997" fill="rgb(0, 0, 0)" stroke="rgb(60, 60, 60)" stroke-width="1px" opacity="0.25"></line><line x1="0" y1="188.99999999999997" x2="1446" y2="188.99999999999997" fill="rgb(0, 0, 0)" stroke="rgb(60, 60, 60)" stroke-width="1px" opacity="0.25"></line><line x1="0" y1="141.75" x2="1446" y2="141.75" fill="rgb(0, 0, 0)" stroke="rgb(60, 60, 60)" stroke-width="1px" opacity="0.25"></line><line x1="0" y1="94.5" x2="1446" y2="94.5" fill="rgb(0, 0, 0)" stroke="rgb(60, 60, 60)" stroke-width="1px" opacity="0.25"></line><line x1="0" y1="47.25" x2="1446" y2="47.25" fill="rgb(0, 0, 0)" stroke="rgb(60, 60, 60)" stroke-width="1px" opacity="0.25"></line><line x1="0" y1="0" x2="1446" y2="0" fill="rgb(0, 0, 0)" stroke="rgb(60, 60, 60)" stroke-width="1px" opacity="0.25"></line></g></g></g><g><g><line x1="0" y1="330.75" x2="1446" y2="330.75" fill="rgb(0, 0, 0)" stroke="rgb(153, 153, 153)" stroke-width="1.5px"></line></g></g><g><g><line x1="120.5" y1="0" x2="120.5" y2="378" fill="rgb(0, 0, 0)" stroke="rgb(153, 153, 153)" stroke-width="1.5px"></line></g></g><g><g><g><g><g><path stroke="rgb(255, 112, 67)" stroke-width="2px" d="M142.19,-61.85473430156708L144.6,5.649514317512512L147.01,-63.10196954011917L151.82999999999998,-44.88533931970596L154.24,76.26281064748764L156.65,36.970704317092896L159.06,-40.98614501953125L161.47,52.07282316684723L163.88,73.91428184509277L166.29000000000002,-43.30791878700256L168.7,30.06931346654892L171.10999999999999,103.9119143486023L173.51999999999998,83.29240036010742L175.93,5.771967887878418L178.34,148.31473928689957L180.75,137.3322198987007L183.16000000000003,106.49414134025574L185.57,-95.48834788799292L187.98000000000002,184.3573198914528L190.39,126.8139426112175L192.8,141.5123702287674L195.21,62.97068399190903L197.61999999999998,164.0206207036972L200.03,170.80620449781418L202.44000000000003,52.93653202056885L204.85,117.20865976810455L207.26000000000002,122.91429769992828L209.67,156.14664208889008L212.08,71.72949385643005L214.49,105.58824402093887L216.9,82.19516229629517L219.31,124.81908720731735L221.71999999999997,110.25770169496536L224.13,111.36338871717453L226.54000000000002,153.07482612133026L228.95,-35.509699165821075L231.36,42.2744534611702L233.76999999999998,96.93667960166931L236.18,109.95055389404297L238.59,98.49449855089188L241,133.71640366315842L243.41,161.29110020399094L245.82000000000002,87.47091722488403L248.23,189.28266835212708L250.64000000000001,114.02959835529327L253.04999999999998,192.45406937599182L255.46,131.0423646569252L257.87,208.2087857723236L260.28,209.1076986193657L262.69,198.40219241380692L265.09999999999997,106.1452556848526L267.51,141.84114736318588L269.92,203.79189562797546L272.33,153.5094405412674L274.74,221.48153614997864L277.15000000000003,207.83815813064575L279.56,143.37474596500397L281.97,216.0967896580696L284.38,136.44271355867386L286.79,221.34466302394867L289.2,215.98447483778L291.61,187.71831554174423L294.02,235.02189320325851L296.43,194.45292395353317L298.84,182.7330358028412L301.25,170.45771312713623L303.65999999999997,236.38949793577194L306.07,206.48671907186508L308.48,195.31071853637695L310.89,231.87645864486694L313.3,243.44708186388016L315.71,220.7741893529892L318.12,205.0777144432068L320.53000000000003,215.16960096359253L322.94,184.48405426740646L325.35,212.62702775001526L327.76,203.9127720594406L330.17,227.7716166973114L332.58000000000004,228.98285937309265L334.99,178.95398569107056L337.4,199.54347771406174L339.81,234.62259542942047L342.21999999999997,165.0844008922577L344.63,195.40827584266663L347.03999999999996,213.39920622110367L349.45,237.1513123512268L351.86,197.97991347312927L354.27,210.8761219382286L356.68,182.444475710392L359.09,199.72648215293884L361.5,162.6858542561531L363.90999999999997,241.00426268577576L366.32000000000005,231.42534059286118L368.73,226.28978204727173L371.14,216.63228464126587L373.55,242.05142658948898L375.96000000000004,232.63095062971115L378.37,227.5126279592514L380.78,217.61191320419312L383.19,230.54079097509384L385.6,228.9614553451538L388.01,245.68735134601593L390.42,240.37318181991577L392.83,172.12407302856445L395.23999999999995,217.4805600643158L397.65000000000003,236.51009273529053L400.06,211.759601354599L402.46999999999997,209.96853482723236L404.88000000000005,179.00394719839096L407.29,225.58491361141205L409.7,221.2232796549797L412.10999999999996,207.55483639240265L414.52000000000004,241.92305874824524L416.93,255.68815809488297L419.34,250.3457127213478L421.75,219.59184211492538L424.16,221.24130409955978L426.57,215.7657594680786L428.98,259.07545816898346L431.39,249.74752646684647L433.8,166.8979416489601L436.21000000000004,236.4056072831154L438.62,206.80332970619202L441.03,184.12542414665222L443.43999999999994,238.52133911848068L445.85,241.38570499420166L448.26,239.04658269882202L450.66999999999996,239.23155856132507L453.08000000000004,204.78622537851334L455.49,160.45133006572723L457.9,241.05230909585953L460.31000000000006,213.37695729732513L462.72,238.7530658841133L465.13,204.3794361948967L467.53999999999996,188.31407976150513L469.95,256.73611056804657L472.36,189.93537855148315L474.77,236.90713745355606L477.18,224.85312116146088L479.59,223.97448581457138L482,257.93772143125534L484.41,250.11747819185257L486.82,248.59153997898102L489.22999999999996,213.7356437444687L491.64000000000004,222.52599638700485L494.05,262.0047120451927L496.46,234.91673183441162L498.86999999999995,215.3444380760193L501.28000000000003,233.85790836811066L503.69,201.32750344276428L506.09999999999997,253.37776225805283L508.51000000000005,241.25485879182816L510.92,223.47718012332916L513.3299999999999,240.27404737472534L515.74,233.87942504882812L518.15,249.8143858909607L520.56,225.72268795967102L522.97,174.19834864139557L525.38,252.75687646865845L527.79,251.40583169460297L530.1999999999999,247.81727743148804L532.61,221.69585806131363L535.02,264.0170849561691L537.43,237.9972220659256L539.84,238.81806653738022L542.25,242.93175172805786L544.66,253.4983007311821L547.07,248.86691969633102L549.48,237.86299628019333L551.89,228.03443562984467L554.3000000000001,182.88551133871078L556.71,255.19569647312164L559.12,254.80625581741333L561.53,257.6179001927376L563.94,259.8362023830414L566.35,220.92593264579773L568.76,243.78858876228333L571.1700000000001,229.05062001943588L573.58,252.655038356781L575.99,243.83432579040527L578.4,230.81346702575684L580.8100000000001,258.2495443224907L583.22,244.29710340499878L585.63,186.6613508462906L588.04,225.20048600435257L590.45,263.10538601875305L592.86,243.2457150220871L595.27,252.41514426469803L597.68,248.98982387781143L600.0899999999999,245.52749705314636L602.5,251.3520963191986L604.91,163.655513048172L607.3199999999999,238.71515822410583L609.73,247.78336894512177L612.14,211.94446456432343L614.55,243.814104616642L616.96,255.02604138851166L619.37,275.4752243757248L621.78,219.59967148303986L624.1899999999999,225.9705240726471L626.6,247.18304228782654L629.01,225.23101490736008L631.42,246.01460766792297L633.83,196.32988822460175L636.24,275.6437529325485L638.65,196.78061199188232L641.0600000000001,255.42173427343369L643.47,253.49942725896835L645.88,269.8510907292366L648.29,234.68523037433624L650.7,245.76158952713013L653.11,248.37293726205826L655.52,199.21199691295624L657.9300000000001,199.96265870332718L660.34,237.72741866111755L662.75,250.22793424129486L665.1600000000001,217.85749626159668L667.57,247.45183181762695L669.98,267.7884746789932L672.39,231.46189641952515L674.8,229.78427124023438L677.21,256.4126844406128L679.62,248.66375041007996L682.03,240.02643656730652L684.4399999999999,260.94932448863983L686.85,246.13723021745682L689.26,228.85375928878784L691.67,238.36294931173325L694.0799999999999,236.88624036312103L696.49,253.90283685922623L698.9,231.7215610742569L701.31,253.64576321840286L703.72,248.13079011440277L706.13,232.62909185886383L708.54,224.60596096515656L710.9499999999999,254.27644979953766L713.36,262.8748984336853L715.77,267.36259084939957L718.18,239.14644938707352L720.59,158.37615323066711L723,259.4547600746155L725.4100000000001,227.7729122042656L727.8199999999999,235.53249192237854L730.23,267.91143518686295L732.6400000000001,268.68051570653915L735.05,238.48393839597702L737.46,253.67888313531876L739.8700000000001,267.7831799983978L742.28,247.32368928194046L744.69,257.2445125579834L747.1,253.111958026886L749.51,239.45190739631653L751.9200000000001,251.23296600580215L754.3299999999999,246.8429998755455L756.74,259.80105471611023L759.15,273.43834948539734L761.56,246.3860238790512L763.97,277.2666288614273L766.38,232.2069255709648L768.79,267.0465998053551L771.2,244.86712646484375L773.61,268.09804451465607L776.02,238.1669898033142L778.43,267.5227267742157L780.84,233.94363713264465L783.25,254.46632605791092L785.66,259.10897237062454L788.07,241.15048599243164L790.4799999999999,262.76945543289185L792.89,241.59123998880386L795.3000000000001,244.5946193933487L797.7099999999999,268.4022070169449L800.12,252.4583466053009L802.5300000000001,247.37612915039062L804.9399999999999,234.37628012895584L807.35,248.97844594717026L809.7600000000001,271.36463713645935L812.17,247.81541866064072L814.58,272.2152782678604L816.9899999999999,271.6304413676262L819.4,220.255817592144L821.8100000000001,226.30042773485184L824.2199999999999,259.56341367959976L826.63,270.01669031381607L829.0400000000001,250.75261455774307L831.4499999999999,262.92322647571564L833.86,224.09141939878464L836.2700000000001,255.05702090263367L838.68,268.53513729572296L841.09,252.4529955983162L843.5,212.86951285600662L845.91,241.19746220111847L848.32,261.8920029401779L850.73,272.6876313686371L853.14,228.55675023794174L855.55,231.06017661094666L857.96,281.41788375377655L860.37,226.51097577810287L862.78,248.99173897504807L865.19,252.1065319776535L867.6,259.1228849887848L870.01,262.6681242585182L872.4200000000001,254.58652657270432L874.8299999999999,245.42284262180328L877.24,237.48330008983612L879.65,265.27023446559906L882.06,252.0141566991806L884.47,271.04464691877365L886.8799999999999,260.91535967588425L889.29,259.59833604097366L891.7,250.5007792711258L894.1099999999999,244.43870794773102L896.52,263.91423296928406L898.9300000000001,264.8218764066696L901.3399999999999,272.2589875459671L903.75,266.50468361377716L906.1600000000001,254.53284752368927L908.5699999999999,245.98137509822845L910.98,254.97393947839737L913.3900000000001,244.4518319964409L915.8,249.90935218334198L918.21,252.42809933423996L920.6200000000001,245.96588534116745L923.03,252.74403405189514L925.44,254.5886669754982L927.85,237.98381638526917L930.26,259.8085461258888L932.6700000000001,241.92362201213837L935.0799999999999,240.35910022258759L937.49,264.9852229356766L939.9,259.85732477903366L942.31,270.01838010549545L944.72,229.8246009349823L947.13,260.3980017900467L949.54,272.7698115706444L951.95,229.23210364580154L954.36,243.0852411389351L956.77,269.22772657871246L959.18,254.54383116960526L961.59,274.033888399601L964,254.3932707309723L966.41,244.79609888792038L968.82,254.76513755321503L971.2299999999999,257.2003526687622L973.64,244.07759946584702L976.0500000000001,257.3947913646698L978.4599999999999,252.83832442760468L980.87,251.60725486278534L983.2800000000001,261.3509316444397L985.6899999999999,254.56461560726166L988.1,253.18292927742004L990.5100000000001,254.2063797712326L992.92,260.5992559790611L995.33,250.4818536043167L997.7399999999999,230.57182681560516L1000.15,250.24635297060013L1002.5600000000001,275.24338495731354L1004.9699999999999,268.69369608163834L1007.38,260.0608320236206L1009.7900000000001,245.28073114156723L1012.1999999999999,263.05322778224945L1014.61,256.1209137439728L1017.0200000000001,275.05745154619217L1019.43,276.3565633893013L1021.84,254.1648108959198L1024.25,251.86996114253998L1026.6599999999999,265.28133076429367L1029.07,235.62283945083618L1031.48,246.38050389289856L1033.8899999999999,246.70933735370636L1036.3,269.228008210659L1038.71,264.0961108803749L1041.12,237.5636215209961L1043.53,254.83853083848953L1045.94,247.1815214753151L1048.35,277.88120609521866L1050.76,252.3182065486908L1053.17,263.0229241847992L1055.58,239.4677351117134L1057.99,259.2404944896698L1060.3999999999999,266.9259486794472L1062.81,252.92140585184097L1065.22,271.8120939731598L1067.6299999999999,254.68222510814667L1070.04,224.5972867012024L1072.45,261.6598818898201L1074.86,242.53583353757858L1077.27,263.97467118501663L1079.68,247.81040561199188L1082.09,248.21685683727264L1084.5,277.34672498703003L1086.91,251.27684426307678L1089.32,261.938303232193L1091.73,257.3250029683113L1094.14,243.63966178894043L1096.55,264.54311710596085L1098.96,273.78571432828903L1101.3700000000001,212.06697446107864L1103.78,276.16843324899673L1106.19,245.96751880645752L1108.6000000000001,238.36751174926758L1111.01,261.95396196842194L1113.42,243.97559237480164L1115.83,257.8063119649887L1118.24,280.03980231285095L1120.65,262.7979565858841L1123.06,230.99123311042786L1125.47,247.6712231040001L1127.88,263.8711996078491L1130.29,258.48487597703934L1132.7,285.87127339839935L1135.1100000000001,280.9846211671829L1137.52,271.7144240140915L1139.93,257.4448091983795L1142.3400000000001,240.2270148396492L1144.75,243.01269274950027L1147.16,273.3394966721535L1149.5700000000002,271.08137172460556L1151.98,266.6361494064331L1154.39,258.6872003674507L1156.8,243.86778366565704L1159.21,256.4198942184448L1161.6200000000001,232.4190507531166L1164.03,274.33743131160736L1166.44,271.40316438674927L1168.85,273.24481201171875L1171.26,277.14845609664917L1173.67,247.22162586450577L1176.08,265.48804861307144L1178.49,248.2440061569214L1180.9,269.1823838353157L1183.31,256.38328206539154L1185.72,251.85666811466217L1188.1299999999999,247.9201294183731L1190.54,266.6691566705704L1192.95,262.7140302658081L1195.36,243.67424619197845L1197.77,273.58975481987L1200.1799999999998,228.73400938510895L1202.59,274.2448870539665L1205,236.69551920890808L1207.4099999999999,265.62858295440674L1209.82,249.45609372854233L1212.23,232.914948284626L1214.6399999999999,259.07540184259415L1217.05,249.6910874247551L1219.46,272.9038120508194L1221.87,271.6176552772522L1224.28,268.24387353658676L1226.69,268.804940700531L1229.1,261.9508076906204L1231.51,237.7095068693161L1233.92,283.35280787944794L1236.33,258.79776906967163L1238.74,255.7669587135315L1241.1499999999999,240.46268445253372L1243.56,270.69148045778275L1245.97,228.3275581598282L1248.3799999999999,252.52486807107925L1250.79,264.2339415550232L1253.2,237.34586369991302L1255.61,258.91639244556427L1258.02,274.2134006023407L1260.43,259.9221001267433L1262.84,266.4927987456322L1265.25,251.58348512649536L1267.66,275.30889254808426L1270.07,252.45507967472076L1272.48,248.1605304479599L1274.89,256.6221622824669L1277.3,254.1458289027214L1279.71,259.18985706567764L1282.1200000000001,237.5455407500267L1284.53,255.75980526208878L1286.94,263.5634322166443L1289.3500000000001,269.50485241413116L1291.76,263.12791657447815L1294.17,250.48540216684341L1296.58,262.91629832983017L1298.99,266.1816517710686L1301.4,279.8945928812027L1303.81,222.8753326535225L1306.22,274.75283843278885L1308.63,249.63470470905304L1311.04,245.72114717960358L1313.45,259.9219311475754L1315.8600000000001,249.55517184734344L1318.27,270.4662312269211L1320.68,253.6141641139984L1323.0900000000001,252.47715961933136" style="fill: none;" fill="none"></path></g></g></g></g></g><g><g><span fill="rgb(0, 0, 0)" stroke="none" stroke-width="1px">Alt + Scroll to Zoom</span></g></g></g><g transform="translate(50, 378)" clip-path="url(#clip_1)"><clipPath id="clip_1"><rect width="1446" height="22"></rect></clipPath><g><g><line x1="0" y1="0" x2="0" y2="5" style="visibility: inherit;" fill="rgb(0, 0, 0)" stroke="rgb(204, 204, 204)" stroke-width="1px"></line><line x1="120.5" y1="0" x2="120.5" y2="5" style="visibility: inherit;" fill="rgb(0, 0, 0)" stroke="rgb(204, 204, 204)" stroke-width="1px"></line><line x1="241" y1="0" x2="241" y2="5" style="visibility: inherit;" fill="rgb(0, 0, 0)" stroke="rgb(204, 204, 204)" stroke-width="1px"></line><line x1="361.5" y1="0" x2="361.5" y2="5" style="visibility: inherit;" fill="rgb(0, 0, 0)" stroke="rgb(204, 204, 204)" stroke-width="1px"></line><line x1="482" y1="0" x2="482" y2="5" style="visibility: inherit;" fill="rgb(0, 0, 0)" stroke="rgb(204, 204, 204)" stroke-width="1px"></line><line x1="602.5" y1="0" x2="602.5" y2="5" style="visibility: inherit;" fill="rgb(0, 0, 0)" stroke="rgb(204, 204, 204)" stroke-width="1px"></line><line x1="723" y1="0" x2="723" y2="5" style="visibility: inherit;" fill="rgb(0, 0, 0)" stroke="rgb(204, 204, 204)" stroke-width="1px"></line><line x1="843.5" y1="0" x2="843.5" y2="5" style="visibility: inherit;" fill="rgb(0, 0, 0)" stroke="rgb(204, 204, 204)" stroke-width="1px"></line><line x1="964" y1="0" x2="964" y2="5" style="visibility: inherit;" fill="rgb(0, 0, 0)" stroke="rgb(204, 204, 204)" stroke-width="1px"></line><line x1="1084.5" y1="0" x2="1084.5" y2="5" style="visibility: inherit;" fill="rgb(0, 0, 0)" stroke="rgb(204, 204, 204)" stroke-width="1px"></line><line x1="1205" y1="0" x2="1205" y2="5" style="visibility: inherit;" fill="rgb(0, 0, 0)" stroke="rgb(204, 204, 204)" stroke-width="1px"></line><line x1="1325.5" y1="0" x2="1325.5" y2="5" style="visibility: inherit;" fill="rgb(0, 0, 0)" stroke="rgb(204, 204, 204)" stroke-width="1px"></line><line x1="1446" y1="0" x2="1446" y2="5" style="visibility: inherit;" fill="rgb(0, 0, 0)" stroke="rgb(204, 204, 204)" stroke-width="1px"></line></g><g transform="translate(0, 8)"><text x="0" y="0" dx="0em" dy="0.95em" style="text-anchor: middle; visibility: hidden; font-family: &quot;Helvetica Neue&quot;, sans-serif; font-size: 12px; font-weight: 200;" fill="rgb(50, 49, 63)" stroke="none" stroke-width="1px">-50</text><text x="120.5" y="0" dx="0em" dy="0.95em" style="text-anchor: middle; visibility: inherit; font-family: &quot;Helvetica Neue&quot;, sans-serif; font-size: 12px; font-weight: 200;" fill="rgb(50, 49, 63)" stroke="none" stroke-width="1px">0</text><text x="241" y="0" dx="0em" dy="0.95em" style="text-anchor: middle; visibility: inherit; font-family: &quot;Helvetica Neue&quot;, sans-serif; font-size: 12px; font-weight: 200;" fill="rgb(50, 49, 63)" stroke="none" stroke-width="1px">50</text><text x="361.5" y="0" dx="0em" dy="0.95em" style="text-anchor: middle; visibility: inherit; font-family: &quot;Helvetica Neue&quot;, sans-serif; font-size: 12px; font-weight: 200;" fill="rgb(50, 49, 63)" stroke="none" stroke-width="1px">100</text><text x="482" y="0" dx="0em" dy="0.95em" style="text-anchor: middle; visibility: inherit; font-family: &quot;Helvetica Neue&quot;, sans-serif; font-size: 12px; font-weight: 200;" fill="rgb(50, 49, 63)" stroke="none" stroke-width="1px">150</text><text x="602.5" y="0" dx="0em" dy="0.95em" style="text-anchor: middle; visibility: inherit; font-family: &quot;Helvetica Neue&quot;, sans-serif; font-size: 12px; font-weight: 200;" fill="rgb(50, 49, 63)" stroke="none" stroke-width="1px">200</text><text x="723" y="0" dx="0em" dy="0.95em" style="text-anchor: middle; visibility: inherit; font-family: &quot;Helvetica Neue&quot;, sans-serif; font-size: 12px; font-weight: 200;" fill="rgb(50, 49, 63)" stroke="none" stroke-width="1px">250</text><text x="843.5" y="0" dx="0em" dy="0.95em" style="text-anchor: middle; visibility: inherit; font-family: &quot;Helvetica Neue&quot;, sans-serif; font-size: 12px; font-weight: 200;" fill="rgb(50, 49, 63)" stroke="none" stroke-width="1px">300</text><text x="964" y="0" dx="0em" dy="0.95em" style="text-anchor: middle; visibility: inherit; font-family: &quot;Helvetica Neue&quot;, sans-serif; font-size: 12px; font-weight: 200;" fill="rgb(50, 49, 63)" stroke="none" stroke-width="1px">350</text><text x="1084.5" y="0" dx="0em" dy="0.95em" style="text-anchor: middle; visibility: inherit; font-family: &quot;Helvetica Neue&quot;, sans-serif; font-size: 12px; font-weight: 200;" fill="rgb(50, 49, 63)" stroke="none" stroke-width="1px">400</text><text x="1205" y="0" dx="0em" dy="0.95em" style="text-anchor: middle; visibility: inherit; font-family: &quot;Helvetica Neue&quot;, sans-serif; font-size: 12px; font-weight: 200;" fill="rgb(50, 49, 63)" stroke="none" stroke-width="1px">450</text><text x="1325.5" y="0" dx="0em" dy="0.95em" style="text-anchor: middle; visibility: inherit; font-family: &quot;Helvetica Neue&quot;, sans-serif; font-size: 12px; font-weight: 200;" fill="rgb(50, 49, 63)" stroke="none" stroke-width="1px">500</text><text x="1446" y="0" dx="0em" dy="0.95em" style="text-anchor: middle; visibility: hidden; font-family: &quot;Helvetica Neue&quot;, sans-serif; font-size: 12px; font-weight: 200;" fill="rgb(50, 49, 63)" stroke="none" stroke-width="1px">550</text></g><line x1="0" y1="0" x2="1446" y2="0" fill="rgb(0, 0, 0)" stroke="rgb(204, 204, 204)" stroke-width="1px"></line></g></g></g></g></svg>