<?xml version="1.0" encoding="utf-8" standalone="no"?>
<!DOCTYPE svg PUBLIC "-//W3C//DTD SVG 1.1//EN"
  "http://www.w3.org/Graphics/SVG/1.1/DTD/svg11.dtd">
<!-- Created with matplotlib (https://matplotlib.org/) -->
<svg height="288pt" version="1.1" viewBox="0 0 720 288" width="720pt" xmlns="http://www.w3.org/2000/svg" xmlns:xlink="http://www.w3.org/1999/xlink">
 <metadata>
  <rdf:RDF xmlns:cc="http://creativecommons.org/ns#" xmlns:dc="http://purl.org/dc/elements/1.1/" xmlns:rdf="http://www.w3.org/1999/02/22-rdf-syntax-ns#">
   <cc:Work>
    <dc:type rdf:resource="http://purl.org/dc/dcmitype/StillImage"/>
    <dc:date>2020-11-06T20:29:36.022872</dc:date>
    <dc:format>image/svg+xml</dc:format>
    <dc:creator>
     <cc:Agent>
      <dc:title>Matplotlib v3.3.2, https://matplotlib.org/</dc:title>
     </cc:Agent>
    </dc:creator>
   </cc:Work>
  </rdf:RDF>
 </metadata>
 <defs>
  <style type="text/css">*{stroke-linecap:butt;stroke-linejoin:round;}</style>
 </defs>
 <g id="figure_1">
  <g id="patch_1">
   <path d="M 0 288 
L 720 288 
L 720 0 
L 0 0 
z
" style="fill:#ffffff;"/>
  </g>
  <g id="axes_1">
   <g id="line2d_1">
    <path clip-path="url(#p3643383e73)" d="M 148.124102 222.386342 
L 144.738724 222.196127 
L 136.814206 221.466664 
L 111.40534 219.009187 
L 102.296402 218.422497 
L 90.552091 217.911964 
L 78.011949 217.5745 
L 74.034667 217.648891 
L 71.319429 217.936646 
L 66.272449 218.735833 
L 60.461478 219.857783 
L 55.556669 221.037095 
L 52.556265 221.939111 
L 50.213977 222.832202 
L 48.582205 223.690965 
L 47.752975 224.394637 
L 47.477441 224.958149 
L 47.522335 225.328963 
L 47.883848 225.786158 
L 48.694705 226.245264 
L 50.082636 226.678804 
L 52.000283 227.027495 
L 54.928502 227.304475 
L 58.849994 227.3939 
L 62.106615 227.273754 
L 66.291995 226.853367 
L 70.658027 226.151996 
L 77.466358 225.086428 
L 82.358448 224.565122 
L 87.766584 224.230813 
L 93.377906 224.113773 
L 101.450668 224.232548 
L 112.207494 224.41619 
L 119.017973 224.285731 
L 138.722023 223.652702 
L 142.40679 223.954243 
L 144.876538 224.438956 
L 146.33472 224.909781 
L 147.843846 225.648691 
L 147.843846 225.648691 
" style="fill:none;stroke:#000000;stroke-linecap:square;stroke-opacity:0.7;stroke-width:1.2;"/>
   </g>
   <g id="line2d_2">
    <path clip-path="url(#p3643383e73)" d="M 147.838057 184.193782 
L 145.18534 183.583313 
L 140.685634 182.808306 
L 134.033854 181.90732 
L 121.571557 180.495314 
L 96.145131 177.772838 
L 87.485999 177.127363 
L 78.427184 176.678394 
L 71.550627 176.591476 
L 68.120386 176.733159 
L 65.072797 177.062292 
L 61.224156 177.820415 
L 57.366143 178.891424 
L 54.198766 179.966645 
L 51.462747 181.072196 
L 48.861803 182.369105 
L 48.244921 182.734929 
L 46.311551 184.189294 
L 45.493115 185.182485 
L 45.167449 185.94539 
L 45.16163 186.84246 
L 45.451074 187.497442 
L 46.28046 188.355916 
L 47.112765 188.890767 
L 47.768518 189.217614 
L 50.196159 190.074377 
L 54.016049 190.87614 
L 57.898018 191.339365 
L 61.980819 191.582779 
L 66.989806 191.629308 
L 72.404188 191.464544 
L 87.845877 190.902154 
L 95.90214 190.500104 
L 102.49571 189.955091 
L 111.510626 188.957249 
L 131.138614 186.668797 
L 139.301875 185.981302 
L 147.243693 185.326514 
L 147.816895 185.197781 
L 147.816895 185.197781 
" style="fill:none;stroke:#000000;stroke-linecap:square;stroke-opacity:0.7;stroke-width:1.2;"/>
   </g>
   <g id="line2d_3">
    <path clip-path="url(#p3643383e73)" d="M 147.712419 143.72036 
L 146.024292 143.181912 
L 143.639516 142.696184 
L 139.501365 142.233506 
L 133.664538 141.90515 
L 117.583854 141.38754 
L 100.130213 140.651466 
L 90.355587 140.057562 
L 82.979276 139.421574 
L 73.460353 138.544429 
L 70.084233 138.649922 
L 66.260182 139.070654 
L 62.540604 139.651184 
L 58.756736 140.381738 
L 54.004932 141.531508 
L 50.774302 142.532133 
L 48.607306 143.380347 
L 46.867263 144.274075 
L 46.058743 144.839408 
L 45.332887 145.629317 
L 45.137706 146.444395 
L 45.315544 146.897417 
L 45.911719 147.476662 
L 46.696231 147.907937 
L 48.459799 148.500326 
L 50.93227 148.986166 
L 54.601296 149.369269 
L 59.07796 149.527972 
L 63.238357 149.463274 
L 68.472834 149.139734 
L 75.844121 148.357934 
L 85.222253 147.352374 
L 92.193443 146.815086 
L 101.27175 146.368638 
L 114.314463 145.993302 
L 127.105241 145.815619 
L 140.326345 145.857559 
L 147.615622 145.924038 
L 147.615622 145.924038 
" style="fill:none;stroke:#000000;stroke-linecap:square;stroke-opacity:0.7;stroke-width:1.2;"/>
   </g>
   <g id="line2d_4">
    <path clip-path="url(#p3643383e73)" d="M 148.511057 104.87884 
L 145.543629 103.68657 
L 144.33678 103.290055 
L 141.34372 102.519656 
L 137.886155 101.899935 
L 133.318104 101.346353 
L 126.665062 100.821795 
L 110.210597 99.709993 
L 101.890948 98.852738 
L 90.9872 97.469518 
L 75.387543 95.429574 
L 73.216305 95.333163 
L 71.26541 95.53961 
L 69.306747 96.142874 
L 58.936295 100.095472 
L 54.077356 102.150349 
L 51.648393 103.323451 
L 49.291149 104.655122 
L 47.599634 105.893862 
L 47.112083 106.378454 
L 46.578965 107.246289 
L 46.528131 107.566491 
L 46.700227 108.104369 
L 46.811834 108.240954 
L 47.75775 108.810988 
L 48.950431 109.139399 
L 49.65729 109.260149 
L 53.285444 109.519106 
L 56.775376 109.512899 
L 68.400904 109.123166 
L 80.330835 108.674758 
L 86.721756 108.223147 
L 93.786403 107.481527 
L 103.255868 106.185388 
L 111.136243 105.169678 
L 116.364986 104.752721 
L 120.592964 104.635232 
L 125.035 104.730212 
L 130.089604 105.076587 
L 135.84031 105.690764 
L 146.630894 106.920495 
L 148.179342 107.026584 
L 148.179342 107.026584 
" style="fill:none;stroke:#000000;stroke-linecap:square;stroke-opacity:0.7;stroke-width:1.2;"/>
   </g>
   <g id="line2d_5">
    <path clip-path="url(#p3643383e73)" d="M 147.641857 64.538148 
L 143.708866 64.252857 
L 135.988466 63.555875 
L 118.413745 61.821553 
L 110.445497 61.322952 
L 101.194337 61.018437 
L 84.305625 60.7651 
L 72.503641 60.702598 
L 68.660467 60.891735 
L 64.42737 61.383172 
L 60.224249 62.09615 
L 55.455446 63.10969 
L 50.596675 64.401154 
L 47.957685 65.290012 
L 45.925296 66.192114 
L 45.173949 66.660707 
L 44.57213 67.305945 
L 44.534912 67.738525 
L 44.775683 68.064967 
L 45.283554 68.365232 
L 46.045103 68.623638 
L 48.20983 69.00151 
L 50.829093 69.195126 
L 55.022087 69.241239 
L 59.359069 69.083953 
L 64.775308 68.656754 
L 74.910337 67.639016 
L 82.230653 67.403441 
L 93.031767 67.029143 
L 103.036893 66.452952 
L 117.956147 65.586653 
L 130.284303 65.15294 
L 142.306521 64.856561 
L 144.983407 65.029418 
L 146.62317 65.375953 
L 147.452671 65.72096 
L 147.452671 65.72096 
" style="fill:none;stroke:#000000;stroke-linecap:square;stroke-opacity:0.7;stroke-width:1.2;"/>
   </g>
   <g id="line2d_6">
    <path clip-path="url(#p3643383e73)" d="M 279.633482 222.06822 
L 278.657859 222.395832 
L 276.859749 222.675479 
L 275.306642 222.694993 
L 273.113922 222.538004 
L 267.905718 221.852217 
L 257.932874 220.515635 
L 247.522765 219.423527 
L 239.513908 218.527261 
L 229.128241 217.076695 
L 222.014069 216.15955 
L 217.560893 215.754286 
L 212.163447 215.51446 
L 208.062523 215.545115 
L 203.67573 215.793738 
L 198.992688 216.301348 
L 194.21017 217.063991 
L 188.912754 218.195691 
L 184.702198 219.346208 
L 180.740275 220.720835 
L 178.437415 221.734884 
L 176.877293 222.586343 
L 175.351602 223.689818 
L 174.519433 224.605401 
L 174.080539 225.670595 
L 174.09546 226.205869 
L 174.462091 227.021323 
L 175.236661 227.778734 
L 175.919177 228.219086 
L 176.717701 228.618574 
L 178.849591 229.377379 
L 180.636933 229.821031 
L 184.872733 230.48679 
L 191.041386 230.859098 
L 196.303398 230.831555 
L 230.081349 229.787747 
L 237.16161 229.352233 
L 245.477479 228.560809 
L 255.481399 227.339319 
L 274.086656 224.971353 
L 279.774901 224.472327 
L 279.774901 224.472327 
" style="fill:none;stroke:#000000;stroke-linecap:square;stroke-opacity:0.7;stroke-width:1.2;"/>
   </g>
   <g id="line2d_7">
    <path clip-path="url(#p3643383e73)" d="M 279.580139 182.988742 
L 277.528347 182.510677 
L 268.876474 180.967237 
L 253.484596 178.108387 
L 239.358411 175.543846 
L 232.195301 174.450423 
L 225.911393 173.68445 
L 219.363204 173.128375 
L 214.515306 172.919765 
L 210.76881 172.911901 
L 206.738366 173.090333 
L 202.713765 173.4951 
L 198.674668 174.142345 
L 194.270054 175.110431 
L 191.025987 175.990031 
L 187.123017 177.247261 
L 184.039587 178.425723 
L 180.984059 179.814999 
L 178.34966 181.286442 
L 177.075563 182.148731 
L 175.352214 183.62215 
L 174.470045 184.690891 
L 173.892514 185.843407 
L 173.743662 186.819245 
L 174.020029 187.915215 
L 174.42963 188.532488 
L 175.303564 189.323331 
L 176.377896 189.952201 
L 177.478066 190.413694 
L 179.084235 190.898719 
L 181.627362 191.388877 
L 183.717658 191.625269 
L 186.807818 191.788731 
L 192.00538 191.747508 
L 202.060179 191.291402 
L 219.9317 190.359444 
L 227.680847 189.712108 
L 234.406149 188.913426 
L 241.299805 187.875676 
L 253.28024 186.024204 
L 258.531558 185.423006 
L 262.934605 185.086241 
L 268.273785 184.91502 
L 273.037439 184.994909 
L 279.532893 185.218563 
L 279.532893 185.218563 
" style="fill:none;stroke:#000000;stroke-linecap:square;stroke-opacity:0.7;stroke-width:1.2;"/>
   </g>
   <g id="line2d_8">
    <path clip-path="url(#p3643383e73)" d="M 279.737074 143.351071 
L 278.378445 143.529422 
L 276.769313 143.518355 
L 274.117036 143.181889 
L 270.527233 142.431555 
L 259.104044 139.597412 
L 237.381646 134.424065 
L 232.31324 133.487401 
L 228.219293 132.974711 
L 223.897347 132.662695 
L 219.337343 132.550802 
L 213.983821 132.654186 
L 207.944282 133.031225 
L 202.494933 133.600398 
L 198.467994 134.179623 
L 193.212822 135.203571 
L 190.251272 135.963631 
L 188.159674 136.607223 
L 185.232899 137.699828 
L 181.695394 139.435899 
L 181.402901 139.606983 
L 178.693827 141.494754 
L 176.989929 143.138206 
L 175.643319 145.092461 
L 175.330047 145.799525 
L 175.044858 146.810646 
L 174.963878 147.942442 
L 175.45645 149.816933 
L 176.068763 150.769075 
L 176.798016 151.544741 
L 178.265535 152.622326 
L 179.343022 153.1957 
L 181.356014 153.985687 
L 184.006576 154.672648 
L 187.093633 155.1462 
L 189.824669 155.357223 
L 195.394005 155.360866 
L 201.218703 155.013465 
L 214.484669 153.952021 
L 223.531503 153.064423 
L 232.053236 151.981383 
L 242.112955 150.425686 
L 254.028806 148.613812 
L 260.882073 147.74709 
L 269.841799 146.854191 
L 275.097205 146.510992 
L 279.260242 146.452351 
L 280.020412 146.482353 
L 280.020412 146.482353 
" style="fill:none;stroke:#000000;stroke-linecap:square;stroke-opacity:0.7;stroke-width:1.2;"/>
   </g>
   <g id="line2d_9">
    <path clip-path="url(#p3643383e73)" d="M 279.680703 104.295055 
L 278.297504 103.841917 
L 276.053488 103.298719 
L 270.748066 102.264604 
L 261.807084 100.784012 
L 253.201697 99.576525 
L 245.449981 98.716537 
L 238.231599 98.146004 
L 227.750162 97.607528 
L 209.088981 96.913911 
L 203.914699 96.852271 
L 200.93038 96.961027 
L 198.404017 97.207889 
L 194.349807 97.889559 
L 188.93815 99.095707 
L 183.30563 100.587804 
L 180.447568 101.470846 
L 177.36989 102.600356 
L 175.19354 103.658238 
L 174.148155 104.44214 
L 173.853459 104.850298 
L 173.77485 105.155555 
L 173.884881 105.527118 
L 174.397331 105.958133 
L 175.380898 106.335622 
L 177.191222 106.683835 
L 180.546196 106.93425 
L 185.313252 106.914573 
L 189.839063 106.665113 
L 195.827349 106.090161 
L 208.762019 104.667542 
L 217.166152 104.112243 
L 228.21128 103.628913 
L 237.211995 103.403738 
L 244.120897 103.437661 
L 251.50677 103.750224 
L 259.82402 104.388686 
L 275.766406 105.931254 
L 278.833588 106.39023 
L 279.535166 106.5487 
L 279.535166 106.5487 
" style="fill:none;stroke:#000000;stroke-linecap:square;stroke-opacity:0.7;stroke-width:1.2;"/>
   </g>
   <g id="line2d_10">
    <path clip-path="url(#p3643383e73)" d="M 279.416975 65.050883 
L 276.832465 64.767301 
L 262.554677 63.56839 
L 249.895138 62.13993 
L 238.090985 60.847995 
L 230.349687 60.182581 
L 221.6041 59.648598 
L 213.277415 59.359831 
L 207.180981 59.348515 
L 203.152902 59.510498 
L 198.809923 59.903355 
L 194.677988 60.489371 
L 190.889525 61.182203 
L 185.706661 62.369968 
L 182.977297 63.144387 
L 179.832511 64.270347 
L 177.938135 65.224643 
L 177.01037 65.941296 
L 176.574751 66.579083 
L 176.517884 67.087604 
L 176.601573 67.355506 
L 177.238113 68.055925 
L 178.007904 68.503264 
L 179.764594 69.156629 
L 181.848179 69.675598 
L 184.779355 70.193504 
L 189.622387 70.769706 
L 194.683158 71.154329 
L 200.121986 71.347099 
L 204.954142 71.241905 
L 211.733478 70.812684 
L 240.366273 68.812204 
L 258.32155 67.667959 
L 276.776553 66.272827 
L 278.522432 66.415754 
L 279.197542 66.545192 
L 279.197542 66.545192 
" style="fill:none;stroke:#000000;stroke-linecap:square;stroke-opacity:0.7;stroke-width:1.2;"/>
   </g>
   <g id="line2d_11">
    <path clip-path="url(#p3643383e73)" d="M 410.963944 223.212334 
L 408.750609 223.227994 
L 405.751471 222.925506 
L 401.00111 222.118689 
L 382.5354 218.668439 
L 374.745531 217.528476 
L 365.191824 216.315453 
L 358.571846 215.682976 
L 354.182532 215.47468 
L 349.696706 215.512667 
L 344.96653 215.867831 
L 340.839578 216.433993 
L 335.7035 217.386615 
L 325.994303 219.502626 
L 320.222157 220.958698 
L 316.330957 222.171871 
L 313.804997 223.179613 
L 312.16751 224.040541 
L 310.990025 224.937959 
L 310.54498 225.500436 
L 310.379879 225.89012 
L 310.384231 226.511626 
L 310.818785 227.184094 
L 311.531723 227.70133 
L 312.816889 228.263708 
L 314.865283 228.809377 
L 316.095994 229.031164 
L 318.6541 229.335558 
L 322.608496 229.512846 
L 325.914345 229.443996 
L 331.10354 229.011853 
L 338.956222 228.242205 
L 346.485355 227.810779 
L 368.905224 226.762844 
L 379.105702 225.910024 
L 397.456518 224.333008 
L 402.649639 224.054261 
L 406.729379 224.03991 
L 409.226719 224.263427 
L 410.354856 224.50234 
L 411.135868 224.777649 
L 411.135868 224.777649 
" style="fill:none;stroke:#000000;stroke-linecap:square;stroke-opacity:0.7;stroke-width:1.2;"/>
   </g>
   <g id="line2d_12">
    <path clip-path="url(#p3643383e73)" d="M 411.05384 183.102445 
L 402.353 183.020406 
L 395.682119 182.654722 
L 384.298239 181.740225 
L 371.605501 180.776962 
L 355.305827 179.804709 
L 344.811184 179.350391 
L 340.281331 179.34784 
L 336.308554 179.576217 
L 332.267518 180.058342 
L 327.026382 180.942425 
L 322.113784 181.952068 
L 317.458865 183.088998 
L 314.081453 184.110545 
L 311.941725 184.985154 
L 311.140863 185.48056 
L 310.767509 185.932629 
L 310.764468 186.2108 
L 311.104029 186.560735 
L 311.881108 186.871744 
L 313.578135 187.20162 
L 317.001037 187.499094 
L 321.762362 187.66539 
L 331.974044 187.983694 
L 340.917826 188.410912 
L 347.068607 188.41042 
L 352.799285 188.204063 
L 360.790939 187.667891 
L 370.69227 186.741896 
L 387.100117 185.167932 
L 395.259842 184.616059 
L 402.155532 184.372983 
L 409.008001 184.384335 
L 410.852724 184.369797 
L 410.852724 184.369797 
" style="fill:none;stroke:#000000;stroke-linecap:square;stroke-opacity:0.7;stroke-width:1.2;"/>
   </g>
   <g id="line2d_13">
    <path clip-path="url(#p3643383e73)" d="M 411.011837 144.257643 
L 406.574806 143.822205 
L 400.813061 142.988445 
L 393.815563 141.718054 
L 372.057982 137.490386 
L 366.562829 136.74185 
L 360.356512 136.121617 
L 353.238902 135.652292 
L 346.379425 135.414746 
L 340.928579 135.432691 
L 336.612483 135.678022 
L 332.566981 136.171574 
L 328.966388 136.821629 
L 324.297862 137.912329 
L 320.244938 139.087296 
L 316.851785 140.282037 
L 314.192666 141.420886 
L 312.614945 142.231721 
L 311.013044 143.236976 
L 309.649286 144.408157 
L 308.914143 145.470456 
L 308.718708 146.238604 
L 308.742298 146.624007 
L 309.106873 147.434793 
L 309.762339 148.068498 
L 310.807672 148.670492 
L 312.416675 149.244919 
L 314.41278 149.677244 
L 317.05469 149.977274 
L 319.647272 150.062772 
L 322.557247 149.959348 
L 325.956665 149.604356 
L 337.350333 148.028509 
L 346.242921 147.285661 
L 366.29738 145.670783 
L 384.232349 144.236262 
L 397.548254 143.378799 
L 402.921166 143.20499 
L 406.306607 143.321132 
L 408.244773 143.591602 
L 409.857522 144.073944 
L 410.950506 144.710899 
L 410.950506 144.710899 
" style="fill:none;stroke:#000000;stroke-linecap:square;stroke-opacity:0.7;stroke-width:1.2;"/>
   </g>
   <g id="line2d_14">
    <path clip-path="url(#p3643383e73)" d="M 411.331 104.4837 
L 403.744872 103.671377 
L 392.18844 102.645014 
L 379.449342 101.46421 
L 361.179612 99.633728 
L 353.078366 99.103635 
L 344.33304 98.761061 
L 338.247417 98.715348 
L 335.201305 98.892353 
L 332.846586 99.233005 
L 328.46898 100.148035 
L 324.221 101.246055 
L 320.362735 102.44411 
L 316.989984 103.732722 
L 315.068713 104.651074 
L 313.824495 105.395844 
L 312.603277 106.463328 
L 312.286103 107.012902 
L 312.247335 107.59238 
L 312.469554 108.019061 
L 312.856963 108.363046 
L 313.806778 108.824684 
L 314.831292 109.118164 
L 316.044368 109.342603 
L 319.255498 109.614837 
L 322.584807 109.621198 
L 325.979086 109.437489 
L 330.337542 108.976691 
L 336.08026 108.31555 
L 343.713669 107.80697 
L 363.601385 106.545071 
L 374.833053 105.872098 
L 382.3552 105.650298 
L 389.127167 105.662194 
L 405.904098 105.839485 
L 409.367151 105.57692 
L 411.082738 105.290279 
L 411.082738 105.290279 
" style="fill:none;stroke:#000000;stroke-linecap:square;stroke-opacity:0.7;stroke-width:1.2;"/>
   </g>
   <g id="line2d_15">
    <path clip-path="url(#p3643383e73)" d="M 411.27635 64.288201 
L 408.779658 64.193981 
L 404.816419 63.781115 
L 394.802451 62.430884 
L 379.253808 60.347045 
L 373.195839 59.718458 
L 366.265895 59.228254 
L 359.310011 58.946551 
L 346.212654 58.674771 
L 338.484285 58.636248 
L 334.596725 58.842976 
L 331.421949 59.255118 
L 325.778533 60.283897 
L 320.035565 61.573233 
L 315.530425 62.807986 
L 311.967409 64.022819 
L 309.504526 65.105009 
L 307.793819 66.142478 
L 307.041631 66.826293 
L 306.764697 67.206528 
L 306.549768 67.921898 
L 306.765839 68.585256 
L 307.113719 68.969827 
L 307.839573 69.451428 
L 309.40299 70.06287 
L 310.841154 70.420605 
L 313.846148 70.870036 
L 317.546237 71.093751 
L 320.636878 71.069265 
L 323.16483 70.90476 
L 326.619967 70.426368 
L 329.50208 69.772547 
L 337.48534 67.652627 
L 340.316307 67.108856 
L 345.209373 66.478609 
L 348.616544 66.237623 
L 353.771024 66.115084 
L 360.904901 66.223642 
L 366.931442 66.262446 
L 373.060776 66.024676 
L 382.567243 65.289571 
L 389.548665 64.826732 
L 394.392099 64.699001 
L 398.904352 64.805278 
L 402.725695 65.116657 
L 406.899921 65.731785 
L 411.050619 66.62164 
L 411.050619 66.62164 
" style="fill:none;stroke:#000000;stroke-linecap:square;stroke-opacity:0.7;stroke-width:1.2;"/>
   </g>
   <g id="line2d_16">
    <path clip-path="url(#p3643383e73)" d="M 543.008059 222.441915 
L 538.579605 222.198819 
L 522.992463 221.030701 
L 509.396096 220.054684 
L 486.104927 218.626332 
L 469.740135 217.392473 
L 465.213493 217.366503 
L 462.272392 217.575314 
L 459.303958 217.991823 
L 454.959493 218.894092 
L 450.364642 220.113372 
L 445.891439 221.564293 
L 443.949301 222.316199 
L 441.397094 223.522154 
L 439.963892 224.444892 
L 439.287113 225.071421 
L 438.879637 225.726121 
L 438.809761 226.208836 
L 438.911426 226.575433 
L 439.277643 227.046532 
L 440.08756 227.574398 
L 440.912037 227.915719 
L 443.112941 228.487449 
L 445.744072 228.883982 
L 448.668041 229.141893 
L 451.200348 229.267889 
L 458.182467 229.315521 
L 464.112708 229.115873 
L 480.370102 228.410247 
L 492.288458 227.930841 
L 500.325337 227.370858 
L 511.769625 226.289674 
L 519.61879 225.629832 
L 528.019243 225.162751 
L 540.572396 224.551569 
L 543.025717 224.34587 
L 543.025717 224.34587 
" style="fill:none;stroke:#000000;stroke-linecap:square;stroke-opacity:0.7;stroke-width:1.2;"/>
   </g>
   <g id="line2d_17">
    <path clip-path="url(#p3643383e73)" d="M 542.922459 183.149563 
L 538.69585 183.088745 
L 533.644976 182.877863 
L 527.39276 182.332939 
L 519.956735 181.413884 
L 501.31718 178.892127 
L 493.847635 178.185425 
L 485.026237 177.603335 
L 474.585804 177.160618 
L 467.448373 177.037973 
L 462.165853 177.170633 
L 459.063293 177.410424 
L 454.840969 177.9785 
L 451.809889 178.574851 
L 447.921611 179.61936 
L 445.971335 180.302208 
L 443.820261 181.24638 
L 442.259069 182.142142 
L 440.979242 183.157057 
L 440.211838 184.116399 
L 439.864052 185.083976 
L 439.857225 185.596199 
L 440.223439 186.598546 
L 440.842929 187.330879 
L 441.630563 187.945489 
L 442.695697 188.552143 
L 444.684768 189.3563 
L 447.035226 190.01198 
L 449.608119 190.510181 
L 453.286317 190.953964 
L 456.98736 191.166529 
L 461.642152 191.193272 
L 482.233584 190.928495 
L 490.52534 190.795296 
L 497.247241 190.467525 
L 503.274441 189.990587 
L 511.714793 189.082946 
L 522.410043 187.654667 
L 538.760477 185.373481 
L 540.883816 185.293207 
L 542.24294 185.393087 
L 542.972888 185.533007 
L 542.972888 185.533007 
" style="fill:none;stroke:#000000;stroke-linecap:square;stroke-opacity:0.7;stroke-width:1.2;"/>
   </g>
   <g id="line2d_18">
    <path clip-path="url(#p3643383e73)" d="M 543.150501 143.629392 
L 540.508308 143.483457 
L 536.257279 143.034221 
L 524.373496 141.483917 
L 512.953328 140.066415 
L 506.389196 139.486344 
L 496.624602 138.924887 
L 483.914373 138.131812 
L 468.039562 137.027269 
L 464.661255 137.157924 
L 461.441352 137.56554 
L 458.282424 138.133032 
L 453.272723 139.23477 
L 448.193024 140.595528 
L 444.788441 141.703895 
L 441.467697 143.057466 
L 439.464473 144.149533 
L 438.118141 145.230963 
L 437.523027 146.20406 
L 437.480865 146.428654 
L 437.614426 147.120107 
L 437.880242 147.49648 
L 438.437336 147.959172 
L 439.614708 148.543587 
L 441.03751 148.991747 
L 442.686833 149.347861 
L 445.09138 149.694915 
L 449.096596 150.025775 
L 454.987213 150.237442 
L 462.393263 150.269773 
L 470.007876 150.102832 
L 478.452118 149.681272 
L 485.516444 149.119964 
L 493.884055 148.215668 
L 507.075596 146.707837 
L 513.622353 146.241021 
L 519.587569 146.04295 
L 528.638341 146.026634 
L 536.888125 145.966122 
L 540.669086 145.746319 
L 543.426505 145.495116 
L 543.426505 145.495116 
" style="fill:none;stroke:#000000;stroke-linecap:square;stroke-opacity:0.7;stroke-width:1.2;"/>
   </g>
   <g id="line2d_19">
    <path clip-path="url(#p3643383e73)" d="M 542.810108 104.413352 
L 541.590687 104.44862 
L 539.158207 104.287921 
L 531.294298 103.399219 
L 519.266805 102.152385 
L 486.848875 99.215614 
L 481.232573 99.070601 
L 475.120344 99.154935 
L 467.941092 99.496207 
L 459.602561 100.13588 
L 453.055278 100.893616 
L 449.310956 101.495502 
L 445.346122 102.346864 
L 442.915219 103.047581 
L 441.079202 103.748252 
L 439.731863 104.473261 
L 438.914733 105.201563 
L 438.685525 105.631947 
L 438.661041 106.111237 
L 438.884549 106.576954 
L 439.443392 107.093237 
L 440.198799 107.529039 
L 442.114319 108.249558 
L 444.426212 108.838403 
L 448.487499 109.565835 
L 453.292423 110.145325 
L 457.773928 110.439241 
L 462.421457 110.519043 
L 469.524896 110.401966 
L 485.635209 109.842367 
L 497.033164 109.269513 
L 505.598803 108.588589 
L 520.545993 107.060828 
L 530.326763 106.206643 
L 539.246031 105.695792 
L 542.916638 105.426649 
L 542.916638 105.426649 
" style="fill:none;stroke:#000000;stroke-linecap:square;stroke-opacity:0.7;stroke-width:1.2;"/>
   </g>
   <g id="line2d_20">
    <path clip-path="url(#p3643383e73)" d="M 542.919985 64.446635 
L 540.094691 64.376831 
L 517.653654 63.40763 
L 511.372472 62.859381 
L 503.279251 61.89828 
L 494.334055 60.835881 
L 488.133026 60.303149 
L 480.818843 59.922078 
L 474.906848 59.798796 
L 469.707159 59.866778 
L 466.745031 60.03581 
L 462.966491 60.49161 
L 458.97098 61.27646 
L 453.843387 62.543347 
L 448.762342 64.039603 
L 445.216643 65.333631 
L 442.802776 66.504403 
L 442.009406 67.02816 
L 441.161878 67.897514 
L 441.001901 68.308164 
L 441.198616 69.036877 
L 441.679632 69.465646 
L 442.389833 69.837329 
L 444.274008 70.414862 
L 446.315969 70.789078 
L 449.950441 71.187565 
L 456.928794 71.562064 
L 475.524426 72.215533 
L 481.62625 72.052081 
L 489.756557 71.598687 
L 497.309602 70.967464 
L 504.892446 70.114609 
L 514.957101 68.736567 
L 530.646961 66.580345 
L 538.589012 65.743784 
L 542.832814 65.401777 
L 542.832814 65.401777 
" style="fill:none;stroke:#000000;stroke-linecap:square;stroke-opacity:0.7;stroke-width:1.2;"/>
   </g>
   <g id="line2d_21">
    <path clip-path="url(#p3643383e73)" d="M 674.504548 222.871963 
L 671.345725 222.692174 
L 663.755754 222.320267 
L 647.033724 221.651505 
L 638.360577 221.023882 
L 623.050899 219.849683 
L 611.882387 219.247081 
L 602.879332 218.972008 
L 598.092523 219.038829 
L 596.074392 219.178347 
L 591.271201 219.810688 
L 585.140073 220.920093 
L 579.797046 222.127273 
L 576.292422 223.172402 
L 574.077899 224.100248 
L 572.886435 224.887593 
L 572.493628 225.360041 
L 572.362548 225.83536 
L 572.522599 226.309456 
L 573.143241 226.868455 
L 573.897859 227.252307 
L 575.368243 227.73925 
L 577.610777 228.205706 
L 580.47536 228.557992 
L 583.57566 228.741982 
L 586.335462 228.766684 
L 590.626659 228.558921 
L 594.488776 228.122581 
L 602.867216 227.03867 
L 607.538532 226.713919 
L 617.882758 226.304397 
L 629.938755 225.772096 
L 654.415157 224.55948 
L 664.65127 224.34118 
L 674.617364 224.172708 
L 674.617364 224.172708 
" style="fill:none;stroke:#000000;stroke-linecap:square;stroke-opacity:0.7;stroke-width:1.2;"/>
   </g>
   <g id="line2d_22">
    <path clip-path="url(#p3643383e73)" d="M 674.448743 183.11965 
L 667.646189 183.033388 
L 634.372415 183.012928 
L 618.983742 182.510629 
L 602.925869 181.772588 
L 596.996204 181.597945 
L 592.58599 181.732053 
L 588.004509 182.138037 
L 583.801909 182.735122 
L 579.470213 183.612757 
L 576.338377 184.508965 
L 574.478689 185.276131 
L 573.694858 185.75877 
L 573.261054 186.215469 
L 573.182931 186.646675 
L 573.460681 187.023151 
L 573.975082 187.307911 
L 574.959192 187.605192 
L 576.989979 187.911605 
L 579.17086 188.056857 
L 583.131047 188.108056 
L 610.436412 187.874146 
L 623.756966 187.772001 
L 633.477093 187.480153 
L 642.876408 186.960384 
L 652.3107 186.216922 
L 669.734426 184.759864 
L 672.604008 184.798321 
L 674.489647 185.058476 
L 674.489647 185.058476 
" style="fill:none;stroke:#000000;stroke-linecap:square;stroke-opacity:0.7;stroke-width:1.2;"/>
   </g>
   <g id="line2d_23">
    <path clip-path="url(#p3643383e73)" d="M 675.021104 142.865977 
L 673.326515 142.008768 
L 671.055171 141.15335 
L 666.627088 139.93146 
L 661.700351 138.855527 
L 654.385443 137.496488 
L 645.332486 136.063898 
L 637.511107 135.067559 
L 630.627165 134.420087 
L 605.537321 132.369471 
L 598.670334 131.686706 
L 597.1394 131.675903 
L 594.906849 131.951356 
L 592.094415 132.701246 
L 589.270638 133.638086 
L 583.180112 135.968612 
L 580.342497 137.230035 
L 577.55464 138.648037 
L 574.410477 140.640827 
L 573.52124 141.357252 
L 572.088048 142.918414 
L 571.777101 143.452638 
L 571.483663 144.568734 
L 571.642798 145.387967 
L 571.904341 145.840366 
L 572.693993 146.585249 
L 573.004027 146.785097 
L 574.239159 147.362563 
L 575.290336 147.695505 
L 577.844239 148.18827 
L 580.161636 148.398783 
L 583.059735 148.45177 
L 586.470626 148.278377 
L 590.024994 147.845269 
L 593.912733 147.033779 
L 596.467873 146.299293 
L 601.070876 145.035132 
L 604.542797 144.43276 
L 605.502819 144.312204 
L 612.065597 143.817782 
L 618.565764 143.624393 
L 634.6096 143.433831 
L 643.00712 143.545472 
L 649.768224 143.864473 
L 656.273807 144.403013 
L 671.696668 145.889979 
L 673.652215 145.780144 
L 674.608271 145.632142 
L 674.608271 145.632142 
" style="fill:none;stroke:#000000;stroke-linecap:square;stroke-opacity:0.7;stroke-width:1.2;"/>
   </g>
   <g id="line2d_24">
    <path clip-path="url(#p3643383e73)" d="M 674.61975 104.504447 
L 672.893758 104.565422 
L 670.365053 104.415138 
L 666.197433 103.898716 
L 659.543499 102.811079 
L 643.348349 100.075294 
L 636.220943 99.151529 
L 630.228217 98.589551 
L 623.559219 98.208401 
L 617.098835 98.086741 
L 611.285461 98.19748 
L 605.195505 98.558018 
L 598.630139 99.196751 
L 586.521291 100.613314 
L 580.742727 101.460773 
L 576.953806 102.195754 
L 574.69613 102.761414 
L 572.192598 103.612188 
L 570.564514 104.49227 
L 570.147207 104.859109 
L 569.833573 105.316463 
L 569.77473 105.942347 
L 570.117242 106.525319 
L 570.710807 107.006334 
L 571.907885 107.609938 
L 574.001349 108.288508 
L 577.647042 109.028108 
L 581.553695 109.511469 
L 586.323229 109.835576 
L 591.526104 109.940772 
L 597.53023 109.801789 
L 604.781589 109.393238 
L 619.684413 108.299393 
L 634.711716 106.950653 
L 643.686908 106.235019 
L 652.012297 105.788222 
L 674.402533 104.927918 
L 674.402533 104.927918 
" style="fill:none;stroke:#000000;stroke-linecap:square;stroke-opacity:0.7;stroke-width:1.2;"/>
   </g>
   <g id="line2d_25">
    <path clip-path="url(#p3643383e73)" d="M 675.490909 66.224648 
L 671.66912 65.503836 
L 654.756253 62.125121 
L 650.027864 61.317618 
L 642.662538 60.318099 
L 636.550366 59.802032 
L 627.671066 59.395016 
L 620.791598 59.004935 
L 614.973549 58.480642 
L 602.32711 57.147499 
L 599.34501 57.186138 
L 597.70301 57.356739 
L 594.433998 57.978336 
L 588.770739 59.544061 
L 584.096717 61.062616 
L 579.433543 62.779914 
L 575.999125 64.266 
L 573.863038 65.392753 
L 572.944502 65.986077 
L 571.926977 66.86835 
L 571.544149 67.534155 
L 571.528694 67.817434 
L 572.007728 68.430749 
L 572.803727 68.746196 
L 573.567351 68.899459 
L 576.281863 69.03309 
L 581.868394 68.510477 
L 586.29073 67.725591 
L 593.113273 66.444578 
L 597.075886 65.903228 
L 603.550279 65.291526 
L 612.94788 64.677149 
L 633.677895 63.621302 
L 643.263954 63.355847 
L 654.929276 63.309834 
L 661.831044 63.43164 
L 666.713863 63.741046 
L 669.235529 64.105005 
L 670.156753 64.305491 
L 672.551343 65.12625 
L 674.487713 66.386486 
L 675.341736 67.299691 
L 675.341736 67.299691 
" style="fill:none;stroke:#000000;stroke-linecap:square;stroke-opacity:0.7;stroke-width:1.2;"/>
   </g>
  </g>
 </g>
 <defs>
  <clipPath id="p3643383e73">
   <rect height="262.08" width="694.08" x="12.96" y="12.96"/>
  </clipPath>
 </defs>
</svg>
