<?xml version="1.0" encoding="utf-8" standalone="no"?>
<!DOCTYPE svg PUBLIC "-//W3C//DTD SVG 1.1//EN"
  "http://www.w3.org/Graphics/SVG/1.1/DTD/svg11.dtd">
<!-- Created with matplotlib (https://matplotlib.org/) -->
<svg height="288pt" version="1.1" viewBox="0 0 720 288" width="720pt" xmlns="http://www.w3.org/2000/svg" xmlns:xlink="http://www.w3.org/1999/xlink">
 <metadata>
  <rdf:RDF xmlns:cc="http://creativecommons.org/ns#" xmlns:dc="http://purl.org/dc/elements/1.1/" xmlns:rdf="http://www.w3.org/1999/02/22-rdf-syntax-ns#">
   <cc:Work>
    <dc:type rdf:resource="http://purl.org/dc/dcmitype/StillImage"/>
    <dc:date>2020-11-06T20:35:17.560889</dc:date>
    <dc:format>image/svg+xml</dc:format>
    <dc:creator>
     <cc:Agent>
      <dc:title>Matplotlib v3.3.2, https://matplotlib.org/</dc:title>
     </cc:Agent>
    </dc:creator>
   </cc:Work>
  </rdf:RDF>
 </metadata>
 <defs>
  <style type="text/css">*{stroke-linecap:butt;stroke-linejoin:round;}</style>
 </defs>
 <g id="figure_1">
  <g id="patch_1">
   <path d="M 0 288 
L 720 288 
L 720 0 
L 0 0 
z
" style="fill:#ffffff;"/>
  </g>
  <g id="axes_1">
   <g id="line2d_1">
    <path clip-path="url(#p71c303fc18)" d="M 148.791601 225.497532 
L 142.049714 224.090009 
L 135.217383 222.891678 
L 128.297264 221.924929 
L 121.351801 221.207363 
L 114.370359 220.74767 
L 106.867472 220.495878 
L 94.101869 220.086816 
L 72.121458 219.141414 
L 67.271876 219.244598 
L 63.766227 219.4943 
L 60.343276 219.921802 
L 56.880295 220.575137 
L 53.614937 221.428 
L 50.715765 222.416369 
L 48.243065 223.495262 
L 46.721532 224.343983 
L 45.592105 225.189162 
L 45.034881 225.839725 
L 44.841317 226.332073 
L 44.893087 226.805927 
L 45.332768 227.348567 
L 45.846375 227.668891 
L 47.177022 228.167146 
L 48.734083 228.528572 
L 52.096502 228.995839 
L 56.10872 229.287712 
L 61.065107 229.431869 
L 67.192198 229.401727 
L 75.642936 229.121488 
L 114.716429 227.233225 
L 129.657293 226.210776 
L 148.841516 224.868755 
L 148.841516 224.868755 
" style="fill:none;stroke:#000000;stroke-linecap:square;stroke-opacity:0.7;stroke-width:1.2;"/>
   </g>
   <g id="line2d_2">
    <path clip-path="url(#p71c303fc18)" d="M 148.832337 185.900813 
L 143.147708 184.182702 
L 137.312524 182.642998 
L 130.428953 181.084083 
L 123.503542 179.773385 
L 116.349907 178.683427 
L 109.113681 177.837388 
L 100.909764 177.115821 
L 91.140556 176.48916 
L 84.103145 176.240324 
L 77.951654 176.247061 
L 73.549456 176.435622 
L 68.90804 176.856597 
L 65.50271 177.346276 
L 62.037259 178.033298 
L 58.689924 178.906081 
L 55.563393 179.93434 
L 52.395854 181.222662 
L 49.410223 182.731241 
L 47.691723 183.797016 
L 46.327135 184.843577 
L 45.46529 185.744064 
L 45.065717 186.469444 
L 45.023582 186.980311 
L 45.211698 187.386487 
L 45.677262 187.765143 
L 46.53485 188.105384 
L 47.82231 188.366615 
L 49.393547 188.526704 
L 52.857441 188.625998 
L 57.378892 188.531781 
L 65.735799 188.108428 
L 91.053282 186.666047 
L 100.872317 186.39148 
L 131.95036 185.683729 
L 148.816743 185.292306 
L 148.816743 185.292306 
" style="fill:none;stroke:#000000;stroke-linecap:square;stroke-opacity:0.7;stroke-width:1.2;"/>
   </g>
   <g id="line2d_3">
    <path clip-path="url(#p71c303fc18)" d="M 148.847542 146.225997 
L 145.128605 144.829569 
L 140.731859 143.359354 
L 135.150437 141.747266 
L 129.670476 140.394453 
L 123.722511 139.153169 
L 118.003768 138.170815 
L 111.88221 137.334015 
L 102.300692 136.304043 
L 86.366747 134.770216 
L 79.957593 134.432738 
L 75.40691 134.40019 
L 70.55934 134.625728 
L 67.043469 135.003182 
L 63.667988 135.574637 
L 60.475868 136.340309 
L 57.198051 137.397944 
L 53.972396 138.762143 
L 51.305348 140.191674 
L 49.392501 141.437099 
L 47.525939 142.909049 
L 46.213501 144.198346 
L 45.07067 145.730935 
L 44.579351 146.907641 
L 44.538048 147.828183 
L 44.824058 148.520737 
L 45.529097 149.168149 
L 46.592831 149.643502 
L 48.085913 149.985359 
L 50.387256 150.207034 
L 53.596144 150.235827 
L 58.70513 149.974061 
L 66.139554 149.294622 
L 91.739816 146.689638 
L 97.678756 146.387797 
L 106.620126 146.210319 
L 146.019625 145.813824 
L 148.895467 145.861469 
L 148.895467 145.861469 
" style="fill:none;stroke:#000000;stroke-linecap:square;stroke-opacity:0.7;stroke-width:1.2;"/>
   </g>
   <g id="line2d_4">
    <path clip-path="url(#p71c303fc18)" d="M 148.846123 107.076214 
L 143.425438 105.637813 
L 137.445136 104.260768 
L 130.50145 102.906614 
L 124.422304 101.924696 
L 117.658853 101.062779 
L 110.561486 100.426684 
L 102.076016 99.952199 
L 88.099498 99.452107 
L 79.363117 99.326979 
L 73.47922 99.418978 
L 67.521285 99.753203 
L 62.609796 100.294861 
L 58.368296 101.027932 
L 54.980467 101.843985 
L 51.864561 102.834636 
L 49.304771 103.89835 
L 47.565038 104.839696 
L 46.182697 105.863441 
L 45.459221 106.700052 
L 45.185879 107.311436 
L 45.160485 107.937882 
L 45.313813 108.370099 
L 45.695417 108.875171 
L 46.439793 109.452095 
L 47.858874 110.145689 
L 49.726238 110.763895 
L 52.752818 111.461546 
L 56.302106 112.029881 
L 60.939109 112.529374 
L 65.88682 112.851923 
L 72.259525 113.030106 
L 79.438686 112.989129 
L 87.917097 112.70624 
L 98.246313 112.131802 
L 106.318585 111.493488 
L 113.888651 110.692857 
L 126.441571 109.086519 
L 141.909606 107.108832 
L 148.834001 106.405536 
L 148.834001 106.405536 
" style="fill:none;stroke:#000000;stroke-linecap:square;stroke-opacity:0.7;stroke-width:1.2;"/>
   </g>
   <g id="line2d_5">
    <path clip-path="url(#p71c303fc18)" d="M 148.664036 67.209204 
L 143.378285 65.537794 
L 137.427985 63.873909 
L 131.3583 62.390506 
L 125.797123 61.207881 
L 119.743045 60.113125 
L 113.421551 59.191289 
L 106.251067 58.402582 
L 96.331154 57.590674 
L 86.177261 56.952668 
L 78.970867 56.709341 
L 74.218551 56.722148 
L 69.213596 56.970295 
L 66.050037 57.303256 
L 63.058166 57.787129 
L 59.894004 58.525965 
L 56.957645 59.471214 
L 54.285763 60.596749 
L 51.701204 61.982952 
L 49.682134 63.334568 
L 47.998677 64.742658 
L 46.909885 65.928906 
L 46.285621 66.910921 
L 46.035923 67.825464 
L 46.190372 68.469968 
L 46.483542 68.817862 
L 47.146022 69.198737 
L 48.189676 69.479048 
L 49.623743 69.637539 
L 52.53349 69.653566 
L 57.842223 69.316325 
L 68.659879 68.285214 
L 82.008014 67.077852 
L 90.285733 66.533231 
L 97.216826 66.259732 
L 106.633008 66.126506 
L 121.544403 66.180412 
L 139.103919 66.462681 
L 148.760375 66.736271 
L 148.760375 66.736271 
" style="fill:none;stroke:#000000;stroke-linecap:square;stroke-opacity:0.7;stroke-width:1.2;"/>
   </g>
   <g id="line2d_6">
    <path clip-path="url(#p71c303fc18)" d="M 280.516322 225.642748 
L 272.486721 224.161059 
L 265.463482 223.07179 
L 257.20071 222.041384 
L 249.955928 221.366292 
L 242.174871 220.869172 
L 226.457714 220.193881 
L 215.526036 219.872337 
L 208.33217 219.888922 
L 202.548732 220.112462 
L 197.407849 220.513398 
L 192.5289 221.105474 
L 187.924166 221.889421 
L 183.60038 222.881676 
L 180.713979 223.754792 
L 178.29238 224.757353 
L 177.298114 225.357987 
L 176.558821 226.139916 
L 176.453812 226.688888 
L 176.626009 227.10497 
L 177.000389 227.493968 
L 177.995567 228.082582 
L 179.899094 228.77186 
L 182.592211 229.42796 
L 186.626391 230.111277 
L 191.333655 230.655659 
L 196.373053 231.032144 
L 202.289886 231.261271 
L 209.328865 231.288507 
L 216.771222 231.087132 
L 227.064002 230.550396 
L 237.316274 229.825426 
L 247.647656 228.853084 
L 261.366753 227.290579 
L 280.493559 225.079843 
L 280.493559 225.079843 
" style="fill:none;stroke:#000000;stroke-linecap:square;stroke-opacity:0.7;stroke-width:1.2;"/>
   </g>
   <g id="line2d_7">
    <path clip-path="url(#p71c303fc18)" d="M 280.490502 185.977855 
L 275.272633 184.376511 
L 268.286025 182.474439 
L 260.930904 180.742741 
L 253.935061 179.343195 
L 247.225323 178.243832 
L 241.340557 177.491473 
L 235.25843 176.920697 
L 228.429031 176.507342 
L 221.153776 176.315646 
L 214.32078 176.38535 
L 209.193873 176.624413 
L 204.45334 177.019359 
L 200.095796 177.562338 
L 194.966438 178.47434 
L 191.099041 179.399578 
L 188.120602 180.278874 
L 185.009624 181.383125 
L 181.888132 182.739256 
L 180.126851 183.667304 
L 178.031869 185.081951 
L 177.044038 186.111308 
L 176.739995 186.732212 
L 176.708172 187.24897 
L 176.867746 187.666014 
L 177.34676 188.174893 
L 178.032993 188.592136 
L 179.473496 189.146698 
L 181.884995 189.739377 
L 184.873509 190.2404 
L 189.866866 190.805606 
L 195.64598 191.205808 
L 201.926346 191.415225 
L 209.333463 191.412797 
L 217.469034 191.149815 
L 227.188647 190.572119 
L 240.131359 189.548886 
L 252.173209 188.380024 
L 280.482654 185.344699 
L 280.482654 185.344699 
" style="fill:none;stroke:#000000;stroke-linecap:square;stroke-opacity:0.7;stroke-width:1.2;"/>
   </g>
   <g id="line2d_8">
    <path clip-path="url(#p71c303fc18)" d="M 280.393522 146.517239 
L 276.522028 145.850895 
L 270.464578 145.044383 
L 251.446862 142.676236 
L 244.625153 141.53338 
L 238.574691 140.296839 
L 225.267324 137.451409 
L 220.483458 136.679084 
L 215.556427 136.116418 
L 210.769262 135.826044 
L 206.583592 135.802006 
L 202.836671 135.982561 
L 199.142701 136.369144 
L 195.631348 136.952108 
L 192.319879 137.719015 
L 188.941626 138.748397 
L 185.65566 140.02771 
L 182.728644 141.450195 
L 180.054789 143.073926 
L 178.305841 144.424618 
L 177.303513 145.433267 
L 176.590218 146.540794 
L 176.444653 147.155312 
L 176.540871 147.68657 
L 176.958714 148.211295 
L 177.440403 148.513241 
L 178.439395 148.871836 
L 180.214227 149.189694 
L 183.22795 149.392274 
L 188.030554 149.393154 
L 195.08005 149.127831 
L 208.701847 148.332665 
L 223.289029 147.536784 
L 231.951323 147.29033 
L 253.636816 146.824991 
L 280.448622 145.90835 
L 280.448622 145.90835 
" style="fill:none;stroke:#000000;stroke-linecap:square;stroke-opacity:0.7;stroke-width:1.2;"/>
   </g>
   <g id="line2d_9">
    <path clip-path="url(#p71c303fc18)" d="M 280.478028 106.823768 
L 276.445376 105.633889 
L 270.802475 104.191175 
L 263.923261 102.701493 
L 256.635495 101.377634 
L 249.926491 100.363733 
L 242.44943 99.440974 
L 228.336653 97.997253 
L 217.42093 97.040646 
L 211.311306 96.715189 
L 206.264573 96.656801 
L 201.575034 96.849993 
L 198.217687 97.180524 
L 194.719742 97.734685 
L 191.687304 98.415953 
L 188.096738 99.498207 
L 185.115492 100.658615 
L 182.214383 102.072648 
L 180.249006 103.254413 
L 178.674149 104.417774 
L 177.612433 105.412998 
L 176.833219 106.422142 
L 176.442238 107.306261 
L 176.370863 107.979889 
L 176.56145 108.678267 
L 176.948288 109.218683 
L 177.557005 109.721349 
L 179.144514 110.482789 
L 180.990378 111.00678 
L 183.534762 111.459859 
L 187.109596 111.826695 
L 192.133276 112.048997 
L 198.187885 112.046297 
L 205.615546 111.789526 
L 215.397937 111.198439 
L 256.078007 108.265747 
L 275.997072 106.621163 
L 280.471084 106.367172 
L 280.471084 106.367172 
" style="fill:none;stroke:#000000;stroke-linecap:square;stroke-opacity:0.7;stroke-width:1.2;"/>
   </g>
   <g id="line2d_10">
    <path clip-path="url(#p71c303fc18)" d="M 280.547033 67.68695 
L 275.229215 66.424359 
L 269.267873 65.232694 
L 262.568933 64.143373 
L 256.577111 63.369509 
L 249.773194 62.716364 
L 243.411208 62.32526 
L 234.862583 62.055719 
L 222.92889 61.659978 
L 211.614065 61.290233 
L 204.597167 61.302149 
L 199.590419 61.519645 
L 195.092526 61.919352 
L 191.487973 62.413641 
L 187.033817 63.285769 
L 183.396669 64.265922 
L 180.849124 65.151288 
L 178.85006 66.032798 
L 177.412908 66.873995 
L 176.570997 67.598305 
L 176.161245 68.316848 
L 176.187528 68.833786 
L 176.508972 69.309939 
L 177.284834 69.835417 
L 178.619961 70.351269 
L 180.267403 70.765628 
L 183.075526 71.234808 
L 187.553495 71.689812 
L 193.566342 72.009126 
L 201.2066 72.135786 
L 209.65708 72.04096 
L 219.875148 71.704567 
L 232.832305 71.038396 
L 245.066325 70.176425 
L 260.718802 68.813816 
L 280.492963 66.996818 
L 280.492963 66.996818 
" style="fill:none;stroke:#000000;stroke-linecap:square;stroke-opacity:0.7;stroke-width:1.2;"/>
   </g>
   <g id="line2d_11">
    <path clip-path="url(#p71c303fc18)" d="M 412.107245 225.547138 
L 406.987341 224.695172 
L 398.806162 223.580699 
L 386.11461 222.101441 
L 366.717004 219.846631 
L 357.077888 218.751534 
L 350.837293 218.246532 
L 345.325607 218.005244 
L 340.232651 217.989136 
L 335.5482 218.177804 
L 331.009066 218.573466 
L 326.207998 219.252677 
L 321.792629 220.150345 
L 318.588588 220.994411 
L 315.207297 222.105038 
L 312.974918 223.007196 
L 310.518523 224.26704 
L 309.003717 225.385241 
L 308.404255 226.141469 
L 308.244204 226.656818 
L 308.304355 227.091391 
L 308.576966 227.51711 
L 309.070305 227.915576 
L 310.583241 228.58054 
L 312.419197 229.05661 
L 315.68025 229.590936 
L 319.47845 229.980264 
L 325.364079 230.322113 
L 332.2141 230.466202 
L 339.470118 230.402578 
L 347.73809 230.114239 
L 357.356886 229.554782 
L 373.23795 228.362909 
L 391.686283 226.741598 
L 412.166897 224.918702 
L 412.166897 224.918702 
" style="fill:none;stroke:#000000;stroke-linecap:square;stroke-opacity:0.7;stroke-width:1.2;"/>
   </g>
   <g id="line2d_12">
    <path clip-path="url(#p71c303fc18)" d="M 412.03517 186.036131 
L 406.691845 185.270925 
L 398.523328 184.353553 
L 387.097029 183.327519 
L 372.618249 182.013042 
L 348.625486 179.599299 
L 342.420345 179.309971 
L 336.888102 179.279549 
L 332.326012 179.459677 
L 328.584032 179.778604 
L 325.188853 180.228531 
L 321.564535 180.90912 
L 318.015203 181.814518 
L 314.823817 182.875925 
L 312.327936 183.921893 
L 310.414153 184.925419 
L 309.382487 185.606022 
L 308.40552 186.520033 
L 308.106611 187.162815 
L 308.156925 187.548466 
L 308.365589 187.847071 
L 308.782021 188.146308 
L 309.713413 188.512336 
L 311.088136 188.81939 
L 313.523395 189.124957 
L 317.998038 189.386848 
L 323.921623 189.487792 
L 332.321728 189.403918 
L 344.503862 189.034976 
L 378.175157 187.671754 
L 390.38794 186.881138 
L 412.103579 185.377817 
L 412.103579 185.377817 
" style="fill:none;stroke:#000000;stroke-linecap:square;stroke-opacity:0.7;stroke-width:1.2;"/>
   </g>
   <g id="line2d_13">
    <path clip-path="url(#p71c303fc18)" d="M 412.17519 146.63346 
L 405.500092 145.196709 
L 397.568996 143.734901 
L 390.821962 142.712703 
L 383.947073 141.916105 
L 378.109837 141.453678 
L 371.026488 141.126591 
L 357.126515 140.801294 
L 346.1454 140.706045 
L 338.011373 140.86804 
L 331.725214 141.226435 
L 326.583382 141.733304 
L 321.652791 142.454989 
L 317.110867 143.381805 
L 313.988428 144.217173 
L 311.76826 144.964631 
L 309.602179 145.94852 
L 308.620208 146.646498 
L 308.205961 147.225524 
L 308.184337 147.732907 
L 308.373829 148.079368 
L 308.832177 148.489256 
L 309.68017 148.952277 
L 310.973862 149.436574 
L 313.058952 150.00055 
L 316.578 150.68509 
L 321.299048 151.33237 
L 326.048405 151.784747 
L 332.058715 152.143749 
L 338.200241 152.30814 
L 345.7396 152.275858 
L 354.373694 151.984446 
L 364.703613 151.380352 
L 373.038605 150.691553 
L 381.56947 149.770303 
L 395.022375 148.059857 
L 410.587898 146.101539 
L 412.193188 145.927174 
L 412.193188 145.927174 
" style="fill:none;stroke:#000000;stroke-linecap:square;stroke-opacity:0.7;stroke-width:1.2;"/>
   </g>
   <g id="line2d_14">
    <path clip-path="url(#p71c303fc18)" d="M 412.108086 107.205566 
L 406.685297 106.506626 
L 398.414609 105.697597 
L 380.738885 104.026908 
L 372.786375 103.017816 
L 356.591857 100.794169 
L 350.637618 100.246613 
L 344.537693 99.940228 
L 340.069142 99.9019 
L 335.097429 100.067854 
L 330.606 100.431083 
L 326.709217 100.933653 
L 322.335229 101.740202 
L 319.326081 102.474156 
L 316.025108 103.499598 
L 313.397548 104.562857 
L 311.923812 105.331712 
L 310.742814 106.145649 
L 310.052414 106.850013 
L 309.695428 107.579903 
L 309.691655 108.110946 
L 309.959904 108.686953 
L 310.638439 109.335329 
L 311.390579 109.797839 
L 312.78237 110.41716 
L 314.783287 111.070922 
L 317.880485 111.821377 
L 322.270974 112.590881 
L 326.75815 113.151003 
L 332.215793 113.611127 
L 339.135188 113.92906 
L 346.54071 114.017354 
L 353.872405 113.904103 
L 362.134825 113.558288 
L 368.154124 113.121528 
L 373.91847 112.512242 
L 381.705196 111.424219 
L 393.609355 109.460278 
L 409.199343 106.911935 
L 412.0688 106.500423 
L 412.0688 106.500423 
" style="fill:none;stroke:#000000;stroke-linecap:square;stroke-opacity:0.7;stroke-width:1.2;"/>
   </g>
   <g id="line2d_15">
    <path clip-path="url(#p71c303fc18)" d="M 412.154492 67.388634 
L 406.985897 66.0788 
L 399.864266 64.490469 
L 393.640575 63.293607 
L 386.308104 62.125011 
L 379.71453 61.319439 
L 373.35139 60.763922 
L 365.328474 60.297981 
L 356.048077 59.953861 
L 347.792378 59.870572 
L 341.963349 60.0103 
L 335.791408 60.402789 
L 331.115441 60.912183 
L 326.154489 61.701636 
L 322.649703 62.444497 
L 318.403141 63.590876 
L 315.060388 64.725425 
L 312.152079 65.943995 
L 310.063638 67.060417 
L 309.115901 67.743192 
L 308.563363 68.388039 
L 308.480319 68.686864 
L 308.597115 69.023684 
L 309.039918 69.340197 
L 309.974606 69.624499 
L 311.291431 69.818604 
L 314.139943 69.987242 
L 319.859083 69.992431 
L 328.381997 69.717266 
L 341.929408 69.01997 
L 358.411804 68.196323 
L 369.417821 67.920439 
L 389.788177 67.447432 
L 412.069509 66.78601 
L 412.069509 66.78601 
" style="fill:none;stroke:#000000;stroke-linecap:square;stroke-opacity:0.7;stroke-width:1.2;"/>
   </g>
   <g id="line2d_16">
    <path clip-path="url(#p71c303fc18)" d="M 543.760651 225.538638 
L 538.495541 224.219152 
L 533.251519 223.10089 
L 527.256766 222.042364 
L 520.762777 221.118867 
L 514.014236 220.381192 
L 506.798124 219.828031 
L 496.815863 219.33758 
L 472.143421 218.283883 
L 465.833919 218.365193 
L 460.792217 218.69574 
L 457.043425 219.151154 
L 453.69245 219.748498 
L 450.240094 220.591186 
L 447.316235 221.525718 
L 444.776103 222.556387 
L 442.524391 223.746568 
L 441.324812 224.60706 
L 440.584111 225.378057 
L 440.259658 225.984324 
L 440.198434 226.530406 
L 440.433348 227.128414 
L 441.178162 227.810805 
L 441.797549 228.159246 
L 442.985182 228.643461 
L 445.155414 229.254378 
L 448.7856 229.932512 
L 453.281359 230.480777 
L 458.759669 230.896733 
L 465.261924 231.147955 
L 472.388007 231.197818 
L 480.949991 231.010196 
L 489.435141 230.600189 
L 498.591439 229.923834 
L 508.073874 228.977388 
L 543.77595 224.995214 
L 543.77595 224.995214 
" style="fill:none;stroke:#000000;stroke-linecap:square;stroke-opacity:0.7;stroke-width:1.2;"/>
   </g>
   <g id="line2d_17">
    <path clip-path="url(#p71c303fc18)" d="M 543.757681 186.048035 
L 538.751161 185.138321 
L 530.589405 183.902522 
L 517.457584 182.201786 
L 496.942913 179.556317 
L 487.42682 178.41332 
L 480.863643 177.84686 
L 474.642943 177.554576 
L 469.638036 177.536578 
L 464.97253 177.733511 
L 460.357435 178.172348 
L 455.815313 178.887092 
L 452.510599 179.615061 
L 449.062457 180.59848 
L 445.695327 181.842249 
L 444.098982 182.56945 
L 441.880307 183.831776 
L 440.714747 184.734745 
L 439.892968 185.699897 
L 439.66106 186.209024 
L 439.595582 186.795572 
L 439.748357 187.318267 
L 440.12491 187.828898 
L 440.999277 188.478365 
L 442.476044 189.142197 
L 444.055429 189.630067 
L 447.511966 190.354436 
L 450.855152 190.82183 
L 455.671129 191.265747 
L 461.637923 191.567012 
L 468.067274 191.671928 
L 476.70332 191.552545 
L 486.605935 191.163974 
L 497.054941 190.551278 
L 505.755294 189.841693 
L 515.398215 188.820938 
L 533.300266 186.630768 
L 543.811275 185.411305 
L 543.811275 185.411305 
" style="fill:none;stroke:#000000;stroke-linecap:square;stroke-opacity:0.7;stroke-width:1.2;"/>
   </g>
   <g id="line2d_18">
    <path clip-path="url(#p71c303fc18)" d="M 543.75087 146.553997 
L 538.491875 145.88087 
L 530.507926 145.097625 
L 517.624065 144.094379 
L 503.547693 142.966653 
L 492.623316 141.821226 
L 480.931073 140.628383 
L 474.702117 140.207232 
L 468.894336 140.048553 
L 463.655043 140.168436 
L 459.145769 140.52985 
L 455.527077 141.034668 
L 452.151664 141.715093 
L 449.021563 142.566146 
L 445.964475 143.660179 
L 444.505094 144.306844 
L 442.152704 145.635774 
L 441.119414 146.463654 
L 440.545994 147.170635 
L 440.352033 147.732774 
L 440.401057 148.131014 
L 440.565603 148.424072 
L 441.00101 148.810948 
L 441.809533 149.211861 
L 442.817775 149.529218 
L 445.583853 150.044702 
L 449.492334 150.436599 
L 455.242997 150.719484 
L 462.367326 150.820808 
L 471.656907 150.720249 
L 485.917037 150.311111 
L 499.670203 149.726316 
L 509.358619 149.070069 
L 522.621144 147.892123 
L 543.799391 145.880132 
L 543.799391 145.880132 
" style="fill:none;stroke:#000000;stroke-linecap:square;stroke-opacity:0.7;stroke-width:1.2;"/>
   </g>
   <g id="line2d_19">
    <path clip-path="url(#p71c303fc18)" d="M 543.880676 106.935988 
L 538.568671 105.275283 
L 532.371114 103.612731 
L 526.781505 102.359648 
L 521.241108 101.336118 
L 514.810983 100.418593 
L 508.950016 99.837188 
L 502.880846 99.476324 
L 494.979776 99.281752 
L 484.400069 99.288034 
L 474.718684 99.516649 
L 468.547064 99.836459 
L 462.621624 100.348759 
L 457.713839 100.993831 
L 453.128918 101.846096 
L 449.715132 102.686517 
L 446.594942 103.659112 
L 443.910523 104.722584 
L 442.074547 105.661113 
L 440.923553 106.445275 
L 440.262151 107.099627 
L 439.93846 107.708067 
L 439.954253 108.286253 
L 440.184604 108.672263 
L 440.713539 109.108874 
L 441.613167 109.547911 
L 443.11442 110.013171 
L 445.900805 110.546749 
L 449.390872 110.949693 
L 454.693866 111.27842 
L 460.12895 111.399645 
L 467.428617 111.333669 
L 476.039895 111.025483 
L 489.164314 110.30242 
L 507.340382 109.108558 
L 522.980466 107.794954 
L 536.865203 106.686498 
L 543.829606 106.33527 
L 543.829606 106.33527 
" style="fill:none;stroke:#000000;stroke-linecap:square;stroke-opacity:0.7;stroke-width:1.2;"/>
   </g>
   <g id="line2d_20">
    <path clip-path="url(#p71c303fc18)" d="M 543.799033 67.764022 
L 536.006331 66.400413 
L 526.839945 65.024039 
L 519.766559 64.174884 
L 513.190432 63.618352 
L 507.094606 63.341638 
L 499.718668 63.270971 
L 468.229373 63.489141 
L 461.852535 63.82214 
L 457.17546 64.23805 
L 452.433479 64.854742 
L 447.583506 65.756632 
L 444.639675 66.503673 
L 442.102211 67.382614 
L 441.160125 67.837958 
L 440.317975 68.455909 
L 440.09368 68.796254 
L 440.101201 69.250525 
L 440.413404 69.625799 
L 441.091371 70.018424 
L 442.508869 70.495978 
L 444.325185 70.892623 
L 447.287598 71.326936 
L 451.99691 71.746515 
L 458.118611 72.007552 
L 464.699303 72.059151 
L 474.514556 71.867773 
L 497.9715 71.050415 
L 505.983548 70.610644 
L 515.299421 69.873083 
L 529.109056 68.535697 
L 543.783772 67.031822 
L 543.783772 67.031822 
" style="fill:none;stroke:#000000;stroke-linecap:square;stroke-opacity:0.7;stroke-width:1.2;"/>
   </g>
   <g id="line2d_21">
    <path clip-path="url(#p71c303fc18)" d="M 675.444905 225.462396 
L 668.801756 223.605817 
L 661.934929 221.939849 
L 655.972701 220.70643 
L 649.297353 219.571791 
L 643.116971 218.772447 
L 637.032986 218.223148 
L 629.063306 217.758049 
L 613.409027 217.119839 
L 605.519179 216.991282 
L 599.636026 217.096641 
L 595.068526 217.366615 
L 591.405523 217.74831 
L 587.960561 218.280644 
L 584.627494 218.994102 
L 581.582406 219.853495 
L 578.280345 221.063236 
L 575.50333 222.381423 
L 573.79522 223.405977 
L 572.480914 224.409888 
L 571.718572 225.203094 
L 571.230851 226.066932 
L 571.163986 226.62127 
L 571.271714 227.014461 
L 571.582941 227.444388 
L 572.279895 227.93663 
L 573.357529 228.375426 
L 575.047936 228.793741 
L 577.082388 229.106331 
L 580.467868 229.40374 
L 585.404611 229.576286 
L 591.374633 229.551421 
L 599.61288 229.268133 
L 613.463195 228.491167 
L 626.251297 227.838566 
L 643.539153 226.991087 
L 660.818215 225.847199 
L 675.461479 224.886616 
L 675.461479 224.886616 
" style="fill:none;stroke:#000000;stroke-linecap:square;stroke-opacity:0.7;stroke-width:1.2;"/>
   </g>
   <g id="line2d_22">
    <path clip-path="url(#p71c303fc18)" d="M 675.398136 186.145295 
L 667.915557 185.170578 
L 659.942543 184.360064 
L 649.690443 183.552563 
L 622.174672 181.53946 
L 610.646553 180.704333 
L 603.111369 180.385315 
L 597.170053 180.362887 
L 592.04768 180.575096 
L 587.187376 181.037899 
L 583.394068 181.624069 
L 579.758663 182.425464 
L 577.016822 183.242344 
L 575.097739 183.978803 
L 573.34192 184.863725 
L 572.27523 185.617502 
L 571.534233 186.484884 
L 571.374289 186.898335 
L 571.356359 187.369013 
L 571.558779 187.892194 
L 572.14078 188.516083 
L 573.376993 189.252448 
L 575.008165 189.886731 
L 577.790689 190.636847 
L 581.405825 191.313133 
L 586.316143 191.931439 
L 591.364891 192.327086 
L 597.430687 192.565308 
L 604.531392 192.593134 
L 612.942458 192.373952 
L 623.037336 191.883664 
L 631.542723 191.290254 
L 638.754446 190.58073 
L 648.147887 189.401679 
L 663.608101 187.17579 
L 675.390395 185.541207 
L 675.390395 185.541207 
" style="fill:none;stroke:#000000;stroke-linecap:square;stroke-opacity:0.7;stroke-width:1.2;"/>
   </g>
   <g id="line2d_23">
    <path clip-path="url(#p71c303fc18)" d="M 675.481919 146.507968 
L 667.75111 144.644816 
L 659.705311 142.895323 
L 652.959721 141.64131 
L 646.970976 140.743853 
L 641.188312 140.097169 
L 635.159615 139.638458 
L 626.46031 139.233655 
L 616.752511 139.003024 
L 608.539171 139.043142 
L 602.507561 139.276041 
L 596.132394 139.774077 
L 591.260804 140.375739 
L 586.391784 141.216126 
L 582.610468 142.071132 
L 579.047951 143.082357 
L 575.69225 144.292026 
L 573.190158 145.482389 
L 571.966516 146.277175 
L 571.315646 146.879927 
L 570.951431 147.524843 
L 571.002283 148.066451 
L 571.415027 148.524344 
L 572.075232 148.873251 
L 573.467514 149.274932 
L 575.49507 149.585437 
L 578.936294 149.825728 
L 583.985444 149.894326 
L 591.614396 149.709185 
L 602.955206 149.162099 
L 623.885423 148.111592 
L 653.877228 146.866875 
L 675.394733 145.877526 
L 675.394733 145.877526 
" style="fill:none;stroke:#000000;stroke-linecap:square;stroke-opacity:0.7;stroke-width:1.2;"/>
   </g>
   <g id="line2d_24">
    <path clip-path="url(#p71c303fc18)" d="M 675.402216 107.050436 
L 670.045746 105.79512 
L 664.329985 104.672141 
L 657.469021 103.581237 
L 651.261752 102.808511 
L 644.351369 102.169181 
L 636.020672 101.650552 
L 616.92182 100.570403 
L 606.321739 99.992615 
L 600.448483 99.848844 
L 595.567148 99.907264 
L 590.704131 100.201951 
L 587.149617 100.621206 
L 583.739528 101.236576 
L 580.56631 102.052357 
L 577.772115 103.035019 
L 575.593083 104.060893 
L 574.132831 104.970856 
L 573.105272 105.836798 
L 572.368535 106.802226 
L 572.108348 107.582845 
L 572.137002 108.18692 
L 572.432786 108.84999 
L 573.000585 109.470123 
L 574.043018 110.167621 
L 575.644641 110.876386 
L 578.378513 111.691391 
L 582.165157 112.448868 
L 586.707821 113.057993 
L 591.524407 113.479424 
L 597.416601 113.772991 
L 603.719446 113.883015 
L 611.631581 113.793835 
L 620.878426 113.439382 
L 629.21865 112.881048 
L 635.739232 112.227578 
L 644.147805 111.121739 
L 658.543548 108.920137 
L 672.506857 106.853388 
L 675.370526 106.488185 
L 675.370526 106.488185 
" style="fill:none;stroke:#000000;stroke-linecap:square;stroke-opacity:0.7;stroke-width:1.2;"/>
   </g>
   <g id="line2d_25">
    <path clip-path="url(#p71c303fc18)" d="M 675.490909 67.719968 
L 670.925078 66.843412 
L 665.467095 66.016283 
L 653.726987 64.537356 
L 643.555827 63.188372 
L 636.536669 62.03656 
L 618.948693 58.914981 
L 614.063667 58.348491 
L 609.148303 57.988084 
L 604.380675 57.86091 
L 599.706931 57.97351 
L 595.657988 58.284541 
L 591.285139 58.872698 
L 587.955537 59.519279 
L 584.83122 60.304871 
L 581.835202 61.249329 
L 579.124382 62.3066 
L 577.159245 63.238014 
L 575.06705 64.473195 
L 573.980499 65.293588 
L 572.966086 66.317958 
L 572.374399 67.299574 
L 572.203055 68.008 
L 572.248289 68.622618 
L 572.428162 69.114844 
L 573.021585 69.909582 
L 574.10322 70.740897 
L 576.044436 71.695183 
L 578.581253 72.551785 
L 581.751885 73.329281 
L 585.831742 74.054013 
L 591.037587 74.680733 
L 595.892456 75.041809 
L 601.343588 75.244201 
L 608.344183 75.249974 
L 615.443411 75.02029 
L 623.445685 74.523247 
L 630.785476 73.843662 
L 638.121625 72.93694 
L 647.554981 71.538537 
L 675.486942 67.149509 
L 675.486942 67.149509 
" style="fill:none;stroke:#000000;stroke-linecap:square;stroke-opacity:0.7;stroke-width:1.2;"/>
   </g>
  </g>
 </g>
 <defs>
  <clipPath id="p71c303fc18">
   <rect height="262.08" width="694.08" x="12.96" y="12.96"/>
  </clipPath>
 </defs>
</svg>
