<?xml version="1.0" encoding="utf-8" standalone="no"?>
<!DOCTYPE svg PUBLIC "-//W3C//DTD SVG 1.1//EN"
  "http://www.w3.org/Graphics/SVG/1.1/DTD/svg11.dtd">
<!-- Created with matplotlib (https://matplotlib.org/) -->
<svg height="288pt" version="1.1" viewBox="0 0 720 288" width="720pt" xmlns="http://www.w3.org/2000/svg" xmlns:xlink="http://www.w3.org/1999/xlink">
 <metadata>
  <rdf:RDF xmlns:cc="http://creativecommons.org/ns#" xmlns:dc="http://purl.org/dc/elements/1.1/" xmlns:rdf="http://www.w3.org/1999/02/22-rdf-syntax-ns#">
   <cc:Work>
    <dc:type rdf:resource="http://purl.org/dc/dcmitype/StillImage"/>
    <dc:date>2020-11-06T20:53:39.411579</dc:date>
    <dc:format>image/svg+xml</dc:format>
    <dc:creator>
     <cc:Agent>
      <dc:title>Matplotlib v3.3.2, https://matplotlib.org/</dc:title>
     </cc:Agent>
    </dc:creator>
   </cc:Work>
  </rdf:RDF>
 </metadata>
 <defs>
  <style type="text/css">*{stroke-linecap:butt;stroke-linejoin:round;}</style>
 </defs>
 <g id="figure_1">
  <g id="patch_1">
   <path d="M 0 288 
L 720 288 
L 720 0 
L 0 0 
z
" style="fill:#ffffff;"/>
  </g>
  <g id="axes_1">
   <g id="line2d_1">
    <path clip-path="url(#p77d2c53f80)" d="M 148.621991 226.802125 
L 141.85804 225.544748 
L 135.818375 224.150803 
L 128.738233 222.243574 
L 115.829761 218.65875 
L 111.050307 217.580537 
L 106.470657 216.801747 
L 101.930355 216.305457 
L 97.09894 216.058731 
L 92.296473 216.046352 
L 86.618185 216.248907 
L 79.642998 216.719746 
L 72.631726 217.393801 
L 66.711776 218.156162 
L 62.079526 218.938713 
L 57.551721 219.938756 
L 54.227491 220.883917 
L 51.143415 221.995287 
L 48.507101 223.234641 
L 46.913786 224.232638 
L 45.891677 225.113949 
L 45.30012 225.921589 
L 45.100524 226.65207 
L 45.171003 227.099717 
L 45.384116 227.495965 
L 45.915758 228.003405 
L 46.904162 228.541944 
L 48.515104 229.076008 
L 50.78923 229.552664 
L 53.782944 229.959421 
L 58.212251 230.337316 
L 64.300429 230.629895 
L 73.121365 230.792598 
L 82.536807 230.737293 
L 92.358714 230.468751 
L 102.015344 229.990355 
L 112.115228 229.262389 
L 139.378374 227.148674 
L 148.589231 226.717465 
L 148.589231 226.717465 
" style="fill:none;stroke:#000000;stroke-linecap:square;stroke-opacity:0.7;stroke-width:1.2;"/>
   </g>
   <g id="line2d_2">
    <path clip-path="url(#p77d2c53f80)" d="M 148.571602 187.366282 
L 142.823602 186.220414 
L 133.419377 184.574615 
L 120.332939 182.517701 
L 111.110205 181.242161 
L 102.770041 180.312564 
L 94.683108 179.654863 
L 86.337156 179.218344 
L 79.546698 179.066681 
L 73.169302 179.150016 
L 68.534085 179.399372 
L 63.8921 179.860307 
L 59.390722 180.564318 
L 55.850356 181.342331 
L 52.630699 182.271477 
L 49.681995 183.38146 
L 47.674936 184.364657 
L 46.268179 185.267632 
L 45.194669 186.273147 
L 44.810658 186.910225 
L 44.694232 187.51768 
L 44.789651 187.961629 
L 45.127581 188.476397 
L 45.795933 189.014048 
L 47.142801 189.661125 
L 48.9882 190.236272 
L 52.194618 190.908176 
L 56.909198 191.565338 
L 62.907503 192.116439 
L 70.037263 192.512698 
L 77.465053 192.691171 
L 84.239577 192.662192 
L 91.801185 192.416385 
L 100.120196 191.893001 
L 109.944197 191.005001 
L 145.108675 187.579921 
L 148.585193 187.278383 
L 148.585193 187.278383 
" style="fill:none;stroke:#000000;stroke-linecap:square;stroke-opacity:0.7;stroke-width:1.2;"/>
   </g>
   <g id="line2d_3">
    <path clip-path="url(#p77d2c53f80)" d="M 148.619215 147.747629 
L 134.613679 143.855809 
L 125.017274 141.397946 
L 117.826053 139.775513 
L 112.032236 138.711074 
L 107.33218 138.07506 
L 102.518992 137.673367 
L 97.778251 137.522644 
L 93.041545 137.577655 
L 87.164645 137.855323 
L 78.840402 138.507359 
L 70.476276 139.403842 
L 64.686526 140.216341 
L 60.123024 141.034082 
L 55.589031 142.07826 
L 52.387674 143.014401 
L 49.452579 144.087125 
L 46.943305 145.277518 
L 45.689311 146.070082 
L 44.923838 146.742218 
L 44.577045 147.258459 
L 44.541579 147.769617 
L 44.74242 148.060515 
L 45.160008 148.319158 
L 45.980749 148.56603 
L 47.440266 148.754 
L 50.450436 148.817837 
L 54.985844 148.638767 
L 64.594027 147.957919 
L 84.3423 146.520295 
L 94.165513 146.031931 
L 103.809067 145.76134 
L 113.568862 145.701674 
L 122.040347 145.877961 
L 130.559804 146.289554 
L 140.257879 147.000495 
L 148.61225 147.684658 
L 148.61225 147.684658 
" style="fill:none;stroke:#000000;stroke-linecap:square;stroke-opacity:0.7;stroke-width:1.2;"/>
   </g>
   <g id="line2d_4">
    <path clip-path="url(#p77d2c53f80)" d="M 148.567808 108.42267 
L 143.767966 107.33277 
L 138.832778 106.46911 
L 134.179814 105.870552 
L 128.490218 105.367263 
L 121.487622 105.015341 
L 112.011642 104.83394 
L 101.323931 104.603155 
L 94.154931 104.202286 
L 75.541871 102.967444 
L 69.800901 102.932258 
L 65.198826 103.117588 
L 60.389565 103.539969 
L 55.653087 104.211749 
L 52.267226 104.879154 
L 49.006105 105.73043 
L 46.438542 106.6704 
L 45.099449 107.449931 
L 44.635368 108.038077 
L 44.662038 108.475209 
L 44.895861 108.771892 
L 45.39279 109.10071 
L 46.451898 109.520652 
L 48.460325 110.02032 
L 51.730508 110.551525 
L 56.334933 111.051486 
L 62.201718 111.464891 
L 69.561277 111.745813 
L 77.980295 111.807237 
L 86.313111 111.630397 
L 96.116895 111.183798 
L 134.40591 109.170462 
L 147.350972 108.417967 
L 148.574899 108.325173 
L 148.574899 108.325173 
" style="fill:none;stroke:#000000;stroke-linecap:square;stroke-opacity:0.7;stroke-width:1.2;"/>
   </g>
   <g id="line2d_5">
    <path clip-path="url(#p77d2c53f80)" d="M 148.593841 68.779741 
L 143.857082 67.497868 
L 138.959665 66.415548 
L 134.285379 65.581265 
L 127.450563 64.615926 
L 119.239799 63.709498 
L 103.746374 62.075335 
L 84.588088 59.824365 
L 78.860186 59.470798 
L 74.124611 59.409867 
L 69.227442 59.622864 
L 65.644005 59.987287 
L 62.046697 60.555108 
L 58.917819 61.232866 
L 55.561773 62.175467 
L 52.550216 63.245253 
L 49.39067 64.668118 
L 46.997407 66.081261 
L 45.727796 67.09522 
L 44.989087 67.972348 
L 44.71282 68.695381 
L 44.770945 69.213262 
L 44.9707 69.558696 
L 45.477913 69.999886 
L 46.469344 70.477359 
L 47.954627 70.911064 
L 51.014654 71.449669 
L 55.582119 71.926493 
L 61.869519 72.319775 
L 70.374289 72.593185 
L 78.526058 72.646513 
L 87.151716 72.490507 
L 96.32733 72.07927 
L 107.249867 71.325691 
L 126.523835 69.960938 
L 148.609066 68.704936 
L 148.609066 68.704936 
" style="fill:none;stroke:#000000;stroke-linecap:square;stroke-opacity:0.7;stroke-width:1.2;"/>
   </g>
   <g id="line2d_6">
    <path clip-path="url(#p77d2c53f80)" d="M 280.337712 226.765116 
L 254.288569 219.219996 
L 245.851024 216.976878 
L 240.09376 215.626218 
L 234.267473 214.501182 
L 229.427661 213.791857 
L 224.665886 213.298437 
L 219.036134 212.965181 
L 214.286311 212.889834 
L 209.519553 213.011617 
L 204.658064 213.363205 
L 200.052034 213.946577 
L 196.512839 214.595005 
L 193.219388 215.38784 
L 189.790803 216.448743 
L 186.714344 217.653319 
L 183.845108 219.05319 
L 181.912791 220.195718 
L 180.159202 221.430113 
L 178.696366 222.683169 
L 177.483702 224.014771 
L 176.700536 225.244473 
L 176.320773 226.356133 
L 176.274967 226.997727 
L 176.383846 227.634955 
L 176.79696 228.44269 
L 177.156982 228.856868 
L 178.315982 229.710256 
L 179.904118 230.437931 
L 181.708149 231.009646 
L 184.99288 231.720514 
L 188.356508 232.208381 
L 192.854014 232.635801 
L 198.774026 232.93303 
L 204.855849 233.001032 
L 210.937852 232.86671 
L 217.287497 232.53044 
L 224.980959 231.873959 
L 233.654743 230.864737 
L 249.83634 228.892511 
L 258.49625 228.085792 
L 268.345914 227.390873 
L 280.360874 226.702224 
L 280.360874 226.702224 
" style="fill:none;stroke:#000000;stroke-linecap:square;stroke-opacity:0.7;stroke-width:1.2;"/>
   </g>
   <g id="line2d_7">
    <path clip-path="url(#p77d2c53f80)" d="M 280.274906 187.476077 
L 276.716658 186.758428 
L 272.855881 186.141603 
L 267.974636 185.581892 
L 262.440817 185.178091 
L 255.428531 184.909007 
L 235.612879 184.377252 
L 229.932421 183.894745 
L 222.783195 183.031768 
L 213.213009 181.867221 
L 208.353115 181.483446 
L 203.876247 181.337981 
L 199.214471 181.432293 
L 194.370186 181.810423 
L 189.871116 182.422986 
L 186.278753 183.103 
L 182.953489 183.908058 
L 179.773771 184.897408 
L 177.944765 185.638106 
L 176.724709 186.297107 
L 176.002543 186.894462 
L 175.746022 187.386516 
L 175.772729 187.680003 
L 176.006538 188.01846 
L 176.64163 188.427076 
L 177.51637 188.762037 
L 179.063345 189.158582 
L 182.191066 189.682935 
L 187.250261 190.225429 
L 193.108499 190.627052 
L 200.165234 190.907141 
L 208.670003 191.016135 
L 217.091259 190.91368 
L 226.721133 190.578261 
L 243.76146 189.68267 
L 270.891426 188.151032 
L 280.22868 187.360495 
L 280.272688 187.356103 
L 280.272688 187.356103 
" style="fill:none;stroke:#000000;stroke-linecap:square;stroke-opacity:0.7;stroke-width:1.2;"/>
   </g>
   <g id="line2d_8">
    <path clip-path="url(#p77d2c53f80)" d="M 280.314197 147.689937 
L 275.758627 146.093352 
L 271.054181 144.697225 
L 265.467361 143.305966 
L 258.698259 141.871251 
L 250.483921 140.35269 
L 239.235678 138.501445 
L 229.793877 137.164787 
L 222.764237 136.407868 
L 216.644968 135.993029 
L 210.844023 135.866881 
L 206.37163 135.985775 
L 202.393331 136.28071 
L 198.05016 136.844159 
L 194.592183 137.505476 
L 190.957763 138.44114 
L 187.679451 139.535153 
L 184.515481 140.864306 
L 181.685803 142.346343 
L 179.880388 143.496041 
L 178.509638 144.537352 
L 177.291891 145.695871 
L 176.514657 146.767443 
L 176.290768 147.323719 
L 176.260583 147.974959 
L 176.422202 148.367325 
L 176.877593 148.8133 
L 177.734193 149.211604 
L 179.023859 149.509995 
L 180.861358 149.706283 
L 184.173719 149.793344 
L 189.367048 149.667657 
L 199.674933 149.138672 
L 221.767916 147.981439 
L 234.482853 147.559397 
L 247.909575 147.328658 
L 260.296932 147.350751 
L 280.323448 147.6765 
L 280.323448 147.6765 
" style="fill:none;stroke:#000000;stroke-linecap:square;stroke-opacity:0.7;stroke-width:1.2;"/>
   </g>
   <g id="line2d_9">
    <path clip-path="url(#p77d2c53f80)" d="M 280.276513 108.399243 
L 276.666219 107.2905 
L 273.155987 106.443293 
L 269.604523 105.803351 
L 264.960742 105.232395 
L 259.996549 104.87814 
L 253.963334 104.70565 
L 244.774515 104.727525 
L 237.755327 104.676939 
L 231.700142 104.379977 
L 225.906639 103.848855 
L 209.727315 102.178396 
L 205.056983 101.988485 
L 200.488249 102.030332 
L 195.876885 102.32649 
L 191.19846 102.90621 
L 187.694512 103.54143 
L 184.15493 104.389681 
L 181.029209 105.374258 
L 178.423174 106.505221 
L 177.345011 107.183099 
L 176.640064 107.917496 
L 176.492409 108.449241 
L 176.585066 108.773652 
L 176.910398 109.158306 
L 177.497359 109.534201 
L 178.614142 109.979156 
L 180.43735 110.452759 
L 183.376721 110.962882 
L 187.819551 111.473097 
L 193.388051 111.881547 
L 200.250254 112.161818 
L 207.876687 112.257118 
L 216.353011 112.143021 
L 226.291157 111.765926 
L 238.318151 111.066739 
L 280.266496 108.34814 
L 280.266496 108.34814 
" style="fill:none;stroke:#000000;stroke-linecap:square;stroke-opacity:0.7;stroke-width:1.2;"/>
   </g>
   <g id="line2d_10">
    <path clip-path="url(#p77d2c53f80)" d="M 280.317827 68.792494 
L 269.866713 68.121391 
L 264.981744 67.564334 
L 260.164989 66.805665 
L 254.735748 65.72108 
L 238.596558 62.2502 
L 234.755093 61.744584 
L 230.269068 61.408866 
L 225.521927 61.312809 
L 219.791968 61.447017 
L 211.782091 61.883452 
L 201.023559 62.681521 
L 193.612597 63.419281 
L 188.866275 64.067228 
L 185.265452 64.713869 
L 181.842545 65.522784 
L 178.931985 66.465632 
L 177.310078 67.199001 
L 176.313418 67.844691 
L 175.773534 68.438572 
L 175.642878 68.865657 
L 175.747672 69.243866 
L 175.984505 69.517464 
L 176.624301 69.903443 
L 177.65843 70.255371 
L 179.461588 70.612361 
L 181.685905 70.868433 
L 186.583737 71.136585 
L 194.18715 71.224609 
L 205.159429 71.088376 
L 228.172667 70.520667 
L 248.512601 69.827201 
L 275.960586 68.942603 
L 280.296963 68.781478 
L 280.296963 68.781478 
" style="fill:none;stroke:#000000;stroke-linecap:square;stroke-opacity:0.7;stroke-width:1.2;"/>
   </g>
   <g id="line2d_11">
    <path clip-path="url(#p77d2c53f80)" d="M 412.015284 226.865009 
L 407.111843 225.62232 
L 402.16925 224.583127 
L 396.434207 223.588247 
L 388.199061 222.410478 
L 365.324753 219.323225 
L 350.971535 217.162072 
L 344.995012 216.514545 
L 340.158318 216.209756 
L 335.564251 216.159729 
L 331.131951 216.383082 
L 327.724332 216.767971 
L 324.037024 217.424785 
L 321.017141 218.174733 
L 318.521539 218.960788 
L 315.251255 220.268101 
L 312.519874 221.687581 
L 310.773605 222.845381 
L 309.472493 223.948091 
L 308.512799 225.075518 
L 307.966854 226.215262 
L 307.880047 226.920301 
L 308.014262 227.600904 
L 308.359433 228.223719 
L 308.993437 228.875873 
L 310.147851 229.629309 
L 311.780859 230.35341 
L 313.466253 230.911892 
L 317.161624 231.811967 
L 320.568659 232.421885 
L 326.140507 233.147291 
L 331.941096 233.643046 
L 338.094708 233.931259 
L 344.237068 233.995155 
L 350.356761 233.842869 
L 356.630922 233.465255 
L 362.693982 232.897078 
L 371.093718 231.855435 
L 393.286849 228.943147 
L 412.032725 226.748362 
L 412.032725 226.748362 
" style="fill:none;stroke:#000000;stroke-linecap:square;stroke-opacity:0.7;stroke-width:1.2;"/>
   </g>
   <g id="line2d_12">
    <path clip-path="url(#p77d2c53f80)" d="M 412.048414 187.289109 
L 403.808061 184.963873 
L 392.77964 182.083949 
L 383.421377 179.855933 
L 377.384532 178.606786 
L 372.452508 177.767404 
L 367.81004 177.175288 
L 363.19405 176.797448 
L 358.436502 176.614899 
L 352.44418 176.629243 
L 345.569493 176.901634 
L 338.934489 177.38214 
L 332.86766 178.023931 
L 327.064467 178.878113 
L 322.735139 179.728646 
L 318.249099 180.882062 
L 315.175137 181.899791 
L 312.237066 183.144781 
L 310.602247 184.035661 
L 309.201395 185.037229 
L 308.368762 185.912466 
L 307.977379 186.66327 
L 307.928524 187.382913 
L 308.126759 187.898481 
L 308.593475 188.44523 
L 309.091244 188.817845 
L 310.482653 189.504221 
L 312.168039 190.054887 
L 314.992967 190.691223 
L 319.460468 191.353912 
L 324.033928 191.800466 
L 330.400579 192.18242 
L 337.78906 192.372561 
L 345.183257 192.338673 
L 352.328821 192.109521 
L 360.278674 191.63127 
L 368.643056 190.888645 
L 396.867192 188.098738 
L 406.161167 187.499692 
L 412.041179 187.216477 
L 412.041179 187.216477 
" style="fill:none;stroke:#000000;stroke-linecap:square;stroke-opacity:0.7;stroke-width:1.2;"/>
   </g>
   <g id="line2d_13">
    <path clip-path="url(#p77d2c53f80)" d="M 412.013117 147.816435 
L 407.001292 146.395365 
L 402.238908 145.292657 
L 396.620948 144.261136 
L 390.874016 143.433592 
L 383.544345 142.617441 
L 371.421076 141.565493 
L 357.072191 140.250039 
L 347.217147 139.424657 
L 341.390737 139.147946 
L 337.015455 139.113477 
L 332.036503 139.312574 
L 327.459736 139.769725 
L 324.304741 140.264135 
L 320.821049 141.004784 
L 317.508626 141.927261 
L 314.24474 143.09147 
L 311.400363 144.395514 
L 309.791012 145.335239 
L 308.660712 146.183881 
L 307.959698 146.944448 
L 307.69584 147.511388 
L 307.741911 148.028052 
L 307.977294 148.345221 
L 308.416887 148.638396 
L 309.317812 148.959978 
L 310.80832 149.233873 
L 312.887045 149.418497 
L 317.202776 149.529786 
L 324.394066 149.429971 
L 337.697438 148.978875 
L 372.028172 147.757146 
L 384.347333 147.572809 
L 397.58428 147.610121 
L 412.013714 147.754997 
L 412.013714 147.754997 
" style="fill:none;stroke:#000000;stroke-linecap:square;stroke-opacity:0.7;stroke-width:1.2;"/>
   </g>
   <g id="line2d_14">
    <path clip-path="url(#p77d2c53f80)" d="M 411.993327 108.347067 
L 407.091695 107.781429 
L 400.238277 107.252375 
L 383.708225 106.097341 
L 376.816388 105.325128 
L 370.593235 104.400727 
L 350.643919 101.176394 
L 344.716058 100.578766 
L 340.064219 100.326621 
L 335.102159 100.307212 
L 330.398536 100.557583 
L 325.739556 101.0911 
L 322.233683 101.698505 
L 318.822729 102.480676 
L 315.236739 103.548502 
L 312.04055 104.80018 
L 310.214933 105.735284 
L 308.722236 106.777447 
L 308.046148 107.50635 
L 307.727117 108.214057 
L 307.729543 108.677822 
L 307.883687 109.069979 
L 308.228094 109.49237 
L 309.038335 110.064865 
L 310.430308 110.679066 
L 312.507803 111.301679 
L 315.938779 112.021097 
L 320.435974 112.689568 
L 326.444163 113.311051 
L 332.809424 113.733508 
L 340.236763 113.975215 
L 347.017597 113.982114 
L 354.009967 113.791456 
L 362.567082 113.320299 
L 372.973265 112.50268 
L 388.605636 111.031791 
L 402.764645 109.503064 
L 412.011258 108.330637 
L 412.011258 108.330637 
" style="fill:none;stroke:#000000;stroke-linecap:square;stroke-opacity:0.7;stroke-width:1.2;"/>
   </g>
   <g id="line2d_15">
    <path clip-path="url(#p77d2c53f80)" d="M 411.996046 68.80975 
L 403.547335 68.070987 
L 392.92231 67.087325 
L 385.68244 66.192989 
L 377.272341 64.912559 
L 366.698316 63.281797 
L 360.681587 62.559321 
L 354.812975 62.051054 
L 347.872742 61.689041 
L 341.874058 61.581816 
L 336.067595 61.680694 
L 331.157981 61.951276 
L 326.715338 62.376812 
L 322.002457 63.0595 
L 318.253999 63.816144 
L 315.442089 64.546745 
L 312.19342 65.647747 
L 310.386198 66.467431 
L 309.117087 67.245454 
L 308.344432 67.97318 
L 308.050572 68.566777 
L 308.055792 68.991465 
L 308.316317 69.47415 
L 308.824465 69.911826 
L 309.686023 70.37254 
L 310.943731 70.835179 
L 313.010499 71.378251 
L 316.455038 72.019947 
L 320.910246 72.611462 
L 326.952233 73.169811 
L 333.097191 73.537016 
L 340.617861 73.763461 
L 347.799602 73.774592 
L 355.986748 73.563058 
L 364.306315 73.133238 
L 375.257365 72.32567 
L 393.099782 70.747705 
L 407.303471 69.321234 
L 411.998521 68.768127 
L 411.998521 68.768127 
" style="fill:none;stroke:#000000;stroke-linecap:square;stroke-opacity:0.7;stroke-width:1.2;"/>
   </g>
   <g id="line2d_16">
    <path clip-path="url(#p77d2c53f80)" d="M 543.729604 226.787938 
L 535.515115 225.466993 
L 529.744052 224.312464 
L 522.567446 222.617848 
L 504.225533 218.025763 
L 499.381727 217.169576 
L 494.74525 216.606013 
L 489.971621 216.267047 
L 483.979616 216.116137 
L 477.795657 216.202013 
L 471.245225 216.516411 
L 465.417632 217.004129 
L 460.651594 217.594505 
L 455.912588 218.422593 
L 452.482245 219.228843 
L 449.411274 220.15028 
L 446.31421 221.342236 
L 444.343864 222.299799 
L 442.444555 223.466956 
L 441.166112 224.519335 
L 440.307005 225.579203 
L 439.971796 226.431888 
L 439.956491 226.971962 
L 440.070868 227.391523 
L 440.588197 228.11525 
L 441.356548 228.68203 
L 442.791537 229.335385 
L 444.713477 229.902433 
L 448.124208 230.55535 
L 451.8603 231.025164 
L 457.842616 231.506362 
L 464.941837 231.81962 
L 472.593319 231.938262 
L 481.002649 231.84984 
L 489.079216 231.559619 
L 497.503266 231.038777 
L 507.349671 230.176299 
L 540.402942 227.023934 
L 543.724529 226.754644 
L 543.724529 226.754644 
" style="fill:none;stroke:#000000;stroke-linecap:square;stroke-opacity:0.7;stroke-width:1.2;"/>
   </g>
   <g id="line2d_17">
    <path clip-path="url(#p77d2c53f80)" d="M 543.718544 187.292889 
L 540.252081 186.145181 
L 536.693809 185.157771 
L 532.011333 184.139017 
L 527.356756 183.368313 
L 521.534437 182.639268 
L 513.491792 181.879944 
L 500.310215 180.650406 
L 490.471325 179.44915 
L 480.947072 178.334069 
L 475.367316 177.889521 
L 470.660811 177.719117 
L 465.78694 177.801169 
L 462.456233 178.03895 
L 458.825755 178.492087 
L 455.480389 179.110547 
L 452.010646 179.981677 
L 448.653273 181.082574 
L 445.669592 182.326051 
L 442.901056 183.805553 
L 441.388774 184.852383 
L 440.373614 185.782342 
L 439.805238 186.570558 
L 439.60855 187.163374 
L 439.624422 187.561151 
L 439.769202 187.913767 
L 440.216098 188.378538 
L 441.21122 188.885904 
L 442.884147 189.336352 
L 445.986463 189.765066 
L 450.535117 190.056636 
L 456.769498 190.199926 
L 466.254864 190.159715 
L 478.560431 189.849389 
L 492.233076 189.274628 
L 520.323303 188.009805 
L 543.729076 187.2229 
L 543.729076 187.2229 
" style="fill:none;stroke:#000000;stroke-linecap:square;stroke-opacity:0.7;stroke-width:1.2;"/>
   </g>
   <g id="line2d_18">
    <path clip-path="url(#p77d2c53f80)" d="M 543.730175 147.889649 
L 534.071303 146.821951 
L 526.920366 145.782134 
L 518.640408 144.313749 
L 507.818456 142.360251 
L 503.281231 141.746907 
L 498.529103 141.355345 
L 493.970324 141.238821 
L 489.013213 141.346491 
L 480.916388 141.807167 
L 454.966173 143.632633 
L 450.288676 144.187295 
L 445.871442 144.954682 
L 442.776974 145.7651 
L 440.867871 146.542343 
L 440.022207 147.124269 
L 439.72812 147.528102 
L 439.682714 147.890742 
L 439.831869 148.210675 
L 440.363864 148.647307 
L 441.222637 149.037573 
L 442.676334 149.461996 
L 445.524535 149.98997 
L 450.07844 150.503263 
L 456.083084 150.892302 
L 463.539482 151.113241 
L 471.548499 151.121896 
L 481.173466 150.884305 
L 492.092325 150.355308 
L 528.422167 148.285756 
L 543.701944 147.791896 
L 543.701944 147.791896 
" style="fill:none;stroke:#000000;stroke-linecap:square;stroke-opacity:0.7;stroke-width:1.2;"/>
   </g>
   <g id="line2d_19">
    <path clip-path="url(#p77d2c53f80)" d="M 543.734415 108.222651 
L 540.113801 107.036128 
L 535.638554 105.838148 
L 530.926904 104.864148 
L 525.010992 103.938198 
L 517.860935 103.099129 
L 492.62954 100.436234 
L 480.352392 98.990068 
L 474.597374 98.531404 
L 469.76145 98.350882 
L 464.882815 98.427685 
L 460.573956 98.773582 
L 457.051562 99.29564 
L 453.402042 100.108855 
L 450.34085 101.042412 
L 447.017206 102.367698 
L 444.069544 103.890005 
L 442.36416 104.984464 
L 440.930864 106.115938 
L 440.045159 107.036439 
L 439.588578 107.78365 
L 439.522359 108.37043 
L 439.783631 108.753348 
L 440.100601 108.929081 
L 440.947679 109.121487 
L 442.423815 109.168805 
L 445.40469 108.950623 
L 452.796229 108.056147 
L 462.803414 106.922934 
L 471.286005 106.216033 
L 479.03131 105.812911 
L 486.020839 105.655309 
L 494.395703 105.697211 
L 505.328044 106.016166 
L 516.317513 106.569256 
L 543.738849 108.177465 
L 543.738849 108.177465 
" style="fill:none;stroke:#000000;stroke-linecap:square;stroke-opacity:0.7;stroke-width:1.2;"/>
   </g>
   <g id="line2d_20">
    <path clip-path="url(#p77d2c53f80)" d="M 543.769674 68.679851 
L 539.162647 66.931895 
L 534.555262 65.373578 
L 528.729081 63.631946 
L 521.568258 61.722726 
L 512.034427 59.429124 
L 502.569638 57.370674 
L 495.433222 56.020079 
L 489.560863 55.114567 
L 484.647216 54.539901 
L 479.960457 54.172253 
L 474.980726 54.002898 
L 470.101564 54.09615 
L 466.678183 54.343551 
L 463.266035 54.768394 
L 459.804335 55.416161 
L 456.487162 56.2842 
L 453.29389 57.398404 
L 450.42289 58.685456 
L 447.732902 60.195715 
L 445.277949 61.907663 
L 443.738511 63.206154 
L 442.317724 64.645901 
L 441.189489 66.107179 
L 440.551842 67.288108 
L 440.26323 68.374906 
L 440.284543 68.993037 
L 440.503796 69.603442 
L 441.135155 70.301068 
L 442.206883 70.877935 
L 443.725847 71.321254 
L 445.619264 71.631846 
L 448.573157 71.875378 
L 453.284986 71.980655 
L 459.267164 71.872119 
L 468.056111 71.463024 
L 480.713449 70.60657 
L 501.666116 69.143037 
L 510.457184 68.795064 
L 520.458908 68.642118 
L 543.780043 68.595317 
L 543.780043 68.595317 
" style="fill:none;stroke:#000000;stroke-linecap:square;stroke-opacity:0.7;stroke-width:1.2;"/>
   </g>
   <g id="line2d_21">
    <path clip-path="url(#p77d2c53f80)" d="M 675.479541 226.691037 
L 669.837979 225.275368 
L 663.927619 223.540914 
L 656.818667 221.198358 
L 642.996663 216.571134 
L 638.114307 215.209647 
L 634.702473 214.433959 
L 631.110179 213.799771 
L 627.561541 213.357894 
L 622.936498 213.028418 
L 618.117645 212.92711 
L 612.213999 213.062641 
L 606.095842 213.449989 
L 600.209219 214.054967 
L 595.518418 214.732987 
L 590.923086 215.624061 
L 587.641457 216.445099 
L 584.538527 217.40766 
L 581.39288 218.621799 
L 578.532146 220.001853 
L 575.997261 221.538868 
L 574.346098 222.793369 
L 573.005813 224.096956 
L 572.190432 225.209216 
L 571.824598 226.026714 
L 571.716631 226.640086 
L 571.786548 227.216462 
L 572.093869 227.804449 
L 572.379633 228.106182 
L 573.432322 228.745286 
L 574.882958 229.215573 
L 576.869641 229.579595 
L 580.047156 229.875562 
L 584.806975 230.029148 
L 592.074506 229.972975 
L 601.951815 229.641882 
L 615.75055 228.931763 
L 652.596265 226.840418 
L 663.241337 226.644293 
L 675.472532 226.679596 
L 675.472532 226.679596 
" style="fill:none;stroke:#000000;stroke-linecap:square;stroke-opacity:0.7;stroke-width:1.2;"/>
   </g>
   <g id="line2d_22">
    <path clip-path="url(#p77d2c53f80)" d="M 675.444282 187.337972 
L 671.97706 186.249451 
L 667.414041 185.052798 
L 662.352662 184.004164 
L 656.220728 183.016057 
L 649.293588 182.142239 
L 622.710578 179.062176 
L 613.222347 177.921023 
L 606.900915 177.413624 
L 602.399782 177.2602 
L 597.822202 177.336991 
L 593.322532 177.691032 
L 589.970547 178.164933 
L 586.534605 178.863938 
L 583.328309 179.737593 
L 580.018432 180.903182 
L 577.90365 181.820233 
L 575.200777 183.264701 
L 573.766341 184.226896 
L 572.580057 185.228503 
L 571.838094 186.091854 
L 571.423258 186.937462 
L 571.399967 187.67754 
L 571.631221 188.174698 
L 572.064502 188.614693 
L 572.91924 189.114339 
L 574.432282 189.638712 
L 577.089887 190.180814 
L 580.422813 190.591484 
L 585.092854 190.940833 
L 591.913401 191.203187 
L 599.496534 191.274992 
L 608.228262 191.129324 
L 616.948833 190.754308 
L 626.554948 190.093697 
L 650.137696 188.299092 
L 662.228099 187.728339 
L 675.443823 187.235256 
L 675.443823 187.235256 
" style="fill:none;stroke:#000000;stroke-linecap:square;stroke-opacity:0.7;stroke-width:1.2;"/>
   </g>
   <g id="line2d_23">
    <path clip-path="url(#p77d2c53f80)" d="M 675.437317 147.812871 
L 670.751996 146.402654 
L 665.740554 145.163536 
L 660.973987 144.209326 
L 655.334685 143.291705 
L 648.308487 142.393941 
L 640.912437 141.692092 
L 633.40348 141.206194 
L 624.893677 140.886131 
L 614.40806 140.725477 
L 604.696843 140.803229 
L 597.988575 141.064098 
L 591.940442 141.531983 
L 587.271028 142.107415 
L 582.980141 142.859594 
L 579.441413 143.696634 
L 576.429877 144.629644 
L 574.489771 145.399369 
L 572.528786 146.454673 
L 571.63789 147.239605 
L 571.401367 147.753715 
L 571.466461 148.106347 
L 571.554638 148.237735 
L 572.110982 148.628436 
L 572.990188 148.923887 
L 574.791021 149.23105 
L 577.637512 149.446853 
L 581.900369 149.542486 
L 589.024076 149.456481 
L 600.03411 149.058837 
L 618.371149 148.120679 
L 631.885281 147.518981 
L 640.407432 147.341753 
L 650.312617 147.356075 
L 665.206765 147.646794 
L 675.457402 147.772756 
L 675.457402 147.772756 
" style="fill:none;stroke:#000000;stroke-linecap:square;stroke-opacity:0.7;stroke-width:1.2;"/>
   </g>
   <g id="line2d_24">
    <path clip-path="url(#p77d2c53f80)" d="M 675.487028 108.20301 
L 639.936173 98.762803 
L 633.925537 97.410416 
L 627.909273 96.295485 
L 622.381361 95.522554 
L 616.382197 94.966095 
L 610.763618 94.715149 
L 605.78237 94.724696 
L 600.744478 94.983579 
L 596.033204 95.491725 
L 592.340449 96.105046 
L 588.627778 96.950983 
L 585.252716 97.960155 
L 582.147935 99.135511 
L 579.037599 100.61422 
L 576.976814 101.81438 
L 575.167931 103.075279 
L 573.577754 104.438831 
L 572.351247 105.816053 
L 571.890065 106.506329 
L 571.322294 107.912017 
L 571.272934 108.732753 
L 571.491217 109.540779 
L 572.058565 110.348567 
L 573.13192 111.170099 
L 574.943351 111.99344 
L 576.715016 112.532261 
L 580.26855 113.261598 
L 583.878164 113.751187 
L 588.546634 114.171085 
L 594.906656 114.486754 
L 601.091089 114.577288 
L 608.106924 114.454762 
L 615.429252 114.080978 
L 622.574019 113.477214 
L 631.260021 112.477266 
L 648.770508 110.357811 
L 659.530992 109.325403 
L 670.89883 108.46526 
L 675.490909 108.152839 
L 675.490909 108.152839 
" style="fill:none;stroke:#000000;stroke-linecap:square;stroke-opacity:0.7;stroke-width:1.2;"/>
   </g>
   <g id="line2d_25">
    <path clip-path="url(#p77d2c53f80)" d="M 675.455537 68.784178 
L 661.186008 67.171354 
L 654.050527 66.106273 
L 645.87776 64.641607 
L 634.007831 62.494429 
L 628.089181 61.717215 
L 622.218844 61.227773 
L 616.504555 60.983384 
L 609.396688 60.923338 
L 602.285755 61.096749 
L 596.448521 61.436145 
L 590.592741 62.012858 
L 585.895658 62.704997 
L 582.257574 63.429175 
L 579.047859 64.254203 
L 575.960288 65.295769 
L 574.133363 66.110353 
L 572.745306 66.940942 
L 571.832762 67.776467 
L 571.479992 68.440624 
L 571.45543 68.931007 
L 571.62256 69.369339 
L 571.985032 69.805308 
L 572.65668 70.298 
L 573.884598 70.89292 
L 575.695104 71.506646 
L 579.161451 72.333098 
L 583.814722 73.11328 
L 589.499036 73.787268 
L 595.524116 74.270285 
L 602.60573 74.588994 
L 610.094611 74.659408 
L 617.079253 74.488644 
L 624.242748 74.089895 
L 632.83067 73.367909 
L 648.460811 71.761168 
L 672.147013 69.153364 
L 675.446706 68.728057 
L 675.446706 68.728057 
" style="fill:none;stroke:#000000;stroke-linecap:square;stroke-opacity:0.7;stroke-width:1.2;"/>
   </g>
  </g>
 </g>
 <defs>
  <clipPath id="p77d2c53f80">
   <rect height="262.08" width="694.08" x="12.96" y="12.96"/>
  </clipPath>
 </defs>
</svg>
