<?xml version="1.0" encoding="utf-8" standalone="no"?>
<!DOCTYPE svg PUBLIC "-//W3C//DTD SVG 1.1//EN"
  "http://www.w3.org/Graphics/SVG/1.1/DTD/svg11.dtd">
<!-- Created with matplotlib (https://matplotlib.org/) -->
<svg height="288pt" version="1.1" viewBox="0 0 720 288" width="720pt" xmlns="http://www.w3.org/2000/svg" xmlns:xlink="http://www.w3.org/1999/xlink">
 <metadata>
  <rdf:RDF xmlns:cc="http://creativecommons.org/ns#" xmlns:dc="http://purl.org/dc/elements/1.1/" xmlns:rdf="http://www.w3.org/1999/02/22-rdf-syntax-ns#">
   <cc:Work>
    <dc:type rdf:resource="http://purl.org/dc/dcmitype/StillImage"/>
    <dc:date>2020-11-06T20:41:55.628558</dc:date>
    <dc:format>image/svg+xml</dc:format>
    <dc:creator>
     <cc:Agent>
      <dc:title>Matplotlib v3.3.2, https://matplotlib.org/</dc:title>
     </cc:Agent>
    </dc:creator>
   </cc:Work>
  </rdf:RDF>
 </metadata>
 <defs>
  <style type="text/css">*{stroke-linecap:butt;stroke-linejoin:round;}</style>
 </defs>
 <g id="figure_1">
  <g id="patch_1">
   <path d="M 0 288 
L 720 288 
L 720 0 
L 0 0 
z
" style="fill:#ffffff;"/>
  </g>
  <g id="axes_1">
   <g id="line2d_1">
    <path clip-path="url(#p7d5e1ec9d9)" d="M 148.317285 225.203031 
L 143.680378 223.911814 
L 140.007006 223.052399 
L 135.432293 222.19084 
L 130.434323 221.484878 
L 125.326672 220.983889 
L 119.329167 220.642336 
L 112.302867 220.516772 
L 95.261523 220.430826 
L 86.714861 219.998493 
L 76.129355 219.459387 
L 69.950885 219.367318 
L 65.355898 219.481182 
L 60.570824 219.813736 
L 56.666814 220.285039 
L 53.430839 220.84724 
L 50.1291 221.636906 
L 47.413577 222.544059 
L 45.924407 223.237987 
L 45.001748 223.859801 
L 44.596459 224.330101 
L 44.514177 224.775439 
L 44.752536 225.129756 
L 45.230986 225.402257 
L 46.479486 225.729367 
L 48.115273 225.9218 
L 51.501953 226.052208 
L 58.058199 225.99773 
L 80.614015 225.650307 
L 99.999085 225.721565 
L 111.912952 225.607199 
L 148.261292 224.979156 
L 148.261292 224.979156 
" style="fill:none;stroke:#000000;stroke-linecap:square;stroke-opacity:0.7;stroke-width:1.2;"/>
   </g>
   <g id="line2d_2">
    <path clip-path="url(#p7d5e1ec9d9)" d="M 148.270521 185.652199 
L 140.115071 184.530641 
L 122.902045 182.456459 
L 105.241716 180.229661 
L 92.936165 178.726675 
L 84.574982 177.910934 
L 77.432314 177.42314 
L 71.540075 177.238314 
L 67.143014 177.287246 
L 62.553791 177.578412 
L 59.302989 177.982656 
L 55.881471 178.641088 
L 52.70425 179.530822 
L 49.843709 180.646925 
L 48.029724 181.583872 
L 46.781685 182.399182 
L 45.611685 183.423879 
L 45.014395 184.263129 
L 44.859007 184.740416 
L 44.914849 185.287347 
L 45.102375 185.590406 
L 45.452039 185.885713 
L 46.211476 186.229716 
L 47.568732 186.532243 
L 50.353587 186.765756 
L 54.962715 186.821498 
L 81.734357 186.750919 
L 98.781276 186.826779 
L 108.181338 186.614111 
L 148.295634 185.413769 
L 148.295634 185.413769 
" style="fill:none;stroke:#000000;stroke-linecap:square;stroke-opacity:0.7;stroke-width:1.2;"/>
   </g>
   <g id="line2d_3">
    <path clip-path="url(#p7d5e1ec9d9)" d="M 148.476807 146.212449 
L 136.656315 143.554944 
L 130.985531 142.008817 
L 125.112169 140.156876 
L 118.284471 137.719623 
L 108.048801 133.962189 
L 104.544117 132.906584 
L 101.030204 132.105338 
L 97.821713 131.635021 
L 94.556736 131.408331 
L 91.064314 131.413357 
L 86.843229 131.694762 
L 82.20528 132.265103 
L 77.079858 133.122447 
L 71.275868 134.298499 
L 64.835901 135.814128 
L 59.180721 137.369506 
L 55.432437 138.584279 
L 52.581928 139.662999 
L 49.471866 141.082642 
L 47.115665 142.462659 
L 45.867576 143.430972 
L 45.058896 144.317127 
L 44.688181 145.039261 
L 44.646494 145.700982 
L 44.935889 146.281557 
L 45.446893 146.7203 
L 46.802728 147.319442 
L 48.511308 147.729534 
L 50.45807 148.01703 
L 54.100966 148.326551 
L 60.808401 148.575151 
L 71.686004 148.676703 
L 87.479498 148.589404 
L 98.524489 148.322731 
L 106.801695 147.904674 
L 136.395036 146.137086 
L 146.300189 145.871677 
L 148.459504 145.839832 
L 148.459504 145.839832 
" style="fill:none;stroke:#000000;stroke-linecap:square;stroke-opacity:0.7;stroke-width:1.2;"/>
   </g>
   <g id="line2d_4">
    <path clip-path="url(#p7d5e1ec9d9)" d="M 148.4576 106.706339 
L 130.467333 101.718731 
L 121.870184 99.028215 
L 109.047286 94.923388 
L 104.475194 93.728672 
L 100.936055 93.034742 
L 97.711593 92.61018 
L 94.115114 92.366514 
L 90.392876 92.338366 
L 85.797506 92.556544 
L 81.227521 92.989036 
L 76.090998 93.678107 
L 70.427511 94.656759 
L 64.686749 95.899834 
L 60.194248 97.105819 
L 56.374133 98.368518 
L 53.242398 99.647046 
L 50.809998 100.871962 
L 49.229334 101.840305 
L 47.935084 102.806644 
L 46.9633 103.733965 
L 46.281304 104.664412 
L 45.950044 105.631398 
L 46.009312 106.283182 
L 46.335513 106.880568 
L 47.04923 107.49491 
L 48.180923 108.050558 
L 49.959664 108.585387 
L 52.598875 109.074031 
L 56.752929 109.525398 
L 62.217111 109.846278 
L 69.735007 110.040959 
L 79.430564 110.067413 
L 90.395936 109.895755 
L 100.321779 109.519825 
L 108.803096 108.963701 
L 137.714783 106.817744 
L 148.458712 106.335922 
L 148.458712 106.335922 
" style="fill:none;stroke:#000000;stroke-linecap:square;stroke-opacity:0.7;stroke-width:1.2;"/>
   </g>
   <g id="line2d_5">
    <path clip-path="url(#p7d5e1ec9d9)" d="M 148.356546 67.198303 
L 138.681949 64.999472 
L 130.501889 63.37101 
L 122.278112 61.937587 
L 113.99353 60.719292 
L 107.193709 59.944181 
L 101.644329 59.509843 
L 95.687024 59.254184 
L 88.317425 59.185238 
L 80.058226 59.343754 
L 71.849258 59.725511 
L 65.572006 60.222153 
L 61.122584 60.74275 
L 56.547213 61.504938 
L 53.553326 62.18889 
L 50.438307 63.144254 
L 48.067772 64.161843 
L 46.707041 64.997017 
L 45.904786 65.755768 
L 45.594164 66.322124 
L 45.567816 66.892186 
L 45.748221 67.28699 
L 46.374418 67.864636 
L 47.036244 68.225628 
L 48.58939 68.782471 
L 50.512447 69.243919 
L 54.087563 69.829792 
L 58.74002 70.351872 
L 65.750443 70.891746 
L 73.985194 71.301514 
L 83.357108 71.53833 
L 91.546832 71.537163 
L 98.588097 71.343915 
L 106.000115 70.91267 
L 114.208228 70.212742 
L 135.616444 68.06986 
L 148.350603 66.86071 
L 148.350603 66.86071 
" style="fill:none;stroke:#000000;stroke-linecap:square;stroke-opacity:0.7;stroke-width:1.2;"/>
   </g>
   <g id="line2d_6">
    <path clip-path="url(#p7d5e1ec9d9)" d="M 280.152385 225.30911 
L 271.580632 223.252243 
L 265.482167 221.9994 
L 257.764909 220.659207 
L 250.617696 219.640493 
L 242.763163 218.754964 
L 234.525483 218.080713 
L 226.289398 217.65024 
L 217.797513 217.430746 
L 209.166848 217.43021 
L 202.345348 217.627595 
L 196.258489 218.026645 
L 192.072974 218.486345 
L 188.449746 219.064169 
L 185.36002 219.746426 
L 182.4799 220.620056 
L 180.707691 221.34052 
L 179.342875 222.062793 
L 178.248612 222.852115 
L 177.546468 223.618737 
L 177.195843 224.35807 
L 177.180362 225.128996 
L 177.426585 225.721225 
L 177.815562 226.213458 
L 178.602661 226.859191 
L 179.763302 227.517784 
L 181.681913 228.30258 
L 184.582053 229.166915 
L 188.897602 230.10678 
L 193.405224 230.840024 
L 199.230651 231.542738 
L 205.918581 232.092353 
L 213.133577 232.424221 
L 220.293027 232.497031 
L 226.238388 232.347595 
L 232.075856 231.985354 
L 237.711902 231.416788 
L 244.955488 230.435247 
L 260.05448 228.059379 
L 275.683049 225.681861 
L 280.155766 225.07731 
L 280.155766 225.07731 
" style="fill:none;stroke:#000000;stroke-linecap:square;stroke-opacity:0.7;stroke-width:1.2;"/>
   </g>
   <g id="line2d_7">
    <path clip-path="url(#p7d5e1ec9d9)" d="M 280.146945 185.74672 
L 273.467252 183.697993 
L 267.335274 182.080813 
L 261.299569 180.706227 
L 253.857915 179.243008 
L 245.744761 177.87937 
L 237.740834 176.739714 
L 230.587928 175.919128 
L 223.365239 175.340167 
L 217.421857 175.081086 
L 211.506682 175.032982 
L 205.526913 175.221392 
L 200.953916 175.557081 
L 196.272817 176.11825 
L 192.879032 176.700379 
L 189.727425 177.409552 
L 186.544359 178.33623 
L 183.495681 179.488744 
L 181.697218 180.338414 
L 179.978838 181.328517 
L 178.570843 182.360151 
L 177.565547 183.365774 
L 177.022582 184.215511 
L 176.820469 184.93772 
L 176.865563 185.502166 
L 177.11931 186.043839 
L 177.725287 186.651501 
L 178.604874 187.16667 
L 180.463554 187.822031 
L 182.467038 188.264386 
L 185.774674 188.735482 
L 190.259231 189.128185 
L 197.401084 189.487717 
L 208.106187 189.754884 
L 220.260522 189.8364 
L 229.751547 189.685406 
L 236.950487 189.340101 
L 245.007008 188.688541 
L 280.145072 185.42762 
L 280.145072 185.42762 
" style="fill:none;stroke:#000000;stroke-linecap:square;stroke-opacity:0.7;stroke-width:1.2;"/>
   </g>
   <g id="line2d_8">
    <path clip-path="url(#p7d5e1ec9d9)" d="M 280.065613 146.201955 
L 274.203377 145.023949 
L 267.899174 143.977829 
L 260.771368 143.057024 
L 253.739552 142.388655 
L 246.532073 141.927031 
L 237.069365 141.586031 
L 221.220387 141.058954 
L 207.915597 140.627626 
L 200.75833 140.634634 
L 195.027694 140.860807 
L 190.445086 141.237436 
L 185.682875 141.882366 
L 182.357337 142.554826 
L 179.511745 143.377266 
L 178.154142 143.927803 
L 177.158023 144.498189 
L 176.610439 145.040218 
L 176.490839 145.385993 
L 176.553783 145.675236 
L 176.819297 145.984013 
L 177.438114 146.334723 
L 178.388429 146.650489 
L 179.857576 146.961782 
L 183.323681 147.387952 
L 187.789788 147.689137 
L 195.307497 147.953667 
L 207.164332 148.131714 
L 231.115802 148.232904 
L 241.263776 148.072728 
L 252.030084 147.643677 
L 268.122278 146.737049 
L 280.053512 145.976153 
L 280.053512 145.976153 
" style="fill:none;stroke:#000000;stroke-linecap:square;stroke-opacity:0.7;stroke-width:1.2;"/>
   </g>
   <g id="line2d_9">
    <path clip-path="url(#p7d5e1ec9d9)" d="M 280.150117 106.657712 
L 273.189216 105.627172 
L 267.022802 104.506726 
L 260.87714 103.160349 
L 255.012561 101.661183 
L 247.129348 99.379905 
L 238.547862 96.916252 
L 233.953918 95.888905 
L 230.57437 95.353136 
L 226.307929 94.957544 
L 221.746546 94.841107 
L 217.022107 94.983207 
L 211.123135 95.436656 
L 204.985069 96.152114 
L 199.279097 97.012959 
L 193.283572 98.159814 
L 188.582554 99.3189 
L 185.404379 100.304061 
L 182.467008 101.435841 
L 179.963796 102.670706 
L 178.47477 103.622784 
L 177.366483 104.576491 
L 176.722645 105.461641 
L 176.556947 105.959879 
L 176.572467 106.473953 
L 176.760219 106.892074 
L 177.232163 107.372951 
L 177.598463 107.611551 
L 179.09685 108.215069 
L 180.850127 108.625515 
L 184.446756 109.109373 
L 189.368159 109.452293 
L 196.531354 109.681645 
L 207.661998 109.766013 
L 220.635097 109.646342 
L 231.432509 109.346615 
L 240.822882 108.848255 
L 280.176172 106.353013 
L 280.176172 106.353013 
" style="fill:none;stroke:#000000;stroke-linecap:square;stroke-opacity:0.7;stroke-width:1.2;"/>
   </g>
   <g id="line2d_10">
    <path clip-path="url(#p7d5e1ec9d9)" d="M 280.210395 67.160529 
L 275.860578 65.428715 
L 272.011103 64.072902 
L 267.158512 62.587922 
L 260.949732 60.950091 
L 253.593098 59.263539 
L 245.185963 57.590568 
L 239.039226 56.565098 
L 233.374374 55.855895 
L 228.913946 55.516071 
L 224.325449 55.38202 
L 218.541062 55.490033 
L 213.872345 55.763639 
L 207.684607 56.341604 
L 201.936197 57.08594 
L 196.239589 58.042593 
L 191.494259 59.055024 
L 187.184684 60.219026 
L 183.962951 61.321363 
L 181.478737 62.394652 
L 179.897733 63.255251 
L 178.702836 64.083587 
L 177.792797 64.953505 
L 177.22957 65.883018 
L 177.109172 66.483518 
L 177.205646 67.101598 
L 177.486844 67.634491 
L 178.101618 68.279017 
L 179.266825 69.037589 
L 180.728323 69.694647 
L 182.717752 70.359588 
L 185.843475 71.135753 
L 190.268427 71.932807 
L 195.577035 72.613889 
L 201.591296 73.14191 
L 208.733246 73.512883 
L 215.830419 73.644704 
L 223.057755 73.541915 
L 229.274062 73.242728 
L 235.43626 72.729807 
L 242.31921 71.923541 
L 254.708891 70.170845 
L 269.329732 68.136557 
L 279.221296 66.991063 
L 280.190183 66.892016 
L 280.190183 66.892016 
" style="fill:none;stroke:#000000;stroke-linecap:square;stroke-opacity:0.7;stroke-width:1.2;"/>
   </g>
   <g id="line2d_11">
    <path clip-path="url(#p7d5e1ec9d9)" d="M 412.006919 225.185741 
L 403.755002 223.161817 
L 399.022068 221.801667 
L 394.081573 220.155883 
L 389.319543 218.348025 
L 383.403319 215.836793 
L 370.637696 210.208733 
L 367.497029 209.103461 
L 363.859808 208.124285 
L 360.383347 207.513038 
L 357.078075 207.204218 
L 353.314141 207.125603 
L 348.858564 207.334689 
L 345.220125 207.701705 
L 339.962028 208.492623 
L 335.458981 209.395806 
L 330.940406 210.522866 
L 327.329637 211.613271 
L 324.149266 212.752222 
L 321.007105 214.091273 
L 318.24374 215.497996 
L 315.654389 217.073037 
L 313.226628 218.862175 
L 311.672925 220.245474 
L 310.23643 221.824527 
L 309.417881 223.022447 
L 308.933814 224.13835 
L 308.827604 224.874852 
L 308.90783 225.397826 
L 309.207684 225.947082 
L 309.582115 226.299189 
L 310.629089 226.821528 
L 312.118324 227.178433 
L 314.00834 227.391286 
L 317.299991 227.501365 
L 322.892004 227.396747 
L 333.736783 226.894946 
L 368.807961 225.186559 
L 382.37683 224.626721 
L 392.26012 224.450444 
L 402.12456 224.491558 
L 412.007598 224.73977 
L 412.007598 224.73977 
" style="fill:none;stroke:#000000;stroke-linecap:square;stroke-opacity:0.7;stroke-width:1.2;"/>
   </g>
   <g id="line2d_12">
    <path clip-path="url(#p7d5e1ec9d9)" d="M 411.827713 185.63055 
L 391.560321 182.623623 
L 383.390653 181.122708 
L 375.121922 179.363573 
L 359.641406 175.947125 
L 354.02773 174.952625 
L 348.566257 174.19179 
L 343.828495 173.719315 
L 339.445444 173.461596 
L 334.805682 173.414576 
L 331.084051 173.584193 
L 327.6729 173.943043 
L 324.152501 174.570029 
L 321.368123 175.297089 
L 319.03132 176.102159 
L 317.075308 176.941426 
L 315.28325 177.869986 
L 313.551321 178.946555 
L 311.742894 180.322214 
L 310.475768 181.519232 
L 309.652139 182.484806 
L 308.860458 183.793581 
L 308.622074 184.730739 
L 308.661768 185.138589 
L 308.906267 185.612903 
L 309.471159 186.024054 
L 309.74274 186.133574 
L 311.011872 186.382235 
L 312.878922 186.434637 
L 316.223271 186.242337 
L 336.552061 184.612834 
L 343.936708 184.325037 
L 351.189103 184.233924 
L 361.13364 184.366326 
L 385.211434 184.811165 
L 411.862683 185.364322 
L 411.862683 185.364322 
" style="fill:none;stroke:#000000;stroke-linecap:square;stroke-opacity:0.7;stroke-width:1.2;"/>
   </g>
   <g id="line2d_13">
    <path clip-path="url(#p7d5e1ec9d9)" d="M 411.939655 146.09626 
L 406.194909 144.069127 
L 400.239807 142.200516 
L 393.130347 140.193897 
L 382.631261 137.4804 
L 371.912232 134.939242 
L 365.196921 133.546101 
L 359.495383 132.574701 
L 354.551693 131.927863 
L 349.784813 131.491723 
L 345.243315 131.26091 
L 340.23957 131.240303 
L 335.592976 131.478807 
L 332.219544 131.83904 
L 328.670539 132.423568 
L 325.876175 133.060143 
L 322.399528 134.112605 
L 320.009824 135.03427 
L 317.035067 136.454753 
L 314.117001 138.218885 
L 312.082946 139.748612 
L 310.451514 141.256157 
L 309.152123 142.800954 
L 308.43147 144.00651 
L 308.100653 144.922228 
L 308.016171 145.637203 
L 308.119338 146.274354 
L 308.455779 146.892405 
L 309.22217 147.539256 
L 310.462836 148.067256 
L 312.179067 148.449255 
L 314.142769 148.679651 
L 317.582617 148.852577 
L 323.4817 148.883922 
L 337.778443 148.645661 
L 359.51654 148.123359 
L 368.100127 147.699327 
L 393.47576 146.217083 
L 404.680814 145.886844 
L 411.943751 145.798728 
L 411.943751 145.798728 
" style="fill:none;stroke:#000000;stroke-linecap:square;stroke-opacity:0.7;stroke-width:1.2;"/>
   </g>
   <g id="line2d_14">
    <path clip-path="url(#p7d5e1ec9d9)" d="M 411.82388 106.755485 
L 406.128996 105.508542 
L 400.01941 104.426716 
L 393.869733 103.585353 
L 387.541737 102.941866 
L 380.217566 102.44627 
L 372.093536 102.151697 
L 356.546943 101.676972 
L 336.162744 100.751473 
L 330.024774 100.761108 
L 325.531542 100.950115 
L 320.999105 101.358903 
L 317.165927 101.948682 
L 314.6571 102.517894 
L 312.545395 103.180291 
L 311.085352 103.810997 
L 309.856988 104.579601 
L 309.202266 105.246962 
L 308.899506 105.883712 
L 308.870987 106.3684 
L 309.060091 106.940829 
L 309.567218 107.586326 
L 310.392328 108.228392 
L 311.317882 108.753617 
L 313.293888 109.589852 
L 316.015893 110.441303 
L 319.999619 111.374402 
L 324.326245 112.139732 
L 329.893122 112.868618 
L 336.262616 113.432235 
L 343.105701 113.76602 
L 349.021291 113.843561 
L 355.172268 113.716605 
L 361.780537 113.336476 
L 369.082516 112.638134 
L 378.361149 111.474595 
L 393.058408 109.376873 
L 411.810115 106.57962 
L 411.810115 106.57962 
" style="fill:none;stroke:#000000;stroke-linecap:square;stroke-opacity:0.7;stroke-width:1.2;"/>
   </g>
   <g id="line2d_15">
    <path clip-path="url(#p7d5e1ec9d9)" d="M 411.965609 67.161701 
L 407.503762 65.668251 
L 402.662926 64.283157 
L 397.829341 63.113836 
L 390.751854 61.663659 
L 382.458992 60.217192 
L 373.065163 58.818781 
L 366.164018 58.005889 
L 360.407347 57.561641 
L 354.794579 57.373607 
L 348.772426 57.410335 
L 341.822853 57.699455 
L 334.753088 58.244249 
L 328.725692 58.946646 
L 324.043759 59.700743 
L 320.054708 60.547185 
L 316.464665 61.539877 
L 313.657996 62.547986 
L 311.350235 63.646179 
L 310.059053 64.490296 
L 309.43131 65.063474 
L 309.006901 65.694393 
L 308.925555 66.311213 
L 309.085074 66.685914 
L 309.510629 67.102144 
L 310.502304 67.599573 
L 311.760981 67.971415 
L 314.73622 68.482228 
L 319.153217 68.895987 
L 325.815609 69.243838 
L 337.181576 69.565675 
L 350.381337 69.742179 
L 360.218695 69.680311 
L 367.383114 69.423575 
L 376.305903 68.850273 
L 395.175514 67.580138 
L 407.320962 67.023572 
L 411.945422 66.853053 
L 411.945422 66.853053 
" style="fill:none;stroke:#000000;stroke-linecap:square;stroke-opacity:0.7;stroke-width:1.2;"/>
   </g>
   <g id="line2d_16">
    <path clip-path="url(#p7d5e1ec9d9)" d="M 543.604113 225.300383 
L 531.71385 223.640624 
L 514.667816 221.526177 
L 489.920797 218.670112 
L 481.782891 217.938864 
L 474.202609 217.483111 
L 468.344389 217.336703 
L 463.526974 217.396091 
L 458.752961 217.666133 
L 455.150647 218.051248 
L 451.920774 218.569575 
L 448.549142 219.343254 
L 445.465816 220.351545 
L 443.80907 221.078916 
L 442.254302 221.968796 
L 441.075728 222.918555 
L 440.323441 223.926649 
L 440.090364 224.857911 
L 440.26247 225.626878 
L 440.661917 226.234905 
L 441.535727 226.993102 
L 442.939829 227.770215 
L 444.469581 228.380658 
L 447.393375 229.242791 
L 451.325359 230.090824 
L 455.95525 230.844373 
L 461.350037 231.510339 
L 467.385724 232.052799 
L 474.757386 232.46731 
L 480.901433 232.611748 
L 486.978935 232.561805 
L 492.505411 232.324925 
L 498.51307 231.830766 
L 504.426837 231.120541 
L 513.915242 229.731687 
L 543.632109 225.11549 
L 543.632109 225.11549 
" style="fill:none;stroke:#000000;stroke-linecap:square;stroke-opacity:0.7;stroke-width:1.2;"/>
   </g>
   <g id="line2d_17">
    <path clip-path="url(#p7d5e1ec9d9)" d="M 543.679495 185.668576 
L 527.066262 181.391467 
L 513.801321 177.716789 
L 504.620896 175.213988 
L 499.941234 174.119934 
L 495.310485 173.272314 
L 491.896692 172.823733 
L 487.357371 172.453606 
L 482.585842 172.311367 
L 477.712504 172.39046 
L 472.959918 172.664461 
L 468.451182 173.102129 
L 463.843588 173.746032 
L 459.036492 174.676648 
L 455.854113 175.479506 
L 452.478674 176.544049 
L 449.608228 177.672214 
L 446.735247 179.077082 
L 444.167746 180.67342 
L 442.477322 182.024702 
L 441.338861 183.228559 
L 440.755536 184.112564 
L 440.437572 185.092217 
L 440.510931 185.772544 
L 440.733038 186.183439 
L 441.126826 186.570378 
L 442.279612 187.143802 
L 443.829648 187.520113 
L 446.096666 187.788628 
L 449.565933 187.941939 
L 455.303232 187.943108 
L 471.305783 187.602821 
L 494.662012 186.979136 
L 512.462316 186.131359 
L 525.785443 185.651857 
L 540.249326 185.36292 
L 543.688611 185.322792 
L 543.688611 185.322792 
" style="fill:none;stroke:#000000;stroke-linecap:square;stroke-opacity:0.7;stroke-width:1.2;"/>
   </g>
   <g id="line2d_18">
    <path clip-path="url(#p7d5e1ec9d9)" d="M 543.673212 146.171351 
L 534.683799 144.033798 
L 514.240267 139.544336 
L 504.911541 137.598825 
L 499.369161 136.668363 
L 494.782862 136.140654 
L 490.155955 135.865315 
L 485.422324 135.829217 
L 480.081252 136.028226 
L 473.875536 136.500832 
L 466.510539 137.327966 
L 459.870111 138.323176 
L 454.769276 139.304582 
L 450.502668 140.344398 
L 447.347297 141.304162 
L 444.313952 142.463717 
L 442.058544 143.599482 
L 440.848189 144.456892 
L 440.311703 145.08153 
L 440.190547 145.456951 
L 440.37277 145.918116 
L 440.761543 146.18499 
L 441.753777 146.490069 
L 443.494447 146.703257 
L 446.53498 146.786357 
L 452.19995 146.647926 
L 477.618001 145.729763 
L 491.436485 145.580917 
L 525.183658 145.409948 
L 543.649362 145.80727 
L 543.649362 145.80727 
" style="fill:none;stroke:#000000;stroke-linecap:square;stroke-opacity:0.7;stroke-width:1.2;"/>
   </g>
   <g id="line2d_19">
    <path clip-path="url(#p7d5e1ec9d9)" d="M 543.641955 106.58139 
L 527.199271 102.797525 
L 514.859588 99.738676 
L 502.066307 96.579442 
L 496.567567 95.484342 
L 491.729471 94.758205 
L 487.083265 94.270391 
L 481.180468 93.908783 
L 475.229745 93.803429 
L 470.38834 93.912155 
L 465.810299 94.204263 
L 461.190072 94.742772 
L 457.125107 95.49593 
L 453.807532 96.377768 
L 450.782812 97.460602 
L 447.997197 98.763252 
L 446.133613 99.844275 
L 444.522424 100.956106 
L 442.926636 102.286173 
L 441.532654 103.779502 
L 440.841723 104.808264 
L 440.459466 105.768002 
L 440.4238 106.509047 
L 440.547654 106.898988 
L 440.933918 107.387949 
L 441.367606 107.67918 
L 442.598843 108.102839 
L 444.232216 108.339247 
L 447.446341 108.447276 
L 453.2312 108.283063 
L 476.058376 107.377901 
L 525.068901 106.269672 
L 540.11344 106.234075 
L 543.667388 106.257231 
L 543.667388 106.257231 
" style="fill:none;stroke:#000000;stroke-linecap:square;stroke-opacity:0.7;stroke-width:1.2;"/>
   </g>
   <g id="line2d_20">
    <path clip-path="url(#p7d5e1ec9d9)" d="M 543.638819 67.245427 
L 537.999909 65.89546 
L 531.893565 64.681848 
L 524.674475 63.518726 
L 517.037349 62.532947 
L 509.776899 61.810803 
L 504.063932 61.419702 
L 498.254015 61.24164 
L 492.36776 61.330739 
L 485.452544 61.722231 
L 473.810495 62.677139 
L 444.536642 65.25436 
L 442.257762 65.716469 
L 441.080794 66.163431 
L 440.774575 66.45281 
L 440.765202 66.692315 
L 440.941822 66.913019 
L 441.673158 67.302649 
L 443.133077 67.739968 
L 445.080714 68.136559 
L 449.15823 68.709124 
L 454.787078 69.228233 
L 462.016235 69.636493 
L 470.534558 69.8722 
L 480.901685 69.912277 
L 492.683153 69.729671 
L 503.558218 69.34518 
L 515.395711 68.694595 
L 543.613964 66.875152 
L 543.613964 66.875152 
" style="fill:none;stroke:#000000;stroke-linecap:square;stroke-opacity:0.7;stroke-width:1.2;"/>
   </g>
   <g id="line2d_21">
    <path clip-path="url(#p7d5e1ec9d9)" d="M 675.354904 225.33375 
L 671.051391 224.216514 
L 666.123802 223.166001 
L 660.982494 222.327388 
L 656.470057 221.784382 
L 651.285058 221.362537 
L 645.276338 221.122911 
L 639.329774 221.114017 
L 624.514051 221.267356 
L 618.662047 220.998195 
L 597.455697 219.696115 
L 592.785169 219.701178 
L 587.921908 219.930118 
L 583.576661 220.376621 
L 580.217 220.919474 
L 576.761534 221.721635 
L 573.918689 222.682232 
L 572.652275 223.292551 
L 571.710214 223.975216 
L 571.389127 224.45486 
L 571.407169 224.884387 
L 571.660814 225.19531 
L 572.421675 225.596979 
L 573.362918 225.87142 
L 575.312346 226.209815 
L 579.422115 226.587394 
L 586.484795 226.916535 
L 599.71304 227.246624 
L 623.101242 227.579453 
L 633.306873 227.521654 
L 642.122986 227.223316 
L 653.527288 226.597797 
L 668.450297 225.558107 
L 675.338675 225.005532 
L 675.338675 225.005532 
" style="fill:none;stroke:#000000;stroke-linecap:square;stroke-opacity:0.7;stroke-width:1.2;"/>
   </g>
   <g id="line2d_22">
    <path clip-path="url(#p7d5e1ec9d9)" d="M 675.405091 185.725373 
L 670.589192 184.473178 
L 665.580623 183.353439 
L 658.732323 182.089702 
L 652.5845 181.16671 
L 645.335001 180.296067 
L 638.52972 179.680477 
L 631.635907 179.259823 
L 624.50151 179.041993 
L 616.216284 179.031747 
L 607.819192 179.236302 
L 599.529059 179.651515 
L 592.402692 180.23591 
L 586.737149 180.925648 
L 582.350525 181.66318 
L 578.701684 182.476987 
L 575.742833 183.352709 
L 573.915494 184.088872 
L 572.818671 184.771625 
L 572.554639 185.149294 
L 572.610291 185.438669 
L 572.845953 185.636371 
L 573.521625 185.884801 
L 574.756735 186.099011 
L 577.565083 186.305067 
L 583.499758 186.421011 
L 602.209147 186.396375 
L 625.774985 186.267437 
L 637.712068 185.911932 
L 652.044362 185.541585 
L 668.580258 185.378281 
L 675.363562 185.326476 
L 675.363562 185.326476 
" style="fill:none;stroke:#000000;stroke-linecap:square;stroke-opacity:0.7;stroke-width:1.2;"/>
   </g>
   <g id="line2d_23">
    <path clip-path="url(#p7d5e1ec9d9)" d="M 675.398721 146.157062 
L 665.023829 144.036956 
L 651.646807 141.091577 
L 629.550278 136.12582 
L 624.081334 135.218497 
L 619.178031 134.611662 
L 613.57688 134.149278 
L 607.423933 133.911497 
L 602.753109 133.928058 
L 598.164762 134.137232 
L 594.531996 134.469432 
L 590.941548 134.980983 
L 587.660712 135.650424 
L 584.428487 136.55055 
L 581.381695 137.67803 
L 579.509377 138.539686 
L 577.664922 139.54729 
L 575.787759 140.786302 
L 574.185497 142.104548 
L 572.945027 143.462047 
L 572.326867 144.483549 
L 572.083606 145.413556 
L 572.129074 145.896463 
L 572.375623 146.419425 
L 573.019465 146.993727 
L 574.155107 147.486178 
L 575.990331 147.881277 
L 579.089806 148.163936 
L 583.39842 148.26183 
L 590.711083 148.160045 
L 640.657959 146.792279 
L 662.306489 146.102578 
L 675.406178 145.851704 
L 675.406178 145.851704 
" style="fill:none;stroke:#000000;stroke-linecap:square;stroke-opacity:0.7;stroke-width:1.2;"/>
   </g>
   <g id="line2d_24">
    <path clip-path="url(#p7d5e1ec9d9)" d="M 675.490909 106.643211 
L 671.046623 104.895563 
L 666.485588 103.382067 
L 661.623805 102.072882 
L 656.788768 101.013901 
L 650.775857 99.949401 
L 643.641197 98.951841 
L 635.777215 98.084457 
L 627.513404 97.36917 
L 620.388881 96.941093 
L 613.266865 96.746113 
L 607.307562 96.791282 
L 601.429158 97.047504 
L 596.301745 97.473613 
L 591.931792 98.01961 
L 587.420293 98.805961 
L 583.862272 99.62945 
L 580.819274 100.517965 
L 577.547076 101.731958 
L 575.645738 102.618221 
L 574.046377 103.538287 
L 572.757937 104.521806 
L 572.143989 105.221354 
L 571.874671 105.823845 
L 571.917204 106.36003 
L 572.125497 106.678957 
L 572.609892 107.037784 
L 573.613575 107.417526 
L 574.953616 107.68639 
L 577.126855 107.905711 
L 580.426821 108.027798 
L 587.501418 107.996411 
L 635.795429 107.08756 
L 654.844943 106.402408 
L 666.017244 106.245079 
L 675.443392 106.321172 
L 675.443392 106.321172 
" style="fill:none;stroke:#000000;stroke-linecap:square;stroke-opacity:0.7;stroke-width:1.2;"/>
   </g>
   <g id="line2d_25">
    <path clip-path="url(#p7d5e1ec9d9)" d="M 675.398004 67.080556 
L 628.940664 57.949191 
L 623.27256 57.099252 
L 616.909376 56.408967 
L 611.09112 56.012303 
L 605.237967 55.834962 
L 599.55899 55.902942 
L 594.982804 56.176865 
L 590.620921 56.684862 
L 587.013605 57.3517 
L 584.204284 58.075212 
L 581.201194 59.104435 
L 578.384833 60.384125 
L 576.688247 61.353652 
L 575.042547 62.502908 
L 573.527189 63.879215 
L 572.740604 64.887118 
L 572.321845 65.780178 
L 572.244865 66.504738 
L 572.380953 66.983196 
L 572.759778 67.479094 
L 573.512414 67.964698 
L 574.731661 68.383618 
L 576.364537 68.693512 
L 579.511099 68.986636 
L 584.933842 69.166656 
L 595.516292 69.225964 
L 616.67041 69.13182 
L 626.146522 68.890443 
L 636.235921 68.385272 
L 652.943314 67.529701 
L 672.060646 66.819534 
L 675.434275 66.720986 
L 675.434275 66.720986 
" style="fill:none;stroke:#000000;stroke-linecap:square;stroke-opacity:0.7;stroke-width:1.2;"/>
   </g>
  </g>
 </g>
 <defs>
  <clipPath id="p7d5e1ec9d9">
   <rect height="262.08" width="694.08" x="12.96" y="12.96"/>
  </clipPath>
 </defs>
</svg>
