<svg viewBox="0 0 1496 400" xmlns="http://www.w3.org/2000/svg"><g><g><g><g><g><line x1="50" y1="378" x2="45" y2="378" style="visibility: inherit;" fill="rgb(0, 0, 0)" stroke="rgb(204, 204, 204)" stroke-width="1px"></line><line x1="50" y1="340.2" x2="45" y2="340.2" style="visibility: inherit;" fill="rgb(0, 0, 0)" stroke="rgb(204, 204, 204)" stroke-width="1px"></line><line x1="50" y1="302.4" x2="45" y2="302.4" style="visibility: inherit;" fill="rgb(0, 0, 0)" stroke="rgb(204, 204, 204)" stroke-width="1px"></line><line x1="50" y1="264.6" x2="45" y2="264.6" style="visibility: inherit;" fill="rgb(0, 0, 0)" stroke="rgb(204, 204, 204)" stroke-width="1px"></line><line x1="50" y1="226.79999999999998" x2="45" y2="226.79999999999998" style="visibility: inherit;" fill="rgb(0, 0, 0)" stroke="rgb(204, 204, 204)" stroke-width="1px"></line><line x1="50" y1="189" x2="45" y2="189" style="visibility: inherit;" fill="rgb(0, 0, 0)" stroke="rgb(204, 204, 204)" stroke-width="1px"></line><line x1="50" y1="151.20000000000002" x2="45" y2="151.20000000000002" style="visibility: inherit;" fill="rgb(0, 0, 0)" stroke="rgb(204, 204, 204)" stroke-width="1px"></line><line x1="50" y1="113.40000000000003" x2="45" y2="113.40000000000003" style="visibility: inherit;" fill="rgb(0, 0, 0)" stroke="rgb(204, 204, 204)" stroke-width="1px"></line><line x1="50" y1="75.59999999999997" x2="45" y2="75.59999999999997" style="visibility: inherit;" fill="rgb(0, 0, 0)" stroke="rgb(204, 204, 204)" stroke-width="1px"></line><line x1="50" y1="37.80000000000001" x2="45" y2="37.80000000000001" style="visibility: inherit;" fill="rgb(0, 0, 0)" stroke="rgb(204, 204, 204)" stroke-width="1px"></line><line x1="50" y1="0" x2="45" y2="0" style="visibility: inherit;" fill="rgb(0, 0, 0)" stroke="rgb(204, 204, 204)" stroke-width="1px"></line></g><g transform="translate(40, 0)"><text x="0" y="378" dx="0em" dy="0.3em" style="text-anchor: end; visibility: hidden; font-family: &quot;Helvetica Neue&quot;, sans-serif; font-size: 12px; font-weight: 200;" fill="rgb(50, 49, 63)" stroke="none" stroke-width="1px">-3.5</text><text x="0" y="340.2" dx="0em" dy="0.3em" style="text-anchor: end; visibility: inherit; font-family: &quot;Helvetica Neue&quot;, sans-serif; font-size: 12px; font-weight: 200;" fill="rgb(50, 49, 63)" stroke="none" stroke-width="1px">-3</text><text x="0" y="302.4" dx="0em" dy="0.3em" style="text-anchor: end; visibility: inherit; font-family: &quot;Helvetica Neue&quot;, sans-serif; font-size: 12px; font-weight: 200;" fill="rgb(50, 49, 63)" stroke="none" stroke-width="1px">-2.5</text><text x="0" y="264.6" dx="0em" dy="0.3em" style="text-anchor: end; visibility: inherit; font-family: &quot;Helvetica Neue&quot;, sans-serif; font-size: 12px; font-weight: 200;" fill="rgb(50, 49, 63)" stroke="none" stroke-width="1px">-2</text><text x="0" y="226.79999999999998" dx="0em" dy="0.3em" style="text-anchor: end; visibility: inherit; font-family: &quot;Helvetica Neue&quot;, sans-serif; font-size: 12px; font-weight: 200;" fill="rgb(50, 49, 63)" stroke="none" stroke-width="1px">-1.5</text><text x="0" y="189" dx="0em" dy="0.3em" style="text-anchor: end; visibility: inherit; font-family: &quot;Helvetica Neue&quot;, sans-serif; font-size: 12px; font-weight: 200;" fill="rgb(50, 49, 63)" stroke="none" stroke-width="1px">-1</text><text x="0" y="151.20000000000002" dx="0em" dy="0.3em" style="text-anchor: end; visibility: inherit; font-family: &quot;Helvetica Neue&quot;, sans-serif; font-size: 12px; font-weight: 200;" fill="rgb(50, 49, 63)" stroke="none" stroke-width="1px">-0.5</text><text x="0" y="113.40000000000003" dx="0em" dy="0.3em" style="text-anchor: end; visibility: inherit; font-family: &quot;Helvetica Neue&quot;, sans-serif; font-size: 12px; font-weight: 200;" fill="rgb(50, 49, 63)" stroke="none" stroke-width="1px">0</text><text x="0" y="75.59999999999997" dx="0em" dy="0.3em" style="text-anchor: end; visibility: inherit; font-family: &quot;Helvetica Neue&quot;, sans-serif; font-size: 12px; font-weight: 200;" fill="rgb(50, 49, 63)" stroke="none" stroke-width="1px">0.5</text><text x="0" y="37.80000000000001" dx="0em" dy="0.3em" style="text-anchor: end; visibility: inherit; font-family: &quot;Helvetica Neue&quot;, sans-serif; font-size: 12px; font-weight: 200;" fill="rgb(50, 49, 63)" stroke="none" stroke-width="1px">1</text><text x="0" y="0" dx="0em" dy="0.3em" style="text-anchor: end; visibility: hidden; font-family: &quot;Helvetica Neue&quot;, sans-serif; font-size: 12px; font-weight: 200;" fill="rgb(50, 49, 63)" stroke="none" stroke-width="1px">1.5</text></g><line x1="50" y1="0" x2="50" y2="378" fill="rgb(0, 0, 0)" stroke="rgb(204, 204, 204)" stroke-width="1px"></line></g></g><g transform="translate(50, 0)" clip-path="url(#clip_0)"><clipPath id="clip_0"><rect width="1446" height="378"></rect></clipPath><g><g><g><line x1="0" y1="0" x2="0" y2="378" fill="rgb(0, 0, 0)" stroke="rgb(60, 60, 60)" stroke-width="1px" opacity="0.25"></line><line x1="120.5" y1="0" x2="120.5" y2="378" fill="rgb(0, 0, 0)" stroke="rgb(60, 60, 60)" stroke-width="1px" opacity="0.25"></line><line x1="241" y1="0" x2="241" y2="378" fill="rgb(0, 0, 0)" stroke="rgb(60, 60, 60)" stroke-width="1px" opacity="0.25"></line><line x1="361.5" y1="0" x2="361.5" y2="378" fill="rgb(0, 0, 0)" stroke="rgb(60, 60, 60)" stroke-width="1px" opacity="0.25"></line><line x1="482" y1="0" x2="482" y2="378" fill="rgb(0, 0, 0)" stroke="rgb(60, 60, 60)" stroke-width="1px" opacity="0.25"></line><line x1="602.5" y1="0" x2="602.5" y2="378" fill="rgb(0, 0, 0)" stroke="rgb(60, 60, 60)" stroke-width="1px" opacity="0.25"></line><line x1="723" y1="0" x2="723" y2="378" fill="rgb(0, 0, 0)" stroke="rgb(60, 60, 60)" stroke-width="1px" opacity="0.25"></line><line x1="843.5" y1="0" x2="843.5" y2="378" fill="rgb(0, 0, 0)" stroke="rgb(60, 60, 60)" stroke-width="1px" opacity="0.25"></line><line x1="964" y1="0" x2="964" y2="378" fill="rgb(0, 0, 0)" stroke="rgb(60, 60, 60)" stroke-width="1px" opacity="0.25"></line><line x1="1084.5" y1="0" x2="1084.5" y2="378" fill="rgb(0, 0, 0)" stroke="rgb(60, 60, 60)" stroke-width="1px" opacity="0.25"></line><line x1="1205" y1="0" x2="1205" y2="378" fill="rgb(0, 0, 0)" stroke="rgb(60, 60, 60)" stroke-width="1px" opacity="0.25"></line><line x1="1325.5" y1="0" x2="1325.5" y2="378" fill="rgb(0, 0, 0)" stroke="rgb(60, 60, 60)" stroke-width="1px" opacity="0.25"></line><line x1="1446" y1="0" x2="1446" y2="378" fill="rgb(0, 0, 0)" stroke="rgb(60, 60, 60)" stroke-width="1px" opacity="0.25"></line></g><g><line x1="0" y1="378" x2="1446" y2="378" fill="rgb(0, 0, 0)" stroke="rgb(60, 60, 60)" stroke-width="1px" opacity="0.25"></line><line x1="0" y1="340.2" x2="1446" y2="340.2" fill="rgb(0, 0, 0)" stroke="rgb(60, 60, 60)" stroke-width="1px" opacity="0.25"></line><line x1="0" y1="302.4" x2="1446" y2="302.4" fill="rgb(0, 0, 0)" stroke="rgb(60, 60, 60)" stroke-width="1px" opacity="0.25"></line><line x1="0" y1="264.6" x2="1446" y2="264.6" fill="rgb(0, 0, 0)" stroke="rgb(60, 60, 60)" stroke-width="1px" opacity="0.25"></line><line x1="0" y1="226.79999999999998" x2="1446" y2="226.79999999999998" fill="rgb(0, 0, 0)" stroke="rgb(60, 60, 60)" stroke-width="1px" opacity="0.25"></line><line x1="0" y1="189" x2="1446" y2="189" fill="rgb(0, 0, 0)" stroke="rgb(60, 60, 60)" stroke-width="1px" opacity="0.25"></line><line x1="0" y1="151.20000000000002" x2="1446" y2="151.20000000000002" fill="rgb(0, 0, 0)" stroke="rgb(60, 60, 60)" stroke-width="1px" opacity="0.25"></line><line x1="0" y1="113.40000000000003" x2="1446" y2="113.40000000000003" fill="rgb(0, 0, 0)" stroke="rgb(60, 60, 60)" stroke-width="1px" opacity="0.25"></line><line x1="0" y1="75.59999999999997" x2="1446" y2="75.59999999999997" fill="rgb(0, 0, 0)" stroke="rgb(60, 60, 60)" stroke-width="1px" opacity="0.25"></line><line x1="0" y1="37.80000000000001" x2="1446" y2="37.80000000000001" fill="rgb(0, 0, 0)" stroke="rgb(60, 60, 60)" stroke-width="1px" opacity="0.25"></line><line x1="0" y1="0" x2="1446" y2="0" fill="rgb(0, 0, 0)" stroke="rgb(60, 60, 60)" stroke-width="1px" opacity="0.25"></line></g></g></g><g><g><line x1="0" y1="113.40000000000003" x2="1446" y2="113.40000000000003" fill="rgb(0, 0, 0)" stroke="rgb(153, 153, 153)" stroke-width="1.5px"></line></g></g><g><g><line x1="120.5" y1="0" x2="120.5" y2="378" fill="rgb(0, 0, 0)" stroke="rgb(153, 153, 153)" stroke-width="1.5px"></line></g></g><g><g><g><g><g><path stroke="rgb(255, 112, 67)" stroke-width="2px" d="M120.5,94.98505808115004L122.91000000000001,105.00355413258075L125.32000000000001,117.09662967771288L127.73,116.22050451636318L130.14,121.2514334142208L132.54999999999998,131.92924055457115L134.96,139.41762560606003L137.37,140.64941840171812L139.78,142.5882042646408L142.19,150.3699563026428L144.6,149.1731759905815L147.01,155.576988530159L149.42,159.06330814361573L151.82999999999998,159.9117593050003L154.24,156.1772115468979L156.65,157.6123764038086L159.06,164.00951313972473L161.47,157.0953812599182L163.88,166.99997577667236L166.29000000000002,165.46043586730957L168.7,173.32235162258146L171.10999999999999,164.42643656730652L173.51999999999998,166.78189351558686L175.93,172.71505851745607L178.34,161.72637927532196L180.75,163.93339591026304L183.16000000000003,163.8761367559433L185.57,165.2804708003998L187.98000000000002,163.78892998695372L190.39,156.6896555185318L192.8,162.54158885478975L195.21,171.23528316020966L197.61999999999998,167.44539585113526L200.03,164.66659426689148L202.44000000000003,171.72560212612152L204.85,166.2507987499237L207.26000000000002,158.4591377735138L209.67,162.97584278583528L212.08,168.7755773305893L214.49,171.4924739599228L216.9,162.12381827831268L219.31,174.97506251335145L221.71999999999997,169.66633186340331L224.13,171.09159228801727L226.54000000000002,172.31526732444763L228.95,174.54603116512297L231.36,171.44226236343385L233.76999999999998,175.42925148010252L236.18,164.41043086051943L238.59,175.5715905189514L241,178.9231008052826L243.41,173.0294724225998L245.82000000000002,185.03593797683718L248.23,180.2864202260971L250.64000000000001,184.10343432426453L253.04999999999998,172.24829750061033L255.46,190.86480002403258L257.87,180.4607391357422L260.28,189.2893283843994L262.69,183.3126523733139L265.09999999999997,187.78022725582125L267.51,187.0482680797577L269.92,184.94568507671354L272.33,187.0515214920044L274.74,183.74891602993011L277.15000000000003,191.62098855972292L279.56,190.64747028350828L281.97,183.9250869512558L284.38,195.76997237205504L286.79,196.97765522003172L289.2,195.89038467407227L291.61,188.42228050231935L294.02,200.21574668884276L296.43,200.3629162788391L298.84,193.12428131103516L301.25,176.60015544891357L303.65999999999997,192.50596175193786L306.07,199.04538345336914L308.48,198.25183024406434L310.89,193.6189351558685L313.3,202.18615193367006L315.71,209.7847801208496L318.12,202.93222875595094L320.53000000000003,215.2302351951599L322.94,217.02145042419434L325.35,214.79779272079466L327.76,218.07454662322996L330.17,201.16635589599608L332.58000000000004,221.7535160064697L334.99,219.68277769088743L337.4,221.46670203208922L339.81,231.76472511291504L342.21999999999997,230.19946432113647L344.63,233.2215147972107L347.03999999999996,219.59373693466185L349.45,226.6306423187256L351.86,231.44653959274294L354.27,233.14049491882324L356.68,222.16800613403322L359.09,229.13562555313112L361.5,234.44036378860474L363.90999999999997,231.05747294425964L366.32000000000005,220.76436152458191L368.73,236.6905354499817L371.14,227.6608745098114L373.55,211.09167852401734L375.96000000000004,223.35626764297487L378.37,208.44975457191467L380.78,223.39493007659914L383.19,229.17313442230224L385.6,229.28566102981566L388.01,236.38639998435974L390.42,239.18703818321228L392.83,203.48199234008788L395.23999999999995,229.80595464706423L397.65000000000003,211.30218601226807L400.06,224.26445631980894L402.46999999999997,227.91468572616577L404.88000000000005,235.68414058685303L407.29,231.06723318099975L409.7,236.24906272888185L412.10999999999996,238.46800704002382L414.52000000000004,240.8003791809082L416.93,242.18261976242067L419.34,235.6823651790619L421.75,230.13704566955565L424.16,238.57616271972657L426.57,252.8168978691101L428.98,235.34616422653198L431.39,242.9062020778656L433.8,244.66539688110353L436.21000000000004,237.66309843063354L438.62,253.02602648735046L441.03,241.9312328338623L443.43999999999994,254.72695727348326L445.85,256.7982813835144L448.26,257.1371860027313L450.66999999999996,251.00938854217532L453.08000000000004,230.98952078819275L455.49,263.4676322937012L457.9,260.3848574638367L460.31000000000006,265.5224009513855L462.72,258.82237243652344L465.13,263.9659541130066L467.53999999999996,263.12969198226926L469.95,256.1866939544678L472.36,245.4232166290283L474.77,254.9414481639862L477.18,272.5489963531494L479.59,244.1640830039978L482,270.9591141700745L484.41,237.39469642639162L486.82,230.7810230255127L489.22999999999996,246.3325138092041L491.64000000000004,238.35535426139833L494.05,257.17922801971434L496.46,262.2421683311462L498.86999999999995,268.8548684120178L501.28000000000003,249.67307424545288L503.69,258.58151178359986L506.09999999999997,262.10354232788086L508.51000000000005,262.33438138961793L510.92,267.54912357330323L513.3299999999999,249.2781947135925L515.74,268.4223358154297L518.15,262.65749659538267L520.56,248.45981283187868L522.97,255.7303150177002L525.38,269.59455556869506L527.79,252.96197662353518L530.1999999999999,262.73323531150817L532.61,275.3542127609253L535.02,235.3721915245056L537.43,275.6677840232849L539.84,249.92948999404908L542.25,276.69202308654786L544.66,234.79463424682618L547.07,250.52202558517456L549.48,267.3347047805786L551.89,244.6800597667694L554.3000000000001,262.68162231445314L556.71,239.5607840538025L559.12,222.1606791973114L561.53,264.0632320404053L563.94,261.9156555175781L566.35,269.40315399169924L568.76,264.90659580230715L571.1700000000001,273.2173067092896L573.58,258.6680651664734L575.99,264.1893580913544L578.4,246.81184687614441L580.8100000000001,248.13733749389647L583.22,265.3552602767944L585.63,281.2591650009155L588.04,285.1898998260498L590.45,277.3977161407471L592.86,238.79589872360228L595.27,272.4530161857605L597.68,274.7861183166504L600.0899999999999,264.2077069759369L602.5,285.4961711883545L604.91,279.580584526062L607.3199999999999,277.5712554931641L609.73,276.32421627044675L612.14,278.30088500976564L614.55,265.85691661834716L616.96,195.94802684783937L619.37,274.46097536087035L621.78,273.00378913879393L624.1899999999999,273.85162296295164L626.6,263.839656829834L629.01,276.19379138946533L631.42,230.59602012634278L633.83,266.5411605834961L636.24,281.03566188812255L638.65,266.50538206100464L641.0600000000001,275.3430736541748L643.47,264.02263197898867L645.88,254.0151629447937L648.29,275.3824210166931L650.7,273.68379735946655L653.11,262.22142219543457L655.52,272.1587310791016L657.9300000000001,271.23162574768065L660.34,256.8059778213501L662.75,280.04433546066286L665.1600000000001,279.374853515625L667.57,249.04861736297607L669.98,268.834987449646L672.39,261.43529505729674L674.8,271.4692420005798L677.21,278.4597885131836L679.62,273.36413383483887L682.03,258.30015020370485L684.4399999999999,281.58993158340456L686.85,270.5270502090454L689.26,263.4183895111084L691.67,274.7304408073425L694.0799999999999,272.6752395629883L696.49,282.90596837997435L698.9,233.3298957824707L701.31,271.46298751831057L703.72,281.7350103378296L706.13,266.3393228530884L708.54,277.94082870483396L710.9499999999999,266.10709590911864L713.36,277.1032147407532L715.77,268.8732893943787L718.18,251.28491020202637L720.59,233.49034037590027L723,284.88204231262205L725.4100000000001,275.65682516098025L727.8199999999999,241.35804648399355L730.23,264.46481666564944L732.6400000000001,267.9370997428894L735.05,286.05426206588743L737.46,288.2995851516724L739.8700000000001,279.48628063201903L742.28,275.37631072998045L744.69,280.59748764038085L747.1,270.07825956344607L749.51,247.33726844787597L751.9200000000001,281.78697481155393L754.3299999999999,276.21412296295165L756.74,285.474686050415L759.15,277.3962741851807L761.56,275.2633695602417L763.97,273.5845727920532L766.38,276.73967971801756L768.79,279.23862476348876L771.2,284.8665232658386L773.61,273.79307956695556L776.02,259.94552965164183L778.43,252.599667263031L780.84,273.05274353027346L783.25,274.9307825088501L785.66,281.11720447540284L788.07,288.92052726745607L790.4799999999999,281.16415815353395L792.89,267.293825340271L795.3000000000001,294.76282653808596L797.7099999999999,288.6434555053711L800.12,235.66744995117188L802.5300000000001,264.88954467773436L804.9399999999999,298.32496147155763L807.35,288.1503607749939L809.7600000000001,247.35755496025084L812.17,286.4721227645874L814.58,272.3686257362366L816.9899999999999,263.11621870994566L819.4,264.2511368751526L821.8100000000001,276.08486967086793L824.2199999999999,288.83386573791506L826.63,251.22462744712828L829.0400000000001,279.19078788757326L831.4499999999999,279.8300067901611L833.86,289.0390920639038L836.2700000000001,255.9690848350525L838.68,234.48287444114683L841.09,257.2225227355957L843.5,266.6034530639648L845.91,278.72130517959596L848.32,242.9814811706543L850.73,286.3720510482788L853.14,235.74419803619386L855.55,283.39190740585326L857.96,286.65593605041505L860.37,278.1401790618896L862.78,278.14681205749514L865.19,288.53069458007815L867.6,286.2712042808533L870.01,278.1613037109375L872.4200000000001,269.5663292884827L874.8299999999999,286.7881453514099L877.24,242.7573562145233L879.65,257.13807821273804L882.06,273.3430452346802L884.47,241.30850629806517L886.8799999999999,304.4905471801758L889.29,289.5553482055664L891.7,290.1666652679443L894.1099999999999,263.29974360466L896.52,248.2660951137543L898.9300000000001,285.0255889892578L901.3399999999999,270.06484937667847L903.75,284.4997618675232L906.1600000000001,275.8471632957459L908.5699999999999,277.8779233932495L910.98,287.16067457199097L913.3900000000001,272.65004138946534L915.8,268.1458588600159L918.21,282.8702799797058L920.6200000000001,274.85293493270876L923.03,294.86426811218263L925.44,262.5295230388641L927.85,279.8214992523193L930.26,279.35524291992186L932.6700000000001,257.64898109436035L935.0799999999999,289.59195585250853L937.49,295.41969137191774L939.9,253.32024850845335L942.31,265.42535734176636L944.72,261.858509016037L947.13,267.6619025230408L949.54,283.95874013900755L951.95,254.6960543632507L954.36,246.1014404296875L956.77,276.5665008544922L959.18,280.8451435089111L961.59,287.65402164459226L964,300.0797132492065L966.41,292.2790040016174L968.82,273.8899429321289L971.2299999999999,295.858442401886L973.64,289.7947308540344L976.0500000000001,219.51079745292665L978.4599999999999,271.9735299110413L980.87,288.4071189880371L983.2800000000001,239.88562960624697L985.6899999999999,303.31629066467286L988.1,291.22992725372313L990.5100000000001,274.75875720977785L992.92,286.81361389160156L995.33,268.80257949829104L997.7399999999999,293.71265029907227L1000.15,261.938023853302L1002.5600000000001,235.27010107040405L1004.9699999999999,292.53268003463745L1007.38,286.2030718803406L1009.7900000000001,291.99043264389036L1012.1999999999999,291.0498450279236L1014.61,280.03155612945557L1017.0200000000001,289.6998682022095L1019.43,241.84729299545288L1021.84,269.24489936828616L1024.25,293.90751256942747L1026.6599999999999,291.5477342605591L1029.07,289.0039804458618L1031.48,283.399171257019L1033.8899999999999,282.7364484786987L1036.3,254.8069948196411L1038.71,293.2704025268555L1041.12,293.9389291763306L1043.53,294.06272106170655L1045.94,298.33386554718015L1048.35,283.89224796295167L1050.76,281.1545511245728L1053.17,274.2384635925293L1055.58,301.5421085357666L1057.99,263.00252051353453L1060.3999999999999,265.3856855392456L1062.81,283.8148149490356L1065.22,254.44887614250183L1067.6299999999999,296.7796537399292L1070.04,265.3501773834229L1072.45,269.37545042037965L1074.86,254.9588958263397L1077.27,275.206484413147L1079.68,291.0853892326355L1082.09,299.6445671081543L1084.5,278.71652870178224L1086.91,282.4361972808838L1089.32,310.901049041748L1091.73,277.179584312439L1094.14,266.04220790863036L1096.55,284.6487699508667L1098.96,265.1460325241089L1101.3700000000001,282.29041557312013L1103.78,262.35987696647646L1106.19,287.1694164276123L1108.6000000000001,276.9559009552002L1111.01,294.2702905654907L1113.42,282.8396564483643L1115.83,254.22032618522644L1118.24,255.63005404472352L1120.65,283.9052976608276L1123.06,236.75363001823425L1125.47,279.75379943847656L1127.88,300.60029525756835L1130.29,295.61271514892576L1132.7,259.7697011947632L1135.1100000000001,293.5093165397644L1137.52,261.1579619407654L1139.93,272.74466972351075L1142.3400000000001,288.78200941085817L1144.75,285.6341302871704L1147.16,281.93742485046386L1149.5700000000002,289.4563940048218L1151.98,275.4122875213623L1154.39,263.98597025871277L1156.8,276.8414277076721L1159.21,287.6892233848572L1161.6200000000001,289.93124799728395L1164.03,263.3666773796082L1166.44,280.88303089141846L1168.85,290.1515968322754L1171.26,283.6531356811523L1173.67,295.14189863204956L1176.08,283.45940895080565L1178.49,285.03150100708007L1180.9,294.1994905471802L1183.31,217.9571714401245L1185.72,296.9862859725952L1188.1299999999999,269.9863529205322L1190.54,289.29608459472655L1192.95,282.3240852355957L1195.36,278.8210524559021L1197.77,279.99548921585085L1200.1799999999998,292.7519834518433L1202.59,303.42425708770753L1205,290.74386205673215L1207.4099999999999,284.796155834198L1209.82,285.340079498291L1212.23,296.0569996833801L1214.6399999999999,248.44748411178588L1217.05,305.80083417892456L1219.46,300.13879737854006L1221.87,274.56261520385743L1224.28,303.9862772941589L1226.69,255.6958522796631L1229.1,286.3521160125732L1231.51,270.0300081253052L1233.92,295.521493434906L1236.33,298.2114795684814L1238.74,289.1781506538391L1241.1499999999999,300.2573621749878L1243.56,272.0606420516968L1245.97,236.73455114364626L1248.3799999999999,301.9835452079773L1250.79,278.83080368041993L1253.2,292.6463061332703L1255.61,251.42256288528444L1258.02,286.2356420516968L1260.43,296.00453052520754L1262.84,275.1865133285522L1265.25,296.73853998184205L1267.66,281.6679594039917L1270.07,293.23008184432985L1272.48,277.1709506034851L1274.89,296.84728145599365L1277.3,279.52735834121705L1279.71,303.54586801528933L1282.1200000000001,300.3731692314148L1284.53,286.1899500846863L1286.94,300.17688302993776L1289.3500000000001,291.54277753829956L1291.76,285.0506429672241L1294.17,302.6220972061157L1296.58,295.198495388031L1298.99,268.4877825737L1301.4,305.7593779563904L1303.81,296.69418182373045L1306.22,252.0663419723511L1308.63,273.18570985794065L1311.04,291.4547281265259L1313.45,288.80019607543943L1315.8600000000001,289.31277523040774L1318.27,293.7244743347168L1320.68,291.83672018051146L1323.0900000000001,294.63153648376465" style="fill: none;" fill="none"></path></g></g></g></g></g></g><g transform="translate(50, 378)" clip-path="url(#clip_1)"><clipPath id="clip_1"><rect width="1446" height="22"></rect></clipPath><g><g><line x1="0" y1="0" x2="0" y2="5" style="visibility: inherit;" fill="rgb(0, 0, 0)" stroke="rgb(204, 204, 204)" stroke-width="1px"></line><line x1="120.5" y1="0" x2="120.5" y2="5" style="visibility: inherit;" fill="rgb(0, 0, 0)" stroke="rgb(204, 204, 204)" stroke-width="1px"></line><line x1="241" y1="0" x2="241" y2="5" style="visibility: inherit;" fill="rgb(0, 0, 0)" stroke="rgb(204, 204, 204)" stroke-width="1px"></line><line x1="361.5" y1="0" x2="361.5" y2="5" style="visibility: inherit;" fill="rgb(0, 0, 0)" stroke="rgb(204, 204, 204)" stroke-width="1px"></line><line x1="482" y1="0" x2="482" y2="5" style="visibility: inherit;" fill="rgb(0, 0, 0)" stroke="rgb(204, 204, 204)" stroke-width="1px"></line><line x1="602.5" y1="0" x2="602.5" y2="5" style="visibility: inherit;" fill="rgb(0, 0, 0)" stroke="rgb(204, 204, 204)" stroke-width="1px"></line><line x1="723" y1="0" x2="723" y2="5" style="visibility: inherit;" fill="rgb(0, 0, 0)" stroke="rgb(204, 204, 204)" stroke-width="1px"></line><line x1="843.5" y1="0" x2="843.5" y2="5" style="visibility: inherit;" fill="rgb(0, 0, 0)" stroke="rgb(204, 204, 204)" stroke-width="1px"></line><line x1="964" y1="0" x2="964" y2="5" style="visibility: inherit;" fill="rgb(0, 0, 0)" stroke="rgb(204, 204, 204)" stroke-width="1px"></line><line x1="1084.5" y1="0" x2="1084.5" y2="5" style="visibility: inherit;" fill="rgb(0, 0, 0)" stroke="rgb(204, 204, 204)" stroke-width="1px"></line><line x1="1205" y1="0" x2="1205" y2="5" style="visibility: inherit;" fill="rgb(0, 0, 0)" stroke="rgb(204, 204, 204)" stroke-width="1px"></line><line x1="1325.5" y1="0" x2="1325.5" y2="5" style="visibility: inherit;" fill="rgb(0, 0, 0)" stroke="rgb(204, 204, 204)" stroke-width="1px"></line><line x1="1446" y1="0" x2="1446" y2="5" style="visibility: inherit;" fill="rgb(0, 0, 0)" stroke="rgb(204, 204, 204)" stroke-width="1px"></line></g><g transform="translate(0, 8)"><text x="0" y="0" dx="0em" dy="0.95em" style="text-anchor: middle; visibility: hidden; font-family: &quot;Helvetica Neue&quot;, sans-serif; font-size: 12px; font-weight: 200;" fill="rgb(50, 49, 63)" stroke="none" stroke-width="1px">-50</text><text x="120.5" y="0" dx="0em" dy="0.95em" style="text-anchor: middle; visibility: inherit; font-family: &quot;Helvetica Neue&quot;, sans-serif; font-size: 12px; font-weight: 200;" fill="rgb(50, 49, 63)" stroke="none" stroke-width="1px">0</text><text x="241" y="0" dx="0em" dy="0.95em" style="text-anchor: middle; visibility: inherit; font-family: &quot;Helvetica Neue&quot;, sans-serif; font-size: 12px; font-weight: 200;" fill="rgb(50, 49, 63)" stroke="none" stroke-width="1px">50</text><text x="361.5" y="0" dx="0em" dy="0.95em" style="text-anchor: middle; visibility: inherit; font-family: &quot;Helvetica Neue&quot;, sans-serif; font-size: 12px; font-weight: 200;" fill="rgb(50, 49, 63)" stroke="none" stroke-width="1px">100</text><text x="482" y="0" dx="0em" dy="0.95em" style="text-anchor: middle; visibility: inherit; font-family: &quot;Helvetica Neue&quot;, sans-serif; font-size: 12px; font-weight: 200;" fill="rgb(50, 49, 63)" stroke="none" stroke-width="1px">150</text><text x="602.5" y="0" dx="0em" dy="0.95em" style="text-anchor: middle; visibility: inherit; font-family: &quot;Helvetica Neue&quot;, sans-serif; font-size: 12px; font-weight: 200;" fill="rgb(50, 49, 63)" stroke="none" stroke-width="1px">200</text><text x="723" y="0" dx="0em" dy="0.95em" style="text-anchor: middle; visibility: inherit; font-family: &quot;Helvetica Neue&quot;, sans-serif; font-size: 12px; font-weight: 200;" fill="rgb(50, 49, 63)" stroke="none" stroke-width="1px">250</text><text x="843.5" y="0" dx="0em" dy="0.95em" style="text-anchor: middle; visibility: inherit; font-family: &quot;Helvetica Neue&quot;, sans-serif; font-size: 12px; font-weight: 200;" fill="rgb(50, 49, 63)" stroke="none" stroke-width="1px">300</text><text x="964" y="0" dx="0em" dy="0.95em" style="text-anchor: middle; visibility: inherit; font-family: &quot;Helvetica Neue&quot;, sans-serif; font-size: 12px; font-weight: 200;" fill="rgb(50, 49, 63)" stroke="none" stroke-width="1px">350</text><text x="1084.5" y="0" dx="0em" dy="0.95em" style="text-anchor: middle; visibility: inherit; font-family: &quot;Helvetica Neue&quot;, sans-serif; font-size: 12px; font-weight: 200;" fill="rgb(50, 49, 63)" stroke="none" stroke-width="1px">400</text><text x="1205" y="0" dx="0em" dy="0.95em" style="text-anchor: middle; visibility: inherit; font-family: &quot;Helvetica Neue&quot;, sans-serif; font-size: 12px; font-weight: 200;" fill="rgb(50, 49, 63)" stroke="none" stroke-width="1px">450</text><text x="1325.5" y="0" dx="0em" dy="0.95em" style="text-anchor: middle; visibility: inherit; font-family: &quot;Helvetica Neue&quot;, sans-serif; font-size: 12px; font-weight: 200;" fill="rgb(50, 49, 63)" stroke="none" stroke-width="1px">500</text><text x="1446" y="0" dx="0em" dy="0.95em" style="text-anchor: middle; visibility: hidden; font-family: &quot;Helvetica Neue&quot;, sans-serif; font-size: 12px; font-weight: 200;" fill="rgb(50, 49, 63)" stroke="none" stroke-width="1px">550</text></g><line x1="0" y1="0" x2="1446" y2="0" fill="rgb(0, 0, 0)" stroke="rgb(204, 204, 204)" stroke-width="1px"></line></g></g></g></g></svg>