<svg viewBox="0 0 1496 400" xmlns="http://www.w3.org/2000/svg"><g><g><g><g><g><line x1="50" y1="378" x2="45" y2="378" style="visibility: inherit;" fill="rgb(0, 0, 0)" stroke="rgb(204, 204, 204)" stroke-width="1px"></line><line x1="50" y1="348.9230769230769" x2="45" y2="348.9230769230769" style="visibility: inherit;" fill="rgb(0, 0, 0)" stroke="rgb(204, 204, 204)" stroke-width="1px"></line><line x1="50" y1="319.8461538461538" x2="45" y2="319.8461538461538" style="visibility: inherit;" fill="rgb(0, 0, 0)" stroke="rgb(204, 204, 204)" stroke-width="1px"></line><line x1="50" y1="290.7692307692308" x2="45" y2="290.7692307692308" style="visibility: inherit;" fill="rgb(0, 0, 0)" stroke="rgb(204, 204, 204)" stroke-width="1px"></line><line x1="50" y1="261.6923076923077" x2="45" y2="261.6923076923077" style="visibility: inherit;" fill="rgb(0, 0, 0)" stroke="rgb(204, 204, 204)" stroke-width="1px"></line><line x1="50" y1="232.61538461538464" x2="45" y2="232.61538461538464" style="visibility: inherit;" fill="rgb(0, 0, 0)" stroke="rgb(204, 204, 204)" stroke-width="1px"></line><line x1="50" y1="203.53846153846155" x2="45" y2="203.53846153846155" style="visibility: inherit;" fill="rgb(0, 0, 0)" stroke="rgb(204, 204, 204)" stroke-width="1px"></line><line x1="50" y1="174.46153846153848" x2="45" y2="174.46153846153848" style="visibility: inherit;" fill="rgb(0, 0, 0)" stroke="rgb(204, 204, 204)" stroke-width="1px"></line><line x1="50" y1="145.38461538461542" x2="45" y2="145.38461538461542" style="visibility: inherit;" fill="rgb(0, 0, 0)" stroke="rgb(204, 204, 204)" stroke-width="1px"></line><line x1="50" y1="116.30769230769232" x2="45" y2="116.30769230769232" style="visibility: inherit;" fill="rgb(0, 0, 0)" stroke="rgb(204, 204, 204)" stroke-width="1px"></line><line x1="50" y1="87.23076923076928" x2="45" y2="87.23076923076928" style="visibility: inherit;" fill="rgb(0, 0, 0)" stroke="rgb(204, 204, 204)" stroke-width="1px"></line><line x1="50" y1="58.15384615384613" x2="45" y2="58.15384615384613" style="visibility: inherit;" fill="rgb(0, 0, 0)" stroke="rgb(204, 204, 204)" stroke-width="1px"></line><line x1="50" y1="29.076923076923038" x2="45" y2="29.076923076923038" style="visibility: inherit;" fill="rgb(0, 0, 0)" stroke="rgb(204, 204, 204)" stroke-width="1px"></line><line x1="50" y1="0" x2="45" y2="0" style="visibility: inherit;" fill="rgb(0, 0, 0)" stroke="rgb(204, 204, 204)" stroke-width="1px"></line></g><g transform="translate(40, 0)"><text x="0" y="378" dx="0em" dy="0.3em" style="text-anchor: end; visibility: hidden; font-family: &quot;Helvetica Neue&quot;, sans-serif; font-size: 12px; font-weight: 200;" fill="rgb(50, 49, 63)" stroke="none" stroke-width="1px">-0.1</text><text x="0" y="348.9230769230769" dx="0em" dy="0.3em" style="text-anchor: end; visibility: inherit; font-family: &quot;Helvetica Neue&quot;, sans-serif; font-size: 12px; font-weight: 200;" fill="rgb(50, 49, 63)" stroke="none" stroke-width="1px">0</text><text x="0" y="319.8461538461538" dx="0em" dy="0.3em" style="text-anchor: end; visibility: inherit; font-family: &quot;Helvetica Neue&quot;, sans-serif; font-size: 12px; font-weight: 200;" fill="rgb(50, 49, 63)" stroke="none" stroke-width="1px">0.1</text><text x="0" y="290.7692307692308" dx="0em" dy="0.3em" style="text-anchor: end; visibility: inherit; font-family: &quot;Helvetica Neue&quot;, sans-serif; font-size: 12px; font-weight: 200;" fill="rgb(50, 49, 63)" stroke="none" stroke-width="1px">0.2</text><text x="0" y="261.6923076923077" dx="0em" dy="0.3em" style="text-anchor: end; visibility: inherit; font-family: &quot;Helvetica Neue&quot;, sans-serif; font-size: 12px; font-weight: 200;" fill="rgb(50, 49, 63)" stroke="none" stroke-width="1px">0.3</text><text x="0" y="232.61538461538464" dx="0em" dy="0.3em" style="text-anchor: end; visibility: inherit; font-family: &quot;Helvetica Neue&quot;, sans-serif; font-size: 12px; font-weight: 200;" fill="rgb(50, 49, 63)" stroke="none" stroke-width="1px">0.4</text><text x="0" y="203.53846153846155" dx="0em" dy="0.3em" style="text-anchor: end; visibility: inherit; font-family: &quot;Helvetica Neue&quot;, sans-serif; font-size: 12px; font-weight: 200;" fill="rgb(50, 49, 63)" stroke="none" stroke-width="1px">0.5</text><text x="0" y="174.46153846153848" dx="0em" dy="0.3em" style="text-anchor: end; visibility: inherit; font-family: &quot;Helvetica Neue&quot;, sans-serif; font-size: 12px; font-weight: 200;" fill="rgb(50, 49, 63)" stroke="none" stroke-width="1px">0.6</text><text x="0" y="145.38461538461542" dx="0em" dy="0.3em" style="text-anchor: end; visibility: inherit; font-family: &quot;Helvetica Neue&quot;, sans-serif; font-size: 12px; font-weight: 200;" fill="rgb(50, 49, 63)" stroke="none" stroke-width="1px">0.7</text><text x="0" y="116.30769230769232" dx="0em" dy="0.3em" style="text-anchor: end; visibility: inherit; font-family: &quot;Helvetica Neue&quot;, sans-serif; font-size: 12px; font-weight: 200;" fill="rgb(50, 49, 63)" stroke="none" stroke-width="1px">0.8</text><text x="0" y="87.23076923076928" dx="0em" dy="0.3em" style="text-anchor: end; visibility: inherit; font-family: &quot;Helvetica Neue&quot;, sans-serif; font-size: 12px; font-weight: 200;" fill="rgb(50, 49, 63)" stroke="none" stroke-width="1px">0.9</text><text x="0" y="58.15384615384613" dx="0em" dy="0.3em" style="text-anchor: end; visibility: inherit; font-family: &quot;Helvetica Neue&quot;, sans-serif; font-size: 12px; font-weight: 200;" fill="rgb(50, 49, 63)" stroke="none" stroke-width="1px">1</text><text x="0" y="29.076923076923038" dx="0em" dy="0.3em" style="text-anchor: end; visibility: inherit; font-family: &quot;Helvetica Neue&quot;, sans-serif; font-size: 12px; font-weight: 200;" fill="rgb(50, 49, 63)" stroke="none" stroke-width="1px">1.1</text><text x="0" y="0" dx="0em" dy="0.3em" style="text-anchor: end; visibility: hidden; font-family: &quot;Helvetica Neue&quot;, sans-serif; font-size: 12px; font-weight: 200;" fill="rgb(50, 49, 63)" stroke="none" stroke-width="1px">1.2</text></g><line x1="50" y1="0" x2="50" y2="378" fill="rgb(0, 0, 0)" stroke="rgb(204, 204, 204)" stroke-width="1px"></line></g></g><g transform="translate(50, 0)" clip-path="url(#clip_0)"><clipPath id="clip_0"><rect width="1446" height="378"></rect></clipPath><g><g><g><line x1="0" y1="0" x2="0" y2="378" fill="rgb(0, 0, 0)" stroke="rgb(60, 60, 60)" stroke-width="1px" opacity="0.25"></line><line x1="120.5" y1="0" x2="120.5" y2="378" fill="rgb(0, 0, 0)" stroke="rgb(60, 60, 60)" stroke-width="1px" opacity="0.25"></line><line x1="241" y1="0" x2="241" y2="378" fill="rgb(0, 0, 0)" stroke="rgb(60, 60, 60)" stroke-width="1px" opacity="0.25"></line><line x1="361.5" y1="0" x2="361.5" y2="378" fill="rgb(0, 0, 0)" stroke="rgb(60, 60, 60)" stroke-width="1px" opacity="0.25"></line><line x1="482" y1="0" x2="482" y2="378" fill="rgb(0, 0, 0)" stroke="rgb(60, 60, 60)" stroke-width="1px" opacity="0.25"></line><line x1="602.5" y1="0" x2="602.5" y2="378" fill="rgb(0, 0, 0)" stroke="rgb(60, 60, 60)" stroke-width="1px" opacity="0.25"></line><line x1="723" y1="0" x2="723" y2="378" fill="rgb(0, 0, 0)" stroke="rgb(60, 60, 60)" stroke-width="1px" opacity="0.25"></line><line x1="843.5" y1="0" x2="843.5" y2="378" fill="rgb(0, 0, 0)" stroke="rgb(60, 60, 60)" stroke-width="1px" opacity="0.25"></line><line x1="964" y1="0" x2="964" y2="378" fill="rgb(0, 0, 0)" stroke="rgb(60, 60, 60)" stroke-width="1px" opacity="0.25"></line><line x1="1084.5" y1="0" x2="1084.5" y2="378" fill="rgb(0, 0, 0)" stroke="rgb(60, 60, 60)" stroke-width="1px" opacity="0.25"></line><line x1="1205" y1="0" x2="1205" y2="378" fill="rgb(0, 0, 0)" stroke="rgb(60, 60, 60)" stroke-width="1px" opacity="0.25"></line><line x1="1325.5" y1="0" x2="1325.5" y2="378" fill="rgb(0, 0, 0)" stroke="rgb(60, 60, 60)" stroke-width="1px" opacity="0.25"></line><line x1="1446" y1="0" x2="1446" y2="378" fill="rgb(0, 0, 0)" stroke="rgb(60, 60, 60)" stroke-width="1px" opacity="0.25"></line></g><g><line x1="0" y1="378" x2="1446" y2="378" fill="rgb(0, 0, 0)" stroke="rgb(60, 60, 60)" stroke-width="1px" opacity="0.25"></line><line x1="0" y1="348.9230769230769" x2="1446" y2="348.9230769230769" fill="rgb(0, 0, 0)" stroke="rgb(60, 60, 60)" stroke-width="1px" opacity="0.25"></line><line x1="0" y1="319.8461538461538" x2="1446" y2="319.8461538461538" fill="rgb(0, 0, 0)" stroke="rgb(60, 60, 60)" stroke-width="1px" opacity="0.25"></line><line x1="0" y1="290.7692307692308" x2="1446" y2="290.7692307692308" fill="rgb(0, 0, 0)" stroke="rgb(60, 60, 60)" stroke-width="1px" opacity="0.25"></line><line x1="0" y1="261.6923076923077" x2="1446" y2="261.6923076923077" fill="rgb(0, 0, 0)" stroke="rgb(60, 60, 60)" stroke-width="1px" opacity="0.25"></line><line x1="0" y1="232.61538461538464" x2="1446" y2="232.61538461538464" fill="rgb(0, 0, 0)" stroke="rgb(60, 60, 60)" stroke-width="1px" opacity="0.25"></line><line x1="0" y1="203.53846153846155" x2="1446" y2="203.53846153846155" fill="rgb(0, 0, 0)" stroke="rgb(60, 60, 60)" stroke-width="1px" opacity="0.25"></line><line x1="0" y1="174.46153846153848" x2="1446" y2="174.46153846153848" fill="rgb(0, 0, 0)" stroke="rgb(60, 60, 60)" stroke-width="1px" opacity="0.25"></line><line x1="0" y1="145.38461538461542" x2="1446" y2="145.38461538461542" fill="rgb(0, 0, 0)" stroke="rgb(60, 60, 60)" stroke-width="1px" opacity="0.25"></line><line x1="0" y1="116.30769230769232" x2="1446" y2="116.30769230769232" fill="rgb(0, 0, 0)" stroke="rgb(60, 60, 60)" stroke-width="1px" opacity="0.25"></line><line x1="0" y1="87.23076923076928" x2="1446" y2="87.23076923076928" fill="rgb(0, 0, 0)" stroke="rgb(60, 60, 60)" stroke-width="1px" opacity="0.25"></line><line x1="0" y1="58.15384615384613" x2="1446" y2="58.15384615384613" fill="rgb(0, 0, 0)" stroke="rgb(60, 60, 60)" stroke-width="1px" opacity="0.25"></line><line x1="0" y1="29.076923076923038" x2="1446" y2="29.076923076923038" fill="rgb(0, 0, 0)" stroke="rgb(60, 60, 60)" stroke-width="1px" opacity="0.25"></line><line x1="0" y1="0" x2="1446" y2="0" fill="rgb(0, 0, 0)" stroke="rgb(60, 60, 60)" stroke-width="1px" opacity="0.25"></line></g></g></g><g><g><line x1="0" y1="348.9230769230769" x2="1446" y2="348.9230769230769" fill="rgb(0, 0, 0)" stroke="rgb(153, 153, 153)" stroke-width="1.5px"></line></g></g><g><g><line x1="120.5" y1="0" x2="120.5" y2="378" fill="rgb(0, 0, 0)" stroke="rgb(153, 153, 153)" stroke-width="1.5px"></line></g></g><g><g><g><g><g><path stroke="rgb(255, 112, 67)" stroke-width="2px" d="M120.5,53.66988427822406L122.91000000000001,83.32392580692584L125.32000000000001,100.78008044683014L127.73,117.20568746786853L130.14,130.34330650476312L132.54999999999998,136.99657961038446L134.96,150.4257613695585L137.37,156.63003516197205L139.78,161.09671783447266L142.19,179.5925709651067L144.6,191.9988654943613L147.01,209.3757645717034L149.42,223.73805796183075L151.82999999999998,231.0856621357111L154.24,238.8984876229213L156.65,243.77504443205322L159.06,248.15800009324002L161.47,253.0640892615685L163.88,262.24386956141547L166.29000000000002,265.37142265759985L168.7,266.5600221248774L171.10999999999999,276.8790339781688L173.51999999999998,277.1023074526053L175.93,280.87339821228613L178.34,285.7282823599302L180.75,285.69840770959854L183.16000000000003,290.9079228043556L185.57,293.70666843652725L187.98000000000002,295.7868756514329L190.39,295.1472765023892L192.8,297.4882012422268L195.21,298.02013033169965L197.61999999999998,300.78714687549154L200.03,304.9142160828297L202.44000000000003,305.52496745494693L204.85,302.95075180897345L207.26000000000002,308.2908574709526L209.67,306.06257251134286L212.08,306.36480258519833L214.49,309.01542281187494L216.9,310.1627653653805L219.31,307.5899058855497L221.71999999999997,305.41705042582294L224.13,314.45991427164813L226.54000000000002,310.6874066866361L228.95,313.9884645595L231.36,314.1762155798765L233.76999999999998,312.9957227798609L236.18,313.48913328464215L238.59,313.35899766133383L241,313.8571200852211L243.41,318.10479925687497L245.82000000000002,315.0218133330345L248.23,312.5128756394753L250.64000000000001,317.9137444771253L253.04999999999998,316.1485642584471L255.46,317.68439208544214L257.87,315.02830386620303L260.28,319.01139199045986L262.69,309.80658760896097L265.09999999999997,315.4178203458969L267.51,318.1964487914856L269.92,319.83085429897676L272.33,319.533817084936L274.74,321.13462390120213L277.15000000000003,317.809765962454L279.56,320.6995913661443L281.97,320.12655051167195L284.38,316.25574254531125L286.79,318.80591982144574L289.2,320.89992700173303L291.61,320.4333408566622L294.02,321.59030655714184L296.43,321.84822942660406L298.84,320.15878653755556L301.25,320.2268548126404L303.65999999999997,317.5462061212613L306.07,322.8184688137128L308.48,320.6040011506814L310.89,321.78815083320325L313.3,319.90101314966495L315.71,321.7414150948708L318.12,320.24275401922375L320.53000000000003,322.4940808048615L322.94,322.3187779165231L325.35,323.285111285173L327.76,322.63213895146663L330.17,322.73429985688284L332.58000000000004,323.18119559608976L334.99,321.7301736474037L337.4,323.4898642095236L339.81,323.84813470794603L342.21999999999997,322.5246118742686L344.63,319.8960824242005L347.03999999999996,323.5553198067041L349.45,323.44696949766234L351.86,322.8892559202818L354.27,324.444836978729L356.68,322.82591039630086L359.09,324.09552454260677L361.5,323.595939798997L363.90999999999997,322.2432918892457L366.32000000000005,322.2177002109014L368.73,322.89723910276706L371.14,322.57464053997626L373.55,322.2487273858144L375.96000000000004,323.99127089518765L378.37,322.74353738473013L380.78,322.70183419264276L383.19,319.0919365607775L385.6,324.02803686261177L388.01,323.7800447688653L390.42,324.5155200981177L392.83,322.5773008786715L395.23999999999995,324.2329197709377L397.65000000000003,324.9228920432238L400.06,324.9558668113672L402.46999999999997,322.86909757210657L404.88000000000005,320.5016257717059L407.29,325.4972868974392L409.7,323.21793989951794L412.10999999999996,325.4091534293615L414.52000000000004,321.63536766859204L416.93,322.15476413644274L419.34,323.99078778807933L421.75,324.2872097446368L424.16,325.1255933871636L426.57,323.5328217469729L428.98,325.12411806904356L431.39,324.264503710545L433.8,320.32460059569433L436.21000000000004,323.82840314048985L438.62,324.7095276805071L441.03,324.4300924631266L443.43999999999994,324.5379163370683L445.85,325.6875726053348L448.26,323.9828284359895L450.66999999999996,323.69401920758764L453.08000000000004,323.5036446773089L455.49,325.3379720380673L457.9,325.6846089706971L460.31000000000006,325.15023184968874L462.72,323.59040464804724L465.13,325.7925433310179L467.53999999999996,326.03078879301364L469.95,325.3376405789302L472.36,323.9642623915122L474.77,321.9850678902406L477.18,324.8943562278381L479.59,326.2658279836178L482,326.20327969468553L484.41,324.6409048071274L486.82,324.18161726227174L489.22999999999996,325.13098338934094L491.64000000000004,325.98145337517445L494.05,324.81736455284636L496.46,325.25504876100104L498.86999999999995,325.9095809024114L501.28000000000003,323.98684494082744L503.69,325.9272435582601L506.09999999999997,323.7215324823673L508.51000000000005,324.2734141120544L510.92,325.68503575141614L513.3299999999999,323.5019202232361L515.74,326.337119861291L518.15,324.13763068501765L520.56,325.79879772663116L522.97,326.4099433834736L525.38,325.1382798231565L527.79,325.69355620099947L530.1999999999999,325.13540067810277L532.61,321.6672094097504L535.02,326.4127813669352L537.43,326.0515883954672L539.84,326.1683335029162L542.25,325.8388977830227L544.66,326.67916402679225L547.07,326.5460084424569L549.48,324.71214252481093L551.89,326.52231669655214L554.3000000000001,325.87223000709827L556.71,326.6204805947267L559.12,323.6254136654047L561.53,326.05517811958606L563.94,324.5476196408272L566.35,325.65108393705805L568.76,325.47548208557646L571.1700000000001,325.01683362859944L573.58,326.7817820425217L575.99,326.28230345249176L578.4,326.45128262043L580.8100000000001,325.2354601759177L583.22,326.5090604974673L585.63,324.3353124811099L588.04,326.29063975811005L590.45,326.512266768859L592.86,326.79584630865315L595.27,326.1831278457091L597.68,325.513209934418L600.0899999999999,326.47922267592867L602.5,325.1326081890326L604.91,324.98752440856055L607.3199999999999,323.43804609775543L609.73,325.27303637678807L612.14,324.2188056776157L614.55,326.53228863386005L616.96,325.14815427248294L619.37,325.0479669570923L621.78,326.66177650369127L624.1899999999999,326.60765117636095L626.6,324.74857486669833L629.01,324.76386964779635L631.42,326.68951508402824L633.83,325.30131222422307L636.24,327.21234529522746L638.65,326.0221665226496L641.0600000000001,326.85236117473016L643.47,325.8425416671313L645.88,324.572175780168L648.29,325.8148204179911L650.7,326.7428410099103L653.11,323.87694132328033L655.52,324.2765423930608L657.9300000000001,327.0891291522063L660.34,326.9055267870426L662.75,325.73364109259387L665.1600000000001,326.85046124229063L667.57,326.411949469493L669.98,327.22635756776884L672.39,327.29632794169277L674.8,326.70259147194713L677.21,326.9040211393283L679.62,326.7045044027842L682.03,324.3439195866768L684.4399999999999,326.7914030230962L686.85,326.5274943915697L689.26,326.79281984842737L691.67,325.8458367609061L694.0799999999999,326.62175227128546L696.49,324.96209521018545L698.9,326.038761143501L701.31,326.64138851715967L703.72,325.79091419852693L706.13,325.6355465192061L708.54,327.14991399187306L710.9499999999999,325.51912420529584L713.36,326.1981778236536L715.77,324.1794941906746L718.18,327.1993555632921L720.59,325.09276376779263L723,327.23288709612996L725.4100000000001,326.9037091777875L727.8199999999999,325.62905381963805L730.23,325.8501110672951L732.6400000000001,324.64189268534L735.05,326.5742279635026L737.46,327.11296171408435L739.8700000000001,323.04381769895554L742.28,326.15483250067786L744.69,325.617485245833L747.1,327.3815995959135L749.51,327.45275499041264L751.9200000000001,324.2518844329394L754.3299999999999,326.10895682298224L756.74,326.6129935177473L759.15,327.4130253883509L761.56,326.51145220261355L763.97,326.5223838549394L766.38,326.5091861486435L768.79,326.2931441160349L771.2,325.44760052286665L773.61,327.2556494566111L776.02,325.9592889409799L778.43,326.2847406520293L780.84,325.9701317709226L783.25,324.9276819527149L785.66,326.44417466337865L788.07,325.9014634031516L790.4799999999999,326.00363514056573L792.89,326.17881021132837L795.3000000000001,327.38201121183545L797.7099999999999,327.28430875677327L800.12,324.7571083146792L802.5300000000001,326.818151558821L804.9399999999999,324.56950894227396L807.35,327.5585879431321L809.7600000000001,326.8930981526008L812.17,326.8319255274076L814.58,327.4563295497344L816.9899999999999,326.29444178938866L819.4,326.6885791994058L821.8100000000001,325.41157113130276L824.2199999999999,327.19015703063747L826.63,326.69501557258457L829.0400000000001,327.5418611719058L831.4499999999999,324.8901534126355L833.86,327.4544274508953L836.2700000000001,327.62776324840695L838.68,326.71175317580884L841.09,327.7175106841784L843.5,325.86870094216783L845.91,327.07046561974744L848.32,324.7289906144142L850.73,326.1178368948973L853.14,326.9342337479958L855.55,327.6671787225283L857.96,323.6613845641796L860.37,324.9523442456356L862.78,327.6295266976723L865.19,326.0871000175293L867.6,326.7387616794843L870.01,327.1002796108906L872.4200000000001,327.4016387921113L874.8299999999999,327.48605255209486L877.24,327.79113577420895L879.65,326.7212810012011L882.06,326.9948431092959L884.47,324.98722977821643L886.8799999999999,327.43983241686453L889.29,326.5594726159022L891.7,325.9756625890732L894.1099999999999,327.6918020202563L896.52,327.2003001135129L898.9300000000001,326.7638984139149L901.3399999999999,326.5498169729343L903.75,325.9360889677818L906.1600000000001,326.877370091585L908.5699999999999,327.74079298056085L910.98,327.058325116451L913.3900000000001,326.74640690363367L915.8,326.8659943273434L918.21,324.6375057261724L920.6200000000001,327.34510226203844L923.03,327.20551030452435L925.44,327.2500276496777L927.85,326.8112299121343L930.26,326.6738953429919L932.6700000000001,327.7235137774394L935.0799999999999,325.4164628615746L937.49,326.5517905629598L939.9,326.96494246216923L942.31,324.5945611871206L944.72,325.43088675003787L947.13,326.97176228807524L949.54,326.3065844590847L951.95,326.70461055636406L954.36,327.2268926684673L956.77,326.7083584276529L959.18,326.52350821632604L961.59,327.37687467841L964,326.78527861145824L966.41,325.94336807040065L968.82,326.05421840456813L971.2299999999999,325.8762963391267L973.64,326.30726037575647L976.0500000000001,327.69043068931654L978.4599999999999,327.8370916086894L980.87,326.7392274553959L983.2800000000001,327.15642618903746L985.6899999999999,326.2085592104838L988.1,324.07792254594654L990.5100000000001,327.78869424187224L992.92,327.6812819838524L995.33,327.1393744578728L997.7399999999999,327.8068660016243L1000.15,327.05823412766824L1002.5600000000001,327.17995762137264L1004.9699999999999,327.7862310455396L1007.38,326.78885317078004L1009.7900000000001,326.4823661217323L1012.1999999999999,326.09308794599315L1014.61,327.6483960380921L1017.0200000000001,325.6817363248422L1019.43,327.5048698989244L1021.84,327.0632645075138L1024.25,327.44758596099337L1026.6599999999999,326.9954280371849L1029.07,327.9249759408144L1031.48,327.3758174754106L1033.8899999999999,326.90179191415126L1036.3,326.5349164765615L1038.71,326.45756951203714L1041.12,326.726382872233L1043.53,327.49368911064585L1045.94,327.5873923920668L1048.35,327.36557907095323L1050.76,326.22426344110414L1053.17,327.87806472411523L1055.58,327.46261644134154L1057.99,328.0527458557716L1060.3999999999999,327.84791710743536L1062.81,325.79167460478266L1065.22,327.93964463243117L1067.6299999999999,326.820112150449L1070.04,327.7965366083842L1072.45,326.98303189873695L1074.86,327.7796386915904L1077.27,327.6323040219454L1079.68,327.1433649659157L1082.09,328.0084516497759L1084.5,327.0890294978252L1086.91,327.66365615679666L1089.32,327.35855560348585L1091.73,325.2453021292503L1094.14,326.2281564611655L1096.55,327.98157313007573L1098.96,326.15795428248555L1101.3700000000001,326.2140055390505L1103.78,327.5543309679398L1106.19,327.15825246389096L1108.6000000000001,326.96736666330924L1111.01,328.1165354916683L1113.42,327.623746743569L1115.83,326.3378867667455L1118.24,325.91235822668443L1120.65,326.82690597955997L1123.06,327.21350865180676L1125.47,326.29810083829443L1127.88,326.0364409295412L1130.29,327.6443946980513L1132.7,327.86873404108565L1135.1100000000001,327.9384769430527L1137.52,326.94446348685483L1139.93,327.98370703367084L1142.3400000000001,327.8070544783886L1144.75,328.1574544471044L1147.16,326.9328754154535L1149.5700000000002,327.3886837225694L1151.98,327.8529864824735L1154.39,328.14816492566695L1156.8,326.452025695489L1159.21,327.21855636284903L1161.6200000000001,327.11597950871175L1164.03,328.01137845562056L1166.44,326.5954521802755L1168.85,326.65506716416434L1171.26,328.0804476073155L1173.67,327.1708934054925L1176.08,327.7180847800695L1178.49,327.1743704768328L1180.9,326.9508630312406L1183.31,328.1068170231122L1185.72,326.8021158690636L1188.1299999999999,327.69129074995334L1190.54,327.1183798794563L1192.95,327.54728800287614L1195.36,327.56798578454897L1197.77,327.8893408339757L1200.1799999999998,326.8446422929947L1202.59,327.545312246451L1205,326.8251381974954L1207.4099999999999,325.9276790045775L1209.82,327.2695230795787L1212.23,327.985988252438L1214.6399999999999,328.04791911748737L1217.05,327.9742463666659L1219.46,328.06465672071164L1221.87,325.8875702825876L1224.28,327.759439181823L1226.69,328.12342030956194L1229.1,327.08836008035223L1231.51,328.3166241577038L1233.92,327.4345355698696L1236.33,327.80382004380226L1238.74,328.0856751295237L1241.1499999999999,326.8780698386522L1243.56,326.9782528212437L1245.97,327.4000378228151L1248.3799999999999,327.94056968505566L1250.79,328.2791996048047L1253.2,327.57363575467696L1255.61,327.7909277998484L1258.02,327.78274964140013L1260.43,327.41112545591136L1262.84,328.22615314446966L1265.25,327.86411744356155L1267.66,328.0537640635784L1270.07,325.6659454382383L1272.48,328.1232383319965L1274.89,328.0470633896498L1277.3,327.37731662392616L1279.71,327.64085480112294L1282.1200000000001,328.0803544521332L1284.53,326.6462694154336L1286.94,327.43796714681844L1289.3500000000001,327.4425100867565L1291.76,326.9418594745489L1294.17,326.9888205184386L1296.58,326.52627470860114L1298.99,327.942027671979L1301.4,327.6900104077963L1303.81,327.59281922303717L1306.22,328.1699827359273L1308.63,328.00160149427563L1311.04,327.92148803747614L1313.45,327.7584036428195L1315.8600000000001,327.40261367192636L1318.27,326.6193497341413L1320.68,328.12307585202734L1323.0900000000001,328.00836066099316" style="fill: none;" fill="none"></path></g></g></g></g></g></g><g transform="translate(50, 378)" clip-path="url(#clip_1)"><clipPath id="clip_1"><rect width="1446" height="22"></rect></clipPath><g><g><line x1="0" y1="0" x2="0" y2="5" style="visibility: inherit;" fill="rgb(0, 0, 0)" stroke="rgb(204, 204, 204)" stroke-width="1px"></line><line x1="120.5" y1="0" x2="120.5" y2="5" style="visibility: inherit;" fill="rgb(0, 0, 0)" stroke="rgb(204, 204, 204)" stroke-width="1px"></line><line x1="241" y1="0" x2="241" y2="5" style="visibility: inherit;" fill="rgb(0, 0, 0)" stroke="rgb(204, 204, 204)" stroke-width="1px"></line><line x1="361.5" y1="0" x2="361.5" y2="5" style="visibility: inherit;" fill="rgb(0, 0, 0)" stroke="rgb(204, 204, 204)" stroke-width="1px"></line><line x1="482" y1="0" x2="482" y2="5" style="visibility: inherit;" fill="rgb(0, 0, 0)" stroke="rgb(204, 204, 204)" stroke-width="1px"></line><line x1="602.5" y1="0" x2="602.5" y2="5" style="visibility: inherit;" fill="rgb(0, 0, 0)" stroke="rgb(204, 204, 204)" stroke-width="1px"></line><line x1="723" y1="0" x2="723" y2="5" style="visibility: inherit;" fill="rgb(0, 0, 0)" stroke="rgb(204, 204, 204)" stroke-width="1px"></line><line x1="843.5" y1="0" x2="843.5" y2="5" style="visibility: inherit;" fill="rgb(0, 0, 0)" stroke="rgb(204, 204, 204)" stroke-width="1px"></line><line x1="964" y1="0" x2="964" y2="5" style="visibility: inherit;" fill="rgb(0, 0, 0)" stroke="rgb(204, 204, 204)" stroke-width="1px"></line><line x1="1084.5" y1="0" x2="1084.5" y2="5" style="visibility: inherit;" fill="rgb(0, 0, 0)" stroke="rgb(204, 204, 204)" stroke-width="1px"></line><line x1="1205" y1="0" x2="1205" y2="5" style="visibility: inherit;" fill="rgb(0, 0, 0)" stroke="rgb(204, 204, 204)" stroke-width="1px"></line><line x1="1325.5" y1="0" x2="1325.5" y2="5" style="visibility: inherit;" fill="rgb(0, 0, 0)" stroke="rgb(204, 204, 204)" stroke-width="1px"></line><line x1="1446" y1="0" x2="1446" y2="5" style="visibility: inherit;" fill="rgb(0, 0, 0)" stroke="rgb(204, 204, 204)" stroke-width="1px"></line></g><g transform="translate(0, 8)"><text x="0" y="0" dx="0em" dy="0.95em" style="text-anchor: middle; visibility: hidden; font-family: &quot;Helvetica Neue&quot;, sans-serif; font-size: 12px; font-weight: 200;" fill="rgb(50, 49, 63)" stroke="none" stroke-width="1px">-50</text><text x="120.5" y="0" dx="0em" dy="0.95em" style="text-anchor: middle; visibility: inherit; font-family: &quot;Helvetica Neue&quot;, sans-serif; font-size: 12px; font-weight: 200;" fill="rgb(50, 49, 63)" stroke="none" stroke-width="1px">0</text><text x="241" y="0" dx="0em" dy="0.95em" style="text-anchor: middle; visibility: inherit; font-family: &quot;Helvetica Neue&quot;, sans-serif; font-size: 12px; font-weight: 200;" fill="rgb(50, 49, 63)" stroke="none" stroke-width="1px">50</text><text x="361.5" y="0" dx="0em" dy="0.95em" style="text-anchor: middle; visibility: inherit; font-family: &quot;Helvetica Neue&quot;, sans-serif; font-size: 12px; font-weight: 200;" fill="rgb(50, 49, 63)" stroke="none" stroke-width="1px">100</text><text x="482" y="0" dx="0em" dy="0.95em" style="text-anchor: middle; visibility: inherit; font-family: &quot;Helvetica Neue&quot;, sans-serif; font-size: 12px; font-weight: 200;" fill="rgb(50, 49, 63)" stroke="none" stroke-width="1px">150</text><text x="602.5" y="0" dx="0em" dy="0.95em" style="text-anchor: middle; visibility: inherit; font-family: &quot;Helvetica Neue&quot;, sans-serif; font-size: 12px; font-weight: 200;" fill="rgb(50, 49, 63)" stroke="none" stroke-width="1px">200</text><text x="723" y="0" dx="0em" dy="0.95em" style="text-anchor: middle; visibility: inherit; font-family: &quot;Helvetica Neue&quot;, sans-serif; font-size: 12px; font-weight: 200;" fill="rgb(50, 49, 63)" stroke="none" stroke-width="1px">250</text><text x="843.5" y="0" dx="0em" dy="0.95em" style="text-anchor: middle; visibility: inherit; font-family: &quot;Helvetica Neue&quot;, sans-serif; font-size: 12px; font-weight: 200;" fill="rgb(50, 49, 63)" stroke="none" stroke-width="1px">300</text><text x="964" y="0" dx="0em" dy="0.95em" style="text-anchor: middle; visibility: inherit; font-family: &quot;Helvetica Neue&quot;, sans-serif; font-size: 12px; font-weight: 200;" fill="rgb(50, 49, 63)" stroke="none" stroke-width="1px">350</text><text x="1084.5" y="0" dx="0em" dy="0.95em" style="text-anchor: middle; visibility: inherit; font-family: &quot;Helvetica Neue&quot;, sans-serif; font-size: 12px; font-weight: 200;" fill="rgb(50, 49, 63)" stroke="none" stroke-width="1px">400</text><text x="1205" y="0" dx="0em" dy="0.95em" style="text-anchor: middle; visibility: inherit; font-family: &quot;Helvetica Neue&quot;, sans-serif; font-size: 12px; font-weight: 200;" fill="rgb(50, 49, 63)" stroke="none" stroke-width="1px">450</text><text x="1325.5" y="0" dx="0em" dy="0.95em" style="text-anchor: middle; visibility: inherit; font-family: &quot;Helvetica Neue&quot;, sans-serif; font-size: 12px; font-weight: 200;" fill="rgb(50, 49, 63)" stroke="none" stroke-width="1px">500</text><text x="1446" y="0" dx="0em" dy="0.95em" style="text-anchor: middle; visibility: hidden; font-family: &quot;Helvetica Neue&quot;, sans-serif; font-size: 12px; font-weight: 200;" fill="rgb(50, 49, 63)" stroke="none" stroke-width="1px">550</text></g><line x1="0" y1="0" x2="1446" y2="0" fill="rgb(0, 0, 0)" stroke="rgb(204, 204, 204)" stroke-width="1px"></line></g></g></g></g></svg>