<svg viewBox="0 0 1496 400" xmlns="http://www.w3.org/2000/svg"><g><g><g><g><g><line x1="30" y1="378" x2="25" y2="378" style="visibility: inherit;" fill="rgb(0, 0, 0)" stroke="rgb(204, 204, 204)" stroke-width="1px"></line><line x1="30" y1="330.75" x2="25" y2="330.75" style="visibility: inherit;" fill="rgb(0, 0, 0)" stroke="rgb(204, 204, 204)" stroke-width="1px"></line><line x1="30" y1="283.5" x2="25" y2="283.5" style="visibility: inherit;" fill="rgb(0, 0, 0)" stroke="rgb(204, 204, 204)" stroke-width="1px"></line><line x1="30" y1="236.25" x2="25" y2="236.25" style="visibility: inherit;" fill="rgb(0, 0, 0)" stroke="rgb(204, 204, 204)" stroke-width="1px"></line><line x1="30" y1="189" x2="25" y2="189" style="visibility: inherit;" fill="rgb(0, 0, 0)" stroke="rgb(204, 204, 204)" stroke-width="1px"></line><line x1="30" y1="141.75" x2="25" y2="141.75" style="visibility: inherit;" fill="rgb(0, 0, 0)" stroke="rgb(204, 204, 204)" stroke-width="1px"></line><line x1="30" y1="94.5" x2="25" y2="94.5" style="visibility: inherit;" fill="rgb(0, 0, 0)" stroke="rgb(204, 204, 204)" stroke-width="1px"></line><line x1="30" y1="47.25" x2="25" y2="47.25" style="visibility: inherit;" fill="rgb(0, 0, 0)" stroke="rgb(204, 204, 204)" stroke-width="1px"></line><line x1="30" y1="0" x2="25" y2="0" style="visibility: inherit;" fill="rgb(0, 0, 0)" stroke="rgb(204, 204, 204)" stroke-width="1px"></line></g><g transform="translate(20, 0)"><text x="0" y="378" dx="0em" dy="0.3em" style="text-anchor: end; visibility: hidden; font-family: &quot;Helvetica Neue&quot;, sans-serif; font-size: 12px; font-weight: 200;" fill="rgb(50, 49, 63)" stroke="none" stroke-width="1px">-2</text><text x="0" y="330.75" dx="0em" dy="0.3em" style="text-anchor: end; visibility: inherit; font-family: &quot;Helvetica Neue&quot;, sans-serif; font-size: 12px; font-weight: 200;" fill="rgb(50, 49, 63)" stroke="none" stroke-width="1px">0</text><text x="0" y="283.5" dx="0em" dy="0.3em" style="text-anchor: end; visibility: inherit; font-family: &quot;Helvetica Neue&quot;, sans-serif; font-size: 12px; font-weight: 200;" fill="rgb(50, 49, 63)" stroke="none" stroke-width="1px">2</text><text x="0" y="236.25" dx="0em" dy="0.3em" style="text-anchor: end; visibility: inherit; font-family: &quot;Helvetica Neue&quot;, sans-serif; font-size: 12px; font-weight: 200;" fill="rgb(50, 49, 63)" stroke="none" stroke-width="1px">4</text><text x="0" y="189" dx="0em" dy="0.3em" style="text-anchor: end; visibility: inherit; font-family: &quot;Helvetica Neue&quot;, sans-serif; font-size: 12px; font-weight: 200;" fill="rgb(50, 49, 63)" stroke="none" stroke-width="1px">6</text><text x="0" y="141.75" dx="0em" dy="0.3em" style="text-anchor: end; visibility: inherit; font-family: &quot;Helvetica Neue&quot;, sans-serif; font-size: 12px; font-weight: 200;" fill="rgb(50, 49, 63)" stroke="none" stroke-width="1px">8</text><text x="0" y="94.5" dx="0em" dy="0.3em" style="text-anchor: end; visibility: inherit; font-family: &quot;Helvetica Neue&quot;, sans-serif; font-size: 12px; font-weight: 200;" fill="rgb(50, 49, 63)" stroke="none" stroke-width="1px">10</text><text x="0" y="47.25" dx="0em" dy="0.3em" style="text-anchor: end; visibility: inherit; font-family: &quot;Helvetica Neue&quot;, sans-serif; font-size: 12px; font-weight: 200;" fill="rgb(50, 49, 63)" stroke="none" stroke-width="1px">12</text><text x="0" y="0" dx="0em" dy="0.3em" style="text-anchor: end; visibility: hidden; font-family: &quot;Helvetica Neue&quot;, sans-serif; font-size: 12px; font-weight: 200;" fill="rgb(50, 49, 63)" stroke="none" stroke-width="1px">14</text></g><line x1="30" y1="0" x2="30" y2="378" fill="rgb(0, 0, 0)" stroke="rgb(204, 204, 204)" stroke-width="1px"></line></g></g><g transform="translate(30, 0)" clip-path="url(#clip_0)"><clipPath id="clip_0"><rect width="1466" height="378"></rect></clipPath><g><g><g><line x1="0" y1="0" x2="0" y2="378" fill="rgb(0, 0, 0)" stroke="rgb(60, 60, 60)" stroke-width="1px" opacity="0.25"></line><line x1="122.16666666666666" y1="0" x2="122.16666666666666" y2="378" fill="rgb(0, 0, 0)" stroke="rgb(60, 60, 60)" stroke-width="1px" opacity="0.25"></line><line x1="244.33333333333331" y1="0" x2="244.33333333333331" y2="378" fill="rgb(0, 0, 0)" stroke="rgb(60, 60, 60)" stroke-width="1px" opacity="0.25"></line><line x1="366.5" y1="0" x2="366.5" y2="378" fill="rgb(0, 0, 0)" stroke="rgb(60, 60, 60)" stroke-width="1px" opacity="0.25"></line><line x1="488.66666666666663" y1="0" x2="488.66666666666663" y2="378" fill="rgb(0, 0, 0)" stroke="rgb(60, 60, 60)" stroke-width="1px" opacity="0.25"></line><line x1="610.8333333333334" y1="0" x2="610.8333333333334" y2="378" fill="rgb(0, 0, 0)" stroke="rgb(60, 60, 60)" stroke-width="1px" opacity="0.25"></line><line x1="733" y1="0" x2="733" y2="378" fill="rgb(0, 0, 0)" stroke="rgb(60, 60, 60)" stroke-width="1px" opacity="0.25"></line><line x1="855.1666666666667" y1="0" x2="855.1666666666667" y2="378" fill="rgb(0, 0, 0)" stroke="rgb(60, 60, 60)" stroke-width="1px" opacity="0.25"></line><line x1="977.3333333333333" y1="0" x2="977.3333333333333" y2="378" fill="rgb(0, 0, 0)" stroke="rgb(60, 60, 60)" stroke-width="1px" opacity="0.25"></line><line x1="1099.5" y1="0" x2="1099.5" y2="378" fill="rgb(0, 0, 0)" stroke="rgb(60, 60, 60)" stroke-width="1px" opacity="0.25"></line><line x1="1221.6666666666667" y1="0" x2="1221.6666666666667" y2="378" fill="rgb(0, 0, 0)" stroke="rgb(60, 60, 60)" stroke-width="1px" opacity="0.25"></line><line x1="1343.8333333333333" y1="0" x2="1343.8333333333333" y2="378" fill="rgb(0, 0, 0)" stroke="rgb(60, 60, 60)" stroke-width="1px" opacity="0.25"></line><line x1="1466" y1="0" x2="1466" y2="378" fill="rgb(0, 0, 0)" stroke="rgb(60, 60, 60)" stroke-width="1px" opacity="0.25"></line></g><g><line x1="0" y1="378" x2="1466" y2="378" fill="rgb(0, 0, 0)" stroke="rgb(60, 60, 60)" stroke-width="1px" opacity="0.25"></line><line x1="0" y1="330.75" x2="1466" y2="330.75" fill="rgb(0, 0, 0)" stroke="rgb(60, 60, 60)" stroke-width="1px" opacity="0.25"></line><line x1="0" y1="283.5" x2="1466" y2="283.5" fill="rgb(0, 0, 0)" stroke="rgb(60, 60, 60)" stroke-width="1px" opacity="0.25"></line><line x1="0" y1="236.25" x2="1466" y2="236.25" fill="rgb(0, 0, 0)" stroke="rgb(60, 60, 60)" stroke-width="1px" opacity="0.25"></line><line x1="0" y1="189" x2="1466" y2="189" fill="rgb(0, 0, 0)" stroke="rgb(60, 60, 60)" stroke-width="1px" opacity="0.25"></line><line x1="0" y1="141.75" x2="1466" y2="141.75" fill="rgb(0, 0, 0)" stroke="rgb(60, 60, 60)" stroke-width="1px" opacity="0.25"></line><line x1="0" y1="94.5" x2="1466" y2="94.5" fill="rgb(0, 0, 0)" stroke="rgb(60, 60, 60)" stroke-width="1px" opacity="0.25"></line><line x1="0" y1="47.25" x2="1466" y2="47.25" fill="rgb(0, 0, 0)" stroke="rgb(60, 60, 60)" stroke-width="1px" opacity="0.25"></line><line x1="0" y1="0" x2="1466" y2="0" fill="rgb(0, 0, 0)" stroke="rgb(60, 60, 60)" stroke-width="1px" opacity="0.25"></line></g></g></g><g><g><line x1="0" y1="330.75" x2="1466" y2="330.75" fill="rgb(0, 0, 0)" stroke="rgb(153, 153, 153)" stroke-width="1.5px"></line></g></g><g><g><line x1="122.16666666666666" y1="0" x2="122.16666666666666" y2="378" fill="rgb(0, 0, 0)" stroke="rgb(153, 153, 153)" stroke-width="1.5px"></line></g></g><g><g><g><g><g><path stroke="rgb(255, 112, 67)" stroke-width="2px" d="M122.16666666666666,47.70435118675232L124.61000000000001,133.1359827518463L127.05333333333334,122.18092811107635L129.49666666666667,178.0170412659645L131.94,205.18551188707352L134.38333333333333,199.41455787420273L136.82666666666668,196.87218743562698L139.27,225.77609664201736L141.71333333333334,209.7597666978836L144.15666666666667,217.1703143119812L146.6,218.64944529533386L149.04333333333335,223.70934623479843L151.48666666666668,232.5066157579422L153.93,223.78787648677826L156.37333333333333,230.26930904388428L158.81666666666666,206.0850555896759L161.26,185.00549018383026L163.70333333333332,231.56602138280869L166.14666666666665,236.4448724091053L168.59,237.7367012500763L171.03333333333333,229.21143186092377L173.47666666666666,219.78448963165283L175.92,227.69967663288116L178.36333333333334,225.35520333051682L180.80666666666667,242.96377328038216L183.25,239.24726235866547L185.69333333333336,232.23870491981506L188.13666666666666,239.62734156847L190.58,236.78826624155045L193.0233333333333,217.42859333753586L195.46666666666667,237.0090825855732L197.91000000000003,257.38446110486984L200.35333333333332,237.64798718690872L202.79666666666668,228.2386976480484L205.24,223.21582567691803L207.68333333333334,253.81534507870674L210.12666666666667,255.1845382153988L212.57,247.57685387134552L215.01333333333332,252.6332625746727L217.45666666666668,245.46229925751686L219.9,234.73108005523682L222.34333333333333,252.70883005857468L224.78666666666666,219.9239763021469L227.23,256.2892564237118L229.67333333333335,252.36942413449287L232.11666666666665,223.412528693676L234.56,261.5411965548992L237.0033333333333,231.21036529541016L239.44666666666666,246.1713583767414L241.89000000000001,243.148929387331L244.33333333333331,248.0389612019062L246.77666666666667,235.5857428908348L249.22000000000003,252.01530575752258L251.66333333333333,239.36610540747643L254.10666666666668,239.7797438800335L256.55,215.24852550029755L258.99333333333334,259.4802308678627L261.43666666666667,215.54610908031464L263.88,252.68667688965797L266.3233333333333,246.3061474263668L268.76666666666665,233.57725650072098L271.21,254.2576367855072L273.65333333333336,215.95459932088852L276.09666666666664,263.37950402498245L278.54,252.89662224054337L280.98333333333335,263.40864166617393L283.4266666666667,250.11439713835716L285.87,243.8546483516693L288.31333333333333,257.1238276362419L290.75666666666666,264.290262311697L293.2,261.18706691265106L295.6433333333333,262.15485003590584L298.0866666666667,260.1395143568516L300.53,259.6329091787338L302.97333333333336,270.3211626112461L305.4166666666667,254.29304918646812L307.86,238.24145328998566L310.30333333333334,256.92964804172516L312.74666666666667,216.8877135515213L315.19,258.6440768837929L317.6333333333333,241.17499360442162L320.07666666666665,257.4064621925354L322.52,207.4570875763893L324.96333333333337,260.1666805744171L327.40666666666664,266.8825829923153L329.85,257.3571822345257L332.2933333333333,260.9184632599354L334.7366666666667,248.97171494364738L337.18,260.38272044062614L339.62333333333333,254.43903028964996L342.06666666666666,259.9409694671631L344.51,239.1631219983101L346.9533333333333,248.7468599975109L349.3966666666667,234.75113224983215L351.84,236.83485379815102L354.28333333333336,250.613127887249L356.7266666666667,260.33002147078514L359.17,258.8404644727707L361.61333333333334,251.08210703730583L364.0566666666667,253.30733174085617L366.5,268.9159036874771L368.9433333333333,249.55767273902893L371.3866666666667,257.23038589954376L373.83,253.82088196277618L376.2733333333333,262.51140171289444L378.7166666666667,245.41700720787048L381.16,258.56428492069244L383.6033333333333,235.47286480665207L386.0466666666666,258.5306693315506L388.49,258.9410408735275L390.93333333333334,247.6683448255062L393.3766666666666,258.3009477853775L395.82000000000005,252.7459153532982L398.2633333333333,262.5275279581547L400.70666666666665,256.34614607691765L403.15000000000003,267.1433910727501L405.59333333333336,239.96032065153122L408.03666666666663,239.79579690098763L410.48,255.58205607533455L412.92333333333335,269.5808761417866L415.3666666666667,263.2257442474365L417.80999999999995,233.2705255150795L420.25333333333333,202.73149502277374L422.69666666666666,264.8583083152771L425.14,264.0113903582096L427.58333333333337,254.24273282289505L430.02666666666664,257.6799324452877L432.46999999999997,224.8255888223648L434.91333333333336,248.5487995147705L437.3566666666667,265.8535449206829L439.8,250.20435038208961L442.2433333333334,253.18303629755974L444.68666666666667,215.15651071071625L447.13,245.04271271824837L449.5733333333333,253.55931347608566L452.0166666666667,264.01658365130424L454.46,254.6549631357193L456.9033333333333,203.1358734369278L459.3466666666667,256.6962596476078L461.79,269.43340238928795L464.2333333333333,254.87666380405426L466.6766666666667,247.55150136351585L469.12,230.8237634897232L471.56333333333333,254.18646275997162L474.0066666666666,262.81783416867256L476.45,238.21483343839645L478.8933333333333,260.92179214954376L481.33666666666664,262.23434910178185L483.78000000000003,244.75797155499458L486.22333333333336,263.21701365709305L488.66666666666663,269.15593859553337L491.11,240.84937638044357L493.55333333333334,263.95962077379227L495.99666666666667,261.87316739559174L498.44000000000005,257.8542569875717L500.8833333333333,267.29492032527924L503.32666666666665,263.79736134409904L505.77,254.4835225045681L508.21333333333337,211.75586128234863L510.65666666666664,259.9968959391117L513.1,187.11019331216812L515.5433333333334,244.66657635569572L517.9866666666667,248.68793696165085L520.43,246.33137601613998L522.8733333333333,245.9162955880165L525.3166666666667,273.57157266139984L527.76,262.02132833004L530.2033333333334,250.62259072065353L532.6466666666666,241.57326060533524L535.09,244.35828512907028L537.5333333333333,260.9887585937977L539.9766666666667,262.94102561473846L542.42,262.4629610180855L544.8633333333333,251.61516872048378L547.3066666666667,255.47873094677925L549.75,252.5866693854332L552.1933333333333,257.1951593756676L554.6366666666667,260.632133692503L557.08,241.70821863412857L559.5233333333333,240.83541306853294L561.9666666666667,246.37217885255814L564.41,253.75703036785126L566.8533333333334,262.3719601035118L569.2966666666666,246.16358533501625L571.74,259.23841604590416L574.1833333333333,264.0328788757324L576.6266666666667,274.81507909297943L579.07,270.88945081830025L581.5133333333333,226.5406259894371L583.9566666666666,263.3709931075573L586.4,267.5888595879078L588.8433333333334,216.6368132829666L591.2866666666666,256.3124797940254L593.73,203.07900631427765L596.1733333333334,217.0394681096077L598.6166666666667,261.9977557361126L601.06,261.12361523509026L603.5033333333333,253.5596289038658L605.9466666666667,249.80602142214775L608.39,249.11652445793152L610.8333333333334,270.8075466156006L613.2766666666666,244.45779132843018L615.72,256.47810754179955L618.1633333333334,259.3981971144676L620.6066666666667,254.4799570441246L623.05,207.32511484622955L625.4933333333333,261.0233767926693L627.9366666666667,259.1767330169678L630.38,248.10516160726547L632.8233333333333,259.10951310396194L635.2666666666667,248.24734631180763L637.71,267.61226320266724L640.1533333333333,257.17781084775925L642.5966666666667,273.20023530721664L645.04,210.0962154865265L647.4833333333333,251.25185224413872L649.9266666666667,234.95104587078094L652.37,254.08424162864685L654.8133333333333,266.9206202030182L657.2566666666667,248.19932806491852L659.7,255.8288614153862L662.1433333333333,253.7887928187847L664.5866666666666,254.20034158229828L667.03,235.72114026546478L669.4733333333334,255.6045077741146L671.9166666666666,254.61324217915535L674.36,266.47195798158646L676.8033333333333,261.33644449710846L679.2466666666667,246.88946914672852L681.69,261.2099241614342L684.1333333333333,258.69849944114685L686.5766666666666,262.6065426170826L689.02,194.98858791589737L691.4633333333334,236.6625457406044L693.9066666666666,257.57901245355606L696.35,266.25032490491867L698.7933333333334,267.1834109723568L701.2366666666667,265.3905701637268L703.68,264.34190234541893L706.1233333333333,255.63153317570686L708.5666666666667,269.11975452303886L711.01,267.3124885261059L713.4533333333334,215.9152947664261L715.8966666666666,250.3554346561432L718.34,247.18855664134026L720.7833333333333,247.72281807661057L723.2266666666667,254.9907641708851L725.67,233.04153621196747L728.1133333333333,269.975222826004L730.5566666666667,247.85990524291992L733,254.08572301268578L735.4433333333334,178.92688143253326L737.8866666666667,245.28453317284584L740.33,253.79795148968697L742.7733333333334,233.37688100337982L745.2166666666666,251.00390911102295L747.66,247.32235997915268L750.1033333333334,257.030798971653L752.5466666666666,266.68564903736115L754.99,263.8539806306362L757.4333333333334,234.94036638736725L759.8766666666667,258.3972828090191L762.32,221.7625823020935L764.7633333333332,260.1569304764271L767.2066666666666,268.72968301177025L769.65,258.24542686343193L772.0933333333332,260.5242235958576L774.5366666666666,264.1776264309883L776.98,254.43472695350647L779.4233333333333,262.06221002340317L781.8666666666667,266.7183070778847L784.3100000000001,250.38754633069038L786.7533333333332,244.00073647499084L789.1966666666667,248.62331932783127L791.6400000000001,269.3023365139961L794.0833333333333,265.3026559352875L796.5266666666666,249.1692177951336L798.97,267.2238758504391L801.4133333333333,262.3532766401768L803.8566666666667,264.87414729595184L806.3000000000001,192.05561649799347L808.7433333333333,251.3473198413849L811.1866666666667,238.4397728741169L813.6300000000001,270.039727807045L816.0733333333333,239.9962681531906L818.5166666666667,253.92109787464142L820.96,250.58766835927963L823.4033333333333,213.01382106542587L825.8466666666667,257.8949978649616L828.29,236.62740370631218L830.7333333333333,233.7264425754547L833.1766666666667,249.75568816065788L835.6199999999999,213.574077129364L838.0633333333333,278.1547157764435L840.5066666666667,269.7752697765827L842.9499999999999,238.67368510365486L845.3933333333333,259.0937980413437L847.8366666666667,273.47921428084373L850.28,263.81189355254173L852.7233333333334,261.57161843776703L855.1666666666667,235.89344269037247L857.6099999999999,240.6894319653511L860.0533333333333,265.55780321359634L862.4966666666668,273.34808644652367L864.9399999999999,267.81824880838394L867.3833333333333,247.77979785203934L869.8266666666667,255.66313791275024L872.27,256.9990365207195L874.7133333333334,248.63588574528694L877.1566666666668,249.81594049930573L879.6,269.17661038041115L882.0433333333334,265.94819578528404L884.4866666666668,260.9755444228649L886.93,223.4934133887291L889.3733333333333,232.60400408506393L891.8166666666666,278.8389912843704L894.26,254.84442257881165L896.7033333333334,241.54376247525215L899.1466666666666,257.1270720362663L901.59,261.6487179994583L904.0333333333334,248.13411337137222L906.4766666666666,250.7627589404583L908.92,249.55142050981522L911.3633333333333,258.83954071998596L913.8066666666666,239.73495876789093L916.25,209.42412900924683L918.6933333333334,266.7643651664257L921.1366666666667,259.92352518439293L923.58,262.0113585591316L926.0233333333334,258.7633818089962L928.4666666666666,251.07133743166924L930.91,236.85184746980667L933.3533333333334,240.5499959886074L935.7966666666666,237.2361567914486L938.24,261.5012329816818L940.6833333333334,268.22193440794945L943.1266666666667,259.08975943922997L945.57,254.7112444639206L948.0133333333332,254.6632487475872L950.4566666666666,254.6724524796009L952.9,260.5760945677757L955.3433333333332,230.3536747097969L957.7866666666666,266.9979901313782L960.23,250.47791638970375L962.6733333333333,254.7530273795128L965.1166666666667,252.71793240308762L967.5600000000001,261.4220775067806L970.0033333333332,193.80584639310837L972.4466666666667,268.25393906235695L974.8900000000001,258.0925288796425L977.3333333333333,252.04615008831024L979.7766666666666,255.2882632613182L982.22,257.8786801099777L984.6633333333333,260.8181346952915L987.1066666666667,247.80930161476135L989.5500000000001,252.75899997353554L991.9933333333333,236.5717926621437L994.4366666666667,250.82856506109238L996.8800000000001,245.68207919597626L999.3233333333333,249.1627008318901L1001.7666666666667,259.7016499042511L1004.21,268.49774220585823L1006.6533333333333,229.50962376594543L1009.0966666666667,255.0733442902565L1011.54,277.32778242230415L1013.9833333333333,265.3600074648857L1016.4266666666667,231.8105342388153L1018.8699999999999,259.7029116153717L1021.3133333333333,264.44856199622154L1023.7566666666667,265.3888240456581L1026.2,266.10624200105667L1028.6433333333334,220.17920243740082L1031.0866666666668,270.03846046328545L1033.53,232.64856952428818L1035.9733333333334,264.86440846323967L1038.4166666666667,250.0041269659996L1040.86,265.497590303421L1043.3033333333333,252.81569248437881L1045.7466666666667,279.3249979019165L1048.19,228.28970682621002L1050.6333333333334,260.16603845357895L1053.0766666666668,240.09512096643448L1055.52,254.05335223674774L1057.9633333333334,260.5045713186264L1060.4066666666668,263.3272331357002L1062.85,257.78616964817047L1065.2933333333333,267.4586836695671L1067.7366666666667,271.19721257686615L1070.18,254.70663133263588L1072.6233333333334,245.1041535437107L1075.0666666666666,193.94840848445892L1077.51,253.57125467061996L1079.9533333333334,270.9261643588543L1082.3966666666665,252.97874611616135L1084.84,260.4411590695381L1087.2833333333333,259.1079415977001L1089.7266666666667,264.25314885377884L1092.17,261.719638556242L1094.6133333333335,243.60150629281998L1097.0566666666666,264.3368498682976L1099.5,226.8913253545761L1101.9433333333334,267.700960367918L1104.3866666666665,262.85309448838234L1106.83,265.81812688708305L1109.2733333333333,254.8466136753559L1111.7166666666667,255.1872982084751L1114.16,262.13341784477234L1116.6033333333335,252.85095843672752L1119.0466666666666,277.45790764689445L1121.49,260.527304649353L1123.9333333333334,246.84018355607986L1126.3766666666666,261.15257263183594L1128.82,255.3324062526226L1131.2633333333333,274.7062227129936L1133.7066666666667,259.64678236842155L1136.15,266.3290748298168L1138.5933333333332,245.0030251443386L1141.0366666666666,235.44955694675446L1143.48,259.374478071928L1145.9233333333332,251.62188282608986L1148.3666666666666,265.16835129261017L1150.81,236.62582656741142L1153.2533333333333,256.28890720009804L1155.6966666666667,262.58449083566666L1158.14,278.73995822668076L1160.5833333333333,235.06832867860794L1163.0266666666666,246.8635139465332L1165.47,242.82152661681175L1167.9133333333332,256.8340734243393L1170.3566666666666,268.44171434640884L1172.8,236.11399430036545L1175.2433333333333,255.1392067372799L1177.6866666666667,264.18120315670967L1180.13,251.65608420968056L1182.5733333333333,248.2817561030388L1185.0166666666667,264.04579451680183L1187.46,272.55254378914833L1189.9033333333332,249.03625372052193L1192.3466666666668,243.34148678183556L1194.79,261.48036405444145L1197.2333333333333,266.71138456463814L1199.6766666666667,237.84438040852547L1202.12,250.70214611291885L1204.5633333333333,256.3771143257618L1207.0066666666667,261.20784571766853L1209.45,248.575560182333L1211.8933333333334,271.36215314269066L1214.3366666666668,244.4390121102333L1216.78,268.91535168886185L1219.2233333333334,270.89953887462616L1221.6666666666667,255.83861151337624L1224.11,255.99956980347633L1226.5533333333333,245.83995643258095L1228.9966666666667,263.9476457834244L1231.44,248.22580710053444L1233.8833333333334,271.1111007928848L1236.3266666666668,250.04304286837578L1238.77,218.17847782373428L1241.2133333333334,222.8955763578415L1243.6566666666668,281.0248382091522L1246.1,274.0788593888283L1248.5433333333333,234.41739839315414L1250.9866666666667,250.4339254796505L1253.43,270.68011379241943L1255.8733333333334,271.0673126578331L1258.3166666666666,260.24387589097023L1260.76,259.8759406507015L1263.2033333333334,274.34461855888367L1265.6466666666665,269.96789476275444L1268.09,262.3794346153736L1270.5333333333333,231.1053391098976L1272.9766666666667,220.31740486621857L1275.42,215.90023308992386L1277.8633333333335,267.75377199053764L1280.3066666666666,257.3426838219166L1282.75,230.14607816934586L1285.1933333333334,246.65964621305466L1287.6366666666665,261.22508722543716L1290.08,242.67343327403069L1292.5233333333333,267.9392491579056L1294.9666666666667,267.23639157414436L1297.41,200.90699315071106L1299.8533333333335,224.9035896062851L1302.2966666666666,247.75918239355087L1304.74,259.08658826351166L1307.1833333333334,222.86707520484924L1309.6266666666666,272.7359425127506L1312.07,256.6123840212822L1314.5133333333333,245.9183458685875L1316.9566666666667,270.6371536552906L1319.4,248.60875895619392L1321.8433333333332,251.1111151278019L1324.2866666666666,244.6710205078125L1326.73,227.28905725479126L1329.1733333333332,241.83048632740974L1331.6166666666666,260.55843061208725L1334.06,266.18074491620064L1336.5033333333333,263.65972781181335L1338.9466666666667,268.96302634477615L1341.39,245.0110741853714" style="fill: none;" fill="none"></path></g></g></g></g></g><g><g opacity="0.950141"><span fill="rgb(0, 0, 0)" stroke="none" stroke-width="1px">Alt + Scroll to Zoom</span></g></g></g><g transform="translate(30, 378)" clip-path="url(#clip_1)"><clipPath id="clip_1"><rect width="1466" height="22"></rect></clipPath><g><g><line x1="0" y1="0" x2="0" y2="5" style="visibility: inherit;" fill="rgb(0, 0, 0)" stroke="rgb(204, 204, 204)" stroke-width="1px"></line><line x1="122.16666666666666" y1="0" x2="122.16666666666666" y2="5" style="visibility: inherit;" fill="rgb(0, 0, 0)" stroke="rgb(204, 204, 204)" stroke-width="1px"></line><line x1="244.33333333333331" y1="0" x2="244.33333333333331" y2="5" style="visibility: inherit;" fill="rgb(0, 0, 0)" stroke="rgb(204, 204, 204)" stroke-width="1px"></line><line x1="366.5" y1="0" x2="366.5" y2="5" style="visibility: inherit;" fill="rgb(0, 0, 0)" stroke="rgb(204, 204, 204)" stroke-width="1px"></line><line x1="488.66666666666663" y1="0" x2="488.66666666666663" y2="5" style="visibility: inherit;" fill="rgb(0, 0, 0)" stroke="rgb(204, 204, 204)" stroke-width="1px"></line><line x1="610.8333333333334" y1="0" x2="610.8333333333334" y2="5" style="visibility: inherit;" fill="rgb(0, 0, 0)" stroke="rgb(204, 204, 204)" stroke-width="1px"></line><line x1="733" y1="0" x2="733" y2="5" style="visibility: inherit;" fill="rgb(0, 0, 0)" stroke="rgb(204, 204, 204)" stroke-width="1px"></line><line x1="855.1666666666667" y1="0" x2="855.1666666666667" y2="5" style="visibility: inherit;" fill="rgb(0, 0, 0)" stroke="rgb(204, 204, 204)" stroke-width="1px"></line><line x1="977.3333333333333" y1="0" x2="977.3333333333333" y2="5" style="visibility: inherit;" fill="rgb(0, 0, 0)" stroke="rgb(204, 204, 204)" stroke-width="1px"></line><line x1="1099.5" y1="0" x2="1099.5" y2="5" style="visibility: inherit;" fill="rgb(0, 0, 0)" stroke="rgb(204, 204, 204)" stroke-width="1px"></line><line x1="1221.6666666666667" y1="0" x2="1221.6666666666667" y2="5" style="visibility: inherit;" fill="rgb(0, 0, 0)" stroke="rgb(204, 204, 204)" stroke-width="1px"></line><line x1="1343.8333333333333" y1="0" x2="1343.8333333333333" y2="5" style="visibility: inherit;" fill="rgb(0, 0, 0)" stroke="rgb(204, 204, 204)" stroke-width="1px"></line><line x1="1466" y1="0" x2="1466" y2="5" style="visibility: inherit;" fill="rgb(0, 0, 0)" stroke="rgb(204, 204, 204)" stroke-width="1px"></line></g><g transform="translate(0, 8)"><text x="0" y="0" dx="0em" dy="0.95em" style="text-anchor: middle; visibility: hidden; font-family: &quot;Helvetica Neue&quot;, sans-serif; font-size: 12px; font-weight: 200;" fill="rgb(50, 49, 63)" stroke="none" stroke-width="1px">-50</text><text x="122.16666666666666" y="0" dx="0em" dy="0.95em" style="text-anchor: middle; visibility: inherit; font-family: &quot;Helvetica Neue&quot;, sans-serif; font-size: 12px; font-weight: 200;" fill="rgb(50, 49, 63)" stroke="none" stroke-width="1px">0</text><text x="244.33333333333331" y="0" dx="0em" dy="0.95em" style="text-anchor: middle; visibility: inherit; font-family: &quot;Helvetica Neue&quot;, sans-serif; font-size: 12px; font-weight: 200;" fill="rgb(50, 49, 63)" stroke="none" stroke-width="1px">50</text><text x="366.5" y="0" dx="0em" dy="0.95em" style="text-anchor: middle; visibility: inherit; font-family: &quot;Helvetica Neue&quot;, sans-serif; font-size: 12px; font-weight: 200;" fill="rgb(50, 49, 63)" stroke="none" stroke-width="1px">100</text><text x="488.66666666666663" y="0" dx="0em" dy="0.95em" style="text-anchor: middle; visibility: inherit; font-family: &quot;Helvetica Neue&quot;, sans-serif; font-size: 12px; font-weight: 200;" fill="rgb(50, 49, 63)" stroke="none" stroke-width="1px">150</text><text x="610.8333333333334" y="0" dx="0em" dy="0.95em" style="text-anchor: middle; visibility: inherit; font-family: &quot;Helvetica Neue&quot;, sans-serif; font-size: 12px; font-weight: 200;" fill="rgb(50, 49, 63)" stroke="none" stroke-width="1px">200</text><text x="733" y="0" dx="0em" dy="0.95em" style="text-anchor: middle; visibility: inherit; font-family: &quot;Helvetica Neue&quot;, sans-serif; font-size: 12px; font-weight: 200;" fill="rgb(50, 49, 63)" stroke="none" stroke-width="1px">250</text><text x="855.1666666666667" y="0" dx="0em" dy="0.95em" style="text-anchor: middle; visibility: inherit; font-family: &quot;Helvetica Neue&quot;, sans-serif; font-size: 12px; font-weight: 200;" fill="rgb(50, 49, 63)" stroke="none" stroke-width="1px">300</text><text x="977.3333333333333" y="0" dx="0em" dy="0.95em" style="text-anchor: middle; visibility: inherit; font-family: &quot;Helvetica Neue&quot;, sans-serif; font-size: 12px; font-weight: 200;" fill="rgb(50, 49, 63)" stroke="none" stroke-width="1px">350</text><text x="1099.5" y="0" dx="0em" dy="0.95em" style="text-anchor: middle; visibility: inherit; font-family: &quot;Helvetica Neue&quot;, sans-serif; font-size: 12px; font-weight: 200;" fill="rgb(50, 49, 63)" stroke="none" stroke-width="1px">400</text><text x="1221.6666666666667" y="0" dx="0em" dy="0.95em" style="text-anchor: middle; visibility: inherit; font-family: &quot;Helvetica Neue&quot;, sans-serif; font-size: 12px; font-weight: 200;" fill="rgb(50, 49, 63)" stroke="none" stroke-width="1px">450</text><text x="1343.8333333333333" y="0" dx="0em" dy="0.95em" style="text-anchor: middle; visibility: inherit; font-family: &quot;Helvetica Neue&quot;, sans-serif; font-size: 12px; font-weight: 200;" fill="rgb(50, 49, 63)" stroke="none" stroke-width="1px">500</text><text x="1466" y="0" dx="0em" dy="0.95em" style="text-anchor: middle; visibility: hidden; font-family: &quot;Helvetica Neue&quot;, sans-serif; font-size: 12px; font-weight: 200;" fill="rgb(50, 49, 63)" stroke="none" stroke-width="1px">550</text></g><line x1="0" y1="0" x2="1466" y2="0" fill="rgb(0, 0, 0)" stroke="rgb(204, 204, 204)" stroke-width="1px"></line></g></g></g></g></svg>