<svg viewBox="0 0 1496 400" xmlns="http://www.w3.org/2000/svg"><g><g><g><g><g><line x1="60" y1="378" x2="55" y2="378" style="visibility: inherit;" fill="rgb(0, 0, 0)" stroke="rgb(204, 204, 204)" stroke-width="1px"></line><line x1="60" y1="348.92307692307696" x2="55" y2="348.92307692307696" style="visibility: inherit;" fill="rgb(0, 0, 0)" stroke="rgb(204, 204, 204)" stroke-width="1px"></line><line x1="60" y1="319.84615384615387" x2="55" y2="319.84615384615387" style="visibility: inherit;" fill="rgb(0, 0, 0)" stroke="rgb(204, 204, 204)" stroke-width="1px"></line><line x1="60" y1="290.7692307692308" x2="55" y2="290.7692307692308" style="visibility: inherit;" fill="rgb(0, 0, 0)" stroke="rgb(204, 204, 204)" stroke-width="1px"></line><line x1="60" y1="261.6923076923077" x2="55" y2="261.6923076923077" style="visibility: inherit;" fill="rgb(0, 0, 0)" stroke="rgb(204, 204, 204)" stroke-width="1px"></line><line x1="60" y1="232.61538461538464" x2="55" y2="232.61538461538464" style="visibility: inherit;" fill="rgb(0, 0, 0)" stroke="rgb(204, 204, 204)" stroke-width="1px"></line><line x1="60" y1="203.53846153846158" x2="55" y2="203.53846153846158" style="visibility: inherit;" fill="rgb(0, 0, 0)" stroke="rgb(204, 204, 204)" stroke-width="1px"></line><line x1="60" y1="174.46153846153848" x2="55" y2="174.46153846153848" style="visibility: inherit;" fill="rgb(0, 0, 0)" stroke="rgb(204, 204, 204)" stroke-width="1px"></line><line x1="60" y1="145.38461538461542" x2="55" y2="145.38461538461542" style="visibility: inherit;" fill="rgb(0, 0, 0)" stroke="rgb(204, 204, 204)" stroke-width="1px"></line><line x1="60" y1="116.30769230769232" x2="55" y2="116.30769230769232" style="visibility: inherit;" fill="rgb(0, 0, 0)" stroke="rgb(204, 204, 204)" stroke-width="1px"></line><line x1="60" y1="87.23076923076925" x2="55" y2="87.23076923076925" style="visibility: inherit;" fill="rgb(0, 0, 0)" stroke="rgb(204, 204, 204)" stroke-width="1px"></line><line x1="60" y1="58.15384615384616" x2="55" y2="58.15384615384616" style="visibility: inherit;" fill="rgb(0, 0, 0)" stroke="rgb(204, 204, 204)" stroke-width="1px"></line><line x1="60" y1="29.076923076923098" x2="55" y2="29.076923076923098" style="visibility: inherit;" fill="rgb(0, 0, 0)" stroke="rgb(204, 204, 204)" stroke-width="1px"></line><line x1="60" y1="0" x2="55" y2="0" style="visibility: inherit;" fill="rgb(0, 0, 0)" stroke="rgb(204, 204, 204)" stroke-width="1px"></line></g><g transform="translate(50, 0)"><text x="0" y="378" dx="0em" dy="0.3em" style="text-anchor: end; visibility: hidden; font-family: Roboto, sans-serif; font-size: 12px; font-weight: 200;" fill="rgb(50, 49, 63)" stroke="none" stroke-width="1px">-0.24</text><text x="0" y="348.92307692307696" dx="0em" dy="0.3em" style="text-anchor: end; visibility: inherit; font-family: Roboto, sans-serif; font-size: 12px; font-weight: 200;" fill="rgb(50, 49, 63)" stroke="none" stroke-width="1px">-0.22</text><text x="0" y="319.84615384615387" dx="0em" dy="0.3em" style="text-anchor: end; visibility: inherit; font-family: Roboto, sans-serif; font-size: 12px; font-weight: 200;" fill="rgb(50, 49, 63)" stroke="none" stroke-width="1px">-0.2</text><text x="0" y="290.7692307692308" dx="0em" dy="0.3em" style="text-anchor: end; visibility: inherit; font-family: Roboto, sans-serif; font-size: 12px; font-weight: 200;" fill="rgb(50, 49, 63)" stroke="none" stroke-width="1px">-0.18</text><text x="0" y="261.6923076923077" dx="0em" dy="0.3em" style="text-anchor: end; visibility: inherit; font-family: Roboto, sans-serif; font-size: 12px; font-weight: 200;" fill="rgb(50, 49, 63)" stroke="none" stroke-width="1px">-0.16</text><text x="0" y="232.61538461538464" dx="0em" dy="0.3em" style="text-anchor: end; visibility: inherit; font-family: Roboto, sans-serif; font-size: 12px; font-weight: 200;" fill="rgb(50, 49, 63)" stroke="none" stroke-width="1px">-0.14</text><text x="0" y="203.53846153846158" dx="0em" dy="0.3em" style="text-anchor: end; visibility: inherit; font-family: Roboto, sans-serif; font-size: 12px; font-weight: 200;" fill="rgb(50, 49, 63)" stroke="none" stroke-width="1px">-0.12</text><text x="0" y="174.46153846153848" dx="0em" dy="0.3em" style="text-anchor: end; visibility: inherit; font-family: Roboto, sans-serif; font-size: 12px; font-weight: 200;" fill="rgb(50, 49, 63)" stroke="none" stroke-width="1px">-0.1</text><text x="0" y="145.38461538461542" dx="0em" dy="0.3em" style="text-anchor: end; visibility: inherit; font-family: Roboto, sans-serif; font-size: 12px; font-weight: 200;" fill="rgb(50, 49, 63)" stroke="none" stroke-width="1px">-0.08</text><text x="0" y="116.30769230769232" dx="0em" dy="0.3em" style="text-anchor: end; visibility: inherit; font-family: Roboto, sans-serif; font-size: 12px; font-weight: 200;" fill="rgb(50, 49, 63)" stroke="none" stroke-width="1px">-0.06</text><text x="0" y="87.23076923076925" dx="0em" dy="0.3em" style="text-anchor: end; visibility: inherit; font-family: Roboto, sans-serif; font-size: 12px; font-weight: 200;" fill="rgb(50, 49, 63)" stroke="none" stroke-width="1px">-0.04</text><text x="0" y="58.15384615384616" dx="0em" dy="0.3em" style="text-anchor: end; visibility: inherit; font-family: Roboto, sans-serif; font-size: 12px; font-weight: 200;" fill="rgb(50, 49, 63)" stroke="none" stroke-width="1px">-0.02</text><text x="0" y="29.076923076923098" dx="0em" dy="0.3em" style="text-anchor: end; visibility: inherit; font-family: Roboto, sans-serif; font-size: 12px; font-weight: 200;" fill="rgb(50, 49, 63)" stroke="none" stroke-width="1px">0</text><text x="0" y="0" dx="0em" dy="0.3em" style="text-anchor: end; visibility: hidden; font-family: Roboto, sans-serif; font-size: 12px; font-weight: 200;" fill="rgb(50, 49, 63)" stroke="none" stroke-width="1px">0.02</text></g><line x1="60" y1="0" x2="60" y2="378" fill="rgb(0, 0, 0)" stroke="rgb(204, 204, 204)" stroke-width="1px"></line></g></g><g transform="translate(60, 0)" clip-path="url(#clip_0)"><clipPath id="clip_0"><rect width="1436" height="378"></rect></clipPath><g><g><g><line x1="0" y1="0" x2="0" y2="378" fill="rgb(0, 0, 0)" stroke="rgb(60, 60, 60)" stroke-width="1px" opacity="0.25"></line><line x1="119.66666666666666" y1="0" x2="119.66666666666666" y2="378" fill="rgb(0, 0, 0)" stroke="rgb(60, 60, 60)" stroke-width="1px" opacity="0.25"></line><line x1="239.33333333333331" y1="0" x2="239.33333333333331" y2="378" fill="rgb(0, 0, 0)" stroke="rgb(60, 60, 60)" stroke-width="1px" opacity="0.25"></line><line x1="359" y1="0" x2="359" y2="378" fill="rgb(0, 0, 0)" stroke="rgb(60, 60, 60)" stroke-width="1px" opacity="0.25"></line><line x1="478.66666666666663" y1="0" x2="478.66666666666663" y2="378" fill="rgb(0, 0, 0)" stroke="rgb(60, 60, 60)" stroke-width="1px" opacity="0.25"></line><line x1="598.3333333333334" y1="0" x2="598.3333333333334" y2="378" fill="rgb(0, 0, 0)" stroke="rgb(60, 60, 60)" stroke-width="1px" opacity="0.25"></line><line x1="718" y1="0" x2="718" y2="378" fill="rgb(0, 0, 0)" stroke="rgb(60, 60, 60)" stroke-width="1px" opacity="0.25"></line><line x1="837.6666666666667" y1="0" x2="837.6666666666667" y2="378" fill="rgb(0, 0, 0)" stroke="rgb(60, 60, 60)" stroke-width="1px" opacity="0.25"></line><line x1="957.3333333333333" y1="0" x2="957.3333333333333" y2="378" fill="rgb(0, 0, 0)" stroke="rgb(60, 60, 60)" stroke-width="1px" opacity="0.25"></line><line x1="1077" y1="0" x2="1077" y2="378" fill="rgb(0, 0, 0)" stroke="rgb(60, 60, 60)" stroke-width="1px" opacity="0.25"></line><line x1="1196.6666666666667" y1="0" x2="1196.6666666666667" y2="378" fill="rgb(0, 0, 0)" stroke="rgb(60, 60, 60)" stroke-width="1px" opacity="0.25"></line><line x1="1316.3333333333333" y1="0" x2="1316.3333333333333" y2="378" fill="rgb(0, 0, 0)" stroke="rgb(60, 60, 60)" stroke-width="1px" opacity="0.25"></line><line x1="1436" y1="0" x2="1436" y2="378" fill="rgb(0, 0, 0)" stroke="rgb(60, 60, 60)" stroke-width="1px" opacity="0.25"></line></g><g><line x1="0" y1="378" x2="1436" y2="378" fill="rgb(0, 0, 0)" stroke="rgb(60, 60, 60)" stroke-width="1px" opacity="0.25"></line><line x1="0" y1="348.92307692307696" x2="1436" y2="348.92307692307696" fill="rgb(0, 0, 0)" stroke="rgb(60, 60, 60)" stroke-width="1px" opacity="0.25"></line><line x1="0" y1="319.84615384615387" x2="1436" y2="319.84615384615387" fill="rgb(0, 0, 0)" stroke="rgb(60, 60, 60)" stroke-width="1px" opacity="0.25"></line><line x1="0" y1="290.7692307692308" x2="1436" y2="290.7692307692308" fill="rgb(0, 0, 0)" stroke="rgb(60, 60, 60)" stroke-width="1px" opacity="0.25"></line><line x1="0" y1="261.6923076923077" x2="1436" y2="261.6923076923077" fill="rgb(0, 0, 0)" stroke="rgb(60, 60, 60)" stroke-width="1px" opacity="0.25"></line><line x1="0" y1="232.61538461538464" x2="1436" y2="232.61538461538464" fill="rgb(0, 0, 0)" stroke="rgb(60, 60, 60)" stroke-width="1px" opacity="0.25"></line><line x1="0" y1="203.53846153846158" x2="1436" y2="203.53846153846158" fill="rgb(0, 0, 0)" stroke="rgb(60, 60, 60)" stroke-width="1px" opacity="0.25"></line><line x1="0" y1="174.46153846153848" x2="1436" y2="174.46153846153848" fill="rgb(0, 0, 0)" stroke="rgb(60, 60, 60)" stroke-width="1px" opacity="0.25"></line><line x1="0" y1="145.38461538461542" x2="1436" y2="145.38461538461542" fill="rgb(0, 0, 0)" stroke="rgb(60, 60, 60)" stroke-width="1px" opacity="0.25"></line><line x1="0" y1="116.30769230769232" x2="1436" y2="116.30769230769232" fill="rgb(0, 0, 0)" stroke="rgb(60, 60, 60)" stroke-width="1px" opacity="0.25"></line><line x1="0" y1="87.23076923076925" x2="1436" y2="87.23076923076925" fill="rgb(0, 0, 0)" stroke="rgb(60, 60, 60)" stroke-width="1px" opacity="0.25"></line><line x1="0" y1="58.15384615384616" x2="1436" y2="58.15384615384616" fill="rgb(0, 0, 0)" stroke="rgb(60, 60, 60)" stroke-width="1px" opacity="0.25"></line><line x1="0" y1="29.076923076923098" x2="1436" y2="29.076923076923098" fill="rgb(0, 0, 0)" stroke="rgb(60, 60, 60)" stroke-width="1px" opacity="0.25"></line><line x1="0" y1="0" x2="1436" y2="0" fill="rgb(0, 0, 0)" stroke="rgb(60, 60, 60)" stroke-width="1px" opacity="0.25"></line></g></g></g><g><g><line x1="0" y1="29.076923076923098" x2="1436" y2="29.076923076923098" fill="rgb(0, 0, 0)" stroke="rgb(153, 153, 153)" stroke-width="1.5px"></line></g></g><g><g><line x1="119.66666666666666" y1="0" x2="119.66666666666666" y2="378" fill="rgb(0, 0, 0)" stroke="rgb(153, 153, 153)" stroke-width="1.5px"></line></g></g><g><g><g><g><g><path stroke="rgb(238, 51, 119)" stroke-width="2px" d="M122.65833333333333,308.6838926168588L123.25666666666666,306.98127585190997L125.64999999999999,215.90861012385443L126.24833333333333,224.55271779573886L127.445,238.47105525090143L128.04333333333335,187.03760939378006L128.64166666666668,182.09960482670715L129.83833333333334,196.66196955167334L130.43666666666667,178.26455761836127L131.035,195.6200180053711L131.63333333333333,188.76518308199374L134.02666666666667,164.18053392263562L139.41166666666666,173.5220489501953L140.01,163.32645254868729L141.20666666666665,162.88000092139615L143.00166666666667,207.86277536245495L143.6,154.08753820566034L144.79666666666665,192.77839499253494L145.99333333333334,350.4118683154766L146.59166666666667,199.659573334914L147.78833333333333,202.04087976308972L148.98499999999999,174.222922545213L149.58333333333334,203.3254680633545L151.37833333333333,197.84049092806308L151.97666666666666,199.5992607703576L152.575,206.51302176255447L153.17333333333335,205.77263303903436L153.77166666666668,191.71703250591574L155.56666666666666,195.93336604191705L156.165,184.19806612454929L157.36166666666668,194.214111328125L158.55833333333334,197.7295712691087L159.15666666666667,204.49775020892804L159.755,183.05975312453052L160.35333333333332,190.04353215144232L162.14833333333334,176.2021452096793L162.74666666666667,195.27686031048117L163.345,202.7341276315543L163.94333333333333,208.78202203603894L165.14000000000001,191.97353421724765L166.935,173.45272416334888L169.92666666666668,185.53464801494894L170.525,199.5202305133526L171.12333333333333,157.48722575261047L171.72166666666666,195.52296330378607L172.32,223.033811715933L172.91833333333335,174.25273220355695L175.91,171.87003927964432L180.69666666666666,178.43301685039816L182.49166666666665,169.60173225402832L183.09,223.81648855942947L187.2783333333333,205.62843748239374L189.07333333333332,173.6641647632306L190.27,194.47269278306229L190.8683333333333,177.44028590275695L191.46666666666667,189.59430753267733L193.86,194.91082543593188L194.45833333333331,193.4446061941294L195.05666666666667,183.80014184805066L196.85166666666666,160.84670492318963L197.45000000000002,190.81650352478027L199.245,182.97656338031476L201.63833333333332,173.3820128807655L202.83499999999998,188.41717265202453L204.03166666666667,168.20206480759842L204.63,181.8243854229267L205.22833333333332,172.3185706505409L205.82666666666668,194.77286911010742L208.22,168.67278011028586L209.41666666666669,209.0288182772123L211.21166666666667,189.28026624826288L211.81,172.67490005493164L212.40833333333333,181.12420507577752L213.605,171.00694568340597L214.20333333333335,212.78899471576398L214.80166666666668,221.13708554781405L216.5966666666667,150.8507639077994L217.79333333333335,165.53236726614148L218.39166666666665,190.76866942185623L219.58833333333334,190.12810839139502L220.18666666666664,185.30934245769797L221.98166666666665,176.66384829007663L224.97333333333336,176.07042811467102L225.57166666666666,171.5878873971793L226.17,189.13329770014838L227.36666666666665,187.8348444425143L227.965,173.8950163034293L229.16166666666666,186.6805867415208L230.35833333333335,161.5080633897048L230.95666666666665,153.34021700345554L231.555,175.52553529005786L232.1533333333333,179.17687181326062L233.35,187.37522110572232L233.94833333333332,178.99801386319675L238.13666666666666,170.73311277536249L240.53,176.77615444476788L242.92333333333332,159.9170595315787L243.52166666666668,187.1603142664983L244.12,196.45052895179165L246.51333333333332,180.64794379014236L248.30833333333334,176.7955653850849L250.10333333333332,193.83767773554877L250.70166666666668,184.84417313795825L252.49666666666667,181.8479558504545L253.095,171.96432098975552L254.29166666666669,201.42874189523553L254.89,182.1564511519212L255.48833333333334,194.0324803865873L256.685,179.20390848013074L257.28333333333336,202.86168523935174L258.48,176.5529286311223L259.0783333333333,168.56255369919998L259.6766666666667,150.55370719616232L261.4716666666667,173.49986501840448L263.26666666666665,184.63411903381348L266.2583333333333,177.63370205805853L267.455,214.58727968656103L268.65166666666664,176.51895948556756L269.25,176.59244375962479L272.2416666666667,171.13727628267733L274.03666666666663,192.39710866487948L274.635,180.60773541377142L275.23333333333335,170.19029969435474L275.83166666666665,184.77415510324334L277.0283333333333,180.54603635347812L279.4216666666667,147.2978685819186L280.61833333333334,168.72754669189453L281.815,193.6810037172758L283.01166666666666,189.13537744375378L286.00333333333333,181.26077490586502L287.2,191.06399301382214L289.5933333333333,187.2026023864746L292.585,174.71998126690207L293.7816666666667,178.70199702336242L294.38,197.59369468688965L296.175,157.64875250596268L297.37166666666667,202.81801062363846L297.96999999999997,212.46871420053338L298.5683333333333,180.09681173471307L299.765,172.86831621023327L300.36333333333334,178.68119958730847L300.9616666666667,161.53440680870645L303.355,183.36131594731262L303.9533333333333,165.55108495859002L305.15,189.77385873060962L306.945,150.63793681218078L309.33833333333337,149.7852419339694L309.93666666666667,186.02685400155877L310.535,162.69351724477917L311.1333333333333,191.02794412466199L312.33,189.2102482135479L314.125,194.97737723130447L314.72333333333336,192.8744098223173L315.32166666666666,167.8991154890794L317.1166666666667,170.37262388376092L317.715,199.3812343157255L318.91166666666663,183.08817628713757L322.50166666666667,180.83234772315396L323.6983333333333,170.26447721628045L325.49333333333334,177.04097513052136L326.09166666666664,172.57368586613586L327.2883333333333,171.47904748183032L327.88666666666666,176.71514863234302L330.87833333333333,187.41265649061938L331.4766666666667,197.6616329779992L332.67333333333335,194.84080740121698L333.87,209.88844563410834L334.4683333333333,178.39003548255337L335.06666666666666,199.6373894031231L336.8616666666667,193.74755551264838L337.46,168.0086486522968L339.255,160.8882997952975L339.85333333333335,162.5208985255315L341.05,183.9769200545091L341.6483333333333,173.28010544410122L342.84499999999997,169.9954970433162L345.23833333333334,143.2624727395865L345.8366666666667,211.9910664191613L346.435,170.762229185838L347.63166666666666,205.05512149517355L348.23,164.7826196963971L350.025,156.70524215698242L350.62333333333333,162.1520906595084L351.2216666666667,193.08134431105395L351.82,164.29249345339267L353.01666666666665,194.9881225732657L353.615,192.1572449023907L354.21333333333337,173.03920180980978L354.81166666666667,186.78284080211935L360.1966666666667,164.75731614919812L360.79499999999996,182.20913798992453L361.9916666666667,188.97107769892767L363.7866666666667,210.78620162376993L367.97499999999997,192.748585334191L368.5733333333333,171.57436906374423L370.9666666666667,174.0336658771222L371.565,199.04119623624365L372.1633333333333,165.50879683861368L373.36,172.54179646418646L374.5566666666666,189.24699035057657L376.95,204.3854440542368L382.335,189.71285291818475L382.93333333333334,182.08573986933783L383.5316666666667,181.49474606147183L384.13,183.46322338397687L385.32666666666665,168.46411250187805L385.925,193.98603277940018L387.72,196.5628351064829L389.515,183.89719654963568L393.7033333333333,188.49481641329257L394.3016666666667,155.66363723461447L394.90000000000003,151.00639805426968L395.4983333333333,175.25274225381708L396.695,154.1249735905574L397.29333333333335,166.6207664196308L397.8916666666667,207.0482091170091L399.0883333333333,187.42132208897522L399.68666666666667,171.64230735485373L400.285,182.5460564539983L401.4816666666667,154.59638214111328L402.6783333333333,177.33837846609265L403.27666666666664,202.1247627551739L405.66999999999996,190.5554957023034L409.8583333333333,187.69238200554483L411.65333333333336,196.20165296701288L412.2516666666667,174.637831394489L413.4483333333333,183.77102543757513L414.645,190.4480422826914L416.44,191.7919032757099L423.02166666666665,239.64611038794888L424.81666666666666,188.64941068796014L425.415,177.54357983515814L426.0133333333334,164.1087827682495L427.21,177.77720436683072L428.4066666666667,166.719554240887L429.005,193.99504500169022L430.20166666666665,183.50620475182168L433.1933333333334,187.8767859385564L433.79166666666663,171.1521811118493L437.38166666666666,168.15908343975363L438.5783333333333,189.89309736398553L439.1766666666667,225.04700352595404L439.77500000000003,224.79951403691217L440.3733333333333,183.64797394092267L440.97166666666664,211.86073581988995L441.57,202.250240619366L442.16833333333335,181.8223056793213L442.7666666666667,161.59575924506558L443.365,189.17939868340127L443.9633333333333,180.85869114215558L445.16,188.1669101715088L446.95500000000004,189.38598654820368L447.5533333333333,188.0764413246742L448.15166666666664,183.25004966442404L449.34833333333336,187.498619226309L451.7416666666667,172.2610310774583L452.93833333333333,175.73246977879455L454.135,142.8222603431115L456.52833333333336,187.85564187856824L457.1266666666667,191.6466678472666L457.72499999999997,187.03171678689813L458.9216666666667,195.25432975475607L460.11833333333334,186.02789387336148L461.315,177.91689381232632L462.51166666666666,174.42049818772537L463.11,202.30639369671164L464.905,168.4887228012085L466.1016666666667,192.41963922060458L466.7,161.04185419816238L467.29833333333335,183.56929030785196L467.89666666666665,191.36382271693304L468.495,189.59881364382235L469.0933333333333,182.09995145064136L470.29,191.8723200284518L470.8883333333334,174.87804178091199L473.88,171.36743457500754L474.47833333333335,179.61361797039328L475.675,163.0054787855882L476.2733333333333,145.08814100118786L476.87166666666667,191.16104771540716L478.66666666666663,218.71349099966199L479.86333333333334,219.94400596618652L481.06,169.70086669921875L482.25666666666666,216.35298200754016L483.4533333333333,164.270656145536L484.65000000000003,202.3209519019494L485.2483333333333,177.50129171518182L485.84666666666664,157.8650458409236L487.6416666666667,210.75015273460977L490.035,167.4308265539316L490.6333333333333,173.978206047645L491.83000000000004,156.64908907963684L492.4283333333333,179.23649112994855L493.625,215.21709537506104L496.0183333333333,191.36590246053845L499.01,185.16722664466275L503.1983333333333,200.64918466714715L503.7966666666667,184.0393123626709L504.99333333333334,175.62120349590597L505.5916666666667,146.60982007246753L506.19,158.21790900597207L506.7883333333333,174.70265007019043L507.38666666666666,177.7986950507531L507.985,179.9411775882428L509.1816666666666,159.54513205014743L509.78,177.99904368473938L512.1733333333334,202.46202784318191L512.7716666666666,191.8373110110943L513.9683333333334,201.08315783280594L515.165,188.77454192821799L516.96,203.72755182706396L518.1566666666666,171.55565137129565L518.755,169.08942207923306L519.3533333333334,198.3500281113845L521.1483333333333,163.5112031056331L521.7466666666667,195.3954056959886L522.345,231.1614497258113L522.9433333333334,166.87692150702847L523.5416666666666,175.8104601639968L524.7383333333333,158.29693926297702L525.3366666666667,191.43037451230566L525.9350000000001,216.1540198692909L527.1316666666667,189.5405808228713L527.73,168.74141164926385L528.3283333333334,183.80326146345874L528.9266666666667,168.3154108340924L529.525,187.63900191967306L530.1233333333333,196.79299339881314L531.32,170.3812894821167L531.9183333333333,159.387764784006L533.7133333333333,207.31614941817065L536.1066666666667,172.75947629488437L537.9016666666666,219.40951185960037L538.5,216.25835367349475L539.0983333333334,182.34570782001202L540.295,180.36301891620343L540.8933333333333,169.24401635390063L541.4916666666667,180.51276045579178L542.09,156.44076809516324L543.2866666666667,226.29415644132177L543.885,174.1490916472215L544.4833333333333,190.70073113074673L546.8766666666667,176.9362947023832L549.27,178.51897958608777L549.8683333333333,216.74432042928845L551.0649999999999,190.0702221943782L551.6633333333333,213.26213638599103L552.2616666666667,197.47306955777685L552.86,217.02716555962198L553.4583333333334,187.6220173468957L554.0566666666666,183.05802000485934L555.8516666666667,191.55481250469504L556.45,175.1113196886503L560.04,199.4626909402701L561.2366666666667,153.34922922574557L561.835,196.45919455014746L562.4333333333333,167.52441501617432L563.0316666666666,185.7551008371207L564.2283333333334,178.8590176655696L566.0233333333333,182.71486230996942L566.6216666666667,200.63323996617243L568.4166666666666,153.05321238591125L569.015,179.18519078768222L569.6133333333333,174.07560737316427L570.8100000000001,201.49356057093695L572.0066666666667,186.9131714013907L573.8016666666667,178.6493101853591L574.4,206.2187380423913L575.5966666666667,173.65480591700629L577.3916666666667,217.6871375304002L577.99,160.25293812384976L578.5883333333333,192.28098964691162L579.785,190.95619297027588L580.3833333333333,206.92689074002783L580.9816666666667,199.3923262816209L582.1783333333333,188.5908312430749L582.7766666666666,167.96705378018893L583.375,189.10418128967285L586.3666666666667,201.3036106549777L588.76,166.15143761268033L589.3583333333333,187.9637885460487L590.555,189.4029711209811L591.7516666666667,190.62031437800482L592.9483333333333,179.12071873591498L593.5466666666666,187.68059679178094L594.145,187.43033431126526L594.7433333333333,177.92174654740555L595.3416666666667,184.12908796163708L595.9399999999999,216.09232080899756L597.1366666666667,175.44997127239523L598.3333333333334,190.73470027630148L599.53,183.14328949268048L601.325,195.96317570026105L602.5216666666666,176.594176879296L603.12,173.53106117248535L603.7183333333334,181.68296285775995L606.1116666666667,195.3898597130409L607.3083333333333,216.29682893019458L607.9066666666666,177.7848300933838L609.1033333333334,171.42046803694507L610.8983333333333,172.93694774921124L612.095,190.17108975923983L612.6933333333334,187.2088416172908L613.2916666666666,213.88640609154336L615.0866666666667,185.08265040471008L616.8816666666667,179.6160443379329L617.48,201.5382750584529L618.6766666666667,190.21684411855847L619.8733333333333,177.68569564819336L621.07,189.46882966848523L624.0616666666666,187.57314337216891L625.2583333333333,182.0659823050866L625.8566666666667,190.67092147240274L626.455,177.98968483851507L627.0533333333333,204.4883913627038L628.8483333333334,154.66362718435437L632.4383333333334,213.65382143167346L633.635,194.54617705711954L634.2333333333333,190.5031554882343L634.8316666666667,181.51727661719693L635.43,189.27714663285477L636.0283333333333,215.3848613592295L638.4216666666666,186.60536934779242L639.6183333333333,184.50482830634488L640.2166666666667,228.61549692887527L642.0116666666667,204.36187362670898L642.61,168.1317001489493L643.2083333333334,196.99611502427322L643.8066666666666,205.7580748337966L644.405,192.5984971706684L645.6016666666667,176.02432713141812L646.2,184.96861113034763L646.7983333333334,169.00900532649115L647.3966666666666,210.6128896566538L648.5933333333334,202.6786678020771L650.3883333333333,172.83192069713888L651.585,178.26213125082165L652.1833333333333,180.34326135195224L653.38,176.39590798891513L653.9783333333334,182.8490057725173L655.7733333333333,182.60324940314663L656.3716666666667,156.93297408177307L657.5683333333334,181.03546934861404L658.1666666666666,201.94243856576776L662.355,198.40652781266434L662.9533333333334,201.09320992689868L663.5516666666667,186.92564986302307L664.15,177.57234962169943L664.7483333333333,197.04984173407925L665.3466666666667,174.3563727598924L665.945,210.49607739081753L667.1416666666667,182.8465794049777L667.74,174.1532511344323L668.3383333333333,162.70495583460882L670.1333333333333,179.9619750242967L670.7316666666667,194.42485868013827L671.33,189.38252030886142L671.9283333333333,185.12251215714676L673.125,190.80367843921368L676.715,178.20563154954178L677.3133333333334,201.29321193695068L677.9116666666667,178.57235967195956L679.1083333333333,192.10733105586127L681.5016666666667,224.17455108349142L683.2966666666666,164.52057200211746L685.0916666666667,180.1841609661396L687.485,216.28019098135144L689.28,183.31833457946777L689.8783333333333,214.15157340123102L690.4766666666667,162.97046976823074L691.6733333333334,200.07240244058465L692.2716666666666,200.1521259454581L692.87,189.12844496506912L694.665,194.40544773982123L695.2633333333333,169.65441909203165L696.46,203.75216212639444L697.6566666666666,217.77968612084024L698.255,178.21499039576605L699.4516666666666,190.33365638439474L700.6483333333333,159.5024973062369L701.2466666666667,179.06005954742432L702.4433333333334,196.7489721591656L703.64,209.99589905372036L704.2383333333333,189.94370445838345L704.8366666666667,190.1045379638672L705.4350000000001,189.24768359844504L707.23,183.1505685952994L707.8283333333334,230.43353946392355L708.4266666666667,191.11806634756238L710.2216666666667,176.35015362959643L710.82,191.95308340512793L715.6066666666667,192.05915032900302L717.4016666666666,195.00406727424038L718,191.0386894666232L719.1966666666667,167.53620022993823L720.3933333333334,191.19224386948807L720.9916666666667,206.0943000500019L722.7866666666666,204.13899443699762L723.385,190.45740112891568L724.5816666666667,153.86673875955438L725.18,202.39998215895434L725.7783333333333,178.0177613771879L726.3766666666667,164.82005508129416L728.1716666666666,177.21047423436096L732.9583333333333,195.67305146730868L733.5566666666667,181.13564366560718L734.155,169.16359960115878L735.3516666666667,189.7866838161762L736.5483333333334,221.23102063399097L737.1466666666666,187.6182044836191L737.745,209.04441635425275L738.9416666666666,192.31565204033487L740.1383333333333,179.14359591557434L740.7366666666667,195.8151672803439L741.335,169.55147178356466L743.13,187.0369161459116L743.7283333333334,158.51877858088568L744.3266666666666,175.7452948643611L747.3183333333333,208.76469083932733L748.515,194.74721893897427L749.1133333333332,202.851633145259L750.31,204.1362214455238L750.9083333333334,196.45434181506818L752.105,236.11019963484546L755.695,177.67633680196911L756.2933333333333,197.11015429863565L757.49,221.25979042053223L758.6866666666666,180.91796383490933L761.08,186.10276464315564L762.2766666666668,166.52059210263766L763.4733333333332,213.41291779738208L764.67,173.59102711310757L765.8666666666667,185.58074899820184L767.0633333333334,198.31397922222433L767.6616666666666,204.342462686392L768.26,175.51998930711014L768.8583333333333,192.35274080129773L769.4566666666667,135.07972152416525L771.85,188.71284286792462L773.0466666666666,172.8742088171152L773.645,191.6972749416645L777.235,182.60082303560702L778.4316666666667,189.34473830003006L779.6283333333334,210.11201807168817L780.2266666666667,210.84374119685248L780.8249999999999,207.9192750637348L784.415,181.4396328559289L786.21,217.0060214996338L787.4066666666666,194.88725500840408L789.2016666666666,206.71406364440918L790.9966666666666,178.36126569601208L791.595,203.29981789222134L792.7916666666667,195.7915968528161L793.39,187.63761542393615L793.9883333333332,167.3469435618474L794.5866666666667,167.76358553079461L795.7833333333334,212.99939544384299L796.3816666666667,176.28013559488153L797.5783333333334,181.26424114520734L798.1766666666666,186.22581613980807L798.775,166.64503009502707L800.57,185.87711246197043L801.1683333333333,214.1512267772968L802.365,198.00305755321799L807.1516666666668,173.32447330768292L807.75,165.5112232061533L808.3483333333332,217.37413611778848L808.9466666666667,155.21822547912598L810.7416666666667,202.95458045372598L811.3399999999999,199.28729922954855L811.9383333333334,207.20141689593976L813.7333333333333,193.07926456744855L814.3316666666667,218.89546856513394L814.93,178.46629274808444L816.725,176.8468657273513L823.905,202.67589481060324L825.6999999999999,198.87620324354907L826.8966666666666,217.07950577369107L827.495,198.1365077678974L828.6916666666666,187.61543149214526L829.29,195.3427188579853L831.085,163.44742430173434L832.88,200.56356855539178L833.4783333333334,201.36011035625754L834.0766666666666,188.8639709032499L834.6750000000001,204.81040499760553L835.2733333333333,182.78973307976358L835.8716666666666,209.5990146490244L836.47,196.39680224198563L837.0683333333333,181.54119366865893L838.265,192.52050678546613L839.4616666666667,215.60670067713812L840.06,189.75340791848993L841.2566666666667,188.50521513131952L842.4533333333334,179.23475801027743L843.65,207.7965701910166L844.2483333333333,210.53801888685962L844.8466666666667,194.24426761040323L845.445,167.7271900177002L846.0433333333333,212.8888224088229L846.6416666666667,178.2499994131235L849.0350000000001,178.3293762940627L852.0266666666668,165.32820576887866L852.625,179.92211327186L853.8216666666667,199.24466448563797L854.42,206.47038701864392L856.8133333333334,178.96820420485278L857.4116666666666,195.954163477971L858.01,190.91910420931308L859.2066666666667,203.31298960172217L861.0016666666667,174.85377810551574L862.7966666666666,184.04277860201327L863.9933333333333,197.57740336198074L865.19,195.72885792072003L865.7883333333333,225.19327882620007L866.985,226.1343628076407L867.5833333333333,171.43675936185397L869.3783333333334,188.3624060704158L869.9766666666667,206.12099009293777L870.5749999999999,177.64236765641434L871.7716666666666,205.2651755993183L872.37,182.7072365834163L872.9683333333334,176.09573166186993L874.165,174.3359219477727L874.7633333333333,211.1113348740798L875.3616666666667,183.72943056546725L875.96,161.33995078160217L876.5583333333334,218.5481513830332L877.1566666666666,206.23710911090558L880.1483333333333,200.1687638943012L880.7466666666666,187.2923779854408L881.9433333333333,182.81850286630487L884.3366666666667,198.9659788425152L884.935,184.1089837734516L886.1316666666667,209.05342857654279L888.525,223.233813725985L889.7216666666667,195.01654573587274L890.9183333333333,194.27893000382645L892.115,195.60338005652798L892.7133333333334,205.5722844050481L893.3116666666666,190.6937986520621L893.9100000000001,226.05637242243841L895.1066666666666,201.67172527313232L896.9016666666668,170.7528703396137L897.5,192.49693635793835L898.6966666666667,203.35423784989578L899.295,219.4836893815261L899.8933333333334,222.02617593911975L901.0899999999999,211.36298385033243L903.4833333333333,212.25935334425708L904.68,191.0036804492657L905.2783333333333,217.84866428375244L906.475,141.0447728083684L907.0733333333334,194.1517190199632L908.8683333333333,143.6954060334426L909.4666666666666,173.10228736584006L912.4583333333333,184.73498659867508L913.0566666666667,226.661577811608L913.655,234.9237059079684L914.2533333333334,170.9355411529541L915.4499999999999,210.79140098278341L916.6466666666666,181.9249063638541L917.245,218.67536236689642L917.8433333333334,230.2723593345055L918.4416666666666,226.5856671700111L919.04,213.20979617192194L919.6383333333333,173.494665659391L921.4333333333334,197.44533964303827L923.2283333333334,213.75607549227206L924.4250000000001,197.79300344907324L925.6216666666666,172.88980689415567L926.22,163.18918947073132L926.8183333333333,180.60253605475796L927.4166666666667,208.39414985363302L928.015,180.42402472862832L930.4083333333334,174.85759096879227L932.8016666666666,200.1791626123282L933.9983333333333,197.16180126483624L934.5966666666667,191.8230994297908L936.3916666666667,191.6425083600558L936.99,174.50854066702038L937.5883333333334,178.09679163419284L939.3833333333333,200.64641167567328L941.1783333333333,224.52776087247412L941.7766666666668,204.08006836817816L942.375,169.59098691206714L943.5716666666667,193.76627320509692L944.17,231.23978673494784L944.7683333333334,195.5371748850896L946.5633333333334,202.12164313976584L947.76,177.23855077303378L948.3583333333333,196.66474254314718L948.9566666666667,196.41621318230264L949.555,184.42683792114258L950.1533333333333,173.04925390390252L950.7516666666667,206.54803077991193L951.9483333333334,201.36704283494217L952.5466666666666,206.89326821840731L954.3416666666666,208.7556786170373L957.3333333333333,199.71780615586502L964.5133333333333,230.34688348036548L965.1116666666667,178.11828231811523L965.71,212.55329044048605L966.3083333333334,176.68152611072247L968.7016666666666,195.2179342416617L970.4966666666666,204.23431601891153L971.095,191.2009094678439L972.2916666666667,170.45477375617398L972.89,190.63972531832187L973.4883333333332,204.28665623298062L974.0866666666667,172.64058428544266L975.2833333333334,199.962522653433L976.48,194.30527342282812L977.0783333333334,175.29918986100418L977.6766666666666,181.44240584740274L978.8733333333333,183.62821637667147L979.4716666666667,184.2271825350248L980.07,217.69303013728216L981.2666666666667,206.88321612431452L982.4633333333334,230.27305258237402L986.0533333333333,195.79506309215841L987.25,196.7409998086783L990.2416666666667,215.42957584674542L990.8399999999999,237.22459558340222L993.2333333333333,181.01155229715204L996.225,192.09311947455777L996.8233333333334,181.83651726062482L999.2166666666666,187.94576410146863L1001.61,186.0057099415706L1003.405,191.14614288623517L1005.1999999999999,199.62768393296463L1005.7983333333334,160.7704476576585L1006.3966666666666,179.49923207209662L1008.1916666666666,211.86732167464038L1008.79,180.53529101151688L1010.585,192.1926005436824L1011.7816666666666,182.65766936082107L1012.38,188.1312079062829L1012.9783333333334,182.43028405996472L1017.1666666666667,213.10268937624423L1017.765,226.63592764047473L1018.3633333333332,184.0888795852661L1018.9616666666667,209.92310802753155L1020.1583333333334,183.23202521984396L1020.7566666666667,195.45606488447925L1021.355,181.97967294546277L1021.9533333333334,195.38639347369855L1022.5516666666666,182.47187893207257L1023.15,196.15347224015457L1023.7483333333333,171.59343338012695L1024.3466666666668,179.66387844085693L1024.945,214.46526806171124L1026.74,192.83628118955176L1027.9366666666667,189.1946501365075L1030.9283333333333,182.25003961416394L1031.5266666666666,191.52361635061413L1032.125,213.33596728398248L1033.3216666666667,203.20310981457052L1037.51,205.24645790686978L1038.7066666666667,169.42668716724103L1041.6983333333335,187.0681122999925L1042.2966666666666,182.43998953012323L1044.69,200.2675517155574L1045.8866666666668,207.32897450373724L1046.485,202.72026267418497L1047.6816666666666,167.53966646928055L1048.28,187.83345794677734L1049.4766666666667,205.40209205334006L1050.075,215.89890465369595L1053.665,159.16835183363696L1054.2633333333333,180.56475404592663L1054.8616666666667,223.13710564833423L1057.8533333333335,196.23146262535684L1058.4516666666666,192.26677806560812L1063.8366666666666,186.43275062854474L1064.435,187.08613674457257L1066.23,200.32578453650845L1066.8283333333334,185.97936652256897L1067.4266666666665,181.3283665730403L1068.6233333333332,165.27413243513843L1069.82,197.40305152306192L1071.0166666666667,210.86973799191992L1072.8116666666667,217.13184598776013L1073.41,199.11329401456396L1074.6066666666666,231.9798288345337L1075.205,242.9286390451285L1076.4016666666666,212.1962677882268L1077.5983333333334,220.39288396101733L1078.1966666666667,194.32156474773703L1079.3933333333334,205.33450038616476L1079.9916666666666,180.54568972954385L1082.385,201.76011437636157L1082.9833333333333,196.65018433790942L1084.18,183.53705428196838L1084.7783333333332,223.4774903517503L1085.3766666666668,184.81886959075928L1085.975,179.6645716887254L1087.1716666666666,196.71153677426855L1087.77,173.70402651566727L1088.3683333333333,205.46968372051535L1088.9666666666667,205.39654607039233L1091.36,174.18063442523663L1092.5566666666666,173.93071856865518L1093.155,208.0166763892541L1093.7533333333333,176.91515064239502L1094.95,244.3796068338248L1096.1466666666665,177.31862090184143L1097.3433333333332,184.1644436029288L1098.54,174.472145153926L1099.1383333333333,198.74379290067236L1099.7366666666667,177.34392444904034L1100.9333333333334,170.0405581547664L1101.5316666666668,193.83871760735147L1102.1299999999999,191.9336724648109L1102.7283333333335,212.71065770662753L1103.3266666666666,186.63240601466254L1103.925,187.923926793612L1105.1216666666667,197.5898818236131L1105.72,203.78786439162036L1107.515,169.0318825061505L1108.1133333333332,215.61432640369122L1109.31,226.2442425947923L1109.9083333333333,236.3909650215736L1111.7033333333334,188.66986150007983L1112.3016666666665,177.673217186561L1112.9,226.00957819131702L1113.4983333333332,206.33936317150412L1114.0966666666668,213.0177665123573L1115.2933333333333,176.09989114908075L1117.6866666666667,188.37939064319318L1118.8833333333334,189.29690419710604L1119.4816666666666,173.88149796999423L1120.08,191.87925250713644L1121.875,178.79454561380243L1122.4733333333334,170.5306843977708L1123.67,213.7418639109685L1126.0633333333333,204.88770213493936L1126.6616666666666,212.03439441094034L1127.26,186.4601339193491L1127.8583333333333,173.137989631066L1129.055,195.1409837282621L1131.4483333333335,187.48024815779468L1132.0466666666666,196.38917651543252L1133.2433333333333,196.00927668351395L1133.8416666666667,167.5649700164795L1134.44,174.57162622305066L1135.0383333333334,214.8940418683566L1136.235,189.2795730003944L1138.03,191.47439575195312L1138.6283333333333,198.15279909280633L1139.2266666666667,194.52052688598633L1139.825,188.01820850372314L1140.4233333333334,169.3025957987859L1142.2183333333332,175.61080477787903L1142.8166666666666,182.94536722623386L1145.21,184.65664958953857L1145.8083333333334,203.27174135354852L1147.0049999999999,219.43585527860205L1147.6033333333335,208.75290562556341L1148.2016666666666,183.00117367964526L1150.595,193.9915787623479L1152.39,207.0038412534274L1153.5866666666666,198.84916657667895L1155.3816666666667,179.79524891193097L1155.98,194.46125419323263L1156.5783333333334,237.85926400698153L1157.1766666666665,178.59627672342157L1157.775,191.84043062650244L1158.9716666666668,197.1635343845074L1159.57,189.13745718735916L1160.1683333333333,187.28925837003268L1161.9633333333334,194.42624517587518L1162.5616666666667,215.05348887810342L1163.7583333333334,192.38740319472095L1164.3566666666666,178.14566560891961L1164.955,161.23492372952975L1166.75,275.01977612422064L1167.9466666666667,178.9179437343891L1168.545,201.50326604109546L1169.1433333333334,213.63579698709339L1169.7416666666666,195.6973151427049L1173.93,209.22743379152743L1174.5283333333332,188.16136418856112L1176.3233333333335,169.56706986060513L1179.315,175.71340546241177L1181.7083333333333,183.18384449298566L1182.905,202.4658407064585L1184.1016666666667,216.50480329073397L1185.2983333333334,175.004906140841L1185.8966666666665,159.88863636897162L1186.4950000000001,188.77419530428378L1187.0933333333332,191.41650955493634L1189.4866666666667,214.55331054100625L1190.085,215.7626814475426L1190.6833333333334,186.74956490443304L1191.8799999999999,200.7805551382212L1192.4783333333335,162.24221288240878L1193.0766666666666,193.42623512561505L1195.47,184.93776160020096L1196.6666666666667,227.06435482318585L1197.8633333333332,200.39094983614413L1199.06,194.8702704356267L1199.6583333333333,178.0035497958844L1200.855,188.18632111182583L1203.2483333333332,194.62451406625604L1204.445,188.5922177388118L1205.0433333333333,175.63922794048605L1206.8383333333334,167.23117116781384L1208.6333333333334,197.55452618232144L1211.0266666666666,181.62923614795392L1212.2233333333334,211.01635991610019L1212.8216666666667,210.56297581012433L1214.6166666666666,214.50859605349032L1217.01,188.22202337705173L1217.6083333333333,234.26130756965054L1218.2066666666667,184.2084648425763L1218.805,209.32414186917822L1220.6,233.91503025935248L1221.1983333333335,203.91888823876016L1221.7966666666666,206.1251495801486L1222.9933333333333,239.40936624086825L1223.5916666666667,199.33998606755182L1224.19,196.74169305654675L1225.3866666666668,182.00289674905633L1225.985,207.83261908017676L1227.78,213.78831151815564L1228.3783333333333,177.57893547644986L1229.575,198.2321759737455L1230.7716666666665,189.69344197786776L1231.3700000000001,179.58519480778625L1231.9683333333332,191.1478760059063L1236.1566666666668,192.09103973095236L1236.7549999999999,216.59665863330548L1237.3533333333335,168.62771899883566L1237.9516666666666,184.06322941413296L1241.5416666666667,217.47950979379505L1242.14,206.7733363371629L1242.7383333333332,197.02315169114334L1243.3366666666666,171.19550910362832L1243.935,192.32639738229608L1245.1316666666667,189.29829069284295L1246.9266666666665,222.28233102651745L1248.7216666666668,184.47397877619818L1251.115,210.04061354123633L1251.7133333333334,187.97384064014142L1252.3116666666667,209.80421601808993L1252.91,187.81266051072342L1253.5083333333334,204.20797259990988L1254.705,174.31373801598184L1255.3033333333333,178.13734663449802L1257.6966666666667,188.77419530428378L1259.4916666666666,208.2683253655067L1260.09,191.03106374007007L1261.885,176.12692781595086L1262.4833333333333,177.9338783851037L1263.0816666666667,170.3199370457576L1263.68,210.026748583867L1264.2783333333332,155.27680492401123L1265.475,178.2981801399818L1266.0733333333335,158.0244928506705L1266.6716666666666,209.77648610335132L1267.27,230.93267792921802L1267.8683333333333,205.6433423115657L1270.2616666666668,185.53880750215976L1270.86,161.32608582423285L1271.4583333333333,177.6718306908241L1273.2533333333333,196.40512121640722L1274.45,186.7180221264179L1275.0483333333334,186.41680592757007L1275.6466666666665,200.52266693115234L1276.8433333333332,187.65667974031894L1277.4416666666666,186.23725472963778L1278.04,221.54367542266846L1279.2366666666667,224.61164386455832L1279.835,187.70347397144025L1281.6299999999999,201.26825501368597L1282.8266666666666,190.5943175829374L1284.0233333333333,231.88000114147482L1284.6216666666667,187.1305046081543L1285.8183333333334,201.5147046309251L1287.6133333333332,187.29064486576965L1288.81,193.4501521770771L1289.4083333333333,211.98066770113437L1290.0066666666667,203.73795054509088L1291.2033333333334,188.65599654271057L1292.4,226.48410635728104L1292.9983333333332,192.6293467008151L1293.5966666666668,141.59937110314004L1295.99,176.42017166431134L1296.5883333333334,182.18140807518594L1297.785,161.06299825815057L1298.9816666666666,219.3932205346915L1301.9733333333334,206.75739163618823L1304.3666666666666,185.58248211787298L1304.965,193.29486465454102L1305.5633333333333,206.87489714989297L1306.1616666666666,178.10025787353516L1313.3416666666667,201.457858305711L1314.5383333333334,193.62623713566705L1315.735,196.4761791229248" style="fill: none;" fill="none"></path></g></g></g></g></g></g><g transform="translate(60, 378)" clip-path="url(#clip_1)"><clipPath id="clip_1"><rect width="1436" height="22"></rect></clipPath><g><g><line x1="0" y1="0" x2="0" y2="5" style="visibility: inherit;" fill="rgb(0, 0, 0)" stroke="rgb(204, 204, 204)" stroke-width="1px"></line><line x1="119.66666666666666" y1="0" x2="119.66666666666666" y2="5" style="visibility: inherit;" fill="rgb(0, 0, 0)" stroke="rgb(204, 204, 204)" stroke-width="1px"></line><line x1="239.33333333333331" y1="0" x2="239.33333333333331" y2="5" style="visibility: inherit;" fill="rgb(0, 0, 0)" stroke="rgb(204, 204, 204)" stroke-width="1px"></line><line x1="359" y1="0" x2="359" y2="5" style="visibility: inherit;" fill="rgb(0, 0, 0)" stroke="rgb(204, 204, 204)" stroke-width="1px"></line><line x1="478.66666666666663" y1="0" x2="478.66666666666663" y2="5" style="visibility: inherit;" fill="rgb(0, 0, 0)" stroke="rgb(204, 204, 204)" stroke-width="1px"></line><line x1="598.3333333333334" y1="0" x2="598.3333333333334" y2="5" style="visibility: inherit;" fill="rgb(0, 0, 0)" stroke="rgb(204, 204, 204)" stroke-width="1px"></line><line x1="718" y1="0" x2="718" y2="5" style="visibility: inherit;" fill="rgb(0, 0, 0)" stroke="rgb(204, 204, 204)" stroke-width="1px"></line><line x1="837.6666666666667" y1="0" x2="837.6666666666667" y2="5" style="visibility: inherit;" fill="rgb(0, 0, 0)" stroke="rgb(204, 204, 204)" stroke-width="1px"></line><line x1="957.3333333333333" y1="0" x2="957.3333333333333" y2="5" style="visibility: inherit;" fill="rgb(0, 0, 0)" stroke="rgb(204, 204, 204)" stroke-width="1px"></line><line x1="1077" y1="0" x2="1077" y2="5" style="visibility: inherit;" fill="rgb(0, 0, 0)" stroke="rgb(204, 204, 204)" stroke-width="1px"></line><line x1="1196.6666666666667" y1="0" x2="1196.6666666666667" y2="5" style="visibility: inherit;" fill="rgb(0, 0, 0)" stroke="rgb(204, 204, 204)" stroke-width="1px"></line><line x1="1316.3333333333333" y1="0" x2="1316.3333333333333" y2="5" style="visibility: inherit;" fill="rgb(0, 0, 0)" stroke="rgb(204, 204, 204)" stroke-width="1px"></line><line x1="1436" y1="0" x2="1436" y2="5" style="visibility: inherit;" fill="rgb(0, 0, 0)" stroke="rgb(204, 204, 204)" stroke-width="1px"></line></g><g transform="translate(0, 8)"><text x="0" y="0" dx="0em" dy="0.95em" style="text-anchor: middle; visibility: hidden; font-family: Roboto, sans-serif; font-size: 12px; font-weight: 200;" fill="rgb(50, 49, 63)" stroke="none" stroke-width="1px">-200</text><text x="119.66666666666666" y="0" dx="0em" dy="0.95em" style="text-anchor: middle; visibility: inherit; font-family: Roboto, sans-serif; font-size: 12px; font-weight: 200;" fill="rgb(50, 49, 63)" stroke="none" stroke-width="1px">0</text><text x="239.33333333333331" y="0" dx="0em" dy="0.95em" style="text-anchor: middle; visibility: inherit; font-family: Roboto, sans-serif; font-size: 12px; font-weight: 200;" fill="rgb(50, 49, 63)" stroke="none" stroke-width="1px">200</text><text x="359" y="0" dx="0em" dy="0.95em" style="text-anchor: middle; visibility: inherit; font-family: Roboto, sans-serif; font-size: 12px; font-weight: 200;" fill="rgb(50, 49, 63)" stroke="none" stroke-width="1px">400</text><text x="478.66666666666663" y="0" dx="0em" dy="0.95em" style="text-anchor: middle; visibility: inherit; font-family: Roboto, sans-serif; font-size: 12px; font-weight: 200;" fill="rgb(50, 49, 63)" stroke="none" stroke-width="1px">600</text><text x="598.3333333333334" y="0" dx="0em" dy="0.95em" style="text-anchor: middle; visibility: inherit; font-family: Roboto, sans-serif; font-size: 12px; font-weight: 200;" fill="rgb(50, 49, 63)" stroke="none" stroke-width="1px">800</text><text x="718" y="0" dx="0em" dy="0.95em" style="text-anchor: middle; visibility: inherit; font-family: Roboto, sans-serif; font-size: 12px; font-weight: 200;" fill="rgb(50, 49, 63)" stroke="none" stroke-width="1px">1k</text><text x="837.6666666666667" y="0" dx="0em" dy="0.95em" style="text-anchor: middle; visibility: inherit; font-family: Roboto, sans-serif; font-size: 12px; font-weight: 200;" fill="rgb(50, 49, 63)" stroke="none" stroke-width="1px">1.2k</text><text x="957.3333333333333" y="0" dx="0em" dy="0.95em" style="text-anchor: middle; visibility: inherit; font-family: Roboto, sans-serif; font-size: 12px; font-weight: 200;" fill="rgb(50, 49, 63)" stroke="none" stroke-width="1px">1.4k</text><text x="1077" y="0" dx="0em" dy="0.95em" style="text-anchor: middle; visibility: inherit; font-family: Roboto, sans-serif; font-size: 12px; font-weight: 200;" fill="rgb(50, 49, 63)" stroke="none" stroke-width="1px">1.6k</text><text x="1196.6666666666667" y="0" dx="0em" dy="0.95em" style="text-anchor: middle; visibility: inherit; font-family: Roboto, sans-serif; font-size: 12px; font-weight: 200;" fill="rgb(50, 49, 63)" stroke="none" stroke-width="1px">1.8k</text><text x="1316.3333333333333" y="0" dx="0em" dy="0.95em" style="text-anchor: middle; visibility: inherit; font-family: Roboto, sans-serif; font-size: 12px; font-weight: 200;" fill="rgb(50, 49, 63)" stroke="none" stroke-width="1px">2k</text><text x="1436" y="0" dx="0em" dy="0.95em" style="text-anchor: middle; visibility: hidden; font-family: Roboto, sans-serif; font-size: 12px; font-weight: 200;" fill="rgb(50, 49, 63)" stroke="none" stroke-width="1px">2.2k</text></g><line x1="0" y1="0" x2="1436" y2="0" fill="rgb(0, 0, 0)" stroke="rgb(204, 204, 204)" stroke-width="1px"></line></g></g></g></g></svg>