<svg viewBox="0 0 1496 400" xmlns="http://www.w3.org/2000/svg"><g><g><g><g><g><line x1="50" y1="378" x2="45" y2="378" style="visibility: inherit;" fill="rgb(0, 0, 0)" stroke="rgb(204, 204, 204)" stroke-width="1px"></line><line x1="50" y1="336" x2="45" y2="336" style="visibility: inherit;" fill="rgb(0, 0, 0)" stroke="rgb(204, 204, 204)" stroke-width="1px"></line><line x1="50" y1="294" x2="45" y2="294" style="visibility: inherit;" fill="rgb(0, 0, 0)" stroke="rgb(204, 204, 204)" stroke-width="1px"></line><line x1="50" y1="252" x2="45" y2="252" style="visibility: inherit;" fill="rgb(0, 0, 0)" stroke="rgb(204, 204, 204)" stroke-width="1px"></line><line x1="50" y1="210" x2="45" y2="210" style="visibility: inherit;" fill="rgb(0, 0, 0)" stroke="rgb(204, 204, 204)" stroke-width="1px"></line><line x1="50" y1="168" x2="45" y2="168" style="visibility: inherit;" fill="rgb(0, 0, 0)" stroke="rgb(204, 204, 204)" stroke-width="1px"></line><line x1="50" y1="126.00000000000001" x2="45" y2="126.00000000000001" style="visibility: inherit;" fill="rgb(0, 0, 0)" stroke="rgb(204, 204, 204)" stroke-width="1px"></line><line x1="50" y1="84.00000000000004" x2="45" y2="84.00000000000004" style="visibility: inherit;" fill="rgb(0, 0, 0)" stroke="rgb(204, 204, 204)" stroke-width="1px"></line><line x1="50" y1="42.00000000000002" x2="45" y2="42.00000000000002" style="visibility: inherit;" fill="rgb(0, 0, 0)" stroke="rgb(204, 204, 204)" stroke-width="1px"></line><line x1="50" y1="0" x2="45" y2="0" style="visibility: inherit;" fill="rgb(0, 0, 0)" stroke="rgb(204, 204, 204)" stroke-width="1px"></line></g><g transform="translate(40, 0)"><text x="0" y="378" dx="0em" dy="0.3em" style="text-anchor: end; visibility: hidden; font-family: Roboto, sans-serif; font-size: 12px; font-weight: 200;" fill="rgb(50, 49, 63)" stroke="none" stroke-width="1px">-0.2</text><text x="0" y="336" dx="0em" dy="0.3em" style="text-anchor: end; visibility: inherit; font-family: Roboto, sans-serif; font-size: 12px; font-weight: 200;" fill="rgb(50, 49, 63)" stroke="none" stroke-width="1px">0</text><text x="0" y="294" dx="0em" dy="0.3em" style="text-anchor: end; visibility: inherit; font-family: Roboto, sans-serif; font-size: 12px; font-weight: 200;" fill="rgb(50, 49, 63)" stroke="none" stroke-width="1px">0.2</text><text x="0" y="252" dx="0em" dy="0.3em" style="text-anchor: end; visibility: inherit; font-family: Roboto, sans-serif; font-size: 12px; font-weight: 200;" fill="rgb(50, 49, 63)" stroke="none" stroke-width="1px">0.4</text><text x="0" y="210" dx="0em" dy="0.3em" style="text-anchor: end; visibility: inherit; font-family: Roboto, sans-serif; font-size: 12px; font-weight: 200;" fill="rgb(50, 49, 63)" stroke="none" stroke-width="1px">0.6</text><text x="0" y="168" dx="0em" dy="0.3em" style="text-anchor: end; visibility: inherit; font-family: Roboto, sans-serif; font-size: 12px; font-weight: 200;" fill="rgb(50, 49, 63)" stroke="none" stroke-width="1px">0.8</text><text x="0" y="126.00000000000001" dx="0em" dy="0.3em" style="text-anchor: end; visibility: inherit; font-family: Roboto, sans-serif; font-size: 12px; font-weight: 200;" fill="rgb(50, 49, 63)" stroke="none" stroke-width="1px">1</text><text x="0" y="84.00000000000004" dx="0em" dy="0.3em" style="text-anchor: end; visibility: inherit; font-family: Roboto, sans-serif; font-size: 12px; font-weight: 200;" fill="rgb(50, 49, 63)" stroke="none" stroke-width="1px">1.2</text><text x="0" y="42.00000000000002" dx="0em" dy="0.3em" style="text-anchor: end; visibility: inherit; font-family: Roboto, sans-serif; font-size: 12px; font-weight: 200;" fill="rgb(50, 49, 63)" stroke="none" stroke-width="1px">1.4</text><text x="0" y="0" dx="0em" dy="0.3em" style="text-anchor: end; visibility: hidden; font-family: Roboto, sans-serif; font-size: 12px; font-weight: 200;" fill="rgb(50, 49, 63)" stroke="none" stroke-width="1px">1.6</text></g><line x1="50" y1="0" x2="50" y2="378" fill="rgb(0, 0, 0)" stroke="rgb(204, 204, 204)" stroke-width="1px"></line></g></g><g transform="translate(50, 0)" clip-path="url(#clip_0)"><clipPath id="clip_0"><rect width="1446" height="378"></rect></clipPath><g><g><g><line x1="0" y1="0" x2="0" y2="378" fill="rgb(0, 0, 0)" stroke="rgb(60, 60, 60)" stroke-width="1px" opacity="0.25"></line><line x1="120.5" y1="0" x2="120.5" y2="378" fill="rgb(0, 0, 0)" stroke="rgb(60, 60, 60)" stroke-width="1px" opacity="0.25"></line><line x1="241" y1="0" x2="241" y2="378" fill="rgb(0, 0, 0)" stroke="rgb(60, 60, 60)" stroke-width="1px" opacity="0.25"></line><line x1="361.5" y1="0" x2="361.5" y2="378" fill="rgb(0, 0, 0)" stroke="rgb(60, 60, 60)" stroke-width="1px" opacity="0.25"></line><line x1="482" y1="0" x2="482" y2="378" fill="rgb(0, 0, 0)" stroke="rgb(60, 60, 60)" stroke-width="1px" opacity="0.25"></line><line x1="602.5" y1="0" x2="602.5" y2="378" fill="rgb(0, 0, 0)" stroke="rgb(60, 60, 60)" stroke-width="1px" opacity="0.25"></line><line x1="723" y1="0" x2="723" y2="378" fill="rgb(0, 0, 0)" stroke="rgb(60, 60, 60)" stroke-width="1px" opacity="0.25"></line><line x1="843.5" y1="0" x2="843.5" y2="378" fill="rgb(0, 0, 0)" stroke="rgb(60, 60, 60)" stroke-width="1px" opacity="0.25"></line><line x1="964" y1="0" x2="964" y2="378" fill="rgb(0, 0, 0)" stroke="rgb(60, 60, 60)" stroke-width="1px" opacity="0.25"></line><line x1="1084.5" y1="0" x2="1084.5" y2="378" fill="rgb(0, 0, 0)" stroke="rgb(60, 60, 60)" stroke-width="1px" opacity="0.25"></line><line x1="1205" y1="0" x2="1205" y2="378" fill="rgb(0, 0, 0)" stroke="rgb(60, 60, 60)" stroke-width="1px" opacity="0.25"></line><line x1="1325.5" y1="0" x2="1325.5" y2="378" fill="rgb(0, 0, 0)" stroke="rgb(60, 60, 60)" stroke-width="1px" opacity="0.25"></line><line x1="1446" y1="0" x2="1446" y2="378" fill="rgb(0, 0, 0)" stroke="rgb(60, 60, 60)" stroke-width="1px" opacity="0.25"></line></g><g><line x1="0" y1="378" x2="1446" y2="378" fill="rgb(0, 0, 0)" stroke="rgb(60, 60, 60)" stroke-width="1px" opacity="0.25"></line><line x1="0" y1="336" x2="1446" y2="336" fill="rgb(0, 0, 0)" stroke="rgb(60, 60, 60)" stroke-width="1px" opacity="0.25"></line><line x1="0" y1="294" x2="1446" y2="294" fill="rgb(0, 0, 0)" stroke="rgb(60, 60, 60)" stroke-width="1px" opacity="0.25"></line><line x1="0" y1="252" x2="1446" y2="252" fill="rgb(0, 0, 0)" stroke="rgb(60, 60, 60)" stroke-width="1px" opacity="0.25"></line><line x1="0" y1="210" x2="1446" y2="210" fill="rgb(0, 0, 0)" stroke="rgb(60, 60, 60)" stroke-width="1px" opacity="0.25"></line><line x1="0" y1="168" x2="1446" y2="168" fill="rgb(0, 0, 0)" stroke="rgb(60, 60, 60)" stroke-width="1px" opacity="0.25"></line><line x1="0" y1="126.00000000000001" x2="1446" y2="126.00000000000001" fill="rgb(0, 0, 0)" stroke="rgb(60, 60, 60)" stroke-width="1px" opacity="0.25"></line><line x1="0" y1="84.00000000000004" x2="1446" y2="84.00000000000004" fill="rgb(0, 0, 0)" stroke="rgb(60, 60, 60)" stroke-width="1px" opacity="0.25"></line><line x1="0" y1="42.00000000000002" x2="1446" y2="42.00000000000002" fill="rgb(0, 0, 0)" stroke="rgb(60, 60, 60)" stroke-width="1px" opacity="0.25"></line><line x1="0" y1="0" x2="1446" y2="0" fill="rgb(0, 0, 0)" stroke="rgb(60, 60, 60)" stroke-width="1px" opacity="0.25"></line></g></g></g><g><g><line x1="0" y1="336" x2="1446" y2="336" fill="rgb(0, 0, 0)" stroke="rgb(153, 153, 153)" stroke-width="1.5px"></line></g></g><g><g><line x1="120.5" y1="0" x2="120.5" y2="378" fill="rgb(0, 0, 0)" stroke="rgb(153, 153, 153)" stroke-width="1.5px"></line></g></g><g><g><g><g><g><path stroke="rgb(238, 51, 119)" stroke-width="2px" d="M123.5125,104.21287751197815L124.115,114.43894600868227L126.52499999999999,143.7644419670105L127.12750000000001,148.57326364517215L128.33249999999998,155.7610992193222L128.935,157.53789639472964L129.5375,161.85786759853363L130.7425,170.90657687187198L131.345,174.27366828918457L131.9475,176.13245165348053L132.54999999999998,173.23100423812866L134.96,184.67397308349612L140.3825,199.3322775363922L140.985,197.9819587469101L142.19,199.62857937812808L143.9975,199.1455367803574L144.6,203.40140855312347L145.805,203.51116991043094L147.01,208.0111978054047L147.6125,205.42143559455872L148.8175,209.27373504638675L150.02249999999998,212.18165373802185L150.625,215.09934818744662L152.4325,213.24376916885376L153.035,215.69662070274353L153.6375,215.61832702159882L154.24,217.51516199111938L154.8425,217.04303419589996L156.65,220.61713135242465L157.2525,221.88406205177307L158.4575,223.96584784984591L159.6625,225.4283562898636L160.26500000000001,224.90888929367068L160.8675,226.39680719375613L161.47,227.03874027729037L163.2775,228.466539144516L163.88,230.60385024547577L164.48250000000002,230.42328035831454L165.085,231.26578545570374L166.29000000000002,232.4260965585709L168.0975,234.96024584770203L171.10999999999999,238.77431219816208L171.7125,240.355850815773L172.315,240.6112847328186L172.9175,243.6313367486L173.51999999999998,241.27437776327133L174.1225,240.33343291282654L177.135,242.4486014842987L181.95499999999998,251.1815450191498L183.7625,251.04311978816986L184.365,251.60610204935074L188.58249999999998,258.5069922208786L190.39,259.61436277627945L191.595,259.9513823390007L192.1975,261.91484516859055L192.8,261.1482930779457L195.21,261.73740452528L195.8125,262.80457055568695L196.415,264.1403258442879L198.2225,264.14507603645325L198.82500000000002,265.6665143966675L200.63250000000002,267.947432756424L203.0425,269.466799557209L204.24749999999997,269.36625695228577L205.45250000000001,271.9564760327339L206.05499999999998,274.8733819127083L206.6575,273.7756744623184L207.26000000000002,271.40806353092194L209.67,276.22383838891983L210.875,276.02995669841766L212.6825,274.4279778599739L213.285,277.7983675003052L213.8875,278.9444155097008L215.0925,277.9125160574913L215.695,277.2911921739578L216.2975,279.3286991715431L218.10500000000002,280.38654631376266L219.31,279.7837913632393L219.9125,279.6206325888634L221.1175,280.84264612197876L221.71999999999997,281.6115013360977L223.52749999999997,283.1689760684967L226.54000000000002,284.4300050139427L227.14249999999998,285.7038200497627L227.745,286.0533628463745L228.95,286.0328913331032L229.5525,287.6992637515068L230.7575,287.82811349630356L231.9625,287.67274340987206L232.565,288.19086170196533L233.16750000000002,288.18990102410316L233.76999999999998,288.39560812711716L234.975,290.15043488144875L235.5775,288.74600833654404L239.795,290.4494779407978L242.205,292.09211817383766L244.61499999999998,293.4621105194092L245.2175,294.20699259638786L245.82000000000002,293.6049354672432L248.23,294.3123604953289L250.0375,295.89440605044365L251.845,295.4101993739605L252.44750000000002,296.0543197989464L254.25500000000002,297.2092861533165L254.8575,297.9430124759674L256.0625,297.1829598248005L256.66499999999996,298.22942277789116L257.2675,298.12816670536995L258.47249999999997,299.3925752341747L259.075,296.8162499964237L260.28,296.68349808454514L260.8825,297.9359278678894L261.485,297.6619688272476L263.2925,298.00109124183655L265.09999999999997,300.1832600533962L268.1125,300.8470978438854L269.3175,300.73157554864883L270.5225,300.28184375166893L271.125,301.4711754620075L274.1375,302.14671662449837L275.945,302.9015997648239L276.5475,303.6778556406498L277.15000000000003,303.4540051817894L277.7525,303.55261704325676L278.9575,302.67421013116837L281.3675,304.6197893321514L282.5725,303.9439978301525L283.77750000000003,303.1817860007286L284.9825,305.2246440052986L287.995,306.1086710393429L289.2,307.16999477148056L291.61,306.6628789007664L294.6225,307.55249163508415L295.8275,308.06902652978897L296.43,308.0198567211628L298.2375,306.70594668388367L299.4425,307.0944579541683L300.04499999999996,307.9512042403221L300.6475,307.000414788723L301.85249999999996,307.9668473303318L302.455,307.9277974963188L303.0575,308.23885372281075L305.4675,309.4376607835293L306.07,309.28870564699173L307.275,308.468828111887L309.0825,309.1731614470482L311.4925,309.694621771574L312.09499999999997,310.0776099264622L312.6975,309.5165333747864L313.3,309.42384830117226L314.505,309.19678723812103L316.3125,310.6714434027672L316.915,311.1983564347029L317.5175,311.3853975981474L319.325,311.75479701161385L319.9275,310.73647221922874L321.1325,311.23140750825405L324.7475,312.0612501204014L325.9525,312.71304032206535L327.76,312.3701878488064L328.3625,311.8935695886612L329.5675,312.0487049818039L330.17,312.2490689009428L333.1825,312.9567599147558L333.785,312.6873210668564L334.99,312.48362919688225L336.195,312.1850570887327L336.7975,312.5457884967327L337.4,313.270912528038L339.2075,313.00697489082813L339.81,313.16232620179653L341.6175,313.49867141246796L342.21999999999997,313.77255065739155L343.425,313.0570334047079L344.0275,313.49101884663105L345.23249999999996,313.02621974051L347.6425,312.95804446935654L348.245,314.10612961649895L348.84749999999997,313.5583226233721L350.0525,313.386489585042L350.655,313.0632950216532L352.4625,314.1512251496315L353.065,314.3530457317829L353.6675,314.2044864445925L354.27,313.8912913799286L355.47499999999997,313.7398344129324L356.0775,313.56645552814007L356.68,314.31078216433525L357.28249999999997,313.90826439857483L362.70500000000004,313.9183030128479L363.30749999999995,313.85229943692684L364.5125,314.3527046442032L366.32000000000005,314.73011492192745L370.53749999999997,313.3689814656973L371.14,313.2482865303755L373.55,313.54829809069633L374.1525,313.2574333101511L374.755,313.3215937614441L375.96000000000004,314.11768904328346L377.16499999999996,314.10044065117836L379.575,313.59489722549915L384.9975,313.77005039155483L385.6,315.1383498162031L386.2025,314.21362540125847L386.805,314.0217605084181L388.01,314.2080240547657L388.6125,314.28425869345665L390.42,314.49728509783745L392.22749999999996,314.8660430163145L396.445,314.36389169096947L397.0475,314.5378088057041L397.65000000000003,314.54707449674606L398.25249999999994,314.58091726899147L399.4575,314.37356731295586L400.06,313.9842956364155L400.6625,314.6098001897335L401.86749999999995,314.8337914645672L402.46999999999997,315.00611110031605L403.0725,315.1938892006874L404.27750000000003,314.8920845836401L405.48249999999996,314.62780898809433L406.085,314.76398898661137L408.49499999999995,314.52619774639606L412.7125,314.8403456658125L414.52000000000004,315.4428940862417L415.12250000000006,314.94179105758667L416.3275,315.014810398221L417.5325,315.1687551140785L419.34,314.93808759748936L425.9675,315.10597309470177L427.775,315.6189656853676L428.3775,315.97307404875755L428.98,315.25704672932625L430.185,315.5885995030403L431.39,315.1709330677986L431.9925,315.71185728907585L433.1975,315.31622698903084L436.21000000000004,315.5184747129679L436.8125,315.40133929252625L440.42749999999995,315.57697592675686L441.6325,315.9659112095833L442.235,315.32307690382004L442.83750000000003,315.4740504026413L443.43999999999994,315.21811893582344L444.04249999999996,315.72751915454865L444.645,315.7188511490822L445.2475,315.9636425077915L445.85,315.8817267268896L446.45250000000004,316.3608953207731L447.05499999999995,316.73797702789307L448.26,315.35563042759895L450.06750000000005,315.6294502168894L450.66999999999996,316.0287964940071L451.2725,316.6921336054802L452.4775,315.5752626657486L454.8875,316.8296889066696L456.09250000000003,315.63602006435394L457.29749999999996,315.8626805841923L459.70750000000004,315.8328260332346L460.31000000000006,315.80273835361004L460.91249999999997,315.7699423134327L462.1175,316.16084119677544L463.32250000000005,316.02992145717144L464.5275,316.1236516982317L465.7325,316.08161187171936L466.33500000000004,316.0705797225237L468.1425,316.12596264481544L469.3475,315.95690524578094L469.95,315.64717112481594L470.5525,316.01612305641174L471.155,316.04819467663765L471.7575,316.2973920106888L472.36,316.5057401955128L473.565,316.4084613919258L474.1675,316.4223505407572L477.18,316.4228027164936L477.7825,316.495380833745L478.9875,316.2492892742157L479.59,316.2868605405092L480.1925,316.3031028807163L482,317.70631997287273L483.205,316.222452878952L484.41,316.70654690265656L485.61499999999995,316.7862424850464L486.82,316.52107505500317L488.02500000000003,316.345491617918L488.62749999999994,316.35080820322037L489.22999999999996,316.51075011491776L491.0375,316.513406842947L493.4475,316.5160307139158L494.05,317.0645183175802L495.25500000000005,316.53910732269287L495.85749999999996,316.4235443472862L497.0625,316.8099292963743L499.47249999999997,316.2705493569374L502.48499999999996,317.1712286621332L506.7025,316.5108518153429L507.305,316.7699391245842L508.51000000000005,316.7324257493019L509.1125,316.93222483992577L509.715,317.09744265675545L510.3175,316.5531185120344L510.92,316.6345868110657L511.52250000000004,316.7703944295645L512.7275,316.60860000550747L513.3299999999999,316.8305635303259L515.74,316.75055971741676L516.3425,316.6905846297741L517.5475,316.7914526760578L518.7525,316.68951442837715L520.56,317.0610980540514L521.765,317.6181769967079L522.3675000000001,317.40007965266705L522.97,316.6960467249155L524.7775,316.8707680553198L525.38,317.25750347971916L525.9825000000001,317.1226784437895L526.585,317.0199234634638L527.1875,317.04988127946854L528.3925,317.1150446534157L528.995,317.0853011906147L529.5975000000001,317.0639503598213L530.8025,316.73608696460724L531.405,316.9550182521343L532.0075,317.9996130466461L532.61,317.64446733891964L533.2125,318.184801697731L533.8149999999999,318.3784612119198L535.02,318.12304450571537L535.6225000000001,317.8743807077408L537.43,318.06937327980995L539.84,318.3639055341482L541.6475,318.2143120318651L542.25,318.1365550160408L542.8525,318.01925061643124L544.0575,318.1197494119406L544.66,318.5048889219761L545.2625,318.5031068176031L545.865,318.36930817365646L547.07,318.18872733414173L547.6725,318.2953500598669L548.275,318.4140391498804L550.6850000000001,318.25148119032383L553.095,318.68423058092594L553.6975,318.205888107419L554.9024999999999,318.32538141310215L555.505,318.25296445190907L556.1075,318.37065218389034L556.71,318.2371868044138L557.3125,318.1344490349293L557.915,318.1483741700649L559.7225,318.3776726424694L560.325,318.1261690557003L563.94,318.4229434132576L565.145,318.70523875951767L565.7475,318.4382172524929L566.35,318.25121676921844L566.9525,318.56517849862576L568.1575,318.34828747808933L569.965,318.1934837847948L570.5675,318.58504293859005L572.375,318.4225976318121L572.9775,318.4047077447176L573.58,318.5131657719612L574.7850000000001,318.4352288246155L575.99,318.32507318258286L577.7975,318.7422671020031L578.4,318.7178245782852L579.605,318.4629820883274L581.4125,318.4265357851982L582.015,318.6909600198269L582.6175,318.70416386425495L583.8225,318.4549962580204L584.425,318.89090149104595L585.0275,317.3938070833683L586.2325,317.74837075173855L586.835,317.71277560293674L587.4375,317.77216708660126L590.45,317.7569276690483L592.86,317.52758069336414L593.4625,317.308943554759L594.6675,317.98296546936035L595.8725000000001,317.9233314692974L597.0775,317.75280801951885L597.68,317.4407519996166L598.2825,317.8691345304251L598.885,318.099891230464L599.4875000000001,317.83464400470257L600.0899999999999,317.3657174259424L601.295,317.6854213178158L602.5,317.60185642540455L603.7049999999999,317.5794776380062L605.5125,317.838890388608L606.7175,317.58228300511837L607.3199999999999,317.7874878644943L607.9225,317.9146243482828L610.3325,317.87289744615555L611.5375,317.75272196531296L612.14,317.8786709010601L613.345,317.86620242893696L615.1525,317.74862265586853L616.3575000000001,317.54989533126354L616.96,317.79310016334057L617.5625,317.77408061921597L619.37,317.88772067427635L621.1775,318.012422606349L621.78,318.13026992976665L622.985,317.59505032002926L624.1899999999999,318.06119656562805L625.395,318.27331705391407L628.4075,317.6202000528574L629.6125,318.02915623784065L630.215,318.3112481832504L630.8175,317.73762649297714L631.42,317.9042305648327L633.2275,318.0568860322237L636.8425,318.40896977484226L638.0475,317.99806720018387L638.65,318.6035289466381L639.2524999999999,318.07209415733814L639.855,318.1753153949976L640.4575,317.7628388106823L642.8675,318.40050204098225L644.0725,317.8349178135395L644.6750000000001,317.7845620214939L646.4825,318.231020629406L647.085,318.4415045231581L647.6875,318.58645579218864L648.29,318.4043494462967L648.8924999999999,317.9431755691767L650.0975,318.0561068505049L650.7,318.2636914998293L651.3025,318.43083223700523L651.905,318.1173821389675L653.11,318.0267091691494L654.9175,318.6295877248049L656.1225,318.3985008895397L656.725,317.8599236011505L657.9300000000001,318.26888447999954L658.5325,318.3572277277708L660.34,318.2385464608669L660.9425,318.0918756723404L662.1475,318.3328806459904L662.75,318.34719067811966L666.9675,318.64978386461735L667.57,318.04446762800217L668.1725,318.10649862885475L668.775,317.9806310534477L669.3774999999999,318.33768559992313L669.98,318.10222095251083L670.5825,318.52211697399616L671.7875,318.1209119260311L672.39,318.0146991312504L672.9925,318.34319776296616L674.8,318.6282421499491L675.4025,318.5510437041521L676.005,318.406040802598L676.6075,318.22381085157394L677.8125,318.4070421606302L681.4275,318.41823703050613L682.03,318.14788131415844L682.6325,318.1513970196247L683.8375,318.4465097486973L686.2475000000001,318.2819600254297L688.055,318.4204885214567L689.8625000000001,318.1057319641113L692.2725,318.491392493248L694.0799999999999,318.15939693152905L694.6825,318.27326698601246L695.285,318.45579421520233L696.49,318.58054308593273L697.0925,318.39768728613853L697.6949999999999,318.5234390795231L699.5025,318.498624175787L700.105,318.26647183299065L701.31,318.61350497603416L702.515,318.3265689611435L703.1175000000001,318.4735401570797L704.3225,318.4634389579296L705.5275,318.83268347382545L706.13,318.74675600230694L707.335,318.466344460845L708.54,318.25380934774876L709.1425,318.70080775022507L709.745,318.6272626966238L710.3475000000001,318.24933609366417L712.155,318.43760392069817L712.7575,318.37628012895584L713.36,318.4306757748127L715.1675,318.4482652544975L715.77,318.43089482188225L720.59,318.51096591353416L722.3975,318.73769214749336L723,318.58673273026943L724.205,318.7902211993933L725.4100000000001,318.2165682166815L726.0125,318.5773575156927L727.8199999999999,318.64360673725605L728.4225,318.4905163049698L729.6275,318.66444593667984L730.23,318.61673592031L730.8325,318.628306299448L731.4350000000001,318.53639571368694L733.2425,318.6554149389267L738.0625,318.5690149515867L738.6650000000001,318.6701286435127L739.2674999999999,319.1356881558895L740.4725,318.7334723621607L741.6775,318.44666151702404L742.28,318.7536841481924L742.8825,318.6091146469116L744.0875,318.74225302040577L745.2924999999999,318.688757032156L745.8950000000001,318.59840950369835L746.4975,318.51176230609417L748.305,318.8177585452795L748.9075,318.8293226659298L749.51,318.48434387147427L752.5224999999999,318.9131253808737L753.7275,318.6935025304556L754.3299999999999,318.48608216643333L755.535,318.7107524871826L756.1375,318.8906136006117L757.3425000000001,318.91742965579033L760.9575,319.10046069324017L761.56,319.3423934876919L762.765,318.40080088377L763.97,318.9272101074457L766.38,320.0138400346041L767.585,319.44618268311024L768.79,319.4472106397152L769.995,319.5293736308813L771.2,319.428308442235L772.405,319.67854468524456L773.0074999999999,319.63253228366375L773.61,319.5073656588793L774.2125,319.72316613793373L774.815,319.6335649341345L777.225,319.58916878700256L778.43,319.5993294417858L779.0324999999999,319.8115578889847L782.6475,319.877073302865L783.8525000000001,319.6491970717907L785.0575000000001,319.93052861094475L785.66,319.66321451961994L786.2624999999999,319.44343051314354L789.8775,319.56518156826496L791.685,319.86647924780846L792.89,319.6747035384178L794.6975,319.73944602906704L796.5049999999999,319.6775355041027L797.1075000000001,319.51031966507435L798.3125,319.62481243908405L798.915,319.7914399802685L799.5174999999999,319.6358492821455L800.12,319.8195030391216L801.325,319.69205519557L801.9275,319.851188197732L803.1325,319.84907126426697L803.7349999999999,319.57995942234993L804.3375,319.81416611373425L806.145,319.80696415901184L806.7475,319.79638105630875L807.9525,319.63641411066055L812.7725,319.9082045853138L813.375,319.7118038535118L813.9775,319.5861334204674L814.58,319.70233319699764L816.3875,319.7136407196522L816.9899999999999,319.67383517324924L817.5925,319.66985008120537L819.4,319.821067661047L820.0025,319.891117349267L820.605,319.6648104339838L822.4125,319.6617688089609L829.6424999999999,320.0964113920927L831.4499999999999,319.8051179051399L832.655,319.7507598102093L833.2575,319.78033585846424L834.4625,319.8831330835819L835.065,319.80239076912403L836.8725,319.7684603780508L838.68,319.93518179655075L839.2825,320.01655308902264L839.885,319.8424028456211L840.4875000000001,319.78504380583763L841.09,319.9919040352106L841.6924999999999,319.83422143757343L842.2950000000001,319.8165944069624L842.8974999999999,320.0507932752371L844.1025,320.0992871671915L845.3075,319.89820978045464L845.91,319.70429523289204L847.115,320.1450007259846L848.32,319.9362160116434L849.525,319.8452598452568L850.1274999999999,319.66656593978405L850.73,319.878750577569L851.3325,319.8620498031378L851.935,319.9330820739269L852.5375,320.06613752245903L854.9475000000001,319.7296483665705L857.96,319.757975846529L858.5625,319.7806863337755L859.7675,319.98233480751514L860.37,319.9003720879555L862.78,319.86887311935425L863.3824999999999,319.8741271197796L863.985,319.7676076591015L865.19,319.80276158452034L866.9975000000001,319.9100258052349L868.805,319.98293875157833L870.01,320.09799948334694L871.215,319.77488002181053L871.8175,320.0625827014446L873.0225,320.0706952661276L873.625,319.69072683155537L875.4325000000001,319.91553953289986L876.035,320.0193349868059L876.6374999999999,320.0660076588392L877.8425,319.8549917936325L878.445,319.9311059564352L879.0475,319.8600267469883L880.2525,319.9858818054199L880.8549999999999,320.00817297399044L881.4575000000001,319.7549936771393L882.06,319.99188213050365L882.6625,320.1881373524666L883.265,320.0892469882965L886.2775,320.1452307254076L886.8799999999999,320.1059696674347L888.0849999999999,319.9714512974024L890.495,319.860494568944L891.0975,319.9986366033554L892.3025,320.0059543401003L894.7125,319.83539490401745L895.9175,319.9326924830675L897.1225,319.9256063103676L898.3275,320.0942584723234L898.9300000000001,319.90492983162403L899.5325,320.16818998754025L900.1350000000001,319.92264291644096L901.3399999999999,320.2108728736639L903.1475,319.8962696492672L903.75,320.0864682197571L904.955,319.7592400610447L905.5575,320.06795248389244L906.1600000000001,319.97479332983494L907.3649999999999,320.05517265200615L909.775,320.1556245088577L910.98,320.17183086276054L911.5825,320.13310803472996L912.7875,320.1484022140503L913.3900000000001,319.9368559420109L915.1975,319.9197687059641L915.8,320.1440713405609L918.8125,320.03665222227573L919.4150000000001,319.92073564231396L920.0174999999999,320.02112022042274L920.6200000000001,320.1978833824396L921.8249999999999,320.1815221309662L923.03,319.9519263803959L923.6325,319.99573892354965L924.235,320.23656709492207L924.8375,320.13001008331776L925.44,320.07164968550205L926.0424999999999,319.75900380313396L927.85,320.1662545502186L929.6575,320.0630677342415L930.8625000000001,320.0832482278347L932.0674999999999,320.17890921235085L932.6700000000001,320.12247486412525L933.2724999999999,319.8553015887737L933.875,320.1021128743887L934.4775,320.0194132179022L936.8875,320.13117729127407L939.2974999999999,320.2784942686558L940.5024999999999,320.1258168965578L941.105,320.0688677877188L942.9125,320.1656146198511L943.515,320.17700350284576L944.1175000000001,319.98414976894855L945.925,320.1251566261053L947.7325,320.1390050947666L948.335,320.23372104763985L948.9375,320.18811701238155L950.1425,319.9556986838579L950.745,320.1482113301754L951.3475000000001,319.97823236882687L953.155,320.0508605539799L954.36,320.0264915674925L954.9625,320.21180225908756L955.565,320.2611739039421L956.1675,320.2339088022709L956.77,320.00901943445206L957.3725000000001,320.3234521150589L958.5775000000001,320.19678658246994L959.18,320.19305965304375L960.9875,320.16425183415413L964,320.03885677456856L971.2299999999999,320.27675753831863L971.8325000000001,320.0725039690733L972.435,320.12610948085785L973.0375,320.3532018363476L975.4475,320.2631907016039L977.2549999999999,320.1256823390722L977.8575000000001,320.2718618363142L979.0625,320.08041782677174L979.665,320.2845634371042L980.2674999999999,320.08990882337093L980.87,320.0812736749649L982.075,320.26444083452225L983.2800000000001,320.0909054875374L983.8825,320.29436422884464L984.4849999999999,320.35811787843704L985.6899999999999,320.3671864271164L986.2925,320.1341109573841L986.895,320.1925433278084L988.1,320.1119637340307L989.3050000000001,320.3816200643778L992.92,320.1308628022671L994.125,320.3483577668667L997.1375,320.29977782070637L997.7399999999999,320.2099028080702L1000.15,320.145096167922L1003.1625,320.3579473346472L1003.7650000000001,320.2923818528652L1006.175,320.00614835321903L1008.585,320.34992864727974L1010.3924999999999,320.37344178557396L1012.1999999999999,320.07149478793144L1012.8025,320.18783381581306L1013.405,320.3602207303047L1015.2125,320.10443633794785L1015.815,320.2776681482792L1017.6225,320.258493706584L1018.8275,320.2589255422354L1019.43,320.4300325959921L1020.0325,320.32932414114475L1024.25,320.11025516688824L1024.8525,320.34905402362347L1025.455,320.3752411007881L1026.0575000000001,320.39873076975346L1027.2625,320.2275830358267L1027.865,319.91152784228325L1028.4675,320.12328846752644L1029.07,320.452189207077L1029.6725,320.27387706935406L1030.275,320.3813603371382L1030.8775,320.07983891665936L1031.48,320.16810393333435L1032.0825,320.2381661385298L1033.8899999999999,320.3181746453047L1035.095,320.4269409030676L1038.1075,320.1447488218546L1038.71,320.261197373271L1039.3125,320.39618043601513L1040.5175,320.34052370488644L1044.7350000000001,320.3081344664097L1045.94,320.24484863877296L1048.9525,320.15260322391987L1049.555,320.3032184243202L1051.9650000000001,320.4100195169449L1053.17,320.3170903623104L1053.7725,320.4599215686321L1054.9775,320.4026157259941L1055.58,320.3364901095629L1056.785,320.555274322629L1057.3875,320.2809256911278L1061.0025,320.3763394653797L1061.605,320.294860213995L1062.2075,320.36913281679153L1065.22,320.26525600254536L1065.8225,320.3593492358923L1071.2450000000001,320.1795366257429L1071.8474999999999,320.32547830045223L1073.655,320.18915279209614L1074.2575,320.5076644420624L1074.86,320.4221719354391L1076.065,320.2793047428131L1077.27,320.3698666244745L1078.475,320.1969805955887L1080.2825,320.56094920635223L1080.885,320.4469790160656L1082.09,320.49801854789257L1082.6925,320.4272506982088L1083.8975,320.30409148335457L1085.1025,320.37496572732925L1085.705,320.17236283421516L1086.91,320.42770287394524L1087.5125,320.0173479169607L1089.9225000000001,320.49719555675983L1090.525,320.23902198672295L1091.73,320.4430737197399L1092.3325,320.4276089966297L1092.935,320.2915244400501L1093.5375,320.41120862960815L1094.7425,320.5128386467695L1095.345,320.4900890439749L1095.9475,320.3005210161209L1096.55,320.4318772852421L1098.96,320.50029350817204L1100.165,320.48721796274185L1100.7675,320.38869059085846L1101.3700000000001,320.5928581058979L1102.575,320.2504046112299L1103.78,320.41594161093235L1104.985,320.3837729841471L1106.19,320.30451706051826L1106.7925,320.4273070245981L1107.395,320.33117039501667L1108.6000000000001,320.36659187078476L1109.2025,320.49930623173714L1109.8049999999998,320.5621383190155L1110.4075,320.53662246465683L1111.01,320.24498319625854L1111.6125,320.4828041642904L1112.8174999999999,320.3768620491028L1113.42,320.4562853872776L1115.2275,320.43963937461376L1115.83,320.4580987840891L1117.0349999999999,320.37490314245224L1117.6375,320.4405233860016L1119.445,320.49796847999096L1120.0475,320.55501928925514L1120.65,320.4123774021864L1121.2525,320.49735827744007L1121.855,320.48033206164837L1123.06,320.40567299723625L1125.47,320.3834616243839L1126.675,320.3407317996025L1127.2775,320.4089712202549L1127.88,320.26023356616497L1129.6875,320.37145315110683L1130.29,320.48494769632816L1131.495,320.2342436313629L1133.905,320.2384258657694L1134.5075,320.4924109429121L1135.1100000000001,320.48793925344944L1135.7125,320.4740156829357L1136.9175,320.4468616694212L1139.3275,320.5345274358988L1139.93,320.4114448875189L1141.135,320.49044577777386L1141.7375,320.39592853188515L1142.3400000000001,320.62244510650635L1142.9424999999999,320.4905412197113L1144.1475,320.5505914092064L1145.955,320.4713495671749L1146.5575000000001,320.31929647922516L1147.16,320.53232288360596L1147.7625,320.5216881483793L1148.365,320.34374526143074L1150.1725,320.5156815648079L1150.7749999999999,320.3907731026411L1153.185,320.6169329434633L1153.7875000000001,320.5819730311632L1154.9924999999998,320.582354798913L1155.595,320.49311658740044L1156.1975,320.4463688135147L1158.6075,320.6047883480787L1160.415,320.500105753541L1161.6200000000001,320.6073058247566L1163.4275,320.54064041376114L1164.03,320.6114958822727L1164.6325,320.50285166502L1165.235,320.504569619894L1165.8375,320.5195070654154L1167.0425,320.1998579353094L1167.645,320.26872164011L1168.2475,320.63741697371006L1170.055,320.4892128556967L1170.6575,320.53769110143185L1171.8625,320.50540356338024L1172.465,320.6558028459549L1173.0675,320.33720514178276L1174.875,320.51835237443447L1176.08,320.5017047971487L1176.6825,320.58900913596153L1177.285,320.4115325063467L1177.8875,320.40451987087727L1182.105,320.444140791893L1182.7075,320.40907448530197L1184.515,320.4730080664158L1187.5275000000001,320.34866912662983L1189.9375,320.52137365937233L1191.1425,320.5272269099951L1192.3475,320.66505132615566L1193.5525,320.5892782509327L1194.155,320.7054295241833L1194.7575000000002,320.5559784024954L1195.36,320.5040486007929L1197.77,320.45359267294407L1198.3725,320.70314361155033L1198.9750000000001,320.45444852113724L1200.1799999999998,320.51512299478054L1200.7825,320.56900231540203L1201.385,320.3330588936806L1203.795,320.52387392520905L1205,320.6841350197792L1206.205,320.6114145219326L1207.4099999999999,320.64855395257473L1208.0125,320.3140847235918L1209.2175,320.49002645909786L1211.6275,320.6880105882883L1212.8325,320.58119697868824L1213.435,320.54570040106773L1215.2425,320.5637874305248L1217.05,320.56282518804073L1219.46,320.4436714053154L1220.665,320.5790831744671L1221.2675,320.49338883161545L1223.075,320.49116863310337L1225.4850000000001,320.47807744145393L1226.0875,320.58812825381756L1226.69,320.6312914788723L1227.2925,320.619664773345L1229.1,320.753749743104L1229.7025,320.6347289532423L1230.305,320.57643270492554L1231.51,320.4525772333145L1232.1125,320.65082108974457L1232.7150000000001,320.7069127857685L1233.92,320.6426083892584L1234.5225,320.6590353548527L1236.33,320.5968119055033L1236.9325000000001,320.64846789836884L1238.1375,320.65744882822037L1239.3425,320.57833528518677L1239.9450000000002,320.6866478025913L1240.5475,320.5974174141884L1244.765,320.6429416537285L1245.3674999999998,320.6024727076292L1245.97,320.6968960762024L1246.5725,320.6403381228447L1250.1875,320.7029558569193L1250.79,320.46366257965565L1251.3925,320.5127682387829L1251.9950000000001,320.58728179335594L1252.5974999999999,320.57066394388676L1253.8025,320.7209646552801L1255.61,320.56169709563255L1257.4175,320.7085102647543L1259.8274999999999,320.7850124537945L1260.43,320.4943041354418L1261.0325,320.6944975107908L1261.635,320.73412938416004L1262.2375,320.70591612160206L1263.4425,320.60632637143135L1264.045,320.7155338525772L1266.455,320.8584808409214L1268.2625,320.76326890289783L1268.865,320.71875853836536L1270.6725000000001,320.60687555372715L1271.275,320.619078040123L1271.8775,320.6199245005846L1272.48,320.72120717167854L1273.0825,320.8226838558912L1274.2875,320.76696141064167L1274.89,320.6102222800255L1275.4925,320.6319720894098L1276.095,320.4639567285776L1276.6975,320.7685182094574L1279.1075,320.4943369925022L1279.71,320.7607436031103L1280.3125,320.719687923789L1282.1200000000001,320.6108105778694L1283.325,320.79493997991085L1283.9275,320.60347563028336L1284.53,320.6716023981571L1285.735,320.6380303055048L1286.3374999999999,320.70015674829483L1286.94,320.6749757230282L1288.145,320.6581466495991L1288.7475,320.70073722302914L1290.5549999999998,320.68608140945435L1291.76,320.8492104560137L1292.965,320.6589211374521L1293.5674999999999,320.5794289559126L1294.7725,320.70571272075176L1296.58,320.67405416071415L1297.7849999999999,320.68487195670605L1298.3875,320.82515439391136L1298.99,320.6029405295849L1300.195,320.69623893499374L1301.4,320.60717752575874L1302.0025,320.5945932716131L1302.605,320.6680819988251L1305.0149999999999,320.58885580301285L1305.6175,320.75941210985184L1306.8225,320.70854938030243L1308.0275,320.6544525772333L1311.04,320.6195787191391L1313.45,320.84558053314686L1314.0525,320.7503028810024L1314.655,320.6929892152548L1315.2575,320.74310874938965L1322.4875,320.6318093687296L1323.6924999999999,320.5981606096029L1324.8975,320.64251451194286" style="fill: none;" fill="none"></path></g></g></g></g></g><g><g><span fill="rgb(0, 0, 0)" stroke="none" stroke-width="1px">Alt + Scroll to Zoom</span></g></g></g><g transform="translate(50, 378)" clip-path="url(#clip_1)"><clipPath id="clip_1"><rect width="1446" height="22"></rect></clipPath><g><g><line x1="0" y1="0" x2="0" y2="5" style="visibility: inherit;" fill="rgb(0, 0, 0)" stroke="rgb(204, 204, 204)" stroke-width="1px"></line><line x1="120.5" y1="0" x2="120.5" y2="5" style="visibility: inherit;" fill="rgb(0, 0, 0)" stroke="rgb(204, 204, 204)" stroke-width="1px"></line><line x1="241" y1="0" x2="241" y2="5" style="visibility: inherit;" fill="rgb(0, 0, 0)" stroke="rgb(204, 204, 204)" stroke-width="1px"></line><line x1="361.5" y1="0" x2="361.5" y2="5" style="visibility: inherit;" fill="rgb(0, 0, 0)" stroke="rgb(204, 204, 204)" stroke-width="1px"></line><line x1="482" y1="0" x2="482" y2="5" style="visibility: inherit;" fill="rgb(0, 0, 0)" stroke="rgb(204, 204, 204)" stroke-width="1px"></line><line x1="602.5" y1="0" x2="602.5" y2="5" style="visibility: inherit;" fill="rgb(0, 0, 0)" stroke="rgb(204, 204, 204)" stroke-width="1px"></line><line x1="723" y1="0" x2="723" y2="5" style="visibility: inherit;" fill="rgb(0, 0, 0)" stroke="rgb(204, 204, 204)" stroke-width="1px"></line><line x1="843.5" y1="0" x2="843.5" y2="5" style="visibility: inherit;" fill="rgb(0, 0, 0)" stroke="rgb(204, 204, 204)" stroke-width="1px"></line><line x1="964" y1="0" x2="964" y2="5" style="visibility: inherit;" fill="rgb(0, 0, 0)" stroke="rgb(204, 204, 204)" stroke-width="1px"></line><line x1="1084.5" y1="0" x2="1084.5" y2="5" style="visibility: inherit;" fill="rgb(0, 0, 0)" stroke="rgb(204, 204, 204)" stroke-width="1px"></line><line x1="1205" y1="0" x2="1205" y2="5" style="visibility: inherit;" fill="rgb(0, 0, 0)" stroke="rgb(204, 204, 204)" stroke-width="1px"></line><line x1="1325.5" y1="0" x2="1325.5" y2="5" style="visibility: inherit;" fill="rgb(0, 0, 0)" stroke="rgb(204, 204, 204)" stroke-width="1px"></line><line x1="1446" y1="0" x2="1446" y2="5" style="visibility: inherit;" fill="rgb(0, 0, 0)" stroke="rgb(204, 204, 204)" stroke-width="1px"></line></g><g transform="translate(0, 8)"><text x="0" y="0" dx="0em" dy="0.95em" style="text-anchor: middle; visibility: hidden; font-family: Roboto, sans-serif; font-size: 12px; font-weight: 200;" fill="rgb(50, 49, 63)" stroke="none" stroke-width="1px">-200</text><text x="120.5" y="0" dx="0em" dy="0.95em" style="text-anchor: middle; visibility: inherit; font-family: Roboto, sans-serif; font-size: 12px; font-weight: 200;" fill="rgb(50, 49, 63)" stroke="none" stroke-width="1px">0</text><text x="241" y="0" dx="0em" dy="0.95em" style="text-anchor: middle; visibility: inherit; font-family: Roboto, sans-serif; font-size: 12px; font-weight: 200;" fill="rgb(50, 49, 63)" stroke="none" stroke-width="1px">200</text><text x="361.5" y="0" dx="0em" dy="0.95em" style="text-anchor: middle; visibility: inherit; font-family: Roboto, sans-serif; font-size: 12px; font-weight: 200;" fill="rgb(50, 49, 63)" stroke="none" stroke-width="1px">400</text><text x="482" y="0" dx="0em" dy="0.95em" style="text-anchor: middle; visibility: inherit; font-family: Roboto, sans-serif; font-size: 12px; font-weight: 200;" fill="rgb(50, 49, 63)" stroke="none" stroke-width="1px">600</text><text x="602.5" y="0" dx="0em" dy="0.95em" style="text-anchor: middle; visibility: inherit; font-family: Roboto, sans-serif; font-size: 12px; font-weight: 200;" fill="rgb(50, 49, 63)" stroke="none" stroke-width="1px">800</text><text x="723" y="0" dx="0em" dy="0.95em" style="text-anchor: middle; visibility: inherit; font-family: Roboto, sans-serif; font-size: 12px; font-weight: 200;" fill="rgb(50, 49, 63)" stroke="none" stroke-width="1px">1k</text><text x="843.5" y="0" dx="0em" dy="0.95em" style="text-anchor: middle; visibility: inherit; font-family: Roboto, sans-serif; font-size: 12px; font-weight: 200;" fill="rgb(50, 49, 63)" stroke="none" stroke-width="1px">1.2k</text><text x="964" y="0" dx="0em" dy="0.95em" style="text-anchor: middle; visibility: inherit; font-family: Roboto, sans-serif; font-size: 12px; font-weight: 200;" fill="rgb(50, 49, 63)" stroke="none" stroke-width="1px">1.4k</text><text x="1084.5" y="0" dx="0em" dy="0.95em" style="text-anchor: middle; visibility: inherit; font-family: Roboto, sans-serif; font-size: 12px; font-weight: 200;" fill="rgb(50, 49, 63)" stroke="none" stroke-width="1px">1.6k</text><text x="1205" y="0" dx="0em" dy="0.95em" style="text-anchor: middle; visibility: inherit; font-family: Roboto, sans-serif; font-size: 12px; font-weight: 200;" fill="rgb(50, 49, 63)" stroke="none" stroke-width="1px">1.8k</text><text x="1325.5" y="0" dx="0em" dy="0.95em" style="text-anchor: middle; visibility: inherit; font-family: Roboto, sans-serif; font-size: 12px; font-weight: 200;" fill="rgb(50, 49, 63)" stroke="none" stroke-width="1px">2k</text><text x="1446" y="0" dx="0em" dy="0.95em" style="text-anchor: middle; visibility: hidden; font-family: Roboto, sans-serif; font-size: 12px; font-weight: 200;" fill="rgb(50, 49, 63)" stroke="none" stroke-width="1px">2.2k</text></g><line x1="0" y1="0" x2="1446" y2="0" fill="rgb(0, 0, 0)" stroke="rgb(204, 204, 204)" stroke-width="1px"></line></g></g></g></g></svg>