<?xml version="1.0" encoding="utf-8" standalone="no"?>
<!DOCTYPE svg PUBLIC "-//W3C//DTD SVG 1.1//EN"
  "http://www.w3.org/Graphics/SVG/1.1/DTD/svg11.dtd">
<!-- Created with matplotlib (https://matplotlib.org/) -->
<svg height="288pt" version="1.1" viewBox="0 0 720 288" width="720pt" xmlns="http://www.w3.org/2000/svg" xmlns:xlink="http://www.w3.org/1999/xlink">
 <metadata>
  <rdf:RDF xmlns:cc="http://creativecommons.org/ns#" xmlns:dc="http://purl.org/dc/elements/1.1/" xmlns:rdf="http://www.w3.org/1999/02/22-rdf-syntax-ns#">
   <cc:Work>
    <dc:type rdf:resource="http://purl.org/dc/dcmitype/StillImage"/>
    <dc:date>2020-12-22T12:42:43.316115</dc:date>
    <dc:format>image/svg+xml</dc:format>
    <dc:creator>
     <cc:Agent>
      <dc:title>Matplotlib v3.3.2, https://matplotlib.org/</dc:title>
     </cc:Agent>
    </dc:creator>
   </cc:Work>
  </rdf:RDF>
 </metadata>
 <defs>
  <style type="text/css">*{stroke-linecap:butt;stroke-linejoin:round;}</style>
 </defs>
 <g id="figure_1">
  <g id="patch_1">
   <path d="M 0 288 
L 720 288 
L 720 0 
L 0 0 
z
" style="fill:#ffffff;"/>
  </g>
  <g id="axes_1">
   <g id="line2d_1">
    <path clip-path="url(#pc57fc9b440)" d="M 149.73914 227.06594 
L 143.835454 226.062415 
L 134.34586 224.693286 
L 122.742116 223.264158 
L 108.400155 221.737631 
L 92.876469 220.284045 
L 86.131244 219.829948 
L 80.097478 219.634143 
L 75.302694 219.670543 
L 70.530952 219.906476 
L 65.71082 220.371048 
L 61.011088 221.069419 
L 56.528552 222.003085 
L 53.061325 222.959923 
L 49.744491 224.172149 
L 47.972382 225.034722 
L 46.580761 225.954682 
L 45.787696 226.785949 
L 45.553808 227.288063 
L 45.554107 227.827529 
L 45.775415 228.242234 
L 46.199827 228.625118 
L 47.092555 229.088277 
L 48.734314 229.587288 
L 51.106176 230.023428 
L 54.638707 230.416718 
L 59.585538 230.723292 
L 66.566405 230.895858 
L 74.248143 230.860348 
L 83.625145 230.577066 
L 94.432067 230.003107 
L 123.210528 228.315029 
L 139.332651 227.660964 
L 149.734462 227.354584 
L 149.734462 227.354584 
" style="fill:none;stroke:#000000;stroke-linecap:square;stroke-opacity:0.7;stroke-width:1.2;"/>
   </g>
   <g id="line2d_2">
    <path clip-path="url(#pc57fc9b440)" d="M 149.980783 188.380152 
L 139.82937 187.017768 
L 126.290341 185.424387 
L 114.262989 184.212479 
L 103.682877 183.354212 
L 94.243551 182.817894 
L 86.010517 182.568234 
L 78.230764 182.56798 
L 71.985948 182.794889 
L 66.142185 183.24969 
L 61.868188 183.76471 
L 57.351081 184.511574 
L 53.974385 185.23575 
L 49.933855 186.35537 
L 47.717777 187.158245 
L 46.179364 187.96091 
L 46.041165 188.251259 
L 46.213141 188.346733 
L 46.843646 188.412593 
L 48.687547 188.328389 
L 54.363292 187.749506 
L 67.527724 186.381279 
L 74.914327 185.839034 
L 80.986782 185.626613 
L 85.498206 185.66176 
L 90.85968 185.95638 
L 96.737297 186.556114 
L 111.958 188.310884 
L 118.862571 188.793445 
L 125.815316 189.043141 
L 134.095036 189.093506 
L 143.809808 188.905743 
L 149.980276 188.692785 
L 149.980276 188.692785 
" style="fill:none;stroke:#000000;stroke-linecap:square;stroke-opacity:0.7;stroke-width:1.2;"/>
   </g>
   <g id="line2d_3">
    <path clip-path="url(#pc57fc9b440)" d="M 150.040141 149.339431 
L 105.109374 144.210097 
L 93.130352 142.855662 
L 86.674515 142.312919 
L 79.976055 141.987994 
L 74.67011 141.945415 
L 69.393871 142.119952 
L 64.943461 142.453126 
L 60.772171 142.936798 
L 56.24395 143.680303 
L 52.064447 144.63037 
L 49.800264 145.302013 
L 47.314035 146.265605 
L 45.593598 147.24459 
L 44.773074 148.040814 
L 44.533694 148.558998 
L 44.535615 149.013342 
L 44.865548 149.588988 
L 45.411071 150.028258 
L 46.653596 150.619567 
L 48.760362 151.234088 
L 52.297369 151.889691 
L 56.546031 152.416476 
L 62.746769 152.93441 
L 69.641904 153.296268 
L 77.708273 153.504862 
L 85.845665 153.50037 
L 94.016563 153.275606 
L 102.245545 152.833034 
L 113.59477 151.968015 
L 132.13986 150.542748 
L 144.405924 149.851066 
L 150.016174 149.594365 
L 150.016174 149.594365 
" style="fill:none;stroke:#000000;stroke-linecap:square;stroke-opacity:0.7;stroke-width:1.2;"/>
   </g>
   <g id="line2d_4">
    <path clip-path="url(#pc57fc9b440)" d="M 149.642405 108.759926 
L 143.683344 107.576112 
L 135.689545 106.199756 
L 123.470189 104.351587 
L 98.100847 100.857512 
L 89.795074 99.857833 
L 83.446766 99.336479 
L 78.884441 99.158139 
L 73.909358 99.195039 
L 68.708342 99.535446 
L 65.314644 99.949129 
L 61.9699 100.52778 
L 58.643581 101.300422 
L 55.281023 102.329938 
L 52.734217 103.331113 
L 50.644957 104.35787 
L 49.104029 105.297478 
L 47.829446 106.275066 
L 46.769538 107.381923 
L 46.200925 108.32346 
L 45.99653 109.092346 
L 46.035596 109.695524 
L 46.323521 110.336583 
L 47.028362 111.031376 
L 48.209108 111.669034 
L 50.096307 112.275787 
L 52.343409 112.730764 
L 55.341153 113.118115 
L 59.889339 113.438921 
L 64.847147 113.553097 
L 70.62239 113.454673 
L 77.20691 113.082829 
L 82.956713 112.552537 
L 90.027392 111.678557 
L 108.761286 109.161048 
L 114.94954 108.647324 
L 120.575177 108.387389 
L 126.675928 108.302586 
L 134.214047 108.414943 
L 143.652525 108.778739 
L 149.662978 109.087078 
L 149.662978 109.087078 
" style="fill:none;stroke:#000000;stroke-linecap:square;stroke-opacity:0.7;stroke-width:1.2;"/>
   </g>
   <g id="line2d_5">
    <path clip-path="url(#pc57fc9b440)" d="M 149.987246 70.120414 
L 145.059332 68.146954 
L 138.101721 65.624268 
L 131.020947 63.302563 
L 123.193148 61.008819 
L 116.34751 59.258326 
L 110.340225 57.951599 
L 105.560952 57.090995 
L 99.562717 56.264757 
L 94.378924 55.792085 
L 89.668694 55.55796 
L 84.329742 55.516206 
L 79.285678 55.700553 
L 74.253047 56.119117 
L 70.168703 56.654027 
L 65.632399 57.490303 
L 62.047601 58.368855 
L 58.436954 59.497501 
L 55.537278 60.631771 
L 52.897728 61.90269 
L 51.188236 62.892335 
L 48.90674 64.523039 
L 47.305549 66.038244 
L 46.436135 67.145287 
L 45.852241 68.218171 
L 45.574738 69.263963 
L 45.583809 69.880665 
L 45.775805 70.52149 
L 46.1723 71.105696 
L 47.053083 71.798502 
L 48.63123 72.474544 
L 50.432018 72.934646 
L 54.114337 73.481257 
L 58.989102 73.866743 
L 65.944374 74.144171 
L 77.363407 74.330141 
L 94.533956 74.386668 
L 103.09174 74.220137 
L 111.538601 73.821603 
L 121.227545 73.106371 
L 137.883532 71.571611 
L 149.990947 70.484086 
L 149.990947 70.484086 
" style="fill:none;stroke:#000000;stroke-linecap:square;stroke-opacity:0.7;stroke-width:1.2;"/>
   </g>
   <g id="line2d_6">
    <path clip-path="url(#pc57fc9b440)" d="M 281.151065 227.61316 
L 263.155997 225.46466 
L 239.909047 222.881138 
L 228.45153 221.806663 
L 220.320334 221.254714 
L 213.298277 221.002263 
L 206.648068 221.004786 
L 200.269053 221.2656 
L 194.570709 221.752798 
L 190.124532 222.345095 
L 185.478669 223.251368 
L 182.835873 223.97499 
L 180.407273 224.882997 
L 178.792385 225.751653 
L 178.083341 226.294117 
L 177.370081 227.222857 
L 177.251797 227.767388 
L 177.395644 228.353645 
L 177.793279 228.877677 
L 178.646008 229.495299 
L 179.805254 230.03738 
L 181.61843 230.63246 
L 184.260763 231.255235 
L 188.038381 231.90523 
L 194.267806 232.670085 
L 201.428585 233.286773 
L 209.022361 233.732485 
L 216.516378 233.980488 
L 223.640419 234.011369 
L 230.003486 233.833343 
L 236.218939 233.454773 
L 243.01869 232.828356 
L 252.490122 231.700615 
L 281.152556 227.916707 
L 281.152556 227.916707 
" style="fill:none;stroke:#000000;stroke-linecap:square;stroke-opacity:0.7;stroke-width:1.2;"/>
   </g>
   <g id="line2d_7">
    <path clip-path="url(#pc57fc9b440)" d="M 281.263613 188.324537 
L 272.789159 186.757459 
L 257.423266 184.152256 
L 244.399976 182.162622 
L 234.349012 180.852474 
L 226.305183 180.029796 
L 219.842826 179.582559 
L 214.021543 179.395192 
L 208.298246 179.448812 
L 203.337914 179.708227 
L 198.484427 180.169236 
L 194.812335 180.665081 
L 189.950164 181.542591 
L 185.530007 182.614985 
L 182.377785 183.614995 
L 179.965501 184.605868 
L 178.477945 185.400453 
L 177.376255 186.187204 
L 176.677645 186.936851 
L 176.370509 187.634054 
L 176.396242 188.137336 
L 176.643395 188.587342 
L 177.16578 189.034104 
L 177.62424 189.287722 
L 179.201198 189.838759 
L 181.829484 190.358452 
L 185.442012 190.78859 
L 191.75208 191.25573 
L 222.706768 193.173402 
L 233.474052 194.017151 
L 239.352017 194.260006 
L 243.898034 194.266989 
L 249.673101 194.017551 
L 255.062306 193.528115 
L 260.654757 192.787838 
L 266.368005 191.829454 
L 273.877472 190.327623 
L 281.250449 188.639523 
L 281.250449 188.639523 
" style="fill:none;stroke:#000000;stroke-linecap:square;stroke-opacity:0.7;stroke-width:1.2;"/>
   </g>
   <g id="line2d_8">
    <path clip-path="url(#pc57fc9b440)" d="M 281.190859 148.875362 
L 270.837421 147.196471 
L 254.717891 144.813266 
L 242.559153 143.215623 
L 234.362515 142.33248 
L 227.570664 141.79716 
L 220.634046 141.481372 
L 214.726502 141.410632 
L 208.243504 141.553801 
L 202.596067 141.884961 
L 196.913468 142.444283 
L 192.014747 143.150778 
L 187.568967 144.031304 
L 183.67252 145.079606 
L 181.57693 145.814521 
L 179.335267 146.850071 
L 178.283414 147.524809 
L 177.553545 148.204137 
L 177.185035 148.916276 
L 177.190555 149.312711 
L 177.418337 149.752698 
L 177.789423 150.089475 
L 178.649653 150.54523 
L 179.980281 150.975999 
L 182.01684 151.40343 
L 185.862795 151.914289 
L 191.899144 152.40965 
L 200.550656 152.863739 
L 215.353181 153.380547 
L 226.191485 153.591572 
L 234.149205 153.544197 
L 240.861264 153.309712 
L 248.400994 152.827246 
L 256.703542 152.073986 
L 268.19133 150.789116 
L 281.200785 149.201172 
L 281.200785 149.201172 
" style="fill:none;stroke:#000000;stroke-linecap:square;stroke-opacity:0.7;stroke-width:1.2;"/>
   </g>
   <g id="line2d_9">
    <path clip-path="url(#pc57fc9b440)" d="M 281.410112 109.754881 
L 275.465148 108.095588 
L 267.288858 106.025263 
L 259.256537 104.200479 
L 251.548439 102.659732 
L 244.497951 101.464604 
L 238.610135 100.656672 
L 232.438935 100.028711 
L 226.628855 99.660659 
L 220.424913 99.50596 
L 214.665077 99.573984 
L 208.125601 99.903409 
L 203.125924 100.361258 
L 197.921861 101.075005 
L 193.639537 101.897499 
L 190.025981 102.811641 
L 187.167016 103.726222 
L 184.452437 104.81149 
L 182.439274 105.815208 
L 180.737978 106.884004 
L 179.730837 107.721572 
L 179.240785 108.357804 
L 179.192892 108.73901 
L 179.238333 108.820531 
L 179.743223 109.056103 
L 180.488069 109.115241 
L 182.166975 109.039379 
L 199.234651 107.636532 
L 204.884752 107.55133 
L 209.766444 107.715781 
L 214.624018 108.1255 
L 219.368743 108.75032 
L 228.181695 110.224918 
L 234.150131 111.149551 
L 239.683988 111.787725 
L 244.002134 112.107264 
L 248.865216 112.281075 
L 255.094541 112.24617 
L 261.649136 111.954112 
L 269.409095 111.357298 
L 278.922682 110.388233 
L 281.397643 110.114217 
L 281.397643 110.114217 
" style="fill:none;stroke:#000000;stroke-linecap:square;stroke-opacity:0.7;stroke-width:1.2;"/>
   </g>
   <g id="line2d_10">
    <path clip-path="url(#pc57fc9b440)" d="M 281.251451 69.772816 
L 276.239046 67.963995 
L 269.091203 65.625241 
L 260.918351 63.201156 
L 252.746007 60.99951 
L 243.54207 58.748647 
L 234.232994 56.694126 
L 227.173166 55.353568 
L 221.515867 54.534908 
L 216.660688 54.101126 
L 213.30598 53.978504 
L 209.725141 54.026861 
L 205.887604 54.301549 
L 202.489717 54.752054 
L 198.992355 55.435882 
L 195.347182 56.41075 
L 191.719398 57.685851 
L 188.449845 59.150804 
L 186.296411 60.321413 
L 184.295479 61.599019 
L 182.404588 63.032336 
L 180.800307 64.50085 
L 179.298145 66.242122 
L 178.282582 67.89458 
L 177.843071 69.074079 
L 177.713057 70.03154 
L 177.795311 70.754825 
L 178.097749 71.489373 
L 178.63971 72.154837 
L 179.679341 72.887843 
L 181.143404 73.512094 
L 183.076668 74.038277 
L 185.39759 74.450475 
L 188.863371 74.824864 
L 193.955206 75.070815 
L 199.160857 75.078372 
L 204.759344 74.87867 
L 210.591374 74.474025 
L 217.724969 73.734832 
L 225.819796 72.64083 
L 240.249667 70.63604 
L 246.397419 70.030445 
L 252.337016 69.656626 
L 259.127542 69.470272 
L 266.53963 69.509691 
L 274.994589 69.78594 
L 281.255134 70.105538 
L 281.255134 70.105538 
" style="fill:none;stroke:#000000;stroke-linecap:square;stroke-opacity:0.7;stroke-width:1.2;"/>
   </g>
   <g id="line2d_11">
    <path clip-path="url(#pc57fc9b440)" d="M 412.776639 227.890391 
L 404.289326 226.054091 
L 392.474577 223.729927 
L 380.654298 221.638086 
L 370.586518 220.066942 
L 361.08333 218.806012 
L 353.728863 218.046858 
L 348.874969 217.699405 
L 342.635467 217.493064 
L 338.038005 217.550471 
L 333.220614 217.832796 
L 329.139995 218.272713 
L 324.369051 219.056069 
L 321.044324 219.805788 
L 317.691114 220.77747 
L 314.642298 221.917486 
L 312.141148 223.135512 
L 310.539305 224.15592 
L 309.416823 225.129068 
L 308.90625 225.808397 
L 308.722749 226.500686 
L 308.860699 226.869654 
L 309.137128 227.124874 
L 309.521857 227.314712 
L 310.61624 227.562779 
L 312.1277 227.667924 
L 315.310315 227.611158 
L 322.197165 227.16157 
L 333.631668 226.417614 
L 340.188287 226.192404 
L 345.963931 226.189071 
L 351.618177 226.385164 
L 358.286767 226.821494 
L 375.089528 228.025228 
L 384.148882 228.380436 
L 393.926019 228.510805 
L 405.635128 228.415092 
L 412.777497 228.269313 
L 412.777497 228.269313 
" style="fill:none;stroke:#000000;stroke-linecap:square;stroke-opacity:0.7;stroke-width:1.2;"/>
   </g>
   <g id="line2d_12">
    <path clip-path="url(#pc57fc9b440)" d="M 412.512312 187.866433 
L 406.797981 186.513833 
L 398.248912 184.725586 
L 389.018715 183.035067 
L 380.497597 181.700976 
L 373.379033 180.78369 
L 366.304145 180.087635 
L 360.660064 179.707874 
L 354.130329 179.471591 
L 347.572453 179.452321 
L 340.855887 179.666944 
L 334.597501 180.106256 
L 328.862595 180.748862 
L 324.399675 181.440796 
L 319.452289 182.455897 
L 316.352956 183.268079 
L 312.760553 184.469308 
L 310.788394 185.332699 
L 309.591056 186.001935 
L 308.598957 186.770419 
L 308.200218 187.302034 
L 308.117628 187.793282 
L 308.270713 188.105015 
L 308.758213 188.463167 
L 309.114338 188.613324 
L 310.765214 188.989376 
L 313.70712 189.258913 
L 319.383378 189.407273 
L 344.101169 189.65492 
L 351.739092 190.042603 
L 368.922856 191.034321 
L 375.176299 191.111288 
L 382.170747 190.941173 
L 389.144791 190.535171 
L 397.467925 189.818907 
L 410.171243 188.458789 
L 412.519439 188.201527 
L 412.519439 188.201527 
" style="fill:none;stroke:#000000;stroke-linecap:square;stroke-opacity:0.7;stroke-width:1.2;"/>
   </g>
   <g id="line2d_13">
    <path clip-path="url(#pc57fc9b440)" d="M 412.362012 148.24538 
L 405.164537 147.197637 
L 393.823597 145.786116 
L 381.526508 144.478926 
L 367.14734 143.183515 
L 354.394374 142.238411 
L 346.721451 141.882303 
L 340.748148 141.812537 
L 336.1224 141.923451 
L 331.242548 142.22643 
L 326.446905 142.73994 
L 321.603932 143.516571 
L 317.356884 144.467377 
L 314.447908 145.318205 
L 311.741778 146.337298 
L 310.337927 147.017247 
L 309.174574 147.755215 
L 308.415663 148.550987 
L 308.309618 149.041968 
L 308.538849 149.425565 
L 309.042312 149.726792 
L 309.763542 149.955923 
L 311.283528 150.208466 
L 314.081889 150.391172 
L 318.660554 150.404765 
L 325.071233 150.180548 
L 335.893599 149.533578 
L 352.637844 148.498609 
L 360.86083 148.248972 
L 369.718071 148.232754 
L 411.424975 148.550253 
L 412.355166 148.546862 
L 412.355166 148.546862 
" style="fill:none;stroke:#000000;stroke-linecap:square;stroke-opacity:0.7;stroke-width:1.2;"/>
   </g>
   <g id="line2d_14">
    <path clip-path="url(#pc57fc9b440)" d="M 412.800162 109.94673 
L 389.651324 107.822148 
L 362.782506 105.350276 
L 347.510937 103.866043 
L 341.45943 103.479082 
L 335.28146 103.322135 
L 330.915756 103.390874 
L 325.483942 103.720296 
L 322.53454 104.030351 
L 318.344391 104.667889 
L 315.785813 105.205346 
L 312.585754 106.121591 
L 310.174615 107.152071 
L 309.10068 107.851393 
L 308.413485 108.603327 
L 308.245241 109.036964 
L 308.281895 109.535301 
L 308.611698 110.03772 
L 309.177075 110.463141 
L 310.308452 110.97181 
L 311.985123 111.446477 
L 314.813022 111.959119 
L 318.610028 112.397224 
L 323.820921 112.767928 
L 329.627593 112.993971 
L 336.779631 113.07743 
L 345.102515 112.936637 
L 353.34721 112.544214 
L 362.122353 111.878582 
L 378.486031 110.543543 
L 387.025844 110.124319 
L 395.486395 109.951613 
L 405.010504 110.00611 
L 412.806694 110.216018 
L 412.806694 110.216018 
" style="fill:none;stroke:#000000;stroke-linecap:square;stroke-opacity:0.7;stroke-width:1.2;"/>
   </g>
   <g id="line2d_15">
    <path clip-path="url(#pc57fc9b440)" d="M 412.400427 69.608174 
L 404.017754 68.25131 
L 391.9192 66.493613 
L 377.102553 64.560604 
L 363.917496 63.058373 
L 354.151278 62.168485 
L 347.390954 61.750477 
L 341.327355 61.572032 
L 335.557122 61.620898 
L 331.073062 61.83816 
L 325.884353 62.328948 
L 322.588309 62.804079 
L 319.0886 63.486077 
L 315.677768 64.387583 
L 313.856074 65.004669 
L 311.511971 66.01521 
L 310.092805 66.822035 
L 308.622873 67.994653 
L 307.843935 69.050064 
L 307.600808 69.786128 
L 307.638319 70.615936 
L 307.992365 71.378091 
L 308.563556 72.024021 
L 309.824203 72.911958 
L 311.867273 73.842256 
L 314.176486 74.584016 
L 317.127081 75.288525 
L 321.347521 76.016251 
L 326.505728 76.612437 
L 331.795968 76.975158 
L 337.210695 77.126875 
L 343.103822 77.060106 
L 349.240255 76.746002 
L 355.632143 76.174783 
L 362.650004 75.318818 
L 391.153075 71.5143 
L 399.713136 70.735953 
L 409.116623 70.101523 
L 412.426405 69.926534 
L 412.426405 69.926534 
" style="fill:none;stroke:#000000;stroke-linecap:square;stroke-opacity:0.7;stroke-width:1.2;"/>
   </g>
   <g id="line2d_16">
    <path clip-path="url(#pc57fc9b440)" d="M 543.962603 227.676328 
L 536.033529 226.154667 
L 523.786173 224.042153 
L 510.471476 221.992169 
L 497.319361 220.191255 
L 487.809805 219.08886 
L 480.848226 218.518981 
L 475.014934 218.288629 
L 470.358013 218.307242 
L 465.500053 218.546584 
L 460.862028 219.010363 
L 456.339896 219.716876 
L 453.091911 220.408928 
L 449.927216 221.270033 
L 447.162911 222.22335 
L 444.331952 223.495501 
L 442.713339 224.45492 
L 441.446673 225.454284 
L 440.671227 226.356881 
L 440.310994 227.159654 
L 440.284786 227.728089 
L 440.39568 228.098705 
L 440.737884 228.586401 
L 441.294966 229.025093 
L 442.217129 229.478649 
L 443.791437 229.966742 
L 445.887109 230.383689 
L 449.077141 230.79046 
L 453.539258 231.135772 
L 459.744585 231.390239 
L 468.261834 231.484654 
L 476.392012 231.364602 
L 484.760597 231.031013 
L 493.940532 230.426017 
L 517.737366 228.685589 
L 527.662686 228.266209 
L 538.815886 228.025404 
L 543.955363 227.987655 
L 543.955363 227.987655 
" style="fill:none;stroke:#000000;stroke-linecap:square;stroke-opacity:0.7;stroke-width:1.2;"/>
   </g>
   <g id="line2d_17">
    <path clip-path="url(#pc57fc9b440)" d="M 544.150461 188.980164 
L 526.570521 187.197183 
L 499.160222 184.401503 
L 488.709543 183.578666 
L 479.097333 183.053456 
L 471.211958 182.845501 
L 464.550524 182.900643 
L 460.080604 183.100362 
L 454.767439 183.559102 
L 449.926583 184.245709 
L 446.170718 185.014653 
L 442.998674 185.897545 
L 440.346901 186.94704 
L 439.545709 187.47754 
L 439.485997 187.757761 
L 439.756238 187.869951 
L 440.425242 187.912134 
L 442.179905 187.789429 
L 446.829647 187.176497 
L 463.258009 184.871497 
L 470.010445 184.187979 
L 475.279126 183.881356 
L 480.230379 183.845454 
L 484.93391 184.0709 
L 489.73671 184.537334 
L 496.541199 185.45028 
L 509.428229 187.226962 
L 516.907178 188.016781 
L 524.28608 188.578785 
L 531.755328 188.946589 
L 541.221699 189.175476 
L 544.147079 189.207546 
L 544.147079 189.207546 
" style="fill:none;stroke:#000000;stroke-linecap:square;stroke-opacity:0.7;stroke-width:1.2;"/>
   </g>
   <g id="line2d_18">
    <path clip-path="url(#pc57fc9b440)" d="M 544.156905 149.282462 
L 537.041617 147.224045 
L 528.158716 144.863749 
L 518.438828 142.501655 
L 508.795382 140.384317 
L 500.128673 138.697611 
L 492.698705 137.4793 
L 486.495373 136.711384 
L 482.241763 136.363221 
L 477.553309 136.181299 
L 472.725098 136.24185 
L 467.929206 136.575117 
L 463.345973 137.171926 
L 458.916366 138.037602 
L 455.514801 138.924698 
L 452.05805 140.06543 
L 448.842869 141.403018 
L 446.193626 142.781505 
L 444.003248 144.206191 
L 442.634739 145.311695 
L 441.383543 146.610768 
L 440.63904 147.749233 
L 440.370457 148.548619 
L 440.372889 149.185304 
L 440.655566 149.795277 
L 441.059128 150.178807 
L 441.872037 150.609117 
L 443.361044 151.024489 
L 445.175126 151.291456 
L 448.947681 151.531742 
L 453.868759 151.587858 
L 462.488867 151.420642 
L 478.585852 150.82798 
L 515.002186 149.471089 
L 525.640611 149.362899 
L 536.590985 149.455997 
L 544.149828 149.640087 
L 544.149828 149.640087 
" style="fill:none;stroke:#000000;stroke-linecap:square;stroke-opacity:0.7;stroke-width:1.2;"/>
   </g>
   <g id="line2d_19">
    <path clip-path="url(#pc57fc9b440)" d="M 543.957185 109.37457 
L 537.85021 107.259826 
L 530.746232 105.018654 
L 522.368468 102.627764 
L 515.697323 100.927295 
L 509.369654 99.509482 
L 503.771741 98.447829 
L 499.047893 97.721513 
L 493.807786 97.124381 
L 488.391081 96.751335 
L 483.444842 96.621444 
L 478.231132 96.687186 
L 472.549571 96.986244 
L 467.34348 97.478666 
L 462.46666 98.158936 
L 457.991513 99.013745 
L 454.066831 99.998488 
L 451.158583 100.915361 
L 449.070925 101.702831 
L 446.035534 103.115621 
L 443.787042 104.472637 
L 442.349436 105.579839 
L 441.118482 106.825422 
L 440.448612 107.788637 
L 440.084516 108.640307 
L 439.980076 109.433868 
L 440.110975 110.071186 
L 440.401521 110.577972 
L 440.874775 111.046774 
L 441.877175 111.632803 
L 443.282077 112.124749 
L 445.065483 112.525151 
L 448.949409 113.043839 
L 455.019448 113.480763 
L 464.41143 113.849424 
L 479.157979 114.171221 
L 488.632157 114.196362 
L 496.309671 114.006876 
L 504.197811 113.577876 
L 513.89846 112.778667 
L 528.563943 111.275204 
L 543.942518 109.736892 
L 543.942518 109.736892 
" style="fill:none;stroke:#000000;stroke-linecap:square;stroke-opacity:0.7;stroke-width:1.2;"/>
   </g>
   <g id="line2d_20">
    <path clip-path="url(#pc57fc9b440)" d="M 544.020421 70.394507 
L 532.287426 68.372117 
L 519.252888 66.345753 
L 508.491099 64.905517 
L 500.281353 64.029519 
L 493.433435 63.503914 
L 485.952263 63.1759 
L 479.014257 63.10083 
L 472.536504 63.226943 
L 466.528339 63.526852 
L 460.503865 64.035897 
L 455.607945 64.639895 
L 451.449965 65.326819 
L 447.180696 66.267269 
L 444.113512 67.179256 
L 441.950436 68.053592 
L 440.541368 68.884157 
L 439.951147 69.467389 
L 439.760701 69.947918 
L 439.858122 70.342331 
L 440.342146 70.788301 
L 441.102315 71.134384 
L 442.680952 71.549959 
L 444.856571 71.900099 
L 449.177738 72.334368 
L 457.023459 72.844466 
L 474.66616 73.94554 
L 484.373282 74.824507 
L 497.019656 75.994483 
L 501.296186 76.223211 
L 506.269749 76.300353 
L 511.322575 76.145719 
L 516.114167 75.783354 
L 521.579572 75.138262 
L 527.293577 74.241176 
L 534.378522 72.878139 
L 541.545898 71.274575 
L 543.980364 70.681747 
L 543.980364 70.681747 
" style="fill:none;stroke:#000000;stroke-linecap:square;stroke-opacity:0.7;stroke-width:1.2;"/>
   </g>
   <g id="line2d_21">
    <path clip-path="url(#pc57fc9b440)" d="M 675.182599 227.487512 
L 663.190907 225.739124 
L 646.436726 223.523552 
L 628.338698 221.35543 
L 617.212365 220.215157 
L 610.027948 219.685357 
L 604.408733 219.452692 
L 599.434778 219.418428 
L 594.087695 219.603841 
L 589.51614 219.989064 
L 585.195261 220.60087 
L 582.14262 221.225421 
L 578.984499 222.10839 
L 577.618704 222.594911 
L 575.132679 223.736825 
L 573.704179 224.650194 
L 572.787721 225.451864 
L 572.052005 226.459614 
L 571.834363 227.095567 
L 571.845086 227.796846 
L 572.075353 228.353892 
L 572.663401 229.012171 
L 573.813228 229.729111 
L 575.695667 230.442637 
L 578.767168 231.166317 
L 581.904599 231.643277 
L 586.148338 232.049616 
L 591.846559 232.303843 
L 596.944229 232.31063 
L 603.200109 232.070075 
L 609.231292 231.596703 
L 614.976145 230.948568 
L 623.768113 229.703405 
L 634.287219 228.21169 
L 640.665611 227.533175 
L 645.928891 227.167684 
L 652.156537 226.967489 
L 658.96991 227.001385 
L 665.912484 227.24761 
L 675.196847 227.796884 
L 675.196847 227.796884 
" style="fill:none;stroke:#000000;stroke-linecap:square;stroke-opacity:0.7;stroke-width:1.2;"/>
   </g>
   <g id="line2d_22">
    <path clip-path="url(#pc57fc9b440)" d="M 675.207443 187.945604 
L 670.184529 186.040113 
L 663.137736 183.61548 
L 655.007941 181.063312 
L 646.391522 178.608384 
L 638.207553 176.530323 
L 631.213049 174.990403 
L 626.066626 174.033068 
L 619.876224 173.132745 
L 614.821216 172.644463 
L 611.02486 172.445991 
L 606.842116 172.412108 
L 603.119212 172.558749 
L 598.405062 173.004956 
L 594.618438 173.593931 
L 591.262084 174.305681 
L 587.920559 175.211977 
L 584.402394 176.412206 
L 581.548842 177.609634 
L 578.699049 179.064639 
L 576.772745 180.247195 
L 574.855281 181.659013 
L 573.26819 183.113638 
L 571.909608 184.781052 
L 571.156147 186.204914 
L 570.868516 187.323537 
L 570.900464 188.348351 
L 571.059408 188.881977 
L 571.520591 189.661366 
L 572.397857 190.478705 
L 573.893531 191.306722 
L 575.571211 191.913022 
L 578.124195 192.545075 
L 581.3896 193.094826 
L 586.223757 193.626764 
L 592.541576 194.023319 
L 598.481033 194.17706 
L 604.952305 194.13314 
L 611.774508 193.844964 
L 618.231197 193.334295 
L 624.58935 192.6243 
L 650.226043 189.460001 
L 658.166421 188.874621 
L 666.938871 188.470411 
L 675.195218 188.263833 
L 675.195218 188.263833 
" style="fill:none;stroke:#000000;stroke-linecap:square;stroke-opacity:0.7;stroke-width:1.2;"/>
   </g>
   <g id="line2d_23">
    <path clip-path="url(#pc57fc9b440)" d="M 674.989336 148.095787 
L 669.763771 146.718895 
L 661.850417 144.868204 
L 653.004955 143.02732 
L 642.939543 141.165879 
L 631.068861 139.214154 
L 618.975177 137.448335 
L 611.304527 136.578356 
L 605.81049 136.193832 
L 601.379144 136.085536 
L 596.714265 136.211826 
L 593.442908 136.473149 
L 590.164092 136.901249 
L 586.360029 137.642898 
L 582.984825 138.570596 
L 580.58193 139.427125 
L 578.845273 140.175716 
L 576.552614 141.384665 
L 574.385202 142.866781 
L 572.64183 144.494521 
L 572.136942 145.110209 
L 571.238402 146.668839 
L 570.991658 147.600698 
L 570.999017 148.400207 
L 571.28643 149.211665 
L 571.738122 149.789904 
L 572.129202 150.120609 
L 573.41497 150.799426 
L 574.920298 151.247778 
L 576.818179 151.571229 
L 579.367197 151.777524 
L 583.284309 151.804771 
L 587.907312 151.560303 
L 593.041401 151.051153 
L 598.900595 150.241943 
L 606.439357 148.939438 
L 620.575112 146.369334 
L 625.58696 145.720933 
L 630.351141 145.333841 
L 635.003368 145.1748 
L 639.99597 145.215298 
L 645.966461 145.485768 
L 653.574311 146.06262 
L 665.025512 147.183025 
L 674.996945 148.271318 
L 674.996945 148.271318 
" style="fill:none;stroke:#000000;stroke-linecap:square;stroke-opacity:0.7;stroke-width:1.2;"/>
   </g>
   <g id="line2d_24">
    <path clip-path="url(#pc57fc9b440)" d="M 675.25965 109.491589 
L 664.671083 107.76701 
L 643.349855 104.537423 
L 619.392506 101.073345 
L 612.544049 100.321951 
L 607.11491 99.949564 
L 602.347914 99.835288 
L 597.941911 99.934181 
L 593.225575 100.282277 
L 588.594709 100.895704 
L 584.367135 101.727327 
L 580.971022 102.624868 
L 578.091779 103.595038 
L 575.303326 104.798291 
L 572.87236 106.216693 
L 571.588488 107.288309 
L 570.925678 108.164455 
L 570.727265 108.78959 
L 570.785526 109.238456 
L 571.03216 109.61988 
L 571.545739 109.988159 
L 572.593778 110.362344 
L 574.086905 110.624621 
L 577.114496 110.828174 
L 582.177907 110.831366 
L 590.141831 110.567082 
L 613.349815 109.677457 
L 623.440657 109.61154 
L 675.254276 109.780389 
L 675.254276 109.780389 
" style="fill:none;stroke:#000000;stroke-linecap:square;stroke-opacity:0.7;stroke-width:1.2;"/>
   </g>
   <g id="line2d_25">
    <path clip-path="url(#pc57fc9b440)" d="M 675.490909 70.643031 
L 662.601837 68.155906 
L 648.966649 65.733772 
L 639.387103 64.248561 
L 632.427651 63.359215 
L 625.734085 62.711042 
L 619.798763 62.330224 
L 613.829027 62.132184 
L 606.593449 62.136889 
L 600.5806 62.359573 
L 594.989041 62.776845 
L 590.29871 63.317963 
L 585.789321 64.046226 
L 581.621046 64.961663 
L 578.8927 65.738857 
L 576.204527 66.716927 
L 573.85384 67.88386 
L 572.938227 68.50921 
L 572.132543 69.313884 
L 571.905816 69.751607 
L 571.91743 70.296368 
L 572.279693 70.720837 
L 572.826381 71.00652 
L 573.9129 71.309522 
L 575.631027 71.554528 
L 578.501565 71.739769 
L 584.096026 71.833629 
L 604.59997 71.940054 
L 612.372399 72.314587 
L 622.994979 73.150763 
L 630.504378 73.659527 
L 637.161958 73.867679 
L 643.393337 73.815485 
L 649.30566 73.560916 
L 656.657831 73.019005 
L 665.159579 72.169643 
L 675.480632 70.951605 
L 675.480632 70.951605 
" style="fill:none;stroke:#000000;stroke-linecap:square;stroke-opacity:0.7;stroke-width:1.2;"/>
   </g>
  </g>
 </g>
 <defs>
  <clipPath id="pc57fc9b440">
   <rect height="262.08" width="694.08" x="12.96" y="12.96"/>
  </clipPath>
 </defs>
</svg>
