<?xml version="1.0" encoding="utf-8" standalone="no"?>
<!DOCTYPE svg PUBLIC "-//W3C//DTD SVG 1.1//EN"
  "http://www.w3.org/Graphics/SVG/1.1/DTD/svg11.dtd">
<!-- Created with matplotlib (https://matplotlib.org/) -->
<svg height="288pt" version="1.1" viewBox="0 0 720 288" width="720pt" xmlns="http://www.w3.org/2000/svg" xmlns:xlink="http://www.w3.org/1999/xlink">
 <metadata>
  <rdf:RDF xmlns:cc="http://creativecommons.org/ns#" xmlns:dc="http://purl.org/dc/elements/1.1/" xmlns:rdf="http://www.w3.org/1999/02/22-rdf-syntax-ns#">
   <cc:Work>
    <dc:type rdf:resource="http://purl.org/dc/dcmitype/StillImage"/>
    <dc:date>2020-12-22T12:11:45.619818</dc:date>
    <dc:format>image/svg+xml</dc:format>
    <dc:creator>
     <cc:Agent>
      <dc:title>Matplotlib v3.3.2, https://matplotlib.org/</dc:title>
     </cc:Agent>
    </dc:creator>
   </cc:Work>
  </rdf:RDF>
 </metadata>
 <defs>
  <style type="text/css">*{stroke-linecap:butt;stroke-linejoin:round;}</style>
 </defs>
 <g id="figure_1">
  <g id="patch_1">
   <path d="M 0 288 
L 720 288 
L 720 0 
L 0 0 
z
" style="fill:#ffffff;"/>
  </g>
  <g id="axes_1">
   <g id="line2d_1">
    <path clip-path="url(#p6af02f6aa1)" d="M 148.438066 226.20568 
L 141.828148 223.797967 
L 133.299862 220.929147 
L 126.062716 218.723849 
L 119.142273 216.836681 
L 112.334975 215.221456 
L 106.948457 214.137467 
L 100.87505 213.145965 
L 95.990094 212.536028 
L 90.115084 212.026566 
L 85.080161 211.790165 
L 79.813337 211.763597 
L 75.359395 211.952824 
L 71.003734 212.373666 
L 67.385035 212.945728 
L 63.703218 213.787002 
L 60.446133 214.800131 
L 58.37378 215.602824 
L 55.757388 216.825432 
L 52.996236 218.421556 
L 50.912814 219.889155 
L 48.831657 221.66696 
L 47.617301 222.920285 
L 47.032152 223.614389 
L 46.200978 224.774554 
L 45.385079 226.447767 
L 45.185439 227.534634 
L 45.272674 228.290027 
L 45.430022 228.70856 
L 45.681874 229.119929 
L 46.361018 229.790514 
L 47.529768 230.47437 
L 48.972726 231.024494 
L 51.285021 231.623105 
L 53.735645 232.067889 
L 57.978823 232.591055 
L 62.715439 232.941774 
L 68.322357 233.118688 
L 73.785653 233.062191 
L 79.076463 232.783098 
L 84.332353 232.276166 
L 90.46026 231.419571 
L 98.760263 229.98687 
L 109.172915 228.232658 
L 115.761908 227.354822 
L 120.975732 226.83945 
L 127.437457 226.43962 
L 133.919479 226.305799 
L 140.15523 226.418081 
L 146.311862 226.735235 
L 148.439102 226.882659 
L 148.439102 226.882659 
" style="fill:none;stroke:#000000;stroke-linecap:square;stroke-opacity:0.7;stroke-width:1.2;"/>
   </g>
   <g id="line2d_2">
    <path clip-path="url(#p6af02f6aa1)" d="M 147.605777 185.607821 
L 133.154539 183.384935 
L 119.66996 181.52525 
L 109.260273 180.292509 
L 101.732058 179.575547 
L 94.444698 179.091343 
L 88.2711 178.881199 
L 81.088679 178.878301 
L 75.234249 179.072692 
L 69.768518 179.437843 
L 64.57637 179.997177 
L 60.601552 180.617135 
L 56.560409 181.491652 
L 53.701538 182.325323 
L 51.036111 183.347103 
L 49.152373 184.295657 
L 47.460851 185.450957 
L 46.558809 186.354802 
L 46.064862 187.233121 
L 46.005751 187.910332 
L 46.120387 188.259672 
L 46.688229 188.89206 
L 47.570295 189.360976 
L 48.824244 189.747875 
L 50.51991 190.062765 
L 53.825787 190.380244 
L 58.403522 190.529111 
L 65.035684 190.463412 
L 72.998801 190.138451 
L 82.710194 189.5103 
L 112.536638 187.37564 
L 124.728846 186.869331 
L 147.646485 186.207756 
L 147.646485 186.207756 
" style="fill:none;stroke:#000000;stroke-linecap:square;stroke-opacity:0.7;stroke-width:1.2;"/>
   </g>
   <g id="line2d_3">
    <path clip-path="url(#p6af02f6aa1)" d="M 148.813653 148.459785 
L 137.278504 146.018619 
L 120.502652 142.494974 
L 111.970322 140.909996 
L 105.606838 139.90291 
L 98.220217 138.986303 
L 91.717203 138.42969 
L 84.815438 138.096628 
L 78.204957 138.038649 
L 72.095382 138.254706 
L 67.692383 138.61413 
L 63.119967 139.221707 
L 59.22656 139.981465 
L 55.863789 140.869751 
L 53.488239 141.661534 
L 51.033938 142.661875 
L 49.0456 143.650462 
L 47.228398 144.756996 
L 45.717081 145.942467 
L 44.778229 147.033093 
L 44.549381 147.541477 
L 44.563126 148.120629 
L 44.821455 148.468942 
L 45.17789 148.692708 
L 45.871513 148.925412 
L 47.350114 149.140012 
L 49.654334 149.229966 
L 56.956183 149.088959 
L 68.46712 148.857904 
L 75.472834 148.919448 
L 83.667914 149.231684 
L 105.507963 150.302283 
L 114.372923 150.421229 
L 123.846234 150.321681 
L 134.469725 149.998067 
L 145.830447 149.462163 
L 148.826735 149.285264 
L 148.826735 149.285264 
" style="fill:none;stroke:#000000;stroke-linecap:square;stroke-opacity:0.7;stroke-width:1.2;"/>
   </g>
   <g id="line2d_4">
    <path clip-path="url(#p6af02f6aa1)" d="M 148.062498 107.451963 
L 115.554931 103.149613 
L 106.200995 102.216106 
L 99.274624 101.736048 
L 91.796933 101.456753 
L 83.542609 101.405202 
L 75.160692 101.588295 
L 68.259886 101.95178 
L 62.412244 102.496057 
L 58.537199 103.042625 
L 55.150057 103.698936 
L 52.02423 104.51611 
L 49.796297 105.28052 
L 47.005616 106.618894 
L 45.934672 107.382281 
L 45.390188 107.933801 
L 45.003948 108.639246 
L 44.982813 109.146384 
L 45.120537 109.489223 
L 45.701941 110.053809 
L 46.295739 110.3725 
L 48.448411 111.009781 
L 50.834337 111.38166 
L 54.218906 111.675512 
L 59.97418 111.886233 
L 66.825361 111.901307 
L 76.609857 111.6847 
L 88.952837 111.168675 
L 111.604538 109.915071 
L 134.092819 108.791319 
L 148.156456 108.23513 
L 148.156456 108.23513 
" style="fill:none;stroke:#000000;stroke-linecap:square;stroke-opacity:0.7;stroke-width:1.2;"/>
   </g>
   <g id="line2d_5">
    <path clip-path="url(#p6af02f6aa1)" d="M 148.55533 67.903197 
L 119.29568 63.379641 
L 109.115439 62.054717 
L 100.34399 61.126756 
L 92.999361 60.548993 
L 86.470219 60.216467 
L 79.41527 60.095034 
L 73.707609 60.23652 
L 69.215027 60.548023 
L 64.825271 61.068788 
L 60.787313 61.780823 
L 57.560293 62.545761 
L 53.906743 63.674026 
L 51.218277 64.735709 
L 49.581572 65.514895 
L 47.256312 66.903464 
L 46.108942 67.835472 
L 45.278679 68.861516 
L 45.022144 69.626545 
L 45.065532 70.133377 
L 45.30804 70.629913 
L 45.851931 71.180061 
L 47.049959 71.879919 
L 49.218481 72.661404 
L 52.448483 73.425906 
L 56.875052 74.125138 
L 61.961411 74.626865 
L 67.475127 74.881928 
L 72.255552 74.871665 
L 77.030652 74.640722 
L 81.809356 74.183244 
L 86.555046 73.515937 
L 92.494091 72.44879 
L 107.500191 69.589308 
L 113.90216 68.691372 
L 118.70899 68.214023 
L 124.051835 67.885431 
L 129.598466 67.757998 
L 136.27155 67.86432 
L 142.376547 68.173532 
L 148.587039 68.643884 
L 148.587039 68.643884 
" style="fill:none;stroke:#000000;stroke-linecap:square;stroke-opacity:0.7;stroke-width:1.2;"/>
   </g>
   <g id="line2d_6">
    <path clip-path="url(#p6af02f6aa1)" d="M 280.488056 226.861912 
L 271.268082 225.97379 
L 240.463874 222.838302 
L 229.574235 222.067456 
L 216.084058 221.353671 
L 208.039238 221.119648 
L 202.499223 221.139964 
L 197.584215 221.341021 
L 192.697896 221.764636 
L 188.380725 222.381377 
L 184.43827 223.217452 
L 181.682918 224.0272 
L 179.506298 224.878848 
L 177.881886 225.749996 
L 177.034668 226.414225 
L 176.729134 226.780154 
L 176.537033 227.336042 
L 176.655591 227.721148 
L 176.880358 227.970245 
L 177.704049 228.423475 
L 178.239107 228.606913 
L 180.489826 229.098596 
L 183.41488 229.490032 
L 189.11209 229.993107 
L 197.993534 230.509856 
L 207.803828 230.864477 
L 218.165632 230.998144 
L 227.313405 230.868647 
L 235.803599 230.547752 
L 249.907624 229.752545 
L 279.146449 227.809965 
L 280.514094 227.703506 
L 280.514094 227.703506 
" style="fill:none;stroke:#000000;stroke-linecap:square;stroke-opacity:0.7;stroke-width:1.2;"/>
   </g>
   <g id="line2d_7">
    <path clip-path="url(#p6af02f6aa1)" d="M 279.667605 186.396245 
L 272.902622 184.602395 
L 264.352739 182.576317 
L 255.978858 180.839522 
L 247.765028 179.384268 
L 239.898016 178.244385 
L 232.613718 177.43811 
L 225.811726 176.919766 
L 219.008538 176.638202 
L 213.216549 176.605311 
L 207.626355 176.791486 
L 202.56335 177.190948 
L 197.843064 177.812574 
L 194.015136 178.536464 
L 190.016227 179.554398 
L 186.581021 180.696593 
L 183.255914 182.113318 
L 180.671643 183.518268 
L 178.870047 184.760747 
L 177.61466 185.893674 
L 176.836897 186.936939 
L 176.604338 187.523223 
L 176.564329 188.051277 
L 176.780523 188.63953 
L 177.237942 189.10747 
L 178.216029 189.625471 
L 179.742366 190.069847 
L 181.918421 190.431999 
L 185.817573 190.764925 
L 190.365917 190.923557 
L 197.247252 190.932707 
L 206.402867 190.695163 
L 216.984547 190.169002 
L 228.9456 189.319393 
L 246.568193 188.065804 
L 257.19574 187.549964 
L 268.298711 187.232464 
L 279.689805 187.103439 
L 279.689805 187.103439 
" style="fill:none;stroke:#000000;stroke-linecap:square;stroke-opacity:0.7;stroke-width:1.2;"/>
   </g>
   <g id="line2d_8">
    <path clip-path="url(#p6af02f6aa1)" d="M 280.172369 147.533462 
L 266.370547 144.306471 
L 256.261298 142.167837 
L 247.440851 140.516477 
L 238.72664 139.126371 
L 230.54011 138.079411 
L 222.974308 137.360796 
L 216.257464 136.950678 
L 210.384564 136.81294 
L 205.660215 136.896834 
L 201.406037 137.162421 
L 196.68449 137.723836 
L 192.99868 138.405394 
L 190.178377 139.103513 
L 186.784604 140.190817 
L 183.366634 141.628696 
L 180.735767 143.050636 
L 178.784186 144.36648 
L 177.061826 145.849222 
L 176.23006 146.790481 
L 175.516327 147.96657 
L 175.278572 148.824806 
L 175.322072 149.541083 
L 175.68365 150.286358 
L 175.904245 150.54296 
L 176.96511 151.314674 
L 178.299815 151.900666 
L 180.534951 152.549799 
L 183.760921 153.180654 
L 188.5083 153.814779 
L 194.350597 154.339094 
L 201.250806 154.703225 
L 207.563387 154.804028 
L 213.395937 154.67043 
L 219.165803 154.29025 
L 225.329982 153.609198 
L 232.670572 152.530681 
L 247.136676 150.326465 
L 254.364905 149.464441 
L 261.949032 148.807885 
L 269.832254 148.399502 
L 276.881553 148.252414 
L 280.187574 148.238688 
L 280.187574 148.238688 
" style="fill:none;stroke:#000000;stroke-linecap:square;stroke-opacity:0.7;stroke-width:1.2;"/>
   </g>
   <g id="line2d_9">
    <path clip-path="url(#p6af02f6aa1)" d="M 280.572562 109.125577 
L 272.849442 107.730696 
L 247.635857 102.970193 
L 240.576045 101.904132 
L 233.642514 101.092924 
L 227.159321 100.563326 
L 220.142917 100.209752 
L 212.54638 100.045184 
L 204.909559 100.128827 
L 199.219576 100.419285 
L 194.271154 100.906782 
L 190.490122 101.486021 
L 186.72242 102.309125 
L 184.355635 102.995334 
L 181.807644 103.938899 
L 179.823526 104.892649 
L 178.05421 106.038629 
L 177.41805 106.590481 
L 176.60446 107.618998 
L 176.347133 108.298904 
L 176.342191 109.023171 
L 176.561412 109.612299 
L 176.904712 110.098396 
L 178.049045 111.060481 
L 178.901554 111.560397 
L 181.622254 112.724695 
L 185.15064 113.796605 
L 188.58193 114.592339 
L 193.015481 115.378096 
L 197.541896 115.951746 
L 202.143451 116.31792 
L 207.166997 116.467127 
L 212.197703 116.341917 
L 216.581255 116.000402 
L 221.253271 115.405161 
L 225.930167 114.604424 
L 234.664836 112.79527 
L 243.347909 111.041562 
L 248.554945 110.191984 
L 254.187891 109.516546 
L 259.521196 109.131745 
L 265.236105 108.99524 
L 270.998379 109.132232 
L 276.750931 109.513314 
L 280.577335 109.867203 
L 280.577335 109.867203 
" style="fill:none;stroke:#000000;stroke-linecap:square;stroke-opacity:0.7;stroke-width:1.2;"/>
   </g>
   <g id="line2d_10">
    <path clip-path="url(#p6af02f6aa1)" d="M 280.067678 68.209698 
L 252.299267 62.898278 
L 242.098037 61.229176 
L 234.167067 60.172539 
L 228.11186 59.565053 
L 222.240631 59.16472 
L 216.047112 58.952424 
L 210.043961 58.965576 
L 205.656996 59.131172 
L 200.435857 59.540262 
L 196.447203 60.048271 
L 191.807308 60.913551 
L 188.661438 61.708888 
L 185.815453 62.607007 
L 182.649024 63.854565 
L 180.123724 65.10262 
L 178.44579 66.122812 
L 176.837649 67.376641 
L 175.986563 68.327762 
L 175.600464 69.049715 
L 175.494373 69.612803 
L 175.640298 70.258246 
L 176.037968 70.793157 
L 176.902896 71.409323 
L 177.587198 71.738135 
L 179.508251 72.38601 
L 182.661498 73.086893 
L 186.107032 73.633587 
L 191.559218 74.27033 
L 198.592004 74.846631 
L 206.790706 75.257007 
L 214.070944 75.388153 
L 221.21305 75.281233 
L 227.92959 74.96493 
L 236.703927 74.285921 
L 245.882125 73.349813 
L 259.7274 71.697888 
L 280.119069 69.029175 
L 280.119069 69.029175 
" style="fill:none;stroke:#000000;stroke-linecap:square;stroke-opacity:0.7;stroke-width:1.2;"/>
   </g>
   <g id="line2d_11">
    <path clip-path="url(#p6af02f6aa1)" d="M 411.439583 225.554825 
L 391.745072 222.699691 
L 377.072488 220.77498 
L 368.54397 219.861484 
L 361.867117 219.360907 
L 356.167177 219.135252 
L 349.530725 219.110068 
L 342.874054 219.30283 
L 336.385519 219.678104 
L 329.931411 220.27107 
L 325.565986 220.851875 
L 321.127604 221.667474 
L 317.531613 222.576919 
L 314.445113 223.638983 
L 312.143612 224.7262 
L 310.791889 225.601646 
L 309.742414 226.610775 
L 309.308266 227.439342 
L 309.275386 228.050771 
L 309.439154 228.500627 
L 309.80935 228.963161 
L 310.47682 229.453251 
L 311.765639 230.04333 
L 313.519161 230.572343 
L 316.355977 231.156778 
L 319.744513 231.646662 
L 325.546307 232.212486 
L 331.72563 232.55899 
L 337.887007 232.657871 
L 343.642219 232.495455 
L 349.406779 232.058292 
L 355.125748 231.376362 
L 364.424608 229.971107 
L 374.996601 228.411108 
L 382.50438 227.536045 
L 389.119052 226.96743 
L 395.622232 226.587568 
L 403.46727 226.337906 
L 411.486697 226.267709 
L 411.486697 226.267709 
" style="fill:none;stroke:#000000;stroke-linecap:square;stroke-opacity:0.7;stroke-width:1.2;"/>
   </g>
   <g id="line2d_12">
    <path clip-path="url(#p6af02f6aa1)" d="M 411.735411 187.364654 
L 402.302357 185.953272 
L 381.543573 182.791684 
L 373.064762 181.756864 
L 366.670029 181.196713 
L 360.714055 180.894668 
L 353.650675 180.802171 
L 344.976993 180.965176 
L 335.884818 181.353069 
L 328.54127 181.876716 
L 323.088557 182.483967 
L 318.690527 183.187274 
L 315.100117 183.961243 
L 311.906352 184.863607 
L 308.888355 186.022594 
L 307.311193 186.89813 
L 306.605835 187.517505 
L 306.371008 187.967649 
L 306.372 188.212861 
L 306.636983 188.614686 
L 307.056517 188.883355 
L 308.362946 189.325224 
L 311.106156 189.809339 
L 315.686907 190.292127 
L 325.573863 191.025378 
L 352.592126 192.7375 
L 361.042233 193.062777 
L 368.070223 193.108706 
L 373.575543 192.968902 
L 380.881891 192.536986 
L 387.42041 191.9262 
L 395.309478 190.937079 
L 403.300952 189.677548 
L 409.887363 188.434446 
L 411.742533 188.041882 
L 411.742533 188.041882 
" style="fill:none;stroke:#000000;stroke-linecap:square;stroke-opacity:0.7;stroke-width:1.2;"/>
   </g>
   <g id="line2d_13">
    <path clip-path="url(#p6af02f6aa1)" d="M 411.240067 147.281833 
L 401.531092 144.515977 
L 392.665598 142.214873 
L 383.824935 140.165159 
L 376.002625 138.585995 
L 368.792923 137.358526 
L 362.831919 136.53467 
L 355.891637 135.819393 
L 349.707466 135.424041 
L 344.231393 135.291979 
L 339.68265 135.369397 
L 335.427061 135.630082 
L 331.613212 136.053012 
L 327.325983 136.793783 
L 323.636319 137.712102 
L 321.471176 138.398939 
L 318.632683 139.499426 
L 316.353487 140.579359 
L 313.960072 141.949267 
L 311.706609 143.542616 
L 310.042978 145.048669 
L 309.152866 146.153894 
L 308.774912 146.898317 
L 308.67086 147.381972 
L 308.795952 148.006091 
L 309.020451 148.307275 
L 309.711529 148.754689 
L 310.767061 149.082721 
L 312.322277 149.314765 
L 314.075734 149.421175 
L 318.394681 149.373732 
L 323.875224 149.012584 
L 331.695349 148.213908 
L 350.547816 146.083645 
L 356.143831 145.743919 
L 360.917363 145.629757 
L 368.391261 145.714417 
L 378.021639 146.109777 
L 411.230622 147.777538 
L 411.230622 147.777538 
" style="fill:none;stroke:#000000;stroke-linecap:square;stroke-opacity:0.7;stroke-width:1.2;"/>
   </g>
   <g id="line2d_14">
    <path clip-path="url(#p6af02f6aa1)" d="M 411.920507 108.331536 
L 401.103455 107.300587 
L 369.986098 104.225773 
L 358.934313 103.428823 
L 347.759289 102.865707 
L 339.741116 102.674917 
L 333.391986 102.731488 
L 327.715644 103.00402 
L 322.926183 103.454925 
L 319.052706 104.020058 
L 315.724388 104.704906 
L 313.222322 105.395577 
L 310.478505 106.445339 
L 309.049353 107.240539 
L 308.586573 107.585121 
L 307.835732 108.496068 
L 307.753603 108.966347 
L 308.002293 109.525442 
L 308.483283 109.928751 
L 309.427397 110.380577 
L 310.675549 110.762839 
L 313.463301 111.304526 
L 317.585349 111.790486 
L 323.412397 112.18762 
L 329.909583 112.382022 
L 335.895366 112.3638 
L 342.136329 112.137934 
L 348.801877 111.655732 
L 356.575437 110.83654 
L 373.147466 109.003442 
L 379.305562 108.553628 
L 386.409977 108.266854 
L 393.586381 108.223998 
L 401.236174 108.419075 
L 409.875676 108.871594 
L 411.928979 108.999911 
L 411.928979 108.999911 
" style="fill:none;stroke:#000000;stroke-linecap:square;stroke-opacity:0.7;stroke-width:1.2;"/>
   </g>
   <g id="line2d_15">
    <path clip-path="url(#p6af02f6aa1)" d="M 411.827868 67.759726 
L 403.714101 65.18674 
L 395.984518 62.945267 
L 388.338292 60.95373 
L 381.712717 59.426226 
L 374.538743 57.994578 
L 367.536551 56.830093 
L 360.360367 55.880602 
L 354.1278 55.274885 
L 348.191373 54.936321 
L 343.183734 54.885018 
L 338.710118 55.064369 
L 334.280235 55.491539 
L 330.722126 56.043395 
L 326.689455 56.929711 
L 323.587194 57.830241 
L 320.557955 58.926494 
L 318.388001 59.867792 
L 315.538921 61.34853 
L 313.281613 62.779967 
L 311.288133 64.326306 
L 309.78619 65.798483 
L 309.24174 66.460846 
L 308.432031 67.809085 
L 308.219261 68.474779 
L 308.212409 69.347969 
L 308.38649 69.809104 
L 308.842443 70.362528 
L 309.546366 70.829095 
L 310.695096 71.279807 
L 312.604086 71.707633 
L 314.826848 71.986615 
L 318.203094 72.196174 
L 322.964337 72.259609 
L 329.768238 72.076942 
L 337.156828 71.626826 
L 345.631182 70.861313 
L 369.036576 68.502128 
L 376.400777 68.104891 
L 384.250764 67.929337 
L 392.719218 67.974299 
L 403.805735 68.277464 
L 411.825319 68.569518 
L 411.825319 68.569518 
" style="fill:none;stroke:#000000;stroke-linecap:square;stroke-opacity:0.7;stroke-width:1.2;"/>
   </g>
   <g id="line2d_16">
    <path clip-path="url(#p6af02f6aa1)" d="M 543.14376 225.276964 
L 534.243881 222.782542 
L 524.051915 220.160185 
L 514.947453 218.063423 
L 507.512053 216.558458 
L 499.766255 215.229279 
L 492.630263 214.25872 
L 486.983018 213.689295 
L 480.974218 213.307202 
L 475.855287 213.198403 
L 471.410858 213.299891 
L 466.992449 213.619556 
L 463.472415 214.061831 
L 459.770926 214.743427 
L 456.455229 215.58172 
L 453.636959 216.5011 
L 450.901375 217.618973 
L 448.528465 218.816816 
L 446.393179 220.134981 
L 444.515358 221.561512 
L 443.162515 222.833348 
L 442.198534 223.967168 
L 441.541874 224.982495 
L 441.136843 225.939549 
L 441.026235 226.472473 
L 441.03613 227.089996 
L 441.32362 227.822263 
L 441.565693 228.119716 
L 442.415354 228.72091 
L 442.765343 228.882585 
L 444.478666 229.390332 
L 446.300338 229.684288 
L 449.246238 229.931822 
L 453.818794 230.05578 
L 460.193514 229.96954 
L 467.81457 229.633082 
L 476.882764 228.996822 
L 503.851271 226.883743 
L 514.238419 226.435494 
L 525.912794 226.16206 
L 543.121044 225.982431 
L 543.121044 225.982431 
" style="fill:none;stroke:#000000;stroke-linecap:square;stroke-opacity:0.7;stroke-width:1.2;"/>
   </g>
   <g id="line2d_17">
    <path clip-path="url(#p6af02f6aa1)" d="M 543.418757 186.995697 
L 532.769932 185.809402 
L 509.834495 183.222636 
L 499.918273 182.368204 
L 490.003773 181.759735 
L 478.198054 181.254058 
L 469.727436 181.076551 
L 463.119201 181.183285 
L 458.724017 181.454904 
L 454.234004 181.965724 
L 450.175063 182.693673 
L 446.981884 183.503066 
L 443.74696 184.638313 
L 441.600293 185.711998 
L 440.27088 186.737011 
L 439.803797 187.430341 
L 439.723524 187.814431 
L 439.864714 188.339717 
L 440.225388 188.754301 
L 440.845678 189.161452 
L 441.823947 189.580615 
L 444.130948 190.211815 
L 447.87992 190.854811 
L 452.66352 191.388504 
L 458.132779 191.77492 
L 464.530491 191.995671 
L 470.131868 191.99568 
L 475.756022 191.806583 
L 482.412235 191.332448 
L 488.75136 190.663647 
L 509.610643 188.257853 
L 517.04534 187.736041 
L 524.99228 187.44307 
L 532.837324 187.390934 
L 542.753483 187.579241 
L 543.481515 187.59992 
L 543.481515 187.59992 
" style="fill:none;stroke:#000000;stroke-linecap:square;stroke-opacity:0.7;stroke-width:1.2;"/>
   </g>
   <g id="line2d_18">
    <path clip-path="url(#p6af02f6aa1)" d="M 543.359867 147.144856 
L 535.193026 146.694776 
L 521.135436 145.680012 
L 498.986217 144.03826 
L 488.649508 143.521284 
L 478.563062 143.241371 
L 470.44856 143.196223 
L 463.645043 143.356478 
L 457.731428 143.725528 
L 453.493924 144.173865 
L 449.348613 144.815299 
L 446.509278 145.416083 
L 443.494665 146.286722 
L 441.668689 147.049094 
L 440.698346 147.67065 
L 440.268758 148.216972 
L 440.284986 148.672965 
L 440.59262 149.016012 
L 441.024562 149.264377 
L 442.278033 149.674558 
L 444.688288 150.097005 
L 448.525249 150.457143 
L 454.066902 150.711887 
L 461.155874 150.800981 
L 468.878844 150.678109 
L 477.143685 150.303429 
L 485.478163 149.683277 
L 506.877132 147.910855 
L 514.606457 147.570522 
L 522.050524 147.441802 
L 532.221583 147.51711 
L 543.406793 147.778703 
L 543.406793 147.778703 
" style="fill:none;stroke:#000000;stroke-linecap:square;stroke-opacity:0.7;stroke-width:1.2;"/>
   </g>
   <g id="line2d_19">
    <path clip-path="url(#p6af02f6aa1)" d="M 543.396512 106.960438 
L 531.476965 104.692892 
L 520.942565 102.890681 
L 511.877731 101.549147 
L 504.44517 100.654395 
L 497.244298 100.019606 
L 490.796223 99.668616 
L 483.517066 99.499121 
L 475.151669 99.538724 
L 467.091277 99.80668 
L 461.412475 100.205268 
L 456.873173 100.737578 
L 453.691928 101.280336 
L 450.018244 102.150342 
L 447.609071 102.906115 
L 445.079874 103.906283 
L 442.491013 105.229943 
L 440.543913 106.552436 
L 439.244913 107.817298 
L 438.748811 108.709043 
L 438.728031 109.346415 
L 438.994161 109.794913 
L 439.671599 110.238873 
L 440.938503 110.621723 
L 442.682006 110.880835 
L 444.810385 111.042529 
L 450.331093 111.194939 
L 469.101521 111.496561 
L 476.012753 111.883762 
L 482.845653 112.508183 
L 499.504603 114.231353 
L 504.414623 114.440044 
L 509.454869 114.409361 
L 513.456032 114.198947 
L 518.305159 113.726182 
L 523.481378 112.97129 
L 528.59889 111.989058 
L 534.129676 110.68375 
L 538.98779 109.340621 
L 543.493943 107.934788 
L 543.493943 107.934788 
" style="fill:none;stroke:#000000;stroke-linecap:square;stroke-opacity:0.7;stroke-width:1.2;"/>
   </g>
   <g id="line2d_20">
    <path clip-path="url(#p6af02f6aa1)" d="M 543.379462 67.729685 
L 537.342115 65.992939 
L 529.568345 63.964484 
L 521.463752 62.069406 
L 513.143906 60.359566 
L 505.295408 58.994106 
L 498.928747 58.096493 
L 492.24065 57.384922 
L 485.55655 56.919405 
L 478.654863 56.701137 
L 472.623693 56.762172 
L 468.24195 56.995427 
L 463.872609 57.433328 
L 460.364106 57.969538 
L 457.06467 58.655309 
L 453.264249 59.705406 
L 450.163652 60.808379 
L 447.773508 61.840321 
L 444.814551 63.39276 
L 442.354159 65.005325 
L 440.46266 66.595498 
L 439.402799 67.830282 
L 438.979647 68.661132 
L 438.911962 69.136998 
L 439.031136 69.537779 
L 439.388116 69.881182 
L 439.943847 70.106947 
L 441.020847 70.263301 
L 442.396662 70.265863 
L 445.029959 70.037236 
L 449.902326 69.329162 
L 465.537877 66.870795 
L 470.348001 66.374123 
L 473.833453 66.177256 
L 478.361838 66.18283 
L 481.910224 66.407072 
L 486.623957 66.953204 
L 506.707504 69.695543 
L 512.77487 70.108173 
L 518.197197 70.25732 
L 523.730601 70.204625 
L 530.149325 69.902082 
L 536.312546 69.385557 
L 542.690888 68.632011 
L 543.407069 68.533987 
L 543.407069 68.533987 
" style="fill:none;stroke:#000000;stroke-linecap:square;stroke-opacity:0.7;stroke-width:1.2;"/>
   </g>
   <g id="line2d_21">
    <path clip-path="url(#p6af02f6aa1)" d="M 675.439468 226.885517 
L 662.388801 224.586493 
L 646.884424 221.925891 
L 638.11405 220.653305 
L 631.163663 219.882737 
L 624.895023 219.435411 
L 618.851905 219.244634 
L 611.783752 219.280108 
L 604.363303 219.543495 
L 597.518263 219.971116 
L 591.295696 220.568028 
L 586.328233 221.272159 
L 582.866213 221.949032 
L 579.438772 222.850883 
L 576.948342 223.733664 
L 575.005199 224.655696 
L 573.630719 225.564833 
L 572.788737 226.452835 
L 572.538611 227.134821 
L 572.644146 227.596291 
L 572.896144 227.900853 
L 573.398753 228.217483 
L 574.534292 228.581902 
L 576.523089 228.869132 
L 580.11359 229.027898 
L 585.587275 228.971649 
L 612.412441 228.338368 
L 625.344541 228.57697 
L 637.224114 228.711624 
L 647.850852 228.62314 
L 660.701055 228.292941 
L 675.490909 227.729671 
L 675.490909 227.729671 
" style="fill:none;stroke:#000000;stroke-linecap:square;stroke-opacity:0.7;stroke-width:1.2;"/>
   </g>
   <g id="line2d_22">
    <path clip-path="url(#p6af02f6aa1)" d="M 675.390049 187.860776 
L 664.526002 185.523836 
L 651.398315 182.763076 
L 643.0095 181.215618 
L 636.420607 180.202191 
L 630.68542 179.51319 
L 624.432154 178.996609 
L 618.376582 178.718631 
L 610.290887 178.612865 
L 603.291057 178.715087 
L 595.983511 179.048125 
L 591.382035 179.447401 
L 587.26626 180.00659 
L 583.774786 180.700592 
L 580.564747 181.588634 
L 577.70929 182.65738 
L 575.530904 183.725685 
L 574.236691 184.517973 
L 572.620329 185.826074 
L 572.136049 186.382449 
L 571.693461 187.195524 
L 571.630407 187.790036 
L 571.748331 188.168054 
L 571.96752 188.478547 
L 572.780755 189.052635 
L 573.595739 189.383791 
L 575.286577 189.823566 
L 577.975462 190.250372 
L 582.592819 190.679164 
L 589.121783 190.996106 
L 596.319616 191.117739 
L 604.378843 191.019543 
L 612.178598 190.682366 
L 620.226455 190.107003 
L 639.135655 188.637116 
L 647.335945 188.277686 
L 655.627015 188.147053 
L 664.149152 188.237459 
L 674.592194 188.59791 
L 675.428867 188.634285 
L 675.428867 188.634285 
" style="fill:none;stroke:#000000;stroke-linecap:square;stroke-opacity:0.7;stroke-width:1.2;"/>
   </g>
   <g id="line2d_23">
    <path clip-path="url(#p6af02f6aa1)" d="M 674.876612 146.440736 
L 668.014091 144.527022 
L 659.450857 142.361384 
L 651.358617 140.525399 
L 643.355928 138.932937 
L 635.857224 137.681518 
L 629.332214 136.82192 
L 622.777191 136.205276 
L 616.682223 135.867178 
L 610.300157 135.76657 
L 604.949832 135.904713 
L 600.636289 136.190676 
L 596.343639 136.660997 
L 592.652902 137.24273 
L 588.231614 138.204622 
L 584.858659 139.181776 
L 581.45766 140.448967 
L 579.152015 141.526348 
L 576.858873 142.853794 
L 574.736263 144.462394 
L 573.531932 145.712574 
L 572.823254 146.764754 
L 572.394075 147.985115 
L 572.364474 148.555614 
L 572.463907 149.118613 
L 572.849296 149.888799 
L 573.171688 150.273621 
L 573.910141 150.890423 
L 575.517898 151.751642 
L 577.363001 152.416019 
L 580.61769 153.228745 
L 583.776661 153.786213 
L 588.04806 154.316775 
L 592.659742 154.667463 
L 597.004339 154.804845 
L 601.235891 154.754449 
L 605.512038 154.508103 
L 609.992873 154.03416 
L 615.04063 153.259344 
L 621.970355 151.920709 
L 633.401535 149.669534 
L 639.816868 148.64472 
L 646.14841 147.87392 
L 651.142139 147.438975 
L 658.221194 147.0712 
L 665.176247 146.969804 
L 672.237768 147.099454 
L 674.898511 147.201162 
L 674.898511 147.201162 
" style="fill:none;stroke:#000000;stroke-linecap:square;stroke-opacity:0.7;stroke-width:1.2;"/>
   </g>
   <g id="line2d_24">
    <path clip-path="url(#p6af02f6aa1)" d="M 675.214863 108.722486 
L 667.591208 107.836781 
L 633.973605 103.708075 
L 625.94087 102.964085 
L 617.539592 102.413004 
L 609.589282 102.138597 
L 602.445636 102.108379 
L 595.218302 102.328219 
L 589.242741 102.767837 
L 584.78677 103.307438 
L 581.136496 103.93364 
L 577.506505 104.784593 
L 575.550827 105.376461 
L 573.542995 106.132672 
L 571.623083 107.107052 
L 571.086524 107.469172 
L 570.21095 108.331279 
L 570.072642 108.585832 
L 570.013388 109.178479 
L 570.347705 109.688333 
L 570.936702 110.066316 
L 572.298302 110.523019 
L 574.316931 110.877334 
L 578.161091 111.190073 
L 582.558859 111.312808 
L 591.535903 111.282428 
L 606.558689 111.208978 
L 616.321803 111.439628 
L 628.555994 111.699327 
L 636.908692 111.645801 
L 646.349276 111.353218 
L 656.818199 110.813792 
L 671.740628 109.790972 
L 675.255333 109.512511 
L 675.255333 109.512511 
" style="fill:none;stroke:#000000;stroke-linecap:square;stroke-opacity:0.7;stroke-width:1.2;"/>
   </g>
   <g id="line2d_25">
    <path clip-path="url(#p6af02f6aa1)" d="M 674.163929 67.735617 
L 665.105457 67.02239 
L 635.44285 64.578701 
L 627.289084 64.177737 
L 618.634993 63.987755 
L 608.026148 63.982502 
L 598.205232 64.1889 
L 591.185316 64.570415 
L 585.331797 65.125557 
L 580.698025 65.778169 
L 576.930587 66.504798 
L 573.959308 67.270995 
L 571.590524 68.123815 
L 570.556934 68.682737 
L 570.04961 69.164097 
L 569.958508 69.439799 
L 570.101361 69.770605 
L 570.543954 70.066027 
L 571.329712 70.336828 
L 573.061294 70.663414 
L 576.277026 70.975704 
L 581.820233 71.228122 
L 591.441932 71.399202 
L 605.967902 71.654798 
L 613.815006 72.031611 
L 632.531421 73.14279 
L 638.105672 73.176068 
L 643.609076 72.991386 
L 649.241388 72.574742 
L 654.424785 71.996562 
L 660.366622 71.119655 
L 666.51894 69.984468 
L 672.950777 68.545971 
L 674.212123 68.229159 
L 674.212123 68.229159 
" style="fill:none;stroke:#000000;stroke-linecap:square;stroke-opacity:0.7;stroke-width:1.2;"/>
   </g>
  </g>
 </g>
 <defs>
  <clipPath id="p6af02f6aa1">
   <rect height="262.08" width="694.08" x="12.96" y="12.96"/>
  </clipPath>
 </defs>
</svg>
