<?xml version="1.0" encoding="utf-8" standalone="no"?>
<!DOCTYPE svg PUBLIC "-//W3C//DTD SVG 1.1//EN"
  "http://www.w3.org/Graphics/SVG/1.1/DTD/svg11.dtd">
<!-- Created with matplotlib (https://matplotlib.org/) -->
<svg height="288pt" version="1.1" viewBox="0 0 720 288" width="720pt" xmlns="http://www.w3.org/2000/svg" xmlns:xlink="http://www.w3.org/1999/xlink">
 <metadata>
  <rdf:RDF xmlns:cc="http://creativecommons.org/ns#" xmlns:dc="http://purl.org/dc/elements/1.1/" xmlns:rdf="http://www.w3.org/1999/02/22-rdf-syntax-ns#">
   <cc:Work>
    <dc:type rdf:resource="http://purl.org/dc/dcmitype/StillImage"/>
    <dc:date>2020-12-22T16:38:12.877364</dc:date>
    <dc:format>image/svg+xml</dc:format>
    <dc:creator>
     <cc:Agent>
      <dc:title>Matplotlib v3.3.2, https://matplotlib.org/</dc:title>
     </cc:Agent>
    </dc:creator>
   </cc:Work>
  </rdf:RDF>
 </metadata>
 <defs>
  <style type="text/css">*{stroke-linecap:butt;stroke-linejoin:round;}</style>
 </defs>
 <g id="figure_1">
  <g id="patch_1">
   <path d="M 0 288 
L 720 288 
L 720 0 
L 0 0 
z
" style="fill:#ffffff;"/>
  </g>
  <g id="axes_1">
   <g id="line2d_1">
    <path clip-path="url(#paa9140bba9)" d="M 50.125088 237.192118 
L 50.032808 236.668206 
L 49.544128 235.498925 
L 48.679084 234.169354 
L 47.697088 233.057182 
L 47.103511 232.504524 
L 49.557058 235.038834 
L 49.809561 235.77301 
L 50.104303 237.448342 
L 50.096166 237.874657 
L 50.03173 237.760316 
L 50.009206 237.343416 
L 50.068737 237.147339 
L 50.068737 237.147339 
" style="fill:none;stroke:#000000;stroke-linecap:square;stroke-opacity:0.7;stroke-width:1.2;"/>
   </g>
   <g id="line2d_2">
    <path clip-path="url(#paa9140bba9)" d="M 50.130245 190.531948 
L 50.131255 191.254357 
L 50.057769 194.57912 
L 49.884787 194.560977 
L 49.514612 194.723633 
L 49.039487 195.070658 
L 49.028333 194.959765 
L 49.185999 194.200854 
L 49.766156 192.503587 
L 50.02499 191.58199 
L 49.835147 191.071211 
L 49.780461 190.715317 
L 49.787312 190.712998 
L 50.007928 190.54181 
L 50.046057 190.452894 
L 50.044742 190.453844 
" style="fill:none;stroke:#000000;stroke-linecap:square;stroke-opacity:0.7;stroke-width:1.2;"/>
   </g>
   <g id="line2d_3">
    <path clip-path="url(#paa9140bba9)" d="M 50.082425 143.728335 
L 49.801528 143.938068 
L 47.248485 145.338777 
L 47.053299 145.194514 
L 46.916105 144.794894 
L 46.660897 142.952363 
L 46.396713 141.867643 
L 46.135055 141.614895 
L 45.873783 141.627765 
L 45.57028 141.835222 
L 45.091091 142.490183 
L 44.626815 143.587467 
L 44.524258 144.358043 
L 44.660188 144.490948 
L 45.052909 144.477641 
L 46.179552 144.380048 
L 47.192454 144.522255 
L 48.633984 144.89693 
L 49.193631 144.518427 
L 50.02901 143.668604 
L 50.02901 143.668604 
" style="fill:none;stroke:#000000;stroke-linecap:square;stroke-opacity:0.7;stroke-width:1.2;"/>
   </g>
   <g id="line2d_4">
    <path clip-path="url(#paa9140bba9)" d="M 50.125912 96.934962 
L 50.091395 96.3116 
L 49.77164 95.043187 
L 49.127836 93.449838 
L 48.255368 91.855038 
L 47.753587 91.306798 
L 47.522144 91.332475 
L 47.375022 91.514627 
L 47.082176 92.37716 
L 46.767556 94.215459 
L 46.411181 97.120253 
L 46.339218 96.841353 
L 46.326622 95.894465 
L 46.494603 95.583761 
L 47.159869 95.273198 
L 47.718475 95.17888 
L 48.587614 95.312031 
L 49.223697 95.661198 
L 49.730018 96.209464 
L 50.059872 96.877541 
L 50.063 96.88608 
L 50.063 96.88608 
" style="fill:none;stroke:#000000;stroke-linecap:square;stroke-opacity:0.7;stroke-width:1.2;"/>
   </g>
   <g id="line2d_5">
    <path clip-path="url(#paa9140bba9)" d="M 50.138545 50.245832 
L 50.186907 50.71903 
L 50.134547 52.493682 
L 49.762076 57.591466 
L 49.734499 57.421441 
L 49.78139 55.931817 
L 50.106324 53.163615 
L 50.645542 50.466022 
L 51.159109 48.913828 
L 51.209685 48.88725 
L 51.236578 48.987039 
L 51.241817 50.094921 
L 51.102639 52.359978 
L 50.91044 52.571392 
L 50.485505 52.635844 
L 49.626183 52.797666 
L 49.486411 52.882417 
L 49.546774 52.715482 
L 49.862025 51.462381 
L 50.06442 50.197262 
L 50.06442 50.197262 
" style="fill:none;stroke:#000000;stroke-linecap:square;stroke-opacity:0.7;stroke-width:1.2;"/>
   </g>
   <g id="line2d_6">
    <path clip-path="url(#paa9140bba9)" d="M 205.956811 237.253077 
L 205.808374 237.387993 
L 203.948931 238.427602 
L 203.868801 238.052453 
L 203.879814 237.791204 
L 203.760247 237.818407 
L 203.467066 237.311232 
L 203.411028 236.895858 
L 203.739247 236.467023 
L 204.497914 235.800492 
L 205.460753 235.287653 
L 206.298072 235.09021 
L 206.922384 235.166051 
L 207.065924 235.369697 
L 206.968301 235.663681 
L 206.26753 236.687415 
L 205.894338 237.197337 
L 205.894338 237.197337 
" style="fill:none;stroke:#000000;stroke-linecap:square;stroke-opacity:0.7;stroke-width:1.2;"/>
   </g>
   <g id="line2d_7">
    <path clip-path="url(#paa9140bba9)" d="M 205.975411 190.454096 
L 205.930691 190.195553 
L 205.470666 189.24888 
L 204.259835 187.443132 
L 204.093735 187.355417 
L 204.072155 187.387107 
L 203.98981 187.80036 
L 203.729891 189.400505 
L 203.532914 189.381299 
L 203.017854 189.277455 
L 202.663611 189.390598 
L 202.215484 189.790285 
L 201.979463 190.304142 
L 202.095575 190.436669 
L 203.702478 191.015186 
L 204.887262 191.696377 
L 205.232015 191.366829 
L 205.904719 190.394343 
L 205.904719 190.394343 
" style="fill:none;stroke:#000000;stroke-linecap:square;stroke-opacity:0.7;stroke-width:1.2;"/>
   </g>
   <g id="line2d_8">
    <path clip-path="url(#paa9140bba9)" d="M 205.973472 143.706623 
L 205.817938 143.587274 
L 203.432742 141.454091 
L 203.450896 141.267973 
L 203.490668 141.270694 
L 203.68543 141.444495 
L 203.938 141.908822 
L 203.908402 141.911153 
L 203.609113 141.958119 
L 203.254075 142.260168 
L 202.743132 143.044581 
L 202.192744 144.342516 
L 202.101483 144.85384 
L 202.316354 144.821183 
L 203.115484 144.627581 
L 203.733926 144.67704 
L 204.384991 144.966994 
L 204.710282 145.019701 
L 205.024158 144.790747 
L 205.752782 143.865085 
L 205.899049 143.647266 
L 205.899049 143.647266 
" style="fill:none;stroke:#000000;stroke-linecap:square;stroke-opacity:0.7;stroke-width:1.2;"/>
   </g>
   <g id="line2d_9">
    <path clip-path="url(#paa9140bba9)" d="M 205.961069 97.011442 
L 205.941161 97.619664 
L 205.827695 99.603005 
L 205.817135 100.833227 
L 205.273681 102.531667 
L 204.835853 103.439285 
L 204.676574 103.406585 
L 204.460417 102.946759 
L 204.04052 101.451169 
L 203.304614 98.013269 
L 203.191267 96.721436 
L 203.323385 96.69303 
L 203.608927 96.964906 
L 204.268091 97.96233 
L 204.812727 98.714334 
L 205.000014 98.662129 
L 205.268695 98.298643 
L 205.871182 97.014902 
L 205.889076 96.95068 
L 205.889076 96.95068 
" style="fill:none;stroke:#000000;stroke-linecap:square;stroke-opacity:0.7;stroke-width:1.2;"/>
   </g>
   <g id="line2d_10">
    <path clip-path="url(#paa9140bba9)" d="M 205.964688 50.179916 
L 205.873434 49.594062 
L 205.392862 48.375046 
L 204.59359 47.054851 
L 203.643407 45.922373 
L 203.463321 45.796573 
L 203.538799 45.974296 
L 204.238634 46.941348 
L 205.164124 47.892574 
L 205.537918 48.287344 
L 205.4524 48.934899 
L 204.986445 50.644787 
L 204.869977 51.152647 
L 205.076518 51.929524 
L 205.18583 51.917418 
L 205.193729 51.908634 
L 205.395433 51.524561 
L 205.920882 50.136733 
L 205.920882 50.136733 
" style="fill:none;stroke:#000000;stroke-linecap:square;stroke-opacity:0.7;stroke-width:1.2;"/>
   </g>
   <g id="line2d_11">
    <path clip-path="url(#paa9140bba9)" d="M 361.818794 237.189959 
L 361.765669 236.637554 
L 361.306833 235.399155 
L 360.528451 234.098719 
L 360.065476 233.63961 
L 359.9978 233.839778 
L 360.014996 234.618863 
L 360.267878 236.283256 
L 360.631989 236.867918 
L 360.795972 237.363703 
L 360.843977 237.216787 
L 361.050652 236.840925 
L 361.25865 236.846108 
L 361.749127 237.128062 
L 361.74993 237.126041 
" style="fill:none;stroke:#000000;stroke-linecap:square;stroke-opacity:0.7;stroke-width:1.2;"/>
   </g>
   <g id="line2d_12">
    <path clip-path="url(#paa9140bba9)" d="M 361.821514 190.504817 
L 361.775991 190.665962 
L 361.340742 191.329802 
L 361.291406 191.936235 
L 360.974134 193.949473 
L 360.95916 193.934904 
L 360.917248 193.596204 
L 360.957755 192.298191 
L 361.018557 190.596898 
L 360.858067 190.257054 
L 361.157564 190.667768 
L 361.392641 190.68027 
L 361.748035 190.442888 
L 361.746853 190.440202 
" style="fill:none;stroke:#000000;stroke-linecap:square;stroke-opacity:0.7;stroke-width:1.2;"/>
   </g>
   <g id="line2d_13">
    <path clip-path="url(#paa9140bba9)" d="M 361.797185 143.760725 
L 361.677216 144.799538 
L 361.022704 149.165598 
L 361.197202 147.175073 
L 361.410921 145.134547 
L 361.656476 145.055748 
L 362.534889 145.025501 
L 362.501308 144.940453 
L 362.161615 144.630871 
L 361.703693 144.488815 
L 361.519869 144.416206 
L 361.52299 144.377097 
L 361.723386 143.75365 
L 361.750777 143.706982 
L 361.750777 143.706982 
" style="fill:none;stroke:#000000;stroke-linecap:square;stroke-opacity:0.7;stroke-width:1.2;"/>
   </g>
   <g id="line2d_14">
    <path clip-path="url(#paa9140bba9)" d="M 361.77773 97.021535 
L 361.59774 97.319444 
L 360.673373 98.675734 
L 360.387237 99.438916 
L 359.778047 100.911874 
L 359.088451 102.160527 
L 358.989112 102.162885 
L 358.965756 102.117644 
L 358.926921 101.701197 
L 359.043961 100.309157 
L 359.430752 98.216844 
L 359.618827 97.800165 
L 359.627752 97.807548 
L 359.72076 98.170324 
L 360.560568 103.203588 
L 360.603372 103.18079 
L 360.749936 102.848177 
L 361.06194 101.499023 
L 361.620754 98.041448 
L 361.739237 96.988045 
L 361.739237 96.988045 
" style="fill:none;stroke:#000000;stroke-linecap:square;stroke-opacity:0.7;stroke-width:1.2;"/>
   </g>
   <g id="line2d_15">
    <path clip-path="url(#paa9140bba9)" d="M 361.830588 50.203766 
L 361.709155 49.778021 
L 361.167484 48.75102 
L 360.343698 47.647942 
L 360.173049 47.68601 
L 360.004979 48.147812 
L 359.744629 49.788894 
L 359.466214 51.348741 
L 359.436875 51.331085 
L 359.347159 51.018002 
L 359.309439 50.134033 
L 359.474195 49.656321 
L 359.905186 49.094764 
L 360.566119 48.516753 
L 361.557404 47.952963 
L 362.395629 47.741304 
L 362.710569 47.861729 
L 362.738502 48.121818 
L 362.536947 48.719639 
L 361.820994 50.095258 
L 361.780264 50.141287 
L 361.780264 50.141287 
" style="fill:none;stroke:#000000;stroke-linecap:square;stroke-opacity:0.7;stroke-width:1.2;"/>
   </g>
   <g id="line2d_16">
    <path clip-path="url(#paa9140bba9)" d="M 517.703822 237.166337 
L 517.693871 236.347165 
L 517.583028 235.779254 
L 517.12018 234.551328 
L 516.38813 233.457752 
L 515.872313 233.015879 
L 515.878547 233.049676 
L 516.165456 233.440833 
L 517.31165 234.639779 
L 518.219788 235.318949 
L 518.826415 235.755968 
L 518.997546 236.312203 
L 519.117849 237.580292 
L 519.197028 238.761107 
L 519.261434 238.651439 
L 519.677028 237.073754 
L 520.010418 235.281523 
L 519.878322 235.050106 
L 519.628829 235.105353 
L 519.110678 235.513126 
L 518.202867 236.552743 
L 517.721827 237.15004 
L 517.721827 237.15004 
" style="fill:none;stroke:#000000;stroke-linecap:square;stroke-opacity:0.7;stroke-width:1.2;"/>
   </g>
   <g id="line2d_17">
    <path clip-path="url(#paa9140bba9)" d="M 517.640694 190.496852 
L 517.455042 190.800866 
L 515.681228 193.071224 
L 515.655085 193.040308 
L 515.641159 192.651105 
L 515.890571 191.684878 
L 516.446784 190.421944 
L 517.212199 189.215919 
L 517.825083 188.622459 
L 517.941388 188.692248 
L 518.003965 189.135525 
L 517.980855 191.239605 
L 517.84618 191.564724 
L 517.650154 191.400107 
L 517.237346 190.773668 
L 517.609498 190.445174 
L 517.609498 190.445174 
" style="fill:none;stroke:#000000;stroke-linecap:square;stroke-opacity:0.7;stroke-width:1.2;"/>
   </g>
   <g id="line2d_18">
    <path clip-path="url(#paa9140bba9)" d="M 517.650243 143.688323 
L 517.512514 143.167903 
L 516.851804 141.863479 
L 515.855882 140.425148 
L 515.589892 140.281114 
L 515.457313 140.465852 
L 515.279188 141.230131 
L 515.007513 143.661779 
L 514.797442 145.294322 
L 514.760978 145.210778 
L 514.719066 144.418158 
L 514.861001 143.329607 
L 515.173205 142.708079 
L 515.709385 142.113063 
L 516.662444 141.398083 
L 517.896667 140.795919 
L 518.823227 140.541862 
L 519.618678 140.530903 
L 519.845878 140.714541 
L 519.791319 140.957008 
L 519.371021 141.564444 
L 517.612902 143.657631 
L 517.612902 143.657631 
" style="fill:none;stroke:#000000;stroke-linecap:square;stroke-opacity:0.7;stroke-width:1.2;"/>
   </g>
   <g id="line2d_19">
    <path clip-path="url(#paa9140bba9)" d="M 517.640954 96.912602 
L 517.591121 96.191068 
L 517.319698 95.169063 
L 516.68302 93.725277 
L 515.73526 92.18296 
L 514.688933 90.882657 
L 513.880551 90.175598 
L 513.744851 90.201539 
L 513.736981 90.226643 
L 513.807302 90.608349 
L 514.408838 91.890992 
L 515.198635 93.502313 
L 514.567738 95.499429 
L 514.184447 97.296215 
L 514.229703 98.013979 
L 514.535807 98.527544 
L 516.073102 100.411157 
L 516.255083 100.323398 
L 516.523756 99.868845 
L 517.174747 98.188606 
L 517.598099 96.860465 
L 517.598099 96.860465 
" style="fill:none;stroke:#000000;stroke-linecap:square;stroke-opacity:0.7;stroke-width:1.2;"/>
   </g>
   <g id="line2d_20">
    <path clip-path="url(#paa9140bba9)" d="M 517.665826 50.209436 
L 517.680176 49.520353 
L 517.332235 47.630035 
L 516.8994 46.294185 
L 516.891761 46.297618 
L 516.838502 46.516168 
L 516.794785 47.956591 
L 516.90053 51.369948 
L 517.059445 51.71131 
L 517.272607 51.532006 
L 517.74097 51.203115 
L 517.914873 51.22896 
L 517.704416 51.32273 
L 517.390198 51.566648 
L 516.958604 52.191902 
L 516.877174 52.339208 
L 517.003867 51.87809 
L 517.602453 50.150293 
L 517.602453 50.150293 
" style="fill:none;stroke:#000000;stroke-linecap:square;stroke-opacity:0.7;stroke-width:1.2;"/>
   </g>
   <g id="line2d_21">
    <path clip-path="url(#paa9140bba9)" d="M 673.449426 237.267459 
L 673.321729 238.163549 
L 672.574394 242.205279 
L 672.48493 242.021064 
L 672.087074 241.537459 
L 671.491223 241.17205 
L 670.323419 240.635344 
L 670.102952 240.053211 
L 669.877632 238.683799 
L 669.862785 237.346131 
L 669.922791 237.281684 
L 669.980212 237.34908 
L 670.216388 237.918276 
L 671.821381 242.207152 
L 672.002478 242.049784 
L 672.300066 241.431118 
L 672.910698 239.527583 
L 673.420697 237.244995 
L 673.420697 237.244995 
" style="fill:none;stroke:#000000;stroke-linecap:square;stroke-opacity:0.7;stroke-width:1.2;"/>
   </g>
   <g id="line2d_22">
    <path clip-path="url(#paa9140bba9)" d="M 673.478808 190.493866 
L 673.423885 191.13952 
L 672.966922 194.695956 
L 672.903073 193.91 
L 672.591203 192.909674 
L 672.133162 192.187253 
L 671.573768 191.255462 
L 671.387105 190.627368 
L 671.569101 190.303782 
L 671.925952 190.084744 
L 672.344407 190.072409 
L 672.900235 190.300177 
L 673.328573 190.412848 
L 673.442656 190.451538 
L 673.442656 190.451538 
" style="fill:none;stroke:#000000;stroke-linecap:square;stroke-opacity:0.7;stroke-width:1.2;"/>
   </g>
   <g id="line2d_23">
    <path clip-path="url(#paa9140bba9)" d="M 673.50348 143.752505 
L 673.50666 144.408119 
L 673.427177 146.607396 
L 673.466948 146.484455 
L 673.836633 144.960395 
L 674.116608 144.929645 
L 675.158373 145.119984 
L 675.490909 145.135474 
L 675.452141 145.068144 
L 675.001249 144.757898 
L 673.621457 144.122378 
L 673.313458 143.871679 
L 673.451254 143.724531 
L 673.470798 143.705531 
L 673.470798 143.705531 
" style="fill:none;stroke:#000000;stroke-linecap:square;stroke-opacity:0.7;stroke-width:1.2;"/>
   </g>
   <g id="line2d_24">
    <path clip-path="url(#paa9140bba9)" d="M 673.487964 96.993708 
L 673.589651 98.183505 
L 673.660678 105.094578 
L 673.583052 104.51075 
L 673.269458 103.865828 
L 672.844003 103.451302 
L 672.248144 102.98786 
L 672.031556 102.337792 
L 671.705039 100.667978 
L 671.399017 97.980243 
L 671.449163 96.930458 
L 671.671882 96.592957 
L 672.017296 96.512766 
L 672.502356 96.686477 
L 673.342871 97.064083 
L 673.437625 96.958795 
L 673.437625 96.958795 
" style="fill:none;stroke:#000000;stroke-linecap:square;stroke-opacity:0.7;stroke-width:1.2;"/>
   </g>
   <g id="line2d_25">
    <path clip-path="url(#paa9140bba9)" d="M 673.505159 50.261824 
L 673.517019 51.226072 
L 673.511282 54.825073 
L 673.708304 55.438323 
L 673.767337 55.94525 
L 673.613505 57.270871 
L 673.497854 57.550445 
L 673.461301 57.480441 
L 673.35511 56.773924 
L 673.168439 53.43915 
L 673.052692 50.12743 
L 673.210775 50.236015 
L 673.371978 50.225463 
L 673.458536 50.195123 
L 673.458536 50.195123 
" style="fill:none;stroke:#000000;stroke-linecap:square;stroke-opacity:0.7;stroke-width:1.2;"/>
   </g>
  </g>
 </g>
 <defs>
  <clipPath id="paa9140bba9">
   <rect height="262.08" width="694.08" x="12.96" y="12.96"/>
  </clipPath>
 </defs>
</svg>
