<?xml version="1.0" encoding="utf-8" standalone="no"?>
<!DOCTYPE svg PUBLIC "-//W3C//DTD SVG 1.1//EN"
  "http://www.w3.org/Graphics/SVG/1.1/DTD/svg11.dtd">
<!-- Created with matplotlib (https://matplotlib.org/) -->
<svg height="288pt" version="1.1" viewBox="0 0 720 288" width="720pt" xmlns="http://www.w3.org/2000/svg" xmlns:xlink="http://www.w3.org/1999/xlink">
 <metadata>
  <rdf:RDF xmlns:cc="http://creativecommons.org/ns#" xmlns:dc="http://purl.org/dc/elements/1.1/" xmlns:rdf="http://www.w3.org/1999/02/22-rdf-syntax-ns#">
   <cc:Work>
    <dc:type rdf:resource="http://purl.org/dc/dcmitype/StillImage"/>
    <dc:date>2020-12-22T17:30:13.433801</dc:date>
    <dc:format>image/svg+xml</dc:format>
    <dc:creator>
     <cc:Agent>
      <dc:title>Matplotlib v3.3.2, https://matplotlib.org/</dc:title>
     </cc:Agent>
    </dc:creator>
   </cc:Work>
  </rdf:RDF>
 </metadata>
 <defs>
  <style type="text/css">*{stroke-linecap:butt;stroke-linejoin:round;}</style>
 </defs>
 <g id="figure_1">
  <g id="patch_1">
   <path d="M 0 288 
L 720 288 
L 720 0 
L 0 0 
z
" style="fill:#ffffff;"/>
  </g>
  <g id="axes_1">
   <g id="line2d_1">
    <path clip-path="url(#p9f7b093f56)" d="M 47.050838 237.034315 
L 46.507087 236.889922 
L 44.509419 236.397919 
L 44.601191 236.364973 
L 47.936582 235.570816 
L 49.429164 234.979572 
L 49.800848 234.63641 
L 49.714877 234.549988 
L 49.420167 234.612308 
L 48.761806 235.00026 
L 47.797424 235.835702 
L 46.775711 237.032221 
L 46.439916 237.727878 
L 46.048148 239.165029 
L 46.084993 239.1507 
L 46.26705 238.920637 
L 46.663274 238.049796 
L 46.98077 236.975537 
L 46.98077 236.975537 
" style="fill:none;stroke:#000000;stroke-linecap:square;stroke-opacity:0.7;stroke-width:1.2;"/>
   </g>
   <g id="line2d_2">
    <path clip-path="url(#p9f7b093f56)" d="M 47.075252 190.022159 
L 47.564681 188.745786 
L 47.685764 187.628655 
L 47.56047 187.194279 
L 47.410024 187.343408 
L 46.971296 188.215451 
L 46.001359 190.65736 
L 45.92281 191.275638 
L 46.038502 191.221721 
L 46.272432 190.777786 
L 46.557273 190.492621 
L 46.917392 190.440872 
L 47.540484 190.384708 
L 47.539252 190.372596 
L 47.399609 190.235003 
L 47.040401 190.017449 
L 47.040401 190.017449 
" style="fill:none;stroke:#000000;stroke-linecap:square;stroke-opacity:0.7;stroke-width:1.2;"/>
   </g>
   <g id="line2d_3">
    <path clip-path="url(#p9f7b093f56)" d="M 47.068697 143.106841 
L 46.897548 143.358329 
L 46.276785 144.094713 
L 46.205291 145.73286 
L 45.777971 146.710061 
L 45.348844 147.652742 
L 45.376946 147.655418 
L 45.581132 147.508793 
L 46.037883 146.878416 
L 46.730975 145.523403 
L 47.31125 143.904156 
L 47.298013 143.479602 
L 47.198059 143.589747 
L 47.208093 143.784397 
L 47.203143 143.381462 
L 47.030225 143.074702 
L 47.030225 143.074702 
" style="fill:none;stroke:#000000;stroke-linecap:square;stroke-opacity:0.7;stroke-width:1.2;"/>
   </g>
   <g id="line2d_4">
    <path clip-path="url(#p9f7b093f56)" d="M 47.093611 96.078191 
L 47.771585 94.974339 
L 48.191312 93.936632 
L 48.51994 92.456377 
L 48.511877 91.537107 
L 48.365985 91.349012 
L 48.348529 91.356994 
L 48.195418 91.568882 
L 47.956702 92.237837 
L 47.50028 94.390053 
L 47.168315 96.070581 
L 46.942358 97.390881 
L 46.969333 97.567794 
L 47.053197 97.451458 
L 47.198888 97.015238 
L 47.130306 96.374818 
L 47.026462 96.050212 
L 47.026462 96.050212 
" style="fill:none;stroke:#000000;stroke-linecap:square;stroke-opacity:0.7;stroke-width:1.2;"/>
   </g>
   <g id="line2d_5">
    <path clip-path="url(#p9f7b093f56)" d="M 47.10858 49.08662 
L 47.962354 47.819701 
L 49.065117 45.328524 
L 49.132706 44.41506 
L 48.987725 44.241046 
L 48.773617 44.30018 
L 48.346797 44.736528 
L 47.626596 45.854824 
L 46.657294 47.743239 
L 45.802892 49.376485 
L 45.450575 49.710938 
L 45.552231 49.745692 
L 46.414524 49.476414 
L 50.314541 48.261838 
L 54.314393 47.2058 
L 52.719445 47.489483 
L 49.445171 48.277299 
L 47.528113 48.900375 
L 47.116531 49.087809 
L 47.116531 49.087809 
" style="fill:none;stroke:#000000;stroke-linecap:square;stroke-opacity:0.7;stroke-width:1.2;"/>
   </g>
   <g id="line2d_6">
    <path clip-path="url(#p9f7b093f56)" d="M 203.657273 236.717826 
L 203.733455 236.395905 
L 203.596687 235.470224 
L 203.614926 236.178049 
L 203.3895 236.825166 
L 202.878218 237.563707 
L 202.87509 237.684413 
L 202.88104 237.688222 
L 203.218732 237.743672 
L 203.767425 237.614379 
L 204.228551 237.260925 
L 204.937322 236.666894 
L 205.721611 236.347942 
L 206.651202 236.213217 
L 206.651583 236.229063 
L 206.579947 236.266136 
L 205.700527 236.497074 
L 203.632449 236.976691 
L 203.632449 236.976691 
" style="fill:none;stroke:#000000;stroke-linecap:square;stroke-opacity:0.7;stroke-width:1.2;"/>
   </g>
   <g id="line2d_7">
    <path clip-path="url(#p9f7b093f56)" d="M 203.62349 190.084214 
L 203.485691 190.199504 
L 202.864525 190.362161 
L 202.609586 190.528424 
L 202.445224 191.570845 
L 201.96556 192.606628 
L 200.961138 194.417408 
L 201.08838 194.35632 
L 201.479274 193.896401 
L 202.403847 192.385593 
L 203.228863 190.612012 
L 203.337582 189.98364 
L 203.227534 190.034457 
L 202.885415 190.521221 
L 202.429926 191.53074 
L 202.368175 192.104359 
L 202.519666 192.057628 
L 202.821775 191.705904 
L 203.299177 190.785186 
L 203.546942 190.025791 
L 203.546942 190.025791 
" style="fill:none;stroke:#000000;stroke-linecap:square;stroke-opacity:0.7;stroke-width:1.2;"/>
   </g>
   <g id="line2d_8">
    <path clip-path="url(#p9f7b093f56)" d="M 203.653249 143.028227 
L 204.461421 141.891471 
L 205.839984 139.466636 
L 206.334221 138.167243 
L 206.449846 137.288751 
L 206.302633 136.976432 
L 206.033516 136.983011 
L 205.604262 137.301553 
L 204.776991 138.283019 
L 203.574573 140.070015 
L 201.8313 143.123951 
L 201.075016 144.817977 
L 201.095211 144.800716 
L 201.884226 143.858565 
L 202.776845 143.325318 
L 204.263708 142.781871 
L 205.987921 142.437458 
L 207.157489 142.397282 
L 207.153712 142.406788 
L 206.886939 142.477414 
L 203.619921 143.024792 
L 203.619921 143.024792 
" style="fill:none;stroke:#000000;stroke-linecap:square;stroke-opacity:0.7;stroke-width:1.2;"/>
   </g>
   <g id="line2d_9">
    <path clip-path="url(#p9f7b093f56)" d="M 203.61185 96.125683 
L 202.92597 96.258681 
L 200.727633 96.686853 
L 201.931127 96.434364 
L 202.979419 95.859698 
L 203.320903 95.43458 
L 203.305441 95.314801 
L 203.246923 95.321897 
L 203.012866 95.548227 
L 202.684731 96.182693 
L 202.746444 96.45142 
L 202.837648 96.860755 
L 202.957551 97.298417 
L 202.983794 97.29091 
L 203.172607 97.083115 
L 203.46501 96.42372 
L 203.563979 96.084535 
L 203.563979 96.084535 
" style="fill:none;stroke:#000000;stroke-linecap:square;stroke-opacity:0.7;stroke-width:1.2;"/>
   </g>
   <g id="line2d_10">
    <path clip-path="url(#p9f7b093f56)" d="M 203.645417 49.097253 
L 203.618629 48.6723 
L 203.190585 47.465194 
L 202.911553 46.705883 
L 202.964741 46.707956 
L 204.339338 47.10517 
L 204.3515 46.970164 
L 204.335792 46.956505 
L 204.115734 46.941549 
L 203.657213 47.180789 
L 202.952317 47.821624 
L 202.134148 48.891619 
L 201.923191 49.461143 
L 202.023167 49.558071 
L 202.56158 49.543686 
L 204.402157 49.357387 
L 204.230157 49.268654 
L 203.604952 49.088656 
L 203.604952 49.088656 
" style="fill:none;stroke:#000000;stroke-linecap:square;stroke-opacity:0.7;stroke-width:1.2;"/>
   </g>
   <g id="line2d_11">
    <path clip-path="url(#p9f7b093f56)" d="M 360.234367 237.078442 
L 359.950714 238.196727 
L 358.836102 241.342168 
L 358.296696 243.131162 
L 358.339729 243.657268 
L 358.511073 243.753407 
L 358.664819 243.55385 
L 358.829301 242.897298 
L 358.921117 241.322247 
L 359.017285 239.773656 
L 360.006066 237.300139 
L 359.997764 237.122926 
L 359.971454 237.758473 
L 360.037124 237.751487 
L 360.181433 237.596236 
L 360.220473 237.242866 
L 360.151525 237.034688 
L 360.151525 237.034688 
" style="fill:none;stroke:#000000;stroke-linecap:square;stroke-opacity:0.7;stroke-width:1.2;"/>
   </g>
   <g id="line2d_12">
    <path clip-path="url(#p9f7b093f56)" d="M 360.209894 190.09204 
L 359.462546 191.430081 
L 359.132141 192.256993 
L 359.201089 192.741332 
L 359.379853 192.96712 
L 359.4014 192.955754 
L 359.470856 192.718872 
L 359.472132 191.420095 
L 359.342905 190.788957 
L 359.348653 190.789203 
L 359.377166 190.959688 
L 359.52093 191.601922 
L 359.670853 191.528894 
L 359.905186 191.135456 
L 360.116278 190.315904 
L 360.140027 190.040077 
L 360.140027 190.040077 
" style="fill:none;stroke:#000000;stroke-linecap:square;stroke-opacity:0.7;stroke-width:1.2;"/>
   </g>
   <g id="line2d_13">
    <path clip-path="url(#p9f7b093f56)" d="M 360.215642 143.114428 
L 357.847627 146.501504 
L 357.878999 146.906988 
L 358.043914 146.990073 
L 358.310351 146.846901 
L 358.789171 146.192385 
L 359.378293 144.894841 
L 359.993956 143.553927 
L 360.490269 143.082207 
L 360.77599 143.065049 
L 360.879916 143.256432 
L 360.817695 143.348384 
L 360.769174 143.335769 
L 360.155176 143.071695 
L 360.155176 143.071695 
" style="fill:none;stroke:#000000;stroke-linecap:square;stroke-opacity:0.7;stroke-width:1.2;"/>
   </g>
   <g id="line2d_14">
    <path clip-path="url(#p9f7b093f56)" d="M 360.210341 96.108211 
L 360.094522 95.889939 
L 359.541133 95.443668 
L 359.885349 95.573992 
L 360.557097 95.584532 
L 361.322333 95.373382 
L 361.749377 95.050132 
L 361.736393 94.952961 
L 361.713025 94.947865 
L 361.411939 95.065446 
L 360.772041 95.575716 
L 359.832894 96.596203 
L 359.112685 97.686969 
L 358.891245 98.438798 
L 358.667566 99.12118 
L 358.916764 98.703301 
L 359.517861 97.671781 
L 360.111321 96.207124 
L 360.151816 96.053876 
L 360.151816 96.053876 
" style="fill:none;stroke:#000000;stroke-linecap:square;stroke-opacity:0.7;stroke-width:1.2;"/>
   </g>
   <g id="line2d_15">
    <path clip-path="url(#p9f7b093f56)" d="M 360.229432 49.169085 
L 359.732156 50.513356 
L 358.674726 53.253477 
L 358.720821 53.654855 
L 358.942066 53.824972 
L 359.160138 53.696487 
L 359.398772 53.287378 
L 359.697514 52.259098 
L 359.922 50.586447 
L 359.889933 49.625376 
L 359.690444 49.605467 
L 359.634591 49.57612 
L 359.663238 49.508034 
L 359.971484 49.272223 
L 360.474942 49.100824 
L 361.349979 48.973513 
L 360.159088 49.140173 
L 360.159088 49.140173 
" style="fill:none;stroke:#000000;stroke-linecap:square;stroke-opacity:0.7;stroke-width:1.2;"/>
   </g>
   <g id="line2d_16">
    <path clip-path="url(#p9f7b093f56)" d="M 516.774459 237.002547 
L 516.735995 236.550963 
L 516.16724 234.726669 
L 516.125655 234.669228 
L 516.09061 234.732133 
L 514.904676 238.990948 
L 514.62663 240.524243 
L 514.72356 240.780974 
L 514.912597 240.798652 
L 515.277749 240.583323 
L 516.059985 239.761955 
L 517.691358 237.831066 
L 517.86032 237.829498 
L 517.807215 237.737191 
L 517.236481 237.304281 
L 516.719749 236.968415 
L 516.719749 236.968415 
" style="fill:none;stroke:#000000;stroke-linecap:square;stroke-opacity:0.7;stroke-width:1.2;"/>
   </g>
   <g id="line2d_17">
    <path clip-path="url(#p9f7b093f56)" d="M 516.795439 190.066596 
L 516.525403 190.59974 
L 515.80898 191.918011 
L 515.850998 192.317956 
L 516.06486 192.549187 
L 516.419484 192.605409 
L 516.918754 192.414735 
L 517.646062 191.837075 
L 518.452884 190.912365 
L 519.171696 189.759391 
L 519.222121 189.376083 
L 519.028529 189.408461 
L 518.549269 189.756662 
L 517.694569 190.621249 
L 517.093285 191.498896 
L 517.062659 191.506537 
L 517.012414 191.429209 
L 516.965744 191.037837 
L 516.879296 190.463026 
L 516.732814 190.025664 
L 516.732814 190.025664 
" style="fill:none;stroke:#000000;stroke-linecap:square;stroke-opacity:0.7;stroke-width:1.2;"/>
   </g>
   <g id="line2d_18">
    <path clip-path="url(#p9f7b093f56)" d="M 516.779954 143.035793 
L 517.259223 142.032118 
L 517.577809 140.784215 
L 517.695188 139.416602 
L 517.671051 139.359209 
L 517.598154 139.444703 
L 516.863229 141.004964 
L 515.527932 144.12649 
L 515.577491 144.466974 
L 515.809517 144.524879 
L 516.25212 144.357917 
L 516.814768 143.891585 
L 517.600737 143.155291 
L 518.368981 142.721896 
L 519.812423 142.137686 
L 522.049448 141.475232 
L 524.47681 141.015237 
L 525.035276 141.003919 
L 524.749809 141.093071 
L 517.53473 142.679763 
L 516.781395 142.978285 
L 516.781395 142.978285 
" style="fill:none;stroke:#000000;stroke-linecap:square;stroke-opacity:0.7;stroke-width:1.2;"/>
   </g>
   <g id="line2d_19">
    <path clip-path="url(#p9f7b093f56)" d="M 516.77549 96.068647 
L 517.493436 94.742386 
L 518.172642 92.709507 
L 518.29642 91.631055 
L 518.164781 91.230151 
L 517.975437 91.252431 
L 517.653252 91.581 
L 517.0494 92.522288 
L 515.46875 95.689732 
L 514.366375 98.397638 
L 514.156492 99.199298 
L 514.516074 97.597934 
L 514.779383 96.824058 
L 514.883062 96.857444 
L 514.991766 97.253386 
L 515.076325 98.712331 
L 515.171904 99.214038 
L 515.204045 99.208545 
L 515.394904 98.999719 
L 515.8621 98.135617 
L 516.705579 96.053796 
L 516.705579 96.053796 
" style="fill:none;stroke:#000000;stroke-linecap:square;stroke-opacity:0.7;stroke-width:1.2;"/>
   </g>
   <g id="line2d_20">
    <path clip-path="url(#p9f7b093f56)" d="M 516.812349 49.135212 
L 515.649463 49.521286 
L 515.479277 49.753888 
L 515.586913 49.821928 
L 515.964637 49.744294 
L 516.618981 49.418932 
L 518.070949 48.419298 
L 518.88817 47.621968 
L 518.924283 47.409196 
L 518.898846 47.398686 
L 518.645587 47.462417 
L 518.086978 47.841183 
L 517.133899 48.793806 
L 516.398064 49.845078 
L 516.293497 50.27806 
L 516.437716 50.377461 
L 516.89873 50.313564 
L 518.460693 49.754673 
L 521.166183 48.570466 
L 521.16142 48.564982 
L 520.944101 48.545629 
L 519.112245 48.7144 
L 516.94136 49.065831 
L 516.777797 49.121135 
L 516.777797 49.121135 
" style="fill:none;stroke:#000000;stroke-linecap:square;stroke-opacity:0.7;stroke-width:1.2;"/>
   </g>
   <g id="line2d_21">
    <path clip-path="url(#p9f7b093f56)" d="M 673.342848 236.983352 
L 673.591867 236.14322 
L 673.627121 235.065251 
L 673.474569 233.658944 
L 673.629256 233.776168 
L 674.81469 234.881123 
L 675.295847 235.049978 
L 675.315288 235.039037 
L 675.037451 235.243207 
L 674.430776 235.975024 
L 673.469508 237.498649 
L 672.346795 239.39361 
L 672.017943 239.835864 
L 672.565913 238.925012 
L 673.157021 237.509893 
L 673.308348 236.963161 
L 673.308348 236.963161 
" style="fill:none;stroke:#000000;stroke-linecap:square;stroke-opacity:0.7;stroke-width:1.2;"/>
   </g>
   <g id="line2d_22">
    <path clip-path="url(#p9f7b093f56)" d="M 673.365096 190.027814 
L 673.264904 189.600149 
L 672.560888 188.221917 
L 672.706765 188.253473 
L 673.99611 188.602987 
L 675.002809 188.654846 
L 675.490909 188.511757 
L 675.124996 188.731528 
L 674.210404 189.649325 
L 673.349829 190.805662 
L 673.356652 190.838071 
L 673.430453 190.813995 
L 675.031889 189.77736 
L 675.028768 189.763654 
L 674.944462 189.759972 
L 673.397999 189.976741 
L 673.334247 189.999188 
L 673.334247 189.999188 
" style="fill:none;stroke:#000000;stroke-linecap:square;stroke-opacity:0.7;stroke-width:1.2;"/>
   </g>
   <g id="line2d_23">
    <path clip-path="url(#p9f7b093f56)" d="M 673.359422 143.116899 
L 673.091873 143.879341 
L 672.328922 145.8585 
L 672.369036 146.437672 
L 672.515473 146.972494 
L 672.349782 145.884329 
L 672.936126 144.085638 
L 672.699792 144.532791 
L 672.582764 144.80985 
L 673.289668 143.116834 
L 673.295857 143.084837 
L 673.295857 143.084837 
" style="fill:none;stroke:#000000;stroke-linecap:square;stroke-opacity:0.7;stroke-width:1.2;"/>
   </g>
   <g id="line2d_24">
    <path clip-path="url(#p9f7b093f56)" d="M 673.34025 96.087659 
L 673.360692 95.392417 
L 673.081876 93.959868 
L 672.81267 93.331391 
L 672.699232 93.460769 
L 672.34525 94.371068 
L 671.829869 96.361385 
L 671.812033 96.853156 
L 671.885781 96.683217 
L 672.136995 96.583468 
L 672.667771 96.599346 
L 673.745202 96.764788 
L 673.74518 96.733535 
L 673.616818 96.462472 
L 673.29464 96.06919 
L 673.29464 96.06919 
" style="fill:none;stroke:#000000;stroke-linecap:square;stroke-opacity:0.7;stroke-width:1.2;"/>
   </g>
   <g id="line2d_25">
    <path clip-path="url(#p9f7b093f56)" d="M 673.353524 49.091926 
L 673.728098 48.192658 
L 674.033633 46.726354 
L 674.020262 45.578114 
L 673.876401 45.334574 
L 673.861014 45.340279 
L 673.72644 45.507054 
L 673.415387 46.296576 
L 672.895459 48.264335 
L 672.695746 49.691571 
L 672.81155 50.120687 
L 673.055395 50.206644 
L 673.26621 50.0796 
L 673.526771 49.726583 
L 673.453792 49.403101 
L 673.333456 49.10426 
L 673.333456 49.10426 
" style="fill:none;stroke:#000000;stroke-linecap:square;stroke-opacity:0.7;stroke-width:1.2;"/>
   </g>
  </g>
 </g>
 <defs>
  <clipPath id="p9f7b093f56">
   <rect height="262.08" width="694.08" x="12.96" y="12.96"/>
  </clipPath>
 </defs>
</svg>
