<?xml version="1.0" encoding="utf-8" standalone="no"?>
<!DOCTYPE svg PUBLIC "-//W3C//DTD SVG 1.1//EN"
  "http://www.w3.org/Graphics/SVG/1.1/DTD/svg11.dtd">
<!-- Created with matplotlib (https://matplotlib.org/) -->
<svg height="288pt" version="1.1" viewBox="0 0 720 288" width="720pt" xmlns="http://www.w3.org/2000/svg" xmlns:xlink="http://www.w3.org/1999/xlink">
 <metadata>
  <rdf:RDF xmlns:cc="http://creativecommons.org/ns#" xmlns:dc="http://purl.org/dc/elements/1.1/" xmlns:rdf="http://www.w3.org/1999/02/22-rdf-syntax-ns#">
   <cc:Work>
    <dc:type rdf:resource="http://purl.org/dc/dcmitype/StillImage"/>
    <dc:date>2020-12-22T16:48:41.269091</dc:date>
    <dc:format>image/svg+xml</dc:format>
    <dc:creator>
     <cc:Agent>
      <dc:title>Matplotlib v3.3.2, https://matplotlib.org/</dc:title>
     </cc:Agent>
    </dc:creator>
   </cc:Work>
  </rdf:RDF>
 </metadata>
 <defs>
  <style type="text/css">*{stroke-linecap:butt;stroke-linejoin:round;}</style>
 </defs>
 <g id="figure_1">
  <g id="patch_1">
   <path d="M 0 288 
L 720 288 
L 720 0 
L 0 0 
z
" style="fill:#ffffff;"/>
  </g>
  <g id="axes_1">
   <g id="line2d_1">
    <path clip-path="url(#p3a8b0ef526)" d="M 45.692947 237.855744 
L 45.784647 237.134012 
L 45.76089 235.129655 
L 45.694434 234.3887 
L 45.650098 235.046426 
L 45.686361 236.90813 
L 45.86861 237.239243 
L 46.091016 237.221779 
L 46.335228 237.173331 
L 46.24459 237.068301 
L 46.081126 237.030778 
L 45.883949 237.265421 
L 45.750499 237.801183 
L 45.794589 237.876969 
L 45.810534 237.864629 
" style="fill:none;stroke:#000000;stroke-linecap:square;stroke-opacity:0.7;stroke-width:1.2;"/>
   </g>
   <g id="line2d_2">
    <path clip-path="url(#p3a8b0ef526)" d="M 45.676464 190.865999 
L 45.935791 194.890318 
L 46.050291 194.875219 
L 46.170838 194.409549 
L 46.22416 193.111612 
L 46.108681 191.803569 
L 45.820379 190.866147 
L 45.191687 189.381834 
L 45.790298 190.855505 
" style="fill:none;stroke:#000000;stroke-linecap:square;stroke-opacity:0.7;stroke-width:1.2;"/>
   </g>
   <g id="line2d_3">
    <path clip-path="url(#p3a8b0ef526)" d="M 45.667202 143.753418 
L 45.692603 143.350529 
L 45.509853 141.705139 
L 45.127683 140.000181 
L 45.120701 140.003078 
L 45.054978 140.234638 
L 44.961065 141.60653 
L 44.999623 143.391398 
L 44.836496 143.195938 
L 44.612639 143.182466 
L 44.509622 143.370758 
L 44.596956 143.787238 
L 45.135286 145.601825 
L 45.409414 147.452584 
L 45.528235 148.613717 
L 45.579897 148.205165 
L 45.770167 143.768607 
L 45.770167 143.768607 
" style="fill:none;stroke:#000000;stroke-linecap:square;stroke-opacity:0.7;stroke-width:1.2;"/>
   </g>
   <g id="line2d_4">
    <path clip-path="url(#p3a8b0ef526)" d="M 45.702724 96.806169 
L 45.589488 99.068849 
L 45.876152 99.424098 
L 45.998823 100.223764 
L 46.053692 102.691888 
L 46.00668 103.836875 
L 45.946256 103.519678 
L 45.307338 97.414225 
L 45.228481 95.356659 
L 45.361535 95.12344 
L 45.380978 95.131612 
L 45.52683 95.348726 
L 45.938602 96.51322 
L 45.800569 96.81361 
L 45.79133 96.811381 
L 45.79133 96.811381 
" style="fill:none;stroke:#000000;stroke-linecap:square;stroke-opacity:0.7;stroke-width:1.2;"/>
   </g>
   <g id="line2d_5">
    <path clip-path="url(#p3a8b0ef526)" d="M 45.718677 49.765303 
L 45.741948 50.534856 
L 45.812306 51.355079 
L 45.825343 51.35014 
L 45.877707 51.238992 
L 45.996722 50.351586 
L 46.047884 48.80901 
L 46.196912 48.938881 
L 47.058857 49.817395 
L 47.264392 49.676558 
L 47.497428 49.214536 
L 47.539268 48.76251 
L 47.404098 48.43596 
L 47.152471 48.376746 
L 46.841526 48.595538 
L 45.9543 49.550866 
L 45.779496 49.769171 
L 45.779496 49.769171 
" style="fill:none;stroke:#000000;stroke-linecap:square;stroke-opacity:0.7;stroke-width:1.2;"/>
   </g>
   <g id="line2d_6">
    <path clip-path="url(#p3a8b0ef526)" d="M 202.508937 237.835344 
L 202.681311 237.419778 
L 203.156885 235.664336 
L 203.216912 235.723779 
L 203.309651 236.149853 
L 203.452214 236.588177 
L 203.489576 236.874619 
L 203.56323 237.494027 
L 203.57309 237.493615 
L 203.681393 237.422998 
L 204.072892 236.745645 
L 204.381392 235.721984 
L 204.351326 235.66027 
L 204.288384 235.694548 
L 203.761417 236.317913 
L 202.625171 237.85332 
L 202.625171 237.85332 
" style="fill:none;stroke:#000000;stroke-linecap:square;stroke-opacity:0.7;stroke-width:1.2;"/>
   </g>
   <g id="line2d_7">
    <path clip-path="url(#p3a8b0ef526)" d="M 202.491684 190.831531 
L 202.760086 190.944898 
L 202.989437 190.585675 
L 203.961853 188.593977 
L 204.022747 188.66161 
L 204.16285 189.13909 
L 204.347925 190.786964 
L 204.326149 191.46178 
L 204.297952 191.453357 
L 202.884087 190.589518 
L 202.680758 190.710541 
L 202.595584 190.834113 
L 202.59524 190.830577 
" style="fill:none;stroke:#000000;stroke-linecap:square;stroke-opacity:0.7;stroke-width:1.2;"/>
   </g>
   <g id="line2d_8">
    <path clip-path="url(#p3a8b0ef526)" d="M 202.501933 143.753779 
L 202.821108 142.751112 
L 203.090302 141.114178 
L 203.118791 139.904162 
L 203.214692 140.941632 
L 203.481248 141.644303 
L 203.841425 141.941633 
L 204.096626 142.244048 
L 204.316102 142.910773 
L 204.544579 143.522156 
L 204.715809 143.388382 
L 205.105873 142.678682 
L 205.567408 141.38577 
L 205.539944 140.961451 
L 205.352066 141.028791 
L 204.780314 141.525432 
L 203.060012 143.387414 
L 202.646057 143.83084 
L 202.646057 143.83084 
" style="fill:none;stroke:#000000;stroke-linecap:square;stroke-opacity:0.7;stroke-width:1.2;"/>
   </g>
   <g id="line2d_9">
    <path clip-path="url(#p3a8b0ef526)" d="M 202.508818 96.744634 
L 203.885732 94.71847 
L 205.812129 91.401246 
L 205.959826 90.965803 
L 205.925462 90.968214 
L 205.563147 91.310379 
L 204.719913 92.470035 
L 203.827656 94.046922 
L 203.177076 95.633137 
L 203.074911 96.381252 
L 203.208555 96.564267 
L 203.565966 96.583518 
L 204.761977 96.373302 
L 205.174055 95.73032 
L 205.756108 94.345095 
L 205.77369 93.893811 
L 205.577522 93.974242 
L 204.890508 94.565745 
L 202.636242 96.842266 
L 202.636242 96.842266 
" style="fill:none;stroke:#000000;stroke-linecap:square;stroke-opacity:0.7;stroke-width:1.2;"/>
   </g>
   <g id="line2d_10">
    <path clip-path="url(#p3a8b0ef526)" d="M 202.511112 49.715711 
L 202.550889 49.596043 
L 202.753762 48.532368 
L 202.769864 48.472182 
L 202.196453 49.818899 
L 202.109791 49.643802 
L 202.022225 48.898365 
L 202.13798 48.644229 
L 202.758987 48.32707 
L 203.866475 47.869168 
L 203.920806 48.003253 
L 203.711055 48.380738 
L 202.580416 49.75205 
L 202.580416 49.75205 
" style="fill:none;stroke:#000000;stroke-linecap:square;stroke-opacity:0.7;stroke-width:1.2;"/>
   </g>
   <g id="line2d_11">
    <path clip-path="url(#p3a8b0ef526)" d="M 359.257642 237.847863 
L 359.339348 237.84524 
L 359.356952 237.780274 
L 359.545017 237.151175 
L 360.273459 236.019412 
L 360.809046 235.255418 
L 360.198138 236.291727 
L 359.644768 237.811 
L 359.209232 238.906552 
L 358.933018 239.445984 
L 358.887672 240.128565 
L 358.912587 240.137944 
L 358.955459 240.064996 
L 359.115027 239.32897 
L 359.376642 237.848655 
L 359.376642 237.848655 
" style="fill:none;stroke:#000000;stroke-linecap:square;stroke-opacity:0.7;stroke-width:1.2;"/>
   </g>
   <g id="line2d_12">
    <path clip-path="url(#p3a8b0ef526)" d="M 359.247917 190.822773 
L 359.266261 191.229404 
L 359.337538 191.711942 
L 359.468776 191.692409 
L 359.658657 191.367207 
L 360.121119 189.970613 
L 360.365077 188.789315 
L 360.216968 188.666768 
L 359.911787 188.752247 
L 359.469486 189.120083 
L 359.006298 189.772272 
L 358.706552 190.553349 
L 358.798551 191.005547 
L 359.020322 192.048891 
L 359.08399 191.932455 
L 359.357729 190.826658 
L 359.357729 190.826658 
" style="fill:none;stroke:#000000;stroke-linecap:square;stroke-opacity:0.7;stroke-width:1.2;"/>
   </g>
   <g id="line2d_13">
    <path clip-path="url(#p3a8b0ef526)" d="M 359.25747 143.793958 
L 359.471923 143.688766 
L 360.100188 142.897993 
L 360.09506 143.033681 
L 359.730383 144.205318 
L 359.965729 143.911661 
L 360.517088 143.758629 
L 360.837751 143.347961 
L 360.912474 142.944416 
L 360.749938 142.652165 
L 360.536158 142.718266 
L 359.946405 143.199909 
L 359.339527 143.804358 
L 359.339527 143.804358 
" style="fill:none;stroke:#000000;stroke-linecap:square;stroke-opacity:0.7;stroke-width:1.2;"/>
   </g>
   <g id="line2d_14">
    <path clip-path="url(#p3a8b0ef526)" d="M 359.204485 96.815937 
L 359.311307 98.351723 
L 359.634459 104.905121 
L 359.747546 105.257019 
L 359.768612 105.238492 
L 359.85339 104.766145 
L 359.939012 102.535008 
L 359.916138 96.443091 
L 359.765106 95.479391 
L 359.554959 95.309062 
L 359.26798 95.345056 
L 358.920399 95.651784 
L 358.75485 96.087882 
L 358.798596 96.187075 
L 358.866151 96.170096 
L 358.933675 96.267415 
L 359.126487 97.068317 
L 359.210323 96.975898 
L 359.340491 96.786087 
L 359.340491 96.786087 
" style="fill:none;stroke:#000000;stroke-linecap:square;stroke-opacity:0.7;stroke-width:1.2;"/>
   </g>
   <g id="line2d_15">
    <path clip-path="url(#p3a8b0ef526)" d="M 359.145751 49.890219 
L 359.394889 51.626053 
L 360.411589 61.535006 
L 360.435966 61.471038 
L 360.451933 60.577011 
L 360.255855 56.78095 
L 359.648266 48.611812 
L 359.454752 48.336388 
L 359.278453 48.38681 
L 359.136011 48.668498 
L 359.117614 49.381237 
L 359.33268 49.788306 
L 359.339467 49.77906 
" style="fill:none;stroke:#000000;stroke-linecap:square;stroke-opacity:0.7;stroke-width:1.2;"/>
   </g>
   <g id="line2d_16">
    <path clip-path="url(#p3a8b0ef526)" d="M 516.046437 237.790003 
L 517.222332 235.868314 
L 518.490285 233.299837 
L 519.103705 231.653162 
L 519.056692 231.464815 
L 518.841439 231.582311 
L 518.289834 232.229657 
L 517.55094 233.432433 
L 516.849783 235.066423 
L 516.44062 236.060752 
L 516.115375 236.583544 
L 515.935563 237.276749 
L 516.048523 237.502947 
L 516.269928 237.409435 
L 516.411675 237.363285 
L 516.411496 237.450212 
L 516.239159 237.685645 
L 516.128838 237.849788 
L 516.131417 237.842753 
" style="fill:none;stroke:#000000;stroke-linecap:square;stroke-opacity:0.7;stroke-width:1.2;"/>
   </g>
   <g id="line2d_17">
    <path clip-path="url(#p3a8b0ef526)" d="M 516.008694 190.856044 
L 516.20327 192.753699 
L 516.66503 196.756686 
L 517.007894 198.182125 
L 517.11598 198.276244 
L 517.146479 198.248653 
L 517.236183 197.887241 
L 517.282276 196.444631 
L 517.137995 193.641793 
L 516.794361 191.011557 
L 516.54597 190.404162 
L 516.339987 190.378512 
L 516.181524 190.586277 
L 516.137106 191.028622 
L 516.159427 191.055375 
L 516.080054 190.793471 
L 515.985408 190.934862 
L 515.963565 191.238862 
L 516.117827 190.869915 
L 516.117827 190.869915 
" style="fill:none;stroke:#000000;stroke-linecap:square;stroke-opacity:0.7;stroke-width:1.2;"/>
   </g>
   <g id="line2d_18">
    <path clip-path="url(#p3a8b0ef526)" d="M 516.008313 143.802984 
L 516.030223 144.328214 
L 516.259694 144.49978 
L 516.352269 144.95632 
L 516.3798 146.471009 
L 516.181786 150.610358 
L 516.176007 150.609575 
L 516.093726 150.153875 
L 515.22625 144.041278 
L 515.379038 146.07268 
L 515.452416 146.419106 
L 515.494555 146.382361 
L 515.63758 145.940898 
L 516.091969 143.805204 
L 516.091969 143.805204 
" style="fill:none;stroke:#000000;stroke-linecap:square;stroke-opacity:0.7;stroke-width:1.2;"/>
   </g>
   <g id="line2d_19">
    <path clip-path="url(#p3a8b0ef526)" d="M 516.023817 96.787327 
L 515.872964 96.931797 
L 515.651193 96.851698 
L 515.567671 96.6164 
L 515.709426 96.302751 
L 515.965516 96.142992 
L 516.0835 96.304095 
L 516.248742 96.792051 
L 516.303096 96.670967 
L 516.23282 96.339235 
L 515.894418 96.096494 
L 515.739051 96.254692 
L 515.585821 96.842587 
L 515.650393 97.304398 
L 515.777855 97.218833 
L 516.11598 96.779701 
L 516.11598 96.779701 
" style="fill:none;stroke:#000000;stroke-linecap:square;stroke-opacity:0.7;stroke-width:1.2;"/>
   </g>
   <g id="line2d_20">
    <path clip-path="url(#p3a8b0ef526)" d="M 516.013688 49.773001 
L 515.968342 51.777163 
L 516.169907 52.715804 
L 516.462971 53.41292 
L 516.421827 54.741212 
L 516.359968 49.41429 
L 516.144192 49.501209 
L 515.784583 49.947446 
L 515.534211 50.655703 
L 515.561212 50.84364 
L 515.625986 50.785148 
L 515.943756 50.110213 
L 516.097486 49.784768 
L 516.097486 49.784768 
" style="fill:none;stroke:#000000;stroke-linecap:square;stroke-opacity:0.7;stroke-width:1.2;"/>
   </g>
   <g id="line2d_21">
    <path clip-path="url(#p3a8b0ef526)" d="M 672.793968 237.814168 
L 673.185811 236.653254 
L 673.491343 234.864274 
L 673.508709 233.418955 
L 673.35142 232.887888 
L 673.240127 232.882143 
L 673.218157 232.919438 
L 673.2172 233.186377 
L 673.460769 233.638439 
L 674.02311 234.090069 
L 674.810077 234.60895 
L 674.5005 235.319601 
L 673.129664 238.13487 
L 672.617602 238.460938 
L 672.399898 238.935372 
L 672.381673 239.191694 
L 672.530246 238.847079 
L 672.900118 237.826952 
L 672.900118 237.826952 
" style="fill:none;stroke:#000000;stroke-linecap:square;stroke-opacity:0.7;stroke-width:1.2;"/>
   </g>
   <g id="line2d_22">
    <path clip-path="url(#p3a8b0ef526)" d="M 672.799261 190.803071 
L 672.801122 190.810521 
L 672.659412 190.680296 
L 672.452524 190.320503 
L 672.551543 190.033889 
L 673.34014 189.065843 
L 674.245255 187.777865 
L 674.24062 187.712682 
L 674.132392 187.785632 
L 673.662125 188.443295 
L 672.996356 189.737045 
L 672.357722 191.389873 
L 672.022954 192.844487 
L 672.104816 193.184878 
L 672.301642 193.117801 
L 672.493362 193.072419 
L 672.478142 193.489401 
L 672.543342 192.908986 
L 672.876399 190.797022 
L 672.876399 190.797022 
" style="fill:none;stroke:#000000;stroke-linecap:square;stroke-opacity:0.7;stroke-width:1.2;"/>
   </g>
   <g id="line2d_23">
    <path clip-path="url(#p3a8b0ef526)" d="M 672.768507 143.747902 
L 673.781462 142.088457 
L 674.809666 139.847559 
L 675.441759 137.981217 
L 675.455767 137.475583 
L 675.310634 137.467332 
L 674.996594 137.738375 
L 674.424678 138.52172 
L 673.824535 139.586953 
L 672.919098 141.734478 
L 672.575045 143.137644 
L 672.623598 143.491273 
L 672.65258 143.485715 
L 672.794342 143.277825 
L 673.253926 142.346083 
L 673.269475 142.452528 
L 673.216684 142.947671 
L 672.884129 143.755352 
L 672.884129 143.755352 
" style="fill:none;stroke:#000000;stroke-linecap:square;stroke-opacity:0.7;stroke-width:1.2;"/>
   </g>
   <g id="line2d_24">
    <path clip-path="url(#p3a8b0ef526)" d="M 672.806624 96.769193 
L 672.748421 97.939176 
L 672.922993 98.074363 
L 673.069495 97.930602 
L 673.107051 97.75569 
L 672.772671 98.289175 
L 672.704668 98.204588 
L 672.557478 97.404693 
L 672.436161 95.83746 
L 672.600678 95.359844 
L 673.106871 94.861089 
L 673.883508 94.360751 
L 674.365219 94.273347 
L 674.444697 94.43537 
L 674.311628 94.79068 
L 673.573266 95.90084 
L 672.89037 96.786447 
L 672.89037 96.786447 
" style="fill:none;stroke:#000000;stroke-linecap:square;stroke-opacity:0.7;stroke-width:1.2;"/>
   </g>
   <g id="line2d_25">
    <path clip-path="url(#p3a8b0ef526)" d="M 672.758132 49.790358 
L 672.665557 50.772174 
L 672.724134 51.45538 
L 672.964249 51.93829 
L 673.055695 53.338377 
L 673.104165 56.427708 
L 673.133977 52.253057 
L 673.065338 48.825777 
L 672.885108 48.784112 
L 672.697506 49.012017 
L 672.571495 49.577138 
L 672.66463 50.138902 
L 672.740385 50.15291 
L 672.771423 50.110251 
L 672.859378 49.76424 
L 672.859378 49.76424 
" style="fill:none;stroke:#000000;stroke-linecap:square;stroke-opacity:0.7;stroke-width:1.2;"/>
   </g>
  </g>
 </g>
 <defs>
  <clipPath id="p3a8b0ef526">
   <rect height="262.08" width="694.08" x="12.96" y="12.96"/>
  </clipPath>
 </defs>
</svg>
