<?xml version="1.0" encoding="utf-8" standalone="no"?>
<!DOCTYPE svg PUBLIC "-//W3C//DTD SVG 1.1//EN"
  "http://www.w3.org/Graphics/SVG/1.1/DTD/svg11.dtd">
<!-- Created with matplotlib (https://matplotlib.org/) -->
<svg height="288pt" version="1.1" viewBox="0 0 720 288" width="720pt" xmlns="http://www.w3.org/2000/svg" xmlns:xlink="http://www.w3.org/1999/xlink">
 <metadata>
  <rdf:RDF xmlns:cc="http://creativecommons.org/ns#" xmlns:dc="http://purl.org/dc/elements/1.1/" xmlns:rdf="http://www.w3.org/1999/02/22-rdf-syntax-ns#">
   <cc:Work>
    <dc:type rdf:resource="http://purl.org/dc/dcmitype/StillImage"/>
    <dc:date>2020-12-22T18:56:10.039096</dc:date>
    <dc:format>image/svg+xml</dc:format>
    <dc:creator>
     <cc:Agent>
      <dc:title>Matplotlib v3.3.2, https://matplotlib.org/</dc:title>
     </cc:Agent>
    </dc:creator>
   </cc:Work>
  </rdf:RDF>
 </metadata>
 <defs>
  <style type="text/css">*{stroke-linecap:butt;stroke-linejoin:round;}</style>
 </defs>
 <g id="figure_1">
  <g id="patch_1">
   <path d="M 0 288 
L 720 288 
L 720 0 
L 0 0 
z
" style="fill:#ffffff;"/>
  </g>
  <g id="axes_1">
   <g id="line2d_1">
    <path clip-path="url(#pf03f28d097)" d="M 45.65574 239.071188 
L 45.628033 239.271962 
L 45.70072 241.242676 
L 45.652265 241.636609 
L 45.171026 242.02993 
L 44.897157 242.062756 
L 44.890729 242.046885 
L 44.92449 241.767011 
L 46.158116 237.019215 
L 45.664216 239.19768 
L 45.698612 239.171196 
L 45.704375 239.148833 
" style="fill:none;stroke:#000000;stroke-linecap:square;stroke-opacity:0.7;stroke-width:1.2;"/>
   </g>
   <g id="line2d_2">
    <path clip-path="url(#pf03f28d097)" d="M 45.666712 192.027587 
L 45.757815 191.557006 
L 46.333647 190.432974 
L 47.868564 188.004699 
L 45.758458 191.478935 
L 45.574922 191.967757 
L 45.19152 194.524333 
L 45.583375 192.3603 
L 45.692633 192.090598 
L 45.692633 192.090598 
" style="fill:none;stroke:#000000;stroke-linecap:square;stroke-opacity:0.7;stroke-width:1.2;"/>
   </g>
   <g id="line2d_3">
    <path clip-path="url(#pf03f28d097)" d="M 45.66027 144.993793 
L 46.286179 143.779054 
L 47.08069 142.092396 
L 47.073933 141.98133 
L 46.975319 142.106751 
L 46.27422 143.546047 
L 45.549786 145.079668 
L 45.777644 144.826536 
L 46.238785 143.97185 
L 46.603644 143.298791 
L 46.882774 142.958327 
L 46.579532 143.476392 
L 45.701818 145.057544 
L 45.701818 145.057544 
" style="fill:none;stroke:#000000;stroke-linecap:square;stroke-opacity:0.7;stroke-width:1.2;"/>
   </g>
   <g id="line2d_4">
    <path clip-path="url(#pf03f28d097)" d="M 45.64506 98.004515 
L 45.575311 99.114904 
L 45.508133 102.319878 
L 45.430297 100.047485 
L 45.43881 99.139411 
L 46.245422 96.698842 
L 45.824574 97.809791 
L 45.698448 98.001324 
L 45.673103 98.11193 
L 45.694935 98.076529 
" style="fill:none;stroke:#000000;stroke-linecap:square;stroke-opacity:0.7;stroke-width:1.2;"/>
   </g>
   <g id="line2d_5">
    <path clip-path="url(#pf03f28d097)" d="M 45.655441 50.957241 
L 46.1837 49.830724 
L 46.979408 47.98956 
L 46.987988 47.775661 
L 46.896347 47.899945 
L 46.41667 49.042057 
L 44.652744 53.417815 
L 45.656652 50.653947 
L 46.040436 49.350434 
L 45.630784 51.055665 
L 44.557232 55.080612 
L 44.525661 55.107717 
L 44.511759 54.952718 
L 44.677962 54.105708 
L 45.418704 51.752033 
L 45.680794 51.008204 
L 45.680794 51.008204 
" style="fill:none;stroke:#000000;stroke-linecap:square;stroke-opacity:0.7;stroke-width:1.2;"/>
   </g>
   <g id="line2d_6">
    <path clip-path="url(#pf03f28d097)" d="M 202.391338 239.035166 
L 204.035318 234.947884 
L 203.988552 234.989145 
L 203.790203 235.411858 
L 202.086564 239.872527 
L 202.101063 239.854914 
L 202.331694 239.234225 
L 202.666723 237.747606 
L 202.603798 237.942887 
L 201.758896 241.314615 
L 202.386741 239.217737 
L 202.430622 239.115977 
L 202.430622 239.115977 
" style="fill:none;stroke:#000000;stroke-linecap:square;stroke-opacity:0.7;stroke-width:1.2;"/>
   </g>
   <g id="line2d_7">
    <path clip-path="url(#pf03f28d097)" d="M 202.414067 192.044195 
L 202.5439 191.622189 
L 202.936436 190.44559 
L 202.935068 190.445314 
L 202.879535 190.546843 
L 202.055688 192.922544 
L 202.305758 192.34747 
L 203.304868 190.172828 
L 204.348381 189.063628 
L 203.826849 189.836169 
L 202.445114 192.08481 
L 202.445114 192.08481 
" style="fill:none;stroke:#000000;stroke-linecap:square;stroke-opacity:0.7;stroke-width:1.2;"/>
   </g>
   <g id="line2d_8">
    <path clip-path="url(#pf03f28d097)" d="M 202.398722 144.985964 
L 203.31439 140.874444 
L 203.304524 140.876409 
L 203.265972 140.9857 
L 203.261622 141.655438 
L 203.324749 142.700285 
L 202.922661 144.731349 
L 202.573296 145.916023 
L 202.517247 145.849589 
L 202.34857 145.317952 
L 202.437334 145.053695 
L 202.437334 145.053695 
" style="fill:none;stroke:#000000;stroke-linecap:square;stroke-opacity:0.7;stroke-width:1.2;"/>
   </g>
   <g id="line2d_9">
    <path clip-path="url(#pf03f28d097)" d="M 202.422333 97.99527 
L 202.407459 97.948519 
L 202.493637 98.518872 
L 202.591085 98.341921 
L 204.893106 93.809583 
L 205.057022 93.292382 
L 204.97645 93.341895 
L 204.444955 94.055016 
L 202.679534 96.684992 
L 202.807454 96.604906 
L 203.689309 95.753311 
L 204.529742 94.754079 
L 203.990585 95.553444 
L 202.473075 98.062466 
L 202.473075 98.062466 
" style="fill:none;stroke:#000000;stroke-linecap:square;stroke-opacity:0.7;stroke-width:1.2;"/>
   </g>
   <g id="line2d_10">
    <path clip-path="url(#pf03f28d097)" d="M 202.408371 50.96716 
L 202.345678 51.276104 
L 202.207047 53.697749 
L 202.217451 53.688728 
L 202.391293 53.174927 
L 203.822416 48.201826 
L 203.916628 47.669139 
L 203.809493 47.802422 
L 202.458897 49.953442 
L 202.832261 49.568885 
L 204.927584 47.374918 
L 204.557463 47.928728 
L 202.462918 51.031934 
L 202.462918 51.031934 
" style="fill:none;stroke:#000000;stroke-linecap:square;stroke-opacity:0.7;stroke-width:1.2;"/>
   </g>
   <g id="line2d_11">
    <path clip-path="url(#pf03f28d097)" d="M 359.137548 239.061251 
L 359.140164 239.507709 
L 359.411731 241.730821 
L 359.44168 241.761103 
L 359.191736 241.503539 
L 358.75088 240.987216 
L 358.869271 240.572423 
L 359.96662 237.765914 
L 360.146434 237.426565 
L 359.554532 238.386494 
L 359.185921 239.132977 
L 359.185921 239.132977 
" style="fill:none;stroke:#000000;stroke-linecap:square;stroke-opacity:0.7;stroke-width:1.2;"/>
   </g>
   <g id="line2d_12">
    <path clip-path="url(#pf03f28d097)" d="M 359.157078 192.007478 
L 361.220554 187.320899 
L 361.363109 186.53323 
L 361.276393 186.49306 
L 361.248223 186.509705 
L 360.990125 186.817495 
L 360.023962 188.444659 
L 359.264781 190.035793 
L 359.430947 190.488716 
L 359.54655 190.505234 
L 359.569279 190.48153 
L 361.638487 188.066772 
L 361.22811 188.731779 
L 359.20359 192.065855 
L 359.20359 192.065855 
" style="fill:none;stroke:#000000;stroke-linecap:square;stroke-opacity:0.7;stroke-width:1.2;"/>
   </g>
   <g id="line2d_13">
    <path clip-path="url(#pf03f28d097)" d="M 359.141637 144.993236 
L 359.437704 144.538501 
L 360.25167 143.452811 
L 359.771208 144.314048 
L 359.706661 144.445761 
L 359.661547 144.3042 
L 359.652347 144.296315 
L 359.643385 144.499949 
L 359.198687 145.091892 
L 359.19412 145.069596 
" style="fill:none;stroke:#000000;stroke-linecap:square;stroke-opacity:0.7;stroke-width:1.2;"/>
   </g>
   <g id="line2d_14">
    <path clip-path="url(#pf03f28d097)" d="M 359.160539 97.987736 
L 359.136794 98.037271 
L 359.152235 99.123211 
L 359.22525 99.79753 
L 359.285664 99.651807 
L 359.801546 97.51634 
L 360.098278 95.928823 
L 359.948757 96.329431 
L 359.616613 97.256856 
L 359.763622 97.151731 
L 360.370965 96.484909 
L 360.513415 96.203219 
L 360.186047 96.561837 
L 359.199121 98.059959 
L 359.199121 98.059959 
" style="fill:none;stroke:#000000;stroke-linecap:square;stroke-opacity:0.7;stroke-width:1.2;"/>
   </g>
   <g id="line2d_15">
    <path clip-path="url(#pf03f28d097)" d="M 359.161929 50.96991 
L 359.261747 50.818607 
L 359.734323 50.841795 
L 359.697752 50.918051 
L 359.626508 50.941381 
L 359.594945 50.897504 
L 359.56028 50.532626 
L 359.753405 50.039059 
L 359.959318 49.870782 
L 359.741125 50.169711 
L 359.207163 51.049218 
L 359.201281 51.038478 
" style="fill:none;stroke:#000000;stroke-linecap:square;stroke-opacity:0.7;stroke-width:1.2;"/>
   </g>
   <g id="line2d_16">
    <path clip-path="url(#pf03f28d097)" d="M 515.916945 239.065092 
L 516.071368 238.438387 
L 516.576174 237.262921 
L 518.419251 234.849655 
L 518.508806 234.710273 
L 517.815323 235.976288 
L 516.35662 238.577724 
L 516.636572 238.308288 
L 517.37126 237.240286 
L 517.45613 236.991848 
L 517.325332 237.101677 
L 516.720754 237.961864 
L 515.942431 239.111365 
L 515.942431 239.111365 
" style="fill:none;stroke:#000000;stroke-linecap:square;stroke-opacity:0.7;stroke-width:1.2;"/>
   </g>
   <g id="line2d_17">
    <path clip-path="url(#pf03f28d097)" d="M 515.902945 192.037547 
L 515.944494 191.932064 
L 515.9791 191.939942 
L 516.357973 192.134782 
L 516.359176 192.017658 
L 516.564073 190.920237 
L 516.566195 190.842285 
L 516.447065 191.001986 
L 516.157949 191.607812 
L 516.209087 192.219225 
L 516.099015 192.135825 
L 515.937334 192.19897 
L 515.951236 192.129744 
" style="fill:none;stroke:#000000;stroke-linecap:square;stroke-opacity:0.7;stroke-width:1.2;"/>
   </g>
   <g id="line2d_18">
    <path clip-path="url(#pf03f28d097)" d="M 515.886166 144.981636 
L 518.12278 139.885925 
L 518.344434 138.914358 
L 518.302624 138.881988 
L 518.261404 138.914874 
L 518.018703 139.336253 
L 516.798934 142.129868 
L 514.949003 146.619791 
L 516.106071 144.035355 
L 515.60084 146.604689 
L 515.567834 146.496478 
L 515.62377 145.889303 
L 515.928993 145.055186 
L 515.928993 145.055186 
" style="fill:none;stroke:#000000;stroke-linecap:square;stroke-opacity:0.7;stroke-width:1.2;"/>
   </g>
   <g id="line2d_19">
    <path clip-path="url(#pf03f28d097)" d="M 515.903812 97.994593 
L 516.036449 97.852502 
L 516.68653 97.641842 
L 516.347681 97.883931 
L 516.108612 97.904223 
L 516.11057 97.872779 
L 516.43095 96.9098 
L 515.955145 98.09348 
L 515.951468 98.082359 
" style="fill:none;stroke:#000000;stroke-linecap:square;stroke-opacity:0.7;stroke-width:1.2;"/>
   </g>
   <g id="line2d_20">
    <path clip-path="url(#pf03f28d097)" d="M 515.916646 50.950481 
L 516.101175 50.033905 
L 516.783335 47.58585 
L 518.073174 46.018809 
L 518.1395 45.901625 
L 517.246509 47.526401 
L 516.175326 49.746019 
L 516.212309 49.733903 
L 516.653068 49.314618 
L 517.819008 47.869103 
L 517.861603 47.794073 
L 516.582377 49.980973 
L 515.944345 50.997434 
L 515.944345 50.997434 
" style="fill:none;stroke:#000000;stroke-linecap:square;stroke-opacity:0.7;stroke-width:1.2;"/>
   </g>
   <g id="line2d_21">
    <path clip-path="url(#pf03f28d097)" d="M 672.645068 239.049498 
L 673.017767 237.893184 
L 673.537715 236.092609 
L 673.521384 236.068408 
L 673.455208 236.189553 
L 673.23099 237.117855 
L 672.991787 238.680816 
L 672.52211 240.333802 
L 672.475516 240.333309 
L 672.445126 240.256691 
L 672.431239 239.831441 
L 672.650285 239.190378 
L 672.676026 239.129826 
L 672.676026 239.129826 
" style="fill:none;stroke:#000000;stroke-linecap:square;stroke-opacity:0.7;stroke-width:1.2;"/>
   </g>
   <g id="line2d_22">
    <path clip-path="url(#pf03f28d097)" d="M 672.642885 192.04705 
L 672.682416 192.099881 
L 673.326929 193.448135 
L 673.344642 193.318402 
L 673.271552 191.6276 
L 672.867716 191.406847 
L 672.70963 191.254172 
L 672.672827 191.34125 
L 672.407957 192.636702 
L 671.997783 194.34024 
L 671.977019 194.21997 
L 672.076837 193.629152 
L 672.574392 192.34284 
L 672.677169 192.111022 
L 672.677169 192.111022 
" style="fill:none;stroke:#000000;stroke-linecap:square;stroke-opacity:0.7;stroke-width:1.2;"/>
   </g>
   <g id="line2d_23">
    <path clip-path="url(#pf03f28d097)" d="M 672.65669 145.005857 
L 672.662064 144.960694 
L 672.755297 145.107105 
L 672.976106 145.527647 
L 673.024584 145.414761 
L 673.820224 143.719534 
L 675.485348 140.127225 
L 675.405659 140.205065 
L 674.488422 141.566884 
L 672.946972 143.896387 
L 673.508379 143.254244 
L 674.396609 142.084691 
L 673.844761 142.996763 
L 672.68288 145.059876 
L 672.68288 145.059876 
" style="fill:none;stroke:#000000;stroke-linecap:square;stroke-opacity:0.7;stroke-width:1.2;"/>
   </g>
   <g id="line2d_24">
    <path clip-path="url(#pf03f28d097)" d="M 672.636772 97.96633 
L 674.670455 93.31029 
L 674.706891 92.927897 
L 674.609795 93.080531 
L 674.11721 94.555045 
L 671.408609 103.445432 
L 672.471495 99.537747 
L 673.201938 96.796537 
L 672.833903 97.768773 
L 672.68921 98.068875 
L 672.68581 98.057197 
" style="fill:none;stroke:#000000;stroke-linecap:square;stroke-opacity:0.7;stroke-width:1.2;"/>
   </g>
   <g id="line2d_25">
    <path clip-path="url(#pf03f28d097)" d="M 672.649306 50.950044 
L 673.025324 49.836647 
L 673.739495 47.655753 
L 673.718956 47.605037 
L 673.64905 47.730823 
L 673.432367 48.685121 
L 673.213844 49.525669 
L 673.042096 50.101913 
L 673.07493 50.114884 
L 673.394017 50.105683 
L 673.425393 50.090115 
L 673.263129 50.287649 
L 672.698389 51.047376 
L 672.692394 51.036456 
" style="fill:none;stroke:#000000;stroke-linecap:square;stroke-opacity:0.7;stroke-width:1.2;"/>
   </g>
  </g>
 </g>
 <defs>
  <clipPath id="pf03f28d097">
   <rect height="262.08" width="694.08" x="12.96" y="12.96"/>
  </clipPath>
 </defs>
</svg>
