<?xml version="1.0" encoding="utf-8" standalone="no"?>
<!DOCTYPE svg PUBLIC "-//W3C//DTD SVG 1.1//EN"
  "http://www.w3.org/Graphics/SVG/1.1/DTD/svg11.dtd">
<!-- Created with matplotlib (https://matplotlib.org/) -->
<svg height="288pt" version="1.1" viewBox="0 0 720 288" width="720pt" xmlns="http://www.w3.org/2000/svg" xmlns:xlink="http://www.w3.org/1999/xlink">
 <metadata>
  <rdf:RDF xmlns:cc="http://creativecommons.org/ns#" xmlns:dc="http://purl.org/dc/elements/1.1/" xmlns:rdf="http://www.w3.org/1999/02/22-rdf-syntax-ns#">
   <cc:Work>
    <dc:type rdf:resource="http://purl.org/dc/dcmitype/StillImage"/>
    <dc:date>2020-12-22T16:27:50.406295</dc:date>
    <dc:format>image/svg+xml</dc:format>
    <dc:creator>
     <cc:Agent>
      <dc:title>Matplotlib v3.3.2, https://matplotlib.org/</dc:title>
     </cc:Agent>
    </dc:creator>
   </cc:Work>
  </rdf:RDF>
 </metadata>
 <defs>
  <style type="text/css">*{stroke-linecap:butt;stroke-linejoin:round;}</style>
 </defs>
 <g id="figure_1">
  <g id="patch_1">
   <path d="M 0 288 
L 720 288 
L 720 0 
L 0 0 
z
" style="fill:#ffffff;"/>
  </g>
  <g id="axes_1">
   <g id="line2d_1">
    <path clip-path="url(#p0f9dc8b740)" d="M 45.417755 234.967286 
L 45.438036 245.091797 
L 45.507267 244.949729 
L 45.777761 243.213157 
L 46.968796 235.365616 
L 47.472142 233.224559 
L 47.476198 233.357021 
L 47.266291 234.261625 
L 46.691282 235.77204 
L 46.370775 236.72345 
L 45.951971 237.864437 
L 45.795407 237.927034 
L 45.780822 237.907849 
L 45.662087 237.450944 
L 45.25159 234.901555 
L 45.25159 234.901555 
" style="fill:none;stroke:#000000;stroke-linecap:square;stroke-opacity:0.7;stroke-width:1.2;"/>
   </g>
   <g id="line2d_2">
    <path clip-path="url(#p0f9dc8b740)" d="M 45.397153 187.855243 
L 45.105211 188.01665 
L 44.839574 187.889201 
L 44.689415 187.458709 
L 44.724633 186.945486 
L 44.972572 186.489915 
L 45.224671 186.410381 
L 45.500539 186.581493 
L 45.726416 186.989606 
L 45.85696 187.670895 
L 45.977857 188.515102 
L 46.414509 189.031184 
L 46.396616 190.272391 
L 46.160135 191.851811 
L 45.956895 192.169664 
L 45.855792 192.007137 
L 45.716261 191.292817 
L 45.286815 187.804877 
L 45.286815 187.804877 
" style="fill:none;stroke:#000000;stroke-linecap:square;stroke-opacity:0.7;stroke-width:1.2;"/>
   </g>
   <g id="line2d_3">
    <path clip-path="url(#p0f9dc8b740)" d="M 45.375877 140.757451 
L 45.17968 140.635833 
L 45.043816 140.23363 
L 45.020482 139.295892 
L 45.21162 138.190718 
L 45.509714 137.520979 
L 45.707385 137.442492 
L 45.812941 137.558516 
L 45.962067 138.105628 
L 46.046713 139.38675 
L 45.91727 142.468236 
L 45.539431 145.64142 
L 45.414111 146.276949 
L 45.761035 143.658474 
L 46.261275 140.754501 
L 46.280598 140.847032 
L 46.277365 140.867095 
L 46.101808 141.200201 
L 45.901232 141.264007 
L 45.683782 141.073361 
L 45.336798 140.692026 
L 45.329928 140.700033 
" style="fill:none;stroke:#000000;stroke-linecap:square;stroke-opacity:0.7;stroke-width:1.2;"/>
   </g>
   <g id="line2d_4">
    <path clip-path="url(#p0f9dc8b740)" d="M 45.408356 93.605389 
L 45.24353 93.620744 
L 45.025002 93.373431 
L 44.892116 92.792109 
L 44.944456 92.161427 
L 45.152133 91.855365 
L 45.33349 92.020544 
L 45.446358 92.543435 
L 45.401636 93.349989 
L 45.198097 93.764187 
L 44.710811 93.570975 
L 44.531474 93.336633 
L 44.543688 93.015638 
L 44.7956 92.650693 
L 45.96601 91.271465 
L 46.403269 90.269231 
L 46.445828 90.112722 
L 45.312828 93.595233 
L 45.312828 93.595233 
" style="fill:none;stroke:#000000;stroke-linecap:square;stroke-opacity:0.7;stroke-width:1.2;"/>
   </g>
   <g id="line2d_5">
    <path clip-path="url(#p0f9dc8b740)" d="M 45.430455 46.548077 
L 45.270778 46.412374 
L 45.049533 45.879794 
L 44.883659 44.737697 
L 44.928127 43.523847 
L 45.136156 42.925265 
L 45.274894 42.969272 
L 45.417853 43.33976 
L 45.870692 44.760631 
L 46.013142 44.894443 
L 46.012476 45.287371 
L 45.759411 46.042525 
L 45.4876 46.389037 
L 46.722504 44.037464 
L 46.758088 43.761242 
L 46.624499 43.989129 
L 45.329494 46.482833 
L 45.329494 46.482833 
" style="fill:none;stroke:#000000;stroke-linecap:square;stroke-opacity:0.7;stroke-width:1.2;"/>
   </g>
   <g id="line2d_6">
    <path clip-path="url(#p0f9dc8b740)" d="M 202.309771 234.898195 
L 202.138733 234.582855 
L 202.021825 233.747178 
L 202.082502 232.57705 
L 202.343305 231.413905 
L 202.638674 230.842035 
L 202.91517 230.720278 
L 203.034578 230.811928 
L 203.222948 231.31926 
L 203.29241 232.383555 
L 203.164374 233.826956 
L 203.01768 235.438107 
L 202.944648 235.411852 
L 202.952498 235.506866 
L 203.185732 237.222021 
L 203.314741 239.801401 
L 203.209702 241.95987 
L 203.093818 242.186183 
L 203.076449 242.174271 
L 202.960498 241.853809 
L 202.749087 240.327023 
L 202.23269 234.862908 
L 202.23269 234.862908 
" style="fill:none;stroke:#000000;stroke-linecap:square;stroke-opacity:0.7;stroke-width:1.2;"/>
   </g>
   <g id="line2d_7">
    <path clip-path="url(#p0f9dc8b740)" d="M 202.339645 187.811758 
L 202.173914 187.369332 
L 202.150991 186.937588 
L 202.396655 185.405473 
L 202.810999 184.52428 
L 203.067925 184.346632 
L 203.314996 184.46405 
L 203.512779 184.836308 
L 203.75429 185.816477 
L 204.001779 188.045541 
L 204.131792 191.608356 
L 204.050108 195.559818 
L 203.968245 196.274029 
L 203.914798 195.918258 
L 203.773897 192.508469 
L 203.782503 189.608695 
L 204.013371 188.381962 
L 204.593222 186.613256 
L 204.677308 185.346859 
L 204.544811 184.792449 
L 204.382439 184.829291 
L 204.058153 185.195435 
L 202.26662 187.743233 
L 202.26662 187.743233 
" style="fill:none;stroke:#000000;stroke-linecap:square;stroke-opacity:0.7;stroke-width:1.2;"/>
   </g>
   <g id="line2d_8">
    <path clip-path="url(#p0f9dc8b740)" d="M 202.345437 140.750627 
L 202.092911 141.327769 
L 202.233835 141.214448 
L 202.693432 140.945067 
L 202.948405 140.992308 
L 203.150275 141.292917 
L 203.202802 141.788715 
L 203.033673 142.581315 
L 202.648313 143.259183 
L 202.4265 143.353734 
L 202.419757 143.34366 
L 202.403802 143.071008 
L 202.738513 140.19845 
L 202.471244 141.21021 
L 202.388483 141.227224 
L 202.362088 141.188276 
L 202.246564 140.685456 
L 202.238714 140.69372 
" style="fill:none;stroke:#000000;stroke-linecap:square;stroke-opacity:0.7;stroke-width:1.2;"/>
   </g>
   <g id="line2d_9">
    <path clip-path="url(#p0f9dc8b740)" d="M 202.30537 93.675594 
L 201.98532 93.731586 
L 201.583436 93.491763 
L 201.198698 92.934826 
L 200.914987 92.144251 
L 200.847942 91.391745 
L 200.96521 91.236432 
L 200.978029 91.239866 
L 201.182713 91.418075 
L 201.706347 91.846325 
L 202.787066 92.321743 
L 203.039735 92.926932 
L 203.137021 93.718365 
L 202.956031 98.830767 
L 202.869812 98.926671 
L 202.828376 98.877618 
L 202.708736 98.336823 
L 202.472404 95.857441 
L 202.210022 93.629813 
L 202.210022 93.629813 
" style="fill:none;stroke:#000000;stroke-linecap:square;stroke-opacity:0.7;stroke-width:1.2;"/>
   </g>
   <g id="line2d_10">
    <path clip-path="url(#p0f9dc8b740)" d="M 202.333142 46.644693 
L 202.247836 48.230348 
L 202.368158 50.037049 
L 202.643628 51.190864 
L 202.927219 51.538879 
L 203.639484 52.030628 
L 203.735491 52.51405 
L 203.58531 53.046318 
L 203.451122 53.097769 
L 203.430774 53.075578 
L 203.358213 52.745778 
L 203.394165 51.672496 
L 203.736569 49.062585 
L 204.241426 46.797441 
L 204.391876 45.947012 
L 203.829215 44.334073 
L 203.65728 44.466231 
L 203.063817 45.350809 
L 202.231784 46.561029 
L 202.231784 46.561029 
" style="fill:none;stroke:#000000;stroke-linecap:square;stroke-opacity:0.7;stroke-width:1.2;"/>
   </g>
   <g id="line2d_11">
    <path clip-path="url(#p0f9dc8b740)" d="M 359.288296 234.939925 
L 359.107523 235.630264 
L 359.257494 235.708758 
L 360.400649 235.59177 
L 360.642316 235.857497 
L 360.726783 236.237039 
L 360.61685 236.659335 
L 360.368357 236.867626 
L 360.221791 236.771344 
L 360.234708 236.399841 
L 360.240103 235.761855 
L 360.316002 236.649643 
L 360.185077 238.630851 
L 359.949875 239.757778 
L 359.72643 240.017078 
L 359.604066 239.799955 
L 359.462634 238.952971 
L 359.301325 236.211276 
L 359.208484 234.903233 
L 359.208484 234.903233 
" style="fill:none;stroke:#000000;stroke-linecap:square;stroke-opacity:0.7;stroke-width:1.2;"/>
   </g>
   <g id="line2d_12">
    <path clip-path="url(#p0f9dc8b740)" d="M 359.257748 187.876022 
L 359.220128 190.665875 
L 359.07318 197.849708 
L 359.140054 197.560293 
L 359.436568 194.783966 
L 360.098409 186.164139 
L 360.009018 186.375874 
L 359.269812 188.089243 
L 358.538194 189.743328 
L 358.636169 190.379933 
L 359.75825 194.658109 
L 359.782752 195.007559 
L 359.535643 192.307278 
L 359.164577 187.87393 
L 359.155784 187.846401 
L 359.155784 187.846401 
" style="fill:none;stroke:#000000;stroke-linecap:square;stroke-opacity:0.7;stroke-width:1.2;"/>
   </g>
   <g id="line2d_13">
    <path clip-path="url(#p0f9dc8b740)" d="M 359.272902 140.830975 
L 359.607763 150.58069 
L 359.728361 150.746873 
L 359.755107 150.731979 
L 359.899525 150.431357 
L 360.071543 149.585306 
L 360.129967 148.235749 
L 359.978125 147.179008 
L 359.368677 144.77269 
L 359.108189 141.505463 
L 359.246994 140.405716 
L 359.566072 139.883515 
L 360.251291 138.960769 
L 360.355493 138.370131 
L 360.318935 138.318655 
L 360.249361 138.39581 
L 359.91685 139.126206 
L 359.172383 140.734387 
L 359.172383 140.734387 
" style="fill:none;stroke:#000000;stroke-linecap:square;stroke-opacity:0.7;stroke-width:1.2;"/>
   </g>
   <g id="line2d_14">
    <path clip-path="url(#p0f9dc8b740)" d="M 359.295211 93.618635 
L 359.044204 93.279084 
L 358.504128 91.984091 
L 357.909932 89.886139 
L 357.931155 89.566935 
L 357.96207 89.563543 
L 359.726677 89.571597 
L 361.483441 89.202233 
L 361.660436 89.437963 
L 361.720506 89.920362 
L 361.593158 90.818479 
L 361.129969 92.282734 
L 360.191542 94.506223 
L 360.170027 94.49631 
L 359.971809 94.237851 
L 359.46092 93.450817 
L 359.179193 93.570618 
L 359.179193 93.570618 
" style="fill:none;stroke:#000000;stroke-linecap:square;stroke-opacity:0.7;stroke-width:1.2;"/>
   </g>
   <g id="line2d_15">
    <path clip-path="url(#p0f9dc8b740)" d="M 359.262987 46.574544 
L 359.193367 46.501212 
L 359.188218 45.893328 
L 359.450196 44.637002 
L 359.789 43.792618 
L 360.163546 43.391566 
L 360.352896 43.457839 
L 360.501789 43.75993 
L 360.620487 44.482681 
L 360.635297 46.091664 
L 360.406172 48.730474 
L 359.897146 51.771439 
L 359.525211 52.926106 
L 359.489552 52.764014 
L 359.549323 51.537442 
L 360.027083 47.227741 
L 360.364443 45.652805 
L 360.414808 45.353413 
L 360.289862 45.101939 
L 360.259912 45.114354 
L 360.015633 45.403707 
L 359.172682 46.527561 
L 359.172682 46.527561 
" style="fill:none;stroke:#000000;stroke-linecap:square;stroke-opacity:0.7;stroke-width:1.2;"/>
   </g>
   <g id="line2d_16">
    <path clip-path="url(#p0f9dc8b740)" d="M 516.211151 234.961487 
L 516.116431 236.750539 
L 516.24488 237.831639 
L 516.501843 238.382544 
L 516.83175 238.548662 
L 517.280728 238.752916 
L 517.41404 239.016873 
L 517.40524 239.498605 
L 517.143277 240.118897 
L 516.809913 240.406733 
L 516.679362 240.288173 
L 516.631654 239.839429 
L 516.718673 236.098147 
L 516.775196 235.279474 
L 516.614239 236.417896 
L 516.360419 236.728343 
L 516.207192 236.568682 
L 516.088607 236.019212 
L 516.104532 234.95646 
L 516.115758 234.904032 
L 516.115758 234.904032 
" style="fill:none;stroke:#000000;stroke-linecap:square;stroke-opacity:0.7;stroke-width:1.2;"/>
   </g>
   <g id="line2d_17">
    <path clip-path="url(#p0f9dc8b740)" d="M 516.245987 187.800212 
L 516.00967 187.73399 
L 515.870745 187.582898 
L 515.611446 186.842328 
L 515.598702 185.876251 
L 515.765429 185.416336 
L 515.971152 185.375898 
L 516.158923 185.619093 
L 516.390338 186.30642 
L 516.744499 187.411326 
L 517.269338 187.862721 
L 517.643958 188.343633 
L 517.670323 188.323437 
L 518.018931 187.912026 
L 518.068315 187.522576 
L 517.909356 186.425583 
L 517.68291 185.860968 
L 517.524101 185.895394 
L 517.192114 186.272808 
L 516.128487 187.736484 
L 516.128487 187.736484 
" style="fill:none;stroke:#000000;stroke-linecap:square;stroke-opacity:0.7;stroke-width:1.2;"/>
   </g>
   <g id="line2d_18">
    <path clip-path="url(#p0f9dc8b740)" d="M 516.238563 140.683776 
L 516.003833 140.311544 
L 515.521247 138.984839 
L 514.971233 136.690689 
L 514.847634 135.815662 
L 514.935634 135.923279 
L 515.32276 136.279113 
L 515.768265 136.429445 
L 516.388422 136.3623 
L 516.89554 136.319255 
L 516.970279 136.5105 
L 516.896984 137.092932 
L 516.529623 138.173921 
L 515.78758 139.685278 
L 515.183505 140.661541 
L 515.423167 140.463133 
L 515.935546 139.802853 
L 516.240779 139.020669 
L 516.291742 138.804116 
L 516.263491 139.351229 
L 516.124985 140.628602 
L 516.124985 140.628602 
" style="fill:none;stroke:#000000;stroke-linecap:square;stroke-opacity:0.7;stroke-width:1.2;"/>
   </g>
   <g id="line2d_19">
    <path clip-path="url(#p0f9dc8b740)" d="M 516.220595 93.674888 
L 516.467509 96.492183 
L 517.297895 106.601652 
L 517.589732 108.067475 
L 517.658492 108.064904 
L 517.666716 108.053081 
L 517.787247 107.517806 
L 517.887991 105.846604 
L 517.855205 102.522287 
L 517.573306 98.055183 
L 517.239066 95.691316 
L 517.071352 95.543629 
L 516.759017 95.717964 
L 516.330731 95.932318 
L 516.335798 95.894054 
L 516.654666 95.387421 
L 516.89688 94.790921 
L 516.900644 94.185731 
L 516.641884 93.355228 
L 516.345631 92.961531 
L 516.226754 93.07231 
L 516.142422 93.563089 
L 516.156947 93.632304 
L 516.156947 93.632304 
" style="fill:none;stroke:#000000;stroke-linecap:square;stroke-opacity:0.7;stroke-width:1.2;"/>
   </g>
   <g id="line2d_20">
    <path clip-path="url(#p0f9dc8b740)" d="M 516.22971 46.583605 
L 515.869683 47.034323 
L 515.686679 47.016999 
L 515.664475 46.751757 
L 515.839367 46.311382 
L 516.126429 46.071963 
L 516.264314 46.115882 
L 516.257774 46.152824 
L 516.102213 46.180278 
L 515.777851 45.998575 
L 515.372002 45.637829 
L 515.33644 45.749178 
L 515.228938 46.235362 
L 515.354685 46.212749 
L 515.726334 46.434837 
L 515.992316 46.584954 
L 516.008301 46.529776 
L 515.999665 46.231765 
L 516.119103 46.461314 
L 516.144173 46.552338 
L 516.144173 46.552338 
" style="fill:none;stroke:#000000;stroke-linecap:square;stroke-opacity:0.7;stroke-width:1.2;"/>
   </g>
   <g id="line2d_21">
    <path clip-path="url(#p0f9dc8b740)" d="M 673.107065 234.891276 
L 672.896627 234.557265 
L 672.493044 233.416281 
L 672.142154 231.685223 
L 671.989639 229.877099 
L 672.063404 229.186306 
L 672.092688 229.242394 
L 672.144279 229.979929 
L 672.23763 233.521713 
L 672.50088 234.067767 
L 672.598279 234.808176 
L 672.668288 235.750762 
L 673.166904 238.065722 
L 673.461825 240.642232 
L 673.4252 241.420725 
L 673.380291 241.288208 
L 673.289111 240.157189 
L 673.041793 234.82199 
L 673.041793 234.82199 
" style="fill:none;stroke:#000000;stroke-linecap:square;stroke-opacity:0.7;stroke-width:1.2;"/>
   </g>
   <g id="line2d_22">
    <path clip-path="url(#p0f9dc8b740)" d="M 673.176281 187.811998 
L 673.182956 187.378145 
L 673.557136 185.688162 
L 674.036751 184.523138 
L 674.426115 184.066379 
L 674.642652 184.065808 
L 674.817746 184.36309 
L 674.894228 184.944797 
L 674.797652 186.29916 
L 674.429235 188.042532 
L 674.027277 189.478263 
L 674.132324 189.404616 
L 674.329644 189.025517 
L 674.475641 188.127254 
L 674.191467 189.169822 
L 673.833205 189.543201 
L 673.620768 189.536029 
L 673.412897 189.285159 
L 673.211057 188.596784 
L 673.097337 187.763207 
L 673.097337 187.763207 
" style="fill:none;stroke:#000000;stroke-linecap:square;stroke-opacity:0.7;stroke-width:1.2;"/>
   </g>
   <g id="line2d_23">
    <path clip-path="url(#p0f9dc8b740)" d="M 673.153074 140.686919 
L 672.830839 140.206659 
L 672.417992 138.994833 
L 672.117189 137.337706 
L 672.064145 136.147759 
L 672.15091 135.904623 
L 672.205091 135.936011 
L 673.131649 136.869631 
L 673.661719 137.016088 
L 674.784182 137.106553 
L 674.827774 137.512083 
L 674.652254 138.503095 
L 674.026214 140.473543 
L 672.913008 143.800896 
L 673.249066 144.221113 
L 673.390409 144.443658 
L 673.150769 143.955243 
L 673.051934 143.037346 
L 673.060966 140.65716 
L 673.060966 140.65716 
" style="fill:none;stroke:#000000;stroke-linecap:square;stroke-opacity:0.7;stroke-width:1.2;"/>
   </g>
   <g id="line2d_24">
    <path clip-path="url(#p0f9dc8b740)" d="M 673.19814 93.684275 
L 672.205188 95.094013 
L 672.20343 95.090682 
L 672.255875 95.013507 
L 674.007625 92.574448 
L 675.448036 90.575117 
L 675.490909 90.715027 
L 675.360126 91.380304 
L 674.82936 92.90827 
L 673.89124 94.941135 
L 673.725307 94.876957 
L 673.513087 94.418446 
L 673.126238 93.648944 
L 673.082968 93.630656 
L 673.082968 93.630656 
" style="fill:none;stroke:#000000;stroke-linecap:square;stroke-opacity:0.7;stroke-width:1.2;"/>
   </g>
   <g id="line2d_25">
    <path clip-path="url(#p0f9dc8b740)" d="M 673.119181 46.660417 
L 673.044502 48.332635 
L 673.169314 50.099344 
L 673.487261 51.59418 
L 673.756648 52.137875 
L 674.195313 52.470554 
L 674.854153 52.877533 
L 675.167341 53.419767 
L 675.273032 54.10961 
L 675.148468 54.455491 
L 675.133822 54.450856 
L 675.039245 54.282957 
L 674.835931 53.295213 
L 674.2242 48.936268 
L 674.225046 48.694926 
L 674.293303 51.515386 
L 674.099666 52.944363 
L 674.02355 52.999104 
L 673.985197 52.951951 
L 673.860086 52.466632 
L 673.587324 50.242503 
L 673.115933 46.771867 
L 673.057861 46.596068 
L 673.057861 46.596068 
" style="fill:none;stroke:#000000;stroke-linecap:square;stroke-opacity:0.7;stroke-width:1.2;"/>
   </g>
  </g>
 </g>
 <defs>
  <clipPath id="p0f9dc8b740">
   <rect height="262.08" width="694.08" x="12.96" y="12.96"/>
  </clipPath>
 </defs>
</svg>
