<?xml version="1.0" encoding="utf-8" standalone="no"?>
<!DOCTYPE svg PUBLIC "-//W3C//DTD SVG 1.1//EN"
  "http://www.w3.org/Graphics/SVG/1.1/DTD/svg11.dtd">
<!-- Created with matplotlib (https://matplotlib.org/) -->
<svg height="288pt" version="1.1" viewBox="0 0 720 288" width="720pt" xmlns="http://www.w3.org/2000/svg" xmlns:xlink="http://www.w3.org/1999/xlink">
 <metadata>
  <rdf:RDF xmlns:cc="http://creativecommons.org/ns#" xmlns:dc="http://purl.org/dc/elements/1.1/" xmlns:rdf="http://www.w3.org/1999/02/22-rdf-syntax-ns#">
   <cc:Work>
    <dc:type rdf:resource="http://purl.org/dc/dcmitype/StillImage"/>
    <dc:date>2020-12-22T14:52:18.379392</dc:date>
    <dc:format>image/svg+xml</dc:format>
    <dc:creator>
     <cc:Agent>
      <dc:title>Matplotlib v3.3.2, https://matplotlib.org/</dc:title>
     </cc:Agent>
    </dc:creator>
   </cc:Work>
  </rdf:RDF>
 </metadata>
 <defs>
  <style type="text/css">*{stroke-linecap:butt;stroke-linejoin:round;}</style>
 </defs>
 <g id="figure_1">
  <g id="patch_1">
   <path d="M 0 288 
L 720 288 
L 720 0 
L 0 0 
z
" style="fill:#ffffff;"/>
  </g>
  <g id="axes_1">
   <g id="line2d_1">
    <path clip-path="url(#p75c0761b9f)" d="M 49.345785 241.445163 
L 48.308698 242.930365 
L 47.754841 243.891327 
L 47.708889 244.3822 
L 47.781056 245.30638 
L 47.718703 245.631957 
L 47.913324 245.153071 
L 48.290339 243.865895 
L 48.550599 242.229971 
L 48.58219 240.492413 
L 48.384642 238.866265 
L 48.116703 238.064562 
L 47.948964 237.975459 
L 47.711911 238.16372 
L 47.330194 238.83751 
L 46.455632 240.997747 
L 45.238007 244.621347 
L 44.782722 246.542329 
L 44.852791 246.975697 
L 45.039286 246.997416 
L 45.509474 246.669002 
L 46.281555 245.832606 
L 47.755531 243.824891 
L 48.976728 241.741321 
L 49.036007 241.629436 
L 49.036007 241.629436 
" style="fill:none;stroke:#000000;stroke-linecap:square;stroke-opacity:0.7;stroke-width:1.2;"/>
   </g>
   <g id="line2d_2">
    <path clip-path="url(#p75c0761b9f)" d="M 49.452359 195.219573 
L 49.174085 194.989071 
L 48.721323 194.346975 
L 47.97509 193.226867 
L 47.810388 193.301588 
L 47.541018 193.761889 
L 47.372758 194.473847 
L 47.460233 195.015555 
L 47.669853 195.220245 
L 48.074821 195.291722 
L 48.725717 195.150118 
L 49.598556 194.762366 
L 51.018929 193.881322 
L 52.421441 192.865196 
L 52.359066 193.018061 
L 51.320021 194.42251 
L 48.400507 198.416415 
L 47.99028 199.047115 
L 48.158621 198.608757 
L 48.93932 196.32494 
L 49.249574 195.334702 
L 49.249574 195.334702 
" style="fill:none;stroke:#000000;stroke-linecap:square;stroke-opacity:0.7;stroke-width:1.2;"/>
   </g>
   <g id="line2d_3">
    <path clip-path="url(#p75c0761b9f)" d="M 49.556454 148.908002 
L 50.121196 147.252541 
L 50.331652 145.962214 
L 50.24073 145.088763 
L 49.907548 144.346248 
L 49.334005 143.639612 
L 47.951032 142.050705 
L 47.308175 140.856966 
L 46.933507 139.694202 
L 46.692178 138.173402 
L 46.673453 136.368408 
L 46.935796 134.474707 
L 47.244847 133.42378 
L 47.615899 132.676991 
L 48.004451 132.292969 
L 48.339907 132.258349 
L 48.624027 132.466131 
L 48.899859 132.928801 
L 49.205734 133.885821 
L 49.447921 135.269852 
L 49.644919 137.8399 
L 49.655063 141.19459 
L 49.394407 146.056051 
L 48.841702 151.92246 
L 48.098931 156.618011 
L 47.621356 158.691487 
L 47.607654 158.676278 
L 47.614982 158.190858 
L 47.969523 155.444485 
L 48.78961 150.843696 
L 49.220088 149.059565 
L 49.220088 149.059565 
" style="fill:none;stroke:#000000;stroke-linecap:square;stroke-opacity:0.7;stroke-width:1.2;"/>
   </g>
   <g id="line2d_4">
    <path clip-path="url(#p75c0761b9f)" d="M 49.497798 102.883798 
L 49.382767 102.894851 
L 48.646112 102.927388 
L 48.084085 102.795746 
L 47.423375 102.370545 
L 47.003562 101.820072 
L 46.622865 100.841274 
L 46.45195 99.847017 
L 46.416816 98.154887 
L 46.626891 96.190733 
L 47.052954 94.231874 
L 47.609811 92.64458 
L 47.958491 92.055366 
L 48.088031 92.028457 
L 48.025458 92.473484 
L 47.088044 94.411827 
L 46.044979 95.913196 
L 45.04497 97.044192 
L 44.509091 97.536084 
L 44.838364 97.36253 
L 45.635427 97.14031 
L 46.048999 97.200044 
L 46.493853 97.50802 
L 46.904183 98.126051 
L 47.524111 99.566568 
L 48.769183 102.395678 
L 49.200849 103.025937 
L 49.200849 103.025937 
" style="fill:none;stroke:#000000;stroke-linecap:square;stroke-opacity:0.7;stroke-width:1.2;"/>
   </g>
   <g id="line2d_5">
    <path clip-path="url(#p75c0761b9f)" d="M 49.522677 56.744714 
L 49.136919 57.166815 
L 48.507485 57.526956 
L 48.021615 57.630805 
L 47.424806 57.502734 
L 47.057157 57.170191 
L 46.622329 56.775462 
L 45.910481 56.393168 
L 45.884927 56.013052 
L 46.13841 55.423215 
L 46.156211 55.396699 
L 45.719095 56.20665 
L 45.853285 56.41484 
L 46.783335 57.12206 
L 47.151798 57.775432 
L 47.472929 57.781771 
L 48.264168 57.511806 
L 49.075901 56.989128 
L 49.169853 56.907818 
L 49.169853 56.907818 
" style="fill:none;stroke:#000000;stroke-linecap:square;stroke-opacity:0.7;stroke-width:1.2;"/>
   </g>
   <g id="line2d_6">
    <path clip-path="url(#p75c0761b9f)" d="M 203.422832 241.216551 
L 203.826582 240.290537 
L 203.786138 239.799168 
L 203.463635 239.226203 
L 203.002476 238.270858 
L 202.786811 237.233431 
L 202.76843 236.186997 
L 202.989933 235.05031 
L 203.297906 234.558199 
L 203.559882 234.511403 
L 203.738748 234.713272 
L 203.86699 235.252492 
L 203.816812 236.205459 
L 203.537049 237.167579 
L 203.246357 237.635802 
L 202.879758 237.841925 
L 202.581547 237.77577 
L 202.085548 237.349455 
L 201.230173 236.129773 
L 199.897186 233.898207 
L 199.951192 234.201374 
L 200.735324 236.567469 
L 201.79886 239.116648 
L 202.797872 240.956623 
L 203.132866 241.323742 
L 203.132866 241.323742 
" style="fill:none;stroke:#000000;stroke-linecap:square;stroke-opacity:0.7;stroke-width:1.2;"/>
   </g>
   <g id="line2d_7">
    <path clip-path="url(#p75c0761b9f)" d="M 203.275894 195.23923 
L 202.952277 195.280874 
L 202.594112 195.082583 
L 202.078381 194.653218 
L 202.043101 194.692295 
L 201.821715 195.193026 
L 200.322787 199.844667 
L 200.308873 199.996916 
L 200.431811 199.849189 
L 202.347832 197.04618 
L 203.274149 196.21771 
L 203.904617 195.581089 
L 204.265723 194.873033 
L 204.616392 193.652753 
L 204.953791 191.508548 
L 205.012594 189.92529 
L 204.934076 190.054981 
L 204.416379 191.77147 
L 203.524404 194.419789 
L 203.106314 195.388037 
L 203.106314 195.388037 
" style="fill:none;stroke:#000000;stroke-linecap:square;stroke-opacity:0.7;stroke-width:1.2;"/>
   </g>
   <g id="line2d_8">
    <path clip-path="url(#p75c0761b9f)" d="M 203.25433 149.123224 
L 202.265154 150.531071 
L 201.403413 151.371493 
L 200.572639 151.879061 
L 200.060275 151.989653 
L 199.641247 151.886094 
L 199.270848 151.509578 
L 199.040814 150.946034 
L 198.880058 149.901118 
L 198.876214 148.403274 
L 199.149002 145.776627 
L 199.688248 142.988021 
L 200.276996 140.97033 
L 200.604135 139.956278 
L 200.560251 139.965732 
L 200.015731 140.668345 
L 199.435235 141.739131 
L 199.031734 142.953961 
L 198.985855 144.089631 
L 199.217802 144.767197 
L 199.44433 145.078979 
L 200.158943 145.572131 
L 200.970896 145.790164 
L 202.126828 146.004399 
L 202.368934 146.333431 
L 202.630331 147.305412 
L 203.093904 149.242172 
L 203.093904 149.242172 
" style="fill:none;stroke:#000000;stroke-linecap:square;stroke-opacity:0.7;stroke-width:1.2;"/>
   </g>
   <g id="line2d_9">
    <path clip-path="url(#p75c0761b9f)" d="M 203.29572 103.109821 
L 202.212967 104.484079 
L 201.377264 105.203239 
L 200.596653 105.585411 
L 200.126596 105.896274 
L 199.794353 106.425545 
L 199.320108 107.611323 
L 198.50294 110.315527 
L 197.911581 113.012925 
L 197.911507 113.779685 
L 198.085613 113.957101 
L 198.374068 113.871839 
L 198.984146 113.410387 
L 200.702861 111.72411 
L 208.782261 103.230129 
L 208.699745 103.116604 
L 208.238651 103.039043 
L 205.124156 102.764084 
L 203.499891 102.373386 
L 203.111375 102.344573 
L 203.07234 102.519281 
L 203.027817 103.189126 
L 203.027817 103.189126 
" style="fill:none;stroke:#000000;stroke-linecap:square;stroke-opacity:0.7;stroke-width:1.2;"/>
   </g>
   <g id="line2d_10">
    <path clip-path="url(#p75c0761b9f)" d="M 203.779295 56.509215 
L 206.186849 51.929819 
L 207.120082 49.710275 
L 207.405174 48.575673 
L 207.382763 47.747971 
L 207.008065 47.134778 
L 206.472604 46.797866 
L 204.94821 46.00094 
L 204.528675 45.491574 
L 204.330827 44.882311 
L 204.366591 43.963339 
L 204.670742 42.988174 
L 205.289768 41.813117 
L 206.314276 40.425745 
L 207.239822 39.434507 
L 208.823567 38.082738 
L 210.39775 37.069902 
L 211.608627 36.495786 
L 212.981914 36.069355 
L 214.32533 35.911256 
L 214.513321 35.911965 
L 216.642402 36.381514 
L 217.083817 36.599982 
L 219.02541 38.194155 
L 219.306215 38.529237 
L 220.704349 40.855707 
L 221.167852 42.16402 
L 221.322517 44.563709 
L 220.919584 45.514467 
L 220.647607 45.835711 
L 216.850758 46.849831 
L 213.567149 46.625732 
L 210.207493 46.260754 
L 206.879223 46.246482 
L 205.765847 46.557254 
L 205.057564 46.995343 
L 204.343479 47.855189 
L 203.97784 48.608922 
L 203.478092 50.258576 
L 202.993901 52.90512 
L 202.738702 55.501528 
L 202.813062 56.679816 
L 202.905195 56.737973 
L 202.934028 56.716843 
L 203.091271 56.507477 
L 203.091271 56.507477 
" style="fill:none;stroke:#000000;stroke-linecap:square;stroke-opacity:0.7;stroke-width:1.2;"/>
   </g>
   <g id="line2d_11">
    <path clip-path="url(#p75c0761b9f)" d="M 357.082465 241.515192 
L 356.665922 241.876258 
L 356.221897 241.995552 
L 355.844977 241.950328 
L 355.297194 241.655231 
L 354.770094 241.012876 
L 354.410331 240.097791 
L 354.256124 239.093308 
L 354.297932 237.799941 
L 354.341758 237.503942 
L 354.68237 236.286028 
L 355.4129 235.197574 
L 356.001729 234.874193 
L 356.652756 234.818589 
L 357.432876 234.998946 
L 358.496625 235.494188 
L 359.903927 236.417737 
L 361.019063 237.314206 
L 362.803443 239.05716 
L 364.003688 240.560754 
L 364.62076 241.640744 
L 364.808303 242.714013 
L 364.595678 243.092807 
L 364.182708 243.35718 
L 363.494995 243.547976 
L 362.801041 243.62793 
L 360.980908 243.584825 
L 359.241281 243.272277 
L 358.105476 242.843281 
L 357.309395 242.312816 
L 356.837417 241.735632 
L 356.801447 241.562505 
L 356.801447 241.562505 
" style="fill:none;stroke:#000000;stroke-linecap:square;stroke-opacity:0.7;stroke-width:1.2;"/>
   </g>
   <g id="line2d_12">
    <path clip-path="url(#p75c0761b9f)" d="M 356.921019 195.313941 
L 356.647974 194.926426 
L 356.384949 194.001723 
L 356.118 192.061086 
L 355.770434 189.921771 
L 355.436657 189.048389 
L 355.075449 188.599472 
L 354.737939 188.399525 
L 354.105057 188.314473 
L 353.219023 188.503329 
L 351.337674 189.217514 
L 351.279274 189.41934 
L 351.605569 190.390246 
L 351.968186 191.922933 
L 352.516674 194.748653 
L 352.531857 194.743969 
L 352.714038 194.531454 
L 352.961359 193.841819 
L 353.121918 193.207631 
L 353.190901 193.290158 
L 353.879615 194.135565 
L 354.72756 194.827705 
L 355.853698 195.429328 
L 356.538723 195.564385 
L 356.642334 195.540134 
L 356.642334 195.540134 
" style="fill:none;stroke:#000000;stroke-linecap:square;stroke-opacity:0.7;stroke-width:1.2;"/>
   </g>
   <g id="line2d_13">
    <path clip-path="url(#p75c0761b9f)" d="M 357.233722 148.986354 
L 357.26502 148.413411 
L 357.108518 147.480307 
L 356.635424 146.169928 
L 355.22887 142.758364 
L 355.111998 141.815763 
L 355.233638 140.877839 
L 355.51577 140.371285 
L 355.846613 140.202218 
L 356.180037 140.271092 
L 356.641762 140.634927 
L 357.216896 141.384489 
L 358.239284 143.185345 
L 359.778048 146.474225 
L 361.11853 149.819497 
L 361.168498 149.99505 
L 360.770642 148.406282 
L 359.925015 144.29217 
L 359.685043 144.537985 
L 359.225277 145.304903 
L 357.392088 148.420819 
L 356.889362 149.074246 
L 356.889362 149.074246 
" style="fill:none;stroke:#000000;stroke-linecap:square;stroke-opacity:0.7;stroke-width:1.2;"/>
   </g>
   <g id="line2d_14">
    <path clip-path="url(#p75c0761b9f)" d="M 357.073377 102.894333 
L 357.240236 102.160933 
L 357.242245 100.995533 
L 356.987508 99.535631 
L 356.45804 97.991944 
L 355.714007 96.5742 
L 354.976634 95.586194 
L 354.363755 95.015179 
L 353.66519 94.662107 
L 353.122072 94.669384 
L 352.729236 94.942356 
L 352.575557 95.302844 
L 352.627282 95.677412 
L 352.894298 95.998925 
L 353.312571 96.195221 
L 354.070488 96.277876 
L 355.308482 96.092594 
L 356.614462 95.877426 
L 356.835018 96.037774 
L 356.923571 96.386512 
L 356.849189 97.168378 
L 356.487562 98.600992 
L 355.504489 101.525508 
L 353.78818 106.535714 
L 353.876212 106.735559 
L 354.063696 106.669381 
L 354.395045 106.386599 
L 355.56839 104.956319 
L 356.78121 103.077587 
L 356.78121 103.077587 
" style="fill:none;stroke:#000000;stroke-linecap:square;stroke-opacity:0.7;stroke-width:1.2;"/>
   </g>
   <g id="line2d_15">
    <path clip-path="url(#p75c0761b9f)" d="M 357.282066 56.74334 
L 357.248722 56.64429 
L 357.235549 56.641616 
L 355.149875 56.338264 
L 354.541975 55.980501 
L 354.004241 55.406047 
L 353.66475 54.762698 
L 353.393921 53.717647 
L 353.318974 52.434407 
L 353.474823 50.749376 
L 353.869567 48.922213 
L 354.859843 46.130045 
L 355.521513 44.811214 
L 356.240329 43.704942 
L 356.936458 42.929823 
L 357.745837 42.4088 
L 358.215321 42.310155 
L 358.766273 42.398552 
L 359.449031 42.814734 
L 359.973263 43.344943 
L 360.900746 44.634005 
L 362.285978 47.09415 
L 364.373423 51.48073 
L 365.407367 54.12703 
L 365.613848 55.109176 
L 365.531013 55.621607 
L 365.268549 55.908517 
L 364.701625 56.109505 
L 363.721651 56.164083 
L 362.175677 55.985865 
L 360.573563 55.818551 
L 359.599578 55.978864 
L 358.002569 56.519147 
L 356.913596 56.847768 
L 356.913596 56.847768 
" style="fill:none;stroke:#000000;stroke-linecap:square;stroke-opacity:0.7;stroke-width:1.2;"/>
   </g>
   <g id="line2d_16">
    <path clip-path="url(#p75c0761b9f)" d="M 510.915418 241.341717 
L 510.298123 241.209636 
L 510.313159 241.236028 
L 511.880536 242.940164 
L 513.640722 244.600634 
L 514.717607 245.353444 
L 515.49956 245.65154 
L 516.118693 245.637425 
L 516.655082 245.392142 
L 517.11257 245.019401 
L 518.37402 243.510122 
L 521.918073 238.226281 
L 524.474926 233.945696 
L 525.064576 232.72861 
L 525.555563 231.220736 
L 525.560257 230.281457 
L 525.214063 229.638181 
L 523.182948 229.025902 
L 521.960559 229.097392 
L 520.327463 229.39809 
L 518.361218 230.010321 
L 517.577625 230.33632 
L 515.516075 231.518626 
L 514.528149 232.358225 
L 513.601304 233.448073 
L 512.9012 234.576285 
L 512.049969 236.40032 
L 510.730361 239.923083 
L 510.413103 241.207509 
L 510.530217 241.345788 
L 510.567309 241.364055 
L 510.567309 241.364055 
" style="fill:none;stroke:#000000;stroke-linecap:square;stroke-opacity:0.7;stroke-width:1.2;"/>
   </g>
   <g id="line2d_17">
    <path clip-path="url(#p75c0761b9f)" d="M 511.082695 195.075111 
L 514.714013 186.836386 
L 514.79215 186.735433 
L 514.769442 186.905527 
L 514.081315 189.123175 
L 510.061077 201.023334 
L 509.488678 202.581542 
L 511.338004 197.585814 
L 512.638336 194.734381 
L 513.542135 193.232352 
L 513.972393 192.819858 
L 514.151963 192.818469 
L 514.237633 193.033232 
L 514.152022 193.684624 
L 513.764217 194.743952 
L 512.929461 196.273736 
L 511.782484 197.824974 
L 510.575194 199.012588 
L 509.854332 199.478747 
L 509.318416 199.601197 
L 509.098923 199.484101 
L 508.996383 199.165644 
L 509.147618 198.332429 
L 509.690267 197.071262 
L 510.726525 195.263099 
L 510.726525 195.263099 
" style="fill:none;stroke:#000000;stroke-linecap:square;stroke-opacity:0.7;stroke-width:1.2;"/>
   </g>
   <g id="line2d_18">
    <path clip-path="url(#p75c0761b9f)" d="M 510.994296 148.860009 
L 512.133622 146.738975 
L 514.570288 142.254116 
L 514.539372 142.276431 
L 514.246853 142.809814 
L 513.804045 144.018378 
L 513.437365 145.744344 
L 513.348636 147.500191 
L 513.522756 148.777514 
L 513.860384 149.636262 
L 514.307747 150.182685 
L 514.895534 150.542514 
L 515.469011 150.663538 
L 515.748884 150.546046 
L 515.780585 150.312563 
L 515.571856 149.727053 
L 515.202597 148.682872 
L 514.938879 147.28611 
L 514.868586 145.550978 
L 514.958466 143.912849 
L 514.875282 143.978241 
L 511.293577 148.588633 
L 510.823755 149.01433 
L 510.823755 149.01433 
" style="fill:none;stroke:#000000;stroke-linecap:square;stroke-opacity:0.7;stroke-width:1.2;"/>
   </g>
   <g id="line2d_19">
    <path clip-path="url(#p75c0761b9f)" d="M 510.881326 102.954289 
L 511.090455 102.140453 
L 513.110366 95.351357 
L 513.046846 95.277705 
L 513.008302 95.296656 
L 512.676785 95.715021 
L 511.732146 97.392979 
L 509.727756 101.495255 
L 508.323189 104.812779 
L 508.180205 105.549112 
L 508.279349 105.500777 
L 508.695979 104.928152 
L 509.602111 103.280031 
L 511.559866 99.152971 
L 507.107926 108.451247 
L 507.06969 108.734769 
L 507.127099 108.715645 
L 507.494814 108.310501 
L 508.626842 106.662866 
L 510.164762 104.048496 
L 510.663505 103.065035 
L 510.663505 103.065035 
" style="fill:none;stroke:#000000;stroke-linecap:square;stroke-opacity:0.7;stroke-width:1.2;"/>
   </g>
   <g id="line2d_20">
    <path clip-path="url(#p75c0761b9f)" d="M 510.950691 56.784207 
L 510.772184 56.153103 
L 510.251231 54.180669 
L 510.071339 54.193056 
L 509.799534 54.45926 
L 509.371989 55.231472 
L 509.10837 56.161688 
L 509.167833 56.732742 
L 509.431181 57.051561 
L 509.867703 57.198274 
L 510.569216 57.15465 
L 511.32285 56.885216 
L 511.900706 56.463152 
L 512.024429 56.141465 
L 511.852297 56.114975 
L 511.370182 56.318148 
L 510.449021 56.976967 
L 509.467092 57.962189 
L 509.115309 58.557834 
L 509.169161 58.639875 
L 509.21303 58.635489 
L 509.595693 58.390316 
L 510.240721 57.671162 
L 510.673084 56.917159 
L 510.673084 56.917159 
" style="fill:none;stroke:#000000;stroke-linecap:square;stroke-opacity:0.7;stroke-width:1.2;"/>
   </g>
   <g id="line2d_21">
    <path clip-path="url(#p75c0761b9f)" d="M 664.750799 241.349156 
L 664.694739 241.178527 
L 664.885627 240.900304 
L 665.21812 240.753499 
L 665.468742 240.818774 
L 665.799027 241.130704 
L 666.251312 241.999551 
L 666.6898 243.366988 
L 667.237686 245.849194 
L 668.472085 252.088744 
L 668.6225 251.957749 
L 668.922745 251.265609 
L 675.081551 234.0389 
L 675.490121 231.597784 
L 675.39731 231.110472 
L 675.203118 230.740278 
L 674.780316 230.400644 
L 674.121271 230.22652 
L 673.011753 230.274168 
L 671.636409 230.605016 
L 669.883891 231.300519 
L 668.384347 232.133242 
L 666.995777 233.182203 
L 666.016217 234.192492 
L 665.085859 235.51522 
L 664.36554 236.932183 
L 663.72814 238.68951 
L 663.44812 240.058251 
L 663.47619 240.845136 
L 663.703026 241.286957 
L 664.047372 241.436704 
L 664.465828 241.386946 
L 664.465828 241.386946 
" style="fill:none;stroke:#000000;stroke-linecap:square;stroke-opacity:0.7;stroke-width:1.2;"/>
   </g>
   <g id="line2d_22">
    <path clip-path="url(#p75c0761b9f)" d="M 664.877075 195.170833 
L 664.66529 195.24329 
L 663.482381 195.731862 
L 662.673897 195.861578 
L 661.922845 195.782657 
L 661.335248 195.521063 
L 660.844962 195.084316 
L 660.355432 194.278869 
L 660.004595 193.156722 
L 659.804685 191.640841 
L 659.789818 189.847211 
L 659.988876 187.606021 
L 660.375038 185.38375 
L 661.030848 182.909722 
L 661.677152 181.208634 
L 662.372562 179.958623 
L 662.919356 179.38902 
L 663.309441 179.252287 
L 663.623942 179.374424 
L 663.893752 179.757808 
L 664.121446 180.555449 
L 664.239491 182.129922 
L 664.13869 184.270197 
L 663.718509 187.594595 
L 662.346473 196.974279 
L 662.489391 197.46081 
L 662.715999 197.556061 
L 663.018082 197.435349 
L 663.548562 196.917793 
L 664.146817 196.03151 
L 664.555855 195.289633 
L 664.555855 195.289633 
" style="fill:none;stroke:#000000;stroke-linecap:square;stroke-opacity:0.7;stroke-width:1.2;"/>
   </g>
   <g id="line2d_23">
    <path clip-path="url(#p75c0761b9f)" d="M 664.803859 149.029106 
L 664.551073 148.765333 
L 664.381625 148.177115 
L 664.352454 147.995706 
L 664.310815 148.438479 
L 664.028301 150.603201 
L 663.534832 153.0402 
L 662.870286 155.207612 
L 662.368484 156.133245 
L 662.068506 156.305535 
L 661.906254 156.207895 
L 661.755781 155.90507 
L 661.586743 154.941709 
L 661.531505 153.577916 
L 661.635314 150.73573 
L 662.059294 146.263265 
L 662.84014 140.800808 
L 663.755902 136.124914 
L 664.146684 134.739334 
L 663.981843 135.646935 
L 662.866971 141.260885 
L 662.623581 143.616303 
L 662.673582 145.164434 
L 662.915351 146.423371 
L 663.394818 147.680879 
L 664.02547 148.680061 
L 664.544068 149.125009 
L 664.544068 149.125009 
" style="fill:none;stroke:#000000;stroke-linecap:square;stroke-opacity:0.7;stroke-width:1.2;"/>
   </g>
   <g id="line2d_24">
    <path clip-path="url(#p75c0761b9f)" d="M 664.938709 102.805076 
L 665.940068 99.492384 
L 666.207648 97.992285 
L 666.222075 96.697507 
L 666.036439 96.062902 
L 665.783243 95.793233 
L 665.473143 95.765463 
L 665.1723 95.985726 
L 664.997871 96.301484 
L 664.93942 97.209906 
L 665.143364 97.777284 
L 665.581866 98.366869 
L 666.400868 99.029963 
L 670.344097 101.784932 
L 670.93227 102.443005 
L 671.236494 103.048845 
L 671.245263 103.600699 
L 671.047807 104.065826 
L 670.518694 104.727016 
L 669.529188 105.579279 
L 668.458479 106.288876 
L 666.836781 107.054577 
L 665.898692 107.270874 
L 665.283084 107.231341 
L 664.840019 106.995952 
L 664.537929 106.559913 
L 664.361315 105.859249 
L 664.346572 104.655971 
L 664.593805 102.985822 
L 664.619242 102.922271 
L 664.619242 102.922271 
" style="fill:none;stroke:#000000;stroke-linecap:square;stroke-opacity:0.7;stroke-width:1.2;"/>
   </g>
   <g id="line2d_25">
    <path clip-path="url(#p75c0761b9f)" d="M 664.657669 56.95068 
L 663.414622 59.160489 
L 663.813737 59.461996 
L 664.561276 60.114834 
L 665.676749 61.122309 
L 665.899594 61.120062 
L 666.251282 60.871843 
L 667.114733 59.835364 
L 668.904837 57.782564 
L 672.301097 54.186297 
L 672.522413 53.753942 
L 672.622548 53.044225 
L 672.459507 52.420062 
L 671.589836 51.065823 
L 670.430215 49.814918 
L 668.508451 48.150166 
L 667.204679 47.25576 
L 666.134491 46.738258 
L 665.460608 46.602787 
L 664.921465 46.714389 
L 664.64344 46.92145 
L 664.336399 47.395325 
L 664.108243 48.141695 
L 663.949856 49.725928 
L 664.015935 52.019046 
L 664.359892 57.005423 
L 664.359892 57.005423 
" style="fill:none;stroke:#000000;stroke-linecap:square;stroke-opacity:0.7;stroke-width:1.2;"/>
   </g>
  </g>
 </g>
 <defs>
  <clipPath id="p75c0761b9f">
   <rect height="262.08" width="694.08" x="12.96" y="12.96"/>
  </clipPath>
 </defs>
</svg>
