<?xml version="1.0" encoding="utf-8" standalone="no"?>
<!DOCTYPE svg PUBLIC "-//W3C//DTD SVG 1.1//EN"
  "http://www.w3.org/Graphics/SVG/1.1/DTD/svg11.dtd">
<!-- Created with matplotlib (https://matplotlib.org/) -->
<svg height="288pt" version="1.1" viewBox="0 0 720 288" width="720pt" xmlns="http://www.w3.org/2000/svg" xmlns:xlink="http://www.w3.org/1999/xlink">
 <metadata>
  <rdf:RDF xmlns:cc="http://creativecommons.org/ns#" xmlns:dc="http://purl.org/dc/elements/1.1/" xmlns:rdf="http://www.w3.org/1999/02/22-rdf-syntax-ns#">
   <cc:Work>
    <dc:type rdf:resource="http://purl.org/dc/dcmitype/StillImage"/>
    <dc:date>2020-12-22T18:01:47.593866</dc:date>
    <dc:format>image/svg+xml</dc:format>
    <dc:creator>
     <cc:Agent>
      <dc:title>Matplotlib v3.3.2, https://matplotlib.org/</dc:title>
     </cc:Agent>
    </dc:creator>
   </cc:Work>
  </rdf:RDF>
 </metadata>
 <defs>
  <style type="text/css">*{stroke-linecap:butt;stroke-linejoin:round;}</style>
 </defs>
 <g id="figure_1">
  <g id="patch_1">
   <path d="M 0 288 
L 720 288 
L 720 0 
L 0 0 
z
" style="fill:#ffffff;"/>
  </g>
  <g id="axes_1">
   <g id="line2d_1">
    <path clip-path="url(#pf81e39e940)" d="M 45.70234 234.513145 
L 45.821914 233.796733 
L 46.403134 232.062844 
L 46.490185 231.915624 
L 46.331289 232.461236 
L 45.442894 235.049616 
L 45.525123 235.048264 
L 45.707453 234.849014 
L 45.924815 234.295007 
L 45.837315 234.371657 
L 45.189041 234.885591 
L 45.04324 234.83182 
L 45.040657 234.815463 
L 45.143693 234.571315 
L 45.412849 234.454841 
L 45.670969 234.481447 
L 45.670969 234.481447 
" style="fill:none;stroke:#000000;stroke-linecap:square;stroke-opacity:0.7;stroke-width:1.2;"/>
   </g>
   <g id="line2d_2">
    <path clip-path="url(#pf81e39e940)" d="M 45.711391 187.414374 
L 45.757092 186.911855 
L 46.124814 185.773776 
L 46.280977 185.538697 
L 46.278768 185.697686 
L 46.031174 186.437953 
L 45.361144 187.762368 
L 45.31495 187.797399 
L 45.469855 187.475436 
L 45.706547 187.006342 
L 45.715973 187.190566 
L 45.680373 187.399832 
L 45.680373 187.399832 
" style="fill:none;stroke:#000000;stroke-linecap:square;stroke-opacity:0.7;stroke-width:1.2;"/>
   </g>
   <g id="line2d_3">
    <path clip-path="url(#pf81e39e940)" d="M 45.705514 140.315185 
L 45.670213 140.004173 
L 45.812473 139.011588 
L 45.978691 138.700004 
L 46.006782 138.740654 
L 45.983715 139.099229 
L 45.706772 140.018019 
L 45.268927 140.929928 
L 46.064454 139.383072 
L 46.52178 139.20329 
L 46.59057 139.089385 
L 45.793104 140.159139 
L 45.667278 140.271686 
L 45.667278 140.271686 
" style="fill:none;stroke:#000000;stroke-linecap:square;stroke-opacity:0.7;stroke-width:1.2;"/>
   </g>
   <g id="line2d_4">
    <path clip-path="url(#pf81e39e940)" d="M 45.712215 93.252404 
L 45.450396 94.391099 
L 44.769472 98.401847 
L 44.772916 98.402367 
L 44.861816 98.248634 
L 45.009504 97.660831 
L 45.260123 95.517744 
L 45.556134 93.252786 
L 45.770658 93.200235 
L 47.216742 91.521755 
L 47.90924 90.407182 
L 46.368754 92.509396 
L 45.676457 93.200944 
L 45.676457 93.200944 
" style="fill:none;stroke:#000000;stroke-linecap:square;stroke-opacity:0.7;stroke-width:1.2;"/>
   </g>
   <g id="line2d_5">
    <path clip-path="url(#pf81e39e940)" d="M 45.691933 46.1716 
L 44.981683 54.350015 
L 45.000355 55.240592 
L 45.042918 55.192163 
L 45.150693 54.732713 
L 45.227869 53.618831 
L 45.190134 51.201057 
L 45.126989 47.811118 
L 45.478697 46.479353 
L 45.580609 46.340157 
L 45.61174 46.391769 
L 45.585266 47.094403 
L 45.227741 49.617434 
L 44.512198 53.573176 
L 44.570005 52.957413 
L 45.255099 48.424257 
L 45.635114 46.118558 
L 45.635114 46.118558 
" style="fill:none;stroke:#000000;stroke-linecap:square;stroke-opacity:0.7;stroke-width:1.2;"/>
   </g>
   <g id="line2d_6">
    <path clip-path="url(#pf81e39e940)" d="M 202.699903 234.49693 
L 202.659564 232.263352 
L 202.710662 230.957481 
L 202.73897 231.018477 
L 202.809003 231.991452 
L 202.969479 233.182896 
L 203.084943 233.497717 
L 202.897933 233.990964 
L 202.420602 234.68133 
L 202.669559 234.406031 
L 202.690829 234.493859 
L 202.690829 234.493859 
" style="fill:none;stroke:#000000;stroke-linecap:square;stroke-opacity:0.7;stroke-width:1.2;"/>
   </g>
   <g id="line2d_7">
    <path clip-path="url(#pf81e39e940)" d="M 202.698009 187.411604 
L 202.684286 186.948234 
L 202.929858 185.481702 
L 202.998034 185.366066 
L 203.006389 185.590357 
L 202.763767 186.798834 
L 202.484534 188.173697 
L 202.670622 187.382596 
" style="fill:none;stroke:#000000;stroke-linecap:square;stroke-opacity:0.7;stroke-width:1.2;"/>
   </g>
   <g id="line2d_8">
    <path clip-path="url(#pf81e39e940)" d="M 202.705773 140.299002 
L 202.766425 139.172681 
L 203.053962 137.309428 
L 202.702037 138.994537 
L 202.403877 140.719494 
L 202.538275 140.692715 
L 202.692371 140.386396 
L 202.951847 139.449517 
L 202.834257 139.588559 
L 202.66607 139.655985 
L 202.654285 139.623233 
L 202.708513 139.474892 
L 202.759432 139.553393 
L 202.747895 140.041283 
L 202.675399 140.283078 
L 202.675399 140.283078 
" style="fill:none;stroke:#000000;stroke-linecap:square;stroke-opacity:0.7;stroke-width:1.2;"/>
   </g>
   <g id="line2d_9">
    <path clip-path="url(#pf81e39e940)" d="M 202.735227 93.190732 
L 202.214726 92.417816 
L 201.624911 91.494637 
L 201.666104 91.333132 
L 201.693799 91.328408 
L 202.862513 91.143012 
L 203.668663 90.720182 
L 203.997737 90.546253 
L 203.991433 90.631297 
L 203.676719 91.327801 
L 202.722851 93.347428 
L 202.663517 93.069367 
L 202.741119 92.730267 
L 202.688276 93.187067 
L 202.688276 93.187067 
" style="fill:none;stroke:#000000;stroke-linecap:square;stroke-opacity:0.7;stroke-width:1.2;"/>
   </g>
   <g id="line2d_10">
    <path clip-path="url(#pf81e39e940)" d="M 202.742841 46.094695 
L 202.979362 43.665633 
L 202.952341 41.335796 
L 202.936109 41.247855 
L 203.188577 42.485194 
L 203.598533 43.349567 
L 203.999295 43.714743 
L 204.270233 43.926819 
L 204.045864 44.461773 
L 203.009818 46.270948 
L 203.002017 46.265864 
L 202.895755 46.120093 
L 202.689115 45.377692 
L 202.717632 45.082543 
L 202.695246 46.045731 
L 202.695246 46.045731 
" style="fill:none;stroke:#000000;stroke-linecap:square;stroke-opacity:0.7;stroke-width:1.2;"/>
   </g>
   <g id="line2d_11">
    <path clip-path="url(#pf81e39e940)" d="M 359.729227 234.489647 
L 359.490138 230.389048 
L 359.567643 230.73915 
L 359.920032 231.686456 
L 360.313269 232.16567 
L 360.604392 232.447333 
L 359.228679 235.609601 
L 359.705793 234.4681 
" style="fill:none;stroke:#000000;stroke-linecap:square;stroke-opacity:0.7;stroke-width:1.2;"/>
   </g>
   <g id="line2d_12">
    <path clip-path="url(#pf81e39e940)" d="M 359.734655 187.403481 
L 359.022136 184.678262 
L 359.057969 184.707517 
L 359.636621 185.357857 
L 360.108254 185.492341 
L 360.486398 185.552967 
L 360.454189 185.924462 
L 360.099412 186.894768 
L 360.063991 186.935883 
L 360.060083 186.777917 
L 359.992827 186.024394 
L 360.039808 185.943808 
L 360.078052 186.109418 
L 359.979703 186.744606 
L 359.690736 187.35775 
L 359.690736 187.35775 
" style="fill:none;stroke:#000000;stroke-linecap:square;stroke-opacity:0.7;stroke-width:1.2;"/>
   </g>
   <g id="line2d_13">
    <path clip-path="url(#pf81e39e940)" d="M 359.741176 140.333654 
L 359.682785 140.308488 
L 359.942545 140.354234 
L 360.050717 140.463193 
L 360.015423 140.830662 
L 359.655038 141.802249 
L 359.121376 142.678404 
L 358.921369 142.78531 
L 358.899462 142.751009 
L 358.862065 142.330491 
L 358.942527 141.171005 
L 359.20326 140.368766 
L 359.409721 140.241203 
L 359.558958 140.421549 
L 359.720272 140.792101 
L 359.772621 140.648778 
L 359.723724 140.324821 
L 359.680359 140.29399 
L 359.688415 140.288264 
" style="fill:none;stroke:#000000;stroke-linecap:square;stroke-opacity:0.7;stroke-width:1.2;"/>
   </g>
   <g id="line2d_14">
    <path clip-path="url(#pf81e39e940)" d="M 359.750639 93.265439 
L 359.269887 100.611729 
L 359.312982 100.605392 
L 359.334477 100.57144 
L 359.514321 99.913076 
L 359.72019 98.257087 
L 359.956216 94.067876 
L 359.952473 92.685686 
L 359.910149 92.729341 
L 359.71891 93.31489 
L 359.739372 93.465764 
L 359.817094 93.412835 
L 360.091034 93.006836 
L 360.293197 92.204514 
L 360.418259 91.683888 
L 360.124755 92.528808 
L 359.685054 93.170895 
L 359.685054 93.170895 
" style="fill:none;stroke:#000000;stroke-linecap:square;stroke-opacity:0.7;stroke-width:1.2;"/>
   </g>
   <g id="line2d_15">
    <path clip-path="url(#pf81e39e940)" d="M 359.732132 46.105338 
L 359.436539 45.993457 
L 359.254733 45.888722 
L 359.259106 45.865857 
L 359.308535 45.817697 
L 359.355785 45.916315 
L 359.366514 45.949128 
L 359.422329 45.718656 
L 359.595607 45.196384 
L 359.605714 45.404153 
L 359.616773 45.779899 
L 359.696703 45.694793 
L 359.70416 45.684959 
L 359.407602 46.049864 
L 359.683002 45.902655 
L 359.697924 46.101477 
L 359.697924 46.101477 
" style="fill:none;stroke:#000000;stroke-linecap:square;stroke-opacity:0.7;stroke-width:1.2;"/>
   </g>
   <g id="line2d_16">
    <path clip-path="url(#pf81e39e940)" d="M 516.74434 234.566537 
L 516.6956 234.989479 
L 516.804902 236.609368 
L 517.060971 237.568408 
L 517.373274 238.26745 
L 517.165272 238.764174 
L 516.724844 239.218477 
L 516.450701 239.242941 
L 516.370958 238.999178 
L 516.371392 237.847746 
L 516.565551 235.797402 
L 516.639335 235.61311 
L 516.666228 235.757698 
L 516.536195 236.947284 
L 515.967351 240.077053 
L 515.533212 241.836621 
L 515.524729 241.624682 
L 515.734724 240.005474 
L 516.69804 234.528943 
L 516.69804 234.528943 
" style="fill:none;stroke:#000000;stroke-linecap:square;stroke-opacity:0.7;stroke-width:1.2;"/>
   </g>
   <g id="line2d_17">
    <path clip-path="url(#pf81e39e940)" d="M 516.724432 187.385175 
L 516.243298 185.111116 
L 516.042782 183.991034 
L 516.092473 184.878845 
L 516.321746 185.86061 
L 516.583999 186.105508 
L 516.680903 186.317415 
L 516.710978 187.382262 
L 516.710978 187.382262 
" style="fill:none;stroke:#000000;stroke-linecap:square;stroke-opacity:0.7;stroke-width:1.2;"/>
   </g>
   <g id="line2d_18">
    <path clip-path="url(#pf81e39e940)" d="M 516.753414 140.300535 
L 516.627042 139.323725 
L 516.602327 137.713189 
L 516.613281 137.715963 
L 516.628464 137.816587 
L 516.55033 138.751686 
L 516.582232 139.295883 
L 516.716369 139.575124 
L 516.769114 139.520604 
L 517.549802 138.533471 
L 517.901194 138.234397 
L 517.912956 138.317562 
L 517.765523 138.772612 
L 517.285789 139.608928 
L 516.714534 140.254019 
L 516.714534 140.254019 
" style="fill:none;stroke:#000000;stroke-linecap:square;stroke-opacity:0.7;stroke-width:1.2;"/>
   </g>
   <g id="line2d_19">
    <path clip-path="url(#pf81e39e940)" d="M 516.752972 93.220077 
L 516.673012 93.226836 
L 516.310733 93.600929 
L 515.752063 94.266496 
L 518.531783 90.614889 
L 518.548771 90.464027 
L 518.47072 90.497022 
L 518.05151 90.9627 
L 516.897104 92.633629 
L 516.435443 93.631201 
L 515.511919 96.510818 
L 515.315626 96.913805 
L 515.384214 96.534782 
L 515.861628 95.19176 
L 516.705183 93.167158 
L 516.705183 93.167158 
" style="fill:none;stroke:#000000;stroke-linecap:square;stroke-opacity:0.7;stroke-width:1.2;"/>
   </g>
   <g id="line2d_20">
    <path clip-path="url(#pf81e39e940)" d="M 516.741899 46.120436 
L 516.461872 45.978423 
L 516.42705 45.910168 
L 516.47013 45.861462 
L 516.52295 45.887408 
L 516.536337 45.942012 
L 516.492531 46.498643 
L 516.08542 48.424915 
L 515.443047 50.763311 
L 515.519578 50.249315 
L 516.323985 46.005818 
L 516.528049 45.486361 
L 516.54193 45.591411 
L 516.343922 46.62535 
L 515.936265 47.928178 
L 515.956892 47.708711 
L 516.190507 46.971448 
L 516.689805 46.085653 
L 516.689805 46.085653 
" style="fill:none;stroke:#000000;stroke-linecap:square;stroke-opacity:0.7;stroke-width:1.2;"/>
   </g>
   <g id="line2d_21">
    <path clip-path="url(#pf81e39e940)" d="M 673.808889 234.607651 
L 673.8343 236.165554 
L 673.668307 246.752145 
L 673.805939 246.19864 
L 673.963016 244.345034 
L 674.115615 239.069865 
L 674.068634 234.118712 
L 673.913153 234.052162 
L 673.48701 234.384572 
L 673.769538 234.246613 
L 674.214862 234.087386 
L 674.61358 233.653854 
L 674.856464 233.026644 
L 674.819846 233.060069 
L 673.721067 234.493185 
L 673.721067 234.493185 
" style="fill:none;stroke:#000000;stroke-linecap:square;stroke-opacity:0.7;stroke-width:1.2;"/>
   </g>
   <g id="line2d_22">
    <path clip-path="url(#pf81e39e940)" d="M 673.772989 187.406756 
L 673.133483 186.098418 
L 673.206549 185.824841 
L 674.456032 185.406567 
L 674.928324 185.021677 
L 674.914878 185.14802 
L 674.539579 186.011419 
L 674.065377 186.75306 
L 674.914249 185.505361 
L 675.483362 184.831823 
L 675.481558 184.9238 
L 675.235259 185.489971 
L 674.54348 186.534035 
L 673.748103 187.378096 
L 673.748103 187.378096 
" style="fill:none;stroke:#000000;stroke-linecap:square;stroke-opacity:0.7;stroke-width:1.2;"/>
   </g>
   <g id="line2d_23">
    <path clip-path="url(#pf81e39e940)" d="M 673.748994 140.31591 
L 673.631052 139.870535 
L 673.675532 139.200518 
L 673.755245 139.117489 
L 673.797651 139.185411 
L 673.804539 139.584325 
L 673.585898 140.600873 
L 673.217607 141.4038 
L 673.20139 141.396676 
L 673.229766 141.283047 
L 673.478662 140.540165 
L 673.500307 140.700668 
L 673.336672 142.014549 
L 672.586793 146.066056 
L 673.705449 140.283123 
L 673.705449 140.283123 
" style="fill:none;stroke:#000000;stroke-linecap:square;stroke-opacity:0.7;stroke-width:1.2;"/>
   </g>
   <g id="line2d_24">
    <path clip-path="url(#pf81e39e940)" d="M 673.787701 93.20798 
L 674.165628 90.751204 
L 674.278599 88.436615 
L 674.167881 87.537761 
L 674.143541 87.63152 
L 674.210332 88.31673 
L 674.520607 89.390289 
L 674.923016 90.03176 
L 675.133624 90.130614 
L 675.036046 90.232508 
L 674.211231 91.294626 
L 673.346667 92.734292 
L 673.343642 93.036709 
L 673.614827 93.299095 
L 673.772023 93.12565 
L 673.906669 92.873747 
L 673.74081 93.153911 
L 673.74081 93.153911 
" style="fill:none;stroke:#000000;stroke-linecap:square;stroke-opacity:0.7;stroke-width:1.2;"/>
   </g>
   <g id="line2d_25">
    <path clip-path="url(#pf81e39e940)" d="M 673.753081 46.116016 
L 673.665417 46.352937 
L 673.60061 47.141312 
L 673.74406 47.595203 
L 673.970944 47.854928 
L 673.943115 48.079458 
L 673.653939 48.491752 
L 673.301543 48.577904 
L 673.282436 48.425589 
L 674.387496 45.334298 
L 674.563926 44.604505 
L 674.652924 43.973571 
L 674.475738 44.756213 
L 674.025307 45.664626 
L 673.707658 46.068343 
L 673.707658 46.068343 
" style="fill:none;stroke:#000000;stroke-linecap:square;stroke-opacity:0.7;stroke-width:1.2;"/>
   </g>
  </g>
 </g>
 <defs>
  <clipPath id="pf81e39e940">
   <rect height="262.08" width="694.08" x="12.96" y="12.96"/>
  </clipPath>
 </defs>
</svg>
