<?xml version="1.0" encoding="utf-8" standalone="no"?>
<!DOCTYPE svg PUBLIC "-//W3C//DTD SVG 1.1//EN"
  "http://www.w3.org/Graphics/SVG/1.1/DTD/svg11.dtd">
<!-- Created with matplotlib (https://matplotlib.org/) -->
<svg height="288pt" version="1.1" viewBox="0 0 720 288" width="720pt" xmlns="http://www.w3.org/2000/svg" xmlns:xlink="http://www.w3.org/1999/xlink">
 <metadata>
  <rdf:RDF xmlns:cc="http://creativecommons.org/ns#" xmlns:dc="http://purl.org/dc/elements/1.1/" xmlns:rdf="http://www.w3.org/1999/02/22-rdf-syntax-ns#">
   <cc:Work>
    <dc:type rdf:resource="http://purl.org/dc/dcmitype/StillImage"/>
    <dc:date>2020-12-22T15:34:57.597657</dc:date>
    <dc:format>image/svg+xml</dc:format>
    <dc:creator>
     <cc:Agent>
      <dc:title>Matplotlib v3.3.2, https://matplotlib.org/</dc:title>
     </cc:Agent>
    </dc:creator>
   </cc:Work>
  </rdf:RDF>
 </metadata>
 <defs>
  <style type="text/css">*{stroke-linecap:butt;stroke-linejoin:round;}</style>
 </defs>
 <g id="figure_1">
  <g id="patch_1">
   <path d="M 0 288 
L 720 288 
L 720 0 
L 0 0 
z
" style="fill:#ffffff;"/>
  </g>
  <g id="axes_1">
   <g id="line2d_1">
    <path clip-path="url(#p87b9aefd65)" d="M 50.648154 234.819552 
L 50.548804 234.699202 
L 50.641348 234.545381 
L 50.927682 234.555044 
L 51.439834 234.812338 
L 52.069612 235.39287 
L 52.624012 236.199608 
L 53.082371 237.26082 
L 53.371031 238.45002 
L 53.488775 239.975279 
L 53.362263 241.444403 
L 53.017338 242.742686 
L 52.535459 243.627425 
L 52.183158 243.85928 
L 51.961776 243.766995 
L 51.720244 243.336161 
L 51.462228 242.333795 
L 51.096709 239.744175 
L 50.652375 236.275266 
L 50.61029 236.353781 
L 50.574085 237.000903 
L 50.656418 238.196881 
L 50.996159 239.973091 
L 51.380754 240.870856 
L 51.506371 240.892059 
L 51.511606 240.885591 
L 51.574692 240.577135 
L 51.515183 239.618879 
L 51.082357 236.85665 
L 50.751635 235.001713 
L 50.751635 235.001713 
" style="fill:none;stroke:#000000;stroke-linecap:square;stroke-opacity:0.7;stroke-width:1.2;"/>
   </g>
   <g id="line2d_2">
    <path clip-path="url(#p87b9aefd65)" d="M 50.671177 188.178411 
L 47.520265 186.962747 
L 46.290559 186.810029 
L 45.240411 186.903299 
L 44.753652 187.098539 
L 44.509091 187.469766 
L 44.626384 187.716843 
L 45.022894 187.987016 
L 45.941243 188.27401 
L 47.757309 188.491614 
L 51.262617 188.541986 
L 52.147509 188.449462 
L 52.382643 188.248704 
L 52.40177 187.932841 
L 52.303406 187.823093 
L 52.265601 187.876144 
L 52.282167 188.269134 
L 52.244415 188.366682 
L 52.178648 188.353804 
L 51.339448 188.121054 
L 50.946951 188.236765 
L 50.789862 188.343336 
L 50.789469 188.300392 
" style="fill:none;stroke:#000000;stroke-linecap:square;stroke-opacity:0.7;stroke-width:1.2;"/>
   </g>
   <g id="line2d_3">
    <path clip-path="url(#p87b9aefd65)" d="M 50.617895 141.549371 
L 50.548693 141.96553 
L 50.747333 142.970541 
L 51.275406 144.54616 
L 51.821401 145.696525 
L 51.408317 145.146277 
L 50.684602 144.450047 
L 50.320638 144.337637 
L 50.202109 144.438469 
L 50.09431 144.861509 
L 49.61129 148.439088 
L 49.632477 148.726044 
L 49.668111 148.707727 
L 49.94604 148.307027 
L 50.781123 146.593366 
L 51.009755 145.733954 
L 51.037696 144.741756 
L 50.795645 141.769235 
L 50.79138 141.71029 
L 50.79138 141.71029 
" style="fill:none;stroke:#000000;stroke-linecap:square;stroke-opacity:0.7;stroke-width:1.2;"/>
   </g>
   <g id="line2d_4">
    <path clip-path="url(#p87b9aefd65)" d="M 50.657869 94.9723 
L 46.671674 92.295413 
L 45.966665 92.122093 
L 45.519732 92.195354 
L 45.292892 92.44384 
L 45.240551 92.846208 
L 45.406756 93.499566 
L 45.894619 94.411538 
L 46.643963 95.374282 
L 47.704664 96.389043 
L 48.876942 97.203705 
L 49.422284 97.369836 
L 49.894203 97.265367 
L 50.704145 96.983047 
L 50.829643 97.20735 
L 50.956148 98.169869 
L 51.19477 99.309765 
L 51.320401 99.4556 
L 51.347993 99.37787 
L 51.298415 98.788141 
L 50.804184 95.074561 
L 50.804184 95.074561 
" style="fill:none;stroke:#000000;stroke-linecap:square;stroke-opacity:0.7;stroke-width:1.2;"/>
   </g>
   <g id="line2d_5">
    <path clip-path="url(#p87b9aefd65)" d="M 50.687935 48.414408 
L 50.577166 48.15397 
L 50.603233 47.830217 
L 50.804258 47.676264 
L 51.067835 47.708644 
L 51.595398 48.056179 
L 52.181225 48.75637 
L 52.724302 49.786295 
L 53.025617 50.729888 
L 53.201227 52.103717 
L 53.109075 53.397157 
L 52.801998 54.602264 
L 52.210706 55.920406 
L 51.309974 57.311652 
L 51.966812 56.127951 
L 51.931214 55.224924 
L 51.916737 53.060461 
L 52.158602 50.439663 
L 52.485177 47.594184 
L 52.147057 47.674111 
L 51.309271 48.141562 
L 50.829991 48.519323 
L 50.829991 48.519323 
" style="fill:none;stroke:#000000;stroke-linecap:square;stroke-opacity:0.7;stroke-width:1.2;"/>
   </g>
   <g id="line2d_6">
    <path clip-path="url(#p87b9aefd65)" d="M 206.021199 234.727304 
L 205.346256 234.535456 
L 204.0075 234.187214 
L 203.389355 234.185663 
L 202.803291 234.406102 
L 202.507071 234.851821 
L 202.52511 235.280319 
L 202.767997 235.627539 
L 203.008152 235.724565 
L 203.314488 235.688806 
L 203.873397 235.311857 
L 204.505907 234.850783 
L 204.736635 234.940076 
L 204.916318 235.261949 
L 204.824403 235.526926 
L 204.653666 235.854473 
L 204.836333 235.905326 
L 205.213323 235.751711 
L 206.063343 235.082051 
L 206.145579 234.824279 
L 206.145579 234.824279 
" style="fill:none;stroke:#000000;stroke-linecap:square;stroke-opacity:0.7;stroke-width:1.2;"/>
   </g>
   <g id="line2d_7">
    <path clip-path="url(#p87b9aefd65)" d="M 205.906676 188.221841 
L 206.148267 189.397419 
L 206.858311 191.794448 
L 208.261331 195.715294 
L 209.086165 197.515065 
L 209.689721 198.511673 
L 209.602834 198.540924 
L 208.748193 198.633313 
L 208.291811 198.525182 
L 207.956128 198.194166 
L 207.657738 197.565664 
L 207.290167 196.211009 
L 206.848773 193.533896 
L 206.382482 189.726184 
L 206.287864 189.949611 
L 206.146119 190.849395 
L 206.177347 191.653766 
L 206.376151 192.037378 
L 206.549613 192.011124 
L 206.628087 191.747072 
L 206.56375 190.981487 
L 206.055604 188.400744 
L 206.055604 188.400744 
" style="fill:none;stroke:#000000;stroke-linecap:square;stroke-opacity:0.7;stroke-width:1.2;"/>
   </g>
   <g id="line2d_8">
    <path clip-path="url(#p87b9aefd65)" d="M 205.911593 141.572164 
L 205.863984 143.122371 
L 205.838665 146.412333 
L 205.991355 149.201203 
L 206.24521 150.804499 
L 206.471472 151.242647 
L 206.620311 151.187937 
L 206.758961 150.832731 
L 206.840109 150.207501 
L 206.750667 148.875556 
L 206.463919 148.037228 
L 206.035498 147.530648 
L 205.672342 147.093561 
L 205.390695 146.355147 
L 205.211975 145.157035 
L 205.222876 143.554852 
L 205.494377 141.653466 
L 205.735672 141.557217 
L 206.073332 141.701695 
L 206.069274 141.702023 
" style="fill:none;stroke:#000000;stroke-linecap:square;stroke-opacity:0.7;stroke-width:1.2;"/>
   </g>
   <g id="line2d_9">
    <path clip-path="url(#p87b9aefd65)" d="M 206.0436 94.850873 
L 205.780504 93.540131 
L 205.222254 92.005892 
L 204.660553 91.164291 
L 204.125244 90.711433 
L 203.563536 90.499693 
L 202.944429 90.556727 
L 202.472147 90.882944 
L 202.229778 91.317639 
L 202.199046 91.940122 
L 202.427663 92.488884 
L 202.936986 93.034414 
L 203.68091 93.502872 
L 205.834881 94.661316 
L 206.199867 95.099161 
L 206.546999 95.867174 
L 206.784643 97.059875 
L 206.8852 98.694335 
L 206.821033 102.134044 
L 206.767862 102.935967 
L 206.70311 102.588576 
L 205.955936 96.636446 
L 206.150281 94.991551 
L 206.150281 94.991551 
" style="fill:none;stroke:#000000;stroke-linecap:square;stroke-opacity:0.7;stroke-width:1.2;"/>
   </g>
   <g id="line2d_10">
    <path clip-path="url(#p87b9aefd65)" d="M 205.94645 48.547896 
L 205.499516 48.542021 
L 205.169194 48.609112 
L 205.120667 48.835035 
L 205.298595 49.325466 
L 207.074421 53.003394 
L 207.682064 55.170621 
L 207.955765 56.961262 
L 208.049798 56.4865 
L 209.114238 50.663595 
L 209.859295 47.146631 
L 208.045865 55.472931 
L 207.996879 55.498331 
L 207.958142 55.45271 
L 207.70662 54.696584 
L 206.024472 48.661828 
L 206.024472 48.661828 
" style="fill:none;stroke:#000000;stroke-linecap:square;stroke-opacity:0.7;stroke-width:1.2;"/>
   </g>
   <g id="line2d_11">
    <path clip-path="url(#p87b9aefd65)" d="M 361.29057 234.723071 
L 359.945867 234.108448 
L 358.775567 233.83635 
L 357.761838 233.780789 
L 356.942254 233.869476 
L 355.86247 234.324865 
L 355.770044 234.602573 
L 356.013679 234.709771 
L 356.477519 234.691714 
L 357.417935 234.46471 
L 361.296116 233.269163 
L 361.468157 233.476086 
L 361.449044 233.871711 
L 361.130504 234.741316 
L 360.230794 236.894343 
L 360.15894 237.674134 
L 360.319732 238.007962 
L 360.578119 238.07777 
L 360.863453 237.916071 
L 361.138435 237.476189 
L 361.250322 236.873019 
L 361.322124 235.057198 
L 361.421333 234.839 
L 361.421333 234.839 
" style="fill:none;stroke:#000000;stroke-linecap:square;stroke-opacity:0.7;stroke-width:1.2;"/>
   </g>
   <g id="line2d_12">
    <path clip-path="url(#p87b9aefd65)" d="M 361.260548 188.166346 
L 361.469319 189.654391 
L 361.599831 192.413557 
L 361.711673 201.099669 
L 361.705505 202.655468 
L 361.611213 201.182497 
L 361.07623 188.779378 
L 361.397547 188.22475 
L 361.386935 188.407826 
L 361.20997 190.129533 
L 361.25401 191.656798 
L 361.51772 193.056388 
L 361.809675 193.581768 
L 361.893363 193.484315 
L 361.918259 192.935675 
L 361.716398 190.975796 
L 361.38304 188.358927 
L 361.38304 188.358927 
" style="fill:none;stroke:#000000;stroke-linecap:square;stroke-opacity:0.7;stroke-width:1.2;"/>
   </g>
   <g id="line2d_13">
    <path clip-path="url(#p87b9aefd65)" d="M 361.345317 141.407861 
L 360.938824 139.060703 
L 360.457693 137.666778 
L 359.90168 136.764274 
L 359.300019 136.221925 
L 358.739355 135.972462 
L 358.081281 135.915102 
L 357.361218 136.113846 
L 356.703729 136.581765 
L 356.251464 137.226983 
L 356.081015 137.783854 
L 356.069241 138.290814 
L 356.175855 138.75067 
L 356.79691 139.686907 
L 357.406923 140.171985 
L 358.559399 140.771221 
L 360.067603 141.534163 
L 360.389327 141.911259 
L 360.477488 142.123136 
L 360.511419 142.112996 
L 360.738547 141.905102 
L 361.577748 140.658346 
L 363.213443 138.183331 
L 363.454575 138.071398 
L 363.460906 138.084182 
L 363.438313 138.338023 
L 363.115322 139.103646 
L 362.179216 140.621434 
L 361.457019 141.560249 
L 361.457019 141.560249 
" style="fill:none;stroke:#000000;stroke-linecap:square;stroke-opacity:0.7;stroke-width:1.2;"/>
   </g>
   <g id="line2d_14">
    <path clip-path="url(#p87b9aefd65)" d="M 361.271382 94.979815 
L 360.42491 94.720666 
L 358.714844 94.270384 
L 357.497861 94.16723 
L 356.51162 94.271988 
L 355.742318 94.586479 
L 355.438397 94.948491 
L 355.464508 95.233087 
L 355.655484 95.399001 
L 356.044248 95.490501 
L 356.803523 95.395828 
L 357.840135 94.992026 
L 361.063411 93.315943 
L 361.58031 93.003951 
L 361.585383 93.015945 
L 361.575097 93.521679 
L 361.60611 94.672268 
L 361.809009 95.54619 
L 362.299063 96.536566 
L 362.332965 96.596307 
L 361.444793 95.085444 
L 361.444793 95.085444 
" style="fill:none;stroke:#000000;stroke-linecap:square;stroke-opacity:0.7;stroke-width:1.2;"/>
   </g>
   <g id="line2d_15">
    <path clip-path="url(#p87b9aefd65)" d="M 361.28526 48.361182 
L 360.894281 46.977022 
L 360.838001 45.917884 
L 360.97514 45.490041 
L 361.214213 45.40181 
L 361.472126 45.611594 
L 361.74536 46.095716 
L 362.068847 47.158276 
L 362.246567 48.482461 
L 362.250595 49.978745 
L 361.995304 51.888289 
L 361.438535 53.792567 
L 360.703128 55.930316 
L 360.957849 56.107436 
L 361.747663 56.234687 
L 363.378122 56.47249 
L 363.459529 56.500543 
L 363.443437 56.403273 
L 363.356306 55.45596 
L 363.248847 53.926111 
L 362.723825 52.271095 
L 361.418119 48.537285 
L 361.418119 48.537285 
" style="fill:none;stroke:#000000;stroke-linecap:square;stroke-opacity:0.7;stroke-width:1.2;"/>
   </g>
   <g id="line2d_16">
    <path clip-path="url(#p87b9aefd65)" d="M 516.641799 234.658232 
L 515.790587 233.806478 
L 514.899801 233.241931 
L 513.975728 232.920196 
L 512.953246 232.799368 
L 511.941827 232.89708 
L 511.00044 233.211977 
L 510.361413 233.658524 
L 510.188921 234.004615 
L 510.313308 234.21434 
L 510.670252 234.32015 
L 511.629352 234.260845 
L 513.37198 233.840805 
L 515.941515 233.170444 
L 516.391107 233.271422 
L 516.468581 233.489432 
L 516.335981 233.967658 
L 515.406369 236.191592 
L 515.551899 236.182517 
L 515.935516 235.68086 
L 516.82063 234.095215 
L 516.881554 234.244052 
L 516.841787 234.714907 
L 516.775643 234.766925 
L 516.775643 234.766925 
" style="fill:none;stroke:#000000;stroke-linecap:square;stroke-opacity:0.7;stroke-width:1.2;"/>
   </g>
   <g id="line2d_17">
    <path clip-path="url(#p87b9aefd65)" d="M 516.500498 188.232916 
L 516.235039 189.820804 
L 516.215556 191.504998 
L 516.414278 193.780335 
L 516.653366 195.074322 
L 517.009903 195.941512 
L 517.146049 195.915834 
L 517.235321 195.63046 
L 517.214126 194.675634 
L 517.007607 193.690605 
L 516.71072 192.40548 
L 516.866817 191.659062 
L 518.291149 186.743526 
L 518.237164 186.379519 
L 518.206499 186.389083 
L 517.998816 186.669487 
L 517.566457 187.671484 
L 517.13406 189.21024 
L 517.067323 190.233477 
L 517.135704 190.483 
L 516.819971 188.999167 
L 516.661038 188.395922 
L 516.661038 188.395922 
" style="fill:none;stroke:#000000;stroke-linecap:square;stroke-opacity:0.7;stroke-width:1.2;"/>
   </g>
   <g id="line2d_18">
    <path clip-path="url(#p87b9aefd65)" d="M 516.598604 141.578506 
L 516.183291 141.024953 
L 515.803191 140.199297 
L 515.810855 139.963747 
L 515.851303 139.955818 
L 516.087866 140.14891 
L 516.59947 140.970803 
L 517.111118 142.324006 
L 517.322711 143.519308 
L 517.277057 144.960817 
L 517.003608 146.057744 
L 516.479037 147.165875 
L 516.007533 147.78393 
L 515.627455 147.992124 
L 515.497966 147.897006 
L 515.399342 147.422554 
L 515.472254 146.300053 
L 515.854924 144.222018 
L 516.352599 142.558808 
L 516.800584 142.285827 
L 517.144428 142.216664 
L 517.068071 142.107444 
L 516.678277 141.676324 
L 516.678277 141.676324 
" style="fill:none;stroke:#000000;stroke-linecap:square;stroke-opacity:0.7;stroke-width:1.2;"/>
   </g>
   <g id="line2d_19">
    <path clip-path="url(#p87b9aefd65)" d="M 516.611252 95.035602 
L 516.385553 95.224654 
L 516.616317 95.711374 
L 517.716089 97.317585 
L 518.734365 98.92999 
L 519.190081 100.04928 
L 519.396089 101.146496 
L 519.330819 102.083056 
L 519.068545 102.611943 
L 518.813017 102.695343 
L 518.531215 102.53519 
L 518.057348 101.901962 
L 517.363344 100.506893 
L 516.440611 98.147143 
L 516.04647 96.728936 
L 516.113585 96.113925 
L 516.46516 95.332701 
L 517.79911 93.093626 
L 520.073906 89.682228 
L 520.656875 89.023346 
L 520.65215 89.085648 
L 520.295658 89.776937 
L 519.016219 91.809261 
L 516.734232 95.108938 
L 516.734232 95.108938 
" style="fill:none;stroke:#000000;stroke-linecap:square;stroke-opacity:0.7;stroke-width:1.2;"/>
   </g>
   <g id="line2d_20">
    <path clip-path="url(#p87b9aefd65)" d="M 516.537325 48.334498 
L 515.322585 46.450149 
L 513.985051 44.56538 
L 513.465886 44.142253 
L 513.322756 44.225132 
L 513.294609 44.585871 
L 513.531609 45.825205 
L 514.565184 49.499328 
L 515.822704 53.429896 
L 516.578787 54.807452 
L 518.295059 57.940608 
L 518.394579 58.151346 
L 518.182054 57.460054 
L 517.190429 53.79294 
L 516.765742 51.572927 
L 516.685239 49.610703 
L 516.693621 48.454726 
L 516.693621 48.454726 
" style="fill:none;stroke:#000000;stroke-linecap:square;stroke-opacity:0.7;stroke-width:1.2;"/>
   </g>
   <g id="line2d_21">
    <path clip-path="url(#p87b9aefd65)" d="M 671.832325 234.697115 
L 670.397648 232.930787 
L 669.370086 231.975197 
L 668.712108 231.594286 
L 668.264908 231.564032 
L 668.06806 231.75421 
L 668.00861 232.116831 
L 668.195869 232.879908 
L 668.612625 233.60967 
L 669.260576 234.265821 
L 670.513504 235.295173 
L 671.016659 236.193388 
L 671.430431 237.414781 
L 671.763145 239.158342 
L 672.15202 240.670425 
L 672.801126 243.063584 
L 672.78562 243.047329 
L 672.655693 242.370906 
L 672.307621 239.106184 
L 671.985208 234.848055 
L 671.985208 234.848055 
" style="fill:none;stroke:#000000;stroke-linecap:square;stroke-opacity:0.7;stroke-width:1.2;"/>
   </g>
   <g id="line2d_22">
    <path clip-path="url(#p87b9aefd65)" d="M 671.82435 188.163208 
L 671.139602 186.555783 
L 670.249875 183.881189 
L 669.645934 181.517059 
L 670.059573 183.603598 
L 672.916153 199.518283 
L 672.912584 198.665626 
L 672.805518 193.206394 
L 672.939154 189.131381 
L 672.987229 188.773898 
L 673.0122 189.481519 
L 673.137076 193.673357 
L 673.456579 197.211725 
L 673.79649 198.968831 
L 673.829155 199.008522 
L 673.86205 198.890595 
L 673.7889 197.949315 
L 673.303711 194.917883 
L 672.013496 188.46773 
L 671.976314 188.312714 
L 671.976314 188.312714 
" style="fill:none;stroke:#000000;stroke-linecap:square;stroke-opacity:0.7;stroke-width:1.2;"/>
   </g>
   <g id="line2d_23">
    <path clip-path="url(#p87b9aefd65)" d="M 671.914998 141.442505 
L 671.489474 140.014809 
L 670.684441 138.153573 
L 670.063261 137.227646 
L 669.604212 136.843428 
L 669.25514 136.816953 
L 669.114128 136.94263 
L 668.985846 137.314719 
L 669.022947 138.164652 
L 669.29841 139.091827 
L 669.763575 139.983322 
L 670.494673 140.918342 
L 671.214959 141.846947 
L 671.314034 142.324457 
L 671.183234 142.686545 
L 670.810798 143.016754 
L 670.112951 143.316854 
L 669.7262 143.341918 
L 669.724142 143.316005 
L 669.891917 143.021736 
L 673.954268 137.702937 
L 673.963606 137.730607 
L 673.873402 138.085829 
L 673.162736 139.633251 
L 672.065926 141.59797 
L 672.065926 141.59797 
" style="fill:none;stroke:#000000;stroke-linecap:square;stroke-opacity:0.7;stroke-width:1.2;"/>
   </g>
   <g id="line2d_24">
    <path clip-path="url(#p87b9aefd65)" d="M 671.855178 94.994839 
L 671.790122 94.584345 
L 671.914991 94.298127 
L 672.165076 94.169579 
L 672.637624 94.223086 
L 673.251903 94.55877 
L 673.986133 95.265554 
L 674.635121 96.238606 
L 675.092629 97.301778 
L 675.366544 98.371757 
L 675.478453 99.297015 
L 675.427408 100.857925 
L 675.166415 102.100797 
L 674.760515 103.164437 
L 674.115341 104.22999 
L 673.512378 104.846165 
L 673.088534 105.025944 
L 672.803081 104.922841 
L 672.565778 104.595036 
L 672.280044 103.764958 
L 671.930512 101.898084 
L 671.624702 100.547762 
L 671.412059 100.324696 
L 671.41799 99.781499 
L 671.707472 98.792048 
L 672.09694 97.460677 
L 672.140364 96.447329 
L 671.994198 95.130933 
L 671.994198 95.130933 
" style="fill:none;stroke:#000000;stroke-linecap:square;stroke-opacity:0.7;stroke-width:1.2;"/>
   </g>
   <g id="line2d_25">
    <path clip-path="url(#p87b9aefd65)" d="M 671.924277 48.292293 
L 670.85249 47.971416 
L 670.015178 48.021984 
L 669.152651 48.285441 
L 668.253526 48.788201 
L 667.372034 49.698794 
L 667.292338 50.06028 
L 667.461809 50.147883 
L 667.734769 50.082182 
L 668.614454 49.581905 
L 670.439599 48.423953 
L 671.061587 48.256669 
L 671.444027 48.345552 
L 671.785583 48.682034 
L 672.084232 49.363641 
L 672.344003 50.503634 
L 672.763574 53.915685 
L 673.40703 59.228252 
L 673.735937 60.415231 
L 673.891575 60.465376 
L 673.923047 60.416795 
L 674.115511 59.185059 
L 674.170955 57.01041 
L 674.021153 51.360984 
L 673.757923 48.098251 
L 673.538393 47.631093 
L 673.311731 47.582516 
L 672.93306 47.720763 
L 672.192054 48.263447 
L 672.03041 48.428074 
L 672.03041 48.428074 
" style="fill:none;stroke:#000000;stroke-linecap:square;stroke-opacity:0.7;stroke-width:1.2;"/>
   </g>
  </g>
 </g>
 <defs>
  <clipPath id="p87b9aefd65">
   <rect height="262.08" width="694.08" x="12.96" y="12.96"/>
  </clipPath>
 </defs>
</svg>
