<?xml version="1.0" encoding="utf-8" standalone="no"?>
<!DOCTYPE svg PUBLIC "-//W3C//DTD SVG 1.1//EN"
  "http://www.w3.org/Graphics/SVG/1.1/DTD/svg11.dtd">
<!-- Created with matplotlib (https://matplotlib.org/) -->
<svg height="288pt" version="1.1" viewBox="0 0 720 288" width="720pt" xmlns="http://www.w3.org/2000/svg" xmlns:xlink="http://www.w3.org/1999/xlink">
 <metadata>
  <rdf:RDF xmlns:cc="http://creativecommons.org/ns#" xmlns:dc="http://purl.org/dc/elements/1.1/" xmlns:rdf="http://www.w3.org/1999/02/22-rdf-syntax-ns#">
   <cc:Work>
    <dc:type rdf:resource="http://purl.org/dc/dcmitype/StillImage"/>
    <dc:date>2020-12-22T14:08:09.346269</dc:date>
    <dc:format>image/svg+xml</dc:format>
    <dc:creator>
     <cc:Agent>
      <dc:title>Matplotlib v3.3.2, https://matplotlib.org/</dc:title>
     </cc:Agent>
    </dc:creator>
   </cc:Work>
  </rdf:RDF>
 </metadata>
 <defs>
  <style type="text/css">*{stroke-linecap:butt;stroke-linejoin:round;}</style>
 </defs>
 <g id="figure_1">
  <g id="patch_1">
   <path d="M 0 288 
L 720 288 
L 720 0 
L 0 0 
z
" style="fill:#ffffff;"/>
  </g>
  <g id="axes_1">
   <g id="line2d_1">
    <path clip-path="url(#p4507da001f)" d="M 123.888192 221.530181 
L 120.714594 222.515957 
L 117.88466 223.644334 
L 116.635652 224.378139 
L 116.213062 224.848094 
L 116.079302 225.39933 
L 116.201596 225.956443 
L 116.637198 226.883362 
L 118.569515 230.705156 
L 120.138453 234.487535 
L 120.203093 234.651409 
L 124.407841 244.478734 
L 126.34385 248.079725 
L 128.480433 251.533259 
L 130.060573 253.832879 
L 132.670264 257.292791 
L 135.514389 260.690709 
L 137.676375 262.900927 
L 137.97811 263.127273 
L 137.70787 257.901463 
L 136.745245 254.447963 
L 132.98397 242.425366 
L 129.559611 230.621736 
L 128.289574 227.253308 
L 127.180798 224.938507 
L 126.21667 223.415182 
L 125.092733 222.216092 
L 124.377763 221.769865 
L 123.760151 221.580633 
L 123.55405 221.559623 
L 123.55405 221.559623 
" style="fill:none;stroke:#000000;stroke-linecap:square;stroke-opacity:0.7;stroke-width:1.2;"/>
   </g>
   <g id="line2d_2">
    <path clip-path="url(#p4507da001f)" d="M 124.284867 184.978469 
L 123.370313 186.970287 
L 123.182799 188.12242 
L 123.314343 188.955964 
L 123.671401 189.783138 
L 124.372271 190.78578 
L 125.463686 191.912416 
L 127.060223 193.19779 
L 129.317961 194.695878 
L 136.934951 199.507588 
L 139.559614 201.537179 
L 141.25585 203.037755 
L 143.337993 205.175308 
L 144.898708 207.136765 
L 146.402262 209.89193 
L 146.661205 210.937856 
L 146.632858 211.827101 
L 146.43227 212.324098 
L 146.232778 212.574106 
L 145.249699 213.0386 
L 144.518737 213.078353 
L 143.244555 212.878209 
L 141.964371 212.469885 
L 140.895035 212.02268 
L 139.049655 211.091 
L 134.93425 208.555408 
L 130.640788 205.478428 
L 127.949525 203.144897 
L 126.822464 201.811201 
L 125.97111 200.323946 
L 124.947968 197.759167 
L 123.315729 193.392909 
L 122.936438 191.732386 
L 122.759684 189.923578 
L 122.853071 188.030006 
L 123.09526 186.733138 
L 123.628489 185.197332 
L 123.628489 185.197332 
" style="fill:none;stroke:#000000;stroke-linecap:square;stroke-opacity:0.7;stroke-width:1.2;"/>
   </g>
   <g id="line2d_3">
    <path clip-path="url(#p4507da001f)" d="M 123.480785 148.157835 
L 122.854055 147.572017 
L 120.446852 145.561998 
L 119.332641 144.277822 
L 118.487243 142.968041 
L 117.701958 141.288376 
L 117.051774 139.255451 
L 116.701376 137.696709 
L 116.207254 134.364444 
L 114.867557 122.652054 
L 114.239779 119.936847 
L 113.282166 116.912548 
L 112.195503 114.158523 
L 110.397342 110.258815 
L 108.344792 106.340597 
L 106.905888 104.0057 
L 106.061839 102.987034 
L 105.476448 102.597523 
L 105.102407 102.578684 
L 104.76367 102.789163 
L 104.374044 103.385864 
L 103.829929 104.954217 
L 103.231569 107.4789 
L 102.388627 112.03177 
L 102.066732 114.951104 
L 102.06839 117.313472 
L 102.313449 119.11528 
L 102.790453 120.809476 
L 103.428075 122.296859 
L 104.58594 124.271153 
L 106.468754 126.760005 
L 109.351743 129.990072 
L 116.997716 138.224622 
L 119.591767 141.429032 
L 121.323736 143.96666 
L 122.188754 145.559225 
L 122.726576 146.953079 
L 122.920922 148.332683 
L 122.920922 148.332683 
" style="fill:none;stroke:#000000;stroke-linecap:square;stroke-opacity:0.7;stroke-width:1.2;"/>
   </g>
   <g id="line2d_4">
    <path clip-path="url(#p4507da001f)" d="M 123.929388 112.825455 
L 122.589871 113.648022 
L 121.12336 114.253133 
L 119.989768 114.517633 
L 119.067668 114.546229 
L 118.615815 114.429164 
L 118.416245 114.277085 
L 118.39369 113.904895 
L 118.735105 113.519576 
L 119.411335 113.123881 
L 120.670308 112.71263 
L 121.963949 112.54102 
L 123.41818 112.596688 
L 124.858033 112.879306 
L 126.51249 113.442934 
L 128.358478 114.345567 
L 129.81738 115.282085 
L 131.225362 116.434954 
L 132.42931 117.71031 
L 133.432344 119.102756 
L 134.344059 120.824558 
L 135.09376 122.868607 
L 135.709625 125.427808 
L 136.779161 130.629611 
L 137.301135 131.673112 
L 137.618453 131.978501 
L 138.077432 132.10365 
L 138.458672 131.949634 
L 139.067041 131.101677 
L 139.293216 130.420538 
L 139.455687 128.486009 
L 139.172692 126.917478 
L 138.723935 125.826064 
L 138.139712 124.899531 
L 137.144985 123.786388 
L 135.848256 122.696294 
L 133.435408 121.040221 
L 129.396678 118.31054 
L 127.006646 116.39191 
L 123.312473 113.0791 
L 123.312473 113.0791 
" style="fill:none;stroke:#000000;stroke-linecap:square;stroke-opacity:0.7;stroke-width:1.2;"/>
   </g>
   <g id="line2d_5">
    <path clip-path="url(#p4507da001f)" d="M 123.634273 76.163283 
L 122.63502 75.390363 
L 119.041478 72.912269 
L 117.520934 71.445508 
L 116.646167 70.371145 
L 115.885528 69.239928 
L 114.807022 67.169066 
L 114.00814 65.043178 
L 113.309427 62.293037 
L 113.041403 60.703956 
L 112.719875 56.814816 
L 112.730299 54.161652 
L 112.901412 51.494507 
L 113.219713 48.799855 
L 113.889645 44.967893 
L 114.978164 40.244222 
L 116.732151 32.846326 
L 117.080489 30.411093 
L 117.157691 28.544372 
L 117.000195 26.982194 
L 116.746624 26.417639 
L 116.663798 26.493173 
L 116.545476 27.109609 
L 115.869383 34.119447 
L 115.224321 37.193954 
L 114.122583 40.912708 
L 112.690563 44.600768 
L 111.227309 47.71614 
L 109.047846 51.690905 
L 104.007412 59.600701 
L 102.080648 62.764103 
L 101.292737 64.356813 
L 100.759295 65.999197 
L 100.673765 66.841519 
L 100.835737 67.790579 
L 101.268997 68.532226 
L 101.981838 69.157917 
L 102.943398 69.671731 
L 104.27784 70.1511 
L 107.373654 70.932835 
L 111.976974 72.036837 
L 115.082095 72.950346 
L 118.335968 74.141817 
L 120.522415 75.131339 
L 122.239056 76.096327 
L 123.231438 76.85894 
L 123.231438 76.85894 
" style="fill:none;stroke:#000000;stroke-linecap:square;stroke-opacity:0.7;stroke-width:1.2;"/>
   </g>
   <g id="line2d_6">
    <path clip-path="url(#p4507da001f)" d="M 244.427796 220.861106 
L 244.191431 221.032729 
L 244.155618 221.334076 
L 244.334404 221.918781 
L 244.826899 223.41724 
L 244.976912 224.515924 
L 244.933421 225.906262 
L 244.665759 227.471887 
L 244.007636 230.916107 
L 244.026977 232.086446 
L 244.29919 233.382558 
L 244.793662 234.58606 
L 245.561465 235.888306 
L 246.570321 237.247552 
L 248.457956 239.384807 
L 251.393083 242.326685 
L 256.561578 247.44851 
L 257.396281 248.504774 
L 257.49497 248.686678 
L 257.447684 249.04517 
L 256.922744 248.951585 
L 255.844502 248.434254 
L 253.829571 247.191097 
L 249.563151 244.107657 
L 249.004535 243.67184 
L 244.434309 239.729972 
L 242.536684 237.706503 
L 242.100738 237.170376 
L 240.514037 234.737551 
L 239.727354 232.866039 
L 239.32892 231.277885 
L 239.151945 229.633555 
L 239.198606 228.08747 
L 239.450826 226.637638 
L 240.066858 224.984461 
L 240.635498 224.057894 
L 241.525277 223.037453 
L 243.18918 221.619617 
L 243.996794 220.950989 
L 243.996794 220.950989 
" style="fill:none;stroke:#000000;stroke-linecap:square;stroke-opacity:0.7;stroke-width:1.2;"/>
   </g>
   <g id="line2d_7">
    <path clip-path="url(#p4507da001f)" d="M 244.479872 184.574716 
L 239.782451 186.842348 
L 239.351093 187.352763 
L 239.147698 188.012673 
L 239.064245 189.34207 
L 238.86258 191.388617 
L 238.410317 193.457312 
L 236.444801 201.073496 
L 236.300044 202.929991 
L 236.387426 204.480701 
L 236.677065 205.85365 
L 237.123843 206.994567 
L 237.658248 207.891186 
L 238.498321 208.849906 
L 239.440299 209.572686 
L 240.674583 210.18089 
L 242.090816 210.55108 
L 243.296098 210.643201 
L 244.988914 210.43622 
L 245.808322 210.169074 
L 246.930417 209.5265 
L 247.638022 208.776084 
L 247.957281 208.155238 
L 248.141225 207.144563 
L 248.088529 206.427935 
L 247.866867 205.537347 
L 246.901203 203.484685 
L 244.755037 200.31057 
L 242.329143 196.90568 
L 240.815664 194.370158 
L 239.587007 191.343982 
L 239.26817 189.93493 
L 239.11948 188.293733 
L 239.145647 187.42141 
L 239.450941 185.674273 
L 239.882626 184.525942 
L 240.222377 183.909191 
L 241.134748 182.842276 
L 241.920386 182.367044 
L 242.689529 182.23412 
L 243.324979 182.420515 
L 243.815147 182.911519 
L 243.991531 183.367473 
L 243.981793 184.116474 
L 243.801212 184.613712 
L 243.801212 184.613712 
" style="fill:none;stroke:#000000;stroke-linecap:square;stroke-opacity:0.7;stroke-width:1.2;"/>
   </g>
   <g id="line2d_8">
    <path clip-path="url(#p4507da001f)" d="M 244.088568 148.398992 
L 243.376108 148.035865 
L 242.7492 147.414751 
L 242.311185 146.623185 
L 241.966967 145.433838 
L 241.73571 143.528918 
L 241.446707 140.976824 
L 241.06766 139.913698 
L 240.581787 139.256442 
L 239.879269 138.736134 
L 238.759389 138.296169 
L 237.354142 138.006774 
L 230.444477 136.934601 
L 229.000466 136.38986 
L 228.031811 135.861903 
L 226.788168 134.881883 
L 225.946936 133.913324 
L 225.101745 132.501581 
L 224.493956 130.969214 
L 224.025135 129.064523 
L 223.783313 126.981733 
L 223.782051 125.497683 
L 224.024636 123.820069 
L 224.396008 122.796102 
L 224.961515 121.955159 
L 225.573263 121.429177 
L 226.326881 121.053535 
L 227.361302 120.818646 
L 228.414958 120.792138 
L 229.751577 120.974134 
L 231.211726 121.388326 
L 232.701191 122.011869 
L 234.356885 122.935386 
L 236.096096 124.18542 
L 237.532655 125.469427 
L 239.116384 127.210113 
L 240.443055 128.992633 
L 241.977273 131.497459 
L 243.40581 134.326409 
L 244.561257 137.122105 
L 245.277334 139.378088 
L 245.588284 140.747524 
L 245.818018 142.822279 
L 245.768868 144.076975 
L 245.474678 145.498999 
L 245.000095 146.623083 
L 244.262897 147.729593 
L 243.554033 148.554547 
L 243.554033 148.554547 
" style="fill:none;stroke:#000000;stroke-linecap:square;stroke-opacity:0.7;stroke-width:1.2;"/>
   </g>
   <g id="line2d_9">
    <path clip-path="url(#p4507da001f)" d="M 245.271033 112.798009 
L 243.94608 113.312869 
L 243.238361 113.757311 
L 242.137776 115.08651 
L 241.975165 115.867987 
L 242.014602 116.412145 
L 242.444609 117.697271 
L 243.417944 119.476944 
L 245.66127 123.482933 
L 246.808307 125.944338 
L 249.221481 131.865432 
L 250.797874 135.40625 
L 252.165322 137.965223 
L 253.022704 139.354517 
L 256.265081 143.598783 
L 259.032172 146.563824 
L 259.39751 146.915129 
L 259.128194 146.556904 
L 250.686905 135.028927 
L 245.738601 126.635752 
L 245.22432 124.876632 
L 245.206195 119.970652 
L 246.345488 115.117572 
L 246.248882 113.94264 
L 245.978833 113.38673 
L 245.481658 112.958565 
L 244.889017 112.780322 
L 244.201049 112.842269 
L 244.201049 112.842269 
" style="fill:none;stroke:#000000;stroke-linecap:square;stroke-opacity:0.7;stroke-width:1.2;"/>
   </g>
   <g id="line2d_10">
    <path clip-path="url(#p4507da001f)" d="M 244.012913 76.017238 
L 241.410466 76.463935 
L 239.044396 76.621521 
L 237.980388 76.533711 
L 237.030912 76.238181 
L 236.737872 76.04187 
L 236.404437 75.595954 
L 236.298561 74.970336 
L 236.465654 74.091402 
L 237.063065 72.09042 
L 236.883042 72.020714 
L 236.455552 72.234058 
L 235.57581 73.001692 
L 234.18988 74.569789 
L 233.354654 75.524784 
L 233.374503 75.407805 
L 233.87778 74.349029 
L 238.777153 65.06269 
L 239.325003 64.710089 
L 239.855969 64.574634 
L 240.612619 64.580566 
L 241.640105 64.819698 
L 242.450244 65.153007 
L 243.273942 65.625046 
L 244.471614 66.646468 
L 245.16343 67.595822 
L 245.627807 68.730065 
L 245.760384 69.442291 
L 245.750852 70.717757 
L 245.404385 72.253713 
L 244.643115 74.09026 
L 243.450791 76.283057 
L 243.450791 76.283057 
" style="fill:none;stroke:#000000;stroke-linecap:square;stroke-opacity:0.7;stroke-width:1.2;"/>
   </g>
   <g id="line2d_11">
    <path clip-path="url(#p4507da001f)" d="M 364.386941 220.465043 
L 366.773484 218.450451 
L 368.544723 216.645425 
L 369.513666 215.282594 
L 370.11847 213.884842 
L 370.312878 212.811668 
L 370.260039 211.531976 
L 370.212439 211.260713 
L 369.654377 209.536745 
L 369.277299 208.754786 
L 367.641812 206.154638 
L 365.152386 202.856484 
L 362.306643 199.055008 
L 360.145516 195.776369 
L 359.200503 194.152173 
L 358.050252 191.95382 
L 356.310276 188.021846 
L 354.777544 183.86316 
L 351.689101 175.116333 
L 350.115755 171.523054 
L 348.36942 168.170929 
L 345.911211 164.052825 
L 344.888221 162.372089 
L 347.554304 166.887668 
L 349.874921 171.282504 
L 352.011111 175.769647 
L 353.872501 180.174415 
L 355.273826 183.941561 
L 356.805585 188.764013 
L 357.970219 193.28613 
L 358.796215 197.388786 
L 359.386909 201.382033 
L 359.724269 204.811816 
L 359.924783 209.242597 
L 359.863526 213.612918 
L 359.540107 222.104077 
L 359.73113 222.405568 
L 360.103534 222.555925 
L 360.787371 222.409275 
L 361.613769 221.990256 
L 363.642046 220.608546 
L 363.896785 220.425229 
L 363.896785 220.425229 
" style="fill:none;stroke:#000000;stroke-linecap:square;stroke-opacity:0.7;stroke-width:1.2;"/>
   </g>
   <g id="line2d_12">
    <path clip-path="url(#p4507da001f)" d="M 364.587274 184.58192 
L 367.235531 182.017747 
L 368.163037 180.821637 
L 368.594352 179.943225 
L 368.79354 179.012722 
L 368.728682 178.041115 
L 368.264007 176.767962 
L 367.563299 175.680635 
L 366.54898 174.539845 
L 364.762379 173.039336 
L 363.277322 172.078737 
L 361.681927 171.272912 
L 359.842426 170.636374 
L 358.600992 170.414139 
L 357.443936 170.399555 
L 356.435528 170.590951 
L 355.608627 170.977586 
L 355.220442 171.364229 
L 355.182405 171.679731 
L 355.403858 171.900283 
L 355.984435 172.111441 
L 362.020119 173.62571 
L 363.931189 174.484981 
L 364.875761 175.042345 
L 366.206028 176.071781 
L 366.897011 176.793416 
L 367.712911 177.985517 
L 368.211403 179.179061 
L 368.464256 180.488889 
L 368.477088 181.448916 
L 368.297791 182.624845 
L 367.811442 183.932479 
L 367.519306 184.437787 
L 366.657706 185.451048 
L 365.678264 186.125044 
L 364.779967 186.453202 
L 363.817437 186.516874 
L 363.321525 186.3436 
L 363.133081 186.037479 
L 363.188847 185.71457 
L 363.53487 185.156772 
L 363.981159 184.616003 
L 363.981159 184.616003 
" style="fill:none;stroke:#000000;stroke-linecap:square;stroke-opacity:0.7;stroke-width:1.2;"/>
   </g>
   <g id="line2d_13">
    <path clip-path="url(#p4507da001f)" d="M 364.63152 148.760509 
L 365.820714 149.477612 
L 366.790521 150.127585 
L 367.274994 150.667678 
L 367.734857 151.502192 
L 368.056248 152.578492 
L 368.222294 153.956598 
L 368.199478 155.759898 
L 367.946355 158.075852 
L 366.674381 167.431783 
L 366.701251 169.555315 
L 366.923589 171.505572 
L 367.371717 173.471711 
L 367.977336 175.203591 
L 369.015863 177.295065 
L 369.79057 178.478041 
L 371.36015 180.214713 
L 372.187243 180.784122 
L 372.821907 181.014783 
L 373.423941 180.994463 
L 373.830974 180.768893 
L 374.21691 180.240527 
L 374.504886 179.149144 
L 374.502204 177.583847 
L 374.321465 176.388518 
L 373.35312 173.228486 
L 372.585235 171.496755 
L 370.210069 167.339547 
L 368.168841 164.347351 
L 364.779155 159.394477 
L 363.772158 157.454742 
L 363.381155 156.282594 
L 363.188434 155.026846 
L 363.217998 153.747747 
L 363.54612 151.882448 
L 364.264151 148.722398 
L 364.264151 148.722398 
" style="fill:none;stroke:#000000;stroke-linecap:square;stroke-opacity:0.7;stroke-width:1.2;"/>
   </g>
   <g id="line2d_14">
    <path clip-path="url(#p4507da001f)" d="M 364.885126 112.407977 
L 368.124104 111.434984 
L 370.233806 111.043256 
L 371.211437 111.106043 
L 371.589078 111.371846 
L 371.646967 111.695612 
L 371.435065 112.235805 
L 370.811651 112.986463 
L 369.809644 113.794421 
L 368.304026 114.606799 
L 367.229422 114.923104 
L 366.584337 114.91745 
L 366.369667 114.740792 
L 366.40183 114.526317 
L 366.807197 114.088325 
L 367.602788 113.616294 
L 368.670454 113.229611 
L 369.707787 113.078232 
L 370.478974 113.172964 
L 370.985109 113.409117 
L 371.547001 114.018791 
L 371.906733 114.89167 
L 372.167422 116.335929 
L 372.255019 118.004707 
L 372.14611 119.479548 
L 371.821437 120.656927 
L 371.336069 121.511804 
L 370.581737 122.290679 
L 369.642694 122.913362 
L 368.190862 123.549045 
L 366.509004 124.021048 
L 364.797845 124.284267 
L 363.237047 124.300056 
L 361.983 124.061296 
L 361.204211 123.702035 
L 360.641294 123.231764 
L 360.262037 122.666463 
L 360.011069 121.73003 
L 360.040607 120.827525 
L 360.342507 119.618142 
L 360.988651 118.082849 
L 362.305851 115.665893 
L 363.949136 113.094553 
L 364.336616 112.572802 
L 364.336616 112.572802 
" style="fill:none;stroke:#000000;stroke-linecap:square;stroke-opacity:0.7;stroke-width:1.2;"/>
   </g>
   <g id="line2d_15">
    <path clip-path="url(#p4507da001f)" d="M 364.329609 76.197917 
L 363.669157 76.994799 
L 362.960175 78.20151 
L 362.686502 79.098279 
L 362.750347 79.252734 
L 362.778199 79.250971 
L 362.993225 79.089616 
L 365.594865 76.484091 
L 366.588538 75.903236 
L 367.160039 75.782236 
L 367.257847 75.929875 
L 367.12156 76.238529 
L 366.431082 77.048363 
L 366.267804 77.281596 
L 366.396488 77.242045 
L 367.211734 76.74774 
L 369.454526 75.409116 
L 370.230667 75.181774 
L 370.420479 75.267902 
L 370.431571 75.516329 
L 370.179185 75.971145 
L 369.432057 76.755243 
L 368.502477 77.467196 
L 367.133605 78.215275 
L 366.319809 78.473857 
L 365.538563 78.514195 
L 364.960867 78.306461 
L 364.57692 77.947108 
L 364.214781 77.285069 
L 363.945073 76.61122 
L 363.945073 76.61122 
" style="fill:none;stroke:#000000;stroke-linecap:square;stroke-opacity:0.7;stroke-width:1.2;"/>
   </g>
   <g id="line2d_16">
    <path clip-path="url(#p4507da001f)" d="M 484.471838 220.15125 
L 485.689009 218.562768 
L 486.130611 217.905697 
L 487.617714 215.2408 
L 488.678726 212.520034 
L 489.275356 209.912001 
L 489.456861 207.797422 
L 489.383447 205.804358 
L 489.077766 203.788287 
L 488.59772 201.905858 
L 487.354335 198.575849 
L 485.997965 195.758319 
L 483.469661 191.238581 
L 476.692969 179.784445 
L 472.131961 171.154529 
L 470.100095 166.833954 
L 467.334578 160.328777 
L 464.658849 153.304198 
L 460.702511 142.669719 
L 459.186059 139.25718 
L 457.684349 136.463154 
L 456.113755 134.091256 
L 454.950432 132.620591 
L 452.980687 130.544398 
L 451.037063 128.891017 
L 449.409608 127.811349 
L 448.668012 127.557821 
L 448.577431 127.621373 
L 448.663002 127.983311 
L 448.985443 128.497041 
L 450.183264 130.004071 
L 462.080615 144.045029 
L 465.257083 148.349889 
L 466.266972 149.816285 
L 469.845904 155.561798 
L 471.109517 157.869392 
L 473.151198 162.062812 
L 474.339982 164.872131 
L 476.010372 169.524172 
L 477.640895 175.41355 
L 478.751318 180.963206 
L 479.274537 184.482864 
L 480.112704 193.556026 
L 480.441821 202.926326 
L 480.668695 215.190029 
L 480.916849 218.259002 
L 481.232406 219.972373 
L 481.544196 220.836368 
L 481.973804 221.387421 
L 482.282349 221.509293 
L 482.662573 221.447888 
L 483.219619 221.047427 
L 483.898807 220.17755 
L 483.898807 220.17755 
" style="fill:none;stroke:#000000;stroke-linecap:square;stroke-opacity:0.7;stroke-width:1.2;"/>
   </g>
   <g id="line2d_17">
    <path clip-path="url(#p4507da001f)" d="M 484.946997 184.552517 
L 485.270913 184.235888 
L 485.740305 184.079439 
L 486.332769 184.100495 
L 486.838672 184.352605 
L 487.100179 184.762625 
L 487.16663 185.332477 
L 486.992142 186.20284 
L 486.523493 187.339813 
L 484.698335 191.268164 
L 484.602435 192.142297 
L 484.750251 192.995442 
L 485.171237 193.852728 
L 485.917745 194.806394 
L 488.156888 197.437484 
L 489.029755 198.587533 
L 489.335534 198.63268 
L 489.650859 198.391286 
L 489.913692 197.894923 
L 490.055844 197.182033 
L 489.976336 196.412108 
L 489.661656 195.719627 
L 489.078394 195.017706 
L 486.611853 192.442435 
L 485.425993 190.788977 
L 484.753866 189.535407 
L 484.355761 188.352947 
L 484.214204 187.182825 
L 484.302004 185.674927 
L 484.492946 184.442841 
L 484.492946 184.442841 
" style="fill:none;stroke:#000000;stroke-linecap:square;stroke-opacity:0.7;stroke-width:1.2;"/>
   </g>
   <g id="line2d_18">
    <path clip-path="url(#p4507da001f)" d="M 484.616144 148.22393 
L 484.983987 146.85745 
L 485.203065 145.295811 
L 485.200732 143.725323 
L 484.950776 142.103874 
L 484.455604 140.455255 
L 483.766087 138.788825 
L 481.997805 135.23288 
L 479.351133 129.838257 
L 477.603386 125.713206 
L 476.058968 121.479908 
L 474.818298 117.579913 
L 473.258254 112.004823 
L 469.131982 96.598401 
L 467.770977 92.496371 
L 466.236248 88.529462 
L 464.778931 85.262248 
L 462.730271 81.262642 
L 460.479344 77.436979 
L 459.082974 75.406607 
L 459.076444 75.413057 
L 459.257651 75.887198 
L 462.18257 82.508001 
L 464.524829 88.543275 
L 466.92776 95.329277 
L 469.479447 103.248556 
L 471.45819 110.145901 
L 473.24857 117.305893 
L 474.801346 124.471473 
L 477.851991 139.110444 
L 478.868407 142.595571 
L 479.825517 144.942373 
L 480.289498 145.79676 
L 481.065284 146.884142 
L 481.841227 147.61869 
L 482.554806 148.042371 
L 483.634276 148.316659 
L 484.046109 148.33055 
L 484.046109 148.33055 
" style="fill:none;stroke:#000000;stroke-linecap:square;stroke-opacity:0.7;stroke-width:1.2;"/>
   </g>
   <g id="line2d_19">
    <path clip-path="url(#p4507da001f)" d="M 484.999179 112.38314 
L 482.671177 113.701402 
L 481.665314 114.046083 
L 481.366337 114.014602 
L 481.381432 113.847576 
L 481.683146 113.556652 
L 482.238522 113.216687 
L 483.382102 112.746547 
L 485.048862 112.370205 
L 486.797068 112.267541 
L 488.628449 112.43103 
L 490.333585 112.807603 
L 492.38537 113.528302 
L 494.33705 114.477804 
L 496.328396 115.720075 
L 498.206406 117.174068 
L 499.573711 118.441713 
L 501.262669 120.342389 
L 502.379693 121.919007 
L 503.332069 123.666167 
L 503.785265 124.804494 
L 504.159803 126.32016 
L 504.238756 127.278736 
L 504.135826 128.393707 
L 503.7515 129.492501 
L 503.307476 130.158038 
L 503.025959 130.456962 
L 502.000692 131.144959 
L 500.996676 131.464731 
L 499.830734 131.561242 
L 499.189976 131.515955 
L 497.379418 131.071794 
L 496.356883 130.631065 
L 495.048579 129.870949 
L 493.706105 128.847287 
L 492.738031 127.932699 
L 491.546915 126.544758 
L 490.441622 124.853953 
L 489.659972 123.211415 
L 488.968079 121.718975 
L 488.418811 121.080917 
L 487.271051 120.252734 
L 485.614608 119.060395 
L 484.851054 118.20777 
L 484.366289 117.263003 
L 484.111148 115.998101 
L 484.14301 114.619521 
L 484.374078 113.205494 
L 484.476268 112.763207 
L 484.476268 112.763207 
" style="fill:none;stroke:#000000;stroke-linecap:square;stroke-opacity:0.7;stroke-width:1.2;"/>
   </g>
   <g id="line2d_20">
    <path clip-path="url(#p4507da001f)" d="M 484.89802 76.061798 
L 486.129001 75.142415 
L 486.923431 74.278133 
L 487.221055 73.673403 
L 487.30137 72.918367 
L 487.151741 72.26692 
L 486.731435 71.389219 
L 483.553714 66.053413 
L 482.754513 64.073863 
L 481.992305 61.361233 
L 481.536883 58.553935 
L 481.352339 55.632982 
L 481.40595 52.591556 
L 481.684448 49.096724 
L 482.341759 41.869275 
L 482.272514 39.950431 
L 482.044341 38.697578 
L 481.649969 37.703323 
L 481.282264 37.184847 
L 480.571641 36.675363 
L 479.990207 36.545251 
L 479.146226 36.6724 
L 478.579037 36.937516 
L 477.772649 37.557929 
L 477.015849 38.428146 
L 476.200715 39.753357 
L 475.502966 41.313672 
L 474.904101 43.085408 
L 474.159005 46.132029 
L 473.627583 49.447545 
L 473.386682 52.278952 
L 473.375518 55.043596 
L 473.566288 57.317272 
L 473.984767 59.711394 
L 474.723069 62.407489 
L 475.710045 65.086799 
L 476.998823 67.92624 
L 478.42334 70.558284 
L 479.759695 72.627902 
L 481.133387 74.334521 
L 482.361493 75.444378 
L 483.413393 76.016891 
L 484.170345 76.148869 
L 484.403436 76.126804 
L 484.403436 76.126804 
" style="fill:none;stroke:#000000;stroke-linecap:square;stroke-opacity:0.7;stroke-width:1.2;"/>
   </g>
   <g id="line2d_21">
    <path clip-path="url(#p4507da001f)" d="M 604.884294 220.514293 
L 602.327378 220.145848 
L 601.178167 219.9174 
L 599.398687 219.357576 
L 598.338661 218.85675 
L 596.947498 217.93074 
L 595.894895 216.94923 
L 595.001134 215.842403 
L 594.520882 215.104566 
L 593.445822 212.892195 
L 592.805199 210.936374 
L 592.349208 208.909674 
L 591.966555 206.037119 
L 591.833785 203.802339 
L 591.950358 198.595858 
L 592.211229 195.826649 
L 592.952627 190.943726 
L 593.645676 187.599544 
L 594.90594 182.674348 
L 596.711774 176.715779 
L 598.339634 171.257453 
L 598.804823 169.122023 
L 599.013663 167.181801 
L 598.949634 165.795247 
L 598.702407 164.719991 
L 598.340833 163.913681 
L 597.805294 163.187116 
L 597.173112 162.644097 
L 596.155927 162.144622 
L 595.144172 161.941462 
L 594.267251 161.951834 
L 593.354076 162.140077 
L 592.685912 162.405512 
L 591.603759 163.143875 
L 590.848815 164.043331 
L 590.735138 164.229281 
L 590.288957 165.235569 
L 590.004987 166.680785 
L 589.994316 167.939078 
L 590.165768 169.308013 
L 590.573668 170.983427 
L 591.421812 173.344697 
L 592.800797 176.326963 
L 595.336917 181.078881 
L 598.033111 186.232708 
L 599.539065 189.576775 
L 600.780091 192.883094 
L 601.79806 196.242533 
L 602.514651 199.181507 
L 603.445152 204.251703 
L 603.956435 208.20493 
L 604.376729 213.221679 
L 604.503261 217.243713 
L 604.401023 219.451542 
L 604.187569 220.555762 
L 604.187569 220.555762 
" style="fill:none;stroke:#000000;stroke-linecap:square;stroke-opacity:0.7;stroke-width:1.2;"/>
   </g>
   <g id="line2d_22">
    <path clip-path="url(#p4507da001f)" d="M 605.572637 184.824315 
L 604.358263 185.847127 
L 603.218262 186.783356 
L 603.339649 186.964638 
L 604.58732 188.074438 
L 605.099891 188.954031 
L 605.545162 190.16393 
L 606.096983 192.490765 
L 607.219288 197.510513 
L 609.185105 203.270261 
L 610.699681 206.632279 
L 612.979638 210.974332 
L 615.920897 215.933189 
L 618.130749 219.335869 
L 618.678554 220.097404 
L 619.286214 220.696248 
L 619.314985 220.463479 
L 618.916337 219.218602 
L 617.295035 215.630649 
L 616.023448 213.226714 
L 613.685129 209.265242 
L 609.152402 201.962454 
L 608.03212 199.818924 
L 606.37733 194.588667 
L 606.038618 191.663155 
L 605.552877 186.905109 
L 605.125002 184.967188 
L 605.078358 184.85366 
L 605.078358 184.85366 
" style="fill:none;stroke:#000000;stroke-linecap:square;stroke-opacity:0.7;stroke-width:1.2;"/>
   </g>
   <g id="line2d_23">
    <path clip-path="url(#p4507da001f)" d="M 605.45729 149.066176 
L 603.252566 150.266672 
L 602.043606 151.17806 
L 601.259477 152.172349 
L 601.085133 152.929968 
L 601.204067 153.572458 
L 601.689053 154.504094 
L 603.126224 156.417071 
L 604.861039 158.815088 
L 607.587544 163.092582 
L 610.714004 167.847874 
L 613.52587 171.859918 
L 612.032943 169.630313 
L 611.2781 167.863446 
L 609.66697 163.282752 
L 608.476189 159.613233 
L 608.164012 157.630385 
L 608.262072 155.671129 
L 608.206427 154.628693 
L 607.947763 153.518754 
L 607.406492 152.172308 
L 606.663624 150.897313 
L 605.910784 149.988753 
L 605.044389 149.298624 
L 604.718643 149.131482 
L 604.718643 149.131482 
" style="fill:none;stroke:#000000;stroke-linecap:square;stroke-opacity:0.7;stroke-width:1.2;"/>
   </g>
   <g id="line2d_24">
    <path clip-path="url(#p4507da001f)" d="M 604.963834 112.272475 
L 604.452198 111.272149 
L 602.284269 107.525872 
L 601.144801 104.942809 
L 600.071884 101.801356 
L 598.839632 97.312623 
L 594.397481 80.01562 
L 593.361272 76.482718 
L 590.151413 66.550854 
L 587.311254 58.689387 
L 584.780701 52.333543 
L 582.193624 46.448782 
L 579.058462 39.913601 
L 574.905739 31.277227 
L 573.821669 28.570109 
L 573.305937 26.763001 
L 573.20789 25.883603 
L 573.269882 25.385637 
L 573.61818 24.920872 
L 573.733998 24.872727 
L 574.992125 25.060815 
L 576.51921 25.848163 
L 578.638578 27.256745 
L 581.962246 29.79544 
L 584.545117 31.95791 
L 588.384621 35.486181 
L 591.301248 38.488425 
L 593.450786 40.949457 
L 595.111484 43.04664 
L 597.313295 46.190209 
L 599.236634 49.420279 
L 600.547465 51.99892 
L 603.612211 60.116116 
L 605.432224 67.732941 
L 606.310759 73.102305 
L 606.954469 78.510228 
L 607.502248 85.418566 
L 607.791641 92.901124 
L 607.746124 99.559642 
L 607.542245 103.120841 
L 607.126059 106.516155 
L 606.654053 108.595772 
L 606.23278 109.769412 
L 605.579105 110.928936 
L 605.016503 111.563253 
L 604.052958 112.27865 
L 604.052958 112.27865 
" style="fill:none;stroke:#000000;stroke-linecap:square;stroke-opacity:0.7;stroke-width:1.2;"/>
   </g>
   <g id="line2d_25">
    <path clip-path="url(#p4507da001f)" d="M 605.357086 76.009677 
L 605.359146 74.619815 
L 605.618854 73.10113 
L 606.154043 70.627098 
L 606.099686 69.751799 
L 605.903631 69.293707 
L 605.539986 68.902253 
L 604.741195 68.527958 
L 603.745635 68.375184 
L 602.458561 68.391399 
L 600.296746 68.662772 
L 593.328721 69.735212 
L 591.738583 69.686748 
L 590.677143 69.433852 
L 590.149178 69.141135 
L 589.836677 68.786388 
L 589.717198 68.304038 
L 589.808335 67.877249 
L 590.182877 67.271493 
L 590.74594 66.719299 
L 591.852493 65.965233 
L 593.969557 65.013311 
L 595.23543 64.719467 
L 595.429359 64.745579 
L 595.413128 64.984874 
L 594.639919 65.58525 
L 593.153588 66.459341 
L 590.001128 68.296251 
L 589.913201 68.468194 
L 590.33516 68.488499 
L 592.86196 68.25856 
L 595.03776 68.357452 
L 596.50456 68.624385 
L 598.244175 69.178119 
L 599.665686 69.852763 
L 600.430878 70.315 
L 601.585444 71.177033 
L 602.9575 72.56862 
L 603.580317 73.422924 
L 604.30809 74.850485 
L 604.613097 76.101363 
L 604.627982 76.317345 
L 604.627982 76.317345 
" style="fill:none;stroke:#000000;stroke-linecap:square;stroke-opacity:0.7;stroke-width:1.2;"/>
   </g>
  </g>
 </g>
 <defs>
  <clipPath id="p4507da001f">
   <rect height="262.08" width="694.08" x="12.96" y="12.96"/>
  </clipPath>
 </defs>
</svg>
