<?xml version="1.0" encoding="utf-8" standalone="no"?>
<!DOCTYPE svg PUBLIC "-//W3C//DTD SVG 1.1//EN"
  "http://www.w3.org/Graphics/SVG/1.1/DTD/svg11.dtd">
<!-- Created with matplotlib (https://matplotlib.org/) -->
<svg height="288pt" version="1.1" viewBox="0 0 720 288" width="720pt" xmlns="http://www.w3.org/2000/svg" xmlns:xlink="http://www.w3.org/1999/xlink">
 <metadata>
  <rdf:RDF xmlns:cc="http://creativecommons.org/ns#" xmlns:dc="http://purl.org/dc/elements/1.1/" xmlns:rdf="http://www.w3.org/1999/02/22-rdf-syntax-ns#">
   <cc:Work>
    <dc:type rdf:resource="http://purl.org/dc/dcmitype/StillImage"/>
    <dc:date>2020-12-22T16:17:33.543620</dc:date>
    <dc:format>image/svg+xml</dc:format>
    <dc:creator>
     <cc:Agent>
      <dc:title>Matplotlib v3.3.2, https://matplotlib.org/</dc:title>
     </cc:Agent>
    </dc:creator>
   </cc:Work>
  </rdf:RDF>
 </metadata>
 <defs>
  <style type="text/css">*{stroke-linecap:butt;stroke-linejoin:round;}</style>
 </defs>
 <g id="figure_1">
  <g id="patch_1">
   <path d="M 0 288 
L 720 288 
L 720 0 
L 0 0 
z
" style="fill:#ffffff;"/>
  </g>
  <g id="axes_1">
   <g id="line2d_1">
    <path clip-path="url(#p7f8ba0d7da)" d="M 46.444019 233.831091 
L 46.638495 234.878482 
L 46.881003 237.733933 
L 46.980714 242.018862 
L 46.841867 244.04208 
L 46.735841 244.173171 
L 46.709456 244.154017 
L 46.575533 243.879726 
L 46.24816 242.596866 
L 45.514715 238.545348 
L 44.971038 234.340983 
L 44.898992 232.960189 
L 44.813768 233.423996 
L 44.537833 235.583804 
L 44.548496 235.582534 
L 44.693838 235.377598 
L 45.703899 233.618562 
L 45.987737 233.553967 
L 46.454017 233.919791 
L 46.454017 233.919791 
" style="fill:none;stroke:#000000;stroke-linecap:square;stroke-opacity:0.7;stroke-width:1.2;"/>
   </g>
   <g id="line2d_2">
    <path clip-path="url(#p7f8ba0d7da)" d="M 46.372826 186.757628 
L 46.353587 186.717634 
L 46.306706 186.890272 
L 45.794391 188.947527 
L 45.438268 189.740355 
L 45.270642 189.751293 
L 45.133546 189.405523 
L 45.020269 188.474092 
L 45.100262 187.409703 
L 45.325096 186.889402 
L 45.625051 186.687507 
L 45.900777 186.717472 
L 46.313868 187.015292 
L 46.602763 187.480358 
L 46.687097 188.145312 
L 47.0263 196.105017 
L 47.044222 195.891736 
L 46.932875 193.573169 
L 46.466887 186.844315 
L 46.466887 186.844315 
" style="fill:none;stroke:#000000;stroke-linecap:square;stroke-opacity:0.7;stroke-width:1.2;"/>
   </g>
   <g id="line2d_3">
    <path clip-path="url(#p7f8ba0d7da)" d="M 46.402661 139.696843 
L 46.653169 140.962331 
L 47.54663 147.02441 
L 47.272109 145.517225 
L 46.733416 144.156695 
L 46.65902 143.689009 
L 46.835327 142.271255 
L 47.041409 140.626494 
L 46.713437 140.712074 
L 46.260222 141.067007 
L 45.928247 141.5333 
L 46.004139 141.218727 
L 46.453104 139.753029 
L 46.453104 139.753029 
" style="fill:none;stroke:#000000;stroke-linecap:square;stroke-opacity:0.7;stroke-width:1.2;"/>
   </g>
   <g id="line2d_4">
    <path clip-path="url(#p7f8ba0d7da)" d="M 46.444057 92.507647 
L 47.289911 88.650512 
L 47.907452 85.400581 
L 47.857817 84.74856 
L 47.753737 84.778677 
L 47.542395 85.199939 
L 47.237051 86.293826 
L 46.697401 89.281786 
L 46.219964 93.354275 
L 46.100041 96.080918 
L 46.147237 96.350224 
L 46.20856 96.207757 
L 46.358601 94.754938 
L 46.57352 93.59848 
L 46.904934 92.147306 
L 46.810139 91.225108 
L 46.774947 91.163668 
L 46.722401 91.310583 
L 46.470876 92.589222 
L 46.470876 92.589222 
" style="fill:none;stroke:#000000;stroke-linecap:square;stroke-opacity:0.7;stroke-width:1.2;"/>
   </g>
   <g id="line2d_5">
    <path clip-path="url(#p7f8ba0d7da)" d="M 46.39205 45.491028 
L 46.403095 45.215958 
L 46.315536 45.796366 
L 45.875612 47.778491 
L 45.782643 48.019875 
L 46.690008 45.710465 
L 46.681484 45.58283 
L 46.621441 45.593262 
L 46.288957 45.882924 
L 45.908971 46.515399 
L 45.875544 46.773972 
L 45.989428 46.608404 
L 46.458589 45.579103 
L 46.458589 45.579103 
" style="fill:none;stroke:#000000;stroke-linecap:square;stroke-opacity:0.7;stroke-width:1.2;"/>
   </g>
   <g id="line2d_6">
    <path clip-path="url(#p7f8ba0d7da)" d="M 203.303915 233.814959 
L 203.015416 232.775184 
L 202.680312 232.481176 
L 202.255496 232.42979 
L 201.881249 232.590788 
L 201.903653 232.65115 
L 201.976792 232.650246 
L 203.092962 232.440932 
L 203.50487 232.799719 
L 203.938794 233.513751 
L 204.295268 234.530029 
L 204.451999 235.747246 
L 205.529228 249.584031 
L 205.330472 247.926672 
L 203.770097 236.30717 
L 203.400011 233.9809 
L 203.400011 233.9809 
" style="fill:none;stroke:#000000;stroke-linecap:square;stroke-opacity:0.7;stroke-width:1.2;"/>
   </g>
   <g id="line2d_7">
    <path clip-path="url(#p7f8ba0d7da)" d="M 203.351087 186.684135 
L 203.094915 186.1572 
L 202.870066 186.16328 
L 202.469734 186.448636 
L 202.093482 186.917147 
L 202.475159 186.595724 
L 203.094496 186.178442 
L 203.340933 186.227551 
L 203.411587 186.452181 
L 203.311435 187.128639 
L 203.187494 187.592246 
L 203.304932 186.762445 
L 203.318813 186.202494 
L 203.404127 186.766221 
L 203.404127 186.766221 
" style="fill:none;stroke:#000000;stroke-linecap:square;stroke-opacity:0.7;stroke-width:1.2;"/>
   </g>
   <g id="line2d_8">
    <path clip-path="url(#p7f8ba0d7da)" d="M 203.358982 139.589011 
L 203.278502 138.396064 
L 203.009541 137.986803 
L 202.647732 137.86516 
L 202.091581 137.949412 
L 201.832902 137.998382 
L 201.853944 137.911946 
L 202.289745 137.235636 
L 202.909374 136.597796 
L 203.225717 136.553632 
L 203.349965 136.727332 
L 203.418 137.319838 
L 203.278757 138.725438 
L 203.047989 140.259392 
L 202.983561 140.032017 
L 202.90683 139.532648 
L 202.949101 139.532781 
L 203.393247 139.676808 
L 203.393247 139.676808 
" style="fill:none;stroke:#000000;stroke-linecap:square;stroke-opacity:0.7;stroke-width:1.2;"/>
   </g>
   <g id="line2d_9">
    <path clip-path="url(#p7f8ba0d7da)" d="M 203.340454 92.41658 
L 204.125143 88.605941 
L 204.399222 85.983518 
L 204.255347 84.923623 
L 203.944803 84.32501 
L 203.570421 84.008431 
L 202.88709 83.789327 
L 202.123174 83.817341 
L 201.527311 84.030519 
L 200.945202 84.536004 
L 200.803721 84.752369 
L 200.54493 85.443776 
L 200.48327 86.510042 
L 200.700554 87.524316 
L 201.187247 88.434497 
L 201.628638 89.11612 
L 201.570256 89.687753 
L 201.009915 91.804167 
L 200.601524 93.670826 
L 200.735514 93.544742 
L 201.566567 92.519068 
L 201.997819 92.33561 
L 202.479701 92.416189 
L 203.101492 92.505405 
L 203.390051 92.551747 
L 203.390051 92.551747 
" style="fill:none;stroke:#000000;stroke-linecap:square;stroke-opacity:0.7;stroke-width:1.2;"/>
   </g>
   <g id="line2d_10">
    <path clip-path="url(#p7f8ba0d7da)" d="M 203.327269 45.480433 
L 203.358735 44.514073 
L 203.360284 44.507047 
L 203.411625 44.84875 
L 203.660823 46.530492 
L 203.666151 48.061431 
L 203.423051 50.997616 
L 203.263985 51.598589 
L 203.237705 51.560082 
L 203.118441 50.988273 
L 202.883722 48.761061 
L 202.871757 46.838045 
L 203.015835 45.315113 
L 202.938244 45.338705 
L 202.746709 45.598456 
L 202.79136 45.839113 
L 202.975471 45.775203 
L 203.38399 45.564734 
L 203.38399 45.564734 
" style="fill:none;stroke:#000000;stroke-linecap:square;stroke-opacity:0.7;stroke-width:1.2;"/>
   </g>
   <g id="line2d_11">
    <path clip-path="url(#p7f8ba0d7da)" d="M 360.251548 233.812366 
L 360.28701 233.789792 
L 360.322756 233.81919 
L 360.576422 234.423037 
L 361.292035 236.421207 
L 361.592208 237.018031 
L 361.31619 237.136868 
L 360.528815 237.192563 
L 359.91405 237.029412 
L 359.480501 236.685522 
L 358.012758 234.857468 
L 358.115731 234.667013 
L 358.33065 234.670201 
L 358.579879 234.936687 
L 359.128801 235.592659 
L 359.320679 235.432116 
L 360.009795 234.291298 
L 360.321058 233.905384 
L 360.321058 233.905384 
" style="fill:none;stroke:#000000;stroke-linecap:square;stroke-opacity:0.7;stroke-width:1.2;"/>
   </g>
   <g id="line2d_12">
    <path clip-path="url(#p7f8ba0d7da)" d="M 360.233379 186.677918 
L 361.082496 179.002494 
L 360.987627 178.525976 
L 360.947773 178.568547 
L 360.817973 179.059408 
L 360.460593 181.696086 
L 359.683784 189.346167 
L 359.136209 194.085023 
L 359.072895 194.069202 
L 359.056867 194.043869 
L 358.867345 193.435075 
L 357.864146 188.843401 
L 357.661522 187.112071 
L 357.785769 186.42018 
L 358.045728 186.024001 
L 358.308448 185.965304 
L 358.466713 186.099295 
L 358.797125 186.894575 
L 359.15972 187.711206 
L 359.368548 187.722316 
L 359.62719 187.499738 
L 360.288185 186.772857 
L 360.288185 186.772857 
" style="fill:none;stroke:#000000;stroke-linecap:square;stroke-opacity:0.7;stroke-width:1.2;"/>
   </g>
   <g id="line2d_13">
    <path clip-path="url(#p7f8ba0d7da)" d="M 360.248024 139.663905 
L 360.346642 139.524521 
L 360.368545 139.53793 
L 360.517778 139.865099 
L 360.84358 141.600217 
L 361.043113 143.037341 
L 360.975669 144.893056 
L 360.653205 147.662433 
L 360.15846 150.137091 
L 359.891616 150.604015 
L 359.748235 150.545143 
L 359.502464 150.066115 
L 359.116207 148.777758 
L 358.415028 145.636461 
L 357.828347 142.035486 
L 357.745032 140.3707 
L 357.903057 139.423546 
L 358.151216 138.877799 
L 358.522881 138.555807 
L 358.90372 138.549426 
L 359.398308 138.805579 
L 360.210347 139.51233 
L 360.299499 139.754493 
L 360.299499 139.754493 
" style="fill:none;stroke:#000000;stroke-linecap:square;stroke-opacity:0.7;stroke-width:1.2;"/>
   </g>
   <g id="line2d_14">
    <path clip-path="url(#p7f8ba0d7da)" d="M 360.257849 92.532092 
L 359.989374 92.017414 
L 359.753256 91.921431 
L 359.191942 91.997794 
L 357.455754 92.439125 
L 357.371556 92.250877 
L 357.490603 91.801896 
L 357.974976 91.004009 
L 358.854826 89.998183 
L 359.507575 89.530328 
L 359.787835 89.556297 
L 359.888631 89.831745 
L 359.836347 90.631746 
L 359.561587 92.981487 
L 359.575812 92.978064 
L 359.595687 92.836214 
L 359.547377 92.810564 
L 359.75491 92.865461 
L 360.322741 92.622484 
L 360.322741 92.622484 
" style="fill:none;stroke:#000000;stroke-linecap:square;stroke-opacity:0.7;stroke-width:1.2;"/>
   </g>
   <g id="line2d_15">
    <path clip-path="url(#p7f8ba0d7da)" d="M 360.289045 45.420462 
L 361.221875 39.241861 
L 361.089104 38.519545 
L 360.926222 38.415969 
L 360.741646 38.519633 
L 360.441496 39.021037 
L 360.062655 40.188573 
L 359.637756 42.274115 
L 359.341699 44.77583 
L 359.343592 46.440787 
L 359.517707 46.89333 
L 359.713753 46.875789 
L 360.175079 46.444733 
L 360.532175 45.995248 
L 360.505506 45.976178 
L 360.265781 46.02656 
L 359.918061 46.308881 
L 359.878274 46.401973 
L 360.332596 45.518272 
L 360.332596 45.518272 
" style="fill:none;stroke:#000000;stroke-linecap:square;stroke-opacity:0.7;stroke-width:1.2;"/>
   </g>
   <g id="line2d_16">
    <path clip-path="url(#p7f8ba0d7da)" d="M 517.170207 233.729867 
L 516.803616 231.820227 
L 516.41343 231.028631 
L 515.981685 230.581634 
L 515.442019 230.344755 
L 515.059953 230.395796 
L 514.908512 230.595854 
L 514.909709 231.018269 
L 515.122032 231.580382 
L 515.59206 232.190136 
L 516.134929 232.518443 
L 516.942006 232.906833 
L 516.657091 233.389103 
L 516.255622 234.133045 
L 516.34309 234.555179 
L 516.486247 234.822166 
L 516.495279 234.819853 
L 516.660219 234.640718 
L 517.25255 233.843883 
L 517.25255 233.843883 
" style="fill:none;stroke:#000000;stroke-linecap:square;stroke-opacity:0.7;stroke-width:1.2;"/>
   </g>
   <g id="line2d_17">
    <path clip-path="url(#p7f8ba0d7da)" d="M 517.183475 186.67546 
L 517.634534 183.06349 
L 517.64501 183.010777 
L 517.677457 183.523803 
L 517.556898 185.132422 
L 517.178738 187.380129 
L 516.529858 190.002426 
L 516.080572 191.119025 
L 515.882527 191.214944 
L 515.722407 191.021047 
L 515.373161 190.125016 
L 514.88203 188.356991 
L 515.053076 188.153936 
L 515.24922 188.235853 
L 515.504001 188.680976 
L 516.078582 189.848088 
L 516.221731 189.686235 
L 516.531385 188.833781 
L 517.237659 186.784815 
L 517.237659 186.784815 
" style="fill:none;stroke:#000000;stroke-linecap:square;stroke-opacity:0.7;stroke-width:1.2;"/>
   </g>
   <g id="line2d_18">
    <path clip-path="url(#p7f8ba0d7da)" d="M 517.176957 139.648783 
L 517.115716 137.944782 
L 516.999431 138.515328 
L 516.632443 142.676785 
L 516.276978 145.025768 
L 516.817654 141.971029 
L 517.461902 139.813966 
L 517.278531 139.964892 
L 516.868695 140.689791 
L 516.512049 141.729807 
L 516.435243 142.643307 
L 516.481713 142.648053 
L 516.514368 142.604521 
L 516.687832 142.080419 
L 517.215472 139.741483 
L 517.215472 139.741483 
" style="fill:none;stroke:#000000;stroke-linecap:square;stroke-opacity:0.7;stroke-width:1.2;"/>
   </g>
   <g id="line2d_19">
    <path clip-path="url(#p7f8ba0d7da)" d="M 517.190247 92.490537 
L 517.093769 91.42157 
L 516.747823 90.446585 
L 516.327182 90.065692 
L 515.860505 89.946146 
L 515.421201 90.048138 
L 515.223665 90.304422 
L 515.29756 90.506857 
L 515.583365 90.502848 
L 515.918768 90.555497 
L 516.130327 90.800191 
L 516.349481 91.496067 
L 516.647206 92.915774 
L 516.707415 92.774955 
L 516.728337 92.053626 
L 516.795265 91.636756 
L 516.835119 91.652278 
L 517.000478 91.94111 
L 517.224242 92.595004 
L 517.224242 92.595004 
" style="fill:none;stroke:#000000;stroke-linecap:square;stroke-opacity:0.7;stroke-width:1.2;"/>
   </g>
   <g id="line2d_20">
    <path clip-path="url(#p7f8ba0d7da)" d="M 517.156109 45.529249 
L 517.210309 45.644606 
L 517.377449 46.539017 
L 517.548263 48.95691 
L 517.491594 50.332167 
L 515.332812 51.392054 
L 515.111286 51.232456 
L 514.878602 50.767607 
L 514.519644 49.41405 
L 514.117396 46.946012 
L 514.072543 45.451703 
L 514.268455 44.660706 
L 514.554447 44.272894 
L 514.816958 44.15064 
L 515.324267 44.221013 
L 515.980405 44.608337 
L 517.209568 45.616053 
L 517.209568 45.616053 
" style="fill:none;stroke:#000000;stroke-linecap:square;stroke-opacity:0.7;stroke-width:1.2;"/>
   </g>
   <g id="line2d_21">
    <path clip-path="url(#p7f8ba0d7da)" d="M 674.098565 233.73117 
L 673.927661 232.423068 
L 673.443407 230.894067 
L 672.928016 230.162993 
L 672.265427 229.648003 
L 671.545197 229.382891 
L 671.131343 229.41395 
L 671.086984 229.593202 
L 671.331655 229.886971 
L 671.895147 230.233799 
L 673.645567 231.149462 
L 673.853183 231.652362 
L 673.94431 232.49292 
L 673.906259 233.918258 
L 673.859992 233.790995 
L 673.612335 233.450951 
L 673.604156 233.493937 
L 673.771431 233.742152 
L 674.107305 233.843502 
L 674.156954 233.860828 
L 674.156954 233.860828 
" style="fill:none;stroke:#000000;stroke-linecap:square;stroke-opacity:0.7;stroke-width:1.2;"/>
   </g>
   <g id="line2d_22">
    <path clip-path="url(#p7f8ba0d7da)" d="M 674.097397 186.7145 
L 673.715862 185.102611 
L 673.369003 184.587024 
L 672.98021 184.377018 
L 672.805085 184.468413 
L 672.755952 184.808056 
L 672.87675 185.373207 
L 673.053902 185.429513 
L 673.367754 185.443833 
L 673.431037 185.84267 
L 673.312559 187.212151 
L 673.266262 188.366476 
L 673.465654 189.679568 
L 674.493427 195.281542 
L 674.908366 197.944845 
L 674.857085 196.964722 
L 674.171135 186.845296 
L 674.171135 186.845296 
" style="fill:none;stroke:#000000;stroke-linecap:square;stroke-opacity:0.7;stroke-width:1.2;"/>
   </g>
   <g id="line2d_23">
    <path clip-path="url(#p7f8ba0d7da)" d="M 674.145663 139.578256 
L 675.203959 133.43664 
L 675.075409 132.396596 
L 674.831613 132.105112 
L 674.549602 132.10679 
L 674.23795 132.349008 
L 673.891204 132.931799 
L 673.586826 133.894533 
L 673.405184 135.041571 
L 673.365696 136.467382 
L 673.529416 137.67504 
L 673.868246 138.458577 
L 674.284996 138.847176 
L 675.253249 139.605912 
L 675.464726 140.021252 
L 675.159443 140.159816 
L 673.924383 140.582998 
L 673.931627 140.474314 
L 674.19312 139.684756 
L 674.20394 139.679426 
L 674.20394 139.679426 
" style="fill:none;stroke:#000000;stroke-linecap:square;stroke-opacity:0.7;stroke-width:1.2;"/>
   </g>
   <g id="line2d_24">
    <path clip-path="url(#p7f8ba0d7da)" d="M 674.098437 92.522755 
L 673.938212 87.280859 
L 673.667545 86.62803 
L 673.484219 86.600299 
L 673.302023 86.928159 
L 673.055736 87.9604 
L 672.427486 92.098171 
L 672.05074 94.284122 
L 672.017 94.249965 
L 671.676367 93.217958 
L 671.433095 92.311286 
L 671.574508 91.90146 
L 671.893433 91.618134 
L 672.162065 91.625484 
L 672.381518 91.828609 
L 672.687011 92.510749 
L 673.091504 93.374627 
L 673.292849 93.371149 
L 673.674354 93.053822 
L 674.150078 92.631604 
L 674.150078 92.631604 
" style="fill:none;stroke:#000000;stroke-linecap:square;stroke-opacity:0.7;stroke-width:1.2;"/>
   </g>
   <g id="line2d_25">
    <path clip-path="url(#p7f8ba0d7da)" d="M 674.089637 45.528644 
L 674.099927 46.277642 
L 674.237696 50.572198 
L 674.012578 47.249848 
L 673.657532 44.335214 
L 673.559303 44.428667 
L 673.081978 45.271592 
L 672.701207 46.291233 
L 672.695737 46.991967 
L 673.093435 49.366372 
L 673.623777 52.375676 
L 673.675514 52.195903 
L 673.803017 50.492242 
L 674.161998 45.603133 
L 674.161998 45.603133 
" style="fill:none;stroke:#000000;stroke-linecap:square;stroke-opacity:0.7;stroke-width:1.2;"/>
   </g>
  </g>
 </g>
 <defs>
  <clipPath id="p7f8ba0d7da">
   <rect height="262.08" width="694.08" x="12.96" y="12.96"/>
  </clipPath>
 </defs>
</svg>
