<?xml version="1.0" encoding="utf-8" standalone="no"?>
<!DOCTYPE svg PUBLIC "-//W3C//DTD SVG 1.1//EN"
  "http://www.w3.org/Graphics/SVG/1.1/DTD/svg11.dtd">
<!-- Created with matplotlib (https://matplotlib.org/) -->
<svg height="288pt" version="1.1" viewBox="0 0 720 288" width="720pt" xmlns="http://www.w3.org/2000/svg" xmlns:xlink="http://www.w3.org/1999/xlink">
 <metadata>
  <rdf:RDF xmlns:cc="http://creativecommons.org/ns#" xmlns:dc="http://purl.org/dc/elements/1.1/" xmlns:rdf="http://www.w3.org/1999/02/22-rdf-syntax-ns#">
   <cc:Work>
    <dc:type rdf:resource="http://purl.org/dc/dcmitype/StillImage"/>
    <dc:date>2020-12-22T18:34:18.694308</dc:date>
    <dc:format>image/svg+xml</dc:format>
    <dc:creator>
     <cc:Agent>
      <dc:title>Matplotlib v3.3.2, https://matplotlib.org/</dc:title>
     </cc:Agent>
    </dc:creator>
   </cc:Work>
  </rdf:RDF>
 </metadata>
 <defs>
  <style type="text/css">*{stroke-linecap:butt;stroke-linejoin:round;}</style>
 </defs>
 <g id="figure_1">
  <g id="patch_1">
   <path d="M 0 288 
L 720 288 
L 720 0 
L 0 0 
z
" style="fill:#ffffff;"/>
  </g>
  <g id="axes_1">
   <g id="line2d_1">
    <path clip-path="url(#p1923ad4b8a)" d="M 46.420956 235.669467 
L 46.242365 235.77672 
L 46.011874 235.678212 
L 45.915166 235.453337 
L 45.881847 235.619785 
L 45.251285 238.579055 
L 45.223706 238.619438 
L 45.216117 238.474567 
L 45.528139 236.391548 
L 45.643093 235.853828 
L 45.666398 236.224329 
L 45.597142 241.277519 
L 45.57011 241.944959 
L 45.704552 240.4134 
L 46.302626 236.339987 
L 46.435048 235.709731 
L 46.435048 235.709731 
" style="fill:none;stroke:#000000;stroke-linecap:square;stroke-opacity:0.7;stroke-width:1.2;"/>
   </g>
   <g id="line2d_2">
    <path clip-path="url(#p1923ad4b8a)" d="M 46.420956 188.574687 
L 46.41663 188.601061 
L 46.323761 187.785681 
L 46.292703 188.297933 
L 45.866468 191.221609 
L 45.442949 193.099108 
L 45.431723 193.06665 
L 45.482442 192.474203 
L 46.099713 188.731705 
L 46.089161 189.094498 
L 45.604034 194.65344 
L 45.478176 195.467297 
L 46.299925 189.236185 
L 46.437967 188.625548 
L 46.437967 188.625548 
" style="fill:none;stroke:#000000;stroke-linecap:square;stroke-opacity:0.7;stroke-width:1.2;"/>
   </g>
   <g id="line2d_3">
    <path clip-path="url(#p1923ad4b8a)" d="M 46.423029 141.472513 
L 46.321651 141.04413 
L 45.548226 139.007316 
L 45.913018 139.589222 
L 46.25993 139.922008 
L 46.342044 139.880315 
L 46.333041 140.003419 
L 46.065684 140.987719 
L 45.900116 141.318635 
L 46.615606 139.841817 
L 46.652038 139.800973 
L 46.675538 139.932018 
L 46.558414 140.952952 
L 46.445623 141.494385 
L 46.445623 141.494385 
" style="fill:none;stroke:#000000;stroke-linecap:square;stroke-opacity:0.7;stroke-width:1.2;"/>
   </g>
   <g id="line2d_4">
    <path clip-path="url(#p1923ad4b8a)" d="M 46.425401 94.403679 
L 45.925958 93.824184 
L 44.563193 92.188257 
L 44.53173 91.988663 
L 44.568289 91.984094 
L 45.105646 92.174378 
L 45.728156 92.269215 
L 45.913347 92.240555 
L 45.909411 92.332937 
L 45.664879 93.411757 
L 45.393488 94.451554 
L 45.5152 94.360205 
L 46.93637 93.078435 
L 46.855049 93.327682 
L 46.437675 94.410531 
L 46.437675 94.410531 
" style="fill:none;stroke:#000000;stroke-linecap:square;stroke-opacity:0.7;stroke-width:1.2;"/>
   </g>
   <g id="line2d_5">
    <path clip-path="url(#p1923ad4b8a)" d="M 46.427018 47.331381 
L 46.202356 47.940008 
L 45.865001 48.818073 
L 45.103573 53.158317 
L 45.083913 53.159106 
L 45.062756 53.057459 
L 45.065779 51.952584 
L 45.294048 48.346377 
L 45.393091 48.010975 
L 45.441602 48.056242 
L 45.739622 48.809096 
L 45.839652 48.59535 
L 46.442577 47.368932 
L 46.442577 47.368932 
" style="fill:none;stroke:#000000;stroke-linecap:square;stroke-opacity:0.7;stroke-width:1.2;"/>
   </g>
   <g id="line2d_6">
    <path clip-path="url(#p1923ad4b8a)" d="M 203.3631 235.64019 
L 203.578003 234.473932 
L 203.714324 232.444404 
L 203.658441 232.683637 
L 202.860925 235.750021 
L 202.612345 236.432766 
L 202.59823 236.261753 
L 202.525277 235.497497 
L 202.479512 235.828554 
L 202.409425 238.049298 
L 202.446448 237.906174 
L 202.751772 236.949692 
L 203.353311 235.705446 
L 203.388793 235.67584 
L 203.388793 235.67584 
" style="fill:none;stroke:#000000;stroke-linecap:square;stroke-opacity:0.7;stroke-width:1.2;"/>
   </g>
   <g id="line2d_7">
    <path clip-path="url(#p1923ad4b8a)" d="M 203.369611 188.585876 
L 203.103593 188.817928 
L 202.817728 188.820191 
L 202.76992 188.760495 
L 202.739865 188.876542 
L 202.174338 191.784277 
L 202.26907 190.792388 
L 202.64737 188.648513 
L 202.667884 188.84521 
L 202.632986 190.92316 
L 202.772233 190.20585 
L 203.242474 188.879416 
L 203.394922 188.627902 
L 203.394922 188.627902 
" style="fill:none;stroke:#000000;stroke-linecap:square;stroke-opacity:0.7;stroke-width:1.2;"/>
   </g>
   <g id="line2d_8">
    <path clip-path="url(#p1923ad4b8a)" d="M 203.366925 141.524721 
L 203.08659 143.324756 
L 202.48523 146.074658 
L 202.195413 146.887706 
L 202.168583 146.842795 
L 202.160163 146.283959 
L 202.408414 143.179443 
L 202.715407 141.180847 
L 202.932068 141.052613 
L 203.2736 141.10194 
L 203.397961 141.551674 
L 203.397961 141.551674 
" style="fill:none;stroke:#000000;stroke-linecap:square;stroke-opacity:0.7;stroke-width:1.2;"/>
   </g>
   <g id="line2d_9">
    <path clip-path="url(#p1923ad4b8a)" d="M 203.367486 94.453785 
L 203.294749 95.943295 
L 202.838518 99.494794 
L 202.137359 102.636043 
L 202.089148 102.458934 
L 202.017496 100.924575 
L 201.983504 95.605704 
L 202.110507 94.87694 
L 202.311242 94.737005 
L 202.823827 94.779315 
L 202.999813 94.667628 
L 203.295498 94.416885 
L 203.39237 94.457197 
L 203.39237 94.457197 
" style="fill:none;stroke:#000000;stroke-linecap:square;stroke-opacity:0.7;stroke-width:1.2;"/>
   </g>
   <g id="line2d_10">
    <path clip-path="url(#p1923ad4b8a)" d="M 203.392168 47.335898 
L 203.266258 47.362978 
L 203.147345 47.160017 
L 203.139913 47.055035 
L 203.085026 47.43713 
L 202.411954 51.127023 
L 202.376473 51.186704 
L 202.352621 50.97716 
L 202.440356 48.777432 
L 202.566176 47.251823 
L 202.621184 47.405184 
L 202.812616 47.998866 
L 202.857954 47.943769 
L 203.232026 47.437657 
L 203.403626 47.37191 
L 203.403626 47.37191 
" style="fill:none;stroke:#000000;stroke-linecap:square;stroke-opacity:0.7;stroke-width:1.2;"/>
   </g>
   <g id="line2d_11">
    <path clip-path="url(#p1923ad4b8a)" d="M 360.307303 235.656149 
L 360.064209 235.568123 
L 359.38536 235.002499 
L 359.11795 234.509765 
L 359.144585 234.516111 
L 359.200168 234.580223 
L 359.484298 234.810363 
L 359.496474 234.800184 
L 359.596049 234.633056 
L 359.622968 234.783069 
L 359.557274 235.665179 
L 359.449318 237.205565 
L 359.334251 240.419354 
L 359.424231 239.864814 
L 360.055101 236.759846 
L 360.326395 235.690467 
L 360.326395 235.690467 
" style="fill:none;stroke:#000000;stroke-linecap:square;stroke-opacity:0.7;stroke-width:1.2;"/>
   </g>
   <g id="line2d_12">
    <path clip-path="url(#p1923ad4b8a)" d="M 360.329591 188.571024 
L 360.316419 188.193644 
L 359.898633 185.863941 
L 359.90468 186.009714 
L 359.952458 188.770026 
L 359.60476 189.889966 
L 359.595008 189.804503 
L 359.730199 189.39724 
L 360.183279 188.759545 
L 360.369361 188.611138 
L 360.369361 188.611138 
" style="fill:none;stroke:#000000;stroke-linecap:square;stroke-opacity:0.7;stroke-width:1.2;"/>
   </g>
   <g id="line2d_13">
    <path clip-path="url(#p1923ad4b8a)" d="M 360.32745 141.546731 
L 360.256584 143.054854 
L 359.856521 146.531147 
L 358.906385 150.245457 
L 358.893595 150.235279 
L 358.848751 149.941024 
L 358.883402 147.924099 
L 359.237805 141.73666 
L 359.42721 140.830541 
L 359.725641 140.570297 
L 360.48165 140.239265 
L 360.491589 140.279233 
L 360.460134 140.798206 
L 360.338818 141.544879 
L 360.338818 141.544879 
" style="fill:none;stroke:#000000;stroke-linecap:square;stroke-opacity:0.7;stroke-width:1.2;"/>
   </g>
   <g id="line2d_14">
    <path clip-path="url(#p1923ad4b8a)" d="M 360.328408 94.424324 
L 359.314501 96.311271 
L 359.326386 96.121672 
L 360.049009 92.380925 
L 359.756378 94.325872 
L 360.560209 93.45171 
L 360.926348 92.82224 
L 360.727619 93.392171 
L 360.35202 94.436381 
L 360.35202 94.436381 
" style="fill:none;stroke:#000000;stroke-linecap:square;stroke-opacity:0.7;stroke-width:1.2;"/>
   </g>
   <g id="line2d_15">
    <path clip-path="url(#p1923ad4b8a)" d="M 360.327054 47.30402 
L 360.37326 46.833187 
L 360.214779 45.737889 
L 359.713016 43.727748 
L 359.87898 43.84259 
L 360.93357 44.635121 
L 361.517425 44.797736 
L 361.624596 44.805426 
L 361.609089 44.889782 
L 361.056689 46.303771 
L 360.290592 47.879949 
L 359.910548 48.032282 
L 359.731396 47.920857 
L 359.777468 47.68666 
L 360.050244 47.418281 
L 360.345561 47.324425 
L 360.345561 47.324425 
" style="fill:none;stroke:#000000;stroke-linecap:square;stroke-opacity:0.7;stroke-width:1.2;"/>
   </g>
   <g id="line2d_16">
    <path clip-path="url(#p1923ad4b8a)" d="M 517.311865 235.668663 
L 518.007792 234.434225 
L 518.865449 232.225673 
L 518.88228 232.170213 
L 518.633475 233.392923 
L 516.36815 244.272622 
L 516.345114 244.225494 
L 516.310516 243.511539 
L 516.379241 238.73138 
L 516.490154 235.861349 
L 516.536831 236.145141 
L 516.697011 236.916889 
L 516.737185 236.851782 
L 517.244209 235.709619 
L 517.300235 235.679387 
L 517.300235 235.679387 
" style="fill:none;stroke:#000000;stroke-linecap:square;stroke-opacity:0.7;stroke-width:1.2;"/>
   </g>
   <g id="line2d_17">
    <path clip-path="url(#p1923ad4b8a)" d="M 517.270583 188.591286 
L 516.61813 189.726808 
L 515.980817 190.503334 
L 515.996174 190.245811 
L 516.453026 188.496629 
L 516.727194 188.111455 
L 517.927661 186.989704 
L 517.839478 187.225187 
L 517.292391 188.60792 
L 517.292391 188.60792 
" style="fill:none;stroke:#000000;stroke-linecap:square;stroke-opacity:0.7;stroke-width:1.2;"/>
   </g>
   <g id="line2d_18">
    <path clip-path="url(#p1923ad4b8a)" d="M 517.268989 141.537096 
L 517.235109 142.694598 
L 516.87269 146.379664 
L 516.804488 146.66227 
L 516.759465 146.389419 
L 516.371503 144.133703 
L 516.233603 142.958266 
L 516.476256 141.587235 
L 516.720937 141.117286 
L 517.725048 140.100258 
L 517.67501 140.297723 
L 517.2965 141.545478 
L 517.2965 141.545478 
" style="fill:none;stroke:#000000;stroke-linecap:square;stroke-opacity:0.7;stroke-width:1.2;"/>
   </g>
   <g id="line2d_19">
    <path clip-path="url(#p1923ad4b8a)" d="M 517.319775 94.43973 
L 517.452047 93.907739 
L 517.479655 92.6518 
L 517.225462 90.875242 
L 516.659479 88.774781 
L 516.405622 88.140876 
L 516.580253 88.882213 
L 517.342841 91.157788 
L 517.515436 91.705705 
L 516.469827 95.010349 
L 516.824673 94.426311 
L 518.003504 92.62076 
L 517.982871 92.770548 
L 517.603822 93.759975 
L 517.30242 94.395679 
L 517.30242 94.395679 
" style="fill:none;stroke:#000000;stroke-linecap:square;stroke-opacity:0.7;stroke-width:1.2;"/>
   </g>
   <g id="line2d_20">
    <path clip-path="url(#p1923ad4b8a)" d="M 517.268428 47.34761 
L 516.449299 49.654752 
L 516.430873 49.629557 
L 516.191371 48.878911 
L 515.997251 48.328674 
L 515.87628 47.922335 
L 515.96162 48.518228 
L 516.272333 51.955559 
L 516.367866 51.374889 
L 516.970258 48.552871 
L 517.286427 47.374863 
L 517.286427 47.374863 
" style="fill:none;stroke:#000000;stroke-linecap:square;stroke-opacity:0.7;stroke-width:1.2;"/>
   </g>
   <g id="line2d_21">
    <path clip-path="url(#p1923ad4b8a)" d="M 674.206239 235.680042 
L 673.960151 236.721808 
L 673.18618 239.025261 
L 673.032572 239.236305 
L 673.009626 239.138086 
L 673.101185 238.488839 
L 673.937931 234.782189 
L 674.015547 234.478235 
L 673.807104 235.785974 
L 673.62677 237.436049 
L 673.117844 243.307627 
L 673.532075 239.939492 
L 674.24077 235.716081 
L 674.24077 235.716081 
" style="fill:none;stroke:#000000;stroke-linecap:square;stroke-opacity:0.7;stroke-width:1.2;"/>
   </g>
   <g id="line2d_22">
    <path clip-path="url(#p1923ad4b8a)" d="M 674.23158 188.535336 
L 673.909215 188.432469 
L 673.268519 187.933942 
L 673.175284 187.701677 
L 673.235485 187.708615 
L 673.713853 187.820033 
L 673.85807 187.582865 
L 673.864902 187.784109 
L 673.656421 188.809718 
L 673.517204 189.212973 
L 673.671995 189.089031 
L 674.028674 188.660887 
L 674.155692 188.218203 
L 674.226678 188.459576 
L 674.268476 188.621844 
L 674.268476 188.621844 
" style="fill:none;stroke:#000000;stroke-linecap:square;stroke-opacity:0.7;stroke-width:1.2;"/>
   </g>
   <g id="line2d_23">
    <path clip-path="url(#p1923ad4b8a)" d="M 674.224927 141.49498 
L 673.913683 142.615829 
L 673.913691 142.578446 
L 673.37893 142.375024 
L 673.299997 142.073229 
L 673.475758 141.248502 
L 673.764295 140.311598 
L 674.636568 139.241134 
L 674.914343 138.943089 
L 674.929947 139.025136 
L 674.800258 139.770016 
L 674.283197 141.428937 
L 674.245949 141.522281 
L 674.245949 141.522281 
" style="fill:none;stroke:#000000;stroke-linecap:square;stroke-opacity:0.7;stroke-width:1.2;"/>
   </g>
   <g id="line2d_24">
    <path clip-path="url(#p1923ad4b8a)" d="M 674.242993 94.392816 
L 674.02818 93.91352 
L 672.998714 92.273964 
L 673.129916 92.271569 
L 674.028143 92.248406 
L 674.887251 92.02377 
L 675.490909 91.677157 
L 675.40512 91.881754 
L 673.733978 95.272012 
L 673.971594 94.612164 
L 674.106081 94.126723 
L 674.175039 94.185428 
L 674.284724 94.44297 
L 674.284724 94.44297 
" style="fill:none;stroke:#000000;stroke-linecap:square;stroke-opacity:0.7;stroke-width:1.2;"/>
   </g>
   <g id="line2d_25">
    <path clip-path="url(#p1923ad4b8a)" d="M 674.221319 47.321719 
L 673.537306 46.323356 
L 673.050129 45.355981 
L 673.065546 45.22787 
L 673.129332 45.250794 
L 674.233204 45.887231 
L 674.31427 45.86646 
L 674.322907 45.950841 
L 674.186407 46.900745 
L 673.740182 49.765044 
L 673.443547 53.489535 
L 673.818996 49.822333 
L 674.244235 47.359626 
L 674.244235 47.359626 
" style="fill:none;stroke:#000000;stroke-linecap:square;stroke-opacity:0.7;stroke-width:1.2;"/>
   </g>
  </g>
 </g>
 <defs>
  <clipPath id="p1923ad4b8a">
   <rect height="262.08" width="694.08" x="12.96" y="12.96"/>
  </clipPath>
 </defs>
</svg>
