<?xml version="1.0" encoding="utf-8" standalone="no"?>
<!DOCTYPE svg PUBLIC "-//W3C//DTD SVG 1.1//EN"
  "http://www.w3.org/Graphics/SVG/1.1/DTD/svg11.dtd">
<!-- Created with matplotlib (https://matplotlib.org/) -->
<svg height="288pt" version="1.1" viewBox="0 0 720 288" width="720pt" xmlns="http://www.w3.org/2000/svg" xmlns:xlink="http://www.w3.org/1999/xlink">
 <metadata>
  <rdf:RDF xmlns:cc="http://creativecommons.org/ns#" xmlns:dc="http://purl.org/dc/elements/1.1/" xmlns:rdf="http://www.w3.org/1999/02/22-rdf-syntax-ns#">
   <cc:Work>
    <dc:type rdf:resource="http://purl.org/dc/dcmitype/StillImage"/>
    <dc:date>2020-12-22T15:56:03.518965</dc:date>
    <dc:format>image/svg+xml</dc:format>
    <dc:creator>
     <cc:Agent>
      <dc:title>Matplotlib v3.3.2, https://matplotlib.org/</dc:title>
     </cc:Agent>
    </dc:creator>
   </cc:Work>
  </rdf:RDF>
 </metadata>
 <defs>
  <style type="text/css">*{stroke-linecap:butt;stroke-linejoin:round;}</style>
 </defs>
 <g id="figure_1">
  <g id="patch_1">
   <path d="M 0 288 
L 720 288 
L 720 0 
L 0 0 
z
" style="fill:#ffffff;"/>
  </g>
  <g id="axes_1">
   <g id="line2d_1">
    <path clip-path="url(#p71dab3c39e)" d="M 47.704191 239.255561 
L 49.846809 234.737738 
L 50.230165 233.384321 
L 50.17271 232.813793 
L 49.920163 232.487072 
L 49.479322 232.301098 
L 48.666424 232.241063 
L 47.303733 232.406783 
L 46.7466 232.616842 
L 46.53226 232.954983 
L 45.977318 234.069735 
L 45.231689 235.652811 
L 45.181908 236.100088 
L 45.358182 236.012753 
L 46.2664 235.18336 
L 49.450208 232.237194 
L 50.969642 231.165014 
L 51.522519 231.001835 
L 51.770787 231.135174 
L 51.843999 231.428478 
L 51.741398 232.108245 
L 51.284867 233.374684 
L 50.199484 235.573733 
L 48.732468 238.022775 
L 47.846009 239.220424 
L 47.846009 239.220424 
" style="fill:none;stroke:#000000;stroke-linecap:square;stroke-opacity:0.7;stroke-width:1.2;"/>
   </g>
   <g id="line2d_2">
    <path clip-path="url(#p71dab3c39e)" d="M 47.697571 192.570018 
L 50.412301 186.781128 
L 50.852495 185.310464 
L 50.821279 184.901095 
L 50.585677 184.66568 
L 50.139978 184.642432 
L 49.24534 184.874796 
L 46.928861 185.741955 
L 47.12243 186.034195 
L 48.318222 187.819428 
L 49.028734 189.114881 
L 49.188293 189.812036 
L 49.077431 190.206486 
L 48.737579 190.496571 
L 47.961499 191.002652 
L 47.715958 191.493088 
L 47.562209 192.364353 
L 47.650724 192.741412 
L 47.74733 192.59456 
L 47.765301 192.528327 
L 47.765301 192.528327 
" style="fill:none;stroke:#000000;stroke-linecap:square;stroke-opacity:0.7;stroke-width:1.2;"/>
   </g>
   <g id="line2d_3">
    <path clip-path="url(#p71dab3c39e)" d="M 47.660055 145.911602 
L 47.771133 146.039286 
L 47.566072 145.76465 
L 46.742061 144.589721 
L 45.483397 144.437567 
L 45.15483 144.140003 
L 44.808351 143.446245 
L 44.56327 142.375385 
L 44.557966 141.70985 
L 44.79483 141.575588 
L 46.074577 141.205556 
L 46.818675 141.183484 
L 47.261247 141.393704 
L 47.531074 141.811464 
L 47.696776 142.562821 
L 47.767151 144.232469 
L 47.749619 145.857011 
L 47.749619 145.857011 
" style="fill:none;stroke:#000000;stroke-linecap:square;stroke-opacity:0.7;stroke-width:1.2;"/>
   </g>
   <g id="line2d_4">
    <path clip-path="url(#p71dab3c39e)" d="M 47.596619 99.235694 
L 47.644395 99.257493 
L 47.610051 99.144576 
L 47.061364 97.91167 
L 46.972298 97.943708 
L 46.958822 97.986586 
L 46.89347 98.745607 
L 46.723384 100.173563 
L 46.567518 100.440206 
L 46.418159 100.344098 
L 46.272796 99.850015 
L 46.118527 98.233786 
L 45.918272 96.226754 
L 45.901609 96.234063 
L 45.817833 96.491318 
L 45.745535 97.553019 
L 45.817789 100.124004 
L 45.991774 100.5873 
L 46.199428 100.605854 
L 46.621511 100.368114 
L 47.33157 99.686542 
L 47.699718 99.168469 
L 47.699718 99.168469 
" style="fill:none;stroke:#000000;stroke-linecap:square;stroke-opacity:0.7;stroke-width:1.2;"/>
   </g>
   <g id="line2d_5">
    <path clip-path="url(#p71dab3c39e)" d="M 47.641921 52.527337 
L 47.683055 53.821609 
L 47.517323 55.294326 
L 47.263758 55.956192 
L 47.110529 56.02089 
L 47.089185 55.998583 
L 47.04482 55.727344 
L 47.176721 54.584637 
L 47.173162 53.815948 
L 47.112148 53.03527 
L 47.034746 49.932144 
L 46.792971 49.397861 
L 46.815043 49.686446 
L 47.020728 51.110947 
L 47.393059 52.12787 
L 47.703968 52.449944 
L 47.713447 52.438249 
L 47.713447 52.438249 
" style="fill:none;stroke:#000000;stroke-linecap:square;stroke-opacity:0.7;stroke-width:1.2;"/>
   </g>
   <g id="line2d_6">
    <path clip-path="url(#p71dab3c39e)" d="M 203.415329 239.424605 
L 203.343796 239.801538 
L 203.115928 239.996749 
L 202.733077 240.029042 
L 202.186663 239.853516 
L 201.519596 239.409664 
L 201.222052 238.978588 
L 201.170666 238.484634 
L 201.397026 237.765089 
L 201.819332 237.180251 
L 202.056271 237.086683 
L 202.401575 237.273546 
L 202.817596 237.391695 
L 202.897316 237.233437 
L 203.300047 236.076629 
L 204.044702 234.666837 
L 204.749211 233.744208 
L 205.005279 233.679332 
L 205.070371 233.933366 
L 204.979218 234.758115 
L 204.497838 236.729397 
L 203.72782 238.961442 
L 203.516222 239.349975 
L 203.516222 239.349975 
" style="fill:none;stroke:#000000;stroke-linecap:square;stroke-opacity:0.7;stroke-width:1.2;"/>
   </g>
   <g id="line2d_7">
    <path clip-path="url(#p71dab3c39e)" d="M 203.401467 192.692231 
L 203.51767 191.937262 
L 203.467666 190.7253 
L 203.164632 189.115614 
L 202.832172 188.292885 
L 202.744637 188.323328 
L 202.654954 188.691769 
L 202.545563 190.823009 
L 202.317673 196.002036 
L 202.126095 196.707744 
L 202.023048 196.656589 
L 201.895241 196.26336 
L 201.669639 194.541005 
L 201.300309 189.758073 
L 201.344214 191.997762 
L 201.772054 196.347598 
L 201.881274 196.374068 
L 201.907937 196.348682 
L 202.152944 195.93884 
L 203.047619 193.862574 
L 203.506111 192.646957 
L 203.506111 192.646957 
" style="fill:none;stroke:#000000;stroke-linecap:square;stroke-opacity:0.7;stroke-width:1.2;"/>
   </g>
   <g id="line2d_8">
    <path clip-path="url(#p71dab3c39e)" d="M 203.463647 145.949667 
L 203.501297 145.968863 
L 203.324198 145.79988 
L 202.660652 144.883186 
L 202.668906 144.690841 
L 202.957008 144.684264 
L 203.729663 144.93879 
L 204.179359 145.028656 
L 204.641937 144.877636 
L 205.383338 144.355258 
L 205.768521 143.825952 
L 205.81331 143.446916 
L 205.448052 141.525607 
L 205.314591 141.625557 
L 204.990317 142.302072 
L 203.534578 145.844608 
L 203.534578 145.844608 
" style="fill:none;stroke:#000000;stroke-linecap:square;stroke-opacity:0.7;stroke-width:1.2;"/>
   </g>
   <g id="line2d_9">
    <path clip-path="url(#p71dab3c39e)" d="M 203.41576 99.19936 
L 203.577971 98.129573 
L 203.535292 96.784465 
L 203.277188 95.464879 
L 202.930576 94.592415 
L 202.747653 94.496701 
L 202.666128 94.685972 
L 202.589743 95.63574 
L 202.643484 98.473157 
L 202.944616 106.948807 
L 202.978492 106.213856 
L 203.486045 102.55163 
L 204.491404 97.398239 
L 204.799312 95.740973 
L 204.715379 95.847037 
L 204.281544 96.914867 
L 203.607464 99.148144 
L 203.112295 101.357148 
L 202.816831 103.68917 
L 202.849674 104.088095 
L 202.923763 103.897064 
L 203.163577 102.265512 
L 203.51426 99.137542 
L 203.51426 99.137542 
" style="fill:none;stroke:#000000;stroke-linecap:square;stroke-opacity:0.7;stroke-width:1.2;"/>
   </g>
   <g id="line2d_10">
    <path clip-path="url(#p71dab3c39e)" d="M 203.43694 52.348674 
L 203.828579 51.161051 
L 204.070547 49.782532 
L 204.024658 48.633026 
L 203.769445 47.810288 
L 203.479686 47.408086 
L 203.123721 47.260736 
L 202.833635 47.383896 
L 202.518596 47.763027 
L 201.962993 48.878761 
L 201.358247 49.947498 
L 201.042272 50.145688 
L 200.82236 50.044765 
L 200.37938 49.710886 
L 200.033317 49.64305 
L 200.052722 49.59521 
L 200.351135 49.383062 
L 200.81745 49.307333 
L 201.251389 49.454648 
L 201.624441 49.846413 
L 202.054777 50.707114 
L 202.638908 51.720397 
L 203.162507 52.213955 
L 203.518309 52.301428 
L 203.518309 52.301428 
" style="fill:none;stroke:#000000;stroke-linecap:square;stroke-opacity:0.7;stroke-width:1.2;"/>
   </g>
   <g id="line2d_11">
    <path clip-path="url(#p71dab3c39e)" d="M 359.333802 239.296513 
L 360.022235 236.955106 
L 360.200819 235.582291 
L 360.07969 234.886846 
L 359.845953 234.60083 
L 359.534673 234.554891 
L 359.200207 234.758591 
L 358.719035 235.406575 
L 358.237015 235.837443 
L 356.383189 236.987779 
L 357.18313 236.611696 
L 357.864528 236.591735 
L 358.410927 236.811611 
L 358.733692 237.18452 
L 358.968588 237.836224 
L 359.362002 239.278781 
L 359.383309 239.247461 
" style="fill:none;stroke:#000000;stroke-linecap:square;stroke-opacity:0.7;stroke-width:1.2;"/>
   </g>
   <g id="line2d_12">
    <path clip-path="url(#p71dab3c39e)" d="M 359.234871 192.620175 
L 359.388665 192.222994 
L 359.36013 191.624943 
L 359.05882 190.878518 
L 358.481561 190.066938 
L 357.948557 189.63817 
L 357.470407 189.50938 
L 357.398102 189.866788 
L 357.187342 190.595755 
L 356.766909 191.172294 
L 356.184078 191.55059 
L 356.040514 191.716434 
L 356.23224 192.038535 
L 357.313894 193.264308 
L 357.728207 193.385498 
L 358.28534 193.290656 
L 358.999685 192.897588 
L 359.336127 192.562801 
L 359.336127 192.562801 
" style="fill:none;stroke:#000000;stroke-linecap:square;stroke-opacity:0.7;stroke-width:1.2;"/>
   </g>
   <g id="line2d_13">
    <path clip-path="url(#p71dab3c39e)" d="M 359.24591 145.861045 
L 359.426382 145.292798 
L 359.408611 144.608528 
L 359.151303 143.61145 
L 358.853662 143.110553 
L 358.775041 143.206382 
L 358.702944 143.789248 
L 358.384584 148.029437 
L 358.135172 148.580594 
L 357.988361 148.614346 
L 357.696753 148.315096 
L 357.328032 147.522278 
L 356.499355 145.04994 
L 356.28581 144.095313 
L 356.41965 143.683866 
L 357.097408 142.778162 
L 358.567209 141.172425 
L 359.452925 140.501015 
L 359.834424 140.436377 
L 360.050428 140.627388 
L 360.163036 141.114052 
L 360.112311 142.243181 
L 359.748634 144.286078 
L 359.326329 145.796737 
L 359.326329 145.796737 
" style="fill:none;stroke:#000000;stroke-linecap:square;stroke-opacity:0.7;stroke-width:1.2;"/>
   </g>
   <g id="line2d_14">
    <path clip-path="url(#p71dab3c39e)" d="M 359.189955 99.234195 
L 359.21976 99.739371 
L 359.065654 100.231842 
L 358.755845 100.517471 
L 358.329149 100.582439 
L 357.786034 100.416925 
L 357.248609 100.025814 
L 356.903453 99.530487 
L 356.714134 98.967693 
L 356.599297 97.726911 
L 356.692701 96.339573 
L 356.896789 96.233914 
L 357.800149 96.217163 
L 358.78773 96.370417 
L 359.095883 96.598187 
L 359.114269 96.867285 
L 358.880941 97.35983 
L 358.20831 98.706398 
L 358.110582 99.377015 
L 358.276106 99.628436 
L 358.569549 99.655667 
L 358.971537 99.489394 
L 359.30705 99.157799 
L 359.30705 99.157799 
" style="fill:none;stroke:#000000;stroke-linecap:square;stroke-opacity:0.7;stroke-width:1.2;"/>
   </g>
   <g id="line2d_15">
    <path clip-path="url(#p71dab3c39e)" d="M 359.254654 52.329712 
L 360.686694 49.305322 
L 361.03792 48.10057 
L 361.026784 47.359692 
L 360.833364 46.953035 
L 360.383155 46.587719 
L 359.510685 46.276716 
L 358.179612 45.861628 
L 357.900625 45.56917 
L 357.934464 45.283566 
L 358.291387 44.952996 
L 358.883155 44.772276 
L 359.471951 44.851835 
L 359.891679 45.139617 
L 360.176007 45.566088 
L 360.438976 46.444142 
L 360.571018 47.85257 
L 360.513355 49.539925 
L 360.261217 50.826907 
L 359.898535 51.559079 
L 359.373413 52.002836 
L 358.75794 52.659331 
L 358.767003 52.745001 
L 358.848187 52.742083 
L 359.213379 52.495136 
L 359.354209 52.301091 
L 359.354209 52.301091 
" style="fill:none;stroke:#000000;stroke-linecap:square;stroke-opacity:0.7;stroke-width:1.2;"/>
   </g>
   <g id="line2d_16">
    <path clip-path="url(#p71dab3c39e)" d="M 515.020016 239.422705 
L 515.099506 239.246777 
L 514.912453 238.884955 
L 513.937114 237.335573 
L 513.966778 236.795361 
L 514.342504 235.665168 
L 514.727227 234.984288 
L 514.879208 235.034932 
L 515.132431 235.436422 
L 515.429076 236.317256 
L 515.435057 236.987026 
L 515.214506 237.519735 
L 514.825497 238.402143 
L 514.574726 239.573773 
L 514.39788 241.604362 
L 514.37641 243.228709 
L 514.452616 242.912404 
L 515.143842 239.351996 
L 515.143842 239.351996 
" style="fill:none;stroke:#000000;stroke-linecap:square;stroke-opacity:0.7;stroke-width:1.2;"/>
   </g>
   <g id="line2d_17">
    <path clip-path="url(#p71dab3c39e)" d="M 515.095391 192.577778 
L 515.925107 189.575771 
L 516.197987 187.762181 
L 516.144558 186.712362 
L 515.966226 186.419313 
L 515.854903 186.521351 
L 515.694275 187.043198 
L 515.466392 188.87083 
L 514.993309 193.172717 
L 514.811753 193.27284 
L 514.598231 192.945923 
L 514.220075 191.698423 
L 513.710398 190.026737 
L 513.599632 190.004503 
L 513.577449 190.053018 
L 513.667503 190.354058 
L 513.930421 191.329985 
L 514.214377 192.250455 
L 514.515472 192.592113 
L 514.891407 192.702734 
L 515.148931 192.590702 
L 515.172377 192.55173 
L 515.172377 192.55173 
" style="fill:none;stroke:#000000;stroke-linecap:square;stroke-opacity:0.7;stroke-width:1.2;"/>
   </g>
   <g id="line2d_18">
    <path clip-path="url(#p71dab3c39e)" d="M 515.073839 145.993132 
L 515.32649 147.712212 
L 515.543504 150.592306 
L 515.464193 150.906183 
L 515.425652 150.89161 
L 515.245017 150.518685 
L 513.949439 147.155938 
L 512.735171 145.300467 
L 512.254072 143.721007 
L 511.853645 141.639487 
L 511.953504 141.228945 
L 512.306119 140.916439 
L 513.028272 140.582909 
L 513.791239 140.457254 
L 514.354183 140.562075 
L 514.774215 140.847493 
L 515.125285 141.418026 
L 515.325123 142.219385 
L 515.396605 143.41437 
L 515.282607 145.126619 
L 515.128122 145.930101 
L 515.128122 145.930101 
" style="fill:none;stroke:#000000;stroke-linecap:square;stroke-opacity:0.7;stroke-width:1.2;"/>
   </g>
   <g id="line2d_19">
    <path clip-path="url(#p71dab3c39e)" d="M 515.072628 99.133098 
L 515.179434 99.094974 
L 515.086476 99.029191 
L 513.777392 98.212943 
L 513.519964 97.826463 
L 513.399534 97.222406 
L 513.475725 96.455306 
L 513.805295 95.286373 
L 514.653599 93.260034 
L 514.80457 92.933312 
L 513.73397 94.952184 
L 512.936584 96.551642 
L 513.08968 96.421752 
L 515.937149 93.586705 
L 517.011909 92.792445 
L 517.586627 92.614088 
L 517.79541 92.779489 
L 517.833959 93.178563 
L 517.638927 94.050965 
L 517.062174 95.555346 
L 515.966523 97.801523 
L 515.188869 99.063943 
L 515.188869 99.063943 
" style="fill:none;stroke:#000000;stroke-linecap:square;stroke-opacity:0.7;stroke-width:1.2;"/>
   </g>
   <g id="line2d_20">
    <path clip-path="url(#p71dab3c39e)" d="M 515.043537 52.392517 
L 515.678347 50.562407 
L 516.05287 48.53229 
L 516.04189 47.298224 
L 515.811823 46.251328 
L 515.401047 45.468554 
L 514.968831 45.075471 
L 514.529097 44.983054 
L 514.176742 45.150739 
L 513.793825 45.652308 
L 513.670482 45.90621 
L 513.22109 47.403352 
L 512.833975 50.10259 
L 512.685293 51.571232 
L 512.900108 50.550157 
L 513.445927 48.74113 
L 514.018417 47.841111 
L 514.914607 46.796461 
L 515.522718 46.323328 
L 515.998706 46.202949 
L 516.246595 46.378258 
L 516.388131 46.795483 
L 516.411049 47.671587 
L 516.2011 49.177805 
L 515.719689 51.025998 
L 515.177599 52.311045 
L 515.166255 52.32203 
L 515.166255 52.32203 
" style="fill:none;stroke:#000000;stroke-linecap:square;stroke-opacity:0.7;stroke-width:1.2;"/>
   </g>
   <g id="line2d_21">
    <path clip-path="url(#p71dab3c39e)" d="M 670.834841 239.312411 
L 670.999384 238.542606 
L 670.922577 237.85788 
L 670.594032 237.255367 
L 669.99404 236.708058 
L 668.887462 236.085815 
L 667.4608 235.284883 
L 667.112933 234.840844 
L 667.022314 234.434895 
L 667.078522 234.025454 
L 667.351201 233.417866 
L 667.915221 232.676419 
L 668.759907 231.907776 
L 669.848314 231.278917 
L 670.434926 231.178239 
L 670.79627 231.343121 
L 670.985396 231.678277 
L 671.098286 232.398977 
L 671.082626 234.127759 
L 670.825243 237.710039 
L 670.783982 237.901188 
L 671.103947 236.677583 
L 671.176119 236.464476 
L 670.980931 237.394116 
L 670.892541 238.624993 
L 670.940763 239.25106 
L 670.940703 239.247157 
" style="fill:none;stroke:#000000;stroke-linecap:square;stroke-opacity:0.7;stroke-width:1.2;"/>
   </g>
   <g id="line2d_22">
    <path clip-path="url(#p71dab3c39e)" d="M 670.849788 192.557289 
L 671.590364 190.494105 
L 672.043404 188.613075 
L 672.097271 187.431249 
L 671.964843 186.791281 
L 671.675225 186.334525 
L 671.392829 186.195854 
L 671.011115 186.273008 
L 670.590547 186.642739 
L 670.019693 187.566717 
L 668.670886 190.082999 
L 667.779532 190.202094 
L 667.257039 190.589367 
L 667.495233 190.853246 
L 668.205812 191.66745 
L 669.089849 192.760128 
L 669.565472 192.963986 
L 670.159535 192.951402 
L 670.740337 192.706105 
L 670.924694 192.524058 
L 670.924694 192.524058 
" style="fill:none;stroke:#000000;stroke-linecap:square;stroke-opacity:0.7;stroke-width:1.2;"/>
   </g>
   <g id="line2d_23">
    <path clip-path="url(#p71dab3c39e)" d="M 670.883055 145.828462 
L 673.087349 142.300844 
L 675.157342 138.596881 
L 675.486095 137.514067 
L 675.41766 137.055981 
L 675.182318 136.815951 
L 674.834963 136.698005 
L 673.96068 136.666994 
L 671.518928 136.711986 
L 671.418823 136.580493 
L 671.63288 136.460997 
L 671.967272 136.526681 
L 672.076433 136.736513 
L 672.010375 137.257989 
L 671.502658 138.569452 
L 668.297225 146.20469 
L 668.42611 146.590565 
L 669.311142 147.911042 
L 669.590463 147.770916 
L 670.059155 147.265452 
L 670.781702 146.185475 
L 671.004978 145.742232 
L 671.004978 145.742232 
" style="fill:none;stroke:#000000;stroke-linecap:square;stroke-opacity:0.7;stroke-width:1.2;"/>
   </g>
   <g id="line2d_24">
    <path clip-path="url(#p71dab3c39e)" d="M 670.846155 99.156424 
L 670.986733 98.969254 
L 670.896657 98.622671 
L 670.482137 97.930512 
L 669.855335 96.866373 
L 669.837045 96.809169 
L 669.950039 96.822522 
L 670.622262 96.753493 
L 672.035024 96.352386 
L 672.325028 96.298849 
L 672.291835 96.378019 
L 671.052821 98.513924 
L 670.301718 100.389307 
L 670.306843 100.387997 
L 670.432185 100.193813 
L 670.93294 99.114739 
L 670.93294 99.114739 
" style="fill:none;stroke:#000000;stroke-linecap:square;stroke-opacity:0.7;stroke-width:1.2;"/>
   </g>
   <g id="line2d_25">
    <path clip-path="url(#p71dab3c39e)" d="M 670.805705 52.371443 
L 671.82321 49.760407 
L 672.403329 47.660668 
L 672.595775 46.315449 
L 672.550058 45.222975 
L 672.318735 44.798754 
L 672.108548 44.832063 
L 671.815536 45.168711 
L 671.336042 46.157695 
L 670.762305 47.784194 
L 668.737345 54.06838 
L 668.649981 54.000675 
L 668.518095 53.512236 
L 668.083301 50.550093 
L 667.918713 50.584452 
L 667.918988 50.617556 
L 668.263438 51.470789 
L 668.721187 52.422397 
L 669.056107 52.697178 
L 669.551223 52.823772 
L 670.204629 52.736861 
L 670.795571 52.447799 
L 670.90205 52.335671 
L 670.90205 52.335671 
" style="fill:none;stroke:#000000;stroke-linecap:square;stroke-opacity:0.7;stroke-width:1.2;"/>
   </g>
  </g>
 </g>
 <defs>
  <clipPath id="p71dab3c39e">
   <rect height="262.08" width="694.08" x="12.96" y="12.96"/>
  </clipPath>
 </defs>
</svg>
