<?xml version="1.0" encoding="utf-8" standalone="no"?>
<!DOCTYPE svg PUBLIC "-//W3C//DTD SVG 1.1//EN"
  "http://www.w3.org/Graphics/SVG/1.1/DTD/svg11.dtd">
<!-- Created with matplotlib (https://matplotlib.org/) -->
<svg height="288pt" version="1.1" viewBox="0 0 720 288" width="720pt" xmlns="http://www.w3.org/2000/svg" xmlns:xlink="http://www.w3.org/1999/xlink">
 <metadata>
  <rdf:RDF xmlns:cc="http://creativecommons.org/ns#" xmlns:dc="http://purl.org/dc/elements/1.1/" xmlns:rdf="http://www.w3.org/1999/02/22-rdf-syntax-ns#">
   <cc:Work>
    <dc:type rdf:resource="http://purl.org/dc/dcmitype/StillImage"/>
    <dc:date>2020-12-22T18:45:34.435891</dc:date>
    <dc:format>image/svg+xml</dc:format>
    <dc:creator>
     <cc:Agent>
      <dc:title>Matplotlib v3.3.2, https://matplotlib.org/</dc:title>
     </cc:Agent>
    </dc:creator>
   </cc:Work>
  </rdf:RDF>
 </metadata>
 <defs>
  <style type="text/css">*{stroke-linecap:butt;stroke-linejoin:round;}</style>
 </defs>
 <g id="figure_1">
  <g id="patch_1">
   <path d="M 0 288 
L 720 288 
L 720 0 
L 0 0 
z
" style="fill:#ffffff;"/>
  </g>
  <g id="axes_1">
   <g id="line2d_1">
    <path clip-path="url(#pa5dc69f9cd)" d="M 46.544626 239.004933 
L 46.858588 237.612709 
L 47.09145 235.912714 
L 47.44131 231.26172 
L 47.406204 229.122514 
L 47.329677 229.018903 
L 47.283541 229.053228 
L 47.090426 229.462683 
L 46.558689 231.200575 
L 45.201362 236.647328 
L 45.241064 236.578808 
L 45.950612 235.462996 
L 46.075958 235.283093 
L 46.135783 235.390792 
L 46.778847 236.584498 
L 46.736635 237.179345 
L 46.529419 239.04289 
L 46.529419 239.04289 
" style="fill:none;stroke:#000000;stroke-linecap:square;stroke-opacity:0.7;stroke-width:1.2;"/>
   </g>
   <g id="line2d_2">
    <path clip-path="url(#pa5dc69f9cd)" d="M 46.563247 192.042637 
L 45.675567 191.113831 
L 45.836258 190.085042 
L 46.250219 188.403863 
L 46.055296 188.608867 
L 45.85979 189.081334 
L 46.719657 190.141666 
L 46.679604 190.622144 
L 46.52028 192.050726 
L 46.52028 192.050726 
" style="fill:none;stroke:#000000;stroke-linecap:square;stroke-opacity:0.7;stroke-width:1.2;"/>
   </g>
   <g id="line2d_3">
    <path clip-path="url(#pa5dc69f9cd)" d="M 46.578716 145.048713 
L 46.36121 145.841622 
L 45.236902 149.122297 
L 45.212055 149.099379 
L 44.605839 148.352886 
L 44.509091 148.214426 
L 44.605675 147.421517 
L 45.347519 143.387082 
L 45.817383 141.267903 
L 45.870042 141.309548 
L 46.491092 142.10484 
L 46.831036 142.787961 
L 46.808723 143.295435 
L 46.514825 145.055334 
L 46.514825 145.055334 
" style="fill:none;stroke:#000000;stroke-linecap:square;stroke-opacity:0.7;stroke-width:1.2;"/>
   </g>
   <g id="line2d_4">
    <path clip-path="url(#pa5dc69f9cd)" d="M 46.5727 98.003557 
L 46.305487 96.280158 
L 45.870199 93.166881 
L 46.547637 92.446991 
L 47.510992 91.39489 
L 47.429638 91.670193 
L 46.812414 94.000784 
L 46.218498 96.123879 
L 46.208754 96.12083 
L 46.164441 96.055979 
L 46.338314 96.316505 
L 46.366575 96.993931 
L 46.496711 97.987865 
L 46.525869 98.001312 
L 46.525869 98.001312 
" style="fill:none;stroke:#000000;stroke-linecap:square;stroke-opacity:0.7;stroke-width:1.2;"/>
   </g>
   <g id="line2d_5">
    <path clip-path="url(#pa5dc69f9cd)" d="M 46.552913 50.985968 
L 46.491525 49.307751 
L 46.26509 46.249469 
L 46.229625 46.270474 
L 46.099683 46.612605 
L 45.805695 48.210431 
L 45.807242 48.96125 
L 46.199361 49.14344 
L 46.611042 49.313584 
L 46.671742 49.556354 
L 46.518479 51.006357 
L 46.532512 51.001653 
" style="fill:none;stroke:#000000;stroke-linecap:square;stroke-opacity:0.7;stroke-width:1.2;"/>
   </g>
   <g id="line2d_6">
    <path clip-path="url(#pa5dc69f9cd)" d="M 203.288513 239.057749 
L 202.190845 237.735798 
L 201.85732 238.072664 
L 201.035794 239.276776 
L 200.960859 239.372601 
L 200.999201 239.15131 
L 201.711499 236.768228 
L 202.578936 234.364846 
L 202.980836 234.024606 
L 203.914839 233.525786 
L 205.25311 233.052385 
L 205.796482 233.056517 
L 205.912846 233.268459 
L 205.825229 233.754751 
L 205.287036 235.105162 
L 203.774914 238.195069 
L 203.254438 239.092082 
L 203.254438 239.092082 
" style="fill:none;stroke:#000000;stroke-linecap:square;stroke-opacity:0.7;stroke-width:1.2;"/>
   </g>
   <g id="line2d_7">
    <path clip-path="url(#pa5dc69f9cd)" d="M 203.258817 192.033132 
L 201.792076 193.077763 
L 201.793092 192.933923 
L 202.096092 191.740687 
L 203.387406 187.339675 
L 202.761014 189.777196 
L 203.307195 189.769081 
L 203.574498 189.950531 
L 203.573743 190.263507 
L 203.217479 192.04823 
L 203.217479 192.04823 
" style="fill:none;stroke:#000000;stroke-linecap:square;stroke-opacity:0.7;stroke-width:1.2;"/>
   </g>
   <g id="line2d_8">
    <path clip-path="url(#pa5dc69f9cd)" d="M 203.269025 144.999147 
L 203.218308 143.309236 
L 202.933168 139.241418 
L 202.902231 139.414947 
L 202.9823 140.706272 
L 203.1011 141.864958 
L 203.203199 141.737258 
L 203.767815 141.072778 
L 204.395493 140.619634 
L 204.507634 140.722753 
L 204.448033 141.122826 
L 203.931361 142.792927 
L 203.223875 145.006187 
L 203.223875 145.006187 
" style="fill:none;stroke:#000000;stroke-linecap:square;stroke-opacity:0.7;stroke-width:1.2;"/>
   </g>
   <g id="line2d_9">
    <path clip-path="url(#pa5dc69f9cd)" d="M 203.278336 97.971335 
L 203.544578 96.209538 
L 203.824816 91.685157 
L 203.766036 89.771938 
L 203.714886 89.766449 
L 203.679698 89.83192 
L 203.572735 90.429334 
L 203.5098 92.223623 
L 203.433281 93.79624 
L 202.647243 94.574121 
L 202.200709 95.234816 
L 202.224741 95.816366 
L 202.539742 97.217464 
L 202.888579 98.06787 
L 203.199447 97.998349 
L 203.222575 97.977168 
L 203.222575 97.977168 
" style="fill:none;stroke:#000000;stroke-linecap:square;stroke-opacity:0.7;stroke-width:1.2;"/>
   </g>
   <g id="line2d_10">
    <path clip-path="url(#pa5dc69f9cd)" d="M 203.280854 50.993467 
L 202.978706 49.038177 
L 202.470433 45.558345 
L 203.253004 45.34168 
L 204.813519 44.748387 
L 204.859707 44.745017 
L 204.807847 44.866156 
L 203.61704 47.328553 
L 202.917072 49.120413 
L 203.148207 50.374237 
L 203.202302 51.000072 
L 203.235914 50.989812 
L 203.235914 50.989812 
" style="fill:none;stroke:#000000;stroke-linecap:square;stroke-opacity:0.7;stroke-width:1.2;"/>
   </g>
   <g id="line2d_11">
    <path clip-path="url(#pa5dc69f9cd)" d="M 359.969766 239.002687 
L 360.229178 237.409797 
L 360.317728 236.326843 
L 360.436356 231.211082 
L 360.28999 229.278259 
L 360.25182 229.413651 
L 360.263754 230.334069 
L 360.518167 232.445604 
L 360.606411 233.5341 
L 359.25891 236.146962 
L 358.964773 237.017888 
L 358.749337 238.771148 
L 358.450059 243.261962 
L 358.451501 243.26145 
L 358.499968 243.115342 
L 359.336581 240.614637 
L 359.960186 239.052881 
L 359.960186 239.052881 
" style="fill:none;stroke:#000000;stroke-linecap:square;stroke-opacity:0.7;stroke-width:1.2;"/>
   </g>
   <g id="line2d_12">
    <path clip-path="url(#pa5dc69f9cd)" d="M 359.973988 192.05577 
L 359.691328 193.279857 
L 358.510206 197.295505 
L 358.50298 197.288825 
L 358.439044 196.988194 
L 358.041052 195.149492 
L 357.812427 193.997475 
L 358.2744 190.952098 
L 358.747103 187.94155 
L 358.669007 189.098334 
L 358.367568 196.406491 
L 358.364408 196.982731 
L 358.468897 196.613292 
L 359.408079 193.551516 
L 359.941841 192.090611 
L 359.941841 192.090611 
" style="fill:none;stroke:#000000;stroke-linecap:square;stroke-opacity:0.7;stroke-width:1.2;"/>
   </g>
   <g id="line2d_13">
    <path clip-path="url(#pa5dc69f9cd)" d="M 359.981266 145.017007 
L 359.980272 143.160909 
L 359.929174 140.673116 
L 359.872495 140.722547 
L 359.588535 141.322692 
L 358.743314 143.484731 
L 359.557165 141.692333 
L 359.896228 141.241248 
L 360.374042 141.544442 
L 360.601195 141.89545 
L 360.575123 142.333544 
L 359.952586 145.025089 
L 359.952586 145.025089 
" style="fill:none;stroke:#000000;stroke-linecap:square;stroke-opacity:0.7;stroke-width:1.2;"/>
   </g>
   <g id="line2d_14">
    <path clip-path="url(#pa5dc69f9cd)" d="M 360.006001 97.993245 
L 358.950978 93.513173 
L 361.065372 90.301455 
L 361.063698 90.321736 
L 359.906958 95.429919 
L 359.970618 95.253771 
L 360.275321 94.821782 
L 360.549821 94.736994 
L 360.577671 94.963684 
L 360.371576 95.93876 
L 359.943029 97.993413 
L 359.943029 97.993413 
" style="fill:none;stroke:#000000;stroke-linecap:square;stroke-opacity:0.7;stroke-width:1.2;"/>
   </g>
   <g id="line2d_15">
    <path clip-path="url(#pa5dc69f9cd)" d="M 360.01777 50.950977 
L 359.431154 49.539007 
L 359.447175 49.202948 
L 360.618352 45.060313 
L 360.613831 45.025655 
L 360.50018 45.334671 
L 359.976118 47.54573 
L 359.731628 49.093343 
L 359.828122 49.686722 
L 359.890152 50.95579 
L 359.941004 50.999093 
L 359.941004 50.999093 
" style="fill:none;stroke:#000000;stroke-linecap:square;stroke-opacity:0.7;stroke-width:1.2;"/>
   </g>
   <g id="line2d_16">
    <path clip-path="url(#pa5dc69f9cd)" d="M 516.714431 239.046574 
L 515.698251 237.517672 
L 516.043561 236.736563 
L 517.798208 233.437979 
L 519.022201 231.207985 
L 518.061169 232.735011 
L 516.11358 236.304425 
L 516.434454 236.318376 
L 516.817575 236.498653 
L 516.908084 236.79399 
L 516.787012 237.667969 
L 516.655606 239.051637 
L 516.655606 239.051637 
" style="fill:none;stroke:#000000;stroke-linecap:square;stroke-opacity:0.7;stroke-width:1.2;"/>
   </g>
   <g id="line2d_17">
    <path clip-path="url(#pa5dc69f9cd)" d="M 516.702953 192.035654 
L 516.256299 191.042983 
L 515.939976 189.889524 
L 516.043509 189.448856 
L 516.30807 188.697623 
L 516.117264 188.903923 
L 516.049211 189.057407 
L 516.109926 189.654312 
L 516.642103 192.045062 
L 516.65039 192.040739 
" style="fill:none;stroke:#000000;stroke-linecap:square;stroke-opacity:0.7;stroke-width:1.2;"/>
   </g>
   <g id="line2d_18">
    <path clip-path="url(#pa5dc69f9cd)" d="M 516.673331 145.028724 
L 515.687013 146.165829 
L 515.621642 146.016197 
L 515.109551 144.209388 
L 516.195136 141.439217 
L 516.2008 141.433825 
L 516.207795 141.548407 
L 516.343131 142.588603 
L 516.53662 144.022113 
L 516.563671 144.963036 
L 516.639764 145.037306 
L 516.639764 145.037306 
" style="fill:none;stroke:#000000;stroke-linecap:square;stroke-opacity:0.7;stroke-width:1.2;"/>
   </g>
   <g id="line2d_19">
    <path clip-path="url(#pa5dc69f9cd)" d="M 516.697154 98.007275 
L 515.993226 97.915556 
L 515.533742 97.808148 
L 515.569902 97.221536 
L 515.914165 95.064583 
L 515.735532 95.130443 
L 515.49179 95.25991 
L 516.767965 94.716448 
L 517.507366 94.681626 
L 517.709014 94.847241 
L 517.696079 95.170246 
L 517.301674 96.263285 
L 516.651347 98.016313 
L 516.651347 98.016313 
" style="fill:none;stroke:#000000;stroke-linecap:square;stroke-opacity:0.7;stroke-width:1.2;"/>
   </g>
   <g id="line2d_20">
    <path clip-path="url(#pa5dc69f9cd)" d="M 516.720521 50.998791 
L 516.6422 47.965344 
L 516.600862 47.995701 
L 516.465607 48.357716 
L 516.405154 48.722466 
L 516.46758 48.733802 
L 516.736849 48.929951 
L 516.756218 49.30588 
L 516.676246 51.009073 
L 516.676246 51.009073 
" style="fill:none;stroke:#000000;stroke-linecap:square;stroke-opacity:0.7;stroke-width:1.2;"/>
   </g>
   <g id="line2d_21">
    <path clip-path="url(#pa5dc69f9cd)" d="M 673.395922 238.998835 
L 673.683349 237.568624 
L 673.862236 235.923646 
L 674.058183 231.947961 
L 673.988157 229.060207 
L 673.898837 228.81394 
L 673.852544 228.868725 
L 673.729029 229.392963 
L 673.497924 231.559792 
L 673.146479 235.131066 
L 672.578186 236.95452 
L 672.440256 237.81605 
L 672.438014 239.920277 
L 672.46576 240.212352 
L 672.544835 240.11186 
L 673.356474 239.01118 
L 673.356474 239.01118 
" style="fill:none;stroke:#000000;stroke-linecap:square;stroke-opacity:0.7;stroke-width:1.2;"/>
   </g>
   <g id="line2d_22">
    <path clip-path="url(#pa5dc69f9cd)" d="M 673.398553 192.027277 
L 673.154997 188.684295 
L 672.972718 186.835016 
L 672.926133 186.880591 
L 672.775725 187.319305 
L 672.383531 189.302939 
L 672.231591 190.383162 
L 672.415455 189.70204 
L 672.901078 188.012686 
L 672.826725 188.549889 
L 672.905255 189.915783 
L 673.28109 192.007635 
L 673.364433 192.032429 
L 673.364433 192.032429 
" style="fill:none;stroke:#000000;stroke-linecap:square;stroke-opacity:0.7;stroke-width:1.2;"/>
   </g>
   <g id="line2d_23">
    <path clip-path="url(#pa5dc69f9cd)" d="M 673.419147 145.035192 
L 672.823557 141.757916 
L 672.700169 141.291419 
L 672.65144 141.324116 
L 672.43797 141.721958 
L 671.739668 143.614971 
L 671.261988 145.083954 
L 672.387933 141.299359 
L 672.679231 140.498485 
L 672.731098 140.52431 
L 673.220166 141.072572 
L 673.846058 142.02757 
L 673.888988 142.413008 
L 673.689312 143.441696 
L 673.358895 145.028541 
L 673.358895 145.028541 
" style="fill:none;stroke:#000000;stroke-linecap:square;stroke-opacity:0.7;stroke-width:1.2;"/>
   </g>
   <g id="line2d_24">
    <path clip-path="url(#pa5dc69f9cd)" d="M 673.395048 97.952261 
L 673.588327 96.970224 
L 673.824193 94.285835 
L 673.893584 89.332731 
L 673.740403 87.956427 
L 673.687586 88.015487 
L 673.539718 88.667028 
L 673.182415 91.645858 
L 672.933636 94.905969 
L 672.98977 94.884388 
L 673.486558 94.41739 
L 675.305708 92.740403 
L 675.475553 92.706279 
L 675.490909 92.768855 
L 675.36791 93.237986 
L 674.423931 95.567001 
L 673.364507 97.99168 
L 673.364507 97.99168 
" style="fill:none;stroke:#000000;stroke-linecap:square;stroke-opacity:0.7;stroke-width:1.2;"/>
   </g>
   <g id="line2d_25">
    <path clip-path="url(#pa5dc69f9cd)" d="M 673.437485 51.006039 
L 673.129023 48.847176 
L 672.6282 45.475455 
L 672.700415 45.477147 
L 674.034562 45.553551 
L 673.963169 45.695613 
L 673.391185 46.957608 
L 672.857796 48.403247 
L 672.961389 48.339389 
L 673.396259 48.296168 
L 673.723679 48.475638 
L 673.79647 48.779628 
L 673.648743 49.597779 
L 673.384803 50.998604 
L 673.384803 50.998604 
" style="fill:none;stroke:#000000;stroke-linecap:square;stroke-opacity:0.7;stroke-width:1.2;"/>
   </g>
  </g>
 </g>
 <defs>
  <clipPath id="pa5dc69f9cd">
   <rect height="262.08" width="694.08" x="12.96" y="12.96"/>
  </clipPath>
 </defs>
</svg>
