<?xml version="1.0" encoding="utf-8" standalone="no"?>
<!DOCTYPE svg PUBLIC "-//W3C//DTD SVG 1.1//EN"
  "http://www.w3.org/Graphics/SVG/1.1/DTD/svg11.dtd">
<!-- Created with matplotlib (https://matplotlib.org/) -->
<svg height="288pt" version="1.1" viewBox="0 0 720 288" width="720pt" xmlns="http://www.w3.org/2000/svg" xmlns:xlink="http://www.w3.org/1999/xlink">
 <metadata>
  <rdf:RDF xmlns:cc="http://creativecommons.org/ns#" xmlns:dc="http://purl.org/dc/elements/1.1/" xmlns:rdf="http://www.w3.org/1999/02/22-rdf-syntax-ns#">
   <cc:Work>
    <dc:type rdf:resource="http://purl.org/dc/dcmitype/StillImage"/>
    <dc:date>2020-12-22T17:40:19.733789</dc:date>
    <dc:format>image/svg+xml</dc:format>
    <dc:creator>
     <cc:Agent>
      <dc:title>Matplotlib v3.3.2, https://matplotlib.org/</dc:title>
     </cc:Agent>
    </dc:creator>
   </cc:Work>
  </rdf:RDF>
 </metadata>
 <defs>
  <style type="text/css">*{stroke-linecap:butt;stroke-linejoin:round;}</style>
 </defs>
 <g id="figure_1">
  <g id="patch_1">
   <path d="M 0 288 
L 720 288 
L 720 0 
L 0 0 
z
" style="fill:#ffffff;"/>
  </g>
  <g id="axes_1">
   <g id="line2d_1">
    <path clip-path="url(#p53fa9ef832)" d="M 46.612975 237.77132 
L 46.698122 236.792216 
L 46.590789 234.558335 
L 46.361097 233.378952 
L 46.354111 233.405588 
L 46.505462 233.826008 
L 46.992222 234.51722 
L 47.703148 235.344392 
L 47.586194 236.07192 
L 47.059429 237.705528 
L 46.519142 238.937991 
L 46.01606 239.340164 
L 45.891312 239.306293 
L 45.891289 239.260084 
L 46.052599 238.897624 
L 46.682698 237.839402 
L 46.682698 237.839402 
" style="fill:none;stroke:#000000;stroke-linecap:square;stroke-opacity:0.7;stroke-width:1.2;"/>
   </g>
   <g id="line2d_2">
    <path clip-path="url(#p53fa9ef832)" d="M 46.593215 190.718701 
L 46.573681 192.183964 
L 46.158232 198.042083 
L 45.76249 202.722358 
L 45.802481 201.088461 
L 45.844732 191.969695 
L 45.720822 190.987402 
L 45.526463 190.918584 
L 44.951262 191.062624 
L 44.509091 191.340259 
L 44.640391 191.52267 
L 45.330015 192.446513 
L 45.568535 192.728101 
L 45.60765 192.686933 
L 46.056897 191.933235 
L 46.682069 190.773345 
L 46.682069 190.773345 
" style="fill:none;stroke:#000000;stroke-linecap:square;stroke-opacity:0.7;stroke-width:1.2;"/>
   </g>
   <g id="line2d_3">
    <path clip-path="url(#p53fa9ef832)" d="M 46.626482 143.596073 
L 46.687565 143.50665 
L 46.983574 142.884638 
L 46.980931 143.087718 
L 46.766602 143.484021 
L 46.46938 143.630751 
L 46.386562 143.65642 
L 46.386577 143.736646 
L 46.278645 144.261557 
L 45.959837 144.929855 
L 45.520893 145.528542 
L 46.674836 143.653924 
L 46.674836 143.653924 
" style="fill:none;stroke:#000000;stroke-linecap:square;stroke-opacity:0.7;stroke-width:1.2;"/>
   </g>
   <g id="line2d_4">
    <path clip-path="url(#p53fa9ef832)" d="M 46.606251 96.4461 
L 46.51885 93.541119 
L 46.436788 93.957926 
L 46.333962 95.622321 
L 46.315798 96.10444 
L 46.286687 96.156772 
L 46.707481 95.420066 
L 46.739655 95.688478 
L 46.67861 96.510612 
L 46.672912 96.50582 
" style="fill:none;stroke:#000000;stroke-linecap:square;stroke-opacity:0.7;stroke-width:1.2;"/>
   </g>
   <g id="line2d_5">
    <path clip-path="url(#p53fa9ef832)" d="M 46.586439 49.377379 
L 46.511085 50.373676 
L 45.665647 56.999336 
L 45.46419 58.79385 
L 45.454052 58.057738 
L 45.19417 55.989996 
L 44.921627 53.961737 
L 45.406731 49.722026 
L 45.704335 48.41714 
L 45.982359 48.121722 
L 47.31076 47.28648 
L 48.126765 46.946917 
L 48.199191 47.081586 
L 48.092398 47.488329 
L 47.718931 48.186506 
L 46.917879 49.227448 
L 46.643411 49.440742 
L 46.643411 49.440742 
" style="fill:none;stroke:#000000;stroke-linecap:square;stroke-opacity:0.7;stroke-width:1.2;"/>
   </g>
   <g id="line2d_6">
    <path clip-path="url(#p53fa9ef832)" d="M 203.627662 237.752197 
L 203.569192 236.494759 
L 203.281217 234.174508 
L 203.260979 234.248039 
L 203.239302 235.354489 
L 203.34203 236.915563 
L 203.454896 237.398301 
L 203.597285 237.232651 
L 204.140305 236.283562 
L 204.359081 235.907522 
L 204.350118 236.10402 
L 204.050201 237.109969 
L 203.684289 237.810395 
L 203.684289 237.810395 
" style="fill:none;stroke:#000000;stroke-linecap:square;stroke-opacity:0.7;stroke-width:1.2;"/>
   </g>
   <g id="line2d_7">
    <path clip-path="url(#p53fa9ef832)" d="M 203.635156 190.676298 
L 203.434822 188.90622 
L 203.356339 188.294076 
L 203.300063 188.596073 
L 203.243226 190.115647 
L 203.434074 190.466741 
L 203.647309 190.600338 
L 203.666491 190.577802 
L 204.101325 189.578318 
L 204.255926 189.091948 
L 203.687928 190.711738 
L 203.687928 190.711738 
" style="fill:none;stroke:#000000;stroke-linecap:square;stroke-opacity:0.7;stroke-width:1.2;"/>
   </g>
   <g id="line2d_8">
    <path clip-path="url(#p53fa9ef832)" d="M 203.590981 143.609423 
L 203.481215 145.040404 
L 202.555294 152.354892 
L 202.35341 154.007974 
L 202.334197 153.397688 
L 202.090638 151.146897 
L 201.785719 148.457225 
L 202.329787 144.423425 
L 202.687964 142.85191 
L 202.823629 142.822142 
L 203.096966 143.170636 
L 203.579929 143.728754 
L 203.683009 143.708306 
L 203.689635 143.678453 
" style="fill:none;stroke:#000000;stroke-linecap:square;stroke-opacity:0.7;stroke-width:1.2;"/>
   </g>
   <g id="line2d_9">
    <path clip-path="url(#p53fa9ef832)" d="M 203.627534 96.442105 
L 203.79112 94.90391 
L 203.894005 91.642625 
L 203.767213 90.640385 
L 203.671036 90.722429 
L 203.458655 91.187422 
L 202.78414 93.30281 
L 202.041176 96.353257 
L 202.062253 96.929591 
L 202.22175 96.878919 
L 202.639782 96.408859 
L 203.50918 95.386169 
L 204.893685 94.225019 
L 204.853829 94.482894 
L 204.446527 95.394809 
L 203.800457 96.38386 
L 203.674331 96.47418 
L 203.674331 96.47418 
" style="fill:none;stroke:#000000;stroke-linecap:square;stroke-opacity:0.7;stroke-width:1.2;"/>
   </g>
   <g id="line2d_10">
    <path clip-path="url(#p53fa9ef832)" d="M 203.632132 49.335734 
L 203.43933 48.698905 
L 202.450747 46.151409 
L 202.578572 46.143354 
L 204.50427 46.163335 
L 205.363941 46.156203 
L 205.365424 46.177535 
L 205.253142 46.554938 
L 204.580372 47.860992 
L 203.616715 49.631853 
L 203.806088 49.028687 
L 203.964125 48.134934 
L 203.681436 49.384863 
L 203.681436 49.384863 
" style="fill:none;stroke:#000000;stroke-linecap:square;stroke-opacity:0.7;stroke-width:1.2;"/>
   </g>
   <g id="line2d_11">
    <path clip-path="url(#p53fa9ef832)" d="M 360.662287 237.794092 
L 360.55622 237.711106 
L 360.576811 237.578148 
L 360.663718 237.70518 
L 360.702255 237.986671 
L 360.654201 237.974925 
L 360.459198 237.759056 
L 360.60834 237.804941 
L 360.941405 237.316023 
L 361.627158 236.32917 
L 362.149685 235.394489 
L 360.696018 237.837996 
L 360.696018 237.837996 
" style="fill:none;stroke:#000000;stroke-linecap:square;stroke-opacity:0.7;stroke-width:1.2;"/>
   </g>
   <g id="line2d_12">
    <path clip-path="url(#p53fa9ef832)" d="M 360.656125 190.671532 
L 359.730916 188.532504 
L 359.743068 188.526754 
L 361.403126 187.859094 
L 362.239234 187.391662 
L 362.249545 187.446594 
L 362.103562 187.857132 
L 361.345076 189.159309 
L 360.387498 190.597594 
L 360.372066 190.449445 
L 360.401552 190.11549 
L 360.481301 190.279538 
L 360.725976 190.745218 
L 360.729442 190.733064 
" style="fill:none;stroke:#000000;stroke-linecap:square;stroke-opacity:0.7;stroke-width:1.2;"/>
   </g>
   <g id="line2d_13">
    <path clip-path="url(#p53fa9ef832)" d="M 360.661584 143.559043 
L 359.606744 141.16121 
L 359.704276 141.165264 
L 360.120653 141.031533 
L 360.857171 140.564482 
L 360.850821 140.732211 
L 360.602448 141.407225 
L 359.844126 142.920819 
L 360.024342 142.852013 
L 360.843671 142.277987 
L 362.800539 140.841619 
L 362.804507 140.908739 
L 362.633636 141.273158 
L 361.940261 142.266711 
L 360.826944 143.49976 
L 360.698916 143.58498 
L 360.698916 143.58498 
" style="fill:none;stroke:#000000;stroke-linecap:square;stroke-opacity:0.7;stroke-width:1.2;"/>
   </g>
   <g id="line2d_14">
    <path clip-path="url(#p53fa9ef832)" d="M 360.620141 96.49506 
L 359.96868 98.404308 
L 359.278195 100.389499 
L 359.920311 98.381291 
L 360.479459 96.121676 
L 360.85041 96.094122 
L 361.020772 95.989189 
L 360.968973 96.133418 
L 360.717163 96.451343 
L 360.245985 96.704741 
L 360.173664 96.699481 
L 360.651019 96.595538 
L 360.693323 96.555396 
L 360.693323 96.555396 
" style="fill:none;stroke:#000000;stroke-linecap:square;stroke-opacity:0.7;stroke-width:1.2;"/>
   </g>
   <g id="line2d_15">
    <path clip-path="url(#p53fa9ef832)" d="M 360.649379 49.354346 
L 360.945957 47.032278 
L 360.659899 48.325686 
L 358.978292 54.676895 
L 358.760999 55.31673 
L 358.749221 55.090128 
L 359.012952 50.616552 
L 359.238294 48.768419 
L 359.35438 48.788236 
L 359.637091 49.315808 
L 359.981536 49.845989 
L 360.287293 49.76495 
L 360.722457 49.437496 
L 360.727623 49.419988 
L 360.727623 49.419988 
" style="fill:none;stroke:#000000;stroke-linecap:square;stroke-opacity:0.7;stroke-width:1.2;"/>
   </g>
   <g id="line2d_16">
    <path clip-path="url(#p53fa9ef832)" d="M 517.685907 237.787282 
L 517.393574 236.418838 
L 517.354385 236.279036 
L 517.478504 236.327027 
L 517.788799 236.200979 
L 518.427898 235.61792 
L 518.521873 235.586975 
L 518.529892 235.670688 
L 518.342025 236.340688 
L 517.45417 238.680344 
L 517.523444 238.324188 
L 517.585762 237.498627 
L 517.682186 237.710592 
L 517.771324 237.883696 
L 517.775988 237.858712 
" style="fill:none;stroke:#000000;stroke-linecap:square;stroke-opacity:0.7;stroke-width:1.2;"/>
   </g>
   <g id="line2d_17">
    <path clip-path="url(#p53fa9ef832)" d="M 517.69475 190.729221 
L 517.734837 193.248934 
L 517.183199 195.289133 
L 515.965246 198.942479 
L 515.931927 198.957757 
L 515.90751 198.852559 
L 515.932675 197.645518 
L 516.264399 192.707093 
L 516.509209 190.807486 
L 516.539967 190.863087 
L 516.557735 191.659784 
L 516.369351 196.097098 
L 516.305401 197.941134 
L 516.38631 197.704055 
L 517.034955 194.750147 
L 517.747693 190.802757 
L 517.747693 190.802757 
" style="fill:none;stroke:#000000;stroke-linecap:square;stroke-opacity:0.7;stroke-width:1.2;"/>
   </g>
   <g id="line2d_18">
    <path clip-path="url(#p53fa9ef832)" d="M 517.632701 143.608579 
L 517.561226 145.076012 
L 516.699113 153.152774 
L 516.20122 156.86552 
L 516.274545 155.718982 
L 517.068933 143.241027 
L 516.961728 142.939249 
L 516.646506 142.904788 
L 515.930586 143.009002 
L 515.901557 143.319737 
L 516.106714 150.358272 
L 516.130015 150.339913 
L 516.285065 149.861474 
L 517.286332 145.656561 
L 517.712974 143.685598 
L 517.712974 143.685598 
" style="fill:none;stroke:#000000;stroke-linecap:square;stroke-opacity:0.7;stroke-width:1.2;"/>
   </g>
   <g id="line2d_19">
    <path clip-path="url(#p53fa9ef832)" d="M 517.686057 96.479024 
L 517.856164 96.067615 
L 518.278149 94.741539 
L 518.002439 95.300134 
L 517.223954 96.413365 
L 516.377056 97.259248 
L 516.258911 97.199669 
L 516.149879 96.609751 
L 516.112928 96.120881 
L 516.136798 97.232799 
L 516.044201 103.712908 
L 516.201018 103.294723 
L 516.939071 100.406864 
L 517.750494 96.548135 
L 517.750494 96.548135 
" style="fill:none;stroke:#000000;stroke-linecap:square;stroke-opacity:0.7;stroke-width:1.2;"/>
   </g>
   <g id="line2d_20">
    <path clip-path="url(#p53fa9ef832)" d="M 517.668828 49.389533 
L 517.15876 51.402895 
L 516.769113 53.456093 
L 516.783572 53.447342 
L 516.874949 53.087581 
L 517.124483 50.964207 
L 517.245727 49.636065 
L 517.352199 49.662252 
L 517.47354 49.548166 
L 517.539932 49.29544 
L 517.621215 49.445644 
L 517.727964 49.489174 
L 517.744369 49.456078 
" style="fill:none;stroke:#000000;stroke-linecap:square;stroke-opacity:0.7;stroke-width:1.2;"/>
   </g>
   <g id="line2d_21">
    <path clip-path="url(#p53fa9ef832)" d="M 674.681111 237.78903 
L 674.218948 237.087254 
L 673.694348 235.832744 
L 673.634583 235.72907 
L 673.588003 235.834337 
L 673.332382 237.126026 
L 672.545923 241.926109 
L 672.605979 240.646114 
L 672.805857 238.001209 
L 672.958825 237.816603 
L 673.218685 237.864288 
L 673.778319 238.277158 
L 674.224437 238.581728 
L 674.511259 238.286449 
L 674.750857 237.846468 
L 674.750857 237.846468 
" style="fill:none;stroke:#000000;stroke-linecap:square;stroke-opacity:0.7;stroke-width:1.2;"/>
   </g>
   <g id="line2d_22">
    <path clip-path="url(#p53fa9ef832)" d="M 674.697531 190.706978 
L 674.651214 191.556652 
L 673.935062 197.362958 
L 673.413351 200.706225 
L 674.651873 193.034716 
L 675.440279 188.303654 
L 675.366595 188.361137 
L 674.777363 189.231952 
L 673.78541 190.97284 
L 673.846253 191.052024 
L 674.169494 190.905455 
L 674.804699 190.273664 
L 675.282361 189.728287 
L 675.283716 189.858247 
L 675.090608 190.344445 
L 674.752407 190.752279 
L 674.752407 190.752279 
" style="fill:none;stroke:#000000;stroke-linecap:square;stroke-opacity:0.7;stroke-width:1.2;"/>
   </g>
   <g id="line2d_23">
    <path clip-path="url(#p53fa9ef832)" d="M 674.694439 143.559949 
L 674.874033 142.736858 
L 675.144023 140.195166 
L 675.077504 139.262699 
L 674.992829 139.354421 
L 674.754196 140.023342 
L 674.280615 142.017424 
L 673.955293 143.380475 
L 673.806285 143.686579 
L 673.702546 144.940379 
L 673.337211 149.494215 
L 673.524592 148.79075 
L 674.769523 143.637461 
L 674.769523 143.637461 
" style="fill:none;stroke:#000000;stroke-linecap:square;stroke-opacity:0.7;stroke-width:1.2;"/>
   </g>
   <g id="line2d_24">
    <path clip-path="url(#p53fa9ef832)" d="M 674.667694 96.478127 
L 674.488879 96.554078 
L 673.533405 97.150096 
L 673.342527 97.72256 
L 673.396542 97.29271 
L 673.646054 96.188369 
L 673.701693 96.309532 
L 673.712557 97.004205 
L 673.585615 98.676688 
L 673.74968 98.432367 
L 674.749135 96.550819 
L 674.749135 96.550819 
" style="fill:none;stroke:#000000;stroke-linecap:square;stroke-opacity:0.7;stroke-width:1.2;"/>
   </g>
   <g id="line2d_25">
    <path clip-path="url(#p53fa9ef832)" d="M 674.699126 49.374745 
L 674.374545 49.521632 
L 674.322627 49.535666 
L 674.334278 49.619338 
L 674.328175 49.718361 
L 674.221621 49.585624 
L 673.9393 48.893922 
L 674.323878 48.378914 
L 674.812037 48.12324 
L 675.425596 47.507809 
L 675.485383 47.464444 
L 675.472917 47.612707 
L 675.140332 48.630899 
L 674.742643 49.41687 
L 674.742643 49.41687 
" style="fill:none;stroke:#000000;stroke-linecap:square;stroke-opacity:0.7;stroke-width:1.2;"/>
   </g>
  </g>
 </g>
 <defs>
  <clipPath id="p53fa9ef832">
   <rect height="262.08" width="694.08" x="12.96" y="12.96"/>
  </clipPath>
 </defs>
</svg>
