<?xml version="1.0" encoding="utf-8" standalone="no"?>
<!DOCTYPE svg PUBLIC "-//W3C//DTD SVG 1.1//EN"
  "http://www.w3.org/Graphics/SVG/1.1/DTD/svg11.dtd">
<!-- Created with matplotlib (https://matplotlib.org/) -->
<svg height="288pt" version="1.1" viewBox="0 0 720 288" width="720pt" xmlns="http://www.w3.org/2000/svg" xmlns:xlink="http://www.w3.org/1999/xlink">
 <metadata>
  <rdf:RDF xmlns:cc="http://creativecommons.org/ns#" xmlns:dc="http://purl.org/dc/elements/1.1/" xmlns:rdf="http://www.w3.org/1999/02/22-rdf-syntax-ns#">
   <cc:Work>
    <dc:type rdf:resource="http://purl.org/dc/dcmitype/StillImage"/>
    <dc:date>2020-12-22T14:30:50.080368</dc:date>
    <dc:format>image/svg+xml</dc:format>
    <dc:creator>
     <cc:Agent>
      <dc:title>Matplotlib v3.3.2, https://matplotlib.org/</dc:title>
     </cc:Agent>
    </dc:creator>
   </cc:Work>
  </rdf:RDF>
 </metadata>
 <defs>
  <style type="text/css">*{stroke-linecap:butt;stroke-linejoin:round;}</style>
 </defs>
 <g id="figure_1">
  <g id="patch_1">
   <path d="M 0 288 
L 720 288 
L 720 0 
L 0 0 
z
" style="fill:#ffffff;"/>
  </g>
  <g id="axes_1">
   <g id="line2d_1">
    <path clip-path="url(#p6d34ee0224)" d="M 62.047734 238.013251 
L 66.191212 227.004333 
L 67.170505 223.750874 
L 67.229043 222.991465 
L 67.121075 223.061933 
L 66.584484 223.918036 
L 65.378219 226.323569 
L 62.585694 232.363848 
L 58.521679 241.620386 
L 57.08275 245.376409 
L 56.97382 246.125576 
L 57.047021 246.156259 
L 57.36035 245.909535 
L 58.483333 244.416744 
L 64.351345 235.764985 
L 64.306598 235.746872 
L 63.781729 235.759753 
L 61.924537 236.122677 
L 60.887102 236.513783 
L 60.532243 236.869336 
L 60.563764 237.106902 
L 60.859552 237.38907 
L 61.537782 237.690116 
L 62.018772 237.755482 
L 61.95444 237.722632 
" style="fill:none;stroke:#000000;stroke-linecap:square;stroke-opacity:0.7;stroke-width:1.2;"/>
   </g>
   <g id="line2d_2">
    <path clip-path="url(#p6d34ee0224)" d="M 61.867397 192.185894 
L 64.78737 189.737578 
L 66.004024 189.096312 
L 67.216562 188.66696 
L 68.303736 188.46066 
L 69.212935 188.431658 
L 70.367457 188.633795 
L 70.889466 188.849503 
L 71.637597 189.406907 
L 72.035087 189.996668 
L 72.219842 190.710139 
L 72.175375 191.368967 
L 71.869898 192.169299 
L 71.277411 192.954836 
L 70.50804 193.595825 
L 69.495436 194.148301 
L 68.165749 194.569771 
L 66.839042 194.727785 
L 65.930791 194.694837 
L 64.827506 194.490053 
L 63.447584 193.933028 
L 62.333833 193.170715 
L 61.347712 192.189971 
L 60.237403 190.654212 
L 59.35 189.052973 
L 58.279318 186.632344 
L 58.030281 185.648614 
L 58.173797 185.615398 
L 58.638088 185.926537 
L 61.260422 188.105388 
L 61.41615 188.819271 
L 61.787836 191.958078 
L 61.787836 191.958078 
" style="fill:none;stroke:#000000;stroke-linecap:square;stroke-opacity:0.7;stroke-width:1.2;"/>
   </g>
   <g id="line2d_3">
    <path clip-path="url(#p6d34ee0224)" d="M 62.056008 146.619692 
L 63.080443 144.414718 
L 64.105557 141.763413 
L 64.394614 140.50716 
L 64.290494 140.259479 
L 64.15177 140.387758 
L 64.233524 140.437018 
L 64.695491 140.311673 
L 68.169847 139.150865 
L 69.435231 138.988593 
L 69.985037 139.037033 
L 70.629251 139.310608 
L 71.045259 139.849359 
L 71.173789 140.274783 
L 71.20318 141.340331 
L 70.932611 142.77935 
L 70.355354 144.550273 
L 69.443922 146.608296 
L 68.509543 148.136325 
L 67.485856 149.403999 
L 66.208355 150.679137 
L 64.277254 152.207045 
L 62.975633 152.98581 
L 61.998991 153.37364 
L 61.28395 153.433269 
L 60.933279 153.28135 
L 60.695874 152.943073 
L 60.593191 152.410405 
L 60.691521 151.237102 
L 61.181329 149.225272 
L 61.989566 146.251314 
L 61.989566 146.251314 
" style="fill:none;stroke:#000000;stroke-linecap:square;stroke-opacity:0.7;stroke-width:1.2;"/>
   </g>
   <g id="line2d_4">
    <path clip-path="url(#p6d34ee0224)" d="M 62.026719 100.901996 
L 62.345697 99.865724 
L 62.654709 98.341163 
L 62.812514 96.637203 
L 62.801089 95.281926 
L 62.568559 93.307537 
L 62.113628 91.459375 
L 61.3635 89.499246 
L 60.552732 87.949148 
L 58.682497 85.373569 
L 57.984616 84.627285 
L 54.821066 82.139597 
L 53.490671 81.431759 
L 52.172823 80.899468 
L 50.338858 80.436346 
L 49.344271 80.330518 
L 48.664393 80.325376 
L 46.34331 80.87784 
L 45.474214 81.491174 
L 44.907035 82.228664 
L 44.52412 83.506923 
L 44.509091 83.967124 
L 44.826515 85.593632 
L 45.251163 86.58864 
L 45.913718 87.730674 
L 47.197144 89.442914 
L 49.073271 91.485363 
L 52.045233 94.318607 
L 62.115526 103.440788 
L 63.104599 104.03613 
L 63.446128 104.147177 
L 64.339684 104.117535 
L 65.253835 103.606685 
L 66.244305 102.632211 
L 67.443291 101.034691 
L 68.252077 99.71667 
L 69.268591 97.459667 
L 69.385475 96.725055 
L 69.240445 96.277958 
L 68.968305 96.127759 
L 68.55857 96.129878 
L 67.722398 96.404572 
L 66.646663 96.982678 
L 65.142128 98.010377 
L 62.958117 99.806146 
L 62.107013 100.57292 
L 62.107013 100.57292 
" style="fill:none;stroke:#000000;stroke-linecap:square;stroke-opacity:0.7;stroke-width:1.2;"/>
   </g>
   <g id="line2d_5">
    <path clip-path="url(#p6d34ee0224)" d="M 61.935069 55.109099 
L 63.767349 51.63555 
L 66.291982 47.096047 
L 67.726652 44.91357 
L 68.553078 43.931616 
L 69.080855 43.645172 
L 69.158702 43.894594 
L 69.005098 44.531923 
L 68.302545 46.075789 
L 67.182844 47.985489 
L 65.681453 50.186967 
L 63.52195 52.963446 
L 61.076614 55.71068 
L 58.795834 57.915013 
L 57.063459 59.298197 
L 56.0314 59.939134 
L 54.982221 60.342138 
L 54.447845 60.369914 
L 53.917468 60.143782 
L 53.761112 59.982635 
L 53.423453 59.225662 
L 53.300241 58.235826 
L 53.372528 56.545056 
L 53.684325 54.517205 
L 54.270382 52.156257 
L 54.922866 50.428731 
L 55.391107 49.654841 
L 55.813714 49.294994 
L 56.171594 49.275876 
L 56.449986 49.505765 
L 56.691639 50.03873 
L 56.830504 50.974285 
L 56.774373 52.375805 
L 56.466692 55.735443 
L 56.711308 56.16155 
L 57.119997 56.379808 
L 57.797221 56.436575 
L 58.897743 56.245808 
L 60.32107 55.742086 
L 61.536555 55.097053 
L 61.877228 54.825701 
L 61.877228 54.825701 
" style="fill:none;stroke:#000000;stroke-linecap:square;stroke-opacity:0.7;stroke-width:1.2;"/>
   </g>
   <g id="line2d_6">
    <path clip-path="url(#p6d34ee0224)" d="M 214.069425 238.040857 
L 214.101854 237.593523 
L 214.239917 237.71478 
L 215.192615 238.790449 
L 215.204827 238.771725 
L 215.20173 238.67437 
L 214.863319 237.9141 
L 213.917607 236.46409 
L 212.706452 235.002938 
L 211.528242 233.915453 
L 210.549255 233.296209 
L 210.174254 233.135896 
L 209.013691 232.916374 
L 208.049091 233.028206 
L 207.140076 233.34276 
L 205.807859 234.127851 
L 204.689872 235.098238 
L 203.978476 235.923531 
L 203.354831 236.930234 
L 203.072758 237.802451 
L 203.121593 238.322673 
L 203.297342 238.540969 
L 203.652513 238.639577 
L 204.129626 238.557455 
L 205.143163 238.067162 
L 206.559022 237.062646 
L 210.161893 233.943232 
L 213.172133 231.365775 
L 214.983689 230.124967 
L 215.719219 229.777522 
L 216.515331 229.600059 
L 217.020517 229.686839 
L 217.302056 229.874082 
L 217.592496 230.340983 
L 217.71516 231.503471 
L 217.55542 232.50745 
L 216.984374 234.154614 
L 216.201672 235.595281 
L 215.283553 236.791355 
L 214.470836 237.526106 
L 213.965204 237.836293 
L 213.965204 237.836293 
" style="fill:none;stroke:#000000;stroke-linecap:square;stroke-opacity:0.7;stroke-width:1.2;"/>
   </g>
   <g id="line2d_7">
    <path clip-path="url(#p6d34ee0224)" d="M 214.256682 192.355705 
L 214.315965 191.84781 
L 214.546462 190.766164 
L 214.973081 189.763633 
L 215.652534 188.734502 
L 216.384946 187.972256 
L 217.300277 187.347543 
L 218.133745 187.065209 
L 218.804736 187.088767 
L 219.269811 187.343907 
L 219.562342 187.797535 
L 219.667221 188.433394 
L 219.568173 189.225145 
L 219.188772 190.295632 
L 218.525005 191.475918 
L 217.643298 192.628803 
L 216.514613 193.727211 
L 215.866942 194.155901 
L 215.453236 194.203941 
L 215.392962 194.089997 
L 215.481458 193.60212 
L 216.019483 192.512969 
L 217.100902 190.855261 
L 219.736069 187.046069 
L 222.35861 182.226977 
L 222.307543 182.416382 
L 221.567802 183.661039 
L 219.896328 185.946333 
L 217.435712 188.899039 
L 215.011322 191.432032 
L 214.244829 192.066756 
L 214.244829 192.066756 
" style="fill:none;stroke:#000000;stroke-linecap:square;stroke-opacity:0.7;stroke-width:1.2;"/>
   </g>
   <g id="line2d_8">
    <path clip-path="url(#p6d34ee0224)" d="M 214.157735 146.537333 
L 214.726168 145.305547 
L 215.235419 143.629691 
L 215.419416 142.277558 
L 215.397743 141.327359 
L 215.209136 140.352931 
L 214.827478 139.435669 
L 214.421769 138.82164 
L 213.434305 137.864534 
L 212.231115 137.137801 
L 210.61925 136.490861 
L 207.820971 135.686556 
L 205.358199 134.925328 
L 204.015272 134.299989 
L 203.737999 134.067932 
L 204.839294 134.878575 
L 205.549761 135.760918 
L 206.12227 136.749389 
L 206.61463 138.126262 
L 206.767654 139.284664 
L 206.740252 139.939759 
L 206.457679 141.08118 
L 205.939958 142.006794 
L 205.555272 142.487567 
L 205.733533 142.42407 
L 208.564474 141.106521 
L 209.752681 140.834496 
L 210.968236 140.887942 
L 211.743213 141.178991 
L 212.488378 141.736667 
L 213.160418 142.589246 
L 213.644171 143.536889 
L 214.096362 144.9696 
L 214.22882 146.155183 
L 214.109616 146.365509 
L 214.096979 146.362511 
L 214.066525 146.352221 
L 214.066525 146.352221 
" style="fill:none;stroke:#000000;stroke-linecap:square;stroke-opacity:0.7;stroke-width:1.2;"/>
   </g>
   <g id="line2d_9">
    <path clip-path="url(#p6d34ee0224)" d="M 214.250743 100.996192 
L 214.319025 100.389286 
L 214.205666 99.015571 
L 213.796258 96.987309 
L 212.99796 94.195457 
L 212.858412 94.124712 
L 212.661459 94.410719 
L 212.490015 94.995609 
L 212.480896 95.744654 
L 212.666835 96.402173 
L 212.939378 96.832785 
L 213.276558 97.129522 
L 214.034222 97.382852 
L 214.839145 97.314596 
L 215.913831 96.900566 
L 217.03689 96.202006 
L 219.058641 94.509731 
L 221.573744 92.009771 
L 224.789131 88.854771 
L 225.81455 88.069403 
L 226.20083 87.939077 
L 226.259146 88.11094 
L 226.028036 88.624821 
L 225.247559 89.748613 
L 223.17405 92.218658 
L 220.115342 95.47855 
L 216.517488 98.973052 
L 214.472237 100.695509 
L 214.355738 100.781077 
L 214.355738 100.781077 
" style="fill:none;stroke:#000000;stroke-linecap:square;stroke-opacity:0.7;stroke-width:1.2;"/>
   </g>
   <g id="line2d_10">
    <path clip-path="url(#p6d34ee0224)" d="M 214.128464 54.960191 
L 215.031525 53.686705 
L 217.981183 49.0579 
L 219.558759 46.236307 
L 220.544877 44.07928 
L 220.80096 43.114751 
L 220.768799 42.719423 
L 220.691533 42.597822 
L 220.164053 42.526262 
L 219.671352 42.692009 
L 218.043903 43.555151 
L 213.916964 46.125467 
L 206.343645 50.813558 
L 205.722853 50.869284 
L 205.024794 50.558299 
L 204.207125 49.855738 
L 203.006643 48.504048 
L 201.958648 47.010895 
L 201.8173 46.574111 
L 201.956659 46.397578 
L 202.442404 46.335086 
L 205.200928 46.439975 
L 206.456938 46.701314 
L 207.459664 47.120195 
L 208.446925 47.755552 
L 209.56354 48.737328 
L 211.144617 50.514172 
L 213.119727 53.152613 
L 214.066535 54.657032 
L 214.066535 54.657032 
" style="fill:none;stroke:#000000;stroke-linecap:square;stroke-opacity:0.7;stroke-width:1.2;"/>
   </g>
   <g id="line2d_11">
    <path clip-path="url(#p6d34ee0224)" d="M 366.45716 238.153049 
L 366.357553 237.706596 
L 366.463354 237.057925 
L 366.855467 236.212044 
L 367.441528 235.431727 
L 368.162828 234.759586 
L 369.205846 234.115552 
L 370.196923 233.786076 
L 371.08952 233.723453 
L 371.949925 233.918435 
L 372.557368 234.27155 
L 373.07184 234.806734 
L 373.522118 235.668074 
L 373.757712 236.684621 
L 373.793732 237.737027 
L 373.585931 239.169709 
L 373.174599 240.368547 
L 372.730907 241.014446 
L 372.498355 241.032245 
L 372.353427 240.733371 
L 372.238924 239.596351 
L 372.062395 237.984975 
L 371.83348 237.511764 
L 371.499295 237.328125 
L 370.968832 237.355091 
L 369.801919 237.480284 
L 368.863635 237.341538 
L 367.891156 236.940688 
L 367.174303 236.598108 
L 367.024732 236.848442 
L 366.593405 237.658071 
L 366.419736 237.822868 
L 366.419736 237.822868 
" style="fill:none;stroke:#000000;stroke-linecap:square;stroke-opacity:0.7;stroke-width:1.2;"/>
   </g>
   <g id="line2d_12">
    <path clip-path="url(#p6d34ee0224)" d="M 366.334922 192.295689 
L 366.847078 191.800226 
L 368.805321 189.790649 
L 370.21547 188.688927 
L 371.334782 188.025955 
L 372.565032 187.511533 
L 373.93695 187.228436 
L 374.966068 187.268572 
L 375.747293 187.512114 
L 376.352064 187.924941 
L 376.728215 188.414104 
L 376.955543 189.153664 
L 376.93672 189.724313 
L 376.682169 190.490411 
L 376.259241 191.130154 
L 375.582463 191.781051 
L 374.580329 192.389925 
L 373.48127 192.757457 
L 372.623425 192.842782 
L 371.917801 192.744997 
L 371.219724 192.41752 
L 370.641878 191.829501 
L 370.237102 191.051326 
L 369.894648 189.749279 
L 369.336816 186.776624 
L 369.112475 186.874875 
L 368.623216 187.420184 
L 367.047069 189.697474 
L 363.024073 195.720013 
L 363.353949 195.391349 
L 366.322771 192.060117 
L 366.322771 192.060117 
" style="fill:none;stroke:#000000;stroke-linecap:square;stroke-opacity:0.7;stroke-width:1.2;"/>
   </g>
   <g id="line2d_13">
    <path clip-path="url(#p6d34ee0224)" d="M 366.620363 146.784479 
L 366.630604 146.247476 
L 367.060222 146.18465 
L 369.701695 146.099545 
L 371.650166 145.718011 
L 373.508098 145.151467 
L 376.573333 143.952899 
L 378.876642 143.088943 
L 379.67767 142.990171 
L 379.979041 143.147299 
L 380.002627 143.437066 
L 379.877146 143.679058 
L 379.442007 144.063914 
L 378.767908 144.312913 
L 377.982323 144.309204 
L 377.546076 144.191323 
L 376.57574 143.64188 
L 375.657051 142.801697 
L 374.513274 141.782005 
L 373.838108 141.490741 
L 373.137076 141.421999 
L 372.444024 141.535822 
L 371.456828 141.947873 
L 370.532284 142.552279 
L 369.250139 143.670889 
L 367.697786 145.338916 
L 366.633831 146.473619 
L 366.633831 146.473619 
" style="fill:none;stroke:#000000;stroke-linecap:square;stroke-opacity:0.7;stroke-width:1.2;"/>
   </g>
   <g id="line2d_14">
    <path clip-path="url(#p6d34ee0224)" d="M 366.360326 100.76727 
L 366.676789 99.769342 
L 367.846758 96.783409 
L 369.396414 93.389588 
L 371.209955 89.959597 
L 372.639917 87.651013 
L 373.933875 85.954907 
L 374.699987 85.287869 
L 374.951746 85.234361 
L 375.075942 85.364356 
L 375.05558 85.90758 
L 374.698284 86.975813 
L 373.945815 88.536745 
L 372.506069 90.963844 
L 370.809989 93.435129 
L 368.494722 96.426517 
L 366.131252 99.149975 
L 363.549556 101.792022 
L 361.450337 103.671995 
L 359.411647 105.21008 
L 357.895614 106.085128 
L 356.782114 106.479026 
L 356.454518 106.528193 
L 355.541619 106.34226 
L 355.176094 105.950111 
L 354.92991 105.104604 
L 354.959526 103.979233 
L 355.236574 102.630458 
L 356.032004 100.419299 
L 357.245613 98.091376 
L 358.649332 96.103633 
L 359.972546 94.719608 
L 361.004576 93.936915 
L 362.086855 93.400593 
L 362.826615 93.217033 
L 363.709509 93.227159 
L 364.462403 93.489323 
L 364.908815 93.802078 
L 365.536693 94.596783 
L 365.878912 95.482945 
L 366.016844 96.524634 
L 365.923709 97.690032 
L 365.609121 98.835302 
L 364.987704 100.134105 
L 364.10693 101.773961 
L 364.393363 101.75741 
L 365.143516 101.413416 
L 365.91899 100.835762 
L 366.24513 100.460643 
L 366.24513 100.460643 
" style="fill:none;stroke:#000000;stroke-linecap:square;stroke-opacity:0.7;stroke-width:1.2;"/>
   </g>
   <g id="line2d_15">
    <path clip-path="url(#p6d34ee0224)" d="M 366.394633 55.611844 
L 365.774756 56.827663 
L 365.812474 57.274755 
L 366.098435 57.828225 
L 366.689974 58.429961 
L 367.763577 59.155322 
L 369.616543 60.04973 
L 371.696434 60.803127 
L 374.197161 61.465515 
L 376.062862 61.765286 
L 377.433258 61.775223 
L 377.882886 61.571822 
L 377.84202 61.348264 
L 377.428608 60.968669 
L 373.113015 57.801775 
L 368.372371 53.663172 
L 363.039044 49.102579 
L 359.950104 46.4295 
L 359.215691 45.491717 
L 358.913318 44.758461 
L 358.875026 44.07754 
L 358.962371 43.693256 
L 359.242418 43.140052 
L 359.772946 42.575082 
L 360.367869 42.197998 
L 360.918175 41.984963 
L 361.79061 41.843741 
L 362.823508 41.946235 
L 363.712116 42.267125 
L 364.567892 42.804592 
L 365.499297 43.709415 
L 366.180348 44.667752 
L 366.809722 45.92247 
L 367.297312 47.4014 
L 367.579152 48.911619 
L 367.670003 50.315827 
L 367.585832 51.812428 
L 367.273875 53.345952 
L 366.742457 54.639386 
L 366.34166 55.208091 
L 366.34166 55.208091 
" style="fill:none;stroke:#000000;stroke-linecap:square;stroke-opacity:0.7;stroke-width:1.2;"/>
   </g>
   <g id="line2d_16">
    <path clip-path="url(#p6d34ee0224)" d="M 518.889733 238.068238 
L 519.269573 237.444596 
L 519.691266 237.163969 
L 520.444806 236.991126 
L 521.341847 237.057472 
L 522.719406 237.474761 
L 524.664578 238.375961 
L 526.638958 239.266176 
L 528.004606 239.633997 
L 529.005521 239.641235 
L 529.494221 239.441435 
L 529.610732 239.200614 
L 529.503217 238.893804 
L 529.01602 238.353069 
L 527.268884 236.947713 
L 525.812874 235.673045 
L 525.093989 234.758212 
L 524.651665 233.754016 
L 524.517479 233.035096 
L 524.589184 231.533096 
L 525.011857 229.992046 
L 525.728775 228.390159 
L 526.765796 226.71075 
L 527.734895 225.551828 
L 528.313979 225.11466 
L 528.532619 225.162095 
L 528.523569 225.43942 
L 528.185409 226.259582 
L 527.189736 227.908176 
L 525.402773 230.37559 
L 522.605133 233.77748 
L 519.705946 236.91286 
L 518.90624 237.716209 
L 518.90624 237.716209 
" style="fill:none;stroke:#000000;stroke-linecap:square;stroke-opacity:0.7;stroke-width:1.2;"/>
   </g>
   <g id="line2d_17">
    <path clip-path="url(#p6d34ee0224)" d="M 518.796769 192.493517 
L 518.183554 192.752057 
L 518.369039 192.78315 
L 520.507493 193.000457 
L 522.34246 193.400388 
L 524.176941 194.023085 
L 525.754024 194.77276 
L 527.638293 196.007969 
L 528.339652 196.420891 
L 528.448023 196.304766 
L 528.530049 195.788275 
L 528.505243 194.2449 
L 528.284951 192.541173 
L 527.985017 191.302507 
L 527.404928 189.778872 
L 526.046468 186.882225 
L 525.47173 184.539209 
L 525.146174 184.747217 
L 524.377641 185.558044 
L 518.792264 192.066034 
L 518.792264 192.066034 
" style="fill:none;stroke:#000000;stroke-linecap:square;stroke-opacity:0.7;stroke-width:1.2;"/>
   </g>
   <g id="line2d_18">
    <path clip-path="url(#p6d34ee0224)" d="M 518.619103 146.563227 
L 518.238861 146.442586 
L 517.591288 146.505825 
L 516.343686 146.907249 
L 514.38037 147.788548 
L 511.00275 149.331989 
L 509.861899 149.66414 
L 508.844442 149.721626 
L 508.233655 149.550568 
L 507.851844 149.3035 
L 507.183365 148.303822 
L 506.924512 147.328918 
L 506.811233 145.966104 
L 506.899746 144.240139 
L 507.295533 141.91206 
L 507.768166 140.188703 
L 508.50427 138.268118 
L 509.13045 137.062444 
L 509.91008 135.962723 
L 510.752675 135.202734 
L 511.131124 134.998874 
L 511.83905 134.853513 
L 512.206964 134.911238 
L 512.759281 135.212607 
L 513.27844 135.87551 
L 513.533293 136.583701 
L 513.614328 137.395208 
L 513.458131 138.425177 
L 513.089332 139.36247 
L 512.309955 141.109338 
L 512.36194 141.675256 
L 512.671407 142.196967 
L 513.243676 142.667154 
L 514.133777 143.065142 
L 515.515863 143.610592 
L 516.076603 144.211115 
L 517.155452 145.528601 
L 518.01284 146.204736 
L 518.471391 146.331575 
L 518.58398 146.299548 
L 518.58398 146.299548 
" style="fill:none;stroke:#000000;stroke-linecap:square;stroke-opacity:0.7;stroke-width:1.2;"/>
   </g>
   <g id="line2d_19">
    <path clip-path="url(#p6d34ee0224)" d="M 518.923542 100.856557 
L 522.467258 97.280059 
L 524.182023 96.069915 
L 525.54521 95.404611 
L 527.012506 95.044771 
L 527.810692 95.050915 
L 528.731352 95.312994 
L 529.336976 95.711918 
L 529.82763 96.264242 
L 530.172502 96.888552 
L 530.408394 97.577692 
L 530.605097 99.110988 
L 530.534466 100.360127 
L 530.247711 101.786749 
L 529.762844 103.133455 
L 529.185256 104.150183 
L 528.614094 104.731317 
L 528.217907 104.866272 
L 527.974704 104.810431 
L 527.60121 104.481836 
L 526.978665 103.466443 
L 525.75846 101.504189 
L 524.610806 99.747919 
L 524.339937 98.928785 
L 524.28892 98.39665 
L 524.473389 97.045647 
L 524.833945 95.927684 
L 525.791136 93.80295 
L 527.313561 91.143927 
L 528.094695 90.082368 
L 526.185086 92.718209 
L 523.540989 95.814615 
L 520.315216 99.254463 
L 518.820188 100.689092 
L 518.820188 100.689092 
" style="fill:none;stroke:#000000;stroke-linecap:square;stroke-opacity:0.7;stroke-width:1.2;"/>
   </g>
   <g id="line2d_20">
    <path clip-path="url(#p6d34ee0224)" d="M 518.481254 55.277494 
L 518.364429 54.834237 
L 517.345381 52.10372 
L 516.03623 49.159918 
L 515.139258 47.573077 
L 514.502126 46.800444 
L 514.066936 46.483202 
L 513.480755 46.310743 
L 512.719203 46.411089 
L 511.742136 46.852641 
L 510.345837 47.794069 
L 508.94919 48.956102 
L 507.417525 50.459416 
L 505.896011 52.281301 
L 505.090307 53.477417 
L 504.201209 55.179696 
L 503.7102 56.205811 
L 503.566157 56.103868 
L 503.368387 55.255043 
L 503.092022 52.989403 
L 503.145496 51.710327 
L 503.355819 51.154273 
L 503.82724 50.626605 
L 504.605215 50.13168 
L 505.579879 49.748763 
L 506.443972 49.577411 
L 507.92694 49.61128 
L 509.24921 49.935853 
L 510.479606 50.424798 
L 512.434785 51.440156 
L 516.921227 54.173547 
L 518.431727 54.996321 
L 518.431727 54.996321 
" style="fill:none;stroke:#000000;stroke-linecap:square;stroke-opacity:0.7;stroke-width:1.2;"/>
   </g>
   <g id="line2d_21">
    <path clip-path="url(#p6d34ee0224)" d="M 671.111601 237.894793 
L 672.165685 235.830569 
L 672.313923 235.14083 
L 672.21335 234.870784 
L 671.862048 234.724547 
L 671.093272 234.802018 
L 666.392285 235.825781 
L 665.309707 235.727254 
L 664.465668 235.406443 
L 663.692499 234.752393 
L 663.140828 233.790885 
L 662.845243 232.685863 
L 662.740154 231.267157 
L 662.887783 229.419958 
L 663.215118 227.770511 
L 663.888222 225.572663 
L 664.942323 223.139253 
L 665.872415 221.494886 
L 666.859574 220.10317 
L 668.072969 218.827078 
L 668.958088 218.216852 
L 669.732528 217.972216 
L 670.257041 218.041734 
L 670.703482 218.383561 
L 671.054406 219.16221 
L 671.175621 220.341205 
L 671.072714 221.705897 
L 670.632735 223.889765 
L 669.867022 226.437099 
L 668.546302 229.921054 
L 666.621904 234.264103 
L 663.248342 241.59495 
L 662.966531 242.736578 
L 663.062 243.106531 
L 663.365469 243.195449 
L 663.904877 243.013533 
L 664.935491 242.375438 
L 666.571628 241.109296 
L 670.739853 237.509142 
L 673.971544 234.834085 
L 675.067063 234.15418 
L 675.449223 234.111238 
L 675.465737 234.354104 
L 675.232299 234.79041 
L 674.907495 235.213293 
L 673.514194 236.522881 
L 672.23352 237.329764 
L 671.317271 237.636495 
L 670.934567 237.622644 
L 670.934567 237.622644 
" style="fill:none;stroke:#000000;stroke-linecap:square;stroke-opacity:0.7;stroke-width:1.2;"/>
   </g>
   <g id="line2d_22">
    <path clip-path="url(#p6d34ee0224)" d="M 670.707526 192.552184 
L 668.076646 194.610702 
L 667.537183 195.382672 
L 667.296885 196.063729 
L 667.321839 196.732292 
L 667.600216 197.256515 
L 668.240074 197.721781 
L 668.897321 197.90056 
L 669.775921 197.8591 
L 670.409535 197.615082 
L 670.960386 197.131407 
L 671.224931 196.585974 
L 671.277312 195.927514 
L 671.167761 195.396024 
L 670.728491 194.47397 
L 670.028268 193.524936 
L 666.952197 189.755056 
L 665.872139 187.985604 
L 664.735361 185.658934 
L 664.141317 183.972434 
L 664.096701 183.666534 
L 664.205101 184.691061 
L 664.116051 185.704659 
L 663.708327 187.373343 
L 663.037612 189.056194 
L 661.943345 191.612988 
L 661.938625 191.994471 
L 662.023712 192.24253 
L 662.458343 192.654533 
L 663.204372 192.942145 
L 664.554661 193.167788 
L 666.616153 193.220021 
L 668.569376 193.021343 
L 669.822537 192.708647 
L 670.567052 192.327345 
L 670.668348 192.202964 
L 670.668348 192.202964 
" style="fill:none;stroke:#000000;stroke-linecap:square;stroke-opacity:0.7;stroke-width:1.2;"/>
   </g>
   <g id="line2d_23">
    <path clip-path="url(#p6d34ee0224)" d="M 670.890002 146.779829 
L 669.772018 145.7451 
L 668.446506 144.189238 
L 666.983998 142.101265 
L 663.252713 136.31039 
L 662.718561 135.949862 
L 662.078347 135.808385 
L 661.251741 135.99177 
L 660.256689 136.571466 
L 659.117762 137.525442 
L 657.746817 138.934478 
L 656.218841 140.819215 
L 655.569036 141.912353 
L 655.460999 142.370808 
L 655.623273 142.677338 
L 655.862021 142.769686 
L 656.739662 142.7747 
L 658.196144 142.564914 
L 661.984207 142.040821 
L 664.141317 141.979558 
L 665.778064 142.147994 
L 666.995484 142.464252 
L 668.165868 143.02058 
L 668.998435 143.682967 
L 669.659171 144.551759 
L 670.050007 145.524176 
L 670.166444 146.371594 
L 670.079067 147.294946 
L 669.79181 148.144483 
L 669.206192 149.066491 
L 668.472905 149.774027 
L 667.72301 150.236309 
L 667.180425 150.371934 
L 667.171146 150.231145 
L 667.598194 149.758412 
L 670.175153 147.295999 
L 670.798867 146.389344 
L 670.798867 146.389344 
" style="fill:none;stroke:#000000;stroke-linecap:square;stroke-opacity:0.7;stroke-width:1.2;"/>
   </g>
   <g id="line2d_24">
    <path clip-path="url(#p6d34ee0224)" d="M 670.889889 101.120603 
L 670.301218 100.805841 
L 668.780466 99.745775 
L 666.225336 97.661544 
L 664.009168 95.645759 
L 656.697834 88.753198 
L 655.629066 88.104628 
L 654.360459 87.80822 
L 653.706653 88.080314 
L 653.415171 88.464426 
L 653.201493 89.287031 
L 653.217946 90.086719 
L 653.533395 91.471236 
L 654.056576 92.729856 
L 654.880315 94.123976 
L 655.679005 95.164408 
L 657.181765 96.670092 
L 658.5609 97.728109 
L 659.644835 98.413588 
L 662.037187 99.612914 
L 664.353355 100.487435 
L 665.828351 100.936306 
L 668.674549 101.529293 
L 669.658688 101.513651 
L 670.424179 101.263305 
L 671.004105 100.838555 
L 671.537142 100.212281 
L 672.375003 98.729264 
L 673.65506 95.950236 
L 671.875484 99.587586 
L 670.987137 100.786983 
L 670.987137 100.786983 
" style="fill:none;stroke:#000000;stroke-linecap:square;stroke-opacity:0.7;stroke-width:1.2;"/>
   </g>
   <g id="line2d_25">
    <path clip-path="url(#p6d34ee0224)" d="M 670.931332 55.139495 
L 670.720384 54.900126 
L 670.051546 54.530474 
L 668.951035 54.226834 
L 667.637056 54.039011 
L 664.778141 53.907371 
L 657.798142 53.836924 
L 656.87529 53.664188 
L 655.813042 53.260071 
L 655.093347 52.738067 
L 654.637848 52.190786 
L 654.252299 51.427986 
L 653.990505 50.395112 
L 653.923737 49.40079 
L 654.024804 48.295727 
L 654.427503 46.980618 
L 654.800412 46.368738 
L 655.36532 45.871017 
L 655.847152 45.696026 
L 656.498692 45.70518 
L 656.798255 45.781789 
L 657.508678 46.101612 
L 658.977198 47.180691 
L 661.212817 49.311524 
L 664.00516 51.94187 
L 666.112993 53.587077 
L 669.534318 56.114096 
L 670.246165 56.94876 
L 670.547351 57.605885 
L 670.579653 58.170633 
L 670.423471 58.601069 
L 670.041029 59.030193 
L 669.381771 59.374078 
L 668.765404 59.434661 
L 668.576782 59.366211 
L 668.388658 59.077252 
L 668.435205 58.637021 
L 668.853798 57.746181 
L 670.028581 56.042296 
L 670.750908 55.028421 
L 670.750908 55.028421 
" style="fill:none;stroke:#000000;stroke-linecap:square;stroke-opacity:0.7;stroke-width:1.2;"/>
   </g>
  </g>
 </g>
 <defs>
  <clipPath id="p6d34ee0224">
   <rect height="262.08" width="694.08" x="12.96" y="12.96"/>
  </clipPath>
 </defs>
</svg>
