<?xml version="1.0" encoding="utf-8" standalone="no"?>
<!DOCTYPE svg PUBLIC "-//W3C//DTD SVG 1.1//EN"
  "http://www.w3.org/Graphics/SVG/1.1/DTD/svg11.dtd">
<!-- Created with matplotlib (https://matplotlib.org/) -->
<svg height="288pt" version="1.1" viewBox="0 0 720 288" width="720pt" xmlns="http://www.w3.org/2000/svg" xmlns:xlink="http://www.w3.org/1999/xlink">
 <metadata>
  <rdf:RDF xmlns:cc="http://creativecommons.org/ns#" xmlns:dc="http://purl.org/dc/elements/1.1/" xmlns:rdf="http://www.w3.org/1999/02/22-rdf-syntax-ns#">
   <cc:Work>
    <dc:type rdf:resource="http://purl.org/dc/dcmitype/StillImage"/>
    <dc:date>2020-12-22T17:51:04.579525</dc:date>
    <dc:format>image/svg+xml</dc:format>
    <dc:creator>
     <cc:Agent>
      <dc:title>Matplotlib v3.3.2, https://matplotlib.org/</dc:title>
     </cc:Agent>
    </dc:creator>
   </cc:Work>
  </rdf:RDF>
 </metadata>
 <defs>
  <style type="text/css">*{stroke-linecap:butt;stroke-linejoin:round;}</style>
 </defs>
 <g id="figure_1">
  <g id="patch_1">
   <path d="M 0 288 
L 720 288 
L 720 0 
L 0 0 
z
" style="fill:#ffffff;"/>
  </g>
  <g id="axes_1">
   <g id="line2d_1">
    <path clip-path="url(#p9b63bb35eb)" d="M 45.846736 236.22813 
L 45.599953 236.37682 
L 44.617747 237.033542 
L 44.509091 236.942093 
L 44.509799 236.933164 
L 44.651234 236.645702 
L 45.475992 235.644545 
L 46.28742 234.643992 
L 46.202027 234.675342 
L 45.946779 235.025615 
L 45.791581 235.346113 
L 46.12182 234.884808 
L 46.659267 234.467813 
L 47.138846 234.339196 
L 47.175559 234.480378 
L 46.922033 234.9936 
L 46.185492 236.028117 
L 45.863509 236.290935 
L 45.863509 236.290935 
" style="fill:none;stroke:#000000;stroke-linecap:square;stroke-opacity:0.7;stroke-width:1.2;"/>
   </g>
   <g id="line2d_2">
    <path clip-path="url(#p9b63bb35eb)" d="M 45.838391 189.311952 
L 46.222667 187.666906 
L 46.667083 184.7324 
L 46.698208 183.111594 
L 46.518912 182.255965 
L 46.723736 182.628859 
L 47.845105 184.358526 
L 48.710794 185.776486 
L 46.765501 187.684197 
L 45.622285 189.050751 
L 45.603582 189.048139 
L 45.637076 189.172352 
L 45.876609 189.425884 
L 45.892421 189.430465 
L 45.878695 189.378988 
L 45.878695 189.378988 
" style="fill:none;stroke:#000000;stroke-linecap:square;stroke-opacity:0.7;stroke-width:1.2;"/>
   </g>
   <g id="line2d_3">
    <path clip-path="url(#p9b63bb35eb)" d="M 45.844583 142.437919 
L 45.17 138.810148 
L 45.268649 138.887653 
L 46.598128 140.509311 
L 46.111835 141.122269 
L 45.464144 142.36274 
L 45.270542 142.95975 
L 45.561825 143.143649 
L 46.01361 143.472962 
L 45.912286 143.235076 
L 45.873465 142.549996 
L 45.875432 142.524421 
L 45.875432 142.524421 
" style="fill:none;stroke:#000000;stroke-linecap:square;stroke-opacity:0.7;stroke-width:1.2;"/>
   </g>
   <g id="line2d_4">
    <path clip-path="url(#p9b63bb35eb)" d="M 45.852347 95.601319 
L 45.723423 95.31153 
L 45.54421 94.240449 
L 45.605713 95.277423 
L 45.576333 95.487225 
L 45.724645 95.127352 
L 45.780061 94.937137 
L 45.148756 96.570182 
L 44.982657 97.294242 
L 45.210066 96.776384 
L 45.870022 95.654356 
L 45.870022 95.654356 
" style="fill:none;stroke:#000000;stroke-linecap:square;stroke-opacity:0.7;stroke-width:1.2;"/>
   </g>
   <g id="line2d_5">
    <path clip-path="url(#p9b63bb35eb)" d="M 45.836282 48.696331 
L 48.024684 44.555373 
L 48.325407 43.496097 
L 48.241743 43.110159 
L 48.085122 43.142975 
L 47.741478 43.536234 
L 47.320392 44.228601 
L 45.841707 47.310468 
L 44.636033 50.392028 
L 44.607442 50.605512 
L 44.711933 50.506884 
L 45.592696 49.206652 
L 46.16316 48.11002 
L 46.409712 47.333051 
L 46.644789 47.254819 
L 46.751135 47.437848 
L 46.67449 47.796793 
L 46.308813 48.41459 
L 45.893248 48.753176 
L 45.859948 48.757105 
L 45.859948 48.757105 
" style="fill:none;stroke:#000000;stroke-linecap:square;stroke-opacity:0.7;stroke-width:1.2;"/>
   </g>
   <g id="line2d_6">
    <path clip-path="url(#p9b63bb35eb)" d="M 202.134431 236.271014 
L 201.996289 237.264364 
L 201.701475 241.581215 
L 201.693271 241.802937 
L 201.689456 240.111946 
L 201.425035 238.85486 
L 201.232424 238.058687 
L 201.473432 237.335104 
L 202.70526 234.614195 
L 203.282669 233.922439 
L 203.967736 233.335243 
L 205.732168 232.262379 
L 206.463947 232.056374 
L 206.614287 232.176297 
L 206.469782 232.468405 
L 205.865443 233.172905 
L 204.260285 234.704764 
L 202.451957 236.140635 
L 202.152381 236.33569 
L 202.152381 236.33569 
" style="fill:none;stroke:#000000;stroke-linecap:square;stroke-opacity:0.7;stroke-width:1.2;"/>
   </g>
   <g id="line2d_7">
    <path clip-path="url(#p9b63bb35eb)" d="M 202.128 189.37106 
L 201.81531 189.925712 
L 200.340849 192.791917 
L 200.322601 192.792132 
L 200.393031 192.654702 
L 201.128313 191.751765 
L 203.857671 188.822641 
L 208.4571 183.91364 
L 208.374553 183.810826 
L 208.104827 183.857561 
L 207.201129 184.296033 
L 205.845429 185.196574 
L 204.104037 186.584311 
L 202.345536 188.272245 
L 201.8953 188.857029 
L 201.933586 188.862545 
L 202.281246 188.922892 
L 202.280061 188.950708 
L 202.148432 189.466419 
L 202.131927 189.452047 
" style="fill:none;stroke:#000000;stroke-linecap:square;stroke-opacity:0.7;stroke-width:1.2;"/>
   </g>
   <g id="line2d_8">
    <path clip-path="url(#p9b63bb35eb)" d="M 202.111123 142.460177 
L 201.599525 138.946844 
L 201.570136 138.909054 
L 201.967318 139.830351 
L 202.103947 140.325379 
L 201.947296 140.930682 
L 201.20577 144.806261 
L 201.442889 144.060469 
L 202.17095 142.541555 
L 202.17095 142.541555 
" style="fill:none;stroke:#000000;stroke-linecap:square;stroke-opacity:0.7;stroke-width:1.2;"/>
   </g>
   <g id="line2d_9">
    <path clip-path="url(#p9b63bb35eb)" d="M 202.117769 95.632805 
L 201.856233 96.655155 
L 200.795057 101.332587 
L 201.631066 98.10737 
L 202.597245 94.517319 
L 202.517045 94.38297 
L 202.487843 94.394891 
L 202.403501 94.59646 
L 202.243147 95.028608 
L 201.780199 95.230671 
L 201.805079 95.401601 
L 202.140615 95.72752 
L 202.134714 95.695821 
" style="fill:none;stroke:#000000;stroke-linecap:square;stroke-opacity:0.7;stroke-width:1.2;"/>
   </g>
   <g id="line2d_10">
    <path clip-path="url(#p9b63bb35eb)" d="M 202.11347 48.669633 
L 202.62445 46.729007 
L 202.926559 44.653536 
L 202.863759 43.583781 
L 202.750423 43.324189 
L 202.742569 43.542578 
L 203.0238 44.808273 
L 203.207149 45.914035 
L 202.305157 46.672116 
L 201.705908 47.604083 
L 201.44429 48.370858 
L 201.593556 48.457691 
L 202.489989 48.729192 
L 202.509646 48.775229 
L 202.423061 48.817851 
L 202.185607 48.799166 
L 202.155861 48.755265 
L 202.155861 48.755265 
" style="fill:none;stroke:#000000;stroke-linecap:square;stroke-opacity:0.7;stroke-width:1.2;"/>
   </g>
   <g id="line2d_11">
    <path clip-path="url(#p9b63bb35eb)" d="M 358.396604 236.220345 
L 358.192868 233.945308 
L 358.169664 234.049057 
L 358.076872 236.14709 
L 358.162772 236.112007 
L 358.848047 235.613993 
L 359.994259 234.292086 
L 361.477251 232.935744 
L 363.617196 231.355633 
L 364.164278 231.146718 
L 364.172914 231.165384 
L 364.075822 231.359802 
L 363.523674 231.987426 
L 361.549068 233.87472 
L 359.553941 235.543897 
L 358.44521 236.34683 
L 358.44521 236.34683 
" style="fill:none;stroke:#000000;stroke-linecap:square;stroke-opacity:0.7;stroke-width:1.2;"/>
   </g>
   <g id="line2d_12">
    <path clip-path="url(#p9b63bb35eb)" d="M 358.388788 189.387772 
L 358.175149 190.200798 
L 357.609006 193.30843 
L 357.723065 192.961588 
L 359.026009 188.66221 
L 359.163532 187.645461 
L 359.02776 187.642406 
L 358.744435 187.943046 
L 358.106082 189.007704 
L 358.402193 189.465102 
L 358.395293 189.433888 
" style="fill:none;stroke:#000000;stroke-linecap:square;stroke-opacity:0.7;stroke-width:1.2;"/>
   </g>
   <g id="line2d_13">
    <path clip-path="url(#p9b63bb35eb)" d="M 358.395546 142.444791 
L 360.027514 138.673843 
L 360.09328 137.877784 
L 359.949208 137.745477 
L 359.748474 137.904138 
L 359.338036 138.563262 
L 358.436678 140.570071 
L 357.68501 142.510472 
L 357.999154 141.971084 
L 358.688259 141.108381 
L 359.152183 141.069386 
L 359.313767 141.229418 
L 359.215386 141.554742 
L 358.765448 142.24699 
L 358.40866 142.504131 
L 358.40866 142.504131 
" style="fill:none;stroke:#000000;stroke-linecap:square;stroke-opacity:0.7;stroke-width:1.2;"/>
   </g>
   <g id="line2d_14">
    <path clip-path="url(#p9b63bb35eb)" d="M 358.3627 95.600842 
L 358.012999 95.990031 
L 357.020718 97.111846 
L 356.900534 97.120844 
L 356.907189 97.055469 
L 357.189321 96.663231 
L 358.486356 95.335464 
L 360.682351 93.116488 
L 360.653804 93.106207 
L 360.42027 93.216493 
L 359.945079 93.635813 
L 358.970161 94.828894 
L 358.016136 96.388418 
L 357.806438 96.789962 
L 358.399346 95.674788 
L 358.399346 95.674788 
" style="fill:none;stroke:#000000;stroke-linecap:square;stroke-opacity:0.7;stroke-width:1.2;"/>
   </g>
   <g id="line2d_15">
    <path clip-path="url(#p9b63bb35eb)" d="M 358.394898 48.706301 
L 358.11246 48.150487 
L 357.409733 46.554743 
L 357.471878 46.942244 
L 357.747013 47.777742 
L 358.201549 47.822774 
L 358.974877 46.922904 
L 359.381456 46.861581 
L 359.462318 47.023088 
L 359.327783 47.478221 
L 358.865573 48.299759 
L 358.403556 48.755494 
L 358.403556 48.755494 
" style="fill:none;stroke:#000000;stroke-linecap:square;stroke-opacity:0.7;stroke-width:1.2;"/>
   </g>
   <g id="line2d_16">
    <path clip-path="url(#p9b63bb35eb)" d="M 514.653584 236.313778 
L 514.536284 240.054082 
L 514.44382 244.899558 
L 514.404476 242.545972 
L 514.142865 240.407351 
L 513.788402 239.297832 
L 513.740139 238.888171 
L 513.906276 238.042905 
L 514.755243 235.333084 
L 514.930947 235.480192 
L 515.097799 235.881483 
L 514.941476 236.194563 
L 514.674686 236.361277 
L 514.663137 236.35379 
L 514.663137 236.35379 
" style="fill:none;stroke:#000000;stroke-linecap:square;stroke-opacity:0.7;stroke-width:1.2;"/>
   </g>
   <g id="line2d_17">
    <path clip-path="url(#p9b63bb35eb)" d="M 514.666736 189.375004 
L 514.276774 188.9202 
L 514.012421 188.344557 
L 514.180942 188.144349 
L 514.805019 187.772532 
L 516.769558 186.751131 
L 516.464967 187.025516 
L 515.661646 188.035132 
L 514.531992 189.835109 
L 514.359805 190.064322 
L 514.399558 189.842054 
L 514.510942 189.699473 
L 514.665827 189.480797 
L 514.672302 189.412576 
L 514.672302 189.412576 
" style="fill:none;stroke:#000000;stroke-linecap:square;stroke-opacity:0.7;stroke-width:1.2;"/>
   </g>
   <g id="line2d_18">
    <path clip-path="url(#p9b63bb35eb)" d="M 514.677704 142.492098 
L 514.873899 141.90072 
L 515.203654 140.762631 
L 515.177715 140.687125 
L 515.101376 140.805601 
L 514.644329 142.057119 
L 513.135302 146.384691 
L 514.421026 143.049476 
L 515.079416 141.166699 
L 515.262281 140.637559 
L 515.542446 140.342208 
L 516.033061 140.133334 
L 516.448112 140.192952 
L 516.600232 140.412718 
L 516.531426 140.727205 
L 516.147075 141.312406 
L 515.399924 142.062382 
L 514.662689 142.521444 
L 514.662689 142.521444 
" style="fill:none;stroke:#000000;stroke-linecap:square;stroke-opacity:0.7;stroke-width:1.2;"/>
   </g>
   <g id="line2d_19">
    <path clip-path="url(#p9b63bb35eb)" d="M 514.660394 95.596433 
L 514.170152 95.239971 
L 513.913921 94.78168 
L 514.204533 94.632805 
L 515.106554 94.23523 
L 515.532901 94.289962 
L 515.50209 94.45599 
L 514.971774 95.379411 
L 514.674142 95.654392 
L 514.674142 95.654392 
" style="fill:none;stroke:#000000;stroke-linecap:square;stroke-opacity:0.7;stroke-width:1.2;"/>
   </g>
   <g id="line2d_20">
    <path clip-path="url(#p9b63bb35eb)" d="M 514.634248 48.741172 
L 514.421167 49.255613 
L 513.957526 50.681388 
L 513.893958 50.608832 
L 513.826888 50.446954 
L 513.931819 49.816027 
L 514.48548 47.295819 
L 514.461151 47.301359 
L 514.412859 47.507939 
L 514.546649 48.226256 
L 514.72435 48.845814 
L 514.660938 48.814078 
" style="fill:none;stroke:#000000;stroke-linecap:square;stroke-opacity:0.7;stroke-width:1.2;"/>
   </g>
   <g id="line2d_21">
    <path clip-path="url(#p9b63bb35eb)" d="M 670.916316 236.239389 
L 671.170066 234.993025 
L 671.268879 233.801801 
L 671.207725 233.624361 
L 671.15035 233.681614 
L 670.92645 234.250971 
L 669.872226 237.523784 
L 670.605094 235.580238 
L 670.815961 236.802118 
L 670.846049 236.750843 
L 670.932426 236.330882 
L 670.929937 236.29335 
L 670.929937 236.29335 
" style="fill:none;stroke:#000000;stroke-linecap:square;stroke-opacity:0.7;stroke-width:1.2;"/>
   </g>
   <g id="line2d_22">
    <path clip-path="url(#p9b63bb35eb)" d="M 670.930682 189.356593 
L 670.602687 188.93868 
L 670.159165 188.042144 
L 670.228589 187.843253 
L 670.568954 187.751936 
L 670.992529 187.836584 
L 670.992365 187.839667 
L 670.865088 188.780205 
L 670.963193 188.74018 
L 674.942769 185.779989 
L 675.488927 185.542786 
L 675.426373 185.63961 
L 674.36083 186.628094 
L 671.811088 188.807529 
L 670.945988 189.43897 
L 670.945988 189.43897 
" style="fill:none;stroke:#000000;stroke-linecap:square;stroke-opacity:0.7;stroke-width:1.2;"/>
   </g>
   <g id="line2d_23">
    <path clip-path="url(#p9b63bb35eb)" d="M 670.915802 142.45521 
L 670.594058 138.958779 
L 670.493404 138.854631 
L 670.465506 138.886936 
L 670.408988 139.324684 
L 670.462459 141.598141 
L 670.794344 142.25539 
L 670.979839 142.580774 
L 670.949475 142.546805 
" style="fill:none;stroke:#000000;stroke-linecap:square;stroke-opacity:0.7;stroke-width:1.2;"/>
   </g>
   <g id="line2d_24">
    <path clip-path="url(#p9b63bb35eb)" d="M 670.933812 95.602608 
L 670.835834 95.719927 
L 670.645286 96.195285 
L 670.656195 95.874444 
L 670.734755 94.986714 
L 670.575459 94.872794 
L 670.383593 95.006287 
L 670.275101 95.381257 
L 670.308237 95.56977 
L 670.367565 95.538096 
L 671.560303 94.610685 
L 672.003028 94.459714 
L 672.006046 94.491191 
L 671.826385 94.805448 
L 671.169522 95.539387 
L 670.949751 95.650755 
L 670.949751 95.650755 
" style="fill:none;stroke:#000000;stroke-linecap:square;stroke-opacity:0.7;stroke-width:1.2;"/>
   </g>
   <g id="line2d_25">
    <path clip-path="url(#p9b63bb35eb)" d="M 670.917955 48.718987 
L 670.292224 48.157422 
L 669.879052 47.503357 
L 669.925392 47.265979 
L 670.186437 47.165443 
L 670.862852 47.176872 
L 671.104777 47.341211 
L 670.974944 48.374379 
L 670.963931 48.501662 
L 671.089457 48.172927 
L 671.477928 47.691302 
L 671.542204 47.681842 
L 671.527078 47.790621 
L 671.207606 48.518394 
L 670.932635 48.777775 
L 670.932635 48.777775 
" style="fill:none;stroke:#000000;stroke-linecap:square;stroke-opacity:0.7;stroke-width:1.2;"/>
   </g>
  </g>
 </g>
 <defs>
  <clipPath id="p9b63bb35eb">
   <rect height="262.08" width="694.08" x="12.96" y="12.96"/>
  </clipPath>
 </defs>
</svg>
