<?xml version="1.0" encoding="utf-8" standalone="no"?>
<!DOCTYPE svg PUBLIC "-//W3C//DTD SVG 1.1//EN"
  "http://www.w3.org/Graphics/SVG/1.1/DTD/svg11.dtd">
<!-- Created with matplotlib (https://matplotlib.org/) -->
<svg height="288pt" version="1.1" viewBox="0 0 720 288" width="720pt" xmlns="http://www.w3.org/2000/svg" xmlns:xlink="http://www.w3.org/1999/xlink">
 <metadata>
  <rdf:RDF xmlns:cc="http://creativecommons.org/ns#" xmlns:dc="http://purl.org/dc/elements/1.1/" xmlns:rdf="http://www.w3.org/1999/02/22-rdf-syntax-ns#">
   <cc:Work>
    <dc:type rdf:resource="http://purl.org/dc/dcmitype/StillImage"/>
    <dc:date>2020-12-22T18:23:14.029740</dc:date>
    <dc:format>image/svg+xml</dc:format>
    <dc:creator>
     <cc:Agent>
      <dc:title>Matplotlib v3.3.2, https://matplotlib.org/</dc:title>
     </cc:Agent>
    </dc:creator>
   </cc:Work>
  </rdf:RDF>
 </metadata>
 <defs>
  <style type="text/css">*{stroke-linecap:butt;stroke-linejoin:round;}</style>
 </defs>
 <g id="figure_1">
  <g id="patch_1">
   <path d="M 0 288 
L 720 288 
L 720 0 
L 0 0 
z
" style="fill:#ffffff;"/>
  </g>
  <g id="axes_1">
   <g id="line2d_1">
    <path clip-path="url(#p20c7d26281)" d="M 45.029204 239.951053 
L 45.024149 239.526812 
L 45.267873 238.448024 
L 45.538945 238.079434 
L 45.6081 238.161494 
L 45.597022 238.71176 
L 45.204958 240.867441 
L 44.68516 243.108939 
L 44.691858 242.754313 
L 44.969522 240.057261 
L 45.253562 238.963161 
L 45.298836 238.993355 
L 45.307214 239.057301 
L 45.19595 239.747445 
L 44.816188 240.854593 
L 44.802469 240.829725 
L 44.836147 240.382202 
L 44.963619 239.980046 
L 44.963619 239.980046 
" style="fill:none;stroke:#000000;stroke-linecap:square;stroke-opacity:0.7;stroke-width:1.2;"/>
   </g>
   <g id="line2d_2">
    <path clip-path="url(#p20c7d26281)" d="M 45.029767 192.735351 
L 44.583752 189.740931 
L 45.305091 189.561476 
L 46.740412 189.024741 
L 46.739099 189.109955 
L 46.471538 189.698204 
L 45.110083 192.150653 
L 45.076518 192.085575 
L 44.902692 191.194148 
L 44.924999 191.872824 
L 44.963814 192.756086 
L 44.964294 192.755449 
" style="fill:none;stroke:#000000;stroke-linecap:square;stroke-opacity:0.7;stroke-width:1.2;"/>
   </g>
   <g id="line2d_3">
    <path clip-path="url(#p20c7d26281)" d="M 45.016918 145.577493 
L 45.047566 146.358541 
L 45.335724 147.845537 
L 45.547758 148.222067 
L 44.869682 146.231459 
L 45.039945 145.307093 
L 45.35716 144.19737 
L 45.349337 144.195888 
L 45.282664 144.307021 
L 44.950981 145.615705 
L 44.953231 145.613309 
" style="fill:none;stroke:#000000;stroke-linecap:square;stroke-opacity:0.7;stroke-width:1.2;"/>
   </g>
   <g id="line2d_4">
    <path clip-path="url(#p20c7d26281)" d="M 45.022656 98.380235 
L 44.962802 98.097984 
L 45.119887 97.606017 
L 45.330091 97.526829 
L 45.391948 97.709769 
L 45.26068 98.275613 
L 44.608586 99.940932 
L 44.603471 99.938228 
L 44.571931 99.759448 
L 44.552054 97.850176 
L 44.711202 96.824778 
L 44.726871 96.826942 
L 44.745457 96.915603 
L 44.951693 98.425865 
L 44.960942 98.408573 
" style="fill:none;stroke:#000000;stroke-linecap:square;stroke-opacity:0.7;stroke-width:1.2;"/>
   </g>
   <g id="line2d_5">
    <path clip-path="url(#p20c7d26281)" d="M 45.021261 51.17712 
L 44.973505 51.329142 
L 45.244276 51.536312 
L 45.355915 51.801079 
L 45.31812 52.40092 
L 44.969177 54.063497 
L 44.626648 55.174869 
L 44.603951 55.102734 
L 44.588387 53.970482 
L 44.741339 50.273932 
L 44.972327 49.12714 
L 45.292835 48.502784 
L 45.311459 48.519146 
L 45.355818 48.837378 
L 45.263283 49.778863 
L 44.946225 51.216288 
L 44.946225 51.216288 
" style="fill:none;stroke:#000000;stroke-linecap:square;stroke-opacity:0.7;stroke-width:1.2;"/>
   </g>
   <g id="line2d_6">
    <path clip-path="url(#p20c7d26281)" d="M 202.325698 239.948799 
L 202.307944 240.107841 
L 202.578003 240.592518 
L 202.782911 240.905724 
L 202.498872 240.325625 
L 202.071795 239.034885 
L 202.159695 238.971869 
L 202.182827 239.042671 
L 202.160917 240.144395 
L 202.256813 239.977001 
" style="fill:none;stroke:#000000;stroke-linecap:square;stroke-opacity:0.7;stroke-width:1.2;"/>
   </g>
   <g id="line2d_7">
    <path clip-path="url(#p20c7d26281)" d="M 202.325105 192.769621 
L 202.563894 196.054001 
L 202.805556 197.266355 
L 202.923743 197.315666 
L 202.949207 197.290672 
L 203.016652 197.021849 
L 202.942322 196.346079 
L 202.29235 193.287938 
L 202.383798 192.403465 
L 202.461826 191.844221 
L 202.380077 191.589043 
L 202.347202 191.820129 
L 202.249709 192.78646 
L 202.249709 192.78646 
" style="fill:none;stroke:#000000;stroke-linecap:square;stroke-opacity:0.7;stroke-width:1.2;"/>
   </g>
   <g id="line2d_8">
    <path clip-path="url(#p20c7d26281)" d="M 202.327798 145.551249 
L 202.144274 144.929814 
L 201.982006 143.493507 
L 202.038118 143.243624 
L 202.090914 143.274343 
L 202.144574 143.523697 
L 202.137163 144.128777 
L 202.248479 143.603627 
L 202.341652 143.138459 
L 202.393931 143.341683 
L 202.384473 144.395584 
L 202.2534 145.566599 
L 202.2534 145.566599 
" style="fill:none;stroke:#000000;stroke-linecap:square;stroke-opacity:0.7;stroke-width:1.2;"/>
   </g>
   <g id="line2d_9">
    <path clip-path="url(#p20c7d26281)" d="M 202.306136 98.364252 
L 202.323118 97.214362 
L 202.574553 95.527026 
L 202.63698 95.388613 
L 202.576015 95.880746 
L 202.081786 98.757932 
L 202.287175 97.925872 
L 202.397966 97.840572 
L 202.428876 97.870424 
L 202.527644 98.211881 
L 202.637453 99.564628 
L 202.694712 102.884933 
L 202.567149 109.817659 
L 202.403224 112.062173 
L 202.372269 111.863835 
L 202.341187 109.703006 
L 202.262123 98.415642 
L 202.262123 98.415642 
" style="fill:none;stroke:#000000;stroke-linecap:square;stroke-opacity:0.7;stroke-width:1.2;"/>
   </g>
   <g id="line2d_10">
    <path clip-path="url(#p20c7d26281)" d="M 202.347442 51.181627 
L 201.842367 49.862378 
L 201.201817 48.144229 
L 201.546874 47.750774 
L 202.750554 46.761113 
L 205.078415 45.132918 
L 205.528548 44.895172 
L 205.473111 45.004602 
L 202.152937 49.649504 
L 202.243499 49.234241 
L 202.47382 48.675369 
L 202.496966 48.696355 
L 202.551773 48.996263 
L 202.51109 49.836636 
L 202.255215 51.180525 
L 202.255215 51.180525 
" style="fill:none;stroke:#000000;stroke-linecap:square;stroke-opacity:0.7;stroke-width:1.2;"/>
   </g>
   <g id="line2d_11">
    <path clip-path="url(#p20c7d26281)" d="M 359.630577 239.940826 
L 359.654054 239.610331 
L 359.945114 239.102406 
L 360.187114 239.01613 
L 360.318494 239.197536 
L 360.324697 239.581109 
L 360.165294 240.150595 
L 359.729322 240.899315 
L 359.680704 240.746948 
L 359.551911 239.157981 
L 359.63429 238.198052 
L 359.72894 237.482582 
L 359.749124 238.181352 
L 359.553644 239.954979 
L 359.553644 239.954979 
" style="fill:none;stroke:#000000;stroke-linecap:square;stroke-opacity:0.7;stroke-width:1.2;"/>
   </g>
   <g id="line2d_12">
    <path clip-path="url(#p20c7d26281)" d="M 359.617271 192.746819 
L 359.546691 192.882831 
L 359.685136 193.168131 
L 359.862398 193.332473 
L 359.818039 193.15745 
L 359.446183 192.074912 
L 359.331251 192.130552 
L 359.305584 192.271585 
L 359.367486 192.841259 
L 359.291925 194.467522 
L 359.285925 194.470181 
L 359.261436 194.349602 
L 359.322265 193.584365 
L 359.550133 192.786985 
L 359.550133 192.786985 
" style="fill:none;stroke:#000000;stroke-linecap:square;stroke-opacity:0.7;stroke-width:1.2;"/>
   </g>
   <g id="line2d_13">
    <path clip-path="url(#p20c7d26281)" d="M 359.63663 145.548702 
L 359.262208 144.394474 
L 359.292293 144.117597 
L 360.319056 141.933522 
L 360.910846 140.970964 
L 360.840693 141.194965 
L 359.170663 145.037541 
L 359.892505 143.69741 
L 360.061261 143.573587 
L 360.084025 143.617941 
L 360.064749 143.986029 
L 359.802633 144.953714 
L 359.565127 145.571804 
L 359.565127 145.571804 
" style="fill:none;stroke:#000000;stroke-linecap:square;stroke-opacity:0.7;stroke-width:1.2;"/>
   </g>
   <g id="line2d_14">
    <path clip-path="url(#p20c7d26281)" d="M 359.601115 98.33114 
L 360.138465 95.42306 
L 360.484227 94.228276 
L 360.49154 94.333981 
L 360.30467 95.127379 
L 359.589706 97.58275 
L 359.502107 97.490002 
L 359.454703 97.459002 
L 359.460704 97.57978 
L 359.395291 98.665213 
L 359.304841 99.500914 
L 359.528329 98.423139 
L 359.553156 98.367454 
L 359.553156 98.367454 
" style="fill:none;stroke:#000000;stroke-linecap:square;stroke-opacity:0.7;stroke-width:1.2;"/>
   </g>
   <g id="line2d_15">
    <path clip-path="url(#p20c7d26281)" d="M 359.620099 51.194742 
L 359.469382 50.707924 
L 359.402687 49.611015 
L 359.491344 49.308418 
L 359.169913 52.581692 
L 359.523739 49.492082 
L 359.532732 49.533586 
L 359.527114 49.579194 
L 359.516358 50.410574 
L 359.546998 51.222048 
L 359.552346 51.214844 
" style="fill:none;stroke:#000000;stroke-linecap:square;stroke-opacity:0.7;stroke-width:1.2;"/>
   </g>
   <g id="line2d_16">
    <path clip-path="url(#p20c7d26281)" d="M 516.915467 239.938122 
L 516.807549 239.901538 
L 517.050365 239.989913 
L 517.01407 240.058952 
L 516.800258 240.161853 
L 516.794108 240.133182 
L 516.841114 238.50567 
L 516.753852 238.629066 
L 516.696165 239.06674 
L 516.840056 239.986343 
L 516.85064 239.976322 
" style="fill:none;stroke:#000000;stroke-linecap:square;stroke-opacity:0.7;stroke-width:1.2;"/>
   </g>
   <g id="line2d_17">
    <path clip-path="url(#p20c7d26281)" d="M 516.919248 192.746332 
L 516.669973 192.845024 
L 516.612983 192.98305 
L 516.770376 192.627282 
L 517.594623 190.032618 
L 517.781275 189.769677 
L 517.784261 189.884087 
L 517.521995 190.813238 
L 517.076842 192.59785 
L 516.700763 195.687445 
L 516.541818 196.199145 
L 516.502125 196.103895 
L 516.501727 195.305646 
L 516.713634 193.469171 
L 516.844219 192.791133 
L 516.844219 192.791133 
" style="fill:none;stroke:#000000;stroke-linecap:square;stroke-opacity:0.7;stroke-width:1.2;"/>
   </g>
   <g id="line2d_18">
    <path clip-path="url(#p20c7d26281)" d="M 516.92188 145.542154 
L 517.027571 143.657923 
L 517.027796 141.251707 
L 517.155501 142.702142 
L 517.42058 143.244611 
L 517.436346 143.4927 
L 517.144535 144.226374 
L 516.885922 144.806136 
L 517.034727 144.243588 
L 517.233185 142.939322 
L 516.861305 145.554335 
L 516.861305 145.554335 
" style="fill:none;stroke:#000000;stroke-linecap:square;stroke-opacity:0.7;stroke-width:1.2;"/>
   </g>
   <g id="line2d_19">
    <path clip-path="url(#p20c7d26281)" d="M 516.928713 98.397832 
L 516.706223 101.606748 
L 516.499034 104.415348 
L 516.708706 100.388931 
L 516.856955 97.060758 
L 516.817517 99.758968 
L 516.92017 103.927285 
L 516.871041 111.30551 
L 516.835218 111.740887 
L 516.816422 110.182313 
L 516.840896 98.414832 
L 516.840896 98.414832 
" style="fill:none;stroke:#000000;stroke-linecap:square;stroke-opacity:0.7;stroke-width:1.2;"/>
   </g>
   <g id="line2d_20">
    <path clip-path="url(#p20c7d26281)" d="M 516.9133 51.208941 
L 516.98013 52.401224 
L 517.325292 54.374084 
L 517.615055 55.570021 
L 517.258994 56.383533 
L 516.960981 56.733526 
L 516.94619 56.715069 
L 516.887423 56.37625 
L 516.731425 53.356461 
L 516.772873 51.310979 
L 516.814772 51.227145 
L 516.854172 51.351838 
L 516.877619 52.512592 
L 516.686639 55.568637 
L 516.492231 56.947555 
L 516.465319 56.751027 
L 516.50205 55.244454 
L 516.800948 51.478617 
L 516.8296 51.23028 
L 516.8296 51.23028 
" style="fill:none;stroke:#000000;stroke-linecap:square;stroke-opacity:0.7;stroke-width:1.2;"/>
   </g>
   <g id="line2d_21">
    <path clip-path="url(#p20c7d26281)" d="M 674.210078 239.888659 
L 674.52034 237.520021 
L 674.759024 233.124153 
L 674.706265 232.914564 
L 674.64218 233.009379 
L 674.409916 233.759787 
L 673.892608 236.189634 
L 673.719937 238.056441 
L 673.747824 239.432683 
L 673.557339 241.370761 
L 674.002792 241.566661 
L 674.175238 241.758613 
L 674.11089 241.540278 
L 674.003849 240.851007 
L 674.080903 240.115023 
L 674.147298 239.919685 
L 674.147298 239.919685 
" style="fill:none;stroke:#000000;stroke-linecap:square;stroke-opacity:0.7;stroke-width:1.2;"/>
   </g>
   <g id="line2d_22">
    <path clip-path="url(#p20c7d26281)" d="M 674.220819 192.738389 
L 674.164827 192.196137 
L 674.276128 190.722848 
L 674.465983 190.306854 
L 674.475959 190.311602 
L 674.517122 190.470888 
L 674.436513 191.136765 
L 674.019736 192.902014 
L 674.005417 192.821214 
L 674.01084 191.464064 
L 674.218359 190.575713 
L 674.700932 189.230969 
L 674.805873 189.179902 
L 674.8361 189.223353 
L 674.885229 189.641256 
L 674.764064 190.71057 
L 674.393648 192.164916 
L 674.161272 192.748897 
L 674.161272 192.748897 
" style="fill:none;stroke:#000000;stroke-linecap:square;stroke-opacity:0.7;stroke-width:1.2;"/>
   </g>
   <g id="line2d_23">
    <path clip-path="url(#p20c7d26281)" d="M 674.206643 145.515917 
L 674.775135 143.16542 
L 675.485974 138.8805 
L 675.47281 138.875722 
L 675.420291 138.975308 
L 675.124715 140.013506 
L 674.90134 141.546451 
L 675.006146 142.157276 
L 675.060818 142.558697 
L 674.857994 143.500283 
L 674.288954 145.986703 
L 674.085966 147.317091 
L 673.94902 147.684965 
L 673.918538 147.538054 
L 673.993281 146.465894 
L 674.165172 145.542968 
L 674.165172 145.542968 
" style="fill:none;stroke:#000000;stroke-linecap:square;stroke-opacity:0.7;stroke-width:1.2;"/>
   </g>
   <g id="line2d_24">
    <path clip-path="url(#p20c7d26281)" d="M 674.208991 98.359568 
L 674.084908 98.072505 
L 674.085853 97.358512 
L 674.291902 96.833145 
L 674.323742 96.892489 
L 674.353759 99.171383 
L 674.129289 100.9075 
L 673.950925 101.432984 
L 673.912417 101.389102 
L 673.841604 100.951888 
L 673.880682 99.706006 
L 674.13565 98.393695 
L 674.13565 98.393695 
" style="fill:none;stroke:#000000;stroke-linecap:square;stroke-opacity:0.7;stroke-width:1.2;"/>
   </g>
   <g id="line2d_25">
    <path clip-path="url(#p20c7d26281)" d="M 674.216506 51.190793 
L 674.197957 51.646072 
L 674.42473 52.784215 
L 674.669864 53.261534 
L 674.680838 53.204912 
L 674.525733 52.56774 
L 673.983305 50.39075 
L 674.128472 49.821001 
L 674.45015 48.962701 
L 674.547725 48.582894 
L 674.544244 49.001029 
L 674.268305 50.664162 
L 674.147613 51.209076 
L 674.147613 51.209076 
" style="fill:none;stroke:#000000;stroke-linecap:square;stroke-opacity:0.7;stroke-width:1.2;"/>
   </g>
  </g>
 </g>
 <defs>
  <clipPath id="p20c7d26281">
   <rect height="262.08" width="694.08" x="12.96" y="12.96"/>
  </clipPath>
 </defs>
</svg>
