<?xml version="1.0" encoding="utf-8" standalone="no"?>
<!DOCTYPE svg PUBLIC "-//W3C//DTD SVG 1.1//EN"
  "http://www.w3.org/Graphics/SVG/1.1/DTD/svg11.dtd">
<!-- Created with matplotlib (https://matplotlib.org/) -->
<svg height="288pt" version="1.1" viewBox="0 0 720 288" width="720pt" xmlns="http://www.w3.org/2000/svg" xmlns:xlink="http://www.w3.org/1999/xlink">
 <metadata>
  <rdf:RDF xmlns:cc="http://creativecommons.org/ns#" xmlns:dc="http://purl.org/dc/elements/1.1/" xmlns:rdf="http://www.w3.org/1999/02/22-rdf-syntax-ns#">
   <cc:Work>
    <dc:type rdf:resource="http://purl.org/dc/dcmitype/StillImage"/>
    <dc:date>2020-12-22T16:06:43.816430</dc:date>
    <dc:format>image/svg+xml</dc:format>
    <dc:creator>
     <cc:Agent>
      <dc:title>Matplotlib v3.3.2, https://matplotlib.org/</dc:title>
     </cc:Agent>
    </dc:creator>
   </cc:Work>
  </rdf:RDF>
 </metadata>
 <defs>
  <style type="text/css">*{stroke-linecap:butt;stroke-linejoin:round;}</style>
 </defs>
 <g id="figure_1">
  <g id="patch_1">
   <path d="M 0 288 
L 720 288 
L 720 0 
L 0 0 
z
" style="fill:#ffffff;"/>
  </g>
  <g id="axes_1">
   <g id="line2d_1">
    <path clip-path="url(#pe2993fa26d)" d="M 45.237869 238.417475 
L 46.933075 233.354523 
L 47.300742 232.209484 
L 47.124162 232.496558 
L 46.545368 233.865008 
L 46.488933 234.415212 
L 46.631448 234.588504 
L 46.982725 234.578658 
L 47.666503 234.275149 
L 49.273449 233.406116 
L 49.29329 233.460723 
L 49.167685 233.885269 
L 48.328016 235.548272 
L 45.596437 240.613974 
L 45.526738 240.565509 
L 45.227945 240.167345 
L 45.091954 239.651634 
L 45.140816 239.070301 
L 45.304801 238.503624 
L 45.304801 238.503624 
" style="fill:none;stroke:#000000;stroke-linecap:square;stroke-opacity:0.7;stroke-width:1.2;"/>
   </g>
   <g id="line2d_2">
    <path clip-path="url(#pe2993fa26d)" d="M 45.239722 191.630908 
L 46.894577 186.047333 
L 46.694013 186.833393 
L 44.994827 194.312079 
L 44.691711 194.798715 
L 44.640454 194.679671 
L 44.78721 193.644375 
L 45.105881 192.177446 
L 45.411734 191.935899 
L 45.919341 191.608375 
L 45.987552 191.327611 
L 45.812795 191.164265 
L 45.60166 191.238914 
L 45.349697 191.628647 
L 45.28188 191.789637 
L 45.293225 191.764677 
" style="fill:none;stroke:#000000;stroke-linecap:square;stroke-opacity:0.7;stroke-width:1.2;"/>
   </g>
   <g id="line2d_3">
    <path clip-path="url(#pe2993fa26d)" d="M 45.238078 144.924491 
L 45.137929 144.976815 
L 44.986896 145.513023 
L 44.929695 146.328818 
L 45.150383 146.876447 
L 45.4331 147.087813 
L 45.539824 146.907267 
L 45.752522 146.701294 
L 46.053673 146.318865 
L 46.255829 145.619033 
L 46.307599 144.854735 
L 45.928365 144.460625 
L 45.644971 144.414643 
L 45.411079 144.619211 
L 45.248307 145.048321 
L 45.266823 145.027975 
" style="fill:none;stroke:#000000;stroke-linecap:square;stroke-opacity:0.7;stroke-width:1.2;"/>
   </g>
   <g id="line2d_4">
    <path clip-path="url(#pe2993fa26d)" d="M 45.230899 98.020094 
L 46.930606 93.100323 
L 47.931239 90.798533 
L 48.238543 90.408445 
L 48.251904 90.425131 
L 48.245737 90.764476 
L 47.952903 92.199755 
L 46.869372 96.442186 
L 45.772414 99.922871 
L 45.169018 101.177719 
L 44.890379 101.361112 
L 44.773477 101.22454 
L 44.659975 100.612881 
L 44.52731 98.621307 
L 44.572831 98.661554 
L 44.932865 99.380187 
L 45.063841 99.8299 
L 44.891569 99.026454 
L 45.131242 98.41824 
L 45.285198 98.140804 
L 45.285198 98.140804 
" style="fill:none;stroke:#000000;stroke-linecap:square;stroke-opacity:0.7;stroke-width:1.2;"/>
   </g>
   <g id="line2d_5">
    <path clip-path="url(#pe2993fa26d)" d="M 45.26349 51.323254 
L 45.284417 51.658606 
L 45.66688 53.375725 
L 46.109289 55.517602 
L 45.734742 54.069679 
L 45.331746 53.441722 
L 45.216548 53.167349 
L 45.338062 52.422551 
L 45.616196 51.6501 
L 46.225224 50.91044 
L 46.906792 49.938296 
L 47.203279 49.168406 
L 47.15194 49.01916 
L 47.120048 49.025084 
L 46.87179 49.250735 
L 46.001732 50.479452 
L 45.281858 51.413246 
L 45.281858 51.413246 
" style="fill:none;stroke:#000000;stroke-linecap:square;stroke-opacity:0.7;stroke-width:1.2;"/>
   </g>
   <g id="line2d_6">
    <path clip-path="url(#pe2993fa26d)" d="M 201.273446 238.506061 
L 201.232254 238.569469 
L 201.228192 238.607366 
L 201.329241 239.408782 
L 201.744094 240.870007 
L 201.979861 241.181381 
L 202.096793 241.12455 
L 202.211857 240.790735 
L 202.260294 239.728626 
L 202.185603 238.782231 
L 202.149969 239.390328 
L 201.922303 240.360622 
L 201.585838 240.915341 
L 201.226764 241.28376 
L 201.330468 241.062213 
L 201.236041 240.527901 
L 200.974154 239.484518 
L 201.148182 238.940917 
L 201.316043 238.5993 
L 201.316043 238.5993 
" style="fill:none;stroke:#000000;stroke-linecap:square;stroke-opacity:0.7;stroke-width:1.2;"/>
   </g>
   <g id="line2d_7">
    <path clip-path="url(#pe2993fa26d)" d="M 201.253925 191.696642 
L 201.271623 191.614694 
L 201.352511 191.677872 
L 201.58435 192.118853 
L 201.66927 192.968757 
L 201.648492 194.206474 
L 201.418044 195.113635 
L 200.998749 195.68015 
L 200.638313 195.819134 
L 200.394884 195.693976 
L 200.235593 195.356189 
L 200.06498 194.34761 
L 199.94043 192.071522 
L 200.091694 191.910699 
L 200.68527 191.84515 
L 201.086079 191.509526 
L 201.220619 191.2394 
L 201.236361 191.435366 
L 201.268074 191.790158 
L 201.278207 191.779691 
" style="fill:none;stroke:#000000;stroke-linecap:square;stroke-opacity:0.7;stroke-width:1.2;"/>
   </g>
   <g id="line2d_8">
    <path clip-path="url(#pe2993fa26d)" d="M 201.247051 144.872161 
L 201.007564 144.650681 
L 200.752113 144.691897 
L 200.565706 144.934573 
L 200.56767 145.369449 
L 200.743624 145.728184 
L 200.758875 145.711163 
L 200.795372 145.327558 
L 200.921476 145.477 
L 201.088712 146.000704 
L 201.019809 146.436874 
L 200.782182 146.697221 
L 201.078215 146.16639 
L 201.065769 145.520973 
L 200.9097 145.067659 
L 201.069675 145.098857 
L 201.275439 144.988481 
L 201.275439 144.988481 
" style="fill:none;stroke:#000000;stroke-linecap:square;stroke-opacity:0.7;stroke-width:1.2;"/>
   </g>
   <g id="line2d_9">
    <path clip-path="url(#pe2993fa26d)" d="M 201.231793 98.060295 
L 201.119905 94.588695 
L 201.206633 93.769992 
L 201.226422 93.784589 
L 201.368096 94.224473 
L 201.696022 96.094989 
L 202.084228 99.565667 
L 202.187039 102.343767 
L 202.15104 102.54548 
L 202.134436 101.656832 
L 202.078418 99.489348 
L 202.038759 99.283966 
L 203.122229 107.043436 
L 203.111635 107.03996 
L 202.981671 106.791688 
L 202.523297 105.203928 
L 201.867111 102.121329 
L 201.271779 98.377174 
L 201.26216 98.193537 
L 201.26216 98.193537 
" style="fill:none;stroke:#000000;stroke-linecap:square;stroke-opacity:0.7;stroke-width:1.2;"/>
   </g>
   <g id="line2d_10">
    <path clip-path="url(#pe2993fa26d)" d="M 201.242305 51.231244 
L 201.000891 50.4819 
L 200.629223 50.106011 
L 200.173326 49.973962 
L 199.616931 50.004356 
L 199.0415 50.114785 
L 199.102941 50.015146 
L 200.160977 49.029621 
L 201.885285 47.619574 
L 202.433258 47.393903 
L 202.681293 47.505805 
L 202.796513 47.748312 
L 202.872201 48.636258 
L 202.722745 50.269006 
L 202.322792 52.212819 
L 201.867297 53.484639 
L 201.466868 54.064411 
L 201.236004 54.093798 
L 201.110681 53.755125 
L 200.839874 52.14547 
L 201.276302 51.311038 
L 201.276302 51.311038 
" style="fill:none;stroke:#000000;stroke-linecap:square;stroke-opacity:0.7;stroke-width:1.2;"/>
   </g>
   <g id="line2d_11">
    <path clip-path="url(#pe2993fa26d)" d="M 357.290431 238.427505 
L 357.376973 235.880413 
L 357.237798 235.260696 
L 357.171045 235.433495 
L 357.190476 236.215516 
L 357.470314 238.155844 
L 357.725587 238.632709 
L 358.65696 239.619418 
L 358.650972 239.714993 
L 358.695035 239.645502 
L 359.39602 238.379356 
L 359.782716 237.181795 
L 359.817086 236.443246 
L 359.646309 236.152837 
L 359.414774 236.167059 
L 359.00274 236.482394 
L 358.252083 237.397905 
L 357.350154 238.541514 
L 357.350154 238.541514 
" style="fill:none;stroke:#000000;stroke-linecap:square;stroke-opacity:0.7;stroke-width:1.2;"/>
   </g>
   <g id="line2d_12">
    <path clip-path="url(#pe2993fa26d)" d="M 357.259335 191.739054 
L 357.325321 192.110185 
L 357.845643 193.769354 
L 358.439561 195.702767 
L 358.26775 195.848269 
L 357.913579 195.772534 
L 357.548642 195.467653 
L 357.187478 194.816901 
L 356.599593 193.178012 
L 356.35966 192.299987 
L 356.45623 192.371964 
L 356.84669 192.66656 
L 356.86386 192.634702 
L 357.024989 192.079212 
L 357.27065 191.834405 
L 357.27065 191.834405 
" style="fill:none;stroke:#000000;stroke-linecap:square;stroke-opacity:0.7;stroke-width:1.2;"/>
   </g>
   <g id="line2d_13">
    <path clip-path="url(#pe2993fa26d)" d="M 357.278528 144.858692 
L 356.978262 142.97323 
L 356.944666 143.097763 
L 356.973047 144.598673 
L 356.847464 146.116241 
L 356.569375 146.96222 
L 356.202623 147.425636 
L 355.882881 147.548185 
L 355.747872 147.437305 
L 355.70561 147.061145 
L 355.890276 145.352584 
L 356.006783 145.409862 
L 356.623585 145.907399 
L 356.878434 145.844981 
L 356.961434 145.53035 
L 357.094606 145.214341 
L 357.295958 144.98398 
L 357.295958 144.98398 
" style="fill:none;stroke:#000000;stroke-linecap:square;stroke-opacity:0.7;stroke-width:1.2;"/>
   </g>
   <g id="line2d_14">
    <path clip-path="url(#pe2993fa26d)" d="M 357.236608 98.16746 
L 357.461521 99.228012 
L 358.172363 102.460881 
L 358.090999 103.011372 
L 357.907679 103.017761 
L 357.510442 102.767174 
L 357.368789 102.407184 
L 357.371252 101.622238 
L 357.674025 99.517584 
L 357.851103 98.304992 
L 357.732862 98.549927 
L 357.518074 98.611509 
L 357.077532 98.342164 
L 357.115071 98.348143 
L 357.257877 98.236253 
L 357.257877 98.236253 
" style="fill:none;stroke:#000000;stroke-linecap:square;stroke-opacity:0.7;stroke-width:1.2;"/>
   </g>
   <g id="line2d_15">
    <path clip-path="url(#pe2993fa26d)" d="M 357.253041 51.311561 
L 357.222822 51.268951 
L 357.273923 51.607397 
L 357.590965 52.227792 
L 359.741837 55.581562 
L 359.811566 55.898751 
L 359.81928 55.462996 
L 359.901247 53.283205 
L 359.723618 52.122264 
L 359.495365 51.821108 
L 359.313674 51.883479 
L 359.011838 52.248239 
L 358.312423 53.143983 
L 357.884654 53.376741 
L 357.564198 53.291607 
L 357.286176 52.953273 
L 357.124296 52.405957 
L 357.158338 51.816558 
L 357.29029 51.391489 
L 357.29029 51.391489 
" style="fill:none;stroke:#000000;stroke-linecap:square;stroke-opacity:0.7;stroke-width:1.2;"/>
   </g>
   <g id="line2d_16">
    <path clip-path="url(#pe2993fa26d)" d="M 513.296525 238.42724 
L 514.794664 232.767493 
L 514.919295 232.366819 
L 514.725262 233.348523 
L 514.154949 237.111735 
L 513.602482 240.249854 
L 513.357044 240.731051 
L 513.220324 240.668588 
L 513.106391 240.306743 
L 513.092569 239.461814 
L 513.29384 238.925499 
L 513.726444 238.539671 
L 514.35436 237.981658 
L 514.378783 237.681422 
L 514.214642 237.588721 
L 513.960314 237.737817 
L 513.553732 238.291704 
L 513.34933 238.559552 
L 513.349203 238.552185 
" style="fill:none;stroke:#000000;stroke-linecap:square;stroke-opacity:0.7;stroke-width:1.2;"/>
   </g>
   <g id="line2d_17">
    <path clip-path="url(#pe2993fa26d)" d="M 513.291519 191.70837 
L 513.205029 191.744274 
L 513.013957 192.191524 
L 512.37515 193.858074 
L 513.304523 191.644574 
L 513.498436 191.587545 
L 513.701462 191.839402 
L 513.838517 192.258253 
L 513.970744 192.152737 
L 514.167477 191.86067 
L 514.141171 191.524501 
L 513.866169 191.119135 
L 513.611365 191.082861 
L 513.403324 191.310695 
L 513.283291 191.808468 
L 513.299523 191.829595 
L 513.318151 191.811614 
" style="fill:none;stroke:#000000;stroke-linecap:square;stroke-opacity:0.7;stroke-width:1.2;"/>
   </g>
   <g id="line2d_18">
    <path clip-path="url(#pe2993fa26d)" d="M 513.27022 144.865285 
L 514.027164 141.323032 
L 514.594159 139.599475 
L 514.839508 139.332047 
L 514.942364 139.549781 
L 515.061832 140.507097 
L 515.191157 143.95859 
L 515.141968 148.060356 
L 514.917219 150.070044 
L 514.732359 150.340785 
L 514.575055 150.204228 
L 514.33103 149.616511 
L 513.752481 147.429269 
L 513.425025 146.200216 
L 515.95223 156.525491 
L 515.788661 156.163498 
L 515.185496 153.981123 
L 514.173078 149.48992 
L 513.331364 145.018851 
L 513.331364 145.018851 
" style="fill:none;stroke:#000000;stroke-linecap:square;stroke-opacity:0.7;stroke-width:1.2;"/>
   </g>
   <g id="line2d_19">
    <path clip-path="url(#pe2993fa26d)" d="M 513.276454 98.110003 
L 513.270034 98.259561 
L 513.497893 99.246802 
L 514.133747 101.008862 
L 514.364656 101.323886 
L 514.381372 101.295329 
L 514.352969 100.901045 
L 514.003893 99.671176 
L 513.918892 99.429396 
L 514.065945 100.149901 
L 513.955218 100.472359 
L 513.650816 100.696521 
L 513.614504 100.635839 
L 512.918459 99.031985 
L 513.1102 98.561148 
L 513.320815 98.219557 
L 513.320815 98.219557 
" style="fill:none;stroke:#000000;stroke-linecap:square;stroke-opacity:0.7;stroke-width:1.2;"/>
   </g>
   <g id="line2d_20">
    <path clip-path="url(#pe2993fa26d)" d="M 513.338014 51.211279 
L 514.514313 47.386172 
L 515.316636 45.225423 
L 514.664289 47.281716 
L 514.102695 49.487907 
L 514.211302 49.639862 
L 514.576282 49.955442 
L 514.919124 50.530717 
L 515.084775 51.172606 
L 515.043092 51.750662 
L 514.982812 51.391479 
L 514.608911 51.023193 
L 514.208415 50.922613 
L 513.892995 51.017577 
L 513.358852 51.32863 
L 513.358145 51.310702 
" style="fill:none;stroke:#000000;stroke-linecap:square;stroke-opacity:0.7;stroke-width:1.2;"/>
   </g>
   <g id="line2d_21">
    <path clip-path="url(#pe2993fa26d)" d="M 669.263288 238.580208 
L 669.479504 239.72932 
L 670.143702 242.035781 
L 670.506659 242.761994 
L 670.647017 242.724514 
L 670.73864 242.477198 
L 670.705929 241.833507 
L 670.47191 241.226668 
L 669.934404 240.996249 
L 669.922233 241.018922 
L 669.97564 241.321755 
L 670.02198 241.679284 
L 670.001968 241.683808 
L 669.761001 241.508757 
L 669.329899 240.90617 
L 669.106928 240.230649 
L 669.092436 239.568061 
L 669.296333 238.680585 
L 669.296333 238.680585 
" style="fill:none;stroke:#000000;stroke-linecap:square;stroke-opacity:0.7;stroke-width:1.2;"/>
   </g>
   <g id="line2d_22">
    <path clip-path="url(#pe2993fa26d)" d="M 669.197584 191.622855 
L 673.334874 183.071748 
L 674.468426 181.25665 
L 675.073265 180.623725 
L 675.350112 180.551439 
L 675.474699 180.749184 
L 675.460363 181.345922 
L 675.170802 182.730727 
L 673.998008 186.937818 
L 671.631842 194.67581 
L 670.475905 197.837821 
L 670.106624 198.321608 
L 669.95635 198.261758 
L 669.774176 197.853838 
L 669.504419 196.528568 
L 668.996469 192.959166 
L 669.113199 193.408844 
L 670.370051 198.581525 
L 670.339825 198.550003 
L 670.112992 197.867744 
L 669.724146 195.938954 
L 669.39018 193.130355 
L 669.335665 191.748454 
L 669.335665 191.748454 
" style="fill:none;stroke:#000000;stroke-linecap:square;stroke-opacity:0.7;stroke-width:1.2;"/>
   </g>
   <g id="line2d_23">
    <path clip-path="url(#pe2993fa26d)" d="M 669.317632 144.875625 
L 668.953633 143.639867 
L 669.493959 145.129503 
L 670.118215 146.6266 
L 670.169025 146.600937 
L 670.3996 146.342871 
L 670.403342 146.003354 
L 670.203745 145.548481 
L 670.195331 145.552633 
L 669.970805 145.648391 
L 669.49407 145.343962 
L 669.174217 145.161534 
L 669.286588 145.074062 
L 669.348297 144.991944 
L 669.348297 144.991944 
" style="fill:none;stroke:#000000;stroke-linecap:square;stroke-opacity:0.7;stroke-width:1.2;"/>
   </g>
   <g id="line2d_24">
    <path clip-path="url(#pe2993fa26d)" d="M 669.385159 98.138969 
L 669.437383 98.549464 
L 669.752513 101.395348 
L 669.787433 103.635165 
L 669.666283 104.831642 
L 669.823134 104.16913 
L 670.960644 100.241262 
L 672.94309 93.927341 
L 672.580043 94.654252 
L 671.663407 97.206343 
L 671.173416 99.136047 
L 671.232722 99.031082 
L 671.330423 98.353323 
L 671.234284 97.512777 
L 671.029733 97.043805 
L 670.721499 96.857574 
L 670.446639 96.961955 
L 670.031792 97.389343 
L 669.367587 98.203869 
L 669.367587 98.203869 
" style="fill:none;stroke:#000000;stroke-linecap:square;stroke-opacity:0.7;stroke-width:1.2;"/>
   </g>
   <g id="line2d_25">
    <path clip-path="url(#pe2993fa26d)" d="M 669.267231 51.327234 
L 669.246921 51.310096 
L 669.219961 51.452222 
L 669.342874 51.883398 
L 669.855629 52.959535 
L 670.004386 53.773723 
L 669.881094 54.327415 
L 669.626699 54.510845 
L 669.458094 54.409414 
L 669.423531 54.06715 
L 669.621997 51.82313 
L 669.6624 51.992758 
L 670.325229 55.838922 
L 670.429268 57.532157 
L 670.363727 57.586779 
L 670.332765 57.558 
L 670.132855 57.076995 
L 669.788958 55.547406 
L 669.45427 53.087776 
L 669.334661 51.42808 
L 669.334661 51.42808 
" style="fill:none;stroke:#000000;stroke-linecap:square;stroke-opacity:0.7;stroke-width:1.2;"/>
   </g>
  </g>
 </g>
 <defs>
  <clipPath id="pe2993fa26d">
   <rect height="262.08" width="694.08" x="12.96" y="12.96"/>
  </clipPath>
 </defs>
</svg>
