<?xml version="1.0" encoding="utf-8" standalone="no"?>
<!DOCTYPE svg PUBLIC "-//W3C//DTD SVG 1.1//EN"
  "http://www.w3.org/Graphics/SVG/1.1/DTD/svg11.dtd">
<!-- Created with matplotlib (https://matplotlib.org/) -->
<svg height="288pt" version="1.1" viewBox="0 0 720 288" width="720pt" xmlns="http://www.w3.org/2000/svg" xmlns:xlink="http://www.w3.org/1999/xlink">
 <metadata>
  <rdf:RDF xmlns:cc="http://creativecommons.org/ns#" xmlns:dc="http://purl.org/dc/elements/1.1/" xmlns:rdf="http://www.w3.org/1999/02/22-rdf-syntax-ns#">
   <cc:Work>
    <dc:type rdf:resource="http://purl.org/dc/dcmitype/StillImage"/>
    <dc:date>2021-04-26T14:54:57.674360</dc:date>
    <dc:format>image/svg+xml</dc:format>
    <dc:creator>
     <cc:Agent>
      <dc:title>Matplotlib v3.3.4, https://matplotlib.org/</dc:title>
     </cc:Agent>
    </dc:creator>
   </cc:Work>
  </rdf:RDF>
 </metadata>
 <defs>
  <style type="text/css">*{stroke-linecap:butt;stroke-linejoin:round;}</style>
 </defs>
 <g id="figure_1">
  <g id="patch_1">
   <path d="M 0 288 
L 720 288 
L 720 0 
L 0 0 
z
" style="fill:#ffffff;"/>
  </g>
  <g id="axes_1">
   <g id="line2d_1">
    <path clip-path="url(#pdde6d606f9)" d="M 149.157117 225.853142 
L 136.497997 221.825656 
L 129.232636 219.757538 
L 123.060925 218.234225 
L 116.745717 216.937559 
L 110.693694 215.960281 
L 104.330694 215.212139 
L 98.710892 214.777656 
L 92.649852 214.533189 
L 87.074407 214.513855 
L 81.299179 214.724756 
L 76.504018 215.111493 
L 72.721108 215.5752 
L 68.662846 216.247462 
L 63.907433 217.288906 
L 60.485887 218.225387 
L 56.436341 219.568114 
L 52.918175 220.993979 
L 50.294487 222.282999 
L 48.190306 223.549948 
L 46.610071 224.780436 
L 45.856518 225.576964 
L 45.34378 226.381357 
L 45.170592 226.878821 
L 45.138775 227.528596 
L 45.431831 228.279091 
L 45.960493 228.859301 
L 46.954115 229.508057 
L 48.23181 230.058469 
L 50.054159 230.609824 
L 53.426963 231.294533 
L 57.645903 231.850286 
L 62.657973 232.283029 
L 69.491419 232.64508 
L 77.955047 232.855469 
L 85.169152 232.824843 
L 91.5418 232.567489 
L 97.905709 232.071066 
L 106.274298 231.148611 
L 133.002325 227.954451 
L 143.720981 227.027444 
L 149.182762 226.673987 
L 149.182762 226.673987 
" style="fill:none;stroke:#000000;stroke-linecap:square;stroke-opacity:0.7;stroke-width:1.2;"/>
   </g>
   <g id="line2d_2">
    <path clip-path="url(#pdde6d606f9)" d="M 148.70179 187.399067 
L 132.123485 183.29602 
L 123.706306 181.431078 
L 116.863631 180.150126 
L 110.891886 179.264257 
L 105.089583 178.64168 
L 99.360047 178.271984 
L 93.611938 178.154757 
L 88.433239 178.2763 
L 84.101125 178.552601 
L 78.607017 179.141502 
L 73.800738 179.870997 
L 67.945901 180.99768 
L 60.770262 182.674396 
L 54.628388 184.374873 
L 50.622405 185.704208 
L 48.272807 186.685484 
L 46.946345 187.481253 
L 46.552615 187.97462 
L 46.56791 188.223563 
L 46.737232 188.408288 
L 47.606677 188.697674 
L 48.620544 188.803437 
L 51.343196 188.785408 
L 55.773286 188.448869 
L 73.957193 186.767725 
L 80.375267 186.538213 
L 93.527476 186.422358 
L 113.498775 186.400191 
L 122.716266 186.642218 
L 131.570968 187.104319 
L 146.160716 188.142578 
L 148.624403 188.336199 
L 148.624403 188.336199 
" style="fill:none;stroke:#000000;stroke-linecap:square;stroke-opacity:0.7;stroke-width:1.2;"/>
   </g>
   <g id="line2d_3">
    <path clip-path="url(#pdde6d606f9)" d="M 148.807405 150.399746 
L 144.077733 149.736852 
L 137.271523 148.563558 
L 129.787222 147.015417 
L 105.966242 141.800736 
L 100.16886 140.877822 
L 95.045934 140.276193 
L 89.172886 139.84749 
L 83.307777 139.68441 
L 77.56099 139.759582 
L 70.692112 140.142201 
L 64.937785 140.721558 
L 59.965616 141.440363 
L 55.731872 142.252035 
L 51.483439 143.339015 
L 48.913091 144.235672 
L 46.719189 145.360001 
L 45.902267 146.048962 
L 45.425483 146.902314 
L 45.445776 147.497989 
L 46.059099 148.383657 
L 46.655298 148.815345 
L 47.661256 149.313479 
L 48.717339 149.685529 
L 51.112497 150.237373 
L 53.770876 150.585731 
L 57.782808 150.839003 
L 65.550764 150.997035 
L 74.445784 151.214573 
L 83.914067 151.679194 
L 113.774052 153.392641 
L 121.049713 153.432162 
L 127.391237 153.271613 
L 136.125191 152.809704 
L 148.52515 151.858167 
L 148.632401 151.849376 
L 148.632401 151.849376 
" style="fill:none;stroke:#000000;stroke-linecap:square;stroke-opacity:0.7;stroke-width:1.2;"/>
   </g>
   <g id="line2d_4">
    <path clip-path="url(#pdde6d606f9)" d="M 148.926874 108.402871 
L 125.789872 103.41474 
L 119.496116 102.31091 
L 113.931246 101.528439 
L 107.553276 100.891397 
L 101.781903 100.561556 
L 96.48167 100.455079 
L 90.55043 100.537984 
L 83.357732 100.890029 
L 76.705222 101.432197 
L 68.464064 102.377054 
L 62.658299 103.241083 
L 56.517524 104.389139 
L 53.163541 105.166273 
L 49.575209 106.204896 
L 47.631865 106.939525 
L 45.935486 107.832976 
L 45.387693 108.262057 
L 44.842749 109.082011 
L 44.84485 109.572446 
L 45.00394 109.923904 
L 45.591484 110.524001 
L 46.864837 111.253156 
L 48.847273 112.004191 
L 52.653316 113.021392 
L 57.956413 114.075376 
L 64.803857 115.160425 
L 72.656108 116.18854 
L 79.487315 116.882966 
L 84.010784 117.160527 
L 88.099462 117.226 
L 93.2013 117.052979 
L 98.634815 116.631004 
L 106.479467 115.770242 
L 118.671305 114.155267 
L 131.28981 112.270972 
L 148.925319 109.38189 
L 148.925319 109.38189 
" style="fill:none;stroke:#000000;stroke-linecap:square;stroke-opacity:0.7;stroke-width:1.2;"/>
   </g>
   <g id="line2d_5">
    <path clip-path="url(#pdde6d606f9)" d="M 148.808163 68.181822 
L 121.217081 61.6084 
L 114.939115 60.460091 
L 108.852082 59.574521 
L 102.302914 58.874759 
L 95.287144 58.379079 
L 87.375703 58.069929 
L 80.727809 58.008587 
L 74.836726 58.166927 
L 70.319911 58.482999 
L 65.354273 59.083933 
L 60.85539 59.905533 
L 57.875615 60.621489 
L 54.394551 61.667811 
L 51.810059 62.628167 
L 49.026022 63.908666 
L 47.226729 64.950748 
L 45.81641 66.000401 
L 45.096451 66.727382 
L 44.599515 67.539156 
L 44.527669 68.200152 
L 44.685429 68.57119 
L 45.193673 69.021252 
L 46.304632 69.445669 
L 47.737051 69.692342 
L 50.693168 69.842477 
L 54.783896 69.742689 
L 61.111112 69.337647 
L 85.648692 67.569537 
L 98.520725 66.933256 
L 107.398634 66.698353 
L 114.226596 66.711497 
L 121.240776 66.930076 
L 131.191009 67.506144 
L 145.383522 68.571595 
L 148.751055 68.864267 
L 148.751055 68.864267 
" style="fill:none;stroke:#000000;stroke-linecap:square;stroke-opacity:0.7;stroke-width:1.2;"/>
   </g>
   <g id="line2d_6">
    <path clip-path="url(#pdde6d606f9)" d="M 280.389442 225.958727 
L 268.011442 223.92463 
L 258.579919 222.593051 
L 251.205314 221.755615 
L 242.759087 221.042549 
L 234.633052 220.587396 
L 225.085636 220.285858 
L 216.732095 220.213629 
L 210.70195 220.333793 
L 205.182193 220.650019 
L 199.615113 221.218541 
L 193.886295 222.070884 
L 188.390067 223.129695 
L 182.608075 224.512701 
L 179.230818 225.511465 
L 177.02268 226.386315 
L 176.441947 226.815302 
L 176.465382 227.073344 
L 176.771428 227.224957 
L 177.469235 227.356931 
L 179.667225 227.472727 
L 184.821696 227.426019 
L 207.696607 227.008925 
L 222.355708 226.775451 
L 237.202855 226.279397 
L 250.126627 225.905761 
L 259.191425 225.888902 
L 269.68785 226.119409 
L 278.582922 226.512998 
L 280.368329 226.629049 
L 280.368329 226.629049 
" style="fill:none;stroke:#000000;stroke-linecap:square;stroke-opacity:0.7;stroke-width:1.2;"/>
   </g>
   <g id="line2d_7">
    <path clip-path="url(#pdde6d606f9)" d="M 280.325878 188.232764 
L 264.296974 182.542065 
L 254.167388 179.160575 
L 246.834588 176.931186 
L 239.984133 175.071495 
L 233.832044 173.613695 
L 228.516089 172.534052 
L 223.293205 171.659115 
L 218.744526 171.076259 
L 214.403567 170.710879 
L 210.53551 170.576111 
L 206.741122 170.651152 
L 203.635122 170.886794 
L 199.769973 171.423406 
L 196.319621 172.149467 
L 192.86307 173.127864 
L 189.668066 174.273357 
L 186.816458 175.513198 
L 184.244057 176.837794 
L 181.235751 178.712352 
L 178.762396 180.676556 
L 177.682973 181.769162 
L 176.612413 183.226051 
L 176.126073 184.387686 
L 176.045011 185.272197 
L 176.201479 185.921967 
L 176.638467 186.599975 
L 177.486254 187.269515 
L 178.174511 187.612353 
L 180.301371 188.234724 
L 182.794361 188.581206 
L 185.872994 188.745103 
L 190.403 188.722743 
L 198.73085 188.373925 
L 208.365693 188.027242 
L 215.670465 188.011461 
L 224.938143 188.260456 
L 241.946976 189.013125 
L 255.901442 189.547783 
L 265.520869 189.678257 
L 274.911752 189.571137 
L 280.21039 189.420277 
L 280.21039 189.420277 
" style="fill:none;stroke:#000000;stroke-linecap:square;stroke-opacity:0.7;stroke-width:1.2;"/>
   </g>
   <g id="line2d_8">
    <path clip-path="url(#pdde6d606f9)" d="M 280.105414 149.093924 
L 260.835486 143.198401 
L 250.939377 140.451013 
L 242.582986 138.343153 
L 234.011479 136.415012 
L 228.281533 135.298813 
L 222.07084 134.318513 
L 217.396615 133.802546 
L 212.717099 133.537781 
L 208.334553 133.562599 
L 204.170926 133.857431 
L 201.053557 134.259796 
L 198.034983 134.801194 
L 194.773513 135.557735 
L 190.914924 136.693128 
L 188.176381 137.670141 
L 185.122221 138.952597 
L 182.38341 140.316008 
L 179.340363 142.173092 
L 177.889794 143.266805 
L 176.235059 144.867518 
L 175.753864 145.492571 
L 175.065364 146.926877 
L 174.995174 147.319623 
L 175.119635 148.359623 
L 175.441404 148.957495 
L 175.97197 149.531744 
L 177.166179 150.321489 
L 178.622599 150.941918 
L 181.291445 151.68875 
L 183.314796 152.084283 
L 187.902189 152.702581 
L 193.711837 153.18976 
L 202.262076 153.63702 
L 219.543406 154.258729 
L 231.317336 154.467604 
L 240.089736 154.414067 
L 247.728749 154.129015 
L 254.685558 153.61708 
L 262.05461 152.816188 
L 270.291532 151.66777 
L 278.806056 150.247121 
L 280.034809 150.017615 
L 280.034809 150.017615 
" style="fill:none;stroke:#000000;stroke-linecap:square;stroke-opacity:0.7;stroke-width:1.2;"/>
   </g>
   <g id="line2d_9">
    <path clip-path="url(#pdde6d606f9)" d="M 280.178237 108.744577 
L 267.013089 105.036957 
L 257.627917 102.586708 
L 249.282666 100.627858 
L 242.56618 99.245405 
L 235.027748 97.926044 
L 228.129824 96.939306 
L 221.28256 96.169178 
L 214.738611 95.652704 
L 208.464366 95.422738 
L 204.256899 95.460848 
L 200.173218 95.6801 
L 195.618636 96.171667 
L 192.056843 96.765284 
L 188.626445 97.543247 
L 185.143159 98.598667 
L 183.269993 99.318509 
L 181.163681 100.320424 
L 179.379875 101.430893 
L 178.624539 102.028294 
L 177.320442 103.460144 
L 176.783592 104.487463 
L 176.581179 105.290175 
L 176.661333 106.615298 
L 177.08947 107.620268 
L 177.688508 108.41345 
L 178.382481 109.056124 
L 179.617567 109.866577 
L 180.792322 110.416316 
L 183.296747 111.182751 
L 185.319584 111.550307 
L 188.536091 111.856228 
L 192.688719 111.953361 
L 196.866367 111.87401 
L 229.330277 110.778908 
L 245.127702 110.725674 
L 258.912925 110.605232 
L 269.716798 110.26238 
L 280.130821 109.707642 
L 280.130821 109.707642 
" style="fill:none;stroke:#000000;stroke-linecap:square;stroke-opacity:0.7;stroke-width:1.2;"/>
   </g>
   <g id="line2d_10">
    <path clip-path="url(#pdde6d606f9)" d="M 279.4053 70.012882 
L 258.803931 65.492109 
L 247.445974 63.236959 
L 236.510709 61.284649 
L 227.036685 59.775157 
L 220.32495 58.872894 
L 215.285799 58.3935 
L 211.75816 58.214865 
L 206.734283 58.21536 
L 201.822609 58.496546 
L 197.53497 58.956779 
L 192.508398 59.758042 
L 188.498818 60.631912 
L 184.648732 61.733018 
L 181.902851 62.750916 
L 180.080591 63.59758 
L 178.160574 64.755034 
L 176.836513 65.907044 
L 176.036985 67.147958 
L 175.877714 67.99997 
L 176.067988 68.85212 
L 176.54968 69.584771 
L 177.110238 70.114565 
L 177.791244 70.591403 
L 179.783571 71.550937 
L 182.2656 72.345102 
L 185.155236 73.004163 
L 189.550923 73.71083 
L 194.809119 74.283187 
L 201.483133 74.748661 
L 209.114533 75.035795 
L 217.489031 75.107051 
L 226.719799 74.939193 
L 237.323641 74.514334 
L 247.72117 73.896957 
L 258.345671 73.04757 
L 270.902122 71.79639 
L 279.350236 70.84704 
L 279.350236 70.84704 
" style="fill:none;stroke:#000000;stroke-linecap:square;stroke-opacity:0.7;stroke-width:1.2;"/>
   </g>
   <g id="line2d_11">
    <path clip-path="url(#pdde6d606f9)" d="M 409.710134 227.217905 
L 391.808036 222.934471 
L 382.857906 221.048938 
L 375.34132 219.670361 
L 366.470783 218.287601 
L 356.925302 217.057129 
L 349.387513 216.29666 
L 344.526233 215.999817 
L 340.421644 215.940637 
L 336.131957 216.088331 
L 331.113994 216.514716 
L 326.192458 217.176256 
L 322.114411 217.91184 
L 318.268031 218.793634 
L 314.88918 219.777982 
L 312.092321 220.826702 
L 309.990588 221.859813 
L 308.656173 222.734555 
L 307.846541 223.470472 
L 307.342653 224.24988 
L 307.266189 224.817901 
L 307.413229 225.220466 
L 307.620316 225.474731 
L 308.171673 225.864165 
L 309.422309 226.334303 
L 311.064432 226.673541 
L 313.040684 226.914055 
L 317.922411 227.188466 
L 326.54957 227.304068 
L 409.621745 227.617893 
L 409.621745 227.617893 
" style="fill:none;stroke:#000000;stroke-linecap:square;stroke-opacity:0.7;stroke-width:1.2;"/>
   </g>
   <g id="line2d_12">
    <path clip-path="url(#pdde6d606f9)" d="M 411.498381 188.094238 
L 397.096939 183.88008 
L 388.288105 181.477833 
L 380.761483 179.660531 
L 374.822849 178.435999 
L 367.850468 177.24844 
L 360.646525 176.290295 
L 355.411022 175.765069 
L 350.356419 175.417182 
L 345.093268 175.27034 
L 341.012915 175.35225 
L 336.721303 175.661055 
L 332.700754 176.176899 
L 328.09877 177.043004 
L 324.056804 178.047502 
L 319.600576 179.433944 
L 315.698224 180.934475 
L 312.727213 182.331519 
L 310.693667 183.501493 
L 308.967917 184.789061 
L 307.906562 186.124682 
L 307.807815 186.475492 
L 307.898918 187.014053 
L 308.302261 187.421242 
L 309.028501 187.722796 
L 310.009237 187.901665 
L 311.409546 187.979966 
L 314.267697 187.870876 
L 318.972151 187.396024 
L 333.940029 185.689091 
L 339.027846 185.352339 
L 345.210957 185.197864 
L 351.849933 185.280872 
L 361.79318 185.649182 
L 376.8766 186.423298 
L 391.486803 187.384673 
L 408.412526 188.741538 
L 411.355054 189.003025 
L 411.355054 189.003025 
" style="fill:none;stroke:#000000;stroke-linecap:square;stroke-opacity:0.7;stroke-width:1.2;"/>
   </g>
   <g id="line2d_13">
    <path clip-path="url(#pdde6d606f9)" d="M 412.271851 147.227616 
L 395.253245 144.010091 
L 387.279045 142.724673 
L 379.803902 141.752536 
L 372.027247 140.98803 
L 363.902334 140.420923 
L 355.527319 140.056246 
L 348.433122 139.969705 
L 342.385725 140.154222 
L 337.712456 140.50608 
L 332.409481 141.123156 
L 326.138624 142.115292 
L 321.484003 143.025839 
L 316.302322 144.252501 
L 313.181598 145.169801 
L 311.37867 145.830046 
L 309.716506 146.675095 
L 309.29355 147.005775 
L 308.902629 147.566492 
L 308.877833 147.924843 
L 308.99742 148.230825 
L 309.438906 148.708874 
L 310.517971 149.362133 
L 312.245669 150.066322 
L 315.426312 151.014992 
L 318.924191 151.826781 
L 323.945681 152.755565 
L 329.728188 153.581061 
L 336.004339 154.221224 
L 341.183354 154.535592 
L 346.317059 154.621656 
L 350.850956 154.492189 
L 355.821609 154.140068 
L 361.181354 153.558056 
L 368.647784 152.50745 
L 387.876151 149.635615 
L 394.037217 148.979739 
L 401.385075 148.431768 
L 408.471721 148.133749 
L 412.294074 148.084042 
L 412.294074 148.084042 
" style="fill:none;stroke:#000000;stroke-linecap:square;stroke-opacity:0.7;stroke-width:1.2;"/>
   </g>
   <g id="line2d_14">
    <path clip-path="url(#pdde6d606f9)" d="M 411.180521 108.099627 
L 397.713791 106.049169 
L 389.903022 105.058253 
L 382.029265 104.288559 
L 373.802455 103.727937 
L 364.217129 103.313098 
L 351.223903 102.997301 
L 341.101429 102.940517 
L 333.824096 103.096636 
L 328.122633 103.381151 
L 321.917667 103.902214 
L 316.486864 104.625496 
L 313.086596 105.297331 
L 310.382146 106.075754 
L 308.753635 106.80057 
L 308.1192 107.248028 
L 307.718126 107.806557 
L 307.704384 108.15951 
L 308.043325 108.648669 
L 308.585556 108.992179 
L 309.734084 109.420692 
L 312.226599 109.944437 
L 315.590205 110.341429 
L 319.610383 110.617311 
L 327.154763 110.861784 
L 337.087994 110.910097 
L 348.955596 110.725681 
L 364.949947 110.222119 
L 394.639589 109.255001 
L 411.143548 108.894291 
L 411.143548 108.894291 
" style="fill:none;stroke:#000000;stroke-linecap:square;stroke-opacity:0.7;stroke-width:1.2;"/>
   </g>
   <g id="line2d_15">
    <path clip-path="url(#pdde6d606f9)" d="M 411.86169 68.293412 
L 386.185927 65.38636 
L 375.729403 64.419062 
L 366.898697 63.803196 
L 356.120517 63.280216 
L 343.805135 62.903875 
L 335.290522 62.865389 
L 328.836727 63.081967 
L 322.823347 63.560484 
L 319.581587 63.966955 
L 315.844954 64.620547 
L 312.540166 65.460122 
L 311.122955 65.950999 
L 309.1876 66.890305 
L 308.185855 67.70475 
L 307.790143 68.337508 
L 307.719431 68.971404 
L 307.966889 69.575763 
L 308.304737 69.967718 
L 309.026669 70.508614 
L 310.148286 71.07523 
L 311.541021 71.585986 
L 313.374638 72.097377 
L 317.698266 72.953461 
L 322.025912 73.565268 
L 329.332039 74.32865 
L 338.028856 74.975637 
L 345.057656 75.294373 
L 351.418509 75.368099 
L 358.091873 75.202674 
L 364.008682 74.871258 
L 371.951558 74.20656 
L 381.141197 73.192468 
L 393.231921 71.60488 
L 410.867869 69.280177 
L 411.764544 69.181072 
L 411.764544 69.181072 
" style="fill:none;stroke:#000000;stroke-linecap:square;stroke-opacity:0.7;stroke-width:1.2;"/>
   </g>
   <g id="line2d_16">
    <path clip-path="url(#pdde6d606f9)" d="M 542.980001 227.468428 
L 478.62352 222.646704 
L 471.286164 222.342235 
L 464.088542 222.276792 
L 457.842295 222.444242 
L 452.061867 222.815683 
L 447.097823 223.355394 
L 443.73741 223.901281 
L 440.757369 224.617001 
L 438.996772 225.281913 
L 437.989275 225.962157 
L 437.733329 226.364149 
L 437.741397 226.82398 
L 438.014714 227.223351 
L 438.572756 227.635931 
L 439.484369 228.067297 
L 441.056675 228.577244 
L 442.466668 228.920387 
L 447.652304 229.786921 
L 453.875579 230.455845 
L 461.560504 231.021588 
L 470.802336 231.463177 
L 479.796667 231.668348 
L 489.694133 231.661521 
L 501.18356 231.434524 
L 511.340704 231.037072 
L 520.78378 230.452713 
L 531.215067 229.574224 
L 542.889249 228.378555 
L 542.889249 228.378555 
" style="fill:none;stroke:#000000;stroke-linecap:square;stroke-opacity:0.7;stroke-width:1.2;"/>
   </g>
   <g id="line2d_17">
    <path clip-path="url(#pdde6d606f9)" d="M 542.600443 187.697987 
L 526.549844 181.822442 
L 519.819993 179.563953 
L 513.507343 177.661115 
L 508.961394 176.462434 
L 502.97891 175.155672 
L 498.208304 174.365201 
L 493.728358 173.839786 
L 488.807121 173.503046 
L 483.652256 173.401068 
L 478.122197 173.537243 
L 472.201873 173.910159 
L 466.536031 174.459468 
L 461.265293 175.178306 
L 457.186767 175.93954 
L 453.434991 176.871776 
L 450.379363 177.861904 
L 448.567233 178.582079 
L 445.903207 179.893652 
L 443.630938 181.376023 
L 442.071832 182.744759 
L 441.064358 183.949011 
L 440.617153 184.662983 
L 440.053137 186.099018 
L 440.001911 186.350486 
L 440.046921 187.958584 
L 440.621357 189.21427 
L 441.022296 189.712681 
L 442.027757 190.570904 
L 443.779558 191.500401 
L 445.915094 192.206001 
L 449.134207 192.850413 
L 452.542064 193.250239 
L 457.348722 193.566371 
L 464.381234 193.778829 
L 473.724622 193.827919 
L 483.400972 193.658516 
L 494.106417 193.232187 
L 504.921712 192.566273 
L 514.926181 191.72141 
L 525.728769 190.581564 
L 542.549949 188.57856 
L 542.549949 188.57856 
" style="fill:none;stroke:#000000;stroke-linecap:square;stroke-opacity:0.7;stroke-width:1.2;"/>
   </g>
   <g id="line2d_18">
    <path clip-path="url(#pdde6d606f9)" d="M 543.660079 147.47749 
L 519.59284 140.717912 
L 509.784901 138.189999 
L 502.763279 136.605694 
L 497.121499 135.538147 
L 491.635499 134.713893 
L 486.200257 134.130533 
L 481.619113 133.838089 
L 476.848688 133.750075 
L 473.205959 133.848736 
L 468.355333 134.228971 
L 464.292812 134.787412 
L 460.372538 135.552314 
L 457.123452 136.368784 
L 452.716427 137.77369 
L 449.399011 139.100291 
L 446.255917 140.638425 
L 444.590555 141.606683 
L 441.969179 143.484528 
L 440.934896 144.442272 
L 439.791542 145.894233 
L 439.349218 146.933778 
L 439.280756 147.604485 
L 439.429735 148.25118 
L 439.723474 148.731832 
L 439.970431 148.994225 
L 440.816785 149.572799 
L 442.286996 150.138667 
L 444.599848 150.621965 
L 448.469517 151.001228 
L 453.185246 151.164484 
L 461.897595 151.146625 
L 480.502723 150.785771 
L 494.457339 150.322471 
L 514.193107 149.3779 
L 529.443137 148.743113 
L 541.372486 148.455255 
L 543.606357 148.43827 
L 543.606357 148.43827 
" style="fill:none;stroke:#000000;stroke-linecap:square;stroke-opacity:0.7;stroke-width:1.2;"/>
   </g>
   <g id="line2d_19">
    <path clip-path="url(#pdde6d606f9)" d="M 543.714084 107.453291 
L 521.395844 100.53314 
L 513.379574 98.317174 
L 507.058574 96.781328 
L 501.370267 95.601946 
L 495.719091 94.643415 
L 489.816379 93.873606 
L 483.698024 93.323896 
L 477.939756 93.057785 
L 473.09232 93.066563 
L 468.245762 93.351554 
L 466.308844 93.559217 
L 461.488542 94.350095 
L 458.348085 95.100249 
L 455.382919 95.996607 
L 452.976832 96.869169 
L 449.240604 98.512841 
L 446.578309 99.93831 
L 443.793187 101.734498 
L 441.813239 103.300579 
L 440.067808 105.071997 
L 438.825601 107.075361 
L 438.593245 108.066913 
L 438.674725 108.879334 
L 438.921164 109.428796 
L 439.543032 110.115917 
L 440.451007 110.680091 
L 441.639958 111.140695 
L 443.295181 111.544858 
L 447.111345 112.011168 
L 450.732022 112.173199 
L 456.317789 112.176692 
L 465.087398 111.903318 
L 480.018291 111.157331 
L 524.861601 108.767215 
L 540.01829 108.332668 
L 543.683976 108.269686 
L 543.683976 108.269686 
" style="fill:none;stroke:#000000;stroke-linecap:square;stroke-opacity:0.7;stroke-width:1.2;"/>
   </g>
   <g id="line2d_20">
    <path clip-path="url(#pdde6d606f9)" d="M 543.480362 69.211176 
L 526.623701 63.997801 
L 517.293481 61.355712 
L 510.030176 59.539705 
L 503.837164 58.200249 
L 497.448449 57.037188 
L 491.569822 56.17432 
L 485.527986 55.521248 
L 480.41788 55.198485 
L 476.128064 55.134325 
L 471.943126 55.287629 
L 467.376406 55.718154 
L 464.288653 56.166818 
L 459.646709 57.079621 
L 455.326982 58.194946 
L 451.365402 59.472728 
L 448.435341 60.613454 
L 445.243257 62.123223 
L 442.525963 63.772246 
L 440.811493 65.170334 
L 439.77498 66.376886 
L 439.210578 67.515577 
L 439.097271 68.399911 
L 439.267444 69.127402 
L 439.58125 69.658953 
L 440.174154 70.249209 
L 441.456416 70.996873 
L 442.900634 71.512638 
L 444.181181 71.829827 
L 447.071933 72.284863 
L 450.90652 72.58554 
L 456.491163 72.720024 
L 465.223975 72.623772 
L 487.632038 72.048857 
L 534.900705 70.48209 
L 543.467492 70.244261 
L 543.467492 70.244261 
" style="fill:none;stroke:#000000;stroke-linecap:square;stroke-opacity:0.7;stroke-width:1.2;"/>
   </g>
   <g id="line2d_21">
    <path clip-path="url(#pdde6d606f9)" d="M 674.20407 227.131687 
L 662.414507 224.855148 
L 654.283821 223.467943 
L 646.871308 222.443663 
L 641.385713 221.8748 
L 634.596723 221.410905 
L 628.566039 221.218068 
L 622.908305 221.21316 
L 615.740175 221.427375 
L 608.081675 221.878669 
L 596.47263 222.812368 
L 583.87083 224.016465 
L 577.191287 224.820547 
L 573.5761 225.412976 
L 571.343233 225.994399 
L 570.672125 226.335356 
L 570.457756 226.680629 
L 570.613005 226.966471 
L 570.986554 227.220323 
L 572.109295 227.656657 
L 574.205618 228.180463 
L 577.874059 228.824728 
L 584.158407 229.609822 
L 592.479228 230.338286 
L 603.213334 231.006427 
L 616.541929 231.618128 
L 625.315987 231.827745 
L 633.454246 231.800477 
L 640.79334 231.531137 
L 648.151126 231.009862 
L 656.154482 230.219078 
L 669.3156 228.656956 
L 674.086294 228.065416 
L 674.086294 228.065416 
" style="fill:none;stroke:#000000;stroke-linecap:square;stroke-opacity:0.7;stroke-width:1.2;"/>
   </g>
   <g id="line2d_22">
    <path clip-path="url(#pdde6d606f9)" d="M 674.41841 188.403451 
L 655.36635 185.434834 
L 638.748408 182.857371 
L 627.872157 181.420199 
L 618.187754 180.385662 
L 610.843815 179.819879 
L 604.731018 179.573512 
L 599.271625 179.582542 
L 594.18513 179.811052 
L 589.073943 180.272252 
L 585.343731 180.773829 
L 581.051098 181.564433 
L 577.82803 182.363313 
L 574.857671 183.349822 
L 572.656761 184.37869 
L 571.552139 185.120745 
L 570.992839 185.654314 
L 570.49015 186.598612 
L 570.488793 187.073648 
L 570.75378 187.663707 
L 571.461682 188.320529 
L 572.623961 188.932758 
L 574.608536 189.585629 
L 577.159332 190.135719 
L 581.174681 190.711841 
L 587.189074 191.272697 
L 595.616475 191.782707 
L 605.257607 192.133566 
L 615.021086 192.240999 
L 625.46942 192.116114 
L 638.071313 191.742354 
L 649.863955 191.180987 
L 662.843286 190.324404 
L 674.340778 189.405738 
L 674.340778 189.405738 
" style="fill:none;stroke:#000000;stroke-linecap:square;stroke-opacity:0.7;stroke-width:1.2;"/>
   </g>
   <g id="line2d_23">
    <path clip-path="url(#pdde6d606f9)" d="M 675.490909 147.771496 
L 661.474572 144.542042 
L 651.558804 142.474083 
L 642.113879 140.733167 
L 633.420345 139.363699 
L 624.665378 138.22901 
L 615.934376 137.350563 
L 608.859797 136.873442 
L 603.152841 136.718515 
L 598.719321 136.797992 
L 594.632909 137.067771 
L 590.504727 137.567278 
L 587.029017 138.190415 
L 583.440896 139.05556 
L 580.181424 140.069024 
L 576.999381 141.317051 
L 576.030409 141.760561 
L 573.230603 143.273191 
L 571.176244 144.730853 
L 570.14918 145.69102 
L 569.591052 146.362368 
L 569.01587 147.397154 
L 568.846069 148.311946 
L 568.984345 149.008362 
L 569.477639 149.763324 
L 570.532856 150.555816 
L 572.375554 151.327191 
L 573.15626 151.557765 
L 576.289419 152.217982 
L 579.193698 152.626554 
L 584.23008 153.122317 
L 593.094844 153.71443 
L 604.151909 154.239543 
L 612.771362 154.453381 
L 619.130883 154.417691 
L 626.932742 154.137101 
L 635.151917 153.615688 
L 644.26294 152.821854 
L 654.542524 151.698676 
L 668.01193 149.983516 
L 675.433902 148.988581 
L 675.433902 148.988581 
" style="fill:none;stroke:#000000;stroke-linecap:square;stroke-opacity:0.7;stroke-width:1.2;"/>
   </g>
   <g id="line2d_24">
    <path clip-path="url(#pdde6d606f9)" d="M 673.644626 108.03699 
L 659.797481 102.745628 
L 653.02237 100.394546 
L 647.086989 98.593902 
L 642.454081 97.407514 
L 637.376371 96.361603 
L 632.432837 95.617293 
L 627.674053 95.161725 
L 623.674541 94.972906 
L 618.970323 94.963321 
L 614.379569 95.149099 
L 608.765525 95.58229 
L 601.488689 96.374084 
L 594.168369 97.379188 
L 588.551944 98.342189 
L 583.719496 99.387586 
L 580.475825 100.264255 
L 577.246575 101.356798 
L 574.968331 102.339322 
L 572.947029 103.478192 
L 571.73508 104.413024 
L 571.006375 105.223166 
L 570.583799 106.133361 
L 570.617494 106.81706 
L 570.92858 107.328223 
L 571.55513 107.794961 
L 572.525694 108.183497 
L 573.577277 108.432264 
L 575.031456 108.637595 
L 578.965908 108.843227 
L 585.380231 108.796644 
L 604.918994 108.435826 
L 618.464706 108.525898 
L 639.268553 108.638583 
L 673.500904 108.585684 
L 673.500904 108.585684 
" style="fill:none;stroke:#000000;stroke-linecap:square;stroke-opacity:0.7;stroke-width:1.2;"/>
   </g>
   <g id="line2d_25">
    <path clip-path="url(#pdde6d606f9)" d="M 675.048909 69.267584 
L 660.494116 67.284652 
L 642.026186 64.998949 
L 626.87974 63.307278 
L 618.199502 62.514025 
L 610.538592 62.012842 
L 604.489243 61.804332 
L 599.739935 61.787477 
L 594.189853 61.961802 
L 588.646498 62.379016 
L 584.199344 62.924217 
L 579.848046 63.690569 
L 576.964157 64.372841 
L 573.827996 65.365615 
L 571.782381 66.281938 
L 570.98976 66.768437 
L 570.406095 67.249571 
L 569.973474 67.864303 
L 569.942909 68.433087 
L 570.159653 68.79528 
L 570.63235 69.162907 
L 571.619737 69.581169 
L 573.029162 69.924742 
L 574.875253 70.192641 
L 579.165991 70.476219 
L 585.125709 70.534095 
L 593.603918 70.354535 
L 619.513729 69.660691 
L 631.954673 69.6469 
L 648.37401 69.891939 
L 667.395961 70.116353 
L 674.987796 70.164128 
L 674.987796 70.164128 
" style="fill:none;stroke:#000000;stroke-linecap:square;stroke-opacity:0.7;stroke-width:1.2;"/>
   </g>
  </g>
 </g>
 <defs>
  <clipPath id="pdde6d606f9">
   <rect height="262.08" width="694.08" x="12.96" y="12.96"/>
  </clipPath>
 </defs>
</svg>
