<?xml version="1.0" encoding="utf-8" standalone="no"?>
<!DOCTYPE svg PUBLIC "-//W3C//DTD SVG 1.1//EN"
  "http://www.w3.org/Graphics/SVG/1.1/DTD/svg11.dtd">
<!-- Created with matplotlib (https://matplotlib.org/) -->
<svg height="288pt" version="1.1" viewBox="0 0 720 288" width="720pt" xmlns="http://www.w3.org/2000/svg" xmlns:xlink="http://www.w3.org/1999/xlink">
 <metadata>
  <rdf:RDF xmlns:cc="http://creativecommons.org/ns#" xmlns:dc="http://purl.org/dc/elements/1.1/" xmlns:rdf="http://www.w3.org/1999/02/22-rdf-syntax-ns#">
   <cc:Work>
    <dc:type rdf:resource="http://purl.org/dc/dcmitype/StillImage"/>
    <dc:date>2021-04-26T14:53:21.691770</dc:date>
    <dc:format>image/svg+xml</dc:format>
    <dc:creator>
     <cc:Agent>
      <dc:title>Matplotlib v3.3.4, https://matplotlib.org/</dc:title>
     </cc:Agent>
    </dc:creator>
   </cc:Work>
  </rdf:RDF>
 </metadata>
 <defs>
  <style type="text/css">*{stroke-linecap:butt;stroke-linejoin:round;}</style>
 </defs>
 <g id="figure_1">
  <g id="patch_1">
   <path d="M 0 288 
L 720 288 
L 720 0 
L 0 0 
z
" style="fill:#ffffff;"/>
  </g>
  <g id="axes_1">
   <g id="line2d_1">
    <path clip-path="url(#p41851fe1af)" d="M 149.216673 229.46195 
L 139.776083 225.879601 
L 127.501194 221.452228 
L 121.498197 219.496452 
L 116.114886 217.979343 
L 110.259036 216.604327 
L 104.292329 215.454709 
L 98.9551 214.613113 
L 93.438956 213.935068 
L 88.939823 213.550844 
L 84.414761 213.349831 
L 79.714538 213.376443 
L 75.096749 213.675866 
L 70.906784 214.214307 
L 66.515411 215.085299 
L 65.21632 215.409282 
L 60.572502 216.850868 
L 58.26651 217.757828 
L 54.8014 219.432603 
L 53.008632 220.496349 
L 51.38098 221.632868 
L 49.548955 223.224465 
L 48.55503 224.34847 
L 47.727134 225.639832 
L 47.548075 226.028787 
L 47.228004 227.226966 
L 47.224576 227.889981 
L 47.448889 228.738617 
L 48.147078 229.71994 
L 48.718814 230.185736 
L 50.248145 230.962181 
L 50.960156 231.204512 
L 53.008838 231.685244 
L 55.987519 232.064072 
L 59.435403 232.259075 
L 65.068753 232.298407 
L 72.30908 232.110254 
L 93.506608 231.435511 
L 105.059286 231.374751 
L 118.756336 231.545913 
L 136.979291 231.826287 
L 149.274193 231.678814 
L 149.274193 231.678814 
" style="fill:none;stroke:#000000;stroke-linecap:square;stroke-opacity:0.7;stroke-width:1.2;"/>
   </g>
   <g id="line2d_2">
    <path clip-path="url(#p41851fe1af)" d="M 148.930957 190.525743 
L 144.759241 190.611322 
L 141.109777 190.534923 
L 136.526446 190.193479 
L 132.234851 189.593658 
L 127.840994 188.722118 
L 114.056129 185.700943 
L 109.367678 184.952656 
L 103.611569 184.244288 
L 95.627229 183.52018 
L 85.158445 182.82357 
L 79.667969 182.636685 
L 75.395127 182.674871 
L 71.409426 182.876808 
L 65.49857 183.443076 
L 60.176829 184.203561 
L 55.608763 185.075279 
L 52.291828 185.901682 
L 49.746571 186.747224 
L 48.289302 187.413543 
L 47.100407 188.242518 
L 46.613182 188.918748 
L 46.526098 189.378667 
L 46.72522 189.966126 
L 47.208855 190.455529 
L 47.9124 190.868461 
L 48.887214 191.249155 
L 51.095325 191.796315 
L 54.115595 192.25589 
L 59.089867 192.716238 
L 65.362097 193.048938 
L 73.278384 193.248765 
L 81.182169 193.259788 
L 89.34481 193.052082 
L 98.454147 192.577824 
L 116.446548 191.538622 
L 123.597031 191.348245 
L 129.824551 191.365441 
L 137.324082 191.593826 
L 145.388908 192.054141 
L 148.84975 192.341713 
L 148.84975 192.341713 
" style="fill:none;stroke:#000000;stroke-linecap:square;stroke-opacity:0.7;stroke-width:1.2;"/>
   </g>
   <g id="line2d_3">
    <path clip-path="url(#p41851fe1af)" d="M 148.823868 150.039913 
L 137.937222 147.842741 
L 117.160023 143.393582 
L 111.022125 142.462566 
L 104.573926 141.703711 
L 96.043097 140.93599 
L 88.095138 140.453534 
L 83.421418 140.345885 
L 78.414651 140.452643 
L 74.470568 140.720088 
L 69.576253 141.271154 
L 63.800047 142.219332 
L 58.69378 143.345522 
L 54.342786 144.587108 
L 51.649465 145.557271 
L 49.106568 146.731318 
L 48.369597 147.155729 
L 46.758702 148.399016 
L 46.193626 149.148991 
L 45.962042 149.957191 
L 46.096553 150.583035 
L 46.340336 150.962315 
L 47.290164 151.707178 
L 48.357821 152.185926 
L 50.314136 152.749243 
L 52.84605 153.225647 
L 57.126991 153.75979 
L 63.548225 154.2833 
L 69.510531 154.614188 
L 77.288197 154.857997 
L 83.841754 154.824459 
L 89.26839 154.55747 
L 94.791444 154.057301 
L 101.082587 153.278699 
L 121.594251 150.54983 
L 126.634515 150.202344 
L 131.578355 150.125357 
L 136.739257 150.336871 
L 141.485039 150.771551 
L 146.488003 151.478123 
L 148.882322 151.940234 
L 148.882322 151.940234 
" style="fill:none;stroke:#000000;stroke-linecap:square;stroke-opacity:0.7;stroke-width:1.2;"/>
   </g>
   <g id="line2d_4">
    <path clip-path="url(#p41851fe1af)" d="M 149.992126 110.846782 
L 128.575769 107.720396 
L 120.75978 106.549962 
L 114.290471 105.826576 
L 108.791481 105.427014 
L 102.196022 105.159104 
L 78.322964 104.657689 
L 73.073404 104.631701 
L 67.519932 104.793099 
L 62.324205 105.191538 
L 58.65426 105.655607 
L 55.798728 106.145912 
L 52.146502 106.984679 
L 50.339127 107.516957 
L 47.559568 108.574981 
L 45.707915 109.602433 
L 44.815722 110.41486 
L 44.625305 110.719153 
L 44.51359 111.296661 
L 44.759161 111.846536 
L 45.420525 112.407239 
L 47.608834 113.372702 
L 52.182435 114.617071 
L 57.842371 115.780981 
L 65.215197 117.028557 
L 73.444619 118.162021 
L 80.575565 118.891236 
L 85.742107 119.205488 
L 90.500451 119.286165 
L 96.004613 119.125255 
L 102.141418 118.686217 
L 109.771161 117.876194 
L 117.504507 116.847995 
L 127.47572 115.307288 
L 139.740106 113.402002 
L 145.523038 112.74431 
L 149.89016 112.524427 
L 149.89016 112.524427 
" style="fill:none;stroke:#000000;stroke-linecap:square;stroke-opacity:0.7;stroke-width:1.2;"/>
   </g>
   <g id="line2d_5">
    <path clip-path="url(#p41851fe1af)" d="M 148.181636 71.736444 
L 142.108323 70.195127 
L 134.82954 68.576376 
L 128.789219 67.447915 
L 123.1329 66.633571 
L 117.323917 66.061137 
L 109.871403 65.619367 
L 86.98787 64.719236 
L 82.002611 64.637502 
L 76.945983 64.797296 
L 71.702594 65.233516 
L 65.226143 66.07513 
L 58.007144 67.330467 
L 52.832593 68.444634 
L 49.231837 69.395607 
L 47.015515 70.180002 
L 46.444291 70.461459 
L 45.698801 71.076799 
L 45.629794 71.523622 
L 45.692406 71.660956 
L 45.965169 71.955978 
L 46.619942 72.340549 
L 48.293634 72.906101 
L 50.290065 73.33204 
L 53.609511 73.790783 
L 57.771136 74.129127 
L 62.560772 74.319103 
L 68.976253 74.352301 
L 77.935639 74.130914 
L 115.927487 72.801617 
L 125.981857 72.825743 
L 138.600068 73.115097 
L 148.308845 73.520934 
L 148.308845 73.520934 
" style="fill:none;stroke:#000000;stroke-linecap:square;stroke-opacity:0.7;stroke-width:1.2;"/>
   </g>
   <g id="line2d_6">
    <path clip-path="url(#p41851fe1af)" d="M 279.65848 229.91738 
L 273.705736 227.416426 
L 262.626374 223.021467 
L 256.722891 220.87329 
L 252.041488 219.408242 
L 247.440288 218.204701 
L 242.298246 217.103079 
L 236.361271 216.096994 
L 231.198607 215.432747 
L 225.131325 214.910931 
L 220.435225 214.721317 
L 215.54256 214.750625 
L 210.704442 215.033031 
L 206.236849 215.534933 
L 201.411616 216.349072 
L 198.157538 217.062543 
L 193.891272 218.206821 
L 189.429923 219.675376 
L 185.980506 221.026781 
L 182.368929 222.691838 
L 179.545193 224.245305 
L 177.864003 225.346164 
L 177.049529 225.965303 
L 175.659517 227.356216 
L 175.308888 227.972633 
L 175.222307 228.738062 
L 175.403825 229.151169 
L 175.917945 229.638971 
L 176.954178 230.147989 
L 178.909129 230.684377 
L 181.13374 231.062495 
L 184.832555 231.468296 
L 190.090618 231.818027 
L 198.367024 232.088526 
L 206.555567 232.1277 
L 215.366321 231.942549 
L 228.086183 231.37406 
L 240.553708 230.883576 
L 249.981766 230.744399 
L 259.113912 230.856629 
L 271.133492 231.271164 
L 279.610804 231.599265 
L 279.610804 231.599265 
" style="fill:none;stroke:#000000;stroke-linecap:square;stroke-opacity:0.7;stroke-width:1.2;"/>
   </g>
   <g id="line2d_7">
    <path clip-path="url(#p41851fe1af)" d="M 279.493615 189.294705 
L 276.227169 187.889466 
L 271.655375 186.161159 
L 266.408332 184.411603 
L 259.84631 182.475192 
L 253.137693 180.748457 
L 247.504215 179.505764 
L 241.617329 178.419838 
L 236.29592 177.625735 
L 229.813281 176.897958 
L 224.847506 176.523044 
L 220.309619 176.327917 
L 214.646688 176.300216 
L 208.857054 176.544186 
L 203.666649 177.017069 
L 198.854717 177.690502 
L 193.861444 178.667124 
L 190.294998 179.579756 
L 187.50401 180.456808 
L 184.017773 181.832114 
L 182.64052 182.49637 
L 180.632321 183.65405 
L 178.684951 185.143115 
L 177.254958 186.821665 
L 176.792787 187.775695 
L 176.677806 188.173917 
L 176.637725 189.38595 
L 176.882864 190.133675 
L 177.151205 190.579653 
L 178.14644 191.533707 
L 179.256448 192.144066 
L 180.558553 192.599186 
L 181.402884 192.803095 
L 183.064074 193.065357 
L 185.908896 193.23479 
L 190.347415 193.097772 
L 195.920894 192.580218 
L 214.31218 190.513448 
L 218.230278 190.286623 
L 223.620446 190.181794 
L 231.582427 190.3192 
L 245.191468 190.851115 
L 257.375362 191.281109 
L 264.990145 191.321815 
L 272.923198 191.101545 
L 279.83939 190.803135 
L 279.83939 190.803135 
" style="fill:none;stroke:#000000;stroke-linecap:square;stroke-opacity:0.7;stroke-width:1.2;"/>
   </g>
   <g id="line2d_8">
    <path clip-path="url(#p41851fe1af)" d="M 280.730302 149.595119 
L 273.213529 148.08666 
L 266.587467 146.968002 
L 259.485863 146.019783 
L 253.90171 145.470373 
L 247.480403 145.04696 
L 239.929979 144.779267 
L 227.862998 144.631729 
L 199.980875 144.541915 
L 192.215947 144.883233 
L 187.220014 145.280926 
L 184.41633 145.700916 
L 183.366301 145.962272 
L 181.802807 146.644232 
L 181.170205 147.243851 
L 180.981723 147.633001 
L 180.968159 148.368374 
L 181.215207 148.953887 
L 181.859799 149.748564 
L 182.954597 150.626339 
L 183.745477 151.119378 
L 185.960064 152.19813 
L 188.025931 152.965822 
L 191.281794 153.881829 
L 194.089019 154.45573 
L 197.427291 154.926999 
L 201.416761 155.234086 
L 205.841078 155.309449 
L 210.446416 155.174662 
L 217.620107 154.710533 
L 228.819662 153.707514 
L 245.891319 152.16062 
L 252.994221 151.739303 
L 261.04699 151.516611 
L 269.39103 151.508028 
L 277.836911 151.701534 
L 280.846432 151.854505 
L 280.846432 151.854505 
" style="fill:none;stroke:#000000;stroke-linecap:square;stroke-opacity:0.7;stroke-width:1.2;"/>
   </g>
   <g id="line2d_9">
    <path clip-path="url(#p41851fe1af)" d="M 279.740678 110.092308 
L 275.160777 108.590326 
L 268.276623 106.600367 
L 257.861838 103.851058 
L 251.311228 102.301613 
L 244.934919 101.05137 
L 239.621002 100.237399 
L 233.631541 99.538158 
L 226.356294 98.928234 
L 218.620365 98.498743 
L 211.000616 98.278444 
L 205.041775 98.283471 
L 198.953306 98.512919 
L 193.359303 98.978024 
L 188.020317 99.703264 
L 184.363496 100.402205 
L 180.977423 101.250643 
L 178.281253 102.132311 
L 176.601971 102.832419 
L 175.547383 103.372829 
L 173.853193 104.604447 
L 173.661923 104.808648 
L 173.183895 105.518767 
L 172.989003 106.177804 
L 173.037706 106.913999 
L 173.304042 107.56773 
L 173.953824 108.420703 
L 174.418597 108.858765 
L 176.042945 109.990903 
L 177.720362 110.849822 
L 179.294575 111.500009 
L 182.876288 112.626687 
L 186.083884 113.343585 
L 187.655298 113.615578 
L 191.700947 114.112499 
L 194.949198 114.32523 
L 199.730844 114.384838 
L 205.24366 114.165823 
L 212.941506 113.578992 
L 228.336092 112.365272 
L 237.991421 111.874884 
L 246.911064 111.678707 
L 257.207374 111.718959 
L 279.164449 111.858536 
L 279.653427 111.861281 
L 279.653427 111.861281 
" style="fill:none;stroke:#000000;stroke-linecap:square;stroke-opacity:0.7;stroke-width:1.2;"/>
   </g>
   <g id="line2d_10">
    <path clip-path="url(#p41851fe1af)" d="M 280.259513 70.84802 
L 272.618283 68.927078 
L 265.362812 66.87491 
L 255.419706 63.776713 
L 245.011987 60.581775 
L 235.277166 57.853966 
L 221.804225 54.077361 
L 215.293265 52.229918 
L 213.347381 51.97439 
L 211.727961 52.046703 
L 210.067894 52.363619 
L 208.031248 52.966752 
L 204.73027 54.208114 
L 201.010976 55.810072 
L 194.900171 58.71701 
L 189.420155 61.575094 
L 186.447783 63.253094 
L 183.003286 65.404457 
L 180.719049 67.149959 
L 179.772437 68.144852 
L 179.277626 69.042624 
L 179.214686 69.593263 
L 179.339359 70.048026 
L 179.525804 70.348907 
L 179.994186 70.803726 
L 181.442417 71.568837 
L 183.249738 72.119577 
L 185.567248 72.570629 
L 189.348639 73.005876 
L 194.013522 73.269613 
L 199.584706 73.370445 
L 208.123226 73.274026 
L 217.344761 72.933161 
L 228.657421 72.263166 
L 251.692716 70.790894 
L 257.968802 70.704162 
L 264.523444 70.881481 
L 269.283665 71.182183 
L 274.862326 71.725779 
L 280.124329 72.468928 
L 280.124329 72.468928 
" style="fill:none;stroke:#000000;stroke-linecap:square;stroke-opacity:0.7;stroke-width:1.2;"/>
   </g>
   <g id="line2d_11">
    <path clip-path="url(#p41851fe1af)" d="M 411.81298 230.009337 
L 406.578903 229.633378 
L 402.895087 229.214722 
L 397.588675 228.362072 
L 388.53672 226.547048 
L 383.662256 225.672296 
L 378.443289 224.96182 
L 372.952933 224.475788 
L 366.902084 224.197843 
L 360.968567 224.122257 
L 352.218849 224.254708 
L 342.374378 224.633694 
L 334.847314 225.089355 
L 326.652341 225.821859 
L 319.538128 226.717815 
L 314.762114 227.547661 
L 312.395646 228.11431 
L 311.159683 228.523343 
L 310.223042 229.057251 
L 310.099917 229.375496 
L 310.180241 229.527814 
L 310.761144 229.86931 
L 312.103631 230.222342 
L 314.32567 230.560614 
L 318.935023 231.004175 
L 326.353755 231.480829 
L 334.802046 231.819708 
L 342.120766 231.894582 
L 348.530512 231.717116 
L 355.452999 231.287563 
L 374.413265 229.993064 
L 381.110715 229.790121 
L 386.811901 229.814586 
L 392.58361 230.040522 
L 400.569693 230.604791 
L 410.593165 231.549324 
L 411.617098 231.667945 
L 411.617098 231.667945 
" style="fill:none;stroke:#000000;stroke-linecap:square;stroke-opacity:0.7;stroke-width:1.2;"/>
   </g>
   <g id="line2d_12">
    <path clip-path="url(#p41851fe1af)" d="M 410.764714 189.50763 
L 404.217495 188.412866 
L 383.756435 185.302173 
L 378.880265 184.788036 
L 372.256047 184.350463 
L 364.969239 184.142164 
L 355.230056 184.14225 
L 327.924231 184.521714 
L 323.037657 184.927995 
L 320.422724 185.270966 
L 316.426325 186.045483 
L 313.852487 186.80179 
L 312.366955 187.415345 
L 311.209904 188.099162 
L 310.435273 188.972018 
L 310.358311 189.339525 
L 310.390818 189.554906 
L 310.699903 190.033723 
L 311.439669 190.528865 
L 312.888756 191.06305 
L 314.88322 191.515631 
L 318.372456 192.00679 
L 322.837245 192.37188 
L 329.522204 192.624622 
L 337.06711 192.671087 
L 354.073535 192.488829 
L 366.40004 192.13141 
L 395.143232 191.128176 
L 405.080538 191.109289 
L 410.809625 191.192884 
L 410.809625 191.192884 
" style="fill:none;stroke:#000000;stroke-linecap:square;stroke-opacity:0.7;stroke-width:1.2;"/>
   </g>
   <g id="line2d_13">
    <path clip-path="url(#p41851fe1af)" d="M 411.841364 150.485985 
L 407.394026 148.332802 
L 403.202804 146.497999 
L 397.975869 144.459992 
L 393.122659 142.84533 
L 388.793627 141.67521 
L 384.672615 140.819172 
L 380.500033 140.185026 
L 375.109392 139.620953 
L 368.391095 139.162014 
L 357.966206 138.706665 
L 344.90678 138.337962 
L 338.490757 138.331609 
L 333.57771 138.51745 
L 329.972972 138.80653 
L 325.748773 139.351561 
L 321.460881 140.174491 
L 317.600621 141.187778 
L 314.177258 142.346107 
L 311.957302 143.265099 
L 309.508282 144.509943 
L 308.029623 145.467896 
L 306.970481 146.358599 
L 306.040329 147.546641 
L 305.671388 149.138186 
L 305.910728 150.041255 
L 306.630481 151.125007 
L 307.365738 151.836984 
L 309.021574 152.990397 
L 310.710405 153.873121 
L 313.328742 154.94444 
L 316.817144 156.0407 
L 320.383324 156.906874 
L 325.024011 157.757763 
L 329.59044 158.353995 
L 335.013015 158.800522 
L 339.023646 158.966326 
L 345.027703 158.973116 
L 350.205652 158.763339 
L 355.708708 158.344873 
L 362.003262 157.656128 
L 369.701409 156.572692 
L 379.911158 154.876488 
L 389.393236 153.338967 
L 395.126454 152.645599 
L 399.688229 152.299522 
L 404.347852 152.144638 
L 409.4761 152.205178 
L 411.73183 152.325072 
L 411.73183 152.325072 
" style="fill:none;stroke:#000000;stroke-linecap:square;stroke-opacity:0.7;stroke-width:1.2;"/>
   </g>
   <g id="line2d_14">
    <path clip-path="url(#p41851fe1af)" d="M 411.3491 110.311437 
L 385.028453 104.217658 
L 379.447083 103.136831 
L 373.548022 102.227972 
L 367.703075 101.538446 
L 360.476717 100.917694 
L 353.168431 100.513374 
L 346.734089 100.358747 
L 341.03858 100.437074 
L 336.70419 100.689414 
L 332.169421 101.189046 
L 328.348624 101.831637 
L 324.644036 102.670635 
L 321.693057 103.505755 
L 318.388276 104.641013 
L 315.380423 105.901139 
L 313.259401 106.970653 
L 311.367896 108.133259 
L 310.009597 109.235142 
L 309.462038 109.891168 
L 309.224615 110.525755 
L 309.301939 110.86395 
L 309.884816 111.29048 
L 310.805685 111.485615 
L 312.500274 111.537426 
L 315.271675 111.367164 
L 321.957018 110.674114 
L 333.612832 109.507803 
L 343.629918 108.73295 
L 352.123184 108.285187 
L 360.719883 108.0757 
L 369.7992 108.112394 
L 378.177787 108.398907 
L 385.186246 108.852606 
L 394.349678 109.712841 
L 405.481394 110.995856 
L 411.21917 111.779864 
L 411.21917 111.779864 
" style="fill:none;stroke:#000000;stroke-linecap:square;stroke-opacity:0.7;stroke-width:1.2;"/>
   </g>
   <g id="line2d_15">
    <path clip-path="url(#p41851fe1af)" d="M 412.15421 69.12352 
L 409.760519 68.149155 
L 406.150724 66.917044 
L 401.354814 65.59271 
L 396.491811 64.499003 
L 390.606831 63.398587 
L 383.710979 62.330855 
L 377.438184 61.548343 
L 370.711047 60.926091 
L 362.816572 60.509892 
L 356.514404 60.440832 
L 350.47981 60.614243 
L 345.574473 60.946219 
L 340.191566 61.535158 
L 335.509611 62.267425 
L 332.242738 62.91418 
L 326.738156 64.283737 
L 323.013819 65.431276 
L 319.814409 66.579283 
L 316.111298 68.130257 
L 312.907388 69.734485 
L 310.688069 71.124293 
L 309.840635 71.830605 
L 309.406462 72.336011 
L 309.171162 73.308734 
L 309.427811 73.755254 
L 309.81724 74.093121 
L 310.939675 74.670731 
L 312.928538 75.299524 
L 314.807537 75.724408 
L 319.140622 76.429697 
L 324.074126 76.980191 
L 329.767242 77.403745 
L 336.411523 77.670275 
L 343.409963 77.703723 
L 350.334638 77.490433 
L 358.080847 76.994245 
L 367.096311 76.171193 
L 377.440724 75.01666 
L 390.762474 73.306678 
L 401.325434 71.984592 
L 408.351599 71.33099 
L 412.123732 71.130245 
L 412.123732 71.130245 
" style="fill:none;stroke:#000000;stroke-linecap:square;stroke-opacity:0.7;stroke-width:1.2;"/>
   </g>
   <g id="line2d_16">
    <path clip-path="url(#p41851fe1af)" d="M 543.425579 227.803053 
L 537.582914 225.704243 
L 531.686742 223.816541 
L 525.73613 222.113095 
L 518.546366 220.305935 
L 512.591716 219.057868 
L 507.40808 218.189402 
L 502.234413 217.520195 
L 496.414169 216.967822 
L 489.902193 216.555116 
L 483.248444 216.332934 
L 477.386007 216.319429 
L 471.588109 216.52859 
L 466.964789 216.919308 
L 462.575104 217.546777 
L 458.9112 218.324171 
L 456.556807 218.977683 
L 453.322959 220.122234 
L 451.616028 220.868194 
L 449.504279 221.963896 
L 447.123968 223.505301 
L 445.519446 224.819602 
L 443.866827 226.627229 
L 443.140012 227.826557 
L 442.879711 228.532012 
L 442.796468 229.571534 
L 443.045186 230.325006 
L 443.350546 230.757343 
L 444.76818 231.781539 
L 445.394201 232.062669 
L 447.390823 232.699977 
L 449.618507 233.166443 
L 453.529836 233.67163 
L 457.167937 233.923312 
L 462.704636 234.034378 
L 469.698657 233.857438 
L 484.699042 233.356278 
L 501.373984 232.765933 
L 512.574957 232.150869 
L 522.736215 231.371313 
L 536.705513 230.290949 
L 542.261107 230.096562 
L 543.411189 230.112688 
L 543.411189 230.112688 
" style="fill:none;stroke:#000000;stroke-linecap:square;stroke-opacity:0.7;stroke-width:1.2;"/>
   </g>
   <g id="line2d_17">
    <path clip-path="url(#p41851fe1af)" d="M 542.905533 189.704155 
L 535.101313 187.871941 
L 527.113631 186.226115 
L 518.952018 184.79435 
L 510.481258 183.588706 
L 501.120551 182.534152 
L 484.790058 180.757479 
L 476.811935 179.803469 
L 472.938283 179.575446 
L 469.724971 179.625132 
L 466.140919 179.949255 
L 463.069772 180.431153 
L 459.116149 181.295838 
L 455.509172 182.307355 
L 452.730002 183.233335 
L 449.172623 184.630387 
L 446.001362 186.143519 
L 443.964168 187.336644 
L 442.317682 188.588757 
L 441.432612 189.768293 
L 441.390065 190.022156 
L 441.539844 190.402002 
L 441.938615 190.635082 
L 442.458921 190.740075 
L 443.792053 190.736632 
L 454.409639 189.796509 
L 458.87816 189.75977 
L 463.681247 189.952432 
L 470.696272 190.534463 
L 482.337985 191.554917 
L 490.129061 191.996971 
L 498.106836 192.233891 
L 507.43314 192.247826 
L 518.94393 191.979289 
L 541.678445 191.391955 
L 542.748455 191.387778 
L 542.748455 191.387778 
" style="fill:none;stroke:#000000;stroke-linecap:square;stroke-opacity:0.7;stroke-width:1.2;"/>
   </g>
   <g id="line2d_18">
    <path clip-path="url(#p41851fe1af)" d="M 542.995769 153.541588 
L 537.151487 151.551419 
L 529.695857 149.217158 
L 523.563256 147.488035 
L 518.103352 146.178483 
L 511.38071 144.867861 
L 489.384505 140.945623 
L 480.110981 139.126376 
L 476.290049 138.651608 
L 473.640878 138.520828 
L 470.047259 138.631381 
L 467.045585 138.963358 
L 463.5153 139.599523 
L 459.27445 140.672992 
L 455.425059 141.919183 
L 452.046529 143.233666 
L 448.595831 144.832062 
L 446.903866 145.743884 
L 444.154644 147.543146 
L 443.357172 148.212616 
L 442.315832 149.431967 
L 442.042012 150.116408 
L 442.104352 150.847951 
L 442.337386 151.241622 
L 443.013631 151.827937 
L 444.034298 152.362577 
L 445.610969 152.937573 
L 448.819014 153.765318 
L 452.494572 154.454168 
L 457.124229 155.083907 
L 462.231671 155.541789 
L 466.704453 155.766064 
L 472.851631 155.832007 
L 479.243286 155.647672 
L 490.398704 155.032089 
L 501.577071 154.511523 
L 510.767852 154.297847 
L 519.610451 154.314146 
L 530.627592 154.596322 
L 542.887915 154.881702 
L 542.887915 154.881702 
" style="fill:none;stroke:#000000;stroke-linecap:square;stroke-opacity:0.7;stroke-width:1.2;"/>
   </g>
   <g id="line2d_19">
    <path clip-path="url(#p41851fe1af)" d="M 543.546555 113.607651 
L 535.420906 112.058606 
L 524.643893 109.973664 
L 507.654328 106.552612 
L 500.332389 105.362258 
L 488.66591 103.741293 
L 477.468578 102.353751 
L 473.577738 102.018265 
L 469.688763 101.865001 
L 465.958362 101.935151 
L 462.58749 102.190163 
L 457.949513 102.825143 
L 453.671222 103.689802 
L 449.268867 104.871574 
L 446.406473 105.830148 
L 443.311268 107.106952 
L 441.466739 108.060671 
L 439.866505 109.125338 
L 438.903189 110.03535 
L 438.380072 110.88386 
L 438.26825 111.655915 
L 438.438615 112.210521 
L 438.648556 112.533632 
L 439.104934 112.992859 
L 440.318497 113.746846 
L 442.043938 114.441355 
L 442.535757 114.601225 
L 447.448195 115.777421 
L 452.429274 116.576992 
L 457.713562 117.195495 
L 463.734647 117.692845 
L 470.490114 118.022099 
L 476.254719 118.099655 
L 481.807294 117.959441 
L 487.468964 117.601992 
L 519.352096 115.162786 
L 526.590244 114.874532 
L 533.785425 114.797171 
L 539.78666 114.981864 
L 543.511971 115.312694 
L 543.511971 115.312694 
" style="fill:none;stroke:#000000;stroke-linecap:square;stroke-opacity:0.7;stroke-width:1.2;"/>
   </g>
   <g id="line2d_20">
    <path clip-path="url(#p41851fe1af)" d="M 542.924819 73.97292 
L 536.174245 70.676195 
L 529.176965 67.523647 
L 523.956049 65.429445 
L 520.558155 64.22804 
L 515.705642 62.793893 
L 512.538259 62.065377 
L 508.377277 61.37954 
L 504.989134 61.050246 
L 503.338223 60.961762 
L 498.740767 60.945355 
L 494.30279 61.212066 
L 488.859284 61.830564 
L 474.149089 63.77381 
L 469.843549 63.972652 
L 465.288864 63.95905 
L 457.361611 63.663074 
L 448.006567 63.357699 
L 444.70084 63.389232 
L 441.084973 63.650563 
L 440.010238 63.816998 
L 436.914572 64.987215 
L 436.435494 65.457957 
L 435.987064 66.364211 
L 436.142566 68.136722 
L 436.456307 68.821213 
L 437.451326 70.214177 
L 438.464585 71.232431 
L 440.667605 72.905358 
L 443.352946 74.430715 
L 444.991394 75.186857 
L 447.556117 76.173539 
L 450.858546 77.158382 
L 454.371407 77.916221 
L 458.325643 78.473585 
L 461.486883 78.735993 
L 466.383646 78.91041 
L 472.969457 78.894086 
L 485.434989 78.580394 
L 499.028935 78.002483 
L 529.528421 76.346517 
L 537.819048 75.7409 
L 542.700629 75.235298 
L 542.700629 75.235298 
" style="fill:none;stroke:#000000;stroke-linecap:square;stroke-opacity:0.7;stroke-width:1.2;"/>
   </g>
   <g id="line2d_21">
    <path clip-path="url(#p41851fe1af)" d="M 673.340105 227.848248 
L 662.416843 224.068306 
L 657.479523 222.595319 
L 653.315814 221.567393 
L 648.903399 220.710767 
L 643.744641 219.965736 
L 637.71116 219.31844 
L 613.554502 216.947561 
L 607.246923 216.363792 
L 603.92287 216.198142 
L 599.415019 216.240761 
L 595.872697 216.547311 
L 592.496025 217.100695 
L 591.723284 217.266635 
L 587.581685 218.436742 
L 585.410192 219.265529 
L 583.264326 220.261483 
L 580.557711 221.83101 
L 578.819112 223.078515 
L 576.604934 225.042405 
L 574.405309 227.602338 
L 574.248617 227.819942 
L 573.224716 229.585173 
L 573.025124 230.357733 
L 573.041473 230.799956 
L 573.597748 231.757169 
L 574.03124 232.097902 
L 574.725374 232.488822 
L 577.167476 233.347712 
L 579.044214 233.791329 
L 581.613125 234.260409 
L 587.250632 234.991304 
L 593.245424 235.510004 
L 599.339759 235.849464 
L 606.796759 236.025607 
L 613.375583 235.940095 
L 619.363376 235.660869 
L 626.177097 235.135058 
L 634.877208 234.197811 
L 644.493103 232.894019 
L 661.888948 230.447299 
L 667.787345 229.916512 
L 673.37711 229.693317 
L 673.37711 229.693317 
" style="fill:none;stroke:#000000;stroke-linecap:square;stroke-opacity:0.7;stroke-width:1.2;"/>
   </g>
   <g id="line2d_22">
    <path clip-path="url(#p41851fe1af)" d="M 674.675304 189.485175 
L 668.673323 186.687326 
L 661.167145 183.45565 
L 653.698355 180.491389 
L 649.154324 178.824128 
L 643.282485 176.901935 
L 638.618217 175.657802 
L 634.320327 174.789649 
L 630.077956 174.175961 
L 625.125295 173.673467 
L 617.181636 173.100711 
L 608.769559 172.685991 
L 603.496383 172.654499 
L 600.021365 172.819048 
L 596.209961 173.231337 
L 592.819797 173.841621 
L 589.991081 174.551054 
L 586.472227 175.723148 
L 585.470437 176.122825 
L 582.538611 177.489077 
L 579.941782 178.99606 
L 577.229751 180.990454 
L 575.490321 182.626224 
L 573.440552 185.31492 
L 572.712409 186.828107 
L 572.478588 187.54976 
L 572.25642 189.158587 
L 572.313629 189.865575 
L 572.863521 191.333063 
L 573.43514 192.01969 
L 574.317434 192.653595 
L 575.489853 193.129791 
L 576.524302 193.361797 
L 577.670052 193.493471 
L 580.851578 193.478082 
L 584.594561 193.124262 
L 592.363298 192.044413 
L 611.750702 189.2433 
L 621.327223 188.081069 
L 628.033514 187.469453 
L 634.42045 187.086176 
L 640.221477 186.938817 
L 645.401345 187.002497 
L 650.000538 187.239773 
L 655.744221 187.789266 
L 660.757192 188.470583 
L 668.97282 189.855342 
L 674.800851 190.999575 
L 674.800851 190.999575 
" style="fill:none;stroke:#000000;stroke-linecap:square;stroke-opacity:0.7;stroke-width:1.2;"/>
   </g>
   <g id="line2d_23">
    <path clip-path="url(#p41851fe1af)" d="M 674.516621 150.631195 
L 660.278515 146.539785 
L 642.608654 141.153076 
L 636.756779 139.759673 
L 631.110096 138.675523 
L 625.112354 137.783324 
L 619.149788 137.151622 
L 613.465436 136.799454 
L 609.309185 136.715908 
L 604.886857 136.812202 
L 600.674271 137.103686 
L 597.794157 137.425197 
L 593.0481 138.186891 
L 588.316373 139.255199 
L 584.363445 140.412602 
L 581.617667 141.38245 
L 578.120811 142.864753 
L 574.926252 144.562629 
L 572.501668 146.249812 
L 571.895748 146.780468 
L 570.695174 148.219273 
L 570.397931 148.976628 
L 570.624738 150.014967 
L 571.017304 150.381813 
L 571.902413 150.806022 
L 573.208347 151.116248 
L 575.037987 151.314352 
L 579.187407 151.37811 
L 585.359781 151.127458 
L 608.464187 149.881871 
L 617.264809 149.781985 
L 627.081815 149.908428 
L 638.593752 150.275402 
L 649.938749 150.862754 
L 674.409858 152.339124 
L 674.409858 152.339124 
" style="fill:none;stroke:#000000;stroke-linecap:square;stroke-opacity:0.7;stroke-width:1.2;"/>
   </g>
   <g id="line2d_24">
    <path clip-path="url(#p41851fe1af)" d="M 675.442362 111.589638 
L 667.568747 110.353352 
L 658.819262 108.761412 
L 633.805417 103.948723 
L 627.363475 103.039454 
L 618.454889 102.039 
L 603.113723 100.526858 
L 600.529065 100.599583 
L 597.751039 100.903838 
L 594.606486 101.474218 
L 590.685372 102.448065 
L 585.867772 103.981117 
L 583.270844 104.958378 
L 579.578575 106.558744 
L 575.952532 108.475429 
L 573.89311 109.867482 
L 573.006913 110.648425 
L 572.2476 111.918188 
L 572.336149 112.281232 
L 572.733458 112.605179 
L 573.00776 112.706452 
L 573.802536 112.838077 
L 576.06712 112.77758 
L 580.748014 112.209849 
L 585.953795 111.645324 
L 590.960665 111.370112 
L 595.381496 111.377618 
L 600.466821 111.657893 
L 608.493965 112.204519 
L 614.422605 112.28618 
L 623.173617 112.146207 
L 641.96582 111.797334 
L 650.172294 111.911691 
L 658.9143 112.288587 
L 670.432199 113.037102 
L 675.490909 113.4185 
L 675.490909 113.4185 
" style="fill:none;stroke:#000000;stroke-linecap:square;stroke-opacity:0.7;stroke-width:1.2;"/>
   </g>
   <g id="line2d_25">
    <path clip-path="url(#p41851fe1af)" d="M 674.907426 71.843802 
L 665.742507 68.223392 
L 654.694256 63.781692 
L 650.149472 62.170114 
L 645.229489 60.690485 
L 639.904204 59.396328 
L 635.222901 58.472995 
L 629.089172 57.496015 
L 622.470531 56.699237 
L 617.208173 56.269802 
L 612.058918 56.064913 
L 607.147443 56.118725 
L 602.939989 56.399413 
L 599.968175 56.745875 
L 595.36065 57.548704 
L 591.761227 58.417288 
L 588.17202 59.513067 
L 584.030674 61.100169 
L 581.692552 62.177374 
L 578.167476 64.128058 
L 576.149153 65.50056 
L 574.442676 66.919783 
L 573.276686 68.188891 
L 572.66812 69.163446 
L 572.522559 69.524786 
L 572.413935 70.501251 
L 572.711494 71.266632 
L 573.447519 72.018796 
L 574.157075 72.477167 
L 575.377075 73.058913 
L 576.19683 73.374596 
L 579.523147 74.36418 
L 582.72991 75.084811 
L 587.899564 75.979297 
L 593.231523 76.649066 
L 598.457881 77.088598 
L 603.936416 77.333592 
L 610.658757 77.380371 
L 618.498584 77.200464 
L 630.068646 76.683007 
L 649.663779 75.517261 
L 671.87697 74.073856 
L 674.927753 73.776825 
L 674.927753 73.776825 
" style="fill:none;stroke:#000000;stroke-linecap:square;stroke-opacity:0.7;stroke-width:1.2;"/>
   </g>
  </g>
 </g>
 <defs>
  <clipPath id="p41851fe1af">
   <rect height="262.08" width="694.08" x="12.96" y="12.96"/>
  </clipPath>
 </defs>
</svg>
