<?xml version="1.0" encoding="utf-8" standalone="no"?>
<!DOCTYPE svg PUBLIC "-//W3C//DTD SVG 1.1//EN"
  "http://www.w3.org/Graphics/SVG/1.1/DTD/svg11.dtd">
<!-- Created with matplotlib (https://matplotlib.org/) -->
<svg height="288pt" version="1.1" viewBox="0 0 720 288" width="720pt" xmlns="http://www.w3.org/2000/svg" xmlns:xlink="http://www.w3.org/1999/xlink">
 <metadata>
  <rdf:RDF xmlns:cc="http://creativecommons.org/ns#" xmlns:dc="http://purl.org/dc/elements/1.1/" xmlns:rdf="http://www.w3.org/1999/02/22-rdf-syntax-ns#">
   <cc:Work>
    <dc:type rdf:resource="http://purl.org/dc/dcmitype/StillImage"/>
    <dc:date>2021-04-26T14:56:05.253516</dc:date>
    <dc:format>image/svg+xml</dc:format>
    <dc:creator>
     <cc:Agent>
      <dc:title>Matplotlib v3.3.4, https://matplotlib.org/</dc:title>
     </cc:Agent>
    </dc:creator>
   </cc:Work>
  </rdf:RDF>
 </metadata>
 <defs>
  <style type="text/css">*{stroke-linecap:butt;stroke-linejoin:round;}</style>
 </defs>
 <g id="figure_1">
  <g id="patch_1">
   <path d="M 0 288 
L 720 288 
L 720 0 
L 0 0 
z
" style="fill:#ffffff;"/>
  </g>
  <g id="axes_1">
   <g id="line2d_1">
    <path clip-path="url(#p1d118e2fea)" d="M 148.093966 228.131238 
L 126.110019 225.513955 
L 112.358534 224.104737 
L 97.393609 222.811987 
L 85.915085 222.002347 
L 80.192648 221.779099 
L 75.840756 221.768438 
L 70.250903 222.005586 
L 65.23517 222.473525 
L 61.906328 222.922111 
L 56.563196 223.898849 
L 52.658999 224.8661 
L 49.801238 225.779479 
L 48.010489 226.497602 
L 46.153229 227.47358 
L 45.364797 228.047268 
L 44.651072 228.877785 
L 44.51021 229.490762 
L 44.631566 229.859947 
L 44.979054 230.242185 
L 45.61191 230.607928 
L 46.574872 230.93651 
L 48.442977 231.296267 
L 51.535008 231.581704 
L 56.233321 231.727392 
L 64.254706 231.677207 
L 109.976818 230.706423 
L 125.572495 229.951131 
L 148.104211 228.769169 
L 148.104211 228.769169 
" style="fill:none;stroke:#000000;stroke-linecap:square;stroke-opacity:0.7;stroke-width:1.2;"/>
   </g>
   <g id="line2d_2">
    <path clip-path="url(#p1d118e2fea)" d="M 148.122279 188.883335 
L 119.665964 186.226567 
L 102.237792 184.746159 
L 88.165698 183.773359 
L 81.728987 183.501498 
L 76.555852 183.46708 
L 71.756945 183.615875 
L 65.865406 184.036565 
L 60.355392 184.662611 
L 54.565695 185.591222 
L 50.228401 186.55341 
L 47.687019 187.335693 
L 46.205026 188.004784 
L 45.474048 188.587715 
L 45.307682 188.942765 
L 45.377804 189.313242 
L 45.694894 189.667597 
L 46.297029 190.031919 
L 47.489249 190.487768 
L 49.659572 191.029144 
L 52.897324 191.563857 
L 57.057351 192.015421 
L 63.164386 192.400163 
L 69.361594 192.568278 
L 78.812495 192.553038 
L 89.766003 192.296769 
L 101.115364 191.811471 
L 115.002736 190.958148 
L 128.644634 190.173688 
L 143.475016 189.576649 
L 148.125224 189.412196 
L 148.125224 189.412196 
" style="fill:none;stroke:#000000;stroke-linecap:square;stroke-opacity:0.7;stroke-width:1.2;"/>
   </g>
   <g id="line2d_3">
    <path clip-path="url(#p1d118e2fea)" d="M 147.985728 149.511475 
L 128.767456 148.082554 
L 84.008532 144.58459 
L 77.527732 144.373919 
L 73.020172 144.40969 
L 67.192648 144.700794 
L 63.24709 145.051305 
L 57.039837 145.851927 
L 51.85673 146.788694 
L 48.585097 147.57432 
L 46.273451 148.343522 
L 45.442107 148.76511 
L 44.933043 149.311536 
L 44.963541 149.605534 
L 45.221651 149.899467 
L 45.615578 150.146712 
L 47.100441 150.712119 
L 49.178941 151.238776 
L 53.19259 151.963214 
L 57.408966 152.505996 
L 63.410957 153.015093 
L 70.105737 153.30899 
L 106.541733 154.205009 
L 112.714914 154.064242 
L 118.904744 153.690287 
L 126.085717 153.032037 
L 134.390927 152.064118 
L 143.40115 150.806161 
L 147.981471 150.051483 
L 147.981471 150.051483 
" style="fill:none;stroke:#000000;stroke-linecap:square;stroke-opacity:0.7;stroke-width:1.2;"/>
   </g>
   <g id="line2d_4">
    <path clip-path="url(#p1d118e2fea)" d="M 148.731579 109.21044 
L 138.444786 106.224419 
L 128.644527 103.626195 
L 119.92616 101.565039 
L 112.182927 99.987874 
L 105.986361 98.949235 
L 100.146714 98.186047 
L 94.36076 97.650742 
L 89.292096 97.368299 
L 83.717254 97.274077 
L 78.129498 97.443167 
L 73.531539 97.821057 
L 68.754806 98.488497 
L 64.834341 99.280794 
L 61.18146 100.247096 
L 57.559845 101.454344 
L 55.109466 102.434105 
L 52.294511 103.755061 
L 50.168779 104.92713 
L 48.244425 106.169535 
L 46.524534 107.51968 
L 45.253326 108.852326 
L 44.69001 109.812169 
L 44.574337 110.265469 
L 44.649817 110.859542 
L 44.791171 111.102915 
L 45.114116 111.409214 
L 45.953869 111.801749 
L 47.350987 112.081842 
L 49.34622 112.205937 
L 53.109003 112.10919 
L 58.19428 111.709255 
L 68.57444 110.597936 
L 78.727965 109.553717 
L 85.423493 109.068901 
L 92.743483 108.777855 
L 102.005991 108.645852 
L 114.717529 108.674418 
L 126.276831 108.918666 
L 139.915759 109.48155 
L 148.713988 109.9111 
L 148.713988 109.9111 
" style="fill:none;stroke:#000000;stroke-linecap:square;stroke-opacity:0.7;stroke-width:1.2;"/>
   </g>
   <g id="line2d_5">
    <path clip-path="url(#p1d118e2fea)" d="M 148.241215 70.191083 
L 129.12199 65.370819 
L 112.723546 61.266197 
L 104.958234 59.540002 
L 98.529044 58.310234 
L 92.532606 57.370729 
L 87.324889 56.753901 
L 81.986324 56.361994 
L 77.560688 56.262424 
L 73.391045 56.385092 
L 69.686703 56.686673 
L 65.674099 57.230689 
L 61.871204 57.968167 
L 58.445868 58.836274 
L 54.613802 60.082712 
L 51.534206 61.372598 
L 49.334137 62.542405 
L 47.494847 63.803653 
L 46.244555 64.954094 
L 45.337836 66.144995 
L 44.94147 66.924831 
L 44.679524 67.763575 
L 44.582202 68.590879 
L 44.784995 70.014962 
L 45.184786 70.952875 
L 45.927252 72.015852 
L 46.786993 72.863187 
L 47.540148 73.434728 
L 48.328863 73.923102 
L 49.472567 74.489615 
L 51.810338 75.297717 
L 54.316626 75.828239 
L 57.182143 76.170735 
L 60.550233 76.348752 
L 65.919564 76.343665 
L 73.044728 76.049911 
L 82.083126 75.439278 
L 94.521692 74.348192 
L 117.747103 72.225515 
L 128.27706 71.567064 
L 141.043699 71.033206 
L 148.20501 70.788469 
L 148.20501 70.788469 
" style="fill:none;stroke:#000000;stroke-linecap:square;stroke-opacity:0.7;stroke-width:1.2;"/>
   </g>
   <g id="line2d_6">
    <path clip-path="url(#p1d118e2fea)" d="M 279.851826 228.641071 
L 256.808746 222.06927 
L 247.369281 219.61698 
L 239.874291 217.893217 
L 233.062668 216.545862 
L 226.431454 215.458155 
L 220.683774 214.718465 
L 215.142961 214.229936 
L 210.43972 214.0412 
L 206.676308 214.077921 
L 203.044521 214.300465 
L 199.643002 214.696827 
L 196.452653 215.249758 
L 193.569115 215.912504 
L 189.576135 217.110555 
L 186.244614 218.395387 
L 183.32739 219.787372 
L 180.649524 221.377951 
L 178.7569 222.810428 
L 177.150398 224.512701 
L 176.816829 225.028086 
L 176.363825 226.331526 
L 176.428433 227.084884 
L 176.754866 227.729408 
L 177.216131 228.198232 
L 178.196473 228.777411 
L 179.646841 229.257835 
L 181.667511 229.614836 
L 184.334605 229.819721 
L 187.168904 229.861642 
L 192.44961 229.693192 
L 201.048886 229.130498 
L 218.090492 227.973782 
L 228.567114 227.499321 
L 239.144919 227.237035 
L 247.372495 227.25876 
L 254.795232 227.490779 
L 264.043019 228.023272 
L 279.828353 229.174487 
L 279.828353 229.174487 
" style="fill:none;stroke:#000000;stroke-linecap:square;stroke-opacity:0.7;stroke-width:1.2;"/>
   </g>
   <g id="line2d_7">
    <path clip-path="url(#p1d118e2fea)" d="M 280.461879 187.754156 
L 270.339028 184.982068 
L 259.746003 182.315151 
L 250.068271 180.116041 
L 241.694086 178.447546 
L 234.697941 177.280215 
L 227.962353 176.399309 
L 222.402336 175.887354 
L 217.113156 175.62424 
L 212.180752 175.625099 
L 208.004988 175.849144 
L 204.911975 176.1632 
L 200.575059 176.83099 
L 196.694178 177.664272 
L 192.354974 178.876914 
L 188.688888 180.163384 
L 185.350629 181.60284 
L 182.776774 182.974989 
L 181.312094 183.930182 
L 179.672674 185.315917 
L 179.217135 185.830785 
L 178.464606 187.132145 
L 178.309289 187.854449 
L 178.364176 188.624683 
L 178.768801 189.582093 
L 179.610478 190.573151 
L 180.745025 191.445205 
L 181.944042 192.13666 
L 184.11431 193.085559 
L 186.506349 193.867532 
L 188.962057 194.484707 
L 192.312394 195.111184 
L 196.595238 195.641627 
L 201.32154 195.954133 
L 206.423805 196.029574 
L 211.747251 195.860837 
L 217.870092 195.399163 
L 224.799872 194.601483 
L 233.674121 193.306153 
L 250.381471 190.801954 
L 257.106854 190.033938 
L 264.027663 189.4365 
L 273.776098 188.836046 
L 280.433861 188.513184 
L 280.433861 188.513184 
" style="fill:none;stroke:#000000;stroke-linecap:square;stroke-opacity:0.7;stroke-width:1.2;"/>
   </g>
   <g id="line2d_8">
    <path clip-path="url(#p1d118e2fea)" d="M 279.108417 149.577666 
L 247.352801 145.590074 
L 232.949175 143.595664 
L 214.769884 141.03064 
L 210.1767 140.624255 
L 205.774094 140.440866 
L 201.458649 140.483432 
L 197.486058 140.733574 
L 193.143663 141.266464 
L 189.556994 141.951235 
L 187.377501 142.50254 
L 184.746786 143.344129 
L 182.122352 144.445273 
L 180.321258 145.424306 
L 178.575576 146.66332 
L 177.443194 147.771975 
L 176.712302 148.902328 
L 176.525886 149.602122 
L 176.589545 150.16895 
L 176.820369 150.586715 
L 177.283511 150.993186 
L 178.33319 151.452249 
L 180.1022 151.808432 
L 183.348933 152.042213 
L 187.886003 152.065938 
L 197.304783 151.798232 
L 215.533107 151.243321 
L 251.37458 150.444355 
L 267.727873 150.123696 
L 279.107004 150.016272 
L 279.107004 150.016272 
" style="fill:none;stroke:#000000;stroke-linecap:square;stroke-opacity:0.7;stroke-width:1.2;"/>
   </g>
   <g id="line2d_9">
    <path clip-path="url(#p1d118e2fea)" d="M 280.021757 110.014283 
L 259.313528 105.931265 
L 248.615516 104.045365 
L 240.968292 102.898528 
L 233.892305 102.053031 
L 227.429601 101.49477 
L 220.639081 101.14618 
L 214.668404 101.065455 
L 209.15986 101.212997 
L 204.562837 101.521355 
L 199.455053 102.075343 
L 194.613233 102.816051 
L 190.023032 103.7315 
L 185.670134 104.837585 
L 182.402732 105.894228 
L 180.071177 106.869985 
L 178.394155 107.861482 
L 177.720116 108.502225 
L 177.491786 108.875687 
L 177.39223 109.376707 
L 177.505991 109.800957 
L 177.967638 110.373047 
L 178.628021 110.842606 
L 179.558816 111.3117 
L 181.929911 112.136527 
L 184.923824 112.850514 
L 187.691035 113.336026 
L 192.732721 113.941215 
L 197.192511 114.254703 
L 203.082067 114.430551 
L 210.461298 114.377529 
L 219.381329 114.061322 
L 230.959047 113.41248 
L 261.17126 111.558741 
L 280.023905 110.659201 
L 280.023905 110.659201 
" style="fill:none;stroke:#000000;stroke-linecap:square;stroke-opacity:0.7;stroke-width:1.2;"/>
   </g>
   <g id="line2d_10">
    <path clip-path="url(#p1d118e2fea)" d="M 279.135362 70.492792 
L 270.901306 68.7496 
L 248.266431 64.064355 
L 237.172852 61.498786 
L 221.336193 57.794394 
L 217.121371 57.0587 
L 213.870214 56.666005 
L 209.353187 56.416572 
L 205.978059 56.458751 
L 201.407306 56.81615 
L 197.82901 57.332263 
L 193.813516 58.169034 
L 190.610003 59.057257 
L 187.729976 60.062112 
L 185.322121 61.100295 
L 183.41199 62.103599 
L 181.530775 63.325762 
L 179.987901 64.614932 
L 179.264528 65.373188 
L 178.195744 66.873797 
L 177.65953 68.155254 
L 177.518834 69.087802 
L 177.606814 69.841217 
L 177.823661 70.381682 
L 178.125791 70.812612 
L 178.642525 71.281096 
L 179.771981 71.873955 
L 180.438533 72.094851 
L 182.372723 72.478404 
L 184.240226 72.646952 
L 187.940755 72.689981 
L 193.106661 72.434802 
L 213.48535 71.054505 
L 220.308428 70.938934 
L 229.934561 71.036444 
L 248.879171 71.308446 
L 263.924354 71.259421 
L 277.867919 71.004758 
L 279.123496 70.962054 
L 279.123496 70.962054 
" style="fill:none;stroke:#000000;stroke-linecap:square;stroke-opacity:0.7;stroke-width:1.2;"/>
   </g>
   <g id="line2d_11">
    <path clip-path="url(#p1d118e2fea)" d="M 410.954369 227.718234 
L 389.402829 224.237436 
L 365.980762 220.634337 
L 356.441719 219.38617 
L 350.255759 218.778784 
L 345.902719 218.513308 
L 341.219257 218.43078 
L 336.779555 218.585149 
L 332.142105 219.015857 
L 327.826743 219.679913 
L 323.995247 220.493874 
L 319.456495 221.756014 
L 315.717246 223.082579 
L 312.555852 224.481582 
L 310.434224 225.656556 
L 308.775352 226.881043 
L 308.165247 227.558742 
L 307.935382 227.995857 
L 307.945167 228.609961 
L 308.314341 229.009457 
L 308.855695 229.263887 
L 310.285115 229.551466 
L 311.88376 229.649552 
L 314.671102 229.606116 
L 320.332318 229.191673 
L 342.762091 227.17687 
L 349.329593 226.949315 
L 357.472043 226.904526 
L 380.801715 227.089212 
L 391.86757 227.389167 
L 405.218259 227.993611 
L 410.920977 228.288828 
L 410.920977 228.288828 
" style="fill:none;stroke:#000000;stroke-linecap:square;stroke-opacity:0.7;stroke-width:1.2;"/>
   </g>
   <g id="line2d_12">
    <path clip-path="url(#p1d118e2fea)" d="M 411.390278 188.183712 
L 386.783029 185.972676 
L 377.391797 184.833882 
L 364.867537 183.064686 
L 353.957651 181.564581 
L 347.765872 180.948772 
L 342.349717 180.675771 
L 338.380642 180.66766 
L 333.976659 180.862619 
L 329.163854 181.330951 
L 324.89001 181.986804 
L 321.643614 182.657452 
L 318.299993 183.540559 
L 315.323111 184.549174 
L 312.602469 185.761092 
L 310.647174 186.971304 
L 309.746915 187.775436 
L 309.218062 188.534557 
L 309.075583 189.260054 
L 309.282777 189.787931 
L 309.799493 190.253083 
L 310.680252 190.658893 
L 312.135038 191.019527 
L 314.048734 191.264324 
L 318.187092 191.434866 
L 323.681979 191.348533 
L 333.536286 190.892396 
L 351.142673 190.06243 
L 390.367856 188.640757 
L 400.772254 188.661648 
L 411.384999 188.829585 
L 411.384999 188.829585 
" style="fill:none;stroke:#000000;stroke-linecap:square;stroke-opacity:0.7;stroke-width:1.2;"/>
   </g>
   <g id="line2d_13">
    <path clip-path="url(#p1d118e2fea)" d="M 410.990436 149.262097 
L 383.266355 146.53418 
L 367.9113 144.748889 
L 349.228345 142.545921 
L 343.632729 142.166114 
L 338.35413 142.076265 
L 333.665378 142.233873 
L 328.852977 142.621555 
L 324.830164 143.117305 
L 320.054946 143.920376 
L 316.379609 144.729803 
L 313.463148 145.542047 
L 310.73854 146.543248 
L 309.321215 147.268808 
L 308.270655 148.096855 
L 307.863129 148.791669 
L 307.829597 149.203515 
L 308.05106 149.785201 
L 308.574874 150.34986 
L 309.262479 150.825359 
L 311.037342 151.648381 
L 313.495011 152.415512 
L 316.584942 153.095877 
L 320.287357 153.670608 
L 325.27132 154.180005 
L 331.600454 154.543066 
L 338.529869 154.716686 
L 348.090483 154.733778 
L 357.571872 154.525126 
L 365.749438 154.11323 
L 373.419935 153.512864 
L 384.469323 152.403709 
L 406.011986 150.236405 
L 410.972148 149.773245 
L 410.972148 149.773245 
" style="fill:none;stroke:#000000;stroke-linecap:square;stroke-opacity:0.7;stroke-width:1.2;"/>
   </g>
   <g id="line2d_14">
    <path clip-path="url(#p1d118e2fea)" d="M 411.459895 110.476677 
L 391.438403 108.019691 
L 375.534598 105.781087 
L 362.078848 103.958194 
L 354.661767 103.156633 
L 348.948593 102.725167 
L 343.601766 102.542189 
L 339.233495 102.597936 
L 335.076634 102.841258 
L 330.299342 103.347597 
L 325.030057 104.169756 
L 321.043052 104.969844 
L 316.14396 106.187412 
L 312.765777 107.240551 
L 310.370071 108.201303 
L 309.324748 108.766586 
L 308.684414 109.277118 
L 308.50034 109.542126 
L 308.476784 109.913111 
L 308.778187 110.234113 
L 309.414292 110.49992 
L 310.496506 110.720901 
L 312.781211 110.903792 
L 316.194668 110.912849 
L 321.420589 110.680818 
L 343.320589 109.399858 
L 350.145927 109.400495 
L 357.563538 109.647122 
L 387.510329 110.95545 
L 399.198593 111.084565 
L 411.017092 110.989604 
L 411.524965 110.978635 
L 411.524965 110.978635 
" style="fill:none;stroke:#000000;stroke-linecap:square;stroke-opacity:0.7;stroke-width:1.2;"/>
   </g>
   <g id="line2d_15">
    <path clip-path="url(#p1d118e2fea)" d="M 411.558615 70.684008 
L 393.468415 69.208233 
L 381.448977 67.994196 
L 362.399444 66.034892 
L 354.65446 65.449769 
L 348.157151 65.16745 
L 342.39699 65.155452 
L 337.580904 65.350747 
L 332.265291 65.778256 
L 326.068476 66.520713 
L 319.54035 67.553177 
L 314.196668 68.620676 
L 311.265972 69.377372 
L 309.820689 69.908098 
L 309.230482 70.333974 
L 309.213456 70.546895 
L 309.446224 70.755823 
L 310.124241 70.994009 
L 312.039537 71.298844 
L 315.690851 71.546679 
L 320.994242 71.657813 
L 330.302641 71.589753 
L 356.708428 71.283669 
L 392.450301 71.168736 
L 411.556261 71.291881 
L 411.556261 71.291881 
" style="fill:none;stroke:#000000;stroke-linecap:square;stroke-opacity:0.7;stroke-width:1.2;"/>
   </g>
   <g id="line2d_16">
    <path clip-path="url(#p1d118e2fea)" d="M 543.214352 228.063687 
L 531.28295 224.336436 
L 521.331255 221.453092 
L 511.651501 218.865433 
L 503.060645 216.801085 
L 496.530519 215.458189 
L 490.902754 214.528571 
L 486.203082 213.95884 
L 481.713327 213.622935 
L 477.227843 213.520272 
L 473.079862 213.659554 
L 469.639403 213.965581 
L 466.124402 214.47503 
L 463.313963 215.038149 
L 459.31968 216.099825 
L 455.824505 217.30812 
L 452.351169 218.805528 
L 448.856976 220.673756 
L 446.154984 222.448852 
L 444.333522 223.886541 
L 442.868572 225.280061 
L 442.073466 226.201123 
L 441.050904 227.901179 
L 440.832543 228.837913 
L 440.944516 229.583637 
L 441.266073 230.103897 
L 441.689927 230.470874 
L 442.548869 230.898847 
L 443.943497 231.260887 
L 446.178033 231.507647 
L 450.000806 231.551991 
L 455.483389 231.286606 
L 466.648987 230.404037 
L 475.735945 229.79198 
L 481.448617 229.583584 
L 490.240342 229.517213 
L 516.347682 229.548523 
L 528.110628 229.248716 
L 540.170678 228.733132 
L 543.234385 228.555011 
L 543.234385 228.555011 
" style="fill:none;stroke:#000000;stroke-linecap:square;stroke-opacity:0.7;stroke-width:1.2;"/>
   </g>
   <g id="line2d_17">
    <path clip-path="url(#p1d118e2fea)" d="M 542.993375 188.303846 
L 520.749766 185.714668 
L 485.034628 181.293643 
L 479.239966 180.836901 
L 473.587654 180.624268 
L 468.485933 180.686035 
L 463.400357 181.019661 
L 458.300964 181.653072 
L 453.930517 182.466778 
L 450.642708 183.279838 
L 447.111735 184.412131 
L 444.391934 185.562627 
L 442.797561 186.431382 
L 441.379723 187.447651 
L 440.498583 188.382264 
L 440.138886 189.061206 
L 440.062484 189.692649 
L 440.189356 190.114886 
L 440.661735 190.670826 
L 441.218416 191.019689 
L 441.966001 191.324559 
L 443.88314 191.767342 
L 446.631163 192.053043 
L 450.499868 192.165859 
L 456.267337 192.054676 
L 465.802331 191.579639 
L 479.989032 190.854963 
L 498.162453 190.28538 
L 537.042471 189.040463 
L 542.971138 188.943895 
L 542.971138 188.943895 
" style="fill:none;stroke:#000000;stroke-linecap:square;stroke-opacity:0.7;stroke-width:1.2;"/>
   </g>
   <g id="line2d_18">
    <path clip-path="url(#p1d118e2fea)" d="M 543.102668 149.541789 
L 514.158417 143.944811 
L 502.554128 141.891198 
L 493.481025 140.498062 
L 486.766029 139.656529 
L 480.224063 139.066587 
L 474.756551 138.824286 
L 470.088185 138.858682 
L 465.509825 139.152446 
L 461.442034 139.653106 
L 456.841426 140.506856 
L 452.474082 141.612265 
L 448.819034 142.776753 
L 445.513621 144.053396 
L 442.815159 145.313298 
L 440.657114 146.56908 
L 439.348798 147.596817 
L 438.71531 148.40874 
L 438.590269 148.837282 
L 438.671745 149.238683 
L 438.918141 149.536369 
L 439.708528 149.940957 
L 440.360666 150.113068 
L 442.203441 150.342837 
L 445.65723 150.381744 
L 450.962704 150.075392 
L 459.41838 149.256156 
L 473.944408 147.794605 
L 479.953135 147.431502 
L 486.647103 147.287917 
L 494.241008 147.379461 
L 503.91545 147.729036 
L 515.170423 148.350059 
L 543.121715 150.092428 
L 543.121715 150.092428 
" style="fill:none;stroke:#000000;stroke-linecap:square;stroke-opacity:0.7;stroke-width:1.2;"/>
   </g>
   <g id="line2d_19">
    <path clip-path="url(#p1d118e2fea)" d="M 542.785964 109.405043 
L 524.037414 107.553767 
L 507.415783 106.127257 
L 479.118089 103.996567 
L 473.148712 103.722756 
L 467.620942 103.713878 
L 462.887547 103.910216 
L 457.924711 104.316741 
L 453.781589 104.822813 
L 449.916995 105.46012 
L 446.285793 106.271948 
L 444.041849 106.96324 
L 442.592801 107.58975 
L 441.670134 108.21489 
L 441.305313 108.701882 
L 441.257577 109.222201 
L 441.489358 109.649267 
L 441.823501 109.962247 
L 442.846146 110.537477 
L 444.350074 111.060712 
L 446.72006 111.590437 
L 449.143274 111.941799 
L 453.663883 112.311388 
L 458.464644 112.459977 
L 465.764001 112.426328 
L 481.793471 112.014402 
L 497.204708 111.448084 
L 527.836326 110.111692 
L 540.902561 109.95855 
L 542.748102 109.947333 
L 542.748102 109.947333 
" style="fill:none;stroke:#000000;stroke-linecap:square;stroke-opacity:0.7;stroke-width:1.2;"/>
   </g>
   <g id="line2d_20">
    <path clip-path="url(#p1d118e2fea)" d="M 542.74711 70.629943 
L 492.87192 65.125101 
L 478.841436 63.408097 
L 474.545735 63.057053 
L 469.83104 62.873579 
L 465.851961 62.910173 
L 461.549765 63.160418 
L 457.358787 63.627741 
L 453.209282 64.335058 
L 450.266449 65.01568 
L 446.877936 66.048472 
L 444.272814 67.118448 
L 442.167379 68.316887 
L 440.916173 69.407134 
L 440.475305 70.131734 
L 440.413196 70.5914 
L 440.633406 71.083914 
L 440.987233 71.372532 
L 441.668767 71.666376 
L 442.807953 71.912991 
L 444.620422 72.072815 
L 448.167341 72.077633 
L 454.599293 71.736128 
L 472.763761 70.560439 
L 479.571941 70.398853 
L 487.838726 70.444145 
L 526.785604 70.967013 
L 542.739218 71.116566 
L 542.739218 71.116566 
" style="fill:none;stroke:#000000;stroke-linecap:square;stroke-opacity:0.7;stroke-width:1.2;"/>
   </g>
   <g id="line2d_21">
    <path clip-path="url(#p1d118e2fea)" d="M 675.486263 226.957637 
L 664.76422 224.043892 
L 649.806314 220.24606 
L 634.946751 216.657383 
L 627.333723 215.05759 
L 621.853756 214.11892 
L 616.390756 213.423984 
L 611.327513 213.043068 
L 606.981111 212.959171 
L 603.051954 213.112031 
L 599.492675 213.46601 
L 595.740225 214.087393 
L 592.666548 214.802762 
L 589.030648 215.90724 
L 585.955244 217.077727 
L 582.647513 218.610225 
L 579.756432 220.234806 
L 577.345781 221.874977 
L 575.483938 223.435939 
L 574.296412 224.696096 
L 573.776821 225.386892 
L 573.00446 226.983869 
L 572.906211 227.787798 
L 573.03288 228.456003 
L 573.400198 229.092643 
L 573.867958 229.541285 
L 574.872471 230.115178 
L 575.727685 230.422627 
L 577.486199 230.811728 
L 580.40467 231.100787 
L 583.097925 231.166889 
L 588.293641 231.021877 
L 595.627859 230.525042 
L 631.562404 227.707579 
L 641.321781 227.165473 
L 648.419691 226.956579 
L 657.003465 226.958183 
L 667.269039 227.227127 
L 675.490909 227.538678 
L 675.490909 227.538678 
" style="fill:none;stroke:#000000;stroke-linecap:square;stroke-opacity:0.7;stroke-width:1.2;"/>
   </g>
   <g id="line2d_22">
    <path clip-path="url(#p1d118e2fea)" d="M 675.005774 187.903621 
L 661.225354 186.995358 
L 641.284791 185.681278 
L 626.363548 184.439853 
L 613.203762 183.39259 
L 607.32012 183.132561 
L 602.158009 183.093005 
L 596.369884 183.282838 
L 590.818139 183.704085 
L 585.68075 184.318317 
L 580.970412 185.118711 
L 577.72355 185.8747 
L 575.602615 186.541915 
L 574.374525 187.067748 
L 573.448681 187.653566 
L 572.980088 188.240366 
L 572.92409 188.66961 
L 573.075517 189.051016 
L 573.616385 189.593159 
L 574.808098 190.253675 
L 576.052698 190.725733 
L 577.94496 191.262105 
L 581.605485 191.979079 
L 585.939731 192.515197 
L 590.609061 192.849528 
L 596.440089 193.015611 
L 603.145338 192.947044 
L 610.091966 192.646609 
L 618.794651 192.015058 
L 629.570914 190.975793 
L 644.876348 189.49314 
L 652.695218 188.993851 
L 661.052346 188.695119 
L 671.313086 188.554417 
L 674.982201 188.539684 
L 674.982201 188.539684 
" style="fill:none;stroke:#000000;stroke-linecap:square;stroke-opacity:0.7;stroke-width:1.2;"/>
   </g>
   <g id="line2d_23">
    <path clip-path="url(#p1d118e2fea)" d="M 674.503087 149.74418 
L 665.246103 148.672251 
L 636.938292 145.549838 
L 620.730669 143.410066 
L 611.98223 142.331892 
L 606.018341 141.841544 
L 601.611925 141.681598 
L 596.861178 141.717863 
L 592.244441 141.963455 
L 587.342358 142.467263 
L 582.634024 143.238128 
L 579.609769 143.939407 
L 577.065953 144.721925 
L 575.010422 145.567023 
L 573.606514 146.344772 
L 572.390426 147.317365 
L 571.857979 147.997486 
L 571.546461 148.861077 
L 571.625752 149.609425 
L 571.994239 150.253631 
L 572.415182 150.673671 
L 572.873321 151.007329 
L 574.558241 151.800797 
L 576.511515 152.355468 
L 579.463787 152.869407 
L 583.212185 153.232759 
L 587.855322 153.438414 
L 594.908185 153.466696 
L 604.7022 153.219306 
L 621.041757 152.529626 
L 641.365821 151.4219 
L 655.039359 150.757668 
L 668.638147 150.340205 
L 674.506803 150.218681 
L 674.506803 150.218681 
" style="fill:none;stroke:#000000;stroke-linecap:square;stroke-opacity:0.7;stroke-width:1.2;"/>
   </g>
   <g id="line2d_24">
    <path clip-path="url(#p1d118e2fea)" d="M 674.968703 109.551573 
L 648.144146 104.420605 
L 640.032435 103.169327 
L 633.35322 102.357025 
L 626.700881 101.778206 
L 619.966577 101.429766 
L 613.450856 101.302321 
L 606.668205 101.385886 
L 600.386915 101.686767 
L 594.354888 102.207908 
L 588.424265 102.967757 
L 583.530452 103.810372 
L 579.234684 104.763235 
L 575.766188 105.764889 
L 573.320093 106.724738 
L 571.907905 107.529502 
L 571.077022 108.339185 
L 570.858916 108.849512 
L 570.893827 109.41876 
L 570.967509 109.602624 
L 571.543476 110.318203 
L 572.229602 110.823821 
L 573.575966 111.524307 
L 576.335715 112.50868 
L 579.452314 113.291513 
L 582.930687 113.935745 
L 588.539678 114.648118 
L 593.413659 115.040257 
L 599.580171 115.329022 
L 607.749193 115.485184 
L 617.569497 115.461194 
L 626.064963 115.220911 
L 633.877604 114.761274 
L 641.742485 114.08232 
L 654.186852 112.75364 
L 672.824112 110.525027 
L 674.969023 110.23957 
L 674.969023 110.23957 
" style="fill:none;stroke:#000000;stroke-linecap:square;stroke-opacity:0.7;stroke-width:1.2;"/>
   </g>
   <g id="line2d_25">
    <path clip-path="url(#p1d118e2fea)" d="M 675.267992 70.231205 
L 645.771358 63.756282 
L 636.467735 61.903832 
L 629.602354 60.741743 
L 623.175337 59.880457 
L 617.318348 59.327621 
L 611.713541 59.047185 
L 607.165504 59.03516 
L 602.302596 59.275404 
L 598.859607 59.62301 
L 595.25167 60.157519 
L 590.729541 61.086605 
L 586.380617 62.268925 
L 582.345685 63.649636 
L 579.685334 64.741545 
L 577.193196 65.941462 
L 574.676956 67.432468 
L 573.055562 68.722334 
L 572.180337 69.856794 
L 572.025242 70.582026 
L 572.142384 70.967193 
L 572.554134 71.41684 
L 573.202385 71.765323 
L 574.349376 72.101672 
L 576.479937 72.400006 
L 579.66189 72.546559 
L 583.764814 72.516566 
L 591.016743 72.215613 
L 615.827097 70.982909 
L 627.440028 70.781763 
L 644.300447 70.730795 
L 675.277917 70.89383 
L 675.277917 70.89383 
" style="fill:none;stroke:#000000;stroke-linecap:square;stroke-opacity:0.7;stroke-width:1.2;"/>
   </g>
  </g>
 </g>
 <defs>
  <clipPath id="p1d118e2fea">
   <rect height="262.08" width="694.08" x="12.96" y="12.96"/>
  </clipPath>
 </defs>
</svg>
