<?xml version="1.0" encoding="utf-8" standalone="no"?>
<!DOCTYPE svg PUBLIC "-//W3C//DTD SVG 1.1//EN"
  "http://www.w3.org/Graphics/SVG/1.1/DTD/svg11.dtd">
<!-- Created with matplotlib (https://matplotlib.org/) -->
<svg height="288pt" version="1.1" viewBox="0 0 720 288" width="720pt" xmlns="http://www.w3.org/2000/svg" xmlns:xlink="http://www.w3.org/1999/xlink">
 <metadata>
  <rdf:RDF xmlns:cc="http://creativecommons.org/ns#" xmlns:dc="http://purl.org/dc/elements/1.1/" xmlns:rdf="http://www.w3.org/1999/02/22-rdf-syntax-ns#">
   <cc:Work>
    <dc:type rdf:resource="http://purl.org/dc/dcmitype/StillImage"/>
    <dc:date>2021-04-26T14:53:08.745183</dc:date>
    <dc:format>image/svg+xml</dc:format>
    <dc:creator>
     <cc:Agent>
      <dc:title>Matplotlib v3.3.4, https://matplotlib.org/</dc:title>
     </cc:Agent>
    </dc:creator>
   </cc:Work>
  </rdf:RDF>
 </metadata>
 <defs>
  <style type="text/css">*{stroke-linecap:butt;stroke-linejoin:round;}</style>
 </defs>
 <g id="figure_1">
  <g id="patch_1">
   <path d="M 0 288 
L 720 288 
L 720 0 
L 0 0 
z
" style="fill:#ffffff;"/>
  </g>
  <g id="axes_1">
   <g id="line2d_1">
    <path clip-path="url(#pbdcea7cd02)" d="M 151.722968 222.673669 
L 145.209226 221.844612 
L 142.021661 221.56548 
L 137.716048 221.420651 
L 133.751407 221.508225 
L 118.847056 222.093286 
L 114.385031 221.994531 
L 107.887281 221.617647 
L 97.112118 220.677596 
L 88.719252 219.994809 
L 82.583298 219.720384 
L 78.430268 219.710498 
L 73.078871 219.953781 
L 69.5169 220.290961 
L 64.847345 220.966103 
L 60.764335 221.809392 
L 57.805389 222.616298 
L 55.62149 223.374868 
L 53.763461 224.24086 
L 52.9318 224.848866 
L 52.726885 225.262966 
L 53.030791 225.606136 
L 53.64387 225.808558 
L 55.072988 226.039132 
L 58.984183 226.354849 
L 65.785487 226.60723 
L 74.362311 226.674014 
L 84.955407 226.757086 
L 105.191551 227.123725 
L 113.491514 227.030593 
L 120.109625 226.773396 
L 127.428102 226.234555 
L 136.107507 225.290818 
L 143.514055 224.564232 
L 150.799748 224.130636 
L 151.754262 224.082884 
L 151.754262 224.082884 
" style="fill:none;stroke:#000000;stroke-linecap:square;stroke-opacity:0.7;stroke-width:1.2;"/>
   </g>
   <g id="line2d_2">
    <path clip-path="url(#pbdcea7cd02)" d="M 152.164255 183.073839 
L 146.512423 183.116879 
L 137.470443 182.903361 
L 127.389645 182.453847 
L 96.944373 180.818989 
L 86.71966 180.581507 
L 79.413307 180.611922 
L 74.308644 180.852695 
L 70.085249 181.264299 
L 65.623704 181.932073 
L 60.746676 182.917791 
L 55.565189 184.217415 
L 50.201388 185.820426 
L 46.996778 187.001331 
L 46.047872 187.536654 
L 45.906503 187.758104 
L 46.063863 187.95784 
L 46.795738 188.151094 
L 48.632734 188.306244 
L 54.156026 188.426505 
L 69.210861 188.675845 
L 89.16543 189.185076 
L 95.004463 189.015271 
L 101.182254 188.630382 
L 109.79394 187.848608 
L 119.922817 186.69528 
L 136.271914 184.788765 
L 142.649332 184.333625 
L 148.075467 184.18736 
L 152.017344 184.284335 
L 152.017344 184.284335 
" style="fill:none;stroke:#000000;stroke-linecap:square;stroke-opacity:0.7;stroke-width:1.2;"/>
   </g>
   <g id="line2d_3">
    <path clip-path="url(#pbdcea7cd02)" d="M 150.886172 145.965615 
L 146.303019 145.271287 
L 142.69877 144.562283 
L 137.466334 143.256242 
L 128.350094 140.848428 
L 124.345717 140.042861 
L 121.257925 139.575462 
L 116.973886 139.133147 
L 111.528915 138.851811 
L 104.811586 138.808417 
L 96.470152 139.016528 
L 68.262459 140.071446 
L 63.313572 140.651315 
L 60.164413 141.210696 
L 57.182533 141.925022 
L 53.817676 143.03161 
L 52.078805 143.794946 
L 50.603527 144.635901 
L 49.505907 145.572874 
L 49.356862 145.771852 
L 49.143351 146.602058 
L 49.252522 146.871485 
L 49.725656 147.333432 
L 50.410568 147.683296 
L 51.998657 148.144405 
L 54.078971 148.482137 
L 56.616756 148.713214 
L 61.23569 148.867655 
L 67.316523 148.761482 
L 73.678381 148.401051 
L 82.944761 147.593612 
L 97.988061 146.246297 
L 107.905962 145.60329 
L 119.545221 145.085049 
L 127.511677 144.906499 
L 133.568981 144.93743 
L 138.962182 145.157053 
L 143.968959 145.576261 
L 147.949837 146.108364 
L 151.118977 146.756223 
L 151.118977 146.756223 
" style="fill:none;stroke:#000000;stroke-linecap:square;stroke-opacity:0.7;stroke-width:1.2;"/>
   </g>
   <g id="line2d_4">
    <path clip-path="url(#pbdcea7cd02)" d="M 151.742721 103.952957 
L 142.598604 103.961452 
L 126.037059 104.19801 
L 116.630222 103.993283 
L 87.174324 103.186538 
L 76.588432 103.139432 
L 69.324948 103.34706 
L 64.971164 103.635429 
L 60.190903 104.140351 
L 55.35727 104.900986 
L 52.456464 105.51172 
L 48.67989 106.557723 
L 47.050098 107.151432 
L 45.177615 108.099447 
L 44.614003 108.615149 
L 44.509091 109.044382 
L 44.709912 109.318868 
L 45.375415 109.63314 
L 46.591403 109.894365 
L 48.931336 110.134762 
L 54.524199 110.385736 
L 69.402762 110.959531 
L 81.505175 111.469944 
L 87.676783 111.423171 
L 95.710045 111.055011 
L 109.694983 110.132632 
L 121.2264 109.174119 
L 130.824567 108.134782 
L 151.605443 105.561272 
L 151.605443 105.561272 
" style="fill:none;stroke:#000000;stroke-linecap:square;stroke-opacity:0.7;stroke-width:1.2;"/>
   </g>
   <g id="line2d_5">
    <path clip-path="url(#pbdcea7cd02)" d="M 152.201173 67.756345 
L 140.9147 66.565034 
L 132.689656 65.825992 
L 125.847052 65.455514 
L 101.927656 64.517766 
L 90.673446 64.295379 
L 81.989758 64.344121 
L 74.691572 64.599609 
L 68.124248 65.049038 
L 62.344735 65.664827 
L 57.253389 66.446992 
L 54.054582 67.133387 
L 52.118131 67.705322 
L 50.380293 68.570493 
L 50.243405 68.701916 
L 50.045855 69.256521 
L 50.187366 69.541263 
L 50.670034 69.939914 
L 51.630656 70.387226 
L 53.276539 70.874995 
L 54.665455 71.16639 
L 58.39409 71.664478 
L 62.42214 71.911734 
L 66.578287 71.94611 
L 70.469233 71.813824 
L 76.317378 71.366525 
L 84.879761 70.404574 
L 91.924415 69.715976 
L 98.851125 69.252995 
L 110.126281 68.751543 
L 127.915148 68.196073 
L 135.57608 68.129688 
L 140.952091 68.296409 
L 145.840994 68.635553 
L 152.349274 69.26702 
L 152.349274 69.26702 
" style="fill:none;stroke:#000000;stroke-linecap:square;stroke-opacity:0.7;stroke-width:1.2;"/>
   </g>
   <g id="line2d_6">
    <path clip-path="url(#pbdcea7cd02)" d="M 282.296508 222.013903 
L 270.243845 219.656655 
L 265.071851 218.838538 
L 259.184197 218.171314 
L 253.868529 217.803272 
L 248.609663 217.616726 
L 239.79414 217.557292 
L 204.679594 217.81511 
L 199.708672 218.246227 
L 195.555381 218.893026 
L 192.367507 219.631718 
L 189.75983 220.444772 
L 187.164997 221.50698 
L 185.421563 222.4132 
L 182.933789 224.064884 
L 179.583644 226.662474 
L 179.90275 226.745292 
L 181.609736 226.626344 
L 189.924517 225.625328 
L 198.975881 224.657942 
L 205.688593 224.192564 
L 213.647045 223.924993 
L 226.972831 223.515287 
L 240.089084 222.84192 
L 255.810815 222.01101 
L 261.791371 221.93175 
L 267.068606 222.085024 
L 272.480388 222.451566 
L 282.308566 223.365074 
L 282.308566 223.365074 
" style="fill:none;stroke:#000000;stroke-linecap:square;stroke-opacity:0.7;stroke-width:1.2;"/>
   </g>
   <g id="line2d_7">
    <path clip-path="url(#pbdcea7cd02)" d="M 282.958241 183.014014 
L 273.604807 181.080881 
L 267.404994 180.03193 
L 262.683229 179.46149 
L 256.369327 178.970835 
L 243.957537 178.347689 
L 224.917691 177.542006 
L 217.898263 177.454771 
L 210.806421 177.62144 
L 204.875977 178.030461 
L 198.866245 178.738279 
L 194.265064 179.492555 
L 189.782857 180.437276 
L 188.289571 180.811936 
L 184.060376 182.124887 
L 183.331407 182.406974 
L 180.336451 183.942558 
L 179.975011 184.209362 
L 178.84148 185.572616 
L 178.74234 186.342145 
L 178.960149 186.943656 
L 179.531655 187.595698 
L 180.197961 188.057503 
L 181.215049 188.535196 
L 183.117619 189.072995 
L 185.283318 189.392295 
L 188.404812 189.586165 
L 193.292638 189.609873 
L 202.03855 189.359164 
L 213.897642 188.855305 
L 222.725195 188.062891 
L 246.566581 185.536415 
L 258.605714 184.339111 
L 265.75466 183.850352 
L 271.693653 183.691922 
L 277.287461 183.787962 
L 282.160028 184.132074 
L 282.839526 184.213249 
L 282.839526 184.213249 
" style="fill:none;stroke:#000000;stroke-linecap:square;stroke-opacity:0.7;stroke-width:1.2;"/>
   </g>
   <g id="line2d_8">
    <path clip-path="url(#pbdcea7cd02)" d="M 282.596209 144.876357 
L 277.950149 145.411763 
L 273.585559 145.64537 
L 269.894014 145.554125 
L 267.225362 145.306644 
L 263.592813 144.747892 
L 258.224334 143.626739 
L 252.029733 142.339008 
L 246.920533 141.514983 
L 241.683053 140.899512 
L 234.729477 140.340134 
L 226.522035 139.902894 
L 212.498755 139.393788 
L 207.335431 139.387045 
L 202.617342 139.611799 
L 198.07383 140.098223 
L 194.79198 140.633027 
L 190.588267 141.568301 
L 187.144746 142.59199 
L 184.543136 143.600228 
L 182.153334 144.922335 
L 181.161437 145.869483 
L 180.867961 146.453115 
L 180.82077 146.97414 
L 180.96208 147.452067 
L 181.561129 148.207608 
L 182.381853 148.806267 
L 183.759998 149.501015 
L 184.486225 149.789909 
L 187.779974 150.756 
L 191.02525 151.375386 
L 194.113652 151.763851 
L 198.32426 152.0532 
L 202.506521 152.119969 
L 207.221623 151.985229 
L 213.909566 151.518687 
L 224.843568 150.439426 
L 257.010996 147.237588 
L 264.784353 146.628505 
L 270.309406 146.41639 
L 276.335317 146.466113 
L 281.497309 146.764741 
L 282.692204 146.870858 
L 282.692204 146.870858 
" style="fill:none;stroke:#000000;stroke-linecap:square;stroke-opacity:0.7;stroke-width:1.2;"/>
   </g>
   <g id="line2d_9">
    <path clip-path="url(#pbdcea7cd02)" d="M 282.401257 104.1433 
L 275.168418 103.132756 
L 265.237997 101.482999 
L 252.967512 99.419442 
L 247.000155 98.613571 
L 241.223018 98.082523 
L 236.071481 97.86292 
L 230.981121 97.882823 
L 226.700854 98.065156 
L 220.275974 98.582025 
L 215.452455 99.132058 
L 207.763459 100.238519 
L 198.850612 101.788726 
L 192.350037 103.107716 
L 187.867354 104.216729 
L 185.038752 105.105103 
L 182.956258 105.959503 
L 182.237444 106.331705 
L 181.062465 107.137407 
L 180.445975 107.88338 
L 180.314923 108.500264 
L 180.40477 108.809857 
L 180.956483 109.384397 
L 181.494062 109.660045 
L 182.84792 110.041733 
L 186.142405 110.378297 
L 191.22125 110.43152 
L 199.40529 110.187876 
L 206.829855 109.769203 
L 210.199811 109.379633 
L 220.437942 107.884585 
L 231.347649 106.572195 
L 243.587404 105.333385 
L 252.77324 104.584571 
L 260.816637 104.142268 
L 266.38389 104.031955 
L 272.3972 104.150676 
L 277.091712 104.426535 
L 282.423709 104.980806 
L 282.423709 104.980806 
" style="fill:none;stroke:#000000;stroke-linecap:square;stroke-opacity:0.7;stroke-width:1.2;"/>
   </g>
   <g id="line2d_10">
    <path clip-path="url(#pbdcea7cd02)" d="M 283.045246 64.249838 
L 276.604398 62.894681 
L 268.440551 60.937571 
L 260.360891 58.999644 
L 254.619942 57.867508 
L 249.852966 57.150823 
L 245.964953 56.717933 
L 239.697272 56.273004 
L 231.856674 56.051625 
L 223.60462 56.080696 
L 216.384239 56.253557 
L 205.916876 56.752532 
L 200.201649 57.237902 
L 195.974399 57.773183 
L 194.372602 58.029932 
L 189.108709 59.151016 
L 187.213024 59.685046 
L 183.945171 60.825552 
L 179.511708 63.06285 
L 178.016434 64.153712 
L 176.995087 65.111776 
L 176.141861 66.197994 
L 176.001781 66.427495 
L 175.485956 67.672667 
L 175.37812 68.580586 
L 175.563602 69.630509 
L 175.982276 70.458011 
L 176.3757 70.957195 
L 177.505015 71.900995 
L 178.904189 72.6291 
L 180.444089 73.146307 
L 181.66771 73.420974 
L 184.699379 73.757004 
L 186.592218 73.791497 
L 190.759562 73.564011 
L 196.000764 72.92398 
L 202.882561 71.829224 
L 210.743843 70.656825 
L 214.108347 70.39733 
L 218.837494 70.249331 
L 222.661351 69.775177 
L 230.923568 68.444759 
L 247.044081 65.866282 
L 254.752094 64.823449 
L 260.009614 64.268772 
L 265.501834 63.920357 
L 269.739821 63.871629 
L 274.479674 64.074156 
L 277.815104 64.397128 
L 281.256393 64.947391 
L 283.143173 65.41409 
L 283.143173 65.41409 
" style="fill:none;stroke:#000000;stroke-linecap:square;stroke-opacity:0.7;stroke-width:1.2;"/>
   </g>
   <g id="line2d_11">
    <path clip-path="url(#pbdcea7cd02)" d="M 413.999367 220.555013 
L 409.147389 220.201252 
L 405.672287 220.140646 
L 400.534892 220.298112 
L 388.891848 220.780112 
L 384.146926 220.751828 
L 379.039914 220.530925 
L 371.417584 219.934822 
L 354.507059 218.426569 
L 349.207705 218.150813 
L 344.528843 218.074139 
L 339.214619 218.220582 
L 333.931344 218.623222 
L 328.617554 219.272182 
L 323.281366 220.175402 
L 319.222656 221.073347 
L 315.041633 222.289678 
L 312.164828 223.42702 
L 310.002385 224.622823 
L 308.155877 226.454651 
L 307.898114 227.174316 
L 307.873844 227.496473 
L 308.020076 228.157022 
L 308.563751 228.901877 
L 309.620542 229.617435 
L 311.112265 230.19231 
L 312.902093 230.607203 
L 313.997682 230.778982 
L 318.334891 231.140187 
L 325.923165 231.311172 
L 336.094982 231.56518 
L 347.081928 231.960713 
L 352.055082 231.888705 
L 357.636919 231.562819 
L 364.80067 230.906018 
L 375.070509 229.721323 
L 385.200109 228.342891 
L 393.258209 227.032055 
L 400.581724 225.596401 
L 408.861904 223.702793 
L 413.942934 222.44096 
L 413.942934 222.44096 
" style="fill:none;stroke:#000000;stroke-linecap:square;stroke-opacity:0.7;stroke-width:1.2;"/>
   </g>
   <g id="line2d_12">
    <path clip-path="url(#pbdcea7cd02)" d="M 414.180739 182.499101 
L 409.799857 182.440447 
L 401.8727 182.062064 
L 394.248724 181.73506 
L 384.587495 181.585674 
L 366.790996 181.34425 
L 342.889364 180.92297 
L 337.598331 181.139988 
L 332.198419 181.589706 
L 326.732235 182.235804 
L 320.988211 183.1146 
L 316.907695 183.922613 
L 314.055555 184.703076 
L 312.847474 185.202278 
L 312.360652 185.506562 
L 311.964445 186.188657 
L 312.10559 186.509903 
L 312.714802 187.001917 
L 313.257458 187.276973 
L 315.098908 187.924808 
L 317.250164 188.464719 
L 320.944335 189.159831 
L 325.702294 189.814202 
L 331.512593 190.349382 
L 336.340423 190.560326 
L 340.446063 190.498219 
L 344.774424 190.162317 
L 352.870199 189.232115 
L 379.889336 185.812515 
L 393.681077 184.115981 
L 399.024204 183.654725 
L 403.738962 183.45506 
L 408.106432 183.465737 
L 414.157046 183.758267 
L 414.157046 183.758267 
" style="fill:none;stroke:#000000;stroke-linecap:square;stroke-opacity:0.7;stroke-width:1.2;"/>
   </g>
   <g id="line2d_13">
    <path clip-path="url(#pbdcea7cd02)" d="M 412.354046 143.135696 
L 399.060542 141.9651 
L 392.103319 141.06691 
L 379.813979 139.370823 
L 372.371175 138.616538 
L 365.791634 138.164351 
L 359.06137 137.898007 
L 352.198112 137.820454 
L 344.154771 137.984487 
L 338.124548 138.316101 
L 332.482417 138.829326 
L 327.461638 139.48652 
L 321.423027 140.574264 
L 317.533317 141.477187 
L 313.141709 142.73258 
L 310.210703 143.752998 
L 307.474515 144.905911 
L 305.621833 145.884658 
L 304.316169 146.819651 
L 303.731567 147.519511 
L 303.62463 147.808146 
L 303.642623 148.176919 
L 303.823199 148.474462 
L 304.597209 148.959251 
L 305.388726 149.216039 
L 307.399387 149.584168 
L 310.758666 149.88763 
L 315.827655 150.10201 
L 329.077636 150.328389 
L 344.254426 150.419183 
L 351.034658 150.219629 
L 358.200179 149.779749 
L 367.227102 148.973876 
L 377.510845 147.818327 
L 396.049174 145.662701 
L 402.808565 145.181626 
L 409.845922 144.915309 
L 412.223664 144.878956 
L 412.223664 144.878956 
" style="fill:none;stroke:#000000;stroke-linecap:square;stroke-opacity:0.7;stroke-width:1.2;"/>
   </g>
   <g id="line2d_14">
    <path clip-path="url(#pbdcea7cd02)" d="M 413.31717 105.224306 
L 408.94367 104.936673 
L 404.147259 104.388742 
L 398.553713 103.529259 
L 382.5347 100.951011 
L 376.369872 100.227894 
L 368.719309 99.584848 
L 360.031873 99.102094 
L 349.940525 98.779469 
L 342.662557 98.752497 
L 337.303655 98.964805 
L 332.889922 99.400047 
L 328.972533 100.050147 
L 325.155448 100.948914 
L 321.774191 101.964639 
L 317.964076 103.350054 
L 315.904914 104.207032 
L 312.595362 105.777913 
L 310.127961 107.255781 
L 309.523773 107.770917 
L 309.182998 108.295387 
L 309.275892 108.705459 
L 309.591658 108.937098 
L 310.203615 109.152619 
L 311.785644 109.409694 
L 314.761052 109.59827 
L 322.051776 109.707726 
L 342.414598 109.694852 
L 348.597127 109.494813 
L 354.776243 109.072004 
L 363.701571 108.191968 
L 381.846211 106.318202 
L 389.247977 105.819628 
L 395.553823 105.659668 
L 401.947035 105.792287 
L 407.093907 106.110054 
L 413.17304 106.723558 
L 413.17304 106.723558 
" style="fill:none;stroke:#000000;stroke-linecap:square;stroke-opacity:0.7;stroke-width:1.2;"/>
   </g>
   <g id="line2d_15">
    <path clip-path="url(#pbdcea7cd02)" d="M 414.310273 64.731858 
L 404.275283 63.414626 
L 375.898326 59.473156 
L 369.450651 58.880806 
L 363.072222 58.470438 
L 354.759162 58.165398 
L 348.297616 58.105535 
L 340.536755 58.287297 
L 336.834387 58.503643 
L 330.875564 59.084776 
L 327.976192 59.489604 
L 322.017797 60.613491 
L 317.859895 61.670618 
L 314.234241 62.833197 
L 311.28684 64.020953 
L 309.076586 65.155266 
L 308.153208 65.741273 
L 306.583934 67.11882 
L 306.122552 67.869291 
L 306.052634 68.074858 
L 306.020979 68.722441 
L 306.206368 69.175067 
L 306.502974 69.522326 
L 306.969448 69.860878 
L 307.749364 70.218506 
L 308.678382 70.48873 
L 312.079434 70.89368 
L 315.669601 70.898432 
L 321.840584 70.546996 
L 332.29043 69.829511 
L 337.670252 69.676133 
L 340.392547 69.725849 
L 343.574676 69.963743 
L 346.264988 70.384448 
L 350.230378 71.095649 
L 351.446708 71.147972 
L 352.5618 71.122115 
L 354.849393 70.92635 
L 361.192553 69.95513 
L 372.110094 67.904142 
L 385.978296 65.3333 
L 392.53693 64.339732 
L 396.88953 63.893416 
L 400.505712 63.741706 
L 403.559423 63.812911 
L 406.935636 64.120506 
L 410.028073 64.617181 
L 412.976536 65.314474 
L 414.412522 65.771002 
L 414.412522 65.771002 
" style="fill:none;stroke:#000000;stroke-linecap:square;stroke-opacity:0.7;stroke-width:1.2;"/>
   </g>
   <g id="line2d_16">
    <path clip-path="url(#pbdcea7cd02)" d="M 543.955411 223.182064 
L 539.620313 221.842175 
L 535.120952 220.245896 
L 524.572007 216.411875 
L 518.719082 214.584227 
L 513.505532 213.204666 
L 507.140627 211.814896 
L 500.940989 210.723822 
L 495.08166 209.912239 
L 489.46038 209.351629 
L 484.259681 209.062147 
L 479.814213 209.029797 
L 475.409787 209.232494 
L 471.778859 209.600187 
L 467.738628 210.242972 
L 464.891002 210.852027 
L 460.734737 211.981326 
L 457.648314 213.009822 
L 453.912667 214.479912 
L 450.088111 216.259388 
L 446.928762 217.970807 
L 443.768034 219.973574 
L 441.796614 221.457808 
L 440.031407 223.126757 
L 439.012754 224.655938 
L 438.838576 225.515868 
L 438.982071 226.107629 
L 439.181814 226.422167 
L 439.924434 227.031267 
L 441.176738 227.559336 
L 443.154155 228.012056 
L 444.359821 228.183952 
L 447.926398 228.461925 
L 453.21733 228.534194 
L 459.022491 228.352547 
L 465.870087 227.902225 
L 475.118691 227.020793 
L 495.532455 224.976841 
L 512.731554 223.513821 
L 520.005769 223.078999 
L 525.979167 222.951099 
L 530.129477 223.04653 
L 534.527686 223.342121 
L 539.776795 223.976239 
L 543.726353 224.702874 
L 543.726353 224.702874 
" style="fill:none;stroke:#000000;stroke-linecap:square;stroke-opacity:0.7;stroke-width:1.2;"/>
   </g>
   <g id="line2d_17">
    <path clip-path="url(#pbdcea7cd02)" d="M 543.508644 182.588799 
L 537.158273 182.840499 
L 531.420865 182.883697 
L 526.716682 182.670058 
L 521.596789 182.155566 
L 514.602199 181.183782 
L 502.682511 179.524502 
L 495.153993 178.708925 
L 488.240122 178.186732 
L 482.334065 177.942415 
L 476.564609 177.9072 
L 471.194534 178.073981 
L 465.575199 178.474929 
L 460.737262 179.025184 
L 456.173914 179.73982 
L 452.011646 180.582705 
L 448.82827 181.374337 
L 445.027387 182.536336 
L 442.437913 183.525437 
L 440.081331 184.693832 
L 439.038514 185.420406 
L 438.5626 185.910577 
L 438.324554 186.39719 
L 438.311795 186.597406 
L 438.619955 187.145478 
L 439.270368 187.537638 
L 440.366699 187.903046 
L 442.538081 188.328773 
L 445.986425 188.747376 
L 453.556694 189.36189 
L 464.786873 190.038806 
L 473.061194 190.323238 
L 479.123601 190.301664 
L 484.553502 190.064232 
L 491.146486 189.526988 
L 498.45995 188.711189 
L 508.528889 187.365069 
L 528.300626 184.642215 
L 533.516614 184.21711 
L 537.534154 184.074889 
L 541.594659 184.144246 
L 543.374128 184.275299 
L 543.374128 184.275299 
" style="fill:none;stroke:#000000;stroke-linecap:square;stroke-opacity:0.7;stroke-width:1.2;"/>
   </g>
   <g id="line2d_18">
    <path clip-path="url(#pbdcea7cd02)" d="M 544.678965 143.642836 
L 538.288229 142.995794 
L 531.803804 142.587179 
L 511.513621 141.508154 
L 501.528201 140.616608 
L 488.17764 139.431694 
L 480.621947 139.009278 
L 475.943182 138.932225 
L 470.393381 139.105821 
L 465.807763 139.512247 
L 461.378191 140.145148 
L 457.378968 140.913868 
L 453.152131 141.924754 
L 448.403137 143.322713 
L 444.383421 144.793428 
L 442.023444 145.870639 
L 440.945885 146.474265 
L 439.81379 147.333272 
L 439.472987 147.814796 
L 439.430414 148.188591 
L 439.522278 148.394045 
L 439.853857 148.690062 
L 441.199054 149.179588 
L 443.344743 149.556301 
L 449.956433 150.217122 
L 474.698744 152.292347 
L 480.389242 152.504903 
L 486.180546 152.49938 
L 491.382583 152.314809 
L 497.65133 151.89245 
L 505.165956 151.120999 
L 511.606536 150.230547 
L 518.623062 149.021546 
L 534.300842 146.160835 
L 540.080043 145.388838 
L 544.686996 144.918976 
L 544.686996 144.918976 
" style="fill:none;stroke:#000000;stroke-linecap:square;stroke-opacity:0.7;stroke-width:1.2;"/>
   </g>
   <g id="line2d_19">
    <path clip-path="url(#pbdcea7cd02)" d="M 544.352404 105.871649 
L 538.310282 105.49592 
L 532.061493 104.903159 
L 527.683448 104.30319 
L 522.808973 103.420669 
L 515.7941 101.857449 
L 506.941298 99.834985 
L 500.548684 98.588285 
L 495.111638 97.744139 
L 489.548975 97.125679 
L 483.91144 96.788658 
L 480.386816 96.739553 
L 475.466598 96.886362 
L 470.818852 97.254593 
L 466.633837 97.774558 
L 461.203533 98.719799 
L 456.98384 99.682296 
L 453.709743 100.588515 
L 449.274084 102.099908 
L 445.998285 103.519011 
L 443.855697 104.683051 
L 442.178977 105.847069 
L 440.732228 107.350247 
L 440.388222 107.992586 
L 440.225576 108.808512 
L 440.398194 109.580362 
L 440.967945 110.372209 
L 441.875686 111.078086 
L 443.369853 111.84479 
L 444.584225 112.31392 
L 446.933983 113.028833 
L 452.129961 114.165575 
L 456.802275 114.910783 
L 461.917786 115.525812 
L 465.979303 115.880042 
L 472.254071 116.179546 
L 476.479809 116.187697 
L 482.677845 115.883442 
L 487.772526 115.372648 
L 494.265534 114.500426 
L 508.729758 112.258752 
L 533.799642 108.367906 
L 539.446292 107.707586 
L 544.226917 107.380803 
L 544.684614 107.370638 
L 544.684614 107.370638 
" style="fill:none;stroke:#000000;stroke-linecap:square;stroke-opacity:0.7;stroke-width:1.2;"/>
   </g>
   <g id="line2d_20">
    <path clip-path="url(#pbdcea7cd02)" d="M 542.404881 65.769108 
L 536.377586 63.973469 
L 530.714781 62.505899 
L 522.021709 60.516298 
L 516.597925 59.467086 
L 512.57506 58.852895 
L 506.405537 58.213034 
L 501.072393 57.928522 
L 494.871457 57.854441 
L 488.804682 57.994565 
L 482.114775 58.335892 
L 471.539972 59.138829 
L 459.133687 60.319342 
L 454.71557 60.891316 
L 450.382143 61.682067 
L 448.114506 62.248443 
L 444.859241 63.354927 
L 442.703139 64.381201 
L 442.40573 64.5496 
L 440.760938 65.657091 
L 439.192168 67.255986 
L 438.648866 68.447429 
L 438.665599 69.085084 
L 438.955309 69.619105 
L 439.862575 70.210298 
L 440.798461 70.485723 
L 443.104329 70.746551 
L 445.851997 70.758436 
L 452.282206 70.380415 
L 470.091604 69.09673 
L 480.523788 68.373456 
L 491.433056 67.354544 
L 512.288964 65.308277 
L 519.477615 64.867923 
L 525.085495 64.762418 
L 529.97817 64.911661 
L 534.328045 65.28281 
L 538.054726 65.842622 
L 540.807114 66.483001 
L 542.290867 66.96176 
L 542.290867 66.96176 
" style="fill:none;stroke:#000000;stroke-linecap:square;stroke-opacity:0.7;stroke-width:1.2;"/>
   </g>
   <g id="line2d_21">
    <path clip-path="url(#pbdcea7cd02)" d="M 675.12488 220.485524 
L 669.919304 220.155658 
L 664.851212 219.597844 
L 657.792082 218.549591 
L 645.431831 216.669108 
L 638.988807 215.96189 
L 632.123881 215.484518 
L 625.029156 215.244421 
L 617.837565 215.210536 
L 610.880407 215.353317 
L 603.744655 215.688307 
L 597.197642 216.215527 
L 591.558783 216.925144 
L 587.367398 217.681259 
L 584.196563 218.429079 
L 580.492628 219.545655 
L 577.690462 220.600489 
L 574.599835 222.018804 
L 571.761789 223.640576 
L 570.373234 224.646082 
L 569.827019 225.142274 
L 569.213416 225.997975 
L 569.215678 226.70034 
L 569.36328 226.918841 
L 569.741675 227.228121 
L 570.939994 227.728935 
L 573.145506 228.211823 
L 577.53357 228.745375 
L 585.091385 229.292395 
L 596.86984 229.893197 
L 601.839508 230.007293 
L 606.605811 229.873103 
L 610.398237 229.570649 
L 616.681659 228.792372 
L 623.237516 227.762261 
L 650.941678 223.167054 
L 656.167392 222.63989 
L 662.204389 222.292675 
L 668.170892 222.167006 
L 674.747907 222.138975 
L 674.747907 222.138975 
" style="fill:none;stroke:#000000;stroke-linecap:square;stroke-opacity:0.7;stroke-width:1.2;"/>
   </g>
   <g id="line2d_22">
    <path clip-path="url(#pbdcea7cd02)" d="M 675.490909 184.143567 
L 665.64599 183.138242 
L 655.404563 181.883032 
L 633.743383 178.994148 
L 626.932547 178.505725 
L 619.547544 178.26367 
L 613.409942 178.24822 
L 603.653641 178.475619 
L 593.005265 178.966046 
L 588.831094 179.291541 
L 584.24986 179.887378 
L 580.623931 180.622357 
L 577.470083 181.486567 
L 574.287739 182.585164 
L 571.415635 183.779052 
L 566.247909 186.436705 
L 563.197912 188.354955 
L 561.678131 189.447692 
L 559.191967 192.266476 
L 559.34915 192.6062 
L 559.81189 192.890856 
L 560.636266 193.096688 
L 562.811576 193.246911 
L 563.510631 193.249797 
L 568.564353 193.045683 
L 581.943781 191.98966 
L 603.043054 190.123607 
L 647.907327 185.333539 
L 654.896499 184.914201 
L 660.292281 184.818681 
L 664.960631 184.922899 
L 669.556878 185.215198 
L 674.689279 185.857447 
L 675.485828 186.008644 
L 675.485828 186.008644 
" style="fill:none;stroke:#000000;stroke-linecap:square;stroke-opacity:0.7;stroke-width:1.2;"/>
   </g>
   <g id="line2d_23">
    <path clip-path="url(#pbdcea7cd02)" d="M 674.571873 143.436459 
L 668.609311 141.708243 
L 663.187092 140.410747 
L 650.11007 137.670637 
L 643.701314 136.450526 
L 637.13097 135.392961 
L 630.147989 134.50919 
L 624.10187 133.942029 
L 618.143601 133.572233 
L 612.065238 133.424785 
L 607.128861 133.5236 
L 603.61244 133.743757 
L 597.943108 134.416593 
L 594.449415 135.055469 
L 591.118459 135.844302 
L 587.369844 136.968821 
L 583.989312 138.237768 
L 581.743145 139.247918 
L 578.951363 140.755775 
L 576.815753 142.19175 
L 575.355747 143.418183 
L 573.794641 145.243245 
L 573.53146 145.687754 
L 573.019852 147.453867 
L 573.144152 148.280016 
L 574.034811 149.55943 
L 574.685779 150.027852 
L 576.052389 150.660558 
L 577.403616 151.055963 
L 579.084332 151.375055 
L 581.603677 151.639567 
L 585.458478 151.7551 
L 590.533969 151.615866 
L 598.740798 151.110425 
L 617.572974 149.783004 
L 626.204883 148.854139 
L 652.437308 145.812934 
L 658.987681 145.359923 
L 666.95117 145.048154 
L 673.123473 145.004581 
L 674.487693 145.077014 
L 674.487693 145.077014 
" style="fill:none;stroke:#000000;stroke-linecap:square;stroke-opacity:0.7;stroke-width:1.2;"/>
   </g>
   <g id="line2d_24">
    <path clip-path="url(#pbdcea7cd02)" d="M 674.589412 104.416323 
L 667.566215 103.161649 
L 661.10443 102.077002 
L 653.734046 101.121289 
L 644.542243 100.202063 
L 636.686896 99.607878 
L 628.761609 99.216072 
L 621.366796 99.073831 
L 614.633468 99.156121 
L 607.801719 99.450053 
L 600.456109 99.985599 
L 594.650325 100.578255 
L 589.29002 101.296418 
L 583.703102 102.288107 
L 579.42005 103.294645 
L 576.396822 104.206752 
L 574.188704 105.048838 
L 572.028349 106.163327 
L 571.183323 106.792412 
L 570.532112 107.582224 
L 570.387852 108.067385 
L 570.426094 108.420211 
L 570.611089 108.780832 
L 571.188168 109.294271 
L 571.885675 109.657421 
L 573.280527 110.121429 
L 575.363765 110.548424 
L 579.047766 110.976192 
L 583.65577 111.242231 
L 590.63067 111.387914 
L 601.555651 111.356235 
L 610.385848 111.146479 
L 616.824962 110.793833 
L 624.185436 110.161249 
L 634.849378 108.964018 
L 652.851984 106.88783 
L 659.023283 106.437183 
L 665.15153 106.226229 
L 674.619378 106.034384 
L 674.619378 106.034384 
" style="fill:none;stroke:#000000;stroke-linecap:square;stroke-opacity:0.7;stroke-width:1.2;"/>
   </g>
   <g id="line2d_25">
    <path clip-path="url(#pbdcea7cd02)" d="M 674.881955 65.654571 
L 670.468439 64.300404 
L 666.654405 63.345939 
L 664.075252 62.879147 
L 660.177469 62.474949 
L 657.018018 62.375337 
L 652.391455 62.463672 
L 640.927894 62.829752 
L 635.420205 62.739998 
L 629.580991 62.398463 
L 623.140111 61.772542 
L 612.955599 60.478335 
L 606.161394 59.670528 
L 602.67559 59.378771 
L 597.15864 59.214677 
L 594.096682 59.320555 
L 591.05636 59.580951 
L 587.001347 60.181496 
L 583.761151 60.88188 
L 580.380195 61.847137 
L 577.319305 62.976264 
L 574.57294 64.291387 
L 572.911491 65.331758 
L 571.591188 66.471199 
L 571.449667 66.63183 
L 570.798561 67.886801 
L 570.784829 68.082366 
L 571.040084 68.81234 
L 571.454882 69.195439 
L 572.495837 69.676698 
L 574.037343 70.034738 
L 579.583976 70.730294 
L 587.978493 71.853426 
L 601.286608 73.675618 
L 604.365287 73.892791 
L 607.528314 73.878381 
L 611.760736 73.558385 
L 619.180383 72.726106 
L 660.418623 67.868597 
L 668.052195 67.244866 
L 673.941227 66.985357 
L 674.86903 66.985106 
L 674.86903 66.985106 
" style="fill:none;stroke:#000000;stroke-linecap:square;stroke-opacity:0.7;stroke-width:1.2;"/>
   </g>
  </g>
 </g>
 <defs>
  <clipPath id="pbdcea7cd02">
   <rect height="262.08" width="694.08" x="12.96" y="12.96"/>
  </clipPath>
 </defs>
</svg>
