<?xml version="1.0" encoding="utf-8" standalone="no"?>
<!DOCTYPE svg PUBLIC "-//W3C//DTD SVG 1.1//EN"
  "http://www.w3.org/Graphics/SVG/1.1/DTD/svg11.dtd">
<!-- Created with matplotlib (https://matplotlib.org/) -->
<svg height="288pt" version="1.1" viewBox="0 0 720 288" width="720pt" xmlns="http://www.w3.org/2000/svg" xmlns:xlink="http://www.w3.org/1999/xlink">
 <defs>
  <style type="text/css">
*{stroke-linecap:butt;stroke-linejoin:round;}
  </style>
 </defs>
 <g id="figure_1">
  <g id="patch_1">
   <path d="M 0 288 
L 720 288 
L 720 0 
L 0 0 
z
" style="fill:#ffffff;"/>
  </g>
  <g id="axes_1">
   <g id="line2d_1">
    <path clip-path="url(#p6301610ec7)" d="M 133.875054 225.440798 
L 129.704802 224.55955 
L 115.757488 221.470402 
L 109.582794 220.362733 
L 103.95331 219.573086 
L 98.212464 218.987283 
L 88.911713 218.368138 
L 79.166874 217.710565 
L 70.665706 217.126549 
L 66.108576 217.092444 
L 62.019842 217.293068 
L 56.990334 217.831027 
L 53.326955 218.476124 
L 50.60946 219.260554 
L 48.508864 220.237998 
L 45.63147 221.682092 
L 45.20448 221.732223 
L 45.490453 221.591481 
L 46.000084 221.552405 
L 46.38589 221.645227 
L 46.762846 221.853362 
L 47.426879 222.426564 
L 48.873842 223.355645 
L 51.712583 224.111079 
L 55.167367 224.531391 
L 60.446897 225.125465 
L 64.631823 225.969235 
L 70.366029 227.251602 
L 73.919338 227.771756 
L 76.663013 228.01006 
L 81.831762 228.161218 
L 86.364648 228.081373 
L 96.029862 227.61403 
L 122.463697 226.184516 
L 133.395682 225.729039 
L 133.395682 225.729039 
" style="fill:none;stroke:#000000;stroke-linecap:square;stroke-opacity:0.7;stroke-width:1.2;"/>
   </g>
   <g id="line2d_2">
    <path clip-path="url(#p6301610ec7)" d="M 133.990487 193.06569 
L 124.837639 190.870935 
L 118.553728 189.662767 
L 112.535214 188.774279 
L 104.864191 187.93957 
L 83.851463 186.077312 
L 79.501487 185.812486 
L 75.374177 185.765266 
L 72.278465 185.912495 
L 68.389181 186.329602 
L 63.609911 187.112586 
L 53.612123 189.079764 
L 49.948694 189.994529 
L 45.854023 191.32365 
L 46.106244 191.289692 
L 48.16883 191.018094 
L 50.293384 190.98913 
L 53.021936 191.277438 
L 56.234389 191.627489 
L 58.215109 191.678769 
L 65.773773 191.592881 
L 67.285999 191.75889 
L 71.131144 192.507655 
L 78.394647 194.095009 
L 82.16042 194.710807 
L 86.019553 195.145934 
L 90.635654 195.40996 
L 95.023047 195.434475 
L 100.157736 195.255684 
L 108.280424 194.731104 
L 130.996373 193.174871 
L 133.899119 193.009957 
L 133.899119 193.009957 
" style="fill:none;stroke:#000000;stroke-linecap:square;stroke-opacity:0.7;stroke-width:1.2;"/>
   </g>
   <g id="line2d_3">
    <path clip-path="url(#p6301610ec7)" d="M 134.032336 160.568772 
L 122.680517 158.035374 
L 115.69159 156.727601 
L 110.262814 155.895408 
L 103.297038 155.069013 
L 93.512339 154.225667 
L 81.709172 153.405585 
L 78.41444 153.322187 
L 73.939252 153.449226 
L 68.911088 153.890559 
L 59.432021 155.062082 
L 56.029994 155.6165 
L 54.082368 156.125602 
L 52.83454 156.577097 
L 50.04666 157.912087 
L 47.66728 159.353723 
L 46.207747 160.502067 
L 45.624374 161.240041 
L 45.497117 161.649218 
L 45.626938 162.198444 
L 46.168819 162.77305 
L 47.051383 163.32014 
L 48.481924 163.893662 
L 50.200634 164.280109 
L 52.580339 164.487682 
L 56.246191 164.43465 
L 69.612692 163.8066 
L 87.602632 163.784229 
L 94.55662 163.377906 
L 108.846619 162.20307 
L 121.144872 161.323587 
L 133.692684 160.623104 
L 133.692684 160.623104 
" style="fill:none;stroke:#000000;stroke-linecap:square;stroke-opacity:0.7;stroke-width:1.2;"/>
   </g>
   <g id="line2d_4">
    <path clip-path="url(#p6301610ec7)" d="M 134.065608 127.982486 
L 129.689911 127.160045 
L 114.64882 124.205829 
L 108.359655 123.242589 
L 102.644305 122.556487 
L 95.215118 121.882919 
L 86.199092 121.286758 
L 80.506269 121.070206 
L 76.494513 121.081757 
L 73.365316 121.244825 
L 69.266537 121.713228 
L 65.308388 122.433306 
L 61.157533 123.422293 
L 57.550963 124.468543 
L 55.025326 125.34657 
L 52.501429 126.435145 
L 50.097003 127.835106 
L 48.407796 129.179852 
L 47.215841 130.403326 
L 46.268439 131.730271 
L 46.026819 132.48193 
L 46.112574 132.853691 
L 46.626243 133.246441 
L 47.816955 133.527422 
L 52.848292 134.333721 
L 58.321946 135.690764 
L 59.899988 135.885045 
L 61.98014 135.89781 
L 63.747878 135.697656 
L 66.892295 134.938894 
L 71.491525 133.360971 
L 74.723127 132.371568 
L 78.020074 131.608428 
L 81.735894 130.990442 
L 86.096401 130.486677 
L 93.000777 129.96494 
L 109.072129 129.101788 
L 123.427995 128.484472 
L 133.954052 128.21154 
L 133.954052 128.21154 
" style="fill:none;stroke:#000000;stroke-linecap:square;stroke-opacity:0.7;stroke-width:1.2;"/>
   </g>
   <g id="line2d_5">
    <path clip-path="url(#p6301610ec7)" d="M 133.974595 95.628877 
L 122.376513 93.000254 
L 117.887206 92.177954 
L 111.375876 91.244285 
L 105.016746 90.605303 
L 95.658104 89.938963 
L 86.323186 89.194932 
L 78.544912 88.56475 
L 75.01314 88.477482 
L 70.318525 88.683106 
L 65.742354 89.163678 
L 57.151577 90.326227 
L 54.127057 90.931727 
L 46.142007 93.076834 
L 46.043013 93.356828 
L 46.326174 93.849314 
L 46.998724 94.553694 
L 47.930443 95.336194 
L 49.194681 96.096781 
L 50.23357 96.501365 
L 51.083369 96.725512 
L 52.743561 96.982249 
L 56.704493 97.146331 
L 63.328364 97.307276 
L 67.886983 97.678824 
L 78.608998 98.706219 
L 83.594356 98.90793 
L 87.779009 98.889353 
L 93.967285 98.611242 
L 104.376231 97.82013 
L 124.46649 96.28108 
L 133.502441 95.692833 
L 133.502441 95.692833 
" style="fill:none;stroke:#000000;stroke-linecap:square;stroke-opacity:0.7;stroke-width:1.2;"/>
   </g>
   <g id="line2d_6">
    <path clip-path="url(#p6301610ec7)" d="M 134.026136 63.162413 
L 116.68268 59.264329 
L 109.785545 58.060261 
L 103.41815 57.193068 
L 96.767015 56.490682 
L 81.537584 55.166237 
L 77.542381 54.962904 
L 73.774906 54.967018 
L 69.886305 55.221235 
L 65.700894 55.753834 
L 61.568291 56.479959 
L 56.714519 57.54656 
L 53.404151 58.516432 
L 50.917072 59.536947 
L 48.264825 60.916959 
L 46.342824 62.109427 
L 45.170615 63.043149 
L 44.666663 63.670975 
L 44.509091 64.108455 
L 44.567998 64.646709 
L 45.020902 65.333546 
L 45.961634 66.143538 
L 47.467847 67.050573 
L 48.914969 67.658668 
L 49.932601 67.964968 
L 52.374962 68.396719 
L 54.721129 68.533501 
L 57.866862 68.457766 
L 61.985995 68.102629 
L 78.621851 66.329705 
L 102.765207 64.633696 
L 115.042034 63.904875 
L 129.294352 63.296843 
L 133.79991 63.149101 
L 133.79991 63.149101 
" style="fill:none;stroke:#000000;stroke-linecap:square;stroke-opacity:0.7;stroke-width:1.2;"/>
   </g>
   <g id="line2d_7">
    <path clip-path="url(#p6301610ec7)" d="M 242.393676 225.518497 
L 234.256178 223.654312 
L 227.797001 222.309661 
L 222.525427 221.422772 
L 217.037829 220.715517 
L 209.93839 220.048358 
L 195.288327 218.776143 
L 183.371738 217.644496 
L 178.791197 217.525199 
L 176.110283 217.635456 
L 172.864439 217.979051 
L 169.920519 218.485674 
L 165.7849 219.449629 
L 159.794625 221.136094 
L 156.083528 222.20461 
L 155.447855 222.205986 
L 155.337212 222.137087 
L 155.297835 221.925206 
L 155.637152 221.40479 
L 156.362227 220.787106 
L 157.367884 220.186187 
L 158.454265 219.749258 
L 159.6708 219.502065 
L 160.855096 219.513608 
L 161.9062 219.713577 
L 164.919269 220.571035 
L 168.106072 221.106254 
L 171.081924 221.615443 
L 173.812285 222.391376 
L 178.488116 224.117392 
L 182.420935 225.473834 
L 186.264309 226.549054 
L 189.29351 227.202715 
L 193.478531 227.827631 
L 197.261642 228.133318 
L 201.207394 228.225558 
L 206.305068 228.082897 
L 212.141347 227.698011 
L 238.973076 225.666872 
L 242.224568 225.485304 
L 242.224568 225.485304 
" style="fill:none;stroke:#000000;stroke-linecap:square;stroke-opacity:0.7;stroke-width:1.2;"/>
   </g>
   <g id="line2d_8">
    <path clip-path="url(#p6301610ec7)" d="M 242.342249 193.129497 
L 234.178738 191.174234 
L 227.380576 189.788387 
L 220.603231 188.688927 
L 214.060107 187.897867 
L 205.831795 187.17099 
L 188.459893 185.887432 
L 184.515501 185.879391 
L 180.816942 186.103021 
L 176.118655 186.647272 
L 169.811546 187.624987 
L 166.04637 188.323075 
L 163.521497 188.96068 
L 161.500457 189.706066 
L 160.01181 190.408841 
L 156.743973 192.264239 
L 155.439971 193.14938 
L 154.353051 194.190438 
L 154.169669 194.686525 
L 154.272107 195.111026 
L 154.60088 195.524256 
L 155.951892 196.563618 
L 157.124297 197.301837 
L 158.697225 198.01261 
L 160.5261 198.459881 
L 162.759791 198.665834 
L 165.474107 198.643242 
L 169.630711 198.327677 
L 184.410017 196.969591 
L 198.623553 195.826965 
L 216.171057 194.315166 
L 226.626209 193.680789 
L 238.712121 193.194586 
L 241.875306 193.101893 
L 241.875306 193.101893 
" style="fill:none;stroke:#000000;stroke-linecap:square;stroke-opacity:0.7;stroke-width:1.2;"/>
   </g>
   <g id="line2d_9">
    <path clip-path="url(#p6301610ec7)" d="M 242.207988 160.606577 
L 236.040962 159.115321 
L 230.468805 157.97091 
L 224.626191 156.977633 
L 218.070097 156.092866 
L 209.464321 155.192263 
L 191.602693 153.602468 
L 186.459171 153.38681 
L 182.673952 153.454927 
L 178.455178 153.789829 
L 173.522109 154.46598 
L 168.784808 155.316863 
L 163.846556 156.41841 
L 161.925704 156.96447 
L 159.342324 157.91702 
L 156.566083 159.311073 
L 154.815178 160.415407 
L 153.851987 161.213239 
L 153.542291 161.699898 
L 153.69512 162.090832 
L 153.976396 162.242055 
L 154.762177 162.444789 
L 160.390295 163.262245 
L 163.925498 163.581178 
L 166.728878 163.563488 
L 171.307332 163.208954 
L 178.626074 162.55896 
L 183.352615 162.459482 
L 190.957362 162.638335 
L 198.968863 162.776699 
L 205.453944 162.65293 
L 213.650824 162.226894 
L 235.66736 160.941861 
L 242.12337 160.665077 
L 242.12337 160.665077 
" style="fill:none;stroke:#000000;stroke-linecap:square;stroke-opacity:0.7;stroke-width:1.2;"/>
   </g>
   <g id="line2d_10">
    <path clip-path="url(#p6301610ec7)" d="M 242.41879 127.9877 
L 238.175353 127.116604 
L 223.866618 124.07069 
L 218.306884 123.115909 
L 212.041214 122.265789 
L 205.30923 121.585918 
L 194.462285 120.758205 
L 185.937238 120.278528 
L 181.168291 120.256333 
L 177.9823 120.439235 
L 174.562762 120.842898 
L 170.67801 121.541061 
L 166.691278 122.487679 
L 162.842822 123.65496 
L 160.443253 124.593599 
L 158.682331 125.47535 
L 157.111385 126.504645 
L 155.910303 127.549808 
L 154.905564 128.739341 
L 154.397898 129.695041 
L 154.322878 130.134133 
L 154.449453 130.535684 
L 154.758735 130.806739 
L 155.608663 131.128408 
L 158.62588 131.990113 
L 160.610377 132.872105 
L 163.764233 134.4472 
L 165.553748 135.076786 
L 166.65067 135.31968 
L 168.871899 135.502128 
L 170.381038 135.424511 
L 172.607159 135.077135 
L 175.625124 134.304592 
L 180.408535 132.916961 
L 184.731496 131.950989 
L 188.490571 131.367224 
L 193.332805 130.847757 
L 201.413635 130.263568 
L 226.403898 128.807524 
L 239.643873 128.292503 
L 242.290843 128.216394 
L 242.290843 128.216394 
" style="fill:none;stroke:#000000;stroke-linecap:square;stroke-opacity:0.7;stroke-width:1.2;"/>
   </g>
   <g id="line2d_11">
    <path clip-path="url(#p6301610ec7)" d="M 242.299249 95.510208 
L 233.010329 93.383779 
L 226.606532 92.2019 
L 220.673362 91.354031 
L 213.578499 90.590042 
L 200.161564 89.460876 
L 190.058033 88.729477 
L 185.53249 88.57467 
L 181.35065 88.646181 
L 177.655783 88.920561 
L 171.892949 89.671222 
L 164.618324 90.908736 
L 161.095313 91.708512 
L 158.659341 92.470502 
L 154.152226 94.19512 
L 155.758707 93.631314 
L 158.990793 92.748765 
L 161.972598 92.1612 
L 165.748549 91.679273 
L 169.786145 91.394798 
L 172.537328 91.398738 
L 175.339046 91.684517 
L 177.138826 92.053152 
L 180.302551 92.965393 
L 186.334752 94.840328 
L 190.540582 95.887185 
L 194.528735 96.604055 
L 198.788881 97.068275 
L 202.719887 97.246696 
L 207.807779 97.205457 
L 214.466847 96.892303 
L 233.856144 95.858249 
L 242.23805 95.578766 
L 242.23805 95.578766 
" style="fill:none;stroke:#000000;stroke-linecap:square;stroke-opacity:0.7;stroke-width:1.2;"/>
   </g>
   <g id="line2d_12">
    <path clip-path="url(#p6301610ec7)" d="M 242.481151 63.075762 
L 237.201838 61.890509 
L 228.410961 59.926814 
L 222.796357 58.905026 
L 217.119022 58.119607 
L 210.900607 57.508844 
L 181.943129 55.276433 
L 178.289379 55.401785 
L 174.990425 55.769933 
L 171.593194 56.387619 
L 167.325183 57.430456 
L 162.894468 58.755577 
L 158.866595 60.232293 
L 155.333965 61.815303 
L 154.029543 62.562137 
L 154.066517 62.695797 
L 155.473844 62.821093 
L 157.249336 63.134613 
L 159.146695 63.78088 
L 162.739476 65.255231 
L 164.717881 65.74249 
L 165.217829 65.811843 
L 167.569554 65.882952 
L 170.672808 65.541481 
L 175.046063 64.936982 
L 178.515142 64.78925 
L 182.783126 64.958806 
L 193.927763 65.607237 
L 199.802079 65.648834 
L 206.002237 65.417562 
L 213.93287 64.865263 
L 230.691228 63.662137 
L 242.16003 63.087363 
L 242.16003 63.087363 
" style="fill:none;stroke:#000000;stroke-linecap:square;stroke-opacity:0.7;stroke-width:1.2;"/>
   </g>
   <g id="line2d_13">
    <path clip-path="url(#p6301610ec7)" d="M 350.615728 225.463321 
L 346.239961 224.569349 
L 334.066321 222.002497 
L 327.755973 220.939571 
L 321.068188 220.074033 
L 313.675211 219.369578 
L 303.815116 218.666375 
L 295.413587 218.268272 
L 290.442405 218.251449 
L 287.066367 218.409938 
L 282.595358 218.883024 
L 278.671078 219.53628 
L 274.036058 220.55301 
L 270.052638 221.683258 
L 267.813267 222.527551 
L 266.537176 223.142524 
L 264.815164 224.232546 
L 263.482809 225.400286 
L 262.91757 226.150122 
L 262.894586 226.4876 
L 263.049345 226.586236 
L 263.674011 226.58946 
L 265.068165 226.305108 
L 269.00085 225.434635 
L 271.48486 225.249387 
L 273.179643 225.37483 
L 276.276521 225.572482 
L 278.522336 225.485932 
L 284.68263 225.074439 
L 287.241596 225.124627 
L 290.366057 225.399273 
L 305.175586 227.100319 
L 309.599801 227.30594 
L 314.048662 227.324311 
L 320.404995 227.092709 
L 350.539961 225.511684 
L 350.539961 225.511684 
" style="fill:none;stroke:#000000;stroke-linecap:square;stroke-opacity:0.7;stroke-width:1.2;"/>
   </g>
   <g id="line2d_14">
    <path clip-path="url(#p6301610ec7)" d="M 350.547135 193.151131 
L 345.53288 191.834086 
L 339.680677 190.535357 
L 334.532786 189.584025 
L 328.044515 188.627809 
L 321.421178 187.898285 
L 310.836024 187.039186 
L 296.809112 186.068896 
L 292.748685 186.014863 
L 289.098181 186.172604 
L 283.870344 186.685108 
L 276.119259 187.728726 
L 272.174077 188.468115 
L 269.89588 189.173509 
L 267.18741 190.339401 
L 264.35773 191.844279 
L 263.103511 192.659391 
L 262.224608 193.453738 
L 262.022135 193.940657 
L 262.039776 194.053729 
L 262.189515 194.283385 
L 262.656568 194.559596 
L 263.910987 194.900201 
L 266.017276 195.17986 
L 267.234186 195.254953 
L 269.882966 195.266776 
L 275.313214 194.956892 
L 282.434915 194.48179 
L 285.871125 194.41127 
L 290.059887 194.542714 
L 305.400389 195.348129 
L 310.599673 195.258651 
L 316.377243 194.953149 
L 338.64649 193.544255 
L 350.321173 193.076579 
L 350.321173 193.076579 
" style="fill:none;stroke:#000000;stroke-linecap:square;stroke-opacity:0.7;stroke-width:1.2;"/>
   </g>
   <g id="line2d_15">
    <path clip-path="url(#p6301610ec7)" d="M 350.582757 160.47425 
L 345.602199 159.346397 
L 337.199713 157.420701 
L 330.128834 156.070013 
L 324.730287 155.274049 
L 318.745776 154.628238 
L 311.302935 154.081955 
L 299.91341 153.279933 
L 288.030114 152.285875 
L 285.203151 152.280289 
L 280.959881 152.557853 
L 276.678188 153.121851 
L 268.440123 154.472337 
L 265.385944 155.253284 
L 262.739692 156.165071 
L 261.543409 156.85588 
L 261.592561 157.077993 
L 261.928506 157.273626 
L 264.663736 158.468298 
L 266.95519 159.664901 
L 268.504759 160.148037 
L 269.675609 160.341694 
L 273.233193 160.454896 
L 277.765208 160.422206 
L 279.899142 160.611948 
L 282.501654 161.074668 
L 289.08962 162.406762 
L 292.629848 162.857876 
L 296.567151 163.109304 
L 302.836747 163.101305 
L 309.532515 162.779005 
L 338.687791 161.059828 
L 350.149881 160.635129 
L 350.149881 160.635129 
" style="fill:none;stroke:#000000;stroke-linecap:square;stroke-opacity:0.7;stroke-width:1.2;"/>
   </g>
   <g id="line2d_16">
    <path clip-path="url(#p6301610ec7)" d="M 350.553857 128.062015 
L 338.488288 125.390008 
L 332.080936 124.289899 
L 326.25303 123.511761 
L 318.781677 122.748177 
L 298.718886 121.027234 
L 294.399107 120.911603 
L 291.889847 121.003413 
L 288.732514 121.314475 
L 284.692084 121.999842 
L 279.923626 123.113049 
L 275.342054 124.425468 
L 272.088989 125.550862 
L 269.043869 126.853253 
L 266.075507 128.407259 
L 263.322282 130.1053 
L 262.277952 130.952108 
L 261.966481 131.398755 
L 261.955658 131.763788 
L 262.020841 131.8844 
L 262.674156 132.354784 
L 265.918669 133.543695 
L 270.792904 135.138083 
L 273.045607 135.59734 
L 273.933903 135.701912 
L 276.865759 135.732848 
L 278.856389 135.499041 
L 281.150137 135.017964 
L 285.367923 133.788591 
L 289.880494 132.509351 
L 292.748252 131.867172 
L 296.747542 131.181708 
L 301.565319 130.59248 
L 308.386557 130.019368 
L 320.519525 129.290116 
L 334.320715 128.654856 
L 347.141608 128.297356 
L 350.378769 128.239979 
L 350.378769 128.239979 
" style="fill:none;stroke:#000000;stroke-linecap:square;stroke-opacity:0.7;stroke-width:1.2;"/>
   </g>
   <g id="line2d_17">
    <path clip-path="url(#p6301610ec7)" d="M 350.5744 95.576197 
L 332.639812 91.699703 
L 327.030441 90.866724 
L 322.339372 90.346951 
L 315.143139 89.784114 
L 300.936218 88.768628 
L 291.452634 87.99675 
L 286.954161 87.913484 
L 283.619215 88.071665 
L 278.610168 88.603908 
L 271.941157 89.390336 
L 266.733416 89.86908 
L 262.647427 90.449672 
L 263.922066 90.332111 
L 265.105018 90.446014 
L 265.716628 90.567665 
L 266.947203 90.935061 
L 271.285337 92.559694 
L 273.938739 93.006589 
L 277.248051 93.398353 
L 279.64275 93.93111 
L 282.301515 94.818405 
L 286.79441 96.369055 
L 289.431617 97.093556 
L 293.135072 97.832117 
L 296.845667 98.27927 
L 301.19411 98.504836 
L 305.701435 98.491723 
L 311.655607 98.237173 
L 322.512277 97.497099 
L 341.533221 96.229574 
L 350.265218 95.753974 
L 350.265218 95.753974 
" style="fill:none;stroke:#000000;stroke-linecap:square;stroke-opacity:0.7;stroke-width:1.2;"/>
   </g>
   <g id="line2d_18">
    <path clip-path="url(#p6301610ec7)" d="M 350.556293 63.112541 
L 344.877076 61.826091 
L 336.855704 60.030418 
L 331.49771 59.033679 
L 326.103185 58.242938 
L 320.421903 57.631129 
L 314.243229 57.160647 
L 286.347278 55.48678 
L 283.288107 55.5714 
L 279.329207 55.908173 
L 274.640581 56.59616 
L 266.49427 58.114561 
L 264.45605 58.493807 
L 263.515378 58.458217 
L 263.336925 58.247988 
L 263.381479 58.037028 
L 263.849729 57.474603 
L 264.547789 56.950174 
L 265.611847 56.362422 
L 267.354896 55.757888 
L 269.423278 55.62627 
L 271.156785 55.891765 
L 274.711971 56.48412 
L 277.096552 57.237057 
L 278.651046 58.0783 
L 284.424336 61.783035 
L 287.102777 63.068618 
L 288.810039 63.729005 
L 291.713256 64.60895 
L 294.57298 65.223133 
L 297.731856 65.665152 
L 301.643013 65.9439 
L 306.736619 65.98895 
L 313.240114 65.730971 
L 323.900104 64.99818 
L 344.00164 63.577076 
L 350.332224 63.190327 
L 350.332224 63.190327 
" style="fill:none;stroke:#000000;stroke-linecap:square;stroke-opacity:0.7;stroke-width:1.2;"/>
   </g>
   <g id="line2d_19">
    <path clip-path="url(#p6301610ec7)" d="M 458.884184 225.53032 
L 437.864233 221.530485 
L 430.469185 220.547309 
L 419.643813 219.392402 
L 408.322268 218.365544 
L 403.964476 218.184453 
L 400.177813 218.250943 
L 396.375969 218.569228 
L 392.027298 219.200912 
L 385.746381 220.405844 
L 379.748423 221.772796 
L 377.126052 222.559041 
L 374.845847 223.531956 
L 373.15324 224.587383 
L 372.052351 225.500333 
L 371.014535 226.673852 
L 370.8076 227.258695 
L 370.994302 227.52685 
L 371.593386 227.700138 
L 374.960785 228.140573 
L 376.212686 228.495043 
L 381.228289 230.375344 
L 382.618414 230.590505 
L 383.811439 230.64077 
L 386.921098 230.388104 
L 397.68427 228.834158 
L 402.799193 228.489019 
L 430.157126 227.102535 
L 446.46611 226.098267 
L 458.604407 225.580442 
L 458.604407 225.580442 
" style="fill:none;stroke:#000000;stroke-linecap:square;stroke-opacity:0.7;stroke-width:1.2;"/>
   </g>
   <g id="line2d_20">
    <path clip-path="url(#p6301610ec7)" d="M 458.992163 193.07956 
L 453.278416 191.705404 
L 445.725547 189.91797 
L 440.672573 188.912922 
L 435.102282 188.04174 
L 429.070237 187.354412 
L 417.74864 186.395479 
L 406.720735 185.320903 
L 400.645182 184.760869 
L 395.842194 184.570343 
L 391.958327 184.715885 
L 388.706144 185.08211 
L 385.603914 185.627446 
L 381.026196 186.722905 
L 377.160516 187.905861 
L 374.592438 188.885655 
L 370.681563 190.611799 
L 370.719607 190.514319 
L 371.548485 189.922122 
L 372.610711 189.404862 
L 374.00799 188.988331 
L 375.261589 188.8926 
L 375.548212 188.912881 
L 376.574972 189.128194 
L 377.854213 189.705967 
L 380.561177 191.275806 
L 381.611535 191.644273 
L 382.582787 191.840542 
L 386.551099 192.004741 
L 389.384114 192.148024 
L 391.960827 192.469375 
L 397.666136 193.509206 
L 403.171096 194.476331 
L 408.414103 195.146263 
L 412.899818 195.475681 
L 417.340292 195.580705 
L 422.939263 195.447355 
L 430.557692 194.963579 
L 453.419334 193.294172 
L 458.811993 193.002529 
L 458.811993 193.002529 
" style="fill:none;stroke:#000000;stroke-linecap:square;stroke-opacity:0.7;stroke-width:1.2;"/>
   </g>
   <g id="line2d_21">
    <path clip-path="url(#p6301610ec7)" d="M 458.711289 160.554368 
L 443.63741 157.524103 
L 437.64117 156.650335 
L 431.595299 156.0094 
L 423.552927 155.421017 
L 398.90924 153.941157 
L 394.825912 154.047521 
L 391.833447 154.318224 
L 387.785023 154.951713 
L 383.132955 155.967858 
L 371.949955 158.56191 
L 371.565451 158.451754 
L 371.793738 158.257685 
L 372.407804 158.086825 
L 373.17622 158.023139 
L 374.751287 158.207184 
L 376.086581 158.628557 
L 380.186587 160.359952 
L 382.3787 160.811603 
L 384.708665 160.971276 
L 389.304592 161.173026 
L 393.449779 161.676791 
L 403.039675 163.036243 
L 407.774024 163.437058 
L 412.269338 163.598116 
L 417.50206 163.542207 
L 424.111916 163.201914 
L 436.420892 162.253881 
L 451.352579 161.165155 
L 458.700797 160.713702 
L 458.700797 160.713702 
" style="fill:none;stroke:#000000;stroke-linecap:square;stroke-opacity:0.7;stroke-width:1.2;"/>
   </g>
   <g id="line2d_22">
    <path clip-path="url(#p6301610ec7)" d="M 458.848631 128.109062 
L 446.910682 125.35622 
L 441.897712 124.438353 
L 435.840435 123.585829 
L 429.515449 122.959524 
L 402.570739 120.875891 
L 399.848389 120.837937 
L 395.46625 121.058598 
L 392.462394 121.406617 
L 387.036255 122.306275 
L 381.928531 123.312652 
L 377.847844 124.297652 
L 373.900936 125.56087 
L 370.201633 126.904829 
L 370.121728 127.152381 
L 370.455726 127.56937 
L 371.761737 128.549324 
L 374.736147 130.600953 
L 375.895727 131.264783 
L 377.905277 132.079864 
L 378.87537 132.316223 
L 380.761032 132.531072 
L 383.027642 132.484076 
L 387.116413 132.01147 
L 392.071276 131.429451 
L 395.261304 131.212618 
L 400.60095 131.084926 
L 415.556992 130.93166 
L 422.323776 130.59202 
L 436.368921 129.576113 
L 449.84464 128.690058 
L 458.628784 128.225758 
L 458.628784 128.225758 
" style="fill:none;stroke:#000000;stroke-linecap:square;stroke-opacity:0.7;stroke-width:1.2;"/>
   </g>
   <g id="line2d_23">
    <path clip-path="url(#p6301610ec7)" d="M 458.817763 95.527271 
L 453.410595 94.547369 
L 439.621252 91.994 
L 433.210351 91.054534 
L 426.708303 90.338322 
L 418.921524 89.726287 
L 407.382939 89.044328 
L 402.864355 88.930429 
L 399.043251 89.030806 
L 395.765505 89.328999 
L 391.831507 89.972284 
L 387.807584 90.906067 
L 382.80593 92.346458 
L 379.017549 93.653106 
L 376.632006 94.671783 
L 374.993368 95.533374 
L 372.881421 96.879236 
L 371.075904 98.285223 
L 370.548669 98.926136 
L 370.468851 99.297861 
L 370.594288 99.590157 
L 371.771057 100.374165 
L 377.527308 103.004001 
L 380.176167 103.944419 
L 381.61935 104.2887 
L 384.730957 104.613057 
L 387.169177 104.523776 
L 390.166822 104.088697 
L 393.32255 103.317818 
L 397.034973 102.094154 
L 404.352216 99.528262 
L 407.148104 98.789094 
L 411.144348 97.997442 
L 414.551081 97.507173 
L 419.843698 96.95939 
L 426.830351 96.461051 
L 436.769229 95.997056 
L 447.207592 95.750599 
L 458.782275 95.722919 
L 458.782275 95.722919 
" style="fill:none;stroke:#000000;stroke-linecap:square;stroke-opacity:0.7;stroke-width:1.2;"/>
   </g>
   <g id="line2d_24">
    <path clip-path="url(#p6301610ec7)" d="M 458.937708 63.165947 
L 454.07745 62.144714 
L 442.230653 59.565518 
L 436.050887 58.480588 
L 429.910142 57.644522 
L 422.261631 56.869339 
L 408.939696 55.8087 
L 402.514999 55.443274 
L 398.957161 55.385099 
L 394.217545 55.599585 
L 390.859688 56.005896 
L 387.288854 56.675017 
L 383.506113 57.630542 
L 380.121363 58.70752 
L 377.06616 59.927305 
L 375.294161 60.801236 
L 373.1908 62.076739 
L 371.62052 63.264932 
L 370.309553 64.529744 
L 369.742952 65.331682 
L 369.630262 65.627321 
L 369.886575 66.254606 
L 370.634177 66.435657 
L 372.611237 66.374893 
L 376.404643 66.099858 
L 379.076496 66.270845 
L 381.336216 66.933095 
L 383.201771 67.59526 
L 386.276203 67.775061 
L 387.924634 67.506315 
L 395.752265 65.754827 
L 399.019202 65.432103 
L 404.022225 65.22729 
L 417.761832 64.799504 
L 431.027867 64.050234 
L 443.269922 63.463304 
L 453.445319 63.187513 
L 458.789062 63.116516 
L 458.789062 63.116516 
" style="fill:none;stroke:#000000;stroke-linecap:square;stroke-opacity:0.7;stroke-width:1.2;"/>
   </g>
   <g id="line2d_25">
    <path clip-path="url(#p6301610ec7)" d="M 567.125826 225.496605 
L 550.606304 222.0941 
L 544.544143 221.173366 
L 536.970242 220.287467 
L 520.339796 218.68233 
L 514.163238 218.243047 
L 510.481258 218.149268 
L 506.287643 218.280563 
L 502.112762 218.688069 
L 497.581531 219.378714 
L 489.381844 220.904342 
L 485.075775 221.863596 
L 482.587012 222.694434 
L 480.54651 223.685172 
L 479.405444 224.260284 
L 479.733846 224.013325 
L 480.67608 223.536579 
L 482.094067 223.088505 
L 483.679608 222.910658 
L 485.859028 223.158801 
L 490.910712 224.298229 
L 495.140972 224.51838 
L 498.643997 224.744363 
L 501.534198 225.148239 
L 516.778888 227.77506 
L 521.193275 228.154375 
L 524.919925 228.292307 
L 529.928775 228.243425 
L 536.363913 227.897632 
L 548.283299 226.933664 
L 563.586991 225.765198 
L 566.898122 225.546443 
L 566.898122 225.546443 
" style="fill:none;stroke:#000000;stroke-linecap:square;stroke-opacity:0.7;stroke-width:1.2;"/>
   </g>
   <g id="line2d_26">
    <path clip-path="url(#p6301610ec7)" d="M 567.057201 192.958636 
L 558.941337 191.121506 
L 551.000588 189.433288 
L 545.847594 188.514225 
L 539.473014 187.623833 
L 533.506238 187.040635 
L 526.390257 186.580158 
L 509.02984 185.762894 
L 505.536702 185.774667 
L 500.717752 186.026517 
L 494.951009 186.620473 
L 485.277695 187.824561 
L 483.355753 188.329899 
L 482.452277 188.66502 
L 479.916535 189.967989 
L 479.468317 190.409705 
L 479.564216 190.538585 
L 480.754826 190.536033 
L 482.309233 190.492203 
L 486.72839 190.653647 
L 493.147922 190.633188 
L 495.854833 190.851553 
L 498.214616 191.322855 
L 499.289824 191.634926 
L 507.717309 194.499705 
L 510.975381 195.22076 
L 514.04945 195.651374 
L 517.692721 195.898321 
L 521.299421 195.927324 
L 527.057236 195.691582 
L 536.656876 194.98967 
L 552.427511 193.867528 
L 566.227067 193.131281 
L 566.652687 193.111926 
L 566.652687 193.111926 
" style="fill:none;stroke:#000000;stroke-linecap:square;stroke-opacity:0.7;stroke-width:1.2;"/>
   </g>
   <g id="line2d_27">
    <path clip-path="url(#p6301610ec7)" d="M 567.058534 160.580812 
L 556.901438 158.312567 
L 550.911673 157.164779 
L 543.571392 156.001047 
L 536.348383 155.097243 
L 525.953456 154.056574 
L 517.140479 153.342469 
L 512.218003 153.135563 
L 508.570323 153.168513 
L 504.74348 153.419752 
L 501.069336 153.860836 
L 496.331569 154.6526 
L 491.602449 155.632988 
L 487.45463 156.701679 
L 485.404225 157.389248 
L 483.161036 158.389174 
L 481.571568 159.321529 
L 480.067239 160.423855 
L 479.016598 161.445755 
L 478.623719 162.18043 
L 478.655286 162.463996 
L 478.786253 162.639135 
L 479.521525 162.928865 
L 481.250192 163.031809 
L 490.640415 162.756835 
L 495.549388 162.305931 
L 502.608748 161.627735 
L 505.528186 161.543311 
L 509.512486 161.67734 
L 520.758853 162.288977 
L 526.594116 162.317881 
L 533.196535 162.0982 
L 561.59632 160.781517 
L 566.947543 160.647458 
L 566.947543 160.647458 
" style="fill:none;stroke:#000000;stroke-linecap:square;stroke-opacity:0.7;stroke-width:1.2;"/>
   </g>
   <g id="line2d_28">
    <path clip-path="url(#p6301610ec7)" d="M 567.08915 128.013577 
L 549.035784 124.124686 
L 543.066492 123.156866 
L 537.183889 122.398614 
L 529.685319 121.651652 
L 519.30665 120.859138 
L 512.012746 120.504099 
L 506.695485 120.496366 
L 502.076379 120.752968 
L 497.068666 121.287819 
L 489.758023 122.318733 
L 485.204357 123.091903 
L 483.096146 123.606734 
L 481.406463 124.280248 
L 480.249694 125.037974 
L 479.539314 125.748083 
L 479.543662 125.878756 
L 479.920249 125.825649 
L 484.734594 124.273527 
L 486.056084 124.034077 
L 488.959341 123.890751 
L 496.196569 123.925147 
L 498.985577 124.2526 
L 501.346028 124.852892 
L 503.534718 125.624054 
L 509.073141 127.636187 
L 512.87836 128.714462 
L 515.57431 129.292503 
L 519.352624 129.852102 
L 523.10517 130.146738 
L 527.52917 130.223355 
L 532.901948 130.049708 
L 542.494925 129.440555 
L 556.778439 128.561671 
L 567.033259 128.103823 
L 567.033259 128.103823 
" style="fill:none;stroke:#000000;stroke-linecap:square;stroke-opacity:0.7;stroke-width:1.2;"/>
   </g>
   <g id="line2d_29">
    <path clip-path="url(#p6301610ec7)" d="M 567.081809 95.562927 
L 552.169574 92.353271 
L 545.953083 91.375793 
L 540.042382 90.66785 
L 529.992254 89.74109 
L 514.834801 88.5533 
L 510.462565 88.407543 
L 506.274809 88.475618 
L 501.898897 88.785752 
L 494.315093 89.659304 
L 484.818626 90.861483 
L 479.786751 91.815957 
L 479.508211 91.645481 
L 479.563282 91.328581 
L 480.193145 90.661711 
L 481.428169 89.853839 
L 483.05835 89.109754 
L 484.696205 88.616927 
L 486.02072 88.38158 
L 488.150763 88.229916 
L 491.006582 88.261147 
L 493.237325 88.486626 
L 495.593236 89.054719 
L 497.768945 89.946586 
L 501.732628 92.051679 
L 505.261163 93.836845 
L 508.205083 95.095306 
L 511.577383 96.256883 
L 514.647038 97.061705 
L 517.674386 97.633901 
L 520.860334 98.019365 
L 524.438838 98.22281 
L 528.561303 98.219074 
L 533.809016 97.967686 
L 543.237176 97.220558 
L 559.192397 95.974309 
L 566.956847 95.491135 
L 566.956847 95.491135 
" style="fill:none;stroke:#000000;stroke-linecap:square;stroke-opacity:0.7;stroke-width:1.2;"/>
   </g>
   <g id="line2d_30">
    <path clip-path="url(#p6301610ec7)" d="M 567.207519 63.096577 
L 561.596062 61.750875 
L 553.768794 59.922357 
L 547.858722 58.787673 
L 542.901213 58.038955 
L 535.847489 57.241726 
L 512.356679 55.090702 
L 508.888047 54.874755 
L 505.116095 54.823163 
L 501.544158 55.019972 
L 498.82492 55.34288 
L 495.000804 56.018149 
L 490.225146 57.143213 
L 486.464959 58.262667 
L 483.169478 59.526736 
L 479.810501 61.116087 
L 478.754788 61.77954 
L 479.211342 61.83663 
L 480.717384 61.876597 
L 482.350661 62.127292 
L 483.735528 62.53675 
L 485.708457 63.353459 
L 487.987386 64.301006 
L 490.45034 64.939117 
L 493.335391 65.113345 
L 496.607919 64.820028 
L 500.927376 64.314151 
L 504.135887 64.227101 
L 507.849507 64.394135 
L 520.678427 65.20909 
L 526.494773 65.269363 
L 532.992009 65.073619 
L 543.494458 64.448084 
L 560.437999 63.444184 
L 567.079266 63.136246 
L 567.079266 63.136246 
" style="fill:none;stroke:#000000;stroke-linecap:square;stroke-opacity:0.7;stroke-width:1.2;"/>
   </g>
   <g id="line2d_31">
    <path clip-path="url(#p6301610ec7)" d="M 675.450227 225.503209 
L 669.215436 224.082561 
L 663.727155 223.021182 
L 657.076176 221.9809 
L 650.573783 221.221171 
L 643.215965 220.60901 
L 627.127162 219.380804 
L 621.957829 219.05259 
L 619.050601 219.064749 
L 615.596549 219.338854 
L 612.91571 219.710561 
L 605.783372 221.026722 
L 600.5838 222.177055 
L 597.473421 223.063916 
L 594.013826 224.315982 
L 589.199869 226.290948 
L 587.900483 226.923997 
L 586.661225 227.786263 
L 586.367104 228.191184 
L 586.273449 228.693673 
L 586.522506 229.308906 
L 586.983879 229.827831 
L 588.060064 230.635651 
L 589.684937 231.510231 
L 591.890254 232.341617 
L 594.691294 232.95499 
L 596.953249 233.160155 
L 599.100243 233.165529 
L 600.827478 233.062643 
L 604.358689 232.630695 
L 610.149115 231.560419 
L 617.246096 230.238554 
L 622.84248 229.448679 
L 631.140819 228.576271 
L 651.295664 226.767091 
L 659.540604 226.232006 
L 670.023209 225.755335 
L 675.095979 225.587675 
L 675.095979 225.587675 
" style="fill:none;stroke:#000000;stroke-linecap:square;stroke-opacity:0.7;stroke-width:1.2;"/>
   </g>
   <g id="line2d_32">
    <path clip-path="url(#p6301610ec7)" d="M 675.470769 193.022114 
L 660.656167 189.844875 
L 654.791326 188.874305 
L 648.319017 188.040021 
L 640.347325 187.267868 
L 626.178231 186.138034 
L 620.930348 185.933927 
L 617.580659 186.02689 
L 614.068667 186.368025 
L 609.702273 187.067765 
L 602.834216 188.470879 
L 598.715825 189.503483 
L 595.730655 190.505751 
L 592.77064 191.802035 
L 589.057254 193.722022 
L 587.711166 194.58832 
L 587.035027 195.28377 
L 586.941054 195.488704 
L 587.032597 196.158364 
L 587.681456 196.822586 
L 588.453975 197.331109 
L 591.027342 198.579079 
L 593.219267 199.363059 
L 595.312825 199.892006 
L 597.648592 200.226659 
L 599.928194 200.308928 
L 601.543451 200.237516 
L 604.567475 199.870332 
L 608.185633 199.173863 
L 615.689487 197.657726 
L 620.946194 196.860061 
L 627.382101 196.134755 
L 637.062744 195.305047 
L 652.449086 194.213585 
L 665.16172 193.542992 
L 675.158022 193.152186 
L 675.158022 193.152186 
" style="fill:none;stroke:#000000;stroke-linecap:square;stroke-opacity:0.7;stroke-width:1.2;"/>
   </g>
   <g id="line2d_33">
    <path clip-path="url(#p6301610ec7)" d="M 675.490909 160.536654 
L 664.698035 157.927913 
L 659.711653 156.965219 
L 653.807287 156.085128 
L 647.881328 155.454935 
L 638.385882 154.732827 
L 619.082238 153.456298 
L 616.154819 153.506658 
L 611.538391 153.859331 
L 603.664268 154.855092 
L 597.269006 155.763206 
L 593.783735 156.574195 
L 587.560198 158.273681 
L 586.168112 158.89634 
L 586.147541 159.004383 
L 586.4135 159.463518 
L 587.464447 160.379457 
L 588.311154 161.013854 
L 589.499341 161.7898 
L 591.336756 162.675414 
L 592.223938 162.968292 
L 593.556964 163.269464 
L 596.013304 163.497896 
L 598.793789 163.44488 
L 607.661609 162.968204 
L 612.282858 163.098992 
L 626.102953 163.771311 
L 631.379738 163.721367 
L 636.229732 163.514281 
L 644.934394 162.918148 
L 674.978906 160.683486 
L 674.978906 160.683486 
" style="fill:none;stroke:#000000;stroke-linecap:square;stroke-opacity:0.7;stroke-width:1.2;"/>
   </g>
   <g id="line2d_34">
    <path clip-path="url(#p6301610ec7)" d="M 675.468333 128.16398 
L 658.764709 124.175531 
L 654.37153 123.397678 
L 649.294619 122.683161 
L 642.290935 121.970566 
L 615.846428 119.849333 
L 613.052621 119.898548 
L 610.497269 120.076128 
L 605.923286 120.681574 
L 600.804854 121.663662 
L 593.939645 123.206795 
L 590.217919 124.381112 
L 587.658748 125.354637 
L 586.709447 125.939483 
L 586.49203 126.229912 
L 586.395507 126.629274 
L 586.59437 127.468389 
L 586.822733 127.919911 
L 587.626952 128.977463 
L 588.158376 129.453038 
L 589.058417 130.023915 
L 590.233537 130.485715 
L 590.893976 130.65229 
L 592.407186 130.870087 
L 594.462955 130.93823 
L 598.576628 130.741257 
L 603.982887 130.498889 
L 607.175248 130.539553 
L 612.320107 130.824739 
L 619.831889 131.261508 
L 625.500375 131.357183 
L 630.27912 131.245558 
L 637.453275 130.833433 
L 674.909248 128.213669 
L 674.909248 128.213669 
" style="fill:none;stroke:#000000;stroke-linecap:square;stroke-opacity:0.7;stroke-width:1.2;"/>
   </g>
   <g id="line2d_35">
    <path clip-path="url(#p6301610ec7)" d="M 675.397396 95.673835 
L 657.419329 91.993529 
L 651.14805 91.070137 
L 644.877788 90.378593 
L 636.808232 89.734814 
L 627.95404 89.203385 
L 622.776154 89.07044 
L 619.114935 89.168602 
L 615.280647 89.493674 
L 610.512053 90.172387 
L 604.514744 91.289099 
L 600.03893 92.297116 
L 597.11184 93.171095 
L 593.939118 94.499132 
L 589.987896 96.558372 
L 588.112989 97.722118 
L 587.366009 98.476926 
L 587.256212 98.89413 
L 587.353156 99.228034 
L 587.90301 99.840664 
L 588.848692 100.49712 
L 590.15527 101.221769 
L 592.442435 102.194786 
L 594.66002 102.77062 
L 597.096858 103.006341 
L 599.045057 102.95429 
L 601.0404 102.743738 
L 615.494651 100.502509 
L 623.237147 99.77 
L 664.013998 96.522974 
L 674.889689 95.77325 
L 674.889689 95.77325 
" style="fill:none;stroke:#000000;stroke-linecap:square;stroke-opacity:0.7;stroke-width:1.2;"/>
   </g>
   <g id="line2d_36">
    <path clip-path="url(#p6301610ec7)" d="M 675.259779 63.036822 
L 668.525031 61.652787 
L 659.624335 59.907148 
L 653.706271 58.95113 
L 647.334708 58.145262 
L 641.213796 57.564227 
L 631.494278 56.873575 
L 621.515279 56.355249 
L 616.079208 56.300966 
L 612.054656 56.494973 
L 608.272242 56.926906 
L 604.983137 57.516772 
L 601.738353 58.289444 
L 597.699026 59.512216 
L 595.540128 60.302827 
L 592.641191 61.607277 
L 591.002995 62.586911 
L 589.540663 63.792231 
L 588.414823 65.104381 
L 587.806204 66.118558 
L 587.668316 66.616555 
L 587.730343 66.930122 
L 587.94617 67.143545 
L 588.65496 67.349528 
L 590.202282 67.430928 
L 593.353755 67.569136 
L 595.45219 67.941839 
L 598.953923 68.929107 
L 601.208017 69.121637 
L 603.112589 68.997088 
L 607.056004 68.260481 
L 615.634427 66.259724 
L 619.556339 65.748892 
L 625.318551 65.30378 
L 653.61051 63.713191 
L 664.645866 63.303548 
L 675.309093 63.116557 
L 675.309093 63.116557 
" style="fill:none;stroke:#000000;stroke-linecap:square;stroke-opacity:0.7;stroke-width:1.2;"/>
   </g>
  </g>
 </g>
 <defs>
  <clipPath id="p6301610ec7">
   <rect height="262.08" width="694.08" x="12.96" y="12.96"/>
  </clipPath>
 </defs>
</svg>
