<svg viewBox="0 0 1496 400" xmlns="http://www.w3.org/2000/svg"><g><g><g><g><g><line x1="51.5625" y1="378" x2="46.5625" y2="378" style="visibility: inherit;" fill="rgb(0, 0, 0)" stroke="rgb(204, 204, 204)" stroke-width="1px"></line><line x1="51.5625" y1="346.5" x2="46.5625" y2="346.5" style="visibility: inherit;" fill="rgb(0, 0, 0)" stroke="rgb(204, 204, 204)" stroke-width="1px"></line><line x1="51.5625" y1="315" x2="46.5625" y2="315" style="visibility: inherit;" fill="rgb(0, 0, 0)" stroke="rgb(204, 204, 204)" stroke-width="1px"></line><line x1="51.5625" y1="283.5" x2="46.5625" y2="283.5" style="visibility: inherit;" fill="rgb(0, 0, 0)" stroke="rgb(204, 204, 204)" stroke-width="1px"></line><line x1="51.5625" y1="252.00000000000003" x2="46.5625" y2="252.00000000000003" style="visibility: inherit;" fill="rgb(0, 0, 0)" stroke="rgb(204, 204, 204)" stroke-width="1px"></line><line x1="51.5625" y1="220.5" x2="46.5625" y2="220.5" style="visibility: inherit;" fill="rgb(0, 0, 0)" stroke="rgb(204, 204, 204)" stroke-width="1px"></line><line x1="51.5625" y1="189.00000000000003" x2="46.5625" y2="189.00000000000003" style="visibility: inherit;" fill="rgb(0, 0, 0)" stroke="rgb(204, 204, 204)" stroke-width="1px"></line><line x1="51.5625" y1="157.50000000000003" x2="46.5625" y2="157.50000000000003" style="visibility: inherit;" fill="rgb(0, 0, 0)" stroke="rgb(204, 204, 204)" stroke-width="1px"></line><line x1="51.5625" y1="126.00000000000006" x2="46.5625" y2="126.00000000000006" style="visibility: inherit;" fill="rgb(0, 0, 0)" stroke="rgb(204, 204, 204)" stroke-width="1px"></line><line x1="51.5625" y1="94.50000000000004" x2="46.5625" y2="94.50000000000004" style="visibility: inherit;" fill="rgb(0, 0, 0)" stroke="rgb(204, 204, 204)" stroke-width="1px"></line><line x1="51.5625" y1="63.00000000000003" x2="46.5625" y2="63.00000000000003" style="visibility: inherit;" fill="rgb(0, 0, 0)" stroke="rgb(204, 204, 204)" stroke-width="1px"></line><line x1="51.5625" y1="31.500000000000014" x2="46.5625" y2="31.500000000000014" style="visibility: inherit;" fill="rgb(0, 0, 0)" stroke="rgb(204, 204, 204)" stroke-width="1px"></line><line x1="51.5625" y1="0" x2="46.5625" y2="0" style="visibility: inherit;" fill="rgb(0, 0, 0)" stroke="rgb(204, 204, 204)" stroke-width="1px"></line></g><g transform="translate(41.5625, 0)"><text x="0" y="378" dx="0em" dy="0.3em" style="text-anchor: end; visibility: hidden; font-family: Roboto, sans-serif; font-size: 12px; font-weight: 200;" fill="rgb(50, 49, 63)" stroke="none" stroke-width="1px">-0.1</text><text x="0" y="346.5" dx="0em" dy="0.3em" style="text-anchor: end; visibility: inherit; font-family: Roboto, sans-serif; font-size: 12px; font-weight: 200;" fill="rgb(50, 49, 63)" stroke="none" stroke-width="1px">0</text><text x="0" y="315" dx="0em" dy="0.3em" style="text-anchor: end; visibility: inherit; font-family: Roboto, sans-serif; font-size: 12px; font-weight: 200;" fill="rgb(50, 49, 63)" stroke="none" stroke-width="1px">0.1</text><text x="0" y="283.5" dx="0em" dy="0.3em" style="text-anchor: end; visibility: inherit; font-family: Roboto, sans-serif; font-size: 12px; font-weight: 200;" fill="rgb(50, 49, 63)" stroke="none" stroke-width="1px">0.2</text><text x="0" y="252.00000000000003" dx="0em" dy="0.3em" style="text-anchor: end; visibility: inherit; font-family: Roboto, sans-serif; font-size: 12px; font-weight: 200;" fill="rgb(50, 49, 63)" stroke="none" stroke-width="1px">0.3</text><text x="0" y="220.5" dx="0em" dy="0.3em" style="text-anchor: end; visibility: inherit; font-family: Roboto, sans-serif; font-size: 12px; font-weight: 200;" fill="rgb(50, 49, 63)" stroke="none" stroke-width="1px">0.4</text><text x="0" y="189.00000000000003" dx="0em" dy="0.3em" style="text-anchor: end; visibility: inherit; font-family: Roboto, sans-serif; font-size: 12px; font-weight: 200;" fill="rgb(50, 49, 63)" stroke="none" stroke-width="1px">0.5</text><text x="0" y="157.50000000000003" dx="0em" dy="0.3em" style="text-anchor: end; visibility: inherit; font-family: Roboto, sans-serif; font-size: 12px; font-weight: 200;" fill="rgb(50, 49, 63)" stroke="none" stroke-width="1px">0.6</text><text x="0" y="126.00000000000006" dx="0em" dy="0.3em" style="text-anchor: end; visibility: inherit; font-family: Roboto, sans-serif; font-size: 12px; font-weight: 200;" fill="rgb(50, 49, 63)" stroke="none" stroke-width="1px">0.7</text><text x="0" y="94.50000000000004" dx="0em" dy="0.3em" style="text-anchor: end; visibility: inherit; font-family: Roboto, sans-serif; font-size: 12px; font-weight: 200;" fill="rgb(50, 49, 63)" stroke="none" stroke-width="1px">0.8</text><text x="0" y="63.00000000000003" dx="0em" dy="0.3em" style="text-anchor: end; visibility: inherit; font-family: Roboto, sans-serif; font-size: 12px; font-weight: 200;" fill="rgb(50, 49, 63)" stroke="none" stroke-width="1px">0.9</text><text x="0" y="31.500000000000014" dx="0em" dy="0.3em" style="text-anchor: end; visibility: inherit; font-family: Roboto, sans-serif; font-size: 12px; font-weight: 200;" fill="rgb(50, 49, 63)" stroke="none" stroke-width="1px">1</text><text x="0" y="0" dx="0em" dy="0.3em" style="text-anchor: end; visibility: hidden; font-family: Roboto, sans-serif; font-size: 12px; font-weight: 200;" fill="rgb(50, 49, 63)" stroke="none" stroke-width="1px">1.1</text></g><line x1="51.5625" y1="0" x2="51.5625" y2="378" fill="rgb(0, 0, 0)" stroke="rgb(204, 204, 204)" stroke-width="1px"></line></g></g><g transform="translate(51, 0)" clip-path="url(#clip_0)"><clipPath id="clip_0"><rect width="1444" height="378"></rect></clipPath><g><g><g><line x1="0" y1="0" x2="0" y2="378" fill="rgb(0, 0, 0)" stroke="rgb(60, 60, 60)" stroke-width="1px" opacity="0.25"></line><line x1="120.36979166666666" y1="0" x2="120.36979166666666" y2="378" fill="rgb(0, 0, 0)" stroke="rgb(60, 60, 60)" stroke-width="1px" opacity="0.25"></line><line x1="240.73958333333331" y1="0" x2="240.73958333333331" y2="378" fill="rgb(0, 0, 0)" stroke="rgb(60, 60, 60)" stroke-width="1px" opacity="0.25"></line><line x1="361.109375" y1="0" x2="361.109375" y2="378" fill="rgb(0, 0, 0)" stroke="rgb(60, 60, 60)" stroke-width="1px" opacity="0.25"></line><line x1="481.47916666666663" y1="0" x2="481.47916666666663" y2="378" fill="rgb(0, 0, 0)" stroke="rgb(60, 60, 60)" stroke-width="1px" opacity="0.25"></line><line x1="601.8489583333334" y1="0" x2="601.8489583333334" y2="378" fill="rgb(0, 0, 0)" stroke="rgb(60, 60, 60)" stroke-width="1px" opacity="0.25"></line><line x1="722.21875" y1="0" x2="722.21875" y2="378" fill="rgb(0, 0, 0)" stroke="rgb(60, 60, 60)" stroke-width="1px" opacity="0.25"></line><line x1="842.5885416666667" y1="0" x2="842.5885416666667" y2="378" fill="rgb(0, 0, 0)" stroke="rgb(60, 60, 60)" stroke-width="1px" opacity="0.25"></line><line x1="962.9583333333333" y1="0" x2="962.9583333333333" y2="378" fill="rgb(0, 0, 0)" stroke="rgb(60, 60, 60)" stroke-width="1px" opacity="0.25"></line><line x1="1083.328125" y1="0" x2="1083.328125" y2="378" fill="rgb(0, 0, 0)" stroke="rgb(60, 60, 60)" stroke-width="1px" opacity="0.25"></line><line x1="1203.6979166666667" y1="0" x2="1203.6979166666667" y2="378" fill="rgb(0, 0, 0)" stroke="rgb(60, 60, 60)" stroke-width="1px" opacity="0.25"></line><line x1="1324.0677083333333" y1="0" x2="1324.0677083333333" y2="378" fill="rgb(0, 0, 0)" stroke="rgb(60, 60, 60)" stroke-width="1px" opacity="0.25"></line><line x1="1444.4375" y1="0" x2="1444.4375" y2="378" fill="rgb(0, 0, 0)" stroke="rgb(60, 60, 60)" stroke-width="1px" opacity="0.25"></line></g><g><line x1="0" y1="378" x2="1444.4375" y2="378" fill="rgb(0, 0, 0)" stroke="rgb(60, 60, 60)" stroke-width="1px" opacity="0.25"></line><line x1="0" y1="346.5" x2="1444.4375" y2="346.5" fill="rgb(0, 0, 0)" stroke="rgb(60, 60, 60)" stroke-width="1px" opacity="0.25"></line><line x1="0" y1="315" x2="1444.4375" y2="315" fill="rgb(0, 0, 0)" stroke="rgb(60, 60, 60)" stroke-width="1px" opacity="0.25"></line><line x1="0" y1="283.5" x2="1444.4375" y2="283.5" fill="rgb(0, 0, 0)" stroke="rgb(60, 60, 60)" stroke-width="1px" opacity="0.25"></line><line x1="0" y1="252.00000000000003" x2="1444.4375" y2="252.00000000000003" fill="rgb(0, 0, 0)" stroke="rgb(60, 60, 60)" stroke-width="1px" opacity="0.25"></line><line x1="0" y1="220.5" x2="1444.4375" y2="220.5" fill="rgb(0, 0, 0)" stroke="rgb(60, 60, 60)" stroke-width="1px" opacity="0.25"></line><line x1="0" y1="189.00000000000003" x2="1444.4375" y2="189.00000000000003" fill="rgb(0, 0, 0)" stroke="rgb(60, 60, 60)" stroke-width="1px" opacity="0.25"></line><line x1="0" y1="157.50000000000003" x2="1444.4375" y2="157.50000000000003" fill="rgb(0, 0, 0)" stroke="rgb(60, 60, 60)" stroke-width="1px" opacity="0.25"></line><line x1="0" y1="126.00000000000006" x2="1444.4375" y2="126.00000000000006" fill="rgb(0, 0, 0)" stroke="rgb(60, 60, 60)" stroke-width="1px" opacity="0.25"></line><line x1="0" y1="94.50000000000004" x2="1444.4375" y2="94.50000000000004" fill="rgb(0, 0, 0)" stroke="rgb(60, 60, 60)" stroke-width="1px" opacity="0.25"></line><line x1="0" y1="63.00000000000003" x2="1444.4375" y2="63.00000000000003" fill="rgb(0, 0, 0)" stroke="rgb(60, 60, 60)" stroke-width="1px" opacity="0.25"></line><line x1="0" y1="31.500000000000014" x2="1444.4375" y2="31.500000000000014" fill="rgb(0, 0, 0)" stroke="rgb(60, 60, 60)" stroke-width="1px" opacity="0.25"></line><line x1="0" y1="0" x2="1444.4375" y2="0" fill="rgb(0, 0, 0)" stroke="rgb(60, 60, 60)" stroke-width="1px" opacity="0.25"></line></g></g></g><g><g><line x1="0" y1="346.5" x2="1444.4375" y2="346.5" fill="rgb(0, 0, 0)" stroke="rgb(153, 153, 153)" stroke-width="1.5px"></line></g></g><g><g><line x1="120.36979166666666" y1="0" x2="120.36979166666666" y2="378" fill="rgb(0, 0, 0)" stroke="rgb(153, 153, 153)" stroke-width="1.5px"></line></g></g><g><g><g><g><g><path stroke="rgb(0, 119, 187)" stroke-width="2px" d="M123.37903645833333,59.62427312135698L123.98088541666667,65.32544249296193L126.38828124999999,79.16241431236271L126.99013020833334,83.20218050479896L128.19382812499998,89.21524786949165L128.79567708333335,82.64916801452644L129.39752604166668,82.22118133306509L130.60122395833335,92.12653362751014L131.20307291666666,94.75113683938984L131.804921875,102.19128960371022L132.40677083333333,101.59445518255238L134.81416666666667,104.40345221757893L140.23080729166665,112.10193657875067L140.83265625,115.5584430098534L142.03635416666665,115.44216656684878L143.84190104166666,120.2751772999764L144.44375,115.00633174180989L145.64744791666666,123.8578172922135L146.85114583333333,125.55260324478154L147.45299479166667,125.5656709671021L148.65669270833334,126.54445463418965L149.86039062499998,127.89981776475909L150.46223958333334,130.2463375926018L152.26778645833335,130.88151150941852L152.86963541666668,134.5295464396477L153.471484375,136.5805968046189L154.07333333333335,136.70081609487536L154.67518229166666,137.15687209367758L156.48072916666666,133.66219514608386L157.082578125,136.09787964820868L158.28627604166667,142.51319253444674L159.48997395833334,148.02653217315677L160.09182291666667,149.17515867948535L160.693671875,148.70787495374682L161.29552083333334,146.98214703798297L163.10106770833332,147.50346654653555L163.70291666666665,153.73808437585834L164.30476562500002,155.42303198575976L164.90661458333332,155.07223123312L166.11031250000002,158.09688323736196L167.915859375,161.57224023342135L170.92510416666667,165.40645265579226L171.526953125,164.16252189874652L172.12880208333334,166.1093308925629L172.73065104166668,168.01449590921408L173.33249999999998,168.05424356460574L173.93434895833335,169.76799273490911L176.94359375,177.8686475157738L181.75838541666664,189.5406957864762L183.56393229166665,192.4297607839108L184.16578125,192.19883197546008L188.37872395833332,200.8159903585911L190.18427083333333,205.6077701747418L191.38796875,208.62863892316824L191.9898177083333,210.9410437345505L192.59166666666667,210.71116635203367L194.9990625,215.5323579311371L195.60091145833331,216.26288303732875L196.20276041666668,218.16952192783356L198.00830729166668,220.85646906495097L198.61015625000002,223.09762099385267L200.41570312500002,221.47630342841148L202.82309895833333,228.5354926586151L204.02679687499997,227.82823973894122L205.23049479166667,228.0715509653092L205.83234374999998,230.69926151633268L206.43419270833334,228.0965411067009L207.03604166666668,229.99536001682281L209.4434375,233.4898210465908L210.64713541666669,234.94139903783804L212.4526822916667,235.2581786513329L213.05453125,235.9995184242726L213.65638020833333,237.2932323217392L214.860078125,238.4534339010716L215.46192708333334,239.00177130103117L216.06377604166667,239.27129307389265L217.86932291666668,241.13423207402235L219.07302083333335,242.24857458472252L219.67486979166665,242.71732279658318L220.87856770833335,243.79460254311564L221.48041666666666,243.74901571869856L223.28596354166666,240.63454189896584L226.29520833333333,246.26208329200745L226.89705729166664,246.26931184530264L227.49890625,247.59717831015593L228.70260416666665,249.53136080503467L229.304453125,249.62005609273916L230.50815104166665,249.43035820126534L231.71184895833335,251.28833109140402L232.31369791666665,252.0381292104721L232.91554687500002,253.01542961597445L233.51739583333332,252.78297999501234L234.72109375,253.79194521903995L235.32294270833333,256.15485602617264L239.53588541666667,253.9768459796906L241.94328125,259.3216664493084L244.35067708333332,260.2846130132675L244.95252604166666,259.2853359282017L245.55437500000002,259.3729610145092L247.96177083333333,263.963768273592L249.76731770833334,264.05683824419975L251.57286458333334,266.1329538524151L252.17471354166668,266.791033834219L253.98026041666668,266.8044864535332L254.582109375,267.1951193511486L255.78580729166669,268.3750586360693L256.38765624999996,268.95204269886017L256.98950520833336,268.90937545895576L258.19320312499997,269.90711295604706L258.79505208333336,270.4001941680908L259.99875,270.92006796598434L260.60059895833336,271.01349936425686L261.2024479166667,270.25982880592346L263.0079947916667,270.2485072016716L264.81354166666665,268.56499591469765L267.8227864583333,273.3912474811077L269.026484375,274.23179680109024L270.23018229166667,274.04667542874813L270.83203125,275.1606189608574L273.8412760416667,276.5236049294472L275.6468229166667,278.0989648550749L276.248671875,278.2541581392288L276.85052083333335,278.37290355563164L277.4523697916667,278.7743370383978L278.6560677083333,279.11412128806114L281.06346354166664,280.4970374107361L282.2671614583333,281.0350295305252L283.47085937500003,282.11435110867023L284.67455729166664,281.7314255386591L287.6838020833333,280.88495725393295L288.8875,284.7233190536499L291.2948958333333,285.4844200015068L294.304140625,287.0012333393097L295.5078385416667,287.22187788784504L296.1096875,287.46253238618374L297.915234375,288.3830980360508L299.1189322916667,288.46518436074257L299.72078124999996,288.64645206928253L300.32263020833335,288.99497160315514L301.52632812499996,285.61592334508896L302.12817708333336,286.64452300965786L302.7300260416667,286.80860647559166L305.137421875,290.61948569118977L305.73927083333336,290.7111240327358L306.94296875,290.8865619599819L308.748515625,291.86592297255993L311.1559114583333,292.0112262815237L311.75776041666666,292.30655962228775L312.359609375,292.7608178704977L312.9614583333333,292.2502379268408L314.16515625,292.9963185042143L315.970703125,293.33008052408695L316.57255208333333,294.19385039806366L317.17440104166667,293.8561877757311L318.9799479166667,294.4216343164444L319.581796875,294.98567739129066L320.7854947916667,295.11641094088554L324.3965885416667,293.74952906370163L325.6002864583333,294.1770135015249L327.4058333333333,295.70219130814075L328.00768229166664,296.47347325086594L329.2113802083333,297.2419717311859L329.81322916666664,297.15752908587456L332.8224739583333,298.13808703422546L333.42432291666665,298.60461035370827L334.6280208333333,298.3223024904728L335.83171875,298.71740394830704L336.4335677083333,299.0046497583389L337.03541666666666,299.33236138522625L338.84096354166667,296.79126204550266L339.4428125,297.4415267407894L341.248359375,298.451519921422L341.85020833333334,298.2628828436136L343.05390625,300.3171625882387L343.65575520833335,300.68595492839813L344.85945312499996,301.1123128384352L347.26684895833336,300.7787855118513L347.8686979166667,300.7625494301319L348.47054687499997,301.0195808261633L349.6742447916667,301.3596842586994L350.27609375,301.2494675964117L352.081640625,301.6613824814558L352.6834895833333,302.0050016194582L353.2853385416667,302.3006165921688L353.8871875,302.35509829223156L355.09088541666665,302.73564876616L355.692734375,302.313210234046L356.2945833333333,302.6994684487581L356.89643229166666,302.63818533718586L362.31307291666667,301.50393614172935L362.91492187499995,301.6153215765953L364.1186197916667,303.65114034712315L365.9241666666667,304.5605299025774L370.13710937499997,304.7281994819641L370.7389583333333,304.44655814766884L373.1463541666667,304.6529474258423L373.748203125,305.08014084398746L374.3500520833333,305.62678375840187L375.55375000000004,305.5248564630747L376.75744791666665,305.37050807476044L379.16484375,304.30100136995316L384.581484375,306.25103974342346L385.18333333333334,306.51261949539185L385.7851822916667,306.47575856745243L386.38703125,306.41369158029556L387.5907291666666,306.4303548038006L388.192578125,306.3644717037678L389.998125,306.7212383598089L391.80367187499996,307.14283199608326L396.01661458333336,307.01289170980453L396.6184635416667,306.0000446587801L397.22031250000003,308.1932628303766L397.8221614583333,308.3369045108557L399.025859375,307.897668980062L399.6277083333333,307.58882904052734L400.2295572916667,306.2314475476742L401.4332552083333,307.4447367489338L402.03510416666666,308.0464645251632L402.636953125,305.8003910779953L403.8406510416667,308.59840681403875L405.04434895833333,308.7301870957017L405.64619791666667,308.93445709347725L408.05359374999995,308.88935608416796L412.2665364583333,308.9781898409128L414.07208333333335,309.2925403788686L414.6739322916667,309.78664250671864L415.8776302083333,307.21613375097513L417.081328125,309.0442184507847L418.886875,309.7180627807975L425.50721354166666,310.2472304329276L427.31276041666666,310.70511703938246L427.914609375,310.64253138005733L428.5164583333334,310.6317331418395L429.72015625,310.5894789621234L430.9238541666667,310.718457005918L431.525703125,310.95832058787346L432.7294010416666,309.1214700937271L435.73864583333335,310.78551122546196L436.34049479166663,311.35502265393734L439.95158854166664,311.1788689121604L441.15528645833336,311.7954386919737L441.7571354166667,311.2183983027935L442.35898437500003,310.3665907457471L442.9608333333333,311.5492172688246L443.56268229166665,311.12457966059446L444.16453125,311.81774394214153L444.7663802083333,311.5297447666526L445.3682291666667,312.2551746815443L445.97007812500004,309.9259048104286L446.5719270833333,309.9351681545377L447.775625,310.8723876401782L449.58117187500005,310.308490075171L450.18302083333333,310.93751737475395L450.78486979166667,310.876562833786L451.98856770833333,311.4753240868449L454.3959635416667,311.64640141278505L455.59966145833334,311.9473626986146L456.80335937499996,312.20493154227734L459.21075520833335,312.83486710488796L459.8126041666667,312.7024813145399L460.41445312499997,312.52723583579063L461.61815104166664,313.1156518086791L462.82184895833336,312.9831345900893L464.025546875,312.82408294826746L465.22924479166664,311.38329850137234L465.83109375000004,311.94933412224054L467.636640625,311.26884093135595L468.84033854166665,311.63745725154877L469.4421875,312.14743638038635L470.0440364583334,311.6874492689967L470.64588541666666,312.00531551241875L471.247734375,312.05484987795353L471.8495833333333,312.1221364438534L473.05328125,311.3974458128214L473.6551302083334,312.231097497046L476.664375,312.1977405399084L477.26622395833334,312.4263810887933L478.469921875,311.83181849867105L479.07177083333335,313.20974738895893L479.6736197916667,313.7729244455695L481.47916666666663,313.8426213115454L482.68286458333336,313.9398570880294L483.8865625,312.31258065998554L485.09026041666664,313.7851425781846L486.29395833333336,313.46020267903805L487.49765625000003,313.7802586108446L488.0995052083333,313.9034796282649L488.70135416666665,314.0230863690376L490.5069010416667,314.02110321074724L492.914296875,314.1470419764519L493.5161458333333,313.97884668409824L494.71984375000005,314.0892276316881L495.32169270833333,314.2113526314497L496.525390625,313.9146392941475L498.9327864583333,312.8342357799411L501.94203124999996,314.79200729727745L506.1549739583333,314.50117772072554L506.75682291666664,314.64871061593294L507.96052083333336,314.78918628394604L508.5623697916667,314.53464967757463L509.16421875,315.0610502958298L509.7660677083333,313.43218264728785L510.36791666666664,313.46614041924477L510.96976562500004,313.98947594314814L512.1734635416666,315.1487692594528L512.7753124999999,314.93938294798136L515.1827083333334,313.49147790670395L515.7845572916666,314.20163632929325L516.9882552083333,313.47728600353L518.191953125,313.6395341679454L519.9975,313.98603768646717L521.2011979166667,314.16730774194L521.8030468750001,314.3802027180791L522.4048958333334,314.55408228188753L524.2104427083333,314.244819894433L524.8122916666666,314.0951348617673L525.4141406250001,314.52707377821207L526.0159895833334,313.82986103743315L526.6178385416666,312.6928987875581L527.8215364583333,314.29062028974295L528.4233854166666,313.43214274942875L529.0252343750001,312.73817816376686L530.2289322916666,314.80563828349113L530.83078125,314.14912370592356L531.4326302083333,314.5349688604474L532.0344791666666,314.5102486163378L532.636328125,314.6479525566101L533.2381770833333,314.9204314649105L534.441875,314.8511969447136L535.0437239583333,314.55291820317507L536.8492708333333,314.4515400901437L539.2566666666667,315.02052345871925L541.0622135416667,313.774025157094L541.6640625,312.56241401284933L542.2659114583333,313.0682554990053L543.469609375,314.1630621403456L544.0714583333333,314.80381002277136L544.6733072916667,315.13507725298405L545.27515625,314.8881353214383L546.4788541666667,315.57575849443674L547.080703125,315.32443718612194L547.6825520833333,313.4839818030596L550.0899479166667,315.1760734766722L552.49734375,314.7114089280367L553.0991927083334,314.96493400633335L554.3028906249999,315.1897302791476L554.9047395833334,314.8760979026556L555.5065885416667,314.7595632970333L556.1084375,315.2849500402808L556.7102864583334,315.2025750428438L557.3121354166666,316.91616696864367L559.1176822916667,314.999023206532L559.71953125,314.8207079395652L563.330625,315.1053369194269L564.5343229166666,315.2659539654851L565.136171875,315.0949869453907L565.7380208333333,315.22043285518885L566.3398697916667,315.3243480026722L567.5435677083334,315.64103139191866L569.3491145833333,314.41950210928917L569.9509635416666,315.17684092372656L571.7565104166666,314.72206635028124L572.358359375,314.1062734052539L572.9602083333333,314.6526605039835L574.1639062500001,316.11908988654613L575.3676041666666,315.6793028265238L577.1731510416666,317.4619555994868L577.775,316.46131494641304L578.9786979166666,316.99940563738346L580.7842447916667,317.36380686610937L581.38609375,316.2918429225683L581.9879427083333,316.73173324763775L583.191640625,316.6912721246481L583.7934895833333,316.7995056286454L584.3953385416667,317.2000120729208L585.5990364583333,316.89331018924713L586.2008854166667,316.09808953106403L586.802734375,317.5335135832429L589.8119791666667,316.28519171476364L592.219375,317.10966689139605L592.8212239583333,317.1695582717657L594.024921875,317.254777751863L595.2286197916667,316.1427798271179L596.4323177083334,317.4627418220043L597.0341666666667,317.57138603925705L597.636015625,317.4478786960244L598.2378645833334,316.4206120893359L598.8397135416667,317.63629281520844L599.4415624999999,317.56820829212666L600.6452604166667,317.48089300096035L601.8489583333334,317.35998371243477L603.0526562499999,317.120148293674L604.858203125,317.69134951382875L606.0619010416666,316.76195235550404L606.6637499999999,317.61452266573906L607.2655989583333,317.56225177645683L609.6729947916666,317.763050660491L610.8766927083333,316.99181565642357L611.4785416666667,317.77300400286913L612.6822395833334,317.6338121071458L614.4877864583333,315.40076883137226L615.6914843750001,316.62910656630993L616.2933333333334,316.0325420424342L616.8951822916666,317.1537774950266L618.7007291666666,315.32994778454304L620.5062760416666,317.72952707111835L621.108125,318.28213588893414L622.3118229166666,318.0758827328682L623.5155208333333,317.48026402294636L624.71921875,317.38003121316433L627.7284635416667,317.6885378882289L628.9321614583333,317.9619954675436L629.5340104166667,317.8398141413927L630.135859375,315.3521122187376L630.7377083333333,315.56303107738495L632.5432552083333,318.37864411622286L636.1543489583333,317.79374619573355L637.358046875,318.42131604999304L637.9598958333333,317.4070584923029L638.5617447916667,318.322906807065L639.16359375,318.18245930224657L639.7654427083334,318.57835871726274L642.1728385416667,317.4605638682842L643.3765364583334,318.7210569307208L643.9783854166667,318.7174450010061L645.7839322916667,318.6084510907531L646.38578125,318.4809187576175L646.9876302083334,318.44192212074995L647.5894791666666,318.41241413354874L648.1913281249999,317.6327536404133L649.3950260416667,318.5333234220743L649.996875,317.1578705459833L650.5987239583334,318.49686147272587L651.2005729166666,317.61368011683226L652.4042708333333,317.3285817503929L654.2098177083334,318.5452341064811L655.413515625,318.6630994230509L656.0153645833333,318.4642461463809L657.2190625000001,317.6442958563566L657.8209114583334,318.2683148011565L659.6264583333333,318.7270017117262L660.2283072916666,318.36502017080784L661.4320052083334,318.5878168568015L662.0338541666666,318.9320086464286L666.246796875,318.75481286644936L666.8486458333333,318.7534704208374L667.4504947916666,319.02288188785315L668.05234375,318.2911809682846L668.6541927083333,318.94662299752235L669.2560416666666,316.5504045188427L669.857890625,315.85802176594734L671.0615885416667,317.84705912321806L671.6634375,317.524330034852L672.2652864583333,317.3813548833132L674.0708333333333,317.81864950060844L674.6726822916667,318.00155302137136L675.27453125,317.24784960597754L675.8763802083333,318.33968033641577L677.080078125,318.91874378174543L680.691171875,318.8000218346715L681.2930208333333,319.04462387412786L681.8948697916667,318.86238453537226L683.0985677083333,319.0619066879153L685.5059635416667,318.6030554920435L687.3115104166667,319.32018430531025L689.1170572916667,319.019593834877L691.524453125,319.15098452568054L693.3299999999999,317.6297918111086L693.9318489583334,316.31250766664743L694.5336979166667,317.68723534047604L695.7373958333334,319.00066112726927L696.3392447916666,319.04510030150414L696.9410937499999,319.20182378590107L698.746640625,319.1271701976657L699.3484895833334,319.6011614575982L700.5521875,319.58499343693256L701.7558854166667,319.0658495351672L702.3577343750001,319.21039713174105L703.5614322916666,319.4255357757211L704.7651302083333,318.4107759743929L705.3669791666666,318.8041759058833L706.5706770833334,318.73948035389185L707.774375,319.3828028216958L708.3762239583333,319.6613814085722L708.9780729166666,319.32771326601505L709.5799218750001,319.4279625043273L711.38546875,319.57654447853565L711.9873177083333,319.5022030323744L712.5891666666666,318.9599254131317L714.3947135416666,319.4362143203616L714.9965625,319.0745003297925L719.8113541666667,319.7325380668044L721.6169010416667,319.4030169546604L722.21875,317.92543964087963L723.4224479166667,318.19314019382L724.6261458333333,318.43943202495575L725.2279947916667,317.32490410655737L727.0335416666666,318.41405463963747L727.635390625,318.3006696179509L728.8390885416667,319.8508610352874L729.4409375,318.76597018539906L730.0427864583332,318.80609335005283L730.6446354166667,319.18341679126024L732.4501822916667,318.7366828098893L737.2649739583333,319.4108463227749L737.8668229166667,319.6559670343995L738.4686718749999,319.4986450821161L739.6723697916667,319.71700371801853L740.8760677083334,320.14740774035454L741.4779166666666,319.6894366443157L742.079765625,319.53287275135517L743.2834635416666,319.69874692708254L744.4871614583333,319.53948171436787L745.0890104166667,319.85761081427336L745.690859375,319.6643244624138L747.49640625,319.64911399036646L748.0982552083334,319.3922891244292L748.7001041666666,319.9500400722027L751.7093489583333,319.20437255501747L752.913046875,319.5437296628952L753.5148958333333,318.98076383024454L754.71859375,319.9754714369774L755.3204427083334,319.9839391708374L756.5241406250001,319.7345446944237L760.135234375,320.0132007300854L760.7370833333333,320.2384217977524L761.94078125,319.71178179234266L763.1444791666667,318.6698773652315L765.551875,319.5660865455866L766.7555729166668,319.8858420699835L767.9592708333332,320.1889296770096L769.16296875,318.8425693809986L770.3666666666667,319.55101688951254L771.5703645833333,318.9942446127534L772.1722135416666,319.70947241038084L772.7740625,319.75103659182787L773.3759114583333,319.18382985144854L773.9777604166667,319.15209697186947L776.38515625,319.69784570485353L777.5888541666667,319.66813822835684L778.1907031249999,320.3875975459814L781.801796875,319.1085167750716L783.0054947916667,319.101654343307L784.2091927083334,319.25004386901855L784.8110416666667,318.9885415658355L785.4128906249999,319.39579544216394L789.023984375,320.21542420238256L790.82953125,319.92878859490156L792.0332291666667,318.70165953040123L793.8387760416666,320.4132237061858L795.6443229166666,320.51800252497196L796.2461718750001,319.96473187208176L797.4498697916667,319.84022238850594L798.05171875,319.2115612104535L798.6535677083333,319.37885058671236L799.2554166666666,319.26834055781364L800.4591145833334,319.2531887590885L801.0609635416666,317.9028926566243L802.2646614583333,319.26598423719406L802.8665104166666,320.11126497387886L803.468359375,319.68025778979063L805.27390625,320.30603693425655L805.8757552083333,319.9300207346678L807.079453125,319.7962479069829L811.8942447916668,319.7633415609598L812.49609375,319.2858369424939L813.0979427083332,320.267167031765L813.6997916666667,320.2807956710458L815.5053385416667,319.76100166887045L816.1071874999999,319.49587570130825L816.7090364583333,319.66592037677765L818.5145833333333,319.464293025434L819.1164322916667,319.5611392110586L819.71828125,319.10015700012445L821.523828125,319.649228990078L828.7460156249999,320.302359290421L830.5515624999999,320.1168272048235L831.7552604166666,320.5242735296488L832.357109375,320.3417525589466L833.5608072916666,320.5697641298175L834.16265625,320.5007736906409L835.968203125,320.13462399691343L837.77375,320.7025254294276L838.3755989583334,320.3782426714897L838.9774479166666,320.22795447707176L839.5792968750001,320.15423027426004L840.1811458333333,320.86183992773294L840.7829947916666,320.569543518126L841.3848437500001,320.3305436074734L841.9866927083333,320.89533066004515L843.190390625,320.6223917528987L844.3940885416666,320.76530823111534L844.9959375,321.0141300559044L846.1996354166666,320.59114234149456L847.4033333333333,320.9363761693239L848.60703125,320.04916747659445L849.2088802083333,320.92148722708225L849.8107291666668,320.9377913698554L850.412578125,320.83499101549387L851.0144270833333,319.2327375859022L851.6162760416667,320.87117367982864L854.0236718750001,320.59877222031355L857.0329166666668,320.6076999530196L857.634765625,320.25467900186777L858.8384635416667,320.0227058082819L859.4403125,319.1274447888136L861.8477083333333,320.06689620763063L862.4495572916666,319.44369399547577L863.05140625,320.0523147135973L864.2551041666667,319.24400521069765L866.0606510416667,319.27941808104515L867.8661979166667,321.166248857975L869.0698958333334,320.5430396050215L870.27359375,320.5984506905079L870.8754427083334,320.9812237098813L872.079140625,320.41550961881876L872.6809895833333,320.9858729839325L874.4865364583334,321.24802538752556L875.0883854166667,320.7577722296119L875.6902343749999,320.59498661756516L876.8939322916666,321.1111076697707L877.49578125,321.0757980644703L878.0976302083333,321.31489185243845L879.301328125,320.8332026526332L879.9031770833333,321.14674584567547L880.5050260416667,320.2038303539157L881.106875,320.5648167952895L881.7087239583334,321.2181113809347L882.3105729166667,320.9724015891552L885.3198177083333,321.08015866577625L885.9216666666666,320.8084143474698L887.1253645833333,319.88276993483305L889.5327604166666,320.2168628722429L890.134609375,319.8993909135461L891.3383072916666,320.73226810991764L893.745703125,321.1657630428672L894.9494010416668,320.93229485303164L896.1530989583333,321.0947988331318L897.356796875,320.9907381758094L897.9586458333334,320.72568026930094L898.5604947916667,321.23002675920725L899.1623437500001,320.80735118687153L900.3660416666667,321.4848473444581L902.1715885416668,320.5456048026681L902.7734375,320.32755126804113L903.9771354166667,321.5369703769684L904.578984375,321.0279135927558L905.1808333333333,321.24769681692123L906.3845312499999,321.1251258999109L908.7919270833333,319.8374694362283L909.995625,321.3424307629466L910.5974739583332,321.4429240822792L911.801171875,320.99623234570026L912.4030208333334,321.3295296728611L914.2085677083334,321.38561902195215L914.8104166666666,321.37603180110455L917.8196614583333,320.9828947260976L918.4215104166667,321.42412749677896L919.0233593749999,320.89666606485844L919.6252083333334,321.24169336259365L920.8289062499999,321.42149893194437L922.0326041666666,321.0845568180084L922.634453125,321.180565148592L923.2363020833333,321.0848126336932L923.8381510416666,321.1518363431096L924.44,321.5857349485159L925.0418489583333,320.96113396435976L926.8473958333334,321.64468286186457L928.6529427083334,321.25932352244854L929.8566406250001,321.04031713306904L931.0603385416666,321.00012121349573L931.6621875000001,321.7104650437832L932.2640364583333,321.49373752623796L932.8658854166667,321.41973638534546L933.467734375,320.1537468060851L935.8751302083334,320.4029535278678L938.2825260416666,321.3558974638581L939.4862239583333,320.6201316565275L940.0880729166668,321.198192961514L941.8936197916667,321.4676560610533L942.49546875,321.3974757269025L943.0973177083334,321.24041663110256L944.9028645833333,320.25134635716677L946.7084114583333,320.785038895905L947.3102604166668,320.6465088352561L947.912109375,320.675310395658L949.1158072916667,320.64104517549276L949.71765625,320.93999748677015L950.3195052083333,320.2214816361666L952.1250520833333,320.17579858750105L953.32875,320.8473358824849L953.9305989583333,321.1502451226115L954.5324479166667,321.439868375659L955.134296875,321.86610189825296L955.7361458333332,321.66486413776875L956.3379947916667,320.55069530010223L957.5416927083334,320.53523840010166L958.1435416666667,320.5907856076956L959.9490885416666,321.83859349787235L962.9583333333333,321.42505218833685L970.1805208333333,321.3562940955162L970.7823697916667,321.4639033153653L971.38421875,321.7466641366482L971.9860677083334,321.4983633309603L974.3934635416666,321.9307974502444L976.1990104166666,321.78488393872976L976.8008593750001,320.6721537709236L978.0045572916667,320.6135884076357L978.60640625,320.7483704164624L979.2082552083333,320.65697380900383L979.8101041666666,321.42836371064186L981.0138020833334,321.68994346261024L982.2175000000001,321.66849014908075L982.8193489583333,321.75253146886826L983.4211979166666,321.68529653549194L984.6248958333333,321.7043864876032L985.2267447916668,320.5006070584059L985.82859375,320.67116571217775L987.0322916666667,320.55580926686525L988.2359895833334,321.38143913447857L991.8470833333333,321.0821699872613L993.05078125,321.59303625673056L996.0600260416667,320.7636536434293L996.6618749999999,321.0588719844818L999.0692708333333,320.8665502220392L1002.078515625,320.899106875062L1002.6803645833334,320.5329618752003L1005.0877604166666,319.3867245465517L1007.49515625,320.78026992827654L1009.3007031249999,320.39227263629436L1011.1062499999999,320.59053683280945L1011.7080989583334,321.13798239827156L1012.3099479166666,321.15290419757366L1014.1154947916666,320.9528539851308L1014.71734375,321.65010192990303L1016.522890625,320.1464102938771L1017.7265885416667,322.1063785403967L1018.3284375,322.23582597076893L1018.9302864583334,322.23921259492636L1023.1432291666667,320.43688783049583L1023.745078125,320.97209883481264L1024.3469270833332,321.8812912479043L1024.9487760416666,321.3914300277829L1026.1524739583333,322.0059180781245L1026.7543229166668,321.8711900487542L1027.356171875,321.63164330273867L1027.9580208333334,321.4996729195118L1028.5598697916666,321.81411968171597L1029.16171875,321.03117817640305L1029.7635677083333,320.80626690387726L1030.3654166666668,321.3166849091649L1030.967265625,321.4677898362279L1032.7728124999999,321.82986994832754L1033.9765104166665,321.97745916992426L1036.9857552083333,321.7495579048991L1037.5876041666668,321.8516400977969L1038.189453125,321.90387343615294L1039.3931510416667,321.4979620054364L1043.6060937500001,321.5877345353365L1044.8097916666668,320.69294759631157L1047.8190364583334,322.09689223766327L1048.4208854166666,321.9294338822365L1050.8282812500001,322.2205591723323L1052.0319791666668,322.35551016032696L1052.633828125,321.9258266463876L1053.8375260416667,322.0725662782788L1054.439375,322.10156498104334L1055.6430729166666,321.74300526827574L1056.244921875,322.2081485912204L1059.856015625,321.50135097652674L1060.4578645833333,321.0430254936218L1061.0597135416667,320.3773860409856L1064.0689583333333,321.6680935174227L1064.6708072916667,322.24589900672436L1070.0874479166666,322.0819094181061L1070.6892968749999,320.4797616004944L1072.49484375,320.6587621718645L1073.0966927083334,321.01335556805134L1073.6985416666666,321.1538195014L1074.9022395833333,321.2106058895588L1076.1059375,322.1812809035182L1077.3096354166667,321.88379307836294L1079.1151822916665,322.2415947318077L1079.71703125,321.748931273818L1080.9207291666667,321.93477315455675L1081.522578125,322.3017700910568L1082.7262760416668,322.00826266407967L1083.9299739583332,322.01603335887194L1084.5318229166667,322.14952924847603L1085.7355208333333,321.63829216361046L1086.3373697916666,322.4347379207611L1088.7447656250001,322.3062081411481L1089.3466145833333,322.32417625933886L1090.5503125,322.2159850001335L1091.1521614583332,322.20760644972324L1091.7540104166667,321.4425157159567L1092.355859375,321.10600074380636L1093.5595572916666,320.7359481006861L1094.16140625,321.4390633776784L1094.7632552083332,321.267739623785L1095.3651041666667,321.67547227442265L1097.7725,322.0640257894993L1098.9761979166667,321.7091671898961L1099.578046875,322.2273183390498L1100.1798958333334,322.2344365864992L1101.38359375,321.8959243744612L1102.5872916666667,322.5958407819271L1103.7909895833334,322.0736341327429L1104.9946875,322.052692450583L1105.5965364583333,321.52280194312334L1106.1983854166667,321.55611665546894L1107.4020833333334,321.54389852285385L1108.0039322916666,320.7790002375841L1108.6057812499998,321.06406105309725L1109.2076302083333,320.90909776836634L1109.8094791666667,321.30453953146935L1110.411328125,321.55470380187035L1111.6150260416666,322.2310264930129L1112.216875,321.57740803062916L1114.022421875,322.4479511529207L1114.6242708333332,322.2363422960043L1115.8279687499999,322.4991330653429L1116.4298177083333,322.1826350837946L1118.2353645833334,322.48049607127905L1118.8372135416666,322.4877222776413L1119.4390625,322.3405249938369L1120.0409114583333,322.1275948137045L1120.6427604166668,322.2913051173091L1121.8464583333332,322.3514875173569L1124.2538541666665,321.7401091530919L1125.4575520833334,321.34865952283144L1126.0594010416667,321.5634437799454L1126.66125,320.7054356262088L1128.466796875,322.1309697031975L1129.0686458333332,321.81508192420006L1130.27234375,321.7100848406553L1132.6797395833335,320.98415502905846L1133.2815885416667,322.0171739682555L1133.8834375000001,322.43161180615425L1134.4852864583333,322.39178904891014L1135.688984375,322.27486250549555L1138.0963802083334,321.6770658418536L1138.6982291666666,322.2584597915411L1139.9019270833332,322.0482168495655L1140.5037760416667,322.5182370990515L1141.1056250000001,322.5904663056135L1141.7074739583334,322.23499515652657L1142.911171875,322.14958322793245L1144.71671875,322.2808096334338L1145.3185677083334,322.0470785871148L1145.9204166666666,322.6849420890212L1146.522265625,322.5409014299512L1147.1241145833333,322.19490015506744L1148.9296614583334,321.2971607744694L1149.5315104166666,321.7790682390332L1151.93890625,321.04256080091L1152.5407552083334,321.930156737566L1153.7444531249998,322.6385925114155L1154.3463020833333,321.6273038238287L1154.9481510416667,321.54993718117476L1157.355546875,322.19001853466034L1159.16109375,322.49228002130985L1160.3647916666666,322.7492973357439L1162.1703385416668,322.11050444841385L1162.7721875,322.1096877157688L1163.3740364583334,322.0386296287179L1163.9758854166666,322.63457925617695L1164.577734375,322.4493851289153L1165.7814322916668,322.4341488406062L1166.38328125,322.5006444901228L1166.9851302083332,322.74524887651205L1168.7906770833333,322.51300813257694L1169.3925260416665,322.685848005116L1170.5962239583334,321.36111234873533L1171.1980729166667,320.9725330173969L1171.799921875,321.8482957184315L1173.60546875,321.8944528475404L1174.8091666666667,322.274245262146L1175.411015625,322.24887961149216L1176.0128645833333,322.48653707653284L1176.6147135416666,322.78648448735476L1180.82765625,321.7552234008908L1181.4295052083332,321.63380248099566L1183.2350520833334,322.63644506782293L1186.2442968750001,322.36584839969873L1188.6516927083333,322.68589494377375L1189.855390625,322.76779586076736L1191.0590885416666,321.29452047497034L1192.2627864583333,321.44656652212143L1192.8646354166667,322.44808023422956L1193.4664843750002,322.60283698886633L1194.0683333333334,322.70642356574535L1196.4757291666667,322.53302747011185L1197.077578125,322.3515438437462L1197.6794270833334,322.58281061053276L1198.8831249999998,322.6418594419956L1199.4849739583333,322.7555566057563L1200.0868229166667,322.7364971637726L1202.49421875,322.37686490267515L1203.6979166666667,322.06987434625626L1204.9016145833332,322.6968645080924L1206.1053124999999,321.69196182489395L1206.7071614583333,321.2238942235708L1207.910859375,322.50185316056013L1210.3182552083333,321.8254882246256L1211.521953125,321.85673294216394L1212.1238020833332,321.8631940484047L1213.9293489583333,322.53983592242L1215.7348958333334,322.6017480120063L1218.1422916666668,321.47454665601254L1219.3459895833332,322.79858527332544L1219.9478385416667,322.477583527565L1221.7533854166666,322.7823398038745L1224.1607812500001,321.9181732982397L1224.7626302083333,322.7274520844221L1225.3644791666668,322.7066723406315L1225.966328125,322.87256763875484L1227.771875,322.42802569270134L1228.3737239583334,321.6099083572626L1228.9755729166666,321.9839038476348L1230.1792708333332,321.90173538029194L1230.7811197916667,321.4731431901455L1231.3829687500001,321.8439585864544L1232.5866666666668,321.77230203151703L1233.188515625,321.9706882685423L1234.9940625,321.12116427719593L1235.5959114583334,321.52372428774834L1236.799609375,320.8036665022373L1238.0033072916667,322.43615781515837L1238.6051562500002,322.7647119909525L1239.2070052083334,322.4180864319205L1243.4199479166666,321.8154879435897L1244.0217968749998,321.2119389474392L1244.6236458333333,321.9276032745838L1245.2254947916667,321.87928462028503L1248.8365885416667,322.22670109570026L1249.4384375,322.38337294757366L1250.0402864583332,322.3736425638199L1250.6421354166666,322.63705292344093L1251.2439843749999,322.90739142894745L1252.4476822916668,322.3914487436414L1254.2532291666666,321.9828805848956L1256.0587760416668,323.04704332351685L1258.4661718749999,322.09889651834965L1259.0680208333333,323.04747281223536L1259.6698697916665,322.35986606776714L1260.27171875,322.93054626882076L1260.8735677083334,322.9692119881511L1262.077265625,322.6898612603545L1262.6791145833333,322.75733088701963L1265.0865104166667,322.905577249825L1266.8920572916666,322.4980910271406L1267.49390625,322.8107259571552L1269.2994531250001,321.8407855331898L1269.9013020833333,321.649034075439L1270.5031510416668,321.87269208580256L1271.105,322.3822487667203L1271.7068489583332,322.00279665738344L1272.910546875,321.48374428600073L1273.5123958333334,321.96544052660465L1274.1142447916666,320.9659264013171L1274.71609375,322.8531819730997L1275.3179427083332,322.4303233399987L1277.7253385416668,322.60820442438126L1278.3271875,322.73152635991573L1278.9290364583333,322.8779702782631L1280.7345833333334,323.01417922228575L1281.93828125,322.22670578956604L1282.5401302083333,322.21864172816277L1283.1419791666667,322.7212608754635L1284.3456770833334,322.749672845006L1284.9475260416666,322.8901414722204L1285.549375,322.3786814287305L1286.7530729166667,322.6021610721946L1287.354921875,321.6491420343518L1289.1604687499998,322.2488960400224L1290.3641666666667,322.147475682199L1291.5678645833334,323.08741526305676L1292.1697135416666,322.9788719639182L1293.3734114583333,322.5813367366791L1295.1789583333332,322.3236622810364L1296.3826562499999,321.93757773935795L1296.9845052083333,322.7956140562892L1297.5863541666668,322.34970854222775L1298.7900520833334,322.7082917243242L1299.99375,323.10137716680765L1300.5955989583333,322.5760584846139L1301.1974479166668,323.1860779747367L1303.6048437499999,321.8322544321418L1304.2066927083333,322.4625490754843L1305.410390625,321.53093406558037L1306.6140885416667,321.70604107528925L1309.6233333333332,322.8286166265607L1312.0307291666666,322.8308485597372L1312.632578125,322.8552637025714L1313.2344270833335,322.6417115852237L1313.8362760416667,322.91243029385805L1321.0584635416667,321.5601439923048L1322.2621614583334,323.142725430429L1323.465859375,322.6571403220296" style="fill: none;" fill="none"></path></g></g></g></g></g></g><g transform="translate(51, 378)" clip-path="url(#clip_1)"><clipPath id="clip_1"><rect width="1444" height="22"></rect></clipPath><g><g><line x1="0" y1="0" x2="0" y2="5" style="visibility: inherit;" fill="rgb(0, 0, 0)" stroke="rgb(204, 204, 204)" stroke-width="1px"></line><line x1="120.36979166666666" y1="0" x2="120.36979166666666" y2="5" style="visibility: inherit;" fill="rgb(0, 0, 0)" stroke="rgb(204, 204, 204)" stroke-width="1px"></line><line x1="240.73958333333331" y1="0" x2="240.73958333333331" y2="5" style="visibility: inherit;" fill="rgb(0, 0, 0)" stroke="rgb(204, 204, 204)" stroke-width="1px"></line><line x1="361.109375" y1="0" x2="361.109375" y2="5" style="visibility: inherit;" fill="rgb(0, 0, 0)" stroke="rgb(204, 204, 204)" stroke-width="1px"></line><line x1="481.47916666666663" y1="0" x2="481.47916666666663" y2="5" style="visibility: inherit;" fill="rgb(0, 0, 0)" stroke="rgb(204, 204, 204)" stroke-width="1px"></line><line x1="601.8489583333334" y1="0" x2="601.8489583333334" y2="5" style="visibility: inherit;" fill="rgb(0, 0, 0)" stroke="rgb(204, 204, 204)" stroke-width="1px"></line><line x1="722.21875" y1="0" x2="722.21875" y2="5" style="visibility: inherit;" fill="rgb(0, 0, 0)" stroke="rgb(204, 204, 204)" stroke-width="1px"></line><line x1="842.5885416666667" y1="0" x2="842.5885416666667" y2="5" style="visibility: inherit;" fill="rgb(0, 0, 0)" stroke="rgb(204, 204, 204)" stroke-width="1px"></line><line x1="962.9583333333333" y1="0" x2="962.9583333333333" y2="5" style="visibility: inherit;" fill="rgb(0, 0, 0)" stroke="rgb(204, 204, 204)" stroke-width="1px"></line><line x1="1083.328125" y1="0" x2="1083.328125" y2="5" style="visibility: inherit;" fill="rgb(0, 0, 0)" stroke="rgb(204, 204, 204)" stroke-width="1px"></line><line x1="1203.6979166666667" y1="0" x2="1203.6979166666667" y2="5" style="visibility: inherit;" fill="rgb(0, 0, 0)" stroke="rgb(204, 204, 204)" stroke-width="1px"></line><line x1="1324.0677083333333" y1="0" x2="1324.0677083333333" y2="5" style="visibility: inherit;" fill="rgb(0, 0, 0)" stroke="rgb(204, 204, 204)" stroke-width="1px"></line><line x1="1444.4375" y1="0" x2="1444.4375" y2="5" style="visibility: inherit;" fill="rgb(0, 0, 0)" stroke="rgb(204, 204, 204)" stroke-width="1px"></line></g><g transform="translate(0, 8)"><text x="0" y="0" dx="0em" dy="0.95em" style="text-anchor: middle; visibility: hidden; font-family: Roboto, sans-serif; font-size: 12px; font-weight: 200;" fill="rgb(50, 49, 63)" stroke="none" stroke-width="1px">-200</text><text x="120.36979166666666" y="0" dx="0em" dy="0.95em" style="text-anchor: middle; visibility: inherit; font-family: Roboto, sans-serif; font-size: 12px; font-weight: 200;" fill="rgb(50, 49, 63)" stroke="none" stroke-width="1px">0</text><text x="240.73958333333331" y="0" dx="0em" dy="0.95em" style="text-anchor: middle; visibility: inherit; font-family: Roboto, sans-serif; font-size: 12px; font-weight: 200;" fill="rgb(50, 49, 63)" stroke="none" stroke-width="1px">200</text><text x="361.109375" y="0" dx="0em" dy="0.95em" style="text-anchor: middle; visibility: inherit; font-family: Roboto, sans-serif; font-size: 12px; font-weight: 200;" fill="rgb(50, 49, 63)" stroke="none" stroke-width="1px">400</text><text x="481.47916666666663" y="0" dx="0em" dy="0.95em" style="text-anchor: middle; visibility: inherit; font-family: Roboto, sans-serif; font-size: 12px; font-weight: 200;" fill="rgb(50, 49, 63)" stroke="none" stroke-width="1px">600</text><text x="601.8489583333334" y="0" dx="0em" dy="0.95em" style="text-anchor: middle; visibility: inherit; font-family: Roboto, sans-serif; font-size: 12px; font-weight: 200;" fill="rgb(50, 49, 63)" stroke="none" stroke-width="1px">800</text><text x="722.21875" y="0" dx="0em" dy="0.95em" style="text-anchor: middle; visibility: inherit; font-family: Roboto, sans-serif; font-size: 12px; font-weight: 200;" fill="rgb(50, 49, 63)" stroke="none" stroke-width="1px">1k</text><text x="842.5885416666667" y="0" dx="0em" dy="0.95em" style="text-anchor: middle; visibility: inherit; font-family: Roboto, sans-serif; font-size: 12px; font-weight: 200;" fill="rgb(50, 49, 63)" stroke="none" stroke-width="1px">1.2k</text><text x="962.9583333333333" y="0" dx="0em" dy="0.95em" style="text-anchor: middle; visibility: inherit; font-family: Roboto, sans-serif; font-size: 12px; font-weight: 200;" fill="rgb(50, 49, 63)" stroke="none" stroke-width="1px">1.4k</text><text x="1083.328125" y="0" dx="0em" dy="0.95em" style="text-anchor: middle; visibility: inherit; font-family: Roboto, sans-serif; font-size: 12px; font-weight: 200;" fill="rgb(50, 49, 63)" stroke="none" stroke-width="1px">1.6k</text><text x="1203.6979166666667" y="0" dx="0em" dy="0.95em" style="text-anchor: middle; visibility: inherit; font-family: Roboto, sans-serif; font-size: 12px; font-weight: 200;" fill="rgb(50, 49, 63)" stroke="none" stroke-width="1px">1.8k</text><text x="1324.0677083333333" y="0" dx="0em" dy="0.95em" style="text-anchor: middle; visibility: inherit; font-family: Roboto, sans-serif; font-size: 12px; font-weight: 200;" fill="rgb(50, 49, 63)" stroke="none" stroke-width="1px">2k</text><text x="1444.4375" y="0" dx="0em" dy="0.95em" style="text-anchor: middle; visibility: hidden; font-family: Roboto, sans-serif; font-size: 12px; font-weight: 200;" fill="rgb(50, 49, 63)" stroke="none" stroke-width="1px">2.2k</text></g><line x1="0" y1="0" x2="1444.4375" y2="0" fill="rgb(0, 0, 0)" stroke="rgb(204, 204, 204)" stroke-width="1px"></line></g></g></g></g></svg>