<svg viewBox="0 0 1496 400" xmlns="http://www.w3.org/2000/svg"><g><g><g><g><g><line x1="51.5625" y1="378" x2="46.5625" y2="378" style="visibility: inherit;" fill="rgb(0, 0, 0)" stroke="rgb(204, 204, 204)" stroke-width="1px"></line><line x1="51.5625" y1="340.2" x2="46.5625" y2="340.2" style="visibility: inherit;" fill="rgb(0, 0, 0)" stroke="rgb(204, 204, 204)" stroke-width="1px"></line><line x1="51.5625" y1="302.40000000000003" x2="46.5625" y2="302.40000000000003" style="visibility: inherit;" fill="rgb(0, 0, 0)" stroke="rgb(204, 204, 204)" stroke-width="1px"></line><line x1="51.5625" y1="264.59999999999997" x2="46.5625" y2="264.59999999999997" style="visibility: inherit;" fill="rgb(0, 0, 0)" stroke="rgb(204, 204, 204)" stroke-width="1px"></line><line x1="51.5625" y1="226.79999999999998" x2="46.5625" y2="226.79999999999998" style="visibility: inherit;" fill="rgb(0, 0, 0)" stroke="rgb(204, 204, 204)" stroke-width="1px"></line><line x1="51.5625" y1="189" x2="46.5625" y2="189" style="visibility: inherit;" fill="rgb(0, 0, 0)" stroke="rgb(204, 204, 204)" stroke-width="1px"></line><line x1="51.5625" y1="151.20000000000002" x2="46.5625" y2="151.20000000000002" style="visibility: inherit;" fill="rgb(0, 0, 0)" stroke="rgb(204, 204, 204)" stroke-width="1px"></line><line x1="51.5625" y1="113.40000000000002" x2="46.5625" y2="113.40000000000002" style="visibility: inherit;" fill="rgb(0, 0, 0)" stroke="rgb(204, 204, 204)" stroke-width="1px"></line><line x1="51.5625" y1="75.59999999999998" x2="46.5625" y2="75.59999999999998" style="visibility: inherit;" fill="rgb(0, 0, 0)" stroke="rgb(204, 204, 204)" stroke-width="1px"></line><line x1="51.5625" y1="37.79999999999999" x2="46.5625" y2="37.79999999999999" style="visibility: inherit;" fill="rgb(0, 0, 0)" stroke="rgb(204, 204, 204)" stroke-width="1px"></line><line x1="51.5625" y1="0" x2="46.5625" y2="0" style="visibility: inherit;" fill="rgb(0, 0, 0)" stroke="rgb(204, 204, 204)" stroke-width="1px"></line></g><g transform="translate(41.5625, 0)"><text x="0" y="378" dx="0em" dy="0.3em" style="text-anchor: end; visibility: hidden; font-family: Roboto, sans-serif; font-size: 12px; font-weight: 200;" fill="rgb(50, 49, 63)" stroke="none" stroke-width="1px">-0.5</text><text x="0" y="340.2" dx="0em" dy="0.3em" style="text-anchor: end; visibility: inherit; font-family: Roboto, sans-serif; font-size: 12px; font-weight: 200;" fill="rgb(50, 49, 63)" stroke="none" stroke-width="1px">0</text><text x="0" y="302.40000000000003" dx="0em" dy="0.3em" style="text-anchor: end; visibility: inherit; font-family: Roboto, sans-serif; font-size: 12px; font-weight: 200;" fill="rgb(50, 49, 63)" stroke="none" stroke-width="1px">0.5</text><text x="0" y="264.59999999999997" dx="0em" dy="0.3em" style="text-anchor: end; visibility: inherit; font-family: Roboto, sans-serif; font-size: 12px; font-weight: 200;" fill="rgb(50, 49, 63)" stroke="none" stroke-width="1px">1</text><text x="0" y="226.79999999999998" dx="0em" dy="0.3em" style="text-anchor: end; visibility: inherit; font-family: Roboto, sans-serif; font-size: 12px; font-weight: 200;" fill="rgb(50, 49, 63)" stroke="none" stroke-width="1px">1.5</text><text x="0" y="189" dx="0em" dy="0.3em" style="text-anchor: end; visibility: inherit; font-family: Roboto, sans-serif; font-size: 12px; font-weight: 200;" fill="rgb(50, 49, 63)" stroke="none" stroke-width="1px">2</text><text x="0" y="151.20000000000002" dx="0em" dy="0.3em" style="text-anchor: end; visibility: inherit; font-family: Roboto, sans-serif; font-size: 12px; font-weight: 200;" fill="rgb(50, 49, 63)" stroke="none" stroke-width="1px">2.5</text><text x="0" y="113.40000000000002" dx="0em" dy="0.3em" style="text-anchor: end; visibility: inherit; font-family: Roboto, sans-serif; font-size: 12px; font-weight: 200;" fill="rgb(50, 49, 63)" stroke="none" stroke-width="1px">3</text><text x="0" y="75.59999999999998" dx="0em" dy="0.3em" style="text-anchor: end; visibility: inherit; font-family: Roboto, sans-serif; font-size: 12px; font-weight: 200;" fill="rgb(50, 49, 63)" stroke="none" stroke-width="1px">3.5</text><text x="0" y="37.79999999999999" dx="0em" dy="0.3em" style="text-anchor: end; visibility: inherit; font-family: Roboto, sans-serif; font-size: 12px; font-weight: 200;" fill="rgb(50, 49, 63)" stroke="none" stroke-width="1px">4</text><text x="0" y="0" dx="0em" dy="0.3em" style="text-anchor: end; visibility: hidden; font-family: Roboto, sans-serif; font-size: 12px; font-weight: 200;" fill="rgb(50, 49, 63)" stroke="none" stroke-width="1px">4.5</text></g><line x1="51.5625" y1="0" x2="51.5625" y2="378" fill="rgb(0, 0, 0)" stroke="rgb(204, 204, 204)" stroke-width="1px"></line></g></g><g transform="translate(51, 0)" clip-path="url(#clip_0)"><clipPath id="clip_0"><rect width="1444" height="378"></rect></clipPath><g><g><g><line x1="0" y1="0" x2="0" y2="378" fill="rgb(0, 0, 0)" stroke="rgb(60, 60, 60)" stroke-width="1px" opacity="0.25"></line><line x1="120.36979166666666" y1="0" x2="120.36979166666666" y2="378" fill="rgb(0, 0, 0)" stroke="rgb(60, 60, 60)" stroke-width="1px" opacity="0.25"></line><line x1="240.73958333333331" y1="0" x2="240.73958333333331" y2="378" fill="rgb(0, 0, 0)" stroke="rgb(60, 60, 60)" stroke-width="1px" opacity="0.25"></line><line x1="361.109375" y1="0" x2="361.109375" y2="378" fill="rgb(0, 0, 0)" stroke="rgb(60, 60, 60)" stroke-width="1px" opacity="0.25"></line><line x1="481.47916666666663" y1="0" x2="481.47916666666663" y2="378" fill="rgb(0, 0, 0)" stroke="rgb(60, 60, 60)" stroke-width="1px" opacity="0.25"></line><line x1="601.8489583333334" y1="0" x2="601.8489583333334" y2="378" fill="rgb(0, 0, 0)" stroke="rgb(60, 60, 60)" stroke-width="1px" opacity="0.25"></line><line x1="722.21875" y1="0" x2="722.21875" y2="378" fill="rgb(0, 0, 0)" stroke="rgb(60, 60, 60)" stroke-width="1px" opacity="0.25"></line><line x1="842.5885416666667" y1="0" x2="842.5885416666667" y2="378" fill="rgb(0, 0, 0)" stroke="rgb(60, 60, 60)" stroke-width="1px" opacity="0.25"></line><line x1="962.9583333333333" y1="0" x2="962.9583333333333" y2="378" fill="rgb(0, 0, 0)" stroke="rgb(60, 60, 60)" stroke-width="1px" opacity="0.25"></line><line x1="1083.328125" y1="0" x2="1083.328125" y2="378" fill="rgb(0, 0, 0)" stroke="rgb(60, 60, 60)" stroke-width="1px" opacity="0.25"></line><line x1="1203.6979166666667" y1="0" x2="1203.6979166666667" y2="378" fill="rgb(0, 0, 0)" stroke="rgb(60, 60, 60)" stroke-width="1px" opacity="0.25"></line><line x1="1324.0677083333333" y1="0" x2="1324.0677083333333" y2="378" fill="rgb(0, 0, 0)" stroke="rgb(60, 60, 60)" stroke-width="1px" opacity="0.25"></line><line x1="1444.4375" y1="0" x2="1444.4375" y2="378" fill="rgb(0, 0, 0)" stroke="rgb(60, 60, 60)" stroke-width="1px" opacity="0.25"></line></g><g><line x1="0" y1="378" x2="1444.4375" y2="378" fill="rgb(0, 0, 0)" stroke="rgb(60, 60, 60)" stroke-width="1px" opacity="0.25"></line><line x1="0" y1="340.2" x2="1444.4375" y2="340.2" fill="rgb(0, 0, 0)" stroke="rgb(60, 60, 60)" stroke-width="1px" opacity="0.25"></line><line x1="0" y1="302.40000000000003" x2="1444.4375" y2="302.40000000000003" fill="rgb(0, 0, 0)" stroke="rgb(60, 60, 60)" stroke-width="1px" opacity="0.25"></line><line x1="0" y1="264.59999999999997" x2="1444.4375" y2="264.59999999999997" fill="rgb(0, 0, 0)" stroke="rgb(60, 60, 60)" stroke-width="1px" opacity="0.25"></line><line x1="0" y1="226.79999999999998" x2="1444.4375" y2="226.79999999999998" fill="rgb(0, 0, 0)" stroke="rgb(60, 60, 60)" stroke-width="1px" opacity="0.25"></line><line x1="0" y1="189" x2="1444.4375" y2="189" fill="rgb(0, 0, 0)" stroke="rgb(60, 60, 60)" stroke-width="1px" opacity="0.25"></line><line x1="0" y1="151.20000000000002" x2="1444.4375" y2="151.20000000000002" fill="rgb(0, 0, 0)" stroke="rgb(60, 60, 60)" stroke-width="1px" opacity="0.25"></line><line x1="0" y1="113.40000000000002" x2="1444.4375" y2="113.40000000000002" fill="rgb(0, 0, 0)" stroke="rgb(60, 60, 60)" stroke-width="1px" opacity="0.25"></line><line x1="0" y1="75.59999999999998" x2="1444.4375" y2="75.59999999999998" fill="rgb(0, 0, 0)" stroke="rgb(60, 60, 60)" stroke-width="1px" opacity="0.25"></line><line x1="0" y1="37.79999999999999" x2="1444.4375" y2="37.79999999999999" fill="rgb(0, 0, 0)" stroke="rgb(60, 60, 60)" stroke-width="1px" opacity="0.25"></line><line x1="0" y1="0" x2="1444.4375" y2="0" fill="rgb(0, 0, 0)" stroke="rgb(60, 60, 60)" stroke-width="1px" opacity="0.25"></line></g></g></g><g><g><line x1="0" y1="340.2" x2="1444.4375" y2="340.2" fill="rgb(0, 0, 0)" stroke="rgb(153, 153, 153)" stroke-width="1.5px"></line></g></g><g><g><line x1="120.36979166666666" y1="0" x2="120.36979166666666" y2="378" fill="rgb(0, 0, 0)" stroke="rgb(153, 153, 153)" stroke-width="1.5px"></line></g></g><g><g><g><g><g><path stroke="rgb(238, 51, 119)" stroke-width="2px" d="M123.37903645833333,95.29175977706909L123.98088541666667,127.69707956314089L126.38828124999999,132.82872905731202L126.99013020833334,68.52908248901367L128.19382812499998,197.9883759498596L128.79567708333335,174.1857089996338L129.39752604166668,202.707049369812L130.60122395833335,156.64213857650756L131.20307291666666,237.70172481536864L131.804921875,189.3972767829895L132.40677083333333,203.04219589233398L134.81416666666667,198.52353973388674L140.23080729166665,234.796400642395L140.83265625,188.45827531814575L142.03635416666665,220.78410730361938L143.84190104166666,223.67546253204344L144.44375,247.91237440109253L145.64744791666666,229.50281953811646L146.85114583333333,277.93210487365724L147.45299479166667,229.35164852142336L148.65669270833334,256.2560520172119L149.86039062499998,259.71901645660404L150.46223958333334,203.51986169815063L152.26778645833335,245.2585813522339L152.86963541666668,261.3975969314575L153.471484375,263.48363800048827L154.07333333333335,240.7138798713684L154.67518229166666,240.300759601593L156.48072916666666,242.28361072540284L157.082578125,261.6823831558227L158.28627604166667,221.0749677658081L159.48997395833334,248.0409788131714L160.09182291666667,256.1453639030456L160.693671875,228.67268571853637L161.29552083333334,239.16583242416382L163.10106770833332,260.20688409805297L163.70291666666665,260.5857218742371L164.30476562500002,280.0634774208069L164.90661458333332,244.14602251052858L166.11031250000002,267.820878124237L167.915859375,255.04480934143066L170.92510416666667,263.5160279273987L171.526953125,258.80714178085327L172.12880208333334,278.92265625L172.73065104166668,275.5393057823181L173.33249999999998,230.84407253265383L173.93434895833335,251.77627458572388L176.94359375,239.87985277175903L181.75838541666664,250.02615509033203L183.56393229166665,234.9710394859314L184.16578125,284.646138381958L188.37872395833332,251.4684350967407L190.18427083333333,272.9340165138245L191.38796875,256.387864780426L191.9898177083333,277.42006645202633L192.59166666666667,273.81542987823485L194.9990625,273.89426879882814L195.60091145833331,249.41065635681153L196.20276041666668,273.75310134887695L198.00830729166668,268.7609610557556L198.61015625000002,273.4235604286194L200.41570312500002,282.2537718772888L202.82309895833333,265.1082172393799L204.02679687499997,282.83504219055175L205.23049479166667,282.1413353919983L205.83234374999998,276.1662139892578L206.43419270833334,284.0340642929077L207.03604166666668,277.864296913147L209.4434375,278.51424036026L210.64713541666669,278.6535152435303L212.4526822916667,304.3310308456421L213.05453125,275.8443334579468L213.65638020833333,276.03591527938846L214.860078125,282.7088710784912L215.46192708333334,253.17188930511475L216.06377604166667,294.45249967575074L217.86932291666668,292.769034576416L219.07302083333335,286.79454402923585L219.67486979166665,283.2449180603027L220.87856770833335,276.232994556427L221.48041666666666,266.25644645690915L223.28596354166666,274.01218471527096L226.29520833333333,285.38470802307125L226.89705729166664,294.06778593063353L227.49890625,268.33233976364136L228.70260416666665,296.4985805511474L229.304453125,297.25225467681884L230.50815104166665,285.2332666397095L231.71184895833335,261.45788869857785L232.31369791666665,295.42809076309203L232.91554687500002,274.13797731399535L233.51739583333332,294.7348886489868L234.72109375,292.26162843704225L235.32294270833333,292.61609716415404L239.53588541666667,283.721484375L241.94328125,277.05213346481327L244.35067708333332,283.34179944992064L244.95252604166666,301.0782134056091L245.55437500000002,287.8839775085449L247.96177083333333,281.3059564590454L249.76731770833334,277.7228590965271L251.57286458333334,289.9379891395569L252.17471354166668,273.5148542404175L253.98026041666668,281.251847076416L254.582109375,293.2853267669678L255.78580729166669,293.1230166435242L256.38765624999996,280.5467127799988L256.98950520833336,292.7268573760986L258.19320312499997,285.54779319763185L258.79505208333336,278.29886627197266L259.99875,282.38115062713626L260.60059895833336,287.5007778167724L261.2024479166667,270.7133688926697L263.0079947916667,295.78726387023926L264.81354166666665,283.3637712478638L267.8227864583333,291.56058568954467L269.026484375,294.97297353744506L270.23018229166667,284.7292490959167L270.83203125,283.74628601074215L273.8412760416667,286.31211977005006L275.6468229166667,298.4070447921753L276.248671875,291.01743707656857L276.85052083333335,306.4240834236145L277.4523697916667,301.4043477058411L278.6560677083333,304.8376258850098L281.06346354166664,294.35004873275756L282.2671614583333,299.9237477302551L283.47085937500003,294.5723081588745L284.67455729166664,298.0112640380859L287.6838020833333,291.56287479400635L288.8875,281.3531985282898L291.2948958333333,296.5944525718689L294.304140625,293.88901948928833L295.5078385416667,270.1643623352051L296.1096875,279.0016573905945L297.915234375,286.92096748352054L299.1189322916667,283.44664764404297L299.72078124999996,301.43086166381835L300.32263020833335,295.4233142852783L301.52632812499996,296.3767353057861L302.12817708333336,284.82416582107544L302.7300260416667,303.02714252471924L305.137421875,309.25085706710814L305.73927083333336,298.66966094970707L306.94296875,296.29052438735965L308.748515625,297.86081399917606L311.1559114583333,289.8162340164185L311.75776041666666,311.74846830368045L312.359609375,289.5711556434631L312.9614583333333,293.3178608894348L314.16515625,297.42164840698246L315.970703125,279.89078521728516L316.57255208333333,286.5245378494263L317.17440104166667,300.6909401893616L318.9799479166667,310.8006709098816L319.581796875,300.4818025588989L320.7854947916667,280.18598957061766L324.3965885416667,304.5209544181824L325.6002864583333,295.7929595947266L327.4058333333333,291.9246073722839L328.00768229166664,291.74052371978763L329.2113802083333,301.3363414764404L329.81322916666664,291.6975894927978L332.8224739583333,285.40590476989746L333.42432291666665,308.60684366226195L334.6280208333333,305.43059406280514L335.83171875,297.6051552772522L336.4335677083333,287.29407348632816L337.03541666666666,300.92990827560425L338.84096354166667,306.92552347183226L339.4428125,297.97530527114867L341.248359375,302.30612869262694L341.85020833333334,292.0564742088318L343.05390625,303.2677328109741L343.65575520833335,294.6858801841736L344.85945312499996,288.313896560669L347.26684895833336,302.10248851776123L347.8686979166667,307.38995933532715L348.47054687499997,307.82777309417725L349.6742447916667,294.7700903892517L350.27609375,302.69111280441285L352.081640625,280.69568481445316L352.6834895833333,302.6090114593506L353.2853385416667,300.5450503349304L353.8871875,300.1379502296448L355.09088541666665,285.14730806350707L355.692734375,298.13063993453983L356.2945833333333,302.56627550125125L356.89643229166666,311.2427384376526L362.31307291666667,280.1098182678223L362.91492187499995,308.98223876953125L364.1186197916667,307.7247453689575L365.9241666666667,298.74718408584596L370.13710937499997,298.3738257408142L370.7389583333333,300.7610192298889L373.1463541666667,305.507089805603L373.748203125,298.2684548377991L374.3500520833333,309.83751668930057L375.55375000000004,280.92879495620724L376.75744791666665,292.21426019668576L379.16484375,305.13248777389526L384.581484375,307.90062789916993L385.18333333333334,296.50159063339237L385.7851822916667,305.47351026535034L386.38703125,296.54398412704467L387.5907291666666,299.1913424491882L388.192578125,287.1176141738892L389.998125,299.2944783210755L391.80367187499996,298.53584747314454L396.01661458333336,296.1958239555359L396.6184635416667,306.7416561126709L397.22031250000003,303.49404773712155L397.8221614583333,301.31835308074955L399.025859375,308.51810932159424L399.6277083333333,293.84595909118656L400.2295572916667,301.95834703445433L401.4332552083333,297.07853507995605L402.03510416666666,301.5239038467407L402.636953125,302.0714864730835L403.8406510416667,311.38597869873047L405.04434895833333,306.1245171546936L405.64619791666667,312.5688328742981L408.05359374999995,299.489070224762L412.2665364583333,310.08477602005L414.07208333333335,291.4821793556213L414.6739322916667,303.3507534027099L415.8776302083333,287.93835725784305L417.081328125,306.6979468345642L418.886875,303.2729418754578L425.50721354166666,310.85771827697755L427.31276041666666,312.2784410476684L427.914609375,310.20431413650516L428.5164583333334,297.66984500885013L429.72015625,302.6802981376648L430.9238541666667,307.07864112854L431.525703125,311.47346935272213L432.7294010416666,296.1879112243652L435.73864583333335,299.14572257995604L436.34049479166663,304.957200050354L439.95158854166664,299.66417770385743L441.15528645833336,298.8608462333679L441.7571354166667,307.71342601776126L442.35898437500003,295.89721298217773L442.9608333333333,302.1855812072754L443.56268229166665,302.4052451133728L444.16453125,311.354922580719L444.7663802083333,304.43784370422367L445.3682291666667,305.06376056671144L445.97007812500004,294.24399290084835L446.5719270833333,307.40890302658084L447.775625,292.58143615722656L449.58117187500005,305.45914478302L450.18302083333333,315.23517093658444L450.78486979166667,306.5593388557434L451.98856770833333,297.0259037017822L454.3959635416667,311.3066170692444L455.59966145833334,307.04030313491825L456.80335937499996,305.34413080215455L459.21075520833335,312.28476762771606L459.8126041666667,301.45569934844974L460.41445312499997,292.2863399505615L461.61815104166664,305.01639232635495L462.82184895833336,304.9222867012024L464.025546875,311.4998210906983L465.22924479166664,294.32827520370483L465.83109375000004,305.4071262359619L467.636640625,305.5793137550354L468.84033854166665,305.51529092788695L469.4421875,303.55401506423954L470.0440364583334,284.5622706413269L470.64588541666666,302.52934341430665L471.247734375,310.38843383789066L471.8495833333333,311.65796756744385L473.05328125,315.3932453155517L473.6551302083334,310.2826844215393L476.664375,300.4283961296082L477.26622395833334,309.0506956100464L478.469921875,300.69948377609256L479.07177083333335,312.0097326278687L479.6736197916667,295.17203550338746L481.47916666666663,310.2944543838501L482.68286458333336,295.87379922866825L483.8865625,308.74554176330565L485.09026041666664,299.3305812835693L486.29395833333336,310.830699634552L487.49765625000003,308.010036277771L488.0995052083333,301.30382537841797L488.70135416666665,303.5686509132385L490.5069010416667,307.76841859817506L492.914296875,300.78035945892333L493.5161458333333,308.8939730644226L494.71984375000005,309.65020666122433L495.32169270833333,304.8900950431824L496.525390625,308.3705612182617L498.9327864583333,302.5848046302795L501.94203124999996,296.31188335418705L506.1549739583333,304.81037292480465L506.75682291666664,304.0808695793152L507.96052083333336,300.77502422332765L508.5623697916667,313.1018877983093L509.16421875,308.8306531906128L509.7660677083333,314.2574529647827L510.36791666666664,309.8524950027466L510.96976562500004,306.7046339035034L512.1734635416666,308.5866743087768L512.7753124999999,309.8217813491821L515.1827083333334,309.04979438781737L515.7845572916666,296.6543658256531L516.9882552083333,312.7107213020325L518.191953125,311.6748564720154L519.9975,309.09997444152833L521.2011979166667,306.3033016204834L521.8030468750001,310.7567273139953L522.4048958333334,314.321782207489L524.2104427083333,311.80843563079833L524.8122916666666,312.3594789505005L525.4141406250001,306.4248584747315L526.0159895833334,307.41467084884647L526.6178385416666,304.62322511672977L527.8215364583333,310.3578643798828L528.4233854166666,304.6167182922363L529.0252343750001,307.6685631752014L530.2289322916666,311.30618448257445L530.83078125,305.43248662948605L531.4326302083333,295.2406004905701L532.0344791666666,317.0027921676636L532.636328125,314.3876795768738L533.2381770833333,309.96118240356446L534.441875,303.4946605682373L535.0437239583333,310.26536293029784L536.8492708333333,312.6806925773621L539.2566666666667,300.21192255020145L541.0622135416667,309.92365550994873L541.6640625,308.6454339981079L542.2659114583333,306.76279878616333L543.469609375,305.600276184082L544.0714583333333,314.2764687538147L544.6733072916667,307.06815090179447L545.27515625,305.56896772384647L546.4788541666667,310.7738505363464L547.080703125,311.23868293762206L547.6825520833333,290.31601581573483L550.0899479166667,285.8718366622925L552.49734375,311.0305727005005L553.0991927083334,314.46942043304443L554.3028906249999,309.15179471969606L554.9047395833334,315.30142879486084L555.5065885416667,297.1531202316284L556.1084375,303.17128400802613L556.7102864583334,310.7869903564453L557.3121354166666,313.38052768707274L559.1176822916667,302.00005559921266L559.71953125,300.8203737258911L563.330625,304.6289388656616L564.5343229166666,314.8570721626282L565.136171875,312.45279150009156L565.7380208333333,310.53066473007203L566.3398697916667,310.56592054367064L567.5435677083334,311.1911164283752L569.3491145833333,292.577596950531L569.9509635416666,302.0988295555115L571.7565104166666,309.0481000900268L572.358359375,305.7308632850647L572.9602083333333,306.0500942230224L574.1639062500001,308.5970744132996L575.3676041666666,295.78136987686156L577.1731510416666,305.582720375061L577.775,309.63308343887326L578.9786979166666,296.8800498962402L580.7842447916667,305.6894070625305L581.38609375,305.9126217842102L581.9879427083333,300.8521508216858L583.191640625,307.76724700927736L583.7934895833333,306.67941770553585L584.3953385416667,309.95276498794556L585.5990364583333,310.0024403572083L586.2008854166667,311.272983455658L586.802734375,311.7626895904541L589.8119791666667,309.67127723693847L592.219375,299.9093101501465L592.8212239583333,309.17210826873776L594.024921875,310.6297811508179L595.2286197916667,304.9368144035339L596.4323177083334,314.7127143859863L597.0341666666667,299.6643759727478L597.636015625,305.8617928504944L598.2378645833334,299.187575340271L598.8397135416667,312.5461220741272L599.4415624999999,294.10597972869874L600.6452604166667,308.3177856445313L601.8489583333334,303.2733744621277L603.0526562499999,316.64136600494385L604.858203125,311.278949546814L606.0619010416666,302.17298212051395L606.6637499999999,301.8245335578918L607.2655989583333,309.32448692321776L609.6729947916666,311.47227973937987L610.8766927083333,314.9736903190613L611.4785416666667,299.79748649597167L612.6822395833334,305.30689229965213L614.4877864583333,311.77411708831784L615.6914843750001,312.4224924087525L616.2933333333334,304.6011451721192L616.8951822916666,310.8225165367126L618.7007291666666,307.2131034851074L620.5062760416666,317.6438856124878L621.108125,313.91765613555907L622.3118229166666,307.11018390655516L623.5155208333333,309.1420615196228L624.71921875,311.5557869911194L627.7284635416667,310.89623651504513L628.9321614583333,311.3340322494507L629.5340104166667,309.6627336502075L630.135859375,312.4453293800354L630.7377083333333,305.5626411437988L632.5432552083333,315.1093783378601L636.1543489583333,312.8933629989624L637.358046875,299.1330153465271L637.9598958333333,302.78055009841916L638.5617447916667,318.15983533859253L639.16359375,295.5425820350647L639.7654427083334,308.9798775672912L642.1728385416667,308.4890358924866L643.3765364583334,311.1811308860779L643.9783854166667,310.85916023254396L645.7839322916667,309.0489652633667L646.38578125,309.27870483398436L646.9876302083334,315.2707151412964L647.5894791666666,311.5341756820679L648.1913281249999,313.7895383834839L649.3950260416667,309.35703907012936L649.996875,315.22857398986815L650.5987239583334,307.1215393066406L651.2005729166666,309.5528025627136L652.4042708333333,312.5108302116394L654.2098177083334,308.8616011619568L655.413515625,298.07535896301266L656.0153645833333,311.0469569206238L657.2190625000001,305.8334764480591L657.8209114583334,313.55201225280763L659.6264583333333,308.70186853408813L660.2283072916666,307.92571792602536L661.4320052083334,311.717754650116L662.0338541666666,311.9945560455322L666.246796875,308.99833459854125L666.8486458333333,316.9976912498474L667.4504947916666,306.7062020301819L668.05234375,310.8428120613098L668.6541927083333,295.2498109817505L669.2560416666666,307.3733768463135L669.857890625,302.6766031265259L671.0615885416667,310.96781158447266L671.6634375,309.0451260566711L672.2652864583333,311.300452709198L674.0708333333333,311.2254349708557L674.6726822916667,297.8453490257263L675.27453125,302.2361397743225L675.8763802083333,310.9590156555176L677.080078125,307.53145122528076L680.691171875,308.04916734695433L681.2930208333333,314.0149881362915L681.8948697916667,309.3583368301392L683.0985677083333,307.48759775161744L685.5059635416667,304.0940274238587L687.3115104166667,308.7700730323791L689.1170572916667,300.2443665504456L691.524453125,316.9543965339661L693.3299999999999,312.27739562988285L693.9318489583334,312.44859180450436L694.5336979166667,317.5531145095825L695.7373958333334,304.8612739562988L696.3392447916666,317.63800964355465L696.9410937499999,314.6882552146912L698.746640625,290.67585582733153L699.3484895833334,310.63572921752933L700.5521875,313.03595438003543L701.7558854166667,297.07170381546024L702.3577343750001,315.6345205307007L703.5614322916666,316.36633100509647L704.7651302083333,307.9233567237854L705.3669791666666,310.8127292633057L706.5706770833334,310.1363079071045L707.774375,310.01749076843265L708.3762239583333,310.0351547241211L708.9780729166666,311.8573359489441L709.5799218750001,311.28711462020874L711.38546875,316.46395139694215L711.9873177083333,303.66010694503785L712.5891666666666,306.49189138412476L714.3947135416666,312.1867506980896L714.9965625,309.28805952072145L719.8113541666667,306.47354249954225L721.6169010416667,298.65439424514767L722.21875,317.49037141799926L723.4224479166667,309.1196210861206L724.6261458333333,304.98798580169677L725.2279947916667,321.39556560516354L727.0335416666666,308.83323068618773L727.635390625,309.07084693908695L728.8390885416667,309.7377153396606L729.4409375,307.07018766403195L730.0427864583332,302.5604355812073L730.6446354166667,307.45720853805545L732.4501822916667,315.92341632843016L737.2649739583333,297.39632406234745L737.8668229166667,314.4301812171936L738.4686718749999,301.91896362304686L739.6723697916667,311.3831308364868L740.8760677083334,314.10507431030277L741.4779166666666,319.67107686996457L742.079765625,306.14257764816284L743.2834635416666,297.1144037246704L744.4871614583333,309.02668704986576L745.0890104166667,316.32278394699097L745.690859375,309.81442737579346L747.49640625,306.4868805885315L748.0982552083334,313.42798604965213L748.7001041666666,309.00193948745726L751.7093489583333,306.66863908767704L752.913046875,308.59204559326173L753.5148958333333,301.2480397224426L754.71859375,316.0934769630432L755.3204427083334,317.97757215499877L756.5241406250001,307.669482421875L760.135234375,308.21369447708133L760.7370833333333,308.03855094909665L761.94078125,314.43656187057496L763.1444791666667,311.2134847640991L765.551875,311.99217681884767L766.7555729166668,309.19265613555905L767.9592708333332,306.05925064086915L769.16296875,313.68941259384155L770.3666666666667,304.91799688339233L771.5703645833333,308.11250524520875L772.1722135416666,302.6973132133484L772.7740625,316.2990998268128L773.3759114583333,309.36350984573363L773.9777604166667,311.52768688201905L776.38515625,307.4067581176758L777.5888541666667,320.4383955001831L778.1907031249999,311.33060760498046L781.801796875,314.2052541732788L783.0054947916667,308.59745292663575L784.2091927083334,307.25430736541745L784.8110416666667,311.791925239563L785.4128906249999,312.5008266448975L789.023984375,311.2535711288452L790.82953125,311.3980010032654L792.0332291666667,314.37535085678104L793.8387760416666,308.1353782653809L795.6443229166666,318.44139518737796L796.2461718750001,302.3834355354309L797.4498697916667,310.21541719436647L798.05171875,312.8042140960693L798.6535677083333,310.9503458976746L799.2554166666666,311.2505790710449L800.4591145833334,312.22389907836913L801.0609635416666,314.4665365219116L802.2646614583333,316.4817054748535L802.8665104166666,314.86422786712643L803.468359375,313.7576711654663L805.27390625,298.12227659225465L805.8757552083333,319.18434476852417L807.079453125,304.4769387245178L811.8942447916668,312.4114974975586L812.49609375,312.951798248291L813.0979427083332,305.22441244125366L813.6997916666667,301.57678756713864L815.5053385416667,314.28531875610355L816.1071874999999,317.6472922325134L816.7090364583333,313.40657300949096L818.5145833333333,312.4973299026489L819.1164322916667,314.96013593673706L819.71828125,317.1342985153198L821.523828125,310.0968884468079L828.7460156249999,313.57823781967164L830.5515624999999,311.96975440979L831.7552604166666,316.52707300186154L832.357109375,312.6016193389892L833.5608072916666,314.24950418472287L834.16265625,304.3260380744934L835.968203125,306.99398031234745L837.77375,312.28413677215576L838.3755989583334,314.7527827262879L838.9774479166666,307.45427055358886L839.5792968750001,307.591833114624L840.1811458333333,305.59403972625734L840.7829947916666,306.5670713424683L841.3848437500001,314.7616687774658L841.9866927083333,316.08898887634274L843.190390625,310.80126571655273L844.3940885416666,316.32966928482057L844.9959375,303.4474004745484L846.1996354166666,306.7599869728088L847.4033333333333,313.30006656646725L848.60703125,305.3945271492004L849.2088802083333,310.8706958770752L849.8107291666668,309.1987664222717L850.412578125,309.2702693939209L851.0144270833333,310.2273133277893L851.6162760416667,305.6504021644592L854.0236718750001,305.44694223403934L857.0329166666668,302.10356998443604L857.634765625,315.921019077301L858.8384635416667,315.05894594192506L859.4403125,305.4583336830139L861.8477083333333,305.66271286010743L862.4495572916666,312.29999828338623L863.05140625,306.1687671661377L864.2551041666667,314.3998821258545L866.0606510416667,314.9475368499756L867.8661979166667,316.2856355667114L869.0698958333334,311.08662872314454L870.27359375,315.46172018051146L870.8754427083334,303.6011309623718L872.079140625,300.7153633117676L872.6809895833333,314.36203079223634L874.4865364583334,312.7437240600586L875.0883854166667,309.76368856430054L875.6902343749999,314.60718126296996L876.8939322916666,316.4935655593872L877.49578125,312.7505192756653L878.0976302083333,321.90044832229614L879.301328125,308.6406935691834L879.9031770833333,310.4213644981384L880.5050260416667,310.9108903884888L881.106875,313.20909719467164L881.7087239583334,312.88379201889035L882.3105729166667,307.1868418693543L885.3198177083333,312.64296741485595L885.9216666666666,308.61134977340697L887.1253645833333,305.97951049804686L889.5327604166666,314.57042942047116L890.134609375,308.9076175689697L891.3383072916666,313.8366723060608L893.745703125,307.21158943176266L894.9494010416668,311.37566871643065L896.1530989583333,316.09751443862916L897.356796875,312.02377367019653L897.9586458333334,312.23583126068115L898.5604947916667,306.30124683380126L899.1623437500001,313.29577674865726L900.3660416666667,309.32470321655273L902.1715885416668,311.30003814697267L902.7734375,318.4081040382385L903.9771354166667,306.6462166786194L904.578984375,313.6292109489441L905.1808333333333,303.57708635330204L906.3845312499999,307.1684929847717L908.7919270833333,303.8920635223389L909.995625,308.73052740097046L910.5974739583332,313.34512767791745L911.801171875,300.3575059890747L912.4030208333334,318.42789487838746L914.2085677083334,316.91775283813473L914.8104166666666,311.95313587188724L917.8196614583333,308.54280281066895L918.4215104166667,308.74370326995853L919.0233593749999,307.7357943534851L919.6252083333334,313.0576017379761L920.8289062499999,317.4125418663025L922.0326041666666,309.04799194335936L922.634453125,302.61041736602783L923.2363020833333,309.9188610076904L923.8381510416666,311.37662401199344L924.44,305.7970850944519L925.0418489583333,316.3571024894714L926.8473958333334,309.7239086151123L928.6529427083334,316.30245237350465L929.8566406250001,310.41063995361327L931.0603385416666,304.6124104499817L931.6621875000001,306.44445104599L932.2640364583333,322.4570972442627L932.8658854166667,302.1007221221924L933.467734375,316.2285701751709L935.8751302083334,305.3268814086914L938.2825260416666,300.5173828125L939.4862239583333,307.87761068344116L940.0880729166668,317.24626636505127L941.8936197916667,303.40145616531373L942.49546875,306.39922771453854L943.0973177083334,310.55319528579713L944.9028645833333,300.30379314422606L946.7084114583333,301.2066195487976L947.3102604166668,307.5523235321045L947.912109375,317.66126117706295L949.1158072916667,316.3644564628601L949.71765625,315.44490337371826L950.3195052083333,310.97325496673585L952.1250520833333,305.7964542388916L953.32875,308.9049499511719L953.9305989583333,317.90911531448364L954.5324479166667,313.1692992210388L955.134296875,310.83293466567994L955.7361458333332,311.33650159835815L956.3379947916667,319.9328819274902L957.5416927083334,313.3290678977966L958.1435416666667,309.91531019210817L959.9490885416666,312.78135910034183L962.9583333333333,305.50400762557985L970.1805208333333,307.72128467559816L970.7823697916667,319.3331726074219L971.38421875,318.05864610672L971.9860677083334,315.07122058868407L974.3934635416666,307.28952713012694L976.1990104166666,316.2159170150757L976.8008593750001,318.0254991531372L978.0045572916667,313.514395236969L978.60640625,309.60170288085936L979.2082552083333,308.5723809242249L979.8101041666666,314.84887104034425L981.0138020833334,307.5751965522766L982.2175000000001,316.4470624923706L982.8193489583333,316.34071826934814L983.4211979166666,307.3603812217712L984.6248958333333,316.6513335227966L985.2267447916668,319.6327388763428L985.82859375,313.669820022583L987.0322916666667,305.89829235076905L988.2359895833334,307.9112442970276L991.8470833333333,298.9298257827759L993.05078125,317.26266860961914L996.0600260416667,311.2066354751587L996.6618749999999,314.0543535232544L999.0692708333333,313.2616024017334L1002.078515625,311.6482523918152L1002.6803645833334,315.13304443359374L1005.0877604166666,314.0953230857849L1007.49515625,308.7475064277649L1009.3007031249999,316.54996404647824L1011.1062499999999,309.7716733932495L1011.7080989583334,311.57377538681027L1012.3099479166666,310.07131175994874L1014.1154947916666,316.58815784454345L1014.71734375,315.74212646484375L1016.522890625,311.63736562728883L1017.7265885416667,315.40135631561276L1018.3284375,311.3732714653015L1018.9302864583334,316.43311157226566L1023.1432291666667,312.5017999649048L1023.745078125,316.9629040718078L1024.3469270833332,315.18463039398193L1024.9487760416666,313.35457248687743L1026.1524739583333,314.3682131767273L1026.7543229166668,305.96108951568607L1027.356171875,314.6326678276062L1027.9580208333334,311.29153060913086L1028.5598697916666,309.9028192520141L1029.16171875,322.6299156188965L1029.7635677083333,305.97824878692626L1030.3654166666668,308.11583976745607L1030.967265625,315.0000060081482L1032.7728124999999,316.89724102020267L1033.9765104166665,304.75601119995116L1036.9857552083333,321.36896152496337L1037.5876041666668,315.3397307395935L1038.189453125,317.4609375L1039.3931510416667,307.51367912292477L1043.6060937500001,316.68588638305664L1044.8097916666668,294.56893758773805L1047.8190364583334,315.79994888305663L1048.4208854166666,309.0722528457641L1050.8282812500001,311.8255588531494L1052.0319791666668,308.88420381546024L1052.633828125,314.8798370361328L1053.8375260416667,310.6546188354492L1054.439375,318.28204107284546L1055.6430729166666,320.1882162094116L1056.244921875,297.22002696990967L1059.856015625,305.05382909774784L1060.4578645833333,317.7832686424255L1061.0597135416667,311.30912246704105L1064.0689583333333,302.52537803649903L1064.6708072916667,315.72273216247555L1070.0874479166666,307.9293588638306L1070.6892968749999,312.9407492637634L1072.49484375,310.11772470474244L1073.0966927083334,302.1135915756226L1073.6985416666666,320.1314392089844L1074.9022395833333,302.75234184265133L1076.1059375,317.6016002655029L1077.3096354166667,309.33622083663937L1079.1151822916665,316.40850820541385L1079.71703125,318.020272064209L1080.9207291666667,303.72512111663815L1081.522578125,317.33181037902835L1082.7262760416668,315.06694879531864L1083.9299739583332,305.38811044692994L1084.5318229166667,306.6629433631897L1085.7355208333333,317.25533266067504L1086.3373697916666,314.3105890274048L1088.7447656250001,318.60480480194093L1089.3466145833333,312.420365524292L1090.5503125,316.77317876815795L1091.1521614583332,313.3517426490784L1091.7540104166667,321.5586688041687L1092.355859375,316.9175365447998L1093.5595572916666,315.6607641220093L1094.16140625,308.9133313179016L1094.7632552083332,312.43772306442264L1095.3651041666667,311.6082921981811L1097.7725,314.3014326095581L1098.9761979166667,313.5841137886047L1099.578046875,313.50008382797245L1100.1798958333334,318.4357355117798L1101.38359375,308.3412534713745L1102.5872916666667,314.1612204551697L1103.7909895833334,305.86271209716796L1104.9946875,316.9317217826843L1105.5965364583333,316.5115539550781L1106.1983854166667,317.95170707702636L1107.4020833333334,314.567221069336L1108.0039322916666,319.01190490722655L1108.6057812499998,316.8569383621216L1109.2076302083333,322.58741397857665L1109.8094791666667,311.66121196746826L1110.411328125,318.0609532356262L1111.6150260416666,317.7125226974487L1112.216875,305.70391674041747L1114.022421875,311.89488086700436L1114.6242708333332,319.86965217590335L1115.8279687499999,315.7799777984619L1116.4298177083333,316.1772185325622L1118.2353645833334,304.42868728637694L1118.8372135416666,300.156010723114L1119.4390625,313.3596914291382L1120.0409114583333,314.77758436203004L1120.6427604166668,311.51871070861813L1121.8464583333332,322.7220385551453L1124.2538541666665,309.09215183258056L1125.4575520833334,302.932550239563L1126.0594010416667,309.3262172698974L1126.66125,311.6818139076233L1128.466796875,312.6420121192932L1129.0686458333332,309.2451252937317L1130.27234375,317.9483004570007L1132.6797395833335,314.11374406814576L1133.2815885416667,310.56655139923095L1133.8834375000001,312.27337617874144L1134.4852864583333,307.2445921897888L1135.688984375,310.567795085907L1138.0963802083334,310.87713060379025L1138.6982291666666,314.0656908988953L1139.9019270833332,315.7102412223816L1140.5037760416667,307.1281903266907L1141.1056250000001,313.50896987915036L1141.7074739583334,314.78077468872067L1142.911171875,318.1088622093201L1144.71671875,317.53945198059085L1145.3185677083334,310.3741044044495L1145.9204166666666,309.4561915397644L1146.522265625,307.4482864379883L1147.1241145833333,311.3268404960632L1148.9296614583334,312.1505756378174L1149.5315104166666,311.3117540359497L1151.93890625,314.35462274551395L1152.5407552083334,313.33534040451053L1153.7444531249998,312.48224344253543L1154.3463020833333,316.54084367752074L1154.9481510416667,323.3834275245667L1157.355546875,308.7267783164978L1159.16109375,316.61218442916874L1160.3647916666666,318.2988398551941L1162.1703385416668,302.55335197448727L1162.7721875,316.84689874649047L1163.3740364583334,315.7237054824829L1163.9758854166666,311.2954959869385L1164.577734375,317.57815046310424L1165.7814322916668,311.7114280700684L1166.38328125,316.98000926971434L1166.9851302083332,310.9016258239746L1168.7906770833333,310.78619728088375L1169.3925260416665,313.9778217315674L1170.5962239583334,308.2452733039856L1171.1980729166667,318.7588597297668L1171.799921875,310.1579372406006L1173.60546875,302.0388261795044L1174.8091666666667,317.60902633666996L1175.411015625,317.4114603996277L1176.0128645833333,316.8674826622009L1176.6147135416666,315.4710027694702L1180.82765625,319.8512131690979L1181.4295052083332,308.0742033004761L1183.2350520833334,321.3960883140564L1186.2442968750001,303.58489093780514L1188.6516927083333,318.0635848045349L1189.855390625,314.03157062530516L1191.0590885416666,309.86204795837403L1192.2627864583333,297.8190874099732L1192.8646354166667,315.2001133918762L1193.4664843750002,319.87134647369385L1194.0683333333334,319.4706991195679L1196.4757291666667,314.7109479904175L1197.077578125,320.7737943649292L1197.6794270833334,312.9944260597229L1198.8831249999998,316.70437946319583L1199.4849739583333,316.71488771438595L1200.0868229166667,304.89052762985233L1202.49421875,314.547430229187L1203.6979166666667,314.2819121360779L1204.9016145833332,300.5085688591003L1206.1053124999999,314.513562297821L1206.7071614583333,307.41137237548827L1207.910859375,312.3275396347046L1210.3182552083333,314.7317301750183L1211.521953125,310.10404415130614L1212.1238020833332,299.7584635734558L1213.9293489583333,320.6808783531189L1215.7348958333334,309.49771986007687L1218.1422916666668,308.13220596313477L1219.3459895833332,317.0759714126587L1219.9478385416667,315.5206601142883L1221.7533854166666,315.4317275047302L1224.1607812500001,312.8939037322998L1224.7626302083333,302.1348604202271L1225.3644791666668,311.1374937057495L1225.966328125,316.59140224456786L1227.771875,319.4248629570007L1228.3737239583334,316.242557144165L1228.9755729166666,308.96488122940065L1230.1792708333332,312.6268175125122L1230.7811197916667,310.97532777786256L1231.3829687500001,308.12688875198364L1232.5866666666668,312.5276830673218L1233.188515625,310.6432454109192L1234.9940625,319.1181950569153L1235.5959114583334,308.2237340927124L1236.799609375,321.94489660263065L1238.0033072916667,305.01102104187015L1238.6051562500002,307.29448385238646L1239.2070052083334,322.8482276916504L1243.4199479166666,316.67375593185426L1244.0217968749998,318.6836437225342L1244.6236458333333,298.1857406616211L1245.2254947916667,316.78451614379884L1248.8365885416667,316.41748437881466L1249.4384375,317.9301858901977L1250.0402864583332,318.6817511558533L1250.6421354166666,310.1239611625671L1251.2439843749999,318.34826288223263L1252.4476822916668,320.5585103988647L1254.2532291666666,311.71063499450685L1256.0587760416668,319.53567724227906L1258.4661718749999,314.0029658317566L1259.0680208333333,309.57565755844115L1259.6698697916665,319.5025122642517L1260.27171875,316.3975673675537L1260.8735677083334,313.51625175476073L1262.077265625,310.4451026916504L1262.6791145833333,311.8346431732178L1265.0865104166667,316.48103857040405L1266.8920572916666,315.62300291061405L1267.49390625,311.56272640228275L1269.2994531250001,304.7371576309204L1269.9013020833333,323.70950775146486L1270.5031510416668,314.42390871047974L1271.105,313.5655305862427L1271.7068489583332,316.55930070877076L1272.910546875,310.2896238327026L1273.5123958333334,325.0089800834656L1274.1142447916666,317.6414162635803L1274.71609375,312.4720055580139L1275.3179427083332,312.820796585083L1277.7253385416668,320.7202437400818L1278.3271875,312.1020538330078L1278.9290364583333,302.9127233505249L1280.7345833333334,319.5198157310486L1281.93828125,318.89714326858524L1282.5401302083333,315.3147849082947L1283.1419791666667,314.5285045623779L1284.3456770833334,317.8493282318115L1284.9475260416666,310.1431932449341L1285.549375,308.5524098396301L1286.7530729166667,313.4041216850281L1287.354921875,315.3847197532654L1289.1604687499998,314.1340936660767L1290.3641666666667,319.27095222473145L1291.5678645833334,316.7757742881775L1292.1697135416666,316.84271707534793L1293.3734114583333,319.216500377655L1295.1789583333332,315.32776250839237L1296.3826562499999,317.41501121521L1296.9845052083333,319.87684392929077L1297.5863541666668,310.3732031822205L1298.7900520833334,310.149934387207L1299.99375,310.19153480529786L1300.5955989583333,314.55373878479L1301.1974479166668,314.62835998535155L1303.6048437499999,307.9515289306641L1304.2066927083333,319.2799824714661L1305.410390625,305.3156702041626L1306.6140885416667,317.40785551071167L1309.6233333333332,316.18076934814457L1312.0307291666666,319.858206653595L1312.632578125,312.522564125061L1313.2344270833335,318.6822378158569L1313.8362760416667,313.30116605758667L1321.0584635416667,312.0365710258484L1322.2621614583334,313.44318065643307L1323.465859375,307.818382358551" style="fill: none;" fill="none"></path></g></g></g></g></g></g><g transform="translate(51, 378)" clip-path="url(#clip_1)"><clipPath id="clip_1"><rect width="1444" height="22"></rect></clipPath><g><g><line x1="0" y1="0" x2="0" y2="5" style="visibility: inherit;" fill="rgb(0, 0, 0)" stroke="rgb(204, 204, 204)" stroke-width="1px"></line><line x1="120.36979166666666" y1="0" x2="120.36979166666666" y2="5" style="visibility: inherit;" fill="rgb(0, 0, 0)" stroke="rgb(204, 204, 204)" stroke-width="1px"></line><line x1="240.73958333333331" y1="0" x2="240.73958333333331" y2="5" style="visibility: inherit;" fill="rgb(0, 0, 0)" stroke="rgb(204, 204, 204)" stroke-width="1px"></line><line x1="361.109375" y1="0" x2="361.109375" y2="5" style="visibility: inherit;" fill="rgb(0, 0, 0)" stroke="rgb(204, 204, 204)" stroke-width="1px"></line><line x1="481.47916666666663" y1="0" x2="481.47916666666663" y2="5" style="visibility: inherit;" fill="rgb(0, 0, 0)" stroke="rgb(204, 204, 204)" stroke-width="1px"></line><line x1="601.8489583333334" y1="0" x2="601.8489583333334" y2="5" style="visibility: inherit;" fill="rgb(0, 0, 0)" stroke="rgb(204, 204, 204)" stroke-width="1px"></line><line x1="722.21875" y1="0" x2="722.21875" y2="5" style="visibility: inherit;" fill="rgb(0, 0, 0)" stroke="rgb(204, 204, 204)" stroke-width="1px"></line><line x1="842.5885416666667" y1="0" x2="842.5885416666667" y2="5" style="visibility: inherit;" fill="rgb(0, 0, 0)" stroke="rgb(204, 204, 204)" stroke-width="1px"></line><line x1="962.9583333333333" y1="0" x2="962.9583333333333" y2="5" style="visibility: inherit;" fill="rgb(0, 0, 0)" stroke="rgb(204, 204, 204)" stroke-width="1px"></line><line x1="1083.328125" y1="0" x2="1083.328125" y2="5" style="visibility: inherit;" fill="rgb(0, 0, 0)" stroke="rgb(204, 204, 204)" stroke-width="1px"></line><line x1="1203.6979166666667" y1="0" x2="1203.6979166666667" y2="5" style="visibility: inherit;" fill="rgb(0, 0, 0)" stroke="rgb(204, 204, 204)" stroke-width="1px"></line><line x1="1324.0677083333333" y1="0" x2="1324.0677083333333" y2="5" style="visibility: inherit;" fill="rgb(0, 0, 0)" stroke="rgb(204, 204, 204)" stroke-width="1px"></line><line x1="1444.4375" y1="0" x2="1444.4375" y2="5" style="visibility: inherit;" fill="rgb(0, 0, 0)" stroke="rgb(204, 204, 204)" stroke-width="1px"></line></g><g transform="translate(0, 8)"><text x="0" y="0" dx="0em" dy="0.95em" style="text-anchor: middle; visibility: hidden; font-family: Roboto, sans-serif; font-size: 12px; font-weight: 200;" fill="rgb(50, 49, 63)" stroke="none" stroke-width="1px">-200</text><text x="120.36979166666666" y="0" dx="0em" dy="0.95em" style="text-anchor: middle; visibility: inherit; font-family: Roboto, sans-serif; font-size: 12px; font-weight: 200;" fill="rgb(50, 49, 63)" stroke="none" stroke-width="1px">0</text><text x="240.73958333333331" y="0" dx="0em" dy="0.95em" style="text-anchor: middle; visibility: inherit; font-family: Roboto, sans-serif; font-size: 12px; font-weight: 200;" fill="rgb(50, 49, 63)" stroke="none" stroke-width="1px">200</text><text x="361.109375" y="0" dx="0em" dy="0.95em" style="text-anchor: middle; visibility: inherit; font-family: Roboto, sans-serif; font-size: 12px; font-weight: 200;" fill="rgb(50, 49, 63)" stroke="none" stroke-width="1px">400</text><text x="481.47916666666663" y="0" dx="0em" dy="0.95em" style="text-anchor: middle; visibility: inherit; font-family: Roboto, sans-serif; font-size: 12px; font-weight: 200;" fill="rgb(50, 49, 63)" stroke="none" stroke-width="1px">600</text><text x="601.8489583333334" y="0" dx="0em" dy="0.95em" style="text-anchor: middle; visibility: inherit; font-family: Roboto, sans-serif; font-size: 12px; font-weight: 200;" fill="rgb(50, 49, 63)" stroke="none" stroke-width="1px">800</text><text x="722.21875" y="0" dx="0em" dy="0.95em" style="text-anchor: middle; visibility: inherit; font-family: Roboto, sans-serif; font-size: 12px; font-weight: 200;" fill="rgb(50, 49, 63)" stroke="none" stroke-width="1px">1k</text><text x="842.5885416666667" y="0" dx="0em" dy="0.95em" style="text-anchor: middle; visibility: inherit; font-family: Roboto, sans-serif; font-size: 12px; font-weight: 200;" fill="rgb(50, 49, 63)" stroke="none" stroke-width="1px">1.2k</text><text x="962.9583333333333" y="0" dx="0em" dy="0.95em" style="text-anchor: middle; visibility: inherit; font-family: Roboto, sans-serif; font-size: 12px; font-weight: 200;" fill="rgb(50, 49, 63)" stroke="none" stroke-width="1px">1.4k</text><text x="1083.328125" y="0" dx="0em" dy="0.95em" style="text-anchor: middle; visibility: inherit; font-family: Roboto, sans-serif; font-size: 12px; font-weight: 200;" fill="rgb(50, 49, 63)" stroke="none" stroke-width="1px">1.6k</text><text x="1203.6979166666667" y="0" dx="0em" dy="0.95em" style="text-anchor: middle; visibility: inherit; font-family: Roboto, sans-serif; font-size: 12px; font-weight: 200;" fill="rgb(50, 49, 63)" stroke="none" stroke-width="1px">1.8k</text><text x="1324.0677083333333" y="0" dx="0em" dy="0.95em" style="text-anchor: middle; visibility: inherit; font-family: Roboto, sans-serif; font-size: 12px; font-weight: 200;" fill="rgb(50, 49, 63)" stroke="none" stroke-width="1px">2k</text><text x="1444.4375" y="0" dx="0em" dy="0.95em" style="text-anchor: middle; visibility: hidden; font-family: Roboto, sans-serif; font-size: 12px; font-weight: 200;" fill="rgb(50, 49, 63)" stroke="none" stroke-width="1px">2.2k</text></g><line x1="0" y1="0" x2="1444.4375" y2="0" fill="rgb(0, 0, 0)" stroke="rgb(204, 204, 204)" stroke-width="1px"></line></g></g></g></g></svg>