<svg viewBox="0 0 1496 400" xmlns="http://www.w3.org/2000/svg"><g><g><g><g><g><line x1="51.5625" y1="378" x2="46.5625" y2="378" style="visibility: inherit;" fill="rgb(0, 0, 0)" stroke="rgb(204, 204, 204)" stroke-width="1px"></line><line x1="51.5625" y1="346.5" x2="46.5625" y2="346.5" style="visibility: inherit;" fill="rgb(0, 0, 0)" stroke="rgb(204, 204, 204)" stroke-width="1px"></line><line x1="51.5625" y1="315" x2="46.5625" y2="315" style="visibility: inherit;" fill="rgb(0, 0, 0)" stroke="rgb(204, 204, 204)" stroke-width="1px"></line><line x1="51.5625" y1="283.5" x2="46.5625" y2="283.5" style="visibility: inherit;" fill="rgb(0, 0, 0)" stroke="rgb(204, 204, 204)" stroke-width="1px"></line><line x1="51.5625" y1="252.00000000000003" x2="46.5625" y2="252.00000000000003" style="visibility: inherit;" fill="rgb(0, 0, 0)" stroke="rgb(204, 204, 204)" stroke-width="1px"></line><line x1="51.5625" y1="220.5" x2="46.5625" y2="220.5" style="visibility: inherit;" fill="rgb(0, 0, 0)" stroke="rgb(204, 204, 204)" stroke-width="1px"></line><line x1="51.5625" y1="189.00000000000003" x2="46.5625" y2="189.00000000000003" style="visibility: inherit;" fill="rgb(0, 0, 0)" stroke="rgb(204, 204, 204)" stroke-width="1px"></line><line x1="51.5625" y1="157.50000000000003" x2="46.5625" y2="157.50000000000003" style="visibility: inherit;" fill="rgb(0, 0, 0)" stroke="rgb(204, 204, 204)" stroke-width="1px"></line><line x1="51.5625" y1="126.00000000000006" x2="46.5625" y2="126.00000000000006" style="visibility: inherit;" fill="rgb(0, 0, 0)" stroke="rgb(204, 204, 204)" stroke-width="1px"></line><line x1="51.5625" y1="94.50000000000004" x2="46.5625" y2="94.50000000000004" style="visibility: inherit;" fill="rgb(0, 0, 0)" stroke="rgb(204, 204, 204)" stroke-width="1px"></line><line x1="51.5625" y1="63.00000000000003" x2="46.5625" y2="63.00000000000003" style="visibility: inherit;" fill="rgb(0, 0, 0)" stroke="rgb(204, 204, 204)" stroke-width="1px"></line><line x1="51.5625" y1="31.500000000000014" x2="46.5625" y2="31.500000000000014" style="visibility: inherit;" fill="rgb(0, 0, 0)" stroke="rgb(204, 204, 204)" stroke-width="1px"></line><line x1="51.5625" y1="0" x2="46.5625" y2="0" style="visibility: inherit;" fill="rgb(0, 0, 0)" stroke="rgb(204, 204, 204)" stroke-width="1px"></line></g><g transform="translate(41.5625, 0)"><text x="0" y="378" dx="0em" dy="0.3em" style="text-anchor: end; visibility: hidden; font-family: Roboto, sans-serif; font-size: 12px; font-weight: 200;" fill="rgb(50, 49, 63)" stroke="none" stroke-width="1px">-0.1</text><text x="0" y="346.5" dx="0em" dy="0.3em" style="text-anchor: end; visibility: inherit; font-family: Roboto, sans-serif; font-size: 12px; font-weight: 200;" fill="rgb(50, 49, 63)" stroke="none" stroke-width="1px">0</text><text x="0" y="315" dx="0em" dy="0.3em" style="text-anchor: end; visibility: inherit; font-family: Roboto, sans-serif; font-size: 12px; font-weight: 200;" fill="rgb(50, 49, 63)" stroke="none" stroke-width="1px">0.1</text><text x="0" y="283.5" dx="0em" dy="0.3em" style="text-anchor: end; visibility: inherit; font-family: Roboto, sans-serif; font-size: 12px; font-weight: 200;" fill="rgb(50, 49, 63)" stroke="none" stroke-width="1px">0.2</text><text x="0" y="252.00000000000003" dx="0em" dy="0.3em" style="text-anchor: end; visibility: inherit; font-family: Roboto, sans-serif; font-size: 12px; font-weight: 200;" fill="rgb(50, 49, 63)" stroke="none" stroke-width="1px">0.3</text><text x="0" y="220.5" dx="0em" dy="0.3em" style="text-anchor: end; visibility: inherit; font-family: Roboto, sans-serif; font-size: 12px; font-weight: 200;" fill="rgb(50, 49, 63)" stroke="none" stroke-width="1px">0.4</text><text x="0" y="189.00000000000003" dx="0em" dy="0.3em" style="text-anchor: end; visibility: inherit; font-family: Roboto, sans-serif; font-size: 12px; font-weight: 200;" fill="rgb(50, 49, 63)" stroke="none" stroke-width="1px">0.5</text><text x="0" y="157.50000000000003" dx="0em" dy="0.3em" style="text-anchor: end; visibility: inherit; font-family: Roboto, sans-serif; font-size: 12px; font-weight: 200;" fill="rgb(50, 49, 63)" stroke="none" stroke-width="1px">0.6</text><text x="0" y="126.00000000000006" dx="0em" dy="0.3em" style="text-anchor: end; visibility: inherit; font-family: Roboto, sans-serif; font-size: 12px; font-weight: 200;" fill="rgb(50, 49, 63)" stroke="none" stroke-width="1px">0.7</text><text x="0" y="94.50000000000004" dx="0em" dy="0.3em" style="text-anchor: end; visibility: inherit; font-family: Roboto, sans-serif; font-size: 12px; font-weight: 200;" fill="rgb(50, 49, 63)" stroke="none" stroke-width="1px">0.8</text><text x="0" y="63.00000000000003" dx="0em" dy="0.3em" style="text-anchor: end; visibility: inherit; font-family: Roboto, sans-serif; font-size: 12px; font-weight: 200;" fill="rgb(50, 49, 63)" stroke="none" stroke-width="1px">0.9</text><text x="0" y="31.500000000000014" dx="0em" dy="0.3em" style="text-anchor: end; visibility: inherit; font-family: Roboto, sans-serif; font-size: 12px; font-weight: 200;" fill="rgb(50, 49, 63)" stroke="none" stroke-width="1px">1</text><text x="0" y="0" dx="0em" dy="0.3em" style="text-anchor: end; visibility: hidden; font-family: Roboto, sans-serif; font-size: 12px; font-weight: 200;" fill="rgb(50, 49, 63)" stroke="none" stroke-width="1px">1.1</text></g><line x1="51.5625" y1="0" x2="51.5625" y2="378" fill="rgb(0, 0, 0)" stroke="rgb(204, 204, 204)" stroke-width="1px"></line></g></g><g transform="translate(51, 0)" clip-path="url(#clip_0)"><clipPath id="clip_0"><rect width="1444" height="378"></rect></clipPath><g><g><g><line x1="0" y1="0" x2="0" y2="378" fill="rgb(0, 0, 0)" stroke="rgb(60, 60, 60)" stroke-width="1px" opacity="0.25"></line><line x1="120.36979166666666" y1="0" x2="120.36979166666666" y2="378" fill="rgb(0, 0, 0)" stroke="rgb(60, 60, 60)" stroke-width="1px" opacity="0.25"></line><line x1="240.73958333333331" y1="0" x2="240.73958333333331" y2="378" fill="rgb(0, 0, 0)" stroke="rgb(60, 60, 60)" stroke-width="1px" opacity="0.25"></line><line x1="361.109375" y1="0" x2="361.109375" y2="378" fill="rgb(0, 0, 0)" stroke="rgb(60, 60, 60)" stroke-width="1px" opacity="0.25"></line><line x1="481.47916666666663" y1="0" x2="481.47916666666663" y2="378" fill="rgb(0, 0, 0)" stroke="rgb(60, 60, 60)" stroke-width="1px" opacity="0.25"></line><line x1="601.8489583333334" y1="0" x2="601.8489583333334" y2="378" fill="rgb(0, 0, 0)" stroke="rgb(60, 60, 60)" stroke-width="1px" opacity="0.25"></line><line x1="722.21875" y1="0" x2="722.21875" y2="378" fill="rgb(0, 0, 0)" stroke="rgb(60, 60, 60)" stroke-width="1px" opacity="0.25"></line><line x1="842.5885416666667" y1="0" x2="842.5885416666667" y2="378" fill="rgb(0, 0, 0)" stroke="rgb(60, 60, 60)" stroke-width="1px" opacity="0.25"></line><line x1="962.9583333333333" y1="0" x2="962.9583333333333" y2="378" fill="rgb(0, 0, 0)" stroke="rgb(60, 60, 60)" stroke-width="1px" opacity="0.25"></line><line x1="1083.328125" y1="0" x2="1083.328125" y2="378" fill="rgb(0, 0, 0)" stroke="rgb(60, 60, 60)" stroke-width="1px" opacity="0.25"></line><line x1="1203.6979166666667" y1="0" x2="1203.6979166666667" y2="378" fill="rgb(0, 0, 0)" stroke="rgb(60, 60, 60)" stroke-width="1px" opacity="0.25"></line><line x1="1324.0677083333333" y1="0" x2="1324.0677083333333" y2="378" fill="rgb(0, 0, 0)" stroke="rgb(60, 60, 60)" stroke-width="1px" opacity="0.25"></line><line x1="1444.4375" y1="0" x2="1444.4375" y2="378" fill="rgb(0, 0, 0)" stroke="rgb(60, 60, 60)" stroke-width="1px" opacity="0.25"></line></g><g><line x1="0" y1="378" x2="1444.4375" y2="378" fill="rgb(0, 0, 0)" stroke="rgb(60, 60, 60)" stroke-width="1px" opacity="0.25"></line><line x1="0" y1="346.5" x2="1444.4375" y2="346.5" fill="rgb(0, 0, 0)" stroke="rgb(60, 60, 60)" stroke-width="1px" opacity="0.25"></line><line x1="0" y1="315" x2="1444.4375" y2="315" fill="rgb(0, 0, 0)" stroke="rgb(60, 60, 60)" stroke-width="1px" opacity="0.25"></line><line x1="0" y1="283.5" x2="1444.4375" y2="283.5" fill="rgb(0, 0, 0)" stroke="rgb(60, 60, 60)" stroke-width="1px" opacity="0.25"></line><line x1="0" y1="252.00000000000003" x2="1444.4375" y2="252.00000000000003" fill="rgb(0, 0, 0)" stroke="rgb(60, 60, 60)" stroke-width="1px" opacity="0.25"></line><line x1="0" y1="220.5" x2="1444.4375" y2="220.5" fill="rgb(0, 0, 0)" stroke="rgb(60, 60, 60)" stroke-width="1px" opacity="0.25"></line><line x1="0" y1="189.00000000000003" x2="1444.4375" y2="189.00000000000003" fill="rgb(0, 0, 0)" stroke="rgb(60, 60, 60)" stroke-width="1px" opacity="0.25"></line><line x1="0" y1="157.50000000000003" x2="1444.4375" y2="157.50000000000003" fill="rgb(0, 0, 0)" stroke="rgb(60, 60, 60)" stroke-width="1px" opacity="0.25"></line><line x1="0" y1="126.00000000000006" x2="1444.4375" y2="126.00000000000006" fill="rgb(0, 0, 0)" stroke="rgb(60, 60, 60)" stroke-width="1px" opacity="0.25"></line><line x1="0" y1="94.50000000000004" x2="1444.4375" y2="94.50000000000004" fill="rgb(0, 0, 0)" stroke="rgb(60, 60, 60)" stroke-width="1px" opacity="0.25"></line><line x1="0" y1="63.00000000000003" x2="1444.4375" y2="63.00000000000003" fill="rgb(0, 0, 0)" stroke="rgb(60, 60, 60)" stroke-width="1px" opacity="0.25"></line><line x1="0" y1="31.500000000000014" x2="1444.4375" y2="31.500000000000014" fill="rgb(0, 0, 0)" stroke="rgb(60, 60, 60)" stroke-width="1px" opacity="0.25"></line><line x1="0" y1="0" x2="1444.4375" y2="0" fill="rgb(0, 0, 0)" stroke="rgb(60, 60, 60)" stroke-width="1px" opacity="0.25"></line></g></g></g><g><g><line x1="0" y1="346.5" x2="1444.4375" y2="346.5" fill="rgb(0, 0, 0)" stroke="rgb(153, 153, 153)" stroke-width="1.5px"></line></g></g><g><g><line x1="120.36979166666666" y1="0" x2="120.36979166666666" y2="378" fill="rgb(0, 0, 0)" stroke="rgb(153, 153, 153)" stroke-width="1.5px"></line></g></g><g><g><g><g><g><path stroke="rgb(238, 51, 119)" stroke-width="2px" d="M123.37903645833333,59.41646629571915L123.98088541666667,62.56942981481555L126.38828124999999,84.70098817348484L126.99013020833334,98.86380815505986L128.19382812499998,99.90783655643469L128.79567708333335,104.57117342948916L129.39752604166668,108.89709645509723L130.60122395833335,114.30880451202398L131.20307291666666,118.13892388343815L131.804921875,122.22628587484363L132.40677083333333,122.61088246107104L134.81416666666667,132.19423556327826L140.23080729166665,156.82150357961658L140.83265625,160.19710654020312L142.03635416666665,164.7290714979172L143.84190104166666,168.83250528573993L144.44375,172.36610376834875L145.64744791666666,178.24894452095037L146.85114583333333,183.2996942996979L147.45299479166667,183.485214650631L148.65669270833334,186.05694615840915L149.86039062499998,192.63942638039592L150.46223958333334,197.6055645346642L152.26778645833335,201.86222487688067L152.86963541666668,202.8769353926182L153.471484375,204.246671140194L154.07333333333335,203.70437943935397L154.67518229166666,204.28076738119128L156.48072916666666,211.04013124108317L157.082578125,208.4073982536793L158.28627604166667,216.37810805439955L159.48997395833334,218.31257218122485L160.09182291666667,219.613674223423L160.693671875,220.97990834712985L161.29552083333334,217.98811340332037L163.10106770833332,227.06422859430316L163.70291666666665,224.20732596516612L164.30476562500002,227.87448370456698L164.90661458333332,231.74189114570623L166.11031250000002,234.10796561837202L167.915859375,235.0777652263642L170.92510416666667,242.89401867985725L171.526953125,244.7343238592148L172.12880208333334,243.32007148861885L172.73065104166668,247.40319022536283L173.33249999999998,248.57290157675743L173.93434895833335,248.65984135866165L176.94359375,253.88282784819606L181.75838541666664,262.71446773409843L183.56393229166665,264.05719497799873L184.16578125,264.68266198039055L188.37872395833332,269.97652584314346L190.18427083333333,271.59773544967175L191.38796875,271.915261387825L191.9898177083333,273.03293654322624L192.59166666666667,275.97092570364475L194.9990625,275.4580598473549L195.60091145833331,278.61622416973114L196.20276041666668,276.93976306915283L198.00830729166668,278.19724971055984L198.61015625000002,280.2389498949051L200.41570312500002,281.0653237402439L202.82309895833333,283.7905118018389L204.02679687499997,282.10861989855766L205.23049479166667,285.53837598860264L205.83234374999998,283.5295234769583L206.43419270833334,285.5033879131079L207.03604166666668,283.8717673122883L209.4434375,286.7905585616827L210.64713541666669,288.94775131344795L212.4526822916667,289.6341540813446L213.05453125,289.1942966133356L213.65638020833333,289.3535360097885L214.860078125,291.82576225697994L215.46192708333334,291.3586615920067L216.06377604166667,291.8594923764467L217.86932291666668,293.09113459289074L219.07302083333335,293.9638744443655L219.67486979166665,295.10834687948227L220.87856770833335,294.5498284846544L221.48041666666666,295.537122130394L223.28596354166666,294.06196685135365L226.29520833333333,295.85213685035706L226.89705729166664,296.50745214521885L227.49890625,296.7537815272808L228.70260416666665,296.72190548479557L229.304453125,297.6054177582264L230.50815104166665,298.248810634017L231.71184895833335,297.76187838613987L232.31369791666665,297.58540780842304L232.91554687500002,298.636937007308L233.51739583333332,298.48047168552876L234.72109375,298.90121103823185L235.32294270833333,297.6068446934223L239.53588541666667,301.704641148448L241.94328125,301.1505021303892L244.35067708333332,300.54841527342796L244.95252604166666,301.67211735248566L245.55437500000002,302.5504053533077L247.96177083333333,303.54917550086975L249.76731770833334,304.6519804894924L251.57286458333334,303.6694229543209L252.17471354166668,303.31130446493626L253.98026041666668,303.6081867814064L254.582109375,305.1703710258007L255.78580729166669,303.066092222929L256.38765624999996,304.3415469825268L256.98950520833336,303.26373682916164L258.19320312499997,305.95697844028473L258.79505208333336,306.0838724076748L259.99875,304.07229276001453L260.60059895833336,306.6810682564974L261.2024479166667,306.7421260625124L263.0079947916667,306.6035537570715L264.81354166666665,307.44876173883677L267.8227864583333,308.24434147775173L269.026484375,307.1364154815674L270.23018229166667,307.77793315798044L270.83203125,308.20980636030436L273.8412760416667,308.4384281337261L275.6468229166667,308.6171259507537L276.248671875,308.55778140574694L276.85052083333335,308.45466186851263L277.4523697916667,309.1110450178385L278.6560677083333,308.7648090496659L281.06346354166664,309.97606111317873L282.2671614583333,307.84453911334276L283.47085937500003,308.69756707549095L284.67455729166664,307.78361742943525L287.6838020833333,310.05886559933424L288.8875,310.0744281113148L291.2948958333333,310.05714060366154L294.304140625,310.16258829832077L295.5078385416667,309.679861754179L296.1096875,310.7910147830844L297.915234375,311.58314218372107L299.1189322916667,308.79500468820333L299.72078124999996,309.68336103111506L300.32263020833335,310.27755749970675L301.52632812499996,309.64124297350645L302.12817708333336,310.29126593470573L302.7300260416667,311.11907375603914L305.137421875,309.6569228321314L305.73927083333336,311.0487479120493L306.94296875,310.36607207357883L308.748515625,310.85088738799095L311.1559114583333,310.9029329717159L311.75776041666666,311.2023053839803L312.359609375,312.05851344019175L312.9614583333333,311.560883872211L314.16515625,311.9707404971123L315.970703125,313.1503958031535L316.57255208333333,312.49197316914797L317.17440104166667,311.9842212796211L318.9799479166667,312.72786574065685L319.581796875,313.4100322946906L320.7854947916667,313.5928466320038L324.3965885416667,312.51844422519207L325.6002864583333,313.63934171944857L327.4058333333333,313.9861479923129L328.00768229166664,313.3382044136524L329.2113802083333,313.9876242130995L329.81322916666664,314.1241359114647L332.8224739583333,314.36405347287655L333.42432291666665,313.757340811193L334.6280208333333,313.66042187064886L335.83171875,314.16349397599697L336.4335677083333,314.487502142787L337.03541666666666,314.3700475394726L338.84096354166667,314.6729779019952L339.4428125,313.91090063005686L341.248359375,313.4282280653715L341.85020833333334,314.79131729900837L343.05390625,314.3585475683212L343.65575520833335,314.39656553417444L344.85945312499996,313.4624134898186L347.26684895833336,314.3660601004958L347.8686979166667,314.5200634896755L348.47054687499997,313.78687696158886L349.6742447916667,313.34449419379234L350.27609375,313.0738224238157L352.081640625,314.22008791565895L352.6834895833333,313.36494536697865L353.2853385416667,312.86648029088974L353.8871875,312.99436231702566L355.09088541666665,313.8185793310404L355.692734375,314.5003469064832L356.2945833333333,313.6336480602622L356.89643229166666,313.5453681796789L362.31307291666667,314.879569016397L362.91492187499995,313.82705879956484L364.1186197916667,313.63013235479593L365.9241666666667,314.4564404860139L370.13710937499997,314.695325396955L370.7389583333333,314.513219833374L373.1463541666667,315.45496889948845L373.748203125,315.8408187478781L374.3500520833333,315.71786058694124L375.55375000000004,316.07455683499575L376.75744791666665,316.0529016852379L379.16484375,316.33685709536076L384.581484375,316.2347514331341L385.18333333333334,316.478797249496L385.7851822916667,316.0475506782532L386.38703125,316.2017019242048L387.5907291666666,316.0935810729861L388.192578125,315.4329945668578L389.998125,316.71559104323387L391.80367187499996,316.88185480982065L396.01661458333336,316.751745544374L396.6184635416667,316.558426335454L397.22031250000003,317.0018534883857L397.8221614583333,317.31677433103323L399.025859375,316.27464225143194L399.6277083333333,317.20027258247137L400.2295572916667,317.55011109262705L401.4332552083333,316.9943339154124L402.03510416666666,317.36765818297863L402.636953125,316.5260668247938L403.8406510416667,316.5969160348177L405.04434895833333,317.012264482677L405.64619791666667,317.10338884592056L408.05359374999995,317.19158658385277L412.2665364583333,317.43998596072197L414.07208333333335,316.71029870957136L414.6739322916667,316.90418587625027L415.8776302083333,317.21843784302473L417.081328125,317.12297869473696L418.886875,316.914671972394L425.50721354166666,317.6960316449404L427.31276041666666,317.6614988744259L427.914609375,317.80843095481396L428.5164583333334,317.7216977030039L429.72015625,317.6242600902915L430.9238541666667,317.4483762457967L431.525703125,318.0442484244704L432.7294010416666,317.5777251049876L435.73864583333335,318.0379210934043L436.34049479166663,317.5380830615759L439.95158854166664,317.425312936306L441.15528645833336,317.689436763525L441.7571354166667,317.73809337615967L442.35898437500003,317.9859717339277L442.9608333333333,317.8599367439747L443.56268229166665,317.65009747445583L444.16453125,317.88515688478947L444.7663802083333,318.09533880651L445.3682291666667,318.4249725714326L445.97007812500004,317.8625559210777L446.5719270833333,318.14499521255493L447.775625,317.6351428180933L449.58117187500005,318.32982087135315L450.18302083333333,318.0087393298745L450.78486979166667,318.19993221759796L451.98856770833333,318.14681173861027L454.3959635416667,318.1248045489192L455.59966145833334,318.4556375965476L456.80335937499996,318.3211489543319L459.21075520833335,318.06487561762333L459.8126041666667,318.47749458253384L460.41445312499997,318.6765074506402L461.61815104166664,318.5148319378495L462.82184895833336,318.6181697398424L464.025546875,318.3881022557616L465.22924479166664,318.2064590379596L465.83109375000004,318.1497078537941L467.636640625,318.1851160302758L468.84033854166665,318.44850996136665L469.4421875,319.01970648765564L470.0440364583334,318.716273881495L470.64588541666666,318.553032964468L471.247734375,318.7434654459357L471.8495833333333,318.26742766052485L473.05328125,318.78199269622564L473.6551302083334,318.4651919603348L476.664375,318.8387908190489L477.26622395833334,318.0734278410673L478.469921875,318.8481550812721L479.07177083333335,318.88636314868927L479.6736197916667,318.97851077467203L481.47916666666663,319.1725997775793L482.68286458333336,319.08187908679247L483.8865625,319.12044858187437L485.09026041666664,318.364198744297L486.29395833333336,319.22396944463253L487.49765625000003,318.5318917930126L488.0995052083333,319.32518327236176L488.70135416666665,318.8516097664833L490.5069010416667,318.85867872834206L492.914296875,319.0082417204976L493.5161458333333,318.33223351836205L494.71984375000005,319.3122774884105L495.32169270833333,319.12041103094816L496.525390625,319.42760342359543L498.9327864583333,319.5308708176017L501.94203124999996,319.41908640414476L506.1549739583333,318.90685656666756L506.75682291666664,318.7903571650386L507.96052083333336,319.46246945858L508.5623697916667,319.1636837795377L509.16421875,319.1144240051508L509.7660677083333,319.2601920068264L510.36791666666664,319.76804246753454L510.96976562500004,319.6355792284012L512.1734635416666,318.70312636345625L512.7753124999999,319.088596008718L515.1827083333334,319.99377281963825L515.7845572916666,319.48319991678L516.9882552083333,319.17765037715435L518.191953125,319.57965885847807L519.9975,319.3120169788599L521.2011979166667,319.5209831893444L521.8030468750001,319.51348004490137L522.4048958333334,319.21492436528206L524.2104427083333,319.65007388591766L524.8122916666666,319.6199650838971L525.4141406250001,319.6752024963498L526.0159895833334,319.19843716174364L526.6178385416666,319.13286385685205L527.8215364583333,319.4431776702404L528.4233854166666,319.3234911337495L529.0252343750001,319.86394753307104L530.2289322916666,319.62128875404596L530.83078125,318.99756552278996L531.4326302083333,319.51242861896753L532.0344791666666,319.6948275491595L532.636328125,319.8246176317334L533.2381770833333,319.5740825459361L534.441875,319.8013102412224L535.0437239583333,319.51862452179193L536.8492708333333,319.55224668234587L539.2566666666667,319.8003034070134L541.0622135416667,320.0344146564603L541.6640625,319.84227595478296L542.2659114583333,319.4644314944744L543.469609375,319.1646014302969L544.0714583333333,319.79294107854366L544.6733072916667,319.4588997736573L545.27515625,319.5370385572314L546.4788541666667,319.86820252239704L547.080703125,319.8133828639984L547.6825520833333,319.4398403316736L550.0899479166667,319.8802117779851L552.49734375,319.9355219453573L553.0991927083334,320.15144681185484L554.3028906249999,319.9161574020982L554.9047395833334,319.07282461971045L555.5065885416667,320.1266115680337L556.1084375,320.009288392961L556.7102864583334,320.24570667743683L557.3121354166666,320.03975392878056L559.1176822916667,320.1325680837035L559.71953125,319.8246457949281L563.330625,320.1220045387745L564.5343229166666,320.05093237012625L565.136171875,320.40896636992693L565.7380208333333,320.23875740915537L566.3398697916667,320.26668356359005L567.5435677083334,319.63894238322973L569.3491145833333,319.3768838569522L569.9509635416666,319.8663836494088L571.7565104166666,320.47247437387705L572.358359375,320.50304552167654L572.9602083333333,319.5632796138525L574.1639062500001,319.63813269138336L575.3676041666666,320.15981832146645L577.1731510416666,320.40763096511364L577.775,320.5469730645418L578.9786979166666,319.95724515616894L580.7842447916667,320.2879702448845L581.38609375,320.16450045257807L581.9879427083333,320.5105791762471L583.191640625,320.07285272330046L583.7934895833333,320.0264069214463L584.3953385416667,320.0731789469719L585.5990364583333,319.996356792748L586.2008854166667,320.21346451342106L586.802734375,320.48547403514385L589.8119791666667,320.12348545342684L592.219375,320.0872722789645L592.8212239583333,320.4055961742997L594.024921875,319.93951877206564L595.2286197916667,320.3834645971656L596.4323177083334,320.49518094956875L597.0341666666667,320.4966665580869L597.636015625,319.8147558197379L598.2378645833334,320.62338215857744L598.8397135416667,320.0862396284938L599.4415624999999,320.5851905196905L600.6452604166667,320.76115181297064L601.8489583333334,319.4499438777566L603.0526562499999,319.1686569303274L604.858203125,319.2706006541848L606.0619010416666,319.9459728375077L606.6637499999999,319.192267075181L607.2655989583333,318.7584740817547L609.6729947916666,318.9546518549323L610.8766927083333,319.3125286102295L611.4785416666667,318.95795633643866L612.6822395833334,319.7242862507701L614.4877864583333,319.3928242251277L615.6914843750001,319.7289543002844L616.2933333333334,319.2302099391818L616.8951822916666,319.2313083037734L618.7007291666666,318.9964343011379L620.5062760416666,318.91514828056097L621.108125,319.2039594948292L622.3118229166666,319.61733417212963L623.5155208333333,319.5512750521302L624.71921875,319.6320071965456L627.7284635416667,319.9075699746609L628.9321614583333,319.57113010436296L629.5340104166667,319.40277522057295L630.135859375,319.2577957883477L630.7377083333333,319.389820151031L632.5432552083333,319.37751987576485L636.1543489583333,319.1040083169937L637.358046875,319.86424324661493L637.9598958333333,320.2466970831156L638.5617447916667,319.58715261518955L639.16359375,319.5128651484847L639.7654427083334,319.80947052687407L642.1728385416667,320.4387020096183L643.3765364583334,319.5265571549535L643.9783854166667,319.8013642206788L645.7839322916667,319.70506252348423L646.38578125,319.7699481770396L646.9876302083334,320.0000625997782L647.5894791666666,319.48191379755735L648.1913281249999,319.49597192555666L649.3950260416667,319.66821098327637L649.996875,319.31318809837103L650.5987239583334,319.21286845207214L651.2005729166666,319.62925659120083L652.4042708333333,319.9616503491998L654.2098177083334,319.4703739285469L655.413515625,321.1003610640764L656.0153645833333,320.70871663838625L657.2190625000001,320.94383941590786L657.8209114583334,320.9687145575881L659.6264583333333,320.54875438660383L660.2283072916666,321.0594587177038L661.4320052083334,321.3392694443464L662.0338541666666,320.7123191803694L666.246796875,321.0944819971919L666.8486458333333,320.6932785138488L667.4504947916666,320.5407630801201L668.05234375,320.4821742475033L668.6541927083333,320.79758325219154L669.2560416666666,320.86481818556786L669.857890625,321.1074816584587L671.0615885416667,320.70375287532806L671.6634375,321.14030116796494L672.2652864583333,321.0181433111429L674.0708333333333,321.1323521062732L674.6726822916667,320.806942820549L675.27453125,321.0920529216528L675.8763802083333,321.201546728611L677.080078125,321.33455680310726L680.691171875,321.04442895948887L681.2930208333333,320.9150472432375L681.8948697916667,321.5266532599926L683.0985677083333,321.21825923770666L685.5059635416667,321.21385169774294L687.3115104166667,321.391847781837L689.1170572916667,321.2284050285816L691.524453125,321.17983055859804L693.3299999999999,320.98709573596716L693.9318489583334,320.90951082855463L694.5336979166667,321.13962994515896L695.7373958333334,321.26073402911425L696.3392447916666,321.20318488776684L696.9410937499999,321.22679503262043L698.746640625,321.209134362638L699.3484895833334,321.4769428744912L700.5521875,321.741721495986L701.7558854166667,321.2936802729964L702.3577343750001,321.1342108771205L703.5614322916666,320.6576849296689L704.7651302083333,321.05090414732695L705.3669791666666,321.3592723533511L706.5706770833334,321.0976433157921L707.774375,321.14005943387747L708.3762239583333,321.38159637898207L708.9780729166666,321.25584771484137L709.5799218750001,321.43366073817015L711.38546875,321.36254397779703L711.9873177083333,320.90244890749454L712.5891666666666,320.88595935702324L714.3947135416666,321.32247713953257L714.9965625,321.6504844799638L719.8113541666667,321.047695890069L721.6169010416667,321.16619957238436L722.21875,321.29171119630337L723.4224479166667,321.405870705843L724.6261458333333,321.2965670004487L725.2279947916667,321.4683343246579L727.0335416666666,321.1418947353959L727.635390625,321.3030750453472L728.8390885416667,321.4098299816251L729.4409375,321.63270881026983L730.0427864583332,321.5182629749179L730.6446354166667,321.41603057831526L732.4501822916667,321.29285180568695L737.2649739583333,321.696949057281L737.8668229166667,321.63455115258694L738.4686718749999,321.16388314962387L739.6723697916667,321.2525455802679L740.8760677083334,321.51514859497547L741.4779166666666,321.04122070223093L742.079765625,321.4192153662443L743.2834635416666,321.36947916448116L744.4871614583333,321.68927928060293L745.0890104166667,321.77309998869896L745.690859375,321.585145868361L747.49640625,321.95728493481874L748.0982552083334,321.75843400508165L748.7001041666666,321.8473076596856L751.7093489583333,320.435543037951L752.913046875,321.5922030955553L753.5148958333333,321.43951164186L754.71859375,321.293605171144L755.3204427083334,321.3652218282223L756.5241406250001,321.6110912114382L760.135234375,321.5094596296549L760.7370833333333,321.755974419415L761.94078125,321.78251588344574L763.1444791666667,321.86236323416233L765.551875,321.50229209661484L766.7555729166668,321.7116760611534L767.9592708333332,321.5287115201354L769.16296875,321.65113692730665L770.3666666666667,321.9618473723531L771.5703645833333,321.51134891062975L772.1722135416666,321.65504222363234L772.7740625,321.6962895691395L773.3759114583333,321.7536626905203L773.9777604166667,321.3703686520457L776.38515625,321.3422899469733L777.5888541666667,321.80576929450035L778.1907031249999,321.83584993332624L781.801796875,321.9256459325552L783.0054947916667,321.7109532058239L784.2091927083334,321.6570864021778L784.8110416666667,321.88501113653183L785.4128906249999,321.6164210960269L789.023984375,321.7658409252763L790.82953125,321.6314039155841L792.0332291666667,321.51797899603844L793.8387760416666,321.67290472984314L795.6443229166666,321.52995539456606L796.2461718750001,321.61091753840446L797.4498697916667,321.7804083377123L798.05171875,321.80838143080473L798.6535677083333,321.82993096858263L799.2554166666666,322.06367844343185L800.4591145833334,321.68753316253424L801.0609635416666,321.83716421574354L802.2646614583333,321.7288603037596L802.8665104166666,321.50564116984606L803.468359375,322.0156531557441L805.27390625,321.6845032721758L805.8757552083333,321.81641732901335L807.079453125,321.73551620543003L811.8942447916668,321.8589813038707L812.49609375,321.6330045238137L813.0979427083332,321.52690203487873L813.6997916666667,322.1669857352972L815.5053385416667,321.68823724240065L816.1071874999999,321.92287420481443L816.7090364583333,321.9449189454317L818.5145833333333,321.8295226022601L819.1164322916667,321.6717383041978L819.71828125,321.77682926505804L821.523828125,322.185120485723L828.7460156249999,321.9672312363982L830.5515624999999,322.1221827864647L831.7552604166666,322.0900251120329L832.357109375,322.4691134467721L833.5608072916666,322.0805927887559L834.16265625,321.8909418359399L835.968203125,321.8154668211937L837.77375,321.80523888766766L838.3755989583334,321.66067016869783L838.9774479166666,321.71729461848736L839.5792968750001,321.58749045431614L840.1811458333333,322.19789953529835L840.7829947916666,321.86743495613337L841.3848437500001,321.90433812886477L841.9866927083333,321.9773582518101L843.190390625,321.6410850137472L844.3940885416666,321.93420284986496L844.9959375,320.57267197966576L846.1996354166666,320.87152337282896L847.4033333333333,320.6245485842228L848.60703125,321.1362245455384L849.2088802083333,321.1359523013234L849.8107291666668,320.80691935122013L850.412578125,321.30375800281763L851.0144270833333,320.70239869505167L851.6162760416667,320.80179834365845L854.0236718750001,321.0680883899331L857.0329166666668,320.95725448429585L857.634765625,320.8940891325474L858.8384635416667,321.05161292105913L859.4403125,321.30946339666843L861.8477083333333,321.17929780483246L862.4495572916666,321.01857045292854L863.05140625,321.4231746420264L864.2551041666667,321.52330653369427L866.0606510416667,320.84207171201706L867.8661979166667,321.90444139391184L869.0698958333334,320.98983930051327L870.27359375,321.593885846436L870.8754427083334,321.7961304411292L872.079140625,321.05918177962303L872.6809895833333,320.8562260642648L874.4865364583334,321.3634123429656L875.0883854166667,321.20006816089153L875.6902343749999,321.330369874835L876.8939322916666,321.03763224184513L877.49578125,321.2589738294482L878.0976302083333,321.1397731080651L879.301328125,320.49622298777103L879.9031770833333,321.1612639725208L880.5050260416667,321.7751160040498L881.106875,321.4873350933194L881.7087239583334,321.1495199203491L882.3105729166667,321.4683155491948L885.3198177083333,321.4097243696451L885.9216666666666,321.3107659444213L887.1253645833333,320.5611907839775L889.5327604166666,321.19659235328436L890.134609375,321.1886057406664L891.3383072916666,321.40514550358057L893.745703125,321.3119441047311L894.9494010416668,321.30441749095917L896.1530989583333,321.2804693877697L897.356796875,321.16960966587067L897.9586458333334,321.2652706503868L898.5604947916667,320.95629224181175L899.1623437500001,321.0573676005006L900.3660416666667,320.7686127126217L902.1715885416668,321.2239036113024L902.7734375,321.1983103081584L903.9771354166667,321.40948498249054L904.578984375,320.96517303586006L905.1808333333333,321.46754106134176L906.3845312499999,321.7638530731201L908.7919270833333,321.2350515425205L909.995625,321.17404536902905L910.5974739583332,321.3468406498432L911.801171875,321.55341064184904L912.4030208333334,321.7402922138572L914.2085677083334,321.4120595678687L914.8104166666666,321.4208464846015L917.8196614583333,321.1319531276822L918.4215104166667,321.584181278944L919.0233593749999,322.0759106576443L919.6252083333334,322.2120116427541L920.8289062499999,320.92990098148584L922.0326041666666,321.8654494509101L922.634453125,321.2697251290083L923.2363020833333,321.3474273830652L923.8381510416666,321.1135977655649L924.44,321.8180507943034L925.0418489583333,321.5208680704236L926.8473958333334,322.0074083805084L928.6529427083334,322.3306608349085L929.8566406250001,322.3291634917259L931.0603385416666,322.47771260887384L931.6621875000001,322.248736448586L932.2640364583333,322.17862417548895L932.8658854166667,322.5538846626878L933.467734375,322.4189900010824L935.8751302083334,322.47280986607075L938.2825260416666,322.3558974042535L939.4862239583333,322.5758777707815L940.0880729166668,322.51368874311447L941.8936197916667,322.26788507401943L942.49546875,322.1999531015754L943.0973177083334,322.7441223487258L944.9028645833333,322.1811846792698L946.7084114583333,322.25380112975836L947.3102604166668,322.3481478318572L947.912109375,322.42555202543736L949.1158072916667,322.32276575267315L949.71765625,322.3548154681921L950.3195052083333,322.24903920292854L952.1250520833333,322.2117511332035L953.32875,322.1826914101839L953.9305989583333,322.37384440004826L954.5324479166667,322.493451140821L955.134296875,322.59806802123785L955.7361458333332,322.6536269634962L956.3379947916667,322.5060541704297L957.5416927083334,322.20109136402607L958.1435416666667,322.4336231276393L959.9490885416666,322.5476629436016L962.9583333333333,322.50941732525826L970.1805208333333,322.5148622095585L970.7823697916667,322.6297023296356L971.38421875,322.4581767395139L971.9860677083334,322.6270831525326L974.3934635416666,322.5084245726466L976.1990104166666,322.6714965105057L976.8008593750001,322.45865081995726L978.0045572916667,322.452283591032L978.60640625,322.4844271838665L979.2082552083333,322.53179063647985L979.8101041666666,322.45904745161533L981.0138020833334,322.40955063700676L982.2175000000001,322.74989580363035L982.8193489583333,322.3019695803523L983.4211979166666,322.4210482612252L984.6248958333333,322.41284573078156L985.2267447916668,322.4887596219778L985.82859375,322.6409253627062L987.0322916666667,322.73284064233303L988.2359895833334,322.32827165722847L991.8470833333333,322.45153022557497L993.05078125,322.6404278129339L996.0600260416667,322.05870294570923L996.6618749999999,322.4613052010536L999.0692708333333,322.9651916921139L1002.078515625,321.5978286936879L1002.6803645833334,321.5545395165682L1005.0877604166666,321.5195373594761L1007.49515625,321.91177086532116L1009.3007031249999,321.58657045662403L1011.1062499999999,321.80536092817783L1011.7080989583334,321.94179048389196L1012.3099479166666,321.7414586395025L1014.1154947916666,321.3423580080271L1014.71734375,321.31967255473137L1016.522890625,321.5846178084612L1017.7265885416667,321.6901452988386L1018.3284375,321.7991861477494L1018.9302864583334,321.55282156169415L1023.1432291666667,321.2911714017391L1023.745078125,321.60319612920284L1024.3469270833332,321.4785129725933L1024.9487760416666,321.7393276244402L1026.1524739583333,321.4888723343611L1026.7543229166668,322.53842072188854L1027.356171875,322.3484435454011L1027.9580208333334,322.021565079689L1028.5598697916666,321.42250576615334L1029.16171875,321.91930217295885L1029.7635677083333,322.19654770195484L1030.3654166666668,321.99273535609245L1030.967265625,321.97548070549965L1032.7728124999999,322.04726868867874L1033.9765104166665,321.3735862970352L1036.9857552083333,321.79543574899435L1037.5876041666668,321.4841080605984L1038.189453125,321.6821328699589L1039.3931510416667,321.7877941355109L1043.6060937500001,321.93230652809143L1044.8097916666668,321.9926532134414L1047.8190364583334,321.43189115077257L1048.4208854166666,322.2418669760227L1050.8282812500001,321.61360477656126L1052.0319791666668,321.9648279771209L1052.633828125,321.6052426546812L1053.8375260416667,321.9406076297164L1054.439375,321.8397810459137L1055.6430729166666,321.6742096245289L1056.244921875,321.8268236294389L1059.856015625,322.1016119197011L1060.4578645833333,322.51451721042395L1061.0597135416667,322.825591430068L1064.0689583333333,322.9541446790099L1064.6708072916667,322.970261067152L1070.0874479166666,322.8872242346406L1070.6892968749999,322.71299497783184L1072.49484375,322.92313934862614L1073.0966927083334,322.82840540260077L1073.6985416666666,322.89201667159796L1074.9022395833333,322.6980778723955L1076.1059375,322.7735763564706L1077.3096354166667,322.60263280570507L1079.1151822916665,322.4629715234041L1079.71703125,322.81778083741665L1080.9207291666667,322.7455516308546L1081.522578125,322.89197912067175L1082.7262760416668,322.7228708714247L1083.9299739583332,322.7692767754197L1084.5318229166667,322.77442359924316L1085.7355208333333,322.94862703979015L1086.3373697916666,322.76251995563507L1088.7447656250001,322.389129973948L1089.3466145833333,322.7731562554836L1090.5503125,322.68310913443565L1091.1521614583332,322.59884954988956L1091.7540104166667,322.9108907058835L1092.355859375,322.3696340024471L1093.5595572916666,322.89201667159796L1094.16140625,323.01276402175426L1094.7632552083332,323.0219334885478L1095.3651041666667,323.0559945255518L1097.7725,323.07459396868944L1098.9761979166667,322.79181671887636L1099.578046875,322.876043446362L1100.1798958333334,323.13337524980307L1101.38359375,323.02474746108055L1102.5872916666667,323.02296379208565L1103.7909895833334,322.8951639086008L1104.9946875,322.22294130921364L1105.5965364583333,322.87623589485884L1106.1983854166667,322.3608353510499L1107.4020833333334,322.20334676653147L1108.0039322916666,321.78404373675585L1108.6057812499998,322.13014827668667L1109.2076302083333,322.26644875109196L1109.8094791666667,321.7105424925685L1110.411328125,322.0460952222347L1111.6150260416666,322.215032145381L1112.216875,322.1501230224967L1114.022421875,322.16154789179564L1114.6242708333332,322.3968584239483L1115.8279687499999,322.1813959032297L1116.4298177083333,321.750567086041L1118.2353645833334,321.94165201485157L1118.8372135416666,322.0485900118947L1119.4390625,322.18631038069725L1120.0409114583333,321.78592362999916L1120.6427604166668,322.1579054519534L1121.8464583333332,322.05606968700886L1124.2538541666665,321.9606832936406L1125.4575520833334,321.85926058888435L1126.0594010416667,321.9019184410572L1126.66125,321.80843306332827L1128.466796875,322.01945988088846L1129.0686458333332,322.1372970342636L1130.27234375,322.03387708961964L1132.6797395833335,321.98922903835773L1133.2815885416667,322.0726484209299L1133.8834375000001,322.162650950253L1134.4852864583333,322.1577317789197L1135.688984375,321.87828247994184L1138.0963802083334,322.31294149160385L1138.6982291666666,321.8832298144698L1139.9019270833332,322.1861460953951L1140.5037760416667,321.6381842046976L1141.1056250000001,322.27056761831045L1141.7074739583334,321.97810457646847L1142.911171875,322.171496540308L1144.71671875,322.2712881267071L1145.3185677083334,322.00775572657585L1145.9204166666666,322.35521914064884L1146.522265625,322.02681282162666L1147.1241145833333,322.2910633832216L1148.9296614583334,322.1906146556139L1149.5315104166666,322.4865042194724L1151.93890625,322.5058429464698L1152.5407552083334,322.1016166135669L1153.7444531249998,322.1207887083292L1154.3463020833333,322.1333729624748L1154.9481510416667,322.0796915665269L1157.355546875,323.01052974164486L1159.16109375,322.93896471709013L1160.3647916666666,322.97755298763514L1162.1703385416668,323.0223653241992L1162.7721875,322.8488495349884L1163.3740364583334,322.93952798098326L1163.9758854166666,322.7752379849553L1164.577734375,323.0033082291484L1165.7814322916668,323.0400471165776L1166.38328125,322.60900942236185L1166.9851302083332,322.9488312229514L1168.7906770833333,323.0178779885173L1169.3925260416665,322.16607043147087L1170.5962239583334,323.12239629775286L1171.1980729166667,322.8428507745266L1171.799921875,322.8048867881298L1173.60546875,322.9092079550028L1174.8091666666667,322.73177748173475L1175.411015625,323.24212038517L1176.0128645833333,322.83092131465673L1176.6147135416666,322.92010007053614L1180.82765625,323.1930389776826L1181.4295052083332,323.0321543812752L1183.2350520833334,322.2100707292557L1186.2442968750001,322.1825318187475L1188.6516927083333,322.25448878109455L1189.855390625,322.52845564484596L1191.0590885416666,322.40192310512066L1192.2627864583333,322.4088183939457L1192.8646354166667,322.2932695001364L1193.4664843750002,322.12430910766125L1194.0683333333334,322.0348487198353L1196.4757291666667,322.3772052079439L1197.077578125,322.33445113152266L1197.6794270833334,321.925336137414L1198.8831249999998,322.1297446042299L1199.4849739583333,322.1919031217694L1200.0868229166667,322.73222574591637L1202.49421875,322.4172274544835L1203.6979166666667,322.2899321615696L1204.9016145833332,322.3547802641988L1206.1053124999999,322.25229439884424L1206.7071614583333,322.2121829688549L1207.910859375,321.90297221392393L1210.3182552083333,322.4748188406229L1211.521953125,322.2587508112192L1212.1238020833332,322.22081968188286L1213.9293489583333,322.41868724673986L1215.7348958333334,322.43604046851397L1218.1422916666668,322.29074654728174L1219.3459895833332,322.0584330484271L1219.9478385416667,322.4768207743764L1221.7533854166666,322.37647061794996L1224.1607812500001,322.6758618056774L1224.7626302083333,322.5985327139497L1225.3644791666668,322.32502115517855L1225.966328125,322.26517906039953L1227.771875,322.12167819589376L1228.3737239583334,321.9857602715492L1228.9755729166666,322.28760869801044L1230.1792708333332,322.13362173736095L1230.7811197916667,322.1150621920824L1231.3829687500001,323.35085378587246L1232.5866666666668,323.1357597336173L1233.188515625,323.1449573636055L1234.9940625,323.3831827864051L1235.5959114583334,323.24965638667345L1236.799609375,323.18120104819536L1238.0033072916667,323.10220798105L1238.6051562500002,322.9911065250635L1239.2070052083334,323.31083623319864L1243.4199479166666,323.24224477261305L1244.0217968749998,322.88092271983624L1244.6236458333333,322.8835418969393L1245.2254947916667,323.1001567617059L1248.8365885416667,323.24335956573486L1249.4384375,323.321728348732L1250.0402864583332,323.2723089829087L1250.6421354166666,323.2673170566559L1251.2439843749999,323.36134222894907L1252.4476822916668,323.37983606010675L1254.2532291666666,322.88160802423954L1256.0587760416668,323.19151816517115L1258.4661718749999,322.0671354755759L1259.0680208333333,322.44686452299356L1259.6698697916665,322.75673711299896L1260.27171875,322.46789069473743L1260.8735677083334,322.14199324697256L1262.077265625,322.41996632516384L1262.6791145833333,321.8692092373967L1265.0865104166667,322.83496038615704L1266.8920572916666,323.2472531273961L1267.49390625,323.04906168580055L1269.2994531250001,322.9512110128999L1269.9013020833333,322.92164669930935L1270.5031510416668,323.3831053376198L1271.105,323.380375854671L1271.7068489583332,322.8858888298273L1272.910546875,323.09323800355196L1273.5123958333334,323.36183977872133L1274.1142447916666,323.15379121899605L1274.71609375,323.1100490838289L1275.3179427083332,323.09114453941584L1277.7253385416668,323.2284870520234L1278.3271875,323.3917936831713L1278.9290364583333,323.1908985748887L1280.7345833333334,323.2671222612262L1281.93828125,323.1468982771039L1282.5401302083333,323.4091234356165L1283.1419791666667,323.3104748055339L1284.3456770833334,323.1790770739317L1284.9475260416666,323.1008350253105L1285.549375,323.46654818952084L1286.7530729166667,323.22839786857367L1287.354921875,322.7727901339531L1289.1604687499998,323.2384873330593L1290.3641666666667,323.34763848781586L1291.5678645833334,322.02161905914545L1292.1697135416666,322.29625479876995L1293.3734114583333,322.8081771880388L1295.1789583333332,322.6640004068613L1296.3826562499999,322.48226096481085L1296.9845052083333,322.9489532634616L1297.5863541666668,322.52310463786125L1298.7900520833334,322.01259510219097L1299.99375,322.88522464782L1300.5955989583333,323.30179584771395L1301.1974479166668,323.50178503990173L1303.6048437499999,323.4853236526251L1304.2066927083333,323.2699808254838L1305.410390625,322.99384304881096L1306.6140885416667,323.558583162725L1309.6233333333332,323.30320870131254L1312.0307291666666,323.21961329877377L1312.632578125,323.1047426685691L1313.2344270833335,322.3156592398882L1313.8362760416667,322.8560311496258L1321.0584635416667,323.21677350997925L1322.2621614583334,323.2077284306288L1323.465859375,323.36024855822325" style="fill: none;" fill="none"></path></g></g></g></g></g></g><g transform="translate(51, 378)" clip-path="url(#clip_1)"><clipPath id="clip_1"><rect width="1444" height="22"></rect></clipPath><g><g><line x1="0" y1="0" x2="0" y2="5" style="visibility: inherit;" fill="rgb(0, 0, 0)" stroke="rgb(204, 204, 204)" stroke-width="1px"></line><line x1="120.36979166666666" y1="0" x2="120.36979166666666" y2="5" style="visibility: inherit;" fill="rgb(0, 0, 0)" stroke="rgb(204, 204, 204)" stroke-width="1px"></line><line x1="240.73958333333331" y1="0" x2="240.73958333333331" y2="5" style="visibility: inherit;" fill="rgb(0, 0, 0)" stroke="rgb(204, 204, 204)" stroke-width="1px"></line><line x1="361.109375" y1="0" x2="361.109375" y2="5" style="visibility: inherit;" fill="rgb(0, 0, 0)" stroke="rgb(204, 204, 204)" stroke-width="1px"></line><line x1="481.47916666666663" y1="0" x2="481.47916666666663" y2="5" style="visibility: inherit;" fill="rgb(0, 0, 0)" stroke="rgb(204, 204, 204)" stroke-width="1px"></line><line x1="601.8489583333334" y1="0" x2="601.8489583333334" y2="5" style="visibility: inherit;" fill="rgb(0, 0, 0)" stroke="rgb(204, 204, 204)" stroke-width="1px"></line><line x1="722.21875" y1="0" x2="722.21875" y2="5" style="visibility: inherit;" fill="rgb(0, 0, 0)" stroke="rgb(204, 204, 204)" stroke-width="1px"></line><line x1="842.5885416666667" y1="0" x2="842.5885416666667" y2="5" style="visibility: inherit;" fill="rgb(0, 0, 0)" stroke="rgb(204, 204, 204)" stroke-width="1px"></line><line x1="962.9583333333333" y1="0" x2="962.9583333333333" y2="5" style="visibility: inherit;" fill="rgb(0, 0, 0)" stroke="rgb(204, 204, 204)" stroke-width="1px"></line><line x1="1083.328125" y1="0" x2="1083.328125" y2="5" style="visibility: inherit;" fill="rgb(0, 0, 0)" stroke="rgb(204, 204, 204)" stroke-width="1px"></line><line x1="1203.6979166666667" y1="0" x2="1203.6979166666667" y2="5" style="visibility: inherit;" fill="rgb(0, 0, 0)" stroke="rgb(204, 204, 204)" stroke-width="1px"></line><line x1="1324.0677083333333" y1="0" x2="1324.0677083333333" y2="5" style="visibility: inherit;" fill="rgb(0, 0, 0)" stroke="rgb(204, 204, 204)" stroke-width="1px"></line><line x1="1444.4375" y1="0" x2="1444.4375" y2="5" style="visibility: inherit;" fill="rgb(0, 0, 0)" stroke="rgb(204, 204, 204)" stroke-width="1px"></line></g><g transform="translate(0, 8)"><text x="0" y="0" dx="0em" dy="0.95em" style="text-anchor: middle; visibility: hidden; font-family: Roboto, sans-serif; font-size: 12px; font-weight: 200;" fill="rgb(50, 49, 63)" stroke="none" stroke-width="1px">-200</text><text x="120.36979166666666" y="0" dx="0em" dy="0.95em" style="text-anchor: middle; visibility: inherit; font-family: Roboto, sans-serif; font-size: 12px; font-weight: 200;" fill="rgb(50, 49, 63)" stroke="none" stroke-width="1px">0</text><text x="240.73958333333331" y="0" dx="0em" dy="0.95em" style="text-anchor: middle; visibility: inherit; font-family: Roboto, sans-serif; font-size: 12px; font-weight: 200;" fill="rgb(50, 49, 63)" stroke="none" stroke-width="1px">200</text><text x="361.109375" y="0" dx="0em" dy="0.95em" style="text-anchor: middle; visibility: inherit; font-family: Roboto, sans-serif; font-size: 12px; font-weight: 200;" fill="rgb(50, 49, 63)" stroke="none" stroke-width="1px">400</text><text x="481.47916666666663" y="0" dx="0em" dy="0.95em" style="text-anchor: middle; visibility: inherit; font-family: Roboto, sans-serif; font-size: 12px; font-weight: 200;" fill="rgb(50, 49, 63)" stroke="none" stroke-width="1px">600</text><text x="601.8489583333334" y="0" dx="0em" dy="0.95em" style="text-anchor: middle; visibility: inherit; font-family: Roboto, sans-serif; font-size: 12px; font-weight: 200;" fill="rgb(50, 49, 63)" stroke="none" stroke-width="1px">800</text><text x="722.21875" y="0" dx="0em" dy="0.95em" style="text-anchor: middle; visibility: inherit; font-family: Roboto, sans-serif; font-size: 12px; font-weight: 200;" fill="rgb(50, 49, 63)" stroke="none" stroke-width="1px">1k</text><text x="842.5885416666667" y="0" dx="0em" dy="0.95em" style="text-anchor: middle; visibility: inherit; font-family: Roboto, sans-serif; font-size: 12px; font-weight: 200;" fill="rgb(50, 49, 63)" stroke="none" stroke-width="1px">1.2k</text><text x="962.9583333333333" y="0" dx="0em" dy="0.95em" style="text-anchor: middle; visibility: inherit; font-family: Roboto, sans-serif; font-size: 12px; font-weight: 200;" fill="rgb(50, 49, 63)" stroke="none" stroke-width="1px">1.4k</text><text x="1083.328125" y="0" dx="0em" dy="0.95em" style="text-anchor: middle; visibility: inherit; font-family: Roboto, sans-serif; font-size: 12px; font-weight: 200;" fill="rgb(50, 49, 63)" stroke="none" stroke-width="1px">1.6k</text><text x="1203.6979166666667" y="0" dx="0em" dy="0.95em" style="text-anchor: middle; visibility: inherit; font-family: Roboto, sans-serif; font-size: 12px; font-weight: 200;" fill="rgb(50, 49, 63)" stroke="none" stroke-width="1px">1.8k</text><text x="1324.0677083333333" y="0" dx="0em" dy="0.95em" style="text-anchor: middle; visibility: inherit; font-family: Roboto, sans-serif; font-size: 12px; font-weight: 200;" fill="rgb(50, 49, 63)" stroke="none" stroke-width="1px">2k</text><text x="1444.4375" y="0" dx="0em" dy="0.95em" style="text-anchor: middle; visibility: hidden; font-family: Roboto, sans-serif; font-size: 12px; font-weight: 200;" fill="rgb(50, 49, 63)" stroke="none" stroke-width="1px">2.2k</text></g><line x1="0" y1="0" x2="1444.4375" y2="0" fill="rgb(0, 0, 0)" stroke="rgb(204, 204, 204)" stroke-width="1px"></line></g></g></g></g></svg>