<?xml version="1.0" encoding="utf-8" standalone="no"?>
<!DOCTYPE svg PUBLIC "-//W3C//DTD SVG 1.1//EN"
  "http://www.w3.org/Graphics/SVG/1.1/DTD/svg11.dtd">
<!-- Created with matplotlib (https://matplotlib.org/) -->
<svg height="288pt" version="1.1" viewBox="0 0 720 288" width="720pt" xmlns="http://www.w3.org/2000/svg" xmlns:xlink="http://www.w3.org/1999/xlink">
 <metadata>
  <rdf:RDF xmlns:cc="http://creativecommons.org/ns#" xmlns:dc="http://purl.org/dc/elements/1.1/" xmlns:rdf="http://www.w3.org/1999/02/22-rdf-syntax-ns#">
   <cc:Work>
    <dc:type rdf:resource="http://purl.org/dc/dcmitype/StillImage"/>
    <dc:date>2020-12-21T15:08:21.769807</dc:date>
    <dc:format>image/svg+xml</dc:format>
    <dc:creator>
     <cc:Agent>
      <dc:title>Matplotlib v3.3.2, https://matplotlib.org/</dc:title>
     </cc:Agent>
    </dc:creator>
   </cc:Work>
  </rdf:RDF>
 </metadata>
 <defs>
  <style type="text/css">*{stroke-linecap:butt;stroke-linejoin:round;}</style>
 </defs>
 <g id="figure_1">
  <g id="patch_1">
   <path d="M 0 288 
L 720 288 
L 720 0 
L 0 0 
z
" style="fill:#ffffff;"/>
  </g>
  <g id="axes_1">
   <g id="line2d_1">
    <path clip-path="url(#pd55c280afd)" d="M 66.775923 231.049904 
L 65.853542 231.414509 
L 63.289032 232.80637 
L 61.04589 234.201692 
L 58.656265 235.873294 
L 56.107219 237.951035 
L 53.427362 240.576937 
L 50.814081 243.23005 
L 50.526206 243.263627 
L 50.352874 243.005981 
L 50.242153 242.212116 
L 50.23108 239.722031 
L 50.418881 236.943086 
L 51.036783 232.475038 
L 51.272045 232.436938 
L 52.0746 232.660552 
L 54.99178 233.507907 
L 57.554938 234.011965 
L 59.915048 234.22115 
L 61.476009 234.145615 
L 62.77429 233.885526 
L 63.622794 233.591123 
L 65.120711 232.803964 
L 66.801213 231.601021 
L 67.71174 230.905647 
L 67.71174 230.905647 
" style="fill:none;stroke:#000000;stroke-linecap:square;stroke-opacity:0.7;stroke-width:1.2;"/>
   </g>
   <g id="line2d_2">
    <path clip-path="url(#pd55c280afd)" d="M 67.31608 185.759107 
L 57.993995 184.636642 
L 55.587572 184.519957 
L 54.923562 184.684424 
L 51.258029 186.968907 
L 50.433706 187.825894 
L 49.931231 188.65473 
L 49.653416 189.542005 
L 49.617686 190.373471 
L 49.79673 191.158196 
L 50.206507 191.88943 
L 50.73934 192.412404 
L 51.478719 192.819105 
L 52.398047 193.04186 
L 53.370481 193.060552 
L 54.681622 192.850341 
L 56.431139 192.305907 
L 59.153361 191.182611 
L 63.567578 189.133433 
L 66.102994 187.730705 
L 67.128286 186.950757 
L 67.579408 186.371518 
L 67.881388 185.969607 
L 67.970592 185.919824 
L 67.970592 185.919824 
" style="fill:none;stroke:#000000;stroke-linecap:square;stroke-opacity:0.7;stroke-width:1.2;"/>
   </g>
   <g id="line2d_3">
    <path clip-path="url(#pd55c280afd)" d="M 66.382102 140.562878 
L 53.232751 142.365601 
L 50.374596 142.964566 
L 47.200637 143.882665 
L 44.928238 144.920658 
L 44.509091 145.333096 
L 44.586667 145.421976 
L 45.971324 145.223817 
L 48.679913 144.646718 
L 49.737792 144.570185 
L 51.011534 144.70575 
L 52.435186 145.222654 
L 53.896161 146.056931 
L 55.295624 147.096925 
L 56.275311 148.091477 
L 57.191757 149.360223 
L 58.199318 150.766657 
L 58.689936 151.117043 
L 59.324832 151.306127 
L 60.182547 151.299422 
L 61.121069 151.08994 
L 62.151851 150.681115 
L 63.293744 150.017894 
L 64.169274 149.33273 
L 65.248479 148.194065 
L 65.785505 147.4508 
L 66.668705 145.794263 
L 67.218665 144.264243 
L 67.722318 142.018937 
L 67.871607 140.334819 
L 67.830599 140.006919 
L 67.830599 140.006919 
" style="fill:none;stroke:#000000;stroke-linecap:square;stroke-opacity:0.7;stroke-width:1.2;"/>
   </g>
   <g id="line2d_4">
    <path clip-path="url(#pd55c280afd)" d="M 67.598439 95.084565 
L 67.858439 95.520508 
L 68.294637 96.784029 
L 68.293199 97.880548 
L 68.083211 98.877615 
L 67.450748 100.67031 
L 66.565967 102.474146 
L 65.710695 103.71878 
L 64.796306 104.60417 
L 63.99497 105.070084 
L 63.342768 105.27109 
L 62.416977 105.325476 
L 61.408048 105.130981 
L 60.129846 104.599987 
L 58.502994 103.635499 
L 53.058105 100.139395 
L 52.161552 99.829241 
L 51.814882 99.884415 
L 51.935773 100.13933 
L 52.425797 100.435525 
L 53.361196 100.701076 
L 54.517907 100.774494 
L 55.820157 100.628416 
L 57.413188 100.20113 
L 59.047278 99.54913 
L 60.700952 98.733611 
L 67.961955 94.871601 
L 68.79138 94.730928 
L 69.139424 94.850271 
L 69.105573 94.928733 
L 69.085591 94.933668 
L 68.719164 94.865206 
L 68.719164 94.865206 
" style="fill:none;stroke:#000000;stroke-linecap:square;stroke-opacity:0.7;stroke-width:1.2;"/>
   </g>
   <g id="line2d_5">
    <path clip-path="url(#pd55c280afd)" d="M 66.749405 49.024788 
L 66.77479 49.349711 
L 66.742507 49.466872 
L 66.000962 50.596845 
L 64.090541 52.691862 
L 60.984134 56.164844 
L 58.729414 58.615817 
L 57.385552 59.713282 
L 56.449916 60.23286 
L 55.328936 60.57722 
L 54.552741 60.641064 
L 53.543067 60.51503 
L 52.54638 60.160273 
L 51.489655 59.530449 
L 50.444752 58.641215 
L 49.529837 57.630882 
L 48.364022 55.980392 
L 47.454981 54.263941 
L 46.962405 52.872441 
L 46.817274 51.942419 
L 46.886819 51.160462 
L 47.235651 50.43089 
L 47.632215 50.043495 
L 48.561749 49.576714 
L 49.625576 49.30698 
L 54.558467 48.293185 
L 57.670959 47.619452 
L 59.694866 47.447875 
L 61.296526 47.539141 
L 63.061907 47.857828 
L 67.542343 48.80358 
L 67.784499 48.824382 
L 67.784499 48.824382 
" style="fill:none;stroke:#000000;stroke-linecap:square;stroke-opacity:0.7;stroke-width:1.2;"/>
   </g>
   <g id="line2d_6">
    <path clip-path="url(#pd55c280afd)" d="M 217.956066 231.859939 
L 216.03307 232.736406 
L 209.068602 236.373226 
L 203.214835 239.640774 
L 200.326813 241.219832 
L 200.254972 240.907951 
L 200.053482 240.103783 
L 199.55165 239.128869 
L 199.143999 238.258609 
L 199.266088 237.99787 
L 199.75271 237.685578 
L 203.801732 235.779378 
L 207.106037 234.390501 
L 210.125462 232.779361 
L 216.023888 229.538295 
L 218.083604 228.600636 
L 220.002962 228.002156 
L 220.625423 227.965978 
L 221.033896 228.119064 
L 221.163037 228.458785 
L 221.045805 228.901831 
L 220.520422 229.715248 
L 219.566772 230.7235 
L 219.05675 231.184811 
L 219.05675 231.184811 
" style="fill:none;stroke:#000000;stroke-linecap:square;stroke-opacity:0.7;stroke-width:1.2;"/>
   </g>
   <g id="line2d_7">
    <path clip-path="url(#pd55c280afd)" d="M 217.24108 185.438953 
L 214.939508 186.660119 
L 207.37344 190.713742 
L 200.918901 193.834749 
L 198.308598 194.955552 
L 197.862576 194.94311 
L 197.695649 194.758817 
L 197.710526 194.402065 
L 197.932562 194.005147 
L 198.475337 193.473084 
L 199.645702 192.71216 
L 201.917149 191.565945 
L 205.166855 189.884262 
L 206.265045 189.076193 
L 206.863946 188.330558 
L 207.214386 187.453889 
L 207.839257 185.529496 
L 208.487717 184.488237 
L 209.316105 183.596865 
L 210.407592 182.741641 
L 212.049185 181.83891 
L 213.484583 181.356811 
L 214.427471 181.223645 
L 215.312638 181.293747 
L 216.104377 181.626091 
L 216.656272 182.140798 
L 217.033738 182.741497 
L 217.850556 184.728196 
L 217.850556 184.728196 
" style="fill:none;stroke:#000000;stroke-linecap:square;stroke-opacity:0.7;stroke-width:1.2;"/>
   </g>
   <g id="line2d_8">
    <path clip-path="url(#pd55c280afd)" d="M 217.714791 139.403389 
L 212.76166 139.576576 
L 208.80875 139.971197 
L 205.255812 140.530197 
L 203.350152 141.03299 
L 202.532259 141.443629 
L 202.150937 141.843726 
L 202.034567 142.228057 
L 202.106547 142.669816 
L 202.478349 143.290435 
L 203.160665 143.945498 
L 204.235226 144.649398 
L 205.935423 145.460922 
L 206.107914 145.388219 
L 206.235888 144.763893 
L 206.528804 143.915108 
L 207.164857 142.821407 
L 208.072691 141.695769 
L 209.580676 140.214529 
L 211.614189 138.551489 
L 213.71972 137.049808 
L 216.593186 135.273985 
L 218.566779 134.28824 
L 219.889685 133.869111 
L 220.273823 133.845715 
L 220.721772 134.025666 
L 220.858374 134.368479 
L 220.753834 135.084691 
L 220.32331 136.123175 
L 219.297437 137.906932 
L 218.632908 138.918197 
L 218.632908 138.918197 
" style="fill:none;stroke:#000000;stroke-linecap:square;stroke-opacity:0.7;stroke-width:1.2;"/>
   </g>
   <g id="line2d_9">
    <path clip-path="url(#pd55c280afd)" d="M 219.258079 93.759468 
L 215.888413 93.147469 
L 213.2745 92.864598 
L 210.441526 92.74196 
L 207.687364 92.84881 
L 205.595614 93.185496 
L 204.516413 93.559914 
L 203.774803 94.052801 
L 203.404899 94.55537 
L 203.239797 95.167037 
L 203.276063 95.77142 
L 203.572538 96.561339 
L 204.143839 97.307415 
L 205.04585 98.023569 
L 206.418239 98.765894 
L 207.067881 99.205558 
L 206.943101 99.329172 
L 206.464782 99.399396 
L 206.0132 99.290451 
L 206.027731 99.133983 
L 206.335219 98.866365 
L 207.613952 98.165478 
L 211.080162 96.570487 
L 216.131674 94.453151 
L 220.034662 93.038472 
L 221.869487 92.551756 
L 222.385843 92.601157 
L 222.235218 92.78873 
L 221.275595 93.376921 
L 220.498217 93.796087 
L 220.498217 93.796087 
" style="fill:none;stroke:#000000;stroke-linecap:square;stroke-opacity:0.7;stroke-width:1.2;"/>
   </g>
   <g id="line2d_10">
    <path clip-path="url(#pd55c280afd)" d="M 217.546604 46.966101 
L 221.650438 45.262396 
L 221.877516 44.933123 
L 221.355155 44.746915 
L 219.931192 44.721279 
L 217.667368 44.921699 
L 213.309981 45.711951 
L 210.379559 46.501452 
L 207.198885 47.605116 
L 205.331779 48.385072 
L 201.582419 50.306287 
L 199.0167 51.9913 
L 196.839512 53.849559 
L 195.659329 55.264122 
L 195.137515 56.238197 
L 194.932604 57.295402 
L 195.132565 58.081875 
L 195.620127 58.701743 
L 196.01698 59.004592 
L 196.644348 59.343944 
L 197.977046 59.800516 
L 199.924292 60.171155 
L 202.31074 60.38211 
L 205.142586 60.361821 
L 207.023615 60.105504 
L 208.390918 59.696266 
L 209.586281 59.10973 
L 210.81288 58.241508 
L 211.923203 57.193711 
L 212.771954 56.165986 
L 213.622135 54.792955 
L 214.341333 53.136041 
L 216.049003 48.755552 
L 216.742441 47.829511 
L 217.405747 47.313264 
L 218.036433 47.116428 
L 218.649247 47.124094 
L 218.649247 47.124094 
" style="fill:none;stroke:#000000;stroke-linecap:square;stroke-opacity:0.7;stroke-width:1.2;"/>
   </g>
   <g id="line2d_11">
    <path clip-path="url(#pd55c280afd)" d="M 370.868663 231.24083 
L 370.895446 230.693976 
L 370.709846 230.300635 
L 370.31856 229.873833 
L 369.414594 229.245439 
L 368.245298 228.710695 
L 367.097103 228.457441 
L 366.289098 228.489559 
L 365.444401 228.703953 
L 363.744895 229.425592 
L 359.811794 231.158084 
L 356.918514 232.162702 
L 353.759394 233.020447 
L 350.403956 233.780908 
L 350.811513 233.826884 
L 352.968062 233.880663 
L 355.332801 233.735893 
L 358.144761 233.346064 
L 361.455611 232.67324 
L 370.436637 230.714656 
L 371.871364 230.683861 
L 371.891469 230.696794 
L 371.891469 230.696794 
" style="fill:none;stroke:#000000;stroke-linecap:square;stroke-opacity:0.7;stroke-width:1.2;"/>
   </g>
   <g id="line2d_12">
    <path clip-path="url(#pd55c280afd)" d="M 372.038172 185.114471 
L 372.289786 184.902186 
L 372.366686 184.529213 
L 372.065368 183.915834 
L 371.357747 183.173776 
L 369.665777 181.970905 
L 369.290356 181.76711 
L 367.99995 181.276998 
L 367.061629 181.259679 
L 366.631229 181.418127 
L 366.301946 181.63057 
L 365.246569 182.758571 
L 362.657976 185.897894 
L 361.094484 187.432878 
L 360.082993 188.281165 
L 357.923182 189.728589 
L 356.230673 190.518538 
L 354.219412 191.144843 
L 353.153103 191.549406 
L 352.9709 191.800607 
L 353.11483 192.055421 
L 353.485741 192.262475 
L 354.44645 192.503633 
L 355.761592 192.586697 
L 357.541451 192.448394 
L 359.628449 192.046057 
L 362.088676 191.342648 
L 364.740814 190.356831 
L 367.012291 189.292292 
L 368.748214 188.264423 
L 370.314712 187.088438 
L 372.896266 184.825292 
L 372.896266 184.825292 
" style="fill:none;stroke:#000000;stroke-linecap:square;stroke-opacity:0.7;stroke-width:1.2;"/>
   </g>
   <g id="line2d_13">
    <path clip-path="url(#pd55c280afd)" d="M 369.804817 138.930726 
L 365.482709 137.435953 
L 360.057944 135.905608 
L 357.235117 135.266319 
L 355.800322 135.170342 
L 355.033701 135.368306 
L 354.59999 135.685939 
L 354.174047 136.270756 
L 353.669041 137.393236 
L 353.365524 138.29877 
L 353.085173 139.939022 
L 353.17306 140.784606 
L 353.554857 141.759491 
L 353.829169 142.199039 
L 356.119568 145.301137 
L 356.150596 145.704797 
L 355.961733 146.14657 
L 355.510858 146.494983 
L 355.065667 146.591567 
L 355.06445 146.586133 
L 355.197397 146.444911 
L 356.118504 145.921504 
L 360.200597 143.942702 
L 366.7238 140.731181 
L 369.467051 139.442919 
L 370.792406 139.067281 
L 370.792406 139.067281 
" style="fill:none;stroke:#000000;stroke-linecap:square;stroke-opacity:0.7;stroke-width:1.2;"/>
   </g>
   <g id="line2d_14">
    <path clip-path="url(#pd55c280afd)" d="M 369.261446 94.921269 
L 366.679264 95.036978 
L 353.803775 96.225275 
L 351.833662 96.585921 
L 351.421236 96.749845 
L 352.084914 96.610957 
L 352.916494 97.101221 
L 356.951314 99.444187 
L 357.635669 99.648459 
L 358.124961 99.580316 
L 358.930737 99.196042 
L 360.468939 98.14102 
L 364.938255 95.020699 
L 367.930339 93.203026 
L 370.332044 92.006116 
L 371.611237 91.5813 
L 372.205951 91.545664 
L 372.489528 91.726793 
L 372.494563 92.074014 
L 372.19083 92.675521 
L 371.350892 93.706093 
L 370.804081 94.285541 
L 370.804081 94.285541 
" style="fill:none;stroke:#000000;stroke-linecap:square;stroke-opacity:0.7;stroke-width:1.2;"/>
   </g>
   <g id="line2d_15">
    <path clip-path="url(#pd55c280afd)" d="M 371.840532 48.787749 
L 373.027268 48.602834 
L 374.318374 48.595363 
L 375.429471 48.776759 
L 375.967346 49.060814 
L 376.092938 49.284494 
L 376.099015 49.405037 
L 375.868916 49.867013 
L 375.155027 50.503131 
L 373.591993 51.48217 
L 371.225828 52.701067 
L 367.212693 54.467844 
L 364.040232 55.640151 
L 360.067757 56.806764 
L 356.98162 57.486914 
L 353.279847 58.046571 
L 352.36813 58.06642 
L 352.44938 57.995574 
L 353.847558 57.229737 
L 354.336646 56.605614 
L 356.011016 54.164735 
L 358.185029 51.515169 
L 359.632638 50.050165 
L 360.694418 49.242759 
L 361.827259 48.635443 
L 363.165023 48.192888 
L 364.695752 47.950047 
L 366.372005 47.899151 
L 369.058555 48.078841 
L 372.639341 48.550586 
L 372.639341 48.550586 
" style="fill:none;stroke:#000000;stroke-linecap:square;stroke-opacity:0.7;stroke-width:1.2;"/>
   </g>
   <g id="line2d_16">
    <path clip-path="url(#pd55c280afd)" d="M 522.449886 231.319783 
L 521.517034 231.272232 
L 518.863914 231.475471 
L 511.975092 232.360095 
L 508.152414 232.996986 
L 506.822015 233.379388 
L 506.058052 233.797317 
L 505.995735 234.030751 
L 506.293637 234.42574 
L 506.853513 235.245876 
L 506.854247 235.562129 
L 506.642222 235.681718 
L 506.095525 235.699962 
L 504.847849 235.46853 
L 503.690333 235.059863 
L 503.1327 234.701277 
L 502.942863 234.38428 
L 503.050134 234.020686 
L 503.414902 233.693039 
L 504.425103 233.171004 
L 506.399239 232.455992 
L 510.048215 231.386055 
L 514.861025 230.204247 
L 517.763899 229.677054 
L 519.924397 229.493013 
L 521.100982 229.570767 
L 522.028016 229.874078 
L 522.565424 230.325614 
L 523.357717 231.224197 
L 523.357717 231.224197 
" style="fill:none;stroke:#000000;stroke-linecap:square;stroke-opacity:0.7;stroke-width:1.2;"/>
   </g>
   <g id="line2d_17">
    <path clip-path="url(#pd55c280afd)" d="M 522.298719 184.860574 
L 521.464121 184.367702 
L 520.079095 184.004932 
L 518.156595 183.765522 
L 515.906538 183.737567 
L 513.355212 183.977598 
L 511.554404 184.354855 
L 510.225344 184.851557 
L 509.410562 185.361835 
L 508.688239 186.073683 
L 508.057847 187.08484 
L 507.756176 188.08643 
L 507.737218 188.699499 
L 507.966676 189.665814 
L 508.357631 190.939285 
L 508.230679 191.31897 
L 507.961558 191.565576 
L 507.338985 191.826351 
L 506.338794 191.980666 
L 505.552262 191.906641 
L 505.390127 191.72729 
L 505.522733 191.510525 
L 506.095276 191.11412 
L 507.701471 190.330429 
L 522.576478 183.844598 
L 523.058311 183.859316 
L 523.243569 184.090489 
L 523.272696 184.565124 
L 523.262492 184.683347 
L 523.262492 184.683347 
" style="fill:none;stroke:#000000;stroke-linecap:square;stroke-opacity:0.7;stroke-width:1.2;"/>
   </g>
   <g id="line2d_18">
    <path clip-path="url(#pd55c280afd)" d="M 522.349259 138.804598 
L 521.600328 138.044404 
L 517.833992 135.854907 
L 514.780823 134.411485 
L 512.412571 133.59624 
L 511.804612 133.525777 
L 510.990793 133.657708 
L 510.461607 133.964162 
L 509.679305 134.783663 
L 508.843677 135.954554 
L 506.548554 139.760248 
L 505.659356 141.740264 
L 505.305168 142.854442 
L 505.065681 144.089538 
L 505.009474 145.37603 
L 505.076005 147.460634 
L 504.839655 147.546646 
L 504.360934 147.40442 
L 503.753543 146.964402 
L 503.517847 146.568105 
L 503.534656 146.212113 
L 503.759359 145.859234 
L 504.404834 145.34259 
L 505.521142 144.755093 
L 507.220926 144.119567 
L 509.630477 143.464685 
L 517.179283 141.576426 
L 519.272945 140.789353 
L 521.281916 139.796795 
L 522.917986 138.758167 
L 522.917986 138.758167 
" style="fill:none;stroke:#000000;stroke-linecap:square;stroke-opacity:0.7;stroke-width:1.2;"/>
   </g>
   <g id="line2d_19">
    <path clip-path="url(#pd55c280afd)" d="M 522.221948 94.476027 
L 522.433549 94.4762 
L 522.274519 94.570052 
L 520.805905 95.338418 
L 519.064321 96.403925 
L 517.562131 96.972997 
L 516.194408 97.278383 
L 514.174627 97.480877 
L 511.962312 97.468088 
L 509.217385 97.223888 
L 504.918294 96.56488 
L 501.936159 96.183389 
L 501.387014 96.277291 
L 501.459388 96.416064 
L 502.027702 96.693667 
L 503.551637 97.138866 
L 506.107474 97.623111 
L 509.153063 97.951495 
L 512.25435 98.046106 
L 515.092817 97.911805 
L 517.775393 97.551492 
L 519.401755 97.147153 
L 520.454036 96.682012 
L 521.218047 96.123728 
L 522.954401 94.676614 
L 522.954401 94.676614 
" style="fill:none;stroke:#000000;stroke-linecap:square;stroke-opacity:0.7;stroke-width:1.2;"/>
   </g>
   <g id="line2d_20">
    <path clip-path="url(#pd55c280afd)" d="M 522.988172 50.039941 
L 522.96251 50.159291 
L 522.429345 50.921877 
L 520.702201 52.803337 
L 519.863242 53.803366 
L 519.230296 54.881857 
L 518.756715 55.78922 
L 518.477821 55.93654 
L 517.956553 55.930406 
L 516.58219 55.570613 
L 511.415307 54.077826 
L 507.326035 53.16287 
L 504.489463 52.729991 
L 503.161736 52.71046 
L 502.871954 52.863388 
L 503.011817 53.028916 
L 503.590695 53.270241 
L 504.874305 53.546998 
L 506.848629 53.722296 
L 509.253736 53.683661 
L 511.804544 53.408255 
L 514.830207 52.834775 
L 518.625088 51.874377 
L 524.656384 50.102932 
L 525.206175 49.763934 
L 525.118991 49.597712 
L 524.995755 49.355802 
L 525.006735 49.328591 
L 525.006735 49.328591 
" style="fill:none;stroke:#000000;stroke-linecap:square;stroke-opacity:0.7;stroke-width:1.2;"/>
   </g>
   <g id="line2d_21">
    <path clip-path="url(#pd55c280afd)" d="M 674.365094 230.580211 
L 675.310825 230.047635 
L 675.490909 229.697126 
L 675.426373 229.307145 
L 674.980384 228.77688 
L 674.48894 228.453186 
L 673.633665 228.109917 
L 672.714891 227.951187 
L 671.675257 228.000978 
L 670.37464 228.363857 
L 668.870381 229.057706 
L 661.635048 232.795185 
L 656.532674 235.104481 
L 655.621303 235.168217 
L 655.20178 235.004068 
L 655.180646 234.817051 
L 655.383537 234.592099 
L 655.98806 234.261136 
L 657.327667 233.807259 
L 659.336728 233.35188 
L 662.254746 232.922896 
L 665.390357 232.679895 
L 672.006374 232.332017 
L 673.270086 231.909904 
L 674.549613 231.280325 
L 675.462784 230.72579 
L 675.462784 230.72579 
" style="fill:none;stroke:#000000;stroke-linecap:square;stroke-opacity:0.7;stroke-width:1.2;"/>
   </g>
   <g id="line2d_22">
    <path clip-path="url(#pd55c280afd)" d="M 672.761445 185.188864 
L 672.542886 185.200432 
L 671.744861 185.553166 
L 670.717903 186.122361 
L 668.96017 187.236908 
L 665.565592 189.834298 
L 662.684892 192.476891 
L 659.208856 195.710789 
L 658.881303 195.918905 
L 660.228599 195.117439 
L 662.673894 193.693823 
L 663.210734 193.14832 
L 663.353203 192.712428 
L 663.256576 192.243327 
L 662.849259 191.588394 
L 660.890615 189.005961 
L 660.63424 188.11789 
L 660.646169 187.301171 
L 660.850248 186.538723 
L 661.427346 185.450817 
L 662.072049 184.625847 
L 663.184377 183.545007 
L 664.64628 182.454341 
L 666.599684 181.342158 
L 668.514027 180.534724 
L 670.329091 180.007704 
L 671.983394 179.763496 
L 673.27305 179.804443 
L 674.274031 180.109691 
L 674.852529 180.577903 
L 675.127087 181.109107 
L 675.211903 181.753758 
L 675.075328 182.692602 
L 674.652959 183.913442 
L 674.118226 185.125937 
L 674.118226 185.125937 
" style="fill:none;stroke:#000000;stroke-linecap:square;stroke-opacity:0.7;stroke-width:1.2;"/>
   </g>
   <g id="line2d_23">
    <path clip-path="url(#pd55c280afd)" d="M 672.523655 139.536504 
L 671.456007 139.953971 
L 668.19703 141.563268 
L 665.042887 143.458775 
L 660.1686 146.87451 
L 654.339875 151.442819 
L 652.317951 152.897852 
L 651.74023 153.09815 
L 651.721252 152.940836 
L 652.007884 152.441165 
L 652.948162 151.338063 
L 654.610665 149.761707 
L 656.550763 148.209975 
L 659.170666 146.416927 
L 660.617652 145.390784 
L 660.67161 145.150298 
L 660.38767 144.938483 
L 660.02378 144.571081 
L 660.017495 144.319034 
L 660.250185 144.01362 
L 660.798614 143.668025 
L 662.353807 143.00609 
L 665.396103 141.98213 
L 671.718996 139.91603 
L 673.045598 139.402883 
L 673.045598 139.402883 
" style="fill:none;stroke:#000000;stroke-linecap:square;stroke-opacity:0.7;stroke-width:1.2;"/>
   </g>
   <g id="line2d_24">
    <path clip-path="url(#pd55c280afd)" d="M 673.45532 95.197333 
L 671.407768 97.675264 
L 665.973886 106.348692 
L 664.829334 109.101142 
L 664.043858 111.647036 
L 663.69299 113.396161 
L 663.624691 114.990382 
L 663.792435 115.38113 
L 663.942756 115.287617 
L 664.058074 114.991972 
L 664.127967 113.949605 
L 663.945541 112.758161 
L 663.533957 111.437909 
L 662.573247 109.3904 
L 661.367804 107.416179 
L 659.664944 105.057208 
L 657.312409 102.198855 
L 653.85033 98.143852 
L 653.830297 97.782997 
L 654.055248 97.597496 
L 654.407634 97.517178 
L 656.403292 97.617287 
L 662.377552 98.323008 
L 665.567409 98.405928 
L 667.515793 98.210298 
L 669.080986 97.86864 
L 670.898478 97.23352 
L 672.444169 96.481093 
L 674.347141 95.3612 
L 674.347141 95.3612 
" style="fill:none;stroke:#000000;stroke-linecap:square;stroke-opacity:0.7;stroke-width:1.2;"/>
   </g>
   <g id="line2d_25">
    <path clip-path="url(#pd55c280afd)" d="M 672.207445 47.471539 
L 672.102181 47.157743 
L 671.711912 46.984266 
L 671.192519 46.938269 
L 670.809165 46.952084 
L 668.749202 47.331003 
L 666.003189 48.241169 
L 661.361036 50.27823 
L 657.513021 52.196345 
L 656.570066 52.814305 
L 656.180702 53.272054 
L 656.13516 53.836972 
L 656.389546 54.299779 
L 657.008884 54.917912 
L 658.191574 55.761431 
L 660.359718 57.010031 
L 662.561623 58.330562 
L 662.631839 58.486582 
L 662.594055 58.495195 
L 662.261296 58.377036 
L 661.648737 57.904547 
L 661.05769 57.137453 
L 660.642191 56.215972 
L 660.399236 55.057906 
L 660.377747 54.018541 
L 660.636328 52.462712 
L 661.077301 51.229141 
L 661.700798 50.058055 
L 662.620204 48.81074 
L 663.571869 47.834706 
L 664.699839 46.93824 
L 665.486151 46.440642 
L 667.589706 45.549754 
L 668.897681 45.33913 
L 669.873783 45.40757 
L 670.762589 45.697695 
L 671.79538 46.342029 
L 673.126759 47.207772 
L 673.547959 47.350165 
L 673.547959 47.350165 
" style="fill:none;stroke:#000000;stroke-linecap:square;stroke-opacity:0.7;stroke-width:1.2;"/>
   </g>
  </g>
 </g>
 <defs>
  <clipPath id="pd55c280afd">
   <rect height="262.08" width="694.08" x="12.96" y="12.96"/>
  </clipPath>
 </defs>
</svg>
