<?xml version="1.0" encoding="utf-8" standalone="no"?>
<!DOCTYPE svg PUBLIC "-//W3C//DTD SVG 1.1//EN"
  "http://www.w3.org/Graphics/SVG/1.1/DTD/svg11.dtd">
<!-- Created with matplotlib (https://matplotlib.org/) -->
<svg height="288pt" version="1.1" viewBox="0 0 720 288" width="720pt" xmlns="http://www.w3.org/2000/svg" xmlns:xlink="http://www.w3.org/1999/xlink">
 <metadata>
  <rdf:RDF xmlns:cc="http://creativecommons.org/ns#" xmlns:dc="http://purl.org/dc/elements/1.1/" xmlns:rdf="http://www.w3.org/1999/02/22-rdf-syntax-ns#">
   <cc:Work>
    <dc:type rdf:resource="http://purl.org/dc/dcmitype/StillImage"/>
    <dc:date>2020-12-21T16:12:27.680972</dc:date>
    <dc:format>image/svg+xml</dc:format>
    <dc:creator>
     <cc:Agent>
      <dc:title>Matplotlib v3.3.2, https://matplotlib.org/</dc:title>
     </cc:Agent>
    </dc:creator>
   </cc:Work>
  </rdf:RDF>
 </metadata>
 <defs>
  <style type="text/css">*{stroke-linecap:butt;stroke-linejoin:round;}</style>
 </defs>
 <g id="figure_1">
  <g id="patch_1">
   <path d="M 0 288 
L 720 288 
L 720 0 
L 0 0 
z
" style="fill:#ffffff;"/>
  </g>
  <g id="axes_1">
   <g id="line2d_1">
    <path clip-path="url(#p58f4c5ec56)" d="M 47.852242 235.064029 
L 47.985666 235.105204 
L 48.756827 235.096938 
L 49.520496 234.907647 
L 49.669014 234.698164 
L 49.574611 234.420896 
L 49.059699 233.799952 
L 47.88925 232.750055 
L 47.062491 232.241843 
L 46.750659 232.24317 
L 46.495856 232.45111 
L 46.095532 233.103554 
L 45.296881 234.903548 
L 44.601914 237.034575 
L 44.516373 237.920078 
L 44.702302 238.366296 
L 45.075137 238.578641 
L 45.768353 238.65997 
L 47.047725 238.533694 
L 48.767992 238.125208 
L 50.19144 237.625338 
L 51.529467 236.940843 
L 51.999305 236.49912 
L 52.036664 236.227218 
L 51.851965 236.027552 
L 51.337627 235.804361 
L 49.341827 235.373551 
L 47.873373 235.148325 
L 47.873373 235.148325 
" style="fill:none;stroke:#000000;stroke-linecap:square;stroke-opacity:0.7;stroke-width:1.2;"/>
   </g>
   <g id="line2d_2">
    <path clip-path="url(#p58f4c5ec56)" d="M 47.960255 188.250557 
L 48.374712 187.87864 
L 47.848753 188.214205 
L 47.612414 188.604369 
L 47.675451 188.784052 
L 47.959845 188.901174 
L 48.586901 188.902516 
L 49.61636 188.66119 
L 50.170458 188.332781 
L 50.164919 188.13661 
L 49.859177 187.850621 
L 48.372826 186.901015 
L 47.257692 186.362906 
L 47.307328 186.592298 
L 48.043619 188.296659 
L 48.043619 188.296659 
" style="fill:none;stroke:#000000;stroke-linecap:square;stroke-opacity:0.7;stroke-width:1.2;"/>
   </g>
   <g id="line2d_3">
    <path clip-path="url(#p58f4c5ec56)" d="M 47.927145 141.377521 
L 48.016212 141.906797 
L 48.252297 142.160541 
L 48.50678 142.139059 
L 48.603747 141.944954 
L 48.477158 141.59062 
L 48.405787 141.398594 
L 48.478902 141.382717 
L 48.836985 141.224472 
L 49.269883 140.75025 
L 49.497464 140.20661 
L 49.395749 140.044325 
L 48.871713 139.904916 
L 47.018058 139.66924 
L 47.020995 139.699957 
L 47.395127 140.296012 
L 48.057014 141.409431 
L 48.057014 141.409431 
" style="fill:none;stroke:#000000;stroke-linecap:square;stroke-opacity:0.7;stroke-width:1.2;"/>
   </g>
   <g id="line2d_4">
    <path clip-path="url(#p58f4c5ec56)" d="M 47.925863 94.360872 
L 48.167324 94.301107 
L 49.911384 93.642447 
L 50.255745 93.356055 
L 50.161505 93.183037 
L 49.81467 92.981298 
L 48.449467 92.512786 
L 47.373167 92.324256 
L 47.095139 92.442876 
L 47.071957 92.774863 
L 47.342473 93.714049 
L 47.77303 94.51346 
L 48.111517 94.757716 
L 48.442102 94.724367 
L 48.792337 94.426362 
L 49.038239 93.91505 
L 49.046714 93.632817 
L 48.990341 93.656453 
L 48.027854 94.403598 
L 48.027854 94.403598 
" style="fill:none;stroke:#000000;stroke-linecap:square;stroke-opacity:0.7;stroke-width:1.2;"/>
   </g>
   <g id="line2d_5">
    <path clip-path="url(#p58f4c5ec56)" d="M 47.871823 47.487904 
L 47.880864 47.370237 
L 48.130569 46.584966 
L 48.166869 46.377563 
L 48.110413 46.370921 
L 47.633031 46.533952 
L 46.73757 47.037982 
L 45.897819 47.707166 
L 45.639364 48.161031 
L 45.677281 48.306382 
L 46.043191 48.533806 
L 46.873901 48.664972 
L 48.176961 48.655386 
L 49.920127 48.42867 
L 50.892788 48.139706 
L 51.178353 47.864577 
L 51.083137 47.637547 
L 50.582492 47.198545 
L 48.892025 46.074526 
L 47.565566 45.380803 
L 47.45838 45.487595 
L 47.520277 46.022804 
L 47.904352 47.375179 
L 48.004762 47.543599 
L 48.004762 47.543599 
" style="fill:none;stroke:#000000;stroke-linecap:square;stroke-opacity:0.7;stroke-width:1.2;"/>
   </g>
   <g id="line2d_6">
    <path clip-path="url(#p58f4c5ec56)" d="M 204.264151 235.180861 
L 204.333547 235.525043 
L 204.652639 236.251167 
L 205.030378 236.637031 
L 205.298538 236.63525 
L 205.455098 236.418178 
L 205.532097 235.843978 
L 205.476864 234.554909 
L 205.123976 233.404607 
L 204.824033 232.98462 
L 204.456528 232.913413 
L 203.204094 233.019243 
L 202.303117 233.215071 
L 202.293069 233.366429 
L 202.786835 233.887125 
L 204.239188 235.114656 
L 204.397784 235.204713 
L 204.397784 235.204713 
" style="fill:none;stroke:#000000;stroke-linecap:square;stroke-opacity:0.7;stroke-width:1.2;"/>
   </g>
   <g id="line2d_7">
    <path clip-path="url(#p58f4c5ec56)" d="M 204.141968 188.168371 
L 202.605229 188.394991 
L 200.199341 188.644933 
L 200.688261 188.712719 
L 201.605182 188.99996 
L 202.668929 189.389111 
L 204.007716 189.51456 
L 205.533386 189.48171 
L 205.951838 189.295491 
L 206.207982 188.937087 
L 206.382693 188.307445 
L 206.329324 187.745723 
L 206.139153 187.58422 
L 205.764813 187.621005 
L 204.67263 188.040888 
L 204.297351 188.22792 
L 204.297351 188.22792 
" style="fill:none;stroke:#000000;stroke-linecap:square;stroke-opacity:0.7;stroke-width:1.2;"/>
   </g>
   <g id="line2d_8">
    <path clip-path="url(#p58f4c5ec56)" d="M 204.144189 141.46456 
L 203.76478 142.540807 
L 201.843221 147.140015 
L 200.21035 151.204989 
L 200.264897 151.446233 
L 200.449671 151.385723 
L 200.95783 150.937701 
L 201.906244 149.795488 
L 203.506124 147.435292 
L 204.787658 145.186769 
L 205.633141 143.35043 
L 205.936759 142.283508 
L 205.896374 141.680685 
L 205.61593 141.270588 
L 205.005638 140.841656 
L 203.568565 140.173843 
L 201.912669 139.620976 
L 201.125668 139.534787 
L 201.058174 139.660921 
L 201.279732 139.948275 
L 202.104166 140.556778 
L 203.309633 141.210115 
L 204.736882 141.744922 
L 205.681941 141.876319 
L 205.995816 141.735463 
L 205.88696 141.624393 
L 205.291017 141.487965 
L 204.371882 141.440827 
L 204.371882 141.440827 
" style="fill:none;stroke:#000000;stroke-linecap:square;stroke-opacity:0.7;stroke-width:1.2;"/>
   </g>
   <g id="line2d_9">
    <path clip-path="url(#p58f4c5ec56)" d="M 204.200592 94.401235 
L 203.864565 94.395943 
L 203.268204 94.323707 
L 203.508748 94.436 
L 203.809049 94.896275 
L 204.341701 95.761549 
L 204.602564 95.824668 
L 205.042721 95.650583 
L 205.596587 95.206751 
L 206.365363 94.308315 
L 206.803806 93.497597 
L 206.822851 93.095267 
L 206.5984 92.8675 
L 205.969101 92.629916 
L 203.568319 92.036395 
L 202.164967 91.836319 
L 202.119953 91.979112 
L 202.418376 92.441259 
L 203.370307 93.566336 
L 204.335723 94.463929 
L 204.335723 94.463929 
" style="fill:none;stroke:#000000;stroke-linecap:square;stroke-opacity:0.7;stroke-width:1.2;"/>
   </g>
   <g id="line2d_10">
    <path clip-path="url(#p58f4c5ec56)" d="M 204.246098 47.52685 
L 204.385127 47.575889 
L 205.248835 47.59591 
L 205.744792 47.440192 
L 205.711116 47.302444 
L 205.396183 47.075825 
L 204.481103 46.713538 
L 204.121723 46.723257 
L 204.060758 46.935998 
L 204.114202 48.542743 
L 204.285216 49.137345 
L 204.482631 49.246633 
L 204.850807 49.182441 
L 205.428339 48.841539 
L 206.053069 48.23961 
L 206.431784 47.600867 
L 206.397303 47.359906 
L 206.154069 47.297368 
L 205.23357 47.401573 
L 204.328046 47.577268 
L 204.328046 47.577268 
" style="fill:none;stroke:#000000;stroke-linecap:square;stroke-opacity:0.7;stroke-width:1.2;"/>
   </g>
   <g id="line2d_11">
    <path clip-path="url(#p58f4c5ec56)" d="M 360.539253 235.051037 
L 359.946574 235.438571 
L 358.718865 236.306796 
L 358.711046 236.49742 
L 359.34393 237.41329 
L 359.612672 238.275955 
L 359.928805 238.245267 
L 360.599428 237.928389 
L 361.602978 237.199708 
L 362.340395 236.389019 
L 362.412608 236.029631 
L 362.230577 235.340649 
L 361.571686 233.762616 
L 361.426016 233.764129 
L 361.079411 234.304608 
L 360.664068 235.120768 
L 360.664068 235.120768 
" style="fill:none;stroke:#000000;stroke-linecap:square;stroke-opacity:0.7;stroke-width:1.2;"/>
   </g>
   <g id="line2d_12">
    <path clip-path="url(#p58f4c5ec56)" d="M 360.572668 188.243044 
L 360.306551 188.904119 
L 359.908985 190.0875 
L 359.998893 190.38268 
L 360.265622 190.436832 
L 361.062267 190.276843 
L 361.34289 189.969096 
L 361.579505 189.398898 
L 361.657793 188.640625 
L 361.464507 187.840707 
L 361.244507 187.151867 
L 361.186083 187.251979 
L 360.672476 188.287372 
L 360.672476 188.287372 
" style="fill:none;stroke:#000000;stroke-linecap:square;stroke-opacity:0.7;stroke-width:1.2;"/>
   </g>
   <g id="line2d_13">
    <path clip-path="url(#p58f4c5ec56)" d="M 360.553124 141.335385 
L 360.865292 141.242495 
L 362.813118 140.455055 
L 363.188651 140.13644 
L 363.119352 139.952576 
L 362.737462 139.729452 
L 361.694734 139.397964 
L 360.518278 139.234382 
L 360.397085 139.330626 
L 360.408937 139.367247 
L 360.652186 139.558714 
L 361.112417 139.662643 
L 361.63892 139.572586 
L 361.733741 139.448285 
L 361.704208 139.416323 
L 361.432873 139.339749 
L 359.973774 139.252927 
L 358.773107 139.354866 
L 358.74104 139.520028 
L 359.00844 139.88798 
L 360.202055 141.092986 
L 360.65109 141.422565 
L 360.65109 141.422565 
" style="fill:none;stroke:#000000;stroke-linecap:square;stroke-opacity:0.7;stroke-width:1.2;"/>
   </g>
   <g id="line2d_14">
    <path clip-path="url(#p58f4c5ec56)" d="M 360.552893 94.516568 
L 360.757591 94.719529 
L 361.497394 95.166313 
L 362.206799 95.368402 
L 362.505013 95.260448 
L 362.580163 95.004662 
L 362.465918 94.328515 
L 361.852138 92.479326 
L 361.467638 91.821858 
L 361.181887 91.760364 
L 360.59901 91.927465 
L 359.118339 92.611371 
L 358.353827 93.132984 
L 358.273661 93.399869 
L 358.493132 93.640606 
L 359.182346 94.006486 
L 360.525277 94.468797 
L 361.747061 94.673226 
L 362.103526 94.598248 
L 362.078369 94.567411 
L 361.705379 94.515003 
L 360.661779 94.539787 
L 360.661779 94.539787 
" style="fill:none;stroke:#000000;stroke-linecap:square;stroke-opacity:0.7;stroke-width:1.2;"/>
   </g>
   <g id="line2d_15">
    <path clip-path="url(#p58f4c5ec56)" d="M 360.579325 47.631159 
L 360.526932 48.747985 
L 360.670336 49.462407 
L 360.886722 49.599737 
L 361.124515 49.484091 
L 361.406814 49.092249 
L 361.874902 48.019818 
L 362.428999 46.214241 
L 362.517342 45.375213 
L 362.398289 45.085839 
L 361.972159 44.815555 
L 360.833419 44.500265 
L 357.798456 43.930328 
L 356.857183 43.915636 
L 356.770249 44.085778 
L 356.881952 44.453521 
L 357.423683 45.383315 
L 358.255533 46.447718 
L 358.930033 46.996188 
L 360.228189 47.513761 
L 360.731152 47.684961 
L 360.731152 47.684961 
" style="fill:none;stroke:#000000;stroke-linecap:square;stroke-opacity:0.7;stroke-width:1.2;"/>
   </g>
   <g id="line2d_16">
    <path clip-path="url(#p58f4c5ec56)" d="M 516.918485 235.132143 
L 516.550704 235.430908 
L 515.580242 236.255819 
L 515.662242 236.395049 
L 515.960023 236.747937 
L 516.199136 237.441526 
L 516.495784 238.355778 
L 516.758942 238.458067 
L 517.218815 238.282574 
L 517.880919 237.776219 
L 518.727983 236.871664 
L 519.461815 235.758729 
L 519.624786 235.138232 
L 519.500977 234.840466 
L 519.028924 234.464941 
L 517.134088 233.392756 
L 516.12784 232.920375 
L 516.117046 232.955595 
L 516.257969 233.373256 
L 517.006269 235.165379 
L 517.006269 235.165379 
" style="fill:none;stroke:#000000;stroke-linecap:square;stroke-opacity:0.7;stroke-width:1.2;"/>
   </g>
   <g id="line2d_17">
    <path clip-path="url(#p58f4c5ec56)" d="M 516.808712 188.21343 
L 516.469964 189.028389 
L 516.372542 189.672231 
L 516.521157 189.844326 
L 516.742082 189.786819 
L 516.917083 189.561556 
L 517.0731 188.945823 
L 517.061666 188.044182 
L 516.870542 187.384896 
L 516.658181 187.319578 
L 516.270663 187.593038 
L 515.279099 188.641378 
L 514.748295 189.444642 
L 514.674517 189.890122 
L 514.838375 190.133796 
L 515.239258 190.323243 
L 516.20779 190.470382 
L 517.696704 190.428097 
L 519.205655 190.1481 
L 520.195505 189.73828 
L 520.505049 189.387337 
L 520.432724 189.157259 
L 519.9718 188.885104 
L 518.325541 188.475261 
L 516.906126 188.26917 
L 516.906126 188.26917 
" style="fill:none;stroke:#000000;stroke-linecap:square;stroke-opacity:0.7;stroke-width:1.2;"/>
   </g>
   <g id="line2d_18">
    <path clip-path="url(#p58f4c5ec56)" d="M 516.890272 141.362345 
L 517.046624 141.407762 
L 518.097804 141.455869 
L 518.722646 141.310884 
L 518.799003 141.124977 
L 518.628824 140.854201 
L 517.869373 140.236135 
L 517.42162 140.000399 
L 517.720549 140.010097 
L 517.882447 139.716989 
L 517.765645 139.598719 
L 517.118338 139.541287 
L 515.204888 139.60905 
L 515.088332 139.741199 
L 515.382961 140.06738 
L 516.958147 141.397341 
L 516.990385 141.412719 
L 516.990385 141.412719 
" style="fill:none;stroke:#000000;stroke-linecap:square;stroke-opacity:0.7;stroke-width:1.2;"/>
   </g>
   <g id="line2d_19">
    <path clip-path="url(#p58f4c5ec56)" d="M 516.902004 94.537335 
L 516.707787 95.244512 
L 515.545373 98.360372 
L 514.083925 102.340902 
L 514.196382 102.451897 
L 514.519186 102.314687 
L 515.320445 101.716023 
L 516.925708 100.232385 
L 518.66209 98.345658 
L 519.656681 96.937759 
L 519.83116 96.417264 
L 519.763994 95.861989 
L 519.445655 95.244452 
L 518.636673 94.149921 
L 516.909674 92.218515 
L 515.649965 91.065285 
L 515.027472 90.745402 
L 514.803804 90.816147 
L 514.626909 91.134866 
L 514.520885 91.829044 
L 514.607149 92.6393 
L 514.828849 92.958057 
L 517.085093 94.588394 
L 517.085093 94.588394 
" style="fill:none;stroke:#000000;stroke-linecap:square;stroke-opacity:0.7;stroke-width:1.2;"/>
   </g>
   <g id="line2d_20">
    <path clip-path="url(#p58f4c5ec56)" d="M 516.885688 47.443017 
L 517.578352 47.005826 
L 519.3887 45.705694 
L 519.427326 45.494035 
L 519.192462 45.403098 
L 518.520937 45.392498 
L 517.076797 45.592321 
L 515.737079 45.957538 
L 515.206237 46.249692 
L 515.123686 46.521757 
L 515.38545 46.817906 
L 516.161568 47.266383 
L 517.563139 47.826428 
L 518.862189 48.13542 
L 519.164592 48.05506 
L 519.114368 47.841351 
L 518.674225 47.291122 
L 517.45359 46.128231 
L 516.897711 45.815467 
L 516.857788 46.017512 
L 516.931693 47.51224 
L 516.931693 47.51224 
" style="fill:none;stroke:#000000;stroke-linecap:square;stroke-opacity:0.7;stroke-width:1.2;"/>
   </g>
   <g id="line2d_21">
    <path clip-path="url(#p58f4c5ec56)" d="M 673.145487 235.139865 
L 672.776476 235.936332 
L 670.984786 239.097288 
L 668.207248 244.012188 
L 668.28125 244.130973 
L 668.300712 244.129713 
L 668.637477 243.958461 
L 669.563328 243.158006 
L 671.011582 241.625128 
L 673.270294 238.850222 
L 674.458133 237.119787 
L 675.057684 235.810652 
L 675.061142 235.406959 
L 674.765984 234.905262 
L 674.223284 234.471194 
L 672.935243 233.73242 
L 670.799043 232.773296 
L 669.756159 232.481224 
L 669.533677 232.558983 
L 669.620454 232.814329 
L 670.17798 233.403132 
L 671.334133 234.251283 
L 672.592262 234.892419 
L 673.467463 235.113105 
L 673.978224 235.023003 
L 673.362916 235.195344 
L 673.362916 235.195344 
" style="fill:none;stroke:#000000;stroke-linecap:square;stroke-opacity:0.7;stroke-width:1.2;"/>
   </g>
   <g id="line2d_22">
    <path clip-path="url(#p58f4c5ec56)" d="M 673.167565 188.28328 
L 672.636053 189.060605 
L 671.171907 191.229453 
L 671.156418 191.526802 
L 671.353409 191.489302 
L 671.805008 191.141319 
L 672.550967 190.281427 
L 673.602602 188.735274 
L 674.428534 187.153536 
L 674.606569 186.546673 
L 674.55387 186.162919 
L 674.230336 185.918179 
L 673.539706 185.766374 
L 671.99974 185.667618 
L 669.777619 185.742171 
L 669.102889 185.942874 
L 669.036184 186.092599 
L 669.230335 186.417259 
L 669.881459 186.943069 
L 671.196691 187.715385 
L 672.772108 188.401513 
L 673.933106 188.689895 
L 674.339803 188.599495 
L 674.245057 188.505293 
L 673.768733 188.388759 
L 673.315517 188.342202 
L 673.315517 188.342202 
" style="fill:none;stroke:#000000;stroke-linecap:square;stroke-opacity:0.7;stroke-width:1.2;"/>
   </g>
   <g id="line2d_23">
    <path clip-path="url(#p58f4c5ec56)" d="M 673.163115 141.314976 
L 673.25757 141.38751 
L 673.782471 141.438688 
L 674.21141 141.319322 
L 674.282736 141.116488 
L 674.142976 140.663077 
L 673.610861 139.747639 
L 673.362677 139.650083 
L 672.997461 139.920107 
L 671.842754 141.103995 
L 671.554163 141.637907 
L 671.616992 141.855597 
L 671.983997 142.068829 
L 672.691062 142.214217 
L 673.896425 142.241699 
L 675.023537 142.055494 
L 675.477373 141.799313 
L 675.458492 141.671636 
L 675.270625 141.574482 
L 674.802747 141.478134 
L 673.257757 141.372811 
L 673.257757 141.372811 
" style="fill:none;stroke:#000000;stroke-linecap:square;stroke-opacity:0.7;stroke-width:1.2;"/>
   </g>
   <g id="line2d_24">
    <path clip-path="url(#p58f4c5ec56)" d="M 673.223283 94.549954 
L 672.738342 97.354795 
L 672.90823 97.47554 
L 673.126122 97.394897 
L 673.615668 96.915241 
L 674.336754 95.84246 
L 674.858368 94.680494 
L 674.816149 94.309538 
L 674.408982 93.594064 
L 673.336223 92.14912 
L 673.013486 91.968848 
L 672.78311 92.124999 
L 672.246544 92.823343 
L 672.380766 93.008915 
L 672.856486 93.709122 
L 673.328583 94.580478 
L 673.328583 94.580478 
" style="fill:none;stroke:#000000;stroke-linecap:square;stroke-opacity:0.7;stroke-width:1.2;"/>
   </g>
   <g id="line2d_25">
    <path clip-path="url(#p58f4c5ec56)" d="M 673.261334 47.53733 
L 673.411418 47.573347 
L 674.378175 47.514417 
L 674.667817 47.404078 
L 673.674792 47.67905 
L 673.004661 48.157752 
L 672.865058 48.488904 
L 673.031569 48.636863 
L 673.483743 48.691403 
L 674.354822 48.55253 
L 675.231329 48.198539 
L 675.475644 47.91486 
L 675.393241 47.685662 
L 674.786811 47.087699 
L 672.902103 45.599395 
L 672.72822 45.559442 
L 672.719558 45.604285 
L 672.853243 46.167416 
L 673.351593 47.547497 
L 673.351593 47.547497 
" style="fill:none;stroke:#000000;stroke-linecap:square;stroke-opacity:0.7;stroke-width:1.2;"/>
   </g>
  </g>
 </g>
 <defs>
  <clipPath id="p58f4c5ec56">
   <rect height="262.08" width="694.08" x="12.96" y="12.96"/>
  </clipPath>
 </defs>
</svg>
