<?xml version="1.0" encoding="utf-8" standalone="no"?>
<!DOCTYPE svg PUBLIC "-//W3C//DTD SVG 1.1//EN"
  "http://www.w3.org/Graphics/SVG/1.1/DTD/svg11.dtd">
<!-- Created with matplotlib (https://matplotlib.org/) -->
<svg height="288pt" version="1.1" viewBox="0 0 720 288" width="720pt" xmlns="http://www.w3.org/2000/svg" xmlns:xlink="http://www.w3.org/1999/xlink">
 <metadata>
  <rdf:RDF xmlns:cc="http://creativecommons.org/ns#" xmlns:dc="http://purl.org/dc/elements/1.1/" xmlns:rdf="http://www.w3.org/1999/02/22-rdf-syntax-ns#">
   <cc:Work>
    <dc:type rdf:resource="http://purl.org/dc/dcmitype/StillImage"/>
    <dc:date>2020-12-21T15:23:15.284571</dc:date>
    <dc:format>image/svg+xml</dc:format>
    <dc:creator>
     <cc:Agent>
      <dc:title>Matplotlib v3.3.2, https://matplotlib.org/</dc:title>
     </cc:Agent>
    </dc:creator>
   </cc:Work>
  </rdf:RDF>
 </metadata>
 <defs>
  <style type="text/css">*{stroke-linecap:butt;stroke-linejoin:round;}</style>
 </defs>
 <g id="figure_1">
  <g id="patch_1">
   <path d="M 0 288 
L 720 288 
L 720 0 
L 0 0 
z
" style="fill:#ffffff;"/>
  </g>
  <g id="axes_1">
   <g id="line2d_1">
    <path clip-path="url(#pb9e47719e4)" d="M 62.513025 235.054915 
L 62.491093 235.070177 
L 62.42967 235.074482 
L 57.318525 235.176086 
L 53.633271 235.465412 
L 53.019701 235.319319 
L 52.337224 234.841609 
L 51.765303 234.452058 
L 50.769849 233.850448 
L 50.552516 233.394691 
L 50.439965 233.059907 
L 50.400401 233.074214 
L 49.827197 233.493275 
L 48.057379 235.027973 
L 47.830419 235.471431 
L 47.923944 235.755693 
L 48.269671 235.980796 
L 48.873677 236.153021 
L 50.485613 236.31922 
L 52.803323 236.312296 
L 56.752576 236.005345 
L 60.323579 235.490443 
L 62.613086 234.974468 
L 62.613086 234.974468 
" style="fill:none;stroke:#000000;stroke-linecap:square;stroke-opacity:0.7;stroke-width:1.2;"/>
   </g>
   <g id="line2d_2">
    <path clip-path="url(#pb9e47719e4)" d="M 62.05815 189.124085 
L 61.63588 188.816594 
L 60.709102 188.361456 
L 58.959508 187.79461 
L 56.662579 187.412763 
L 55.106654 187.34474 
L 52.731017 187.488286 
L 50.247327 187.860321 
L 50.328548 187.878187 
L 50.644702 188.053827 
L 50.909234 188.11292 
L 51.347096 187.94624 
L 50.991024 188.208265 
L 49.439721 189.466128 
L 48.828675 190.213429 
L 48.760779 190.57916 
L 48.921032 190.811413 
L 49.2776 190.976576 
L 50.130132 191.106151 
L 51.830846 191.08854 
L 54.442964 190.813806 
L 57.834413 190.220484 
L 60.897582 189.466799 
L 62.047309 189.07193 
L 62.047309 189.07193 
" style="fill:none;stroke:#000000;stroke-linecap:square;stroke-opacity:0.7;stroke-width:1.2;"/>
   </g>
   <g id="line2d_3">
    <path clip-path="url(#pb9e47719e4)" d="M 61.77055 142.766701 
L 61.465196 142.700006 
L 59.37216 142.29056 
L 57.12441 142.058825 
L 53.838479 142.031102 
L 49.539797 142.068244 
L 47.569831 141.985403 
L 47.359392 142.287328 
L 47.259013 142.793855 
L 47.379568 143.216667 
L 47.647298 143.333249 
L 47.947125 143.23875 
L 47.73526 143.424618 
L 47.190891 144.10766 
L 46.955786 144.701478 
L 47.019137 145.113762 
L 47.270416 145.365223 
L 47.773357 145.553703 
L 48.735004 145.652652 
L 50.190352 145.592435 
L 52.530001 145.283258 
L 55.235759 144.751255 
L 59.003886 143.777502 
L 61.637055 142.875105 
L 62.088727 142.668278 
L 62.088727 142.668278 
" style="fill:none;stroke:#000000;stroke-linecap:square;stroke-opacity:0.7;stroke-width:1.2;"/>
   </g>
   <g id="line2d_4">
    <path clip-path="url(#pb9e47719e4)" d="M 62.653679 97.246419 
L 61.981222 97.025949 
L 59.804614 96.370389 
L 58.098576 96.064247 
L 56.384554 96.012982 
L 53.362542 96.118256 
L 52.338694 95.96273 
L 51.030142 96.024676 
L 44.587302 96.760093 
L 44.509091 97.117106 
L 44.724111 97.823297 
L 45.428606 99.059805 
L 46.481377 100.399823 
L 47.549816 101.430401 
L 48.778343 102.286493 
L 49.912193 102.791313 
L 51.070384 103.047254 
L 52.081761 103.080988 
L 53.460612 102.891969 
L 54.966836 102.445046 
L 56.865138 101.617735 
L 58.893648 100.478425 
L 60.859171 99.131002 
L 62.457035 97.766311 
L 63.02937 97.126152 
L 63.02937 97.126152 
" style="fill:none;stroke:#000000;stroke-linecap:square;stroke-opacity:0.7;stroke-width:1.2;"/>
   </g>
   <g id="line2d_5">
    <path clip-path="url(#pb9e47719e4)" d="M 62.227468 51.055934 
L 58.890952 50.430308 
L 56.850445 50.363364 
L 54.44536 50.515133 
L 52.084205 50.641652 
L 51.524074 50.561612 
L 50.855597 50.227558 
L 50.192731 49.670947 
L 49.555475 49.976031 
L 48.450249 50.657213 
L 48.13941 51.299692 
L 47.948486 52.191079 
L 47.93391 53.276432 
L 48.178364 54.351236 
L 48.546583 55.002513 
L 49.072724 55.470039 
L 49.715422 55.729525 
L 50.529207 55.815525 
L 51.702343 55.695412 
L 53.302489 55.29588 
L 55.544097 54.500808 
L 58.590399 53.158011 
L 61.141976 51.818746 
L 62.475132 50.961071 
L 62.475132 50.961071 
" style="fill:none;stroke:#000000;stroke-linecap:square;stroke-opacity:0.7;stroke-width:1.2;"/>
   </g>
   <g id="line2d_6">
    <path clip-path="url(#pb9e47719e4)" d="M 214.55841 234.554808 
L 213.924178 234.452051 
L 210.958424 234.023804 
L 209.198189 233.939775 
L 207.371433 234.067198 
L 205.568727 234.457559 
L 204.606913 234.613573 
L 204.647377 234.445901 
L 204.941693 234.031187 
L 204.878871 233.989085 
L 203.57334 233.286031 
L 203.187626 233.42871 
L 202.855509 233.770621 
L 202.534383 234.45397 
L 202.398511 235.301037 
L 202.514557 236.274126 
L 202.86035 237.049712 
L 203.393673 237.649089 
L 204.121612 238.079393 
L 204.889318 238.293348 
L 206.069126 238.348108 
L 207.375697 238.165582 
L 208.940723 237.723948 
L 210.96809 236.884272 
L 213.019139 235.750717 
L 214.471819 234.687499 
L 214.897607 234.248316 
L 214.897607 234.248316 
" style="fill:none;stroke:#000000;stroke-linecap:square;stroke-opacity:0.7;stroke-width:1.2;"/>
   </g>
   <g id="line2d_7">
    <path clip-path="url(#pb9e47719e4)" d="M 213.998519 189.296186 
L 213.688996 189.577691 
L 212.825042 190.072939 
L 211.21365 190.699609 
L 209.190488 191.24176 
L 207.325369 191.574961 
L 204.11165 191.766957 
L 202.567927 191.626752 
L 201.054386 191.255848 
L 199.908597 190.723691 
L 199.112705 190.107483 
L 198.609391 189.433553 
L 198.527236 189.073695 
L 198.655688 189.064598 
L 199.32086 189.538332 
L 200.36236 190.141043 
L 201.422952 190.452955 
L 202.343131 190.478132 
L 202.574176 190.367233 
L 202.550684 190.337307 
L 202.212202 190.245536 
L 201.253495 190.219761 
L 200.097113 190.39702 
L 199.909819 190.568749 
L 200.101242 190.700353 
L 200.83826 190.850254 
L 202.476252 190.935502 
L 204.625349 190.870047 
L 207.998132 190.542792 
L 211.792753 189.89684 
L 214.198932 189.254033 
L 214.579627 189.105701 
L 214.579627 189.105701 
" style="fill:none;stroke:#000000;stroke-linecap:square;stroke-opacity:0.7;stroke-width:1.2;"/>
   </g>
   <g id="line2d_8">
    <path clip-path="url(#pb9e47719e4)" d="M 215.152963 142.53272 
L 214.762762 142.304407 
L 213.897139 142.005036 
L 212.172616 141.675716 
L 210.972635 141.576526 
L 209.29829 141.584493 
L 207.331012 141.799317 
L 204.638667 142.445371 
L 202.655572 143.179153 
L 201.499307 143.756899 
L 201.786232 143.69086 
L 202.786512 143.224998 
L 203.226529 142.7868 
L 203.423402 142.270935 
L 203.391762 141.829579 
L 203.223367 141.642799 
L 202.964931 141.646009 
L 202.519365 141.924354 
L 201.911955 142.604945 
L 201.334979 143.539245 
L 200.848142 144.764956 
L 200.728153 145.682724 
L 200.882799 146.294591 
L 201.19028 146.641303 
L 201.723282 146.872344 
L 202.538607 146.949531 
L 203.822489 146.817679 
L 205.543226 146.42904 
L 208.047515 145.646794 
L 211.49773 144.305996 
L 214.449081 142.913823 
L 215.379098 142.370322 
L 215.379098 142.370322 
" style="fill:none;stroke:#000000;stroke-linecap:square;stroke-opacity:0.7;stroke-width:1.2;"/>
   </g>
   <g id="line2d_9">
    <path clip-path="url(#pb9e47719e4)" d="M 215.465402 97.109037 
L 215.11014 97.116836 
L 212.064186 96.756533 
L 208.813562 96.521698 
L 204.258819 96.456074 
L 201.097112 96.319583 
L 199.068698 95.978999 
L 198.264011 95.893576 
L 197.996729 96.086374 
L 197.885833 96.491224 
L 197.933159 97.247834 
L 198.200292 98.181032 
L 198.678107 99.080649 
L 199.345406 99.800467 
L 200.041762 100.182365 
L 200.577227 100.281161 
L 201.329763 100.139745 
L 201.881299 99.751033 
L 202.235949 99.214857 
L 202.471528 98.377216 
L 202.689853 97.466816 
L 203.015529 97.154948 
L 203.546788 97.03498 
L 204.772521 97.063593 
L 210.225397 97.39478 
L 213.298542 97.333571 
L 215.271143 97.086042 
L 215.418384 97.048842 
L 215.418384 97.048842 
" style="fill:none;stroke:#000000;stroke-linecap:square;stroke-opacity:0.7;stroke-width:1.2;"/>
   </g>
   <g id="line2d_10">
    <path clip-path="url(#pb9e47719e4)" d="M 215.241209 51.872192 
L 214.769607 52.040901 
L 213.657177 52.272059 
L 204.924749 53.572696 
L 204.431521 53.497581 
L 204.353069 53.32734 
L 204.415628 51.575324 
L 203.952546 50.739309 
L 202.700665 49.137886 
L 202.544341 49.173576 
L 202.387414 49.504843 
L 202.310286 50.314929 
L 202.444597 51.511349 
L 202.689456 52.380529 
L 203.242835 53.514944 
L 203.919716 54.338527 
L 204.721066 54.927158 
L 205.668574 55.306539 
L 206.46497 55.451056 
L 207.917765 55.441346 
L 209.30548 55.201207 
L 211.057679 54.661499 
L 212.787986 53.900672 
L 214.494596 52.886553 
L 215.5248 52.028375 
L 215.849314 51.641253 
L 215.849314 51.641253 
" style="fill:none;stroke:#000000;stroke-linecap:square;stroke-opacity:0.7;stroke-width:1.2;"/>
   </g>
   <g id="line2d_11">
    <path clip-path="url(#pb9e47719e4)" d="M 368.932231 235.323842 
L 368.47891 235.50275 
L 367.351745 235.766249 
L 366.134016 235.963447 
L 359.887028 236.573578 
L 356.704752 236.653347 
L 355.279925 236.465101 
L 354.56816 236.147418 
L 354.266429 235.727554 
L 354.331614 235.521565 
L 354.66372 235.5372 
L 355.558668 235.568191 
L 356.649303 235.359043 
L 358.066379 235.052172 
L 360.859443 235.182725 
L 365.305786 235.370052 
L 368.035979 235.263034 
L 368.94413 235.121268 
L 368.94413 235.121268 
" style="fill:none;stroke:#000000;stroke-linecap:square;stroke-opacity:0.7;stroke-width:1.2;"/>
   </g>
   <g id="line2d_12">
    <path clip-path="url(#pb9e47719e4)" d="M 368.039569 188.614691 
L 367.565775 188.464637 
L 365.751746 188.013555 
L 363.670764 187.721327 
L 360.725538 187.625113 
L 356.21704 187.912651 
L 352.826291 188.089348 
L 351.569206 188.161355 
L 351.601076 188.396745 
L 351.992805 189.048241 
L 352.501193 189.529898 
L 352.908253 189.661378 
L 353.435751 189.577895 
L 354.005767 189.53537 
L 354.842019 189.808886 
L 356.343198 190.297553 
L 358.118812 190.605081 
L 360.032854 190.672178 
L 362.108336 190.512333 
L 364.009268 190.188734 
L 365.993322 189.662253 
L 367.763603 188.944404 
L 368.611106 188.374289 
L 368.611106 188.374289 
" style="fill:none;stroke:#000000;stroke-linecap:square;stroke-opacity:0.7;stroke-width:1.2;"/>
   </g>
   <g id="line2d_13">
    <path clip-path="url(#pb9e47719e4)" d="M 367.764006 143.461489 
L 367.521022 143.584601 
L 366.252211 143.897002 
L 362.400178 144.558231 
L 357.606455 145.277692 
L 356.620843 145.22512 
L 356.191524 144.955238 
L 356.057852 144.632885 
L 356.060654 143.734823 
L 356.278428 141.679714 
L 356.560221 141.489112 
L 356.675588 141.589264 
L 356.644229 141.863328 
L 356.289277 142.573648 
L 355.664358 143.731284 
L 355.787725 143.995331 
L 356.130264 144.173524 
L 357.043486 144.350155 
L 358.780117 144.435374 
L 361.53887 144.341685 
L 364.916636 144.003152 
L 367.719717 143.509749 
L 368.127164 143.401352 
L 368.127164 143.401352 
" style="fill:none;stroke:#000000;stroke-linecap:square;stroke-opacity:0.7;stroke-width:1.2;"/>
   </g>
   <g id="line2d_14">
    <path clip-path="url(#pb9e47719e4)" d="M 368.549977 96.910519 
L 367.357563 96.319583 
L 365.952174 95.838969 
L 364.75696 95.599107 
L 363.845794 95.535388 
L 362.465549 95.674288 
L 361.261064 96.06362 
L 360.016257 96.736995 
L 359.232158 97.258354 
L 359.233478 97.120367 
L 359.080054 96.920776 
L 358.296789 96.535997 
L 355.254142 95.350827 
L 354.80232 95.389858 
L 354.572723 95.586493 
L 354.445658 96.033482 
L 354.501468 96.683497 
L 354.836865 97.704446 
L 355.553262 98.96894 
L 356.329417 99.907449 
L 357.352637 100.769858 
L 358.304512 101.293267 
L 359.387683 101.626213 
L 360.574517 101.72398 
L 361.841032 101.574283 
L 363.194615 101.175795 
L 364.732582 100.469021 
L 366.394216 99.416395 
L 367.842047 98.192654 
L 368.737151 97.13773 
L 368.993367 96.715926 
L 368.993367 96.715926 
" style="fill:none;stroke:#000000;stroke-linecap:square;stroke-opacity:0.7;stroke-width:1.2;"/>
   </g>
   <g id="line2d_15">
    <path clip-path="url(#pb9e47719e4)" d="M 367.379748 51.354073 
L 367.266786 51.353139 
L 363.947807 50.592334 
L 361.49687 50.384915 
L 356.380817 50.170602 
L 355.732673 49.883013 
L 355.467689 49.533887 
L 355.517634 49.447683 
L 355.571533 49.460443 
L 356.189354 49.582125 
L 356.698278 49.674675 
L 356.653997 49.856195 
L 356.237165 50.4255 
L 354.607523 52.48403 
L 354.585414 52.883781 
L 354.820566 53.102485 
L 355.374861 53.249964 
L 356.534041 53.29605 
L 358.629676 53.143865 
L 361.714747 52.701801 
L 365.04267 52.024136 
L 367.598101 51.291025 
L 367.755974 51.226802 
L 367.755974 51.226802 
" style="fill:none;stroke:#000000;stroke-linecap:square;stroke-opacity:0.7;stroke-width:1.2;"/>
   </g>
   <g id="line2d_16">
    <path clip-path="url(#pb9e47719e4)" d="M 521.439093 234.571311 
L 520.923928 234.245413 
L 520.183634 233.951265 
L 518.616311 233.5853 
L 518.001905 233.501336 
L 515.116976 233.395092 
L 511.009224 233.675736 
L 508.218148 233.841256 
L 505.068535 233.925023 
L 504.874492 234.367985 
L 504.721232 235.328847 
L 504.820334 235.805412 
L 505.537764 236.418286 
L 506.94054 237.628282 
L 508.027305 238.301789 
L 509.092763 238.722893 
L 510.129313 238.91559 
L 511.386293 238.905354 
L 512.91387 238.632962 
L 514.783535 238.056222 
L 517.078611 237.12166 
L 519.73795 235.803799 
L 521.806358 234.547505 
L 521.988976 234.415785 
L 521.988976 234.415785 
" style="fill:none;stroke:#000000;stroke-linecap:square;stroke-opacity:0.7;stroke-width:1.2;"/>
   </g>
   <g id="line2d_17">
    <path clip-path="url(#pb9e47719e4)" d="M 520.565449 189.306582 
L 520.321078 189.37562 
L 519.543742 189.368266 
L 514.31648 188.913624 
L 511.329377 188.573136 
L 509.887237 188.178492 
L 508.849848 187.631227 
L 507.136742 186.505902 
L 506.771474 186.702523 
L 506.458384 187.10997 
L 506.461127 187.377635 
L 506.630025 187.984279 
L 506.955288 190.528537 
L 507.442479 191.579418 
L 507.940168 192.088565 
L 508.598255 192.428674 
L 509.500338 192.603708 
L 510.755169 192.579888 
L 512.520872 192.29556 
L 514.740115 191.724847 
L 517.769568 190.705927 
L 520.428858 189.577829 
L 521.307708 189.0975 
L 521.307708 189.0975 
" style="fill:none;stroke:#000000;stroke-linecap:square;stroke-opacity:0.7;stroke-width:1.2;"/>
   </g>
   <g id="line2d_18">
    <path clip-path="url(#pb9e47719e4)" d="M 520.487919 142.931959 
L 520.29103 142.850023 
L 519.361759 142.491945 
L 517.145872 141.919598 
L 515.005453 141.625012 
L 512.788814 141.546184 
L 509.985891 141.677387 
L 505.533189 142.065194 
L 505.198325 142.362771 
L 505.021081 142.866322 
L 504.992227 143.531074 
L 505.185591 144.42802 
L 505.563181 145.085601 
L 506.042055 145.47664 
L 506.570191 145.632108 
L 507.192046 145.556344 
L 507.719336 145.262408 
L 508.052311 144.862446 
L 508.197579 144.319003 
L 508.091411 143.806742 
L 507.726482 143.266816 
L 507.129173 142.802945 
L 506.747199 142.66277 
L 507.777667 143.055312 
L 509.496165 143.365086 
L 511.508799 143.549305 
L 514.253753 143.610434 
L 517.67886 143.438304 
L 520.485636 143.035986 
L 520.782443 142.962163 
L 520.782443 142.962163 
" style="fill:none;stroke:#000000;stroke-linecap:square;stroke-opacity:0.7;stroke-width:1.2;"/>
   </g>
   <g id="line2d_19">
    <path clip-path="url(#pb9e47719e4)" d="M 520.770208 97.06541 
L 520.463924 96.99182 
L 518.260374 96.413388 
L 515.881662 96.048876 
L 513.346228 95.920154 
L 510.694033 95.741275 
L 509.182965 95.399407 
L 507.84665 95.118486 
L 507.313994 95.253694 
L 506.828522 95.619484 
L 506.432543 96.164845 
L 506.178448 96.858699 
L 506.187093 97.415427 
L 506.38177 97.747183 
L 506.730729 97.925171 
L 507.985885 98.273357 
L 508.619434 98.686859 
L 509.424837 98.930208 
L 510.552624 99.039517 
L 512.124201 98.995474 
L 514.672814 98.690893 
L 517.506843 98.14284 
L 520.16485 97.417827 
L 521.100151 97.038241 
L 521.100151 97.038241 
" style="fill:none;stroke:#000000;stroke-linecap:square;stroke-opacity:0.7;stroke-width:1.2;"/>
   </g>
   <g id="line2d_20">
    <path clip-path="url(#pb9e47719e4)" d="M 520.954206 51.559543 
L 520.598236 51.650044 
L 518.226691 51.935021 
L 514.817287 52.37486 
L 512.37788 52.928057 
L 510.858098 53.521955 
L 510.468828 53.822027 
L 510.553729 53.828374 
L 511.038432 53.618701 
L 511.810954 53.057494 
L 512.295397 52.49199 
L 512.586937 51.824852 
L 512.663222 51.036543 
L 512.506456 49.461895 
L 512.326224 49.063363 
L 512.107024 49.133487 
L 511.220265 49.901945 
L 508.820965 52.281201 
L 508.662069 52.647063 
L 508.772315 52.938584 
L 509.12958 53.119579 
L 509.969731 53.251401 
L 511.659397 53.248804 
L 514.204278 53.014553 
L 517.467348 52.491924 
L 520.444598 51.796801 
L 521.042743 51.60962 
L 521.042743 51.60962 
" style="fill:none;stroke:#000000;stroke-linecap:square;stroke-opacity:0.7;stroke-width:1.2;"/>
   </g>
   <g id="line2d_21">
    <path clip-path="url(#pb9e47719e4)" d="M 674.453812 234.654902 
L 673.655419 234.273894 
L 672.258431 233.742657 
L 670.406426 233.280158 
L 668.56865 233.089622 
L 666.716506 233.145702 
L 663.145431 233.594296 
L 660.548576 233.963186 
L 659.930227 234.288828 
L 659.265847 234.901111 
L 658.537554 235.899101 
L 658.183857 236.710755 
L 658.29279 236.870169 
L 658.696501 236.729578 
L 659.507653 236.467953 
L 660.411296 236.408707 
L 663.108486 236.613885 
L 665.46514 236.648619 
L 667.770839 236.468085 
L 670.312824 236.051562 
L 672.761332 235.422711 
L 674.421482 234.774841 
L 674.696574 234.617294 
L 674.696574 234.617294 
" style="fill:none;stroke:#000000;stroke-linecap:square;stroke-opacity:0.7;stroke-width:1.2;"/>
   </g>
   <g id="line2d_22">
    <path clip-path="url(#pb9e47719e4)" d="M 674.24869 189.338486 
L 673.660566 189.42593 
L 669.930069 189.688918 
L 663.340006 190.039343 
L 662.981756 189.838206 
L 662.993896 189.664537 
L 663.497614 188.469933 
L 663.24585 188.094806 
L 662.447743 187.447329 
L 661.927741 187.22564 
L 661.63123 187.253341 
L 661.310906 187.506627 
L 661.066036 188.001263 
L 660.910068 188.823875 
L 660.941315 190.053314 
L 661.292678 191.535842 
L 661.798673 192.608698 
L 662.322352 193.319551 
L 663.25212 194.081567 
L 664.17203 194.455979 
L 665.31501 194.59056 
L 666.451971 194.478668 
L 668.007261 194.051254 
L 669.788854 193.2724 
L 671.243465 192.439756 
L 673.033542 191.145934 
L 674.249164 189.986925 
L 674.857756 189.145563 
L 674.857756 189.145563 
" style="fill:none;stroke:#000000;stroke-linecap:square;stroke-opacity:0.7;stroke-width:1.2;"/>
   </g>
   <g id="line2d_23">
    <path clip-path="url(#pb9e47719e4)" d="M 673.597411 142.923321 
L 672.582295 142.444284 
L 671.155624 141.958461 
L 669.518095 141.601112 
L 667.796898 141.487186 
L 666.275398 141.632067 
L 662.014973 142.321391 
L 660.76735 142.418764 
L 659.634624 142.674763 
L 657.342936 143.44274 
L 656.652544 143.824266 
L 656.610237 144.089917 
L 656.878384 144.671574 
L 657.654243 145.797796 
L 658.464493 146.644564 
L 659.445641 147.325921 
L 660.413135 147.704164 
L 661.498539 147.86457 
L 662.73581 147.804893 
L 664.299588 147.487509 
L 666.486632 146.767676 
L 668.807261 145.782359 
L 671.555385 144.392615 
L 673.928353 142.945062 
L 674.200536 142.740591 
L 674.200536 142.740591 
" style="fill:none;stroke:#000000;stroke-linecap:square;stroke-opacity:0.7;stroke-width:1.2;"/>
   </g>
   <g id="line2d_24">
    <path clip-path="url(#pb9e47719e4)" d="M 673.874961 97.220709 
L 673.62685 97.124635 
L 671.044345 95.889593 
L 669.059649 95.246435 
L 667.877025 95.071197 
L 666.508555 95.120332 
L 664.915471 95.47245 
L 663.894031 95.631886 
L 662.225059 95.721832 
L 655.221417 96.763398 
L 655.036045 97.042692 
L 655.048298 97.615477 
L 655.330736 98.55144 
L 656.039072 100.025118 
L 656.716883 101.069127 
L 657.545733 102.042436 
L 658.662953 102.938084 
L 659.656554 103.401487 
L 660.524001 103.595781 
L 661.702408 103.614633 
L 662.98377 103.4014 
L 664.589333 102.904452 
L 666.738054 101.983072 
L 669.40337 100.569239 
L 672.308792 98.739263 
L 674.196 97.298268 
L 674.41202 97.098955 
L 674.41202 97.098955 
" style="fill:none;stroke:#000000;stroke-linecap:square;stroke-opacity:0.7;stroke-width:1.2;"/>
   </g>
   <g id="line2d_25">
    <path clip-path="url(#pb9e47719e4)" d="M 675.188662 51.648191 
L 674.911591 51.553561 
L 673.930826 51.338686 
L 670.25539 50.920055 
L 667.362009 50.927103 
L 665.343418 51.175646 
L 663.829735 51.453197 
L 663.259383 50.999307 
L 660.889918 49.486823 
L 660.61645 49.601377 
L 660.309623 49.958383 
L 660.000902 50.69399 
L 659.787052 51.862592 
L 659.798269 53.163264 
L 659.990783 54.124061 
L 660.333136 54.918644 
L 660.776583 55.493487 
L 661.391178 55.93736 
L 662.081096 56.184525 
L 663.175795 56.28556 
L 664.344302 56.172998 
L 665.959652 55.808536 
L 668.006633 55.141303 
L 670.943711 53.930219 
L 673.742217 52.544014 
L 675.490909 51.499253 
L 675.490909 51.499253 
" style="fill:none;stroke:#000000;stroke-linecap:square;stroke-opacity:0.7;stroke-width:1.2;"/>
   </g>
  </g>
 </g>
 <defs>
  <clipPath id="pb9e47719e4">
   <rect height="262.08" width="694.08" x="12.96" y="12.96"/>
  </clipPath>
 </defs>
</svg>
