<?xml version="1.0" encoding="utf-8" standalone="no"?>
<!DOCTYPE svg PUBLIC "-//W3C//DTD SVG 1.1//EN"
  "http://www.w3.org/Graphics/SVG/1.1/DTD/svg11.dtd">
<!-- Created with matplotlib (https://matplotlib.org/) -->
<svg height="288pt" version="1.1" viewBox="0 0 720 288" width="720pt" xmlns="http://www.w3.org/2000/svg" xmlns:xlink="http://www.w3.org/1999/xlink">
 <metadata>
  <rdf:RDF xmlns:cc="http://creativecommons.org/ns#" xmlns:dc="http://purl.org/dc/elements/1.1/" xmlns:rdf="http://www.w3.org/1999/02/22-rdf-syntax-ns#">
   <cc:Work>
    <dc:type rdf:resource="http://purl.org/dc/dcmitype/StillImage"/>
    <dc:date>2020-12-21T16:22:17.506270</dc:date>
    <dc:format>image/svg+xml</dc:format>
    <dc:creator>
     <cc:Agent>
      <dc:title>Matplotlib v3.3.2, https://matplotlib.org/</dc:title>
     </cc:Agent>
    </dc:creator>
   </cc:Work>
  </rdf:RDF>
 </metadata>
 <defs>
  <style type="text/css">*{stroke-linecap:butt;stroke-linejoin:round;}</style>
 </defs>
 <g id="figure_1">
  <g id="patch_1">
   <path d="M 0 288 
L 720 288 
L 720 0 
L 0 0 
z
" style="fill:#ffffff;"/>
  </g>
  <g id="axes_1">
   <g id="line2d_1">
    <path clip-path="url(#pdbf94ed7fa)" d="M 47.225941 236.921452 
L 47.134887 236.740466 
L 46.429016 236.132645 
L 45.22366 235.379787 
L 45.119898 235.343474 
L 45.471657 235.388128 
L 46.253385 235.241583 
L 46.878676 234.963372 
L 47.411762 234.486943 
L 47.416582 234.411739 
L 47.301976 234.462061 
L 46.559443 235.115301 
L 44.717551 236.956717 
L 44.509091 237.409475 
L 44.640468 237.804424 
L 45.28158 238.672847 
L 47.104769 241.097031 
L 47.018016 240.685793 
L 47.141557 239.505662 
L 47.283385 237.512398 
L 47.159732 236.961308 
L 47.141067 236.948918 
L 47.141067 236.948918 
" style="fill:none;stroke:#000000;stroke-linecap:square;stroke-opacity:0.7;stroke-width:1.2;"/>
   </g>
   <g id="line2d_2">
    <path clip-path="url(#pdbf94ed7fa)" d="M 47.212802 190.094229 
L 47.181428 189.582728 
L 46.837996 188.500483 
L 46.627553 188.096056 
L 46.636161 188.285709 
L 46.623364 189.035901 
L 46.419598 189.981911 
L 46.039035 190.832336 
L 46.181844 190.814124 
L 47.911283 190.304947 
L 49.011978 189.830524 
L 48.98896 189.67719 
L 48.645164 189.367041 
L 47.544722 188.692327 
L 46.844086 188.458294 
L 46.764308 188.594893 
L 46.857352 189.099131 
L 47.082331 190.069102 
L 47.082331 190.069102 
" style="fill:none;stroke:#000000;stroke-linecap:square;stroke-opacity:0.7;stroke-width:1.2;"/>
   </g>
   <g id="line2d_3">
    <path clip-path="url(#pdbf94ed7fa)" d="M 47.269288 143.433464 
L 47.984347 142.751532 
L 48.10188 142.63743 
L 48.007068 142.880547 
L 47.473596 143.638092 
L 46.958499 144.164181 
L 47.316772 143.973495 
L 49.757089 142.477635 
L 50.322715 141.962658 
L 50.219421 141.8346 
L 49.601728 141.59825 
L 47.843574 141.16704 
L 46.871167 141.08995 
L 46.76713 141.231896 
L 46.784362 141.70756 
L 47.074235 143.380692 
L 47.074235 143.380692 
" style="fill:none;stroke:#000000;stroke-linecap:square;stroke-opacity:0.7;stroke-width:1.2;"/>
   </g>
   <g id="line2d_4">
    <path clip-path="url(#pdbf94ed7fa)" d="M 47.253742 96.816083 
L 48.092068 97.197537 
L 51.482503 98.584688 
L 51.485065 98.5602 
L 51.360224 98.234519 
L 50.867105 96.880569 
L 50.717612 96.445563 
L 50.294669 95.47707 
L 49.89865 94.578113 
L 48.752499 94.729879 
L 46.30179 95.21635 
L 46.313028 95.382756 
L 46.720114 96.114557 
L 47.094846 96.694072 
L 47.094846 96.694072 
" style="fill:none;stroke:#000000;stroke-linecap:square;stroke-opacity:0.7;stroke-width:1.2;"/>
   </g>
   <g id="line2d_5">
    <path clip-path="url(#pdbf94ed7fa)" d="M 47.292261 49.928327 
L 47.9177 49.646439 
L 52.174121 48.036337 
L 55.41735 46.906296 
L 54.464589 47.119027 
L 50.265033 48.324167 
L 47.240841 49.357457 
L 46.200583 49.912714 
L 45.961359 50.335309 
L 46.019724 51.030879 
L 46.78688 54.486638 
L 46.84702 54.360846 
L 47.814429 51.670052 
L 48.32388 49.631532 
L 48.260695 49.213297 
L 48.035686 49.314452 
L 47.144729 49.886013 
L 47.144729 49.886013 
" style="fill:none;stroke:#000000;stroke-linecap:square;stroke-opacity:0.7;stroke-width:1.2;"/>
   </g>
   <g id="line2d_6">
    <path clip-path="url(#pdbf94ed7fa)" d="M 203.037513 236.943519 
L 203.850734 237.08444 
L 206.178606 237.467335 
L 205.408212 237.433741 
L 203.995258 237.620728 
L 203.729272 237.685614 
L 203.884388 237.564256 
L 206.024241 235.781101 
L 206.43071 235.266406 
L 206.284671 235.127712 
L 205.576058 234.907101 
L 203.56202 234.542872 
L 202.609853 234.539203 
L 202.507776 234.725818 
L 202.544483 235.289817 
L 202.847577 236.880571 
L 202.847577 236.880571 
" style="fill:none;stroke:#000000;stroke-linecap:square;stroke-opacity:0.7;stroke-width:1.2;"/>
   </g>
   <g id="line2d_7">
    <path clip-path="url(#pdbf94ed7fa)" d="M 202.960215 190.23042 
L 202.875816 190.102778 
L 202.197723 189.666747 
L 200.550239 188.862944 
L 200.330014 188.794433 
L 201.086897 188.979333 
L 202.801675 189.131285 
L 204.191567 189.069636 
L 204.651826 188.881587 
L 204.575806 188.71412 
L 204.045527 188.333453 
L 202.940799 187.815646 
L 202.663791 187.871738 
L 202.575887 188.241999 
L 202.267564 190.116289 
L 201.865573 191.24962 
L 201.52321 191.645335 
L 201.389984 191.621032 
L 201.387748 191.581102 
L 201.575017 191.351421 
L 202.858473 190.207714 
L 202.858473 190.207714 
" style="fill:none;stroke:#000000;stroke-linecap:square;stroke-opacity:0.7;stroke-width:1.2;"/>
   </g>
   <g id="line2d_8">
    <path clip-path="url(#pdbf94ed7fa)" d="M 203.088287 143.437505 
L 203.371512 143.181442 
L 204.633926 142.373925 
L 205.276842 142.069331 
L 203.521963 142.885605 
L 201.423593 143.947454 
L 201.464192 144.108557 
L 201.894682 144.448535 
L 203.869362 145.687968 
L 203.879679 145.672467 
L 203.959673 145.272734 
L 203.984741 144.065217 
L 203.844628 142.958402 
L 203.602448 142.479113 
L 203.470134 142.560905 
L 202.916415 143.370472 
L 202.916415 143.370472 
" style="fill:none;stroke:#000000;stroke-linecap:square;stroke-opacity:0.7;stroke-width:1.2;"/>
   </g>
   <g id="line2d_9">
    <path clip-path="url(#pdbf94ed7fa)" d="M 203.044925 96.703052 
L 202.971341 96.189307 
L 202.520247 95.013973 
L 202.286304 94.695297 
L 202.265752 94.72266 
L 201.87335 95.570894 
L 201.246782 96.204964 
L 200.520581 96.654833 
L 200.084193 96.931752 
L 200.106862 96.95852 
L 200.576324 97.255486 
L 202.214405 98.332852 
L 202.611828 98.569276 
L 203.327192 97.527756 
L 203.644777 96.779095 
L 203.612987 96.411255 
L 203.414584 96.391803 
L 202.909611 96.67609 
L 202.909611 96.67609 
" style="fill:none;stroke:#000000;stroke-linecap:square;stroke-opacity:0.7;stroke-width:1.2;"/>
   </g>
   <g id="line2d_10">
    <path clip-path="url(#pdbf94ed7fa)" d="M 203.026186 49.982006 
L 202.98142 49.321234 
L 202.627352 48.088448 
L 202.405054 47.666054 
L 202.394099 47.797558 
L 202.376065 48.661858 
L 202.144305 49.255485 
L 202.04725 49.340307 
L 202.205381 49.344437 
L 203.532429 49.321211 
L 202.676886 49.429296 
L 202.88155 49.931253 
L 202.86108 49.938436 
" style="fill:none;stroke:#000000;stroke-linecap:square;stroke-opacity:0.7;stroke-width:1.2;"/>
   </g>
   <g id="line2d_11">
    <path clip-path="url(#pdbf94ed7fa)" d="M 358.740598 236.922454 
L 358.680161 236.735445 
L 358.202796 236.318726 
L 357.112195 235.682546 
L 356.869561 235.625637 
L 356.924168 235.719305 
L 357.552935 236.223995 
L 359.603041 237.598869 
L 359.750544 237.549409 
L 360.037446 236.693992 
L 360.859832 233.85952 
L 360.831771 233.854217 
L 360.482189 233.984354 
L 357.479596 235.226661 
L 357.090536 235.464972 
L 357.270453 235.734605 
L 358.155104 236.544239 
L 358.590927 236.894208 
L 358.590927 236.894208 
" style="fill:none;stroke:#000000;stroke-linecap:square;stroke-opacity:0.7;stroke-width:1.2;"/>
   </g>
   <g id="line2d_12">
    <path clip-path="url(#pdbf94ed7fa)" d="M 358.831674 190.292491 
L 361.906938 192.148837 
L 361.916898 192.128099 
L 361.90956 191.741402 
L 361.942248 190.30722 
L 361.95951 189.698233 
L 360.147766 188.206681 
L 359.549311 188.43729 
L 358.1509 188.844175 
L 357.583402 189.002648 
L 357.604653 189.057158 
L 357.785831 189.292112 
L 358.647034 190.185164 
L 358.647034 190.185164 
" style="fill:none;stroke:#000000;stroke-linecap:square;stroke-opacity:0.7;stroke-width:1.2;"/>
   </g>
   <g id="line2d_13">
    <path clip-path="url(#pdbf94ed7fa)" d="M 358.80062 143.458554 
L 358.935095 143.019864 
L 358.865551 142.425145 
L 358.835574 142.389137 
L 358.815735 142.547788 
L 358.669577 143.390964 
L 358.329977 144.148739 
L 358.241092 144.246025 
L 358.62776 143.90644 
L 360.712976 142.032372 
L 361.087916 141.498432 
L 360.929346 141.405982 
L 360.217072 141.338169 
L 358.522527 141.400909 
L 358.225264 141.572811 
L 358.24517 141.957807 
L 358.631325 143.412147 
L 358.631325 143.412147 
" style="fill:none;stroke:#000000;stroke-linecap:square;stroke-opacity:0.7;stroke-width:1.2;"/>
   </g>
   <g id="line2d_14">
    <path clip-path="url(#pdbf94ed7fa)" d="M 358.79955 96.801607 
L 359.14989 96.877836 
L 360.694898 96.992026 
L 360.778449 96.844456 
L 361.166439 95.703883 
L 361.804832 94.374808 
L 361.622643 94.383803 
L 359.954035 94.869828 
L 358.574891 95.440831 
L 358.440758 95.681475 
L 358.198414 97.466138 
L 357.961685 97.623296 
L 357.828681 97.541809 
L 357.834221 97.512693 
L 358.097169 97.269101 
L 358.660723 96.771058 
L 358.649857 96.763853 
" style="fill:none;stroke:#000000;stroke-linecap:square;stroke-opacity:0.7;stroke-width:1.2;"/>
   </g>
   <g id="line2d_15">
    <path clip-path="url(#pdbf94ed7fa)" d="M 358.809562 50.098729 
L 359.505882 50.565873 
L 362.620556 52.34599 
L 362.843144 52.314743 
L 365.013546 48.182087 
L 365.223573 47.768405 
L 365.204195 47.760807 
L 364.662322 47.729827 
L 361.269258 47.823324 
L 359.525342 48.019989 
L 359.224061 48.274128 
L 358.130482 49.917914 
L 357.498863 50.412325 
L 357.171013 50.448192 
L 357.167641 50.434949 
L 357.28914 50.364729 
L 358.630731 49.989485 
L 358.630731 49.989485 
" style="fill:none;stroke:#000000;stroke-linecap:square;stroke-opacity:0.7;stroke-width:1.2;"/>
   </g>
   <g id="line2d_16">
    <path clip-path="url(#pdbf94ed7fa)" d="M 514.592895 236.872215 
L 514.462045 236.524779 
L 513.887268 235.789257 
L 513.177089 235.183842 
L 513.060878 235.201675 
L 513.051326 235.253779 
L 513.150454 236.117515 
L 513.083888 237.028437 
L 512.81687 237.626543 
L 512.653138 237.74236 
L 512.942268 237.621664 
L 514.464132 237.012424 
L 514.587235 236.750916 
L 514.463679 236.549973 
L 514.205024 236.494074 
L 514.211738 236.526978 
L 514.455768 236.846493 
L 514.431718 236.852183 
" style="fill:none;stroke:#000000;stroke-linecap:square;stroke-opacity:0.7;stroke-width:1.2;"/>
   </g>
   <g id="line2d_17">
    <path clip-path="url(#pdbf94ed7fa)" d="M 514.588676 190.175493 
L 515.14111 189.457314 
L 515.342136 189.106395 
L 515.052515 189.403703 
L 514.111341 190.08522 
L 513.118768 190.664861 
L 513.277055 190.696859 
L 514.551382 190.640261 
L 515.176287 190.475661 
L 515.225219 190.217102 
L 515.115961 189.677777 
L 514.75731 189.041754 
L 514.386373 188.786864 
L 514.290351 188.874056 
L 514.322668 189.293026 
L 514.411976 190.125529 
L 514.411976 190.125529 
" style="fill:none;stroke:#000000;stroke-linecap:square;stroke-opacity:0.7;stroke-width:1.2;"/>
   </g>
   <g id="line2d_18">
    <path clip-path="url(#pdbf94ed7fa)" d="M 514.242674 143.495699 
L 514.199706 143.296769 
L 513.742113 142.776934 
L 512.593325 141.824685 
L 512.079751 141.513116 
L 512.501655 141.659349 
L 513.073148 141.684312 
L 513.931543 141.511051 
L 514.730132 141.087855 
L 515.046105 140.674634 
L 514.988839 140.654305 
L 514.940732 140.676989 
L 514.312492 141.178886 
L 512.534291 142.88126 
L 512.167388 143.475437 
L 512.221601 143.858904 
L 512.649336 144.669317 
L 513.959857 147.07933 
L 513.941021 147.096562 
L 513.875406 146.8899 
L 513.958765 146.289595 
L 514.494176 143.64777 
L 514.417301 143.483949 
L 514.417301 143.483949 
" style="fill:none;stroke:#000000;stroke-linecap:square;stroke-opacity:0.7;stroke-width:1.2;"/>
   </g>
   <g id="line2d_19">
    <path clip-path="url(#pdbf94ed7fa)" d="M 514.55858 96.788089 
L 515.111304 97.046299 
L 515.441567 97.201132 
L 517.398496 96.476187 
L 517.769462 96.22406 
L 517.601861 95.817717 
L 516.647955 94.023064 
L 513.533007 95.292059 
L 512.940649 95.540003 
L 512.94856 95.562583 
L 513.200582 95.825917 
L 514.36695 96.706996 
L 514.36695 96.706996 
" style="fill:none;stroke:#000000;stroke-linecap:square;stroke-opacity:0.7;stroke-width:1.2;"/>
   </g>
   <g id="line2d_20">
    <path clip-path="url(#pdbf94ed7fa)" d="M 514.613357 50.098402 
L 515.050005 50.255768 
L 518.561552 51.172826 
L 518.676767 51.153232 
L 518.640506 51.075288 
L 517.847711 50.248504 
L 516.040037 48.549718 
L 515.689445 48.850078 
L 513.853191 50.631503 
L 513.937961 50.674537 
L 514.565918 50.787948 
L 514.37619 50.693128 
L 514.287692 50.514438 
L 514.464852 50.032067 
L 514.435878 50.022292 
" style="fill:none;stroke:#000000;stroke-linecap:square;stroke-opacity:0.7;stroke-width:1.2;"/>
   </g>
   <g id="line2d_21">
    <path clip-path="url(#pdbf94ed7fa)" d="M 670.396511 236.996135 
L 670.902108 237.255392 
L 675.419212 239.143371 
L 675.490746 239.09989 
L 675.486772 239.052094 
L 674.570643 235.527713 
L 673.724503 235.674784 
L 670.056525 236.536945 
L 669.865045 236.73728 
L 669.966423 237.233079 
L 669.672866 237.21896 
L 669.460469 237.096027 
L 669.512038 237.057048 
L 670.220688 236.928471 
L 670.203137 236.921236 
" style="fill:none;stroke:#000000;stroke-linecap:square;stroke-opacity:0.7;stroke-width:1.2;"/>
   </g>
   <g id="line2d_22">
    <path clip-path="url(#pdbf94ed7fa)" d="M 670.345648 190.119743 
L 670.299991 189.652353 
L 669.942283 188.730564 
L 669.622299 188.265247 
L 669.608039 188.300787 
L 669.505183 189.356887 
L 669.158297 189.951866 
L 668.947274 190.109909 
L 669.138658 190.116148 
L 670.344779 190.052435 
L 670.420614 189.898723 
L 670.262334 189.684373 
L 669.885359 189.558321 
L 669.883487 189.573302 
L 670.050346 189.818246 
L 670.199371 190.114818 
L 670.173234 190.121295 
" style="fill:none;stroke:#000000;stroke-linecap:square;stroke-opacity:0.7;stroke-width:1.2;"/>
   </g>
   <g id="line2d_23">
    <path clip-path="url(#pdbf94ed7fa)" d="M 670.37945 143.469443 
L 670.399839 143.252241 
L 670.142306 143.014643 
L 670.009747 142.981509 
L 670.393228 143.011835 
L 670.999119 142.818423 
L 671.172892 142.579258 
L 671.001703 142.485167 
L 670.251408 142.41488 
L 669.946613 142.527682 
L 670.036553 142.836636 
L 670.154925 143.442719 
L 670.044047 143.707405 
L 669.785028 143.771816 
L 669.612703 143.675697 
L 669.644003 143.64514 
L 670.161357 143.491325 
L 670.210898 143.456475 
L 670.190376 143.447532 
" style="fill:none;stroke:#000000;stroke-linecap:square;stroke-opacity:0.7;stroke-width:1.2;"/>
   </g>
   <g id="line2d_24">
    <path clip-path="url(#pdbf94ed7fa)" d="M 670.351583 96.722497 
L 671.561202 95.837667 
L 671.771526 95.543762 
L 672.458962 94.504485 
L 672.912017 93.886094 
L 672.761098 93.943234 
L 671.636123 94.606375 
L 669.358698 96.144609 
L 668.934737 96.650814 
L 668.97864 96.97345 
L 669.632943 98.743659 
L 669.61485 98.7509 
L 669.46292 98.674041 
L 669.420346 98.467534 
L 669.618957 98.003004 
L 670.215325 96.744988 
L 670.184323 96.713733 
L 670.184323 96.713733 
" style="fill:none;stroke:#000000;stroke-linecap:square;stroke-opacity:0.7;stroke-width:1.2;"/>
   </g>
   <g id="line2d_25">
    <path clip-path="url(#pdbf94ed7fa)" d="M 670.420161 50.001495 
L 670.504418 49.490083 
L 670.384412 48.948596 
L 670.379852 48.950505 
L 669.958587 49.317215 
L 669.190168 49.479001 
L 668.936281 49.607964 
L 669.056198 51.000285 
L 668.927836 51.632305 
L 669.040705 51.622969 
L 669.916896 51.340917 
L 670.656214 50.924049 
L 670.702925 50.701945 
L 670.425516 50.234919 
L 670.286436 50.006665 
L 670.204087 49.984375 
L 670.204087 49.984375 
" style="fill:none;stroke:#000000;stroke-linecap:square;stroke-opacity:0.7;stroke-width:1.2;"/>
   </g>
  </g>
 </g>
 <defs>
  <clipPath id="pdbf94ed7fa">
   <rect height="262.08" width="694.08" x="12.96" y="12.96"/>
  </clipPath>
 </defs>
</svg>
