<?xml version="1.0" encoding="utf-8" standalone="no"?>
<!DOCTYPE svg PUBLIC "-//W3C//DTD SVG 1.1//EN"
  "http://www.w3.org/Graphics/SVG/1.1/DTD/svg11.dtd">
<!-- Created with matplotlib (https://matplotlib.org/) -->
<svg height="288pt" version="1.1" viewBox="0 0 720 288" width="720pt" xmlns="http://www.w3.org/2000/svg" xmlns:xlink="http://www.w3.org/1999/xlink">
 <metadata>
  <rdf:RDF xmlns:cc="http://creativecommons.org/ns#" xmlns:dc="http://purl.org/dc/elements/1.1/" xmlns:rdf="http://www.w3.org/1999/02/22-rdf-syntax-ns#">
   <cc:Work>
    <dc:type rdf:resource="http://purl.org/dc/dcmitype/StillImage"/>
    <dc:date>2020-12-21T16:36:54.874844</dc:date>
    <dc:format>image/svg+xml</dc:format>
    <dc:creator>
     <cc:Agent>
      <dc:title>Matplotlib v3.3.2, https://matplotlib.org/</dc:title>
     </cc:Agent>
    </dc:creator>
   </cc:Work>
  </rdf:RDF>
 </metadata>
 <defs>
  <style type="text/css">*{stroke-linecap:butt;stroke-linejoin:round;}</style>
 </defs>
 <g id="figure_1">
  <g id="patch_1">
   <path d="M 0 288 
L 720 288 
L 720 0 
L 0 0 
z
" style="fill:#ffffff;"/>
  </g>
  <g id="axes_1">
   <g id="line2d_1">
    <path clip-path="url(#pd87692e818)" d="M 45.369933 237.01895 
L 45.103826 236.616346 
L 44.729183 235.590085 
L 44.696386 235.535791 
L 44.664386 235.719761 
L 44.77348 236.21935 
L 45.159697 236.922398 
L 45.76135 237.588342 
L 46.606214 238.1371 
L 46.913561 238.193484 
L 46.884454 238.130472 
L 46.030351 237.25055 
L 45.477115 237.684077 
L 45.050492 238.25329 
L 45.090764 238.485857 
L 45.295934 238.501039 
L 45.382973 238.310686 
L 45.479317 237.058412 
L 45.479317 237.058412 
" style="fill:none;stroke:#000000;stroke-linecap:square;stroke-opacity:0.7;stroke-width:1.2;"/>
   </g>
   <g id="line2d_2">
    <path clip-path="url(#pd87692e818)" d="M 45.446007 190.192526 
L 45.407453 190.020003 
L 45.588805 189.754082 
L 45.666174 189.749492 
L 45.677785 189.817161 
L 45.779411 190.235335 
L 46.071843 190.383473 
L 46.220294 190.355586 
L 45.697364 190.493267 
L 44.518463 190.98262 
L 44.554845 191.188489 
L 44.936912 191.832401 
L 45.465281 192.375438 
L 46.116645 192.731782 
L 46.399586 192.706759 
L 46.420012 192.491777 
L 46.119591 191.663843 
L 45.535389 190.235744 
L 45.535389 190.235744 
" style="fill:none;stroke:#000000;stroke-linecap:square;stroke-opacity:0.7;stroke-width:1.2;"/>
   </g>
   <g id="line2d_3">
    <path clip-path="url(#pd87692e818)" d="M 45.429806 143.4491 
L 45.260289 143.522943 
L 45.14572 143.795953 
L 45.310082 144.064552 
L 46.205864 145.016048 
L 47.392433 145.989778 
L 47.6516 145.984682 
L 48.146919 145.24552 
L 48.84409 144.552246 
L 49.154955 144.280977 
L 49.115783 144.253588 
L 48.222762 144.014736 
L 45.952886 143.553419 
L 45.474794 143.525122 
L 45.511801 143.500114 
" style="fill:none;stroke:#000000;stroke-linecap:square;stroke-opacity:0.7;stroke-width:1.2;"/>
   </g>
   <g id="line2d_4">
    <path clip-path="url(#pd87692e818)" d="M 45.406018 96.618398 
L 45.244846 96.370657 
L 45.26978 96.345128 
L 45.337732 96.457532 
L 45.647726 96.913717 
L 46.297053 97.497643 
L 47.196903 98.001807 
L 47.25839 97.998273 
L 47.207116 97.909539 
L 46.937312 97.396591 
L 46.771588 97.016391 
L 45.757869 97.002094 
L 45.461755 96.730921 
L 45.484591 96.679461 
L 45.484591 96.679461 
" style="fill:none;stroke:#000000;stroke-linecap:square;stroke-opacity:0.7;stroke-width:1.2;"/>
   </g>
   <g id="line2d_5">
    <path clip-path="url(#pd87692e818)" d="M 45.438874 49.825016 
L 45.280849 49.52423 
L 45.10759 48.686507 
L 45.047695 48.192854 
L 44.967224 48.329806 
L 44.708117 49.217322 
L 44.607711 50.342114 
L 44.76198 51.036809 
L 45.046014 51.28365 
L 45.910062 51.552227 
L 47.688845 51.876206 
L 48.130591 51.811929 
L 48.064023 51.633567 
L 47.215596 50.200447 
L 47.102865 49.960635 
L 45.531089 49.887797 
L 45.531841 49.885543 
" style="fill:none;stroke:#000000;stroke-linecap:square;stroke-opacity:0.7;stroke-width:1.2;"/>
   </g>
   <g id="line2d_6">
    <path clip-path="url(#pd87692e818)" d="M 201.390546 237.006097 
L 201.458541 237.478036 
L 201.591312 239.190214 
L 201.390278 237.995261 
L 200.82828 237.13073 
L 200.403932 236.849909 
L 200.243483 236.924644 
L 200.061558 237.274212 
L 199.900513 238.1344 
L 199.956852 238.943313 
L 200.183431 239.264213 
L 200.454544 239.275319 
L 202.508033 239.05449 
L 204.620926 238.972666 
L 204.514064 238.870066 
L 203.071846 238.009514 
L 201.532496 237.039875 
L 201.532496 237.039875 
" style="fill:none;stroke:#000000;stroke-linecap:square;stroke-opacity:0.7;stroke-width:1.2;"/>
   </g>
   <g id="line2d_7">
    <path clip-path="url(#pd87692e818)" d="M 201.346427 190.197718 
L 201.021318 189.867892 
L 200.820127 189.376798 
L 200.974343 189.615182 
L 201.384431 189.881356 
L 202.175879 190.1299 
L 203.163772 190.242721 
L 203.961409 190.162526 
L 203.913541 190.137726 
L 202.849307 190.027828 
L 199.792669 189.873263 
L 199.641993 190.042542 
L 199.596901 190.537652 
L 199.765012 191.673067 
L 200.08577 192.691145 
L 200.627 193.674315 
L 201.077129 194.060049 
L 201.325927 194.04599 
L 201.471611 193.74202 
L 201.547559 193.00146 
L 201.513274 190.255307 
L 201.513274 190.255307 
" style="fill:none;stroke:#000000;stroke-linecap:square;stroke-opacity:0.7;stroke-width:1.2;"/>
   </g>
   <g id="line2d_8">
    <path clip-path="url(#pd87692e818)" d="M 201.347008 143.457677 
L 200.936823 142.947771 
L 200.517593 142.313269 
L 200.512513 142.508308 
L 200.74078 143.05746 
L 201.239446 143.787309 
L 202.290001 144.914839 
L 203.367164 145.762901 
L 203.980615 146.03307 
L 204.118384 145.896751 
L 204.592496 143.61475 
L 204.559997 143.608888 
L 203.499697 143.590039 
L 201.326924 143.614512 
L 201.439365 143.500895 
L 201.461197 143.492623 
L 201.461197 143.492623 
" style="fill:none;stroke:#000000;stroke-linecap:square;stroke-opacity:0.7;stroke-width:1.2;"/>
   </g>
   <g id="line2d_9">
    <path clip-path="url(#pd87692e818)" d="M 201.416417 96.65658 
L 201.050417 96.064516 
L 199.686186 93.645786 
L 199.647066 93.68382 
L 199.509936 94.077736 
L 199.463066 95.076333 
L 199.654758 96.552813 
L 200.026277 97.911436 
L 200.550412 99.061325 
L 200.991132 99.571343 
L 201.468933 99.72849 
L 202.581318 99.69001 
L 206.884212 99.494584 
L 207.534454 99.396574 
L 207.531932 99.381749 
L 207.338894 99.191589 
L 203.564413 96.538471 
L 201.510366 96.728794 
L 201.523264 96.72599 
" style="fill:none;stroke:#000000;stroke-linecap:square;stroke-opacity:0.7;stroke-width:1.2;"/>
   </g>
   <g id="line2d_10">
    <path clip-path="url(#pd87692e818)" d="M 201.422115 49.846974 
L 201.549932 50.284778 
L 201.837737 51.511902 
L 201.899373 51.438737 
L 201.942026 51.091542 
L 201.788144 50.332504 
L 201.469476 49.774166 
L 201.289478 49.769658 
L 201.02799 50.027597 
L 200.638879 50.69584 
L 200.532247 51.226507 
L 200.690845 51.353528 
L 201.526054 51.407681 
L 203.351588 51.381728 
L 203.277262 51.263447 
L 202.620965 50.744072 
L 201.542344 49.879823 
L 201.542344 49.879823 
" style="fill:none;stroke:#000000;stroke-linecap:square;stroke-opacity:0.7;stroke-width:1.2;"/>
   </g>
   <g id="line2d_11">
    <path clip-path="url(#pd87692e818)" d="M 357.356217 237.05746 
L 357.082091 236.624052 
L 356.663449 235.506126 
L 356.495828 235.07039 
L 356.444421 235.154349 
L 356.422216 235.608905 
L 356.598994 236.316483 
L 357.014594 237.1395 
L 357.714079 237.988106 
L 358.453427 238.485284 
L 358.734024 238.472281 
L 359.018861 238.305553 
L 359.417025 238.266471 
L 358.978537 238.203184 
L 358.052228 238.08259 
L 358.089711 237.979477 
L 357.485611 237.10224 
L 357.485611 237.10224 
" style="fill:none;stroke:#000000;stroke-linecap:square;stroke-opacity:0.7;stroke-width:1.2;"/>
   </g>
   <g id="line2d_12">
    <path clip-path="url(#pd87692e818)" d="M 357.385919 190.249743 
L 357.24321 189.813695 
L 357.110172 188.571098 
L 357.030951 187.813533 
L 356.966444 187.856178 
L 356.666945 188.32991 
L 356.315882 189.1977 
L 356.090018 190.24043 
L 356.149355 190.988786 
L 356.512387 191.596093 
L 357.17694 192.282865 
L 357.969496 192.815295 
L 358.595749 193.000656 
L 358.772645 192.853655 
L 359.252321 192.136876 
L 359.715706 191.92208 
L 359.998215 191.845054 
L 359.931893 191.775764 
L 359.003664 191.198784 
L 357.546897 190.281483 
L 357.546897 190.281483 
" style="fill:none;stroke:#000000;stroke-linecap:square;stroke-opacity:0.7;stroke-width:1.2;"/>
   </g>
   <g id="line2d_13">
    <path clip-path="url(#pd87692e818)" d="M 357.399576 143.429596 
L 357.421639 143.857224 
L 357.370521 145.309915 
L 357.482293 145.215513 
L 357.635803 144.754999 
L 357.547425 143.848581 
L 357.348183 143.647256 
L 357.197999 143.778911 
L 357.04655 144.25698 
L 357.087075 144.870341 
L 357.348339 145.224022 
L 357.643673 145.249038 
L 358.550983 144.847959 
L 359.97575 144.395597 
L 360.2891 144.302965 
L 360.164273 144.244401 
L 357.537978 143.456583 
L 357.537978 143.456583 
" style="fill:none;stroke:#000000;stroke-linecap:square;stroke-opacity:0.7;stroke-width:1.2;"/>
   </g>
   <g id="line2d_14">
    <path clip-path="url(#pd87692e818)" d="M 357.335032 96.633595 
L 357.097273 98.544078 
L 357.176137 98.993977 
L 357.407759 98.922046 
L 358.363919 98.279964 
L 359.804849 97.115644 
L 359.649659 97.043973 
L 357.790339 96.722479 
L 357.204984 96.721891 
L 357.062453 97.110266 
L 357.054048 97.601426 
L 357.257187 97.987502 
L 357.587489 98.105158 
L 357.690245 97.994666 
L 357.590479 97.438857 
L 357.470168 96.671487 
L 357.470168 96.671487 
" style="fill:none;stroke:#000000;stroke-linecap:square;stroke-opacity:0.7;stroke-width:1.2;"/>
   </g>
   <g id="line2d_15">
    <path clip-path="url(#pd87692e818)" d="M 357.437409 49.828906 
L 357.332354 49.617517 
L 357.37186 49.369054 
L 357.518593 50.447035 
L 357.858766 51.030702 
L 358.172688 51.19075 
L 358.64973 51.138345 
L 358.645676 51.114341 
L 358.547666 50.637277 
L 358.620192 50.434063 
L 358.595875 50.417876 
L 357.522446 49.875568 
L 357.522446 49.875568 
" style="fill:none;stroke:#000000;stroke-linecap:square;stroke-opacity:0.7;stroke-width:1.2;"/>
   </g>
   <g id="line2d_16">
    <path clip-path="url(#pd87692e818)" d="M 513.421833 237.057036 
L 513.182839 236.668609 
L 513.074385 236.406459 
L 513.039714 236.582136 
L 513.066084 237.454649 
L 513.283096 238.626624 
L 513.716653 239.832727 
L 514.003669 240.148531 
L 514.383802 240.174938 
L 515.955287 239.823719 
L 519.034635 239.252839 
L 519.44087 239.113292 
L 519.427845 239.077706 
L 519.049884 238.76031 
L 516.448226 236.757597 
L 516.060029 236.535734 
L 513.490632 237.113933 
L 513.512776 237.11679 
" style="fill:none;stroke:#000000;stroke-linecap:square;stroke-opacity:0.7;stroke-width:1.2;"/>
   </g>
   <g id="line2d_17">
    <path clip-path="url(#pd87692e818)" d="M 513.406517 190.199295 
L 513.333165 190.003147 
L 513.494307 189.766586 
L 513.611122 189.785822 
L 513.625731 189.818388 
L 513.848456 190.173855 
L 514.318045 190.499225 
L 515.077106 190.724732 
L 515.27213 190.722449 
L 514.78634 190.585505 
L 512.491038 189.89601 
L 512.023078 189.863258 
L 511.939514 190.125809 
L 511.963124 190.771037 
L 512.225846 191.801203 
L 512.568503 192.403868 
L 512.960277 192.683402 
L 513.197307 192.630737 
L 513.320252 192.340068 
L 513.420181 191.318798 
L 513.49421 190.259897 
L 513.49421 190.259897 
" style="fill:none;stroke:#000000;stroke-linecap:square;stroke-opacity:0.7;stroke-width:1.2;"/>
   </g>
   <g id="line2d_18">
    <path clip-path="url(#pd87692e818)" d="M 513.394436 143.423281 
L 513.386202 143.279776 
L 513.658245 143.147601 
L 513.877192 143.216623 
L 514.037537 143.40194 
L 514.354539 143.213343 
L 514.475423 143.012628 
L 514.439257 143.001693 
L 513.856825 143.078801 
L 511.160362 143.608776 
L 511.270207 144.014275 
L 511.762045 144.887561 
L 512.501884 145.771969 
L 513.196846 146.277218 
L 513.6713 146.365856 
L 513.835974 146.201486 
L 513.853849 145.718211 
L 513.583659 144.044795 
L 513.509385 143.460749 
L 513.509385 143.460749 
" style="fill:none;stroke:#000000;stroke-linecap:square;stroke-opacity:0.7;stroke-width:1.2;"/>
   </g>
   <g id="line2d_19">
    <path clip-path="url(#pd87692e818)" d="M 513.394868 96.663059 
L 513.18673 97.793631 
L 513.315216 97.919908 
L 513.909415 97.947885 
L 515.78542 97.923337 
L 515.742529 97.857424 
L 514.607041 96.92451 
L 513.87856 97.309931 
L 513.708879 97.507931 
L 513.725259 97.329101 
L 513.47879 96.701427 
L 513.47879 96.701427 
" style="fill:none;stroke:#000000;stroke-linecap:square;stroke-opacity:0.7;stroke-width:1.2;"/>
   </g>
   <g id="line2d_20">
    <path clip-path="url(#pd87692e818)" d="M 513.369116 49.819169 
L 513.240488 52.025684 
L 513.261733 52.025877 
L 513.56594 51.864847 
L 514.614316 50.970539 
L 514.90314 50.612514 
L 514.850058 50.595137 
L 514.423636 50.679104 
L 514.283538 50.793352 
L 514.353185 50.833186 
L 514.359404 50.827852 
L 514.217714 50.733732 
L 514.19333 50.63378 
L 514.234652 50.605625 
L 514.437412 50.522619 
L 514.335861 50.449832 
L 513.489137 49.869096 
L 513.490974 49.856183 
L 513.490974 49.856183 
" style="fill:none;stroke:#000000;stroke-linecap:square;stroke-opacity:0.7;stroke-width:1.2;"/>
   </g>
   <g id="line2d_21">
    <path clip-path="url(#pd87692e818)" d="M 669.3371 237.005687 
L 668.695212 236.483962 
L 667.150565 235.133618 
L 667.133472 235.176204 
L 667.221433 235.534125 
L 667.619522 236.170523 
L 668.377824 237.007123 
L 669.488668 237.943578 
L 671.031255 238.893066 
L 672.001674 239.21979 
L 672.244454 239.158749 
L 672.411286 238.814864 
L 672.964045 237.314559 
L 673.301756 236.55262 
L 673.251709 236.540257 
L 672.554062 236.570785 
L 669.771296 236.954257 
L 669.326061 237.095538 
L 669.374658 237.143554 
L 669.363507 237.184838 
L 669.293116 237.2103 
L 669.249734 237.19784 
L 669.439923 237.083956 
L 669.439923 237.083956 
" style="fill:none;stroke:#000000;stroke-linecap:square;stroke-opacity:0.7;stroke-width:1.2;"/>
   </g>
   <g id="line2d_22">
    <path clip-path="url(#pd87692e818)" d="M 669.396356 190.257918 
L 669.22608 190.34419 
L 669.147149 190.590622 
L 669.721622 193.320544 
L 670.034889 193.412165 
L 671.178932 193.418547 
L 675.475102 193.189387 
L 675.456684 193.031259 
L 674.938336 192.300427 
L 673.594701 190.285805 
L 673.176743 189.742723 
L 672.087426 189.909518 
L 669.500124 190.309408 
L 669.512442 190.310576 
" style="fill:none;stroke:#000000;stroke-linecap:square;stroke-opacity:0.7;stroke-width:1.2;"/>
   </g>
   <g id="line2d_23">
    <path clip-path="url(#pd87692e818)" d="M 669.407804 143.461419 
L 669.174902 144.388776 
L 669.194206 144.394757 
L 669.964863 144.719539 
L 671.357101 145.544609 
L 671.689411 145.5079 
L 671.685684 145.204095 
L 671.690303 144.287128 
L 671.89842 143.830111 
L 671.92618 143.771354 
L 671.845308 143.748696 
L 669.558732 143.480848 
L 669.558732 143.480848 
" style="fill:none;stroke:#000000;stroke-linecap:square;stroke-opacity:0.7;stroke-width:1.2;"/>
   </g>
   <g id="line2d_24">
    <path clip-path="url(#pd87692e818)" d="M 669.406145 96.656714 
L 669.224257 96.247921 
L 668.991587 95.09539 
L 668.903083 94.742609 
L 668.853862 94.790997 
L 668.661783 95.230073 
L 668.436841 96.290246 
L 668.405941 97.66275 
L 668.627886 98.588151 
L 668.912329 98.903576 
L 669.592488 99.145098 
L 672.326166 99.739938 
L 673.556943 99.86164 
L 673.576001 99.700952 
L 673.210872 99.049491 
L 672.513618 97.658071 
L 672.193299 97.010477 
L 669.541884 96.695834 
L 669.542538 96.695045 
" style="fill:none;stroke:#000000;stroke-linecap:square;stroke-opacity:0.7;stroke-width:1.2;"/>
   </g>
   <g id="line2d_25">
    <path clip-path="url(#pd87692e818)" d="M 669.400819 49.830996 
L 669.225805 49.451139 
L 669.046595 48.44726 
L 668.978048 47.811628 
L 668.902331 47.920677 
L 668.766384 48.42313 
L 668.760396 49.368362 
L 669.011187 50.201503 
L 669.416909 50.690752 
L 669.493697 50.910673 
L 669.589572 51.16235 
L 669.90737 51.350374 
L 670.264049 51.344282 
L 670.615818 51.231409 
L 670.613178 51.212552 
L 670.409547 50.916832 
L 669.517552 49.871164 
L 669.517552 49.871164 
" style="fill:none;stroke:#000000;stroke-linecap:square;stroke-opacity:0.7;stroke-width:1.2;"/>
   </g>
  </g>
 </g>
 <defs>
  <clipPath id="pd87692e818">
   <rect height="262.08" width="694.08" x="12.96" y="12.96"/>
  </clipPath>
 </defs>
</svg>
