<?xml version="1.0" encoding="utf-8" standalone="no"?>
<!DOCTYPE svg PUBLIC "-//W3C//DTD SVG 1.1//EN"
  "http://www.w3.org/Graphics/SVG/1.1/DTD/svg11.dtd">
<!-- Created with matplotlib (https://matplotlib.org/) -->
<svg height="288pt" version="1.1" viewBox="0 0 720 288" width="720pt" xmlns="http://www.w3.org/2000/svg" xmlns:xlink="http://www.w3.org/1999/xlink">
 <metadata>
  <rdf:RDF xmlns:cc="http://creativecommons.org/ns#" xmlns:dc="http://purl.org/dc/elements/1.1/" xmlns:rdf="http://www.w3.org/1999/02/22-rdf-syntax-ns#">
   <cc:Work>
    <dc:type rdf:resource="http://purl.org/dc/dcmitype/StillImage"/>
    <dc:date>2020-12-21T16:02:12.840566</dc:date>
    <dc:format>image/svg+xml</dc:format>
    <dc:creator>
     <cc:Agent>
      <dc:title>Matplotlib v3.3.2, https://matplotlib.org/</dc:title>
     </cc:Agent>
    </dc:creator>
   </cc:Work>
  </rdf:RDF>
 </metadata>
 <defs>
  <style type="text/css">*{stroke-linecap:butt;stroke-linejoin:round;}</style>
 </defs>
 <g id="figure_1">
  <g id="patch_1">
   <path d="M 0 288 
L 720 288 
L 720 0 
L 0 0 
z
" style="fill:#ffffff;"/>
  </g>
  <g id="axes_1">
   <g id="line2d_1">
    <path clip-path="url(#p45ee0f3ed6)" d="M 47.655179 237.578034 
L 47.46626 237.473858 
L 46.381819 237.139507 
L 45.896487 237.173487 
L 45.836658 237.381556 
L 45.984416 237.963571 
L 46.653958 239.737805 
L 46.816552 239.705815 
L 47.15452 239.241616 
L 47.858897 237.83146 
L 47.83356 237.525326 
L 47.496528 237.368212 
L 46.705515 237.242947 
L 46.205762 237.328143 
L 46.152757 237.508856 
L 46.37521 237.650502 
L 46.977906 237.735876 
L 47.793869 237.624586 
L 47.857961 237.595834 
L 47.857961 237.595834 
" style="fill:none;stroke:#000000;stroke-linecap:square;stroke-opacity:0.7;stroke-width:1.2;"/>
   </g>
   <g id="line2d_2">
    <path clip-path="url(#p45ee0f3ed6)" d="M 47.729139 190.808907 
L 47.988431 189.905699 
L 47.86261 189.964303 
L 46.923713 190.542003 
L 46.810612 190.848776 
L 46.945077 190.96285 
L 47.319461 190.875315 
L 48.198543 190.420526 
L 48.145879 190.322179 
L 47.613342 190.085327 
L 46.499191 189.813449 
L 46.010889 189.852211 
L 45.974517 190.02353 
L 46.2497 190.306258 
L 46.953535 190.652959 
L 47.740181 190.806107 
L 47.889194 190.792674 
L 47.889194 190.792674 
" style="fill:none;stroke:#000000;stroke-linecap:square;stroke-opacity:0.7;stroke-width:1.2;"/>
   </g>
   <g id="line2d_3">
    <path clip-path="url(#p45ee0f3ed6)" d="M 47.735035 144.179621 
L 47.502513 144.118738 
L 46.265963 143.975822 
L 46.227899 144.024416 
L 46.372626 144.053317 
L 46.692713 143.836389 
L 46.932075 143.457237 
L 46.919681 143.455114 
L 46.554171 143.572841 
L 45.548265 144.107658 
L 44.93994 144.660416 
L 44.857834 144.952448 
L 45.001143 145.221134 
L 45.469277 145.539424 
L 46.863721 146.123162 
L 49.184155 146.862313 
L 49.264575 146.746271 
L 49.068216 146.230568 
L 48.179897 144.617273 
L 47.908486 144.192349 
L 47.908486 144.192349 
" style="fill:none;stroke:#000000;stroke-linecap:square;stroke-opacity:0.7;stroke-width:1.2;"/>
   </g>
   <g id="line2d_4">
    <path clip-path="url(#p45ee0f3ed6)" d="M 47.690303 97.379365 
L 48.861573 94.972191 
L 48.737689 94.88935 
L 48.307159 94.998159 
L 47.020857 95.58056 
L 45.393297 96.567702 
L 44.64966 97.2659 
L 44.509091 97.650576 
L 44.703452 98.075232 
L 45.333252 98.577005 
L 47.167664 99.607728 
L 49.74638 100.810676 
L 49.941469 100.744802 
L 49.848603 100.360104 
L 49.144278 98.882284 
L 48.227273 97.407903 
L 47.881055 97.163833 
L 47.804369 97.315638 
L 47.862015 97.402311 
L 47.873904 97.393682 
" style="fill:none;stroke:#000000;stroke-linecap:square;stroke-opacity:0.7;stroke-width:1.2;"/>
   </g>
   <g id="line2d_5">
    <path clip-path="url(#p45ee0f3ed6)" d="M 47.587337 50.63207 
L 47.215211 50.754127 
L 45.042571 51.465046 
L 44.934757 51.664367 
L 45.132193 51.77233 
L 45.752176 51.807135 
L 47.207191 51.608986 
L 48.628345 51.223783 
L 49.039093 50.935516 
L 48.997783 50.664038 
L 48.519261 49.964525 
L 46.831359 48.005435 
L 45.756052 47.031274 
L 45.475826 46.961034 
L 45.213237 47.202957 
L 44.90515 48.120675 
L 44.714643 49.397785 
L 44.756138 50.439788 
L 44.980358 50.996281 
L 45.328893 51.282498 
L 45.733737 51.39612 
L 46.486753 51.3478 
L 46.940696 51.200459 
L 47.608248 50.773917 
L 47.74183 50.611426 
L 47.74183 50.611426 
" style="fill:none;stroke:#000000;stroke-linecap:square;stroke-opacity:0.7;stroke-width:1.2;"/>
   </g>
   <g id="line2d_6">
    <path clip-path="url(#p45ee0f3ed6)" d="M 203.398108 237.518985 
L 203.638257 236.948836 
L 203.698264 236.698447 
L 203.636943 236.678205 
L 203.442522 236.498123 
L 203.239947 235.991063 
L 202.924732 235.045899 
L 201.668875 234.316246 
L 201.524043 234.445261 
L 201.41092 235.077154 
L 201.393818 236.596269 
L 201.568472 237.698487 
L 201.869318 238.301792 
L 202.205786 238.52293 
L 202.585984 238.532577 
L 202.944083 238.379465 
L 203.303423 238.053208 
L 203.577396 237.527799 
L 203.577396 237.527799 
" style="fill:none;stroke:#000000;stroke-linecap:square;stroke-opacity:0.7;stroke-width:1.2;"/>
   </g>
   <g id="line2d_7">
    <path clip-path="url(#p45ee0f3ed6)" d="M 203.383955 190.823521 
L 202.912769 190.83812 
L 201.034887 191.054424 
L 200.563241 191.278971 
L 200.611701 191.43342 
L 200.974211 191.57935 
L 202.028496 191.677244 
L 203.404472 191.578207 
L 203.620264 191.402387 
L 203.530235 191.167021 
L 202.919289 190.414852 
L 201.926548 189.501968 
L 201.552484 189.366486 
L 201.490278 189.569409 
L 201.525202 190.591191 
L 201.722816 191.255707 
L 201.992251 191.469271 
L 202.396732 191.497786 
L 202.984613 191.298561 
L 203.507378 190.907402 
L 203.558482 190.842791 
L 203.558482 190.842791 
" style="fill:none;stroke:#000000;stroke-linecap:square;stroke-opacity:0.7;stroke-width:1.2;"/>
   </g>
   <g id="line2d_8">
    <path clip-path="url(#p45ee0f3ed6)" d="M 203.354542 144.06421 
L 203.845918 143.860678 
L 206.195119 143.009413 
L 206.335191 142.994406 
L 205.807911 142.98147 
L 205.316884 142.807641 
L 203.616893 141.894905 
L 202.83266 141.59169 
L 202.520512 141.737598 
L 201.676917 142.492596 
L 201.160969 143.205742 
L 201.040716 143.717057 
L 201.176251 144.039379 
L 201.543811 144.293681 
L 202.188878 144.429357 
L 202.856653 144.379121 
L 203.46024 144.153869 
L 203.526886 144.10151 
L 203.526886 144.10151 
" style="fill:none;stroke:#000000;stroke-linecap:square;stroke-opacity:0.7;stroke-width:1.2;"/>
   </g>
   <g id="line2d_9">
    <path clip-path="url(#p45ee0f3ed6)" d="M 203.399311 97.351979 
L 203.918802 96.804939 
L 206.860689 93.734186 
L 206.785941 93.593594 
L 206.460449 93.506394 
L 204.573433 93.322592 
L 201.822469 93.229606 
L 201.309038 93.37028 
L 201.2274 93.582626 
L 201.385872 93.942426 
L 201.991152 94.63126 
L 203.140791 95.579855 
L 204.535287 96.507746 
L 204.257445 96.50038 
L 202.774888 96.465538 
L 202.068826 96.63734 
L 201.899274 96.861034 
L 201.985383 97.08838 
L 202.36238 97.360638 
L 202.985757 97.519007 
L 203.536606 97.452539 
L 203.565403 97.432571 
L 203.565403 97.432571 
" style="fill:none;stroke:#000000;stroke-linecap:square;stroke-opacity:0.7;stroke-width:1.2;"/>
   </g>
   <g id="line2d_10">
    <path clip-path="url(#p45ee0f3ed6)" d="M 203.402059 50.750496 
L 203.180371 50.628714 
L 201.818645 50.127632 
L 201.36557 50.12126 
L 201.384989 50.319372 
L 201.924944 51.545006 
L 202.886734 52.037734 
L 203.540735 51.688991 
L 203.640009 50.82508 
L 203.641064 50.789964 
L 203.641064 50.789964 
" style="fill:none;stroke:#000000;stroke-linecap:square;stroke-opacity:0.7;stroke-width:1.2;"/>
   </g>
   <g id="line2d_11">
    <path clip-path="url(#p45ee0f3ed6)" d="M 359.186298 237.612296 
L 359.245295 236.532697 
L 359.17761 236.545499 
L 358.480102 236.895207 
L 357.433948 237.61142 
L 357.263676 237.922373 
L 357.344401 238.076331 
L 357.83782 238.332571 
L 358.744644 238.686958 
L 358.758709 238.59923 
L 358.864919 238.407898 
L 359.132677 238.069626 
L 359.32856 237.632465 
L 359.32856 237.632465 
" style="fill:none;stroke:#000000;stroke-linecap:square;stroke-opacity:0.7;stroke-width:1.2;"/>
   </g>
   <g id="line2d_12">
    <path clip-path="url(#p45ee0f3ed6)" d="M 359.112219 191.001716 
L 359.584229 190.887568 
L 359.345365 190.798912 
L 358.70482 190.194233 
L 358.423726 190.046342 
L 357.895755 190.259365 
L 357.150084 190.759229 
L 356.918876 191.146192 
L 356.970092 191.402803 
L 357.230475 191.665675 
L 358.067498 192.085355 
L 360.117739 192.786383 
L 360.245506 192.738932 
L 360.24411 192.70271 
L 360.042546 192.220096 
L 359.31956 190.996845 
L 359.31956 190.996845 
" style="fill:none;stroke:#000000;stroke-linecap:square;stroke-opacity:0.7;stroke-width:1.2;"/>
   </g>
   <g id="line2d_13">
    <path clip-path="url(#p45ee0f3ed6)" d="M 359.188526 144.193946 
L 359.240305 143.264918 
L 359.193041 141.582638 
L 359.011459 141.384422 
L 358.615481 141.361885 
L 356.767243 141.56013 
L 355.970586 141.819868 
L 355.806522 142.027143 
L 355.854693 142.465284 
L 356.318624 143.349378 
L 357.64807 145.293609 
L 358.857115 146.776241 
L 359.237068 146.972444 
L 359.550174 146.838989 
L 360.20918 146.2018 
L 361.148677 145.075775 
L 360.930383 144.948981 
L 359.397813 144.237899 
L 359.397813 144.237899 
" style="fill:none;stroke:#000000;stroke-linecap:square;stroke-opacity:0.7;stroke-width:1.2;"/>
   </g>
   <g id="line2d_14">
    <path clip-path="url(#p45ee0f3ed6)" d="M 359.201105 97.341925 
L 361.208536 94.830404 
L 361.86123 93.788876 
L 361.758145 93.68049 
L 361.271507 93.67697 
L 359.783179 93.905535 
L 357.583933 94.437656 
L 356.638124 94.837288 
L 356.319322 95.190976 
L 356.339341 95.572117 
L 356.604203 96.089387 
L 357.483589 97.242294 
L 359.026548 98.874747 
L 359.677162 99.336406 
L 359.836481 99.250802 
L 359.898457 98.860579 
L 359.816098 97.364507 
L 359.767504 97.123645 
L 359.690009 97.22664 
L 359.408654 97.412633 
L 359.398711 97.400135 
L 359.398711 97.400135 
" style="fill:none;stroke:#000000;stroke-linecap:square;stroke-opacity:0.7;stroke-width:1.2;"/>
   </g>
   <g id="line2d_15">
    <path clip-path="url(#p45ee0f3ed6)" d="M 359.177899 50.79078 
L 359.194429 50.519644 
L 359.18984 50.05878 
L 359.103954 50.068241 
L 358.684176 49.932335 
L 357.978627 49.729226 
L 357.805614 50.044575 
L 357.282389 51.572555 
L 357.196889 52.386633 
L 357.314119 52.713031 
L 357.596097 52.924776 
L 358.253699 53.056539 
L 359.867811 53.047858 
L 361.275116 52.87437 
L 361.193529 52.682838 
L 360.22109 51.611518 
L 359.382404 50.769342 
L 359.382404 50.769342 
" style="fill:none;stroke:#000000;stroke-linecap:square;stroke-opacity:0.7;stroke-width:1.2;"/>
   </g>
   <g id="line2d_16">
    <path clip-path="url(#p45ee0f3ed6)" d="M 514.949552 237.608866 
L 518.148214 235.460256 
L 519.03862 234.723585 
L 518.91943 234.589647 
L 516.704382 233.393344 
L 513.909153 231.898616 
L 513.601022 231.984643 
L 513.304987 232.33594 
L 512.86986 233.152052 
L 512.032719 235.211486 
L 511.563353 236.924383 
L 511.51735 237.790358 
L 511.681407 238.319465 
L 512.027647 238.729173 
L 512.746445 239.1945 
L 514.356881 239.882874 
L 517.392711 240.879921 
L 518.529823 241.136184 
L 518.527098 241.109384 
L 518.131937 240.652159 
L 515.117723 237.643715 
L 515.117723 237.643715 
" style="fill:none;stroke:#000000;stroke-linecap:square;stroke-opacity:0.7;stroke-width:1.2;"/>
   </g>
   <g id="line2d_17">
    <path clip-path="url(#p45ee0f3ed6)" d="M 514.921943 190.934617 
L 515.455015 190.463298 
L 516.129013 189.78702 
L 516.088594 189.760124 
L 515.256428 189.271094 
L 514.117995 188.506191 
L 513.388274 189.061117 
L 512.996945 189.539409 
L 513.000405 189.845446 
L 513.287477 190.210087 
L 514.937062 191.653964 
L 515.10876 191.678573 
L 515.118205 191.658494 
L 515.12647 191.279543 
L 515.082502 190.95538 
L 515.082502 190.95538 
" style="fill:none;stroke:#000000;stroke-linecap:square;stroke-opacity:0.7;stroke-width:1.2;"/>
   </g>
   <g id="line2d_18">
    <path clip-path="url(#p45ee0f3ed6)" d="M 514.820901 144.08446 
L 514.727017 144.144007 
L 514.374264 144.45499 
L 514.429438 144.603995 
L 514.782591 144.563191 
L 516.343914 144.063705 
L 516.633696 143.821812 
L 516.493023 143.592512 
L 515.572475 142.669321 
L 513.724393 141.046885 
L 513.192828 140.817095 
L 512.978002 140.971788 
L 512.719823 141.631395 
L 512.504677 142.842185 
L 512.517397 143.885792 
L 512.711039 144.440317 
L 513.043155 144.739575 
L 513.442571 144.843869 
L 514.072646 144.756082 
L 514.521465 144.543156 
L 515.013978 144.060861 
L 515.013978 144.060861 
" style="fill:none;stroke:#000000;stroke-linecap:square;stroke-opacity:0.7;stroke-width:1.2;"/>
   </g>
   <g id="line2d_19">
    <path clip-path="url(#p45ee0f3ed6)" d="M 514.783891 97.305576 
L 514.53749 97.168593 
L 512.877041 96.537241 
L 512.119318 96.424296 
L 512.047504 96.572246 
L 512.240343 96.998915 
L 513.285004 98.612878 
L 513.97268 99.410678 
L 514.152547 99.354376 
L 514.415826 98.938527 
L 514.886567 97.698086 
L 515.260765 96.169414 
L 515.200141 95.650942 
L 514.96196 95.48338 
L 514.416309 95.431444 
L 513.339843 95.565211 
L 512.292382 95.874687 
L 511.717808 96.257298 
L 511.661409 96.506395 
L 511.809872 96.730073 
L 512.352828 97.045177 
L 513.320752 97.31263 
L 514.528594 97.392984 
L 514.988567 97.31987 
L 514.988567 97.31987 
" style="fill:none;stroke:#000000;stroke-linecap:square;stroke-opacity:0.7;stroke-width:1.2;"/>
   </g>
   <g id="line2d_20">
    <path clip-path="url(#p45ee0f3ed6)" d="M 514.765802 50.791077 
L 514.402668 50.860085 
L 513.540591 51.18381 
L 513.491596 51.2966 
L 513.548781 51.318699 
L 513.893061 51.266221 
L 514.966208 50.869107 
L 515.52296 50.503189 
L 515.522396 50.28254 
L 515.117195 49.439614 
L 513.86171 47.330739 
L 513.667237 47.21045 
L 513.459138 47.352705 
L 513.08866 48.039044 
L 512.618298 49.378062 
L 512.452808 50.466966 
L 512.55786 51.006654 
L 512.827229 51.310174 
L 513.257262 51.454508 
L 513.85248 51.426031 
L 514.567787 51.151033 
L 514.957832 50.80561 
L 514.957832 50.80561 
" style="fill:none;stroke:#000000;stroke-linecap:square;stroke-opacity:0.7;stroke-width:1.2;"/>
   </g>
   <g id="line2d_21">
    <path clip-path="url(#p45ee0f3ed6)" d="M 670.422697 237.504705 
L 670.18661 237.421952 
L 668.913436 237.204066 
L 668.132122 237.233895 
L 667.980822 237.40041 
L 668.068966 237.68169 
L 668.686416 238.604621 
L 669.714021 239.857374 
L 669.931729 239.862505 
L 670.256241 239.567718 
L 671.202096 238.222589 
L 672.634797 235.850293 
L 672.899844 235.107095 
L 672.818836 234.860456 
L 672.554324 234.713523 
L 671.693821 234.611233 
L 670.004531 234.696117 
L 668.250971 235.000409 
L 667.321817 235.343909 
L 666.989047 235.675729 
L 666.996703 235.90684 
L 667.232552 236.215811 
L 667.884532 236.652794 
L 668.887773 237.100878 
L 670.501543 237.521368 
L 670.645736 237.528244 
L 670.645736 237.528244 
" style="fill:none;stroke:#000000;stroke-linecap:square;stroke-opacity:0.7;stroke-width:1.2;"/>
   </g>
   <g id="line2d_22">
    <path clip-path="url(#p45ee0f3ed6)" d="M 670.750729 190.96562 
L 672.276749 190.051882 
L 675.48309 188.099898 
L 675.473889 188.086807 
L 675.223463 187.94153 
L 670.172575 185.695932 
L 669.781565 185.814915 
L 669.531882 186.236222 
L 669.228971 187.361653 
L 668.963241 189.422929 
L 668.975894 190.927786 
L 669.109654 191.553056 
L 669.439974 192.011818 
L 669.83134 192.159717 
L 670.687335 192.188506 
L 672.593688 192.092581 
L 672.4399 192.022949 
L 671.384034 191.372165 
L 670.888818 190.986041 
L 670.888818 190.986041 
" style="fill:none;stroke:#000000;stroke-linecap:square;stroke-opacity:0.7;stroke-width:1.2;"/>
   </g>
   <g id="line2d_23">
    <path clip-path="url(#p45ee0f3ed6)" d="M 670.517635 144.154099 
L 670.356853 144.118834 
L 669.188159 144.094693 
L 668.562956 144.251473 
L 668.50052 144.443072 
L 668.683869 144.741097 
L 669.663139 145.719869 
L 670.627053 146.475357 
L 670.740823 146.398657 
L 670.872207 145.898919 
L 671.115541 143.717629 
L 671.092893 142.459945 
L 670.896845 142.236467 
L 670.531016 142.209363 
L 669.639719 142.403272 
L 668.479594 142.881868 
L 667.940166 143.29976 
L 667.852587 143.601676 
L 667.994975 143.809047 
L 668.486255 144.052151 
L 669.40857 144.224748 
L 670.434125 144.21271 
L 670.705729 144.150631 
L 670.705729 144.150631 
" style="fill:none;stroke:#000000;stroke-linecap:square;stroke-opacity:0.7;stroke-width:1.2;"/>
   </g>
   <g id="line2d_24">
    <path clip-path="url(#p45ee0f3ed6)" d="M 670.602533 97.511262 
L 670.637241 97.307685 
L 670.834046 96.774093 
L 670.934657 96.644811 
L 671.517964 94.593805 
L 671.672672 93.632215 
L 671.514266 93.572564 
L 670.858098 93.758022 
L 668.962446 94.627533 
L 667.08273 95.734489 
L 666.241415 96.446075 
L 665.97449 96.874942 
L 665.946509 97.187403 
L 666.148712 97.594616 
L 666.789487 98.151361 
L 668.091696 98.926282 
L 670.986095 100.318476 
L 674.091126 101.57636 
L 674.384079 101.593498 
L 674.389419 101.564508 
L 674.225376 101.279426 
L 672.848747 99.679468 
L 670.85584 97.544677 
L 670.85584 97.544677 
" style="fill:none;stroke:#000000;stroke-linecap:square;stroke-opacity:0.7;stroke-width:1.2;"/>
   </g>
   <g id="line2d_25">
    <path clip-path="url(#p45ee0f3ed6)" d="M 670.482051 50.609392 
L 670.981194 49.871755 
L 672.457039 47.592542 
L 672.376759 47.464559 
L 671.836373 47.307861 
L 669.014916 46.842259 
L 668.771218 46.95819 
L 668.851743 47.166809 
L 669.210473 47.471175 
L 670.06739 47.857826 
L 671.238719 48.143428 
L 671.573606 48.187626 
L 670.963202 48.202099 
L 669.365427 48.403678 
L 668.401208 48.726794 
L 668.089802 49.057589 
L 668.129797 49.329676 
L 668.402745 49.662238 
L 669.132176 50.16029 
L 670.093395 50.567615 
L 670.674459 50.666882 
L 670.674459 50.666882 
" style="fill:none;stroke:#000000;stroke-linecap:square;stroke-opacity:0.7;stroke-width:1.2;"/>
   </g>
  </g>
 </g>
 <defs>
  <clipPath id="p45ee0f3ed6">
   <rect height="262.08" width="694.08" x="12.96" y="12.96"/>
  </clipPath>
 </defs>
</svg>
