<?xml version="1.0" encoding="utf-8" standalone="no"?>
<!DOCTYPE svg PUBLIC "-//W3C//DTD SVG 1.1//EN"
  "http://www.w3.org/Graphics/SVG/1.1/DTD/svg11.dtd">
<!-- Created with matplotlib (https://matplotlib.org/) -->
<svg height="288pt" version="1.1" viewBox="0 0 720 288" width="720pt" xmlns="http://www.w3.org/2000/svg" xmlns:xlink="http://www.w3.org/1999/xlink">
 <metadata>
  <rdf:RDF xmlns:cc="http://creativecommons.org/ns#" xmlns:dc="http://purl.org/dc/elements/1.1/" xmlns:rdf="http://www.w3.org/1999/02/22-rdf-syntax-ns#">
   <cc:Work>
    <dc:type rdf:resource="http://purl.org/dc/dcmitype/StillImage"/>
    <dc:date>2020-12-21T15:57:09.376179</dc:date>
    <dc:format>image/svg+xml</dc:format>
    <dc:creator>
     <cc:Agent>
      <dc:title>Matplotlib v3.3.2, https://matplotlib.org/</dc:title>
     </cc:Agent>
    </dc:creator>
   </cc:Work>
  </rdf:RDF>
 </metadata>
 <defs>
  <style type="text/css">*{stroke-linecap:butt;stroke-linejoin:round;}</style>
 </defs>
 <g id="figure_1">
  <g id="patch_1">
   <path d="M 0 288 
L 720 288 
L 720 0 
L 0 0 
z
" style="fill:#ffffff;"/>
  </g>
  <g id="axes_1">
   <g id="line2d_1">
    <path clip-path="url(#pc6efc50e05)" d="M 50.433662 234.748675 
L 50.060751 235.775964 
L 49.407932 238.115683 
L 49.105882 239.888971 
L 49.158617 240.771198 
L 49.383995 241.124766 
L 49.679268 241.251242 
L 50.32523 241.223304 
L 51.200116 240.946052 
L 52.112003 240.452404 
L 52.718983 239.89096 
L 53.003821 239.396101 
L 53.180894 238.277266 
L 53.046543 237.191609 
L 52.652635 235.818887 
L 51.962704 234.270799 
L 51.497023 233.660717 
L 51.182518 233.542406 
L 50.797235 233.630761 
L 50.145603 234.018308 
L 49.337079 234.746946 
L 49.27822 235.002725 
L 49.518702 235.024977 
L 50.377059 234.808737 
L 50.377059 234.808737 
" style="fill:none;stroke:#000000;stroke-linecap:square;stroke-opacity:0.7;stroke-width:1.2;"/>
   </g>
   <g id="line2d_2">
    <path clip-path="url(#pc6efc50e05)" d="M 50.243599 187.702478 
L 50.420316 188.225073 
L 51.044738 189.607852 
L 51.312794 189.833089 
L 51.419066 189.715824 
L 51.358612 189.429636 
L 51.253587 189.339306 
L 52.063291 190.326151 
L 52.320043 190.400997 
L 52.334041 190.203654 
L 52.119136 189.659407 
L 51.589282 188.901473 
L 50.906454 188.294086 
L 50.161583 187.867148 
L 50.162221 187.875669 
" style="fill:none;stroke:#000000;stroke-linecap:square;stroke-opacity:0.7;stroke-width:1.2;"/>
   </g>
   <g id="line2d_3">
    <path clip-path="url(#pc6efc50e05)" d="M 50.273845 141.106449 
L 49.933712 141.519105 
L 49.255471 142.646483 
L 48.891155 143.644098 
L 48.92823 144.230852 
L 49.163212 144.531744 
L 49.656437 144.777607 
L 50.618818 144.954561 
L 51.819565 144.938158 
L 52.688537 144.708179 
L 53.080196 144.372202 
L 53.171802 144.00943 
L 53.08004 143.613459 
L 52.752383 143.068952 
L 51.963142 142.262788 
L 50.884373 141.495747 
L 49.840161 141.01989 
L 49.330733 140.999486 
L 49.151626 141.194061 
L 49.132602 141.50334 
L 49.321885 142.169862 
L 49.830104 143.121116 
L 50.432927 143.813437 
L 50.778479 143.948092 
L 50.951737 143.793961 
L 50.995885 143.397908 
L 50.829641 142.604303 
L 50.379976 141.560588 
L 50.199882 141.26006 
L 50.199882 141.26006 
" style="fill:none;stroke:#000000;stroke-linecap:square;stroke-opacity:0.7;stroke-width:1.2;"/>
   </g>
   <g id="line2d_4">
    <path clip-path="url(#pc6efc50e05)" d="M 50.247756 94.224818 
L 50.48161 94.722155 
L 51.182258 95.809735 
L 51.782387 96.377733 
L 52.067121 96.403473 
L 52.141477 96.216803 
L 52.01322 95.821418 
L 51.589645 95.310653 
L 51.038719 95.014601 
L 50.823799 95.048342 
L 50.732171 95.297464 
L 50.906587 95.773039 
L 51.41514 96.399703 
L 52.082678 96.861287 
L 52.536031 96.924525 
L 52.678227 96.753115 
L 52.635653 96.372025 
L 52.303409 95.676126 
L 51.545928 94.642492 
L 50.863568 94.039201 
L 50.519612 93.970805 
L 50.294746 94.144123 
L 50.239257 94.438461 
L 50.239257 94.438461 
" style="fill:none;stroke:#000000;stroke-linecap:square;stroke-opacity:0.7;stroke-width:1.2;"/>
   </g>
   <g id="line2d_5">
    <path clip-path="url(#pc6efc50e05)" d="M 50.186158 47.530369 
L 49.504355 47.680314 
L 48.042603 48.165182 
L 46.699429 48.800181 
L 45.660384 49.582475 
L 45.101493 50.325423 
L 44.711786 51.349409 
L 44.537548 52.527696 
L 44.5154 53.89765 
L 44.715119 56.180366 
L 45.076955 57.868089 
L 45.446911 58.575388 
L 45.822078 58.782277 
L 46.291181 58.739814 
L 47.286279 58.282913 
L 48.665644 57.360138 
L 49.992793 56.213387 
L 50.715122 55.308722 
L 51.069811 54.526243 
L 51.272773 53.463246 
L 51.326585 51.78313 
L 51.161981 48.736164 
L 50.898638 48.101915 
L 50.519879 47.740153 
L 50.211008 47.699538 
L 50.210592 47.701943 
" style="fill:none;stroke:#000000;stroke-linecap:square;stroke-opacity:0.7;stroke-width:1.2;"/>
   </g>
   <g id="line2d_6">
    <path clip-path="url(#pc6efc50e05)" d="M 205.852262 234.234719 
L 206.165415 234.553811 
L 207.474068 235.636752 
L 207.956724 235.811279 
L 207.910521 235.713639 
L 207.50657 235.52855 
L 206.883455 235.461942 
L 206.367034 235.606491 
L 206.170759 235.838861 
L 206.13995 236.21206 
L 206.380721 236.878233 
L 206.965745 237.740836 
L 207.69615 238.438322 
L 208.214678 238.673379 
L 208.480478 238.612041 
L 208.642714 238.346776 
L 208.683915 237.89369 
L 208.550039 237.020674 
L 208.098957 235.663145 
L 207.472398 234.494344 
L 207.045802 234.091083 
L 206.618316 233.994883 
L 206.143 234.127267 
L 205.829743 234.424351 
L 205.830633 234.428842 
L 205.830633 234.428842 
" style="fill:none;stroke:#000000;stroke-linecap:square;stroke-opacity:0.7;stroke-width:1.2;"/>
   </g>
   <g id="line2d_7">
    <path clip-path="url(#pc6efc50e05)" d="M 205.843444 187.590987 
L 206.356814 188.112381 
L 207.790732 189.340397 
L 208.267325 189.543107 
L 208.295462 189.424967 
L 208.025462 189.098424 
L 207.405701 188.730464 
L 206.753253 188.582968 
L 206.351841 188.681143 
L 206.115983 188.94663 
L 205.968435 189.501802 
L 205.963492 190.407804 
L 206.169119 191.474705 
L 206.432499 191.917659 
L 206.715666 192.010512 
L 207.060676 191.878247 
L 207.594227 191.411549 
L 208.169313 190.593071 
L 208.359992 189.963461 
L 208.283861 189.542729 
L 207.97335 189.080358 
L 207.314014 188.490175 
L 206.377136 187.915282 
L 205.814319 187.734876 
L 205.814319 187.734876 
" style="fill:none;stroke:#000000;stroke-linecap:square;stroke-opacity:0.7;stroke-width:1.2;"/>
   </g>
   <g id="line2d_8">
    <path clip-path="url(#pc6efc50e05)" d="M 205.83715 140.904221 
L 206.233441 141.456625 
L 207.391822 142.765589 
L 207.865965 143.055281 
L 207.9168 142.966933 
L 207.906193 142.935388 
L 207.680222 142.679706 
L 207.144734 142.402186 
L 206.53437 142.310796 
L 206.133514 142.459679 
L 206.012865 142.760594 
L 206.089805 143.180999 
L 206.512556 144.006669 
L 207.255445 144.915899 
L 207.786672 145.250666 
L 208.053066 145.192475 
L 208.203359 144.901396 
L 208.230183 144.196152 
L 208.002215 143.043457 
L 207.558059 141.955313 
L 207.112566 141.40098 
L 206.560155 141.087737 
L 205.995356 140.997979 
L 205.7624 141.08534 
L 205.762705 141.086297 
" style="fill:none;stroke:#000000;stroke-linecap:square;stroke-opacity:0.7;stroke-width:1.2;"/>
   </g>
   <g id="line2d_9">
    <path clip-path="url(#pc6efc50e05)" d="M 205.776317 94.047863 
L 206.103239 94.363317 
L 207.597627 95.524408 
L 208.113134 95.717127 
L 208.064704 95.587111 
L 207.675182 95.285885 
L 206.909336 94.94083 
L 206.255797 94.779804 
L 205.517086 94.7905 
L 205.079944 95.040245 
L 204.867035 95.482093 
L 204.834563 96.202663 
L 205.033124 97.24971 
L 205.570824 98.690865 
L 206.187504 99.761745 
L 206.674777 100.322365 
L 207.190596 100.631347 
L 207.651832 100.589107 
L 207.907084 100.382166 
L 208.246475 99.784554 
L 208.515503 98.809399 
L 208.684531 97.309222 
L 208.649483 95.792931 
L 208.447827 94.854821 
L 208.134963 94.367303 
L 207.72958 94.11309 
L 207.044874 93.972579 
L 206.176631 94.058833 
L 205.749523 94.256748 
L 205.749523 94.256748 
" style="fill:none;stroke:#000000;stroke-linecap:square;stroke-opacity:0.7;stroke-width:1.2;"/>
   </g>
   <g id="line2d_10">
    <path clip-path="url(#pc6efc50e05)" d="M 205.917177 47.669559 
L 205.95034 48.001625 
L 206.287965 49.172935 
L 206.62032 49.645831 
L 206.833117 49.640554 
L 206.951487 49.422792 
L 206.928716 49.29783 
L 207.053907 49.514412 
L 207.627769 49.788473 
L 208.265105 49.891657 
L 208.495122 49.74267 
L 208.426028 49.464995 
L 207.988989 48.904486 
L 206.95171 47.978423 
L 205.731583 47.181373 
L 205.505188 47.176683 
L 205.50357 47.20436 
L 205.667506 47.540278 
L 205.880622 47.830363 
L 205.880622 47.830363 
" style="fill:none;stroke:#000000;stroke-linecap:square;stroke-opacity:0.7;stroke-width:1.2;"/>
   </g>
   <g id="line2d_11">
    <path clip-path="url(#pc6efc50e05)" d="M 361.46131 234.493698 
L 361.130143 234.91008 
L 360.538023 235.978229 
L 360.326636 236.741804 
L 360.432129 237.105414 
L 360.72145 237.234792 
L 361.209947 237.194882 
L 362.029486 236.883309 
L 362.654725 236.404988 
L 362.783672 236.069656 
L 362.66614 235.782295 
L 362.238995 235.449213 
L 361.4193 235.150021 
L 360.850056 235.133558 
L 360.661359 235.316792 
L 360.718035 235.666715 
L 361.111721 236.359445 
L 362.019548 237.43169 
L 362.601039 237.84834 
L 362.806911 237.793534 
L 362.835865 237.52812 
L 362.650509 236.835599 
L 362.061513 235.599804 
L 361.43796 234.685467 
L 361.43796 234.685467 
" style="fill:none;stroke:#000000;stroke-linecap:square;stroke-opacity:0.7;stroke-width:1.2;"/>
   </g>
   <g id="line2d_12">
    <path clip-path="url(#pc6efc50e05)" d="M 361.546837 187.45844 
L 362.172707 188.1736 
L 363.770442 189.725362 
L 364.425874 190.135814 
L 364.420516 190.020412 
L 364.047427 189.612387 
L 363.287556 189.066011 
L 362.484977 188.633084 
L 361.119054 188.179018 
L 360.459673 188.188912 
L 360.121588 188.392364 
L 359.945754 188.796789 
L 359.951922 189.450737 
L 360.22858 190.560398 
L 360.871268 192.08858 
L 361.740411 193.538515 
L 362.502382 194.363346 
L 363.064546 194.618495 
L 363.305117 194.592064 
L 363.659813 194.329694 
L 363.971289 193.755884 
L 364.244251 192.70339 
L 364.380799 191.318971 
L 364.288911 189.74869 
L 364.030556 188.925959 
L 363.633264 188.387948 
L 363.016167 187.946285 
L 362.22709 187.638705 
L 361.549576 187.583023 
L 361.48956 187.612594 
L 361.48956 187.612594 
" style="fill:none;stroke:#000000;stroke-linecap:square;stroke-opacity:0.7;stroke-width:1.2;"/>
   </g>
   <g id="line2d_13">
    <path clip-path="url(#pc6efc50e05)" d="M 361.569646 141.116677 
L 361.693346 141.617592 
L 362.220209 142.979031 
L 362.824992 143.945227 
L 363.160702 144.163591 
L 363.397443 144.085612 
L 363.556428 143.739548 
L 363.595796 143.057411 
L 363.443498 142.169127 
L 363.225053 141.844899 
L 363.056626 141.947074 
L 362.93309 142.252464 
L 363.013132 142.470516 
L 362.848973 142.417476 
L 362.328218 142.084594 
L 361.521602 141.23927 
L 361.522129 141.239085 
" style="fill:none;stroke:#000000;stroke-linecap:square;stroke-opacity:0.7;stroke-width:1.2;"/>
   </g>
   <g id="line2d_14">
    <path clip-path="url(#pc6efc50e05)" d="M 361.518492 94.217321 
L 361.775592 94.708031 
L 362.617361 95.965195 
L 363.1375 96.416455 
L 363.19408 96.380405 
L 363.181076 96.319238 
L 362.942516 96.048384 
L 362.332664 95.7221 
L 361.833879 95.669573 
L 361.585864 95.845384 
L 361.516005 96.147479 
L 361.598816 96.832147 
L 361.996405 98.080316 
L 362.427514 98.843712 
L 362.722327 99.03252 
L 362.957695 98.968251 
L 363.260272 98.603015 
L 363.560941 97.848725 
L 363.713016 96.84046 
L 363.601415 96.133324 
L 363.273379 95.597695 
L 362.553952 94.934277 
L 361.671153 94.39697 
L 361.475769 94.351301 
L 361.475769 94.351301 
" style="fill:none;stroke:#000000;stroke-linecap:square;stroke-opacity:0.7;stroke-width:1.2;"/>
   </g>
   <g id="line2d_15">
    <path clip-path="url(#pc6efc50e05)" d="M 361.684951 47.778273 
L 360.951385 48.269465 
L 359.677179 49.310426 
L 358.823765 50.228117 
L 358.40163 50.994327 
L 358.299069 51.644979 
L 358.411538 52.344796 
L 358.828047 53.350226 
L 359.684534 54.714784 
L 360.266011 55.413213 
L 361.051467 56.014507 
L 361.568904 56.071637 
L 361.993599 55.845019 
L 362.591494 55.11676 
L 363.265371 53.831576 
L 364.008438 51.862548 
L 364.385542 50.27651 
L 364.388125 49.369997 
L 364.195331 48.872303 
L 363.824313 48.458622 
L 363.249049 48.07063 
L 361.775681 47.403708 
L 359.917253 46.729794 
L 360.388605 46.993382 
L 361.545991 47.864231 
L 361.625373 47.930475 
L 361.625373 47.930475 
" style="fill:none;stroke:#000000;stroke-linecap:square;stroke-opacity:0.7;stroke-width:1.2;"/>
   </g>
   <g id="line2d_16">
    <path clip-path="url(#pc6efc50e05)" d="M 517.012814 234.265522 
L 516.898808 234.751533 
L 516.821764 235.925367 
L 516.937693 237.027925 
L 517.180142 237.488775 
L 517.443722 237.588256 
L 517.724529 237.509973 
L 518.054027 237.215991 
L 518.13844 236.868643 
L 517.982431 236.735628 
L 517.737941 236.860263 
L 517.246326 237.417521 
L 516.818209 238.203452 
L 516.860442 238.553108 
L 517.066893 238.7781 
L 517.644665 239.056383 
L 518.568762 239.207368 
L 519.098951 239.100865 
L 519.35044 238.846593 
L 519.410241 238.482864 
L 519.274636 237.84886 
L 518.793969 236.800573 
L 517.954999 235.523465 
L 517.078405 234.553083 
L 516.984743 234.474422 
L 516.984743 234.474422 
" style="fill:none;stroke:#000000;stroke-linecap:square;stroke-opacity:0.7;stroke-width:1.2;"/>
   </g>
   <g id="line2d_17">
    <path clip-path="url(#pc6efc50e05)" d="M 517.058528 187.66501 
L 517.182836 188.126097 
L 517.714917 189.310916 
L 518.425007 190.332022 
L 518.966641 190.710284 
L 519.306099 190.726271 
L 519.633437 190.547788 
L 519.997374 190.085632 
L 520.319812 189.290112 
L 520.38999 188.572184 
L 520.244669 188.230736 
L 519.912092 188.04489 
L 519.133657 187.978141 
L 517.990529 188.093766 
L 516.396883 188.490368 
L 515.574338 188.903366 
L 515.249012 189.280611 
L 515.198348 189.694077 
L 515.419227 190.22523 
L 515.997275 190.924714 
L 517.065638 191.819722 
L 518.365109 192.575504 
L 519.145488 192.786341 
L 519.485577 192.709966 
L 519.668373 192.441673 
L 519.674853 192.003387 
L 519.443909 191.22706 
L 518.829589 190.042412 
L 517.998322 188.855952 
L 517.042295 187.809262 
L 517.042295 187.809262 
" style="fill:none;stroke:#000000;stroke-linecap:square;stroke-opacity:0.7;stroke-width:1.2;"/>
   </g>
   <g id="line2d_18">
    <path clip-path="url(#pc6efc50e05)" d="M 517.249392 141.158189 
L 516.579738 141.878002 
L 515.283051 143.535888 
L 514.640697 144.634409 
L 514.369657 145.603158 
L 514.412721 146.223156 
L 514.664181 146.922558 
L 515.302519 147.921018 
L 516.095397 148.817444 
L 516.837552 149.421663 
L 517.399812 149.617737 
L 517.742246 149.524959 
L 518.157003 149.093286 
L 518.505925 148.427218 
L 519.01951 146.89822 
L 519.377412 145.135368 
L 519.442513 143.792432 
L 519.27212 143.137735 
L 518.981048 142.800652 
L 518.464984 142.534207 
L 517.018388 141.934137 
L 517.1001 141.663973 
L 517.256525 141.208661 
L 517.246942 141.223223 
" style="fill:none;stroke:#000000;stroke-linecap:square;stroke-opacity:0.7;stroke-width:1.2;"/>
   </g>
   <g id="line2d_19">
    <path clip-path="url(#pc6efc50e05)" d="M 517.228788 94.287944 
L 516.803387 94.823492 
L 515.929932 96.244547 
L 515.639936 97.081432 
L 515.630131 97.872967 
L 515.765232 98.745419 
L 515.911243 99.023977 
L 516.368975 99.26293 
L 517.073135 99.312853 
L 518.798749 99.148174 
L 520.079308 98.785989 
L 520.684677 98.355756 
L 520.836671 98.052415 
L 520.795521 97.450988 
L 520.557452 96.933781 
L 519.897744 96.017648 
L 518.773439 94.81627 
L 516.928059 93.187472 
L 515.998447 92.594973 
L 516.008972 92.739589 
L 516.425778 93.414571 
L 517.229166 94.453632 
L 517.229166 94.453632 
" style="fill:none;stroke:#000000;stroke-linecap:square;stroke-opacity:0.7;stroke-width:1.2;"/>
   </g>
   <g id="line2d_20">
    <path clip-path="url(#pc6efc50e05)" d="M 517.115345 47.594535 
L 516.855157 47.978683 
L 516.305507 49.137501 
L 516.153403 49.903607 
L 516.279811 50.253256 
L 516.694784 50.615211 
L 517.590988 51.173122 
L 517.6029 51.163629 
L 517.189902 51.426378 
L 517.262537 51.48154 
L 517.711793 51.56061 
L 518.324844 51.479477 
L 518.634531 51.247842 
L 518.741902 50.927823 
L 518.690458 50.371063 
L 518.342197 49.445415 
L 517.614531 48.293209 
L 517.073424 47.73515 
L 517.073424 47.73515 
" style="fill:none;stroke:#000000;stroke-linecap:square;stroke-opacity:0.7;stroke-width:1.2;"/>
   </g>
   <g id="line2d_21">
    <path clip-path="url(#pc6efc50e05)" d="M 672.929553 234.493542 
L 672.950098 235.004885 
L 673.206471 236.25361 
L 673.56277 237.101525 
L 673.834062 237.316288 
L 674.076689 237.228282 
L 674.417127 236.797664 
L 675.288518 235.201457 
L 675.381237 234.756706 
L 675.152854 234.398789 
L 674.264154 233.690941 
L 673.530543 233.370276 
L 673.250003 233.480326 
L 672.872223 233.935958 
L 672.451833 234.728962 
L 672.383763 235.2227 
L 672.523792 235.190932 
L 672.765387 234.848943 
L 672.869841 234.651466 
L 672.869841 234.651466 
" style="fill:none;stroke:#000000;stroke-linecap:square;stroke-opacity:0.7;stroke-width:1.2;"/>
   </g>
   <g id="line2d_22">
    <path clip-path="url(#pc6efc50e05)" d="M 672.859598 187.857225 
L 672.482168 188.31417 
L 671.65891 189.627187 
L 671.332122 190.521832 
L 671.347968 191.136672 
L 671.648771 191.756113 
L 672.477826 192.762145 
L 673.960946 194.215057 
L 674.4054 194.423823 
L 674.701237 194.320661 
L 674.97198 193.96209 
L 675.321792 193.093037 
L 675.490909 192.135088 
L 675.357731 191.482869 
L 674.919326 190.743959 
L 672.80995 187.598514 
L 672.812437 187.57687 
L 672.880937 187.977399 
L 672.880937 187.977399 
" style="fill:none;stroke:#000000;stroke-linecap:square;stroke-opacity:0.7;stroke-width:1.2;"/>
   </g>
   <g id="line2d_23">
    <path clip-path="url(#pc6efc50e05)" d="M 672.832596 141.106545 
L 672.428475 141.523544 
L 671.575261 142.691314 
L 671.04502 143.76995 
L 670.954907 144.308748 
L 671.083809 144.775083 
L 671.488695 145.179813 
L 672.169667 145.481306 
L 672.91358 145.556011 
L 673.368982 145.395876 
L 673.616174 145.052877 
L 673.638604 144.649802 
L 673.482617 144.19348 
L 672.985042 143.525393 
L 672.246184 142.952014 
L 671.69021 142.746536 
L 671.526415 142.840532 
L 671.610472 143.145335 
L 672.125156 143.838042 
L 673.025494 144.653395 
L 673.641699 144.947451 
L 673.951134 144.87207 
L 674.093724 144.573316 
L 674.083755 143.991839 
L 673.83715 143.076345 
L 673.264358 141.88115 
L 672.825485 141.262413 
L 672.825485 141.262413 
" style="fill:none;stroke:#000000;stroke-linecap:square;stroke-opacity:0.7;stroke-width:1.2;"/>
   </g>
   <g id="line2d_24">
    <path clip-path="url(#pc6efc50e05)" d="M 672.713899 94.182971 
L 672.006793 94.578222 
L 670.684572 95.526426 
L 669.569018 96.568055 
L 668.988142 97.418552 
L 668.750622 98.230194 
L 668.746977 99.0445 
L 669.002311 100.332852 
L 669.540227 101.785408 
L 669.990952 102.479971 
L 670.364479 102.672572 
L 670.634924 102.586406 
L 670.970657 102.228266 
L 671.32159 101.434616 
L 671.460965 100.52241 
L 671.561084 99.700852 
L 671.833631 99.526355 
L 673.555504 98.831362 
L 673.870046 98.380614 
L 674.022269 97.745905 
L 673.976793 96.897871 
L 673.699036 95.932522 
L 673.234772 95.025111 
L 672.680951 94.378325 
L 672.680951 94.378325 
" style="fill:none;stroke:#000000;stroke-linecap:square;stroke-opacity:0.7;stroke-width:1.2;"/>
   </g>
   <g id="line2d_25">
    <path clip-path="url(#pc6efc50e05)" d="M 672.781686 47.585227 
L 672.941058 48.04532 
L 673.586811 49.356206 
L 674.154653 50.113161 
L 674.531423 50.316019 
L 674.734363 50.215299 
L 674.842677 49.916374 
L 674.817508 49.267911 
L 674.556867 48.438723 
L 674.235022 48.01304 
L 673.924176 47.943263 
L 673.457122 48.135567 
L 672.711509 48.726055 
L 672.277023 49.318293 
L 672.223271 49.700845 
L 672.401176 50.068501 
L 672.964171 50.574641 
L 673.934686 51.139937 
L 674.783989 51.412075 
L 675.039939 51.319081 
L 675.065553 51.083543 
L 674.861188 50.537151 
L 674.231889 49.511473 
L 673.3243 48.365962 
L 672.699945 47.75087 
L 672.699945 47.75087 
" style="fill:none;stroke:#000000;stroke-linecap:square;stroke-opacity:0.7;stroke-width:1.2;"/>
   </g>
  </g>
 </g>
 <defs>
  <clipPath id="pc6efc50e05">
   <rect height="262.08" width="694.08" x="12.96" y="12.96"/>
  </clipPath>
 </defs>
</svg>
