<?xml version="1.0" encoding="utf-8" standalone="no"?>
<!DOCTYPE svg PUBLIC "-//W3C//DTD SVG 1.1//EN"
  "http://www.w3.org/Graphics/SVG/1.1/DTD/svg11.dtd">
<!-- Created with matplotlib (https://matplotlib.org/) -->
<svg height="288pt" version="1.1" viewBox="0 0 720 288" width="720pt" xmlns="http://www.w3.org/2000/svg" xmlns:xlink="http://www.w3.org/1999/xlink">
 <metadata>
  <rdf:RDF xmlns:cc="http://creativecommons.org/ns#" xmlns:dc="http://purl.org/dc/elements/1.1/" xmlns:rdf="http://www.w3.org/1999/02/22-rdf-syntax-ns#">
   <cc:Work>
    <dc:type rdf:resource="http://purl.org/dc/dcmitype/StillImage"/>
    <dc:date>2020-12-21T16:27:09.892750</dc:date>
    <dc:format>image/svg+xml</dc:format>
    <dc:creator>
     <cc:Agent>
      <dc:title>Matplotlib v3.3.2, https://matplotlib.org/</dc:title>
     </cc:Agent>
    </dc:creator>
   </cc:Work>
  </rdf:RDF>
 </metadata>
 <defs>
  <style type="text/css">*{stroke-linecap:butt;stroke-linejoin:round;}</style>
 </defs>
 <g id="figure_1">
  <g id="patch_1">
   <path d="M 0 288 
L 720 288 
L 720 0 
L 0 0 
z
" style="fill:#ffffff;"/>
  </g>
  <g id="axes_1">
   <g id="line2d_1">
    <path clip-path="url(#p0f01175720)" d="M 46.48165 238.003579 
L 46.599311 237.489724 
L 46.753933 235.728383 
L 46.68336 235.312614 
L 46.66312 235.316269 
L 46.544165 235.460173 
L 46.401585 236.001369 
L 46.470603 236.73151 
L 46.87229 237.528546 
L 47.379298 237.91216 
L 47.578513 237.926877 
L 47.570709 237.869489 
L 47.230402 237.480358 
L 46.816314 237.25683 
L 46.499028 237.409345 
L 45.79297 238.062178 
L 44.799649 239.266626 
L 44.510302 239.880892 
L 44.606093 239.933721 
L 44.918619 239.733909 
L 45.937957 238.702686 
L 46.556722 238.06673 
L 46.556722 238.06673 
" style="fill:none;stroke:#000000;stroke-linecap:square;stroke-opacity:0.7;stroke-width:1.2;"/>
   </g>
   <g id="line2d_2">
    <path clip-path="url(#p0f01175720)" d="M 46.496232 190.931816 
L 46.651923 190.453734 
L 46.96489 188.694672 
L 46.957453 187.891821 
L 46.832803 187.923027 
L 46.492226 188.350127 
L 46.080224 189.26969 
L 45.941859 190.107633 
L 46.065283 190.606016 
L 46.375006 190.860182 
L 46.863754 190.95758 
L 47.165382 190.90085 
L 46.162338 191.086588 
L 46.586994 190.989503 
" style="fill:none;stroke:#000000;stroke-linecap:square;stroke-opacity:0.7;stroke-width:1.2;"/>
   </g>
   <g id="line2d_3">
    <path clip-path="url(#p0f01175720)" d="M 46.490522 143.93852 
L 46.633215 143.396733 
L 46.831525 141.739809 
L 46.728035 141.483401 
L 46.49189 141.627529 
L 45.801206 142.402747 
L 45.280565 143.237357 
L 45.136332 143.889959 
L 45.317623 144.129221 
L 46.044347 144.553435 
L 47.472063 145.128049 
L 48.095664 145.192987 
L 48.159218 145.042573 
L 48.009073 144.603955 
L 47.376152 143.445122 
L 47.16595 143.534575 
L 46.539344 144.004668 
L 46.547858 144.01422 
" style="fill:none;stroke:#000000;stroke-linecap:square;stroke-opacity:0.7;stroke-width:1.2;"/>
   </g>
   <g id="line2d_4">
    <path clip-path="url(#p0f01175720)" d="M 46.522931 96.947697 
L 46.713624 96.510783 
L 47.064994 95.226135 
L 47.032406 95.242212 
L 46.812189 95.598874 
L 46.686896 96.183092 
L 46.786111 96.503182 
L 47.065128 96.673612 
L 46.910618 96.475848 
L 46.77528 96.458186 
L 46.252673 96.908808 
L 45.557101 97.73628 
L 45.578463 97.845203 
L 45.626022 97.842117 
L 45.895249 97.639203 
L 46.5836 96.966742 
L 46.5836 96.966742 
" style="fill:none;stroke:#000000;stroke-linecap:square;stroke-opacity:0.7;stroke-width:1.2;"/>
   </g>
   <g id="line2d_5">
    <path clip-path="url(#p0f01175720)" d="M 46.545713 49.960649 
L 46.557836 49.565427 
L 46.41595 49.568947 
L 45.741972 49.808815 
L 45.905504 50.866549 
L 46.103305 50.968507 
L 46.247239 50.830837 
L 46.605126 49.997565 
L 46.605126 49.997565 
" style="fill:none;stroke:#000000;stroke-linecap:square;stroke-opacity:0.7;stroke-width:1.2;"/>
   </g>
   <g id="line2d_6">
    <path clip-path="url(#p0f01175720)" d="M 203.27815 238.007921 
L 203.560943 237.548614 
L 204.214164 236.057599 
L 204.172592 235.940625 
L 204.123314 235.942553 
L 203.602694 236.141625 
L 201.716771 236.793973 
L 201.343845 237.018114 
L 201.428866 237.383977 
L 202.001828 238.678192 
L 202.585351 239.534717 
L 202.872763 239.616165 
L 203.476692 239.425098 
L 203.863527 239.160476 
L 203.719975 238.84931 
L 203.34947 238.074264 
L 203.34947 238.074264 
" style="fill:none;stroke:#000000;stroke-linecap:square;stroke-opacity:0.7;stroke-width:1.2;"/>
   </g>
   <g id="line2d_7">
    <path clip-path="url(#p0f01175720)" d="M 203.255151 191.017824 
L 203.256265 191.45269 
L 203.479479 192.402629 
L 203.764806 192.892439 
L 203.401447 192.42917 
L 202.396474 191.526447 
L 202.185772 191.51676 
L 202.180032 191.530303 
L 202.186205 191.835683 
L 202.402491 192.431151 
L 202.79414 192.947741 
L 203.141593 193.087093 
L 203.458843 192.968744 
L 203.918389 192.530216 
L 204.531466 191.634018 
L 204.665541 191.143072 
L 204.51932 191.053566 
L 203.832381 191.029529 
L 203.355659 191.053888 
L 203.355659 191.053888 
" style="fill:none;stroke:#000000;stroke-linecap:square;stroke-opacity:0.7;stroke-width:1.2;"/>
   </g>
   <g id="line2d_8">
    <path clip-path="url(#p0f01175720)" d="M 203.219215 144.015805 
L 202.99961 145.324954 
L 202.8992 147.102006 
L 203.006674 148.893708 
L 203.243798 149.667753 
L 203.451772 149.796656 
L 203.805907 149.692777 
L 205.358116 149.141745 
L 207.55806 148.462475 
L 207.416981 147.956408 
L 206.018072 144.525706 
L 205.410115 144.227516 
L 202.64975 143.142321 
L 202.695053 143.260431 
L 203.127056 143.918092 
L 203.283106 144.029221 
L 203.283106 144.029221 
" style="fill:none;stroke:#000000;stroke-linecap:square;stroke-opacity:0.7;stroke-width:1.2;"/>
   </g>
   <g id="line2d_9">
    <path clip-path="url(#p0f01175720)" d="M 203.202666 96.941718 
L 203.020838 97.477801 
L 202.829188 98.752187 
L 202.839644 100.001266 
L 203.032131 100.562949 
L 203.27448 100.679527 
L 203.957727 100.630084 
L 206.030158 100.548695 
L 206.53464 100.440055 
L 206.485817 100.17574 
L 205.612685 98.206963 
L 205.170225 97.525069 
L 204.678083 97.311982 
L 202.729704 96.603017 
L 202.721863 96.578538 
L 202.944666 96.733272 
L 203.317944 96.98107 
L 203.317944 96.98107 
" style="fill:none;stroke:#000000;stroke-linecap:square;stroke-opacity:0.7;stroke-width:1.2;"/>
   </g>
   <g id="line2d_10">
    <path clip-path="url(#p0f01175720)" d="M 203.280273 49.949153 
L 204.220734 48.587026 
L 204.131132 48.586906 
L 203.179832 48.622985 
L 201.951966 48.399359 
L 201.511061 48.368894 
L 201.456902 48.757374 
L 201.542297 49.704637 
L 201.831838 50.751668 
L 202.13381 51.089681 
L 202.605816 51.184224 
L 203.676765 51.147383 
L 203.855403 50.998688 
L 203.702029 50.660212 
L 203.349717 49.976928 
L 203.349717 49.976928 
" style="fill:none;stroke:#000000;stroke-linecap:square;stroke-opacity:0.7;stroke-width:1.2;"/>
   </g>
   <g id="line2d_11">
    <path clip-path="url(#p0f01175720)" d="M 359.9996 237.975886 
L 360.372107 237.27577 
L 361.22334 235.259696 
L 361.198989 234.97419 
L 360.886276 235.06673 
L 358.599532 236.307347 
L 358.596558 237.120221 
L 358.759551 238.054987 
L 359.157 238.706079 
L 359.708795 239.338149 
L 360.038474 239.448732 
L 360.109212 239.266724 
L 360.100893 238.07327 
L 360.100893 238.07327 
" style="fill:none;stroke:#000000;stroke-linecap:square;stroke-opacity:0.7;stroke-width:1.2;"/>
   </g>
   <g id="line2d_12">
    <path clip-path="url(#p0f01175720)" d="M 360.022726 191.094414 
L 360.773712 193.908982 
L 361.691983 196.296114 
L 362.531765 197.891756 
L 362.953879 198.319513 
L 363.054036 198.258291 
L 363.16497 197.876276 
L 363.373938 195.987318 
L 363.443794 194.053693 
L 363.284792 193.161874 
L 362.983844 192.773238 
L 362.29905 192.376655 
L 360.231784 191.573572 
L 357.690224 190.776663 
L 357.307963 190.824372 
L 357.27592 191.054852 
L 357.471502 191.740453 
L 357.954495 192.773835 
L 358.454821 193.412647 
L 358.720924 193.464915 
L 358.943525 193.25789 
L 359.435801 192.376745 
L 360.119765 191.099541 
L 360.119765 191.099541 
" style="fill:none;stroke:#000000;stroke-linecap:square;stroke-opacity:0.7;stroke-width:1.2;"/>
   </g>
   <g id="line2d_13">
    <path clip-path="url(#p0f01175720)" d="M 360.007089 144.011305 
L 360.095496 145.335343 
L 360.355694 145.60312 
L 360.745833 145.652144 
L 362.011549 145.48078 
L 362.967004 145.202853 
L 362.942062 145.083196 
L 362.506344 144.830039 
L 359.943714 143.695864 
L 358.711596 143.312676 
L 358.425073 143.414589 
L 358.21189 143.732437 
L 357.947858 144.580171 
L 357.81302 145.649311 
L 357.940488 146.335032 
L 358.142976 146.403377 
L 358.425866 146.208259 
L 359.099119 145.379681 
L 360.088657 144.052018 
L 360.088657 144.052018 
" style="fill:none;stroke:#000000;stroke-linecap:square;stroke-opacity:0.7;stroke-width:1.2;"/>
   </g>
   <g id="line2d_14">
    <path clip-path="url(#p0f01175720)" d="M 359.979128 96.948003 
L 359.861526 97.337552 
L 359.816389 98.241696 
L 359.980996 98.806377 
L 360.206737 98.943113 
L 361.128446 99.009171 
L 361.160361 98.680725 
L 361.117361 97.342792 
L 360.066436 96.476954 
L 360.040007 96.596118 
L 360.052436 96.952152 
L 360.083746 96.97077 
L 360.083746 96.97077 
" style="fill:none;stroke:#000000;stroke-linecap:square;stroke-opacity:0.7;stroke-width:1.2;"/>
   </g>
   <g id="line2d_15">
    <path clip-path="url(#p0f01175720)" d="M 360.001282 49.883297 
L 360.103942 49.498105 
L 360.165172 48.491705 
L 360.149192 48.494172 
L 359.942997 48.688811 
L 359.409596 49.43482 
L 359.192616 50.060222 
L 359.297944 50.346909 
L 359.763037 50.744411 
L 360.728246 51.316551 
L 361.738017 51.685732 
L 362.029682 51.605584 
L 362.044974 51.35739 
L 361.785614 50.544815 
L 361.180363 49.274854 
L 360.988256 49.24083 
L 360.429847 49.575233 
L 360.064261 49.912342 
L 360.064261 49.912342 
" style="fill:none;stroke:#000000;stroke-linecap:square;stroke-opacity:0.7;stroke-width:1.2;"/>
   </g>
   <g id="line2d_16">
    <path clip-path="url(#p0f01175720)" d="M 516.810444 238.066386 
L 516.8974 237.803378 
L 516.939638 236.949731 
L 517.007273 237.26257 
L 517.351909 237.589267 
L 517.81301 237.765505 
L 518.549489 237.79038 
L 518.56206 237.729053 
L 518.531692 237.706929 
L 517.843744 237.463593 
L 515.431895 236.865532 
L 515.036972 236.933168 
L 514.81748 237.21374 
L 514.527601 238.059906 
L 514.213402 239.697591 
L 514.171612 241.030464 
L 514.335667 241.368013 
L 514.531608 241.326172 
L 514.913338 240.937318 
L 515.924223 239.501792 
L 516.860671 238.131301 
L 516.860671 238.131301 
" style="fill:none;stroke:#000000;stroke-linecap:square;stroke-opacity:0.7;stroke-width:1.2;"/>
   </g>
   <g id="line2d_17">
    <path clip-path="url(#p0f01175720)" d="M 516.798059 191.105326 
L 517.279856 192.369458 
L 518.172512 193.971161 
L 519.070026 195.148919 
L 519.419878 195.372245 
L 519.423966 195.354613 
L 519.307792 195.050339 
L 518.615973 193.931113 
L 517.060259 191.820159 
L 516.471025 191.304286 
L 516.082478 191.250463 
L 515.620428 191.433563 
L 514.852579 192.025487 
L 514.43918 192.572932 
L 514.493279 192.787715 
L 514.864277 192.862937 
L 516.652301 192.873947 
L 517.269257 192.738287 
L 517.275065 192.514782 
L 516.875964 191.113503 
L 516.875964 191.113503 
" style="fill:none;stroke:#000000;stroke-linecap:square;stroke-opacity:0.7;stroke-width:1.2;"/>
   </g>
   <g id="line2d_18">
    <path clip-path="url(#p0f01175720)" d="M 516.705892 143.889398 
L 516.740932 143.516457 
L 516.584456 142.211882 
L 516.310401 141.280816 
L 516.180878 141.322889 
L 516.002375 141.759212 
L 515.854263 142.747801 
L 515.90263 144.10324 
L 516.162738 145.055309 
L 516.511335 145.468522 
L 516.86994 145.582722 
L 517.843199 145.599069 
L 519.792677 145.382806 
L 520.572148 145.121442 
L 520.534074 144.955967 
L 520.095127 144.63593 
L 517.137454 142.947135 
L 516.869416 142.956359 
L 516.78018 143.140123 
L 516.691728 143.837541 
L 516.76763 143.972236 
L 516.76763 143.972236 
" style="fill:none;stroke:#000000;stroke-linecap:square;stroke-opacity:0.7;stroke-width:1.2;"/>
   </g>
   <g id="line2d_19">
    <path clip-path="url(#p0f01175720)" d="M 516.769155 97.012978 
L 517.01347 97.761827 
L 517.663313 98.978593 
L 518.33463 99.795152 
L 518.498775 99.851128 
L 518.506406 99.812164 
L 518.381308 99.486207 
L 517.613026 98.228063 
L 516.775 97.216512 
L 516.420932 97.137479 
L 515.873921 97.345438 
L 515.137285 97.866274 
L 515.028316 98.125709 
L 515.27133 98.213704 
L 516.809315 98.378641 
L 517.217482 98.283134 
L 517.175275 98.029858 
L 516.86192 97.048123 
L 516.86192 97.048123 
" style="fill:none;stroke:#000000;stroke-linecap:square;stroke-opacity:0.7;stroke-width:1.2;"/>
   </g>
   <g id="line2d_20">
    <path clip-path="url(#p0f01175720)" d="M 516.78243 49.989582 
L 517.015032 52.076222 
L 517.531548 54.366285 
L 518.181242 56.277001 
L 518.632753 57.033608 
L 518.726496 57.014832 
L 518.733986 56.995504 
L 518.726743 56.644455 
L 518.508409 55.754535 
L 517.838535 54.015931 
L 517.202324 52.955633 
L 517.125637 52.817238 
L 517.201196 52.795219 
L 518.405525 52.665658 
L 518.589312 52.277963 
L 518.703752 51.528142 
L 518.677487 50.29479 
L 518.487272 49.630499 
L 518.249176 49.475974 
L 517.820477 49.537092 
L 516.870949 49.937284 
L 516.870949 49.937284 
" style="fill:none;stroke:#000000;stroke-linecap:square;stroke-opacity:0.7;stroke-width:1.2;"/>
   </g>
   <g id="line2d_21">
    <path clip-path="url(#p0f01175720)" d="M 673.537582 238.046085 
L 673.451238 238.199788 
L 673.387377 238.72916 
L 673.542358 239.099492 
L 673.569393 239.105793 
L 673.572793 238.985284 
L 673.371995 238.08567 
L 673.153257 238.067425 
L 672.676528 238.240396 
L 672.68031 238.250023 
L 673.1655 238.759013 
L 673.420757 238.803859 
L 673.488498 238.630663 
L 673.624284 238.084945 
L 673.624284 238.084945 
" style="fill:none;stroke:#000000;stroke-linecap:square;stroke-opacity:0.7;stroke-width:1.2;"/>
   </g>
   <g id="line2d_22">
    <path clip-path="url(#p0f01175720)" d="M 673.477495 190.994668 
L 673.081444 191.881255 
L 672.999345 192.54225 
L 673.132837 192.677895 
L 673.368272 192.471782 
L 673.673623 192.325411 
L 674.769454 192.130741 
L 674.870074 191.876232 
L 674.758295 191.307216 
L 674.367625 190.374401 
L 674.193218 190.428141 
L 673.600927 190.932392 
L 673.57304 191.042549 
L 673.57304 191.042549 
" style="fill:none;stroke:#000000;stroke-linecap:square;stroke-opacity:0.7;stroke-width:1.2;"/>
   </g>
   <g id="line2d_23">
    <path clip-path="url(#p0f01175720)" d="M 673.530309 144.006768 
L 673.8026 145.967712 
L 674.302037 148.048201 
L 675.014 150.080592 
L 675.434366 150.749278 
L 675.488009 150.70275 
L 675.490909 150.669213 
L 675.35078 150.029766 
L 674.665754 148.294481 
L 674.170436 146.997761 
L 674.435955 146.619088 
L 675.243358 145.769484 
L 675.20849 145.083472 
L 674.918739 143.90428 
L 674.640431 143.463105 
L 674.453505 143.463823 
L 673.846983 143.775362 
L 673.598991 144.022531 
L 673.598991 144.022531 
" style="fill:none;stroke:#000000;stroke-linecap:square;stroke-opacity:0.7;stroke-width:1.2;"/>
   </g>
   <g id="line2d_24">
    <path clip-path="url(#p0f01175720)" d="M 673.573197 97.023734 
L 673.835487 98.393911 
L 674.409683 100.183199 
L 675.0301 101.46429 
L 675.190649 101.580703 
L 675.20355 101.553601 
L 675.173316 101.231747 
L 674.722874 99.668014 
L 674.04255 97.978546 
L 673.668054 97.569317 
L 673.200899 97.43889 
L 672.10521 97.434906 
L 671.40632 97.583257 
L 671.408323 97.598176 
L 671.591901 97.771446 
L 672.858312 98.565553 
L 673.379439 98.70252 
L 673.490284 98.51395 
L 673.554122 97.566141 
L 673.625069 97.035603 
L 673.625069 97.035603 
" style="fill:none;stroke:#000000;stroke-linecap:square;stroke-opacity:0.7;stroke-width:1.2;"/>
   </g>
   <g id="line2d_25">
    <path clip-path="url(#p0f01175720)" d="M 673.495935 49.905578 
L 673.747791 49.371258 
L 674.325222 47.557357 
L 674.438272 46.674321 
L 674.296954 46.642084 
L 673.896777 47.012671 
L 673.434024 47.744351 
L 673.176465 48.55135 
L 673.223741 48.990282 
L 673.479939 49.246309 
L 673.688526 49.261213 
L 673.536356 49.40786 
L 672.673889 50.462425 
L 672.564891 50.824685 
L 672.724692 50.795251 
L 673.111932 50.412833 
L 673.575178 49.947913 
L 673.575178 49.947913 
" style="fill:none;stroke:#000000;stroke-linecap:square;stroke-opacity:0.7;stroke-width:1.2;"/>
   </g>
  </g>
 </g>
 <defs>
  <clipPath id="p0f01175720">
   <rect height="262.08" width="694.08" x="12.96" y="12.96"/>
  </clipPath>
 </defs>
</svg>
