<?xml version="1.0" encoding="utf-8" standalone="no"?>
<!DOCTYPE svg PUBLIC "-//W3C//DTD SVG 1.1//EN"
  "http://www.w3.org/Graphics/SVG/1.1/DTD/svg11.dtd">
<!-- Created with matplotlib (https://matplotlib.org/) -->
<svg height="288pt" version="1.1" viewBox="0 0 720 288" width="720pt" xmlns="http://www.w3.org/2000/svg" xmlns:xlink="http://www.w3.org/1999/xlink">
 <metadata>
  <rdf:RDF xmlns:cc="http://creativecommons.org/ns#" xmlns:dc="http://purl.org/dc/elements/1.1/" xmlns:rdf="http://www.w3.org/1999/02/22-rdf-syntax-ns#">
   <cc:Work>
    <dc:type rdf:resource="http://purl.org/dc/dcmitype/StillImage"/>
    <dc:date>2020-12-21T15:37:54.740184</dc:date>
    <dc:format>image/svg+xml</dc:format>
    <dc:creator>
     <cc:Agent>
      <dc:title>Matplotlib v3.3.2, https://matplotlib.org/</dc:title>
     </cc:Agent>
    </dc:creator>
   </cc:Work>
  </rdf:RDF>
 </metadata>
 <defs>
  <style type="text/css">*{stroke-linecap:butt;stroke-linejoin:round;}</style>
 </defs>
 <g id="figure_1">
  <g id="patch_1">
   <path d="M 0 288 
L 720 288 
L 720 0 
L 0 0 
z
" style="fill:#ffffff;"/>
  </g>
  <g id="axes_1">
   <g id="line2d_1">
    <path clip-path="url(#p66fd69ae09)" d="M 55.167009 237.168199 
L 54.958483 236.977039 
L 53.776847 235.54864 
L 53.396654 235.510916 
L 53.05549 235.731752 
L 52.596841 236.215633 
L 52.561331 236.180858 
L 51.369603 235.066961 
L 50.30952 234.42866 
L 49.886308 234.375925 
L 49.618096 234.535947 
L 49.400956 234.941041 
L 49.350445 235.461293 
L 49.519551 236.020259 
L 49.838514 236.376335 
L 50.420488 236.64907 
L 51.31399 236.792714 
L 54.828608 237.006366 
L 54.828608 237.006366 
" style="fill:none;stroke:#000000;stroke-linecap:square;stroke-opacity:0.7;stroke-width:1.2;"/>
   </g>
   <g id="line2d_2">
    <path clip-path="url(#p66fd69ae09)" d="M 55.361399 190.745538 
L 55.111831 190.529913 
L 54.100078 189.786829 
L 52.708405 189.040176 
L 51.520989 188.63863 
L 50.484147 188.500359 
L 48.626287 188.436923 
L 47.355863 187.697638 
L 46.41109 187.514393 
L 45.407323 187.56953 
L 44.764058 187.802694 
L 44.530207 188.103463 
L 44.544989 188.5356 
L 44.86826 189.32824 
L 45.675601 190.62148 
L 46.613555 191.701127 
L 47.450944 192.336272 
L 48.25905 192.672489 
L 49.057403 192.781824 
L 50.039419 192.69679 
L 51.25743 192.377388 
L 52.960755 191.704202 
L 55.20488 190.592241 
L 55.20488 190.592241 
" style="fill:none;stroke:#000000;stroke-linecap:square;stroke-opacity:0.7;stroke-width:1.2;"/>
   </g>
   <g id="line2d_3">
    <path clip-path="url(#p66fd69ae09)" d="M 54.867596 143.361913 
L 54.637998 143.087537 
L 53.74592 142.175724 
L 52.693187 141.367534 
L 51.613358 140.763076 
L 50.399383 140.327362 
L 49.43981 140.158736 
L 48.078688 140.183126 
L 46.852854 140.481782 
L 45.966082 140.921635 
L 45.595098 141.298258 
L 45.528191 141.682102 
L 45.68515 142.171039 
L 46.241434 143.055238 
L 46.892676 143.751884 
L 47.644973 144.24802 
L 48.282103 144.418737 
L 48.931106 144.351893 
L 49.620849 144.004974 
L 50.194069 143.487457 
L 51.33882 142.31081 
L 51.986969 142.41914 
L 53.814759 142.913974 
L 54.510533 143.279733 
L 54.510533 143.279733 
" style="fill:none;stroke:#000000;stroke-linecap:square;stroke-opacity:0.7;stroke-width:1.2;"/>
   </g>
   <g id="line2d_4">
    <path clip-path="url(#p66fd69ae09)" d="M 55.235582 97.913754 
L 54.900497 97.692416 
L 53.686865 97.028882 
L 52.850267 96.769421 
L 52.170392 96.79438 
L 51.812298 97.057285 
L 51.677845 97.410073 
L 51.719186 97.902328 
L 51.915255 98.093489 
L 52.074771 97.902712 
L 52.586786 96.568031 
L 52.504679 96.238629 
L 52.179058 95.888495 
L 51.630014 95.597445 
L 51.25168 95.593462 
L 51.326595 95.712494 
L 51.874404 95.997919 
L 53.967853 97.0839 
L 54.986528 97.760605 
L 54.986528 97.760605 
" style="fill:none;stroke:#000000;stroke-linecap:square;stroke-opacity:0.7;stroke-width:1.2;"/>
   </g>
   <g id="line2d_5">
    <path clip-path="url(#p66fd69ae09)" d="M 55.235856 51.029916 
L 54.928158 50.793308 
L 53.74902 50.000439 
L 52.576368 49.429322 
L 51.60453 49.199152 
L 51.055922 49.30182 
L 50.848896 49.535072 
L 50.898811 49.770505 
L 50.977581 49.686388 
L 50.929295 49.304318 
L 50.571046 48.673319 
L 49.920421 48.024766 
L 49.143982 47.539451 
L 48.282287 47.274743 
L 47.662778 47.324625 
L 47.175515 47.626865 
L 46.87363 48.040191 
L 46.598866 48.762528 
L 46.440654 49.818865 
L 46.492694 51.128852 
L 46.795407 52.313334 
L 47.142282 52.952869 
L 47.644197 53.440098 
L 48.251419 53.691148 
L 49.002766 53.732242 
L 49.925184 53.561207 
L 51.200985 53.105515 
L 52.764547 52.345107 
L 54.766901 51.111631 
L 55.006491 50.937536 
L 55.006491 50.937536 
" style="fill:none;stroke:#000000;stroke-linecap:square;stroke-opacity:0.7;stroke-width:1.2;"/>
   </g>
   <g id="line2d_6">
    <path clip-path="url(#p66fd69ae09)" d="M 210.25637 237.207202 
L 209.953217 236.956721 
L 208.915528 236.127148 
L 207.838775 235.566814 
L 207.274498 235.506348 
L 206.919582 235.673747 
L 206.731984 235.962742 
L 206.666647 236.605804 
L 206.833274 237.109271 
L 207.017517 237.164541 
L 207.101438 236.879492 
L 207.047753 236.295803 
L 206.797413 235.548255 
L 206.281761 234.751861 
L 205.692906 234.243138 
L 204.984571 233.923559 
L 204.215948 233.820713 
L 203.357957 233.94163 
L 202.733233 234.171113 
L 201.686383 234.839969 
L 200.927043 235.644043 
L 200.56967 236.241915 
L 200.373017 237.020852 
L 200.483849 237.495887 
L 200.80494 237.832532 
L 201.38439 238.057758 
L 202.236077 238.151527 
L 203.829329 238.083301 
L 206.941652 237.669686 
L 210.004463 237.170269 
L 210.004463 237.170269 
" style="fill:none;stroke:#000000;stroke-linecap:square;stroke-opacity:0.7;stroke-width:1.2;"/>
   </g>
   <g id="line2d_7">
    <path clip-path="url(#p66fd69ae09)" d="M 210.067474 190.550068 
L 209.747219 190.406335 
L 207.970168 189.542963 
L 207.172691 189.404389 
L 206.897694 189.540317 
L 206.838799 189.799822 
L 207.015687 190.160267 
L 207.312443 190.360274 
L 207.662688 190.361686 
L 207.954961 190.150747 
L 208.152604 189.724139 
L 208.156052 189.257257 
L 207.932042 188.779532 
L 207.49492 188.41469 
L 206.943074 188.197321 
L 206.204348 188.127683 
L 205.411471 188.294986 
L 204.880846 188.576354 
L 204.368605 189.093236 
L 204.180456 189.557073 
L 204.229285 189.930177 
L 204.468232 190.188722 
L 204.963023 190.368892 
L 206.012252 190.452632 
L 209.708024 190.438656 
L 209.708024 190.438656 
" style="fill:none;stroke:#000000;stroke-linecap:square;stroke-opacity:0.7;stroke-width:1.2;"/>
   </g>
   <g id="line2d_8">
    <path clip-path="url(#p66fd69ae09)" d="M 209.457998 144.053962 
L 209.293951 143.888307 
L 208.217127 142.631091 
L 207.330706 141.97976 
L 206.586485 141.684489 
L 205.974104 141.673543 
L 205.844964 141.839737 
L 206.007507 142.05469 
L 207.802008 143.531507 
L 207.984865 143.484057 
L 207.895161 143.219622 
L 207.487699 142.751158 
L 206.520638 142.046936 
L 205.252203 141.436085 
L 204.061509 141.089425 
L 203.305917 141.052337 
L 203.198777 141.18964 
L 203.456567 141.439197 
L 204.349525 141.925598 
L 206.728506 142.936827 
L 209.215074 143.828322 
L 209.215074 143.828322 
" style="fill:none;stroke:#000000;stroke-linecap:square;stroke-opacity:0.7;stroke-width:1.2;"/>
   </g>
   <g id="line2d_9">
    <path clip-path="url(#p66fd69ae09)" d="M 209.679879 97.456946 
L 208.738769 97.025637 
L 207.346035 96.635644 
L 205.836875 96.457883 
L 204.55569 96.530108 
L 203.566098 96.804336 
L 203.274649 96.94917 
L 203.349767 96.823804 
L 203.567521 96.32027 
L 203.740086 95.345139 
L 203.673201 94.497968 
L 203.538042 94.368618 
L 203.516915 94.377849 
L 203.120384 94.686948 
L 202.642423 95.310187 
L 202.338664 96.047624 
L 202.287112 96.552118 
L 202.467537 97.104004 
L 202.827154 97.413709 
L 203.4785 97.615173 
L 204.600346 97.666237 
L 207.327698 97.44107 
L 209.338282 97.33512 
L 209.338282 97.33512 
" style="fill:none;stroke:#000000;stroke-linecap:square;stroke-opacity:0.7;stroke-width:1.2;"/>
   </g>
   <g id="line2d_10">
    <path clip-path="url(#p66fd69ae09)" d="M 209.860748 51.23702 
L 209.697418 51.070973 
L 208.957276 50.312923 
L 207.574728 49.27723 
L 206.522501 48.759727 
L 205.203725 48.365078 
L 204.090246 48.207849 
L 202.656983 48.214043 
L 201.660045 48.437162 
L 201.464014 48.637635 
L 201.443821 49.049307 
L 201.680038 49.66171 
L 202.057174 50.033699 
L 202.504592 50.145694 
L 203.216412 50.021577 
L 204.13029 49.867675 
L 204.746282 49.920483 
L 205.746502 50.249597 
L 208.644441 51.491758 
L 209.447285 51.52328 
L 209.924119 51.374906 
L 210.068812 51.138608 
L 209.876125 51.086051 
L 209.782441 51.114684 
L 209.782441 51.114684 
" style="fill:none;stroke:#000000;stroke-linecap:square;stroke-opacity:0.7;stroke-width:1.2;"/>
   </g>
   <g id="line2d_11">
    <path clip-path="url(#p66fd69ae09)" d="M 365.438207 237.234282 
L 365.294692 237.106994 
L 363.809634 235.787036 
L 362.930072 235.16569 
L 361.683913 234.570315 
L 360.343789 234.275762 
L 359.682143 234.043241 
L 358.32163 233.455265 
L 357.173757 233.247445 
L 356.100687 233.290032 
L 355.518776 233.498562 
L 355.309466 233.777195 
L 355.313734 234.135873 
L 355.635084 234.883125 
L 356.635903 236.355079 
L 358.148038 238.139576 
L 359.3313 239.282971 
L 360.515548 240.15445 
L 361.480494 240.597326 
L 362.400197 240.737164 
L 363.141185 240.616558 
L 363.832003 240.291494 
L 364.423626 239.8185 
L 365.031736 239.056858 
L 365.423699 238.192022 
L 365.492937 237.502213 
L 365.345395 237.183617 
L 365.345395 237.183617 
" style="fill:none;stroke:#000000;stroke-linecap:square;stroke-opacity:0.7;stroke-width:1.2;"/>
   </g>
   <g id="line2d_12">
    <path clip-path="url(#p66fd69ae09)" d="M 364.751495 190.390149 
L 364.633146 190.255721 
L 363.731363 189.223554 
L 362.399905 188.04075 
L 360.944326 187.074318 
L 359.482497 186.378508 
L 357.862512 185.867228 
L 356.83893 185.752416 
L 356.299893 185.884796 
L 355.843931 186.223134 
L 355.452822 186.816158 
L 355.219614 187.589589 
L 355.224433 188.241978 
L 355.418029 188.667352 
L 355.737379 188.867411 
L 356.221571 188.897345 
L 357.519652 188.871654 
L 358.084254 189.161854 
L 359.181126 189.817132 
L 360.054771 190.008707 
L 362.021065 190.143969 
L 364.439044 190.357318 
L 364.439044 190.357318 
" style="fill:none;stroke:#000000;stroke-linecap:square;stroke-opacity:0.7;stroke-width:1.2;"/>
   </g>
   <g id="line2d_13">
    <path clip-path="url(#p66fd69ae09)" d="M 364.992659 143.539208 
L 364.788335 143.359696 
L 363.122885 141.807793 
L 361.624464 140.669395 
L 360.43843 140.055824 
L 359.735602 139.92045 
L 359.382711 139.987368 
L 359.114995 140.24224 
L 358.663431 141.069078 
L 358.307502 141.4042 
L 357.003276 142.114911 
L 356.54088 142.655526 
L 356.196098 143.401514 
L 356.189132 143.956009 
L 356.39272 144.269601 
L 356.761564 144.453364 
L 357.526071 144.535537 
L 358.936099 144.422972 
L 362.091471 143.905957 
L 364.711218 143.401721 
L 364.711218 143.401721 
" style="fill:none;stroke:#000000;stroke-linecap:square;stroke-opacity:0.7;stroke-width:1.2;"/>
   </g>
   <g id="line2d_14">
    <path clip-path="url(#p66fd69ae09)" d="M 365.2998 97.638454 
L 365.067656 97.463487 
L 364.184797 96.807425 
L 362.39904 95.766684 
L 360.313463 94.87448 
L 358.689975 94.369121 
L 356.255861 93.863798 
L 354.115299 93.653147 
L 353.471528 93.812172 
L 353.111764 94.123045 
L 352.709679 94.828848 
L 352.427055 95.798554 
L 352.349494 96.854595 
L 352.497595 97.52892 
L 352.811498 97.914952 
L 353.17475 98.050599 
L 353.953931 98.040591 
L 355.685136 97.936252 
L 357.169618 98.116031 
L 358.762086 98.255684 
L 360.304709 98.119978 
L 365.031972 97.475291 
L 365.031972 97.475291 
" style="fill:none;stroke:#000000;stroke-linecap:square;stroke-opacity:0.7;stroke-width:1.2;"/>
   </g>
   <g id="line2d_15">
    <path clip-path="url(#p66fd69ae09)" d="M 365.139034 50.966827 
L 364.832068 50.764092 
L 362.935471 49.402581 
L 362.132037 49.08601 
L 361.593591 49.084473 
L 361.380332 49.301798 
L 361.420062 49.344592 
L 361.481185 49.271975 
L 361.476847 49.052492 
L 361.316532 48.674583 
L 360.794033 48.085705 
L 360.081161 47.649511 
L 359.371898 47.467049 
L 358.755415 47.52546 
L 358.11102 47.823414 
L 357.453875 48.379985 
L 356.854743 49.127193 
L 356.125554 50.48789 
L 355.805731 51.524899 
L 355.7381 52.262809 
L 355.899013 52.895803 
L 356.232775 53.223357 
L 356.7186 53.36692 
L 357.560782 53.336477 
L 359.098269 52.976336 
L 361.425819 52.174708 
L 364.707681 50.811143 
L 364.707681 50.811143 
" style="fill:none;stroke:#000000;stroke-linecap:square;stroke-opacity:0.7;stroke-width:1.2;"/>
   </g>
   <g id="line2d_16">
    <path clip-path="url(#p66fd69ae09)" d="M 520.028576 237.220018 
L 519.855749 237.110867 
L 518.876216 236.087007 
L 517.984115 235.325594 
L 517.290234 235.019592 
L 516.766319 235.031033 
L 516.444718 235.221677 
L 516.469508 235.285106 
L 516.351603 235.142386 
L 515.758202 234.733368 
L 514.906456 234.436051 
L 514.219363 234.407107 
L 514.104119 234.531269 
L 514.109851 234.544159 
L 514.348543 234.739237 
L 515.33992 235.20144 
L 519.704873 237.063151 
L 519.704873 237.063151 
" style="fill:none;stroke:#000000;stroke-linecap:square;stroke-opacity:0.7;stroke-width:1.2;"/>
   </g>
   <g id="line2d_17">
    <path clip-path="url(#p66fd69ae09)" d="M 519.940461 190.718376 
L 519.642005 190.616535 
L 517.091771 189.645291 
L 516.06348 189.508588 
L 515.611188 189.621537 
L 515.856713 189.41756 
L 516.201658 189.281189 
L 516.61776 189.433842 
L 517.142983 189.60215 
L 517.30074 189.4896 
L 517.291834 189.226251 
L 517.026553 188.769251 
L 516.475192 188.273559 
L 515.869898 188.011652 
L 515.845508 188.056286 
L 515.867452 188.094668 
L 516.315047 188.472237 
L 518.898408 190.191893 
L 519.562093 190.605988 
L 519.562093 190.605988 
" style="fill:none;stroke:#000000;stroke-linecap:square;stroke-opacity:0.7;stroke-width:1.2;"/>
   </g>
   <g id="line2d_18">
    <path clip-path="url(#p66fd69ae09)" d="M 519.768117 144.345019 
L 519.315064 144.202765 
L 516.139873 143.277848 
L 507.681243 140.985183 
L 507.324457 140.916705 
L 507.213888 141.117969 
L 507.202624 141.730018 
L 507.406564 142.510507 
L 507.745323 142.977463 
L 508.128738 143.150131 
L 509.653719 143.454485 
L 511.098163 144.240082 
L 512.091462 144.392913 
L 513.627063 144.374967 
L 519.590275 144.097421 
L 519.590275 144.097421 
" style="fill:none;stroke:#000000;stroke-linecap:square;stroke-opacity:0.7;stroke-width:1.2;"/>
   </g>
   <g id="line2d_19">
    <path clip-path="url(#p66fd69ae09)" d="M 520.223177 97.627834 
L 519.704396 97.426067 
L 514.150231 95.177127 
L 510.672353 94.104153 
L 509.241822 93.787619 
L 509.072435 93.970347 
L 509.052901 94.360155 
L 509.254025 95.204872 
L 509.701357 96.066618 
L 510.152944 96.540374 
L 510.730968 96.822015 
L 511.304239 96.863789 
L 512.215538 96.665673 
L 514.163543 96.153655 
L 515.103822 96.162073 
L 516.493654 96.490928 
L 519.890298 97.447855 
L 519.890298 97.447855 
" style="fill:none;stroke:#000000;stroke-linecap:square;stroke-opacity:0.7;stroke-width:1.2;"/>
   </g>
   <g id="line2d_20">
    <path clip-path="url(#p66fd69ae09)" d="M 520.136703 51.011387 
L 519.725723 50.694897 
L 518.625665 49.933366 
L 517.39271 49.359994 
L 516.478525 49.127437 
L 515.53938 49.111775 
L 515.35611 49.196483 
L 515.594033 49.208996 
L 516.193798 49.243801 
L 516.457619 49.623698 
L 516.72133 49.814275 
L 516.837022 49.677874 
L 516.81347 49.280519 
L 516.992351 49.345863 
L 519.247706 50.321903 
L 519.700959 50.782761 
L 519.700959 50.782761 
" style="fill:none;stroke:#000000;stroke-linecap:square;stroke-opacity:0.7;stroke-width:1.2;"/>
   </g>
   <g id="line2d_21">
    <path clip-path="url(#p66fd69ae09)" d="M 675.070221 236.894917 
L 674.994053 236.797245 
L 674.062765 235.002489 
L 673.306031 234.091719 
L 672.462544 233.411429 
L 671.353163 232.841177 
L 670.039764 232.439801 
L 668.50604 232.193142 
L 666.894614 232.154731 
L 665.432874 232.377909 
L 664.199106 232.815996 
L 662.791313 233.642095 
L 661.443144 234.831765 
L 660.561013 235.973955 
L 660.194486 236.794207 
L 660.209202 237.267837 
L 660.418204 237.477246 
L 661.001531 237.607225 
L 663.933111 237.894158 
L 666.704177 238.531225 
L 668.145525 238.743605 
L 669.284962 238.681077 
L 670.502651 238.40237 
L 672.604728 237.651659 
L 674.802486 236.833927 
L 674.802486 236.833927 
" style="fill:none;stroke:#000000;stroke-linecap:square;stroke-opacity:0.7;stroke-width:1.2;"/>
   </g>
   <g id="line2d_22">
    <path clip-path="url(#p66fd69ae09)" d="M 674.971159 190.157244 
L 674.565176 189.889623 
L 672.903524 188.818645 
L 671.790543 188.3369 
L 671.020645 188.250071 
L 670.678483 188.417721 
L 670.623383 188.698076 
L 670.858542 188.995445 
L 671.259382 189.139112 
L 671.757506 189.073206 
L 672.09071 188.791299 
L 672.099927 188.575866 
L 671.86687 188.427211 
L 669.979609 187.931933 
L 668.982652 187.918178 
L 668.257961 188.11143 
L 667.911471 188.402747 
L 667.905056 188.666856 
L 668.145969 188.906561 
L 668.764333 189.161019 
L 670.118341 189.443857 
L 674.587522 190.069173 
L 674.587522 190.069173 
" style="fill:none;stroke:#000000;stroke-linecap:square;stroke-opacity:0.7;stroke-width:1.2;"/>
   </g>
   <g id="line2d_23">
    <path clip-path="url(#p66fd69ae09)" d="M 674.980335 144.25904 
L 674.755032 144.033622 
L 673.878327 143.292223 
L 672.961285 142.75353 
L 671.764649 142.328437 
L 670.795992 142.204542 
L 670.076442 142.249457 
L 668.999814 142.581232 
L 668.845955 142.621638 
L 668.892515 142.511416 
L 669.285779 142.033825 
L 669.604294 142.028407 
L 670.004672 141.977032 
L 670.127728 141.77613 
L 670.048899 141.497822 
L 669.78507 141.280556 
L 669.344733 141.198982 
L 669.048336 141.338199 
L 669.038103 141.528495 
L 669.302856 141.794164 
L 670.218064 142.244786 
L 674.567482 144.033503 
L 674.567482 144.033503 
" style="fill:none;stroke:#000000;stroke-linecap:square;stroke-opacity:0.7;stroke-width:1.2;"/>
   </g>
   <g id="line2d_24">
    <path clip-path="url(#p66fd69ae09)" d="M 675.490909 97.715557 
L 675.294357 97.567782 
L 672.981954 95.341495 
L 672.094709 94.885663 
L 671.096521 94.617643 
L 669.896009 94.522905 
L 666.282 94.570496 
L 665.38205 94.864938 
L 664.934721 95.189181 
L 664.888974 95.4425 
L 665.128036 95.625938 
L 668.100688 97.211166 
L 670.717057 98.688626 
L 671.83197 99.08471 
L 672.734891 99.195693 
L 673.69592 99.050031 
L 674.472005 98.695759 
L 675.12344 98.140924 
L 675.320569 97.707146 
L 675.25487 97.632438 
L 675.254937 97.632763 
" style="fill:none;stroke:#000000;stroke-linecap:square;stroke-opacity:0.7;stroke-width:1.2;"/>
   </g>
   <g id="line2d_25">
    <path clip-path="url(#p66fd69ae09)" d="M 674.995546 51.278756 
L 674.548394 51.134802 
L 671.63895 50.152494 
L 669.54082 49.699433 
L 667.880477 49.606019 
L 666.831639 49.591761 
L 666.839887 49.560527 
L 667.090874 49.459544 
L 667.689412 49.528058 
L 670.036305 50.035872 
L 670.416686 49.881437 
L 670.695057 49.534156 
L 670.781166 49.062219 
L 670.640807 48.485277 
L 670.287433 48.03048 
L 670.054491 47.958469 
L 670.044114 47.990517 
L 670.150119 48.173725 
L 670.779392 48.707022 
L 672.685726 49.956308 
L 674.606277 51.089577 
L 674.606277 51.089577 
" style="fill:none;stroke:#000000;stroke-linecap:square;stroke-opacity:0.7;stroke-width:1.2;"/>
   </g>
  </g>
 </g>
 <defs>
  <clipPath id="p66fd69ae09">
   <rect height="262.08" width="694.08" x="12.96" y="12.96"/>
  </clipPath>
 </defs>
</svg>
