<?xml version="1.0" encoding="utf-8" standalone="no"?>
<!DOCTYPE svg PUBLIC "-//W3C//DTD SVG 1.1//EN"
  "http://www.w3.org/Graphics/SVG/1.1/DTD/svg11.dtd">
<!-- Created with matplotlib (https://matplotlib.org/) -->
<svg height="288pt" version="1.1" viewBox="0 0 720 288" width="720pt" xmlns="http://www.w3.org/2000/svg" xmlns:xlink="http://www.w3.org/1999/xlink">
 <metadata>
  <rdf:RDF xmlns:cc="http://creativecommons.org/ns#" xmlns:dc="http://purl.org/dc/elements/1.1/" xmlns:rdf="http://www.w3.org/1999/02/22-rdf-syntax-ns#">
   <cc:Work>
    <dc:type rdf:resource="http://purl.org/dc/dcmitype/StillImage"/>
    <dc:date>2020-12-21T15:18:04.926734</dc:date>
    <dc:format>image/svg+xml</dc:format>
    <dc:creator>
     <cc:Agent>
      <dc:title>Matplotlib v3.3.2, https://matplotlib.org/</dc:title>
     </cc:Agent>
    </dc:creator>
   </cc:Work>
  </rdf:RDF>
 </metadata>
 <defs>
  <style type="text/css">*{stroke-linecap:butt;stroke-linejoin:round;}</style>
 </defs>
 <g id="figure_1">
  <g id="patch_1">
   <path d="M 0 288 
L 720 288 
L 720 0 
L 0 0 
z
" style="fill:#ffffff;"/>
  </g>
  <g id="axes_1">
   <g id="line2d_1">
    <path clip-path="url(#p9d3df177e2)" d="M 68.374948 236.058124 
L 68.412346 235.801862 
L 68.301323 235.445674 
L 67.911289 234.813913 
L 66.893893 233.744449 
L 65.141423 232.477994 
L 64.067367 231.907648 
L 61.822192 231.14417 
L 60.055778 231.002321 
L 59.317813 231.0983 
L 57.485268 231.950426 
L 56.667971 232.887094 
L 56.27917 233.853668 
L 56.220189 234.36917 
L 56.320235 235.058122 
L 56.591375 235.561702 
L 56.894569 235.813314 
L 57.241059 235.892785 
L 57.562531 235.745264 
L 57.691933 235.548823 
L 57.74996 234.983127 
L 57.453051 234.132725 
L 56.980903 233.440404 
L 56.364469 232.795917 
L 55.194362 231.947405 
L 54.134713 231.52734 
L 53.526209 231.50766 
L 53.10162 231.689579 
L 52.774821 232.103654 
L 52.597422 232.736378 
L 52.589071 233.725356 
L 52.767447 234.766514 
L 53.246914 236.184763 
L 53.779745 237.199744 
L 54.555492 238.208141 
L 55.284637 238.845363 
L 56.276331 239.394081 
L 57.201098 239.673862 
L 58.190217 239.795148 
L 59.695354 239.72313 
L 61.40215 239.365978 
L 63.256413 238.720723 
L 65.13031 237.823248 
L 66.749966 236.812823 
L 67.688307 236.036438 
L 67.688307 236.036438 
" style="fill:none;stroke:#000000;stroke-linecap:square;stroke-opacity:0.7;stroke-width:1.2;"/>
   </g>
   <g id="line2d_2">
    <path clip-path="url(#p9d3df177e2)" d="M 67.71515 190.718703 
L 67.688076 190.496701 
L 67.45365 190.136232 
L 66.97052 189.66989 
L 66.52575 189.340363 
L 65.383864 188.694572 
L 63.37033 187.963508 
L 62.70318 187.810134 
L 60.417442 187.608594 
L 59.288865 187.714786 
L 58.1121 188.00554 
L 56.767343 188.637373 
L 55.753985 189.448177 
L 55.40496 189.851135 
L 54.939776 190.653247 
L 54.79692 191.416514 
L 54.976564 191.903926 
L 55.288519 192.102323 
L 55.554523 192.133164 
L 56.240137 191.91088 
L 56.80127 191.450484 
L 57.31345 190.699147 
L 57.617072 189.796391 
L 57.679484 188.785046 
L 57.526989 187.906164 
L 57.091691 186.875364 
L 56.55865 186.150573 
L 55.89775 185.623982 
L 55.415426 185.448133 
L 54.921574 185.461345 
L 54.525719 185.642691 
L 54.106924 186.057643 
L 53.717801 186.761444 
L 53.450171 187.586336 
L 53.209652 189.212442 
L 53.219535 190.775265 
L 53.463629 192.371753 
L 53.951961 193.769867 
L 54.552022 194.697104 
L 55.203959 195.270594 
L 55.902817 195.598817 
L 56.572687 195.732069 
L 57.71392 195.688371 
L 58.730751 195.45323 
L 60.304768 194.847095 
L 62.249834 193.821083 
L 64.531365 192.341484 
L 66.563483 190.775996 
L 66.971 190.402924 
L 66.971 190.402924 
" style="fill:none;stroke:#000000;stroke-linecap:square;stroke-opacity:0.7;stroke-width:1.2;"/>
   </g>
   <g id="line2d_3">
    <path clip-path="url(#p9d3df177e2)" d="M 68.00361 145.542404 
L 68.104264 145.153412 
L 68.040032 144.590634 
L 67.88339 144.182035 
L 67.511028 143.596934 
L 66.526928 142.679678 
L 64.731366 141.78331 
L 63.09054 141.408145 
L 61.202432 141.342645 
L 59.44251 141.585124 
L 57.716007 142.112895 
L 56.173511 142.794503 
L 56.174413 142.652349 
L 56.134796 141.857886 
L 55.87677 141.111118 
L 55.451428 140.47709 
L 54.838094 139.957953 
L 54.21166 139.736429 
L 53.753753 139.761273 
L 53.192359 140.031022 
L 52.658924 140.578357 
L 52.146866 141.451321 
L 51.61036 142.941292 
L 51.269053 144.641249 
L 51.158319 146.141904 
L 51.287207 147.787487 
L 51.610023 148.862513 
L 52.012151 149.534177 
L 52.560145 150.041797 
L 53.287965 150.378632 
L 53.937145 150.501555 
L 54.973142 150.495355 
L 56.4271 150.2344 
L 58.768906 149.46407 
L 60.975423 148.501725 
L 63.930148 146.973844 
L 66.816916 145.212197 
L 66.957689 145.113017 
L 66.957689 145.113017 
" style="fill:none;stroke:#000000;stroke-linecap:square;stroke-opacity:0.7;stroke-width:1.2;"/>
   </g>
   <g id="line2d_4">
    <path clip-path="url(#p9d3df177e2)" d="M 66.304593 99.663905 
L 66.299012 99.559495 
L 66.029573 99.308789 
L 65.001484 98.727925 
L 63.266381 98.011065 
L 60.21429 97.052349 
L 55.912193 96.019289 
L 50.22163 94.86897 
L 49.954977 94.979616 
L 49.995648 95.196911 
L 50.516552 96.00778 
L 51.494459 97.122687 
L 52.340298 97.75155 
L 53.223982 98.097041 
L 54.066385 98.162903 
L 54.811794 98.009587 
L 55.59926 97.587935 
L 56.152658 97.026534 
L 56.457329 96.39775 
L 56.447396 95.937637 
L 56.277656 95.804248 
L 56.176955 95.900371 
L 56.248133 96.210551 
L 56.660311 96.673801 
L 57.547001 97.256091 
L 58.898913 97.860422 
L 60.729554 98.443038 
L 62.940069 98.928799 
L 65.23482 99.217018 
L 66.018127 99.24494 
L 66.018127 99.24494 
" style="fill:none;stroke:#000000;stroke-linecap:square;stroke-opacity:0.7;stroke-width:1.2;"/>
   </g>
   <g id="line2d_5">
    <path clip-path="url(#p9d3df177e2)" d="M 66.358408 54.530203 
L 66.331603 54.495885 
L 65.58558 54.153517 
L 63.1038 53.315392 
L 60.184519 52.549654 
L 57.980806 52.138896 
L 55.343324 51.88598 
L 52.805068 51.890102 
L 48.921023 52.205497 
L 45.922752 52.584342 
L 44.555349 52.926631 
L 44.509091 53.087443 
L 44.670062 53.252347 
L 45.723316 53.786775 
L 47.501314 54.420383 
L 48.559261 54.569215 
L 49.106936 54.43991 
L 49.648549 54.04395 
L 50.268989 53.603408 
L 50.698761 53.553379 
L 51.1765 53.737572 
L 51.912775 54.36464 
L 52.86494 55.155721 
L 53.593071 55.487746 
L 54.405175 55.677103 
L 56.466593 55.759965 
L 58.84926 55.539107 
L 62.215763 54.957128 
L 65.877847 54.105676 
L 65.877847 54.105676 
" style="fill:none;stroke:#000000;stroke-linecap:square;stroke-opacity:0.7;stroke-width:1.2;"/>
   </g>
   <g id="line2d_6">
    <path clip-path="url(#p9d3df177e2)" d="M 219.500161 236.251502 
L 219.62081 236.003634 
L 219.562209 235.682235 
L 219.247488 235.248219 
L 218.718998 234.827943 
L 217.987301 234.421849 
L 216.912907 233.992606 
L 215.054595 233.507548 
L 213.010446 233.220075 
L 210.298235 233.13759 
L 207.424084 233.3684 
L 204.922254 233.833192 
L 204.243395 234.013199 
L 204.856516 233.74103 
L 205.823989 233.130673 
L 206.372214 232.541089 
L 206.585329 232.004597 
L 206.505821 231.914116 
L 206.475183 231.922011 
L 206.25351 232.106399 
L 205.826426 232.74683 
L 205.305945 233.898091 
L 204.897309 235.328972 
L 204.789285 236.45796 
L 204.91554 237.246593 
L 205.218926 237.809464 
L 205.656357 238.19343 
L 206.128907 238.419822 
L 207.198721 238.637 
L 208.591642 238.640578 
L 210.025415 238.479802 
L 212.953412 237.867395 
L 216.093312 236.933725 
L 218.928429 235.860698 
L 218.928429 235.860698 
" style="fill:none;stroke:#000000;stroke-linecap:square;stroke-opacity:0.7;stroke-width:1.2;"/>
   </g>
   <g id="line2d_7">
    <path clip-path="url(#p9d3df177e2)" d="M 219.72789 190.797856 
L 219.741198 190.664582 
L 219.464202 190.387786 
L 218.600063 189.862948 
L 217.057092 189.181818 
L 214.97923 188.523026 
L 213.136029 188.146317 
L 210.939516 187.960886 
L 208.993078 188.056053 
L 207.202484 188.371086 
L 205.345913 188.735815 
L 205.310472 188.558111 
L 205.560382 188.210238 
L 205.941932 188.02879 
L 206.890037 187.897233 
L 208.266805 187.918984 
L 209.733785 188.169778 
L 212.091102 188.84076 
L 216.428247 190.037261 
L 218.872592 190.49702 
L 219.143938 190.519604 
L 219.143938 190.519604 
" style="fill:none;stroke:#000000;stroke-linecap:square;stroke-opacity:0.7;stroke-width:1.2;"/>
   </g>
   <g id="line2d_8">
    <path clip-path="url(#p9d3df177e2)" d="M 218.493921 144.6418 
L 218.333362 144.40119 
L 217.62754 143.759325 
L 216.674617 143.094398 
L 215.74986 142.554596 
L 213.260526 141.438168 
L 211.308102 140.847932 
L 209.275666 140.484406 
L 207.368783 140.362982 
L 205.081864 140.460192 
L 204.4695 140.592901 
L 204.524048 140.637714 
L 205.388006 140.893781 
L 206.970088 141.211074 
L 207.284017 141.099949 
L 207.469072 140.964553 
L 208.23189 141.40942 
L 211.514239 143.332885 
L 213.051464 143.80458 
L 215.282178 144.229064 
L 217.477529 144.422717 
L 218.003062 144.436942 
L 218.003062 144.436942 
" style="fill:none;stroke:#000000;stroke-linecap:square;stroke-opacity:0.7;stroke-width:1.2;"/>
   </g>
   <g id="line2d_9">
    <path clip-path="url(#p9d3df177e2)" d="M 218.027997 99.253871 
L 215.356654 97.459797 
L 212.757695 95.969884 
L 211.094845 95.274448 
L 210.407446 95.193897 
L 210.41192 95.24712 
L 210.475623 95.272782 
L 210.804954 95.274499 
L 211.375111 95.051048 
L 211.50358 94.80468 
L 211.373407 94.662671 
L 210.758303 94.443277 
L 209.188375 94.186355 
L 207.640321 94.12116 
L 206.942662 94.291048 
L 206.700995 94.582359 
L 206.69704 94.898008 
L 206.960484 95.533528 
L 207.784927 96.683086 
L 208.62764 97.515909 
L 209.420709 97.995564 
L 210.349191 98.341815 
L 212.208513 98.765112 
L 214.676509 99.070605 
L 217.079226 99.147078 
L 217.544733 99.131752 
L 217.544733 99.131752 
" style="fill:none;stroke:#000000;stroke-linecap:square;stroke-opacity:0.7;stroke-width:1.2;"/>
   </g>
   <g id="line2d_10">
    <path clip-path="url(#p9d3df177e2)" d="M 218.557774 53.810207 
L 218.377945 53.70621 
L 214.633631 52.010316 
L 210.185978 49.925321 
L 209.116845 49.172832 
L 208.17162 48.444991 
L 207.768362 48.416344 
L 207.096959 48.577547 
L 204.910694 49.447202 
L 203.502954 50.156884 
L 203.087857 50.577776 
L 203.040049 50.942605 
L 203.214062 51.30763 
L 203.762273 51.889377 
L 205.079057 52.890734 
L 206.560373 53.752515 
L 207.850191 54.236407 
L 209.296718 54.503628 
L 211.05024 54.57845 
L 213.830317 54.406954 
L 217.060439 53.958169 
L 218.267817 53.738087 
L 218.267817 53.738087 
" style="fill:none;stroke:#000000;stroke-linecap:square;stroke-opacity:0.7;stroke-width:1.2;"/>
   </g>
   <g id="line2d_11">
    <path clip-path="url(#p9d3df177e2)" d="M 370.711678 236.008777 
L 370.655494 235.842315 
L 370.24954 235.345472 
L 369.40723 234.624483 
L 368.262909 233.891 
L 366.908247 233.242051 
L 365.542881 232.766553 
L 363.002979 232.208491 
L 359.37349 231.508 
L 356.237603 230.751158 
L 355.646918 230.877174 
L 355.146475 231.196002 
L 354.798403 231.698727 
L 354.725436 232.179215 
L 354.893817 232.612724 
L 355.286634 232.952376 
L 355.951268 233.199287 
L 356.788621 233.473375 
L 356.67858 233.863186 
L 356.577596 234.476832 
L 356.741135 234.952489 
L 357.073001 235.285485 
L 357.871677 235.674173 
L 359.102753 235.964688 
L 360.93628 236.149982 
L 363.36818 236.182627 
L 366.866591 235.981898 
L 370.34097 235.52947 
L 370.34097 235.52947 
" style="fill:none;stroke:#000000;stroke-linecap:square;stroke-opacity:0.7;stroke-width:1.2;"/>
   </g>
   <g id="line2d_12">
    <path clip-path="url(#p9d3df177e2)" d="M 370.984621 190.646062 
L 370.890252 190.483576 
L 370.325597 189.845709 
L 369.416996 189.01448 
L 367.469631 187.60645 
L 365.572297 186.642389 
L 364.270222 186.238678 
L 362.997317 186.077301 
L 361.460061 186.202339 
L 359.731881 186.685536 
L 357.314553 187.425053 
L 356.664478 187.415507 
L 355.943608 187.157876 
L 355.005875 186.774554 
L 355.001377 186.796805 
L 355.192491 186.98609 
L 356.195394 187.591616 
L 358.360809 188.902943 
L 360.283431 190.126388 
L 361.370412 190.470712 
L 362.84245 190.682364 
L 364.837923 190.752166 
L 368.051085 190.613163 
L 370.498771 190.370945 
L 370.498771 190.370945 
" style="fill:none;stroke:#000000;stroke-linecap:square;stroke-opacity:0.7;stroke-width:1.2;"/>
   </g>
   <g id="line2d_13">
    <path clip-path="url(#p9d3df177e2)" d="M 370.467481 145.265188 
L 370.437125 145.05773 
L 370.162385 144.739589 
L 369.423775 144.268858 
L 368.06268 143.71864 
L 366.35429 143.267929 
L 364.557642 142.974249 
L 362.445252 142.816218 
L 359.776716 142.863595 
L 356.646276 143.181757 
L 355.0002 143.297546 
L 355.016324 143.280771 
L 355.538622 143.052627 
L 357.922607 142.072623 
L 358.711062 141.510005 
L 359.118137 140.958947 
L 359.204827 140.495176 
L 359.035855 140.181708 
L 358.750113 140.134179 
L 358.417802 140.31199 
L 358.048177 140.748867 
L 357.62231 141.640266 
L 357.290585 142.927871 
L 357.177922 144.23827 
L 357.28801 145.260668 
L 357.575269 145.992703 
L 357.924432 146.424379 
L 358.527228 146.814002 
L 359.313836 147.04642 
L 360.444971 147.13693 
L 362.11693 147.014767 
L 364.585431 146.545144 
L 367.570269 145.697125 
L 369.895908 144.853712 
L 369.895908 144.853712 
" style="fill:none;stroke:#000000;stroke-linecap:square;stroke-opacity:0.7;stroke-width:1.2;"/>
   </g>
   <g id="line2d_14">
    <path clip-path="url(#p9d3df177e2)" d="M 370.661037 99.60851 
L 370.766874 99.366227 
L 370.735513 98.891099 
L 370.434744 98.261525 
L 369.875403 97.642237 
L 369.032919 97.047119 
L 368.061702 96.588759 
L 365.776164 96.015834 
L 364.026969 95.871109 
L 361.786292 95.921072 
L 359.359471 96.191661 
L 357.061894 96.667079 
L 356.449078 96.932793 
L 356.472201 96.955059 
L 356.817025 96.860543 
L 357.173978 96.52528 
L 357.351992 95.996966 
L 357.503222 95.830156 
L 357.948682 96.10152 
L 360.701972 98.028832 
L 361.848501 98.486345 
L 363.363845 98.840317 
L 365.597123 99.116621 
L 368.133717 99.23685 
L 370.56167 99.170923 
L 370.56167 99.170923 
" style="fill:none;stroke:#000000;stroke-linecap:square;stroke-opacity:0.7;stroke-width:1.2;"/>
   </g>
   <g id="line2d_15">
    <path clip-path="url(#p9d3df177e2)" d="M 371.097787 53.764039 
L 371.115472 53.586473 
L 370.93239 53.074782 
L 370.514009 52.413114 
L 370.07499 51.891623 
L 368.685779 50.717539 
L 367.749999 50.177962 
L 366.178091 49.588588 
L 364.872795 49.313218 
L 356.59268 48.226987 
L 355.127654 48.217411 
L 353.869804 48.405479 
L 352.365933 48.970661 
L 351.223118 49.739585 
L 350.501984 50.473945 
L 350.023006 51.271943 
L 349.905066 51.820836 
L 350.097393 52.524926 
L 350.603182 53.148546 
L 352.298641 54.970521 
L 353.17874 56.366165 
L 354.049245 57.715872 
L 354.552415 58.106031 
L 355.198028 58.3184 
L 356.011907 58.359628 
L 357.388009 58.177036 
L 359.714414 57.574052 
L 363.172963 56.401431 
L 367.813367 54.570439 
L 370.543322 53.365811 
L 370.543322 53.365811 
" style="fill:none;stroke:#000000;stroke-linecap:square;stroke-opacity:0.7;stroke-width:1.2;"/>
   </g>
   <g id="line2d_16">
    <path clip-path="url(#p9d3df177e2)" d="M 521.964517 236.291962 
L 521.898749 236.119423 
L 521.393348 235.592528 
L 520.337771 234.855286 
L 518.723589 234.059736 
L 516.808421 233.421702 
L 515.10697 233.059183 
L 512.364065 232.746186 
L 508.67951 232.551483 
L 508.799047 232.594558 
L 510.13847 232.854282 
L 511.234284 232.897531 
L 511.694132 232.724362 
L 511.848074 232.445661 
L 511.78063 232.123522 
L 511.525136 231.93226 
L 511.186066 232.011847 
L 510.63386 232.487454 
L 509.69595 233.677472 
L 508.842303 235.061715 
L 508.563127 235.894075 
L 508.62892 236.395531 
L 508.850821 236.683055 
L 509.374623 236.962959 
L 510.412307 237.164934 
L 512.126099 237.198281 
L 514.699239 236.981023 
L 517.342852 236.579442 
L 521.121607 235.75066 
L 521.604227 235.617097 
L 521.604227 235.617097 
" style="fill:none;stroke:#000000;stroke-linecap:square;stroke-opacity:0.7;stroke-width:1.2;"/>
   </g>
   <g id="line2d_17">
    <path clip-path="url(#p9d3df177e2)" d="M 521.784097 190.467801 
L 521.717234 190.254758 
L 521.23076 189.562952 
L 520.540847 188.834727 
L 519.124758 187.696903 
L 517.694039 186.873329 
L 516.204378 186.313297 
L 514.733172 186.024325 
L 512.886389 185.910875 
L 509.779536 185.727023 
L 507.200432 185.45568 
L 506.192177 185.654208 
L 505.688681 185.877745 
L 504.784937 186.525231 
L 504.18129 187.256129 
L 503.963207 187.854658 
L 504.016846 188.326686 
L 504.288043 188.770162 
L 505.039262 189.456746 
L 506.508735 190.789171 
L 507.905244 192.163955 
L 508.631589 192.453355 
L 509.455891 192.559742 
L 511.045325 192.490092 
L 513.524661 192.100476 
L 517.16355 191.271688 
L 520.618754 190.284854 
L 521.386596 190.020725 
L 521.386596 190.020725 
" style="fill:none;stroke:#000000;stroke-linecap:square;stroke-opacity:0.7;stroke-width:1.2;"/>
   </g>
   <g id="line2d_18">
    <path clip-path="url(#p9d3df177e2)" d="M 522.444403 144.93317 
L 521.990069 144.618071 
L 519.969717 143.399797 
L 517.410034 142.096533 
L 515.23086 141.247123 
L 513.648106 140.598232 
L 512.713705 140.154611 
L 512.052458 140.186097 
L 510.02991 140.59632 
L 509.784306 140.861947 
L 509.80182 141.145328 
L 510.115248 141.68844 
L 510.950969 142.589501 
L 511.912441 143.368181 
L 512.922692 143.922448 
L 514.083536 144.303763 
L 515.642107 144.599913 
L 518.219326 144.854871 
L 521.090985 144.907601 
L 521.961228 144.840269 
L 521.961228 144.840269 
" style="fill:none;stroke:#000000;stroke-linecap:square;stroke-opacity:0.7;stroke-width:1.2;"/>
   </g>
   <g id="line2d_19">
    <path clip-path="url(#p9d3df177e2)" d="M 522.641035 99.508888 
L 522.702281 99.185177 
L 522.599539 98.71157 
L 522.24126 98.163221 
L 521.322843 97.428101 
L 520.082248 96.848165 
L 518.147193 96.319184 
L 515.638444 95.93663 
L 508.690288 95.032774 
L 507.837336 94.749871 
L 507.875044 94.731047 
L 508.253994 94.767255 
L 509.351803 95.122458 
L 512.639413 96.511743 
L 514.098332 97.400302 
L 515.501471 97.940799 
L 517.540128 98.470664 
L 520.17412 98.894271 
L 522.28578 99.046167 
L 522.28578 99.046167 
" style="fill:none;stroke:#000000;stroke-linecap:square;stroke-opacity:0.7;stroke-width:1.2;"/>
   </g>
   <g id="line2d_20">
    <path clip-path="url(#p9d3df177e2)" d="M 523.157258 53.614193 
L 523.200804 53.445869 
L 523.067498 53.056145 
L 522.630691 52.466445 
L 521.975642 51.882098 
L 521.008533 51.26197 
L 520.005246 50.788399 
L 518.834419 50.382363 
L 516.748049 49.9372 
L 514.045693 49.720666 
L 510.528107 49.764466 
L 505.632416 50.054966 
L 504.512548 50.311735 
L 503.966662 50.669133 
L 503.747973 50.983551 
L 503.564838 51.69324 
L 503.61169 52.672527 
L 503.894024 53.745475 
L 504.298774 54.560429 
L 504.836729 55.137548 
L 505.327777 55.350192 
L 505.912226 55.340696 
L 506.661554 55.276355 
L 506.925617 55.611886 
L 507.329223 56.041759 
L 507.859985 56.294501 
L 508.693254 56.43927 
L 509.937976 56.433511 
L 511.69092 56.231225 
L 514.707775 55.635767 
L 518.843456 54.542249 
L 522.548844 53.334072 
L 522.548844 53.334072 
" style="fill:none;stroke:#000000;stroke-linecap:square;stroke-opacity:0.7;stroke-width:1.2;"/>
   </g>
   <g id="line2d_21">
    <path clip-path="url(#p9d3df177e2)" d="M 675.41095 236.082737 
L 675.490909 235.820216 
L 675.385045 235.490161 
L 675.077308 235.168008 
L 674.541207 234.850317 
L 672.889995 234.326616 
L 672.008804 234.160509 
L 666.126719 233.727565 
L 659.684078 233.450247 
L 655.401562 233.176971 
L 655.441798 233.408752 
L 655.806486 233.969848 
L 656.628995 234.849187 
L 657.60164 235.57069 
L 658.432609 235.934317 
L 659.209181 236.058682 
L 660.960688 236.121545 
L 663.845444 237.381909 
L 665.349341 237.540135 
L 666.934114 237.514509 
L 669.684311 237.210066 
L 672.700625 236.625342 
L 674.886841 236.030101 
L 674.886841 236.030101 
" style="fill:none;stroke:#000000;stroke-linecap:square;stroke-opacity:0.7;stroke-width:1.2;"/>
   </g>
   <g id="line2d_22">
    <path clip-path="url(#p9d3df177e2)" d="M 674.268818 190.636327 
L 674.225446 190.478694 
L 673.74439 189.835446 
L 672.772681 188.938173 
L 671.588628 188.162564 
L 670.208913 187.568583 
L 668.585811 187.171029 
L 664.146408 186.2857 
L 660.520624 185.408462 
L 659.925122 185.513285 
L 659.717976 185.744037 
L 659.722303 186.079162 
L 659.968052 186.484575 
L 660.527563 186.942349 
L 661.489017 187.68083 
L 661.637867 188.134888 
L 661.902571 189.305777 
L 662.206946 189.698087 
L 662.813124 190.099082 
L 663.704457 190.415194 
L 665.271495 190.690426 
L 667.077609 190.805461 
L 670.047207 190.733349 
L 672.642022 190.449823 
L 673.781199 190.233652 
L 673.781199 190.233652 
" style="fill:none;stroke:#000000;stroke-linecap:square;stroke-opacity:0.7;stroke-width:1.2;"/>
   </g>
   <g id="line2d_23">
    <path clip-path="url(#p9d3df177e2)" d="M 674.623792 145.24645 
L 674.597541 145.082617 
L 674.22907 144.485312 
L 673.572532 143.750981 
L 672.117974 142.556972 
L 669.651094 141.263789 
L 668.132824 140.849945 
L 666.183004 140.761666 
L 664.993677 140.960534 
L 663.778 141.226306 
L 662.239359 140.767569 
L 660.141159 140.264794 
L 658.900207 140.176435 
L 658.380382 140.300423 
L 658.043514 140.568926 
L 657.884328 140.944403 
L 657.878806 141.626511 
L 658.135857 142.638522 
L 658.757123 144.053512 
L 659.838983 145.782782 
L 661.01411 147.127615 
L 661.888197 147.8627 
L 663.122569 148.587035 
L 664.318668 148.997228 
L 665.59193 149.173519 
L 666.639131 149.147111 
L 667.993507 148.9121 
L 669.566438 148.380041 
L 671.164446 147.562783 
L 672.664347 146.521886 
L 673.985016 145.334483 
L 674.309745 144.991738 
L 674.309745 144.991738 
" style="fill:none;stroke:#000000;stroke-linecap:square;stroke-opacity:0.7;stroke-width:1.2;"/>
   </g>
   <g id="line2d_24">
    <path clip-path="url(#p9d3df177e2)" d="M 674.161062 99.454557 
L 673.799872 99.094826 
L 672.107863 97.610947 
L 671.046008 96.845905 
L 669.21798 95.834444 
L 667.656062 95.273376 
L 662.39945 93.900983 
L 661.269206 94.001807 
L 660.28842 94.312705 
L 659.386935 94.864096 
L 658.992948 95.324042 
L 658.87662 95.734293 
L 659.036288 96.137128 
L 659.523501 96.469341 
L 660.368579 96.714 
L 662.141008 97.161394 
L 665.010228 98.417216 
L 666.995363 98.820927 
L 668.961263 99.054171 
L 672.132292 99.191319 
L 673.718387 99.129608 
L 673.718387 99.129608 
" style="fill:none;stroke:#000000;stroke-linecap:square;stroke-opacity:0.7;stroke-width:1.2;"/>
   </g>
   <g id="line2d_25">
    <path clip-path="url(#p9d3df177e2)" d="M 674.875862 54.271732 
L 674.834091 54.156508 
L 674.498313 53.957213 
L 673.244327 53.549142 
L 671.313638 53.130264 
L 668.176603 52.690859 
L 664.904511 52.461252 
L 657.616115 52.103412 
L 657.208924 51.91869 
L 657.138452 51.78693 
L 657.316872 51.534029 
L 658.106928 51.123857 
L 659.229585 50.519048 
L 659.527807 50.103198 
L 659.456114 49.854375 
L 659.329696 49.908821 
L 659.177989 50.241549 
L 659.069324 51.467153 
L 659.151725 52.656288 
L 659.49895 54.547833 
L 659.98633 56.065669 
L 660.663125 57.362668 
L 661.359151 58.159775 
L 662.004543 58.601259 
L 662.721531 58.872138 
L 663.755459 58.995945 
L 664.933114 58.889253 
L 666.578253 58.462995 
L 668.624718 57.64263 
L 670.850251 56.497178 
L 673.507841 54.839717 
L 674.512503 54.11255 
L 674.512503 54.11255 
" style="fill:none;stroke:#000000;stroke-linecap:square;stroke-opacity:0.7;stroke-width:1.2;"/>
   </g>
  </g>
 </g>
 <defs>
  <clipPath id="p9d3df177e2">
   <rect height="262.08" width="694.08" x="12.96" y="12.96"/>
  </clipPath>
 </defs>
</svg>
