<?xml version="1.0" encoding="utf-8" standalone="no"?>
<!DOCTYPE svg PUBLIC "-//W3C//DTD SVG 1.1//EN"
  "http://www.w3.org/Graphics/SVG/1.1/DTD/svg11.dtd">
<!-- Created with matplotlib (https://matplotlib.org/) -->
<svg height="288pt" version="1.1" viewBox="0 0 720 288" width="720pt" xmlns="http://www.w3.org/2000/svg" xmlns:xlink="http://www.w3.org/1999/xlink">
 <metadata>
  <rdf:RDF xmlns:cc="http://creativecommons.org/ns#" xmlns:dc="http://purl.org/dc/elements/1.1/" xmlns:rdf="http://www.w3.org/1999/02/22-rdf-syntax-ns#">
   <cc:Work>
    <dc:type rdf:resource="http://purl.org/dc/dcmitype/StillImage"/>
    <dc:date>2020-12-21T15:28:11.899317</dc:date>
    <dc:format>image/svg+xml</dc:format>
    <dc:creator>
     <cc:Agent>
      <dc:title>Matplotlib v3.3.2, https://matplotlib.org/</dc:title>
     </cc:Agent>
    </dc:creator>
   </cc:Work>
  </rdf:RDF>
 </metadata>
 <defs>
  <style type="text/css">*{stroke-linecap:butt;stroke-linejoin:round;}</style>
 </defs>
 <g id="figure_1">
  <g id="patch_1">
   <path d="M 0 288 
L 720 288 
L 720 0 
L 0 0 
z
" style="fill:#ffffff;"/>
  </g>
  <g id="axes_1">
   <g id="line2d_1">
    <path clip-path="url(#pfebfb82fe4)" d="M 57.585641 237.867852 
L 57.54408 238.019398 
L 57.375732 238.731113 
L 57.089947 239.027223 
L 56.799409 239.118881 
L 56.123879 239.083568 
L 54.90416 238.740009 
L 53.425802 238.099376 
L 52.55588 237.452144 
L 52.171279 236.886974 
L 51.925869 236.08905 
L 51.480471 234.133082 
L 51.105241 233.601832 
L 50.624667 233.293357 
L 50.054743 233.172765 
L 49.397193 233.2492 
L 48.725449 233.532128 
L 48.165224 233.92371 
L 47.476081 234.612279 
L 46.652135 235.80557 
L 46.06858 237.073765 
L 45.742935 238.34772 
L 45.724188 239.279713 
L 45.903307 239.907356 
L 46.281055 240.381258 
L 46.770809 240.642755 
L 47.554947 240.774586 
L 48.778458 240.68647 
L 50.115927 240.399043 
L 52.643377 239.58723 
L 55.548689 238.387701 
L 57.035314 237.658473 
L 57.035314 237.658473 
" style="fill:none;stroke:#000000;stroke-linecap:square;stroke-opacity:0.7;stroke-width:1.2;"/>
   </g>
   <g id="line2d_2">
    <path clip-path="url(#pfebfb82fe4)" d="M 57.175224 190.855152 
L 56.996658 190.744413 
L 55.26191 189.549236 
L 53.55057 188.669516 
L 51.805531 188.004513 
L 49.958968 187.517951 
L 48.781816 187.397248 
L 48.000772 187.503385 
L 47.314877 187.835072 
L 46.764008 188.400588 
L 46.443504 189.059287 
L 46.37335 189.704722 
L 46.537084 190.114399 
L 46.805562 190.285033 
L 47.217673 190.286565 
L 47.85088 190.027793 
L 48.939099 189.280183 
L 49.841664 188.752138 
L 50.415141 188.678221 
L 51.276575 188.86284 
L 54.855764 190.05742 
L 56.743962 190.74881 
L 56.743962 190.74881 
" style="fill:none;stroke:#000000;stroke-linecap:square;stroke-opacity:0.7;stroke-width:1.2;"/>
   </g>
   <g id="line2d_3">
    <path clip-path="url(#pfebfb82fe4)" d="M 57.121405 144.453996 
L 56.874261 144.137789 
L 55.888271 143.050384 
L 54.766489 142.150219 
L 53.540459 141.475444 
L 52.752216 141.18175 
L 51.292372 140.866912 
L 49.706014 140.787781 
L 48.17806 140.965736 
L 47.111058 141.326439 
L 46.350829 141.783411 
L 45.641986 142.435555 
L 44.876559 143.570056 
L 44.606784 144.26596 
L 44.510144 144.978588 
L 44.633134 145.444463 
L 44.905832 145.689184 
L 45.351658 145.754868 
L 45.947946 145.619627 
L 47.022014 145.104078 
L 48.984379 143.817067 
L 50.253602 143.081403 
L 50.962389 142.932022 
L 51.911406 143.014312 
L 54.012148 143.476601 
L 56.646471 144.244146 
L 56.758484 144.309837 
L 56.758484 144.309837 
" style="fill:none;stroke:#000000;stroke-linecap:square;stroke-opacity:0.7;stroke-width:1.2;"/>
   </g>
   <g id="line2d_4">
    <path clip-path="url(#pfebfb82fe4)" d="M 57.587825 98.575827 
L 57.342596 98.390427 
L 56.412981 97.912592 
L 54.870828 97.451967 
L 52.660521 96.95469 
L 52.532163 96.583581 
L 52.3568 95.605877 
L 51.994871 95.472911 
L 51.299401 95.445832 
L 50.486661 95.639414 
L 49.76103 96.049423 
L 49.280511 96.577969 
L 49.093299 97.126591 
L 49.169783 97.541276 
L 49.446185 97.881617 
L 49.996012 98.178824 
L 50.949424 98.411482 
L 52.700521 98.554271 
L 55.419572 98.516212 
L 57.261057 98.395523 
L 57.261057 98.395523 
" style="fill:none;stroke:#000000;stroke-linecap:square;stroke-opacity:0.7;stroke-width:1.2;"/>
   </g>
   <g id="line2d_5">
    <path clip-path="url(#pfebfb82fe4)" d="M 56.79172 51.301034 
L 56.334583 50.900614 
L 54.962512 49.894858 
L 53.148703 48.84971 
L 51.687423 48.253602 
L 50.349015 47.982332 
L 49.362927 48.010928 
L 48.319461 48.270525 
L 47.73985 48.636855 
L 47.461521 49.034631 
L 47.44716 49.410248 
L 47.640238 49.612313 
L 47.965216 49.713111 
L 47.858877 49.819218 
L 47.422136 50.373665 
L 47.335445 50.812491 
L 47.494834 51.115516 
L 47.916372 51.373065 
L 48.729632 51.574505 
L 50.210626 51.680251 
L 52.284308 51.61621 
L 54.766113 51.359117 
L 56.399486 51.086456 
L 56.399486 51.086456 
" style="fill:none;stroke:#000000;stroke-linecap:square;stroke-opacity:0.7;stroke-width:1.2;"/>
   </g>
   <g id="line2d_6">
    <path clip-path="url(#pfebfb82fe4)" d="M 211.979702 237.683078 
L 211.961482 237.450796 
L 211.778487 236.722238 
L 211.566144 236.255096 
L 210.788362 235.207547 
L 209.863538 234.479682 
L 208.679147 233.914659 
L 208.388851 233.815379 
L 206.090546 233.356603 
L 204.572294 233.280455 
L 202.708893 233.443666 
L 201.46693 233.820078 
L 200.987748 234.058568 
L 199.780939 234.974448 
L 198.898884 235.970991 
L 197.86296 237.522113 
L 196.988818 239.289184 
L 196.810363 240.051345 
L 196.934744 240.125262 
L 197.129634 240.013183 
L 197.946568 239.155931 
L 199.127031 237.894025 
L 199.581053 237.750617 
L 200.61367 237.751737 
L 204.536334 237.798641 
L 209.282277 237.626519 
L 211.478672 237.471136 
L 211.478672 237.471136 
" style="fill:none;stroke:#000000;stroke-linecap:square;stroke-opacity:0.7;stroke-width:1.2;"/>
   </g>
   <g id="line2d_7">
    <path clip-path="url(#pfebfb82fe4)" d="M 212.036971 191.196774 
L 211.62598 191.068824 
L 210.592151 190.463813 
L 208.667813 189.373292 
L 206.596399 188.281431 
L 205.407659 187.246954 
L 204.608535 186.935527 
L 203.74734 186.811134 
L 203.048987 186.8746 
L 202.344736 187.143948 
L 201.821212 187.555275 
L 201.48265 187.987803 
L 201.04951 188.993743 
L 200.879597 190.141088 
L 200.928493 191.162265 
L 201.165614 192.211588 
L 201.625516 193.227713 
L 202.230083 193.990626 
L 202.861735 194.458828 
L 203.776264 194.78905 
L 204.708979 194.852016 
L 205.812748 194.688047 
L 207.209147 194.220073 
L 208.720071 193.460636 
L 210.086758 192.554153 
L 211.206438 191.562125 
L 211.540972 191.031531 
L 211.540972 191.031531 
" style="fill:none;stroke:#000000;stroke-linecap:square;stroke-opacity:0.7;stroke-width:1.2;"/>
   </g>
   <g id="line2d_8">
    <path clip-path="url(#pfebfb82fe4)" d="M 212.017058 144.903891 
L 211.936642 144.774644 
L 211.622526 144.196358 
L 211.191764 143.681672 
L 210.205676 142.9047 
L 209.159765 142.407902 
L 208.006717 142.137722 
L 206.90079 142.143776 
L 206.689014 142.132368 
L 206.707481 142.096658 
L 207.210226 141.272244 
L 207.091702 141.07185 
L 206.762677 140.950447 
L 206.072613 140.97514 
L 205.174589 141.226158 
L 203.862328 141.85914 
L 202.828507 142.537906 
L 201.385351 143.763255 
L 200.426304 144.843833 
L 199.815828 145.83922 
L 199.64097 146.562004 
L 199.753385 146.938291 
L 200.064371 147.193682 
L 200.683257 147.343556 
L 201.688129 147.330764 
L 203.395117 147.071801 
L 204.970844 146.718116 
L 209.570661 145.376408 
L 211.428756 144.706266 
L 211.428756 144.706266 
" style="fill:none;stroke:#000000;stroke-linecap:square;stroke-opacity:0.7;stroke-width:1.2;"/>
   </g>
   <g id="line2d_9">
    <path clip-path="url(#pfebfb82fe4)" d="M 211.779352 98.792953 
L 211.663921 98.910821 
L 211.248257 99.145047 
L 210.058313 99.500272 
L 207.306711 100.014362 
L 206.755902 99.99827 
L 206.696139 99.858913 
L 206.918325 99.272077 
L 207.396259 97.957809 
L 207.582447 96.779276 
L 207.511178 95.911855 
L 207.298382 95.513725 
L 207.00978 95.389752 
L 206.540996 95.468758 
L 206.041609 95.757827 
L 205.545227 96.312753 
L 205.343765 96.874455 
L 205.416168 97.317021 
L 205.709819 97.645792 
L 206.348003 97.924647 
L 207.591369 98.151649 
L 211.551978 98.573507 
L 211.551978 98.573507 
" style="fill:none;stroke:#000000;stroke-linecap:square;stroke-opacity:0.7;stroke-width:1.2;"/>
   </g>
   <g id="line2d_10">
    <path clip-path="url(#pfebfb82fe4)" d="M 211.515738 51.557287 
L 211.062032 51.243495 
L 208.567873 49.618478 
L 205.710389 48.01358 
L 204.873188 47.747605 
L 204.163567 47.755168 
L 203.182829 48.016319 
L 201.854717 48.628651 
L 200.165422 49.696872 
L 199.301373 50.46005 
L 199.012628 50.973043 
L 198.92579 51.529361 
L 199.05121 52.338876 
L 199.36414 52.96738 
L 199.853512 53.457838 
L 200.489115 53.778906 
L 201.3871 53.96259 
L 202.695207 53.961589 
L 204.474701 53.707287 
L 206.77168 53.137234 
L 209.10346 52.341012 
L 210.759585 51.558038 
L 210.947916 51.423666 
L 210.947916 51.423666 
" style="fill:none;stroke:#000000;stroke-linecap:square;stroke-opacity:0.7;stroke-width:1.2;"/>
   </g>
   <g id="line2d_11">
    <path clip-path="url(#pfebfb82fe4)" d="M 365.78179 236.817814 
L 364.364483 235.384338 
L 363.125521 234.546109 
L 361.720936 233.909806 
L 360.555405 233.655917 
L 359.760593 233.641534 
L 358.41974 233.925654 
L 357.44669 234.381381 
L 356.756409 234.939121 
L 356.505925 235.377953 
L 356.48117 235.885939 
L 356.720607 236.332445 
L 356.993607 236.548872 
L 357.637716 236.744921 
L 358.293907 236.706795 
L 359.075931 236.440194 
L 359.823069 235.971248 
L 360.390349 235.429969 
L 360.765266 234.81324 
L 360.731853 234.576083 
L 360.546328 234.625785 
L 360.457421 234.870153 
L 360.565122 235.112649 
L 360.989513 235.455479 
L 361.962147 235.866938 
L 363.531648 236.247864 
L 365.542014 236.502365 
L 365.542014 236.502365 
" style="fill:none;stroke:#000000;stroke-linecap:square;stroke-opacity:0.7;stroke-width:1.2;"/>
   </g>
   <g id="line2d_12">
    <path clip-path="url(#pfebfb82fe4)" d="M 365.930157 190.917316 
L 364.970065 190.494154 
L 363.736803 190.158696 
L 361.716127 189.852291 
L 359.214891 189.779022 
L 356.741522 189.93925 
L 353.274968 190.351866 
L 353.160234 190.528487 
L 353.722495 190.990614 
L 354.678603 191.553744 
L 355.252216 191.670478 
L 355.801553 191.545768 
L 356.347126 191.165637 
L 356.842879 190.540101 
L 357.189814 189.760964 
L 357.312638 188.931978 
L 357.193412 188.316236 
L 356.937876 187.99709 
L 356.811605 188.011583 
L 356.805607 188.032196 
L 356.933443 188.285202 
L 357.469063 188.703694 
L 358.45562 189.19751 
L 360.313593 189.843483 
L 362.77322 190.433213 
L 365.362447 190.806665 
L 365.593226 190.827388 
L 365.593226 190.827388 
" style="fill:none;stroke:#000000;stroke-linecap:square;stroke-opacity:0.7;stroke-width:1.2;"/>
   </g>
   <g id="line2d_13">
    <path clip-path="url(#pfebfb82fe4)" d="M 365.876106 144.132317 
L 364.932392 144.121779 
L 361.313177 144.290793 
L 356.829232 144.563682 
L 356.895582 144.306391 
L 357.576547 143.217549 
L 358.537428 141.93598 
L 358.879142 141.7465 
L 358.873235 141.809076 
L 358.867845 142.327563 
L 359.086668 142.841601 
L 359.485339 143.224936 
L 360.124942 143.537218 
L 361.211345 143.802765 
L 362.754702 143.966337 
L 365.202292 143.983393 
L 365.431706 143.968038 
L 365.431706 143.968038 
" style="fill:none;stroke:#000000;stroke-linecap:square;stroke-opacity:0.7;stroke-width:1.2;"/>
   </g>
   <g id="line2d_14">
    <path clip-path="url(#pfebfb82fe4)" d="M 366.238522 98.762729 
L 365.304047 98.561621 
L 362.897499 98.314205 
L 360.481407 98.293687 
L 359.868478 98.253146 
L 359.879735 98.228262 
L 360.439385 97.795018 
L 361.736107 96.677846 
L 362.56481 95.709259 
L 362.631127 95.392079 
L 362.450863 95.263606 
L 361.93431 95.257995 
L 361.048131 95.508872 
L 360.098518 96.001915 
L 359.344601 96.591601 
L 358.787775 97.276833 
L 358.586489 97.880188 
L 358.684076 98.280645 
L 358.924912 98.524865 
L 359.287596 98.699078 
L 360.264726 98.876606 
L 362.087012 98.881636 
L 365.354453 98.600505 
L 365.710299 98.568499 
L 365.710299 98.568499 
" style="fill:none;stroke:#000000;stroke-linecap:square;stroke-opacity:0.7;stroke-width:1.2;"/>
   </g>
   <g id="line2d_15">
    <path clip-path="url(#pfebfb82fe4)" d="M 366.080783 52.107912 
L 365.056446 50.84499 
L 364.246946 50.2179 
L 363.043197 49.575359 
L 361.890966 49.234738 
L 360.986822 49.168804 
L 360.051165 49.377159 
L 359.701291 49.656898 
L 359.671291 49.892509 
L 359.862797 50.025327 
L 360.24665 49.997857 
L 360.699266 49.756546 
L 361.13094 49.291886 
L 361.343946 48.729493 
L 361.248771 48.377118 
L 360.963233 48.18864 
L 360.448285 48.152554 
L 359.915191 48.270989 
L 359.135973 48.610903 
L 357.848973 49.490947 
L 356.79825 50.485259 
L 355.940523 51.550283 
L 355.422593 52.456847 
L 355.222324 53.213787 
L 355.31977 53.643864 
L 355.611675 53.909566 
L 356.12131 54.057982 
L 357.116814 54.071083 
L 358.814975 53.834434 
L 361.692428 53.17399 
L 365.231179 52.116698 
L 365.67411 51.960395 
L 365.67411 51.960395 
" style="fill:none;stroke:#000000;stroke-linecap:square;stroke-opacity:0.7;stroke-width:1.2;"/>
   </g>
   <g id="line2d_16">
    <path clip-path="url(#pfebfb82fe4)" d="M 520.755167 237.060885 
L 520.48934 236.814132 
L 519.889318 236.244911 
L 518.545722 235.246947 
L 517.050186 234.464438 
L 515.50972 233.916176 
L 514.222289 233.652507 
L 513.382288 233.695817 
L 512.673291 233.958654 
L 511.929787 234.483151 
L 511.245379 235.272833 
L 510.959112 235.95199 
L 511.047662 236.163541 
L 511.795393 236.476045 
L 512.75965 237.089069 
L 513.57435 237.35821 
L 514.83001 237.516465 
L 516.556514 237.478729 
L 518.875075 237.188592 
L 520.314954 236.903573 
L 520.314954 236.903573 
" style="fill:none;stroke:#000000;stroke-linecap:square;stroke-opacity:0.7;stroke-width:1.2;"/>
   </g>
   <g id="line2d_17">
    <path clip-path="url(#pfebfb82fe4)" d="M 520.608276 190.954484 
L 520.396964 190.859563 
L 517.357854 188.932228 
L 515.693628 188.284849 
L 514.80017 187.508989 
L 514.156428 187.267096 
L 513.521749 187.281015 
L 512.969632 187.538204 
L 512.699961 187.824703 
L 512.464431 188.481406 
L 512.504122 189.105712 
L 512.761362 189.769352 
L 513.239893 190.397812 
L 513.687247 190.763885 
L 514.62054 191.191641 
L 515.663651 191.358431 
L 517.019392 191.311704 
L 518.974962 190.993788 
L 520.33761 190.738838 
L 520.338759 190.7492 
" style="fill:none;stroke:#000000;stroke-linecap:square;stroke-opacity:0.7;stroke-width:1.2;"/>
   </g>
   <g id="line2d_18">
    <path clip-path="url(#pfebfb82fe4)" d="M 520.529572 144.15458 
L 518.590295 143.204985 
L 516.881268 142.696279 
L 515.312452 142.491076 
L 514.159032 142.577549 
L 514.126518 142.589892 
L 514.307116 142.572033 
L 514.28397 142.648778 
L 514.275497 142.654412 
L 514.22691 142.555817 
L 513.958682 142.321281 
L 513.542421 142.25654 
L 513.197098 142.40416 
L 512.997485 142.708901 
L 512.99765 143.020108 
L 513.20074 143.360736 
L 513.638358 143.659033 
L 514.507683 143.929257 
L 515.908943 144.091187 
L 518.179918 144.081745 
L 520.283029 143.894762 
L 520.283029 143.894762 
" style="fill:none;stroke:#000000;stroke-linecap:square;stroke-opacity:0.7;stroke-width:1.2;"/>
   </g>
   <g id="line2d_19">
    <path clip-path="url(#pfebfb82fe4)" d="M 520.782987 98.507028 
L 520.663399 98.326422 
L 520.078923 97.391748 
L 519.380615 96.64609 
L 518.430685 95.974327 
L 517.550033 95.606731 
L 516.674595 95.468375 
L 515.510784 95.362408 
L 513.64028 94.725884 
L 512.580701 94.591357 
L 511.717742 94.701036 
L 511.168929 94.926086 
L 510.477351 95.458124 
L 509.936536 96.156428 
L 509.433661 97.203329 
L 509.098921 98.516992 
L 509.029018 99.596878 
L 509.170644 100.590276 
L 509.402488 101.15904 
L 509.835068 101.680289 
L 510.3065 101.952685 
L 511.022199 102.103281 
L 511.97081 102.05771 
L 513.379361 101.73363 
L 515.330859 101.025921 
L 518.063019 99.743696 
L 520.15784 98.519474 
L 520.408202 98.327564 
L 520.408202 98.327564 
" style="fill:none;stroke:#000000;stroke-linecap:square;stroke-opacity:0.7;stroke-width:1.2;"/>
   </g>
   <g id="line2d_20">
    <path clip-path="url(#pfebfb82fe4)" d="M 520.935475 52.268538 
L 520.038717 52.274776 
L 513.822546 50.642232 
L 511.048943 50.00939 
L 510.220096 50.230493 
L 509.677377 50.557533 
L 509.599803 50.788181 
L 509.793739 51.093179 
L 510.547656 51.640697 
L 511.983971 52.378018 
L 513.352867 52.848724 
L 514.750415 53.069709 
L 516.220223 53.045046 
L 517.971342 52.767097 
L 519.97634 52.212819 
L 520.644343 51.944591 
L 520.546853 51.967038 
" style="fill:none;stroke:#000000;stroke-linecap:square;stroke-opacity:0.7;stroke-width:1.2;"/>
   </g>
   <g id="line2d_21">
    <path clip-path="url(#pfebfb82fe4)" d="M 675.119888 237.406933 
L 673.755119 236.334065 
L 672.293607 235.846252 
L 670.617672 235.59315 
L 668.765641 235.339297 
L 668.501221 234.993964 
L 668.615381 234.922153 
L 669.130819 234.852706 
L 669.099903 234.934496 
L 669.027694 235.378403 
L 669.191008 235.781466 
L 669.581906 236.113449 
L 670.345898 236.42076 
L 671.881599 236.753648 
L 674.724712 237.210788 
L 674.724712 237.210788 
" style="fill:none;stroke:#000000;stroke-linecap:square;stroke-opacity:0.7;stroke-width:1.2;"/>
   </g>
   <g id="line2d_22">
    <path clip-path="url(#pfebfb82fe4)" d="M 675.490909 190.753736 
L 675.008066 190.380322 
L 674.13462 190.013049 
L 673.148682 189.754417 
L 670.676716 189.512826 
L 668.519967 189.642964 
L 665.893425 190.135763 
L 663.41915 190.892836 
L 661.971155 191.532534 
L 661.936314 191.594838 
L 662.015942 191.630342 
L 663.207186 191.717537 
L 664.239723 191.620348 
L 665.213697 191.267525 
L 668.566569 189.80292 
L 669.541376 189.725482 
L 671.188063 189.871468 
L 674.87664 190.406613 
L 675.093406 190.53312 
L 675.093406 190.53312 
" style="fill:none;stroke:#000000;stroke-linecap:square;stroke-opacity:0.7;stroke-width:1.2;"/>
   </g>
   <g id="line2d_23">
    <path clip-path="url(#pfebfb82fe4)" d="M 674.870833 144.074786 
L 674.395628 143.830109 
L 671.824805 142.525497 
L 669.745375 141.745786 
L 667.113758 141.059714 
L 665.204731 140.759819 
L 664.610224 140.883372 
L 664.366881 141.083751 
L 664.211804 141.432988 
L 664.265292 141.986441 
L 664.611723 142.492217 
L 665.082606 142.772751 
L 665.719182 142.878726 
L 666.52708 142.760313 
L 667.918509 142.259368 
L 669.713892 141.631674 
L 670.321374 141.638154 
L 670.932833 141.854758 
L 672.395689 142.697472 
L 674.393989 143.847136 
L 674.393989 143.847136 
" style="fill:none;stroke:#000000;stroke-linecap:square;stroke-opacity:0.7;stroke-width:1.2;"/>
   </g>
   <g id="line2d_24">
    <path clip-path="url(#pfebfb82fe4)" d="M 674.863646 97.710548 
L 674.253623 97.333827 
L 673.009237 96.710404 
L 671.673469 96.289437 
L 670.65157 96.21295 
L 669.992043 96.389182 
L 669.6978 96.685542 
L 669.717788 96.958837 
L 669.929029 97.039632 
L 670.04812 96.857376 
L 670.266001 95.824137 
L 670.453422 95.810034 
L 670.465703 95.8393 
L 670.790935 96.584848 
L 671.206007 96.876067 
L 671.9533 97.091684 
L 674.162841 97.379597 
L 674.584629 97.455819 
L 674.584629 97.455819 
" style="fill:none;stroke:#000000;stroke-linecap:square;stroke-opacity:0.7;stroke-width:1.2;"/>
   </g>
   <g id="line2d_25">
    <path clip-path="url(#pfebfb82fe4)" d="M 675.177754 52.188597 
L 675.135644 52.102779 
L 674.968103 51.680236 
L 674.259621 50.516506 
L 673.330194 49.511163 
L 672.130536 48.62273 
L 670.332727 47.763534 
L 668.695845 47.315518 
L 667.903677 47.222026 
L 666.675356 47.338841 
L 665.991486 47.654202 
L 665.408877 48.221014 
L 665.018605 48.956281 
L 664.813818 49.734283 
L 664.77274 50.77016 
L 664.956818 51.36056 
L 665.113316 51.405336 
L 665.454728 51.200656 
L 666.084794 50.881414 
L 666.755504 50.806356 
L 667.999485 50.955906 
L 674.723136 52.03345 
L 674.723136 52.03345 
" style="fill:none;stroke:#000000;stroke-linecap:square;stroke-opacity:0.7;stroke-width:1.2;"/>
   </g>
  </g>
 </g>
 <defs>
  <clipPath id="pfebfb82fe4">
   <rect height="262.08" width="694.08" x="12.96" y="12.96"/>
  </clipPath>
 </defs>
</svg>
