<?xml version="1.0" encoding="utf-8" standalone="no"?>
<!DOCTYPE svg PUBLIC "-//W3C//DTD SVG 1.1//EN"
  "http://www.w3.org/Graphics/SVG/1.1/DTD/svg11.dtd">
<!-- Created with matplotlib (https://matplotlib.org/) -->
<svg height="288pt" version="1.1" viewBox="0 0 720 288" width="720pt" xmlns="http://www.w3.org/2000/svg" xmlns:xlink="http://www.w3.org/1999/xlink">
 <metadata>
  <rdf:RDF xmlns:cc="http://creativecommons.org/ns#" xmlns:dc="http://purl.org/dc/elements/1.1/" xmlns:rdf="http://www.w3.org/1999/02/22-rdf-syntax-ns#">
   <cc:Work>
    <dc:type rdf:resource="http://purl.org/dc/dcmitype/StillImage"/>
    <dc:date>2020-12-21T16:07:22.138466</dc:date>
    <dc:format>image/svg+xml</dc:format>
    <dc:creator>
     <cc:Agent>
      <dc:title>Matplotlib v3.3.2, https://matplotlib.org/</dc:title>
     </cc:Agent>
    </dc:creator>
   </cc:Work>
  </rdf:RDF>
 </metadata>
 <defs>
  <style type="text/css">*{stroke-linecap:butt;stroke-linejoin:round;}</style>
 </defs>
 <g id="figure_1">
  <g id="patch_1">
   <path d="M 0 288 
L 720 288 
L 720 0 
L 0 0 
z
" style="fill:#ffffff;"/>
  </g>
  <g id="axes_1">
   <g id="line2d_1">
    <path clip-path="url(#p9bcca2eb65)" d="M 47.100091 236.561807 
L 47.133185 236.628121 
L 47.153061 236.644353 
L 47.701829 236.905874 
L 48.895264 237.209768 
L 49.734419 237.233176 
L 50.035633 237.036761 
L 50.793065 236.039608 
L 50.807246 235.820874 
L 50.533098 235.680375 
L 49.665677 235.543972 
L 47.883501 235.526755 
L 46.60544 235.735463 
L 46.089254 236.00162 
L 45.814322 236.434408 
L 45.775933 236.988694 
L 45.943986 237.794911 
L 46.392918 238.82872 
L 46.932164 239.544268 
L 47.364871 239.772444 
L 47.566662 239.648526 
L 47.639463 239.334316 
L 47.578289 238.511748 
L 47.246981 236.504965 
L 47.246981 236.504965 
" style="fill:none;stroke:#000000;stroke-linecap:square;stroke-opacity:0.7;stroke-width:1.2;"/>
   </g>
   <g id="line2d_2">
    <path clip-path="url(#p9bcca2eb65)" d="M 47.135362 189.906634 
L 47.417011 190.042734 
L 48.849359 190.467577 
L 51.060747 190.905935 
L 52.134048 190.936622 
L 52.429863 190.777344 
L 52.421872 190.518917 
L 51.996896 189.942698 
L 51.240908 189.291404 
L 50.324094 188.780661 
L 49.801407 188.725122 
L 49.106104 188.910563 
L 47.971326 189.461472 
L 46.810289 190.238646 
L 46.22659 190.847234 
L 46.110514 191.256089 
L 46.263876 191.520113 
L 46.660512 191.744883 
L 47.546557 191.961988 
L 48.352086 191.968468 
L 48.49063 191.810493 
L 48.379433 191.483746 
L 47.699934 190.510357 
L 47.254608 189.864558 
L 47.254608 189.864558 
" style="fill:none;stroke:#000000;stroke-linecap:square;stroke-opacity:0.7;stroke-width:1.2;"/>
   </g>
   <g id="line2d_3">
    <path clip-path="url(#p9bcca2eb65)" d="M 47.050625 143.301313 
L 48.402508 143.160904 
L 49.971178 142.946279 
L 49.887092 142.904995 
L 49.0703 142.809091 
L 47.50651 142.798938 
L 47.059163 142.962904 
L 46.895842 143.23346 
L 46.823049 143.884953 
L 46.94693 144.48601 
L 47.243411 144.92804 
L 47.62854 145.097286 
L 47.970386 145.012652 
L 48.226746 144.727545 
L 48.345555 144.252317 
L 48.243667 143.761086 
L 47.988906 143.517841 
L 47.299024 143.30101 
L 47.167545 143.265917 
L 47.168782 143.266798 
" style="fill:none;stroke:#000000;stroke-linecap:square;stroke-opacity:0.7;stroke-width:1.2;"/>
   </g>
   <g id="line2d_4">
    <path clip-path="url(#p9bcca2eb65)" d="M 46.964562 96.661847 
L 46.816865 96.458523 
L 46.891872 96.199038 
L 47.143367 96.084716 
L 47.212983 96.208953 
L 47.168323 97.51762 
L 47.459865 97.78628 
L 47.899866 97.843278 
L 48.597983 97.651446 
L 49.738026 97.136164 
L 49.86227 96.916645 
L 49.708931 96.670703 
L 49.164598 96.350629 
L 48.185084 96.059354 
L 47.329911 96.026275 
L 47.05629 96.198364 
L 47.016516 96.494001 
L 47.100817 96.618127 
L 47.100817 96.618127 
" style="fill:none;stroke:#000000;stroke-linecap:square;stroke-opacity:0.7;stroke-width:1.2;"/>
   </g>
   <g id="line2d_5">
    <path clip-path="url(#p9bcca2eb65)" d="M 46.993982 49.997684 
L 46.378078 49.495065 
L 44.817628 48.229844 
L 44.641962 48.3036 
L 44.533839 48.613188 
L 44.53378 49.35658 
L 44.745235 50.23251 
L 45.130305 50.949636 
L 45.575608 51.349878 
L 46.06632 51.487881 
L 46.591088 51.393532 
L 47.239886 51.006944 
L 47.582932 50.599896 
L 47.568914 50.587248 
L 47.309569 50.599674 
L 46.941169 50.789602 
L 47.02267 50.580968 
L 47.121411 49.986865 
L 47.121411 49.986865 
" style="fill:none;stroke:#000000;stroke-linecap:square;stroke-opacity:0.7;stroke-width:1.2;"/>
   </g>
   <g id="line2d_6">
    <path clip-path="url(#p9bcca2eb65)" d="M 202.361584 236.352529 
L 202.365523 236.343184 
L 202.452882 236.310838 
L 203.747316 236.037439 
L 204.354223 235.941312 
L 203.756928 236.147569 
L 203.737201 236.313778 
L 204.01979 236.628684 
L 204.180423 236.566798 
L 204.159074 236.523885 
L 203.89188 236.398079 
L 203.201524 236.317236 
L 202.475224 236.310601 
L 202.481718 236.307491 
" style="fill:none;stroke:#000000;stroke-linecap:square;stroke-opacity:0.7;stroke-width:1.2;"/>
   </g>
   <g id="line2d_7">
    <path clip-path="url(#p9bcca2eb65)" d="M 202.264561 189.84272 
L 201.568577 189.417159 
L 200.00829 188.451279 
L 199.937822 188.642532 
L 200.012592 189.311272 
L 200.296292 190.141483 
L 200.808457 190.996152 
L 201.387091 191.536101 
L 201.955291 191.724326 
L 202.30329 191.649541 
L 202.642885 191.336102 
L 202.819483 190.788888 
L 202.754555 190.198362 
L 202.522802 189.853369 
L 202.354912 189.85719 
L 202.185222 190.122014 
L 202.095567 190.709734 
L 202.207541 191.176705 
L 202.434532 191.356636 
L 202.532658 191.234991 
L 202.523387 190.789747 
L 202.41502 189.857442 
L 202.41502 189.857442 
" style="fill:none;stroke:#000000;stroke-linecap:square;stroke-opacity:0.7;stroke-width:1.2;"/>
   </g>
   <g id="line2d_8">
    <path clip-path="url(#p9bcca2eb65)" d="M 202.270041 143.15666 
L 201.737223 142.801004 
L 201.213365 142.331427 
L 201.177095 142.464498 
L 201.152902 143.286088 
L 201.319993 144.090158 
L 201.635668 144.648057 
L 202.009749 144.899034 
L 202.403127 144.933816 
L 203.113943 144.726619 
L 204.397388 144.06678 
L 205.33695 143.39236 
L 205.482573 143.068709 
L 205.403353 142.829944 
L 205.013892 142.492593 
L 204.362798 142.214654 
L 203.519844 142.067061 
L 202.889462 142.160122 
L 202.614308 142.400598 
L 202.430756 142.875908 
L 202.411806 143.142524 
L 202.411806 143.142524 
" style="fill:none;stroke:#000000;stroke-linecap:square;stroke-opacity:0.7;stroke-width:1.2;"/>
   </g>
   <g id="line2d_9">
    <path clip-path="url(#p9bcca2eb65)" d="M 202.367686 96.71372 
L 202.393752 96.639816 
L 202.41807 96.617823 
L 202.95639 96.320742 
L 203.620554 96.105843 
L 202.315627 96.691245 
L 201.99282 97.574329 
L 202.086777 97.97446 
L 202.354467 98.161286 
L 202.797527 98.178162 
L 203.248836 97.9667 
L 203.3567 97.726572 
L 203.212069 97.428513 
L 202.503319 96.682804 
L 202.503319 96.682804 
" style="fill:none;stroke:#000000;stroke-linecap:square;stroke-opacity:0.7;stroke-width:1.2;"/>
   </g>
   <g id="line2d_10">
    <path clip-path="url(#p9bcca2eb65)" d="M 202.403112 50.142826 
L 203.883283 50.074506 
L 206.292167 49.812355 
L 206.41422 49.70392 
L 206.3939 49.677047 
L 206.030661 49.525492 
L 204.804473 49.289956 
L 203.355945 49.196525 
L 202.710309 49.345509 
L 202.399609 49.610126 
L 202.053498 50.281288 
L 201.895812 51.081729 
L 201.967502 51.785229 
L 202.197944 52.194669 
L 202.50457 52.379673 
L 202.93941 52.360383 
L 203.396977 52.069914 
L 203.756039 51.583497 
L 203.90806 51.054908 
L 203.7888 50.735137 
L 203.415704 50.472875 
L 202.508673 50.119425 
L 202.508673 50.119425 
" style="fill:none;stroke:#000000;stroke-linecap:square;stroke-opacity:0.7;stroke-width:1.2;"/>
   </g>
   <g id="line2d_11">
    <path clip-path="url(#p9bcca2eb65)" d="M 357.649601 236.419894 
L 357.908065 236.611526 
L 359.12073 237.195069 
L 361.527112 238.10273 
L 363.297463 238.561563 
L 364.148592 238.590214 
L 364.61132 238.388644 
L 364.939333 237.954078 
L 365.227513 237.163197 
L 365.591167 235.467632 
L 365.558273 234.853238 
L 365.318789 234.697263 
L 364.657995 234.616021 
L 362.883276 234.654839 
L 360.638009 234.898462 
L 359.703015 235.199764 
L 359.117028 235.643327 
L 358.049348 236.81154 
L 357.691552 237.466965 
L 357.707043 237.583767 
L 357.769084 236.39736 
L 357.769084 236.39736 
" style="fill:none;stroke:#000000;stroke-linecap:square;stroke-opacity:0.7;stroke-width:1.2;"/>
   </g>
   <g id="line2d_12">
    <path clip-path="url(#p9bcca2eb65)" d="M 357.566123 189.881005 
L 357.176743 189.711597 
L 357.162925 189.641314 
L 357.178084 189.884582 
L 356.721221 190.851551 
L 356.857306 191.05586 
L 357.208889 191.073492 
L 357.798446 191.021611 
L 358.262432 191.146625 
L 358.651079 191.067079 
L 358.612298 190.900862 
L 358.074059 190.27699 
L 357.773646 189.877865 
L 357.773646 189.877865 
" style="fill:none;stroke:#000000;stroke-linecap:square;stroke-opacity:0.7;stroke-width:1.2;"/>
   </g>
   <g id="line2d_13">
    <path clip-path="url(#p9bcca2eb65)" d="M 357.550461 143.248618 
L 356.984016 142.997486 
L 356.446348 142.565438 
L 356.904899 143.071804 
L 357.50369 143.518448 
L 358.568526 144.003399 
L 359.420278 144.172978 
L 360.012241 144.089825 
L 360.227384 143.915818 
L 360.299732 143.550372 
L 360.11284 143.052684 
L 359.571573 142.371259 
L 358.784039 141.739737 
L 358.008146 141.377802 
L 357.394856 141.354764 
L 357.091273 141.504534 
L 356.699923 141.998275 
L 356.392231 142.856528 
L 356.243964 143.717174 
L 356.220334 145.067613 
L 356.427079 146.113085 
L 356.663868 146.563046 
L 356.934594 146.778863 
L 357.238969 146.741274 
L 357.45603 146.447954 
L 357.634058 145.768951 
L 357.740974 144.201465 
L 357.756481 143.254831 
L 357.756481 143.254831 
" style="fill:none;stroke:#000000;stroke-linecap:square;stroke-opacity:0.7;stroke-width:1.2;"/>
   </g>
   <g id="line2d_14">
    <path clip-path="url(#p9bcca2eb65)" d="M 357.573424 96.666186 
L 358.668503 96.593838 
L 359.938981 96.427428 
L 357.843232 96.759344 
L 357.174403 97.078492 
L 357.112237 97.289866 
L 357.327868 97.572781 
L 358.011041 98.005259 
L 359.064584 98.383775 
L 359.788486 98.420001 
L 360.22314 98.218543 
L 360.435684 97.822202 
L 360.419593 97.308357 
L 360.148548 96.672651 
L 359.685146 96.149364 
L 359.174966 95.897987 
L 358.734224 95.945232 
L 358.124037 96.28867 
L 357.720032 96.650917 
L 357.720032 96.650917 
" style="fill:none;stroke:#000000;stroke-linecap:square;stroke-opacity:0.7;stroke-width:1.2;"/>
   </g>
   <g id="line2d_15">
    <path clip-path="url(#p9bcca2eb65)" d="M 357.705666 50.1802 
L 358.315224 50.225334 
L 361.022079 50.226801 
L 361.413872 50.112509 
L 361.411962 50.100231 
L 361.26876 49.99096 
L 360.511802 49.738436 
L 359.112829 49.485305 
L 358.543193 49.565184 
L 357.997134 49.893256 
L 357.408118 50.46681 
L 357.178943 50.926324 
L 357.229276 51.206951 
L 357.486125 51.380891 
L 357.954851 51.403255 
L 358.426783 51.228011 
L 358.467986 51.027968 
L 358.229065 50.656694 
L 357.832806 50.141634 
L 357.832806 50.141634 
" style="fill:none;stroke:#000000;stroke-linecap:square;stroke-opacity:0.7;stroke-width:1.2;"/>
   </g>
   <g id="line2d_16">
    <path clip-path="url(#p9bcca2eb65)" d="M 512.958272 236.388467 
L 512.815286 236.180359 
L 512.776356 235.710929 
L 512.874083 235.406213 
L 512.69444 235.579443 
L 511.904485 236.520775 
L 511.641238 237.083095 
L 511.672754 237.418387 
L 511.93378 237.629865 
L 512.67846 237.818719 
L 514.024078 237.92568 
L 514.754763 237.792334 
L 515.101326 237.514899 
L 515.229272 237.137064 
L 515.146046 236.624618 
L 514.820143 236.114749 
L 514.370449 235.817112 
L 514.004455 235.810351 
L 513.456849 236.08926 
L 513.092358 236.36654 
L 513.092358 236.36654 
" style="fill:none;stroke:#000000;stroke-linecap:square;stroke-opacity:0.7;stroke-width:1.2;"/>
   </g>
   <g id="line2d_17">
    <path clip-path="url(#p9bcca2eb65)" d="M 512.993136 189.881635 
L 513.340039 190.065794 
L 515.128977 190.705476 
L 517.889474 191.483702 
L 519.628752 191.782042 
L 520.078225 191.689374 
L 520.099848 191.508687 
L 519.887542 191.193086 
L 519.059375 190.475856 
L 517.740823 189.651711 
L 516.698143 189.29958 
L 516.068324 189.359014 
L 515.106598 189.755695 
L 514.261422 190.331825 
L 513.93318 190.779506 
L 513.958728 190.877506 
L 513.865785 190.503041 
L 513.537106 190.242363 
L 513.183234 189.975414 
L 513.085538 189.833153 
L 513.085538 189.833153 
" style="fill:none;stroke:#000000;stroke-linecap:square;stroke-opacity:0.7;stroke-width:1.2;"/>
   </g>
   <g id="line2d_18">
    <path clip-path="url(#p9bcca2eb65)" d="M 513.031872 143.313539 
L 513.488595 143.469181 
L 515.855062 143.992328 
L 519.395563 144.565541 
L 520.816981 144.609306 
L 521.099704 144.452842 
L 521.080406 144.262573 
L 520.833162 143.94458 
L 519.967532 143.274358 
L 518.538739 142.483396 
L 517.500354 142.126792 
L 516.771373 142.102762 
L 516.004432 142.325258 
L 515.070357 142.822657 
L 514.245538 143.457304 
L 513.747154 144.113403 
L 513.79026 144.379197 
L 514.0142 144.356426 
L 514.234697 144.096275 
L 514.270464 143.702408 
L 514.10575 143.442234 
L 513.772732 143.353972 
L 513.128369 143.288517 
L 513.128369 143.288517 
" style="fill:none;stroke:#000000;stroke-linecap:square;stroke-opacity:0.7;stroke-width:1.2;"/>
   </g>
   <g id="line2d_19">
    <path clip-path="url(#p9bcca2eb65)" d="M 512.875653 96.669311 
L 512.860665 96.745614 
L 512.888234 96.785943 
L 513.206457 97.003811 
L 513.947827 97.23349 
L 514.722373 97.269368 
L 515.549532 97.037097 
L 517.406775 96.366106 
L 517.39129 96.092344 
L 517.112441 95.676246 
L 516.45683 95.078218 
L 515.946739 94.833832 
L 515.521096 94.873976 
L 514.982791 95.165066 
L 513.837949 96.105036 
L 512.947698 97.084357 
L 512.630067 97.716864 
L 512.704904 97.946891 
L 512.819247 97.856622 
L 512.911086 97.524573 
L 513.014455 96.657544 
L 513.014455 96.657544 
" style="fill:none;stroke:#000000;stroke-linecap:square;stroke-opacity:0.7;stroke-width:1.2;"/>
   </g>
   <g id="line2d_20">
    <path clip-path="url(#p9bcca2eb65)" d="M 512.775942 50.00937 
L 512.378683 49.829816 
L 512.190636 49.59636 
L 512.205957 49.817146 
L 512.158742 50.68627 
L 512.352824 51.315459 
L 512.718914 51.705564 
L 513.126533 51.842856 
L 513.711209 51.786162 
L 514.75186 51.380825 
L 516.531667 50.421794 
L 517.11501 49.908837 
L 517.146053 49.601803 
L 516.948645 49.333743 
L 516.362569 48.976065 
L 515.344505 48.647319 
L 514.295279 48.52968 
L 513.615297 48.643927 
L 513.235448 48.927509 
L 513.007258 49.403159 
L 512.953851 49.984066 
L 512.953851 49.984066 
" style="fill:none;stroke:#000000;stroke-linecap:square;stroke-opacity:0.7;stroke-width:1.2;"/>
   </g>
   <g id="line2d_21">
    <path clip-path="url(#p9bcca2eb65)" d="M 668.253851 236.38312 
L 668.263137 236.365288 
L 668.319246 236.337482 
L 669.3854 236.026353 
L 669.655749 235.951509 
L 668.641971 236.311334 
L 668.380835 236.589814 
L 668.440017 236.862339 
L 668.857566 237.322505 
L 669.511288 237.715698 
L 670.057384 237.777346 
L 670.348459 237.587122 
L 670.43142 237.240811 
L 670.294157 236.767183 
L 669.931007 236.266837 
L 669.390791 235.904264 
L 669.018984 235.89931 
L 668.536107 236.164897 
L 668.351955 236.334394 
L 668.351955 236.334394 
" style="fill:none;stroke:#000000;stroke-linecap:square;stroke-opacity:0.7;stroke-width:1.2;"/>
   </g>
   <g id="line2d_22">
    <path clip-path="url(#p9bcca2eb65)" d="M 668.127192 189.818128 
L 667.647633 189.650215 
L 667.179432 189.317396 
L 667.306609 189.572253 
L 667.756548 190.330633 
L 668.48844 191.09085 
L 669.263703 191.59067 
L 669.921558 191.767284 
L 670.42514 191.66801 
L 670.774546 191.404659 
L 671.132898 190.874463 
L 671.466072 189.957034 
L 671.591701 189.009474 
L 671.511659 188.672805 
L 671.224382 188.472931 
L 670.552776 188.471865 
L 669.408023 188.736726 
L 668.349726 189.194922 
L 667.934354 189.581887 
L 667.912568 189.877495 
L 668.083524 189.969527 
L 668.28282 189.797778 
L 668.28282 189.797778 
" style="fill:none;stroke:#000000;stroke-linecap:square;stroke-opacity:0.7;stroke-width:1.2;"/>
   </g>
   <g id="line2d_23">
    <path clip-path="url(#p9bcca2eb65)" d="M 668.246868 143.278742 
L 668.900042 143.324395 
L 671.988315 143.331193 
L 672.866637 143.183393 
L 672.92034 143.013733 
L 672.71529 142.795347 
L 671.890789 142.301265 
L 671.027204 141.962693 
L 670.580523 142.028747 
L 669.762324 142.462224 
L 668.929344 143.112511 
L 668.707263 143.523587 
L 668.56669 144.548932 
L 668.528642 143.952562 
L 668.36444 143.257986 
L 668.36444 143.257986 
" style="fill:none;stroke:#000000;stroke-linecap:square;stroke-opacity:0.7;stroke-width:1.2;"/>
   </g>
   <g id="line2d_24">
    <path clip-path="url(#p9bcca2eb65)" d="M 668.194076 96.660403 
L 667.699573 96.403687 
L 667.311089 96.001038 
L 667.350381 96.250459 
L 667.484304 97.024242 
L 667.833954 97.583911 
L 668.214426 97.828963 
L 668.640542 97.869485 
L 669.007336 97.675543 
L 669.219976 97.319027 
L 669.277507 96.767586 
L 669.167532 96.556701 
L 669.150056 96.559789 
L 668.843489 96.767897 
L 668.321608 97.319213 
L 668.311248 97.454964 
L 668.361122 96.994717 
L 668.364418 96.637232 
L 668.364418 96.637232 
" style="fill:none;stroke:#000000;stroke-linecap:square;stroke-opacity:0.7;stroke-width:1.2;"/>
   </g>
   <g id="line2d_25">
    <path clip-path="url(#p9bcca2eb65)" d="M 668.249082 50.11519 
L 668.592749 50.250793 
L 670.478613 50.727872 
L 673.799898 51.343858 
L 675.170961 51.414615 
L 675.459741 51.288912 
L 675.480957 51.106522 
L 675.246605 50.736048 
L 674.597481 50.121958 
L 673.189999 49.124509 
L 672.377162 48.786314 
L 671.905437 48.782582 
L 671.115096 48.998465 
L 669.86476 49.587874 
L 669.087208 50.175172 
L 668.920258 50.531813 
L 668.832929 50.794453 
L 668.777545 50.832123 
L 668.726842 50.748526 
L 668.377554 50.10132 
L 668.377554 50.10132 
" style="fill:none;stroke:#000000;stroke-linecap:square;stroke-opacity:0.7;stroke-width:1.2;"/>
   </g>
  </g>
 </g>
 <defs>
  <clipPath id="p9bcca2eb65">
   <rect height="262.08" width="694.08" x="12.96" y="12.96"/>
  </clipPath>
 </defs>
</svg>
