<?xml version="1.0" encoding="utf-8" standalone="no"?>
<!DOCTYPE svg PUBLIC "-//W3C//DTD SVG 1.1//EN"
  "http://www.w3.org/Graphics/SVG/1.1/DTD/svg11.dtd">
<!-- Created with matplotlib (https://matplotlib.org/) -->
<svg height="288pt" version="1.1" viewBox="0 0 720 288" width="720pt" xmlns="http://www.w3.org/2000/svg" xmlns:xlink="http://www.w3.org/1999/xlink">
 <metadata>
  <rdf:RDF xmlns:cc="http://creativecommons.org/ns#" xmlns:dc="http://purl.org/dc/elements/1.1/" xmlns:rdf="http://www.w3.org/1999/02/22-rdf-syntax-ns#">
   <cc:Work>
    <dc:type rdf:resource="http://purl.org/dc/dcmitype/StillImage"/>
    <dc:date>2020-12-21T15:33:03.832023</dc:date>
    <dc:format>image/svg+xml</dc:format>
    <dc:creator>
     <cc:Agent>
      <dc:title>Matplotlib v3.3.2, https://matplotlib.org/</dc:title>
     </cc:Agent>
    </dc:creator>
   </cc:Work>
  </rdf:RDF>
 </metadata>
 <defs>
  <style type="text/css">*{stroke-linecap:butt;stroke-linejoin:round;}</style>
 </defs>
 <g id="figure_1">
  <g id="patch_1">
   <path d="M 0 288 
L 720 288 
L 720 0 
L 0 0 
z
" style="fill:#ffffff;"/>
  </g>
  <g id="axes_1">
   <g id="line2d_1">
    <path clip-path="url(#p33ea175cc8)" d="M 53.112486 239.807755 
L 52.697856 239.490694 
L 49.967054 237.310769 
L 46.160611 234.780042 
L 45.815206 234.765638 
L 45.399972 234.979901 
L 44.939555 235.440347 
L 44.596836 236.107833 
L 44.563283 236.64567 
L 44.752906 237.122868 
L 45.176902 237.608462 
L 46.286214 238.485247 
L 47.464415 239.16023 
L 48.526448 239.533883 
L 50.167784 239.860146 
L 52.264502 240.035251 
L 53.346414 240.026279 
L 53.346414 240.026279 
" style="fill:none;stroke:#000000;stroke-linecap:square;stroke-opacity:0.7;stroke-width:1.2;"/>
   </g>
   <g id="line2d_2">
    <path clip-path="url(#p33ea175cc8)" d="M 53.555024 193.35414 
L 53.209638 193.301874 
L 51.695109 193.253491 
L 49.862104 193.379198 
L 48.261586 193.712848 
L 48.125191 193.784815 
L 48.600345 193.476372 
L 48.847754 192.965786 
L 49.239308 192.064729 
L 49.350878 191.636069 
L 49.205955 191.450479 
L 48.859483 191.39711 
L 48.678158 191.532738 
L 48.804246 191.717897 
L 49.399253 192.066129 
L 50.9237 192.653394 
L 53.302317 193.305697 
L 53.701992 193.375879 
L 53.701992 193.375879 
" style="fill:none;stroke:#000000;stroke-linecap:square;stroke-opacity:0.7;stroke-width:1.2;"/>
   </g>
   <g id="line2d_3">
    <path clip-path="url(#p33ea175cc8)" d="M 53.220737 146.151536 
L 52.662813 145.763287 
L 50.815746 144.528282 
L 49.378244 143.844541 
L 48.360853 143.591653 
L 47.709042 143.628025 
L 47.692989 143.781028 
L 48.025043 144.382007 
L 48.307101 144.386297 
L 48.409213 144.347687 
L 48.154602 144.52869 
L 47.895342 144.939545 
L 47.877022 145.284495 
L 48.092946 145.678212 
L 48.577313 146.00409 
L 49.300354 146.235062 
L 50.510507 146.399749 
L 52.492528 146.416635 
L 53.348226 146.343697 
L 53.348226 146.343697 
" style="fill:none;stroke:#000000;stroke-linecap:square;stroke-opacity:0.7;stroke-width:1.2;"/>
   </g>
   <g id="line2d_4">
    <path clip-path="url(#p33ea175cc8)" d="M 53.460077 99.791434 
L 52.311666 99.081545 
L 50.733491 98.360023 
L 49.607671 98.046215 
L 48.490068 97.990467 
L 47.869787 98.188045 
L 47.775552 98.408065 
L 47.981842 98.580295 
L 48.545019 98.726015 
L 49.091117 98.662132 
L 49.443409 98.380058 
L 49.590096 98.028596 
L 49.489347 97.799106 
L 49.184305 97.713647 
L 48.673171 97.844748 
L 48.277271 98.160423 
L 48.119749 98.562972 
L 48.208383 98.906232 
L 48.552992 99.25176 
L 49.232317 99.557262 
L 50.269181 99.778112 
L 51.890526 99.894728 
L 53.685369 99.808424 
L 53.685369 99.808424 
" style="fill:none;stroke:#000000;stroke-linecap:square;stroke-opacity:0.7;stroke-width:1.2;"/>
   </g>
   <g id="line2d_5">
    <path clip-path="url(#p33ea175cc8)" d="M 53.44391 53.4771 
L 53.149737 53.285887 
L 52.47678 53.091273 
L 51.473329 53.009392 
L 50.249072 53.140864 
L 48.946035 53.58492 
L 48.228759 54.059874 
L 47.891837 54.556559 
L 47.983617 54.736206 
L 48.22132 54.758582 
L 48.802753 54.527315 
L 49.451841 53.987818 
L 49.994142 53.181926 
L 50.247782 52.406131 
L 50.293309 51.590896 
L 50.114618 50.798874 
L 49.777734 50.220656 
L 49.333407 49.844736 
L 48.748243 49.648774 
L 48.116074 49.662933 
L 47.557472 49.814447 
L 46.524547 50.376127 
L 45.655164 51.143231 
L 45.007221 51.988296 
L 44.580347 52.947717 
L 44.520598 53.652516 
L 44.713944 54.178453 
L 45.061135 54.517505 
L 45.592441 54.76371 
L 46.633572 54.934695 
L 48.068769 54.89836 
L 49.885366 54.633817 
L 52.308239 54.035631 
L 53.874778 53.486095 
L 53.874778 53.486095 
" style="fill:none;stroke:#000000;stroke-linecap:square;stroke-opacity:0.7;stroke-width:1.2;"/>
   </g>
   <g id="line2d_6">
    <path clip-path="url(#p33ea175cc8)" d="M 208.626248 240.119555 
L 205.600683 239.364847 
L 205.485368 239.137032 
L 205.557209 237.695529 
L 205.231342 237.027562 
L 204.555236 236.18858 
L 203.852879 235.645779 
L 203.27046 235.447742 
L 202.707887 235.478157 
L 202.018707 235.779799 
L 201.412349 236.252641 
L 200.588845 237.185418 
L 199.855142 238.370654 
L 199.398952 239.54602 
L 199.316357 240.313739 
L 199.428467 240.748942 
L 199.751863 241.122824 
L 200.202258 241.336665 
L 200.953914 241.473042 
L 202.173551 241.480207 
L 204.249679 241.249287 
L 207.098082 240.681302 
L 208.952348 240.157113 
L 208.952348 240.157113 
" style="fill:none;stroke:#000000;stroke-linecap:square;stroke-opacity:0.7;stroke-width:1.2;"/>
   </g>
   <g id="line2d_7">
    <path clip-path="url(#p33ea175cc8)" d="M 208.242762 192.630714 
L 207.887388 192.344187 
L 206.432541 191.131396 
L 205.491062 190.658435 
L 204.481476 190.417743 
L 204.354851 190.415268 
L 204.49608 190.512679 
L 204.532345 190.738508 
L 204.467313 190.975333 
L 204.43955 190.725994 
L 204.162067 190.479344 
L 203.444724 190.183534 
L 202.371584 190.004642 
L 201.054833 190.050403 
L 200.168683 190.300423 
L 199.768327 190.59636 
L 199.678229 190.860896 
L 199.733191 191.048671 
L 200.126968 191.428644 
L 200.992335 191.832794 
L 202.514714 192.246717 
L 204.67785 192.581856 
L 206.967074 192.724953 
L 208.352013 192.67251 
L 208.352013 192.67251 
" style="fill:none;stroke:#000000;stroke-linecap:square;stroke-opacity:0.7;stroke-width:1.2;"/>
   </g>
   <g id="line2d_8">
    <path clip-path="url(#p33ea175cc8)" d="M 209.027338 146.877896 
L 208.257281 145.241535 
L 207.279037 144.081032 
L 206.109509 143.109008 
L 205.075005 142.475946 
L 203.721178 141.872203 
L 202.39778 141.471551 
L 200.268994 141.151497 
L 198.942767 141.163967 
L 197.621544 141.438898 
L 197.014452 141.746852 
L 196.490859 142.2272 
L 196.133729 142.814924 
L 195.864114 143.715033 
L 195.790717 144.698557 
L 195.937559 145.830778 
L 196.276452 146.66164 
L 196.646974 147.049563 
L 197.063487 147.20347 
L 197.742864 147.210976 
L 199.39707 147.183146 
L 200.657881 147.4174 
L 202.514088 147.792061 
L 204.142606 147.849276 
L 206.222813 147.667132 
L 208.428763 147.242458 
L 209.250759 146.999054 
L 209.250759 146.999054 
" style="fill:none;stroke:#000000;stroke-linecap:square;stroke-opacity:0.7;stroke-width:1.2;"/>
   </g>
   <g id="line2d_9">
    <path clip-path="url(#p33ea175cc8)" d="M 208.865269 99.801259 
L 206.641159 98.476631 
L 205.238341 98.001359 
L 204.01727 97.660907 
L 203.698798 96.707406 
L 203.124188 96.17114 
L 202.206278 95.640765 
L 201.48981 95.431918 
L 201.031649 95.515695 
L 200.792987 95.763189 
L 200.604301 96.341325 
L 200.568925 97.343535 
L 200.760026 98.597055 
L 201.204502 99.895624 
L 201.705766 100.761658 
L 202.31614 101.426217 
L 203.203465 101.949798 
L 204.024064 102.136787 
L 204.876039 102.125333 
L 206.034963 101.861182 
L 207.358317 101.267664 
L 208.511414 100.462995 
L 209.063814 99.885651 
L 209.063814 99.885651 
" style="fill:none;stroke:#000000;stroke-linecap:square;stroke-opacity:0.7;stroke-width:1.2;"/>
   </g>
   <g id="line2d_10">
    <path clip-path="url(#p33ea175cc8)" d="M 208.928282 53.355223 
L 208.14021 52.723955 
L 206.565295 51.756257 
L 204.159214 50.567132 
L 202.172769 49.533558 
L 201.049861 48.674964 
L 200.461893 48.303733 
L 199.882023 48.219 
L 199.13515 48.360741 
L 198.513006 48.688034 
L 198.122467 49.138263 
L 197.937341 49.660125 
L 197.865004 50.496017 
L 197.98672 51.91195 
L 198.306667 53.24375 
L 198.770392 54.237128 
L 199.261202 54.792651 
L 199.882857 55.14881 
L 200.645022 55.329835 
L 201.757924 55.358095 
L 203.517273 55.13783 
L 205.821767 54.597874 
L 208.151324 53.840491 
L 209.091621 53.449974 
L 209.091621 53.449974 
" style="fill:none;stroke:#000000;stroke-linecap:square;stroke-opacity:0.7;stroke-width:1.2;"/>
   </g>
   <g id="line2d_11">
    <path clip-path="url(#p33ea175cc8)" d="M 363.996083 239.415771 
L 363.609393 239.055618 
L 362.023627 237.612819 
L 360.775804 236.777697 
L 359.518995 236.227642 
L 358.375089 235.983541 
L 357.690232 236.018573 
L 357.365377 236.247766 
L 357.228211 236.71677 
L 357.274086 237.369726 
L 357.487227 237.696937 
L 357.868867 237.881652 
L 358.517018 237.908244 
L 359.132231 237.940193 
L 359.5799 238.374299 
L 360.343288 238.763764 
L 361.704388 239.184385 
L 363.602202 239.524703 
L 364.08824 239.562224 
L 364.08824 239.562224 
" style="fill:none;stroke:#000000;stroke-linecap:square;stroke-opacity:0.7;stroke-width:1.2;"/>
   </g>
   <g id="line2d_12">
    <path clip-path="url(#p33ea175cc8)" d="M 363.26507 192.587821 
L 361.319969 191.733827 
L 360.088473 191.477975 
L 359.079065 191.505071 
L 358.983696 191.507457 
L 359.224729 191.381202 
L 359.817006 191.250279 
L 360.303288 191.415248 
L 360.973764 191.641485 
L 361.359135 191.53948 
L 361.496819 191.308094 
L 361.435247 191.060763 
L 361.107513 190.706804 
L 360.391763 190.296563 
L 359.170552 189.888627 
L 357.819525 189.663739 
L 356.657277 189.668429 
L 356.026797 189.828589 
L 355.729275 190.102475 
L 355.744068 190.365344 
L 356.069416 190.75306 
L 356.780202 191.197569 
L 358.067793 191.726485 
L 359.821537 192.220888 
L 360.930008 192.446569 
L 363.431113 192.701762 
L 363.431113 192.701762 
" style="fill:none;stroke:#000000;stroke-linecap:square;stroke-opacity:0.7;stroke-width:1.2;"/>
   </g>
   <g id="line2d_13">
    <path clip-path="url(#p33ea175cc8)" d="M 364.300662 146.234921 
L 363.228197 144.885983 
L 361.440893 143.584532 
L 359.466007 142.570949 
L 358.613436 142.220606 
L 356.323679 141.49941 
L 355.044485 141.273558 
L 354.031083 141.345607 
L 353.549206 141.676945 
L 353.215589 142.272071 
L 352.97437 143.255283 
L 352.950268 144.285515 
L 353.14124 145.059221 
L 353.455018 145.488659 
L 353.901513 145.697173 
L 354.329584 145.916156 
L 354.949368 146.347165 
L 355.888076 146.615257 
L 357.386627 146.793163 
L 359.888906 146.845591 
L 362.89335 146.672324 
L 364.446378 146.45074 
L 364.446378 146.45074 
" style="fill:none;stroke:#000000;stroke-linecap:square;stroke-opacity:0.7;stroke-width:1.2;"/>
   </g>
   <g id="line2d_14">
    <path clip-path="url(#p33ea175cc8)" d="M 364.215729 100.018442 
L 361.799613 98.25973 
L 360.583499 97.722501 
L 359.078498 97.302858 
L 358.143554 96.982345 
L 356.855873 96.351654 
L 356.290733 96.241788 
L 356.080122 96.431238 
L 355.861613 96.916631 
L 355.661858 97.830744 
L 355.646654 99.010526 
L 355.80139 99.737872 
L 356.204281 100.486127 
L 356.765931 100.956198 
L 357.456819 101.224038 
L 358.385665 101.349204 
L 359.566963 101.316506 
L 361.573587 101.003943 
L 363.737274 100.425474 
L 364.442436 100.180106 
L 364.442436 100.180106 
" style="fill:none;stroke:#000000;stroke-linecap:square;stroke-opacity:0.7;stroke-width:1.2;"/>
   </g>
   <g id="line2d_15">
    <path clip-path="url(#p33ea175cc8)" d="M 364.258099 53.269268 
L 364.03021 53.028597 
L 362.706116 51.593985 
L 361.487968 50.617805 
L 360.304533 49.929306 
L 358.825499 49.355912 
L 357.359042 49.056456 
L 356.022507 49.000167 
L 355.553307 49.147584 
L 355.335395 49.39384 
L 355.234668 49.796783 
L 355.279906 50.4725 
L 355.59344 51.568631 
L 356.208319 52.853322 
L 357.168596 54.2155 
L 358.102977 55.127805 
L 359.094354 55.761615 
L 359.998001 56.07895 
L 360.873975 56.169907 
L 361.750437 56.057685 
L 362.768243 55.664997 
L 363.537192 55.141846 
L 364.226791 54.381966 
L 364.525695 53.719578 
L 364.553058 53.54085 
L 364.553058 53.54085 
" style="fill:none;stroke:#000000;stroke-linecap:square;stroke-opacity:0.7;stroke-width:1.2;"/>
   </g>
   <g id="line2d_16">
    <path clip-path="url(#p33ea175cc8)" d="M 519.841346 240.138197 
L 519.285108 239.790573 
L 517.602179 238.973181 
L 515.745909 238.303844 
L 513.792832 237.846413 
L 512.351085 237.712371 
L 512.010219 237.814108 
L 511.96205 237.98482 
L 512.094837 238.381405 
L 512.463985 238.852846 
L 513.004786 239.18071 
L 513.611444 239.291768 
L 514.158068 239.178361 
L 514.517885 238.909987 
L 514.945708 238.563445 
L 515.473631 238.690671 
L 519.980071 240.227042 
L 519.980071 240.227042 
" style="fill:none;stroke:#000000;stroke-linecap:square;stroke-opacity:0.7;stroke-width:1.2;"/>
   </g>
   <g id="line2d_17">
    <path clip-path="url(#p33ea175cc8)" d="M 519.815731 193.584615 
L 519.261702 193.141906 
L 517.997938 192.452956 
L 515.976314 191.640159 
L 511.451669 190.134484 
L 510.339334 189.967003 
L 509.570918 190.064732 
L 508.735056 190.414942 
L 508.131594 190.915451 
L 507.879351 191.395724 
L 507.912252 191.790087 
L 508.218235 192.264862 
L 508.962326 192.92605 
L 510.287835 193.769604 
L 511.434461 194.2646 
L 512.622645 194.526905 
L 513.930668 194.60311 
L 516.049574 194.4773 
L 518.413373 194.118132 
L 520.056098 193.719665 
L 520.056098 193.719665 
" style="fill:none;stroke:#000000;stroke-linecap:square;stroke-opacity:0.7;stroke-width:1.2;"/>
   </g>
   <g id="line2d_18">
    <path clip-path="url(#p33ea175cc8)" d="M 519.480807 146.967305 
L 518.826425 146.761073 
L 516.4775 146.209514 
L 513.153639 145.496187 
L 512.991493 145.227309 
L 513.332405 145.078589 
L 513.791387 144.762914 
L 513.905336 144.447795 
L 513.78383 144.115019 
L 513.421283 143.81317 
L 512.909876 143.651342 
L 512.451208 143.710439 
L 512.284968 143.91716 
L 512.360536 144.204628 
L 512.773403 144.630109 
L 513.715405 145.205326 
L 515.206853 145.854451 
L 517.305483 146.543083 
L 519.56145 147.053253 
L 519.659468 147.065597 
L 519.659468 147.065597 
" style="fill:none;stroke:#000000;stroke-linecap:square;stroke-opacity:0.7;stroke-width:1.2;"/>
   </g>
   <g id="line2d_19">
    <path clip-path="url(#p33ea175cc8)" d="M 520.000383 100.193724 
L 518.951487 99.183149 
L 517.966634 98.500097 
L 516.830122 97.948034 
L 515.689828 97.633893 
L 514.615632 97.599165 
L 513.577654 97.652305 
L 512.830196 97.194326 
L 512.228079 96.807218 
L 512.205003 96.850673 
L 512.221659 97.233759 
L 512.478545 98.070636 
L 513.009717 99.12998 
L 513.818991 100.235854 
L 514.867057 101.163474 
L 515.80481 101.627365 
L 516.770688 101.80333 
L 517.799805 101.707364 
L 518.745041 101.394001 
L 519.769197 100.799994 
L 520.295316 100.339666 
L 520.295316 100.339666 
" style="fill:none;stroke:#000000;stroke-linecap:square;stroke-opacity:0.7;stroke-width:1.2;"/>
   </g>
   <g id="line2d_20">
    <path clip-path="url(#p33ea175cc8)" d="M 519.134387 52.721606 
L 518.994758 52.485189 
L 518.193708 51.149062 
L 517.197425 49.923349 
L 516.031158 48.85793 
L 514.575563 47.853483 
L 512.964809 47.006935 
L 511.66794 46.566131 
L 510.887218 46.511087 
L 510.190062 46.677975 
L 509.46345 47.103072 
L 509.14726 47.3692 
L 508.268089 48.388296 
L 507.594009 49.591648 
L 507.287889 50.60758 
L 507.283588 51.32802 
L 507.474434 51.815154 
L 507.811592 52.153265 
L 508.450878 52.446223 
L 512.383238 53.547548 
L 514.154964 53.57088 
L 516.740128 53.376414 
L 519.320232 52.951088 
L 519.320232 52.951088 
" style="fill:none;stroke:#000000;stroke-linecap:square;stroke-opacity:0.7;stroke-width:1.2;"/>
   </g>
   <g id="line2d_21">
    <path clip-path="url(#p33ea175cc8)" d="M 675.352269 240.289333 
L 674.589229 239.613682 
L 673.628474 239.051631 
L 672.423489 238.635404 
L 671.022568 238.429713 
L 669.817775 238.249051 
L 669.284951 237.825133 
L 667.720346 236.519051 
L 667.346026 236.382823 
L 667.185614 236.511449 
L 667.080572 236.850997 
L 667.125717 237.62889 
L 667.395187 238.41588 
L 667.836695 239.1171 
L 668.512742 239.76424 
L 669.319234 240.219329 
L 670.31881 240.525202 
L 671.689272 240.684502 
L 673.268677 240.64733 
L 675.106553 240.384683 
L 675.490909 240.299431 
L 675.490909 240.299431 
" style="fill:none;stroke:#000000;stroke-linecap:square;stroke-opacity:0.7;stroke-width:1.2;"/>
   </g>
   <g id="line2d_22">
    <path clip-path="url(#p33ea175cc8)" d="M 674.866372 193.486463 
L 673.791436 192.691485 
L 672.745336 192.267552 
L 672.118665 192.207477 
L 671.435657 192.347173 
L 670.992234 192.612598 
L 670.695008 193.097784 
L 670.786073 193.352428 
L 670.992549 193.409976 
L 671.33908 193.234293 
L 671.642437 192.766053 
L 671.822462 192.008366 
L 671.800415 191.218767 
L 671.579991 190.795508 
L 671.208053 190.591959 
L 670.729888 190.560565 
L 670.061917 190.739849 
L 669.480606 191.128388 
L 669.226017 191.528166 
L 669.232708 191.903272 
L 669.455214 192.224726 
L 669.970556 192.562281 
L 671.026243 192.944522 
L 672.939157 193.353451 
L 674.97161 193.606028 
L 674.97161 193.606028 
" style="fill:none;stroke:#000000;stroke-linecap:square;stroke-opacity:0.7;stroke-width:1.2;"/>
   </g>
   <g id="line2d_23">
    <path clip-path="url(#p33ea175cc8)" d="M 674.990323 146.166266 
L 674.654057 145.824132 
L 673.679577 145.124823 
L 672.130965 144.26205 
L 669.518423 143.124627 
L 664.608515 141.384395 
L 663.837832 141.208786 
L 663.299584 141.288458 
L 662.71492 141.738309 
L 662.218072 142.43355 
L 661.689148 143.568528 
L 661.411961 144.702913 
L 661.409038 145.438831 
L 661.592264 146.067366 
L 662.075523 146.703799 
L 662.783394 147.210287 
L 664.136584 147.819209 
L 665.930308 148.341004 
L 667.781944 148.649455 
L 669.442122 148.700965 
L 670.954487 148.520036 
L 672.534155 148.077624 
L 673.935455 147.438672 
L 674.970992 146.721744 
L 675.23765 146.44911 
L 675.23765 146.44911 
" style="fill:none;stroke:#000000;stroke-linecap:square;stroke-opacity:0.7;stroke-width:1.2;"/>
   </g>
   <g id="line2d_24">
    <path clip-path="url(#p33ea175cc8)" d="M 674.624312 99.61424 
L 674.10887 99.102706 
L 672.596623 97.694472 
L 671.203085 96.692454 
L 669.812322 95.966279 
L 667.951581 95.259636 
L 666.972369 95.057368 
L 666.553082 95.131143 
L 666.2258 95.429443 
L 666.064936 95.947637 
L 666.123981 96.667566 
L 666.456105 97.374966 
L 666.923905 97.814673 
L 667.460452 98.004175 
L 667.93684 97.928058 
L 668.211563 97.671554 
L 668.274439 97.337282 
L 668.153804 97.139741 
L 668.130357 97.170001 
L 668.20179 97.388058 
L 668.603062 97.82678 
L 669.438436 98.372063 
L 670.773173 98.953897 
L 672.389855 99.433956 
L 674.206551 99.751927 
L 674.813528 99.789997 
L 674.813528 99.789997 
" style="fill:none;stroke:#000000;stroke-linecap:square;stroke-opacity:0.7;stroke-width:1.2;"/>
   </g>
   <g id="line2d_25">
    <path clip-path="url(#p33ea175cc8)" d="M 675.036583 53.707493 
L 672.681635 52.285425 
L 667.537891 50.14806 
L 666.800669 50.246463 
L 666.540827 50.473656 
L 666.395848 50.920661 
L 666.349595 51.719522 
L 666.535174 52.419394 
L 666.880619 52.897793 
L 667.367702 53.248358 
L 668.273109 53.590714 
L 669.683744 53.840861 
L 671.890246 53.964783 
L 674.4341 53.884999 
L 675.226296 53.805267 
L 675.226296 53.805267 
" style="fill:none;stroke:#000000;stroke-linecap:square;stroke-opacity:0.7;stroke-width:1.2;"/>
   </g>
  </g>
 </g>
 <defs>
  <clipPath id="p33ea175cc8">
   <rect height="262.08" width="694.08" x="12.96" y="12.96"/>
  </clipPath>
 </defs>
</svg>
