<?xml version="1.0" encoding="utf-8" standalone="no"?>
<!DOCTYPE svg PUBLIC "-//W3C//DTD SVG 1.1//EN"
  "http://www.w3.org/Graphics/SVG/1.1/DTD/svg11.dtd">
<!-- Created with matplotlib (https://matplotlib.org/) -->
<svg height="288pt" version="1.1" viewBox="0 0 720 288" width="720pt" xmlns="http://www.w3.org/2000/svg" xmlns:xlink="http://www.w3.org/1999/xlink">
 <metadata>
  <rdf:RDF xmlns:cc="http://creativecommons.org/ns#" xmlns:dc="http://purl.org/dc/elements/1.1/" xmlns:rdf="http://www.w3.org/1999/02/22-rdf-syntax-ns#">
   <cc:Work>
    <dc:type rdf:resource="http://purl.org/dc/dcmitype/StillImage"/>
    <dc:date>2020-12-21T16:51:50.830999</dc:date>
    <dc:format>image/svg+xml</dc:format>
    <dc:creator>
     <cc:Agent>
      <dc:title>Matplotlib v3.3.2, https://matplotlib.org/</dc:title>
     </cc:Agent>
    </dc:creator>
   </cc:Work>
  </rdf:RDF>
 </metadata>
 <defs>
  <style type="text/css">*{stroke-linecap:butt;stroke-linejoin:round;}</style>
 </defs>
 <g id="figure_1">
  <g id="patch_1">
   <path d="M 0 288 
L 720 288 
L 720 0 
L 0 0 
z
" style="fill:#ffffff;"/>
  </g>
  <g id="axes_1">
   <g id="line2d_1">
    <path clip-path="url(#pd7fed7d447)" d="M 45.272437 236.351324 
L 45.347514 236.466996 
L 46.109296 237.049114 
L 46.225589 237.077427 
L 46.206429 236.979329 
L 45.940073 236.694418 
L 45.834415 236.654908 
L 46.021803 236.870048 
L 46.322925 237.141606 
L 46.360676 237.091079 
L 46.517168 236.572137 
L 46.490771 236.098663 
L 46.246987 236.147387 
L 45.336744 236.405376 
L 45.336744 236.405376 
" style="fill:none;stroke:#000000;stroke-linecap:square;stroke-opacity:0.7;stroke-width:1.2;"/>
   </g>
   <g id="line2d_2">
    <path clip-path="url(#pd7fed7d447)" d="M 45.236834 189.26008 
L 45.157147 189.524663 
L 45.188155 190.46908 
L 45.40447 191.418932 
L 45.52482 191.376861 
L 47.277716 189.617477 
L 47.260292 189.413593 
L 46.717115 188.389182 
L 46.359127 188.012415 
L 45.50715 188.031306 
L 44.545061 188.141821 
L 44.552082 188.175029 
L 44.859842 188.675612 
L 45.30367 189.340575 
L 45.30367 189.340575 
" style="fill:none;stroke:#000000;stroke-linecap:square;stroke-opacity:0.7;stroke-width:1.2;"/>
   </g>
   <g id="line2d_3">
    <path clip-path="url(#pd7fed7d447)" d="M 45.241654 142.154444 
L 46.54668 141.772804 
L 46.734225 141.737837 
L 46.665069 141.854781 
L 46.429406 142.501804 
L 46.360773 143.273152 
L 46.44308 143.344321 
L 46.479529 143.329457 
L 47.024135 142.916862 
L 47.417181 142.459704 
L 47.101142 142.155379 
L 45.744646 141.170074 
L 45.346563 141.020699 
L 45.334925 141.048482 
L 45.316663 141.568823 
L 45.314949 142.241555 
L 45.314949 142.241555 
" style="fill:none;stroke:#000000;stroke-linecap:square;stroke-opacity:0.7;stroke-width:1.2;"/>
   </g>
   <g id="line2d_4">
    <path clip-path="url(#pd7fed7d447)" d="M 45.29293 95.091341 
L 46.961251 94.199337 
L 46.672111 94.235966 
L 45.923509 94.404449 
L 44.552523 95.815013 
L 45.834212 97.150029 
L 45.817724 96.991852 
L 45.449549 95.288729 
L 45.387174 95.181634 
L 45.387174 95.181634 
" style="fill:none;stroke:#000000;stroke-linecap:square;stroke-opacity:0.7;stroke-width:1.2;"/>
   </g>
   <g id="line2d_5">
    <path clip-path="url(#pd7fed7d447)" d="M 45.264781 47.946704 
L 47.52111 46.344396 
L 46.889759 46.94646 
L 45.698692 48.384933 
L 45.547408 48.814263 
L 45.997336 48.970404 
L 46.62942 49.14099 
L 46.638581 49.085769 
L 46.61859 48.136285 
L 46.490591 47.882427 
L 45.338473 48.043552 
L 45.338473 48.043552 
" style="fill:none;stroke:#000000;stroke-linecap:square;stroke-opacity:0.7;stroke-width:1.2;"/>
   </g>
   <g id="line2d_6">
    <path clip-path="url(#pd7fed7d447)" d="M 202.243549 236.384023 
L 202.302743 236.580303 
L 202.881194 237.467936 
L 203.205458 237.751686 
L 203.223892 237.730011 
L 203.294882 237.417491 
L 203.282824 236.468088 
L 203.108429 236.133803 
L 202.407144 235.994435 
L 202.331199 236.276142 
L 202.286742 236.431602 
L 202.286742 236.431602 
" style="fill:none;stroke:#000000;stroke-linecap:square;stroke-opacity:0.7;stroke-width:1.2;"/>
   </g>
   <g id="line2d_7">
    <path clip-path="url(#pd7fed7d447)" d="M 202.216979 189.261674 
L 202.645374 189.100167 
L 204.365195 188.621432 
L 204.614532 188.801313 
L 205.793528 189.307733 
L 206.215965 189.401775 
L 206.086506 189.297727 
L 204.289393 188.287865 
L 202.506949 187.462008 
L 202.117705 187.537212 
L 200.984769 188.171205 
L 199.423035 189.212052 
L 199.43849 189.224641 
L 199.773868 189.29361 
L 201.677201 189.420419 
L 202.269423 189.357393 
L 202.269423 189.357393 
" style="fill:none;stroke:#000000;stroke-linecap:square;stroke-opacity:0.7;stroke-width:1.2;"/>
   </g>
   <g id="line2d_8">
    <path clip-path="url(#pd7fed7d447)" d="M 202.237479 142.178124 
L 202.203485 142.492269 
L 202.344267 143.569356 
L 202.638743 144.472542 
L 202.73024 144.388013 
L 203.041009 143.692475 
L 203.549653 142.020517 
L 203.487883 141.750119 
L 202.827486 141.147501 
L 202.63664 141.093171 
L 202.621386 141.117181 
L 201.918896 142.12619 
L 201.870532 142.187285 
L 201.958571 142.217537 
L 202.291023 142.252243 
L 202.28767 142.242064 
" style="fill:none;stroke:#000000;stroke-linecap:square;stroke-opacity:0.7;stroke-width:1.2;"/>
   </g>
   <g id="line2d_9">
    <path clip-path="url(#pd7fed7d447)" d="M 202.206778 95.094874 
L 202.043505 95.640924 
L 201.789557 97.420749 
L 201.691548 99.506515 
L 201.750271 99.629814 
L 201.797633 99.597369 
L 202.060966 99.16003 
L 203.202651 96.727008 
L 203.69783 95.31919 
L 203.490024 94.661981 
L 203.095249 93.947613 
L 202.332988 94.012174 
L 201.792858 94.108723 
L 201.805087 94.160396 
L 202.240368 95.066403 
L 202.27785 95.163581 
L 202.27785 95.163581 
" style="fill:none;stroke:#000000;stroke-linecap:square;stroke-opacity:0.7;stroke-width:1.2;"/>
   </g>
   <g id="line2d_10">
    <path clip-path="url(#pd7fed7d447)" d="M 202.263764 48.028539 
L 202.147815 49.240196 
L 202.033318 52.840066 
L 202.094376 53.255213 
L 202.147321 53.171919 
L 202.266811 52.55547 
L 202.366451 50.662189 
L 202.248197 47.894095 
L 202.053122 47.138623 
L 201.930602 47.292705 
L 201.708074 47.95933 
L 201.93632 48.087718 
L 203.420434 48.548902 
L 203.430747 48.545228 
L 203.254144 48.46233 
L 202.320145 48.075511 
L 202.320145 48.075511 
" style="fill:none;stroke:#000000;stroke-linecap:square;stroke-opacity:0.7;stroke-width:1.2;"/>
   </g>
   <g id="line2d_11">
    <path clip-path="url(#pd7fed7d447)" d="M 359.18622 236.359354 
L 359.266767 236.448554 
L 360.110003 236.949885 
L 360.385475 236.889747 
L 361.091184 236.943935 
L 361.165168 236.922843 
L 361.152384 236.840073 
L 360.766965 235.972057 
L 360.322381 235.328199 
L 359.818296 235.321179 
L 358.160379 235.514076 
L 358.244691 235.629074 
L 359.248318 236.425951 
L 359.248318 236.425951 
" style="fill:none;stroke:#000000;stroke-linecap:square;stroke-opacity:0.7;stroke-width:1.2;"/>
   </g>
   <g id="line2d_12">
    <path clip-path="url(#pd7fed7d447)" d="M 359.183952 189.259286 
L 360.477998 189.146234 
L 360.475087 189.157258 
L 360.462371 189.386582 
L 360.648733 189.784081 
L 360.68772 189.665864 
L 360.6203 189.01462 
L 360.449153 188.876547 
L 359.374274 188.541086 
L 359.025439 188.511283 
L 359.026165 188.569415 
L 359.236687 189.334101 
L 359.236687 189.334101 
" style="fill:none;stroke:#000000;stroke-linecap:square;stroke-opacity:0.7;stroke-width:1.2;"/>
   </g>
   <g id="line2d_13">
    <path clip-path="url(#pd7fed7d447)" d="M 359.238536 142.179786 
L 361.318816 141.03733 
L 360.980219 141.161901 
L 359.812354 141.715683 
L 359.0094 142.950946 
L 359.923438 143.752022 
L 359.813858 143.441634 
L 359.306098 142.252131 
L 359.306098 142.252131 
" style="fill:none;stroke:#000000;stroke-linecap:square;stroke-opacity:0.7;stroke-width:1.2;"/>
   </g>
   <g id="line2d_14">
    <path clip-path="url(#pd7fed7d447)" d="M 359.179768 95.064105 
L 359.051275 95.593376 
L 358.919047 97.206761 
L 358.972524 98.770659 
L 359.018291 98.78321 
L 359.058176 98.73775 
L 359.271984 98.116585 
L 359.492251 96.760613 
L 359.678 95.556118 
L 360.618975 95.075766 
L 360.312524 94.207308 
L 359.945906 93.637974 
L 359.82995 93.790694 
L 359.245564 95.141203 
L 359.245564 95.141203 
" style="fill:none;stroke:#000000;stroke-linecap:square;stroke-opacity:0.7;stroke-width:1.2;"/>
   </g>
   <g id="line2d_15">
    <path clip-path="url(#pd7fed7d447)" d="M 359.203441 48.008727 
L 359.200133 48.283511 
L 359.445017 49.234156 
L 359.749686 49.819859 
L 359.758181 49.815271 
L 359.852448 49.602503 
L 359.912099 48.960218 
L 359.987056 48.494977 
L 361.135582 48.176633 
L 361.132925 48.166335 
L 360.891342 47.774591 
L 360.002399 46.751856 
L 359.827592 46.756399 
L 359.58077 47.27353 
L 359.252547 48.05805 
L 359.252547 48.05805 
" style="fill:none;stroke:#000000;stroke-linecap:square;stroke-opacity:0.7;stroke-width:1.2;"/>
   </g>
   <g id="line2d_16">
    <path clip-path="url(#pd7fed7d447)" d="M 516.174164 236.360312 
L 516.055071 237.180683 
L 515.935096 239.720717 
L 516.011938 241.651757 
L 516.078093 241.610339 
L 516.340917 240.963757 
L 517.020004 238.537868 
L 517.559924 235.953024 
L 517.553361 235.30276 
L 517.35286 235.126561 
L 516.753101 235.025102 
L 514.800678 234.969552 
L 514.397348 235.079454 
L 514.453527 235.377769 
L 514.946632 237.309804 
L 515.040487 238.074206 
L 515.144431 237.988509 
L 515.881178 237.092299 
L 516.236704 236.436871 
L 516.236704 236.436871 
" style="fill:none;stroke:#000000;stroke-linecap:square;stroke-opacity:0.7;stroke-width:1.2;"/>
   </g>
   <g id="line2d_17">
    <path clip-path="url(#pd7fed7d447)" d="M 516.196647 189.281553 
L 516.014595 190.965928 
L 515.789725 195.150543 
L 515.844526 195.752135 
L 515.896184 195.690419 
L 516.035215 195.137737 
L 516.226555 193.346005 
L 516.308779 190.27301 
L 516.170953 188.561908 
L 516.003833 188.407534 
L 515.600167 188.58258 
L 515.196388 188.900033 
L 515.211619 188.921955 
L 515.558987 189.150612 
L 517.003478 189.982434 
L 516.595299 189.63678 
L 516.244435 189.334034 
L 516.244435 189.334034 
" style="fill:none;stroke:#000000;stroke-linecap:square;stroke-opacity:0.7;stroke-width:1.2;"/>
   </g>
   <g id="line2d_18">
    <path clip-path="url(#pd7fed7d447)" d="M 516.124235 142.163328 
L 516.875404 141.829746 
L 517.698357 141.503656 
L 517.649678 141.608408 
L 517.4442 142.229819 
L 517.273846 143.491989 
L 517.368038 143.845644 
L 517.391307 143.83941 
L 517.661518 143.604286 
L 518.728681 142.368903 
L 518.620463 142.192786 
L 517.854789 141.64018 
L 516.109723 140.619533 
L 516.040177 140.707797 
L 516.114745 141.529485 
L 516.190607 142.251517 
L 516.190607 142.251517 
" style="fill:none;stroke:#000000;stroke-linecap:square;stroke-opacity:0.7;stroke-width:1.2;"/>
   </g>
   <g id="line2d_19">
    <path clip-path="url(#pd7fed7d447)" d="M 516.161972 95.082622 
L 517.657185 94.553165 
L 517.485125 94.730905 
L 516.808164 95.667719 
L 516.492418 96.429134 
L 516.639098 96.483673 
L 518.687254 96.456587 
L 518.597127 96.158152 
L 517.792421 94.553022 
L 517.147292 93.625976 
L 517.024899 93.727473 
L 516.393877 94.851824 
L 516.216855 95.135941 
L 516.216855 95.135941 
" style="fill:none;stroke:#000000;stroke-linecap:square;stroke-opacity:0.7;stroke-width:1.2;"/>
   </g>
   <g id="line2d_20">
    <path clip-path="url(#pd7fed7d447)" d="M 516.196976 48.017215 
L 515.969494 55.599335 
L 516.027379 55.88917 
L 516.089305 55.772697 
L 516.178318 55.083911 
L 516.182464 53.431771 
L 516.01455 50.952488 
L 515.779606 48.095846 
L 515.804731 48.095248 
L 516.408981 48.230491 
L 517.369108 48.42032 
L 517.593582 47.993077 
L 517.86767 47.017367 
L 517.805287 46.760029 
L 517.783447 46.762754 
L 517.523176 46.929649 
L 516.237976 48.062675 
L 516.237976 48.062675 
" style="fill:none;stroke:#000000;stroke-linecap:square;stroke-opacity:0.7;stroke-width:1.2;"/>
   </g>
   <g id="line2d_21">
    <path clip-path="url(#pd7fed7d447)" d="M 673.150582 236.347334 
L 673.132904 236.76326 
L 673.332424 238.148355 
L 673.419431 238.322563 
L 673.465939 238.230773 
L 673.451591 237.785187 
L 673.176373 236.797898 
L 672.686247 235.865216 
L 672.587617 235.81748 
L 672.568801 235.867484 
L 672.556317 236.723136 
L 672.658405 237.640587 
L 673.021587 237.624017 
L 674.795626 237.271469 
L 674.699676 237.194027 
L 673.219229 236.424888 
L 673.219229 236.424888 
" style="fill:none;stroke:#000000;stroke-linecap:square;stroke-opacity:0.7;stroke-width:1.2;"/>
   </g>
   <g id="line2d_22">
    <path clip-path="url(#pd7fed7d447)" d="M 673.141211 189.277055 
L 674.709855 188.707002 
L 674.63019 188.701261 
L 674.012147 188.551325 
L 673.832587 188.564138 
L 672.355853 189.957279 
L 672.658921 190.20449 
L 673.602628 191.073128 
L 673.680167 191.17523 
L 673.643074 190.951625 
L 673.233629 189.360514 
L 673.233629 189.360514 
" style="fill:none;stroke:#000000;stroke-linecap:square;stroke-opacity:0.7;stroke-width:1.2;"/>
   </g>
   <g id="line2d_23">
    <path clip-path="url(#pd7fed7d447)" d="M 673.120113 142.156038 
L 672.981239 142.6144 
L 672.811372 144.144147 
L 672.857289 145.288242 
L 672.93479 145.236233 
L 673.111648 144.734528 
L 673.211184 144.017675 
L 673.13571 142.747317 
L 673.119477 142.611863 
L 673.19233 142.627446 
L 674.379424 142.938537 
L 674.625812 142.245207 
L 674.655458 141.639356 
L 674.49446 141.640262 
L 673.416362 142.135949 
L 673.187158 142.229999 
L 673.187158 142.229999 
" style="fill:none;stroke:#000000;stroke-linecap:square;stroke-opacity:0.7;stroke-width:1.2;"/>
   </g>
   <g id="line2d_24">
    <path clip-path="url(#pd7fed7d447)" d="M 673.132215 95.067915 
L 675.027824 93.883434 
L 674.317146 94.38311 
L 673.604252 95.146113 
L 673.711496 95.983862 
L 673.763648 95.972927 
L 673.981423 95.984782 
L 673.855475 95.868616 
L 673.20563 95.147984 
L 673.20563 95.147984 
" style="fill:none;stroke:#000000;stroke-linecap:square;stroke-opacity:0.7;stroke-width:1.2;"/>
   </g>
   <g id="line2d_25">
    <path clip-path="url(#pd7fed7d447)" d="M 673.087645 48.014573 
L 673.13089 48.14359 
L 673.675474 48.764267 
L 674.050647 49.002849 
L 674.605446 48.920685 
L 675.490909 48.892259 
L 675.489352 48.844808 
L 675.292811 47.68986 
L 675.041939 46.975469 
L 674.699257 46.842643 
L 672.737463 46.489601 
L 671.751492 46.426717 
L 671.753161 46.444972 
L 671.95313 46.723131 
L 673.140553 48.073064 
L 673.140553 48.073064 
" style="fill:none;stroke:#000000;stroke-linecap:square;stroke-opacity:0.7;stroke-width:1.2;"/>
   </g>
  </g>
 </g>
 <defs>
  <clipPath id="pd7fed7d447">
   <rect height="262.08" width="694.08" x="12.96" y="12.96"/>
  </clipPath>
 </defs>
</svg>
