<?xml version="1.0" encoding="utf-8" standalone="no"?>
<!DOCTYPE svg PUBLIC "-//W3C//DTD SVG 1.1//EN"
  "http://www.w3.org/Graphics/SVG/1.1/DTD/svg11.dtd">
<!-- Created with matplotlib (https://matplotlib.org/) -->
<svg height="288pt" version="1.1" viewBox="0 0 720 288" width="720pt" xmlns="http://www.w3.org/2000/svg" xmlns:xlink="http://www.w3.org/1999/xlink">
 <defs>
  <style type="text/css">
*{stroke-linecap:butt;stroke-linejoin:round;}
  </style>
 </defs>
 <g id="figure_1">
  <g id="patch_1">
   <path d="M 0 288 
L 720 288 
L 720 0 
L 0 0 
z
" style="fill:#ffffff;"/>
  </g>
  <g id="axes_1">
   <g id="line2d_1">
    <path clip-path="url(#pde2745d1bd)" d="M 144.937526 226.192373 
L 106.260847 224.372689 
L 76.278497 223.069189 
L 51.609153 222.217623 
L 51.150205 222.375266 
L 46.653574 224.546915 
L 44.51088 225.644408 
L 44.694181 225.624826 
L 48.287793 224.803654 
L 81.493329 217.196695 
L 90.452574 215.296238 
L 93.417298 214.88993 
L 95.153969 215.006226 
L 98.498656 215.708847 
L 144.929874 226.355668 
L 144.929874 226.355668 
" style="fill:none;stroke:#000000;stroke-linecap:square;stroke-opacity:0.7;stroke-width:1.2;"/>
   </g>
   <g id="line2d_2">
    <path clip-path="url(#pde2745d1bd)" d="M 144.987502 186.415538 
L 122.25781 182.224555 
L 88.468255 176.063243 
L 56.844995 171.620914 
L 56.099291 171.598134 
L 55.599451 171.794883 
L 54.405531 172.679119 
L 47.366651 178.356217 
L 47.348826 178.504711 
L 47.526832 178.568148 
L 49.412671 178.752047 
L 109.892402 183.521624 
L 145.016742 186.590864 
L 145.016742 186.590864 
" style="fill:none;stroke:#000000;stroke-linecap:square;stroke-opacity:0.7;stroke-width:1.2;"/>
   </g>
   <g id="line2d_3">
    <path clip-path="url(#pde2745d1bd)" d="M 145.087631 146.538374 
L 96.704124 127.6626 
L 95.646374 127.377648 
L 95.10282 127.36086 
L 93.84412 127.647946 
L 90.533608 128.878354 
L 79.778879 133.253025 
L 54.370222 143.798098 
L 45.485636 148.19848 
L 44.523575 148.755894 
L 44.556363 148.76974 
L 45.227784 148.74221 
L 56.234379 147.69598 
L 86.814503 144.848683 
L 90.208449 144.717473 
L 98.064657 144.982632 
L 145.084247 146.717222 
L 145.084247 146.717222 
" style="fill:none;stroke:#000000;stroke-linecap:square;stroke-opacity:0.7;stroke-width:1.2;"/>
   </g>
   <g id="line2d_4">
    <path clip-path="url(#pde2745d1bd)" d="M 145.096421 106.796186 
L 130.745521 101.524113 
L 93.994411 88.073279 
L 93.251668 87.8709 
L 92.194313 87.851167 
L 91.056942 88.214785 
L 87.723046 89.760918 
L 77.317933 95.006525 
L 51.080499 108.501289 
L 50.390271 108.972833 
L 50.00475 109.584769 
L 48.444041 113.458451 
L 46.816456 117.912217 
L 46.949676 118.038229 
L 47.623067 117.983474 
L 52.39231 117.122624 
L 92.190279 109.856629 
L 95.096291 109.581235 
L 113.2836 108.626502 
L 145.090963 106.973423 
L 145.090963 106.973423 
" style="fill:none;stroke:#000000;stroke-linecap:square;stroke-opacity:0.7;stroke-width:1.2;"/>
   </g>
   <g id="line2d_5">
    <path clip-path="url(#pde2745d1bd)" d="M 144.935161 67.022486 
L 103.37983 62.64041 
L 87.04901 60.879592 
L 81.66286 59.823691 
L 51.393449 53.725334 
L 51.135977 53.859857 
L 49.140019 56.13928 
L 46.50883 59.391351 
L 46.475966 59.561593 
L 46.984757 59.747801 
L 53.520714 60.795286 
L 84.469321 65.507972 
L 87.226398 65.753267 
L 94.518836 65.961563 
L 144.957426 67.247555 
L 144.957426 67.247555 
" style="fill:none;stroke:#000000;stroke-linecap:square;stroke-opacity:0.7;stroke-width:1.2;"/>
   </g>
   <g id="line2d_6">
    <path clip-path="url(#pde2745d1bd)" d="M 277.684454 226.235942 
L 232.727775 218.179287 
L 219.01267 215.832083 
L 218.211575 215.887857 
L 216.736157 216.264766 
L 211.534775 218.031196 
L 190.690727 225.489473 
L 183.284448 228.184082 
L 181.933912 228.98768 
L 174.203191 234.977444 
L 174.161997 235.114216 
L 174.204469 235.131305 
L 174.655229 235.135066 
L 179.251052 234.721152 
L 230.484291 229.94126 
L 277.675259 226.443035 
L 277.675259 226.443035 
" style="fill:none;stroke:#000000;stroke-linecap:square;stroke-opacity:0.7;stroke-width:1.2;"/>
   </g>
   <g id="line2d_7">
    <path clip-path="url(#pde2745d1bd)" d="M 277.536727 186.610311 
L 223.002437 184.587484 
L 220.853324 184.157329 
L 205.435451 180.391362 
L 193.859049 177.594238 
L 193.217631 177.584953 
L 192.388273 177.768806 
L 186.948092 179.320319 
L 177.037364 182.295238 
L 177.083107 182.433259 
L 177.613278 182.647505 
L 181.289935 183.79342 
L 208.604211 191.998175 
L 217.883073 194.64936 
L 220.699188 195.316551 
L 222.547355 195.496605 
L 224.899591 195.250497 
L 236.182216 193.456332 
L 277.528063 186.809485 
L 277.528063 186.809485 
" style="fill:none;stroke:#000000;stroke-linecap:square;stroke-opacity:0.7;stroke-width:1.2;"/>
   </g>
   <g id="line2d_8">
    <path clip-path="url(#pde2745d1bd)" d="M 277.597838 146.724785 
L 218.593363 142.283092 
L 212.328357 142.649991 
L 181.144979 144.79468 
L 180.647248 144.979515 
L 180.18902 145.810768 
L 178.643778 149.472071 
L 178.664431 149.746713 
L 179.154463 149.981205 
L 187.501623 152.432742 
L 213.578849 159.862445 
L 220.554019 161.687489 
L 222.676743 162.102884 
L 223.740602 162.18642 
L 225.20497 162.019573 
L 228.477956 161.149249 
L 277.536815 146.987753 
L 277.536815 146.987753 
" style="fill:none;stroke:#000000;stroke-linecap:square;stroke-opacity:0.7;stroke-width:1.2;"/>
   </g>
   <g id="line2d_9">
    <path clip-path="url(#pde2745d1bd)" d="M 277.498285 107.085611 
L 245.822156 107.223045 
L 223.844082 107.286203 
L 222.86258 107.20127 
L 216.77499 106.046961 
L 188.308689 100.38405 
L 188.119636 100.410447 
L 185.962269 101.093431 
L 177.204425 104.225932 
L 177.145708 104.364691 
L 177.412357 104.548115 
L 179.300283 105.37332 
L 199.682463 113.773619 
L 215.67534 120.18356 
L 220.361659 121.856925 
L 222.297643 122.286108 
L 222.95838 122.306856 
L 224.966713 121.961024 
L 232.586087 119.868691 
L 277.50581 107.29605 
L 277.50581 107.29605 
" style="fill:none;stroke:#000000;stroke-linecap:square;stroke-opacity:0.7;stroke-width:1.2;"/>
   </g>
   <g id="line2d_10">
    <path clip-path="url(#pde2745d1bd)" d="M 277.577185 67.027971 
L 253.035479 63.921375 
L 224.809949 60.404711 
L 223.437999 60.487826 
L 220.066964 61.038397 
L 198.129955 65.026067 
L 193.474861 65.951629 
L 181.705367 69.577055 
L 177.375079 70.918401 
L 187.364039 67.942772 
L 219.606727 58.460747 
L 226.967758 56.428595 
L 229.044307 55.945455 
L 231.075983 55.71983 
L 233.271528 56.064873 
L 243.329134 58.557048 
L 277.596662 67.143627 
L 277.596662 67.143627 
" style="fill:none;stroke:#000000;stroke-linecap:square;stroke-opacity:0.7;stroke-width:1.2;"/>
   </g>
   <g id="line2d_11">
    <path clip-path="url(#pde2745d1bd)" d="M 410.184227 226.24606 
L 390.076542 225.033303 
L 347.992663 222.56707 
L 345.570507 222.806821 
L 332.262841 224.623826 
L 314.391573 227.198305 
L 314.055464 227.369573 
L 311.818014 229.18762 
L 307.727322 232.765539 
L 307.81058 232.810188 
L 308.681257 232.811729 
L 318.958905 232.288513 
L 355.655901 230.310972 
L 410.198949 226.483656 
L 410.198949 226.483656 
" style="fill:none;stroke:#000000;stroke-linecap:square;stroke-opacity:0.7;stroke-width:1.2;"/>
   </g>
   <g id="line2d_12">
    <path clip-path="url(#pde2745d1bd)" d="M 410.276382 186.350316 
L 351.922656 178.14393 
L 350.36996 178.12419 
L 349.328996 178.329283 
L 344.622406 179.645467 
L 325.558937 185.346048 
L 319.128527 187.334265 
L 318.746573 187.645066 
L 318.306217 188.823545 
L 317.130544 192.729597 
L 317.312663 192.794933 
L 318.591178 192.452784 
L 358.211193 180.771608 
L 360.493707 180.353574 
L 361.778581 180.35092 
L 366.970851 180.958668 
L 410.293032 186.539778 
L 410.293032 186.539778 
" style="fill:none;stroke:#000000;stroke-linecap:square;stroke-opacity:0.7;stroke-width:1.2;"/>
   </g>
   <g id="line2d_13">
    <path clip-path="url(#pde2745d1bd)" d="M 410.230087 146.632935 
L 388.418192 144.932568 
L 348.675818 141.75028 
L 318.634264 138.556017 
L 318.301674 138.749997 
L 317.696097 139.506703 
L 315.361495 142.818746 
L 315.404174 142.880256 
L 315.987127 142.921675 
L 323.082235 142.717516 
L 355.278837 141.81076 
L 357.852796 141.861461 
L 363.95839 142.41005 
L 410.244637 146.82437 
L 410.244637 146.82437 
" style="fill:none;stroke:#000000;stroke-linecap:square;stroke-opacity:0.7;stroke-width:1.2;"/>
   </g>
   <g id="line2d_14">
    <path clip-path="url(#pde2745d1bd)" d="M 410.245845 106.83477 
L 397.790471 102.263271 
L 363.527748 89.734295 
L 362.22138 89.463684 
L 359.018093 89.226804 
L 333.561534 88.005676 
L 320.128738 87.472023 
L 319.665727 87.549433 
L 318.821771 88.15976 
L 314.977446 92.231936 
L 309.911637 97.80347 
L 309.863174 98.0606 
L 310.269096 98.243027 
L 312.313944 98.655343 
L 333.84364 102.531535 
L 349.168277 105.16421 
L 352.035227 105.429515 
L 363.167887 105.750331 
L 410.244637 107.019615 
L 410.244637 107.019615 
" style="fill:none;stroke:#000000;stroke-linecap:square;stroke-opacity:0.7;stroke-width:1.2;"/>
   </g>
   <g id="line2d_15">
    <path clip-path="url(#pde2745d1bd)" d="M 410.323696 67.066849 
L 404.109197 65.470425 
L 356.72473 53.406724 
L 355.742833 53.445483 
L 353.91013 53.943396 
L 347.704525 56.091499 
L 323.740134 64.739249 
L 320.727537 65.869524 
L 319.937821 66.386135 
L 317.73641 68.914484 
L 313.513504 74.042129 
L 313.58635 74.165869 
L 313.873424 74.205592 
L 316.808527 74.150548 
L 354.813014 72.892041 
L 359.287709 72.629741 
L 376.19267 70.857272 
L 410.31908 67.255247 
L 410.31908 67.255247 
" style="fill:none;stroke:#000000;stroke-linecap:square;stroke-opacity:0.7;stroke-width:1.2;"/>
   </g>
   <g id="line2d_16">
    <path clip-path="url(#pde2745d1bd)" d="M 542.806282 226.255528 
L 528.076993 224.152229 
L 486.93653 218.356325 
L 485.393906 218.452671 
L 478.802956 219.490975 
L 449.835685 224.415183 
L 447.875465 224.878702 
L 447.805567 225.072634 
L 447.908409 225.783979 
L 448.822522 229.623273 
L 449.032858 229.871618 
L 449.539809 229.974486 
L 456.113995 230.591007 
L 484.458399 233.043064 
L 488.286313 233.189712 
L 490.975729 232.940105 
L 522.776105 228.978206 
L 542.852027 226.471721 
L 542.852027 226.471721 
" style="fill:none;stroke:#000000;stroke-linecap:square;stroke-opacity:0.7;stroke-width:1.2;"/>
   </g>
   <g id="line2d_17">
    <path clip-path="url(#pde2745d1bd)" d="M 542.863012 186.430022 
L 485.085495 179.063195 
L 483.387622 179.041733 
L 478.849688 179.485917 
L 455.441619 182.12711 
L 454.556871 182.343785 
L 450.552461 184.119061 
L 443.56443 187.377738 
L 443.601749 187.506765 
L 444.342581 187.7746 
L 450.640475 189.528829 
L 476.037949 196.391755 
L 483.271817 198.184016 
L 484.916052 198.494069 
L 486.521289 198.607743 
L 488.638402 198.320883 
L 500.624504 195.767143 
L 542.881976 186.660479 
L 542.881976 186.660479 
" style="fill:none;stroke:#000000;stroke-linecap:square;stroke-opacity:0.7;stroke-width:1.2;"/>
   </g>
   <g id="line2d_18">
    <path clip-path="url(#pde2745d1bd)" d="M 542.940723 146.584184 
L 515.815635 138.022359 
L 490.958067 130.279881 
L 490.403438 130.234252 
L 489.327925 130.445199 
L 487.062434 131.331465 
L 479.58637 134.657875 
L 455.628307 145.616949 
L 451.814402 147.673194 
L 440.781172 153.79917 
L 440.84956 153.869645 
L 441.913619 153.818986 
L 454.659838 152.64981 
L 490.266948 149.410604 
L 505.710147 148.630035 
L 542.925249 146.786945 
L 542.925249 146.786945 
" style="fill:none;stroke:#000000;stroke-linecap:square;stroke-opacity:0.7;stroke-width:1.2;"/>
   </g>
   <g id="line2d_19">
    <path clip-path="url(#pde2745d1bd)" d="M 542.787596 106.942964 
L 532.260015 105.268044 
L 489.585965 98.549883 
L 458.958964 95.04078 
L 457.915218 94.997255 
L 456.115605 95.708514 
L 444.502369 101.652253 
L 443.940914 102.115705 
L 444.117854 102.256737 
L 444.652233 102.470961 
L 454.949437 105.813455 
L 478.262827 113.170388 
L 483.282052 114.631662 
L 485.464045 115.126688 
L 486.833821 115.240383 
L 489.66337 114.956149 
L 517.479163 110.865124 
L 542.819113 107.125166 
L 542.819113 107.125166 
" style="fill:none;stroke:#000000;stroke-linecap:square;stroke-opacity:0.7;stroke-width:1.2;"/>
   </g>
   <g id="line2d_20">
    <path clip-path="url(#pde2745d1bd)" d="M 542.883222 67.079387 
L 537.720373 65.693273 
L 489.926472 52.931379 
L 488.880857 52.867347 
L 487.989812 53.049593 
L 485.052074 54.081635 
L 474.220667 58.358452 
L 451.822277 67.408042 
L 450.946569 68.021374 
L 448.972155 70.336873 
L 444.67352 75.638687 
L 444.713929 75.817265 
L 445.221927 75.920657 
L 448.961185 76.158209 
L 480.509236 77.819093 
L 487.719633 78.089245 
L 488.992495 78.080478 
L 491.610546 77.772218 
L 502.151352 75.631144 
L 542.909408 67.263318 
L 542.909408 67.263318 
" style="fill:none;stroke:#000000;stroke-linecap:square;stroke-opacity:0.7;stroke-width:1.2;"/>
   </g>
   <g id="line2d_21">
    <path clip-path="url(#pde2745d1bd)" d="M 675.461694 226.217269 
L 611.890502 224.642993 
L 585.051812 224.952508 
L 584.242809 225.199329 
L 574.468321 228.825723 
L 574.431707 228.866858 
L 574.584506 228.875772 
L 577.375887 228.615601 
L 615.390334 224.92039 
L 618.179197 224.802429 
L 624.204894 224.947867 
L 675.446479 226.431216 
L 675.446479 226.431216 
" style="fill:none;stroke:#000000;stroke-linecap:square;stroke-opacity:0.7;stroke-width:1.2;"/>
   </g>
   <g id="line2d_22">
    <path clip-path="url(#pde2745d1bd)" d="M 675.437904 186.427692 
L 661.745949 185.334788 
L 610.942812 181.37084 
L 586.351437 179.798788 
L 585.862498 179.933613 
L 584.57352 180.624986 
L 579.17258 183.782507 
L 579.181278 183.795301 
L 579.555268 183.838934 
L 584.200514 183.781177 
L 622.60623 183.231038 
L 626.450408 183.410134 
L 675.46741 186.624827 
L 675.46741 186.624827 
" style="fill:none;stroke:#000000;stroke-linecap:square;stroke-opacity:0.7;stroke-width:1.2;"/>
   </g>
   <g id="line2d_23">
    <path clip-path="url(#pde2745d1bd)" d="M 675.418939 146.700299 
L 641.837712 141.944434 
L 622.907366 139.336512 
L 615.098421 138.957965 
L 594.100932 138.104219 
L 593.369828 138.282752 
L 583.814242 141.703181 
L 579.241282 143.473312 
L 579.390663 143.556989 
L 580.387595 143.754756 
L 597.117019 146.447055 
L 616.508933 149.427952 
L 618.688913 149.654184 
L 620.753583 149.664327 
L 631.456284 149.137329 
L 675.435318 146.891812 
L 675.435318 146.891812 
" style="fill:none;stroke:#000000;stroke-linecap:square;stroke-opacity:0.7;stroke-width:1.2;"/>
   </g>
   <g id="line2d_24">
    <path clip-path="url(#pde2745d1bd)" d="M 675.490909 106.850188 
L 641.841405 103.192945 
L 616.581441 100.511681 
L 615.139145 100.617329 
L 609.853918 101.511148 
L 584.713237 106.125987 
L 583.601319 106.467446 
L 583.504029 106.755946 
L 583.401895 108.401787 
L 583.386567 111.006632 
L 583.527409 111.095436 
L 584.535733 111.126579 
L 603.357111 110.765351 
L 622.026334 110.293047 
L 675.487248 107.063212 
L 675.487248 107.063212 
" style="fill:none;stroke:#000000;stroke-linecap:square;stroke-opacity:0.7;stroke-width:1.2;"/>
   </g>
   <g id="line2d_25">
    <path clip-path="url(#pde2745d1bd)" d="M 675.433781 67.058817 
L 645.094488 63.636754 
L 617.473906 60.421859 
L 595.662043 56.429094 
L 586.085809 54.717775 
L 585.292842 54.892686 
L 582.774271 56.560054 
L 578.829866 59.345806 
L 578.873261 59.418527 
L 579.281422 59.483102 
L 588.87663 59.980535 
L 623.668628 61.812184 
L 650.337932 64.601319 
L 675.449211 67.237016 
L 675.449211 67.237016 
" style="fill:none;stroke:#000000;stroke-linecap:square;stroke-opacity:0.7;stroke-width:1.2;"/>
   </g>
  </g>
 </g>
 <defs>
  <clipPath id="pde2745d1bd">
   <rect height="262.08" width="694.08" x="12.96" y="12.96"/>
  </clipPath>
 </defs>
</svg>
