<?xml version="1.0" encoding="utf-8" standalone="no"?>
<!DOCTYPE svg PUBLIC "-//W3C//DTD SVG 1.1//EN"
  "http://www.w3.org/Graphics/SVG/1.1/DTD/svg11.dtd">
<!-- Created with matplotlib (https://matplotlib.org/) -->
<svg height="288pt" version="1.1" viewBox="0 0 720 288" width="720pt" xmlns="http://www.w3.org/2000/svg" xmlns:xlink="http://www.w3.org/1999/xlink">
 <defs>
  <style type="text/css">
*{stroke-linecap:butt;stroke-linejoin:round;}
  </style>
 </defs>
 <g id="figure_1">
  <g id="patch_1">
   <path d="M 0 288 
L 720 288 
L 720 0 
L 0 0 
z
" style="fill:#ffffff;"/>
  </g>
  <g id="axes_1">
   <g id="line2d_1">
    <path clip-path="url(#p57afbe4e0a)" d="M 149.892894 221.126249 
L 94.892362 214.777653 
L 93.032956 215.099195 
L 86.919889 216.617183 
L 67.030261 221.819905 
L 66.373619 222.027242 
L 65.272097 222.749979 
L 55.798589 230.796008 
L 55.68523 231.002971 
L 55.730613 231.022838 
L 56.116671 231.006197 
L 59.136139 230.536171 
L 99.960896 223.964287 
L 104.42761 223.640495 
L 149.873095 221.150876 
L 149.873095 221.150876 
" style="fill:none;stroke:#000000;stroke-linecap:square;stroke-opacity:0.7;stroke-width:1.2;"/>
   </g>
   <g id="line2d_2">
    <path clip-path="url(#p57afbe4e0a)" d="M 149.890394 181.713912 
L 138.626041 179.979407 
L 96.634828 173.566676 
L 95.064164 173.596343 
L 91.326131 174.154683 
L 73.193628 177.282653 
L 67.042623 178.418047 
L 66.125185 178.819907 
L 57.390994 183.197504 
L 57.374807 183.281276 
L 57.406364 183.303348 
L 58.092205 183.456256 
L 65.06069 184.502139 
L 88.00141 187.785572 
L 93.765209 188.442804 
L 95.991636 188.441599 
L 99.7108 188.033073 
L 149.87755 181.738763 
L 149.87755 181.738763 
" style="fill:none;stroke:#000000;stroke-linecap:square;stroke-opacity:0.7;stroke-width:1.2;"/>
   </g>
   <g id="line2d_3">
    <path clip-path="url(#p57afbe4e0a)" d="M 149.891196 142.292815 
L 113.954817 139.460259 
L 93.74067 137.965572 
L 90.944977 138.230623 
L 77.13655 139.964445 
L 66.391417 141.372877 
L 64.905618 141.998534 
L 56.440141 146.780547 
L 56.551593 146.824592 
L 57.571706 146.793351 
L 76.494695 145.625871 
L 101.235435 144.172089 
L 149.869311 142.32749 
L 149.869311 142.32749 
" style="fill:none;stroke:#000000;stroke-linecap:square;stroke-opacity:0.7;stroke-width:1.2;"/>
   </g>
   <g id="line2d_4">
    <path clip-path="url(#p57afbe4e0a)" d="M 149.888201 102.796762 
L 117.872217 92.848824 
L 101.480233 87.834745 
L 100.873525 87.736218 
L 99.857597 87.684567 
L 95.961759 87.822825 
L 74.491346 89.089173 
L 59.079769 90.080931 
L 58.288487 90.307951 
L 54.74331 92.224892 
L 50.375546 94.735592 
L 50.462023 94.826699 
L 50.86255 94.912647 
L 57.636295 95.834116 
L 89.120922 99.909582 
L 92.081162 100.149052 
L 110.5446 101.012862 
L 149.870482 102.822822 
L 149.870482 102.822822 
" style="fill:none;stroke:#000000;stroke-linecap:square;stroke-opacity:0.7;stroke-width:1.2;"/>
   </g>
   <g id="line2d_5">
    <path clip-path="url(#p57afbe4e0a)" d="M 149.863659 63.457713 
L 143.454592 62.311382 
L 94.872206 53.673035 
L 90.722891 53.330856 
L 58.38645 51.181018 
L 57.565685 51.190076 
L 56.285238 51.549272 
L 45.708614 55.430207 
L 44.522535 55.994842 
L 44.530967 56.118162 
L 44.714589 56.306868 
L 46.274654 57.37886 
L 58.935515 65.531772 
L 69.950449 72.412557 
L 74.878839 75.266227 
L 77.233047 76.38427 
L 78.380735 76.740655 
L 79.536346 76.876673 
L 80.810511 76.8021 
L 83.196765 76.425278 
L 100.919567 73.00539 
L 149.864605 63.477433 
L 149.864605 63.477433 
" style="fill:none;stroke:#000000;stroke-linecap:square;stroke-opacity:0.7;stroke-width:1.2;"/>
   </g>
   <g id="line2d_6">
    <path clip-path="url(#p57afbe4e0a)" d="M 281.300087 221.092203 
L 225.484623 217.12114 
L 222.534063 217.296275 
L 205.339605 218.845237 
L 190.050003 220.304975 
L 189.424305 220.525543 
L 184.411249 223.207578 
L 181.926715 224.611512 
L 181.993101 224.630796 
L 183.451838 224.402116 
L 223.843864 217.436887 
L 227.044667 217.013331 
L 228.993483 216.929832 
L 232.855779 217.17256 
L 281.28302 221.108573 
L 281.28302 221.108573 
" style="fill:none;stroke:#000000;stroke-linecap:square;stroke-opacity:0.7;stroke-width:1.2;"/>
   </g>
   <g id="line2d_7">
    <path clip-path="url(#p57afbe4e0a)" d="M 281.286811 181.697706 
L 235.538534 178.060438 
L 225.20898 177.27958 
L 223.687143 177.350903 
L 219.680149 178.014122 
L 198.331835 182.014157 
L 193.671619 182.921296 
L 192.533725 183.399027 
L 189.169406 186.078131 
L 184.229332 190.194868 
L 184.407632 190.218053 
L 185.755969 189.985137 
L 228.471945 181.804028 
L 230.705133 181.604094 
L 236.498661 181.577419 
L 281.270113 181.725355 
L 281.270113 181.725355 
" style="fill:none;stroke:#000000;stroke-linecap:square;stroke-opacity:0.7;stroke-width:1.2;"/>
   </g>
   <g id="line2d_8">
    <path clip-path="url(#p57afbe4e0a)" d="M 281.305281 142.244343 
L 229.064371 131.712335 
L 227.574454 131.728363 
L 225.321207 132.193526 
L 216.712807 134.41197 
L 192.200097 140.981608 
L 191.334787 141.326399 
L 190.817325 141.822195 
L 186.694611 146.622403 
L 186.393336 147.100964 
L 186.424992 147.121803 
L 186.85341 147.067984 
L 191.059115 146.031951 
L 223.959691 137.885178 
L 230.545902 136.383687 
L 233.5638 135.925918 
L 234.970449 135.947868 
L 240.002528 136.573679 
L 281.28614 142.250372 
L 281.28614 142.250372 
" style="fill:none;stroke:#000000;stroke-linecap:square;stroke-opacity:0.7;stroke-width:1.2;"/>
   </g>
   <g id="line2d_9">
    <path clip-path="url(#p57afbe4e0a)" d="M 281.280157 102.85585 
L 218.755568 95.588601 
L 190.083299 92.291478 
L 189.741757 92.326543 
L 188.409251 92.827462 
L 177.50344 97.805705 
L 176.568997 98.354723 
L 176.688156 98.50103 
L 176.991073 98.638917 
L 180.862656 99.990226 
L 201.047668 106.724767 
L 209.12412 109.241037 
L 212.212864 109.986075 
L 213.922255 110.143813 
L 216.014507 110.039032 
L 224.58903 109.130441 
L 281.276366 102.879411 
L 281.276366 102.879411 
" style="fill:none;stroke:#000000;stroke-linecap:square;stroke-opacity:0.7;stroke-width:1.2;"/>
   </g>
   <g id="line2d_10">
    <path clip-path="url(#p57afbe4e0a)" d="M 281.304542 63.468046 
L 226.034591 57.203595 
L 224.44665 57.362922 
L 220.426865 58.17594 
L 201.595406 62.344691 
L 196.965403 63.433864 
L 196.033101 63.983723 
L 188.193755 69.893189 
L 187.526945 70.534945 
L 187.536361 70.546207 
L 187.786343 70.597793 
L 189.639877 70.578757 
L 217.328998 69.768595 
L 230.964677 69.249086 
L 236.794235 68.619429 
L 281.282757 63.485609 
L 281.282757 63.485609 
" style="fill:none;stroke:#000000;stroke-linecap:square;stroke-opacity:0.7;stroke-width:1.2;"/>
   </g>
   <g id="line2d_11">
    <path clip-path="url(#p57afbe4e0a)" d="M 412.690833 221.153715 
L 397.373507 219.174316 
L 357.979005 214.17343 
L 356.137465 214.315622 
L 348.475532 215.488928 
L 327.413459 218.945265 
L 326.800632 219.146237 
L 322.239967 221.441195 
L 316.214552 224.635163 
L 316.219335 224.747471 
L 316.493953 224.892124 
L 318.581874 225.538396 
L 338.285132 231.186126 
L 354.090544 235.533608 
L 358.378432 236.544622 
L 359.989533 236.793739 
L 361.06367 236.828699 
L 363.085304 236.476804 
L 368.084208 234.98496 
L 412.671843 221.168257 
L 412.671843 221.168257 
" style="fill:none;stroke:#000000;stroke-linecap:square;stroke-opacity:0.7;stroke-width:1.2;"/>
   </g>
   <g id="line2d_12">
    <path clip-path="url(#p57afbe4e0a)" d="M 412.664117 181.690919 
L 361.898639 181.768049 
L 358.495383 181.675506 
L 356.676547 181.327 
L 346.757601 178.877244 
L 326.631669 173.857664 
L 325.809051 173.921081 
L 323.8432 174.574188 
L 311.736279 178.993896 
L 311.741309 178.999643 
L 311.969662 179.035301 
L 314.058478 179.035762 
L 358.095455 178.690573 
L 372.749468 179.488446 
L 412.651969 181.706407 
L 412.651969 181.706407 
" style="fill:none;stroke:#000000;stroke-linecap:square;stroke-opacity:0.7;stroke-width:1.2;"/>
   </g>
   <g id="line2d_13">
    <path clip-path="url(#p57afbe4e0a)" d="M 412.699486 142.238948 
L 370.642458 134.344066 
L 360.690329 132.521655 
L 359.312614 132.456982 
L 355.694879 132.942488 
L 342.564529 135.196605 
L 324.165686 138.48644 
L 323.606293 138.783731 
L 322.738768 139.725756 
L 318.535849 144.735178 
L 318.551696 144.857346 
L 318.604271 144.867707 
L 319.404536 144.768221 
L 330.102706 142.817916 
L 355.4631 138.266284 
L 360.838141 137.443496 
L 363.387219 137.336228 
L 367.514081 137.691952 
L 412.681448 142.254135 
L 412.681448 142.254135 
" style="fill:none;stroke:#000000;stroke-linecap:square;stroke-opacity:0.7;stroke-width:1.2;"/>
   </g>
   <g id="line2d_14">
    <path clip-path="url(#p57afbe4e0a)" d="M 412.676266 102.891591 
L 355.481038 96.842435 
L 350.590427 97.216465 
L 324.18879 99.698221 
L 323.178275 99.877199 
L 319.35213 101.287296 
L 313.200979 103.705725 
L 313.251553 103.799604 
L 313.692799 103.975027 
L 318.346149 105.369871 
L 339.705041 111.535674 
L 347.321635 113.578628 
L 349.695416 114.103381 
L 351.755423 114.340896 
L 353.698557 114.189705 
L 358.930993 113.242702 
L 412.675063 102.910853 
L 412.675063 102.910853 
" style="fill:none;stroke:#000000;stroke-linecap:square;stroke-opacity:0.7;stroke-width:1.2;"/>
   </g>
   <g id="line2d_15">
    <path clip-path="url(#p57afbe4e0a)" d="M 412.691723 63.402158 
L 359.653541 53.746553 
L 357.986075 53.930287 
L 353.062295 54.898276 
L 331.362408 59.527362 
L 325.047041 60.971219 
L 324.082617 61.612687 
L 318.24359 66.135709 
L 318.272382 66.185546 
L 318.29658 66.190123 
L 319.124933 66.109254 
L 332.075539 64.218003 
L 356.894325 60.688675 
L 361.034927 60.302966 
L 364.526508 60.425312 
L 406.39727 63.027858 
L 412.67975 63.419351 
L 412.67975 63.419351 
" style="fill:none;stroke:#000000;stroke-linecap:square;stroke-opacity:0.7;stroke-width:1.2;"/>
   </g>
   <g id="line2d_16">
    <path clip-path="url(#p57afbe4e0a)" d="M 544.101792 221.063626 
L 535.98834 216.737411 
L 496.709194 195.871958 
L 495.53647 195.477333 
L 494.844764 195.478828 
L 493.827718 195.74736 
L 490.538497 197.163901 
L 482.795052 200.910704 
L 458.199645 213.136282 
L 449.558374 217.548085 
L 448.891995 218.187895 
L 444.116359 223.713686 
L 443.608891 224.46081 
L 443.7867 224.534481 
L 444.943132 224.491984 
L 460.059367 223.38182 
L 488.911356 221.349871 
L 494.016021 221.28964 
L 544.085477 221.098789 
L 544.085477 221.098789 
" style="fill:none;stroke:#000000;stroke-linecap:square;stroke-opacity:0.7;stroke-width:1.2;"/>
   </g>
   <g id="line2d_17">
    <path clip-path="url(#p57afbe4e0a)" d="M 544.100589 181.644121 
L 535.273167 177.153993 
L 499.855268 159.201207 
L 499.082265 158.899888 
L 498.32242 158.765543 
L 497.806232 158.793572 
L 495.683981 159.333396 
L 490.535189 161.110684 
L 471.951037 167.91705 
L 452.281464 175.27659 
L 450.082636 176.696913 
L 444.270211 180.703504 
L 444.342566 180.783985 
L 444.546597 180.820722 
L 450.064334 181.102188 
L 485.190923 182.594792 
L 490.023544 182.576889 
L 544.077595 181.676402 
L 544.077595 181.676402 
" style="fill:none;stroke:#000000;stroke-linecap:square;stroke-opacity:0.7;stroke-width:1.2;"/>
   </g>
   <g id="line2d_18">
    <path clip-path="url(#p57afbe4e0a)" d="M 544.088171 142.264597 
L 517.206794 139.362536 
L 488.183665 136.319596 
L 486.59871 136.495525 
L 482.265892 137.457437 
L 463.885246 141.909841 
L 455.188884 144.138116 
L 453.79116 145.033975 
L 443.080114 152.718143 
L 443.18869 152.739614 
L 444.529181 152.438315 
L 490.221501 141.158775 
L 492.551538 140.910332 
L 497.175869 140.972081 
L 544.065841 142.284006 
L 544.065841 142.284006 
" style="fill:none;stroke:#000000;stroke-linecap:square;stroke-opacity:0.7;stroke-width:1.2;"/>
   </g>
   <g id="line2d_19">
    <path clip-path="url(#p57afbe4e0a)" d="M 544.08953 102.875789 
L 536.327001 100.463116 
L 496.709288 88.194478 
L 495.102592 87.964917 
L 494.318847 88.014245 
L 489.337737 88.791411 
L 469.536255 92.377167 
L 454.51365 95.214058 
L 452.587389 95.922266 
L 441.965199 100.101811 
L 441.883436 100.300352 
L 442.115795 100.528969 
L 442.996746 101.116588 
L 455.023084 108.481194 
L 469.27693 116.972851 
L 475.076782 120.201806 
L 477.266212 121.252059 
L 478.96117 121.826871 
L 480.253252 121.949095 
L 481.964012 121.680049 
L 487.818889 119.99304 
L 544.071129 102.898815 
L 544.071129 102.898815 
" style="fill:none;stroke:#000000;stroke-linecap:square;stroke-opacity:0.7;stroke-width:1.2;"/>
   </g>
   <g id="line2d_20">
    <path clip-path="url(#p57afbe4e0a)" d="M 544.068008 63.466481 
L 528.009407 61.664091 
L 472.829973 55.359086 
L 463.22102 54.279115 
L 462.497697 54.390508 
L 459.519479 55.438468 
L 448.798523 59.455033 
L 448.797074 59.545374 
L 449.003045 59.67481 
L 451.880364 60.751376 
L 469.264976 66.881394 
L 477.585356 69.624059 
L 480.0931 70.268197 
L 481.359588 70.435432 
L 482.842548 70.424107 
L 487.810324 69.920331 
L 544.063704 63.479571 
L 544.063704 63.479571 
" style="fill:none;stroke:#000000;stroke-linecap:square;stroke-opacity:0.7;stroke-width:1.2;"/>
   </g>
   <g id="line2d_21">
    <path clip-path="url(#p57afbe4e0a)" d="M 675.490909 221.094118 
L 659.749905 212.760098 
L 630.417693 197.309178 
L 629.670561 197.029381 
L 628.836269 196.940953 
L 627.636477 197.190643 
L 624.301192 198.416045 
L 614.585645 202.427419 
L 585.867893 214.600149 
L 584.382661 215.440494 
L 577.282063 220.40187 
L 577.134606 220.689482 
L 577.231885 220.760049 
L 578.588203 221.238267 
L 594.360439 226.09042 
L 608.464877 230.2679 
L 612.644059 231.36471 
L 614.47053 231.715782 
L 615.806708 231.811445 
L 617.931412 231.608012 
L 625.08005 230.3446 
L 675.485872 221.136532 
L 675.485872 221.136532 
" style="fill:none;stroke:#000000;stroke-linecap:square;stroke-opacity:0.7;stroke-width:1.2;"/>
   </g>
   <g id="line2d_22">
    <path clip-path="url(#p57afbe4e0a)" d="M 675.46757 181.685109 
L 631.7183 180.356492 
L 620.325848 179.958634 
L 618.307435 179.627093 
L 606.122342 176.983702 
L 589.670406 173.431353 
L 589.173339 173.485087 
L 586.394596 174.425657 
L 577.280397 177.777472 
L 577.28492 177.784253 
L 577.499652 177.824924 
L 580.524595 177.888671 
L 621.429283 178.563406 
L 675.445816 181.709478 
L 675.445816 181.709478 
" style="fill:none;stroke:#000000;stroke-linecap:square;stroke-opacity:0.7;stroke-width:1.2;"/>
   </g>
   <g id="line2d_23">
    <path clip-path="url(#p57afbe4e0a)" d="M 675.473359 142.293085 
L 646.691896 141.193195 
L 619.582221 140.196305 
L 608.76797 140.424309 
L 588.539932 140.964033 
L 587.777669 141.174874 
L 582.156829 143.783343 
L 576.400119 146.58046 
L 576.413001 146.594605 
L 576.674823 146.616149 
L 580.193155 146.409931 
L 623.252392 143.692108 
L 662.738092 142.642857 
L 675.446919 142.306911 
L 675.446919 142.306911 
" style="fill:none;stroke:#000000;stroke-linecap:square;stroke-opacity:0.7;stroke-width:1.2;"/>
   </g>
   <g id="line2d_24">
    <path clip-path="url(#p57afbe4e0a)" d="M 675.464456 102.877421 
L 669.821732 102.180256 
L 621.050316 96.234269 
L 617.103445 96.254359 
L 590.859561 96.841593 
L 590.163259 96.911435 
L 589.316598 97.219671 
L 580.796067 101.239123 
L 579.399398 102.023775 
L 579.547341 102.095159 
L 581.689765 102.45393 
L 603.771429 105.686585 
L 613.150585 106.911071 
L 615.25544 107.035409 
L 619.064185 106.862281 
L 672.415726 103.111135 
L 675.458648 102.896779 
L 675.458648 102.896779 
" style="fill:none;stroke:#000000;stroke-linecap:square;stroke-opacity:0.7;stroke-width:1.2;"/>
   </g>
   <g id="line2d_25">
    <path clip-path="url(#p57afbe4e0a)" d="M 675.48757 63.440488 
L 642.470463 59.044371 
L 621.485801 56.330786 
L 619.813226 56.42582 
L 613.834468 57.232899 
L 591.926187 60.488891 
L 590.808727 61.001335 
L 583.608932 64.96237 
L 583.689987 65.017723 
L 584.843207 65.031036 
L 608.785203 64.603698 
L 675.472758 63.469175 
L 675.472758 63.469175 
" style="fill:none;stroke:#000000;stroke-linecap:square;stroke-opacity:0.7;stroke-width:1.2;"/>
   </g>
  </g>
 </g>
 <defs>
  <clipPath id="p57afbe4e0a">
   <rect height="262.08" width="694.08" x="12.96" y="12.96"/>
  </clipPath>
 </defs>
</svg>
