<?xml version="1.0" encoding="utf-8" standalone="no"?>
<!DOCTYPE svg PUBLIC "-//W3C//DTD SVG 1.1//EN"
  "http://www.w3.org/Graphics/SVG/1.1/DTD/svg11.dtd">
<!-- Created with matplotlib (https://matplotlib.org/) -->
<svg height="288pt" version="1.1" viewBox="0 0 720 288" width="720pt" xmlns="http://www.w3.org/2000/svg" xmlns:xlink="http://www.w3.org/1999/xlink">
 <defs>
  <style type="text/css">
*{stroke-linecap:butt;stroke-linejoin:round;}
  </style>
 </defs>
 <g id="figure_1">
  <g id="patch_1">
   <path d="M 0 288 
L 720 288 
L 720 0 
L 0 0 
z
" style="fill:#ffffff;"/>
  </g>
  <g id="axes_1">
   <g id="line2d_1">
    <path clip-path="url(#pbd64427f0c)" d="M 149.602763 225.31181 
L 110.534662 222.089386 
L 89.830692 220.30377 
L 63.203928 217.424128 
L 61.950757 217.583094 
L 44.855878 220.505578 
L 44.509091 220.643065 
L 44.521788 220.682316 
L 44.929503 220.881904 
L 47.754444 221.84789 
L 70.041246 229.131959 
L 80.296174 232.293254 
L 83.306202 233.021727 
L 84.888555 233.188254 
L 86.792879 233.099053 
L 97.761173 231.785712 
L 149.570587 225.368503 
L 149.570587 225.368503 
" style="fill:none;stroke:#000000;stroke-linecap:square;stroke-opacity:0.7;stroke-width:1.2;"/>
   </g>
   <g id="line2d_2">
    <path clip-path="url(#pbd64427f0c)" d="M 149.614165 185.873487 
L 135.548036 184.505 
L 93.740863 180.515629 
L 76.389451 179.986846 
L 64.688162 179.736242 
L 61.640408 180.430245 
L 51.750117 182.906946 
L 51.895971 182.9921 
L 53.08552 183.316914 
L 70.157392 187.477962 
L 84.192734 190.731844 
L 87.310368 191.275039 
L 88.971788 191.355603 
L 91.866019 191.170184 
L 124.538082 188.208407 
L 149.584698 185.929031 
L 149.584698 185.929031 
" style="fill:none;stroke:#000000;stroke-linecap:square;stroke-opacity:0.7;stroke-width:1.2;"/>
   </g>
   <g id="line2d_3">
    <path clip-path="url(#pbd64427f0c)" d="M 149.660834 146.40536 
L 94.16309 138.528998 
L 92.672306 138.74899 
L 88.00408 139.850419 
L 66.905099 145.205223 
L 62.576802 146.382176 
L 62.135895 146.685796 
L 61.678867 147.427162 
L 58.19705 154.25737 
L 57.511888 155.803445 
L 57.632277 155.890504 
L 57.807154 155.862832 
L 60.566263 154.951479 
L 94.390709 143.362674 
L 99.833926 141.642886 
L 102.015734 141.122033 
L 103.58146 141.024585 
L 106.550135 141.297618 
L 131.547155 144.274172 
L 149.627661 146.43345 
L 149.627661 146.43345 
" style="fill:none;stroke:#000000;stroke-linecap:square;stroke-opacity:0.7;stroke-width:1.2;"/>
   </g>
   <g id="line2d_4">
    <path clip-path="url(#pbd64427f0c)" d="M 149.621336 106.982186 
L 142.681029 105.851847 
L 95.923561 98.289096 
L 93.624737 98.258206 
L 82.68241 98.715423 
L 60.448007 99.825779 
L 59.46365 100.142992 
L 51.277543 103.192777 
L 51.262469 103.275523 
L 51.317815 103.308385 
L 52.429321 103.601174 
L 66.827742 106.81023 
L 84.782246 110.667295 
L 88.951933 111.376236 
L 90.692996 111.459842 
L 93.829721 111.287868 
L 129.21876 108.594622 
L 149.594251 107.038994 
L 149.594251 107.038994 
" style="fill:none;stroke:#000000;stroke-linecap:square;stroke-opacity:0.7;stroke-width:1.2;"/>
   </g>
   <g id="line2d_5">
    <path clip-path="url(#pbd64427f0c)" d="M 149.635497 67.539327 
L 88.855098 62.529655 
L 85.517051 62.946873 
L 69.797173 65.424728 
L 60.055575 67.064227 
L 59.48226 67.381122 
L 53.08807 71.830196 
L 52.217801 72.574774 
L 52.381619 72.62603 
L 53.592526 72.655938 
L 70.613128 72.575249 
L 98.14118 72.328391 
L 101.271288 72.114995 
L 140.777538 68.439418 
L 149.598858 67.617265 
L 149.598858 67.617265 
" style="fill:none;stroke:#000000;stroke-linecap:square;stroke-opacity:0.7;stroke-width:1.2;"/>
   </g>
   <g id="line2d_6">
    <path clip-path="url(#pbd64427f0c)" d="M 281.095159 225.288988 
L 273.159253 223.914785 
L 227.78768 216.116848 
L 225.650469 216.068825 
L 213.328947 216.41709 
L 194.487066 217.101047 
L 193.535129 217.47607 
L 185.894017 221.229527 
L 185.332964 221.588738 
L 185.45009 221.709892 
L 186.246048 221.939357 
L 197.935624 224.731541 
L 217.83877 229.321463 
L 222.03522 230.120162 
L 223.792622 230.256351 
L 225.706198 230.175481 
L 236.704289 229.234388 
L 281.063542 225.346626 
L 281.063542 225.346626 
" style="fill:none;stroke:#000000;stroke-linecap:square;stroke-opacity:0.7;stroke-width:1.2;"/>
   </g>
   <g id="line2d_7">
    <path clip-path="url(#pbd64427f0c)" d="M 281.080291 185.8726 
L 268.68515 184.274991 
L 226.615907 178.924458 
L 221.925049 178.814611 
L 199.177179 178.544174 
L 197.944786 178.793006 
L 183.513052 182.664998 
L 183.192059 182.862164 
L 183.216144 182.892694 
L 183.548518 183.054129 
L 186.042936 183.889118 
L 206.262472 190.311874 
L 216.501317 193.39472 
L 219.425111 194.111761 
L 220.181563 194.235646 
L 222.383602 194.267217 
L 227.037897 193.667602 
L 281.048008 185.924595 
L 281.048008 185.924595 
" style="fill:none;stroke:#000000;stroke-linecap:square;stroke-opacity:0.7;stroke-width:1.2;"/>
   </g>
   <g id="line2d_8">
    <path clip-path="url(#pbd64427f0c)" d="M 281.063673 146.404433 
L 234.134893 142.585137 
L 205.07546 140.109616 
L 193.034229 139.160523 
L 190.969313 139.694365 
L 181.124177 142.603631 
L 181.266553 142.611238 
L 184.223219 142.280547 
L 217.969855 138.477454 
L 223.629759 138.026805 
L 225.505734 138.089836 
L 230.307743 138.751404 
L 281.035014 146.427276 
L 281.035014 146.427276 
" style="fill:none;stroke:#000000;stroke-linecap:square;stroke-opacity:0.7;stroke-width:1.2;"/>
   </g>
   <g id="line2d_9">
    <path clip-path="url(#pbd64427f0c)" d="M 281.07636 106.948832 
L 276.507448 105.255983 
L 234.271237 89.68652 
L 233.660575 89.558519 
L 232.412647 89.580653 
L 230.187885 89.991941 
L 221.51067 92.009135 
L 190.67502 99.49157 
L 187.659193 100.343613 
L 183.97101 102.285209 
L 180.935396 104.023546 
L 180.943854 104.030295 
L 181.383039 104.10587 
L 190.478255 104.691358 
L 223.224356 106.627627 
L 230.335428 106.695923 
L 281.037271 107.007604 
L 281.037271 107.007604 
" style="fill:none;stroke:#000000;stroke-linecap:square;stroke-opacity:0.7;stroke-width:1.2;"/>
   </g>
   <g id="line2d_10">
    <path clip-path="url(#pbd64427f0c)" d="M 281.108937 67.560638 
L 252.686345 60.452686 
L 229.899614 54.816883 
L 229.012007 54.727298 
L 228.273698 54.771598 
L 225.960902 55.192163 
L 216.882879 57.275631 
L 191.985159 63.215707 
L 190.434554 63.80352 
L 187.448966 66.012185 
L 183.528819 69.099455 
L 183.608782 69.262009 
L 184.283641 69.568287 
L 189.305965 71.397523 
L 212.191845 79.487225 
L 220.924201 82.37967 
L 223.679142 83.116534 
L 224.878843 83.301714 
L 226.558279 83.219029 
L 228.851134 82.667878 
L 241.909375 78.925111 
L 281.077313 67.625804 
L 281.077313 67.625804 
" style="fill:none;stroke:#000000;stroke-linecap:square;stroke-opacity:0.7;stroke-width:1.2;"/>
   </g>
   <g id="line2d_11">
    <path clip-path="url(#pbd64427f0c)" d="M 412.551287 225.270492 
L 385.627414 219.668617 
L 360.389469 214.480709 
L 358.818464 214.48627 
L 355.657766 215.027707 
L 341.855512 217.833266 
L 325.358582 221.32155 
L 324.798261 221.641814 
L 320.587904 224.722892 
L 319.294608 225.799826 
L 319.304568 225.812703 
L 319.610914 225.877226 
L 322.346702 225.98528 
L 359.813875 227.061087 
L 364.14444 226.989461 
L 412.526928 225.333743 
L 412.526928 225.333743 
" style="fill:none;stroke:#000000;stroke-linecap:square;stroke-opacity:0.7;stroke-width:1.2;"/>
   </g>
   <g id="line2d_12">
    <path clip-path="url(#pbd64427f0c)" d="M 412.519594 185.841353 
L 400.706663 184.383847 
L 357.357975 179.106205 
L 339.57654 178.114111 
L 326.888968 177.534927 
L 326.28857 177.685931 
L 316.877407 180.69126 
L 314.50308 181.541219 
L 314.522043 181.556842 
L 315.012028 181.638932 
L 322.018699 182.244893 
L 352.498958 184.697485 
L 359.445405 184.864445 
L 412.48886 185.881795 
L 412.48886 185.881795 
" style="fill:none;stroke:#000000;stroke-linecap:square;stroke-opacity:0.7;stroke-width:1.2;"/>
   </g>
   <g id="line2d_13">
    <path clip-path="url(#pbd64427f0c)" d="M 412.533823 146.454142 
L 389.930038 144.332135 
L 353.603473 140.985569 
L 324.79698 138.946061 
L 324.283744 138.990232 
L 318.55454 140.017662 
L 308.505995 141.94867 
L 308.371036 142.145269 
L 308.722252 142.441481 
L 310.518238 143.589851 
L 323.679333 151.645661 
L 336.161796 159.063013 
L 340.755973 161.58515 
L 342.985606 162.594818 
L 344.341463 162.971451 
L 345.319394 163.036163 
L 345.965479 162.98759 
L 348.617812 162.466394 
L 366.000899 158.148971 
L 412.509138 146.512569 
L 412.509138 146.512569 
" style="fill:none;stroke:#000000;stroke-linecap:square;stroke-opacity:0.7;stroke-width:1.2;"/>
   </g>
   <g id="line2d_14">
    <path clip-path="url(#pbd64427f0c)" d="M 412.570531 107.01671 
L 355.741195 97.467893 
L 354.101793 97.734257 
L 349.177014 98.963103 
L 328.922781 104.36899 
L 323.83584 105.820879 
L 322.548648 106.596514 
L 311.320231 114.166897 
L 311.01424 114.552739 
L 311.176486 114.688617 
L 311.981548 114.958566 
L 318.330338 116.632865 
L 344.184426 123.208398 
L 354.813493 125.723659 
L 357.723097 126.261689 
L 358.816637 126.376849 
L 360.42119 126.299479 
L 362.355778 125.760896 
L 368.010614 123.692725 
L 412.533321 107.067009 
L 412.533321 107.067009 
" style="fill:none;stroke:#000000;stroke-linecap:square;stroke-opacity:0.7;stroke-width:1.2;"/>
   </g>
   <g id="line2d_15">
    <path clip-path="url(#pbd64427f0c)" d="M 412.543113 67.513677 
L 384.760324 61.074682 
L 361.471446 55.728378 
L 359.608303 55.615105 
L 353.007388 55.885649 
L 324.359932 57.419401 
L 323.566609 57.563172 
L 322.178081 58.02121 
L 310.369333 62.27871 
L 310.365881 62.378706 
L 310.834528 62.561716 
L 314.661564 63.595908 
L 338.110048 69.661025 
L 344.615361 71.197729 
L 346.921292 71.583125 
L 348.833969 71.654475 
L 354.299994 71.354093 
L 412.512962 67.569353 
L 412.512962 67.569353 
" style="fill:none;stroke:#000000;stroke-linecap:square;stroke-opacity:0.7;stroke-width:1.2;"/>
   </g>
   <g id="line2d_16">
    <path clip-path="url(#pbd64427f0c)" d="M 544.014485 225.300253 
L 540.9149 224.345755 
L 495.375594 210.370618 
L 494.121586 210.173846 
L 492.188497 210.404925 
L 485.78395 211.822858 
L 461.197274 217.65781 
L 452.494064 219.850344 
L 449.592122 221.449072 
L 445.084057 224.093105 
L 445.144727 224.218726 
L 445.701216 224.425946 
L 450.310204 225.740809 
L 476.093688 232.848978 
L 484.541971 234.988341 
L 487.109135 235.421132 
L 488.290627 235.442818 
L 489.99523 235.246539 
L 496.771619 234.037728 
L 543.982309 225.359181 
L 543.982309 225.359181 
" style="fill:none;stroke:#000000;stroke-linecap:square;stroke-opacity:0.7;stroke-width:1.2;"/>
   </g>
   <g id="line2d_17">
    <path clip-path="url(#pbd64427f0c)" d="M 544.009959 185.841111 
L 532.338895 183.717335 
L 491.801253 176.401708 
L 489.977958 176.387509 
L 482.395686 176.939457 
L 457.501867 179.028645 
L 456.805966 179.281031 
L 449.919128 182.502425 
L 449.242469 182.914416 
L 449.265288 182.935208 
L 449.683894 183.024478 
L 455.593164 183.693747 
L 483.471574 186.671824 
L 487.102284 186.915808 
L 492.246097 186.863135 
L 543.975564 185.890932 
L 543.975564 185.890932 
" style="fill:none;stroke:#000000;stroke-linecap:square;stroke-opacity:0.7;stroke-width:1.2;"/>
   </g>
   <g id="line2d_18">
    <path clip-path="url(#pbd64427f0c)" d="M 543.991492 146.423895 
L 485.853015 147.762816 
L 481.108343 147.213309 
L 455.574449 144.015466 
L 453.84394 144.651747 
L 446.461026 147.742953 
L 446.657124 147.796661 
L 448.518238 147.897675 
L 482.249206 149.228016 
L 491.111365 149.459852 
L 496.318009 149.212571 
L 543.963905 146.500805 
L 543.963905 146.500805 
" style="fill:none;stroke:#000000;stroke-linecap:square;stroke-opacity:0.7;stroke-width:1.2;"/>
   </g>
   <g id="line2d_19">
    <path clip-path="url(#pbd64427f0c)" d="M 543.993498 106.997421 
L 515.637018 104.14751 
L 487.48341 101.392046 
L 459.762001 99.854896 
L 458.836485 99.935147 
L 457.979437 100.250314 
L 449.450447 103.827252 
L 449.426904 103.915002 
L 449.458288 103.93696 
L 449.936446 104.074241 
L 455.975058 105.277671 
L 481.210346 110.104184 
L 486.057215 110.878783 
L 488.047617 110.989601 
L 492.257123 110.754141 
L 543.956947 107.043766 
L 543.956947 107.043766 
" style="fill:none;stroke:#000000;stroke-linecap:square;stroke-opacity:0.7;stroke-width:1.2;"/>
   </g>
   <g id="line2d_20">
    <path clip-path="url(#pbd64427f0c)" d="M 544.077037 67.5055 
L 492.683895 52.578117 
L 492.139807 52.54758 
L 491.057209 52.716309 
L 488.795917 53.429108 
L 481.439569 56.129755 
L 454.877429 66.225469 
L 452.105909 67.348145 
L 451.622782 67.621146 
L 451.11812 68.22559 
L 450.012753 70.654606 
L 444.85892 82.993205 
L 444.795823 83.457713 
L 445.00727 83.504298 
L 445.747578 83.2884 
L 450.047335 81.677364 
L 486.502755 67.899914 
L 491.806237 66.029821 
L 494.601458 65.280773 
L 496.676123 65.161364 
L 502.815451 65.432819 
L 544.03581 67.532999 
L 544.03581 67.532999 
" style="fill:none;stroke:#000000;stroke-linecap:square;stroke-opacity:0.7;stroke-width:1.2;"/>
   </g>
   <g id="line2d_21">
    <path clip-path="url(#pbd64427f0c)" d="M 675.474429 225.272674 
L 670.344564 222.367691 
L 631.969642 200.722968 
L 630.9464 200.398879 
L 629.96666 200.479559 
L 629.11608 200.7199 
L 624.604493 202.456257 
L 610.10286 208.541083 
L 585.661448 218.976768 
L 584.749109 219.528484 
L 581.850817 222.402579 
L 579.74438 224.685596 
L 579.864174 224.784388 
L 580.592364 224.921924 
L 591.140096 226.273741 
L 616.133349 229.331141 
L 619.456703 229.651237 
L 621.95205 229.69332 
L 626.897728 229.327382 
L 675.452114 225.324543 
L 675.452114 225.324543 
" style="fill:none;stroke:#000000;stroke-linecap:square;stroke-opacity:0.7;stroke-width:1.2;"/>
   </g>
   <g id="line2d_22">
    <path clip-path="url(#pbd64427f0c)" d="M 675.482547 185.866235 
L 618.094558 180.455904 
L 616.415753 180.647442 
L 610.215262 181.769654 
L 587.744146 186.111209 
L 586.863925 186.516941 
L 585.987787 187.622132 
L 580.100642 195.926648 
L 580.098313 196.137579 
L 580.42177 196.139243 
L 582.896129 195.64314 
L 625.538445 186.597076 
L 627.810427 186.321484 
L 633.235729 186.225414 
L 675.449074 185.907828 
L 675.449074 185.907828 
" style="fill:none;stroke:#000000;stroke-linecap:square;stroke-opacity:0.7;stroke-width:1.2;"/>
   </g>
   <g id="line2d_23">
    <path clip-path="url(#pbd64427f0c)" d="M 675.448265 146.412196 
L 651.757244 143.617151 
L 621.923764 140.160668 
L 617.412988 140.136048 
L 592.043103 140.346567 
L 591.225643 140.489295 
L 584.751915 142.879587 
L 578.162658 145.426117 
L 578.212404 145.450569 
L 578.709869 145.462613 
L 586.927929 145.198318 
L 617.442638 144.245606 
L 621.809215 144.340379 
L 675.42227 146.444532 
L 675.42227 146.444532 
" style="fill:none;stroke:#000000;stroke-linecap:square;stroke-opacity:0.7;stroke-width:1.2;"/>
   </g>
   <g id="line2d_24">
    <path clip-path="url(#pbd64427f0c)" d="M 675.490909 106.946684 
L 674.296871 106.227735 
L 631.241096 80.38615 
L 630.393739 80.049778 
L 629.626047 80.011474 
L 628.939205 80.174553 
L 627.154883 80.897937 
L 620.726708 84.052032 
L 603.316598 92.971629 
L 583.417516 103.299097 
L 582.863038 103.685967 
L 581.490469 105.36971 
L 577.643185 110.605981 
L 577.743931 110.731945 
L 578.28954 110.757803 
L 583.118287 110.54617 
L 628.538923 108.455106 
L 675.458953 107.01138 
L 675.458953 107.01138 
" style="fill:none;stroke:#000000;stroke-linecap:square;stroke-opacity:0.7;stroke-width:1.2;"/>
   </g>
   <g id="line2d_25">
    <path clip-path="url(#pbd64427f0c)" d="M 675.460996 67.540017 
L 660.392398 64.079883 
L 625.140752 56.074034 
L 623.764655 56.113376 
L 621.525124 56.530185 
L 610.592194 58.99759 
L 590.84779 63.648901 
L 590.248468 63.981047 
L 584.365496 67.947367 
L 583.547764 68.62399 
L 583.556428 68.635353 
L 583.696227 68.6862 
L 585.30328 68.81768 
L 609.868183 70.238405 
L 622.510612 70.866819 
L 625.377269 70.81038 
L 641.804388 69.768169 
L 675.446102 67.607669 
L 675.446102 67.607669 
" style="fill:none;stroke:#000000;stroke-linecap:square;stroke-opacity:0.7;stroke-width:1.2;"/>
   </g>
  </g>
 </g>
 <defs>
  <clipPath id="pbd64427f0c">
   <rect height="262.08" width="694.08" x="12.96" y="12.96"/>
  </clipPath>
 </defs>
</svg>
