<?xml version="1.0" encoding="utf-8" standalone="no"?>
<!DOCTYPE svg PUBLIC "-//W3C//DTD SVG 1.1//EN"
  "http://www.w3.org/Graphics/SVG/1.1/DTD/svg11.dtd">
<!-- Created with matplotlib (https://matplotlib.org/) -->
<svg height="288pt" version="1.1" viewBox="0 0 720 288" width="720pt" xmlns="http://www.w3.org/2000/svg" xmlns:xlink="http://www.w3.org/1999/xlink">
 <defs>
  <style type="text/css">
*{stroke-linecap:butt;stroke-linejoin:round;}
  </style>
 </defs>
 <g id="figure_1">
  <g id="patch_1">
   <path d="M 0 288 
L 720 288 
L 720 0 
L 0 0 
z
" style="fill:#ffffff;"/>
  </g>
  <g id="axes_1">
   <g id="line2d_1">
    <path clip-path="url(#pa2671eb3d5)" d="M 155.840846 221.714562 
L 152.916781 220.38198 
L 149.186679 218.988503 
L 143.872132 217.281324 
L 136.017623 215.040616 
L 127.679452 212.914695 
L 121.09672 211.454734 
L 116.239445 210.601933 
L 112.408441 210.15836 
L 107.910247 209.904995 
L 101.274478 209.804829 
L 86.664611 209.871926 
L 65.478386 210.179682 
L 57.068278 210.435174 
L 53.682831 210.700621 
L 53.218035 210.877311 
L 53.307596 211.035543 
L 54.21109 211.536027 
L 55.418745 211.967391 
L 56.748371 212.302501 
L 63.265585 213.336176 
L 67.95583 213.837705 
L 79.431361 214.718196 
L 81.467469 214.971971 
L 81.808254 215.208118 
L 83.31838 215.354773 
L 89.122833 215.610835 
L 105.975037 216.054143 
L 151.631785 216.974317 
L 155.22557 216.891394 
L 155.22557 216.891394 
" style="fill:none;stroke:#000000;stroke-linecap:square;stroke-opacity:0.7;stroke-width:1.2;"/>
   </g>
   <g id="line2d_2">
    <path clip-path="url(#pa2671eb3d5)" d="M 155.348023 181.937303 
L 153.052813 181.331406 
L 144.530851 179.192821 
L 133.208069 176.073439 
L 121.643343 172.907434 
L 117.869854 172.071232 
L 114.068392 171.479605 
L 110.312669 171.158757 
L 105.684985 171.00634 
L 99.573827 171.010443 
L 89.752357 171.240575 
L 80.743392 171.620635 
L 73.451832 172.096112 
L 68.418783 172.648897 
L 66.348805 173.072263 
L 65.255548 173.468671 
L 62.27945 174.806988 
L 56.822996 176.971447 
L 54.239391 178.236736 
L 51.675203 179.854318 
L 50.581577 180.766033 
L 49.937611 181.436337 
L 49.143254 182.60996 
L 48.861133 183.387837 
L 48.785616 184.038977 
L 48.99794 185.075434 
L 51.535388 187.487328 
L 53.1124 188.165154 
L 54.441251 188.505351 
L 57.200068 188.877858 
L 61.292538 189.183446 
L 68.905751 189.537601 
L 81.319403 189.884377 
L 96.084462 190.066474 
L 109.581775 189.994382 
L 118.597041 189.721387 
L 124.575033 189.314707 
L 128.96469 188.766821 
L 132.573887 188.042292 
L 135.647488 187.179761 
L 139.019237 185.993884 
L 143.634547 184.086093 
L 148.807563 181.727288 
L 155.496846 178.599111 
L 155.496846 178.599111 
" style="fill:none;stroke:#000000;stroke-linecap:square;stroke-opacity:0.7;stroke-width:1.2;"/>
   </g>
   <g id="line2d_3">
    <path clip-path="url(#pa2671eb3d5)" d="M 154.714944 142.548657 
L 153.76473 142.490864 
L 150.767451 142.020605 
L 130.101105 138.401424 
L 125.309746 137.775624 
L 119.58965 137.277705 
L 114.178227 137.038485 
L 106.594526 136.940908 
L 97.690121 137.060592 
L 89.406985 137.363297 
L 79.980172 137.945233 
L 72.095435 138.691505 
L 66.094948 139.551034 
L 63.417361 140.12929 
L 60.504486 141.166936 
L 60.002213 141.399567 
L 59.06572 142.251049 
L 59.12149 142.63484 
L 59.185681 142.752712 
L 59.576905 143.181 
L 61.142823 144.119985 
L 63.160411 144.942371 
L 66.054157 145.865066 
L 69.834789 146.838105 
L 74.546143 147.814289 
L 78.891187 148.504465 
L 81.033084 148.676424 
L 82.521213 148.490765 
L 85.100871 148.272113 
L 89.386893 148.099711 
L 100.507644 147.908004 
L 125.899749 147.560662 
L 131.809354 147.281413 
L 135.637193 146.928314 
L 138.928989 146.406271 
L 141.794789 145.696328 
L 144.556384 144.744364 
L 147.402008 143.512878 
L 151.586106 141.389275 
L 154.314877 140.017849 
L 154.732325 139.909075 
L 154.732325 139.909075 
" style="fill:none;stroke:#000000;stroke-linecap:square;stroke-opacity:0.7;stroke-width:1.2;"/>
   </g>
   <g id="line2d_4">
    <path clip-path="url(#pa2671eb3d5)" d="M 155.494492 102.387186 
L 154.468489 101.731868 
L 152.546944 100.854936 
L 149.47268 99.809122 
L 144.847273 98.517197 
L 138.458844 96.96786 
L 130.349115 95.23953 
L 122.919518 93.89379 
L 117.217813 93.101809 
L 112.763845 92.710933 
L 108.080516 92.549472 
L 103.845741 92.595677 
L 97.769649 92.902603 
L 91.726438 93.422332 
L 85.461884 94.145138 
L 78.224649 95.189889 
L 71.000914 96.455462 
L 64.250006 97.862765 
L 58.5028 99.277651 
L 56.857823 99.73089 
L 51.147592 101.560332 
L 47.130271 103.319347 
L 46.147107 103.907635 
L 44.683953 105.261246 
L 44.509091 105.912352 
L 44.568352 106.119218 
L 45.076371 106.662205 
L 45.951668 107.122448 
L 49.597573 108.210497 
L 53.393181 108.986756 
L 55.438261 109.343431 
L 68.018208 111.065795 
L 76.366835 111.905775 
L 83.226333 112.367881 
L 85.510127 112.379237 
L 86.578625 112.231457 
L 87.008723 111.951045 
L 87.466572 111.430819 
L 88.018543 111.14814 
L 89.355267 110.786717 
L 91.705634 110.442121 
L 95.740137 110.118398 
L 100.798656 109.900759 
L 111.725967 109.707191 
L 124.0819 109.541026 
L 130.514997 109.22942 
L 133.771553 108.883488 
L 136.668394 108.3735 
L 139.708699 107.536615 
L 142.553834 106.415531 
L 146.194741 104.546469 
L 154.422804 99.84195 
L 155.558067 99.575458 
L 155.558067 99.575458 
" style="fill:none;stroke:#000000;stroke-linecap:square;stroke-opacity:0.7;stroke-width:1.2;"/>
   </g>
   <g id="line2d_5">
    <path clip-path="url(#pa2671eb3d5)" d="M 155.228258 64.609508 
L 153.89632 63.78812 
L 152.021079 62.907992 
L 149.171955 61.891504 
L 145.817792 60.952398 
L 141.399219 59.981426 
L 136.391059 59.166614 
L 131.210134 58.5904 
L 124.364166 58.092859 
L 116.220273 57.724019 
L 108.558076 57.562156 
L 98.350819 57.625672 
L 90.177338 57.926825 
L 82.838916 58.427978 
L 76.715089 59.075691 
L 71.582183 59.87979 
L 68.648722 60.541684 
L 66.498861 61.237524 
L 65.023996 61.996384 
L 64.226462 62.696544 
L 63.264904 63.630379 
L 62.072635 64.640865 
L 61.477433 65.814368 
L 61.524647 66.296651 
L 61.677609 66.684613 
L 62.37216 67.552103 
L 63.753481 68.546047 
L 65.57877 69.44954 
L 68.025181 70.348043 
L 71.139582 71.203762 
L 78.838804 72.869678 
L 83.903155 73.440298 
L 91.96952 74.101874 
L 103.234714 74.762336 
L 113.060996 75.133589 
L 122.161799 75.269043 
L 129.411791 75.133304 
L 134.215471 74.798353 
L 137.092179 74.410674 
L 139.528451 73.89101 
L 141.246419 73.36865 
L 142.898856 72.705644 
L 144.665086 71.790643 
L 146.673552 70.471577 
L 149.106374 68.496105 
L 151.855989 65.843772 
L 154.74363 62.692161 
L 155.334711 62.039306 
L 155.334711 62.039306 
" style="fill:none;stroke:#000000;stroke-linecap:square;stroke-opacity:0.7;stroke-width:1.2;"/>
   </g>
   <g id="line2d_6">
    <path clip-path="url(#pa2671eb3d5)" d="M 285.515092 219.989548 
L 283.932461 218.989398 
L 280.476287 217.086727 
L 274.46407 213.994414 
L 266.940075 210.354542 
L 260.623968 207.566643 
L 256.778072 206.086712 
L 253.881764 205.153661 
L 250.084836 204.256843 
L 248.395399 203.98829 
L 244.761071 203.650805 
L 241.237829 203.559131 
L 235.810012 203.700581 
L 228.352624 204.23359 
L 220.442224 205.091959 
L 213.251004 206.100903 
L 208.080143 206.97183 
L 201.035251 208.417137 
L 197.049917 209.4436 
L 193.336312 210.698163 
L 191.985075 211.33959 
L 191.058185 211.987242 
L 190.668097 212.511113 
L 190.624432 213.167463 
L 190.761867 213.76818 
L 190.728897 214.040866 
L 190.248805 214.652888 
L 188.862665 215.590147 
L 187.061237 216.784797 
L 186.635497 217.124423 
L 185.651285 218.244795 
L 185.455764 218.845055 
L 185.746421 219.741912 
L 186.373321 220.28635 
L 187.519052 220.867946 
L 190.317398 222.20743 
L 191.560002 222.987008 
L 193.896398 224.1545 
L 194.87941 224.569579 
L 201.069756 226.701319 
L 208.196242 228.618643 
L 214.568024 230.04592 
L 219.978788 231.087897 
L 227.260769 232.252834 
L 233.474246 233.000913 
L 238.442297 233.377109 
L 242.414198 233.466454 
L 246.089547 233.302648 
L 249.357346 232.897092 
L 251.87746 232.403531 
L 255.614389 231.415601 
L 260.110901 229.932572 
L 265.794269 227.781902 
L 272.392822 225.062133 
L 281.192063 221.170516 
L 285.075653 219.258374 
L 285.401007 219.070439 
L 285.401007 219.070439 
" style="fill:none;stroke:#000000;stroke-linecap:square;stroke-opacity:0.7;stroke-width:1.2;"/>
   </g>
   <g id="line2d_7">
    <path clip-path="url(#pa2671eb3d5)" d="M 284.536934 181.870936 
L 282.805034 180.962988 
L 280.877053 180.254177 
L 277.895361 179.499667 
L 274.187212 178.865104 
L 270.260465 178.414649 
L 264.87929 178.044438 
L 248.877085 177.193122 
L 236.100742 176.399128 
L 226.820432 176.072771 
L 219.431186 176.030435 
L 213.61289 176.201108 
L 209.08823 176.56927 
L 206.480133 177.036484 
L 205.655296 177.33894 
L 205.245001 177.725275 
L 205.322188 178.058439 
L 205.605517 178.577399 
L 205.402912 178.668849 
L 200.782235 179.510159 
L 200.074249 179.936221 
L 199.995963 180.154038 
L 200.162231 180.472313 
L 200.604316 180.776233 
L 200.873436 180.905374 
L 202.166508 181.343472 
L 204.844495 181.87404 
L 206.605758 182.013188 
L 207.631621 181.859959 
L 208.177957 181.525109 
L 208.889481 181.012294 
L 210.161735 180.351257 
L 212.310026 179.569173 
L 214.740002 178.89275 
L 218.746296 178.00499 
L 225.192126 176.89037 
L 232.088381 175.954019 
L 238.789258 175.229997 
L 246.37315 174.625461 
L 252.211221 174.379286 
L 256.103662 174.405971 
L 259.320369 174.613854 
L 262.37766 174.998582 
L 266.264192 175.714111 
L 271.409325 176.886575 
L 282.692907 179.516481 
L 284.519943 179.738553 
L 284.519943 179.738553 
" style="fill:none;stroke:#000000;stroke-linecap:square;stroke-opacity:0.7;stroke-width:1.2;"/>
   </g>
   <g id="line2d_8">
    <path clip-path="url(#pa2671eb3d5)" d="M 285.403584 142.30331 
L 282.2834 141.367316 
L 277.930775 140.319205 
L 271.077219 138.920435 
L 261.869493 137.28299 
L 252.496757 135.842776 
L 245.298216 134.946393 
L 239.833027 134.488584 
L 235.343193 134.342303 
L 230.121517 134.435496 
L 223.831854 134.788133 
L 217.538954 135.292609 
L 203.536997 136.773707 
L 195.980394 137.761548 
L 187.582971 139.060553 
L 180.803834 140.410439 
L 179.279521 140.781536 
L 177.791908 140.94815 
L 177.482173 141.179076 
L 177.680379 141.40818 
L 179.567682 142.220547 
L 183.83036 143.368861 
L 188.192683 144.273256 
L 194.953699 145.528749 
L 197.235298 146.606087 
L 199.3904 147.796174 
L 201.772837 148.83038 
L 205.400282 150.152052 
L 210.207699 151.655381 
L 217.469538 153.606422 
L 224.47455 155.224033 
L 230.796072 156.483261 
L 237.124745 157.529327 
L 242.55347 158.189122 
L 246.682907 158.452948 
L 249.74249 158.431117 
L 251.777196 158.268117 
L 254.02106 157.912842 
L 256.755468 157.197868 
L 259.306599 156.255425 
L 262.08565 154.974703 
L 264.945633 153.449927 
L 270.283286 150.245958 
L 276.60692 146.111384 
L 285.51726 140.052342 
L 285.51726 140.052342 
" style="fill:none;stroke:#000000;stroke-linecap:square;stroke-opacity:0.7;stroke-width:1.2;"/>
   </g>
   <g id="line2d_9">
    <path clip-path="url(#pa2671eb3d5)" d="M 286.713111 103.268095 
L 284.768547 102.613978 
L 244.822521 91.075138 
L 240.059409 89.957559 
L 236.63505 89.360729 
L 234.393722 89.098915 
L 230.889405 88.903055 
L 226.969038 88.943414 
L 222.418773 89.234387 
L 216.897252 89.830651 
L 214.171532 90.201732 
L 205.653711 91.635884 
L 193.473238 94.384187 
L 189.284303 95.552796 
L 183.812718 97.333707 
L 181.156265 98.356888 
L 177.667818 100.013507 
L 174.476698 103.336481 
L 180.313706 106.806613 
L 181.904825 107.238855 
L 190.023629 108.982205 
L 201.927244 110.620099 
L 203.456816 110.632537 
L 203.476877 110.553548 
L 203.53884 110.407753 
L 204.024937 110.324129 
L 205.130604 110.283622 
L 216.697773 110.644104 
L 236.459668 111.421408 
L 242.598745 111.485288 
L 247.343664 111.349865 
L 250.898919 111.065413 
L 254.13665 110.618708 
L 257.933206 109.843569 
L 262.598438 108.570273 
L 268.061382 106.78646 
L 273.953995 104.688412 
L 284.160425 101.075771 
L 286.341074 100.512585 
L 286.687094 100.463892 
L 286.687094 100.463892 
" style="fill:none;stroke:#000000;stroke-linecap:square;stroke-opacity:0.7;stroke-width:1.2;"/>
   </g>
   <g id="line2d_10">
    <path clip-path="url(#pa2671eb3d5)" d="M 285.066107 65.197842 
L 284.043039 64.673718 
L 282.669176 64.209882 
L 279.752705 63.504904 
L 273.741653 62.353022 
L 260.739532 60.158981 
L 249.207135 58.387906 
L 241.837966 57.520565 
L 236.877894 57.082773 
L 228.467479 56.576899 
L 220.842923 56.37546 
L 214.93871 56.426803 
L 211.177334 56.598941 
L 206.658362 57.086815 
L 204.743939 57.548905 
L 204.337536 57.71787 
L 203.775377 58.20824 
L 203.765774 58.431818 
L 204.076471 58.85134 
L 205.137257 59.638526 
L 205.014427 59.702425 
L 203.829804 59.746799 
L 199.354369 59.514568 
L 192.749068 58.99811 
L 190.952135 58.718733 
L 191.073559 58.692412 
L 192.329385 58.676261 
L 194.642785 58.661109 
L 206.640108 57.44639 
L 222.367003 56.013486 
L 235.767669 54.998429 
L 243.79088 54.592639 
L 249.07233 54.546989 
L 253.056122 54.736562 
L 257.058906 55.174614 
L 260.727992 55.77398 
L 265.838387 56.833976 
L 270.898637 58.053693 
L 279.698528 60.450692 
L 285.148252 62.176076 
L 285.148252 62.176076 
" style="fill:none;stroke:#000000;stroke-linecap:square;stroke-opacity:0.7;stroke-width:1.2;"/>
   </g>
   <g id="line2d_11">
    <path clip-path="url(#pa2671eb3d5)" d="M 415.398352 219.778243 
L 413.063286 218.714581 
L 408.613221 216.988492 
L 400.102991 213.912928 
L 390.872915 210.742629 
L 381.38472 207.74822 
L 376.021056 206.312313 
L 372.554122 205.58785 
L 370.209672 205.239234 
L 367.02946 204.998814 
L 364.077972 205.022754 
L 360.70236 205.286343 
L 356.320747 205.872261 
L 349.719457 207.043095 
L 341.947455 208.682561 
L 333.244376 210.773809 
L 325.617204 212.834269 
L 319.864196 214.56842 
L 314.158543 216.529119 
L 308.903299 218.823904 
L 307.19971 219.896586 
L 306.455136 220.521173 
L 306.837302 221.205919 
L 307.901552 221.405012 
L 311.499074 221.711898 
L 315.715876 221.886851 
L 329.537682 222.010962 
L 334.398735 222.094755 
L 340.509053 222.427217 
L 354.810995 222.904218 
L 376.0183 223.379458 
L 386.133547 223.421209 
L 391.523395 223.239654 
L 394.821993 222.957853 
L 397.926288 222.509089 
L 401.290944 221.796908 
L 403.395215 221.24499 
L 409.308815 219.404199 
L 415.020146 217.581558 
L 415.421712 217.510631 
L 415.421712 217.510631 
" style="fill:none;stroke:#000000;stroke-linecap:square;stroke-opacity:0.7;stroke-width:1.2;"/>
   </g>
   <g id="line2d_12">
    <path clip-path="url(#pa2671eb3d5)" d="M 416.028124 181.30199 
L 414.858605 180.414881 
L 412.801642 179.188372 
L 410.303437 178.011501 
L 406.554126 176.531545 
L 402.150353 175.020024 
L 395.84983 173.128915 
L 391.136077 171.896845 
L 384.996835 170.570191 
L 380.6857 169.896314 
L 376.496355 169.494905 
L 372.636943 169.324946 
L 368.067156 169.296583 
L 360.504573 169.509387 
L 353.259675 169.934101 
L 345.08836 170.646567 
L 336.77873 171.646353 
L 333.133933 172.19051 
L 326.29264 173.453775 
L 322.660171 174.319738 
L 321.059799 174.773875 
L 317.706253 176.022203 
L 316.533383 176.713244 
L 315.878862 177.471566 
L 315.873796 177.983763 
L 316.086352 178.314308 
L 318.415809 180.250603 
L 320.162128 181.020202 
L 322.82502 181.936839 
L 326.787513 183.039137 
L 330.754177 183.956816 
L 334.82669 184.840483 
L 335.41804 185.143867 
L 335.591712 185.461601 
L 336.57935 185.737292 
L 338.722903 186.018908 
L 343.850062 186.400389 
L 351.959514 186.731934 
L 361.00403 186.890085 
L 370.644663 186.836389 
L 377.184647 186.611472 
L 382.532843 186.217083 
L 387.247786 185.627482 
L 392.443875 184.717874 
L 399.472457 183.213481 
L 408.575539 181.012281 
L 415.346615 179.150825 
L 415.870126 178.961887 
L 415.870126 178.961887 
" style="fill:none;stroke:#000000;stroke-linecap:square;stroke-opacity:0.7;stroke-width:1.2;"/>
   </g>
   <g id="line2d_13">
    <path clip-path="url(#pa2671eb3d5)" d="M 415.718001 143.027078 
L 414.407273 142.513337 
L 411.188795 141.515005 
L 404.903734 139.895437 
L 395.317492 137.715016 
L 384.666091 135.538088 
L 377.138076 134.185598 
L 371.663432 133.38276 
L 366.849045 132.910856 
L 363.25604 132.740928 
L 358.206584 132.709666 
L 349.805511 132.926506 
L 321.624994 134.066162 
L 321.357924 134.120781 
L 321.301092 135.52996 
L 320.463352 137.020348 
L 319.932854 138.315726 
L 319.647773 141.031613 
L 320.045226 142.61279 
L 320.78467 143.99347 
L 321.732326 145.137402 
L 323.176305 146.355304 
L 324.864756 147.369388 
L 327.966693 148.60599 
L 330.546044 148.623914 
L 341.370848 149.024095 
L 359.138592 149.689066 
L 370.444871 149.824779 
L 375.97946 149.629564 
L 380.09828 149.283303 
L 384.341666 148.717664 
L 388.10987 148.051419 
L 394.77554 146.578152 
L 401.43068 144.81708 
L 407.555358 142.944863 
L 411.848635 141.399862 
L 414.304314 140.26956 
L 415.20307 139.669884 
L 415.647954 139.227689 
L 415.647954 139.227689 
" style="fill:none;stroke:#000000;stroke-linecap:square;stroke-opacity:0.7;stroke-width:1.2;"/>
   </g>
   <g id="line2d_14">
    <path clip-path="url(#pa2671eb3d5)" d="M 415.481805 105.732548 
L 413.552665 105.01015 
L 410.997564 104.361203 
L 407.699821 103.77966 
L 402.401317 103.133164 
L 396.260273 102.6286 
L 387.015888 102.14318 
L 379.771098 101.717134 
L 371.311887 100.917192 
L 362.478068 100.16393 
L 354.483389 99.723551 
L 347.650427 99.569442 
L 342.445598 99.623871 
L 338.775877 99.783308 
L 334.154115 100.213597 
L 331.281578 100.754551 
L 330.619595 100.956116 
L 329.653897 101.426528 
L 329.347098 101.788066 
L 329.277555 102.409446 
L 328.049113 102.784935 
L 324.531574 103.392725 
L 320.396694 104.401829 
L 317.076376 105.520489 
L 314.518408 106.642317 
L 310.677308 109.232355 
L 309.982062 110.093293 
L 309.610854 111.061917 
L 309.607719 111.276563 
L 309.768968 111.704412 
L 310.576236 111.881156 
L 318.805743 110.706327 
L 325.432528 110.164779 
L 334.907319 109.638004 
L 348.996114 109.1407 
L 371.924512 108.665034 
L 381.885534 108.340224 
L 386.668852 107.990814 
L 390.633571 107.509245 
L 395.125549 106.740413 
L 401.639132 105.338238 
L 408.698104 103.592541 
L 415.096946 101.790772 
L 415.686422 101.596555 
L 415.686422 101.596555 
" style="fill:none;stroke:#000000;stroke-linecap:square;stroke-opacity:0.7;stroke-width:1.2;"/>
   </g>
   <g id="line2d_15">
    <path clip-path="url(#pa2671eb3d5)" d="M 415.198368 65.504237 
L 412.89324 64.607832 
L 409.886324 63.73115 
L 406.781397 63.032942 
L 402.708819 62.315516 
L 397.192876 61.583991 
L 390.633206 60.975397 
L 383.903825 60.583721 
L 371.365438 59.971324 
L 366.552182 59.4139 
L 352.991951 57.623363 
L 343.927974 56.707991 
L 337.200666 56.224174 
L 329.176474 55.901372 
L 327.211708 55.874022 
L 318.601923 56.144391 
L 314.640979 56.801424 
L 313.920824 57.082269 
L 313.244041 57.551507 
L 311.237107 59.367411 
L 310.797296 60.132299 
L 318.353589 64.15447 
L 322.522799 64.960169 
L 325.152637 65.389077 
L 329.082875 65.459266 
L 351.256651 65.35334 
L 369.222449 65.099476 
L 378.641312 64.725621 
L 391.877554 63.943298 
L 407.957314 62.77107 
L 414.779161 62.107127 
L 415.273198 62.024971 
L 415.273198 62.024971 
" style="fill:none;stroke:#000000;stroke-linecap:square;stroke-opacity:0.7;stroke-width:1.2;"/>
   </g>
   <g id="line2d_16">
    <path clip-path="url(#pa2671eb3d5)" d="M 544.924102 220.067626 
L 533.770134 217.198078 
L 527.352127 215.780844 
L 515.504899 213.429546 
L 505.611069 211.675613 
L 494.608897 209.973689 
L 488.134272 209.164896 
L 483.661268 208.7677 
L 478.908826 208.592837 
L 475.937534 208.647562 
L 471.331837 208.985082 
L 464.638411 209.945904 
L 461.861955 210.478552 
L 445.909289 214.662113 
L 443.347988 215.481734 
L 433.412409 219.001831 
L 430.016199 220.329537 
L 407.284866 231.452489 
L 471.636117 221.210673 
L 475.283849 220.68204 
L 478.149614 219.981137 
L 478.379328 219.78723 
L 478.244619 219.306703 
L 476.605978 217.864957 
L 477.91482 215.305843 
L 479.145463 214.7831 
L 480.989762 214.209565 
L 482.119623 213.928616 
L 486.447273 213.133366 
L 488.955091 212.808977 
L 494.192402 212.356558 
L 499.918377 212.165147 
L 504.541084 212.257616 
L 508.412328 212.527469 
L 513.604824 213.141746 
L 521.092519 214.326641 
L 536.696361 216.893305 
L 541.434918 217.414233 
L 543.452168 217.398279 
L 544.256557 217.210178 
L 544.256557 217.210178 
" style="fill:none;stroke:#000000;stroke-linecap:square;stroke-opacity:0.7;stroke-width:1.2;"/>
   </g>
   <g id="line2d_17">
    <path clip-path="url(#pa2671eb3d5)" d="M 544.676309 181.153003 
L 540.808163 179.775558 
L 534.95276 177.924853 
L 527.197722 175.722176 
L 520.148103 173.976496 
L 514.901473 172.923809 
L 511.610556 172.436084 
L 507.659874 172.092926 
L 503.636412 172.020764 
L 498.249541 172.20336 
L 486.377436 172.935236 
L 467.124828 174.305467 
L 452.206452 175.586703 
L 444.775491 176.564676 
L 442.850643 177.082361 
L 441.670872 177.49178 
L 441.389155 177.680549 
L 442.728498 178.844138 
L 446.577845 180.042778 
L 451.787719 181.554334 
L 453.229224 182.117455 
L 454.322232 182.730959 
L 454.984605 183.300898 
L 456.52521 184.940313 
L 457.482998 185.621865 
L 459.474556 186.617256 
L 461.18428 187.260541 
L 464.020291 188.115315 
L 467.677557 188.993649 
L 474.618341 190.269462 
L 480.353359 191.075339 
L 489.547872 192.030017 
L 497.076813 192.537248 
L 503.591942 192.757105 
L 509.14709 192.725884 
L 513.439536 192.485337 
L 516.574865 192.121498 
L 519.88833 191.487581 
L 522.714033 190.697719 
L 525.505684 189.683979 
L 529.051301 188.103593 
L 532.922681 186.085801 
L 537.661436 183.295908 
L 541.639324 180.684088 
L 543.997298 178.918691 
L 544.86474 178.122455 
L 544.86474 178.122455 
" style="fill:none;stroke:#000000;stroke-linecap:square;stroke-opacity:0.7;stroke-width:1.2;"/>
   </g>
   <g id="line2d_18">
    <path clip-path="url(#pa2671eb3d5)" d="M 545.2467 143.020456 
L 543.632533 142.761896 
L 540.968948 142.075343 
L 533.576493 139.856331 
L 526.202703 137.741305 
L 521.437969 136.632087 
L 517.317179 135.909341 
L 510.851957 135.090903 
L 503.541295 134.400217 
L 489.692502 133.379604 
L 464.173827 131.809708 
L 463.467078 131.957829 
L 451.084037 133.962309 
L 449.480144 134.503359 
L 449.249829 134.748751 
L 449.250197 134.801991 
L 449.518811 135.071084 
L 451.681527 136.261687 
L 453.459698 137.619763 
L 454.87173 138.342149 
L 456.238088 138.862648 
L 457.336048 139.205989 
L 461.51618 140.176423 
L 468.507132 141.205462 
L 475.493313 141.858848 
L 482.876754 142.299478 
L 491.091236 142.568423 
L 500.756334 142.639743 
L 510.151871 142.472086 
L 518.729999 142.10521 
L 529.775359 141.384805 
L 541.854262 140.37203 
L 544.99467 139.985668 
L 544.99467 139.985668 
" style="fill:none;stroke:#000000;stroke-linecap:square;stroke-opacity:0.7;stroke-width:1.2;"/>
   </g>
   <g id="line2d_19">
    <path clip-path="url(#pa2671eb3d5)" d="M 544.657026 104.54365 
L 532.733166 102.641789 
L 523.293796 101.42044 
L 512.925633 100.281511 
L 500.673749 99.164404 
L 491.620728 98.549327 
L 485.7793 98.369816 
L 481.716215 98.457094 
L 477.023117 98.774884 
L 469.806856 99.527485 
L 460.803276 100.739321 
L 455.86872 101.513534 
L 445.32138 103.480443 
L 439.825815 104.783287 
L 437.655035 105.418986 
L 434.796132 106.709792 
L 434.691076 106.79632 
L 434.925183 107.68861 
L 443.141062 110.145819 
L 443.754798 110.25321 
L 447.51011 110.636611 
L 449.408116 110.258728 
L 451.533509 108.866012 
L 452.250113 108.604487 
L 454.319316 108.078334 
L 458.894213 107.414735 
L 459.894844 107.316061 
L 470.659003 106.745148 
L 480.596287 106.613218 
L 491.042807 106.443436 
L 498.095217 106.070984 
L 508.799169 105.228 
L 539.337021 102.73288 
L 544.329472 102.456337 
L 544.329472 102.456337 
" style="fill:none;stroke:#000000;stroke-linecap:square;stroke-opacity:0.7;stroke-width:1.2;"/>
   </g>
   <g id="line2d_20">
    <path clip-path="url(#pa2671eb3d5)" d="M 544.884699 64.70542 
L 543.074612 64.093787 
L 540.68566 63.491069 
L 537.115327 62.749171 
L 528.995092 61.336739 
L 518.468962 59.775697 
L 501.339727 57.516436 
L 495.085317 56.965039 
L 489.560677 56.66179 
L 484.151561 56.518965 
L 476.741883 56.572016 
L 472.263734 56.76275 
L 468.178914 57.074002 
L 463.235443 57.733644 
L 460.775189 58.304411 
L 458.604641 59.251318 
L 457.027761 60.181848 
L 455.005541 60.808205 
L 447.039117 62.799405 
L 446.482295 62.980975 
L 443.578516 64.388137 
L 443.16729 65.170611 
L 443.24597 65.41523 
L 443.717623 65.883494 
L 443.880757 65.984565 
L 445.780781 66.697448 
L 447.315013 67.052561 
L 451.149339 67.648219 
L 454.565977 67.974526 
L 461.65368 68.40837 
L 473.502761 68.853735 
L 487.855342 69.152281 
L 501.771696 69.227982 
L 512.784782 69.062885 
L 518.770858 68.776497 
L 522.894349 68.393939 
L 526.777715 67.823846 
L 530.731359 67.025217 
L 535.468546 65.816367 
L 540.057957 64.382748 
L 543.083099 63.194367 
L 544.358655 62.492028 
L 544.648985 62.277058 
L 544.648985 62.277058 
" style="fill:none;stroke:#000000;stroke-linecap:square;stroke-opacity:0.7;stroke-width:1.2;"/>
   </g>
   <g id="line2d_21">
    <path clip-path="url(#pa2671eb3d5)" d="M 674.626991 220.282013 
L 672.577672 219.254537 
L 669.040709 217.787655 
L 664.588865 216.194509 
L 659.505027 214.606958 
L 654.001057 213.166405 
L 649.302895 212.225154 
L 645.840328 211.737747 
L 642.097466 211.394431 
L 636.433876 211.103894 
L 625.665814 210.822267 
L 580.057933 209.965995 
L 578.907096 210.265879 
L 577.386976 210.919268 
L 575.811422 211.857988 
L 574.984992 212.621001 
L 574.520142 213.475792 
L 574.504241 214.201357 
L 574.651209 214.608342 
L 575.749917 215.780227 
L 577.015318 216.511661 
L 579.141046 217.345072 
L 581.716587 218.059332 
L 585.801859 218.891303 
L 589.340437 219.43562 
L 593.784726 219.812005 
L 602.21736 220.209229 
L 615.280693 220.580675 
L 634.461815 220.892182 
L 651.152986 220.955095 
L 657.592303 220.798876 
L 662.736358 220.434566 
L 668.727657 219.747327 
L 674.37078 219.095806 
L 674.37078 219.095806 
" style="fill:none;stroke:#000000;stroke-linecap:square;stroke-opacity:0.7;stroke-width:1.2;"/>
   </g>
   <g id="line2d_22">
    <path clip-path="url(#pa2671eb3d5)" d="M 675.490909 180.033824 
L 672.98524 179.258986 
L 669.996646 178.600235 
L 667.44546 178.178872 
L 661.077473 177.411982 
L 653.732438 176.800539 
L 643.949068 176.237066 
L 618.42676 175.130803 
L 613.058092 175.256762 
L 608.336242 175.565386 
L 601.842166 176.305844 
L 598.630102 176.816457 
L 593.208767 177.924669 
L 589.249878 178.968534 
L 586.742049 179.761781 
L 584.462115 180.599938 
L 581.585083 181.885566 
L 580.01234 182.757176 
L 577.52691 184.675358 
L 575.972725 186.397827 
L 575.545744 186.472748 
L 575.061721 186.371215 
L 574.881956 186.27722 
L 574.68704 185.906488 
L 577.387341 184.639231 
L 579.540129 184.163691 
L 582.44762 183.667578 
L 598.796041 181.665438 
L 601.271659 181.093999 
L 604.313963 180.830708 
L 614.702122 180.361945 
L 630.314711 179.955149 
L 675.432154 179.036719 
L 675.432154 179.036719 
" style="fill:none;stroke:#000000;stroke-linecap:square;stroke-opacity:0.7;stroke-width:1.2;"/>
   </g>
   <g id="line2d_23">
    <path clip-path="url(#pa2671eb3d5)" d="M 675.030737 140.919461 
L 649.396977 136.560826 
L 631.187549 133.776193 
L 616.015728 131.641249 
L 605.095206 130.308748 
L 599.330542 129.806316 
L 595.438393 129.681095 
L 592.292914 129.794465 
L 589.563089 130.062214 
L 586.609023 130.504977 
L 581.577746 131.548804 
L 557.565549 140.796522 
L 555.625403 142.19933 
L 554.943833 142.821284 
L 553.984735 144.062234 
L 555.213398 144.313579 
L 560.87554 144.462026 
L 580.67432 144.790201 
L 583.780269 144.631227 
L 584.980798 144.358407 
L 588.081899 143.330747 
L 590.759956 142.686662 
L 593.652261 142.139375 
L 600.44464 141.179063 
L 608.377637 140.408807 
L 615.101987 139.968835 
L 623.244508 139.650287 
L 634.114829 139.472864 
L 670.456558 139.019707 
L 674.910935 138.851726 
L 674.910935 138.851726 
" style="fill:none;stroke:#000000;stroke-linecap:square;stroke-opacity:0.7;stroke-width:1.2;"/>
   </g>
   <g id="line2d_24">
    <path clip-path="url(#pa2671eb3d5)" d="M 675.402352 103.799146 
L 674.526429 102.98534 
L 673.54064 102.336047 
L 671.270226 101.159247 
L 668.40504 99.914612 
L 664.46513 98.436635 
L 660.331425 97.143131 
L 656.657383 96.259296 
L 653.592771 95.747313 
L 650.423588 95.418184 
L 646.213467 95.201328 
L 640.742279 95.121404 
L 629.819366 95.221654 
L 598.556541 95.856481 
L 598.274224 95.910827 
L 598.298705 95.958516 
L 598.911287 96.365146 
L 598.92552 96.56487 
L 598.698031 96.902416 
L 597.993473 97.470626 
L 595.965424 99.006833 
L 595.631111 99.339094 
L 595.005645 100.240351 
L 594.844578 101.071249 
L 594.922917 101.456231 
L 595.255073 102.045607 
L 595.600456 102.40653 
L 596.520334 103.04174 
L 596.890584 103.233503 
L 599.310998 104.091498 
L 601.6185 104.542612 
L 603.14886 104.645477 
L 603.888573 104.51909 
L 604.274002 104.210526 
L 604.78138 103.744835 
L 605.622282 103.304032 
L 606.634165 102.946545 
L 609.454203 102.262299 
L 613.718634 101.542557 
L 620.166781 100.736577 
L 629.413127 99.865651 
L 639.717861 99.144431 
L 647.93579 98.791325 
L 652.645852 98.781617 
L 656.29973 98.963821 
L 659.828207 99.338566 
L 665.108511 100.18499 
L 673.780473 101.67635 
L 675.157805 101.670295 
L 675.157805 101.670295 
" style="fill:none;stroke:#000000;stroke-linecap:square;stroke-opacity:0.7;stroke-width:1.2;"/>
   </g>
   <g id="line2d_25">
    <path clip-path="url(#pa2671eb3d5)" d="M 674.676646 65.053953 
L 670.826978 64.182063 
L 662.656499 62.624655 
L 645.728276 59.644607 
L 636.975506 58.242037 
L 631.716325 57.578306 
L 628.300691 57.322436 
L 623.845741 57.247671 
L 618.897008 57.407508 
L 612.110027 57.84763 
L 603.355345 58.648359 
L 596.332499 59.466508 
L 591.549539 60.143614 
L 586.190388 61.124227 
L 583.507919 61.883396 
L 582.632041 62.358613 
L 582.361416 62.758681 
L 582.189724 63.157094 
L 581.627326 63.555956 
L 580.284607 64.069671 
L 575.368402 65.618958 
L 571.764097 66.951676 
L 567.848087 69.301023 
L 567.712611 69.481585 
L 567.511227 69.967576 
L 567.739224 70.62027 
L 568.131354 70.911127 
L 569.14331 71.264836 
L 570.621405 71.467905 
L 580.559985 72.166005 
L 599.251818 73.415219 
L 613.582389 74.137551 
L 624.167909 74.440277 
L 631.631021 74.427398 
L 636.275043 74.236579 
L 640.670367 73.820735 
L 643.205683 73.426257 
L 646.159835 72.793514 
L 650.011083 71.706355 
L 654.669501 70.114763 
L 660.120198 68.043954 
L 669.779919 64.094286 
L 674.439644 62.004456 
L 674.439644 62.004456 
" style="fill:none;stroke:#000000;stroke-linecap:square;stroke-opacity:0.7;stroke-width:1.2;"/>
   </g>
  </g>
 </g>
 <defs>
  <clipPath id="pa2671eb3d5">
   <rect height="262.08" width="694.08" x="12.96" y="12.96"/>
  </clipPath>
 </defs>
</svg>
