<?xml version="1.0" encoding="utf-8" standalone="no"?>
<!DOCTYPE svg PUBLIC "-//W3C//DTD SVG 1.1//EN"
  "http://www.w3.org/Graphics/SVG/1.1/DTD/svg11.dtd">
<!-- Created with matplotlib (https://matplotlib.org/) -->
<svg height="288pt" version="1.1" viewBox="0 0 720 288" width="720pt" xmlns="http://www.w3.org/2000/svg" xmlns:xlink="http://www.w3.org/1999/xlink">
 <metadata>
  <rdf:RDF xmlns:cc="http://creativecommons.org/ns#" xmlns:dc="http://purl.org/dc/elements/1.1/" xmlns:rdf="http://www.w3.org/1999/02/22-rdf-syntax-ns#">
   <cc:Work>
    <dc:type rdf:resource="http://purl.org/dc/dcmitype/StillImage"/>
    <dc:date>2020-11-13T19:53:32.322579</dc:date>
    <dc:format>image/svg+xml</dc:format>
    <dc:creator>
     <cc:Agent>
      <dc:title>Matplotlib v3.3.2, https://matplotlib.org/</dc:title>
     </cc:Agent>
    </dc:creator>
   </cc:Work>
  </rdf:RDF>
 </metadata>
 <defs>
  <style type="text/css">*{stroke-linecap:butt;stroke-linejoin:round;}</style>
 </defs>
 <g id="figure_1">
  <g id="patch_1">
   <path d="M 0 288 
L 720 288 
L 720 0 
L 0 0 
z
" style="fill:#ffffff;"/>
  </g>
  <g id="axes_1">
   <g id="line2d_1">
    <path clip-path="url(#pc96b803a7a)" d="M 101.572468 231.177409 
L 83.075176 229.3515 
L 75.734216 228.834885 
L 70.467381 228.663311 
L 64.473883 228.695814 
L 56.757843 228.971136 
L 50.996465 229.376346 
L 48.572652 229.703039 
L 46.822533 230.109807 
L 45.60595 230.614447 
L 44.981468 231.114093 
L 44.753788 231.58095 
L 44.784654 231.987692 
L 44.957669 232.325745 
L 45.355541 232.750217 
L 46.184229 233.309616 
L 47.904632 234.069297 
L 50.043004 234.715327 
L 52.852557 235.304225 
L 56.133806 235.745028 
L 59.78291 235.989863 
L 63.542763 235.99577 
L 66.761361 235.802095 
L 70.77362 235.309626 
L 75.499316 234.465312 
L 84.74734 232.760786 
L 90.430107 232.001981 
L 96.415157 231.464923 
L 101.598831 231.139191 
L 101.598831 231.139191 
" style="fill:none;stroke:#000000;stroke-linecap:square;stroke-opacity:0.7;stroke-width:1.2;"/>
   </g>
   <g id="line2d_2">
    <path clip-path="url(#pc96b803a7a)" d="M 101.527938 212.089912 
L 85.342574 210.368968 
L 77.148798 209.712352 
L 71.1856 209.45316 
L 65.091296 209.44148 
L 58.066698 209.675338 
L 51.873729 210.083251 
L 48.6906 210.466195 
L 46.398435 210.970618 
L 45.300006 211.420991 
L 44.710706 211.918957 
L 44.595915 212.276428 
L 44.737609 212.679956 
L 45.231697 213.138262 
L 46.216616 213.654591 
L 48.218598 214.316665 
L 50.936572 214.906039 
L 54.49393 215.40396 
L 58.395206 215.71047 
L 62.326644 215.808982 
L 66.727202 215.677214 
L 71.238952 215.278743 
L 76.835112 214.511917 
L 86.177002 213.201256 
L 92.381394 212.596842 
L 99.595801 212.155362 
L 101.538424 212.064356 
L 101.538424 212.064356 
" style="fill:none;stroke:#000000;stroke-linecap:square;stroke-opacity:0.7;stroke-width:1.2;"/>
   </g>
   <g id="line2d_3">
    <path clip-path="url(#pc96b803a7a)" d="M 101.446289 192.987919 
L 76.77988 190.554602 
L 71.174624 190.253491 
L 66.306492 190.225228 
L 61.431434 190.415242 
L 54.689562 190.918018 
L 49.31628 191.513106 
L 47.163738 191.913563 
L 45.996401 192.286384 
L 45.353472 192.659099 
L 45.067015 193.052531 
L 45.06987 193.347813 
L 45.318506 193.704819 
L 46.082439 194.159995 
L 47.470691 194.608847 
L 49.968242 195.090153 
L 53.440253 195.492739 
L 58.103448 195.780005 
L 62.977369 195.852537 
L 67.944476 195.694202 
L 72.339406 195.3531 
L 80.270978 194.450804 
L 87.646943 193.685906 
L 94.296238 193.234269 
L 101.452041 192.961245 
L 101.452041 192.961245 
" style="fill:none;stroke:#000000;stroke-linecap:square;stroke-opacity:0.7;stroke-width:1.2;"/>
   </g>
   <g id="line2d_4">
    <path clip-path="url(#pc96b803a7a)" d="M 101.545825 173.855177 
L 74.295908 171.354483 
L 68.944753 171.177941 
L 63.16407 171.220797 
L 56.318221 171.512591 
L 51.507676 171.908316 
L 48.484217 172.341689 
L 46.566531 172.80244 
L 45.326354 173.337847 
L 44.923992 173.736433 
L 44.889245 173.985863 
L 45.113869 174.302956 
L 45.5902 174.574992 
L 46.965284 174.991654 
L 49.080754 175.365106 
L 52.247401 175.715302 
L 56.881262 176.003974 
L 62.046607 176.108504 
L 67.001416 176.009981 
L 71.986309 175.717452 
L 93.956227 174.10894 
L 101.550959 173.843467 
L 101.550959 173.843467 
" style="fill:none;stroke:#000000;stroke-linecap:square;stroke-opacity:0.7;stroke-width:1.2;"/>
   </g>
   <g id="line2d_5">
    <path clip-path="url(#pc96b803a7a)" d="M 101.515625 154.66586 
L 86.314896 153.206316 
L 78.242382 152.641383 
L 71.577074 152.40668 
L 65.009245 152.406328 
L 55.899296 152.639502 
L 50.883742 152.920214 
L 47.943653 153.254112 
L 46.374511 153.572877 
L 45.051077 154.065661 
L 44.544249 154.532275 
L 44.547852 154.856753 
L 44.790447 155.119722 
L 45.554609 155.468028 
L 47.055808 155.808515 
L 49.816167 156.138838 
L 54.140116 156.395034 
L 59.973739 156.50118 
L 66.51413 156.388243 
L 73.83993 156.009986 
L 91.146249 154.994007 
L 101.527894 154.643258 
L 101.527894 154.643258 
" style="fill:none;stroke:#000000;stroke-linecap:square;stroke-opacity:0.7;stroke-width:1.2;"/>
   </g>
   <g id="line2d_6">
    <path clip-path="url(#pc96b803a7a)" d="M 101.546845 135.516461 
L 87.106135 134.115992 
L 78.596594 133.506097 
L 72.372441 133.26636 
L 65.924878 133.247435 
L 56.870394 133.481621 
L 50.822832 133.83166 
L 47.732567 134.23046 
L 45.908315 134.698771 
L 44.992192 135.181877 
L 44.778731 135.525017 
L 44.859364 135.763999 
L 45.205172 136.012552 
L 46.020523 136.280265 
L 48.137651 136.60995 
L 51.862153 136.878713 
L 57.737545 137.036186 
L 64.996951 136.991518 
L 72.74059 136.718176 
L 98.068268 135.605617 
L 101.54181 135.507473 
L 101.54181 135.507473 
" style="fill:none;stroke:#000000;stroke-linecap:square;stroke-opacity:0.7;stroke-width:1.2;"/>
   </g>
   <g id="line2d_7">
    <path clip-path="url(#pc96b803a7a)" d="M 101.494164 116.417953 
L 76.106681 114.286164 
L 70.437338 114.017026 
L 65.08869 113.97673 
L 59.171571 114.171636 
L 52.995153 114.605786 
L 48.822342 115.098094 
L 46.85946 115.487549 
L 45.605189 115.942699 
L 45.220306 116.260973 
L 45.179319 116.530634 
L 45.402359 116.769212 
L 45.850953 116.965004 
L 46.971882 117.202181 
L 49.97832 117.451104 
L 54.53991 117.553474 
L 63.34651 117.487149 
L 79.820985 117.102758 
L 101.507756 116.402438 
L 101.507756 116.402438 
" style="fill:none;stroke:#000000;stroke-linecap:square;stroke-opacity:0.7;stroke-width:1.2;"/>
   </g>
   <g id="line2d_8">
    <path clip-path="url(#pc96b803a7a)" d="M 101.494143 97.311103 
L 87.784057 95.942482 
L 78.478568 95.210462 
L 72.215042 94.924949 
L 66.417981 94.891938 
L 59.481782 95.101369 
L 52.474346 95.508004 
L 48.822378 95.887394 
L 46.790237 96.264725 
L 45.485775 96.704899 
L 44.916286 97.129291 
L 44.880058 97.430227 
L 45.062051 97.620836 
L 45.618194 97.841327 
L 46.692502 98.016575 
L 49.198577 98.136174 
L 54.303129 98.085306 
L 70.524051 97.788334 
L 84.293985 97.693095 
L 101.491168 97.320395 
L 101.491168 97.320395 
" style="fill:none;stroke:#000000;stroke-linecap:square;stroke-opacity:0.7;stroke-width:1.2;"/>
   </g>
   <g id="line2d_9">
    <path clip-path="url(#pc96b803a7a)" d="M 101.499982 78.188822 
L 85.467091 76.520942 
L 76.132274 75.728161 
L 70.810275 75.471454 
L 66.340251 75.447307 
L 60.961426 75.651941 
L 54.341341 76.144497 
L 49.332483 76.705679 
L 46.926713 77.15337 
L 45.582891 77.581932 
L 44.890634 78.024875 
L 44.798309 78.242468 
L 44.927964 78.448819 
L 45.385654 78.623064 
L 46.360097 78.732526 
L 48.58545 78.725428 
L 55.465679 78.36943 
L 63.228007 78.060777 
L 68.769945 78.077371 
L 88.095616 78.498552 
L 99.082576 78.274762 
L 101.503344 78.20798 
L 101.503344 78.20798 
" style="fill:none;stroke:#000000;stroke-linecap:square;stroke-opacity:0.7;stroke-width:1.2;"/>
   </g>
   <g id="line2d_10">
    <path clip-path="url(#pc96b803a7a)" d="M 101.611133 58.982613 
L 87.210053 57.751168 
L 77.904728 57.12922 
L 71.384441 56.900552 
L 64.93964 56.9056 
L 56.493406 57.154362 
L 50.988294 57.518674 
L 47.816254 57.967279 
L 45.942164 58.476754 
L 45.175528 58.916349 
L 45.215922 59.072394 
L 45.545289 59.146509 
L 47.106294 59.109943 
L 62.049565 58.158333 
L 66.906052 58.182511 
L 71.67897 58.453497 
L 82.455957 59.194835 
L 88.628746 59.31758 
L 95.6555 59.213881 
L 101.617491 58.994558 
L 101.617491 58.994558 
" style="fill:none;stroke:#000000;stroke-linecap:square;stroke-opacity:0.7;stroke-width:1.2;"/>
   </g>
   <g id="line2d_11">
    <path clip-path="url(#pc96b803a7a)" d="M 165.3187 231.084842 
L 147.405046 228.789351 
L 139.614083 227.973016 
L 134.510167 227.63553 
L 129.741667 227.535199 
L 125.001515 227.651516 
L 119.830316 228.005205 
L 115.506341 228.515821 
L 112.693343 229.046257 
L 110.926369 229.571068 
L 109.668098 230.182427 
L 108.924075 230.876149 
L 108.722488 231.451465 
L 108.763588 231.797437 
L 109.110813 232.386983 
L 109.843266 232.994121 
L 110.834663 233.536799 
L 112.818263 234.299797 
L 115.574827 235.039264 
L 118.261947 235.550715 
L 121.76933 235.9885 
L 125.368238 236.198651 
L 128.439078 236.187905 
L 131.824613 235.965259 
L 135.433444 235.491456 
L 139.928156 234.648551 
L 150.204541 232.602885 
L 154.759625 231.93637 
L 160.120576 231.402233 
L 165.324709 231.072837 
L 165.324709 231.072837 
" style="fill:none;stroke:#000000;stroke-linecap:square;stroke-opacity:0.7;stroke-width:1.2;"/>
   </g>
   <g id="line2d_12">
    <path clip-path="url(#pc96b803a7a)" d="M 165.367119 211.962889 
L 153.099181 210.312019 
L 144.067827 209.292948 
L 137.63496 208.777321 
L 132.425104 208.576939 
L 127.541746 208.601358 
L 121.901785 208.864281 
L 117.304566 209.26888 
L 113.955115 209.740846 
L 111.336577 210.34812 
L 110.012797 210.842407 
L 108.95792 211.48173 
L 108.550711 211.935431 
L 108.406023 212.362435 
L 108.50401 212.776614 
L 108.762476 213.093696 
L 109.016918 213.291855 
L 110.141864 213.834788 
L 111.774811 214.32057 
L 114.33879 214.835215 
L 117.8169 215.29636 
L 121.430297 215.583875 
L 125.605933 215.708 
L 129.226308 215.632737 
L 133.211131 215.345818 
L 137.806426 214.792631 
L 151.525931 212.990457 
L 158.50917 212.381126 
L 165.383645 211.941332 
L 165.383645 211.941332 
" style="fill:none;stroke:#000000;stroke-linecap:square;stroke-opacity:0.7;stroke-width:1.2;"/>
   </g>
   <g id="line2d_13">
    <path clip-path="url(#pc96b803a7a)" d="M 165.308008 192.919032 
L 146.122577 190.386745 
L 139.34413 189.707333 
L 135.114739 189.462177 
L 130.205479 189.420047 
L 125.692482 189.604094 
L 119.945561 190.080007 
L 114.83844 190.731475 
L 111.892725 191.299636 
L 110.094682 191.843937 
L 109.110012 192.346797 
L 108.672637 192.793977 
L 108.608016 193.205882 
L 108.808174 193.539416 
L 109.22172 193.846786 
L 109.89769 194.155881 
L 111.44661 194.604062 
L 114.366366 195.118227 
L 117.840657 195.491269 
L 122.052466 195.739767 
L 126.550139 195.808522 
L 131.498296 195.654548 
L 136.165405 195.291609 
L 145.298036 194.278872 
L 152.588973 193.591522 
L 160.035557 193.131894 
L 165.310454 192.913177 
L 165.310454 192.913177 
" style="fill:none;stroke:#000000;stroke-linecap:square;stroke-opacity:0.7;stroke-width:1.2;"/>
   </g>
   <g id="line2d_14">
    <path clip-path="url(#pc96b803a7a)" d="M 165.291208 173.783462 
L 146.201429 171.458103 
L 138.996964 170.77973 
L 134.14303 170.516425 
L 129.517584 170.468693 
L 124.296989 170.646642 
L 119.334097 171.018763 
L 115.06666 171.533687 
L 111.985988 172.131406 
L 110.102241 172.754738 
L 109.260025 173.251764 
L 108.919855 173.667345 
L 108.888554 174.000232 
L 109.143542 174.357285 
L 109.563308 174.609704 
L 110.428488 174.910862 
L 112.180014 175.265019 
L 114.985157 175.597775 
L 119.264794 175.878488 
L 124.458787 176.007732 
L 129.810619 175.941017 
L 135.386097 175.654802 
L 145.906129 174.797937 
L 154.475892 174.235808 
L 165.290374 173.782261 
L 165.290374 173.782261 
" style="fill:none;stroke:#000000;stroke-linecap:square;stroke-opacity:0.7;stroke-width:1.2;"/>
   </g>
   <g id="line2d_15">
    <path clip-path="url(#pc96b803a7a)" d="M 165.242546 154.751064 
L 136.424648 151.599753 
L 131.543541 151.396206 
L 126.868707 151.454107 
L 121.900528 151.759246 
L 117.014913 152.269714 
L 113.095616 152.882808 
L 110.96942 153.384552 
L 109.335536 154.028127 
L 108.773227 154.507997 
L 108.704425 154.826113 
L 108.896296 155.116742 
L 109.585168 155.470862 
L 110.886413 155.794359 
L 113.63045 156.149873 
L 117.905718 156.4197 
L 123.797378 156.531843 
L 129.92639 156.42333 
L 137.084222 156.05272 
L 153.836949 155.064759 
L 164.052945 154.755441 
L 165.261135 154.730782 
L 165.261135 154.730782 
" style="fill:none;stroke:#000000;stroke-linecap:square;stroke-opacity:0.7;stroke-width:1.2;"/>
   </g>
   <g id="line2d_16">
    <path clip-path="url(#pc96b803a7a)" d="M 165.280069 135.506105 
L 146.839233 133.378205 
L 138.580187 132.592525 
L 133.313517 132.307529 
L 128.71563 132.272091 
L 123.658881 132.460022 
L 118.648613 132.857372 
L 114.268094 133.421098 
L 111.613603 133.96697 
L 110.221948 134.414712 
L 109.235681 134.943209 
L 108.867698 135.388639 
L 108.857704 135.635009 
L 109.100765 135.939616 
L 109.574642 136.172571 
L 110.703434 136.446236 
L 113.474775 136.744049 
L 117.978854 136.936091 
L 124.635904 136.988714 
L 132.903043 136.824675 
L 143.702904 136.340857 
L 159.168234 135.69116 
L 165.286335 135.499845 
L 165.286335 135.499845 
" style="fill:none;stroke:#000000;stroke-linecap:square;stroke-opacity:0.7;stroke-width:1.2;"/>
   </g>
   <g id="line2d_17">
    <path clip-path="url(#pc96b803a7a)" d="M 165.330571 116.346261 
L 151.390069 114.586871 
L 142.157829 113.604053 
L 136.472656 113.210083 
L 132.204694 113.103971 
L 126.939005 113.215686 
L 121.032802 113.588533 
L 115.562707 114.148345 
L 112.207726 114.704076 
L 110.351719 115.215122 
L 109.294282 115.692801 
L 108.717152 116.182349 
L 108.627161 116.506292 
L 108.821036 116.788068 
L 109.264739 117.005236 
L 110.278082 117.232315 
L 112.380885 117.435165 
L 116.563888 117.568032 
L 124.263193 117.550634 
L 137.902238 117.265423 
L 158.602496 116.576981 
L 165.337097 116.340051 
L 165.337097 116.340051 
" style="fill:none;stroke:#000000;stroke-linecap:square;stroke-opacity:0.7;stroke-width:1.2;"/>
   </g>
   <g id="line2d_18">
    <path clip-path="url(#pc96b803a7a)" d="M 165.253436 97.260629 
L 149.080401 95.464692 
L 138.991499 94.525746 
L 133.109378 94.184596 
L 127.548742 94.097272 
L 122.214554 94.255127 
L 117.393615 94.635598 
L 113.671253 95.1721 
L 111.149377 95.774275 
L 109.800318 96.274272 
L 109.006234 96.726149 
L 108.586876 97.185408 
L 108.583946 97.518752 
L 108.765404 97.711991 
L 109.376302 97.951425 
L 110.09588 98.072899 
L 112.195982 98.188457 
L 117.019372 98.139531 
L 139.758287 97.654595 
L 153.990442 97.529308 
L 165.239886 97.293224 
L 165.239886 97.293224 
" style="fill:none;stroke:#000000;stroke-linecap:square;stroke-opacity:0.7;stroke-width:1.2;"/>
   </g>
   <g id="line2d_19">
    <path clip-path="url(#pc96b803a7a)" d="M 165.266843 78.092394 
L 149.738962 76.303196 
L 141.315842 75.495319 
L 135.696143 75.155796 
L 130.517866 75.070548 
L 125.057803 75.213825 
L 119.007544 75.599474 
L 114.777371 76.056115 
L 111.764447 76.607312 
L 110.144357 77.106025 
L 109.236415 77.556658 
L 108.763097 78.006367 
L 108.755337 78.305108 
L 108.951667 78.468433 
L 109.623908 78.642477 
L 110.882034 78.717271 
L 114.244819 78.635356 
L 128.336482 78.096342 
L 134.157775 78.132514 
L 150.594418 78.434533 
L 159.897626 78.277705 
L 165.272681 78.110661 
L 165.272681 78.110661 
" style="fill:none;stroke:#000000;stroke-linecap:square;stroke-opacity:0.7;stroke-width:1.2;"/>
   </g>
   <g id="line2d_20">
    <path clip-path="url(#pc96b803a7a)" d="M 165.241062 59.080963 
L 142.975519 56.585628 
L 136.291682 56.018177 
L 131.745316 55.838082 
L 127.0447 55.879522 
L 122.192749 56.149597 
L 117.865147 56.576658 
L 114.163324 57.130879 
L 111.391129 57.769284 
L 109.880674 58.314817 
L 109.007486 58.876858 
L 108.915354 59.129018 
L 109.059278 59.256918 
L 109.548124 59.332686 
L 111.059131 59.242771 
L 122.555296 58.132641 
L 127.035411 57.960913 
L 131.046965 58.010871 
L 135.408814 58.301236 
L 146.224635 59.162183 
L 152.148734 59.31104 
L 159.605179 59.234891 
L 165.251145 59.078354 
L 165.251145 59.078354 
" style="fill:none;stroke:#000000;stroke-linecap:square;stroke-opacity:0.7;stroke-width:1.2;"/>
   </g>
   <g id="line2d_21">
    <path clip-path="url(#pc96b803a7a)" d="M 229.085452 231.127592 
L 214.30326 228.877301 
L 206.047211 227.810915 
L 200.63809 227.320443 
L 196.06973 227.129643 
L 191.60921 227.177551 
L 187.099126 227.444141 
L 182.219946 227.963802 
L 178.426019 228.581461 
L 175.965425 229.170242 
L 174.457744 229.696827 
L 173.296519 230.334257 
L 172.731971 230.926543 
L 172.582071 231.432064 
L 172.698802 231.911177 
L 173.151365 232.479841 
L 174.02039 233.092861 
L 175.750537 233.875095 
L 177.770825 234.504417 
L 180.698513 235.14002 
L 183.656083 235.563243 
L 187.36117 235.8529 
L 191.09914 235.899834 
L 194.908351 235.69448 
L 198.872477 235.214669 
L 203.175352 234.460509 
L 213.926284 232.486203 
L 218.796282 231.857199 
L 224.465518 231.372311 
L 229.094943 231.109203 
L 229.094943 231.109203 
" style="fill:none;stroke:#000000;stroke-linecap:square;stroke-opacity:0.7;stroke-width:1.2;"/>
   </g>
   <g id="line2d_22">
    <path clip-path="url(#pc96b803a7a)" d="M 229.079617 211.981292 
L 217.27221 210.197481 
L 206.765501 208.801868 
L 200.501011 208.179323 
L 196.045368 207.942892 
L 191.608561 207.931458 
L 187.034739 208.150831 
L 182.613215 208.579262 
L 179.153704 209.098095 
L 176.265163 209.750784 
L 174.653783 210.302857 
L 173.398018 210.973404 
L 172.728522 211.625542 
L 172.535873 212.156677 
L 172.614542 212.566044 
L 172.831106 212.884478 
L 173.317645 213.279955 
L 174.456805 213.830758 
L 176.364685 214.421016 
L 178.877297 214.960872 
L 182.363923 215.479897 
L 186.11696 215.829865 
L 190.29028 215.992415 
L 194.166123 215.918396 
L 198.14261 215.602357 
L 202.617039 214.997976 
L 216.696068 212.873314 
L 222.400659 212.342075 
L 229.094642 211.963688 
L 229.094642 211.963688 
" style="fill:none;stroke:#000000;stroke-linecap:square;stroke-opacity:0.7;stroke-width:1.2;"/>
   </g>
   <g id="line2d_23">
    <path clip-path="url(#pc96b803a7a)" d="M 229.075868 192.856224 
L 215.820002 190.928106 
L 206.881099 189.822754 
L 200.956069 189.307239 
L 195.96967 189.106554 
L 190.73652 189.155992 
L 185.731187 189.425802 
L 181.258759 189.863894 
L 177.841243 190.401778 
L 175.45283 190.990656 
L 173.690937 191.686018 
L 172.773662 192.31126 
L 172.434229 192.802643 
L 172.443441 193.262059 
L 172.597199 193.502308 
L 173.274837 193.972112 
L 174.196361 194.322139 
L 176.453783 194.836054 
L 179.750012 195.279184 
L 183.610818 195.58347 
L 188.676857 195.749658 
L 193.79084 195.675342 
L 198.502369 195.382579 
L 204.372153 194.780274 
L 214.816622 193.685069 
L 222.311423 193.163507 
L 229.084354 192.845223 
L 229.084354 192.845223 
" style="fill:none;stroke:#000000;stroke-linecap:square;stroke-opacity:0.7;stroke-width:1.2;"/>
   </g>
   <g id="line2d_24">
    <path clip-path="url(#pc96b803a7a)" d="M 228.96196 173.824523 
L 205.012789 170.522108 
L 199.352927 169.949857 
L 194.601545 169.702745 
L 190.4542 169.728822 
L 186.129007 170.005745 
L 181.842718 170.526988 
L 178.114135 171.2226 
L 175.499518 171.942175 
L 173.942565 172.582554 
L 173.022011 173.207287 
L 172.705593 173.748885 
L 172.803956 174.128166 
L 173.291811 174.522231 
L 174.181545 174.866024 
L 176.054968 175.269321 
L 179.004715 175.639177 
L 183.533875 175.961311 
L 188.789158 176.11695 
L 194.15961 176.060515 
L 199.280897 175.784942 
L 206.637238 175.112918 
L 215.173898 174.377287 
L 222.32008 174.009917 
L 228.9529 173.838606 
L 228.9529 173.838606 
" style="fill:none;stroke:#000000;stroke-linecap:square;stroke-opacity:0.7;stroke-width:1.2;"/>
   </g>
   <g id="line2d_25">
    <path clip-path="url(#pc96b803a7a)" d="M 229.101136 154.600068 
L 214.904078 152.506726 
L 206.515378 151.503362 
L 200.222048 150.972907 
L 195.21174 150.746137 
L 190.109958 150.73372 
L 185.985706 150.910185 
L 181.764589 151.311566 
L 178.305432 151.884203 
L 175.73525 152.546452 
L 174.194528 153.121591 
L 173.066431 153.73576 
L 172.502129 154.257074 
L 172.35791 154.668116 
L 172.509844 154.995776 
L 172.891804 155.258971 
L 174.031244 155.618226 
L 176.388148 155.970491 
L 180.394151 156.265747 
L 185.867837 156.432306 
L 192.185468 156.40697 
L 198.598802 156.155199 
L 225.808093 154.707412 
L 229.092678 154.609704 
L 229.092678 154.609704 
" style="fill:none;stroke:#000000;stroke-linecap:square;stroke-opacity:0.7;stroke-width:1.2;"/>
   </g>
   <g id="line2d_26">
    <path clip-path="url(#pc96b803a7a)" d="M 229.077079 135.567352 
L 208.350359 132.574621 
L 201.800358 131.843514 
L 197.302259 131.546285 
L 193.295284 131.483722 
L 188.942591 131.640408 
L 184.72255 131.994526 
L 180.539059 132.542885 
L 177.270062 133.162587 
L 174.84973 133.834348 
L 173.38977 134.455537 
L 172.577045 135.052995 
L 172.36611 135.545378 
L 172.5182 135.843995 
L 172.972957 136.116351 
L 173.689824 136.322673 
L 175.793419 136.596303 
L 179.428094 136.786709 
L 186.298914 136.902338 
L 195.077575 136.831091 
L 202.659572 136.552898 
L 221.258615 135.726938 
L 229.065557 135.584365 
L 229.065557 135.584365 
" style="fill:none;stroke:#000000;stroke-linecap:square;stroke-opacity:0.7;stroke-width:1.2;"/>
   </g>
   <g id="line2d_27">
    <path clip-path="url(#pc96b803a7a)" d="M 229.102532 116.269515 
L 216.127139 114.483214 
L 206.300319 113.318482 
L 200.891919 112.863588 
L 195.986914 112.668658 
L 191.627631 112.702245 
L 186.254107 112.980771 
L 181.377927 113.439588 
L 177.342019 114.042108 
L 175.223936 114.542851 
L 173.801193 115.054196 
L 172.74012 115.688488 
L 172.377682 116.171999 
L 172.396316 116.485304 
L 172.627936 116.726002 
L 173.126924 116.94004 
L 174.399117 117.171027 
L 176.882893 117.334189 
L 182.429288 117.415059 
L 195.778651 117.326202 
L 206.755165 117.065144 
L 229.100446 116.287431 
L 229.100446 116.287431 
" style="fill:none;stroke:#000000;stroke-linecap:square;stroke-opacity:0.7;stroke-width:1.2;"/>
   </g>
   <g id="line2d_28">
    <path clip-path="url(#pc96b803a7a)" d="M 229.045432 97.21136 
L 218.302754 95.641631 
L 207.899549 94.313705 
L 201.479674 93.705614 
L 196.366756 93.453923 
L 191.677151 93.43888 
L 186.303046 93.648463 
L 181.868086 94.020687 
L 178.698481 94.466338 
L 176.28376 94.990581 
L 174.435571 95.591396 
L 173.075011 96.266795 
L 172.39494 96.831278 
L 172.18331 97.301034 
L 172.27812 97.560834 
L 172.710846 97.836579 
L 173.243278 97.98131 
L 175.157835 98.164198 
L 178.29844 98.183602 
L 186.387029 97.933558 
L 196.705606 97.647932 
L 207.924283 97.657463 
L 218.506489 97.513347 
L 229.035189 97.226741 
L 229.035189 97.226741 
" style="fill:none;stroke:#000000;stroke-linecap:square;stroke-opacity:0.7;stroke-width:1.2;"/>
   </g>
   <g id="line2d_29">
    <path clip-path="url(#pc96b803a7a)" d="M 229.026793 78.165285 
L 212.791148 75.952828 
L 203.618447 74.868127 
L 198.59836 74.480675 
L 194.129015 74.360632 
L 189.544434 74.479709 
L 185.089624 74.806622 
L 180.723902 75.337265 
L 177.710997 75.884922 
L 175.57953 76.443088 
L 174.162417 76.977102 
L 173.204787 77.52279 
L 172.762891 78.011853 
L 172.790677 78.299807 
L 173.054048 78.465579 
L 173.798721 78.592954 
L 175.937482 78.5974 
L 195.727129 77.998851 
L 202.41392 78.226543 
L 211.053413 78.487548 
L 218.701222 78.462628 
L 229.037412 78.171859 
L 229.037412 78.171859 
" style="fill:none;stroke:#000000;stroke-linecap:square;stroke-opacity:0.7;stroke-width:1.2;"/>
   </g>
   <g id="line2d_30">
    <path clip-path="url(#pc96b803a7a)" d="M 229.016091 59.078785 
L 217.579709 57.442237 
L 207.037017 56.107883 
L 200.972048 55.539685 
L 196.369822 55.318218 
L 191.832629 55.327451 
L 187.059584 55.557529 
L 181.894065 56.037535 
L 178.242752 56.595396 
L 176.05516 57.108412 
L 174.352141 57.693686 
L 172.973218 58.426613 
L 172.469386 58.948909 
L 172.529278 59.15318 
L 172.92804 59.242539 
L 173.83133 59.194369 
L 187.604398 57.684693 
L 191.918696 57.565984 
L 195.813991 57.703106 
L 200.354661 58.143197 
L 207.830041 58.933666 
L 212.36681 59.201242 
L 218.441879 59.308984 
L 226.015556 59.186104 
L 229.028602 59.092562 
L 229.028602 59.092562 
" style="fill:none;stroke:#000000;stroke-linecap:square;stroke-opacity:0.7;stroke-width:1.2;"/>
   </g>
   <g id="line2d_31">
    <path clip-path="url(#pc96b803a7a)" d="M 292.819114 231.151422 
L 280.196691 228.947451 
L 272.489614 227.812417 
L 266.759475 227.178374 
L 261.539263 226.841002 
L 256.746109 226.782316 
L 252.347511 226.938604 
L 247.652479 227.319592 
L 243.997052 227.811546 
L 240.914779 228.464907 
L 239.124986 229.048154 
L 237.869251 229.65421 
L 237.175799 230.148721 
L 236.637963 230.775616 
L 236.435507 231.380044 
L 236.521033 231.979551 
L 236.927572 232.628824 
L 237.656935 233.277245 
L 238.717545 233.927981 
L 240.726958 234.81135 
L 243.276991 235.616788 
L 246.434166 236.321978 
L 249.59872 236.782481 
L 252.972464 237.026402 
L 256.015091 237.021077 
L 259.38555 236.746288 
L 262.366092 236.268982 
L 266.537849 235.328135 
L 276.17129 233.0342 
L 280.138336 232.32667 
L 284.785816 231.732225 
L 290.391212 231.291121 
L 292.822958 231.156213 
L 292.822958 231.156213 
" style="fill:none;stroke:#000000;stroke-linecap:square;stroke-opacity:0.7;stroke-width:1.2;"/>
   </g>
   <g id="line2d_32">
    <path clip-path="url(#pc96b803a7a)" d="M 292.795703 212.032744 
L 279.715691 209.754898 
L 271.290026 208.486107 
L 265.242281 207.794302 
L 260.79563 207.494267 
L 256.536179 207.424239 
L 252.255143 207.56804 
L 247.930908 207.917904 
L 244.035493 208.448541 
L 241.023444 209.102014 
L 239.322987 209.649641 
L 237.788466 210.363064 
L 236.653183 211.213513 
L 236.243075 211.790357 
L 236.131902 212.275067 
L 236.247336 212.717201 
L 236.556071 213.105833 
L 237.371818 213.638974 
L 238.751476 214.172746 
L 240.787603 214.694357 
L 243.879387 215.227385 
L 247.398114 215.615054 
L 251.48952 215.844932 
L 255.587734 215.849948 
L 259.692462 215.615631 
L 263.513482 215.189723 
L 272.272745 213.8841 
L 278.564648 213.080476 
L 284.894553 212.509268 
L 292.808727 212.040387 
L 292.808727 212.040387 
" style="fill:none;stroke:#000000;stroke-linecap:square;stroke-opacity:0.7;stroke-width:1.2;"/>
   </g>
   <g id="line2d_33">
    <path clip-path="url(#pc96b803a7a)" d="M 292.832699 192.829787 
L 276.143775 190.208635 
L 268.305822 189.192474 
L 263.282717 188.73317 
L 258.64587 188.539775 
L 254.893 188.578842 
L 250.322734 188.850774 
L 245.88079 189.334366 
L 242.094716 189.959984 
L 239.491857 190.610711 
L 237.959408 191.195159 
L 236.988086 191.761873 
L 236.445091 192.273138 
L 236.169912 192.885183 
L 236.254185 193.312145 
L 236.530985 193.641296 
L 236.974675 193.92402 
L 238.051518 194.320693 
L 240.371531 194.800471 
L 243.674261 195.205629 
L 248.162929 195.519762 
L 253.197736 195.643211 
L 257.821399 195.549658 
L 262.566536 195.240551 
L 269.922033 194.488113 
L 278.612626 193.651213 
L 286.383646 193.13534 
L 292.846991 192.82342 
L 292.846991 192.82342 
" style="fill:none;stroke:#000000;stroke-linecap:square;stroke-opacity:0.7;stroke-width:1.2;"/>
   </g>
   <g id="line2d_34">
    <path clip-path="url(#pc96b803a7a)" d="M 292.880464 173.706154 
L 283.514664 172.109263 
L 274.06493 170.710798 
L 267.430352 169.917 
L 262.23909 169.52439 
L 257.696331 169.431045 
L 253.023592 169.580282 
L 248.016029 169.979009 
L 243.556028 170.56921 
L 240.810388 171.122665 
L 238.682171 171.758634 
L 237.278853 172.390242 
L 236.494062 172.936202 
L 236.115905 173.409802 
L 236.067591 173.8754 
L 236.261691 174.172102 
L 236.650044 174.442538 
L 237.6153 174.807734 
L 239.032491 175.12836 
L 241.948183 175.536256 
L 246.433598 175.898356 
L 251.739608 176.091289 
L 257.132592 176.061314 
L 262.658317 175.782206 
L 269.726304 175.155091 
L 279.27788 174.333485 
L 286.826112 173.924699 
L 292.884699 173.713673 
L 292.884699 173.713673 
" style="fill:none;stroke:#000000;stroke-linecap:square;stroke-opacity:0.7;stroke-width:1.2;"/>
   </g>
   <g id="line2d_35">
    <path clip-path="url(#pc96b803a7a)" d="M 292.789653 154.598086 
L 280.377408 152.493396 
L 271.858052 151.244769 
L 265.816846 150.566169 
L 260.952225 150.239019 
L 256.684911 150.168829 
L 252.278007 150.321226 
L 247.775272 150.711258 
L 244.068162 151.245508 
L 240.993031 151.923065 
L 239.342673 152.445057 
L 237.901648 153.078088 
L 236.865411 153.773674 
L 236.418289 154.34324 
L 236.374098 154.763784 
L 236.591137 155.091884 
L 237.177394 155.421702 
L 238.369056 155.740358 
L 240.885944 156.07004 
L 244.911753 156.319745 
L 251.008309 156.438173 
L 257.481453 156.337416 
L 264.548222 155.999876 
L 284.205115 154.919063 
L 292.778551 154.609227 
L 292.778551 154.609227 
" style="fill:none;stroke:#000000;stroke-linecap:square;stroke-opacity:0.7;stroke-width:1.2;"/>
   </g>
   <g id="line2d_36">
    <path clip-path="url(#pc96b803a7a)" d="M 292.869397 135.445595 
L 282.807551 133.782914 
L 273.625922 132.458216 
L 267.278993 131.735779 
L 261.960272 131.354768 
L 257.538147 131.249415 
L 252.830363 131.354398 
L 248.225363 131.673585 
L 244.657292 132.107207 
L 241.619773 132.684117 
L 239.313901 133.351124 
L 237.684686 134.056824 
L 236.67986 134.736016 
L 236.304403 135.203206 
L 236.263944 135.609136 
L 236.521687 135.909868 
L 237.162412 136.183654 
L 238.575966 136.453929 
L 241.129046 136.681802 
L 245.818887 136.857662 
L 253.076529 136.884379 
L 261.291851 136.683746 
L 292.868761 135.445153 
L 292.868761 135.445153 
" style="fill:none;stroke:#000000;stroke-linecap:square;stroke-opacity:0.7;stroke-width:1.2;"/>
   </g>
   <g id="line2d_37">
    <path clip-path="url(#pc96b803a7a)" d="M 292.820824 116.338196 
L 281.854819 114.506807 
L 272.321955 113.126148 
L 265.896727 112.423815 
L 261.278976 112.133546 
L 256.778898 112.081515 
L 252.437675 112.247258 
L 247.808229 112.644473 
L 243.995539 113.175097 
L 241.02317 113.796273 
L 238.761223 114.507909 
L 237.569465 115.059327 
L 236.60533 115.76106 
L 236.307198 116.305337 
L 236.403365 116.612973 
L 236.767247 116.869711 
L 237.388048 117.061297 
L 238.803789 117.256335 
L 241.766707 117.39609 
L 247.838532 117.409727 
L 261.929323 117.148823 
L 284.233481 116.602164 
L 292.815601 116.350677 
L 292.815601 116.350677 
" style="fill:none;stroke:#000000;stroke-linecap:square;stroke-opacity:0.7;stroke-width:1.2;"/>
   </g>
   <g id="line2d_38">
    <path clip-path="url(#pc96b803a7a)" d="M 292.755749 97.256216 
L 278.446013 95.021827 
L 268.649277 93.673771 
L 263.011845 93.10551 
L 258.873715 92.88164 
L 254.469019 92.872681 
L 250.023417 93.10609 
L 246.139927 93.512837 
L 242.674078 94.082585 
L 240.237058 94.674883 
L 238.492805 95.277158 
L 237.040603 96.007817 
L 236.26282 96.612242 
L 235.867192 97.225177 
L 235.888423 97.544739 
L 236.117826 97.791529 
L 236.904884 98.046037 
L 238.51206 98.168238 
L 242.230761 98.110234 
L 263.079526 97.425399 
L 285.133892 97.436646 
L 292.766142 97.269607 
L 292.766142 97.269607 
" style="fill:none;stroke:#000000;stroke-linecap:square;stroke-opacity:0.7;stroke-width:1.2;"/>
   </g>
   <g id="line2d_39">
    <path clip-path="url(#pc96b803a7a)" d="M 292.88776 78.006277 
L 284.381348 76.644323 
L 274.890606 75.324604 
L 267.329628 74.481538 
L 262.084911 74.105951 
L 256.842599 73.973168 
L 252.126294 74.0643 
L 247.513742 74.361103 
L 243.708856 74.830543 
L 241.273122 75.312397 
L 238.989825 75.99029 
L 237.406152 76.69451 
L 236.459368 77.327827 
L 236.02219 77.867232 
L 236.034735 78.1879 
L 236.319702 78.395438 
L 237.21877 78.563843 
L 239.03354 78.603974 
L 244.511522 78.414006 
L 255.372052 78.049827 
L 261.684746 78.071348 
L 279.723331 78.413217 
L 288.403493 78.208144 
L 292.890352 78.029599 
L 292.890352 78.029599 
" style="fill:none;stroke:#000000;stroke-linecap:square;stroke-opacity:0.7;stroke-width:1.2;"/>
   </g>
   <g id="line2d_40">
    <path clip-path="url(#pc96b803a7a)" d="M 292.840551 58.947556 
L 282.849697 57.335395 
L 272.206282 55.821075 
L 265.975257 55.148407 
L 261.64318 54.880955 
L 257.249681 54.833576 
L 252.79577 55.00449 
L 247.737841 55.43145 
L 243.906975 55.950201 
L 241.062691 56.52653 
L 238.940694 57.168034 
L 237.474733 57.834966 
L 236.748605 58.339553 
L 236.41436 58.830499 
L 236.503994 59.027542 
L 236.877011 59.151666 
L 237.751772 59.15869 
L 240.677306 58.834562 
L 247.339638 58.099313 
L 252.113754 57.793576 
L 256.026752 57.735681 
L 259.753982 57.879267 
L 264.56285 58.307098 
L 271.676893 58.951296 
L 277.281704 59.200846 
L 283.64568 59.228705 
L 292.008223 59.009346 
L 292.843192 58.976937 
L 292.843192 58.976937 
" style="fill:none;stroke:#000000;stroke-linecap:square;stroke-opacity:0.7;stroke-width:1.2;"/>
   </g>
   <g id="line2d_41">
    <path clip-path="url(#pc96b803a7a)" d="M 356.615549 231.047233 
L 347.042269 229.142328 
L 339.294564 227.796532 
L 333.096814 226.924273 
L 327.943896 226.417926 
L 323.273948 226.196364 
L 318.78781 226.218337 
L 314.197442 226.466572 
L 309.847059 226.921891 
L 306.610419 227.4546 
L 303.986598 228.102672 
L 302.139317 228.786474 
L 300.806492 229.536033 
L 300.176345 230.07554 
L 299.682608 230.831191 
L 299.596029 231.32359 
L 299.756588 231.925143 
L 300.228638 232.513072 
L 300.926169 233.024777 
L 301.958664 233.553 
L 304.020692 234.29576 
L 306.578546 234.950925 
L 309.648459 235.514306 
L 313.27794 235.947165 
L 316.939704 236.150113 
L 320.183959 236.123806 
L 323.368796 235.892069 
L 326.599841 235.449472 
L 331.366901 234.52711 
L 340.125453 232.774207 
L 345.376555 231.993614 
L 350.584553 231.458309 
L 356.620242 231.035923 
L 356.620242 231.035923 
" style="fill:none;stroke:#000000;stroke-linecap:square;stroke-opacity:0.7;stroke-width:1.2;"/>
   </g>
   <g id="line2d_42">
    <path clip-path="url(#pc96b803a7a)" d="M 356.620536 211.97939 
L 343.333088 209.581112 
L 334.282199 208.145642 
L 328.301733 207.409411 
L 323.932179 207.074791 
L 319.901851 206.975864 
L 316.015931 207.093521 
L 312.079511 207.437387 
L 308.354031 208.002995 
L 305.192623 208.743067 
L 302.90434 209.544704 
L 301.488904 210.2775 
L 300.72139 210.856835 
L 300.190844 211.498532 
L 300.00268 212.101427 
L 300.068472 212.506804 
L 300.357497 212.952678 
L 300.84824 213.351879 
L 301.951224 213.902359 
L 303.632957 214.458252 
L 306.039152 215.025206 
L 309.841838 215.641256 
L 313.947731 216.037489 
L 317.923143 216.177643 
L 321.6342 216.076971 
L 325.328113 215.742092 
L 329.568173 215.115286 
L 342.523182 212.989938 
L 347.594825 212.460662 
L 353.443059 212.096188 
L 356.62489 211.969941 
L 356.62489 211.969941 
" style="fill:none;stroke:#000000;stroke-linecap:square;stroke-opacity:0.7;stroke-width:1.2;"/>
   </g>
   <g id="line2d_43">
    <path clip-path="url(#pc96b803a7a)" d="M 356.553138 192.88323 
L 346.033666 190.882742 
L 336.845987 189.315583 
L 330.460382 188.437473 
L 325.4029 187.965397 
L 320.93712 187.788917 
L 316.880265 187.864163 
L 313.017204 188.161209 
L 309.323178 188.67524 
L 306.197221 189.336205 
L 303.837226 190.044013 
L 302.043006 190.796376 
L 300.735851 191.604184 
L 300.147504 192.18863 
L 299.876021 192.779148 
L 299.918635 193.192206 
L 300.211746 193.602222 
L 300.681746 193.925772 
L 301.472184 194.260652 
L 303.211486 194.711333 
L 306.17651 195.179009 
L 310.650613 195.605568 
L 315.823497 195.848426 
L 320.783055 195.845871 
L 324.978209 195.637286 
L 329.859427 195.161261 
L 344.903353 193.475348 
L 351.413075 193.084035 
L 356.545327 192.892452 
L 356.545327 192.892452 
" style="fill:none;stroke:#000000;stroke-linecap:square;stroke-opacity:0.7;stroke-width:1.2;"/>
   </g>
   <g id="line2d_44">
    <path clip-path="url(#pc96b803a7a)" d="M 356.542957 173.684436 
L 347.096642 171.96557 
L 336.55971 170.241113 
L 329.790648 169.342306 
L 325.442591 168.956537 
L 321.183472 168.799205 
L 317.20019 168.877031 
L 313.544563 169.141989 
L 309.773621 169.62229 
L 306.812919 170.188307 
L 304.299594 170.877835 
L 302.418907 171.630669 
L 301.19553 172.361734 
L 300.459794 173.076299 
L 300.190749 173.692955 
L 300.229677 174.04704 
L 300.532782 174.447689 
L 301.006064 174.72629 
L 301.812432 174.994224 
L 303.795645 175.342217 
L 306.587329 175.603626 
L 311.837701 175.85001 
L 318.278947 175.910727 
L 324.351791 175.735742 
L 330.87222 175.290757 
L 345.2696 174.203852 
L 355.031379 173.757927 
L 356.535627 173.703778 
L 356.535627 173.703778 
" style="fill:none;stroke:#000000;stroke-linecap:square;stroke-opacity:0.7;stroke-width:1.2;"/>
   </g>
   <g id="line2d_45">
    <path clip-path="url(#pc96b803a7a)" d="M 356.616897 154.571639 
L 344.287321 152.214557 
L 336.69404 151.00389 
L 330.857804 150.282616 
L 325.707401 149.88183 
L 321.124195 149.776675 
L 316.627517 149.919948 
L 312.174101 150.297925 
L 308.101543 150.887242 
L 305.270401 151.504439 
L 303.368095 152.079634 
L 301.595959 152.825476 
L 300.319387 153.64592 
L 299.757335 154.315612 
L 299.692029 154.767132 
L 299.855302 155.044749 
L 300.394892 155.370807 
L 301.7739 155.732089 
L 304.330096 156.057115 
L 308.44235 156.305286 
L 313.912932 156.395884 
L 320.398401 156.26811 
L 328.227789 155.861933 
L 340.70274 155.209367 
L 356.629213 154.56341 
L 356.629213 154.56341 
" style="fill:none;stroke:#000000;stroke-linecap:square;stroke-opacity:0.7;stroke-width:1.2;"/>
   </g>
   <g id="line2d_46">
    <path clip-path="url(#pc96b803a7a)" d="M 356.587856 135.46266 
L 347.601074 133.758572 
L 337.439425 132.037874 
L 330.762258 131.121179 
L 325.856641 130.683397 
L 321.688553 130.550235 
L 317.535283 130.664498 
L 313.432362 131.012447 
L 309.672152 131.538426 
L 306.618648 132.149546 
L 303.9685 132.904854 
L 302.44643 133.520099 
L 301.109042 134.304128 
L 300.557991 134.803597 
L 300.244485 135.380148 
L 300.323691 135.765825 
L 300.729752 136.078983 
L 301.651048 136.34347 
L 303.654082 136.563897 
L 307.727851 136.718166 
L 316.081189 136.769851 
L 325.482947 136.604144 
L 335.514011 136.162334 
L 348.045055 135.660266 
L 356.588664 135.485137 
L 356.588664 135.485137 
" style="fill:none;stroke:#000000;stroke-linecap:square;stroke-opacity:0.7;stroke-width:1.2;"/>
   </g>
   <g id="line2d_47">
    <path clip-path="url(#pc96b803a7a)" d="M 356.53771 116.340145 
L 343.387896 114.052321 
L 332.478553 112.324662 
L 327.368645 111.711194 
L 323.336605 111.438586 
L 319.727668 111.411046 
L 316.099363 111.60207 
L 312.010603 112.067389 
L 308.403515 112.699398 
L 305.547252 113.384665 
L 303.079311 114.201347 
L 301.762452 114.818368 
L 300.874698 115.425009 
L 300.45011 115.916626 
L 300.337452 116.286433 
L 300.462075 116.622892 
L 300.872435 116.905315 
L 301.651017 117.128166 
L 303.42109 117.320415 
L 307.058936 117.398925 
L 315.462167 117.27271 
L 356.541048 116.367352 
L 356.541048 116.367352 
" style="fill:none;stroke:#000000;stroke-linecap:square;stroke-opacity:0.7;stroke-width:1.2;"/>
   </g>
   <g id="line2d_48">
    <path clip-path="url(#pc96b803a7a)" d="M 356.476965 97.258143 
L 342.603446 94.842392 
L 332.414381 93.266771 
L 327.216667 92.652746 
L 323.027553 92.363032 
L 319.178964 92.325292 
L 315.298143 92.52991 
L 311.171272 93.005407 
L 307.711708 93.619373 
L 304.921547 94.312092 
L 302.772926 95.058799 
L 301.240245 95.831345 
L 300.33639 96.54345 
L 299.991084 97.076426 
L 299.980934 97.417182 
L 300.088412 97.599106 
L 300.583869 97.881066 
L 301.514387 98.057693 
L 303.288216 98.136415 
L 307.437001 98.034647 
L 322.995077 97.483773 
L 331.07116 97.548401 
L 340.604305 97.561921 
L 355.199688 97.30396 
L 356.484458 97.276941 
L 356.484458 97.276941 
" style="fill:none;stroke:#000000;stroke-linecap:square;stroke-opacity:0.7;stroke-width:1.2;"/>
   </g>
   <g id="line2d_49">
    <path clip-path="url(#pc96b803a7a)" d="M 356.602621 78.049891 
L 348.029339 76.452004 
L 338.720194 74.919663 
L 332.167367 74.028939 
L 326.992907 73.535499 
L 322.617291 73.338308 
L 318.185069 73.376209 
L 314.344666 73.604097 
L 310.479286 74.03525 
L 307.31094 74.594124 
L 305.044688 75.172098 
L 302.895195 75.952159 
L 301.492329 76.681051 
L 300.564593 77.388412 
L 300.179863 77.95117 
L 300.233818 78.257802 
L 300.555331 78.442387 
L 301.386292 78.553521 
L 303.788837 78.501156 
L 318.362286 77.802035 
L 323.808216 77.816723 
L 330.607562 78.095643 
L 338.398709 78.354981 
L 345.652035 78.360624 
L 355.234594 78.120866 
L 356.605238 78.071643 
L 356.605238 78.071643 
" style="fill:none;stroke:#000000;stroke-linecap:square;stroke-opacity:0.7;stroke-width:1.2;"/>
   </g>
   <g id="line2d_50">
    <path clip-path="url(#pc96b803a7a)" d="M 356.586109 58.937129 
L 348.221052 57.405453 
L 338.350807 55.817873 
L 331.234787 54.894831 
L 325.984832 54.45282 
L 321.592534 54.31861 
L 317.660917 54.400371 
L 313.195452 54.720711 
L 309.464338 55.197159 
L 306.638969 55.739556 
L 304.359523 56.364573 
L 302.278841 57.196533 
L 300.964476 57.98395 
L 300.261662 58.690194 
L 300.230033 59.027163 
L 300.44484 59.142366 
L 301.117478 59.164549 
L 303.566819 58.862397 
L 309.933983 58.091908 
L 315.166552 57.701536 
L 319.687457 57.603008 
L 323.106706 57.727125 
L 327.05081 58.086982 
L 335.572698 58.976328 
L 340.720217 59.235766 
L 346.57339 59.277538 
L 353.977523 59.077698 
L 356.59693 58.963577 
L 356.59693 58.963577 
" style="fill:none;stroke:#000000;stroke-linecap:square;stroke-opacity:0.7;stroke-width:1.2;"/>
   </g>
   <g id="line2d_51">
    <path clip-path="url(#pc96b803a7a)" d="M 420.420764 230.996103 
L 412.565212 229.310728 
L 404.17197 227.723318 
L 397.472415 226.661363 
L 392.262075 226.039398 
L 387.599264 225.710709 
L 383.225367 225.639636 
L 379.22254 225.784725 
L 375.546867 226.11024 
L 372.291386 226.595701 
L 369.564783 227.216976 
L 367.213592 228.018878 
L 365.60338 228.828614 
L 364.544684 229.600846 
L 363.772224 230.51732 
L 363.525389 231.243504 
L 363.578964 231.779073 
L 363.732938 232.115426 
L 364.136645 232.591665 
L 364.954371 233.162517 
L 366.543036 233.86181 
L 368.761327 234.518739 
L 371.687363 235.120979 
L 375.310206 235.608717 
L 378.950516 235.870529 
L 382.848301 235.906251 
L 386.252233 235.717222 
L 389.438575 235.350401 
L 394.160178 234.541945 
L 405.233654 232.496043 
L 410.052326 231.854606 
L 415.457615 231.34571 
L 420.427064 231.006944 
L 420.427064 231.006944 
" style="fill:none;stroke:#000000;stroke-linecap:square;stroke-opacity:0.7;stroke-width:1.2;"/>
   </g>
   <g id="line2d_52">
    <path clip-path="url(#pc96b803a7a)" d="M 420.404461 211.89312 
L 411.498712 210.023625 
L 402.586947 208.369957 
L 396.607684 207.439613 
L 391.693093 206.862524 
L 387.695531 206.583487 
L 383.609872 206.518152 
L 379.91559 206.65892 
L 375.564665 207.069913 
L 371.946832 207.646241 
L 369.102851 208.321203 
L 366.891707 209.086888 
L 365.470119 209.795562 
L 364.642806 210.367179 
L 364.068379 210.920232 
L 363.613312 211.722853 
L 363.604957 212.304975 
L 363.8782 212.792389 
L 364.370342 213.197229 
L 365.687247 213.792459 
L 367.19795 214.222211 
L 369.819707 214.736115 
L 373.596698 215.219076 
L 377.576429 215.512225 
L 381.820131 215.612196 
L 385.73852 215.50093 
L 389.53165 215.197847 
L 394.519995 214.562791 
L 406.715367 212.897599 
L 412.82697 212.342812 
L 420.411123 211.879274 
L 420.411123 211.879274 
" style="fill:none;stroke:#000000;stroke-linecap:square;stroke-opacity:0.7;stroke-width:1.2;"/>
   </g>
   <g id="line2d_53">
    <path clip-path="url(#pc96b803a7a)" d="M 420.365792 192.780879 
L 413.140129 191.218388 
L 404.491741 189.555723 
L 397.334063 188.398865 
L 392.128241 187.77668 
L 387.662002 187.475482 
L 383.913832 187.429058 
L 380.233031 187.578229 
L 376.365888 187.95086 
L 372.738411 188.534679 
L 369.809595 189.240507 
L 367.553964 190.024816 
L 365.962011 190.816903 
L 364.895983 191.592321 
L 364.288791 192.31866 
L 364.108278 192.864783 
L 364.173105 193.265207 
L 364.438462 193.632766 
L 364.934357 193.973794 
L 366.156987 194.432368 
L 368.193529 194.870224 
L 371.299907 195.281521 
L 375.685564 195.623285 
L 380.961704 195.78864 
L 385.66361 195.72011 
L 390.485819 195.417604 
L 396.89667 194.73155 
L 407.166482 193.620889 
L 414.630516 193.082294 
L 420.366647 192.791016 
L 420.366647 192.791016 
" style="fill:none;stroke:#000000;stroke-linecap:square;stroke-opacity:0.7;stroke-width:1.2;"/>
   </g>
   <g id="line2d_54">
    <path clip-path="url(#pc96b803a7a)" d="M 420.410997 173.615578 
L 412.789054 171.988433 
L 404.903852 170.519296 
L 398.022338 169.454842 
L 392.652974 168.837768 
L 388.229963 168.537847 
L 383.99628 168.467817 
L 380.075479 168.601793 
L 376.053278 168.949734 
L 372.647507 169.452201 
L 370.026941 170.030844 
L 367.653981 170.789523 
L 366.006331 171.539864 
L 364.757344 172.353339 
L 364.060203 173.07826 
L 363.83762 173.691714 
L 363.934339 174.04388 
L 364.148688 174.289343 
L 364.728502 174.622752 
L 366.27824 175.05616 
L 368.794903 175.42628 
L 372.630521 175.746798 
L 377.917666 175.961751 
L 383.269717 175.978276 
L 388.544732 175.789624 
L 394.754105 175.330881 
L 409.029132 174.186513 
L 418.947957 173.686886 
L 420.409509 173.624429 
L 420.409509 173.624429 
" style="fill:none;stroke:#000000;stroke-linecap:square;stroke-opacity:0.7;stroke-width:1.2;"/>
   </g>
   <g id="line2d_55">
    <path clip-path="url(#pc96b803a7a)" d="M 420.315195 154.607895 
L 407.743417 152.185072 
L 397.466878 150.424111 
L 391.340191 149.581597 
L 386.924018 149.18995 
L 383.482401 149.072715 
L 379.909835 149.154719 
L 376.115948 149.483443 
L 372.89844 149.97835 
L 370.061697 150.624547 
L 367.485786 151.471724 
L 365.709299 152.320505 
L 364.943674 152.822211 
L 364.116698 153.614496 
L 363.851888 154.113944 
L 363.821516 154.493257 
L 364.014798 154.877182 
L 364.416343 155.17026 
L 364.896743 155.36596 
L 366.433773 155.694715 
L 369.108811 155.969183 
L 374.447883 156.234029 
L 381.72468 156.356368 
L 387.687841 156.261504 
L 393.670261 155.940876 
L 409.707896 154.901271 
L 418.096873 154.676533 
L 420.31227 154.645131 
L 420.31227 154.645131 
" style="fill:none;stroke:#000000;stroke-linecap:square;stroke-opacity:0.7;stroke-width:1.2;"/>
   </g>
   <g id="line2d_56">
    <path clip-path="url(#pc96b803a7a)" d="M 420.326334 135.332648 
L 410.40232 133.376998 
L 401.352744 131.803014 
L 394.61488 130.832041 
L 390.299194 130.389331 
L 386.624948 130.188697 
L 382.554929 130.195699 
L 378.903734 130.408472 
L 374.972956 130.848504 
L 371.850652 131.376211 
L 369.370275 131.964241 
L 367.04022 132.770875 
L 365.616534 133.508809 
L 364.545348 134.346764 
L 364.064607 134.964639 
L 363.912193 135.543069 
L 364.078785 135.892448 
L 364.531665 136.169824 
L 365.558727 136.420022 
L 367.643036 136.612411 
L 371.571819 136.706859 
L 379.120909 136.621339 
L 400.424928 136.016517 
L 420.331601 135.336723 
L 420.331601 135.336723 
" style="fill:none;stroke:#000000;stroke-linecap:square;stroke-opacity:0.7;stroke-width:1.2;"/>
   </g>
   <g id="line2d_57">
    <path clip-path="url(#pc96b803a7a)" d="M 420.286653 116.312368 
L 409.910632 114.241892 
L 399.463937 112.357645 
L 393.670754 111.509585 
L 389.50317 111.092747 
L 385.593491 110.926894 
L 381.865132 111.008586 
L 378.043039 111.334657 
L 374.440306 111.857214 
L 370.961334 112.579865 
L 368.255871 113.357235 
L 366.203531 114.190497 
L 365.052513 114.862644 
L 364.364893 115.444307 
L 363.928771 116.121326 
L 363.906444 116.479807 
L 364.066829 116.767429 
L 364.598475 117.069639 
L 365.256873 117.226186 
L 367.20139 117.379714 
L 371.095317 117.372674 
L 420.29664 116.310336 
L 420.29664 116.310336 
" style="fill:none;stroke:#000000;stroke-linecap:square;stroke-opacity:0.7;stroke-width:1.2;"/>
   </g>
   <g id="line2d_58">
    <path clip-path="url(#pc96b803a7a)" d="M 420.348131 97.154657 
L 410.958123 95.218294 
L 402.632972 93.708937 
L 396.152882 92.739706 
L 390.930761 92.186537 
L 386.553433 91.960403 
L 382.615861 91.97851 
L 378.806183 92.200836 
L 375.10017 92.61934 
L 371.737049 93.211744 
L 369.204812 93.853174 
L 366.873093 94.693009 
L 365.344407 95.483085 
L 364.259937 96.312366 
L 363.770082 96.978764 
L 363.711462 97.372469 
L 363.860459 97.634504 
L 364.352538 97.879594 
L 365.522571 98.04628 
L 367.669971 98.084792 
L 374.303652 97.876586 
L 387.040663 97.472245 
L 394.950267 97.504801 
L 405.388081 97.524279 
L 415.841097 97.308896 
L 420.359116 97.16329 
L 420.359116 97.16329 
" style="fill:none;stroke:#000000;stroke-linecap:square;stroke-opacity:0.7;stroke-width:1.2;"/>
   </g>
   <g id="line2d_59">
    <path clip-path="url(#pc96b803a7a)" d="M 420.319613 78.058655 
L 411.386237 76.218686 
L 402.224442 74.549882 
L 395.640838 73.574458 
L 390.998521 73.100121 
L 387.245549 72.912452 
L 383.361463 72.937527 
L 379.58915 73.176251 
L 375.663109 73.640855 
L 371.773967 74.344275 
L 369.076034 75.037917 
L 366.902616 75.812451 
L 365.177126 76.702116 
L 364.304738 77.391509 
L 363.946519 77.937162 
L 363.959948 78.22042 
L 364.086221 78.372467 
L 364.449661 78.534858 
L 365.539221 78.654005 
L 368.108756 78.574128 
L 383.221524 77.734264 
L 387.959169 77.738862 
L 394.422315 78.001751 
L 402.362182 78.280021 
L 410.14821 78.305577 
L 419.515132 78.103311 
L 420.323406 78.077188 
L 420.323406 78.077188 
" style="fill:none;stroke:#000000;stroke-linecap:square;stroke-opacity:0.7;stroke-width:1.2;"/>
   </g>
   <g id="line2d_60">
    <path clip-path="url(#pc96b803a7a)" d="M 420.350805 58.950072 
L 411.848898 57.217725 
L 403.247523 55.678951 
L 396.902655 54.748015 
L 391.645631 54.191932 
L 387.11888 53.938768 
L 383.319518 53.91874 
L 379.153851 54.106737 
L 375.203258 54.50246 
L 371.995282 55.025175 
L 369.350221 55.664707 
L 367.176913 56.421928 
L 365.907054 57.023459 
L 364.68197 57.815227 
L 364.055694 58.480939 
L 363.999429 58.78015 
L 364.192283 58.95099 
L 364.708026 59.024852 
L 366.290821 58.908025 
L 375.958345 57.857369 
L 380.420069 57.623484 
L 384.333903 57.611082 
L 388.547109 57.832671 
L 404.520018 59.057183 
L 411.152876 59.144061 
L 419.428315 59.000455 
L 420.356873 58.972284 
L 420.356873 58.972284 
" style="fill:none;stroke:#000000;stroke-linecap:square;stroke-opacity:0.7;stroke-width:1.2;"/>
   </g>
   <g id="line2d_61">
    <path clip-path="url(#pc96b803a7a)" d="M 484.172324 230.953483 
L 476.479263 229.059554 
L 469.365336 227.518216 
L 462.857995 226.343164 
L 457.727819 225.645827 
L 453.617914 225.299355 
L 449.780946 225.189331 
L 445.766339 225.302016 
L 441.328247 225.675432 
L 437.232261 226.2545 
L 434.09144 226.911732 
L 431.567706 227.68578 
L 430.162404 228.29268 
L 429.12036 228.888294 
L 428.094397 229.713628 
L 427.489754 230.523827 
L 427.298737 231.113696 
L 427.335464 231.680157 
L 427.761494 232.414233 
L 428.338024 232.91347 
L 429.428821 233.534444 
L 431.093263 234.190621 
L 433.460548 234.861824 
L 436.552315 235.486122 
L 440.045191 235.953284 
L 443.549589 236.202232 
L 446.626138 236.236842 
L 450.138277 236.048971 
L 453.357858 235.658809 
L 457.284793 234.952597 
L 471.027675 232.243613 
L 475.668498 231.641577 
L 481.021665 231.170849 
L 484.177796 230.962926 
L 484.177796 230.962926 
" style="fill:none;stroke:#000000;stroke-linecap:square;stroke-opacity:0.7;stroke-width:1.2;"/>
   </g>
   <g id="line2d_62">
    <path clip-path="url(#pc96b803a7a)" d="M 484.140688 211.847614 
L 475.343987 209.809565 
L 466.924431 208.092952 
L 460.419979 206.98814 
L 455.378927 206.351202 
L 451.216915 206.0451 
L 447.269758 205.978234 
L 443.57117 206.117868 
L 439.588392 206.489119 
L 435.870193 207.079053 
L 433.433545 207.647782 
L 431.620499 208.217946 
L 429.874571 208.960374 
L 428.527824 209.765258 
L 427.525982 210.668472 
L 427.080491 211.373507 
L 426.959968 211.8655 
L 427.074362 212.446536 
L 427.355899 212.828065 
L 428.047055 213.307426 
L 429.463714 213.84536 
L 431.761701 214.372302 
L 434.623366 214.809707 
L 438.594079 215.209353 
L 442.91147 215.443089 
L 447.554123 215.466392 
L 451.985842 215.239517 
L 456.52769 214.759205 
L 474.992231 212.474613 
L 482.79629 211.92207 
L 484.13788 211.841286 
L 484.13788 211.841286 
" style="fill:none;stroke:#000000;stroke-linecap:square;stroke-opacity:0.7;stroke-width:1.2;"/>
   </g>
   <g id="line2d_63">
    <path clip-path="url(#pc96b803a7a)" d="M 484.081707 192.79349 
L 474.298864 190.494586 
L 466.445558 188.84348 
L 460.095985 187.724765 
L 455.254557 187.092259 
L 451.46261 186.801684 
L 448.121773 186.737129 
L 444.76932 186.869322 
L 441.047832 187.245745 
L 437.561718 187.8185 
L 434.192982 188.610328 
L 431.593235 189.466061 
L 430.106646 190.129993 
L 428.779381 190.943845 
L 428.044419 191.60305 
L 427.618343 192.223597 
L 427.484167 192.798469 
L 427.622598 193.269711 
L 427.921125 193.608746 
L 428.439622 193.936806 
L 429.364519 194.291137 
L 431.328118 194.735888 
L 434.646052 195.170105 
L 438.981886 195.486698 
L 443.67438 195.628726 
L 449.150219 195.553303 
L 454.412566 195.217615 
L 460.670967 194.56365 
L 470.447682 193.548711 
L 477.134804 193.088895 
L 484.081406 192.779649 
L 484.081406 192.779649 
" style="fill:none;stroke:#000000;stroke-linecap:square;stroke-opacity:0.7;stroke-width:1.2;"/>
   </g>
   <g id="line2d_64">
    <path clip-path="url(#pc96b803a7a)" d="M 484.148876 173.66183 
L 473.556619 171.284834 
L 465.232953 169.605385 
L 459.324979 168.620741 
L 454.792879 168.09262 
L 450.871943 167.870436 
L 447.104401 167.889333 
L 442.883021 168.169955 
L 439.382945 168.600513 
L 435.626339 169.289983 
L 432.735695 170.062089 
L 430.681125 170.851618 
L 429.22592 171.659041 
L 428.25264 172.465441 
L 427.722523 173.226093 
L 427.615738 173.674955 
L 427.720261 174.093244 
L 427.954895 174.365896 
L 428.522421 174.690284 
L 429.652267 175.019319 
L 431.635551 175.330011 
L 435.267346 175.637202 
L 440.752756 175.848891 
L 446.965672 175.851356 
L 453.123064 175.604447 
L 461.243323 174.987051 
L 471.786248 174.226598 
L 482.645824 173.703928 
L 484.160757 173.64231 
L 484.160757 173.64231 
" style="fill:none;stroke:#000000;stroke-linecap:square;stroke-opacity:0.7;stroke-width:1.2;"/>
   </g>
   <g id="line2d_65">
    <path clip-path="url(#pc96b803a7a)" d="M 484.145178 154.490975 
L 475.094754 152.451368 
L 466.98519 150.816479 
L 460.47845 149.708568 
L 455.657133 149.09709 
L 451.757135 148.805409 
L 447.927373 148.739197 
L 444.003881 148.907928 
L 440.255533 149.28766 
L 436.582427 149.881107 
L 433.459121 150.615569 
L 431.114424 151.398193 
L 429.781549 152.00225 
L 428.367004 152.903318 
L 427.592057 153.720087 
L 427.361915 154.293335 
L 427.43087 154.720893 
L 427.751126 155.076703 
L 428.402416 155.390564 
L 429.687499 155.690453 
L 432.440633 155.988027 
L 437.088049 156.208917 
L 444.316984 156.305201 
L 451.552529 156.174198 
L 458.150447 155.824502 
L 475.0758 154.785742 
L 484.139429 154.505098 
L 484.139429 154.505098 
" style="fill:none;stroke:#000000;stroke-linecap:square;stroke-opacity:0.7;stroke-width:1.2;"/>
   </g>
   <g id="line2d_66">
    <path clip-path="url(#pc96b803a7a)" d="M 484.128622 135.35582 
L 475.248805 133.339025 
L 466.976622 131.685732 
L 460.373561 130.594621 
L 455.236541 129.983235 
L 451.094256 129.723463 
L 446.838374 129.725193 
L 443.05506 129.960908 
L 439.290241 130.411174 
L 436.070019 130.990626 
L 433.111183 131.752305 
L 431.152322 132.460073 
L 429.516529 133.278067 
L 428.319908 134.145286 
L 427.735423 134.813948 
L 427.526147 135.37178 
L 427.56257 135.635674 
L 427.82028 135.960077 
L 428.213639 136.169679 
L 429.068069 136.395749 
L 430.969026 136.608355 
L 435.004284 136.743028 
L 442.563697 136.714103 
L 454.196353 136.430075 
L 484.125779 135.382188 
L 484.125779 135.382188 
" style="fill:none;stroke:#000000;stroke-linecap:square;stroke-opacity:0.7;stroke-width:1.2;"/>
   </g>
   <g id="line2d_67">
    <path clip-path="url(#pc96b803a7a)" d="M 484.063799 116.367148 
L 470.877479 113.544461 
L 461.844104 111.792809 
L 455.957597 110.873576 
L 451.989324 110.467499 
L 448.083574 110.316882 
L 444.36507 110.436018 
L 441.02584 110.762901 
L 437.315436 111.37489 
L 434.559508 112.02836 
L 432.142377 112.802891 
L 430.64398 113.435699 
L 429.102202 114.314988 
L 428.06872 115.213033 
L 427.634569 115.977822 
L 427.668455 116.433388 
L 427.98559 116.768744 
L 428.653131 117.021862 
L 429.745236 117.184576 
L 431.991062 117.280585 
L 438.18254 117.225323 
L 484.061357 116.392291 
L 484.061357 116.392291 
" style="fill:none;stroke:#000000;stroke-linecap:square;stroke-opacity:0.7;stroke-width:1.2;"/>
   </g>
   <g id="line2d_68">
    <path clip-path="url(#pc96b803a7a)" d="M 484.168672 97.077976 
L 476.563953 95.346951 
L 467.982148 93.616593 
L 460.852625 92.409671 
L 455.64985 91.75411 
L 451.218469 91.429966 
L 447.454527 91.366507 
L 444.048851 91.491452 
L 440.546134 91.812093 
L 437.414641 92.286996 
L 434.407146 92.96138 
L 432.131451 93.68196 
L 430.077126 94.59385 
L 428.665254 95.492935 
L 427.791501 96.333854 
L 427.481106 96.885037 
L 427.475912 97.31361 
L 427.718657 97.597204 
L 428.183909 97.791347 
L 429.425376 97.965547 
L 432.142652 98.011554 
L 439.206632 97.820049 
L 450.119256 97.566515 
L 478.828669 97.261775 
L 484.163377 97.095504 
L 484.163377 97.095504 
" style="fill:none;stroke:#000000;stroke-linecap:square;stroke-opacity:0.7;stroke-width:1.2;"/>
   </g>
   <g id="line2d_69">
    <path clip-path="url(#pc96b803a7a)" d="M 484.138567 78.001216 
L 476.770797 76.306395 
L 469.319859 74.800159 
L 462.64956 73.664053 
L 457.514018 72.989432 
L 453.026024 72.615665 
L 449.185398 72.501527 
L 445.192771 72.600452 
L 441.697893 72.874042 
L 438.411538 73.312133 
L 435.445522 73.907151 
L 432.661529 74.725573 
L 430.935203 75.428106 
L 429.409245 76.249578 
L 428.304532 77.071889 
L 427.774602 77.729428 
L 427.753217 78.103595 
L 428.050232 78.327177 
L 428.836379 78.458112 
L 430.613603 78.443798 
L 438.051669 77.956743 
L 444.744587 77.631128 
L 449.920475 77.585726 
L 454.97914 77.762291 
L 466.355735 78.258065 
L 473.337424 78.288723 
L 482.042868 78.097167 
L 484.137832 78.025873 
L 484.137832 78.025873 
" style="fill:none;stroke:#000000;stroke-linecap:square;stroke-opacity:0.7;stroke-width:1.2;"/>
   </g>
   <g id="line2d_70">
    <path clip-path="url(#pc96b803a7a)" d="M 484.126597 58.893608 
L 475.098 56.926748 
L 466.071643 55.177772 
L 460.24037 54.240583 
L 455.746443 53.70821 
L 451.837415 53.444414 
L 447.798979 53.402916 
L 443.876574 53.588978 
L 440.183403 53.964313 
L 436.42427 54.57449 
L 433.463005 55.291953 
L 431.156667 56.104581 
L 429.432917 56.986636 
L 428.394769 57.760677 
L 427.856981 58.454849 
L 427.858561 58.715619 
L 428.084098 58.865267 
L 428.694233 58.916612 
L 430.9689 58.704757 
L 438.193256 57.968784 
L 443.269389 57.684907 
L 447.539094 57.652136 
L 451.639432 57.838448 
L 457.768611 58.400872 
L 464.392871 58.930261 
L 470.079639 59.136462 
L 476.508471 59.130659 
L 484.136221 58.907355 
L 484.136221 58.907355 
" style="fill:none;stroke:#000000;stroke-linecap:square;stroke-opacity:0.7;stroke-width:1.2;"/>
   </g>
   <g id="line2d_71">
    <path clip-path="url(#pc96b803a7a)" d="M 547.958715 230.975566 
L 538.601663 228.489604 
L 531.00712 226.681519 
L 525.188771 225.52135 
L 520.461852 224.811421 
L 516.497899 224.442224 
L 512.578105 224.321145 
L 509.172816 224.422442 
L 505.405742 224.756817 
L 501.737606 225.319169 
L 498.585538 226.034787 
L 496.169714 226.80162 
L 494.61596 227.459859 
L 493.232845 228.235169 
L 491.998199 229.230247 
L 491.373873 230.026348 
L 491.104098 230.633848 
L 491.031045 231.318283 
L 491.21638 231.947065 
L 491.546087 232.416384 
L 492.346622 233.074627 
L 493.306208 233.592613 
L 495.321096 234.345229 
L 497.964602 235.02894 
L 500.885539 235.563997 
L 504.671582 236.008677 
L 508.12034 236.192753 
L 511.306018 236.168525 
L 514.543139 235.938827 
L 517.873955 235.490146 
L 522.62946 234.576455 
L 532.662929 232.541739 
L 537.51086 231.826816 
L 542.631589 231.313634 
L 547.957949 230.958748 
L 547.957949 230.958748 
" style="fill:none;stroke:#000000;stroke-linecap:square;stroke-opacity:0.7;stroke-width:1.2;"/>
   </g>
   <g id="line2d_72">
    <path clip-path="url(#pc96b803a7a)" d="M 547.895534 211.866233 
L 538.833461 209.432694 
L 531.61775 207.719992 
L 525.792052 206.578047 
L 521.244523 205.902398 
L 516.922658 205.497846 
L 513.094256 205.375213 
L 509.441296 205.479856 
L 505.432978 205.844155 
L 501.804244 206.414372 
L 498.647356 207.148321 
L 496.107313 207.984292 
L 494.542331 208.677847 
L 493.003223 209.5984 
L 491.92279 210.559444 
L 491.489686 211.189819 
L 491.295286 211.872248 
L 491.38295 212.395173 
L 491.644366 212.816301 
L 492.340309 213.380218 
L 493.432269 213.899882 
L 495.610702 214.555488 
L 498.10944 215.06243 
L 501.784992 215.569842 
L 506.052714 215.911554 
L 510.020212 216.010422 
L 514.03564 215.874195 
L 517.794194 215.514102 
L 522.409958 214.82617 
L 533.257913 213.091863 
L 538.889695 212.468295 
L 545.216514 212.013861 
L 547.893544 211.866056 
L 547.893544 211.866056 
" style="fill:none;stroke:#000000;stroke-linecap:square;stroke-opacity:0.7;stroke-width:1.2;"/>
   </g>
   <g id="line2d_73">
    <path clip-path="url(#pc96b803a7a)" d="M 547.86504 192.746785 
L 539.150547 190.392265 
L 531.931922 188.636048 
L 526.145799 187.426021 
L 521.346889 186.629841 
L 517.48959 186.189933 
L 513.630466 185.987937 
L 510.716018 186.01922 
L 506.874966 186.315624 
L 503.851368 186.756246 
L 500.63876 187.43907 
L 497.592041 188.340228 
L 495.338632 189.246634 
L 493.550924 190.230054 
L 492.346549 191.179598 
L 491.606071 192.14644 
L 491.426074 192.746072 
L 491.495291 193.238925 
L 491.821156 193.700057 
L 492.436171 194.10952 
L 493.405933 194.483206 
L 495.849953 195.02023 
L 499.454405 195.476074 
L 503.778771 195.798515 
L 509.086106 195.960796 
L 513.721965 195.881709 
L 518.083807 195.587668 
L 523.462688 194.97885 
L 534.955314 193.600671 
L 541.496468 193.089741 
L 547.846869 192.763911 
L 547.846869 192.763911 
" style="fill:none;stroke:#000000;stroke-linecap:square;stroke-opacity:0.7;stroke-width:1.2;"/>
   </g>
   <g id="line2d_74">
    <path clip-path="url(#pc96b803a7a)" d="M 547.870728 173.706751 
L 537.290082 170.947325 
L 529.807272 169.225914 
L 524.121464 168.142541 
L 519.362695 167.470707 
L 515.43102 167.14892 
L 511.632535 167.08922 
L 507.846417 167.292398 
L 504.392039 167.703252 
L 501.231011 168.276521 
L 498.582872 168.937004 
L 496.099282 169.78066 
L 494.115128 170.721027 
L 492.939229 171.481396 
L 491.830418 172.512532 
L 491.416624 173.171409 
L 491.303863 173.704963 
L 491.456693 174.160635 
L 491.964833 174.579376 
L 492.843438 174.911073 
L 494.510885 175.24233 
L 497.684955 175.579224 
L 502.41444 175.83897 
L 508.366795 175.939868 
L 514.053898 175.810863 
L 519.751031 175.442639 
L 536.189525 174.172101 
L 545.826598 173.779561 
L 547.867783 173.714479 
L 547.867783 173.714479 
" style="fill:none;stroke:#000000;stroke-linecap:square;stroke-opacity:0.7;stroke-width:1.2;"/>
   </g>
   <g id="line2d_75">
    <path clip-path="url(#pc96b803a7a)" d="M 547.904687 154.413417 
L 539.833449 152.348416 
L 531.921703 150.533462 
L 525.904876 149.363729 
L 521.58921 148.714183 
L 517.417111 148.314152 
L 513.962447 148.196791 
L 510.288237 148.300099 
L 506.711601 148.617912 
L 503.218294 149.126624 
L 499.80301 149.831044 
L 497.110986 150.585261 
L 494.776066 151.488482 
L 493.412129 152.219633 
L 492.411863 152.950487 
L 491.645251 153.817444 
L 491.436541 154.365045 
L 491.476618 154.723901 
L 491.774091 155.096907 
L 492.285255 155.369718 
L 493.443978 155.677615 
L 495.50884 155.946657 
L 499.45003 156.178416 
L 505.144182 156.273279 
L 512.157396 156.168449 
L 519.892708 155.813017 
L 540.226438 154.70668 
L 547.896263 154.414869 
L 547.896263 154.414869 
" style="fill:none;stroke:#000000;stroke-linecap:square;stroke-opacity:0.7;stroke-width:1.2;"/>
   </g>
   <g id="line2d_76">
    <path clip-path="url(#pc96b803a7a)" d="M 547.874008 135.354805 
L 537.973915 132.903754 
L 529.760747 131.088023 
L 524.160304 130.042929 
L 519.431331 129.37311 
L 515.471261 129.039385 
L 511.892741 128.964152 
L 508.440631 129.111787 
L 504.655728 129.521304 
L 501.163777 130.13546 
L 498.3671 130.82243 
L 495.751599 131.69711 
L 493.940467 132.533662 
L 492.514402 133.470199 
L 491.764139 134.205684 
L 491.33775 134.934509 
L 491.276172 135.408529 
L 491.44197 135.805896 
L 492.011251 136.19134 
L 492.973439 136.440174 
L 495.19591 136.638786 
L 499.565811 136.704568 
L 510.820671 136.566266 
L 522.442675 136.257433 
L 545.726849 135.417089 
L 547.868276 135.370515 
L 547.868276 135.370515 
" style="fill:none;stroke:#000000;stroke-linecap:square;stroke-opacity:0.7;stroke-width:1.2;"/>
   </g>
   <g id="line2d_77">
    <path clip-path="url(#pc96b803a7a)" d="M 547.940434 116.229872 
L 540.191799 114.283623 
L 532.560434 112.555612 
L 526.175441 111.306883 
L 520.989274 110.511061 
L 517.033712 110.104339 
L 512.938355 109.916121 
L 508.83007 109.987055 
L 505.264089 110.267806 
L 501.917995 110.73835 
L 498.836666 111.40146 
L 496.42602 112.150133 
L 494.427065 113.026384 
L 493.018788 113.894976 
L 491.936112 114.88088 
L 491.426228 115.718112 
L 491.364699 116.249321 
L 491.528965 116.602011 
L 491.920547 116.88213 
L 492.885471 117.130355 
L 494.613512 117.249566 
L 499.2887 117.227238 
L 547.926829 116.245821 
L 547.926829 116.245821 
" style="fill:none;stroke:#000000;stroke-linecap:square;stroke-opacity:0.7;stroke-width:1.2;"/>
   </g>
   <g id="line2d_78">
    <path clip-path="url(#pc96b803a7a)" d="M 547.890907 97.03723 
L 539.522225 94.850525 
L 532.582381 93.253626 
L 526.678217 92.113746 
L 521.380228 91.332174 
L 517.079359 90.935673 
L 513.111294 90.816766 
L 509.759784 90.923629 
L 505.88606 91.287291 
L 502.18261 91.881403 
L 499.178707 92.569399 
L 496.886111 93.263552 
L 494.525332 94.217537 
L 493.023125 95.043089 
L 491.855861 95.940848 
L 491.296324 96.63718 
L 491.159253 97.09242 
L 491.283604 97.44363 
L 491.604818 97.672217 
L 492.105535 97.827288 
L 493.509386 97.970955 
L 496.32756 97.958445 
L 505.264511 97.559623 
L 513.060638 97.317997 
L 519.489239 97.344255 
L 531.567358 97.442574 
L 541.793867 97.257112 
L 547.873433 97.067441 
L 547.873433 97.067441 
" style="fill:none;stroke:#000000;stroke-linecap:square;stroke-opacity:0.7;stroke-width:1.2;"/>
   </g>
   <g id="line2d_79">
    <path clip-path="url(#pc96b803a7a)" d="M 547.942216 77.90721 
L 541.738765 76.306488 
L 534.820622 74.754683 
L 528.868111 73.634545 
L 523.17269 72.791515 
L 518.826377 72.34644 
L 514.366119 72.113962 
L 510.300411 72.113297 
L 506.097297 72.321871 
L 502.258925 72.723851 
L 499.435857 73.208131 
L 496.936803 73.861377 
L 494.974515 74.613937 
L 493.35304 75.481469 
L 491.91631 76.573084 
L 491.301771 77.30029 
L 491.140017 77.83288 
L 491.279037 78.09523 
L 491.541069 78.246841 
L 492.022923 78.366065 
L 493.502217 78.451415 
L 496.794475 78.344626 
L 511.348129 77.671668 
L 516.588519 77.718688 
L 534.571922 78.296168 
L 541.965774 78.164953 
L 547.938823 77.931059 
L 547.938823 77.931059 
" style="fill:none;stroke:#000000;stroke-linecap:square;stroke-opacity:0.7;stroke-width:1.2;"/>
   </g>
   <g id="line2d_80">
    <path clip-path="url(#pc96b803a7a)" d="M 547.85914 58.890585 
L 539.133073 56.726527 
L 531.290503 55.002226 
L 524.555909 53.746793 
L 519.968108 53.080147 
L 515.908512 52.692685 
L 511.968666 52.563639 
L 508.743549 52.665496 
L 505.616623 52.948084 
L 502.222728 53.467209 
L 499.680663 54.022852 
L 497.100513 54.786098 
L 494.999552 55.641758 
L 493.297499 56.618834 
L 492.336039 57.405545 
L 491.755086 58.141248 
L 491.652233 58.600243 
L 491.782749 58.781928 
L 492.229455 58.906392 
L 493.491078 58.863083 
L 506.078553 57.665361 
L 510.197259 57.564514 
L 513.993459 57.67792 
L 518.855443 58.082239 
L 527.263228 58.823513 
L 532.996835 59.061644 
L 539.426697 59.08977 
L 547.852023 58.900285 
L 547.852023 58.900285 
" style="fill:none;stroke:#000000;stroke-linecap:square;stroke-opacity:0.7;stroke-width:1.2;"/>
   </g>
   <g id="line2d_81">
    <path clip-path="url(#pc96b803a7a)" d="M 611.649806 230.96511 
L 603.694621 228.483558 
L 596.165252 226.346496 
L 590.473972 224.959496 
L 585.86628 224.066679 
L 581.816797 223.528035 
L 578.643361 223.314255 
L 575.12554 223.324145 
L 571.998755 223.558695 
L 568.824292 224.009613 
L 565.857806 224.624203 
L 563.296984 225.319906 
L 560.704688 226.227917 
L 558.785503 227.107834 
L 557.128078 228.139573 
L 556.342101 228.806853 
L 555.633644 229.642175 
L 555.201675 230.523849 
L 555.109787 231.278082 
L 555.278623 231.916156 
L 555.577759 232.370929 
L 556.207486 232.925722 
L 557.192967 233.471096 
L 558.66064 234.0225 
L 561.154288 234.666476 
L 564.056217 235.183812 
L 567.721896 235.610198 
L 571.707739 235.832731 
L 575.265053 235.814604 
L 579.011119 235.553281 
L 582.851431 235.033177 
L 588.174822 234.039331 
L 596.215118 232.52802 
L 600.899712 231.855533 
L 606.275784 231.31668 
L 611.64378 230.951443 
L 611.64378 230.951443 
" style="fill:none;stroke:#000000;stroke-linecap:square;stroke-opacity:0.7;stroke-width:1.2;"/>
   </g>
   <g id="line2d_82">
    <path clip-path="url(#pc96b803a7a)" d="M 611.620974 211.810819 
L 602.860261 209.131552 
L 595.881075 207.211345 
L 590.332669 205.900362 
L 585.701206 205.022844 
L 581.896429 204.511888 
L 578.020946 204.250219 
L 574.580742 204.274831 
L 571.541623 204.505279 
L 568.139741 204.989247 
L 565.171326 205.608107 
L 562.265608 206.419778 
L 560.05226 207.227735 
L 557.927835 208.259548 
L 556.592296 209.141443 
L 555.41539 210.25099 
L 554.841968 211.14724 
L 554.654827 211.940674 
L 554.70466 212.317765 
L 554.924948 212.764009 
L 555.423832 213.235959 
L 556.155642 213.638745 
L 557.858081 214.206627 
L 560.442125 214.743647 
L 564.396408 215.271345 
L 569.072203 215.632133 
L 573.043934 215.745892 
L 577.203359 215.653877 
L 581.303795 215.324963 
L 585.889393 214.7155 
L 598.720192 212.836195 
L 604.431025 212.288509 
L 611.607998 211.835042 
L 611.607998 211.835042 
" style="fill:none;stroke:#000000;stroke-linecap:square;stroke-opacity:0.7;stroke-width:1.2;"/>
   </g>
   <g id="line2d_83">
    <path clip-path="url(#pc96b803a7a)" d="M 611.720617 192.671585 
L 604.598674 190.526832 
L 597.515942 188.610341 
L 591.789767 187.282918 
L 586.775432 186.355858 
L 582.880689 185.843386 
L 578.981811 185.558893 
L 575.523118 185.518616 
L 572.183486 185.671077 
L 568.451098 186.06361 
L 565.220825 186.610839 
L 562.31674 187.317137 
L 560.013294 188.095505 
L 558.214958 188.922166 
L 556.838697 189.772912 
L 556.021788 190.432749 
L 555.250603 191.275203 
L 554.763519 192.205155 
L 554.701296 192.594513 
L 554.846475 193.183353 
L 555.044293 193.442049 
L 555.793662 193.932382 
L 557.149802 194.371134 
L 559.412123 194.782924 
L 563.182292 195.189042 
L 568.297319 195.494833 
L 573.802048 195.593365 
L 578.969446 195.44042 
L 584.13048 195.028124 
L 603.876269 193.107179 
L 611.71745 192.671884 
L 611.71745 192.671884 
" style="fill:none;stroke:#000000;stroke-linecap:square;stroke-opacity:0.7;stroke-width:1.2;"/>
   </g>
   <g id="line2d_84">
    <path clip-path="url(#pc96b803a7a)" d="M 611.62816 173.594021 
L 602.042423 170.88286 
L 594.551678 168.94772 
L 588.998713 167.715565 
L 584.879801 166.987954 
L 580.690445 166.484623 
L 577.295807 166.297096 
L 573.688096 166.337685 
L 570.193595 166.616777 
L 566.950029 167.092314 
L 563.786927 167.785113 
L 561.108049 168.608714 
L 559.248076 169.372526 
L 557.531988 170.302391 
L 556.228663 171.26125 
L 555.300991 172.246434 
L 554.847083 173.123134 
L 554.810472 173.679163 
L 554.952464 174.039945 
L 555.260281 174.365932 
L 555.700072 174.627527 
L 556.555967 174.929839 
L 558.003309 175.225778 
L 561.298292 175.580005 
L 566.075796 175.817168 
L 572.045734 175.887836 
L 577.665498 175.759369 
L 583.733574 175.386459 
L 602.796824 173.943776 
L 611.62828 173.602495 
L 611.62828 173.602495 
" style="fill:none;stroke:#000000;stroke-linecap:square;stroke-opacity:0.7;stroke-width:1.2;"/>
   </g>
   <g id="line2d_85">
    <path clip-path="url(#pc96b803a7a)" d="M 611.672191 154.428874 
L 603.416583 152.025766 
L 595.918768 150.05767 
L 590.063102 148.754082 
L 585.518122 147.971806 
L 581.952244 147.557983 
L 578.119712 147.353928 
L 574.411077 147.409121 
L 570.896077 147.685021 
L 567.146042 148.216237 
L 563.693299 148.950793 
L 561.36624 149.628969 
L 559.368226 150.398339 
L 557.739364 151.238761 
L 556.464195 152.135995 
L 555.506587 153.116342 
L 555.137372 153.72729 
L 554.996512 154.271819 
L 555.069363 154.688343 
L 555.275147 154.981793 
L 555.710929 155.281095 
L 556.401329 155.536885 
L 558.086906 155.854558 
L 561.086411 156.114038 
L 566.090045 156.280528 
L 572.851355 156.260475 
L 579.766733 156.006367 
L 610.062123 154.480705 
L 611.673087 154.429007 
L 611.673087 154.429007 
" style="fill:none;stroke:#000000;stroke-linecap:square;stroke-opacity:0.7;stroke-width:1.2;"/>
   </g>
   <g id="line2d_86">
    <path clip-path="url(#pc96b803a7a)" d="M 611.695554 135.337354 
L 603.586934 132.964016 
L 596.338137 131.05667 
L 590.642928 129.776984 
L 585.976306 128.941997 
L 582.005892 128.441727 
L 578.305577 128.196536 
L 575.075195 128.180481 
L 571.742538 128.366483 
L 568.58845 128.738077 
L 565.434916 129.319612 
L 562.449796 130.115512 
L 560.319902 130.894934 
L 558.961044 131.531662 
L 557.407166 132.469272 
L 556.133185 133.538822 
L 555.321213 134.645517 
L 555.16136 135.326353 
L 555.272679 135.691787 
L 555.552534 135.977848 
L 556.028363 136.209012 
L 557.313377 136.480531 
L 559.563874 136.655648 
L 564.471483 136.751946 
L 573.155164 136.66314 
L 582.221723 136.34934 
L 600.938819 135.597485 
L 611.69538 135.337624 
L 611.69538 135.337624 
" style="fill:none;stroke:#000000;stroke-linecap:square;stroke-opacity:0.7;stroke-width:1.2;"/>
   </g>
   <g id="line2d_87">
    <path clip-path="url(#pc96b803a7a)" d="M 611.668354 116.211076 
L 603.824577 113.973249 
L 596.586423 112.120166 
L 590.594895 110.802646 
L 585.532209 109.933444 
L 581.661628 109.495339 
L 577.840609 109.306872 
L 573.891494 109.380091 
L 570.201442 109.683508 
L 566.497069 110.219768 
L 563.508361 110.863548 
L 560.997965 111.627516 
L 559.176384 112.385248 
L 557.61722 113.245444 
L 556.465252 114.080513 
L 555.439788 115.127081 
L 555.05635 115.809272 
L 554.999557 116.275753 
L 555.238858 116.698687 
L 555.620537 116.923567 
L 556.653897 117.168706 
L 558.55275 117.297487 
L 563.112465 117.265548 
L 600.414088 116.443844 
L 611.66414 116.235621 
L 611.66414 116.235621 
" style="fill:none;stroke:#000000;stroke-linecap:square;stroke-opacity:0.7;stroke-width:1.2;"/>
   </g>
   <g id="line2d_88">
    <path clip-path="url(#pc96b803a7a)" d="M 611.613559 97.130918 
L 602.407915 94.507312 
L 594.595695 92.492257 
L 589.014716 91.26402 
L 584.293826 90.460107 
L 580.398184 90.036625 
L 576.731285 89.889359 
L 573.20256 89.99873 
L 569.925357 90.320028 
L 566.400892 90.902453 
L 563.461601 91.600063 
L 561.071827 92.357986 
L 558.908985 93.274365 
L 557.529718 94.050664 
L 556.277669 94.996371 
L 555.663455 95.628349 
L 555.074507 96.590714 
L 554.999561 97.092549 
L 555.136897 97.431534 
L 555.601524 97.727195 
L 556.584352 97.90356 
L 558.791598 97.933808 
L 565.2514 97.650865 
L 574.681979 97.292729 
L 581.05004 97.274197 
L 598.442472 97.430341 
L 609.522649 97.195165 
L 611.618939 97.129254 
L 611.618939 97.129254 
" style="fill:none;stroke:#000000;stroke-linecap:square;stroke-opacity:0.7;stroke-width:1.2;"/>
   </g>
   <g id="line2d_89">
    <path clip-path="url(#pc96b803a7a)" d="M 611.659212 78.011983 
L 603.976797 75.81654 
L 596.465466 73.871058 
L 590.296853 72.498917 
L 585.953733 71.73266 
L 581.96332 71.243034 
L 578.779805 71.037708 
L 575.41238 71.018739 
L 571.750343 71.231952 
L 567.916126 71.716624 
L 564.862376 72.315824 
L 562.057265 73.090586 
L 560.048148 73.846426 
L 558.11676 74.830726 
L 556.911749 75.654005 
L 555.775552 76.738793 
L 555.351092 77.465271 
L 555.348925 77.885861 
L 555.514919 78.094841 
L 556.065107 78.307594 
L 557.236915 78.400953 
L 559.878824 78.311479 
L 572.064282 77.69476 
L 577.895196 77.673901 
L 585.91987 77.942594 
L 594.728339 78.179663 
L 603.589273 78.17973 
L 611.662201 78.021485 
L 611.662201 78.021485 
" style="fill:none;stroke:#000000;stroke-linecap:square;stroke-opacity:0.7;stroke-width:1.2;"/>
   </g>
   <g id="line2d_90">
    <path clip-path="url(#pc96b803a7a)" d="M 611.692777 58.81115 
L 604.856232 56.866333 
L 597.953654 55.11993 
L 592.260257 53.88853 
L 587.236793 53.01578 
L 582.73156 52.459393 
L 578.693453 52.184295 
L 574.757455 52.138837 
L 571.058326 52.302561 
L 567.508729 52.665612 
L 564.403826 53.193236 
L 561.829259 53.847314 
L 559.635561 54.644159 
L 558.091492 55.40558 
L 556.800268 56.23662 
L 555.569174 57.333784 
L 555.045749 58.119286 
L 555.003899 58.518943 
L 555.172209 58.730861 
L 555.44759 58.835173 
L 556.344959 58.878517 
L 558.609295 58.653165 
L 566.6403 57.761297 
L 571.449384 57.480007 
L 575.584147 57.469172 
L 578.877391 57.642073 
L 584.336257 58.182936 
L 590.493751 58.758814 
L 595.696284 59.02172 
L 601.946334 59.087269 
L 609.815783 58.908214 
L 611.686149 58.835751 
L 611.686149 58.835751 
" style="fill:none;stroke:#000000;stroke-linecap:square;stroke-opacity:0.7;stroke-width:1.2;"/>
   </g>
   <g id="line2d_91">
    <path clip-path="url(#pc96b803a7a)" d="M 675.438287 230.947129 
L 667.789882 228.223132 
L 661.060234 226.032618 
L 656.008817 224.596086 
L 651.610664 223.555615 
L 647.556643 222.828356 
L 644.512781 222.464787 
L 641.362726 222.278632 
L 638.251171 222.297209 
L 634.895275 222.548206 
L 631.965394 222.97108 
L 628.883842 223.648922 
L 626.462724 224.396427 
L 624.023673 225.430107 
L 622.409957 226.353632 
L 620.802341 227.595145 
L 619.87667 228.575308 
L 619.277314 229.441551 
L 618.909305 230.242714 
L 618.748476 231.134556 
L 618.881173 231.873475 
L 619.20528 232.429549 
L 619.74022 232.944714 
L 620.75834 233.55486 
L 622.271912 234.151085 
L 624.506281 234.757224 
L 627.605892 235.330715 
L 631.261069 235.756489 
L 635.071538 235.965323 
L 638.949978 235.928948 
L 642.123487 235.693407 
L 645.465412 235.243671 
L 650.630643 234.271275 
L 659.082694 232.663645 
L 664.498949 231.89553 
L 670.137746 231.334241 
L 675.444853 230.941404 
L 675.444853 230.941404 
" style="fill:none;stroke:#000000;stroke-linecap:square;stroke-opacity:0.7;stroke-width:1.2;"/>
   </g>
   <g id="line2d_92">
    <path clip-path="url(#pc96b803a7a)" d="M 675.482167 211.733175 
L 668.960724 209.308622 
L 662.554848 207.146774 
L 657.095992 205.552732 
L 652.664646 204.488651 
L 648.912228 203.791268 
L 645.077466 203.31342 
L 641.662054 203.119556 
L 638.639127 203.146804 
L 635.223775 203.412986 
L 632.040584 203.89853 
L 628.903412 204.630887 
L 626.528465 205.394015 
L 624.31195 206.329272 
L 622.586762 207.274084 
L 621.07633 208.345717 
L 619.897361 209.460899 
L 619.134982 210.478717 
L 618.705347 211.514571 
L 618.705958 212.252795 
L 618.894327 212.683233 
L 619.392742 213.188045 
L 620.140378 213.60794 
L 621.600671 214.110588 
L 623.620221 214.561838 
L 627.020521 215.060108 
L 631.342881 215.434642 
L 635.896261 215.59075 
L 640.485034 215.497469 
L 644.571074 215.185536 
L 649.962502 214.503141 
L 662.57779 212.785549 
L 669.213053 212.170234 
L 675.478412 211.72961 
L 675.478412 211.72961 
" style="fill:none;stroke:#000000;stroke-linecap:square;stroke-opacity:0.7;stroke-width:1.2;"/>
   </g>
   <g id="line2d_93">
    <path clip-path="url(#pc96b803a7a)" d="M 675.463493 192.629216 
L 668.597121 190.07822 
L 662.605784 188.075248 
L 657.704393 186.653141 
L 653.255279 185.581266 
L 649.444875 184.868267 
L 645.758003 184.39799 
L 642.2671 184.185959 
L 639.235739 184.203385 
L 635.92549 184.44361 
L 632.676112 184.909153 
L 629.562582 185.586955 
L 627.088168 186.32052 
L 624.714115 187.244049 
L 622.96092 188.126889 
L 621.341437 189.182399 
L 620.065503 190.303797 
L 619.330915 191.2128 
L 618.863381 192.228765 
L 618.824411 192.762961 
L 619.023013 193.303031 
L 619.434045 193.711291 
L 620.093231 194.067435 
L 621.641458 194.534229 
L 624.032614 194.947435 
L 627.69902 195.327816 
L 632.407209 195.593262 
L 637.610287 195.665719 
L 642.292494 195.517973 
L 647.358158 195.115784 
L 668.551301 193.045785 
L 675.456024 192.634154 
L 675.456024 192.634154 
" style="fill:none;stroke:#000000;stroke-linecap:square;stroke-opacity:0.7;stroke-width:1.2;"/>
   </g>
   <g id="line2d_94">
    <path clip-path="url(#pc96b803a7a)" d="M 675.468524 173.493923 
L 668.97291 171.181391 
L 662.56254 169.116165 
L 657.421939 167.664888 
L 652.784851 166.567948 
L 648.966888 165.864166 
L 645.134339 165.390235 
L 641.963896 165.206688 
L 638.522996 165.239199 
L 635.371718 165.485407 
L 632.203117 165.949526 
L 629.289831 166.592611 
L 626.742626 167.370149 
L 624.490093 168.28989 
L 622.779911 169.195909 
L 621.231826 170.242928 
L 619.942578 171.384961 
L 619.109709 172.42575 
L 618.767693 173.179504 
L 618.733897 173.671476 
L 618.849975 174.001976 
L 619.152603 174.33796 
L 619.861182 174.715132 
L 621.017591 175.041384 
L 623.032009 175.361743 
L 626.787882 175.678524 
L 632.164828 175.869305 
L 638.26925 175.849525 
L 643.797631 175.618926 
L 650.596325 175.096326 
L 662.430515 174.174261 
L 673.219476 173.608046 
L 675.473347 173.50261 
L 675.473347 173.50261 
" style="fill:none;stroke:#000000;stroke-linecap:square;stroke-opacity:0.7;stroke-width:1.2;"/>
   </g>
   <g id="line2d_95">
    <path clip-path="url(#pc96b803a7a)" d="M 675.398243 154.485656 
L 667.776619 151.824856 
L 661.018819 149.693299 
L 655.169389 148.089546 
L 650.608415 147.059319 
L 646.503258 146.366179 
L 643.003779 146.00952 
L 639.602494 145.913738 
L 636.301437 146.079565 
L 633.158478 146.481976 
L 630.273944 147.07113 
L 628.091695 147.674272 
L 625.613971 148.565776 
L 623.59659 149.516801 
L 622.023969 150.468814 
L 620.496159 151.682513 
L 619.642873 152.592694 
L 619.013657 153.576302 
L 618.823273 154.321537 
L 618.87565 154.65698 
L 619.072623 154.983465 
L 619.502964 155.299861 
L 620.470649 155.633582 
L 622.326861 155.925595 
L 625.486862 156.146444 
L 630.849679 156.276436 
L 638.501401 156.219137 
L 645.396282 155.949275 
L 671.370496 154.603684 
L 675.399977 154.486031 
L 675.399977 154.486031 
" style="fill:none;stroke:#000000;stroke-linecap:square;stroke-opacity:0.7;stroke-width:1.2;"/>
   </g>
   <g id="line2d_96">
    <path clip-path="url(#pc96b803a7a)" d="M 675.488761 135.314061 
L 668.518536 132.89625 
L 661.911124 130.81812 
L 656.020299 129.197246 
L 651.106858 128.08413 
L 647.085317 127.398077 
L 643.81521 127.031483 
L 640.273107 126.859932 
L 636.935776 126.92985 
L 633.454867 127.255827 
L 630.589399 127.739252 
L 628.116288 128.347306 
L 625.802038 129.130657 
L 623.989289 129.947255 
L 622.259418 130.964599 
L 620.955001 131.951495 
L 619.888385 132.976227 
L 618.931953 134.258488 
L 618.626398 135.024366 
L 618.632145 135.506272 
L 618.791922 135.795633 
L 619.32948 136.13008 
L 620.362287 136.369137 
L 622.592695 136.556652 
L 627.105527 136.666062 
L 636.066012 136.629544 
L 644.426925 136.387891 
L 667.895281 135.506803 
L 675.490909 135.312374 
L 675.490909 135.312374 
" style="fill:none;stroke:#000000;stroke-linecap:square;stroke-opacity:0.7;stroke-width:1.2;"/>
   </g>
   <g id="line2d_97">
    <path clip-path="url(#pc96b803a7a)" d="M 675.48387 116.084904 
L 670.048165 114.18419 
L 663.684956 112.177941 
L 657.926853 110.594612 
L 653.238828 109.523635 
L 648.947664 108.775685 
L 645.058959 108.345529 
L 641.685785 108.196551 
L 638.34608 108.267778 
L 634.977617 108.563813 
L 631.609525 109.095458 
L 628.793104 109.748552 
L 626.334674 110.520083 
L 624.25785 111.37729 
L 622.317116 112.430106 
L 620.958089 113.388201 
L 619.753975 114.508529 
L 619.145347 115.320362 
L 618.894294 115.957211 
L 618.933649 116.367138 
L 619.14699 116.641642 
L 619.799098 116.942919 
L 621.059533 117.154721 
L 623.823893 117.281881 
L 629.559897 117.241975 
L 663.076989 116.48439 
L 675.478969 116.107207 
L 675.478969 116.107207 
" style="fill:none;stroke:#000000;stroke-linecap:square;stroke-opacity:0.7;stroke-width:1.2;"/>
   </g>
   <g id="line2d_98">
    <path clip-path="url(#pc96b803a7a)" d="M 675.439576 97.008042 
L 669.231142 94.908372 
L 662.766419 92.933285 
L 657.019798 91.408511 
L 652.510865 90.422675 
L 648.560704 89.766862 
L 644.934917 89.383393 
L 641.635411 89.242181 
L 638.149525 89.310674 
L 634.808466 89.574608 
L 631.208497 90.073426 
L 628.191648 90.695266 
L 625.601484 91.453115 
L 623.793166 92.184054 
L 622.056761 93.138673 
L 620.64897 94.193505 
L 619.511683 95.368031 
L 618.920463 96.293923 
L 618.762335 96.965712 
L 618.934592 97.370366 
L 619.332484 97.617409 
L 620.306184 97.817539 
L 621.806368 97.886943 
L 625.427345 97.80753 
L 642.787922 97.213644 
L 650.944038 97.302657 
L 660.978715 97.355035 
L 671.062374 97.169548 
L 675.433779 97.028891 
L 675.433779 97.028891 
" style="fill:none;stroke:#000000;stroke-linecap:square;stroke-opacity:0.7;stroke-width:1.2;"/>
   </g>
   <g id="line2d_99">
    <path clip-path="url(#pc96b803a7a)" d="M 675.423183 77.945531 
L 668.789381 75.636249 
L 662.062291 73.523395 
L 656.827421 72.10226 
L 652.37711 71.10365 
L 648.518346 70.436231 
L 644.638983 69.995455 
L 641.323262 69.833928 
L 638.092067 69.886917 
L 634.626617 70.187625 
L 631.497527 70.692785 
L 628.633013 71.383359 
L 626.242175 72.175816 
L 624.040397 73.147679 
L 622.271957 74.168666 
L 620.927351 75.158073 
L 619.705629 76.345061 
L 619.083339 77.29161 
L 618.985548 77.697241 
L 619.133747 78.082959 
L 619.463946 78.272753 
L 620.002032 78.383842 
L 621.182638 78.423675 
L 625.100062 78.198852 
L 634.527393 77.620983 
L 640.068724 77.509937 
L 645.671271 77.641175 
L 659.26242 78.123731 
L 667.422743 78.130091 
L 675.415573 77.968851 
L 675.415573 77.968851 
" style="fill:none;stroke:#000000;stroke-linecap:square;stroke-opacity:0.7;stroke-width:1.2;"/>
   </g>
   <g id="line2d_100">
    <path clip-path="url(#pc96b803a7a)" d="M 675.467279 58.736955 
L 669.010716 56.555442 
L 662.309076 54.518462 
L 657.207297 53.174922 
L 652.297143 52.112185 
L 648.20507 51.452239 
L 644.399261 51.070625 
L 640.822565 50.948463 
L 637.324589 51.065159 
L 634.013424 51.396488 
L 630.658096 51.967682 
L 627.813475 52.67556 
L 625.722003 53.371712 
L 623.407476 54.395043 
L 621.623229 55.457606 
L 620.355566 56.443325 
L 619.292367 57.562949 
L 618.869626 58.352347 
L 618.890859 58.640394 
L 619.095194 58.821504 
L 619.481943 58.908419 
L 620.553428 58.88644 
L 624.739856 58.391905 
L 630.805025 57.76135 
L 635.53996 57.48984 
L 639.503256 57.473706 
L 643.560103 57.689386 
L 659.141528 58.893283 
L 665.240274 58.983853 
L 672.747245 58.864627 
L 675.462744 58.778396 
L 675.462744 58.778396 
" style="fill:none;stroke:#000000;stroke-linecap:square;stroke-opacity:0.7;stroke-width:1.2;"/>
   </g>
  </g>
 </g>
 <defs>
  <clipPath id="pc96b803a7a">
   <rect height="262.08" width="694.08" x="12.96" y="12.96"/>
  </clipPath>
 </defs>
</svg>
