<?xml version="1.0" encoding="utf-8" standalone="no"?>
<!DOCTYPE svg PUBLIC "-//W3C//DTD SVG 1.1//EN"
  "http://www.w3.org/Graphics/SVG/1.1/DTD/svg11.dtd">
<!-- Created with matplotlib (https://matplotlib.org/) -->
<svg height="288pt" version="1.1" viewBox="0 0 720 288" width="720pt" xmlns="http://www.w3.org/2000/svg" xmlns:xlink="http://www.w3.org/1999/xlink">
 <metadata>
  <rdf:RDF xmlns:cc="http://creativecommons.org/ns#" xmlns:dc="http://purl.org/dc/elements/1.1/" xmlns:rdf="http://www.w3.org/1999/02/22-rdf-syntax-ns#">
   <cc:Work>
    <dc:type rdf:resource="http://purl.org/dc/dcmitype/StillImage"/>
    <dc:date>2020-11-13T19:53:33.310278</dc:date>
    <dc:format>image/svg+xml</dc:format>
    <dc:creator>
     <cc:Agent>
      <dc:title>Matplotlib v3.3.2, https://matplotlib.org/</dc:title>
     </cc:Agent>
    </dc:creator>
   </cc:Work>
  </rdf:RDF>
 </metadata>
 <defs>
  <style type="text/css">*{stroke-linecap:butt;stroke-linejoin:round;}</style>
 </defs>
 <g id="figure_1">
  <g id="patch_1">
   <path d="M 0 288 
L 720 288 
L 720 0 
L 0 0 
z
" style="fill:#ffffff;"/>
  </g>
  <g id="axes_1">
   <g id="line2d_1">
    <path clip-path="url(#pfb8137b57a)" d="M 101.612843 232.939096 
L 92.054708 232.223594 
L 71.031415 230.56522 
L 64.799271 230.358528 
L 58.218139 230.383878 
L 53.410736 230.588425 
L 49.921713 230.918919 
L 47.368744 231.388662 
L 45.989079 231.863156 
L 45.362758 232.300834 
L 45.280368 232.613144 
L 45.400153 232.780607 
L 46.002439 233.070935 
L 47.547006 233.407748 
L 50.622968 233.799915 
L 57.091122 234.362036 
L 70.966678 235.303075 
L 76.631696 235.527074 
L 81.468194 235.499065 
L 85.862788 235.252536 
L 90.606431 234.756165 
L 96.499513 233.875794 
L 101.617404 232.960388 
L 101.617404 232.960388 
" style="fill:none;stroke:#000000;stroke-linecap:square;stroke-opacity:0.7;stroke-width:1.2;"/>
   </g>
   <g id="line2d_2">
    <path clip-path="url(#pfb8137b57a)" d="M 101.642798 213.8361 
L 89.236425 212.696207 
L 70.697885 210.903515 
L 65.728784 210.737378 
L 60.426488 210.788606 
L 55.176422 211.046548 
L 51.37756 211.410283 
L 48.902814 211.802484 
L 46.631473 212.397285 
L 45.61191 212.83788 
L 44.953537 213.365696 
L 44.884353 213.62643 
L 45.004767 213.83401 
L 45.415471 214.064955 
L 46.532013 214.345307 
L 49.206924 214.680334 
L 54.222389 215.042152 
L 63.865803 215.485302 
L 73.803115 215.761817 
L 79.659256 215.717911 
L 85.743421 215.428446 
L 92.346466 214.873704 
L 101.66954 213.835017 
L 101.66954 213.835017 
" style="fill:none;stroke:#000000;stroke-linecap:square;stroke-opacity:0.7;stroke-width:1.2;"/>
   </g>
   <g id="line2d_3">
    <path clip-path="url(#pfb8137b57a)" d="M 101.660451 194.727319 
L 88.862481 193.548743 
L 73.242942 192.074455 
L 67.934519 191.836981 
L 62.793261 191.82895 
L 56.938873 192.061258 
L 52.482059 192.426383 
L 49.562675 192.812845 
L 47.173903 193.325379 
L 45.775477 193.874469 
L 45.301546 194.294544 
L 45.265964 194.589914 
L 45.456549 194.830656 
L 45.778463 195.014018 
L 47.053071 195.364477 
L 49.176761 195.654137 
L 53.269914 195.965343 
L 60.396129 196.267679 
L 70.065626 196.449481 
L 77.360132 196.367969 
L 84.71221 196.035949 
L 93.866261 195.368259 
L 101.668644 194.708015 
L 101.668644 194.708015 
" style="fill:none;stroke:#000000;stroke-linecap:square;stroke-opacity:0.7;stroke-width:1.2;"/>
   </g>
   <g id="line2d_4">
    <path clip-path="url(#pfb8137b57a)" d="M 101.63306 175.494965 
L 87.26255 174.099645 
L 77.243782 173.32461 
L 70.828769 173.024364 
L 63.92717 172.917683 
L 56.485195 173.029143 
L 51.920311 173.29784 
L 48.819692 173.6979 
L 47.039954 174.103908 
L 45.694122 174.615717 
L 45.010307 175.123244 
L 44.886513 175.418517 
L 44.977502 175.681349 
L 45.438094 175.998659 
L 46.586431 176.328033 
L 48.71266 176.622187 
L 53.03595 176.909275 
L 60.342594 177.103918 
L 69.31443 177.121574 
L 76.682495 176.955179 
L 85.666333 176.500495 
L 101.641167 175.490409 
L 101.641167 175.490409 
" style="fill:none;stroke:#000000;stroke-linecap:square;stroke-opacity:0.7;stroke-width:1.2;"/>
   </g>
   <g id="line2d_5">
    <path clip-path="url(#pfb8137b57a)" d="M 101.593142 156.431647 
L 83.338782 154.613585 
L 75.455585 154.019511 
L 69.577128 153.812916 
L 64.383318 153.86086 
L 58.159135 154.149603 
L 51.692187 154.649275 
L 48.509482 155.064557 
L 46.738837 155.479739 
L 45.742791 155.921442 
L 45.368718 156.321513 
L 45.392058 156.611916 
L 45.549411 156.786409 
L 45.992296 157.022224 
L 46.660906 157.222448 
L 49.133907 157.593481 
L 52.980534 157.858095 
L 58.965529 158.015367 
L 66.002339 157.967073 
L 73.807731 157.670054 
L 98.524672 156.526484 
L 101.595925 156.422109 
L 101.595925 156.422109 
" style="fill:none;stroke:#000000;stroke-linecap:square;stroke-opacity:0.7;stroke-width:1.2;"/>
   </g>
   <g id="line2d_6">
    <path clip-path="url(#pfb8137b57a)" d="M 101.693525 137.147629 
L 89.578332 135.930264 
L 81.499554 135.329566 
L 75.086578 135.065254 
L 69.082789 135.048161 
L 60.183026 135.298943 
L 50.855338 135.710528 
L 47.951773 136.020996 
L 46.193307 136.411089 
L 45.187396 136.884307 
L 44.940426 137.239075 
L 45.029192 137.504184 
L 45.521826 137.824663 
L 46.8355 138.195194 
L 48.980239 138.514202 
L 52.795478 138.817025 
L 58.301853 138.985514 
L 64.427722 138.927005 
L 71.030529 138.618319 
L 90.672024 137.476588 
L 101.70051 137.132585 
L 101.70051 137.132585 
" style="fill:none;stroke:#000000;stroke-linecap:square;stroke-opacity:0.7;stroke-width:1.2;"/>
   </g>
   <g id="line2d_7">
    <path clip-path="url(#pfb8137b57a)" d="M 101.724171 118.062551 
L 87.601998 116.599566 
L 79.880031 116.021815 
L 74.028708 115.799184 
L 68.485503 115.824679 
L 61.43472 116.127948 
L 50.955425 116.79994 
L 47.528314 117.189954 
L 45.881403 117.58802 
L 45.228486 117.986754 
L 45.17381 118.260679 
L 45.350692 118.487699 
L 45.941659 118.791947 
L 47.126346 119.107917 
L 49.24228 119.421186 
L 52.916967 119.698942 
L 57.957308 119.829583 
L 63.694323 119.751925 
L 69.506639 119.45609 
L 78.778772 118.697046 
L 85.788458 118.235421 
L 92.478216 118.042961 
L 100.985945 118.057667 
L 101.71631 118.065927 
L 101.71631 118.065927 
" style="fill:none;stroke:#000000;stroke-linecap:square;stroke-opacity:0.7;stroke-width:1.2;"/>
   </g>
   <g id="line2d_8">
    <path clip-path="url(#pfb8137b57a)" d="M 101.70023 98.734037 
L 92.855026 97.735302 
L 86.035914 97.17676 
L 79.537191 96.877863 
L 73.3621 96.83393 
L 66.100598 97.037152 
L 49.417702 97.792244 
L 47.196298 98.080074 
L 45.944688 98.411836 
L 45.269334 98.814268 
L 45.152483 99.056159 
L 45.221737 99.297999 
L 45.586806 99.606902 
L 46.837471 100.070964 
L 48.904061 100.467045 
L 52.197706 100.796964 
L 56.391497 100.947494 
L 61.170412 100.858212 
L 65.563647 100.558755 
L 71.45446 99.894763 
L 79.582868 98.952095 
L 84.523831 98.618605 
L 89.982467 98.495017 
L 96.522414 98.585904 
L 101.689251 98.752264 
L 101.689251 98.752264 
" style="fill:none;stroke:#000000;stroke-linecap:square;stroke-opacity:0.7;stroke-width:1.2;"/>
   </g>
   <g id="line2d_9">
    <path clip-path="url(#pfb8137b57a)" d="M 101.752383 79.532142 
L 93.386463 78.488745 
L 86.30597 77.843245 
L 80.407653 77.516132 
L 74.921432 77.413276 
L 69.169239 77.522105 
L 52.502884 78.215729 
L 49.176032 78.48376 
L 46.721621 78.911619 
L 45.596424 79.274852 
L 44.718548 79.812348 
L 44.517291 80.159179 
L 44.580183 80.494088 
L 44.982296 80.861923 
L 45.746333 81.198349 
L 46.600791 81.435199 
L 48.743809 81.797256 
L 51.700083 82.050593 
L 55.710861 82.1421 
L 59.715127 82.012362 
L 63.847307 81.659671 
L 68.441584 81.014732 
L 80.027021 79.151941 
L 84.079866 78.834125 
L 88.181424 78.747401 
L 92.989101 78.891262 
L 98.790919 79.296055 
L 101.749295 79.558653 
L 101.749295 79.558653 
" style="fill:none;stroke:#000000;stroke-linecap:square;stroke-opacity:0.7;stroke-width:1.2;"/>
   </g>
   <g id="line2d_10">
    <path clip-path="url(#pfb8137b57a)" d="M 101.787046 60.487682 
L 94.561976 59.563662 
L 88.229586 58.957263 
L 82.345562 58.61146 
L 77.021351 58.5181 
L 71.445156 58.658311 
L 49.916777 59.715886 
L 47.326113 60.045234 
L 45.992168 60.406368 
L 45.258929 60.815952 
L 45.064109 61.11672 
L 45.091518 61.37327 
L 45.247872 61.589985 
L 45.60367 61.85265 
L 46.442033 62.222833 
L 48.231754 62.691631 
L 50.404493 63.028773 
L 53.565102 63.271395 
L 56.733161 63.296725 
L 60.435186 63.079707 
L 63.62973 62.678682 
L 66.904044 62.062468 
L 71.1962 61.005904 
L 76.789309 59.604483 
L 79.902553 59.034051 
L 83.184219 58.679469 
L 86.565317 58.584289 
L 90.070859 58.742485 
L 94.035295 59.170228 
L 99.007482 59.964502 
L 101.784044 60.492911 
L 101.784044 60.492911 
" style="fill:none;stroke:#000000;stroke-linecap:square;stroke-opacity:0.7;stroke-width:1.2;"/>
   </g>
   <g id="line2d_11">
    <path clip-path="url(#pfb8137b57a)" d="M 165.273432 233.084953 
L 154.98628 231.977769 
L 145.896741 230.766378 
L 136.1203 229.480482 
L 131.544284 229.10642 
L 127.863903 228.996383 
L 124.134052 229.07088 
L 120.076396 229.359204 
L 116.196143 229.852768 
L 112.911245 230.506108 
L 110.67538 231.194657 
L 109.450329 231.803593 
L 108.913972 232.308012 
L 108.823926 232.612007 
L 108.970549 232.914323 
L 109.42091 233.18768 
L 110.419509 233.462291 
L 112.302211 233.726744 
L 116.534746 234.058505 
L 141.520614 235.486311 
L 146.034339 235.472921 
L 150.110291 235.239681 
L 154.527431 234.766152 
L 160.242911 233.91149 
L 165.26552 233.050759 
L 165.26552 233.050759 
" style="fill:none;stroke:#000000;stroke-linecap:square;stroke-opacity:0.7;stroke-width:1.2;"/>
   </g>
   <g id="line2d_12">
    <path clip-path="url(#pfb8137b57a)" d="M 165.368741 213.856743 
L 147.048943 211.609172 
L 138.443025 210.656198 
L 132.941727 210.280659 
L 128.166342 210.177967 
L 123.100755 210.305182 
L 118.718893 210.627454 
L 114.977546 211.119922 
L 112.533761 211.625521 
L 110.55078 212.25498 
L 109.641237 212.703749 
L 109.121942 213.123828 
L 108.952553 213.510948 
L 109.02429 213.730204 
L 109.349694 213.996996 
L 110.222062 214.295816 
L 112.069278 214.592861 
L 115.69823 214.898697 
L 124.052412 215.323025 
L 136.916311 215.779036 
L 142.653672 215.77078 
L 148.42232 215.531391 
L 154.358568 215.066644 
L 162.786921 214.163707 
L 165.359325 213.862418 
L 165.359325 213.862418 
" style="fill:none;stroke:#000000;stroke-linecap:square;stroke-opacity:0.7;stroke-width:1.2;"/>
   </g>
   <g id="line2d_13">
    <path clip-path="url(#pfb8137b57a)" d="M 165.365045 194.720293 
L 153.654257 193.437333 
L 134.508607 191.220177 
L 129.812763 191.00522 
L 124.997234 191.03142 
L 120.413473 191.2745 
L 116.232848 191.70777 
L 113.03193 192.25986 
L 110.719654 192.905554 
L 109.383652 193.505173 
L 108.640921 194.068326 
L 108.402467 194.474619 
L 108.431481 194.773447 
L 108.656041 195.021224 
L 109.137275 195.251617 
L 110.468465 195.543677 
L 113.255759 195.815436 
L 118.254288 196.033278 
L 126.963718 196.168185 
L 142.190419 196.167752 
L 148.588607 195.934497 
L 156.427035 195.424009 
L 165.399384 194.688996 
L 165.399384 194.688996 
" style="fill:none;stroke:#000000;stroke-linecap:square;stroke-opacity:0.7;stroke-width:1.2;"/>
   </g>
   <g id="line2d_14">
    <path clip-path="url(#pfb8137b57a)" d="M 165.37559 175.518996 
L 144.768963 172.934829 
L 138.182372 172.302896 
L 132.960613 172.040223 
L 128.257065 172.036119 
L 123.104598 172.248902 
L 117.841832 172.675896 
L 113.940533 173.202467 
L 111.46117 173.753243 
L 109.850193 174.347971 
L 109.043265 174.867694 
L 108.738772 175.305995 
L 108.782773 175.642172 
L 109.079376 175.911319 
L 109.962223 176.226641 
L 111.943213 176.528544 
L 115.576644 176.781489 
L 122.17291 176.982579 
L 131.965268 177.040424 
L 140.895464 176.873833 
L 149.75336 176.468783 
L 165.378924 175.523084 
L 165.378924 175.523084 
" style="fill:none;stroke:#000000;stroke-linecap:square;stroke-opacity:0.7;stroke-width:1.2;"/>
   </g>
   <g id="line2d_15">
    <path clip-path="url(#pfb8137b57a)" d="M 165.328655 156.476989 
L 138.795295 153.291341 
L 133.582471 152.977947 
L 129.017241 152.938439 
L 124.185505 153.135445 
L 118.900686 153.592438 
L 114.672971 154.157465 
L 111.742759 154.750077 
L 110.298308 155.200554 
L 109.334076 155.685629 
L 108.956601 156.046824 
L 108.870627 156.426795 
L 109.064144 156.71998 
L 109.588498 157.016076 
L 110.571757 157.293441 
L 113.285905 157.649829 
L 117.805882 157.900689 
L 124.281736 158.020713 
L 131.733113 157.955803 
L 139.33153 157.658345 
L 161.671692 156.559619 
L 165.320453 156.463933 
L 165.320453 156.463933 
" style="fill:none;stroke:#000000;stroke-linecap:square;stroke-opacity:0.7;stroke-width:1.2;"/>
   </g>
   <g id="line2d_16">
    <path clip-path="url(#pfb8137b57a)" d="M 165.439101 137.191317 
L 150.093157 135.332008 
L 141.206492 134.426594 
L 136.000774 134.093821 
L 131.341008 134.00638 
L 126.277515 134.146421 
L 120.714 134.526357 
L 115.79613 135.053145 
L 112.417939 135.616768 
L 110.744103 136.065496 
L 109.754934 136.485612 
L 109.154538 136.950064 
L 109.014244 137.28844 
L 109.095547 137.542018 
L 109.365114 137.780987 
L 110.321141 138.137564 
L 111.788587 138.398286 
L 115.154137 138.687601 
L 120.539442 138.864143 
L 127.333662 138.835296 
L 134.280126 138.559764 
L 157.398492 137.334128 
L 165.448873 137.167346 
L 165.448873 137.167346 
" style="fill:none;stroke:#000000;stroke-linecap:square;stroke-opacity:0.7;stroke-width:1.2;"/>
   </g>
   <g id="line2d_17">
    <path clip-path="url(#pfb8137b57a)" d="M 165.42871 117.954469 
L 154.227823 116.395686 
L 145.766697 115.423984 
L 139.437059 114.913332 
L 134.437377 114.718816 
L 129.319906 114.754688 
L 124.170864 115.004933 
L 118.157398 115.521804 
L 114.150297 116.068068 
L 111.701943 116.601646 
L 110.293637 117.082988 
L 109.281097 117.672218 
L 108.981865 118.061052 
L 108.977537 118.380148 
L 109.251674 118.692994 
L 109.798471 118.95714 
L 110.584575 119.174791 
L 112.804623 119.503925 
L 116.090432 119.733206 
L 121.083558 119.839972 
L 126.559814 119.743139 
L 132.597964 119.412893 
L 150.844588 118.165868 
L 158.711113 118.005902 
L 165.415358 117.973904 
L 165.415358 117.973904 
" style="fill:none;stroke:#000000;stroke-linecap:square;stroke-opacity:0.7;stroke-width:1.2;"/>
   </g>
   <g id="line2d_18">
    <path clip-path="url(#pfb8137b57a)" d="M 165.377518 98.799884 
L 154.559564 97.408444 
L 145.373797 96.430771 
L 138.935642 95.934703 
L 134.206956 95.743941 
L 129.561379 95.754607 
L 124.330642 95.997641 
L 118.128071 96.534936 
L 114.043086 97.077805 
L 111.743385 97.548327 
L 110.034297 98.109707 
L 109.220815 98.553594 
L 108.773006 98.992181 
L 108.658839 99.323035 
L 108.756516 99.635394 
L 108.96116 99.840082 
L 109.572422 100.146463 
L 110.404873 100.376317 
L 113.223117 100.749732 
L 117.013432 100.928147 
L 122.127037 100.898789 
L 127.291466 100.631539 
L 133.003828 100.08336 
L 144.375745 98.869211 
L 149.622317 98.614593 
L 155.210033 98.567207 
L 163.134671 98.742185 
L 165.381119 98.819148 
L 165.381119 98.819148 
" style="fill:none;stroke:#000000;stroke-linecap:square;stroke-opacity:0.7;stroke-width:1.2;"/>
   </g>
   <g id="line2d_19">
    <path clip-path="url(#pfb8137b57a)" d="M 165.467244 79.733059 
L 154.301759 78.298425 
L 146.035447 77.426082 
L 139.309282 76.933509 
L 134.588019 76.783236 
L 129.774852 76.848026 
L 123.901434 77.190359 
L 117.645148 77.7944 
L 113.852801 78.332253 
L 111.266812 78.903695 
L 109.797152 79.468591 
L 109.214614 79.908252 
L 109.078138 80.207673 
L 109.193328 80.532968 
L 109.454939 80.755689 
L 110.163953 81.083299 
L 111.804248 81.498941 
L 114.366375 81.848653 
L 117.897321 82.052967 
L 121.777555 82.030314 
L 125.702695 81.78538 
L 129.880719 81.29867 
L 135.54346 80.374493 
L 141.23072 79.486465 
L 145.282649 79.077319 
L 149.271682 78.897411 
L 153.896994 78.932409 
L 159.972027 79.262328 
L 165.489845 79.728203 
L 165.489845 79.728203 
" style="fill:none;stroke:#000000;stroke-linecap:square;stroke-opacity:0.7;stroke-width:1.2;"/>
   </g>
   <g id="line2d_20">
    <path clip-path="url(#pfb8137b57a)" d="M 165.496194 60.417379 
L 158.077603 59.299791 
L 151.49306 58.513044 
L 145.742212 58.037305 
L 140.410199 57.816333 
L 135.330161 57.830823 
L 129.508671 58.086725 
L 119.233131 58.817877 
L 113.68338 59.3688 
L 110.82334 59.881514 
L 109.580079 60.294235 
L 108.991968 60.657215 
L 108.769379 61.054077 
L 108.836162 61.308593 
L 109.21482 61.669834 
L 109.855621 61.989634 
L 111.504513 62.468634 
L 113.784954 62.846854 
L 117.012499 63.111575 
L 120.118344 63.160234 
L 123.291268 63.029694 
L 127.143438 62.629808 
L 130.600114 62.043907 
L 135.226861 60.988105 
L 141.382005 59.565225 
L 144.587324 59.053398 
L 147.365585 58.797347 
L 150.61059 58.721671 
L 153.774339 58.854806 
L 157.876738 59.265171 
L 163.409747 60.094894 
L 165.485527 60.457074 
L 165.485527 60.457074 
" style="fill:none;stroke:#000000;stroke-linecap:square;stroke-opacity:0.7;stroke-width:1.2;"/>
   </g>
   <g id="line2d_21">
    <path clip-path="url(#pfb8137b57a)" d="M 229.136118 232.967771 
L 218.500802 231.716814 
L 208.477349 230.291862 
L 199.583905 229.086697 
L 194.628349 228.665544 
L 190.520748 228.533121 
L 186.62573 228.607241 
L 182.606917 228.913296 
L 179.455895 229.363563 
L 176.878854 229.93781 
L 175.058629 230.529619 
L 173.596696 231.225445 
L 172.769767 231.851392 
L 172.424845 232.479356 
L 172.51329 232.778719 
L 172.932419 233.077231 
L 173.872677 233.329107 
L 175.727511 233.556022 
L 181.417489 233.946103 
L 206.786954 235.383887 
L 211.007557 235.273227 
L 215.589573 234.930104 
L 220.607823 234.330809 
L 227.254038 233.297397 
L 229.134268 232.976447 
L 229.134268 232.976447 
" style="fill:none;stroke:#000000;stroke-linecap:square;stroke-opacity:0.7;stroke-width:1.2;"/>
   </g>
   <g id="line2d_22">
    <path clip-path="url(#pfb8137b57a)" d="M 229.06209 213.875777 
L 214.044352 211.918343 
L 198.489001 209.83048 
L 194.101466 209.489673 
L 189.750162 209.380777 
L 186.000754 209.49439 
L 182.526532 209.798004 
L 179.874796 210.194389 
L 177.560451 210.707057 
L 175.268584 211.465363 
L 173.872311 212.167049 
L 173.120789 212.744144 
L 172.784897 213.195808 
L 172.742744 213.64841 
L 172.964685 213.936512 
L 173.397514 214.168432 
L 174.203314 214.392437 
L 176.378166 214.687061 
L 181.078396 214.993816 
L 191.34738 215.37807 
L 203.392302 215.671121 
L 208.928067 215.590877 
L 214.661364 215.283332 
L 221.903376 214.635966 
L 229.077586 213.847306 
L 229.077586 213.847306 
" style="fill:none;stroke:#000000;stroke-linecap:square;stroke-opacity:0.7;stroke-width:1.2;"/>
   </g>
   <g id="line2d_23">
    <path clip-path="url(#pfb8137b57a)" d="M 229.151368 194.621102 
L 203.334026 191.147263 
L 198.150252 190.688254 
L 193.38694 190.513095 
L 188.856761 190.57608 
L 184.600566 190.826488 
L 180.578602 191.263255 
L 177.378044 191.836201 
L 175.303731 192.410891 
L 173.64865 193.110233 
L 172.66804 193.800008 
L 172.372308 194.225703 
L 172.347664 194.528512 
L 172.571446 194.844474 
L 172.927521 195.047318 
L 173.863794 195.32214 
L 175.936926 195.619937 
L 179.72973 195.893183 
L 186.922562 196.140252 
L 198.433469 196.274962 
L 206.544128 196.177966 
L 213.762777 195.843415 
L 222.571741 195.186403 
L 229.167701 194.611873 
L 229.167701 194.611873 
" style="fill:none;stroke:#000000;stroke-linecap:square;stroke-opacity:0.7;stroke-width:1.2;"/>
   </g>
   <g id="line2d_24">
    <path clip-path="url(#pfb8137b57a)" d="M 229.17564 175.429593 
L 213.425024 173.249263 
L 204.067625 172.090525 
L 198.350689 171.604092 
L 193.596178 171.450151 
L 189.166223 171.532698 
L 184.361664 171.851443 
L 180.384699 172.317746 
L 177.666016 172.802788 
L 175.458041 173.389533 
L 173.987125 173.978046 
L 172.974215 174.609187 
L 172.494167 175.197679 
L 172.473906 175.518931 
L 172.686463 175.798551 
L 172.979422 175.965867 
L 174.1388 176.28278 
L 176.424249 176.570107 
L 180.68367 176.841641 
L 187.884955 177.051522 
L 196.490171 177.073987 
L 205.083214 176.863191 
L 214.339734 176.398827 
L 229.194658 175.414685 
L 229.194658 175.414685 
" style="fill:none;stroke:#000000;stroke-linecap:square;stroke-opacity:0.7;stroke-width:1.2;"/>
   </g>
   <g id="line2d_25">
    <path clip-path="url(#pfb8137b57a)" d="M 229.111815 156.359589 
L 214.655466 154.179654 
L 206.132672 153.090012 
L 200.886861 152.603878 
L 196.601207 152.391899 
L 192.020779 152.391645 
L 187.252419 152.628731 
L 182.743609 153.06449 
L 179.176941 153.595139 
L 176.350225 154.21941 
L 174.507087 154.825168 
L 173.314979 155.429472 
L 172.740037 155.964553 
L 172.633007 156.268442 
L 172.755741 156.606499 
L 173.29609 156.960135 
L 174.31186 157.250167 
L 176.418734 157.536645 
L 180.319786 157.776697 
L 187.13635 157.938642 
L 195.066056 157.927334 
L 201.793277 157.713708 
L 210.874226 157.160764 
L 220.553882 156.643846 
L 229.084971 156.38483 
L 229.084971 156.38483 
" style="fill:none;stroke:#000000;stroke-linecap:square;stroke-opacity:0.7;stroke-width:1.2;"/>
   </g>
   <g id="line2d_26">
    <path clip-path="url(#pfb8137b57a)" d="M 229.2128 137.152787 
L 217.99391 135.559924 
L 207.060593 134.208769 
L 200.811356 133.642525 
L 196.244672 133.435373 
L 191.465895 133.458693 
L 186.400761 133.731714 
L 181.793572 134.191208 
L 178.392336 134.710526 
L 175.568417 135.377547 
L 174.049152 135.936382 
L 173.042473 136.517869 
L 172.595642 137.029787 
L 172.585803 137.405082 
L 172.820205 137.673637 
L 173.255912 137.900611 
L 174.738821 138.270251 
L 177.134326 138.561746 
L 181.518796 138.820885 
L 187.129845 138.92042 
L 193.215667 138.812718 
L 199.698068 138.463039 
L 215.55746 137.438729 
L 223.63541 137.222296 
L 229.216161 137.165753 
L 229.216161 137.165753 
" style="fill:none;stroke:#000000;stroke-linecap:square;stroke-opacity:0.7;stroke-width:1.2;"/>
   </g>
   <g id="line2d_27">
    <path clip-path="url(#pfb8137b57a)" d="M 229.156514 117.914538 
L 218.681549 116.37542 
L 209.937665 115.280854 
L 203.245408 114.648265 
L 198.161323 114.383902 
L 193.323074 114.382619 
L 188.378853 114.639119 
L 183.484941 115.102829 
L 179.002586 115.713907 
L 176.019429 116.316294 
L 174.320122 116.851387 
L 173.24934 117.400475 
L 172.747145 117.916258 
L 172.685821 118.175855 
L 172.852498 118.515965 
L 173.35081 118.825147 
L 174.024721 119.046436 
L 175.818027 119.362413 
L 179.044523 119.61952 
L 183.609936 119.729913 
L 189.783232 119.628871 
L 196.453617 119.276553 
L 215.168458 118.06296 
L 222.857163 117.930825 
L 229.156247 117.924734 
L 229.156247 117.924734 
" style="fill:none;stroke:#000000;stroke-linecap:square;stroke-opacity:0.7;stroke-width:1.2;"/>
   </g>
   <g id="line2d_28">
    <path clip-path="url(#pfb8137b57a)" d="M 229.248954 98.746406 
L 221.337011 97.41403 
L 213.539002 96.315293 
L 207.115755 95.615325 
L 201.47499 95.214817 
L 196.619824 95.088509 
L 191.975024 95.183143 
L 187.522949 95.460923 
L 182.519059 95.983141 
L 178.713103 96.574818 
L 175.747822 97.267112 
L 173.966038 97.925588 
L 173.03109 98.498978 
L 172.647704 98.980996 
L 172.620402 99.29326 
L 172.875175 99.65328 
L 173.652089 100.036072 
L 174.981751 100.357327 
L 177.700589 100.691158 
L 181.15156 100.876765 
L 185.637845 100.896095 
L 190.808615 100.669771 
L 195.279119 100.275548 
L 210.363287 98.730339 
L 215.602398 98.550946 
L 222.027892 98.575545 
L 229.243921 98.777686 
L 229.243921 98.777686 
" style="fill:none;stroke:#000000;stroke-linecap:square;stroke-opacity:0.7;stroke-width:1.2;"/>
   </g>
   <g id="line2d_29">
    <path clip-path="url(#pfb8137b57a)" d="M 229.227796 79.58735 
L 222.100983 78.358758 
L 214.941032 77.348474 
L 209.230479 76.734843 
L 203.984273 76.362459 
L 198.796555 76.223249 
L 193.670051 76.327648 
L 187.776276 76.688973 
L 182.301272 77.222605 
L 178.544397 77.760182 
L 175.983431 78.300441 
L 173.999947 78.95776 
L 173.182966 79.414441 
L 172.81354 79.814212 
L 172.759647 80.101428 
L 172.938518 80.421128 
L 173.578317 80.813078 
L 174.992237 81.239924 
L 177.471165 81.63977 
L 180.930633 81.905995 
L 184.725761 81.964691 
L 188.496644 81.827978 
L 192.598687 81.471878 
L 197.10618 80.856345 
L 207.651107 79.283161 
L 211.939738 78.967244 
L 216.297696 78.901491 
L 221.214045 79.070172 
L 228.523256 79.580834 
L 229.2168 79.636575 
L 229.2168 79.636575 
" style="fill:none;stroke:#000000;stroke-linecap:square;stroke-opacity:0.7;stroke-width:1.2;"/>
   </g>
   <g id="line2d_30">
    <path clip-path="url(#pfb8137b57a)" d="M 229.262145 60.37784 
L 222.083077 59.125575 
L 215.701355 58.212251 
L 209.892635 57.584425 
L 204.631832 57.222627 
L 199.660702 57.094706 
L 194.295673 57.190103 
L 187.692168 57.550429 
L 181.707327 58.075036 
L 177.775006 58.623024 
L 175.082218 59.235449 
L 173.712537 59.717354 
L 172.64132 60.313624 
L 172.231933 60.75999 
L 172.159394 61.129961 
L 172.387176 61.51711 
L 172.720706 61.759764 
L 173.702906 62.168155 
L 175.421013 62.576665 
L 177.878392 62.914628 
L 181.150303 63.12662 
L 184.512994 63.136981 
L 188.171033 62.929293 
L 191.673382 62.509946 
L 195.348691 61.834593 
L 199.924362 60.742603 
L 205.456276 59.455087 
L 208.617159 58.93985 
L 211.814791 58.65344 
L 215.263046 58.614305 
L 218.90237 58.839505 
L 222.741021 59.303709 
L 227.836308 60.151223 
L 229.243979 60.415584 
L 229.243979 60.415584 
" style="fill:none;stroke:#000000;stroke-linecap:square;stroke-opacity:0.7;stroke-width:1.2;"/>
   </g>
   <g id="line2d_31">
    <path clip-path="url(#pfb8137b57a)" d="M 292.800421 232.956911 
L 280.306271 231.07199 
L 263.535904 228.467975 
L 258.932291 228.044104 
L 254.924745 227.904789 
L 251.100399 227.998215 
L 247.258514 228.331244 
L 244.158596 228.800445 
L 241.237322 229.458972 
L 239.068698 230.159129 
L 237.677859 230.785647 
L 236.816589 231.329963 
L 236.2667 231.872234 
L 236.065803 232.408669 
L 236.149706 232.702631 
L 236.396487 232.960963 
L 237.002368 233.253015 
L 238.017827 233.498344 
L 240.45831 233.786911 
L 246.58641 234.158067 
L 258.645074 234.885817 
L 267.208891 235.414931 
L 271.7378 235.471079 
L 276.085634 235.29109 
L 280.401088 234.883113 
L 285.799163 234.121893 
L 292.778791 232.924175 
L 292.778791 232.924175 
" style="fill:none;stroke:#000000;stroke-linecap:square;stroke-opacity:0.7;stroke-width:1.2;"/>
   </g>
   <g id="line2d_32">
    <path clip-path="url(#pfb8137b57a)" d="M 292.847715 213.839574 
L 264.841405 209.504182 
L 260.425174 209.141479 
L 256.504246 209.031529 
L 252.683585 209.122293 
L 248.31909 209.462129 
L 244.430431 210.012995 
L 241.437383 210.678498 
L 239.268291 211.396924 
L 237.932413 212.033729 
L 237.020312 212.675321 
L 236.596581 213.218212 
L 236.565876 213.603465 
L 236.816429 213.909781 
L 237.429968 214.187614 
L 239.019274 214.508878 
L 241.693336 214.778926 
L 247.481423 215.088381 
L 259.590694 215.447593 
L 269.272317 215.586683 
L 275.362223 215.417876 
L 280.949191 215.053417 
L 288.279376 214.34738 
L 292.859603 213.826925 
L 292.859603 213.826925 
" style="fill:none;stroke:#000000;stroke-linecap:square;stroke-opacity:0.7;stroke-width:1.2;"/>
   </g>
   <g id="line2d_33">
    <path clip-path="url(#pfb8137b57a)" d="M 292.883011 194.564978 
L 266.537069 190.633529 
L 261.20186 190.098721 
L 256.895146 189.90126 
L 253.018632 189.937119 
L 249.068346 190.187624 
L 245.344757 190.63946 
L 242.437932 191.180429 
L 240.039137 191.819445 
L 238.047568 192.594194 
L 236.963376 193.222869 
L 236.305053 193.83318 
L 236.085171 194.377532 
L 236.168068 194.664013 
L 236.432893 194.919178 
L 237.084561 195.19602 
L 238.736092 195.499859 
L 241.978153 195.763585 
L 249.010865 196.038899 
L 262.299668 196.306674 
L 269.541484 196.260929 
L 276.543546 195.963854 
L 284.220089 195.396178 
L 292.885018 194.577866 
L 292.885018 194.577866 
" style="fill:none;stroke:#000000;stroke-linecap:square;stroke-opacity:0.7;stroke-width:1.2;"/>
   </g>
   <g id="line2d_34">
    <path clip-path="url(#pfb8137b57a)" d="M 292.862578 175.531057 
L 265.222669 171.328858 
L 260.676539 170.925851 
L 256.73869 170.792586 
L 253.029654 170.870786 
L 248.859656 171.19206 
L 245.465582 171.642814 
L 241.991265 172.328287 
L 239.308699 173.11872 
L 237.675968 173.844416 
L 236.690481 174.5394 
L 236.270796 175.132948 
L 236.245839 175.49882 
L 236.415859 175.791702 
L 236.802681 176.052694 
L 237.773044 176.347949 
L 239.379504 176.571548 
L 243.320743 176.804265 
L 250.520353 176.959628 
L 261.476678 176.975846 
L 269.576504 176.788072 
L 279.180452 176.307392 
L 292.866934 175.516881 
L 292.866934 175.516881 
" style="fill:none;stroke:#000000;stroke-linecap:square;stroke-opacity:0.7;stroke-width:1.2;"/>
   </g>
   <g id="line2d_35">
    <path clip-path="url(#pfb8137b57a)" d="M 292.793514 156.387919 
L 272.0274 153.052401 
L 265.708844 152.263439 
L 260.663921 151.86042 
L 256.695783 151.756592 
L 252.836654 151.861099 
L 248.941693 152.170242 
L 244.82216 152.730796 
L 241.658787 153.380408 
L 239.22097 154.117542 
L 237.81378 154.744375 
L 236.784811 155.460649 
L 236.421909 155.925228 
L 236.337755 156.412799 
L 236.490401 156.709106 
L 236.899609 157.011978 
L 237.871464 157.34299 
L 239.91862 157.657175 
L 243.56086 157.891479 
L 248.984907 158.000427 
L 256.982752 157.935927 
L 265.411585 157.646412 
L 292.78285 156.390063 
L 292.78285 156.390063 
" style="fill:none;stroke:#000000;stroke-linecap:square;stroke-opacity:0.7;stroke-width:1.2;"/>
   </g>
   <g id="line2d_36">
    <path clip-path="url(#pfb8137b57a)" d="M 292.949821 137.110399 
L 283.215596 135.451252 
L 274.176658 134.131096 
L 267.972336 133.42773 
L 262.689408 133.061377 
L 258.246033 132.976028 
L 253.286476 133.115967 
L 248.400693 133.472339 
L 244.500665 133.945944 
L 241.377188 134.532412 
L 239.248949 135.133077 
L 237.771243 135.74753 
L 236.966082 136.247273 
L 236.467932 136.807507 
L 236.428096 137.194446 
L 236.626801 137.476454 
L 237.160348 137.772392 
L 238.442605 138.103531 
L 240.322128 138.355231 
L 244.438646 138.628548 
L 250.406936 138.763745 
L 257.209591 138.690876 
L 263.74556 138.401721 
L 284.178047 137.274804 
L 292.941714 137.110742 
L 292.941714 137.110742 
" style="fill:none;stroke:#000000;stroke-linecap:square;stroke-opacity:0.7;stroke-width:1.2;"/>
   </g>
   <g id="line2d_37">
    <path clip-path="url(#pfb8137b57a)" d="M 292.940152 117.927407 
L 285.070798 116.517005 
L 276.43802 115.18934 
L 269.013839 114.264224 
L 263.598327 113.8159 
L 259.751713 113.689432 
L 255.756898 113.764231 
L 251.800082 114.040226 
L 247.583709 114.53279 
L 243.138504 115.283511 
L 240.569533 115.886645 
L 238.718153 116.487472 
L 237.306698 117.172287 
L 236.670105 117.686648 
L 236.436552 118.10353 
L 236.477004 118.421544 
L 236.776853 118.727507 
L 237.1353 118.909605 
L 238.652475 119.29379 
L 241.180021 119.585204 
L 245.489522 119.798308 
L 251.087471 119.832701 
L 257.170425 119.638709 
L 263.864949 119.164457 
L 275.954379 118.219431 
L 282.666105 117.980016 
L 290.996195 117.937379 
L 292.94617 117.94974 
L 292.94617 117.94974 
" style="fill:none;stroke:#000000;stroke-linecap:square;stroke-opacity:0.7;stroke-width:1.2;"/>
   </g>
   <g id="line2d_38">
    <path clip-path="url(#pfb8137b57a)" d="M 292.936042 98.731518 
L 284.675413 97.247881 
L 276.463178 96.003599 
L 269.880724 95.229055 
L 264.813939 94.842595 
L 260.229417 94.717939 
L 256.069827 94.812564 
L 250.915691 95.172605 
L 245.767065 95.768522 
L 242.198253 96.36426 
L 239.788205 96.934123 
L 238.355206 97.407547 
L 237.124962 97.996651 
L 236.621946 98.362085 
L 236.230209 98.918911 
L 236.265407 99.283795 
L 236.554717 99.596155 
L 237.101922 99.871265 
L 238.011627 100.132897 
L 240.350089 100.487497 
L 243.908037 100.721775 
L 248.125211 100.771012 
L 253.415382 100.586692 
L 258.809031 100.156088 
L 273.639968 98.764362 
L 279.61084 98.592488 
L 286.866353 98.630901 
L 292.932223 98.749761 
L 292.932223 98.749761 
" style="fill:none;stroke:#000000;stroke-linecap:square;stroke-opacity:0.7;stroke-width:1.2;"/>
   </g>
   <g id="line2d_39">
    <path clip-path="url(#pfb8137b57a)" d="M 292.977735 79.568591 
L 285.943141 78.19662 
L 278.816663 77.035191 
L 272.550102 76.238171 
L 267.453874 75.790622 
L 263.152133 75.602026 
L 259.010925 75.621056 
L 254.421212 75.867582 
L 248.709752 76.432 
L 243.614182 77.158843 
L 240.218326 77.863842 
L 238.082273 78.538692 
L 236.768308 79.205207 
L 236.19457 79.764351 
L 236.102306 80.151002 
L 236.186887 80.376553 
L 236.427585 80.626911 
L 236.907568 80.89866 
L 237.968781 81.244115 
L 239.608201 81.555892 
L 242.614572 81.8583 
L 246.552628 81.981705 
L 250.503172 81.883821 
L 254.805376 81.544954 
L 259.361888 80.927013 
L 272.805603 78.75731 
L 276.667661 78.518388 
L 280.645042 78.526636 
L 284.841222 78.763452 
L 290.892837 79.364671 
L 292.970839 79.609409 
L 292.970839 79.609409 
" style="fill:none;stroke:#000000;stroke-linecap:square;stroke-opacity:0.7;stroke-width:1.2;"/>
   </g>
   <g id="line2d_40">
    <path clip-path="url(#pfb8137b57a)" d="M 293.008583 60.34139 
L 287.004946 59.151546 
L 280.569188 58.08655 
L 274.578711 57.305194 
L 269.157314 56.808031 
L 264.280343 56.578912 
L 260.016273 56.584087 
L 255.499667 56.803237 
L 250.370693 57.280193 
L 244.964717 58.016788 
L 241.071039 58.763532 
L 238.668538 59.439479 
L 237.379408 59.988961 
L 236.670642 60.488902 
L 236.413771 60.939728 
L 236.486788 61.283942 
L 236.72417 61.54831 
L 237.230557 61.85507 
L 238.058369 62.168079 
L 240.220659 62.648405 
L 243.155217 62.986068 
L 246.306982 63.122079 
L 250.071412 63.0418 
L 253.684187 62.72509 
L 257.063907 62.209346 
L 260.995202 61.359275 
L 271.266618 58.910605 
L 274.069388 58.526054 
L 277.041965 58.340913 
L 280.234014 58.395334 
L 283.412471 58.676435 
L 287.345444 59.259987 
L 292.879277 60.35234 
L 292.993911 60.377185 
L 292.993911 60.377185 
" style="fill:none;stroke:#000000;stroke-linecap:square;stroke-opacity:0.7;stroke-width:1.2;"/>
   </g>
   <g id="line2d_41">
    <path clip-path="url(#pfb8137b57a)" d="M 356.563623 232.974235 
L 341.263879 230.371288 
L 330.012719 228.463316 
L 325.406113 227.878205 
L 321.443349 227.574608 
L 317.762588 227.501357 
L 313.825821 227.668376 
L 310.621525 228.010611 
L 307.642332 228.53078 
L 305.191934 229.159065 
L 302.971487 229.978441 
L 301.668423 230.659712 
L 300.712675 231.369762 
L 300.120921 232.141734 
L 300.047787 232.564645 
L 300.214807 232.918006 
L 300.747172 233.25034 
L 301.52419 233.468727 
L 303.656951 233.747588 
L 308.713899 234.058232 
L 325.138178 234.936028 
L 332.233034 235.328415 
L 336.709962 235.35269 
L 340.72881 235.167757 
L 344.829253 234.78583 
L 350.011517 234.082732 
L 356.557417 232.979671 
L 356.557417 232.979671 
" style="fill:none;stroke:#000000;stroke-linecap:square;stroke-opacity:0.7;stroke-width:1.2;"/>
   </g>
   <g id="line2d_42">
    <path clip-path="url(#pfb8137b57a)" d="M 356.604027 213.764699 
L 330.104165 209.344216 
L 325.484868 208.809757 
L 321.614065 208.565889 
L 317.761887 208.539171 
L 313.811889 208.740614 
L 310.093128 209.156902 
L 306.950387 209.726164 
L 304.73932 210.306048 
L 303.06729 210.90828 
L 301.725216 211.575522 
L 300.639316 212.387986 
L 300.17539 213.023242 
L 300.097065 213.418241 
L 300.251525 213.779489 
L 300.721663 214.094762 
L 301.817521 214.394189 
L 303.801413 214.643622 
L 308.573765 214.944784 
L 319.814796 215.361876 
L 331.136644 215.641338 
L 337.086757 215.543883 
L 342.777294 215.215992 
L 349.198658 214.620564 
L 356.628207 213.752605 
L 356.628207 213.752605 
" style="fill:none;stroke:#000000;stroke-linecap:square;stroke-opacity:0.7;stroke-width:1.2;"/>
   </g>
   <g id="line2d_43">
    <path clip-path="url(#pfb8137b57a)" d="M 356.683909 194.538705 
L 338.556219 191.37728 
L 331.391741 190.308957 
L 326.604161 189.773458 
L 322.218057 189.487667 
L 317.852594 189.440173 
L 313.786969 189.627102 
L 310.04456 190.026821 
L 306.749846 190.620177 
L 304.163038 191.327307 
L 302.549554 191.943899 
L 301.059739 192.737101 
L 300.313572 193.318564 
L 299.838489 193.965003 
L 299.806295 194.434623 
L 300.008177 194.731043 
L 300.522961 195.027795 
L 301.70545 195.333322 
L 304.310103 195.633473 
L 309.454677 195.910521 
L 319.315369 196.16937 
L 328.944852 196.231155 
L 336.268882 196.052455 
L 343.441006 195.654656 
L 352.982175 194.888525 
L 356.679556 194.549636 
L 356.679556 194.549636 
" style="fill:none;stroke:#000000;stroke-linecap:square;stroke-opacity:0.7;stroke-width:1.2;"/>
   </g>
   <g id="line2d_44">
    <path clip-path="url(#pfb8137b57a)" d="M 356.672609 175.460434 
L 343.111511 173.117845 
L 333.505497 171.618112 
L 327.451409 170.897568 
L 322.875878 170.579839 
L 318.319841 170.509734 
L 314.308809 170.668476 
L 310.561582 171.03573 
L 308.191184 171.414386 
L 305.286486 172.114013 
L 302.987197 172.968747 
L 301.593529 173.725954 
L 300.61076 174.530584 
L 300.284378 175.028282 
L 300.266194 175.451443 
L 300.459946 175.711568 
L 300.968698 175.981334 
L 301.94444 176.227903 
L 304.583088 176.541578 
L 308.900109 176.798749 
L 316.416635 177.013443 
L 324.493667 177.019287 
L 332.560371 176.786035 
L 344.689901 176.176798 
L 356.672503 175.482108 
L 356.672503 175.482108 
" style="fill:none;stroke:#000000;stroke-linecap:square;stroke-opacity:0.7;stroke-width:1.2;"/>
   </g>
   <g id="line2d_45">
    <path clip-path="url(#pfb8137b57a)" d="M 356.636372 156.30248 
L 342.906867 153.832023 
L 332.215962 152.082169 
L 326.812045 151.414506 
L 322.495849 151.1137 
L 318.642128 151.078441 
L 314.843464 151.278263 
L 311.271804 151.688647 
L 307.816032 152.322735 
L 305.06516 153.055747 
L 302.897981 153.87 
L 301.416099 154.669122 
L 300.585113 155.345312 
L 300.194813 155.918893 
L 300.13497 156.268819 
L 300.289567 156.630458 
L 300.821237 156.972273 
L 301.969658 157.249116 
L 304.221012 157.460156 
L 310.099061 157.670988 
L 319.726322 157.79212 
L 326.73212 157.696437 
L 334.190247 157.361287 
L 352.843671 156.44437 
L 356.632321 156.310345 
L 356.632321 156.310345 
" style="fill:none;stroke:#000000;stroke-linecap:square;stroke-opacity:0.7;stroke-width:1.2;"/>
   </g>
   <g id="line2d_46">
    <path clip-path="url(#pfb8137b57a)" d="M 356.64039 137.072327 
L 345.187513 135.104425 
L 334.702445 133.494021 
L 329.019311 132.804803 
L 324.439812 132.473263 
L 320.896327 132.417033 
L 316.808724 132.5859 
L 312.563016 133.00364 
L 308.2993 133.661205 
L 304.890214 134.415011 
L 302.58111 135.154827 
L 301.157889 135.843681 
L 300.438672 136.397984 
L 300.101297 136.920721 
L 300.113525 137.303054 
L 300.399306 137.638222 
L 300.881662 137.884944 
L 301.915174 138.161828 
L 304.049818 138.444049 
L 307.320058 138.645444 
L 313.23883 138.749155 
L 320.231321 138.632398 
L 327.876235 138.27044 
L 343.99646 137.392507 
L 354.579275 137.118604 
L 356.652453 137.084366 
L 356.652453 137.084366 
" style="fill:none;stroke:#000000;stroke-linecap:square;stroke-opacity:0.7;stroke-width:1.2;"/>
   </g>
   <g id="line2d_47">
    <path clip-path="url(#pfb8137b57a)" d="M 356.610886 118.023822 
L 343.947798 115.702813 
L 335.062545 114.276389 
L 328.981529 113.52005 
L 324.44904 113.179111 
L 320.496496 113.104071 
L 316.664341 113.25488 
L 313.062278 113.598217 
L 309.288308 114.173671 
L 306.116212 114.865815 
L 304.049868 115.472691 
L 302.218581 116.202066 
L 300.912124 116.979029 
L 300.27465 117.658075 
L 300.148521 118.140519 
L 300.296177 118.494918 
L 300.739069 118.834631 
L 301.607354 119.148126 
L 303.987947 119.528498 
L 307.205097 119.743613 
L 312.558039 119.838641 
L 318.304128 119.719798 
L 324.257977 119.372687 
L 342.306988 118.057537 
L 349.122708 117.969133 
L 356.606048 118.053634 
L 356.606048 118.053634 
" style="fill:none;stroke:#000000;stroke-linecap:square;stroke-opacity:0.7;stroke-width:1.2;"/>
   </g>
   <g id="line2d_48">
    <path clip-path="url(#pfb8137b57a)" d="M 356.691028 98.686101 
L 350.10725 97.331451 
L 343.02687 96.078731 
L 336.517254 95.136317 
L 331.136951 94.555977 
L 326.189897 94.250797 
L 322.340015 94.211637 
L 317.725523 94.408037 
L 313.142269 94.841166 
L 308.808149 95.471266 
L 305.415894 96.188002 
L 303.201434 96.866435 
L 301.824991 97.465393 
L 300.684927 98.218701 
L 300.214085 98.824223 
L 300.160405 99.165302 
L 300.363578 99.545903 
L 300.766517 99.816786 
L 301.565602 100.100135 
L 303.157291 100.399187 
L 306.084413 100.659794 
L 310.23445 100.766999 
L 315.270379 100.651974 
L 320.691584 100.28274 
L 327.559848 99.543637 
L 334.315953 98.875706 
L 339.472871 98.603169 
L 345.413982 98.526526 
L 354.45614 98.665371 
L 356.694023 98.712419 
L 356.694023 98.712419 
" style="fill:none;stroke:#000000;stroke-linecap:square;stroke-opacity:0.7;stroke-width:1.2;"/>
   </g>
   <g id="line2d_49">
    <path clip-path="url(#pfb8137b57a)" d="M 356.714822 79.541397 
L 349.481642 78.079024 
L 342.241883 76.835355 
L 335.75731 75.945971 
L 330.450116 75.433974 
L 325.706796 75.209927 
L 321.216151 75.244556 
L 316.915127 75.489195 
L 312.09431 75.970419 
L 307.852027 76.59444 
L 304.710115 77.272462 
L 302.567895 77.965634 
L 301.307952 78.564832 
L 300.372091 79.246034 
L 299.943039 79.882347 
L 299.952132 80.316959 
L 300.25347 80.694037 
L 300.712442 80.958729 
L 301.944844 81.333909 
L 304.164841 81.666743 
L 307.292951 81.872406 
L 311.045712 81.90534 
L 315.066828 81.745237 
L 319.216574 81.381236 
L 323.647989 80.779569 
L 335.511465 78.962206 
L 339.227385 78.692122 
L 343.21133 78.628707 
L 348.100261 78.81625 
L 354.086019 79.301011 
L 356.717605 79.560134 
L 356.717605 79.560134 
" style="fill:none;stroke:#000000;stroke-linecap:square;stroke-opacity:0.7;stroke-width:1.2;"/>
   </g>
   <g id="line2d_50">
    <path clip-path="url(#pfb8137b57a)" d="M 356.739583 60.394345 
L 349.51038 58.958413 
L 342.361633 57.751039 
L 335.885057 56.875671 
L 330.000745 56.31288 
L 325.665232 56.094155 
L 321.026722 56.101297 
L 316.620723 56.358132 
L 312.128108 56.859603 
L 308.127599 57.520763 
L 304.680718 58.326464 
L 302.412183 59.092103 
L 300.926532 59.848678 
L 300.22534 60.458485 
L 300.028535 60.863702 
L 300.050338 61.154255 
L 300.355731 61.541924 
L 301.146632 61.949452 
L 302.921852 62.407911 
L 304.966443 62.705234 
L 308.581959 62.959558 
L 311.846849 62.980674 
L 315.516358 62.789507 
L 319.099631 62.374148 
L 322.934236 61.676467 
L 328.048455 60.458498 
L 333.21758 59.263634 
L 336.703328 58.694638 
L 339.265197 58.456139 
L 342.600397 58.393637 
L 345.867497 58.588764 
L 349.707006 59.081306 
L 354.129005 59.889212 
L 356.722327 60.438442 
L 356.722327 60.438442 
" style="fill:none;stroke:#000000;stroke-linecap:square;stroke-opacity:0.7;stroke-width:1.2;"/>
   </g>
   <g id="line2d_51">
    <path clip-path="url(#pfb8137b57a)" d="M 420.301612 232.972279 
L 407.031595 230.462106 
L 393.784349 227.948361 
L 389.575672 227.361183 
L 385.573081 227.016576 
L 381.708025 226.924913 
L 378.29604 227.056165 
L 375.293077 227.347908 
L 372.080458 227.872745 
L 369.678821 228.453596 
L 367.342718 229.257091 
L 365.583152 230.143911 
L 364.438234 231.02688 
L 363.932175 231.673021 
L 363.741826 232.211176 
L 363.80595 232.669882 
L 364.103941 233.025886 
L 364.618872 233.292239 
L 365.748454 233.563768 
L 368.606655 233.861644 
L 376.964289 234.351694 
L 398.211702 235.432506 
L 402.428014 235.310135 
L 406.728109 234.97426 
L 411.701828 234.358209 
L 419.003357 233.179527 
L 420.292691 232.956945 
L 420.292691 232.956945 
" style="fill:none;stroke:#000000;stroke-linecap:square;stroke-opacity:0.7;stroke-width:1.2;"/>
   </g>
   <g id="line2d_52">
    <path clip-path="url(#pfb8137b57a)" d="M 420.363731 213.710786 
L 390.724567 208.432195 
L 386.639273 208.054565 
L 382.980791 207.939659 
L 379.345833 208.034941 
L 375.576467 208.34104 
L 372.275866 208.797531 
L 369.752618 209.310974 
L 367.320246 210.034769 
L 365.703422 210.745575 
L 364.578417 211.456192 
L 363.940413 212.025579 
L 363.500335 212.608522 
L 363.293946 213.313452 
L 363.422339 213.706537 
L 363.70375 213.969661 
L 364.234542 214.20665 
L 365.197618 214.420212 
L 367.705949 214.672948 
L 374.369174 215.000737 
L 394.480413 215.722114 
L 400.02275 215.645735 
L 405.441767 215.34439 
L 411.900574 214.744887 
L 420.379049 213.717761 
L 420.379049 213.717761 
" style="fill:none;stroke:#000000;stroke-linecap:square;stroke-opacity:0.7;stroke-width:1.2;"/>
   </g>
   <g id="line2d_53">
    <path clip-path="url(#pfb8137b57a)" d="M 420.385716 194.587215 
L 407.397056 191.977753 
L 398.402629 190.373362 
L 392.578785 189.562395 
L 387.92375 189.154909 
L 384.273007 189.033969 
L 380.288257 189.118825 
L 376.590648 189.4087 
L 372.861478 189.942612 
L 370.289278 190.505382 
L 367.799039 191.289571 
L 366.022327 192.094109 
L 364.8199 192.864678 
L 363.931214 193.765765 
L 363.710463 194.276796 
L 363.744669 194.630334 
L 363.999092 194.937621 
L 364.397642 195.145596 
L 365.27802 195.374699 
L 367.388633 195.617529 
L 371.882871 195.830203 
L 381.674418 196.01448 
L 396.87979 196.108556 
L 403.392093 195.892895 
L 410.878852 195.412466 
L 420.394579 194.579493 
L 420.394579 194.579493 
" style="fill:none;stroke:#000000;stroke-linecap:square;stroke-opacity:0.7;stroke-width:1.2;"/>
   </g>
   <g id="line2d_54">
    <path clip-path="url(#pfb8137b57a)" d="M 420.396288 175.35745 
L 411.859346 173.599036 
L 402.966495 171.981247 
L 396.189634 170.957511 
L 391.000304 170.392747 
L 386.511074 170.138102 
L 382.543893 170.125021 
L 378.747317 170.304632 
L 374.924616 170.692871 
L 371.631409 171.2419 
L 368.930068 171.913826 
L 367.036054 172.57345 
L 365.498536 173.302214 
L 364.317979 174.107364 
L 363.731964 174.791647 
L 363.615546 175.252736 
L 363.746108 175.58582 
L 364.001529 175.815045 
L 364.56566 176.077278 
L 366.02693 176.402439 
L 368.433062 176.653257 
L 373.404653 176.880862 
L 381.624144 176.990951 
L 391.922903 176.901982 
L 400.505765 176.599485 
L 411.906339 175.937808 
L 420.388554 175.381724 
L 420.388554 175.381724 
" style="fill:none;stroke:#000000;stroke-linecap:square;stroke-opacity:0.7;stroke-width:1.2;"/>
   </g>
   <g id="line2d_55">
    <path clip-path="url(#pfb8137b57a)" d="M 420.452489 156.174987 
L 411.168852 154.295657 
L 402.342723 152.7127 
L 395.511901 151.709328 
L 390.813023 151.221852 
L 386.880568 151.00202 
L 383.126249 150.980629 
L 379.133688 151.168686 
L 375.03067 151.602383 
L 371.919537 152.129319 
L 369.459147 152.718728 
L 367.226076 153.464939 
L 365.507315 154.286032 
L 364.302439 155.159447 
L 363.789393 155.836144 
L 363.715981 156.27758 
L 363.906504 156.632365 
L 364.339256 156.909565 
L 365.089974 157.146309 
L 366.582841 157.386563 
L 369.761715 157.627636 
L 375.771082 157.809725 
L 383.451219 157.822876 
L 391.222142 157.619282 
L 402.266626 157.056919 
L 419.813984 156.21106 
L 420.448424 156.183141 
L 420.448424 156.183141 
" style="fill:none;stroke:#000000;stroke-linecap:square;stroke-opacity:0.7;stroke-width:1.2;"/>
   </g>
   <g id="line2d_56">
    <path clip-path="url(#pfb8137b57a)" d="M 420.422425 137.031733 
L 412.43049 135.344927 
L 404.556442 133.891601 
L 397.482312 132.804658 
L 392.383325 132.218597 
L 387.997853 131.9231 
L 384.048877 131.873379 
L 380.085592 132.047522 
L 376.464811 132.403012 
L 372.639464 133.001663 
L 369.762961 133.658345 
L 367.317516 134.460571 
L 365.75702 135.202386 
L 364.828641 135.828057 
L 364.117664 136.593252 
L 363.939432 137.166913 
L 364.014554 137.444389 
L 364.267134 137.726467 
L 364.747614 137.980425 
L 365.716123 138.241403 
L 367.724773 138.497279 
L 371.807737 138.700312 
L 377.893922 138.745254 
L 385.352828 138.563606 
L 393.371584 138.11385 
L 405.551806 137.394822 
L 414.09318 137.138506 
L 420.419231 137.04661 
L 420.419231 137.04661 
" style="fill:none;stroke:#000000;stroke-linecap:square;stroke-opacity:0.7;stroke-width:1.2;"/>
   </g>
   <g id="line2d_57">
    <path clip-path="url(#pfb8137b57a)" d="M 420.416007 117.895722 
L 412.361618 116.158827 
L 404.486209 114.68405 
L 398.079093 113.686661 
L 393.107002 113.105398 
L 388.477554 112.798679 
L 384.226346 112.771607 
L 380.045587 112.994644 
L 376.274425 113.403598 
L 372.582587 114.011062 
L 369.317086 114.7832 
L 367.171887 115.497711 
L 365.834217 116.103534 
L 364.677383 116.846333 
L 364.126013 117.410369 
L 363.898016 117.956449 
L 363.97313 118.307681 
L 364.254992 118.606876 
L 364.739711 118.85685 
L 366.156561 119.21204 
L 368.78184 119.50485 
L 372.77846 119.683449 
L 378.10411 119.700962 
L 384.104577 119.508489 
L 389.980384 119.118153 
L 403.523495 118.109351 
L 410.17199 117.914504 
L 418.414539 117.909428 
L 420.412071 117.928379 
L 420.412071 117.928379 
" style="fill:none;stroke:#000000;stroke-linecap:square;stroke-opacity:0.7;stroke-width:1.2;"/>
   </g>
   <g id="line2d_58">
    <path clip-path="url(#pfb8137b57a)" d="M 420.484424 98.701893 
L 413.310321 97.174192 
L 405.419604 95.711051 
L 398.748388 94.679377 
L 393.122019 94.018216 
L 388.503331 93.69717 
L 384.510297 93.638258 
L 380.788599 93.789485 
L 376.732725 94.189265 
L 373.110273 94.772226 
L 369.757994 95.557913 
L 367.397521 96.334102 
L 365.405692 97.263958 
L 364.473477 97.892405 
L 363.857814 98.53579 
L 363.673534 98.999926 
L 363.770684 99.39713 
L 363.986135 99.62277 
L 364.6466 99.95366 
L 366.340459 100.332738 
L 368.808834 100.589849 
L 372.885249 100.75323 
L 377.562799 100.715418 
L 382.167927 100.483241 
L 387.758578 99.957663 
L 400.027266 98.636731 
L 405.153145 98.395143 
L 410.907402 98.379357 
L 418.364 98.616124 
L 420.48281 98.707775 
L 420.48281 98.707775 
" style="fill:none;stroke:#000000;stroke-linecap:square;stroke-opacity:0.7;stroke-width:1.2;"/>
   </g>
   <g id="line2d_59">
    <path clip-path="url(#pfb8137b57a)" d="M 420.482851 79.50978 
L 413.763507 77.959719 
L 407.438096 76.71004 
L 401.344996 75.738246 
L 395.874247 75.102254 
L 391.245959 74.783186 
L 386.861893 74.708145 
L 382.443161 74.874108 
L 377.820541 75.294388 
L 373.448991 75.928418 
L 370.101404 76.627156 
L 367.344131 77.454513 
L 365.521482 78.259667 
L 364.416151 78.999475 
L 363.886365 79.627822 
L 363.791811 80.094377 
L 364.023252 80.514433 
L 364.554275 80.858703 
L 365.802158 81.259788 
L 367.810581 81.598671 
L 370.803352 81.847625 
L 374.516938 81.924497 
L 378.462827 81.792631 
L 382.363134 81.460124 
L 386.179106 80.946249 
L 393.345557 79.683968 
L 397.665928 79.027183 
L 401.64031 78.654156 
L 405.435691 78.530026 
L 409.928614 78.639769 
L 415.173685 79.018091 
L 420.47762 79.544714 
L 420.47762 79.544714 
" style="fill:none;stroke:#000000;stroke-linecap:square;stroke-opacity:0.7;stroke-width:1.2;"/>
   </g>
   <g id="line2d_60">
    <path clip-path="url(#pfb8137b57a)" d="M 420.501366 60.296909 
L 414.261147 58.887503 
L 407.572654 57.592352 
L 401.420697 56.618461 
L 396.082611 55.987878 
L 391.549388 55.664617 
L 387.65507 55.584213 
L 383.703601 55.70511 
L 378.984168 56.102298 
L 374.527242 56.714559 
L 370.576157 57.483671 
L 367.576521 58.306153 
L 366.068777 58.876616 
L 364.574034 59.695995 
L 363.979736 60.23583 
L 363.727414 60.697286 
L 363.754039 61.142675 
L 363.904307 61.375497 
L 364.390175 61.735898 
L 365.415232 62.12512 
L 367.388792 62.522427 
L 370.129198 62.800575 
L 373.665023 62.913681 
L 377.542916 62.796577 
L 381.48861 62.43004 
L 385.215901 61.849134 
L 389.565269 60.919046 
L 398.033311 59.019331 
L 401.325678 58.559465 
L 404.415915 58.364411 
L 407.554854 58.407899 
L 410.825636 58.683055 
L 414.847117 59.263656 
L 420.487488 60.343457 
L 420.487488 60.343457 
" style="fill:none;stroke:#000000;stroke-linecap:square;stroke-opacity:0.7;stroke-width:1.2;"/>
   </g>
   <g id="line2d_61">
    <path clip-path="url(#pfb8137b57a)" d="M 484.043492 232.930401 
L 462.560129 228.458661 
L 456.380743 227.398936 
L 451.757995 226.841866 
L 448.220468 226.618968 
L 445.024345 226.597457 
L 441.642136 226.775551 
L 438.519308 227.139537 
L 435.493618 227.709265 
L 433.102181 228.361915 
L 430.884438 229.214317 
L 429.428624 229.99966 
L 428.595285 230.608441 
L 427.865103 231.389627 
L 427.570382 232.08422 
L 427.610635 232.473265 
L 427.87124 232.832178 
L 428.484934 233.164905 
L 429.340166 233.391985 
L 431.824673 233.699713 
L 436.966926 234.013146 
L 450.209926 234.787282 
L 458.92949 235.347383 
L 463.727152 235.402323 
L 468.127839 235.20219 
L 472.358621 234.790003 
L 477.429944 234.074117 
L 484.033238 232.925639 
L 484.033238 232.925639 
" style="fill:none;stroke:#000000;stroke-linecap:square;stroke-opacity:0.7;stroke-width:1.2;"/>
   </g>
   <g id="line2d_62">
    <path clip-path="url(#pfb8137b57a)" d="M 484.126704 213.709391 
L 472.533952 211.163802 
L 464.181884 209.524825 
L 458.380498 208.57583 
L 453.251497 207.962332 
L 449.100707 207.689241 
L 445.474598 207.646569 
L 441.447388 207.83491 
L 437.808597 208.254079 
L 435.047463 208.781664 
L 432.716072 209.433625 
L 431.005777 210.09475 
L 429.55746 210.850757 
L 428.71738 211.432959 
L 427.89117 212.249365 
L 427.54102 212.969902 
L 427.598175 213.431758 
L 427.855306 213.736037 
L 428.393171 214.016865 
L 429.249421 214.245124 
L 430.945586 214.482387 
L 435.357235 214.792455 
L 450.995758 215.493477 
L 457.750968 215.664218 
L 463.169575 215.593676 
L 469.01235 215.282453 
L 475.510098 214.705266 
L 484.115144 213.726068 
L 484.115144 213.726068 
" style="fill:none;stroke:#000000;stroke-linecap:square;stroke-opacity:0.7;stroke-width:1.2;"/>
   </g>
   <g id="line2d_63">
    <path clip-path="url(#pfb8137b57a)" d="M 484.071949 194.524629 
L 471.707786 191.78935 
L 462.079514 189.877396 
L 456.460235 188.964958 
L 452.04293 188.481515 
L 448.321323 188.311245 
L 445.010256 188.366721 
L 441.259037 188.66724 
L 438.016239 189.138922 
L 434.938025 189.80774 
L 432.389781 190.599514 
L 430.459335 191.440307 
L 429.078738 192.276386 
L 428.070737 193.167591 
L 427.644089 193.798328 
L 427.53479 194.339826 
L 427.724718 194.741482 
L 428.037338 194.972492 
L 428.657986 195.209009 
L 430.318712 195.502709 
L 433.171243 195.733339 
L 439.685306 195.983508 
L 453.458489 196.249345 
L 460.598112 196.205599 
L 466.85314 195.955067 
L 474.848469 195.392079 
L 484.065429 194.558451 
L 484.065429 194.558451 
" style="fill:none;stroke:#000000;stroke-linecap:square;stroke-opacity:0.7;stroke-width:1.2;"/>
   </g>
   <g id="line2d_64">
    <path clip-path="url(#pfb8137b57a)" d="M 484.106469 175.409593 
L 472.602049 172.847138 
L 463.298854 170.975228 
L 457.55639 170.045956 
L 453.318267 169.590171 
L 449.466438 169.413101 
L 446.32601 169.450748 
L 442.354596 169.725516 
L 438.348016 170.255742 
L 435.259084 170.864704 
L 433.018639 171.461888 
L 430.611647 172.357479 
L 429.375711 173.011216 
L 428.498375 173.644695 
L 427.762467 174.48576 
L 427.576411 175.027056 
L 427.641478 175.407358 
L 427.937609 175.753822 
L 428.351901 175.983622 
L 429.534415 176.307638 
L 431.796021 176.58001 
L 436.391587 176.805625 
L 444.724065 176.940915 
L 455.16936 176.915981 
L 462.847807 176.67552 
L 473.450433 176.079257 
L 484.101522 175.41687 
L 484.101522 175.41687 
" style="fill:none;stroke:#000000;stroke-linecap:square;stroke-opacity:0.7;stroke-width:1.2;"/>
   </g>
   <g id="line2d_65">
    <path clip-path="url(#pfb8137b57a)" d="M 484.146241 156.233823 
L 475.539773 154.282495 
L 466.828186 152.542241 
L 459.873915 151.377659 
L 454.949288 150.765692 
L 451.053691 150.479304 
L 447.202054 150.403154 
L 443.00439 150.559903 
L 439.679535 150.869065 
L 436.427556 151.367068 
L 433.764331 151.983607 
L 431.394849 152.784552 
L 429.83241 153.524824 
L 428.371517 154.507866 
L 427.598989 155.345332 
L 427.36357 155.931564 
L 427.409318 156.299036 
L 427.696449 156.65594 
L 428.161102 156.912097 
L 429.352403 157.231903 
L 431.889144 157.529394 
L 436.114784 157.739695 
L 443.54599 157.854918 
L 451.813609 157.77634 
L 459.961699 157.466809 
L 484.140818 156.254314 
L 484.140818 156.254314 
" style="fill:none;stroke:#000000;stroke-linecap:square;stroke-opacity:0.7;stroke-width:1.2;"/>
   </g>
   <g id="line2d_66">
    <path clip-path="url(#pfb8137b57a)" d="M 484.142716 137.097164 
L 475.066653 134.975309 
L 466.366031 133.155531 
L 460.366104 132.098249 
L 455.89283 131.506965 
L 452.00064 131.205811 
L 448.961993 131.143026 
L 445.311338 131.28124 
L 441.560589 131.66198 
L 438.525859 132.146994 
L 434.947459 132.953806 
L 432.348334 133.772483 
L 430.387016 134.636914 
L 429.152229 135.422569 
L 428.376681 136.186486 
L 428.060601 136.809747 
L 428.044016 137.157578 
L 428.254754 137.557192 
L 428.681615 137.840018 
L 429.513065 138.094143 
L 431.447182 138.340575 
L 434.921591 138.504763 
L 441.864648 138.577616 
L 450.068925 138.437874 
L 457.467761 138.080216 
L 470.892588 137.36755 
L 480.24838 137.146635 
L 484.143314 137.10452 
L 484.143314 137.10452 
" style="fill:none;stroke:#000000;stroke-linecap:square;stroke-opacity:0.7;stroke-width:1.2;"/>
   </g>
   <g id="line2d_67">
    <path clip-path="url(#pfb8137b57a)" d="M 484.240453 117.762319 
L 476.772581 115.968617 
L 469.409206 114.435501 
L 462.905116 113.311093 
L 457.773996 112.631791 
L 453.214464 112.254902 
L 449.300303 112.154714 
L 445.232184 112.291223 
L 441.470607 112.633926 
L 437.536059 113.223215 
L 434.420732 113.896364 
L 431.933631 114.633315 
L 430.167568 115.342131 
L 428.952638 115.994584 
L 427.881652 116.811657 
L 427.265594 117.660637 
L 427.192658 118.175144 
L 427.34246 118.521966 
L 427.828056 118.897544 
L 428.83179 119.22704 
L 430.653983 119.492388 
L 433.870817 119.676927 
L 438.618535 119.720679 
L 445.25379 119.543523 
L 451.315435 119.174378 
L 468.696269 117.915061 
L 475.67921 117.765022 
L 484.235071 117.780497 
L 484.235071 117.780497 
" style="fill:none;stroke:#000000;stroke-linecap:square;stroke-opacity:0.7;stroke-width:1.2;"/>
   </g>
   <g id="line2d_68">
    <path clip-path="url(#pfb8137b57a)" d="M 484.169105 98.692827 
L 476.333133 96.768388 
L 469.766109 95.376652 
L 463.977223 94.366518 
L 458.938181 93.689756 
L 454.467109 93.290064 
L 450.542582 93.141224 
L 446.879913 93.20608 
L 443.111542 93.491994 
L 439.318147 94.012138 
L 435.989079 94.687548 
L 433.231877 95.454986 
L 431.511506 96.075651 
L 429.814069 96.862302 
L 428.458568 97.73213 
L 427.689315 98.530597 
L 427.521894 98.903485 
L 427.551401 99.332338 
L 427.743059 99.592352 
L 428.140437 99.850085 
L 428.820783 100.093183 
L 430.377454 100.385214 
L 433.270556 100.627395 
L 437.885112 100.717385 
L 443.138794 100.570097 
L 448.319294 100.2072 
L 454.659575 99.521496 
L 461.762355 98.779026 
L 466.323835 98.511014 
L 471.754444 98.420748 
L 479.244092 98.559686 
L 484.162058 98.712755 
L 484.162058 98.712755 
" style="fill:none;stroke:#000000;stroke-linecap:square;stroke-opacity:0.7;stroke-width:1.2;"/>
   </g>
   <g id="line2d_69">
    <path clip-path="url(#pfb8137b57a)" d="M 484.235365 79.371162 
L 478.047493 77.808002 
L 471.992654 76.47839 
L 466.13323 75.410582 
L 461.141893 74.702518 
L 456.2449 74.228937 
L 452.043909 74.038367 
L 447.677289 74.085387 
L 443.845098 74.341086 
L 439.679945 74.847925 
L 436.043201 75.506678 
L 433.03115 76.259145 
L 430.485152 77.14193 
L 428.910363 77.911606 
L 427.687669 78.819447 
L 427.205538 79.524876 
L 427.167232 80.020946 
L 427.275436 80.270422 
L 427.715034 80.674333 
L 428.879412 81.133524 
L 430.744663 81.482056 
L 433.887456 81.747967 
L 437.536237 81.823381 
L 442.038933 81.676672 
L 446.361585 81.298867 
L 450.354155 80.740727 
L 457.397549 79.459515 
L 462.32128 78.689856 
L 466.168308 78.33124 
L 470.140122 78.226186 
L 474.248145 78.37723 
L 478.933167 78.787822 
L 484.215035 79.420642 
L 484.215035 79.420642 
" style="fill:none;stroke:#000000;stroke-linecap:square;stroke-opacity:0.7;stroke-width:1.2;"/>
   </g>
   <g id="line2d_70">
    <path clip-path="url(#pfb8137b57a)" d="M 484.28417 60.300726 
L 478.337661 58.844338 
L 472.223855 57.559012 
L 466.312224 56.525396 
L 461.205363 55.825921 
L 456.16153 55.367287 
L 452.402552 55.218863 
L 448.443401 55.259815 
L 443.662289 55.56211 
L 439.188509 56.083066 
L 435.752916 56.677999 
L 432.991037 57.360016 
L 431.121602 58.003004 
L 429.637805 58.694719 
L 428.506611 59.422617 
L 427.704479 60.226471 
L 427.456131 60.839261 
L 427.587093 61.332511 
L 428.009382 61.72154 
L 428.961349 62.143035 
L 430.685212 62.548419 
L 433.147998 62.855667 
L 436.282424 63.012764 
L 439.846601 62.9624 
L 443.314584 62.699292 
L 446.740049 62.22797 
L 450.485743 61.477209 
L 457.137668 59.798979 
L 461.459834 58.850504 
L 464.771643 58.378202 
L 468.042189 58.179823 
L 471.038334 58.231274 
L 474.351794 58.517326 
L 477.956704 59.04377 
L 482.737346 59.971932 
L 484.276604 60.306712 
L 484.276604 60.306712 
" style="fill:none;stroke:#000000;stroke-linecap:square;stroke-opacity:0.7;stroke-width:1.2;"/>
   </g>
   <g id="line2d_71">
    <path clip-path="url(#pfb8137b57a)" d="M 547.821194 232.835948 
L 533.784432 229.409477 
L 525.932705 227.707535 
L 520.234772 226.700008 
L 515.949702 226.157196 
L 512.26007 225.902175 
L 508.496636 225.890993 
L 505.579091 226.075713 
L 502.652234 226.449166 
L 500.164395 226.937942 
L 497.771905 227.594088 
L 495.446839 228.474727 
L 493.876524 229.27787 
L 492.599857 230.149427 
L 491.713344 231.0116 
L 491.243857 231.851825 
L 491.239516 232.362568 
L 491.461305 232.716451 
L 491.983863 233.047548 
L 492.871104 233.324858 
L 494.362484 233.577464 
L 497.897269 233.892947 
L 507.320415 234.391936 
L 526.568133 235.326482 
L 531.183527 235.149561 
L 535.827918 234.723966 
L 541.19132 233.984318 
L 547.798077 232.840515 
L 547.798077 232.840515 
" style="fill:none;stroke:#000000;stroke-linecap:square;stroke-opacity:0.7;stroke-width:1.2;"/>
   </g>
   <g id="line2d_72">
    <path clip-path="url(#pfb8137b57a)" d="M 547.870564 213.768312 
L 525.454175 208.648044 
L 520.395309 207.720561 
L 516.134621 207.175742 
L 512.581754 206.94164 
L 508.772164 206.928617 
L 505.025401 207.156371 
L 501.853642 207.550638 
L 499.498688 207.990985 
L 496.889928 208.686757 
L 495.010269 209.396838 
L 493.496565 210.182096 
L 492.258147 211.085386 
L 491.622462 211.745196 
L 491.164644 212.488849 
L 491.036828 213.013645 
L 491.139854 213.503017 
L 491.562887 213.924276 
L 492.244482 214.207185 
L 493.473327 214.457542 
L 496.488432 214.753174 
L 503.503269 215.130024 
L 515.674781 215.561098 
L 522.909925 215.627931 
L 528.99038 215.457719 
L 534.650675 215.097669 
L 542.751441 214.327157 
L 547.875703 213.752201 
L 547.875703 213.752201 
" style="fill:none;stroke:#000000;stroke-linecap:square;stroke-opacity:0.7;stroke-width:1.2;"/>
   </g>
   <g id="line2d_73">
    <path clip-path="url(#pfb8137b57a)" d="M 547.87095 194.474914 
L 538.476631 192.090609 
L 530.511332 190.279911 
L 523.964324 189.018631 
L 519.404959 188.345937 
L 515.325234 187.968618 
L 511.669534 187.865155 
L 508.342209 187.986256 
L 504.933023 188.329981 
L 501.799495 188.852233 
L 499.017693 189.509064 
L 496.185404 190.436658 
L 494.577233 191.14757 
L 493.280882 191.892093 
L 492.357082 192.598405 
L 491.658505 193.37981 
L 491.3758 194.01989 
L 491.395234 194.422892 
L 491.647453 194.783805 
L 492.270414 195.108888 
L 493.568941 195.395533 
L 495.736164 195.61676 
L 500.901466 195.861765 
L 512.379697 196.123558 
L 522.179728 196.188558 
L 528.754837 196.003794 
L 535.695042 195.583235 
L 545.066217 194.765655 
L 547.85462 194.489501 
L 547.85462 194.489501 
" style="fill:none;stroke:#000000;stroke-linecap:square;stroke-opacity:0.7;stroke-width:1.2;"/>
   </g>
   <g id="line2d_74">
    <path clip-path="url(#pfb8137b57a)" d="M 547.833763 175.396894 
L 538.057543 172.851757 
L 531.200564 171.263231 
L 524.779508 170.005321 
L 519.704439 169.239007 
L 515.214653 168.808046 
L 511.92074 168.687892 
L 508.186663 168.786687 
L 504.872442 169.099118 
L 501.990647 169.556867 
L 498.887898 170.279918 
L 496.628703 171.008973 
L 494.575118 171.902368 
L 493.003307 172.847043 
L 492.057155 173.6452 
L 491.36684 174.606479 
L 491.253612 175.153343 
L 491.38586 175.555476 
L 491.654944 175.824194 
L 492.151716 176.07526 
L 493.186417 176.334389 
L 495.072099 176.549383 
L 499.318682 176.732944 
L 508.599554 176.834527 
L 520.230604 176.767735 
L 527.763214 176.498586 
L 543.891822 175.618975 
L 547.820086 175.404549 
L 547.820086 175.404549 
" style="fill:none;stroke:#000000;stroke-linecap:square;stroke-opacity:0.7;stroke-width:1.2;"/>
   </g>
   <g id="line2d_75">
    <path clip-path="url(#pfb8137b57a)" d="M 547.928286 156.140756 
L 539.609996 154.095173 
L 532.048949 152.437643 
L 525.138836 151.148063 
L 520.24213 150.450513 
L 515.860828 150.067227 
L 511.974052 149.96199 
L 507.929724 150.091463 
L 504.112413 150.436874 
L 501.011125 150.90191 
L 498.051041 151.563283 
L 495.679233 152.337614 
L 494.225307 152.986061 
L 492.674981 153.923666 
L 491.779771 154.685684 
L 491.188849 155.457666 
L 491.017852 156.040775 
L 491.174547 156.493882 
L 491.62044 156.827215 
L 492.744323 157.171172 
L 494.593881 157.429012 
L 498.110137 157.659114 
L 504.384327 157.801079 
L 511.921166 157.743304 
L 520.138061 157.458123 
L 547.92394 156.150539 
L 547.92394 156.150539 
" style="fill:none;stroke:#000000;stroke-linecap:square;stroke-opacity:0.7;stroke-width:1.2;"/>
   </g>
   <g id="line2d_76">
    <path clip-path="url(#pfb8137b57a)" d="M 547.829602 137.119097 
L 537.538223 134.430873 
L 529.985967 132.676492 
L 524.388434 131.579824 
L 519.919942 130.906792 
L 516.07443 130.54455 
L 513.057237 130.444913 
L 509.693785 130.552556 
L 506.867319 130.824847 
L 503.700871 131.321026 
L 500.155203 132.120227 
L 497.15502 133.043995 
L 495.232846 133.822459 
L 493.728071 134.615653 
L 492.724161 135.316724 
L 491.81269 136.265741 
L 491.517657 136.93645 
L 491.542827 137.326771 
L 491.804844 137.696681 
L 492.219925 137.942535 
L 493.196225 138.219565 
L 494.965815 138.439834 
L 498.647784 138.604316 
L 504.922611 138.622973 
L 513.325527 138.408582 
L 521.827037 137.956714 
L 532.688343 137.398895 
L 541.414335 137.184416 
L 547.827968 137.120221 
L 547.827968 137.120221 
" style="fill:none;stroke:#000000;stroke-linecap:square;stroke-opacity:0.7;stroke-width:1.2;"/>
   </g>
   <g id="line2d_77">
    <path clip-path="url(#pfb8137b57a)" d="M 547.944695 117.75759 
L 539.902061 115.659194 
L 532.541811 113.968869 
L 527.000534 112.893492 
L 522.096071 112.142123 
L 517.647881 111.690104 
L 513.667324 111.526434 
L 510.192876 111.59312 
L 506.703011 111.858606 
L 503.291461 112.309153 
L 500.016569 112.935232 
L 496.829788 113.78564 
L 494.637018 114.591281 
L 493.10102 115.344012 
L 491.593007 116.390333 
L 490.889603 117.166816 
L 490.610783 117.7865 
L 490.629533 118.248371 
L 490.800375 118.545298 
L 491.227237 118.869632 
L 491.976909 119.151948 
L 493.499431 119.427581 
L 496.023919 119.617395 
L 500.515394 119.687114 
L 506.331334 119.556208 
L 513.463569 119.168383 
L 533.36873 117.834159 
L 540.935056 117.737689 
L 547.940855 117.777258 
L 547.940855 117.777258 
" style="fill:none;stroke:#000000;stroke-linecap:square;stroke-opacity:0.7;stroke-width:1.2;"/>
   </g>
   <g id="line2d_78">
    <path clip-path="url(#pfb8137b57a)" d="M 547.975023 98.618463 
L 541.435619 96.896984 
L 535.002415 95.423926 
L 528.61816 94.202401 
L 523.279192 93.402375 
L 518.84813 92.943717 
L 514.812573 92.739795 
L 510.590445 92.777586 
L 506.763964 93.036998 
L 502.95327 93.515832 
L 499.837378 94.106852 
L 497.134288 94.832888 
L 495.059364 95.605711 
L 493.650512 96.304039 
L 492.238702 97.257498 
L 491.385278 98.146887 
L 491.104361 98.799962 
L 491.136455 99.133264 
L 491.430009 99.523378 
L 492.173046 99.900897 
L 493.299914 100.188775 
L 495.461414 100.479401 
L 499.152203 100.688634 
L 503.74697 100.700311 
L 508.877517 100.48104 
L 514.318937 100.013307 
L 528.278807 98.609365 
L 533.615177 98.406773 
L 539.9323 98.412538 
L 547.980035 98.616153 
L 547.980035 98.616153 
" style="fill:none;stroke:#000000;stroke-linecap:square;stroke-opacity:0.7;stroke-width:1.2;"/>
   </g>
   <g id="line2d_79">
    <path clip-path="url(#pfb8137b57a)" d="M 548.037928 79.336843 
L 542.42503 77.747487 
L 536.980998 76.405279 
L 531.405762 75.242312 
L 525.955784 74.340425 
L 521.141142 73.790639 
L 517.097683 73.559762 
L 512.809725 73.570585 
L 508.20839 73.848595 
L 503.779989 74.342676 
L 499.904744 74.983949 
L 497.292757 75.596862 
L 495.258362 76.258861 
L 493.733814 76.935016 
L 492.274611 77.832275 
L 491.424342 78.578791 
L 490.833191 79.429402 
L 490.724734 80.028008 
L 490.866004 80.415309 
L 491.284541 80.803163 
L 492.298082 81.221786 
L 494.013148 81.560232 
L 496.298486 81.779208 
L 499.830176 81.883562 
L 503.732798 81.787079 
L 508.260435 81.43661 
L 512.558135 80.86881 
L 518.971372 79.716653 
L 523.700358 78.930852 
L 527.803184 78.485483 
L 531.797448 78.302166 
L 535.831857 78.344497 
L 540.557064 78.621527 
L 547.102372 79.260607 
L 548.02858 79.364492 
L 548.02858 79.364492 
" style="fill:none;stroke:#000000;stroke-linecap:square;stroke-opacity:0.7;stroke-width:1.2;"/>
   </g>
   <g id="line2d_80">
    <path clip-path="url(#pfb8137b57a)" d="M 548.030546 60.254575 
L 542.042313 58.590252 
L 535.762007 57.080548 
L 530.084774 55.957709 
L 524.959463 55.180385 
L 520.347153 54.7155 
L 516.561292 54.535211 
L 512.637034 54.562858 
L 508.332671 54.846874 
L 504.093578 55.381504 
L 500.427902 56.069423 
L 497.477614 56.829872 
L 495.102603 57.658375 
L 493.450451 58.437349 
L 492.170438 59.27968 
L 491.550896 59.889092 
L 491.225802 60.478998 
L 491.211628 60.930237 
L 491.407418 61.296363 
L 491.813977 61.630535 
L 492.735262 62.035677 
L 494.199042 62.39969 
L 497.030879 62.772238 
L 500.09004 62.933991 
L 503.335467 62.915495 
L 507.131285 62.667457 
L 510.72066 62.202606 
L 514.605226 61.450201 
L 520.294546 60.048713 
L 524.732987 59.022694 
L 528.000357 58.482238 
L 531.120905 58.208578 
L 534.201995 58.189943 
L 537.565173 58.433989 
L 541.272111 58.955579 
L 546.455675 59.956926 
L 548.014712 60.290608 
L 548.014712 60.290608 
" style="fill:none;stroke:#000000;stroke-linecap:square;stroke-opacity:0.7;stroke-width:1.2;"/>
   </g>
   <g id="line2d_81">
    <path clip-path="url(#pfb8137b57a)" d="M 611.591734 232.900669 
L 589.350355 227.001585 
L 584.237739 225.939789 
L 580.177299 225.3462 
L 577.040471 225.08183 
L 573.481831 225.008916 
L 570.404567 225.148854 
L 567.107294 225.52089 
L 563.975888 226.120309 
L 561.578484 226.790375 
L 559.383841 227.639206 
L 557.813036 228.46476 
L 556.347736 229.530968 
L 555.630096 230.263898 
L 555.017101 231.223062 
L 554.839105 232.001714 
L 554.944132 232.45868 
L 555.124059 232.715715 
L 555.692837 233.089812 
L 556.758784 233.394852 
L 559.064463 233.690064 
L 564.763691 234.071432 
L 588.59128 235.341504 
L 593.279259 235.23456 
L 597.779864 234.90356 
L 602.623658 234.331143 
L 608.94245 233.357621 
L 611.584694 232.907612 
L 611.584694 232.907612 
" style="fill:none;stroke:#000000;stroke-linecap:square;stroke-opacity:0.7;stroke-width:1.2;"/>
   </g>
   <g id="line2d_82">
    <path clip-path="url(#pfb8137b57a)" d="M 611.560821 213.692454 
L 599.390138 210.283971 
L 592.489674 208.543471 
L 587.363634 207.466324 
L 583.388617 206.83093 
L 579.71804 206.450913 
L 575.901126 206.302562 
L 572.098162 206.41997 
L 568.850668 206.73461 
L 565.707065 207.243329 
L 562.6218 207.984375 
L 560.156136 208.824193 
L 558.400879 209.634377 
L 556.934231 210.541253 
L 555.823487 211.503428 
L 555.287667 212.192915 
L 555.001787 212.90533 
L 555.026874 213.358581 
L 555.292325 213.764575 
L 555.718058 214.0416 
L 556.488911 214.306381 
L 557.932447 214.563647 
L 561.233461 214.839819 
L 568.267711 215.108983 
L 587.82262 215.576543 
L 593.146024 215.445333 
L 599.139622 215.05285 
L 606.074029 214.348331 
L 611.567964 213.674985 
L 611.567964 213.674985 
" style="fill:none;stroke:#000000;stroke-linecap:square;stroke-opacity:0.7;stroke-width:1.2;"/>
   </g>
   <g id="line2d_83">
    <path clip-path="url(#pfb8137b57a)" d="M 611.621135 194.50016 
L 602.107771 191.789684 
L 594.230495 189.77472 
L 588.522753 188.530997 
L 583.676466 187.714398 
L 579.567448 187.275947 
L 576.106469 187.126115 
L 572.267888 187.204648 
L 569.136357 187.46067 
L 565.793508 187.943462 
L 562.999776 188.558389 
L 560.773364 189.247113 
L 558.92155 190.022054 
L 557.318369 190.922579 
L 555.979294 191.95579 
L 555.340864 192.629692 
L 554.740976 193.640388 
L 554.661384 194.2279 
L 554.834235 194.66272 
L 555.125027 194.929622 
L 555.851103 195.246703 
L 557.111165 195.500679 
L 559.662891 195.729325 
L 564.498748 195.909536 
L 578.556061 196.126639 
L 588.031076 196.124363 
L 594.624981 195.89079 
L 602.428085 195.362974 
L 611.61761 194.512259 
L 611.61761 194.512259 
" style="fill:none;stroke:#000000;stroke-linecap:square;stroke-opacity:0.7;stroke-width:1.2;"/>
   </g>
   <g id="line2d_84">
    <path clip-path="url(#pfb8137b57a)" d="M 611.58244 175.353672 
L 602.515924 172.665579 
L 594.450857 170.507362 
L 588.472809 169.147089 
L 583.843188 168.330804 
L 580.138423 167.902439 
L 576.726696 167.739349 
L 573.518519 167.817179 
L 570.417363 168.113318 
L 567.162991 168.658135 
L 564.365177 169.327794 
L 561.742901 170.156844 
L 559.26244 171.198576 
L 557.405889 172.26626 
L 556.42102 173.032124 
L 555.589868 173.939125 
L 555.166903 174.770489 
L 555.120242 175.227392 
L 555.27603 175.6487 
L 555.606202 175.94876 
L 556.13825 176.186719 
L 557.240258 176.428161 
L 559.541252 176.645271 
L 564.24886 176.817462 
L 574.478563 176.928403 
L 583.768414 176.849915 
L 591.814802 176.561002 
L 603.665181 175.877816 
L 611.567451 175.358434 
L 611.567451 175.358434 
" style="fill:none;stroke:#000000;stroke-linecap:square;stroke-opacity:0.7;stroke-width:1.2;"/>
   </g>
   <g id="line2d_85">
    <path clip-path="url(#pfb8137b57a)" d="M 611.660452 156.167383 
L 604.025452 153.847976 
L 597.116111 151.963743 
L 591.377559 150.61026 
L 586.343933 149.643478 
L 582.264483 149.069845 
L 578.383535 148.753209 
L 574.889911 148.693586 
L 571.355343 148.868294 
L 567.778628 149.299408 
L 564.632883 149.917893 
L 561.996879 150.657967 
L 559.805218 151.495845 
L 557.939414 152.460915 
L 556.422983 153.547325 
L 555.297186 154.777604 
L 554.947677 155.489025 
L 554.917037 156.114511 
L 555.155275 156.51648 
L 555.720295 156.862525 
L 556.889035 157.16864 
L 558.602561 157.381621 
L 562.960081 157.627605 
L 571.119347 157.807838 
L 579.404894 157.788422 
L 585.912971 157.548339 
L 611.640447 156.183671 
L 611.640447 156.183671 
" style="fill:none;stroke:#000000;stroke-linecap:square;stroke-opacity:0.7;stroke-width:1.2;"/>
   </g>
   <g id="line2d_86">
    <path clip-path="url(#pfb8137b57a)" d="M 611.737749 136.914141 
L 605.521953 135.102005 
L 598.508995 133.268363 
L 592.039031 131.807065 
L 587.225982 130.923456 
L 583.209957 130.3769 
L 579.148971 130.053361 
L 575.226936 129.987987 
L 571.476835 130.158725 
L 567.825191 130.555507 
L 564.81779 131.086605 
L 561.924964 131.842286 
L 560.413173 132.376752 
L 558.636058 133.185766 
L 557.015319 134.174146 
L 556.062751 134.935428 
L 555.12552 135.974333 
L 554.773639 136.680033 
L 554.732731 137.053441 
L 554.876531 137.440125 
L 555.442844 137.851102 
L 556.423774 138.139837 
L 558.236221 138.388158 
L 561.978711 138.602406 
L 567.975683 138.68044 
L 574.868006 138.546895 
L 582.107781 138.179363 
L 597.029265 137.341683 
L 608.938764 136.978236 
L 611.73673 136.908259 
L 611.73673 136.908259 
" style="fill:none;stroke:#000000;stroke-linecap:square;stroke-opacity:0.7;stroke-width:1.2;"/>
   </g>
   <g id="line2d_87">
    <path clip-path="url(#pfb8137b57a)" d="M 611.675695 117.817442 
L 604.93162 115.801734 
L 597.69895 113.869018 
L 592.023101 112.56605 
L 587.437677 111.713961 
L 583.555499 111.19338 
L 580.198171 110.935565 
L 576.50165 110.886811 
L 572.716664 111.09606 
L 568.936983 111.559664 
L 565.776957 112.152476 
L 563.123135 112.82753 
L 560.70282 113.644131 
L 558.940651 114.424603 
L 557.549148 115.218984 
L 556.431407 116.054013 
L 555.577954 116.96695 
L 555.247265 117.613476 
L 555.215607 118.034512 
L 555.454642 118.47355 
L 555.86049 118.747868 
L 557.018309 119.106822 
L 559.005168 119.378795 
L 562.677339 119.576566 
L 567.742219 119.603925 
L 573.821142 119.413826 
L 580.692738 118.950353 
L 593.319666 117.988814 
L 599.875044 117.789258 
L 608.192815 117.795264 
L 611.678611 117.83308 
L 611.678611 117.83308 
" style="fill:none;stroke:#000000;stroke-linecap:square;stroke-opacity:0.7;stroke-width:1.2;"/>
   </g>
   <g id="line2d_88">
    <path clip-path="url(#pfb8137b57a)" d="M 611.68519 98.591056 
L 604.95965 96.482185 
L 598.699059 94.729628 
L 593.053519 93.387558 
L 588.072633 92.446818 
L 584.224049 91.916662 
L 580.131856 91.589322 
L 576.401581 91.543398 
L 573.169972 91.71635 
L 569.941745 92.090756 
L 566.683844 92.677552 
L 563.566668 93.456377 
L 561.19242 94.229439 
L 559.16086 95.069869 
L 557.557945 95.920387 
L 556.166272 96.911325 
L 555.361807 97.737187 
L 554.89573 98.607121 
L 554.867321 99.079926 
L 555.029232 99.456562 
L 555.465385 99.826198 
L 556.035069 100.07255 
L 557.512096 100.392973 
L 560.071441 100.620493 
L 564.131071 100.700066 
L 569.322546 100.55763 
L 574.682984 100.193242 
L 581.411707 99.474334 
L 589.208791 98.638876 
L 593.756363 98.357118 
L 598.779393 98.25682 
L 605.715071 98.385807 
L 611.677384 98.605501 
L 611.677384 98.605501 
" style="fill:none;stroke:#000000;stroke-linecap:square;stroke-opacity:0.7;stroke-width:1.2;"/>
   </g>
   <g id="line2d_89">
    <path clip-path="url(#pfb8137b57a)" d="M 611.764272 79.371939 
L 605.741997 77.418859 
L 600.115183 75.832162 
L 595.11544 74.654238 
L 590.601794 73.805907 
L 586.146452 73.195577 
L 582.251926 72.874184 
L 578.292175 72.776924 
L 574.232719 72.931919 
L 570.382146 73.320461 
L 567.14778 73.839887 
L 564.035684 74.540467 
L 561.617751 75.269114 
L 559.318988 76.18498 
L 557.781964 76.985067 
L 556.338263 77.978026 
L 555.436916 78.875424 
L 555.084972 79.477789 
L 555.013595 79.921792 
L 555.181924 80.347733 
L 555.529136 80.652906 
L 556.307236 81.001902 
L 557.695346 81.333459 
L 560.168207 81.63433 
L 563.367103 81.788619 
L 567.744581 81.746942 
L 572.148672 81.467044 
L 576.943784 80.907965 
L 583.148405 79.908193 
L 588.779351 79.07548 
L 592.746799 78.712301 
L 596.584749 78.574451 
L 601.256296 78.656607 
L 607.040696 79.014738 
L 611.759687 79.396247 
L 611.759687 79.396247 
" style="fill:none;stroke:#000000;stroke-linecap:square;stroke-opacity:0.7;stroke-width:1.2;"/>
   </g>
   <g id="line2d_90">
    <path clip-path="url(#pfb8137b57a)" d="M 611.764508 60.253352 
L 606.109609 58.443192 
L 600.302857 56.819322 
L 595.202851 55.615305 
L 590.15774 54.655589 
L 585.701444 54.02975 
L 581.839517 53.688644 
L 577.570198 53.565307 
L 573.686046 53.702801 
L 569.919467 54.072345 
L 566.846153 54.56317 
L 563.542548 55.327027 
L 561.019472 56.137578 
L 558.685456 57.150241 
L 557.197674 58.001047 
L 555.803949 59.071946 
L 555.284967 59.627742 
L 554.833475 60.435832 
L 554.812449 60.956678 
L 554.957624 61.271697 
L 555.323528 61.619991 
L 556.102223 62.004928 
L 557.717415 62.429286 
L 560.271305 62.775683 
L 563.824669 62.96474 
L 567.435766 62.919873 
L 571.015745 62.658427 
L 574.575506 62.1734 
L 578.274955 61.429401 
L 583.099023 60.204845 
L 587.696853 59.073528 
L 590.997146 58.473424 
L 593.868415 58.165489 
L 596.5565 58.075286 
L 599.496286 58.188494 
L 603.151222 58.594478 
L 606.832475 59.225437 
L 611.739185 60.273088 
L 611.739185 60.273088 
" style="fill:none;stroke:#000000;stroke-linecap:square;stroke-opacity:0.7;stroke-width:1.2;"/>
   </g>
   <g id="line2d_91">
    <path clip-path="url(#pfb8137b57a)" d="M 675.341242 232.809857 
L 664.237958 229.310768 
L 655.870692 226.823685 
L 650.936881 225.573657 
L 647.289266 224.842307 
L 643.475624 224.312547 
L 639.9283 224.069917 
L 636.521672 224.081526 
L 633.223188 224.335343 
L 630.162749 224.809168 
L 627.609307 225.417802 
L 625.389128 226.155552 
L 623.637996 226.928408 
L 622.086385 227.819278 
L 620.681832 228.889661 
L 619.553788 230.09773 
L 619.009643 230.978354 
L 618.746701 231.896195 
L 618.811724 232.389086 
L 618.977833 232.681872 
L 619.441505 233.043641 
L 620.375187 233.363026 
L 622.235508 233.648859 
L 626.445204 233.972441 
L 652.021879 235.462465 
L 656.219289 235.404081 
L 660.023198 235.165279 
L 664.544856 234.665156 
L 669.610742 233.885117 
L 675.329942 232.831478 
L 675.329942 232.831478 
" style="fill:none;stroke:#000000;stroke-linecap:square;stroke-opacity:0.7;stroke-width:1.2;"/>
   </g>
   <g id="line2d_92">
    <path clip-path="url(#pfb8137b57a)" d="M 675.337101 213.666766 
L 666.443752 210.802404 
L 658.81401 208.535333 
L 652.787348 206.971173 
L 648.204508 206.006884 
L 644.328157 205.413813 
L 641.092466 205.119039 
L 637.934046 205.034235 
L 634.978585 205.152593 
L 631.857796 205.504992 
L 629.361885 205.980651 
L 626.845937 206.677024 
L 624.903162 207.407935 
L 623.258408 208.201336 
L 621.482151 209.305962 
L 620.167794 210.375993 
L 619.343317 211.251838 
L 618.682366 212.290325 
L 618.516665 212.901712 
L 618.580784 213.361988 
L 618.755239 213.638272 
L 619.157234 213.940127 
L 620.140524 214.279184 
L 621.787962 214.543774 
L 625.214019 214.817017 
L 635.832098 215.31155 
L 647.362545 215.715376 
L 653.028485 215.689596 
L 658.91571 215.420105 
L 665.1075 214.899711 
L 672.688936 214.035605 
L 675.3295 213.70009 
L 675.3295 213.70009 
" style="fill:none;stroke:#000000;stroke-linecap:square;stroke-opacity:0.7;stroke-width:1.2;"/>
   </g>
   <g id="line2d_93">
    <path clip-path="url(#pfb8137b57a)" d="M 675.307211 194.452866 
L 668.212644 191.986949 
L 661.111092 189.718775 
L 656.01855 188.285973 
L 651.375447 187.196186 
L 647.405955 186.492827 
L 643.7605 186.089114 
L 640.582556 185.960854 
L 637.572394 186.045205 
L 634.311011 186.364353 
L 631.29851 186.872547 
L 628.265961 187.614897 
L 625.711242 188.4747 
L 623.703591 189.374913 
L 621.955066 190.414025 
L 620.679341 191.416964 
L 619.73982 192.4037 
L 619.092194 193.4489 
L 618.947298 194.031326 
L 619.036167 194.504606 
L 619.295667 194.823521 
L 619.727793 195.077244 
L 620.973539 195.410202 
L 623.432722 195.678596 
L 627.994864 195.896022 
L 638.894253 196.146459 
L 649.169493 196.221972 
L 655.915291 196.042755 
L 663.145366 195.605405 
L 671.913964 194.825887 
L 675.298991 194.482456 
L 675.298991 194.482456 
" style="fill:none;stroke:#000000;stroke-linecap:square;stroke-opacity:0.7;stroke-width:1.2;"/>
   </g>
   <g id="line2d_94">
    <path clip-path="url(#pfb8137b57a)" d="M 675.422515 175.266259 
L 667.424034 172.567375 
L 659.700323 170.158749 
L 654.235218 168.657372 
L 649.796924 167.643697 
L 645.969453 166.981089 
L 642.361736 166.588413 
L 639.018498 166.461255 
L 635.943014 166.565962 
L 632.61321 166.938911 
L 629.536538 167.553495 
L 626.98468 168.301955 
L 624.604291 169.257773 
L 622.6958 170.27821 
L 621.090086 171.40551 
L 619.922639 172.488547 
L 619.144359 173.47495 
L 618.677436 174.458126 
L 618.621255 175.033901 
L 618.717054 175.359041 
L 619.230527 175.849794 
L 620.179874 176.179908 
L 621.933881 176.44724 
L 625.495654 176.695929 
L 632.747859 176.933783 
L 641.578108 177.008731 
L 648.941889 176.840274 
L 658.188586 176.372952 
L 675.414245 175.263276 
L 675.414245 175.263276 
" style="fill:none;stroke:#000000;stroke-linecap:square;stroke-opacity:0.7;stroke-width:1.2;"/>
   </g>
   <g id="line2d_95">
    <path clip-path="url(#pfb8137b57a)" d="M 675.447704 156.03195 
L 668.480009 153.651659 
L 661.853311 151.607106 
L 656.422268 150.156184 
L 651.982052 149.177749 
L 648.157833 148.530426 
L 644.79553 148.146803 
L 641.252066 147.961926 
L 638.118122 148.00197 
L 634.850699 148.25518 
L 631.414567 148.768116 
L 628.463686 149.442324 
L 626.057816 150.199426 
L 623.843417 151.128905 
L 622.342007 151.941413 
L 620.776091 153.025556 
L 619.653537 154.053293 
L 618.891549 155.04487 
L 618.586186 155.850223 
L 618.634411 156.293605 
L 618.937796 156.677759 
L 619.471338 156.953867 
L 620.758099 157.252363 
L 622.916734 157.472301 
L 627.137237 157.654086 
L 634.950539 157.735347 
L 643.025853 157.607108 
L 651.998604 157.217588 
L 675.436835 156.040169 
L 675.436835 156.040169 
" style="fill:none;stroke:#000000;stroke-linecap:square;stroke-opacity:0.7;stroke-width:1.2;"/>
   </g>
   <g id="line2d_96">
    <path clip-path="url(#pfb8137b57a)" d="M 675.451004 136.827153 
L 667.883929 134.235154 
L 661.901152 132.393969 
L 656.203927 130.880776 
L 651.813491 129.927693 
L 647.969143 129.293759 
L 644.204491 128.90432 
L 641.074006 128.786475 
L 637.753188 128.882309 
L 634.836802 129.156409 
L 631.36475 129.71717 
L 628.307084 130.440751 
L 625.550274 131.322629 
L 623.156328 132.337175 
L 621.314069 133.358418 
L 619.66873 134.578336 
L 618.611232 135.731216 
L 618.214339 136.547657 
L 618.194775 137.03483 
L 618.346335 137.377649 
L 618.797795 137.756214 
L 619.551467 138.052216 
L 620.994223 138.331264 
L 623.152076 138.527266 
L 627.769577 138.661082 
L 633.897338 138.602951 
L 641.771487 138.309499 
L 669.32996 136.999478 
L 675.437765 136.839586 
L 675.437765 136.839586 
" style="fill:none;stroke:#000000;stroke-linecap:square;stroke-opacity:0.7;stroke-width:1.2;"/>
   </g>
   <g id="line2d_97">
    <path clip-path="url(#pfb8137b57a)" d="M 675.404814 117.776421 
L 668.179772 115.261019 
L 662.535086 113.490465 
L 657.510316 112.115594 
L 652.776294 111.038458 
L 648.819586 110.338762 
L 645.138483 109.892978 
L 641.81474 109.696434 
L 638.643445 109.714689 
L 635.309405 109.961856 
L 632.296774 110.39248 
L 629.201145 111.060162 
L 626.704732 111.803969 
L 624.293695 112.767212 
L 622.701483 113.596679 
L 620.935733 114.798507 
L 619.589983 116.077067 
L 618.945982 116.996299 
L 618.694992 117.705102 
L 618.718503 118.162081 
L 618.930447 118.533913 
L 619.326286 118.829977 
L 619.61695 118.963312 
L 621.1315 119.322661 
L 623.277945 119.527207 
L 626.887028 119.631477 
L 632.045658 119.557611 
L 638.076007 119.258678 
L 646.072753 118.606061 
L 652.925267 118.100632 
L 659.825345 117.841667 
L 668.796152 117.764605 
L 675.40411 117.774142 
L 675.40411 117.774142 
" style="fill:none;stroke:#000000;stroke-linecap:square;stroke-opacity:0.7;stroke-width:1.2;"/>
   </g>
   <g id="line2d_98">
    <path clip-path="url(#pfb8137b57a)" d="M 675.452245 98.557864 
L 669.469588 96.405889 
L 663.328644 94.433184 
L 658.37649 93.061479 
L 653.808664 92.008092 
L 649.333955 91.215727 
L 645.586673 90.77784 
L 642.400916 90.600526 
L 638.897677 90.638082 
L 635.715094 90.89489 
L 632.460373 91.385828 
L 629.452653 92.064405 
L 626.974438 92.817987 
L 624.561683 93.773828 
L 622.379525 94.909612 
L 620.774793 96.006033 
L 619.523027 97.159083 
L 618.890018 98.024805 
L 618.666689 98.612396 
L 618.69672 99.113845 
L 618.875519 99.407158 
L 619.360846 99.755327 
L 620.480672 100.124744 
L 622.183819 100.399752 
L 625.340124 100.622657 
L 629.866193 100.663393 
L 635.232114 100.456063 
L 640.585431 100.026412 
L 656.837006 98.493501 
L 662.674075 98.354184 
L 669.925801 98.431162 
L 675.458567 98.556335 
L 675.458567 98.556335 
" style="fill:none;stroke:#000000;stroke-linecap:square;stroke-opacity:0.7;stroke-width:1.2;"/>
   </g>
   <g id="line2d_99">
    <path clip-path="url(#pfb8137b57a)" d="M 675.431846 79.470868 
L 668.90906 77.071259 
L 663.31721 75.233387 
L 658.557254 73.880532 
L 654.039984 72.818415 
L 650.160334 72.111794 
L 646.263712 71.633184 
L 643.278104 71.45214 
L 639.873475 71.46785 
L 636.753492 71.701748 
L 633.392553 72.192274 
L 630.538377 72.808442 
L 627.517394 73.682936 
L 625.068685 74.602243 
L 622.857636 75.666568 
L 621.251303 76.663969 
L 619.924147 77.759056 
L 619.300346 78.469141 
L 618.835653 79.342188 
L 618.784572 79.863364 
L 618.975283 80.321164 
L 619.329939 80.6414 
L 620.114154 80.999773 
L 621.85063 81.378101 
L 624.323784 81.62162 
L 627.501962 81.727322 
L 632.069995 81.638743 
L 636.475248 81.332242 
L 641.250259 80.760888 
L 648.072621 79.650784 
L 653.32214 78.901706 
L 657.500048 78.560137 
L 661.437763 78.480966 
L 665.217307 78.603019 
L 670.783092 79.032372 
L 675.424676 79.503597 
L 675.424676 79.503597 
" style="fill:none;stroke:#000000;stroke-linecap:square;stroke-opacity:0.7;stroke-width:1.2;"/>
   </g>
   <g id="line2d_100">
    <path clip-path="url(#pfb8137b57a)" d="M 675.490909 60.220533 
L 670.383453 58.269279 
L 664.89068 56.412252 
L 660.30093 55.085953 
L 656.003721 54.055938 
L 652.078411 53.311859 
L 647.985268 52.761585 
L 644.196861 52.492062 
L 640.444537 52.487575 
L 636.940082 52.737389 
L 633.621246 53.205008 
L 630.694986 53.811927 
L 627.503912 54.71563 
L 625.112403 55.613018 
L 623.118354 56.574593 
L 621.581878 57.51643 
L 620.100268 58.704548 
L 619.140372 59.820615 
L 618.832321 60.443908 
L 618.775471 61.003813 
L 618.877547 61.301976 
L 619.154055 61.629445 
L 619.831446 62.01769 
L 621.225016 62.413747 
L 623.554501 62.732128 
L 626.820021 62.888948 
L 630.075464 62.839357 
L 633.409038 62.607945 
L 636.749158 62.192189 
L 640.646234 61.470621 
L 645.300933 60.350998 
L 650.686195 59.065707 
L 654.218253 58.463574 
L 657.427623 58.166316 
L 660.537814 58.117872 
L 663.675283 58.289733 
L 667.348894 58.723429 
L 672.00888 59.52844 
L 675.483955 60.239934 
L 675.483955 60.239934 
" style="fill:none;stroke:#000000;stroke-linecap:square;stroke-opacity:0.7;stroke-width:1.2;"/>
   </g>
  </g>
 </g>
 <defs>
  <clipPath id="pfb8137b57a">
   <rect height="262.08" width="694.08" x="12.96" y="12.96"/>
  </clipPath>
 </defs>
</svg>
