<svg viewBox="0 0 1496 400" xmlns="http://www.w3.org/2000/svg"><g><g><g><g><g><line x1="50" y1="378" x2="45" y2="378" style="visibility: inherit;" fill="rgb(0, 0, 0)" stroke="rgb(204, 204, 204)" stroke-width="1px"></line><line x1="50" y1="343.6363636363636" x2="45" y2="343.6363636363636" style="visibility: inherit;" fill="rgb(0, 0, 0)" stroke="rgb(204, 204, 204)" stroke-width="1px"></line><line x1="50" y1="309.27272727272725" x2="45" y2="309.27272727272725" style="visibility: inherit;" fill="rgb(0, 0, 0)" stroke="rgb(204, 204, 204)" stroke-width="1px"></line><line x1="50" y1="274.90909090909093" x2="45" y2="274.90909090909093" style="visibility: inherit;" fill="rgb(0, 0, 0)" stroke="rgb(204, 204, 204)" stroke-width="1px"></line><line x1="50" y1="240.54545454545453" x2="45" y2="240.54545454545453" style="visibility: inherit;" fill="rgb(0, 0, 0)" stroke="rgb(204, 204, 204)" stroke-width="1px"></line><line x1="50" y1="206.1818181818182" x2="45" y2="206.1818181818182" style="visibility: inherit;" fill="rgb(0, 0, 0)" stroke="rgb(204, 204, 204)" stroke-width="1px"></line><line x1="50" y1="171.81818181818184" x2="45" y2="171.81818181818184" style="visibility: inherit;" fill="rgb(0, 0, 0)" stroke="rgb(204, 204, 204)" stroke-width="1px"></line><line x1="50" y1="137.45454545454547" x2="45" y2="137.45454545454547" style="visibility: inherit;" fill="rgb(0, 0, 0)" stroke="rgb(204, 204, 204)" stroke-width="1px"></line><line x1="50" y1="103.09090909090907" x2="45" y2="103.09090909090907" style="visibility: inherit;" fill="rgb(0, 0, 0)" stroke="rgb(204, 204, 204)" stroke-width="1px"></line><line x1="50" y1="68.72727272727269" x2="45" y2="68.72727272727269" style="visibility: inherit;" fill="rgb(0, 0, 0)" stroke="rgb(204, 204, 204)" stroke-width="1px"></line><line x1="50" y1="34.363636363636374" x2="45" y2="34.363636363636374" style="visibility: inherit;" fill="rgb(0, 0, 0)" stroke="rgb(204, 204, 204)" stroke-width="1px"></line><line x1="50" y1="0" x2="45" y2="0" style="visibility: inherit;" fill="rgb(0, 0, 0)" stroke="rgb(204, 204, 204)" stroke-width="1px"></line></g><g transform="translate(40, 0)"><text x="0" y="378" dx="0em" dy="0.3em" style="text-anchor: end; visibility: hidden; font-family: &quot;Helvetica Neue&quot;, sans-serif; font-size: 12px; font-weight: 200;" fill="rgb(50, 49, 63)" stroke="none" stroke-width="1px">-140</text><text x="0" y="343.6363636363636" dx="0em" dy="0.3em" style="text-anchor: end; visibility: inherit; font-family: &quot;Helvetica Neue&quot;, sans-serif; font-size: 12px; font-weight: 200;" fill="rgb(50, 49, 63)" stroke="none" stroke-width="1px">-120</text><text x="0" y="309.27272727272725" dx="0em" dy="0.3em" style="text-anchor: end; visibility: inherit; font-family: &quot;Helvetica Neue&quot;, sans-serif; font-size: 12px; font-weight: 200;" fill="rgb(50, 49, 63)" stroke="none" stroke-width="1px">-100</text><text x="0" y="274.90909090909093" dx="0em" dy="0.3em" style="text-anchor: end; visibility: inherit; font-family: &quot;Helvetica Neue&quot;, sans-serif; font-size: 12px; font-weight: 200;" fill="rgb(50, 49, 63)" stroke="none" stroke-width="1px">-80</text><text x="0" y="240.54545454545453" dx="0em" dy="0.3em" style="text-anchor: end; visibility: inherit; font-family: &quot;Helvetica Neue&quot;, sans-serif; font-size: 12px; font-weight: 200;" fill="rgb(50, 49, 63)" stroke="none" stroke-width="1px">-60</text><text x="0" y="206.1818181818182" dx="0em" dy="0.3em" style="text-anchor: end; visibility: inherit; font-family: &quot;Helvetica Neue&quot;, sans-serif; font-size: 12px; font-weight: 200;" fill="rgb(50, 49, 63)" stroke="none" stroke-width="1px">-40</text><text x="0" y="171.81818181818184" dx="0em" dy="0.3em" style="text-anchor: end; visibility: inherit; font-family: &quot;Helvetica Neue&quot;, sans-serif; font-size: 12px; font-weight: 200;" fill="rgb(50, 49, 63)" stroke="none" stroke-width="1px">-20</text><text x="0" y="137.45454545454547" dx="0em" dy="0.3em" style="text-anchor: end; visibility: inherit; font-family: &quot;Helvetica Neue&quot;, sans-serif; font-size: 12px; font-weight: 200;" fill="rgb(50, 49, 63)" stroke="none" stroke-width="1px">0</text><text x="0" y="103.09090909090907" dx="0em" dy="0.3em" style="text-anchor: end; visibility: inherit; font-family: &quot;Helvetica Neue&quot;, sans-serif; font-size: 12px; font-weight: 200;" fill="rgb(50, 49, 63)" stroke="none" stroke-width="1px">20</text><text x="0" y="68.72727272727269" dx="0em" dy="0.3em" style="text-anchor: end; visibility: inherit; font-family: &quot;Helvetica Neue&quot;, sans-serif; font-size: 12px; font-weight: 200;" fill="rgb(50, 49, 63)" stroke="none" stroke-width="1px">40</text><text x="0" y="34.363636363636374" dx="0em" dy="0.3em" style="text-anchor: end; visibility: inherit; font-family: &quot;Helvetica Neue&quot;, sans-serif; font-size: 12px; font-weight: 200;" fill="rgb(50, 49, 63)" stroke="none" stroke-width="1px">60</text><text x="0" y="0" dx="0em" dy="0.3em" style="text-anchor: end; visibility: hidden; font-family: &quot;Helvetica Neue&quot;, sans-serif; font-size: 12px; font-weight: 200;" fill="rgb(50, 49, 63)" stroke="none" stroke-width="1px">80</text></g><line x1="50" y1="0" x2="50" y2="378" fill="rgb(0, 0, 0)" stroke="rgb(204, 204, 204)" stroke-width="1px"></line></g></g><g transform="translate(50, 0)" clip-path="url(#clip_0)"><clipPath id="clip_0"><rect width="1446" height="378"></rect></clipPath><g><g><g><line x1="0" y1="0" x2="0" y2="378" fill="rgb(0, 0, 0)" stroke="rgb(60, 60, 60)" stroke-width="1px" opacity="0.25"></line><line x1="131.45454545454547" y1="0" x2="131.45454545454547" y2="378" fill="rgb(0, 0, 0)" stroke="rgb(60, 60, 60)" stroke-width="1px" opacity="0.25"></line><line x1="262.90909090909093" y1="0" x2="262.90909090909093" y2="378" fill="rgb(0, 0, 0)" stroke="rgb(60, 60, 60)" stroke-width="1px" opacity="0.25"></line><line x1="394.3636363636363" y1="0" x2="394.3636363636363" y2="378" fill="rgb(0, 0, 0)" stroke="rgb(60, 60, 60)" stroke-width="1px" opacity="0.25"></line><line x1="525.8181818181819" y1="0" x2="525.8181818181819" y2="378" fill="rgb(0, 0, 0)" stroke="rgb(60, 60, 60)" stroke-width="1px" opacity="0.25"></line><line x1="657.2727272727273" y1="0" x2="657.2727272727273" y2="378" fill="rgb(0, 0, 0)" stroke="rgb(60, 60, 60)" stroke-width="1px" opacity="0.25"></line><line x1="788.7272727272726" y1="0" x2="788.7272727272726" y2="378" fill="rgb(0, 0, 0)" stroke="rgb(60, 60, 60)" stroke-width="1px" opacity="0.25"></line><line x1="920.1818181818181" y1="0" x2="920.1818181818181" y2="378" fill="rgb(0, 0, 0)" stroke="rgb(60, 60, 60)" stroke-width="1px" opacity="0.25"></line><line x1="1051.6363636363637" y1="0" x2="1051.6363636363637" y2="378" fill="rgb(0, 0, 0)" stroke="rgb(60, 60, 60)" stroke-width="1px" opacity="0.25"></line><line x1="1183.0909090909092" y1="0" x2="1183.0909090909092" y2="378" fill="rgb(0, 0, 0)" stroke="rgb(60, 60, 60)" stroke-width="1px" opacity="0.25"></line><line x1="1314.5454545454545" y1="0" x2="1314.5454545454545" y2="378" fill="rgb(0, 0, 0)" stroke="rgb(60, 60, 60)" stroke-width="1px" opacity="0.25"></line><line x1="1446" y1="0" x2="1446" y2="378" fill="rgb(0, 0, 0)" stroke="rgb(60, 60, 60)" stroke-width="1px" opacity="0.25"></line></g><g><line x1="0" y1="378" x2="1446" y2="378" fill="rgb(0, 0, 0)" stroke="rgb(60, 60, 60)" stroke-width="1px" opacity="0.25"></line><line x1="0" y1="343.6363636363636" x2="1446" y2="343.6363636363636" fill="rgb(0, 0, 0)" stroke="rgb(60, 60, 60)" stroke-width="1px" opacity="0.25"></line><line x1="0" y1="309.27272727272725" x2="1446" y2="309.27272727272725" fill="rgb(0, 0, 0)" stroke="rgb(60, 60, 60)" stroke-width="1px" opacity="0.25"></line><line x1="0" y1="274.90909090909093" x2="1446" y2="274.90909090909093" fill="rgb(0, 0, 0)" stroke="rgb(60, 60, 60)" stroke-width="1px" opacity="0.25"></line><line x1="0" y1="240.54545454545453" x2="1446" y2="240.54545454545453" fill="rgb(0, 0, 0)" stroke="rgb(60, 60, 60)" stroke-width="1px" opacity="0.25"></line><line x1="0" y1="206.1818181818182" x2="1446" y2="206.1818181818182" fill="rgb(0, 0, 0)" stroke="rgb(60, 60, 60)" stroke-width="1px" opacity="0.25"></line><line x1="0" y1="171.81818181818184" x2="1446" y2="171.81818181818184" fill="rgb(0, 0, 0)" stroke="rgb(60, 60, 60)" stroke-width="1px" opacity="0.25"></line><line x1="0" y1="137.45454545454547" x2="1446" y2="137.45454545454547" fill="rgb(0, 0, 0)" stroke="rgb(60, 60, 60)" stroke-width="1px" opacity="0.25"></line><line x1="0" y1="103.09090909090907" x2="1446" y2="103.09090909090907" fill="rgb(0, 0, 0)" stroke="rgb(60, 60, 60)" stroke-width="1px" opacity="0.25"></line><line x1="0" y1="68.72727272727269" x2="1446" y2="68.72727272727269" fill="rgb(0, 0, 0)" stroke="rgb(60, 60, 60)" stroke-width="1px" opacity="0.25"></line><line x1="0" y1="34.363636363636374" x2="1446" y2="34.363636363636374" fill="rgb(0, 0, 0)" stroke="rgb(60, 60, 60)" stroke-width="1px" opacity="0.25"></line><line x1="0" y1="0" x2="1446" y2="0" fill="rgb(0, 0, 0)" stroke="rgb(60, 60, 60)" stroke-width="1px" opacity="0.25"></line></g></g></g><g><g><line x1="0" y1="137.45454545454547" x2="1446" y2="137.45454545454547" fill="rgb(0, 0, 0)" stroke="rgb(153, 153, 153)" stroke-width="1.5px"></line></g></g><g><g><line x1="131.45454545454547" y1="0" x2="131.45454545454547" y2="378" fill="rgb(0, 0, 0)" stroke="rgb(153, 153, 153)" stroke-width="1.5px"></line></g></g><g><g><g><g><g><path stroke="rgb(255, 112, 67)" stroke-width="2px" d="M131.45454545454547,66.75048273259944L138.02727272727273,302.2163997303356L144.6,154.2225879322399L151.17272727272726,127.93801231384279L157.74545454545455,129.59822587966917L164.3181818181818,127.58499127734794L170.89090909090908,127.4663420937278L177.46363636363637,128.41630979451267L184.0363636363636,128.38748543045736L190.6090909090909,127.71712028763511L197.18181818181816,129.0015405698256L203.75454545454545,128.85474785457959L210.3272727272727,128.05622645291416L216.9,127.5953700802543L223.47272727272727,129.0570271838795L230.04545454545453,128.2430858698758L236.61818181818182,128.88486588217995L243.1909090909091,128.9301269011064L249.76363636363638,128.2355991710316L256.3363636363636,130.2673112869263L262.90909090909093,129.30072750611737L269.4818181818182,128.54580969377L276.05454545454546,127.74008998437361L282.6272727272727,127.94603810743854L289.2,128.46395987163888L295.7727272727273,131.1094428322532L302.3454545454545,129.30136409672824L308.9181818181818,128.12339782281356L315.4909090909091,128.8527291167866L322.06363636363636,129.62055898579683L328.6363636363636,128.90558006546715L335.2090909090909,129.44863282116978L341.78181818181815,130.03086006858132L348.3545454545455,130.51726854931223L354.92727272727274,130.85617152994328L361.5,130.47002402218905L368.0727272727272,129.9987077366222L374.6454545454545,129.9356795310974L381.2181818181818,129.86107307780875L387.7909090909091,130.2353777061809L394.3636363636363,129.80010539401664L400.93636363636364,129.6097189209678L407.5090909090909,130.48921595920217L414.0818181818182,129.63747001127763L420.6545454545454,130.28813935193148L427.22727272727275,130.99986649860034L433.8,128.32033290429547L440.3727272727273,129.37737563740123L446.94545454545454,130.261234591224L453.51818181818186,129.25829222852533L460.09090909090907,129.20479649630462L466.6636363636364,128.7600646279075L473.23636363636365,129.46719963767313L479.80909090909097,129.0084726073525L486.3818181818182,130.03297548294066L492.95454545454544,130.02678818269212L499.52727272727276,128.74625298760154L506.09999999999997,129.9695220643824L512.6727272727272,130.6677316969091L519.2454545454545,129.55328028852287L525.8181818181819,129.7531721982089L532.3909090909091,129.27444213086906L538.9636363636364,128.8341958912936L545.5363636363636,129.37084914987736L552.1090909090909,130.38393599770288L558.6818181818181,129.21961258974943L565.2545454545455,128.06551395763051L571.8272727272728,130.58518711436878L578.4,130.09177367903968L584.9727272727273,129.78673535260285L591.5454545454546,129.21315656141803L598.1181818181818,129.38393325805666L604.690909090909,129.76468408324502L611.2636363636364,129.71429101337085L617.8363636363636,129.85316280451687L624.4090909090909,130.65858265269887L630.9818181818182,130.6037826061249L637.5545454545455,130.39456468495453L644.1272727272727,129.89898012334652L650.7,130.0230407368053L657.2727272727273,128.32691592303192L663.8454545454546,130.53488088954578L670.4181818181818,129.30695904818447L676.9909090909091,128.97245403203098L683.5636363636363,129.53702551668343L690.1363636363636,129.00764348290184L696.709090909091,129.99743783257225L703.2818181818183,129.87975459532302L709.8545454545455,130.6505306417292L716.4272727272728,129.89417824745178L723,129.7527314186096L729.5727272727272,130.2150674343109L736.1454545454544,129.81874840476294L742.7181818181818,130.47534123334017L749.290909090909,129.54080655358055L755.8636363636364,130.66649620316244L762.4363636363636,130.5865946596319L769.009090909091,130.06532444520428L775.5818181818182,130.32614389332858L782.1545454545454,131.14997325377033L788.7272727272726,130.28079684864392L795.3000000000001,130.0353604446758L801.8727272727273,130.39236734130165L808.4454545454545,130.04730491638182L815.0181818181818,128.9031918265603L821.5909090909091,129.9281264695254L828.1636363636364,129.7105689655651L834.7363636363636,129.8529669935053L841.3090909090909,131.5228359265761L847.8818181818181,129.9415128967979L854.4545454545455,129.87190003395082L861.0272727272727,129.89948316920888L867.6,129.95533436861908L874.1727272727272,130.37906775908039L880.7454545454545,130.77276423194192L887.3181818181819,131.0982275312597L893.8909090909091,129.13273640545933L900.4636363636363,130.3748819914731L907.0363636363637,130.04378441463817L913.6090909090909,130.68541531562803L920.1818181818181,129.4915523008867L926.7545454545455,129.62340439016168L933.3272727272728,130.1242889577692L939.9,129.9216630675576L946.4727272727273,130.41598100228745L953.0454545454545,130.39952140721405L959.6181818181819,130.44286282279276L966.1909090909091,129.33150342594493L972.7636363636364,130.53621797561644L979.3363636363636,129.2935210054571L985.9090909090909,130.66619798053395L992.4818181818182,129.68223781585695L999.0545454545455,129.60447708476673L1005.6272727272727,131.31752193624322L1012.1999999999999,130.56691606261515L1018.7727272727274,128.7807304729115L1025.3454545454545,128.6773250536485L1031.918181818182,130.39587801153007L1038.490909090909,129.4489154772325L1045.0636363636365,129.55228566689925L1051.6363636363637,131.9652524731376L1058.209090909091,129.43143504316154L1064.7818181818182,129.5363463228399L1071.3545454545456,130.85476316538723L1077.9272727272728,128.82894504287026L1084.5,129.99615563912823L1091.0727272727272,130.67342987927523L1097.6454545454544,130.44508638381959L1104.2181818181818,130.28034296035767L1110.790909090909,129.1769765853882L1117.3636363636363,130.32716555161912L1123.9363636363635,130.68102718266573L1130.509090909091,130.17200621691617L1137.081818181818,130.70566414052792L1143.6545454545455,129.7973533890464L1150.2272727272727,130.26641661904077L1156.8,130.18462496670807L1163.3727272727274,129.10887367942118L1169.9454545454546,129.65899201739919L1176.5181818181818,130.30087198344143L1183.0909090909092,129.78115350983362L1189.6636363636364,129.51900434927506L1196.2363636363636,130.90966972004284L1202.8090909090909,129.93891901536423L1209.381818181818,129.0196526787498L1215.9545454545455,129.62126193913548L1222.5272727272727,130.1478567383506L1229.1,129.53889842033388L1235.6727272727271,129.61261676008053L1242.2454545454545,128.36327450492163L1248.8181818181818,129.06567727869208L1255.390909090909,130.66663302508266L1261.9636363636364,129.31482098319313L1268.5363636363636,130.59759366729043L1275.109090909091,128.74661675366488L1281.6818181818182,129.5136420770125L1288.2545454545455,129.97940683364868L1294.8272727272729,129.9544454357841L1301.4,129.96082526987252L1307.9727272727273,130.43741124760018L1314.5454545454545,129.710823765668L1321.118181818182,129.39658150239424L1327.6909090909091,128.76251759095624L1334.2636363636364,130.3445337425579L1340.8363636363636,130.31657455184242L1347.4090909090908,129.87739830884064L1353.9818181818182,129.54291541359643L1360.5545454545454,130.94841408296065L1367.1272727272726,128.69089664112437L1373.7,130.4719198660417L1380.2727272727273,130.42554952448063L1386.8454545454545,130.00623540011318L1393.418181818182,130.04961859963157L1399.990909090909,130.78279401605778L1406.5636363636365,130.84023628234863L1413.1363636363637,130.9852904579856L1419.709090909091,130.64397465965965L1426.2818181818182,130.26367854205046L1432.8545454545456,129.7490298531272L1439.4272727272728,131.0232179858468" style="fill: none;" fill="none"></path></g></g></g></g></g></g><g transform="translate(50, 378)" clip-path="url(#clip_1)"><clipPath id="clip_1"><rect width="1446" height="22"></rect></clipPath><g><g><line x1="0" y1="0" x2="0" y2="5" style="visibility: inherit;" fill="rgb(0, 0, 0)" stroke="rgb(204, 204, 204)" stroke-width="1px"></line><line x1="131.45454545454547" y1="0" x2="131.45454545454547" y2="5" style="visibility: inherit;" fill="rgb(0, 0, 0)" stroke="rgb(204, 204, 204)" stroke-width="1px"></line><line x1="262.90909090909093" y1="0" x2="262.90909090909093" y2="5" style="visibility: inherit;" fill="rgb(0, 0, 0)" stroke="rgb(204, 204, 204)" stroke-width="1px"></line><line x1="394.3636363636363" y1="0" x2="394.3636363636363" y2="5" style="visibility: inherit;" fill="rgb(0, 0, 0)" stroke="rgb(204, 204, 204)" stroke-width="1px"></line><line x1="525.8181818181819" y1="0" x2="525.8181818181819" y2="5" style="visibility: inherit;" fill="rgb(0, 0, 0)" stroke="rgb(204, 204, 204)" stroke-width="1px"></line><line x1="657.2727272727273" y1="0" x2="657.2727272727273" y2="5" style="visibility: inherit;" fill="rgb(0, 0, 0)" stroke="rgb(204, 204, 204)" stroke-width="1px"></line><line x1="788.7272727272726" y1="0" x2="788.7272727272726" y2="5" style="visibility: inherit;" fill="rgb(0, 0, 0)" stroke="rgb(204, 204, 204)" stroke-width="1px"></line><line x1="920.1818181818181" y1="0" x2="920.1818181818181" y2="5" style="visibility: inherit;" fill="rgb(0, 0, 0)" stroke="rgb(204, 204, 204)" stroke-width="1px"></line><line x1="1051.6363636363637" y1="0" x2="1051.6363636363637" y2="5" style="visibility: inherit;" fill="rgb(0, 0, 0)" stroke="rgb(204, 204, 204)" stroke-width="1px"></line><line x1="1183.0909090909092" y1="0" x2="1183.0909090909092" y2="5" style="visibility: inherit;" fill="rgb(0, 0, 0)" stroke="rgb(204, 204, 204)" stroke-width="1px"></line><line x1="1314.5454545454545" y1="0" x2="1314.5454545454545" y2="5" style="visibility: inherit;" fill="rgb(0, 0, 0)" stroke="rgb(204, 204, 204)" stroke-width="1px"></line><line x1="1446" y1="0" x2="1446" y2="5" style="visibility: inherit;" fill="rgb(0, 0, 0)" stroke="rgb(204, 204, 204)" stroke-width="1px"></line></g><g transform="translate(0, 8)"><text x="0" y="0" dx="0em" dy="0.95em" style="text-anchor: middle; visibility: hidden; font-family: &quot;Helvetica Neue&quot;, sans-serif; font-size: 12px; font-weight: 200;" fill="rgb(50, 49, 63)" stroke="none" stroke-width="1px">-20</text><text x="131.45454545454547" y="0" dx="0em" dy="0.95em" style="text-anchor: middle; visibility: inherit; font-family: &quot;Helvetica Neue&quot;, sans-serif; font-size: 12px; font-weight: 200;" fill="rgb(50, 49, 63)" stroke="none" stroke-width="1px">0</text><text x="262.90909090909093" y="0" dx="0em" dy="0.95em" style="text-anchor: middle; visibility: inherit; font-family: &quot;Helvetica Neue&quot;, sans-serif; font-size: 12px; font-weight: 200;" fill="rgb(50, 49, 63)" stroke="none" stroke-width="1px">20</text><text x="394.3636363636363" y="0" dx="0em" dy="0.95em" style="text-anchor: middle; visibility: inherit; font-family: &quot;Helvetica Neue&quot;, sans-serif; font-size: 12px; font-weight: 200;" fill="rgb(50, 49, 63)" stroke="none" stroke-width="1px">40</text><text x="525.8181818181819" y="0" dx="0em" dy="0.95em" style="text-anchor: middle; visibility: inherit; font-family: &quot;Helvetica Neue&quot;, sans-serif; font-size: 12px; font-weight: 200;" fill="rgb(50, 49, 63)" stroke="none" stroke-width="1px">60</text><text x="657.2727272727273" y="0" dx="0em" dy="0.95em" style="text-anchor: middle; visibility: inherit; font-family: &quot;Helvetica Neue&quot;, sans-serif; font-size: 12px; font-weight: 200;" fill="rgb(50, 49, 63)" stroke="none" stroke-width="1px">80</text><text x="788.7272727272726" y="0" dx="0em" dy="0.95em" style="text-anchor: middle; visibility: inherit; font-family: &quot;Helvetica Neue&quot;, sans-serif; font-size: 12px; font-weight: 200;" fill="rgb(50, 49, 63)" stroke="none" stroke-width="1px">100</text><text x="920.1818181818181" y="0" dx="0em" dy="0.95em" style="text-anchor: middle; visibility: inherit; font-family: &quot;Helvetica Neue&quot;, sans-serif; font-size: 12px; font-weight: 200;" fill="rgb(50, 49, 63)" stroke="none" stroke-width="1px">120</text><text x="1051.6363636363637" y="0" dx="0em" dy="0.95em" style="text-anchor: middle; visibility: inherit; font-family: &quot;Helvetica Neue&quot;, sans-serif; font-size: 12px; font-weight: 200;" fill="rgb(50, 49, 63)" stroke="none" stroke-width="1px">140</text><text x="1183.0909090909092" y="0" dx="0em" dy="0.95em" style="text-anchor: middle; visibility: inherit; font-family: &quot;Helvetica Neue&quot;, sans-serif; font-size: 12px; font-weight: 200;" fill="rgb(50, 49, 63)" stroke="none" stroke-width="1px">160</text><text x="1314.5454545454545" y="0" dx="0em" dy="0.95em" style="text-anchor: middle; visibility: inherit; font-family: &quot;Helvetica Neue&quot;, sans-serif; font-size: 12px; font-weight: 200;" fill="rgb(50, 49, 63)" stroke="none" stroke-width="1px">180</text><text x="1446" y="0" dx="0em" dy="0.95em" style="text-anchor: middle; visibility: hidden; font-family: &quot;Helvetica Neue&quot;, sans-serif; font-size: 12px; font-weight: 200;" fill="rgb(50, 49, 63)" stroke="none" stroke-width="1px">200</text></g><line x1="0" y1="0" x2="1446" y2="0" fill="rgb(0, 0, 0)" stroke="rgb(204, 204, 204)" stroke-width="1px"></line></g></g></g></g></svg>