<svg viewBox="0 0 1496 400" xmlns="http://www.w3.org/2000/svg"><g><g><g><g><g><line x1="50" y1="378" x2="45" y2="378" style="visibility: inherit;" fill="rgb(0, 0, 0)" stroke="rgb(204, 204, 204)" stroke-width="1px"></line><line x1="50" y1="336" x2="45" y2="336" style="visibility: inherit;" fill="rgb(0, 0, 0)" stroke="rgb(204, 204, 204)" stroke-width="1px"></line><line x1="50" y1="294" x2="45" y2="294" style="visibility: inherit;" fill="rgb(0, 0, 0)" stroke="rgb(204, 204, 204)" stroke-width="1px"></line><line x1="50" y1="252" x2="45" y2="252" style="visibility: inherit;" fill="rgb(0, 0, 0)" stroke="rgb(204, 204, 204)" stroke-width="1px"></line><line x1="50" y1="210" x2="45" y2="210" style="visibility: inherit;" fill="rgb(0, 0, 0)" stroke="rgb(204, 204, 204)" stroke-width="1px"></line><line x1="50" y1="168" x2="45" y2="168" style="visibility: inherit;" fill="rgb(0, 0, 0)" stroke="rgb(204, 204, 204)" stroke-width="1px"></line><line x1="50" y1="126" x2="45" y2="126" style="visibility: inherit;" fill="rgb(0, 0, 0)" stroke="rgb(204, 204, 204)" stroke-width="1px"></line><line x1="50" y1="84.00000000000006" x2="45" y2="84.00000000000006" style="visibility: inherit;" fill="rgb(0, 0, 0)" stroke="rgb(204, 204, 204)" stroke-width="1px"></line><line x1="50" y1="42" x2="45" y2="42" style="visibility: inherit;" fill="rgb(0, 0, 0)" stroke="rgb(204, 204, 204)" stroke-width="1px"></line><line x1="50" y1="0" x2="45" y2="0" style="visibility: inherit;" fill="rgb(0, 0, 0)" stroke="rgb(204, 204, 204)" stroke-width="1px"></line></g><g transform="translate(40, 0)"><text x="0" y="378" dx="0em" dy="0.3em" style="text-anchor: end; visibility: hidden; font-family: &quot;Helvetica Neue&quot;, sans-serif; font-size: 12px; font-weight: 200;" fill="rgb(50, 49, 63)" stroke="none" stroke-width="1px">-0.1</text><text x="0" y="336" dx="0em" dy="0.3em" style="text-anchor: end; visibility: inherit; font-family: &quot;Helvetica Neue&quot;, sans-serif; font-size: 12px; font-weight: 200;" fill="rgb(50, 49, 63)" stroke="none" stroke-width="1px">0</text><text x="0" y="294" dx="0em" dy="0.3em" style="text-anchor: end; visibility: inherit; font-family: &quot;Helvetica Neue&quot;, sans-serif; font-size: 12px; font-weight: 200;" fill="rgb(50, 49, 63)" stroke="none" stroke-width="1px">0.1</text><text x="0" y="252" dx="0em" dy="0.3em" style="text-anchor: end; visibility: inherit; font-family: &quot;Helvetica Neue&quot;, sans-serif; font-size: 12px; font-weight: 200;" fill="rgb(50, 49, 63)" stroke="none" stroke-width="1px">0.2</text><text x="0" y="210" dx="0em" dy="0.3em" style="text-anchor: end; visibility: inherit; font-family: &quot;Helvetica Neue&quot;, sans-serif; font-size: 12px; font-weight: 200;" fill="rgb(50, 49, 63)" stroke="none" stroke-width="1px">0.3</text><text x="0" y="168" dx="0em" dy="0.3em" style="text-anchor: end; visibility: inherit; font-family: &quot;Helvetica Neue&quot;, sans-serif; font-size: 12px; font-weight: 200;" fill="rgb(50, 49, 63)" stroke="none" stroke-width="1px">0.4</text><text x="0" y="126" dx="0em" dy="0.3em" style="text-anchor: end; visibility: inherit; font-family: &quot;Helvetica Neue&quot;, sans-serif; font-size: 12px; font-weight: 200;" fill="rgb(50, 49, 63)" stroke="none" stroke-width="1px">0.5</text><text x="0" y="84.00000000000006" dx="0em" dy="0.3em" style="text-anchor: end; visibility: inherit; font-family: &quot;Helvetica Neue&quot;, sans-serif; font-size: 12px; font-weight: 200;" fill="rgb(50, 49, 63)" stroke="none" stroke-width="1px">0.6</text><text x="0" y="42" dx="0em" dy="0.3em" style="text-anchor: end; visibility: inherit; font-family: &quot;Helvetica Neue&quot;, sans-serif; font-size: 12px; font-weight: 200;" fill="rgb(50, 49, 63)" stroke="none" stroke-width="1px">0.7</text><text x="0" y="0" dx="0em" dy="0.3em" style="text-anchor: end; visibility: hidden; font-family: &quot;Helvetica Neue&quot;, sans-serif; font-size: 12px; font-weight: 200;" fill="rgb(50, 49, 63)" stroke="none" stroke-width="1px">0.8</text></g><line x1="50" y1="0" x2="50" y2="378" fill="rgb(0, 0, 0)" stroke="rgb(204, 204, 204)" stroke-width="1px"></line></g></g><g transform="translate(50, 0)" clip-path="url(#clip_0)"><clipPath id="clip_0"><rect width="1446" height="378"></rect></clipPath><g><g><g><line x1="0" y1="0" x2="0" y2="378" fill="rgb(0, 0, 0)" stroke="rgb(60, 60, 60)" stroke-width="1px" opacity="0.25"></line><line x1="131.45454545454547" y1="0" x2="131.45454545454547" y2="378" fill="rgb(0, 0, 0)" stroke="rgb(60, 60, 60)" stroke-width="1px" opacity="0.25"></line><line x1="262.90909090909093" y1="0" x2="262.90909090909093" y2="378" fill="rgb(0, 0, 0)" stroke="rgb(60, 60, 60)" stroke-width="1px" opacity="0.25"></line><line x1="394.3636363636363" y1="0" x2="394.3636363636363" y2="378" fill="rgb(0, 0, 0)" stroke="rgb(60, 60, 60)" stroke-width="1px" opacity="0.25"></line><line x1="525.8181818181819" y1="0" x2="525.8181818181819" y2="378" fill="rgb(0, 0, 0)" stroke="rgb(60, 60, 60)" stroke-width="1px" opacity="0.25"></line><line x1="657.2727272727273" y1="0" x2="657.2727272727273" y2="378" fill="rgb(0, 0, 0)" stroke="rgb(60, 60, 60)" stroke-width="1px" opacity="0.25"></line><line x1="788.7272727272726" y1="0" x2="788.7272727272726" y2="378" fill="rgb(0, 0, 0)" stroke="rgb(60, 60, 60)" stroke-width="1px" opacity="0.25"></line><line x1="920.1818181818181" y1="0" x2="920.1818181818181" y2="378" fill="rgb(0, 0, 0)" stroke="rgb(60, 60, 60)" stroke-width="1px" opacity="0.25"></line><line x1="1051.6363636363637" y1="0" x2="1051.6363636363637" y2="378" fill="rgb(0, 0, 0)" stroke="rgb(60, 60, 60)" stroke-width="1px" opacity="0.25"></line><line x1="1183.0909090909092" y1="0" x2="1183.0909090909092" y2="378" fill="rgb(0, 0, 0)" stroke="rgb(60, 60, 60)" stroke-width="1px" opacity="0.25"></line><line x1="1314.5454545454545" y1="0" x2="1314.5454545454545" y2="378" fill="rgb(0, 0, 0)" stroke="rgb(60, 60, 60)" stroke-width="1px" opacity="0.25"></line><line x1="1446" y1="0" x2="1446" y2="378" fill="rgb(0, 0, 0)" stroke="rgb(60, 60, 60)" stroke-width="1px" opacity="0.25"></line></g><g><line x1="0" y1="378" x2="1446" y2="378" fill="rgb(0, 0, 0)" stroke="rgb(60, 60, 60)" stroke-width="1px" opacity="0.25"></line><line x1="0" y1="336" x2="1446" y2="336" fill="rgb(0, 0, 0)" stroke="rgb(60, 60, 60)" stroke-width="1px" opacity="0.25"></line><line x1="0" y1="294" x2="1446" y2="294" fill="rgb(0, 0, 0)" stroke="rgb(60, 60, 60)" stroke-width="1px" opacity="0.25"></line><line x1="0" y1="252" x2="1446" y2="252" fill="rgb(0, 0, 0)" stroke="rgb(60, 60, 60)" stroke-width="1px" opacity="0.25"></line><line x1="0" y1="210" x2="1446" y2="210" fill="rgb(0, 0, 0)" stroke="rgb(60, 60, 60)" stroke-width="1px" opacity="0.25"></line><line x1="0" y1="168" x2="1446" y2="168" fill="rgb(0, 0, 0)" stroke="rgb(60, 60, 60)" stroke-width="1px" opacity="0.25"></line><line x1="0" y1="126" x2="1446" y2="126" fill="rgb(0, 0, 0)" stroke="rgb(60, 60, 60)" stroke-width="1px" opacity="0.25"></line><line x1="0" y1="84.00000000000006" x2="1446" y2="84.00000000000006" fill="rgb(0, 0, 0)" stroke="rgb(60, 60, 60)" stroke-width="1px" opacity="0.25"></line><line x1="0" y1="42" x2="1446" y2="42" fill="rgb(0, 0, 0)" stroke="rgb(60, 60, 60)" stroke-width="1px" opacity="0.25"></line><line x1="0" y1="0" x2="1446" y2="0" fill="rgb(0, 0, 0)" stroke="rgb(60, 60, 60)" stroke-width="1px" opacity="0.25"></line></g></g></g><g><g><line x1="0" y1="336" x2="1446" y2="336" fill="rgb(0, 0, 0)" stroke="rgb(153, 153, 153)" stroke-width="1.5px"></line></g></g><g><g><line x1="131.45454545454547" y1="0" x2="131.45454545454547" y2="378" fill="rgb(0, 0, 0)" stroke="rgb(153, 153, 153)" stroke-width="1.5px"></line></g></g><g><g><g><g><g><path stroke="rgb(255, 112, 67)" stroke-width="2px" d="M131.45454545454547,120.83291745185852L138.02727272727273,63.014479637145996L144.6,79.832437992096L151.17272727272726,125.76135134696963L157.74545454545455,154.4904259443283L164.3181818181818,166.21980822086337L170.89090909090908,177.2853902578354L177.46363636363637,186.99940180778506L184.0363636363636,193.11860060691833L190.6090909090909,200.04665887355804L197.18181818181816,208.70851850509646L203.75454545454545,219.45825970172882L210.3272727272727,227.3267183303833L216.9,238.35653311014178L223.47272727272727,244.52526783943176L230.04545454545453,250.85269904136658L236.61818181818182,253.60693430900574L243.1909090909091,263.0819342136383L249.76363636363638,268.9844704270363L256.3363636363636,273.9430890083313L262.90909090909093,275.12028551101685L269.4818181818182,273.62335538864136L276.05454545454546,281.0760751962662L282.6272727272727,282.4604151248932L289.2,284.6577482521534L295.7727272727273,288.83826157450676L302.3454545454545,287.30132406949997L308.9181818181818,291.0613859295845L315.4909090909091,286.822856426239L322.06363636363636,291.7140429317951L328.6363636363636,293.51606807112694L335.2090909090909,293.58823469281197L341.78181818181815,292.63394048810005L348.3545454545455,296.6435251235962L354.92727272727274,296.5162712931633L361.5,295.54619005322456L368.0727272727272,297.1793392896652L374.6454545454545,296.4971672594547L381.2181818181818,296.88295608758926L387.7909090909091,295.1174179315567L394.3636363636363,298.78941974043846L400.93636363636364,296.6980709731579L407.5090909090909,294.2483424246311L414.0818181818182,296.3115749359131L420.6545454545454,296.9333525598049L427.22727272727275,298.6974418759346L433.8,299.77502515912056L440.3727272727273,300.83045652508736L446.94545454545454,299.4545123577118L453.51818181818186,298.23219841718674L460.09090909090907,298.68592938780785L466.6636363636364,300.3477112054825L473.23636363636365,300.0680819749832L479.80909090909097,298.3361487686634L486.3818181818182,300.6815890073776L492.95454545454544,301.52808076143265L499.52727272727276,299.7824696302414L506.09999999999997,301.9791675209999L512.6727272727272,299.59527826309204L519.2454545454545,299.4280890226364L525.8181818181819,300.8139747977257L532.3909090909091,301.79576566815376L538.9636363636364,302.68719962239265L545.5363636363636,299.9494398236275L552.1090909090909,300.19286370277405L558.6818181818181,300.39035028219223L565.2545454545455,303.4769675731659L571.8272727272728,302.1569148302078L578.4,302.86985045671463L584.9727272727273,300.7808611392975L591.5454545454546,302.5116177499294L598.1181818181818,302.90388411283493L604.690909090909,301.97022727131844L611.2636363636364,303.5246071815491L617.8363636363636,302.5649525821209L624.4090909090909,301.7359564304352L630.9818181818182,303.9541803896427L637.5545454545455,303.880205065012L644.1272727272727,302.2897418439388L650.7,302.89728140830994L657.2727272727273,302.52937307953835L663.8454545454546,304.11568066477776L670.4181818181818,304.0005620419979L676.9909090909091,303.307415753603L683.5636363636363,302.55897572636604L690.1363636363636,303.6163002848625L696.709090909091,303.4400831758976L703.2818181818183,303.073579877615L709.8545454545455,303.5177791714668L716.4272727272728,303.30913057923317L723,301.6797708570957L729.5727272727272,304.1519016623497L736.1454545454544,304.1294274330139L742.7181818181818,304.26159730553627L749.290909090909,303.2632746398449L755.8636363636364,301.9240834414959L762.4363636363636,303.14634731411934L769.009090909091,303.5861719250679L775.5818181818182,302.62967786192894L782.1545454545454,304.6024595797062L788.7272727272726,302.9041720032692L795.3000000000001,304.583242893219L801.8727272727273,303.58746430277824L808.4454545454545,304.0786335468292L815.0181818181818,304.52588072419167L821.5909090909091,305.1737374663353L828.1636363636364,302.6455775499344L834.7363636363636,304.1902411580086L841.3090909090909,304.37849646806717L847.8818181818181,303.504905462265L854.4545454545455,303.1267832815647L861.0272727272727,304.7476032972336L867.6,303.9984185099602L874.1727272727272,303.42248117923737L880.7454545454545,305.0704379975796L887.3181818181819,305.1842485964298L893.8909090909091,304.5866193473339L900.4636363636363,303.36697152256966L907.0363636363637,303.1680110692978L913.6090909090909,302.593372374773L920.1818181818181,303.08160012960434L926.7545454545455,302.89525678753853L933.3272727272728,305.18784096837044L939.9,303.92334482073784L946.4727272727273,304.05180966854095L953.0454545454545,305.80290323495865L959.6181818181819,304.3949062228203L966.1909090909091,304.45827028155327L972.7636363636364,303.3033320903778L979.3363636363636,303.9355238378048L985.9090909090909,304.2102370262146L992.4818181818182,305.2541089653969L999.0545454545455,304.7018349766731L1005.6272727272727,305.13395538926125L1012.1999999999999,303.2176721692085L1018.7727272727274,304.7347733974457L1025.3454545454545,304.0505611002445L1031.918181818182,303.68611058592796L1038.490909090909,305.16018158197403L1045.0636363636365,305.4788981974125L1051.6363636363637,305.93125542998314L1058.209090909091,303.871862500906L1064.7818181818182,305.0519566833973L1071.3545454545456,305.5398370921612L1077.9272727272728,305.42768812179565L1084.5,304.7308493256569L1091.0727272727272,305.31622445583344L1097.6454545454544,305.5781296491623L1104.2181818181818,305.51988503336906L1110.790909090909,305.7828823328018L1117.3636363636363,304.161201775074L1123.9363636363635,304.73780876398087L1130.509090909091,305.5272168517113L1137.081818181818,303.92091965675354L1143.6545454545455,305.646215736866L1150.2272727272727,306.02681002020836L1156.8,304.73367816209793L1163.3727272727274,304.301407545805L1169.9454545454546,305.16106402873993L1176.5181818181818,304.87850269675255L1183.0909090909092,304.69744151830673L1189.6636363636364,303.6465506851673L1196.2363636363636,305.7778379917145L1202.8090909090909,304.90091747045517L1209.381818181818,305.18935239315033L1215.9545454545455,305.15444880723953L1222.5272727272727,306.140213817358L1229.1,305.8265665769577L1235.6727272727271,305.426905810833L1242.2454545454545,304.8159991800785L1248.8181818181818,304.71363535523415L1255.390909090909,305.42285031080246L1261.9636363636364,304.6824743449688L1268.5363636363636,304.6091123521328L1275.109090909091,305.9762414395809L1281.6818181818182,306.2856735885143L1288.2545454545455,305.38884168863297L1294.8272727272729,304.9855572581291L1301.4,306.27586340904236L1307.9727272727273,305.64135602116585L1314.5454545454545,304.81457537412643L1321.118181818182,305.8631411790848L1327.6909090909091,306.1066119968891L1334.2636363636364,306.0929309427738L1340.8363636363636,305.59465831518173L1347.4090909090908,305.6994285285473L1353.9818181818182,305.6743507683277L1360.5545454545454,305.39385786652565L1367.1272727272726,305.9990066885948L1373.7,305.71799433231354L1380.2727272727273,305.740265160799L1386.8454545454545,304.63310739398L1393.418181818182,305.6472077071667L1399.990909090909,305.97460797429085L1406.5636363636365,305.7689791023731L1413.1363636363637,305.97458294034004L1419.709090909091,305.538666754961L1426.2818181818182,306.0593103468418L1432.8545454545456,306.35787150263786L1439.4272727272728,305.4354674220085" style="fill: none;" fill="none"></path></g></g></g></g></g></g><g transform="translate(50, 378)" clip-path="url(#clip_1)"><clipPath id="clip_1"><rect width="1446" height="22"></rect></clipPath><g><g><line x1="0" y1="0" x2="0" y2="5" style="visibility: inherit;" fill="rgb(0, 0, 0)" stroke="rgb(204, 204, 204)" stroke-width="1px"></line><line x1="131.45454545454547" y1="0" x2="131.45454545454547" y2="5" style="visibility: inherit;" fill="rgb(0, 0, 0)" stroke="rgb(204, 204, 204)" stroke-width="1px"></line><line x1="262.90909090909093" y1="0" x2="262.90909090909093" y2="5" style="visibility: inherit;" fill="rgb(0, 0, 0)" stroke="rgb(204, 204, 204)" stroke-width="1px"></line><line x1="394.3636363636363" y1="0" x2="394.3636363636363" y2="5" style="visibility: inherit;" fill="rgb(0, 0, 0)" stroke="rgb(204, 204, 204)" stroke-width="1px"></line><line x1="525.8181818181819" y1="0" x2="525.8181818181819" y2="5" style="visibility: inherit;" fill="rgb(0, 0, 0)" stroke="rgb(204, 204, 204)" stroke-width="1px"></line><line x1="657.2727272727273" y1="0" x2="657.2727272727273" y2="5" style="visibility: inherit;" fill="rgb(0, 0, 0)" stroke="rgb(204, 204, 204)" stroke-width="1px"></line><line x1="788.7272727272726" y1="0" x2="788.7272727272726" y2="5" style="visibility: inherit;" fill="rgb(0, 0, 0)" stroke="rgb(204, 204, 204)" stroke-width="1px"></line><line x1="920.1818181818181" y1="0" x2="920.1818181818181" y2="5" style="visibility: inherit;" fill="rgb(0, 0, 0)" stroke="rgb(204, 204, 204)" stroke-width="1px"></line><line x1="1051.6363636363637" y1="0" x2="1051.6363636363637" y2="5" style="visibility: inherit;" fill="rgb(0, 0, 0)" stroke="rgb(204, 204, 204)" stroke-width="1px"></line><line x1="1183.0909090909092" y1="0" x2="1183.0909090909092" y2="5" style="visibility: inherit;" fill="rgb(0, 0, 0)" stroke="rgb(204, 204, 204)" stroke-width="1px"></line><line x1="1314.5454545454545" y1="0" x2="1314.5454545454545" y2="5" style="visibility: inherit;" fill="rgb(0, 0, 0)" stroke="rgb(204, 204, 204)" stroke-width="1px"></line><line x1="1446" y1="0" x2="1446" y2="5" style="visibility: inherit;" fill="rgb(0, 0, 0)" stroke="rgb(204, 204, 204)" stroke-width="1px"></line></g><g transform="translate(0, 8)"><text x="0" y="0" dx="0em" dy="0.95em" style="text-anchor: middle; visibility: hidden; font-family: &quot;Helvetica Neue&quot;, sans-serif; font-size: 12px; font-weight: 200;" fill="rgb(50, 49, 63)" stroke="none" stroke-width="1px">-20</text><text x="131.45454545454547" y="0" dx="0em" dy="0.95em" style="text-anchor: middle; visibility: inherit; font-family: &quot;Helvetica Neue&quot;, sans-serif; font-size: 12px; font-weight: 200;" fill="rgb(50, 49, 63)" stroke="none" stroke-width="1px">0</text><text x="262.90909090909093" y="0" dx="0em" dy="0.95em" style="text-anchor: middle; visibility: inherit; font-family: &quot;Helvetica Neue&quot;, sans-serif; font-size: 12px; font-weight: 200;" fill="rgb(50, 49, 63)" stroke="none" stroke-width="1px">20</text><text x="394.3636363636363" y="0" dx="0em" dy="0.95em" style="text-anchor: middle; visibility: inherit; font-family: &quot;Helvetica Neue&quot;, sans-serif; font-size: 12px; font-weight: 200;" fill="rgb(50, 49, 63)" stroke="none" stroke-width="1px">40</text><text x="525.8181818181819" y="0" dx="0em" dy="0.95em" style="text-anchor: middle; visibility: inherit; font-family: &quot;Helvetica Neue&quot;, sans-serif; font-size: 12px; font-weight: 200;" fill="rgb(50, 49, 63)" stroke="none" stroke-width="1px">60</text><text x="657.2727272727273" y="0" dx="0em" dy="0.95em" style="text-anchor: middle; visibility: inherit; font-family: &quot;Helvetica Neue&quot;, sans-serif; font-size: 12px; font-weight: 200;" fill="rgb(50, 49, 63)" stroke="none" stroke-width="1px">80</text><text x="788.7272727272726" y="0" dx="0em" dy="0.95em" style="text-anchor: middle; visibility: inherit; font-family: &quot;Helvetica Neue&quot;, sans-serif; font-size: 12px; font-weight: 200;" fill="rgb(50, 49, 63)" stroke="none" stroke-width="1px">100</text><text x="920.1818181818181" y="0" dx="0em" dy="0.95em" style="text-anchor: middle; visibility: inherit; font-family: &quot;Helvetica Neue&quot;, sans-serif; font-size: 12px; font-weight: 200;" fill="rgb(50, 49, 63)" stroke="none" stroke-width="1px">120</text><text x="1051.6363636363637" y="0" dx="0em" dy="0.95em" style="text-anchor: middle; visibility: inherit; font-family: &quot;Helvetica Neue&quot;, sans-serif; font-size: 12px; font-weight: 200;" fill="rgb(50, 49, 63)" stroke="none" stroke-width="1px">140</text><text x="1183.0909090909092" y="0" dx="0em" dy="0.95em" style="text-anchor: middle; visibility: inherit; font-family: &quot;Helvetica Neue&quot;, sans-serif; font-size: 12px; font-weight: 200;" fill="rgb(50, 49, 63)" stroke="none" stroke-width="1px">160</text><text x="1314.5454545454545" y="0" dx="0em" dy="0.95em" style="text-anchor: middle; visibility: inherit; font-family: &quot;Helvetica Neue&quot;, sans-serif; font-size: 12px; font-weight: 200;" fill="rgb(50, 49, 63)" stroke="none" stroke-width="1px">180</text><text x="1446" y="0" dx="0em" dy="0.95em" style="text-anchor: middle; visibility: hidden; font-family: &quot;Helvetica Neue&quot;, sans-serif; font-size: 12px; font-weight: 200;" fill="rgb(50, 49, 63)" stroke="none" stroke-width="1px">200</text></g><line x1="0" y1="0" x2="1446" y2="0" fill="rgb(0, 0, 0)" stroke="rgb(204, 204, 204)" stroke-width="1px"></line></g></g></g></g></svg>