<?xml version="1.0" encoding="utf-8" standalone="no"?>
<!DOCTYPE svg PUBLIC "-//W3C//DTD SVG 1.1//EN"
  "http://www.w3.org/Graphics/SVG/1.1/DTD/svg11.dtd">
<!-- Created with matplotlib (https://matplotlib.org/) -->
<svg height="288pt" version="1.1" viewBox="0 0 720 288" width="720pt" xmlns="http://www.w3.org/2000/svg" xmlns:xlink="http://www.w3.org/1999/xlink">
 <defs>
  <style type="text/css">
*{stroke-linecap:butt;stroke-linejoin:round;}
  </style>
 </defs>
 <g id="figure_1">
  <g id="patch_1">
   <path d="M 0 288 
L 720 288 
L 720 0 
L 0 0 
z
" style="fill:#ffffff;"/>
  </g>
  <g id="axes_1">
   <g id="line2d_1">
    <path clip-path="url(#p6033bf8939)" d="M 64.344733 233.960958 
L 63.493513 234.210278 
L 59.707826 235.05632 
L 55.7749 235.735993 
L 53.878873 235.905788 
L 49.760061 236.040808 
L 47.582064 236.65651 
L 45.320079 237.409137 
L 45.883646 237.348636 
L 47.36141 237.391023 
L 53.42819 237.858253 
L 55.36103 237.622645 
L 57.507924 237.127471 
L 59.580843 236.417003 
L 61.527475 235.498805 
L 63.167248 234.461127 
L 64.329419 233.54346 
L 64.329419 233.54346 
" style="fill:none;stroke:#000000;stroke-linecap:square;stroke-opacity:0.7;stroke-width:1.2;"/>
   </g>
   <g id="line2d_2">
    <path clip-path="url(#p6033bf8939)" d="M 64.700952 187.915387 
L 63.875474 187.869235 
L 58.35404 187.431585 
L 56.30085 187.576639 
L 54.831659 187.933395 
L 53.824803 188.367889 
L 52.758438 189.080622 
L 51.743446 190.127239 
L 50.370988 191.748718 
L 49.569171 192.161031 
L 48.581662 192.338034 
L 47.508166 192.290699 
L 46.410868 191.994863 
L 45.795626 191.624224 
L 45.50905 191.187254 
L 45.618587 190.846748 
L 45.970044 190.674965 
L 47.472414 190.771734 
L 50.226268 191.276271 
L 52.066651 191.282435 
L 54.735783 191.014864 
L 57.605302 190.502047 
L 60.295551 189.794207 
L 62.090559 189.122558 
L 63.424527 188.400992 
L 64.132975 187.790929 
L 64.261814 187.601991 
L 64.261814 187.601991 
" style="fill:none;stroke:#000000;stroke-linecap:square;stroke-opacity:0.7;stroke-width:1.2;"/>
   </g>
   <g id="line2d_3">
    <path clip-path="url(#p6033bf8939)" d="M 64.194204 142.311246 
L 63.373827 142.461368 
L 59.928808 143.107065 
L 56.699136 143.942905 
L 53.025895 144.857782 
L 51.363956 145.085176 
L 49.646412 145.093132 
L 49.467063 145.051643 
L 49.588375 144.988681 
L 51.300468 144.488403 
L 51.344844 144.295885 
L 51.074828 144.130504 
L 50.226981 144.001229 
L 49.064464 144.067468 
L 47.718339 144.400078 
L 47.153353 144.652878 
L 46.462875 145.285241 
L 46.49342 145.616242 
L 46.740595 145.824867 
L 47.389501 146.027852 
L 48.691977 146.1355 
L 51.064323 146.034682 
L 54.209746 145.647929 
L 57.580218 144.988499 
L 60.217512 144.241264 
L 62.330986 143.374443 
L 63.495476 142.666942 
L 64.206991 141.986016 
L 64.261769 141.909142 
L 64.261769 141.909142 
" style="fill:none;stroke:#000000;stroke-linecap:square;stroke-opacity:0.7;stroke-width:1.2;"/>
   </g>
   <g id="line2d_4">
    <path clip-path="url(#p6033bf8939)" d="M 64.754222 96.477067 
L 57.858834 96.464138 
L 56.107698 96.777028 
L 54.304259 97.346087 
L 52.048665 98.113605 
L 49.749276 98.628486 
L 46.979955 99.552874 
L 44.664398 100.288527 
L 44.509343 100.277972 
L 44.715626 100.183209 
L 45.517793 100.098845 
L 47.709478 100.155986 
L 50.448086 100.179816 
L 52.540854 100.005477 
L 56.092346 99.471212 
L 59.385926 98.757233 
L 61.829688 98.028779 
L 63.497018 97.317316 
L 64.323654 96.762807 
L 64.67029 96.298523 
L 64.703187 96.102372 
L 64.703187 96.102372 
" style="fill:none;stroke:#000000;stroke-linecap:square;stroke-opacity:0.7;stroke-width:1.2;"/>
   </g>
   <g id="line2d_5">
    <path clip-path="url(#p6033bf8939)" d="M 63.839953 50.46757 
L 63.13065 50.328851 
L 61.400727 50.056066 
L 60.104248 50.039066 
L 58.430139 50.242281 
L 56.208417 50.771566 
L 47.924178 53.025991 
L 46.727084 53.056913 
L 46.640382 53.010488 
L 46.693561 52.935554 
L 47.155934 52.815232 
L 49.575896 52.45146 
L 49.563757 52.412404 
L 49.383265 52.354007 
L 48.914717 52.460591 
L 48.619645 52.760149 
L 48.635366 53.027396 
L 49.054271 53.382667 
L 49.76723 53.613785 
L 51.007835 53.779488 
L 52.844469 53.806871 
L 54.505645 53.700188 
L 56.435995 53.447668 
L 59.200563 52.82416 
L 61.44819 51.98406 
L 62.758814 51.218242 
L 63.583759 50.466474 
L 63.79983 50.207055 
L 63.79983 50.207055 
" style="fill:none;stroke:#000000;stroke-linecap:square;stroke-opacity:0.7;stroke-width:1.2;"/>
   </g>
   <g id="line2d_6">
    <path clip-path="url(#p6033bf8939)" d="M 217.211818 233.920078 
L 216.555842 234.055429 
L 208.523821 235.440991 
L 202.320152 237.221487 
L 197.760295 238.618711 
L 196.516507 238.784337 
L 196.326605 238.685977 
L 196.446565 238.500643 
L 196.842298 238.269659 
L 197.810895 237.93063 
L 198.981471 237.679825 
L 201.291712 237.468903 
L 203.78221 237.531013 
L 207.275635 237.647996 
L 208.955385 237.497896 
L 210.745033 237.153085 
L 212.495539 236.620658 
L 214.138371 235.909181 
L 215.520688 235.077674 
L 216.524342 234.217618 
L 217.029819 233.554325 
L 217.029819 233.554325 
" style="fill:none;stroke:#000000;stroke-linecap:square;stroke-opacity:0.7;stroke-width:1.2;"/>
   </g>
   <g id="line2d_7">
    <path clip-path="url(#p6033bf8939)" d="M 217.200433 187.882866 
L 217.167552 187.775008 
L 216.874641 187.614836 
L 216.100768 187.494099 
L 214.80776 187.553432 
L 212.666524 187.909878 
L 209.261982 188.750907 
L 204.059941 190.321333 
L 197.369969 192.593762 
L 196.987303 192.745105 
L 202.804949 190.487508 
L 203.484507 189.965804 
L 203.540048 189.669552 
L 203.320777 189.486134 
L 202.959373 189.400226 
L 202.509979 189.514937 
L 202.597849 189.668511 
L 203.131901 189.887309 
L 204.561241 190.11206 
L 206.462634 190.202486 
L 209.458634 190.102357 
L 211.72375 189.803884 
L 213.520225 189.35608 
L 215.081034 188.726465 
L 216.483808 187.891273 
L 216.936255 187.590314 
L 216.936255 187.590314 
" style="fill:none;stroke:#000000;stroke-linecap:square;stroke-opacity:0.7;stroke-width:1.2;"/>
   </g>
   <g id="line2d_8">
    <path clip-path="url(#p6033bf8939)" d="M 216.614859 142.265519 
L 216.350881 142.176237 
L 215.297783 142.089652 
L 213.42352 142.170222 
L 210.994844 142.505562 
L 208.237194 143.111481 
L 205.142138 144.018676 
L 201.971038 145.181206 
L 200.206974 146.035982 
L 197.406553 147.542699 
L 197.092987 147.619585 
L 199.428134 146.85136 
L 202.938853 146.119305 
L 210.254899 144.759543 
L 210.230093 144.510245 
L 210.274549 144.196677 
L 210.626983 143.889918 
L 211.68431 143.375754 
L 214.717449 142.255303 
L 216.283078 141.699388 
L 216.283078 141.699388 
" style="fill:none;stroke:#000000;stroke-linecap:square;stroke-opacity:0.7;stroke-width:1.2;"/>
   </g>
   <g id="line2d_9">
    <path clip-path="url(#p6033bf8939)" d="M 217.635973 96.566452 
L 215.840036 96.512581 
L 213.357163 96.612404 
L 211.179248 96.900528 
L 209.692017 97.28023 
L 208.286632 97.901019 
L 206.273859 98.978714 
L 204.999262 99.003076 
L 202.095062 99.078742 
L 199.595637 99.347242 
L 199.617135 99.381688 
L 200.040114 99.624997 
L 201.005075 99.945992 
L 202.314614 100.104736 
L 203.976587 100.042844 
L 206.470844 99.717764 
L 209.758754 99.073062 
L 212.617208 98.306851 
L 214.857089 97.48777 
L 216.462179 96.665947 
L 217.373859 96.009423 
L 217.373859 96.009423 
" style="fill:none;stroke:#000000;stroke-linecap:square;stroke-opacity:0.7;stroke-width:1.2;"/>
   </g>
   <g id="line2d_10">
    <path clip-path="url(#p6033bf8939)" d="M 216.721644 50.974649 
L 213.100876 50.84208 
L 210.204842 50.993877 
L 205.256186 51.404417 
L 204.009805 51.189329 
L 202.813468 50.97383 
L 202.808907 50.994245 
L 202.880096 51.123221 
L 203.583845 52.034847 
L 203.376489 52.204219 
L 202.537538 52.436816 
L 202.1997 52.60613 
L 202.222411 52.635556 
L 202.473052 52.723084 
L 203.834195 52.855697 
L 205.84433 52.808755 
L 208.393148 52.522797 
L 211.578592 51.940551 
L 214.943179 51.083633 
L 216.790084 50.500699 
L 216.790084 50.500699 
" style="fill:none;stroke:#000000;stroke-linecap:square;stroke-opacity:0.7;stroke-width:1.2;"/>
   </g>
   <g id="line2d_11">
    <path clip-path="url(#p6033bf8939)" d="M 369.499727 234.104942 
L 366.692182 234.70599 
L 363.444447 235.342431 
L 360.789542 235.606292 
L 355.723033 235.939637 
L 354.003993 236.292367 
L 352.933822 236.268551 
L 352.233338 236.0305 
L 352.133642 235.867431 
L 352.154276 235.842785 
L 352.281268 235.801552 
L 352.99519 235.887623 
L 354.749763 236.420287 
L 356.792491 236.980727 
L 358.13959 237.158445 
L 359.836178 237.161441 
L 361.843298 236.913724 
L 363.311711 236.582108 
L 365.552892 235.826372 
L 367.526724 234.871685 
L 369.173793 233.807253 
L 369.484599 233.580882 
L 369.484599 233.580882 
" style="fill:none;stroke:#000000;stroke-linecap:square;stroke-opacity:0.7;stroke-width:1.2;"/>
   </g>
   <g id="line2d_12">
    <path clip-path="url(#p6033bf8939)" d="M 370.001836 188.037253 
L 369.265064 187.847455 
L 367.793948 187.693961 
L 366.037618 187.77164 
L 364.312574 188.109864 
L 362.395924 188.768347 
L 359.669988 189.762429 
L 358.732362 189.839245 
L 357.857564 189.673292 
L 355.561004 188.982324 
L 355.352989 189.08758 
L 355.237952 189.492043 
L 355.183604 190.427844 
L 355.086301 190.664264 
L 355.106257 190.677779 
L 355.490397 190.709983 
L 357.108138 190.503467 
L 362.558484 189.61681 
L 366.173896 188.77071 
L 368.88034 187.915252 
L 369.871844 187.542098 
L 369.871844 187.542098 
" style="fill:none;stroke:#000000;stroke-linecap:square;stroke-opacity:0.7;stroke-width:1.2;"/>
   </g>
   <g id="line2d_13">
    <path clip-path="url(#p6033bf8939)" d="M 369.663674 142.381457 
L 365.212671 142.02729 
L 363.113412 142.107256 
L 361.5309 142.296056 
L 358.808437 142.888722 
L 356.79936 143.536323 
L 354.752471 144.418443 
L 353.539399 145.18291 
L 352.728869 145.712344 
L 352.044844 145.769372 
L 351.556524 145.624805 
L 351.447102 145.453518 
L 351.531408 145.214502 
L 351.903513 144.911923 
L 352.688382 144.596903 
L 354.214322 144.380078 
L 355.579088 144.43648 
L 361.492488 145.047067 
L 363.034957 144.89398 
L 364.476722 144.554773 
L 365.600277 144.121536 
L 367.111292 143.25797 
L 369.153313 141.752422 
L 369.153313 141.752422 
" style="fill:none;stroke:#000000;stroke-linecap:square;stroke-opacity:0.7;stroke-width:1.2;"/>
   </g>
   <g id="line2d_14">
    <path clip-path="url(#p6033bf8939)" d="M 370.105562 96.357896 
L 367.553659 96.051847 
L 365.450752 96.037221 
L 363.627938 96.252913 
L 361.964831 96.699411 
L 360.715376 97.247447 
L 359.369442 98.09114 
L 358.231289 98.781143 
L 357.528404 98.902648 
L 355.438232 99.120343 
L 354.661687 99.379835 
L 356.043368 99.045285 
L 359.185375 98.361577 
L 362.348839 97.610724 
L 368.668953 96.200313 
L 369.62681 95.970647 
L 369.62681 95.970647 
" style="fill:none;stroke:#000000;stroke-linecap:square;stroke-opacity:0.7;stroke-width:1.2;"/>
   </g>
   <g id="line2d_15">
    <path clip-path="url(#p6033bf8939)" d="M 370.324968 50.262695 
L 369.979306 50.157815 
L 368.805304 50.007681 
L 367.083698 50.019405 
L 365.256362 50.240023 
L 363.820565 50.547274 
L 361.48127 51.304117 
L 359.731068 52.09778 
L 357.895391 53.157319 
L 355.530369 54.585385 
L 354.692001 54.775798 
L 354.418186 54.679565 
L 354.436337 54.398693 
L 354.933326 53.902504 
L 355.708396 53.162868 
L 355.6427 52.995141 
L 355.33899 52.920291 
L 354.610655 52.997544 
L 354.107715 53.249715 
L 354.278321 53.392941 
L 355.00995 53.460069 
L 356.997459 53.371296 
L 360.693008 52.971712 
L 363.976355 52.404259 
L 365.961513 51.912606 
L 368.231611 51.11378 
L 369.592186 50.407637 
L 369.991933 50.138984 
L 369.991933 50.138984 
" style="fill:none;stroke:#000000;stroke-linecap:square;stroke-opacity:0.7;stroke-width:1.2;"/>
   </g>
   <g id="line2d_16">
    <path clip-path="url(#p6033bf8939)" d="M 522.715728 233.773094 
L 522.464267 233.718778 
L 520.94759 233.55439 
L 519.068856 233.562033 
L 517.407447 233.727083 
L 515.098488 234.168229 
L 512.46207 234.923954 
L 508.709781 236.285671 
L 507.349809 236.746194 
L 506.065731 237.004911 
L 505.461268 236.942654 
L 505.25452 236.760561 
L 505.338925 236.520169 
L 505.799308 236.219927 
L 506.930477 235.662428 
L 506.793308 235.544025 
L 506.405258 235.542118 
L 505.981128 235.754762 
L 505.77528 236.080905 
L 505.75852 236.44747 
L 505.915861 236.825584 
L 506.294898 237.210241 
L 506.917027 237.521416 
L 508.162757 237.751828 
L 510.082718 237.738175 
L 512.629294 237.455326 
L 515.573334 236.901901 
L 518.110093 236.2071 
L 519.963226 235.483619 
L 521.248706 234.748661 
L 522.040669 234.032823 
L 522.407243 233.421227 
L 522.44508 233.291414 
L 522.44508 233.291414 
" style="fill:none;stroke:#000000;stroke-linecap:square;stroke-opacity:0.7;stroke-width:1.2;"/>
   </g>
   <g id="line2d_17">
    <path clip-path="url(#p6033bf8939)" d="M 522.606194 188.292376 
L 520.216988 188.407808 
L 514.328078 188.703815 
L 509.141702 189.302474 
L 508.0857 189.165281 
L 509.756667 189.2333 
L 510.007908 189.162765 
L 509.940059 189.108377 
L 509.481411 189.054269 
L 508.264541 189.183795 
L 506.831578 189.600349 
L 505.781479 190.082295 
L 504.904197 190.650036 
L 504.12559 191.454531 
L 503.903664 192.014414 
L 503.922014 192.305627 
L 504.233932 192.755044 
L 504.757312 193.03407 
L 505.664786 193.247141 
L 506.934162 193.335495 
L 509.157134 193.232362 
L 511.865825 192.862725 
L 514.883854 192.216806 
L 517.890758 191.307292 
L 520.114368 190.37054 
L 521.590873 189.480698 
L 522.357124 188.769181 
L 522.715114 188.125053 
L 522.729268 187.712675 
L 522.729268 187.712675 
" style="fill:none;stroke:#000000;stroke-linecap:square;stroke-opacity:0.7;stroke-width:1.2;"/>
   </g>
   <g id="line2d_18">
    <path clip-path="url(#p6033bf8939)" d="M 522.904169 142.481379 
L 522.904581 142.480658 
L 522.785466 142.476045 
L 521.03488 142.594881 
L 518.232146 143.00067 
L 514.598496 143.752168 
L 507.006145 145.451774 
L 505.215939 145.506719 
L 504.487508 145.658546 
L 502.522663 146.410575 
L 503.301504 146.13661 
L 504.767457 146.147828 
L 511.622238 146.666099 
L 514.379972 146.392462 
L 516.835146 145.908146 
L 518.796872 145.325739 
L 520.212478 144.735225 
L 521.550905 143.905414 
L 522.14879 143.309416 
L 522.531164 142.591146 
L 522.581607 142.011922 
L 522.563686 141.923957 
L 522.563686 141.923957 
" style="fill:none;stroke:#000000;stroke-linecap:square;stroke-opacity:0.7;stroke-width:1.2;"/>
   </g>
   <g id="line2d_19">
    <path clip-path="url(#p6033bf8939)" d="M 521.803179 96.581467 
L 514.747527 97.488931 
L 513.149242 97.52829 
L 512.275891 97.378699 
L 509.748876 96.537514 
L 508.64993 96.606695 
L 507.753864 96.86657 
L 506.631118 97.444199 
L 505.680594 98.17565 
L 504.864931 99.075796 
L 504.691488 99.514429 
L 504.820619 99.719333 
L 505.025163 99.797722 
L 505.93838 99.832242 
L 507.776582 99.590204 
L 511.445782 98.804897 
L 520.51939 96.635637 
L 521.7908 96.289217 
L 521.7908 96.289217 
" style="fill:none;stroke:#000000;stroke-linecap:square;stroke-opacity:0.7;stroke-width:1.2;"/>
   </g>
   <g id="line2d_20">
    <path clip-path="url(#p6033bf8939)" d="M 522.907632 50.589993 
L 522.622908 50.355543 
L 521.836919 49.984379 
L 520.886731 49.730694 
L 519.531909 49.601554 
L 518.139896 49.681392 
L 516.35919 50.018935 
L 513.928994 50.765158 
L 507.396221 53.014555 
L 505.361972 53.482392 
L 505.476566 53.528486 
L 506.109328 53.578836 
L 506.180409 53.430392 
L 506.058193 53.025499 
L 506.143515 53.012275 
L 507.050932 53.074499 
L 509.602406 53.189235 
L 512.769612 53.084996 
L 515.827917 52.773733 
L 518.53084 52.263872 
L 520.278343 51.723755 
L 521.64614 51.034863 
L 522.320023 50.4289 
L 522.509429 50.111164 
L 522.509429 50.111164 
" style="fill:none;stroke:#000000;stroke-linecap:square;stroke-opacity:0.7;stroke-width:1.2;"/>
   </g>
   <g id="line2d_21">
    <path clip-path="url(#p6033bf8939)" d="M 675.042043 233.671989 
L 673.471087 233.119507 
L 671.19637 232.436364 
L 669.739074 232.170584 
L 668.303989 232.112496 
L 667.066948 232.28342 
L 666.174806 232.560181 
L 664.506834 233.422447 
L 660.898183 235.619232 
L 659.908378 235.874996 
L 659.825525 235.866469 
L 660.014484 235.795013 
L 661.328515 235.408306 
L 660.586892 235.712396 
L 660.149067 236.169154 
L 660.053673 236.53036 
L 660.227892 236.872224 
L 660.650454 237.10662 
L 661.437008 237.25869 
L 662.659552 237.269842 
L 664.784883 237.021411 
L 667.087443 236.530225 
L 669.720944 235.734034 
L 672.011438 234.803497 
L 673.782561 233.838252 
L 674.637915 233.230282 
L 674.637915 233.230282 
" style="fill:none;stroke:#000000;stroke-linecap:square;stroke-opacity:0.7;stroke-width:1.2;"/>
   </g>
   <g id="line2d_22">
    <path clip-path="url(#p6033bf8939)" d="M 675.009697 187.696673 
L 674.371841 187.198514 
L 673.354534 186.638609 
L 672.063278 186.204909 
L 671.056077 186.050133 
L 669.74293 186.061293 
L 668.379482 186.294793 
L 666.642518 186.855259 
L 664.228021 187.95093 
L 660.942175 189.484772 
L 659.514687 189.887659 
L 658.67364 189.93542 
L 658.324757 189.776938 
L 658.541817 189.657796 
L 659.372826 189.537664 
L 661.142772 189.542455 
L 662.573324 189.74244 
L 662.698856 189.878196 
L 662.680136 189.90476 
L 662.266836 190.089002 
L 661.524303 190.192979 
L 661.499024 190.131306 
L 661.547127 190.088397 
L 662.17398 189.814294 
L 663.491455 189.497511 
L 667.271945 188.948784 
L 671.488066 188.227782 
L 674.766115 187.442449 
L 674.951695 187.39219 
L 674.951695 187.39219 
" style="fill:none;stroke:#000000;stroke-linecap:square;stroke-opacity:0.7;stroke-width:1.2;"/>
   </g>
   <g id="line2d_23">
    <path clip-path="url(#p6033bf8939)" d="M 674.895234 142.338192 
L 670.271755 143.140579 
L 666.697487 143.848357 
L 665.811513 144.230531 
L 665.415431 144.446798 
L 664.641201 144.576917 
L 659.560621 144.543297 
L 657.066601 144.952701 
L 655.500414 145.170829 
L 655.240917 145.035252 
L 655.30988 144.881255 
L 655.548565 144.749395 
L 656.479903 144.573783 
L 657.796733 144.557122 
L 660.275693 144.7719 
L 664.833584 145.252546 
L 666.514161 145.180022 
L 667.966466 144.920559 
L 669.328413 144.518284 
L 671.427193 143.624888 
L 673.553674 142.401005 
L 674.520469 141.765515 
L 674.520469 141.765515 
" style="fill:none;stroke:#000000;stroke-linecap:square;stroke-opacity:0.7;stroke-width:1.2;"/>
   </g>
   <g id="line2d_24">
    <path clip-path="url(#p6033bf8939)" d="M 675.169617 95.848345 
L 675.092934 95.549031 
L 674.715204 95.029478 
L 674.111138 94.514062 
L 673.246504 94.03126 
L 672.052719 93.63492 
L 670.735317 93.432594 
L 669.129116 93.422905 
L 667.550678 93.608512 
L 665.673089 94.0311 
L 663.336036 94.806858 
L 660.577985 96.006583 
L 657.095168 97.823277 
L 654.601171 99.153388 
L 654.749786 99.113629 
L 656.564362 98.693717 
L 659.35631 98.343238 
L 662.497296 98.215325 
L 663.688897 98.247664 
L 663.268484 98.300774 
L 661.224533 98.58816 
L 659.901249 98.906344 
L 658.836831 99.406807 
L 658.758551 99.571825 
L 658.934085 99.728297 
L 659.442846 99.811085 
L 660.699217 99.76625 
L 662.975341 99.463001 
L 666.645489 98.73029 
L 670.056984 97.819531 
L 672.638114 96.912696 
L 674.218458 96.15778 
L 674.917066 95.67733 
L 674.917066 95.67733 
" style="fill:none;stroke:#000000;stroke-linecap:square;stroke-opacity:0.7;stroke-width:1.2;"/>
   </g>
   <g id="line2d_25">
    <path clip-path="url(#p6033bf8939)" d="M 675.451887 50.365231 
L 675.481836 50.174443 
L 675.304399 49.859321 
L 674.874615 49.540834 
L 674.179542 49.308897 
L 673.077809 49.208928 
L 671.51078 49.325179 
L 669.588398 49.681312 
L 666.9938 50.368905 
L 662.893049 51.725419 
L 657.740668 53.689491 
L 654.584665 55.076371 
L 654.553193 55.112817 
L 654.919436 55.12268 
L 657.97726 54.664047 
L 660.440002 53.871188 
L 662.674639 53.368274 
L 664.663152 53.171427 
L 668.482673 52.901114 
L 670.215486 52.571589 
L 672.123619 51.956673 
L 673.349027 51.374143 
L 674.692982 50.481806 
L 675.120112 50.108535 
L 675.120112 50.108535 
" style="fill:none;stroke:#000000;stroke-linecap:square;stroke-opacity:0.7;stroke-width:1.2;"/>
   </g>
  </g>
 </g>
 <defs>
  <clipPath id="p6033bf8939">
   <rect height="262.08" width="694.08" x="12.96" y="12.96"/>
  </clipPath>
 </defs>
</svg>
