<?xml version="1.0" encoding="utf-8" standalone="no"?>
<!DOCTYPE svg PUBLIC "-//W3C//DTD SVG 1.1//EN"
  "http://www.w3.org/Graphics/SVG/1.1/DTD/svg11.dtd">
<!-- Created with matplotlib (https://matplotlib.org/) -->
<svg height="288pt" version="1.1" viewBox="0 0 720 288" width="720pt" xmlns="http://www.w3.org/2000/svg" xmlns:xlink="http://www.w3.org/1999/xlink">
 <defs>
  <style type="text/css">
*{stroke-linecap:butt;stroke-linejoin:round;}
  </style>
 </defs>
 <g id="figure_1">
  <g id="patch_1">
   <path d="M 0 288 
L 720 288 
L 720 0 
L 0 0 
z
" style="fill:#ffffff;"/>
  </g>
  <g id="axes_1">
   <g id="line2d_1">
    <path clip-path="url(#p0f47a2287b)" d="M 146.40572 229.387458 
L 122.177795 225.049412 
L 112.27835 223.494196 
L 104.639197 222.492786 
L 97.381697 221.756884 
L 90.96262 221.293814 
L 84.279273 221.001575 
L 77.498892 220.92808 
L 72.899132 221.04009 
L 68.028974 221.349149 
L 63.42731 221.880661 
L 60.03939 222.466815 
L 56.735273 223.240245 
L 53.323576 224.295264 
L 49.974541 225.643452 
L 48.559293 226.342495 
L 46.84713 227.473122 
L 46.350511 228.127052 
L 46.260099 228.604129 
L 46.403796 229.132284 
L 46.927117 229.833425 
L 47.48768 230.320973 
L 48.821608 231.151362 
L 50.405458 231.844935 
L 52.582345 232.506641 
L 54.324501 232.881141 
L 57.702322 233.380952 
L 63.645595 233.940866 
L 76.214324 234.804162 
L 83.817936 235.158938 
L 90.1979 235.242984 
L 96.417362 235.093779 
L 102.5964 234.74068 
L 109.950066 234.110119 
L 118.417505 233.173302 
L 129.265082 231.745061 
L 146.382911 229.343107 
L 146.382911 229.343107 
" style="fill:none;stroke:#000000;stroke-linecap:square;stroke-opacity:0.7;stroke-width:1.2;"/>
   </g>
   <g id="line2d_2">
    <path clip-path="url(#p0f47a2287b)" d="M 146.460431 189.685954 
L 137.388678 187.862607 
L 126.087867 185.807797 
L 115.926942 184.184901 
L 107.559807 183.074319 
L 99.551372 182.255571 
L 92.165166 181.727228 
L 84.21369 181.405278 
L 77.125991 181.365123 
L 71.3594 181.559457 
L 66.021545 181.99461 
L 61.698969 182.59948 
L 57.667214 183.448943 
L 54.87776 184.255204 
L 52.095648 185.300679 
L 49.976336 186.319771 
L 48.467576 187.226331 
L 47.208334 188.229568 
L 46.66997 188.916083 
L 46.504292 189.51215 
L 46.639407 190.036957 
L 47.04779 190.569838 
L 47.908306 191.241157 
L 49.335985 192.013904 
L 50.915372 192.652155 
L 52.881584 193.254587 
L 55.721865 193.882946 
L 60.520042 194.603683 
L 68.5444 195.473627 
L 77.677123 196.274467 
L 84.582364 196.684339 
L 90.504985 196.810826 
L 95.840725 196.722222 
L 101.824099 196.409314 
L 108.044842 195.875746 
L 115.289048 195.027614 
L 123.406117 193.833604 
L 132.350828 192.273931 
L 146.444224 189.56595 
L 146.444224 189.56595 
" style="fill:none;stroke:#000000;stroke-linecap:square;stroke-opacity:0.7;stroke-width:1.2;"/>
   </g>
   <g id="line2d_3">
    <path clip-path="url(#p0f47a2287b)" d="M 146.359673 150.229412 
L 137.890967 148.977476 
L 128.18895 147.762616 
L 119.36155 146.891066 
L 111.6369 146.365638 
L 104.198121 146.091811 
L 95.667763 146.017281 
L 83.651107 146.168429 
L 67.648134 146.575671 
L 60.471025 146.959148 
L 55.782389 147.395626 
L 51.271328 148.037725 
L 47.891713 148.747222 
L 46.858975 149.127934 
L 46.540377 149.443013 
L 46.550943 149.793676 
L 46.867471 150.242773 
L 47.337479 150.638269 
L 48.368702 151.233251 
L 49.465033 151.677966 
L 52.18142 152.387722 
L 55.229925 152.878007 
L 60.934759 153.512847 
L 73.618922 154.656145 
L 81.154464 155.175526 
L 88.361884 155.437198 
L 95.304615 155.428282 
L 102.708616 155.162717 
L 110.670922 154.639607 
L 119.243533 153.858167 
L 128.98522 152.742921 
L 139.033633 151.362908 
L 146.353266 150.235224 
L 146.353266 150.235224 
" style="fill:none;stroke:#000000;stroke-linecap:square;stroke-opacity:0.7;stroke-width:1.2;"/>
   </g>
   <g id="line2d_4">
    <path clip-path="url(#p0f47a2287b)" d="M 146.318639 110.35193 
L 136.118686 109.358487 
L 124.196541 108.409911 
L 112.147992 107.679438 
L 99.689102 107.160911 
L 65.233891 106.063954 
L 60.830566 106.145971 
L 57.523225 106.358218 
L 53.74941 106.81817 
L 51.093966 107.316459 
L 47.710755 108.225541 
L 45.735679 109.005685 
L 44.755649 109.681073 
L 44.526188 110.098491 
L 44.546482 110.503177 
L 44.78917 110.938097 
L 45.278108 111.411339 
L 46.55265 112.169867 
L 48.028668 112.740918 
L 50.71949 113.402882 
L 53.52948 113.83802 
L 59.5062 114.483053 
L 73.530666 115.750429 
L 79.895552 116.12182 
L 85.271018 116.244611 
L 90.399154 116.182235 
L 96.903406 115.876615 
L 104.725451 115.253783 
L 114.100076 114.267858 
L 127.684209 112.590263 
L 146.024286 110.317491 
L 146.343971 110.291983 
L 146.343971 110.291983 
" style="fill:none;stroke:#000000;stroke-linecap:square;stroke-opacity:0.7;stroke-width:1.2;"/>
   </g>
   <g id="line2d_5">
    <path clip-path="url(#p0f47a2287b)" d="M 146.249008 70.365986 
L 138.236872 68.980281 
L 128.680973 67.535511 
L 119.332145 66.335524 
L 111.347238 65.525999 
L 104.206167 65.001542 
L 95.817412 64.602218 
L 84.63326 64.316797 
L 74.787642 64.289289 
L 68.762519 64.485626 
L 64.110038 64.857043 
L 59.97708 65.430699 
L 56.263754 66.194689 
L 52.58279 67.213382 
L 48.878905 68.520226 
L 46.704252 69.491675 
L 45.987085 69.997952 
L 45.847692 70.308485 
L 45.994101 70.637602 
L 46.423416 70.97908 
L 47.280118 71.393738 
L 48.327397 71.739228 
L 50.566785 72.185828 
L 53.320048 72.436451 
L 58.581137 72.572919 
L 71.530355 72.8392 
L 84.096641 73.107192 
L 89.612851 73.039199 
L 97.655159 72.683802 
L 110.217783 71.833439 
L 125.54691 70.841861 
L 135.098729 70.414155 
L 142.601224 70.281442 
L 146.257193 70.342827 
L 146.257193 70.342827 
" style="fill:none;stroke:#000000;stroke-linecap:square;stroke-opacity:0.7;stroke-width:1.2;"/>
   </g>
   <g id="line2d_6">
    <path clip-path="url(#p0f47a2287b)" d="M 278.644856 229.139815 
L 268.647711 226.992488 
L 255.177201 224.325204 
L 243.871944 222.289388 
L 235.378619 220.952226 
L 228.430058 220.043652 
L 221.782066 219.376377 
L 215.205348 218.949868 
L 209.257471 218.812356 
L 204.664414 218.917303 
L 200.263735 219.250797 
L 196.842162 219.720109 
L 193.938775 220.306651 
L 191.007954 221.121455 
L 187.949674 222.271189 
L 185.196726 223.630115 
L 183.118901 224.904644 
L 181.516371 226.079695 
L 180.222653 227.255754 
L 179.648677 227.997827 
L 179.389537 228.718942 
L 179.472697 229.340579 
L 179.823762 229.935248 
L 180.431837 230.539819 
L 181.832874 231.449226 
L 183.257568 232.078092 
L 185.214458 232.669179 
L 187.267863 233.07596 
L 190.419409 233.466016 
L 196.421658 233.906639 
L 208.876766 234.558614 
L 215.444633 234.735749 
L 221.529594 234.671904 
L 227.517824 234.366715 
L 234.18843 233.797714 
L 243.747532 232.720835 
L 270.291563 229.537593 
L 276.41436 229.105345 
L 278.647057 229.050366 
L 278.647057 229.050366 
" style="fill:none;stroke:#000000;stroke-linecap:square;stroke-opacity:0.7;stroke-width:1.2;"/>
   </g>
   <g id="line2d_7">
    <path clip-path="url(#p0f47a2287b)" d="M 278.48083 189.380936 
L 272.226205 187.78816 
L 263.771183 185.901036 
L 254.937678 184.161117 
L 246.304031 182.700976 
L 239.352942 181.745943 
L 232.968079 181.082722 
L 227.400967 180.680184 
L 219.364066 180.357589 
L 212.298554 180.292304 
L 205.300328 180.438715 
L 200.043955 180.736768 
L 195.07577 181.247245 
L 190.964897 181.92403 
L 187.787888 182.670558 
L 184.455609 183.729369 
L 182.188744 184.648631 
L 179.786315 185.84466 
L 177.840328 187.071406 
L 176.895386 187.883339 
L 176.455093 188.507063 
L 176.355139 188.877935 
L 176.450615 189.38456 
L 176.978968 190.01804 
L 177.593877 190.429404 
L 179.006264 191.017452 
L 181.012193 191.458455 
L 183.700829 191.663164 
L 186.379638 191.626345 
L 192.645932 191.195786 
L 206.354527 190.177582 
L 224.307004 189.116873 
L 233.622362 188.790229 
L 243.744984 188.682735 
L 256.21863 188.795743 
L 274.286558 189.218191 
L 278.467537 189.314278 
L 278.467537 189.314278 
" style="fill:none;stroke:#000000;stroke-linecap:square;stroke-opacity:0.7;stroke-width:1.2;"/>
   </g>
   <g id="line2d_8">
    <path clip-path="url(#p0f47a2287b)" d="M 278.650273 149.853903 
L 269.319033 147.662452 
L 256.918783 144.978845 
L 245.570828 142.74091 
L 236.651436 141.20227 
L 228.55174 140.057939 
L 222.589056 139.408739 
L 216.137544 138.921483 
L 210.154195 138.709537 
L 204.963592 138.76753 
L 201.351089 138.984185 
L 196.906083 139.522764 
L 193.959979 140.102603 
L 191.284804 140.835693 
L 188.964472 141.674968 
L 186.499716 142.828679 
L 184.141022 144.254844 
L 181.928292 145.987183 
L 180.504379 147.463436 
L 179.877145 148.385983 
L 179.592461 149.17241 
L 179.622557 149.847566 
L 179.876631 150.394476 
L 180.427111 151.023668 
L 181.324657 151.699415 
L 182.144306 152.151379 
L 183.728822 152.753011 
L 185.315673 153.111663 
L 188.196822 153.411614 
L 192.197927 153.507009 
L 232.116322 153.454995 
L 241.329387 153.031019 
L 251.437884 152.332781 
L 263.477706 151.266546 
L 278.602379 149.778102 
L 278.602379 149.778102 
" style="fill:none;stroke:#000000;stroke-linecap:square;stroke-opacity:0.7;stroke-width:1.2;"/>
   </g>
   <g id="line2d_9">
    <path clip-path="url(#p0f47a2287b)" d="M 278.576423 110.050792 
L 271.567552 108.185866 
L 262.631965 106.047639 
L 253.753385 104.11521 
L 244.91867 102.402733 
L 237.805296 101.225496 
L 230.780495 100.288816 
L 223.875718 99.613283 
L 217.551301 99.216916 
L 212.321587 99.064457 
L 205.919767 99.147171 
L 201.842226 99.411912 
L 198.318048 99.832891 
L 195.560953 100.333783 
L 192.370738 101.17185 
L 190.390396 101.873594 
L 188.250956 102.826691 
L 185.891636 104.154885 
L 183.655642 105.728468 
L 182.199822 106.964915 
L 181.073569 108.127782 
L 180.448017 108.993032 
L 180.088787 110.021904 
L 180.166465 110.654559 
L 180.474022 111.227762 
L 181.284262 112.011628 
L 182.493735 112.742604 
L 184.2136 113.426874 
L 185.861285 113.844279 
L 188.142163 114.153628 
L 190.904389 114.253088 
L 195.569569 114.101987 
L 218.611015 113.000132 
L 236.733666 112.138449 
L 278.56325 109.982917 
L 278.56325 109.982917 
" style="fill:none;stroke:#000000;stroke-linecap:square;stroke-opacity:0.7;stroke-width:1.2;"/>
   </g>
   <g id="line2d_10">
    <path clip-path="url(#p0f47a2287b)" d="M 278.609353 69.995349 
L 275.425428 68.045893 
L 272.262603 66.308933 
L 267.605815 64.00832 
L 261.864615 61.493749 
L 256.835525 59.536005 
L 251.562397 57.714558 
L 246.041996 56.072978 
L 242.029439 55.068264 
L 237.189555 54.091344 
L 232.987874 53.463631 
L 228.467523 53.015657 
L 224.31267 52.800387 
L 219.169298 52.775833 
L 214.00516 53.008774 
L 209.633276 53.413238 
L 205.429037 54.002668 
L 200.7492 54.941046 
L 196.839466 56.026137 
L 194.360162 56.906982 
L 191.89193 57.983464 
L 190.04546 58.957397 
L 188.199236 60.117785 
L 186.258842 61.59744 
L 184.463725 63.280506 
L 183.063309 64.87989 
L 181.642992 66.913948 
L 180.94651 68.277021 
L 180.639102 69.331235 
L 180.63832 70.056394 
L 180.771007 70.501231 
L 181.540403 71.458608 
L 182.669595 72.18457 
L 184.670284 72.966221 
L 186.334033 73.344923 
L 188.163451 73.563201 
L 190.830049 73.643098 
L 196.290472 73.474563 
L 206.747611 73.148536 
L 222.87873 72.784936 
L 232.199732 72.25586 
L 264.027813 70.230041 
L 273.38936 69.944794 
L 278.628133 69.944967 
L 278.628133 69.944967 
" style="fill:none;stroke:#000000;stroke-linecap:square;stroke-opacity:0.7;stroke-width:1.2;"/>
   </g>
   <g id="line2d_11">
    <path clip-path="url(#p0f47a2287b)" d="M 410.761208 229.089034 
L 403.918305 227.178711 
L 394.934049 224.904927 
L 383.357059 222.21894 
L 374.126753 220.270337 
L 365.219096 218.61259 
L 358.612222 217.592546 
L 352.524556 216.86753 
L 346.853817 216.413838 
L 341.134404 216.205058 
L 336.072314 216.269089 
L 331.705294 216.564415 
L 328.437525 216.976986 
L 325.909071 217.442432 
L 323.291547 218.095082 
L 320.015418 219.22644 
L 318.081813 220.099638 
L 316.073204 221.202826 
L 313.972473 222.607254 
L 312.767459 223.548566 
L 311.138577 225.021228 
L 309.624482 226.744634 
L 309.007028 227.806355 
L 308.872858 228.367034 
L 309.001788 228.955848 
L 309.45143 229.446739 
L 310.255072 229.890551 
L 311.426253 230.276392 
L 313.708756 230.655158 
L 316.253908 230.747687 
L 319.999565 230.569866 
L 334.226947 229.584177 
L 345.625161 229.103405 
L 368.507537 228.361661 
L 379.800314 228.256471 
L 392.618453 228.392207 
L 405.725628 228.77667 
L 410.747971 228.959361 
L 410.747971 228.959361 
" style="fill:none;stroke:#000000;stroke-linecap:square;stroke-opacity:0.7;stroke-width:1.2;"/>
   </g>
   <g id="line2d_12">
    <path clip-path="url(#p0f47a2287b)" d="M 410.897582 189.540308 
L 404.335116 187.821721 
L 395.232482 185.66556 
L 385.858304 183.665379 
L 378.100036 182.212168 
L 370.272011 180.997986 
L 363.42506 180.196741 
L 357.57078 179.72457 
L 351.261381 179.441757 
L 345.48179 179.400677 
L 339.23559 179.630418 
L 334.486208 180.048993 
L 330.602014 180.60176 
L 327.005122 181.340396 
L 324.599525 181.992834 
L 321.153039 183.217522 
L 318.691329 184.359669 
L 316.441446 185.656906 
L 314.670795 186.91156 
L 313.739373 187.710799 
L 312.760738 188.872768 
L 312.53387 189.574781 
L 312.663518 190.123063 
L 313.074589 190.627111 
L 313.593342 191.016968 
L 314.604827 191.557787 
L 316.515787 192.266478 
L 318.95656 192.858063 
L 321.010448 193.167181 
L 324.982036 193.434501 
L 329.915463 193.469827 
L 342.556211 193.491717 
L 358.763633 193.688319 
L 365.788084 193.470763 
L 374.298315 192.949942 
L 384.254792 192.093073 
L 398.73681 190.588171 
L 408.510703 189.600659 
L 410.86049 189.430298 
L 410.86049 189.430298 
" style="fill:none;stroke:#000000;stroke-linecap:square;stroke-opacity:0.7;stroke-width:1.2;"/>
   </g>
   <g id="line2d_13">
    <path clip-path="url(#p0f47a2287b)" d="M 410.83398 150.165808 
L 400.838821 149.084954 
L 389.564798 148.070518 
L 378.227784 147.273872 
L 366.335277 146.679063 
L 342.499753 145.792458 
L 332.740495 145.556137 
L 327.334498 145.637215 
L 323.41606 145.904357 
L 320.185628 146.321406 
L 316.847969 147.00078 
L 314.138456 147.813195 
L 312.854078 148.365313 
L 312.133385 148.835399 
L 311.787151 149.230868 
L 311.633394 149.685053 
L 311.677438 150.114708 
L 311.944275 150.649197 
L 312.55882 151.28709 
L 313.70849 151.997034 
L 315.015588 152.513151 
L 316.804284 152.981309 
L 319.195625 153.385919 
L 323.120742 153.797368 
L 330.575114 154.290889 
L 343.794799 154.927258 
L 351.142613 155.092579 
L 358.858653 155.042011 
L 366.564439 154.770618 
L 375.684004 154.208306 
L 384.286524 153.475222 
L 393.817407 152.457298 
L 403.803365 151.157032 
L 410.840311 150.088203 
L 410.840311 150.088203 
" style="fill:none;stroke:#000000;stroke-linecap:square;stroke-opacity:0.7;stroke-width:1.2;"/>
   </g>
   <g id="line2d_14">
    <path clip-path="url(#p0f47a2287b)" d="M 410.842871 110.12086 
L 392.530067 107.504808 
L 379.588968 105.854677 
L 370.170465 104.874722 
L 361.821056 104.233864 
L 352.501485 103.757919 
L 343.236708 103.488062 
L 335.65572 103.465685 
L 330.590234 103.639638 
L 326.146744 104.017494 
L 323.174729 104.451392 
L 320.482315 105.019573 
L 317.557671 105.883213 
L 314.764263 107.02009 
L 313.052592 107.931766 
L 311.684589 108.930172 
L 311.173383 109.593279 
L 311.055141 110.168232 
L 311.146992 110.56221 
L 311.501473 111.133786 
L 312.149147 111.74994 
L 313.170827 112.412584 
L 314.555966 113.037949 
L 317.059576 113.760877 
L 319.817502 114.264342 
L 324.604948 114.883713 
L 333.692422 115.816979 
L 340.485109 116.337554 
L 346.537667 116.570948 
L 351.778101 116.528498 
L 356.316566 116.291009 
L 361.62094 115.800428 
L 368.895724 114.853553 
L 380.507013 113.035225 
L 392.055059 111.291178 
L 398.700135 110.498998 
L 403.179149 110.128047 
L 407.508724 109.966508 
L 410.861537 110.066518 
L 410.861537 110.066518 
" style="fill:none;stroke:#000000;stroke-linecap:square;stroke-opacity:0.7;stroke-width:1.2;"/>
   </g>
   <g id="line2d_15">
    <path clip-path="url(#p0f47a2287b)" d="M 410.835171 70.443782 
L 395.176995 68.032843 
L 382.456247 66.260659 
L 372.777526 65.121486 
L 363.895049 64.31878 
L 354.487928 63.724365 
L 344.524524 63.328375 
L 337.11119 63.225102 
L 332.195737 63.321269 
L 327.338097 63.650726 
L 323.828176 64.121464 
L 320.720734 64.778039 
L 318.37641 65.470392 
L 315.58412 66.57818 
L 313.333706 67.769029 
L 311.827159 68.830687 
L 311.088224 69.605858 
L 310.816227 70.266851 
L 310.916574 70.822595 
L 311.278596 71.320814 
L 311.941228 71.850125 
L 313.198158 72.507386 
L 314.419612 72.952203 
L 316.446154 73.451889 
L 319.378907 73.869698 
L 323.7858 74.214359 
L 342.769358 75.289937 
L 349.520359 75.435407 
L 355.648438 75.311341 
L 361.27443 74.978484 
L 368.512519 74.317372 
L 380.244575 72.967507 
L 394.672689 71.318874 
L 403.008748 70.597267 
L 407.160731 70.386041 
L 410.841793 70.378832 
L 410.841793 70.378832 
" style="fill:none;stroke:#000000;stroke-linecap:square;stroke-opacity:0.7;stroke-width:1.2;"/>
   </g>
   <g id="line2d_16">
    <path clip-path="url(#p0f47a2287b)" d="M 543.035444 229.323956 
L 533.121576 227.87195 
L 521.316011 226.347176 
L 510.46559 225.178012 
L 501.25221 224.422657 
L 490.860588 223.821148 
L 478.764364 223.362263 
L 470.705172 223.260137 
L 465.826228 223.370862 
L 461.634518 223.646657 
L 457.729582 224.118964 
L 454.615449 224.686292 
L 451.922255 225.337334 
L 448.680569 226.340801 
L 445.981667 227.37844 
L 444.102535 228.290886 
L 443.642025 228.750309 
L 443.684914 229.02426 
L 443.930828 229.292088 
L 444.514392 229.663981 
L 445.80551 230.200868 
L 447.763414 230.700715 
L 450.2739 231.050249 
L 454.859657 231.342406 
L 471.668804 232.179065 
L 482.068662 232.682747 
L 486.58896 232.765356 
L 494.11258 232.643258 
L 501.695802 232.253453 
L 512.80059 231.430534 
L 537.797781 229.485503 
L 543.040262 229.290116 
L 543.040262 229.290116 
" style="fill:none;stroke:#000000;stroke-linecap:square;stroke-opacity:0.7;stroke-width:1.2;"/>
   </g>
   <g id="line2d_17">
    <path clip-path="url(#p0f47a2287b)" d="M 542.924786 189.509682 
L 537.777318 188.332098 
L 530.792467 186.964665 
L 522.737235 185.61574 
L 514.28884 184.436235 
L 506.209046 183.545444 
L 497.782306 182.868363 
L 488.097263 182.354294 
L 477.080775 182.019722 
L 468.331734 181.971787 
L 463.060011 182.128707 
L 458.62612 182.482452 
L 456.510137 182.767866 
L 453.35775 183.40023 
L 450.566452 184.24008 
L 448.210988 185.221023 
L 446.595703 186.081137 
L 445.00496 187.145071 
L 444.054215 187.981513 
L 443.555732 188.640002 
L 443.452825 188.896866 
L 443.471717 189.360722 
L 443.777958 189.750932 
L 444.532966 190.178201 
L 445.720485 190.535288 
L 447.093338 190.727925 
L 448.816559 190.757861 
L 451.866074 190.478359 
L 467.597166 188.327042 
L 473.217227 187.936373 
L 478.605973 187.784849 
L 484.463957 187.836951 
L 493.859383 188.187037 
L 520.306572 189.288564 
L 531.620134 189.530619 
L 540.184289 189.519583 
L 542.917653 189.463204 
L 542.917653 189.463204 
" style="fill:none;stroke:#000000;stroke-linecap:square;stroke-opacity:0.7;stroke-width:1.2;"/>
   </g>
   <g id="line2d_18">
    <path clip-path="url(#p0f47a2287b)" d="M 542.916045 149.560111 
L 538.289816 148.49835 
L 530.644924 146.999881 
L 522.985465 145.712862 
L 514.504071 144.510181 
L 506.665445 143.625967 
L 499.300416 143.019121 
L 491.437218 142.607004 
L 482.21476 142.378069 
L 472.815816 142.385631 
L 465.899355 142.599394 
L 460.609172 142.983171 
L 457.431109 143.371974 
L 453.77065 144.051635 
L 452.08225 144.479115 
L 448.769133 145.5992 
L 446.831266 146.470192 
L 444.237064 147.966127 
L 442.864597 149.015048 
L 442.440793 149.567177 
L 442.482818 149.84157 
L 442.752995 150.061171 
L 443.585958 150.384291 
L 445.356479 150.731159 
L 446.805361 150.834363 
L 449.124596 150.778582 
L 452.918601 150.383194 
L 469.213236 148.335211 
L 477.703282 147.527307 
L 485.952144 146.969467 
L 492.208358 146.762558 
L 498.788838 146.768261 
L 506.928622 147.029373 
L 517.057512 147.604766 
L 532.053662 148.700421 
L 542.907015 149.545722 
L 542.907015 149.545722 
" style="fill:none;stroke:#000000;stroke-linecap:square;stroke-opacity:0.7;stroke-width:1.2;"/>
   </g>
   <g id="line2d_19">
    <path clip-path="url(#p0f47a2287b)" d="M 542.853325 110.370949 
L 533.3521 109.201786 
L 518.056717 107.082474 
L 499.171772 104.236664 
L 475.574074 100.602661 
L 469.60428 99.944896 
L 465.409494 99.712051 
L 461.974554 99.752387 
L 459.146681 100.007014 
L 456.51992 100.478152 
L 452.760923 101.654246 
L 451.084936 102.406788 
L 448.90644 103.630201 
L 448.292729 104.030005 
L 445.533196 106.189846 
L 443.79433 108.032791 
L 443.217521 108.929142 
L 443.016358 109.749306 
L 443.174866 110.194992 
L 443.570314 110.566879 
L 444.376134 110.940098 
L 445.185748 111.145915 
L 446.464093 111.300312 
L 448.394737 111.313646 
L 453.629647 110.92692 
L 460.385951 110.470177 
L 466.401943 110.273324 
L 474.736257 110.243005 
L 496.380518 110.300614 
L 527.45137 110.254748 
L 542.950829 110.29414 
L 542.950829 110.29414 
" style="fill:none;stroke:#000000;stroke-linecap:square;stroke-opacity:0.7;stroke-width:1.2;"/>
   </g>
   <g id="line2d_20">
    <path clip-path="url(#p0f47a2287b)" d="M 543.092211 70.423051 
L 525.212462 67.053794 
L 510.921857 64.569193 
L 502.270187 63.253768 
L 495.151951 62.362265 
L 487.980541 61.704423 
L 481.27734 61.346243 
L 475.044616 61.264897 
L 469.86091 61.417697 
L 465.776255 61.716003 
L 461.386163 62.26537 
L 457.551409 63.003474 
L 454.556058 63.803784 
L 451.528863 64.876613 
L 449.172428 65.95111 
L 446.818501 67.305663 
L 444.932845 68.697897 
L 443.85828 69.799957 
L 443.593726 70.291086 
L 443.587923 70.754312 
L 443.892384 71.17289 
L 444.655463 71.654469 
L 445.384365 71.972878 
L 447.806417 72.70617 
L 450.126119 73.136525 
L 453.300182 73.44576 
L 458.754773 73.63481 
L 468.377847 73.958859 
L 485.282446 74.684545 
L 490.796544 74.608427 
L 496.530841 74.304674 
L 504.24742 73.637596 
L 517.689491 72.172269 
L 529.832322 70.928759 
L 536.26834 70.462155 
L 541.021201 70.316818 
L 543.092148 70.35965 
L 543.092148 70.35965 
" style="fill:none;stroke:#000000;stroke-linecap:square;stroke-opacity:0.7;stroke-width:1.2;"/>
   </g>
   <g id="line2d_21">
    <path clip-path="url(#p0f47a2287b)" d="M 675.31917 229.570142 
L 655.032684 227.571939 
L 635.799672 225.886551 
L 606.535749 223.597053 
L 598.340871 223.153118 
L 593.570341 223.101469 
L 590.051852 223.260058 
L 586.962724 223.622746 
L 583.903884 224.295064 
L 581.720282 225.05525 
L 579.962846 225.924184 
L 578.769565 226.746659 
L 578.134905 227.372234 
L 577.715192 228.066395 
L 577.604961 228.948718 
L 577.756995 229.505369 
L 578.077285 230.072758 
L 578.809532 230.850479 
L 579.626479 231.421518 
L 580.853217 232.008233 
L 582.607786 232.550138 
L 585.014585 233.011656 
L 588.743829 233.459449 
L 597.503322 234.184835 
L 607.292417 234.805577 
L 613.624366 235.02386 
L 620.259951 235.043222 
L 627.667575 234.820666 
L 634.975441 234.387507 
L 643.679634 233.647329 
L 652.738573 232.665372 
L 663.749804 231.229926 
L 675.335724 229.509871 
L 675.335724 229.509871 
" style="fill:none;stroke:#000000;stroke-linecap:square;stroke-opacity:0.7;stroke-width:1.2;"/>
   </g>
   <g id="line2d_22">
    <path clip-path="url(#p0f47a2287b)" d="M 675.330156 189.589812 
L 668.502507 188.078352 
L 659.828653 186.41822 
L 651.674895 185.094275 
L 644.780309 184.186122 
L 637.554201 183.480131 
L 630.474771 183.026647 
L 621.247556 182.6966 
L 610.608459 182.554157 
L 602.740498 182.634444 
L 596.857439 182.902238 
L 592.648147 183.29919 
L 589.116057 183.843402 
L 586.520634 184.41333 
L 583.084029 185.459197 
L 580.304994 186.61807 
L 578.54366 187.562221 
L 577.31737 188.433402 
L 576.844807 188.974855 
L 576.7228 189.509574 
L 576.926838 189.933903 
L 577.280483 190.270301 
L 578.217728 190.823614 
L 579.615703 191.363606 
L 581.50593 191.8393 
L 584.33105 192.227891 
L 587.425161 192.402495 
L 595.769936 192.516732 
L 604.016616 192.740995 
L 622.176454 193.372174 
L 628.173862 193.302275 
L 635.923857 192.975887 
L 644.270434 192.407076 
L 654.697215 191.489337 
L 675.323515 189.488431 
L 675.323515 189.488431 
" style="fill:none;stroke:#000000;stroke-linecap:square;stroke-opacity:0.7;stroke-width:1.2;"/>
   </g>
   <g id="line2d_23">
    <path clip-path="url(#p0f47a2287b)" d="M 675.158379 149.860671 
L 668.909045 148.576929 
L 659.992326 147.001907 
L 650.096942 145.493335 
L 640.509393 144.261753 
L 631.48404 143.339215 
L 622.897401 142.68873 
L 614.310741 142.239805 
L 605.332279 141.987186 
L 599.11008 142.005368 
L 593.734228 142.260011 
L 590.17095 142.641792 
L 587.506058 143.098613 
L 584.031581 144.004905 
L 581.454079 144.974915 
L 579.064984 146.161038 
L 577.153118 147.364868 
L 576.137559 148.13954 
L 575.043748 149.270109 
L 574.937448 149.669885 
L 575.145906 149.906013 
L 575.849714 150.129867 
L 576.961531 150.241614 
L 579.019001 150.159707 
L 588.209578 149.417606 
L 593.905176 149.229801 
L 603.004986 149.214843 
L 629.839633 149.38313 
L 652.9315 149.587267 
L 675.149488 149.854688 
L 675.149488 149.854688 
" style="fill:none;stroke:#000000;stroke-linecap:square;stroke-opacity:0.7;stroke-width:1.2;"/>
   </g>
   <g id="line2d_24">
    <path clip-path="url(#p0f47a2287b)" d="M 675.291752 109.692163 
L 671.272302 108.100804 
L 664.844104 105.856287 
L 657.418838 103.543552 
L 650.162474 101.503112 
L 641.917077 99.43628 
L 635.338681 98.009239 
L 629.757781 96.99467 
L 624.200699 96.205746 
L 618.830962 95.682646 
L 613.507068 95.408738 
L 608.131574 95.387491 
L 604.278386 95.543165 
L 600.186582 95.891766 
L 595.934509 96.508431 
L 592.128328 97.365221 
L 589.870445 98.063829 
L 587.51106 99.001513 
L 585.807124 99.849874 
L 583.859622 101.047831 
L 581.622607 102.819499 
L 579.823947 104.664404 
L 578.355197 106.594732 
L 577.566346 107.936475 
L 577.094989 109.095018 
L 576.981583 110.003538 
L 577.161834 110.62443 
L 577.58532 111.15362 
L 578.510097 111.775283 
L 579.72059 112.267373 
L 581.17148 112.619084 
L 583.617701 112.85438 
L 586.952429 112.79539 
L 591.608739 112.448125 
L 603.053227 111.310905 
L 612.537533 110.189213 
L 630.743188 107.904949 
L 636.748081 107.460394 
L 642.906413 107.230833 
L 648.820505 107.222937 
L 654.664506 107.417205 
L 660.964251 107.85163 
L 666.558167 108.430878 
L 673.375227 109.359611 
L 675.288731 109.656431 
L 675.288731 109.656431 
" style="fill:none;stroke:#000000;stroke-linecap:square;stroke-opacity:0.7;stroke-width:1.2;"/>
   </g>
   <g id="line2d_25">
    <path clip-path="url(#p0f47a2287b)" d="M 675.490909 70.49589 
L 669.945304 68.577264 
L 662.35989 66.216231 
L 653.530535 63.702907 
L 645.02241 61.493246 
L 637.482829 59.74367 
L 630.454838 58.347986 
L 624.538762 57.392999 
L 619.436354 56.754838 
L 614.566318 56.323736 
L 609.409663 56.081187 
L 604.542726 56.089603 
L 600.399578 56.319083 
L 596.560535 56.761103 
L 593.026453 57.416809 
L 589.464259 58.392236 
L 586.581561 59.483839 
L 584.367267 60.559062 
L 582.061697 61.958147 
L 579.976623 63.546289 
L 578.623364 64.808578 
L 577.385422 66.228567 
L 576.41958 67.751838 
L 575.977152 69.057829 
L 575.925593 69.677848 
L 576.170403 70.927042 
L 576.772101 72.056285 
L 577.524499 73.016304 
L 578.649552 74.128938 
L 579.980907 75.164073 
L 581.535732 76.094413 
L 583.324009 76.883916 
L 585.359754 77.531758 
L 588.266927 78.184936 
L 592.631394 78.866204 
L 598.122228 79.477781 
L 604.543325 79.960662 
L 609.694238 80.149035 
L 614.908266 80.123551 
L 620.020804 79.888198 
L 626.211691 79.370989 
L 633.911272 78.459131 
L 641.93778 77.266329 
L 650.059143 75.851573 
L 659.607689 73.952497 
L 669.860494 71.674584 
L 675.476733 70.375854 
L 675.476733 70.375854 
" style="fill:none;stroke:#000000;stroke-linecap:square;stroke-opacity:0.7;stroke-width:1.2;"/>
   </g>
  </g>
 </g>
 <defs>
  <clipPath id="p0f47a2287b">
   <rect height="262.08" width="694.08" x="12.96" y="12.96"/>
  </clipPath>
 </defs>
</svg>
