<?xml version="1.0" encoding="utf-8" standalone="no"?>
<!DOCTYPE svg PUBLIC "-//W3C//DTD SVG 1.1//EN"
  "http://www.w3.org/Graphics/SVG/1.1/DTD/svg11.dtd">
<!-- Created with matplotlib (https://matplotlib.org/) -->
<svg height="288pt" version="1.1" viewBox="0 0 720 288" width="720pt" xmlns="http://www.w3.org/2000/svg" xmlns:xlink="http://www.w3.org/1999/xlink">
 <defs>
  <style type="text/css">
*{stroke-linecap:butt;stroke-linejoin:round;}
  </style>
 </defs>
 <g id="figure_1">
  <g id="patch_1">
   <path d="M 0 288 
L 720 288 
L 720 0 
L 0 0 
z
" style="fill:#ffffff;"/>
  </g>
  <g id="axes_1">
   <g id="line2d_1">
    <path clip-path="url(#p5fce1fc240)" d="M 47.657023 236.299908 
L 49.401278 236.95004 
L 50.862952 237.180423 
L 51.809216 237.125282 
L 53.020642 236.828463 
L 54.23048 236.289926 
L 55.470188 235.474152 
L 56.573072 234.449022 
L 57.173846 233.582141 
L 57.17547 233.335486 
L 56.938145 233.228352 
L 56.019499 233.227183 
L 53.820176 233.495262 
L 52.088171 233.843272 
L 53.372626 233.481008 
L 59.689128 231.81241 
L 59.20631 231.968027 
L 54.451404 233.560083 
L 50.053633 235.252829 
L 48.232061 236.159402 
L 47.941399 236.3612 
L 47.941399 236.3612 
" style="fill:none;stroke:#000000;stroke-linecap:square;stroke-opacity:0.7;stroke-width:1.2;"/>
   </g>
   <g id="line2d_2">
    <path clip-path="url(#p5fce1fc240)" d="M 47.603684 190.755917 
L 48.393834 191.016064 
L 49.591711 191.198446 
L 51.218241 191.188232 
L 53.075823 190.918619 
L 55.088216 190.369028 
L 55.265733 190.420651 
L 57.044921 193.707507 
L 58.082016 195.237933 
L 60.29214 197.670866 
L 60.81395 198.274341 
L 60.63819 198.196388 
L 47.744305 190.735884 
L 47.744305 190.735884 
" style="fill:none;stroke:#000000;stroke-linecap:square;stroke-opacity:0.7;stroke-width:1.2;"/>
   </g>
   <g id="line2d_3">
    <path clip-path="url(#p5fce1fc240)" d="M 47.348788 144.826268 
L 46.360759 144.131406 
L 45.104266 143.115028 
L 44.599771 142.42434 
L 44.515287 141.935472 
L 44.623574 141.64273 
L 44.928902 141.341758 
L 45.437901 141.09943 
L 46.518179 140.895682 
L 47.246206 140.724294 
L 48.340542 139.839133 
L 48.795139 139.911551 
L 49.809336 140.2564 
L 52.94742 141.619561 
L 57.207483 143.759417 
L 61.116524 145.99897 
L 62.74168 147.154649 
L 62.885519 147.353038 
L 62.81135 147.359467 
L 61.843678 147.019294 
L 59.489245 146.32074 
L 56.842977 145.722231 
L 54.750125 145.352417 
L 50.861467 144.926396 
L 48.183668 144.900584 
L 47.886234 144.903205 
L 47.886234 144.903205 
" style="fill:none;stroke:#000000;stroke-linecap:square;stroke-opacity:0.7;stroke-width:1.2;"/>
   </g>
   <g id="line2d_4">
    <path clip-path="url(#p5fce1fc240)" d="M 48.212188 99.405693 
L 53.268997 100.579535 
L 58.161995 101.370405 
L 58.181674 101.258165 
L 57.850786 100.663685 
L 57.080072 99.235801 
L 57.218795 99.143419 
L 57.758101 99.175245 
L 58.511542 99.37823 
L 60.409192 100.22444 
L 61.748903 101.095282 
L 62.421469 101.783817 
L 62.430913 101.955978 
L 62.408236 101.959205 
L 61.591455 101.680027 
L 59.826487 101.176854 
L 56.796454 100.569971 
L 53.069722 100.070635 
L 48.418811 99.647815 
L 48.418811 99.647815 
" style="fill:none;stroke:#000000;stroke-linecap:square;stroke-opacity:0.7;stroke-width:1.2;"/>
   </g>
   <g id="line2d_5">
    <path clip-path="url(#p5fce1fc240)" d="M 47.353319 53.901881 
L 48.738363 54.223353 
L 51.333743 54.579951 
L 52.79751 54.656474 
L 54.616697 54.571232 
L 55.982771 54.303789 
L 57.100813 53.85665 
L 57.790121 53.377927 
L 58.259386 52.823368 
L 58.509386 52.147359 
L 58.47109 51.546915 
L 58.471424 51.220945 
L 58.830501 51.19745 
L 59.845431 51.396239 
L 60.659103 51.691174 
L 58.419267 50.914921 
L 55.302722 49.442855 
L 51.818314 47.552489 
L 48.62002 45.774297 
L 48.233521 46.040434 
L 47.653704 46.670765 
L 46.838157 47.910949 
L 46.391674 48.848078 
L 45.952433 50.339167 
L 45.882552 51.217123 
L 46.02935 52.096183 
L 46.368273 52.737345 
L 46.960624 53.329884 
L 47.52934 53.77694 
L 47.52934 53.77694 
" style="fill:none;stroke:#000000;stroke-linecap:square;stroke-opacity:0.7;stroke-width:1.2;"/>
   </g>
   <g id="line2d_6">
    <path clip-path="url(#p5fce1fc240)" d="M 200.660884 236.464199 
L 201.837437 236.87083 
L 202.81873 237.015688 
L 204.06516 237.001634 
L 205.912235 236.722916 
L 207.862155 236.166694 
L 208.92622 235.893371 
L 210.854634 239.955478 
L 211.140422 240.134732 
L 211.451667 240.068786 
L 216.623377 238.001852 
L 217.477189 237.735937 
L 217.243601 237.707142 
L 203.547119 236.695134 
L 201.014101 236.325461 
L 201.014101 236.325461 
" style="fill:none;stroke:#000000;stroke-linecap:square;stroke-opacity:0.7;stroke-width:1.2;"/>
   </g>
   <g id="line2d_7">
    <path clip-path="url(#p5fce1fc240)" d="M 200.246304 190.695237 
L 200.621978 190.834077 
L 201.500885 191.152199 
L 202.519528 191.295304 
L 203.775561 191.240654 
L 205.081314 190.984811 
L 206.683576 190.417682 
L 207.06947 190.416618 
L 207.706982 190.669368 
L 212.443744 192.943298 
L 216.513714 194.9971 
L 215.405396 194.520363 
L 210.685124 192.13971 
L 205.514942 189.26229 
L 203.89067 188.413543 
L 203.535818 188.653741 
L 200.927439 190.841286 
L 200.549878 190.836338 
L 200.351147 190.764073 
L 200.351147 190.764073 
" style="fill:none;stroke:#000000;stroke-linecap:square;stroke-opacity:0.7;stroke-width:1.2;"/>
   </g>
   <g id="line2d_8">
    <path clip-path="url(#p5fce1fc240)" d="M 200.495501 144.997492 
L 200.564661 144.81683 
L 200.444126 144.381988 
L 200.038436 143.624248 
L 199.178847 142.487738 
L 198.152881 141.526772 
L 197.207965 140.920307 
L 196.6151 140.680276 
L 196.919719 140.685158 
L 199.695086 140.973233 
L 204.601609 141.651038 
L 211.764679 142.864699 
L 212.886159 143.148534 
L 212.651983 143.152643 
L 210.219803 142.888688 
L 205.570216 142.438238 
L 204.620686 142.765842 
L 202.152074 143.875654 
L 200.661118 144.749911 
L 200.531625 145.007627 
L 200.606013 145.105471 
L 200.606013 145.105471 
" style="fill:none;stroke:#000000;stroke-linecap:square;stroke-opacity:0.7;stroke-width:1.2;"/>
   </g>
   <g id="line2d_9">
    <path clip-path="url(#p5fce1fc240)" d="M 200.425573 99.413189 
L 201.636034 100.02694 
L 202.879997 100.469702 
L 203.839438 100.644371 
L 205.080643 100.594018 
L 206.159 100.265068 
L 207.174921 99.696687 
L 208.240481 98.815017 
L 209.24295 97.690203 
L 210.27039 96.173309 
L 211.129231 94.484904 
L 211.68017 92.90336 
L 211.727889 92.197536 
L 211.534987 91.839294 
L 210.808755 91.160802 
L 204.556727 85.735439 
L 201.426472 83.003019 
L 201.401906 83.17285 
L 201.596053 83.894354 
L 202.464481 86.268318 
L 204.907151 92.243442 
L 207.634326 98.788563 
L 207.507779 98.936949 
L 207.01423 99.018409 
L 204.011641 99.087223 
L 200.500787 99.283976 
L 200.373363 99.340343 
L 200.475013 99.395069 
L 200.574208 99.421635 
L 200.574208 99.421635 
" style="fill:none;stroke:#000000;stroke-linecap:square;stroke-opacity:0.7;stroke-width:1.2;"/>
   </g>
   <g id="line2d_10">
    <path clip-path="url(#p5fce1fc240)" d="M 200.293008 53.476738 
L 201.808419 54.782613 
L 202.675997 55.26335 
L 203.834124 55.64638 
L 205.191077 55.848614 
L 207.176351 55.859685 
L 209.268179 55.639716 
L 211.859456 55.122721 
L 213.710705 54.541969 
L 214.026063 54.251016 
L 214.840795 53.415906 
L 215.754445 52.48351 
L 215.575392 52.18867 
L 215.062249 51.645573 
L 210.235707 47.02255 
L 209.836982 46.93517 
L 209.159031 47.082122 
L 207.354509 47.719873 
L 204.722803 48.927922 
L 202.641844 50.115735 
L 200.919807 51.396268 
L 200.380598 51.974908 
L 200.080533 52.571765 
L 200.10736 52.979649 
L 200.383745 53.464135 
L 200.383745 53.464135 
" style="fill:none;stroke:#000000;stroke-linecap:square;stroke-opacity:0.7;stroke-width:1.2;"/>
   </g>
   <g id="line2d_11">
    <path clip-path="url(#p5fce1fc240)" d="M 352.232169 236.019626 
L 351.557644 234.771751 
L 351.389853 233.829449 
L 351.395294 232.244769 
L 351.680263 229.164949 
L 352.213913 225.229917 
L 352.454548 225.310469 
L 353.817404 226.133942 
L 359.091385 229.589707 
L 359.448141 229.965285 
L 359.592371 230.429565 
L 359.5279 231.689487 
L 359.438248 234.576617 
L 359.481268 236.50057 
L 360.012594 241.820121 
L 360.340996 243.130541 
L 360.089778 242.789362 
L 358.746415 241.163597 
L 356.977655 239.325205 
L 355.030282 237.625214 
L 353.513964 236.584051 
L 352.862769 236.246898 
L 352.862769 236.246898 
" style="fill:none;stroke:#000000;stroke-linecap:square;stroke-opacity:0.7;stroke-width:1.2;"/>
   </g>
   <g id="line2d_12">
    <path clip-path="url(#p5fce1fc240)" d="M 352.057946 190.528848 
L 354.216572 191.227191 
L 355.003241 191.314179 
L 355.621068 191.256672 
L 356.435211 190.967341 
L 357.068332 190.544808 
L 357.727212 189.887504 
L 358.407561 188.917126 
L 359.126801 187.402363 
L 359.557824 185.931727 
L 359.591335 185.175093 
L 358.875079 183.099459 
L 358.143383 180.972843 
L 357.768154 180.060386 
L 357.527393 180.064234 
L 356.884678 180.363394 
L 355.952038 180.981054 
L 354.492287 182.234697 
L 353.695828 183.070438 
L 352.30627 184.905698 
L 351.811212 185.777305 
L 351.276632 187.166477 
L 351.15161 187.977761 
L 351.26388 188.928204 
L 351.662542 189.729978 
L 352.277468 190.502779 
L 352.277468 190.502779 
" style="fill:none;stroke:#000000;stroke-linecap:square;stroke-opacity:0.7;stroke-width:1.2;"/>
   </g>
   <g id="line2d_13">
    <path clip-path="url(#p5fce1fc240)" d="M 352.991277 145.40608 
L 354.618677 146.133149 
L 356.818652 146.937935 
L 358.965295 147.483573 
L 361.300339 147.796018 
L 363.687735 147.836175 
L 366.025823 147.602895 
L 367.82081 147.181901 
L 368.621255 146.805034 
L 368.65721 146.622557 
L 368.404417 146.470781 
L 367.164783 146.08921 
L 358.864897 143.884188 
L 365.372056 145.661795 
L 363.362816 145.861212 
L 358.992463 146.089199 
L 355.874735 146.053969 
L 354.198817 145.827956 
L 353.217336 145.46085 
L 353.080134 145.390965 
L 353.080134 145.390965 
" style="fill:none;stroke:#000000;stroke-linecap:square;stroke-opacity:0.7;stroke-width:1.2;"/>
   </g>
   <g id="line2d_14">
    <path clip-path="url(#p5fce1fc240)" d="M 352.321793 98.840306 
L 350.853883 98.235561 
L 350.32022 97.912978 
L 350.434486 97.691179 
L 351.105762 97.502554 
L 352.748258 97.340247 
L 354.326035 97.368796 
L 355.532629 97.642914 
L 359.398687 98.840448 
L 366.765609 101.105714 
L 366.815632 101.020018 
L 366.510395 100.622342 
L 363.929577 98.019632 
L 357.660247 91.902863 
L 357.360273 91.878586 
L 356.805491 92.159394 
L 355.890933 92.86548 
L 354.407819 94.342333 
L 353.510612 95.467042 
L 352.717558 96.795887 
L 352.424526 97.734388 
L 352.46524 98.335874 
L 352.752503 98.882038 
L 352.844943 99.049135 
L 352.844943 99.049135 
" style="fill:none;stroke:#000000;stroke-linecap:square;stroke-opacity:0.7;stroke-width:1.2;"/>
   </g>
   <g id="line2d_15">
    <path clip-path="url(#p5fce1fc240)" d="M 352.974571 53.388657 
L 360.685501 52.817633 
L 363.159939 52.335665 
L 365.208182 51.743352 
L 365.532656 51.573013 
L 365.349052 51.567195 
L 364.32113 51.821175 
L 362.274869 52.56036 
L 361.594811 52.978197 
L 361.334608 53.437351 
L 361.073045 54.426912 
L 360.899633 55.977189 
L 360.896205 58.169169 
L 361.218002 60.764841 
L 361.538684 61.861042 
L 361.360179 61.641701 
L 359.48484 59.394152 
L 357.06797 56.827366 
L 354.830561 54.799049 
L 353.302903 53.705229 
L 353.206648 53.653334 
L 353.206648 53.653334 
" style="fill:none;stroke:#000000;stroke-linecap:square;stroke-opacity:0.7;stroke-width:1.2;"/>
   </g>
   <g id="line2d_16">
    <path clip-path="url(#p5fce1fc240)" d="M 504.499228 236.707159 
L 506.608253 237.637181 
L 507.934327 237.934069 
L 508.940853 237.964033 
L 510.104684 237.798082 
L 511.442158 237.367524 
L 512.851517 236.657475 
L 514.184975 235.735791 
L 515.333589 234.675336 
L 515.769866 234.036435 
L 515.753991 233.749699 
L 515.514744 233.439769 
L 513.657391 231.74739 
L 510.105076 228.328652 
L 507.894205 226.103822 
L 507.892549 226.195921 
L 508.246432 227.056468 
L 509.654477 229.775382 
L 512.232501 234.238549 
L 514.361244 237.937437 
L 514.27364 238.059634 
L 513.798864 238.20177 
L 512.813221 238.29091 
L 510.385768 238.280369 
L 508.019396 238.039224 
L 506.460627 237.675864 
L 505.466826 237.209697 
L 504.744227 236.58546 
L 504.744227 236.58546 
" style="fill:none;stroke:#000000;stroke-linecap:square;stroke-opacity:0.7;stroke-width:1.2;"/>
   </g>
   <g id="line2d_17">
    <path clip-path="url(#p5fce1fc240)" d="M 504.530223 190.27461 
L 504.648676 189.958662 
L 505.109119 188.306834 
L 505.671852 187.177515 
L 506.575982 185.869404 
L 507.462953 184.95409 
L 507.866181 184.768117 
L 508.42192 184.840971 
L 510.916337 185.454079 
L 515.701751 186.745047 
L 515.397925 186.552022 
L 513.66171 185.394108 
L 510.506189 182.974757 
L 508.195467 181.20678 
L 507.783439 181.247847 
L 507.110734 181.577113 
L 505.914208 182.438528 
L 504.59761 183.713108 
L 503.531482 185.146538 
L 502.958797 186.338503 
L 502.742446 187.271603 
L 502.776412 188.124499 
L 503.074999 188.913325 
L 503.681883 189.684453 
L 504.575524 190.490702 
L 504.575524 190.490702 
" style="fill:none;stroke:#000000;stroke-linecap:square;stroke-opacity:0.7;stroke-width:1.2;"/>
   </g>
   <g id="line2d_18">
    <path clip-path="url(#p5fce1fc240)" d="M 504.773515 145.571798 
L 508.67906 148.283761 
L 510.938353 149.501904 
L 513.555212 150.64983 
L 516.387629 151.647173 
L 519.464118 152.48221 
L 521.027249 152.713628 
L 521.103785 152.562512 
L 520.987668 150.761268 
L 521.057627 148.285282 
L 521.056075 147.032448 
L 520.863206 146.979366 
L 520.520184 147.091984 
L 519.852823 147.521508 
L 519.103795 148.290868 
L 518.72535 149.007832 
L 518.54812 149.216058 
L 518.004669 149.296527 
L 516.277977 149.261805 
L 512.843595 148.810175 
L 510.096807 148.127059 
L 508.045079 147.342617 
L 506.329408 146.379525 
L 505.075293 145.545638 
L 505.075293 145.545638 
" style="fill:none;stroke:#000000;stroke-linecap:square;stroke-opacity:0.7;stroke-width:1.2;"/>
   </g>
   <g id="line2d_19">
    <path clip-path="url(#p5fce1fc240)" d="M 505.285257 99.491959 
L 506.852355 100.076893 
L 508.399178 100.451081 
L 509.85373 100.575935 
L 511.033708 100.492871 
L 512.467113 100.160723 
L 514.223215 99.40169 
L 514.80194 99.062344 
L 516.411227 97.844901 
L 517.499465 96.686652 
L 517.863857 96.034647 
L 517.791116 95.988999 
L 517.423372 96.171037 
L 516.818625 96.690362 
L 515.665417 98.04479 
L 514.804864 99.263195 
L 514.760212 99.213191 
L 514.545181 98.6727 
L 513.997961 96.457565 
L 513.291219 92.482758 
L 512.806967 89.487073 
L 512.782006 89.491399 
L 512.598896 89.637887 
L 511.567079 90.935995 
L 507.049217 97.092801 
L 505.587691 99.339653 
L 505.519729 99.580156 
L 505.519729 99.580156 
" style="fill:none;stroke:#000000;stroke-linecap:square;stroke-opacity:0.7;stroke-width:1.2;"/>
   </g>
   <g id="line2d_20">
    <path clip-path="url(#p5fce1fc240)" d="M 505.232255 54.292548 
L 507.352925 55.176838 
L 509.345641 55.762472 
L 510.796781 56.011806 
L 512.826827 56.123945 
L 514.880128 55.997966 
L 517.258611 55.593516 
L 519.335028 54.990277 
L 519.884801 54.665876 
L 519.778374 54.447515 
L 519.278231 54.110115 
L 516.206298 52.435005 
L 510.784605 49.539459 
L 511.080636 49.638599 
L 513.01822 50.496617 
L 518.809102 53.354112 
L 519.664459 53.951148 
L 519.53353 54.006368 
L 516.86627 54.326167 
L 511.444473 54.744624 
L 508.108744 54.763913 
L 505.668644 54.541987 
L 505.545256 54.528201 
L 505.545256 54.528201 
" style="fill:none;stroke:#000000;stroke-linecap:square;stroke-opacity:0.7;stroke-width:1.2;"/>
   </g>
   <g id="line2d_21">
    <path clip-path="url(#p5fce1fc240)" d="M 657.407904 236.416598 
L 661.38518 237.968011 
L 663.512839 238.544339 
L 665.70617 238.871227 
L 667.307879 238.917191 
L 669.576341 238.684285 
L 671.29928 238.253694 
L 672.800725 237.666833 
L 674.30288 236.804155 
L 675.186157 236.047579 
L 675.490909 235.560087 
L 675.376307 235.386587 
L 674.906529 235.359915 
L 674.0256 235.560399 
L 672.958454 236.049372 
L 671.802491 236.633976 
L 670.048139 236.982875 
L 660.185522 238.600045 
L 654.047245 239.474179 
L 654.066301 239.361768 
L 654.591523 238.682485 
L 655.556706 237.675599 
L 656.580429 236.913165 
L 657.351758 236.644854 
L 657.539965 236.591761 
L 657.539965 236.591761 
" style="fill:none;stroke:#000000;stroke-linecap:square;stroke-opacity:0.7;stroke-width:1.2;"/>
   </g>
   <g id="line2d_22">
    <path clip-path="url(#p5fce1fc240)" d="M 657.035334 191.104108 
L 659.279293 192.143866 
L 665.625908 195.057024 
L 666.865825 195.910497 
L 667.506022 196.600361 
L 667.687043 196.916029 
L 667.692934 196.720529 
L 667.785948 195.091199 
L 668.132974 192.89022 
L 668.203485 192.115361 
L 668.009136 190.823649 
L 667.268443 187.65512 
L 666.384919 184.681797 
L 665.761299 183.202407 
L 665.477738 182.885065 
L 665.117259 182.848233 
L 664.599499 183.079727 
L 663.483169 183.830379 
L 660.853632 186.033543 
L 659.072343 187.818842 
L 657.925648 189.228417 
L 657.413295 190.146928 
L 657.277907 190.843108 
L 657.276566 191.099404 
L 657.276566 191.099404 
" style="fill:none;stroke:#000000;stroke-linecap:square;stroke-opacity:0.7;stroke-width:1.2;"/>
   </g>
   <g id="line2d_23">
    <path clip-path="url(#p5fce1fc240)" d="M 656.472473 145.00583 
L 655.989706 144.704474 
L 654.5422 143.795447 
L 653.965509 143.155035 
L 653.49644 142.135906 
L 653.312783 141.123136 
L 653.319943 139.775194 
L 653.547359 138.528281 
L 653.749463 138.305913 
L 654.067421 138.381601 
L 655.233797 138.97439 
L 661.257388 142.430514 
L 664.100576 143.954591 
L 664.524778 143.987278 
L 664.695345 143.876391 
L 664.997827 143.324753 
L 665.235491 142.571085 
L 665.8148 139.962913 
L 666.553445 135.298902 
L 666.852935 131.609745 
L 666.718168 130.785866 
L 666.523294 130.667473 
L 666.423914 130.674486 
L 665.544488 131.11707 
L 664.12782 132.199525 
L 662.952918 133.260092 
L 660.329095 136.066687 
L 658.298358 138.775067 
L 657.070454 140.939171 
L 656.577491 142.254415 
L 656.408443 143.238121 
L 656.482336 144.178949 
L 656.823522 145.193327 
L 656.823522 145.193327 
" style="fill:none;stroke:#000000;stroke-linecap:square;stroke-opacity:0.7;stroke-width:1.2;"/>
   </g>
   <g id="line2d_24">
    <path clip-path="url(#p5fce1fc240)" d="M 656.288654 98.784491 
L 655.953982 98.413925 
L 654.538396 97.252613 
L 652.745569 95.707375 
L 651.87584 94.715697 
L 651.132214 93.546846 
L 650.633237 92.29406 
L 650.437609 91.196599 
L 650.486874 90.161524 
L 650.738029 89.424767 
L 651.011598 89.19249 
L 651.609354 89.115462 
L 656.35514 88.941522 
L 660.530633 88.924694 
L 660.94937 89.081716 
L 661.240658 89.384927 
L 666.567104 97.044365 
L 666.192046 97.168867 
L 664.561081 97.37065 
L 658.308304 98.172254 
L 656.478443 98.591698 
L 656.319839 98.794044 
L 656.504632 98.976786 
L 656.504632 98.976786 
" style="fill:none;stroke:#000000;stroke-linecap:square;stroke-opacity:0.7;stroke-width:1.2;"/>
   </g>
   <g id="line2d_25">
    <path clip-path="url(#p5fce1fc240)" d="M 656.034841 53.616183 
L 655.253625 53.361746 
L 653.739609 52.832192 
L 653.300145 52.463576 
L 653.230102 52.172953 
L 653.41061 51.857019 
L 654.409135 51.048704 
L 662.149271 44.893572 
L 662.542656 45.205204 
L 663.432486 46.376839 
L 664.044155 47.450553 
L 664.467423 48.659637 
L 664.387858 48.968877 
L 664.29673 49.042812 
L 660.093724 50.778528 
L 658.102501 51.96694 
L 656.862591 53.075522 
L 656.489908 53.610648 
L 656.489908 53.610648 
" style="fill:none;stroke:#000000;stroke-linecap:square;stroke-opacity:0.7;stroke-width:1.2;"/>
   </g>
  </g>
 </g>
 <defs>
  <clipPath id="p5fce1fc240">
   <rect height="262.08" width="694.08" x="12.96" y="12.96"/>
  </clipPath>
 </defs>
</svg>
