<?xml version="1.0" encoding="utf-8" standalone="no"?>
<!DOCTYPE svg PUBLIC "-//W3C//DTD SVG 1.1//EN"
  "http://www.w3.org/Graphics/SVG/1.1/DTD/svg11.dtd">
<!-- Created with matplotlib (https://matplotlib.org/) -->
<svg height="288pt" version="1.1" viewBox="0 0 720 288" width="720pt" xmlns="http://www.w3.org/2000/svg" xmlns:xlink="http://www.w3.org/1999/xlink">
 <defs>
  <style type="text/css">
*{stroke-linecap:butt;stroke-linejoin:round;}
  </style>
 </defs>
 <g id="figure_1">
  <g id="patch_1">
   <path d="M 0 288 
L 720 288 
L 720 0 
L 0 0 
z
" style="fill:#ffffff;"/>
  </g>
  <g id="axes_1">
   <g id="line2d_1">
    <path clip-path="url(#pd24a058437)" d="M 91.455399 232.710846 
L 64.394621 229.854549 
L 59.666957 229.614304 
L 56.562609 229.655856 
L 53.551321 229.932859 
L 51.14368 230.383274 
L 49.614472 230.817813 
L 47.969716 231.55509 
L 47.04155 232.34819 
L 45.515404 234.318724 
L 45.72641 234.381435 
L 47.502611 234.482508 
L 61.464701 234.781085 
L 66.235043 234.59811 
L 70.038329 234.22673 
L 82.095931 232.810151 
L 86.298881 232.664615 
L 91.149724 232.676488 
L 91.149724 232.676488 
" style="fill:none;stroke:#000000;stroke-linecap:square;stroke-opacity:0.7;stroke-width:1.2;"/>
   </g>
   <g id="line2d_2">
    <path clip-path="url(#pd24a058437)" d="M 90.977835 188.479987 
L 80.993846 187.118011 
L 71.875297 186.072516 
L 65.539753 185.574927 
L 61.58171 185.471705 
L 58.644209 185.562051 
L 55.51874 185.876223 
L 53.089593 186.326493 
L 51.375272 186.791344 
L 49.47122 187.555311 
L 48.748115 188.040922 
L 48.461717 188.374832 
L 48.298907 189.135398 
L 48.540443 189.995087 
L 48.77556 190.598012 
L 48.845277 190.566909 
L 49.484458 190.391006 
L 51.184297 190.244299 
L 54.744217 190.223898 
L 62.331918 190.238066 
L 67.025897 189.983391 
L 82.223826 188.776114 
L 90.730933 188.585794 
L 90.730933 188.585794 
" style="fill:none;stroke:#000000;stroke-linecap:square;stroke-opacity:0.7;stroke-width:1.2;"/>
   </g>
   <g id="line2d_3">
    <path clip-path="url(#pd24a058437)" d="M 91.413457 145.094727 
L 87.412211 144.68439 
L 81.414208 144.301718 
L 74.156744 144.067363 
L 66.80519 144.046265 
L 60.162583 144.241073 
L 54.524504 144.637246 
L 47.495891 145.208984 
L 47.453997 145.194253 
L 47.884336 145.437744 
L 48.802508 146.057621 
L 49.583791 146.317602 
L 50.991588 146.450125 
L 52.870271 146.408038 
L 57.765278 146.00665 
L 68.071558 145.10736 
L 72.009409 145.016059 
L 76.174254 145.165508 
L 86.394851 145.699169 
L 89.63343 145.567962 
L 91.351067 145.379524 
L 91.351067 145.379524 
" style="fill:none;stroke:#000000;stroke-linecap:square;stroke-opacity:0.7;stroke-width:1.2;"/>
   </g>
   <g id="line2d_4">
    <path clip-path="url(#pd24a058437)" d="M 90.952792 100.983521 
L 86.208983 99.77565 
L 78.405807 98.017158 
L 71.463735 96.677801 
L 66.362461 95.917828 
L 62.89068 95.586027 
L 59.37192 95.478523 
L 56.402782 95.625627 
L 54.254094 95.897351 
L 51.718638 96.422183 
L 49.258195 97.169154 
L 46.930412 98.149775 
L 45.668215 98.882825 
L 44.842976 99.607676 
L 44.695161 99.813676 
L 44.509091 100.383735 
L 44.709634 100.986247 
L 45.025136 101.313192 
L 46.056216 101.877982 
L 48.801978 102.983201 
L 51.453118 103.407576 
L 55.006887 103.653704 
L 59.410441 103.690924 
L 64.035225 103.494673 
L 73.010277 102.969945 
L 81.882629 102.732409 
L 85.360639 102.392358 
L 87.30337 102.093479 
L 90.85989 101.28236 
L 90.85989 101.28236 
" style="fill:none;stroke:#000000;stroke-linecap:square;stroke-opacity:0.7;stroke-width:1.2;"/>
   </g>
   <g id="line2d_5">
    <path clip-path="url(#pd24a058437)" d="M 91.214189 57.197256 
L 76.968527 54.195416 
L 71.632856 53.325433 
L 66.928035 52.7808 
L 63.311835 52.569158 
L 59.939222 52.60026 
L 57.108229 52.852717 
L 54.168192 53.388562 
L 51.193847 54.255339 
L 49.123797 55.07394 
L 47.654452 55.826474 
L 46.957972 56.321291 
L 46.483625 56.917917 
L 46.418919 57.317255 
L 46.602641 57.764637 
L 47.305521 58.470264 
L 47.99204 59.009496 
L 48.620892 59.335277 
L 50.378639 59.838599 
L 52.944223 60.178252 
L 56.549267 60.337762 
L 60.597916 60.26113 
L 64.752116 59.960964 
L 77.604327 58.783489 
L 84.326132 58.463231 
L 88.296189 58.018019 
L 91.132417 57.526468 
L 91.132417 57.526468 
" style="fill:none;stroke:#000000;stroke-linecap:square;stroke-opacity:0.7;stroke-width:1.2;"/>
   </g>
   <g id="line2d_6">
    <path clip-path="url(#pd24a058437)" d="M 237.183374 232.440712 
L 229.994314 231.832013 
L 219.054781 231.105729 
L 211.917226 230.847784 
L 207.118142 230.896202 
L 203.671689 231.121552 
L 200.541756 231.543801 
L 198.272321 232.058068 
L 196.753811 232.585878 
L 195.869354 233.064143 
L 195.446359 233.463426 
L 195.304972 233.839985 
L 195.329154 233.965375 
L 195.385083 233.83978 
L 195.765218 233.710856 
L 197.078505 233.555631 
L 199.970808 233.495839 
L 211.144176 233.503404 
L 215.763553 233.184678 
L 227.163427 232.223101 
L 230.205813 232.213571 
L 234.318298 232.428917 
L 237.13537 232.634418 
L 237.13537 232.634418 
" style="fill:none;stroke:#000000;stroke-linecap:square;stroke-opacity:0.7;stroke-width:1.2;"/>
   </g>
   <g id="line2d_7">
    <path clip-path="url(#pd24a058437)" d="M 237.169733 188.775504 
L 231.961597 187.933764 
L 223.406892 186.791663 
L 215.564555 185.959836 
L 209.748685 185.574745 
L 205.405395 185.529894 
L 202.436884 185.690182 
L 199.408903 186.0835 
L 197.446766 186.5005 
L 195.106857 187.211783 
L 193.132553 188.059865 
L 192.069731 188.746057 
L 191.945339 189.010225 
L 192.295708 189.160329 
L 193.776521 189.403477 
L 194.669395 189.640507 
L 196.383955 189.78465 
L 199.55484 189.759058 
L 205.998611 189.418226 
L 217.660086 188.743416 
L 222.579565 188.764958 
L 235.779082 189.009193 
L 237.001476 188.928651 
L 237.001476 188.928651 
" style="fill:none;stroke:#000000;stroke-linecap:square;stroke-opacity:0.7;stroke-width:1.2;"/>
   </g>
   <g id="line2d_8">
    <path clip-path="url(#pd24a058437)" d="M 236.93614 144.68596 
L 232.314458 143.905745 
L 225.191947 142.943487 
L 218.63001 142.287642 
L 213.198429 141.953909 
L 209.182534 141.888783 
L 205.346844 142.046165 
L 202.525173 142.359899 
L 199.761343 142.893355 
L 197.34223 143.60041 
L 195.257552 144.448637 
L 194.237017 145.051499 
L 194.037641 145.379466 
L 194.223146 145.64265 
L 194.956699 146.080936 
L 195.411476 146.222408 
L 196.230663 146.206731 
L 208.610997 144.884597 
L 214.941556 144.554617 
L 220.013954 144.503019 
L 225.774922 144.667477 
L 235.407835 144.974745 
L 236.82098 144.944958 
L 236.82098 144.944958 
" style="fill:none;stroke:#000000;stroke-linecap:square;stroke-opacity:0.7;stroke-width:1.2;"/>
   </g>
   <g id="line2d_9">
    <path clip-path="url(#pd24a058437)" d="M 237.393292 101.034722 
L 227.215713 99.347995 
L 218.645324 98.145795 
L 212.801378 97.553741 
L 208.760954 97.368406 
L 205.481382 97.4531 
L 202.87368 97.749366 
L 200.568061 98.243638 
L 198.476024 98.92578 
L 196.763603 99.665848 
L 194.369597 100.979105 
L 193.879027 101.45194 
L 193.911523 101.764109 
L 194.15541 102.133592 
L 194.739976 102.5405 
L 195.49436 102.814448 
L 197.571448 103.143907 
L 200.188194 103.242806 
L 204.37495 103.114316 
L 209.854345 102.69023 
L 218.876298 101.955089 
L 223.151011 101.884438 
L 232.373175 101.859969 
L 236.262251 101.489551 
L 237.266712 101.337386 
L 237.266712 101.337386 
" style="fill:none;stroke:#000000;stroke-linecap:square;stroke-opacity:0.7;stroke-width:1.2;"/>
   </g>
   <g id="line2d_10">
    <path clip-path="url(#pd24a058437)" d="M 237.439022 57.264277 
L 230.809486 55.804199 
L 222.688874 54.237384 
L 216.840259 53.323276 
L 212.199347 52.828354 
L 208.481738 52.671231 
L 205.449635 52.775335 
L 203.358477 53.009449 
L 200.660791 53.55879 
L 198.382379 54.280002 
L 196.148316 55.239401 
L 193.998149 56.428775 
L 193.32432 57.012384 
L 193.14057 57.509017 
L 193.190948 58.12704 
L 193.358044 58.652015 
L 193.645868 58.909975 
L 194.277003 59.117363 
L 195.807682 59.303306 
L 198.92134 59.433954 
L 204.503715 59.44438 
L 209.63384 59.234524 
L 214.323452 58.802929 
L 224.874128 57.675363 
L 229.469665 57.501771 
L 237.300417 57.445519 
L 237.300417 57.445519 
" style="fill:none;stroke:#000000;stroke-linecap:square;stroke-opacity:0.7;stroke-width:1.2;"/>
   </g>
   <g id="line2d_11">
    <path clip-path="url(#pd24a058437)" d="M 383.346824 232.519105 
L 377.517154 231.713578 
L 370.880997 231.009589 
L 365.119516 230.624777 
L 360.147481 230.534508 
L 355.896462 230.691429 
L 352.416688 231.012667 
L 348.703261 231.5562 
L 342.134022 232.631748 
L 340.692379 232.578214 
L 340.627359 232.568762 
L 341.014315 232.740422 
L 343.773638 233.972886 
L 344.791126 234.191024 
L 346.037084 234.206863 
L 348.862032 233.865925 
L 356.284538 232.877802 
L 360.071994 232.576368 
L 363.489587 232.51378 
L 367.347182 232.667398 
L 377.301028 233.214753 
L 380.497655 233.152876 
L 383.271159 232.907876 
L 383.271159 232.907876 
" style="fill:none;stroke:#000000;stroke-linecap:square;stroke-opacity:0.7;stroke-width:1.2;"/>
   </g>
   <g id="line2d_12">
    <path clip-path="url(#pd24a058437)" d="M 383.494059 188.749364 
L 376.072451 186.800155 
L 368.024813 184.887859 
L 362.584886 183.788644 
L 358.036471 183.0805 
L 354.378726 182.72208 
L 351.157476 182.625401 
L 348.525567 182.746639 
L 346.136891 183.050255 
L 343.498338 183.639116 
L 340.981954 184.488915 
L 339.143165 185.341251 
L 337.875861 186.141559 
L 337.027236 186.968676 
L 336.625875 187.79374 
L 336.617943 188.74959 
L 336.925979 189.618751 
L 337.342435 190.277424 
L 337.975407 190.749975 
L 339.225841 191.266912 
L 340.947968 191.732725 
L 343.698673 192.248244 
L 347.782006 192.733402 
L 351.254724 192.9394 
L 354.245725 192.953972 
L 357.380455 192.771801 
L 360.71586 192.329397 
L 370.93282 190.688048 
L 379.877051 189.551203 
L 383.258325 188.853657 
L 383.258325 188.853657 
" style="fill:none;stroke:#000000;stroke-linecap:square;stroke-opacity:0.7;stroke-width:1.2;"/>
   </g>
   <g id="line2d_13">
    <path clip-path="url(#pd24a058437)" d="M 383.506412 145.186332 
L 377.368926 144.365584 
L 367.980282 143.33473 
L 361.246754 142.832542 
L 356.192314 142.686002 
L 351.988382 142.781247 
L 348.246754 143.07869 
L 344.812002 143.553992 
L 340.860393 144.348542 
L 338.531756 145.025251 
L 338.475567 145.122487 
L 338.52929 145.144133 
L 339.453025 145.387221 
L 341.179735 146.106951 
L 342.611127 146.423921 
L 345.495523 146.738112 
L 349.153596 146.8546 
L 353.639741 146.757493 
L 359.992478 146.345769 
L 364.76963 146.115311 
L 368.669426 146.187112 
L 374.829641 146.367639 
L 378.005618 146.218391 
L 380.201603 145.95728 
L 383.326004 145.356652 
L 383.326004 145.356652 
" style="fill:none;stroke:#000000;stroke-linecap:square;stroke-opacity:0.7;stroke-width:1.2;"/>
   </g>
   <g id="line2d_14">
    <path clip-path="url(#pd24a058437)" d="M 383.594617 101.264283 
L 376.994351 100.33421 
L 360.004333 97.854755 
L 356.281337 97.594931 
L 353.549666 97.581924 
L 350.508584 97.812372 
L 348.118912 98.212409 
L 345.994089 98.736586 
L 342.505442 99.847143 
L 339.291772 100.989587 
L 339.093525 101.24807 
L 339.004812 101.928774 
L 339.148988 102.287737 
L 339.42674 102.415351 
L 340.156507 102.472833 
L 343.113252 102.316543 
L 359.7802 101.051946 
L 367.791471 100.364591 
L 371.750313 100.287263 
L 375.285933 100.442568 
L 380.135717 100.911739 
L 383.364733 101.251323 
L 383.364733 101.251323 
" style="fill:none;stroke:#000000;stroke-linecap:square;stroke-opacity:0.7;stroke-width:1.2;"/>
   </g>
   <g id="line2d_15">
    <path clip-path="url(#pd24a058437)" d="M 383.041939 57.025828 
L 380.153839 56.526118 
L 374.74905 55.824942 
L 368.120774 55.215246 
L 361.89629 54.86635 
L 356.363416 54.774251 
L 351.55269 54.924826 
L 348.088849 55.218505 
L 344.507826 55.743581 
L 341.72946 56.355535 
L 339.414459 57.097429 
L 338.796343 57.484732 
L 338.922006 57.781442 
L 339.702169 58.038165 
L 341.995819 58.485692 
L 344.824881 58.358431 
L 364.100162 57.23308 
L 369.406412 57.184358 
L 382.938035 57.331947 
L 382.938035 57.331947 
" style="fill:none;stroke:#000000;stroke-linecap:square;stroke-opacity:0.7;stroke-width:1.2;"/>
   </g>
   <g id="line2d_16">
    <path clip-path="url(#pd24a058437)" d="M 529.732753 232.722833 
L 523.07474 231.698212 
L 514.915344 230.662441 
L 508.38251 230.032973 
L 502.710384 229.718478 
L 498.435705 229.710755 
L 494.854288 229.921527 
L 491.060292 230.373425 
L 485.642704 231.216785 
L 484.606063 231.561018 
L 483.821707 232.120439 
L 483.39776 232.61853 
L 483.186665 232.996438 
L 483.096941 233.505519 
L 483.261465 233.916777 
L 483.774696 234.351866 
L 484.584932 234.718821 
L 486.474057 235.213838 
L 489.044609 235.608608 
L 492.927461 235.936849 
L 497.159614 236.056231 
L 501.162109 235.958741 
L 505.23645 235.631541 
L 518.822347 234.175399 
L 524.644435 233.694203 
L 528.256305 233.129039 
L 529.63766 232.825852 
L 529.63766 232.825852 
" style="fill:none;stroke:#000000;stroke-linecap:square;stroke-opacity:0.7;stroke-width:1.2;"/>
   </g>
   <g id="line2d_17">
    <path clip-path="url(#pd24a058437)" d="M 529.312792 188.828283 
L 503.993399 186.410961 
L 499.535098 186.228572 
L 496.127056 186.293697 
L 493.646441 186.514927 
L 491.108367 186.961243 
L 489.270219 187.484298 
L 487.617535 188.199297 
L 486.690748 188.853271 
L 485.998831 189.709382 
L 486.14625 189.781368 
L 487.570829 189.862722 
L 499.489696 190.173161 
L 504.036914 190.07489 
L 508.736385 189.746076 
L 518.639794 188.943056 
L 522.597097 188.871731 
L 529.13888 188.953496 
L 529.13888 188.953496 
" style="fill:none;stroke:#000000;stroke-linecap:square;stroke-opacity:0.7;stroke-width:1.2;"/>
   </g>
   <g id="line2d_18">
    <path clip-path="url(#pd24a058437)" d="M 529.526261 144.950393 
L 520.652283 144.017942 
L 511.45819 143.293431 
L 503.579298 142.881436 
L 498.310022 142.82062 
L 495.001592 142.97573 
L 492.14533 143.34056 
L 490.116753 143.835324 
L 488.8385 144.340526 
L 487.485503 145.206444 
L 486.630906 145.83299 
L 485.67089 146.283346 
L 484.030267 146.819045 
L 484.423651 147.017315 
L 486.11022 147.433298 
L 490.015858 148.157506 
L 494.844591 148.824608 
L 498.362278 149.109466 
L 501.33848 149.160373 
L 503.785447 149.035946 
L 506.82162 148.653185 
L 510.802535 147.838332 
L 518.96389 146.01996 
L 522.428237 145.527854 
L 526.673426 145.216752 
L 529.397937 145.100648 
L 529.397937 145.100648 
" style="fill:none;stroke:#000000;stroke-linecap:square;stroke-opacity:0.7;stroke-width:1.2;"/>
   </g>
   <g id="line2d_19">
    <path clip-path="url(#pd24a058437)" d="M 529.577656 100.826227 
L 524.716855 99.283656 
L 518.189799 97.442998 
L 512.957349 96.195037 
L 508.787718 95.411634 
L 505.276679 94.947761 
L 501.67197 94.711425 
L 498.571364 94.754339 
L 495.924871 95.016473 
L 493.961572 95.372699 
L 491.80216 95.950617 
L 489.82627 96.674084 
L 487.588367 97.762706 
L 486.487048 98.458999 
L 485.595078 99.222912 
L 484.881393 100.305741 
L 483.962323 102.873 
L 484.022054 102.989408 
L 484.604015 103.289613 
L 486.361639 103.6423 
L 490.066474 104.062115 
L 494.384766 104.341145 
L 498.419609 104.382284 
L 501.604746 104.212998 
L 505.07627 103.799816 
L 509.521278 103.002532 
L 517.334342 101.553919 
L 520.896283 101.141701 
L 524.332124 100.971429 
L 529.467589 100.984079 
L 529.467589 100.984079 
" style="fill:none;stroke:#000000;stroke-linecap:square;stroke-opacity:0.7;stroke-width:1.2;"/>
   </g>
   <g id="line2d_20">
    <path clip-path="url(#pd24a058437)" d="M 529.212052 57.324317 
L 524.7666 56.376367 
L 518.124276 55.21702 
L 511.760538 54.315932 
L 505.520534 53.638232 
L 500.547951 53.305325 
L 497.102479 53.247356 
L 493.749938 53.400237 
L 491.140507 53.718379 
L 488.388347 54.299313 
L 485.707032 55.167085 
L 484.2458 55.836621 
L 483.554023 56.366913 
L 483.483745 56.616743 
L 483.550957 56.759786 
L 483.891968 57.017834 
L 485.725856 57.943208 
L 486.805517 58.543611 
L 487.626077 58.764037 
L 489.222569 58.897095 
L 491.628333 58.808316 
L 495.106919 58.452642 
L 504.908399 57.330196 
L 508.112138 57.27416 
L 511.678585 57.455888 
L 520.641083 58.018862 
L 523.353858 58.040914 
L 527.479716 57.814653 
L 529.117228 57.602528 
L 529.117228 57.602528 
" style="fill:none;stroke:#000000;stroke-linecap:square;stroke-opacity:0.7;stroke-width:1.2;"/>
   </g>
   <g id="line2d_21">
    <path clip-path="url(#pd24a058437)" d="M 675.490909 232.49311 
L 665.606977 231.065049 
L 655.113713 229.547788 
L 650.033605 229.047594 
L 646.466075 228.915782 
L 643.693905 229.011572 
L 641.573057 229.25219 
L 639.556123 229.66662 
L 637.73004 230.257383 
L 636.465184 230.837757 
L 635.189813 231.653996 
L 634.366889 232.43329 
L 633.347468 233.846583 
L 633.397457 233.853142 
L 637.147289 233.533857 
L 644.178302 233.320085 
L 650.804606 233.019646 
L 656.766889 232.502884 
L 662.702787 232.029437 
L 666.369994 231.959613 
L 670.021373 232.115234 
L 675.213665 232.544209 
L 675.213665 232.544209 
" style="fill:none;stroke:#000000;stroke-linecap:square;stroke-opacity:0.7;stroke-width:1.2;"/>
   </g>
   <g id="line2d_22">
    <path clip-path="url(#pd24a058437)" d="M 675.291791 188.453601 
L 668.94978 187.120464 
L 661.538692 185.768534 
L 655.390907 184.847393 
L 650.599208 184.342861 
L 646.782969 184.162243 
L 643.846397 184.223929 
L 641.299277 184.475097 
L 639.288721 184.844005 
L 637.046736 185.485053 
L 635.188132 186.255422 
L 633.547388 187.203341 
L 632.809098 187.79278 
L 632.29966 188.406166 
L 632.127378 188.913285 
L 632.226744 189.452454 
L 632.69092 190.14581 
L 632.963837 190.226378 
L 633.9979 190.214267 
L 642.639644 189.865248 
L 649.553348 189.531278 
L 656.584073 188.9204 
L 662.683812 188.463026 
L 666.586635 188.378429 
L 671.218985 188.504887 
L 675.124773 188.651694 
L 675.124773 188.651694 
" style="fill:none;stroke:#000000;stroke-linecap:square;stroke-opacity:0.7;stroke-width:1.2;"/>
   </g>
   <g id="line2d_23">
    <path clip-path="url(#pd24a058437)" d="M 675.106356 144.502883 
L 669.865193 143.436782 
L 663.999136 142.466901 
L 658.589823 141.783654 
L 653.463459 141.348924 
L 648.986855 141.183611 
L 645.462749 141.246255 
L 642.13744 141.527083 
L 639.326026 142.002205 
L 637.380472 142.505123 
L 635.073155 143.352573 
L 634.085371 143.830031 
L 632.843302 144.64517 
L 632.57623 145.075901 
L 632.538311 146.012608 
L 632.925712 146.236384 
L 633.764513 146.367566 
L 635.639833 146.323759 
L 639.858196 145.886533 
L 649.762231 144.815836 
L 654.240552 144.565782 
L 658.71979 144.54755 
L 663.979906 144.73771 
L 672.06906 145.009217 
L 675.061119 144.914762 
L 675.061119 144.914762 
" style="fill:none;stroke:#000000;stroke-linecap:square;stroke-opacity:0.7;stroke-width:1.2;"/>
   </g>
   <g id="line2d_24">
    <path clip-path="url(#pd24a058437)" d="M 675.355093 101.333788 
L 668.348927 100.554216 
L 658.474386 99.675665 
L 651.152861 99.23455 
L 646.249489 99.153536 
L 642.689567 99.291074 
L 639.39634 99.642499 
L 636.927335 100.09648 
L 634.770218 100.66292 
L 632.709485 101.408779 
L 632.216636 101.719807 
L 633.473617 101.876092 
L 634.517457 102.115422 
L 636.340553 102.245731 
L 639.761363 102.193332 
L 646.023586 101.84581 
L 657.043436 101.192129 
L 661.232127 101.244485 
L 674.188084 101.614242 
L 675.252244 101.546694 
L 675.252244 101.546694 
" style="fill:none;stroke:#000000;stroke-linecap:square;stroke-opacity:0.7;stroke-width:1.2;"/>
   </g>
   <g id="line2d_25">
    <path clip-path="url(#pd24a058437)" d="M 675.348025 57.057087 
L 650.808944 52.38906 
L 647.082456 52.0112 
L 644.543452 51.943769 
L 642.478509 52.057802 
L 640.558723 52.348712 
L 638.665886 52.867644 
L 637.091805 53.533934 
L 635.420786 54.578333 
L 634.396072 55.499078 
L 633.782016 56.242417 
L 632.929431 57.742649 
L 632.475047 58.562132 
L 632.100069 58.983844 
L 632.853717 59.074549 
L 639.745369 59.437452 
L 644.964156 59.552302 
L 648.769245 59.425896 
L 652.26584 59.098441 
L 657.545376 58.33252 
L 662.786557 57.617177 
L 666.990452 57.285017 
L 671.721021 57.175604 
L 675.151397 57.14301 
L 675.151397 57.14301 
" style="fill:none;stroke:#000000;stroke-linecap:square;stroke-opacity:0.7;stroke-width:1.2;"/>
   </g>
  </g>
 </g>
 <defs>
  <clipPath id="pd24a058437">
   <rect height="262.08" width="694.08" x="12.96" y="12.96"/>
  </clipPath>
 </defs>
</svg>
