<?xml version="1.0" encoding="utf-8" standalone="no"?>
<!DOCTYPE svg PUBLIC "-//W3C//DTD SVG 1.1//EN"
  "http://www.w3.org/Graphics/SVG/1.1/DTD/svg11.dtd">
<!-- Created with matplotlib (https://matplotlib.org/) -->
<svg height="288pt" version="1.1" viewBox="0 0 720 288" width="720pt" xmlns="http://www.w3.org/2000/svg" xmlns:xlink="http://www.w3.org/1999/xlink">
 <defs>
  <style type="text/css">
*{stroke-linecap:butt;stroke-linejoin:round;}
  </style>
 </defs>
 <g id="figure_1">
  <g id="patch_1">
   <path d="M 0 288 
L 720 288 
L 720 0 
L 0 0 
z
" style="fill:#ffffff;"/>
  </g>
  <g id="axes_1">
   <g id="line2d_1">
    <path clip-path="url(#p824abf0d0e)" d="M 49.736153 233.394157 
L 48.861483 232.717133 
L 46.375204 231.221235 
L 44.509091 230.100635 
L 45.011562 230.54873 
L 47.919456 233.122421 
L 48.367112 233.149812 
L 48.860087 232.961334 
L 49.624306 232.441463 
L 55.064601 228.329857 
L 57.374556 226.899199 
L 57.215055 227.043236 
L 56.753538 227.633015 
L 56.259088 228.656172 
L 55.899083 229.94459 
L 55.775584 230.69409 
L 55.670625 232.707505 
L 55.823879 234.633608 
L 56.213454 236.636025 
L 56.554902 238.383763 
L 56.390244 238.462476 
L 55.978268 238.337147 
L 54.211819 237.415786 
L 50.883519 235.500214 
L 50.564066 235.098493 
L 50.217902 234.099556 
L 49.934927 233.503608 
L 49.934927 233.503608 
" style="fill:none;stroke:#000000;stroke-linecap:square;stroke-opacity:0.7;stroke-width:1.2;"/>
   </g>
   <g id="line2d_2">
    <path clip-path="url(#p824abf0d0e)" d="M 48.694972 187.029742 
L 48.39401 186.185676 
L 48.300866 184.971378 
L 48.45639 184.045727 
L 48.960422 182.854935 
L 49.326754 182.305461 
L 49.970055 181.574492 
L 51.322147 180.487001 
L 52.725264 179.664751 
L 54.704119 178.769494 
L 58.00909 177.639363 
L 61.870136 176.638692 
L 66.409516 175.74247 
L 70.222304 175.217638 
L 72.625897 175.103042 
L 73.626874 175.21729 
L 74.276495 175.497388 
L 74.508694 175.758366 
L 74.643998 176.206515 
L 74.604088 176.853714 
L 74.13259 178.451658 
L 70.092412 189.5724 
L 68.963862 193.7463 
L 68.233667 196.234297 
L 67.955512 196.635808 
L 67.574783 196.813894 
L 67.189648 196.781829 
L 66.42826 196.46749 
L 65.105829 195.643883 
L 61.829581 193.24095 
L 61.113722 192.8161 
L 59.601923 192.254708 
L 54.938524 190.139624 
L 49.488635 187.612399 
L 49.568404 187.770116 
L 49.619085 187.855918 
L 49.619085 187.855918 
" style="fill:none;stroke:#000000;stroke-linecap:square;stroke-opacity:0.7;stroke-width:1.2;"/>
   </g>
   <g id="line2d_3">
    <path clip-path="url(#p824abf0d0e)" d="M 48.076904 142.65218 
L 46.711932 142.239807 
L 46.615825 142.27687 
L 46.725797 142.336944 
L 47.454752 142.482339 
L 49.651798 142.684108 
L 53.038047 142.755373 
L 55.646011 142.592289 
L 56.85646 142.360489 
L 58.159878 141.923592 
L 61.753673 140.357691 
L 71.699367 136.043585 
L 75.539444 134.559939 
L 75.925396 134.501816 
L 75.917472 134.601191 
L 75.561042 134.92864 
L 65.958508 142.351929 
L 64.319293 143.700678 
L 63.611233 143.994164 
L 62.920366 144.078082 
L 61.215501 144.012063 
L 54.810659 143.380179 
L 49.68881 142.761324 
L 48.77855 142.440876 
L 48.377428 142.332164 
L 47.9022 142.551184 
L 47.621314 142.776399 
L 47.621314 142.776399 
" style="fill:none;stroke:#000000;stroke-linecap:square;stroke-opacity:0.7;stroke-width:1.2;"/>
   </g>
   <g id="line2d_4">
    <path clip-path="url(#p824abf0d0e)" d="M 48.876297 97.828912 
L 48.927277 97.981795 
L 48.67142 98.257221 
L 47.406254 99.132724 
L 46.573927 99.870817 
L 46.088869 100.668493 
L 45.990583 100.950473 
L 45.823447 102.559295 
L 45.950843 103.861202 
L 46.185294 105.116264 
L 47.07163 108.380812 
L 48.329044 112.02384 
L 49.621039 115.103639 
L 49.649472 115.120335 
L 49.419485 114.083728 
L 47.903174 108.337101 
L 47.497134 105.907783 
L 47.534326 105.056629 
L 47.62778 104.821166 
L 48.980183 104.612352 
L 53.399884 105.394719 
L 56.742943 105.862228 
L 56.962393 105.792042 
L 56.950297 105.617765 
L 56.519123 105.123769 
L 48.768768 97.90007 
L 48.383661 97.268923 
L 48.510701 97.323955 
L 48.879128 97.771368 
L 49.13069 98.245939 
L 49.13069 98.245939 
" style="fill:none;stroke:#000000;stroke-linecap:square;stroke-opacity:0.7;stroke-width:1.2;"/>
   </g>
   <g id="line2d_5">
    <path clip-path="url(#p824abf0d0e)" d="M 49.750849 51.684898 
L 47.491674 49.456256 
L 47.417917 49.140655 
L 47.576593 49.026453 
L 47.868234 49.039868 
L 48.593773 49.270861 
L 50.130943 50.035697 
L 52.30401 51.402566 
L 54.431797 53.018481 
L 55.445145 54.011933 
L 55.763536 54.587204 
L 55.741754 55.059202 
L 55.381463 55.803717 
L 53.926122 58.536823 
L 53.104996 60.62243 
L 52.623964 62.423445 
L 52.551 63.35128 
L 52.681351 63.507635 
L 52.866757 63.378853 
L 53.751337 62.259118 
L 54.62551 61.325449 
L 55.458713 60.7707 
L 56.114631 60.610724 
L 56.695596 60.731137 
L 57.032487 60.964321 
L 56.779797 60.684783 
L 54.663399 58.410677 
L 51.897686 55.839696 
L 50.813668 54.7225 
L 50.341951 53.913388 
L 50.15237 53.09741 
L 50.107935 52.460474 
L 50.107935 52.460474 
" style="fill:none;stroke:#000000;stroke-linecap:square;stroke-opacity:0.7;stroke-width:1.2;"/>
   </g>
   <g id="line2d_6">
    <path clip-path="url(#p824abf0d0e)" d="M 198.942196 232.416929 
L 199.56576 232.316342 
L 200.315437 232.492268 
L 206.818203 234.520643 
L 215.841982 237.520134 
L 221.288683 239.527591 
L 223.083762 240.379042 
L 223.394272 240.728994 
L 223.300972 240.894329 
L 222.956569 241.070018 
L 221.709658 241.428271 
L 218.049796 242.475638 
L 213.025435 244.076684 
L 212.17676 243.98572 
L 210.828372 243.479929 
L 209.705253 242.853026 
L 207.475417 241.308087 
L 205.197711 239.413823 
L 203.80145 237.983661 
L 203.333839 237.238147 
L 203.277194 236.678372 
L 203.111675 236.119673 
L 202.581174 235.220692 
L 201.665611 234.109459 
L 200.828166 233.35396 
L 200.154502 233.012293 
L 199.91436 233.133475 
L 199.558378 233.329441 
L 199.331855 233.411934 
L 199.331855 233.411934 
" style="fill:none;stroke:#000000;stroke-linecap:square;stroke-opacity:0.7;stroke-width:1.2;"/>
   </g>
   <g id="line2d_7">
    <path clip-path="url(#p824abf0d0e)" d="M 199.221011 187.352329 
L 199.711804 187.915499 
L 200.29017 188.196624 
L 202.23435 189.012177 
L 204.5903 190.40032 
L 208.215686 192.870094 
L 214.366955 197.134035 
L 214.379128 196.928904 
L 214.083497 195.893286 
L 212.683741 191.510026 
L 212.108583 190.805686 
L 211.2456 190.155167 
L 209.81607 189.379287 
L 207.684983 188.489129 
L 205.752616 187.895491 
L 204.339682 187.672168 
L 203.619715 187.76786 
L 203.277417 188.037038 
L 202.906703 188.259712 
L 201.958106 188.468006 
L 200.139555 188.658196 
L 199.583227 188.520819 
L 199.449373 188.282622 
L 199.498324 188.165002 
L 199.506621 188.20544 
" style="fill:none;stroke:#000000;stroke-linecap:square;stroke-opacity:0.7;stroke-width:1.2;"/>
   </g>
   <g id="line2d_8">
    <path clip-path="url(#p824abf0d0e)" d="M 199.568681 142.388544 
L 200.189119 142.364218 
L 201.739805 142.613711 
L 202.228258 142.676259 
L 202.078292 142.771902 
L 201.874618 143.139791 
L 201.881542 143.346097 
L 202.395902 144.224171 
L 203.999938 147.019075 
L 204.539175 147.475938 
L 205.007775 147.559945 
L 205.668807 147.384825 
L 206.574211 146.913865 
L 208.948511 145.335037 
L 211.438714 143.434743 
L 212.216801 142.597169 
L 212.331889 142.157153 
L 212.192212 141.904067 
L 211.792091 141.648687 
L 210.903872 141.372426 
L 209.23652 141.100869 
L 206.811901 140.916983 
L 204.075834 140.922126 
L 202.47483 141.081273 
L 201.363879 141.382437 
L 200.863887 141.725919 
L 200.608165 142.200933 
L 200.349677 143.374875 
L 200.349677 143.374875 
" style="fill:none;stroke:#000000;stroke-linecap:square;stroke-opacity:0.7;stroke-width:1.2;"/>
   </g>
   <g id="line2d_9">
    <path clip-path="url(#p824abf0d0e)" d="M 199.066969 95.385961 
L 198.545747 94.57642 
L 197.798908 93.751538 
L 196.583618 92.801155 
L 195.989631 92.511314 
L 195.340155 92.500023 
L 195.193081 92.696889 
L 195.177836 93.232856 
L 195.422901 94.083882 
L 196.34173 96.024264 
L 197.920917 98.71478 
L 199.829862 101.658639 
L 204.552151 108.397133 
L 210.296189 116.05502 
L 212.783752 119.118185 
L 213.815399 120.085051 
L 214.122425 120.120698 
L 214.252636 119.975389 
L 214.419978 119.329616 
L 215.136781 114.151124 
L 215.845449 111.400228 
L 216.943235 107.810628 
L 216.722469 107.437114 
L 215.37261 105.816051 
L 215.224889 105.239671 
L 214.804017 104.829269 
L 213.254786 103.753957 
L 210.203566 101.948657 
L 206.227176 99.853356 
L 199.768201 96.570991 
L 199.590474 96.185541 
L 199.624695 96.012509 
L 199.624695 96.012509 
" style="fill:none;stroke:#000000;stroke-linecap:square;stroke-opacity:0.7;stroke-width:1.2;"/>
   </g>
   <g id="line2d_10">
    <path clip-path="url(#p824abf0d0e)" d="M 200.326304 53.355027 
L 201.864954 53.527712 
L 203.296817 53.48626 
L 205.141781 53.704805 
L 208.943403 54.419985 
L 215.344123 55.649166 
L 216.399925 55.674336 
L 216.677926 55.523501 
L 216.68902 55.320815 
L 216.441374 54.901473 
L 215.618815 54.063282 
L 214.149294 52.915742 
L 213.107059 52.339624 
L 212.243207 52.089654 
L 210.904051 51.987422 
L 207.777335 52.063097 
L 204.474734 52.366116 
L 202.0859 52.762982 
L 199.949652 53.347118 
L 199.154327 53.531329 
L 198.944672 53.310116 
L 198.557823 52.4287 
L 198.572074 52.116555 
L 198.727806 52.143087 
L 199.278774 52.543653 
L 200.287908 53.581285 
L 200.563908 53.997324 
L 200.563908 53.997324 
" style="fill:none;stroke:#000000;stroke-linecap:square;stroke-opacity:0.7;stroke-width:1.2;"/>
   </g>
   <g id="line2d_11">
    <path clip-path="url(#p824abf0d0e)" d="M 350.39357 232.664675 
L 350.736362 232.769454 
L 350.990918 233.004051 
L 351.321923 233.593202 
L 351.655845 234.811462 
L 351.975001 237.208698 
L 352.953749 245.785956 
L 353.223796 246.813078 
L 353.268383 246.72025 
L 353.435234 245.277141 
L 353.866195 242.232602 
L 354.369896 239.832216 
L 355.202496 236.88125 
L 355.901747 234.950695 
L 356.974152 232.650913 
L 357.966093 231.113724 
L 358.786713 230.243535 
L 359.645836 229.708185 
L 360.524774 229.474592 
L 361.800484 229.431354 
L 363.916822 229.653853 
L 366.936167 230.223077 
L 369.216325 230.831069 
L 369.832976 231.150005 
L 369.769811 231.302648 
L 369.376861 231.432384 
L 367.833302 231.650418 
L 358.242675 232.540859 
L 351.056714 233.193047 
L 349.97625 233.086258 
L 349.97625 233.086258 
" style="fill:none;stroke:#000000;stroke-linecap:square;stroke-opacity:0.7;stroke-width:1.2;"/>
   </g>
   <g id="line2d_12">
    <path clip-path="url(#p824abf0d0e)" d="M 349.428495 186.810768 
L 349.749239 186.512286 
L 350.013649 185.947787 
L 350.200597 184.839552 
L 350.38824 184.24581 
L 350.675205 184.025553 
L 351.217434 183.949727 
L 352.259729 184.097281 
L 353.904501 184.584974 
L 356.734699 185.600494 
L 361.745871 186.714643 
L 362.861381 187.452596 
L 363.373926 187.660084 
L 363.79504 187.583099 
L 364.285193 187.186038 
L 364.557963 186.767132 
L 364.695736 186.340911 
L 364.620425 185.926717 
L 364.461526 185.772195 
L 363.837893 185.589478 
L 362.676822 185.579499 
L 360.028578 185.840298 
L 349.56584 187.1935 
L 349.56584 187.1935 
" style="fill:none;stroke:#000000;stroke-linecap:square;stroke-opacity:0.7;stroke-width:1.2;"/>
   </g>
   <g id="line2d_13">
    <path clip-path="url(#p824abf0d0e)" d="M 349.981607 143.15618 
L 353.190828 144.98591 
L 353.991038 145.197905 
L 354.996753 145.311182 
L 356.419004 145.198411 
L 357.804582 144.816155 
L 359.484391 144.04488 
L 360.897393 143.151938 
L 362.268557 142.016896 
L 363.048637 141.086992 
L 363.279862 140.495553 
L 363.250064 140.18059 
L 363.000977 139.845417 
L 362.833214 139.816103 
L 362.826993 139.830267 
L 362.914386 140.095458 
L 363.080856 140.615015 
L 362.867582 140.796477 
L 362.23377 140.908912 
L 360.900859 140.882825 
L 360.146453 140.774503 
L 358.756454 140.276726 
L 358.244696 139.832985 
L 357.370877 138.884198 
L 356.526845 138.617185 
L 355.077221 138.455868 
L 352.951097 138.439527 
L 351.02615 138.62574 
L 350.010555 138.933976 
L 349.597229 139.299966 
L 349.525827 139.73626 
L 349.736904 140.354568 
L 350.973413 142.851026 
L 350.966032 143.305973 
L 350.966032 143.305973 
" style="fill:none;stroke:#000000;stroke-linecap:square;stroke-opacity:0.7;stroke-width:1.2;"/>
   </g>
   <g id="line2d_14">
    <path clip-path="url(#p824abf0d0e)" d="M 349.689438 98.047922 
L 349.978457 98.095079 
L 350.330182 97.824787 
L 351.615895 96.638817 
L 352.548221 96.111195 
L 353.948825 95.671527 
L 355.378563 95.475489 
L 357.447045 95.464355 
L 359.826494 95.739622 
L 361.697472 96.178 
L 362.841139 96.657105 
L 363.324218 97.081648 
L 363.614094 97.668351 
L 363.810648 98.680779 
L 363.854259 99.935152 
L 363.691804 100.639123 
L 363.460703 100.89403 
L 363.043 100.991372 
L 362.369609 100.864377 
L 361.253697 100.414702 
L 359.287721 99.384362 
L 355.969067 97.375387 
L 351.934255 94.650414 
L 350.859254 94.021742 
L 350.266253 93.890063 
L 349.662801 93.99605 
L 349.019251 94.339079 
L 348.404949 94.917771 
L 348.063523 95.533497 
L 347.988763 96.064027 
L 348.177046 96.729901 
L 348.705728 97.450826 
L 349.597603 98.248376 
L 350.327698 98.708008 
L 350.437268 98.726553 
L 350.437268 98.726553 
" style="fill:none;stroke:#000000;stroke-linecap:square;stroke-opacity:0.7;stroke-width:1.2;"/>
   </g>
   <g id="line2d_15">
    <path clip-path="url(#p824abf0d0e)" d="M 349.519229 50.505673 
L 349.344951 50.326384 
L 348.888839 50.326123 
L 347.818493 50.526916 
L 346.696648 50.980242 
L 345.673141 51.611847 
L 344.78402 52.313096 
L 343.138062 53.954479 
L 341.706751 55.763599 
L 340.760456 57.312326 
L 340.709737 57.664829 
L 340.986912 57.623826 
L 343.034824 56.608714 
L 345.772597 55.441068 
L 348.366426 54.622422 
L 350.96735 54.157038 
L 352.441559 54.1153 
L 353.972634 54.269155 
L 356.867275 54.667337 
L 358.863252 54.666343 
L 359.558896 54.602323 
L 362.292316 54.045982 
L 363.772758 53.532098 
L 365.353717 52.769501 
L 366.552133 51.933706 
L 367.024193 51.432856 
L 367.172857 51.185102 
L 367.196792 50.719673 
L 366.896371 50.480486 
L 366.189319 50.342334 
L 364.952555 50.34725 
L 361.919709 50.633667 
L 352.17734 51.670917 
L 350.88873 51.596008 
L 350.404232 51.35998 
L 350.163285 51.162267 
L 349.956925 51.363157 
L 349.956925 51.363157 
" style="fill:none;stroke:#000000;stroke-linecap:square;stroke-opacity:0.7;stroke-width:1.2;"/>
   </g>
   <g id="line2d_16">
    <path clip-path="url(#p824abf0d0e)" d="M 500.396552 232.671198 
L 499.74446 232.234094 
L 498.685742 231.768077 
L 497.908481 231.64013 
L 497.834846 231.764527 
L 498.1196 232.062371 
L 499.313889 232.822352 
L 502.554954 234.549661 
L 517.74825 242.416387 
L 518.23591 242.883365 
L 518.275515 243.126832 
L 518.059771 243.560342 
L 517.338915 244.773117 
L 516.818622 245.850808 
L 516.482295 245.768827 
L 515.820965 245.343228 
L 513.667228 243.615392 
L 511.082928 241.275847 
L 509.234429 239.316195 
L 507.373566 237.196656 
L 505.563738 236.06675 
L 501.518104 233.591133 
L 500.884506 233.066656 
L 500.879156 233.214393 
L 500.867908 233.386856 
L 500.867908 233.386856 
" style="fill:none;stroke:#000000;stroke-linecap:square;stroke-opacity:0.7;stroke-width:1.2;"/>
   </g>
   <g id="line2d_17">
    <path clip-path="url(#p824abf0d0e)" d="M 501.787295 188.94392 
L 501.892592 188.746209 
L 501.683314 188.704954 
L 501.180378 188.835002 
L 499.576735 189.536629 
L 495.337681 191.43182 
L 493.134868 192.171536 
L 492.0626 192.318707 
L 491.612488 192.215015 
L 491.368181 191.949181 
L 491.308269 191.470542 
L 491.493861 190.632239 
L 492.057443 189.238937 
L 492.860783 187.637228 
L 495.220694 183.605657 
L 496.685797 181.360188 
L 499.656931 177.31635 
L 501.21439 175.58309 
L 502.130235 174.807736 
L 502.868675 174.435324 
L 503.604129 174.462638 
L 504.553702 175.345294 
L 505.529677 177.076292 
L 506.671585 179.580172 
L 509.657244 186.693009 
L 511.153127 190.738807 
L 511.155541 191.292248 
L 510.950174 191.564344 
L 510.488721 191.69441 
L 509.711812 191.679183 
L 506.842326 191.194964 
L 502.597728 190.192698 
L 501.580361 189.815708 
L 501.583155 189.810012 
L 501.8939 189.737865 
L 502.174539 189.661678 
L 502.069763 189.611392 
" style="fill:none;stroke:#000000;stroke-linecap:square;stroke-opacity:0.7;stroke-width:1.2;"/>
   </g>
   <g id="line2d_18">
    <path clip-path="url(#p824abf0d0e)" d="M 499.364874 141.262763 
L 499.585182 141.192484 
L 500.292366 140.576267 
L 501.482011 139.617927 
L 502.49364 139.088559 
L 503.34702 138.824056 
L 504.559953 138.665457 
L 506.11611 138.725714 
L 507.843483 139.027893 
L 509.777241 139.573165 
L 511.21398 140.091327 
L 513.76057 141.232366 
L 515.4559 142.199631 
L 516.562426 143.04746 
L 517.103968 143.746823 
L 517.256101 144.319653 
L 517.154417 145.114616 
L 516.460245 148.166027 
L 516.537745 149.19046 
L 516.799028 149.977149 
L 517.217713 150.617414 
L 517.530014 150.97071 
L 517.352161 150.698344 
L 517.057565 149.711475 
L 516.913452 148.35498 
L 516.915295 145.850101 
L 516.842938 143.944518 
L 516.585791 143.076484 
L 516.101447 142.424704 
L 515.615831 142.063813 
L 514.360402 141.525445 
L 513.365742 141.256635 
L 510.760215 140.796807 
L 507.531369 140.468031 
L 504.806366 140.365028 
L 502.688517 140.5019 
L 501.75878 140.76811 
L 501.229573 141.172231 
L 500.77758 141.510797 
L 500.617545 141.488668 
L 500.617545 141.488668 
" style="fill:none;stroke:#000000;stroke-linecap:square;stroke-opacity:0.7;stroke-width:1.2;"/>
   </g>
   <g id="line2d_19">
    <path clip-path="url(#p824abf0d0e)" d="M 500.43976 97.862955 
L 500.852516 97.81572 
L 501.444059 97.550961 
L 503.67459 96.444891 
L 505.27569 95.828426 
L 508.288463 94.963817 
L 512.530413 94.072009 
L 518.0732 93.169189 
L 522.939395 92.576541 
L 524.304915 92.587976 
L 524.463035 92.720093 
L 524.373572 92.920887 
L 523.741153 93.458825 
L 520.809789 95.379603 
L 511.486418 101.197761 
L 509.252925 102.259776 
L 508.237541 102.525482 
L 506.809899 102.642593 
L 503.241966 102.722643 
L 503.289221 102.875475 
L 503.641471 102.887026 
L 503.817383 102.688126 
L 503.830212 102.360002 
L 503.605536 101.649665 
L 503.087764 100.690831 
L 502.211191 99.500827 
L 501.232541 98.536951 
L 500.575596 98.103088 
L 500.728731 98.260765 
L 500.736327 98.370067 
L 500.736327 98.370067 
" style="fill:none;stroke:#000000;stroke-linecap:square;stroke-opacity:0.7;stroke-width:1.2;"/>
   </g>
   <g id="line2d_20">
    <path clip-path="url(#p824abf0d0e)" d="M 498.881819 51.651567 
L 498.973737 51.677586 
L 498.990613 51.599422 
L 499.055826 49.044178 
L 499.448293 48.102677 
L 500.161999 47.131891 
L 501.094741 46.265858 
L 502.568799 45.24644 
L 504.559346 44.17742 
L 507.596406 42.889279 
L 510.400359 41.945809 
L 512.709842 41.368502 
L 514.202044 41.186936 
L 515.215456 41.281972 
L 515.951957 41.611691 
L 516.562134 42.18637 
L 517.277077 43.258302 
L 519.462281 47.323207 
L 521.493301 50.741464 
L 524.055297 54.529755 
L 524.798473 55.783009 
L 524.824675 56.19335 
L 524.679658 56.335011 
L 524.23109 56.428378 
L 523.19202 56.350984 
L 521.253173 55.956297 
L 518.123108 55.052028 
L 514.704791 53.789001 
L 511.622496 52.384533 
L 509.995709 51.692346 
L 508.362494 51.262187 
L 505.753751 50.827367 
L 501.679223 50.379043 
L 499.18209 50.284125 
L 498.046138 50.39349 
L 497.513805 50.658054 
L 497.473498 50.913854 
L 497.780379 51.370763 
L 498.52484 51.961621 
L 499.38771 52.393444 
L 499.38771 52.393444 
" style="fill:none;stroke:#000000;stroke-linecap:square;stroke-opacity:0.7;stroke-width:1.2;"/>
   </g>
   <g id="line2d_21">
    <path clip-path="url(#p824abf0d0e)" d="M 650.754722 232.867939 
L 650.301987 232.294117 
L 648.185454 229.387338 
L 647.683835 228.97035 
L 647.664456 228.996911 
L 647.771122 229.235291 
L 648.660755 230.37189 
L 650.581379 232.409872 
L 653.305608 234.985536 
L 655.556388 236.856085 
L 656.999708 237.789489 
L 658.185738 238.293923 
L 660.615329 239.021402 
L 662.065831 239.274403 
L 662.307137 239.151972 
L 662.27206 238.937429 
L 661.832344 238.277182 
L 659.482573 235.436135 
L 658.85565 234.969806 
L 658.096913 234.711155 
L 656.117906 234.3621 
L 652.248206 233.682449 
L 650.453116 233.237873 
L 650.453116 233.237873 
" style="fill:none;stroke:#000000;stroke-linecap:square;stroke-opacity:0.7;stroke-width:1.2;"/>
   </g>
   <g id="line2d_22">
    <path clip-path="url(#p824abf0d0e)" d="M 650.280861 188.00891 
L 650.324205 187.464401 
L 650.347638 186.662698 
L 650.557888 186.341298 
L 651.102313 186.090504 
L 652.063389 185.984313 
L 654.247733 186.07933 
L 658.418283 186.559709 
L 665.540459 187.623243 
L 667.80787 188.114135 
L 669.977174 189.06566 
L 669.886381 189.086705 
L 668.666193 188.873374 
L 660.646426 187.31287 
L 655.791549 186.585986 
L 651.917587 186.214904 
L 649.278168 185.968876 
L 646.776389 185.355229 
L 646.480336 185.486937 
L 646.419145 185.72043 
L 646.589801 186.14171 
L 647.05228 186.690112 
L 647.917973 187.352526 
L 648.93366 187.848741 
L 650.204155 188.187943 
L 650.204155 188.187943 
" style="fill:none;stroke:#000000;stroke-linecap:square;stroke-opacity:0.7;stroke-width:1.2;"/>
   </g>
   <g id="line2d_23">
    <path clip-path="url(#p824abf0d0e)" d="M 650.513901 140.965174 
L 650.696198 140.208233 
L 651.128896 139.464377 
L 651.80331 138.743191 
L 652.942062 137.900728 
L 654.621541 137.00465 
L 656.935312 136.076442 
L 659.410819 135.297792 
L 662.002991 134.659827 
L 664.171568 134.346363 
L 665.000997 134.438038 
L 665.322356 134.670835 
L 665.441539 134.97086 
L 665.395655 135.807998 
L 664.947746 137.535409 
L 663.600173 142.387124 
L 662.775118 146.367008 
L 662.452779 148.760273 
L 662.294656 151.699014 
L 662.186558 153.604644 
L 662.145624 153.555244 
L 662.144549 152.906289 
L 662.45893 147.999388 
L 662.262249 147.508323 
L 661.806789 146.977587 
L 660.908417 146.411014 
L 658.890923 145.52894 
L 655.845778 144.187305 
L 653.783551 143.027134 
L 651.857053 141.927752 
L 651.603017 141.801756 
L 651.603017 141.801756 
" style="fill:none;stroke:#000000;stroke-linecap:square;stroke-opacity:0.7;stroke-width:1.2;"/>
   </g>
   <g id="line2d_24">
    <path clip-path="url(#p824abf0d0e)" d="M 651.096225 98.342788 
L 652.965121 98.515828 
L 655.554393 98.47233 
L 659.658975 98.39072 
L 665.89422 98.547111 
L 675.490909 98.908816 
L 672.853739 98.928753 
L 669.211947 99.214915 
L 665.51915 99.741043 
L 661.665079 100.55452 
L 659.076255 100.998934 
L 657.493905 101.3443 
L 657.386239 101.485408 
L 657.4026 101.504397 
L 657.700468 101.577626 
L 658.015671 101.470323 
L 658.054936 101.235123 
L 657.830735 100.812682 
L 657.037611 99.948178 
L 655.92545 99.062909 
L 655.164304 98.678144 
L 654.390064 98.517385 
L 653.444223 98.541473 
L 651.018675 98.908802 
L 651.018675 98.908802 
" style="fill:none;stroke:#000000;stroke-linecap:square;stroke-opacity:0.7;stroke-width:1.2;"/>
   </g>
   <g id="line2d_25">
    <path clip-path="url(#p824abf0d0e)" d="M 650.142249 52.739532 
L 650.690262 52.771052 
L 651.151598 52.611334 
L 651.879549 52.023689 
L 652.953225 51.201307 
L 654.734424 50.229548 
L 657.714876 48.988737 
L 661.95105 47.481791 
L 670.558509 44.691688 
L 671.657301 44.481919 
L 671.677494 44.597004 
L 671.413614 45.033014 
L 669.569322 47.434856 
L 668.810468 47.997253 
L 667.818089 48.449963 
L 665.54656 49.138679 
L 657.631368 51.147601 
L 655.409501 51.596969 
L 652.872172 52.338803 
L 650.882079 52.917584 
L 650.374727 52.974003 
L 650.195927 53.038002 
L 650.195927 53.038002 
" style="fill:none;stroke:#000000;stroke-linecap:square;stroke-opacity:0.7;stroke-width:1.2;"/>
   </g>
  </g>
 </g>
 <defs>
  <clipPath id="p824abf0d0e">
   <rect height="262.08" width="694.08" x="12.96" y="12.96"/>
  </clipPath>
 </defs>
</svg>
