<?xml version="1.0" encoding="utf-8" standalone="no"?>
<!DOCTYPE svg PUBLIC "-//W3C//DTD SVG 1.1//EN"
  "http://www.w3.org/Graphics/SVG/1.1/DTD/svg11.dtd">
<!-- Created with matplotlib (https://matplotlib.org/) -->
<svg height="288pt" version="1.1" viewBox="0 0 720 288" width="720pt" xmlns="http://www.w3.org/2000/svg" xmlns:xlink="http://www.w3.org/1999/xlink">
 <defs>
  <style type="text/css">
*{stroke-linecap:butt;stroke-linejoin:round;}
  </style>
 </defs>
 <g id="figure_1">
  <g id="patch_1">
   <path d="M 0 288 
L 720 288 
L 720 0 
L 0 0 
z
" style="fill:#ffffff;"/>
  </g>
  <g id="axes_1">
   <g id="line2d_1">
    <path clip-path="url(#p97c02a617a)" d="M 85.502809 234.144537 
L 73.767255 231.82743 
L 67.758773 230.815045 
L 62.756124 230.182584 
L 58.407377 229.857196 
L 54.199666 229.759045 
L 47.827092 229.673003 
L 46.365926 229.621883 
L 46.1098 229.755547 
L 45.965694 229.952821 
L 44.767057 232.903583 
L 44.509091 233.439791 
L 44.668469 233.653526 
L 45.286424 233.866307 
L 47.488184 234.276244 
L 51.462677 234.813078 
L 55.239513 235.127787 
L 59.097385 235.192592 
L 63.124662 235.002504 
L 75.504729 234.214869 
L 83.124311 234.083919 
L 85.836743 234.144765 
L 85.836743 234.144765 
" style="fill:none;stroke:#000000;stroke-linecap:square;stroke-opacity:0.7;stroke-width:1.2;"/>
   </g>
   <g id="line2d_2">
    <path clip-path="url(#p97c02a617a)" d="M 85.464638 189.648444 
L 81.757193 188.115045 
L 77.885163 186.738185 
L 73.673152 185.482526 
L 69.91823 184.596915 
L 66.624581 184.037723 
L 63.869262 183.760766 
L 60.873177 183.697627 
L 58.278733 183.873824 
L 55.609604 184.296277 
L 52.986832 184.940719 
L 48.198189 186.450597 
L 47.416861 186.902475 
L 46.754723 187.812616 
L 46.082277 188.87607 
L 46.224608 189.009737 
L 47.055242 189.21995 
L 49.100109 189.446262 
L 55.032438 189.837376 
L 61.398958 190.065986 
L 69.693098 190.121051 
L 77.605432 189.968705 
L 85.64169 189.634012 
L 85.64169 189.634012 
" style="fill:none;stroke:#000000;stroke-linecap:square;stroke-opacity:0.7;stroke-width:1.2;"/>
   </g>
   <g id="line2d_3">
    <path clip-path="url(#p97c02a617a)" d="M 85.759246 146.183786 
L 82.031354 145.431777 
L 75.774413 143.920043 
L 66.274516 141.60583 
L 62.370313 140.916237 
L 59.486529 140.614395 
L 56.550675 140.543728 
L 54.637173 140.642983 
L 51.729349 141.019941 
L 48.505691 141.722912 
L 45.984371 142.437989 
L 45.583764 142.749209 
L 45.671192 143.116559 
L 45.987484 144.210114 
L 46.196932 145.000156 
L 46.523486 145.294206 
L 47.83954 145.957482 
L 50.097661 146.805197 
L 53.500012 147.815629 
L 56.144074 148.387828 
L 57.962839 148.647956 
L 60.770819 148.79431 
L 63.65712 148.632963 
L 67.935634 148.087709 
L 75.953672 147.08095 
L 84.220304 146.305793 
L 86.007699 146.232676 
L 86.007699 146.232676 
" style="fill:none;stroke:#000000;stroke-linecap:square;stroke-opacity:0.7;stroke-width:1.2;"/>
   </g>
   <g id="line2d_4">
    <path clip-path="url(#p97c02a617a)" d="M 85.616482 101.965737 
L 65.131572 97.641572 
L 61.278429 97.15899 
L 58.044906 96.969561 
L 54.989223 97.020442 
L 52.032424 97.314755 
L 49.238648 97.835063 
L 46.982539 98.459825 
L 45.75137 98.983306 
L 45.462433 99.274892 
L 45.470371 99.508004 
L 45.709519 99.791039 
L 46.90619 99.963321 
L 49.608579 100.103239 
L 54.393048 100.091306 
L 62.000907 100.056417 
L 65.914494 100.286949 
L 72.852754 100.996074 
L 79.96452 101.637927 
L 85.943557 102.023303 
L 85.943557 102.023303 
" style="fill:none;stroke:#000000;stroke-linecap:square;stroke-opacity:0.7;stroke-width:1.2;"/>
   </g>
   <g id="line2d_5">
    <path clip-path="url(#p97c02a617a)" d="M 85.933177 57.362634 
L 80.157325 56.103501 
L 69.344521 53.898508 
L 64.44981 53.118944 
L 60.943623 52.76818 
L 58.271319 52.675017 
L 55.056514 52.806978 
L 51.462885 53.234836 
L 46.575427 53.952285 
L 46.189287 54.3922 
L 45.804637 55.301012 
L 45.6303 56.201713 
L 45.716215 56.542324 
L 46.160326 56.834686 
L 47.067225 56.96897 
L 49.538536 56.990751 
L 57.768831 56.943177 
L 61.31349 57.177096 
L 64.869632 57.662612 
L 69.61139 58.307842 
L 72.220289 58.480784 
L 76.120298 58.461333 
L 79.384595 58.220968 
L 84.300648 57.585964 
L 86.09901 57.359943 
L 86.09901 57.359943 
" style="fill:none;stroke:#000000;stroke-linecap:square;stroke-opacity:0.7;stroke-width:1.2;"/>
   </g>
   <g id="line2d_6">
    <path clip-path="url(#p97c02a617a)" d="M 232.989777 234.383847 
L 227.002359 233.047003 
L 212.396436 229.679244 
L 208.613071 229.099809 
L 205.67236 228.861893 
L 202.97072 228.859851 
L 201.036514 229.007807 
L 198.046919 229.509399 
L 195.918583 230.083046 
L 193.620688 230.949565 
L 192.892657 231.368082 
L 192.674236 231.752971 
L 192.908093 232.126412 
L 194.111769 233.084575 
L 194.71439 233.406589 
L 196.3061 233.882554 
L 200.211927 234.767345 
L 203.824707 235.380063 
L 206.811458 235.687615 
L 210.062216 235.785504 
L 214.596249 235.648149 
L 223.403098 235.113323 
L 233.198145 234.365381 
L 233.198145 234.365381 
" style="fill:none;stroke:#000000;stroke-linecap:square;stroke-opacity:0.7;stroke-width:1.2;"/>
   </g>
   <g id="line2d_7">
    <path clip-path="url(#p97c02a617a)" d="M 232.732746 189.933087 
L 221.897113 186.929823 
L 216.744768 185.71487 
L 212.544599 184.95902 
L 209.389868 184.600843 
L 206.17683 184.473482 
L 203.092755 184.609999 
L 200.348028 184.956237 
L 197.218014 185.601045 
L 193.942544 186.536528 
L 192.702302 187.063845 
L 192.556908 187.35696 
L 193.065795 187.969606 
L 193.634819 188.349868 
L 194.168514 188.391026 
L 202.052412 188.390219 
L 207.16412 188.547282 
L 211.551187 188.901353 
L 220.669725 189.713623 
L 226.056397 189.93527 
L 232.935502 189.9598 
L 232.935502 189.9598 
" style="fill:none;stroke:#000000;stroke-linecap:square;stroke-opacity:0.7;stroke-width:1.2;"/>
   </g>
   <g id="line2d_8">
    <path clip-path="url(#p97c02a617a)" d="M 233.273791 146.109746 
L 214.176682 138.454221 
L 211.545902 137.719243 
L 209.428889 137.334432 
L 207.555935 137.197376 
L 205.651497 137.29164 
L 204.058287 137.569655 
L 202.3525 138.074411 
L 200.161883 139.023248 
L 198.02879 140.226968 
L 194.959358 142.26119 
L 193.313007 143.480739 
L 193.275101 143.738278 
L 193.766991 144.314459 
L 194.522362 144.73022 
L 195.947633 145.12041 
L 197.589501 145.346526 
L 200.519835 145.480502 
L 203.987148 145.396393 
L 214.956447 144.944015 
L 219.452681 145.090939 
L 226.66217 145.601429 
L 233.573603 146.170149 
L 233.573603 146.170149 
" style="fill:none;stroke:#000000;stroke-linecap:square;stroke-opacity:0.7;stroke-width:1.2;"/>
   </g>
   <g id="line2d_9">
    <path clip-path="url(#p97c02a617a)" d="M 232.697133 101.521073 
L 225.983793 100.115074 
L 220.425767 99.155342 
L 215.029529 98.43484 
L 210.189201 98.017378 
L 206.68509 97.888455 
L 202.767386 97.956704 
L 199.677888 98.198009 
L 196.509256 98.660098 
L 194.35696 99.182507 
L 193.668603 99.519157 
L 193.645332 99.729532 
L 193.798914 99.846829 
L 194.405123 99.990234 
L 194.941179 99.854377 
L 195.869969 99.702352 
L 198.087865 99.631488 
L 204.128555 99.674823 
L 209.230069 99.929267 
L 215.625153 100.532156 
L 223.066103 101.160987 
L 229.214086 101.434909 
L 232.961909 101.54214 
L 232.961909 101.54214 
" style="fill:none;stroke:#000000;stroke-linecap:square;stroke-opacity:0.7;stroke-width:1.2;"/>
   </g>
   <g id="line2d_10">
    <path clip-path="url(#p97c02a617a)" d="M 232.853777 57.469138 
L 225.484089 55.662095 
L 219.962781 54.52193 
L 214.72052 53.651585 
L 210.223775 53.137774 
L 206.765798 52.947525 
L 203.251805 52.986404 
L 200.301804 53.222175 
L 197.16105 53.675798 
L 193.829932 54.363672 
L 193.319027 54.611469 
L 193.408454 54.81225 
L 195.132063 56.438513 
L 195.635187 56.655741 
L 196.873524 56.796924 
L 202.792148 57.379633 
L 208.983679 58.219353 
L 214.626667 59.003061 
L 217.641745 59.127075 
L 221.051441 59.013258 
L 224.034424 58.752617 
L 229.625638 58.009532 
L 233.142851 57.553143 
L 233.142851 57.553143 
" style="fill:none;stroke:#000000;stroke-linecap:square;stroke-opacity:0.7;stroke-width:1.2;"/>
   </g>
   <g id="line2d_11">
    <path clip-path="url(#p97c02a617a)" d="M 380.268501 234.484618 
L 367.163306 230.957176 
L 362.626806 229.923869 
L 359.181984 229.306367 
L 355.402286 228.881699 
L 352.896798 228.789337 
L 350.201858 228.888258 
L 347.196844 229.261268 
L 344.445279 229.852347 
L 341.898487 230.624018 
L 340.59689 231.177063 
L 340.185939 231.521178 
L 340.157475 231.837256 
L 340.662917 232.521833 
L 341.120744 232.80709 
L 342.012141 232.781683 
L 345.123015 232.792094 
L 354.309195 233.095462 
L 361.100207 233.554062 
L 368.686281 234.049852 
L 374.8624 234.231126 
L 380.439003 234.277987 
L 380.439003 234.277987 
" style="fill:none;stroke:#000000;stroke-linecap:square;stroke-opacity:0.7;stroke-width:1.2;"/>
   </g>
   <g id="line2d_12">
    <path clip-path="url(#p97c02a617a)" d="M 380.223952 190.123245 
L 367.326605 187.62754 
L 361.097468 186.621073 
L 356.529668 186.099475 
L 352.850421 185.880639 
L 349.767472 185.872818 
L 345.925903 186.129457 
L 342.767547 186.604246 
L 340.639934 187.146817 
L 340.140018 187.436845 
L 340.109891 187.594367 
L 340.352142 187.886366 
L 341.23887 188.450743 
L 341.960176 188.668051 
L 343.087285 188.576236 
L 346.193489 188.329662 
L 349.84393 188.250208 
L 353.462791 188.39208 
L 356.839904 188.758838 
L 365.43389 189.86904 
L 369.754894 190.121134 
L 374.045311 190.163747 
L 380.427214 189.991996 
L 380.427214 189.991996 
" style="fill:none;stroke:#000000;stroke-linecap:square;stroke-opacity:0.7;stroke-width:1.2;"/>
   </g>
   <g id="line2d_13">
    <path clip-path="url(#p97c02a617a)" d="M 380.336199 145.97294 
L 374.067497 144.38635 
L 363.409486 141.672151 
L 359.316048 140.871184 
L 356.420614 140.49339 
L 353.176271 140.316065 
L 350.259507 140.40322 
L 347.141376 140.743838 
L 344.237162 141.242233 
L 341.135642 141.973335 
L 340.775516 142.222007 
L 340.661105 142.467752 
L 340.713805 143.051721 
L 341.201272 144.187479 
L 341.679309 144.88378 
L 342.180254 145.243512 
L 342.880404 145.375569 
L 356.380082 146.450575 
L 362.610604 146.429893 
L 372.115247 146.212799 
L 380.589178 145.832615 
L 380.589178 145.832615 
" style="fill:none;stroke:#000000;stroke-linecap:square;stroke-opacity:0.7;stroke-width:1.2;"/>
   </g>
   <g id="line2d_14">
    <path clip-path="url(#p97c02a617a)" d="M 380.217543 101.673076 
L 370.707382 99.536023 
L 365.240869 98.517862 
L 360.878907 97.894517 
L 356.71365 97.519322 
L 353.196758 97.419046 
L 349.982329 97.541086 
L 346.949569 97.880801 
L 344.163191 98.4303 
L 342.105364 99.062228 
L 341.50877 99.409489 
L 341.528539 99.560284 
L 341.572953 99.626805 
L 341.479678 99.643187 
L 341.337049 99.643677 
L 350.525902 99.645286 
L 356.326693 99.608775 
L 360.837013 99.819203 
L 366.711064 100.335775 
L 380.361927 101.581208 
L 380.361927 101.581208 
" style="fill:none;stroke:#000000;stroke-linecap:square;stroke-opacity:0.7;stroke-width:1.2;"/>
   </g>
   <g id="line2d_15">
    <path clip-path="url(#p97c02a617a)" d="M 380.004147 57.056708 
L 375.838237 55.787122 
L 371.802107 54.800662 
L 368.0887 54.101698 
L 363.775973 53.529586 
L 359.577517 53.209151 
L 355.266033 53.116646 
L 351.390489 53.239673 
L 347.184717 53.597117 
L 342.916955 54.198412 
L 341.248335 54.5635 
L 340.770086 54.810198 
L 340.63626 55.058827 
L 340.478008 55.558436 
L 340.097372 55.679391 
L 339.595338 55.599482 
L 339.972276 55.569659 
L 349.806873 55.301608 
L 362.13836 54.696432 
L 366.298549 54.800491 
L 370.121445 55.113828 
L 373.667832 55.583104 
L 377.675623 56.306969 
L 380.178395 56.901239 
L 380.178395 56.901239 
" style="fill:none;stroke:#000000;stroke-linecap:square;stroke-opacity:0.7;stroke-width:1.2;"/>
   </g>
   <g id="line2d_16">
    <path clip-path="url(#p97c02a617a)" d="M 527.76274 234.522922 
L 511.274482 229.654763 
L 506.849524 228.656059 
L 503.87113 228.199181 
L 501.474828 228.009494 
L 498.854077 228.026861 
L 496.552486 228.263034 
L 494.163197 228.741863 
L 492.163695 229.327341 
L 490.203841 230.066136 
L 488.737428 230.758547 
L 487.795249 231.444139 
L 487.658615 231.679116 
L 487.649635 232.539454 
L 487.95447 232.714634 
L 489.147046 232.98176 
L 491.28745 233.173938 
L 494.96881 233.240247 
L 507.492133 233.212593 
L 514.392792 233.622807 
L 525.415473 234.272644 
L 528.038749 234.423174 
L 528.038749 234.423174 
" style="fill:none;stroke:#000000;stroke-linecap:square;stroke-opacity:0.7;stroke-width:1.2;"/>
   </g>
   <g id="line2d_17">
    <path clip-path="url(#p97c02a617a)" d="M 527.732468 190.065622 
L 512.531617 182.9955 
L 508.257777 181.157059 
L 505.733713 180.293679 
L 503.778226 179.827855 
L 502.116746 179.615071 
L 500.364634 179.599362 
L 498.738124 179.784671 
L 496.476353 180.347253 
L 494.332316 181.161878 
L 491.157842 182.723342 
L 487.540508 184.800988 
L 486.547269 185.51875 
L 485.898902 186.307828 
L 485.731813 186.93897 
L 485.77857 188.717129 
L 485.868819 189.143672 
L 486.164362 189.510082 
L 486.885544 189.994489 
L 488.144479 190.538387 
L 490.482436 191.213991 
L 493.307729 191.73652 
L 496.447306 192.038222 
L 499.250322 192.081764 
L 503.364973 191.856481 
L 526.566714 190.072683 
L 528.203826 189.992497 
L 528.203826 189.992497 
" style="fill:none;stroke:#000000;stroke-linecap:square;stroke-opacity:0.7;stroke-width:1.2;"/>
   </g>
   <g id="line2d_18">
    <path clip-path="url(#p97c02a617a)" d="M 528.099384 146.28319 
L 522.824423 145.241055 
L 508.118984 142.187755 
L 504.043223 141.650916 
L 500.82667 141.441391 
L 498.043477 141.450082 
L 495.4629 141.632108 
L 492.130047 142.104135 
L 487.775876 142.987341 
L 487.429731 143.210158 
L 487.422825 143.534205 
L 487.684036 144.277481 
L 487.972775 144.595136 
L 488.539567 144.831576 
L 489.620478 145.032122 
L 493.065906 145.337769 
L 515.624325 146.715637 
L 520.751854 146.643616 
L 526.999972 146.294812 
L 528.388071 146.235172 
L 528.388071 146.235172 
" style="fill:none;stroke:#000000;stroke-linecap:square;stroke-opacity:0.7;stroke-width:1.2;"/>
   </g>
   <g id="line2d_19">
    <path clip-path="url(#p97c02a617a)" d="M 527.984368 101.847796 
L 508.212155 97.42715 
L 504.947444 96.996241 
L 501.808253 96.792704 
L 498.781225 96.839657 
L 495.837783 97.142612 
L 493.009422 97.676583 
L 489.7816 98.55547 
L 488.157185 99.184204 
L 487.901729 99.525213 
L 488.048319 99.907097 
L 488.382333 100.103825 
L 488.898465 100.206093 
L 490.692792 100.290306 
L 494.621089 100.180155 
L 501.306123 99.988048 
L 504.949018 100.130293 
L 509.103967 100.552314 
L 517.599383 101.492699 
L 522.633719 101.786258 
L 528.197051 101.912765 
L 528.197051 101.912765 
" style="fill:none;stroke:#000000;stroke-linecap:square;stroke-opacity:0.7;stroke-width:1.2;"/>
   </g>
   <g id="line2d_20">
    <path clip-path="url(#p97c02a617a)" d="M 527.387341 57.219806 
L 524.239561 56.113936 
L 519.663855 54.773147 
L 515.53325 53.829577 
L 511.893337 53.20408 
L 508.013027 52.758211 
L 504.338547 52.567207 
L 501.097087 52.611855 
L 497.707418 52.905038 
L 494.878341 53.370215 
L 491.793499 54.142652 
L 490.109345 54.763548 
L 489.993421 54.962049 
L 490.331783 56.21356 
L 490.654134 56.26503 
L 492.720048 56.32428 
L 501.844108 56.767577 
L 514.717941 56.932781 
L 527.643037 57.202884 
L 527.643037 57.202884 
" style="fill:none;stroke:#000000;stroke-linecap:square;stroke-opacity:0.7;stroke-width:1.2;"/>
   </g>
   <g id="line2d_21">
    <path clip-path="url(#p97c02a617a)" d="M 675.302152 234.000659 
L 669.964353 232.346651 
L 663.420335 230.564487 
L 658.555814 229.454823 
L 654.945389 228.8267 
L 651.604198 228.476569 
L 649.176127 228.412946 
L 646.147004 228.611263 
L 643.940843 228.962615 
L 640.903427 229.686613 
L 637.631628 230.673258 
L 636.86179 231.133976 
L 634.954059 232.746234 
L 635.004898 232.87708 
L 635.506988 233.032481 
L 637.298326 233.190036 
L 641.235652 233.24832 
L 647.224775 233.101914 
L 657.005185 232.844499 
L 662.46804 232.964958 
L 669.449265 233.362983 
L 675.490909 233.850807 
L 675.490909 233.850807 
" style="fill:none;stroke:#000000;stroke-linecap:square;stroke-opacity:0.7;stroke-width:1.2;"/>
   </g>
   <g id="line2d_22">
    <path clip-path="url(#p97c02a617a)" d="M 675.235547 190.244358 
L 667.633752 188.478751 
L 656.787314 185.945534 
L 653.047004 185.29829 
L 649.833947 184.969009 
L 647.313036 184.908096 
L 645.33041 185.000462 
L 642.359892 185.377072 
L 639.356358 186.015015 
L 635.790799 187.015817 
L 635.285449 187.349776 
L 635.222903 187.519966 
L 635.399308 188.16539 
L 635.799257 188.704932 
L 636.297666 188.836548 
L 637.550139 188.735236 
L 644.088959 188.143343 
L 648.508321 187.971818 
L 651.955561 188.072087 
L 655.903803 188.44191 
L 668.098838 189.756765 
L 674.99552 190.135236 
L 675.460982 190.169939 
L 675.460982 190.169939 
" style="fill:none;stroke:#000000;stroke-linecap:square;stroke-opacity:0.7;stroke-width:1.2;"/>
   </g>
   <g id="line2d_23">
    <path clip-path="url(#p97c02a617a)" d="M 675.106115 145.821435 
L 660.382808 142.970695 
L 655.146104 142.254325 
L 650.902439 141.913127 
L 647.329521 141.853732 
L 644.117659 142.021117 
L 641.21413 142.377768 
L 636.984546 143.184036 
L 636.236769 143.557076 
L 635.229712 144.2009 
L 635.198534 144.509005 
L 635.363599 144.665152 
L 636.363076 145.101709 
L 638.304291 145.634974 
L 641.591068 146.293851 
L 645.004125 146.7532 
L 648.261814 146.956111 
L 651.538774 146.915479 
L 656.139275 146.590319 
L 663.754751 146.04956 
L 670.849814 145.799626 
L 675.389268 145.805415 
L 675.389268 145.805415 
" style="fill:none;stroke:#000000;stroke-linecap:square;stroke-opacity:0.7;stroke-width:1.2;"/>
   </g>
   <g id="line2d_24">
    <path clip-path="url(#p97c02a617a)" d="M 675.155962 101.839793 
L 670.621804 100.478305 
L 656.22633 96.005856 
L 652.984275 95.306349 
L 650.558549 94.973182 
L 648.098445 94.849692 
L 645.688717 94.971305 
L 643.288047 95.348017 
L 640.290578 96.167464 
L 637.778679 97.110027 
L 635.28605 98.253843 
L 634.711956 98.716758 
L 634.642048 99.188797 
L 634.98293 99.917585 
L 635.375968 100.461546 
L 636.104963 100.695082 
L 637.785801 100.982997 
L 640.652009 101.197221 
L 643.904002 101.174522 
L 647.555736 100.900631 
L 657.995408 99.902146 
L 660.92368 99.865844 
L 664.07242 100.000964 
L 667.27249 100.311577 
L 672.288857 101.087471 
L 675.489036 101.738055 
L 675.489036 101.738055 
" style="fill:none;stroke:#000000;stroke-linecap:square;stroke-opacity:0.7;stroke-width:1.2;"/>
   </g>
   <g id="line2d_25">
    <path clip-path="url(#p97c02a617a)" d="M 674.833707 57.012079 
L 669.179405 55.262871 
L 664.909144 54.174306 
L 660.656698 53.301011 
L 656.242339 52.632621 
L 652.632555 52.301391 
L 649.818359 52.214496 
L 646.515316 52.359575 
L 643.55871 52.777391 
L 641.820292 53.181598 
L 639.516683 53.955965 
L 638.122296 54.646781 
L 637.578349 55.134093 
L 637.619018 55.335876 
L 637.828725 55.447457 
L 637.628599 55.456163 
L 637.358554 55.569514 
L 637.34216 55.755375 
L 637.75981 56.104492 
L 638.560341 56.464685 
L 640.649736 57.094885 
L 643.351567 57.651572 
L 646.476916 58.052106 
L 649.270076 58.206849 
L 652.841896 58.164354 
L 658.779198 57.805127 
L 668.921004 57.230315 
L 674.962968 57.066914 
L 675.082182 57.072222 
L 675.082182 57.072222 
" style="fill:none;stroke:#000000;stroke-linecap:square;stroke-opacity:0.7;stroke-width:1.2;"/>
   </g>
  </g>
 </g>
 <defs>
  <clipPath id="p97c02a617a">
   <rect height="262.08" width="694.08" x="12.96" y="12.96"/>
  </clipPath>
 </defs>
</svg>
