<?xml version="1.0" encoding="utf-8" standalone="no"?>
<!DOCTYPE svg PUBLIC "-//W3C//DTD SVG 1.1//EN"
  "http://www.w3.org/Graphics/SVG/1.1/DTD/svg11.dtd">
<!-- Created with matplotlib (https://matplotlib.org/) -->
<svg height="288pt" version="1.1" viewBox="0 0 720 288" width="720pt" xmlns="http://www.w3.org/2000/svg" xmlns:xlink="http://www.w3.org/1999/xlink">
 <defs>
  <style type="text/css">
*{stroke-linecap:butt;stroke-linejoin:round;}
  </style>
 </defs>
 <g id="figure_1">
  <g id="patch_1">
   <path d="M 0 288 
L 720 288 
L 720 0 
L 0 0 
z
" style="fill:#ffffff;"/>
  </g>
  <g id="axes_1">
   <g id="line2d_1">
    <path clip-path="url(#pa44d7d8612)" d="M 79.588109 235.603815 
L 78.576788 234.976301 
L 76.66164 234.100928 
L 72.975893 232.745535 
L 66.380281 230.610216 
L 61.012913 229.079758 
L 58.088891 228.437772 
L 55.968906 228.153114 
L 54.083465 228.112403 
L 52.41105 228.319208 
L 50.927176 228.749524 
L 49.571431 229.376341 
L 48.319663 230.164802 
L 46.589765 231.604039 
L 45.35569 232.954019 
L 45.066067 233.342034 
L 44.509091 234.349968 
L 44.686123 235.103387 
L 45.278617 235.322499 
L 45.544 236.099348 
L 45.966621 236.489392 
L 46.624348 236.805265 
L 47.960082 237.134791 
L 49.795788 237.327906 
L 52.129244 237.350149 
L 54.812013 237.142258 
L 68.332549 235.63297 
L 78.678283 234.960458 
L 78.678283 234.960458 
" style="fill:none;stroke:#000000;stroke-linecap:square;stroke-opacity:0.7;stroke-width:1.2;"/>
   </g>
   <g id="line2d_2">
    <path clip-path="url(#pa44d7d8612)" d="M 78.814985 190.877981 
L 77.151939 190.206359 
L 74.647663 189.450955 
L 72.00969 188.866049 
L 67.886148 188.212475 
L 62.665112 187.649668 
L 55.390515 187.119384 
L 51.556329 186.994644 
L 49.212176 187.139672 
L 47.818766 187.478136 
L 47.272842 187.729551 
L 46.391365 188.484264 
L 45.991232 189.400184 
L 45.96974 189.601801 
L 46.057109 190.151303 
L 46.705144 190.649383 
L 50.647148 190.833829 
L 54.836918 190.697067 
L 65.46966 190.062179 
L 71.636876 190.10181 
L 77.977223 190.149151 
L 77.977223 190.149151 
" style="fill:none;stroke:#000000;stroke-linecap:square;stroke-opacity:0.7;stroke-width:1.2;"/>
   </g>
   <g id="line2d_3">
    <path clip-path="url(#pa44d7d8612)" d="M 79.156225 145.972559 
L 78.018833 145.376098 
L 76.647911 144.854083 
L 74.559424 144.30934 
L 71.62078 143.856499 
L 68.666245 143.627348 
L 63.833993 143.515454 
L 50.439736 143.525798 
L 48.965595 143.802129 
L 48.029146 144.156392 
L 46.575318 145.042178 
L 45.786034 145.576742 
L 45.869971 145.609037 
L 46.196514 146.099088 
L 46.950451 146.482676 
L 47.879762 146.694329 
L 50.691905 147.01003 
L 55.64117 147.344629 
L 59.180123 147.382245 
L 64.089254 147.178997 
L 68.634802 146.794859 
L 74.258615 146.103377 
L 78.304072 145.510568 
L 78.304072 145.510568 
" style="fill:none;stroke:#000000;stroke-linecap:square;stroke-opacity:0.7;stroke-width:1.2;"/>
   </g>
   <g id="line2d_4">
    <path clip-path="url(#pa44d7d8612)" d="M 78.516558 101.385842 
L 77.298716 100.755689 
L 75.427396 100.063468 
L 74.070072 99.707123 
L 71.307044 99.250463 
L 68.579111 99.053614 
L 64.895635 99.043946 
L 59.159305 99.305995 
L 52.497392 99.567886 
L 46.110575 99.762617 
L 45.356128 99.996061 
L 44.784253 100.428727 
L 44.689536 100.595743 
L 44.703167 101.045255 
L 45.176916 101.359755 
L 46.226991 101.36894 
L 46.680189 101.437145 
L 47.216886 101.602315 
L 48.45334 101.695181 
L 56.854551 101.836178 
L 64.854518 101.646449 
L 73.635023 101.286378 
L 77.823134 100.957007 
L 77.823134 100.957007 
" style="fill:none;stroke:#000000;stroke-linecap:square;stroke-opacity:0.7;stroke-width:1.2;"/>
   </g>
   <g id="line2d_5">
    <path clip-path="url(#pa44d7d8612)" d="M 78.303311 55.878584 
L 76.655611 54.98764 
L 74.758522 54.202935 
L 72.359532 53.469644 
L 70.193854 53.000783 
L 67.848413 52.66173 
L 64.471792 52.428709 
L 61.038613 52.445474 
L 57.224441 52.705383 
L 52.974073 53.237143 
L 49.130071 53.942431 
L 46.989055 54.538204 
L 46.108523 54.960566 
L 45.629541 55.495351 
L 45.594772 55.868171 
L 45.761267 56.087688 
L 46.11017 56.093689 
L 46.784777 56.245267 
L 48.681842 56.612272 
L 54.319514 57.267583 
L 57.742551 57.493333 
L 61.634368 57.495111 
L 66.095273 57.254849 
L 71.272669 56.749702 
L 77.497749 55.929469 
L 77.497749 55.929469 
" style="fill:none;stroke:#000000;stroke-linecap:square;stroke-opacity:0.7;stroke-width:1.2;"/>
   </g>
   <g id="line2d_6">
    <path clip-path="url(#pa44d7d8612)" d="M 227.680592 235.172489 
L 226.333641 234.377017 
L 224.611114 233.594514 
L 222.453733 232.85036 
L 219.605724 232.162894 
L 216.915435 231.756057 
L 213.684832 231.518829 
L 210.34607 231.510281 
L 206.673167 231.726885 
L 202.577465 232.191125 
L 197.54923 233.012387 
L 194.221296 233.750077 
L 193.002079 234.154278 
L 192.306886 234.544513 
L 192.2171 234.782176 
L 192.468978 234.812103 
L 193.529256 234.62611 
L 194.041012 235.407306 
L 194.478834 235.769728 
L 195.637018 236.304333 
L 197.184699 236.666307 
L 199.228431 236.867964 
L 201.630796 236.847472 
L 203.808625 236.600222 
L 205.898134 236.094096 
L 207.800791 235.343718 
L 210.229234 234.331553 
L 211.612456 234.002444 
L 213.388843 233.842256 
L 215.427099 233.879502 
L 218.983856 234.19092 
L 226.10598 234.848955 
L 226.739081 234.853659 
L 226.739081 234.853659 
" style="fill:none;stroke:#000000;stroke-linecap:square;stroke-opacity:0.7;stroke-width:1.2;"/>
   </g>
   <g id="line2d_7">
    <path clip-path="url(#pa44d7d8612)" d="M 227.487378 190.687001 
L 225.99067 189.975831 
L 224.31436 189.358369 
L 221.664776 188.656186 
L 219.260197 188.242702 
L 216.342668 187.967168 
L 213.154049 187.893405 
L 209.316194 188.043477 
L 204.173223 188.494519 
L 196.087591 189.396711 
L 195.479933 189.668633 
L 194.694928 190.171647 
L 194.066929 189.882703 
L 194.087799 190.086414 
L 194.497084 190.387378 
L 195.8824 190.778497 
L 198.013942 191.03867 
L 201.10267 191.18993 
L 204.030549 191.123155 
L 209.199454 190.700468 
L 214.286362 190.394997 
L 219.759984 190.301107 
L 226.699607 190.319206 
L 226.699607 190.319206 
" style="fill:none;stroke:#000000;stroke-linecap:square;stroke-opacity:0.7;stroke-width:1.2;"/>
   </g>
   <g id="line2d_8">
    <path clip-path="url(#pa44d7d8612)" d="M 228.228348 145.251417 
L 226.652164 144.586793 
L 224.55859 143.93388 
L 221.777174 143.291957 
L 217.919663 142.632657 
L 211.575146 141.814244 
L 203.869714 141.023201 
L 201.368701 140.943118 
L 199.980003 141.073691 
L 198.850663 141.393892 
L 197.909192 141.907848 
L 196.618294 143.063419 
L 195.663385 144.268192 
L 195.411448 144.820232 
L 195.458908 147.274921 
L 195.727169 147.72177 
L 196.557479 148.37078 
L 197.791961 148.876814 
L 200.343493 149.384743 
L 202.719804 149.484 
L 204.679483 149.304712 
L 206.84085 148.860577 
L 214.03085 147.180596 
L 219.362738 146.250066 
L 227.431605 144.976722 
L 227.431605 144.976722 
" style="fill:none;stroke:#000000;stroke-linecap:square;stroke-opacity:0.7;stroke-width:1.2;"/>
   </g>
   <g id="line2d_9">
    <path clip-path="url(#pa44d7d8612)" d="M 227.564138 100.957734 
L 225.593324 100.158679 
L 223.166108 99.456783 
L 221.20682 99.070759 
L 218.306127 98.725025 
L 215.056333 98.580043 
L 210.602432 98.666145 
L 203.954076 99.082561 
L 198.769047 99.310962 
L 196.728388 99.454519 
L 196.298871 99.745271 
L 195.903301 100.354453 
L 195.398205 101.794392 
L 195.557323 102.015237 
L 196.091601 102.258184 
L 197.743526 102.577295 
L 202.832891 103.201102 
L 205.407727 103.342773 
L 207.73639 103.2776 
L 211.502632 102.905435 
L 217.422496 102.042175 
L 225.443163 100.642499 
L 226.65627 100.410969 
L 226.65627 100.410969 
" style="fill:none;stroke:#000000;stroke-linecap:square;stroke-opacity:0.7;stroke-width:1.2;"/>
   </g>
   <g id="line2d_10">
    <path clip-path="url(#pa44d7d8612)" d="M 227.707474 56.604973 
L 226.226209 55.868493 
L 224.942228 55.368134 
L 222.301699 54.611005 
L 219.79245 54.133799 
L 216.73692 53.776844 
L 212.978289 53.573645 
L 208.412555 53.550836 
L 202.343597 53.739063 
L 198.506922 54.030728 
L 196.58246 54.363124 
L 195.316603 54.782066 
L 194.405119 55.314403 
L 193.727835 56.037991 
L 193.570694 56.405887 
L 193.666998 55.943749 
L 193.741204 55.514722 
L 194.791117 55.674992 
L 196.809079 55.804836 
L 199.333765 55.766351 
L 202.016315 55.497863 
L 204.959941 54.933954 
L 208.206221 54.328836 
L 210.522269 54.104301 
L 213.739998 54.101416 
L 216.779877 54.352378 
L 220.967086 54.950632 
L 226.782322 55.920449 
L 226.782322 55.920449 
" style="fill:none;stroke:#000000;stroke-linecap:square;stroke-opacity:0.7;stroke-width:1.2;"/>
   </g>
   <g id="line2d_11">
    <path clip-path="url(#pa44d7d8612)" d="M 377.444578 234.380605 
L 376.463107 233.711675 
L 374.745247 232.810311 
L 372.168659 231.757264 
L 368.884893 230.699901 
L 365.135507 229.7362 
L 361.130178 228.920449 
L 357.092257 228.318464 
L 353.8051 228.052746 
L 351.334811 228.078766 
L 349.464734 228.328719 
L 348.162922 228.700809 
L 346.952043 229.279 
L 346.143697 229.843814 
L 345.077497 230.883479 
L 344.058697 232.231274 
L 342.587876 234.382729 
L 342.294758 234.308657 
L 342.082448 234.195012 
L 341.883208 234.348155 
L 341.826806 234.689236 
L 342.038807 235.298456 
L 342.283079 235.616192 
L 343.460279 236.436286 
L 344.818279 236.929535 
L 346.158318 237.215627 
L 348.705821 237.438875 
L 351.094524 237.363848 
L 353.491102 237.073855 
L 362.601819 235.767636 
L 369.566966 235.142624 
L 376.332682 234.522611 
L 376.332682 234.522611 
" style="fill:none;stroke:#000000;stroke-linecap:square;stroke-opacity:0.7;stroke-width:1.2;"/>
   </g>
   <g id="line2d_12">
    <path clip-path="url(#pa44d7d8612)" d="M 377.278598 190.59671 
L 375.406286 189.673286 
L 372.982394 188.722117 
L 370.005165 187.819181 
L 366.710983 187.076542 
L 363.268728 186.53314 
L 359.740659 186.192904 
L 356.148755 186.068383 
L 353.003981 186.17149 
L 350.228372 186.484231 
L 347.885513 186.979154 
L 346.457262 187.424576 
L 344.63796 188.226902 
L 342.933337 189.236567 
L 342.659645 189.044129 
L 342.458305 189.278243 
L 342.462721 189.502307 
L 342.609387 189.837877 
L 342.906991 190.16265 
L 343.964836 190.733811 
L 344.983041 191.009494 
L 346.516959 191.196898 
L 348.628985 191.161262 
L 350.413837 190.90289 
L 352.354316 190.379701 
L 354.489073 189.545629 
L 357.733593 188.251103 
L 359.537765 187.799245 
L 361.477935 187.577107 
L 363.490561 187.584875 
L 366.253103 187.875676 
L 369.725403 188.518823 
L 376.091964 189.877622 
L 376.091964 189.877622 
" style="fill:none;stroke:#000000;stroke-linecap:square;stroke-opacity:0.7;stroke-width:1.2;"/>
   </g>
   <g id="line2d_13">
    <path clip-path="url(#pa44d7d8612)" d="M 376.900875 145.201656 
L 375.736303 144.53735 
L 373.716055 143.670952 
L 371.111903 142.830635 
L 367.980271 142.063563 
L 363.634121 141.275198 
L 359.071714 140.686055 
L 354.777599 140.339252 
L 351.615861 140.282012 
L 349.283565 140.465074 
L 347.816897 140.786305 
L 346.72407 141.226662 
L 345.908009 141.749107 
L 344.974403 142.680512 
L 344.215333 143.803262 
L 343.102286 145.655466 
L 342.968035 145.617578 
L 342.544767 145.364528 
L 342.520545 145.527381 
L 342.718906 145.68317 
L 343.377443 145.88561 
L 345.244833 146.087211 
L 355.858932 146.750176 
L 360.172025 146.586094 
L 365.44149 146.16674 
L 372.558941 145.357626 
L 375.827659 144.887331 
L 375.827659 144.887331 
" style="fill:none;stroke:#000000;stroke-linecap:square;stroke-opacity:0.7;stroke-width:1.2;"/>
   </g>
   <g id="line2d_14">
    <path clip-path="url(#pa44d7d8612)" d="M 377.242637 100.962478 
L 375.713171 100.254584 
L 373.539659 99.467109 
L 370.503515 98.649809 
L 366.972966 97.967655 
L 363.049124 97.436032 
L 358.31942 97.023488 
L 353.680431 96.843235 
L 350.4039 96.932549 
L 348.10638 97.246761 
L 346.695817 97.658049 
L 345.796342 98.066945 
L 344.693739 98.798121 
L 343.582198 99.896973 
L 343.257307 100.15167 
L 343.194309 100.084282 
L 343.700322 100.661791 
L 344.637207 100.952583 
L 345.953227 101.080556 
L 347.917782 101.014116 
L 350.048039 100.703699 
L 352.631463 100.066114 
L 356.692393 98.996527 
L 359.174786 98.602842 
L 361.579729 98.460899 
L 364.404883 98.551041 
L 367.598975 98.901954 
L 371.92231 99.636272 
L 376.485154 100.471746 
L 376.485154 100.471746 
" style="fill:none;stroke:#000000;stroke-linecap:square;stroke-opacity:0.7;stroke-width:1.2;"/>
   </g>
   <g id="line2d_15">
    <path clip-path="url(#pa44d7d8612)" d="M 377.651891 56.299406 
L 376.613201 55.784061 
L 374.899575 55.18252 
L 372.59102 54.595133 
L 368.915476 53.886797 
L 361.164062 52.701436 
L 355.332449 51.983023 
L 352.6085 51.826416 
L 351.034262 51.881553 
L 349.39737 52.159495 
L 348.12687 52.626215 
L 347.406428 53.023306 
L 345.899334 54.191265 
L 344.02766 55.818951 
L 343.872463 55.957649 
L 343.883358 56.235664 
L 344.098811 56.714314 
L 344.585664 57.10253 
L 345.289925 57.386616 
L 346.981711 57.727304 
L 349.642107 57.957779 
L 352.365331 57.988447 
L 355.617901 57.799936 
L 364.904124 56.901653 
L 376.841125 55.743007 
L 376.841125 55.743007 
" style="fill:none;stroke:#000000;stroke-linecap:square;stroke-opacity:0.7;stroke-width:1.2;"/>
   </g>
   <g id="line2d_16">
    <path clip-path="url(#pa44d7d8612)" d="M 526.267885 235.286356 
L 525.029119 234.727625 
L 522.891782 234.02991 
L 519.180933 233.110943 
L 509.603976 231.088371 
L 504.251773 230.06766 
L 502.041924 229.842313 
L 500.324925 229.892734 
L 498.881816 230.195497 
L 497.931132 230.573016 
L 496.88098 231.186413 
L 495.615973 232.228012 
L 494.633108 233.289544 
L 493.801781 234.407223 
L 493.256846 235.433794 
L 493.641943 234.879437 
L 494.853581 234.934415 
L 499.61605 235.275756 
L 503.310873 235.241145 
L 524.141066 234.690968 
L 525.433959 234.68753 
L 525.433959 234.68753 
" style="fill:none;stroke:#000000;stroke-linecap:square;stroke-opacity:0.7;stroke-width:1.2;"/>
   </g>
   <g id="line2d_17">
    <path clip-path="url(#pa44d7d8612)" d="M 526.151957 190.521945 
L 524.729785 189.896673 
L 523.164646 189.402782 
L 520.632373 188.86408 
L 517.640409 188.474031 
L 513.110325 188.150225 
L 504.725473 187.841779 
L 498.302023 187.745401 
L 496.329267 187.900076 
L 494.956267 188.213916 
L 494.057929 188.63277 
L 493.592377 188.987337 
L 492.932478 189.942221 
L 492.84877 190.227569 
L 492.884945 190.797365 
L 493.071347 190.92554 
L 493.408371 190.810011 
L 495.385329 189.316459 
L 496.190193 189.120083 
L 497.311035 189.118223 
L 505.364371 189.721711 
L 516.729853 189.921129 
L 525.279151 190.098477 
L 525.279151 190.098477 
" style="fill:none;stroke:#000000;stroke-linecap:square;stroke-opacity:0.7;stroke-width:1.2;"/>
   </g>
   <g id="line2d_18">
    <path clip-path="url(#pa44d7d8612)" d="M 525.889988 145.910822 
L 524.25077 145.162168 
L 522.612941 144.597369 
L 520.311525 144.034701 
L 517.701254 143.63949 
L 514.55626 143.409755 
L 510.606608 143.37171 
L 495.906218 143.703445 
L 495.141126 143.857329 
L 494.513068 144.157014 
L 493.94619 144.785956 
L 493.474103 145.85175 
L 493.412976 145.753529 
L 493.34362 145.338668 
L 493.520147 145.031561 
L 494.068846 144.768785 
L 495.085514 144.583772 
L 496.695022 144.565856 
L 504.508216 144.787402 
L 514.34411 144.902594 
L 521.400662 145.24582 
L 525.039219 145.457898 
L 525.039219 145.457898 
" style="fill:none;stroke:#000000;stroke-linecap:square;stroke-opacity:0.7;stroke-width:1.2;"/>
   </g>
   <g id="line2d_19">
    <path clip-path="url(#pa44d7d8612)" d="M 526.511405 101.100259 
L 524.789756 100.385013 
L 522.578338 99.726247 
L 519.511711 99.08665 
L 515.485844 98.514572 
L 509.818322 97.971649 
L 502.151658 97.469805 
L 499.343616 97.456629 
L 497.993063 97.630501 
L 497.201843 97.897783 
L 496.65271 98.234696 
L 495.665649 99.240774 
L 494.517256 100.648636 
L 494.536281 101.124444 
L 494.706423 101.337823 
L 495.845096 101.219536 
L 497.41294 101.175867 
L 505.257719 101.281703 
L 514.072175 100.89424 
L 525.49897 100.489916 
L 525.49897 100.489916 
" style="fill:none;stroke:#000000;stroke-linecap:square;stroke-opacity:0.7;stroke-width:1.2;"/>
   </g>
   <g id="line2d_20">
    <path clip-path="url(#pa44d7d8612)" d="M 526.191687 55.750137 
L 524.760151 55.037689 
L 522.686296 54.273251 
L 519.955661 53.510067 
L 515.832586 52.623656 
L 510.089319 51.644286 
L 504.128367 50.830928 
L 500.705771 50.563892 
L 498.838324 50.612207 
L 497.435627 50.884876 
L 496.442306 51.35545 
L 495.622493 52.110912 
L 494.993855 53.074592 
L 493.245632 56.358067 
L 492.870446 56.862513 
L 492.944645 57.181049 
L 493.296494 57.484418 
L 494.239689 57.9003 
L 496.084585 58.415076 
L 498.902544 58.952778 
L 501.637871 59.187224 
L 504.068007 59.12733 
L 507.69038 58.764795 
L 513.641924 57.873004 
L 520.61472 56.582747 
L 525.374447 55.586573 
L 525.374447 55.586573 
" style="fill:none;stroke:#000000;stroke-linecap:square;stroke-opacity:0.7;stroke-width:1.2;"/>
   </g>
   <g id="line2d_21">
    <path clip-path="url(#pa44d7d8612)" d="M 675.06591 235.311241 
L 673.501962 234.494143 
L 671.347362 233.642797 
L 668.702204 232.888465 
L 665.824628 232.340913 
L 662.522884 231.99171 
L 659.203398 231.888584 
L 655.503968 232.016452 
L 651.457754 232.39201 
L 646.616339 233.081671 
L 643.690024 233.658294 
L 641.962432 234.238432 
L 641.377635 234.680613 
L 641.472349 234.771712 
L 642.148274 234.714779 
L 642.552146 235.085281 
L 643.030822 235.549327 
L 643.732868 235.939294 
L 644.716866 236.216243 
L 646.302595 236.392097 
L 649.078804 236.396893 
L 652.642631 236.163513 
L 661.343104 235.44719 
L 670.001036 235.195906 
L 674.08436 234.982392 
L 674.08436 234.982392 
" style="fill:none;stroke:#000000;stroke-linecap:square;stroke-opacity:0.7;stroke-width:1.2;"/>
   </g>
   <g id="line2d_22">
    <path clip-path="url(#pa44d7d8612)" d="M 675.155546 190.710693 
L 672.96212 189.888727 
L 670.165076 189.132559 
L 667.527945 188.644362 
L 663.988255 188.239989 
L 659.918992 188.026386 
L 653.781308 187.967857 
L 644.904118 188.011786 
L 644.013341 188.170012 
L 643.110105 188.529606 
L 642.650743 188.983438 
L 642.625688 189.234283 
L 642.780105 189.771439 
L 642.914237 191.201928 
L 643.160093 191.671089 
L 643.784189 192.261334 
L 644.911005 192.825325 
L 646.485637 193.272558 
L 648.605792 193.593457 
L 651.188741 193.681093 
L 653.155612 193.490776 
L 654.809277 193.091223 
L 657.496699 192.099014 
L 659.43391 191.503951 
L 661.666689 191.064349 
L 664.687251 190.726991 
L 670.067996 190.399172 
L 674.321157 190.138777 
L 674.321157 190.138777 
" style="fill:none;stroke:#000000;stroke-linecap:square;stroke-opacity:0.7;stroke-width:1.2;"/>
   </g>
   <g id="line2d_23">
    <path clip-path="url(#pa44d7d8612)" d="M 675.490909 146.052721 
L 673.942151 145.311593 
L 671.587163 144.466079 
L 668.85324 143.734101 
L 664.775276 142.935661 
L 659.846528 142.240461 
L 654.339341 141.67831 
L 650.943929 141.496852 
L 649.146178 141.527117 
L 647.337393 141.729002 
L 645.682842 142.143653 
L 644.21445 142.764575 
L 642.997099 143.528616 
L 642.010577 144.440451 
L 641.610435 145.122783 
L 641.661804 145.210163 
L 641.828164 145.741127 
L 642.202527 146.145294 
L 642.995217 146.55942 
L 644.382346 146.896205 
L 646.280864 147.05364 
L 648.491367 146.976643 
L 650.518692 146.679073 
L 653.273969 145.999785 
L 656.511693 145.235902 
L 659.167562 144.864887 
L 661.922523 144.711268 
L 665.536623 144.760098 
L 670.561981 145.079147 
L 674.53558 145.335467 
L 674.53558 145.335467 
" style="fill:none;stroke:#000000;stroke-linecap:square;stroke-opacity:0.7;stroke-width:1.2;"/>
   </g>
   <g id="line2d_24">
    <path clip-path="url(#pa44d7d8612)" d="M 675.225058 101.564006 
L 673.674914 100.922513 
L 671.318625 100.221051 
L 668.693736 99.646654 
L 664.595164 98.990928 
L 658.079819 98.21842 
L 650.452895 97.469595 
L 648.355605 97.417365 
L 646.520208 97.550325 
L 645.148506 97.835586 
L 643.835494 98.366167 
L 643.610689 98.496894 
L 642.521551 99.473723 
L 642.13303 100.354543 
L 642.341387 101.078136 
L 642.523122 101.190986 
L 643.052686 101.2539 
L 644.053901 101.194427 
L 645.563828 101.385765 
L 649.83228 101.596265 
L 654.183019 101.598591 
L 675.051157 101.281086 
L 675.051157 101.281086 
" style="fill:none;stroke:#000000;stroke-linecap:square;stroke-opacity:0.7;stroke-width:1.2;"/>
   </g>
   <g id="line2d_25">
    <path clip-path="url(#pa44d7d8612)" d="M 675.180448 56.145997 
L 673.881679 55.391128 
L 672.053921 54.589462 
L 670.025242 53.932314 
L 667.538901 53.368018 
L 665.56669 53.066694 
L 662.268687 52.786489 
L 658.56518 52.728178 
L 654.589211 52.891011 
L 650.244757 53.278338 
L 646.451364 53.805347 
L 643.988239 54.340148 
L 642.502913 54.886556 
L 641.531593 55.297936 
L 641.340195 55.16546 
L 641.182026 55.210512 
L 640.853674 55.590461 
L 640.823164 56.327973 
L 641.193021 56.880324 
L 641.993665 57.434024 
L 643.115997 57.88462 
L 644.726524 58.27968 
L 646.870171 58.563117 
L 649.279628 58.638188 
L 651.589851 58.443492 
L 653.399982 58.058847 
L 659.376209 56.47153 
L 661.784981 56.192107 
L 665.410052 56.014273 
L 674.285531 55.729333 
L 674.285531 55.729333 
" style="fill:none;stroke:#000000;stroke-linecap:square;stroke-opacity:0.7;stroke-width:1.2;"/>
   </g>
  </g>
 </g>
 <defs>
  <clipPath id="pa44d7d8612">
   <rect height="262.08" width="694.08" x="12.96" y="12.96"/>
  </clipPath>
 </defs>
</svg>
