<?xml version="1.0" encoding="utf-8" standalone="no"?>
<!DOCTYPE svg PUBLIC "-//W3C//DTD SVG 1.1//EN"
  "http://www.w3.org/Graphics/SVG/1.1/DTD/svg11.dtd">
<!-- Created with matplotlib (https://matplotlib.org/) -->
<svg height="288pt" version="1.1" viewBox="0 0 720 288" width="720pt" xmlns="http://www.w3.org/2000/svg" xmlns:xlink="http://www.w3.org/1999/xlink">
 <defs>
  <style type="text/css">
*{stroke-linecap:butt;stroke-linejoin:round;}
  </style>
 </defs>
 <g id="figure_1">
  <g id="patch_1">
   <path d="M 0 288 
L 720 288 
L 720 0 
L 0 0 
z
" style="fill:#ffffff;"/>
  </g>
  <g id="axes_1">
   <g id="line2d_1">
    <path clip-path="url(#p06eb02097f)" d="M 140.097356 227.092281 
L 133.983658 226.037725 
L 108.129015 221.389696 
L 102.696602 220.67404 
L 97.468103 220.174462 
L 92.231004 219.87018 
L 85.014334 219.747719 
L 77.623053 219.941319 
L 71.250566 220.361153 
L 66.277591 220.870911 
L 60.731304 221.677107 
L 56.795285 222.454114 
L 53.635037 223.248583 
L 50.263893 224.323127 
L 47.154838 225.585533 
L 45.812431 226.244532 
L 44.866796 226.846332 
L 44.526412 227.302695 
L 44.527455 227.584281 
L 44.827227 228.032476 
L 45.346908 228.402447 
L 46.138984 228.736584 
L 47.69651 229.063315 
L 50.696912 229.325351 
L 65.748527 230.256957 
L 71.167662 230.353922 
L 76.001545 230.248455 
L 81.353939 229.909546 
L 85.788818 229.482044 
L 107.731847 227.126488 
L 115.169699 226.659467 
L 122.685989 226.440114 
L 129.160089 226.476814 
L 135.031929 226.719452 
L 140.112664 227.123631 
L 140.112664 227.123631 
" style="fill:none;stroke:#000000;stroke-linecap:square;stroke-opacity:0.7;stroke-width:1.2;"/>
   </g>
   <g id="line2d_2">
    <path clip-path="url(#p06eb02097f)" d="M 140.192756 187.158666 
L 131.564341 184.769524 
L 109.067517 178.507147 
L 102.81674 176.984 
L 96.93826 175.789756 
L 91.862806 175.014236 
L 87.374874 174.557192 
L 83.267574 174.340017 
L 80.04423 174.310814 
L 75.394219 174.502573 
L 71.783889 174.860478 
L 68.046011 175.450294 
L 64.530752 176.240743 
L 61.100843 177.271158 
L 57.941263 178.484616 
L 55.229491 179.753294 
L 52.117082 181.485275 
L 49.631659 183.130514 
L 48.340793 184.291095 
L 47.961946 184.830776 
L 47.608987 185.885632 
L 47.625232 186.931048 
L 47.849078 187.769626 
L 48.335849 188.645254 
L 49.077145 189.362243 
L 49.405686 189.583264 
L 50.89796 190.306917 
L 53.396328 191.165596 
L 56.157595 191.933818 
L 60.53682 192.914719 
L 64.858943 193.629064 
L 68.326505 194.018255 
L 72.880971 194.271684 
L 77.677322 194.221968 
L 82.466472 193.877401 
L 86.662613 193.383484 
L 94.222554 192.225151 
L 110.556288 189.612265 
L 118.86766 188.560768 
L 124.837784 187.97589 
L 132.342487 187.473752 
L 139.008515 187.285208 
L 140.13127 187.275368 
L 140.13127 187.275368 
" style="fill:none;stroke:#000000;stroke-linecap:square;stroke-opacity:0.7;stroke-width:1.2;"/>
   </g>
   <g id="line2d_3">
    <path clip-path="url(#p06eb02097f)" d="M 140.050961 147.037149 
L 134.262046 145.858305 
L 103.316727 139.335949 
L 97.553594 138.441174 
L 92.418488 137.849449 
L 86.704586 137.449351 
L 81.975695 137.336483 
L 76.903913 137.449619 
L 72.769772 137.739086 
L 68.162754 138.302982 
L 65.183332 138.827376 
L 60.620423 139.930602 
L 57.315632 141.009015 
L 53.491996 142.618697 
L 50.698938 144.073409 
L 48.271438 145.585783 
L 47.433488 146.270032 
L 46.944579 146.977423 
L 46.89601 147.38751 
L 47.157022 147.980054 
L 47.740658 148.458972 
L 48.588709 148.789795 
L 50.111717 149.008229 
L 54.45266 149.13377 
L 63.253317 149.497006 
L 70.888118 149.689186 
L 76.932234 149.641656 
L 86.145027 149.320212 
L 112.195481 148.292525 
L 136.970516 147.354258 
L 140.034103 147.181416 
L 140.034103 147.181416 
" style="fill:none;stroke:#000000;stroke-linecap:square;stroke-opacity:0.7;stroke-width:1.2;"/>
   </g>
   <g id="line2d_4">
    <path clip-path="url(#p06eb02097f)" d="M 140.109059 107.108567 
L 132.764986 106.64658 
L 120.029759 105.605643 
L 92.049907 103.213599 
L 85.005975 102.879575 
L 78.289701 102.75786 
L 72.234929 102.849285 
L 66.737638 103.140588 
L 62.143745 103.578462 
L 57.563507 104.240066 
L 53.504284 105.057057 
L 49.074675 106.244275 
L 47.503066 106.85607 
L 47.147683 107.256969 
L 47.200276 107.482728 
L 47.554994 107.862131 
L 48.174847 108.23597 
L 49.250702 108.595937 
L 50.55808 108.785517 
L 54.733342 109.02754 
L 69.320476 109.725741 
L 75.780574 109.7887 
L 81.606422 109.651184 
L 89.921865 109.181378 
L 120.000573 107.139663 
L 128.318894 106.923966 
L 134.151977 106.955886 
L 140.095449 107.216096 
L 140.095449 107.216096 
" style="fill:none;stroke:#000000;stroke-linecap:square;stroke-opacity:0.7;stroke-width:1.2;"/>
   </g>
   <g id="line2d_5">
    <path clip-path="url(#p06eb02097f)" d="M 140.086241 66.391484 
L 134.109155 65.050988 
L 109.812228 59.435198 
L 102.79098 58.109475 
L 96.989239 57.255843 
L 91.895775 56.73289 
L 87.376399 56.464278 
L 82.670024 56.389127 
L 77.109863 56.5818 
L 72.307246 57.013049 
L 68.363643 57.573492 
L 65.423926 58.129437 
L 61.522617 59.078629 
L 57.696364 60.282536 
L 54.251336 61.627234 
L 50.714155 63.256137 
L 45.702941 65.855641 
L 45.013065 66.369628 
L 44.785851 66.802056 
L 44.785462 66.900219 
L 45.034873 67.399773 
L 45.682876 67.911848 
L 46.373004 68.236679 
L 47.715402 68.568075 
L 48.715202 68.669104 
L 53.248212 68.729019 
L 67.055602 68.701326 
L 73.91262 68.400234 
L 82.549069 67.735634 
L 95.200813 66.756578 
L 103.20498 66.356325 
L 112.153029 66.12695 
L 121.135618 66.101508 
L 131.684179 66.307141 
L 140.054516 66.635615 
L 140.054516 66.635615 
" style="fill:none;stroke:#000000;stroke-linecap:square;stroke-opacity:0.7;stroke-width:1.2;"/>
   </g>
   <g id="line2d_6">
    <path clip-path="url(#p06eb02097f)" d="M 273.90604 227.439942 
L 266.421449 226.924594 
L 252.907986 225.749183 
L 236.491088 224.340121 
L 229.067779 223.909797 
L 220.57658 223.636001 
L 212.608974 223.575847 
L 204.482096 223.725981 
L 197.65437 224.064189 
L 191.352658 224.614958 
L 186.060289 225.311311 
L 182.129595 226.054804 
L 180.573667 226.573236 
L 180.173307 226.810726 
L 179.789327 227.276938 
L 179.791499 227.819246 
L 180.100017 228.330806 
L 180.564167 228.757768 
L 181.489215 229.29118 
L 182.805884 229.731744 
L 184.368322 230.039601 
L 193.380106 231.249606 
L 199.597635 231.922233 
L 204.942524 232.28325 
L 210.110934 232.390975 
L 216.392164 232.184717 
L 222.118621 231.718396 
L 229.98659 230.813001 
L 248.245635 228.61073 
L 256.682913 227.864899 
L 263.43565 227.489228 
L 268.630416 227.386549 
L 273.922407 227.516681 
L 273.922407 227.516681 
" style="fill:none;stroke:#000000;stroke-linecap:square;stroke-opacity:0.7;stroke-width:1.2;"/>
   </g>
   <g id="line2d_7">
    <path clip-path="url(#p06eb02097f)" d="M 273.910749 187.369139 
L 270.506075 186.738573 
L 259.131212 184.337705 
L 243.948784 181.145623 
L 236.947922 179.859289 
L 230.224846 178.844234 
L 223.817416 178.13479 
L 219.415281 177.810923 
L 215.246591 177.635683 
L 209.281607 177.626446 
L 205.429375 177.790352 
L 201.312248 178.139548 
L 197.008148 178.738468 
L 193.458048 179.458368 
L 190.254435 180.328706 
L 186.981582 181.483735 
L 184.993619 182.337926 
L 182.157716 183.781857 
L 179.921381 185.161893 
L 179.00161 185.880324 
L 178.371217 186.6446 
L 178.213105 187.226889 
L 178.317152 187.775983 
L 178.59566 188.253264 
L 179.137638 188.787559 
L 179.893555 189.254509 
L 181.488193 189.819261 
L 183.022342 190.143638 
L 187.608244 190.817714 
L 194.380802 191.595631 
L 200.930544 192.094399 
L 205.54177 192.266258 
L 211.662996 192.259521 
L 218.40293 191.995186 
L 230.124323 191.230658 
L 260.154069 189.000027 
L 269.691367 188.059906 
L 273.863008 187.542379 
L 273.863008 187.542379 
" style="fill:none;stroke:#000000;stroke-linecap:square;stroke-opacity:0.7;stroke-width:1.2;"/>
   </g>
   <g id="line2d_8">
    <path clip-path="url(#p06eb02097f)" d="M 273.909817 147.566422 
L 268.677532 147.292782 
L 259.86438 146.621334 
L 246.878604 145.384024 
L 220.548354 142.750579 
L 213.503953 142.308819 
L 207.359872 142.115016 
L 202.124764 142.147181 
L 197.75734 142.365784 
L 193.002368 142.875692 
L 189.002535 143.594577 
L 185.388558 144.526426 
L 182.276531 145.594299 
L 180.938613 146.209521 
L 180.161926 146.771589 
L 179.93845 147.093006 
L 179.899607 147.698184 
L 180.081777 148.051122 
L 180.425483 148.396991 
L 181.327864 148.862066 
L 182.09667 149.070036 
L 183.893555 149.326911 
L 188.365431 149.658522 
L 197.534181 150.130566 
L 204.873511 150.294621 
L 212.662279 150.224461 
L 221.336295 149.916259 
L 272.571314 147.700561 
L 273.869108 147.668491 
L 273.869108 147.668491 
" style="fill:none;stroke:#000000;stroke-linecap:square;stroke-opacity:0.7;stroke-width:1.2;"/>
   </g>
   <g id="line2d_9">
    <path clip-path="url(#p06eb02097f)" d="M 273.952741 106.686549 
L 268.547383 105.753111 
L 254.125139 102.915882 
L 244.455873 101.121601 
L 238.150788 100.176411 
L 232.790829 99.59771 
L 228.22941 99.290432 
L 224.890474 99.172133 
L 218.371438 99.182201 
L 212.28152 99.458619 
L 206.309112 99.976479 
L 200.567053 100.728899 
L 195.801522 101.582817 
L 191.573517 102.556962 
L 186.461193 104.03865 
L 182.809025 105.276372 
L 181.47788 105.89723 
L 181.226258 106.085009 
L 180.926712 106.466082 
L 180.86436 107.051933 
L 181.082123 107.598366 
L 181.604681 108.23554 
L 182.406762 108.784491 
L 183.336861 109.122172 
L 184.86115 109.396313 
L 191.119117 110.082907 
L 197.714903 110.649725 
L 201.900521 110.833969 
L 207.083239 110.819938 
L 211.820711 110.568686 
L 214.746904 110.314254 
L 223.770345 109.237666 
L 236.498675 107.659588 
L 244.696009 106.910244 
L 250.22481 106.56828 
L 257.458316 106.336018 
L 264.567287 106.361349 
L 270.187207 106.580092 
L 273.884537 106.834129 
L 273.884537 106.834129 
" style="fill:none;stroke:#000000;stroke-linecap:square;stroke-opacity:0.7;stroke-width:1.2;"/>
   </g>
   <g id="line2d_10">
    <path clip-path="url(#p06eb02097f)" d="M 273.968151 66.487143 
L 269.081859 65.520675 
L 244.010907 60.30463 
L 237.54442 59.330138 
L 231.937354 58.750265 
L 226.984603 58.460352 
L 222.133319 58.371736 
L 216.304779 58.50257 
L 211.67542 58.780685 
L 206.103056 59.319686 
L 200.316847 60.137473 
L 195.329655 61.09832 
L 191.39812 62.070173 
L 187.292273 63.337742 
L 183.235251 64.852296 
L 180.638105 66.029128 
L 180.207587 66.43488 
L 180.140584 66.793291 
L 180.263857 67.096593 
L 180.814195 67.651951 
L 181.749568 68.193783 
L 182.744609 68.582465 
L 185.131307 69.213908 
L 191.249335 70.456611 
L 197.949205 71.602618 
L 202.903264 72.214108 
L 207.232151 72.52939 
L 211.751109 72.60565 
L 215.464863 72.465596 
L 220.548389 71.999759 
L 225.8211 71.260319 
L 236.115903 69.499443 
L 245.159951 68.042822 
L 252.191421 67.1379 
L 258.01538 66.592251 
L 263.25217 66.294534 
L 268.593286 66.231436 
L 272.859746 66.420927 
L 273.950655 66.510968 
L 273.950655 66.510968 
" style="fill:none;stroke:#000000;stroke-linecap:square;stroke-opacity:0.7;stroke-width:1.2;"/>
   </g>
   <g id="line2d_11">
    <path clip-path="url(#p06eb02097f)" d="M 407.7032 227.442345 
L 403.645526 226.810313 
L 393.298905 224.928882 
L 374.62221 221.492321 
L 367.926448 220.502429 
L 362.647662 219.913916 
L 356.935342 219.50113 
L 351.218562 219.327466 
L 348.613991 219.327438 
L 342.570969 219.522438 
L 337.09967 219.953679 
L 332.182686 220.586013 
L 327.743386 221.406732 
L 324.391577 222.224941 
L 320.291884 223.515172 
L 316.830749 224.888279 
L 313.653813 226.403974 
L 312.763808 226.958205 
L 312.310202 227.524539 
L 312.340338 227.890494 
L 312.705279 228.358948 
L 313.242731 228.710489 
L 314.04556 229.005823 
L 314.832985 229.154002 
L 316.800751 229.270607 
L 339.705801 229.526942 
L 347.342151 229.26394 
L 378.529386 227.8822 
L 392.75228 227.627652 
L 407.648606 227.584975 
L 407.648606 227.584975 
" style="fill:none;stroke:#000000;stroke-linecap:square;stroke-opacity:0.7;stroke-width:1.2;"/>
   </g>
   <g id="line2d_12">
    <path clip-path="url(#p06eb02097f)" d="M 407.721034 187.304723 
L 402.516435 186.294503 
L 374.347721 180.618309 
L 367.568937 179.595074 
L 361.921953 178.955777 
L 356.276207 178.527563 
L 351.038556 178.323002 
L 345.981389 178.30772 
L 340.604033 178.506567 
L 335.631786 178.923046 
L 331.587908 179.468366 
L 327.666294 180.227682 
L 324.387092 181.090949 
L 321.943127 181.908139 
L 319.081067 183.102477 
L 316.533074 184.433042 
L 314.455305 185.785863 
L 313.621184 186.528667 
L 313.342808 187.081689 
L 313.380984 187.359881 
L 313.706326 187.817819 
L 314.431906 188.343543 
L 315.521941 188.810846 
L 316.868326 189.114379 
L 319.110558 189.340329 
L 333.38861 190.242723 
L 339.40477 190.393501 
L 345.844437 190.33267 
L 355.369988 189.973842 
L 405.974382 187.601417 
L 407.665738 187.465502 
L 407.665738 187.465502 
" style="fill:none;stroke:#000000;stroke-linecap:square;stroke-opacity:0.7;stroke-width:1.2;"/>
   </g>
   <g id="line2d_13">
    <path clip-path="url(#p06eb02097f)" d="M 407.674684 147.479427 
L 399.095503 147.001306 
L 384.322481 145.938806 
L 368.232363 144.550731 
L 355.522136 143.495075 
L 347.031383 143.020115 
L 339.890218 142.861107 
L 334.519363 142.941614 
L 328.731871 143.290671 
L 324.714879 143.745725 
L 320.528811 144.466113 
L 316.926769 145.346174 
L 314.153282 146.259214 
L 312.696053 146.97697 
L 312.355375 147.323041 
L 312.311236 147.784278 
L 312.41042 147.975493 
L 313.05869 148.531598 
L 313.677112 148.806028 
L 314.889432 149.060585 
L 316.864367 149.167739 
L 346.852319 149.518758 
L 361.076735 149.158726 
L 398.46915 147.930975 
L 407.64345 147.491529 
L 407.64345 147.491529 
" style="fill:none;stroke:#000000;stroke-linecap:square;stroke-opacity:0.7;stroke-width:1.2;"/>
   </g>
   <g id="line2d_14">
    <path clip-path="url(#p06eb02097f)" d="M 407.780274 106.821334 
L 403.143873 105.634404 
L 387.970716 101.420318 
L 379.122533 99.05329 
L 372.843789 97.596836 
L 368.032139 96.702413 
L 364.255477 96.169643 
L 359.602145 95.73177 
L 354.650427 95.527427 
L 349.764895 95.580855 
L 344.99555 95.874251 
L 341.164073 96.287213 
L 337.357386 96.862679 
L 332.73379 97.798292 
L 329.253121 98.682264 
L 324.130975 100.25985 
L 320.3393 101.626711 
L 316.675555 103.168992 
L 314.989234 104.070216 
L 313.552338 105.18803 
L 313.019952 105.941454 
L 312.852803 106.520794 
L 312.887853 106.971025 
L 313.050651 107.327851 
L 313.51612 107.770802 
L 314.23051 108.115496 
L 315.323244 108.436871 
L 319.081448 109.192541 
L 327.924883 110.692253 
L 334.112335 111.506382 
L 339.743432 111.988312 
L 345.123884 112.181986 
L 349.83502 112.151479 
L 356.478926 111.881025 
L 368.358058 111.102234 
L 385.861156 109.748306 
L 395.319721 108.836539 
L 402.672261 107.908602 
L 407.778953 107.073696 
L 407.778953 107.073696 
" style="fill:none;stroke:#000000;stroke-linecap:square;stroke-opacity:0.7;stroke-width:1.2;"/>
   </g>
   <g id="line2d_15">
    <path clip-path="url(#p06eb02097f)" d="M 407.757998 66.53185 
L 401.701803 65.563904 
L 373.682368 60.891276 
L 367.651454 60.218647 
L 362.661869 59.850386 
L 357.060425 59.642446 
L 351.139012 59.636033 
L 344.0078 59.88432 
L 337.591669 60.334848 
L 332.452338 60.863034 
L 325.888866 61.802972 
L 320.720756 62.818791 
L 315.656451 64.125383 
L 312.661739 65.079045 
L 310.729093 65.869251 
L 310.343034 66.097018 
L 309.834075 66.625602 
L 309.775598 67.1114 
L 309.827468 67.287454 
L 310.385808 68.02409 
L 310.753926 68.306095 
L 311.977931 68.896202 
L 313.26832 69.236766 
L 316.665773 69.672548 
L 325.370157 70.323757 
L 332.463447 70.674532 
L 338.278152 70.739005 
L 344.251273 70.544467 
L 348.404442 70.26434 
L 357.609689 69.385072 
L 373.721922 67.780172 
L 383.989753 67.017443 
L 391.656905 66.635678 
L 399.391464 66.445047 
L 406.561424 66.485815 
L 407.765859 66.516679 
L 407.765859 66.516679 
" style="fill:none;stroke:#000000;stroke-linecap:square;stroke-opacity:0.7;stroke-width:1.2;"/>
   </g>
   <g id="line2d_16">
    <path clip-path="url(#p06eb02097f)" d="M 541.589672 227.335163 
L 537.468573 226.774636 
L 528.701509 225.338182 
L 508.254375 221.890612 
L 502.513156 221.167172 
L 496.441096 220.646627 
L 491.488749 220.420102 
L 486.605791 220.362333 
L 481.166436 220.481135 
L 474.547996 220.888241 
L 468.848694 221.498878 
L 464.118504 222.229735 
L 459.93959 223.077955 
L 455.010232 224.320228 
L 449.682689 225.894601 
L 448.38097 226.47744 
L 447.932961 226.826701 
L 447.70904 227.166889 
L 447.698202 227.701204 
L 447.965269 228.136442 
L 448.414706 228.496777 
L 449.478884 228.92223 
L 450.921221 229.167696 
L 455.883243 229.509303 
L 468.312907 230.158248 
L 474.371477 230.234736 
L 479.825237 230.096873 
L 486.557112 229.671452 
L 496.060321 228.794677 
L 508.729025 227.657536 
L 517.446401 227.115911 
L 524.808729 226.882644 
L 532.043741 226.909067 
L 537.585655 227.15702 
L 541.564991 227.504265 
L 541.564991 227.504265 
" style="fill:none;stroke:#000000;stroke-linecap:square;stroke-opacity:0.7;stroke-width:1.2;"/>
   </g>
   <g id="line2d_17">
    <path clip-path="url(#p06eb02097f)" d="M 541.542077 187.07273 
L 535.351196 185.652678 
L 507.304164 179.008137 
L 500.890835 177.820734 
L 495.378977 177.042385 
L 490.337887 176.557274 
L 486.137985 176.327408 
L 480.753575 176.274175 
L 476.440369 176.44061 
L 471.123817 176.934444 
L 467.084149 177.559496 
L 463.245842 178.395342 
L 460.328217 179.218423 
L 457.415687 180.228611 
L 454.377778 181.509197 
L 451.693088 182.85887 
L 449.655305 184.070055 
L 448.036162 185.328114 
L 447.668894 185.737261 
L 447.322229 186.296471 
L 447.153607 187.016571 
L 447.312377 187.752308 
L 447.865255 188.490856 
L 448.530555 188.957033 
L 449.315409 189.293371 
L 450.806051 189.655101 
L 456.04706 190.406126 
L 464.503581 191.537149 
L 469.277855 191.98116 
L 473.021635 192.184986 
L 477.930238 192.249176 
L 483.842297 192.057573 
L 491.852676 191.513079 
L 535.509058 187.976682 
L 541.513778 187.285867 
L 541.513778 187.285867 
" style="fill:none;stroke:#000000;stroke-linecap:square;stroke-opacity:0.7;stroke-width:1.2;"/>
   </g>
   <g id="line2d_18">
    <path clip-path="url(#p06eb02097f)" d="M 541.624913 146.943086 
L 531.148206 143.828591 
L 514.916071 139.068963 
L 506.573739 136.877879 
L 500.817092 135.596072 
L 496.421755 134.80047 
L 491.821008 134.17218 
L 487.024242 133.763464 
L 482.252823 133.624408 
L 477.71382 133.758557 
L 473.685958 134.117207 
L 469.422797 134.77547 
L 465.859925 135.579004 
L 462.980918 136.421184 
L 459.727257 137.604021 
L 456.426152 139.069862 
L 453.230162 140.737986 
L 450.354879 142.445322 
L 448.881072 143.466268 
L 447.846041 144.418023 
L 447.520343 144.846662 
L 447.158332 145.572018 
L 446.976923 146.706886 
L 447.076431 147.484328 
L 447.372788 148.270907 
L 448.01952 149.122988 
L 448.604755 149.579832 
L 449.606024 150.096437 
L 451.437657 150.712332 
L 454.560154 151.45071 
L 458.863235 152.216988 
L 463.673723 152.835177 
L 468.576248 153.210656 
L 472.455911 153.313691 
L 476.563283 153.230423 
L 481.561029 152.881119 
L 486.207938 152.364153 
L 494.792842 151.157113 
L 508.060596 149.298188 
L 515.887301 148.408534 
L 524.186134 147.694239 
L 532.297614 147.254008 
L 538.188335 147.118912 
L 541.588542 147.109539 
L 541.588542 147.109539 
" style="fill:none;stroke:#000000;stroke-linecap:square;stroke-opacity:0.7;stroke-width:1.2;"/>
   </g>
   <g id="line2d_19">
    <path clip-path="url(#p06eb02097f)" d="M 541.542964 106.71546 
L 536.900119 105.77726 
L 524.469895 102.99818 
L 509.451199 99.690678 
L 502.827271 98.431622 
L 497.56149 97.606119 
L 492.11442 96.963641 
L 485.944736 96.531705 
L 481.244186 96.431136 
L 476.304659 96.559051 
L 472.207418 96.871002 
L 468.259458 97.381037 
L 464.228469 98.163925 
L 460.635016 99.147718 
L 457.478905 100.29929 
L 454.303849 101.80333 
L 452.426832 102.895633 
L 450.599863 104.207706 
L 449.897241 104.928286 
L 449.575905 105.449012 
L 449.375297 106.500945 
L 449.584774 107.368415 
L 449.955367 107.967236 
L 450.613722 108.523216 
L 451.435077 108.88558 
L 452.480085 109.147505 
L 455.111525 109.529394 
L 460.43374 110.019803 
L 465.207546 110.277597 
L 470.019529 110.357905 
L 475.976861 110.206808 
L 482.095087 109.805814 
L 492.38816 108.846739 
L 504.393792 107.796354 
L 513.962082 107.208144 
L 523.100394 106.879954 
L 532.021223 106.783219 
L 540.962476 106.921789 
L 541.501936 106.937221 
L 541.501936 106.937221 
" style="fill:none;stroke:#000000;stroke-linecap:square;stroke-opacity:0.7;stroke-width:1.2;"/>
   </g>
   <g id="line2d_20">
    <path clip-path="url(#p06eb02097f)" d="M 541.622482 66.513354 
L 537.602526 65.491114 
L 511.847959 58.665559 
L 505.967275 57.438634 
L 501.270327 56.657488 
L 496.451525 56.071759 
L 491.371735 55.704834 
L 488.306003 55.608366 
L 482.453561 55.682069 
L 477.426438 56.015976 
L 472.602962 56.581581 
L 468.584958 57.252649 
L 464.766271 58.079651 
L 461.133108 59.058411 
L 456.87585 60.45344 
L 449.178407 63.284138 
L 447.873887 63.937829 
L 447.14222 64.637051 
L 446.860777 65.164395 
L 446.718581 65.684776 
L 446.696563 66.704443 
L 446.850338 67.475775 
L 447.089597 68.143744 
L 447.498328 68.920873 
L 448.311254 69.966694 
L 449.892697 71.289618 
L 451.59813 72.326443 
L 455.630777 74.296363 
L 459.779408 76.041315 
L 463.823768 77.526553 
L 467.777727 78.725681 
L 470.428333 79.35083 
L 473.635048 79.872158 
L 476.13128 80.077823 
L 478.063721 80.111973 
L 481.070012 79.957919 
L 484.557656 79.506907 
L 488.382407 78.761002 
L 494.272474 77.296168 
L 502.516685 74.957678 
L 514.990248 71.41549 
L 521.747081 69.714753 
L 527.271416 68.527178 
L 532.659438 67.596753 
L 536.97309 67.051314 
L 541.621308 66.700647 
L 541.621308 66.700647 
" style="fill:none;stroke:#000000;stroke-linecap:square;stroke-opacity:0.7;stroke-width:1.2;"/>
   </g>
   <g id="line2d_21">
    <path clip-path="url(#p06eb02097f)" d="M 675.34579 227.256293 
L 667.410963 225.171568 
L 642.980664 218.715037 
L 635.726274 217.042876 
L 630.513288 216.033206 
L 625.350646 215.256311 
L 621.463149 214.84644 
L 617.362762 214.597194 
L 612.929303 214.560809 
L 609.066187 214.748971 
L 606.343425 215.019241 
L 603.813254 215.383954 
L 600.33667 216.084773 
L 597.243282 216.927352 
L 594.831623 217.743797 
L 591.428387 219.154142 
L 589.104215 220.296913 
L 585.255806 222.498256 
L 581.770265 224.820727 
L 580.383299 225.916652 
L 579.406525 227.032764 
L 579.218033 227.553825 
L 579.278147 228.150896 
L 579.574775 228.64033 
L 580.23695 229.187584 
L 581.071555 229.583544 
L 582.205239 229.889258 
L 583.689208 230.084871 
L 587.683232 230.247476 
L 595.700225 230.304413 
L 602.428949 230.116325 
L 611.276935 229.597589 
L 623.218969 228.915489 
L 633.08069 228.5837 
L 651.66964 228.248283 
L 667.243569 227.890469 
L 675.304908 227.495884 
L 675.304908 227.495884 
" style="fill:none;stroke:#000000;stroke-linecap:square;stroke-opacity:0.7;stroke-width:1.2;"/>
   </g>
   <g id="line2d_22">
    <path clip-path="url(#p06eb02097f)" d="M 675.348081 187.348197 
L 670.02233 186.134057 
L 640.129271 178.999289 
L 633.920147 177.835409 
L 628.347474 177.021362 
L 623.568603 176.527857 
L 619.731125 176.279348 
L 614.512329 176.166182 
L 609.549075 176.320038 
L 605.621578 176.646035 
L 602.629934 177.033338 
L 598.976664 177.695068 
L 595.683099 178.497677 
L 592.255582 179.571107 
L 589.146525 180.772975 
L 585.477409 182.472091 
L 582.529366 184.097429 
L 580.910733 185.286435 
L 580.566519 185.646745 
L 580.174013 186.235105 
L 579.992744 186.779644 
L 580.017426 187.591345 
L 580.277094 188.229757 
L 580.636848 188.710119 
L 581.289497 189.249771 
L 582.589542 189.859768 
L 584.852188 190.489062 
L 588.963332 191.354808 
L 595.423622 192.467056 
L 600.796168 193.159483 
L 605.68171 193.571602 
L 610.998553 193.756196 
L 616.222973 193.670175 
L 622.109241 193.313668 
L 628.88515 192.695104 
L 657.473429 189.626448 
L 671.544702 187.997778 
L 675.307576 187.467209 
L 675.307576 187.467209 
" style="fill:none;stroke:#000000;stroke-linecap:square;stroke-opacity:0.7;stroke-width:1.2;"/>
   </g>
   <g id="line2d_23">
    <path clip-path="url(#p06eb02097f)" d="M 675.490909 146.401267 
L 662.561303 142.223797 
L 651.565556 138.831029 
L 644.794704 136.968186 
L 639.206184 135.659746 
L 634.258209 134.735676 
L 629.478747 134.086997 
L 625.641796 133.749337 
L 620.321175 133.551377 
L 616.37863 133.604369 
L 611.916866 133.86875 
L 606.314705 134.518438 
L 602.156505 135.24843 
L 597.743125 136.285781 
L 593.853847 137.459494 
L 590.434892 138.724088 
L 586.868581 140.302306 
L 582.178192 142.772654 
L 578.068882 145.25293 
L 577.325379 145.92636 
L 577.062733 146.491707 
L 577.12507 147.07901 
L 577.407311 147.610427 
L 578.152691 148.401345 
L 579.315568 149.177529 
L 580.676887 149.763154 
L 581.925953 150.134179 
L 585.658425 150.90493 
L 591.268 151.772925 
L 596.117592 152.286887 
L 600.06188 152.504993 
L 603.984212 152.518048 
L 608.322526 152.28545 
L 613.922978 151.64576 
L 620.905877 150.524854 
L 629.29372 149.114592 
L 637.638125 147.932808 
L 645.33445 147.1283 
L 652.188904 146.651103 
L 659.243957 146.38825 
L 665.508135 146.344916 
L 673.250721 146.542116 
L 675.453409 146.641441 
L 675.453409 146.641441 
" style="fill:none;stroke:#000000;stroke-linecap:square;stroke-opacity:0.7;stroke-width:1.2;"/>
   </g>
   <g id="line2d_24">
    <path clip-path="url(#p06eb02097f)" d="M 675.440424 106.493881 
L 670.86757 105.459118 
L 643.58887 98.999368 
L 638.519979 98.070116 
L 632.917913 97.271225 
L 627.959061 96.797527 
L 624.577642 96.607515 
L 621.364658 96.527746 
L 616.023557 96.612041 
L 610.678044 96.971183 
L 606.142774 97.503634 
L 601.810073 98.229382 
L 597.452551 99.20755 
L 593.374376 100.390271 
L 589.866691 101.64038 
L 585.345763 103.53057 
L 583.449652 104.452634 
L 582.744164 104.994234 
L 582.521359 105.328915 
L 582.410393 105.976475 
L 582.648553 106.899344 
L 583.163035 107.855361 
L 584.022592 108.957728 
L 584.841727 109.740116 
L 586.283669 110.739542 
L 587.513451 111.370613 
L 590.478275 112.559071 
L 594.058783 113.745233 
L 597.652155 114.752782 
L 601.238094 115.561859 
L 605.240911 116.191327 
L 608.150388 116.441151 
L 611.966866 116.484242 
L 614.789843 116.313551 
L 618.599944 115.846368 
L 622.708658 115.110671 
L 628.355348 113.864858 
L 645.548246 109.869691 
L 652.730462 108.512768 
L 658.37237 107.665816 
L 664.100196 107.03621 
L 669.427529 106.694391 
L 674.455342 106.639432 
L 675.380266 106.657719 
L 675.380266 106.657719 
" style="fill:none;stroke:#000000;stroke-linecap:square;stroke-opacity:0.7;stroke-width:1.2;"/>
   </g>
   <g id="line2d_25">
    <path clip-path="url(#p06eb02097f)" d="M 675.389378 66.762143 
L 670.537223 65.741325 
L 656.498683 62.482568 
L 645.749171 60.080709 
L 639.533705 58.879852 
L 633.757139 57.987962 
L 628.397889 57.410766 
L 623.44241 57.115607 
L 618.406242 57.058293 
L 613.572199 57.238031 
L 609.807 57.543961 
L 605.345218 58.109551 
L 602.177325 58.658782 
L 598.332446 59.512116 
L 595.836101 60.188648 
L 591.408353 61.650859 
L 586.967604 63.450771 
L 582.877533 65.344587 
L 581.739262 65.96827 
L 580.965399 66.61942 
L 580.800944 67.116273 
L 580.949126 67.570178 
L 581.389603 68.074018 
L 582.0782 68.559747 
L 583.115355 69.065095 
L 584.364393 69.51572 
L 588.402224 70.617877 
L 593.850347 71.861046 
L 599.415155 72.900249 
L 603.886831 73.529602 
L 608.020809 73.918416 
L 612.730816 74.10817 
L 617.166696 74.032405 
L 622.743845 73.622371 
L 628.800205 72.885459 
L 637.65534 71.529903 
L 653.882448 68.997385 
L 662.824971 67.854913 
L 669.768699 67.204198 
L 675.352356 66.886068 
L 675.352356 66.886068 
" style="fill:none;stroke:#000000;stroke-linecap:square;stroke-opacity:0.7;stroke-width:1.2;"/>
   </g>
  </g>
 </g>
 <defs>
  <clipPath id="p06eb02097f">
   <rect height="262.08" width="694.08" x="12.96" y="12.96"/>
  </clipPath>
 </defs>
</svg>
