<svg viewBox="0 0 1496 400" xmlns="http://www.w3.org/2000/svg"><g><g><g><g><g><line x1="50" y1="378" x2="45" y2="378" style="visibility: inherit;" fill="rgb(0, 0, 0)" stroke="rgb(204, 204, 204)" stroke-width="1px"></line><line x1="50" y1="340.2" x2="45" y2="340.2" style="visibility: inherit;" fill="rgb(0, 0, 0)" stroke="rgb(204, 204, 204)" stroke-width="1px"></line><line x1="50" y1="302.4" x2="45" y2="302.4" style="visibility: inherit;" fill="rgb(0, 0, 0)" stroke="rgb(204, 204, 204)" stroke-width="1px"></line><line x1="50" y1="264.59999999999997" x2="45" y2="264.59999999999997" style="visibility: inherit;" fill="rgb(0, 0, 0)" stroke="rgb(204, 204, 204)" stroke-width="1px"></line><line x1="50" y1="226.79999999999998" x2="45" y2="226.79999999999998" style="visibility: inherit;" fill="rgb(0, 0, 0)" stroke="rgb(204, 204, 204)" stroke-width="1px"></line><line x1="50" y1="189" x2="45" y2="189" style="visibility: inherit;" fill="rgb(0, 0, 0)" stroke="rgb(204, 204, 204)" stroke-width="1px"></line><line x1="50" y1="151.20000000000002" x2="45" y2="151.20000000000002" style="visibility: inherit;" fill="rgb(0, 0, 0)" stroke="rgb(204, 204, 204)" stroke-width="1px"></line><line x1="50" y1="113.40000000000003" x2="45" y2="113.40000000000003" style="visibility: inherit;" fill="rgb(0, 0, 0)" stroke="rgb(204, 204, 204)" stroke-width="1px"></line><line x1="50" y1="75.60000000000002" x2="45" y2="75.60000000000002" style="visibility: inherit;" fill="rgb(0, 0, 0)" stroke="rgb(204, 204, 204)" stroke-width="1px"></line><line x1="50" y1="37.80000000000001" x2="45" y2="37.80000000000001" style="visibility: inherit;" fill="rgb(0, 0, 0)" stroke="rgb(204, 204, 204)" stroke-width="1px"></line><line x1="50" y1="0" x2="45" y2="0" style="visibility: inherit;" fill="rgb(0, 0, 0)" stroke="rgb(204, 204, 204)" stroke-width="1px"></line></g><g transform="translate(40, 0)"><text x="0" y="378" dx="0em" dy="0.3em" style="text-anchor: end; visibility: hidden; font-family: &quot;Helvetica Neue&quot;, sans-serif; font-size: 12px; font-weight: 200;" fill="rgb(50, 49, 63)" stroke="none" stroke-width="1px">-0.1</text><text x="0" y="340.2" dx="0em" dy="0.3em" style="text-anchor: end; visibility: inherit; font-family: &quot;Helvetica Neue&quot;, sans-serif; font-size: 12px; font-weight: 200;" fill="rgb(50, 49, 63)" stroke="none" stroke-width="1px">0</text><text x="0" y="302.4" dx="0em" dy="0.3em" style="text-anchor: end; visibility: inherit; font-family: &quot;Helvetica Neue&quot;, sans-serif; font-size: 12px; font-weight: 200;" fill="rgb(50, 49, 63)" stroke="none" stroke-width="1px">0.1</text><text x="0" y="264.59999999999997" dx="0em" dy="0.3em" style="text-anchor: end; visibility: inherit; font-family: &quot;Helvetica Neue&quot;, sans-serif; font-size: 12px; font-weight: 200;" fill="rgb(50, 49, 63)" stroke="none" stroke-width="1px">0.2</text><text x="0" y="226.79999999999998" dx="0em" dy="0.3em" style="text-anchor: end; visibility: inherit; font-family: &quot;Helvetica Neue&quot;, sans-serif; font-size: 12px; font-weight: 200;" fill="rgb(50, 49, 63)" stroke="none" stroke-width="1px">0.3</text><text x="0" y="189" dx="0em" dy="0.3em" style="text-anchor: end; visibility: inherit; font-family: &quot;Helvetica Neue&quot;, sans-serif; font-size: 12px; font-weight: 200;" fill="rgb(50, 49, 63)" stroke="none" stroke-width="1px">0.4</text><text x="0" y="151.20000000000002" dx="0em" dy="0.3em" style="text-anchor: end; visibility: inherit; font-family: &quot;Helvetica Neue&quot;, sans-serif; font-size: 12px; font-weight: 200;" fill="rgb(50, 49, 63)" stroke="none" stroke-width="1px">0.5</text><text x="0" y="113.40000000000003" dx="0em" dy="0.3em" style="text-anchor: end; visibility: inherit; font-family: &quot;Helvetica Neue&quot;, sans-serif; font-size: 12px; font-weight: 200;" fill="rgb(50, 49, 63)" stroke="none" stroke-width="1px">0.6</text><text x="0" y="75.60000000000002" dx="0em" dy="0.3em" style="text-anchor: end; visibility: inherit; font-family: &quot;Helvetica Neue&quot;, sans-serif; font-size: 12px; font-weight: 200;" fill="rgb(50, 49, 63)" stroke="none" stroke-width="1px">0.7</text><text x="0" y="37.80000000000001" dx="0em" dy="0.3em" style="text-anchor: end; visibility: inherit; font-family: &quot;Helvetica Neue&quot;, sans-serif; font-size: 12px; font-weight: 200;" fill="rgb(50, 49, 63)" stroke="none" stroke-width="1px">0.8</text><text x="0" y="0" dx="0em" dy="0.3em" style="text-anchor: end; visibility: hidden; font-family: &quot;Helvetica Neue&quot;, sans-serif; font-size: 12px; font-weight: 200;" fill="rgb(50, 49, 63)" stroke="none" stroke-width="1px">0.9</text></g><line x1="50" y1="0" x2="50" y2="378" fill="rgb(0, 0, 0)" stroke="rgb(204, 204, 204)" stroke-width="1px"></line></g></g><g transform="translate(50, 0)" clip-path="url(#clip_0)"><clipPath id="clip_0"><rect width="1446" height="378"></rect></clipPath><g><g><g><line x1="0" y1="0" x2="0" y2="378" fill="rgb(0, 0, 0)" stroke="rgb(60, 60, 60)" stroke-width="1px" opacity="0.25"></line><line x1="111.23076923076924" y1="0" x2="111.23076923076924" y2="378" fill="rgb(0, 0, 0)" stroke="rgb(60, 60, 60)" stroke-width="1px" opacity="0.25"></line><line x1="222.46153846153848" y1="0" x2="222.46153846153848" y2="378" fill="rgb(0, 0, 0)" stroke="rgb(60, 60, 60)" stroke-width="1px" opacity="0.25"></line><line x1="333.69230769230774" y1="0" x2="333.69230769230774" y2="378" fill="rgb(0, 0, 0)" stroke="rgb(60, 60, 60)" stroke-width="1px" opacity="0.25"></line><line x1="444.92307692307696" y1="0" x2="444.92307692307696" y2="378" fill="rgb(0, 0, 0)" stroke="rgb(60, 60, 60)" stroke-width="1px" opacity="0.25"></line><line x1="556.1538461538462" y1="0" x2="556.1538461538462" y2="378" fill="rgb(0, 0, 0)" stroke="rgb(60, 60, 60)" stroke-width="1px" opacity="0.25"></line><line x1="667.3846153846155" y1="0" x2="667.3846153846155" y2="378" fill="rgb(0, 0, 0)" stroke="rgb(60, 60, 60)" stroke-width="1px" opacity="0.25"></line><line x1="778.6153846153845" y1="0" x2="778.6153846153845" y2="378" fill="rgb(0, 0, 0)" stroke="rgb(60, 60, 60)" stroke-width="1px" opacity="0.25"></line><line x1="889.8461538461539" y1="0" x2="889.8461538461539" y2="378" fill="rgb(0, 0, 0)" stroke="rgb(60, 60, 60)" stroke-width="1px" opacity="0.25"></line><line x1="1001.0769230769231" y1="0" x2="1001.0769230769231" y2="378" fill="rgb(0, 0, 0)" stroke="rgb(60, 60, 60)" stroke-width="1px" opacity="0.25"></line><line x1="1112.3076923076924" y1="0" x2="1112.3076923076924" y2="378" fill="rgb(0, 0, 0)" stroke="rgb(60, 60, 60)" stroke-width="1px" opacity="0.25"></line><line x1="1223.5384615384614" y1="0" x2="1223.5384615384614" y2="378" fill="rgb(0, 0, 0)" stroke="rgb(60, 60, 60)" stroke-width="1px" opacity="0.25"></line><line x1="1334.769230769231" y1="0" x2="1334.769230769231" y2="378" fill="rgb(0, 0, 0)" stroke="rgb(60, 60, 60)" stroke-width="1px" opacity="0.25"></line><line x1="1446" y1="0" x2="1446" y2="378" fill="rgb(0, 0, 0)" stroke="rgb(60, 60, 60)" stroke-width="1px" opacity="0.25"></line></g><g><line x1="0" y1="378" x2="1446" y2="378" fill="rgb(0, 0, 0)" stroke="rgb(60, 60, 60)" stroke-width="1px" opacity="0.25"></line><line x1="0" y1="340.2" x2="1446" y2="340.2" fill="rgb(0, 0, 0)" stroke="rgb(60, 60, 60)" stroke-width="1px" opacity="0.25"></line><line x1="0" y1="302.4" x2="1446" y2="302.4" fill="rgb(0, 0, 0)" stroke="rgb(60, 60, 60)" stroke-width="1px" opacity="0.25"></line><line x1="0" y1="264.59999999999997" x2="1446" y2="264.59999999999997" fill="rgb(0, 0, 0)" stroke="rgb(60, 60, 60)" stroke-width="1px" opacity="0.25"></line><line x1="0" y1="226.79999999999998" x2="1446" y2="226.79999999999998" fill="rgb(0, 0, 0)" stroke="rgb(60, 60, 60)" stroke-width="1px" opacity="0.25"></line><line x1="0" y1="189" x2="1446" y2="189" fill="rgb(0, 0, 0)" stroke="rgb(60, 60, 60)" stroke-width="1px" opacity="0.25"></line><line x1="0" y1="151.20000000000002" x2="1446" y2="151.20000000000002" fill="rgb(0, 0, 0)" stroke="rgb(60, 60, 60)" stroke-width="1px" opacity="0.25"></line><line x1="0" y1="113.40000000000003" x2="1446" y2="113.40000000000003" fill="rgb(0, 0, 0)" stroke="rgb(60, 60, 60)" stroke-width="1px" opacity="0.25"></line><line x1="0" y1="75.60000000000002" x2="1446" y2="75.60000000000002" fill="rgb(0, 0, 0)" stroke="rgb(60, 60, 60)" stroke-width="1px" opacity="0.25"></line><line x1="0" y1="37.80000000000001" x2="1446" y2="37.80000000000001" fill="rgb(0, 0, 0)" stroke="rgb(60, 60, 60)" stroke-width="1px" opacity="0.25"></line><line x1="0" y1="0" x2="1446" y2="0" fill="rgb(0, 0, 0)" stroke="rgb(60, 60, 60)" stroke-width="1px" opacity="0.25"></line></g></g></g><g><g><line x1="0" y1="340.2" x2="1446" y2="340.2" fill="rgb(0, 0, 0)" stroke="rgb(153, 153, 153)" stroke-width="1.5px"></line></g></g><g><g><line x1="111.23076923076924" y1="0" x2="111.23076923076924" y2="378" fill="rgb(0, 0, 0)" stroke="rgb(153, 153, 153)" stroke-width="1.5px"></line></g></g><g><g><g><g><g><path stroke="rgb(255, 112, 67)" stroke-width="2px" d="M111.23076923076924,59.72788138389586L113.45538461538462,112.42662591934203L115.68,142.7430657863617L117.90461538461537,169.98299206495287L120.12923076923077,189.98938204050066L122.35384615384616,202.69148976802828L124.57846153846154,215.83183933496477L126.80307692307693,224.1936833381653L129.0276923076923,230.49242688417436L131.25230769230768,237.78383291959764L133.47692307692307,243.50503946542742L135.70153846153846,246.0068211078644L137.92615384615385,251.98296089172362L140.1507692307692,255.4089966237545L142.3753846153846,257.74250317811965L144.6,261.0438717126846L146.82461538461538,263.49953894019126L149.04923076923077,266.2777592360973L151.27384615384614,267.2810054540634L153.49846153846153,268.2181357562542L155.72307692307695,270.50707123875617L157.9476923076923,270.2303340554237L160.1723076923077,271.1896118938923L162.39692307692306,273.36473427414893L164.62153846153845,272.44231642484664L166.84615384615387,276.377846878767L169.07076923076923,277.7787686705589L171.29538461538462,280.12014965415L173.51999999999998,279.64682773947715L175.7446153846154,283.01289276480674L177.9692307692308,284.35884563326834L180.19384615384615,283.8372745335102L182.41846153846151,286.7232021510601L184.6430769230769,288.61583642363547L186.86769230769232,298.98771579265593L189.0923076923077,307.559614983201L191.3169230769231,311.5406402617693L193.54153846153844,313.9528404146433L195.76615384615383,315.58800394535064L197.99076923076925,317.7076814442873L200.21538461538464,316.33122783601283L202.44000000000003,317.986240786314L204.66461538461536,316.0743541538715L206.88923076923078,317.615397696197L209.11384615384617,317.8703731790185L211.33846153846156,317.96209929585456L213.56307692307695,319.9504715323448L215.78769230769228,315.3983304619789L218.0123076923077,316.54053951501845L220.2369230769231,313.0084214776754L222.46153846153848,307.5508646786213L224.68615384615381,309.2297008752823L226.91076923076923,310.3455688923597L229.13538461538462,312.72817234396933L231.36,314.86277915239333L233.5846153846154,314.69481949210166L235.80923076923074,321.7191469117999L238.03384615384616,322.06710177361964L240.25846153846155,319.67508054971694L242.48307692307694,319.89295665621756L244.70769230769233,321.2657448247075L246.93230769230766,322.93045013844966L249.15692307692308,322.3833660006523L251.38153846153847,323.9835663333535L253.60615384615386,324.5362169265747L255.83076923076925,323.02736814022063L258.0553846153846,322.212178838253L260.28,321.46281114667653L262.50461538461536,322.03637150377034L264.72923076923075,323.9038560435176L266.95384615384614,323.17215512394904L269.17846153846153,322.0103515282273L271.4030769230769,323.72835991233586L273.6276923076923,322.5724466487765L275.8523076923077,323.3417707800865L278.0769230769231,323.6273582473397L280.3015384615384,323.9743062749505L282.5261538461538,324.4831828147173L284.7507692307692,323.96232424378394L286.9753846153846,324.42668885439633L289.2,324.63422484397887L291.4246153846154,324.0908779621124L293.64923076923077,322.97600973844527L295.87384615384616,323.86414030641316L298.09846153846155,324.1706896394491L300.32307692307694,324.3906103938818L302.5476923076923,323.29531699866055L304.77230769230766,323.31733216792344L306.99692307692305,321.9438624501228L309.22153846153844,321.8434888243675L311.4461538461539,320.61201934218406L313.6707692307692,319.8497458666563L315.8953846153846,319.1818500727415L318.12,319.034343932569L320.3446153846154,317.90054440945386L322.5692307692308,316.5649682700634L324.7938461538461,316.4146556675434L327.0184615384615,317.543625202775L329.2430769230769,317.38897265195845L331.46769230769235,317.8245572939515L333.69230769230774,315.1124205261469L335.91692307692307,315.6399340599775L338.14153846153846,316.37399927973746L340.36615384615385,315.6469861239195L342.59076923076924,315.22533803880214L344.81538461538463,315.4921476960182L347.03999999999996,316.3142172664404L349.26461538461535,316.0638492822647L351.4892307692308,315.4010510265827L353.7138461538462,314.6852918833494L355.9384615384616,315.55218036174773L358.1630769230769,314.2387813299894L360.3876923076923,315.4773141413927L362.61230769230764,315.2025709122419L364.83692307692303,315.2936366021633L367.0615384615384,315.3113709658384L369.2861538461538,314.8533585637808L371.5107692307692,314.6452466368675L373.73538461538465,314.9431681752205L375.96000000000004,316.58232243061065L378.1846153846154,314.9021484822035L380.4092307692308,314.57466967105864L382.6338461538462,314.98089559078215L384.8584615384615,314.38504969775676L387.0830769230769,313.6588476419449L389.30769230769226,314.40945592224597L391.53230769230765,314.97974089980124L393.7569230769231,314.96436661183833L395.9815384615385,315.0120694309473L398.2061538461539,315.4210497111082L400.4307692307693,315.47339100837706L402.65538461538466,313.63359088897704L404.88000000000005,315.6259285032749L407.10461538461533,315.2262815058231L409.3292307692307,314.11201315820216L411.5538461538461,314.689668443799L413.77846153846156,315.1610048532486L416.00307692307695,314.80626688599585L418.22769230769234,315.2989397317171L420.4523076923077,314.8137385815382L422.6769230769231,315.5781242966652L424.9015384615385,315.42449688613414L427.1261538461539,315.3278886795044L429.3507692307692,315.4243588864803L431.57538461538456,315.44857641756533L433.8,315.5897444307804L436.0246153846154,314.27230961322783L438.2492307692308,314.82466026842593L440.4738461538462,315.5435427099466L442.6984615384616,316.0625030815601L444.92307692307696,315.7234773606062L447.14769230769235,314.19661821126937L449.37230769230763,314.4879777252674L451.596923076923,314.45797829031943L453.82153846153847,314.2716872066259L456.04615384615386,314.35337173640727L458.27076923076925,314.7918388813734L460.49538461538464,315.08885074853896L462.72,315.3755070090294L464.9446153846154,315.5198011368513L467.1692307692308,315.00768723785876L469.3938461538462,315.1851012825966L471.6184615384615,315.0227798938751L473.8430769230769,314.6666450321674L476.0676923076923,313.67555404901503L478.2923076923077,314.25081827938556L480.5169230769231,313.44405258893966L482.7415384615385,314.70009727478026L484.9661538461539,315.7192050039768L487.19076923076926,313.74212620854377L489.41538461538465,315.3349829882383L491.64000000000004,314.50738779902457L493.8646153846153,315.4559551745653L496.08923076923077,314.2746077299118L498.31384615384616,315.31095978319644L500.53846153846155,313.95120413303374L502.76307692307694,314.10099853277205L504.9876923076923,315.221865516901L507.2123076923077,314.9158583253622L509.4369230769231,314.45794449448584L511.6615384615385,314.74093953967093L513.8861538461539,313.95994035601615L516.1107692307692,314.6743195027113L518.3353846153846,314.5843268305063L520.56,314.1871412962675L522.7846153846153,314.18907047510146L525.0092307692307,315.07262311577796L527.2338461538461,314.5633790463209L529.4584615384615,314.37563474178313L531.6830769230769,314.4900111079216L533.9076923076923,315.3083152592182L536.1323076923077,314.17055035829543L538.3569230769231,314.7491941720247L540.5815384615385,314.3618291437626L542.8061538461538,314.93996601998805L545.0307692307692,315.1149411320686L547.2553846153846,314.1076506793499L549.48,313.81800630390643L551.7046153846154,314.70838570296763L553.9292307692308,314.2173998326063L556.1538461538462,315.8344544291496L558.3784615384616,314.9660423219204L560.6030769230769,314.61370667517184L562.8276923076922,315.01744860112666L565.0523076923076,314.8668149381876L567.276923076923,314.7556970536709L569.5015384615384,315.3677198857069L571.7261538461538,314.97665984630584L573.9507692307692,313.67262507677077L576.1753846153846,314.7749775767326L578.4,314.8987857967615L580.6246153846154,314.5139920681715L582.8492307692308,314.5204414397478L585.0738461538461,314.15068967342376L587.2984615384615,315.4104434520006L589.5230769230769,314.59286309480666L591.7476923076923,314.3846863925457L593.9723076923077,314.7024714320898L596.1969230769231,315.486715015769L598.4215384615385,314.9082345485687L600.6461538461539,314.22752450108527L602.8707692307692,314.5014200180769L605.0953846153845,315.02561311125754L607.3199999999999,314.51405965983867L609.5446153846153,314.2268682986498L611.7692307692307,314.61301667690276L613.9938461538461,313.13796372413634L616.2184615384615,314.4317724376917L618.4430769230769,315.1801304787397L620.6676923076923,315.3019785404205L622.8923076923078,314.79259647130965L625.1169230769231,311.9665015608072L627.3415384615384,315.0308683633804L629.5661538461538,315.2342178940773L631.7907692307692,312.9416437268257L634.0153846153846,314.76132969260215L636.24,315.0546155691147L638.4646153846154,314.5720364123583L640.6892307692308,314.85367117524146L642.9138461538462,314.8451123803854L645.1384615384616,314.29984476864337L647.3630769230768,314.9043001502752L649.5876923076922,314.58435499370097L651.8123076923076,314.54113857150077L654.036923076923,314.59791275560855L656.2615384615384,314.85743377804755L658.4861538461538,314.4325581908226L660.7107692307692,314.4980263531208L662.9353846153847,314.1845277518034L665.1600000000001,314.96988941431044L667.3846153846155,313.45269024074076L669.6092307692307,314.6091611355543L671.8338461538461,314.473913025856L674.0584615384615,314.8738557368517L676.2830769230769,314.6897332191467L678.5076923076923,313.33584396243094L680.7323076923077,314.8701100319624L682.9569230769231,313.90873966813086L685.1815384615385,314.9156104892492L687.4061538461539,313.54200136363505L689.6307692307693,314.6007544219494L691.8553846153845,315.39112350046634L694.0799999999999,315.0179020285606L696.3046153846153,314.6515889883041L698.5292307692307,314.15863169431685L700.7538461538461,314.4959366440773L702.9784615384616,314.9926847040653L705.203076923077,314.6049873501062L707.4276923076924,315.068522554636L709.6523076923078,314.39200037419795L711.8769230769232,314.4002268433571L714.1015384615384,314.48117068111895L716.3261538461538,314.86685999929904L718.5507692307692,313.78751682937144L720.7753846153846,314.11171181201934L723,314.0756516575813L725.2246153846153,314.6352261722088L727.4492307692308,314.59729034900664L729.6738461538461,315.2535265803337L731.8984615384616,314.9198011726141L734.1230769230768,314.7567278265953L736.3476923076923,315.25022585391997L738.5723076923076,314.1707587659359L740.7969230769231,314.33523745536803L743.0215384615384,314.4701278924942L745.2461538461538,314.9849341928959L747.4707692307693,314.5488581031561L749.6953846153846,314.16469523012637L751.9200000000001,313.4873872965574L754.1446153846153,314.623814445734L756.3692307692309,314.6974809139967L758.5938461538461,314.39348457455634L760.8184615384616,315.01881733238696L763.0430769230769,315.03413811028L765.2676923076924,314.29587939083575L767.4923076923077,314.68091250658034L769.716923076923,313.3643056869507L771.9415384615385,314.99198344051837L774.1661538461537,314.56364659667014L776.3907692307693,314.71340156793593L778.6153846153845,314.5181405067444L780.84,314.52073152065276L783.0646153846153,314.3345446407795L785.2892307692308,314.96203751564025L787.5138461538462,315.1138540327549L789.7384615384615,314.50049626529216L791.963076923077,315.02038320600985L794.1876923076923,314.7959450751543L796.4123076923078,314.73044593334197L798.636923076923,313.96397332549094L800.8615384615385,314.149892655015L803.0861538461538,314.4949509322643L805.3107692307693,314.9373862713575L807.5353846153846,314.69634312093257L809.7600000000001,315.3296883076429L811.9846153846154,314.95447288155555L814.2092307692307,314.36195306181907L816.4338461538462,314.2361030101776L818.6584615384614,314.70289951264857L820.8830769230769,314.8867685616016L823.1076923076922,315.57093141674994L825.3323076923077,315.2770006030798L827.5569230769231,314.34505514502524L829.7815384615385,313.49971995949744L832.0061538461539,314.9044099867344L834.2307692307692,314.4682015299797L836.4553846153847,313.84918014407157L838.68,315.28441315591334L840.9046153846155,314.52576428353785L843.1292307692307,313.75972257256507L845.3538461538462,314.20800459086894L847.5784615384615,314.7418520271778L849.803076923077,314.67052873671054L852.0276923076923,314.19330058693885L854.2523076923078,314.69513210356234L856.4769230769231,314.6101609289646L858.7015384615383,314.783308249712L860.9261538461539,315.0978770524263L863.1507692307691,314.61415728628634L865.3753846153846,314.19796441197394L867.6,314.42888289391993L869.8246153846154,314.2260571986437L872.0492307692308,314.46127901673316L874.2738461538462,314.11529980301856L876.4984615384616,314.7862653851509L878.7230769230769,314.18749051988124L880.9476923076924,314.47534371614455L883.1723076923076,314.58933143019675L885.3969230769231,314.25230247974395L887.6215384615384,314.33637524843215L889.8461538461539,314.2316701233387L892.0707692307692,313.7910682082176L894.2953846153847,315.1338499009609L896.52,314.2399613678455L898.7446153846153,313.14066739082335L900.9692307692308,314.7296798944473L903.193846153846,314.87948837578296L905.4184615384615,314.95771164894103L907.6430769230769,314.5357819318771L909.8676923076923,314.5801981061697L912.0923076923077,314.3915103346109L914.3169230769231,315.31954955756663L916.5415384615385,315.1743232280016L918.7661538461539,315.1323178231716L920.9907692307693,314.9149571031332L923.2153846153846,314.5690595626831L925.44,314.3374792456627L927.6646153846153,314.81538049578666L929.8892307692308,314.4761491835117L932.1138461538461,314.7480253994465L934.3384615384616,314.84872008562087L936.5630769230769,314.91501906216143L938.7876923076924,315.339638364315L941.0123076923077,314.8381954997778L943.236923076923,314.69931152164935L945.4615384615385,313.7598577558994L947.6861538461538,314.5048756420612L949.9107692307692,313.5388808816671L952.1353846153846,314.8435943841934L954.36,314.92736862301825L956.5846153846154,315.09562962949275L958.8092307692308,314.5981070816517L961.0338461538462,314.7010351091623L963.2584615384616,314.44283212423323L965.483076923077,314.50055540800093L967.7076923076922,314.7183075964451L969.9323076923077,314.5153664320707L972.156923076923,314.8016903668642L974.3815384615385,314.54395770728587L976.6061538461538,314.9814222425222L978.8307692307693,314.3804731786251L981.0553846153846,314.68967407643794L983.2800000000001,314.62584219574927L985.5046153846154,314.44088886380194L987.7292307692306,314.9284444570541L989.9538461538461,314.98997822105883L992.1784615384615,314.80226771235465L994.4030769230769,314.3449678391218L996.6276923076923,314.5990054875612L998.8523076923077,314.2327994674444L1001.0769230769231,313.8330876946449L1003.3015384615385,314.63878600001334L1005.5261538461539,314.77916262745856L1007.7507692307693,315.03465068042277L1009.9753846153847,314.5895792663097L1012.1999999999999,314.6744068086147L1014.4246153846154,314.0652509897947L1016.6492307692307,314.58592931628226L1018.8738461538462,314.66313589811324L1021.0984615384615,314.5330219388008L1023.323076923077,314.7662526190281L1025.5476923076924,314.37787934839724L1027.7723076923078,315.1026253670454L1029.9969230769232,314.58553784787654L1032.2215384615383,314.9324858754873L1034.446153846154,314.63531066179274L1036.670769230769,314.6130279421806L1038.8953846153847,314.57446407973765L1041.12,315.0401903808117L1043.3446153846155,314.72465276420115L1045.5692307692307,314.353805449605L1047.7938461538463,314.0469899743795L1050.0184615384615,313.9846451103687L1052.2430769230768,314.0635330349207L1054.4676923076922,314.691924315691L1056.6923076923076,314.8526770144701L1058.916923076923,314.71125271618365L1061.1415384615384,315.0098811507225L1063.3661538461538,314.83587766885756L1065.5907692307692,314.78297592401503L1067.8153846153846,314.5779366016388L1070.04,314.32345679104327L1072.2646153846154,314.5610105216503L1074.4892307692307,314.7241880714893L1076.7138461538461,314.1580543488264L1078.9384615384615,314.4234445810318L1081.163076923077,314.68906575143336L1083.3876923076923,315.0708432018757L1085.6123076923077,314.9845624387264L1087.836923076923,314.90926532149314L1090.0615384615385,314.6429372549057L1092.2861538461539,314.3656452566385L1094.5107692307693,314.4722992748022L1096.7353846153846,315.05088957846164L1098.96,314.7672608613968L1101.1846153846154,314.96810386776923L1103.4092307692308,314.54160044789313L1105.6338461538462,314.51681402027606L1107.8584615384616,314.7680522471666L1110.083076923077,314.750072863698L1112.3076923076924,314.97446311712264L1114.5323076923078,314.5860504180193L1116.7569230769232,314.7288631618023L1118.9815384615385,315.0710037320852L1121.2061538461537,315.1511590003967L1123.4307692307693,315.3186764985323L1125.6553846153845,315.16119636297225L1127.88,314.16299135684966L1130.1046153846153,314.9678503990173L1132.329230769231,314.834446978569L1134.553846153846,314.77021518051623L1136.7784615384617,314.55125479102134L1139.0030769230768,314.7490336418152L1141.2276923076922,314.12831683158873L1143.4523076923076,314.65736525952815L1145.676923076923,314.2900636911392L1147.9015384615384,314.92167120873927L1150.1261538461538,315.4050248533487L1152.3507692307692,314.81675767600535L1154.5753846153846,315.0921261280775L1156.8,314.7508670657873L1159.0246153846153,314.4977785170078L1161.2492307692307,313.95359518826007L1163.4738461538461,314.7406719893217L1165.6984615384615,314.39698244333266L1167.923076923077,314.5251390606165L1170.1476923076923,314.07052595615386L1172.3723076923077,314.14848449528216L1174.596923076923,315.20269201397895L1176.8215384615385,314.88725860118865L1179.0461538461539,314.2646886527538L1181.2707692307692,314.25797454714774L1183.4953846153846,314.5001667559147L1185.72,315.27462644577025L1187.9446153846154,314.998283547163L1190.1692307692308,315.3548352241516L1192.3938461538462,314.96242898404597L1194.6184615384616,314.22193692326545L1196.843076923077,313.91513271331786L1199.0676923076924,314.2576337724924L1201.2923076923078,314.1544748067856L1203.5169230769231,314.35392936766146L1205.7415384615383,314.49736451804637L1207.966153846154,314.900300976634L1210.190769230769,315.1541189521551L1212.4153846153847,314.929725882411L1214.6399999999999,314.98622406721114L1216.8646153846155,314.72531741559504L1219.0892307692307,314.67067518532275L1221.3138461538463,314.85203207731246L1223.5384615384614,313.93504972457885L1225.763076923077,314.4261397987604L1227.9876923076922,314.4934779971838L1230.2123076923076,314.4919768989086L1232.436923076923,314.2899003446102L1234.6615384615384,314.40444287359713L1236.8861538461538,314.90101068913935L1239.1107692307692,314.9138164937496L1241.3353846153846,313.5488393872976L1243.56,313.9908663600683L1245.7846153846156,314.65317739248275L1248.0092307692307,314.8751991212368L1250.2338461538461,315.1548061341047L1252.4584615384615,314.64353713095187L1254.683076923077,314.4517204284668L1256.9076923076923,314.68959803581237L1259.1323076923077,314.08629452884196L1261.356923076923,314.78709056675433L1263.5815384615385,314.46331239938735L1265.8061538461538,314.95723287463187L1268.0307692307692,315.1584053903818L1270.2553846153846,315.4718955427408L1272.48,315.0677030056715L1274.7046153846154,314.7558660328388L1276.9292307692308,313.88892404437064L1279.1538461538462,314.36953741014L1281.3784615384616,314.24840187728404L1283.603076923077,314.7970096439123L1285.8276923076924,314.7482619702816L1288.0523076923077,314.44921390414237L1290.2769230769231,314.8321516782045L1292.5015384615385,314.5188023418188L1294.7261538461537,313.9252911776304L1296.9507692307693,314.00165849626063L1299.1753846153845,314.5889850229025L1301.4,314.8813133507967L1303.6246153846153,315.034591537714L1305.8492307692309,314.36359497606753L1308.073846153846,314.68357392847537L1310.2984615384617,314.0867254257202L1312.5230769230768,313.9617878615856L1314.7476923076922,314.4759295105934L1316.9723076923076,314.8365873813629L1319.196923076923,314.9222992479801L1321.4215384615384,314.59091420173644L1323.6461538461538,314.15904006063937L1325.8707692307694,314.99666416347026L1328.0953846153845,314.8339400410652L1330.3200000000002,315.1249982088804L1332.5446153846153,314.73416910767554" style="fill: none;" fill="none"></path></g></g></g></g></g><g><g><span fill="rgb(0, 0, 0)" stroke="none" stroke-width="1px">Alt + Scroll to Zoom</span></g></g></g><g transform="translate(50, 378)" clip-path="url(#clip_1)"><clipPath id="clip_1"><rect width="1446" height="22"></rect></clipPath><g><g><line x1="0" y1="0" x2="0" y2="5" style="visibility: inherit;" fill="rgb(0, 0, 0)" stroke="rgb(204, 204, 204)" stroke-width="1px"></line><line x1="111.23076923076924" y1="0" x2="111.23076923076924" y2="5" style="visibility: inherit;" fill="rgb(0, 0, 0)" stroke="rgb(204, 204, 204)" stroke-width="1px"></line><line x1="222.46153846153848" y1="0" x2="222.46153846153848" y2="5" style="visibility: inherit;" fill="rgb(0, 0, 0)" stroke="rgb(204, 204, 204)" stroke-width="1px"></line><line x1="333.69230769230774" y1="0" x2="333.69230769230774" y2="5" style="visibility: inherit;" fill="rgb(0, 0, 0)" stroke="rgb(204, 204, 204)" stroke-width="1px"></line><line x1="444.92307692307696" y1="0" x2="444.92307692307696" y2="5" style="visibility: inherit;" fill="rgb(0, 0, 0)" stroke="rgb(204, 204, 204)" stroke-width="1px"></line><line x1="556.1538461538462" y1="0" x2="556.1538461538462" y2="5" style="visibility: inherit;" fill="rgb(0, 0, 0)" stroke="rgb(204, 204, 204)" stroke-width="1px"></line><line x1="667.3846153846155" y1="0" x2="667.3846153846155" y2="5" style="visibility: inherit;" fill="rgb(0, 0, 0)" stroke="rgb(204, 204, 204)" stroke-width="1px"></line><line x1="778.6153846153845" y1="0" x2="778.6153846153845" y2="5" style="visibility: inherit;" fill="rgb(0, 0, 0)" stroke="rgb(204, 204, 204)" stroke-width="1px"></line><line x1="889.8461538461539" y1="0" x2="889.8461538461539" y2="5" style="visibility: inherit;" fill="rgb(0, 0, 0)" stroke="rgb(204, 204, 204)" stroke-width="1px"></line><line x1="1001.0769230769231" y1="0" x2="1001.0769230769231" y2="5" style="visibility: inherit;" fill="rgb(0, 0, 0)" stroke="rgb(204, 204, 204)" stroke-width="1px"></line><line x1="1112.3076923076924" y1="0" x2="1112.3076923076924" y2="5" style="visibility: inherit;" fill="rgb(0, 0, 0)" stroke="rgb(204, 204, 204)" stroke-width="1px"></line><line x1="1223.5384615384614" y1="0" x2="1223.5384615384614" y2="5" style="visibility: inherit;" fill="rgb(0, 0, 0)" stroke="rgb(204, 204, 204)" stroke-width="1px"></line><line x1="1334.769230769231" y1="0" x2="1334.769230769231" y2="5" style="visibility: inherit;" fill="rgb(0, 0, 0)" stroke="rgb(204, 204, 204)" stroke-width="1px"></line><line x1="1446" y1="0" x2="1446" y2="5" style="visibility: inherit;" fill="rgb(0, 0, 0)" stroke="rgb(204, 204, 204)" stroke-width="1px"></line></g><g transform="translate(0, 8)"><text x="0" y="0" dx="0em" dy="0.95em" style="text-anchor: middle; visibility: hidden; font-family: &quot;Helvetica Neue&quot;, sans-serif; font-size: 12px; font-weight: 200;" fill="rgb(50, 49, 63)" stroke="none" stroke-width="1px">-50</text><text x="111.23076923076924" y="0" dx="0em" dy="0.95em" style="text-anchor: middle; visibility: inherit; font-family: &quot;Helvetica Neue&quot;, sans-serif; font-size: 12px; font-weight: 200;" fill="rgb(50, 49, 63)" stroke="none" stroke-width="1px">0</text><text x="222.46153846153848" y="0" dx="0em" dy="0.95em" style="text-anchor: middle; visibility: inherit; font-family: &quot;Helvetica Neue&quot;, sans-serif; font-size: 12px; font-weight: 200;" fill="rgb(50, 49, 63)" stroke="none" stroke-width="1px">50</text><text x="333.69230769230774" y="0" dx="0em" dy="0.95em" style="text-anchor: middle; visibility: inherit; font-family: &quot;Helvetica Neue&quot;, sans-serif; font-size: 12px; font-weight: 200;" fill="rgb(50, 49, 63)" stroke="none" stroke-width="1px">100</text><text x="444.92307692307696" y="0" dx="0em" dy="0.95em" style="text-anchor: middle; visibility: inherit; font-family: &quot;Helvetica Neue&quot;, sans-serif; font-size: 12px; font-weight: 200;" fill="rgb(50, 49, 63)" stroke="none" stroke-width="1px">150</text><text x="556.1538461538462" y="0" dx="0em" dy="0.95em" style="text-anchor: middle; visibility: inherit; font-family: &quot;Helvetica Neue&quot;, sans-serif; font-size: 12px; font-weight: 200;" fill="rgb(50, 49, 63)" stroke="none" stroke-width="1px">200</text><text x="667.3846153846155" y="0" dx="0em" dy="0.95em" style="text-anchor: middle; visibility: inherit; font-family: &quot;Helvetica Neue&quot;, sans-serif; font-size: 12px; font-weight: 200;" fill="rgb(50, 49, 63)" stroke="none" stroke-width="1px">250</text><text x="778.6153846153845" y="0" dx="0em" dy="0.95em" style="text-anchor: middle; visibility: inherit; font-family: &quot;Helvetica Neue&quot;, sans-serif; font-size: 12px; font-weight: 200;" fill="rgb(50, 49, 63)" stroke="none" stroke-width="1px">300</text><text x="889.8461538461539" y="0" dx="0em" dy="0.95em" style="text-anchor: middle; visibility: inherit; font-family: &quot;Helvetica Neue&quot;, sans-serif; font-size: 12px; font-weight: 200;" fill="rgb(50, 49, 63)" stroke="none" stroke-width="1px">350</text><text x="1001.0769230769231" y="0" dx="0em" dy="0.95em" style="text-anchor: middle; visibility: inherit; font-family: &quot;Helvetica Neue&quot;, sans-serif; font-size: 12px; font-weight: 200;" fill="rgb(50, 49, 63)" stroke="none" stroke-width="1px">400</text><text x="1112.3076923076924" y="0" dx="0em" dy="0.95em" style="text-anchor: middle; visibility: inherit; font-family: &quot;Helvetica Neue&quot;, sans-serif; font-size: 12px; font-weight: 200;" fill="rgb(50, 49, 63)" stroke="none" stroke-width="1px">450</text><text x="1223.5384615384614" y="0" dx="0em" dy="0.95em" style="text-anchor: middle; visibility: inherit; font-family: &quot;Helvetica Neue&quot;, sans-serif; font-size: 12px; font-weight: 200;" fill="rgb(50, 49, 63)" stroke="none" stroke-width="1px">500</text><text x="1334.769230769231" y="0" dx="0em" dy="0.95em" style="text-anchor: middle; visibility: inherit; font-family: &quot;Helvetica Neue&quot;, sans-serif; font-size: 12px; font-weight: 200;" fill="rgb(50, 49, 63)" stroke="none" stroke-width="1px">550</text><text x="1446" y="0" dx="0em" dy="0.95em" style="text-anchor: middle; visibility: hidden; font-family: &quot;Helvetica Neue&quot;, sans-serif; font-size: 12px; font-weight: 200;" fill="rgb(50, 49, 63)" stroke="none" stroke-width="1px">600</text></g><line x1="0" y1="0" x2="1446" y2="0" fill="rgb(0, 0, 0)" stroke="rgb(204, 204, 204)" stroke-width="1px"></line></g></g></g></g></svg>