<?xml version="1.0" encoding="utf-8" standalone="no"?>
<!DOCTYPE svg PUBLIC "-//W3C//DTD SVG 1.1//EN"
  "http://www.w3.org/Graphics/SVG/1.1/DTD/svg11.dtd">
<!-- Created with matplotlib (https://matplotlib.org/) -->
<svg height="288pt" version="1.1" viewBox="0 0 720 288" width="720pt" xmlns="http://www.w3.org/2000/svg" xmlns:xlink="http://www.w3.org/1999/xlink">
 <metadata>
  <rdf:RDF xmlns:cc="http://creativecommons.org/ns#" xmlns:dc="http://purl.org/dc/elements/1.1/" xmlns:rdf="http://www.w3.org/1999/02/22-rdf-syntax-ns#">
   <cc:Work>
    <dc:type rdf:resource="http://purl.org/dc/dcmitype/StillImage"/>
    <dc:date>2020-12-21T22:54:20.491728</dc:date>
    <dc:format>image/svg+xml</dc:format>
    <dc:creator>
     <cc:Agent>
      <dc:title>Matplotlib v3.3.2, https://matplotlib.org/</dc:title>
     </cc:Agent>
    </dc:creator>
   </cc:Work>
  </rdf:RDF>
 </metadata>
 <defs>
  <style type="text/css">*{stroke-linecap:butt;stroke-linejoin:round;}</style>
 </defs>
 <g id="figure_1">
  <g id="patch_1">
   <path d="M 0 288 
L 720 288 
L 720 0 
L 0 0 
z
" style="fill:#ffffff;"/>
  </g>
  <g id="axes_1">
   <g id="line2d_1">
    <path clip-path="url(#p771725b969)" d="M 149.590675 224.01911 
L 142.944363 222.500575 
L 133.240615 220.533248 
L 122.150948 218.533138 
L 109.768864 216.528502 
L 99.056534 214.994486 
L 90.726606 214.036453 
L 84.74924 213.564692 
L 79.123969 213.353421 
L 74.3177 213.398019 
L 69.476475 213.696976 
L 65.861076 214.116972 
L 62.422596 214.700867 
L 58.888165 215.52477 
L 55.834254 216.461203 
L 52.880588 217.622841 
L 50.967778 218.554259 
L 49.23607 219.568101 
L 47.618346 220.736991 
L 46.143974 222.15543 
L 45.268322 223.439003 
L 44.913739 224.458485 
L 44.869512 225.128843 
L 45.013933 225.843196 
L 45.471449 226.669114 
L 46.461762 227.608374 
L 47.048978 227.994654 
L 48.06744 228.524539 
L 50.151253 229.304362 
L 53.149628 230.046642 
L 56.73099 230.600814 
L 59.733237 230.878408 
L 64.625917 231.059698 
L 69.255258 230.981311 
L 74.3414 230.659957 
L 79.063508 230.169741 
L 84.893645 229.348943 
L 91.889291 228.133108 
L 106.412859 225.493166 
L 111.633498 224.761311 
L 117.244606 224.201637 
L 123.304447 223.864817 
L 129.197019 223.762972 
L 137.329569 223.885922 
L 146.92453 224.284697 
L 149.566035 224.428373 
L 149.566035 224.428373 
" style="fill:none;stroke:#000000;stroke-linecap:square;stroke-opacity:0.7;stroke-width:1.2;"/>
   </g>
   <g id="line2d_2">
    <path clip-path="url(#p771725b969)" d="M 149.236161 185.533443 
L 122.825834 182.354053 
L 113.148081 181.409157 
L 103.72922 180.695986 
L 90.736338 179.93945 
L 81.086732 179.580994 
L 75.088133 179.558806 
L 69.189208 179.777251 
L 64.590773 180.15574 
L 60.304203 180.701923 
L 56.882904 181.292643 
L 53.587022 182.016852 
L 50.211994 182.963946 
L 47.25992 184.067392 
L 46.036396 184.684356 
L 45.156524 185.318268 
L 44.835641 185.828422 
L 44.905032 186.148505 
L 45.125509 186.362113 
L 45.709151 186.635223 
L 47.194985 186.968971 
L 49.268599 187.201783 
L 53.8343 187.41346 
L 60.745954 187.436805 
L 72.520237 187.201066 
L 90.033602 186.881278 
L 107.846763 186.58317 
L 136.071572 185.944177 
L 149.246547 185.901736 
L 149.246547 185.901736 
" style="fill:none;stroke:#000000;stroke-linecap:square;stroke-opacity:0.7;stroke-width:1.2;"/>
   </g>
   <g id="line2d_3">
    <path clip-path="url(#p771725b969)" d="M 149.469039 145.865956 
L 139.244512 144.330721 
L 126.792775 142.65646 
L 116.288526 141.459009 
L 107.972404 140.715692 
L 99.35674 140.173694 
L 92.577773 139.924523 
L 84.849915 139.845433 
L 77.682111 139.99192 
L 70.774476 140.375953 
L 65.041773 140.918467 
L 59.692285 141.65125 
L 55.427733 142.431776 
L 51.263705 143.421907 
L 48.159127 144.390475 
L 46.474695 145.075296 
L 45.033182 145.917604 
L 44.532454 146.550704 
L 44.519732 146.818384 
L 44.650654 147.081814 
L 45.041772 147.40545 
L 45.867515 147.776309 
L 47.873779 148.289967 
L 51.465182 148.818611 
L 56.779461 149.274684 
L 64.34206 149.643615 
L 89.581043 150.437525 
L 98.915429 150.629918 
L 106.044147 150.57712 
L 113.193745 150.295197 
L 120.786553 149.741903 
L 128.761581 148.923981 
L 139.827668 147.522282 
L 149.490358 146.155234 
L 149.490358 146.155234 
" style="fill:none;stroke:#000000;stroke-linecap:square;stroke-opacity:0.7;stroke-width:1.2;"/>
   </g>
   <g id="line2d_4">
    <path clip-path="url(#p771725b969)" d="M 149.728778 105.532081 
L 143.444464 103.871881 
L 135.567998 102.008248 
L 127.562155 100.315296 
L 117.736427 98.474931 
L 105.525373 96.447493 
L 96.440344 95.122877 
L 88.869312 94.238289 
L 82.959264 93.787876 
L 78.130138 93.646408 
L 73.832179 93.740432 
L 70.227377 94.01082 
L 66.686691 94.473995 
L 63.303562 95.126029 
L 59.630859 96.101555 
L 56.89867 97.037642 
L 53.591739 98.460989 
L 51.663381 99.472214 
L 49.759731 100.642083 
L 47.963131 101.965649 
L 46.403365 103.410602 
L 45.429882 104.635317 
L 44.919797 105.640043 
L 44.767526 106.274869 
L 44.812542 107.045629 
L 45.073941 107.647119 
L 45.672453 108.312636 
L 46.17245 108.673443 
L 47.881305 109.467318 
L 49.901429 110.042234 
L 52.998353 110.594378 
L 56.871323 110.98678 
L 61.768672 111.197617 
L 66.815931 111.184349 
L 72.681839 110.945872 
L 79.484347 110.431783 
L 87.767122 109.55547 
L 110.830427 106.942809 
L 118.606343 106.366046 
L 126.882493 105.985942 
L 136.055374 105.808648 
L 146.667036 105.840725 
L 149.729718 105.885174 
L 149.729718 105.885174 
" style="fill:none;stroke:#000000;stroke-linecap:square;stroke-opacity:0.7;stroke-width:1.2;"/>
   </g>
   <g id="line2d_5">
    <path clip-path="url(#p771725b969)" d="M 149.274667 67.06621 
L 131.098084 64.577433 
L 119.137755 63.140258 
L 109.458516 62.203978 
L 98.442206 61.36498 
L 86.407121 60.651457 
L 78.916264 60.407865 
L 73.056026 60.427332 
L 68.335282 60.628611 
L 63.984727 60.993746 
L 59.524399 61.581844 
L 56.118647 62.207536 
L 53.041225 62.939974 
L 49.869702 63.926782 
L 47.326208 65.012194 
L 46.274777 65.627803 
L 45.413993 66.356639 
L 45.060494 66.959884 
L 45.066941 67.492048 
L 45.340906 67.941663 
L 45.796001 68.327304 
L 46.896773 68.900321 
L 48.589686 69.470251 
L 51.350644 70.088224 
L 54.82318 70.591419 
L 58.880035 70.94469 
L 63.693741 71.133096 
L 68.594482 71.125169 
L 74.185596 70.914926 
L 81.370566 70.38696 
L 89.753984 69.499456 
L 109.440326 67.259946 
L 115.662552 66.84419 
L 122.156734 66.645421 
L 129.422909 66.667792 
L 137.828962 66.921211 
L 149.286031 67.501862 
L 149.286031 67.501862 
" style="fill:none;stroke:#000000;stroke-linecap:square;stroke-opacity:0.7;stroke-width:1.2;"/>
   </g>
   <g id="line2d_6">
    <path clip-path="url(#p771725b969)" d="M 281.065893 224.06499 
L 273.711837 222.137387 
L 264.323679 219.911599 
L 255.614693 218.05483 
L 245.297796 216.099351 
L 235.605219 214.48295 
L 226.907795 213.265459 
L 220.755419 212.610724 
L 214.854215 212.220502 
L 210.22138 212.131511 
L 205.622475 212.281652 
L 202.394634 212.555768 
L 199.117451 212.998655 
L 195.816592 213.634741 
L 192.497894 214.493198 
L 189.478454 215.493454 
L 186.317906 216.804409 
L 183.324225 218.355038 
L 180.649142 220.091098 
L 179.128435 221.30861 
L 177.80662 222.633368 
L 177.150368 223.521151 
L 176.742328 224.436939 
L 176.704797 225.091281 
L 176.866766 225.530643 
L 177.365572 226.045803 
L 178.32806 226.516884 
L 179.879642 226.907836 
L 182.624105 227.232104 
L 186.776975 227.376385 
L 191.940608 227.291239 
L 199.231342 226.915547 
L 210.216475 226.089746 
L 224.502457 225.051423 
L 234.614262 224.557881 
L 245.867719 224.227608 
L 257.086018 224.10412 
L 269.571365 224.196957 
L 281.075033 224.441839 
L 281.075033 224.441839 
" style="fill:none;stroke:#000000;stroke-linecap:square;stroke-opacity:0.7;stroke-width:1.2;"/>
   </g>
   <g id="line2d_7">
    <path clip-path="url(#p771725b969)" d="M 280.691452 185.584107 
L 272.426116 183.774362 
L 262.041459 181.708853 
L 252.727842 180.095751 
L 245.755091 179.093749 
L 238.921414 178.296653 
L 230.751186 177.564024 
L 222.054125 177.029702 
L 214.171889 176.793221 
L 207.95789 176.826868 
L 202.061946 177.10024 
L 197.541318 177.516024 
L 192.662002 178.224745 
L 189.239379 178.928686 
L 185.695433 179.896849 
L 182.885541 180.902271 
L 181.414167 181.547241 
L 179.166211 182.78002 
L 177.671715 183.917759 
L 176.954866 184.733919 
L 176.64453 185.422581 
L 176.627688 185.728048 
L 176.808464 186.173651 
L 177.087353 186.432543 
L 177.81174 186.768763 
L 178.887308 187.007844 
L 180.555881 187.171242 
L 184.013288 187.232216 
L 193.360218 186.992101 
L 201.568453 186.866869 
L 208.773539 186.995422 
L 215.777747 187.362774 
L 234.644996 188.565136 
L 241.052525 188.661661 
L 247.091222 188.548933 
L 254.026176 188.211068 
L 263.906764 187.466318 
L 278.47567 186.092672 
L 280.707229 185.867541 
L 280.707229 185.867541 
" style="fill:none;stroke:#000000;stroke-linecap:square;stroke-opacity:0.7;stroke-width:1.2;"/>
   </g>
   <g id="line2d_8">
    <path clip-path="url(#p771725b969)" d="M 280.719553 146.075983 
L 265.850465 143.351902 
L 252.576746 141.112941 
L 243.139168 139.729767 
L 233.78378 138.579966 
L 225.129042 137.729292 
L 217.380599 137.195493 
L 211.374681 136.995765 
L 205.584508 137.045134 
L 200.812305 137.31086 
L 195.949911 137.837215 
L 191.612579 138.570292 
L 188.002341 139.413526 
L 184.530581 140.479498 
L 182.31996 141.330952 
L 180.216718 142.319454 
L 178.556308 143.29341 
L 177.267165 144.282818 
L 176.524612 145.109051 
L 176.180214 145.837194 
L 176.204845 146.497488 
L 176.448954 146.917549 
L 177.010959 147.38539 
L 178.129267 147.89837 
L 179.754781 148.342609 
L 182.086584 148.737708 
L 185.296056 149.0626 
L 189.967586 149.298115 
L 196.301996 149.359242 
L 204.140713 149.178267 
L 214.074349 148.6851 
L 228.058191 147.716918 
L 244.614147 146.595161 
L 253.116337 146.246326 
L 261.634605 146.114254 
L 270.896332 146.181696 
L 280.729319 146.423353 
L 280.729319 146.423353 
" style="fill:none;stroke:#000000;stroke-linecap:square;stroke-opacity:0.7;stroke-width:1.2;"/>
   </g>
   <g id="line2d_9">
    <path clip-path="url(#p771725b969)" d="M 280.872298 106.030038 
L 275.044339 104.337462 
L 266.595769 102.126349 
L 258.506489 100.259773 
L 251.43263 98.85956 
L 244.363197 97.682314 
L 236.893128 96.65504 
L 229.453435 95.83724 
L 222.325839 95.262602 
L 216.316088 94.97304 
L 209.887313 94.919378 
L 204.920573 95.112545 
L 200.401527 95.516396 
L 196.662793 96.054872 
L 192.822484 96.846142 
L 189.587806 97.74281 
L 186.422874 98.874598 
L 183.71622 100.096612 
L 182.169407 100.930047 
L 179.923271 102.380536 
L 178.280726 103.721033 
L 177.236108 104.832909 
L 176.676318 105.70357 
L 176.499815 106.372735 
L 176.597056 106.769392 
L 176.910767 107.083852 
L 177.430629 107.298307 
L 178.281405 107.437162 
L 179.677313 107.46942 
L 182.892778 107.242967 
L 189.877931 106.389397 
L 200.584642 105.06279 
L 207.640725 104.428691 
L 212.758909 104.169253 
L 218.657167 104.110568 
L 224.713453 104.280272 
L 240.906493 105.106199 
L 254.332663 105.614456 
L 280.893892 106.373051 
L 280.893892 106.373051 
" style="fill:none;stroke:#000000;stroke-linecap:square;stroke-opacity:0.7;stroke-width:1.2;"/>
   </g>
   <g id="line2d_10">
    <path clip-path="url(#p771725b969)" d="M 280.918909 66.895166 
L 270.964475 64.983331 
L 259.32735 62.950592 
L 249.77935 61.485465 
L 241.13477 60.369898 
L 232.371012 59.47523 
L 224.985142 58.933126 
L 217.966563 58.631859 
L 211.575432 58.575632 
L 205.530243 58.754223 
L 200.137465 59.145 
L 195.681908 59.668796 
L 191.11897 60.438935 
L 187.22116 61.336174 
L 184.315029 62.196943 
L 181.617463 63.205446 
L 179.700552 64.112942 
L 178.234849 65.001599 
L 177.204547 65.85822 
L 176.568886 66.783035 
L 176.478621 67.271207 
L 176.635433 67.81765 
L 177.047505 68.290594 
L 177.864393 68.802812 
L 179.527392 69.423411 
L 181.561531 69.922861 
L 184.818245 70.486877 
L 190.173306 71.141889 
L 199.175525 71.946489 
L 214.924282 73.086825 
L 223.249095 73.518676 
L 229.695697 73.658822 
L 236.464028 73.558652 
L 242.508912 73.235158 
L 248.2933 72.721414 
L 255.455309 71.832975 
L 262.191045 70.784625 
L 271.007939 69.183587 
L 280.919912 67.17698 
L 280.919912 67.17698 
" style="fill:none;stroke:#000000;stroke-linecap:square;stroke-opacity:0.7;stroke-width:1.2;"/>
   </g>
   <g id="line2d_11">
    <path clip-path="url(#p771725b969)" d="M 412.502568 223.878212 
L 406.453264 222.089422 
L 398.225111 219.898708 
L 390.300975 218.018382 
L 382.014219 216.293208 
L 372.86816 214.642832 
L 364.396027 213.334161 
L 357.31674 212.440887 
L 350.930968 211.857087 
L 346.005681 211.603859 
L 341.282993 211.57026 
L 336.83615 211.770577 
L 333.423537 212.107021 
L 329.938768 212.642371 
L 326.661823 213.349816 
L 323.233108 214.336266 
L 320.390956 215.377497 
L 317.359297 216.75713 
L 314.467906 218.400724 
L 312.965933 219.422697 
L 311.28398 220.766246 
L 309.914367 222.122604 
L 309.02683 223.314305 
L 308.626964 224.262593 
L 308.611264 224.862233 
L 308.764454 225.23896 
L 309.320768 225.732053 
L 310.244231 226.081877 
L 311.675968 226.326274 
L 313.945322 226.453634 
L 318.048718 226.379662 
L 324.072874 225.999747 
L 348.571734 224.179819 
L 356.249587 223.943994 
L 367.174869 223.864028 
L 392.53669 223.977507 
L 410.825663 224.278347 
L 412.507407 224.317475 
L 412.507407 224.317475 
" style="fill:none;stroke:#000000;stroke-linecap:square;stroke-opacity:0.7;stroke-width:1.2;"/>
   </g>
   <g id="line2d_12">
    <path clip-path="url(#p771725b969)" d="M 412.222665 185.378313 
L 380.425214 181.372072 
L 370.858422 180.443746 
L 361.453188 179.770248 
L 352.515561 179.357663 
L 345.367778 179.210396 
L 338.302708 179.275255 
L 331.64413 179.592063 
L 326.945201 180.004996 
L 321.558874 180.719694 
L 317.14858 181.553082 
L 314.197823 182.286501 
L 311.22395 183.259985 
L 309.679385 183.946267 
L 308.663158 184.57186 
L 308.004661 185.286002 
L 307.903371 185.700211 
L 308.046577 186.127555 
L 308.508874 186.584261 
L 309.208482 186.988285 
L 310.559949 187.514009 
L 313.339272 188.243723 
L 316.734268 188.881188 
L 322.735948 189.712842 
L 330.81568 190.562489 
L 343.465121 191.652583 
L 352.319239 192.240001 
L 358.702409 192.464713 
L 364.777332 192.453055 
L 370.570232 192.21128 
L 376.608968 191.721327 
L 382.770649 190.99508 
L 389.74088 189.950443 
L 398.902278 188.334111 
L 412.203747 185.74024 
L 412.203747 185.74024 
" style="fill:none;stroke:#000000;stroke-linecap:square;stroke-opacity:0.7;stroke-width:1.2;"/>
   </g>
   <g id="line2d_13">
    <path clip-path="url(#p771725b969)" d="M 412.342157 145.984416 
L 399.442966 143.669484 
L 387.52081 141.71132 
L 378.195052 140.383196 
L 368.90896 139.281428 
L 359.642386 138.391478 
L 351.880761 137.829829 
L 344.606052 137.534863 
L 338.597078 137.542744 
L 333.82557 137.763226 
L 329.226876 138.194546 
L 324.849545 138.841297 
L 321.164151 139.597682 
L 317.451666 140.5991 
L 314.137788 141.757059 
L 311.346548 143.017529 
L 309.162109 144.346088 
L 308.228248 145.154214 
L 307.79738 145.723315 
L 307.632303 146.267438 
L 307.694774 146.577181 
L 307.998446 146.947389 
L 308.550874 147.255432 
L 309.79176 147.604929 
L 311.762584 147.876626 
L 315.986702 148.10906 
L 322.902585 148.181555 
L 348.373446 148.242336 
L 366.21835 148.487425 
L 374.731991 148.325441 
L 384.23422 147.898781 
L 412.353189 146.251462 
L 412.353189 146.251462 
" style="fill:none;stroke:#000000;stroke-linecap:square;stroke-opacity:0.7;stroke-width:1.2;"/>
   </g>
   <g id="line2d_14">
    <path clip-path="url(#p771725b969)" d="M 412.444117 106.253135 
L 404.783818 104.560862 
L 394.176287 102.451248 
L 386.088925 101.02467 
L 376.983515 99.651195 
L 369.610629 98.749675 
L 361.634385 98.019823 
L 354.351631 97.611457 
L 348.167725 97.484791 
L 341.852396 97.588624 
L 335.819211 97.936532 
L 331.13442 98.400591 
L 326.507818 99.055846 
L 321.856327 99.955526 
L 317.704905 101.022919 
L 314.620515 102.040748 
L 312.33491 102.980408 
L 310.504577 103.920645 
L 309.273432 104.72977 
L 308.265993 105.659894 
L 307.792101 106.478262 
L 307.730929 106.957465 
L 307.82881 107.36311 
L 308.23412 107.926081 
L 308.904116 108.425357 
L 310.215967 109.04353 
L 312.044689 109.633119 
L 315.144927 110.351512 
L 319.630298 111.11736 
L 326.688112 112.027882 
L 336.569391 113.02189 
L 346.921086 113.847421 
L 354.534767 114.259654 
L 360.650869 114.3958 
L 366.753541 114.307994 
L 372.780862 113.976609 
L 378.566648 113.422201 
L 384.597579 112.603463 
L 391.469913 111.398138 
L 398.883035 109.836012 
L 408.157644 107.626591 
L 412.428797 106.549416 
L 412.428797 106.549416 
" style="fill:none;stroke:#000000;stroke-linecap:square;stroke-opacity:0.7;stroke-width:1.2;"/>
   </g>
   <g id="line2d_15">
    <path clip-path="url(#p771725b969)" d="M 412.076495 67.4348 
L 398.152788 65.191725 
L 387.901006 63.712559 
L 380.035384 62.781268 
L 372.954323 62.155726 
L 364.834122 61.676827 
L 354.258638 61.310401 
L 343.090501 61.132951 
L 335.935108 61.225766 
L 330.212989 61.525012 
L 325.566613 61.980788 
L 321.608832 62.56306 
L 317.928617 63.304107 
L 314.42683 64.236638 
L 311.920483 65.087366 
L 309.239798 66.270781 
L 307.793338 67.201486 
L 307.429908 67.704746 
L 307.548792 67.941512 
L 308.025033 68.091027 
L 309.243782 68.13262 
L 312.518344 67.891059 
L 328.751026 66.342839 
L 335.58438 65.991848 
L 340.59642 65.929994 
L 345.517389 66.054881 
L 351.246409 66.413162 
L 369.94763 67.841984 
L 377.784449 68.082289 
L 387.291317 68.114591 
L 405.251243 67.880442 
L 412.11507 67.773113 
L 412.11507 67.773113 
" style="fill:none;stroke:#000000;stroke-linecap:square;stroke-opacity:0.7;stroke-width:1.2;"/>
   </g>
   <g id="line2d_16">
    <path clip-path="url(#p771725b969)" d="M 543.527192 225.180066 
L 531.395319 223.112967 
L 518.25433 221.075094 
L 509.661934 219.940467 
L 501.323685 219.064489 
L 493.515486 218.453353 
L 483.881304 217.942476 
L 475.238267 217.7068 
L 468.561227 217.725562 
L 462.914613 217.949638 
L 457.857402 218.378797 
L 454.688818 218.791423 
L 449.999239 219.669013 
L 446.409512 220.631229 
L 443.448932 221.710894 
L 441.987508 222.395451 
L 440.096957 223.578026 
L 439.179533 224.500477 
L 438.943163 224.931744 
L 438.897596 225.66968 
L 439.078896 226.027052 
L 439.679258 226.564859 
L 441.026834 227.189086 
L 442.622372 227.64826 
L 445.577041 228.217198 
L 449.882471 228.774634 
L 456.210549 229.357057 
L 469.398969 230.292647 
L 481.673752 230.986563 
L 489.223049 231.18363 
L 495.903502 231.117768 
L 502.487658 230.809389 
L 508.841888 230.297949 
L 516.936076 229.402804 
L 527.558137 227.963275 
L 542.400822 225.697788 
L 543.537836 225.515114 
L 543.537836 225.515114 
" style="fill:none;stroke:#000000;stroke-linecap:square;stroke-opacity:0.7;stroke-width:1.2;"/>
   </g>
   <g id="line2d_17">
    <path clip-path="url(#p771725b969)" d="M 543.636436 185.295888 
L 534.573869 183.73152 
L 522.499952 181.875236 
L 512.422898 180.557037 
L 503.426337 179.622994 
L 494.56119 178.95664 
L 486.568548 178.577404 
L 478.984826 178.415811 
L 471.635421 178.465074 
L 465.368354 178.707035 
L 459.58679 179.14527 
L 454.388488 179.775074 
L 450.576548 180.428608 
L 447.182431 181.199957 
L 444.560677 181.971695 
L 441.98082 182.978027 
L 440.642344 183.685135 
L 439.569129 184.496485 
L 439.095517 185.149842 
L 439.034497 185.806118 
L 439.166591 186.102658 
L 439.498031 186.478548 
L 440.15297 186.920885 
L 441.432765 187.469057 
L 443.047892 187.939569 
L 445.941478 188.511302 
L 449.808043 188.987631 
L 453.95976 189.273196 
L 458.560361 189.394725 
L 464.762738 189.309043 
L 470.851536 189.003629 
L 478.86162 188.349817 
L 491.00907 187.060696 
L 502.057078 185.960794 
L 509.339099 185.463276 
L 516.042033 185.211348 
L 523.206925 185.137926 
L 532.977918 185.2803 
L 543.664473 185.652004 
L 543.664473 185.652004 
" style="fill:none;stroke:#000000;stroke-linecap:square;stroke-opacity:0.7;stroke-width:1.2;"/>
   </g>
   <g id="line2d_18">
    <path clip-path="url(#p771725b969)" d="M 543.646822 145.975529 
L 502.200997 143.337503 
L 486.864874 142.2228 
L 469.257569 140.861914 
L 463.302708 140.664311 
L 458.683412 140.712893 
L 454.430327 140.962368 
L 450.967013 141.348285 
L 447.459402 141.957683 
L 445.161013 142.520305 
L 443.181969 143.159292 
L 441.52304 143.876869 
L 440.178178 144.714269 
L 439.400891 145.526225 
L 439.116394 146.25098 
L 439.164016 146.845151 
L 439.581522 147.592542 
L 440.285878 148.251501 
L 441.495937 149.001946 
L 443.727933 149.942626 
L 445.948515 150.610159 
L 448.952706 151.270001 
L 451.848806 151.72441 
L 455.959026 152.145181 
L 460.576313 152.373937 
L 465.884859 152.380177 
L 471.375175 152.142988 
L 477.62118 151.61285 
L 483.661689 150.876554 
L 492.66183 149.505996 
L 504.039242 147.779321 
L 509.60666 147.130063 
L 515.764606 146.622557 
L 522.834402 146.293538 
L 530.78405 146.174383 
L 539.803817 146.259481 
L 543.667601 146.348111 
L 543.667601 146.348111 
" style="fill:none;stroke:#000000;stroke-linecap:square;stroke-opacity:0.7;stroke-width:1.2;"/>
   </g>
   <g id="line2d_19">
    <path clip-path="url(#p771725b969)" d="M 543.793274 106.265567 
L 536.088088 104.567115 
L 525.615544 102.489672 
L 515.746283 100.763611 
L 507.359906 99.500746 
L 498.580396 98.389322 
L 490.526689 97.588453 
L 483.202796 97.111856 
L 476.940907 96.966904 
L 472.077606 97.061462 
L 466.989917 97.382396 
L 462.06595 97.931305 
L 457.124542 98.741439 
L 453.311839 99.564783 
L 449.405629 100.618455 
L 446.370774 101.623137 
L 443.596958 102.7528 
L 441.468962 103.87973 
L 440.436009 104.633441 
L 439.783154 105.375402 
L 439.60669 105.784608 
L 439.637176 106.394562 
L 439.950101 106.864513 
L 440.566333 107.327315 
L 442.065869 107.961033 
L 444.545835 108.567301 
L 448.220504 109.103696 
L 453.661576 109.554114 
L 460.167943 109.817074 
L 468.048978 109.889983 
L 476.490535 109.73616 
L 484.654978 109.372252 
L 494.041952 108.714385 
L 516.183526 106.998814 
L 525.188863 106.629769 
L 534.044433 106.484098 
L 543.805961 106.5367 
L 543.805961 106.5367 
" style="fill:none;stroke:#000000;stroke-linecap:square;stroke-opacity:0.7;stroke-width:1.2;"/>
   </g>
   <g id="line2d_20">
    <path clip-path="url(#p771725b969)" d="M 543.923384 66.536127 
L 532.354702 64.204365 
L 515.798849 61.109968 
L 500.891356 58.518555 
L 492.217591 57.198844 
L 485.278664 56.351675 
L 479.514043 55.862654 
L 474.3048 55.644907 
L 469.619643 55.675279 
L 465.305643 55.930282 
L 461.87214 56.314654 
L 458.291463 56.913578 
L 454.404182 57.831477 
L 451.140762 58.860603 
L 448.90752 59.731377 
L 445.992187 61.13008 
L 443.535701 62.633992 
L 442.181108 63.668771 
L 440.842031 64.97891 
L 440.247691 65.787395 
L 439.826736 66.814745 
L 439.821567 67.381867 
L 439.992347 67.835905 
L 440.498366 68.37164 
L 441.221697 68.771193 
L 442.486817 69.169536 
L 443.871947 69.423404 
L 446.853107 69.685078 
L 450.1465 69.745685 
L 455.796306 69.560555 
L 462.823577 69.039973 
L 471.719077 68.135459 
L 488.156397 66.420503 
L 496.241455 65.846589 
L 503.632243 65.554889 
L 511.251735 65.482396 
L 519.242572 65.624458 
L 528.967845 66.028231 
L 542.193086 66.826016 
L 543.92324 66.942598 
L 543.92324 66.942598 
" style="fill:none;stroke:#000000;stroke-linecap:square;stroke-opacity:0.7;stroke-width:1.2;"/>
   </g>
   <g id="line2d_21">
    <path clip-path="url(#p771725b969)" d="M 675.490909 224.29563 
L 668.156147 222.808769 
L 658.69379 221.135145 
L 650.258038 219.876138 
L 642.15589 218.897786 
L 634.052638 218.142649 
L 625.597949 217.577876 
L 616.896604 217.235946 
L 609.090788 217.171807 
L 602.880264 217.34074 
L 597.277186 217.718287 
L 591.859354 218.339488 
L 587.784665 219.004878 
L 583.789975 219.851888 
L 579.412173 221.050824 
L 575.848163 222.311191 
L 573.106212 223.571868 
L 571.901085 224.292301 
L 570.826005 225.223476 
L 570.557461 225.835946 
L 570.616455 226.110982 
L 570.946169 226.467284 
L 571.515789 226.754312 
L 573.092867 227.161452 
L 575.021741 227.437094 
L 579.442415 227.801469 
L 600.99072 229.223792 
L 609.283446 230.184007 
L 621.794522 231.705315 
L 627.35999 232.153051 
L 633.021627 232.36336 
L 638.113202 232.309989 
L 642.92824 232.030713 
L 647.761425 231.516373 
L 652.340344 230.810872 
L 657.3951 229.795786 
L 663.068815 228.394568 
L 669.05711 226.675643 
L 675.473903 224.636954 
L 675.473903 224.636954 
" style="fill:none;stroke:#000000;stroke-linecap:square;stroke-opacity:0.7;stroke-width:1.2;"/>
   </g>
   <g id="line2d_22">
    <path clip-path="url(#p771725b969)" d="M 675.130139 185.53143 
L 643.632963 181.514364 
L 635.473058 180.83732 
L 626.401886 180.339283 
L 613.950854 179.91978 
L 604.832049 179.800026 
L 598.629402 179.90981 
L 593.022595 180.218906 
L 588.462188 180.654728 
L 583.431518 181.364097 
L 578.768038 182.286852 
L 575.205111 183.236831 
L 572.823442 184.083932 
L 571.217209 184.903885 
L 570.629154 185.406763 
L 570.424439 185.913092 
L 570.539576 186.226041 
L 570.810035 186.48956 
L 571.565617 186.882378 
L 573.125195 187.344897 
L 576.447027 187.923674 
L 580.813943 188.402834 
L 587.189247 188.884447 
L 604.581447 189.875328 
L 617.632634 190.496166 
L 624.906183 190.625476 
L 630.959787 190.542175 
L 637.203633 190.259802 
L 644.60198 189.685968 
L 652.853583 188.808657 
L 664.83762 187.281024 
L 675.137824 185.858159 
L 675.137824 185.858159 
" style="fill:none;stroke:#000000;stroke-linecap:square;stroke-opacity:0.7;stroke-width:1.2;"/>
   </g>
   <g id="line2d_23">
    <path clip-path="url(#p771725b969)" d="M 675.360441 145.463392 
L 669.201825 143.690089 
L 661.46983 141.677727 
L 653.432947 139.795848 
L 645.105661 138.06379 
L 636.27907 136.448226 
L 627.603193 135.078811 
L 620.440892 134.153776 
L 614.182232 133.552786 
L 608.929142 133.240688 
L 603.265459 133.147214 
L 598.229749 133.320725 
L 593.41025 133.763617 
L 589.878873 134.29822 
L 586.54257 135.004325 
L 583.505893 135.857375 
L 580.337525 137.023318 
L 577.718232 138.275595 
L 575.630174 139.543843 
L 573.974082 140.812335 
L 572.574066 142.200937 
L 571.847742 143.144489 
L 571.026602 144.745704 
L 570.769131 146.008853 
L 570.870825 147.125093 
L 571.151493 147.893881 
L 571.659418 148.69278 
L 572.061448 149.145434 
L 573.521511 150.277472 
L 575.03693 151.059253 
L 577.055205 151.798246 
L 580.012922 152.523943 
L 582.535383 152.927002 
L 585.798902 153.242628 
L 590.067336 153.39298 
L 594.725868 153.294142 
L 599.874351 152.927314 
L 605.457961 152.274235 
L 611.129213 151.385098 
L 618.159654 150.050273 
L 633.615865 146.998074 
L 638.684655 146.236681 
L 644.431239 145.623595 
L 650.201743 145.276021 
L 655.904092 145.157594 
L 663.309542 145.253345 
L 672.667299 145.645885 
L 675.369443 145.799947 
L 675.369443 145.799947 
" style="fill:none;stroke:#000000;stroke-linecap:square;stroke-opacity:0.7;stroke-width:1.2;"/>
   </g>
   <g id="line2d_24">
    <path clip-path="url(#p771725b969)" d="M 675.179683 106.479672 
L 665.79432 104.024295 
L 654.874805 101.378647 
L 646.069357 99.482293 
L 637.729384 97.944659 
L 629.102594 96.61079 
L 620.647291 95.54389 
L 613.487109 94.866448 
L 607.796698 94.536159 
L 603.16994 94.452907 
L 598.531366 94.584369 
L 594.045409 94.966451 
L 590.770184 95.43753 
L 587.23911 96.163789 
L 584.136426 97.025975 
L 581.092387 98.122991 
L 578.208743 99.457876 
L 575.606149 101.011085 
L 574.038209 102.195262 
L 572.782959 103.385299 
L 571.798357 104.666399 
L 571.291833 105.867474 
L 571.282571 106.728201 
L 571.488993 107.237125 
L 571.843763 107.663581 
L 572.71203 108.226772 
L 573.771935 108.617902 
L 575.292715 108.959209 
L 578.00915 109.286573 
L 582.005452 109.474036 
L 587.626064 109.463858 
L 595.292892 109.191138 
L 605.221403 108.602433 
L 621.11301 107.403845 
L 634.383922 106.450114 
L 643.200734 106.060924 
L 650.802538 105.959791 
L 659.518481 106.092959 
L 669.939707 106.511088 
L 675.197191 106.796195 
L 675.197191 106.796195 
" style="fill:none;stroke:#000000;stroke-linecap:square;stroke-opacity:0.7;stroke-width:1.2;"/>
   </g>
   <g id="line2d_25">
    <path clip-path="url(#p771725b969)" d="M 675.370207 66.424058 
L 664.526369 65.174949 
L 650.809188 63.805947 
L 605.170238 59.682981 
L 599.443458 59.497925 
L 594.650663 59.578527 
L 590.485707 59.863477 
L 586.108625 60.416743 
L 582.602826 61.08135 
L 578.898772 62.050432 
L 575.854942 63.127855 
L 574.197118 63.877893 
L 572.559615 64.821966 
L 571.47263 65.700381 
L 570.942488 66.384131 
L 570.797803 66.716631 
L 570.788923 67.464115 
L 571.047515 67.935964 
L 571.405395 68.293879 
L 572.290176 68.850907 
L 573.868321 69.47337 
L 575.811409 69.984673 
L 579.074402 70.542002 
L 583.580274 70.95724 
L 588.803581 71.098681 
L 593.151273 71.00248 
L 598.555292 70.65897 
L 604.66877 70.023181 
L 611.330853 69.112132 
L 629.795068 66.444974 
L 636.348077 65.837165 
L 641.917921 65.551434 
L 648.721887 65.474987 
L 656.004641 65.65546 
L 665.579362 66.1626 
L 675.382092 66.866008 
L 675.382092 66.866008 
" style="fill:none;stroke:#000000;stroke-linecap:square;stroke-opacity:0.7;stroke-width:1.2;"/>
   </g>
  </g>
 </g>
 <defs>
  <clipPath id="p771725b969">
   <rect height="262.08" width="694.08" x="12.96" y="12.96"/>
  </clipPath>
 </defs>
</svg>
