<?xml version="1.0" encoding="utf-8" standalone="no"?>
<!DOCTYPE svg PUBLIC "-//W3C//DTD SVG 1.1//EN"
  "http://www.w3.org/Graphics/SVG/1.1/DTD/svg11.dtd">
<!-- Created with matplotlib (https://matplotlib.org/) -->
<svg height="288pt" version="1.1" viewBox="0 0 720 288" width="720pt" xmlns="http://www.w3.org/2000/svg" xmlns:xlink="http://www.w3.org/1999/xlink">
 <metadata>
  <rdf:RDF xmlns:cc="http://creativecommons.org/ns#" xmlns:dc="http://purl.org/dc/elements/1.1/" xmlns:rdf="http://www.w3.org/1999/02/22-rdf-syntax-ns#">
   <cc:Work>
    <dc:type rdf:resource="http://purl.org/dc/dcmitype/StillImage"/>
    <dc:date>2020-12-21T22:06:56.672150</dc:date>
    <dc:format>image/svg+xml</dc:format>
    <dc:creator>
     <cc:Agent>
      <dc:title>Matplotlib v3.3.2, https://matplotlib.org/</dc:title>
     </cc:Agent>
    </dc:creator>
   </cc:Work>
  </rdf:RDF>
 </metadata>
 <defs>
  <style type="text/css">*{stroke-linecap:butt;stroke-linejoin:round;}</style>
 </defs>
 <g id="figure_1">
  <g id="patch_1">
   <path d="M 0 288 
L 720 288 
L 720 0 
L 0 0 
z
" style="fill:#ffffff;"/>
  </g>
  <g id="axes_1">
   <g id="line2d_1">
    <path clip-path="url(#p603a67b31a)" d="M 149.453539 220.4103 
L 142.155277 219.712237 
L 134.748141 218.79516 
L 126.27258 217.522254 
L 96.698159 212.807491 
L 89.641122 212.022956 
L 84.331817 211.649877 
L 80.709754 211.560927 
L 76.850617 211.665918 
L 72.713661 212.041377 
L 69.212397 212.570527 
L 64.713326 213.510164 
L 60.494354 214.639981 
L 56.512249 215.939479 
L 52.528101 217.530179 
L 49.930586 218.814934 
L 48.228318 219.862154 
L 46.960698 220.890457 
L 46.276776 221.722943 
L 45.951625 222.813127 
L 46.126667 223.44141 
L 46.833715 224.242594 
L 47.399987 224.625026 
L 48.623 225.214508 
L 51.190872 226.030777 
L 53.000088 226.446051 
L 56.109271 226.996741 
L 61.690416 227.687079 
L 68.315358 228.230587 
L 77.612548 228.742003 
L 84.318774 228.95898 
L 91.436936 228.982796 
L 98.643305 228.75417 
L 105.106478 228.31972 
L 111.390803 227.690332 
L 119.972739 226.572176 
L 149.363652 222.355931 
L 149.363652 222.355931 
" style="fill:none;stroke:#000000;stroke-linecap:square;stroke-opacity:0.7;stroke-width:1.2;"/>
   </g>
   <g id="line2d_2">
    <path clip-path="url(#p603a67b31a)" d="M 149.732936 180.685615 
L 148.127794 180.492439 
L 143.798901 180.307237 
L 131.516188 179.916336 
L 123.885345 179.412885 
L 114.460089 178.545698 
L 98.16613 177.048004 
L 87.320894 176.291657 
L 79.535337 175.959284 
L 74.098501 175.961904 
L 69.389171 176.193247 
L 64.515922 176.685883 
L 59.560534 177.475865 
L 55.372144 178.406419 
L 52.849418 179.110488 
L 49.711161 180.193275 
L 47.917237 180.968291 
L 45.956223 182.082403 
L 45.069842 182.851515 
L 44.716046 183.445993 
L 44.707821 183.89415 
L 44.839017 184.149729 
L 45.491997 184.629156 
L 46.562449 184.974093 
L 48.254605 185.227282 
L 51.670753 185.339983 
L 54.067188 185.26334 
L 60.216206 184.766258 
L 77.146244 183.002493 
L 81.180549 182.930324 
L 85.961543 183.109114 
L 92.480944 183.65255 
L 108.122197 185.156762 
L 114.249682 185.464176 
L 119.326589 185.493474 
L 124.148762 185.321767 
L 130.418979 184.844984 
L 137.77186 184.015385 
L 149.711167 182.456895 
L 149.711167 182.456895 
" style="fill:none;stroke:#000000;stroke-linecap:square;stroke-opacity:0.7;stroke-width:1.2;"/>
   </g>
   <g id="line2d_3">
    <path clip-path="url(#p603a67b31a)" d="M 150.094039 138.867565 
L 148.246741 138.82297 
L 145.725888 138.594904 
L 135.958509 137.33261 
L 126.404896 136.186673 
L 117.845393 135.368615 
L 101.819317 134.123406 
L 82.491795 132.766442 
L 77.599399 132.621129 
L 74.294012 132.670854 
L 71.088249 132.862335 
L 66.111768 133.442637 
L 61.653598 134.250708 
L 58.654202 134.959325 
L 54.950237 136.054837 
L 53.02257 136.746848 
L 51.009128 137.589479 
L 47.981399 139.210754 
L 45.246572 141.593559 
L 44.654162 142.680575 
L 44.509554 143.360886 
L 44.554118 144.025179 
L 44.813027 144.704924 
L 45.386608 145.451136 
L 46.062184 146.016423 
L 48.033444 147.062878 
L 49.861748 147.697081 
L 52.790191 148.404997 
L 56.272036 148.97615 
L 61.329281 149.51936 
L 67.164838 149.909262 
L 73.477929 150.134815 
L 79.802505 150.136662 
L 85.778928 149.928317 
L 93.081424 149.450908 
L 100.064351 148.801682 
L 108.477336 147.773136 
L 116.658904 146.50969 
L 127.149071 144.598659 
L 148.855631 140.311969 
L 150.06811 140.054253 
L 150.06811 140.054253 
" style="fill:none;stroke:#000000;stroke-linecap:square;stroke-opacity:0.7;stroke-width:1.2;"/>
   </g>
   <g id="line2d_4">
    <path clip-path="url(#p603a67b31a)" d="M 149.320447 103.671101 
L 146.610735 103.21645 
L 140.424873 102.526467 
L 132.013372 101.585283 
L 126.342159 100.717897 
L 121.633583 99.779581 
L 116.337712 98.499299 
L 96.438445 93.375318 
L 92.850604 92.723782 
L 88.935752 92.217334 
L 85.573027 91.987049 
L 82.57192 91.958478 
L 80.139979 92.060436 
L 76.047927 92.473008 
L 72.139128 93.118752 
L 67.566711 94.134486 
L 64.255904 95.018449 
L 59.146387 96.600258 
L 55.170468 98.015013 
L 50.984327 99.721967 
L 47.905819 101.220707 
L 46.600392 101.999381 
L 45.407461 102.978863 
L 45.125635 103.442673 
L 45.196663 103.929832 
L 45.587452 104.22041 
L 46.534594 104.480111 
L 48.815898 104.603422 
L 52.038501 104.402075 
L 55.799179 103.915014 
L 61.887224 102.799925 
L 74.163641 100.324777 
L 76.921122 100.021803 
L 79.896389 99.906546 
L 83.743537 100.059213 
L 89.13358 100.655998 
L 97.716343 101.953524 
L 104.914638 103.005819 
L 111.912824 103.816221 
L 118.369645 104.317242 
L 126.180463 104.653188 
L 140.246051 104.94252 
L 149.510889 105.093504 
L 149.510889 105.093504 
" style="fill:none;stroke:#000000;stroke-linecap:square;stroke-opacity:0.7;stroke-width:1.2;"/>
   </g>
   <g id="line2d_5">
    <path clip-path="url(#p603a67b31a)" d="M 149.459603 63.642792 
L 146.978202 63.690841 
L 141.844697 63.524358 
L 134.511799 63.078921 
L 124.848647 62.281269 
L 100.284461 60.102952 
L 93.673647 59.789986 
L 86.177285 59.675171 
L 79.756315 59.806697 
L 73.771151 60.154218 
L 68.914101 60.623334 
L 63.02512 61.438817 
L 57.853309 62.396184 
L 53.418287 63.446525 
L 50.527966 64.314326 
L 48.155664 65.256783 
L 47.05208 65.888364 
L 46.420571 66.496025 
L 46.276161 66.966146 
L 46.48796 67.429903 
L 46.824034 67.715971 
L 48.983474 68.572808 
L 50.08228 68.842498 
L 54.763706 69.647565 
L 61.369471 70.419544 
L 71.237524 71.292864 
L 80.910489 71.941861 
L 84.781876 72.071342 
L 90.810095 72.005409 
L 95.9894 71.693117 
L 102.593837 71.026208 
L 110.406628 69.946488 
L 132.729388 66.573575 
L 139.554534 65.936993 
L 144.59398 65.651328 
L 149.486383 65.576149 
L 149.486383 65.576149 
" style="fill:none;stroke:#000000;stroke-linecap:square;stroke-opacity:0.7;stroke-width:1.2;"/>
   </g>
   <g id="line2d_6">
    <path clip-path="url(#p603a67b31a)" d="M 281.680732 221.304381 
L 275.869911 219.640829 
L 267.255883 217.242515 
L 260.652445 215.604016 
L 255.179837 214.423817 
L 248.81043 213.293046 
L 242.433938 212.450494 
L 236.973639 211.961179 
L 230.328994 211.628587 
L 223.63332 211.53756 
L 217.025566 211.64423 
L 209.918017 211.983955 
L 205.574795 212.363499 
L 200.642536 213.033143 
L 195.967208 213.939866 
L 191.113483 215.167374 
L 187.14303 216.401287 
L 184.207606 217.474963 
L 180.785777 218.984558 
L 179.502725 219.6695 
L 177.410665 221.094341 
L 176.539983 221.971637 
L 176.033553 222.786058 
L 175.843069 223.424973 
L 175.834507 224.072602 
L 176.080768 224.883809 
L 176.897187 226.02365 
L 177.109416 226.236092 
L 178.706062 227.459334 
L 180.453195 228.426583 
L 183.673808 229.741085 
L 186.892156 230.698177 
L 189.702585 231.335797 
L 194.099637 232.053782 
L 197.481401 232.402342 
L 199.81534 232.526005 
L 201.649484 232.539692 
L 207.014749 232.090475 
L 209.235668 231.705426 
L 213.464569 230.735165 
L 218.541905 229.301905 
L 233.456357 224.831804 
L 238.231059 223.727863 
L 242.610881 222.976824 
L 247.033619 222.475976 
L 251.274773 222.211621 
L 256.614514 222.124656 
L 262.456681 222.274074 
L 268.818578 222.654877 
L 276.314837 223.312278 
L 281.616528 223.867025 
L 281.616528 223.867025 
" style="fill:none;stroke:#000000;stroke-linecap:square;stroke-opacity:0.7;stroke-width:1.2;"/>
   </g>
   <g id="line2d_7">
    <path clip-path="url(#p603a67b31a)" d="M 280.630362 181.763881 
L 278.178284 180.86856 
L 275.218418 179.979304 
L 269.341502 178.493633 
L 262.696086 177.075516 
L 254.758678 175.614817 
L 244.906055 174.049111 
L 236.363879 172.919732 
L 230.009853 172.291591 
L 225.122431 171.994648 
L 220.907202 171.910183 
L 216.288567 172.02953 
L 211.276756 172.414255 
L 205.722242 173.120998 
L 200.149054 174.089481 
L 194.493462 175.329457 
L 189.520093 176.666558 
L 185.881287 177.841187 
L 182.192134 179.299187 
L 180.162328 180.306037 
L 178.673881 181.239354 
L 177.53416 182.242785 
L 177.032606 182.992702 
L 176.878679 183.782938 
L 177.185339 184.577456 
L 177.73691 185.130514 
L 178.171051 185.424593 
L 179.728563 186.119872 
L 181.815448 186.665726 
L 183.861329 186.984925 
L 187.434645 187.228398 
L 191.095269 187.18613 
L 194.8976 186.910276 
L 199.683997 186.325804 
L 215.026349 184.202119 
L 222.956682 183.439562 
L 233.906934 182.622929 
L 243.828202 182.08648 
L 251.581808 181.892703 
L 257.351015 181.946867 
L 263.353663 182.221332 
L 269.347334 182.73493 
L 274.923918 183.457657 
L 279.565082 184.302063 
L 280.603168 184.533568 
L 280.603168 184.533568 
" style="fill:none;stroke:#000000;stroke-linecap:square;stroke-opacity:0.7;stroke-width:1.2;"/>
   </g>
   <g id="line2d_8">
    <path clip-path="url(#p603a67b31a)" d="M 280.584901 141.540746 
L 275.852828 140.727983 
L 258.427 137.376171 
L 248.456826 135.594088 
L 242.02136 134.648927 
L 235.603711 133.942685 
L 229.667616 133.524496 
L 223.888483 133.35017 
L 220.137729 133.373759 
L 214.094669 133.675071 
L 209.553021 134.141274 
L 204.484611 134.909137 
L 198.472235 136.114234 
L 192.418247 137.574305 
L 185.730407 139.431613 
L 181.511099 140.796188 
L 178.814332 141.866076 
L 177.943839 142.299076 
L 176.685463 143.210028 
L 176.412718 143.681535 
L 176.435689 144.114961 
L 176.817162 144.603146 
L 177.65694 145.105545 
L 178.593883 145.47003 
L 182.32779 146.341724 
L 184.782831 146.695921 
L 188.445795 147.051526 
L 193.657125 147.305444 
L 199.414098 147.320864 
L 205.698262 147.083607 
L 213.053902 146.555744 
L 222.30209 145.643747 
L 233.553254 144.309098 
L 248.856993 142.46703 
L 254.462863 142.002341 
L 259.575909 141.786803 
L 264.706495 141.802762 
L 269.745797 142.062797 
L 274.362762 142.538978 
L 278.763519 143.249862 
L 280.555233 143.628714 
L 280.555233 143.628714 
" style="fill:none;stroke:#000000;stroke-linecap:square;stroke-opacity:0.7;stroke-width:1.2;"/>
   </g>
   <g id="line2d_9">
    <path clip-path="url(#p603a67b31a)" d="M 281.042976 102.436771 
L 249.189699 96.312474 
L 241.021938 95.026035 
L 233.677571 94.077509 
L 225.570223 93.26889 
L 219.210525 92.836073 
L 213.987922 92.667508 
L 209.204716 92.73893 
L 205.748737 92.977368 
L 201.735984 93.495204 
L 198.51318 94.116489 
L 193.913149 95.337542 
L 190.958142 96.341777 
L 186.778189 98.096152 
L 184.772937 99.104241 
L 181.906603 100.800188 
L 180.969831 101.444062 
L 179.514452 102.582847 
L 177.94832 104.188814 
L 177.294149 105.336413 
L 177.229591 105.56457 
L 177.200431 106.134607 
L 177.420086 106.692967 
L 177.948094 107.200718 
L 178.919327 107.681571 
L 179.914161 107.986885 
L 182.772119 108.516801 
L 188.254277 109.128796 
L 206.350795 110.798528 
L 211.326461 110.830962 
L 216.721682 110.54337 
L 221.77304 110.079544 
L 229.121454 109.192169 
L 239.833583 107.617698 
L 253.034156 105.654663 
L 261.080639 104.727564 
L 268.145071 104.140551 
L 274.848551 103.799154 
L 280.722667 103.750245 
L 281.160164 103.762371 
L 281.160164 103.762371 
" style="fill:none;stroke:#000000;stroke-linecap:square;stroke-opacity:0.7;stroke-width:1.2;"/>
   </g>
   <g id="line2d_10">
    <path clip-path="url(#p603a67b31a)" d="M 281.529899 61.386917 
L 278.421517 61.245136 
L 264.717376 60.854884 
L 257.31829 60.371237 
L 248.909294 59.564956 
L 230.769429 57.651016 
L 223.388603 57.206765 
L 217.809805 57.107149 
L 212.167285 57.247696 
L 206.245611 57.663197 
L 199.313194 58.429226 
L 191.706851 59.504591 
L 185.878127 60.541401 
L 182.54493 61.332437 
L 180.932447 61.854612 
L 179.818345 62.359056 
L 179.092821 62.878393 
L 178.714865 63.52318 
L 178.75025 63.951881 
L 179.046159 64.425567 
L 179.988058 65.099652 
L 180.238413 65.22102 
L 181.36009 65.634203 
L 183.635894 66.112675 
L 186.077399 66.341537 
L 189.991906 66.393011 
L 199.852485 66.269692 
L 203.528433 66.479492 
L 207.347123 66.877573 
L 222.15235 68.684178 
L 227.32176 69.000092 
L 232.398156 69.057988 
L 237.526945 68.854907 
L 242.959329 68.384558 
L 250.281759 67.473366 
L 269.588743 64.876495 
L 281.524743 63.558792 
L 281.524743 63.558792 
" style="fill:none;stroke:#000000;stroke-linecap:square;stroke-opacity:0.7;stroke-width:1.2;"/>
   </g>
   <g id="line2d_11">
    <path clip-path="url(#p603a67b31a)" d="M 412.463363 221.948129 
L 409.166775 221.224905 
L 398.562917 219.295945 
L 384.276498 216.874146 
L 375.290999 215.548313 
L 368.268545 214.729923 
L 361.406661 214.164843 
L 354.62452 213.842086 
L 349.263894 213.751122 
L 343.542472 213.826753 
L 338.369924 214.089397 
L 334.876509 214.410835 
L 330.60962 215.018065 
L 326.884233 215.787368 
L 322.895461 216.896057 
L 319.526551 218.089467 
L 316.118291 219.597514 
L 313.646358 221.009043 
L 312.515538 221.870593 
L 311.821329 222.633939 
L 311.502615 223.453781 
L 311.546358 223.846188 
L 311.917811 224.464538 
L 312.61799 225.042867 
L 313.335776 225.465371 
L 314.805173 226.145825 
L 317.019344 226.983906 
L 322.881139 228.845844 
L 329.317494 230.636585 
L 333.750506 231.705766 
L 336.993384 232.341302 
L 340.809883 232.839841 
L 343.236561 232.977144 
L 346.743093 232.911625 
L 350.061876 232.596235 
L 352.954865 232.169894 
L 359.318202 230.932249 
L 369.658732 228.579611 
L 380.731057 226.110413 
L 388.028849 224.704209 
L 393.897215 223.810378 
L 398.723059 223.307416 
L 403.007499 223.09336 
L 405.98822 223.105138 
L 409.438022 223.319215 
L 412.457694 223.714466 
L 412.457694 223.714466 
" style="fill:none;stroke:#000000;stroke-linecap:square;stroke-opacity:0.7;stroke-width:1.2;"/>
   </g>
   <g id="line2d_12">
    <path clip-path="url(#p603a67b31a)" d="M 412.443925 180.541473 
L 410.18365 180.445703 
L 406.232235 180.046268 
L 399.603164 179.094128 
L 391.212009 177.620279 
L 366.862973 173.164398 
L 357.679066 171.789266 
L 350.763475 170.970027 
L 346.323425 170.629486 
L 342.691744 170.533552 
L 339.181274 170.658657 
L 335.665649 171.039458 
L 332.434195 171.624409 
L 329.542414 172.330863 
L 325.597156 173.554204 
L 322.312522 174.791404 
L 318.609546 176.434213 
L 316.821149 177.335467 
L 313.053153 179.553919 
L 310.505373 181.503081 
L 309.36296 182.703654 
L 308.659892 183.880719 
L 308.501128 184.549903 
L 308.626384 185.368237 
L 309.053835 186.008517 
L 309.487589 186.384436 
L 310.327884 186.872334 
L 312.109021 187.495625 
L 314.270079 187.928653 
L 317.028379 188.223587 
L 320.582387 188.348742 
L 325.187269 188.227172 
L 330.969838 187.751992 
L 337.023779 186.990398 
L 353.27222 184.765942 
L 362.932995 183.753548 
L 372.553004 182.969493 
L 380.838592 182.510944 
L 389.292001 182.278575 
L 412.485915 181.969427 
L 412.485915 181.969427 
" style="fill:none;stroke:#000000;stroke-linecap:square;stroke-opacity:0.7;stroke-width:1.2;"/>
   </g>
   <g id="line2d_13">
    <path clip-path="url(#p603a67b31a)" d="M 412.416499 141.655659 
L 408.270132 141.469137 
L 401.919085 140.95324 
L 394.089568 140.076035 
L 385.427768 138.854781 
L 358.855707 134.825332 
L 351.807716 134.131865 
L 348.049169 133.895964 
L 344.388499 133.7876 
L 339.437665 133.860438 
L 334.344548 134.209268 
L 330.139627 134.710979 
L 325.869662 135.432507 
L 322.411392 136.193886 
L 319.20865 137.066486 
L 315.801569 138.215619 
L 313.062357 139.360572 
L 310.387522 140.770813 
L 309.240195 141.524531 
L 307.983266 142.561776 
L 307.338922 143.298069 
L 307.051296 143.771097 
L 306.846403 144.60147 
L 306.883286 144.864897 
L 307.503339 145.690629 
L 308.157762 146.034814 
L 309.230829 146.33888 
L 311.704111 146.560791 
L 314.179061 146.473174 
L 317.477368 146.11186 
L 331.107452 144.156359 
L 333.847181 144.022788 
L 338.663193 144.115359 
L 342.968077 144.463936 
L 361.837089 146.357377 
L 366.901354 146.516966 
L 370.330096 146.492665 
L 376.696709 146.181538 
L 383.281429 145.58904 
L 406.12239 143.245396 
L 412.465055 142.900787 
L 412.465055 142.900787 
" style="fill:none;stroke:#000000;stroke-linecap:square;stroke-opacity:0.7;stroke-width:1.2;"/>
   </g>
   <g id="line2d_14">
    <path clip-path="url(#p603a67b31a)" d="M 412.883545 101.260016 
L 410.334095 101.080208 
L 385.181541 98.963269 
L 341.503156 95.854568 
L 336.613275 95.8168 
L 333.229255 95.960463 
L 330.113298 96.225736 
L 326.216285 96.741022 
L 321.75316 97.596846 
L 317.906045 98.598598 
L 314.745303 99.66062 
L 311.2338 101.246278 
L 308.623046 103.144208 
L 308.051927 103.992576 
L 307.92398 104.649591 
L 308.059615 105.154738 
L 308.453196 105.653763 
L 309.055189 106.073679 
L 310.547291 106.657309 
L 311.910817 106.96705 
L 314.254982 107.268896 
L 317.904037 107.422007 
L 322.051066 107.321364 
L 327.570375 106.905036 
L 335.867697 105.972752 
L 343.760434 105.172462 
L 352.327655 104.60608 
L 387.566114 102.790419 
L 395.601991 102.595664 
L 401.860582 102.685333 
L 405.004991 102.866284 
L 408.677923 103.2568 
L 412.139089 103.885659 
L 412.926606 104.076893 
L 412.926606 104.076893 
" style="fill:none;stroke:#000000;stroke-linecap:square;stroke-opacity:0.7;stroke-width:1.2;"/>
   </g>
   <g id="line2d_15">
    <path clip-path="url(#p603a67b31a)" d="M 410.573875 63.755787 
L 407.404723 63.579489 
L 401.848079 63.036076 
L 390.003551 61.60001 
L 378.810912 60.292498 
L 370.834633 59.598497 
L 364.206188 59.227351 
L 355.542603 58.983065 
L 345.128458 58.94123 
L 337.564236 59.080353 
L 330.503121 59.444284 
L 325.168163 59.963933 
L 320.689506 60.650225 
L 317.840314 61.26522 
L 314.497192 62.273513 
L 312.526001 63.12113 
L 311.306216 63.836721 
L 310.579996 64.416499 
L 309.92225 65.306294 
L 309.836732 65.849207 
L 309.870758 66.012983 
L 310.328664 66.604749 
L 311.036279 66.960238 
L 312.135324 67.225419 
L 313.438713 67.353428 
L 315.591622 67.349893 
L 318.748923 67.099179 
L 325.004042 66.281775 
L 329.34784 65.725379 
L 334.916925 65.261896 
L 339.731417 65.163402 
L 345.123831 65.331267 
L 353.707487 65.903272 
L 364.84442 66.6454 
L 371.790362 66.900304 
L 379.418806 66.914699 
L 388.068503 66.65845 
L 410.772719 65.75866 
L 410.772719 65.75866 
" style="fill:none;stroke:#000000;stroke-linecap:square;stroke-opacity:0.7;stroke-width:1.2;"/>
   </g>
   <g id="line2d_16">
    <path clip-path="url(#p603a67b31a)" d="M 543.616632 221.138072 
L 537.913589 220.905332 
L 525.956729 220.182037 
L 512.165389 219.106393 
L 500.514844 218.249242 
L 492.496581 217.911901 
L 484.527986 217.835551 
L 476.004159 218.00779 
L 467.411717 218.434553 
L 459.651345 219.036964 
L 451.885571 219.871145 
L 446.716476 220.639765 
L 443.128688 221.392052 
L 441.217586 221.962864 
L 439.505813 222.775097 
L 439.160458 223.052664 
L 438.785957 223.863672 
L 438.815129 224.005663 
L 439.384013 224.704816 
L 440.403949 225.259568 
L 440.843396 225.430186 
L 443.210927 226.054024 
L 446.322 226.478786 
L 449.904544 226.649923 
L 454.014318 226.548333 
L 458.525779 226.153775 
L 464.365138 225.349435 
L 471.806104 224.289943 
L 476.275258 223.833977 
L 484.677238 223.267132 
L 498.434706 222.627504 
L 509.118492 222.308896 
L 518.827298 222.248531 
L 526.750624 222.407783 
L 533.741769 222.754057 
L 539.322375 223.25125 
L 543.481559 223.842304 
L 543.481559 223.842304 
" style="fill:none;stroke:#000000;stroke-linecap:square;stroke-opacity:0.7;stroke-width:1.2;"/>
   </g>
   <g id="line2d_17">
    <path clip-path="url(#p603a67b31a)" d="M 542.452951 180.588131 
L 533.978982 179.302545 
L 508.080519 175.027685 
L 500.59566 174.143867 
L 493.756983 173.523577 
L 486.35166 173.069687 
L 480.27312 172.918039 
L 474.696758 173.047151 
L 471.375567 173.295475 
L 468.071355 173.690999 
L 464.162585 174.348104 
L 459.163224 175.456834 
L 454.607692 176.702823 
L 449.696786 178.29806 
L 445.834168 179.767997 
L 442.63799 181.185749 
L 439.710459 182.801911 
L 438.624311 183.670771 
L 438.276803 184.292018 
L 438.512134 184.720191 
L 438.987224 184.931739 
L 439.415918 185.030573 
L 441.694362 185.175238 
L 443.879058 185.1069 
L 450.019252 184.615716 
L 457.859298 183.944158 
L 462.542707 183.721331 
L 467.432074 183.728526 
L 474.247475 184.091968 
L 487.948151 184.968276 
L 495.036949 185.179052 
L 502.816044 185.184093 
L 511.904854 184.941411 
L 525.601728 184.301878 
L 534.305173 183.730033 
L 539.620746 183.169663 
L 542.57215 182.702958 
L 542.57215 182.702958 
" style="fill:none;stroke:#000000;stroke-linecap:square;stroke-opacity:0.7;stroke-width:1.2;"/>
   </g>
   <g id="line2d_18">
    <path clip-path="url(#p603a67b31a)" d="M 543.738787 142.993321 
L 529.906809 141.538144 
L 519.885887 140.212184 
L 490.953914 136.149455 
L 484.210618 135.518241 
L 478.225729 135.193536 
L 472.775748 135.176524 
L 468.003308 135.439733 
L 463.648758 135.911596 
L 459.924389 136.465777 
L 454.479003 137.48999 
L 450.457202 138.430988 
L 446.926406 139.474751 
L 444.743463 140.329747 
L 443.619812 140.907169 
L 442.289664 141.927294 
L 441.868549 142.557875 
L 441.76911 143.264223 
L 442.052044 143.871868 
L 442.473511 144.258879 
L 443.514849 144.773133 
L 444.065291 144.942864 
L 447.917184 145.464661 
L 452.573095 145.578635 
L 462.480681 145.688748 
L 468.026113 146.006126 
L 472.84933 146.500138 
L 480.208268 147.528733 
L 487.714475 148.527835 
L 492.882034 148.991554 
L 498.447423 149.227541 
L 503.5086 149.203849 
L 509.797799 148.888362 
L 516.653791 148.267095 
L 543.836285 145.25759 
L 543.836285 145.25759 
" style="fill:none;stroke:#000000;stroke-linecap:square;stroke-opacity:0.7;stroke-width:1.2;"/>
   </g>
   <g id="line2d_19">
    <path clip-path="url(#p603a67b31a)" d="M 543.496293 101.519102 
L 540.864892 100.908236 
L 535.390086 99.936773 
L 528.967901 99.046542 
L 520.73162 98.141221 
L 510.143773 97.217715 
L 485.582882 95.374608 
L 477.381572 94.94729 
L 471.873245 94.887531 
L 467.93015 95.065593 
L 464.389445 95.459112 
L 460.22797 96.258624 
L 456.845218 97.172687 
L 453.491894 98.287138 
L 449.087097 100.048871 
L 447.074391 100.983649 
L 444.778748 102.203252 
L 442.613167 103.727962 
L 442.225576 104.17718 
L 442.056617 104.639933 
L 442.13447 104.905941 
L 442.722797 105.304298 
L 443.389151 105.488566 
L 445.044583 105.6992 
L 448.439602 105.803259 
L 454.559505 105.622586 
L 461.948688 105.092257 
L 471.023112 104.420189 
L 474.540243 104.343263 
L 479.658007 104.454237 
L 487.808716 104.92222 
L 501.221727 105.729229 
L 509.405913 105.98698 
L 515.668313 105.985396 
L 521.543963 105.80636 
L 529.338469 105.315368 
L 539.767345 104.345061 
L 543.661365 104.000809 
L 543.661365 104.000809 
" style="fill:none;stroke:#000000;stroke-linecap:square;stroke-opacity:0.7;stroke-width:1.2;"/>
   </g>
   <g id="line2d_20">
    <path clip-path="url(#p603a67b31a)" d="M 543.978668 63.568811 
L 541.719282 63.454645 
L 536.990667 62.915339 
L 528.93884 61.697476 
L 515.9736 59.453383 
L 503.910641 57.424889 
L 495.519123 56.269473 
L 489.060642 55.599333 
L 483.683153 55.219195 
L 478.377255 55.029587 
L 472.652485 55.058599 
L 466.830413 55.350736 
L 461.210652 55.890592 
L 456.511011 56.565783 
L 452.649097 57.321634 
L 449.014486 58.269487 
L 446.140035 59.265905 
L 443.168127 60.705837 
L 442.212001 61.336788 
L 441.361723 62.038949 
L 440.675239 62.802734 
L 440.075122 64.002902 
L 440.012806 64.96361 
L 440.232228 65.716048 
L 440.825523 66.616087 
L 441.622461 67.366208 
L 443.076445 68.310244 
L 444.954239 69.178628 
L 447.969486 70.173913 
L 451.357931 70.963602 
L 454.961967 71.564673 
L 459.42211 72.076928 
L 463.366173 72.378984 
L 470.517998 72.682208 
L 476.872753 72.733848 
L 483.065847 72.575331 
L 487.938363 72.296371 
L 495.0539 71.638899 
L 501.322702 70.824864 
L 509.463965 69.528489 
L 524.933477 67.014448 
L 533.223788 65.909147 
L 539.708021 65.23072 
L 543.893498 64.920499 
L 543.893498 64.920499 
" style="fill:none;stroke:#000000;stroke-linecap:square;stroke-opacity:0.7;stroke-width:1.2;"/>
   </g>
   <g id="line2d_21">
    <path clip-path="url(#p603a67b31a)" d="M 675.144033 219.650685 
L 659.312415 216.839572 
L 649.786672 215.443369 
L 639.793558 214.191853 
L 629.197085 213.090336 
L 619.092875 212.266408 
L 611.68552 211.859787 
L 605.739267 211.764153 
L 601.599113 211.923883 
L 597.7908 212.314389 
L 594.270772 212.902257 
L 590.315777 213.778873 
L 584.561709 215.310054 
L 576.622976 217.6584 
L 571.074013 219.445133 
L 568.33814 220.501454 
L 566.890469 221.292925 
L 566.30816 221.884123 
L 566.200474 222.300516 
L 566.220563 222.428042 
L 566.614365 222.987652 
L 567.572537 223.567418 
L 568.639082 223.983973 
L 570.924631 224.603173 
L 574.559024 225.243926 
L 578.710435 225.698218 
L 584.465878 226.009677 
L 589.493771 226.053701 
L 596.085262 225.880532 
L 612.507689 225.327477 
L 623.753594 224.989795 
L 635.427142 224.382526 
L 670.853152 222.064985 
L 675.198589 221.731226 
L 675.198589 221.731226 
" style="fill:none;stroke:#000000;stroke-linecap:square;stroke-opacity:0.7;stroke-width:1.2;"/>
   </g>
   <g id="line2d_22">
    <path clip-path="url(#p603a67b31a)" d="M 675.419771 182.075097 
L 669.233678 180.919689 
L 631.1668 173.845341 
L 625.138212 173.026979 
L 619.949987 172.549231 
L 615.777553 172.355028 
L 611.044948 172.377637 
L 606.700545 172.659 
L 602.508914 173.186401 
L 597.815263 174.057442 
L 592.380411 175.349796 
L 587.408511 176.738311 
L 582.830135 178.238753 
L 579.936496 179.400273 
L 579.396078 179.651671 
L 577.756076 180.54046 
L 576.315729 181.684174 
L 575.66417 182.940996 
L 575.756794 183.709387 
L 576.068304 184.284079 
L 576.75738 185.010633 
L 577.292491 185.420233 
L 578.881945 186.331763 
L 580.917259 187.176768 
L 582.929278 187.813657 
L 586.315775 188.58307 
L 589.691961 189.054796 
L 593.732827 189.315863 
L 598.220361 189.344471 
L 605.158053 189.111992 
L 614.805271 188.536513 
L 631.554596 187.271326 
L 661.019804 185.014951 
L 672.171694 184.35598 
L 675.289266 184.23975 
L 675.289266 184.23975 
" style="fill:none;stroke:#000000;stroke-linecap:square;stroke-opacity:0.7;stroke-width:1.2;"/>
   </g>
   <g id="line2d_23">
    <path clip-path="url(#p603a67b31a)" d="M 674.654291 142.557353 
L 668.142802 141.378917 
L 657.460313 139.662455 
L 647.518341 138.300188 
L 639.796226 137.443983 
L 632.316361 136.812051 
L 624.92513 136.381335 
L 616.953477 136.126315 
L 609.940902 136.0942 
L 602.978272 136.291104 
L 596.610958 136.748352 
L 592.092512 137.273781 
L 586.81256 138.127718 
L 581.594923 139.278133 
L 578.979575 140.017676 
L 576.169818 141.023677 
L 574.400994 141.883612 
L 573.211768 142.744663 
L 572.680245 143.505297 
L 572.643698 144.045561 
L 572.857584 144.46833 
L 573.34144 144.885489 
L 574.383903 145.357861 
L 576.09293 145.756308 
L 578.343632 145.988579 
L 582.342952 145.996102 
L 586.092154 145.718982 
L 589.876265 145.244588 
L 595.51218 144.265953 
L 606.210318 142.183422 
L 609.614898 141.860624 
L 613.129774 141.826755 
L 616.16179 141.977538 
L 622.847611 142.598148 
L 638.119645 144.132697 
L 644.393471 144.519828 
L 652.434279 144.771508 
L 667.862879 144.999437 
L 672.708644 144.879404 
L 674.628971 144.724498 
L 674.628971 144.724498 
" style="fill:none;stroke:#000000;stroke-linecap:square;stroke-opacity:0.7;stroke-width:1.2;"/>
   </g>
   <g id="line2d_24">
    <path clip-path="url(#p603a67b31a)" d="M 675.458059 102.101518 
L 672.136651 101.995571 
L 667.165536 101.57738 
L 656.925525 100.422399 
L 622.89169 96.523004 
L 615.125468 95.823293 
L 609.364953 95.526427 
L 604.765133 95.527544 
L 600.926737 95.726003 
L 595.441753 96.293829 
L 590.814454 96.98462 
L 585.817194 97.931913 
L 581.983751 98.83246 
L 578.447674 99.879353 
L 575.913748 100.888207 
L 574.381979 101.767027 
L 573.739118 102.306801 
L 573.158015 103.143094 
L 573.078882 103.379838 
L 573.083272 104.247906 
L 573.483543 105.071686 
L 574.389451 106.018958 
L 574.857404 106.378738 
L 576.78105 107.499458 
L 578.846718 108.371849 
L 581.587034 109.242206 
L 584.677939 109.967786 
L 588.632255 110.626629 
L 593.572447 111.180392 
L 598.58438 111.566184 
L 604.826794 111.819672 
L 609.826505 111.809053 
L 615.692734 111.566948 
L 622.147493 111.052027 
L 629.363235 110.218402 
L 637.823247 108.993675 
L 663.204425 105.172861 
L 671.925191 103.790549 
L 675.424043 103.101785 
L 675.424043 103.101785 
" style="fill:none;stroke:#000000;stroke-linecap:square;stroke-opacity:0.7;stroke-width:1.2;"/>
   </g>
   <g id="line2d_25">
    <path clip-path="url(#p603a67b31a)" d="M 675.396111 62.491201 
L 670.990448 62.37719 
L 657.495344 61.79769 
L 648.563362 61.190434 
L 641.165559 60.455095 
L 636.072409 59.81305 
L 609.156068 56.120155 
L 604.014604 55.780626 
L 601.020828 55.725688 
L 597.245566 55.843884 
L 592.802869 56.285452 
L 588.974162 56.959097 
L 585.831455 57.756912 
L 583.065283 58.712338 
L 581.120179 59.605573 
L 580.681314 59.844409 
L 578.527167 61.323487 
L 576.809956 63.01436 
L 575.592031 64.677515 
L 575.319986 65.272385 
L 575.241421 66.149708 
L 575.411169 66.517171 
L 575.749164 66.843667 
L 576.729885 67.26791 
L 576.870105 67.304229 
L 579.353961 67.591406 
L 582.56833 67.553238 
L 587.371087 67.21243 
L 613.534004 64.975733 
L 623.032823 64.465809 
L 632.923759 64.183143 
L 643.868424 64.150785 
L 667.336372 64.267153 
L 673.9628 64.022079 
L 675.490909 63.921358 
L 675.490909 63.921358 
" style="fill:none;stroke:#000000;stroke-linecap:square;stroke-opacity:0.7;stroke-width:1.2;"/>
   </g>
  </g>
 </g>
 <defs>
  <clipPath id="p603a67b31a">
   <rect height="262.08" width="694.08" x="12.96" y="12.96"/>
  </clipPath>
 </defs>
</svg>
