<?xml version="1.0" encoding="utf-8" standalone="no"?>
<!DOCTYPE svg PUBLIC "-//W3C//DTD SVG 1.1//EN"
  "http://www.w3.org/Graphics/SVG/1.1/DTD/svg11.dtd">
<!-- Created with matplotlib (https://matplotlib.org/) -->
<svg height="288pt" version="1.1" viewBox="0 0 720 288" width="720pt" xmlns="http://www.w3.org/2000/svg" xmlns:xlink="http://www.w3.org/1999/xlink">
 <metadata>
  <rdf:RDF xmlns:cc="http://creativecommons.org/ns#" xmlns:dc="http://purl.org/dc/elements/1.1/" xmlns:rdf="http://www.w3.org/1999/02/22-rdf-syntax-ns#">
   <cc:Work>
    <dc:type rdf:resource="http://purl.org/dc/dcmitype/StillImage"/>
    <dc:date>2020-12-21T22:40:42.865470</dc:date>
    <dc:format>image/svg+xml</dc:format>
    <dc:creator>
     <cc:Agent>
      <dc:title>Matplotlib v3.3.2, https://matplotlib.org/</dc:title>
     </cc:Agent>
    </dc:creator>
   </cc:Work>
  </rdf:RDF>
 </metadata>
 <defs>
  <style type="text/css">*{stroke-linecap:butt;stroke-linejoin:round;}</style>
 </defs>
 <g id="figure_1">
  <g id="patch_1">
   <path d="M 0 288 
L 720 288 
L 720 0 
L 0 0 
z
" style="fill:#ffffff;"/>
  </g>
  <g id="axes_1">
   <g id="line2d_1">
    <path clip-path="url(#pe00d3ddf86)" d="M 149.448145 227.957393 
L 134.972403 226.010059 
L 113.851141 223.147568 
L 105.522263 222.278672 
L 96.800536 221.611422 
L 87.562292 221.152471 
L 79.363876 220.965524 
L 72.890045 221.021597 
L 67.265539 221.28368 
L 62.80265 221.684414 
L 59.29901 222.155637 
L 55.628684 222.843545 
L 53.009007 223.497421 
L 49.874334 224.546719 
L 48.029776 225.393925 
L 46.945939 226.056296 
L 46.166422 226.730331 
L 45.803384 227.285311 
L 45.754725 227.82178 
L 46.015459 228.267932 
L 46.478775 228.618432 
L 47.294237 228.985835 
L 48.569694 229.35137 
L 50.461046 229.70426 
L 53.48456 230.053323 
L 57.675025 230.307329 
L 63.158151 230.390164 
L 69.113143 230.240663 
L 75.259778 229.865524 
L 82.302814 229.203312 
L 93.440977 227.862115 
L 102.038228 226.906576 
L 108.451322 226.433537 
L 114.865161 226.231349 
L 121.872173 226.289775 
L 130.620239 226.639544 
L 143.628009 227.420575 
L 149.470867 227.803276 
L 149.470867 227.803276 
" style="fill:none;stroke:#000000;stroke-linecap:square;stroke-opacity:0.7;stroke-width:1.2;"/>
   </g>
   <g id="line2d_2">
    <path clip-path="url(#pe00d3ddf86)" d="M 150.017141 187.817404 
L 139.795314 185.981615 
L 127.987444 184.072273 
L 119.213817 182.8734 
L 111.386013 182.038397 
L 104.287193 181.500456 
L 96.679511 181.161711 
L 88.978339 181.057745 
L 80.976461 181.179084 
L 73.662055 181.495433 
L 67.774225 181.925497 
L 61.595471 182.603022 
L 56.442235 183.415161 
L 51.946584 184.407987 
L 49.148878 185.262084 
L 47.42859 185.975021 
L 46.059616 186.826185 
L 45.578508 187.372913 
L 45.421032 187.894666 
L 45.486 188.2502 
L 45.773676 188.706355 
L 46.300528 189.173057 
L 47.194925 189.714742 
L 49.020365 190.505864 
L 51.620204 191.345454 
L 55.10498 192.216423 
L 59.496755 193.063356 
L 64.836669 193.822666 
L 69.365985 194.274755 
L 75.317551 194.631268 
L 80.898328 194.741417 
L 87.915172 194.607566 
L 94.830324 194.235262 
L 103.976421 193.497393 
L 115.868357 192.296744 
L 127.338328 190.921668 
L 138.255254 189.367126 
L 148.607675 187.666119 
L 150.011591 187.419598 
L 150.011591 187.419598 
" style="fill:none;stroke:#000000;stroke-linecap:square;stroke-opacity:0.7;stroke-width:1.2;"/>
   </g>
   <g id="line2d_3">
    <path clip-path="url(#pe00d3ddf86)" d="M 149.977022 148.459738 
L 131.460709 145.955245 
L 117.523242 144.247274 
L 103.106663 142.734558 
L 87.57952 141.323747 
L 80.098989 140.84598 
L 74.125087 140.689742 
L 69.569069 140.763335 
L 64.553222 141.087702 
L 60.361294 141.595728 
L 56.923862 142.20877 
L 53.28948 143.100702 
L 51.007703 143.829505 
L 48.822566 144.702005 
L 47.286413 145.47121 
L 45.756835 146.480047 
L 44.952721 147.260988 
L 44.551947 147.989384 
L 44.527454 148.490186 
L 44.762463 148.969441 
L 45.396042 149.479819 
L 46.415115 149.928176 
L 48.454077 150.454183 
L 51.615094 150.917547 
L 55.393933 151.209085 
L 59.712066 151.32305 
L 64.860409 151.222631 
L 69.778897 150.919002 
L 76.05891 150.275498 
L 82.983519 149.318865 
L 96.178193 147.405631 
L 102.18781 146.794705 
L 107.574874 146.475416 
L 113.444826 146.36761 
L 120.473926 146.498426 
L 130.317806 146.961815 
L 149.976082 148.13699 
L 149.976082 148.13699 
" style="fill:none;stroke:#000000;stroke-linecap:square;stroke-opacity:0.7;stroke-width:1.2;"/>
   </g>
   <g id="line2d_4">
    <path clip-path="url(#pe00d3ddf86)" d="M 149.869545 109.097643 
L 138.049497 106.922372 
L 126.26745 104.954017 
L 116.918593 103.620741 
L 107.190786 102.480036 
L 96.392711 101.455011 
L 87.961101 100.846561 
L 81.960625 100.593424 
L 76.340458 100.572024 
L 71.661782 100.762956 
L 67.170406 101.160236 
L 62.351717 101.85777 
L 58.629168 102.621709 
L 54.973269 103.604773 
L 51.909793 104.658208 
L 49.068662 105.91094 
L 47.649601 106.701173 
L 46.936503 107.171152 
L 45.726743 108.212177 
L 45.166741 109.130508 
L 45.119634 109.555166 
L 45.372359 110.167154 
L 45.788755 110.555946 
L 46.530728 110.973658 
L 47.737938 111.409781 
L 49.602264 111.851102 
L 53.134105 112.357088 
L 57.600903 112.688899 
L 62.55122 112.812961 
L 67.750485 112.73935 
L 73.592103 112.451955 
L 79.883158 111.940366 
L 88.55713 110.992992 
L 103.178626 109.355878 
L 110.114702 108.823258 
L 117.431251 108.49769 
L 125.633476 108.379648 
L 135.850737 108.476051 
L 149.88168 108.802413 
L 149.88168 108.802413 
" style="fill:none;stroke:#000000;stroke-linecap:square;stroke-opacity:0.7;stroke-width:1.2;"/>
   </g>
   <g id="line2d_5">
    <path clip-path="url(#pe00d3ddf86)" d="M 149.64641 69.617086 
L 144.381939 67.872081 
L 136.632632 65.520915 
L 129.097119 63.428621 
L 121.895947 61.6357 
L 114.44851 60.023521 
L 107.179829 58.683021 
L 99.967687 57.569206 
L 93.212238 56.739198 
L 87.026013 56.20657 
L 82.245235 55.98391 
L 78.206278 55.950581 
L 72.9041 56.160595 
L 68.118618 56.64455 
L 64.751482 57.188015 
L 60.956841 58.048971 
L 57.419451 59.152601 
L 54.406568 60.397091 
L 53.380883 60.902845 
L 50.820511 62.406246 
L 49.163783 63.626509 
L 47.634546 65.029076 
L 46.649738 66.190198 
L 45.801509 67.677819 
L 45.606529 68.414876 
L 45.618234 69.093036 
L 45.866306 69.728901 
L 46.524061 70.416744 
L 47.829525 71.101327 
L 49.660567 71.641511 
L 52.678556 72.143576 
L 55.971587 72.429236 
L 60.545654 72.567749 
L 65.134733 72.497908 
L 71.481467 72.139031 
L 78.459913 71.469061 
L 87.001916 70.402539 
L 97.697291 69.091357 
L 104.216477 68.538188 
L 110.53998 68.253962 
L 117.310556 68.19518 
L 125.91159 68.371132 
L 139.245832 68.907372 
L 149.668461 69.381324 
L 149.668461 69.381324 
" style="fill:none;stroke:#000000;stroke-linecap:square;stroke-opacity:0.7;stroke-width:1.2;"/>
   </g>
   <g id="line2d_6">
    <path clip-path="url(#pe00d3ddf86)" d="M 281.112394 227.362089 
L 276.338029 225.39382 
L 268.657057 222.490624 
L 261.290497 219.941413 
L 255.151508 218.024284 
L 249.098163 216.356862 
L 243.18142 214.954705 
L 237.49226 213.812996 
L 231.478771 212.819582 
L 225.234818 212.030815 
L 220.36645 211.612154 
L 215.601429 211.402434 
L 210.914637 211.428661 
L 206.59843 211.697383 
L 203.097319 212.118714 
L 199.538335 212.765259 
L 196.216569 213.599828 
L 192.899784 214.695223 
L 189.898268 215.954888 
L 186.760584 217.604215 
L 184.834471 218.823095 
L 182.501966 220.566958 
L 180.032721 222.85907 
L 179.128343 223.87714 
L 177.821197 225.704815 
L 177.364325 226.619435 
L 177.131843 227.491603 
L 177.147654 227.957626 
L 177.299744 228.350213 
L 177.903813 228.856472 
L 178.628621 229.094381 
L 179.946217 229.256852 
L 183.056034 229.22288 
L 188.575956 228.794743 
L 203.646602 227.501816 
L 209.772469 227.191789 
L 216.463772 227.090769 
L 223.371513 227.238883 
L 248.938526 228.105145 
L 257.001168 228.042012 
L 265.513557 227.784278 
L 277.299583 227.203763 
L 281.10269 226.979283 
L 281.10269 226.979283 
" style="fill:none;stroke:#000000;stroke-linecap:square;stroke-opacity:0.7;stroke-width:1.2;"/>
   </g>
   <g id="line2d_7">
    <path clip-path="url(#pe00d3ddf86)" d="M 281.170762 188.083261 
L 260.861892 185.037939 
L 250.522909 183.639107 
L 241.55876 182.659397 
L 233.297766 182.014216 
L 225.642943 181.646732 
L 217.844113 181.483176 
L 209.654277 181.519405 
L 202.501038 181.750745 
L 196.353312 182.162363 
L 191.74832 182.656456 
L 187.113563 183.385614 
L 183.75335 184.12912 
L 180.735711 185.051638 
L 179.018716 185.774364 
L 177.604315 186.621969 
L 176.971609 187.216114 
L 176.640367 187.780917 
L 176.570563 188.300092 
L 176.750498 188.859068 
L 177.050966 189.267165 
L 177.991411 190.024176 
L 179.22924 190.684942 
L 181.456845 191.542314 
L 185.169905 192.553905 
L 188.8443 193.27312 
L 192.59818 193.809181 
L 197.55991 194.269179 
L 202.491521 194.477526 
L 207.24559 194.456872 
L 212.028689 194.222984 
L 216.968032 193.766264 
L 222.473107 193.02713 
L 229.805355 191.778616 
L 241.522149 189.739774 
L 247.414285 188.946654 
L 253.186051 188.386247 
L 258.926694 188.025126 
L 265.94676 187.789795 
L 275.430784 187.708274 
L 281.167724 187.742978 
L 281.167724 187.742978 
" style="fill:none;stroke:#000000;stroke-linecap:square;stroke-opacity:0.7;stroke-width:1.2;"/>
   </g>
   <g id="line2d_8">
    <path clip-path="url(#pe00d3ddf86)" d="M 281.074863 149.180221 
L 248.327018 144.786671 
L 240.708298 144.120573 
L 233.285863 143.693191 
L 224.808503 143.42796 
L 213.808827 143.319249 
L 204.037402 143.435756 
L 198.41483 143.680868 
L 192.783141 144.149092 
L 188.111801 144.777228 
L 184.248157 145.526616 
L 181.371321 146.280814 
L 178.678906 147.246174 
L 177.378469 147.91688 
L 176.802898 148.383746 
L 176.656306 148.699915 
L 176.816561 148.945547 
L 177.361065 149.123116 
L 178.564945 149.205074 
L 181.356605 149.075304 
L 186.88517 148.534134 
L 199.792416 147.237809 
L 206.233077 146.839275 
L 212.03444 146.722994 
L 218.118726 146.872594 
L 224.291701 147.257785 
L 248.27576 149.03131 
L 256.704222 149.292205 
L 265.61133 149.324269 
L 276.017152 149.114656 
L 281.068291 148.939574 
L 281.068291 148.939574 
" style="fill:none;stroke:#000000;stroke-linecap:square;stroke-opacity:0.7;stroke-width:1.2;"/>
   </g>
   <g id="line2d_9">
    <path clip-path="url(#pe00d3ddf86)" d="M 281.263304 109.105977 
L 274.688274 107.413441 
L 265.908546 105.370913 
L 258.686186 103.88613 
L 250.892913 102.537134 
L 244.580793 101.659447 
L 236.523439 100.805221 
L 228.296566 100.195992 
L 220.164192 99.819688 
L 212.918976 99.703886 
L 207.070286 99.829541 
L 202.166075 100.142399 
L 197.425097 100.672213 
L 193.752741 101.268605 
L 190.470526 101.967094 
L 187.018166 102.909401 
L 184.870237 103.63163 
L 182.463327 104.60854 
L 180.060223 105.853075 
L 178.83317 106.676424 
L 177.669715 107.76078 
L 177.200259 108.587801 
L 177.147445 108.980397 
L 177.302742 109.484781 
L 177.650683 109.870142 
L 178.368599 110.299163 
L 179.417953 110.681485 
L 181.238141 111.108309 
L 184.319518 111.567919 
L 189.551545 112.046024 
L 196.568851 112.417828 
L 205.014076 112.639264 
L 215.00026 112.666532 
L 224.969032 112.453757 
L 235.694377 111.982506 
L 249.094298 111.162728 
L 269.567409 109.668123 
L 281.257679 108.740768 
L 281.257679 108.740768 
" style="fill:none;stroke:#000000;stroke-linecap:square;stroke-opacity:0.7;stroke-width:1.2;"/>
   </g>
   <g id="line2d_10">
    <path clip-path="url(#pe00d3ddf86)" d="M 280.978562 70.426546 
L 269.07062 68.804422 
L 246.2713 65.653264 
L 238.543768 64.859513 
L 231.499658 64.328014 
L 223.043419 63.915432 
L 214.546409 63.732239 
L 207.691507 63.781772 
L 201.736277 64.021512 
L 195.688834 64.519429 
L 191.382503 65.078679 
L 186.868256 65.910944 
L 183.793301 66.680091 
L 180.859115 67.662413 
L 178.943059 68.567364 
L 178.217502 69.051484 
L 177.613566 69.709951 
L 177.514209 70.130072 
L 177.690185 70.528211 
L 178.247359 70.949261 
L 179.110946 71.30985 
L 180.712529 71.735452 
L 183.471111 72.207635 
L 187.961948 72.681968 
L 193.72367 73.005471 
L 199.455636 73.109088 
L 206.255799 73.004953 
L 213.440094 72.666095 
L 222.117608 72.010199 
L 243.355246 70.232685 
L 250.491773 69.907656 
L 257.666759 69.773088 
L 267.439008 69.839364 
L 279.580504 70.172567 
L 280.972899 70.221085 
L 280.972899 70.221085 
" style="fill:none;stroke:#000000;stroke-linecap:square;stroke-opacity:0.7;stroke-width:1.2;"/>
   </g>
   <g id="line2d_11">
    <path clip-path="url(#pe00d3ddf86)" d="M 412.780309 227.044967 
L 406.443456 224.982166 
L 399.198299 222.809517 
L 392.282589 220.939539 
L 385.242964 219.293415 
L 379.242682 218.115075 
L 373.476999 217.170347 
L 367.044484 216.317036 
L 360.945827 215.697792 
L 354.289112 215.248728 
L 348.566652 215.08456 
L 343.657549 215.140632 
L 338.528242 215.430623 
L 334.128326 215.899541 
L 329.491201 216.649522 
L 326.32277 217.334554 
L 322.929576 218.246118 
L 319.71795 219.304245 
L 316.163897 220.744019 
L 313.463089 222.084564 
L 311.139449 223.49244 
L 309.560595 224.690142 
L 308.680996 225.552376 
L 308.183693 226.228561 
L 307.947222 226.781307 
L 307.940849 227.383876 
L 308.112314 227.734382 
L 308.639806 228.196614 
L 309.350197 228.533198 
L 310.747508 228.922925 
L 313.009919 229.276826 
L 316.72811 229.57446 
L 321.483335 229.731422 
L 328.917674 229.740362 
L 340.834748 229.489224 
L 365.003262 228.942292 
L 379.496082 228.560918 
L 391.754996 227.997511 
L 407.366256 227.01212 
L 412.768669 226.643443 
L 412.768669 226.643443 
" style="fill:none;stroke:#000000;stroke-linecap:square;stroke-opacity:0.7;stroke-width:1.2;"/>
   </g>
   <g id="line2d_12">
    <path clip-path="url(#pe00d3ddf86)" d="M 412.415478 188.456295 
L 402.586252 186.407092 
L 390.849781 184.164034 
L 382.962306 182.861791 
L 376.620016 182.022473 
L 370.920989 181.465015 
L 364.708734 181.07927 
L 358.464796 180.910685 
L 351.640576 180.939395 
L 343.314883 181.214994 
L 335.900386 181.68785 
L 330.357889 182.238873 
L 325.353821 182.944187 
L 321.258512 183.717576 
L 317.128619 184.73609 
L 313.681241 185.841413 
L 311.225905 186.845987 
L 309.430044 187.793948 
L 308.33978 188.658069 
L 308.195169 188.992151 
L 308.275219 189.156512 
L 308.693485 189.32554 
L 309.732029 189.389715 
L 311.841549 189.271416 
L 320.275367 188.402431 
L 327.957848 187.718678 
L 333.663169 187.420216 
L 338.236768 187.367128 
L 343.299259 187.541343 
L 347.747113 187.899339 
L 354.119245 188.659361 
L 366.301198 190.19254 
L 371.451802 190.642586 
L 377.469732 190.939498 
L 383.045833 190.979727 
L 389.028049 190.778376 
L 394.872265 190.36319 
L 402.351483 189.577929 
L 411.058836 188.403185 
L 412.378323 188.206409 
L 412.378323 188.206409 
" style="fill:none;stroke:#000000;stroke-linecap:square;stroke-opacity:0.7;stroke-width:1.2;"/>
   </g>
   <g id="line2d_13">
    <path clip-path="url(#pe00d3ddf86)" d="M 412.553753 148.996599 
L 390.913461 146.150096 
L 380.018982 144.901361 
L 371.542151 144.156839 
L 363.633884 143.682456 
L 355.542707 143.405936 
L 345.271003 143.288404 
L 335.593799 143.395043 
L 328.629325 143.702472 
L 323.090516 144.188964 
L 318.59219 144.824862 
L 315.557732 145.434166 
L 312.753205 146.201851 
L 311.039578 146.841221 
L 309.920713 147.408471 
L 309.12425 148.025381 
L 308.809821 148.585348 
L 308.857411 149.005043 
L 309.131414 149.388313 
L 309.638922 149.772647 
L 310.816535 150.334217 
L 312.77665 150.960126 
L 315.493485 151.578634 
L 318.765616 152.122734 
L 323.518748 152.662677 
L 328.231044 152.976463 
L 334.136582 153.109133 
L 339.111077 153.018633 
L 344.687645 152.717618 
L 350.958496 152.162228 
L 359.524032 151.157038 
L 371.222201 149.769267 
L 378.80374 149.114099 
L 385.632383 148.745049 
L 393.339824 148.547945 
L 403.037535 148.536284 
L 412.542294 148.684664 
L 412.542294 148.684664 
" style="fill:none;stroke:#000000;stroke-linecap:square;stroke-opacity:0.7;stroke-width:1.2;"/>
   </g>
   <g id="line2d_14">
    <path clip-path="url(#pe00d3ddf86)" d="M 412.276114 109.873131 
L 381.953623 105.116422 
L 374.945854 104.295128 
L 368.023447 103.719058 
L 361.397248 103.381993 
L 353.075975 103.197026 
L 343.735325 103.223568 
L 336.50843 103.44048 
L 330.848089 103.801003 
L 325.912231 104.311968 
L 321.048187 105.057107 
L 316.860346 105.960192 
L 313.478095 106.947099 
L 311.407593 107.731579 
L 309.546484 108.66555 
L 308.623023 109.359363 
L 308.330099 109.781384 
L 308.34228 110.12133 
L 308.63496 110.386639 
L 309.310433 110.614589 
L 310.706848 110.802635 
L 313.173764 110.902423 
L 319.608979 110.843074 
L 335.330015 110.608801 
L 342.436719 110.733942 
L 349.628839 111.078591 
L 372.070966 112.406921 
L 379.045494 112.447199 
L 384.955754 112.274998 
L 392.040052 111.838576 
L 400.12831 111.093791 
L 409.716584 109.969546 
L 412.242222 109.639707 
L 412.242222 109.639707 
" style="fill:none;stroke:#000000;stroke-linecap:square;stroke-opacity:0.7;stroke-width:1.2;"/>
   </g>
   <g id="line2d_15">
    <path clip-path="url(#pe00d3ddf86)" d="M 412.499619 70.04168 
L 402.060733 68.075627 
L 390.207557 66.037446 
L 381.806027 64.792082 
L 374.07787 63.864364 
L 366.626222 63.183791 
L 358.132308 62.650228 
L 349.630508 62.365386 
L 342.286423 62.348601 
L 335.730438 62.572384 
L 330.709715 62.944461 
L 325.820864 63.518607 
L 321.666141 64.210657 
L 317.379511 65.179604 
L 314.275037 66.105785 
L 311.908862 67.010484 
L 310.515434 67.684344 
L 309.295398 68.467297 
L 308.627707 69.17809 
L 308.497 69.592101 
L 308.691039 70.075877 
L 309.116071 70.40082 
L 310.324152 70.863375 
L 311.77182 71.187037 
L 314.865488 71.615607 
L 319.592416 71.9958 
L 325.670211 72.254104 
L 333.36884 72.356407 
L 342.00029 72.254817 
L 352.408789 71.902617 
L 396.745631 70.058892 
L 412.484121 69.769205 
L 412.484121 69.769205 
" style="fill:none;stroke:#000000;stroke-linecap:square;stroke-opacity:0.7;stroke-width:1.2;"/>
   </g>
   <g id="line2d_16">
    <path clip-path="url(#pe00d3ddf86)" d="M 544.127496 227.300173 
L 537.628156 225.7695 
L 529.016941 223.958138 
L 520.802932 222.465731 
L 513.822997 221.433616 
L 507.486539 220.711921 
L 501.484465 220.216155 
L 493.942337 219.830114 
L 487.150621 219.680148 
L 478.778353 219.724032 
L 471.60904 219.980289 
L 465.573586 220.406448 
L 460.022392 221.028556 
L 454.896909 221.856882 
L 450.690473 222.769249 
L 446.45103 223.971223 
L 443.522861 225.04038 
L 441.3796 226.034936 
L 439.839163 227.02713 
L 439.405163 227.539364 
L 439.393827 227.827796 
L 439.643346 228.035615 
L 440.441299 228.202482 
L 442.368325 228.215819 
L 445.751753 227.983682 
L 464.024076 226.436038 
L 470.016877 226.233382 
L 474.922456 226.290555 
L 479.818375 226.572867 
L 485.433966 227.128291 
L 501.934513 228.948992 
L 508.490968 229.336586 
L 514.168626 229.441029 
L 519.829425 229.329444 
L 526.365345 228.952721 
L 533.57837 228.278391 
L 540.91377 227.385044 
L 544.098146 226.949516 
L 544.098146 226.949516 
" style="fill:none;stroke:#000000;stroke-linecap:square;stroke-opacity:0.7;stroke-width:1.2;"/>
   </g>
   <g id="line2d_17">
    <path clip-path="url(#pe00d3ddf86)" d="M 543.787386 188.330633 
L 535.862981 186.126604 
L 524.860148 183.288648 
L 516.192708 181.263312 
L 508.762968 179.760202 
L 502.580283 178.718138 
L 496.157228 177.859408 
L 489.673099 177.239664 
L 483.461267 176.890619 
L 477.204759 176.788953 
L 470.935668 176.948736 
L 466.103564 177.268218 
L 461.516758 177.759502 
L 457.268183 178.421294 
L 453.161465 179.315058 
L 450.014736 180.233528 
L 447.116035 181.33368 
L 444.864632 182.428963 
L 443.084112 183.519372 
L 441.715552 184.57851 
L 440.790897 185.504401 
L 440.057792 186.588771 
L 439.814 187.468315 
L 439.871793 187.986023 
L 440.121706 188.486559 
L 440.611136 188.973261 
L 441.765271 189.600719 
L 443.409416 190.114347 
L 446.002324 190.591527 
L 449.226554 190.922054 
L 454.246695 191.133127 
L 459.891264 191.100888 
L 466.388184 190.821778 
L 473.583242 190.289895 
L 483.892484 189.27063 
L 497.221147 187.955393 
L 504.205129 187.48424 
L 511.378279 187.226812 
L 519.157006 187.188218 
L 528.081329 187.377451 
L 539.869096 187.85925 
L 543.81881 188.052655 
L 543.81881 188.052655 
" style="fill:none;stroke:#000000;stroke-linecap:square;stroke-opacity:0.7;stroke-width:1.2;"/>
   </g>
   <g id="line2d_18">
    <path clip-path="url(#pe00d3ddf86)" d="M 543.843819 148.800113 
L 537.975032 146.853064 
L 528.748011 144.043204 
L 520.509075 141.743728 
L 513.628591 140.01857 
L 506.5821 138.489583 
L 500.482654 137.391488 
L 495.011154 136.601904 
L 488.889252 135.953916 
L 482.788709 135.570093 
L 477.639913 135.45894 
L 471.629955 135.590576 
L 466.555025 135.946604 
L 462.098541 136.48166 
L 458.632603 137.077377 
L 455.433716 137.804127 
L 452.154734 138.775516 
L 450.176216 139.502229 
L 446.874998 141.024964 
L 444.533088 142.419939 
L 442.743565 143.738835 
L 441.4752 144.872623 
L 440.346046 146.126565 
L 439.502902 147.456068 
L 439.203626 148.40538 
L 439.246475 149.197966 
L 439.457023 149.671012 
L 439.691097 149.975195 
L 440.662619 150.688906 
L 442.030459 151.244598 
L 443.829344 151.701093 
L 445.719727 152.020252 
L 449.439318 152.393094 
L 453.165745 152.561287 
L 458.178734 152.574352 
L 464.547141 152.329429 
L 470.850847 151.857711 
L 478.098438 151.092458 
L 490.313832 149.523165 
L 499.414688 148.479403 
L 505.486576 147.990725 
L 511.649672 147.698697 
L 518.069331 147.597561 
L 525.433298 147.687072 
L 535.578114 148.054296 
L 543.883437 148.471898 
L 543.883437 148.471898 
" style="fill:none;stroke:#000000;stroke-linecap:square;stroke-opacity:0.7;stroke-width:1.2;"/>
   </g>
   <g id="line2d_19">
    <path clip-path="url(#pe00d3ddf86)" d="M 543.967709 109.81862 
L 521.094472 105.732967 
L 512.994693 104.473572 
L 506.097696 103.602256 
L 498.707669 102.909101 
L 491.867107 102.475957 
L 483.552334 102.178202 
L 475.48608 102.11848 
L 469.450349 102.266296 
L 464.408936 102.56618 
L 458.795654 103.145482 
L 453.726834 103.947572 
L 450.267553 104.686555 
L 446.693143 105.66565 
L 443.748376 106.710094 
L 441.478039 107.777013 
L 440.489462 108.398661 
L 439.730136 109.090633 
L 439.481714 109.664982 
L 439.592064 109.998546 
L 440.047265 110.342555 
L 440.95251 110.639311 
L 442.436391 110.883307 
L 445.229392 111.107749 
L 451.381748 111.308405 
L 472.996464 111.827453 
L 483.573706 112.397728 
L 495.512573 112.997914 
L 502.605448 113.124109 
L 509.723501 113.006829 
L 516.741914 112.641852 
L 523.825417 112.040297 
L 531.840716 111.125366 
L 541.57933 109.767232 
L 543.956107 109.403893 
L 543.956107 109.403893 
" style="fill:none;stroke:#000000;stroke-linecap:square;stroke-opacity:0.7;stroke-width:1.2;"/>
   </g>
   <g id="line2d_20">
    <path clip-path="url(#pe00d3ddf86)" d="M 543.92457 70.332393 
L 517.308485 66.108426 
L 508.478263 64.944075 
L 500.043512 64.059193 
L 491.416567 63.375835 
L 481.656293 62.829802 
L 472.983173 62.547209 
L 465.606568 62.532476 
L 460.392193 62.722347 
L 455.659891 63.104429 
L 451.558596 63.657228 
L 447.77457 64.421464 
L 444.499992 65.374894 
L 442.370111 66.232982 
L 440.974902 66.983735 
L 440.314282 67.4417 
L 439.783278 67.913303 
L 439.259704 68.715038 
L 439.253083 69.32181 
L 439.579539 69.806455 
L 440.252072 70.252694 
L 441.280463 70.645693 
L 442.481785 70.944954 
L 445.41407 71.378392 
L 449.20224 71.648345 
L 453.463366 71.744151 
L 459.376764 71.643378 
L 466.300513 71.281008 
L 475.684063 70.515443 
L 494.588739 68.869093 
L 501.910751 68.515402 
L 507.851137 68.414435 
L 515.215981 68.500939 
L 524.127756 68.835853 
L 536.999671 69.559066 
L 543.956458 69.996407 
L 543.956458 69.996407 
" style="fill:none;stroke:#000000;stroke-linecap:square;stroke-opacity:0.7;stroke-width:1.2;"/>
   </g>
   <g id="line2d_21">
    <path clip-path="url(#pe00d3ddf86)" d="M 675.376842 227.753278 
L 642.970241 223.444551 
L 634.304655 222.646611 
L 626.039144 222.118685 
L 616.727384 221.750373 
L 606.721393 221.593384 
L 599.727623 221.705158 
L 593.995424 222.010418 
L 589.217986 222.454004 
L 584.593381 223.081655 
L 581.14306 223.705163 
L 577.592026 224.530231 
L 574.819889 225.368903 
L 573.100876 226.044829 
L 571.881815 226.691135 
L 571.187591 227.265636 
L 570.945042 227.770789 
L 571.069977 228.190989 
L 571.555623 228.60968 
L 572.252003 228.947008 
L 573.562139 229.371284 
L 575.775946 229.867908 
L 579.135992 230.4067 
L 583.967234 230.961414 
L 590.78961 231.49 
L 597.887531 231.82614 
L 607.504357 232.033264 
L 617.800226 232.01996 
L 627.344046 231.810765 
L 637.255239 231.371926 
L 647.026091 230.695248 
L 656.253394 229.825414 
L 665.712533 228.716222 
L 675.362746 227.385078 
L 675.362746 227.385078 
" style="fill:none;stroke:#000000;stroke-linecap:square;stroke-opacity:0.7;stroke-width:1.2;"/>
   </g>
   <g id="line2d_22">
    <path clip-path="url(#pe00d3ddf86)" d="M 675.43318 187.607824 
L 667.379585 185.807019 
L 656.4613 183.597071 
L 647.163839 181.942423 
L 638.531894 180.64743 
L 630.296548 179.640571 
L 622.013261 178.847874 
L 613.767411 178.293505 
L 606.703758 178.058868 
L 600.847917 178.100689 
L 595.778003 178.370628 
L 591.163734 178.859253 
L 587.783406 179.400635 
L 583.894876 180.265328 
L 581.163863 181.069232 
L 577.850887 182.343403 
L 575.707126 183.422098 
L 573.83204 184.640321 
L 572.761577 185.546874 
L 571.711074 186.815042 
L 571.268056 187.85485 
L 571.223419 188.617349 
L 571.425683 189.305653 
L 571.910412 190.006742 
L 572.594657 190.615101 
L 574.053613 191.479011 
L 575.803208 192.208387 
L 579.072913 193.182098 
L 582.411776 193.890308 
L 586.463705 194.500864 
L 591.048395 194.942642 
L 595.18918 195.150873 
L 600.846796 195.174009 
L 605.786045 194.965562 
L 611.54655 194.476197 
L 618.177702 193.636889 
L 627.556143 192.14888 
L 639.685028 190.249205 
L 647.160362 189.309888 
L 654.89662 188.560438 
L 664.505661 187.875539 
L 675.441606 187.278027 
L 675.441606 187.278027 
" style="fill:none;stroke:#000000;stroke-linecap:square;stroke-opacity:0.7;stroke-width:1.2;"/>
   </g>
   <g id="line2d_23">
    <path clip-path="url(#pe00d3ddf86)" d="M 675.218947 148.818516 
L 670.565815 146.957509 
L 662.374641 143.944669 
L 654.671999 141.335193 
L 647.374295 139.105892 
L 641.576204 137.548578 
L 635.327709 136.102544 
L 629.231695 134.919589 
L 622.980462 133.931136 
L 616.713648 133.172614 
L 611.060636 132.710276 
L 605.457844 132.499921 
L 601.433258 132.534516 
L 596.633605 132.829264 
L 593.189158 133.251963 
L 589.950057 133.851665 
L 586.810871 134.665802 
L 583.872554 135.689406 
L 581.116971 136.942035 
L 578.461227 138.496352 
L 576.657262 139.804038 
L 574.514556 141.717774 
L 573.080018 143.316835 
L 571.859116 145.033217 
L 571.014691 146.684366 
L 570.611857 148.151239 
L 570.588205 148.988816 
L 570.756716 149.761889 
L 571.00458 150.275323 
L 572.113093 151.397462 
L 573.482817 152.119075 
L 575.545724 152.774289 
L 578.205174 153.281765 
L 580.914995 153.590057 
L 584.800908 153.805189 
L 589.447283 153.81739 
L 593.986524 153.629737 
L 599.5674 153.171013 
L 605.747257 152.40702 
L 613.140454 151.21065 
L 629.080334 148.422024 
L 634.605034 147.731597 
L 640.153332 147.286651 
L 645.481665 147.090337 
L 650.285399 147.082064 
L 657.466431 147.301047 
L 666.805533 147.859402 
L 675.251316 148.501657 
L 675.251316 148.501657 
" style="fill:none;stroke:#000000;stroke-linecap:square;stroke-opacity:0.7;stroke-width:1.2;"/>
   </g>
   <g id="line2d_24">
    <path clip-path="url(#pe00d3ddf86)" d="M 675.307229 109.347314 
L 665.558134 107.444746 
L 652.517512 105.10084 
L 643.898698 103.767007 
L 636.732389 102.883266 
L 629.370828 102.232933 
L 622.1646 101.863991 
L 615.916273 101.761725 
L 609.45101 101.869642 
L 603.704672 102.153834 
L 598.021984 102.626787 
L 592.193681 103.344424 
L 587.798116 104.074531 
L 583.29915 105.034436 
L 579.352664 106.115412 
L 576.324537 107.177691 
L 574.217123 108.139176 
L 573.216869 108.741205 
L 572.425428 109.464451 
L 572.276338 109.787128 
L 572.356646 110.16007 
L 572.669328 110.41984 
L 573.507564 110.7177 
L 575.372402 111.004564 
L 578.552064 111.215146 
L 585.698217 111.412109 
L 597.536161 111.738533 
L 605.588428 112.171859 
L 619.808004 113.255799 
L 627.978032 113.736423 
L 634.867123 113.899532 
L 640.988051 113.807185 
L 646.948735 113.478584 
L 652.947608 112.90326 
L 658.927737 112.097337 
L 664.967418 111.07649 
L 672.575751 109.548288 
L 675.288234 108.947981 
L 675.288234 108.947981 
" style="fill:none;stroke:#000000;stroke-linecap:square;stroke-opacity:0.7;stroke-width:1.2;"/>
   </g>
   <g id="line2d_25">
    <path clip-path="url(#pe00d3ddf86)" d="M 675.490909 69.614012 
L 669.295431 67.695708 
L 661.040364 65.338918 
L 652.908084 63.226711 
L 645.938454 61.62 
L 638.947938 60.21659 
L 631.375126 58.924493 
L 623.882796 57.87529 
L 616.704045 57.113365 
L 610.739386 56.714077 
L 605.729731 56.591672 
L 601.283454 56.684134 
L 597.48755 56.94019 
L 593.855412 57.362451 
L 590.731419 57.885015 
L 586.76348 58.798059 
L 583.68981 59.734778 
L 580.50078 60.972236 
L 578.168968 62.097411 
L 576.256205 63.20749 
L 574.624736 64.341391 
L 572.96787 65.774407 
L 571.788391 67.141841 
L 571.061046 68.439469 
L 570.820931 69.403206 
L 570.844999 70.066245 
L 571.061148 70.722233 
L 571.503168 71.363238 
L 572.527736 72.206969 
L 573.15301 72.568504 
L 575.421165 73.510957 
L 578.642428 74.414968 
L 582.253825 75.152204 
L 587.347967 75.910382 
L 592.424116 76.436747 
L 597.807892 76.792465 
L 604.159081 76.969207 
L 610.311812 76.900867 
L 616.548398 76.605803 
L 623.57327 76.043872 
L 632.904247 75.045738 
L 647.792625 73.184992 
L 664.007844 70.947207 
L 675.477133 69.201466 
L 675.477133 69.201466 
" style="fill:none;stroke:#000000;stroke-linecap:square;stroke-opacity:0.7;stroke-width:1.2;"/>
   </g>
  </g>
 </g>
 <defs>
  <clipPath id="pe00d3ddf86">
   <rect height="262.08" width="694.08" x="12.96" y="12.96"/>
  </clipPath>
 </defs>
</svg>
