<?xml version="1.0" encoding="utf-8" standalone="no"?>
<!DOCTYPE svg PUBLIC "-//W3C//DTD SVG 1.1//EN"
  "http://www.w3.org/Graphics/SVG/1.1/DTD/svg11.dtd">
<!-- Created with matplotlib (https://matplotlib.org/) -->
<svg height="288pt" version="1.1" viewBox="0 0 720 288" width="720pt" xmlns="http://www.w3.org/2000/svg" xmlns:xlink="http://www.w3.org/1999/xlink">
 <metadata>
  <rdf:RDF xmlns:cc="http://creativecommons.org/ns#" xmlns:dc="http://purl.org/dc/elements/1.1/" xmlns:rdf="http://www.w3.org/1999/02/22-rdf-syntax-ns#">
   <cc:Work>
    <dc:type rdf:resource="http://purl.org/dc/dcmitype/StillImage"/>
    <dc:date>2020-12-21T22:18:40.653640</dc:date>
    <dc:format>image/svg+xml</dc:format>
    <dc:creator>
     <cc:Agent>
      <dc:title>Matplotlib v3.3.2, https://matplotlib.org/</dc:title>
     </cc:Agent>
    </dc:creator>
   </cc:Work>
  </rdf:RDF>
 </metadata>
 <defs>
  <style type="text/css">*{stroke-linecap:butt;stroke-linejoin:round;}</style>
 </defs>
 <g id="figure_1">
  <g id="patch_1">
   <path d="M 0 288 
L 720 288 
L 720 0 
L 0 0 
z
" style="fill:#ffffff;"/>
  </g>
  <g id="axes_1">
   <g id="line2d_1">
    <path clip-path="url(#pa62cdc7f05)" d="M 149.123514 226.75618 
L 128.920635 224.410141 
L 119.017137 223.478877 
L 109.195904 222.786229 
L 96.025067 222.13179 
L 74.677315 221.245549 
L 67.313507 221.219351 
L 61.100895 221.449182 
L 56.433331 221.825974 
L 51.922378 222.429407 
L 49.685186 222.868739 
L 47.049469 223.649413 
L 46.037266 224.165631 
L 45.559488 224.592656 
L 45.340467 225.122162 
L 45.535359 225.807992 
L 46.043803 226.413265 
L 47.006314 227.162651 
L 48.545282 228.051721 
L 50.97336 229.13839 
L 54.158982 230.254846 
L 58.090284 231.326197 
L 60.938126 231.943246 
L 66.061053 232.778956 
L 70.781942 233.275372 
L 75.576988 233.533136 
L 80.097106 233.557239 
L 84.80713 233.360945 
L 89.428636 232.956995 
L 94.522073 232.295318 
L 101.053726 231.204016 
L 118.794314 228.085472 
L 124.926604 227.278181 
L 131.051511 226.683115 
L 137.349358 226.292455 
L 144.401957 226.093898 
L 149.117122 226.074193 
L 149.117122 226.074193 
" style="fill:none;stroke:#000000;stroke-linecap:square;stroke-opacity:0.7;stroke-width:1.2;"/>
   </g>
   <g id="line2d_2">
    <path clip-path="url(#pa62cdc7f05)" d="M 149.313399 187.121644 
L 126.549421 183.211165 
L 114.444658 181.383054 
L 102.607446 179.83944 
L 91.88419 178.663799 
L 84.999263 178.10023 
L 79.013705 177.820059 
L 73.013995 177.802646 
L 68.017525 178.030652 
L 63.427618 178.467929 
L 59.200724 179.100096 
L 55.586641 179.857351 
L 52.838557 180.607957 
L 49.757076 181.710363 
L 48.366638 182.347434 
L 46.371204 183.560044 
L 45.447081 184.408648 
L 44.940987 185.195586 
L 44.825626 185.5691 
L 44.835236 186.232057 
L 45.117197 186.853067 
L 46.039085 187.733022 
L 46.848349 188.215815 
L 48.603974 188.958755 
L 51.028748 189.674725 
L 54.408895 190.384762 
L 58.776415 191.034245 
L 62.926167 191.481641 
L 69.354443 191.963159 
L 76.555999 192.279847 
L 84.06719 192.383048 
L 90.954162 192.249143 
L 97.713663 191.885756 
L 104.949647 191.268125 
L 114.919125 190.166094 
L 138.342377 187.461468 
L 149.313348 186.450629 
L 149.313348 186.450629 
" style="fill:none;stroke:#000000;stroke-linecap:square;stroke-opacity:0.7;stroke-width:1.2;"/>
   </g>
   <g id="line2d_3">
    <path clip-path="url(#pa62cdc7f05)" d="M 148.567386 147.061265 
L 136.289118 145.387013 
L 122.229162 143.667507 
L 108.872624 142.264599 
L 90.79681 140.629737 
L 82.089643 139.990991 
L 75.380203 139.708741 
L 70.781726 139.676863 
L 65.571003 139.842979 
L 60.725872 140.235245 
L 57.609573 140.638871 
L 53.454344 141.419856 
L 50.183128 142.310666 
L 48.583381 142.881647 
L 46.576647 143.816235 
L 45.00166 144.971304 
L 44.615948 145.520865 
L 44.509091 145.997149 
L 44.669044 146.47881 
L 44.938078 146.775577 
L 45.559998 147.169077 
L 46.999031 147.673544 
L 49.033132 148.075897 
L 51.47236 148.362653 
L 56.472203 148.645206 
L 63.240424 148.71563 
L 72.884774 148.560397 
L 92.956115 148.212627 
L 116.564243 147.940582 
L 127.620295 147.545714 
L 140.782701 146.831897 
L 148.55851 146.331831 
L 148.55851 146.331831 
" style="fill:none;stroke:#000000;stroke-linecap:square;stroke-opacity:0.7;stroke-width:1.2;"/>
   </g>
   <g id="line2d_4">
    <path clip-path="url(#pa62cdc7f05)" d="M 149.157865 107.522021 
L 138.257786 106.26826 
L 121.982789 104.175476 
L 87.601701 99.599049 
L 81.439557 99.090693 
L 76.487071 98.86222 
L 71.67755 98.82604 
L 67.745105 98.953409 
L 63.118626 99.314619 
L 59.343661 99.812495 
L 55.393513 100.583546 
L 52.244167 101.447579 
L 50.443004 102.083336 
L 48.611996 102.887276 
L 46.841753 103.918096 
L 45.896721 104.676736 
L 45.135866 105.603023 
L 44.917518 106.086102 
L 44.854764 106.890646 
L 44.979625 107.292282 
L 45.531758 108.046112 
L 45.8527 108.32744 
L 46.931785 109.022004 
L 48.685914 109.814366 
L 50.528842 110.452489 
L 52.561072 111.029734 
L 56.446425 111.901561 
L 61.188109 112.674411 
L 65.682095 113.165298 
L 69.581608 113.41109 
L 74.564055 113.475402 
L 79.223453 113.267491 
L 83.737957 112.81031 
L 88.658745 112.044125 
L 94.804121 110.806138 
L 106.485696 108.36179 
L 112.572733 107.372299 
L 118.429958 106.695248 
L 122.932424 106.360878 
L 129.128347 106.144859 
L 135.000721 106.166112 
L 141.992127 106.420199 
L 149.159026 106.87485 
L 149.159026 106.87485 
" style="fill:none;stroke:#000000;stroke-linecap:square;stroke-opacity:0.7;stroke-width:1.2;"/>
   </g>
   <g id="line2d_5">
    <path clip-path="url(#pa62cdc7f05)" d="M 149.192486 69.003655 
L 136.286345 66.572391 
L 122.130431 64.124933 
L 110.680646 62.373401 
L 100.583513 61.052441 
L 91.64473 60.116051 
L 84.513305 59.587355 
L 77.724819 59.327351 
L 72.58036 59.332735 
L 67.58657 59.547329 
L 62.88151 59.98335 
L 58.453948 60.654604 
L 54.569337 61.513953 
L 51.192635 62.544393 
L 49.327107 63.278222 
L 47.469507 64.197181 
L 45.810235 65.338554 
L 45.047557 66.17468 
L 44.77784 66.717196 
L 44.706613 67.119048 
L 44.848569 67.751636 
L 45.060712 68.077984 
L 45.848035 68.746574 
L 47.458709 69.507418 
L 49.440897 70.108662 
L 52.653798 70.772231 
L 57.374028 71.409571 
L 62.439805 71.836925 
L 68.186311 72.093861 
L 74.228599 72.135969 
L 79.890573 71.962286 
L 85.765048 71.554841 
L 91.686252 70.921011 
L 100.176545 69.747085 
L 110.393794 68.336826 
L 116.686441 67.688617 
L 122.518592 67.316738 
L 128.933219 67.182038 
L 134.742737 67.295071 
L 141.564087 67.67028 
L 149.202874 68.32993 
L 149.202874 68.32993 
" style="fill:none;stroke:#000000;stroke-linecap:square;stroke-opacity:0.7;stroke-width:1.2;"/>
   </g>
   <g id="line2d_6">
    <path clip-path="url(#pa62cdc7f05)" d="M 280.903927 225.804894 
L 273.780299 224.134397 
L 265.771912 222.476497 
L 257.672208 221.040603 
L 251.0189 220.06125 
L 244.134851 219.24945 
L 237.45285 218.658644 
L 230.38152 218.234596 
L 221.712085 217.958527 
L 213.663212 217.910755 
L 206.141567 218.099183 
L 200.544351 218.465595 
L 196.027274 218.960081 
L 192.16847 219.563274 
L 189.352356 220.131815 
L 185.537835 221.113883 
L 182.436455 222.139288 
L 180.003704 223.139697 
L 178.080729 224.130155 
L 176.825405 225.053309 
L 176.603623 225.469547 
L 176.743693 225.712149 
L 177.292476 225.904863 
L 178.426972 226.005239 
L 181.480565 225.939779 
L 189.272445 225.428275 
L 198.139495 224.937177 
L 204.588113 224.833969 
L 209.424981 224.96846 
L 214.558199 225.339751 
L 221.055987 226.106255 
L 238.363077 228.390752 
L 244.566729 228.856016 
L 249.614484 229.017432 
L 254.566913 228.970729 
L 259.202806 228.734502 
L 264.036688 228.284559 
L 269.347087 227.550291 
L 273.790072 226.751613 
L 279.693146 225.467184 
L 280.908236 225.177399 
L 280.908236 225.177399 
" style="fill:none;stroke:#000000;stroke-linecap:square;stroke-opacity:0.7;stroke-width:1.2;"/>
   </g>
   <g id="line2d_7">
    <path clip-path="url(#pa62cdc7f05)" d="M 280.567706 186.583173 
L 271.014249 184.554191 
L 259.781574 182.394108 
L 251.012809 180.927237 
L 242.834968 179.797192 
L 235.607171 179.027261 
L 228.898268 178.517371 
L 221.729229 178.179072 
L 213.31196 178.02172 
L 206.500575 178.093999 
L 200.831773 178.336239 
L 196.322474 178.690171 
L 191.615715 179.264891 
L 187.505736 179.999945 
L 184.122532 180.838673 
L 181.402355 181.75032 
L 179.248453 182.741771 
L 177.857578 183.666598 
L 177.183485 184.34608 
L 176.801742 185.009985 
L 176.692978 185.668559 
L 176.851155 186.318342 
L 177.357361 187.058909 
L 177.972264 187.616594 
L 178.725568 188.13275 
L 180.845683 189.185564 
L 183.117712 190.008789 
L 186.377739 190.908012 
L 189.542702 191.577096 
L 193.992484 192.274116 
L 198.591595 192.751914 
L 203.023221 193.003524 
L 207.525235 193.054223 
L 212.039717 192.892268 
L 216.872379 192.474996 
L 221.600544 191.827368 
L 227.046971 190.832141 
L 247.704362 186.674051 
L 252.583579 186.037725 
L 257.50948 185.602913 
L 263.399744 185.346789 
L 268.594639 185.333127 
L 274.911876 185.536447 
L 280.610494 185.880723 
L 280.610494 185.880723 
" style="fill:none;stroke:#000000;stroke-linecap:square;stroke-opacity:0.7;stroke-width:1.2;"/>
   </g>
   <g id="line2d_8">
    <path clip-path="url(#pa62cdc7f05)" d="M 280.826693 146.818896 
L 272.64704 145.049354 
L 261.125424 142.795099 
L 249.877154 140.814992 
L 238.981854 139.131042 
L 230.007717 137.973074 
L 223.138739 137.281662 
L 216.616188 136.830591 
L 210.609904 136.630728 
L 205.124224 136.660803 
L 199.440643 136.945943 
L 194.744722 137.418737 
L 190.510078 138.077589 
L 186.79151 138.894121 
L 183.743727 139.790701 
L 180.813383 140.939128 
L 179.079816 141.827598 
L 177.685008 142.739803 
L 176.386356 143.926372 
L 175.84327 144.703382 
L 175.538077 145.604484 
L 175.537754 146.123896 
L 175.694931 146.6732 
L 176.140716 147.351451 
L 177.004727 148.101257 
L 178.524489 148.946864 
L 180.790035 149.811566 
L 183.013028 150.445227 
L 187.02531 151.29182 
L 191.887481 151.979438 
L 196.562712 152.366983 
L 201.310555 152.506758 
L 205.419574 152.419577 
L 210.084567 152.079628 
L 214.934135 151.456284 
L 220.12062 150.519145 
L 226.875332 149.025838 
L 236.770094 146.829719 
L 241.702055 145.942132 
L 246.688346 145.26069 
L 250.952161 144.864664 
L 255.68156 144.624511 
L 261.595235 144.596152 
L 267.567726 144.831815 
L 274.872074 145.407317 
L 280.816004 146.057903 
L 280.816004 146.057903 
" style="fill:none;stroke:#000000;stroke-linecap:square;stroke-opacity:0.7;stroke-width:1.2;"/>
   </g>
   <g id="line2d_9">
    <path clip-path="url(#pa62cdc7f05)" d="M 280.693185 107.676606 
L 258.842891 103.734334 
L 247.079444 101.786312 
L 238.803104 100.621044 
L 231.923051 99.852949 
L 224.968804 99.300414 
L 218.476954 99.004124 
L 211.700252 98.932969 
L 205.33412 99.109382 
L 199.733035 99.492243 
L 194.373399 100.103895 
L 190.06358 100.819113 
L 186.464381 101.624114 
L 183.746234 102.412892 
L 181.332986 103.321424 
L 179.805128 104.075103 
L 178.653989 104.83009 
L 177.583832 105.971195 
L 177.296426 106.800662 
L 177.368066 107.482149 
L 177.592612 107.971972 
L 178.247776 108.745426 
L 179.157747 109.43784 
L 181.098744 110.456997 
L 182.979795 111.183415 
L 186.235078 112.1358 
L 190.555319 113.048216 
L 195.335385 113.755445 
L 199.514235 114.180538 
L 205.691387 114.539684 
L 210.554608 114.620505 
L 216.278518 114.500037 
L 221.745577 114.174085 
L 227.585786 113.614976 
L 235.073268 112.644063 
L 264.651638 108.447702 
L 273.52695 107.583683 
L 280.709827 107.016993 
L 280.709827 107.016993 
" style="fill:none;stroke:#000000;stroke-linecap:square;stroke-opacity:0.7;stroke-width:1.2;"/>
   </g>
   <g id="line2d_10">
    <path clip-path="url(#pa62cdc7f05)" d="M 280.72822 67.910123 
L 271.725847 65.083048 
L 263.63221 62.746918 
L 256.412793 60.865804 
L 248.938177 59.160361 
L 241.966952 57.817108 
L 235.102205 56.744944 
L 228.636498 55.982767 
L 223.750954 55.584333 
L 218.337276 55.343103 
L 212.926662 55.336989 
L 208.170035 55.549028 
L 203.10403 56.028596 
L 198.586857 56.710095 
L 195.281573 57.384424 
L 191.301308 58.428086 
L 188.347572 59.396901 
L 185.372327 60.579688 
L 183.021458 61.700969 
L 180.30555 63.286522 
L 178.233981 64.85269 
L 177.236882 65.858369 
L 176.833392 66.397381 
L 176.470026 67.190709 
L 176.484664 67.79599 
L 176.790065 68.227099 
L 177.512739 68.601367 
L 178.481387 68.814801 
L 179.964595 68.932595 
L 182.056462 68.921985 
L 187.244054 68.575456 
L 199.826374 67.510255 
L 204.695178 67.311338 
L 209.599597 67.349325 
L 214.448246 67.65131 
L 220.12392 68.276987 
L 234.490768 70.070603 
L 240.787223 70.561519 
L 245.992969 70.758136 
L 251.706711 70.743874 
L 256.388391 70.551806 
L 262.729133 70.039487 
L 267.605735 69.460497 
L 274.436532 68.417957 
L 280.737359 67.280958 
L 280.737359 67.280958 
" style="fill:none;stroke:#000000;stroke-linecap:square;stroke-opacity:0.7;stroke-width:1.2;"/>
   </g>
   <g id="line2d_11">
    <path clip-path="url(#pa62cdc7f05)" d="M 412.330529 226.599545 
L 400.663102 224.784555 
L 389.46617 223.230184 
L 377.400049 221.789028 
L 359.974923 219.996355 
L 349.579871 219.054224 
L 343.647392 218.686727 
L 338.441646 218.551177 
L 333.547591 218.629486 
L 329.687629 218.853982 
L 325.046531 219.336273 
L 321.387195 219.898302 
L 317.387863 220.724465 
L 313.483114 221.798938 
L 310.589008 222.847574 
L 308.777253 223.710399 
L 307.84768 224.307151 
L 307.224489 224.979753 
L 307.176675 225.365928 
L 307.412916 225.67928 
L 307.692512 225.846938 
L 309.011544 226.227666 
L 311.890739 226.555727 
L 316.360983 226.714131 
L 321.909005 226.664326 
L 329.506908 226.33396 
L 339.686758 225.602825 
L 351.920124 224.733734 
L 359.135627 224.476528 
L 366.257957 224.45759 
L 375.377289 224.677251 
L 412.287834 225.901544 
L 412.287834 225.901544 
" style="fill:none;stroke:#000000;stroke-linecap:square;stroke-opacity:0.7;stroke-width:1.2;"/>
   </g>
   <g id="line2d_12">
    <path clip-path="url(#pa62cdc7f05)" d="M 411.705811 187.584826 
L 400.133458 183.692852 
L 388.096105 179.860953 
L 379.162404 177.230729 
L 371.14504 175.106645 
L 364.352928 173.549785 
L 358.522832 172.4486 
L 353.161166 171.674378 
L 348.830327 171.242984 
L 344.86347 171.017569 
L 340.552165 170.975159 
L 336.237573 171.167369 
L 332.8844 171.499136 
L 329.117893 172.090006 
L 326.106663 172.754863 
L 322.896297 173.688213 
L 319.730762 174.886683 
L 316.929911 176.243039 
L 315.133225 177.305615 
L 313.424985 178.505157 
L 311.354743 180.335034 
L 310.130771 181.782067 
L 309.344222 183.111242 
L 309.021544 184.077865 
L 308.976446 184.899465 
L 309.208824 185.634998 
L 309.412316 185.929852 
L 310.221348 186.564314 
L 310.779224 186.814189 
L 312.09387 187.167085 
L 314.208062 187.415768 
L 317.276042 187.479841 
L 321.908542 187.305155 
L 344.264554 186.088971 
L 352.142227 186.079359 
L 363.093306 186.343797 
L 379.288598 186.718692 
L 400.8364 186.92488 
L 411.709073 187.040537 
L 411.709073 187.040537 
" style="fill:none;stroke:#000000;stroke-linecap:square;stroke-opacity:0.7;stroke-width:1.2;"/>
   </g>
   <g id="line2d_13">
    <path clip-path="url(#pa62cdc7f05)" d="M 412.334562 147.536183 
L 403.935372 145.128207 
L 393.434683 142.3146 
L 383.78747 139.920714 
L 374.977591 137.946424 
L 368.413498 136.657323 
L 361.712539 135.559584 
L 356.029836 134.847197 
L 350.193514 134.362594 
L 345.362364 134.17195 
L 339.947907 134.206751 
L 336.249329 134.397432 
L 331.483243 134.873009 
L 327.872658 135.435939 
L 324.717832 136.100837 
L 321.575266 136.959111 
L 318.441857 138.060484 
L 315.594 139.343964 
L 313.663664 140.425539 
L 312.241263 141.378614 
L 310.411081 142.920446 
L 309.554897 143.873971 
L 309.077261 144.558392 
L 308.715913 145.277414 
L 308.517886 146.187518 
L 308.682729 146.973169 
L 308.90792 147.322723 
L 309.623259 147.905326 
L 310.471829 148.284803 
L 312.030217 148.682018 
L 314.236794 148.9718 
L 318.360697 149.186927 
L 325.592073 149.247994 
L 339.645284 149.350871 
L 360.752046 149.670599 
L 368.136042 149.497634 
L 377.029126 149.064692 
L 393.043403 147.987622 
L 406.920432 147.132007 
L 412.335089 146.883279 
L 412.335089 146.883279 
" style="fill:none;stroke:#000000;stroke-linecap:square;stroke-opacity:0.7;stroke-width:1.2;"/>
   </g>
   <g id="line2d_14">
    <path clip-path="url(#pa62cdc7f05)" d="M 412.163465 108.738656 
L 376.562996 104.108065 
L 366.571827 103.145897 
L 355.965482 102.359261 
L 346.419703 101.84553 
L 338.758741 101.652931 
L 333.31366 101.704885 
L 328.219105 101.939912 
L 323.26799 102.380625 
L 318.934022 102.981655 
L 315.351825 103.680737 
L 312.508003 104.428099 
L 309.959219 105.363265 
L 308.659646 106.089079 
L 308.072105 106.677215 
L 307.958107 107.109467 
L 308.076368 107.416625 
L 308.292223 107.646004 
L 309.189471 108.133956 
L 310.259979 108.478503 
L 312.755835 108.997519 
L 316.407581 109.484513 
L 322.142904 109.977534 
L 330.377965 110.425126 
L 353.519437 111.339135 
L 361.42176 111.467564 
L 368.91278 111.355905 
L 375.570078 111.060834 
L 384.234372 110.46121 
L 399.838338 109.090719 
L 412.140117 108.0489 
L 412.140117 108.0489 
" style="fill:none;stroke:#000000;stroke-linecap:square;stroke-opacity:0.7;stroke-width:1.2;"/>
   </g>
   <g id="line2d_15">
    <path clip-path="url(#pa62cdc7f05)" d="M 412.06656 68.438926 
L 401.149242 66.490172 
L 391.26265 64.910209 
L 381.576701 63.571057 
L 371.438473 62.384162 
L 359.978548 61.240469 
L 350.122716 60.447297 
L 342.962783 60.105046 
L 337.00604 60.068924 
L 331.500599 60.294472 
L 326.90074 60.707948 
L 322.14102 61.38952 
L 318.844126 62.04319 
L 315.002018 63.046681 
L 311.900338 64.126814 
L 310.086029 64.94136 
L 308.61078 65.795944 
L 307.582074 66.661487 
L 307.200452 67.280992 
L 307.18021 67.706054 
L 307.442049 68.111143 
L 307.888357 68.394414 
L 309.054718 68.749989 
L 310.513134 68.957003 
L 314.205632 69.097925 
L 318.295675 68.99043 
L 326.078011 68.488657 
L 336.742947 67.780616 
L 342.015212 67.679532 
L 346.662541 67.840216 
L 351.348354 68.248277 
L 361.317829 69.509131 
L 366.499098 70.076122 
L 371.845197 70.470948 
L 377.780194 70.6584 
L 383.760144 70.594149 
L 390.124135 70.280336 
L 397.251815 69.677295 
L 404.580991 68.836318 
L 412.101174 67.79887 
L 412.101174 67.79887 
" style="fill:none;stroke:#000000;stroke-linecap:square;stroke-opacity:0.7;stroke-width:1.2;"/>
   </g>
   <g id="line2d_16">
    <path clip-path="url(#pa62cdc7f05)" d="M 543.962942 226.598116 
L 538.422962 224.517993 
L 530.963427 221.944817 
L 523.945198 219.743248 
L 516.872099 217.754625 
L 510.33949 216.135131 
L 504.236827 214.81393 
L 496.899496 213.474607 
L 491.303414 212.649424 
L 485.262967 211.980524 
L 480.174244 211.630961 
L 475.913111 211.517421 
L 471.95152 211.58182 
L 467.549567 211.874243 
L 463.974619 212.307425 
L 460.380519 212.945826 
L 457.241875 213.693629 
L 454.260857 214.593294 
L 450.594445 215.999983 
L 447.697885 217.399519 
L 444.944876 219.040517 
L 443.241873 220.265444 
L 441.326863 221.954277 
L 440.241675 223.213186 
L 439.681254 224.149254 
L 439.464393 225.082091 
L 439.606693 225.574153 
L 439.914524 225.914638 
L 440.766581 226.310364 
L 441.972542 226.530644 
L 444.125111 226.628269 
L 448.196987 226.481432 
L 467.101005 225.349448 
L 472.471459 225.340099 
L 477.174618 225.518241 
L 483.18226 225.977262 
L 504.262816 227.930051 
L 510.831646 228.163054 
L 517.057718 228.148981 
L 522.953057 227.935158 
L 530.079452 227.446417 
L 538.847125 226.57583 
L 543.971329 225.979189 
L 543.971329 225.979189 
" style="fill:none;stroke:#000000;stroke-linecap:square;stroke-opacity:0.7;stroke-width:1.2;"/>
   </g>
   <g id="line2d_17">
    <path clip-path="url(#pa62cdc7f05)" d="M 543.68378 186.409358 
L 536.821548 184.63216 
L 528.601334 182.727481 
L 521.357803 181.257963 
L 513.5017 179.90701 
L 505.964862 178.844338 
L 497.943414 177.916007 
L 487.865433 176.951524 
L 479.808151 176.371092 
L 473.79995 176.136945 
L 468.467529 176.138896 
L 463.316065 176.383611 
L 458.48024 176.883762 
L 455.620764 177.327818 
L 451.227178 178.271232 
L 447.860112 179.259363 
L 444.880366 180.39378 
L 442.756682 181.423822 
L 440.888355 182.609101 
L 440.059857 183.317632 
L 439.277271 184.347822 
L 439.103659 184.844042 
L 439.130594 185.562623 
L 439.385023 186.074516 
L 439.878544 186.590458 
L 440.495644 187.014575 
L 442.446828 187.855234 
L 444.518741 188.419659 
L 447.967355 189.034003 
L 450.878691 189.370301 
L 455.685131 189.692432 
L 461.203092 189.802858 
L 466.512624 189.701684 
L 473.326268 189.314599 
L 479.290212 188.765836 
L 487.467689 187.777052 
L 500.963735 186.080728 
L 508.356984 185.412004 
L 514.482819 185.0678 
L 520.723526 184.913266 
L 528.432496 184.96697 
L 536.860887 185.271996 
L 543.716669 185.650623 
L 543.716669 185.650623 
" style="fill:none;stroke:#000000;stroke-linecap:square;stroke-opacity:0.7;stroke-width:1.2;"/>
   </g>
   <g id="line2d_18">
    <path clip-path="url(#pa62cdc7f05)" d="M 543.640465 146.758054 
L 535.328081 144.854433 
L 524.900108 142.674889 
L 514.895232 140.799966 
L 505.912175 139.326624 
L 496.29898 137.990277 
L 487.773298 137.042646 
L 480.612339 136.486527 
L 475.116089 136.270754 
L 469.895726 136.282897 
L 464.322742 136.575008 
L 460.584825 136.959408 
L 456.568558 137.571471 
L 452.875476 138.35286 
L 449.659732 139.247736 
L 446.465438 140.401446 
L 444.381141 141.355786 
L 442.010632 142.760476 
L 440.739988 143.787816 
L 439.892504 144.783789 
L 439.554626 145.51979 
L 439.513115 146.110946 
L 439.642099 146.521917 
L 440.166059 147.135362 
L 440.313399 147.244804 
L 441.811077 147.939973 
L 443.030199 148.272631 
L 446.557079 148.834488 
L 450.332231 149.145672 
L 456.592853 149.378383 
L 468.481584 149.494225 
L 478.079498 149.686531 
L 488.781482 150.159291 
L 497.947316 150.519635 
L 504.330596 150.573621 
L 509.661157 150.444441 
L 516.227609 150.052801 
L 522.825401 149.411361 
L 530.129862 148.444554 
L 538.225074 147.114363 
L 543.624882 146.106115 
L 543.624882 146.106115 
" style="fill:none;stroke:#000000;stroke-linecap:square;stroke-opacity:0.7;stroke-width:1.2;"/>
   </g>
   <g id="line2d_19">
    <path clip-path="url(#pa62cdc7f05)" d="M 543.990098 107.780412 
L 537.777764 105.831274 
L 529.367056 103.437303 
L 522.21503 101.616993 
L 515.107311 100.009085 
L 507.036212 98.414368 
L 498.901317 97.028789 
L 490.9494 95.889114 
L 484.555841 95.172091 
L 478.605145 94.726978 
L 473.056346 94.562781 
L 468.560411 94.648276 
L 464.178755 94.958472 
L 459.583466 95.574282 
L 456.093188 96.282801 
L 452.620698 97.239904 
L 450.151562 98.10557 
L 447.707565 99.148557 
L 444.679734 100.776864 
L 442.499882 102.294376 
L 440.961405 103.698072 
L 440.102326 104.784921 
L 439.66107 105.671957 
L 439.529091 106.309217 
L 439.693661 107.179047 
L 440.124642 107.764511 
L 440.245487 107.875326 
L 441.678929 108.685207 
L 443.198488 109.158251 
L 446.214844 109.706764 
L 450.613669 110.12155 
L 455.881536 110.346858 
L 463.111059 110.401144 
L 471.628554 110.211454 
L 478.920515 109.862091 
L 489.243546 109.12944 
L 508.565675 107.682381 
L 517.590943 107.243132 
L 526.774932 107.008139 
L 536.468547 106.97687 
L 543.983467 107.085232 
L 543.983467 107.085232 
" style="fill:none;stroke:#000000;stroke-linecap:square;stroke-opacity:0.7;stroke-width:1.2;"/>
   </g>
   <g id="line2d_20">
    <path clip-path="url(#pa62cdc7f05)" d="M 543.731185 68.414325 
L 534.394693 67.44472 
L 520.243998 65.739544 
L 500.512743 63.357403 
L 491.642876 62.5059 
L 483.415347 61.931283 
L 476.707588 61.662173 
L 470.634779 61.61265 
L 464.205543 61.798883 
L 458.208339 62.226913 
L 453.549993 62.758239 
L 448.716805 63.547213 
L 445.549529 64.258536 
L 443.072554 65.008939 
L 441.567013 65.642897 
L 441.037888 65.937647 
L 440.133875 66.729046 
L 439.935545 67.31623 
L 440.04007 67.754655 
L 440.473052 68.312855 
L 441.07681 68.775378 
L 442.738131 69.621453 
L 445.886089 70.688967 
L 450.05019 71.678776 
L 454.82627 72.492895 
L 459.542544 73.05905 
L 464.21072 73.427447 
L 469.806107 73.644872 
L 475.038667 73.644943 
L 480.600445 73.448227 
L 486.772334 73.022754 
L 494.930922 72.209553 
L 525.097376 68.886085 
L 535.360926 68.114918 
L 543.680405 67.628356 
L 543.680405 67.628356 
" style="fill:none;stroke:#000000;stroke-linecap:square;stroke-opacity:0.7;stroke-width:1.2;"/>
   </g>
   <g id="line2d_21">
    <path clip-path="url(#pa62cdc7f05)" d="M 675.311407 225.625602 
L 666.798104 222.49663 
L 659.377254 219.986203 
L 653.210042 218.100466 
L 647.406094 216.52187 
L 640.826375 214.985418 
L 635.064851 213.871176 
L 629.604226 213.017234 
L 623.61873 212.308758 
L 617.698095 211.848728 
L 612.08293 211.650343 
L 606.506994 211.710731 
L 601.710556 211.997618 
L 597.204508 212.495731 
L 592.621718 213.267438 
L 589.003052 214.099698 
L 585.678414 215.072145 
L 582.635491 216.174604 
L 579.683615 217.491121 
L 576.899069 219.041981 
L 575.137726 220.259439 
L 573.141923 222.068528 
L 572.245338 223.253957 
L 571.74328 224.34195 
L 571.595606 225.366148 
L 571.793661 226.327171 
L 572.165934 227.012854 
L 573.034363 227.948833 
L 574.056765 228.685868 
L 576.206382 229.763176 
L 578.894759 230.698164 
L 582.042004 231.486736 
L 585.907917 232.170999 
L 590.462473 232.688242 
L 594.640495 232.939559 
L 599.35733 232.992705 
L 604.511967 232.779884 
L 608.989021 232.365324 
L 613.606957 231.719753 
L 619.368277 230.647076 
L 628.01202 228.737032 
L 635.560915 227.134965 
L 641.978389 226.029398 
L 646.948829 225.387703 
L 652.142311 224.926091 
L 658.066319 224.644698 
L 664.405236 224.59284 
L 671.815334 224.782841 
L 675.302932 224.939732 
L 675.302932 224.939732 
" style="fill:none;stroke:#000000;stroke-linecap:square;stroke-opacity:0.7;stroke-width:1.2;"/>
   </g>
   <g id="line2d_22">
    <path clip-path="url(#pa62cdc7f05)" d="M 674.982807 186.934787 
L 667.822996 184.148906 
L 659.506585 181.139201 
L 652.144425 178.697161 
L 645.373498 176.682841 
L 638.648809 174.939105 
L 632.592855 173.603524 
L 626.802419 172.543111 
L 621.037402 171.71271 
L 615.246339 171.131855 
L 610.383572 170.867829 
L 605.624142 170.836236 
L 601.545375 171.013303 
L 597.955787 171.347611 
L 594.495306 171.851222 
L 590.627652 172.659336 
L 587.133157 173.653774 
L 585.20601 174.328945 
L 582.530784 175.443089 
L 579.688623 176.898776 
L 577.277984 178.416368 
L 575.017604 180.173636 
L 573.261347 181.916439 
L 572.475135 182.925204 
L 571.858253 184.04469 
L 571.682791 184.686063 
L 571.767003 185.420877 
L 572.003977 185.76662 
L 572.443977 186.074977 
L 573.430033 186.373278 
L 574.863275 186.497251 
L 577.742327 186.381703 
L 582.039321 185.906302 
L 596.403088 184.094076 
L 601.221517 183.719388 
L 605.905847 183.562478 
L 611.033915 183.654272 
L 616.134557 183.997599 
L 623.469712 184.771728 
L 635.875946 186.117415 
L 642.273949 186.591049 
L 649.253567 186.872889 
L 655.868008 186.92373 
L 663.854452 186.757009 
L 674.988723 186.260285 
L 674.988723 186.260285 
" style="fill:none;stroke:#000000;stroke-linecap:square;stroke-opacity:0.7;stroke-width:1.2;"/>
   </g>
   <g id="line2d_23">
    <path clip-path="url(#pa62cdc7f05)" d="M 675.323482 147.789355 
L 660.317216 145.161374 
L 649.244942 143.429063 
L 641.385702 142.39355 
L 632.871233 141.500842 
L 624.198251 140.832635 
L 615.973952 140.406991 
L 608.396271 140.21443 
L 601.683983 140.259882 
L 595.733388 140.530195 
L 590.369469 141.010583 
L 585.735386 141.649001 
L 581.453364 142.46894 
L 577.37349 143.524058 
L 574.711126 144.426154 
L 572.81779 145.25143 
L 571.578159 146.012238 
L 571.216748 146.483444 
L 571.252229 146.646141 
L 571.555655 146.829394 
L 572.070526 146.925136 
L 574.012459 146.942736 
L 577.967746 146.655439 
L 589.300924 145.48924 
L 600.46815 144.417478 
L 606.175399 144.061543 
L 610.819726 143.951265 
L 615.42958 144.032776 
L 621.308412 144.381132 
L 630.554782 145.217035 
L 642.567156 146.270224 
L 651.015985 146.794069 
L 660.156144 147.1201 
L 670.434034 147.230422 
L 675.350996 147.213091 
L 675.350996 147.213091 
" style="fill:none;stroke:#000000;stroke-linecap:square;stroke-opacity:0.7;stroke-width:1.2;"/>
   </g>
   <g id="line2d_24">
    <path clip-path="url(#pa62cdc7f05)" d="M 675.116843 108.469217 
L 669.016833 106.655762 
L 660.094906 104.225137 
L 652.48968 102.366527 
L 645.036706 100.774268 
L 638.172335 99.531347 
L 631.18598 98.487573 
L 625.073437 97.746579 
L 617.385118 97.032607 
L 610.347383 96.61028 
L 604.18375 96.464341 
L 598.314676 96.572161 
L 593.017553 96.930665 
L 588.540652 97.478249 
L 585.450227 98.019919 
L 581.670327 98.913611 
L 578.10021 100.066867 
L 575.40918 101.218987 
L 573.636399 102.176496 
L 571.985149 103.298559 
L 570.875263 104.2836 
L 570.024263 105.366325 
L 569.631861 106.389343 
L 569.644743 107.005671 
L 569.892912 107.588482 
L 570.176743 107.926611 
L 570.588973 108.259227 
L 571.365759 108.679413 
L 572.681824 109.12985 
L 575.787738 109.696999 
L 579.298942 110.003336 
L 584.486511 110.202688 
L 606.343224 110.714001 
L 615.512948 111.26539 
L 626.488611 111.919527 
L 633.226756 112.075749 
L 639.982754 111.959483 
L 645.715032 111.650141 
L 652.819848 111.030373 
L 660.725796 110.08365 
L 668.600123 108.922147 
L 675.149387 107.818712 
L 675.149387 107.818712 
" style="fill:none;stroke:#000000;stroke-linecap:square;stroke-opacity:0.7;stroke-width:1.2;"/>
   </g>
   <g id="line2d_25">
    <path clip-path="url(#pa62cdc7f05)" d="M 675.48729 68.664377 
L 669.261318 66.402606 
L 662.126932 64.009876 
L 654.654769 61.721954 
L 647.477374 59.765765 
L 641.769893 58.401846 
L 635.464499 57.109521 
L 629.501103 56.10592 
L 623.774602 55.351475 
L 617.510764 54.77216 
L 611.294246 54.467451 
L 606.230003 54.438556 
L 601.533058 54.613967 
L 596.642549 55.041849 
L 592.144611 55.703828 
L 588.458795 56.481812 
L 584.802777 57.512761 
L 581.606513 58.677949 
L 578.738494 59.991898 
L 576.113345 61.492597 
L 574.099639 62.923473 
L 572.389766 64.468351 
L 571.361133 65.742483 
L 570.876278 66.719721 
L 570.769402 67.387509 
L 570.834352 67.785148 
L 571.101705 68.262836 
L 571.590034 68.676863 
L 573.0666 69.259834 
L 574.353172 69.515385 
L 577.544332 69.814265 
L 581.27601 69.91913 
L 589.971316 69.864296 
L 600.063813 69.832025 
L 606.626269 70.016883 
L 613.798162 70.466178 
L 632.629791 71.913765 
L 639.380902 72.077359 
L 645.545554 71.966581 
L 651.265092 71.636902 
L 657.384862 71.049384 
L 663.639532 70.214482 
L 670.880591 68.990527 
L 675.490909 68.098937 
L 675.490909 68.098937 
" style="fill:none;stroke:#000000;stroke-linecap:square;stroke-opacity:0.7;stroke-width:1.2;"/>
   </g>
  </g>
 </g>
 <defs>
  <clipPath id="pa62cdc7f05">
   <rect height="262.08" width="694.08" x="12.96" y="12.96"/>
  </clipPath>
 </defs>
</svg>
