<?xml version="1.0" encoding="utf-8" standalone="no"?>
<!DOCTYPE svg PUBLIC "-//W3C//DTD SVG 1.1//EN"
  "http://www.w3.org/Graphics/SVG/1.1/DTD/svg11.dtd">
<!-- Created with matplotlib (https://matplotlib.org/) -->
<svg height="288pt" version="1.1" viewBox="0 0 720 288" width="720pt" xmlns="http://www.w3.org/2000/svg" xmlns:xlink="http://www.w3.org/1999/xlink">
 <defs>
  <style type="text/css">
*{stroke-linecap:butt;stroke-linejoin:round;}
  </style>
 </defs>
 <g id="figure_1">
  <g id="patch_1">
   <path d="M 0 288 
L 720 288 
L 720 0 
L 0 0 
z
" style="fill:#ffffff;"/>
  </g>
  <g id="axes_1">
   <g id="line2d_1">
    <path clip-path="url(#p0a40525306)" d="M 83.036553 240.823026 
L 82.034242 240.194362 
L 79.841183 239.093398 
L 75.000374 236.960076 
L 64.173969 232.24829 
L 59.400566 229.896163 
L 54.067802 227.186506 
L 52.379424 226.650275 
L 50.964943 226.490404 
L 48.566785 226.80225 
L 45.661844 227.450569 
L 45.645006 227.424658 
L 45.680722 227.403989 
L 46.144426 227.409251 
L 46.717343 227.592504 
L 47.196883 227.852398 
L 48.226937 228.714714 
L 49.900511 230.428225 
L 50.617647 230.779154 
L 50.751612 230.818153 
L 52.266167 230.997321 
L 55.767729 231.227184 
L 57.667442 231.585971 
L 59.961094 232.277629 
L 63.636975 233.709192 
L 69.619861 236.00384 
L 77.768524 238.829195 
L 83.038971 240.704802 
L 83.174312 240.790839 
L 83.174312 240.790839 
" style="fill:none;stroke:#000000;stroke-linecap:square;stroke-opacity:0.7;stroke-width:1.2;"/>
   </g>
   <g id="line2d_2">
    <path clip-path="url(#p0a40525306)" d="M 83.562387 195.962204 
L 81.734902 195.191961 
L 78.471905 194.029641 
L 72.622283 192.194941 
L 64.283699 189.592892 
L 60.515191 188.204744 
L 57.88673 187.04408 
L 54.984275 185.493227 
L 50.194151 182.805036 
L 48.808645 182.353944 
L 47.187968 182.159504 
L 45.800594 182.252781 
L 44.509091 182.549513 
L 45.04019 182.725096 
L 45.981803 183.098781 
L 47.568355 184.059756 
L 49.854514 185.594139 
L 50.40508 185.804754 
L 51.544232 186.009422 
L 53.272024 186.008906 
L 56.329479 185.956767 
L 58.351616 186.171546 
L 60.199715 186.625813 
L 62.20475 187.383174 
L 74.042125 192.417069 
L 83.461739 196.095625 
L 83.461739 196.095625 
" style="fill:none;stroke:#000000;stroke-linecap:square;stroke-opacity:0.7;stroke-width:1.2;"/>
   </g>
   <g id="line2d_3">
    <path clip-path="url(#p0a40525306)" d="M 83.18044 151.981049 
L 82.436389 151.447347 
L 80.532044 150.38847 
L 77.126238 148.78239 
L 69.59131 145.548935 
L 62.569256 142.48269 
L 53.720485 138.514075 
L 52.460565 138.23853 
L 51.354202 138.232625 
L 50.446193 138.45782 
L 49.325666 139.028311 
L 48.467217 139.428394 
L 48.054073 139.423824 
L 47.719953 139.263918 
L 47.037425 138.58701 
L 46.650871 138.184872 
L 46.015942 137.850471 
L 45.82837 137.849414 
L 45.460684 137.976746 
L 45.098324 138.328813 
L 45.019207 138.596392 
L 45.122686 138.853711 
L 45.338738 139.030658 
L 46.49833 139.476676 
L 49.757677 140.517244 
L 51.388333 141.182052 
L 55.051758 143.02482 
L 58.342463 144.750975 
L 61.894896 146.312655 
L 65.408531 147.558461 
L 69.987471 148.914388 
L 76.43436 150.564488 
L 83.125907 152.303361 
L 83.239507 152.347249 
L 83.239507 152.347249 
" style="fill:none;stroke:#000000;stroke-linecap:square;stroke-opacity:0.7;stroke-width:1.2;"/>
   </g>
   <g id="line2d_4">
    <path clip-path="url(#p0a40525306)" d="M 81.850775 107.677158 
L 81.556757 107.33313 
L 80.643371 106.618242 
L 78.829916 105.494056 
L 75.102415 103.518451 
L 69.187173 100.659947 
L 53.376938 93.298261 
L 52.401579 93.178239 
L 51.846074 93.240989 
L 51.078676 93.528139 
L 49.609676 94.594958 
L 48.647341 95.213283 
L 47.747743 95.180121 
L 46.539539 94.335204 
L 46.201272 94.524739 
L 45.898285 94.892137 
L 45.965232 94.987447 
L 46.130548 94.982681 
L 47.136596 94.867393 
L 49.377204 95.03374 
L 50.820302 95.453265 
L 53.686484 96.903815 
L 56.836853 99.051163 
L 59.851769 101.002557 
L 62.168841 102.238211 
L 65.413913 103.614912 
L 68.315467 104.585711 
L 72.541297 105.70692 
L 77.478969 106.751097 
L 82.466177 107.780941 
L 82.466177 107.780941 
" style="fill:none;stroke:#000000;stroke-linecap:square;stroke-opacity:0.7;stroke-width:1.2;"/>
   </g>
   <g id="line2d_5">
    <path clip-path="url(#p0a40525306)" d="M 82.741638 62.992522 
L 81.62514 62.265983 
L 79.303747 61.046878 
L 74.927132 59.013994 
L 63.406781 53.799827 
L 58.01888 51.037036 
L 54.801368 49.425371 
L 53.413996 49.007804 
L 52.530889 48.907386 
L 50.985953 49.02704 
L 47.426886 49.625036 
L 46.985913 49.516851 
L 46.490252 49.155737 
L 46.159366 48.619828 
L 45.994812 48.8059 
L 45.663613 49.905276 
L 45.610317 50.278357 
L 45.769021 50.833615 
L 46.223717 51.091692 
L 47.503086 51.356535 
L 50.112968 51.897632 
L 52.190362 52.555315 
L 54.335716 53.456567 
L 57.83011 55.239015 
L 61.725976 57.18989 
L 64.900555 58.542689 
L 68.74912 59.916292 
L 72.495776 61.037056 
L 77.777479 62.356802 
L 82.746632 63.50533 
L 82.746632 63.50533 
" style="fill:none;stroke:#000000;stroke-linecap:square;stroke-opacity:0.7;stroke-width:1.2;"/>
   </g>
   <g id="line2d_6">
    <path clip-path="url(#p0a40525306)" d="M 231.004435 240.989091 
L 230.474523 240.458371 
L 229.344769 239.626523 
L 226.615776 237.956901 
L 220.763241 234.746825 
L 202.829129 225.294933 
L 201.145253 224.734654 
L 199.332455 224.449583 
L 197.899037 224.512622 
L 196.683667 224.778393 
L 195.111629 225.393405 
L 192.641403 226.607792 
L 192.131612 226.543212 
L 192.06718 226.462627 
L 192.056016 225.986121 
L 192.069944 225.992961 
L 192.445116 226.615942 
L 192.859282 227.028736 
L 193.619372 227.426605 
L 194.804655 227.743105 
L 197.965687 228.212899 
L 201.105224 228.784289 
L 203.223659 229.381524 
L 205.334111 230.212982 
L 207.97824 231.579536 
L 212.53541 234.05898 
L 215.734046 235.518611 
L 219.862175 237.139967 
L 225.364226 239.038081 
L 230.567135 240.858487 
L 230.906391 241.115015 
L 230.906391 241.115015 
" style="fill:none;stroke:#000000;stroke-linecap:square;stroke-opacity:0.7;stroke-width:1.2;"/>
   </g>
   <g id="line2d_7">
    <path clip-path="url(#p0a40525306)" d="M 230.575525 196.470568 
L 230.223436 196.029509 
L 229.391428 195.321082 
L 228.092399 194.402073 
L 224.146648 191.963538 
L 214.727105 186.625031 
L 202.908432 180.107425 
L 201.198609 179.402499 
L 199.698537 179.026936 
L 198.818247 178.954007 
L 197.50936 179.079241 
L 196.542733 179.355225 
L 195.454935 179.842787 
L 194.011297 180.743693 
L 192.20934 181.995604 
L 192.181708 181.842949 
L 192.430089 181.529182 
L 192.493337 181.646307 
L 192.540181 182.623548 
L 192.769953 182.801773 
L 194.679762 183.140369 
L 195.65813 183.323344 
L 198.243793 184.126804 
L 199.833507 184.863864 
L 202.239319 186.27935 
L 207.463104 189.570703 
L 210.225765 190.959041 
L 213.195786 192.178329 
L 216.663395 193.348767 
L 221.284456 194.631483 
L 230.714315 196.961957 
L 230.714315 196.961957 
" style="fill:none;stroke:#000000;stroke-linecap:square;stroke-opacity:0.7;stroke-width:1.2;"/>
   </g>
   <g id="line2d_8">
    <path clip-path="url(#p0a40525306)" d="M 231.051755 151.645321 
L 228.040499 150.418008 
L 212.69462 144.353335 
L 208.240047 142.231855 
L 204.547587 140.181 
L 200.449274 137.884449 
L 199.182985 137.356748 
L 197.349404 136.88633 
L 195.389042 136.831499 
L 193.905991 137.133239 
L 193.150623 137.432564 
L 192.469322 137.944976 
L 192.527098 138.165146 
L 193.018327 138.333073 
L 195.369145 138.825983 
L 196.93604 139.576801 
L 198.279541 140.464841 
L 198.933066 140.436895 
L 200.899727 140.053629 
L 202.08311 140.039247 
L 203.532445 140.257075 
L 203.794068 140.322316 
L 206.159099 141.226039 
L 208.50792 142.49645 
L 212.238127 144.535855 
L 215.790357 146.189305 
L 219.770298 147.773433 
L 224.447264 149.394915 
L 230.764367 151.545383 
L 230.845038 151.60874 
L 230.845038 151.60874 
" style="fill:none;stroke:#000000;stroke-linecap:square;stroke-opacity:0.7;stroke-width:1.2;"/>
   </g>
   <g id="line2d_9">
    <path clip-path="url(#p0a40525306)" d="M 231.311783 106.748866 
L 222.493018 104.257905 
L 218.322785 102.956791 
L 212.196111 100.768387 
L 208.782377 99.294933 
L 206.096527 97.918997 
L 203.330696 96.240922 
L 198.613039 93.237032 
L 196.999385 92.537769 
L 196.47531 92.377027 
L 194.930089 92.117959 
L 193.815041 92.152074 
L 193.424753 92.215666 
L 192.235825 92.698329 
L 192.091921 92.993012 
L 192.393415 93.231837 
L 193.51393 93.481254 
L 194.995908 93.793835 
L 196.315516 94.362595 
L 196.7257 94.672888 
L 197.753181 95.977707 
L 197.918185 95.904613 
L 199.709125 95.50971 
L 200.177206 95.579162 
L 201.243046 95.910678 
L 203.120427 96.867225 
L 209.104912 100.353497 
L 212.546447 101.97129 
L 216.177591 103.405446 
L 220.00391 104.687591 
L 224.630625 105.988901 
L 230.918598 107.489714 
L 230.918598 107.489714 
" style="fill:none;stroke:#000000;stroke-linecap:square;stroke-opacity:0.7;stroke-width:1.2;"/>
   </g>
   <g id="line2d_10">
    <path clip-path="url(#p0a40525306)" d="M 232.335489 62.708415 
L 229.967907 61.488445 
L 223.593423 58.510605 
L 213.620269 53.829778 
L 206.635318 50.285463 
L 200.740181 47.300469 
L 198.730349 46.524624 
L 196.798366 46.119059 
L 195.631704 46.144727 
L 192.953805 48.240322 
L 192.861247 48.848886 
L 193.105264 49.733253 
L 193.729224 50.345878 
L 194.441588 50.691501 
L 195.834418 51.065175 
L 198.526528 51.699209 
L 198.668446 51.75199 
L 200.139789 52.640952 
L 201.653705 52.129197 
L 202.574789 52.174847 
L 203.915928 52.612017 
L 204.462089 52.86501 
L 209.771408 55.540165 
L 210.099928 55.685445 
L 215.561152 57.806393 
L 221.47232 59.748197 
L 231.554261 62.883527 
L 231.554261 62.883527 
" style="fill:none;stroke:#000000;stroke-linecap:square;stroke-opacity:0.7;stroke-width:1.2;"/>
   </g>
   <g id="line2d_11">
    <path clip-path="url(#p0a40525306)" d="M 379.222269 241.028661 
L 378.485452 240.414159 
L 376.735422 239.265356 
L 373.897578 237.639881 
L 367.342373 234.2538 
L 358.232038 229.904947 
L 354.055809 228.094927 
L 351.768845 227.339783 
L 350.414023 227.141814 
L 349.484306 227.239197 
L 349.014821 227.408754 
L 348.307819 227.902096 
L 347.790177 228.537248 
L 347.190877 229.758834 
L 346.825135 230.835394 
L 346.731055 230.77456 
L 346.463015 229.832001 
L 346.13749 229.363256 
L 344.577698 228.514836 
L 342.26356 227.694445 
L 341.9242 227.30961 
L 342.255944 227.307667 
L 343.688592 227.759111 
L 346.102481 228.964745 
L 352.381586 232.468693 
L 355.091087 233.58954 
L 359.542939 235.157259 
L 378.403686 241.549927 
L 378.403686 241.549927 
" style="fill:none;stroke:#000000;stroke-linecap:square;stroke-opacity:0.7;stroke-width:1.2;"/>
   </g>
   <g id="line2d_12">
    <path clip-path="url(#p0a40525306)" d="M 378.856073 196.845343 
L 378.495079 196.330928 
L 377.548389 195.50157 
L 375.933929 194.442726 
L 373.394377 193.072631 
L 369.552419 191.270902 
L 355.122335 184.806419 
L 352.552649 183.269417 
L 348.250725 180.325127 
L 347.229136 180.071552 
L 345.680446 180.063343 
L 343.337221 180.190061 
L 342.340457 180.013742 
L 341.079853 179.686286 
L 340.54002 179.819821 
L 339.890936 180.320569 
L 339.409025 181.013238 
L 339.329324 181.224194 
L 339.310938 181.620729 
L 339.593739 181.995673 
L 340.535349 182.378927 
L 345.076592 183.672949 
L 347.364963 184.665262 
L 350.611849 186.508743 
L 355.068479 189.147818 
L 358.095633 190.615307 
L 361.300214 191.904654 
L 364.920297 193.138385 
L 369.942739 194.605365 
L 379.203323 197.180022 
L 379.203323 197.180022 
" style="fill:none;stroke:#000000;stroke-linecap:square;stroke-opacity:0.7;stroke-width:1.2;"/>
   </g>
   <g id="line2d_13">
    <path clip-path="url(#p0a40525306)" d="M 378.752968 152.111702 
L 378.38567 151.681863 
L 377.353729 150.869218 
L 375.741115 149.843607 
L 372.865136 148.250289 
L 366.960832 145.315394 
L 351.885475 138.195299 
L 350.541974 137.847412 
L 349.8381 137.884607 
L 349.167629 138.152234 
L 348.460708 138.701846 
L 346.638687 140.345732 
L 346.173684 140.405025 
L 345.725888 140.195608 
L 345.159406 139.890221 
L 344.887548 139.958609 
L 344.504709 140.395243 
L 344.472199 140.769743 
L 344.489811 140.794596 
L 345.663099 141.043717 
L 347.618545 141.276579 
L 349.650811 141.779338 
L 350.954151 142.245663 
L 353.902905 143.623368 
L 359.187335 146.260693 
L 362.445773 147.564848 
L 366.402754 148.884856 
L 372.13214 150.504362 
L 379.095352 152.397826 
L 379.095352 152.397826 
" style="fill:none;stroke:#000000;stroke-linecap:square;stroke-opacity:0.7;stroke-width:1.2;"/>
   </g>
   <g id="line2d_14">
    <path clip-path="url(#p0a40525306)" d="M 379.478681 107.585563 
L 378.793362 107.058428 
L 377.177231 106.089491 
L 373.276984 104.058888 
L 351.30545 93.253055 
L 349.913508 92.968063 
L 348.405129 93.041026 
L 347.085645 93.452432 
L 345.331095 94.335432 
L 343.891094 94.9823 
L 343.589208 94.920654 
L 343.776134 94.842114 
L 344.091172 94.903274 
L 344.561832 95.212883 
L 344.970496 95.673133 
L 346.169556 97.329282 
L 346.682727 97.511309 
L 346.775631 97.522159 
L 350.230985 97.46797 
L 352.275406 97.770099 
L 354.209145 98.333047 
L 356.990489 99.458564 
L 363.842326 102.359399 
L 367.663984 103.775821 
L 373.603151 105.742396 
L 379.488343 107.665214 
L 379.488343 107.665214 
" style="fill:none;stroke:#000000;stroke-linecap:square;stroke-opacity:0.7;stroke-width:1.2;"/>
   </g>
   <g id="line2d_15">
    <path clip-path="url(#p0a40525306)" d="M 379.907853 62.549028 
L 376.011412 61.180741 
L 366.855441 57.917569 
L 361.893752 55.938266 
L 357.480949 53.945615 
L 352.686335 51.481504 
L 348.927087 49.591324 
L 347.261104 49.018511 
L 346.075948 48.848164 
L 345.071449 48.937121 
L 344.045484 49.3316 
L 343.379019 49.822783 
L 342.868336 50.520933 
L 342.825875 50.752947 
L 343.16297 51.14508 
L 344.328382 51.404127 
L 345.650748 51.749382 
L 346.614611 52.2443 
L 347.396709 52.825546 
L 347.715926 52.011801 
L 348.25686 51.524274 
L 348.974445 51.326668 
L 349.904401 51.402623 
L 351.418462 51.935818 
L 353.582263 53.077795 
L 357.982124 55.467782 
L 361.27918 56.983016 
L 365.146688 58.490021 
L 369.38752 59.893366 
L 375.11417 61.501868 
L 379.707649 62.78623 
L 379.707649 62.78623 
" style="fill:none;stroke:#000000;stroke-linecap:square;stroke-opacity:0.7;stroke-width:1.2;"/>
   </g>
   <g id="line2d_16">
    <path clip-path="url(#p0a40525306)" d="M 527.022186 240.948561 
L 526.591421 240.531363 
L 525.334287 239.653327 
L 522.492118 237.996705 
L 516.741486 234.951317 
L 500.439261 226.606193 
L 499.216838 226.179195 
L 498.022744 225.91943 
L 496.485125 225.918019 
L 495.03879 226.348727 
L 493.638842 227.158627 
L 492.03771 228.142016 
L 491.839181 228.17616 
L 491.430975 227.927566 
L 491.33779 227.589074 
L 491.331623 227.683817 
L 491.364698 228.766799 
L 491.564698 229.031297 
L 492.075726 229.225715 
L 494.595987 229.58158 
L 497.159669 230.265585 
L 499.370488 231.193162 
L 502.268829 232.740155 
L 505.759329 234.626456 
L 508.610677 235.914602 
L 511.830616 237.097707 
L 515.595709 238.232765 
L 520.969451 239.591014 
L 527.47686 241.220726 
L 527.47686 241.220726 
" style="fill:none;stroke:#000000;stroke-linecap:square;stroke-opacity:0.7;stroke-width:1.2;"/>
   </g>
   <g id="line2d_17">
    <path clip-path="url(#p0a40525306)" d="M 527.478694 195.572534 
L 518.452452 193.2507 
L 509.576444 190.816638 
L 505.490228 189.51519 
L 502.495922 188.369149 
L 500.151198 187.260718 
L 498.353295 186.218534 
L 496.690517 185.07203 
L 491.194263 180.975562 
L 489.623836 180.262635 
L 488.533474 179.994257 
L 487.930918 179.951922 
L 487.451871 180.047195 
L 487.411897 180.172873 
L 487.722875 180.404643 
L 491.34717 182.129609 
L 492.87525 183.377465 
L 494.343317 184.801903 
L 495.12086 185.271567 
L 497.092348 185.341351 
L 499.410987 185.041409 
L 500.542698 185.119128 
L 502.513974 185.741727 
L 504.458169 186.738384 
L 508.871009 189.055221 
L 512.78519 190.845767 
L 517.302734 192.665758 
L 524.222475 195.029263 
L 527.664822 196.113884 
L 527.664822 196.113884 
" style="fill:none;stroke:#000000;stroke-linecap:square;stroke-opacity:0.7;stroke-width:1.2;"/>
   </g>
   <g id="line2d_18">
    <path clip-path="url(#p0a40525306)" d="M 527.564259 151.990136 
L 525.411964 150.907157 
L 515.23281 145.940335 
L 504.368006 140.795769 
L 501.935325 139.908648 
L 500.542245 139.597911 
L 499.548267 139.533047 
L 498.416436 139.702688 
L 497.703428 139.995244 
L 497.070928 140.410657 
L 495.948449 141.518021 
L 495.458715 141.931285 
L 495.20265 141.896677 
L 494.849882 141.350728 
L 494.466654 140.829506 
L 493.917232 140.520118 
L 493.082372 140.363368 
L 491.498117 140.091172 
L 491.268085 139.936287 
L 491.432294 139.770796 
L 492.075275 139.739236 
L 493.168321 139.899142 
L 494.576003 140.273797 
L 497.274495 141.3043 
L 500.350443 142.793985 
L 505.074637 145.142586 
L 508.344525 146.481782 
L 512.751837 148.022433 
L 520.25158 150.364841 
L 526.944258 152.458722 
L 526.944258 152.458722 
" style="fill:none;stroke:#000000;stroke-linecap:square;stroke-opacity:0.7;stroke-width:1.2;"/>
   </g>
   <g id="line2d_19">
    <path clip-path="url(#p0a40525306)" d="M 527.624333 107.583332 
L 527.13004 107.100992 
L 525.89569 106.236176 
L 524.05484 105.194707 
L 520.881129 103.640812 
L 515.126564 101.097795 
L 506.166514 97.150258 
L 501.825509 94.958707 
L 498.179307 93.077542 
L 496.96726 92.711236 
L 496.129041 92.63358 
L 495.027018 92.763569 
L 493.250946 93.313614 
L 492.124086 93.564551 
L 491.442677 93.511729 
L 490.768412 93.243626 
L 489.549019 92.683245 
L 488.299569 93.154976 
L 488.172821 93.416725 
L 488.175506 93.688626 
L 488.465517 94.067988 
L 489.363501 94.502383 
L 491.762409 95.197349 
L 494.966042 96.184841 
L 497.480721 97.17372 
L 500.117767 98.431585 
L 506.881984 101.831978 
L 510.060163 103.114051 
L 513.718603 104.364069 
L 518.499603 105.756509 
L 527.529014 108.115701 
L 527.529014 108.115701 
" style="fill:none;stroke:#000000;stroke-linecap:square;stroke-opacity:0.7;stroke-width:1.2;"/>
   </g>
   <g id="line2d_20">
    <path clip-path="url(#p0a40525306)" d="M 527.807154 63.109821 
L 526.193118 62.149162 
L 520.722064 59.276523 
L 509.733601 53.522979 
L 500.98385 48.844164 
L 499.22564 48.190441 
L 497.701306 47.86722 
L 496.746243 47.80699 
L 494.774254 48.051322 
L 492.946833 48.668169 
L 490.980532 49.436947 
L 490.765917 49.469983 
L 490.386108 49.295196 
L 490.390686 49.186879 
L 490.662498 49.015074 
L 490.844708 49.107726 
L 492.311589 51.608313 
L 493.182717 52.37829 
L 494.757751 53.068625 
L 496.51505 53.490397 
L 503.049174 54.836294 
L 505.127311 55.455426 
L 510.093184 57.250911 
L 520.093798 60.929137 
L 525.17025 62.536569 
L 527.562478 63.270737 
L 527.562478 63.270737 
" style="fill:none;stroke:#000000;stroke-linecap:square;stroke-opacity:0.7;stroke-width:1.2;"/>
   </g>
   <g id="line2d_21">
    <path clip-path="url(#p0a40525306)" d="M 674.668277 241.350783 
L 674.556062 241.036571 
L 674.157597 240.506739 
L 673.169485 239.554017 
L 672.506483 239.00158 
L 668.291675 235.986543 
L 664.476806 233.560123 
L 657.562084 229.484868 
L 652.521461 226.766382 
L 650.253782 225.779776 
L 649.126044 225.482381 
L 648.17436 225.453025 
L 647.393151 225.678504 
L 646.892527 225.982291 
L 646.309459 226.514319 
L 645.095855 228.132561 
L 644.421308 229.04123 
L 644.02158 229.37993 
L 643.608661 229.421606 
L 642.808181 228.742436 
L 641.979996 228.028516 
L 640.828327 227.462496 
L 639.117845 227.032413 
L 636.945383 226.552191 
L 638.612625 227.046107 
L 640.913498 228.039739 
L 645.487486 230.598296 
L 648.676917 232.474595 
L 651.508145 233.824669 
L 654.792932 235.108992 
L 661.066329 237.279137 
L 674.53467 241.901491 
L 674.53467 241.901491 
" style="fill:none;stroke:#000000;stroke-linecap:square;stroke-opacity:0.7;stroke-width:1.2;"/>
   </g>
   <g id="line2d_22">
    <path clip-path="url(#p0a40525306)" d="M 675.36119 196.323738 
L 674.002681 195.62124 
L 670.433315 194.06238 
L 654.004134 187.127025 
L 645.710254 183.286575 
L 644.511389 183.134598 
L 643.522433 183.255495 
L 642.489111 183.646497 
L 641.157998 184.485694 
L 640.576494 184.788734 
L 640.63072 184.603198 
L 640.95352 184.251135 
L 641.010296 184.322297 
L 640.73761 184.74032 
L 640.327815 184.995015 
L 640.81895 184.800945 
L 641.773828 184.794709 
L 643.075494 185.065309 
L 644.265282 185.497692 
L 646.340265 186.557485 
L 649.034059 188.272613 
L 652.321695 190.311279 
L 654.75118 191.531662 
L 657.603099 192.66519 
L 660.932454 193.696738 
L 664.958168 194.675376 
L 670.631741 195.77806 
L 675.490909 196.728563 
L 675.490909 196.728563 
" style="fill:none;stroke:#000000;stroke-linecap:square;stroke-opacity:0.7;stroke-width:1.2;"/>
   </g>
   <g id="line2d_23">
    <path clip-path="url(#p0a40525306)" d="M 674.84586 152.230926 
L 674.227156 151.670721 
L 672.959753 150.829767 
L 670.638671 149.564197 
L 667.010426 147.832326 
L 650.437739 140.22356 
L 645.047917 137.404844 
L 643.893506 137.108953 
L 642.839874 137.084206 
L 641.926594 137.258295 
L 639.398693 137.966566 
L 639.02032 137.772909 
L 638.076265 136.790717 
L 637.274711 136.584825 
L 636.397203 136.762016 
L 636.195844 136.917354 
L 636.321971 137.106325 
L 637.664548 137.642561 
L 639.966339 138.604986 
L 642.096125 139.728667 
L 643.762665 140.765667 
L 648.046309 143.823342 
L 650.909504 145.738268 
L 653.244748 147.014453 
L 655.512105 148.01567 
L 658.350807 149.016825 
L 661.560399 149.915938 
L 666.089322 150.929551 
L 675.357935 152.814503 
L 675.357935 152.814503 
" style="fill:none;stroke:#000000;stroke-linecap:square;stroke-opacity:0.7;stroke-width:1.2;"/>
   </g>
   <g id="line2d_24">
    <path clip-path="url(#p0a40525306)" d="M 675.344167 107.717613 
L 674.845365 107.15916 
L 673.628515 106.135406 
L 671.169817 104.371267 
L 667.668918 102.08966 
L 661.290511 98.223155 
L 655.272278 94.810272 
L 651.45766 92.864055 
L 649.25091 91.946804 
L 647.437701 91.433061 
L 646.632682 91.309464 
L 645.008576 91.321572 
L 643.780611 91.609477 
L 642.380765 92.278484 
L 640.957156 93.379505 
L 639.71251 94.764 
L 639.152337 95.70193 
L 639.369544 95.549779 
L 640.505916 94.625272 
L 640.7278 94.543848 
L 641.857091 94.321792 
L 642.612982 94.29693 
L 644.363591 94.517384 
L 646.585952 95.2659 
L 648.546543 96.298895 
L 651.754047 98.430333 
L 654.547648 100.222857 
L 657.473783 101.78463 
L 659.648359 102.76126 
L 663.075065 104.070128 
L 667.706573 105.539808 
L 675.104343 107.773552 
L 675.254043 107.868605 
L 675.254043 107.868605 
" style="fill:none;stroke:#000000;stroke-linecap:square;stroke-opacity:0.7;stroke-width:1.2;"/>
   </g>
   <g id="line2d_25">
    <path clip-path="url(#p0a40525306)" d="M 675.330575 63.115619 
L 674.428707 62.419716 
L 672.456777 61.193449 
L 666.888185 58.179568 
L 650.138125 49.662875 
L 647.824705 48.632692 
L 646.321201 48.184212 
L 645.30695 48.089506 
L 644.236957 48.272801 
L 643.386851 48.683757 
L 642.181112 49.710348 
L 640.606113 51.288589 
L 640.545613 51.031322 
L 640.618642 50.807112 
L 640.65563 51.002001 
L 640.76691 51.667385 
L 641.091396 51.996109 
L 641.399706 52.113242 
L 643.024088 52.307664 
L 645.104261 52.520738 
L 646.275603 52.718765 
L 648.885813 53.412892 
L 651.294522 54.368661 
L 653.940858 55.684869 
L 658.846019 58.146901 
L 662.066071 59.477173 
L 665.39298 60.62421 
L 670.053619 61.933932 
L 675.340562 63.253935 
L 675.340562 63.253935 
" style="fill:none;stroke:#000000;stroke-linecap:square;stroke-opacity:0.7;stroke-width:1.2;"/>
   </g>
  </g>
 </g>
 <defs>
  <clipPath id="p0a40525306">
   <rect height="262.08" width="694.08" x="12.96" y="12.96"/>
  </clipPath>
 </defs>
</svg>
