<?xml version="1.0" encoding="utf-8" standalone="no"?>
<!DOCTYPE svg PUBLIC "-//W3C//DTD SVG 1.1//EN"
  "http://www.w3.org/Graphics/SVG/1.1/DTD/svg11.dtd">
<!-- Created with matplotlib (https://matplotlib.org/) -->
<svg height="288pt" version="1.1" viewBox="0 0 720 288" width="720pt" xmlns="http://www.w3.org/2000/svg" xmlns:xlink="http://www.w3.org/1999/xlink">
 <defs>
  <style type="text/css">
*{stroke-linecap:butt;stroke-linejoin:round;}
  </style>
 </defs>
 <g id="figure_1">
  <g id="patch_1">
   <path d="M 0 288 
L 720 288 
L 720 0 
L 0 0 
z
" style="fill:#ffffff;"/>
  </g>
  <g id="axes_1">
   <g id="line2d_1">
    <path clip-path="url(#pa3d1657f4b)" d="M 86.449901 233.042425 
L 74.372934 230.23883 
L 72.004604 229.920334 
L 69.635752 229.860759 
L 53.843717 230.206372 
L 51.907301 230.488261 
L 50.496575 230.953216 
L 49.878245 231.350195 
L 49.332374 231.954176 
L 48.638943 232.931963 
L 48.417337 233.007785 
L 48.484335 233.364745 
L 48.697238 233.775834 
L 49.197989 234.374527 
L 50.240201 235.110891 
L 51.60733 235.636099 
L 52.325141 235.79901 
L 54.624355 236.01457 
L 56.488597 235.987676 
L 61.527035 235.616019 
L 68.728797 234.855292 
L 85.526374 232.873805 
L 86.946906 232.743366 
L 86.946906 232.743366 
" style="fill:none;stroke:#000000;stroke-linecap:square;stroke-opacity:0.7;stroke-width:1.2;"/>
   </g>
   <g id="line2d_2">
    <path clip-path="url(#pa3d1657f4b)" d="M 86.332333 188.616717 
L 76.547131 186.568316 
L 72.715359 185.972983 
L 69.768034 185.731115 
L 62.333332 185.426699 
L 57.032136 185.411984 
L 52.951447 185.628971 
L 50.505564 185.936543 
L 48.618017 186.401103 
L 47.764443 186.819602 
L 47.310379 187.283822 
L 47.15492 187.783338 
L 47.268328 188.403915 
L 47.770147 189.131741 
L 48.92063 190.454258 
L 49.768757 190.843045 
L 51.133498 191.096362 
L 53.475956 191.207779 
L 58.496354 191.151575 
L 63.307384 190.882032 
L 68.995819 190.319441 
L 84.493796 188.605165 
L 86.765525 188.519908 
L 86.765525 188.519908 
" style="fill:none;stroke:#000000;stroke-linecap:square;stroke-opacity:0.7;stroke-width:1.2;"/>
   </g>
   <g id="line2d_3">
    <path clip-path="url(#pa3d1657f4b)" d="M 86.394161 144.638029 
L 78.338488 141.816687 
L 74.650205 140.732358 
L 72.466289 140.29991 
L 70.60694 140.172603 
L 68.251925 140.29206 
L 59.430206 140.930144 
L 47.861257 141.493744 
L 45.901401 141.921692 
L 44.938691 142.298711 
L 44.624586 142.567866 
L 44.509091 142.935056 
L 44.653899 143.640332 
L 45.203629 144.530908 
L 45.52735 144.870932 
L 46.923833 145.83596 
L 48.122296 146.354985 
L 49.690304 146.81289 
L 52.04354 147.207302 
L 54.717454 147.373831 
L 57.897691 147.315757 
L 62.416447 146.968886 
L 74.864136 145.646582 
L 86.772597 144.468516 
L 86.772597 144.468516 
" style="fill:none;stroke:#000000;stroke-linecap:square;stroke-opacity:0.7;stroke-width:1.2;"/>
   </g>
   <g id="line2d_4">
    <path clip-path="url(#pa3d1657f4b)" d="M 86.19901 100.377139 
L 79.224608 99.260752 
L 67.691335 97.340814 
L 63.626435 96.995692 
L 59.310645 96.845657 
L 55.301528 96.932627 
L 52.258114 97.207845 
L 50.228731 97.573269 
L 49.099758 97.905164 
L 47.898959 98.508692 
L 47.322719 99.080043 
L 47.030966 99.770935 
L 47.024 100.341208 
L 47.144235 100.67816 
L 47.502879 100.894447 
L 47.748994 101.016553 
L 48.183484 101.488588 
L 48.906328 102.069941 
L 49.697887 102.471293 
L 51.344922 102.956779 
L 53.485825 103.248681 
L 55.94122 103.336014 
L 59.121801 103.218954 
L 63.686732 102.784689 
L 70.193389 101.894718 
L 80.133079 100.530623 
L 84.2517 100.20225 
L 86.571104 100.14259 
L 86.571104 100.14259 
" style="fill:none;stroke:#000000;stroke-linecap:square;stroke-opacity:0.7;stroke-width:1.2;"/>
   </g>
   <g id="line2d_5">
    <path clip-path="url(#pa3d1657f4b)" d="M 86.4268 56.376309 
L 78.522709 54.517456 
L 72.893252 53.250646 
L 70.104526 52.854456 
L 66.688503 52.612384 
L 62.946785 52.553187 
L 58.881733 52.719475 
L 55.264959 53.102442 
L 52.638418 53.57315 
L 50.545841 54.145371 
L 49.03448 54.78653 
L 48.167726 55.374149 
L 47.567012 56.117066 
L 47.411411 56.661311 
L 47.510325 57.019972 
L 47.600671 57.083973 
L 48.41644 57.094118 
L 49.097532 58.148578 
L 49.871356 58.691057 
L 50.656451 59.018739 
L 52.328288 59.416537 
L 54.088897 59.623803 
L 57.191574 59.728919 
L 60.722079 59.606036 
L 65.162687 59.216088 
L 71.167486 58.45188 
L 86.966811 56.233142 
L 86.966811 56.233142 
" style="fill:none;stroke:#000000;stroke-linecap:square;stroke-opacity:0.7;stroke-width:1.2;"/>
   </g>
   <g id="line2d_6">
    <path clip-path="url(#pa3d1657f4b)" d="M 233.731893 232.831012 
L 228.407738 231.040819 
L 225.442665 230.162221 
L 220.891693 229.099172 
L 218.354988 228.758984 
L 215.732644 228.609647 
L 211.45825 228.594136 
L 208.153258 228.748386 
L 204.215902 229.147735 
L 201.001684 229.664394 
L 198.082949 230.316433 
L 194.920455 231.359856 
L 193.508647 232.154684 
L 193.185704 232.522686 
L 193.24023 232.72923 
L 193.614486 232.76997 
L 193.940428 232.789172 
L 195.479639 233.695182 
L 196.99693 233.786739 
L 198.426338 233.484143 
L 203.525708 232.116305 
L 205.657915 231.83484 
L 209.197444 231.693517 
L 213.264038 231.818677 
L 218.720602 232.228102 
L 228.030131 232.988665 
L 231.457718 233.016789 
L 233.865581 232.804583 
L 234.275489 232.740058 
L 234.275489 232.740058 
" style="fill:none;stroke:#000000;stroke-linecap:square;stroke-opacity:0.7;stroke-width:1.2;"/>
   </g>
   <g id="line2d_7">
    <path clip-path="url(#pa3d1657f4b)" d="M 233.209409 188.757703 
L 226.791666 187.411868 
L 215.456999 184.911768 
L 212.020038 184.556378 
L 208.443116 184.407314 
L 204.43784 184.475974 
L 200.515952 184.817922 
L 197.920392 185.260629 
L 196.193097 185.723275 
L 195.391552 186.020048 
L 193.829068 186.971824 
L 193.443116 187.455778 
L 193.226882 188.147343 
L 193.269897 188.615854 
L 193.516381 189.176383 
L 194.235996 189.897404 
L 195.320294 190.388832 
L 196.532238 190.595916 
L 197.501991 190.827581 
L 198.581569 191.523953 
L 199.69697 191.815672 
L 201.538492 191.971031 
L 205.18764 191.927175 
L 209.392963 191.611011 
L 214.458096 190.990213 
L 230.69835 188.786023 
L 233.654893 188.626461 
L 233.654893 188.626461 
" style="fill:none;stroke:#000000;stroke-linecap:square;stroke-opacity:0.7;stroke-width:1.2;"/>
   </g>
   <g id="line2d_8">
    <path clip-path="url(#pa3d1657f4b)" d="M 233.558746 144.630366 
L 219.960293 140.875698 
L 217.920777 140.632217 
L 215.529599 140.595208 
L 210.02544 140.790346 
L 199.876093 141.363671 
L 196.29782 141.729347 
L 194.591805 142.09185 
L 193.670434 142.475742 
L 193.097233 142.950097 
L 192.904849 143.384837 
L 192.944366 143.805807 
L 193.343513 144.581591 
L 194.019208 145.499731 
L 194.622003 146.026967 
L 195.386104 146.434313 
L 196.518281 146.774056 
L 198.392726 147.033182 
L 201.641406 147.154203 
L 206.46881 147.073214 
L 211.900482 146.753788 
L 219.36564 146.061051 
L 233.926079 144.469108 
L 233.926079 144.469108 
" style="fill:none;stroke:#000000;stroke-linecap:square;stroke-opacity:0.7;stroke-width:1.2;"/>
   </g>
   <g id="line2d_9">
    <path clip-path="url(#pa3d1657f4b)" d="M 233.629771 100.668594 
L 224.072479 97.395503 
L 221.080448 96.555408 
L 218.827425 96.157898 
L 217.09448 96.094713 
L 214.165536 96.275021 
L 202.720279 97.322365 
L 197.376474 97.981227 
L 194.978469 98.490493 
L 194.207428 98.754739 
L 193.537004 99.134887 
L 193.350085 99.566456 
L 193.557676 100.153232 
L 194.12229 101.074351 
L 194.817777 101.806186 
L 195.678352 102.346874 
L 196.096688 102.523182 
L 197.602758 102.89276 
L 199.167519 103.026325 
L 202.094993 102.987754 
L 212.84265 102.383238 
L 223.76317 101.529233 
L 232.754207 100.641775 
L 233.975666 100.495321 
L 233.975666 100.495321 
" style="fill:none;stroke:#000000;stroke-linecap:square;stroke-opacity:0.7;stroke-width:1.2;"/>
   </g>
   <g id="line2d_10">
    <path clip-path="url(#pa3d1657f4b)" d="M 233.561598 56.392068 
L 225.221597 53.971046 
L 221.403084 53.116024 
L 219.222276 52.914507 
L 217.470613 53.013998 
L 210.555812 53.702845 
L 205.868709 53.796975 
L 195.802843 53.752714 
L 194.270178 54.129116 
L 193.655707 54.516529 
L 193.492956 54.771118 
L 193.472092 55.430273 
L 193.618141 55.971495 
L 194.063421 56.898099 
L 194.659174 57.558883 
L 194.99585 57.797672 
L 196.217122 58.28746 
L 197.759273 58.510417 
L 199.984636 58.535829 
L 206.081821 58.258433 
L 218.013473 57.571891 
L 228.747359 56.748146 
L 234.004521 56.179477 
L 234.004521 56.179477 
" style="fill:none;stroke:#000000;stroke-linecap:square;stroke-opacity:0.7;stroke-width:1.2;"/>
   </g>
   <g id="line2d_11">
    <path clip-path="url(#pa3d1657f4b)" d="M 380.623577 232.680722 
L 368.988502 229.238495 
L 365.248948 228.348159 
L 362.051499 227.838434 
L 358.760716 227.539038 
L 356.015512 227.446311 
L 352.892779 227.51794 
L 349.591623 227.812865 
L 346.526906 228.318497 
L 343.916076 228.978033 
L 341.863201 229.724326 
L 340.53891 230.403168 
L 339.529902 231.172638 
L 339.168221 231.605293 
L 338.885073 232.323273 
L 338.981872 232.904831 
L 339.179456 233.180643 
L 339.927235 233.536242 
L 340.589194 233.525502 
L 341.705836 233.214142 
L 348.621358 231.36852 
L 350.93738 231.116903 
L 354.854144 231.022479 
L 359.924946 231.171525 
L 367.499956 231.648335 
L 380.827894 232.558631 
L 381.049008 232.55809 
L 381.049008 232.55809 
" style="fill:none;stroke:#000000;stroke-linecap:square;stroke-opacity:0.7;stroke-width:1.2;"/>
   </g>
   <g id="line2d_12">
    <path clip-path="url(#pa3d1657f4b)" d="M 380.510103 188.746477 
L 370.977918 186.835374 
L 366.43473 186.035449 
L 363.159847 185.724249 
L 357.772803 185.448416 
L 352.585604 185.39184 
L 348.2583 185.56355 
L 345.508385 185.862478 
L 343.452104 186.333036 
L 342.760344 186.616928 
L 342.032672 187.100723 
L 341.434231 187.848024 
L 341.036383 188.37794 
L 340.881255 188.496985 
L 341.092323 188.931739 
L 341.339739 189.254054 
L 342.131052 189.980473 
L 343.117625 190.605707 
L 344.810837 191.330332 
L 346.43448 191.775799 
L 348.444941 192.099061 
L 350.946352 192.246773 
L 353.834494 192.171577 
L 357.257822 191.855947 
L 361.77097 191.205546 
L 377.282493 188.719074 
L 380.903154 188.500269 
L 380.985378 188.498704 
L 380.985378 188.498704 
" style="fill:none;stroke:#000000;stroke-linecap:square;stroke-opacity:0.7;stroke-width:1.2;"/>
   </g>
   <g id="line2d_13">
    <path clip-path="url(#pa3d1657f4b)" d="M 380.681868 144.653083 
L 371.855722 142.023308 
L 368.620191 141.240499 
L 366.262766 140.89175 
L 363.951078 140.810004 
L 359.912423 140.944572 
L 354.858741 141.343547 
L 349.555455 142.000712 
L 346.085038 142.593423 
L 343.361594 143.282526 
L 341.61103 143.72586 
L 341.312232 143.814094 
L 341.242894 144.091211 
L 341.285116 144.460577 
L 341.510298 145.067111 
L 342.342897 146.050636 
L 343.162306 146.588044 
L 344.555115 147.159636 
L 346.03113 147.524018 
L 348.123478 147.798326 
L 350.713097 147.888827 
L 353.839443 147.759179 
L 357.917317 147.35383 
L 366.461277 146.200726 
L 374.645072 145.211271 
L 381.022683 144.472507 
L 381.022683 144.472507 
" style="fill:none;stroke:#000000;stroke-linecap:square;stroke-opacity:0.7;stroke-width:1.2;"/>
   </g>
   <g id="line2d_14">
    <path clip-path="url(#pa3d1657f4b)" d="M 380.641802 100.512224 
L 374.467581 98.950298 
L 367.608568 97.233894 
L 365.687065 96.972905 
L 363.010729 96.912292 
L 358.426111 97.091622 
L 349.452857 97.663905 
L 344.521961 98.146954 
L 342.797683 98.534884 
L 341.857418 98.936184 
L 341.117413 99.461244 
L 340.845064 99.869416 
L 340.790164 100.300685 
L 340.922612 100.95016 
L 341.250332 101.63948 
L 341.736848 102.240572 
L 342.522339 102.830406 
L 343.819618 103.371532 
L 344.436338 103.527878 
L 346.610313 103.800156 
L 349.315187 103.809465 
L 353.460806 103.533921 
L 360.047457 102.838834 
L 381.046749 100.352467 
L 381.046749 100.352467 
" style="fill:none;stroke:#000000;stroke-linecap:square;stroke-opacity:0.7;stroke-width:1.2;"/>
   </g>
   <g id="line2d_15">
    <path clip-path="url(#pa3d1657f4b)" d="M 380.692126 56.166376 
L 372.660079 54.223201 
L 367.736664 53.262495 
L 364.004697 52.776581 
L 359.48406 52.428354 
L 355.403844 52.318631 
L 351.953658 52.406884 
L 348.161252 52.743544 
L 345.275802 53.230849 
L 343.625853 53.648946 
L 341.655108 54.401962 
L 340.666611 55.024824 
L 340.134066 55.594964 
L 339.882113 56.283034 
L 340.173691 57.136322 
L 340.799041 57.562502 
L 341.679952 57.709642 
L 343.505848 57.627286 
L 344.422544 57.796077 
L 345.573574 57.712113 
L 351.98613 56.897261 
L 356.934631 56.655407 
L 365.316533 56.506056 
L 378.517212 56.317575 
L 381.274175 56.099354 
L 381.274175 56.099354 
" style="fill:none;stroke:#000000;stroke-linecap:square;stroke-opacity:0.7;stroke-width:1.2;"/>
   </g>
   <g id="line2d_16">
    <path clip-path="url(#pa3d1657f4b)" d="M 527.722623 232.894184 
L 515.428886 229.180916 
L 512.670394 228.570546 
L 510.105075 228.239054 
L 507.204544 228.085019 
L 503.951663 228.11639 
L 500.18447 228.39716 
L 496.860105 228.859803 
L 493.368452 229.587447 
L 491.178178 230.213772 
L 489.065849 231.042004 
L 488.048265 231.618619 
L 487.667945 231.909511 
L 487.107221 232.685569 
L 487.16199 233.040747 
L 487.276418 233.158931 
L 489.604685 234.322236 
L 490.452797 234.534411 
L 491.6978 234.619024 
L 494.373401 234.478642 
L 500.739658 234.091527 
L 527.905734 232.783143 
L 528.231422 232.764328 
L 528.231422 232.764328 
" style="fill:none;stroke:#000000;stroke-linecap:square;stroke-opacity:0.7;stroke-width:1.2;"/>
   </g>
   <g id="line2d_17">
    <path clip-path="url(#pa3d1657f4b)" d="M 527.573082 188.662224 
L 520.254218 186.773381 
L 514.106863 185.21593 
L 512.158146 184.891907 
L 508.543367 184.572964 
L 504.620329 184.47959 
L 500.898053 184.583033 
L 496.721386 184.918357 
L 492.688522 185.49332 
L 490.261799 186.008945 
L 488.444118 186.551123 
L 487.001073 187.21289 
L 486.330201 187.770668 
L 486.235924 188.04996 
L 486.618424 188.411156 
L 487.547737 189.572639 
L 488.352458 190.208161 
L 489.384423 190.756548 
L 490.646279 191.206973 
L 492.265258 191.569963 
L 494.176862 191.791189 
L 496.475635 191.849913 
L 499.896542 191.670254 
L 504.870536 191.137202 
L 524.86803 188.761903 
L 528.210741 188.554412 
L 528.210741 188.554412 
" style="fill:none;stroke:#000000;stroke-linecap:square;stroke-opacity:0.7;stroke-width:1.2;"/>
   </g>
   <g id="line2d_18">
    <path clip-path="url(#pa3d1657f4b)" d="M 527.683244 144.606923 
L 517.727757 140.663994 
L 513.983978 139.44979 
L 512.218581 139.076585 
L 510.655836 138.928841 
L 508.274445 138.976507 
L 498.024804 139.493524 
L 490.488971 139.857891 
L 488.007248 140.198147 
L 486.769775 140.549317 
L 485.757362 141.109613 
L 485.256425 141.711505 
L 485.103681 142.220209 
L 485.185843 142.924995 
L 485.48458 143.549744 
L 486.048647 144.274546 
L 486.506365 144.65477 
L 487.22667 144.991691 
L 488.317661 145.225986 
L 490.120237 145.375196 
L 498.096459 145.588456 
L 504.584198 145.526631 
L 516.983703 145.123249 
L 527.093744 144.619574 
L 528.163434 144.543904 
L 528.163434 144.543904 
" style="fill:none;stroke:#000000;stroke-linecap:square;stroke-opacity:0.7;stroke-width:1.2;"/>
   </g>
   <g id="line2d_19">
    <path clip-path="url(#pa3d1657f4b)" d="M 527.806506 100.367247 
L 511.250385 96.584112 
L 507.797522 96.146924 
L 503.307943 95.819383 
L 498.985471 95.743884 
L 496.778313 95.806669 
L 492.374415 96.200019 
L 490.165304 96.598241 
L 488.379712 97.105817 
L 487.257392 97.597906 
L 486.323852 98.281565 
L 485.960829 98.79372 
L 485.808469 99.448896 
L 485.892906 99.965229 
L 486.104104 100.418443 
L 486.863273 101.243688 
L 487.739443 101.74899 
L 488.329829 101.94353 
L 489.94132 102.002664 
L 491.197206 101.616935 
L 492.484533 101.270141 
L 494.29749 101.067078 
L 496.852828 101.062993 
L 506.256278 101.216764 
L 513.894545 101.034229 
L 522.612562 100.593197 
L 528.307461 100.196012 
L 528.307461 100.196012 
" style="fill:none;stroke:#000000;stroke-linecap:square;stroke-opacity:0.7;stroke-width:1.2;"/>
   </g>
   <g id="line2d_20">
    <path clip-path="url(#pa3d1657f4b)" d="M 527.839009 56.331654 
L 516.511437 53.719474 
L 512.565644 52.944867 
L 509.306538 52.575474 
L 505.498323 52.369093 
L 501.700725 52.391657 
L 498.154357 52.623758 
L 494.831405 53.058749 
L 492.354878 53.584118 
L 490.592545 54.152016 
L 489.340107 54.767738 
L 488.567192 55.351149 
L 488.272078 55.851346 
L 488.400459 56.264628 
L 488.735662 56.992075 
L 489.521428 58.021539 
L 490.085418 58.466709 
L 491.484431 59.140637 
L 493.015498 59.538331 
L 494.489624 59.747563 
L 497.057261 59.87922 
L 500.984799 59.754152 
L 505.049374 59.390368 
L 511.383882 58.574901 
L 528.278676 56.132093 
L 528.278676 56.132093 
" style="fill:none;stroke:#000000;stroke-linecap:square;stroke-opacity:0.7;stroke-width:1.2;"/>
   </g>
   <g id="line2d_21">
    <path clip-path="url(#pa3d1657f4b)" d="M 674.813709 232.765918 
L 663.954169 230.570189 
L 660.052222 230.00003 
L 655.726583 229.617667 
L 651.812809 229.473095 
L 648.30689 229.567831 
L 645.058999 229.875345 
L 642.063602 230.390691 
L 640.153026 230.88706 
L 638.018924 231.732027 
L 636.425564 232.54683 
L 636.057815 232.465212 
L 634.801511 231.703663 
L 634.812357 231.977292 
L 634.884728 232.153041 
L 635.263702 232.67734 
L 636.441651 233.567139 
L 637.830552 234.180599 
L 639.908118 234.699917 
L 641.791459 234.914898 
L 644.093088 234.954409 
L 646.91595 234.787489 
L 652.210889 234.212603 
L 661.972689 233.169893 
L 668.32131 232.722474 
L 673.7813 232.546618 
L 675.259688 232.540073 
L 675.259688 232.540073 
" style="fill:none;stroke:#000000;stroke-linecap:square;stroke-opacity:0.7;stroke-width:1.2;"/>
   </g>
   <g id="line2d_22">
    <path clip-path="url(#pa3d1657f4b)" d="M 674.978791 188.631367 
L 668.819353 186.854056 
L 663.867211 185.626342 
L 660.168666 184.963135 
L 657.213472 184.676443 
L 652.653909 184.485292 
L 648.632304 184.501917 
L 645.113682 184.708053 
L 642.605083 184.993232 
L 639.554135 185.550171 
L 637.192346 186.242734 
L 635.773895 186.916627 
L 635.064035 187.506488 
L 634.805417 187.963728 
L 634.766931 188.181669 
L 634.881283 188.637996 
L 635.253404 188.990547 
L 636.713852 189.708528 
L 637.248885 189.963218 
L 638.255111 190.123183 
L 640.038647 190.120075 
L 646.752394 189.976816 
L 654.571711 189.81386 
L 662.838846 189.407685 
L 673.755487 188.626925 
L 675.433653 188.486816 
L 675.433653 188.486816 
" style="fill:none;stroke:#000000;stroke-linecap:square;stroke-opacity:0.7;stroke-width:1.2;"/>
   </g>
   <g id="line2d_23">
    <path clip-path="url(#pa3d1657f4b)" d="M 674.839603 144.539918 
L 668.119848 142.246899 
L 663.461756 140.860361 
L 660.382302 140.164633 
L 659.233881 139.994033 
L 656.508917 139.838212 
L 654.457306 139.896157 
L 650.523885 140.238821 
L 645.102072 140.996299 
L 640.003319 141.920535 
L 636.433409 142.782409 
L 634.745249 143.39763 
L 634.241498 143.67818 
L 634.281747 143.726167 
L 634.792991 144.117144 
L 635.363179 144.524129 
L 636.102865 144.801497 
L 638.255228 144.792303 
L 639.839448 144.435717 
L 647.798954 142.284912 
L 650.201212 142.001357 
L 653.105335 141.898365 
L 656.343955 142.02817 
L 658.609282 142.237536 
L 663.769939 142.958484 
L 672.143695 144.236245 
L 675.256152 144.444698 
L 675.256152 144.444698 
" style="fill:none;stroke:#000000;stroke-linecap:square;stroke-opacity:0.7;stroke-width:1.2;"/>
   </g>
   <g id="line2d_24">
    <path clip-path="url(#pa3d1657f4b)" d="M 674.91087 100.412727 
L 668.944056 98.379302 
L 664.688163 97.112073 
L 661.138307 96.315765 
L 659.465102 96.104019 
L 656.938 96.02466 
L 653.71771 96.161293 
L 648.569857 96.60279 
L 642.020344 97.398609 
L 638.031203 98.085317 
L 636.166398 98.581182 
L 634.136391 99.361572 
L 634.452416 99.877113 
L 634.568475 100.009895 
L 635.586684 100.698966 
L 637.147868 101.108383 
L 638.911652 101.210755 
L 641.213957 101.081848 
L 652.040719 100.135338 
L 657.390749 100.041586 
L 663.702256 100.183652 
L 672.432488 100.393663 
L 675.433267 100.283792 
L 675.433267 100.283792 
" style="fill:none;stroke:#000000;stroke-linecap:square;stroke-opacity:0.7;stroke-width:1.2;"/>
   </g>
   <g id="line2d_25">
    <path clip-path="url(#pa3d1657f4b)" d="M 674.928481 56.190256 
L 665.983227 54.387489 
L 657.451139 52.683001 
L 653.671164 52.218349 
L 650.031035 52.002906 
L 646.702427 52.019167 
L 643.637896 52.240081 
L 641.046052 52.618194 
L 638.818729 53.137317 
L 636.847338 53.841354 
L 635.45407 54.625194 
L 634.700202 55.325023 
L 634.335785 55.972697 
L 634.270649 56.537043 
L 634.505526 57.090575 
L 634.967706 57.41572 
L 635.795419 57.521856 
L 637.743681 57.434833 
L 638.798213 57.674886 
L 640.776553 57.640693 
L 648.496364 57.032082 
L 657.236919 56.759767 
L 672.200506 56.299399 
L 675.490909 56.057979 
L 675.490909 56.057979 
" style="fill:none;stroke:#000000;stroke-linecap:square;stroke-opacity:0.7;stroke-width:1.2;"/>
   </g>
  </g>
 </g>
 <defs>
  <clipPath id="pa3d1657f4b">
   <rect height="262.08" width="694.08" x="12.96" y="12.96"/>
  </clipPath>
 </defs>
</svg>
