<?xml version="1.0" encoding="utf-8" standalone="no"?>
<!DOCTYPE svg PUBLIC "-//W3C//DTD SVG 1.1//EN"
  "http://www.w3.org/Graphics/SVG/1.1/DTD/svg11.dtd">
<!-- Created with matplotlib (https://matplotlib.org/) -->
<svg height="288pt" version="1.1" viewBox="0 0 720 288" width="720pt" xmlns="http://www.w3.org/2000/svg" xmlns:xlink="http://www.w3.org/1999/xlink">
 <defs>
  <style type="text/css">
*{stroke-linecap:butt;stroke-linejoin:round;}
  </style>
 </defs>
 <g id="figure_1">
  <g id="patch_1">
   <path d="M 0 288 
L 720 288 
L 720 0 
L 0 0 
z
" style="fill:#ffffff;"/>
  </g>
  <g id="axes_1">
   <g id="line2d_1">
    <path clip-path="url(#p4440371abb)" d="M 143.371554 227.718222 
L 119.216636 224.757421 
L 111.288606 223.61286 
L 104.128866 222.323585 
L 94.736658 220.600612 
L 88.242972 219.645177 
L 83.753061 219.215828 
L 80.219481 219.092218 
L 76.405766 219.195635 
L 71.814572 219.572487 
L 66.415608 220.236093 
L 60.337892 221.190591 
L 54.226036 222.404297 
L 50.434352 223.36095 
L 47.660149 224.264539 
L 46.235065 224.898841 
L 45.429989 225.441558 
L 45.137943 225.835129 
L 45.11871 226.16509 
L 45.355541 226.512571 
L 46.249458 227.020662 
L 47.611677 227.455876 
L 50.367053 228.019039 
L 53.629762 228.467989 
L 58.557604 228.928837 
L 65.212001 229.323221 
L 78.196418 229.802959 
L 93.160576 230.169152 
L 102.695439 230.203171 
L 109.49205 230.044164 
L 118.427094 229.592391 
L 130.593783 228.726909 
L 143.387309 227.627587 
L 143.387309 227.627587 
" style="fill:none;stroke:#000000;stroke-linecap:square;stroke-opacity:0.7;stroke-width:1.2;"/>
   </g>
   <g id="line2d_2">
    <path clip-path="url(#p4440371abb)" d="M 143.411492 187.821331 
L 121.546004 184.49381 
L 111.963086 182.810148 
L 104.394767 181.221464 
L 95.279174 179.321098 
L 88.435334 178.120277 
L 83.754974 177.503357 
L 80.919022 177.258052 
L 76.602451 177.136116 
L 72.968557 177.28296 
L 68.9008 177.680136 
L 65.396198 178.186645 
L 60.899076 179.045852 
L 57.393954 179.89466 
L 53.839027 180.952832 
L 50.482631 182.198957 
L 47.642951 183.557733 
L 46.740811 184.095374 
L 45.391845 185.120088 
L 44.867097 185.708615 
L 44.543797 186.372659 
L 44.533395 186.88688 
L 44.68583 187.260644 
L 45.220345 187.820406 
L 46.268867 188.406994 
L 47.731955 188.925222 
L 50.465035 189.556192 
L 54.020621 190.080241 
L 58.51186 190.487966 
L 64.197665 190.756488 
L 72.652747 190.880959 
L 102.618455 190.985856 
L 107.617185 190.795796 
L 116.24684 190.221783 
L 130.120906 189.016559 
L 143.426897 187.731143 
L 143.426897 187.731143 
" style="fill:none;stroke:#000000;stroke-linecap:square;stroke-opacity:0.7;stroke-width:1.2;"/>
   </g>
   <g id="line2d_3">
    <path clip-path="url(#p4440371abb)" d="M 143.44463 147.890233 
L 120.700516 140.258444 
L 112.172116 137.164453 
L 97.914968 131.791613 
L 93.107564 130.312166 
L 88.911896 129.255747 
L 86.304969 128.73812 
L 83.889815 128.374247 
L 79.910851 128.064704 
L 77.167967 128.090148 
L 74.57321 128.30392 
L 71.734228 128.745447 
L 68.499963 129.497912 
L 65.295231 130.489914 
L 62.123456 131.709794 
L 58.234445 133.557209 
L 54.941292 135.49324 
L 51.902874 137.699122 
L 50.211008 139.179944 
L 49.122168 140.27139 
L 47.185626 142.649032 
L 46.413653 143.892889 
L 45.642285 145.719296 
L 45.488442 146.751068 
L 45.615066 147.495106 
L 45.892445 147.968094 
L 46.46471 148.433476 
L 47.3378 148.792125 
L 48.582722 149.057262 
L 50.466324 149.247919 
L 54.704834 149.350169 
L 62.101126 149.19475 
L 73.715285 148.701605 
L 88.728543 147.808652 
L 100.779241 147.19325 
L 107.14486 147.067358 
L 114.438499 147.163346 
L 143.458951 147.826533 
L 143.458951 147.826533 
" style="fill:none;stroke:#000000;stroke-linecap:square;stroke-opacity:0.7;stroke-width:1.2;"/>
   </g>
   <g id="line2d_4">
    <path clip-path="url(#p4440371abb)" d="M 143.402245 108.017279 
L 118.450985 105.699519 
L 110.309771 104.736719 
L 104.853716 103.841375 
L 87.98933 100.763758 
L 84.357662 100.357334 
L 81.678356 100.194759 
L 77.494114 100.208349 
L 73.15797 100.498768 
L 66.948841 101.179862 
L 60.012752 102.184097 
L 55.388038 103.097785 
L 53.367101 103.630019 
L 50.878221 104.536658 
L 49.473309 105.362524 
L 48.985491 105.828944 
L 48.674652 106.352962 
L 48.615215 106.950087 
L 48.826214 107.468628 
L 49.24701 107.9339 
L 49.928361 108.399856 
L 51.005437 108.893234 
L 53.154931 109.532797 
L 55.98072 110.072912 
L 60.017029 110.576601 
L 65.664595 111.042033 
L 76.738785 111.701183 
L 87.264492 112.133288 
L 95.878085 112.247667 
L 102.604604 112.120222 
L 107.73441 111.846136 
L 116.479837 111.063131 
L 130.744394 109.47799 
L 143.403577 107.941112 
L 143.403577 107.941112 
" style="fill:none;stroke:#000000;stroke-linecap:square;stroke-opacity:0.7;stroke-width:1.2;"/>
   </g>
   <g id="line2d_5">
    <path clip-path="url(#p4440371abb)" d="M 143.360994 68.10893 
L 118.915414 64.960489 
L 109.854716 63.58622 
L 99.070646 61.615488 
L 92.171273 60.479451 
L 86.922476 59.837912 
L 83.016382 59.594011 
L 79.814597 59.613493 
L 75.400065 59.964243 
L 70.426029 60.631093 
L 55.863387 62.915488 
L 51.314269 63.787409 
L 48.242501 64.608827 
L 46.537869 65.318205 
L 45.926294 65.710869 
L 45.453958 66.203885 
L 45.280526 66.806435 
L 45.505272 67.397412 
L 45.883107 67.811897 
L 47.045782 68.577324 
L 48.468221 69.208657 
L 50.250727 69.810392 
L 53.284721 70.583546 
L 56.834728 71.246832 
L 61.17351 71.820253 
L 66.357666 72.254854 
L 71.919208 72.507702 
L 82.246799 72.691519 
L 93.815446 72.669747 
L 102.165138 72.449977 
L 108.190638 72.094163 
L 115.475278 71.418045 
L 127.945529 69.98526 
L 143.381531 68.013656 
L 143.381531 68.013656 
" style="fill:none;stroke:#000000;stroke-linecap:square;stroke-opacity:0.7;stroke-width:1.2;"/>
   </g>
   <g id="line2d_6">
    <path clip-path="url(#p4440371abb)" d="M 276.397131 227.725714 
L 255.330598 225.722691 
L 246.932 224.72076 
L 240.722002 223.755562 
L 226.088472 221.358214 
L 219.567352 220.542259 
L 215.241958 220.201611 
L 210.676095 220.111906 
L 206.208288 220.312713 
L 201.536526 220.765029 
L 196.919026 221.397223 
L 191.680162 222.343143 
L 188.127015 223.189501 
L 185.781873 223.909037 
L 183.873208 224.677504 
L 182.540274 225.437635 
L 181.955283 225.937176 
L 181.548056 226.589422 
L 181.518053 227.02151 
L 181.727665 227.486533 
L 182.198254 227.92968 
L 182.894233 228.330256 
L 184.611971 228.950606 
L 187.056988 229.506918 
L 190.531771 230.024525 
L 195.725996 230.519592 
L 204.272392 231.051813 
L 218.804698 231.726397 
L 226.850504 231.912401 
L 234.4473 231.870213 
L 240.583873 231.59917 
L 246.503754 231.115954 
L 256.622617 230.040705 
L 273.897402 227.960956 
L 276.418574 227.640936 
L 276.418574 227.640936 
" style="fill:none;stroke:#000000;stroke-linecap:square;stroke-opacity:0.7;stroke-width:1.2;"/>
   </g>
   <g id="line2d_7">
    <path clip-path="url(#p4440371abb)" d="M 276.40426 187.833191 
L 252.257383 184.101033 
L 243.398378 182.529632 
L 238.15167 181.339642 
L 231.300794 179.476454 
L 223.963875 177.569651 
L 219.246871 176.615428 
L 216.319347 176.216176 
L 213.336758 176.006814 
L 209.895699 176.018917 
L 206.165493 176.291341 
L 201.27563 176.947294 
L 197.236145 177.681925 
L 192.803169 178.665341 
L 187.984993 179.966103 
L 184.402929 181.146503 
L 181.584346 182.291029 
L 179.850344 183.1822 
L 178.450362 184.174355 
L 177.873196 184.836154 
L 177.621772 185.505578 
L 177.656326 185.949491 
L 177.891529 186.439663 
L 178.513432 187.074782 
L 179.464058 187.689442 
L 180.701838 188.275746 
L 183.104157 189.120531 
L 186.207931 189.925528 
L 190.15282 190.68522 
L 195.35108 191.399993 
L 200.796806 191.922803 
L 210.045336 192.552417 
L 219.700293 193.031205 
L 228.110241 193.24018 
L 234.447713 193.170267 
L 239.218575 192.906038 
L 245.025214 192.319644 
L 253.687062 191.164444 
L 269.085232 188.873052 
L 276.4173 187.727529 
L 276.4173 187.727529 
" style="fill:none;stroke:#000000;stroke-linecap:square;stroke-opacity:0.7;stroke-width:1.2;"/>
   </g>
   <g id="line2d_8">
    <path clip-path="url(#p4440371abb)" d="M 276.448491 147.905747 
L 252.730647 140.178711 
L 232.851421 133.543528 
L 228.288343 132.300774 
L 223.102357 131.11798 
L 219.061837 130.415316 
L 214.854525 129.960821 
L 212.842231 129.869066 
L 208.955767 129.963794 
L 205.98566 130.294135 
L 203.378868 130.766752 
L 200.157898 131.573096 
L 196.60011 132.731801 
L 193.442971 133.992345 
L 189.854943 135.714608 
L 186.827574 137.458526 
L 183.949664 139.444491 
L 182.041162 141.004125 
L 180.380521 142.590796 
L 179.292274 143.812745 
L 178.242321 145.279927 
L 177.680249 146.528179 
L 177.601594 147.226833 
L 177.775849 147.832775 
L 178.147869 148.293487 
L 178.929022 148.798293 
L 180.162836 149.254511 
L 181.909983 149.651847 
L 184.238606 149.985626 
L 188.0994 150.300424 
L 193.230946 150.471131 
L 199.488777 150.460779 
L 233.750108 149.779591 
L 247.161236 149.358798 
L 262.776903 148.615192 
L 276.485016 147.821405 
L 276.485016 147.821405 
" style="fill:none;stroke:#000000;stroke-linecap:square;stroke-opacity:0.7;stroke-width:1.2;"/>
   </g>
   <g id="line2d_9">
    <path clip-path="url(#p4440371abb)" d="M 276.334799 108.003046 
L 244.557195 105.662695 
L 236.908576 104.895579 
L 229.306487 103.877092 
L 218.953549 102.526883 
L 214.943111 102.188589 
L 209.551298 102.054154 
L 203.264826 102.170386 
L 196.207459 102.484215 
L 190.905172 102.877748 
L 185.729213 103.482346 
L 182.74858 104.005304 
L 180.017219 104.715483 
L 178.555202 105.306296 
L 177.902529 105.700015 
L 177.311005 106.34484 
L 177.218331 106.753158 
L 177.403019 107.273021 
L 177.835272 107.722231 
L 178.827637 108.325447 
L 180.30783 108.920568 
L 182.498969 109.549398 
L 185.752116 110.221117 
L 189.487272 110.777481 
L 195.05789 111.350598 
L 202.258359 111.837913 
L 221.62936 112.86115 
L 229.964979 113.058335 
L 236.847557 112.934076 
L 241.315002 112.640862 
L 247.830389 111.94577 
L 258.539271 110.526799 
L 276.35902 107.927382 
L 276.35902 107.927382 
" style="fill:none;stroke:#000000;stroke-linecap:square;stroke-opacity:0.7;stroke-width:1.2;"/>
   </g>
   <g id="line2d_10">
    <path clip-path="url(#p4440371abb)" d="M 276.431348 68.096137 
L 252.228608 63.839412 
L 244.333419 62.254994 
L 240.221498 61.247704 
L 232.56166 59.047177 
L 226.550925 57.435522 
L 221.868652 56.423019 
L 218.223548 55.854148 
L 214.670557 55.537775 
L 212.608603 55.472301 
L 209.608268 55.527519 
L 204.978018 55.925066 
L 201.334655 56.474945 
L 196.158596 57.605134 
L 192.319715 58.723148 
L 188.915996 59.931529 
L 184.978559 61.614543 
L 181.920986 63.176166 
L 180.068568 64.268295 
L 177.917656 65.766262 
L 176.697533 66.887463 
L 176.252257 67.615627 
L 176.253878 67.913734 
L 176.466581 68.169171 
L 176.908158 68.345185 
L 177.895969 68.470065 
L 180.200038 68.44354 
L 185.870154 68.002351 
L 210.32567 65.81233 
L 219.745508 65.220171 
L 228.283145 64.906208 
L 234.558424 64.910416 
L 238.672863 65.061821 
L 246.965183 65.635002 
L 276.454167 68.032426 
L 276.454167 68.032426 
" style="fill:none;stroke:#000000;stroke-linecap:square;stroke-opacity:0.7;stroke-width:1.2;"/>
   </g>
   <g id="line2d_11">
    <path clip-path="url(#p4440371abb)" d="M 409.416619 227.71343 
L 389.32849 224.44393 
L 381.627096 223.019296 
L 374.187958 221.397139 
L 365.17229 219.449487 
L 358.776187 218.310877 
L 354.154642 217.667101 
L 349.150354 217.201589 
L 344.533784 217.046035 
L 339.763822 217.183584 
L 335.118272 217.588566 
L 330.410498 218.267888 
L 327.193874 218.908367 
L 323.204019 219.946488 
L 320.816807 220.725886 
L 318.263388 221.727303 
L 315.712447 222.964123 
L 314.008755 223.996078 
L 312.724309 224.981128 
L 311.569891 226.347777 
L 311.389355 226.851339 
L 311.396348 227.310752 
L 311.535481 227.630144 
L 311.906016 228.006787 
L 312.540421 228.349919 
L 313.565037 228.671388 
L 314.846408 228.917941 
L 317.861671 229.234274 
L 323.023204 229.452365 
L 331.045681 229.507218 
L 345.068387 229.338981 
L 360.554608 228.922939 
L 379.984297 228.428395 
L 399.322872 227.971471 
L 409.428714 227.640865 
L 409.428714 227.640865 
" style="fill:none;stroke:#000000;stroke-linecap:square;stroke-opacity:0.7;stroke-width:1.2;"/>
   </g>
   <g id="line2d_12">
    <path clip-path="url(#p4440371abb)" d="M 409.400199 187.806044 
L 382.604948 185.459809 
L 373.510947 184.466646 
L 368.030671 183.603833 
L 355.271923 181.38848 
L 350.533388 180.851541 
L 347.181131 180.662192 
L 341.991009 180.644927 
L 335.107084 180.894472 
L 328.044071 181.347572 
L 323.233026 181.796436 
L 317.136549 182.605869 
L 312.549454 183.508646 
L 310.442351 184.099359 
L 308.974908 184.693924 
L 308.301921 185.189586 
L 308.190028 185.430824 
L 308.321931 185.767092 
L 308.783492 186.068373 
L 309.706246 186.387415 
L 311.232524 186.717712 
L 314.416285 187.160743 
L 319.382706 187.605875 
L 327.439493 188.046448 
L 335.858265 188.266872 
L 344.855701 188.255688 
L 357.642006 187.951128 
L 369.040311 187.722846 
L 379.929727 187.780357 
L 396.689351 187.843741 
L 409.429652 187.734968 
L 409.429652 187.734968 
" style="fill:none;stroke:#000000;stroke-linecap:square;stroke-opacity:0.7;stroke-width:1.2;"/>
   </g>
   <g id="line2d_13">
    <path clip-path="url(#p4440371abb)" d="M 409.463558 147.915854 
L 389.63105 142.441113 
L 380.125692 139.587262 
L 367.799348 135.803689 
L 362.391064 134.37733 
L 356.588151 133.08928 
L 352.083314 132.316115 
L 347.417277 131.802136 
L 345.05575 131.682081 
L 342.617577 131.671578 
L 339.921337 131.801889 
L 337.047065 132.106989 
L 334.513522 132.515725 
L 331.021276 133.29059 
L 328.016631 134.159211 
L 324.158373 135.583463 
L 320.52425 137.318847 
L 317.715099 139.008306 
L 315.355299 140.753031 
L 314.071709 141.87838 
L 312.783928 143.196439 
L 311.487598 144.86984 
L 310.64047 146.551664 
L 310.446424 147.567043 
L 310.535679 148.291349 
L 310.802831 148.857321 
L 311.36447 149.453646 
L 312.154988 149.946045 
L 313.984214 150.602414 
L 316.005536 151.023734 
L 319.473977 151.436023 
L 323.801488 151.672933 
L 329.891095 151.721895 
L 339.015984 151.492788 
L 377.183199 150.204059 
L 391.794256 149.2235 
L 409.483619 147.827244 
L 409.483619 147.827244 
" style="fill:none;stroke:#000000;stroke-linecap:square;stroke-opacity:0.7;stroke-width:1.2;"/>
   </g>
   <g id="line2d_14">
    <path clip-path="url(#p4440371abb)" d="M 409.382878 108.014773 
L 380.49132 105.404618 
L 373.367122 104.585399 
L 367.442427 103.656383 
L 355.048534 101.575934 
L 350.682474 101.101381 
L 346.989383 100.947741 
L 342.63249 101.052052 
L 336.697547 101.472752 
L 328.970739 102.237248 
L 322.363602 103.095044 
L 318.413022 103.79203 
L 315.58837 104.485116 
L 314.161436 104.979633 
L 312.902051 105.660424 
L 312.433613 106.191404 
L 312.374779 106.680183 
L 312.613802 107.112333 
L 312.974499 107.43678 
L 313.826706 107.927429 
L 315.730822 108.623857 
L 317.847428 109.158042 
L 320.920783 109.724458 
L 325.720468 110.338285 
L 332.05354 110.876565 
L 343.567954 111.565475 
L 354.591323 112.03576 
L 362.653287 112.175471 
L 369.05989 112.089105 
L 375.138436 111.76836 
L 382.432989 111.11157 
L 394.448078 109.774575 
L 409.40349 107.929989 
L 409.40349 107.929989 
" style="fill:none;stroke:#000000;stroke-linecap:square;stroke-opacity:0.7;stroke-width:1.2;"/>
   </g>
   <g id="line2d_15">
    <path clip-path="url(#p4440371abb)" d="M 409.354743 68.102136 
L 384.27731 65.942592 
L 374.181381 64.857006 
L 363.166745 63.651521 
L 354.632088 62.982726 
L 349.145172 62.74465 
L 344.441319 62.747921 
L 339.25644 62.979638 
L 329.764374 63.700185 
L 322.679843 64.426161 
L 318.760447 64.977973 
L 315.791695 65.58114 
L 314.081089 66.150577 
L 313.341655 66.627905 
L 313.141293 67.081323 
L 313.306363 67.461279 
L 313.894271 67.931742 
L 314.554156 68.264663 
L 316.574202 68.958216 
L 319.348043 69.613399 
L 323.511253 70.319462 
L 329.058952 70.98563 
L 336.01518 71.566217 
L 342.801279 71.95666 
L 351.761831 72.252269 
L 360.120035 72.311793 
L 368.004496 72.145382 
L 373.833003 71.829378 
L 381.83494 71.137353 
L 395.516029 69.667209 
L 409.384926 68.015798 
L 409.384926 68.015798 
" style="fill:none;stroke:#000000;stroke-linecap:square;stroke-opacity:0.7;stroke-width:1.2;"/>
   </g>
   <g id="line2d_16">
    <path clip-path="url(#p4440371abb)" d="M 542.368225 227.717968 
L 513.254274 224.281947 
L 490.999013 221.54796 
L 481.968425 220.770109 
L 476.101944 220.490132 
L 470.586969 220.480617 
L 465.366547 220.68026 
L 460.227303 221.079495 
L 454.891887 221.735223 
L 450.363886 222.543976 
L 447.284939 223.310089 
L 444.968002 224.141096 
L 443.85641 224.773211 
L 443.335714 225.324761 
L 443.222859 225.651896 
L 443.326145 226.149543 
L 444.074388 226.890467 
L 445.5681 227.65855 
L 447.795107 228.430095 
L 450.661818 229.168653 
L 454.477661 229.919571 
L 458.222335 230.491022 
L 463.498513 231.102056 
L 470.134224 231.650994 
L 479.808267 232.191358 
L 489.43436 232.484153 
L 497.643149 232.505241 
L 503.94341 232.299096 
L 510.245631 231.81716 
L 518.436867 230.900458 
L 531.248088 229.221684 
L 542.378994 227.637218 
L 542.378994 227.637218 
" style="fill:none;stroke:#000000;stroke-linecap:square;stroke-opacity:0.7;stroke-width:1.2;"/>
   </g>
   <g id="line2d_17">
    <path clip-path="url(#p4440371abb)" d="M 542.425243 187.816814 
L 520.460935 185.825588 
L 511.809837 184.831841 
L 504.086569 183.664175 
L 494.297221 182.187045 
L 487.946148 181.450236 
L 483.058197 181.145733 
L 478.631564 181.186435 
L 474.710186 181.492652 
L 470.267411 182.066414 
L 461.859447 183.452162 
L 453.653028 185.008538 
L 450.460678 185.796761 
L 448.439362 186.510115 
L 447.695156 186.952834 
L 447.478669 187.330092 
L 447.581758 187.524761 
L 447.911962 187.725473 
L 448.701061 187.956163 
L 451.092065 188.291512 
L 456.188248 188.670192 
L 466.475251 189.180701 
L 473.740249 189.357908 
L 480.454238 189.318567 
L 490.240076 189.003978 
L 510.570834 188.23815 
L 542.481417 187.742718 
L 542.481417 187.742718 
" style="fill:none;stroke:#000000;stroke-linecap:square;stroke-opacity:0.7;stroke-width:1.2;"/>
   </g>
   <g id="line2d_18">
    <path clip-path="url(#p4440371abb)" d="M 542.497069 147.911364 
L 521.472262 140.785718 
L 512.172053 137.435509 
L 502.526835 133.941483 
L 497.226979 132.238853 
L 491.698599 130.694111 
L 487.064519 129.617925 
L 482.849646 128.861377 
L 478.14228 128.348017 
L 474.976319 128.248176 
L 472.187199 128.344906 
L 469.389245 128.621043 
L 466.932148 129.009533 
L 463.609857 129.746966 
L 460.666714 130.605858 
L 456.581929 132.150686 
L 452.66633 134.106832 
L 450.71219 135.306932 
L 448.238534 137.100949 
L 446.4266 138.660874 
L 445.01592 140.06661 
L 443.25388 142.183884 
L 442.100675 144.048727 
L 441.811903 144.711355 
L 441.571636 145.620502 
L 441.61203 146.516373 
L 441.892854 147.100351 
L 442.614271 147.735292 
L 443.688951 148.216821 
L 445.402554 148.645895 
L 447.292532 148.926348 
L 450.816349 149.21593 
L 456.415864 149.393332 
L 463.720172 149.386985 
L 475.812173 149.129553 
L 509.237837 148.264472 
L 533.279342 148.028831 
L 542.500685 147.822112 
L 542.500685 147.822112 
" style="fill:none;stroke:#000000;stroke-linecap:square;stroke-opacity:0.7;stroke-width:1.2;"/>
   </g>
   <g id="line2d_19">
    <path clip-path="url(#p4440371abb)" d="M 542.381906 108.016106 
L 517.091262 104.04059 
L 505.879415 102.047886 
L 497.905594 100.660921 
L 491.567269 99.761141 
L 485.691112 99.151985 
L 481.234194 98.913207 
L 477.80139 98.921182 
L 473.414092 99.191542 
L 468.328051 99.77349 
L 462.292141 100.700154 
L 456.235874 101.876926 
L 452.02133 102.919202 
L 449.049004 103.858891 
L 446.737937 104.840075 
L 445.483156 105.606412 
L 444.73971 106.324335 
L 444.467283 106.815893 
L 444.403685 107.543969 
L 444.594293 108.067061 
L 445.177663 108.81292 
L 445.953008 109.461093 
L 447.714101 110.530799 
L 450.495551 111.795506 
L 453.794596 112.984314 
L 457.278279 114.014239 
L 461.548339 115.032022 
L 465.470899 115.745247 
L 468.599054 116.154735 
L 472.561202 116.463696 
L 476.784165 116.567044 
L 482.484976 116.45861 
L 490.439773 116.03754 
L 498.737217 115.364827 
L 505.133153 114.647265 
L 511.455339 113.696285 
L 522.077833 111.792374 
L 542.407846 107.899892 
L 542.407846 107.899892 
" style="fill:none;stroke:#000000;stroke-linecap:square;stroke-opacity:0.7;stroke-width:1.2;"/>
   </g>
   <g id="line2d_20">
    <path clip-path="url(#p4440371abb)" d="M 542.407757 68.115522 
L 524.601739 65.718015 
L 516.953203 64.518893 
L 509.294404 63.064847 
L 498.110945 60.908519 
L 490.949419 59.76708 
L 484.656163 59.013922 
L 479.74395 58.679756 
L 475.569614 58.634457 
L 471.40959 58.825112 
L 466.6308 59.307339 
L 462.401792 59.943768 
L 458.513016 60.710807 
L 454.699406 61.675817 
L 452.036317 62.521144 
L 449.32277 63.599358 
L 447.605738 64.466034 
L 446.277689 65.334082 
L 445.472774 66.084755 
L 445.106909 66.684049 
L 445.032992 67.074953 
L 445.241958 67.676192 
L 445.645279 68.072197 
L 446.306081 68.466274 
L 447.493442 68.93252 
L 449.464792 69.451234 
L 452.699498 70.015756 
L 457.291014 70.523921 
L 462.468402 70.864694 
L 470.278271 71.122076 
L 489.743694 71.412259 
L 500.275134 71.374041 
L 508.255755 71.09644 
L 516.451227 70.535976 
L 529.421558 69.370365 
L 542.43293 68.025057 
L 542.43293 68.025057 
" style="fill:none;stroke:#000000;stroke-linecap:square;stroke-opacity:0.7;stroke-width:1.2;"/>
   </g>
   <g id="line2d_21">
    <path clip-path="url(#p4440371abb)" d="M 675.401819 227.712268 
L 649.689024 225.1102 
L 641.76381 224.113227 
L 633.600703 222.818338 
L 625.389235 221.561061 
L 618.535092 220.731183 
L 613.471548 220.364504 
L 609.633837 220.283865 
L 604.278533 220.428871 
L 599.391278 220.782212 
L 594.303559 221.389084 
L 592.076072 221.745625 
L 587.041311 222.812993 
L 584.268533 223.611368 
L 581.997352 224.445542 
L 580.192171 225.320961 
L 579.313272 225.896214 
L 578.553466 226.657183 
L 578.349463 227.240972 
L 578.443637 227.593766 
L 578.764478 227.939193 
L 579.39481 228.271381 
L 580.487128 228.587812 
L 582.554523 228.909313 
L 586.257223 229.192834 
L 593.455128 229.447111 
L 608.255001 229.722739 
L 618.143981 229.672746 
L 629.814875 229.363834 
L 671.821967 227.824969 
L 675.43235 227.646538 
L 675.43235 227.646538 
" style="fill:none;stroke:#000000;stroke-linecap:square;stroke-opacity:0.7;stroke-width:1.2;"/>
   </g>
   <g id="line2d_22">
    <path clip-path="url(#p4440371abb)" d="M 675.433295 187.83198 
L 654.926789 185.256435 
L 646.771108 184.051484 
L 641.181129 183.020824 
L 629.829307 180.557903 
L 622.46125 179.068025 
L 616.811761 178.14073 
L 613.528835 177.75861 
L 609.432922 177.518865 
L 605.533754 177.566345 
L 601.43321 177.880688 
L 596.726594 178.519592 
L 592.401093 179.353224 
L 588.63017 180.304757 
L 584.937002 181.516882 
L 582.446701 182.573408 
L 580.393789 183.696872 
L 579.13178 184.610365 
L 578.087808 185.724033 
L 577.704345 186.553779 
L 577.685492 187.183196 
L 577.944504 187.791726 
L 578.500186 188.364319 
L 579.368326 188.900457 
L 580.546621 189.393366 
L 582.896421 190.050665 
L 585.632437 190.557714 
L 589.915451 191.066822 
L 594.86936 191.409617 
L 603.881831 191.742008 
L 630.634458 192.574288 
L 636.402041 192.424917 
L 640.617487 192.144438 
L 648.011665 191.383928 
L 660.071861 189.860172 
L 675.433987 187.728567 
L 675.433987 187.728567 
" style="fill:none;stroke:#000000;stroke-linecap:square;stroke-opacity:0.7;stroke-width:1.2;"/>
   </g>
   <g id="line2d_23">
    <path clip-path="url(#p4440371abb)" d="M 675.429737 147.888683 
L 654.113729 143.221118 
L 646.128771 141.286971 
L 640.051251 139.582009 
L 628.744723 136.227706 
L 623.955325 135.092918 
L 620.230613 134.458423 
L 616.953582 134.149041 
L 614.202871 134.103535 
L 611.656342 134.243226 
L 609.011875 134.562433 
L 605.349913 135.254965 
L 600.13231 136.623771 
L 596.000829 137.939342 
L 592.204555 139.294189 
L 587.336198 141.258139 
L 584.44552 142.614978 
L 582.746601 143.539591 
L 580.592019 145.012187 
L 579.52371 146.090861 
L 579.080824 146.886753 
L 579.013137 147.461422 
L 579.086595 147.732998 
L 579.526023 148.25939 
L 580.006727 148.542554 
L 581.285364 148.970269 
L 583.45731 149.355504 
L 586.090409 149.614987 
L 590.414201 149.82111 
L 596.355539 149.850843 
L 601.917182 149.680193 
L 608.639206 149.256536 
L 620.800026 148.182205 
L 632.487829 147.229695 
L 639.332375 146.92779 
L 644.672429 146.930447 
L 655.705689 147.260751 
L 675.429078 147.831108 
L 675.429078 147.831108 
" style="fill:none;stroke:#000000;stroke-linecap:square;stroke-opacity:0.7;stroke-width:1.2;"/>
   </g>
   <g id="line2d_24">
    <path clip-path="url(#p4440371abb)" d="M 675.428767 108.024188 
L 657.006841 103.741054 
L 638.055058 99.212796 
L 632.347308 98.138528 
L 626.42894 97.204929 
L 619.876505 96.378527 
L 614.933655 95.923147 
L 610.32991 95.675061 
L 606.04582 95.651521 
L 600.974927 95.944369 
L 597.225279 96.406061 
L 593.100152 97.178028 
L 589.318741 98.168753 
L 586.436265 99.141732 
L 583.430734 100.401846 
L 580.845258 101.747465 
L 578.197038 103.525695 
L 576.751881 104.855344 
L 576.122954 105.654091 
L 575.673664 106.531012 
L 575.527048 107.390451 
L 575.673897 108.099434 
L 576.125106 108.818915 
L 576.87994 109.493143 
L 577.849072 110.080755 
L 579.58151 110.825901 
L 581.783482 111.505931 
L 584.543314 112.131667 
L 588.143067 112.712186 
L 591.387853 113.072313 
L 595.84188 113.374412 
L 601.507762 113.521853 
L 618.899091 113.526499 
L 629.671412 113.411151 
L 636.346507 113.128802 
L 642.100264 112.639651 
L 648.499713 111.862653 
L 662.627979 109.860756 
L 675.43105 107.923926 
L 675.43105 107.923926 
" style="fill:none;stroke:#000000;stroke-linecap:square;stroke-opacity:0.7;stroke-width:1.2;"/>
   </g>
   <g id="line2d_25">
    <path clip-path="url(#p4440371abb)" d="M 675.448999 68.117337 
L 653.073507 65.723121 
L 645.297572 64.720207 
L 639.377336 63.725615 
L 630.333864 61.866165 
L 622.064411 60.235023 
L 616.866876 59.398299 
L 612.514308 58.916024 
L 608.175478 58.697096 
L 603.745401 58.7269 
L 599.437787 58.963451 
L 594.828944 59.446713 
L 591.419101 59.989145 
L 588.554568 60.595754 
L 584.798433 61.652598 
L 582.23683 62.594132 
L 579.929508 63.663871 
L 577.748391 65.016019 
L 576.723215 65.928086 
L 576.071836 66.970405 
L 576.016235 67.443502 
L 576.214468 67.99138 
L 576.442498 68.256561 
L 577.149809 68.7343 
L 578.391693 69.211889 
L 580.722197 69.734351 
L 584.526011 70.223627 
L 589.887456 70.613866 
L 597.983975 70.912764 
L 608.445325 71.051184 
L 619.299338 71.004205 
L 630.044692 70.782885 
L 641.563431 70.318458 
L 656.973841 69.389893 
L 675.490909 68.040863 
L 675.490909 68.040863 
" style="fill:none;stroke:#000000;stroke-linecap:square;stroke-opacity:0.7;stroke-width:1.2;"/>
   </g>
  </g>
 </g>
 <defs>
  <clipPath id="p4440371abb">
   <rect height="262.08" width="694.08" x="12.96" y="12.96"/>
  </clipPath>
 </defs>
</svg>
