<svg viewBox="0 0 1496 400" xmlns="http://www.w3.org/2000/svg"><g><g><g><g><g><line x1="60" y1="378" x2="55" y2="378" style="visibility: inherit;" fill="rgb(0, 0, 0)" stroke="rgb(204, 204, 204)" stroke-width="1px"></line><line x1="60" y1="330.75" x2="55" y2="330.75" style="visibility: inherit;" fill="rgb(0, 0, 0)" stroke="rgb(204, 204, 204)" stroke-width="1px"></line><line x1="60" y1="283.5" x2="55" y2="283.5" style="visibility: inherit;" fill="rgb(0, 0, 0)" stroke="rgb(204, 204, 204)" stroke-width="1px"></line><line x1="60" y1="236.24999999999997" x2="55" y2="236.24999999999997" style="visibility: inherit;" fill="rgb(0, 0, 0)" stroke="rgb(204, 204, 204)" stroke-width="1px"></line><line x1="60" y1="188.99999999999997" x2="55" y2="188.99999999999997" style="visibility: inherit;" fill="rgb(0, 0, 0)" stroke="rgb(204, 204, 204)" stroke-width="1px"></line><line x1="60" y1="141.75" x2="55" y2="141.75" style="visibility: inherit;" fill="rgb(0, 0, 0)" stroke="rgb(204, 204, 204)" stroke-width="1px"></line><line x1="60" y1="94.5" x2="55" y2="94.5" style="visibility: inherit;" fill="rgb(0, 0, 0)" stroke="rgb(204, 204, 204)" stroke-width="1px"></line><line x1="60" y1="47.25" x2="55" y2="47.25" style="visibility: inherit;" fill="rgb(0, 0, 0)" stroke="rgb(204, 204, 204)" stroke-width="1px"></line><line x1="60" y1="0" x2="55" y2="0" style="visibility: inherit;" fill="rgb(0, 0, 0)" stroke="rgb(204, 204, 204)" stroke-width="1px"></line></g><g transform="translate(50, 0)"><text x="0" y="378" dx="0em" dy="0.3em" style="text-anchor: end; visibility: hidden; font-family: &quot;Helvetica Neue&quot;, sans-serif; font-size: 12px; font-weight: 200;" fill="rgb(50, 49, 63)" stroke="none" stroke-width="1px">-0.05</text><text x="0" y="330.75" dx="0em" dy="0.3em" style="text-anchor: end; visibility: inherit; font-family: &quot;Helvetica Neue&quot;, sans-serif; font-size: 12px; font-weight: 200;" fill="rgb(50, 49, 63)" stroke="none" stroke-width="1px">0</text><text x="0" y="283.5" dx="0em" dy="0.3em" style="text-anchor: end; visibility: inherit; font-family: &quot;Helvetica Neue&quot;, sans-serif; font-size: 12px; font-weight: 200;" fill="rgb(50, 49, 63)" stroke="none" stroke-width="1px">0.05</text><text x="0" y="236.24999999999997" dx="0em" dy="0.3em" style="text-anchor: end; visibility: inherit; font-family: &quot;Helvetica Neue&quot;, sans-serif; font-size: 12px; font-weight: 200;" fill="rgb(50, 49, 63)" stroke="none" stroke-width="1px">0.1</text><text x="0" y="188.99999999999997" dx="0em" dy="0.3em" style="text-anchor: end; visibility: inherit; font-family: &quot;Helvetica Neue&quot;, sans-serif; font-size: 12px; font-weight: 200;" fill="rgb(50, 49, 63)" stroke="none" stroke-width="1px">0.15</text><text x="0" y="141.75" dx="0em" dy="0.3em" style="text-anchor: end; visibility: inherit; font-family: &quot;Helvetica Neue&quot;, sans-serif; font-size: 12px; font-weight: 200;" fill="rgb(50, 49, 63)" stroke="none" stroke-width="1px">0.2</text><text x="0" y="94.5" dx="0em" dy="0.3em" style="text-anchor: end; visibility: inherit; font-family: &quot;Helvetica Neue&quot;, sans-serif; font-size: 12px; font-weight: 200;" fill="rgb(50, 49, 63)" stroke="none" stroke-width="1px">0.25</text><text x="0" y="47.25" dx="0em" dy="0.3em" style="text-anchor: end; visibility: inherit; font-family: &quot;Helvetica Neue&quot;, sans-serif; font-size: 12px; font-weight: 200;" fill="rgb(50, 49, 63)" stroke="none" stroke-width="1px">0.3</text><text x="0" y="0" dx="0em" dy="0.3em" style="text-anchor: end; visibility: hidden; font-family: &quot;Helvetica Neue&quot;, sans-serif; font-size: 12px; font-weight: 200;" fill="rgb(50, 49, 63)" stroke="none" stroke-width="1px">0.35</text></g><line x1="60" y1="0" x2="60" y2="378" fill="rgb(0, 0, 0)" stroke="rgb(204, 204, 204)" stroke-width="1px"></line></g></g><g transform="translate(60, 0)" clip-path="url(#clip_0)"><clipPath id="clip_0"><rect width="1436" height="378"></rect></clipPath><g><g><g><line x1="0" y1="0" x2="0" y2="378" fill="rgb(0, 0, 0)" stroke="rgb(60, 60, 60)" stroke-width="1px" opacity="0.25"></line><line x1="119.66666666666666" y1="0" x2="119.66666666666666" y2="378" fill="rgb(0, 0, 0)" stroke="rgb(60, 60, 60)" stroke-width="1px" opacity="0.25"></line><line x1="239.33333333333331" y1="0" x2="239.33333333333331" y2="378" fill="rgb(0, 0, 0)" stroke="rgb(60, 60, 60)" stroke-width="1px" opacity="0.25"></line><line x1="359" y1="0" x2="359" y2="378" fill="rgb(0, 0, 0)" stroke="rgb(60, 60, 60)" stroke-width="1px" opacity="0.25"></line><line x1="478.66666666666663" y1="0" x2="478.66666666666663" y2="378" fill="rgb(0, 0, 0)" stroke="rgb(60, 60, 60)" stroke-width="1px" opacity="0.25"></line><line x1="598.3333333333334" y1="0" x2="598.3333333333334" y2="378" fill="rgb(0, 0, 0)" stroke="rgb(60, 60, 60)" stroke-width="1px" opacity="0.25"></line><line x1="718" y1="0" x2="718" y2="378" fill="rgb(0, 0, 0)" stroke="rgb(60, 60, 60)" stroke-width="1px" opacity="0.25"></line><line x1="837.6666666666667" y1="0" x2="837.6666666666667" y2="378" fill="rgb(0, 0, 0)" stroke="rgb(60, 60, 60)" stroke-width="1px" opacity="0.25"></line><line x1="957.3333333333333" y1="0" x2="957.3333333333333" y2="378" fill="rgb(0, 0, 0)" stroke="rgb(60, 60, 60)" stroke-width="1px" opacity="0.25"></line><line x1="1077" y1="0" x2="1077" y2="378" fill="rgb(0, 0, 0)" stroke="rgb(60, 60, 60)" stroke-width="1px" opacity="0.25"></line><line x1="1196.6666666666667" y1="0" x2="1196.6666666666667" y2="378" fill="rgb(0, 0, 0)" stroke="rgb(60, 60, 60)" stroke-width="1px" opacity="0.25"></line><line x1="1316.3333333333333" y1="0" x2="1316.3333333333333" y2="378" fill="rgb(0, 0, 0)" stroke="rgb(60, 60, 60)" stroke-width="1px" opacity="0.25"></line><line x1="1436" y1="0" x2="1436" y2="378" fill="rgb(0, 0, 0)" stroke="rgb(60, 60, 60)" stroke-width="1px" opacity="0.25"></line></g><g><line x1="0" y1="378" x2="1436" y2="378" fill="rgb(0, 0, 0)" stroke="rgb(60, 60, 60)" stroke-width="1px" opacity="0.25"></line><line x1="0" y1="330.75" x2="1436" y2="330.75" fill="rgb(0, 0, 0)" stroke="rgb(60, 60, 60)" stroke-width="1px" opacity="0.25"></line><line x1="0" y1="283.5" x2="1436" y2="283.5" fill="rgb(0, 0, 0)" stroke="rgb(60, 60, 60)" stroke-width="1px" opacity="0.25"></line><line x1="0" y1="236.24999999999997" x2="1436" y2="236.24999999999997" fill="rgb(0, 0, 0)" stroke="rgb(60, 60, 60)" stroke-width="1px" opacity="0.25"></line><line x1="0" y1="188.99999999999997" x2="1436" y2="188.99999999999997" fill="rgb(0, 0, 0)" stroke="rgb(60, 60, 60)" stroke-width="1px" opacity="0.25"></line><line x1="0" y1="141.75" x2="1436" y2="141.75" fill="rgb(0, 0, 0)" stroke="rgb(60, 60, 60)" stroke-width="1px" opacity="0.25"></line><line x1="0" y1="94.5" x2="1436" y2="94.5" fill="rgb(0, 0, 0)" stroke="rgb(60, 60, 60)" stroke-width="1px" opacity="0.25"></line><line x1="0" y1="47.25" x2="1436" y2="47.25" fill="rgb(0, 0, 0)" stroke="rgb(60, 60, 60)" stroke-width="1px" opacity="0.25"></line><line x1="0" y1="0" x2="1436" y2="0" fill="rgb(0, 0, 0)" stroke="rgb(60, 60, 60)" stroke-width="1px" opacity="0.25"></line></g></g></g><g><g><line x1="0" y1="330.75" x2="1436" y2="330.75" fill="rgb(0, 0, 0)" stroke="rgb(153, 153, 153)" stroke-width="1.5px"></line></g></g><g><g><line x1="119.66666666666666" y1="0" x2="119.66666666666666" y2="378" fill="rgb(0, 0, 0)" stroke="rgb(153, 153, 153)" stroke-width="1.5px"></line></g></g><g><g><g><g><g><path stroke="rgb(0, 119, 187)" stroke-width="2px" d="M119.66666666666666,63.90725103020668L125.64999999999999,216.80917766690254L131.63333333333333,227.71081940084696L137.61666666666667,266.1000348329544L143.6,259.8931835666299L149.58333333333334,261.836225733161L155.56666666666666,246.87953457981348L161.55,260.30412682145834L167.53333333333333,257.8462403342128L173.51666666666668,241.45059299468994L179.5,254.6294543221593L185.48333333333335,228.37331631034613L191.46666666666667,226.07717809081078L197.45000000000002,222.7747618854046L203.43333333333334,236.8885779082775L209.41666666666669,214.39461321383715L215.4,241.65106565505266L221.38333333333335,223.37934118509293L227.36666666666665,234.97817688435316L233.35,243.65196910500526L239.33333333333331,254.83077891916037L245.31666666666666,247.83264749497175L251.29999999999998,253.3270403444767L257.28333333333336,251.038224555552L263.26666666666665,231.99226570129395L269.25,236.95135366916656L275.23333333333335,228.24307561665773L281.21666666666664,261.02761816978455L287.2,234.301950417459L293.18333333333334,248.6846827045083L299.1666666666667,249.87814032286406L305.15,248.58170398324728L311.1333333333333,235.0978986248374L317.1166666666667,240.91661882400513L323.1,243.1882621049881L329.0833333333333,241.55392375588417L335.06666666666666,245.51735830307007L341.05,235.02544880658388L347.03333333333336,243.93250972777605L353.01666666666665,262.8769613876939L359,251.90026473999023L364.9833333333333,252.7539827004075L370.9666666666667,246.86708644777536L376.95,256.30268604308367L382.93333333333334,255.20035748183727L388.91666666666663,257.0343658402562L394.90000000000003,245.65874458104372L400.8833333333333,231.17749743908644L406.8666666666667,234.4985858425498L412.84999999999997,227.2407404780388L418.83333333333337,236.57197431474924L424.81666666666666,250.42847730964422L430.8,241.65179085731506L436.7833333333333,224.36856635659933L442.7666666666667,244.76497151702642L448.75,242.12858670204878L454.7333333333333,247.79792227596045L460.7166666666667,241.2277094721794L466.7,241.21537399291992L472.68333333333334,247.46935636550188L478.66666666666663,246.7736832126975L484.65000000000003,241.94441349059343L490.6333333333333,250.84836941957474L496.6166666666667,248.37146573513746L502.59999999999997,237.29783841222525L508.58333333333337,258.6143210604787L514.5666666666667,251.85483046621084L520.55,242.30702870339155L526.5333333333333,240.2887203991413L532.5166666666667,242.63077870756388L538.5,251.23096641898155L544.4833333333333,259.4519859999418L550.4666666666667,244.5557541847229L556.45,252.0467274338007L562.4333333333333,222.08873462677002L568.4166666666666,244.3628081381321L574.4,236.8350889608264L580.3833333333333,241.23841148614883L586.3666666666667,239.99740735441446L592.35,246.73222699016333L598.3333333333334,233.67625576257706L604.3166666666667,257.1920797303319L610.3,245.8538521528244L616.2833333333333,243.6828852519393L622.2666666666667,259.6904296875L628.25,257.3412249684334L634.2333333333333,250.25663957744837L640.2166666666667,239.12642535567284L646.2,246.42375551909208L652.1833333333333,241.32586524635553L658.1666666666666,257.22781882435083L664.15,254.4785840883851L670.1333333333333,257.70319946855307L676.1166666666667,242.11808183044195L682.1,261.411207921803L688.0833333333334,258.14048939198256L694.0666666666667,268.96764651685953L700.05,263.8115006759763L706.0333333333333,247.89008633047342L712.0166666666667,257.7488238438964L718,266.29426934570074L723.9833333333333,248.00830134004354L729.9666666666666,266.6363113448024L735.9499999999999,265.7954005971551L741.9333333333334,256.82225473970175L747.9166666666667,257.7688267529011L753.9,257.30824586749077L759.8833333333333,254.06545818597078L765.8666666666667,264.3367301747203L771.85,264.0579567924142L777.8333333333333,270.5502349957824L783.8166666666666,251.51639335602522L789.8000000000001,258.2973302230239L795.7833333333334,253.51840925216675L801.7666666666667,256.89202201366425L807.75,247.33565159887075L813.7333333333333,248.166670024395L819.7166666666666,267.5468485504389L825.6999999999999,247.4303503409028L831.6833333333334,266.69819996505976L837.6666666666667,259.92889449745417L843.65,244.8448212146759L849.6333333333333,263.8641236051917L855.6166666666667,263.01710848510265L861.6,264.46605556458235L867.5833333333333,262.4655956849456L873.5666666666666,258.9113864377141L879.5500000000001,260.27935729175806L885.5333333333334,261.74644146859646L891.5166666666667,262.5700811371207L897.5,255.15657779574394L903.4833333333333,264.0370878651738L909.4666666666666,266.89094886928797L915.4499999999999,268.455674842L921.4333333333334,279.61517526581883L927.4166666666667,254.40940120071173L933.4,277.2734830789268L939.3833333333333,266.1379424929619L945.3666666666667,266.3864756450057L951.35,265.23847342282534L957.3333333333333,268.6264071688056L963.3166666666666,272.5241827480495L969.3000000000001,287.1785807311535L975.2833333333334,272.13422107324004L981.2666666666667,264.6454621553421L987.25,280.95484210923314L993.2333333333333,275.1405611336231L999.2166666666666,281.3731993250549L1005.1999999999999,284.0627738535404L1011.1833333333334,272.29018180444837L1017.1666666666667,271.89554503932595L1023.15,275.0144921131432L1029.1333333333334,285.8958070613444L1035.1166666666666,288.15651950240135L1041.1,280.2743735611439L1047.0833333333333,274.0572532899678L1053.0666666666666,275.72471859678626L1059.05,280.5447367094457L1065.0333333333333,283.44672157242894L1071.0166666666667,272.88840678334236L1077,287.7906796038151L1082.9833333333333,274.9143156297505L1088.9666666666667,279.08953035995364L1094.95,266.3291776254773L1100.9333333333334,292.669671446085L1106.9166666666667,276.98744359239936L1112.9,290.254899289459L1118.8833333333334,276.725800473243L1124.8666666666666,283.53499558568L1130.85,276.7741003520787L1136.8333333333333,271.3244552984834L1142.8166666666666,280.67442118003964L1148.8,282.260142814368L1154.7833333333333,291.3435229361057L1160.7666666666667,286.4579831510782L1166.75,283.84699097648263L1172.7333333333333,292.02266781404614L1178.7166666666667,287.8842658996582L1184.7,294.1720124222338L1190.6833333333334,292.1805084384978L1196.6666666666667,271.3896530941129L1202.65,291.25016194581985L1208.6333333333334,294.4953399784863L1214.6166666666666,278.95870527997613L1220.6,289.67388554289937L1226.5833333333333,289.4485447816551L1232.5666666666666,295.2239851914346L1238.55,295.9513419382274L1244.5333333333333,286.54030768945813L1250.5166666666667,286.34514731168747L1256.5,292.6416948325932L1262.4833333333333,298.16759173572063L1268.4666666666667,294.46466321870685L1274.45,294.7224620617926L1280.4333333333334,283.6391818039119L1286.4166666666667,293.19793904945254L1292.4,295.0687074176967L1298.3833333333334,289.11383225396276L1304.3666666666666,296.21360816806555L1310.35,294.4355354346335" style="fill: none;" fill="none"></path></g></g></g></g></g></g><g transform="translate(60, 378)" clip-path="url(#clip_1)"><clipPath id="clip_1"><rect width="1436" height="22"></rect></clipPath><g><g><line x1="0" y1="0" x2="0" y2="5" style="visibility: inherit;" fill="rgb(0, 0, 0)" stroke="rgb(204, 204, 204)" stroke-width="1px"></line><line x1="119.66666666666666" y1="0" x2="119.66666666666666" y2="5" style="visibility: inherit;" fill="rgb(0, 0, 0)" stroke="rgb(204, 204, 204)" stroke-width="1px"></line><line x1="239.33333333333331" y1="0" x2="239.33333333333331" y2="5" style="visibility: inherit;" fill="rgb(0, 0, 0)" stroke="rgb(204, 204, 204)" stroke-width="1px"></line><line x1="359" y1="0" x2="359" y2="5" style="visibility: inherit;" fill="rgb(0, 0, 0)" stroke="rgb(204, 204, 204)" stroke-width="1px"></line><line x1="478.66666666666663" y1="0" x2="478.66666666666663" y2="5" style="visibility: inherit;" fill="rgb(0, 0, 0)" stroke="rgb(204, 204, 204)" stroke-width="1px"></line><line x1="598.3333333333334" y1="0" x2="598.3333333333334" y2="5" style="visibility: inherit;" fill="rgb(0, 0, 0)" stroke="rgb(204, 204, 204)" stroke-width="1px"></line><line x1="718" y1="0" x2="718" y2="5" style="visibility: inherit;" fill="rgb(0, 0, 0)" stroke="rgb(204, 204, 204)" stroke-width="1px"></line><line x1="837.6666666666667" y1="0" x2="837.6666666666667" y2="5" style="visibility: inherit;" fill="rgb(0, 0, 0)" stroke="rgb(204, 204, 204)" stroke-width="1px"></line><line x1="957.3333333333333" y1="0" x2="957.3333333333333" y2="5" style="visibility: inherit;" fill="rgb(0, 0, 0)" stroke="rgb(204, 204, 204)" stroke-width="1px"></line><line x1="1077" y1="0" x2="1077" y2="5" style="visibility: inherit;" fill="rgb(0, 0, 0)" stroke="rgb(204, 204, 204)" stroke-width="1px"></line><line x1="1196.6666666666667" y1="0" x2="1196.6666666666667" y2="5" style="visibility: inherit;" fill="rgb(0, 0, 0)" stroke="rgb(204, 204, 204)" stroke-width="1px"></line><line x1="1316.3333333333333" y1="0" x2="1316.3333333333333" y2="5" style="visibility: inherit;" fill="rgb(0, 0, 0)" stroke="rgb(204, 204, 204)" stroke-width="1px"></line><line x1="1436" y1="0" x2="1436" y2="5" style="visibility: inherit;" fill="rgb(0, 0, 0)" stroke="rgb(204, 204, 204)" stroke-width="1px"></line></g><g transform="translate(0, 8)"><text x="0" y="0" dx="0em" dy="0.95em" style="text-anchor: middle; visibility: hidden; font-family: &quot;Helvetica Neue&quot;, sans-serif; font-size: 12px; font-weight: 200;" fill="rgb(50, 49, 63)" stroke="none" stroke-width="1px">-20</text><text x="119.66666666666666" y="0" dx="0em" dy="0.95em" style="text-anchor: middle; visibility: inherit; font-family: &quot;Helvetica Neue&quot;, sans-serif; font-size: 12px; font-weight: 200;" fill="rgb(50, 49, 63)" stroke="none" stroke-width="1px">0</text><text x="239.33333333333331" y="0" dx="0em" dy="0.95em" style="text-anchor: middle; visibility: inherit; font-family: &quot;Helvetica Neue&quot;, sans-serif; font-size: 12px; font-weight: 200;" fill="rgb(50, 49, 63)" stroke="none" stroke-width="1px">20</text><text x="359" y="0" dx="0em" dy="0.95em" style="text-anchor: middle; visibility: inherit; font-family: &quot;Helvetica Neue&quot;, sans-serif; font-size: 12px; font-weight: 200;" fill="rgb(50, 49, 63)" stroke="none" stroke-width="1px">40</text><text x="478.66666666666663" y="0" dx="0em" dy="0.95em" style="text-anchor: middle; visibility: inherit; font-family: &quot;Helvetica Neue&quot;, sans-serif; font-size: 12px; font-weight: 200;" fill="rgb(50, 49, 63)" stroke="none" stroke-width="1px">60</text><text x="598.3333333333334" y="0" dx="0em" dy="0.95em" style="text-anchor: middle; visibility: inherit; font-family: &quot;Helvetica Neue&quot;, sans-serif; font-size: 12px; font-weight: 200;" fill="rgb(50, 49, 63)" stroke="none" stroke-width="1px">80</text><text x="718" y="0" dx="0em" dy="0.95em" style="text-anchor: middle; visibility: inherit; font-family: &quot;Helvetica Neue&quot;, sans-serif; font-size: 12px; font-weight: 200;" fill="rgb(50, 49, 63)" stroke="none" stroke-width="1px">100</text><text x="837.6666666666667" y="0" dx="0em" dy="0.95em" style="text-anchor: middle; visibility: inherit; font-family: &quot;Helvetica Neue&quot;, sans-serif; font-size: 12px; font-weight: 200;" fill="rgb(50, 49, 63)" stroke="none" stroke-width="1px">120</text><text x="957.3333333333333" y="0" dx="0em" dy="0.95em" style="text-anchor: middle; visibility: inherit; font-family: &quot;Helvetica Neue&quot;, sans-serif; font-size: 12px; font-weight: 200;" fill="rgb(50, 49, 63)" stroke="none" stroke-width="1px">140</text><text x="1077" y="0" dx="0em" dy="0.95em" style="text-anchor: middle; visibility: inherit; font-family: &quot;Helvetica Neue&quot;, sans-serif; font-size: 12px; font-weight: 200;" fill="rgb(50, 49, 63)" stroke="none" stroke-width="1px">160</text><text x="1196.6666666666667" y="0" dx="0em" dy="0.95em" style="text-anchor: middle; visibility: inherit; font-family: &quot;Helvetica Neue&quot;, sans-serif; font-size: 12px; font-weight: 200;" fill="rgb(50, 49, 63)" stroke="none" stroke-width="1px">180</text><text x="1316.3333333333333" y="0" dx="0em" dy="0.95em" style="text-anchor: middle; visibility: inherit; font-family: &quot;Helvetica Neue&quot;, sans-serif; font-size: 12px; font-weight: 200;" fill="rgb(50, 49, 63)" stroke="none" stroke-width="1px">200</text><text x="1436" y="0" dx="0em" dy="0.95em" style="text-anchor: middle; visibility: hidden; font-family: &quot;Helvetica Neue&quot;, sans-serif; font-size: 12px; font-weight: 200;" fill="rgb(50, 49, 63)" stroke="none" stroke-width="1px">220</text></g><line x1="0" y1="0" x2="1436" y2="0" fill="rgb(0, 0, 0)" stroke="rgb(204, 204, 204)" stroke-width="1px"></line></g></g></g></g></svg>