<svg viewBox="0 0 1496 400" xmlns="http://www.w3.org/2000/svg"><g><g><g><g><g><line x1="60" y1="378" x2="55" y2="378" style="visibility: inherit;" fill="rgb(0, 0, 0)" stroke="rgb(204, 204, 204)" stroke-width="1px"></line><line x1="60" y1="348.92307692307696" x2="55" y2="348.92307692307696" style="visibility: inherit;" fill="rgb(0, 0, 0)" stroke="rgb(204, 204, 204)" stroke-width="1px"></line><line x1="60" y1="319.84615384615387" x2="55" y2="319.84615384615387" style="visibility: inherit;" fill="rgb(0, 0, 0)" stroke="rgb(204, 204, 204)" stroke-width="1px"></line><line x1="60" y1="290.7692307692308" x2="55" y2="290.7692307692308" style="visibility: inherit;" fill="rgb(0, 0, 0)" stroke="rgb(204, 204, 204)" stroke-width="1px"></line><line x1="60" y1="261.6923076923077" x2="55" y2="261.6923076923077" style="visibility: inherit;" fill="rgb(0, 0, 0)" stroke="rgb(204, 204, 204)" stroke-width="1px"></line><line x1="60" y1="232.61538461538464" x2="55" y2="232.61538461538464" style="visibility: inherit;" fill="rgb(0, 0, 0)" stroke="rgb(204, 204, 204)" stroke-width="1px"></line><line x1="60" y1="203.53846153846158" x2="55" y2="203.53846153846158" style="visibility: inherit;" fill="rgb(0, 0, 0)" stroke="rgb(204, 204, 204)" stroke-width="1px"></line><line x1="60" y1="174.46153846153848" x2="55" y2="174.46153846153848" style="visibility: inherit;" fill="rgb(0, 0, 0)" stroke="rgb(204, 204, 204)" stroke-width="1px"></line><line x1="60" y1="145.38461538461542" x2="55" y2="145.38461538461542" style="visibility: inherit;" fill="rgb(0, 0, 0)" stroke="rgb(204, 204, 204)" stroke-width="1px"></line><line x1="60" y1="116.30769230769232" x2="55" y2="116.30769230769232" style="visibility: inherit;" fill="rgb(0, 0, 0)" stroke="rgb(204, 204, 204)" stroke-width="1px"></line><line x1="60" y1="87.23076923076925" x2="55" y2="87.23076923076925" style="visibility: inherit;" fill="rgb(0, 0, 0)" stroke="rgb(204, 204, 204)" stroke-width="1px"></line><line x1="60" y1="58.15384615384616" x2="55" y2="58.15384615384616" style="visibility: inherit;" fill="rgb(0, 0, 0)" stroke="rgb(204, 204, 204)" stroke-width="1px"></line><line x1="60" y1="29.076923076923098" x2="55" y2="29.076923076923098" style="visibility: inherit;" fill="rgb(0, 0, 0)" stroke="rgb(204, 204, 204)" stroke-width="1px"></line><line x1="60" y1="0" x2="55" y2="0" style="visibility: inherit;" fill="rgb(0, 0, 0)" stroke="rgb(204, 204, 204)" stroke-width="1px"></line></g><g transform="translate(50, 0)"><text x="0" y="378" dx="0em" dy="0.3em" style="text-anchor: end; visibility: hidden; font-family: Roboto, sans-serif; font-size: 12px; font-weight: 200;" fill="rgb(50, 49, 63)" stroke="none" stroke-width="1px">-0.24</text><text x="0" y="348.92307692307696" dx="0em" dy="0.3em" style="text-anchor: end; visibility: inherit; font-family: Roboto, sans-serif; font-size: 12px; font-weight: 200;" fill="rgb(50, 49, 63)" stroke="none" stroke-width="1px">-0.22</text><text x="0" y="319.84615384615387" dx="0em" dy="0.3em" style="text-anchor: end; visibility: inherit; font-family: Roboto, sans-serif; font-size: 12px; font-weight: 200;" fill="rgb(50, 49, 63)" stroke="none" stroke-width="1px">-0.2</text><text x="0" y="290.7692307692308" dx="0em" dy="0.3em" style="text-anchor: end; visibility: inherit; font-family: Roboto, sans-serif; font-size: 12px; font-weight: 200;" fill="rgb(50, 49, 63)" stroke="none" stroke-width="1px">-0.18</text><text x="0" y="261.6923076923077" dx="0em" dy="0.3em" style="text-anchor: end; visibility: inherit; font-family: Roboto, sans-serif; font-size: 12px; font-weight: 200;" fill="rgb(50, 49, 63)" stroke="none" stroke-width="1px">-0.16</text><text x="0" y="232.61538461538464" dx="0em" dy="0.3em" style="text-anchor: end; visibility: inherit; font-family: Roboto, sans-serif; font-size: 12px; font-weight: 200;" fill="rgb(50, 49, 63)" stroke="none" stroke-width="1px">-0.14</text><text x="0" y="203.53846153846158" dx="0em" dy="0.3em" style="text-anchor: end; visibility: inherit; font-family: Roboto, sans-serif; font-size: 12px; font-weight: 200;" fill="rgb(50, 49, 63)" stroke="none" stroke-width="1px">-0.12</text><text x="0" y="174.46153846153848" dx="0em" dy="0.3em" style="text-anchor: end; visibility: inherit; font-family: Roboto, sans-serif; font-size: 12px; font-weight: 200;" fill="rgb(50, 49, 63)" stroke="none" stroke-width="1px">-0.1</text><text x="0" y="145.38461538461542" dx="0em" dy="0.3em" style="text-anchor: end; visibility: inherit; font-family: Roboto, sans-serif; font-size: 12px; font-weight: 200;" fill="rgb(50, 49, 63)" stroke="none" stroke-width="1px">-0.08</text><text x="0" y="116.30769230769232" dx="0em" dy="0.3em" style="text-anchor: end; visibility: inherit; font-family: Roboto, sans-serif; font-size: 12px; font-weight: 200;" fill="rgb(50, 49, 63)" stroke="none" stroke-width="1px">-0.06</text><text x="0" y="87.23076923076925" dx="0em" dy="0.3em" style="text-anchor: end; visibility: inherit; font-family: Roboto, sans-serif; font-size: 12px; font-weight: 200;" fill="rgb(50, 49, 63)" stroke="none" stroke-width="1px">-0.04</text><text x="0" y="58.15384615384616" dx="0em" dy="0.3em" style="text-anchor: end; visibility: inherit; font-family: Roboto, sans-serif; font-size: 12px; font-weight: 200;" fill="rgb(50, 49, 63)" stroke="none" stroke-width="1px">-0.02</text><text x="0" y="29.076923076923098" dx="0em" dy="0.3em" style="text-anchor: end; visibility: inherit; font-family: Roboto, sans-serif; font-size: 12px; font-weight: 200;" fill="rgb(50, 49, 63)" stroke="none" stroke-width="1px">0</text><text x="0" y="0" dx="0em" dy="0.3em" style="text-anchor: end; visibility: hidden; font-family: Roboto, sans-serif; font-size: 12px; font-weight: 200;" fill="rgb(50, 49, 63)" stroke="none" stroke-width="1px">0.02</text></g><line x1="60" y1="0" x2="60" y2="378" fill="rgb(0, 0, 0)" stroke="rgb(204, 204, 204)" stroke-width="1px"></line></g></g><g transform="translate(60, 0)" clip-path="url(#clip_0)"><clipPath id="clip_0"><rect width="1436" height="378"></rect></clipPath><g><g><g><line x1="0" y1="0" x2="0" y2="378" fill="rgb(0, 0, 0)" stroke="rgb(60, 60, 60)" stroke-width="1px" opacity="0.25"></line><line x1="119.66666666666666" y1="0" x2="119.66666666666666" y2="378" fill="rgb(0, 0, 0)" stroke="rgb(60, 60, 60)" stroke-width="1px" opacity="0.25"></line><line x1="239.33333333333331" y1="0" x2="239.33333333333331" y2="378" fill="rgb(0, 0, 0)" stroke="rgb(60, 60, 60)" stroke-width="1px" opacity="0.25"></line><line x1="359" y1="0" x2="359" y2="378" fill="rgb(0, 0, 0)" stroke="rgb(60, 60, 60)" stroke-width="1px" opacity="0.25"></line><line x1="478.66666666666663" y1="0" x2="478.66666666666663" y2="378" fill="rgb(0, 0, 0)" stroke="rgb(60, 60, 60)" stroke-width="1px" opacity="0.25"></line><line x1="598.3333333333334" y1="0" x2="598.3333333333334" y2="378" fill="rgb(0, 0, 0)" stroke="rgb(60, 60, 60)" stroke-width="1px" opacity="0.25"></line><line x1="718" y1="0" x2="718" y2="378" fill="rgb(0, 0, 0)" stroke="rgb(60, 60, 60)" stroke-width="1px" opacity="0.25"></line><line x1="837.6666666666667" y1="0" x2="837.6666666666667" y2="378" fill="rgb(0, 0, 0)" stroke="rgb(60, 60, 60)" stroke-width="1px" opacity="0.25"></line><line x1="957.3333333333333" y1="0" x2="957.3333333333333" y2="378" fill="rgb(0, 0, 0)" stroke="rgb(60, 60, 60)" stroke-width="1px" opacity="0.25"></line><line x1="1077" y1="0" x2="1077" y2="378" fill="rgb(0, 0, 0)" stroke="rgb(60, 60, 60)" stroke-width="1px" opacity="0.25"></line><line x1="1196.6666666666667" y1="0" x2="1196.6666666666667" y2="378" fill="rgb(0, 0, 0)" stroke="rgb(60, 60, 60)" stroke-width="1px" opacity="0.25"></line><line x1="1316.3333333333333" y1="0" x2="1316.3333333333333" y2="378" fill="rgb(0, 0, 0)" stroke="rgb(60, 60, 60)" stroke-width="1px" opacity="0.25"></line><line x1="1436" y1="0" x2="1436" y2="378" fill="rgb(0, 0, 0)" stroke="rgb(60, 60, 60)" stroke-width="1px" opacity="0.25"></line></g><g><line x1="0" y1="378" x2="1436" y2="378" fill="rgb(0, 0, 0)" stroke="rgb(60, 60, 60)" stroke-width="1px" opacity="0.25"></line><line x1="0" y1="348.92307692307696" x2="1436" y2="348.92307692307696" fill="rgb(0, 0, 0)" stroke="rgb(60, 60, 60)" stroke-width="1px" opacity="0.25"></line><line x1="0" y1="319.84615384615387" x2="1436" y2="319.84615384615387" fill="rgb(0, 0, 0)" stroke="rgb(60, 60, 60)" stroke-width="1px" opacity="0.25"></line><line x1="0" y1="290.7692307692308" x2="1436" y2="290.7692307692308" fill="rgb(0, 0, 0)" stroke="rgb(60, 60, 60)" stroke-width="1px" opacity="0.25"></line><line x1="0" y1="261.6923076923077" x2="1436" y2="261.6923076923077" fill="rgb(0, 0, 0)" stroke="rgb(60, 60, 60)" stroke-width="1px" opacity="0.25"></line><line x1="0" y1="232.61538461538464" x2="1436" y2="232.61538461538464" fill="rgb(0, 0, 0)" stroke="rgb(60, 60, 60)" stroke-width="1px" opacity="0.25"></line><line x1="0" y1="203.53846153846158" x2="1436" y2="203.53846153846158" fill="rgb(0, 0, 0)" stroke="rgb(60, 60, 60)" stroke-width="1px" opacity="0.25"></line><line x1="0" y1="174.46153846153848" x2="1436" y2="174.46153846153848" fill="rgb(0, 0, 0)" stroke="rgb(60, 60, 60)" stroke-width="1px" opacity="0.25"></line><line x1="0" y1="145.38461538461542" x2="1436" y2="145.38461538461542" fill="rgb(0, 0, 0)" stroke="rgb(60, 60, 60)" stroke-width="1px" opacity="0.25"></line><line x1="0" y1="116.30769230769232" x2="1436" y2="116.30769230769232" fill="rgb(0, 0, 0)" stroke="rgb(60, 60, 60)" stroke-width="1px" opacity="0.25"></line><line x1="0" y1="87.23076923076925" x2="1436" y2="87.23076923076925" fill="rgb(0, 0, 0)" stroke="rgb(60, 60, 60)" stroke-width="1px" opacity="0.25"></line><line x1="0" y1="58.15384615384616" x2="1436" y2="58.15384615384616" fill="rgb(0, 0, 0)" stroke="rgb(60, 60, 60)" stroke-width="1px" opacity="0.25"></line><line x1="0" y1="29.076923076923098" x2="1436" y2="29.076923076923098" fill="rgb(0, 0, 0)" stroke="rgb(60, 60, 60)" stroke-width="1px" opacity="0.25"></line><line x1="0" y1="0" x2="1436" y2="0" fill="rgb(0, 0, 0)" stroke="rgb(60, 60, 60)" stroke-width="1px" opacity="0.25"></line></g></g></g><g><g><line x1="0" y1="29.076923076923098" x2="1436" y2="29.076923076923098" fill="rgb(0, 0, 0)" stroke="rgb(153, 153, 153)" stroke-width="1.5px"></line></g></g><g><g><line x1="119.66666666666666" y1="0" x2="119.66666666666666" y2="378" fill="rgb(0, 0, 0)" stroke="rgb(153, 153, 153)" stroke-width="1.5px"></line></g></g><g><g><g><g><g><path stroke="rgb(204, 51, 17)" stroke-width="2px" d="M122.65833333333333,217.0351379101093L123.25666666666666,229.42833005465L125.64999999999999,160.18326671306906L126.24833333333333,167.71332506033093L127.445,183.8147000532884L128.04333333333335,166.84676522475024L128.64166666666668,133.51748745258038L129.83833333333334,151.87053152231073L130.43666666666667,255.24072118905872L131.035,134.72720498305102L131.63333333333333,131.03704657921426L134.02666666666667,117.39323527996359L139.41166666666666,118.06013972942648L140.01,102.21041371272162L141.20666666666665,125.04669174781216L143.00166666666667,104.9147736476018L143.6,120.82689197246847L144.79666666666665,103.49084252577563L145.99333333333334,104.65341920119067L146.59166666666667,100.07035754277159L147.78833333333333,163.65921152555026L148.98499999999999,99.7473040360671L149.58333333333334,93.42626997140741L151.37833333333333,101.65234917860766L151.97666666666666,112.00669934199408L152.575,104.35116313054014L153.17333333333335,122.49276660038878L153.77166666666668,110.47115531334511L155.56666666666666,109.15259786752557L156.165,107.34322093083311L157.36166666666668,103.85965039179877L158.55833333333334,202.70917070828955L159.15666666666667,93.25711749150206L159.755,113.04795764042784L160.35333333333332,115.98594210698057L162.14833333333334,118.36378229581393L162.74666666666667,118.1045075930082L163.345,117.37937032259431L163.94333333333333,129.61796819246737L165.14000000000001,166.88420060964734L166.935,133.5701742905837L169.92666666666668,115.31695791391229L170.525,127.63458604079028L171.12333333333333,160.8314534700834L171.72166666666666,139.2561933077299L172.32,140.7452897291917L172.91833333333335,149.4878385983981L175.91,159.36731397188632L180.69666666666666,169.89705584599426L182.49166666666665,170.98545499948358L183.09,147.14674054659335L187.2783333333333,178.4441088162936L189.07333333333332,131.1458864945632L190.27,169.999656530527L190.8683333333333,149.97935133713943L191.46666666666667,147.65073174696704L193.86,140.76054118229797L194.45833333333331,150.61852587186374L195.05666666666667,139.7213626274696L196.85166666666666,159.81099260770358L197.45000000000002,199.47655589763937L199.245,154.35166564354532L201.63833333333332,154.6456027397743L202.83499999999998,134.1209597220788L204.03166666666667,156.2955326667199L204.63,142.71619341923645L205.22833333333332,159.9870775662936L205.82666666666668,140.29190562321594L208.22,169.54280618520886L209.41666666666669,156.62274566063516L211.21166666666667,171.48667320838345L211.81,151.76793083777798L212.40833333333333,144.1948911226713L213.605,162.09593758216275L214.20333333333335,177.6829226567195L214.80166666666668,145.02817506056567L216.5966666666667,142.99071957514838L217.79333333333335,169.45892319312466L218.39166666666665,162.90287810105545L219.58833333333334,144.10823513911322L220.18666666666664,137.37991795173062L221.98166666666665,152.05008272024304L224.97333333333336,165.8921629098746L225.57166666666666,165.92474555969238L226.17,152.305197935838L227.36666666666665,172.29014748793384L227.965,161.67860236534707L229.16166666666666,162.6047815176157L230.35833333333335,157.8809905418983L230.95666666666665,139.39553612929126L231.555,142.70163521399869L232.1533333333333,165.4325395730826L233.35,148.8136550463163L233.94833333333332,167.6817822823158L238.13666666666666,168.5109067329994L240.53,159.91809940338135L242.92333333333332,143.399042569674L243.52166666666668,137.45409547365634L244.12,177.62399658790005L246.51333333333332,159.0636714054988L248.30833333333334,151.98526404454162L250.10333333333332,162.50426057668835L250.70166666666668,149.51314214559704L252.49666666666667,152.35407191056473L253.095,138.97716104067294L254.29166666666669,158.88550670330343L254.89,143.6642098793617L255.48833333333334,172.89292650956375L256.685,140.87007434551535L257.28333333333336,153.48787879943848L258.48,155.04387364020718L259.0783333333333,138.85064330467813L259.6766666666667,153.4116215339074L261.4716666666667,168.1996384400588L263.26666666666665,165.75767282339245L266.2583333333333,140.43367481231692L267.455,137.63815278273364L268.65166666666664,154.60331461979797L269.25,150.3526653143076L272.2416666666667,153.14090824127197L274.03666666666663,149.6244084284856L274.635,128.57705651796786L275.23333333333335,159.89626209552472L275.83166666666665,161.44636432941144L277.0283333333333,157.1184178865873L279.4216666666667,149.2559471863967L280.61833333333334,150.14919706491327L281.815,119.04073883936957L283.01166666666666,142.6718255556547L286.00333333333333,119.53225157811094L287.2,164.97568922776443L289.5933333333333,133.80691843766434L292.585,135.72166905036343L293.7816666666667,189.69066898639386L294.38,150.06739381643445L296.175,140.38688058119556L297.37166666666667,149.29546231489917L297.96999999999997,141.41739353766812L298.5683333333333,159.20370747492865L299.765,155.9163260826698L300.36333333333334,171.39377799400918L300.9616666666667,152.8563299912673L303.355,155.42169372852032L303.9533333333333,161.64393997192383L305.15,169.75424678509054L306.945,159.0560456789457L309.33833333333337,151.06255113161532L309.93666666666667,139.7546385251559L310.535,158.3718100327712L311.1333333333333,143.60563043447644L312.33,156.12742005861728L314.125,178.1661164210393L314.72333333333336,124.45881755535422L315.32166666666666,145.84759404109076L317.1166666666667,146.89127870706415L317.715,163.76077233828036L318.91166666666663,147.250727726863L322.50166666666667,143.78830124781683L323.6983333333333,137.8794030409593L325.49333333333334,142.99106619908264L326.09166666666664,141.87840337019702L327.2883333333333,130.36251640319827L327.88666666666666,153.49030516697815L330.87833333333333,174.93454148219183L331.4766666666667,155.73573501293478L332.67333333333335,142.67667829073397L333.87,149.9003210801345L334.4683333333333,136.31924871297986L335.06666666666666,172.09915770017184L336.8616666666667,145.67358882610617L337.46,143.6770349649283L339.255,183.9121013788077L339.85333333333335,164.54102281423718L341.05,142.30821704864502L341.6483333333333,158.33368140000564L342.84499999999997,139.77855557661792L345.23833333333334,161.34653663635254L345.8366666666667,161.77392394726095L346.435,142.92451440371005L347.63166666666666,150.99738583197964L348.23,156.84215861100418L350.025,139.12135659731356L350.62333333333333,165.14692145127518L351.2216666666667,147.63756003746622L351.82,149.48471898299L353.01666666666665,164.5704858486469L353.615,148.34259311969464L354.21333333333337,164.72854636265686L354.81166666666667,178.05554338601922L360.1966666666667,155.30037535153903L360.79499999999996,128.64360831334045L361.9916666666667,158.4189508878268L363.7866666666667,176.09538503793573L367.97499999999997,151.69791280306308L368.5733333333333,160.50008098895734L370.9666666666667,169.90364170074463L371.565,144.7082411692693L372.1633333333333,170.95113922999457L373.36,127.35798014127292L374.5566666666666,175.2950303737934L376.95,152.06949366056003L382.335,149.12873620253345L382.93333333333334,156.0064483055702L383.5316666666667,144.64792860471286L384.13,178.7366594167856L385.32666666666665,161.56664283459006L385.925,145.89646801581753L387.72,140.24823100750265L389.515,149.24277547689587L393.7033333333333,194.57356034792392L394.3016666666667,139.98826305682843L394.90000000000003,166.44745445251465L395.4983333333333,167.08524249150207L396.695,189.66293907165527L397.29333333333335,192.01062297821045L397.8916666666667,151.1270231833825L399.0883333333333,163.22038562481222L399.68666666666667,150.6885439065787L400.285,164.1524573839628L401.4816666666667,176.9588252581083L402.6783333333333,127.49870945857123L403.27666666666664,170.6870117921096L405.66999999999996,159.20578721853406L409.8583333333333,157.75031331869275L411.65333333333336,172.9213496721708L412.2516666666667,165.6269956001869L413.4483333333333,171.29949628389804L414.645,157.37457297398498L416.44,163.77879678286044L423.02166666666665,141.73802067683295L424.81666666666666,158.84148546365594L425.415,165.60065218118524L426.0133333333334,149.3838514181284L427.21,138.760867705712L428.4066666666667,138.97508129706753L429.005,189.63936864412753L430.20166666666665,162.54134933765118L433.1933333333334,153.86084615267245L433.79166666666663,175.62952247032754L437.38166666666666,154.0528758122371L438.5783333333333,168.54834211789645L439.1766666666667,158.53749627333423L439.77500000000003,164.1618162301871L440.3733333333333,153.03657443706808L440.97166666666664,155.3846049675575L441.57,173.61251779702997L442.16833333333335,177.38829231262207L442.7666666666667,154.1624089754545L443.365,132.79269680610074L443.9633333333333,153.34368324279785L445.16,159.98569107055664L446.95500000000004,148.8126151745136L447.5533333333333,147.40636187333328L448.15166666666664,159.08030935434198L449.34833333333336,151.3225190822895L451.7416666666667,143.15155308063214L452.93833333333333,167.65058612823486L454.135,145.36821314004754L456.52833333333336,146.63997635474576L457.1266666666667,143.35363483428955L457.72499999999997,149.84174163524924L458.9216666666667,132.37952107649585L460.11833333333334,173.12239155402554L461.315,179.18831040309027L462.51166666666666,151.29860203082745L463.11,158.6678268726056L464.905,162.33753446432263L466.1016666666667,144.42054330385653L466.7,165.38158585475043L467.29833333333335,168.50674724578857L467.89666666666665,144.4936809539795L468.495,180.59456370427063L469.0933333333333,190.51251433445856L470.29,151.2847370734582L470.8883333333334,168.65440904177157L473.88,134.73864357288068L474.47833333333335,139.6579304475051L475.675,154.5426554313073L476.2733333333333,142.68707700876092L476.87166666666667,143.39384321066052L478.66666666666663,158.7634950784537L479.86333333333334,148.7276923106267L481.06,126.9236603516799L482.25666666666666,149.0476262019231L483.4533333333333,165.5892135913556L484.65000000000003,171.44299859267016L485.2483333333333,190.47126608628494L485.84666666666664,150.2434787750244L487.6416666666667,182.58210534315845L490.035,166.38679526402404L490.6333333333333,168.68872481126053L491.83000000000004,179.41846869542053L492.4283333333333,156.33504779522238L493.625,147.55402366931622L496.0183333333333,161.64359334798962L499.01,160.0570956010085L503.1983333333333,157.1482275449313L503.7966666666667,152.34575293614319L504.99333333333334,140.436794427725L505.5916666666667,167.7732910009531L506.19,150.11384142362155L506.7883333333333,177.42260808211108L507.38666666666666,148.16650816110467L507.985,159.675809273353L509.1816666666666,159.64669286287753L509.78,179.15988724048322L512.1733333333334,168.455100279588L512.7716666666666,138.9199680915246L513.9683333333334,160.3201831670908L515.165,140.76990002852222L516.96,168.21073040595425L518.1566666666666,155.32394577906683L518.755,189.1225523581872L519.3533333333334,159.69764658120965L521.1483333333333,170.99585371751053L521.7466666666667,186.9110916577853L522.345,178.2368277036227L522.9433333333334,158.2012710571289L523.5416666666666,180.7016704999484L524.7383333333333,134.32234822786776L525.3366666666667,171.5473323968741L525.9350000000001,160.69592351179858L527.1316666666667,168.09426476405218L527.73,155.39708342918985L528.3283333333334,169.22113917424133L528.9266666666667,154.3554785068219L529.525,153.85945965693548L530.1233333333333,143.79869996584384L531.32,152.5558070402879L531.9183333333333,156.78704540546124L533.7133333333333,175.22050622793347L536.1066666666667,158.81930153186505L537.9016666666666,141.40907456324652L538.5,161.8761780078595L539.0983333333334,154.43589525956375L540.295,156.78531228579013L540.8933333333333,147.74986619215747L541.4916666666667,164.47967037787808L542.09,145.39074369577264L543.2866666666667,162.55209467961242L543.885,179.09437531691333L544.4833333333333,132.63810253143313L546.8766666666667,175.258634860699L549.27,148.6607938913199L549.8683333333333,175.46730246910684L551.0649999999999,158.14719772338867L551.6633333333333,166.02318675701437L552.2616666666667,167.3178271513719L552.86,127.61309535686789L553.4583333333334,158.00854814969577L554.0566666666666,151.23898271413952L555.8516666666667,145.4281790806697L556.45,167.85786724090576L560.04,158.45950588813199L561.2366666666667,137.02705478668216L561.835,178.33076278979962L562.4333333333333,165.9625275685237L563.0316666666666,148.73982414832486L564.2283333333334,161.72504997253418L566.0233333333333,173.25965463198153L566.6216666666667,176.3165311079759L568.4166666666666,160.98258150540866L569.015,163.4221207545354L569.6133333333333,184.8798754031842L570.8100000000001,143.38795060377856L572.0066666666667,156.76624796940735L573.8016666666667,150.81055553142843L574.4,155.76207843193643L575.5966666666667,173.6142509167011L577.3916666666667,172.83885317582352L577.99,186.98596242757947L578.5883333333333,184.63134604233963L579.785,161.38293214944696L580.3833333333333,145.87151109255282L580.9816666666667,141.13246866372918L582.1783333333333,182.31555153773382L582.7766666666666,180.88122169788068L583.375,164.6924974734967L586.3666666666667,176.51999935737027L588.76,138.69084967099704L589.3583333333333,144.93216023078335L590.555,145.13597510411194L591.7516666666667,147.16788460658148L592.9483333333333,165.71365158374493L593.5466666666666,173.36953441913312L594.145,147.1585257603572L594.7433333333333,152.61126686976507L595.3416666666667,171.9074746645414L595.9399999999999,145.30790057549112L597.1366666666667,146.7169268681453L598.3333333333334,153.36829354212836L599.53,149.19632786970874L601.325,159.00405208881085L602.5216666666666,134.45233220320483L603.12,162.92402216104364L603.7183333333334,157.0206699371338L606.1116666666667,182.1141630319449L607.3083333333333,162.37774284069357L607.9066666666666,170.94039388803338L609.1033333333334,165.5573241894062L610.8983333333333,170.46759884174054L612.095,128.5583388255193L612.6933333333334,159.52710760556735L613.2916666666666,167.1535274065458L615.0866666666667,147.26181969275845L616.8816666666667,163.62142951671896L617.48,132.3133159050575L618.6766666666667,168.7785004102267L619.8733333333333,161.54515215066766L621.07,169.74974067394552L624.0616666666666,154.0764462397649L625.2583333333333,142.91654205322266L625.8566666666667,151.10275950798624L626.455,151.50172365628757L627.0533333333333,156.07819945995627L628.8483333333334,193.1835983716525L632.4383333333334,152.8993113591121L633.635,128.54066100487344L634.2333333333333,166.6751863773053L634.8316666666667,140.1640013914842L635.43,190.31112582866965L636.0283333333333,165.10463333129883L638.4216666666666,182.43756316258361L639.6183333333333,165.88973654233493L640.2166666666667,132.4939069747925L642.0116666666667,184.73152035933276L642.61,160.9548515906701L643.2083333333334,158.10352310767544L643.8066666666666,136.25512328514688L644.405,138.86589475778436L645.6016666666667,149.35820124699524L646.2,169.73934195591858L646.7983333333334,144.58068356147183L647.3966666666666,157.19398190424994L648.5933333333334,158.89451892559347L650.3883333333333,147.82196397047778L651.585,150.14018484262323L652.1833333333333,165.35628230755148L653.38,167.74625433408298L653.9783333333334,170.28631452413708L655.7733333333333,163.2772319500263L656.3716666666667,170.86171025496265L657.5683333333334,145.81085190406216L658.1666666666666,163.3295721640954L662.355,140.7459829770602L662.9533333333334,157.0088847233699L663.5516666666667,148.79701709747314L664.15,180.04585801638095L664.7483333333333,149.59182577866775L665.3466666666667,177.45623060373163L665.945,151.82859002626864L667.1416666666667,150.90067775432883L667.74,151.63240087949313L668.3383333333333,186.34678789285516L670.1333333333333,182.88644115741437L670.7316666666667,164.93860046680157L671.33,182.41121974358194L671.9283333333333,153.35408196082486L673.125,173.54700587346008L676.715,169.59549302321216L677.3133333333334,149.73151522416336L677.9116666666667,146.77204007368823L679.1083333333333,162.72575327066278L681.5016666666667,184.74399882096512L683.2966666666666,179.60252600449783L685.0916666666667,159.62138931567853L687.485,161.08032945486218L689.28,161.02001689030578L689.8783333333333,186.45354806459872L690.4766666666667,201.68351048689624L691.6733333333334,158.6712931119479L692.2716666666666,149.95924714895398L692.87,156.71252125960132L694.665,146.54049528562106L695.2633333333333,188.8833818435669L696.46,152.88232678633472L697.6566666666666,175.4787410589365L698.255,143.375125518212L699.4516666666666,143.20216017503006L700.6483333333333,173.943890278156L701.2466666666667,144.2746146275447L702.4433333333334,140.18791844294623L703.64,181.1671864436223L704.2383333333333,166.343467272245L704.8366666666667,168.01315476344183L705.4350000000001,183.4386130846464L707.23,157.7832425924448L707.8283333333334,145.55746980813836L708.4266666666667,155.90800710824823L710.2216666666667,186.955459521367L710.82,161.33683116619406L715.6066666666667,165.89424265347995L717.4016666666666,163.1385823763334L718,181.9200536287748L719.1966666666667,156.7693675848154L720.3933333333334,176.6451305976281L720.9916666666667,155.73954787621133L722.7866666666666,173.77716416579028L723.385,161.79402813544644L724.5816666666667,165.75351333618164L725.18,145.00564450484057L725.7783333333333,147.0801887512207L726.3766666666667,157.2997022041908L728.1716666666666,173.42915373582107L732.9583333333333,145.4066883967473L733.5566666666667,152.0452299851638L734.155,154.20504371936505L735.3516666666667,159.47095452822177L736.5483333333334,154.401926114009L737.1466666666666,147.1377283243033L737.745,132.50846518003024L738.9416666666666,161.90772078587463L740.1383333333333,172.24612624828634L740.7366666666667,157.6695499420166L741.335,165.92717192723205L743.13,160.21134325174188L743.7283333333334,171.33623842092663L744.3266666666666,166.19788521986743L747.3183333333333,143.79592697436993L748.515,145.69750587756818L749.1133333333332,172.94110723642206L750.31,164.6131205925575L750.9083333333334,154.4691711572501L752.105,157.01269758664645L755.695,158.3631444344154L756.2933333333333,138.51580458420975L757.49,155.14647432473993L758.6866666666666,181.69093520824728L761.08,183.92007372929504L762.2766666666668,155.19916116274325L763.4733333333332,148.7834987640381L764.67,171.79724825345554L765.8666666666667,150.51141907618597L767.0633333333334,151.03308809720554L767.6616666666666,134.08387096111593L768.26,180.10755707667425L768.8583333333333,153.53190003908603L769.4566666666667,154.3329479510968L771.85,160.24912526057318L773.0466666666666,160.15311043079083L773.645,154.17523406102111L777.235,154.42099043039178L778.4316666666667,155.52290791731616L779.6283333333334,162.70391596280612L780.2266666666667,135.56776802356427L780.8249999999999,138.74561625260574L784.415,187.54887969677267L786.21,166.35594573387735L787.4066666666666,160.08309239607593L789.2016666666666,158.4522267855131L790.9966666666666,182.34778756361743L791.595,164.00687533158523L792.7916666666667,162.90946395580588L793.39,178.36022582420938L793.9883333333332,142.5903689311101L794.5866666666667,153.6168229029729L795.7833333333334,154.23173376230096L796.3816666666667,187.62479033836954L797.5783333333334,165.78748248173645L798.1766666666666,172.24508637648364L798.775,148.02543221987216L800.57,150.84729766845703L801.1683333333333,157.207500237685L802.365,173.20835428971512L807.1516666666668,167.946256344135L807.75,171.96952034876898L808.3483333333332,150.1689546291645L808.9466666666667,153.88095034085788L810.7416666666667,145.12141689887417L811.3399999999999,154.57211846571704L811.9383333333334,161.4626556543204L813.7333333333333,174.88012152451736L814.3316666666667,167.80206078749438L814.93,167.1965087743906L816.725,196.0418593333318L823.905,173.16017356285684L825.6999999999999,147.38556443727938L826.8966666666666,161.74376766498273L827.495,165.1472680752094L828.6916666666666,182.30341970003573L829.29,144.15468274630038L831.085,180.1980259235089L832.88,171.64057423518256L833.4783333333334,149.45525594858026L834.0766666666666,153.00953777019797L834.6750000000001,152.98007473578824L835.2733333333333,175.59035396575928L835.8716666666666,153.3332845247709L836.47,159.451890211839L837.0683333333333,153.94299602508545L838.265,143.94220227461597L839.4616666666667,187.19151042057922L840.06,182.2198833318857L841.2566666666667,150.3883675795335L842.4533333333334,154.17696718069226L843.65,167.07311065380392L844.2483333333333,169.63258178417502L844.8466666666667,150.6535348892212L845.445,143.2579666284415L846.0433333333333,157.72882263477032L846.6416666666667,160.3531124408429L849.0350000000001,183.14398274054898L852.0266666666668,170.77678739107577L852.625,158.26712960463306L853.8216666666667,151.00535818246698L854.42,185.21575399545526L856.8133333333334,169.65580558776855L857.4116666666666,168.59097686180704L858.01,146.61571267934949L859.2066666666667,147.94744183466986L861.0016666666667,165.67864256638748L862.7966666666666,157.62864831777722L863.9933333333333,151.99219652322626L865.19,179.90304895547723L865.7883333333333,136.94663803394025L866.985,161.95451501699597L867.5833333333333,155.2116396243756L869.3783333333334,150.24417202289288L869.9766666666667,154.9724691097553L870.5749999999999,161.21100667806775L871.7716666666666,161.44081834646374L872.37,177.5869078269372L872.9683333333334,151.65943754636325L874.165,176.77650106870212L874.7633333333333,158.69902302668646L875.3616666666667,184.47189903259277L875.96,148.24969790532043L876.5583333333334,157.22032532325161L877.1566666666666,167.96601390838623L880.1483333333333,175.29017763871414L880.7466666666666,164.81589559408337L881.9433333333333,177.79349569173962L884.3366666666667,156.62517202817477L884.935,146.77723943270175L886.1316666666667,161.70286604074334L888.525,157.19502177605264L889.7216666666667,161.5801611680251L890.9183333333333,151.36584707406854L892.115,155.7423208676852L892.7133333333334,147.6413729007428L893.3116666666666,163.36458118145285L893.9100000000001,183.06495248354403L895.1066666666666,161.39922347435586L896.9016666666668,135.54038473275995L897.5,191.5717970774724L898.6966666666667,138.1951774450449L899.295,168.85545092362625L899.8933333333334,181.82854491013748L901.0899999999999,179.47566164456882L903.4833333333333,169.11853848970858L904.68,166.84156586573675L905.2783333333333,160.80164381173944L906.475,168.07866668701172L907.0733333333334,152.5994816560012L908.8683333333333,156.09449078486517L909.4666666666666,150.47779655456543L912.4583333333333,174.10125754429748L913.0566666666667,144.19315800300015L913.655,180.09057250389688L914.2533333333334,147.0136369558481L915.4499999999999,172.8482120220478L916.6466666666666,164.51398614736706L917.245,152.04453673729532L917.8433333333334,202.12372288337124L918.4416666666666,136.56015234727127L919.04,180.58139199476977L919.6383333333333,181.3924920008733L921.4333333333334,165.39475756425125L923.2283333333334,167.44815775064325L924.4250000000001,173.08114330585187L925.6216666666666,154.16067585578335L926.22,153.46049550863415L926.8183333333333,159.05777879861688L927.4166666666667,163.58884686690112L928.015,149.12873620253345L930.4083333333334,157.06157156137323L932.8016666666666,143.98206402705267L933.9983333333333,170.43952230306775L934.5966666666667,175.56851665790265L936.3916666666667,159.9825714551486L936.99,186.91074503385104L937.5883333333334,165.76425867814285L939.3833333333333,150.96965591724103L941.1783333333333,131.85819867941052L941.7766666666668,154.1873658987192L942.375,153.05667862525357L943.5716666666667,156.23903296544006L944.17,194.59955714299127L944.7683333333334,149.98316420041598L946.5633333333334,159.25223482572116L947.76,168.7299730594342L948.3583333333333,159.43005290398233L948.9566666666667,179.52314912355868L949.555,133.12580240689792L950.1533333333333,171.86934603177585L950.7516666666667,174.58583780435418L951.9483333333334,164.32264973567084L952.5466666666666,163.42835998535156L954.3416666666666,190.51216771052435L957.3333333333333,170.71959444192743L964.5133333333333,151.53673267364502L965.1116666666667,155.86849197974576L965.71,151.635173870967L966.3083333333334,185.14920220008267L968.7016666666666,158.49139529008133L970.4966666666666,170.18579358320972L971.095,153.74611363044156L972.2916666666667,151.92980421506442L972.89,141.7612444804265L973.4883333333332,148.51521183894232L974.0866666666667,179.13839655656082L975.2833333333334,200.11885004777176L976.48,154.52185799525336L977.0783333333334,150.25977009993335L977.6766666666666,174.8343671651987L978.8733333333333,176.83334739391623L979.4716666666667,152.52287776653586L980.07,156.3333146755512L981.2666666666667,148.453512778649L982.4633333333334,166.52232522230884L986.0533333333333,166.87796137883117L987.25,159.57840794783374L990.2416666666667,145.48745177342346L990.8399999999999,172.61216112283563L993.2333333333333,178.03405270209683L996.225,173.0835696733915L996.8233333333334,145.12280339461108L999.2166666666666,145.12141689887417L1001.61,159.01549067864053L1003.405,155.8775042020358L1005.1999999999999,149.9200786443857L1005.7983333333334,165.31295431577243L1006.3966666666666,139.71997613173266L1008.1916666666666,181.58001554929294L1008.79,143.94740163362948L1010.585,144.83025279411905L1011.7816666666666,150.7824789927556L1012.38,183.50481825608475L1012.9783333333334,163.7808765264658L1017.1666666666667,168.48144369858963L1017.765,172.50262795961825L1018.3633333333332,190.42239211155817L1018.9616666666667,178.1421993695773L1020.1583333333334,148.89337855118973L1020.7566666666667,136.00139456528885L1021.355,170.82704786153943L1021.9533333333334,162.70322271493768L1022.5516666666666,169.65095285268933L1023.15,148.995285987854L1023.7483333333333,121.56762731992282L1024.3466666666668,157.36001476874722L1024.945,147.7800224744357L1026.74,166.3049920155452L1027.9366666666667,165.05610598050632L1030.9283333333333,169.06307866023138L1031.5266666666666,160.39366744114807L1032.125,146.58659626887396L1033.3216666666667,149.56097624852111L1037.51,149.31314013554504L1038.7066666666667,144.01048718965976L1041.6983333333335,142.89643786503723L1042.2966666666666,138.85202980041507L1044.69,161.43284599597638L1045.8866666666668,181.44517883887661L1046.485,152.57105849339416L1047.6816666666666,152.81542836702792L1048.28,145.2444683955266L1049.4766666666667,166.84017936999982L1050.075,156.2009043326745L1053.665,161.53648655231183L1054.2633333333333,162.76942788637606L1054.8616666666667,163.25192840282736L1057.8533333333335,166.46339915348938L1058.4516666666666,146.9876401607807L1063.8366666666666,167.6817822823158L1064.435,173.27733245262735L1066.23,143.4614348778358L1066.8283333333334,153.42409999553976L1067.4266666666665,186.19981934474066L1068.6233333333332,145.31552630204422L1069.82,152.2570172089797L1071.0166666666667,186.06775562579816L1072.8116666666667,156.87959399590127L1073.41,159.70527230776278L1074.6066666666666,160.20683714059686L1075.205,158.6442564450778L1076.4016666666666,148.32318217937765L1077.5983333333334,167.95873480576736L1078.1966666666667,183.99702424269458L1079.3933333333334,189.5852953103873L1079.9916666666666,162.68693139002875L1082.385,175.3626220409687L1082.9833333333333,189.00296710087702L1084.18,159.62589542682355L1084.7783333333332,143.60875004988452L1085.3766666666668,181.17619866591235L1085.975,155.83209646665134L1087.1716666666666,145.95088797349197L1087.77,166.91505013979403L1088.3683333333333,157.10697929675763L1088.9666666666667,177.6385547931378L1091.36,157.2393896396344L1092.5566666666666,150.45977210998535L1093.155,186.89202734140252L1093.7533333333333,174.28670134911172L1094.95,160.62486560528097L1096.1466666666665,148.84797081580533L1097.3433333333332,190.7641633107112L1098.54,178.49090304741495L1099.1383333333333,165.174997989948L1099.7366666666667,170.28700777200555L1100.9333333333334,160.83457308549148L1101.5316666666668,187.39151243063122L1102.1299999999999,156.06537437438965L1102.7283333333335,203.3812745167659L1103.3266666666666,153.97141918769253L1103.925,161.92817159799432L1105.1216666666667,147.8188443550697L1105.72,165.4970116248498L1107.515,179.48987322587234L1108.1133333333332,158.72987255683316L1109.31,138.47940907111538L1109.9083333333333,152.51490541604852L1111.7033333333334,158.50526024745062L1112.3016666666665,144.17617343022278L1112.9,156.88444673098056L1113.4983333333332,132.7829913359422L1114.0966666666668,160.82382774353027L1115.2933333333333,169.64887310908392L1117.6866666666667,156.87196826934814L1118.8833333333334,156.71772061861483L1119.4816666666666,176.12276832874005L1120.08,158.16730191157416L1121.875,173.03608219440167L1122.4733333333334,145.5848530989427L1123.67,159.5735552127545L1126.0633333333333,175.15360780862665L1126.6616666666666,169.8838841364934L1127.26,162.13961219787598L1127.8583333333333,155.42342684819153L1129.055,164.9191895264846L1131.4483333333335,159.73785495758057L1132.0466666666666,138.1587819319505L1133.2433333333333,170.81907551105206L1133.8416666666667,155.8962218944843L1134.44,172.34664718921368L1135.0383333333334,152.14852391756503L1136.235,162.81726198930008L1138.03,157.149267416734L1138.6283333333333,187.3162950369028L1139.2266666666667,170.51335320105923L1139.825,164.91156379993146L1140.4233333333334,175.674930205712L1142.2183333333332,154.40712547302246L1142.8166666666666,190.95757946601285L1145.21,179.16993933457596L1145.8083333333334,134.64089562342718L1147.0049999999999,157.73852810492886L1147.6033333333335,165.73722201127273L1148.2016666666666,164.02836601550763L1150.595,165.94623624361483L1152.39,150.4247630926279L1153.5866666666666,138.35115821544943L1155.3816666666667,160.65814150296725L1155.98,173.9126941240751L1156.5783333333334,154.6521885945247L1157.1766666666665,153.38042537982648L1157.775,161.27651860163763L1158.9716666666668,173.85550117492676L1159.57,172.1459519312932L1160.1683333333333,164.05609593024624L1161.9633333333334,179.60460574810324L1162.5616666666667,171.35148987403286L1163.7583333333334,144.7505292892456L1164.3566666666666,175.5283082815317L1164.955,145.29230249845065L1166.75,169.89497610238885L1167.9466666666667,151.611256819505L1168.545,159.1451280300434L1169.1433333333334,142.50995217836825L1169.7416666666666,162.44221489246075L1173.93,159.70423243596008L1174.5283333333332,158.5437355041504L1176.3233333333335,183.2424239378709L1179.315,147.4032422579252L1181.7083333333333,133.20829890324524L1182.905,177.50163833911603L1184.1016666666667,137.42081957597L1185.2983333333334,176.7362926923312L1185.8966666666665,143.6191487679115L1186.4950000000001,161.68726796370288L1187.0933333333332,148.41330440227804L1189.4866666666667,171.50192466148965L1190.085,190.63209959176874L1190.6833333333334,142.45414572495682L1191.8799999999999,167.3812593313364L1192.4783333333335,152.3946269108699L1193.0766666666666,173.42464762467606L1195.47,151.10761224306552L1196.6666666666667,157.27231891338644L1197.8633333333332,175.5151365720309L1199.06,194.55622915121228L1199.6583333333333,177.3830929536086L1200.855,149.88714937063367L1203.2483333333332,165.18539670797497L1204.445,183.54537325638992L1205.0433333333333,141.12206994570224L1206.8383333333334,133.0256280899048L1208.6333333333334,161.55971035590542L1211.0266666666666,160.277201799246L1212.2233333333334,184.52805210993841L1212.8216666666667,168.5788450241089L1214.6166666666666,141.54599101726828L1217.01,145.59767818450928L1217.6083333333333,153.1547731986413L1218.2066666666667,148.7866183794462L1218.805,168.9999931042011L1220.6,169.86793943551874L1221.1983333333335,172.0048759900607L1221.7966666666666,167.02631642268256L1222.9933333333333,150.618872495798L1223.5916666666667,181.08850281055157L1224.19,180.19975904318005L1225.3866666666668,157.44632412837103L1225.985,157.91981242253235L1227.78,162.95868455446688L1228.3783333333333,171.20625444558954L1229.575,159.56246324685907L1230.7716666666665,168.8440123337966L1231.3700000000001,175.39347157111538L1231.9683333333332,153.8604995287382L1236.1566666666668,151.2410624577449L1236.7549999999999,160.7638618029081L1237.3533333333335,163.30045575361987L1237.9516666666666,179.07392450479364L1241.5416666666667,155.35236894167392L1242.14,160.91152359889105L1242.7383333333332,163.32298630934497L1243.3366666666666,160.3766828683707L1243.935,193.1399237559392L1245.1316666666667,148.8895656879132L1246.9266666666665,152.14471105428845L1248.7216666666668,157.85707349043628L1251.115,161.753126511207L1251.7133333333334,151.36030109112082L1252.3116666666667,155.4806197973398L1252.91,150.79357095865106L1253.5083333333334,166.64814971043518L1254.705,159.7992073939397L1255.3033333333333,191.1440631426298L1257.6966666666667,166.69979667663574L1259.4916666666666,168.2339542095478L1260.09,145.7470731001634L1261.885,153.77453679304858L1262.4833333333333,172.20661111978387L1263.0816666666667,163.58780699509842L1263.68,163.96805345095126L1264.2783333333332,135.64159892155578L1265.475,163.49664490039532L1266.0733333333335,166.39788722991943L1266.6716666666666,179.11621262476996L1267.27,164.68799136235168L1267.8683333333333,146.10548224815957L1270.2616666666668,182.32802999936618L1270.86,158.43662870847263L1271.4583333333333,147.3346107189472L1273.2533333333333,165.2020346568181L1274.45,167.46895518669717L1275.0483333333334,155.78183599618768L1275.6466666666665,155.77386364570035L1276.8433333333332,181.35678973564737L1277.4416666666666,163.6786224658673L1278.04,173.2984765126155L1279.2366666666667,165.34657683739297L1279.835,180.6278396019569L1281.6299999999999,165.93063816657437L1282.8266666666666,151.40882844191333L1284.0233333333333,159.02415627699634L1284.6216666666667,162.17670095883884L1285.8183333333334,186.89895982008716L1287.6133333333332,163.63494785015402L1288.81,178.7772144170908L1289.4083333333333,155.59361919989956L1290.0066666666667,163.5371999007005L1291.2033333333334,156.4071455735427L1292.4,152.9464522141677L1292.9983333333332,179.90200908367453L1293.5966666666668,146.35019874572754L1295.99,154.59499564537637L1296.5883333333334,151.4005094674918L1297.785,145.34602920825665L1298.9816666666666,145.60253091958856L1301.9733333333334,158.8979851649358L1304.3666666666666,184.761676641611L1304.965,158.02033336345968L1305.5633333333333,175.03644891885614L1306.1616666666666,160.61169389578015L1313.3416666666667,154.65149534665622L1314.5383333333334,153.27262533628024L1315.735,146.0742860940787" style="fill: none;" fill="none"></path></g></g></g></g></g><g><g opacity="0.182038"><span fill="rgb(0, 0, 0)" stroke="none" stroke-width="1px">Alt + Scroll to Zoom</span></g></g></g><g transform="translate(60, 378)" clip-path="url(#clip_1)"><clipPath id="clip_1"><rect width="1436" height="22"></rect></clipPath><g><g><line x1="0" y1="0" x2="0" y2="5" style="visibility: inherit;" fill="rgb(0, 0, 0)" stroke="rgb(204, 204, 204)" stroke-width="1px"></line><line x1="119.66666666666666" y1="0" x2="119.66666666666666" y2="5" style="visibility: inherit;" fill="rgb(0, 0, 0)" stroke="rgb(204, 204, 204)" stroke-width="1px"></line><line x1="239.33333333333331" y1="0" x2="239.33333333333331" y2="5" style="visibility: inherit;" fill="rgb(0, 0, 0)" stroke="rgb(204, 204, 204)" stroke-width="1px"></line><line x1="359" y1="0" x2="359" y2="5" style="visibility: inherit;" fill="rgb(0, 0, 0)" stroke="rgb(204, 204, 204)" stroke-width="1px"></line><line x1="478.66666666666663" y1="0" x2="478.66666666666663" y2="5" style="visibility: inherit;" fill="rgb(0, 0, 0)" stroke="rgb(204, 204, 204)" stroke-width="1px"></line><line x1="598.3333333333334" y1="0" x2="598.3333333333334" y2="5" style="visibility: inherit;" fill="rgb(0, 0, 0)" stroke="rgb(204, 204, 204)" stroke-width="1px"></line><line x1="718" y1="0" x2="718" y2="5" style="visibility: inherit;" fill="rgb(0, 0, 0)" stroke="rgb(204, 204, 204)" stroke-width="1px"></line><line x1="837.6666666666667" y1="0" x2="837.6666666666667" y2="5" style="visibility: inherit;" fill="rgb(0, 0, 0)" stroke="rgb(204, 204, 204)" stroke-width="1px"></line><line x1="957.3333333333333" y1="0" x2="957.3333333333333" y2="5" style="visibility: inherit;" fill="rgb(0, 0, 0)" stroke="rgb(204, 204, 204)" stroke-width="1px"></line><line x1="1077" y1="0" x2="1077" y2="5" style="visibility: inherit;" fill="rgb(0, 0, 0)" stroke="rgb(204, 204, 204)" stroke-width="1px"></line><line x1="1196.6666666666667" y1="0" x2="1196.6666666666667" y2="5" style="visibility: inherit;" fill="rgb(0, 0, 0)" stroke="rgb(204, 204, 204)" stroke-width="1px"></line><line x1="1316.3333333333333" y1="0" x2="1316.3333333333333" y2="5" style="visibility: inherit;" fill="rgb(0, 0, 0)" stroke="rgb(204, 204, 204)" stroke-width="1px"></line><line x1="1436" y1="0" x2="1436" y2="5" style="visibility: inherit;" fill="rgb(0, 0, 0)" stroke="rgb(204, 204, 204)" stroke-width="1px"></line></g><g transform="translate(0, 8)"><text x="0" y="0" dx="0em" dy="0.95em" style="text-anchor: middle; visibility: hidden; font-family: Roboto, sans-serif; font-size: 12px; font-weight: 200;" fill="rgb(50, 49, 63)" stroke="none" stroke-width="1px">-200</text><text x="119.66666666666666" y="0" dx="0em" dy="0.95em" style="text-anchor: middle; visibility: inherit; font-family: Roboto, sans-serif; font-size: 12px; font-weight: 200;" fill="rgb(50, 49, 63)" stroke="none" stroke-width="1px">0</text><text x="239.33333333333331" y="0" dx="0em" dy="0.95em" style="text-anchor: middle; visibility: inherit; font-family: Roboto, sans-serif; font-size: 12px; font-weight: 200;" fill="rgb(50, 49, 63)" stroke="none" stroke-width="1px">200</text><text x="359" y="0" dx="0em" dy="0.95em" style="text-anchor: middle; visibility: inherit; font-family: Roboto, sans-serif; font-size: 12px; font-weight: 200;" fill="rgb(50, 49, 63)" stroke="none" stroke-width="1px">400</text><text x="478.66666666666663" y="0" dx="0em" dy="0.95em" style="text-anchor: middle; visibility: inherit; font-family: Roboto, sans-serif; font-size: 12px; font-weight: 200;" fill="rgb(50, 49, 63)" stroke="none" stroke-width="1px">600</text><text x="598.3333333333334" y="0" dx="0em" dy="0.95em" style="text-anchor: middle; visibility: inherit; font-family: Roboto, sans-serif; font-size: 12px; font-weight: 200;" fill="rgb(50, 49, 63)" stroke="none" stroke-width="1px">800</text><text x="718" y="0" dx="0em" dy="0.95em" style="text-anchor: middle; visibility: inherit; font-family: Roboto, sans-serif; font-size: 12px; font-weight: 200;" fill="rgb(50, 49, 63)" stroke="none" stroke-width="1px">1k</text><text x="837.6666666666667" y="0" dx="0em" dy="0.95em" style="text-anchor: middle; visibility: inherit; font-family: Roboto, sans-serif; font-size: 12px; font-weight: 200;" fill="rgb(50, 49, 63)" stroke="none" stroke-width="1px">1.2k</text><text x="957.3333333333333" y="0" dx="0em" dy="0.95em" style="text-anchor: middle; visibility: inherit; font-family: Roboto, sans-serif; font-size: 12px; font-weight: 200;" fill="rgb(50, 49, 63)" stroke="none" stroke-width="1px">1.4k</text><text x="1077" y="0" dx="0em" dy="0.95em" style="text-anchor: middle; visibility: inherit; font-family: Roboto, sans-serif; font-size: 12px; font-weight: 200;" fill="rgb(50, 49, 63)" stroke="none" stroke-width="1px">1.6k</text><text x="1196.6666666666667" y="0" dx="0em" dy="0.95em" style="text-anchor: middle; visibility: inherit; font-family: Roboto, sans-serif; font-size: 12px; font-weight: 200;" fill="rgb(50, 49, 63)" stroke="none" stroke-width="1px">1.8k</text><text x="1316.3333333333333" y="0" dx="0em" dy="0.95em" style="text-anchor: middle; visibility: inherit; font-family: Roboto, sans-serif; font-size: 12px; font-weight: 200;" fill="rgb(50, 49, 63)" stroke="none" stroke-width="1px">2k</text><text x="1436" y="0" dx="0em" dy="0.95em" style="text-anchor: middle; visibility: hidden; font-family: Roboto, sans-serif; font-size: 12px; font-weight: 200;" fill="rgb(50, 49, 63)" stroke="none" stroke-width="1px">2.2k</text></g><line x1="0" y1="0" x2="1436" y2="0" fill="rgb(0, 0, 0)" stroke="rgb(204, 204, 204)" stroke-width="1px"></line></g></g></g></g></svg>