<svg viewBox="0 0 1496 400" xmlns="http://www.w3.org/2000/svg"><g><g><g><g><g><line x1="51.5625" y1="378" x2="46.5625" y2="378" style="visibility: inherit;" fill="rgb(0, 0, 0)" stroke="rgb(204, 204, 204)" stroke-width="1px"></line><line x1="51.5625" y1="346.5" x2="46.5625" y2="346.5" style="visibility: inherit;" fill="rgb(0, 0, 0)" stroke="rgb(204, 204, 204)" stroke-width="1px"></line><line x1="51.5625" y1="315" x2="46.5625" y2="315" style="visibility: inherit;" fill="rgb(0, 0, 0)" stroke="rgb(204, 204, 204)" stroke-width="1px"></line><line x1="51.5625" y1="283.5" x2="46.5625" y2="283.5" style="visibility: inherit;" fill="rgb(0, 0, 0)" stroke="rgb(204, 204, 204)" stroke-width="1px"></line><line x1="51.5625" y1="252.00000000000003" x2="46.5625" y2="252.00000000000003" style="visibility: inherit;" fill="rgb(0, 0, 0)" stroke="rgb(204, 204, 204)" stroke-width="1px"></line><line x1="51.5625" y1="220.49999999999997" x2="46.5625" y2="220.49999999999997" style="visibility: inherit;" fill="rgb(0, 0, 0)" stroke="rgb(204, 204, 204)" stroke-width="1px"></line><line x1="51.5625" y1="189" x2="46.5625" y2="189" style="visibility: inherit;" fill="rgb(0, 0, 0)" stroke="rgb(204, 204, 204)" stroke-width="1px"></line><line x1="51.5625" y1="157.5" x2="46.5625" y2="157.5" style="visibility: inherit;" fill="rgb(0, 0, 0)" stroke="rgb(204, 204, 204)" stroke-width="1px"></line><line x1="51.5625" y1="126.00000000000001" x2="46.5625" y2="126.00000000000001" style="visibility: inherit;" fill="rgb(0, 0, 0)" stroke="rgb(204, 204, 204)" stroke-width="1px"></line><line x1="51.5625" y1="94.5" x2="46.5625" y2="94.5" style="visibility: inherit;" fill="rgb(0, 0, 0)" stroke="rgb(204, 204, 204)" stroke-width="1px"></line><line x1="51.5625" y1="62.999999999999986" x2="46.5625" y2="62.999999999999986" style="visibility: inherit;" fill="rgb(0, 0, 0)" stroke="rgb(204, 204, 204)" stroke-width="1px"></line><line x1="51.5625" y1="31.500000000000014" x2="46.5625" y2="31.500000000000014" style="visibility: inherit;" fill="rgb(0, 0, 0)" stroke="rgb(204, 204, 204)" stroke-width="1px"></line><line x1="51.5625" y1="0" x2="46.5625" y2="0" style="visibility: inherit;" fill="rgb(0, 0, 0)" stroke="rgb(204, 204, 204)" stroke-width="1px"></line></g><g transform="translate(41.5625, 0)"><text x="0" y="378" dx="0em" dy="0.3em" style="text-anchor: end; visibility: hidden; font-family: Roboto, sans-serif; font-size: 12px; font-weight: 200;" fill="rgb(50, 49, 63)" stroke="none" stroke-width="1px">-0.5</text><text x="0" y="346.5" dx="0em" dy="0.3em" style="text-anchor: end; visibility: inherit; font-family: Roboto, sans-serif; font-size: 12px; font-weight: 200;" fill="rgb(50, 49, 63)" stroke="none" stroke-width="1px">0</text><text x="0" y="315" dx="0em" dy="0.3em" style="text-anchor: end; visibility: inherit; font-family: Roboto, sans-serif; font-size: 12px; font-weight: 200;" fill="rgb(50, 49, 63)" stroke="none" stroke-width="1px">0.5</text><text x="0" y="283.5" dx="0em" dy="0.3em" style="text-anchor: end; visibility: inherit; font-family: Roboto, sans-serif; font-size: 12px; font-weight: 200;" fill="rgb(50, 49, 63)" stroke="none" stroke-width="1px">1</text><text x="0" y="252.00000000000003" dx="0em" dy="0.3em" style="text-anchor: end; visibility: inherit; font-family: Roboto, sans-serif; font-size: 12px; font-weight: 200;" fill="rgb(50, 49, 63)" stroke="none" stroke-width="1px">1.5</text><text x="0" y="220.49999999999997" dx="0em" dy="0.3em" style="text-anchor: end; visibility: inherit; font-family: Roboto, sans-serif; font-size: 12px; font-weight: 200;" fill="rgb(50, 49, 63)" stroke="none" stroke-width="1px">2</text><text x="0" y="189" dx="0em" dy="0.3em" style="text-anchor: end; visibility: inherit; font-family: Roboto, sans-serif; font-size: 12px; font-weight: 200;" fill="rgb(50, 49, 63)" stroke="none" stroke-width="1px">2.5</text><text x="0" y="157.5" dx="0em" dy="0.3em" style="text-anchor: end; visibility: inherit; font-family: Roboto, sans-serif; font-size: 12px; font-weight: 200;" fill="rgb(50, 49, 63)" stroke="none" stroke-width="1px">3</text><text x="0" y="126.00000000000001" dx="0em" dy="0.3em" style="text-anchor: end; visibility: inherit; font-family: Roboto, sans-serif; font-size: 12px; font-weight: 200;" fill="rgb(50, 49, 63)" stroke="none" stroke-width="1px">3.5</text><text x="0" y="94.5" dx="0em" dy="0.3em" style="text-anchor: end; visibility: inherit; font-family: Roboto, sans-serif; font-size: 12px; font-weight: 200;" fill="rgb(50, 49, 63)" stroke="none" stroke-width="1px">4</text><text x="0" y="62.999999999999986" dx="0em" dy="0.3em" style="text-anchor: end; visibility: inherit; font-family: Roboto, sans-serif; font-size: 12px; font-weight: 200;" fill="rgb(50, 49, 63)" stroke="none" stroke-width="1px">4.5</text><text x="0" y="31.500000000000014" dx="0em" dy="0.3em" style="text-anchor: end; visibility: inherit; font-family: Roboto, sans-serif; font-size: 12px; font-weight: 200;" fill="rgb(50, 49, 63)" stroke="none" stroke-width="1px">5</text><text x="0" y="0" dx="0em" dy="0.3em" style="text-anchor: end; visibility: hidden; font-family: Roboto, sans-serif; font-size: 12px; font-weight: 200;" fill="rgb(50, 49, 63)" stroke="none" stroke-width="1px">5.5</text></g><line x1="51.5625" y1="0" x2="51.5625" y2="378" fill="rgb(0, 0, 0)" stroke="rgb(204, 204, 204)" stroke-width="1px"></line></g></g><g transform="translate(51, 0)" clip-path="url(#clip_0)"><clipPath id="clip_0"><rect width="1444" height="378"></rect></clipPath><g><g><g><line x1="0" y1="0" x2="0" y2="378" fill="rgb(0, 0, 0)" stroke="rgb(60, 60, 60)" stroke-width="1px" opacity="0.25"></line><line x1="120.36979166666666" y1="0" x2="120.36979166666666" y2="378" fill="rgb(0, 0, 0)" stroke="rgb(60, 60, 60)" stroke-width="1px" opacity="0.25"></line><line x1="240.73958333333331" y1="0" x2="240.73958333333331" y2="378" fill="rgb(0, 0, 0)" stroke="rgb(60, 60, 60)" stroke-width="1px" opacity="0.25"></line><line x1="361.109375" y1="0" x2="361.109375" y2="378" fill="rgb(0, 0, 0)" stroke="rgb(60, 60, 60)" stroke-width="1px" opacity="0.25"></line><line x1="481.47916666666663" y1="0" x2="481.47916666666663" y2="378" fill="rgb(0, 0, 0)" stroke="rgb(60, 60, 60)" stroke-width="1px" opacity="0.25"></line><line x1="601.8489583333334" y1="0" x2="601.8489583333334" y2="378" fill="rgb(0, 0, 0)" stroke="rgb(60, 60, 60)" stroke-width="1px" opacity="0.25"></line><line x1="722.21875" y1="0" x2="722.21875" y2="378" fill="rgb(0, 0, 0)" stroke="rgb(60, 60, 60)" stroke-width="1px" opacity="0.25"></line><line x1="842.5885416666667" y1="0" x2="842.5885416666667" y2="378" fill="rgb(0, 0, 0)" stroke="rgb(60, 60, 60)" stroke-width="1px" opacity="0.25"></line><line x1="962.9583333333333" y1="0" x2="962.9583333333333" y2="378" fill="rgb(0, 0, 0)" stroke="rgb(60, 60, 60)" stroke-width="1px" opacity="0.25"></line><line x1="1083.328125" y1="0" x2="1083.328125" y2="378" fill="rgb(0, 0, 0)" stroke="rgb(60, 60, 60)" stroke-width="1px" opacity="0.25"></line><line x1="1203.6979166666667" y1="0" x2="1203.6979166666667" y2="378" fill="rgb(0, 0, 0)" stroke="rgb(60, 60, 60)" stroke-width="1px" opacity="0.25"></line><line x1="1324.0677083333333" y1="0" x2="1324.0677083333333" y2="378" fill="rgb(0, 0, 0)" stroke="rgb(60, 60, 60)" stroke-width="1px" opacity="0.25"></line><line x1="1444.4375" y1="0" x2="1444.4375" y2="378" fill="rgb(0, 0, 0)" stroke="rgb(60, 60, 60)" stroke-width="1px" opacity="0.25"></line></g><g><line x1="0" y1="378" x2="1444.4375" y2="378" fill="rgb(0, 0, 0)" stroke="rgb(60, 60, 60)" stroke-width="1px" opacity="0.25"></line><line x1="0" y1="346.5" x2="1444.4375" y2="346.5" fill="rgb(0, 0, 0)" stroke="rgb(60, 60, 60)" stroke-width="1px" opacity="0.25"></line><line x1="0" y1="315" x2="1444.4375" y2="315" fill="rgb(0, 0, 0)" stroke="rgb(60, 60, 60)" stroke-width="1px" opacity="0.25"></line><line x1="0" y1="283.5" x2="1444.4375" y2="283.5" fill="rgb(0, 0, 0)" stroke="rgb(60, 60, 60)" stroke-width="1px" opacity="0.25"></line><line x1="0" y1="252.00000000000003" x2="1444.4375" y2="252.00000000000003" fill="rgb(0, 0, 0)" stroke="rgb(60, 60, 60)" stroke-width="1px" opacity="0.25"></line><line x1="0" y1="220.49999999999997" x2="1444.4375" y2="220.49999999999997" fill="rgb(0, 0, 0)" stroke="rgb(60, 60, 60)" stroke-width="1px" opacity="0.25"></line><line x1="0" y1="189" x2="1444.4375" y2="189" fill="rgb(0, 0, 0)" stroke="rgb(60, 60, 60)" stroke-width="1px" opacity="0.25"></line><line x1="0" y1="157.5" x2="1444.4375" y2="157.5" fill="rgb(0, 0, 0)" stroke="rgb(60, 60, 60)" stroke-width="1px" opacity="0.25"></line><line x1="0" y1="126.00000000000001" x2="1444.4375" y2="126.00000000000001" fill="rgb(0, 0, 0)" stroke="rgb(60, 60, 60)" stroke-width="1px" opacity="0.25"></line><line x1="0" y1="94.5" x2="1444.4375" y2="94.5" fill="rgb(0, 0, 0)" stroke="rgb(60, 60, 60)" stroke-width="1px" opacity="0.25"></line><line x1="0" y1="62.999999999999986" x2="1444.4375" y2="62.999999999999986" fill="rgb(0, 0, 0)" stroke="rgb(60, 60, 60)" stroke-width="1px" opacity="0.25"></line><line x1="0" y1="31.500000000000014" x2="1444.4375" y2="31.500000000000014" fill="rgb(0, 0, 0)" stroke="rgb(60, 60, 60)" stroke-width="1px" opacity="0.25"></line><line x1="0" y1="0" x2="1444.4375" y2="0" fill="rgb(0, 0, 0)" stroke="rgb(60, 60, 60)" stroke-width="1px" opacity="0.25"></line></g></g></g><g><g><line x1="0" y1="346.5" x2="1444.4375" y2="346.5" fill="rgb(0, 0, 0)" stroke="rgb(153, 153, 153)" stroke-width="1.5px"></line></g></g><g><g><line x1="120.36979166666666" y1="0" x2="120.36979166666666" y2="378" fill="rgb(0, 0, 0)" stroke="rgb(153, 153, 153)" stroke-width="1.5px"></line></g></g><g><g><g><g><g><path stroke="rgb(204, 51, 17)" stroke-width="2px" d="M123.37903645833333,134.4575800895691L123.98088541666667,150.20879673957825L126.38828124999999,185.53286290168762L126.99013020833334,172.32160592079163L128.19382812499998,190.42792654037473L128.79567708333335,206.73600840568542L129.39752604166668,240.82382297515866L130.60122395833335,199.3617124557495L131.20307291666666,103.55451965332033L131.804921875,263.21521496772766L132.40677083333333,212.43233370780948L134.81416666666667,218.1393835544586L140.23080729166665,170.31031823158264L140.83265625,262.746684551239L142.03635416666665,251.53381276130673L143.84190104166666,277.5564544200897L144.44375,221.64169836044314L145.64744791666666,237.41875004768372L146.85114583333333,231.03210353851318L147.45299479166667,253.33814978599545L148.65669270833334,220.69400310516357L149.86039062499998,261.3984410762787L150.46223958333334,273.8549244403839L152.26778645833335,261.9632670879364L152.86963541666668,251.23384094238278L153.471484375,272.3256103992462L154.07333333333335,266.90420293807983L154.67518229166666,272.7281563282013L156.48072916666666,283.30733370780945L157.082578125,225.50466728210446L158.28627604166667,288.94649147987366L159.48997395833334,211.8126533031464L160.09182291666667,285.7554738521576L160.693671875,263.4815261363983L161.29552083333334,273.1385579109192L163.10106770833332,260.20256423950195L163.70291666666665,279.8531291484833L164.30476562500002,256.1647582054138L164.90661458333332,281.37523341178894L166.11031250000002,260.10946798324585L167.915859375,259.6268484592438L170.92510416666667,267.82594299316406L171.526953125,259.6945903301239L172.12880208333334,276.5031659603119L172.73065104166668,268.8923292160034L173.33249999999998,227.36219143867493L173.93434895833335,247.77950119972226L176.94359375,253.2173709869385L181.75838541666664,274.6244330406189L183.56393229166665,287.8430199623108L184.16578125,297.43755197525024L188.37872395833332,260.30163860321045L190.18427083333333,297.3099989891052L191.38796875,294.1237277984619L191.9898177083333,307.47943568229675L192.59166666666667,276.4737710952759L194.9990625,288.75875186920166L195.60091145833331,292.7405319213867L196.20276041666668,271.38300704956055L198.00830729166668,301.9505124092102L198.61015625000002,279.8898389339447L200.41570312500002,272.5089190006256L202.82309895833333,290.90130257606506L204.02679687499997,278.43909645080566L205.23049479166667,304.0592222213745L205.83234374999998,254.571742773056L206.43419270833334,286.59858226776123L207.03604166666668,263.89484167099L209.4434375,289.84481477737427L210.64713541666669,279.640771150589L212.4526822916667,260.6081292629242L213.05453125,275.1791503429413L213.65638020833333,280.9176378250122L214.860078125,292.300555229187L215.46192708333334,278.8724191188812L216.06377604166667,290.137291431427L217.86932291666668,278.36771965026855L219.07302083333335,269.9752678871155L219.67486979166665,290.0420472621918L220.87856770833335,286.1529278755188L221.48041666666666,301.03867077827454L223.28596354166666,283.40631794929504L226.29520833333333,317.65823006629944L226.89705729166664,285.40165400505066L227.49890625,297.03321862220764L228.70260416666665,283.25141286849976L229.304453125,291.7172691822052L230.50815104166665,286.8169033527374L231.71184895833335,307.9950249195099L232.31369791666665,306.5947208404541L232.91554687500002,301.6632628440857L233.51739583333332,303.6601459980011L234.72109375,288.80563044548035L235.32294270833333,295.48174953460693L239.53588541666667,285.78329157829285L241.94328125,285.8054165840149L244.35067708333332,285.3487823009491L244.95252604166666,287.01466155052185L245.55437500000002,282.582555770874L247.96177083333333,296.0042781829834L249.76731770833334,298.7464871406555L251.57286458333334,296.0712389945984L252.17471354166668,312.2660071849823L253.98026041666668,293.5440466403961L254.582109375,308.67098665237427L255.78580729166669,310.7480936050415L256.38765624999996,304.52865386009216L256.98950520833336,292.21103382110596L258.19320312499997,296.36913800239563L258.79505208333336,300.07128381729126L259.99875,300.986234664917L260.60059895833336,299.55114340782166L261.2024479166667,291.29405522346497L263.0079947916667,295.16071915626526L264.81354166666665,316.58054852485657L267.8227864583333,303.600545167923L269.026484375,291.9779176712036L270.23018229166667,295.5527358055115L270.83203125,295.4569208621979L273.8412760416667,297.9807937145233L275.6468229166667,305.1899256706238L276.248671875,316.3026866912842L276.85052083333335,298.66259837150574L277.4523697916667,303.4932396411896L278.6560677083333,302.16806745529175L281.06346354166664,310.72876238822937L282.2671614583333,289.52019453048706L283.47085937500003,304.9914765357971L284.67455729166664,298.84306812286377L287.6838020833333,305.96161222457886L288.8875,302.1630356311798L291.2948958333333,311.09440326690674L294.304140625,291.2515025138855L295.5078385416667,313.68155694007874L296.1096875,301.2861313819885L297.915234375,317.7169597148895L299.1189322916667,301.3653337955475L299.72078124999996,302.14589738845825L300.32263020833335,300.88747572898865L301.52632812499996,309.5948295593262L302.12817708333336,305.6828942298889L302.7300260416667,296.172025680542L305.137421875,310.81137442588806L305.73927083333336,300.71468138694763L306.94296875,302.6033878326416L308.748515625,314.0073788166046L311.1559114583333,316.2816581726074L311.75776041666666,304.9581913948059L312.359609375,303.6559703350067L312.9614583333333,314.5122585296631L314.16515625,313.4728639125824L315.970703125,302.612099647522L316.57255208333333,309.4162223339081L317.17440104166667,304.721079826355L318.9799479166667,309.54281401634216L319.581796875,307.1912097930908L320.7854947916667,299.14392614364624L324.3965885416667,310.3930571079254L325.6002864583333,314.6071722507477L327.4058333333333,309.656938791275L328.00768229166664,314.11710262298584L329.2113802083333,310.67359256744385L329.81322916666664,310.3030400276184L332.8224739583333,317.6955256462097L333.42432291666665,308.2715048789978L334.6280208333333,307.19433403015137L335.83171875,316.9814422130585L336.4335677083333,296.44628262519836L337.03541666666666,310.09063696861267L338.84096354166667,308.1339933872223L339.4428125,307.23335695266724L341.248359375,311.62013125419617L341.85020833333334,303.2722749710083L343.05390625,312.0526728630066L343.65575520833335,322.39496397972107L344.85945312499996,307.66056632995605L347.26684895833336,293.4674277305603L347.8686979166667,324.0098490715027L348.47054687499997,302.0135078430176L349.6742447916667,311.5127806663513L350.27609375,314.82514786720276L352.081640625,317.7353446483612L352.6834895833333,287.3079643249512L353.2853385416667,321.9532299041748L353.8871875,318.80790424346924L355.09088541666665,302.64177989959717L355.692734375,312.65997648239136L356.2945833333333,309.84059286117554L356.89643229166666,310.2137289047241L362.31307291666667,306.1038250923157L362.91492187499995,312.4759018421173L364.1186197916667,311.2378177642822L365.9241666666667,311.12507486343384L370.13710937499997,313.9077036380768L370.7389583333333,323.94111585617065L373.1463541666667,318.55619287490845L373.748203125,305.0121896266937L374.3500520833333,310.43972539901733L375.55375000000004,312.75361347198486L376.75744791666665,311.0571377277374L379.16484375,312.5174481868744L384.581484375,311.86903381347656L385.18333333333334,314.90684366226196L385.7851822916667,307.4907910823822L386.38703125,309.3251988887787L387.5907291666666,313.1483938694L388.192578125,308.0245249271393L389.998125,311.194153547287L391.80367187499996,322.53556966781616L396.01661458333336,300.5933618545532L396.6184635416667,315.6761119365692L397.22031250000003,325.62632632255554L397.8221614583333,314.9861812591553L399.025859375,309.92066645622253L399.6277083333333,304.54332876205444L400.2295572916667,308.71433544158936L401.4332552083333,319.5249617099762L402.03510416666666,320.66814708709717L402.636953125,316.50583720207214L403.8406510416667,305.359836101532L405.04434895833333,318.5357801914215L405.64619791666667,313.3353374004364L408.05359374999995,321.47167682647705L412.2665364583333,310.8263347148895L414.07208333333335,310.7228593826294L414.6739322916667,313.0901298522949L415.8776302083333,304.19009470939636L417.081328125,315.6951127052307L418.886875,306.5130400657654L425.50721354166666,315.55033135414124L427.31276041666666,314.204731464386L427.914609375,309.19548296928406L428.5164583333334,320.91619348526L429.72015625,322.3336057662964L430.9238541666667,314.7384202480316L431.525703125,308.7182557582855L432.7294010416666,316.96020340919495L435.73864583333335,313.72344875335693L436.34049479166663,321.8738622665405L439.95158854166664,320.6174383163452L441.15528645833336,306.2517306804657L441.7571354166667,318.44127202033997L442.35898437500003,317.11916399002075L442.9608333333333,307.55614471435547L443.56268229166665,309.16345953941345L444.16453125,315.23581981658936L444.7663802083333,317.4802837371826L445.3682291666667,322.03806495666504L445.97007812500004,319.4990816116333L446.5719270833333,314.63803911209106L447.775625,324.702152967453L449.58117187500005,318.53872418403625L450.18302083333333,315.30964493751526L450.78486979166667,308.67716002464294L451.98856770833333,321.9059908390045L454.3959635416667,323.2467541694641L455.59966145833334,316.56809663772583L456.80335937499996,316.71890115737915L459.21075520833335,318.2166724205017L459.8126041666667,321.6846957206726L460.41445312499997,316.20645117759705L461.61815104166664,317.9016501903534L462.82184895833336,317.3653028011322L464.025546875,311.3191981315613L465.22924479166664,320.000611782074L465.83109375000004,319.25792956352234L467.636640625,309.8876516819L468.84033854166665,307.5476882457733L469.4421875,313.7395055294037L470.0440364583334,321.3322126865387L470.64588541666666,318.85515832901L471.247734375,308.4722821712494L471.8495833333333,321.84218430519104L473.05328125,309.3622691631317L473.6551302083334,306.8886995315552L476.664375,310.14956188201904L477.26622395833334,308.3798167705536L478.469921875,317.80017256736755L479.07177083333335,315.68926978111267L479.6736197916667,319.317019701004L481.47916666666663,323.88647174835205L482.68286458333336,318.5003020763397L483.8865625,322.72793555259705L485.09026041666664,320.6553797721863L486.29395833333336,313.30091071128845L487.49765625000003,321.23753929138184L488.0995052083333,305.2700443267822L488.70135416666665,327.2946238517761L490.5069010416667,311.38076663017273L492.914296875,321.7611794471741L493.5161458333333,317.92114663124084L494.71984375000005,309.1226942539215L495.32169270833333,322.5134596824646L496.525390625,322.9078645706177L498.9327864583333,317.59098386764526L501.94203124999996,323.9868679046631L506.1549739583333,320.5645215511322L506.75682291666664,312.0864837169647L507.96052083333336,309.7577254772186L508.5623697916667,320.7182400226593L509.16421875,323.74597120285034L509.7660677083333,310.0278217792511L510.36791666666664,320.77823138237L510.96976562500004,324.742422580719L512.1734635416666,320.73537826538086L512.7753124999999,321.6876697540283L515.1827083333334,317.73765778541565L515.7845572916666,310.7782995700836L516.9882552083333,319.23032212257385L518.191953125,316.1682243347168L519.9975,325.1922376155853L521.2011979166667,324.304518699646L521.8030468750001,294.8757677078247L522.4048958333334,312.639053106308L524.2104427083333,320.2601788043976L524.8122916666666,317.037978887558L525.4141406250001,317.52459383010864L526.0159895833334,323.1487011909485L526.6178385416666,301.2343261241913L527.8215364583333,322.37895226478577L528.4233854166666,317.89344906806946L529.0252343750001,325.3084352016449L530.2289322916666,328.11775517463684L530.83078125,306.91379857063293L531.4326302083333,325.07060265541077L532.0344791666666,316.92038440704346L532.636328125,316.71508598327637L533.2381770833333,327.5743181705475L534.441875,317.86106514930725L535.0437239583333,318.6070818901062L536.8492708333333,324.50793957710266L539.2566666666667,319.39970684051514L541.0622135416667,316.29223251342773L541.6640625,312.94605445861816L542.2659114583333,313.909325838089L543.469609375,323.3204290866852L544.0714583333333,323.3809311389923L544.6733072916667,321.6402804851532L545.27515625,305.5999517440796L546.4788541666667,320.5217134952545L547.080703125,310.2077057361603L547.6825520833333,323.60529041290283L550.0899479166667,312.6481704711914L552.49734375,323.300256729126L553.0991927083334,327.917188167572L554.3028906249999,318.985445022583L554.9047395833334,312.03027749061584L555.5065885416667,310.3135542869568L556.1084375,316.1000168323517L556.7102864583334,323.25992703437805L557.3121354166666,328.75141954421997L559.1176822916667,322.39126896858215L559.71953125,316.9824335575104L563.330625,323.7685618400574L564.5343229166666,320.5314917564392L565.136171875,322.3718476295471L565.7380208333333,326.81047224998474L566.3398697916667,322.08473324775696L567.5435677083334,323.16412711143494L569.3491145833333,324.57853531837463L569.9509635416666,326.9237859249115L571.7565104166666,317.45219564437866L572.358359375,310.54368138313293L572.9602083333333,326.76577162742615L574.1639062500001,314.75974917411804L575.3676041666666,318.2628450393677L577.1731510416666,320.68345284461975L577.775,311.4183175563812L578.9786979166666,326.11381244659424L580.7842447916667,312.540429353714L581.38609375,319.8515646457672L581.9879427083333,317.3876531124115L583.191640625,320.37817883491516L583.7934895833333,321.9288969039917L584.3953385416667,318.3441653251648L585.5990364583333,316.9091341495514L586.2008854166667,320.03989005088806L586.802734375,317.07584524154663L589.8119791666667,330.27983236312866L592.219375,321.39577889442444L592.8212239583333,328.0378317832947L594.024921875,322.7569098472595L595.2286197916667,304.26085567474365L596.4323177083334,312.8201837539673L597.0341666666667,325.67799639701843L597.636015625,316.2681248188019L598.2378645833334,319.792955160141L598.8397135416667,321.44579672813416L599.4415624999999,316.3196897506714L600.6452604166667,312.4796869754791L601.8489583333334,323.8076148033142L603.0526562499999,318.8801522254944L604.858203125,315.73029041290283L606.0619010416666,313.4294099807739L606.6637499999999,323.87418508529663L607.2655989583333,318.14208126068115L609.6729947916666,322.3192763328552L610.8766927083333,329.6355185508728L611.4785416666667,313.5312931537628L612.6822395833334,328.64189100265503L614.4877864583333,316.00669527053833L615.6914843750001,314.8152344226837L616.2933333333334,325.6563971042633L616.8951822916666,314.73984718322754L618.7007291666666,330.2721118927002L620.5062760416666,319.9545593261719L621.108125,330.11716175079346L622.3118229166666,320.39366483688354L623.5155208333333,315.43088936805725L624.71921875,328.81333351135254L627.7284635416667,320.6101384162903L628.9321614583333,323.16230964660645L629.5340104166667,319.4124290943146L630.135859375,322.28986644744873L630.7377083333333,316.8575692176819L632.5432552083333,328.2378730773926L636.1543489583333,323.79076194763184L637.358046875,320.12637734413147L637.9598958333333,325.62378787994385L638.5617447916667,318.604994058609L639.16359375,319.83435130119324L639.7654427083334,315.56308364868164L642.1728385416667,325.8254814147949L643.3765364583334,328.07404589653015L643.9783854166667,327.4293866157532L645.7839322916667,322.6938543319702L646.38578125,328.25643825531006L646.9876302083334,320.3436770439148L647.5894791666666,321.15013575553894L648.1913281249999,322.5679385662079L649.3950260416667,326.7042782306671L649.996875,300.579062461853L650.5987239583334,321.14559960365295L651.2005729166666,314.8858151435852L652.4042708333333,319.82756209373474L654.2098177083334,329.6304717063904L655.413515625,321.52514934539795L656.0153645833333,324.4721910953522L657.2190625000001,322.87668228149414L657.8209114583334,318.66494035720825L659.6264583333333,324.406777381897L660.2283072916666,319.1310524940491L661.4320052083334,321.96566677093506L662.0338541666666,325.36241841316223L666.246796875,327.957022190094L666.8486458333333,331.0978116989136L667.4504947916666,322.2570469379425L668.05234375,321.24350237846375L668.6541927083333,324.7779908180237L669.2560416666666,323.63902616500854L669.857890625,323.71140933036804L671.0615885416667,327.71722197532654L671.6634375,313.52375292778015L672.2652864583333,325.14707136154175L674.0708333333333,311.9725091457367L674.6726822916667,324.68991136550903L675.27453125,325.5355131626129L675.8763802083333,321.8185122013092L677.080078125,318.9931354522705L680.691171875,314.34990334510803L681.2930208333333,322.0943763256073L681.8948697916667,331.8047904968262L683.0985677083333,321.352730512619L685.5059635416667,319.3967628479004L687.3115104166667,325.8171000480652L689.1170572916667,315.37342143058777L691.524453125,321.74030113220215L693.3299999999999,325.2994079589844L693.9318489583334,319.3592720031738L694.5336979166667,322.7048192024231L695.7373958333334,319.9836537837982L696.3392447916666,325.6460781097412L696.9410937499999,330.1208117008209L698.746640625,319.53253197669983L699.3484895833334,328.0923707485199L700.5521875,318.0237658023834L701.7558854166667,322.14834451675415L702.3577343750001,323.1554753780365L703.5614322916666,320.68471455574036L704.7651302083333,325.51873540878296L705.3669791666666,321.3344807624817L706.5706770833334,319.33626079559326L707.774375,326.3215591907501L708.3762239583333,327.00099062919617L708.9780729166666,322.98924493789673L709.5799218750001,319.46865034103394L711.38546875,330.392635345459L711.9873177083333,307.1723291873932L712.5891666666666,329.1166398525238L714.3947135416666,324.46776008605957L714.9965625,329.42293524742126L719.8113541666667,320.6570770740509L721.6169010416667,328.60841059684753L722.21875,327.2605576515198L723.4224479166667,312.04265427589417L724.6261458333333,322.7514274120331L725.2279947916667,315.0137286186218L727.0335416666666,326.26888275146484L727.635390625,326.12546825408936L728.8390885416667,322.38494539260864L729.4409375,326.1912274360657L730.0427864583332,312.8990406990051L730.6446354166667,312.7736656665802L732.4501822916667,325.2591984272003L737.2649739583333,324.2558526992798L737.8668229166667,328.62541365623474L738.4686718749999,322.2227704524994L739.6723697916667,324.09023809432983L740.8760677083334,325.59834337234497L741.4779166666666,323.1891059875488L742.079765625,320.98004508018494L743.2834635416666,324.8607680797577L744.4871614583333,320.5359077453613L745.0890104166667,315.6015958786011L745.690859375,328.26531529426575L747.49640625,321.21209478378296L748.0982552083334,323.44430208206177L748.7001041666666,328.2593672275543L751.7093489583333,315.56119108200073L752.913046875,327.6751048564911L753.5148958333333,325.1972393989563L754.71859375,327.6865203380585L755.3204427083334,327.5836007595062L756.5241406250001,320.12903594970703L760.135234375,325.326429605484L760.7370833333333,323.0390374660492L761.94078125,316.1190025806427L763.1444791666667,312.92009925842285L765.551875,324.39756989479065L766.7555729166668,320.60345435142517L767.9592708333332,326.1057164669037L769.16296875,325.6111407279968L770.3666666666667,329.8951756954193L771.5703645833333,323.2632465362549L772.1722135416666,318.78319573402405L772.7740625,321.64158725738525L773.3759114583333,321.8960773944855L773.9777604166667,323.28471064567566L776.38515625,328.25283336639404L777.5888541666667,325.9177665710449L778.1907031249999,325.1909008026123L781.801796875,328.3622417449951L783.0054947916667,317.16186690330505L784.2091927083334,318.4131238460541L784.8110416666667,326.54943323135376L785.4128906249999,323.65159821510315L789.023984375,321.6047873497009L790.82953125,326.36088252067566L792.0332291666667,322.97093510627747L793.8387760416666,328.4632387161255L795.6443229166666,324.6997046470642L796.2461718750001,327.612740278244L797.4498697916667,323.33827328681946L798.05171875,325.6072654724121L798.6535677083333,327.43123412132263L799.2554166666666,322.34629797935486L800.4591145833334,326.47726035118103L801.0609635416666,326.10437965393066L802.2646614583333,321.5677170753479L802.8665104166666,330.14150977134705L803.468359375,329.62363743782043L805.27390625,323.3782124519348L805.8757552083333,329.7079017162323L807.079453125,325.75435996055603L811.8942447916668,320.5113945007324L812.49609375,326.91624569892883L813.0979427083332,322.9227948188782L813.6997916666667,330.45618653297424L815.5053385416667,320.0264768600464L816.1071874999999,324.31977939605713L816.7090364583333,320.755610704422L818.5145833333333,324.91715455055237L819.1164322916667,324.0483613014221L819.71828125,326.4520561695099L821.523828125,324.56991362571716L828.7460156249999,323.46187591552734L830.5515624999999,319.2443811893463L831.7552604166666,327.82652521133423L832.357109375,327.90801072120667L833.5608072916666,325.0155379772186L834.16265625,330.2453455924988L835.968203125,329.2650411128998L837.77375,319.42471575737L838.3755989583334,324.69468784332275L838.9774479166666,323.3272182941437L839.5792968750001,326.01283049583435L840.1811458333333,327.0320677757263L840.7829947916666,319.7502522468567L841.3848437500001,329.2629232406616L841.9866927083333,331.4208097457886L843.190390625,327.98293232917786L844.3940885416666,317.14873909950256L844.9959375,320.38179874420166L846.1996354166666,320.35157775878906L847.4033333333333,326.81599974632263L848.60703125,327.89293026924133L849.2088802083333,325.75969219207764L849.8107291666668,327.8755066394806L850.412578125,322.6963326931L851.0144270833333,325.67173290252686L851.6162760416667,331.7029073238373L854.0236718750001,327.1546790599823L857.0329166666668,314.64718651771545L857.634765625,324.91317415237427L858.8384635416667,327.96148324012756L859.4403125,325.19512152671814L861.8477083333333,321.76917028427124L862.4495572916666,324.059761762619L863.05140625,321.21798276901245L864.2551041666667,319.44745659828186L866.0606510416667,325.2198600769043L867.8661979166667,327.784197807312L869.0698958333334,324.05654740333557L870.27359375,328.0811355113983L870.8754427083334,325.5034897327423L872.079140625,312.66341614723206L872.6809895833333,324.9575893878937L874.4865364583334,324.16485929489136L875.0883854166667,329.0645492076874L875.6902343749999,316.6596007347107L876.8939322916666,317.1590430736542L877.49578125,327.27269411087036L878.0976302083333,331.15439343452454L879.301328125,327.79747581481934L879.9031770833333,316.27157950401306L880.5050260416667,324.216304063797L881.106875,323.44777178764343L881.7087239583334,325.3132116794586L882.3105729166667,328.8350830078125L885.3198177083333,319.8473289012909L885.9216666666666,321.2305097579956L887.1253645833333,319.87286353111267L889.5327604166666,323.1295051574707L890.134609375,331.4257814884186L891.3383072916666,329.49977946281433L893.745703125,323.3294413089752L894.9494010416668,323.364453792572L896.1530989583333,330.639630317688L897.356796875,318.3192615509033L897.9586458333334,329.3371539115906L898.5604947916667,327.8845338821411L899.1623437500001,321.23597717285156L900.3660416666667,328.0772452354431L902.1715885416668,326.8754053115845L902.7734375,323.6178774833679L903.9771354166667,323.8259847164154L904.578984375,326.56039810180664L905.1808333333333,324.845988035202L906.3845312499999,322.65891695022583L908.7919270833333,323.77818989753723L909.995625,328.2365212440491L910.5974739583332,325.51990699768066L911.801171875,328.29625725746155L912.4030208333334,326.09635877609253L914.2085677083334,325.6646583080292L914.8104166666666,323.53678250312805L917.8196614583333,328.3346493244171L918.4215104166667,325.28722643852234L919.0233593749999,321.7949752807617L919.6252083333334,327.67513489723206L920.8289062499999,332.62966418266296L922.0326041666666,320.09869480133057L922.634453125,329.72657203674316L923.2363020833333,323.0920293331146L923.8381510416666,324.8846654891968L924.44,324.13565969467163L925.0418489583333,330.0349552631378L926.8473958333334,320.6424171924591L928.6529427083334,325.02449011802673L929.8566406250001,323.92834854125977L931.0603385416666,327.64982557296753L931.6621875000001,325.1637740135193L932.2640364583333,322.17514085769653L932.8658854166667,323.80423521995544L933.467734375,328.79795265197754L935.8751302083334,325.85594272613525L938.2825260416666,329.37628197669983L939.4862239583333,323.4278998374939L940.0880729166668,327.5126745700836L941.8936197916667,330.23170709609985L942.49546875,333.5096626281738L943.0973177083334,327.82458758354187L944.9028645833333,325.6134238243103L946.7084114583333,329.4313917160034L947.3102604166668,324.2094397544861L947.912109375,329.4225296974182L949.1158072916667,328.6500771045685L949.71765625,332.50598645210266L950.3195052083333,324.1045825481415L952.1250520833333,313.6751582622528L953.32875,327.34896755218506L953.9305989583333,323.9196367263794L954.5324479166667,328.60666823387146L955.134296875,328.495787858963L955.7361458333332,331.1842088699341L956.3379947916667,329.1828045845032L957.5416927083334,323.1013870239258L958.1435416666667,326.20082545280457L959.9490885416666,327.0534267425537L962.9583333333333,323.50133442878723L970.1805208333333,328.19093441963196L970.7823697916667,323.8943724632263L971.38421875,318.49142503738403L971.9860677083334,326.75872707366943L974.3934635416666,326.4788224697113L976.1990104166666,329.9500150680542L976.8008593750001,332.54473900794983L978.0045572916667,326.7326817512512L978.60640625,325.62724256515503L979.2082552083333,321.5799436569214L979.8101041666666,318.57881355285645L981.0138020833334,330.2904818058014L982.2175000000001,315.0944330692291L982.8193489583333,326.6071865558624L983.4211979166666,325.5211536884308L984.6248958333333,324.07520270347595L985.2267447916668,316.54056429862976L985.82859375,329.8711280822754L987.0322916666667,328.0019030570984L988.2359895833334,330.21668672561646L991.8470833333333,328.0234272480011L993.05078125,330.1831612586975L996.0600260416667,327.3375370502472L996.6618749999999,323.9463880062103L999.0692708333333,328.97040152549744L1002.078515625,325.102055311203L1002.6803645833334,325.9625723361969L1005.0877604166666,328.0242233276367L1007.49515625,327.9367446899414L1009.3007031249999,323.4391350746155L1011.1062499999999,333.61403918266296L1011.7080989583334,323.45217275619507L1012.3099479166666,328.6262848377228L1014.1154947916666,324.03637504577637L1014.71734375,328.99565076828003L1016.522890625,330.68724489212036L1017.7265885416667,322.36169385910034L1018.3284375,320.206435918808L1018.9302864583334,330.80748295783997L1023.1432291666667,319.5697524547577L1023.745078125,317.1807475090027L1024.3469270833332,322.99256443977356L1024.9487760416666,323.3101851940155L1026.1524739583333,321.472638130188L1026.7543229166668,329.0102505683899L1027.356171875,328.3345592021942L1027.9580208333334,329.5191557407379L1028.5598697916666,329.57782530784607L1029.16171875,326.8740234375L1029.7635677083333,328.41985988616943L1030.3654166666668,325.01217341423035L1030.967265625,325.8185119628906L1032.7728124999999,326.86142134666443L1033.9765104166665,320.39330434799194L1036.9857552083333,329.82382893562317L1037.5876041666668,325.25536823272705L1038.189453125,327.85021233558655L1039.3931510416667,330.04616045951843L1043.6060937500001,319.76348519325256L1044.8097916666668,323.8056471347809L1047.8190364583334,324.6301603317261L1048.4208854166666,321.38281631469727L1050.8282812500001,329.0231831073761L1052.0319791666668,324.9463241100311L1052.633828125,323.21848583221436L1053.8375260416667,324.2489733695984L1054.439375,326.322580575943L1055.6430729166666,330.26337003707886L1056.244921875,328.7601914405823L1059.856015625,331.5690007209778L1060.4578645833333,326.95223450660706L1061.0597135416667,330.9869763851166L1064.0689583333333,329.72865986824036L1064.6708072916667,327.40353655815125L1070.0874479166666,324.52884793281555L1070.6892968749999,325.31941509246826L1072.49484375,329.5430381298065L1073.0966927083334,326.10449981689453L1073.6985416666666,322.1237561702728L1074.9022395833333,320.23866963386536L1076.1059375,324.35638403892517L1077.3096354166667,322.91432332992554L1079.1151822916665,325.68206691741943L1079.71703125,325.7276237010956L1080.9207291666667,328.18859124183655L1081.522578125,333.3213973045349L1082.7262760416668,323.41788125038147L1083.9299739583332,313.14394783973694L1084.5318229166667,327.81123447418213L1085.7355208333333,327.95760798454285L1086.3373697916666,326.0438325405121L1088.7447656250001,329.05807542800903L1089.3466145833333,325.1822040081024L1090.5503125,325.17284631729126L1091.1521614583332,320.59795689582825L1091.7540104166667,330.19480204582214L1092.355859375,327.25857496261597L1093.5595572916666,323.89986991882324L1094.16140625,326.78992438316345L1094.7632552083332,327.3954555988312L1095.3651041666667,327.8386917114258L1097.7725,324.94513750076294L1098.9761979166667,328.94977855682373L1099.578046875,314.19490814208984L1100.1798958333334,328.12298226356506L1101.38359375,325.08173274993896L1102.5872916666667,321.3104031085968L1103.7909895833334,322.76330852508545L1104.9946875,329.83043789863586L1105.5965364583333,330.11555457115173L1106.1983854166667,329.33873105049133L1107.4020833333334,327.3105003833771L1108.0039322916666,329.9913511276245L1108.6057812499998,324.6398034095764L1109.2076302083333,316.2944405078888L1109.8094791666667,332.0137388706207L1110.411328125,326.2726378440857L1111.6150260416666,322.9765076637268L1112.216875,323.89414715766907L1114.022421875,332.0364646911621L1114.6242708333332,332.91972255706787L1115.8279687499999,329.43092608451843L1116.4298177083333,328.2731258869171L1118.2353645833334,323.58707070350647L1118.8372135416666,322.8295633792877L1119.4390625,324.6948981285095L1120.0409114583333,329.16574144363403L1120.6427604166668,326.27383947372437L1121.8464583333332,323.28298330307007L1124.2538541666665,331.6421048641205L1125.4575520833334,329.9776225090027L1126.0594010416667,326.9895601272583L1126.66125,329.1111123561859L1128.466796875,318.4284145832062L1129.0686458333332,327.2292251586914L1130.27234375,324.2116177082062L1132.6797395833335,325.02120065689087L1133.2815885416667,329.8525629043579L1133.8834375000001,322.4582598209381L1134.4852864583333,332.6411998271942L1135.688984375,317.7796847820282L1138.0963802083334,328.44192481040955L1138.6982291666666,327.343590259552L1139.9019270833332,327.10269355773926L1140.5037760416667,324.93391728401184L1141.1056250000001,329.97810316085815L1141.7074739583334,318.8138222694397L1142.911171875,323.40867376327515L1144.71671875,325.53195333480835L1145.3185677083334,330.3096477985382L1145.9204166666666,326.6311740875244L1146.522265625,332.94489669799805L1147.1241145833333,329.91594886779785L1148.9296614583334,325.9053747653961L1149.5315104166666,330.6172800064087L1151.93890625,321.77948927879333L1152.5407552083334,332.6906168460846L1153.7444531249998,326.884402513504L1154.3463020833333,331.1380362510681L1154.9481510416667,330.02215790748596L1157.355546875,327.1199519634247L1159.16109375,328.77775025367737L1160.3647916666666,327.98909068107605L1162.1703385416668,324.80586862564087L1162.7721875,326.1933603286743L1163.3740364583334,328.9589560031891L1163.9758854166666,328.1848361492157L1164.577734375,332.5521740913391L1165.7814322916668,326.8300588130951L1166.38328125,322.68559312820435L1166.9851302083332,327.2435095310211L1168.7906770833333,322.3302712440491L1169.3925260416665,329.1875059604645L1170.5962239583334,330.2549135684967L1171.1980729166667,330.91363191604614L1171.799921875,329.96246695518494L1173.60546875,327.35348868370056L1174.8091666666667,330.27630257606506L1175.411015625,325.8200740814209L1176.0128645833333,327.5197341442108L1176.6147135416666,324.5037188529968L1180.82765625,327.37375116348267L1181.4295052083332,326.0832459926605L1183.2350520833334,335.482798576355L1186.2442968750001,331.189270734787L1188.6516927083333,330.166428565979L1189.855390625,325.3920986652374L1191.0590885416666,322.7432863712311L1192.2627864583333,324.5645513534546L1192.8646354166667,320.0508699417114L1193.4664843750002,326.763623714447L1194.0683333333334,330.1619975566864L1196.4757291666667,326.93550181388855L1197.077578125,328.43005871772766L1197.6794270833334,326.2306408882141L1198.8831249999998,324.17022156715393L1199.4849739583333,330.42452359199524L1200.0868229166667,331.60930037498474L1202.49421875,330.345095872879L1203.6979166666667,334.3034291267395L1204.9016145833332,327.6608955860138L1206.1053124999999,330.7511866092682L1206.7071614583333,324.4037733078003L1207.910859375,320.51678681373596L1210.3182552083333,329.77989435195923L1211.521953125,328.11294865608215L1212.1238020833332,332.62931871414185L1213.9293489583333,324.65851879119873L1215.7348958333334,327.7702589035034L1218.1422916666668,330.2660286426544L1219.3459895833332,330.68219804763794L1219.9478385416667,327.6201603412628L1221.7533854166666,327.48832654953003L1224.1607812500001,325.1467709541321L1224.7626302083333,325.4493112564087L1225.3644791666668,327.3928270339966L1225.966328125,329.5497672557831L1227.771875,330.01512837409973L1228.3737239583334,326.3151304721832L1228.9755729166666,332.77488112449646L1230.1792708333332,329.69635105133057L1230.7811197916667,326.50455236434937L1231.3829687500001,318.88416266441345L1232.5866666666668,324.612601518631L1233.188515625,329.7783622741699L1234.9940625,324.0358192920685L1235.5959114583334,331.0587737560272L1236.799609375,331.7878625392914L1238.0033072916667,329.970577955246L1238.6051562500002,320.235800743103L1239.2070052083334,327.6914620399475L1243.4199479166666,330.0705535411835L1244.0217968749998,328.28703474998474L1244.6236458333333,331.3635220527649L1245.2254947916667,330.28373765945435L1248.8365885416667,327.9528315067291L1249.4384375,331.290162563324L1250.0402864583332,324.8022336959839L1250.6421354166666,330.09320425987244L1251.2439843749999,328.4909963607788L1252.4476822916668,316.75942611694336L1254.2532291666666,324.8604226112366L1256.0587760416668,330.66950583457947L1258.4661718749999,328.39641308784485L1259.0680208333333,328.62449741363525L1259.6698697916665,331.8851194381714L1260.27171875,322.16841173171997L1260.8735677083334,322.71823239326477L1262.077265625,329.5598759651184L1262.6791145833333,327.2971022129059L1265.0865104166667,333.0344331264496L1266.8920572916666,328.9194223880768L1267.49390625,326.8857092857361L1269.2994531250001,331.11403369903564L1269.9013020833333,331.37405133247375L1270.5031510416668,314.60675168037415L1271.105,328.9684338569641L1271.7068489583332,330.927766084671L1272.910546875,322.92419171333313L1273.5123958333334,328.03461742401123L1274.1142447916666,322.0307650566101L1274.71609375,324.180570602417L1275.3179427083332,329.63039660453796L1277.7253385416668,323.56228709220886L1278.3271875,321.9932141304016L1278.9290364583333,326.4139795303345L1280.7345833333334,323.98363852500916L1281.93828125,330.39484333992004L1282.5401302083333,324.69324588775635L1283.1419791666667,332.73826146125793L1284.3456770833334,327.48712491989136L1284.9475260416666,329.7767701148987L1285.549375,329.93786358833313L1286.7530729166667,330.94998121261597L1287.354921875,326.9738337993622L1289.1604687499998,322.86362957954407L1290.3641666666667,327.9896764755249L1291.5678645833334,334.51284313201904L1292.1697135416666,325.5214240550995L1293.3734114583333,328.99990153312683L1295.1789583333332,314.998197555542L1296.3826562499999,328.66930317878723L1296.9845052083333,322.8110282421112L1297.5863541666668,331.6600692272186L1298.7900520833334,327.1763234138489L1299.99375,317.5559113025665L1300.5955989583333,328.4961633682251L1301.1974479166668,330.2042348384857L1303.6048437499999,332.4975299835205L1304.2066927083333,332.56931233406067L1305.410390625,331.06949830055237L1306.6140885416667,331.9604015350342L1309.6233333333332,334.46088767051697L1312.0307291666666,327.15391302108765L1312.632578125,324.44978070259094L1313.2344270833335,332.15809965133667L1313.8362760416667,328.14018058776855L1321.0584635416667,331.2578237056732L1322.2621614583334,331.32871985435486L1323.465859375,324.32716941833496" style="fill: none;" fill="none"></path></g></g></g></g></g></g><g transform="translate(51, 378)" clip-path="url(#clip_1)"><clipPath id="clip_1"><rect width="1444" height="22"></rect></clipPath><g><g><line x1="0" y1="0" x2="0" y2="5" style="visibility: inherit;" fill="rgb(0, 0, 0)" stroke="rgb(204, 204, 204)" stroke-width="1px"></line><line x1="120.36979166666666" y1="0" x2="120.36979166666666" y2="5" style="visibility: inherit;" fill="rgb(0, 0, 0)" stroke="rgb(204, 204, 204)" stroke-width="1px"></line><line x1="240.73958333333331" y1="0" x2="240.73958333333331" y2="5" style="visibility: inherit;" fill="rgb(0, 0, 0)" stroke="rgb(204, 204, 204)" stroke-width="1px"></line><line x1="361.109375" y1="0" x2="361.109375" y2="5" style="visibility: inherit;" fill="rgb(0, 0, 0)" stroke="rgb(204, 204, 204)" stroke-width="1px"></line><line x1="481.47916666666663" y1="0" x2="481.47916666666663" y2="5" style="visibility: inherit;" fill="rgb(0, 0, 0)" stroke="rgb(204, 204, 204)" stroke-width="1px"></line><line x1="601.8489583333334" y1="0" x2="601.8489583333334" y2="5" style="visibility: inherit;" fill="rgb(0, 0, 0)" stroke="rgb(204, 204, 204)" stroke-width="1px"></line><line x1="722.21875" y1="0" x2="722.21875" y2="5" style="visibility: inherit;" fill="rgb(0, 0, 0)" stroke="rgb(204, 204, 204)" stroke-width="1px"></line><line x1="842.5885416666667" y1="0" x2="842.5885416666667" y2="5" style="visibility: inherit;" fill="rgb(0, 0, 0)" stroke="rgb(204, 204, 204)" stroke-width="1px"></line><line x1="962.9583333333333" y1="0" x2="962.9583333333333" y2="5" style="visibility: inherit;" fill="rgb(0, 0, 0)" stroke="rgb(204, 204, 204)" stroke-width="1px"></line><line x1="1083.328125" y1="0" x2="1083.328125" y2="5" style="visibility: inherit;" fill="rgb(0, 0, 0)" stroke="rgb(204, 204, 204)" stroke-width="1px"></line><line x1="1203.6979166666667" y1="0" x2="1203.6979166666667" y2="5" style="visibility: inherit;" fill="rgb(0, 0, 0)" stroke="rgb(204, 204, 204)" stroke-width="1px"></line><line x1="1324.0677083333333" y1="0" x2="1324.0677083333333" y2="5" style="visibility: inherit;" fill="rgb(0, 0, 0)" stroke="rgb(204, 204, 204)" stroke-width="1px"></line><line x1="1444.4375" y1="0" x2="1444.4375" y2="5" style="visibility: inherit;" fill="rgb(0, 0, 0)" stroke="rgb(204, 204, 204)" stroke-width="1px"></line></g><g transform="translate(0, 8)"><text x="0" y="0" dx="0em" dy="0.95em" style="text-anchor: middle; visibility: hidden; font-family: Roboto, sans-serif; font-size: 12px; font-weight: 200;" fill="rgb(50, 49, 63)" stroke="none" stroke-width="1px">-200</text><text x="120.36979166666666" y="0" dx="0em" dy="0.95em" style="text-anchor: middle; visibility: inherit; font-family: Roboto, sans-serif; font-size: 12px; font-weight: 200;" fill="rgb(50, 49, 63)" stroke="none" stroke-width="1px">0</text><text x="240.73958333333331" y="0" dx="0em" dy="0.95em" style="text-anchor: middle; visibility: inherit; font-family: Roboto, sans-serif; font-size: 12px; font-weight: 200;" fill="rgb(50, 49, 63)" stroke="none" stroke-width="1px">200</text><text x="361.109375" y="0" dx="0em" dy="0.95em" style="text-anchor: middle; visibility: inherit; font-family: Roboto, sans-serif; font-size: 12px; font-weight: 200;" fill="rgb(50, 49, 63)" stroke="none" stroke-width="1px">400</text><text x="481.47916666666663" y="0" dx="0em" dy="0.95em" style="text-anchor: middle; visibility: inherit; font-family: Roboto, sans-serif; font-size: 12px; font-weight: 200;" fill="rgb(50, 49, 63)" stroke="none" stroke-width="1px">600</text><text x="601.8489583333334" y="0" dx="0em" dy="0.95em" style="text-anchor: middle; visibility: inherit; font-family: Roboto, sans-serif; font-size: 12px; font-weight: 200;" fill="rgb(50, 49, 63)" stroke="none" stroke-width="1px">800</text><text x="722.21875" y="0" dx="0em" dy="0.95em" style="text-anchor: middle; visibility: inherit; font-family: Roboto, sans-serif; font-size: 12px; font-weight: 200;" fill="rgb(50, 49, 63)" stroke="none" stroke-width="1px">1k</text><text x="842.5885416666667" y="0" dx="0em" dy="0.95em" style="text-anchor: middle; visibility: inherit; font-family: Roboto, sans-serif; font-size: 12px; font-weight: 200;" fill="rgb(50, 49, 63)" stroke="none" stroke-width="1px">1.2k</text><text x="962.9583333333333" y="0" dx="0em" dy="0.95em" style="text-anchor: middle; visibility: inherit; font-family: Roboto, sans-serif; font-size: 12px; font-weight: 200;" fill="rgb(50, 49, 63)" stroke="none" stroke-width="1px">1.4k</text><text x="1083.328125" y="0" dx="0em" dy="0.95em" style="text-anchor: middle; visibility: inherit; font-family: Roboto, sans-serif; font-size: 12px; font-weight: 200;" fill="rgb(50, 49, 63)" stroke="none" stroke-width="1px">1.6k</text><text x="1203.6979166666667" y="0" dx="0em" dy="0.95em" style="text-anchor: middle; visibility: inherit; font-family: Roboto, sans-serif; font-size: 12px; font-weight: 200;" fill="rgb(50, 49, 63)" stroke="none" stroke-width="1px">1.8k</text><text x="1324.0677083333333" y="0" dx="0em" dy="0.95em" style="text-anchor: middle; visibility: inherit; font-family: Roboto, sans-serif; font-size: 12px; font-weight: 200;" fill="rgb(50, 49, 63)" stroke="none" stroke-width="1px">2k</text><text x="1444.4375" y="0" dx="0em" dy="0.95em" style="text-anchor: middle; visibility: hidden; font-family: Roboto, sans-serif; font-size: 12px; font-weight: 200;" fill="rgb(50, 49, 63)" stroke="none" stroke-width="1px">2.2k</text></g><line x1="0" y1="0" x2="1444.4375" y2="0" fill="rgb(0, 0, 0)" stroke="rgb(204, 204, 204)" stroke-width="1px"></line></g></g></g></g></svg>