<?xml version="1.0" encoding="utf-8" standalone="no"?>
<!DOCTYPE svg PUBLIC "-//W3C//DTD SVG 1.1//EN"
  "http://www.w3.org/Graphics/SVG/1.1/DTD/svg11.dtd">
<!-- Created with matplotlib (https://matplotlib.org/) -->
<svg height="288pt" version="1.1" viewBox="0 0 720 288" width="720pt" xmlns="http://www.w3.org/2000/svg" xmlns:xlink="http://www.w3.org/1999/xlink">
 <defs>
  <style type="text/css">
*{stroke-linecap:butt;stroke-linejoin:round;}
  </style>
 </defs>
 <g id="figure_1">
  <g id="patch_1">
   <path d="M 0 288 
L 720 288 
L 720 0 
L 0 0 
z
" style="fill:#ffffff;"/>
  </g>
  <g id="axes_1">
   <g id="line2d_1">
    <path clip-path="url(#p7be102cbda)" d="M 101.476863 230.398466 
L 96.632983 228.535414 
L 90.40869 226.395962 
L 84.116409 224.480498 
L 78.935539 223.138682 
L 74.874407 222.320664 
L 71.417303 221.846113 
L 68.222994 221.613663 
L 64.82995 221.590671 
L 61.82539 221.76815 
L 58.707849 222.165417 
L 55.773224 222.771101 
L 52.982338 223.610277 
L 50.730255 224.536011 
L 48.557591 225.727154 
L 47.097717 226.778557 
L 45.833593 227.99629 
L 45.050781 229.149341 
L 44.767316 230.090942 
L 44.804747 230.682442 
L 45.057835 231.25681 
L 45.592578 231.81775 
L 46.618405 232.40334 
L 48.463915 232.971841 
L 50.074403 233.25562 
L 52.868581 233.517514 
L 56.595607 233.617441 
L 61.693014 233.517565 
L 70.080768 233.102778 
L 81.377892 232.323303 
L 101.457315 230.715728 
L 101.457315 230.715728 
" style="fill:none;stroke:#000000;stroke-linecap:square;stroke-opacity:0.7;stroke-width:1.2;"/>
   </g>
   <g id="line2d_2">
    <path clip-path="url(#p7be102cbda)" d="M 101.403004 211.182208 
L 96.462995 209.556883 
L 89.235417 207.417984 
L 81.877743 205.479945 
L 76.801335 204.339903 
L 72.354522 203.560139 
L 68.550937 203.115111 
L 65.213807 202.925452 
L 62.109731 202.94159 
L 59.501568 203.119944 
L 56.365435 203.571184 
L 53.687153 204.207721 
L 51.268049 205.036995 
L 49.646503 205.767006 
L 48.002619 206.698878 
L 46.427397 207.864825 
L 45.573041 208.701182 
L 44.778211 209.844435 
L 44.546027 210.511921 
L 44.529133 211.136292 
L 44.779491 211.767928 
L 45.30259 212.305724 
L 46.222055 212.815763 
L 47.834026 213.308209 
L 50.167789 213.683951 
L 53.517011 213.936131 
L 58.103783 214.042612 
L 64.964221 213.983894 
L 74.116301 213.694487 
L 81.659667 213.230317 
L 92.29583 212.315098 
L 101.368771 211.442601 
L 101.368771 211.442601 
" style="fill:none;stroke:#000000;stroke-linecap:square;stroke-opacity:0.7;stroke-width:1.2;"/>
   </g>
   <g id="line2d_3">
    <path clip-path="url(#p7be102cbda)" d="M 101.322329 192.003355 
L 95.383096 190.277711 
L 86.74577 188.006116 
L 79.428298 186.307257 
L 74.25697 185.334883 
L 70.053026 184.781874 
L 66.258661 184.531318 
L 63.09662 184.531662 
L 59.849315 184.751913 
L 56.785574 185.193443 
L 53.936533 185.853773 
L 51.371342 186.721055 
L 49.555669 187.552713 
L 47.904285 188.541456 
L 46.811533 189.389088 
L 45.897052 190.331609 
L 45.317236 191.269475 
L 45.162224 192.059274 
L 45.333489 192.625268 
L 45.555374 192.912935 
L 46.159305 193.352251 
L 47.116006 193.739856 
L 48.50971 194.066692 
L 50.967018 194.364543 
L 53.845706 194.507564 
L 59.634737 194.51359 
L 84.848672 193.996712 
L 90.851685 193.55381 
L 97.150689 192.882617 
L 101.30993 192.306956 
L 101.30993 192.306956 
" style="fill:none;stroke:#000000;stroke-linecap:square;stroke-opacity:0.7;stroke-width:1.2;"/>
   </g>
   <g id="line2d_4">
    <path clip-path="url(#p7be102cbda)" d="M 101.303492 173.431301 
L 95.208681 171.317478 
L 89.987225 169.738789 
L 85.426533 168.564842 
L 80.766903 167.601901 
L 77.252599 167.062292 
L 73.239275 166.661686 
L 69.072283 166.485837 
L 65.393054 166.52162 
L 61.404489 166.762945 
L 57.620966 167.210787 
L 54.077576 167.870735 
L 51.462517 168.554465 
L 49.143395 169.356668 
L 47.209177 170.24528 
L 45.916865 171.05442 
L 45.049618 171.88276 
L 44.738811 172.561609 
L 44.780207 173.000773 
L 45.048877 173.419827 
L 45.407575 173.714315 
L 46.494496 174.227034 
L 48.3457 174.702884 
L 50.837385 175.056835 
L 54.149953 175.294095 
L 59.584709 175.407862 
L 72.697098 175.324214 
L 80.370272 175.153369 
L 87.900285 174.739795 
L 99.35606 173.853342 
L 101.280611 173.675014 
L 101.280611 173.675014 
" style="fill:none;stroke:#000000;stroke-linecap:square;stroke-opacity:0.7;stroke-width:1.2;"/>
   </g>
   <g id="line2d_5">
    <path clip-path="url(#p7be102cbda)" d="M 101.381193 153.485812 
L 93.423886 151.761152 
L 84.135598 149.968815 
L 76.608819 148.722461 
L 70.978453 147.992429 
L 66.165552 147.604339 
L 62.54106 147.528052 
L 59.337397 147.667065 
L 56.481754 147.997619 
L 53.924591 148.50275 
L 51.378818 149.262838 
L 49.877724 149.872227 
L 47.905456 150.943713 
L 46.715688 151.843282 
L 45.79444 152.883134 
L 45.470558 153.625785 
L 45.457884 154.083291 
L 45.709953 154.611768 
L 46.175646 154.992035 
L 46.799524 155.276963 
L 47.728723 155.530306 
L 49.546237 155.784894 
L 52.757576 155.935425 
L 59.985649 155.932688 
L 66.373942 156.015261 
L 80.708729 156.415749 
L 85.628605 156.182398 
L 90.307489 155.736273 
L 95.658822 154.979058 
L 100.645773 154.025892 
L 101.36925 153.864366 
L 101.36925 153.864366 
" style="fill:none;stroke:#000000;stroke-linecap:square;stroke-opacity:0.7;stroke-width:1.2;"/>
   </g>
   <g id="line2d_6">
    <path clip-path="url(#p7be102cbda)" d="M 101.354026 134.435245 
L 88.636109 132.073115 
L 80.270818 130.738929 
L 71.895892 129.636206 
L 66.726368 129.129761 
L 62.398739 128.906155 
L 58.784094 128.932198 
L 55.497596 129.194929 
L 52.879997 129.636465 
L 50.814959 130.194529 
L 49.086805 130.866934 
L 47.603446 131.664855 
L 46.365324 132.584846 
L 45.427905 133.614689 
L 45.128717 134.138338 
L 44.962653 134.803128 
L 45.099676 135.379913 
L 45.363038 135.705026 
L 45.834604 136.020091 
L 46.971781 136.40556 
L 48.287761 136.627412 
L 51.236897 136.832775 
L 56.426883 136.895798 
L 66.880836 137.000405 
L 81.25969 137.395832 
L 85.840331 137.167594 
L 90.569623 136.703121 
L 95.637351 135.971127 
L 100.668582 135.004027 
L 101.316756 134.85998 
L 101.316756 134.85998 
" style="fill:none;stroke:#000000;stroke-linecap:square;stroke-opacity:0.7;stroke-width:1.2;"/>
   </g>
   <g id="line2d_7">
    <path clip-path="url(#p7be102cbda)" d="M 101.416326 115.352549 
L 93.308315 113.783382 
L 86.474669 112.679958 
L 79.939101 111.836764 
L 73.765326 111.258325 
L 67.974129 110.926829 
L 63.067672 110.852978 
L 58.814079 111.021404 
L 55.178645 111.415246 
L 52.363735 111.944225 
L 49.876136 112.646039 
L 48.196794 113.306213 
L 46.89326 113.993746 
L 46.17258 114.502043 
L 45.494117 115.253087 
L 45.36207 115.691992 
L 45.473034 116.06682 
L 45.66274 116.275925 
L 46.132199 116.556786 
L 47.076986 116.855882 
L 49.094611 117.157999 
L 52.406972 117.342854 
L 59.313786 117.420956 
L 66.644409 117.601383 
L 80.633597 118.164874 
L 84.882651 118.020143 
L 89.883779 117.598772 
L 95.078464 116.89497 
L 99.851605 116.00035 
L 101.403688 115.648456 
L 101.403688 115.648456 
" style="fill:none;stroke:#000000;stroke-linecap:square;stroke-opacity:0.7;stroke-width:1.2;"/>
   </g>
   <g id="line2d_8">
    <path clip-path="url(#p7be102cbda)" d="M 101.286618 96.263736 
L 90.122796 94.48969 
L 81.301449 93.314155 
L 72.514628 92.365865 
L 66.399935 91.885518 
L 61.548233 91.732536 
L 57.743013 91.848406 
L 54.794529 92.14238 
L 52.046876 92.635748 
L 49.720873 93.280677 
L 47.710609 94.087819 
L 46.62951 94.681473 
L 45.617538 95.468252 
L 45.155492 96.148115 
L 45.127266 96.588485 
L 45.329386 96.937743 
L 45.700203 97.212115 
L 46.531829 97.530236 
L 47.976102 97.799637 
L 50.514661 97.98674 
L 54.902666 98.040545 
L 63.404554 98.136215 
L 68.174851 98.419727 
L 79.289258 99.236924 
L 83.318402 99.215112 
L 87.388761 98.968464 
L 91.470529 98.511915 
L 96.219704 97.729123 
L 100.774177 96.721631 
L 101.290608 96.591276 
L 101.290608 96.591276 
" style="fill:none;stroke:#000000;stroke-linecap:square;stroke-opacity:0.7;stroke-width:1.2;"/>
   </g>
   <g id="line2d_9">
    <path clip-path="url(#p7be102cbda)" d="M 101.357078 77.754483 
L 92.839203 76.32892 
L 84.100018 75.103325 
L 75.783996 74.14123 
L 69.969433 73.671739 
L 64.513361 73.464271 
L 59.927176 73.495913 
L 55.651611 73.751569 
L 52.172043 74.195589 
L 49.379834 74.78418 
L 47.213999 75.471409 
L 45.950272 76.050094 
L 45.013 76.742583 
L 44.781445 77.2275 
L 44.869184 77.53294 
L 45.054411 77.73531 
L 45.433181 77.971924 
L 46.854828 78.417612 
L 49.331321 78.756332 
L 52.901554 78.912584 
L 58.964323 78.871596 
L 65.277617 78.898295 
L 69.554057 79.142162 
L 81.829932 80.086839 
L 85.969402 80.052528 
L 90.526749 79.774433 
L 95.265106 79.234106 
L 99.29089 78.557315 
L 101.36003 78.106397 
L 101.36003 78.106397 
" style="fill:none;stroke:#000000;stroke-linecap:square;stroke-opacity:0.7;stroke-width:1.2;"/>
   </g>
   <g id="line2d_10">
    <path clip-path="url(#p7be102cbda)" d="M 101.415227 58.279516 
L 93.095312 57.116816 
L 85.305214 56.25414 
L 73.307592 55.198544 
L 63.847867 54.457585 
L 60.054832 54.385169 
L 56.719147 54.512593 
L 53.494989 54.843451 
L 50.416599 55.393344 
L 48.187607 55.981924 
L 46.173766 56.744642 
L 44.947302 57.515716 
L 44.676286 57.93916 
L 44.736562 58.253498 
L 45.013946 58.503632 
L 45.504738 58.722553 
L 47.29468 59.083408 
L 49.872587 59.277733 
L 54.880855 59.33988 
L 62.896419 59.409597 
L 66.731729 59.646949 
L 71.939526 60.234031 
L 78.011519 60.932003 
L 81.740766 61.132804 
L 85.644058 61.101427 
L 88.959735 60.888205 
L 92.916675 60.420874 
L 96.251237 59.846653 
L 100.031699 58.975322 
L 101.416849 58.584786 
L 101.416849 58.584786 
" style="fill:none;stroke:#000000;stroke-linecap:square;stroke-opacity:0.7;stroke-width:1.2;"/>
   </g>
   <g id="line2d_11">
    <path clip-path="url(#p7be102cbda)" d="M 165.165092 230.539762 
L 159.568042 228.141727 
L 154.584936 226.250099 
L 149.921366 224.72727 
L 145.452135 223.522363 
L 141.626541 222.71955 
L 138.036578 222.188243 
L 134.870351 221.917831 
L 131.2503 221.848345 
L 127.816572 222.022609 
L 124.606677 222.402496 
L 121.521276 222.98042 
L 118.275536 223.849474 
L 115.817918 224.729942 
L 113.614853 225.73996 
L 111.797025 226.806328 
L 110.523818 227.769652 
L 109.630203 228.681186 
L 109.227185 229.276596 
L 108.962565 230.117255 
L 109.012766 230.570047 
L 109.24743 231.024755 
L 109.566966 231.354631 
L 110.359454 231.845716 
L 111.797396 232.358682 
L 113.660059 232.750206 
L 116.062362 233.040196 
L 119.749174 233.22806 
L 124.59925 233.199977 
L 130.725614 232.906668 
L 139.903502 232.201428 
L 151.675428 231.309772 
L 159.664078 230.922606 
L 165.09273 230.750289 
L 165.09273 230.750289 
" style="fill:none;stroke:#000000;stroke-linecap:square;stroke-opacity:0.7;stroke-width:1.2;"/>
   </g>
   <g id="line2d_12">
    <path clip-path="url(#p7be102cbda)" d="M 165.228021 210.616189 
L 156.646515 208.209041 
L 149.673193 206.484843 
L 142.575436 204.962155 
L 137.463448 204.062088 
L 133.198067 203.515649 
L 129.426295 203.242628 
L 125.557929 203.212547 
L 122.319433 203.428812 
L 119.896508 203.778147 
L 117.53715 204.327046 
L 115.387425 205.077115 
L 113.724595 205.890302 
L 112.324974 206.801047 
L 111.188086 207.764078 
L 110.192699 208.879098 
L 109.508301 209.971702 
L 109.182469 210.873438 
L 109.131146 211.563256 
L 109.240866 212.029548 
L 109.608023 212.576005 
L 110.238674 213.021279 
L 111.045394 213.341803 
L 112.418315 213.650732 
L 114.711146 213.90212 
L 118.253707 214.03695 
L 124.168578 214.002847 
L 134.334266 213.680296 
L 143.462852 213.208924 
L 151.024782 212.607397 
L 158.833384 211.784157 
L 165.21423 210.928124 
L 165.21423 210.928124 
" style="fill:none;stroke:#000000;stroke-linecap:square;stroke-opacity:0.7;stroke-width:1.2;"/>
   </g>
   <g id="line2d_13">
    <path clip-path="url(#p7be102cbda)" d="M 165.27435 191.825108 
L 157.681569 189.88846 
L 144.044405 186.650957 
L 137.084508 185.167358 
L 132.701763 184.449575 
L 129.968572 184.161757 
L 126.415629 184.023752 
L 123.220973 184.160307 
L 120.530999 184.494489 
L 117.759509 185.087784 
L 115.475746 185.81261 
L 113.790317 186.523672 
L 111.846124 187.59677 
L 110.33109 188.712455 
L 109.261111 189.766442 
L 108.517051 190.837243 
L 108.228157 191.682353 
L 108.26605 192.323177 
L 108.453486 192.715725 
L 108.981556 193.22385 
L 109.708326 193.604644 
L 111.460602 194.094022 
L 114.050198 194.414264 
L 117.044347 194.528605 
L 120.880931 194.48505 
L 151.315229 193.475225 
L 157.887606 192.935205 
L 163.91852 192.220509 
L 165.272732 192.012836 
L 165.272732 192.012836 
" style="fill:none;stroke:#000000;stroke-linecap:square;stroke-opacity:0.7;stroke-width:1.2;"/>
   </g>
   <g id="line2d_14">
    <path clip-path="url(#p7be102cbda)" d="M 165.15048 173.092399 
L 155.435093 171.019286 
L 135.958305 166.97234 
L 131.5164 166.361916 
L 127.948811 166.099636 
L 124.712488 166.066733 
L 121.412764 166.260589 
L 118.530011 166.651813 
L 115.927641 167.227477 
L 113.548532 167.99824 
L 111.496 168.929493 
L 110.493607 169.51647 
L 108.822191 170.864232 
L 108.345699 171.465722 
L 108.02392 172.30256 
L 108.069983 172.735549 
L 108.385656 173.231719 
L 108.80355 173.556708 
L 109.594224 173.936788 
L 111.306715 174.412452 
L 113.510222 174.748062 
L 115.858171 174.935783 
L 120.26104 175.03471 
L 127.25316 174.898052 
L 144.106318 174.528513 
L 154.382317 174.147643 
L 162.262108 173.666608 
L 165.1466 173.3903 
L 165.1466 173.3903 
" style="fill:none;stroke:#000000;stroke-linecap:square;stroke-opacity:0.7;stroke-width:1.2;"/>
   </g>
   <g id="line2d_15">
    <path clip-path="url(#p7be102cbda)" d="M 165.151797 153.746613 
L 158.908538 152.132227 
L 152.467267 150.704238 
L 146.080664 149.533963 
L 140.377414 148.730779 
L 135.765645 148.292903 
L 131.425796 148.094936 
L 127.702528 148.121905 
L 123.99514 148.362589 
L 120.745303 148.783123 
L 117.821767 149.3658 
L 114.904739 150.193599 
L 112.707606 151.041558 
L 110.829614 152.02188 
L 109.74231 152.844301 
L 109.255826 153.497033 
L 109.182031 153.889268 
L 109.358906 154.310467 
L 109.651435 154.575228 
L 110.346458 154.930155 
L 111.807491 155.340631 
L 114.132801 155.685503 
L 117.227976 155.897733 
L 121.582474 155.968455 
L 146.823104 155.780183 
L 152.023321 155.501723 
L 157.842245 154.977167 
L 163.710769 154.223916 
L 165.147059 154.000423 
L 165.147059 154.000423 
" style="fill:none;stroke:#000000;stroke-linecap:square;stroke-opacity:0.7;stroke-width:1.2;"/>
   </g>
   <g id="line2d_16">
    <path clip-path="url(#p7be102cbda)" d="M 165.4179 134.38124 
L 159.651399 133.201547 
L 151.228913 131.715641 
L 144.407854 130.704454 
L 138.308206 129.993768 
L 131.707402 129.458177 
L 126.362333 129.243322 
L 121.735093 129.289062 
L 118.09031 129.547578 
L 114.941491 130.00339 
L 112.361797 130.617576 
L 110.482331 131.277634 
L 108.628292 132.241577 
L 107.596675 133.08369 
L 107.048499 133.916608 
L 106.987203 134.509116 
L 107.208704 134.984074 
L 107.649877 135.370053 
L 108.560228 135.789327 
L 110.319331 136.198787 
L 113.027885 136.47417 
L 117.025259 136.571091 
L 125.177581 136.431021 
L 132.019722 136.418353 
L 145.862136 136.613086 
L 151.26709 136.314281 
L 156.746862 135.797309 
L 162.876493 134.981665 
L 165.407003 134.554655 
L 165.407003 134.554655 
" style="fill:none;stroke:#000000;stroke-linecap:square;stroke-opacity:0.7;stroke-width:1.2;"/>
   </g>
   <g id="line2d_17">
    <path clip-path="url(#p7be102cbda)" d="M 165.020352 115.733197 
L 146.264056 112.883971 
L 133.645583 111.199277 
L 128.391114 110.695384 
L 124.737428 110.541686 
L 121.326999 110.608613 
L 118.550942 110.856588 
L 115.669617 111.354505 
L 113.324075 112.008359 
L 111.282425 112.857709 
L 110.151773 113.522687 
L 109.148631 114.378398 
L 108.68212 115.084635 
L 108.582422 115.674886 
L 108.810815 116.211202 
L 109.181256 116.53766 
L 109.984274 116.907596 
L 111.956416 117.29566 
L 114.382591 117.455694 
L 118.698938 117.48742 
L 129.462924 117.514104 
L 137.254024 117.837777 
L 142.575877 117.979346 
L 148.001417 117.86564 
L 153.584587 117.497007 
L 159.040817 116.930821 
L 164.812204 116.099142 
L 165.013872 116.06408 
L 165.013872 116.06408 
" style="fill:none;stroke:#000000;stroke-linecap:square;stroke-opacity:0.7;stroke-width:1.2;"/>
   </g>
   <g id="line2d_18">
    <path clip-path="url(#p7be102cbda)" d="M 165.197001 96.640641 
L 157.717755 95.320936 
L 149.15252 94.027894 
L 141.021211 93.01851 
L 134.522171 92.442442 
L 129.510759 92.194204 
L 125.07094 92.175734 
L 121.103391 92.380988 
L 117.383123 92.824838 
L 114.81092 93.31725 
L 112.315479 93.997194 
L 110.209311 94.833482 
L 109.010327 95.610096 
L 108.676609 96.088658 
L 108.709497 96.486023 
L 108.917653 96.734492 
L 109.367485 97.008199 
L 110.199987 97.30087 
L 112.269774 97.68627 
L 115.416704 97.940696 
L 119.501854 98.021153 
L 131.715144 98.084557 
L 137.110167 98.462591 
L 143.568964 98.915501 
L 147.45644 98.974737 
L 151.191208 98.843667 
L 155.613582 98.465397 
L 160.499547 97.789351 
L 165.082176 96.910437 
L 165.189389 96.886597 
L 165.189389 96.886597 
" style="fill:none;stroke:#000000;stroke-linecap:square;stroke-opacity:0.7;stroke-width:1.2;"/>
   </g>
   <g id="line2d_19">
    <path clip-path="url(#p7be102cbda)" d="M 165.065217 77.517973 
L 141.095817 74.235146 
L 134.058324 73.578092 
L 128.865582 73.308742 
L 124.430305 73.307312 
L 120.740636 73.523925 
L 117.298399 73.959615 
L 114.399287 74.563729 
L 111.958089 75.327847 
L 110.193694 76.156376 
L 109.443907 76.687444 
L 108.976575 77.261911 
L 108.932448 77.742989 
L 109.188933 78.079691 
L 109.65599 78.333479 
L 110.369176 78.537613 
L 112.063874 78.750535 
L 115.400717 78.833758 
L 128.710163 78.889575 
L 134.805446 79.248978 
L 141.57468 79.671064 
L 146.256834 79.730967 
L 150.665565 79.574225 
L 155.834638 79.156646 
L 161.099611 78.489678 
L 165.016174 77.818485 
L 165.016174 77.818485 
" style="fill:none;stroke:#000000;stroke-linecap:square;stroke-opacity:0.7;stroke-width:1.2;"/>
   </g>
   <g id="line2d_20">
    <path clip-path="url(#p7be102cbda)" d="M 165.250707 58.101734 
L 153.666257 56.69976 
L 145.671255 55.936872 
L 136.775704 55.334087 
L 126.387215 54.82836 
L 121.881268 54.832459 
L 118.299279 55.055852 
L 115.394284 55.445571 
L 112.711458 56.04492 
L 110.730978 56.723624 
L 109.54603 57.332817 
L 108.912185 57.940733 
L 108.899435 58.262492 
L 109.125978 58.493002 
L 109.572737 58.689318 
L 111.278784 59.011037 
L 114.020499 59.221586 
L 119.824986 59.38887 
L 127.625047 59.649499 
L 133.653279 60.115786 
L 141.144083 60.760353 
L 145.062186 60.884574 
L 149.110885 60.79347 
L 153.217966 60.485352 
L 157.234613 59.986891 
L 161.458989 59.244933 
L 165.240221 58.347208 
L 165.240221 58.347208 
" style="fill:none;stroke:#000000;stroke-linecap:square;stroke-opacity:0.7;stroke-width:1.2;"/>
   </g>
   <g id="line2d_21">
    <path clip-path="url(#p7be102cbda)" d="M 228.912824 230.392707 
L 223.18476 228.612826 
L 213.710902 225.91841 
L 206.190961 223.994663 
L 200.953046 222.894928 
L 197.082756 222.294499 
L 193.352721 221.937018 
L 190.329792 221.834997 
L 187.587471 221.913027 
L 184.534708 222.231657 
L 181.987254 222.735597 
L 180.120127 223.286044 
L 177.960316 224.184114 
L 176.426002 225.06234 
L 174.905509 226.24363 
L 173.802683 227.464847 
L 173.640459 227.696389 
L 173.076187 228.795274 
L 172.909986 229.552753 
L 172.959272 230.219366 
L 173.124568 230.655166 
L 173.672578 231.317706 
L 174.067702 231.601851 
L 175.216819 232.124975 
L 176.951553 232.55986 
L 179.064157 232.846074 
L 182.582274 233.049344 
L 186.933023 233.064681 
L 193.316366 232.842987 
L 199.797303 232.415549 
L 218.069296 231.011575 
L 225.916015 230.769531 
L 228.873351 230.715477 
L 228.873351 230.715477 
" style="fill:none;stroke:#000000;stroke-linecap:square;stroke-opacity:0.7;stroke-width:1.2;"/>
   </g>
   <g id="line2d_22">
    <path clip-path="url(#p7be102cbda)" d="M 229.086545 211.17735 
L 225.671623 209.924928 
L 221.322602 208.533085 
L 215.582605 206.937317 
L 210.570813 205.744464 
L 205.807481 204.818989 
L 201.72641 204.239196 
L 197.706863 203.898921 
L 193.826027 203.800795 
L 190.012777 203.931259 
L 186.510363 204.264721 
L 183.129341 204.811158 
L 179.980579 205.565857 
L 177.196956 206.496508 
L 175.140639 207.41592 
L 173.664047 208.282083 
L 172.482513 209.263728 
L 171.971208 210.008372 
L 171.880576 210.292174 
L 171.987932 211.041634 
L 172.407834 211.536553 
L 173.258481 212.055859 
L 174.651964 212.556555 
L 176.450419 212.958971 
L 179.307957 213.329822 
L 182.804414 213.535366 
L 187.439537 213.565523 
L 193.889957 213.351377 
L 203.364023 212.775237 
L 219.906737 211.730372 
L 227.703218 211.485629 
L 229.060955 211.471816 
L 229.060955 211.471816 
" style="fill:none;stroke:#000000;stroke-linecap:square;stroke-opacity:0.7;stroke-width:1.2;"/>
   </g>
   <g id="line2d_23">
    <path clip-path="url(#p7be102cbda)" d="M 229.04597 191.553353 
L 222.408669 189.829327 
L 215.595688 188.288956 
L 208.570723 186.930293 
L 201.059465 185.697602 
L 196.043563 185.067585 
L 192.286632 184.803246 
L 189.128719 184.781667 
L 186.036198 184.985324 
L 183.491326 185.357904 
L 181.098057 185.918144 
L 178.940796 186.643328 
L 177.197334 187.426742 
L 175.14563 188.666855 
L 173.903873 189.687804 
L 172.973502 190.760448 
L 172.540384 191.629258 
L 172.478037 192.256889 
L 172.666637 192.76241 
L 173.111671 193.196471 
L 173.753315 193.523968 
L 174.656876 193.792852 
L 176.444487 194.068749 
L 179.064781 194.22431 
L 183.463488 194.232039 
L 193.515677 193.938407 
L 212.992895 193.251412 
L 221.288175 192.629508 
L 229.034584 191.848423 
L 229.034584 191.848423 
" style="fill:none;stroke:#000000;stroke-linecap:square;stroke-opacity:0.7;stroke-width:1.2;"/>
   </g>
   <g id="line2d_24">
    <path clip-path="url(#p7be102cbda)" d="M 229.005343 173.014368 
L 223.979035 171.632978 
L 217.609853 170.129831 
L 210.981266 168.796758 
L 204.651485 167.75094 
L 198.883598 167.029741 
L 193.903468 166.648374 
L 190.051786 166.570829 
L 186.695841 166.713848 
L 183.568563 167.081595 
L 181.065367 167.590765 
L 178.752138 168.286525 
L 176.920739 169.042815 
L 175.388509 169.872959 
L 174.177219 170.732748 
L 173.234573 171.674028 
L 172.761011 172.563061 
L 172.753071 173.12427 
L 172.974232 173.550308 
L 173.579779 174.024234 
L 174.721294 174.462749 
L 176.274932 174.785461 
L 179.047814 175.074554 
L 182.852389 175.218931 
L 188.87424 175.205742 
L 201.669157 174.908633 
L 210.354389 174.521497 
L 221.841291 173.749444 
L 228.981422 173.256754 
L 228.981422 173.256754 
" style="fill:none;stroke:#000000;stroke-linecap:square;stroke-opacity:0.7;stroke-width:1.2;"/>
   </g>
   <g id="line2d_25">
    <path clip-path="url(#p7be102cbda)" d="M 228.698932 154.128631 
L 222.567214 152.709002 
L 214.269957 151.012132 
L 206.921215 149.730206 
L 200.883538 148.903669 
L 195.370112 148.371744 
L 190.417575 148.105157 
L 186.443626 148.084031 
L 183.000698 148.269031 
L 179.890048 148.686044 
L 177.694233 149.203335 
L 175.98898 149.803856 
L 174.808193 150.376575 
L 173.824554 151.013445 
L 172.659762 152.215825 
L 172.370399 152.914263 
L 172.373875 153.412281 
L 172.5864 153.870762 
L 173.220811 154.409099 
L 174.057416 154.784463 
L 176.107721 155.284878 
L 178.725292 155.621471 
L 182.167121 155.855795 
L 187.230429 155.987892 
L 194.448126 155.940025 
L 204.090394 155.639921 
L 221.152296 154.814016 
L 228.676168 154.392819 
L 228.676168 154.392819 
" style="fill:none;stroke:#000000;stroke-linecap:square;stroke-opacity:0.7;stroke-width:1.2;"/>
   </g>
   <g id="line2d_26">
    <path clip-path="url(#p7be102cbda)" d="M 228.925271 134.701881 
L 217.814446 132.537312 
L 210.004728 131.231524 
L 203.32587 130.328948 
L 197.789476 129.815954 
L 193.154092 129.617569 
L 189.330059 129.648977 
L 185.790449 129.869379 
L 182.577054 130.270697 
L 179.642112 130.860011 
L 177.325683 131.536161 
L 175.732461 132.162375 
L 174.070287 133.063209 
L 173.292277 133.680582 
L 172.783624 134.376944 
L 172.730961 134.889989 
L 173.036608 135.34129 
L 173.446847 135.594478 
L 174.175425 135.851261 
L 175.975437 136.157644 
L 178.981195 136.334413 
L 184.013579 136.349343 
L 196.404405 136.317473 
L 208.242755 136.414461 
L 214.418976 136.166927 
L 221.532344 135.653273 
L 228.910631 134.957787 
L 228.910631 134.957787 
" style="fill:none;stroke:#000000;stroke-linecap:square;stroke-opacity:0.7;stroke-width:1.2;"/>
   </g>
   <g id="line2d_27">
    <path clip-path="url(#p7be102cbda)" d="M 229.007437 115.521316 
L 218.190974 113.83613 
L 208.645462 112.549007 
L 201.327453 111.763611 
L 195.054 111.315205 
L 189.746127 111.146238 
L 185.709187 111.224141 
L 182.521747 111.488422 
L 179.853518 111.908964 
L 177.554719 112.471331 
L 175.413986 113.231948 
L 173.92807 113.981316 
L 172.979019 114.685877 
L 172.560261 115.276305 
L 172.573811 115.729444 
L 172.82785 116.025856 
L 173.487177 116.35672 
L 174.751795 116.665719 
L 177.73413 116.982146 
L 182.513482 117.155303 
L 207.063745 117.51167 
L 213.121231 117.33951 
L 219.662263 116.916565 
L 225.860034 116.287517 
L 229.006944 115.843462 
L 229.006944 115.843462 
" style="fill:none;stroke:#000000;stroke-linecap:square;stroke-opacity:0.7;stroke-width:1.2;"/>
   </g>
   <g id="line2d_28">
    <path clip-path="url(#p7be102cbda)" d="M 228.820391 96.745897 
L 219.253716 95.207521 
L 209.322678 93.831036 
L 201.702667 92.971463 
L 195.470411 92.466833 
L 190.570821 92.273199 
L 186.564459 92.321311 
L 182.922971 92.581698 
L 179.54779 93.053758 
L 176.607264 93.696764 
L 174.373281 94.396886 
L 173.000848 95.000604 
L 172.132713 95.595309 
L 171.87045 96.018833 
L 171.932054 96.327618 
L 172.224906 96.595693 
L 172.903375 96.884835 
L 174.111087 97.158782 
L 176.412392 97.42739 
L 180.768726 97.633638 
L 191.543316 97.792162 
L 212.430433 98.087127 
L 219.10617 97.796432 
L 226.052133 97.264718 
L 228.808598 96.964871 
L 228.808598 96.964871 
" style="fill:none;stroke:#000000;stroke-linecap:square;stroke-opacity:0.7;stroke-width:1.2;"/>
   </g>
   <g id="line2d_29">
    <path clip-path="url(#p7be102cbda)" d="M 228.475786 77.503313 
L 218.84612 76.276765 
L 205.512863 74.785771 
L 193.602831 73.675567 
L 188.78905 73.427218 
L 185.220257 73.443682 
L 181.940606 73.67962 
L 179.416879 74.054625 
L 176.90289 74.660195 
L 175.075708 75.323636 
L 173.974333 75.897069 
L 173.176586 76.561342 
L 172.97341 77.042871 
L 173.099529 77.37086 
L 173.500157 77.656742 
L 174.157458 77.879133 
L 175.369353 78.081392 
L 178.146409 78.238815 
L 185.989468 78.256878 
L 191.776324 78.40502 
L 197.15184 78.780502 
L 205.596767 79.431252 
L 209.995833 79.51061 
L 214.397392 79.370379 
L 218.890451 79.035247 
L 224.802629 78.354827 
L 228.460428 77.81759 
L 228.460428 77.81759 
" style="fill:none;stroke:#000000;stroke-linecap:square;stroke-opacity:0.7;stroke-width:1.2;"/>
   </g>
   <g id="line2d_30">
    <path clip-path="url(#p7be102cbda)" d="M 228.931689 58.174915 
L 222.348686 57.222708 
L 215.154995 56.409285 
L 208.254534 55.849084 
L 200.817061 55.46888 
L 191.247909 55.188679 
L 186.150418 55.257222 
L 182.504258 55.503421 
L 179.07532 55.94486 
L 176.345187 56.496217 
L 174.238323 57.120211 
L 173.122767 57.617311 
L 172.615429 58.068773 
L 172.630399 58.286626 
L 172.923063 58.502529 
L 173.460013 58.66906 
L 174.83585 58.867568 
L 177.548607 59.004196 
L 182.722515 58.996269 
L 191.369099 58.96586 
L 195.878361 59.163005 
L 202.480798 59.728497 
L 207.451731 60.094201 
L 211.925186 60.204604 
L 216.446959 60.074641 
L 220.410413 59.763444 
L 224.741483 59.209664 
L 228.942527 58.436396 
L 228.942527 58.436396 
" style="fill:none;stroke:#000000;stroke-linecap:square;stroke-opacity:0.7;stroke-width:1.2;"/>
   </g>
   <g id="line2d_31">
    <path clip-path="url(#p7be102cbda)" d="M 292.747335 230.227375 
L 288.750118 228.617754 
L 284.762672 227.220475 
L 280.240772 225.853288 
L 275.659511 224.683954 
L 270.982106 223.712452 
L 266.676281 223.027649 
L 262.276485 222.562324 
L 258.729529 222.395639 
L 255.128686 222.45778 
L 252.055824 222.725291 
L 248.965051 223.223891 
L 246.047704 223.940524 
L 243.399556 224.84007 
L 241.230137 225.800485 
L 239.443264 226.803296 
L 238.226492 227.667878 
L 237.310126 228.538161 
L 236.843756 229.238804 
L 236.703708 229.78086 
L 236.784709 230.229015 
L 236.968683 230.528671 
L 237.519654 230.989189 
L 238.454462 231.427726 
L 240.199203 231.914144 
L 242.893306 232.347822 
L 246.340604 232.637205 
L 250.49618 232.749454 
L 255.693466 232.63346 
L 261.517257 232.239031 
L 269.191015 231.440872 
L 276.173403 230.763558 
L 281.765612 230.450549 
L 287.294505 230.372283 
L 292.702179 230.490109 
L 292.702179 230.490109 
" style="fill:none;stroke:#000000;stroke-linecap:square;stroke-opacity:0.7;stroke-width:1.2;"/>
   </g>
   <g id="line2d_32">
    <path clip-path="url(#p7be102cbda)" d="M 292.892718 210.880943 
L 287.519848 209.209248 
L 281.625108 207.602311 
L 275.799109 206.238301 
L 270.482699 205.209712 
L 265.716684 204.498727 
L 261.263579 204.057388 
L 257.451963 203.883745 
L 253.599978 203.929864 
L 250.150711 204.191059 
L 246.866152 204.672512 
L 244.17665 205.277187 
L 241.552795 206.105307 
L 239.826932 206.822557 
L 238.109743 207.734729 
L 236.618607 208.802291 
L 235.688341 209.790988 
L 235.32443 210.476535 
L 235.241172 210.968896 
L 235.401486 211.549138 
L 235.755773 211.961837 
L 236.439849 212.38751 
L 237.409677 212.745259 
L 239.682743 213.204982 
L 242.648891 213.492115 
L 247.013917 213.631843 
L 252.119709 213.56251 
L 258.962629 213.22846 
L 267.388632 212.565364 
L 278.803103 211.659726 
L 286.528958 211.295798 
L 292.865777 211.202926 
L 292.865777 211.202926 
" style="fill:none;stroke:#000000;stroke-linecap:square;stroke-opacity:0.7;stroke-width:1.2;"/>
   </g>
   <g id="line2d_33">
    <path clip-path="url(#p7be102cbda)" d="M 292.851616 191.887564 
L 287.999518 190.444675 
L 282.374692 189.012366 
L 276.959601 187.846579 
L 271.712158 186.909121 
L 266.454082 186.174 
L 261.821671 185.732224 
L 257.570108 185.547398 
L 253.418019 185.619371 
L 249.861532 185.914131 
L 246.734084 186.381538 
L 244.059327 186.965473 
L 241.134912 187.848264 
L 239.241726 188.604566 
L 237.319778 189.623947 
L 237.05816 189.797469 
L 235.804241 191.015764 
L 235.652748 191.455683 
L 235.705116 191.868101 
L 235.907387 192.188161 
L 236.279628 192.502855 
L 237.051387 192.891751 
L 238.262288 193.265527 
L 240.591346 193.679454 
L 243.602413 193.9443 
L 248.100159 194.05467 
L 253.687543 193.943723 
L 263.757192 193.467967 
L 288.165524 192.228051 
L 292.821219 192.130178 
L 292.821219 192.130178 
" style="fill:none;stroke:#000000;stroke-linecap:square;stroke-opacity:0.7;stroke-width:1.2;"/>
   </g>
   <g id="line2d_34">
    <path clip-path="url(#p7be102cbda)" d="M 292.685953 172.788247 
L 285.543135 170.965943 
L 279.06402 169.537798 
L 273.588904 168.550126 
L 268.385981 167.832337 
L 263.063445 167.323807 
L 257.998755 167.044579 
L 253.527441 167.00856 
L 249.950315 167.187742 
L 246.436379 167.623428 
L 243.873107 168.165922 
L 241.483342 168.908586 
L 239.766958 169.640488 
L 238.292078 170.477545 
L 237.193936 171.344167 
L 236.601993 172.060417 
L 236.339165 172.842693 
L 236.46413 173.357407 
L 236.735114 173.69508 
L 237.435645 174.132403 
L 238.508513 174.485769 
L 239.990968 174.756454 
L 243.031347 175.006136 
L 247.541627 175.077409 
L 254.712376 174.918628 
L 268.124127 174.345741 
L 292.635675 173.064602 
L 292.635675 173.064602 
" style="fill:none;stroke:#000000;stroke-linecap:square;stroke-opacity:0.7;stroke-width:1.2;"/>
   </g>
   <g id="line2d_35">
    <path clip-path="url(#p7be102cbda)" d="M 292.72001 153.996283 
L 280.221323 151.299958 
L 272.983246 149.969386 
L 267.320903 149.131429 
L 262.2696 148.597876 
L 257.57479 148.319648 
L 253.387627 148.284021 
L 250.118951 148.429512 
L 246.686641 148.788965 
L 243.749973 149.31255 
L 241.172727 149.993261 
L 239.122384 150.747477 
L 237.829592 151.377084 
L 236.554341 152.238289 
L 235.963312 152.890183 
L 235.766096 153.391169 
L 235.807605 153.775071 
L 236.008699 154.093633 
L 236.446765 154.430775 
L 237.356229 154.808017 
L 239.090086 155.177691 
L 241.595429 155.416121 
L 245.521094 155.489489 
L 250.876678 155.324359 
L 263.138446 154.845665 
L 271.442819 154.875016 
L 279.500572 154.804644 
L 287.353343 154.511319 
L 292.725512 154.16093 
L 292.725512 154.16093 
" style="fill:none;stroke:#000000;stroke-linecap:square;stroke-opacity:0.7;stroke-width:1.2;"/>
   </g>
   <g id="line2d_36">
    <path clip-path="url(#p7be102cbda)" d="M 292.430233 134.790863 
L 285.255513 133.258106 
L 278.635579 132.0452 
L 272.287337 131.097811 
L 266.513723 130.471143 
L 260.82834 130.095097 
L 255.754445 129.962159 
L 251.319661 130.046399 
L 247.584412 130.330858 
L 244.830067 130.726956 
L 242.672621 131.200519 
L 240.517517 131.893263 
L 238.74651 132.752029 
L 237.683473 133.568897 
L 237.259127 134.148977 
L 237.159376 134.722093 
L 237.370869 135.135108 
L 237.916471 135.51009 
L 239.013085 135.849686 
L 240.806149 136.095021 
L 243.718847 136.234401 
L 249.422691 136.228501 
L 280.727284 135.707237 
L 292.165499 135.036917 
L 292.399921 135.021268 
L 292.399921 135.021268 
" style="fill:none;stroke:#000000;stroke-linecap:square;stroke-opacity:0.7;stroke-width:1.2;"/>
   </g>
   <g id="line2d_37">
    <path clip-path="url(#p7be102cbda)" d="M 292.749535 115.830065 
L 283.771607 114.230852 
L 275.329032 112.937218 
L 268.736755 112.127258 
L 263.522677 111.679319 
L 258.141917 111.428521 
L 253.18232 111.389695 
L 249.121442 111.52763 
L 245.116756 111.874775 
L 241.956491 112.358476 
L 238.862388 113.10568 
L 237.147509 113.726576 
L 235.977276 114.373779 
L 235.474696 115.004022 
L 235.514897 115.306772 
L 235.85636 115.648017 
L 236.282941 115.863091 
L 237.498354 116.213895 
L 239.485708 116.512557 
L 242.759232 116.716622 
L 246.949672 116.73687 
L 264.346081 116.559941 
L 276.235412 116.77738 
L 282.893168 116.623661 
L 289.086683 116.285584 
L 292.747079 115.968425 
L 292.747079 115.968425 
" style="fill:none;stroke:#000000;stroke-linecap:square;stroke-opacity:0.7;stroke-width:1.2;"/>
   </g>
   <g id="line2d_38">
    <path clip-path="url(#p7be102cbda)" d="M 292.807435 96.35849 
L 286.118253 95.231352 
L 278.608264 94.218075 
L 271.508481 93.486986 
L 264.594534 93.000314 
L 257.636275 92.735969 
L 252.56418 92.734953 
L 248.529457 92.922558 
L 244.837785 93.307435 
L 241.760881 93.843714 
L 239.415034 94.444129 
L 237.414734 95.191206 
L 236.373138 95.820449 
L 236.019789 96.327446 
L 236.070004 96.593133 
L 236.406948 96.888338 
L 237.147448 97.162914 
L 238.075086 97.346204 
L 240.653208 97.563878 
L 244.036159 97.599049 
L 251.826983 97.382892 
L 258.70038 97.307705 
L 264.31483 97.499444 
L 273.316335 97.86314 
L 278.276533 97.818472 
L 283.879111 97.532703 
L 289.051962 97.067025 
L 292.810299 96.605617 
L 292.810299 96.605617 
" style="fill:none;stroke:#000000;stroke-linecap:square;stroke-opacity:0.7;stroke-width:1.2;"/>
   </g>
   <g id="line2d_39">
    <path clip-path="url(#p7be102cbda)" d="M 292.619708 77.340172 
L 285.813518 76.401654 
L 277.979537 75.547322 
L 261.59854 74.083068 
L 255.361812 73.635057 
L 251.605446 73.575359 
L 248.624753 73.700691 
L 245.198324 74.069773 
L 242.069287 74.651813 
L 239.461248 75.372645 
L 237.86425 75.997726 
L 236.936173 76.535521 
L 236.555228 76.962332 
L 236.561044 77.279198 
L 236.826779 77.526827 
L 237.457143 77.769906 
L 238.890824 78.018396 
L 241.887152 78.198467 
L 246.791885 78.21867 
L 256.576285 78.243432 
L 262.994134 78.527797 
L 271.746445 78.923176 
L 277.069438 78.894148 
L 282.044178 78.65573 
L 287.87002 78.151972 
L 292.611487 77.583737 
L 292.611487 77.583737 
" style="fill:none;stroke:#000000;stroke-linecap:square;stroke-opacity:0.7;stroke-width:1.2;"/>
   </g>
   <g id="line2d_40">
    <path clip-path="url(#p7be102cbda)" d="M 292.57965 58.139201 
L 284.036992 57.068552 
L 276.092475 56.307476 
L 268.071431 55.767067 
L 252.557122 55.02893 
L 248.240095 55.073767 
L 245.191554 55.305345 
L 242.826651 55.648056 
L 240.466575 56.18854 
L 238.557027 56.849802 
L 237.285147 57.517472 
L 236.669518 58.081878 
L 236.56061 58.481543 
L 236.720095 58.743699 
L 236.954972 58.899895 
L 237.707068 59.144465 
L 239.217631 59.342652 
L 242.147289 59.429844 
L 248.414429 59.299754 
L 255.509817 59.204704 
L 260.423023 59.355207 
L 267.573783 59.862897 
L 272.769942 60.128721 
L 277.295643 60.120554 
L 281.747247 59.878029 
L 286.522954 59.372075 
L 290.579378 58.746485 
L 292.582732 58.367361 
L 292.582732 58.367361 
" style="fill:none;stroke:#000000;stroke-linecap:square;stroke-opacity:0.7;stroke-width:1.2;"/>
   </g>
   <g id="line2d_41">
    <path clip-path="url(#p7be102cbda)" d="M 356.621717 229.781196 
L 342.972763 226.28042 
L 334.086126 224.19015 
L 327.114364 222.769213 
L 322.078658 221.960239 
L 318.162961 221.555797 
L 314.940295 221.442414 
L 311.956133 221.582167 
L 309.182349 222.001693 
L 307.210479 222.530257 
L 305.260786 223.307794 
L 303.638851 224.21563 
L 302.185281 225.318178 
L 300.908459 226.662317 
L 300.572666 227.122355 
L 300.093517 227.94589 
L 299.701268 229.12391 
L 299.676578 229.895508 
L 299.888998 230.607639 
L 300.059405 230.886197 
L 300.86384 231.60025 
L 301.555538 231.936724 
L 302.839637 232.310157 
L 304.876548 232.60213 
L 307.348736 232.733401 
L 311.236354 232.714111 
L 317.717564 232.406685 
L 326.225552 231.754356 
L 341.435699 230.501496 
L 349.05768 230.192179 
L 356.581467 230.059662 
L 356.581467 230.059662 
" style="fill:none;stroke:#000000;stroke-linecap:square;stroke-opacity:0.7;stroke-width:1.2;"/>
   </g>
   <g id="line2d_42">
    <path clip-path="url(#p7be102cbda)" d="M 356.638566 210.875441 
L 350.683247 209.069787 
L 345.267831 207.660488 
L 339.285105 206.342619 
L 333.20638 205.226412 
L 328.008007 204.469125 
L 323.406558 204.02722 
L 320.076353 203.904706 
L 317.169717 203.973932 
L 313.832196 204.296446 
L 310.985981 204.809611 
L 308.50907 205.461601 
L 306.071158 206.320819 
L 303.833093 207.344567 
L 301.993211 208.430026 
L 300.612942 209.543469 
L 300.004509 210.332398 
L 299.828847 210.976931 
L 299.881362 211.270974 
L 300.261126 211.79183 
L 301.098485 212.278034 
L 301.805892 212.526465 
L 304.046049 212.982895 
L 306.656796 213.232938 
L 310.505983 213.334744 
L 315.268155 213.209521 
L 321.873617 212.784959 
L 338.212726 211.613715 
L 346.333156 211.327286 
L 356.621689 211.194321 
L 356.621689 211.194321 
" style="fill:none;stroke:#000000;stroke-linecap:square;stroke-opacity:0.7;stroke-width:1.2;"/>
   </g>
   <g id="line2d_43">
    <path clip-path="url(#p7be102cbda)" d="M 356.594717 192.074433 
L 352.424586 190.721799 
L 347.64449 189.39553 
L 342.721994 188.253312 
L 337.453443 187.268855 
L 332.449256 186.573952 
L 327.924972 186.171742 
L 323.84663 186.015772 
L 319.583288 186.083274 
L 315.725945 186.367064 
L 311.772744 186.905423 
L 308.857352 187.489762 
L 306.169323 188.20185 
L 303.480102 189.139075 
L 301.657463 189.980397 
L 300.585803 190.637689 
L 299.910891 191.234657 
L 299.61399 191.782509 
L 299.663641 192.169929 
L 299.947581 192.500647 
L 300.562635 192.838391 
L 301.888804 193.228509 
L 303.8432 193.553973 
L 306.898813 193.833051 
L 311.404025 193.985761 
L 316.588413 193.923145 
L 322.919894 193.616234 
L 342.731444 192.442607 
L 350.765126 192.324365 
L 356.566355 192.359258 
L 356.566355 192.359258 
" style="fill:none;stroke:#000000;stroke-linecap:square;stroke-opacity:0.7;stroke-width:1.2;"/>
   </g>
   <g id="line2d_44">
    <path clip-path="url(#p7be102cbda)" d="M 356.526871 172.994649 
L 350.453101 171.30226 
L 344.55913 169.916146 
L 339.397124 168.918162 
L 334.637203 168.200978 
L 330.28719 167.749683 
L 325.89815 167.515218 
L 321.781089 167.493079 
L 317.355768 167.675013 
L 313.011126 168.086158 
L 309.365847 168.659994 
L 306.067285 169.429074 
L 303.34151 170.338727 
L 301.82201 171.040346 
L 300.647319 171.831219 
L 300.149865 172.537865 
L 300.153515 172.878286 
L 300.345535 173.195209 
L 300.801067 173.529075 
L 301.782655 173.918584 
L 303.627641 174.325462 
L 306.207531 174.633936 
L 310.213262 174.826848 
L 314.74199 174.796433 
L 320.839309 174.510089 
L 336.811643 173.631759 
L 347.864818 173.357575 
L 356.512557 173.26759 
L 356.512557 173.26759 
" style="fill:none;stroke:#000000;stroke-linecap:square;stroke-opacity:0.7;stroke-width:1.2;"/>
   </g>
   <g id="line2d_45">
    <path clip-path="url(#p7be102cbda)" d="M 356.448834 153.488252 
L 350.807443 152.249267 
L 344.188589 151.051425 
L 336.820473 149.96444 
L 329.701282 149.132756 
L 323.827081 148.66789 
L 319.336097 148.536728 
L 315.634957 148.636308 
L 312.596943 148.898147 
L 309.470514 149.379727 
L 306.73792 150.021287 
L 304.713516 150.667485 
L 302.4324 151.652027 
L 301.074286 152.493424 
L 300.41738 153.14071 
L 300.207624 153.691231 
L 300.331136 154.072848 
L 300.748567 154.432136 
L 301.644126 154.794244 
L 303.241467 155.11951 
L 305.458114 155.335921 
L 308.999924 155.440806 
L 314.746041 155.330875 
L 336.612832 154.646115 
L 346.148583 154.35118 
L 355.127233 153.836821 
L 356.444808 153.739734 
L 356.444808 153.739734 
" style="fill:none;stroke:#000000;stroke-linecap:square;stroke-opacity:0.7;stroke-width:1.2;"/>
   </g>
   <g id="line2d_46">
    <path clip-path="url(#p7be102cbda)" d="M 356.495728 134.296604 
L 349.868654 133.10083 
L 343.179057 132.124664 
L 334.609587 131.122751 
L 324.237392 130.103945 
L 319.687433 129.874989 
L 315.843083 129.914427 
L 312.649533 130.161464 
L 309.661028 130.606603 
L 306.609972 131.319212 
L 304.189938 132.124269 
L 302.233052 133.024723 
L 301.225315 133.695033 
L 300.742753 134.252914 
L 300.677631 134.610837 
L 300.823951 134.885905 
L 301.271426 135.176592 
L 301.951579 135.396231 
L 303.645846 135.65548 
L 306.633278 135.800591 
L 311.659537 135.775137 
L 325.382544 135.622949 
L 339.670398 135.609508 
L 346.551324 135.338934 
L 353.74445 134.818866 
L 356.461763 134.552032 
L 356.461763 134.552032 
" style="fill:none;stroke:#000000;stroke-linecap:square;stroke-opacity:0.7;stroke-width:1.2;"/>
   </g>
   <g id="line2d_47">
    <path clip-path="url(#p7be102cbda)" d="M 356.393055 116.094259 
L 348.905852 114.602875 
L 341.809781 113.403381 
L 335.274346 112.522685 
L 329.961737 112.03558 
L 324.68479 111.777933 
L 318.170965 111.68225 
L 312.705496 111.818579 
L 308.793445 112.147951 
L 305.95088 112.59762 
L 303.567557 113.193653 
L 301.866082 113.828053 
L 300.808427 114.412786 
L 300.166427 115.047421 
L 300.073028 115.391968 
L 300.201588 115.714163 
L 300.549429 115.994608 
L 301.145838 116.247492 
L 302.203256 116.502499 
L 304.597019 116.787652 
L 307.714131 116.943775 
L 314.35708 117.017909 
L 331.359005 116.88728 
L 345.191368 116.558016 
L 356.375152 116.304736 
L 356.375152 116.304736 
" style="fill:none;stroke:#000000;stroke-linecap:square;stroke-opacity:0.7;stroke-width:1.2;"/>
   </g>
   <g id="line2d_48">
    <path clip-path="url(#p7be102cbda)" d="M 356.548179 96.531534 
L 349.141178 95.343834 
L 341.587637 94.360845 
L 333.892956 93.584248 
L 325.046709 92.914791 
L 319.325 92.65803 
L 314.861907 92.679072 
L 311.685702 92.877179 
L 308.447404 93.279754 
L 305.373733 93.892481 
L 303.388277 94.446161 
L 301.706351 95.071293 
L 300.403621 95.803384 
L 300.112733 96.099408 
L 300.008416 96.462342 
L 300.217762 96.762165 
L 300.679659 97.000221 
L 301.589722 97.23618 
L 303.774299 97.480067 
L 307.533816 97.564524 
L 314.969953 97.395289 
L 322.352984 97.309592 
L 330.401622 97.486374 
L 338.203324 97.58522 
L 345.474956 97.429262 
L 353.082801 97.049377 
L 356.529047 96.806733 
L 356.529047 96.806733 
" style="fill:none;stroke:#000000;stroke-linecap:square;stroke-opacity:0.7;stroke-width:1.2;"/>
   </g>
   <g id="line2d_49">
    <path clip-path="url(#p7be102cbda)" d="M 356.43816 76.788841 
L 343.211261 75.795539 
L 328.314071 74.628832 
L 316.150868 73.496251 
L 312.506016 73.454687 
L 309.39633 73.644947 
L 306.5814 74.054512 
L 304.337831 74.596081 
L 302.355902 75.30733 
L 301.058879 75.985241 
L 300.197237 76.723359 
L 300.019264 77.149039 
L 300.091552 77.418289 
L 300.393883 77.684528 
L 301.248452 77.980909 
L 302.742472 78.197852 
L 305.784359 78.351209 
L 311.491648 78.364342 
L 325.77916 78.332073 
L 340.207082 78.528681 
L 345.836281 78.271331 
L 351.201446 77.791468 
L 356.163515 77.117933 
L 356.413726 77.076742 
L 356.413726 77.076742 
" style="fill:none;stroke:#000000;stroke-linecap:square;stroke-opacity:0.7;stroke-width:1.2;"/>
   </g>
   <g id="line2d_50">
    <path clip-path="url(#p7be102cbda)" d="M 356.635583 57.775826 
L 346.140331 56.864976 
L 336.486077 56.275575 
L 328.511058 55.749095 
L 314.234263 54.5508 
L 311.180085 54.627921 
L 308.38231 54.917105 
L 306.625236 55.235009 
L 304.624099 55.76354 
L 302.595032 56.559024 
L 301.491289 57.187007 
L 300.736648 57.837365 
L 300.482768 58.347797 
L 300.561413 58.648741 
L 300.836701 58.87564 
L 301.305421 59.046492 
L 302.173306 59.185991 
L 304.883666 59.233658 
L 310.175403 58.954214 
L 316.044958 58.698659 
L 320.711993 58.730552 
L 325.125193 58.984146 
L 335.822389 59.74993 
L 339.967408 59.775826 
L 344.61467 59.574225 
L 349.146217 59.159139 
L 353.571458 58.546608 
L 356.614296 57.995685 
L 356.614296 57.995685 
" style="fill:none;stroke:#000000;stroke-linecap:square;stroke-opacity:0.7;stroke-width:1.2;"/>
   </g>
   <g id="line2d_51">
    <path clip-path="url(#p7be102cbda)" d="M 420.113959 230.599886 
L 415.513766 228.877481 
L 410.196404 227.104989 
L 404.923354 225.559896 
L 400.284289 224.416457 
L 396.348338 223.662678 
L 392.463083 223.165262 
L 388.613778 222.935415 
L 384.76034 222.960181 
L 381.103485 223.210274 
L 377.186185 223.731042 
L 373.736137 224.438445 
L 370.585604 225.346883 
L 368.351697 226.206431 
L 366.671809 227.039098 
L 365.157183 228.05753 
L 364.25844 229.044589 
L 364.038476 229.6779 
L 364.153532 230.226669 
L 364.48729 230.631902 
L 364.924765 230.93646 
L 366.19548 231.457972 
L 367.833347 231.857224 
L 370.064235 232.200681 
L 373.480716 232.489164 
L 377.399257 232.585853 
L 381.583537 232.471594 
L 386.469841 232.091913 
L 391.484381 231.476878 
L 400.146511 230.347769 
L 404.68094 230.044565 
L 408.656254 230.006849 
L 412.971238 230.183035 
L 418.328603 230.647821 
L 420.042542 230.830987 
L 420.042542 230.830987 
" style="fill:none;stroke:#000000;stroke-linecap:square;stroke-opacity:0.7;stroke-width:1.2;"/>
   </g>
   <g id="line2d_52">
    <path clip-path="url(#p7be102cbda)" d="M 420.242623 210.87651 
L 412.545267 208.610574 
L 406.601607 207.090505 
L 401.509191 205.993626 
L 396.358838 205.109991 
L 391.705192 204.540911 
L 387.13528 204.23116 
L 383.332659 204.195951 
L 379.597879 204.40159 
L 376.408069 204.81209 
L 373.411804 205.448736 
L 370.748962 206.279525 
L 368.552455 207.220027 
L 367.290475 207.909928 
L 365.88577 208.892557 
L 365.152305 209.585497 
L 364.677718 210.223987 
L 364.419334 211.022729 
L 364.55051 211.582022 
L 364.97931 212.053112 
L 365.41457 212.31364 
L 366.648093 212.732305 
L 368.232746 213.010958 
L 371.209884 213.244023 
L 375.087349 213.30288 
L 380.064191 213.171768 
L 386.464369 212.764718 
L 394.003996 212.028224 
L 400.697811 211.428651 
L 406.320027 211.150921 
L 412.689206 211.06772 
L 420.199133 211.17295 
L 420.199133 211.17295 
" style="fill:none;stroke:#000000;stroke-linecap:square;stroke-opacity:0.7;stroke-width:1.2;"/>
   </g>
   <g id="line2d_53">
    <path clip-path="url(#p7be102cbda)" d="M 420.041615 192.343325 
L 414.848962 190.800827 
L 408.304557 189.09535 
L 402.684459 187.840521 
L 397.494854 186.895224 
L 392.782891 186.266538 
L 388.196991 185.900616 
L 383.94101 185.796048 
L 380.147722 185.917617 
L 376.685131 186.241834 
L 373.080183 186.857534 
L 370.419121 187.555378 
L 368.272154 188.32923 
L 366.12589 189.406556 
L 365.004012 190.240402 
L 364.461367 190.940292 
L 364.369846 191.269176 
L 364.473252 191.705423 
L 364.845578 192.076409 
L 365.307384 192.324905 
L 366.772895 192.759264 
L 369.095886 193.104643 
L 372.811886 193.349832 
L 377.928242 193.407079 
L 384.06259 193.238363 
L 391.704906 192.785682 
L 401.839568 192.155026 
L 407.789523 192.048953 
L 414.097213 192.17702 
L 420.01183 192.470071 
L 420.01183 192.470071 
" style="fill:none;stroke:#000000;stroke-linecap:square;stroke-opacity:0.7;stroke-width:1.2;"/>
   </g>
   <g id="line2d_54">
    <path clip-path="url(#p7be102cbda)" d="M 420.230019 172.785695 
L 415.600835 171.490681 
L 411.043187 170.419448 
L 405.796603 169.406514 
L 400.493457 168.595326 
L 394.813977 167.953184 
L 389.677117 167.583881 
L 385.326984 167.469046 
L 381.539526 167.566655 
L 377.793644 167.89336 
L 374.809219 168.354749 
L 371.913771 169.010501 
L 369.565716 169.727342 
L 367.585839 170.501077 
L 365.688475 171.48333 
L 364.839796 172.119846 
L 364.48994 172.566235 
L 364.432434 172.95364 
L 364.607498 173.239139 
L 364.978069 173.488269 
L 366.022512 173.842366 
L 367.801717 174.161933 
L 371.207698 174.473553 
L 375.577561 174.61948 
L 381.167637 174.56448 
L 387.684565 174.271526 
L 407.432765 173.180161 
L 416.159288 173.073141 
L 420.182978 173.067567 
L 420.182978 173.067567 
" style="fill:none;stroke:#000000;stroke-linecap:square;stroke-opacity:0.7;stroke-width:1.2;"/>
   </g>
   <g id="line2d_55">
    <path clip-path="url(#p7be102cbda)" d="M 420.17591 153.82684 
L 413.550532 152.304465 
L 407.202017 151.050022 
L 401.066822 150.063021 
L 396.039639 149.478735 
L 391.573431 149.166173 
L 386.335887 149.045791 
L 381.816132 149.156453 
L 377.48372 149.480261 
L 373.787967 149.968453 
L 370.437422 150.632302 
L 367.829608 151.35265 
L 365.730452 152.150244 
L 364.760945 152.660904 
L 364.019994 153.283762 
L 363.882887 153.704356 
L 364.034975 153.991085 
L 364.495411 154.281096 
L 365.359635 154.546791 
L 366.692696 154.767142 
L 369.634344 154.98468 
L 374.206971 155.05343 
L 381.820469 154.9173 
L 417.427482 154.045748 
L 420.129498 154.027965 
L 420.129498 154.027965 
" style="fill:none;stroke:#000000;stroke-linecap:square;stroke-opacity:0.7;stroke-width:1.2;"/>
   </g>
   <g id="line2d_56">
    <path clip-path="url(#p7be102cbda)" d="M 420.137812 134.658853 
L 414.013155 133.359256 
L 407.982997 132.311567 
L 402.118531 131.506947 
L 396.131747 130.919005 
L 390.068987 130.563513 
L 383.857478 130.429923 
L 378.897134 130.562448 
L 375.067489 130.884893 
L 371.766149 131.369402 
L 368.861237 132.00828 
L 366.654978 132.703073 
L 365.220759 133.369464 
L 364.566794 133.875689 
L 364.377873 134.192494 
L 364.415967 134.53873 
L 364.696915 134.81853 
L 365.252817 135.077542 
L 366.534231 135.378449 
L 368.873286 135.623009 
L 373.060335 135.748267 
L 380.608158 135.666892 
L 420.124965 134.859367 
L 420.124965 134.859367 
" style="fill:none;stroke:#000000;stroke-linecap:square;stroke-opacity:0.7;stroke-width:1.2;"/>
   </g>
   <g id="line2d_57">
    <path clip-path="url(#p7be102cbda)" d="M 420.411725 114.920728 
L 381.926838 110.799785 
L 378.392483 110.718963 
L 375.084341 110.879955 
L 372.167728 111.261147 
L 369.380188 111.885773 
L 367.022601 112.671101 
L 365.725938 113.243278 
L 364.310947 114.06219 
L 363.539866 114.715215 
L 363.187349 115.339448 
L 363.271294 115.723433 
L 363.533201 115.967053 
L 364.154325 116.230139 
L 364.977155 116.406421 
L 366.595089 116.564976 
L 369.435819 116.617725 
L 375.337562 116.440666 
L 384.555953 116.163838 
L 391.236299 116.208872 
L 402.015468 116.345004 
L 408.237471 116.166115 
L 414.171774 115.791539 
L 420.384568 115.179555 
L 420.384568 115.179555 
" style="fill:none;stroke:#000000;stroke-linecap:square;stroke-opacity:0.7;stroke-width:1.2;"/>
   </g>
   <g id="line2d_58">
    <path clip-path="url(#p7be102cbda)" d="M 420.126703 96.616157 
L 414.970643 95.764015 
L 407.691157 94.795497 
L 399.475844 93.945387 
L 391.183108 93.331587 
L 382.221908 92.889378 
L 377.45616 92.871694 
L 373.922305 93.050115 
L 370.676629 93.42359 
L 367.735568 94.008556 
L 366.334128 94.408801 
L 364.786847 95.017931 
L 363.948414 95.560715 
L 363.73556 95.926722 
L 363.891865 96.24801 
L 364.306783 96.480588 
L 365.201157 96.730596 
L 367.068421 96.995801 
L 370.524445 97.218005 
L 376.987875 97.348364 
L 399.178862 97.431586 
L 410.22842 97.18624 
L 420.123149 96.815324 
L 420.123149 96.815324 
" style="fill:none;stroke:#000000;stroke-linecap:square;stroke-opacity:0.7;stroke-width:1.2;"/>
   </g>
   <g id="line2d_59">
    <path clip-path="url(#p7be102cbda)" d="M 420.284878 77.633102 
L 412.362473 76.353006 
L 404.971435 75.382977 
L 398.338627 74.73583 
L 391.941953 74.357032 
L 385.682691 74.219541 
L 380.508383 74.29902 
L 376.278525 74.541986 
L 372.030886 75.000626 
L 368.345057 75.632135 
L 365.675036 76.305705 
L 364.346332 76.804931 
L 363.832619 77.147426 
L 363.775922 77.389424 
L 363.984769 77.561249 
L 364.704528 77.767186 
L 366.329443 77.957327 
L 369.556738 78.082664 
L 375.306995 78.051968 
L 387.451739 77.93739 
L 410.341069 78.151154 
L 420.275682 77.873714 
L 420.275682 77.873714 
" style="fill:none;stroke:#000000;stroke-linecap:square;stroke-opacity:0.7;stroke-width:1.2;"/>
   </g>
   <g id="line2d_60">
    <path clip-path="url(#p7be102cbda)" d="M 420.228528 58.301339 
L 412.783271 57.455802 
L 404.759185 56.765895 
L 392.111028 55.951971 
L 382.032524 55.400442 
L 377.439644 55.378881 
L 374.020764 55.543224 
L 370.761773 55.885047 
L 367.644367 56.437601 
L 365.104942 57.167235 
L 363.9814 57.740164 
L 363.758532 58.109863 
L 363.8785 58.283129 
L 364.349534 58.483998 
L 365.735026 58.692593 
L 368.452379 58.805009 
L 374.178891 58.757842 
L 384.383512 58.659346 
L 391.068907 58.857756 
L 402.064688 59.237735 
L 408.772445 59.190125 
L 415.431925 58.920198 
L 420.222756 58.576025 
L 420.222756 58.576025 
" style="fill:none;stroke:#000000;stroke-linecap:square;stroke-opacity:0.7;stroke-width:1.2;"/>
   </g>
   <g id="line2d_61">
    <path clip-path="url(#p7be102cbda)" d="M 484.110213 229.975647 
L 477.881067 228.022751 
L 471.938594 226.399264 
L 466.194009 225.057614 
L 460.849531 224.04593 
L 456.332866 223.433089 
L 452.761399 223.15162 
L 448.920229 223.077224 
L 445.351391 223.237115 
L 442.095129 223.595349 
L 439.001473 224.151559 
L 436.084803 224.906032 
L 433.812649 225.683477 
L 431.288183 226.804075 
L 429.628127 227.767884 
L 428.577943 228.578325 
L 427.927624 229.369223 
L 427.775959 229.936387 
L 427.92417 230.402321 
L 428.34343 230.828041 
L 429.150719 231.26813 
L 430.487268 231.707712 
L 432.436356 232.102118 
L 435.169835 232.412424 
L 438.947054 232.564753 
L 443.53604 232.456627 
L 448.25414 232.091979 
L 453.58863 231.439921 
L 463.527956 230.110799 
L 467.459678 229.834895 
L 471.708201 229.742291 
L 476.993045 229.860348 
L 483.860214 230.269482 
L 484.063029 230.284407 
L 484.063029 230.284407 
" style="fill:none;stroke:#000000;stroke-linecap:square;stroke-opacity:0.7;stroke-width:1.2;"/>
   </g>
   <g id="line2d_62">
    <path clip-path="url(#p7be102cbda)" d="M 484.181576 211.104461 
L 478.519465 209.362865 
L 473.56285 208.059868 
L 468.690543 207.002879 
L 463.46918 206.112786 
L 458.152273 205.452042 
L 452.847136 205.02924 
L 448.184935 204.877112 
L 444.744901 204.937806 
L 440.936956 205.233248 
L 437.867522 205.69345 
L 434.847584 206.390065 
L 432.3312 207.206012 
L 430.13843 208.164233 
L 428.592976 209.08816 
L 427.861363 209.706759 
L 427.40512 210.356573 
L 427.332359 210.817704 
L 427.434363 211.12286 
L 427.707367 211.444546 
L 428.397462 211.863881 
L 429.270817 212.1836 
L 431.042986 212.588838 
L 433.441332 212.909821 
L 437.174756 213.141947 
L 441.178449 213.154192 
L 445.599822 212.952792 
L 450.923394 212.472451 
L 466.187369 210.826856 
L 470.513163 210.723401 
L 475.252389 210.824472 
L 481.014905 211.173433 
L 484.141305 211.433924 
L 484.141305 211.433924 
" style="fill:none;stroke:#000000;stroke-linecap:square;stroke-opacity:0.7;stroke-width:1.2;"/>
   </g>
   <g id="line2d_63">
    <path clip-path="url(#p7be102cbda)" d="M 483.915025 191.888846 
L 477.229688 190.166115 
L 470.253581 188.566975 
L 464.522458 187.468879 
L 459.519438 186.734549 
L 454.814016 186.263479 
L 449.997288 186.025448 
L 445.918912 186.056178 
L 442.019831 186.332591 
L 438.711419 186.800034 
L 435.828709 187.424216 
L 433.188433 188.225963 
L 431.009972 189.125503 
L 429.48802 189.975327 
L 428.686484 190.583094 
L 428.05411 191.354541 
L 427.945743 191.786468 
L 428.060055 192.158103 
L 428.359417 192.457887 
L 428.86782 192.725669 
L 430.187662 193.085573 
L 432.145238 193.347491 
L 435.067015 193.525481 
L 439.879359 193.574285 
L 445.678916 193.399123 
L 451.749089 193.006684 
L 467.004576 191.865961 
L 472.321756 191.802632 
L 479.077121 191.944552 
L 483.855948 192.133299 
L 483.855948 192.133299 
" style="fill:none;stroke:#000000;stroke-linecap:square;stroke-opacity:0.7;stroke-width:1.2;"/>
   </g>
   <g id="line2d_64">
    <path clip-path="url(#p7be102cbda)" d="M 484.090675 172.610547 
L 478.184628 171.242169 
L 471.751271 169.98276 
L 465.358311 168.964787 
L 458.007102 168.023839 
L 451.633364 167.406973 
L 447.198192 167.193863 
L 443.332303 167.257676 
L 440.13275 167.548289 
L 437.629288 167.957938 
L 434.637985 168.694051 
L 432.177608 169.539913 
L 430.009422 170.525799 
L 428.575111 171.388782 
L 427.745179 172.094375 
L 427.420163 172.579687 
L 427.382569 172.981961 
L 427.617745 173.331784 
L 428.227365 173.666309 
L 429.369356 173.970266 
L 431.755648 174.2668 
L 434.710405 174.407246 
L 439.801876 174.38876 
L 446.908026 174.09243 
L 469.854798 172.940319 
L 479.31633 172.910016 
L 484.074982 172.915484 
L 484.074982 172.915484 
" style="fill:none;stroke:#000000;stroke-linecap:square;stroke-opacity:0.7;stroke-width:1.2;"/>
   </g>
   <g id="line2d_65">
    <path clip-path="url(#p7be102cbda)" d="M 483.952993 153.655189 
L 472.279508 151.637451 
L 464.493546 150.513677 
L 455.552358 149.454092 
L 449.408732 148.923704 
L 445.443877 148.7862 
L 441.983583 148.869808 
L 438.692281 149.168524 
L 435.569144 149.68428 
L 432.656541 150.408333 
L 430.357629 151.198103 
L 428.660175 151.989322 
L 427.633058 152.689963 
L 427.180759 153.330215 
L 427.198808 153.649699 
L 427.51946 154.016762 
L 428.156024 154.320311 
L 429.403821 154.623804 
L 431.484998 154.868811 
L 434.366892 154.999987 
L 439.801582 154.97424 
L 448.324805 154.658803 
L 468.381583 153.847173 
L 477.111003 153.834719 
L 483.940485 153.925769 
L 483.940485 153.925769 
" style="fill:none;stroke:#000000;stroke-linecap:square;stroke-opacity:0.7;stroke-width:1.2;"/>
   </g>
   <g id="line2d_66">
    <path clip-path="url(#p7be102cbda)" d="M 484.12241 134.526298 
L 477.975926 133.360108 
L 470.672508 132.206612 
L 464.339401 131.40748 
L 458.405129 130.883206 
L 452.976699 130.623298 
L 447.62437 130.573759 
L 442.827435 130.747512 
L 438.816725 131.10278 
L 435.338397 131.606633 
L 432.001032 132.310925 
L 429.539642 133.040558 
L 428.263051 133.570655 
L 427.512968 134.106387 
L 427.451509 134.367874 
L 427.623386 134.569624 
L 428.108928 134.782131 
L 429.882175 135.118643 
L 432.745735 135.38033 
L 437.074258 135.561414 
L 443.619566 135.581285 
L 454.515761 135.335111 
L 474.782754 134.897543 
L 484.117637 134.817104 
L 484.117637 134.817104 
" style="fill:none;stroke:#000000;stroke-linecap:square;stroke-opacity:0.7;stroke-width:1.2;"/>
   </g>
   <g id="line2d_67">
    <path clip-path="url(#p7be102cbda)" d="M 483.911549 115.258211 
L 476.580365 114.675908 
L 461.932738 113.228666 
L 453.090477 112.175905 
L 445.857139 111.331242 
L 442.271481 111.130268 
L 439.394253 111.156071 
L 436.420987 111.416685 
L 434.43637 111.76061 
L 432.201226 112.363765 
L 430.190487 113.185674 
L 428.932039 113.931365 
L 427.977953 114.811982 
L 427.694503 115.442254 
L 427.710276 115.673449 
L 428.028311 116.104453 
L 428.508888 116.350182 
L 429.265764 116.552488 
L 431.103498 116.7586 
L 433.993465 116.817851 
L 439.351857 116.671579 
L 455.101199 116.111675 
L 479.875963 115.736068 
L 483.930673 115.488952 
L 483.930673 115.488952 
" style="fill:none;stroke:#000000;stroke-linecap:square;stroke-opacity:0.7;stroke-width:1.2;"/>
   </g>
   <g id="line2d_68">
    <path clip-path="url(#p7be102cbda)" d="M 483.987698 96.299936 
L 469.603574 94.893825 
L 456.257983 93.59623 
L 444.967456 92.313378 
L 441.935422 92.208372 
L 439.014261 92.301755 
L 436.420473 92.587875 
L 434.174552 93.028188 
L 431.752237 93.763016 
L 429.893801 94.59439 
L 428.779158 95.305456 
L 428.173801 95.888887 
L 427.940392 96.431992 
L 428.000205 96.681997 
L 428.295071 96.96584 
L 428.931794 97.210883 
L 429.919812 97.380378 
L 432.311622 97.499473 
L 436.517096 97.428169 
L 452.007924 97.004396 
L 463.488718 97.093367 
L 471.92716 97.019778 
L 480.731949 96.727546 
L 483.965484 96.561268 
L 483.965484 96.561268 
" style="fill:none;stroke:#000000;stroke-linecap:square;stroke-opacity:0.7;stroke-width:1.2;"/>
   </g>
   <g id="line2d_69">
    <path clip-path="url(#p7be102cbda)" d="M 483.980072 77.292984 
L 468.553166 75.735528 
L 461.000532 75.257519 
L 443.142816 74.518927 
L 438.524024 74.540948 
L 435.260523 74.746549 
L 432.375825 75.121486 
L 430.138861 75.602274 
L 428.593873 76.108135 
L 427.983321 76.391646 
L 427.308272 76.9386 
L 427.298455 77.229436 
L 427.65837 77.498635 
L 428.216522 77.6698 
L 429.869287 77.896757 
L 432.643929 78.028171 
L 437.254096 78.029176 
L 448.295708 77.73025 
L 456.011775 77.651099 
L 478.922864 77.759556 
L 483.990996 77.548376 
L 483.990996 77.548376 
" style="fill:none;stroke:#000000;stroke-linecap:square;stroke-opacity:0.7;stroke-width:1.2;"/>
   </g>
   <g id="line2d_70">
    <path clip-path="url(#p7be102cbda)" d="M 484.106276 57.834005 
L 473.44132 57.18357 
L 455.483661 56.191283 
L 448.932636 55.367007 
L 444.036792 54.850602 
L 440.804004 54.708383 
L 437.568692 54.800114 
L 434.571615 55.153004 
L 432.417356 55.608937 
L 430.220498 56.311549 
L 428.582285 57.09594 
L 427.67648 57.82522 
L 427.538023 58.220098 
L 427.73766 58.480224 
L 428.074287 58.619764 
L 428.940725 58.755941 
L 430.902848 58.788217 
L 435.758864 58.546263 
L 442.658876 58.226588 
L 448.049489 58.221487 
L 452.995061 58.443074 
L 465.232524 59.151325 
L 470.311221 59.144805 
L 475.305719 58.924168 
L 480.569717 58.468655 
L 484.083364 58.034038 
L 484.083364 58.034038 
" style="fill:none;stroke:#000000;stroke-linecap:square;stroke-opacity:0.7;stroke-width:1.2;"/>
   </g>
   <g id="line2d_71">
    <path clip-path="url(#p7be102cbda)" d="M 547.68504 230.644819 
L 542.463543 228.788277 
L 537.421836 227.23599 
L 532.89943 226.05994 
L 528.329634 225.089998 
L 523.845149 224.352702 
L 519.136157 223.8052 
L 514.490641 223.509994 
L 510.4383 223.48433 
L 506.536109 223.702186 
L 503.201626 224.115192 
L 500.373795 224.667729 
L 497.473763 225.481636 
L 495.237882 226.341518 
L 494.080092 226.903544 
L 492.391499 227.999011 
L 491.704899 228.715986 
L 491.429613 229.429856 
L 491.505022 229.829593 
L 491.807523 230.243593 
L 492.084544 230.46631 
L 492.957288 230.920394 
L 495.314753 231.5937 
L 498.077493 232.03014 
L 501.631685 232.316698 
L 505.408152 232.37864 
L 509.521436 232.199186 
L 513.411062 231.803444 
L 518.020522 231.076987 
L 526.227148 229.642046 
L 530.002044 229.308367 
L 533.057773 229.254477 
L 537.096793 229.436586 
L 541.545203 229.894637 
L 546.98883 230.71111 
L 547.654065 230.825019 
L 547.654065 230.825019 
" style="fill:none;stroke:#000000;stroke-linecap:square;stroke-opacity:0.7;stroke-width:1.2;"/>
   </g>
   <g id="line2d_72">
    <path clip-path="url(#p7be102cbda)" d="M 547.3618 211.309586 
L 540.204798 209.398009 
L 532.878985 207.659224 
L 525.944812 206.237235 
L 519.535371 205.15526 
L 514.853555 204.579283 
L 511.124813 204.327311 
L 507.799318 204.307533 
L 504.798161 204.495963 
L 501.939166 204.905224 
L 499.759232 205.410374 
L 497.441401 206.188848 
L 495.967841 206.853425 
L 494.37792 207.775662 
L 493.329027 208.557727 
L 492.303582 209.591637 
L 491.805793 210.437548 
L 491.712443 210.934949 
L 491.87236 211.472574 
L 492.105137 211.739987 
L 492.743797 212.132445 
L 494.042886 212.537097 
L 495.551493 212.794078 
L 498.379098 213.033968 
L 502.008374 213.106928 
L 506.596054 212.959446 
L 511.596233 212.551415 
L 516.883135 211.874888 
L 525.376185 210.726355 
L 528.73995 210.497437 
L 532.854524 210.441404 
L 537.511269 210.620722 
L 543.003296 211.073859 
L 547.351297 211.541564 
L 547.351297 211.541564 
" style="fill:none;stroke:#000000;stroke-linecap:square;stroke-opacity:0.7;stroke-width:1.2;"/>
   </g>
   <g id="line2d_73">
    <path clip-path="url(#p7be102cbda)" d="M 547.867091 191.840594 
L 542.109112 190.499293 
L 535.454042 189.202407 
L 527.083935 187.8282 
L 518.994234 186.679978 
L 513.827659 186.170347 
L 509.776463 186.027172 
L 506.421644 186.137252 
L 503.005538 186.506329 
L 499.870663 187.116742 
L 497.178215 187.892775 
L 494.909486 188.774606 
L 493.001752 189.742901 
L 491.642545 190.667276 
L 491.008829 191.302543 
L 490.765353 191.804859 
L 490.808837 192.158415 
L 490.979601 192.387865 
L 491.73956 192.805744 
L 492.897162 193.11333 
L 495.14349 193.43105 
L 499.017073 193.660179 
L 502.762613 193.676303 
L 507.776785 193.477269 
L 513.414128 193.010975 
L 520.4658 192.178383 
L 525.658021 191.629725 
L 529.835863 191.401795 
L 534.242332 191.374518 
L 539.76438 191.567861 
L 547.219472 192.072239 
L 547.836797 192.120574 
L 547.836797 192.120574 
" style="fill:none;stroke:#000000;stroke-linecap:square;stroke-opacity:0.7;stroke-width:1.2;"/>
   </g>
   <g id="line2d_74">
    <path clip-path="url(#p7be102cbda)" d="M 547.746984 173.113548 
L 542.595488 171.877969 
L 535.622789 170.466767 
L 527.852616 169.122689 
L 521.572548 168.245656 
L 517.054434 167.820465 
L 512.881838 167.652453 
L 509.076491 167.72486 
L 505.389994 168.029147 
L 502.353882 168.477436 
L 499.235056 169.156287 
L 496.850715 169.857723 
L 494.34601 170.836066 
L 492.799957 171.691231 
L 492.161137 172.28565 
L 492.04091 172.6965 
L 492.210526 173.003134 
L 492.63966 173.281124 
L 493.460782 173.563251 
L 495.548208 173.931117 
L 498.147328 174.143917 
L 501.567181 174.225691 
L 506.297643 174.115198 
L 512.886394 173.709758 
L 527.402761 172.724006 
L 532.855526 172.627827 
L 538.804328 172.756441 
L 545.697037 173.148672 
L 547.729163 173.300159 
L 547.729163 173.300159 
" style="fill:none;stroke:#000000;stroke-linecap:square;stroke-opacity:0.7;stroke-width:1.2;"/>
   </g>
   <g id="line2d_75">
    <path clip-path="url(#p7be102cbda)" d="M 547.842695 153.481011 
L 537.897781 151.791159 
L 530.272851 150.702414 
L 524.042807 150.020057 
L 517.441692 149.52483 
L 512.357802 149.339173 
L 507.872337 149.409826 
L 503.991153 149.714135 
L 500.237455 150.266164 
L 496.849666 151.019673 
L 493.983394 151.903273 
L 492.120446 152.694547 
L 491.229377 153.300741 
L 491.08594 153.621653 
L 491.185401 153.80294 
L 491.641552 154.038431 
L 492.659638 154.265568 
L 495.213916 154.536878 
L 499.560526 154.735548 
L 504.71092 154.752172 
L 511.01327 154.54394 
L 521.905323 153.89815 
L 529.322649 153.585325 
L 536.743204 153.520101 
L 546.439768 153.69121 
L 547.835808 153.726603 
L 547.835808 153.726603 
" style="fill:none;stroke:#000000;stroke-linecap:square;stroke-opacity:0.7;stroke-width:1.2;"/>
   </g>
   <g id="line2d_76">
    <path clip-path="url(#p7be102cbda)" d="M 547.745123 134.593639 
L 540.391981 133.311895 
L 533.907854 132.392531 
L 526.672018 131.590165 
L 515.109702 130.576434 
L 510.481 130.355972 
L 506.698593 130.385332 
L 503.564788 130.605207 
L 500.142008 131.093859 
L 497.161858 131.773265 
L 494.823362 132.515559 
L 492.824665 133.369435 
L 491.748011 134.01816 
L 491.274634 134.553716 
L 491.31867 134.838728 
L 491.593464 135.034448 
L 492.457963 135.264028 
L 494.531104 135.464676 
L 498.183827 135.565033 
L 504.623853 135.493792 
L 514.262566 135.139327 
L 524.848386 134.783368 
L 533.192885 134.747359 
L 547.727302 134.853274 
L 547.727302 134.853274 
" style="fill:none;stroke:#000000;stroke-linecap:square;stroke-opacity:0.7;stroke-width:1.2;"/>
   </g>
   <g id="line2d_77">
    <path clip-path="url(#p7be102cbda)" d="M 547.802424 115.158485 
L 540.425454 114.137232 
L 532.557398 113.278183 
L 524.050676 112.577099 
L 512.317041 111.834854 
L 507.790844 111.782468 
L 503.999088 111.978141 
L 500.486373 112.400268 
L 497.524683 112.966083 
L 494.593918 113.771546 
L 492.812548 114.474984 
L 491.930306 115.054614 
L 491.80673 115.370405 
L 491.996845 115.592782 
L 492.514053 115.788545 
L 494.288284 116.03284 
L 497.178103 116.149945 
L 502.76009 116.118376 
L 527.227005 115.692598 
L 538.586649 115.649786 
L 547.19084 115.379414 
L 547.808507 115.349327 
L 547.808507 115.349327 
" style="fill:none;stroke:#000000;stroke-linecap:square;stroke-opacity:0.7;stroke-width:1.2;"/>
   </g>
   <g id="line2d_78">
    <path clip-path="url(#p7be102cbda)" d="M 547.790522 96.333378 
L 541.956921 95.483101 
L 534.064592 94.56337 
L 525.455193 93.782307 
L 516.456246 93.184196 
L 509.854796 92.922611 
L 505.306089 92.955893 
L 501.680761 93.199503 
L 498.258506 93.672678 
L 495.532839 94.275805 
L 493.573328 94.897009 
L 492.213715 95.514113 
L 491.455084 96.134198 
L 491.410614 96.446987 
L 491.57109 96.633012 
L 492.165596 96.870408 
L 493.116886 97.025568 
L 495.421233 97.140862 
L 499.796048 97.082725 
L 520.733856 96.532553 
L 547.765677 96.642501 
L 547.765677 96.642501 
" style="fill:none;stroke:#000000;stroke-linecap:square;stroke-opacity:0.7;stroke-width:1.2;"/>
   </g>
   <g id="line2d_79">
    <path clip-path="url(#p7be102cbda)" d="M 547.575316 77.504546 
L 538.665463 76.351728 
L 530.518204 75.529412 
L 523.805863 75.068564 
L 507.884107 74.34213 
L 503.679176 74.358201 
L 499.699 74.595199 
L 496.207132 75.046043 
L 493.520357 75.642253 
L 492.162524 76.141307 
L 491.590662 76.576784 
L 491.578711 76.803531 
L 491.839598 77.028034 
L 492.263849 77.189742 
L 493.813221 77.472887 
L 496.263939 77.67077 
L 501.105111 77.791429 
L 508.811799 77.69823 
L 523.535915 77.454216 
L 534.654762 77.634942 
L 547.562247 77.796242 
L 547.562247 77.796242 
" style="fill:none;stroke:#000000;stroke-linecap:square;stroke-opacity:0.7;stroke-width:1.2;"/>
   </g>
   <g id="line2d_80">
    <path clip-path="url(#p7be102cbda)" d="M 547.665556 58.505399 
L 542.381127 57.77871 
L 535.732342 57.105939 
L 528.0832 56.577366 
L 517.23831 56.107776 
L 507.79881 55.843739 
L 502.577168 55.942953 
L 498.325226 56.240275 
L 494.601701 56.712331 
L 492.13957 57.229322 
L 491.351436 57.562138 
L 491.31847 57.763956 
L 491.585299 57.89842 
L 492.269245 58.042473 
L 494.469458 58.233094 
L 498.66888 58.333663 
L 509.699411 58.269002 
L 518.783727 58.338035 
L 546.243249 58.761819 
L 547.6487 58.765003 
L 547.6487 58.765003 
" style="fill:none;stroke:#000000;stroke-linecap:square;stroke-opacity:0.7;stroke-width:1.2;"/>
   </g>
   <g id="line2d_81">
    <path clip-path="url(#p7be102cbda)" d="M 611.576907 229.873385 
L 606.345544 228.23132 
L 601.296255 226.882332 
L 596.163083 225.735029 
L 590.626315 224.711271 
L 584.249147 223.7559 
L 579.349515 223.24764 
L 576.410287 223.105797 
L 572.919832 223.153418 
L 569.821779 223.43203 
L 566.772595 223.96573 
L 564.446599 224.579402 
L 562.2398 225.360897 
L 560.574106 226.105834 
L 558.532255 227.253015 
L 556.834341 228.510566 
L 555.951204 229.43804 
L 555.655349 229.959145 
L 555.598918 230.443535 
L 555.802638 230.824338 
L 556.176647 231.102597 
L 557.047869 231.442701 
L 558.714225 231.789158 
L 561.397444 232.083166 
L 565.066288 232.245962 
L 569.11993 232.204114 
L 573.654342 231.909601 
L 577.73643 231.424499 
L 582.202741 230.680999 
L 590.265079 229.275747 
L 593.913237 228.939711 
L 597.433268 228.869616 
L 601.310443 229.035712 
L 605.729232 229.442572 
L 611.565422 230.133025 
L 611.565422 230.133025 
" style="fill:none;stroke:#000000;stroke-linecap:square;stroke-opacity:0.7;stroke-width:1.2;"/>
   </g>
   <g id="line2d_82">
    <path clip-path="url(#p7be102cbda)" d="M 611.642854 210.882953 
L 599.685841 208.018927 
L 593.397891 206.786199 
L 587.490728 205.861071 
L 581.030387 205.087844 
L 575.468652 204.645262 
L 571.300162 204.539282 
L 568.110576 204.664837 
L 565.227667 204.999315 
L 562.956203 205.4627 
L 560.953512 206.06296 
L 558.711499 207.017269 
L 556.927699 208.084816 
L 555.885984 208.938201 
L 555.17002 209.806391 
L 554.905963 210.540346 
L 555.000484 211.087405 
L 555.427036 211.597855 
L 555.865081 211.878492 
L 557.177325 212.365223 
L 558.560462 212.658879 
L 561.573097 212.988193 
L 564.765728 213.094004 
L 568.862344 212.998433 
L 573.287332 212.662817 
L 578.049976 212.061207 
L 584.689186 210.942201 
L 589.478738 210.265955 
L 593.275502 209.997587 
L 597.06376 209.961875 
L 601.64046 210.15866 
L 607.336478 210.665874 
L 611.603616 211.169547 
L 611.603616 211.169547 
" style="fill:none;stroke:#000000;stroke-linecap:square;stroke-opacity:0.7;stroke-width:1.2;"/>
   </g>
   <g id="line2d_83">
    <path clip-path="url(#p7be102cbda)" d="M 611.302354 192.332593 
L 598.629292 189.19795 
L 592.478025 187.936788 
L 587.492993 187.133858 
L 582.891199 186.631791 
L 578.919433 186.428221 
L 575.303854 186.451012 
L 571.597165 186.693951 
L 568.196144 187.126534 
L 565.309474 187.668913 
L 561.95931 188.539231 
L 559.648464 189.337363 
L 557.756243 190.182984 
L 556.643299 190.855866 
L 556.016926 191.480518 
L 555.925415 191.848862 
L 556.097688 192.166579 
L 556.603783 192.486731 
L 557.860371 192.876141 
L 559.405995 193.15658 
L 562.698929 193.49424 
L 566.653548 193.644219 
L 571.072901 193.565392 
L 575.764608 193.227748 
L 580.781552 192.623215 
L 590.671423 191.344961 
L 593.964195 191.164817 
L 597.720606 191.17475 
L 601.837366 191.407541 
L 606.209459 191.844335 
L 611.316678 192.529772 
L 611.316678 192.529772 
" style="fill:none;stroke:#000000;stroke-linecap:square;stroke-opacity:0.7;stroke-width:1.2;"/>
   </g>
   <g id="line2d_84">
    <path clip-path="url(#p7be102cbda)" d="M 611.67763 173.019466 
L 603.702323 171.195922 
L 598.818264 170.30574 
L 593.890667 169.626164 
L 588.151054 169.086556 
L 572.291242 167.971419 
L 568.670609 167.937244 
L 565.366334 168.124523 
L 562.527678 168.504248 
L 559.786956 169.113648 
L 557.612796 169.821236 
L 555.830648 170.637368 
L 554.872845 171.268831 
L 554.411791 171.733728 
L 554.195318 172.291502 
L 554.258137 172.554279 
L 554.629755 172.949951 
L 555.642671 173.392892 
L 556.979601 173.694551 
L 559.855268 174.006862 
L 563.046537 174.108961 
L 567.385821 174.013075 
L 572.667062 173.646393 
L 580.036205 172.861537 
L 586.02257 172.272466 
L 590.622558 172.045336 
L 595.728778 172.037796 
L 601.439552 172.269331 
L 607.83466 172.775648 
L 611.676385 173.197167 
L 611.676385 173.197167 
" style="fill:none;stroke:#000000;stroke-linecap:square;stroke-opacity:0.7;stroke-width:1.2;"/>
   </g>
   <g id="line2d_85">
    <path clip-path="url(#p7be102cbda)" d="M 611.364931 153.764696 
L 604.908864 152.360858 
L 599.052985 151.323542 
L 593.767957 150.588318 
L 587.81612 149.989419 
L 581.226504 149.549685 
L 575.608811 149.349639 
L 571.230199 149.404492 
L 567.460523 149.673784 
L 564.42478 150.07719 
L 561.819628 150.582028 
L 559.068002 151.314837 
L 556.876945 152.122224 
L 555.622129 152.818627 
L 555.254221 153.249191 
L 555.261205 153.489997 
L 555.560718 153.773129 
L 555.98992 153.958074 
L 557.480721 154.296772 
L 560.200198 154.604915 
L 564.347588 154.806504 
L 568.849416 154.811987 
L 573.870557 154.612138 
L 579.856864 154.143816 
L 589.833781 153.296902 
L 594.552611 153.174672 
L 599.637514 153.284791 
L 605.993614 153.651945 
L 611.386953 154.038312 
L 611.386953 154.038312 
" style="fill:none;stroke:#000000;stroke-linecap:square;stroke-opacity:0.7;stroke-width:1.2;"/>
   </g>
   <g id="line2d_86">
    <path clip-path="url(#p7be102cbda)" d="M 611.507967 134.639122 
L 606.253675 133.452629 
L 601.657115 132.623479 
L 596.388898 131.912271 
L 591.0474 131.435723 
L 585.453464 131.169445 
L 575.936161 130.973396 
L 570.861546 131.058244 
L 567.000478 131.329809 
L 563.766818 131.740871 
L 560.20967 132.430362 
L 557.391439 133.214641 
L 555.795575 133.878143 
L 555.455269 134.206548 
L 555.532756 134.406165 
L 555.932793 134.607579 
L 557.326049 134.916733 
L 559.853138 135.220975 
L 563.724206 135.46562 
L 568.762196 135.533426 
L 574.031644 135.368324 
L 581.5107 134.861762 
L 588.594989 134.423649 
L 593.631513 134.335953 
L 599.803174 134.457457 
L 611.514293 134.899457 
L 611.514293 134.899457 
" style="fill:none;stroke:#000000;stroke-linecap:square;stroke-opacity:0.7;stroke-width:1.2;"/>
   </g>
   <g id="line2d_87">
    <path clip-path="url(#p7be102cbda)" d="M 611.535223 115.18591 
L 601.566624 113.945518 
L 592.717997 113.062532 
L 580.03462 112.064246 
L 574.038806 111.742895 
L 569.981099 111.759653 
L 566.520756 112.002615 
L 563.534349 112.414326 
L 560.695813 113.010573 
L 558.108307 113.786838 
L 556.289067 114.592543 
L 555.710758 115.034767 
L 555.600702 115.262243 
L 555.705284 115.483928 
L 556.156257 115.692753 
L 557.281432 115.882293 
L 559.623215 115.998449 
L 563.977124 115.952318 
L 575.231378 115.503589 
L 583.679048 115.301549 
L 593.646973 115.32783 
L 610.791647 115.406567 
L 611.539188 115.391986 
L 611.539188 115.391986 
" style="fill:none;stroke:#000000;stroke-linecap:square;stroke-opacity:0.7;stroke-width:1.2;"/>
   </g>
   <g id="line2d_88">
    <path clip-path="url(#p7be102cbda)" d="M 611.66868 96.148321 
L 605.36762 95.239778 
L 598.78214 94.511465 
L 592.202062 93.997119 
L 582.072382 93.471119 
L 572.667192 93.119353 
L 568.310422 93.18353 
L 565.148898 93.408146 
L 561.956716 93.828704 
L 559.02691 94.430733 
L 556.847815 95.086933 
L 555.452343 95.786464 
L 555.208954 96.142604 
L 555.257192 96.315373 
L 555.637051 96.578169 
L 556.241555 96.761981 
L 558.38022 97.032425 
L 561.027943 97.116106 
L 565.376405 97.017185 
L 573.320255 96.540674 
L 580.113967 96.199354 
L 585.344099 96.155149 
L 595.722518 96.381469 
L 606.413184 96.497403 
L 611.671102 96.450343 
L 611.671102 96.450343 
" style="fill:none;stroke:#000000;stroke-linecap:square;stroke-opacity:0.7;stroke-width:1.2;"/>
   </g>
   <g id="line2d_89">
    <path clip-path="url(#p7be102cbda)" d="M 611.660777 76.988919 
L 583.993373 75.267223 
L 578.572835 74.542885 
L 573.728996 73.941121 
L 570.26993 73.712297 
L 567.096392 73.721162 
L 563.876239 73.989531 
L 561.009444 74.492687 
L 558.761566 75.111568 
L 557.298688 75.667938 
L 555.774501 76.508977 
L 555.269793 77.022407 
L 555.218502 77.355291 
L 555.400791 77.566813 
L 555.889823 77.76237 
L 556.542162 77.880002 
L 558.206307 77.989722 
L 562.509854 77.944741 
L 571.377672 77.52597 
L 579.917603 77.169244 
L 585.935412 77.137639 
L 607.690197 77.331771 
L 611.62454 77.286952 
L 611.62454 77.286952 
" style="fill:none;stroke:#000000;stroke-linecap:square;stroke-opacity:0.7;stroke-width:1.2;"/>
   </g>
   <g id="line2d_90">
    <path clip-path="url(#p7be102cbda)" d="M 611.544464 58.107267 
L 605.021735 57.485496 
L 597.616418 57.009638 
L 589.158601 56.70732 
L 577.561297 56.325768 
L 569.735099 55.978154 
L 565.552539 56.021209 
L 561.867345 56.269829 
L 558.226086 56.751874 
L 555.574545 57.353308 
L 555.332169 57.545944 
L 555.351432 57.563184 
L 555.653866 57.651356 
L 557.23579 57.792208 
L 561.637096 57.938117 
L 568.634539 57.929417 
L 582.57354 57.843139 
L 592.300455 58.130734 
L 603.269931 58.388949 
L 611.077196 58.346536 
L 611.540335 58.335273 
L 611.540335 58.335273 
" style="fill:none;stroke:#000000;stroke-linecap:square;stroke-opacity:0.7;stroke-width:1.2;"/>
   </g>
   <g id="line2d_91">
    <path clip-path="url(#p7be102cbda)" d="M 675.490909 229.937614 
L 671.24255 228.610595 
L 665.967512 227.210684 
L 660.907936 226.091731 
L 655.453625 225.124552 
L 650.408887 224.472596 
L 645.732475 224.10956 
L 641.640833 224.01569 
L 637.743735 224.152714 
L 634.076755 224.511969 
L 630.754539 225.055115 
L 627.594697 225.789803 
L 625.061747 226.55654 
L 622.389887 227.577587 
L 620.180854 228.673689 
L 619.160716 229.431246 
L 619.011397 229.763925 
L 619.110404 229.97352 
L 619.580281 230.256766 
L 620.808046 230.631827 
L 622.932498 231.061136 
L 626.408982 231.525367 
L 630.316375 231.777925 
L 634.041573 231.767062 
L 637.39475 231.5501 
L 640.992649 231.107664 
L 645.402281 230.317306 
L 652.979041 228.867299 
L 656.456386 228.495861 
L 659.647146 228.397363 
L 663.048205 228.518778 
L 667.013045 228.890125 
L 672.095002 229.614505 
L 675.489264 230.183756 
L 675.489264 230.183756 
" style="fill:none;stroke:#000000;stroke-linecap:square;stroke-opacity:0.7;stroke-width:1.2;"/>
   </g>
   <g id="line2d_92">
    <path clip-path="url(#p7be102cbda)" d="M 675.216123 211.248227 
L 667.571227 209.099844 
L 661.520276 207.63186 
L 656.579388 206.641017 
L 651.904801 205.910946 
L 647.758365 205.451555 
L 643.576468 205.180793 
L 639.265776 205.123893 
L 635.354355 205.297895 
L 631.835325 205.674179 
L 628.728854 206.216454 
L 625.936439 206.912108 
L 623.694879 207.653672 
L 621.609895 208.552611 
L 620.323843 209.28241 
L 619.347271 210.107863 
L 619.123649 210.54954 
L 619.163594 210.863527 
L 619.458116 211.189604 
L 620.094858 211.510474 
L 621.269068 211.847503 
L 623.566906 212.232297 
L 626.346691 212.490208 
L 630.26508 212.617904 
L 634.126383 212.523862 
L 638.210956 212.203731 
L 642.627458 211.613731 
L 648.309049 210.582102 
L 652.141235 209.926271 
L 655.622433 209.565534 
L 658.967299 209.49331 
L 662.520242 209.674525 
L 666.864863 210.15687 
L 672.867145 211.08815 
L 675.220766 211.475777 
L 675.220766 211.475777 
" style="fill:none;stroke:#000000;stroke-linecap:square;stroke-opacity:0.7;stroke-width:1.2;"/>
   </g>
   <g id="line2d_93">
    <path clip-path="url(#p7be102cbda)" d="M 675.371048 192.107422 
L 668.913749 190.424328 
L 663.824642 189.332602 
L 658.760869 188.470277 
L 653.842396 187.840128 
L 648.103877 187.340649 
L 642.623122 187.085365 
L 637.647281 187.082985 
L 633.862119 187.282066 
L 630.316608 187.672244 
L 627.108611 188.231563 
L 624.262641 188.924427 
L 621.517227 189.821457 
L 619.844089 190.582746 
L 619.238623 191.063934 
L 619.173433 191.359865 
L 619.361741 191.592756 
L 619.944626 191.878635 
L 621.467196 192.275132 
L 624.621595 192.742561 
L 628.002417 193.013006 
L 632.352012 193.114526 
L 636.457674 192.987888 
L 640.573095 192.661547 
L 645.702986 192.023546 
L 653.126046 191.052352 
L 656.529555 190.827243 
L 660.244344 190.810647 
L 664.298185 191.026489 
L 669.562484 191.563595 
L 675.373026 192.345932 
L 675.373026 192.345932 
" style="fill:none;stroke:#000000;stroke-linecap:square;stroke-opacity:0.7;stroke-width:1.2;"/>
   </g>
   <g id="line2d_94">
    <path clip-path="url(#p7be102cbda)" d="M 675.330035 172.674257 
L 669.675294 171.544664 
L 662.54159 170.349775 
L 654.746221 169.256 
L 647.727801 168.479404 
L 641.466467 168.007637 
L 637.268478 167.882132 
L 633.156747 167.991237 
L 629.917108 168.291053 
L 627.084112 168.742914 
L 624.139581 169.435145 
L 621.426521 170.319441 
L 619.498715 171.167701 
L 618.484983 171.833709 
L 618.244192 172.194703 
L 618.324339 172.480748 
L 618.79005 172.771411 
L 619.752759 173.04714 
L 621.9719 173.38261 
L 625.560004 173.636677 
L 629.672872 173.682086 
L 634.017928 173.509979 
L 639.301131 173.054855 
L 652.730516 171.684207 
L 656.905293 171.600889 
L 661.606859 171.733675 
L 668.075475 172.171389 
L 675.359892 172.800294 
L 675.359892 172.800294 
" style="fill:none;stroke:#000000;stroke-linecap:square;stroke-opacity:0.7;stroke-width:1.2;"/>
   </g>
   <g id="line2d_95">
    <path clip-path="url(#p7be102cbda)" d="M 675.419649 153.481169 
L 668.648232 152.291044 
L 661.682406 151.293815 
L 652.701778 150.250474 
L 643.443788 149.367332 
L 638.652159 149.12715 
L 635.359549 149.144447 
L 632.099497 149.359867 
L 629.228147 149.747398 
L 626.345277 150.3584 
L 624.055533 151.034692 
L 621.760124 151.935704 
L 620.032309 152.87056 
L 619.481908 153.326305 
L 619.319743 153.679408 
L 619.481598 153.910654 
L 620.066587 154.131408 
L 621.808775 154.373727 
L 625.224364 154.537891 
L 629.595512 154.520728 
L 634.467639 154.298276 
L 641.659393 153.716825 
L 650.87556 152.973796 
L 655.546099 152.830961 
L 660.554614 152.905912 
L 667.384653 153.266909 
L 675.428479 153.781553 
L 675.428479 153.781553 
" style="fill:none;stroke:#000000;stroke-linecap:square;stroke-opacity:0.7;stroke-width:1.2;"/>
   </g>
   <g id="line2d_96">
    <path clip-path="url(#p7be102cbda)" d="M 675.388777 134.428655 
L 664.844965 132.844352 
L 657.310076 131.929824 
L 650.290924 131.289559 
L 643.192049 130.873067 
L 637.135194 130.746588 
L 632.342171 130.884345 
L 628.610731 131.211343 
L 625.622071 131.664546 
L 622.628879 132.355268 
L 620.471706 133.081789 
L 619.067605 133.786417 
L 618.559698 134.294151 
L 618.597197 134.559735 
L 618.892694 134.757934 
L 619.616948 134.954521 
L 621.301242 135.156784 
L 624.881 135.321313 
L 629.751407 135.326284 
L 635.917853 135.096985 
L 643.777419 134.53901 
L 652.024351 133.958193 
L 657.34177 133.82476 
L 662.973822 133.92634 
L 669.510106 134.275118 
L 675.392348 134.71196 
L 675.392348 134.71196 
" style="fill:none;stroke:#000000;stroke-linecap:square;stroke-opacity:0.7;stroke-width:1.2;"/>
   </g>
   <g id="line2d_97">
    <path clip-path="url(#p7be102cbda)" d="M 675.306412 116.082014 
L 668.076139 114.968518 
L 658.813514 113.746303 
L 652.023697 113.037059 
L 646.304383 112.662312 
L 639.510615 112.485976 
L 633.075407 112.542556 
L 628.67909 112.779454 
L 624.773486 113.206648 
L 621.766322 113.751525 
L 619.285633 114.465874 
L 618.381224 114.920786 
L 618.218782 115.135832 
L 618.446615 115.381839 
L 618.96948 115.527299 
L 620.551814 115.728026 
L 624.383134 115.94653 
L 629.230535 116.010788 
L 634.984126 115.853661 
L 643.119863 115.372709 
L 650.819555 114.995146 
L 655.84445 114.956808 
L 661.788031 115.150905 
L 668.414261 115.611346 
L 675.309166 116.307519 
L 675.309166 116.307519 
" style="fill:none;stroke:#000000;stroke-linecap:square;stroke-opacity:0.7;stroke-width:1.2;"/>
   </g>
   <g id="line2d_98">
    <path clip-path="url(#p7be102cbda)" d="M 675.386163 96.251738 
L 668.144747 95.237094 
L 662.261752 94.635147 
L 655.832626 94.212981 
L 647.337338 93.921978 
L 632.320081 93.569705 
L 627.846102 93.787907 
L 624.443129 94.15102 
L 621.496468 94.655053 
L 619.36898 95.228353 
L 618.530512 95.644341 
L 618.383523 95.924935 
L 618.529815 96.102525 
L 619.137103 96.336239 
L 620.590936 96.570236 
L 622.707476 96.714278 
L 626.987275 96.746831 
L 632.386538 96.546183 
L 650.270449 95.675111 
L 656.433704 95.81236 
L 675.388007 96.419929 
L 675.388007 96.419929 
" style="fill:none;stroke:#000000;stroke-linecap:square;stroke-opacity:0.7;stroke-width:1.2;"/>
   </g>
   <g id="line2d_99">
    <path clip-path="url(#p7be102cbda)" d="M 675.093057 77.334412 
L 669.267643 76.625869 
L 662.08152 75.98645 
L 654.424462 75.5496 
L 635.274272 74.884865 
L 630.581284 74.944064 
L 626.780193 75.198042 
L 623.277404 75.634879 
L 620.340392 76.224569 
L 619.242071 76.616238 
L 619.123526 76.831281 
L 619.275975 76.930146 
L 619.902136 77.081317 
L 621.851306 77.280308 
L 626.337847 77.457951 
L 632.504006 77.45956 
L 640.624077 77.215211 
L 650.094538 76.934538 
L 656.613798 77.00885 
L 675.078547 77.612357 
L 675.078547 77.612357 
" style="fill:none;stroke:#000000;stroke-linecap:square;stroke-opacity:0.7;stroke-width:1.2;"/>
   </g>
   <g id="line2d_100">
    <path clip-path="url(#p7be102cbda)" d="M 675.477214 57.749132 
L 666.693681 57.441277 
L 645.197077 56.486071 
L 639.699758 55.761349 
L 634.495266 55.159258 
L 631.006507 54.985794 
L 628.247165 55.033274 
L 625.563283 55.271761 
L 623.039548 55.710834 
L 620.831598 56.326873 
L 619.274012 56.979877 
L 618.533306 57.451467 
L 618.211251 57.937289 
L 618.321322 58.13672 
L 618.700555 58.314288 
L 619.314435 58.431261 
L 621.387779 58.528369 
L 624.944476 58.426044 
L 631.399393 57.989018 
L 642.456113 57.210709 
L 646.981173 57.178914 
L 651.167458 57.378765 
L 661.829947 57.964929 
L 668.662584 58.067532 
L 675.482972 57.939373 
L 675.482972 57.939373 
" style="fill:none;stroke:#000000;stroke-linecap:square;stroke-opacity:0.7;stroke-width:1.2;"/>
   </g>
  </g>
 </g>
 <defs>
  <clipPath id="p7be102cbda">
   <rect height="262.08" width="694.08" x="12.96" y="12.96"/>
  </clipPath>
 </defs>
</svg>
