<?xml version="1.0" encoding="utf-8" standalone="no"?>
<!DOCTYPE svg PUBLIC "-//W3C//DTD SVG 1.1//EN"
  "http://www.w3.org/Graphics/SVG/1.1/DTD/svg11.dtd">
<!-- Created with matplotlib (https://matplotlib.org/) -->
<svg height="288pt" version="1.1" viewBox="0 0 720 288" width="720pt" xmlns="http://www.w3.org/2000/svg" xmlns:xlink="http://www.w3.org/1999/xlink">
 <defs>
  <style type="text/css">
*{stroke-linecap:butt;stroke-linejoin:round;}
  </style>
 </defs>
 <g id="figure_1">
  <g id="patch_1">
   <path d="M 0 288 
L 720 288 
L 720 0 
L 0 0 
z
" style="fill:#ffffff;"/>
  </g>
  <g id="axes_1">
   <g id="line2d_1">
    <path clip-path="url(#p2231321d90)" d="M 150.070768 223.804863 
L 146.397626 222.640307 
L 142.701646 221.710076 
L 137.043278 220.566921 
L 130.684534 219.529462 
L 121.805285 218.336131 
L 83.296939 213.769885 
L 78.436533 213.445182 
L 71.235094 213.365781 
L 67.372149 213.590809 
L 62.831571 214.185624 
L 58.025914 215.338099 
L 55.581527 216.187686 
L 51.636111 218.006047 
L 48.822674 219.68368 
L 47.054802 220.953606 
L 45.422012 222.435887 
L 44.636227 223.583771 
L 44.509091 224.052773 
L 44.862329 224.997965 
L 45.610976 225.472683 
L 46.318773 225.718875 
L 48.131232 226.048048 
L 50.093809 226.182439 
L 54.347298 226.110192 
L 58.166321 225.799026 
L 63.013713 225.173783 
L 67.544686 224.400451 
L 75.33969 222.793645 
L 81.502272 221.591174 
L 85.963377 220.949537 
L 90.892843 220.521106 
L 94.535729 220.40172 
L 99.155284 220.50768 
L 103.259798 220.840617 
L 108.490274 221.502797 
L 126.462179 223.979088 
L 132.817694 224.53645 
L 135.930511 224.679742 
L 140.287782 224.635104 
L 142.419123 224.448178 
L 143.483624 224.29419 
L 146.049435 223.681355 
L 146.744688 223.43436 
L 147.976418 222.872478 
L 149.107929 222.159442 
L 149.877428 221.509524 
L 149.877428 221.509524 
" style="fill:none;stroke:#000000;stroke-linecap:square;stroke-opacity:0.7;stroke-width:1.2;"/>
   </g>
   <g id="line2d_2">
    <path clip-path="url(#p2231321d90)" d="M 148.91213 187.694985 
L 145.775497 186.453947 
L 138.286415 183.873505 
L 129.362894 180.958015 
L 122.91597 179.08578 
L 117.725565 177.795488 
L 113.144284 176.843778 
L 107.519151 175.934264 
L 102.815382 175.400586 
L 97.538039 175.036103 
L 90.823426 174.832573 
L 64.49795 174.448822 
L 59.890701 174.735182 
L 56.519302 175.210236 
L 53.565082 175.910085 
L 50.942894 176.871017 
L 49.524065 177.616891 
L 48.22382 178.622643 
L 47.694295 179.3381 
L 47.530282 179.845209 
L 47.531847 180.198973 
L 47.744537 180.735236 
L 48.367794 181.346991 
L 49.340015 181.874916 
L 50.969296 182.426986 
L 53.948286 183.053016 
L 58.393472 183.667823 
L 67.490337 184.8672 
L 71.240606 185.580091 
L 74.702455 186.435171 
L 81.079958 188.44008 
L 84.427264 189.468235 
L 86.873436 190.058437 
L 89.900898 190.518768 
L 92.438852 190.664549 
L 94.81264 190.623564 
L 98.947539 190.237424 
L 104.8642 189.29461 
L 113.610233 187.856793 
L 119.385852 187.197556 
L 124.431402 186.846177 
L 134.749568 186.470346 
L 139.592711 186.191432 
L 143.389399 185.708332 
L 145.863896 185.095135 
L 147.515592 184.379234 
L 148.826171 183.302168 
L 149.127669 182.833366 
L 149.127669 182.833366 
" style="fill:none;stroke:#000000;stroke-linecap:square;stroke-opacity:0.7;stroke-width:1.2;"/>
   </g>
   <g id="line2d_3">
    <path clip-path="url(#p2231321d90)" d="M 148.826453 147.423711 
L 147.854508 147.099058 
L 145.425381 146.496892 
L 135.048251 144.400329 
L 121.068331 141.692682 
L 114.511287 140.650167 
L 107.919853 139.84319 
L 89.274755 138.016883 
L 82.351162 137.503536 
L 77.314908 137.363558 
L 72.524901 137.524972 
L 69.271725 137.867528 
L 65.763589 138.520251 
L 62.729287 139.372399 
L 59.811516 140.461965 
L 56.831699 141.823876 
L 53.625036 143.51438 
L 50.382105 145.433494 
L 47.308936 147.563097 
L 46.210779 148.544235 
L 45.658146 149.294264 
L 45.768637 150.010629 
L 46.521803 150.2494 
L 47.337608 150.27677 
L 49.452652 150.057642 
L 52.993404 149.365839 
L 60.170443 147.640297 
L 65.786214 146.385783 
L 70.309687 145.630265 
L 73.83082 145.257605 
L 78.160591 145.065396 
L 81.921611 145.116037 
L 86.566531 145.419086 
L 91.221607 145.947746 
L 95.36813 146.573902 
L 102.349427 147.860819 
L 114.782604 150.232877 
L 119.396744 150.87756 
L 123.784127 151.251475 
L 126.6949 151.334502 
L 130.276652 151.216212 
L 132.36606 151.016524 
L 135.718101 150.459641 
L 138.606412 149.705973 
L 140.366881 149.100638 
L 143.010469 147.947521 
L 145.168668 146.749562 
L 146.930604 145.561964 
L 148.776029 144.046497 
L 149.401363 143.433384 
L 149.401363 143.433384 
" style="fill:none;stroke:#000000;stroke-linecap:square;stroke-opacity:0.7;stroke-width:1.2;"/>
   </g>
   <g id="line2d_4">
    <path clip-path="url(#p2231321d90)" d="M 148.446093 105.617182 
L 143.097288 105.194734 
L 136.251694 104.557197 
L 128.706582 103.585523 
L 119.326242 102.104831 
L 106.223183 99.98919 
L 99.931066 99.229324 
L 94.535998 98.819704 
L 88.879832 98.617793 
L 81.080384 98.601781 
L 73.157515 98.797213 
L 67.593985 99.126789 
L 62.849036 99.654813 
L 58.695984 100.40316 
L 54.563195 101.529548 
L 52.057406 102.517564 
L 51.045029 103.043764 
L 50.087045 103.68988 
L 49.351441 104.48778 
L 49.190415 104.875587 
L 49.190159 105.324908 
L 49.45623 105.807315 
L 49.793423 106.105861 
L 50.155227 106.329367 
L 51.488964 106.841728 
L 53.139794 107.195801 
L 55.386493 107.451343 
L 58.879488 107.558316 
L 62.678094 107.411641 
L 67.284427 106.963902 
L 72.584947 106.178232 
L 88.718375 103.491015 
L 93.290432 103.056992 
L 97.517963 102.888725 
L 101.672409 102.962427 
L 105.399417 103.22973 
L 110.328212 103.842113 
L 116.945644 104.977611 
L 124.268513 106.28934 
L 128.551224 106.869054 
L 132.006645 107.118357 
L 133.91965 107.137096 
L 136.715775 106.966251 
L 139.346859 106.539575 
L 141.13648 106.070494 
L 143.447523 105.207694 
L 145.544757 104.117028 
L 146.998999 103.127982 
L 148.236342 102.040083 
L 148.236342 102.040083 
" style="fill:none;stroke:#000000;stroke-linecap:square;stroke-opacity:0.7;stroke-width:1.2;"/>
   </g>
   <g id="line2d_5">
    <path clip-path="url(#p2231321d90)" d="M 149.15854 66.365286 
L 146.556509 65.797273 
L 143.573415 64.85735 
L 138.847411 62.988065 
L 130.204331 59.4899 
L 125.646985 57.937317 
L 121.646835 56.831851 
L 118.274696 56.105224 
L 114.366557 55.500557 
L 110.824343 55.163764 
L 106.857829 55.002194 
L 102.528764 55.039454 
L 94.820776 55.409681 
L 85.900786 55.796319 
L 77.851564 55.89921 
L 70.44593 56.024469 
L 67.415605 56.25151 
L 64.462125 56.685081 
L 61.402539 57.397415 
L 58.617186 58.277993 
L 56.401719 59.162523 
L 54.359904 60.220558 
L 53.412081 60.878718 
L 52.182082 62.427782 
L 52.120426 63.25988 
L 52.252836 63.682603 
L 53.797716 65.319068 
L 55.486792 66.30782 
L 58.203678 67.511866 
L 61.972499 68.884799 
L 68.726372 71.037696 
L 74.035571 72.543859 
L 76.853586 73.214658 
L 80.935639 73.90963 
L 83.385918 74.128726 
L 86.441301 74.178234 
L 89.141326 74.02364 
L 91.501246 73.750567 
L 96.178329 72.89156 
L 100.537349 71.805544 
L 105.596883 70.347543 
L 114.561541 67.745848 
L 120.016058 66.405486 
L 124.645875 65.47032 
L 130.529903 64.530524 
L 136.301139 63.843099 
L 141.094479 63.456499 
L 144.762341 63.343593 
L 147.419511 63.513178 
L 148.454646 63.768087 
L 148.844036 63.967109 
L 148.844036 63.967109 
" style="fill:none;stroke:#000000;stroke-linecap:square;stroke-opacity:0.7;stroke-width:1.2;"/>
   </g>
   <g id="line2d_6">
    <path clip-path="url(#p2231321d90)" d="M 280.076871 225.958749 
L 277.999434 224.615285 
L 274.970344 222.982794 
L 271.610715 221.474887 
L 267.260098 219.812614 
L 261.685526 217.977285 
L 254.896996 216.023225 
L 247.358055 214.111951 
L 238.839896 212.215819 
L 228.343788 210.153448 
L 222.328325 209.119462 
L 217.844422 208.53553 
L 215.12989 208.336163 
L 212.612906 208.309167 
L 209.03006 208.613223 
L 206.081709 209.202801 
L 202.868448 210.167854 
L 200.322934 211.122711 
L 196.618131 212.740724 
L 192.960247 214.574407 
L 190.229806 216.117285 
L 187.181235 218.082315 
L 184.571171 220.082438 
L 183.807606 220.755794 
L 181.538608 223.232291 
L 180.727262 224.5389 
L 180.562059 224.891138 
L 180.239876 225.879254 
L 180.172854 226.927519 
L 180.348292 227.659162 
L 180.795415 228.403702 
L 181.423094 228.979082 
L 182.236002 229.444957 
L 183.375375 229.849669 
L 184.663278 230.114835 
L 187.289823 230.305823 
L 190.103202 230.213066 
L 194.565155 229.740564 
L 208.579636 227.822635 
L 213.587879 227.425706 
L 218.432558 227.277175 
L 223.272267 227.355329 
L 227.953592 227.615237 
L 236.391517 228.36672 
L 244.873061 229.131647 
L 250.539023 229.431389 
L 255.617401 229.441903 
L 259.3246 229.246301 
L 263.226186 228.810022 
L 266.589119 228.200192 
L 268.739686 227.669045 
L 271.707868 226.701128 
L 273.659069 225.866402 
L 275.7175 224.734139 
L 277.450214 223.461691 
L 278.430192 222.518172 
L 279.64146 220.878001 
L 280.069334 220.003281 
L 280.069334 220.003281 
" style="fill:none;stroke:#000000;stroke-linecap:square;stroke-opacity:0.7;stroke-width:1.2;"/>
   </g>
   <g id="line2d_7">
    <path clip-path="url(#p2231321d90)" d="M 279.242558 186.250651 
L 277.133716 185.848878 
L 272.32695 185.119604 
L 268.367146 184.223523 
L 255.554355 181.063793 
L 250.710178 180.169621 
L 246.233907 179.56475 
L 241.507789 179.174301 
L 236.632403 179.050275 
L 232.379716 179.171643 
L 227.942198 179.489262 
L 216.2792 180.477366 
L 209.674397 180.719022 
L 191.184145 181.074133 
L 186.836615 181.563421 
L 184.21365 182.016351 
L 180.044723 183.106615 
L 178.942975 183.624432 
L 178.77023 183.889166 
L 178.901151 184.017324 
L 179.719953 184.175709 
L 181.813247 184.194727 
L 187.051421 183.920022 
L 194.464169 183.575451 
L 198.115214 183.56553 
L 202.483407 183.793567 
L 205.425968 184.131798 
L 209.997238 184.952109 
L 223.805941 187.850891 
L 228.281428 188.420145 
L 233.092646 188.785789 
L 238.486877 188.957606 
L 246.071625 188.950039 
L 260.799648 188.684845 
L 265.658944 188.363021 
L 268.992599 187.91063 
L 271.137228 187.45333 
L 272.948578 186.917193 
L 274.093853 186.480598 
L 276.261972 185.337671 
L 277.168951 184.664372 
L 278.048703 183.810933 
L 278.590335 183.114195 
L 279.141937 182.118926 
L 279.141937 182.118926 
" style="fill:none;stroke:#000000;stroke-linecap:square;stroke-opacity:0.7;stroke-width:1.2;"/>
   </g>
   <g id="line2d_8">
    <path clip-path="url(#p2231321d90)" d="M 280.372281 148.121804 
L 277.556742 147.430668 
L 262.248792 144.10374 
L 256.896538 142.566557 
L 250.400778 140.381692 
L 237.978524 136.003539 
L 234.724727 135.037855 
L 230.37675 133.968375 
L 226.592057 133.239455 
L 222.071405 132.555659 
L 215.073271 131.735441 
L 209.938011 131.312344 
L 206.078834 131.215561 
L 204.360304 131.283293 
L 202.061652 131.527339 
L 200.054933 131.914412 
L 197.715683 132.593598 
L 195.343885 133.533525 
L 193.412584 134.474222 
L 191.511788 135.542666 
L 189.163014 137.050731 
L 185.82739 139.569399 
L 184.498143 140.719264 
L 181.78736 143.436255 
L 180.86184 144.535353 
L 179.223313 146.915246 
L 178.644772 148.041814 
L 178.131336 149.476792 
L 177.944263 150.636639 
L 178.109899 152.076824 
L 178.406855 152.745145 
L 179.241726 153.695728 
L 179.763926 154.050717 
L 180.756488 154.49827 
L 182.931421 154.940639 
L 184.487485 155.004804 
L 186.203056 154.924511 
L 188.261199 154.680125 
L 192.395391 153.869281 
L 197.50364 152.548945 
L 207.014759 150.009704 
L 214.260714 148.494026 
L 219.249072 147.755147 
L 222.37893 147.428212 
L 226.64133 147.16108 
L 231.294082 147.114529 
L 236.194696 147.342694 
L 241.775664 147.890123 
L 252.471393 149.067841 
L 256.656556 149.245911 
L 260.837574 149.117925 
L 264.014322 148.772088 
L 265.421715 148.541774 
L 268.349688 147.895587 
L 271.570168 146.893777 
L 273.158436 146.270864 
L 275.099101 145.373681 
L 277.368487 144.089759 
L 278.229853 143.515706 
L 280.323218 141.779347 
L 280.627984 141.447869 
L 280.627984 141.447869 
" style="fill:none;stroke:#000000;stroke-linecap:square;stroke-opacity:0.7;stroke-width:1.2;"/>
   </g>
   <g id="line2d_9">
    <path clip-path="url(#p2231321d90)" d="M 280.198976 106.842813 
L 267.591326 103.300486 
L 256.124725 100.142049 
L 249.498978 98.5281 
L 243.755629 97.378821 
L 239.0752 96.704209 
L 236.016061 96.426223 
L 232.898522 96.288291 
L 227.975273 96.347264 
L 222.726349 96.672313 
L 210.235289 97.80742 
L 199.442288 98.968546 
L 192.936203 99.903341 
L 188.233524 100.785189 
L 185.626341 101.4549 
L 183.962157 102.074733 
L 183.347275 102.395991 
L 182.478997 103.106839 
L 182.171858 103.718614 
L 182.236695 104.501858 
L 182.486972 104.990027 
L 184.435738 106.783731 
L 186.58571 108.073618 
L 190.081661 109.752113 
L 192.727303 110.84025 
L 197.14185 112.394308 
L 200.202445 113.257082 
L 202.985012 113.834168 
L 204.568321 114.051609 
L 207.375532 114.209939 
L 210.804227 114.012505 
L 213.297972 113.647193 
L 218.048445 112.636261 
L 231.51877 109.414933 
L 236.868773 108.440002 
L 242.030577 107.770409 
L 247.017929 107.374038 
L 254.488167 107.101151 
L 262.265096 106.834123 
L 265.674025 106.574006 
L 270.042345 105.983046 
L 273.363314 105.251408 
L 275.959226 104.435931 
L 278.006256 103.567527 
L 279.735258 102.536475 
L 280.162204 102.179676 
L 280.162204 102.179676 
" style="fill:none;stroke:#000000;stroke-linecap:square;stroke-opacity:0.7;stroke-width:1.2;"/>
   </g>
   <g id="line2d_10">
    <path clip-path="url(#p2231321d90)" d="M 281.114151 66.154208 
L 280.093125 66.364792 
L 278.270695 66.502378 
L 275.854159 66.322075 
L 273.09749 65.776248 
L 269.854391 64.840479 
L 265.880315 63.452567 
L 257.132815 60.291324 
L 253.254625 59.110308 
L 248.727178 58.003577 
L 246.317621 57.534162 
L 241.034014 56.759068 
L 235.740166 56.250989 
L 227.272298 55.721818 
L 211.758036 54.996806 
L 205.413405 54.947417 
L 200.954413 55.148816 
L 197.420192 55.532823 
L 195.664845 55.82328 
L 191.860089 56.746165 
L 188.934308 57.791457 
L 188.228088 58.095739 
L 185.803861 59.328569 
L 183.612331 60.804584 
L 182.529193 61.798367 
L 181.760424 62.852482 
L 181.628556 63.14261 
L 181.482582 63.866574 
L 181.695254 64.634909 
L 182.408113 65.338911 
L 183.354739 65.792356 
L 184.870041 66.168967 
L 187.032033 66.368501 
L 189.48167 66.326442 
L 191.390358 66.157679 
L 194.626441 65.661566 
L 197.115443 65.129319 
L 201.265437 64.006519 
L 209.876977 61.416159 
L 213.640792 60.702967 
L 215.745316 60.493464 
L 218.237204 60.403322 
L 221.587455 60.499309 
L 225.10537 60.79739 
L 231.1051 61.600645 
L 246.921879 64.035701 
L 251.780316 64.429118 
L 255.721722 64.504464 
L 259.539117 64.352973 
L 263.810083 63.935354 
L 268.529515 63.22543 
L 279.007918 61.475355 
L 280.972663 61.457798 
L 280.972663 61.457798 
" style="fill:none;stroke:#000000;stroke-linecap:square;stroke-opacity:0.7;stroke-width:1.2;"/>
   </g>
   <g id="line2d_11">
    <path clip-path="url(#p2231321d90)" d="M 411.666193 227.964512 
L 409.754843 226.971798 
L 406.478202 225.651805 
L 401.425879 223.895276 
L 396.954707 222.531832 
L 392.47636 221.365032 
L 387.863022 220.396302 
L 383.15526 219.660795 
L 378.795374 219.195405 
L 373.315899 218.85969 
L 366.394848 218.709325 
L 352.713107 218.555214 
L 344.692837 218.172952 
L 329.178963 217.216489 
L 324.953573 217.437601 
L 321.596321 217.993729 
L 318.931887 218.674196 
L 316.134687 219.661546 
L 314.25765 220.551824 
L 313.706007 220.865878 
L 311.911441 222.183281 
L 311.656754 222.433684 
L 310.828062 223.559745 
L 310.711548 223.814163 
L 310.526135 225.064743 
L 310.789904 225.908063 
L 311.477127 226.812892 
L 312.333952 227.498294 
L 313.081498 227.943047 
L 315.464735 228.926395 
L 317.646992 229.52288 
L 320.633766 230.086847 
L 324.59633 230.567409 
L 328.804008 230.878397 
L 334.996345 231.090794 
L 339.266018 231.066717 
L 344.914004 230.78896 
L 349.165255 230.400138 
L 354.826316 229.679857 
L 362.103126 228.501032 
L 373.868517 226.295516 
L 388.15112 223.66428 
L 395.067888 222.599665 
L 400.111695 222.042129 
L 404.282623 221.799983 
L 407.889584 221.818693 
L 409.639493 221.937177 
L 411.919068 222.284962 
L 411.919068 222.284962 
" style="fill:none;stroke:#000000;stroke-linecap:square;stroke-opacity:0.7;stroke-width:1.2;"/>
   </g>
   <g id="line2d_12">
    <path clip-path="url(#p2231321d90)" d="M 412.486818 187.821313 
L 411.505066 186.865131 
L 410.137411 185.887506 
L 407.960757 184.743615 
L 405.528939 183.773908 
L 402.125541 182.72044 
L 398.606315 181.868464 
L 393.807689 180.975946 
L 387.671902 180.175485 
L 383.094007 179.782212 
L 376.151755 179.466169 
L 369.838267 179.409066 
L 347.363001 179.61095 
L 339.023113 179.945037 
L 331.551586 180.468415 
L 323.525132 181.28113 
L 307.27132 183.23571 
L 307.296784 183.194123 
L 307.697008 183.053016 
L 310.520745 182.466263 
L 315.827459 181.662871 
L 321.192809 181.093924 
L 324.233242 180.89356 
L 328.217334 180.804325 
L 332.913955 181.036211 
L 335.326257 181.33702 
L 339.111299 182.104151 
L 341.293289 182.718037 
L 345.425185 184.193641 
L 350.88544 186.536456 
L 355.138751 188.327869 
L 357.690061 189.239764 
L 360.926309 190.115069 
L 363.555255 190.56463 
L 366.789662 190.82041 
L 370.253718 190.815977 
L 373.713949 190.628621 
L 380.766804 189.992016 
L 396.032822 188.322553 
L 400.836534 187.603512 
L 403.641324 187.026656 
L 405.863993 186.413615 
L 407.215426 185.933683 
L 409.653972 184.714054 
L 410.404182 184.186977 
L 411.353821 183.33271 
L 411.896857 182.690951 
L 412.527365 181.668824 
L 412.527365 181.668824 
" style="fill:none;stroke:#000000;stroke-linecap:square;stroke-opacity:0.7;stroke-width:1.2;"/>
   </g>
   <g id="line2d_13">
    <path clip-path="url(#p2231321d90)" d="M 411.082428 146.08519 
L 409.780767 145.415152 
L 408.383865 144.931288 
L 406.392123 144.470778 
L 403.291879 144.002167 
L 387.006573 141.950555 
L 365.356402 138.679824 
L 360.349232 138.286814 
L 354.728743 138.09046 
L 348.454808 138.118377 
L 341.523041 138.374431 
L 334.034015 138.864854 
L 327.814214 139.443474 
L 320.790475 140.3452 
L 316.021768 141.190368 
L 312.915853 141.943636 
L 311.339965 142.50744 
L 310.675598 142.948171 
L 310.590516 143.213709 
L 310.937381 143.550105 
L 311.794913 143.842313 
L 313.481439 144.148393 
L 317.225009 144.530839 
L 327.328276 145.175315 
L 336.376923 145.848324 
L 344.167924 146.683813 
L 362.909717 148.971504 
L 368.480363 149.297771 
L 374.549867 149.394877 
L 381.891078 149.223859 
L 388.98164 148.791884 
L 394.642529 148.195805 
L 399.198545 147.450785 
L 403.177814 146.485594 
L 406.259572 145.412188 
L 408.124524 144.53099 
L 409.788373 143.463624 
L 410.429516 142.909853 
L 411.003843 142.25597 
L 411.003843 142.25597 
" style="fill:none;stroke:#000000;stroke-linecap:square;stroke-opacity:0.7;stroke-width:1.2;"/>
   </g>
   <g id="line2d_14">
    <path clip-path="url(#p2231321d90)" d="M 412.605749 108.154535 
L 412.060982 108.240653 
L 410.763384 108.25524 
L 409.114416 108.037214 
L 406.496137 107.397341 
L 403.25238 106.345292 
L 396.733079 103.898395 
L 386.855153 100.188788 
L 380.865864 98.173861 
L 375.712305 96.632989 
L 369.641547 95.063886 
L 363.386747 93.735747 
L 357.63047 92.785441 
L 354.636594 92.402157 
L 348.212502 91.870303 
L 344.836861 91.773652 
L 340.658248 91.861008 
L 336.198419 92.24478 
L 334.540745 92.471496 
L 328.704933 93.650253 
L 320.912952 95.663573 
L 317.801098 96.197517 
L 315.992866 96.777586 
L 312.90553 98.611271 
L 312.337932 99.201416 
L 311.700103 100.285106 
L 311.562354 101.230416 
L 311.719067 101.901784 
L 312.064506 102.503833 
L 312.841973 103.269567 
L 313.776227 103.861212 
L 315.271346 104.507657 
L 316.608209 104.919522 
L 318.819119 105.405148 
L 321.473403 105.799776 
L 329.511994 106.774022 
L 337.357323 108.185813 
L 340.259057 108.474839 
L 342.815845 108.593722 
L 345.756156 108.593369 
L 350.69348 108.315663 
L 352.628671 108.125463 
L 358.639763 107.29296 
L 365.63848 105.975098 
L 377.341188 103.619864 
L 381.890037 102.968957 
L 385.510975 102.657746 
L 390.281527 102.572019 
L 393.362915 102.720242 
L 397.358851 103.145755 
L 400.58653 103.667548 
L 409.808346 105.460119 
L 410.540935 105.511135 
L 412.254987 105.365925 
L 412.720893 105.216363 
L 412.720893 105.216363 
" style="fill:none;stroke:#000000;stroke-linecap:square;stroke-opacity:0.7;stroke-width:1.2;"/>
   </g>
   <g id="line2d_15">
    <path clip-path="url(#p2231321d90)" d="M 411.405405 68.655907 
L 404.948849 67.340386 
L 397.986549 66.368416 
L 391.532672 65.396844 
L 388.271588 64.743808 
L 383.889912 63.613296 
L 380.532741 62.543841 
L 369.503916 58.72858 
L 366.022885 57.924676 
L 363.906174 57.60516 
L 361.311557 57.385264 
L 358.194485 57.345813 
L 355.117565 57.509473 
L 352.039425 57.836838 
L 348.177972 58.430892 
L 341.779672 59.736944 
L 324.26952 63.647341 
L 319.765287 64.312976 
L 313.137235 64.926909 
L 311.766742 65.116905 
L 311.887409 65.212961 
L 313.003867 65.487025 
L 320.386717 67.117989 
L 324.998958 68.383764 
L 327.448774 69.149663 
L 338.416538 72.829459 
L 340.797666 73.366729 
L 343.467754 73.757436 
L 346.206639 73.956943 
L 349.345135 73.996738 
L 354.507498 73.775431 
L 360.501098 73.264904 
L 371.134454 72.073179 
L 383.709715 70.450921 
L 391.612266 69.240583 
L 396.074616 68.41659 
L 400.899316 67.339299 
L 404.542704 66.34824 
L 408.275769 65.116372 
L 410.96297 64.017989 
L 411.66398 63.664922 
L 411.66398 63.664922 
" style="fill:none;stroke:#000000;stroke-linecap:square;stroke-opacity:0.7;stroke-width:1.2;"/>
   </g>
   <g id="line2d_16">
    <path clip-path="url(#p2231321d90)" d="M 543.359855 224.01942 
L 538.946568 222.854499 
L 529.166886 220.674037 
L 522.092114 218.975563 
L 514.665507 216.940024 
L 499.056987 212.510112 
L 494.772206 211.616357 
L 492.120272 211.21893 
L 488.253548 210.880207 
L 484.737182 210.799636 
L 480.061939 210.933903 
L 474.73722 211.296945 
L 468.821302 211.927474 
L 464.506159 212.576353 
L 459.112863 213.653989 
L 456.23897 214.364962 
L 451.385428 215.845739 
L 448.286123 217.069894 
L 446.507275 217.946028 
L 444.854582 218.973409 
L 443.783372 219.864947 
L 443.303191 220.394275 
L 442.801561 221.182067 
L 442.530089 222.254149 
L 442.788152 223.419724 
L 443.303805 224.20275 
L 444.335191 225.154386 
L 444.553545 225.312797 
L 446.480899 226.410142 
L 448.269142 227.153993 
L 451.553658 228.165538 
L 455.565931 229.0214 
L 459.530418 229.580492 
L 463.112489 229.875108 
L 467.971036 229.938466 
L 471.220224 229.739912 
L 475.495303 229.251775 
L 493.743141 226.731976 
L 518.85997 223.046673 
L 525.975797 222.365964 
L 537.638924 221.34557 
L 540.910598 220.767973 
L 542.872748 220.054047 
L 543.336672 219.74141 
L 543.336672 219.74141 
" style="fill:none;stroke:#000000;stroke-linecap:square;stroke-opacity:0.7;stroke-width:1.2;"/>
   </g>
   <g id="line2d_17">
    <path clip-path="url(#p2231321d90)" d="M 542.670691 188.233412 
L 540.283226 185.676195 
L 537.783898 183.440505 
L 535.991617 182.069634 
L 533.37278 180.359164 
L 531.42563 179.281695 
L 529.067099 178.166339 
L 525.765168 176.898249 
L 522.521712 175.92118 
L 518.953467 175.082776 
L 515.074819 174.380388 
L 509.660359 173.65041 
L 505.50724 173.223527 
L 497.259163 172.607237 
L 490.658417 172.319331 
L 482.531388 172.208769 
L 471.93 172.30494 
L 465.278509 172.578904 
L 462.455816 172.83216 
L 458.642357 173.382611 
L 455.0586 174.162796 
L 451.81098 175.119055 
L 449.381891 176.014137 
L 446.216632 177.488175 
L 444.273692 178.664196 
L 442.888788 179.748838 
L 441.909098 180.80668 
L 441.295529 181.918585 
L 441.149134 182.884864 
L 441.305362 183.587308 
L 441.627952 184.162305 
L 442.093676 184.676885 
L 443.353262 185.536892 
L 445.491242 186.386737 
L 446.485821 186.659242 
L 449.160557 187.17409 
L 451.329779 187.432707 
L 455.098338 187.660511 
L 460.509649 187.672795 
L 473.395454 187.463723 
L 478.106013 187.748885 
L 485.200799 188.527994 
L 491.570667 189.149452 
L 495.932782 189.329312 
L 499.881687 189.261535 
L 503.31691 189.024532 
L 508.391663 188.42669 
L 516.464742 187.165999 
L 523.804285 186.067964 
L 530.03599 185.355118 
L 540.411714 184.292209 
L 541.813113 183.822496 
L 542.288142 183.524818 
L 542.645263 183.161545 
L 542.645263 183.161545 
" style="fill:none;stroke:#000000;stroke-linecap:square;stroke-opacity:0.7;stroke-width:1.2;"/>
   </g>
   <g id="line2d_18">
    <path clip-path="url(#p2231321d90)" d="M 543.293234 145.362475 
L 538.309733 143.401829 
L 534.939864 142.276419 
L 529.871814 140.817487 
L 523.39005 139.22295 
L 515.946783 137.640361 
L 509.354503 136.41656 
L 501.198838 135.143875 
L 494.291012 134.30354 
L 486.77099 133.637736 
L 478.822781 133.187521 
L 472.356572 133.045174 
L 467.315223 133.131659 
L 462.677132 133.408134 
L 458.648826 133.824307 
L 453.644033 134.592116 
L 450.68179 135.190743 
L 446.829684 136.159078 
L 442.889031 137.449986 
L 440.313934 138.568451 
L 438.624063 139.54967 
L 437.465216 140.529247 
L 436.901859 141.429144 
L 436.825784 141.982048 
L 436.927742 142.404164 
L 437.156893 142.785138 
L 438.154613 143.575449 
L 438.967339 143.95326 
L 440.881409 144.526662 
L 443.227544 144.934971 
L 448.504237 145.270165 
L 452.447297 145.185228 
L 456.354527 144.881192 
L 460.844666 144.294312 
L 466.199052 143.329464 
L 480.571659 140.528601 
L 485.113412 139.95518 
L 489.386667 139.657783 
L 493.262418 139.609971 
L 497.047756 139.76193 
L 501.421676 140.146292 
L 507.263533 140.897077 
L 522.931093 143.118649 
L 527.482368 143.541694 
L 529.990683 143.665015 
L 533.894734 143.600873 
L 536.067794 143.352343 
L 538.322425 142.820521 
L 540.058037 142.086165 
L 540.654682 141.72424 
L 541.989472 140.524165 
L 542.375795 139.98405 
L 542.769913 139.208672 
L 542.769913 139.208672 
" style="fill:none;stroke:#000000;stroke-linecap:square;stroke-opacity:0.7;stroke-width:1.2;"/>
   </g>
   <g id="line2d_19">
    <path clip-path="url(#p2231321d90)" d="M 544.119716 108.267501 
L 540.026714 106.823564 
L 531.754438 103.866801 
L 525.753053 101.99336 
L 520.176782 100.534131 
L 514.615272 99.369103 
L 509.609579 98.560764 
L 504.100593 97.905844 
L 498.040927 97.429901 
L 491.943032 97.17791 
L 483.449262 97.107827 
L 473.917317 97.270041 
L 467.346997 97.607173 
L 462.712063 98.046744 
L 458.038686 98.724122 
L 453.18688 99.711314 
L 450.714414 100.326875 
L 445.749663 101.803162 
L 443.367892 102.668836 
L 440.930532 103.819749 
L 439.929049 104.59056 
L 439.642993 105.056892 
L 439.616375 105.425973 
L 440.114699 106.129624 
L 440.685586 106.499105 
L 441.098674 106.705065 
L 443.67319 107.605617 
L 447.593203 108.572139 
L 456.134673 110.345166 
L 462.502588 111.735857 
L 468.068829 113.142929 
L 479.909374 116.3718 
L 483.422467 117.022489 
L 486.476872 117.385802 
L 489.369231 117.555776 
L 493.257671 117.53431 
L 497.14701 117.258416 
L 501.0648 116.76829 
L 505.808212 115.964841 
L 513.898391 114.314596 
L 537.600026 109.163234 
L 539.124595 108.636739 
L 540.704522 107.925109 
L 542.467624 106.726638 
L 543.785289 105.149328 
L 544.183596 104.388993 
L 544.183596 104.388993 
" style="fill:none;stroke:#000000;stroke-linecap:square;stroke-opacity:0.7;stroke-width:1.2;"/>
   </g>
   <g id="line2d_20">
    <path clip-path="url(#p2231321d90)" d="M 542.490262 67.682815 
L 539.293103 66.807553 
L 532.146788 64.934784 
L 521.375897 62.011085 
L 516.060196 60.811887 
L 510.755355 59.857812 
L 505.409422 59.142572 
L 499.829038 58.620377 
L 490.777847 58.048333 
L 479.67861 57.547322 
L 473.774074 57.457832 
L 467.812316 57.570009 
L 463.190364 57.828036 
L 457.902572 58.342769 
L 453.518672 58.985678 
L 449.962689 59.691175 
L 446.357421 60.639438 
L 444.203409 61.373972 
L 442.550288 62.078667 
L 440.790991 63.091026 
L 439.903074 63.863391 
L 439.437638 64.553832 
L 439.316589 64.935251 
L 439.390712 65.724348 
L 439.897769 66.467964 
L 440.710792 67.099707 
L 441.727389 67.637044 
L 443.79538 68.395572 
L 446.695761 69.116621 
L 449.7318 69.650847 
L 454.510803 70.231333 
L 460.352041 70.680446 
L 468.038845 71.026896 
L 476.86879 71.22256 
L 483.114187 71.151353 
L 488.110208 70.890651 
L 495.097502 70.268679 
L 517.56525 68.009264 
L 527.68714 67.025265 
L 531.704491 66.46329 
L 535.654889 65.667539 
L 538.057498 64.963735 
L 540.110235 64.101126 
L 541.615935 63.132212 
L 542.582518 62.056068 
L 542.582518 62.056068 
" style="fill:none;stroke:#000000;stroke-linecap:square;stroke-opacity:0.7;stroke-width:1.2;"/>
   </g>
   <g id="line2d_21">
    <path clip-path="url(#p2231321d90)" d="M 674.923009 225.507093 
L 673.902008 225.426677 
L 672.016852 224.978571 
L 669.080375 223.941006 
L 660.195168 220.561559 
L 654.739114 218.788077 
L 650.326535 217.566392 
L 645.508376 216.442382 
L 640.965942 215.575523 
L 636.288078 214.8725 
L 631.509368 214.340352 
L 623.918511 213.767567 
L 604.124743 212.501255 
L 600.196992 212.553215 
L 596.659631 212.835715 
L 593.096778 213.37084 
L 590.215023 213.984574 
L 586.507704 214.994685 
L 582.425605 216.374685 
L 579.462141 217.556408 
L 575.875755 219.237933 
L 573.244459 220.743374 
L 572.271057 221.402246 
L 570.305321 223.115694 
L 569.661031 223.987763 
L 569.330683 224.740707 
L 569.259029 225.690578 
L 569.537781 226.470784 
L 570.255567 227.317056 
L 571.398162 228.103918 
L 572.529326 228.652922 
L 574.880967 229.47668 
L 577.571969 230.152456 
L 580.941049 230.785897 
L 586.600243 231.558542 
L 593.035617 232.192202 
L 600.75394 232.740029 
L 607.289244 233.016074 
L 612.475821 233.068987 
L 618.436471 232.923794 
L 624.801292 232.550915 
L 632.882065 231.845889 
L 642.931471 230.728695 
L 651.375397 229.568796 
L 658.70423 228.303833 
L 664.503677 227.025061 
L 668.572568 225.873085 
L 671.690477 224.712423 
L 673.370398 223.871969 
L 674.572573 223.02757 
L 674.86893 222.736343 
L 674.86893 222.736343 
" style="fill:none;stroke:#000000;stroke-linecap:square;stroke-opacity:0.7;stroke-width:1.2;"/>
   </g>
   <g id="line2d_22">
    <path clip-path="url(#p2231321d90)" d="M 674.758358 187.116344 
L 668.749134 184.766368 
L 662.855029 182.688109 
L 657.77741 181.136033 
L 652.610557 179.80486 
L 647.065126 178.653344 
L 642.102168 177.855132 
L 636.428706 177.193329 
L 631.465466 176.816109 
L 626.143676 176.596361 
L 619.464733 176.53484 
L 610.445978 176.705703 
L 603.479327 177.034787 
L 599.140985 177.394789 
L 594.342629 178.016027 
L 586.045846 179.448451 
L 581.88874 180.275552 
L 578.760285 181.116256 
L 577.084936 181.809159 
L 576.236484 182.408434 
L 575.963592 182.78164 
L 575.90633 183.402828 
L 576.077194 183.752468 
L 576.66521 184.336249 
L 577.635171 184.933729 
L 579.267454 185.653364 
L 581.887264 186.523349 
L 585.557186 187.472995 
L 590.300957 188.441335 
L 595.457844 189.254339 
L 601.490962 189.938546 
L 608.327549 190.477969 
L 617.040905 190.982583 
L 625.544158 191.248688 
L 632.413086 191.207211 
L 637.610038 190.981181 
L 643.94812 190.457858 
L 649.053945 189.842682 
L 655.496109 188.841899 
L 662.364247 187.508048 
L 667.373609 186.300429 
L 671.010506 185.166192 
L 672.885811 184.378646 
L 674.137438 183.65031 
L 674.717616 183.160725 
L 674.717616 183.160725 
" style="fill:none;stroke:#000000;stroke-linecap:square;stroke-opacity:0.7;stroke-width:1.2;"/>
   </g>
   <g id="line2d_23">
    <path clip-path="url(#p2231321d90)" d="M 674.983547 148.091692 
L 672.245064 147.012546 
L 661.522082 143.204741 
L 655.627795 141.327882 
L 651.901923 140.316973 
L 646.772425 139.188468 
L 642.48772 138.47365 
L 637.43916 137.854625 
L 629.364306 137.165811 
L 618.805174 136.252887 
L 601.311712 134.516704 
L 596.600338 134.473064 
L 593.114577 134.70254 
L 589.69406 135.180195 
L 588.682456 135.371769 
L 584.138296 136.523527 
L 581.265543 137.51101 
L 578.085702 138.888105 
L 575.704379 140.201145 
L 573.740659 141.619793 
L 573.251273 142.063564 
L 572.299039 143.162014 
L 571.773854 144.143651 
L 571.590403 144.960381 
L 571.717929 145.963225 
L 572.129677 146.746123 
L 572.536926 147.222012 
L 573.059382 147.680021 
L 574.626622 148.618339 
L 575.998657 149.182318 
L 578.390206 149.878089 
L 581.580964 150.474844 
L 584.591933 150.816931 
L 589.051331 151.050277 
L 593.63046 151.031181 
L 598.831183 150.749023 
L 603.67347 150.262209 
L 608.133409 149.635831 
L 614.239585 148.548534 
L 630.066664 145.487323 
L 634.674966 144.891501 
L 638.990975 144.579286 
L 642.163402 144.503436 
L 648.530944 144.632274 
L 657.974312 144.896684 
L 662.612137 144.771161 
L 666.398773 144.430051 
L 670.074129 143.809271 
L 672.29745 143.234165 
L 674.176637 142.551633 
L 674.79908 142.256493 
L 674.79908 142.256493 
" style="fill:none;stroke:#000000;stroke-linecap:square;stroke-opacity:0.7;stroke-width:1.2;"/>
   </g>
   <g id="line2d_24">
    <path clip-path="url(#p2231321d90)" d="M 674.991624 109.687849 
L 670.313704 108.448605 
L 643.391846 100.989881 
L 636.095735 99.2254 
L 630.548322 98.100438 
L 625.997949 97.370042 
L 620.448122 96.740623 
L 615.981173 96.438671 
L 610.563383 96.306443 
L 606.248456 96.387696 
L 601.348465 96.700999 
L 597.346246 97.15636 
L 592.599645 97.963879 
L 588.395195 98.945759 
L 584.313997 100.157249 
L 582.398317 100.825958 
L 578.852057 102.296401 
L 576.525217 103.53674 
L 574.827999 104.769888 
L 573.965505 105.737041 
L 573.561989 106.863281 
L 573.597534 107.251571 
L 573.900645 107.908528 
L 574.477501 108.495819 
L 575.499182 109.124803 
L 578.364995 110.127511 
L 580.663087 110.628364 
L 584.122147 111.16258 
L 589.657007 111.752133 
L 596.481942 112.257479 
L 602.857458 112.508527 
L 609.054347 112.482292 
L 616.062912 112.172399 
L 627.021822 111.397639 
L 637.090386 110.753277 
L 654.006456 109.834837 
L 658.106023 109.330392 
L 661.611422 108.705149 
L 665.847146 107.643845 
L 667.43177 107.141505 
L 669.951328 106.193347 
L 672.484952 104.988641 
L 673.150895 104.610339 
L 675.012048 103.298364 
L 675.490909 102.845169 
L 675.490909 102.845169 
" style="fill:none;stroke:#000000;stroke-linecap:square;stroke-opacity:0.7;stroke-width:1.2;"/>
   </g>
   <g id="line2d_25">
    <path clip-path="url(#p2231321d90)" d="M 674.362108 69.783596 
L 670.302968 67.767722 
L 664.097476 64.681911 
L 659.486665 62.665452 
L 655.150878 61.043673 
L 651.376545 59.850822 
L 647.426761 58.809458 
L 642.477781 57.777399 
L 637.924085 57.067168 
L 632.935285 56.521212 
L 626.301298 56.11146 
L 604.274078 55.249638 
L 600.152488 55.052058 
L 596.665345 55.032099 
L 592.094081 55.399146 
L 589.331593 55.925712 
L 586.606755 56.703295 
L 583.603661 57.847895 
L 581.35244 58.884918 
L 577.880263 60.786006 
L 575.885442 62.135458 
L 575.362712 62.561373 
L 574.567323 63.397642 
L 574.316952 63.936132 
L 574.311159 64.111482 
L 574.442037 64.404446 
L 574.912817 64.697859 
L 575.994577 64.906352 
L 577.682392 64.933935 
L 580.584235 64.715891 
L 586.850801 63.922207 
L 593.35901 63.154308 
L 597.627862 62.887381 
L 602.014732 62.931091 
L 606.161405 63.286376 
L 611.685917 64.07424 
L 620.264232 65.343331 
L 624.973688 65.82768 
L 630.178164 66.11805 
L 635.697817 66.175564 
L 645.654779 65.974663 
L 655.217123 65.869177 
L 663.556396 65.989203 
L 671.381271 66.115461 
L 673.198873 65.974237 
L 673.979986 65.765352 
L 673.979986 65.765352 
" style="fill:none;stroke:#000000;stroke-linecap:square;stroke-opacity:0.7;stroke-width:1.2;"/>
   </g>
  </g>
 </g>
 <defs>
  <clipPath id="p2231321d90">
   <rect height="262.08" width="694.08" x="12.96" y="12.96"/>
  </clipPath>
 </defs>
</svg>
