<?xml version="1.0" encoding="utf-8" standalone="no"?>
<!DOCTYPE svg PUBLIC "-//W3C//DTD SVG 1.1//EN"
  "http://www.w3.org/Graphics/SVG/1.1/DTD/svg11.dtd">
<!-- Created with matplotlib (https://matplotlib.org/) -->
<svg height="288pt" version="1.1" viewBox="0 0 720 288" width="720pt" xmlns="http://www.w3.org/2000/svg" xmlns:xlink="http://www.w3.org/1999/xlink">
 <defs>
  <style type="text/css">
*{stroke-linecap:butt;stroke-linejoin:round;}
  </style>
 </defs>
 <g id="figure_1">
  <g id="patch_1">
   <path d="M 0 288 
L 720 288 
L 720 0 
L 0 0 
z
" style="fill:#ffffff;"/>
  </g>
  <g id="axes_1">
   <g id="line2d_1">
    <path clip-path="url(#p07c37072e7)" d="M 154.062436 222.258305 
L 148.107681 222.077925 
L 142.462101 221.654316 
L 135.18505 220.83454 
L 122.041716 219.053488 
L 91.540504 214.91148 
L 86.829384 214.576868 
L 82.963047 214.508287 
L 78.489846 214.683805 
L 73.542354 215.195245 
L 69.72731 215.812155 
L 66.286744 216.536935 
L 63.058649 217.373645 
L 59.157199 218.627623 
L 55.895063 219.964099 
L 53.50638 221.237888 
L 52.391534 222.006069 
L 51.172557 223.191725 
L 50.799609 223.810821 
L 50.630838 224.431614 
L 50.726127 225.139203 
L 51.03315 225.667064 
L 51.595986 226.202014 
L 52.738029 226.860117 
L 54.214663 227.405604 
L 57.074764 228.06068 
L 61.583745 228.599734 
L 65.385067 228.807261 
L 72.090307 228.876359 
L 82.783996 228.666641 
L 96.46739 228.456154 
L 121.127355 228.282001 
L 125.624748 228.000975 
L 131.354058 227.405162 
L 136.205377 226.69442 
L 141.881866 225.661176 
L 150.415107 223.844487 
L 154.095364 223.062186 
L 154.095364 223.062186 
" style="fill:none;stroke:#000000;stroke-linecap:square;stroke-opacity:0.7;stroke-width:1.2;"/>
   </g>
   <g id="line2d_2">
    <path clip-path="url(#p07c37072e7)" d="M 154.609388 186.451169 
L 150.91944 185.83235 
L 145.25378 184.614118 
L 135.310581 182.481826 
L 129.83166 181.508103 
L 123.570587 180.638279 
L 118.224901 180.110289 
L 112.072217 179.726136 
L 103.164339 179.458023 
L 88.705003 179.07302 
L 66.836382 178.24424 
L 62.330343 178.400223 
L 59.717879 178.635869 
L 57.125499 179.015314 
L 55.234789 179.408128 
L 52.621385 180.160906 
L 50.911104 180.829379 
L 50.113615 181.206266 
L 48.04886 182.499829 
L 47.212438 183.304083 
L 46.677427 184.214536 
L 46.60788 184.879996 
L 46.814562 185.431701 
L 47.345242 185.978072 
L 48.289062 186.486287 
L 49.754653 186.923889 
L 50.614641 187.086261 
L 55.348815 187.40777 
L 59.383332 187.282055 
L 65.669644 186.739591 
L 77.180651 185.614124 
L 82.637072 185.368455 
L 87.252195 185.357564 
L 93.962421 185.60563 
L 103.098769 186.23573 
L 114.526664 187.009568 
L 120.676496 187.20388 
L 126.464492 187.164815 
L 132.620692 186.887733 
L 141.101721 186.21285 
L 150.3494 185.463484 
L 152.76752 185.42773 
L 154.431285 185.554598 
L 154.431285 185.554598 
" style="fill:none;stroke:#000000;stroke-linecap:square;stroke-opacity:0.7;stroke-width:1.2;"/>
   </g>
   <g id="line2d_3">
    <path clip-path="url(#p07c37072e7)" d="M 153.962471 145.860741 
L 150.090331 143.972975 
L 146.422183 142.486661 
L 142.960457 141.357649 
L 139.573644 140.465144 
L 135.852078 139.677535 
L 131.208081 138.914873 
L 125.433778 138.2149 
L 117.193422 137.497488 
L 105.346313 136.495952 
L 99.241152 135.762294 
L 83.835154 133.669902 
L 79.193679 133.389015 
L 76.555048 133.397638 
L 73.247389 133.633027 
L 70.57319 134.043 
L 68.754281 134.452051 
L 65.40109 135.5233 
L 63.141964 136.508537 
L 60.836433 137.768507 
L 59.01898 138.975438 
L 57.317151 140.320003 
L 55.76306 141.798609 
L 54.361152 143.476053 
L 53.213651 145.447892 
L 52.884036 146.383048 
L 52.710577 147.612337 
L 52.916826 148.81894 
L 53.07171 149.171954 
L 53.492455 149.801075 
L 54.230803 150.47599 
L 56.147524 151.382715 
L 57.712571 151.737227 
L 60.144594 151.943744 
L 62.125638 151.912804 
L 65.348372 151.607746 
L 68.342442 151.124589 
L 73.405276 150.029066 
L 90.576686 145.91744 
L 95.149981 145.178246 
L 98.728926 144.783205 
L 102.500778 144.547409 
L 107.31145 144.492075 
L 113.248704 144.701529 
L 153.792352 146.99421 
L 153.792352 146.99421 
" style="fill:none;stroke:#000000;stroke-linecap:square;stroke-opacity:0.7;stroke-width:1.2;"/>
   </g>
   <g id="line2d_4">
    <path clip-path="url(#p07c37072e7)" d="M 153.966696 106.605301 
L 147.860236 104.821307 
L 143.321484 103.807096 
L 139.112677 103.101576 
L 133.643355 102.425391 
L 126.970906 101.839752 
L 117.415307 101.249657 
L 80.938857 99.386545 
L 75.256767 99.380162 
L 70.861628 99.602191 
L 66.722052 100.071272 
L 63.307524 100.707245 
L 60.606737 101.412415 
L 58.157613 102.248476 
L 55.717036 103.337431 
L 53.4469 104.746379 
L 52.874034 105.224693 
L 52.188269 105.962994 
L 51.725723 106.826911 
L 51.687643 107.534889 
L 51.846245 107.930721 
L 52.318233 108.43454 
L 53.202091 108.903261 
L 54.778913 109.309369 
L 55.685985 109.429604 
L 58.671503 109.52822 
L 62.13488 109.312874 
L 66.3542 108.785236 
L 81.459902 106.578642 
L 85.377741 106.397476 
L 88.81059 106.463448 
L 92.626044 106.77052 
L 97.209764 107.408855 
L 102.330457 108.365455 
L 120.563273 112.021452 
L 123.281343 112.372779 
L 127.460583 112.699792 
L 131.032817 112.730192 
L 134.058702 112.548119 
L 137.373718 112.111508 
L 141.041388 111.335627 
L 144.828046 110.245553 
L 151.985431 107.94243 
L 154.010633 107.616263 
L 154.010633 107.616263 
" style="fill:none;stroke:#000000;stroke-linecap:square;stroke-opacity:0.7;stroke-width:1.2;"/>
   </g>
   <g id="line2d_5">
    <path clip-path="url(#p07c37072e7)" d="M 154.517463 69.652637 
L 150.951759 68.889562 
L 129.047216 64.626346 
L 122.339074 63.517482 
L 115.839162 62.699819 
L 110.773779 62.299133 
L 104.965635 62.10382 
L 96.765379 62.129632 
L 84.952056 62.138451 
L 67.55493 62.030414 
L 61.190419 62.316698 
L 56.344556 62.816731 
L 52.693105 63.437776 
L 49.521869 64.233876 
L 47.152614 65.089597 
L 44.53973 67.017152 
L 44.533754 67.636804 
L 44.914128 68.124333 
L 45.209949 68.335152 
L 46.498174 68.892498 
L 48.536054 69.388022 
L 51.007557 69.761971 
L 55.550726 70.181255 
L 62.704002 70.578247 
L 75.727667 71.294703 
L 89.607811 72.139405 
L 96.67434 72.314224 
L 102.463911 72.259948 
L 108.274122 72.007421 
L 114.978262 71.454983 
L 121.342865 70.690638 
L 133.019935 69.15346 
L 137.824751 68.766449 
L 141.385374 68.659422 
L 145.450341 68.757906 
L 149.459947 69.116336 
L 152.874524 69.673127 
L 154.660085 70.10302 
L 154.660085 70.10302 
" style="fill:none;stroke:#000000;stroke-linecap:square;stroke-opacity:0.7;stroke-width:1.2;"/>
   </g>
   <g id="line2d_6">
    <path clip-path="url(#p07c37072e7)" d="M 284.730699 224.43142 
L 283.488984 223.589727 
L 282.966709 223.288981 
L 280.615768 222.189438 
L 278.260235 221.358719 
L 274.826031 220.434982 
L 270.455461 219.568216 
L 265.2684 218.825573 
L 259.375506 218.226995 
L 251.916681 217.701734 
L 239.008881 217.070295 
L 227.813756 216.667473 
L 220.180341 216.632744 
L 213.721713 216.849131 
L 206.654687 217.375455 
L 201.727961 217.96181 
L 198.389747 218.49584 
L 193.8217 219.467181 
L 190.076494 220.535819 
L 187.633667 221.40332 
L 184.305126 222.881126 
L 182.221557 224.093422 
L 180.822194 225.238296 
L 180.381769 225.81375 
L 180.168329 226.518618 
L 180.289586 226.984582 
L 180.754799 227.496304 
L 181.226274 227.788731 
L 182.842998 228.384206 
L 185.350849 228.90327 
L 188.507736 229.297051 
L 193.892532 229.632075 
L 197.515794 229.676081 
L 202.709689 229.505342 
L 208.670266 229.016796 
L 215.701375 228.168669 
L 224.722929 226.841919 
L 236.311724 224.886884 
L 248.57726 222.784002 
L 253.019235 222.216062 
L 257.117093 221.892401 
L 261.35707 221.805053 
L 265.354616 221.965664 
L 269.302844 222.348137 
L 272.814982 222.86232 
L 277.833793 223.856142 
L 282.832251 225.121564 
L 284.639737 225.642239 
L 284.639737 225.642239 
" style="fill:none;stroke:#000000;stroke-linecap:square;stroke-opacity:0.7;stroke-width:1.2;"/>
   </g>
   <g id="line2d_7">
    <path clip-path="url(#p07c37072e7)" d="M 284.377537 183.339459 
L 279.71797 182.569469 
L 272.920383 181.711117 
L 263.709645 180.787427 
L 243.816064 178.845332 
L 235.523173 177.796283 
L 217.717106 175.376642 
L 212.971113 175.059653 
L 209.353789 175.021185 
L 205.237941 175.239376 
L 202.345293 175.583437 
L 198.337968 176.352672 
L 195.666892 177.073565 
L 192.095374 178.330857 
L 190.893994 178.838465 
L 188.000706 180.270575 
L 185.860516 181.574365 
L 183.888375 183.072136 
L 182.531238 184.450392 
L 181.839443 185.499992 
L 181.544049 186.54595 
L 181.600819 187.045117 
L 181.85408 187.546906 
L 182.417634 188.041874 
L 182.843567 188.26122 
L 183.445434 188.469947 
L 184.994872 188.728485 
L 187.223813 188.749237 
L 190.347854 188.425585 
L 194.808262 187.586121 
L 207.546991 184.773416 
L 210.93542 184.294799 
L 214.478336 184.000772 
L 218.118601 183.917666 
L 222.023091 184.055 
L 226.838432 184.502146 
L 231.569775 185.183519 
L 238.002719 186.378 
L 249.804685 188.672675 
L 253.422901 189.166435 
L 257.332212 189.475807 
L 260.73214 189.522585 
L 264.914617 189.281652 
L 268.77517 188.777349 
L 272.310183 188.101833 
L 276.747734 187.016048 
L 284.442765 184.914429 
L 284.442765 184.914429 
" style="fill:none;stroke:#000000;stroke-linecap:square;stroke-opacity:0.7;stroke-width:1.2;"/>
   </g>
   <g id="line2d_8">
    <path clip-path="url(#p07c37072e7)" d="M 284.325299 144.027983 
L 283.375339 143.378195 
L 281.330262 142.331454 
L 279.493911 141.721894 
L 277.475288 141.309836 
L 274.628246 141.042099 
L 271.154063 141.030336 
L 267.452838 141.237318 
L 258.608731 142.06595 
L 250.769358 142.720561 
L 245.588982 142.9517 
L 241.027324 142.958433 
L 236.542369 142.74401 
L 232.11346 142.296058 
L 226.718993 141.477908 
L 218.442013 140.120243 
L 214.526656 139.680344 
L 210.775343 139.468714 
L 206.860243 139.492917 
L 203.041147 139.76866 
L 200.832924 140.045336 
L 196.034758 140.962775 
L 192.295629 142.022618 
L 189.662488 143.006833 
L 187.617726 143.971461 
L 186.956287 144.339726 
L 185.047053 145.70407 
L 184.431239 146.380836 
L 184.103681 146.969226 
L 184.030382 147.683386 
L 184.164025 148.033121 
L 184.677023 148.564113 
L 185.501802 148.983113 
L 187.39222 149.440868 
L 188.994887 149.609894 
L 193.399803 149.638429 
L 197.744094 149.363996 
L 205.673603 148.587417 
L 217.136281 147.489306 
L 224.6087 147.001781 
L 231.347958 146.781993 
L 238.246567 146.787736 
L 247.941246 147.0869 
L 257.322533 147.35137 
L 263.589228 147.290186 
L 269.429251 146.979764 
L 275.251877 146.422482 
L 281.744981 145.552867 
L 284.499687 145.115296 
L 284.499687 145.115296 
" style="fill:none;stroke:#000000;stroke-linecap:square;stroke-opacity:0.7;stroke-width:1.2;"/>
   </g>
   <g id="line2d_9">
    <path clip-path="url(#p07c37072e7)" d="M 284.193811 105.113825 
L 280.115237 103.525747 
L 277.252309 102.583244 
L 272.367093 101.246721 
L 267.595708 100.192363 
L 262.146422 99.212281 
L 255.781335 98.297929 
L 248.302199 97.468155 
L 239.760037 96.764842 
L 228.803171 96.112866 
L 219.563077 95.770316 
L 213.846345 95.807637 
L 209.316568 96.095808 
L 205.599761 96.566551 
L 202.725042 97.1043 
L 199.230218 97.987006 
L 196.702636 98.7926 
L 194.906417 99.4537 
L 190.291791 101.51412 
L 187.587351 103.034172 
L 185.346179 104.688467 
L 184.529437 105.597104 
L 184.257544 106.067968 
L 184.086596 106.886284 
L 184.248686 107.487781 
L 184.696798 108.091358 
L 185.310882 108.593368 
L 185.936096 108.976015 
L 187.909368 109.85571 
L 189.667765 110.451169 
L 192.979897 111.361922 
L 197.866816 112.446182 
L 203.192055 113.373476 
L 207.157465 113.870162 
L 211.2662 114.181318 
L 215.93946 114.273182 
L 220.632284 114.097286 
L 225.637075 113.643631 
L 231.307407 112.847842 
L 236.991643 111.816683 
L 248.193407 109.456092 
L 255.128646 108.090294 
L 259.71715 107.351613 
L 265.362289 106.687631 
L 269.6278 106.377082 
L 274.394544 106.213141 
L 281.85442 106.245544 
L 284.287587 106.272954 
L 284.287587 106.272954 
" style="fill:none;stroke:#000000;stroke-linecap:square;stroke-opacity:0.7;stroke-width:1.2;"/>
   </g>
   <g id="line2d_10">
    <path clip-path="url(#p07c37072e7)" d="M 284.069554 67.537233 
L 281.696912 67.564023 
L 278.73853 67.378772 
L 273.26038 66.758796 
L 264.223253 65.466611 
L 243.119836 62.382699 
L 236.910901 61.723614 
L 231.384766 61.383659 
L 227.558346 61.32619 
L 222.391714 61.491786 
L 217.099681 61.908355 
L 210.338423 62.677393 
L 198.572373 64.280815 
L 187.056817 66.025328 
L 181.572767 67.061549 
L 179.25495 67.679514 
L 178.422647 68.043647 
L 178.179627 68.315035 
L 178.286989 68.518079 
L 178.955075 68.785309 
L 180.958308 69.106793 
L 183.852657 69.353229 
L 196.645248 70.037892 
L 220.357875 71.296733 
L 226.232746 71.279163 
L 233.582288 71.015628 
L 242.65739 70.43412 
L 259.747344 69.035576 
L 276.217867 67.71319 
L 283.90748 67.174434 
L 283.90748 67.174434 
" style="fill:none;stroke:#000000;stroke-linecap:square;stroke-opacity:0.7;stroke-width:1.2;"/>
   </g>
   <g id="line2d_11">
    <path clip-path="url(#p07c37072e7)" d="M 415.110985 224.804265 
L 409.254709 224.070961 
L 376.754296 220.402919 
L 368.581952 219.823801 
L 362.282183 219.617945 
L 355.991426 219.647464 
L 349.622477 219.86913 
L 336.74651 220.57345 
L 327.9665 221.256152 
L 320.915476 222.06607 
L 315.573743 222.911671 
L 311.553851 223.748853 
L 308.805941 224.571203 
L 308.175784 224.919659 
L 308.090418 225.246029 
L 308.234048 225.36255 
L 309.021515 225.620249 
L 311.051972 225.925889 
L 327.694576 227.847028 
L 333.440188 228.918091 
L 346.781502 231.650228 
L 350.570051 232.197216 
L 354.223 232.544122 
L 358.323306 232.692883 
L 362.542249 232.556444 
L 366.466012 232.153158 
L 370.077666 231.548803 
L 373.844194 230.703531 
L 379.368164 229.179326 
L 387.418172 226.847837 
L 392.421637 225.654604 
L 395.447745 225.105733 
L 399.546547 224.616518 
L 402.587541 224.466214 
L 405.865281 224.532022 
L 409.46881 224.919676 
L 411.637528 225.348639 
L 414.126108 226.100042 
L 415.173579 226.55232 
L 415.173579 226.55232 
" style="fill:none;stroke:#000000;stroke-linecap:square;stroke-opacity:0.7;stroke-width:1.2;"/>
   </g>
   <g id="line2d_12">
    <path clip-path="url(#p07c37072e7)" d="M 414.811868 185.015349 
L 408.594689 182.590551 
L 401.815218 180.25981 
L 393.179956 177.576315 
L 384.831553 175.21243 
L 378.451418 173.635032 
L 373.164809 172.579895 
L 369.009401 171.976608 
L 364.402836 171.591872 
L 360.26667 171.517501 
L 355.91092 171.698089 
L 350.94475 172.168905 
L 345.086564 172.990621 
L 339.012243 174.083036 
L 333.997938 175.193261 
L 329.518463 176.416271 
L 325.710947 177.699044 
L 322.248748 179.122204 
L 319.517466 180.46854 
L 316.558343 182.257164 
L 315.290227 183.208871 
L 314.135478 184.304296 
L 313.59514 185.024801 
L 313.28133 185.743988 
L 313.237891 186.29534 
L 313.397993 186.809847 
L 313.765631 187.284525 
L 314.683849 187.917342 
L 315.972963 188.46278 
L 319.449522 189.404151 
L 323.841612 190.271907 
L 331.660122 191.56086 
L 339.674127 192.666441 
L 345.055168 193.261291 
L 351.457719 193.76073 
L 357.04821 193.956769 
L 360.751246 193.934729 
L 365.5915 193.692716 
L 369.919581 193.25101 
L 373.116703 192.783379 
L 379.06017 191.618784 
L 386.141143 189.881988 
L 395.042519 187.648796 
L 400.207009 186.574362 
L 404.455273 185.924586 
L 407.444061 185.649135 
L 410.277832 185.588653 
L 412.212613 185.717599 
L 414.226769 186.122245 
L 414.748503 186.315766 
L 414.748503 186.315766 
" style="fill:none;stroke:#000000;stroke-linecap:square;stroke-opacity:0.7;stroke-width:1.2;"/>
   </g>
   <g id="line2d_13">
    <path clip-path="url(#p07c37072e7)" d="M 415.143714 144.958185 
L 408.730253 143.068752 
L 392.150608 137.934046 
L 387.608402 136.843499 
L 382.618922 135.888349 
L 378.682405 135.307927 
L 373.610058 134.760965 
L 367.601841 134.353967 
L 360.36783 134.110455 
L 351.048474 134.049331 
L 343.622958 134.209159 
L 337.515027 134.571965 
L 332.287635 135.142507 
L 327.986615 135.866657 
L 324.009071 136.813457 
L 321.686824 137.525714 
L 318.991816 138.543586 
L 316.350801 139.807822 
L 315.107315 140.530089 
L 313.412069 141.712296 
L 311.85955 143.144802 
L 311.130471 144.080038 
L 310.643084 145.002125 
L 310.405652 146.116881 
L 310.612709 147.118272 
L 311.160777 147.886353 
L 311.722152 148.338032 
L 312.897479 148.926077 
L 314.405328 149.362929 
L 316.859205 149.71896 
L 320.145775 149.858244 
L 325.648547 149.753035 
L 332.290493 149.625677 
L 338.482805 149.788122 
L 347.203971 150.354199 
L 355.78497 150.860274 
L 362.198835 151.000133 
L 367.502144 150.90161 
L 373.207765 150.563582 
L 378.131507 150.097506 
L 388.046929 148.873747 
L 405.071045 146.752999 
L 411.090066 146.162445 
L 414.561255 146.023765 
L 415.156947 146.061446 
L 415.156947 146.061446 
" style="fill:none;stroke:#000000;stroke-linecap:square;stroke-opacity:0.7;stroke-width:1.2;"/>
   </g>
   <g id="line2d_14">
    <path clip-path="url(#p07c37072e7)" d="M 415.072993 105.95926 
L 405.380246 104.065244 
L 399.503027 103.225649 
L 392.305954 102.451628 
L 383.426963 101.745731 
L 358.990312 100.170479 
L 347.655656 99.560589 
L 341.230711 99.424573 
L 334.906905 99.555037 
L 330.031542 99.901967 
L 325.861933 100.420561 
L 322.055094 101.121312 
L 317.793725 102.244115 
L 314.069117 103.642804 
L 311.940366 104.719092 
L 310.523405 105.63289 
L 309.156826 106.846324 
L 308.606573 107.632953 
L 308.384993 108.332584 
L 308.542807 109.125353 
L 309.102638 109.725526 
L 309.559566 109.998238 
L 310.484127 110.35415 
L 312.08063 110.691548 
L 312.921676 110.793129 
L 317.721472 110.882025 
L 322.59972 110.514882 
L 327.369782 109.899058 
L 333.081897 108.919155 
L 339.637195 107.548732 
L 360.685831 102.850759 
L 365.006239 102.190743 
L 368.585481 101.822186 
L 373.066156 101.625715 
L 376.652213 101.675181 
L 381.439584 101.963247 
L 388.519116 102.663669 
L 397.375959 103.778919 
L 406.238542 105.121919 
L 412.818314 106.326862 
L 414.852904 106.721067 
L 414.852904 106.721067 
" style="fill:none;stroke:#000000;stroke-linecap:square;stroke-opacity:0.7;stroke-width:1.2;"/>
   </g>
   <g id="line2d_15">
    <path clip-path="url(#p07c37072e7)" d="M 415.511166 68.027001 
L 412.421755 67.323005 
L 409.173532 66.375649 
L 403.828101 64.496434 
L 392.042368 60.168478 
L 387.673749 58.832892 
L 383.727583 57.845803 
L 379.488824 57.040558 
L 376.047071 56.576988 
L 371.347351 56.185195 
L 365.518648 55.98867 
L 358.105015 55.99559 
L 346.506171 56.253207 
L 341.26965 56.494389 
L 334.462389 57.063272 
L 330.728415 57.571726 
L 327.420266 58.189054 
L 323.327925 59.236218 
L 320.461635 60.205083 
L 317.926738 61.265034 
L 315.234668 62.668864 
L 313.893794 63.528972 
L 311.587298 65.702138 
L 311.475391 65.890275 
L 311.201791 66.894942 
L 311.330951 67.428758 
L 311.881306 68.123326 
L 312.793167 68.717886 
L 313.770892 69.1493 
L 315.808526 69.793358 
L 319.019519 70.53111 
L 325.742786 71.743629 
L 334.872734 73.15174 
L 340.322855 73.796494 
L 346.094416 74.224909 
L 351.467718 74.367132 
L 357.02904 74.26589 
L 362.219791 73.962866 
L 368.657693 73.335283 
L 375.401527 72.425794 
L 395.348066 69.479913 
L 400.19969 69.044752 
L 405.429439 68.812702 
L 408.996697 68.830433 
L 412.922963 69.067166 
L 415.368376 69.371202 
L 415.368376 69.371202 
" style="fill:none;stroke:#000000;stroke-linecap:square;stroke-opacity:0.7;stroke-width:1.2;"/>
   </g>
   <g id="line2d_16">
    <path clip-path="url(#p07c37072e7)" d="M 545.139407 222.829551 
L 541.995268 221.674985 
L 539.585783 220.981967 
L 536.294704 220.297733 
L 532.661038 219.825553 
L 528.033362 219.526307 
L 521.875304 219.443724 
L 505.41215 219.482415 
L 500.245138 219.171757 
L 495.765886 218.654122 
L 490.573489 217.774915 
L 478.858695 215.620269 
L 474.544664 215.156682 
L 471.32827 214.999818 
L 467.144833 215.055346 
L 462.939518 215.420033 
L 459.145774 216.036607 
L 456.52893 216.645799 
L 453.107726 217.734993 
L 450.604463 218.837492 
L 449.072265 219.720664 
L 447.975109 220.5165 
L 446.85164 221.592254 
L 446.135247 222.586167 
L 445.743134 223.442465 
L 445.526512 224.613785 
L 445.562719 225.253655 
L 445.850392 226.263634 
L 446.234908 226.973244 
L 446.909278 227.807531 
L 447.880275 228.640122 
L 449.508197 229.581593 
L 451.666722 230.352179 
L 453.883022 230.782162 
L 456.130435 230.944335 
L 458.48495 230.8799 
L 461.861469 230.458753 
L 465.299139 229.736202 
L 470.850034 228.206586 
L 482.119288 224.940706 
L 486.655834 223.870279 
L 491.92482 222.917217 
L 495.970972 222.421405 
L 500.048508 222.13485 
L 504.325905 222.053457 
L 509.589048 222.216571 
L 515.637449 222.648924 
L 530.011247 223.787811 
L 536.203388 223.985602 
L 541.430522 223.897871 
L 544.9829 223.656624 
L 544.9829 223.656624 
" style="fill:none;stroke:#000000;stroke-linecap:square;stroke-opacity:0.7;stroke-width:1.2;"/>
   </g>
   <g id="line2d_17">
    <path clip-path="url(#p07c37072e7)" d="M 544.745644 183.469959 
L 538.369019 182.521297 
L 532.794626 181.930242 
L 525.229238 181.369957 
L 500.17894 179.747192 
L 493.170135 179.015965 
L 475.014221 176.910811 
L 470.858269 176.740689 
L 467.898269 176.767986 
L 465.35465 176.905035 
L 461.662515 177.311814 
L 458.363504 177.906983 
L 455.345148 178.670348 
L 453.291615 179.32879 
L 450.067871 180.647898 
L 448.733572 181.327482 
L 446.527566 182.716642 
L 445.090758 183.93834 
L 444.252461 184.937134 
L 443.791667 185.794881 
L 443.611061 186.663044 
L 443.702385 187.280157 
L 443.798116 187.515643 
L 444.378261 188.236548 
L 445.142866 188.7227 
L 446.247388 189.129549 
L 446.689737 189.239711 
L 448.683163 189.523114 
L 451.327304 189.583483 
L 454.931564 189.36718 
L 460.686093 188.704829 
L 473.035512 187.177926 
L 479.342438 186.634775 
L 484.6035 186.35014 
L 491.410696 186.204818 
L 498.356438 186.27526 
L 517.567657 186.677077 
L 523.345738 186.500633 
L 529.522179 186.07093 
L 537.804745 185.221154 
L 543.089043 184.735245 
L 544.797267 184.724166 
L 544.797267 184.724166 
" style="fill:none;stroke:#000000;stroke-linecap:square;stroke-opacity:0.7;stroke-width:1.2;"/>
   </g>
   <g id="line2d_18">
    <path clip-path="url(#p07c37072e7)" d="M 544.86029 146.099346 
L 540.468881 145.872419 
L 535.42233 145.340179 
L 528.34163 144.295024 
L 503.993276 140.427756 
L 499.118497 139.894157 
L 494.052997 139.524719 
L 488.536697 139.36693 
L 482.402412 139.450543 
L 475.278676 139.778831 
L 466.344793 140.425508 
L 458.770782 141.164354 
L 451.745416 142.072974 
L 446.912911 142.927629 
L 443.225162 143.859348 
L 442.017754 144.282067 
L 440.628959 144.9619 
L 440.197661 145.289278 
L 439.817033 145.926634 
L 439.917206 146.322919 
L 440.582429 146.872485 
L 442.054002 147.407639 
L 442.425897 147.499737 
L 446.611137 148.107101 
L 450.461177 148.34628 
L 456.396757 148.478259 
L 477.13337 148.720685 
L 499.398373 149.358673 
L 503.619922 149.202334 
L 508.323886 148.828784 
L 518.046523 147.666624 
L 524.042258 147.008488 
L 529.319362 146.630346 
L 534.420698 146.511373 
L 538.854651 146.639688 
L 542.224478 146.89502 
L 544.727273 147.162707 
L 544.727273 147.162707 
" style="fill:none;stroke:#000000;stroke-linecap:square;stroke-opacity:0.7;stroke-width:1.2;"/>
   </g>
   <g id="line2d_19">
    <path clip-path="url(#p07c37072e7)" d="M 545.225393 104.498609 
L 543.584379 103.731911 
L 541.234712 102.898366 
L 538.943178 102.341291 
L 536.720669 101.98268 
L 533.229257 101.671276 
L 529.39038 101.559725 
L 523.842982 101.631271 
L 505.122197 102.115618 
L 498.638208 101.977054 
L 493.098399 101.613897 
L 487.502633 100.984665 
L 472.543711 98.938551 
L 468.662739 98.767897 
L 464.849046 98.884986 
L 461.654246 99.220281 
L 459.132559 99.644217 
L 455.429033 100.535679 
L 453.647464 101.089012 
L 450.136182 102.470648 
L 447.543474 103.848075 
L 446.292985 104.704622 
L 445.186793 105.672815 
L 444.332096 106.758251 
L 444.0144 107.432092 
L 443.868684 108.433139 
L 444.028253 109.14546 
L 444.330819 109.709186 
L 444.972202 110.423286 
L 446.086166 111.212236 
L 447.350807 111.835072 
L 448.676323 112.328687 
L 451.672822 113.107904 
L 454.833332 113.615226 
L 457.552941 113.866484 
L 460.94872 113.977317 
L 464.626329 113.868559 
L 468.958134 113.472765 
L 473.478611 112.808579 
L 478.932308 111.758536 
L 486.131008 110.117596 
L 500.145795 106.81583 
L 504.951891 105.897876 
L 508.631781 105.354558 
L 513.300257 104.912741 
L 517.195341 104.768415 
L 521.84168 104.839276 
L 527.391235 105.184565 
L 545.221764 106.646868 
L 545.221764 106.646868 
" style="fill:none;stroke:#000000;stroke-linecap:square;stroke-opacity:0.7;stroke-width:1.2;"/>
   </g>
   <g id="line2d_20">
    <path clip-path="url(#p07c37072e7)" d="M 545.115152 66.478212 
L 541.651332 66.224907 
L 529.744866 65.569338 
L 523.436178 64.989684 
L 513.396419 63.796707 
L 490.275814 60.901671 
L 482.853219 60.20441 
L 477.049084 59.853671 
L 472.170823 59.761206 
L 467.334714 59.899003 
L 463.34939 60.206906 
L 460.275927 60.574256 
L 455.644949 61.361979 
L 452.608165 62.05464 
L 449.411279 62.980333 
L 447.038853 63.859421 
L 445.009058 64.846975 
L 443.924813 65.561006 
L 443.244348 66.171622 
L 442.710405 66.939627 
L 442.544845 67.563295 
L 442.695607 68.358275 
L 443.108602 68.974934 
L 443.845395 69.622 
L 445.14136 70.372684 
L 446.838162 71.063456 
L 449.534861 71.84367 
L 452.782348 72.498426 
L 456.146607 72.97268 
L 460.361974 73.372739 
L 467.468709 73.76663 
L 480.754534 74.20384 
L 491.030169 74.355818 
L 497.89219 74.261066 
L 503.584385 74.006511 
L 510.200428 73.4668 
L 516.665579 72.670789 
L 523.547288 71.563328 
L 532.235937 69.903542 
L 542.996596 67.8147 
L 545.072495 67.544245 
L 545.072495 67.544245 
" style="fill:none;stroke:#000000;stroke-linecap:square;stroke-opacity:0.7;stroke-width:1.2;"/>
   </g>
   <g id="line2d_21">
    <path clip-path="url(#p07c37072e7)" d="M 675.40273 224.274375 
L 672.905024 223.456505 
L 668.439502 222.357437 
L 660.395522 220.768062 
L 625.636907 214.405713 
L 620.464406 213.833211 
L 615.558243 213.520984 
L 610.415011 213.43667 
L 605.683257 213.571432 
L 600.357337 213.961085 
L 595.36104 214.557204 
L 590.288112 215.397721 
L 585.567789 216.401903 
L 581.673425 217.402265 
L 576.724038 218.938283 
L 573.528345 220.158767 
L 570.896408 221.444819 
L 568.933207 223.13696 
L 568.818848 223.606124 
L 569.014112 224.120535 
L 569.470153 224.512369 
L 570.357071 224.916449 
L 571.693832 225.265304 
L 573.949512 225.584181 
L 576.519501 225.751642 
L 580.865165 225.794298 
L 588.432653 225.553863 
L 598.901863 225.22657 
L 605.618324 225.21297 
L 613.231557 225.385048 
L 625.161619 225.921475 
L 639.362433 226.574404 
L 646.801278 226.671459 
L 653.656826 226.52438 
L 662.378788 226.076782 
L 673.610988 225.469941 
L 675.325952 225.471015 
L 675.325952 225.471015 
" style="fill:none;stroke:#000000;stroke-linecap:square;stroke-opacity:0.7;stroke-width:1.2;"/>
   </g>
   <g id="line2d_22">
    <path clip-path="url(#p07c37072e7)" d="M 675.386913 185.125139 
L 673.168131 184.216124 
L 668.592872 182.766887 
L 648.393999 176.96395 
L 644.129115 175.914929 
L 639.077867 174.903605 
L 634.993416 174.318545 
L 631.079277 173.979233 
L 626.512431 173.860057 
L 622.395739 173.978607 
L 617.190415 174.346395 
L 604.57441 175.586224 
L 592.560218 176.911244 
L 587.456397 177.664687 
L 582.82284 178.562441 
L 578.483067 179.684987 
L 575.118815 180.847448 
L 573.070105 181.776775 
L 572.321104 182.194938 
L 571.414021 182.814184 
L 570.73437 183.472379 
L 570.353821 184.344014 
L 570.383199 184.653046 
L 570.607807 185.110873 
L 571.258915 185.70631 
L 572.037507 186.152692 
L 573.999455 186.927866 
L 575.958733 187.516311 
L 581.606349 188.911348 
L 590.77467 190.944291 
L 596.874188 192.063491 
L 601.828619 192.705004 
L 605.534839 193.002585 
L 611.087143 193.15514 
L 616.415042 192.985335 
L 621.711722 192.528475 
L 626.886798 191.822523 
L 632.256168 190.841219 
L 638.870408 189.341502 
L 652.103202 186.090805 
L 656.966344 185.2316 
L 660.981131 184.818347 
L 665.004491 184.719365 
L 668.457371 184.904597 
L 671.870501 185.356598 
L 674.736827 186.007477 
L 675.490909 186.255949 
L 675.490909 186.255949 
" style="fill:none;stroke:#000000;stroke-linecap:square;stroke-opacity:0.7;stroke-width:1.2;"/>
   </g>
   <g id="line2d_23">
    <path clip-path="url(#p07c37072e7)" d="M 675.146874 144.654639 
L 672.971954 144.483961 
L 670.441686 144.026572 
L 666.425931 142.985854 
L 654.356148 139.53683 
L 648.372497 138.183175 
L 644.284163 137.481267 
L 640.516131 137.012189 
L 635.69277 136.661884 
L 630.407335 136.555555 
L 620.0877 136.715118 
L 610.54274 136.753632 
L 601.656558 136.793396 
L 595.685208 137.071375 
L 592.299312 137.401831 
L 589.171503 137.854691 
L 584.863256 138.757189 
L 581.654505 139.67596 
L 578.229586 140.944308 
L 575.511863 142.250993 
L 573.969797 143.203466 
L 573.503548 143.548557 
L 572.436511 144.580176 
L 572.037796 145.288336 
L 571.96959 145.882262 
L 572.229941 146.500438 
L 572.818655 147.040716 
L 573.387073 147.369204 
L 574.677831 147.881835 
L 577.992369 148.690952 
L 582.864071 149.493648 
L 593.089172 150.894352 
L 599.177663 151.511394 
L 604.161592 151.768166 
L 607.766329 151.784917 
L 612.38116 151.587556 
L 616.179771 151.240623 
L 621.221278 150.532615 
L 625.871826 149.650287 
L 632.240704 148.159181 
L 644.620674 145.09601 
L 649.581234 144.225611 
L 653.181544 143.81984 
L 656.244252 143.624351 
L 660.903477 143.558435 
L 665.83865 143.728485 
L 675.264035 144.38559 
L 675.264035 144.38559 
" style="fill:none;stroke:#000000;stroke-linecap:square;stroke-opacity:0.7;stroke-width:1.2;"/>
   </g>
   <g id="line2d_24">
    <path clip-path="url(#p07c37072e7)" d="M 674.932568 105.992311 
L 670.716188 105.808171 
L 661.103691 105.072407 
L 651.105633 104.124473 
L 640.527091 102.891542 
L 623.552589 100.787101 
L 618.948985 100.471216 
L 613.913023 100.389383 
L 609.350893 100.55698 
L 603.47154 101.060827 
L 596.962108 101.8877 
L 575.59229 104.856919 
L 571.831201 105.291811 
L 570.488372 105.643722 
L 570.485768 105.730287 
L 570.886113 105.965029 
L 572.630606 106.443146 
L 576.432847 107.233669 
L 585.714514 108.909354 
L 592.941976 110.02641 
L 600.303329 110.953271 
L 607.753242 111.645058 
L 614.144889 111.998837 
L 619.586434 112.075531 
L 624.875525 111.904948 
L 629.649643 111.517096 
L 634.565191 110.891146 
L 640.424368 109.921432 
L 650.799446 108.127906 
L 656.367837 107.403591 
L 660.963281 107.020705 
L 666.167396 106.855292 
L 670.981271 106.960045 
L 674.953729 107.14862 
L 674.953729 107.14862 
" style="fill:none;stroke:#000000;stroke-linecap:square;stroke-opacity:0.7;stroke-width:1.2;"/>
   </g>
   <g id="line2d_25">
    <path clip-path="url(#p07c37072e7)" d="M 674.913843 67.546482 
L 672.937032 67.470298 
L 669.700508 67.075201 
L 666.494067 66.41944 
L 662.312876 65.297213 
L 655.685209 63.195923 
L 645.63144 59.919583 
L 639.924086 58.264936 
L 634.996442 57.062948 
L 631.081657 56.303859 
L 626.823837 55.711627 
L 623.041329 55.406778 
L 619.083107 55.307117 
L 613.894879 55.466593 
L 608.406847 55.893128 
L 600.940107 56.758107 
L 594.768097 57.713291 
L 589.528353 58.752584 
L 584.946975 59.893471 
L 581.923158 60.799528 
L 577.909547 62.252495 
L 574.709314 63.70957 
L 572.374812 65.075242 
L 570.974553 66.179027 
L 570.309038 66.931833 
L 569.915356 67.779821 
L 569.926118 68.327475 
L 570.375555 69.019797 
L 571.036161 69.455149 
L 572.433363 69.959978 
L 575.325954 70.483033 
L 579.749488 70.885048 
L 593.821823 71.948571 
L 609.745939 73.390319 
L 615.497419 73.627732 
L 619.564776 73.633797 
L 624.818323 73.423328 
L 630.550466 72.912605 
L 635.956908 72.185024 
L 642.363162 71.082673 
L 657.23836 68.393529 
L 660.993861 67.93758 
L 664.819206 67.670366 
L 668.051399 67.649285 
L 670.410492 67.789126 
L 673.101722 68.171857 
L 674.935519 68.649345 
L 674.935519 68.649345 
" style="fill:none;stroke:#000000;stroke-linecap:square;stroke-opacity:0.7;stroke-width:1.2;"/>
   </g>
  </g>
 </g>
 <defs>
  <clipPath id="p07c37072e7">
   <rect height="262.08" width="694.08" x="12.96" y="12.96"/>
  </clipPath>
 </defs>
</svg>
