<?xml version="1.0" encoding="utf-8" standalone="no"?>
<!DOCTYPE svg PUBLIC "-//W3C//DTD SVG 1.1//EN"
  "http://www.w3.org/Graphics/SVG/1.1/DTD/svg11.dtd">
<!-- Created with matplotlib (https://matplotlib.org/) -->
<svg height="288pt" version="1.1" viewBox="0 0 720 288" width="720pt" xmlns="http://www.w3.org/2000/svg" xmlns:xlink="http://www.w3.org/1999/xlink">
 <defs>
  <style type="text/css">
*{stroke-linecap:butt;stroke-linejoin:round;}
  </style>
 </defs>
 <g id="figure_1">
  <g id="patch_1">
   <path d="M 0 288 
L 720 288 
L 720 0 
L 0 0 
z
" style="fill:#ffffff;"/>
  </g>
  <g id="axes_1">
   <g id="line2d_1">
    <path clip-path="url(#p4365aacbea)" d="M 149.643405 228.172771 
L 140.912656 227.129554 
L 130.343778 226.109505 
L 118.027501 225.155965 
L 103.925123 224.282636 
L 89.052734 223.580714 
L 78.915859 223.311388 
L 72.24635 223.324391 
L 66.507156 223.529749 
L 61.14095 223.943047 
L 56.228403 224.567618 
L 51.843503 225.407786 
L 49.468345 226.050663 
L 47.407595 226.879475 
L 46.770002 227.346844 
L 46.594687 227.744445 
L 46.757061 228.054759 
L 47.10164 228.287959 
L 48.02011 228.615214 
L 49.580789 228.924799 
L 52.463875 229.239727 
L 56.361744 229.446881 
L 62.824009 229.523604 
L 71.141449 229.361685 
L 84.153476 228.841827 
L 116.984093 227.416433 
L 126.690213 227.29762 
L 135.881715 227.43194 
L 143.203 227.737145 
L 149.612608 228.173164 
L 149.612608 228.173164 
" style="fill:none;stroke:#000000;stroke-linecap:square;stroke-opacity:0.7;stroke-width:1.2;"/>
   </g>
   <g id="line2d_2">
    <path clip-path="url(#p4365aacbea)" d="M 149.469582 188.399403 
L 141.111277 185.966597 
L 129.992484 182.963903 
L 120.13178 180.533316 
L 111.571262 178.642361 
L 104.093542 177.219012 
L 97.799737 176.262125 
L 92.47444 175.689539 
L 88.026987 175.412942 
L 83.402493 175.338731 
L 78.665674 175.498069 
L 73.677108 175.932581 
L 68.918648 176.616903 
L 64.624861 177.48257 
L 60.268471 178.636141 
L 56.878153 179.761224 
L 53.827837 180.984248 
L 51.086743 182.308764 
L 48.449002 183.897443 
L 46.718231 185.273624 
L 46.119175 185.890348 
L 45.247626 187.192679 
L 44.976724 188.14375 
L 44.995341 188.890118 
L 45.186635 189.547551 
L 45.632119 190.327919 
L 46.578249 191.343225 
L 47.332788 191.937113 
L 49.319231 193.118778 
L 52.025984 194.281735 
L 55.337523 195.32516 
L 58.590822 196.086566 
L 62.18459 196.70531 
L 66.468859 197.202567 
L 71.003966 197.493981 
L 76.463887 197.570871 
L 80.900195 197.435753 
L 85.966678 197.080379 
L 90.602726 196.577205 
L 96.61377 195.692155 
L 103.607616 194.402343 
L 120.025418 191.206011 
L 126.930029 190.139615 
L 132.711763 189.444234 
L 139.448569 188.882312 
L 144.915071 188.632864 
L 149.46626 188.557087 
L 149.46626 188.557087 
" style="fill:none;stroke:#000000;stroke-linecap:square;stroke-opacity:0.7;stroke-width:1.2;"/>
   </g>
   <g id="line2d_3">
    <path clip-path="url(#p4365aacbea)" d="M 148.742528 149.630318 
L 144.372929 147.933797 
L 138.199207 145.778925 
L 132.179143 143.888464 
L 125.544022 142.007229 
L 117.618763 140.008357 
L 109.797504 138.283693 
L 102.736621 136.943302 
L 96.269349 135.931366 
L 90.62438 135.266454 
L 84.889638 134.846754 
L 80.851812 134.726351 
L 76.570165 134.773737 
L 73.018956 134.96476 
L 67.974286 135.510933 
L 64.736732 136.063862 
L 61.636914 136.774385 
L 58.519585 137.705357 
L 55.494752 138.863945 
L 52.346432 140.408699 
L 50.54373 141.493604 
L 48.116283 143.281309 
L 46.202808 145.140554 
L 45.17269 146.548139 
L 44.634566 147.783456 
L 44.538528 148.488188 
L 44.656301 149.149569 
L 44.77174 149.393615 
L 45.152169 149.858099 
L 46.157561 150.437968 
L 47.875834 150.843647 
L 50.340915 151.020677 
L 54.308767 150.976235 
L 64.038806 150.50578 
L 76.568212 149.962791 
L 90.97668 149.586823 
L 122.345305 149.076687 
L 134.502859 149.154696 
L 148.026031 149.477154 
L 148.64051 149.494226 
L 148.64051 149.494226 
" style="fill:none;stroke:#000000;stroke-linecap:square;stroke-opacity:0.7;stroke-width:1.2;"/>
   </g>
   <g id="line2d_4">
    <path clip-path="url(#p4365aacbea)" d="M 149.371205 109.26528 
L 140.337968 106.665653 
L 131.050146 104.246265 
L 122.13955 102.182661 
L 114.842424 100.715066 
L 108.045528 99.578325 
L 101.602083 98.76112 
L 96.995014 98.359676 
L 91.332581 98.092285 
L 86.026413 98.0711 
L 81.176826 98.244311 
L 75.428999 98.690674 
L 69.880541 99.385533 
L 65.189886 100.20038 
L 61.63134 100.979502 
L 57.234431 102.173131 
L 53.194297 103.561881 
L 50.485541 104.722405 
L 48.587534 105.716127 
L 47.10515 106.681743 
L 46.219212 107.420161 
L 45.501598 108.241808 
L 45.074625 109.116602 
L 45.000723 109.623173 
L 45.123949 110.313029 
L 45.371799 110.788916 
L 46.093335 111.566952 
L 46.554267 111.914448 
L 48.447201 112.922138 
L 50.713811 113.74087 
L 52.926474 114.34423 
L 56.199353 115.026157 
L 60.899095 115.718169 
L 65.614995 116.170987 
L 71.336199 116.4677 
L 77.282469 116.526047 
L 82.989461 116.3646 
L 89.371407 115.945624 
L 95.685507 115.296216 
L 102.330196 114.39178 
L 114.015157 112.505232 
L 123.579391 111.068396 
L 130.93084 110.21061 
L 137.940629 109.646316 
L 144.864867 109.351577 
L 149.370666 109.293938 
L 149.370666 109.293938 
" style="fill:none;stroke:#000000;stroke-linecap:square;stroke-opacity:0.7;stroke-width:1.2;"/>
   </g>
   <g id="line2d_5">
    <path clip-path="url(#p4365aacbea)" d="M 149.437155 70.151297 
L 142.481763 69.068074 
L 131.43712 67.590251 
L 119.598069 66.230126 
L 108.312606 65.148163 
L 96.465651 64.234667 
L 85.700669 63.618872 
L 78.268442 63.425646 
L 72.315679 63.498306 
L 66.570852 63.827089 
L 61.986149 64.317898 
L 57.627565 65.01842 
L 53.435531 65.969046 
L 50.328693 66.917744 
L 47.638491 68.013032 
L 46.350118 68.70614 
L 45.147394 69.604209 
L 44.704684 70.14178 
L 44.509091 70.749166 
L 44.581741 71.100619 
L 44.949487 71.554128 
L 45.525445 71.900121 
L 46.389643 72.21067 
L 48.409343 72.597532 
L 50.291592 72.771802 
L 53.879477 72.876209 
L 59.603127 72.752045 
L 86.445409 71.760512 
L 93.848472 71.869117 
L 115.407539 72.409835 
L 122.685077 72.23889 
L 130.559098 71.828813 
L 140.035574 71.09853 
L 149.394091 70.203113 
L 149.394091 70.203113 
" style="fill:none;stroke:#000000;stroke-linecap:square;stroke-opacity:0.7;stroke-width:1.2;"/>
   </g>
   <g id="line2d_6">
    <path clip-path="url(#p4365aacbea)" d="M 280.993481 227.533117 
L 272.902184 225.474077 
L 263.099607 223.198462 
L 253.968702 221.310845 
L 245.995747 219.911508 
L 240.26685 219.092394 
L 233.448767 218.363742 
L 227.750394 217.985256 
L 221.702106 217.826706 
L 216.900886 217.880459 
L 210.839431 218.173148 
L 205.308738 218.660216 
L 199.729313 219.37384 
L 194.678374 220.230987 
L 189.407005 221.377902 
L 184.932764 222.621709 
L 182.582608 223.430289 
L 180.132684 224.501619 
L 179.262464 225.007521 
L 178.338301 225.782514 
L 177.97919 226.49829 
L 178.03568 227.002122 
L 178.393755 227.549495 
L 179.184869 228.182711 
L 180.22904 228.754581 
L 182.644524 229.715253 
L 185.619366 230.604137 
L 189.30774 231.464925 
L 194.13655 232.308259 
L 198.750127 232.860277 
L 203.317548 233.177024 
L 207.784032 233.267178 
L 212.436286 233.126569 
L 216.930692 232.758409 
L 220.943522 232.234143 
L 224.960536 231.527234 
L 229.662712 230.487216 
L 237.033029 228.544973 
L 243.843107 226.779332 
L 247.35779 226.03413 
L 250.963108 225.449149 
L 254.908442 225.039337 
L 259.124391 224.865488 
L 263.300566 224.942021 
L 267.850144 225.274353 
L 273.13085 225.937689 
L 278.604159 226.884232 
L 280.981401 227.3643 
L 280.981401 227.3643 
" style="fill:none;stroke:#000000;stroke-linecap:square;stroke-opacity:0.7;stroke-width:1.2;"/>
   </g>
   <g id="line2d_7">
    <path clip-path="url(#p4365aacbea)" d="M 281.101598 187.163196 
L 274.580287 185.892386 
L 265.72113 184.421067 
L 256.686839 183.141821 
L 246.165796 181.894013 
L 234.777324 180.779783 
L 220.293492 179.572218 
L 212.609535 179.095232 
L 206.886926 178.924742 
L 202.355068 178.969274 
L 197.45592 179.268637 
L 193.398528 179.775819 
L 189.373388 180.573248 
L 185.518886 181.677897 
L 182.508763 182.836686 
L 180.608505 183.7497 
L 178.227757 185.2162 
L 176.90675 186.361501 
L 176.458406 186.904129 
L 176.123566 187.484992 
L 175.955031 188.189733 
L 176.025735 188.680289 
L 176.185629 189.020167 
L 176.930673 189.756008 
L 177.668968 190.172739 
L 178.345462 190.456543 
L 180.162458 190.99854 
L 182.777142 191.503753 
L 186.835023 191.982873 
L 191.356943 192.270664 
L 196.545286 192.385478 
L 202.545941 192.291245 
L 208.130831 192.011758 
L 214.683218 191.465803 
L 220.740423 190.764812 
L 229.105015 189.532831 
L 244.226915 187.167753 
L 249.279934 186.619861 
L 254.702112 186.253969 
L 260.170506 186.111962 
L 265.695761 186.174105 
L 271.975463 186.45442 
L 280.247929 187.069689 
L 281.070074 187.139536 
L 281.070074 187.139536 
" style="fill:none;stroke:#000000;stroke-linecap:square;stroke-opacity:0.7;stroke-width:1.2;"/>
   </g>
   <g id="line2d_8">
    <path clip-path="url(#p4365aacbea)" d="M 281.147314 148.101333 
L 272.122006 145.451481 
L 261.928217 142.692557 
L 252.872295 140.479958 
L 244.972291 138.78332 
L 237.959236 137.500275 
L 231.622103 136.554513 
L 225.615387 135.878097 
L 220.632713 135.509282 
L 216.412549 135.357259 
L 211.418397 135.398053 
L 207.220207 135.644301 
L 202.916186 136.126942 
L 199.53049 136.692345 
L 196.324522 137.39885 
L 192.313168 138.553072 
L 189.011167 139.770086 
L 186.245882 141.01714 
L 183.996339 142.225555 
L 181.356428 143.955133 
L 180.047738 145.006951 
L 178.472248 146.634182 
L 177.831106 147.613944 
L 177.521321 148.487371 
L 177.534638 149.215795 
L 177.840543 149.818574 
L 178.342379 150.254165 
L 179.082372 150.613861 
L 180.691 151.005086 
L 182.17146 151.163516 
L 185.418576 151.221977 
L 189.869968 151.016636 
L 199.242344 150.261199 
L 210.373294 149.412978 
L 217.204186 149.079316 
L 224.930185 148.936355 
L 233.462125 149.031241 
L 247.314287 149.214836 
L 256.213274 149.06538 
L 268.341994 148.607353 
L 281.04334 148.173278 
L 281.04334 148.173278 
" style="fill:none;stroke:#000000;stroke-linecap:square;stroke-opacity:0.7;stroke-width:1.2;"/>
   </g>
   <g id="line2d_9">
    <path clip-path="url(#p4365aacbea)" d="M 281.349257 109.063218 
L 275.210563 107.91919 
L 262.452701 105.813102 
L 229.796743 100.635063 
L 221.853394 99.67423 
L 216.090632 99.185647 
L 211.598473 98.963037 
L 205.773835 98.928796 
L 201.797796 99.104894 
L 197.540011 99.51363 
L 193.838287 100.095047 
L 190.103581 100.950541 
L 186.989331 101.932392 
L 184.302624 103.048418 
L 182.155552 104.20234 
L 180.285409 105.523757 
L 179.387406 106.351623 
L 178.443848 107.544848 
L 178.129034 108.147651 
L 177.868969 109.236831 
L 177.91326 109.777045 
L 178.200992 110.492813 
L 178.834618 111.191955 
L 179.551372 111.65105 
L 180.532737 112.053987 
L 182.444571 112.483266 
L 184.805211 112.688216 
L 187.583438 112.694671 
L 191.778554 112.470578 
L 210.201273 111.138246 
L 216.406698 110.99033 
L 223.288132 111.079365 
L 232.379521 111.489745 
L 241.684901 111.858345 
L 249.118811 111.866732 
L 256.219486 111.612942 
L 263.964478 111.093172 
L 272.702034 110.263175 
L 281.295035 109.223452 
L 281.295035 109.223452 
" style="fill:none;stroke:#000000;stroke-linecap:square;stroke-opacity:0.7;stroke-width:1.2;"/>
   </g>
   <g id="line2d_10">
    <path clip-path="url(#p4365aacbea)" d="M 281.105679 70.35606 
L 273.944971 67.629412 
L 267.620946 65.427446 
L 261.560901 63.526618 
L 254.634024 61.593342 
L 247.08781 59.735481 
L 238.339647 57.84019 
L 231.185314 56.494745 
L 225.096909 55.569493 
L 220.487301 55.069191 
L 215.620502 54.777118 
L 212.046667 54.735864 
L 207.342601 54.923264 
L 202.606504 55.41056 
L 199.031732 55.99587 
L 194.97218 56.916796 
L 191.344135 58.008891 
L 187.760696 59.395765 
L 184.716702 60.889643 
L 181.986318 62.585054 
L 179.952309 64.20036 
L 179.024373 65.109327 
L 177.727707 66.760367 
L 177.388635 67.355127 
L 176.942408 68.532068 
L 176.897446 69.952254 
L 177.230043 70.781262 
L 177.894003 71.51992 
L 178.805935 72.079725 
L 179.789983 72.449233 
L 181.492029 72.810292 
L 184.214774 73.022756 
L 187.593358 72.987896 
L 192.607504 72.673183 
L 213.122034 71.090932 
L 220.245933 70.843793 
L 228.578657 70.807192 
L 249.691405 70.912585 
L 265.29007 70.617986 
L 280.970219 70.377592 
L 280.970219 70.377592 
" style="fill:none;stroke:#000000;stroke-linecap:square;stroke-opacity:0.7;stroke-width:1.2;"/>
   </g>
   <g id="line2d_11">
    <path clip-path="url(#p4365aacbea)" d="M 412.444704 227.138406 
L 406.39482 225.075843 
L 399.354291 222.922151 
L 391.782721 220.862151 
L 384.540148 219.10597 
L 376.557207 217.384774 
L 368.865189 215.933874 
L 362.038206 214.855622 
L 355.963374 214.13657 
L 351.223829 213.786791 
L 346.674044 213.657787 
L 341.886725 213.764921 
L 337.360305 214.116749 
L 333.898399 214.565847 
L 329.534553 215.379585 
L 325.808698 216.322003 
L 322.251463 217.470327 
L 319.61351 218.506952 
L 316.26072 220.105835 
L 314.088832 221.358503 
L 311.527036 223.160577 
L 309.767085 224.752897 
L 308.742371 225.983192 
L 308.039597 227.271672 
L 307.851275 228.052193 
L 307.896891 228.766791 
L 308.12583 229.305286 
L 308.714872 229.926022 
L 310.220474 230.623157 
L 312.111904 230.991842 
L 314.990078 231.169836 
L 319.60063 231.076849 
L 327.740648 230.576847 
L 337.982188 229.974832 
L 345.947047 229.723228 
L 354.382795 229.726841 
L 364.768429 230.038367 
L 374.443914 230.301046 
L 380.54716 230.276268 
L 387.600948 230.009388 
L 394.687838 229.497646 
L 401.878427 228.759389 
L 410.231956 227.666312 
L 412.356839 227.355261 
L 412.356839 227.355261 
" style="fill:none;stroke:#000000;stroke-linecap:square;stroke-opacity:0.7;stroke-width:1.2;"/>
   </g>
   <g id="line2d_12">
    <path clip-path="url(#p4365aacbea)" d="M 411.849612 188.397166 
L 403.142903 187.106389 
L 392.193646 185.728251 
L 381.463952 184.61758 
L 371.558761 183.821246 
L 363.385261 183.359554 
L 353.952805 183.056389 
L 345.116978 182.970685 
L 336.505235 183.113714 
L 329.403581 183.486886 
L 323.43689 184.046245 
L 318.794356 184.682414 
L 314.518126 185.477025 
L 310.560084 186.496162 
L 308.662489 187.18967 
L 307.720229 187.68054 
L 307.15862 188.181835 
L 307.070892 188.599648 
L 307.309508 188.930235 
L 308.226443 189.389115 
L 309.075046 189.634322 
L 311.341461 190.056223 
L 314.656908 190.434485 
L 320.151203 190.806621 
L 328.393142 191.093478 
L 339.554504 191.229754 
L 350.835185 191.149699 
L 359.033207 190.90562 
L 367.84579 190.422415 
L 392.280589 188.859002 
L 401.22153 188.588898 
L 409.711002 188.542439 
L 411.745682 188.555582 
L 411.745682 188.555582 
" style="fill:none;stroke:#000000;stroke-linecap:square;stroke-opacity:0.7;stroke-width:1.2;"/>
   </g>
   <g id="line2d_13">
    <path clip-path="url(#p4365aacbea)" d="M 412.527428 149.195437 
L 405.887079 148.269938 
L 396.89816 147.270913 
L 386.168071 146.320226 
L 373.522264 145.431954 
L 359.495047 144.677493 
L 345.744192 144.131889 
L 337.402272 144.029423 
L 331.298768 144.176036 
L 325.439312 144.559153 
L 321.191079 145.024019 
L 317.37878 145.615566 
L 314.08798 146.315882 
L 311.355785 147.134052 
L 309.565593 147.976985 
L 308.918777 148.579584 
L 308.815652 148.964373 
L 308.926963 149.258897 
L 309.279372 149.585018 
L 309.941756 149.914908 
L 311.678702 150.389043 
L 313.914713 150.726541 
L 317.285165 151.001584 
L 322.29062 151.160963 
L 330.123167 151.127593 
L 343.805481 150.769593 
L 368.317042 149.902553 
L 389.61787 149.089364 
L 398.919959 148.975826 
L 407.815943 149.096608 
L 412.469677 149.262274 
L 412.469677 149.262274 
" style="fill:none;stroke:#000000;stroke-linecap:square;stroke-opacity:0.7;stroke-width:1.2;"/>
   </g>
   <g id="line2d_14">
    <path clip-path="url(#p4365aacbea)" d="M 412.230813 109.850979 
L 405.443859 109.184181 
L 383.257093 107.357606 
L 368.659084 106.009744 
L 359.422892 104.938544 
L 343.402416 102.948677 
L 337.443431 102.481072 
L 332.479555 102.318236 
L 329.426313 102.348503 
L 324.752768 102.636258 
L 321.262228 103.090778 
L 318.297927 103.687742 
L 316.384054 104.206156 
L 313.554973 105.235247 
L 311.706522 106.15836 
L 310.437544 106.99143 
L 309.330914 108.026569 
L 308.914821 108.825985 
L 308.987164 109.264832 
L 309.20474 109.483279 
L 309.912801 109.731324 
L 310.806462 109.81062 
L 313.328369 109.673772 
L 317.964224 109.03778 
L 333.483022 106.627175 
L 339.969689 105.927506 
L 345.07656 105.603542 
L 350.039185 105.524993 
L 355.110228 105.718553 
L 359.284112 106.082663 
L 367.381815 107.098089 
L 375.455566 108.051919 
L 382.576381 108.670469 
L 390.743224 109.156124 
L 400.340681 109.507892 
L 412.278641 109.747081 
L 412.278641 109.747081 
" style="fill:none;stroke:#000000;stroke-linecap:square;stroke-opacity:0.7;stroke-width:1.2;"/>
   </g>
   <g id="line2d_15">
    <path clip-path="url(#p4365aacbea)" d="M 412.310597 69.933107 
L 394.885732 67.997437 
L 375.559885 66.027539 
L 360.677573 64.72674 
L 352.4196 64.180423 
L 345.580126 63.942792 
L 339.623611 63.957906 
L 334.044303 64.187 
L 328.250131 64.665667 
L 323.716364 65.230883 
L 319.303872 65.972765 
L 315.251489 66.877226 
L 311.811546 67.922362 
L 309.858045 68.757958 
L 308.40273 69.787918 
L 308.12334 70.258104 
L 308.10052 70.61847 
L 308.416089 71.135295 
L 308.85211 71.446653 
L 309.519919 71.754499 
L 311.446612 72.279998 
L 313.58471 72.622221 
L 317.440574 72.983488 
L 322.863416 73.242992 
L 332.052498 73.411707 
L 344.295579 73.394077 
L 354.668472 73.169745 
L 363.965214 72.715299 
L 373.013445 72.015318 
L 390.639376 70.557751 
L 399.083508 70.127139 
L 406.550252 69.981712 
L 412.215712 70.067524 
L 412.215712 70.067524 
" style="fill:none;stroke:#000000;stroke-linecap:square;stroke-opacity:0.7;stroke-width:1.2;"/>
   </g>
   <g id="line2d_16">
    <path clip-path="url(#p4365aacbea)" d="M 543.620204 227.295544 
L 521.426536 222.360395 
L 510.341305 220.155719 
L 501.315615 218.576653 
L 493.496524 217.432878 
L 487.385248 216.747174 
L 482.158824 216.357538 
L 477.327575 216.198667 
L 472.607443 216.263191 
L 467.971897 216.567082 
L 463.576039 217.101761 
L 459.467952 217.843263 
L 455.110886 218.917698 
L 451.801179 219.961591 
L 449.381909 220.871194 
L 446.370521 222.218937 
L 444.513977 223.209069 
L 442.952934 224.183507 
L 441.458286 225.330918 
L 440.35258 226.534762 
L 440.052964 227.076929 
L 439.92287 227.783126 
L 440.146599 228.369261 
L 440.486865 228.699782 
L 441.131538 229.046587 
L 442.668637 229.441758 
L 444.711378 229.639531 
L 448.362618 229.660795 
L 455.33947 229.359661 
L 464.504149 229.00176 
L 471.25662 228.949291 
L 478.318597 229.12376 
L 485.320514 229.503947 
L 502.968048 230.632846 
L 508.710379 230.736973 
L 514.375181 230.641364 
L 521.361752 230.272598 
L 528.64569 229.629734 
L 535.494118 228.807252 
L 542.654914 227.716635 
L 543.595582 227.552774 
L 543.595582 227.552774 
" style="fill:none;stroke:#000000;stroke-linecap:square;stroke-opacity:0.7;stroke-width:1.2;"/>
   </g>
   <g id="line2d_17">
    <path clip-path="url(#p4365aacbea)" d="M 544.183728 187.577607 
L 529.928043 186.074056 
L 504.393641 183.368569 
L 477.699179 180.33723 
L 472.078756 179.997792 
L 467.349313 179.905553 
L 462.890918 180.020084 
L 458.330991 180.378068 
L 454.3008 180.932261 
L 450.757072 181.637452 
L 447.538553 182.494674 
L 444.266023 183.65564 
L 442.416183 184.513472 
L 440.797312 185.491253 
L 439.792392 186.339816 
L 439.511499 186.659252 
L 438.991827 187.712525 
L 439.015889 188.326036 
L 439.203349 188.746807 
L 439.862337 189.403452 
L 441.25426 190.067055 
L 442.584307 190.414812 
L 444.665786 190.708306 
L 447.683573 190.843565 
L 450.733734 190.786985 
L 456.447448 190.422132 
L 477.565169 188.764638 
L 484.733277 188.524822 
L 492.429338 188.519351 
L 518.000752 188.823253 
L 528.537517 188.562232 
L 537.798272 188.122085 
L 544.118524 187.698598 
L 544.118524 187.698598 
" style="fill:none;stroke:#000000;stroke-linecap:square;stroke-opacity:0.7;stroke-width:1.2;"/>
   </g>
   <g id="line2d_18">
    <path clip-path="url(#p4365aacbea)" d="M 544.181948 148.236821 
L 537.757276 146.815606 
L 522.729262 143.793698 
L 507.043359 140.769119 
L 499.042033 139.437787 
L 492.35937 138.568265 
L 486.973401 138.08475 
L 482.342729 137.846042 
L 476.644826 137.7909 
L 471.404094 137.98386 
L 466.0496 138.441051 
L 462.029135 138.976875 
L 458.08293 139.687847 
L 454.128486 140.619393 
L 450.145596 141.841856 
L 447.17615 143.016295 
L 444.826869 144.20398 
L 442.994318 145.43305 
L 442.029776 146.3168 
L 441.359301 147.19525 
L 440.939035 148.254839 
L 440.908173 149.004717 
L 441.010858 149.486652 
L 441.470477 150.378942 
L 442.066532 151.051375 
L 442.435164 151.373827 
L 443.353269 152.02175 
L 445.398197 153.063243 
L 447.446013 153.826178 
L 450.021114 154.563725 
L 454.150858 155.42187 
L 457.799482 155.947145 
L 461.677867 156.319778 
L 466.51726 156.555476 
L 471.703611 156.551646 
L 476.332017 156.334537 
L 481.305089 155.88056 
L 486.792072 155.119768 
L 492.403869 154.081941 
L 499.588017 152.476446 
L 510.338578 150.034042 
L 515.885234 149.014982 
L 520.239639 148.397127 
L 525.188802 147.91046 
L 530.162751 147.661666 
L 534.389362 147.643214 
L 538.977259 147.826211 
L 544.10494 148.278882 
L 544.10494 148.278882 
" style="fill:none;stroke:#000000;stroke-linecap:square;stroke-opacity:0.7;stroke-width:1.2;"/>
   </g>
   <g id="line2d_19">
    <path clip-path="url(#p4365aacbea)" d="M 544.070075 109.540078 
L 536.473281 108.397094 
L 524.50994 106.844828 
L 503.284089 104.35406 
L 487.968893 102.715853 
L 480.215245 102.084205 
L 474.804197 101.816914 
L 469.152175 101.764458 
L 464.726801 101.935266 
L 460.262743 102.344489 
L 456.629149 102.890725 
L 452.87176 103.700973 
L 449.890633 104.563411 
L 446.806148 105.728306 
L 444.750322 106.732321 
L 442.613008 108.170622 
L 441.835311 109.005659 
L 441.528407 109.69597 
L 441.560047 110.150106 
L 441.883077 110.610714 
L 442.133363 110.793046 
L 443.308545 111.238193 
L 446.005709 111.552329 
L 448.465908 111.552931 
L 452.767857 111.296453 
L 468.891751 110.021113 
L 473.447989 109.943183 
L 477.650454 110.062676 
L 482.120398 110.405471 
L 487.813885 111.133958 
L 503.37903 113.471159 
L 508.060082 113.846268 
L 512.849739 113.992054 
L 518.079859 113.887108 
L 523.339873 113.523932 
L 528.985563 112.865328 
L 534.378079 111.981754 
L 539.169918 110.975892 
L 544.099412 109.673662 
L 544.099412 109.673662 
" style="fill:none;stroke:#000000;stroke-linecap:square;stroke-opacity:0.7;stroke-width:1.2;"/>
   </g>
   <g id="line2d_20">
    <path clip-path="url(#p4365aacbea)" d="M 543.629256 70.43519 
L 537.736221 69.031275 
L 529.195831 67.230515 
L 519.285431 65.383529 
L 509.462362 63.77139 
L 499.876709 62.412886 
L 491.848783 61.475008 
L 484.345331 60.836273 
L 478.499303 60.563876 
L 472.584031 60.546628 
L 467.184651 60.802581 
L 462.721889 61.243013 
L 458.945303 61.803183 
L 454.365822 62.754929 
L 450.702143 63.779788 
L 447.553627 64.905821 
L 444.90743 66.103175 
L 442.954685 67.231204 
L 441.952219 67.964966 
L 441.345998 68.515972 
L 440.698906 69.355854 
L 440.480032 70.067755 
L 440.538832 70.470551 
L 440.942017 71.026569 
L 441.691385 71.465101 
L 443.012067 71.849836 
L 445.40697 72.141362 
L 448.083518 72.217469 
L 452.008741 72.122855 
L 461.045235 71.601678 
L 472.299595 70.987406 
L 480.737014 70.732477 
L 490.442654 70.680258 
L 518.468381 70.753638 
L 543.647284 70.484571 
L 543.647284 70.484571 
" style="fill:none;stroke:#000000;stroke-linecap:square;stroke-opacity:0.7;stroke-width:1.2;"/>
   </g>
   <g id="line2d_21">
    <path clip-path="url(#p4365aacbea)" d="M 675.433917 227.248881 
L 668.092899 225.792427 
L 660.158551 224.464329 
L 651.036007 223.177503 
L 640.781027 221.973413 
L 631.113226 221.072173 
L 621.885032 220.464714 
L 613.479914 220.164227 
L 605.994481 220.131329 
L 600.461845 220.289219 
L 595.122942 220.6434 
L 590.606988 221.148569 
L 586.180504 221.878342 
L 581.878954 222.866167 
L 578.509138 223.88185 
L 575.558212 225.006379 
L 573.812946 225.82705 
L 572.050373 226.897663 
L 571.247188 227.670115 
L 571.072971 228.132656 
L 571.130088 228.363897 
L 571.508219 228.693992 
L 572.273705 228.941487 
L 573.877554 229.124236 
L 576.309853 229.141974 
L 580.594858 228.905451 
L 587.691162 228.233592 
L 604.25545 226.559066 
L 610.62149 226.162551 
L 616.354699 226.012934 
L 622.730916 226.09268 
L 630.17961 226.435174 
L 646.118405 227.232288 
L 656.042038 227.455172 
L 667.015328 227.469139 
L 675.459906 227.3339 
L 675.459906 227.3339 
" style="fill:none;stroke:#000000;stroke-linecap:square;stroke-opacity:0.7;stroke-width:1.2;"/>
   </g>
   <g id="line2d_22">
    <path clip-path="url(#p4365aacbea)" d="M 675.475301 187.792027 
L 666.447799 186.398346 
L 654.770868 184.819279 
L 638.963389 182.923779 
L 620.512173 180.934289 
L 611.922983 180.19808 
L 605.834126 179.858066 
L 599.6271 179.746224 
L 594.929192 179.866873 
L 591.51208 180.09024 
L 586.638104 180.645971 
L 583.038974 181.272014 
L 579.373861 182.148989 
L 576.403948 183.09782 
L 574.248341 183.983923 
L 572.405291 184.961618 
L 572.077017 185.169971 
L 570.52912 186.444594 
L 570.026894 187.117034 
L 569.692234 188.287389 
L 569.763845 188.750461 
L 570.064147 189.373848 
L 570.335859 189.713715 
L 571.572716 190.666799 
L 573.066747 191.382101 
L 575.439659 192.156932 
L 577.904637 192.726845 
L 582.532323 193.452949 
L 586.068989 193.821274 
L 592.213506 194.213822 
L 598.391438 194.376878 
L 605.049613 194.342958 
L 611.6797 194.108444 
L 618.639954 193.64245 
L 624.881083 193.031647 
L 634.823195 191.776059 
L 648.011758 190.082267 
L 656.567048 189.204228 
L 665.304523 188.528578 
L 675.490909 187.940772 
L 675.490909 187.940772 
" style="fill:none;stroke:#000000;stroke-linecap:square;stroke-opacity:0.7;stroke-width:1.2;"/>
   </g>
   <g id="line2d_23">
    <path clip-path="url(#p4365aacbea)" d="M 675.244059 149.032748 
L 636.523901 143.153244 
L 628.470222 142.25878 
L 621.968414 141.761647 
L 616.827538 141.545349 
L 610.322691 141.5087 
L 604.049426 141.716409 
L 597.216143 142.208211 
L 591.448026 142.853986 
L 585.70809 143.744614 
L 580.688821 144.786908 
L 576.775496 145.856306 
L 574.702449 146.586253 
L 572.967228 147.406243 
L 572.091056 148.082859 
L 571.842988 148.58102 
L 571.956144 149.01735 
L 572.326313 149.389734 
L 573.029786 149.793365 
L 574.981707 150.488427 
L 577.871463 151.190698 
L 581.263725 151.816385 
L 585.857532 152.456128 
L 591.129912 152.954878 
L 595.964007 153.211298 
L 601.150605 153.282287 
L 606.111553 153.156093 
L 611.746145 152.782397 
L 616.589683 152.264324 
L 621.516111 151.556464 
L 627.833634 150.427366 
L 640.262836 148.099926 
L 645.224455 147.429743 
L 649.559961 147.053229 
L 653.646397 146.891689 
L 658.83581 146.955878 
L 663.442418 147.251576 
L 668.936582 147.86528 
L 675.3047 148.846949 
L 675.3047 148.846949 
" style="fill:none;stroke:#000000;stroke-linecap:square;stroke-opacity:0.7;stroke-width:1.2;"/>
   </g>
   <g id="line2d_24">
    <path clip-path="url(#p4365aacbea)" d="M 675.366895 109.790883 
L 670.74051 109.147994 
L 663.02325 108.306126 
L 651.957369 107.334301 
L 628.784425 105.345292 
L 606.12116 103.129986 
L 600.94366 102.920299 
L 595.880019 102.936658 
L 591.281556 103.176825 
L 587.787029 103.525107 
L 584.092575 104.074888 
L 580.59756 104.803109 
L 577.594545 105.641676 
L 575.025189 106.594618 
L 573.540932 107.318624 
L 572.315786 108.134047 
L 572.062339 108.360645 
L 571.526531 109.120824 
L 571.504409 109.670331 
L 571.794522 110.122575 
L 572.41322 110.547887 
L 573.277849 110.901165 
L 574.881738 111.314872 
L 577.54132 111.728503 
L 581.089844 112.050912 
L 587.08477 112.3397 
L 617.866614 113.434921 
L 629.44494 113.971897 
L 635.405862 114.041105 
L 641.89039 113.885124 
L 649.028425 113.449817 
L 656.353735 112.752147 
L 663.787613 111.808698 
L 670.879707 110.684142 
L 675.414152 109.827857 
L 675.414152 109.827857 
" style="fill:none;stroke:#000000;stroke-linecap:square;stroke-opacity:0.7;stroke-width:1.2;"/>
   </g>
   <g id="line2d_25">
    <path clip-path="url(#p4365aacbea)" d="M 675.392564 69.384169 
L 665.59314 67.252701 
L 641.637222 62.293607 
L 633.74931 60.885146 
L 628.034718 60.071684 
L 622.317831 59.509973 
L 617.587792 59.266384 
L 612.674966 59.228097 
L 607.723198 59.396814 
L 601.933422 59.83522 
L 596.763979 60.435201 
L 591.606143 61.236875 
L 586.469818 62.269697 
L 582.207673 63.360508 
L 579.058936 64.363754 
L 575.888721 65.648056 
L 574.115571 66.575946 
L 573.002709 67.303122 
L 572.116701 68.03693 
L 571.284113 69.046424 
L 570.998716 69.668181 
L 570.894076 70.303721 
L 571.021258 71.036886 
L 571.359209 71.670915 
L 572.048165 72.417852 
L 573.119821 73.193113 
L 574.660721 74.005473 
L 576.052088 74.590216 
L 579.999031 75.867661 
L 584.323192 76.909243 
L 588.774538 77.736568 
L 593.752135 78.433584 
L 598.608516 78.908357 
L 603.428566 79.187278 
L 608.013482 79.273254 
L 612.793659 79.17029 
L 617.27408 78.888829 
L 622.032876 78.391627 
L 627.335151 77.609514 
L 633.62665 76.427022 
L 646.207811 73.713281 
L 654.60799 72.046283 
L 661.013856 71.002591 
L 666.866297 70.268508 
L 672.57852 69.773375 
L 675.410009 69.607477 
L 675.410009 69.607477 
" style="fill:none;stroke:#000000;stroke-linecap:square;stroke-opacity:0.7;stroke-width:1.2;"/>
   </g>
  </g>
 </g>
 <defs>
  <clipPath id="p4365aacbea">
   <rect height="262.08" width="694.08" x="12.96" y="12.96"/>
  </clipPath>
 </defs>
</svg>
