<?xml version="1.0" encoding="utf-8" standalone="no"?>
<!DOCTYPE svg PUBLIC "-//W3C//DTD SVG 1.1//EN"
  "http://www.w3.org/Graphics/SVG/1.1/DTD/svg11.dtd">
<!-- Created with matplotlib (https://matplotlib.org/) -->
<svg height="288pt" version="1.1" viewBox="0 0 720 288" width="720pt" xmlns="http://www.w3.org/2000/svg" xmlns:xlink="http://www.w3.org/1999/xlink">
 <defs>
  <style type="text/css">
*{stroke-linecap:butt;stroke-linejoin:round;}
  </style>
 </defs>
 <g id="figure_1">
  <g id="patch_1">
   <path d="M 0 288 
L 720 288 
L 720 0 
L 0 0 
z
" style="fill:#ffffff;"/>
  </g>
  <g id="axes_1">
   <g id="line2d_1">
    <path clip-path="url(#p0724fe8471)" d="M 150.672548 228.220698 
L 143.962911 226.093802 
L 137.718251 224.344552 
L 130.679789 222.61621 
L 123.015415 220.973152 
L 113.625151 219.215319 
L 103.91254 217.632953 
L 96.519797 216.617467 
L 89.754839 215.892279 
L 83.092799 215.423512 
L 77.58781 215.260779 
L 72.079485 215.351009 
L 68.992879 215.537975 
L 64.152075 216.080975 
L 60.298261 216.790397 
L 56.45859 217.823623 
L 53.698328 218.833727 
L 50.992069 220.120261 
L 49.282667 221.140049 
L 47.067162 222.833745 
L 45.919664 224.006189 
L 45.130299 225.092574 
L 44.637965 226.171491 
L 44.519957 227.243235 
L 44.664237 227.797683 
L 45.220194 228.548575 
L 45.811996 228.954178 
L 47.18185 229.455111 
L 49.311804 229.765116 
L 52.360831 229.81217 
L 56.849172 229.54531 
L 71.873326 228.363615 
L 78.506936 228.181659 
L 84.634421 228.28566 
L 90.578999 228.626993 
L 98.784899 229.368412 
L 107.508171 230.149575 
L 113.816497 230.465733 
L 118.387627 230.511984 
L 124.413092 230.341033 
L 130.205909 229.953717 
L 137.324498 229.223141 
L 145.16507 228.154035 
L 150.697495 227.284593 
L 150.697495 227.284593 
" style="fill:none;stroke:#000000;stroke-linecap:square;stroke-opacity:0.7;stroke-width:1.2;"/>
   </g>
   <g id="line2d_2">
    <path clip-path="url(#p0724fe8471)" d="M 150.63306 188.38882 
L 143.572261 186.554639 
L 136.555787 184.979527 
L 129.926064 183.704687 
L 122.223541 182.448004 
L 113.117564 181.215633 
L 98.400118 179.532488 
L 78.917055 177.436391 
L 73.23657 177.106554 
L 68.722891 177.088543 
L 65.132148 177.30602 
L 62.171545 177.697511 
L 58.868562 178.432887 
L 57.386866 178.88865 
L 53.910352 180.335798 
L 51.727438 181.569366 
L 49.744565 182.966973 
L 47.341215 185.230092 
L 46.616856 186.226328 
L 46.230069 187.137736 
L 46.211492 187.666734 
L 46.486696 188.186365 
L 47.128783 188.570133 
L 49.693098 188.905314 
L 52.927 188.801793 
L 61.351412 188.135988 
L 71.842087 187.407866 
L 80.848223 187.054026 
L 88.372754 186.987725 
L 95.875929 187.143202 
L 106.420566 187.641407 
L 116.729095 188.070478 
L 124.215558 188.171045 
L 133.673454 188.056544 
L 150.702369 187.564894 
L 150.702369 187.564894 
" style="fill:none;stroke:#000000;stroke-linecap:square;stroke-opacity:0.7;stroke-width:1.2;"/>
   </g>
   <g id="line2d_3">
    <path clip-path="url(#p0724fe8471)" d="M 149.952129 149.60757 
L 145.654743 147.917106 
L 139.099403 145.610937 
L 131.345428 143.161924 
L 123.665724 140.977334 
L 116.020095 139.037897 
L 108.952457 137.48622 
L 102.81777 136.384542 
L 97.790723 135.709317 
L 93.564457 135.332695 
L 88.433487 135.12301 
L 83.74888 135.162889 
L 78.597003 135.452964 
L 73.425087 136.005952 
L 67.885199 136.913894 
L 63.40958 137.924613 
L 59.361624 139.100366 
L 56.386074 140.161342 
L 53.239663 141.513835 
L 50.46371 142.966565 
L 48.343635 144.310875 
L 46.676373 145.603771 
L 45.128849 147.266564 
L 44.671397 148.2017 
L 44.62359 148.750293 
L 44.83275 149.303216 
L 45.329231 149.775765 
L 45.862286 150.068619 
L 47.163452 150.504518 
L 49.322243 150.915221 
L 52.003026 151.221021 
L 58.382307 151.600604 
L 65.893513 151.744428 
L 72.944339 151.676735 
L 81.23846 151.369828 
L 89.429759 150.820714 
L 96.91361 150.099953 
L 118.687219 147.710644 
L 124.4988 147.435034 
L 130.501859 147.399943 
L 137.063418 147.631509 
L 143.995873 148.15023 
L 149.906997 148.788588 
L 149.906997 148.788588 
" style="fill:none;stroke:#000000;stroke-linecap:square;stroke-opacity:0.7;stroke-width:1.2;"/>
   </g>
   <g id="line2d_4">
    <path clip-path="url(#p0724fe8471)" d="M 150.613382 109.529521 
L 144.306077 108.555677 
L 135.956885 107.506315 
L 126.341958 106.556377 
L 116.706326 105.824947 
L 107.199745 105.315606 
L 98.420822 105.049591 
L 88.125552 104.964449 
L 77.764323 105.068751 
L 67.937576 105.388278 
L 60.346042 105.86506 
L 54.229169 106.484752 
L 50.369023 107.080274 
L 47.81435 107.679135 
L 46.445449 108.189026 
L 45.823894 108.57093 
L 45.462972 109.087203 
L 45.503147 109.431098 
L 45.987928 109.963245 
L 46.206587 110.106472 
L 47.650025 110.738384 
L 49.286379 111.203514 
L 52.197581 111.773885 
L 56.186203 112.288288 
L 61.017492 112.688103 
L 68.703967 113.065615 
L 100.00178 114.111825 
L 108.263624 114.184948 
L 114.231017 114.023929 
L 120.139682 113.650926 
L 126.789421 112.985799 
L 134.118733 111.992597 
L 141.821482 110.700455 
L 149.554246 109.163456 
L 150.605792 108.933195 
L 150.605792 108.933195 
" style="fill:none;stroke:#000000;stroke-linecap:square;stroke-opacity:0.7;stroke-width:1.2;"/>
   </g>
   <g id="line2d_5">
    <path clip-path="url(#p0724fe8471)" d="M 150.517662 69.548664 
L 143.785857 68.486406 
L 134.69892 67.294616 
L 124.919277 66.232974 
L 113.572524 65.217659 
L 101.476274 64.363171 
L 92.249425 63.921399 
L 83.915839 63.740965 
L 76.790927 63.7828 
L 70.099353 64.03549 
L 64.950374 64.42708 
L 59.859743 65.059312 
L 55.688202 65.841164 
L 52.944669 66.541037 
L 49.551849 67.712266 
L 47.874277 68.488172 
L 46.343316 69.420945 
L 45.353024 70.361821 
L 45.123372 70.830698 
L 45.114195 71.177424 
L 45.223604 71.424969 
L 45.808778 71.869163 
L 46.715593 72.158279 
L 48.475505 72.397259 
L 51.608207 72.477348 
L 55.831123 72.329392 
L 64.21284 71.765933 
L 76.41664 70.97729 
L 83.912335 70.71596 
L 90.473765 70.683995 
L 97.69205 70.854547 
L 118.210472 71.519139 
L 124.612897 71.409213 
L 130.33678 71.119967 
L 137.355388 70.529142 
L 144.38932 69.708096 
L 150.537772 68.867174 
L 150.537772 68.867174 
" style="fill:none;stroke:#000000;stroke-linecap:square;stroke-opacity:0.7;stroke-width:1.2;"/>
   </g>
   <g id="line2d_6">
    <path clip-path="url(#p0724fe8471)" d="M 281.978308 227.464914 
L 275.312945 225.665521 
L 268.313465 224.015809 
L 261.055965 222.516911 
L 250.673597 220.630705 
L 229.542704 217.127826 
L 222.036075 216.037288 
L 215.939552 215.379799 
L 211.185073 215.082351 
L 207.637135 215.01686 
L 203.156505 215.165833 
L 199.244126 215.547612 
L 195.675973 216.138679 
L 192.648746 216.851337 
L 189.905973 217.689309 
L 186.596702 218.984631 
L 184.822535 219.83147 
L 181.955392 221.497536 
L 180.995824 222.167737 
L 178.808778 224.08146 
L 177.816484 225.360902 
L 177.321209 226.421757 
L 177.189785 227.453813 
L 177.38337 228.221712 
L 177.792216 228.847344 
L 178.831696 229.657271 
L 179.640541 230.036091 
L 181.157701 230.493743 
L 183.321243 230.845777 
L 186.182109 231.024975 
L 189.395736 231.013415 
L 195.471094 230.701667 
L 210.580296 229.753363 
L 217.527918 229.576966 
L 224.752178 229.637464 
L 233.39054 229.969786 
L 244.427172 230.41165 
L 250.449583 230.433104 
L 255.922154 230.245579 
L 261.231705 229.869842 
L 266.759069 229.290114 
L 273.588665 228.345045 
L 281.938751 226.977862 
L 281.938751 226.977862 
" style="fill:none;stroke:#000000;stroke-linecap:square;stroke-opacity:0.7;stroke-width:1.2;"/>
   </g>
   <g id="line2d_7">
    <path clip-path="url(#p0724fe8471)" d="M 281.407719 188.658107 
L 275.5853 187.041007 
L 269.75822 185.651631 
L 264.044116 184.504483 
L 258.064409 183.512415 
L 250.897335 182.573968 
L 243.245361 181.82846 
L 234.258694 181.200302 
L 221.895514 180.593317 
L 213.833685 180.393225 
L 208.069744 180.433132 
L 202.794185 180.668563 
L 198.083372 181.087394 
L 193.464644 181.733909 
L 189.781046 182.449678 
L 185.564309 183.532068 
L 182.410407 184.570715 
L 179.332785 185.86004 
L 177.844262 186.663783 
L 176.851801 187.381315 
L 176.424952 187.885883 
L 176.333511 188.222055 
L 176.497824 188.558472 
L 176.742736 188.728362 
L 177.417898 188.959132 
L 178.275784 189.098976 
L 180.834049 189.20494 
L 184.131064 189.089154 
L 190.791013 188.554268 
L 208.228438 186.940167 
L 214.476136 186.626656 
L 220.276342 186.567388 
L 225.710511 186.728867 
L 232.187944 187.154167 
L 250.804919 188.563095 
L 257.580774 188.773824 
L 264.752466 188.778067 
L 272.633464 188.541553 
L 280.427666 188.058799 
L 281.444554 187.973853 
L 281.444554 187.973853 
" style="fill:none;stroke:#000000;stroke-linecap:square;stroke-opacity:0.7;stroke-width:1.2;"/>
   </g>
   <g id="line2d_8">
    <path clip-path="url(#p0724fe8471)" d="M 281.417593 150.530201 
L 263.696508 146.874417 
L 246.945354 143.609168 
L 239.379965 142.317203 
L 233.577944 141.513999 
L 227.681355 140.947886 
L 221.858786 140.657988 
L 215.576486 140.601399 
L 208.784154 140.778748 
L 203.215006 141.091245 
L 196.475262 141.692601 
L 191.861149 142.287949 
L 187.4336 143.068887 
L 184.025779 143.892625 
L 181.408714 144.752617 
L 179.443574 145.641006 
L 178.11321 146.492584 
L 177.208517 147.388975 
L 176.862674 147.997301 
L 176.73201 148.669123 
L 176.781099 149.051799 
L 177.192349 149.834084 
L 177.808416 150.40978 
L 178.750543 150.978803 
L 180.497985 151.668252 
L 183.340328 152.378365 
L 187.211911 153.008479 
L 193.543881 153.731783 
L 206.319159 154.887592 
L 216.270492 155.585674 
L 221.635936 155.800505 
L 227.887163 155.80757 
L 232.250689 155.614515 
L 237.539905 155.157693 
L 244.40449 154.301953 
L 268.555824 151.041909 
L 279.340236 149.916508 
L 281.417849 149.732179 
L 281.417849 149.732179 
" style="fill:none;stroke:#000000;stroke-linecap:square;stroke-opacity:0.7;stroke-width:1.2;"/>
   </g>
   <g id="line2d_9">
    <path clip-path="url(#p0724fe8471)" d="M 281.833346 109.408745 
L 272.763184 106.755943 
L 264.152569 104.479756 
L 256.658691 102.701866 
L 248.267278 100.948473 
L 241.538632 99.755845 
L 236.255348 98.989726 
L 230.379094 98.358609 
L 225.313701 98.027778 
L 218.996394 97.90173 
L 213.668685 98.037942 
L 208.442831 98.387809 
L 204.324745 98.823717 
L 199.271718 99.575857 
L 195.18882 100.38778 
L 191.715439 101.251064 
L 187.355604 102.614741 
L 183.916321 103.984513 
L 181.314305 105.287607 
L 179.699226 106.311869 
L 178.741405 107.102435 
L 178.030336 108.026573 
L 177.892381 108.57133 
L 178.006645 109.039196 
L 178.384236 109.484146 
L 179.011065 109.877932 
L 179.94904 110.253646 
L 182.131607 110.801618 
L 185.152615 111.281239 
L 189.48573 111.736058 
L 195.341122 112.113011 
L 201.361894 112.287921 
L 207.969197 112.254898 
L 214.350564 112.009371 
L 221.173334 111.52771 
L 229.436958 110.680799 
L 249.291036 108.421791 
L 256.184123 107.994485 
L 263.08538 107.82495 
L 269.880951 107.884126 
L 276.474483 108.130023 
L 281.768667 108.447855 
L 281.768667 108.447855 
" style="fill:none;stroke:#000000;stroke-linecap:square;stroke-opacity:0.7;stroke-width:1.2;"/>
   </g>
   <g id="line2d_10">
    <path clip-path="url(#p0724fe8471)" d="M 281.524056 69.956377 
L 276.821716 68.691704 
L 269.58355 66.988391 
L 259.803268 64.93364 
L 249.31475 62.938384 
L 241.535391 61.649533 
L 235.222954 60.806723 
L 229.490768 60.259564 
L 223.843958 59.949876 
L 218.197002 59.86727 
L 212.500155 60.007384 
L 206.607054 60.394273 
L 201.787821 60.913397 
L 197.454638 61.562853 
L 192.89782 62.472449 
L 188.997052 63.482499 
L 185.826255 64.509172 
L 182.654236 65.801886 
L 180.709179 66.816662 
L 179.136224 67.935092 
L 178.628182 68.474992 
L 178.272867 69.187888 
L 178.281045 69.665004 
L 178.500939 70.104018 
L 179.285434 70.760908 
L 180.218079 71.223105 
L 181.398011 71.651448 
L 183.704531 72.273608 
L 187.684583 73.044179 
L 193.034667 73.763263 
L 198.43766 74.227933 
L 204.142207 74.46573 
L 209.091682 74.46768 
L 214.491059 74.253924 
L 219.581721 73.846201 
L 225.242837 73.16289 
L 230.805177 72.278214 
L 250.332221 68.876339 
L 255.150084 68.400211 
L 260.1669 68.141574 
L 264.29262 68.102865 
L 270.536761 68.316618 
L 276.414973 68.776705 
L 281.624531 69.33226 
L 281.624531 69.33226 
" style="fill:none;stroke:#000000;stroke-linecap:square;stroke-opacity:0.7;stroke-width:1.2;"/>
   </g>
   <g id="line2d_11">
    <path clip-path="url(#p0724fe8471)" d="M 413.21499 226.64936 
L 401.119029 223.906916 
L 392.274545 222.144797 
L 384.125685 220.740346 
L 375.221109 219.4339 
L 366.044391 218.298896 
L 356.26706 217.297966 
L 348.321098 216.70267 
L 342.555039 216.463989 
L 336.905023 216.452614 
L 332.984497 216.612135 
L 328.046803 217.065138 
L 324.918244 217.536288 
L 321.226837 218.332644 
L 318.313979 219.202685 
L 315.562969 220.297965 
L 313.490269 221.380438 
L 312.033798 222.349351 
L 311.174415 223.052715 
L 310.210834 224.059845 
L 309.477967 225.26628 
L 309.278013 226.193374 
L 309.398621 226.887462 
L 309.982348 227.71904 
L 310.953231 228.366406 
L 312.221082 228.866767 
L 314.163349 229.345982 
L 317.389646 229.81887 
L 321.775592 230.183666 
L 328.590886 230.473264 
L 336.896491 230.592019 
L 345.958596 230.51405 
L 354.341982 230.245517 
L 362.412087 229.778835 
L 371.165312 229.056243 
L 393.847463 227.073184 
L 404.67409 226.403743 
L 413.172674 226.040747 
L 413.172674 226.040747 
" style="fill:none;stroke:#000000;stroke-linecap:square;stroke-opacity:0.7;stroke-width:1.2;"/>
   </g>
   <g id="line2d_12">
    <path clip-path="url(#p0724fe8471)" d="M 412.821612 188.396085 
L 406.003954 186.770069 
L 399.891949 185.520477 
L 393.716535 184.457293 
L 386.522649 183.441635 
L 379.073672 182.612584 
L 370.486577 181.907839 
L 361.660971 181.431007 
L 352.752609 181.163639 
L 343.985634 181.108366 
L 336.873637 181.288334 
L 331.16333 181.655585 
L 325.993051 182.217508 
L 321.481468 182.930318 
L 317.90875 183.675965 
L 314.210886 184.666101 
L 311.297187 185.678221 
L 309.25321 186.640251 
L 308.197913 187.493647 
L 308.106686 187.831948 
L 308.370504 188.170611 
L 308.995294 188.416731 
L 310.292263 188.628025 
L 312.282464 188.739163 
L 316.753511 188.691259 
L 323.590714 188.3313 
L 337.383705 187.291693 
L 349.907493 186.430969 
L 358.451753 186.068608 
L 366.265557 185.961004 
L 376.088511 186.099969 
L 389.855324 186.559763 
L 406.167181 187.310383 
L 412.899162 187.717018 
L 412.899162 187.717018 
" style="fill:none;stroke:#000000;stroke-linecap:square;stroke-opacity:0.7;stroke-width:1.2;"/>
   </g>
   <g id="line2d_13">
    <path clip-path="url(#p0724fe8471)" d="M 412.949793 148.919341 
L 406.05961 146.455453 
L 399.006946 144.20641 
L 391.657749 142.148387 
L 384.673955 140.441365 
L 377.983883 139.020677 
L 371.611743 137.86964 
L 365.545451 136.991485 
L 359.750025 136.401521 
L 354.427741 136.106131 
L 348.609862 136.058937 
L 343.553482 136.245595 
L 338.772169 136.617291 
L 333.895423 137.205422 
L 329.086308 138.022974 
L 324.815434 138.991451 
L 320.884496 140.143333 
L 317.830916 141.268411 
L 314.647305 142.749065 
L 312.478223 144.03802 
L 310.501885 145.590468 
L 309.994342 146.105089 
L 309.081983 147.354257 
L 308.727794 148.289923 
L 308.679654 148.95662 
L 308.837221 149.621087 
L 309.254926 150.289384 
L 310.128226 151.030743 
L 311.707183 151.794458 
L 313.94161 152.433265 
L 316.411563 152.873344 
L 320.690305 153.316206 
L 325.237575 153.558473 
L 332.692597 153.719892 
L 347.104808 153.74098 
L 363.589286 153.561608 
L 373.174311 153.223291 
L 381.196768 152.689673 
L 388.074274 152.029462 
L 396.3988 151.00582 
L 406.275828 149.543851 
L 412.928964 148.474727 
L 412.928964 148.474727 
" style="fill:none;stroke:#000000;stroke-linecap:square;stroke-opacity:0.7;stroke-width:1.2;"/>
   </g>
   <g id="line2d_14">
    <path clip-path="url(#p0724fe8471)" d="M 412.770893 110.895792 
L 387.001492 106.684439 
L 368.595829 103.625235 
L 361.695584 102.698974 
L 356.407245 102.184751 
L 351.098072 101.878054 
L 345.143177 101.780889 
L 339.433604 101.911503 
L 333.472955 102.267916 
L 327.52233 102.858872 
L 322.075308 103.648821 
L 317.607406 104.543165 
L 314.237534 105.443492 
L 310.908987 106.673885 
L 308.936727 107.76027 
L 307.821289 108.807727 
L 307.542139 109.526753 
L 307.624494 110.009561 
L 308.023795 110.528526 
L 308.815386 111.023344 
L 310.055519 111.471018 
L 312.481975 111.970344 
L 315.112359 112.284991 
L 320.381489 112.652537 
L 336.877773 113.615619 
L 349.573738 114.712349 
L 357.806414 115.31834 
L 363.350375 115.503936 
L 368.517334 115.443936 
L 373.361108 115.179429 
L 380.0752 114.547789 
L 388.837585 113.452477 
L 412.785084 110.194594 
L 412.785084 110.194594 
" style="fill:none;stroke:#000000;stroke-linecap:square;stroke-opacity:0.7;stroke-width:1.2;"/>
   </g>
   <g id="line2d_15">
    <path clip-path="url(#p0724fe8471)" d="M 412.96053 69.964867 
L 407.123452 67.705376 
L 400.189175 65.302298 
L 393.081192 63.115661 
L 386.453872 61.291028 
L 378.891743 59.438325 
L 371.530276 57.879256 
L 366.058569 56.911354 
L 360.499564 56.146623 
L 355.529068 55.691279 
L 351.702649 55.503902 
L 346.914435 55.478292 
L 342.634049 55.65766 
L 337.99433 56.078695 
L 333.923012 56.659026 
L 329.597605 57.519881 
L 326.398434 58.343544 
L 322.731923 59.519362 
L 320.37202 60.431114 
L 317.238737 61.872767 
L 315.621869 62.744523 
L 312.410063 64.852129 
L 310.867727 66.164251 
L 309.560719 67.659555 
L 309.076602 68.49136 
L 308.785701 69.503941 
L 308.820352 70.146475 
L 308.951163 70.541084 
L 309.820447 71.547276 
L 310.682491 72.04615 
L 312.160548 72.579453 
L 312.943286 72.778001 
L 315.958935 73.27239 
L 319.674944 73.576518 
L 324.132199 73.73247 
L 332.421653 73.747085 
L 343.02006 73.530608 
L 354.840553 73.060391 
L 364.025067 72.455422 
L 374.659874 71.483728 
L 388.110934 70.273586 
L 396.450089 69.762941 
L 404.67822 69.494984 
L 412.8667 69.456714 
L 412.8667 69.456714 
" style="fill:none;stroke:#000000;stroke-linecap:square;stroke-opacity:0.7;stroke-width:1.2;"/>
   </g>
   <g id="line2d_16">
    <path clip-path="url(#p0724fe8471)" d="M 544.0353 227.699583 
L 527.893372 225.182017 
L 511.533211 222.82366 
L 500.344603 221.431445 
L 493.261298 220.743056 
L 485.9006 220.271128 
L 479.925817 220.102513 
L 473.607406 220.145519 
L 468.129663 220.376704 
L 462.919744 220.779273 
L 457.780855 221.376286 
L 453.294516 222.095216 
L 449.203527 222.96421 
L 446.138051 223.809709 
L 443.307362 224.839669 
L 441.980624 225.473489 
L 440.365294 226.570895 
L 439.738799 227.362878 
L 439.595129 227.958354 
L 439.608689 228.108797 
L 439.94577 228.76674 
L 440.623818 229.295292 
L 441.90248 229.847248 
L 442.343753 229.98255 
L 445.358068 230.57684 
L 448.719669 230.904747 
L 453.723267 231.116542 
L 480.795938 231.740974 
L 498.306978 232.517749 
L 503.974824 232.510419 
L 510.177255 232.246432 
L 516.560383 231.703417 
L 522.975559 230.919251 
L 530.711051 229.709366 
L 538.538728 228.237081 
L 544.086633 227.082178 
L 544.086633 227.082178 
" style="fill:none;stroke:#000000;stroke-linecap:square;stroke-opacity:0.7;stroke-width:1.2;"/>
   </g>
   <g id="line2d_17">
    <path clip-path="url(#p0724fe8471)" d="M 544.32515 187.31691 
L 535.548486 186.528085 
L 508.999937 184.446498 
L 491.905045 183.246208 
L 482.500841 182.820325 
L 473.821189 182.665986 
L 466.478574 182.770405 
L 461.115324 183.040133 
L 456.451005 183.457919 
L 451.512068 184.1487 
L 447.761823 184.898974 
L 444.389467 185.803006 
L 442.67903 186.382931 
L 440.455032 187.398204 
L 439.811691 187.913834 
L 439.688257 188.226959 
L 439.852752 188.499544 
L 440.615109 188.815995 
L 441.305535 188.95443 
L 444.121791 189.21164 
L 449.798469 189.320098 
L 457.444744 189.191197 
L 467.800113 188.774026 
L 481.373598 187.979341 
L 498.725916 186.950035 
L 507.383528 186.685146 
L 517.705553 186.632 
L 544.366165 186.845945 
L 544.366165 186.845945 
" style="fill:none;stroke:#000000;stroke-linecap:square;stroke-opacity:0.7;stroke-width:1.2;"/>
   </g>
   <g id="line2d_18">
    <path clip-path="url(#p0724fe8471)" d="M 543.93908 148.852538 
L 533.702638 147.232694 
L 525.254536 146.101315 
L 515.849018 145.066677 
L 507.166491 144.32263 
L 498.205608 143.783137 
L 489.885872 143.521787 
L 482.902159 143.512041 
L 475.630489 143.716302 
L 468.084663 144.14735 
L 460.99109 144.748279 
L 453.481246 145.606851 
L 446.99066 146.594043 
L 443.057046 147.399477 
L 441.283244 147.894979 
L 440.093679 148.388876 
L 439.644839 148.76002 
L 439.612302 149.084117 
L 439.917193 149.383593 
L 440.763662 149.742725 
L 442.477382 150.150495 
L 445.077961 150.539472 
L 449.964415 150.992876 
L 456.891187 151.362797 
L 467.66596 151.678161 
L 486.454846 151.996987 
L 496.431822 151.973402 
L 504.728186 151.725708 
L 513.453254 151.227673 
L 522.669905 150.49436 
L 533.313196 149.443684 
L 543.871041 148.223939 
L 543.871041 148.223939 
" style="fill:none;stroke:#000000;stroke-linecap:square;stroke-opacity:0.7;stroke-width:1.2;"/>
   </g>
   <g id="line2d_19">
    <path clip-path="url(#p0724fe8471)" d="M 544.158031 110.52024 
L 534.860691 108.355171 
L 523.67767 105.977429 
L 512.414748 103.830083 
L 503.495931 102.351525 
L 495.068246 101.197861 
L 487.857476 100.451764 
L 481.492753 100.011937 
L 476.498981 99.828292 
L 471.182597 99.809251 
L 465.934986 99.99895 
L 461.457564 100.360152 
L 457.839372 100.818924 
L 453.467715 101.630157 
L 450.547991 102.377989 
L 448.529644 103.023376 
L 445.741634 104.152683 
L 443.68915 105.248565 
L 441.750415 106.687891 
L 441.05419 107.439729 
L 440.689956 107.991848 
L 440.409787 109.037318 
L 440.55383 109.601017 
L 440.911496 110.074453 
L 441.513081 110.502182 
L 442.509626 110.914849 
L 444.228221 111.305979 
L 447.408408 111.618027 
L 452.024612 111.713144 
L 474.320676 111.712617 
L 482.99312 112.119236 
L 506.660481 113.473629 
L 512.957174 113.442183 
L 518.702801 113.184909 
L 524.539054 112.711378 
L 530.890621 111.974676 
L 537.990708 110.908487 
L 544.136852 109.817743 
L 544.136852 109.817743 
" style="fill:none;stroke:#000000;stroke-linecap:square;stroke-opacity:0.7;stroke-width:1.2;"/>
   </g>
   <g id="line2d_20">
    <path clip-path="url(#p0724fe8471)" d="M 544.18993 69.436517 
L 538.21892 68.392299 
L 510.494855 63.280831 
L 504.00843 62.432773 
L 499.10367 61.991833 
L 494.318888 61.754878 
L 489.036999 61.710759 
L 482.731002 61.905405 
L 475.326483 62.371296 
L 465.34567 63.262672 
L 457.154045 64.231915 
L 451.466269 65.133537 
L 447.427832 66.00934 
L 445.401187 66.598269 
L 443.097087 67.546818 
L 442.155499 68.142441 
L 441.299036 69.099594 
L 441.096813 69.844376 
L 441.156945 70.346777 
L 441.402674 70.921814 
L 442.13046 71.808368 
L 443.043246 72.53867 
L 444.696526 73.498086 
L 447.250966 74.569114 
L 449.509661 75.290162 
L 453.310861 76.210702 
L 456.693542 76.814047 
L 461.546092 77.421369 
L 467.102601 77.823405 
L 472.042228 77.959048 
L 476.797968 77.909065 
L 482.652376 77.611404 
L 489.212358 76.969937 
L 495.290732 76.099249 
L 502.111481 74.879819 
L 517.072325 72.089483 
L 524.674424 70.928814 
L 532.631576 69.954123 
L 539.969461 69.262003 
L 544.166666 68.963029 
L 544.166666 68.963029 
" style="fill:none;stroke:#000000;stroke-linecap:square;stroke-opacity:0.7;stroke-width:1.2;"/>
   </g>
   <g id="line2d_21">
    <path clip-path="url(#p0724fe8471)" d="M 675.490909 226.740393 
L 671.926268 225.052699 
L 667.038027 222.962596 
L 662.276752 221.15397 
L 657.349285 219.494543 
L 651.634775 217.811742 
L 645.640532 216.295625 
L 639.160515 214.918111 
L 632.605563 213.792456 
L 627.08711 213.063379 
L 622.051403 212.587538 
L 617.327073 212.317162 
L 612.265944 212.226224 
L 607.774134 212.327024 
L 602.882088 212.648725 
L 598.999498 213.081898 
L 594.574545 213.801431 
L 590.384294 214.749663 
L 587.28405 215.653483 
L 584.159482 216.773513 
L 580.996665 218.164059 
L 577.988569 219.784566 
L 576.641809 220.628523 
L 574.452819 222.212184 
L 572.817977 223.652418 
L 571.383098 225.306272 
L 570.805156 226.291257 
L 570.584816 226.905254 
L 570.520298 227.689058 
L 570.727951 228.319944 
L 571.121082 228.787673 
L 571.840277 229.242579 
L 573.436036 229.733902 
L 574.696479 229.925447 
L 577.708447 230.091568 
L 581.58047 230.02402 
L 588.025466 229.625149 
L 600.337173 228.568949 
L 613.310736 227.547123 
L 622.68464 227.027242 
L 633.921249 226.638564 
L 653.901732 226.21683 
L 666.337092 226.134492 
L 673.260506 226.264291 
L 675.471869 226.367017 
L 675.471869 226.367017 
" style="fill:none;stroke:#000000;stroke-linecap:square;stroke-opacity:0.7;stroke-width:1.2;"/>
   </g>
   <g id="line2d_22">
    <path clip-path="url(#p0724fe8471)" d="M 675.298581 187.189445 
L 664.910545 186.235784 
L 641.378517 184.016542 
L 632.810305 183.467423 
L 626.027161 183.243154 
L 618.556043 183.220738 
L 608.123926 183.446333 
L 597.836714 183.876789 
L 590.043416 184.417444 
L 583.896943 185.0521 
L 579.18768 185.719093 
L 575.511215 186.415725 
L 573.456675 186.941845 
L 572.323965 187.346968 
L 571.575191 187.83876 
L 571.531585 188.158551 
L 571.854584 188.458085 
L 572.509784 188.744817 
L 574.791711 189.320797 
L 578.420071 189.937487 
L 583.637471 190.615733 
L 590.316787 191.266005 
L 597.145569 191.708289 
L 604.180723 191.94049 
L 611.400319 191.953962 
L 618.547327 191.749446 
L 626.329155 191.291088 
L 635.458501 190.506916 
L 669.575599 187.346207 
L 675.259819 186.856397 
L 675.259819 186.856397 
" style="fill:none;stroke:#000000;stroke-linecap:square;stroke-opacity:0.7;stroke-width:1.2;"/>
   </g>
   <g id="line2d_23">
    <path clip-path="url(#p0724fe8471)" d="M 675.294858 149.675678 
L 658.262627 146.519094 
L 636.577285 142.517536 
L 628.500367 141.257493 
L 622.941916 140.567815 
L 616.719718 140.036638 
L 612.278687 139.840889 
L 606.73992 139.828072 
L 601.672665 140.046038 
L 597.444186 140.396953 
L 591.632282 141.137491 
L 587.361744 141.889476 
L 583.214074 142.823523 
L 579.762784 143.805367 
L 577.217555 144.705756 
L 575.28665 145.547958 
L 572.953936 146.929846 
L 572.130891 147.65249 
L 571.567449 148.423351 
L 571.395607 148.914685 
L 571.413984 149.503786 
L 571.710528 150.066334 
L 572.521841 150.7228 
L 573.314872 151.103225 
L 574.827225 151.582997 
L 575.79599 151.803033 
L 579.41066 152.341454 
L 584.206535 152.739054 
L 592.652247 153.131305 
L 609.521178 153.607096 
L 620.79434 153.732456 
L 628.479594 153.583101 
L 633.619123 153.32442 
L 641.606291 152.674896 
L 652.083915 151.535999 
L 672.606098 149.247152 
L 675.42471 148.973762 
L 675.42471 148.973762 
" style="fill:none;stroke:#000000;stroke-linecap:square;stroke-opacity:0.7;stroke-width:1.2;"/>
   </g>
   <g id="line2d_24">
    <path clip-path="url(#p0724fe8471)" d="M 675.411539 109.357399 
L 664.256794 107.208597 
L 653.388657 105.317159 
L 642.459321 103.634801 
L 634.313163 102.601517 
L 627.363494 101.943874 
L 620.551702 101.532398 
L 613.271533 101.337431 
L 606.304307 101.368145 
L 599.764517 101.600837 
L 593.791592 102.0336 
L 589.090234 102.580492 
L 585.286929 103.209557 
L 581.421842 104.091672 
L 578.983688 104.829215 
L 576.37365 105.864472 
L 574.551215 106.856017 
L 573.572572 107.583565 
L 573.188763 107.949655 
L 572.470139 109.072031 
L 572.40967 109.840639 
L 572.474203 110.084197 
L 572.727754 110.550898 
L 573.279878 111.096388 
L 574.049038 111.570867 
L 575.873972 112.254968 
L 577.31388 112.596606 
L 580.426276 113.050138 
L 584.30138 113.325529 
L 589.928784 113.454868 
L 600.894153 113.410189 
L 617.624616 113.391821 
L 633.454264 113.363428 
L 640.600502 113.115297 
L 646.793198 112.706929 
L 654.230024 111.980481 
L 662.172529 110.956938 
L 671.880573 109.451546 
L 675.389452 108.88172 
L 675.389452 108.88172 
" style="fill:none;stroke:#000000;stroke-linecap:square;stroke-opacity:0.7;stroke-width:1.2;"/>
   </g>
   <g id="line2d_25">
    <path clip-path="url(#p0724fe8471)" d="M 675.037464 70.289766 
L 658.339369 67.939606 
L 644.56235 66.172736 
L 635.359453 65.196218 
L 627.215929 64.534867 
L 617.952239 63.995151 
L 607.750539 63.618422 
L 600.36223 63.560466 
L 594.634848 63.720047 
L 590.162048 64.01564 
L 585.35094 64.552269 
L 581.138351 65.272068 
L 578.02919 66.021158 
L 575.070282 67.022655 
L 573.157994 67.978702 
L 572.053016 68.85972 
L 571.616171 69.538873 
L 571.536777 70.014107 
L 571.666609 70.497483 
L 571.932697 70.873611 
L 572.731215 71.484923 
L 573.754448 71.965208 
L 575.420208 72.492504 
L 577.582808 72.962821 
L 580.742904 73.43635 
L 586.048618 73.952892 
L 593.913233 74.436867 
L 607.362589 74.991919 
L 618.252775 75.237955 
L 625.002226 75.189183 
L 630.599136 74.970561 
L 636.556243 74.554256 
L 645.406176 73.674586 
L 657.988876 72.15358 
L 674.168028 69.977213 
L 675.106228 69.83839 
L 675.106228 69.83839 
" style="fill:none;stroke:#000000;stroke-linecap:square;stroke-opacity:0.7;stroke-width:1.2;"/>
   </g>
  </g>
 </g>
 <defs>
  <clipPath id="p0724fe8471">
   <rect height="262.08" width="694.08" x="12.96" y="12.96"/>
  </clipPath>
 </defs>
</svg>
