<?xml version="1.0" encoding="utf-8" standalone="no"?>
<!DOCTYPE svg PUBLIC "-//W3C//DTD SVG 1.1//EN"
  "http://www.w3.org/Graphics/SVG/1.1/DTD/svg11.dtd">
<!-- Created with matplotlib (https://matplotlib.org/) -->
<svg height="288pt" version="1.1" viewBox="0 0 720 288" width="720pt" xmlns="http://www.w3.org/2000/svg" xmlns:xlink="http://www.w3.org/1999/xlink">
 <defs>
  <style type="text/css">
*{stroke-linecap:butt;stroke-linejoin:round;}
  </style>
 </defs>
 <g id="figure_1">
  <g id="patch_1">
   <path d="M 0 288 
L 720 288 
L 720 0 
L 0 0 
z
" style="fill:#ffffff;"/>
  </g>
  <g id="axes_1">
   <g id="line2d_1">
    <path clip-path="url(#pb040438c9b)" d="M 149.025402 227.575852 
L 133.456986 224.477394 
L 123.331165 222.681006 
L 115.368989 221.443038 
L 108.103917 220.51528 
L 102.350813 219.981721 
L 96.172528 219.656991 
L 90.094482 219.573261 
L 82.820171 219.691063 
L 75.246951 220.008527 
L 68.986643 220.451291 
L 63.338225 221.053172 
L 58.976396 221.7009 
L 54.781605 222.529336 
L 51.310719 223.428513 
L 48.353941 224.444122 
L 46.846567 225.147953 
L 45.833955 225.896488 
L 45.683437 226.34052 
L 45.934183 226.637851 
L 46.634255 226.899864 
L 47.605147 227.065801 
L 50.259453 227.239669 
L 56.070068 227.270267 
L 71.970293 227.001222 
L 113.638933 226.320991 
L 127.914285 226.314395 
L 141.644247 226.535794 
L 149.010922 226.712016 
L 149.010922 226.712016 
" style="fill:none;stroke:#000000;stroke-linecap:square;stroke-opacity:0.7;stroke-width:1.2;"/>
   </g>
   <g id="line2d_2">
    <path clip-path="url(#pb040438c9b)" d="M 149.199522 188.349166 
L 132.482365 184.257253 
L 116.951241 180.486127 
L 110.259875 179.046324 
L 104.01805 177.935957 
L 98.502079 177.208196 
L 93.60013 176.781767 
L 87.999321 176.540648 
L 82.746852 176.532969 
L 76.976951 176.749679 
L 71.062542 177.217333 
L 65.841427 177.863992 
L 60.675876 178.778969 
L 58.280926 179.325302 
L 54.56664 180.385416 
L 51.916643 181.366444 
L 49.506493 182.521736 
L 47.719446 183.668546 
L 46.607851 184.644546 
L 45.854711 185.611899 
L 45.455752 186.577379 
L 45.42285 187.404175 
L 45.656046 188.102506 
L 46.212198 188.827451 
L 47.009453 189.442621 
L 47.684426 189.816645 
L 49.615356 190.557944 
L 52.276606 191.204711 
L 56.108809 191.795655 
L 61.463467 192.301335 
L 68.399596 192.669833 
L 75.423108 192.829249 
L 83.572396 192.77724 
L 91.255143 192.474566 
L 98.558265 191.932191 
L 106.445838 191.092162 
L 126.948409 188.731251 
L 135.344518 188.059969 
L 143.345567 187.630942 
L 149.250486 187.393566 
L 149.250486 187.393566 
" style="fill:none;stroke:#000000;stroke-linecap:square;stroke-opacity:0.7;stroke-width:1.2;"/>
   </g>
   <g id="line2d_3">
    <path clip-path="url(#pb040438c9b)" d="M 149.506362 148.725215 
L 140.810196 146.922457 
L 117.787292 142.085046 
L 110.548029 140.775497 
L 103.823438 139.77233 
L 98.360168 139.155707 
L 92.034054 138.676978 
L 85.421799 138.415916 
L 78.159774 138.370768 
L 71.442626 138.570999 
L 66.773725 138.896112 
L 61.799868 139.48938 
L 58.095275 140.170369 
L 54.338704 141.171166 
L 51.887446 142.073634 
L 49.731831 143.121591 
L 47.988881 144.262476 
L 46.765364 145.384493 
L 45.927655 146.629541 
L 45.677866 147.770115 
L 45.693479 147.963085 
L 46.042752 148.845066 
L 46.430846 149.275944 
L 47.232154 149.815171 
L 47.781022 150.063456 
L 49.93441 150.629839 
L 51.869602 150.863223 
L 55.52718 150.985102 
L 59.834376 150.876553 
L 72.001731 150.218251 
L 79.984713 149.906775 
L 87.934835 149.839866 
L 95.500751 150.009317 
L 109.515197 150.416797 
L 116.716729 150.370339 
L 124.246823 150.091084 
L 132.376455 149.572225 
L 142.850126 148.657712 
L 149.473282 147.979222 
L 149.473282 147.979222 
" style="fill:none;stroke:#000000;stroke-linecap:square;stroke-opacity:0.7;stroke-width:1.2;"/>
   </g>
   <g id="line2d_4">
    <path clip-path="url(#pb040438c9b)" d="M 149.479219 109.115893 
L 142.198005 107.836738 
L 116.899969 103.270945 
L 108.24522 101.983895 
L 101.261851 101.150645 
L 93.900461 100.500242 
L 86.809471 100.093303 
L 80.347787 99.919649 
L 73.912717 99.978832 
L 68.735289 100.255175 
L 64.61239 100.673878 
L 60.554517 101.31418 
L 57.430326 102.007564 
L 54.811928 102.763881 
L 52.732908 103.513951 
L 50.247944 104.66132 
L 48.881997 105.47934 
L 47.563331 106.535458 
L 46.824008 107.490631 
L 46.627433 108.101366 
L 46.703164 108.645982 
L 46.958622 109.023794 
L 47.447765 109.382452 
L 48.318708 109.720134 
L 49.713403 109.980414 
L 52.033572 110.109259 
L 56.02734 109.974621 
L 63.893653 109.312708 
L 71.389958 108.696914 
L 77.593954 108.384494 
L 83.321476 108.326812 
L 88.240582 108.472065 
L 94.53617 108.88765 
L 109.605065 110.048848 
L 115.853384 110.233599 
L 122.133166 110.199521 
L 129.29155 109.93621 
L 137.775816 109.378107 
L 146.927969 108.53785 
L 149.403317 108.271929 
L 149.403317 108.271929 
" style="fill:none;stroke:#000000;stroke-linecap:square;stroke-opacity:0.7;stroke-width:1.2;"/>
   </g>
   <g id="line2d_5">
    <path clip-path="url(#pb040438c9b)" d="M 149.130597 68.992687 
L 138.765043 65.301668 
L 128.682326 61.969279 
L 120.493586 59.463151 
L 113.855535 57.613753 
L 108.160016 56.226645 
L 103.422342 55.268702 
L 98.952617 54.56295 
L 93.895766 54.016374 
L 89.612438 53.76471 
L 84.778113 53.708105 
L 80.130291 53.876782 
L 75.555394 54.259149 
L 71.666844 54.76299 
L 67.235413 55.560753 
L 63.24547 56.516658 
L 60.074866 57.469061 
L 57.099189 58.551043 
L 53.785256 60.022435 
L 50.98456 61.552898 
L 48.854639 62.967565 
L 46.621483 64.847728 
L 46.075591 65.42079 
L 45.067918 66.767677 
L 44.570749 67.956807 
L 44.509091 68.489856 
L 44.634475 69.164455 
L 44.951927 69.682382 
L 45.46778 70.128217 
L 46.044188 70.439593 
L 47.268453 70.835154 
L 48.421881 71.045636 
L 51.649907 71.270056 
L 56.467496 71.198537 
L 69.241173 70.522502 
L 78.902174 70.145616 
L 87.469396 70.049863 
L 99.428725 70.204325 
L 110.798808 70.281347 
L 120.318376 70.099003 
L 130.793231 69.657379 
L 141.554748 68.979599 
L 149.064682 68.353663 
L 149.064682 68.353663 
" style="fill:none;stroke:#000000;stroke-linecap:square;stroke-opacity:0.7;stroke-width:1.2;"/>
   </g>
   <g id="line2d_6">
    <path clip-path="url(#pb040438c9b)" d="M 281.029829 226.398888 
L 264.485896 221.79249 
L 252.975212 218.762378 
L 245.856119 217.100479 
L 240.166354 215.976143 
L 235.219556 215.189357 
L 230.099128 214.58513 
L 225.25224 214.213276 
L 219.925392 214.015957 
L 214.300267 214.026164 
L 208.919371 214.23373 
L 203.28347 214.667996 
L 198.143467 215.293468 
L 193.26224 216.153326 
L 188.987903 217.200167 
L 185.785024 218.23567 
L 183.290107 219.24864 
L 180.609176 220.62711 
L 178.84204 221.789927 
L 177.598552 222.81896 
L 176.729305 223.735146 
L 176.275909 224.344059 
L 175.656855 225.667556 
L 175.561601 226.536112 
L 175.619838 226.951908 
L 175.950388 227.735027 
L 176.582823 228.464094 
L 177.570713 229.152223 
L 178.387752 229.555322 
L 180.998342 230.414206 
L 184.4613 231.106144 
L 189.542783 231.745925 
L 195.765551 232.246181 
L 202.99131 232.586108 
L 209.784982 232.686789 
L 216.289368 232.553623 
L 221.519941 232.256269 
L 227.533325 231.69025 
L 234.4781 230.779633 
L 257.124712 227.557459 
L 265.077235 226.730481 
L 274.441314 225.992274 
L 281.00782 225.580363 
L 281.00782 225.580363 
" style="fill:none;stroke:#000000;stroke-linecap:square;stroke-opacity:0.7;stroke-width:1.2;"/>
   </g>
   <g id="line2d_7">
    <path clip-path="url(#pb040438c9b)" d="M 280.756463 187.610424 
L 271.582383 186.69189 
L 255.450529 184.814397 
L 233.809975 182.259567 
L 225.005388 181.479327 
L 217.284296 181.027739 
L 209.42985 180.789336 
L 202.370771 180.800115 
L 196.561902 181.027697 
L 191.254685 181.476196 
L 188.635406 181.809637 
L 184.126199 182.623395 
L 181.229973 183.379171 
L 178.61784 184.346213 
L 177.282298 185.065336 
L 176.373226 185.818209 
L 176.202639 186.035339 
L 175.945956 186.814365 
L 176.083355 187.278337 
L 176.511659 187.772907 
L 177.070267 188.149754 
L 177.992251 188.57345 
L 180.312676 189.250129 
L 183.143164 189.781261 
L 187.147065 190.303769 
L 193.101878 190.845301 
L 200.850853 191.310113 
L 208.353166 191.552243 
L 216.06566 191.575027 
L 222.709475 191.385303 
L 229.3694 190.989163 
L 237.603112 190.264023 
L 260.732446 188.072415 
L 272.643505 187.256322 
L 280.73594 186.754536 
L 280.73594 186.754536 
" style="fill:none;stroke:#000000;stroke-linecap:square;stroke-opacity:0.7;stroke-width:1.2;"/>
   </g>
   <g id="line2d_8">
    <path clip-path="url(#pb040438c9b)" d="M 280.23282 148.932928 
L 270.810448 147.159001 
L 237.288091 140.708611 
L 230.394221 139.608329 
L 224.205395 138.835759 
L 218.543889 138.346617 
L 212.78708 138.067018 
L 207.375235 138.010634 
L 202.857074 138.134546 
L 197.598505 138.516428 
L 193.500405 139.040855 
L 190.360232 139.620515 
L 187.308446 140.381369 
L 184.644957 141.263686 
L 182.741719 142.071302 
L 181.258588 142.850571 
L 179.241775 144.27671 
L 178.433151 145.10145 
L 177.762167 146.207866 
L 177.627667 146.969784 
L 177.742847 147.48478 
L 178.157694 148.05083 
L 178.678751 148.413517 
L 179.914687 148.870815 
L 181.997927 149.198399 
L 184.310961 149.311727 
L 188.934149 149.248209 
L 204.08377 148.804188 
L 210.182239 148.904892 
L 215.698063 149.204373 
L 222.344793 149.827036 
L 233.451876 151.216062 
L 238.841457 151.787371 
L 244.718895 152.165016 
L 249.799699 152.248961 
L 255.419825 152.081482 
L 260.856635 151.674502 
L 267.501149 150.873 
L 273.814374 149.823344 
L 280.328079 148.487957 
L 280.328079 148.487957 
" style="fill:none;stroke:#000000;stroke-linecap:square;stroke-opacity:0.7;stroke-width:1.2;"/>
   </g>
   <g id="line2d_9">
    <path clip-path="url(#pb040438c9b)" d="M 280.660703 108.603556 
L 242.216541 102.847254 
L 234.546529 102.023203 
L 229.121884 101.645533 
L 223.621687 101.466964 
L 217.243609 101.49653 
L 209.786273 101.775501 
L 200.618999 102.366558 
L 193.387858 103.018827 
L 187.202052 103.792316 
L 183.369451 104.455011 
L 179.810872 105.311129 
L 178.022556 105.909384 
L 176.406656 106.676134 
L 175.919586 107.009903 
L 175.362271 107.62333 
L 175.268487 108.214082 
L 175.423033 108.532447 
L 175.825715 108.911368 
L 176.683514 109.367633 
L 178.231395 109.876779 
L 180.671485 110.408374 
L 184.861246 111.035698 
L 189.743084 111.573118 
L 198.616082 112.302073 
L 207.741136 112.83736 
L 216.537816 113.147457 
L 224.686443 113.200052 
L 231.405331 113.036023 
L 239.719759 112.582481 
L 249.781958 111.76108 
L 260.381881 110.661609 
L 269.374407 109.528872 
L 276.377152 108.462939 
L 280.722826 107.676263 
L 280.722826 107.676263 
" style="fill:none;stroke:#000000;stroke-linecap:square;stroke-opacity:0.7;stroke-width:1.2;"/>
   </g>
   <g id="line2d_10">
    <path clip-path="url(#pb040438c9b)" d="M 280.568365 69.2356 
L 268.834333 66.578229 
L 253.903149 63.236327 
L 246.790087 61.834524 
L 241.242315 60.9263 
L 235.389175 60.235335 
L 230.797599 59.931471 
L 226.266319 59.840854 
L 221.355666 59.94194 
L 214.139027 60.351641 
L 204.956499 61.138545 
L 196.587534 62.071666 
L 190.871644 62.90293 
L 186.380832 63.761137 
L 183.719865 64.413874 
L 180.592885 65.428112 
L 178.616562 66.35469 
L 177.515726 67.147261 
L 176.99346 67.825287 
L 176.868147 68.248468 
L 176.988389 68.892792 
L 177.138726 69.139655 
L 177.928237 69.859468 
L 179.159699 70.527669 
L 181.163556 71.278747 
L 184.531614 72.183032 
L 188.645707 73.003063 
L 193.015662 73.670957 
L 198.431903 74.280036 
L 203.402302 74.645149 
L 209.137578 74.830042 
L 213.981507 74.772386 
L 218.952455 74.491655 
L 223.246142 74.061373 
L 227.993623 73.39303 
L 234.921548 72.146601 
L 246.126031 70.042288 
L 251.784409 69.204299 
L 257.580253 68.586473 
L 262.981695 68.236688 
L 268.62425 68.090436 
L 275.019483 68.156289 
L 280.661706 68.337725 
L 280.661706 68.337725 
" style="fill:none;stroke:#000000;stroke-linecap:square;stroke-opacity:0.7;stroke-width:1.2;"/>
   </g>
   <g id="line2d_11">
    <path clip-path="url(#pb040438c9b)" d="M 411.286058 227.368044 
L 399.698426 223.775438 
L 390.21632 221.066085 
L 381.027233 218.670418 
L 372.96065 216.817944 
L 367.900546 215.838301 
L 363.070596 215.094136 
L 358.653921 214.618216 
L 353.995671 214.346904 
L 349.581233 214.296501 
L 344.091716 214.471652 
L 339.067578 214.823708 
L 333.030015 215.467305 
L 327.608714 216.279648 
L 323.566534 217.090863 
L 320.39323 217.919627 
L 317.535295 218.896319 
L 315.438194 219.834424 
L 313.492266 220.983684 
L 312.058616 222.133855 
L 310.876414 223.514282 
L 310.389169 224.428161 
L 310.140913 225.471512 
L 310.146408 225.865313 
L 310.427247 226.778883 
L 310.742399 227.229243 
L 311.035586 227.527739 
L 311.741132 228.041099 
L 313.357063 228.766837 
L 315.033813 229.243909 
L 317.059205 229.646219 
L 321.451838 230.200006 
L 327.373559 230.612902 
L 334.066601 230.839253 
L 341.811866 230.884734 
L 349.786226 230.704007 
L 357.57109 230.272397 
L 364.807585 229.633559 
L 387.26208 227.416845 
L 395.7182 226.926763 
L 403.020319 226.679927 
L 411.316649 226.561849 
L 411.316649 226.561849 
" style="fill:none;stroke:#000000;stroke-linecap:square;stroke-opacity:0.7;stroke-width:1.2;"/>
   </g>
   <g id="line2d_12">
    <path clip-path="url(#pb040438c9b)" d="M 412.084202 186.733581 
L 390.321816 182.478002 
L 380.115023 180.714319 
L 372.602507 179.610295 
L 366.844043 178.952449 
L 361.107206 178.518587 
L 355.403158 178.323187 
L 349.229963 178.343515 
L 342.381525 178.58078 
L 334.840725 179.052821 
L 328.873784 179.606619 
L 323.625087 180.298083 
L 319.420329 181.069074 
L 316.038213 181.897136 
L 312.7676 182.956668 
L 310.727731 183.816539 
L 309.239654 184.623367 
L 308.145376 185.507879 
L 307.945558 185.836539 
L 308.003262 186.292689 
L 308.38477 186.568233 
L 309.453283 186.860984 
L 311.581602 187.086832 
L 315.892366 187.252073 
L 344.182985 187.78032 
L 355.602945 187.836282 
L 367.503912 187.655346 
L 385.233772 187.149082 
L 398.926861 186.560344 
L 412.072618 185.768505 
L 412.072618 185.768505 
" style="fill:none;stroke:#000000;stroke-linecap:square;stroke-opacity:0.7;stroke-width:1.2;"/>
   </g>
   <g id="line2d_13">
    <path clip-path="url(#pb040438c9b)" d="M 412.290079 147.634836 
L 404.092111 146.610736 
L 364.59796 141.431552 
L 358.103989 140.916647 
L 350.602123 140.573056 
L 343.27128 140.482914 
L 336.091049 140.637608 
L 330.400678 140.96287 
L 325.605784 141.411244 
L 320.732108 142.075798 
L 316.363569 142.910219 
L 312.86083 143.817262 
L 310.365643 144.681448 
L 308.811214 145.412979 
L 307.778691 146.16768 
L 307.481949 146.715538 
L 307.617263 147.154496 
L 308.131661 147.552371 
L 308.673397 147.79115 
L 310.059566 148.184796 
L 313.163775 148.711395 
L 317.622958 149.187954 
L 324.021029 149.628317 
L 330.934253 149.88189 
L 336.845886 149.917075 
L 342.96297 149.752675 
L 348.282618 149.420171 
L 353.965403 148.856427 
L 359.831795 148.07325 
L 374.259727 146.038739 
L 379.125558 145.600707 
L 384.36802 145.339783 
L 390.055446 145.292751 
L 396.370552 145.489664 
L 403.416865 145.94983 
L 412.250323 146.695671 
L 412.250323 146.695671 
" style="fill:none;stroke:#000000;stroke-linecap:square;stroke-opacity:0.7;stroke-width:1.2;"/>
   </g>
   <g id="line2d_14">
    <path clip-path="url(#pb040438c9b)" d="M 411.938004 108.650942 
L 403.111347 105.353581 
L 396.393164 103.082935 
L 390.512303 101.305819 
L 384.222818 99.621407 
L 377.306769 98.016826 
L 371.938544 96.94522 
L 365.587594 95.879035 
L 359.599573 95.092661 
L 353.499074 94.536058 
L 347.568666 94.256212 
L 342.891043 94.236601 
L 337.744545 94.449163 
L 332.889465 94.91603 
L 328.75532 95.563214 
L 325.003653 96.397126 
L 321.559398 97.420298 
L 318.565436 98.561302 
L 315.638519 99.967812 
L 313.503361 101.233923 
L 311.41158 102.756134 
L 309.594957 104.464496 
L 308.572386 105.807282 
L 308.122279 106.76203 
L 308.020521 107.617836 
L 308.149593 108.049388 
L 308.423862 108.412979 
L 308.660679 108.59975 
L 309.772998 109.030917 
L 311.088738 109.207958 
L 314.193331 109.190258 
L 318.760633 108.805562 
L 339.28555 106.729686 
L 345.590479 106.40536 
L 351.750838 106.341627 
L 357.663628 106.533509 
L 366.453503 107.125438 
L 375.894135 107.742092 
L 384.961936 108.085496 
L 394.63555 108.193143 
L 405.266885 108.073156 
L 411.989564 107.900085 
L 411.989564 107.900085 
" style="fill:none;stroke:#000000;stroke-linecap:square;stroke-opacity:0.7;stroke-width:1.2;"/>
   </g>
   <g id="line2d_15">
    <path clip-path="url(#pb040438c9b)" d="M 412.532734 69.449262 
L 405.403675 68.076929 
L 395.264464 65.915059 
L 373.416812 61.173599 
L 367.596864 60.159061 
L 361.201657 59.297264 
L 355.454283 58.760609 
L 350.624217 58.4732 
L 343.86283 58.30858 
L 338.450706 58.384275 
L 334.191465 58.591919 
L 328.795673 59.083455 
L 324.123916 59.773257 
L 320.222319 60.603664 
L 317.521513 61.364596 
L 315.305808 62.147337 
L 312.503148 63.452134 
L 311.0777 64.346845 
L 310.223259 65.026422 
L 309.464853 65.810842 
L 308.828467 66.85624 
L 308.73084 67.145033 
L 308.700164 68.221008 
L 308.975851 68.865072 
L 309.625703 69.586471 
L 309.898895 69.796112 
L 311.468448 70.616721 
L 314.344365 71.453871 
L 318.097588 72.072064 
L 321.604715 72.42445 
L 326.460554 72.705508 
L 332.642721 72.821762 
L 339.682779 72.686313 
L 346.142391 72.328342 
L 352.630363 71.747706 
L 360.525248 70.775393 
L 375.539821 68.795735 
L 381.725222 68.23651 
L 387.334452 67.918183 
L 394.022703 67.778486 
L 399.972394 67.871842 
L 406.200458 68.176266 
L 412.512662 68.616646 
L 412.512662 68.616646 
" style="fill:none;stroke:#000000;stroke-linecap:square;stroke-opacity:0.7;stroke-width:1.2;"/>
   </g>
   <g id="line2d_16">
    <path clip-path="url(#pb040438c9b)" d="M 543.654264 227.567811 
L 530.710937 223.506511 
L 522.075952 220.986241 
L 514.709948 219.014589 
L 507.267341 217.266326 
L 501.628841 216.17833 
L 496.751494 215.453817 
L 492.347315 214.992714 
L 486.859468 214.664071 
L 480.611582 214.569678 
L 474.49851 214.714601 
L 468.55852 215.06866 
L 462.496538 215.681066 
L 458.003297 216.348726 
L 454.710498 216.992821 
L 450.870538 217.96642 
L 447.583547 219.060636 
L 445.303257 220.019197 
L 443.517373 220.93241 
L 441.161537 222.487569 
L 439.717166 223.842991 
L 438.936595 224.986219 
L 438.702465 225.605105 
L 438.627821 226.234103 
L 438.757395 226.85986 
L 439.163223 227.487128 
L 439.648047 227.903281 
L 440.162737 228.210488 
L 441.408126 228.702345 
L 443.323385 229.146254 
L 447.106239 229.583184 
L 450.90267 229.774383 
L 457.682399 229.866936 
L 468.052777 229.753313 
L 480.980627 229.397444 
L 493.418486 228.828554 
L 528.874827 226.899635 
L 540.374804 226.662295 
L 543.588505 226.613343 
L 543.588505 226.613343 
" style="fill:none;stroke:#000000;stroke-linecap:square;stroke-opacity:0.7;stroke-width:1.2;"/>
   </g>
   <g id="line2d_17">
    <path clip-path="url(#pb040438c9b)" d="M 543.400827 187.30617 
L 507.274054 178.414307 
L 500.782967 177.07896 
L 496.271888 176.341411 
L 491.362655 175.789133 
L 486.266022 175.502831 
L 481.641263 175.454717 
L 475.616041 175.621849 
L 469.449598 176.019531 
L 463.599691 176.623156 
L 458.621454 177.364806 
L 454.217692 178.269867 
L 451.293255 179.051101 
L 448.385801 180.022403 
L 445.742355 181.133294 
L 442.870375 182.7057 
L 442.085121 183.235866 
L 440.288672 184.750264 
L 439.397342 185.854876 
L 438.960708 186.777379 
L 438.864489 187.608227 
L 438.978497 188.108594 
L 439.372748 188.753406 
L 439.591681 188.979095 
L 441.436284 190.047297 
L 443.335203 190.645765 
L 445.253062 191.063558 
L 448.758079 191.590782 
L 453.454494 192.046835 
L 459.602435 192.411348 
L 467.932339 192.653554 
L 477.2392 192.673571 
L 485.521698 192.472783 
L 492.795772 192.096763 
L 501.171332 191.42583 
L 511.621006 190.349321 
L 529.799179 188.229802 
L 542.502515 186.565927 
L 543.375965 186.43536 
L 543.375965 186.43536 
" style="fill:none;stroke:#000000;stroke-linecap:square;stroke-opacity:0.7;stroke-width:1.2;"/>
   </g>
   <g id="line2d_18">
    <path clip-path="url(#pb040438c9b)" d="M 543.714889 147.38119 
L 527.21997 143.461516 
L 517.703738 141.476809 
L 510.714094 140.195659 
L 502.897 138.984483 
L 495.826396 138.128408 
L 489.757885 137.586174 
L 482.328 137.163576 
L 476.08216 137.029826 
L 470.924894 137.104474 
L 466.12378 137.365455 
L 461.978709 137.779495 
L 457.423289 138.491648 
L 454.449543 139.136701 
L 451.163781 140.053255 
L 447.758141 141.281627 
L 444.787222 142.655135 
L 442.989047 143.679195 
L 441.493073 144.712268 
L 440.307498 145.793904 
L 439.900533 146.366675 
L 439.759921 146.828683 
L 439.810144 147.099545 
L 440.148183 147.437275 
L 440.678085 147.633027 
L 442.175876 147.796657 
L 444.722672 147.732232 
L 449.304555 147.339509 
L 471.448801 145.168444 
L 478.602575 144.806602 
L 484.606295 144.751459 
L 490.58086 144.944061 
L 499.289103 145.518757 
L 511.563315 146.323492 
L 521.613241 146.717636 
L 530.794693 146.848506 
L 539.96589 146.748802 
L 543.728649 146.611807 
L 543.728649 146.611807 
" style="fill:none;stroke:#000000;stroke-linecap:square;stroke-opacity:0.7;stroke-width:1.2;"/>
   </g>
   <g id="line2d_19">
    <path clip-path="url(#pb040438c9b)" d="M 543.488419 109.34662 
L 536.540356 106.560373 
L 528.25052 103.465264 
L 519.558033 100.458056 
L 512.354276 98.172371 
L 505.646473 96.27703 
L 500.823751 95.106836 
L 495.995883 94.140353 
L 491.83267 93.492808 
L 487.005592 92.964908 
L 481.785265 92.655032 
L 477.009891 92.598063 
L 472.457636 92.743743 
L 467.532947 93.135554 
L 463.216178 93.707525 
L 457.93189 94.765977 
L 455.214047 95.502375 
L 451.73553 96.689073 
L 449.046786 97.843563 
L 446.992552 98.905919 
L 444.756601 100.298228 
L 442.592392 101.987434 
L 440.994009 103.613003 
L 439.892271 105.182923 
L 439.453323 106.170891 
L 439.271045 107.247298 
L 439.364985 107.86935 
L 439.615455 108.392979 
L 440.151916 108.946764 
L 440.715957 109.286483 
L 441.809172 109.675825 
L 443.350401 109.954808 
L 446.097131 110.124069 
L 450.490276 110.058405 
L 458.969922 109.597085 
L 480.614403 108.108546 
L 502.093283 106.614486 
L 508.779885 106.388554 
L 515.890966 106.380412 
L 523.182912 106.618856 
L 530.776984 107.113562 
L 539.070725 107.914635 
L 543.456712 108.426994 
L 543.456712 108.426994 
" style="fill:none;stroke:#000000;stroke-linecap:square;stroke-opacity:0.7;stroke-width:1.2;"/>
   </g>
   <g id="line2d_20">
    <path clip-path="url(#pb040438c9b)" d="M 543.633891 69.038693 
L 517.199276 62.855264 
L 506.893287 60.783798 
L 497.353058 59.087353 
L 488.851026 57.808318 
L 482.092635 57.016021 
L 476.151505 56.552159 
L 470.708742 56.383952 
L 466.227709 56.481394 
L 461.774387 56.840034 
L 457.88204 57.411382 
L 454.632705 58.10693 
L 451.442059 59.018031 
L 448.701274 60.015088 
L 446.43886 61.020199 
L 444.182318 62.233755 
L 442.138458 63.592699 
L 440.162784 65.33973 
L 439.17622 66.643637 
L 438.761958 67.631705 
L 438.720947 68.523268 
L 439.082956 69.309834 
L 439.721349 69.862372 
L 440.627252 70.283915 
L 441.332002 70.488417 
L 443.404891 70.796586 
L 446.589036 70.870356 
L 450.023684 70.714573 
L 457.453677 70.090217 
L 471.328021 68.885275 
L 479.828862 68.374138 
L 488.268736 68.11165 
L 497.779969 68.093149 
L 538.957675 68.370541 
L 543.634856 68.300024 
L 543.634856 68.300024 
" style="fill:none;stroke:#000000;stroke-linecap:square;stroke-opacity:0.7;stroke-width:1.2;"/>
   </g>
   <g id="line2d_21">
    <path clip-path="url(#pb040438c9b)" d="M 675.125475 226.588441 
L 662.677545 223.989833 
L 649.297382 220.960877 
L 637.45946 218.30564 
L 631.834639 217.219505 
L 626.385761 216.384813 
L 621.005438 215.816666 
L 615.245884 215.477606 
L 609.851826 215.365112 
L 603.661499 215.433598 
L 597.203545 215.728142 
L 591.44236 216.239183 
L 587.179082 216.837187 
L 583.555121 217.562058 
L 580.13247 218.515396 
L 577.806564 219.382881 
L 575.67937 220.413673 
L 573.545024 221.831385 
L 572.357587 222.944765 
L 571.910857 223.488535 
L 571.043739 225.154353 
L 570.915885 225.747507 
L 570.924625 226.726474 
L 571.315395 227.857418 
L 571.811287 228.572713 
L 573.003671 229.640551 
L 573.561925 230.004433 
L 575.974251 231.140691 
L 578.475111 231.930421 
L 580.87718 232.492917 
L 584.122997 233.064037 
L 589.052255 233.661355 
L 594.220218 234.048398 
L 600.194146 234.268509 
L 607.157198 234.268406 
L 614.144548 234.012042 
L 621.330844 233.486666 
L 629.212728 232.63488 
L 639.642925 231.23454 
L 658.571355 228.447312 
L 671.63543 226.335956 
L 675.167538 225.71428 
L 675.167538 225.71428 
" style="fill:none;stroke:#000000;stroke-linecap:square;stroke-opacity:0.7;stroke-width:1.2;"/>
   </g>
   <g id="line2d_22">
    <path clip-path="url(#pb040438c9b)" d="M 675.490909 187.118128 
L 658.667316 182.370694 
L 644.085832 178.329067 
L 637.196763 176.653409 
L 631.850787 175.575641 
L 626.932875 174.814842 
L 621.714354 174.276826 
L 616.714187 174.017135 
L 612.289882 173.97983 
L 607.017625 174.151729 
L 601.479544 174.575867 
L 597.225908 175.07823 
L 591.906295 175.954212 
L 588.540756 176.68045 
L 584.79094 177.690357 
L 581.420408 178.83429 
L 578.735381 179.965615 
L 576.700945 181.007509 
L 574.94458 182.098339 
L 573.308076 183.384965 
L 571.808955 185.135462 
L 571.402134 185.998867 
L 571.260336 186.718397 
L 571.368155 187.552093 
L 571.767458 188.279186 
L 572.546705 188.997604 
L 574.083453 189.792073 
L 576.152982 190.422148 
L 579.048385 190.957775 
L 583.36317 191.413129 
L 589.500646 191.730045 
L 597.974589 191.868667 
L 608.503409 191.783599 
L 617.509648 191.517255 
L 626.64716 191.017526 
L 635.455217 190.300701 
L 648.923479 188.940702 
L 668.888139 186.949466 
L 675.43923 186.349451 
L 675.43923 186.349451 
" style="fill:none;stroke:#000000;stroke-linecap:square;stroke-opacity:0.7;stroke-width:1.2;"/>
   </g>
   <g id="line2d_23">
    <path clip-path="url(#pb040438c9b)" d="M 674.943758 148.520733 
L 663.237026 145.751076 
L 654.665688 143.979251 
L 646.907163 142.614646 
L 639.572784 141.563863 
L 632.772656 140.829292 
L 626.343529 140.361607 
L 618.763859 140.05099 
L 609.241204 139.890262 
L 600.803433 139.950647 
L 595.129664 140.186246 
L 589.617553 140.669732 
L 586.347895 141.123626 
L 581.985672 141.987854 
L 578.190975 143.050419 
L 575.470832 144.050979 
L 573.081342 145.180189 
L 571.736163 146.028108 
L 571.04384 146.721306 
L 570.953718 147.024746 
L 571.054169 147.245908 
L 571.306129 147.409528 
L 571.808598 147.550495 
L 573.369236 147.664888 
L 576.210095 147.573313 
L 582.503175 147.082625 
L 595.738326 146.040642 
L 603.469043 145.69272 
L 609.840361 145.643636 
L 615.996323 145.839211 
L 623.357698 146.360584 
L 641.709773 147.866655 
L 649.11055 148.188052 
L 657.301158 148.307587 
L 665.894945 148.17864 
L 673.844039 147.813327 
L 675.02075 147.732684 
L 675.02075 147.732684 
" style="fill:none;stroke:#000000;stroke-linecap:square;stroke-opacity:0.7;stroke-width:1.2;"/>
   </g>
   <g id="line2d_24">
    <path clip-path="url(#pb040438c9b)" d="M 675.409617 107.445325 
L 652.302844 101.465747 
L 645.127647 99.887012 
L 639.248492 98.809498 
L 634.957369 98.185395 
L 629.581923 97.630668 
L 625.222459 97.375515 
L 619.632959 97.288894 
L 613.923265 97.438584 
L 607.507926 97.837918 
L 601.10193 98.449327 
L 595.137203 99.221459 
L 590.363056 100.014465 
L 585.676276 100.991928 
L 581.510942 102.080004 
L 578.151011 103.160744 
L 576.364628 103.834815 
L 573.367114 105.204919 
L 571.936566 106.056643 
L 570.887306 106.950017 
L 570.620232 107.368242 
L 570.571597 107.820403 
L 570.785728 108.180435 
L 571.348214 108.553397 
L 572.429422 108.93487 
L 574.124038 109.302426 
L 577.226152 109.744772 
L 582.774632 110.271092 
L 589.807412 110.687836 
L 596.406112 110.84829 
L 602.892981 110.746252 
L 607.744432 110.467584 
L 613.15366 109.926711 
L 618.868101 109.094462 
L 625.907139 107.815555 
L 634.24572 106.348849 
L 639.459358 105.674201 
L 644.103021 105.284354 
L 649.043431 105.084443 
L 654.165621 105.087428 
L 660.395842 105.334124 
L 667.79262 105.889497 
L 675.404884 106.597417 
L 675.404884 106.597417 
" style="fill:none;stroke:#000000;stroke-linecap:square;stroke-opacity:0.7;stroke-width:1.2;"/>
   </g>
   <g id="line2d_25">
    <path clip-path="url(#pb040438c9b)" d="M 675.216296 69.492478 
L 659.641874 65.546666 
L 649.429408 63.214182 
L 641.518083 61.624841 
L 634.739356 60.486862 
L 628.935751 59.737364 
L 623.881156 59.283028 
L 617.794404 58.979419 
L 611.405647 58.909841 
L 605.138713 59.051531 
L 598.042078 59.456839 
L 592.388573 60.007709 
L 587.326413 60.748029 
L 583.264886 61.592195 
L 580.456566 62.363111 
L 577.326465 63.48086 
L 575.666704 64.229613 
L 573.372275 65.554129 
L 572.058986 66.606652 
L 571.239492 67.615763 
L 570.985299 68.302792 
L 570.994103 68.728758 
L 571.211248 69.198412 
L 571.591698 69.558014 
L 572.497751 70.000342 
L 573.702743 70.30562 
L 574.514408 70.430511 
L 578.439375 70.642316 
L 581.959778 70.582888 
L 589.445369 70.189496 
L 606.234401 69.20016 
L 613.041722 68.99829 
L 619.956938 69.001682 
L 628.31777 69.260756 
L 641.892268 69.705658 
L 650.360806 69.736946 
L 659.641373 69.529889 
L 669.378433 69.084637 
L 675.194838 68.732464 
L 675.194838 68.732464 
" style="fill:none;stroke:#000000;stroke-linecap:square;stroke-opacity:0.7;stroke-width:1.2;"/>
   </g>
  </g>
 </g>
 <defs>
  <clipPath id="pb040438c9b">
   <rect height="262.08" width="694.08" x="12.96" y="12.96"/>
  </clipPath>
 </defs>
</svg>
