<svg viewBox="0 0 1496 400" xmlns="http://www.w3.org/2000/svg"><g><g><g><g><g><line x1="50" y1="378" x2="45" y2="378" style="visibility: inherit;" fill="rgb(0, 0, 0)" stroke="rgb(204, 204, 204)" stroke-width="1px"></line><line x1="50" y1="336" x2="45" y2="336" style="visibility: inherit;" fill="rgb(0, 0, 0)" stroke="rgb(204, 204, 204)" stroke-width="1px"></line><line x1="50" y1="294" x2="45" y2="294" style="visibility: inherit;" fill="rgb(0, 0, 0)" stroke="rgb(204, 204, 204)" stroke-width="1px"></line><line x1="50" y1="252" x2="45" y2="252" style="visibility: inherit;" fill="rgb(0, 0, 0)" stroke="rgb(204, 204, 204)" stroke-width="1px"></line><line x1="50" y1="210" x2="45" y2="210" style="visibility: inherit;" fill="rgb(0, 0, 0)" stroke="rgb(204, 204, 204)" stroke-width="1px"></line><line x1="50" y1="168" x2="45" y2="168" style="visibility: inherit;" fill="rgb(0, 0, 0)" stroke="rgb(204, 204, 204)" stroke-width="1px"></line><line x1="50" y1="126" x2="45" y2="126" style="visibility: inherit;" fill="rgb(0, 0, 0)" stroke="rgb(204, 204, 204)" stroke-width="1px"></line><line x1="50" y1="84" x2="45" y2="84" style="visibility: inherit;" fill="rgb(0, 0, 0)" stroke="rgb(204, 204, 204)" stroke-width="1px"></line><line x1="50" y1="42" x2="45" y2="42" style="visibility: inherit;" fill="rgb(0, 0, 0)" stroke="rgb(204, 204, 204)" stroke-width="1px"></line><line x1="50" y1="0" x2="45" y2="0" style="visibility: inherit;" fill="rgb(0, 0, 0)" stroke="rgb(204, 204, 204)" stroke-width="1px"></line></g><g transform="translate(40, 0)"><text x="0" y="378" dx="0em" dy="0.3em" style="text-anchor: end; visibility: hidden; font-family: &quot;Helvetica Neue&quot;, sans-serif; font-size: 12px; font-weight: 200;" fill="rgb(50, 49, 63)" stroke="none" stroke-width="1px">-3.5</text><text x="0" y="336" dx="0em" dy="0.3em" style="text-anchor: end; visibility: inherit; font-family: &quot;Helvetica Neue&quot;, sans-serif; font-size: 12px; font-weight: 200;" fill="rgb(50, 49, 63)" stroke="none" stroke-width="1px">-3</text><text x="0" y="294" dx="0em" dy="0.3em" style="text-anchor: end; visibility: inherit; font-family: &quot;Helvetica Neue&quot;, sans-serif; font-size: 12px; font-weight: 200;" fill="rgb(50, 49, 63)" stroke="none" stroke-width="1px">-2.5</text><text x="0" y="252" dx="0em" dy="0.3em" style="text-anchor: end; visibility: inherit; font-family: &quot;Helvetica Neue&quot;, sans-serif; font-size: 12px; font-weight: 200;" fill="rgb(50, 49, 63)" stroke="none" stroke-width="1px">-2</text><text x="0" y="210" dx="0em" dy="0.3em" style="text-anchor: end; visibility: inherit; font-family: &quot;Helvetica Neue&quot;, sans-serif; font-size: 12px; font-weight: 200;" fill="rgb(50, 49, 63)" stroke="none" stroke-width="1px">-1.5</text><text x="0" y="168" dx="0em" dy="0.3em" style="text-anchor: end; visibility: inherit; font-family: &quot;Helvetica Neue&quot;, sans-serif; font-size: 12px; font-weight: 200;" fill="rgb(50, 49, 63)" stroke="none" stroke-width="1px">-1</text><text x="0" y="126" dx="0em" dy="0.3em" style="text-anchor: end; visibility: inherit; font-family: &quot;Helvetica Neue&quot;, sans-serif; font-size: 12px; font-weight: 200;" fill="rgb(50, 49, 63)" stroke="none" stroke-width="1px">-0.5</text><text x="0" y="84" dx="0em" dy="0.3em" style="text-anchor: end; visibility: inherit; font-family: &quot;Helvetica Neue&quot;, sans-serif; font-size: 12px; font-weight: 200;" fill="rgb(50, 49, 63)" stroke="none" stroke-width="1px">0</text><text x="0" y="42" dx="0em" dy="0.3em" style="text-anchor: end; visibility: inherit; font-family: &quot;Helvetica Neue&quot;, sans-serif; font-size: 12px; font-weight: 200;" fill="rgb(50, 49, 63)" stroke="none" stroke-width="1px">0.5</text><text x="0" y="0" dx="0em" dy="0.3em" style="text-anchor: end; visibility: hidden; font-family: &quot;Helvetica Neue&quot;, sans-serif; font-size: 12px; font-weight: 200;" fill="rgb(50, 49, 63)" stroke="none" stroke-width="1px">1</text></g><line x1="50" y1="0" x2="50" y2="378" fill="rgb(0, 0, 0)" stroke="rgb(204, 204, 204)" stroke-width="1px"></line></g></g><g transform="translate(50, 0)" clip-path="url(#clip_0)"><clipPath id="clip_0"><rect width="1446" height="378"></rect></clipPath><g><g><g><line x1="0" y1="0" x2="0" y2="378" fill="rgb(0, 0, 0)" stroke="rgb(60, 60, 60)" stroke-width="1px" opacity="0.25"></line><line x1="120.5" y1="0" x2="120.5" y2="378" fill="rgb(0, 0, 0)" stroke="rgb(60, 60, 60)" stroke-width="1px" opacity="0.25"></line><line x1="241" y1="0" x2="241" y2="378" fill="rgb(0, 0, 0)" stroke="rgb(60, 60, 60)" stroke-width="1px" opacity="0.25"></line><line x1="361.5" y1="0" x2="361.5" y2="378" fill="rgb(0, 0, 0)" stroke="rgb(60, 60, 60)" stroke-width="1px" opacity="0.25"></line><line x1="482" y1="0" x2="482" y2="378" fill="rgb(0, 0, 0)" stroke="rgb(60, 60, 60)" stroke-width="1px" opacity="0.25"></line><line x1="602.5" y1="0" x2="602.5" y2="378" fill="rgb(0, 0, 0)" stroke="rgb(60, 60, 60)" stroke-width="1px" opacity="0.25"></line><line x1="723" y1="0" x2="723" y2="378" fill="rgb(0, 0, 0)" stroke="rgb(60, 60, 60)" stroke-width="1px" opacity="0.25"></line><line x1="843.5" y1="0" x2="843.5" y2="378" fill="rgb(0, 0, 0)" stroke="rgb(60, 60, 60)" stroke-width="1px" opacity="0.25"></line><line x1="964" y1="0" x2="964" y2="378" fill="rgb(0, 0, 0)" stroke="rgb(60, 60, 60)" stroke-width="1px" opacity="0.25"></line><line x1="1084.5" y1="0" x2="1084.5" y2="378" fill="rgb(0, 0, 0)" stroke="rgb(60, 60, 60)" stroke-width="1px" opacity="0.25"></line><line x1="1205" y1="0" x2="1205" y2="378" fill="rgb(0, 0, 0)" stroke="rgb(60, 60, 60)" stroke-width="1px" opacity="0.25"></line><line x1="1325.5" y1="0" x2="1325.5" y2="378" fill="rgb(0, 0, 0)" stroke="rgb(60, 60, 60)" stroke-width="1px" opacity="0.25"></line><line x1="1446" y1="0" x2="1446" y2="378" fill="rgb(0, 0, 0)" stroke="rgb(60, 60, 60)" stroke-width="1px" opacity="0.25"></line></g><g><line x1="0" y1="378" x2="1446" y2="378" fill="rgb(0, 0, 0)" stroke="rgb(60, 60, 60)" stroke-width="1px" opacity="0.25"></line><line x1="0" y1="336" x2="1446" y2="336" fill="rgb(0, 0, 0)" stroke="rgb(60, 60, 60)" stroke-width="1px" opacity="0.25"></line><line x1="0" y1="294" x2="1446" y2="294" fill="rgb(0, 0, 0)" stroke="rgb(60, 60, 60)" stroke-width="1px" opacity="0.25"></line><line x1="0" y1="252" x2="1446" y2="252" fill="rgb(0, 0, 0)" stroke="rgb(60, 60, 60)" stroke-width="1px" opacity="0.25"></line><line x1="0" y1="210" x2="1446" y2="210" fill="rgb(0, 0, 0)" stroke="rgb(60, 60, 60)" stroke-width="1px" opacity="0.25"></line><line x1="0" y1="168" x2="1446" y2="168" fill="rgb(0, 0, 0)" stroke="rgb(60, 60, 60)" stroke-width="1px" opacity="0.25"></line><line x1="0" y1="126" x2="1446" y2="126" fill="rgb(0, 0, 0)" stroke="rgb(60, 60, 60)" stroke-width="1px" opacity="0.25"></line><line x1="0" y1="84" x2="1446" y2="84" fill="rgb(0, 0, 0)" stroke="rgb(60, 60, 60)" stroke-width="1px" opacity="0.25"></line><line x1="0" y1="42" x2="1446" y2="42" fill="rgb(0, 0, 0)" stroke="rgb(60, 60, 60)" stroke-width="1px" opacity="0.25"></line><line x1="0" y1="0" x2="1446" y2="0" fill="rgb(0, 0, 0)" stroke="rgb(60, 60, 60)" stroke-width="1px" opacity="0.25"></line></g></g></g><g><g><line x1="0" y1="84" x2="1446" y2="84" fill="rgb(0, 0, 0)" stroke="rgb(153, 153, 153)" stroke-width="1.5px"></line></g></g><g><g><line x1="120.5" y1="0" x2="120.5" y2="378" fill="rgb(0, 0, 0)" stroke="rgb(153, 153, 153)" stroke-width="1.5px"></line></g></g><g><g><g><g><g><path stroke="rgb(255, 112, 67)" stroke-width="2px" d="M120.5,63.349093437194824L122.91000000000001,79.80286288261414L125.32000000000001,88.26501166820526L127.73,97.50598043203354L130.14,114.13765239715576L132.54999999999998,117.62399053573608L134.96,127.40889072418213L137.37,135.81181168556213L139.78,135.33821940422058L142.19,133.71453738212585L144.6,141.1231298446655L147.01,141.81528854370117L149.42,134.53400373458862L151.82999999999998,138.81496453285214L154.24,145.86277770996094L156.65,139.4676547050476L159.06,139.8723635673523L161.47,134.26568984985354L163.88,140.2198748588562L166.29000000000002,137.70529961585999L168.7,143.22262716293335L171.10999999999999,138.98814940452576L173.51999999999998,144.26374411582947L175.93,143.773033618927L178.34,153.70911383628845L180.75,140.15128684043884L183.16000000000003,149.83909034729004L185.57,149.03757834434512L187.98000000000002,147.13310050964355L190.39,148.3322868347168L192.8,147.421000957489L195.21,138.6203556060791L197.61999999999998,150.04796862602234L200.03,154.85051679611206L202.44000000000003,150.74429297447205L204.85,154.6191430091858L207.26000000000002,155.042387008667L209.67,161.29761028289795L212.08,155.74437904357907L214.49,161.49188375473025L216.9,163.5382840633392L219.31,175.7603945732117L221.71999999999997,175.48630285263062L224.13,169.4308204650879L226.54000000000002,180.76495170593262L228.95,182.48326206207275L231.36,189.99481916427612L233.76999999999998,177.19568109512332L236.18,182.26843070983884L238.59,200.9708547592163L241,195.51749897003174L243.41,202.717022895813L245.82000000000002,201.0559802055359L248.23,198.54389333724976L250.64000000000001,198.02474927902222L253.04999999999998,191.09946727752686L255.46,187.96798038482666L257.87,183.66171026229858L260.28,186.583402633667L262.69,210.33006763458252L265.09999999999997,216.2545623779297L267.51,213.4788579940796L269.92,198.22376918792725L272.33,219.42521238327026L274.74,213.43183422088623L277.15000000000003,184.66229724884033L279.56,210.65544891357422L281.97,217.20280838012695L284.38,215.17104291915894L286.79,208.50493240356445L289.2,211.4446291923523L291.61,203.76709699630737L294.02,215.59749126434326L296.43,210.24939823150635L298.84,224.10764265060425L301.25,210.37654066085815L303.65999999999997,205.45870113372803L306.07,193.98990726470947L308.48,218.6156244277954L310.89,227.17464208602905L313.3,221.64066696166992L315.71,229.62092971801758L318.12,217.2919692993164L320.53000000000003,222.1281180381775L322.94,232.46328449249268L325.35,211.61691284179688L327.76,213.44133710861206L330.17,203.02580165863037L332.58000000000004,232.0339822769165L334.99,217.42802381515503L337.4,214.60105991363525L339.81,225.25616025924683L342.21999999999997,234.8920783996582L344.63,225.66887998580933L347.03999999999996,225.99400091171265L349.45,215.2718997001648L351.86,219.73504257202148L354.27,216.11239957809448L356.68,233.69108963012695L359.09,212.93908596038818L361.5,223.74471044540405L363.90999999999997,235.65953922271729L366.32000000000005,221.62754917144775L368.73,229.29094219207764L371.14,230.2982382774353L373.55,226.23479747772217L375.96000000000004,239.87892150878906L378.37,231.29087448120117L380.78,229.50533294677734L383.19,220.61379432678223L385.6,222.34099674224854L388.01,228.97051763534546L390.42,226.47832775115967L392.83,236.1805658340454L395.23999999999995,237.12778043746948L397.65000000000003,236.25334453582764L400.06,241.33889150619507L402.46999999999997,233.06918621063232L404.88000000000005,235.9460277557373L407.29,220.34116458892822L409.7,221.7934341430664L412.10999999999996,216.08932828903198L414.52000000000004,234.73346328735352L416.93,219.35634899139404L419.34,230.95189476013184L421.75,231.66998863220215L424.16,248.5679054260254L426.57,229.5108404159546L428.98,227.81860542297363L431.39,248.10623931884766L433.8,243.5207805633545L436.21000000000004,222.5570297241211L438.62,244.19624662399292L441.03,237.2221484184265L443.43999999999994,247.59573698043823L445.85,238.09329986572266L448.26,233.75921201705933L450.66999999999996,215.17861318588257L453.08000000000004,230.5382537841797L455.49,237.44236707687378L457.9,257.82297706604004L460.31000000000006,226.83874654769897L462.72,241.16322326660156L465.13,246.57526302337646L467.53999999999996,193.74097967147827L469.95,251.04168033599854L472.36,243.94593715667725L474.77,232.80904340744019L477.18,231.64333248138428L479.59,227.04803037643433L482,243.8708052635193L484.41,236.144446849823L486.82,253.49282455444336L489.22999999999996,241.2961835861206L491.64000000000004,250.49728202819824L494.05,229.7248306274414L496.46,243.74404335021973L498.86999999999995,236.9388542175293L501.28000000000003,213.4977035522461L503.69,217.57213926315308L506.09999999999997,254.06700325012207L508.51000000000005,249.87926387786865L510.92,253.25041580200195L513.3299999999999,253.44329738616943L515.74,256.4080181121826L518.15,252.8430633544922L520.56,239.54794263839722L522.97,242.2154803276062L525.38,254.97964096069336L527.79,233.54857635498047L530.1999999999999,234.44483184814453L532.61,256.8825616836548L535.02,239.6691770553589L537.43,252.64381313323975L539.84,241.63530349731445L542.25,235.59669399261475L544.66,213.26592922210693L547.07,235.61036252975464L549.48,251.88915967941284L551.89,233.37460041046143L554.3000000000001,228.85616254806519L556.71,252.14289379119873L559.12,258.6408462524414L561.53,246.78907299041748L563.94,247.97452068328857L566.35,250.96153163909912L568.76,245.88178253173828L571.1700000000001,228.07919883728027L573.58,231.16444301605225L575.99,191.32398176193237L578.4,254.39971446990967L580.8100000000001,260.57398796081543L583.22,214.85115909576416L585.63,256.0517349243164L588.04,260.5956172943115L590.45,265.91669368743896L592.86,259.6926326751709L595.27,243.62998867034912L597.68,216.41658210754395L600.0899999999999,252.6719913482666L602.5,251.15111875534058L604.91,248.26723766326904L607.3199999999999,248.63020992279053L609.73,261.4117841720581L612.14,227.553786277771L614.55,265.6344909667969L616.96,264.3743419647217L619.37,245.85889148712158L621.78,228.00772190093994L624.1899999999999,236.19635725021362L626.6,230.2751269340515L629.01,243.00555181503296L631.42,229.38736295700073L633.83,244.92063903808594L636.24,252.786847114563L638.65,234.43279552459717L641.0600000000001,238.04774808883667L643.47,242.94041347503662L645.88,266.4888095855713L648.29,259.20276832580566L650.7,249.23179578781128L653.11,256.16963481903076L655.52,264.6057758331299L657.9300000000001,246.14493942260742L660.34,260.87105083465576L662.75,261.9494934082031L665.1600000000001,255.94174575805664L667.57,252.27192878723145L669.98,263.67719650268555L672.39,258.7680187225342L674.8,218.66718435287476L677.21,245.2084994316101L679.62,235.2425036430359L682.03,250.48322296142578L684.4399999999999,259.1927547454834L686.85,257.4206314086914L689.26,260.9725685119629L691.67,232.84810638427734L694.0799999999999,253.58492946624756L696.49,262.1404724121094L698.9,258.59284114837646L701.31,277.21729946136475L703.72,233.26128673553467L706.13,237.822172164917L708.54,268.26609992980957L710.9499999999999,194.8292055130005L713.36,226.59839057922363L715.77,263.9928846359253L718.18,241.06815433502197L720.59,248.41303539276123L723,243.04988193511963L725.4100000000001,254.72149085998535L727.8199999999999,258.00133895874023L730.23,249.32234859466553L732.6400000000001,268.5099906921387L735.05,268.4148416519165L737.46,254.5865077972412L739.8700000000001,233.24676704406738L742.28,264.28055477142334L744.69,243.8247528076172L747.1,255.21740341186523L749.51,196.88050746917725L751.9200000000001,266.00267028808594L754.3299999999999,224.62375259399414L756.74,265.75245094299316L759.15,247.98185062408447L761.56,265.1317491531372L763.97,261.3662624359131L766.38,249.69609546661377L768.79,273.4962329864502L771.2,273.6086254119873L773.61,243.76473140716553L776.02,250.99940299987793L778.43,235.66232299804688L780.84,226.51290464401245L783.25,238.3824119567871L785.66,256.0040702819824L788.07,254.5423879623413L790.4799999999999,236.98314428329468L792.89,246.393816947937L795.3000000000001,270.2988567352295L797.7099999999999,274.96616649627686L800.12,259.73214626312256L802.5300000000001,264.9071044921875L804.9399999999999,258.49156379699707L807.35,254.21898937225342L809.7600000000001,273.5918827056885L812.17,261.2801456451416L814.58,259.8544120788574L816.9899999999999,254.19517707824707L819.4,265.1776313781738L821.8100000000001,258.23551654815674L824.2199999999999,236.8325800895691L826.63,267.3776550292969L829.0400000000001,256.16516876220703L831.4499999999999,241.33776998519897L833.86,268.1521053314209L836.2700000000001,264.0197010040283L838.68,265.23250579833984L841.09,269.0380868911743L843.5,269.5576915740967L845.91,288.18857860565186L848.32,203.94089269638062L850.73,253.4524097442627L853.14,259.1132469177246L855.55,260.5405025482178L857.96,272.02427673339844L860.37,267.5213899612427L862.78,201.93986892700195L865.19,277.5871410369873L867.6,277.11616230010986L870.01,279.01916313171387L872.4200000000001,245.1711187362671L874.8299999999999,277.2001762390137L877.24,249.8063449859619L879.65,263.56624603271484L882.06,272.9992790222168L884.47,267.56302642822266L886.8799999999999,258.6208190917969L889.29,265.5296287536621L891.7,276.6380138397217L894.1099999999999,279.8503704071045L896.52,268.04980659484863L898.9300000000001,249.01317930221558L901.3399999999999,260.01853466033936L903.75,261.12541580200195L906.1600000000001,261.11668395996094L908.5699999999999,278.0370512008667L910.98,276.29643058776855L913.3900000000001,253.75968647003174L915.8,260.3923616409302L918.21,270.9225425720215L920.6200000000001,276.4486770629883L923.03,263.2201566696167L925.44,268.1370849609375L927.85,269.76433181762695L930.26,230.0392770767212L932.6700000000001,228.66654539108276L935.0799999999999,277.41783142089844L937.49,268.6380443572998L939.9,268.38914680480957L942.31,255.426607131958L944.72,222.3288803100586L947.13,264.0458564758301L949.54,260.4470157623291L951.95,225.7682147026062L954.36,264.3322048187256L956.77,248.2982897758484L959.18,278.86188983917236L961.59,265.3329019546509L964,263.20667839050293L966.41,246.28788328170776L968.82,276.6736822128296L971.2299999999999,233.87373733520508L973.64,240.03268003463745L976.0500000000001,271.1909465789795L978.4599999999999,199.382080078125L980.87,272.4623107910156L983.2800000000001,222.4308385848999L985.6899999999999,277.15874004364014L988.1,229.383798122406L990.5100000000001,269.9153165817261L992.92,266.2210865020752L995.33,246.95086240768433L997.7399999999999,272.1562957763672L1000.15,270.5954990386963L1002.5600000000001,286.01901626586914L1004.9699999999999,279.1859292984009L1007.38,267.71975898742676L1009.7900000000001,265.2606840133667L1012.1999999999999,245.07212448120117L1014.61,236.9929075241089L1017.0200000000001,264.5860290527344L1019.43,276.34715938568115L1021.84,260.9425277709961L1024.25,279.84442234039307L1026.6599999999999,262.3107433319092L1029.07,208.20375394821167L1031.48,273.0551948547363L1033.8899999999999,271.49656105041504L1036.3,255.5607089996338L1038.71,275.38719749450684L1041.12,246.41867065429688L1043.53,235.42886638641357L1045.94,268.0730981826782L1048.35,279.5818862915039L1050.76,272.6613607406616L1053.17,247.4251356124878L1055.58,219.8029146194458L1057.99,281.77043437957764L1060.3999999999999,284.69041442871094L1062.81,262.4311466217041L1065.22,278.19304275512695L1067.6299999999999,275.7622661590576L1070.04,258.9688310623169L1072.45,275.1902904510498L1074.86,235.73660373687744L1077.27,277.8249034881592L1079.68,226.0041046142578L1082.09,288.1700735092163L1084.5,258.9686107635498L1086.91,272.78342628479004L1089.32,282.4298286437988L1091.73,245.84337043762207L1094.14,259.8947067260742L1096.55,255.04583072662354L1098.96,258.8800506591797L1101.3700000000001,274.8448820114136L1103.78,283.559720993042L1106.19,263.01159381866455L1108.6000000000001,290.9392890930176L1111.01,276.4427490234375L1113.42,279.1573905944824L1115.83,250.91968488693237L1118.24,278.02775859832764L1120.65,273.131778717041L1123.06,278.47794914245605L1125.47,281.5957775115967L1127.88,278.32341957092285L1130.29,273.1433744430542L1132.7,263.4311227798462L1135.1100000000001,288.0113983154297L1137.52,255.40748119354248L1139.93,253.5519847869873L1142.3400000000001,234.71158361434937L1144.75,289.59510612487793L1147.16,262.43098640441895L1149.5700000000002,281.93535804748535L1151.98,249.80480289459229L1154.39,266.7737159729004L1156.8,250.1867208480835L1159.21,290.51166915893555L1161.6200000000001,236.6425223350525L1164.03,244.8321089744568L1166.44,259.43428230285645L1168.85,223.3589472770691L1171.26,266.3502416610718L1173.67,242.39553451538086L1176.08,287.85402488708496L1178.49,267.2114095687866L1180.9,262.98079204559326L1183.31,235.36568069458008L1185.72,288.51994800567627L1188.1299999999999,252.019606590271L1190.54,279.60631942749023L1192.95,285.1796178817749L1195.36,253.2831802368164L1197.77,270.7025842666626L1200.1799999999998,273.3498344421387L1202.59,256.93260955810547L1205,254.60601425170898L1207.4099999999999,269.1999263763428L1209.82,271.46431732177734L1212.23,276.54324531555176L1214.6399999999999,260.3467597961426L1217.05,278.81330394744873L1219.46,283.4008255004883L1221.87,215.18738508224487L1224.28,260.95208072662354L1226.69,272.78464794158936L1229.1,267.9818344116211L1231.51,268.7429265975952L1233.92,264.55138206481934L1236.33,285.98084449768066L1238.74,248.73465156555176L1241.1499999999999,272.11602115631104L1243.56,246.7802610397339L1245.97,274.29283332824707L1248.3799999999999,236.39299392700195L1250.79,276.98250102996826L1253.2,270.80055713653564L1255.61,256.98063468933105L1258.02,272.52087020874023L1260.43,275.97599601745605L1262.84,283.5375509262085L1265.25,292.9112033843994L1267.66,284.9901008605957L1270.07,283.67932319641113L1272.48,252.08371353149414L1274.89,252.29972648620605L1277.3,281.42927169799805L1279.71,284.9164209365845L1282.1200000000001,281.05294132232666L1284.53,266.0206546783447L1286.94,264.1708860397339L1289.3500000000001,253.99612712860107L1291.76,241.91459226608276L1294.17,246.41709852218628L1296.58,293.93567276000977L1298.99,293.45558166503906L1301.4,274.157169342041L1303.81,269.44209480285645L1306.22,286.3901996612549L1308.63,242.03336334228516L1311.04,284.4840145111084L1313.45,257.1145763397217L1315.8600000000001,281.6196098327637L1318.27,274.5215034484863L1320.68,269.4385299682617L1323.0900000000001,270.6946134567261" style="fill: none;" fill="none"></path></g></g></g></g></g></g><g transform="translate(50, 378)" clip-path="url(#clip_1)"><clipPath id="clip_1"><rect width="1446" height="22"></rect></clipPath><g><g><line x1="0" y1="0" x2="0" y2="5" style="visibility: inherit;" fill="rgb(0, 0, 0)" stroke="rgb(204, 204, 204)" stroke-width="1px"></line><line x1="120.5" y1="0" x2="120.5" y2="5" style="visibility: inherit;" fill="rgb(0, 0, 0)" stroke="rgb(204, 204, 204)" stroke-width="1px"></line><line x1="241" y1="0" x2="241" y2="5" style="visibility: inherit;" fill="rgb(0, 0, 0)" stroke="rgb(204, 204, 204)" stroke-width="1px"></line><line x1="361.5" y1="0" x2="361.5" y2="5" style="visibility: inherit;" fill="rgb(0, 0, 0)" stroke="rgb(204, 204, 204)" stroke-width="1px"></line><line x1="482" y1="0" x2="482" y2="5" style="visibility: inherit;" fill="rgb(0, 0, 0)" stroke="rgb(204, 204, 204)" stroke-width="1px"></line><line x1="602.5" y1="0" x2="602.5" y2="5" style="visibility: inherit;" fill="rgb(0, 0, 0)" stroke="rgb(204, 204, 204)" stroke-width="1px"></line><line x1="723" y1="0" x2="723" y2="5" style="visibility: inherit;" fill="rgb(0, 0, 0)" stroke="rgb(204, 204, 204)" stroke-width="1px"></line><line x1="843.5" y1="0" x2="843.5" y2="5" style="visibility: inherit;" fill="rgb(0, 0, 0)" stroke="rgb(204, 204, 204)" stroke-width="1px"></line><line x1="964" y1="0" x2="964" y2="5" style="visibility: inherit;" fill="rgb(0, 0, 0)" stroke="rgb(204, 204, 204)" stroke-width="1px"></line><line x1="1084.5" y1="0" x2="1084.5" y2="5" style="visibility: inherit;" fill="rgb(0, 0, 0)" stroke="rgb(204, 204, 204)" stroke-width="1px"></line><line x1="1205" y1="0" x2="1205" y2="5" style="visibility: inherit;" fill="rgb(0, 0, 0)" stroke="rgb(204, 204, 204)" stroke-width="1px"></line><line x1="1325.5" y1="0" x2="1325.5" y2="5" style="visibility: inherit;" fill="rgb(0, 0, 0)" stroke="rgb(204, 204, 204)" stroke-width="1px"></line><line x1="1446" y1="0" x2="1446" y2="5" style="visibility: inherit;" fill="rgb(0, 0, 0)" stroke="rgb(204, 204, 204)" stroke-width="1px"></line></g><g transform="translate(0, 8)"><text x="0" y="0" dx="0em" dy="0.95em" style="text-anchor: middle; visibility: hidden; font-family: &quot;Helvetica Neue&quot;, sans-serif; font-size: 12px; font-weight: 200;" fill="rgb(50, 49, 63)" stroke="none" stroke-width="1px">-50</text><text x="120.5" y="0" dx="0em" dy="0.95em" style="text-anchor: middle; visibility: inherit; font-family: &quot;Helvetica Neue&quot;, sans-serif; font-size: 12px; font-weight: 200;" fill="rgb(50, 49, 63)" stroke="none" stroke-width="1px">0</text><text x="241" y="0" dx="0em" dy="0.95em" style="text-anchor: middle; visibility: inherit; font-family: &quot;Helvetica Neue&quot;, sans-serif; font-size: 12px; font-weight: 200;" fill="rgb(50, 49, 63)" stroke="none" stroke-width="1px">50</text><text x="361.5" y="0" dx="0em" dy="0.95em" style="text-anchor: middle; visibility: inherit; font-family: &quot;Helvetica Neue&quot;, sans-serif; font-size: 12px; font-weight: 200;" fill="rgb(50, 49, 63)" stroke="none" stroke-width="1px">100</text><text x="482" y="0" dx="0em" dy="0.95em" style="text-anchor: middle; visibility: inherit; font-family: &quot;Helvetica Neue&quot;, sans-serif; font-size: 12px; font-weight: 200;" fill="rgb(50, 49, 63)" stroke="none" stroke-width="1px">150</text><text x="602.5" y="0" dx="0em" dy="0.95em" style="text-anchor: middle; visibility: inherit; font-family: &quot;Helvetica Neue&quot;, sans-serif; font-size: 12px; font-weight: 200;" fill="rgb(50, 49, 63)" stroke="none" stroke-width="1px">200</text><text x="723" y="0" dx="0em" dy="0.95em" style="text-anchor: middle; visibility: inherit; font-family: &quot;Helvetica Neue&quot;, sans-serif; font-size: 12px; font-weight: 200;" fill="rgb(50, 49, 63)" stroke="none" stroke-width="1px">250</text><text x="843.5" y="0" dx="0em" dy="0.95em" style="text-anchor: middle; visibility: inherit; font-family: &quot;Helvetica Neue&quot;, sans-serif; font-size: 12px; font-weight: 200;" fill="rgb(50, 49, 63)" stroke="none" stroke-width="1px">300</text><text x="964" y="0" dx="0em" dy="0.95em" style="text-anchor: middle; visibility: inherit; font-family: &quot;Helvetica Neue&quot;, sans-serif; font-size: 12px; font-weight: 200;" fill="rgb(50, 49, 63)" stroke="none" stroke-width="1px">350</text><text x="1084.5" y="0" dx="0em" dy="0.95em" style="text-anchor: middle; visibility: inherit; font-family: &quot;Helvetica Neue&quot;, sans-serif; font-size: 12px; font-weight: 200;" fill="rgb(50, 49, 63)" stroke="none" stroke-width="1px">400</text><text x="1205" y="0" dx="0em" dy="0.95em" style="text-anchor: middle; visibility: inherit; font-family: &quot;Helvetica Neue&quot;, sans-serif; font-size: 12px; font-weight: 200;" fill="rgb(50, 49, 63)" stroke="none" stroke-width="1px">450</text><text x="1325.5" y="0" dx="0em" dy="0.95em" style="text-anchor: middle; visibility: inherit; font-family: &quot;Helvetica Neue&quot;, sans-serif; font-size: 12px; font-weight: 200;" fill="rgb(50, 49, 63)" stroke="none" stroke-width="1px">500</text><text x="1446" y="0" dx="0em" dy="0.95em" style="text-anchor: middle; visibility: hidden; font-family: &quot;Helvetica Neue&quot;, sans-serif; font-size: 12px; font-weight: 200;" fill="rgb(50, 49, 63)" stroke="none" stroke-width="1px">550</text></g><line x1="0" y1="0" x2="1446" y2="0" fill="rgb(0, 0, 0)" stroke="rgb(204, 204, 204)" stroke-width="1px"></line></g></g></g></g></svg>