<?xml version="1.0" encoding="utf-8" standalone="no"?>
<!DOCTYPE svg PUBLIC "-//W3C//DTD SVG 1.1//EN"
  "http://www.w3.org/Graphics/SVG/1.1/DTD/svg11.dtd">
<!-- Created with matplotlib (https://matplotlib.org/) -->
<svg height="288pt" version="1.1" viewBox="0 0 720 288" width="720pt" xmlns="http://www.w3.org/2000/svg" xmlns:xlink="http://www.w3.org/1999/xlink">
 <metadata>
  <rdf:RDF xmlns:cc="http://creativecommons.org/ns#" xmlns:dc="http://purl.org/dc/elements/1.1/" xmlns:rdf="http://www.w3.org/1999/02/22-rdf-syntax-ns#">
   <cc:Work>
    <dc:type rdf:resource="http://purl.org/dc/dcmitype/StillImage"/>
    <dc:date>2020-11-14T04:22:54.390116</dc:date>
    <dc:format>image/svg+xml</dc:format>
    <dc:creator>
     <cc:Agent>
      <dc:title>Matplotlib v3.3.2, https://matplotlib.org/</dc:title>
     </cc:Agent>
    </dc:creator>
   </cc:Work>
  </rdf:RDF>
 </metadata>
 <defs>
  <style type="text/css">*{stroke-linecap:butt;stroke-linejoin:round;}</style>
 </defs>
 <g id="figure_1">
  <g id="patch_1">
   <path d="M 0 288 
L 720 288 
L 720 0 
L 0 0 
z
" style="fill:#ffffff;"/>
  </g>
  <g id="axes_1">
   <g id="line2d_1">
    <path clip-path="url(#p585f54a930)" d="M 76.828004 236.373856 
L 75.214147 235.001862 
L 74.772494 232.557972 
L 75.365886 231.762913 
L 76.416947 230.898985 
L 78.288004 229.80874 
L 80.464875 228.795747 
L 86.159597 226.527224 
L 89.052586 225.288502 
L 89.068495 225.2245 
L 88.687283 225.232407 
L 86.682253 225.629827 
L 86.076387 225.91578 
L 86.087756 226.054211 
L 86.434417 226.332664 
L 88.639747 227.427976 
L 91.495257 228.940441 
L 93.375507 230.125418 
L 94.581207 231.13429 
L 94.829665 231.624587 
L 94.636192 231.915283 
L 93.742081 232.156341 
L 92.060146 232.28421 
L 86.172957 232.439227 
L 84.055123 232.322345 
L 83.146725 232.101568 
L 82.539878 231.687086 
L 82.342497 231.228499 
L 82.361998 230.655575 
L 82.75127 229.543206 
L 83.841186 227.59114 
L 87.182842 222.44864 
L 91.818019 215.4725 
L 92.844421 214.360973 
L 93.443177 214.050234 
L 93.764269 214.096913 
L 94.080426 214.457143 
L 94.211049 214.828686 
L 94.320904 215.761617 
L 94.188268 217.397035 
L 93.821586 218.947631 
L 93.280699 220.414337 
L 92.628673 221.717916 
L 91.481075 223.424797 
L 90.295144 224.746664 
L 89.583809 225.398782 
L 88.056704 226.54686 
L 86.360165 227.527502 
L 84.241681 228.446145 
L 81.625489 229.251142 
L 78.85811 229.826513 
L 76.10535 230.203095 
L 70.700717 230.589561 
L 62.139622 230.803879 
L 55.70883 231.031266 
L 52.041777 231.32341 
L 48.683264 231.808614 
L 45.907386 232.554299 
L 44.680356 233.233578 
L 44.509091 233.726542 
L 45.217629 233.985592 
L 45.960395 233.935821 
L 46.739686 233.757056 
L 48.105169 233.219562 
L 50.875259 231.314897 
L 53.079186 228.801886 
L 55.230062 224.696017 
L 55.230062 224.696017 
" style="fill:none;stroke:#000000;stroke-linecap:square;stroke-opacity:0.7;stroke-width:1.2;"/>
   </g>
   <g id="line2d_2">
    <path clip-path="url(#p585f54a930)" d="M 84.650667 177.215812 
L 75.344761 184.019601 
L 72.704689 186.10347 
L 69.155684 189.198056 
L 67.702984 190.662777 
L 66.437371 192.148094 
L 65.642279 193.29215 
L 64.900072 194.855761 
L 64.798006 195.54077 
L 64.875167 195.690799 
L 65.029773 195.610268 
L 65.42976 194.796939 
L 65.954903 192.909982 
L 68.090268 183.936599 
L 68.799353 182.001574 
L 69.186492 181.145085 
L 69.874799 179.908105 
L 70.930922 178.581172 
L 71.967415 177.801941 
L 72.463703 177.578582 
L 73.65897 177.37505 
L 74.696237 177.532894 
L 75.841967 178.028681 
L 77.053626 178.910556 
L 78.179728 180.10661 
L 79.019032 181.34871 
L 79.642473 182.696448 
L 79.912456 183.657732 
L 80.02453 185.017321 
L 79.850046 186.123083 
L 79.620476 186.783809 
L 78.758654 188.370122 
L 78.249707 189.396488 
L 78.119926 190.123325 
L 78.200932 190.748291 
L 78.559889 191.600204 
L 79.242287 192.59358 
L 80.485507 193.972536 
L 82.707947 196.030966 
L 84.983006 197.881681 
L 85.781468 198.378236 
L 85.759173 198.313956 
L 85.10685 197.631364 
L 82.628787 195.463165 
L 79.855755 193.009228 
L 79.724271 192.64149 
L 79.781711 192.586081 
L 80.320454 192.527898 
L 81.439947 192.666885 
L 91.172634 194.228831 
L 94.643429 194.540914 
L 98.007494 194.596405 
L 99.447394 194.488454 
L 100.458181 194.323765 
L 101.874892 193.806581 
L 102.453047 193.184903 
L 102.524947 192.708569 
L 102.45175 192.376887 
L 101.950256 191.552232 
L 100.63555 190.369164 
L 99.921073 189.87929 
L 97.175589 188.394285 
L 94.745083 187.385916 
L 92.74993 186.705398 
L 88.759603 185.667613 
L 85.103365 185.048377 
L 81.059918 184.685123 
L 75.158825 184.552594 
L 71.682252 184.463097 
L 67.175093 184.067005 
L 55.311702 182.43401 
L 51.786319 182.180125 
L 51.786319 182.180125 
" style="fill:none;stroke:#000000;stroke-linecap:square;stroke-opacity:0.7;stroke-width:1.2;"/>
   </g>
   <g id="line2d_3">
    <path clip-path="url(#p585f54a930)" d="M 79.139323 113.673908 
L 87.007199 122.196849 
L 94.433139 129.798128 
L 105.766944 141.153687 
L 109.132511 144.886408 
L 111.624359 148.393763 
L 111.863719 149.311638 
L 111.743163 149.492259 
L 111.345583 149.532674 
L 110.615433 149.288314 
L 109.087461 148.461453 
L 104.097922 145.139272 
L 97.089664 140.164092 
L 94.948573 138.338742 
L 92.99045 136.285931 
L 89.268935 132.269802 
L 87.115367 130.26297 
L 84.507136 128.121368 
L 81.458722 125.966467 
L 79.504524 124.804291 
L 77.79213 124.073837 
L 77.430844 124.072195 
L 77.350153 124.282711 
L 77.648024 124.811355 
L 78.44162 125.69516 
L 80.688783 127.731684 
L 84.294328 130.633715 
L 89.673908 134.674766 
L 98.402803 141.176023 
L 100.96178 143.285931 
L 102.870901 145.066096 
L 104.694013 147.127037 
L 105.808005 148.774918 
L 106.587346 150.359292 
L 107.087961 151.881649 
L 107.377008 153.374581 
L 107.65563 155.167435 
L 107.97344 154.721697 
L 110.675243 149.613069 
L 112.195782 147.262385 
L 113.881125 145.080714 
L 115.14197 143.77024 
L 116.223641 142.991076 
L 116.601105 142.952172 
L 116.663741 143.109488 
L 116.362292 143.810494 
L 115.826677 144.510733 
L 114.372281 145.931904 
L 112.070139 147.614783 
L 110.674077 148.418687 
L 108.419093 149.415138 
L 107.204826 149.791495 
L 105.793608 150.071701 
L 104.497946 150.161281 
L 103.324697 150.087172 
L 101.803288 149.753118 
L 100.537174 149.270406 
L 99.185426 148.57577 
L 97.238567 147.353758 
L 92.279157 144.024801 
L 90.012595 142.661853 
L 87.113242 141.121564 
L 84.58419 139.952239 
L 80.521362 138.367021 
L 70.831062 135.704474 
L 65.674082 134.769215 
L 65.674082 134.769215 
" style="fill:none;stroke:#000000;stroke-linecap:square;stroke-opacity:0.7;stroke-width:1.2;"/>
   </g>
   <g id="line2d_4">
    <path clip-path="url(#p585f54a930)" d="M 81.301456 119.786999 
L 67.961707 120.381235 
L 63.156798 120.344293 
L 60.666792 120.107863 
L 59.369949 119.730837 
L 59.027312 118.770069 
L 59.724289 118.037907 
L 61.943043 116.647388 
L 66.0943 114.710815 
L 67.633104 114.09799 
L 71.516196 112.792133 
L 73.889081 112.214737 
L 76.209819 111.894497 
L 79.038518 111.640239 
L 80.291181 110.98197 
L 84.472565 108.308856 
L 86.871497 107.018777 
L 91.428215 104.898844 
L 96.279135 102.682845 
L 98.01351 101.610627 
L 98.677619 100.973153 
L 98.984842 100.429475 
L 99.031146 99.897428 
L 98.819653 99.396261 
L 98.504789 99.047988 
L 97.538054 98.451109 
L 96.164577 98.00379 
L 94.708428 97.783539 
L 93.421928 97.752107 
L 92.529378 97.815602 
L 90.523553 98.238997 
L 89.669564 98.564813 
L 88.211059 99.431021 
L 87.289051 100.34818 
L 86.760181 101.211977 
L 86.457921 102.145688 
L 86.399486 103.266081 
L 86.639292 104.370701 
L 87.154023 105.425763 
L 87.860696 106.326784 
L 88.726933 107.074208 
L 89.774128 107.645207 
L 90.622567 107.856414 
L 91.218478 107.82009 
L 91.747879 107.536526 
L 92.016501 107.144916 
L 92.147039 106.572628 
L 92.052769 106.143923 
L 91.79489 106.020357 
L 91.014636 106.095854 
L 89.523288 106.248679 
L 87.923286 106.200063 
L 86.213507 105.908508 
L 84.195006 105.264277 
L 82.544161 104.514144 
L 80.297284 103.235173 
L 75.761038 100.494971 
L 74.301167 99.942028 
L 74.134912 99.914815 
L 73.564043 100.010641 
L 73.433931 100.312999 
L 73.517899 100.728191 
L 73.791 101.289594 
L 74.301685 102.058508 
L 75.269309 103.280153 
L 80.942238 109.896648 
L 82.476494 112.117177 
L 83.646036 114.398934 
L 84.18642 119.219548 
L 81.741452 123.364592 
L 81.741452 123.364592 
" style="fill:none;stroke:#000000;stroke-linecap:square;stroke-opacity:0.7;stroke-width:1.2;"/>
   </g>
   <g id="line2d_5">
    <path clip-path="url(#p585f54a930)" d="M 106.668188 92.537096 
L 99.602201 85.932204 
L 94.118819 79.644795 
L 91.062778 75.379094 
L 87.790985 69.74206 
L 83.995076 61.589845 
L 83.537179 60.860703 
L 82.534162 59.853178 
L 82.145627 59.653023 
L 80.995159 59.511339 
L 80.0345 59.814209 
L 79.310451 60.342785 
L 78.679001 61.281051 
L 78.573264 61.566698 
L 78.407224 63.121114 
L 78.672247 64.560157 
L 78.947373 65.338085 
L 79.660975 66.695872 
L 80.540095 67.803994 
L 81.648807 68.727751 
L 82.519403 69.205396 
L 83.124037 69.43965 
L 84.807668 69.767779 
L 85.67153 69.788991 
L 86.812742 69.697101 
L 89.169741 69.169604 
L 91.328771 68.388434 
L 92.735498 67.764806 
L 95.448967 66.37041 
L 100.063006 63.613823 
L 110.128667 57.315723 
L 111.988831 56.399344 
L 113.666361 55.795932 
L 115.013355 55.582533 
L 115.825791 55.65308 
L 116.580335 55.941868 
L 117.20077 56.441772 
L 117.795332 57.310004 
L 118.303881 58.625397 
L 118.57874 59.742855 
L 119.050592 62.801979 
L 119.544354 67.694392 
L 119.437688 68.406538 
L 119.298079 68.613309 
L 118.841262 68.795345 
L 118.365514 68.794921 
L 115.496905 68.579919 
L 114.636549 68.829464 
L 114.25002 69.191637 
L 114.048439 69.81267 
L 114.050329 70.25541 
L 114.322242 71.441668 
L 114.880602 72.837872 
L 117.055393 77.667238 
L 117.235434 78.646224 
L 117.222087 78.984909 
L 116.736622 79.906472 
L 116.563618 80.037579 
L 115.300258 80.508122 
L 114.267257 80.657502 
L 112.191904 80.744988 
L 106.833999 80.484898 
L 103.407373 80.097639 
L 100.521361 79.616012 
L 98.198472 79.087329 
L 95.49196 78.246714 
L 93.770541 77.535153 
L 91.329191 76.167929 
L 90.386713 75.477686 
L 89.086805 74.303623 
L 87.618064 72.525431 
L 86.04501 69.968825 
L 84.869074 68.273117 
L 83.546311 67.321667 
L 81.619304 66.98478 
L 79.031871 67.29857 
L 75.745154 68.180321 
L 66.803362 71.456255 
L 66.803362 71.456255 
" style="fill:none;stroke:#000000;stroke-linecap:square;stroke-opacity:0.7;stroke-width:1.2;"/>
   </g>
   <g id="line2d_6">
    <path clip-path="url(#p585f54a930)" d="M 213.121281 222.447561 
L 209.575212 226.197941 
L 208.22478 227.327821 
L 207.215497 227.937629 
L 205.900116 228.389283 
L 204.176286 228.522765 
L 202.205384 228.323151 
L 199.722284 227.812199 
L 197.308581 227.10396 
L 196.186247 226.664523 
L 194.837785 225.886717 
L 194.416052 225.421089 
L 194.299962 225.099431 
L 194.475892 224.553268 
L 194.905556 224.206781 
L 195.629762 223.903639 
L 196.822135 223.664673 
L 198.121282 223.595393 
L 200.167217 223.752566 
L 202.211451 224.169163 
L 204.659554 224.970931 
L 206.857033 225.958613 
L 209.016486 227.172349 
L 211.471707 228.851358 
L 213.24331 230.302336 
L 214.297791 231.41059 
L 214.509485 231.833824 
L 214.476277 232.059297 
L 214.158568 232.251731 
L 213.323249 232.337852 
L 211.43271 232.24574 
L 210.38754 232.035535 
L 210.457257 231.957193 
L 211.084683 231.779318 
L 217.536896 230.344425 
L 219.0726 229.746992 
L 220.082801 229.13107 
L 220.554664 228.58888 
L 220.644372 228.18563 
L 220.43887 227.792172 
L 220.079582 227.575854 
L 219.438548 227.438681 
L 218.325047 227.505554 
L 217.036181 227.851191 
L 215.198204 228.653619 
L 212.52709 230.163981 
L 209.096642 232.081748 
L 207.758919 232.630238 
L 206.611359 232.909575 
L 205.800416 232.930899 
L 205.184076 232.768917 
L 204.716201 232.384937 
L 204.59077 232.044836 
L 204.696056 231.824962 
L 204.850523 231.990533 
L 204.982397 232.582826 
L 204.946819 233.878597 
L 204.899557 233.966694 
L 204.858502 233.889545 
L 204.633676 232.563297 
L 204.112302 229.459113 
L 203.743731 227.619827 
L 202.874743 223.912908 
L 201.943163 220.503427 
L 200.39202 215.545581 
L 198.464467 210.129409 
L 198.464467 210.129409 
" style="fill:none;stroke:#000000;stroke-linecap:square;stroke-opacity:0.7;stroke-width:1.2;"/>
   </g>
   <g id="line2d_7">
    <path clip-path="url(#p585f54a930)" d="M 211.684234 180.982335 
L 210.057082 194.307158 
L 210.111587 198.203101 
L 210.874924 201.608104 
L 211.248939 201.95521 
L 211.729525 201.850081 
L 212.261411 201.125137 
L 212.705734 200.040357 
L 213.079102 198.786711 
L 214.816639 191.499822 
L 215.759464 189.008419 
L 216.85666 187.275542 
L 217.41084 186.697907 
L 218.596675 185.896502 
L 219.251124 185.641821 
L 220.108223 185.459984 
L 221.698118 185.476639 
L 222.514966 185.629932 
L 224.401044 186.294957 
L 225.979816 187.15857 
L 227.350514 188.141085 
L 228.81115 189.463154 
L 231.755755 192.37916 
L 232.400561 192.499388 
L 232.787651 192.356547 
L 232.802855 192.136225 
L 232.656696 192.006377 
L 231.922381 191.76485 
L 230.566758 191.650402 
L 228.526421 191.751383 
L 223.574007 192.15606 
L 223.254359 191.905626 
L 223.063076 191.402763 
L 223.030666 190.44464 
L 223.126979 187.410423 
L 222.939964 186.507498 
L 222.649279 186.11617 
L 222.229797 186.050965 
L 221.809217 186.242531 
L 221.084504 186.88418 
L 220.157981 188.024645 
L 218.236668 190.913961 
L 215.470833 195.14276 
L 214.432637 196.329207 
L 213.959234 196.664466 
L 213.496215 196.762197 
L 213.382462 196.735378 
L 213.109073 196.55654 
L 212.649397 195.765583 
L 211.377201 192.508199 
L 210.863121 191.881688 
L 210.272355 191.494602 
L 209.403497 191.320258 
L 208.630934 191.416683 
L 207.339597 191.916654 
L 205.777786 192.906839 
L 204.080498 194.337904 
L 202.328967 196.17961 
L 200.817931 198.24406 
L 200.459013 199.068001 
L 200.529402 199.13283 
L 200.763072 198.714732 
L 200.796746 198.077874 
L 200.607939 197.611469 
L 200.232227 197.218077 
L 199.843455 196.985204 
L 198.676382 196.6524 
L 196.304708 196.613481 
L 196.304708 196.613481 
" style="fill:none;stroke:#000000;stroke-linecap:square;stroke-opacity:0.7;stroke-width:1.2;"/>
   </g>
   <g id="line2d_8">
    <path clip-path="url(#p585f54a930)" d="M 244.819972 136.603626 
L 241.560279 144.387082 
L 239.024652 150.148847 
L 236.911399 154.333756 
L 235.449097 156.119348 
L 235.234573 156.127032 
L 235.02597 155.930281 
L 234.870006 155.422328 
L 234.873255 152.912528 
L 235.173368 150.407717 
L 235.972583 146.046443 
L 236.662846 143.120835 
L 237.432412 140.419009 
L 238.619372 137.286785 
L 239.485711 135.886182 
L 239.95127 135.532981 
L 240.355956 135.539359 
L 240.5346 135.668328 
L 241.194265 137.83864 
L 241.218714 139.597361 
L 240.926272 141.704871 
L 240.289488 143.404112 
L 239.798561 144.029966 
L 239.223306 144.369015 
L 238.567112 144.392723 
L 237.825885 144.060751 
L 237.292825 143.62017 
L 236.436758 142.574695 
L 235.635607 141.155805 
L 235.072669 139.686214 
L 234.837356 138.519055 
L 234.883533 137.700751 
L 235.014292 137.401282 
L 235.316018 137.153661 
L 236.066182 137.181199 
L 236.761564 137.503734 
L 238.20741 138.589502 
L 239.83143 140.225643 
L 241.346126 142.10559 
L 241.567327 142.440939 
L 240.495221 140.734264 
L 237.472469 135.416853 
L 232.57665 126.772457 
L 230.669725 123.856169 
L 229.924996 122.94601 
L 229.353328 122.608456 
L 229.288486 122.903632 
L 229.325673 123.146528 
L 229.848276 124.680013 
L 230.916564 126.993599 
L 233.351602 131.589889 
L 236.636025 137.797838 
L 237.521263 139.979694 
L 237.787425 141.145151 
L 237.807605 141.536594 
L 237.636827 142.277358 
L 237.132296 142.742867 
L 236.439586 142.909726 
L 235.286919 142.84425 
L 233.451904 142.407047 
L 230.557676 141.398826 
L 220.595745 137.62564 
L 218.280372 137.038693 
L 216.72332 136.805521 
L 214.639939 136.801904 
L 213.339552 137.051991 
L 211.941034 137.620496 
L 210.856174 138.334642 
L 209.911474 139.194198 
L 208.033161 141.696272 
L 206.546827 144.53366 
L 204.963916 148.43717 
L 202.155453 156.751497 
L 201.817245 157.117301 
L 201.539023 156.760258 
L 200.868254 154.059269 
L 200.226868 151.277208 
L 200.226868 151.277208 
" style="fill:none;stroke:#000000;stroke-linecap:square;stroke-opacity:0.7;stroke-width:1.2;"/>
   </g>
   <g id="line2d_9">
    <path clip-path="url(#p585f54a930)" d="M 217.71973 96.687135 
L 201.68134 111.032065 
L 194.853855 116.807092 
L 193.857781 117.515745 
L 193.919069 117.379868 
L 194.877692 116.301072 
L 201.98509 108.602781 
L 207.446207 102.641758 
L 210.257633 99.889741 
L 211.743573 98.613237 
L 214.166669 96.869759 
L 216.224831 95.752664 
L 218.242789 94.990677 
L 219.968017 94.593786 
L 221.5542 94.424251 
L 223.124825 94.425903 
L 225.398908 94.68313 
L 229.368337 95.329945 
L 229.602262 95.305445 
L 230.044373 95.140087 
L 230.340787 94.745602 
L 230.404528 94.125642 
L 230.200643 93.326466 
L 229.974486 93.096832 
L 229.910599 93.176649 
L 229.851092 93.847214 
L 229.997414 95.447381 
L 230.506175 98.564549 
L 231.638457 104.110207 
L 233.378824 111.664672 
L 237.3179 128.347293 
L 237.175687 128.696079 
L 236.812726 128.622315 
L 236.097425 128.059528 
L 233.650656 125.670954 
L 231.095689 123.27496 
L 228.007914 120.681988 
L 224.967987 118.453717 
L 221.852215 116.489031 
L 218.514471 114.726807 
L 214.138089 112.59943 
L 214.025018 112.267216 
L 214.41688 111.528839 
L 216.390062 108.863856 
L 216.922613 107.785852 
L 217.329267 106.521348 
L 217.501384 104.943165 
L 217.401623 103.912878 
L 216.924367 102.418016 
L 216.725376 102.024339 
L 216.022235 100.975945 
L 215.38099 100.266869 
L 213.775272 98.989574 
L 212.840535 98.445452 
L 210.364279 97.457554 
L 208.111964 97.02087 
L 206.679143 96.972011 
L 204.403431 97.360965 
L 202.942146 98.065701 
L 201.658135 99.23602 
L 200.196124 102.437379 
L 199.935539 104.063318 
L 199.859995 106.54992 
L 200.111187 109.531882 
L 201.756313 117.076947 
L 202.833465 120.508118 
L 202.833465 120.508118 
" style="fill:none;stroke:#000000;stroke-linecap:square;stroke-opacity:0.7;stroke-width:1.2;"/>
   </g>
   <g id="line2d_10">
    <path clip-path="url(#p585f54a930)" d="M 212.037921 55.195423 
L 211.810062 56.70305 
L 211.80246 57.76342 
L 212.120351 59.751447 
L 212.669339 61.235287 
L 214.01061 63.31329 
L 216.041594 65.138087 
L 217.254822 65.853848 
L 219.169683 66.587429 
L 220.184081 66.796468 
L 221.299801 66.873867 
L 222.983896 66.609067 
L 224.069431 66.06077 
L 225.011687 65.0965 
L 225.191015 64.815288 
L 225.590035 63.970718 
L 226.042387 62.211305 
L 226.701276 58.132237 
L 226.919955 57.51798 
L 227.417581 56.69352 
L 228.180598 56.085704 
L 229.118367 55.797076 
L 230.362639 55.779059 
L 232.102651 56.101785 
L 234.601534 56.9008 
L 241.954498 59.49284 
L 243.956172 59.867235 
L 245.576442 59.957522 
L 247.926335 59.813891 
L 249.877862 59.771382 
L 251.069887 59.989845 
L 251.761906 60.283317 
L 251.590128 60.119723 
L 250.641895 59.028943 
L 249.070575 56.819572 
L 246.878925 53.670733 
L 245.678018 52.256738 
L 244.370471 51.127986 
L 243.330533 50.566153 
L 242.473514 50.333947 
L 241.574769 50.325185 
L 240.772481 50.54326 
L 239.949221 51.04221 
L 239.292596 51.725551 
L 238.750871 52.613461 
L 238.338466 53.683808 
L 237.97252 55.338131 
L 237.478807 58.05074 
L 237.17135 58.810196 
L 236.851317 59.285574 
L 236.408741 59.699309 
L 235.674572 60.083254 
L 234.489277 60.332697 
L 232.994624 60.339999 
L 230.782204 60.043205 
L 229.0793 59.668731 
L 226.54743 58.947214 
L 222.363391 57.392993 
L 216.268478 54.880249 
L 212.469989 53.563519 
L 208.398921 52.505528 
L 204.810644 51.901606 
L 201.473296 51.618946 
L 195.370835 51.779756 
L 195.370835 51.779756 
" style="fill:none;stroke:#000000;stroke-linecap:square;stroke-opacity:0.7;stroke-width:1.2;"/>
   </g>
   <g id="line2d_11">
    <path clip-path="url(#p585f54a930)" d="M 364.165506 227.996729 
L 360.925915 235.506973 
L 359.770513 237.705618 
L 359.364592 238.212935 
L 358.850021 238.309581 
L 358.541419 237.768153 
L 358.112043 235.594484 
L 357.763517 231.745367 
L 357.660406 228.288428 
L 357.838367 224.532063 
L 358.175552 222.311787 
L 358.599037 220.754241 
L 359.0625 219.680597 
L 359.456467 219.068248 
L 360.518641 218.27569 
L 361.033209 218.218005 
L 361.64336 218.365438 
L 362.107362 218.61593 
L 362.846014 219.23324 
L 364.48998 221.394182 
L 366.259769 224.464757 
L 368.892018 229.035716 
L 370.361475 231.145894 
L 371.910728 232.941758 
L 373.500912 234.339534 
L 374.955745 235.232313 
L 375.90678 235.605485 
L 376.950537 235.786981 
L 377.743926 235.705691 
L 378.284833 235.469883 
L 378.810868 234.918505 
L 379.035988 234.294119 
L 379.077492 233.862585 
L 378.833345 232.476633 
L 378.506565 231.684711 
L 377.874969 230.590441 
L 376.995626 229.438483 
L 375.618193 228.054265 
L 374.108665 226.904542 
L 372.615788 226.057698 
L 371.346129 225.542475 
L 370.057055 225.208304 
L 369.145175 225.088529 
L 367.362903 225.141158 
L 365.684347 225.542977 
L 364.135339 226.198772 
L 360.324161 228.075584 
L 360.111876 227.966926 
L 360.062186 227.684576 
L 360.253525 227.193435 
L 360.642926 226.670395 
L 361.604691 225.851179 
L 362.501982 225.353484 
L 363.551308 224.972008 
L 365.047463 224.704522 
L 366.695717 224.705722 
L 368.30906 224.952353 
L 369.664947 225.31815 
L 371.860785 226.161385 
L 374.880642 227.668422 
L 378.951979 229.77006 
L 380.883516 230.486676 
L 382.407349 230.771725 
L 383.593524 230.738811 
L 384.458533 230.506093 
L 385.268955 230.003074 
L 385.745229 229.342323 
L 385.873508 228.783537 
L 385.720004 227.989995 
L 385.601184 227.754467 
L 384.957907 226.981825 
L 383.993909 226.28521 
L 383.385964 225.955692 
L 380.87276 224.974801 
L 378.495688 224.301461 
L 371.037221 222.553463 
L 355.908453 218.976024 
L 351.689681 218.225246 
L 348.266595 217.902869 
L 346.63112 217.89025 
L 344.986412 218.003675 
L 341.193288 218.948669 
L 338.445686 220.532811 
L 338.445686 220.532811 
" style="fill:none;stroke:#000000;stroke-linecap:square;stroke-opacity:0.7;stroke-width:1.2;"/>
   </g>
   <g id="line2d_12">
    <path clip-path="url(#p585f54a930)" d="M 331.814902 173.056606 
L 351.288369 175.459845 
L 359.539332 176.278504 
L 365.483092 176.517754 
L 368.919067 176.169569 
L 369.967125 175.840258 
L 370.925925 175.274389 
L 371.542033 174.527208 
L 371.869149 173.452309 
L 371.728891 171.436552 
L 371.129764 169.346248 
L 370.268734 167.215705 
L 369.480122 165.684788 
L 368.614956 164.559242 
L 368.104996 164.28349 
L 367.623584 164.349775 
L 367.474195 164.43758 
L 366.790372 165.225684 
L 366.168389 166.432812 
L 365.337406 168.781857 
L 365.002537 170.264848 
L 364.902382 171.472379 
L 364.991846 172.184194 
L 365.257333 172.749931 
L 365.539465 173.012668 
L 366.456722 173.270146 
L 367.732501 173.181116 
L 369.593813 172.97509 
L 370.693111 173.068846 
L 371.645987 173.462502 
L 372.257976 173.977579 
L 372.773509 174.664059 
L 373.423052 176.062446 
L 373.88767 177.704403 
L 374.323052 180.268795 
L 375.063261 185.979942 
L 375.256461 185.921074 
L 375.582792 185.369957 
L 376.374624 183.259695 
L 378.039376 177.945687 
L 380.782908 168.452496 
L 382.959035 160.173747 
L 383.671863 156.819598 
L 383.65996 156.681781 
L 383.634142 156.716142 
L 383.231532 157.954269 
L 380.031264 169.039224 
L 379.033003 171.756861 
L 377.607918 174.88136 
L 376.786677 176.321543 
L 375.147951 178.549716 
L 373.485111 180.118377 
L 372.027114 181.063334 
L 370.257032 181.804546 
L 367.917567 182.280896 
L 367.117087 182.34259 
L 364.160824 182.239064 
L 361.344948 181.802571 
L 360.363143 181.729664 
L 360.65201 181.982766 
L 365.907636 185.489507 
L 366.597967 186.081416 
L 367.472371 187.038887 
L 367.691104 187.577857 
L 367.326651 187.87393 
L 366.963411 187.861751 
L 365.745445 187.523872 
L 361.454393 185.317936 
L 356.919414 182.282825 
L 343.823623 171.406201 
L 343.823623 171.406201 
" style="fill:none;stroke:#000000;stroke-linecap:square;stroke-opacity:0.7;stroke-width:1.2;"/>
   </g>
   <g id="line2d_13">
    <path clip-path="url(#p585f54a930)" d="M 371.221828 148.634643 
L 369.794709 148.410429 
L 369.178868 148.480049 
L 368.594352 148.943829 
L 368.48321 149.384906 
L 368.521384 149.942725 
L 368.736442 150.693208 
L 369.062734 151.426977 
L 370.548885 153.661696 
L 372.161197 155.378678 
L 373.99019 156.851771 
L 375.647966 157.838089 
L 377.079553 158.427085 
L 377.671857 158.591147 
L 379.055276 158.731047 
L 379.688113 158.593061 
L 379.957015 158.294033 
L 379.808907 158.126661 
L 379.369928 158.058534 
L 378.4931 158.243132 
L 377.429219 158.737085 
L 376.077949 159.630081 
L 374.017246 161.308878 
L 371.816367 163.077547 
L 370.69479 163.740156 
L 369.929531 164.003982 
L 368.881115 163.985297 
L 368.286549 163.700201 
L 367.594413 163.013048 
L 367.206 162.403662 
L 366.600173 160.991612 
L 366.116751 159.235086 
L 365.701422 156.7882 
L 365.486849 154.199908 
L 365.528288 151.854635 
L 365.747915 150.987932 
L 365.917285 150.943297 
L 366.069651 151.130839 
L 366.315148 151.814366 
L 366.53249 153.112689 
L 366.532447 154.247987 
L 366.322375 155.04608 
L 366.118605 155.328739 
L 365.62425 155.541278 
L 365.415813 155.53377 
L 364.769619 155.320147 
L 363.610966 154.528301 
L 362.530964 153.520075 
L 360.646005 151.36338 
L 358.654913 148.64802 
L 356.821817 145.713882 
L 355.739856 143.635515 
L 355.430272 142.898041 
L 355.255486 142.09522 
L 355.322875 142.018577 
L 355.7237 142.241307 
L 356.679655 143.260757 
L 359.598305 146.609122 
L 361.149813 147.956202 
L 361.933456 148.339502 
L 362.61637 148.276247 
L 362.915809 147.867704 
L 362.97153 147.678943 
L 362.985382 146.491744 
L 362.57182 144.732939 
L 361.679334 142.467001 
L 360.477531 140.137861 
L 358.725248 137.371802 
L 357.117828 135.25042 
L 355.058886 133.017472 
L 353.150653 131.454704 
L 351.898608 130.735545 
L 350.319065 130.227986 
L 349.138157 130.162571 
L 346.713853 130.835234 
L 344.558489 132.136573 
L 342.289435 133.910942 
L 325.521659 148.339355 
L 325.521659 148.339355 
" style="fill:none;stroke:#000000;stroke-linecap:square;stroke-opacity:0.7;stroke-width:1.2;"/>
   </g>
   <g id="line2d_14">
    <path clip-path="url(#p585f54a930)" d="M 360.291478 78.301235 
L 358.73218 82.050386 
L 357.812041 85.028612 
L 357.448936 88.235185 
L 358.47261 90.544525 
L 359.655724 90.994049 
L 360.234586 91.006317 
L 361.081328 90.86765 
L 362.053117 90.518316 
L 363.481344 89.644812 
L 364.578072 88.591309 
L 365.380311 87.416705 
L 365.937058 85.983013 
L 366.10764 84.665717 
L 366.10415 84.397656 
L 365.834531 82.963355 
L 365.517174 82.365518 
L 365.310976 82.191498 
L 365.103852 82.248519 
L 364.9998 82.602284 
L 365.038098 83.434809 
L 365.290544 84.697042 
L 366.155091 87.463954 
L 367.631561 91.13024 
L 369.591711 95.282943 
L 371.972054 99.746987 
L 375.466087 105.539377 
L 379.320743 111.650449 
L 379.224916 111.858018 
L 379.033232 111.947574 
L 376.882156 112.326822 
L 376.178752 112.737217 
L 375.756984 113.362626 
L 375.698529 113.846117 
L 375.800581 114.300203 
L 376.093492 114.818371 
L 376.723149 115.432236 
L 377.380324 115.835953 
L 378.361927 116.219438 
L 379.740996 116.479772 
L 381.051475 116.50607 
L 382.488448 116.32651 
L 384.586751 115.69479 
L 386.202358 114.893576 
L 387.773293 113.804846 
L 389.752819 111.84142 
L 391.158044 109.790598 
L 391.987391 108.068737 
L 392.669869 105.942757 
L 393.003584 104.130891 
L 393.288173 102.51088 
L 393.383746 102.542364 
L 393.703176 102.941627 
L 397.164496 108.114186 
L 399.818046 111.531697 
L 401.880202 113.959504 
L 404.498247 116.788761 
L 405.97138 118.107942 
L 406.244102 118.136233 
L 406.25726 117.872565 
L 406.090507 117.22952 
L 403.292596 109.039654 
L 402.495006 106.862239 
L 400.720861 102.794617 
L 400.003354 101.45594 
L 398.976557 99.800953 
L 396.975558 97.274071 
L 394.278095 94.888825 
L 390.715447 92.870685 
L 388.117924 91.930376 
L 386.16304 91.434625 
L 382.677623 90.894337 
L 378.29047 90.68493 
L 371.814415 91.047988 
L 368.93174 91.400397 
L 360.601099 92.895437 
L 352.16253 94.939846 
L 338.690021 98.931826 
L 331.330089 101.375182 
L 331.330089 101.375182 
" style="fill:none;stroke:#000000;stroke-linecap:square;stroke-opacity:0.7;stroke-width:1.2;"/>
   </g>
   <g id="line2d_15">
    <path clip-path="url(#p585f54a930)" d="M 357.060423 54.917361 
L 354.74875 68.867592 
L 355.75261 73.34969 
L 356.800632 74.41765 
L 357.298798 74.637317 
L 358.139985 74.755931 
L 358.805551 74.681305 
L 359.590133 74.445278 
L 360.384402 74.07246 
L 362.536106 72.55291 
L 366.75107 68.934063 
L 367.722106 68.670852 
L 368.251911 68.887048 
L 368.736152 69.54849 
L 369.054528 70.591443 
L 369.13901 71.151645 
L 369.147495 73.2584 
L 368.846597 74.917402 
L 368.410058 76.012261 
L 368.035416 76.412153 
L 367.860393 76.294444 
L 367.859744 75.66572 
L 368.063273 74.811044 
L 368.740593 72.952658 
L 371.91329 65.265261 
L 372.409861 63.508163 
L 372.676951 61.801428 
L 372.653512 60.6545 
L 372.38343 59.670557 
L 371.95672 59.047356 
L 371.365667 58.62207 
L 370.4801 58.347532 
L 369.31228 58.27604 
L 367.657153 58.402058 
L 364.375647 58.700745 
L 362.570936 58.630363 
L 361.143579 58.347914 
L 359.952598 57.897854 
L 358.826411 57.228296 
L 357.634551 56.143225 
L 356.792766 54.985569 
L 356.169602 53.656267 
L 355.913219 52.704323 
L 355.83982 51.635809 
L 356.058844 50.797206 
L 356.49229 50.398137 
L 357.079043 50.386846 
L 357.600413 50.623178 
L 358.300348 51.181353 
L 359.209293 52.22543 
L 360.096153 53.544047 
L 361.317335 55.833024 
L 362.406787 58.413534 
L 363.012216 60.155047 
L 363.82283 63.138304 
L 364.246146 65.588942 
L 364.366647 67.346982 
L 364.285414 68.855175 
L 364.021556 70.060822 
L 363.750435 70.727873 
L 363.033931 71.725957 
L 362.237935 72.319519 
L 360.620135 72.890314 
L 359.035822 73.102881 
L 352.420154 73.594627 
L 351.672984 73.754659 
L 350.360802 74.161856 
L 349.107894 74.775147 
L 347.923243 75.732558 
L 347.160722 76.841667 
L 346.909169 77.507806 
L 346.765165 78.599717 
L 346.902378 79.477131 
L 347.054723 79.810331 
L 347.283436 79.962026 
L 347.333328 79.289797 
L 347.031156 78.275677 
L 345.457918 75.309412 
L 343.761427 73.015481 
L 342.390821 71.467798 
L 339.686599 68.928906 
L 335.47313 65.926763 
L 335.47313 65.926763 
" style="fill:none;stroke:#000000;stroke-linecap:square;stroke-opacity:0.7;stroke-width:1.2;"/>
   </g>
   <g id="line2d_16">
    <path clip-path="url(#p585f54a930)" d="M 502.999228 227.750431 
L 502.437394 229.075487 
L 501.573598 231.714469 
L 502.316737 231.41353 
L 503.720293 229.60578 
L 506.254835 225.821365 
L 509.075738 221.189323 
L 510.667936 218.23864 
L 511.461719 216.303678 
L 511.555598 215.60105 
L 511.513097 215.440983 
L 511.251781 215.271678 
L 510.426673 215.596248 
L 509.445343 216.386475 
L 508.684213 217.177551 
L 508.079768 217.918394 
L 507.208086 219.218523 
L 506.6706 220.234233 
L 506.052847 221.842279 
L 505.658494 223.876258 
L 505.619228 224.625275 
L 505.757179 226.435041 
L 506.286205 228.411369 
L 506.830582 229.662642 
L 507.941544 231.499565 
L 509.647807 233.525418 
L 511.017103 234.785933 
L 512.683064 236.035262 
L 514.643827 237.198459 
L 515.546407 237.636648 
L 518.318989 238.615484 
L 520.06401 238.92123 
L 521.181641 238.955576 
L 522.556083 238.731933 
L 523.454036 238.238003 
L 523.74608 237.831424 
L 523.808573 237.291493 
L 523.768245 237.129429 
L 523.240128 236.379734 
L 522.542876 235.887867 
L 521.465552 235.403716 
L 520.023822 234.988804 
L 517.498697 234.57047 
L 513.484004 234.225425 
L 509.823514 233.83115 
L 508.592062 233.572816 
L 506.800014 232.905457 
L 505.899552 232.307198 
L 505.218706 231.597684 
L 504.619195 230.545322 
L 504.417392 229.969359 
L 504.126856 228.252968 
L 504.147548 226.060588 
L 504.420439 223.744075 
L 504.763741 221.792302 
L 506.075074 216.092146 
L 507.003129 212.894859 
L 507.404498 211.909062 
L 507.783184 211.545156 
L 507.887243 211.699905 
L 507.940048 212.379414 
L 507.812221 213.185329 
L 507.448645 214.145035 
L 506.679773 215.217497 
L 505.099098 216.997519 
L 504.598183 218.005997 
L 504.11508 219.539396 
L 503.01293 223.823775 
L 502.158472 226.239934 
L 501.601181 227.477793 
L 500.023406 230.166749 
L 497.670819 232.98101 
L 496.117652 234.40875 
L 493.571429 236.301647 
L 491.619327 237.488771 
L 489.229952 238.716392 
L 485.67566 240.197138 
L 480.46162 241.808337 
L 475.030299 242.883951 
L 472.737203 243.125299 
L 469.545744 243.077297 
L 468.478527 242.822884 
L 467.638357 242.256134 
L 467.638357 242.256134 
" style="fill:none;stroke:#000000;stroke-linecap:square;stroke-opacity:0.7;stroke-width:1.2;"/>
   </g>
   <g id="line2d_17">
    <path clip-path="url(#p585f54a930)" d="M 469.401318 178.295684 
L 466.27902 188.241445 
L 466.079211 194.378853 
L 467.353625 196.357635 
L 469.999501 197.49662 
L 471.960728 197.727975 
L 474.048841 197.757488 
L 478.903915 197.486279 
L 484.035744 197.095654 
L 492.855655 196.735212 
L 498.66995 196.831211 
L 504.224408 197.024559 
L 505.518366 196.893212 
L 505.801342 196.758951 
L 505.927484 196.506071 
L 505.864848 196.274108 
L 505.26795 195.527589 
L 504.300322 194.637021 
L 501.346809 191.899794 
L 500.531802 190.902964 
L 500.011128 189.943809 
L 499.878371 189.33317 
L 499.888518 189.046253 
L 500.042179 188.560849 
L 500.602471 187.914601 
L 501.421938 187.415426 
L 502.311292 187.044741 
L 505.218563 186.200412 
L 509.938994 184.894151 
L 511.938244 184.12008 
L 513.655009 183.178202 
L 514.459077 182.550807 
L 515.303759 181.533082 
L 515.619952 180.737277 
L 515.657348 179.981312 
L 515.502221 179.390258 
L 515.030852 178.62948 
L 514.492656 178.113827 
L 513.374995 177.43845 
L 512.717318 177.173946 
L 510.977023 176.755344 
L 509.279284 176.625753 
L 507.471758 176.721969 
L 505.58255 177.063263 
L 504.08968 177.551627 
L 502.989139 178.153045 
L 497.855191 182.013215 
L 497.503505 182.392847 
L 496.11875 184.264374 
L 495.212939 185.918218 
L 494.244035 188.176953 
L 491.804403 194.732805 
L 490.89586 196.43958 
L 490.266651 197.33751 
L 488.944221 198.699115 
L 484.604326 202.052285 
L 483.613564 202.614491 
L 482.787532 202.954877 
L 481.168793 203.384901 
L 478.575949 203.651022 
L 476.109106 203.597664 
L 473.995726 203.388314 
L 471.594667 203.012203 
L 468.800296 202.429141 
L 463.744822 201.075811 
L 457.783137 199.128457 
L 457.783137 199.128457 
" style="fill:none;stroke:#000000;stroke-linecap:square;stroke-opacity:0.7;stroke-width:1.2;"/>
   </g>
   <g id="line2d_18">
    <path clip-path="url(#p585f54a930)" d="M 497.962234 144.203996 
L 496.920798 148.976734 
L 496.756609 150.567842 
L 496.98011 151.257398 
L 497.335396 151.450512 
L 498.048915 151.491785 
L 501.979167 151.278996 
L 508.899376 151.582909 
L 510.446758 151.321558 
L 510.730803 151.222471 
L 511.709265 150.659085 
L 512.440194 149.835842 
L 513.071588 148.435328 
L 513.5016 146.30867 
L 514.082186 142.199502 
L 514.302728 141.929121 
L 514.505374 141.928299 
L 514.814187 142.185917 
L 515.362797 143.100338 
L 515.866671 144.27576 
L 516.913787 147.491041 
L 517.754083 150.641745 
L 517.746927 150.151526 
L 517.634468 146.074544 
L 517.772325 143.141303 
L 518.081623 141.201118 
L 518.32318 140.490079 
L 518.689946 140.013346 
L 519.029715 139.987819 
L 519.430488 140.329009 
L 519.850907 141.041549 
L 520.404466 142.491026 
L 520.999876 144.806551 
L 521.469498 147.695103 
L 521.656168 149.942788 
L 521.657501 152.481753 
L 521.339971 155.205225 
L 521.192844 155.88911 
L 520.638326 157.677445 
L 519.844605 159.319627 
L 519.090768 160.429703 
L 517.822881 161.785721 
L 516.315715 162.922362 
L 514.566817 163.86306 
L 512.34222 164.700278 
L 510.262872 165.248806 
L 506.583265 165.880596 
L 501.559719 166.390449 
L 497.089337 166.895371 
L 495.816464 167.235739 
L 495.550701 167.476122 
L 495.793482 167.509007 
L 496.109076 167.403605 
L 496.456613 167.18329 
L 497.092285 166.405254 
L 497.451212 165.458364 
L 497.620099 164.15202 
L 497.447693 161.924329 
L 496.859459 159.436467 
L 496.122227 157.246308 
L 495.472917 155.605736 
L 493.147973 150.62893 
L 490.08332 144.960021 
L 485.718369 137.496746 
L 479.775898 127.417804 
L 476.488749 121.406171 
L 475.610564 119.84999 
L 475.579354 120.080621 
L 476.562255 126.206045 
L 476.937053 129.470565 
L 477.440812 136.659725 
L 477.579395 141.825095 
L 477.579395 141.825095 
" style="fill:none;stroke:#000000;stroke-linecap:square;stroke-opacity:0.7;stroke-width:1.2;"/>
   </g>
   <g id="line2d_19">
    <path clip-path="url(#p585f54a930)" d="M 489.743372 95.260391 
L 502.075773 86.383711 
L 504.969117 84.44438 
L 510.864612 80.954228 
L 515.542823 78.996864 
L 518.820168 78.408731 
L 521.115274 78.615001 
L 523.819261 79.875748 
L 525.984452 82.166765 
L 527.391241 84.75987 
L 527.990984 86.368002 
L 528.86412 90.1626 
L 529.090049 92.600054 
L 529.083362 94.594538 
L 528.788554 97.158762 
L 528.25232 99.255301 
L 527.456823 101.20639 
L 527.061541 102.264754 
L 527.222995 102.520607 
L 527.442641 102.596834 
L 528.544104 102.671328 
L 534.591816 102.57524 
L 537.541249 102.397984 
L 540.102224 102.000252 
L 541.359048 101.646924 
L 542.686635 101.082511 
L 544.040577 100.176872 
L 545.200114 98.913095 
L 546.04999 97.361962 
L 546.726283 94.793286 
L 546.850753 93.085862 
L 546.739962 91.167857 
L 546.312603 89.15935 
L 545.822986 87.947953 
L 545.478967 87.378456 
L 544.56669 86.527667 
L 543.801588 86.32884 
L 543.021139 86.485925 
L 542.408276 86.819347 
L 541.470726 87.624956 
L 540.116191 89.264921 
L 537.09078 93.42187 
L 535.990537 94.452035 
L 533.460811 94.876804 
L 532.627964 94.469001 
L 531.390711 93.495945 
L 530.319996 92.388511 
L 527.597344 88.864483 
L 526.118926 86.523428 
L 525.605834 85.373628 
L 526.030534 84.205697 
L 526.747162 84.100655 
L 528.202569 84.200334 
L 531.247491 84.734365 
L 535.678836 85.762569 
L 537.646592 86.305626 
L 541.063459 87.478468 
L 543.136941 88.475083 
L 544.052321 89.060518 
L 545.072587 89.934165 
L 545.587256 90.559228 
L 546.307337 92.6401 
L 546.265902 93.41712 
L 545.491435 95.525981 
L 544.37813 97.066812 
L 541.8649 99.321467 
L 540.668144 100.108497 
L 538.795649 101.1013 
L 536.079352 102.148286 
L 534.482465 102.597413 
L 530.693048 103.352661 
L 525.422436 104.380105 
L 523.762229 104.91513 
L 521.41672 106.029169 
L 519.865997 107.075014 
L 516.774764 110.140003 
L 515.560738 111.777496 
L 513.080875 116.041501 
L 511.597533 119.261179 
L 509.81294 123.887787 
L 506.844053 133.649571 
L 506.844053 133.649571 
" style="fill:none;stroke:#000000;stroke-linecap:square;stroke-opacity:0.7;stroke-width:1.2;"/>
   </g>
   <g id="line2d_20">
    <path clip-path="url(#p585f54a930)" d="M 488.039823 54.792796 
L 482.315003 71.03668 
L 481.909703 72.55996 
L 481.645283 74.391605 
L 481.724153 74.811606 
L 482.19886 75.02173 
L 483.059247 74.534646 
L 484.913443 72.860001 
L 488.964325 68.938814 
L 491.072125 67.154601 
L 493.665972 65.378902 
L 495.140776 64.613073 
L 497.258309 63.850389 
L 497.702948 63.742012 
L 499.851097 63.471781 
L 501.535033 63.548436 
L 503.865547 64.055659 
L 505.929928 64.87907 
L 507.874385 65.978075 
L 510.140014 67.71616 
L 511.408973 68.994764 
L 512.437122 70.31999 
L 513.055194 71.367553 
L 513.66048 72.942274 
L 513.834682 73.999899 
L 513.798708 74.958144 
L 513.525205 75.797513 
L 513.259111 76.118847 
L 512.898924 76.259256 
L 512.508598 76.157143 
L 512.058289 75.7932 
L 511.533727 75.131017 
L 509.08221 71.595781 
L 508.24526 70.899003 
L 507.347777 70.54241 
L 506.766464 70.5169 
L 505.813011 70.787477 
L 504.693496 71.499673 
L 500.498014 74.757114 
L 499.499695 75.155567 
L 498.090009 75.428784 
L 496.717418 75.430223 
L 495.040021 75.164323 
L 493.390075 74.686738 
L 491.524912 73.946766 
L 489.811783 73.103598 
L 487.748691 71.85716 
L 486.204155 70.642513 
L 485.407647 69.744857 
L 485.081627 69.124764 
L 484.993115 68.65167 
L 485.176822 67.995373 
L 485.58945 67.54152 
L 486.475118 67.030058 
L 487.963146 66.555612 
L 490.446571 66.144491 
L 492.514189 65.981733 
L 496.537833 65.947866 
L 499.529221 66.113704 
L 503.218584 66.535701 
L 505.839304 67.009949 
L 508.376287 67.683693 
L 509.911499 68.336793 
L 510.345267 68.72115 
L 510.251672 69.007248 
L 509.705763 69.169666 
L 508.497244 69.220576 
L 505.300046 69.001711 
L 500.375239 68.617772 
L 498.348464 68.568632 
L 495.124621 68.720106 
L 492.394863 69.121494 
L 491.362382 69.343483 
L 484.416929 71.294471 
L 483.389716 71.335531 
L 482.892231 71.168595 
L 482.705467 70.975773 
L 483.096425 69.803377 
L 484.348004 68.921608 
L 484.348004 68.921608 
" style="fill:none;stroke:#000000;stroke-linecap:square;stroke-opacity:0.7;stroke-width:1.2;"/>
   </g>
   <g id="line2d_21">
    <path clip-path="url(#p585f54a930)" d="M 627.563901 222.025991 
L 623.290399 225.620081 
L 619.746784 228.271625 
L 618.136416 229.252948 
L 617.915664 229.282495 
L 618.04311 229.089831 
L 618.979734 228.235988 
L 627.877329 220.757878 
L 632.922032 216.265584 
L 634.41427 215.188453 
L 635.273433 214.781678 
L 636.1362 214.692795 
L 636.893025 215.105606 
L 637.389876 215.829893 
L 637.744078 216.723735 
L 638.114151 218.238086 
L 638.453106 220.707663 
L 638.674306 224.528138 
L 638.65816 228.856074 
L 638.434894 232.877401 
L 637.904988 237.676113 
L 637.651339 240.129574 
L 637.754319 240.184045 
L 638.015131 239.945827 
L 638.95345 238.642309 
L 641.044008 235.375187 
L 642.171819 233.204991 
L 642.760457 231.561228 
L 643.037415 229.912408 
L 642.997624 228.559268 
L 642.701275 227.17471 
L 642.140661 225.757561 
L 641.113444 224.006797 
L 639.918526 222.470291 
L 638.250756 220.785504 
L 636.865731 219.703873 
L 635.773705 219.092081 
L 635.054667 218.896591 
L 634.66919 218.983278 
L 634.509755 219.303172 
L 634.620217 219.86636 
L 635.144254 220.819818 
L 635.993114 221.906857 
L 637.705708 223.699502 
L 638.686797 224.801009 
L 638.743749 225.151758 
L 638.451014 225.29447 
L 637.60843 225.309749 
L 634.933484 225.010409 
L 627.510961 224.138402 
L 623.253595 223.681696 
L 621.584274 223.348577 
L 620.039332 222.715825 
L 618.27316 221.49421 
L 616.529177 220.196325 
L 614.335768 218.744028 
L 611.054115 216.907304 
L 607.032914 215.02331 
L 601.866957 212.983791 
L 601.866957 212.983791 
" style="fill:none;stroke:#000000;stroke-linecap:square;stroke-opacity:0.7;stroke-width:1.2;"/>
   </g>
   <g id="line2d_22">
    <path clip-path="url(#p585f54a930)" d="M 644.490954 186.689397 
L 647.145407 187.532259 
L 652.331323 188.365292 
L 655.67469 188.323985 
L 662.124552 186.936118 
L 664.639197 185.919689 
L 668.254399 183.984765 
L 673.045085 180.582948 
L 675.126095 178.931035 
L 675.490909 178.75976 
L 675.028944 179.70681 
L 673.522756 181.780387 
L 671.106324 184.730963 
L 667.173837 189.098902 
L 667.009853 189.767559 
L 667.238689 190.313152 
L 667.830579 190.99673 
L 668.640225 191.665325 
L 669.53737 192.111196 
L 669.846867 192.153464 
L 670.387572 191.978794 
L 670.783681 191.463829 
L 671.084407 190.403722 
L 671.188159 188.932058 
L 671.183708 188.495565 
L 670.856634 185.274576 
L 670.189771 182.256768 
L 669.380907 179.805047 
L 668.7819 178.423917 
L 667.819754 176.73209 
L 666.984169 175.680783 
L 665.857844 174.794028 
L 665.3113 174.582347 
L 664.697538 174.544995 
L 664.202141 174.733241 
L 663.810254 175.162096 
L 663.597829 175.769769 
L 663.560297 176.642763 
L 663.698192 177.609095 
L 664.246183 179.665742 
L 665.461669 184.071492 
L 665.954141 186.952124 
L 666.124602 189.438361 
L 666.013596 192.088195 
L 665.822978 193.437236 
L 665.016636 196.298904 
L 664.815127 196.760237 
L 664.017237 198.114876 
L 663.332902 198.842824 
L 662.897025 199.133628 
L 661.920313 199.246625 
L 661.721867 199.137977 
L 661.3663 198.663851 
L 661.23951 198.121645 
L 661.283676 197.299759 
L 661.743406 195.929747 
L 662.201539 195.10286 
L 663.72458 192.792157 
L 663.533121 192.578263 
L 662.923797 192.474456 
L 661.329309 192.489731 
L 655.80017 192.709562 
L 652.734549 192.640652 
L 652.053013 192.575142 
L 650.203279 192.170951 
L 649.552132 191.863812 
L 648.685008 191.093394 
L 648.198344 190.27926 
L 646.724634 186.571195 
L 645.60404 184.402201 
L 644.37597 182.527136 
L 641.927076 179.555967 
L 638.062722 175.871345 
L 633.554601 172.347669 
L 623.029133 165.707924 
L 613.807036 160.889847 
L 613.807036 160.889847 
" style="fill:none;stroke:#000000;stroke-linecap:square;stroke-opacity:0.7;stroke-width:1.2;"/>
   </g>
   <g id="line2d_23">
    <path clip-path="url(#p585f54a930)" d="M 616.49155 111.340516 
L 611.472755 134.4575 
L 611.892099 135.90203 
L 612.717292 136.954037 
L 613.103631 137.193179 
L 615.23234 137.450517 
L 616.195125 137.265501 
L 618.836946 136.313214 
L 620.08792 135.722067 
L 624.712739 133.15077 
L 634.102788 127.509496 
L 637.777393 125.541239 
L 641.522911 123.884346 
L 644.249313 123.006951 
L 645.165631 122.792894 
L 647.240173 122.491963 
L 649.054698 122.475403 
L 651.727832 122.96911 
L 654.154236 124.05602 
L 655.845324 125.206621 
L 657.9188 127.02998 
L 659.27643 128.418939 
L 665.595843 135.23263 
L 666.97543 136.458993 
L 668.510971 137.584843 
L 670.062968 138.381209 
L 670.669775 138.568836 
L 671.988681 138.618182 
L 672.602013 138.36881 
L 673.152382 137.801191 
L 673.216237 137.688665 
L 673.468247 136.849871 
L 673.414481 135.696262 
L 673.061788 134.62079 
L 671.966634 133.044411 
L 671.055992 132.300657 
L 670.305925 131.890031 
L 668.800696 131.453267 
L 667.439129 131.407276 
L 666.121435 131.626271 
L 665.61718 131.772589 
L 663.615516 132.671424 
L 662.414726 133.442658 
L 660.171363 135.329603 
L 658.278169 137.364495 
L 657.31614 138.552944 
L 654.706528 142.317156 
L 653.109684 145.062755 
L 651.718242 147.912118 
L 651.219498 149.232122 
L 650.985879 150.269922 
L 651.131986 150.978772 
L 651.353998 151.108585 
L 651.801945 151.102744 
L 652.597596 150.827242 
L 653.978065 150.099143 
L 659.282263 146.988302 
L 661.426544 145.95793 
L 662.537769 145.523723 
L 664.822954 144.919659 
L 666.019214 144.803169 
L 667.986168 145.033609 
L 668.324856 145.143194 
L 669.541515 145.789448 
L 670.378096 146.613424 
L 670.490679 146.771858 
L 670.859378 147.514663 
L 670.963573 148.155133 
L 670.816443 148.714855 
L 670.227727 149.154876 
L 669.479478 149.223916 
L 668.320026 148.997239 
L 666.575938 148.33448 
L 663.083694 146.604045 
L 657.437596 143.797274 
L 653.127505 142.11861 
L 649.493227 141.163397 
L 647.676307 140.84546 
L 645.366107 140.610693 
L 643.639605 140.716874 
L 642.533659 141.054897 
L 641.050355 142.006706 
L 640.547052 142.487804 
L 636.849311 149.536816 
L 635.721184 153.602372 
L 635.721184 153.602372 
" style="fill:none;stroke:#000000;stroke-linecap:square;stroke-opacity:0.7;stroke-width:1.2;"/>
   </g>
   <g id="line2d_24">
    <path clip-path="url(#p585f54a930)" d="M 639.65865 98.068301 
L 639.423572 102.775959 
L 639.504201 107.069779 
L 639.737804 108.479676 
L 640.045812 108.970484 
L 640.804217 107.870219 
L 641.821505 103.599504 
L 643.95863 90.640339 
L 644.388538 88.993812 
L 644.832542 87.931413 
L 645.380125 87.417627 
L 645.562445 87.41563 
L 645.92824 87.632131 
L 646.233335 88.015604 
L 647.024662 89.750044 
L 647.822346 92.4584 
L 648.367785 94.863503 
L 649.194917 99.621787 
L 649.61005 102.910755 
L 649.933318 106.909668 
L 650.004107 109.913417 
L 649.861991 112.645661 
L 649.535911 114.591787 
L 649.102045 115.858485 
L 648.677739 116.561148 
L 648.035924 117.12459 
L 647.200816 117.356193 
L 646.179041 117.202821 
L 644.982608 116.669049 
L 643.456487 115.67507 
L 640.762716 113.545929 
L 638.702535 111.88104 
L 636.042393 110.022579 
L 634.264953 109.18728 
L 633.548971 109.005889 
L 632.478249 108.989725 
L 631.671836 109.282526 
L 631.032058 109.835572 
L 630.540256 110.634548 
L 630.2171 111.585784 
L 630.006399 113.027009 
L 630.013977 114.501108 
L 630.227681 116.101103 
L 630.6758 117.655028 
L 631.060422 118.358652 
L 631.29931 118.535523 
L 631.515283 118.438897 
L 631.731672 117.861868 
L 632.608384 113.883459 
L 633.166648 112.859406 
L 634.020288 111.911724 
L 634.88778 111.305726 
L 636.354859 110.692163 
L 638.22982 110.310743 
L 640.026104 110.175115 
L 643.33667 110.189414 
L 647.380297 110.170201 
L 649.018632 109.97049 
L 650.557728 109.484305 
L 651.240711 108.982908 
L 651.529989 108.322601 
L 651.521638 108.115332 
L 651.239639 107.450761 
L 650.76956 106.926216 
L 649.510211 106.049818 
L 647.662983 105.223022 
L 645.916525 104.708681 
L 644.522507 104.459148 
L 643.005882 104.371315 
L 641.257909 104.564955 
L 639.115554 105.217711 
L 636.53678 106.073054 
L 633.851319 106.655107 
L 631.937465 106.907827 
L 628.144525 107.154139 
L 622.903494 107.160034 
L 610.26801 106.418201 
L 603.704321 105.818412 
L 603.704321 105.818412 
" style="fill:none;stroke:#000000;stroke-linecap:square;stroke-opacity:0.7;stroke-width:1.2;"/>
   </g>
   <g id="line2d_25">
    <path clip-path="url(#p585f54a930)" d="M 638.600344 64.783686 
L 639.133893 66.698434 
L 638.15734 68.207382 
L 636.452175 68.719848 
L 633.137292 68.948525 
L 630.035727 68.887353 
L 622.957256 68.683078 
L 621.122869 68.819633 
L 619.571751 69.170935 
L 618.652019 69.635995 
L 617.970246 70.397417 
L 617.706047 71.373868 
L 617.852244 72.682794 
L 618.667124 74.726168 
L 618.992556 75.32218 
L 620.882302 78.087944 
L 621.777001 79.165691 
L 624.422184 81.776097 
L 626.006704 82.941331 
L 627.192769 83.591861 
L 627.676221 83.79497 
L 629.156254 84.159838 
L 629.740595 84.182868 
L 630.966618 83.970051 
L 631.715797 83.643108 
L 632.886904 82.787536 
L 633.809023 81.782235 
L 634.597742 80.665632 
L 635.800312 78.464598 
L 636.891976 75.894529 
L 638.235519 71.86916 
L 639.284865 67.872353 
L 640.135135 63.745798 
L 640.784347 59.364595 
L 641.072383 56.098696 
L 641.134328 52.609789 
L 640.962505 50.224753 
L 640.573307 48.149534 
L 640.022898 46.656054 
L 639.55581 45.909213 
L 639.048274 45.398549 
L 638.34312 45.019055 
L 637.395135 44.874701 
L 636.28958 44.965803 
L 634.294322 45.158289 
L 633.225504 45.009224 
L 632.990067 44.903852 
L 634.004891 45.346979 
L 635.44233 46.254854 
L 637.682263 47.910854 
L 640.877466 50.585841 
L 644.56476 54.011082 
L 648.284285 57.806078 
L 650.609073 60.379423 
L 653.483968 63.876813 
L 655.368731 66.510759 
L 656.538675 68.4636 
L 657.289805 70.097714 
L 657.665447 71.488787 
L 657.693764 72.371591 
L 657.636717 72.709873 
L 657.162004 73.610577 
L 655.844832 74.338045 
L 654.516414 74.509544 
L 652.628799 74.364756 
L 651.603815 74.159966 
L 648.954703 73.300398 
L 647.231687 72.488303 
L 645.980501 71.759163 
L 643.599489 69.990734 
L 641.319831 67.838182 
L 638.670843 65.354158 
L 637.158877 64.216684 
L 636.20866 63.605423 
L 634.617082 62.720814 
L 631.077932 61.179981 
L 627.454334 59.986723 
L 620.557124 58.379683 
L 615.683782 57.632865 
L 612.313773 57.274897 
L 604.4257 56.89457 
L 593.045837 57.380879 
L 593.045837 57.380879 
" style="fill:none;stroke:#000000;stroke-linecap:square;stroke-opacity:0.7;stroke-width:1.2;"/>
   </g>
  </g>
 </g>
 <defs>
  <clipPath id="p585f54a930">
   <rect height="262.08" width="694.08" x="12.96" y="12.96"/>
  </clipPath>
 </defs>
</svg>
