<?xml version="1.0" encoding="utf-8" standalone="no"?>
<!DOCTYPE svg PUBLIC "-//W3C//DTD SVG 1.1//EN"
  "http://www.w3.org/Graphics/SVG/1.1/DTD/svg11.dtd">
<!-- Created with matplotlib (https://matplotlib.org/) -->
<svg height="288pt" version="1.1" viewBox="0 0 720 288" width="720pt" xmlns="http://www.w3.org/2000/svg" xmlns:xlink="http://www.w3.org/1999/xlink">
 <metadata>
  <rdf:RDF xmlns:cc="http://creativecommons.org/ns#" xmlns:dc="http://purl.org/dc/elements/1.1/" xmlns:rdf="http://www.w3.org/1999/02/22-rdf-syntax-ns#">
   <cc:Work>
    <dc:type rdf:resource="http://purl.org/dc/dcmitype/StillImage"/>
    <dc:date>2020-11-14T04:22:19.242282</dc:date>
    <dc:format>image/svg+xml</dc:format>
    <dc:creator>
     <cc:Agent>
      <dc:title>Matplotlib v3.3.2, https://matplotlib.org/</dc:title>
     </cc:Agent>
    </dc:creator>
   </cc:Work>
  </rdf:RDF>
 </metadata>
 <defs>
  <style type="text/css">*{stroke-linecap:butt;stroke-linejoin:round;}</style>
 </defs>
 <g id="figure_1">
  <g id="patch_1">
   <path d="M 0 288 
L 720 288 
L 720 0 
L 0 0 
z
" style="fill:#ffffff;"/>
  </g>
  <g id="axes_1">
   <g id="line2d_1">
    <path clip-path="url(#p50b1e1782d)" d="M 87.197504 230.379651 
L 76.844149 223.46563 
L 65.686083 214.2681 
L 64.039616 212.324736 
L 62.106423 208.45908 
L 62.139856 206.312182 
L 62.333544 205.720879 
L 63.212447 204.264878 
L 64.445799 203.039373 
L 68.320793 200.626756 
L 69.399888 200.109432 
L 73.035311 198.580464 
L 82.59907 195.235726 
L 90.40847 192.831909 
L 93.693066 192.002401 
L 94.670979 191.810545 
L 97.021812 191.577902 
L 98.154489 191.699431 
L 98.712447 191.878788 
L 99.377384 192.29245 
L 100.192491 193.605193 
L 100.408183 194.555546 
L 100.493017 195.39384 
L 100.435875 198.545586 
L 99.649113 209.901347 
L 99.632159 212.386658 
L 99.875666 217.352072 
L 100.316048 221.132869 
L 100.732862 224.841457 
L 100.67014 225.340753 
L 100.322487 225.853027 
L 99.567855 225.977724 
L 96.391227 225.77658 
L 96.235849 226.059102 
L 96.339985 226.410279 
L 96.52995 226.704915 
L 97.572319 227.77232 
L 99.437999 229.266047 
L 108.443208 236.112055 
L 111.310793 238.725166 
L 112.922348 240.407734 
L 115.09185 243.117959 
L 115.699183 244.049821 
L 116.644059 245.973052 
L 116.835622 246.848702 
L 116.761219 247.292541 
L 116.679818 247.398792 
L 116.459674 247.488224 
L 116.085012 247.411396 
L 115.555046 247.095013 
L 114.663356 246.271799 
L 113.336332 244.609657 
L 112.014503 242.53852 
L 110.093006 238.809943 
L 109.034425 236.349709 
L 107.601155 232.448535 
L 106.294203 228.15039 
L 104.985179 222.835041 
L 104.137672 218.376285 
L 103.891714 216.439855 
L 103.859574 214.447169 
L 104.030154 213.65451 
L 104.275866 213.237794 
L 104.752539 213.026212 
L 105.176302 213.175929 
L 105.549127 213.563929 
L 105.97571 215.721825 
L 105.623815 217.426885 
L 105.177524 218.601079 
L 104.387466 220.159275 
L 102.610718 222.834174 
L 100.197252 225.738442 
L 96.710325 229.265711 
L 88.907817 235.800205 
L 79.663132 242.293234 
L 64.181624 251.568901 
L 54.208727 256.886986 
L 54.208727 256.886986 
" style="fill:none;stroke:#000000;stroke-linecap:square;stroke-opacity:0.7;stroke-width:1.2;"/>
   </g>
   <g id="line2d_2">
    <path clip-path="url(#p50b1e1782d)" d="M 87.550335 181.123551 
L 87.105702 188.943363 
L 87.183507 190.989534 
L 87.524507 193.838071 
L 88.130497 195.789818 
L 88.637134 196.210523 
L 88.962495 195.940948 
L 89.276536 195.032259 
L 89.493394 193.151249 
L 89.453216 190.243448 
L 89.173176 187.612159 
L 88.826243 185.691916 
L 88.026339 182.914214 
L 87.66595 182.073177 
L 87.169543 181.202505 
L 86.194937 180.278157 
L 85.758894 180.161406 
L 85.125095 180.305782 
L 84.487597 180.844322 
L 84.306079 181.076994 
L 83.09882 183.846031 
L 82.60502 186.109162 
L 82.299336 188.886171 
L 82.244804 191.030408 
L 82.419407 193.947063 
L 82.555699 194.968181 
L 83.197772 197.800699 
L 83.849297 199.494077 
L 84.524922 200.692484 
L 84.915786 201.215806 
L 85.618696 201.924535 
L 86.599572 202.527201 
L 87.626405 202.784591 
L 88.406475 202.770647 
L 89.536655 202.474571 
L 90.859589 201.75839 
L 91.645516 201.157428 
L 93.427048 199.320656 
L 94.623006 197.693448 
L 95.428394 196.383247 
L 96.6884 193.818281 
L 97.334522 191.98314 
L 97.66511 190.36041 
L 97.696618 189.80946 
L 97.510446 188.70236 
L 97.049478 188.10298 
L 96.54415 187.860704 
L 95.38779 187.765186 
L 91.235434 187.985294 
L 90.151918 187.73275 
L 89.121964 187.248252 
L 88.577498 186.875643 
L 87.727724 186.110573 
L 86.553893 184.653374 
L 85.34444 182.657087 
L 84.153642 180.2503 
L 82.32542 175.924084 
L 80.592692 171.375348 
L 78.303935 164.74824 
L 77.240823 160.868745 
L 76.921782 158.867122 
L 76.931135 157.479933 
L 77.261443 156.422285 
L 77.896788 155.79361 
L 78.31459 155.621801 
L 79.879129 155.57603 
L 81.588534 156.001511 
L 83.525397 156.760278 
L 85.840838 157.887665 
L 88.982832 159.66037 
L 92.650201 161.979443 
L 96.438563 164.614695 
L 99.703335 167.099417 
L 103.423498 170.289969 
L 104.443622 171.277469 
L 106.385166 173.435346 
L 107.431318 174.936105 
L 108.147843 176.502019 
L 108.333885 177.88135 
L 108.227453 178.528231 
L 108.001369 179.102963 
L 107.542971 179.779896 
L 106.275051 180.845769 
L 104.253274 181.832728 
L 102.621586 182.374902 
L 99.416583 183.105091 
L 96.051202 183.560138 
L 91.332087 183.721209 
L 89.500459 183.580748 
L 88.317536 183.389886 
L 85.561481 182.272613 
L 84.770993 181.446595 
L 84.363088 180.656111 
L 84.135093 179.857608 
L 83.891739 177.600613 
L 83.4906 174.390749 
L 82.733471 172.144675 
L 81.147531 169.567811 
L 78.92178 167.225621 
L 74.026527 163.735058 
L 74.026527 163.735058 
" style="fill:none;stroke:#000000;stroke-linecap:square;stroke-opacity:0.7;stroke-width:1.2;"/>
   </g>
   <g id="line2d_3">
    <path clip-path="url(#p50b1e1782d)" d="M 76.781008 134.91525 
L 79.198906 137.867071 
L 80.498992 139.243787 
L 82.502453 141.007541 
L 84.547796 142.237316 
L 85.581002 142.574086 
L 86.727304 142.66218 
L 87.677384 142.457699 
L 88.329705 142.142775 
L 89.272391 141.372444 
L 89.788306 140.655657 
L 89.954841 139.905337 
L 89.782623 139.230349 
L 89.355903 138.081343 
L 89.576253 138.107724 
L 90.204122 138.462878 
L 98.569559 144.016135 
L 98.778386 144.349934 
L 98.573508 144.535727 
L 97.705085 144.679459 
L 86.112453 145.569396 
L 83.89984 146.010072 
L 82.672493 146.463313 
L 82.351074 146.791818 
L 82.361239 147.008683 
L 82.649266 147.347104 
L 83.725214 148.031679 
L 84.236422 148.470686 
L 84.199963 148.576209 
L 83.772594 148.665578 
L 82.519576 148.57961 
L 75.433536 147.767566 
L 74.432202 148.000785 
L 73.985698 148.370172 
L 73.889211 148.574175 
L 73.855884 149.041407 
L 73.975856 149.495583 
L 74.563928 150.516154 
L 75.500625 151.593927 
L 76.563628 152.569336 
L 78.917915 154.293332 
L 81.02151 155.513546 
L 83.752613 156.755037 
L 84.996597 157.202935 
L 87.4806 157.876978 
L 90.296414 158.257009 
L 92.350657 158.228366 
L 94.086015 157.946855 
L 95.461067 157.501494 
L 96.647906 156.897709 
L 97.850444 155.974415 
L 98.537715 155.223192 
L 99.112195 154.384429 
L 99.523705 153.582934 
L 99.922021 152.493443 
L 100.221382 151.129385 
L 100.358849 148.843305 
L 100.015848 145.724734 
L 99.323815 142.971037 
L 98.21623 140.014873 
L 97.257735 138.073356 
L 96.485024 136.779858 
L 95.127961 134.961657 
L 93.492643 133.374354 
L 91.4561 132.075077 
L 90.235476 131.557179 
L 88.239161 131.004964 
L 85.147723 130.628034 
L 82.056568 130.597609 
L 78.072729 130.838541 
L 68.402351 131.986754 
L 44.509091 135.408693 
L 44.509091 135.408693 
" style="fill:none;stroke:#000000;stroke-linecap:square;stroke-opacity:0.7;stroke-width:1.2;"/>
   </g>
   <g id="line2d_4">
    <path clip-path="url(#p50b1e1782d)" d="M 60.334936 94.064845 
L 63.61935 107.423396 
L 68.392124 112.402927 
L 71.011011 113.452243 
L 74.917711 113.972788 
L 78.459572 113.777412 
L 81.038244 113.376155 
L 85.552771 112.326971 
L 89.630385 111.12301 
L 93.989298 109.573514 
L 96.402651 108.385525 
L 97.635341 107.391634 
L 98.037965 106.884998 
L 98.393412 106.244799 
L 98.786923 104.899882 
L 98.943676 102.372236 
L 98.789697 95.692478 
L 99.043755 92.357141 
L 99.297175 90.999853 
L 99.728024 89.514622 
L 100.553905 87.747768 
L 101.141433 86.893819 
L 102.173813 85.81622 
L 103.485258 84.909001 
L 104.679598 84.358907 
L 106.1259 83.92404 
L 108.612064 83.565193 
L 111.189311 83.529094 
L 113.756869 83.718772 
L 116.792364 84.166778 
L 119.358697 84.769306 
L 120.940858 85.387435 
L 121.756548 85.999559 
L 122.066636 86.503753 
L 122.189251 87.248068 
L 122.089837 88.064143 
L 121.482785 90.16707 
L 119.854729 95.035089 
L 119.430336 95.400345 
L 118.977096 95.384355 
L 118.307068 95.029903 
L 115.072379 92.630526 
L 113.702011 92.011783 
L 112.781514 91.822631 
L 111.94088 91.818621 
L 110.742411 92.083051 
L 109.51538 92.648675 
L 107.925335 93.737722 
L 106.161966 95.278894 
L 102.878119 98.637721 
L 97.119558 104.675966 
L 94.761027 106.884018 
L 93.445747 108.004264 
L 90.522728 110.151345 
L 88.039354 111.556003 
L 86.191993 112.330271 
L 85.256803 112.631916 
L 83.670067 113.004618 
L 81.46596 113.237614 
L 79.097767 113.13706 
L 77.735787 112.925862 
L 75.797433 112.447347 
L 72.581645 111.237628 
L 71.337276 110.642876 
L 68.17057 108.83242 
L 65.474498 106.943293 
L 64.774903 106.391974 
L 61.099395 102.768986 
L 60.32533 101.609109 
L 59.76197 99.966638 
L 59.771458 99.534575 
L 59.966336 98.936117 
L 60.18227 98.637355 
L 60.560182 98.319612 
L 61.185457 98.024439 
L 62.392314 97.806426 
L 63.686872 97.844347 
L 65.094839 98.10019 
L 67.144075 98.833914 
L 68.491209 99.674475 
L 68.65607 99.97785 
L 68.65607 99.97785 
" style="fill:none;stroke:#000000;stroke-linecap:square;stroke-opacity:0.7;stroke-width:1.2;"/>
   </g>
   <g id="line2d_5">
    <path clip-path="url(#p50b1e1782d)" d="M 82.498347 62.292835 
L 75.841789 65.413447 
L 73.132085 66.333918 
L 70.849061 66.560027 
L 69.942465 66.201348 
L 69.082467 64.468775 
L 68.993102 61.50402 
L 69.134573 56.799017 
L 68.983851 53.482332 
L 68.744722 51.682132 
L 67.922906 48.521004 
L 66.986159 46.578687 
L 66.329308 45.734609 
L 65.702741 45.282083 
L 65.323046 45.247742 
L 65.060707 45.520661 
L 65.033747 46.289848 
L 65.345504 47.329961 
L 66.331016 49.171259 
L 67.02737 50.170967 
L 69.115097 52.607036 
L 70.643624 54.08749 
L 73.016999 56.067706 
L 75.403887 57.763117 
L 77.503528 59.050457 
L 80.248196 60.473161 
L 83.290044 61.719415 
L 85.113205 62.298374 
L 87.567399 62.869272 
L 89.884158 63.171466 
L 91.525612 63.231238 
L 93.062667 63.156408 
L 95.498987 62.730486 
L 97.329564 62.092638 
L 98.535694 61.463583 
L 99.848777 60.487913 
L 100.744119 59.513738 
L 101.231983 58.754625 
L 101.750459 57.214205 
L 101.747579 56.159102 
L 101.634944 55.671596 
L 101.37302 55.061683 
L 100.618415 54.139503 
L 100.016723 53.707058 
L 99.153425 53.304667 
L 97.672569 52.963154 
L 96.103649 52.898657 
L 94.029728 53.104945 
L 89.088426 53.87723 
L 88.05166 53.740016 
L 87.273964 53.354504 
L 86.904453 52.998241 
L 86.44484 52.109556 
L 86.37738 51.354065 
L 86.624676 50.952696 
L 86.885797 50.981455 
L 87.284156 51.296347 
L 88.068078 52.429578 
L 89.001061 54.288155 
L 91.814161 60.251522 
L 92.822336 61.695581 
L 93.375822 62.273585 
L 94.465658 63.003953 
L 95.533582 63.257346 
L 96.25615 63.194513 
L 97.030519 62.915537 
L 97.899621 62.285845 
L 98.388664 61.697777 
L 98.859977 60.69734 
L 98.979032 60.105935 
L 98.845364 58.703725 
L 98.188884 57.425116 
L 97.565796 56.720927 
L 96.023337 55.5872 
L 93.33948 54.459654 
L 92.203038 54.155345 
L 89.312315 53.674456 
L 87.73065 53.548681 
L 83.674961 53.559277 
L 80.46252 53.843202 
L 77.867226 54.221806 
L 73.858789 55.040459 
L 69.200044 56.326722 
L 66.427946 57.2655 
L 63.236787 58.528332 
L 59.981462 60.082594 
L 57.911602 61.301845 
L 56.480413 62.367097 
L 55.515105 63.369271 
L 55.047457 64.248098 
L 55.295574 65.651098 
L 56.449927 66.626467 
L 56.449927 66.626467 
" style="fill:none;stroke:#000000;stroke-linecap:square;stroke-opacity:0.7;stroke-width:1.2;"/>
   </g>
   <g id="line2d_6">
    <path clip-path="url(#p50b1e1782d)" d="M 206.141383 210.750325 
L 203.907771 226.588566 
L 202.380031 234.990015 
L 200.377967 243.88869 
L 199.708458 246.922274 
L 199.825868 246.99623 
L 200.144637 246.684356 
L 201.787643 244.575647 
L 207.392206 238.111619 
L 212.092284 233.532968 
L 215.829799 230.272631 
L 219.553582 227.295455 
L 224.577235 223.662419 
L 227.571137 221.709215 
L 231.21199 219.595139 
L 234.023149 218.214791 
L 237.485766 216.505671 
L 240.211236 214.93203 
L 244.17758 212.365219 
L 247.430085 209.987732 
L 249.287614 208.457895 
L 251.162051 206.658263 
L 251.913533 205.759075 
L 252.359608 205.026489 
L 252.462012 204.621341 
L 252.235702 204.366922 
L 251.60754 204.520761 
L 250.829355 204.98146 
L 249.455751 206.129343 
L 247.907125 207.794876 
L 246.867419 209.115873 
L 245.045716 211.845195 
L 243.44711 214.74391 
L 241.965905 217.967673 
L 240.635235 221.472408 
L 239.125066 226.099783 
L 239.098729 225.992313 
L 239.102658 224.404034 
L 239.389117 217.067489 
L 239.648653 215.956816 
L 239.883673 215.712995 
L 240.138368 215.775296 
L 240.403754 216.045272 
L 240.947628 217.001231 
L 241.339777 217.936993 
L 242.278318 220.967909 
L 242.822441 223.49826 
L 243.209906 226.334083 
L 243.339595 229.063216 
L 243.281278 230.655951 
L 242.979866 232.879497 
L 242.268049 235.162051 
L 241.420519 236.627968 
L 240.84293 237.290931 
L 239.72762 238.133799 
L 238.661901 238.58729 
L 237.969039 238.752846 
L 237.018742 238.853174 
L 233.231342 238.276534 
L 231.593038 237.707233 
L 228.948537 236.534412 
L 225.916218 234.92737 
L 221.489326 232.274821 
L 217.698975 229.797799 
L 214.6662 227.658351 
L 212.383013 225.909197 
L 208.858818 222.815929 
L 208.039829 221.991869 
L 205.856649 219.471789 
L 202.666898 213.903909 
L 201.735632 210.743223 
L 201.735632 210.743223 
" style="fill:none;stroke:#000000;stroke-linecap:square;stroke-opacity:0.7;stroke-width:1.2;"/>
   </g>
   <g id="line2d_7">
    <path clip-path="url(#p50b1e1782d)" d="M 209.569701 176.122439 
L 203.046395 180.385018 
L 195.117798 185.32185 
L 193.67788 186.107432 
L 192.467255 186.541277 
L 192.258385 186.498529 
L 192.157931 186.122099 
L 192.30999 185.626073 
L 193.587005 183.257059 
L 197.215302 177.475865 
L 199.334649 174.39619 
L 200.502572 173.030315 
L 201.611455 172.145989 
L 202.546353 171.76544 
L 203.492029 171.675417 
L 204.79737 171.882069 
L 206.280863 172.370151 
L 209.578616 173.774228 
L 216.140878 176.791879 
L 216.010141 176.897466 
L 213.892821 177.539814 
L 213.623744 177.958949 
L 213.627856 178.473423 
L 213.897647 179.1321 
L 214.579179 180.104539 
L 216.00678 181.646266 
L 218.858291 184.27206 
L 225.333761 190.088169 
L 225.509626 190.463513 
L 225.344772 190.614141 
L 224.264592 190.790722 
L 223.166063 191.078853 
L 222.00362 191.611857 
L 220.705577 192.478595 
L 219.161977 193.819248 
L 216.844413 196.206749 
L 214.719608 198.38882 
L 213.438835 199.471175 
L 212.220986 200.138388 
L 211.462444 200.256103 
L 211.090514 200.190339 
L 210.265317 199.61855 
L 209.770136 198.869143 
L 209.388711 197.996033 
L 208.730772 195.793855 
L 207.592941 191.745314 
L 206.924404 190.277686 
L 206.458715 189.574969 
L 205.689408 188.789775 
L 205.105318 188.407691 
L 204.21717 188.061247 
L 203.289101 187.906184 
L 202.39792 187.893075 
L 200.866212 188.076742 
L 198.118836 188.781838 
L 194.356912 190.081566 
L 188.575076 192.128311 
L 184.297368 193.344217 
L 181.746107 193.849264 
L 179.926663 194.07494 
L 176.17003 194.075314 
L 172.605106 193.258576 
L 170.06502 191.923763 
L 170.06502 191.923763 
" style="fill:none;stroke:#000000;stroke-linecap:square;stroke-opacity:0.7;stroke-width:1.2;"/>
   </g>
   <g id="line2d_8">
    <path clip-path="url(#p50b1e1782d)" d="M 247.497735 134.854991 
L 240.505296 136.352953 
L 236.431158 137.087408 
L 231.424079 137.677215 
L 231.673294 137.580251 
L 235.103971 136.879869 
L 239.538102 136.075953 
L 242.253163 135.861986 
L 243.266884 135.988611 
L 244.364045 136.451754 
L 245.030563 137.062225 
L 245.906421 138.67316 
L 246.557893 140.923452 
L 248.717141 150.209831 
L 249.192069 151.712548 
L 250.525066 155.114838 
L 251.866726 157.687794 
L 252.582249 158.806814 
L 254.048515 160.670024 
L 255.48618 162.031405 
L 256.824118 162.946131 
L 258.740207 163.726671 
L 260.01224 163.917513 
L 261.042992 163.880749 
L 262.945823 163.338003 
L 263.43397 163.090992 
L 264.738952 162.182086 
L 265.737048 161.200791 
L 266.889183 159.662306 
L 267.676272 158.259245 
L 268.759798 155.501506 
L 268.945394 154.85686 
L 269.46105 152.41834 
L 269.646959 150.926999 
L 269.736351 147.313502 
L 269.615701 145.657596 
L 269.036711 142.175691 
L 268.541345 140.306017 
L 267.651699 137.752543 
L 266.283283 134.732142 
L 264.47282 131.478584 
L 260.373657 124.533806 
L 259.097243 121.732766 
L 258.02575 118.67112 
L 256.377916 113.435774 
L 255.426787 111.402287 
L 254.258837 109.763697 
L 253.571748 109.067908 
L 252.139051 107.999758 
L 251.154866 107.466679 
L 248.746554 106.586689 
L 247.138775 106.23263 
L 245.655778 106.038833 
L 244.279005 105.978991 
L 242.45606 106.169102 
L 241.621222 106.478098 
L 241.013261 106.980183 
L 240.670822 107.721603 
L 240.600272 108.640153 
L 240.784157 110.057734 
L 242.380545 118.478585 
L 242.468063 120.963144 
L 242.264866 123.452877 
L 241.681544 125.926449 
L 241.05788 127.455087 
L 240.483314 128.481632 
L 239.450358 129.856195 
L 238.141387 131.155349 
L 235.441472 133.609852 
L 234.402655 134.765758 
L 230.724209 139.274452 
L 227.658208 142.527637 
L 224.327701 145.489677 
L 206.61499 156.985474 
L 206.61499 156.985474 
" style="fill:none;stroke:#000000;stroke-linecap:square;stroke-opacity:0.7;stroke-width:1.2;"/>
   </g>
   <g id="line2d_9">
    <path clip-path="url(#p50b1e1782d)" d="M 218.656385 90.782035 
L 219.513501 93.349227 
L 220.350866 94.721909 
L 222.079078 95.773879 
L 223.275869 95.740087 
L 224.830738 95.273407 
L 227.376767 94.42497 
L 227.860336 94.346184 
L 228.931732 94.35721 
L 229.571514 94.53104 
L 230.431514 95.108767 
L 230.83159 95.762908 
L 230.914656 96.287796 
L 230.841905 96.709664 
L 230.624315 97.142768 
L 230.312099 97.501893 
L 229.129285 98.246321 
L 227.584948 98.796898 
L 224.987407 99.64838 
L 224.143739 100.275997 
L 223.930075 100.787187 
L 223.962698 101.295263 
L 224.316087 102.076977 
L 225.478188 103.411411 
L 227.311401 104.801564 
L 228.609644 105.529096 
L 230.086704 106.138785 
L 231.709007 106.518752 
L 233.01861 106.549612 
L 233.875509 106.390603 
L 234.562175 106.12389 
L 235.508759 105.456968 
L 236.073646 104.79145 
L 236.727275 103.478562 
L 237.066897 102.00835 
L 237.129666 100.565851 
L 236.970347 99.333082 
L 236.722058 98.645864 
L 236.470203 98.394695 
L 236.25247 98.457937 
L 236.036122 98.816384 
L 235.822464 99.601826 
L 235.592774 101.494211 
L 235.408832 105.28782 
L 235.162964 108.896694 
L 234.831866 110.89031 
L 234.526525 111.963008 
L 234.208219 112.747204 
L 233.357013 114.061904 
L 232.414251 114.8894 
L 232.062976 115.106267 
L 230.723396 115.665593 
L 229.053814 116.010297 
L 226.790515 116.168504 
L 223.549889 116.132048 
L 217.225486 115.997014 
L 214.241183 116.193581 
L 213.529904 116.314162 
L 213.895821 116.172058 
L 215.217377 115.458481 
L 216.392406 114.594909 
L 217.530908 113.53622 
L 218.400046 112.55218 
L 219.46127 111.083807 
L 220.754895 108.698369 
L 221.617548 106.428622 
L 222.257293 103.800005 
L 222.481446 102.124363 
L 222.553957 100.88841 
L 222.479581 98.866289 
L 222.148613 97.100386 
L 221.785611 96.126995 
L 221.094973 95.106769 
L 220.550573 94.675887 
L 219.576117 94.322466 
L 218.844259 94.256188 
L 216.788826 94.438017 
L 213.153801 94.858054 
L 211.668958 94.889675 
L 208.190965 94.551878 
L 205.51897 93.908926 
L 202.489099 92.808275 
L 199.985929 91.623988 
L 196.648704 89.68573 
L 193.517958 87.513188 
L 193.517958 87.513188 
" style="fill:none;stroke:#000000;stroke-linecap:square;stroke-opacity:0.7;stroke-width:1.2;"/>
   </g>
   <g id="line2d_10">
    <path clip-path="url(#p50b1e1782d)" d="M 193.441429 31.113014 
L 193.951678 42.315069 
L 194.978002 43.888307 
L 196.311751 45.027829 
L 196.902036 45.36279 
L 198.766845 46.026749 
L 200.306776 46.285085 
L 203.317586 46.393589 
L 206.993564 46.4438 
L 208.631303 46.872287 
L 209.683649 47.568301 
L 210.546914 48.522879 
L 211.531579 50.035182 
L 213.022295 52.85473 
L 217.309125 61.405942 
L 219.522214 65.105044 
L 221.311807 67.539819 
L 222.947984 69.334071 
L 224.50814 70.686715 
L 225.606586 71.444256 
L 226.736752 72.06564 
L 228.430384 72.711987 
L 230.066164 73.024471 
L 231.443734 73.052295 
L 233.398856 72.705953 
L 234.77264 72.158322 
L 235.714922 71.604529 
L 236.729247 70.790904 
L 237.465536 69.98643 
L 238.333133 68.495616 
L 238.578249 67.532377 
L 238.539526 66.666115 
L 238.334788 66.139386 
L 237.969332 65.699774 
L 237.193288 65.295685 
L 236.061626 65.187409 
L 234.539008 65.465218 
L 233.136889 65.97159 
L 230.738266 67.157191 
L 226.531172 69.44403 
L 223.983128 70.488824 
L 222.499965 70.89668 
L 220.347783 71.2352 
L 218.150595 71.326958 
L 215.383842 71.184015 
L 213.036624 70.911586 
L 208.079062 70.057051 
L 204.563038 69.219699 
L 203.821505 68.880366 
L 203.885329 68.805495 
L 204.473902 68.748819 
L 206.088019 68.833055 
L 210.145005 69.288584 
L 218.934745 70.366898 
L 222.456188 70.584087 
L 225.572255 70.462249 
L 227.142806 70.165694 
L 228.465361 69.64442 
L 229.365564 68.956225 
L 229.585362 68.694527 
L 230.067972 67.749647 
L 230.283954 66.148773 
L 230.140284 64.458806 
L 229.481084 61.397797 
L 228.86632 59.526393 
L 228.016053 57.809832 
L 227.273271 56.842719 
L 226.290548 56.030759 
L 225.278717 55.55633 
L 224.50199 55.365724 
L 222.932362 55.310059 
L 220.39129 55.873173 
L 215.914553 58.140984 
L 214.383845 59.191046 
L 207.865635 64.843277 
L 203.064761 70.013307 
L 203.064761 70.013307 
" style="fill:none;stroke:#000000;stroke-linecap:square;stroke-opacity:0.7;stroke-width:1.2;"/>
   </g>
   <g id="line2d_11">
    <path clip-path="url(#p50b1e1782d)" d="M 352.865073 211.717096 
L 350.235075 213.018586 
L 348.346619 213.211978 
L 346.903308 212.516386 
L 344.44883 210.384736 
L 342.934264 209.358728 
L 341.528594 208.684938 
L 339.204376 208.030013 
L 337.959934 207.870091 
L 336.526029 207.831884 
L 334.847893 207.989605 
L 332.990251 208.497726 
L 332.069295 209.009037 
L 331.546212 209.582707 
L 331.40921 209.971261 
L 331.420709 210.390276 
L 331.638885 210.924294 
L 332.114194 211.528101 
L 333.958498 212.982848 
L 338.286233 215.610346 
L 340.997229 217.283871 
L 344.890205 220.010184 
L 346.934685 221.679723 
L 349.402304 224.013651 
L 351.778772 226.742072 
L 353.305622 228.900189 
L 354.538396 231.12589 
L 355.107744 232.716854 
L 355.150078 233.513124 
L 354.993915 233.840581 
L 354.682526 234.014304 
L 354.08759 234.020504 
L 353.227226 233.810921 
L 350.918238 232.907436 
L 346.577893 230.855423 
L 343.086019 228.964019 
L 340.110347 227.060754 
L 338.883446 226.146421 
L 336.766721 224.261174 
L 335.690436 223.047629 
L 334.592948 221.433966 
L 334.031162 220.271353 
L 333.520583 218.398981 
L 333.474386 216.745264 
L 333.71156 215.45382 
L 333.987997 214.648849 
L 334.853353 213.06289 
L 336.049903 211.651251 
L 337.363597 210.546309 
L 338.722395 209.689453 
L 340.439451 208.897024 
L 342.853582 208.207465 
L 344.886376 207.961078 
L 346.940822 208.014277 
L 348.785983 208.337974 
L 350.31332 208.829637 
L 352.033473 209.674147 
L 353.376102 210.601737 
L 354.825336 211.962016 
L 356.047398 213.537261 
L 356.734282 214.695105 
L 357.613954 216.707324 
L 358.195019 218.820677 
L 358.439743 220.472229 
L 358.507696 222.392339 
L 358.358211 224.183211 
L 358.080066 225.608766 
L 357.702622 226.86269 
L 356.725901 228.956099 
L 356.311943 229.601066 
L 354.944912 231.19569 
L 353.359807 232.405117 
L 351.855164 233.14878 
L 350.120387 233.657782 
L 348.203455 233.890089 
L 345.985517 233.846794 
L 344.888662 233.882221 
L 344.828302 233.999423 
L 344.918577 234.215656 
L 345.999505 235.397747 
L 351.309328 240.507664 
L 352.202139 241.168311 
L 352.583357 241.277746 
L 352.704605 241.089387 
L 352.391902 240.003229 
L 351.48615 238.187006 
L 350.205755 235.963025 
L 347.299104 231.352772 
L 340.064399 220.861625 
L 335.123139 214.114767 
L 328.320443 205.184629 
L 328.320443 205.184629 
" style="fill:none;stroke:#000000;stroke-linecap:square;stroke-opacity:0.7;stroke-width:1.2;"/>
   </g>
   <g id="line2d_12">
    <path clip-path="url(#p50b1e1782d)" d="M 328.733583 175.797674 
L 330.044757 183.805378 
L 330.48696 185.738005 
L 330.751628 186.275445 
L 330.991234 186.200635 
L 331.348429 185.343066 
L 332.193897 182.720133 
L 332.622896 181.636776 
L 333.467911 180.011937 
L 334.864022 178.350078 
L 336.63998 177.328437 
L 337.928349 177.044368 
L 339.031564 176.998524 
L 341.24793 177.25656 
L 344.229964 177.97761 
L 349.217719 179.232548 
L 351.31846 179.567652 
L 353.784238 179.728844 
L 356.632063 179.599404 
L 364.305079 178.860952 
L 366.380768 179.006138 
L 369.047647 179.417623 
L 368.602122 179.230915 
L 367.012046 178.842325 
L 365.679559 178.685839 
L 364.333098 178.75688 
L 364.004147 178.914165 
L 364.012158 179.053215 
L 364.446319 179.268705 
L 365.114809 179.401497 
L 367.012666 179.494516 
L 369.210692 179.358044 
L 372.759416 178.79068 
L 375.787762 178.025592 
L 378.679004 177.057425 
L 381.417159 175.888424 
L 383.131284 174.930974 
L 383.249404 174.811027 
L 383.118868 174.826777 
L 382.259119 175.237628 
L 380.13911 176.501395 
L 377.614503 178.237324 
L 374.688105 180.584806 
L 373.013432 182.209732 
L 372.003995 183.468658 
L 371.575251 184.480117 
L 371.700379 184.85003 
L 372.292009 185.017701 
L 373.357998 184.867303 
L 374.340898 184.677738 
L 374.9512 184.724993 
L 375.089963 184.895599 
L 374.969569 185.490911 
L 374.335421 186.467107 
L 371.732952 189.043106 
L 370.553358 189.934004 
L 368.181595 191.376013 
L 365.880092 192.392234 
L 364.480787 192.846197 
L 362.640775 193.272827 
L 359.990473 193.586218 
L 355.814572 193.50323 
L 352.429966 193.0708 
L 346.60152 191.923642 
L 338.586135 190.151365 
L 330.494853 188.582189 
L 326.544219 187.942454 
L 326.544219 187.942454 
" style="fill:none;stroke:#000000;stroke-linecap:square;stroke-opacity:0.7;stroke-width:1.2;"/>
   </g>
   <g id="line2d_13">
    <path clip-path="url(#p50b1e1782d)" d="M 340.096036 156.701161 
L 337.19899 156.989789 
L 333.605243 156.198128 
L 331.86121 154.949599 
L 331.361421 154.401377 
L 330.514708 153.135535 
L 330.032228 152.045746 
L 329.771107 150.919617 
L 329.819725 150.262656 
L 330.162975 149.687165 
L 330.699918 148.92111 
L 332.547826 145.819896 
L 333.589751 144.710663 
L 334.462699 144.041842 
L 336.186273 143.182621 
L 337.664879 142.778226 
L 339.203609 142.580038 
L 340.612982 142.544755 
L 343.081457 142.721505 
L 346.706306 143.324542 
L 358.64131 145.697461 
L 360.12004 145.987956 
L 360.265818 146.097127 
L 360.332376 146.481601 
L 360.044216 147.399222 
L 359.65808 148.867113 
L 359.527105 150.135544 
L 359.597185 151.490869 
L 359.955673 153.050579 
L 360.387171 154.103701 
L 360.985246 155.121417 
L 361.765126 156.069602 
L 362.663382 156.839619 
L 363.682062 157.409736 
L 364.54542 157.671596 
L 365.489611 157.709949 
L 366.137027 157.540572 
L 366.598072 157.262955 
L 367.120474 156.551264 
L 367.268576 155.760172 
L 367.158257 154.969575 
L 366.824888 154.133292 
L 366.378747 153.416192 
L 365.620343 152.526208 
L 364.361649 151.440254 
L 363.181292 150.653749 
L 361.603406 149.813647 
L 359.618361 148.98817 
L 357.166294 148.216416 
L 355.309849 147.767681 
L 351.429637 147.103827 
L 346.829721 146.623605 
L 342.922832 146.226946 
L 341.262643 145.886352 
L 340.545752 145.621747 
L 339.921921 145.237073 
L 339.442918 144.647785 
L 339.224964 143.881101 
L 339.276096 142.682318 
L 340.071982 138.081853 
L 339.899012 136.761049 
L 339.46011 135.834136 
L 338.676969 135.02121 
L 337.586005 134.396914 
L 336.085643 133.918377 
L 333.89619 133.589448 
L 332.436796 133.510363 
L 329.998815 133.540604 
L 325.886069 133.922396 
L 321.74238 134.682209 
L 320.124922 135.173128 
L 320.12137 135.358822 
L 321.215065 135.241309 
L 321.215065 135.241309 
" style="fill:none;stroke:#000000;stroke-linecap:square;stroke-opacity:0.7;stroke-width:1.2;"/>
   </g>
   <g id="line2d_14">
    <path clip-path="url(#p50b1e1782d)" d="M 366.163191 90.757914 
L 369.921451 95.361432 
L 374.451806 100.006436 
L 377.265761 102.327324 
L 381.421977 104.841043 
L 383.594689 105.656708 
L 386.241964 106.091902 
L 388.170496 105.902431 
L 388.805683 105.694034 
L 389.648235 105.104892 
L 389.717936 104.836188 
L 388.699137 104.431072 
L 386.930254 104.580207 
L 384.195782 105.161063 
L 379.675602 106.414366 
L 372.756296 108.350562 
L 370.538329 108.739988 
L 369.644161 108.736174 
L 368.990782 108.474874 
L 368.820448 108.200408 
L 368.868071 107.361475 
L 369.327737 106.21222 
L 372.09691 100.607553 
L 373.131072 97.564991 
L 373.581112 95.217242 
L 373.699554 93.37466 
L 373.473547 90.677723 
L 372.703153 87.878803 
L 371.779712 85.849286 
L 371.064639 84.623278 
L 368.993755 81.865212 
L 366.996937 79.807153 
L 363.955319 77.287501 
L 360.3726 74.916936 
L 357.070291 73.13896 
L 353.865463 71.735589 
L 352.226172 71.148648 
L 349.780397 70.503728 
L 348.374864 70.380554 
L 347.679675 70.567506 
L 347.561078 70.68183 
L 347.516137 71.229839 
L 347.760488 71.724369 
L 348.446556 72.590794 
L 349.994435 74.096851 
L 354.232739 77.643454 
L 360.959109 83.191606 
L 365.384663 87.177658 
L 368.556017 90.36849 
L 371.069257 93.235101 
L 372.666881 95.315822 
L 374.307366 97.829707 
L 375.388128 99.904381 
L 376.734683 102.709225 
L 376.952636 102.663291 
L 378.536346 101.735184 
L 379.985677 101.023324 
L 381.259448 100.612483 
L 382.257361 100.454438 
L 383.554232 100.505322 
L 384.958791 100.972272 
L 385.639899 101.403253 
L 386.408498 102.119691 
L 387.030444 102.977968 
L 387.562624 104.136459 
L 387.859202 105.623924 
L 387.748048 106.949015 
L 387.585918 107.43475 
L 387.015564 108.271106 
L 386.311818 108.69924 
L 385.377327 108.81285 
L 384.865939 108.729902 
L 384.16803 108.487249 
L 383.274219 107.990311 
L 381.443263 106.433232 
L 379.493678 104.171763 
L 373.103896 95.865683 
L 370.695088 93.281121 
L 367.145362 90.14179 
L 364.081752 87.951558 
L 361.472255 86.383589 
L 357.853895 84.569569 
L 347.787817 81.099529 
L 342.456216 79.934246 
L 342.456216 79.934246 
" style="fill:none;stroke:#000000;stroke-linecap:square;stroke-opacity:0.7;stroke-width:1.2;"/>
   </g>
   <g id="line2d_15">
    <path clip-path="url(#p50b1e1782d)" d="M 338.44265 50.759475 
L 337.148694 49.068942 
L 334.891582 47.680393 
L 334.367865 47.942664 
L 334.197834 48.281117 
L 334.1624 49.074624 
L 334.280957 49.617903 
L 334.723318 50.655636 
L 335.236518 51.446915 
L 336.577791 52.821356 
L 337.187318 53.257216 
L 339.11886 54.133452 
L 340.730131 54.400609 
L 342.094947 54.347494 
L 343.19309 54.132937 
L 345.145073 53.395466 
L 346.313214 52.746165 
L 347.897888 51.632132 
L 350.283414 49.502599 
L 352.935112 46.662368 
L 357.466417 41.598127 
L 360.023819 39.205421 
L 361.87389 37.842282 
L 363.505435 36.920966 
L 365.177158 36.250994 
L 365.838705 36.061349 
L 368.363416 35.723349 
L 370.062784 35.844145 
L 371.589148 36.215828 
L 372.499401 36.58196 
L 373.574679 37.218295 
L 374.423474 38.062659 
L 374.651403 38.530063 
L 374.691751 38.814124 
L 374.519196 39.28545 
L 374.066429 39.603141 
L 373.418533 39.773901 
L 372.220084 39.812057 
L 370.286534 39.571946 
L 366.47591 38.992675 
L 365.72272 39.142156 
L 365.364349 39.452884 
L 365.223912 39.833024 
L 365.245491 40.624174 
L 365.450575 41.451743 
L 366.205596 43.378744 
L 367.789203 46.621892 
L 371.110494 53.305716 
L 371.890587 55.365782 
L 372.205866 56.807965 
L 372.186445 57.822521 
L 371.95858 58.507767 
L 371.632353 58.98311 
L 371.050708 59.50275 
L 369.843186 60.218415 
L 367.36754 61.598327 
L 365.981294 62.646792 
L 364.601723 64.008203 
L 363.062304 65.593519 
L 362.136313 66.152737 
L 361.365909 66.32561 
L 360.536292 66.298524 
L 359.80206 66.151747 
L 357.895683 65.462295 
L 355.319156 64.178258 
L 350.388831 61.308574 
L 342.910699 56.813006 
L 338.377689 54.350109 
L 335.075832 52.880549 
L 333.12798 52.237213 
L 329.925082 51.804824 
L 328.058617 52.152026 
L 326.389108 53.091267 
L 324.529175 55.185668 
L 323.657608 56.639977 
L 322.150314 59.834986 
L 316.081423 74.663637 
L 316.081423 74.663637 
" style="fill:none;stroke:#000000;stroke-linecap:square;stroke-opacity:0.7;stroke-width:1.2;"/>
   </g>
   <g id="line2d_16">
    <path clip-path="url(#p50b1e1782d)" d="M 481.661457 226.461981 
L 484.785577 225.895914 
L 491.770813 225.421491 
L 495.881479 226.150756 
L 497.024685 226.565046 
L 499.235238 227.666271 
L 502.594586 229.757288 
L 504.058848 230.441443 
L 505.375789 230.734227 
L 506.813208 230.649264 
L 508.072954 230.238364 
L 509.145296 229.661456 
L 511.024161 228.181145 
L 512.425633 226.672795 
L 513.486259 225.240296 
L 514.566901 223.362337 
L 515.177849 221.916833 
L 515.628652 220.324769 
L 515.866732 218.204869 
L 515.790615 216.514878 
L 515.146045 210.212647 
L 515.351056 207.845758 
L 515.859684 205.255649 
L 516.66329 202.321925 
L 517.191598 200.903093 
L 517.278563 200.921372 
L 517.360267 201.495492 
L 517.788266 207.323127 
L 518.38146 211.491212 
L 519.218592 215.607475 
L 520.356859 219.764203 
L 521.505458 222.948887 
L 522.432941 224.962045 
L 523.65478 226.95616 
L 524.498378 227.921707 
L 525.394113 228.580579 
L 526.246028 228.84038 
L 526.685421 228.821837 
L 527.523059 228.448037 
L 528.202596 227.706879 
L 528.529499 227.119097 
L 528.927215 225.894769 
L 529.052473 224.678691 
L 528.919204 223.471685 
L 528.696023 222.774541 
L 528.478823 222.333371 
L 528.061242 221.749852 
L 527.353251 221.139104 
L 527.027553 220.949642 
L 525.642885 220.508032 
L 524.77356 220.426757 
L 523.323642 220.500977 
L 521.537033 220.837585 
L 518.629193 221.736818 
L 514.412133 223.20673 
L 513.158866 223.356217 
L 512.589884 223.243632 
L 511.904654 222.801506 
L 511.313114 222.011426 
L 509.486772 218.85631 
L 509.058131 218.775603 
L 508.695029 219.122456 
L 508.317477 219.868415 
L 505.60485 226.838728 
L 504.269059 229.390866 
L 502.409073 232.236214 
L 499.758232 235.350981 
L 497.023344 237.777645 
L 492.01175 240.799103 
L 490.588126 241.391984 
L 488.513402 242.076124 
L 482.837612 242.966938 
L 476.682653 242.446636 
L 464.465084 236.748799 
L 464.465084 236.748799 
" style="fill:none;stroke:#000000;stroke-linecap:square;stroke-opacity:0.7;stroke-width:1.2;"/>
   </g>
   <g id="line2d_17">
    <path clip-path="url(#p50b1e1782d)" d="M 482.619271 162.902105 
L 505.492387 162.3412 
L 513.076962 162.010528 
L 524.10535 161.935306 
L 525.294913 162.059646 
L 527.431849 162.493484 
L 528.335805 162.817151 
L 529.305653 163.337255 
L 531.124246 165.658562 
L 531.51814 167.219987 
L 531.565946 171.247163 
L 531.247293 174.017895 
L 530.341872 179.327587 
L 528.687886 188.24296 
L 527.96314 193.409843 
L 527.734879 196.315552 
L 527.75409 199.796651 
L 527.906471 201.247562 
L 528.241778 202.898882 
L 528.685935 204.192931 
L 529.195331 205.174185 
L 530.823886 206.80701 
L 531.466219 207.113617 
L 532.778026 207.390626 
L 534.028916 207.331841 
L 535.264756 207.036208 
L 537.591454 205.960675 
L 539.287299 204.798545 
L 540.906872 203.394346 
L 542.607672 201.571855 
L 543.920618 199.854767 
L 545.091731 197.988343 
L 546.14591 195.835342 
L 546.84695 193.844438 
L 547.324469 191.502399 
L 547.419754 189.986753 
L 547.294742 188.195864 
L 546.998571 186.793462 
L 546.283648 184.901373 
L 545.146749 183.023645 
L 543.961318 181.637074 
L 542.543518 180.376584 
L 541.173083 179.421899 
L 539.642704 178.572409 
L 537.213775 177.56665 
L 535.954275 177.173192 
L 534.500788 176.806531 
L 530.765952 176.200321 
L 527.190249 175.943224 
L 522.383903 175.87781 
L 514.269804 175.828586 
L 511.257427 175.624926 
L 511.817712 175.796638 
L 521.492743 178.408665 
L 524.504118 178.984439 
L 528.338102 179.357367 
L 530.668263 179.299074 
L 531.911235 179.147698 
L 533.76632 178.716586 
L 535.238579 178.139992 
L 536.639552 177.30046 
L 537.57163 176.475897 
L 538.239886 175.605681 
L 538.493432 175.118894 
L 538.729078 174.155454 
L 538.626082 173.530357 
L 537.827014 172.817445 
L 536.935677 172.703968 
L 535.508047 172.946317 
L 532.411361 174.216059 
L 529.23179 175.974798 
L 520.248226 181.308432 
L 517.329046 182.799321 
L 515.341144 183.673732 
L 513.514001 184.355065 
L 509.864082 185.311066 
L 508.239908 185.549163 
L 505.504227 185.679043 
L 504.141804 185.607641 
L 501.394589 185.028838 
L 500.372843 184.376609 
L 500.108622 183.998989 
L 499.958196 183.432499 
L 501.618392 180.027128 
L 501.618392 180.027128 
" style="fill:none;stroke:#000000;stroke-linecap:square;stroke-opacity:0.7;stroke-width:1.2;"/>
   </g>
   <g id="line2d_18">
    <path clip-path="url(#p50b1e1782d)" d="M 492.147756 133.816899 
L 494.701277 137.431418 
L 495.264389 139.091489 
L 495.138066 140.504394 
L 494.893748 141.084988 
L 494.151377 142.109603 
L 493.355875 142.836384 
L 492.014404 143.734376 
L 491.066513 144.23467 
L 489.603607 144.873146 
L 486.089429 145.989465 
L 483.7559 146.500434 
L 482.489185 146.703508 
L 483.821957 146.596092 
L 488.317698 146.445725 
L 492.828986 146.558046 
L 496.579147 146.897698 
L 498.880114 147.255496 
L 502.11419 148.030002 
L 503.983982 148.686267 
L 505.631559 149.469095 
L 506.677894 150.140763 
L 507.454175 150.841056 
L 507.862669 151.492716 
L 507.892512 151.955341 
L 507.777492 152.17148 
L 507.436352 152.409993 
L 506.97845 152.530731 
L 505.773911 152.514054 
L 504.946306 152.363853 
L 503.186949 151.817214 
L 501.465345 151.04399 
L 500.202013 150.335704 
L 498.665622 149.301452 
L 497.171238 148.08123 
L 495.543548 146.434593 
L 494.073169 144.517432 
L 492.985617 142.640807 
L 492.220764 140.850795 
L 491.625921 138.778863 
L 491.370289 137.267157 
L 491.248558 134.934763 
L 491.397823 132.906297 
L 491.733847 131.061152 
L 492.583326 128.33338 
L 493.433866 126.444315 
L 494.387195 124.78066 
L 495.759918 122.905843 
L 497.311507 121.357807 
L 498.046903 120.84296 
L 498.935321 120.48086 
L 499.582884 120.520079 
L 500.059474 120.922966 
L 500.309278 121.49957 
L 500.493073 122.973663 
L 500.421175 125.162274 
L 499.155116 141.323364 
L 498.578382 154.85544 
L 498.196603 156.740812 
L 497.62727 158.117345 
L 497.148512 158.739027 
L 496.37923 159.247878 
L 495.995924 159.363591 
L 494.993025 159.40135 
L 494.025188 159.198999 
L 492.273213 158.484203 
L 489.929642 157.134756 
L 487.168147 155.258467 
L 480.302001 150.39231 
L 477.706957 148.907097 
L 476.460444 148.442884 
L 475.613093 148.370364 
L 475.362358 148.448251 
L 475.083339 148.792516 
L 475.123691 149.301782 
L 475.376406 149.798012 
L 475.985164 150.47243 
L 476.667703 150.966379 
L 477.726313 151.458296 
L 478.657828 151.699666 
L 480.724457 151.737238 
L 483.37492 150.888378 
L 484.944163 149.894942 
L 487.564758 147.250456 
L 490.107781 142.976742 
L 491.661857 138.852986 
L 492.695601 134.710439 
L 493.656096 127.406535 
L 493.656096 127.406535 
" style="fill:none;stroke:#000000;stroke-linecap:square;stroke-opacity:0.7;stroke-width:1.2;"/>
   </g>
   <g id="line2d_19">
    <path clip-path="url(#p50b1e1782d)" d="M 514.271792 78.022908 
L 509.341247 81.359901 
L 507.771922 82.86135 
L 503.269944 87.672912 
L 502.557991 88.170806 
L 501.768076 88.486485 
L 500.37263 88.348668 
L 499.603757 87.911113 
L 498.499616 86.919517 
L 496.869165 84.900127 
L 494.355795 81.117442 
L 491.73966 77.191936 
L 491.522257 77.04048 
L 491.524 77.130712 
L 491.783759 77.778871 
L 493.075001 80.082724 
L 494.606277 82.415951 
L 496.376613 84.820837 
L 498.845922 87.773901 
L 501.143337 90.158939 
L 503.90364 92.599434 
L 506.311106 94.360609 
L 508.975688 95.905583 
L 511.383747 96.912304 
L 513.055693 97.367024 
L 515.145273 97.593155 
L 516.678985 97.434945 
L 517.898917 96.997293 
L 518.861953 96.26132 
L 519.41189 95.375981 
L 519.521802 95.033477 
L 519.616052 94.308567 
L 519.45329 93.157123 
L 519.006123 92.076708 
L 518.003392 90.643214 
L 516.944049 89.581516 
L 515.941551 88.784562 
L 513.94684 87.572379 
L 512.310064 86.861827 
L 510.829991 86.433033 
L 509.534125 86.274166 
L 508.711507 86.351157 
L 508.131168 86.590581 
L 507.766917 86.990941 
L 507.637061 87.661343 
L 507.810295 88.443284 
L 508.346914 89.506252 
L 509.257446 90.727796 
L 510.505159 91.990712 
L 511.4874 92.776329 
L 513.042312 93.707877 
L 514.391194 94.230505 
L 515.740142 94.5275 
L 518.82041 94.80315 
L 521.152531 95.126499 
L 522.396749 95.423764 
L 524.736006 96.266479 
L 526.150979 97.023432 
L 527.007716 97.6644 
L 527.390229 98.058118 
L 527.76274 98.681587 
L 527.821541 99.241507 
L 527.677404 99.624237 
L 527.475186 99.879635 
L 526.550427 100.451317 
L 525.426833 100.763455 
L 524.248598 100.884057 
L 522.874241 100.80546 
L 521.690053 100.475917 
L 521.107925 100.106433 
L 520.776567 99.633001 
L 520.726847 99.01113 
L 521.043668 98.210928 
L 521.940289 96.716771 
L 521.902026 96.61989 
L 521.394427 96.51241 
L 520.288577 96.678942 
L 517.89058 97.296143 
L 508.990887 100.20446 
L 500.727305 103.249566 
L 480.884161 111.436374 
L 472.65359 115.155082 
L 472.65359 115.155082 
" style="fill:none;stroke:#000000;stroke-linecap:square;stroke-opacity:0.7;stroke-width:1.2;"/>
   </g>
   <g id="line2d_20">
    <path clip-path="url(#p50b1e1782d)" d="M 493.460676 61.200354 
L 492.606086 59.610855 
L 491.934515 56.447725 
L 492.269299 54.440692 
L 492.899225 53.056605 
L 493.876819 51.733528 
L 494.58238 51.037528 
L 495.529472 50.306437 
L 496.337952 49.826442 
L 497.67813 49.313307 
L 498.444637 49.244166 
L 499.066283 49.532661 
L 499.226358 50.08977 
L 499.140722 50.627534 
L 499.041098 50.936465 
L 498.503257 52.061037 
L 497.034924 54.226556 
L 495.527137 55.993408 
L 494.2709 57.209997 
L 492.492549 58.508893 
L 491.116643 59.115707 
L 490.564718 59.245105 
L 489.301714 59.249625 
L 488.504219 59.000406 
L 488.235285 58.86196 
L 487.231142 58.021997 
L 486.483299 56.882338 
L 486.039812 55.769353 
L 485.718624 54.382449 
L 485.565554 52.031812 
L 485.687619 50.320284 
L 486.131603 47.928515 
L 486.927841 45.387089 
L 487.901799 43.181071 
L 488.798177 41.596872 
L 489.704744 40.311928 
L 490.572296 39.378622 
L 491.240244 38.937728 
L 491.66038 38.918403 
L 491.894087 39.17117 
L 492.021613 39.858365 
L 491.911008 41.59276 
L 491.635418 44.538668 
L 491.679697 46.506201 
L 491.984238 48.097447 
L 492.53155 49.432064 
L 493.32438 50.573148 
L 494.548415 51.673853 
L 495.829399 52.425358 
L 497.479568 53.068403 
L 498.459838 53.336784 
L 501.654554 53.83313 
L 504.285314 53.945438 
L 506.86696 53.875843 
L 511.644232 53.400299 
L 515.805695 52.699517 
L 520.31225 51.698059 
L 522.035128 51.356619 
L 521.42484 51.689961 
L 518.672694 52.834711 
L 516.699133 53.47409 
L 514.473517 53.961475 
L 512.090393 54.222459 
L 508.108038 54.346495 
L 504.104499 54.533124 
L 502.58524 54.718933 
L 500.199676 55.298886 
L 498.814595 55.960632 
L 497.757067 56.82009 
L 496.828443 58.052767 
L 496.076475 59.444667 
L 494.681791 61.96246 
L 493.446102 63.471863 
L 492.660004 64.153313 
L 491.767206 64.740421 
L 490.674768 65.254385 
L 489.26261 65.669162 
L 487.179872 65.906263 
L 484.224905 65.702512 
L 481.373849 65.07953 
L 479.585143 64.526311 
L 476.3726 63.284626 
L 472.389134 61.394582 
L 465.716865 57.594912 
L 457.502044 52.169771 
L 457.502044 52.169771 
" style="fill:none;stroke:#000000;stroke-linecap:square;stroke-opacity:0.7;stroke-width:1.2;"/>
   </g>
   <g id="line2d_21">
    <path clip-path="url(#p50b1e1782d)" d="M 645.892869 210.59885 
L 649.968679 217.202586 
L 650.958425 216.980995 
L 651.566126 214.588622 
L 651.478822 212.693231 
L 651.0952 210.461469 
L 650.323181 207.037604 
L 650.410459 206.887068 
L 650.669412 206.83767 
L 651.398926 207.094256 
L 653.259828 208.158514 
L 655.063611 209.347248 
L 658.399316 211.848549 
L 660.403692 213.627173 
L 661.199701 214.425047 
L 663.428629 217.13857 
L 665.10252 220.170749 
L 665.766441 222.023382 
L 666.345782 224.547017 
L 666.843644 228.147962 
L 667.229474 231.603865 
L 666.956516 231.665865 
L 666.179646 231.529546 
L 663.577757 230.726609 
L 659.156026 229.131681 
L 655.673807 227.625005 
L 653.152719 226.291969 
L 651.676555 225.360582 
L 650.454166 224.462692 
L 648.327332 222.43166 
L 647.472677 221.288751 
L 646.943995 220.366088 
L 646.472203 219.200718 
L 646.195417 217.783869 
L 646.201696 216.957793 
L 646.452915 215.906779 
L 646.865045 215.237406 
L 647.41629 214.819204 
L 647.91102 214.674125 
L 648.585176 214.701 
L 649.443414 215.006018 
L 650.409054 215.62298 
L 651.770765 216.871098 
L 653.365065 218.767174 
L 655.160442 221.337614 
L 657.173931 224.656368 
L 659.491219 228.958299 
L 661.946738 234.079893 
L 663.465717 237.653778 
L 664.608263 240.827653 
L 665.116501 242.942962 
L 665.148668 243.596449 
L 664.885952 244.228537 
L 664.667306 244.299605 
L 664.192044 244.207755 
L 663.397561 243.771933 
L 661.800054 242.528023 
L 651.158132 233.251674 
L 648.164043 231.194553 
L 646.260004 230.135064 
L 644.541114 229.400301 
L 643.036189 228.987451 
L 641.652629 228.878286 
L 640.337276 229.168555 
L 639.518473 229.742865 
L 639.128915 230.292341 
L 638.895602 230.932724 
L 638.820091 231.704036 
L 638.999052 232.732558 
L 639.347111 233.488623 
L 639.775665 234.045953 
L 640.208435 234.413129 
L 641.123509 234.792356 
L 642.227391 234.720789 
L 643.968842 233.577941 
L 644.557838 232.892548 
L 646.944625 228.11704 
L 648.236638 223.525316 
L 649.357438 217.288903 
L 649.874606 213.026247 
L 650.689939 201.028267 
L 650.689939 201.028267 
" style="fill:none;stroke:#000000;stroke-linecap:square;stroke-opacity:0.7;stroke-width:1.2;"/>
   </g>
   <g id="line2d_22">
    <path clip-path="url(#p50b1e1782d)" d="M 638.19829 196.631138 
L 621.445956 200.831698 
L 615.453715 201.965571 
L 614.173892 201.980847 
L 613.534879 201.781033 
L 613.56328 200.416938 
L 613.951919 199.767293 
L 616.009673 197.074059 
L 624.220275 187.110935 
L 626.424076 184.707531 
L 628.014716 183.429659 
L 628.264211 183.288978 
L 629.4735 182.907966 
L 630.354131 182.950518 
L 631.43599 183.275555 
L 634.755427 184.577059 
L 636.933904 185.048266 
L 638.261221 185.175129 
L 641.379509 185.121987 
L 645.570741 184.55582 
L 650.187012 183.59801 
L 663.836014 180.533816 
L 666.248468 180.154252 
L 669.594022 179.864213 
L 671.700383 179.937217 
L 673.086699 180.202539 
L 673.894398 180.512665 
L 674.98981 181.40001 
L 675.214675 181.774505 
L 675.490909 182.961363 
L 675.367895 184.19912 
L 674.921947 185.643926 
L 674.193905 187.226961 
L 672.987884 189.289591 
L 671.143973 191.885133 
L 669.838492 193.446086 
L 668.112394 195.109867 
L 667.100034 195.77219 
L 666.641786 195.959003 
L 665.985936 196.06224 
L 665.349853 195.928827 
L 664.771628 195.560307 
L 664.130701 194.835648 
L 663.388658 193.574339 
L 662.303141 191.081834 
L 656.553687 176.409423 
L 654.416584 171.984703 
L 652.95155 169.311824 
L 650.96222 166.163737 
L 649.412376 164.15421 
L 648.134181 162.927146 
L 647.467186 162.634558 
L 647.391182 162.648802 
L 647.254487 163.169319 
L 647.559898 163.968637 
L 648.071658 164.820671 
L 648.831877 165.825443 
L 650.532497 167.623979 
L 652.524348 169.338294 
L 655.094133 171.20945 
L 659.077658 173.748126 
L 661.290331 175.282278 
L 662.181309 176.418359 
L 662.23344 176.728902 
L 661.876268 177.630668 
L 661.438853 178.088709 
L 660.536911 178.77586 
L 659.912665 179.171502 
L 657.069999 180.662357 
L 653.515205 182.183272 
L 649.528971 183.579313 
L 645.6478 184.645029 
L 639.201356 186.088652 
L 635.438768 187.564013 
L 635.438768 187.564013 
" style="fill:none;stroke:#000000;stroke-linecap:square;stroke-opacity:0.7;stroke-width:1.2;"/>
   </g>
   <g id="line2d_23">
    <path clip-path="url(#p50b1e1782d)" d="M 660.8234 126.582356 
L 661.286459 130.051869 
L 662.169026 134.653423 
L 664.277827 141.135814 
L 665.882809 143.83281 
L 666.693181 144.582609 
L 667.041414 144.74438 
L 667.553593 144.705504 
L 667.883333 144.325554 
L 668.071746 143.624564 
L 668.10949 143.080817 
L 667.598969 139.503534 
L 666.733223 136.553684 
L 665.445621 133.205901 
L 664.493356 131.183109 
L 663.316676 129.152997 
L 662.913516 128.58369 
L 662.152092 127.705031 
L 661.133602 126.991755 
L 660.711787 126.876939 
L 660.034567 126.952859 
L 659.248205 127.514057 
L 658.446959 128.737975 
L 657.508152 131.331013 
L 656.858595 134.303979 
L 656.490199 136.835045 
L 656.297916 138.695311 
L 656.059227 143.971749 
L 656.128458 146.926158 
L 656.478419 150.485961 
L 656.911195 152.449444 
L 657.224497 153.192065 
L 657.506854 153.358793 
L 657.579668 153.12002 
L 657.468114 152.339839 
L 657.091627 151.416729 
L 656.53062 150.520562 
L 654.966095 148.632921 
L 653.962638 147.220277 
L 653.354131 145.845112 
L 653.033081 144.369692 
L 652.954127 143.040649 
L 652.995377 141.992327 
L 653.459658 139.009262 
L 653.953199 137.070087 
L 655.276141 133.035957 
L 657.371091 127.651082 
L 659.769128 121.512392 
L 660.550243 119.053407 
L 660.875864 117.331062 
L 660.849544 116.701468 
L 660.735493 116.427295 
L 660.448595 116.305274 
L 659.938679 116.571409 
L 658.979682 117.71803 
L 658.545401 118.427583 
L 657.769773 119.979984 
L 656.987745 121.994749 
L 656.220607 124.667058 
L 655.739359 127.066534 
L 655.365752 130.167326 
L 655.258261 132.239944 
L 655.31806 135.773208 
L 655.659247 139.446684 
L 655.847437 141.824131 
L 655.656406 142.416672 
L 655.425148 142.549975 
L 654.848835 142.544781 
L 652.369123 142.110896 
L 650.957975 142.200939 
L 649.961124 142.534021 
L 649.257295 142.953783 
L 648.377745 143.76555 
L 647.383664 145.190586 
L 646.404363 147.161061 
L 645.093382 149.855846 
L 644.331418 150.981535 
L 642.882096 152.259214 
L 642.140283 152.610425 
L 641.302935 152.842179 
L 638.972921 152.884474 
L 637.425904 152.598339 
L 634.893407 151.803732 
L 631.566825 150.372392 
L 622.564062 145.424851 
L 617.744368 142.47828 
L 607.65421 136.098217 
L 607.65421 136.098217 
" style="fill:none;stroke:#000000;stroke-linecap:square;stroke-opacity:0.7;stroke-width:1.2;"/>
   </g>
   <g id="line2d_24">
    <path clip-path="url(#p50b1e1782d)" d="M 627.361476 103.894751 
L 625.186429 101.596605 
L 624.559843 99.334226 
L 624.880256 97.397816 
L 625.466327 96.324099 
L 626.16997 95.545882 
L 627.208804 94.819065 
L 628.595005 94.276302 
L 630.059148 94.039993 
L 631.441304 94.047914 
L 633.320909 94.341751 
L 636.226199 95.310349 
L 639.387775 96.930395 
L 642.181157 98.736038 
L 647.367439 102.350636 
L 648.416591 102.848592 
L 649.152853 102.99043 
L 649.60644 102.913572 
L 650.014244 102.656659 
L 650.521962 101.891003 
L 650.821966 101.05227 
L 651.713383 97.645197 
L 652.214389 96.543131 
L 652.482452 96.183863 
L 652.923955 95.824009 
L 653.542391 95.650145 
L 654.346617 95.790648 
L 654.963398 96.084399 
L 656.509394 97.266508 
L 658.227431 99.038712 
L 660.614837 101.930609 
L 663.631 105.894401 
L 663.421857 105.690711 
L 661.611288 103.965892 
L 659.665402 102.491875 
L 658.306891 101.712979 
L 656.62765 101.074358 
L 655.525598 100.873942 
L 654.421559 100.855678 
L 652.891309 101.086422 
L 650.222652 101.624035 
L 648.662312 101.688092 
L 646.910021 101.493584 
L 644.943035 101.013616 
L 642.332809 100.067875 
L 639.861698 98.90054 
L 638.328716 97.977131 
L 637.746684 97.459879 
L 637.681013 97.164242 
L 637.879953 97.043985 
L 638.510432 96.986731 
L 640.527587 97.140091 
L 643.341706 97.324093 
L 644.140235 97.248888 
L 644.400307 97.128827 
L 644.402085 96.992953 
L 643.818349 96.685165 
L 643.01999 96.483387 
L 640.812554 96.199763 
L 638.461144 96.095757 
L 635.568401 96.116229 
L 628.398463 96.480783 
L 624.647755 96.692858 
L 619.373058 96.819168 
L 616.920105 96.736984 
L 612.273775 96.095639 
L 611.038286 95.743515 
L 609.843678 95.275913 
L 608.866005 94.752615 
L 607.298375 93.357438 
L 606.588703 91.690417 
L 606.578013 90.832754 
L 606.802008 89.950403 
L 607.819821 88.468887 
L 609.229341 87.513509 
L 610.207128 87.149395 
L 613.202828 86.928978 
L 616.89225 87.995984 
L 616.89225 87.995984 
" style="fill:none;stroke:#000000;stroke-linecap:square;stroke-opacity:0.7;stroke-width:1.2;"/>
   </g>
   <g id="line2d_25">
    <path clip-path="url(#p50b1e1782d)" d="M 649.678245 75.467701 
L 647.745398 74.049358 
L 646.64892 72.734445 
L 645.794354 71.098035 
L 645.322089 68.5044 
L 645.614898 66.711891 
L 646.235435 65.339189 
L 646.925726 64.362625 
L 647.891103 63.354655 
L 650.434765 61.489956 
L 656.252701 57.956752 
L 657.251966 56.978715 
L 657.64254 56.379261 
L 657.88396 55.414242 
L 657.643406 54.638191 
L 657.240116 54.224106 
L 656.544897 53.915478 
L 656.016592 53.851095 
L 655.082723 53.983971 
L 654.009589 54.463311 
L 653.291156 54.960958 
L 652.289464 55.863898 
L 650.811458 57.515542 
L 648.676003 59.977535 
L 647.667662 60.909254 
L 646.743419 61.511755 
L 646.008215 61.74298 
L 645.504353 61.706041 
L 645.163695 61.523707 
L 644.804156 60.95044 
L 644.731621 60.281935 
L 644.816059 59.725304 
L 645.191304 58.792014 
L 645.920358 57.812627 
L 646.821311 57.053529 
L 647.779792 56.516793 
L 649.055427 56.075663 
L 650.210419 55.875095 
L 650.882504 55.831834 
L 652.380524 55.918306 
L 653.654271 56.210587 
L 654.55871 56.594459 
L 655.354835 57.197546 
L 655.535487 57.432007 
L 655.747457 57.991543 
L 655.709034 58.501767 
L 655.338 59.201405 
L 654.70597 59.831919 
L 653.773985 60.473517 
L 652.112121 61.300841 
L 649.813628 62.133172 
L 649.373184 62.266158 
L 645.308551 63.21426 
L 641.691146 63.721242 
L 639.469076 63.894952 
L 635.201502 63.933976 
L 633.240465 63.912062 
L 633.264471 63.956266 
L 634.108791 64.418877 
L 636.441329 65.685093 
L 638.258555 66.892022 
L 639.538168 67.961992 
L 640.467159 69.024826 
L 640.847458 69.706299 
L 640.9957 70.222073 
L 640.806887 71.218165 
L 640.569623 71.517491 
L 639.472718 72.168514 
L 638.035144 72.498473 
L 636.253951 72.579143 
L 634.558172 72.442408 
L 632.894157 72.139982 
L 630.754579 71.499621 
L 628.816611 70.60063 
L 627.813204 69.940451 
L 627.05779 69.276279 
L 626.44266 68.503969 
L 625.920212 66.960393 
L 625.963802 66.171396 
L 626.410308 64.851729 
L 628.63456 60.991755 
L 628.9114 60.11955 
L 628.281595 56.877239 
L 626.900546 55.145389 
L 624.722695 53.272116 
L 621.972637 51.412812 
L 621.972637 51.412812 
" style="fill:none;stroke:#000000;stroke-linecap:square;stroke-opacity:0.7;stroke-width:1.2;"/>
   </g>
  </g>
 </g>
 <defs>
  <clipPath id="p50b1e1782d">
   <rect height="262.08" width="694.08" x="12.96" y="12.96"/>
  </clipPath>
 </defs>
</svg>
