<?xml version="1.0" encoding="utf-8" standalone="no"?>
<!DOCTYPE svg PUBLIC "-//W3C//DTD SVG 1.1//EN"
  "http://www.w3.org/Graphics/SVG/1.1/DTD/svg11.dtd">
<!-- Created with matplotlib (https://matplotlib.org/) -->
<svg height="288pt" version="1.1" viewBox="0 0 720 288" width="720pt" xmlns="http://www.w3.org/2000/svg" xmlns:xlink="http://www.w3.org/1999/xlink">
 <metadata>
  <rdf:RDF xmlns:cc="http://creativecommons.org/ns#" xmlns:dc="http://purl.org/dc/elements/1.1/" xmlns:rdf="http://www.w3.org/1999/02/22-rdf-syntax-ns#">
   <cc:Work>
    <dc:type rdf:resource="http://purl.org/dc/dcmitype/StillImage"/>
    <dc:date>2020-11-14T04:18:11.382664</dc:date>
    <dc:format>image/svg+xml</dc:format>
    <dc:creator>
     <cc:Agent>
      <dc:title>Matplotlib v3.3.2, https://matplotlib.org/</dc:title>
     </cc:Agent>
    </dc:creator>
   </cc:Work>
  </rdf:RDF>
 </metadata>
 <defs>
  <style type="text/css">*{stroke-linecap:butt;stroke-linejoin:round;}</style>
 </defs>
 <g id="figure_1">
  <g id="patch_1">
   <path d="M 0 288 
L 720 288 
L 720 0 
L 0 0 
z
" style="fill:#ffffff;"/>
  </g>
  <g id="axes_1">
   <g id="line2d_1">
    <path clip-path="url(#p56538c591a)" d="M 68.41744 235.149823 
L 76.025964 236.433995 
L 77.755557 236.284701 
L 79.254285 236.04139 
L 81.447706 235.514674 
L 84.369808 234.542305 
L 87.916297 233.027934 
L 92.613808 230.60863 
L 104.694809 223.532843 
L 106.815533 222.54177 
L 107.70039 222.308179 
L 108.205929 222.327716 
L 108.484389 222.4877 
L 108.677063 223.059508 
L 108.50326 224.135802 
L 107.118213 227.598353 
L 102.6325 237.533391 
L 101.165761 241.489057 
L 100.281643 244.389821 
L 99.486881 247.830237 
L 99.150319 250.003226 
L 98.940579 253.074041 
L 99.098345 255.612468 
L 99.389514 256.645343 
L 99.527553 256.725101 
L 99.619717 256.590033 
L 99.740045 255.732094 
L 99.666368 252.978761 
L 99.215159 248.251147 
L 97.190051 231.502407 
L 97.167337 231.464454 
L 97.14886 231.542568 
L 96.689496 234.709658 
L 96.163182 236.632008 
L 95.357262 238.591261 
L 94.832386 239.554053 
L 93.418765 241.496585 
L 93.192473 241.747493 
L 91.323948 243.421528 
L 89.753292 244.452199 
L 87.730223 245.472469 
L 85.443163 246.375325 
L 79.830479 248.453825 
L 78.662973 249.184408 
L 77.948359 249.922255 
L 77.57284 250.670402 
L 77.461577 251.752545 
L 77.592036 252.474688 
L 78.06993 253.670547 
L 78.967941 255.100785 
L 80.232978 256.624214 
L 82.619718 258.877565 
L 84.303731 260.179067 
L 86.370906 261.516159 
L 88.249626 262.467508 
L 89.089905 262.790683 
L 90.141663 263.066882 
L 91.274442 263.083754 
L 91.935391 262.713617 
L 92.13045 262.330258 
L 92.142835 261.481868 
L 91.816494 260.420325 
L 90.10912 257.488109 
L 88.218724 255.0263 
L 84.830021 251.19116 
L 80.612117 246.86002 
L 75.558354 241.956234 
L 67.479745 234.288751 
L 60.361599 227.221624 
L 57.081169 223.570685 
L 56.019169 222.24033 
L 54.825405 220.457075 
L 54.667686 219.827706 
L 54.903999 219.928397 
L 55.403827 220.404272 
L 56.187362 221.36425 
L 58.573409 225.035738 
L 60.019516 227.632308 
L 65.789182 239.93318 
L 69.845657 249.942828 
L 69.845657 249.942828 
" style="fill:none;stroke:#000000;stroke-linecap:square;stroke-opacity:0.7;stroke-width:1.2;"/>
   </g>
   <g id="line2d_2">
    <path clip-path="url(#p56538c591a)" d="M 57.711987 179.818852 
L 62.022768 192.70399 
L 62.728153 195.42429 
L 62.991138 197.03615 
L 62.896387 198.18165 
L 62.814691 198.323395 
L 62.518921 198.477149 
L 62.268998 198.392304 
L 62.028765 198.13706 
L 61.823415 197.309257 
L 61.882005 196.790649 
L 62.282103 195.693603 
L 63.133876 194.339145 
L 64.240944 193.018769 
L 65.506017 191.764839 
L 67.133157 190.394128 
L 68.976998 189.096255 
L 71.085974 187.916649 
L 72.541605 187.292765 
L 74.078305 186.80655 
L 75.744552 186.482271 
L 77.93697 186.373969 
L 79.817746 186.55577 
L 81.277855 186.856165 
L 83.824151 187.659017 
L 86.27521 188.661666 
L 89.09915 189.828314 
L 90.467375 190.182954 
L 91.29962 190.129257 
L 91.653669 189.90233 
L 91.854682 189.536212 
L 91.881829 188.736125 
L 91.619152 187.798481 
L 91.105935 186.757734 
L 90.296401 185.611431 
L 89.264303 184.574507 
L 88.22504 183.879701 
L 87.210794 183.528529 
L 86.066938 183.625962 
L 85.69922 183.828814 
L 85.178069 184.405771 
L 84.912439 185.014526 
L 84.819104 185.404243 
L 84.770187 186.724408 
L 85.089258 188.358388 
L 85.614656 189.754752 
L 86.046117 190.604783 
L 87.08323 192.095357 
L 87.90743 192.848903 
L 88.679773 193.240266 
L 89.25457 193.357315 
L 89.78086 193.357708 
L 90.87512 193.119064 
L 92.122091 192.594544 
L 94.679 191.103817 
L 97.87591 188.890518 
L 103.413723 184.684152 
L 104.836152 183.631342 
L 104.36437 184.065177 
L 102.05128 185.895618 
L 100.332309 187.0361 
L 99.009922 187.700567 
L 97.880555 187.923481 
L 97.500672 187.777902 
L 97.253777 187.404214 
L 97.13695 186.508689 
L 97.046588 185.791706 
L 96.850814 185.421808 
L 96.459992 185.279507 
L 95.779178 185.546701 
L 95.190959 186.032032 
L 93.924117 187.603568 
L 92.509111 190.06012 
L 91.854415 191.430474 
L 90.029123 196.026298 
L 88.805615 199.755585 
L 88.805615 199.755585 
" style="fill:none;stroke:#000000;stroke-linecap:square;stroke-opacity:0.7;stroke-width:1.2;"/>
   </g>
   <g id="line2d_3">
    <path clip-path="url(#p56538c591a)" d="M 60.103022 136.341292 
L 61.489244 159.926615 
L 61.839875 173.549428 
L 61.954421 173.749917 
L 62.295481 173.40821 
L 62.913521 171.966451 
L 65.679121 164.930882 
L 67.692054 160.512992 
L 68.828883 158.29092 
L 71.241112 154.193508 
L 72.812756 151.985601 
L 74.419738 150.161832 
L 75.624325 149.167899 
L 76.815644 148.668983 
L 77.376742 148.701602 
L 77.955882 149.003908 
L 79.309395 150.253564 
L 80.045937 150.616524 
L 81.328739 150.806973 
L 81.883768 150.793752 
L 84.355975 150.416709 
L 87.804713 149.533029 
L 101.08221 145.849684 
L 102.710527 145.620109 
L 102.884363 145.733394 
L 102.807566 145.865485 
L 101.928655 146.55707 
L 98.973734 148.683197 
L 96.263709 150.968677 
L 94.579954 152.647027 
L 92.8953 154.691593 
L 92.125384 156.013967 
L 91.968684 156.648843 
L 92.040459 156.92581 
L 92.41455 157.112888 
L 93.084955 157.022014 
L 94.402811 156.497709 
L 96.5914 155.302636 
L 100.77426 152.677058 
L 104.37412 150.502288 
L 105.633753 149.998587 
L 106.110324 149.97269 
L 106.478586 150.19458 
L 106.624162 150.602014 
L 106.558767 151.589949 
L 106.153584 152.940644 
L 105.497927 154.357015 
L 104.328419 156.139824 
L 103.172987 157.394969 
L 102.147717 158.224311 
L 100.774815 159.018679 
L 99.297971 159.55521 
L 96.574792 159.892797 
L 95.936573 159.874117 
L 93.447029 159.522956 
L 90.827774 158.769591 
L 89.003555 158.065889 
L 87.280552 157.294015 
L 83.121563 155.109734 
L 78.517608 152.363407 
L 74.076322 149.637795 
L 69.768592 147.243358 
L 67.449196 146.22929 
L 66.215829 145.823309 
L 64.751828 145.507241 
L 60.537306 146.178433 
L 58.151064 148.259585 
L 58.151064 148.259585 
" style="fill:none;stroke:#000000;stroke-linecap:square;stroke-opacity:0.7;stroke-width:1.2;"/>
   </g>
   <g id="line2d_4">
    <path clip-path="url(#p56538c591a)" d="M 69.963029 115.989847 
L 77.032754 112.569143 
L 83.550203 108.885609 
L 85.908954 107.238763 
L 86.282108 106.84223 
L 85.85924 106.846857 
L 84.313471 107.587066 
L 81.258923 109.39138 
L 80.435944 109.920056 
L 76.518577 112.663339 
L 74.698528 114.091138 
L 71.699538 116.787211 
L 70.261851 118.3494 
L 68.926078 120.16676 
L 68.266249 121.411571 
L 67.93333 122.381705 
L 67.809511 123.231857 
L 67.857344 123.89049 
L 68.238754 124.786387 
L 69.128481 125.485865 
L 69.543361 125.628339 
L 70.450055 125.731422 
L 71.828488 125.506793 
L 73.145419 124.949551 
L 73.941342 124.458217 
L 75.50086 123.130884 
L 76.570969 121.892667 
L 77.842887 119.966346 
L 78.688666 118.314047 
L 79.705654 115.740589 
L 80.385766 113.468642 
L 81.025797 110.649199 
L 81.718394 106.163363 
L 82.152296 101.633936 
L 82.520619 94.88994 
L 82.622313 89.187639 
L 82.479482 87.315603 
L 82.33718 86.942516 
L 82.181322 86.959264 
L 81.990504 87.364257 
L 81.795087 88.267383 
L 81.645666 90.360699 
L 81.710463 92.04975 
L 82.059279 94.480326 
L 82.587452 96.469477 
L 83.518572 98.722453 
L 84.582762 100.454818 
L 85.456384 101.491094 
L 86.27194 102.233321 
L 87.491764 103.020411 
L 88.766761 103.495452 
L 90.223041 103.655581 
L 91.247131 103.539566 
L 92.327217 103.219587 
L 93.411773 102.701042 
L 94.992243 101.640592 
L 96.656087 100.477674 
L 97.248735 100.329276 
L 97.61124 100.462656 
L 97.830998 100.694951 
L 98.221684 101.66586 
L 98.426994 102.883957 
L 98.549696 105.362892 
L 98.417648 108.778868 
L 98.054367 111.947825 
L 97.558451 114.148074 
L 97.124712 115.207038 
L 96.498323 116.061983 
L 95.8945 116.503245 
L 94.762949 116.858828 
L 93.180874 116.897889 
L 91.537483 116.698918 
L 87.961667 115.966679 
L 82.506767 114.819457 
L 80.934368 114.610977 
L 78.928088 114.564401 
L 77.537926 114.82801 
L 76.489905 115.406093 
L 76.058628 115.857014 
L 75.655631 116.532184 
L 75.242212 117.901419 
L 74.989158 119.9557 
L 74.863942 121.133627 
L 74.425449 122.822775 
L 74.143369 123.240307 
L 73.788487 123.514762 
L 73.08061 123.655214 
L 71.616805 123.187771 
L 66.47943 119.011665 
L 66.47943 119.011665 
" style="fill:none;stroke:#000000;stroke-linecap:square;stroke-opacity:0.7;stroke-width:1.2;"/>
   </g>
   <g id="line2d_5">
    <path clip-path="url(#p56538c591a)" d="M 91.242326 81.672129 
L 74.483374 69.469028 
L 71.416442 66.503638 
L 69.277706 63.920588 
L 67.330695 59.842383 
L 68.55838 54.595722 
L 69.681525 53.148824 
L 75.688422 46.450644 
L 76.794415 44.891681 
L 77.374842 44.450466 
L 77.711906 44.846518 
L 78.41437 46.834803 
L 80.060676 51.724787 
L 81.710543 55.892073 
L 82.516637 57.708234 
L 84.930227 62.450579 
L 87.14919 66.031826 
L 90.784417 70.554643 
L 92.562733 72.236082 
L 94.640648 73.811686 
L 96.995417 75.145017 
L 98.817519 75.889797 
L 100.256987 76.328694 
L 103.38876 76.966071 
L 105.418114 77.353402 
L 106.447009 77.700357 
L 107.167171 78.151799 
L 107.636599 78.704648 
L 107.946937 79.452756 
L 108.07423 81.110115 
L 107.865205 82.733725 
L 107.388915 84.683738 
L 106.669997 86.725945 
L 106.102045 87.855981 
L 105.871794 88.1826 
L 105.412176 88.552391 
L 104.681702 88.096991 
L 104.262215 87.072867 
L 103.716671 84.823437 
L 103.168921 81.724524 
L 99.310319 57.066377 
L 96.268561 40.804955 
L 94.1539 29.554375 
L 93.806013 26.562207 
L 93.863577 25.326487 
L 94.08816 24.911186 
L 94.406191 24.907307 
L 95.281452 25.731229 
L 96.353078 27.341023 
L 97.729258 29.887657 
L 98.97579 32.553235 
L 100.219478 35.571143 
L 101.14935 38.125013 
L 102.448004 42.352934 
L 103.257348 45.702733 
L 103.955281 49.717664 
L 104.330144 53.688697 
L 104.361662 57.449636 
L 104.076869 60.738537 
L 103.578505 63.266263 
L 103.208617 64.450704 
L 102.41533 66.026676 
L 101.988787 66.498355 
L 101.369697 66.81872 
L 98.817669 64.742018 
L 97.632499 63.229006 
L 97.325539 62.960705 
L 96.351152 62.508423 
L 95.512331 62.510385 
L 93.310364 63.473678 
L 91.312008 64.92228 
L 81.8272 73.635926 
L 63.584846 91.415531 
L 63.584846 91.415531 
" style="fill:none;stroke:#000000;stroke-linecap:square;stroke-opacity:0.7;stroke-width:1.2;"/>
   </g>
   <g id="line2d_6">
    <path clip-path="url(#p56538c591a)" d="M 191.792794 236.925462 
L 192.884086 239.936918 
L 193.642208 240.842399 
L 195.121483 241.627359 
L 196.410056 241.787078 
L 197.42877 241.72166 
L 198.768202 241.466044 
L 200.310922 241.000287 
L 202.828311 239.946872 
L 205.344369 238.577308 
L 207.824089 236.889333 
L 209.749282 235.274352 
L 211.671976 233.250175 
L 212.927413 231.525355 
L 213.739074 230.009316 
L 214.215273 228.548462 
L 214.286356 227.613493 
L 214.129575 227.002998 
L 213.755274 226.646147 
L 213.300665 226.627185 
L 212.924982 226.792892 
L 212.383095 227.28228 
L 211.813051 228.22775 
L 211.573148 228.909586 
L 211.377342 230.104528 
L 211.432148 231.399423 
L 211.771276 232.75705 
L 212.232795 233.786776 
L 213.072497 235.040141 
L 214.138215 236.164392 
L 214.65509 236.7488 
L 214.561896 236.933919 
L 213.873325 237.297359 
L 212.858243 237.916142 
L 211.828895 238.834469 
L 211.135862 239.695106 
L 210.583976 240.59491 
L 209.93944 242.092008 
L 209.558442 243.656973 
L 209.499023 245.102472 
L 209.707518 245.814086 
L 209.922206 245.952967 
L 210.104958 245.897882 
L 210.402225 245.570239 
L 210.886222 244.454672 
L 211.258014 242.886576 
L 211.454319 241.162074 
L 211.452409 239.776796 
L 211.240717 238.486714 
L 210.893424 237.758452 
L 210.516538 237.435168 
L 209.94456 237.338709 
L 209.319503 237.517167 
L 208.209458 238.183134 
L 207.467796 238.653181 
L 207.264783 238.621352 
L 207.301448 238.308547 
L 207.712758 237.344657 
L 209.025034 234.971866 
L 210.805429 232.252102 
L 211.653728 231.222022 
L 211.841033 231.067999 
L 210.728871 231.855164 
L 209.253566 232.32546 
L 207.841103 232.5232 
L 205.892556 232.558549 
L 203.985045 232.424101 
L 200.817589 231.978894 
L 195.337618 230.869249 
L 172.670303 225.481845 
L 172.670303 225.481845 
" style="fill:none;stroke:#000000;stroke-linecap:square;stroke-opacity:0.7;stroke-width:1.2;"/>
   </g>
   <g id="line2d_7">
    <path clip-path="url(#p56538c591a)" d="M 210.847328 208.994117 
L 201.767639 207.904216 
L 196.6168 206.159886 
L 195.395686 205.378128 
L 194.597459 204.552506 
L 194.274733 203.306766 
L 194.4259 202.866055 
L 195.044572 202.116341 
L 196.112311 201.401866 
L 197.990997 200.562173 
L 204.901115 198.008175 
L 207.133239 196.96352 
L 210.270223 195.159238 
L 213.442465 192.939829 
L 217.830575 189.492733 
L 221.454432 186.720115 
L 224.693874 184.578409 
L 226.511793 183.578052 
L 229.143868 182.437003 
L 231.459997 181.775624 
L 232.795688 181.561881 
L 234.617794 181.507046 
L 235.928712 181.682163 
L 237.168477 182.093503 
L 238.0866 182.682761 
L 238.614839 183.320023 
L 238.840041 183.93292 
L 238.820086 184.68896 
L 238.525323 185.412648 
L 238.09435 185.998912 
L 237.117897 186.880966 
L 235.805498 187.730964 
L 233.257095 189.014272 
L 229.313765 190.907338 
L 227.739304 191.855719 
L 226.430857 192.894002 
L 225.60206 193.820578 
L 224.938539 195.01866 
L 224.704825 195.906904 
L 224.683398 196.968867 
L 224.942337 198.063829 
L 225.442133 199.064048 
L 226.21587 200.016233 
L 226.98391 200.632375 
L 227.483508 200.902065 
L 228.356876 201.106853 
L 228.737594 201.041106 
L 228.977253 200.905231 
L 229.265713 200.454299 
L 229.320997 200.127737 
L 229.210239 199.253551 
L 228.768025 198.14268 
L 227.85797 196.672745 
L 226.632175 195.171046 
L 224.708158 193.287159 
L 222.903259 191.826624 
L 221.372827 190.753871 
L 218.544046 189.09033 
L 217.006382 188.338873 
L 214.062712 187.180353 
L 211.687071 186.5175 
L 209.322672 186.126002 
L 207.250561 186.053002 
L 206.168345 186.14701 
L 204.663831 186.499524 
L 203.873901 186.846701 
L 203.247159 187.267397 
L 202.782831 187.743152 
L 202.367519 188.532119 
L 202.278299 189.647639 
L 202.533064 190.587471 
L 202.677452 190.907624 
L 203.632208 192.337119 
L 205.006921 193.758368 
L 207.447946 195.825994 
L 208.463513 196.709463 
L 209.419468 197.717209 
L 209.751168 198.191247 
L 210.054064 198.86683 
L 210.13005 199.376087 
L 209.937845 200.181429 
L 209.73834 200.501564 
L 209.213325 201.035046 
L 208.081473 201.697591 
L 207.205428 202.009726 
L 205.986649 202.271194 
L 204.890947 202.374497 
L 203.471598 202.351721 
L 201.791751 202.117024 
L 199.104926 201.301333 
L 195.685217 199.547359 
L 194.01715 198.462081 
L 187.063125 193.565553 
L 184.551264 192.009405 
L 184.551264 192.009405 
" style="fill:none;stroke:#000000;stroke-linecap:square;stroke-opacity:0.7;stroke-width:1.2;"/>
   </g>
   <g id="line2d_8">
    <path clip-path="url(#p56538c591a)" d="M 197.306975 157.33587 
L 200.588154 155.864966 
L 205.941181 154.368979 
L 209.029491 155.07303 
L 209.80638 155.910751 
L 210.466615 157.457479 
L 210.625597 158.192188 
L 210.790309 159.689397 
L 210.772904 163.038521 
L 210.611036 167.561504 
L 210.847235 169.686734 
L 211.318445 170.624284 
L 211.659121 170.866814 
L 212.245084 170.943901 
L 213.258642 170.560497 
L 213.759353 170.227429 
L 214.589143 169.534936 
L 215.566492 168.548435 
L 217.769379 165.836206 
L 219.183817 163.819222 
L 221.167554 160.69453 
L 223.873105 155.943828 
L 226.546741 150.742203 
L 229.259514 144.966701 
L 231.962548 138.665543 
L 233.715857 134.063728 
L 234.330019 131.936274 
L 234.361456 131.213417 
L 234.265607 131.082556 
L 233.965859 131.147791 
L 233.45192 131.599531 
L 232.685308 132.561168 
L 231.656072 134.224915 
L 230.664947 136.345207 
L 229.847321 138.99302 
L 229.515982 141.148621 
L 229.476367 142.962225 
L 229.686943 144.884606 
L 230.157856 146.741118 
L 230.882927 148.515205 
L 231.702452 149.958874 
L 232.829392 151.471259 
L 234.164732 152.843934 
L 235.664119 154.016053 
L 237.092168 154.835238 
L 238.260807 155.285425 
L 239.213179 155.457161 
L 239.983736 155.338192 
L 240.280077 155.045954 
L 240.280091 154.538142 
L 239.905017 153.898034 
L 239.275304 153.275405 
L 237.998381 152.40232 
L 236.430567 151.623358 
L 234.570959 150.919886 
L 231.697443 150.114418 
L 228.784134 149.52107 
L 224.183854 148.869821 
L 217.474767 148.143033 
L 218.294446 148.272195 
L 218.808465 148.594486 
L 219.419862 149.333528 
L 220.11291 150.888672 
L 220.765009 153.323509 
L 221.280308 156.370828 
L 221.537375 159.713148 
L 221.53805 160.96955 
L 221.415462 162.871527 
L 220.986696 165.302265 
L 220.611054 166.557142 
L 220.108486 167.791861 
L 218.599547 170.199139 
L 216.14812 172.406558 
L 212.110721 174.167991 
L 210.761386 174.460829 
L 208.02431 174.742378 
L 204.487153 174.615412 
L 200.604227 173.970365 
L 193.717864 171.772761 
L 193.717864 171.772761 
" style="fill:none;stroke:#000000;stroke-linecap:square;stroke-opacity:0.7;stroke-width:1.2;"/>
   </g>
   <g id="line2d_9">
    <path clip-path="url(#p56538c591a)" d="M 194.040311 119.386641 
L 192.294039 123.618759 
L 192.752618 124.105024 
L 194.246003 123.434792 
L 195.819758 121.972113 
L 197.178059 120.374629 
L 199.211293 117.601061 
L 203.233819 111.852213 
L 205.334735 109.424024 
L 207.236412 107.858487 
L 208.77996 107.07247 
L 209.390881 106.880643 
L 210.645027 106.691588 
L 211.338226 106.701124 
L 212.48742 106.886876 
L 214.081601 107.473409 
L 215.536857 108.312894 
L 217.127669 109.522521 
L 218.770598 111.039002 
L 221.903026 114.427097 
L 226.004859 119.011433 
L 228.372745 121.314399 
L 230.444521 122.984659 
L 231.625384 123.860439 
L 231.535781 123.856587 
L 228.717579 123.279656 
L 222.879944 122.289655 
L 216.911429 121.222335 
L 214.67454 120.637819 
L 213.07568 120.009134 
L 212.02823 119.328124 
L 211.567216 118.823319 
L 211.259027 118.22463 
L 211.121915 117.393866 
L 211.24384 116.36433 
L 211.769081 114.76957 
L 213.17607 111.627872 
L 214.06079 109.437755 
L 214.522775 107.717547 
L 214.626081 106.621515 
L 214.485637 105.528732 
L 214.030025 104.564378 
L 213.273076 103.791045 
L 212.409772 103.265141 
L 211.487206 102.883696 
L 209.331182 102.323196 
L 206.246083 101.85378 
L 193.861098 100.492424 
L 191.072537 100.33544 
L 189.960581 100.45981 
L 189.356594 100.686816 
L 188.884282 101.127394 
L 188.648233 101.878102 
L 188.682972 102.856683 
L 188.956349 105.238844 
L 188.898337 105.482442 
L 188.618477 105.855141 
L 188.12411 106.057533 
L 187.542884 106.160342 
L 186.035475 106.544163 
L 185.160689 107.141929 
L 184.534425 107.96434 
L 184.189765 108.697435 
L 183.633444 111.17023 
L 183.53729 114.993411 
L 183.53729 114.993411 
" style="fill:none;stroke:#000000;stroke-linecap:square;stroke-opacity:0.7;stroke-width:1.2;"/>
   </g>
   <g id="line2d_10">
    <path clip-path="url(#p56538c591a)" d="M 204.481119 59.753208 
L 203.675845 74.027582 
L 203.122208 78.908671 
L 202.59671 81.688501 
L 202.090498 83.3397 
L 201.956321 83.610843 
L 201.700585 83.650075 
L 201.720826 83.075672 
L 202.067823 81.475056 
L 202.891805 78.936036 
L 204.67036 74.527633 
L 208.279278 66.013974 
L 209.479264 62.452254 
L 210.190259 59.541866 
L 210.560562 57.15618 
L 210.732872 54.683807 
L 210.715115 52.774516 
L 210.461493 50.285426 
L 210.049774 48.556963 
L 209.45007 47.168954 
L 208.915187 46.378495 
L 207.986735 45.47048 
L 206.901569 44.812627 
L 205.84204 44.432237 
L 204.388121 44.246306 
L 203.612185 44.314751 
L 202.571654 44.661561 
L 201.913549 45.13978 
L 201.418662 45.819815 
L 201.178957 46.48264 
L 201.079587 47.444441 
L 201.180738 48.427437 
L 201.480678 49.570791 
L 202.20176 51.290303 
L 203.615993 53.712557 
L 204.698868 55.256344 
L 207.002288 58.154554 
L 212.379681 64.658065 
L 213.101102 66.000399 
L 213.379672 67.075471 
L 213.382454 67.872241 
L 213.077549 69.477504 
L 212.932642 70.441583 
L 212.975785 71.760589 
L 213.332045 73.0715 
L 213.938161 74.296461 
L 214.808918 75.5335 
L 216.196145 77.020579 
L 216.861505 77.733093 
L 216.633183 77.736075 
L 215.240968 77.303575 
L 205.260903 74.088926 
L 195.239022 70.842229 
L 194.302747 70.443953 
L 193.69099 69.995707 
L 192.576187 68.791721 
L 190.777346 67.28278 
L 187.450672 64.930568 
L 183.80647 62.617257 
L 180.420011 60.605923 
L 180.420011 60.605923 
" style="fill:none;stroke:#000000;stroke-linecap:square;stroke-opacity:0.7;stroke-width:1.2;"/>
   </g>
   <g id="line2d_11">
    <path clip-path="url(#p56538c591a)" d="M 362.745957 229.150183 
L 367.109463 227.274936 
L 372.707415 224.100294 
L 375.982674 221.621909 
L 377.79737 219.835671 
L 379.525087 217.264732 
L 379.996662 215.36159 
L 379.741478 213.818632 
L 379.150649 212.749911 
L 378.083162 211.628538 
L 377.371366 211.085957 
L 375.771459 210.145726 
L 372.442197 208.811115 
L 368.714475 207.837036 
L 365.401386 207.281138 
L 360.088029 207.013004 
L 357.645496 207.314598 
L 355.526043 208.209746 
L 354.928189 208.845575 
L 354.702964 209.287769 
L 354.569368 209.814892 
L 354.698697 211.30715 
L 355.151685 212.519678 
L 356.629351 214.972375 
L 358.986424 217.816832 
L 360.860877 219.658932 
L 362.818129 221.264606 
L 364.497952 222.377289 
L 366.022897 223.158744 
L 367.618527 223.730082 
L 369.607059 224.086677 
L 371.263751 224.100642 
L 373.25789 223.831606 
L 375.398187 223.46696 
L 375.384478 223.509424 
L 374.91391 223.897542 
L 373.349165 224.753161 
L 372.774579 225.000588 
L 371.145553 225.460462 
L 370.351754 225.464439 
L 369.677172 225.195463 
L 369.306355 224.752469 
L 369.136608 224.283676 
L 369.058534 223.367988 
L 369.298471 221.628111 
L 369.803836 219.767169 
L 370.321293 218.226526 
L 372.527346 212.664969 
L 375.564053 205.792512 
L 376.321433 204.402242 
L 376.508981 204.188165 
L 376.739713 204.200369 
L 376.85751 204.697189 
L 376.86305 206.573792 
L 376.576236 210.877598 
L 375.967695 216.513905 
L 375.178292 221.499481 
L 374.326417 225.454133 
L 373.187794 229.511038 
L 371.973451 232.952318 
L 370.208445 237.087874 
L 368.472398 241.090706 
L 368.172717 242.267921 
L 368.134085 242.877187 
L 368.455436 244.025025 
L 368.838562 244.535135 
L 369.685391 245.266288 
L 371.985471 246.991089 
L 372.24542 247.390086 
L 372.20655 247.82152 
L 372.059105 247.948947 
L 371.736764 248.067663 
L 370.957215 248.102426 
L 369.573566 247.840782 
L 368.54207 247.499979 
L 365.962672 246.294449 
L 364.797025 245.620065 
L 360.97648 242.974364 
L 357.709594 240.289372 
L 354.537333 237.397726 
L 348.189034 231.020046 
L 340.44177 222.625037 
L 340.44177 222.625037 
" style="fill:none;stroke:#000000;stroke-linecap:square;stroke-opacity:0.7;stroke-width:1.2;"/>
   </g>
   <g id="line2d_12">
    <path clip-path="url(#p56538c591a)" d="M 383.10091 173.661016 
L 382.026034 173.921994 
L 380.884281 174.640809 
L 378.081206 177.969492 
L 377.188565 179.314797 
L 372.501527 186.6888 
L 370.275495 189.719794 
L 369.417364 190.66382 
L 368.489311 191.327884 
L 368.282242 191.317612 
L 368.154792 191.107316 
L 368.4015 189.907703 
L 369.11031 188.395058 
L 371.15217 185.265355 
L 372.77907 183.277453 
L 374.900529 181.089188 
L 377.122528 179.177764 
L 380.343028 176.982751 
L 381.33228 176.432346 
L 385.457816 174.718452 
L 388.767066 173.996919 
L 390.883516 173.836464 
L 392.595967 173.880757 
L 393.759644 174.00179 
L 395.712703 174.376844 
L 397.587227 174.952196 
L 400.121854 176.115753 
L 401.317175 176.857097 
L 402.837733 178.072634 
L 403.726415 179.047652 
L 404.14056 179.668642 
L 404.538789 180.704511 
L 404.582049 181.135698 
L 404.337093 182.167423 
L 403.891605 182.804497 
L 403.247504 183.356447 
L 402.160945 183.872074 
L 400.811421 184.063495 
L 399.650479 183.955881 
L 397.92202 183.508289 
L 395.686689 182.654661 
L 392.060394 180.97008 
L 388.342744 179.011534 
L 384.652892 176.824543 
L 379.140451 173.457976 
L 377.904327 172.995101 
L 376.896758 172.845857 
L 376.03759 172.958518 
L 375.130214 173.477158 
L 374.662681 174.104668 
L 374.386242 175.122669 
L 374.448507 176.039936 
L 374.755053 176.963268 
L 375.76969 178.440669 
L 377.17621 179.618744 
L 378.499319 180.357908 
L 380.175491 180.989621 
L 382.324281 181.434951 
L 384.161155 181.519073 
L 385.240345 181.387659 
L 385.473156 181.312119 
L 385.530533 181.101994 
L 385.309184 181.042046 
L 384.018956 181.00004 
L 382.318309 181.131733 
L 379.120486 181.578262 
L 371.02046 183.104489 
L 363.710941 184.458781 
L 358.46891 185.200791 
L 351.371537 186.093948 
L 348.420262 186.93178 
L 346.074562 187.999195 
L 343.142473 189.545895 
L 341.688213 190.194386 
L 339.317742 190.771326 
L 338.195378 190.754317 
L 334.408764 188.938393 
L 334.408764 188.938393 
" style="fill:none;stroke:#000000;stroke-linecap:square;stroke-opacity:0.7;stroke-width:1.2;"/>
   </g>
   <g id="line2d_13">
    <path clip-path="url(#p56538c591a)" d="M 359.19385 141.164717 
L 356.156539 145.331841 
L 350.772194 155.972272 
L 350.437314 158.349571 
L 350.508216 159.537382 
L 350.958464 160.995513 
L 351.206925 161.410943 
L 351.760443 162.024752 
L 352.712188 162.575925 
L 355.041141 162.663318 
L 356.246851 162.266367 
L 357.951353 161.284291 
L 359.523494 159.915664 
L 360.674174 158.546543 
L 361.626379 157.035117 
L 362.222445 155.761303 
L 362.882902 153.519489 
L 363.022259 152.638203 
L 363.120496 150.348781 
L 362.817494 147.081547 
L 362.418128 143.644858 
L 362.369251 142.085682 
L 362.634566 139.658783 
L 362.99564 138.424964 
L 363.979332 136.542469 
L 364.136534 136.326543 
L 366.003344 134.552787 
L 367.186675 133.888658 
L 368.401312 133.446801 
L 369.514641 133.218119 
L 371.161308 133.157846 
L 373.167619 133.529653 
L 374.66971 134.168932 
L 375.895285 134.980252 
L 376.497332 135.501895 
L 377.898271 137.172309 
L 378.811348 138.834357 
L 379.224657 139.877093 
L 379.753375 141.80845 
L 380.039187 143.688354 
L 380.150507 146.162213 
L 380.010274 148.720851 
L 379.633659 151.3472 
L 379.202352 153.303697 
L 378.589237 155.332913 
L 377.868162 156.973477 
L 377.422269 157.58456 
L 377.069725 157.775737 
L 376.688435 157.520389 
L 376.483968 157.035023 
L 376.23102 155.693137 
L 376.027569 152.900549 
L 375.622299 144.34233 
L 375.210666 141.500901 
L 374.965232 140.984978 
L 374.939676 141.274555 
L 374.933407 142.438165 
L 374.7183 142.686967 
L 374.310936 142.722821 
L 372.837507 142.324531 
L 367.837349 140.673866 
L 363.165869 139.535123 
L 360.253095 139.082954 
L 358.392237 138.913983 
L 353.219988 139.051992 
L 350.380044 139.625911 
L 348.042811 140.473667 
L 346.515211 141.271271 
L 345.318822 142.069447 
L 343.558841 143.606127 
L 341.877313 145.637558 
L 340.565362 147.79678 
L 339.686819 149.662179 
L 338.853865 151.882013 
L 337.262617 158.08036 
L 335.772971 165.932056 
L 334.968753 168.636962 
L 334.310586 169.724838 
L 332.498175 169.784516 
L 328.900622 164.770063 
L 326.008771 158.824882 
L 326.008771 158.824882 
" style="fill:none;stroke:#000000;stroke-linecap:square;stroke-opacity:0.7;stroke-width:1.2;"/>
   </g>
   <g id="line2d_14">
    <path clip-path="url(#p56538c591a)" d="M 361.049542 118.068492 
L 358.3056 120.549361 
L 353.773449 124.138048 
L 351.875913 125.317713 
L 349.815599 126.140898 
L 348.838421 126.163127 
L 348.087347 125.643292 
L 347.869796 123.939331 
L 348.044949 123.057336 
L 349.201067 120.106225 
L 350.90705 117.165145 
L 352.950152 114.349217 
L 355.219695 111.727203 
L 357.059605 109.887504 
L 360.486906 107.022949 
L 363.988537 104.790377 
L 366.472515 103.64088 
L 369.028591 102.880205 
L 371.618007 102.637546 
L 373.327709 102.851919 
L 374.242234 103.124852 
L 375.738892 103.886722 
L 376.257703 104.268519 
L 377.01193 104.970814 
L 377.961734 106.220394 
L 378.584606 107.541746 
L 378.693906 108.236018 
L 378.505552 108.51971 
L 378.310028 108.536872 
L 377.861374 108.41277 
L 375.975398 107.487469 
L 373.440895 106.305 
L 371.34439 105.50906 
L 368.268178 104.63238 
L 365.606248 104.134957 
L 361.594875 103.829777 
L 358.325748 104.000331 
L 355.679116 104.465349 
L 353.220179 105.243704 
L 351.512306 106.070801 
L 349.957908 107.169247 
L 348.90818 108.284321 
L 348.239525 109.418162 
L 347.963023 110.245993 
L 347.844024 111.351569 
L 348.017341 112.528005 
L 348.44487 113.597898 
L 349.023913 114.509709 
L 349.857759 115.458604 
L 350.962262 116.409041 
L 352.904445 117.668524 
L 355.212396 119.030175 
L 355.456001 119.314929 
L 355.527077 119.682467 
L 355.391261 120.032983 
L 354.741767 120.830465 
L 353.371018 122.401989 
L 352.691702 123.498155 
L 352.300045 124.708896 
L 352.272018 125.301862 
L 352.420846 126.007946 
L 352.690454 126.504796 
L 353.419554 127.147498 
L 354.114257 127.428311 
L 355.148519 127.551349 
L 356.085871 127.452589 
L 357.746478 126.887765 
L 359.130659 126.059205 
L 360.242984 125.139825 
L 361.221219 124.111078 
L 362.103789 122.960637 
L 363.32735 120.856653 
L 364.06723 119.086075 
L 364.707666 116.810368 
L 365.055228 114.28005 
L 365.059903 112.17044 
L 364.736933 109.803102 
L 364.480826 108.790653 
L 363.829751 107.00997 
L 362.855508 105.213834 
L 361.809504 103.825652 
L 358.964319 101.416006 
L 356.759569 100.330326 
L 355.584815 99.938589 
L 353.557065 99.505772 
L 351.558893 99.335801 
L 349.580594 99.385263 
L 347.784518 99.600471 
L 344.4804 100.387569 
L 340.940253 101.764183 
L 338.399905 103.080694 
L 336.306414 104.360665 
L 330.479555 108.367909 
L 328.924339 109.160098 
L 327.758162 109.488685 
L 324.98552 109.169407 
L 319.781767 106.153714 
L 316.147196 103.624321 
L 316.147196 103.624321 
" style="fill:none;stroke:#000000;stroke-linecap:square;stroke-opacity:0.7;stroke-width:1.2;"/>
   </g>
   <g id="line2d_15">
    <path clip-path="url(#p56538c591a)" d="M 361.701986 56.047991 
L 356.214768 67.597438 
L 355.183834 69.381494 
L 353.830709 71.045913 
L 353.301476 71.415542 
L 352.586775 71.610309 
L 351.644425 71.248015 
L 350.849314 70.267305 
L 350.418787 69.392053 
L 349.945895 68.015277 
L 349.479761 65.862625 
L 349.281891 64.314311 
L 349.166023 62.517472 
L 349.242857 59.203011 
L 349.311444 58.468504 
L 350.058424 54.566733 
L 351.02313 52.147167 
L 351.428616 51.479735 
L 352.018382 50.755293 
L 352.616583 50.263863 
L 353.22593 49.976199 
L 353.925228 49.879561 
L 354.720585 50.044703 
L 355.295205 50.33424 
L 355.862428 50.754129 
L 357.233712 52.300998 
L 358.198265 53.830344 
L 359.554884 56.593086 
L 360.879652 59.998975 
L 361.880102 63.090199 
L 362.794884 66.501458 
L 363.316534 69.198968 
L 363.422935 70.734183 
L 363.253867 71.713157 
L 362.925798 72.16978 
L 362.37758 72.389809 
L 361.799831 72.395427 
L 360.678086 72.179485 
L 351.022727 69.634423 
L 348.031431 68.945992 
L 347.434752 68.556923 
L 347.408237 68.500414 
L 347.43407 68.20547 
L 347.598552 67.969365 
L 348.376073 67.349959 
L 349.9724 66.447647 
L 353.63747 64.770576 
L 356.766367 63.549199 
L 360.443305 62.366567 
L 362.578523 61.855715 
L 364.819969 61.533458 
L 366.681145 61.518961 
L 367.642809 61.644179 
L 369.096377 62.087121 
L 370.399127 62.874484 
L 371.374844 63.853911 
L 372.041143 64.827324 
L 372.804916 66.458067 
L 373.280858 68.061898 
L 373.465357 69.289507 
L 373.390857 70.136952 
L 373.260993 70.354665 
L 372.987683 70.470822 
L 372.554156 70.376062 
L 371.865394 70.003111 
L 365.815762 66.06405 
L 363.450474 64.948633 
L 361.169118 64.137497 
L 358.643977 63.538279 
L 357.427119 63.361483 
L 354.041369 63.265256 
L 352.867048 63.375852 
L 350.319775 63.904183 
L 348.944911 64.378533 
L 347.813057 64.88988 
L 346.103172 65.925528 
L 344.52967 67.281013 
L 343.289142 68.824328 
L 342.380828 70.514262 
L 341.872582 71.948914 
L 340.66735 76.380908 
L 340.265741 76.904873 
L 339.309776 77.538523 
L 337.541801 77.964317 
L 335.53418 78.059547 
L 333.657244 77.994684 
L 328.746662 77.524037 
L 316.467121 75.717699 
L 308.702635 74.432195 
L 308.702635 74.432195 
" style="fill:none;stroke:#000000;stroke-linecap:square;stroke-opacity:0.7;stroke-width:1.2;"/>
   </g>
   <g id="line2d_16">
    <path clip-path="url(#p56538c591a)" d="M 478.555835 223.534881 
L 481.402002 229.832249 
L 482.968257 232.543149 
L 484.683031 234.938847 
L 486.10604 236.492041 
L 487.721579 237.793187 
L 489.631257 238.711412 
L 492.026092 238.915644 
L 493.677727 238.419067 
L 496.005241 236.721731 
L 497.13056 235.38694 
L 498.162986 233.752538 
L 498.941605 232.133434 
L 499.797997 229.572311 
L 500.163849 227.529244 
L 500.205832 226.625186 
L 500.014321 225.599302 
L 499.907448 225.521131 
L 499.760899 225.581574 
L 499.489799 226.132176 
L 499.23927 227.559186 
L 499.210374 229.757417 
L 499.431937 231.823916 
L 499.932288 234.052379 
L 500.615359 235.911414 
L 501.509508 237.483991 
L 502.312826 238.392312 
L 502.996616 238.87864 
L 503.662273 239.124078 
L 504.45308 239.10912 
L 505.040726 238.792989 
L 505.275588 238.473245 
L 505.301972 238.035126 
L 505.145928 237.843298 
L 504.64438 237.711936 
L 504.44332 237.722218 
L 503.60723 237.934422 
L 501.936773 238.794044 
L 500.215034 240.022195 
L 498.171549 241.777561 
L 495.476563 244.44311 
L 490.91694 249.050174 
L 489.247019 250.345275 
L 488.360063 251.052353 
L 488.554768 251.169191 
L 492.413421 252.42645 
L 495.249169 253.722905 
L 498.688029 255.560601 
L 506.626533 259.892615 
L 509.944125 261.413677 
L 512.313596 262.275665 
L 513.820024 262.573938 
L 514.504894 262.443399 
L 514.710375 262.211866 
L 514.761041 261.635357 
L 514.266411 260.183741 
L 512.996523 257.759013 
L 509.017553 251.042494 
L 502.35084 240.205853 
L 499.880441 236.464404 
L 498.021402 233.852099 
L 495.819515 231.068146 
L 493.939718 229.019443 
L 491.956414 227.235037 
L 489.662429 225.688772 
L 486.99799 224.589328 
L 484.696426 224.198694 
L 481.935642 224.321787 
L 477.995549 225.391493 
L 474.089313 227.219668 
L 470.941064 229.091763 
L 457.966777 238.979264 
L 453.878644 242.520985 
L 453.878644 242.520985 
" style="fill:none;stroke:#000000;stroke-linecap:square;stroke-opacity:0.7;stroke-width:1.2;"/>
   </g>
   <g id="line2d_17">
    <path clip-path="url(#p56538c591a)" d="M 497.621759 199.388905 
L 484.513936 198.813734 
L 481.582979 198.789814 
L 481.091662 198.653123 
L 480.542882 198.193288 
L 480.310378 197.666936 
L 480.166977 196.350111 
L 480.326218 194.540944 
L 480.794986 192.259918 
L 481.413133 190.136322 
L 482.521515 187.200178 
L 483.610861 184.897844 
L 485.243482 182.137767 
L 486.808285 180.075266 
L 488.630098 178.259216 
L 490.327767 177.065069 
L 491.524493 176.490081 
L 493.365386 176.013206 
L 494.335944 175.954171 
L 495.52201 176.057684 
L 497.20385 176.529081 
L 498.355245 177.067118 
L 499.470627 177.752145 
L 501.564417 179.466097 
L 503.341296 181.351161 
L 505.440761 184.087116 
L 507.152599 186.749056 
L 508.625895 189.423481 
L 509.82248 192.071976 
L 510.163987 192.989709 
L 510.208715 192.918954 
L 510.532885 192.266654 
L 511.097471 191.70426 
L 512.104912 191.169719 
L 512.984072 190.910202 
L 514.651329 190.678928 
L 517.093665 190.646979 
L 520.871805 190.660919 
L 521.860115 190.442557 
L 522.122484 190.180741 
L 522.030895 189.966834 
L 521.664792 189.735551 
L 520.623185 189.440208 
L 519.23121 189.273202 
L 516.834395 189.258731 
L 514.153132 189.519292 
L 511.645849 190.016818 
L 509.711518 190.630034 
L 508.25061 191.351493 
L 507.527566 191.937331 
L 507.275451 192.276099 
L 507.11954 192.795736 
L 507.33672 193.437805 
L 507.647339 193.763564 
L 508.477534 194.267276 
L 509.943249 194.757614 
L 511.559479 195.046328 
L 514.31779 195.171844 
L 516.160305 194.974888 
L 516.693925 194.760053 
L 516.68172 194.601528 
L 516.332556 194.436597 
L 515.495932 194.248149 
L 512.508812 193.865831 
L 499.844363 192.660286 
L 491.486212 192.011782 
L 482.325799 191.555939 
L 470.65687 191.145469 
L 466.939672 190.92534 
L 466.939672 190.92534 
" style="fill:none;stroke:#000000;stroke-linecap:square;stroke-opacity:0.7;stroke-width:1.2;"/>
   </g>
   <g id="line2d_18">
    <path clip-path="url(#p56538c591a)" d="M 486.067912 147.242808 
L 480.055332 153.585892 
L 474.404172 159.60683 
L 473.075966 160.673066 
L 472.191505 160.980597 
L 472.023782 160.928212 
L 471.824508 160.629348 
L 471.813444 160.296534 
L 472.198676 159.245665 
L 472.981813 158.158536 
L 474.475979 156.678425 
L 477.158777 154.242165 
L 478.325844 152.814522 
L 479.091437 151.36364 
L 479.448743 150.169116 
L 479.624486 148.491052 
L 479.445757 146.413163 
L 478.966854 144.401556 
L 478.108541 141.96337 
L 477.514046 140.168676 
L 477.526817 139.51756 
L 477.617603 139.548626 
L 478.008621 140.168022 
L 481.056995 145.538546 
L 482.955705 148.406344 
L 484.502367 150.470909 
L 486.604777 152.884444 
L 488.236475 154.430525 
L 489.973698 155.733596 
L 491.488611 156.546165 
L 493.121007 157.027503 
L 494.172005 157.078926 
L 494.916004 156.967124 
L 495.971347 156.542271 
L 496.615875 156.071541 
L 497.153357 155.448579 
L 497.305831 154.999412 
L 497.173539 154.91517 
L 496.319712 154.810221 
L 495.919229 154.480025 
L 495.416281 153.71486 
L 494.837314 152.415156 
L 492.971981 147.659918 
L 492.48175 146.882691 
L 491.880953 146.434708 
L 491.339753 146.515002 
L 491.001479 146.765657 
L 490.084047 147.958322 
L 487.567863 152.034933 
L 486.318903 153.700168 
L 485.441882 154.678344 
L 484.319839 155.719134 
L 482.273257 157.096484 
L 480.132022 157.957777 
L 476.917387 158.415994 
L 474.604529 158.273137 
L 472.12847 157.780185 
L 468.002853 156.347336 
L 462.144481 153.335342 
L 455.373867 148.840893 
L 455.373867 148.840893 
" style="fill:none;stroke:#000000;stroke-linecap:square;stroke-opacity:0.7;stroke-width:1.2;"/>
   </g>
   <g id="line2d_19">
    <path clip-path="url(#p56538c591a)" d="M 508.1026 102.64781 
L 502.278276 111.500649 
L 500.424028 114.664466 
L 498.870254 117.669104 
L 497.580582 121.091793 
L 497.464066 122.92167 
L 498.056092 123.629937 
L 498.609543 123.630135 
L 499.334778 123.29111 
L 500.163067 122.49878 
L 500.985009 121.027946 
L 501.407453 119.598891 
L 502.595284 114.500329 
L 503.071738 113.684441 
L 503.944848 112.728942 
L 505.144978 111.926345 
L 506.636714 111.301043 
L 508.334877 110.82576 
L 517.433296 108.717121 
L 519.197412 108.257689 
L 519.53265 108.246696 
L 520.262826 108.536084 
L 520.711223 109.185164 
L 520.968186 109.88691 
L 521.353097 111.737257 
L 521.625344 114.055089 
L 521.839979 117.695405 
L 521.820673 120.06928 
L 521.615125 121.417835 
L 521.317276 121.843443 
L 521.093329 121.876965 
L 520.663258 121.691257 
L 519.67515 120.875708 
L 516.73132 118.316702 
L 514.793043 116.914743 
L 512.790481 115.67365 
L 509.444674 113.934274 
L 505.232836 111.870111 
L 505.060965 111.599707 
L 505.217826 111.426903 
L 506.091615 111.222317 
L 508.589382 111.067166 
L 514.564454 111.022315 
L 516.724171 110.9189 
L 515.729522 110.60576 
L 513.950721 110.059633 
L 508.883413 107.969743 
L 507.448194 107.218086 
L 503.957377 105.085967 
L 498.95749 101.591295 
L 497.432689 100.786127 
L 496.544137 100.564686 
L 495.309023 100.807475 
L 494.807499 101.156522 
L 493.368051 103.129854 
L 492.243535 105.640634 
L 490.898587 109.488095 
L 487.431834 121.601436 
L 487.431834 121.601436 
" style="fill:none;stroke:#000000;stroke-linecap:square;stroke-opacity:0.7;stroke-width:1.2;"/>
   </g>
   <g id="line2d_20">
    <path clip-path="url(#p56538c591a)" d="M 494.41979 41.836585 
L 493.194001 58.213653 
L 493.686266 61.305628 
L 494.205773 63.25405 
L 494.985 65.309249 
L 498.769945 70.54745 
L 500.950282 72.148908 
L 502.938309 73.165173 
L 504.201179 73.648091 
L 506.946804 74.35403 
L 508.480914 74.573391 
L 512.583603 74.604146 
L 515.422816 74.075523 
L 516.759537 73.549436 
L 517.714504 72.885256 
L 518.199503 72.173392 
L 518.311335 71.670792 
L 518.235404 70.924605 
L 517.637523 69.416846 
L 517.123126 68.09301 
L 516.988878 67.134648 
L 517.084991 66.449964 
L 517.424205 65.69024 
L 518.023871 64.950046 
L 519.37177 63.893115 
L 521.202847 62.838911 
L 525.318793 60.584649 
L 525.747235 60.309466 
L 527.335228 59.141337 
L 528.874196 57.678676 
L 530.161789 56.045637 
L 531.059993 54.55514 
L 531.907395 52.733245 
L 532.373386 51.476685 
L 533.021552 49.270936 
L 533.848464 45.187724 
L 534.221274 43.161312 
L 534.257833 43.260832 
L 534.234481 45.77526 
L 533.926812 51.477845 
L 533.433149 57.389871 
L 532.671546 63.916591 
L 531.605209 70.545031 
L 530.625332 75.180776 
L 529.825712 78.285731 
L 528.628592 82.116645 
L 527.519563 85.006388 
L 525.978843 88.235181 
L 523.600558 91.899849 
L 522.38046 93.304846 
L 520.714878 94.809752 
L 519.895373 95.397768 
L 518.092349 96.382493 
L 516.32618 96.979939 
L 515.514532 97.143525 
L 513.140962 97.246514 
L 511.628305 97.023289 
L 510.01921 96.516474 
L 508.760961 95.873884 
L 508.018969 95.337509 
L 507.075384 94.207677 
L 506.888986 93.50514 
L 506.997119 92.958012 
L 507.334664 92.469327 
L 507.667227 92.181887 
L 508.882466 91.533625 
L 511.781083 90.596383 
L 514.73064 89.680116 
L 515.629233 89.343337 
L 518.234254 88.038813 
L 519.758694 86.862689 
L 520.726233 85.783153 
L 521.428048 84.660858 
L 521.797468 83.826023 
L 522.375819 80.664234 
L 522.376742 80.124501 
L 522.189959 78.076276 
L 521.966409 76.89202 
L 519.23353 69.359417 
L 517.446731 65.822403 
L 513.436762 58.868191 
L 511.605361 55.949158 
L 509.648921 53.188072 
L 508.792947 52.910211 
L 508.744942 53.394268 
L 508.995328 55.669503 
L 510.927376 65.815767 
L 517.630866 98.895037 
L 517.630866 98.895037 
" style="fill:none;stroke:#000000;stroke-linecap:square;stroke-opacity:0.7;stroke-width:1.2;"/>
   </g>
   <g id="line2d_21">
    <path clip-path="url(#p56538c591a)" d="M 616.063545 248.607792 
L 615.694411 245.949698 
L 617.007187 240.318219 
L 618.004396 237.962153 
L 619.615622 234.774809 
L 622.868823 229.311158 
L 625.387291 225.495119 
L 629.7499 219.292481 
L 630.323888 218.619722 
L 630.360205 218.656215 
L 630.085135 219.446804 
L 628.477339 223.514538 
L 627.236577 227.230064 
L 626.168729 231.350166 
L 625.623741 234.483194 
L 625.424087 236.86165 
L 625.53377 239.339155 
L 625.883135 240.799605 
L 626.29815 241.654454 
L 626.749197 242.206345 
L 627.502667 242.703768 
L 628.36323 242.91566 
L 630.276014 242.695173 
L 632.479277 241.846029 
L 634.867754 240.58181 
L 639.18676 237.930352 
L 646.223361 233.517132 
L 651.126265 230.704409 
L 655.454523 228.500298 
L 659.271343 226.808206 
L 661.387937 225.877251 
L 661.334843 225.852679 
L 659.838995 225.891288 
L 657.410284 225.892684 
L 655.491935 225.675716 
L 654.780246 225.49041 
L 654.106364 225.175461 
L 653.708008 224.714718 
L 653.678283 224.366391 
L 653.946574 223.822391 
L 654.403648 223.364985 
L 655.378499 222.703613 
L 657.440982 221.741541 
L 658.846559 221.252649 
L 661.364281 220.618606 
L 663.13363 220.375874 
L 664.341858 220.371618 
L 665.108182 220.561661 
L 665.304836 220.748958 
L 665.29227 221.036629 
L 665.009953 221.372178 
L 664.088523 221.938111 
L 662.779758 222.465552 
L 660.392235 223.121522 
L 657.060706 223.66425 
L 653.380932 223.875244 
L 651.336444 223.813315 
L 648.665008 223.486903 
L 646.860868 223.014983 
L 645.853309 222.53215 
L 645.454034 222.084322 
L 645.468542 221.879156 
L 645.629696 221.706918 
L 646.463108 221.470899 
L 648.031453 221.486354 
L 649.896214 221.768882 
L 651.851951 222.245824 
L 653.761774 222.855893 
L 656.25618 223.883792 
L 658.163662 224.944662 
L 659.791535 226.455887 
L 659.996327 226.896963 
L 660.047939 227.392752 
L 659.4593 228.315983 
L 658.384965 228.851814 
L 656.313072 229.25734 
L 654.239695 229.328443 
L 651.924592 229.183075 
L 648.473073 228.666352 
L 645.473213 227.999424 
L 639.698085 226.291466 
L 636.291059 225.079736 
L 632.397528 223.550419 
L 619.763408 217.84656 
L 612.071784 214.028062 
L 612.071784 214.028062 
" style="fill:none;stroke:#000000;stroke-linecap:square;stroke-opacity:0.7;stroke-width:1.2;"/>
   </g>
   <g id="line2d_22">
    <path clip-path="url(#p56538c591a)" d="M 639.209467 197.726526 
L 632.999375 204.439324 
L 631.916039 205.894272 
L 631.692324 206.585584 
L 632.475405 207.05863 
L 633.92856 206.942436 
L 636.808757 206.340251 
L 646.762595 203.950999 
L 649.54832 203.479504 
L 651.625546 203.337436 
L 652.960415 203.529588 
L 653.332496 203.727257 
L 653.623497 204.229641 
L 653.553157 204.726029 
L 653.166487 205.440653 
L 651.896164 206.84919 
L 650.629864 207.951996 
L 648.37165 209.66723 
L 643.039307 213.265401 
L 640.49289 215.096335 
L 640.340684 215.317883 
L 640.360886 215.335719 
L 640.520519 215.313825 
L 641.4305 214.843801 
L 643.077067 213.61399 
L 644.471369 212.249912 
L 645.78226 210.577124 
L 646.610074 209.161517 
L 647.17811 207.813105 
L 647.570367 206.249844 
L 647.671887 204.772698 
L 647.550667 203.508126 
L 647.102484 201.719052 
L 645.41149 196.854655 
L 644.227005 193.763224 
L 643.338998 191.979462 
L 642.173362 190.234965 
L 640.825122 188.810399 
L 639.706273 187.967101 
L 638.312473 187.233869 
L 637.600316 186.970036 
L 634.338264 186.524456 
L 632.331215 186.794257 
L 630.851895 187.256988 
L 629.623773 187.833766 
L 628.196464 188.779225 
L 626.904175 190.004566 
L 625.797708 191.566585 
L 625.386434 192.399366 
L 624.812973 194.286852 
L 624.7003 195.082448 
L 624.742017 197.343275 
L 625.161797 199.270579 
L 625.963234 201.329322 
L 626.523073 202.59998 
L 626.484131 202.704844 
L 626.17333 202.632928 
L 621.235709 200.271207 
L 618.918789 199.535839 
L 617.441054 199.235795 
L 615.939395 199.092045 
L 613.546536 199.284111 
L 611.721323 199.898847 
L 610.19059 200.87011 
L 609.048632 202.001933 
L 607.817226 203.902918 
L 607.412768 204.820919 
L 606.935089 206.388767 
L 606.748281 207.476523 
L 606.688649 208.776528 
L 606.883481 210.185274 
L 607.59609 211.583613 
L 608.374687 212.142985 
L 610.74396 212.087506 
L 614.435584 209.956215 
L 618.840787 205.994493 
L 622.287741 202.307984 
L 624.971973 199.20434 
L 629.571599 193.553252 
L 629.571599 193.553252 
" style="fill:none;stroke:#000000;stroke-linecap:square;stroke-opacity:0.7;stroke-width:1.2;"/>
   </g>
   <g id="line2d_23">
    <path clip-path="url(#p56538c591a)" d="M 628.06169 150.867822 
L 626.50176 152.11324 
L 625.161955 151.978013 
L 621.863202 150.1957 
L 619.585512 148.263498 
L 617.073507 145.556164 
L 615.352012 143.259076 
L 613.954465 140.956316 
L 612.805552 138.415094 
L 612.27475 136.60228 
L 612.045622 134.342053 
L 612.343678 132.587373 
L 612.848561 131.533173 
L 613.654661 130.612422 
L 615.289445 129.713462 
L 616.447213 129.458836 
L 617.676001 129.404783 
L 618.763984 129.501598 
L 620.36852 129.850127 
L 622.363025 130.581654 
L 625.760632 132.527581 
L 626.835929 133.328272 
L 628.762295 135.002498 
L 629.977745 136.232001 
L 632.339607 139.071633 
L 634.511392 142.348022 
L 636.812555 146.851244 
L 638.043981 149.960307 
L 639.397975 154.431175 
L 640.356322 159.098835 
L 640.810357 162.796208 
L 640.962282 165.469912 
L 640.897576 167.381313 
L 640.813463 167.065296 
L 640.229916 163.726581 
L 639.733865 162.180358 
L 638.999556 160.649418 
L 637.967896 159.17246 
L 636.81536 157.970737 
L 634.902044 156.476051 
L 632.535074 155.00322 
L 628.998191 152.844262 
L 627.34376 151.514105 
L 626.43305 150.473348 
L 626.020121 149.81147 
L 625.5868 148.706306 
L 625.434004 147.678848 
L 625.512486 146.475895 
L 625.909973 145.037155 
L 626.099897 144.571245 
L 627.034057 142.835422 
L 627.925914 141.554946 
L 629.448948 139.740642 
L 631.286022 137.903967 
L 633.616925 135.946885 
L 635.61733 134.593014 
L 636.905187 133.968156 
L 637.730761 133.803257 
L 638.036776 133.872317 
L 638.260787 134.083231 
L 638.34508 134.745638 
L 638.074121 135.769825 
L 637.268699 137.509734 
L 636.162486 139.418966 
L 633.70184 143.08164 
L 630.734876 147.031041 
L 627.793626 150.908819 
L 627.090441 152.306301 
L 627.029885 153.12294 
L 627.46172 154.115439 
L 628.323494 155.172148 
L 630.222228 157.346706 
L 631.583954 159.275019 
L 632.53767 161.092406 
L 633.050907 162.477816 
L 633.272837 163.330541 
L 633.481919 164.924125 
L 633.480056 165.624971 
L 633.077312 167.614052 
L 632.789756 168.233683 
L 632.156887 169.124124 
L 631.427172 169.766608 
L 630.495436 170.26745 
L 629.223581 170.595716 
L 627.735368 170.634534 
L 624.814417 170.004341 
L 622.610855 169.109535 
L 614.378806 164.123544 
L 599.732521 153.758276 
L 593.436517 149.569993 
L 593.436517 149.569993 
" style="fill:none;stroke:#000000;stroke-linecap:square;stroke-opacity:0.7;stroke-width:1.2;"/>
   </g>
   <g id="line2d_24">
    <path clip-path="url(#p56538c591a)" d="M 621.460878 120.216259 
L 620.203567 118.548205 
L 619.489304 116.937953 
L 618.996704 115.16981 
L 618.809698 113.870619 
L 618.784401 112.719366 
L 618.952292 111.480712 
L 619.281876 110.552862 
L 619.683785 109.922821 
L 620.352333 109.334865 
L 620.950322 109.067026 
L 622.059245 108.957147 
L 623.339945 109.290851 
L 624.105182 109.728697 
L 624.767225 110.368597 
L 624.950843 110.928385 
L 624.887212 111.019675 
L 624.710303 111.067869 
L 624.476108 111.015986 
L 623.876637 110.618705 
L 623.252426 109.828233 
L 623.01919 109.351535 
L 622.770381 108.308 
L 622.840585 107.353529 
L 623.273155 106.362001 
L 624.007469 105.576085 
L 624.806583 105.075236 
L 625.715063 104.719415 
L 627.420598 104.395154 
L 629.245843 104.345993 
L 631.961048 104.580426 
L 634.878006 104.829429 
L 635.726491 104.702961 
L 636.161503 104.49111 
L 636.575447 103.978938 
L 636.756328 103.198801 
L 636.826679 102.522919 
L 636.907889 102.56572 
L 637.228037 103.188918 
L 638.617832 106.630006 
L 640.897362 112.856692 
L 642.270699 117.039808 
L 643.506458 121.497553 
L 644.097258 124.428196 
L 644.336934 126.79788 
L 644.263615 128.50496 
L 643.977204 129.690035 
L 643.40874 130.69524 
L 642.641814 131.336533 
L 641.829113 131.659058 
L 640.92076 131.791674 
L 639.537208 131.721723 
L 638.087987 131.42398 
L 636.260799 130.822602 
L 634.125377 129.854355 
L 632.303508 128.765773 
L 630.990083 127.694147 
L 630.522957 127.156117 
L 630.074731 126.228089 
L 630.042172 125.713997 
L 630.203196 125.052883 
L 630.810834 123.473193 
L 630.93494 122.626586 
L 630.826352 121.39006 
L 630.521073 120.316048 
L 629.987697 119.072746 
L 629.094926 117.4927 
L 627.413428 115.146309 
L 625.212599 112.653647 
L 623.960611 111.418237 
L 621.527133 109.297753 
L 618.092509 106.816591 
L 614.866327 104.943581 
L 612.409694 103.7778 
L 609.276829 102.580047 
L 606.891623 101.85938 
L 603.26968 101.031066 
L 599.161968 100.417087 
L 596.636869 100.229296 
L 594.683883 100.334016 
L 594.069794 100.570188 
L 594.069794 100.570188 
" style="fill:none;stroke:#000000;stroke-linecap:square;stroke-opacity:0.7;stroke-width:1.2;"/>
   </g>
   <g id="line2d_25">
    <path clip-path="url(#p56538c591a)" d="M 639.130734 69.13838 
L 637.453897 70.333916 
L 634.700639 72.096058 
L 631.043968 74.019029 
L 629.097227 74.8385 
L 625.191086 76.020369 
L 623.161156 76.361274 
L 621.330513 76.476977 
L 619.732293 76.39737 
L 617.662864 75.960125 
L 616.09998 75.250039 
L 615.407846 74.761707 
L 614.317028 73.555572 
L 613.731574 72.294479 
L 613.528506 71.188067 
L 613.549207 70.15549 
L 613.865982 68.771912 
L 614.606698 67.262342 
L 615.244774 66.419166 
L 616.034979 65.653241 
L 617.231265 64.880398 
L 618.251583 64.509373 
L 619.208565 64.377277 
L 620.413647 64.503152 
L 621.360424 64.837302 
L 622.253519 65.353327 
L 623.230351 66.164458 
L 624.087382 67.154949 
L 624.670909 68.177355 
L 624.85842 69.008193 
L 624.780233 69.583176 
L 624.48267 70.199868 
L 623.766912 71.063261 
L 619.948745 75.079226 
L 619.122419 76.429839 
L 618.791279 77.296712 
L 618.678871 77.998172 
L 618.74066 78.593373 
L 619.018744 79.156321 
L 619.410909 79.511457 
L 620.080496 79.798214 
L 620.562122 79.886013 
L 621.905198 79.853402 
L 623.681946 79.431368 
L 625.590194 78.657251 
L 627.310644 77.727796 
L 629.097049 76.544056 
L 630.996824 75.026649 
L 632.657575 73.440847 
L 634.365946 71.458049 
L 635.879028 69.160076 
L 636.594562 67.604709 
L 636.939112 66.330541 
L 636.987705 65.430942 
L 636.773685 64.602176 
L 636.407853 64.139736 
L 636.136442 63.961738 
L 635.215527 63.762649 
L 634.272715 63.882547 
L 633.261906 64.212273 
L 631.84682 64.902081 
L 629.848055 66.18026 
L 627.602705 67.881691 
L 622.440916 71.933158 
L 620.850826 72.91424 
L 619.104404 73.711263 
L 617.363516 74.478854 
L 616.229747 75.393959 
L 614.230007 77.147992 
L 613.119086 77.965723 
L 610.78659 79.358165 
L 608.456604 80.375571 
L 606.972532 80.837219 
L 605.035248 81.20757 
L 603.123508 81.282201 
L 601.840025 81.14283 
L 600.193478 80.696291 
L 598.044953 79.539734 
L 596.520268 78.188418 
L 594.249668 74.920849 
L 594.249668 74.920849 
" style="fill:none;stroke:#000000;stroke-linecap:square;stroke-opacity:0.7;stroke-width:1.2;"/>
   </g>
  </g>
 </g>
 <defs>
  <clipPath id="p56538c591a">
   <rect height="262.08" width="694.08" x="12.96" y="12.96"/>
  </clipPath>
 </defs>
</svg>
