<?xml version="1.0" encoding="utf-8" standalone="no"?>
<!DOCTYPE svg PUBLIC "-//W3C//DTD SVG 1.1//EN"
  "http://www.w3.org/Graphics/SVG/1.1/DTD/svg11.dtd">
<!-- Created with matplotlib (https://matplotlib.org/) -->
<svg height="288pt" version="1.1" viewBox="0 0 720 288" width="720pt" xmlns="http://www.w3.org/2000/svg" xmlns:xlink="http://www.w3.org/1999/xlink">
 <metadata>
  <rdf:RDF xmlns:cc="http://creativecommons.org/ns#" xmlns:dc="http://purl.org/dc/elements/1.1/" xmlns:rdf="http://www.w3.org/1999/02/22-rdf-syntax-ns#">
   <cc:Work>
    <dc:type rdf:resource="http://purl.org/dc/dcmitype/StillImage"/>
    <dc:date>2021-05-06T21:05:12.366399</dc:date>
    <dc:format>image/svg+xml</dc:format>
    <dc:creator>
     <cc:Agent>
      <dc:title>Matplotlib v3.3.4, https://matplotlib.org/</dc:title>
     </cc:Agent>
    </dc:creator>
   </cc:Work>
  </rdf:RDF>
 </metadata>
 <defs>
  <style type="text/css">*{stroke-linecap:butt;stroke-linejoin:round;}</style>
 </defs>
 <g id="figure_1">
  <g id="patch_1">
   <path d="M 0 288 
L 720 288 
L 720 0 
L 0 0 
z
" style="fill:#ffffff;"/>
  </g>
  <g id="axes_1">
   <g id="line2d_1">
    <path clip-path="url(#p5f75b78024)" d="M 102.535909 229.736887 
L 92.855755 228.080384 
L 86.173777 227.181089 
L 79.605354 226.54089 
L 73.120825 226.14647 
L 66.887734 225.985801 
L 61.783868 226.073618 
L 57.921075 226.381249 
L 54.651117 226.889179 
L 51.497356 227.643135 
L 48.627728 228.601567 
L 46.773831 229.418197 
L 45.520183 230.148375 
L 44.90012 230.724184 
L 44.860475 230.999994 
L 45.062493 231.138399 
L 45.642902 231.207478 
L 47.142424 231.091584 
L 51.23017 230.445318 
L 59.593971 229.110876 
L 64.167299 228.612308 
L 68.489643 228.386237 
L 73.535195 228.356195 
L 81.829523 228.542238 
L 89.956765 228.925723 
L 97.562889 229.522784 
L 102.532244 230.002621 
L 102.532244 230.002621 
" style="fill:none;stroke:#000000;stroke-linecap:square;stroke-opacity:0.7;stroke-width:1.2;"/>
   </g>
   <g id="line2d_2">
    <path clip-path="url(#p5f75b78024)" d="M 102.32127 211.021855 
L 95.811905 209.517239 
L 90.229303 208.46243 
L 84.866109 207.698675 
L 79.49321 207.146666 
L 73.237368 206.729363 
L 67.686421 206.555599 
L 62.33951 206.602209 
L 58.185583 206.871015 
L 55.049906 207.28979 
L 52.173435 207.898502 
L 49.653981 208.656863 
L 47.599335 209.48314 
L 46.240873 210.18879 
L 45.14769 210.975071 
L 44.821769 211.454939 
L 44.922238 211.698219 
L 45.186474 211.805759 
L 45.976926 211.854922 
L 47.811784 211.675209 
L 52.396642 210.911542 
L 60.841486 209.505474 
L 64.95339 209.03176 
L 69.057378 208.779809 
L 73.628732 208.714997 
L 79.791156 208.861254 
L 85.699496 209.211487 
L 92.062195 209.835177 
L 99.637251 210.840098 
L 102.308808 211.225174 
L 102.308808 211.225174 
" style="fill:none;stroke:#000000;stroke-linecap:square;stroke-opacity:0.7;stroke-width:1.2;"/>
   </g>
   <g id="line2d_3">
    <path clip-path="url(#p5f75b78024)" d="M 102.251925 192.141707 
L 95.76378 190.774547 
L 89.968342 189.763875 
L 83.992653 188.962467 
L 77.180505 188.2965 
L 70.062981 187.817127 
L 64.037417 187.634426 
L 60.202183 187.717893 
L 56.976197 187.980263 
L 54.072336 188.415444 
L 51.182937 189.086088 
L 48.607461 189.94778 
L 46.64568 190.857298 
L 45.468503 191.61318 
L 44.890598 192.178494 
L 44.740803 192.592205 
L 44.909212 192.839509 
L 45.514141 193.018005 
L 46.824285 193.038936 
L 50.181255 192.708157 
L 62.193178 191.278354 
L 66.751413 190.990008 
L 72.239585 190.878611 
L 80.731845 190.96298 
L 88.856324 191.255111 
L 96.140587 191.755194 
L 102.269917 192.316969 
L 102.269917 192.316969 
" style="fill:none;stroke:#000000;stroke-linecap:square;stroke-opacity:0.7;stroke-width:1.2;"/>
   </g>
   <g id="line2d_4">
    <path clip-path="url(#p5f75b78024)" d="M 102.412531 173.398712 
L 96.708692 171.900334 
L 91.704767 170.818763 
L 86.570298 169.959636 
L 81.154249 169.28579 
L 74.636569 168.716235 
L 68.919106 168.421702 
L 64.143703 168.368088 
L 60.330908 168.507203 
L 56.517423 168.873705 
L 53.167247 169.450633 
L 50.329864 170.192609 
L 47.916383 171.084401 
L 46.087321 172.032594 
L 45.202033 172.721716 
L 44.973014 173.094745 
L 45.068645 173.337664 
L 45.45692 173.472751 
L 46.420248 173.505689 
L 48.718748 173.31153 
L 61.122177 172.007708 
L 66.541642 171.739768 
L 73.213987 171.660105 
L 82.368657 171.784663 
L 88.792974 172.08248 
L 94.930629 172.605964 
L 101.567605 173.405422 
L 102.407014 173.51859 
L 102.407014 173.51859 
" style="fill:none;stroke:#000000;stroke-linecap:square;stroke-opacity:0.7;stroke-width:1.2;"/>
   </g>
   <g id="line2d_5">
    <path clip-path="url(#p5f75b78024)" d="M 102.228461 153.727444 
L 92.18391 151.878287 
L 85.538726 150.86226 
L 79.310985 150.12542 
L 72.889727 149.595356 
L 66.997567 149.323773 
L 61.676331 149.292623 
L 57.34259 149.499235 
L 54.57009 149.814351 
L 51.722496 150.373547 
L 49.745932 150.963893 
L 47.910643 151.728119 
L 46.439025 152.583604 
L 45.75497 153.149577 
L 45.526984 153.631608 
L 45.676035 153.721258 
L 46.191225 153.73652 
L 47.984053 153.484191 
L 52.814163 152.796326 
L 57.072205 152.424299 
L 61.542872 152.288365 
L 66.511098 152.399961 
L 75.991781 152.923024 
L 88.576244 153.528027 
L 102.207965 154.008137 
L 102.207965 154.008137 
" style="fill:none;stroke:#000000;stroke-linecap:square;stroke-opacity:0.7;stroke-width:1.2;"/>
   </g>
   <g id="line2d_6">
    <path clip-path="url(#p5f75b78024)" d="M 102.380253 134.613513 
L 91.175574 132.777455 
L 83.540339 131.7676 
L 75.823486 130.974844 
L 68.588266 130.444224 
L 63.616428 130.259612 
L 59.698476 130.338515 
L 56.478767 130.651462 
L 53.470484 131.202589 
L 50.608213 132.000079 
L 48.614211 132.752535 
L 46.687478 133.71779 
L 45.645154 134.459338 
L 45.197976 135.019334 
L 45.207918 135.37078 
L 45.386537 135.530537 
L 45.944653 135.697581 
L 47.458463 135.755992 
L 50.133297 135.575614 
L 65.141811 134.266407 
L 69.908569 134.168247 
L 77.509119 134.261429 
L 101.431095 134.866309 
L 102.384308 134.89511 
L 102.384308 134.89511 
" style="fill:none;stroke:#000000;stroke-linecap:square;stroke-opacity:0.7;stroke-width:1.2;"/>
   </g>
   <g id="line2d_7">
    <path clip-path="url(#p5f75b78024)" d="M 102.381524 115.837668 
L 95.260097 114.397987 
L 88.443212 113.262963 
L 79.409515 112.035381 
L 69.493056 110.899817 
L 64.223559 110.504092 
L 61.017513 110.453723 
L 57.812783 110.645173 
L 55.29159 111.010075 
L 52.832613 111.569453 
L 50.552838 112.283318 
L 48.422803 113.147412 
L 46.444681 114.190427 
L 45.30592 115.008547 
L 44.759261 115.660302 
L 44.731489 116.038943 
L 45.032005 116.298677 
L 45.717905 116.465439 
L 47.010854 116.523356 
L 50.059568 116.3579 
L 58.971666 115.489602 
L 65.041017 115.015792 
L 70.055962 114.84588 
L 76.053067 114.888889 
L 85.568903 115.214586 
L 100.733214 115.983281 
L 102.396394 116.069295 
L 102.396394 116.069295 
" style="fill:none;stroke:#000000;stroke-linecap:square;stroke-opacity:0.7;stroke-width:1.2;"/>
   </g>
   <g id="line2d_8">
    <path clip-path="url(#p5f75b78024)" d="M 102.360909 96.722306 
L 92.936512 94.987746 
L 85.193787 93.770842 
L 77.589634 92.785065 
L 69.68873 91.98861 
L 64.342336 91.638273 
L 60.552222 91.585069 
L 57.676625 91.739033 
L 55.147097 92.061372 
L 52.345977 92.6549 
L 50.049955 93.351501 
L 48.012895 94.167646 
L 46.255001 95.113861 
L 45.341271 95.85953 
L 45.13956 96.283251 
L 45.275804 96.514675 
L 45.693853 96.666337 
L 46.601469 96.732793 
L 48.650732 96.632952 
L 61.457399 95.664055 
L 66.555028 95.607412 
L 72.864891 95.801656 
L 99.258558 96.873213 
L 102.384103 96.960346 
L 102.384103 96.960346 
" style="fill:none;stroke:#000000;stroke-linecap:square;stroke-opacity:0.7;stroke-width:1.2;"/>
   </g>
   <g id="line2d_9">
    <path clip-path="url(#p5f75b78024)" d="M 102.285323 77.906305 
L 89.975427 75.45986 
L 80.059126 73.709374 
L 70.359202 72.217502 
L 64.963047 71.583519 
L 61.20779 71.378147 
L 58.124763 71.457596 
L 56.406318 71.625794 
L 53.768283 72.085028 
L 51.284457 72.772349 
L 49.063442 73.641816 
L 47.545754 74.418772 
L 45.999115 75.451344 
L 45.190376 76.183635 
L 44.633581 76.955372 
L 44.509091 77.443978 
L 44.658323 77.853708 
L 45.032267 78.123697 
L 45.579195 78.297204 
L 46.781813 78.434242 
L 49.060448 78.419281 
L 54.238232 78.078822 
L 62.963499 77.493184 
L 68.735965 77.335418 
L 75.559742 77.400638 
L 89.587563 77.821108 
L 99.958322 78.025157 
L 102.288985 78.016935 
L 102.288985 78.016935 
" style="fill:none;stroke:#000000;stroke-linecap:square;stroke-opacity:0.7;stroke-width:1.2;"/>
   </g>
   <g id="line2d_10">
    <path clip-path="url(#p5f75b78024)" d="M 102.254644 58.936263 
L 94.143946 57.090612 
L 86.359764 55.543283 
L 75.72845 53.685321 
L 67.743982 52.477513 
L 64.094237 52.120091 
L 60.804332 52.033232 
L 58.295843 52.172557 
L 55.945118 52.496165 
L 53.492213 53.060928 
L 51.226211 53.819251 
L 48.977708 54.844576 
L 47.451848 55.747099 
L 46.114796 56.761552 
L 45.235874 57.694592 
L 44.872474 58.420319 
L 44.889113 58.838883 
L 45.158702 59.18314 
L 45.588797 59.400744 
L 46.666267 59.62176 
L 48.49721 59.707391 
L 51.613154 59.612323 
L 59.416906 59.074492 
L 67.281831 58.616836 
L 74.188655 58.473691 
L 83.940665 58.53616 
L 95.214251 58.841379 
L 102.282334 59.053172 
L 102.282334 59.053172 
" style="fill:none;stroke:#000000;stroke-linecap:square;stroke-opacity:0.7;stroke-width:1.2;"/>
   </g>
   <g id="line2d_11">
    <path clip-path="url(#p5f75b78024)" d="M 165.940936 230.241277 
L 160.1102 228.87567 
L 155.389433 227.986383 
L 150.702054 227.318973 
L 145.291887 226.760254 
L 138.132427 226.24602 
L 130.43546 225.909893 
L 125.174746 225.890799 
L 121.317726 226.119884 
L 118.100142 226.567086 
L 115.217885 227.223848 
L 113.246435 227.841265 
L 111.225984 228.656165 
L 109.552245 229.552894 
L 108.74995 230.163925 
L 108.456941 230.624528 
L 108.553007 230.81893 
L 108.795758 230.912558 
L 109.557036 230.94023 
L 111.298002 230.721503 
L 115.914908 229.823365 
L 123.836021 228.314551 
L 128.512766 227.670759 
L 132.841898 227.31494 
L 138.285388 227.137787 
L 143.917347 227.188625 
L 148.683933 227.443909 
L 153.081309 227.911847 
L 157.211395 228.570527 
L 162.454472 229.642593 
L 165.960878 230.439821 
L 165.960878 230.439821 
" style="fill:none;stroke:#000000;stroke-linecap:square;stroke-opacity:0.7;stroke-width:1.2;"/>
   </g>
   <g id="line2d_12">
    <path clip-path="url(#p5f75b78024)" d="M 166.028884 211.082775 
L 159.924678 209.727015 
L 154.535298 208.734555 
L 149.220112 207.982671 
L 143.781545 207.432641 
L 137.617739 207.037636 
L 131.897334 206.887147 
L 127.100169 206.965082 
L 123.009921 207.241417 
L 119.437621 207.705077 
L 116.398437 208.317542 
L 113.693988 209.086075 
L 111.526646 209.920122 
L 110.040106 210.690443 
L 109.122466 211.391488 
L 108.870628 211.782048 
L 108.925264 212.07885 
L 109.236282 212.26874 
L 110.077722 212.404916 
L 111.795698 212.382326 
L 115.593359 212.03143 
L 127.969003 210.755066 
L 133.192664 210.4828 
L 141.914192 210.295281 
L 150.595287 210.306764 
L 156.730804 210.537992 
L 162.724817 210.98056 
L 166.04113 211.302236 
L 166.04113 211.302236 
" style="fill:none;stroke:#000000;stroke-linecap:square;stroke-opacity:0.7;stroke-width:1.2;"/>
   </g>
   <g id="line2d_13">
    <path clip-path="url(#p5f75b78024)" d="M 166.024457 191.853335 
L 155.818979 190.105897 
L 148.160963 189.005015 
L 141.369192 188.254917 
L 134.748692 187.760283 
L 129.174358 187.554704 
L 125.282257 187.596199 
L 122.0821 187.823163 
L 119.064742 188.258931 
L 116.678058 188.786422 
L 113.89403 189.641773 
L 111.865767 190.475976 
L 110.387986 191.271395 
L 109.402642 192.05171 
L 109.194908 192.441239 
L 109.239798 192.617443 
L 109.558073 192.804355 
L 110.465747 192.893699 
L 112.539676 192.751007 
L 117.959388 192.040608 
L 124.982795 191.175866 
L 129.61274 190.815646 
L 134.239801 190.665482 
L 141.502744 190.682419 
L 150.457207 190.913908 
L 157.058215 191.300514 
L 165.092939 192.016242 
L 166.0367 192.108683 
L 166.0367 192.108683 
" style="fill:none;stroke:#000000;stroke-linecap:square;stroke-opacity:0.7;stroke-width:1.2;"/>
   </g>
   <g id="line2d_14">
    <path clip-path="url(#p5f75b78024)" d="M 165.865053 173.245087 
L 157.14383 171.320474 
L 151.500994 170.292393 
L 146.370285 169.569498 
L 140.260761 168.950736 
L 134.10722 168.546493 
L 128.362876 168.393455 
L 124.567552 168.48903 
L 121.077413 168.793751 
L 117.806077 169.328261 
L 115.230356 169.957274 
L 112.896823 170.723108 
L 110.515615 171.775194 
L 109.31579 172.499721 
L 108.6418 173.108573 
L 108.502823 173.509803 
L 108.669415 173.718995 
L 109.097914 173.863033 
L 110.237001 173.935124 
L 112.779256 173.785599 
L 120.79267 172.938295 
L 127.494995 172.353664 
L 132.795686 172.115337 
L 140.112907 172.03597 
L 148.644454 172.158911 
L 155.413837 172.475837 
L 162.538205 173.052357 
L 165.876541 173.399967 
L 165.876541 173.399967 
" style="fill:none;stroke:#000000;stroke-linecap:square;stroke-opacity:0.7;stroke-width:1.2;"/>
   </g>
   <g id="line2d_15">
    <path clip-path="url(#p5f75b78024)" d="M 165.684095 153.804317 
L 155.61592 151.954447 
L 148.692377 150.887176 
L 142.644829 150.17574 
L 135.970812 149.627235 
L 129.605192 149.31465 
L 125.364017 149.290827 
L 122.264264 149.462578 
L 119.143011 149.876978 
L 116.693235 150.409187 
L 114.313145 151.130166 
L 112.114046 152.020223 
L 110.18735 153.08379 
L 109.338453 153.758908 
L 108.927803 154.370149 
L 108.961021 154.680037 
L 109.175767 154.884702 
L 109.798317 155.091846 
L 111.026937 155.206847 
L 113.830617 155.146469 
L 119.831743 154.686441 
L 129.065822 153.988262 
L 134.536529 153.819633 
L 143.897811 153.807258 
L 164.533685 153.996645 
L 165.705892 154.025803 
L 165.705892 154.025803 
" style="fill:none;stroke:#000000;stroke-linecap:square;stroke-opacity:0.7;stroke-width:1.2;"/>
   </g>
   <g id="line2d_16">
    <path clip-path="url(#p5f75b78024)" d="M 166.051303 135.094229 
L 158.165837 133.473287 
L 152.078876 132.444754 
L 145.304089 131.533447 
L 137.376451 130.699558 
L 130.882173 130.2305 
L 126.423856 130.130892 
L 123.422565 130.23456 
L 119.913745 130.582792 
L 116.639536 131.169189 
L 114.251758 131.786825 
L 111.967866 132.570438 
L 109.923757 133.518244 
L 108.780904 134.272276 
L 108.242599 134.874123 
L 108.193514 135.297901 
L 108.42251 135.548673 
L 109.022282 135.771517 
L 110.217015 135.921572 
L 112.603053 135.947937 
L 118.689781 135.6802 
L 128.667537 135.247462 
L 139.550694 135.069095 
L 156.786296 134.950735 
L 163.687929 135.160707 
L 166.061206 135.282304 
L 166.061206 135.282304 
" style="fill:none;stroke:#000000;stroke-linecap:square;stroke-opacity:0.7;stroke-width:1.2;"/>
   </g>
   <g id="line2d_17">
    <path clip-path="url(#p5f75b78024)" d="M 165.280951 115.821939 
L 146.973267 112.576401 
L 141.363908 111.829209 
L 135.339705 111.25664 
L 129.723715 110.950067 
L 125.492198 110.918785 
L 121.648336 111.136546 
L 118.565444 111.560951 
L 115.928566 112.155141 
L 113.645732 112.885909 
L 111.406013 113.86692 
L 109.999991 114.702703 
L 109.12128 115.45895 
L 108.88361 115.895013 
L 108.944485 116.14365 
L 109.084355 116.260714 
L 109.508749 116.405281 
L 110.495143 116.50116 
L 112.798681 116.464453 
L 130.588595 115.689295 
L 141.419503 115.773199 
L 165.288046 115.967165 
L 165.288046 115.967165 
" style="fill:none;stroke:#000000;stroke-linecap:square;stroke-opacity:0.7;stroke-width:1.2;"/>
   </g>
   <g id="line2d_18">
    <path clip-path="url(#p5f75b78024)" d="M 165.98519 97.025245 
L 150.868016 94.204047 
L 142.929654 92.959998 
L 134.321216 91.832596 
L 129.046699 91.32847 
L 125.479632 91.172867 
L 122.343809 91.245284 
L 119.777228 91.497208 
L 117.423476 91.908562 
L 115.043277 92.525553 
L 112.563163 93.426908 
L 111.0103 94.169636 
L 109.410953 95.174471 
L 108.484278 96.029429 
L 108.137652 96.646145 
L 108.173866 97.103715 
L 108.461504 97.404852 
L 108.785059 97.566055 
L 109.601705 97.77406 
L 111.099495 97.916804 
L 113.567232 97.937399 
L 119.514256 97.688507 
L 131.489299 97.139301 
L 139.684785 97.046437 
L 157.441772 97.114651 
L 165.999981 97.166139 
L 165.999981 97.166139 
" style="fill:none;stroke:#000000;stroke-linecap:square;stroke-opacity:0.7;stroke-width:1.2;"/>
   </g>
   <g id="line2d_19">
    <path clip-path="url(#p5f75b78024)" d="M 165.616103 77.879162 
L 150.540106 74.838404 
L 144.289863 73.812241 
L 138.342725 73.03678 
L 132.473882 72.4721 
L 127.470417 72.199136 
L 123.871076 72.19655 
L 120.855155 72.386445 
L 118.372638 72.722611 
L 115.982071 73.24594 
L 113.676335 73.990868 
L 111.960302 74.75037 
L 110.630328 75.514557 
L 109.290765 76.575822 
L 108.675303 77.39061 
L 108.548791 77.915838 
L 108.617361 78.189184 
L 108.86307 78.485032 
L 109.450628 78.786759 
L 110.72388 79.053263 
L 112.428132 79.172433 
L 115.758325 79.153207 
L 122.693651 78.808394 
L 132.298012 78.368886 
L 145.521827 78.107724 
L 160.954081 77.941025 
L 165.627041 77.962565 
L 165.627041 77.962565 
" style="fill:none;stroke:#000000;stroke-linecap:square;stroke-opacity:0.7;stroke-width:1.2;"/>
   </g>
   <g id="line2d_20">
    <path clip-path="url(#p5f75b78024)" d="M 165.966648 59.047344 
L 154.221834 56.739366 
L 147.087382 55.547967 
L 139.235068 54.460178 
L 131.971801 53.656301 
L 126.717504 53.293146 
L 123.493799 53.253193 
L 120.244041 53.437509 
L 117.897859 53.756496 
L 115.480742 54.290677 
L 113.265143 55.011597 
L 111.257344 55.932447 
L 109.998114 56.730439 
L 109.267031 57.37867 
L 108.908301 57.898383 
L 108.85842 58.36396 
L 109.049195 58.63224 
L 109.61569 58.900957 
L 110.759542 59.095673 
L 113.124148 59.187272 
L 118.204422 59.084115 
L 130.420404 58.778008 
L 140.094806 58.837832 
L 165.974665 59.111533 
L 165.974665 59.111533 
" style="fill:none;stroke:#000000;stroke-linecap:square;stroke-opacity:0.7;stroke-width:1.2;"/>
   </g>
   <g id="line2d_21">
    <path clip-path="url(#p5f75b78024)" d="M 229.303891 230.044476 
L 216.26086 227.610775 
L 209.971297 226.654884 
L 204.649819 226.039999 
L 199.153819 225.611291 
L 193.848564 225.41566 
L 189.339164 225.469101 
L 185.961824 225.7109 
L 182.705631 226.182604 
L 180.162472 226.761873 
L 178.04009 227.422185 
L 175.704977 228.397192 
L 174.451876 229.083257 
L 173.27194 229.945861 
L 172.706902 230.647453 
L 172.683815 231.054592 
L 172.90334 231.264648 
L 173.459761 231.419875 
L 174.577082 231.45845 
L 176.760612 231.288044 
L 183.048245 230.468238 
L 189.69279 229.694536 
L 194.440618 229.375465 
L 200.429381 229.242286 
L 208.411116 229.314385 
L 218.171805 229.631709 
L 228.770506 230.218584 
L 229.30603 230.253785 
L 229.30603 230.253785 
" style="fill:none;stroke:#000000;stroke-linecap:square;stroke-opacity:0.7;stroke-width:1.2;"/>
   </g>
   <g id="line2d_22">
    <path clip-path="url(#p5f75b78024)" d="M 229.597492 211.150187 
L 222.826657 209.686763 
L 217.048637 208.661807 
L 211.415386 207.909456 
L 205.243927 207.31702 
L 197.944652 206.837315 
L 192.402746 206.666426 
L 188.580823 206.741388 
L 185.257442 207.012595 
L 182.086797 207.503952 
L 179.097199 208.220269 
L 176.599768 209.052945 
L 174.654621 209.909119 
L 173.363512 210.656611 
L 172.5841 211.300324 
L 172.31064 211.741648 
L 172.329361 212.017189 
L 172.571671 212.252895 
L 173.003217 212.4159 
L 174.135499 212.57417 
L 176.57051 212.596755 
L 181.089263 212.348497 
L 202.762049 210.866286 
L 211.988625 210.504043 
L 217.663479 210.513052 
L 222.771226 210.750384 
L 228.82823 211.267378 
L 229.61106 211.348834 
L 229.61106 211.348834 
" style="fill:none;stroke:#000000;stroke-linecap:square;stroke-opacity:0.7;stroke-width:1.2;"/>
   </g>
   <g id="line2d_23">
    <path clip-path="url(#p5f75b78024)" d="M 229.569149 192.296092 
L 222.431886 190.771953 
L 216.585707 189.764325 
L 210.185868 188.913971 
L 201.708608 188.029094 
L 194.94452 187.51343 
L 190.843902 187.391274 
L 187.468999 187.492057 
L 184.340763 187.803025 
L 181.130627 188.377476 
L 178.209975 189.158506 
L 175.654296 190.095687 
L 174.078432 190.850063 
L 172.660676 191.78606 
L 172.179346 192.353885 
L 172.138791 192.696373 
L 172.344969 192.937872 
L 172.699292 193.090026 
L 173.760239 193.250987 
L 175.863657 193.266068 
L 180.074705 193.014734 
L 197.371462 191.783484 
L 207.941469 191.412979 
L 214.405538 191.370054 
L 219.755515 191.558868 
L 225.403011 191.999607 
L 229.577802 192.44882 
L 229.577802 192.44882 
" style="fill:none;stroke:#000000;stroke-linecap:square;stroke-opacity:0.7;stroke-width:1.2;"/>
   </g>
   <g id="line2d_24">
    <path clip-path="url(#p5f75b78024)" d="M 229.382182 172.978583 
L 219.698455 171.143928 
L 212.773471 170.048851 
L 206.092426 169.231995 
L 198.875379 168.581606 
L 193.180977 168.25117 
L 189.228073 168.215775 
L 186.588999 168.351831 
L 183.391835 168.746294 
L 180.83543 169.268438 
L 178.154836 170.036242 
L 176.059443 170.822272 
L 173.826342 171.923382 
L 172.571725 172.810274 
L 172.104688 173.413184 
L 172.100486 173.759701 
L 172.358501 174.014841 
L 172.956541 174.221472 
L 174.215797 174.373846 
L 177.220108 174.394864 
L 182.404644 174.153459 
L 201.113323 173.117076 
L 212.566251 172.859065 
L 220.518 172.878346 
L 227.982477 173.113565 
L 229.389858 173.18504 
L 229.389858 173.18504 
" style="fill:none;stroke:#000000;stroke-linecap:square;stroke-opacity:0.7;stroke-width:1.2;"/>
   </g>
   <g id="line2d_25">
    <path clip-path="url(#p5f75b78024)" d="M 229.670481 153.561715 
L 208.119507 150.392917 
L 201.424763 149.722865 
L 195.907827 149.375352 
L 191.483514 149.28351 
L 187.719292 149.416404 
L 184.583141 149.742276 
L 181.748087 150.242699 
L 178.709254 151.027611 
L 176.517842 151.788059 
L 174.421927 152.749996 
L 173.377921 153.412932 
L 172.820101 153.954263 
L 172.657295 154.411286 
L 172.749884 154.642742 
L 173.135672 154.918371 
L 173.711719 155.103244 
L 175.198255 155.30861 
L 178.158137 155.392728 
L 183.245345 155.245948 
L 205.580124 154.301535 
L 224.641934 153.919022 
L 229.657579 153.855036 
L 229.657579 153.855036 
" style="fill:none;stroke:#000000;stroke-linecap:square;stroke-opacity:0.7;stroke-width:1.2;"/>
   </g>
   <g id="line2d_26">
    <path clip-path="url(#p5f75b78024)" d="M 229.633824 135.256312 
L 220.134915 133.228983 
L 213.714096 132.093261 
L 207.984828 131.300908 
L 201.738907 130.655155 
L 195.41872 130.225288 
L 191.15389 130.111169 
L 187.004819 130.216813 
L 183.487487 130.540504 
L 180.539787 131.031124 
L 178.134204 131.626249 
L 175.676851 132.486977 
L 174.050871 133.279861 
L 172.888898 134.080992 
L 172.283404 134.814194 
L 172.227644 135.252715 
L 172.376388 135.510877 
L 172.728233 135.753288 
L 173.738359 136.048137 
L 175.395276 136.232198 
L 178.608241 136.304858 
L 183.9561 136.176909 
L 213.470318 135.172214 
L 221.577262 135.172891 
L 229.637499 135.386277 
L 229.637499 135.386277 
" style="fill:none;stroke:#000000;stroke-linecap:square;stroke-opacity:0.7;stroke-width:1.2;"/>
   </g>
   <g id="line2d_27">
    <path clip-path="url(#p5f75b78024)" d="M 229.627638 115.853981 
L 222.638741 114.550695 
L 214.26634 113.213851 
L 205.437117 112.024212 
L 197.856685 111.208359 
L 192.73825 110.850367 
L 188.808455 110.794816 
L 185.531595 110.98395 
L 182.953401 111.324198 
L 180.319655 111.871295 
L 177.72255 112.637385 
L 175.644108 113.453939 
L 173.621436 114.523512 
L 172.572174 115.328232 
L 172.104342 115.968868 
L 172.077858 116.377776 
L 172.30568 116.682339 
L 172.87122 116.958335 
L 173.913692 117.179654 
L 175.902264 117.337108 
L 179.763158 117.356635 
L 187.098874 117.110898 
L 201.081773 116.629596 
L 228.832773 116.059533 
L 229.632396 116.053596 
L 229.632396 116.053596 
" style="fill:none;stroke:#000000;stroke-linecap:square;stroke-opacity:0.7;stroke-width:1.2;"/>
   </g>
   <g id="line2d_28">
    <path clip-path="url(#p5f75b78024)" d="M 229.812104 96.720449 
L 213.261526 93.911709 
L 204.980568 92.714364 
L 198.127137 91.948901 
L 192.723609 91.572524 
L 188.521146 91.499082 
L 185.601667 91.622125 
L 182.341736 91.9957 
L 179.436914 92.591791 
L 176.796288 93.39945 
L 174.72181 94.277011 
L 173.317295 95.088431 
L 172.551101 95.737221 
L 172.254655 96.224975 
L 172.270084 96.561846 
L 172.519028 96.843813 
L 173.11228 97.106063 
L 174.046628 97.302741 
L 175.938044 97.480739 
L 179.968278 97.582439 
L 189.848442 97.510576 
L 229.337218 96.989708 
L 229.810092 96.97998 
L 229.810092 96.97998 
" style="fill:none;stroke:#000000;stroke-linecap:square;stroke-opacity:0.7;stroke-width:1.2;"/>
   </g>
   <g id="line2d_29">
    <path clip-path="url(#p5f75b78024)" d="M 229.602424 77.806113 
L 218.745772 75.767783 
L 208.064776 73.998079 
L 196.051722 72.231216 
L 191.070443 71.713401 
L 187.952842 71.607966 
L 185.410848 71.724399 
L 183.139808 72.014393 
L 180.60445 72.564149 
L 178.218729 73.317841 
L 176.145566 74.19319 
L 174.178191 75.298653 
L 173.074534 76.145931 
L 172.348253 76.995084 
L 172.143356 77.60875 
L 172.272186 78.066312 
L 172.682786 78.428906 
L 173.454136 78.728272 
L 174.982845 78.975248 
L 177.370465 79.073284 
L 181.513105 78.970537 
L 201.095581 78.15203 
L 218.748815 77.956902 
L 229.614045 77.979333 
L 229.614045 77.979333 
" style="fill:none;stroke:#000000;stroke-linecap:square;stroke-opacity:0.7;stroke-width:1.2;"/>
   </g>
   <g id="line2d_30">
    <path clip-path="url(#p5f75b78024)" d="M 229.678785 58.7396 
L 213.131025 55.756001 
L 202.891784 54.118831 
L 195.881568 53.194997 
L 191.355133 52.797768 
L 188.267096 52.719439 
L 185.111396 52.887733 
L 182.459874 53.264606 
L 180.083875 53.805722 
L 177.97077 54.468687 
L 175.599988 55.468997 
L 174.126585 56.296972 
L 173.035823 57.115976 
L 172.382524 57.859864 
L 172.166071 58.403109 
L 172.185925 58.730382 
L 172.466999 59.150037 
L 173.070867 59.495363 
L 174.277038 59.807708 
L 176.581814 60.030228 
L 179.96948 60.070108 
L 185.899749 59.875008 
L 196.744472 59.486807 
L 208.451469 59.412707 
L 220.123342 59.227504 
L 229.706987 58.926955 
L 229.706987 58.926955 
" style="fill:none;stroke:#000000;stroke-linecap:square;stroke-opacity:0.7;stroke-width:1.2;"/>
   </g>
   <g id="line2d_31">
    <path clip-path="url(#p5f75b78024)" d="M 293.524009 229.808617 
L 281.550081 227.857351 
L 274.866399 227.005706 
L 268.228736 226.374316 
L 262.022453 225.996465 
L 256.501405 225.892212 
L 252.179981 226.049241 
L 248.583112 226.416062 
L 245.291056 226.981467 
L 242.117749 227.758116 
L 239.449227 228.626025 
L 237.458329 229.483571 
L 236.306529 230.207233 
L 235.922375 230.696002 
L 235.929354 230.964269 
L 236.202417 231.238938 
L 236.630459 231.422118 
L 237.844612 231.669901 
L 240.499229 231.863993 
L 244.909952 231.887215 
L 252.165006 231.649915 
L 264.229445 230.994585 
L 282.860393 229.870398 
L 288.248411 229.878396 
L 293.524545 230.096041 
L 293.524545 230.096041 
" style="fill:none;stroke:#000000;stroke-linecap:square;stroke-opacity:0.7;stroke-width:1.2;"/>
   </g>
   <g id="line2d_32">
    <path clip-path="url(#p5f75b78024)" d="M 293.366809 211.153518 
L 286.149465 209.706961 
L 280.271264 208.754091 
L 274.842879 208.09163 
L 267.904765 207.496121 
L 260.841466 207.119333 
L 255.131704 207.03074 
L 251.082409 207.185067 
L 247.992528 207.492196 
L 244.603705 208.066592 
L 241.825046 208.75513 
L 239.348502 209.579573 
L 237.39128 210.460035 
L 236.371956 211.122161 
L 235.96239 211.60239 
L 235.958077 211.949211 
L 236.186656 212.166774 
L 236.700464 212.36243 
L 237.993851 212.556546 
L 240.246099 212.645886 
L 244.833309 212.573693 
L 265.86376 211.790121 
L 282.469342 211.098997 
L 288.305554 211.149904 
L 293.373805 211.375858 
L 293.373805 211.375858 
" style="fill:none;stroke:#000000;stroke-linecap:square;stroke-opacity:0.7;stroke-width:1.2;"/>
   </g>
   <g id="line2d_33">
    <path clip-path="url(#p5f75b78024)" d="M 293.33408 192.317557 
L 286.664103 190.814015 
L 280.656276 189.672221 
L 275.572256 188.919241 
L 270.2511 188.348332 
L 264.032377 187.925025 
L 258.309955 187.757885 
L 253.765601 187.830719 
L 250.130065 188.091025 
L 247.031313 188.501146 
L 244.123402 189.073545 
L 241.361816 189.817312 
L 239.103944 190.617406 
L 237.071963 191.601383 
L 236.173849 192.267502 
L 235.851447 192.737978 
L 235.861206 193.077657 
L 236.028544 193.292101 
L 236.377356 193.499851 
L 237.111746 193.724077 
L 238.072732 193.879131 
L 240.996795 194.047028 
L 245.425445 194.011163 
L 254.581854 193.642996 
L 269.891722 192.823787 
L 280.350238 192.241973 
L 285.685646 192.174563 
L 290.854894 192.322423 
L 293.353924 192.464399 
L 293.353924 192.464399 
" style="fill:none;stroke:#000000;stroke-linecap:square;stroke-opacity:0.7;stroke-width:1.2;"/>
   </g>
   <g id="line2d_34">
    <path clip-path="url(#p5f75b78024)" d="M 293.465425 172.910299 
L 286.029061 171.4444 
L 279.511508 170.386539 
L 272.918141 169.56612 
L 266.395697 168.973866 
L 260.246795 168.622159 
L 254.693609 168.530226 
L 250.359032 168.694457 
L 247.155057 169.02027 
L 244.280301 169.509864 
L 241.414933 170.237551 
L 239.177972 171.042292 
L 237.87782 171.670242 
L 236.629285 172.536913 
L 236.215903 173.037725 
L 236.097612 173.545072 
L 236.264906 173.884994 
L 236.538408 174.104843 
L 237.158723 174.368558 
L 238.454507 174.627153 
L 240.97863 174.790676 
L 244.865969 174.759332 
L 252.817361 174.412185 
L 282.155489 173.088481 
L 288.591505 173.068849 
L 293.462429 173.186536 
L 293.462429 173.186536 
" style="fill:none;stroke:#000000;stroke-linecap:square;stroke-opacity:0.7;stroke-width:1.2;"/>
   </g>
   <g id="line2d_35">
    <path clip-path="url(#p5f75b78024)" d="M 293.196426 154.278294 
L 284.929846 152.610501 
L 278.356278 151.501504 
L 271.502569 150.594253 
L 264.872751 149.923877 
L 258.676195 149.489903 
L 254.112918 149.36312 
L 250.136 149.478302 
L 246.662589 149.828001 
L 243.817372 150.343587 
L 241.746087 150.885368 
L 239.546585 151.667696 
L 237.970133 152.428572 
L 236.681837 153.31862 
L 236.13189 154.012571 
L 236.081533 154.430016 
L 236.273785 154.742015 
L 236.733021 155.018997 
L 237.850548 155.315115 
L 239.47545 155.504894 
L 242.508978 155.63025 
L 247.865484 155.60559 
L 257.066423 155.301955 
L 270.034988 154.629274 
L 279.426119 154.23539 
L 285.882263 154.19133 
L 292.470981 154.375259 
L 293.207989 154.411842 
L 293.207989 154.411842 
" style="fill:none;stroke:#000000;stroke-linecap:square;stroke-opacity:0.7;stroke-width:1.2;"/>
   </g>
   <g id="line2d_36">
    <path clip-path="url(#p5f75b78024)" d="M 292.972157 135.010569 
L 280.402933 132.685918 
L 273.882548 131.694665 
L 267.725538 130.975259 
L 261.273466 130.444787 
L 256.156329 130.218142 
L 252.423008 130.232699 
L 249.109949 130.448809 
L 245.729639 130.936487 
L 243.202206 131.517107 
L 240.756932 132.29482 
L 238.505787 133.272125 
L 237.256244 134.011829 
L 236.373814 134.814069 
L 236.18359 135.312604 
L 236.299344 135.622049 
L 236.484391 135.791802 
L 237.10035 136.070424 
L 238.50023 136.344887 
L 240.857235 136.519231 
L 244.818 136.559718 
L 251.780332 136.372941 
L 274.771861 135.403105 
L 283.867811 135.091395 
L 290.471269 135.091221 
L 292.986371 135.172464 
L 292.986371 135.172464 
" style="fill:none;stroke:#000000;stroke-linecap:square;stroke-opacity:0.7;stroke-width:1.2;"/>
   </g>
   <g id="line2d_37">
    <path clip-path="url(#p5f75b78024)" d="M 293.381644 116.108085 
L 285.380179 114.534419 
L 277.795692 113.263949 
L 270.207153 112.237631 
L 262.717624 111.44709 
L 256.71392 111.02541 
L 252.968728 110.949999 
L 249.886624 111.066539 
L 246.785607 111.399742 
L 243.816662 111.971326 
L 241.501034 112.634091 
L 239.311576 113.504668 
L 238.032845 114.187408 
L 236.816947 115.098852 
L 236.311673 115.749699 
L 236.19908 116.287703 
L 236.31822 116.595065 
L 236.68429 116.926398 
L 237.255609 117.186538 
L 238.713023 117.513115 
L 241.214191 117.73814 
L 245.407113 117.818106 
L 252.177167 117.685703 
L 274.0342 116.912128 
L 291.151384 116.314089 
L 293.378806 116.247246 
L 293.378806 116.247246 
" style="fill:none;stroke:#000000;stroke-linecap:square;stroke-opacity:0.7;stroke-width:1.2;"/>
   </g>
   <g id="line2d_38">
    <path clip-path="url(#p5f75b78024)" d="M 293.393511 96.632503 
L 283.127086 94.806641 
L 275.055763 93.574319 
L 268.675533 92.817656 
L 262.713432 92.325751 
L 256.737562 92.061515 
L 252.398799 92.064727 
L 249.007954 92.265469 
L 246.281308 92.615651 
L 243.161759 93.282343 
L 240.895439 93.986746 
L 238.815231 94.859123 
L 237.442942 95.641323 
L 236.616575 96.326371 
L 236.281606 96.854497 
L 236.268355 97.208692 
L 236.367503 97.408485 
L 236.694971 97.690709 
L 237.610108 98.047189 
L 239.38776 98.363728 
L 241.862519 98.565185 
L 246.713955 98.675901 
L 254.06783 98.571983 
L 275.753399 97.978836 
L 286.601986 97.350566 
L 293.399974 96.882797 
L 293.399974 96.882797 
" style="fill:none;stroke:#000000;stroke-linecap:square;stroke-opacity:0.7;stroke-width:1.2;"/>
   </g>
   <g id="line2d_39">
    <path clip-path="url(#p5f75b78024)" d="M 293.361446 77.464095 
L 284.708836 76.341711 
L 275.752812 74.959962 
L 265.572845 73.416008 
L 259.576029 72.727103 
L 255.041674 72.410305 
L 251.392275 72.379921 
L 248.088518 72.620997 
L 245.487709 73.038466 
L 242.966667 73.662851 
L 240.600684 74.47974 
L 238.649099 75.380839 
L 237.538104 76.04439 
L 236.574463 76.818934 
L 236.059227 77.550428 
L 236.006843 77.941624 
L 236.101208 78.204639 
L 236.5085 78.578969 
L 237.05554 78.825828 
L 238.539133 79.167699 
L 240.887924 79.40814 
L 244.73738 79.537634 
L 250.786239 79.484178 
L 276.14883 78.759693 
L 285.047254 78.320971 
L 293.368407 77.706555 
L 293.368407 77.706555 
" style="fill:none;stroke:#000000;stroke-linecap:square;stroke-opacity:0.7;stroke-width:1.2;"/>
   </g>
   <g id="line2d_40">
    <path clip-path="url(#p5f75b78024)" d="M 293.194691 58.826648 
L 268.092275 54.545395 
L 260.894702 53.571653 
L 256.240461 53.153401 
L 252.322216 53.036924 
L 249.219505 53.161509 
L 246.304296 53.49738 
L 243.968113 53.948203 
L 241.518641 54.630791 
L 239.231234 55.523934 
L 237.438202 56.505142 
L 236.656336 57.094371 
L 235.998111 57.841981 
L 235.811308 58.418292 
L 235.958722 58.884347 
L 236.414952 59.280859 
L 237.130598 59.594165 
L 238.616816 59.941901 
L 241.250728 60.231565 
L 245.208474 60.380068 
L 251.338051 60.330881 
L 268.554119 59.794758 
L 293.23569 58.962234 
L 293.23569 58.962234 
" style="fill:none;stroke:#000000;stroke-linecap:square;stroke-opacity:0.7;stroke-width:1.2;"/>
   </g>
   <g id="line2d_41">
    <path clip-path="url(#p5f75b78024)" d="M 356.864121 230.183321 
L 350.135816 228.752421 
L 344.092494 227.684637 
L 339.308374 227.02459 
L 333.82051 226.47329 
L 327.666519 226.096764 
L 322.049311 225.97432 
L 316.880939 226.083141 
L 312.525002 226.407138 
L 308.922098 226.915576 
L 306.314785 227.479255 
L 304.337455 228.059805 
L 302.243475 228.88904 
L 300.836963 229.673969 
L 300.049365 230.359561 
L 299.811086 230.922975 
L 299.883947 231.168255 
L 300.315551 231.525482 
L 301.100424 231.793052 
L 302.747396 232.039545 
L 305.241882 232.159797 
L 309.238497 232.118493 
L 317.072936 231.756046 
L 336.229543 230.619256 
L 344.27489 230.220723 
L 350.140346 230.151892 
L 355.738719 230.303507 
L 356.892819 230.365075 
L 356.892819 230.365075 
" style="fill:none;stroke:#000000;stroke-linecap:square;stroke-opacity:0.7;stroke-width:1.2;"/>
   </g>
   <g id="line2d_42">
    <path clip-path="url(#p5f75b78024)" d="M 357.093624 210.707051 
L 346.654002 208.962943 
L 339.833239 208.06408 
L 333.845857 207.486712 
L 327.568652 207.113388 
L 322.322682 207.01149 
L 317.507391 207.129713 
L 313.634953 207.429998 
L 309.994277 207.946944 
L 306.988076 208.592114 
L 304.302723 209.378889 
L 301.947681 210.313164 
L 300.754236 210.977215 
L 300.11258 211.586501 
L 300.041313 211.873572 
L 300.214436 212.166812 
L 300.63467 212.406324 
L 302.028444 212.759254 
L 304.340053 213.035489 
L 308.615696 213.268845 
L 314.691816 213.348435 
L 322.18504 213.214208 
L 329.427486 212.86275 
L 337.582473 212.219119 
L 348.857696 211.310058 
L 355.35189 211.028044 
L 357.1049 210.98986 
L 357.1049 210.98986 
" style="fill:none;stroke:#000000;stroke-linecap:square;stroke-opacity:0.7;stroke-width:1.2;"/>
   </g>
   <g id="line2d_43">
    <path clip-path="url(#p5f75b78024)" d="M 356.638438 192.102493 
L 348.026113 190.378562 
L 341.271282 189.239131 
L 335.65189 188.525441 
L 330.588124 188.093853 
L 325.001277 187.837668 
L 319.281278 187.808121 
L 314.727229 188.005661 
L 310.931453 188.409751 
L 307.9371 188.949479 
L 305.030683 189.72597 
L 302.784908 190.572016 
L 301.074497 191.487942 
L 300.249048 192.191406 
L 299.997719 192.725245 
L 300.10095 193.06428 
L 300.514227 193.381885 
L 301.248238 193.636508 
L 302.551715 193.86271 
L 305.299311 194.055547 
L 309.485541 194.101526 
L 317.609192 193.921368 
L 329.943928 193.43247 
L 352.522255 192.282883 
L 356.645458 192.301749 
L 356.645458 192.301749 
" style="fill:none;stroke:#000000;stroke-linecap:square;stroke-opacity:0.7;stroke-width:1.2;"/>
   </g>
   <g id="line2d_44">
    <path clip-path="url(#p5f75b78024)" d="M 357.010264 172.934581 
L 347.524763 171.14749 
L 341.220138 170.169356 
L 335.206285 169.451717 
L 329.197413 168.937266 
L 323.526897 168.645314 
L 318.920229 168.595054 
L 314.604035 168.781047 
L 311.369652 169.124867 
L 308.486805 169.616393 
L 305.900355 170.237723 
L 303.579647 170.982835 
L 301.461257 171.90833 
L 300.22091 172.712663 
L 299.731565 173.3178 
L 299.699578 173.669405 
L 299.889623 173.9655 
L 300.318426 174.23206 
L 301.611686 174.593846 
L 303.585714 174.838939 
L 307.045368 175.003129 
L 313.059416 175.010393 
L 324.305073 174.743448 
L 332.28863 174.350675 
L 351.360568 173.210716 
L 357.006479 173.148897 
L 357.006479 173.148897 
" style="fill:none;stroke:#000000;stroke-linecap:square;stroke-opacity:0.7;stroke-width:1.2;"/>
   </g>
   <g id="line2d_45">
    <path clip-path="url(#p5f75b78024)" d="M 357.189343 153.842913 
L 348.584216 152.215661 
L 341.576708 151.111615 
L 334.947777 150.281929 
L 328.407537 149.655793 
L 322.476517 149.28844 
L 318.534655 149.225144 
L 315.361608 149.347836 
L 312.53357 149.627878 
L 309.473106 150.13841 
L 306.538845 150.85378 
L 303.861374 151.742393 
L 301.673983 152.727732 
L 300.750879 153.289153 
L 299.917034 154.086468 
L 299.795748 154.478238 
L 299.907307 154.783382 
L 300.237238 155.056843 
L 300.994325 155.357025 
L 302.551637 155.66891 
L 305.440219 155.954042 
L 310.553876 156.163862 
L 317.440617 156.207164 
L 326.538606 156.033756 
L 333.865646 155.684626 
L 343.96312 154.931214 
L 353.193096 154.306256 
L 357.192172 154.116247 
L 357.192172 154.116247 
" style="fill:none;stroke:#000000;stroke-linecap:square;stroke-opacity:0.7;stroke-width:1.2;"/>
   </g>
   <g id="line2d_46">
    <path clip-path="url(#p5f75b78024)" d="M 356.745659 134.972007 
L 346.301947 133.12687 
L 338.554029 131.978681 
L 331.388239 131.129215 
L 324.309294 130.483147 
L 319.185364 130.198376 
L 315.078034 130.196164 
L 311.945055 130.397568 
L 308.877926 130.805476 
L 306.20001 131.365243 
L 303.669767 132.117445 
L 301.510904 133.017271 
L 300.229498 133.770825 
L 299.621923 134.278595 
L 299.254126 134.775442 
L 299.175332 135.271048 
L 299.297017 135.539045 
L 299.54807 135.78392 
L 300.119926 136.088215 
L 301.252529 136.419932 
L 303.548056 136.770017 
L 306.792019 137.00983 
L 312.04158 137.141634 
L 319.429972 137.069723 
L 329.715648 136.723487 
L 338.781694 136.198071 
L 354.823233 135.212734 
L 356.746021 135.139818 
L 356.746021 135.139818 
" style="fill:none;stroke:#000000;stroke-linecap:square;stroke-opacity:0.7;stroke-width:1.2;"/>
   </g>
   <g id="line2d_47">
    <path clip-path="url(#p5f75b78024)" d="M 356.646906 115.898901 
L 342.824341 113.314016 
L 336.928907 112.419612 
L 331.543851 111.804204 
L 325.628547 111.371813 
L 320.366511 111.21525 
L 315.754893 111.301048 
L 311.931926 111.599854 
L 308.92775 112.034215 
L 306.111485 112.651672 
L 303.887372 113.331915 
L 302.19881 114.01508 
L 300.738395 114.817257 
L 300.042082 115.372608 
L 299.638815 115.961106 
L 299.635603 116.363406 
L 299.857613 116.67184 
L 300.354453 116.968257 
L 301.534367 117.310815 
L 303.659495 117.601197 
L 306.922816 117.7925 
L 312.29009 117.870416 
L 322.688661 117.752537 
L 330.75024 117.474938 
L 340.056832 116.914066 
L 352.046836 116.222377 
L 356.643719 116.072286 
L 356.643719 116.072286 
" style="fill:none;stroke:#000000;stroke-linecap:square;stroke-opacity:0.7;stroke-width:1.2;"/>
   </g>
   <g id="line2d_48">
    <path clip-path="url(#p5f75b78024)" d="M 357.069767 96.585214 
L 333.940913 93.13802 
L 327.872649 92.524978 
L 322.122081 92.165941 
L 317.500825 92.077709 
L 313.74226 92.226809 
L 310.742365 92.566352 
L 307.962147 93.104945 
L 305.492649 93.799305 
L 303.579191 94.515923 
L 301.700406 95.462373 
L 300.681362 96.209232 
L 300.235316 96.757036 
L 300.131839 97.210504 
L 300.357779 97.620736 
L 300.875025 97.934318 
L 301.67702 98.184478 
L 303.683781 98.484248 
L 307.014918 98.666258 
L 312.592502 98.698278 
L 330.84753 98.421963 
L 339.235866 98.128138 
L 348.043678 97.583723 
L 357.08697 96.856088 
L 357.08697 96.856088 
" style="fill:none;stroke:#000000;stroke-linecap:square;stroke-opacity:0.7;stroke-width:1.2;"/>
   </g>
   <g id="line2d_49">
    <path clip-path="url(#p5f75b78024)" d="M 357.076455 77.937878 
L 333.269776 73.739968 
L 325.321831 72.566129 
L 320.361765 72.04275 
L 316.982963 71.884435 
L 314.035955 71.953665 
L 311.549272 72.201778 
L 308.986747 72.664209 
L 306.412477 73.365062 
L 304.275892 74.161264 
L 302.612336 74.964651 
L 301.263118 75.812933 
L 300.303107 76.669387 
L 299.853592 77.410208 
L 299.813652 77.864643 
L 300.009301 78.286354 
L 300.588372 78.729421 
L 301.323249 79.02304 
L 302.956823 79.376656 
L 305.399513 79.622592 
L 309.132905 79.738463 
L 315.13546 79.643113 
L 351.502175 78.33543 
L 357.077005 78.102031 
L 357.077005 78.102031 
" style="fill:none;stroke:#000000;stroke-linecap:square;stroke-opacity:0.7;stroke-width:1.2;"/>
   </g>
   <g id="line2d_50">
    <path clip-path="url(#p5f75b78024)" d="M 357.050163 58.467121 
L 347.831719 57.182749 
L 326.004157 54.015953 
L 320.449916 53.491423 
L 316.550293 53.341149 
L 313.490186 53.434918 
L 310.531171 53.761818 
L 308.008211 54.256214 
L 305.539267 54.964192 
L 303.540978 55.742868 
L 301.691875 56.72168 
L 300.649208 57.514682 
L 300.126546 58.161675 
L 299.981529 58.687387 
L 300.089667 59.06117 
L 300.540786 59.494473 
L 301.331999 59.853135 
L 302.65782 60.182434 
L 305.203173 60.501733 
L 308.960099 60.684704 
L 314.348819 60.689637 
L 328.658287 60.334548 
L 341.362482 59.953031 
L 348.741115 59.483479 
L 356.158311 58.78625 
L 357.057688 58.687487 
L 357.057688 58.687487 
" style="fill:none;stroke:#000000;stroke-linecap:square;stroke-opacity:0.7;stroke-width:1.2;"/>
   </g>
   <g id="line2d_51">
    <path clip-path="url(#p5f75b78024)" d="M 420.743867 229.836749 
L 411.161618 228.215836 
L 403.526674 227.152023 
L 397.578633 226.520954 
L 392.042154 226.137006 
L 386.852584 225.994967 
L 381.953035 226.089824 
L 377.604276 226.415773 
L 373.717476 226.962444 
L 370.746751 227.575593 
L 367.65741 228.433316 
L 365.426146 229.265221 
L 364.214836 229.893216 
L 363.600729 230.437198 
L 363.517769 230.757386 
L 363.71029 231.055699 
L 364.052348 231.266602 
L 365.240398 231.6501 
L 367.599084 232.068731 
L 371.403316 232.478883 
L 376.715059 232.815388 
L 382.673453 232.968881 
L 388.051486 232.902782 
L 393.44796 232.616431 
L 399.352638 232.068175 
L 415.804234 230.323912 
L 420.751795 230.120366 
L 420.751795 230.120366 
" style="fill:none;stroke:#000000;stroke-linecap:square;stroke-opacity:0.7;stroke-width:1.2;"/>
   </g>
   <g id="line2d_52">
    <path clip-path="url(#p5f75b78024)" d="M 420.501739 210.943886 
L 410.029203 209.057931 
L 403.068485 208.013666 
L 397.264001 207.378134 
L 392.179857 207.037606 
L 387.079918 206.90928 
L 381.688795 207.007678 
L 377.828975 207.252526 
L 374.028101 207.697524 
L 370.854706 208.279632 
L 367.916978 209.050484 
L 365.4978 209.951006 
L 364.222129 210.636798 
L 363.618361 211.131705 
L 363.349317 211.639502 
L 363.437799 211.967499 
L 363.629414 212.163854 
L 364.096564 212.419991 
L 365.015808 212.698926 
L 366.762788 212.989748 
L 370.116594 213.264325 
L 374.764381 213.414969 
L 382.381238 213.419677 
L 390.218969 213.20498 
L 397.019748 212.790246 
L 418.366719 211.232865 
L 420.490285 211.195592 
L 420.490285 211.195592 
" style="fill:none;stroke:#000000;stroke-linecap:square;stroke-opacity:0.7;stroke-width:1.2;"/>
   </g>
   <g id="line2d_53">
    <path clip-path="url(#p5f75b78024)" d="M 420.316944 192.047619 
L 410.283844 190.294422 
L 402.360338 189.126835 
L 395.995179 188.401762 
L 390.654508 187.981735 
L 385.287023 187.774056 
L 380.739458 187.813695 
L 376.697648 188.082161 
L 373.664779 188.482196 
L 370.789203 189.067643 
L 368.021069 189.886586 
L 366.340438 190.570271 
L 364.890161 191.394113 
L 364.342428 191.865754 
L 364.01332 192.46309 
L 364.102945 192.857748 
L 364.460898 193.190892 
L 365.256126 193.539768 
L 366.778351 193.890999 
L 368.886504 194.161012 
L 372.717968 194.405144 
L 378.016243 194.500109 
L 385.171926 194.392984 
L 391.705449 194.102479 
L 399.658683 193.501096 
L 412.173972 192.500117 
L 418.021927 192.257822 
L 420.315359 192.23392 
L 420.315359 192.23392 
" style="fill:none;stroke:#000000;stroke-linecap:square;stroke-opacity:0.7;stroke-width:1.2;"/>
   </g>
   <g id="line2d_54">
    <path clip-path="url(#p5f75b78024)" d="M 420.793201 172.496446 
L 410.922383 171.260257 
L 397.012544 169.439045 
L 390.927707 168.926152 
L 385.53083 168.690443 
L 381.084484 168.699646 
L 377.403951 168.918328 
L 374.09684 169.337422 
L 370.723502 170.022605 
L 367.929267 170.83169 
L 365.890858 171.634663 
L 364.743455 172.251692 
L 363.977414 172.880288 
L 363.733496 173.342928 
L 363.794977 173.71313 
L 364.107701 174.046011 
L 364.741244 174.376744 
L 365.610806 174.654629 
L 367.967976 175.09555 
L 371.113704 175.414248 
L 375.722653 175.630285 
L 380.875296 175.656559 
L 386.977944 175.474821 
L 394.069925 175.041474 
L 402.943033 174.249111 
L 415.726336 173.079391 
L 420.791414 172.757933 
L 420.791414 172.757933 
" style="fill:none;stroke:#000000;stroke-linecap:square;stroke-opacity:0.7;stroke-width:1.2;"/>
   </g>
   <g id="line2d_55">
    <path clip-path="url(#p5f75b78024)" d="M 420.0401 153.92079 
L 396.596617 150.226432 
L 390.661065 149.633306 
L 385.469638 149.308428 
L 380.597076 149.225188 
L 377.089274 149.375091 
L 373.813869 149.75108 
L 371.432534 150.211141 
L 369.437948 150.749216 
L 367.828971 151.314712 
L 366.023568 152.159578 
L 364.91181 152.894545 
L 364.405377 153.376006 
L 364.092015 153.866193 
L 364.030882 154.341061 
L 364.171735 154.662212 
L 364.627855 155.048424 
L 365.229849 155.318064 
L 366.580747 155.657798 
L 368.700059 155.93169 
L 372.552458 156.140341 
L 378.74752 156.182061 
L 387.274938 156.00413 
L 395.40846 155.614862 
L 420.018302 154.093099 
L 420.018302 154.093099 
" style="fill:none;stroke:#000000;stroke-linecap:square;stroke-opacity:0.7;stroke-width:1.2;"/>
   </g>
   <g id="line2d_56">
    <path clip-path="url(#p5f75b78024)" d="M 420.561594 135.007609 
L 406.871343 132.535822 
L 400.445086 131.622355 
L 395.07533 131.065672 
L 389.721659 130.716769 
L 384.31688 130.594278 
L 379.406132 130.719672 
L 375.308748 131.051463 
L 371.671 131.589436 
L 368.63818 132.287525 
L 366.188681 133.1071 
L 364.71399 133.807176 
L 363.926312 134.343375 
L 363.429116 134.967727 
L 363.429327 135.405916 
L 363.696333 135.737584 
L 363.934925 135.898136 
L 364.926189 136.286813 
L 366.884527 136.67844 
L 369.38402 136.943368 
L 373.432995 137.141206 
L 379.303237 137.186592 
L 389.225935 137.016767 
L 397.379987 136.666672 
L 407.835812 135.945607 
L 418.332905 135.279597 
L 420.556613 135.177967 
L 420.556613 135.177967 
" style="fill:none;stroke:#000000;stroke-linecap:square;stroke-opacity:0.7;stroke-width:1.2;"/>
   </g>
   <g id="line2d_57">
    <path clip-path="url(#p5f75b78024)" d="M 420.400079 115.928785 
L 408.00809 113.523453 
L 402.197126 112.607 
L 397.041706 112.003029 
L 391.497149 111.604921 
L 386.185088 111.474398 
L 380.978687 111.576528 
L 376.494507 111.863485 
L 372.71554 112.314221 
L 369.923564 112.839415 
L 367.53814 113.488084 
L 365.851878 114.121702 
L 364.305334 114.952691 
L 363.533804 115.654675 
L 363.363453 116.003588 
L 363.429034 116.449938 
L 363.622722 116.669189 
L 364.317816 117.03521 
L 365.342242 117.308381 
L 367.932286 117.640202 
L 371.520821 117.827233 
L 378.398311 117.923647 
L 389.495673 117.861163 
L 397.324515 117.588449 
L 407.365506 116.982553 
L 420.373148 116.101521 
L 420.373148 116.101521 
" style="fill:none;stroke:#000000;stroke-linecap:square;stroke-opacity:0.7;stroke-width:1.2;"/>
   </g>
   <g id="line2d_58">
    <path clip-path="url(#p5f75b78024)" d="M 420.198061 96.983754 
L 399.704252 93.485396 
L 393.958133 92.812942 
L 387.809083 92.325739 
L 382.421788 92.123199 
L 378.488433 92.169913 
L 375.234826 92.399517 
L 372.087461 92.851529 
L 369.453628 93.461524 
L 367.121941 94.24952 
L 365.60942 94.959767 
L 364.399221 95.767234 
L 363.754204 96.503905 
L 363.614385 96.95376 
L 363.725576 97.392658 
L 363.994865 97.692953 
L 364.589785 98.038156 
L 365.66796 98.381093 
L 367.61055 98.708637 
L 370.637473 98.945537 
L 375.762117 99.051049 
L 384.21307 98.944842 
L 394.124488 98.631192 
L 404.347825 98.028378 
L 420.199305 97.060147 
L 420.199305 97.060147 
" style="fill:none;stroke:#000000;stroke-linecap:square;stroke-opacity:0.7;stroke-width:1.2;"/>
   </g>
   <g id="line2d_59">
    <path clip-path="url(#p5f75b78024)" d="M 420.807022 77.890813 
L 406.6626 75.494332 
L 398.116278 74.271475 
L 391.310949 73.520891 
L 385.864855 73.138505 
L 381.337668 73.047758 
L 377.76164 73.186533 
L 374.35778 73.547571 
L 371.445709 74.07664 
L 368.671705 74.819417 
L 366.901055 75.460289 
L 365.064819 76.362553 
L 363.992859 77.188433 
L 363.672104 77.699246 
L 363.689992 78.145518 
L 363.856785 78.382287 
L 364.489605 78.775278 
L 365.547882 79.104643 
L 367.878746 79.483691 
L 371.501311 79.772251 
L 376.922079 79.952519 
L 386.940081 80.008719 
L 396.604105 79.87567 
L 403.436434 79.572732 
L 411.096274 79.000722 
L 420.817167 78.062584 
L 420.817167 78.062584 
" style="fill:none;stroke:#000000;stroke-linecap:square;stroke-opacity:0.7;stroke-width:1.2;"/>
   </g>
   <g id="line2d_60">
    <path clip-path="url(#p5f75b78024)" d="M 420.756752 58.763885 
L 411.107523 57.249839 
L 399.211278 55.392316 
L 393.350526 54.687071 
L 387.782344 54.218198 
L 382.399905 53.988824 
L 377.980151 54.026629 
L 374.719544 54.258513 
L 372.029955 54.635945 
L 369.583027 55.170568 
L 367.292719 55.892857 
L 365.566683 56.657773 
L 364.385181 57.411924 
L 363.763895 58.078727 
L 363.617204 58.613388 
L 363.773312 58.994518 
L 364.106448 59.293062 
L 364.627825 59.563096 
L 366.265483 60.022447 
L 368.503572 60.349871 
L 372.115569 60.61565 
L 377.221393 60.740317 
L 387.588404 60.680852 
L 399.210485 60.477334 
L 407.127856 60.095493 
L 415.591883 59.440564 
L 420.767342 58.934022 
L 420.767342 58.934022 
" style="fill:none;stroke:#000000;stroke-linecap:square;stroke-opacity:0.7;stroke-width:1.2;"/>
   </g>
   <g id="line2d_61">
    <path clip-path="url(#p5f75b78024)" d="M 484.245576 230.156402 
L 475.020868 228.431019 
L 468.745136 227.48364 
L 462.794591 226.805885 
L 456.442587 226.301789 
L 450.398293 226.038486 
L 445.559965 226.042876 
L 441.835048 226.25121 
L 438.653012 226.616105 
L 434.976068 227.284713 
L 431.752653 228.124769 
L 429.318352 228.985942 
L 427.834682 229.709806 
L 427.145749 230.202664 
L 426.777837 230.704854 
L 426.783673 231.074093 
L 427.016618 231.380363 
L 427.724556 231.782577 
L 429.245364 232.236616 
L 431.806021 232.686529 
L 435.734446 233.109346 
L 441.015373 233.431536 
L 446.960635 233.551078 
L 452.233432 233.418111 
L 456.826431 233.086466 
L 461.989779 232.494537 
L 476.449223 230.645963 
L 481.158284 230.382451 
L 484.266455 230.330698 
L 484.266455 230.330698 
" style="fill:none;stroke:#000000;stroke-linecap:square;stroke-opacity:0.7;stroke-width:1.2;"/>
   </g>
   <g id="line2d_62">
    <path clip-path="url(#p5f75b78024)" d="M 484.111567 211.370147 
L 475.61241 209.648029 
L 469.883966 208.678572 
L 464.813665 208.023976 
L 459.122619 207.539601 
L 453.683446 207.296383 
L 447.425398 207.247015 
L 442.414573 207.429187 
L 438.545582 207.788919 
L 435.405061 208.279738 
L 432.473684 208.951967 
L 430.090143 209.720494 
L 428.352192 210.523664 
L 427.49192 211.159813 
L 427.189262 211.695234 
L 427.234316 211.998718 
L 427.422617 212.25397 
L 428.065005 212.656758 
L 429.278737 213.066826 
L 431.645155 213.533684 
L 434.707721 213.899239 
L 439.666448 214.225902 
L 444.612257 214.345144 
L 449.863753 214.270334 
L 454.320999 214.01541 
L 459.614432 213.48914 
L 475.214124 211.738894 
L 480.171171 211.498117 
L 484.141228 211.483321 
L 484.141228 211.483321 
" style="fill:none;stroke:#000000;stroke-linecap:square;stroke-opacity:0.7;stroke-width:1.2;"/>
   </g>
   <g id="line2d_63">
    <path clip-path="url(#p5f75b78024)" d="M 483.901057 192.220154 
L 473.407725 190.244951 
L 466.935888 189.242934 
L 461.702362 188.655645 
L 456.588972 188.297359 
L 450.486792 188.122522 
L 445.218266 188.184183 
L 440.923523 188.4317 
L 437.070687 188.889768 
L 433.892651 189.508025 
L 432.002223 190.016016 
L 430.007984 190.719578 
L 428.403777 191.524537 
L 427.615637 192.186717 
L 427.410458 192.644407 
L 427.491066 192.986604 
L 427.884752 193.366663 
L 428.824495 193.790303 
L 430.10496 194.131287 
L 432.727219 194.56164 
L 436.610404 194.92866 
L 441.601229 195.166234 
L 447.151778 195.225902 
L 452.458239 195.071826 
L 457.414909 194.718868 
L 464.873746 193.938267 
L 474.587397 192.928163 
L 481.214736 192.472979 
L 483.930646 192.372196 
L 483.930646 192.372196 
" style="fill:none;stroke:#000000;stroke-linecap:square;stroke-opacity:0.7;stroke-width:1.2;"/>
   </g>
   <g id="line2d_64">
    <path clip-path="url(#p5f75b78024)" d="M 484.277874 173.235517 
L 475.764513 171.602679 
L 469.029844 170.512941 
L 462.663937 169.713499 
L 455.988275 169.107198 
L 449.64954 168.735734 
L 444.81291 168.651035 
L 440.943417 168.801004 
L 438.082387 169.089185 
L 434.944563 169.62711 
L 432.409826 170.277433 
L 430.460512 170.960754 
L 428.928491 171.683037 
L 427.827542 172.434704 
L 427.474789 172.808792 
L 427.234267 173.366226 
L 427.304464 173.731923 
L 427.566752 174.062793 
L 428.199028 174.458817 
L 429.624619 174.944977 
L 431.979352 175.404638 
L 435.292014 175.783774 
L 439.68575 176.05165 
L 445.184241 176.160977 
L 451.976147 176.055121 
L 458.32717 175.729985 
L 464.997534 175.160393 
L 483.039355 173.453878 
L 484.283531 173.378228 
L 484.283531 173.378228 
" style="fill:none;stroke:#000000;stroke-linecap:square;stroke-opacity:0.7;stroke-width:1.2;"/>
   </g>
   <g id="line2d_65">
    <path clip-path="url(#p5f75b78024)" d="M 484.435938 154.436975 
L 475.394576 152.615912 
L 468.912116 151.496537 
L 462.537426 150.628409 
L 456.792278 150.060645 
L 450.927608 149.710312 
L 445.78136 149.645247 
L 441.428416 149.831421 
L 437.97991 150.189628 
L 434.776879 150.742741 
L 432.440467 151.324023 
L 429.995756 152.170723 
L 428.653927 152.817155 
L 427.589528 153.56888 
L 427.166988 154.136373 
L 427.113323 154.576103 
L 427.280618 154.923692 
L 427.641354 155.247328 
L 428.378137 155.626466 
L 429.643003 156.027347 
L 431.809808 156.453735 
L 434.740609 156.799384 
L 438.568404 157.035793 
L 443.334524 157.117297 
L 449.634387 156.991238 
L 456.699616 156.623248 
L 465.341161 155.919737 
L 477.659567 154.91292 
L 484.439881 154.579059 
L 484.439881 154.579059 
" style="fill:none;stroke:#000000;stroke-linecap:square;stroke-opacity:0.7;stroke-width:1.2;"/>
   </g>
   <g id="line2d_66">
    <path clip-path="url(#p5f75b78024)" d="M 484.545728 135.119222 
L 474.542822 133.394293 
L 466.716442 132.295753 
L 458.664113 131.394754 
L 452.880707 130.935298 
L 447.077202 130.701593 
L 442.667667 130.734492 
L 438.845335 130.981693 
L 435.750126 131.390542 
L 432.9827 131.963518 
L 430.825976 132.592651 
L 428.611883 133.513917 
L 427.642539 134.108925 
L 427.124278 134.577705 
L 426.816335 135.160268 
L 426.901593 135.633398 
L 427.260378 136.016657 
L 428.083076 136.443528 
L 429.609771 136.877168 
L 431.559241 137.206344 
L 435.335762 137.55769 
L 439.766057 137.734172 
L 445.851312 137.748875 
L 453.890453 137.528622 
L 461.894634 137.102112 
L 471.232288 136.371 
L 483.402402 135.415112 
L 484.549646 135.347557 
L 484.549646 135.347557 
" style="fill:none;stroke:#000000;stroke-linecap:square;stroke-opacity:0.7;stroke-width:1.2;"/>
   </g>
   <g id="line2d_67">
    <path clip-path="url(#p5f75b78024)" d="M 484.250635 115.960179 
L 455.91575 111.866073 
L 449.823772 111.327552 
L 445.289643 111.142198 
L 441.447503 111.225693 
L 438.172108 111.53039 
L 435.2519 112.018335 
L 432.599673 112.673614 
L 430.32167 113.451803 
L 428.619355 114.245724 
L 427.444422 115.037297 
L 426.892967 115.685434 
L 426.777545 116.096666 
L 426.923942 116.544649 
L 427.375649 116.942748 
L 427.935226 117.22026 
L 428.979282 117.554709 
L 431.154858 117.975823 
L 434.601516 118.352859 
L 439.188723 118.605972 
L 444.497116 118.687111 
L 451.397107 118.559095 
L 460.666879 118.151228 
L 468.932868 117.584935 
L 479.363537 116.607096 
L 484.261706 116.123162 
L 484.261706 116.123162 
" style="fill:none;stroke:#000000;stroke-linecap:square;stroke-opacity:0.7;stroke-width:1.2;"/>
   </g>
   <g id="line2d_68">
    <path clip-path="url(#p5f75b78024)" d="M 484.35705 96.787148 
L 470.293361 94.471256 
L 461.886425 93.193163 
L 455.266986 92.412675 
L 449.389746 91.948324 
L 444.816989 91.79872 
L 441.034469 91.907166 
L 437.917695 92.228129 
L 434.803167 92.813922 
L 432.353108 93.506372 
L 430.190687 94.356882 
L 428.913744 95.036608 
L 427.851873 95.832096 
L 427.353401 96.452632 
L 427.190929 96.985015 
L 427.270103 97.394606 
L 427.561797 97.790095 
L 428.310016 98.272023 
L 429.164519 98.594687 
L 430.848286 98.986246 
L 433.298119 99.303391 
L 437.222543 99.521228 
L 441.815677 99.533368 
L 449.076269 99.289761 
L 466.912434 98.413406 
L 476.948947 97.673785 
L 484.352582 97.017397 
L 484.352582 97.017397 
" style="fill:none;stroke:#000000;stroke-linecap:square;stroke-opacity:0.7;stroke-width:1.2;"/>
   </g>
   <g id="line2d_69">
    <path clip-path="url(#p5f75b78024)" d="M 483.762037 77.836697 
L 463.547463 74.394315 
L 457.917403 73.743765 
L 452.461344 73.343422 
L 446.860094 73.170018 
L 442.034935 73.228897 
L 437.939381 73.509686 
L 434.904233 73.950526 
L 432.556136 74.509128 
L 430.408489 75.280974 
L 428.926795 76.066075 
L 428.137725 76.668761 
L 427.54482 77.452066 
L 427.473106 77.99089 
L 427.588947 78.289936 
L 427.880037 78.612779 
L 428.878065 79.130637 
L 430.206299 79.484065 
L 432.630203 79.824309 
L 436.325333 80.04251 
L 442.032007 80.10045 
L 455.951663 79.935434 
L 463.220711 79.64653 
L 471.157758 79.0799 
L 483.780647 77.925522 
L 483.780647 77.925522 
" style="fill:none;stroke:#000000;stroke-linecap:square;stroke-opacity:0.7;stroke-width:1.2;"/>
   </g>
   <g id="line2d_70">
    <path clip-path="url(#p5f75b78024)" d="M 484.006614 58.763849 
L 456.607873 54.222598 
L 450.712495 53.613009 
L 446.141655 53.357915 
L 442.266764 53.355646 
L 438.950692 53.572068 
L 436.056061 53.983606 
L 433.634641 54.536668 
L 431.382338 55.27826 
L 429.749174 56.010543 
L 428.383734 56.834718 
L 427.342392 57.786464 
L 426.989567 58.445842 
L 426.990797 58.974583 
L 427.27485 59.433072 
L 427.881774 59.861615 
L 429.047234 60.305996 
L 430.676054 60.667636 
L 433.190212 60.990351 
L 437.130024 61.227887 
L 442.082292 61.288819 
L 452.10895 61.122766 
L 462.770939 60.780648 
L 469.751815 60.334112 
L 477.261707 59.632142 
L 484.015329 58.879405 
L 484.015329 58.879405 
" style="fill:none;stroke:#000000;stroke-linecap:square;stroke-opacity:0.7;stroke-width:1.2;"/>
   </g>
   <g id="line2d_71">
    <path clip-path="url(#p5f75b78024)" d="M 548.115405 230.411217 
L 540.713444 228.898453 
L 534.938741 227.932176 
L 529.044526 227.174811 
L 522.501712 226.560324 
L 516.478566 226.186398 
L 511.226866 226.055212 
L 507.061862 226.15407 
L 503.084242 226.488021 
L 500.127479 226.920859 
L 497.048682 227.56912 
L 494.459376 228.315708 
L 492.392338 229.126302 
L 491.134733 229.829393 
L 490.427067 230.495382 
L 490.2624 230.976664 
L 490.431357 231.424434 
L 490.962018 231.860991 
L 492.057498 232.342257 
L 494.257063 232.923296 
L 497.622848 233.492246 
L 502.231525 233.993754 
L 506.813254 234.280349 
L 511.725118 234.363042 
L 516.046012 234.215847 
L 520.686729 233.810106 
L 525.839563 233.097825 
L 539.740484 230.955709 
L 544.228462 230.633979 
L 548.13711 230.540374 
L 548.13711 230.540374 
" style="fill:none;stroke:#000000;stroke-linecap:square;stroke-opacity:0.7;stroke-width:1.2;"/>
   </g>
   <g id="line2d_72">
    <path clip-path="url(#p5f75b78024)" d="M 548.025449 211.088672 
L 540.133106 209.735006 
L 532.683855 208.690761 
L 524.697942 207.809301 
L 517.958924 207.294839 
L 512.236528 207.09235 
L 507.838769 207.143433 
L 503.926894 207.411827 
L 500.538352 207.872313 
L 497.449758 208.515598 
L 494.705299 209.314865 
L 492.65229 210.139868 
L 491.460836 210.833639 
L 490.857603 211.454101 
L 490.758515 211.913502 
L 490.963272 212.305191 
L 491.512814 212.712713 
L 492.636975 213.182156 
L 494.790535 213.747102 
L 498.357792 214.357492 
L 502.996567 214.857027 
L 507.459826 215.105705 
L 511.57371 215.139122 
L 516.243499 214.945916 
L 520.974321 214.519028 
L 526.697678 213.754644 
L 540.357236 211.768934 
L 545.446225 211.375219 
L 548.051355 211.26795 
L 548.051355 211.26795 
" style="fill:none;stroke:#000000;stroke-linecap:square;stroke-opacity:0.7;stroke-width:1.2;"/>
   </g>
   <g id="line2d_73">
    <path clip-path="url(#p5f75b78024)" d="M 547.575499 192.183105 
L 535.627693 190.123903 
L 529.54796 189.266153 
L 523.749526 188.681341 
L 517.91348 188.33013 
L 511.752846 188.188157 
L 506.453919 188.277527 
L 502.669374 188.555613 
L 499.752005 188.967758 
L 497.010928 189.565206 
L 494.864466 190.223948 
L 492.800611 191.12518 
L 491.832444 191.767521 
L 491.288541 192.423429 
L 491.218102 192.926073 
L 491.344977 193.23544 
L 491.873529 193.746403 
L 492.537233 194.119365 
L 494.05261 194.682017 
L 496.705758 195.311843 
L 499.651589 195.762509 
L 503.68842 196.120275 
L 507.67442 196.250046 
L 512.334955 196.165635 
L 517.413312 195.817448 
L 523.267291 195.138763 
L 541.492869 192.714337 
L 546.669109 192.35873 
L 547.606222 192.328036 
L 547.606222 192.328036 
" style="fill:none;stroke:#000000;stroke-linecap:square;stroke-opacity:0.7;stroke-width:1.2;"/>
   </g>
   <g id="line2d_74">
    <path clip-path="url(#p5f75b78024)" d="M 547.854844 173.187959 
L 535.069477 170.925574 
L 528.938156 170.063739 
L 523.090832 169.470658 
L 517.00439 169.097429 
L 511.70798 168.976261 
L 506.913768 169.054412 
L 502.617543 169.336967 
L 499.135424 169.784914 
L 496.212115 170.384232 
L 493.742567 171.138653 
L 492.092096 171.879271 
L 491.180898 172.491076 
L 490.766788 172.933385 
L 490.558199 173.553227 
L 490.652239 173.895081 
L 491.074313 174.370856 
L 492.057665 174.913183 
L 493.847182 175.478658 
L 496.454076 175.979693 
L 499.612642 176.348654 
L 503.73435 176.600937 
L 509.088733 176.67708 
L 515.438623 176.518863 
L 521.315963 176.157941 
L 527.574704 175.547887 
L 547.865857 173.330488 
L 547.865857 173.330488 
" style="fill:none;stroke:#000000;stroke-linecap:square;stroke-opacity:0.7;stroke-width:1.2;"/>
   </g>
   <g id="line2d_75">
    <path clip-path="url(#p5f75b78024)" d="M 547.961426 153.931403 
L 531.91708 151.422514 
L 524.953587 150.579136 
L 519.036888 150.063876 
L 513.364805 149.776211 
L 508.26203 149.746623 
L 504.438822 149.925239 
L 501.130786 150.267936 
L 498.299706 150.740331 
L 495.113186 151.540844 
L 492.861588 152.376717 
L 491.525185 153.092266 
L 490.834258 153.641981 
L 490.481347 154.132619 
L 490.413995 154.596281 
L 490.557367 154.929171 
L 491.033177 155.357031 
L 491.792756 155.733824 
L 493.53024 156.249656 
L 496.101978 156.713529 
L 499.744841 157.118057 
L 504.210555 157.393807 
L 509.638917 157.501804 
L 515.374582 157.38921 
L 521.331123 157.054176 
L 528.058298 156.448161 
L 537.503924 155.330293 
L 547.957932 154.097198 
L 547.957932 154.097198 
" style="fill:none;stroke:#000000;stroke-linecap:square;stroke-opacity:0.7;stroke-width:1.2;"/>
   </g>
   <g id="line2d_76">
    <path clip-path="url(#p5f75b78024)" d="M 548.152547 134.804886 
L 531.625888 132.486319 
L 523.487475 131.579517 
L 516.919726 131.074869 
L 511.16524 130.848551 
L 506.700464 130.87566 
L 503.00637 131.112494 
L 499.769738 131.534306 
L 496.694775 132.167434 
L 494.608318 132.773429 
L 492.914369 133.442833 
L 491.807294 134.070988 
L 491.132022 134.740564 
L 491.000106 135.245313 
L 491.175367 135.666224 
L 491.611177 136.059406 
L 492.662026 136.575807 
L 494.484031 137.111036 
L 496.990335 137.584924 
L 500.733008 138.032108 
L 505.155248 138.324205 
L 510.339345 138.435078 
L 516.322107 138.322714 
L 522.80293 137.976421 
L 529.389301 137.402324 
L 536.543976 136.547537 
L 548.155738 135.079541 
L 548.155738 135.079541 
" style="fill:none;stroke:#000000;stroke-linecap:square;stroke-opacity:0.7;stroke-width:1.2;"/>
   </g>
   <g id="line2d_77">
    <path clip-path="url(#p5f75b78024)" d="M 547.681832 116.064235 
L 528.826942 113.267842 
L 520.743465 112.31893 
L 514.210636 111.753356 
L 509.130321 111.505663 
L 505.253706 111.519527 
L 502.130362 111.731514 
L 499.233357 112.142411 
L 496.395275 112.803139 
L 493.905847 113.688859 
L 492.381063 114.498237 
L 491.4829 115.242868 
L 491.140716 115.762529 
L 491.0686 116.361153 
L 491.207823 116.706879 
L 491.756573 117.253842 
L 492.393306 117.616555 
L 493.906262 118.161244 
L 496.264985 118.670438 
L 499.305914 119.052877 
L 503.219079 119.292435 
L 507.823181 119.340709 
L 513.670234 119.169742 
L 521.398015 118.703806 
L 530.010224 117.946945 
L 547.690857 116.178671 
L 547.690857 116.178671 
" style="fill:none;stroke:#000000;stroke-linecap:square;stroke-opacity:0.7;stroke-width:1.2;"/>
   </g>
   <g id="line2d_78">
    <path clip-path="url(#p5f75b78024)" d="M 547.812998 97.147321 
L 522.361031 93.016112 
L 516.4161 92.372809 
L 511.767198 92.075962 
L 507.646708 92.028846 
L 503.503343 92.231216 
L 499.762884 92.676654 
L 496.927844 93.235055 
L 494.473573 93.943732 
L 492.604482 94.716914 
L 491.372991 95.454365 
L 490.819585 95.935552 
L 490.340176 96.719119 
L 490.316731 97.116205 
L 490.561681 97.645602 
L 490.994077 98.038565 
L 491.658223 98.411708 
L 493.088615 98.915338 
L 495.52268 99.426106 
L 498.85815 99.830771 
L 503.48599 100.113126 
L 508.864628 100.208633 
L 515.917503 100.103093 
L 523.219112 99.764322 
L 530.325167 99.20571 
L 539.009009 98.278534 
L 547.80563 97.219784 
L 547.80563 97.219784 
" style="fill:none;stroke:#000000;stroke-linecap:square;stroke-opacity:0.7;stroke-width:1.2;"/>
   </g>
   <g id="line2d_79">
    <path clip-path="url(#p5f75b78024)" d="M 548.10624 77.876202 
L 535.319722 75.859566 
L 522.39735 73.840206 
L 515.764689 73.034597 
L 510.824595 72.643051 
L 507.012595 72.555203 
L 503.697372 72.70662 
L 500.461699 73.107586 
L 497.375847 73.759663 
L 494.949347 74.500465 
L 492.770166 75.419863 
L 491.450481 76.197902 
L 490.760371 76.76827 
L 490.241978 77.485891 
L 490.143527 77.898113 
L 490.208123 78.285628 
L 490.458419 78.677143 
L 491.09282 79.16051 
L 491.83244 79.504061 
L 493.368291 79.964175 
L 495.897078 80.41724 
L 499.352735 80.762647 
L 503.812459 80.962585 
L 509.232611 80.979437 
L 517.938751 80.74362 
L 529.092391 80.263364 
L 535.703682 79.756359 
L 541.650038 79.048308 
L 548.115842 78.057976 
L 548.115842 78.057976 
" style="fill:none;stroke:#000000;stroke-linecap:square;stroke-opacity:0.7;stroke-width:1.2;"/>
   </g>
   <g id="line2d_80">
    <path clip-path="url(#p5f75b78024)" d="M 547.869007 58.72067 
L 539.342252 57.554083 
L 515.648281 54.104062 
L 510.348423 53.647407 
L 506.557151 53.533847 
L 503.246413 53.67519 
L 500.183134 54.06244 
L 497.553534 54.625554 
L 495.300986 55.31571 
L 493.640323 55.993346 
L 492.090153 56.844954 
L 491.191135 57.555013 
L 490.660971 58.255285 
L 490.53496 58.891915 
L 490.648868 59.254043 
L 491.097978 59.761294 
L 491.991909 60.266745 
L 493.590791 60.784474 
L 495.813562 61.218307 
L 498.925621 61.578351 
L 502.967764 61.81056 
L 507.632965 61.865334 
L 514.440798 61.696144 
L 528.419511 61.081643 
L 535.038607 60.572505 
L 541.074015 59.877192 
L 547.891016 58.869618 
L 547.891016 58.869618 
" style="fill:none;stroke:#000000;stroke-linecap:square;stroke-opacity:0.7;stroke-width:1.2;"/>
   </g>
   <g id="line2d_81">
    <path clip-path="url(#p5f75b78024)" d="M 611.748319 230.056719 
L 601.327863 228.437926 
L 594.261338 227.570759 
L 587.594524 226.962682 
L 581.060046 226.583283 
L 575.710575 226.474911 
L 571.245846 226.584377 
L 567.477503 226.873381 
L 564.124064 227.316295 
L 560.951115 227.925473 
L 557.890985 228.7486 
L 556.111747 229.413405 
L 554.925285 230.05244 
L 554.294627 230.687953 
L 554.220689 231.088057 
L 554.396732 231.445408 
L 554.86525 231.82667 
L 555.658341 232.210279 
L 557.741635 232.840063 
L 561.106466 233.490823 
L 565.526321 234.058217 
L 570.290549 234.435142 
L 574.801934 234.579257 
L 578.75623 234.50999 
L 582.783489 234.239897 
L 587.215855 233.736095 
L 593.133763 232.814423 
L 604.374123 230.956133 
L 608.781921 230.470701 
L 611.770792 230.25985 
L 611.770792 230.25985 
" style="fill:none;stroke:#000000;stroke-linecap:square;stroke-opacity:0.7;stroke-width:1.2;"/>
   </g>
   <g id="line2d_82">
    <path clip-path="url(#p5f75b78024)" d="M 611.690377 211.092374 
L 602.910966 209.49507 
L 595.846258 208.436906 
L 589.514203 207.732954 
L 583.619896 207.305186 
L 577.606233 207.111221 
L 572.449954 207.162693 
L 567.994638 207.425597 
L 564.094257 207.897399 
L 561.107957 208.462883 
L 558.646116 209.110508 
L 556.360316 209.953725 
L 555.178883 210.59677 
L 554.467875 211.267074 
L 554.325871 211.731167 
L 554.425593 212.06576 
L 554.802164 212.475396 
L 555.559786 212.923431 
L 557.037059 213.479793 
L 559.186646 214.042309 
L 562.356545 214.64129 
L 566.29894 215.165253 
L 570.721916 215.535073 
L 575.064242 215.691538 
L 579.689901 215.626882 
L 583.814187 215.363866 
L 588.274499 214.874125 
L 593.73802 214.03876 
L 607.252528 211.821723 
L 611.695077 211.299509 
L 611.695077 211.299509 
" style="fill:none;stroke:#000000;stroke-linecap:square;stroke-opacity:0.7;stroke-width:1.2;"/>
   </g>
   <g id="line2d_83">
    <path clip-path="url(#p5f75b78024)" d="M 611.882235 192.448626 
L 604.419111 190.994397 
L 598.790964 190.102103 
L 592.294795 189.297246 
L 585.014436 188.625271 
L 578.797035 188.265302 
L 573.463612 188.17737 
L 569.870378 188.282418 
L 565.947839 188.603448 
L 562.694286 189.074296 
L 559.3617 189.804942 
L 557.003007 190.550659 
L 555.584935 191.177878 
L 554.54625 191.887797 
L 554.184775 192.42735 
L 554.164689 192.731749 
L 554.415155 193.18631 
L 554.682278 193.415775 
L 555.812553 193.990005 
L 557.853051 194.609976 
L 560.675948 195.195569 
L 565.059699 195.832285 
L 569.865938 196.290125 
L 574.422526 196.520447 
L 579.053898 196.539223 
L 583.374864 196.349447 
L 588.193806 195.907108 
L 593.249842 195.217939 
L 608.437027 192.941491 
L 611.894874 192.595583 
L 611.894874 192.595583 
" style="fill:none;stroke:#000000;stroke-linecap:square;stroke-opacity:0.7;stroke-width:1.2;"/>
   </g>
   <g id="line2d_84">
    <path clip-path="url(#p5f75b78024)" d="M 611.852834 172.731704 
L 588.540874 169.981329 
L 582.007291 169.532677 
L 575.765157 169.307572 
L 570.825919 169.317694 
L 567.073461 169.510702 
L 563.858339 169.865671 
L 560.635571 170.460547 
L 558.520974 171.036412 
L 556.865706 171.660376 
L 555.8163 172.216208 
L 555.192038 172.702863 
L 554.785884 173.333737 
L 554.776767 173.754758 
L 554.957344 174.133224 
L 555.300903 174.490638 
L 556.165021 175.031994 
L 557.148692 175.45145 
L 558.981347 176.014286 
L 561.934666 176.633942 
L 565.475952 177.116799 
L 569.733555 177.447214 
L 574.101791 177.566682 
L 579.178097 177.468305 
L 584.427092 177.114394 
L 589.773681 176.504916 
L 596.328219 175.49874 
L 611.859249 172.992511 
L 611.859249 172.992511 
" style="fill:none;stroke:#000000;stroke-linecap:square;stroke-opacity:0.7;stroke-width:1.2;"/>
   </g>
   <g id="line2d_85">
    <path clip-path="url(#p5f75b78024)" d="M 611.817687 154.318863 
L 601.406472 152.48501 
L 594.580667 151.487428 
L 587.906304 150.743029 
L 581.882975 150.298343 
L 575.813942 150.073822 
L 570.869357 150.070617 
L 566.52681 150.291578 
L 563.063786 150.711282 
L 560.41736 151.232623 
L 558.181656 151.861032 
L 556.122716 152.699062 
L 554.979664 153.430912 
L 554.474405 154.032682 
L 554.370869 154.469673 
L 554.467126 154.824664 
L 554.798432 155.230953 
L 555.637506 155.76176 
L 556.687436 156.183282 
L 559.112961 156.825393 
L 562.262963 157.363891 
L 566.195938 157.78959 
L 570.559384 158.03977 
L 575.567498 158.092799 
L 581.138913 157.905384 
L 586.740829 157.494291 
L 593.125087 156.793453 
L 611.821731 154.500054 
L 611.821731 154.500054 
" style="fill:none;stroke:#000000;stroke-linecap:square;stroke-opacity:0.7;stroke-width:1.2;"/>
   </g>
   <g id="line2d_86">
    <path clip-path="url(#p5f75b78024)" d="M 611.845941 135.024482 
L 599.130953 133.091184 
L 590.628028 132.012454 
L 583.653454 131.350707 
L 577.178116 130.964894 
L 572.002327 130.864245 
L 568.243905 130.988635 
L 565.062933 131.285601 
L 561.85713 131.806915 
L 558.947641 132.530338 
L 556.852297 133.286336 
L 555.487774 134.010105 
L 554.835541 134.553176 
L 554.512641 135.080559 
L 554.527417 135.627817 
L 554.858206 136.097606 
L 555.632808 136.624695 
L 556.999386 137.17973 
L 559.383154 137.797284 
L 562.580138 138.335199 
L 566.281633 138.733848 
L 570.856173 139.000191 
L 576.016705 139.063386 
L 581.963971 138.890194 
L 588.057147 138.489237 
L 593.769488 137.906556 
L 600.271016 137.022031 
L 611.850129 135.258997 
L 611.850129 135.258997 
" style="fill:none;stroke:#000000;stroke-linecap:square;stroke-opacity:0.7;stroke-width:1.2;"/>
   </g>
   <g id="line2d_87">
    <path clip-path="url(#p5f75b78024)" d="M 611.708164 116.013398 
L 590.09685 112.648395 
L 583.782172 111.993163 
L 578.053634 111.629042 
L 572.828823 111.525994 
L 568.957836 111.616028 
L 564.800788 111.925822 
L 561.78499 112.355299 
L 559.358755 112.897441 
L 557.057302 113.693745 
L 555.696918 114.441767 
L 555.140019 114.911344 
L 554.735522 115.497214 
L 554.645711 115.933617 
L 554.755356 116.376483 
L 554.984928 116.705057 
L 555.588016 117.181105 
L 557.09625 117.823872 
L 558.841174 118.261126 
L 561.503833 118.674715 
L 565.433777 119.013275 
L 570.854482 119.211832 
L 578.246029 119.228879 
L 584.707234 119.052222 
L 590.950319 118.668228 
L 597.222984 118.063776 
L 605.595261 117.009229 
L 611.698708 116.179626 
L 611.698708 116.179626 
" style="fill:none;stroke:#000000;stroke-linecap:square;stroke-opacity:0.7;stroke-width:1.2;"/>
   </g>
   <g id="line2d_88">
    <path clip-path="url(#p5f75b78024)" d="M 611.63732 97.011876 
L 581.951558 93.081607 
L 575.402491 92.525633 
L 570.970541 92.35552 
L 567.414493 92.439853 
L 564.263126 92.73683 
L 561.96434 93.114663 
L 559.543362 93.701438 
L 557.449855 94.43724 
L 556.008785 95.167057 
L 555.029199 95.916804 
L 554.579383 96.503959 
L 554.405746 97.152945 
L 554.563844 97.735715 
L 554.854052 98.119387 
L 555.41652 98.567237 
L 556.22654 98.992279 
L 557.778766 99.529532 
L 559.706395 99.966474 
L 562.990778 100.427823 
L 566.842452 100.718947 
L 571.604471 100.852917 
L 577.234393 100.792452 
L 583.755712 100.49469 
L 590.401142 99.958628 
L 597.542757 99.148849 
L 607.448886 97.77176 
L 611.660425 97.157329 
L 611.660425 97.157329 
" style="fill:none;stroke:#000000;stroke-linecap:square;stroke-opacity:0.7;stroke-width:1.2;"/>
   </g>
   <g id="line2d_89">
    <path clip-path="url(#p5f75b78024)" d="M 611.649972 78.074587 
L 596.884911 76.001946 
L 584.240125 74.291279 
L 577.121997 73.551728 
L 572.10241 73.254866 
L 568.429559 73.239616 
L 565.14088 73.439911 
L 562.405344 73.816424 
L 560.081634 74.339519 
L 558.565749 74.820999 
L 556.98009 75.509595 
L 555.678918 76.357982 
L 555.161938 76.901733 
L 554.913494 77.36459 
L 554.866036 77.920947 
L 555.026706 78.327476 
L 555.285279 78.646464 
L 556.022023 79.179133 
L 556.914977 79.594207 
L 558.48273 80.095719 
L 561.167952 80.647976 
L 563.979664 80.999535 
L 567.843384 81.241823 
L 572.100058 81.291035 
L 579.885312 81.103108 
L 590.019799 80.649579 
L 596.753512 80.118521 
L 602.929176 79.413887 
L 611.648422 78.15851 
L 611.648422 78.15851 
" style="fill:none;stroke:#000000;stroke-linecap:square;stroke-opacity:0.7;stroke-width:1.2;"/>
   </g>
   <g id="line2d_90">
    <path clip-path="url(#p5f75b78024)" d="M 611.569458 58.68247 
L 603.11658 57.632445 
L 595.314434 56.45008 
L 582.660878 54.48611 
L 576.309043 53.739312 
L 572.274352 53.459168 
L 568.652547 53.440019 
L 565.35264 53.694553 
L 562.443777 54.180844 
L 559.843022 54.863915 
L 557.527641 55.735936 
L 556.025241 56.51705 
L 554.901324 57.339929 
L 554.230407 58.163275 
L 554.055398 58.772313 
L 554.12124 59.193877 
L 554.374733 59.624085 
L 555.022533 60.168504 
L 555.794204 60.571444 
L 557.336374 61.109524 
L 559.635751 61.631672 
L 562.79342 62.088327 
L 566.689312 62.410852 
L 571.465666 62.554666 
L 576.64158 62.481256 
L 585.318517 62.091422 
L 593.846464 61.507422 
L 599.357566 60.922499 
L 604.756067 60.128283 
L 610.262899 59.104876 
L 611.577646 58.825901 
L 611.577646 58.825901 
" style="fill:none;stroke:#000000;stroke-linecap:square;stroke-opacity:0.7;stroke-width:1.2;"/>
   </g>
   <g id="line2d_91">
    <path clip-path="url(#p5f75b78024)" d="M 675.464606 229.867019 
L 654.930112 227.236531 
L 649.007466 226.732694 
L 642.958347 226.452159 
L 637.59771 226.4154 
L 633.17602 226.594981 
L 629.412619 226.965226 
L 626.167391 227.481219 
L 622.945675 228.219366 
L 620.793677 228.907602 
L 619.319965 229.57876 
L 618.508742 230.178242 
L 618.204873 230.686192 
L 618.228177 231.123784 
L 618.419624 231.458152 
L 618.825297 231.849313 
L 619.795316 232.446035 
L 621.685412 233.236762 
L 624.477675 234.082766 
L 627.664972 234.807236 
L 631.525673 235.440771 
L 634.823735 235.790299 
L 638.229834 235.960257 
L 641.612769 235.928573 
L 645.576587 235.64706 
L 649.426463 235.155205 
L 654.253351 234.295939 
L 660.7524 232.865013 
L 667.802269 231.343241 
L 672.760515 230.490149 
L 675.470977 230.105689 
L 675.470977 230.105689 
" style="fill:none;stroke:#000000;stroke-linecap:square;stroke-opacity:0.7;stroke-width:1.2;"/>
   </g>
   <g id="line2d_92">
    <path clip-path="url(#p5f75b78024)" d="M 675.331075 211.477745 
L 666.956929 209.815165 
L 661.726795 208.960123 
L 656.708923 208.338518 
L 651.542531 207.914308 
L 645.700306 207.674858 
L 639.333025 207.668751 
L 633.809624 207.882434 
L 629.469326 208.263091 
L 625.664386 208.8395 
L 622.795163 209.495509 
L 620.700407 210.173217 
L 619.599941 210.664451 
L 618.559581 211.410106 
L 618.313661 211.863394 
L 618.383471 212.332812 
L 618.64799 212.676203 
L 619.582819 213.293269 
L 621.201793 213.929822 
L 623.83037 214.607877 
L 626.492069 215.078145 
L 629.555143 215.450283 
L 634.353294 215.770715 
L 638.496508 215.836276 
L 643.003323 215.688778 
L 647.66048 215.286197 
L 653.466559 214.504911 
L 670.212258 212.042334 
L 675.355564 211.590254 
L 675.355564 211.590254 
" style="fill:none;stroke:#000000;stroke-linecap:square;stroke-opacity:0.7;stroke-width:1.2;"/>
   </g>
   <g id="line2d_93">
    <path clip-path="url(#p5f75b78024)" d="M 675.412779 191.916682 
L 661.883766 190.022649 
L 654.627422 189.186437 
L 648.11239 188.656636 
L 642.112579 188.415867 
L 636.80624 188.417379 
L 632.15346 188.620755 
L 628.34706 188.984361 
L 625.13528 189.47817 
L 621.980023 190.207313 
L 620.289003 190.77419 
L 618.942107 191.448247 
L 618.324711 192.016923 
L 618.173346 192.535559 
L 618.353892 192.97405 
L 618.859949 193.444477 
L 619.768011 193.955044 
L 621.246177 194.535446 
L 623.638395 195.225354 
L 626.754058 195.898683 
L 630.688936 196.520326 
L 634.534343 196.923322 
L 638.389106 197.12209 
L 642.525403 197.096281 
L 647.103929 196.804406 
L 652.104863 196.232107 
L 657.284728 195.420747 
L 665.993527 193.781243 
L 673.57772 192.440734 
L 675.414822 192.15939 
L 675.414822 192.15939 
" style="fill:none;stroke:#000000;stroke-linecap:square;stroke-opacity:0.7;stroke-width:1.2;"/>
   </g>
   <g id="line2d_94">
    <path clip-path="url(#p5f75b78024)" d="M 675.135691 173.033896 
L 662.192469 171.075727 
L 654.87712 170.183834 
L 648.962925 169.686213 
L 642.963431 169.416505 
L 637.141628 169.373049 
L 631.98403 169.541927 
L 628.406603 169.844533 
L 625.217113 170.317135 
L 622.475836 170.958228 
L 620.545952 171.638817 
L 619.353984 172.275041 
L 618.823726 172.715211 
L 618.477293 173.298355 
L 618.493954 173.755685 
L 618.701808 174.128774 
L 619.078012 174.49246 
L 620.033717 175.066668 
L 621.632517 175.70057 
L 624.465763 176.47274 
L 628.098721 177.152971 
L 632.069542 177.643046 
L 636.195432 177.923204 
L 640.285361 177.987975 
L 644.822219 177.826737 
L 649.197849 177.460963 
L 654.470929 176.787997 
L 661.269382 175.657503 
L 675.147989 173.209426 
L 675.147989 173.209426 
" style="fill:none;stroke:#000000;stroke-linecap:square;stroke-opacity:0.7;stroke-width:1.2;"/>
   </g>
   <g id="line2d_95">
    <path clip-path="url(#p5f75b78024)" d="M 675.267494 153.850686 
L 665.540052 152.484826 
L 654.583246 150.961078 
L 648.642369 150.388641 
L 643.185694 150.093943 
L 637.836719 150.012875 
L 632.660246 150.151991 
L 628.792372 150.479538 
L 625.565683 150.984182 
L 623.169093 151.556922 
L 621.149588 152.247746 
L 619.715286 152.966994 
L 618.811508 153.715695 
L 618.491526 154.34841 
L 618.525829 154.829193 
L 618.860739 155.366099 
L 619.609145 155.954556 
L 620.644469 156.480873 
L 622.281331 157.073489 
L 624.681949 157.695173 
L 627.649012 158.231777 
L 631.078806 158.629211 
L 634.687835 158.837024 
L 639.030393 158.845448 
L 644.193256 158.594203 
L 649.288974 158.147477 
L 655.385087 157.395175 
L 662.236313 156.312547 
L 675.271016 154.062867 
L 675.271016 154.062867 
" style="fill:none;stroke:#000000;stroke-linecap:square;stroke-opacity:0.7;stroke-width:1.2;"/>
   </g>
   <g id="line2d_96">
    <path clip-path="url(#p5f75b78024)" d="M 675.208821 135.186292 
L 654.908554 132.16882 
L 648.195699 131.44334 
L 641.579978 130.945512 
L 636.360288 130.738221 
L 632.236883 130.775149 
L 629.096969 130.998746 
L 626.000034 131.454219 
L 623.660585 132.009255 
L 621.917582 132.594847 
L 620.58044 133.20631 
L 619.710889 133.74528 
L 619.066821 134.31043 
L 618.68627 134.860317 
L 618.546166 135.557735 
L 618.706346 136.103707 
L 619.040012 136.57569 
L 619.688017 137.142857 
L 620.718975 137.760668 
L 622.211859 138.408306 
L 624.767501 139.191511 
L 627.571276 139.770561 
L 630.595704 140.163256 
L 634.380537 140.39073 
L 638.564998 140.382745 
L 643.499645 140.135285 
L 649.312254 139.607963 
L 655.447671 138.796196 
L 662.732129 137.560022 
L 675.21238 135.320094 
L 675.21238 135.320094 
" style="fill:none;stroke:#000000;stroke-linecap:square;stroke-opacity:0.7;stroke-width:1.2;"/>
   </g>
   <g id="line2d_97">
    <path clip-path="url(#p5f75b78024)" d="M 675.434286 115.64212 
L 665.54631 114.494689 
L 651.090781 112.777263 
L 645.095832 112.308479 
L 639.245113 112.053444 
L 634.067923 112.030897 
L 630.050776 112.238622 
L 626.995622 112.601503 
L 624.180183 113.146569 
L 621.599568 113.899671 
L 619.859431 114.660301 
L 618.842886 115.381744 
L 618.52715 115.815819 
L 618.448212 116.159354 
L 618.563282 116.555042 
L 618.985464 116.999964 
L 619.902301 117.511952 
L 621.314544 118.016335 
L 623.886645 118.639874 
L 627.560328 119.241205 
L 632.037886 119.71106 
L 636.761604 119.97256 
L 642.266633 120.030058 
L 648.018659 119.86894 
L 653.909075 119.483293 
L 659.149092 118.918248 
L 664.532276 118.093871 
L 671.034047 116.841772 
L 675.437183 115.901354 
L 675.437183 115.901354 
" style="fill:none;stroke:#000000;stroke-linecap:square;stroke-opacity:0.7;stroke-width:1.2;"/>
   </g>
   <g id="line2d_98">
    <path clip-path="url(#p5f75b78024)" d="M 675.230297 97.077553 
L 660.674943 94.98908 
L 651.855274 93.815514 
L 644.4666 93.063199 
L 638.510645 92.674894 
L 634.016173 92.588794 
L 630.05773 92.746549 
L 626.828424 93.103012 
L 624.496055 93.535249 
L 622.187154 94.176487 
L 620.762934 94.743884 
L 619.416998 95.5261 
L 618.634369 96.28818 
L 618.350259 96.834215 
L 618.283312 97.374749 
L 618.468514 97.997666 
L 618.953519 98.629885 
L 619.749524 99.2529 
L 621.104759 99.962362 
L 623.193661 100.704018 
L 625.605411 101.290747 
L 628.601511 101.774851 
L 631.890116 102.086585 
L 635.746123 102.231003 
L 640.50808 102.159128 
L 645.722098 101.846194 
L 651.669523 101.25323 
L 658.15252 100.360937 
L 665.687704 99.076916 
L 675.245799 97.213071 
L 675.245799 97.213071 
" style="fill:none;stroke:#000000;stroke-linecap:square;stroke-opacity:0.7;stroke-width:1.2;"/>
   </g>
   <g id="line2d_99">
    <path clip-path="url(#p5f75b78024)" d="M 675.388313 77.941035 
L 662.278896 76.272983 
L 650.856325 74.871259 
L 643.737599 74.220318 
L 637.233928 73.833875 
L 632.7882 73.756618 
L 628.828045 73.930497 
L 625.773576 74.303687 
L 623.414355 74.791327 
L 621.455328 75.387897 
L 619.801701 76.122091 
L 618.665991 76.914813 
L 618.179108 77.539679 
L 618.050356 78.082273 
L 618.200804 78.585637 
L 618.644903 79.080188 
L 619.555207 79.624517 
L 621.255578 80.227439 
L 623.551044 80.742489 
L 626.535154 81.184118 
L 631.091855 81.596801 
L 636.65204 81.842973 
L 642.767737 81.892116 
L 648.885164 81.729555 
L 654.289489 81.383359 
L 659.883637 80.798233 
L 665.335886 80.007401 
L 671.909587 78.826765 
L 675.404331 78.101366 
L 675.404331 78.101366 
" style="fill:none;stroke:#000000;stroke-linecap:square;stroke-opacity:0.7;stroke-width:1.2;"/>
   </g>
   <g id="line2d_100">
    <path clip-path="url(#p5f75b78024)" d="M 675.486612 58.666082 
L 658.963932 56.584305 
L 643.208671 54.556383 
L 637.599105 54.070619 
L 633.655108 53.940064 
L 630.297418 54.053458 
L 627.234143 54.390198 
L 624.665994 54.876932 
L 622.057634 55.612522 
L 620.535383 56.201218 
L 619.060357 56.967471 
L 617.977141 57.823793 
L 617.533996 58.492555 
L 617.450786 58.954372 
L 617.618815 59.499707 
L 617.983814 59.928011 
L 618.716157 60.427782 
L 619.547393 60.813426 
L 621.745338 61.498515 
L 623.934769 61.961422 
L 627.814741 62.513533 
L 632.460908 62.888058 
L 637.080805 63.028062 
L 642.974651 62.955956 
L 649.885773 62.643339 
L 655.917795 62.179935 
L 661.576147 61.527594 
L 667.237074 60.628972 
L 673.035901 59.468305 
L 675.490909 58.888577 
L 675.490909 58.888577 
" style="fill:none;stroke:#000000;stroke-linecap:square;stroke-opacity:0.7;stroke-width:1.2;"/>
   </g>
  </g>
 </g>
 <defs>
  <clipPath id="p5f75b78024">
   <rect height="262.08" width="694.08" x="12.96" y="12.96"/>
  </clipPath>
 </defs>
</svg>
