<?xml version="1.0" encoding="utf-8" standalone="no"?>
<!DOCTYPE svg PUBLIC "-//W3C//DTD SVG 1.1//EN"
  "http://www.w3.org/Graphics/SVG/1.1/DTD/svg11.dtd">
<!-- Created with matplotlib (https://matplotlib.org/) -->
<svg height="288pt" version="1.1" viewBox="0 0 720 288" width="720pt" xmlns="http://www.w3.org/2000/svg" xmlns:xlink="http://www.w3.org/1999/xlink">
 <metadata>
  <rdf:RDF xmlns:cc="http://creativecommons.org/ns#" xmlns:dc="http://purl.org/dc/elements/1.1/" xmlns:rdf="http://www.w3.org/1999/02/22-rdf-syntax-ns#">
   <cc:Work>
    <dc:type rdf:resource="http://purl.org/dc/dcmitype/StillImage"/>
    <dc:date>2020-12-23T06:38:05.716632</dc:date>
    <dc:format>image/svg+xml</dc:format>
    <dc:creator>
     <cc:Agent>
      <dc:title>Matplotlib v3.3.2, https://matplotlib.org/</dc:title>
     </cc:Agent>
    </dc:creator>
   </cc:Work>
  </rdf:RDF>
 </metadata>
 <defs>
  <style type="text/css">*{stroke-linecap:butt;stroke-linejoin:round;}</style>
 </defs>
 <g id="figure_1">
  <g id="patch_1">
   <path d="M 0 288 
L 720 288 
L 720 0 
L 0 0 
z
" style="fill:#ffffff;"/>
  </g>
  <g id="axes_1">
   <g id="line2d_1">
    <path clip-path="url(#p812a2e8c01)" d="M 137.258533 224.913515 
L 137.168514 224.912127 
L 132.983801 224.743666 
L 126.786016 224.248052 
L 119.34117 223.387644 
L 109.615814 221.862413 
L 104.897304 221.139967 
L 102.582675 220.922237 
L 99.364544 220.782782 
L 94.799616 220.862785 
L 90.849352 221.195293 
L 87.719817 221.727793 
L 87.192054 221.867743 
L 86.145155 222.336063 
L 86.146912 222.480622 
L 86.171163 222.448104 
L 85.819512 222.230366 
L 85.238577 222.024433 
L 82.068047 221.325935 
L 78.008516 220.766581 
L 71.871999 220.316895 
L 67.844145 220.266902 
L 64.044866 220.418377 
L 60.18744 220.787992 
L 56.07513 221.426513 
L 52.816326 222.111458 
L 48.902146 223.214912 
L 47.263134 223.883947 
L 46.565699 224.294386 
L 46.084125 224.789703 
L 46.072277 225.276835 
L 46.500757 225.6662 
L 47.692348 226.083207 
L 48.74537 226.26119 
L 51.196336 226.382288 
L 53.718283 226.241637 
L 61.029492 225.553428 
L 62.824926 225.568137 
L 64.899882 225.727732 
L 68.63386 226.41276 
L 70.70999 227.002096 
L 75.793969 228.607915 
L 79.484863 229.302081 
L 82.413241 229.566312 
L 90.241063 229.73967 
L 97.903229 229.60262 
L 107.96619 229.173055 
L 112.223658 228.884426 
L 116.448189 228.412544 
L 124.280588 227.011505 
L 138.022799 224.277117 
L 138.022799 224.277117 
" style="fill:none;stroke:#000000;stroke-linecap:square;stroke-opacity:0.7;stroke-width:1.2;"/>
   </g>
   <g id="line2d_2">
    <path clip-path="url(#p812a2e8c01)" d="M 138.104093 184.569918 
L 137.917547 184.538961 
L 126.473135 182.756015 
L 98.206504 178.584899 
L 94.760777 178.305657 
L 90.020174 178.126467 
L 84.579358 178.33323 
L 81.23575 178.620077 
L 79.125634 178.56215 
L 70.889594 178.262208 
L 66.48736 178.335562 
L 63.424829 178.549316 
L 59.552895 179.092631 
L 55.900415 179.9611 
L 52.057535 181.21771 
L 49.06484 182.407449 
L 47.534944 183.195946 
L 46.592285 183.934458 
L 46.3134 184.422646 
L 46.37831 184.850788 
L 46.731508 185.194885 
L 47.000041 185.342755 
L 48.888064 185.859026 
L 51.022213 186.137624 
L 62.239011 187.2396 
L 66.119518 187.936502 
L 69.866423 188.919227 
L 76.648899 191.037263 
L 77.922956 191.321197 
L 81.722793 191.870811 
L 84.799679 192.078469 
L 90.25645 192.14281 
L 97.802582 191.870276 
L 101.806031 191.619282 
L 111.463761 190.793198 
L 115.626848 190.295446 
L 118.714027 189.733295 
L 122.697836 188.748502 
L 139.530503 184.14103 
L 139.530503 184.14103 
" style="fill:none;stroke:#000000;stroke-linecap:square;stroke-opacity:0.7;stroke-width:1.2;"/>
   </g>
   <g id="line2d_3">
    <path clip-path="url(#p812a2e8c01)" d="M 138.922291 144.910437 
L 138.896341 144.902202 
L 128.259172 141.652981 
L 121.579205 139.739431 
L 114.924045 138.091961 
L 114.391347 137.984337 
L 107.343691 136.999667 
L 101.484898 136.571935 
L 85.032394 135.691322 
L 81.991093 135.069851 
L 80.594741 134.623132 
L 79.368807 134.74266 
L 77.411176 135.256516 
L 75.417661 135.93316 
L 72.733102 136.821474 
L 67.936275 137.591673 
L 58.500732 140.143497 
L 53.682058 142.14363 
L 50.958801 143.51497 
L 48.036326 145.278472 
L 46.60343 146.38116 
L 45.820798 147.277153 
L 45.695651 147.711119 
L 45.821954 147.99317 
L 46.286608 148.236775 
L 46.789434 148.334425 
L 48.922991 148.373472 
L 53.703397 148.085717 
L 60.5251 147.728052 
L 70.931084 147.476892 
L 90.714489 147.103282 
L 102.032081 146.642297 
L 116.687108 145.806233 
L 138.346245 144.222933 
L 138.34104 144.22332 
" style="fill:none;stroke:#000000;stroke-linecap:square;stroke-opacity:0.7;stroke-width:1.2;"/>
   </g>
   <g id="line2d_4">
    <path clip-path="url(#p812a2e8c01)" d="M 138.504088 104.212308 
L 136.867187 103.84819 
L 131.024502 102.694845 
L 120.873259 100.970554 
L 104.564661 98.334843 
L 95.107695 96.412983 
L 90.653979 95.771419 
L 88.550531 95.574527 
L 85.606374 95.443852 
L 81.158419 95.585578 
L 74.803899 95.938163 
L 63.076714 96.269075 
L 60.195407 96.634557 
L 58.21165 97.067942 
L 55.895977 97.846454 
L 53.853612 98.789104 
L 46.764786 102.577492 
L 45.756026 103.224965 
L 44.866207 103.986887 
L 44.641078 104.293435 
L 44.509091 104.713232 
L 44.601251 105.046325 
L 44.845937 105.30749 
L 45.890395 105.77158 
L 47.101115 106.032452 
L 49.414687 106.302645 
L 56.647637 106.698075 
L 60.031669 106.895758 
L 65.374152 107.441874 
L 68.442399 107.997608 
L 71.889193 108.901467 
L 75.591117 109.843174 
L 77.082224 110.103034 
L 82.143427 110.562879 
L 85.843358 110.652369 
L 92.784233 110.536014 
L 98.353821 110.277287 
L 109.949351 109.433634 
L 115.887937 108.802209 
L 119.503189 108.203652 
L 124.326517 107.195522 
L 139.133715 103.884327 
L 139.133715 103.884327 
" style="fill:none;stroke:#000000;stroke-linecap:square;stroke-opacity:0.7;stroke-width:1.2;"/>
   </g>
   <g id="line2d_5">
    <path clip-path="url(#p812a2e8c01)" d="M 137.795581 64.378311 
L 137.712268 64.365798 
L 123.411677 62.097332 
L 108.245227 59.674583 
L 105.116386 59.338992 
L 99.939753 58.984031 
L 95.417894 58.841097 
L 82.65102 58.743205 
L 78.417983 58.354045 
L 75.82776 57.81602 
L 73.653589 57.821603 
L 69.675678 58.211385 
L 65.640714 58.875657 
L 62.368652 59.687325 
L 60.560542 60.297196 
L 53.487411 61.254905 
L 51.174935 61.856383 
L 48.947665 62.70934 
L 48.111063 63.166831 
L 47.271299 63.812032 
L 46.699814 64.657378 
L 46.624388 65.158286 
L 46.802956 65.784972 
L 47.211161 66.325419 
L 48.088964 66.999944 
L 48.795824 67.380883 
L 50.98456 68.192995 
L 51.545278 68.348411 
L 55.429411 69.106457 
L 58.899602 69.501356 
L 64.340216 69.869009 
L 73.867525 70.195721 
L 82.240756 70.23163 
L 87.447331 70.114108 
L 94.613581 69.776178 
L 106.978646 68.821613 
L 115.761608 67.895828 
L 117.708682 67.627185 
L 136.035091 64.557648 
L 139.313012 63.994597 
L 139.313012 63.994597 
" style="fill:none;stroke:#000000;stroke-linecap:square;stroke-opacity:0.7;stroke-width:1.2;"/>
   </g>
   <g id="line2d_6">
    <path clip-path="url(#p812a2e8c01)" d="M 271.891496 225.238061 
L 270.503332 225.160776 
L 263.807186 224.609999 
L 255.48563 223.639405 
L 252.764646 223.261037 
L 238.703459 221.091838 
L 234.082294 220.777822 
L 228.957761 220.698694 
L 223.596786 220.824029 
L 216.970504 221.072519 
L 216.195409 220.794107 
L 214.908569 220.526909 
L 212.440511 220.220635 
L 208.308705 219.942438 
L 203.180799 219.855413 
L 199.241392 219.982853 
L 194.998332 220.356724 
L 191.289808 220.940284 
L 187.56235 221.798308 
L 183.112526 223.095178 
L 180.499772 224.033991 
L 179.32621 224.65934 
L 178.868753 225.128982 
L 178.809214 225.479879 
L 179.01519 225.820136 
L 179.571388 226.188934 
L 180.528564 226.560942 
L 182.811059 227.125203 
L 187.242044 227.882338 
L 196.311167 229.356259 
L 199.885068 230.12352 
L 203.742446 231.197777 
L 210.83765 233.490049 
L 213.476488 234.059599 
L 215.340792 234.336098 
L 219.751888 234.677682 
L 222.950271 234.731268 
L 228.91201 234.557414 
L 233.386472 234.270096 
L 243.920694 233.263949 
L 250.934818 232.356226 
L 252.359222 232.105834 
L 256.093829 231.110151 
L 261.083443 229.375222 
L 274.19146 224.609165 
L 274.178922 224.613747 
" style="fill:none;stroke:#000000;stroke-linecap:square;stroke-opacity:0.7;stroke-width:1.2;"/>
   </g>
   <g id="line2d_7">
    <path clip-path="url(#p812a2e8c01)" d="M 273.430503 185.096803 
L 267.284363 183.86011 
L 245.000147 179.504167 
L 238.149218 178.395838 
L 233.269033 177.76283 
L 226.289508 177.116078 
L 221.359351 176.893053 
L 216.041792 176.864873 
L 202.198432 177.097572 
L 198.046002 177.415228 
L 195.625091 177.802555 
L 194.694583 178.036323 
L 193.688803 178.412776 
L 193.014914 178.897779 
L 192.842984 179.273686 
L 192.886988 179.628103 
L 193.230415 180.442894 
L 193.144791 180.649415 
L 192.798594 180.871083 
L 191.916504 181.139073 
L 187.948306 181.885938 
L 183.399807 182.852912 
L 181.001443 183.620721 
L 179.943177 184.190347 
L 179.632837 184.511959 
L 179.559964 184.911566 
L 179.727313 185.185025 
L 180.472514 185.65162 
L 181.954351 186.132851 
L 184.823064 186.691076 
L 187.586238 187.061469 
L 208.825032 189.235942 
L 214.3281 189.514994 
L 220.55705 189.586094 
L 230.727818 189.308002 
L 239.545883 188.797574 
L 247.966049 188.100621 
L 253.751225 187.350548 
L 266.861746 185.297724 
L 266.861746 185.297724 
L 272.692909 184.366583 
L 272.692909 184.366583 
" style="fill:none;stroke:#000000;stroke-linecap:square;stroke-opacity:0.7;stroke-width:1.2;"/>
   </g>
   <g id="line2d_8">
    <path clip-path="url(#p812a2e8c01)" d="M 272.880688 144.851476 
L 272.880694 144.851474 
L 272.811376 144.836134 
L 246.69867 139.151016 
L 243.86977 138.694543 
L 236.952946 137.954535 
L 231.138064 137.596517 
L 222.941639 137.354206 
L 215.879903 137.107038 
L 211.786466 136.705156 
L 210.663543 136.609248 
L 208.582395 136.65832 
L 205.811452 137.012716 
L 202.372332 137.706478 
L 199.991817 138.400955 
L 198.71306 138.922949 
L 195.148227 139.410041 
L 191.705061 140.138792 
L 188.855953 140.924517 
L 186.525618 141.719153 
L 183.786824 142.923693 
L 182.193779 143.898161 
L 181.512752 144.486196 
L 180.979586 145.351261 
L 180.974387 145.692565 
L 181.175385 146.071376 
L 181.638462 146.402641 
L 182.036381 146.563243 
L 183.578732 146.851131 
L 185.619517 146.920949 
L 189.092603 146.782947 
L 197.507843 146.390521 
L 203.876305 146.278332 
L 229.166361 146.052055 
L 242.508713 145.61443 
L 242.508713 145.61443 
L 258.874232 144.834787 
L 271.407608 144.198226 
L 271.407608 144.198226 
" style="fill:none;stroke:#000000;stroke-linecap:square;stroke-opacity:0.7;stroke-width:1.2;"/>
   </g>
   <g id="line2d_9">
    <path clip-path="url(#p812a2e8c01)" d="M 272.735951 104.572692 
L 255.017601 101.461939 
L 242.714247 99.319316 
L 236.385139 98.556413 
L 231.200063 98.135902 
L 224.517451 97.827231 
L 212.609068 97.411879 
L 208.908249 97.091458 
L 207.296622 97.070478 
L 203.3613 97.283403 
L 200.332237 97.681347 
L 197.989406 98.160082 
L 195.383276 98.938491 
L 189.402932 101.28198 
L 185.968953 101.974388 
L 182.345624 102.729373 
L 180.322826 103.374064 
L 179.249205 103.982649 
L 178.941492 104.396359 
L 178.970191 104.819134 
L 179.276112 105.183117 
L 180.093861 105.662944 
L 181.106914 106.046067 
L 183.366652 106.638678 
L 187.109794 107.316516 
L 193.225603 108.1238 
L 206.06646 109.556053 
L 211.61874 109.89545 
L 216.70329 110.008741 
L 223.958566 109.922364 
L 230.919353 109.633121 
L 240.050676 109.035875 
L 249.059758 108.203931 
L 255.432701 107.214675 
L 269.217073 104.656857 
L 272.768812 103.987881 
L 272.768812 103.987881 
" style="fill:none;stroke:#000000;stroke-linecap:square;stroke-opacity:0.7;stroke-width:1.2;"/>
   </g>
   <g id="line2d_10">
    <path clip-path="url(#p812a2e8c01)" d="M 272.65299 63.901928 
L 272.547879 63.860272 
L 268.743015 62.577233 
L 262.458551 60.884583 
L 255.428006 59.299909 
L 248.995594 58.060333 
L 236.130628 55.720447 
L 230.522188 54.329787 
L 224.689524 52.880888 
L 222.272412 52.422741 
L 219.840189 52.150463 
L 214.783307 52.319404 
L 206.601553 53.222061 
L 197.174584 53.963522 
L 195.81469 54.574508 
L 195.728625 55.551831 
L 196.751778 57.446266 
L 196.663975 57.946311 
L 195.861822 58.600272 
L 194.31996 59.151061 
L 191.334102 59.840481 
L 184.723228 61.244433 
L 182.089704 61.954631 
L 179.329951 62.992654 
L 178.365365 63.568307 
L 177.807248 64.178122 
L 177.751812 64.720966 
L 178.11668 65.210355 
L 178.92087 65.677575 
L 180.454372 66.174784 
L 182.369528 66.553201 
L 185.715311 66.936411 
L 190.132259 67.171386 
L 196.122381 67.257118 
L 208.321517 67.162879 
L 217.707983 66.961917 
L 232.272976 66.32968 
L 245.466995 65.496843 
L 265.487915 64.265095 
L 265.487915 64.265095 
L 272.183601 63.870305 
L 272.183601 63.870305 
" style="fill:none;stroke:#000000;stroke-linecap:square;stroke-opacity:0.7;stroke-width:1.2;"/>
   </g>
   <g id="line2d_11">
    <path clip-path="url(#p812a2e8c01)" d="M 406.896701 225.53665 
L 406.850894 225.523393 
L 382.900154 218.629634 
L 377.788535 217.80716 
L 372.56094 217.308285 
L 367.51979 216.99499 
L 359.53566 216.506788 
L 355.026709 215.858779 
L 353.357235 215.425778 
L 350.736354 214.460867 
L 349.670901 214.678733 
L 347.68814 215.2905 
L 341.448858 217.3753 
L 337.843583 217.964443 
L 335.528804 218.33892 
L 331.701866 219.213069 
L 327.873963 220.476946 
L 325.025837 221.703158 
L 322.713771 222.904998 
L 320.004264 224.604246 
L 318.680835 225.584942 
L 316.366885 227.69469 
L 315.48036 228.761849 
L 314.374169 231.118706 
L 314.351757 231.709452 
L 314.675944 232.68121 
L 315.149243 233.225735 
L 315.876241 233.722379 
L 317.221034 234.267707 
L 317.667287 234.395506 
L 321.141164 235.000522 
L 322.974609 235.17991 
L 328.64413 235.513917 
L 338.873022 235.803645 
L 347.857217 235.827499 
L 355.081389 235.618645 
L 364.792987 234.948769 
L 370.768535 234.339819 
L 381.308595 232.996953 
L 388.290854 231.82734 
L 389.173012 231.611806 
L 394.157088 230.046154 
L 408.669921 225.015349 
L 408.669921 225.015349 
" style="fill:none;stroke:#000000;stroke-linecap:square;stroke-opacity:0.7;stroke-width:1.2;"/>
   </g>
   <g id="line2d_12">
    <path clip-path="url(#p812a2e8c01)" d="M 406.316273 184.574243 
L 392.408478 181.860678 
L 383.58623 180.472213 
L 371.63933 178.626255 
L 366.595605 177.881949 
L 363.280097 177.574171 
L 356.271657 177.535422 
L 353.031432 177.868667 
L 349.712791 178.244382 
L 347.789543 178.270489 
L 341.702296 177.984253 
L 336.710466 177.830983 
L 333.880774 177.874429 
L 329.614195 178.254675 
L 327.593678 178.621489 
L 324.366906 179.479088 
L 319.083584 181.274232 
L 317.351299 181.938828 
L 315.31253 182.918914 
L 314.685322 183.374351 
L 314.297494 183.892211 
L 314.374269 184.470799 
L 314.67536 184.760683 
L 315.462581 185.145999 
L 316.277964 185.387086 
L 318.981567 185.854984 
L 327.862078 187.075418 
L 331.780472 187.880578 
L 336.896772 189.188259 
L 341.814426 190.377417 
L 345.672255 190.983981 
L 348.667055 191.245262 
L 351.325452 191.361578 
L 356.537948 191.379085 
L 363.665541 191.128951 
L 371.913257 190.604929 
L 379.406255 189.96788 
L 384.518315 189.364643 
L 390.832427 188.112171 
L 407.252351 184.315568 
L 407.252351 184.315568 
" style="fill:none;stroke:#000000;stroke-linecap:square;stroke-opacity:0.7;stroke-width:1.2;"/>
   </g>
   <g id="line2d_13">
    <path clip-path="url(#p812a2e8c01)" d="M 406.934781 144.30042 
L 406.572841 144.160422 
L 400.284251 141.959508 
L 391.672066 139.35529 
L 386.63416 138.03402 
L 381.116192 136.863925 
L 376.952421 136.269025 
L 371.801695 135.812231 
L 366.77174 135.525231 
L 347.380358 134.696072 
L 342.272022 134.321465 
L 341.293085 134.434533 
L 339.360046 135.013141 
L 337.449314 135.922892 
L 335.116594 137.177697 
L 333.564986 137.687447 
L 324.66163 139.649366 
L 321.971979 140.526539 
L 318.91065 141.795903 
L 316.452345 143.130917 
L 315.322209 143.902158 
L 313.89196 145.159276 
L 313.100841 146.182029 
L 312.606806 147.697874 
L 312.636097 148.095464 
L 312.817385 148.654959 
L 313.148569 149.156205 
L 313.621862 149.606803 
L 315.034373 150.386661 
L 316.565726 150.86512 
L 318.531091 151.235399 
L 321.591437 151.54252 
L 327.686805 151.754502 
L 338.497577 151.782327 
L 347.391762 151.666163 
L 357.162051 151.280173 
L 363.632054 150.829135 
L 373.579155 149.879468 
L 383.120845 148.73644 
L 387.972167 147.971209 
L 403.117967 145.139246 
L 407.514704 144.304901 
L 407.514704 144.304901 
" style="fill:none;stroke:#000000;stroke-linecap:square;stroke-opacity:0.7;stroke-width:1.2;"/>
   </g>
   <g id="line2d_14">
    <path clip-path="url(#p812a2e8c01)" d="M 407.306436 104.55568 
L 396.15011 101.563791 
L 385.930667 99.020898 
L 381.739144 98.117737 
L 377.432694 97.41648 
L 371.410272 96.792348 
L 366.364656 96.430006 
L 346.712508 95.245724 
L 343.410753 95.047987 
L 341.157032 95.201358 
L 339.500963 95.505523 
L 337.133897 96.204811 
L 334.783939 97.300565 
L 333.171098 98.192353 
L 331.232911 98.68188 
L 325.221984 99.892965 
L 321.517112 100.907469 
L 318.069849 102.170818 
L 315.77585 103.346708 
L 314.480896 104.321261 
L 313.768812 105.237194 
L 313.616479 105.658185 
L 313.639693 106.374565 
L 313.770445 106.679559 
L 314.37706 107.361492 
L 314.967571 107.75363 
L 316.028876 108.237618 
L 317.883066 108.778813 
L 320.276546 109.200448 
L 323.841016 109.537184 
L 329.945894 109.773546 
L 342.603477 109.983529 
L 353.889948 109.89498 
L 362.707703 109.516875 
L 366.695447 109.26098 
L 378.608445 108.252623 
L 384.235982 107.609782 
L 392.936526 106.242659 
L 406.879143 103.90173 
L 406.879143 103.90173 
" style="fill:none;stroke:#000000;stroke-linecap:square;stroke-opacity:0.7;stroke-width:1.2;"/>
   </g>
   <g id="line2d_15">
    <path clip-path="url(#p812a2e8c01)" d="M 406.497167 64.735098 
L 402.334182 64.585776 
L 394.520548 64.095044 
L 388.153775 63.457436 
L 385.676079 63.133068 
L 370.242096 60.827988 
L 367.205611 60.57716 
L 361.799442 60.307429 
L 354.53357 60.2501 
L 347.875267 60.324578 
L 347.75954 59.966117 
L 347.566447 59.839836 
L 346.533894 59.545408 
L 343.812597 59.229333 
L 339.46694 59.069227 
L 335.13413 59.133241 
L 331.489692 59.343918 
L 327.084476 59.823473 
L 323.268294 60.50228 
L 320.535254 61.191778 
L 317.309092 62.256955 
L 315.059217 63.233196 
L 314.339866 63.788187 
L 314.195984 64.211049 
L 314.396316 64.556978 
L 315.121075 64.983571 
L 316.214612 65.340511 
L 317.922771 65.716726 
L 322.40224 66.401635 
L 330.544527 67.558695 
L 333.529538 68.114841 
L 338.395486 69.31648 
L 341.903845 70.253654 
L 345.343096 70.917082 
L 346.321982 71.05031 
L 351.090183 71.434003 
L 355.693196 71.521225 
L 362.164665 71.367256 
L 365.583605 71.197598 
L 377.124296 70.322535 
L 383.493439 69.616659 
L 384.956369 69.388406 
L 390.473303 68.166887 
L 407.239666 63.795494 
L 407.239666 63.795494 
" style="fill:none;stroke:#000000;stroke-linecap:square;stroke-opacity:0.7;stroke-width:1.2;"/>
   </g>
   <g id="line2d_16">
    <path clip-path="url(#p812a2e8c01)" d="M 540.529097 225.539352 
L 536.18847 225.446874 
L 528.834128 225.087194 
L 522.785972 224.554408 
L 520.315736 224.253017 
L 507.469836 222.250843 
L 503.212336 221.884858 
L 499.65608 221.714585 
L 493.765838 221.648619 
L 485.6227 221.906871 
L 482.411763 221.991325 
L 482.387687 221.843294 
L 482.523709 221.557375 
L 482.492316 221.448422 
L 482.094257 221.176919 
L 480.354311 220.796557 
L 476.966725 220.517162 
L 471.610869 220.438312 
L 467.259454 220.58366 
L 463.982354 220.817338 
L 459.761038 221.310293 
L 455.958296 222.004028 
L 451.911187 223.070254 
L 449.24031 223.946327 
L 448.403336 224.351534 
L 447.938748 224.759289 
L 447.880719 225.101134 
L 448.007796 225.306501 
L 448.614014 225.690467 
L 449.621393 226.034388 
L 451.640027 226.474381 
L 456.032012 227.120745 
L 465.474841 228.413068 
L 468.743485 229.042717 
L 473.361469 230.251521 
L 476.651624 231.131004 
L 479.515822 231.675096 
L 480.427159 231.802213 
L 485.468811 232.210539 
L 490.062841 232.291567 
L 496.434091 232.134505 
L 499.605668 231.976237 
L 510.765276 231.132625 
L 514.060251 230.80522 
L 519.468541 230.066948 
L 525.574199 228.64831 
L 541.256976 224.519759 
L 541.256976 224.519759 
" style="fill:none;stroke:#000000;stroke-linecap:square;stroke-opacity:0.7;stroke-width:1.2;"/>
   </g>
   <g id="line2d_17">
    <path clip-path="url(#p812a2e8c01)" d="M 538.709687 185.006724 
L 538.656534 185.006258 
L 531.911521 184.853659 
L 523.657291 184.456719 
L 516.972239 183.965484 
L 506.2668 182.994193 
L 502.638601 182.914137 
L 497.527908 183.13981 
L 490.136323 184.138342 
L 486.247489 185.217178 
L 484.897072 186.318954 
L 484.97333 186.477105 
L 485.58493 186.833457 
L 486.657795 187.062316 
L 488.236868 187.158403 
L 490.413786 186.998269 
L 491.124918 186.844703 
L 491.961718 186.396643 
L 491.937237 186.053114 
L 491.17169 185.543474 
L 490.005938 185.133792 
L 487.625578 184.575812 
L 481.918994 183.761404 
L 480.606465 183.634446 
L 473.195013 183.233348 
L 467.918242 183.257899 
L 464.337491 183.425168 
L 458.108692 184.016327 
L 453.821583 184.704653 
L 452.205616 185.126775 
L 451.456122 185.483232 
L 451.377248 185.69411 
L 451.694168 185.849357 
L 452.65831 185.948197 
L 455.369557 185.908453 
L 460.490357 185.783269 
L 464.624256 185.928064 
L 467.867883 186.305003 
L 471.073356 187.0108 
L 474.049863 188.06711 
L 479.023564 190.205035 
L 481.194047 190.814141 
L 483.046925 191.157842 
L 486.161044 191.495438 
L 489.49869 191.654598 
L 493.902214 191.681982 
L 501.776646 191.440171 
L 511.144014 190.853843 
L 517.503717 190.216315 
L 518.638431 190.039546 
L 523.784948 188.868194 
L 541.001489 184.102683 
L 541.001489 184.102683 
" style="fill:none;stroke:#000000;stroke-linecap:square;stroke-opacity:0.7;stroke-width:1.2;"/>
   </g>
   <g id="line2d_18">
    <path clip-path="url(#p812a2e8c01)" d="M 540.711364 145.240305 
L 540.660734 145.229079 
L 530.867465 142.923074 
L 515.160545 139.001755 
L 510.513985 138.29102 
L 505.539975 137.805573 
L 500.048883 137.477039 
L 489.356617 136.948449 
L 486.225789 136.540746 
L 484.645126 136.179119 
L 482.01647 135.385835 
L 480.987142 135.524224 
L 478.855272 136.013819 
L 473.097962 137.763973 
L 468.586389 138.527707 
L 464.098459 139.370991 
L 460.403499 140.395847 
L 457.641859 141.409246 
L 454.613446 142.844945 
L 452.686552 144.013376 
L 451.310648 145.042541 
L 450.411054 145.862248 
L 449.22972 147.330536 
L 448.683639 148.662945 
L 448.668275 149.557226 
L 448.883238 150.186548 
L 449.218244 150.670712 
L 449.762442 151.16163 
L 451.97365 152.162618 
L 453.564826 152.541133 
L 456.321631 152.947785 
L 460.588178 153.315199 
L 469.05583 153.744539 
L 478.5248 153.987099 
L 486.912085 153.91949 
L 495.574262 153.489247 
L 502.230074 152.929941 
L 514.072079 151.578311 
L 520.680742 150.564417 
L 524.559881 149.628443 
L 537.194996 146.029623 
L 542.272993 144.560167 
L 542.261203 144.563583 
" style="fill:none;stroke:#000000;stroke-linecap:square;stroke-opacity:0.7;stroke-width:1.2;"/>
   </g>
   <g id="line2d_19">
    <path clip-path="url(#p812a2e8c01)" d="M 541.073419 104.963537 
L 541.038291 104.951699 
L 526.879134 100.324129 
L 520.346074 98.387463 
L 517.044132 97.595612 
L 510.860558 96.679198 
L 506.920398 96.345397 
L 498.270899 95.93093 
L 491.108347 95.623078 
L 489.487254 95.488581 
L 486.701974 95.126521 
L 485.018394 94.759941 
L 482.962693 94.047011 
L 481.776851 94.385015 
L 475.126621 96.878417 
L 473.398178 97.230937 
L 469.274327 97.902664 
L 465.307683 98.749251 
L 460.833582 100.068379 
L 456.156072 101.900973 
L 454.913285 102.47459 
L 451.765262 104.130975 
L 449.575198 105.541456 
L 448.724223 106.210391 
L 447.877008 107.106598 
L 447.669055 107.610761 
L 447.880688 108.040159 
L 448.892564 108.330118 
L 450.910709 108.366618 
L 456.600905 108.063789 
L 463.30295 107.787284 
L 473.572266 107.612353 
L 486.179866 107.427085 
L 496.033292 107.100419 
L 510.443587 106.347615 
L 520.588187 105.636821 
L 540.334178 104.002322 
L 540.334178 104.002322 
" style="fill:none;stroke:#000000;stroke-linecap:square;stroke-opacity:0.7;stroke-width:1.2;"/>
   </g>
   <g id="line2d_20">
    <path clip-path="url(#p812a2e8c01)" d="M 541.488749 64.879288 
L 541.423927 64.860041 
L 524.543006 59.699363 
L 518.509598 57.962105 
L 515.003008 57.223623 
L 510.150339 56.592961 
L 505.81599 56.230154 
L 499.526015 55.897916 
L 487.308583 55.37821 
L 483.446092 54.92827 
L 479.99217 54.353325 
L 479.0171 54.506877 
L 477.238244 55.016165 
L 474.391799 56.090107 
L 473.06405 56.594016 
L 470.849484 57.191596 
L 464.571566 58.297807 
L 461.122029 59.167947 
L 458.297622 60.075471 
L 454.456758 61.650361 
L 452.705821 62.539377 
L 449.579141 64.60188 
L 448.912549 65.206459 
L 448.287829 65.935168 
L 447.864087 66.867772 
L 447.885273 67.317515 
L 448.077156 67.678553 
L 448.568462 68.057535 
L 449.763909 68.434838 
L 451.045679 68.594356 
L 454.065483 68.664423 
L 489.751137 67.993201 
L 498.891131 67.571332 
L 509.706926 66.865766 
L 520.069548 65.995026 
L 540.627662 63.947511 
L 540.627662 63.947511 
" style="fill:none;stroke:#000000;stroke-linecap:square;stroke-opacity:0.7;stroke-width:1.2;"/>
   </g>
   <g id="line2d_21">
    <path clip-path="url(#p812a2e8c01)" d="M 674.689994 225.014227 
L 674.396242 224.942112 
L 652.437758 219.568799 
L 647.187132 218.52968 
L 644.066849 218.106564 
L 637.102761 217.497563 
L 629.562166 217.146425 
L 620.049726 216.757093 
L 616.796475 216.395315 
L 613.791408 215.910411 
L 612.367812 216.028504 
L 609.066741 216.688732 
L 604.521885 217.897322 
L 600.135306 219.044291 
L 595.596783 219.905894 
L 590.903733 220.829559 
L 587.721517 221.701847 
L 585.549289 222.485044 
L 583.935626 223.231144 
L 582.720215 223.966639 
L 581.774377 224.788719 
L 581.353736 225.399805 
L 581.197166 225.907792 
L 581.231274 226.413984 
L 581.322793 226.65878 
L 581.907115 227.363596 
L 582.202034 227.58156 
L 583.065502 228.046135 
L 585.353076 228.761118 
L 587.64513 229.154374 
L 590.648038 229.434883 
L 596.607132 229.658696 
L 614.331399 229.97813 
L 622.595977 229.947873 
L 632.466765 229.638415 
L 642.819826 229.026382 
L 649.483698 228.457764 
L 656.070849 227.549772 
L 670.272186 225.20485 
L 674.174197 224.550809 
L 674.174197 224.550809 
" style="fill:none;stroke:#000000;stroke-linecap:square;stroke-opacity:0.7;stroke-width:1.2;"/>
   </g>
   <g id="line2d_22">
    <path clip-path="url(#p812a2e8c01)" d="M 674.131538 185.156593 
L 670.462577 185.020783 
L 663.631646 184.502558 
L 657.548732 183.798652 
L 654.614369 183.377292 
L 647.518274 182.118584 
L 643.509625 181.367177 
L 639.6352 180.837464 
L 634.167811 180.436668 
L 629.328695 180.311778 
L 621.149499 180.432905 
L 618.042093 180.424105 
L 610.227658 179.490218 
L 605.813177 179.301654 
L 601.870123 179.322473 
L 597.932238 179.566128 
L 594.13085 180.074905 
L 590.97751 180.732677 
L 587.379933 181.724579 
L 584.292438 182.765403 
L 582.196133 183.678657 
L 581.302323 184.283748 
L 581.016553 184.704079 
L 581.067655 185.060029 
L 581.396921 185.355613 
L 582.323534 185.700763 
L 583.797713 185.956174 
L 586.569696 186.164607 
L 595.731332 186.580499 
L 599.12909 186.944256 
L 602.864488 187.624673 
L 606.66574 188.697769 
L 610.935098 190.009169 
L 612.90903 190.438588 
L 617.919558 191.009645 
L 621.121681 191.133505 
L 625.597231 191.13668 
L 633.881257 190.840268 
L 642.435857 190.281957 
L 646.708194 189.924171 
L 653.186114 189.149776 
L 659.890716 187.765589 
L 674.920304 184.285283 
L 674.920304 184.285283 
" style="fill:none;stroke:#000000;stroke-linecap:square;stroke-opacity:0.7;stroke-width:1.2;"/>
   </g>
   <g id="line2d_23">
    <path clip-path="url(#p812a2e8c01)" d="M 674.478028 145.096607 
L 674.470836 145.095336 
L 661.365322 142.637049 
L 645.223138 139.488255 
L 640.708841 138.933 
L 634.404144 138.412103 
L 624.869281 137.92498 
L 616.839028 136.874248 
L 615.771908 136.451901 
L 614.202289 136.296888 
L 611.814615 136.554143 
L 610.414715 136.778052 
L 606.468518 137.697113 
L 606.444152 137.754998 
L 604.571072 137.8541 
L 595.509027 139.991757 
L 590.88147 141.63665 
L 588.285781 142.747844 
L 584.087373 144.991243 
L 583.154062 145.638423 
L 582.049271 146.6591 
L 581.748301 147.361037 
L 581.784973 147.519284 
L 582.00221 147.766511 
L 582.311049 147.914552 
L 583.622658 148.109604 
L 587.400679 147.987967 
L 596.884819 147.44089 
L 603.189777 147.25717 
L 629.551047 146.703513 
L 632.407768 146.586363 
L 654.6962 145.357584 
L 674.068032 144.13799 
L 674.068032 144.13799 
" style="fill:none;stroke:#000000;stroke-linecap:square;stroke-opacity:0.7;stroke-width:1.2;"/>
   </g>
   <g id="line2d_24">
    <path clip-path="url(#p812a2e8c01)" d="M 675.490909 104.688368 
L 675.253331 104.590924 
L 661.045702 98.840351 
L 655.618462 96.857684 
L 651.198769 95.741535 
L 648.84921 95.3973 
L 644.584863 95.00209 
L 639.73457 94.719488 
L 628.538146 94.201754 
L 624.158121 93.673865 
L 620.984778 92.922463 
L 620.020757 92.491636 
L 619.462534 92.19885 
L 617.65585 92.974261 
L 614.243191 94.403095 
L 611.236898 95.486327 
L 607.669667 96.486825 
L 603.424532 97.326723 
L 600.020138 97.995196 
L 597.839835 98.516711 
L 593.251714 99.953064 
L 591.094473 100.815117 
L 588.617706 101.983605 
L 586.960352 102.895796 
L 583.908192 104.978116 
L 582.367373 106.397085 
L 581.594516 107.353281 
L 581.023792 108.4752 
L 580.92136 109.308214 
L 581.168964 110.013033 
L 581.74597 110.575494 
L 582.111479 110.786797 
L 583.957632 111.344769 
L 585.228369 111.522027 
L 588.415398 111.705871 
L 593.519231 111.745446 
L 615.921304 111.582432 
L 625.799776 111.240646 
L 635.013269 110.64607 
L 646.528297 109.593429 
L 652.158223 108.915702 
L 655.165609 108.41238 
L 665.316219 106.262818 
L 675.175811 104.085787 
L 675.175811 104.085787 
" style="fill:none;stroke:#000000;stroke-linecap:square;stroke-opacity:0.7;stroke-width:1.2;"/>
   </g>
   <g id="line2d_25">
    <path clip-path="url(#p812a2e8c01)" d="M 674.07843 64.732384 
L 665.198838 64.878387 
L 658.974496 64.684752 
L 654.932028 64.34097 
L 651.767937 63.886416 
L 643.727621 62.404026 
L 638.710083 61.833981 
L 636.695505 61.686152 
L 631.185175 61.470562 
L 625.399067 61.487685 
L 618.022018 61.792031 
L 614.33177 61.95379 
L 614.374793 61.917595 
L 615.794851 61.310979 
L 615.913276 61.177192 
L 615.896136 61.011711 
L 615.211973 60.712736 
L 613.198487 60.445125 
L 610.671713 60.323715 
L 605.976813 60.343599 
L 601.700828 60.563961 
L 598.31729 60.881115 
L 593.939029 61.519054 
L 587.015077 62.727662 
L 584.882418 63.100392 
L 583.575582 63.505956 
L 583.12206 63.787821 
L 582.958656 64.090218 
L 583.067261 64.365272 
L 583.52218 64.706768 
L 584.567026 65.12978 
L 586.47142 65.626193 
L 590.234582 66.31233 
L 604.220015 68.592583 
L 609.349207 69.525642 
L 611.350287 69.775512 
L 616.117913 70.125355 
L 622.285168 70.236028 
L 628.982588 70.08901 
L 633.205988 69.898611 
L 645.256747 69.06636 
L 650.867742 68.507597 
L 655.252427 67.830716 
L 663.551955 66.174698 
L 674.782836 63.835604 
L 674.782836 63.835604 
" style="fill:none;stroke:#000000;stroke-linecap:square;stroke-opacity:0.7;stroke-width:1.2;"/>
   </g>
  </g>
 </g>
 <defs>
  <clipPath id="p812a2e8c01">
   <rect height="262.08" width="694.08" x="12.96" y="12.96"/>
  </clipPath>
 </defs>
</svg>
