<?xml version="1.0" encoding="utf-8" standalone="no"?>
<!DOCTYPE svg PUBLIC "-//W3C//DTD SVG 1.1//EN"
  "http://www.w3.org/Graphics/SVG/1.1/DTD/svg11.dtd">
<!-- Created with matplotlib (https://matplotlib.org/) -->
<svg height="288pt" version="1.1" viewBox="0 0 720 288" width="720pt" xmlns="http://www.w3.org/2000/svg" xmlns:xlink="http://www.w3.org/1999/xlink">
 <metadata>
  <rdf:RDF xmlns:cc="http://creativecommons.org/ns#" xmlns:dc="http://purl.org/dc/elements/1.1/" xmlns:rdf="http://www.w3.org/1999/02/22-rdf-syntax-ns#">
   <cc:Work>
    <dc:type rdf:resource="http://purl.org/dc/dcmitype/StillImage"/>
    <dc:date>2020-12-22T21:53:34.599897</dc:date>
    <dc:format>image/svg+xml</dc:format>
    <dc:creator>
     <cc:Agent>
      <dc:title>Matplotlib v3.3.2, https://matplotlib.org/</dc:title>
     </cc:Agent>
    </dc:creator>
   </cc:Work>
  </rdf:RDF>
 </metadata>
 <defs>
  <style type="text/css">*{stroke-linecap:butt;stroke-linejoin:round;}</style>
 </defs>
 <g id="figure_1">
  <g id="patch_1">
   <path d="M 0 288 
L 720 288 
L 720 0 
L 0 0 
z
" style="fill:#ffffff;"/>
  </g>
  <g id="axes_1">
   <g id="line2d_1">
    <path clip-path="url(#p69eac349d6)" d="M 200.342835 214.414267 
L 199.403345 214.993947 
L 198.109279 215.995727 
L 197.090141 217.383959 
L 196.667804 218.987668 
L 196.607192 220.183782 
L 196.468517 220.537583 
L 195.713175 220.685438 
L 194.078378 220.386707 
L 180.082825 217.292837 
L 171.413358 215.652762 
L 162.355621 214.20175 
L 154.887391 213.207647 
L 144.145821 212.058315 
L 133.203809 211.159252 
L 118.98262 210.291986 
L 104.551081 209.647639 
L 88.963292 208.928178 
L 82.875197 208.527116 
L 80.638422 208.573959 
L 77.496756 208.917937 
L 71.660327 209.89121 
L 62.432327 211.403935 
L 55.926473 212.224875 
L 51.384039 212.577861 
L 47.376533 212.873234 
L 47.050336 213.196509 
L 46.892081 213.642224 
L 46.781131 215.149864 
L 46.878543 216.50075 
L 47.075062 217.548922 
L 47.477274 218.720383 
L 48.1473 219.827704 
L 48.696337 220.42004 
L 49.424658 220.990166 
L 50.225296 221.451505 
L 51.932295 222.125118 
L 53.120683 222.454452 
L 56.080111 223.027131 
L 60.120279 223.526431 
L 67.327208 224.063158 
L 75.260729 224.38515 
L 84.770493 224.544853 
L 99.053867 224.47018 
L 113.437506 224.124596 
L 130.774853 223.451312 
L 152.360527 222.335346 
L 178.236353 220.74042 
L 199.620529 219.450212 
L 199.620529 219.450212 
" style="fill:none;stroke:#000000;stroke-linecap:square;stroke-opacity:0.7;stroke-width:1.2;"/>
   </g>
   <g id="line2d_2">
    <path clip-path="url(#p69eac349d6)" d="M 196.86483 178.513732 
L 197.810186 178.228298 
L 202.323986 176.360506 
L 205.944365 174.696961 
L 212.738069 170.983386 
L 213.671934 170.263056 
L 214.392297 169.279689 
L 214.234697 168.794472 
L 213.616545 168.445382 
L 212.617868 168.196951 
L 209.655837 167.888976 
L 204.626558 167.700057 
L 172.220336 166.99951 
L 160.590371 166.408929 
L 123.254842 164.120352 
L 114.658104 163.905089 
L 110.471734 163.982723 
L 105.812221 164.229151 
L 90.79277 164.600677 
L 85.3228 164.951016 
L 80.289546 165.642906 
L 76.59755 166.627582 
L 73.763611 167.841412 
L 71.645491 169.032777 
L 65.110723 173.042342 
L 63.291156 173.97618 
L 59.271179 175.673107 
L 51.529092 178.553449 
L 51.380412 178.657311 
L 50.653643 179.525104 
L 50.574524 180.105444 
L 50.712968 180.649887 
L 50.979196 181.144487 
L 52.434952 182.664575 
L 53.304914 183.315911 
L 56.463128 185.130602 
L 58.41519 186.004835 
L 61.066466 186.997155 
L 64.715747 188.087597 
L 69.359588 189.129892 
L 73.704226 189.83959 
L 80.289519 190.552409 
L 89.319143 191.026498 
L 98.055699 191.11221 
L 106.302567 190.966744 
L 116.721791 190.567779 
L 127.976405 189.951195 
L 145.433179 188.746765 
L 168.108822 186.903887 
L 195.845268 184.398506 
L 195.845268 184.398506 
" style="fill:none;stroke:#000000;stroke-linecap:square;stroke-opacity:0.7;stroke-width:1.2;"/>
   </g>
   <g id="line2d_3">
    <path clip-path="url(#p69eac349d6)" d="M 203.638128 145.592717 
L 202.92652 145.998077 
L 201.239977 147.222643 
L 200.176407 148.46401 
L 199.116326 150.61055 
L 198.124913 153.815866 
L 197.828142 154.201651 
L 197.537651 154.377704 
L 196.637498 154.452982 
L 195.759958 154.292311 
L 192.506681 153.317573 
L 185.817785 151.259641 
L 181.614541 150.137687 
L 175.821698 148.83978 
L 169.676628 147.751957 
L 162.77005 146.819748 
L 154.26823 145.988963 
L 145.024195 145.367911 
L 135.813676 144.954312 
L 121.74049 144.59284 
L 103.864713 144.440732 
L 80.824402 144.51519 
L 62.791438 144.508289 
L 58.033708 144.352873 
L 55.57943 144.138348 
L 53.727983 143.821446 
L 52.689271 144.920908 
L 45.991581 152.027244 
L 44.991964 153.487501 
L 44.545407 154.610709 
L 44.509091 155.274142 
L 44.682029 155.816356 
L 44.975608 156.18638 
L 45.773242 156.617913 
L 46.82514 156.783559 
L 48.601688 156.753859 
L 55.983128 156.436373 
L 92.756006 155.396252 
L 124.354394 154.137159 
L 153.789305 152.763654 
L 189.213369 150.846312 
L 201.382873 150.130528 
L 201.382873 150.130528 
" style="fill:none;stroke:#000000;stroke-linecap:square;stroke-opacity:0.7;stroke-width:1.2;"/>
   </g>
   <g id="line2d_4">
    <path clip-path="url(#p69eac349d6)" d="M 200.364127 109.811012 
L 200.310404 109.912799 
L 200.36515 110.073652 
L 200.900738 110.196841 
L 202.89961 110.126213 
L 205.440541 109.725619 
L 207.464491 109.098331 
L 207.911984 108.8178 
L 208.099247 108.496204 
L 207.466824 107.892685 
L 206.557382 107.562603 
L 203.591521 106.898504 
L 199.257846 106.216542 
L 191.532334 105.246031 
L 177.284743 103.723307 
L 144.901229 100.322198 
L 118.30293 97.443525 
L 111.492915 96.95724 
L 105.661533 96.77575 
L 101.272478 96.831761 
L 96.81382 97.100664 
L 91.824356 97.680938 
L 86.332433 98.571961 
L 79.164021 99.708421 
L 74.529238 100.18589 
L 66.529007 100.88172 
L 64.134345 101.414891 
L 62.78851 101.893026 
L 61.292625 102.624054 
L 59.76546 103.59915 
L 57.790329 105.158624 
L 55.775316 107.032551 
L 54.413313 108.50699 
L 53.479646 109.798767 
L 53.122714 110.600363 
L 53.069476 111.477342 
L 53.260322 111.96585 
L 54.011844 112.755295 
L 54.522051 113.090885 
L 56.712616 114.065469 
L 58.468576 114.624577 
L 61.399222 115.363816 
L 65.626758 116.186803 
L 71.991603 117.100351 
L 79.502694 117.851851 
L 87.571888 118.387158 
L 96.562271 118.742318 
L 105.431716 118.904371 
L 116.866696 118.90338 
L 130.846252 118.6619 
L 147.959907 118.113402 
L 169.625718 117.185028 
L 194.277589 116.163948 
L 199.613386 116.078082 
L 199.613386 116.078082 
" style="fill:none;stroke:#000000;stroke-linecap:square;stroke-opacity:0.7;stroke-width:1.2;"/>
   </g>
   <g id="line2d_5">
    <path clip-path="url(#p69eac349d6)" d="M 188.374632 75.768659 
L 189.108357 76.030105 
L 196.552451 75.925698 
L 199.965882 75.71443 
L 209.628184 74.753583 
L 213.290843 74.003976 
L 213.873137 73.564099 
L 213.838522 73.46316 
L 213.578567 73.255436 
L 212.345141 72.832614 
L 210.942441 72.521216 
L 205.653284 71.662348 
L 189.623352 69.592342 
L 174.78202 67.62469 
L 161.149111 65.479202 
L 137.59969 61.274455 
L 135.2245 60.983363 
L 129.193724 60.470625 
L 124.871346 60.327432 
L 117.244513 60.449333 
L 102.279269 60.602454 
L 94.159985 61.12435 
L 91.916688 61.444157 
L 89.197682 62.035613 
L 86.92286 62.752504 
L 78.912751 65.726257 
L 70.832635 67.54617 
L 62.070354 68.91831 
L 59.714985 69.574445 
L 58.49333 70.334745 
L 58.145269 71.38519 
L 58.203289 71.641293 
L 59.02758 72.899148 
L 59.887554 73.671203 
L 62.452601 75.302208 
L 64.654706 76.35284 
L 67.844706 77.5664 
L 69.11534 77.975755 
L 74.311614 79.327209 
L 80.024848 80.363428 
L 85.748956 81.062791 
L 90.426551 81.445979 
L 97.11143 81.774613 
L 106.804984 81.929947 
L 118.122775 81.808447 
L 129.870173 81.481051 
L 152.013127 80.58015 
L 184.761678 78.958852 
L 191.318023 78.615078 
L 191.318023 78.615078 
" style="fill:none;stroke:#000000;stroke-linecap:square;stroke-opacity:0.7;stroke-width:1.2;"/>
   </g>
   <g id="line2d_6">
    <path clip-path="url(#p69eac349d6)" d="M 314.678541 214.329469 
L 314.114931 214.796553 
L 315.394904 216.925113 
L 317.479323 217.951069 
L 318.296328 218.180013 
L 315.788019 217.439244 
L 312.009639 216.588152 
L 304.637856 215.147398 
L 292.591214 213.0532 
L 272.001414 209.805427 
L 249.364849 206.529752 
L 235.179527 204.722722 
L 227.994277 204.004664 
L 221.609434 203.610459 
L 214.600472 203.418937 
L 215.207949 203.299826 
L 237.978906 201.445528 
L 239.332571 201.20172 
L 239.258236 201.139936 
L 237.367038 201.16667 
L 233.698124 201.471536 
L 227.288548 202.283324 
L 217.153153 203.887694 
L 196.774362 207.17963 
L 177.564242 210.077031 
L 175.295499 210.690583 
L 174.364567 211.200185 
L 174.102609 211.607994 
L 174.162715 212.016348 
L 174.568058 212.512329 
L 175.809431 213.313969 
L 177.138415 213.920333 
L 179.843694 214.877912 
L 183.486163 215.881283 
L 188.272542 216.919593 
L 191.173163 217.441935 
L 198.433181 218.493503 
L 204.93138 219.197169 
L 216.968551 220.071825 
L 227.465326 220.498615 
L 238.047398 220.698343 
L 251.616066 220.710119 
L 265.705101 220.526621 
L 294.709222 219.861246 
L 313.20872 219.440328 
L 313.20872 219.440328 
" style="fill:none;stroke:#000000;stroke-linecap:square;stroke-opacity:0.7;stroke-width:1.2;"/>
   </g>
   <g id="line2d_7">
    <path clip-path="url(#p69eac349d6)" d="M 322.729551 179.363795 
L 318.701281 181.944624 
L 315.769727 183.387646 
L 314.237273 183.903769 
L 311.736399 184.417998 
L 308.820012 184.581278 
L 307.206282 184.510815 
L 304.191822 184.15806 
L 299.635603 183.295605 
L 280.441824 179.219897 
L 278.44449 178.900634 
L 269.873038 177.857333 
L 233.109329 177.27478 
L 215.516937 177.913372 
L 182.579835 179.195914 
L 173.799322 179.343312 
L 166.354182 179.235284 
L 162.184744 178.956321 
L 158.825421 178.710989 
L 158.552198 178.982318 
L 158.357688 179.520751 
L 158.108051 181.080749 
L 157.751934 185.047454 
L 157.531955 189.677147 
L 157.627683 192.163459 
L 157.873489 193.009785 
L 158.065226 193.189998 
L 158.471015 193.175635 
L 160.912905 192.031168 
L 161.783968 191.843288 
L 164.405362 191.657379 
L 169.011225 191.722477 
L 181.133039 191.925149 
L 192.167239 191.858752 
L 206.452434 191.515843 
L 222.029802 190.913743 
L 247.542625 189.561915 
L 270.26864 188.046835 
L 289.813623 186.509638 
L 305.544871 185.066275 
L 317.915925 183.698125 
L 317.915925 183.698125 
" style="fill:none;stroke:#000000;stroke-linecap:square;stroke-opacity:0.7;stroke-width:1.2;"/>
   </g>
   <g id="line2d_8">
    <path clip-path="url(#p69eac349d6)" d="M 322.961742 144.241538 
L 321.762176 145.41001 
L 320.361541 146.500227 
L 318.26967 147.468994 
L 316.699564 147.882273 
L 313.626269 148.262071 
L 310.690698 148.298227 
L 305.99916 147.962322 
L 303.138499 147.605159 
L 296.209366 146.481555 
L 278.225094 143.352766 
L 272.868512 142.66447 
L 267.297651 142.144533 
L 261.119755 141.795641 
L 254.181032 141.64448 
L 245.88242 141.709445 
L 233.393603 142.110518 
L 200.996125 143.524763 
L 185.989249 143.850486 
L 178.088796 143.776358 
L 170.76734 143.413378 
L 166.6869 142.985609 
L 163.189072 142.362796 
L 160.722704 141.624486 
L 158.573209 140.728764 
L 158.293949 141.255062 
L 158.068159 142.434073 
L 157.729789 145.490341 
L 157.3859 151.013114 
L 157.312625 153.696111 
L 157.412475 158.339539 
L 157.630616 160.062393 
L 157.956769 161.032937 
L 158.345988 161.332867 
L 158.568361 161.301735 
L 159.210595 160.813651 
L 161.805805 157.955598 
L 162.909064 157.242719 
L 163.780468 156.901663 
L 164.406919 156.740381 
L 166.667408 156.472964 
L 169.638788 156.410481 
L 190.158175 156.375519 
L 203.144477 156.069189 
L 224.365357 155.254138 
L 250.597629 153.880319 
L 276.022051 152.240102 
L 297.200217 150.625227 
L 313.705857 149.105788 
L 318.956525 148.489276 
L 318.956525 148.489276 
" style="fill:none;stroke:#000000;stroke-linecap:square;stroke-opacity:0.7;stroke-width:1.2;"/>
   </g>
   <g id="line2d_9">
    <path clip-path="url(#p69eac349d6)" d="M 320.460004 110.53006 
L 317.899861 111.940744 
L 315.529661 113.537552 
L 312.872331 115.428308 
L 311.489592 116.123175 
L 310.635534 116.353792 
L 308.955925 116.406199 
L 306.13116 115.911319 
L 291.973006 112.627103 
L 286.370888 111.590113 
L 279.622838 110.610654 
L 276.409801 110.242193 
L 267.42439 109.492784 
L 257.894793 109.045445 
L 246.815319 108.830749 
L 232.776503 108.864742 
L 219.009806 109.108732 
L 194.257992 109.81892 
L 174.077861 110.352532 
L 168.773432 110.362575 
L 163.097406 110.339561 
L 162.823792 110.877168 
L 162.126438 112.330624 
L 161.330147 113.571931 
L 159.974126 115.182761 
L 159.576679 115.808618 
L 159.536379 116.426225 
L 159.827135 117.58253 
L 160.3815 118.860329 
L 161.049032 119.930123 
L 161.854183 120.837221 
L 163.023399 121.707276 
L 164.130086 122.238385 
L 165.742793 122.724224 
L 167.542746 123.040608 
L 170.962087 123.326301 
L 176.732114 123.430356 
L 184.397129 123.309516 
L 195.734704 122.932002 
L 215.176844 122.049917 
L 241.295629 120.615502 
L 266.825772 119.012558 
L 293.26065 117.148223 
L 317.267257 115.325646 
L 317.267257 115.325646 
" style="fill:none;stroke:#000000;stroke-linecap:square;stroke-opacity:0.7;stroke-width:1.2;"/>
   </g>
   <g id="line2d_10">
    <path clip-path="url(#p69eac349d6)" d="M 318.743765 74.605695 
L 318.691815 74.871555 
L 319.174897 74.672956 
L 319.508358 74.219107 
L 319.551261 73.458262 
L 319.443987 73.193751 
L 317.756084 71.829001 
L 315.723456 71.089575 
L 312.183804 70.317746 
L 306.764375 69.57247 
L 298.871192 68.807976 
L 285.891466 67.848318 
L 275.176655 67.204977 
L 245.47353 65.812184 
L 199.165634 63.972211 
L 193.798326 63.991131 
L 189.504318 64.24621 
L 186.97032 64.582725 
L 184.038893 65.271302 
L 182.294098 65.90117 
L 178.018608 67.689336 
L 176.076276 67.963472 
L 173.792784 68.222942 
L 172.405912 68.711098 
L 171.384507 69.368604 
L 170.465495 70.181311 
L 169.103685 71.677531 
L 167.292593 74.049019 
L 166.200406 75.744093 
L 165.417262 77.3404 
L 165.166157 78.188933 
L 166.066337 80.948011 
L 167.044734 81.679936 
L 168.794454 82.55664 
L 170.84788 83.301278 
L 174.29669 84.231093 
L 178.662708 85.0893 
L 182.939656 85.712207 
L 189.917916 86.416187 
L 197.103624 86.854886 
L 205.525835 87.107428 
L 215.618306 87.142175 
L 226.825906 86.935189 
L 240.662565 86.428531 
L 255.338205 85.681527 
L 276.580422 84.3611 
L 315.988539 81.818815 
L 315.988539 81.818815 
" style="fill:none;stroke:#000000;stroke-linecap:square;stroke-opacity:0.7;stroke-width:1.2;"/>
   </g>
   <g id="line2d_11">
    <path clip-path="url(#p69eac349d6)" d="M 434.719899 214.493959 
L 432.320768 215.727556 
L 431.253946 216.363539 
L 428.674629 218.262616 
L 426.862448 219.74996 
L 425.888244 220.271746 
L 425.327512 220.397406 
L 424.217115 220.370671 
L 422.205779 219.957551 
L 409.894281 216.97572 
L 406.514291 216.288184 
L 398.976609 215.010996 
L 391.892099 214.121745 
L 387.84492 213.731431 
L 377.326583 213.030956 
L 365.817865 212.640823 
L 353.887928 212.509148 
L 339.188107 212.594338 
L 321.204444 212.926516 
L 288.959347 213.621642 
L 282.19404 213.513713 
L 280.119636 213.485487 
L 279.859451 213.643737 
L 279.363497 214.42299 
L 278.484603 215.695605 
L 277.313742 216.923495 
L 276.200698 217.781389 
L 275.283739 218.456587 
L 275.112468 218.835746 
L 275.112419 219.461581 
L 275.395553 220.77946 
L 276.023539 222.470252 
L 276.687308 223.662404 
L 277.270861 224.428526 
L 278.087272 225.21851 
L 279.093482 225.899234 
L 280.082528 226.367402 
L 281.730758 226.880262 
L 284.449625 227.334028 
L 288.030963 227.588645 
L 292.423061 227.672568 
L 300.538898 227.562273 
L 314.351756 227.072918 
L 331.208965 226.25807 
L 354.711645 224.904432 
L 380.2314 223.22583 
L 410.242799 220.998327 
L 432.177894 219.268144 
L 432.177894 219.268144 
" style="fill:none;stroke:#000000;stroke-linecap:square;stroke-opacity:0.7;stroke-width:1.2;"/>
   </g>
   <g id="line2d_12">
    <path clip-path="url(#p69eac349d6)" d="M 435.643886 179.562493 
L 435.343802 179.851642 
L 435.192013 180.283709 
L 435.247303 180.478968 
L 435.542165 180.862085 
L 436.55723 181.518869 
L 436.409777 181.478801 
L 433.684142 180.744289 
L 428.562535 179.623001 
L 417.75029 177.609903 
L 406.319648 175.684791 
L 365.720197 169.225042 
L 350.329416 167.011271 
L 343.334765 166.223515 
L 337.919697 165.851824 
L 333.895813 165.796946 
L 331.861352 165.870166 
L 328.203371 166.25659 
L 323.010024 167.058774 
L 319.187945 167.296507 
L 309.013015 167.614317 
L 306.235561 167.966136 
L 303.82559 168.511509 
L 300.152441 169.897621 
L 298.770197 170.591723 
L 296.858738 171.682628 
L 293.136154 174.151968 
L 292.034067 174.956074 
L 287.069637 179.052622 
L 286.476959 179.626429 
L 284.33075 182.253574 
L 283.898111 183.288973 
L 283.924031 184.497267 
L 284.426918 185.319758 
L 284.965874 185.799307 
L 286.241653 186.53771 
L 287.854718 187.169224 
L 290.49343 187.903879 
L 293.99139 188.599356 
L 299.876395 189.394613 
L 305.798008 189.909585 
L 310.906005 190.19863 
L 319.368398 190.450968 
L 329.278806 190.488549 
L 340.165902 190.306625 
L 354.111791 189.841869 
L 369.307869 189.141856 
L 393.634013 187.794591 
L 424.785067 186.075061 
L 430.587068 185.880892 
L 430.587068 185.880892 
" style="fill:none;stroke:#000000;stroke-linecap:square;stroke-opacity:0.7;stroke-width:1.2;"/>
   </g>
   <g id="line2d_13">
    <path clip-path="url(#p69eac349d6)" d="M 438.105692 144.664277 
L 436.197056 145.941658 
L 432.223125 148.827739 
L 430.924728 149.546765 
L 429.455764 150.153338 
L 428.2876 150.480916 
L 426.500811 150.743023 
L 424.286709 150.742836 
L 422.286648 150.522366 
L 419.223265 149.942731 
L 415.335745 149.005999 
L 406.667797 146.797686 
L 400.402367 145.403071 
L 394.167917 144.308732 
L 377.536894 142.764485 
L 372.889292 142.596208 
L 361.449776 142.476822 
L 348.855369 142.657393 
L 332.924592 143.137668 
L 288.305683 144.651422 
L 279.864679 144.57889 
L 275.751786 144.416397 
L 275.593591 144.471308 
L 275.20627 144.891763 
L 274.928662 145.755837 
L 274.503176 148.163156 
L 274.014019 152.250409 
L 273.758764 156.475589 
L 273.792356 157.88066 
L 274.027408 159.269756 
L 274.350518 159.785406 
L 274.673616 159.907456 
L 275.301778 159.732751 
L 276.617791 158.879656 
L 278.145909 157.974875 
L 279.507416 157.43839 
L 281.378036 157.008117 
L 283.991621 156.714081 
L 287.469978 156.541545 
L 296.789321 156.350111 
L 315.993822 155.926282 
L 334.421594 155.31852 
L 355.18276 154.450346 
L 382.12447 153.087886 
L 402.217302 151.899366 
L 425.131818 150.283307 
L 434.187068 149.476638 
L 434.187068 149.476638 
" style="fill:none;stroke:#000000;stroke-linecap:square;stroke-opacity:0.7;stroke-width:1.2;"/>
   </g>
   <g id="line2d_14">
    <path clip-path="url(#p69eac349d6)" d="M 439.110312 109.595831 
L 437.586174 110.850951 
L 435.065758 112.61974 
L 433.513999 113.389384 
L 431.048962 114.23352 
L 429.749492 114.534352 
L 427.290024 114.891686 
L 425.39404 115.010395 
L 420.939817 114.87675 
L 417.040168 114.412968 
L 412.551539 113.63098 
L 396.201885 110.364727 
L 390.229313 109.495921 
L 359.000856 108.387962 
L 346.122062 108.781693 
L 318.445514 109.990609 
L 310.958456 110.285189 
L 293.375296 110.655841 
L 285.836326 110.517364 
L 281.162894 110.230867 
L 278.258548 109.910999 
L 274.623333 109.218081 
L 272.664117 108.797614 
L 272.428586 109.010549 
L 272.294082 109.576454 
L 272.224505 110.916516 
L 272.238241 116.166485 
L 272.455425 123.19522 
L 272.748487 125.923618 
L 273.071569 126.752141 
L 273.325018 126.830931 
L 273.667356 126.630102 
L 275.612456 124.959628 
L 276.821872 124.450781 
L 278.36487 124.1404 
L 280.516202 123.970638 
L 285.127674 123.891006 
L 298.542067 123.766876 
L 313.127608 123.37189 
L 331.79989 122.578521 
L 345.53826 121.849903 
L 379.200751 119.673613 
L 404.426619 117.697976 
L 420.67322 116.211496 
L 433.053728 114.811768 
L 434.647069 114.580931 
L 434.647069 114.580931 
" style="fill:none;stroke:#000000;stroke-linecap:square;stroke-opacity:0.7;stroke-width:1.2;"/>
   </g>
   <g id="line2d_15">
    <path clip-path="url(#p69eac349d6)" d="M 420.652083 75.505012 
L 420.93744 76.282768 
L 432.33386 79.076874 
L 437.894254 79.758401 
L 439.376617 79.737049 
L 439.430428 79.617624 
L 439.139765 79.459027 
L 437.677439 79.021946 
L 434.346672 78.279934 
L 426.298337 76.749197 
L 416.822302 75.011545 
L 404.551894 72.58464 
L 390.783678 69.400198 
L 386.354735 68.24949 
L 363.910853 61.988644 
L 360.39167 61.309505 
L 357.37781 60.926598 
L 354.124802 60.709282 
L 350.111423 60.687539 
L 348.545983 60.846207 
L 348.608963 60.865843 
L 348.931601 60.868319 
L 348.582109 60.806683 
L 346.515983 60.710273 
L 344.339487 60.700185 
L 335.673938 61.334313 
L 332.417159 61.930403 
L 330.966062 62.27104 
L 326.675674 63.508765 
L 316.793267 66.661206 
L 310.425554 68.249517 
L 306.082672 69.068878 
L 297.692693 70.154141 
L 289.702356 70.957652 
L 285.563296 71.916739 
L 284.674579 72.484526 
L 284.19951 73.247033 
L 284.165841 73.875487 
L 284.839851 75.373216 
L 286.149607 76.821619 
L 288.901041 78.912636 
L 290.104976 79.646802 
L 294.401587 81.751599 
L 296.450769 82.543333 
L 300.202195 83.72307 
L 304.202036 84.668179 
L 309.296402 85.507059 
L 314.212184 86.019032 
L 320.304021 86.3553 
L 326.671041 86.453312 
L 333.483305 86.358481 
L 343.077456 85.99106 
L 356.632161 85.184313 
L 373.562093 83.910053 
L 396.258862 81.958189 
L 423.461796 79.430597 
L 423.461796 79.430597 
" style="fill:none;stroke:#000000;stroke-linecap:square;stroke-opacity:0.7;stroke-width:1.2;"/>
   </g>
   <g id="line2d_16">
    <path clip-path="url(#p69eac349d6)" d="M 548.913034 214.570239 
L 548.480439 214.909715 
L 548.058173 215.676454 
L 548.091885 216.103282 
L 548.835813 217.408178 
L 549.994957 218.558594 
L 551.305148 219.660153 
L 551.216178 219.663477 
L 549.271925 219.08503 
L 544.964159 217.865989 
L 539.169654 216.474764 
L 531.495894 214.983265 
L 524.711955 213.926326 
L 514.406261 212.659446 
L 499.176874 211.286332 
L 484.95876 210.354937 
L 468.120237 209.550865 
L 451.752227 209.004458 
L 432.435125 208.598443 
L 408.55155 208.370302 
L 408.387208 208.485897 
L 408.010619 208.949668 
L 407.405212 209.349277 
L 405.377514 210.23592 
L 400.993435 211.902272 
L 400.589115 212.111311 
L 399.558195 212.841998 
L 398.904828 213.705235 
L 398.578053 214.636734 
L 398.45121 215.676498 
L 398.541831 217.620315 
L 398.91683 219.755237 
L 399.188578 220.77875 
L 399.979762 222.740299 
L 400.429863 223.443531 
L 401.193982 224.242898 
L 402.004939 224.762967 
L 402.562672 225.003407 
L 404.167306 225.406434 
L 405.678858 225.583086 
L 409.199871 225.704647 
L 414.845817 225.628653 
L 430.181884 225.108958 
L 486.78721 222.833534 
L 544.040871 220.580932 
L 546.234269 220.567873 
L 546.234269 220.567873 
" style="fill:none;stroke:#000000;stroke-linecap:square;stroke-opacity:0.7;stroke-width:1.2;"/>
   </g>
   <g id="line2d_17">
    <path clip-path="url(#p69eac349d6)" d="M 541.56076 179.135175 
L 541.876853 179.270004 
L 546.017587 178.81911 
L 549.237849 178.248929 
L 555.393045 176.74775 
L 557.267269 175.68894 
L 557.128039 175.412702 
L 556.397142 175.071234 
L 554.830761 174.709349 
L 550.972039 174.166893 
L 543.077437 173.384322 
L 528.556905 172.115719 
L 517.357615 170.996605 
L 504.782501 169.443685 
L 489.49204 167.152862 
L 482.671055 166.090437 
L 472.84568 164.821581 
L 469.037338 164.51262 
L 464.095943 164.326392 
L 460.736934 164.382002 
L 458.608667 164.557493 
L 455.964153 164.821939 
L 449.849777 164.925525 
L 441.948213 165.077342 
L 437.431779 165.38622 
L 434.072079 165.84216 
L 430.643646 166.64899 
L 429.278088 167.103114 
L 425.978117 168.556134 
L 422.980679 170.201921 
L 418.263287 172.785419 
L 412.263672 175.278693 
L 407.755364 176.530919 
L 399.891551 178.156778 
L 398.766995 178.746793 
L 398.613378 179.248453 
L 398.709547 179.492476 
L 399.155895 179.988507 
L 400.026886 180.573062 
L 401.509046 181.281731 
L 403.815173 182.106446 
L 404.355889 182.270694 
L 411.066754 183.785829 
L 415.451015 184.44153 
L 420.898285 185.031512 
L 428.164428 185.555064 
L 435.185802 185.867591 
L 446.659619 186.116671 
L 457.751652 186.161792 
L 477.103447 185.976378 
L 500.884823 185.494815 
L 534.58052 184.566348 
L 538.233686 184.454446 
L 538.233686 184.454446 
" style="fill:none;stroke:#000000;stroke-linecap:square;stroke-opacity:0.7;stroke-width:1.2;"/>
   </g>
   <g id="line2d_18">
    <path clip-path="url(#p69eac349d6)" d="M 538.252799 144.659556 
L 538.532884 144.776625 
L 545.111314 144.229943 
L 552.223302 143.228289 
L 558.974885 141.928907 
L 560.949966 141.25072 
L 561.060569 141.175959 
L 560.838416 140.592912 
L 559.25492 140.181306 
L 558.038477 139.980808 
L 552.601536 139.331777 
L 529.256973 136.98463 
L 512.073356 134.683847 
L 501.776369 132.912945 
L 491.821573 131.198225 
L 478.308521 129.624063 
L 470.408194 129.27921 
L 459.818603 129.260758 
L 451.234299 129.421011 
L 445.507021 129.732932 
L 443.64571 129.901495 
L 439.475895 130.484477 
L 435.589847 131.410946 
L 432.966172 132.27486 
L 428.572528 133.890324 
L 422.776081 135.695885 
L 417.855495 136.810217 
L 410.507992 138.017965 
L 406.47357 138.652985 
L 402.401764 139.700766 
L 400.945733 140.597667 
L 400.436693 141.378202 
L 400.333579 142.179974 
L 400.529218 143.036888 
L 401.919491 145.215115 
L 405.603982 148.482226 
L 410.288794 151.306776 
L 415.538323 153.516778 
L 419.299281 154.638005 
L 424.5726 155.70272 
L 428.258274 156.168175 
L 432.242953 156.472662 
L 435.735005 156.606032 
L 442.033826 156.613841 
L 448.59805 156.399755 
L 456.584868 155.944233 
L 469.158068 154.972253 
L 487.580901 153.258111 
L 513.205193 150.617236 
L 538.015649 147.933117 
L 538.015649 147.933117 
" style="fill:none;stroke:#000000;stroke-linecap:square;stroke-opacity:0.7;stroke-width:1.2;"/>
   </g>
   <g id="line2d_19">
    <path clip-path="url(#p69eac349d6)" d="M 548.706642 110.395319 
L 547.212672 111.416548 
L 546.316058 112.276973 
L 545.406099 113.699792 
L 545.013121 114.523654 
L 544.510525 115.207014 
L 543.69418 115.524246 
L 542.362054 115.497979 
L 539.266923 115.001667 
L 524.951691 112.422489 
L 518.801641 111.474827 
L 512.703549 110.665455 
L 499.453308 109.385081 
L 490.714426 108.864462 
L 478.537599 108.46023 
L 468.961339 108.328483 
L 448.500632 108.363093 
L 415.56727 108.553663 
L 407.022277 108.380978 
L 403.083676 108.182054 
L 398.618502 107.750245 
L 396.788617 107.591241 
L 396.449708 107.775764 
L 395.99893 108.597479 
L 395.562532 109.22502 
L 394.979517 109.678775 
L 394.275053 109.853673 
L 393.741881 109.765577 
L 392.931392 109.409317 
L 392.773378 109.532748 
L 392.593738 110.363858 
L 392.513947 111.948041 
L 392.557103 113.114929 
L 392.780626 114.757628 
L 393.132589 116.050803 
L 393.763767 117.442314 
L 394.648764 118.663011 
L 395.403418 119.388878 
L 396.223411 119.990763 
L 397.161866 120.524468 
L 399.042534 121.286326 
L 402.11283 122.046389 
L 403.340736 122.253265 
L 409.60183 122.870862 
L 416.024905 123.111137 
L 424.114228 123.1466 
L 431.024561 123.038049 
L 447.619363 122.464841 
L 465.065149 121.565767 
L 485.770931 120.259192 
L 513.805479 118.242083 
L 545.655878 115.858664 
L 545.655878 115.858664 
" style="fill:none;stroke:#000000;stroke-linecap:square;stroke-opacity:0.7;stroke-width:1.2;"/>
   </g>
   <g id="line2d_20">
    <path clip-path="url(#p69eac349d6)" d="M 544.921294 74.799771 
L 544.942553 74.848436 
L 545.376249 74.872364 
L 547.908409 74.084135 
L 550.897713 72.687423 
L 552.598906 71.581809 
L 553.615556 70.490145 
L 553.765612 69.831759 
L 553.695143 69.591836 
L 552.596765 68.738911 
L 549.967293 68.036934 
L 547.63791 67.685924 
L 539.9368 66.974013 
L 534.014593 66.591321 
L 520.139581 65.873786 
L 493.442878 64.559755 
L 472.525018 63.221762 
L 446.69779 61.444306 
L 441.985648 61.394595 
L 438.679852 61.516189 
L 433.599274 62.071918 
L 428.417553 63.115605 
L 422.662137 64.297764 
L 418.346006 64.856394 
L 413.652878 65.105336 
L 407.648084 65.266547 
L 406.222998 65.455378 
L 405.004073 65.782802 
L 403.560358 66.552199 
L 403.032155 66.993649 
L 402.098664 68.037441 
L 400.716547 70.096589 
L 397.744555 74.755278 
L 396.581702 76.422274 
L 395.703259 77.935373 
L 395.562405 78.775508 
L 395.99538 79.651765 
L 396.35808 79.98417 
L 397.068928 80.452954 
L 398.950692 81.294091 
L 401.873892 82.176275 
L 405.280895 82.903496 
L 410.272219 83.639972 
L 416.112021 84.194502 
L 422.635457 84.564988 
L 428.143769 84.739775 
L 441.57386 84.833264 
L 456.188092 84.620785 
L 474.567243 84.119147 
L 513.293217 82.766262 
L 540.590442 81.911516 
L 543.254739 81.855576 
L 543.254739 81.855576 
" style="fill:none;stroke:#000000;stroke-linecap:square;stroke-opacity:0.7;stroke-width:1.2;"/>
   </g>
   <g id="line2d_21">
    <path clip-path="url(#p69eac349d6)" d="M 655.748007 214.396107 
L 656.041229 214.570514 
L 658.983855 214.525504 
L 661.039465 214.35688 
L 670.937139 213.005195 
L 673.923626 212.323421 
L 675.347947 211.713837 
L 675.490909 211.390353 
L 675.409055 211.258706 
L 674.676006 210.870818 
L 672.788679 210.387467 
L 668.448906 209.66679 
L 659.136387 208.461056 
L 637.882206 205.758336 
L 627.191882 204.129851 
L 602.196408 199.968602 
L 596.947705 199.450971 
L 594.264155 199.274516 
L 588.014009 199.122408 
L 583.911248 199.226826 
L 575.634636 199.57143 
L 550.318884 200.258191 
L 544.662 200.77985 
L 541.51783 201.305208 
L 537.773294 202.335175 
L 534.833661 203.552577 
L 523.683933 209.028567 
L 518.392382 211.331216 
L 518.155706 211.469621 
L 517.224498 212.484934 
L 517.347627 213.000716 
L 517.821425 213.505392 
L 518.89205 214.163971 
L 521.729967 215.280691 
L 524.732936 216.126582 
L 528.676308 216.984823 
L 532.246332 217.602006 
L 536.256381 218.164973 
L 542.306851 218.819534 
L 548.294854 219.293558 
L 555.348224 219.685963 
L 565.231375 220.013679 
L 579.139727 220.174267 
L 589.126512 220.146432 
L 612.355757 219.833053 
L 657.497271 219.115617 
L 657.497271 219.115617 
" style="fill:none;stroke:#000000;stroke-linecap:square;stroke-opacity:0.7;stroke-width:1.2;"/>
   </g>
   <g id="line2d_22">
    <path clip-path="url(#p69eac349d6)" d="M 666.833921 179.497996 
L 665.17256 181.028144 
L 664.572832 181.634117 
L 663.374935 182.681481 
L 662.352363 183.320099 
L 659.934214 184.102473 
L 657.482285 184.284986 
L 654.955255 184.15308 
L 650.565689 183.586311 
L 639.453795 181.728464 
L 631.693094 180.549085 
L 625.284283 179.771114 
L 618.965549 179.208681 
L 612.390257 178.832532 
L 605.363884 178.63434 
L 595.625986 178.62871 
L 587.89586 178.783378 
L 572.455914 179.337038 
L 539.914324 180.627538 
L 528.251615 180.76683 
L 525.195706 180.728021 
L 517.490297 180.373164 
L 513.626562 179.954618 
L 509.233425 179.02728 
L 507.559918 178.393966 
L 505.985486 177.730357 
L 505.723925 177.970291 
L 505.462286 178.699454 
L 505.021458 180.894829 
L 504.34594 185.716599 
L 503.97038 189.649031 
L 503.916977 192.836731 
L 504.130782 193.850333 
L 504.40964 194.139074 
L 504.704237 194.149486 
L 505.345519 193.854377 
L 507.28735 192.785309 
L 508.769494 192.325314 
L 511.132837 192.003432 
L 514.197255 191.878377 
L 547.549628 191.329301 
L 563.069694 190.727454 
L 583.85291 189.702544 
L 606.898528 188.34212 
L 632.576525 186.57391 
L 651.587479 185.052919 
L 664.404346 183.846508 
L 664.404346 183.846508 
" style="fill:none;stroke:#000000;stroke-linecap:square;stroke-opacity:0.7;stroke-width:1.2;"/>
   </g>
   <g id="line2d_23">
    <path clip-path="url(#p69eac349d6)" d="M 668.445989 145.754709 
L 663.882093 147.97105 
L 657.888223 151.306 
L 654.112424 153.011821 
L 653.447296 153.17848 
L 651.436163 153.302362 
L 650.143753 153.088222 
L 647.594837 152.239744 
L 635.441694 147.361434 
L 632.778594 146.505218 
L 628.475255 145.325476 
L 604.078374 142.156739 
L 600.968665 142.016683 
L 587.162884 141.737951 
L 573.70949 141.804331 
L 555.538949 142.158555 
L 515.785555 143.062087 
L 504.668681 143.190587 
L 504.241159 143.44063 
L 504.035516 143.75697 
L 503.886731 144.305353 
L 503.778148 145.689111 
L 503.782071 150.133202 
L 503.989713 156.136014 
L 504.299735 158.601282 
L 504.778112 159.826019 
L 505.184853 160.165545 
L 505.41049 160.235815 
L 506.160064 160.180673 
L 507.538841 159.647705 
L 509.953199 158.646051 
L 511.566214 158.190942 
L 513.375358 157.874607 
L 516.099909 157.627629 
L 521.09623 157.440427 
L 549.000727 156.652104 
L 572.101743 155.659823 
L 597.894295 154.317312 
L 628.045983 152.494476 
L 651.161807 150.86734 
L 664.857397 149.646571 
L 665.696465 149.550056 
L 665.696465 149.550056 
" style="fill:none;stroke:#000000;stroke-linecap:square;stroke-opacity:0.7;stroke-width:1.2;"/>
   </g>
   <g id="line2d_24">
    <path clip-path="url(#p69eac349d6)" d="M 662.733174 110.963915 
L 661.230729 111.556362 
L 657.245153 113.278302 
L 655.186637 114.32768 
L 652.529841 115.890649 
L 647.077112 119.512106 
L 646.121553 119.762336 
L 645.62637 119.774603 
L 644.751532 119.666201 
L 641.63922 118.849075 
L 635.774357 117.228575 
L 630.722426 116.011515 
L 625.864667 115.009262 
L 618.280219 113.753553 
L 611.411104 112.897277 
L 605.183363 112.307863 
L 596.510871 111.718316 
L 587.383024 111.319031 
L 577.255118 111.071525 
L 559.772147 110.977371 
L 539.858445 111.172553 
L 521.846178 111.323065 
L 516.767661 111.188633 
L 513.715719 110.882171 
L 512.670381 110.78133 
L 512.411159 110.931832 
L 511.834897 111.554034 
L 507.773481 116.650871 
L 506.209461 118.861688 
L 505.489516 120.221506 
L 505.21429 121.246191 
L 505.283872 122.123494 
L 505.613993 122.806381 
L 506.258472 123.472334 
L 507.098987 123.993564 
L 508.152838 124.410723 
L 509.593543 124.754211 
L 511.472731 124.979589 
L 514.523336 125.072912 
L 519.420236 124.944627 
L 528.483399 124.45646 
L 551.501406 122.940505 
L 647.166341 116.499831 
L 661.814007 115.708586 
L 661.814007 115.708586 
" style="fill:none;stroke:#000000;stroke-linecap:square;stroke-opacity:0.7;stroke-width:1.2;"/>
   </g>
   <g id="line2d_25">
    <path clip-path="url(#p69eac349d6)" d="M 656.22629 75.892074 
L 656.717187 76.106335 
L 664.062312 75.784035 
L 670.562696 75.028919 
L 671.71145 74.845244 
L 674.947732 74.032537 
L 675.295287 73.710875 
L 675.295661 73.649113 
L 675.066513 73.39082 
L 673.795528 72.926581 
L 671.768953 72.482605 
L 664.930617 71.391062 
L 639.952878 67.757862 
L 626.047797 65.26335 
L 610.938238 62.24807 
L 602.299697 60.966766 
L 594.620502 60.397873 
L 590.403313 60.355212 
L 580.820673 60.366202 
L 570.775234 60.448733 
L 564.830007 60.693438 
L 560.21276 61.121802 
L 554.946639 62.132993 
L 551.539873 63.224805 
L 540.025946 67.623512 
L 534.496777 69.173224 
L 531.611588 69.826872 
L 523.648597 71.288213 
L 519.717662 72.057362 
L 518.555827 72.38073 
L 516.949955 73.160704 
L 516.529037 73.729322 
L 516.529466 74.391599 
L 516.802997 74.936135 
L 517.820522 75.987681 
L 519.052639 76.867758 
L 523.285012 79.01903 
L 527.614895 80.605024 
L 531.180451 81.632587 
L 535.789545 82.683241 
L 540.773066 83.539511 
L 545.973599 84.186198 
L 550.523842 84.585482 
L 556.623646 84.927055 
L 563.891921 85.110911 
L 573.643574 85.08536 
L 586.348575 84.745614 
L 601.319955 84.077526 
L 620.120098 83.007561 
L 647.299805 81.221624 
L 655.856795 80.624632 
L 655.856795 80.624632 
" style="fill:none;stroke:#000000;stroke-linecap:square;stroke-opacity:0.7;stroke-width:1.2;"/>
   </g>
  </g>
 </g>
 <defs>
  <clipPath id="p69eac349d6">
   <rect height="262.08" width="694.08" x="12.96" y="12.96"/>
  </clipPath>
 </defs>
</svg>
