<?xml version="1.0" encoding="utf-8" standalone="no"?>
<!DOCTYPE svg PUBLIC "-//W3C//DTD SVG 1.1//EN"
  "http://www.w3.org/Graphics/SVG/1.1/DTD/svg11.dtd">
<!-- Created with matplotlib (https://matplotlib.org/) -->
<svg height="288pt" version="1.1" viewBox="0 0 720 288" width="720pt" xmlns="http://www.w3.org/2000/svg" xmlns:xlink="http://www.w3.org/1999/xlink">
 <metadata>
  <rdf:RDF xmlns:cc="http://creativecommons.org/ns#" xmlns:dc="http://purl.org/dc/elements/1.1/" xmlns:rdf="http://www.w3.org/1999/02/22-rdf-syntax-ns#">
   <cc:Work>
    <dc:type rdf:resource="http://purl.org/dc/dcmitype/StillImage"/>
    <dc:date>2020-12-22T21:33:01.403806</dc:date>
    <dc:format>image/svg+xml</dc:format>
    <dc:creator>
     <cc:Agent>
      <dc:title>Matplotlib v3.3.2, https://matplotlib.org/</dc:title>
     </cc:Agent>
    </dc:creator>
   </cc:Work>
  </rdf:RDF>
 </metadata>
 <defs>
  <style type="text/css">*{stroke-linecap:butt;stroke-linejoin:round;}</style>
 </defs>
 <g id="figure_1">
  <g id="patch_1">
   <path d="M 0 288 
L 720 288 
L 720 0 
L 0 0 
z
" style="fill:#ffffff;"/>
  </g>
  <g id="axes_1">
   <g id="line2d_1">
    <path clip-path="url(#p9d36143012)" d="M 168.990337 224.872593 
L 172.617725 224.207957 
L 209.319496 221.887723 
L 211.464594 221.535518 
L 212.643572 220.975309 
L 211.530212 220.03633 
L 209.862863 219.501465 
L 207.673647 218.985457 
L 202.428641 218.080761 
L 191.53246 216.820279 
L 176.120555 215.607779 
L 161.175474 214.519541 
L 155.298623 213.815741 
L 155.077913 213.775033 
L 153.166724 213.242878 
L 152.683594 212.892322 
L 152.609393 212.535835 
L 152.911335 212.058303 
L 154.478428 210.361551 
L 154.512528 209.986313 
L 154.432248 209.748569 
L 151.715805 208.24766 
L 150.627338 207.939866 
L 147.485087 207.256046 
L 140.876297 206.254082 
L 118.072231 204.499925 
L 100.918038 204.420592 
L 92.95768 203.973961 
L 75.415061 202.404447 
L 71.796113 203.891279 
L 71.004146 205.619976 
L 67.660363 211.15911 
L 63.147536 216.434852 
L 58.24449 221.264251 
L 49.33623 228.945596 
L 44.509463 232.616424 
L 44.512595 232.586161 
L 44.806506 232.23736 
L 46.096996 231.017291 
L 47.900034 229.561333 
L 50.521688 227.794988 
L 52.770307 226.51963 
L 55.152195 225.346671 
L 68.777815 220.725237 
L 74.372117 219.461657 
L 80.380116 218.369159 
L 81.825696 218.140749 
L 92.26919 216.818691 
L 100.650819 216.104874 
L 104.070018 215.887925 
L 112.975806 215.498888 
L 137.512266 215.512876 
L 148.363938 215.938972 
L 157.343457 216.45879 
L 157.343457 216.45879 
" style="fill:none;stroke:#000000;stroke-linecap:square;stroke-opacity:0.7;stroke-width:1.2;"/>
   </g>
   <g id="line2d_2">
    <path clip-path="url(#p9d36143012)" d="M 204.895898 195.114593 
L 199.132845 194.564724 
L 195.52733 194.002899 
L 194.316962 193.756487 
L 184.073728 190.557877 
L 182.491365 189.91562 
L 177.617457 187.741769 
L 169.815813 183.724627 
L 164.307727 180.523147 
L 157.509283 176.138374 
L 153.024395 172.935061 
L 149.064566 169.825908 
L 145.8647 167.016002 
L 143.281659 164.377401 
L 142.030705 162.824618 
L 140.914733 160.975314 
L 140.470035 160.387358 
L 140.013067 160.186778 
L 139.011894 160.026679 
L 137.212799 159.924001 
L 135.81285 159.902584 
L 128.389512 160.103275 
L 115.99686 160.808118 
L 106.945642 161.452019 
L 85.691589 163.288752 
L 72.710526 164.674833 
L 60.143781 166.390264 
L 55.138813 167.36191 
L 53.407384 167.838965 
L 52.148968 168.373542 
L 51.723826 168.77233 
L 51.688155 169.049833 
L 52.329984 169.709521 
L 55.11197 171.037192 
L 71.811072 178.275221 
L 76.720671 180.097178 
L 82.768245 182.003626 
L 88.37255 183.391502 
L 93.160103 184.253435 
L 96.58584 184.669103 
L 102.463408 184.953819 
L 104.687371 184.910657 
L 108.467234 184.637058 
L 112.92092 183.98435 
L 118.640307 182.635805 
L 122.174334 181.545285 
L 127.087206 179.775691 
L 137.810487 175.65565 
L 139.382555 175.293316 
L 140.001721 175.286031 
L 140.44502 175.431382 
L 140.863399 175.856884 
L 141.541511 176.713342 
L 142.010282 177.08747 
L 142.886306 177.561849 
L 144.416445 178.092472 
L 146.178141 178.50096 
L 148.901301 178.937863 
L 155.497136 179.583146 
L 157.855435 179.744484 
L 174.433763 180.537612 
L 185.997624 181.0827 
L 196.493301 181.914081 
L 199.676334 182.354577 
L 202.761189 183.017885 
L 204.157132 183.491764 
L 205.616172 184.317337 
L 206.600384 185.764294 
L 206.828817 187.714377 
L 206.828817 187.714377 
" style="fill:none;stroke:#000000;stroke-linecap:square;stroke-opacity:0.7;stroke-width:1.2;"/>
   </g>
   <g id="line2d_3">
    <path clip-path="url(#p9d36143012)" d="M 205.34048 160.53142 
L 200.880377 160.145326 
L 197.726951 159.707063 
L 192.593324 158.555184 
L 184.132649 155.542111 
L 178.329536 152.807096 
L 170.177508 148.137802 
L 166.378184 145.614334 
L 160.57461 141.232793 
L 157.191444 138.274221 
L 155.73283 136.860614 
L 152.762682 133.54414 
L 151.443919 131.704381 
L 150.479611 129.949674 
L 150.135019 129.058117 
L 149.920875 128.161634 
L 149.919916 126.93126 
L 149.985155 125.987861 
L 149.634263 125.78139 
L 148.803508 125.618931 
L 146.57314 125.452168 
L 145.223501 125.415375 
L 137.338424 125.524672 
L 122.855194 126.122751 
L 118.980944 126.31986 
L 92.179597 127.992806 
L 76.558573 129.256681 
L 66.9963 130.215183 
L 62.878924 130.709868 
L 55.966779 131.811667 
L 54.883532 132.05969 
L 53.114605 132.623003 
L 52.306707 133.163516 
L 52.201908 133.403848 
L 52.233115 133.650399 
L 52.386995 133.902775 
L 52.9205 134.376898 
L 55.091553 135.681165 
L 65.078368 141.282274 
L 69.816856 143.512831 
L 74.595641 145.297528 
L 76.841334 145.973635 
L 81.453589 147.048308 
L 84.594583 147.549724 
L 91.082463 148.040611 
L 96.766002 147.929449 
L 100.031356 147.666378 
L 103.742853 147.214505 
L 108.799835 146.379003 
L 114.510198 145.204707 
L 133.342749 140.972215 
L 135.974951 140.648018 
L 137.964901 140.648862 
L 139.134069 140.895131 
L 139.953983 141.299938 
L 142.232498 142.800041 
L 144.23882 143.511814 
L 147.206758 144.121016 
L 148.758981 144.343967 
L 156.507711 145.057973 
L 166.240149 145.599224 
L 184.778827 146.547682 
L 192.183425 147.128375 
L 196.007505 147.561951 
L 199.245823 148.076593 
L 202.750744 148.994515 
L 203.661975 149.387239 
L 205.576914 151.791461 
L 205.516377 153.46072 
L 205.516377 153.46072 
" style="fill:none;stroke:#000000;stroke-linecap:square;stroke-opacity:0.7;stroke-width:1.2;"/>
   </g>
   <g id="line2d_4">
    <path clip-path="url(#p9d36143012)" d="M 207.271372 125.599996 
L 202.335087 125.461197 
L 198.595842 125.032108 
L 194.47368 124.099709 
L 190.858508 122.94532 
L 188.884448 122.208631 
L 183.252364 119.778017 
L 178.17308 117.242499 
L 174.027654 114.966387 
L 170.22933 112.727185 
L 164.783561 109.256692 
L 162.155707 107.463215 
L 157.782271 104.274307 
L 152.385325 99.845595 
L 149.825022 97.404991 
L 148.337521 95.772058 
L 146.143748 93.066996 
L 144.945836 92.638223 
L 143.253265 92.368644 
L 140.329889 92.089281 
L 129.315788 91.913772 
L 117.198929 92.182946 
L 101.709828 92.767781 
L 70.35593 94.618768 
L 63.359555 95.239297 
L 56.104495 96.199182 
L 54.564944 96.607055 
L 54.100966 96.881026 
L 54.097696 97.197276 
L 55.727652 98.018285 
L 59.086944 99.347106 
L 62.62487 101.024933 
L 74.078811 107.035087 
L 80.638978 109.932888 
L 83.748198 111.075161 
L 87.17805 112.143882 
L 94.492855 113.697415 
L 99.2177 114.137077 
L 103.287574 114.142807 
L 107.266515 113.812092 
L 112.587265 112.872136 
L 116.58856 111.831546 
L 120.987881 110.427718 
L 133.383515 106.170655 
L 134.605814 106.018957 
L 135.472764 106.166135 
L 136.062422 106.531406 
L 137.127432 107.347772 
L 138.51599 108.020787 
L 139.835286 108.439987 
L 141.481566 108.820522 
L 145.663432 109.457793 
L 151.223654 109.985129 
L 161.209127 110.588344 
L 188.056748 111.899596 
L 194.964661 112.483415 
L 197.854272 112.841412 
L 201.942262 113.6244 
L 204.751713 114.72922 
L 205.171046 115.025952 
L 205.935477 115.887946 
L 206.350796 116.944911 
L 206.564058 118.094931 
L 206.564058 118.094931 
" style="fill:none;stroke:#000000;stroke-linecap:square;stroke-opacity:0.7;stroke-width:1.2;"/>
   </g>
   <g id="line2d_5">
    <path clip-path="url(#p9d36143012)" d="M 175.039466 86.08669 
L 189.524661 84.067136 
L 206.797638 82.599355 
L 208.23053 82.164957 
L 208.605274 81.423743 
L 207.752397 80.769269 
L 204.15756 79.439716 
L 200.489341 78.482707 
L 194.564468 77.233764 
L 190.358519 76.475458 
L 177.84898 74.589549 
L 171.183306 73.731708 
L 154.339802 71.602897 
L 151.930209 71.04311 
L 151.65567 70.925784 
L 151.264432 70.343842 
L 152.440841 68.775272 
L 152.374741 68.326131 
L 151.970937 67.858171 
L 151.142154 67.35966 
L 149.156762 66.629868 
L 146.058482 65.870296 
L 141.285999 65.039714 
L 135.579679 64.32346 
L 128.654698 63.725792 
L 122.406492 63.396953 
L 114.182734 63.211999 
L 104.696719 63.222111 
L 74.16026 63.419747 
L 71.559424 63.373004 
L 72.06075 63.473216 
L 72.911111 63.762901 
L 73.314047 64.079596 
L 73.433649 64.29363 
L 73.436753 64.788543 
L 73.209176 65.267625 
L 72.556018 66.03913 
L 71.672779 66.814261 
L 67.083312 69.879886 
L 56.325559 76.232238 
L 54.713155 77.417624 
L 53.891713 78.311452 
L 53.773371 78.670248 
L 53.895567 78.987654 
L 54.393928 79.249487 
L 55.127546 79.377924 
L 57.120686 79.410524 
L 61.379442 79.146426 
L 74.15263 78.281589 
L 85.017031 77.837451 
L 95.390554 77.640492 
L 107.045906 77.645356 
L 115.58397 77.787131 
L 127.728638 78.182432 
L 139.406487 78.78241 
L 151.415416 79.649118 
L 161.851795 80.652904 
L 170.355129 81.702023 
L 177.870697 82.887414 
L 177.870697 82.887414 
" style="fill:none;stroke:#000000;stroke-linecap:square;stroke-opacity:0.7;stroke-width:1.2;"/>
   </g>
   <g id="line2d_6">
    <path clip-path="url(#p9d36143012)" d="M 312.238216 228.083924 
L 310.059734 227.401853 
L 307.886849 226.386162 
L 306.210765 225.347626 
L 302.708482 222.516609 
L 299.396645 219.133151 
L 293.706149 212.671758 
L 291.412634 210.39227 
L 288.963038 208.336833 
L 286.235134 206.422655 
L 283.080156 204.545991 
L 279.183227 202.56087 
L 275.333384 200.87639 
L 272.312458 199.743557 
L 269.747631 198.934293 
L 268.197298 198.524882 
L 264.428071 197.805835 
L 261.908856 197.525089 
L 256.722673 197.261413 
L 249.798431 197.189537 
L 225.671587 197.331573 
L 191.57469 197.622713 
L 191.838533 197.847942 
L 193.29222 198.661254 
L 194.060071 199.400497 
L 194.293818 200.030427 
L 194.223336 200.589603 
L 193.925143 201.152028 
L 192.98793 202.105938 
L 191.716798 203.0101 
L 186.447848 206.260612 
L 185.32195 207.455776 
L 185.076198 208.075805 
L 185.101236 208.71889 
L 185.177204 208.928104 
L 185.69972 209.611086 
L 186.511439 210.15553 
L 187.653923 210.614988 
L 192.761663 211.267718 
L 196.267217 211.156606 
L 199.874982 210.811786 
L 205.390494 210.021662 
L 215.108416 208.292455 
L 225.420877 206.509468 
L 231.333434 205.697832 
L 236.792145 205.159263 
L 242.369971 204.854679 
L 246.85677 204.805231 
L 251.673778 204.955513 
L 256.524749 205.326259 
L 261.019582 205.870942 
L 266.334463 206.768613 
L 269.514057 207.437785 
L 275.487411 208.960249 
L 279.770445 210.26044 
L 285.171775 212.137808 
L 289.147603 213.680452 
L 294.972511 216.171153 
L 301.042438 219.043195 
L 306.828257 222.049271 
L 311.602666 224.786657 
L 311.602666 224.786657 
" style="fill:none;stroke:#000000;stroke-linecap:square;stroke-opacity:0.7;stroke-width:1.2;"/>
   </g>
   <g id="line2d_7">
    <path clip-path="url(#p9d36143012)" d="M 314.639344 193.16129 
L 312.408155 192.487381 
L 310.157558 191.534904 
L 307.49724 190.113101 
L 304.300835 188.118951 
L 301.340398 186.089612 
L 297.730445 183.460523 
L 287.395712 175.469569 
L 279.066051 169.018859 
L 275.704002 166.576873 
L 271.874256 164.07289 
L 269.144368 162.582381 
L 267.007004 161.649489 
L 265.094296 161.012001 
L 262.691168 160.474431 
L 260.421136 160.20332 
L 257.155169 160.075655 
L 250.49261 160.129462 
L 224.331169 160.715663 
L 189.024496 161.667863 
L 177.686526 162.176969 
L 173.852645 162.531218 
L 172.102836 162.902302 
L 171.540256 163.210707 
L 171.364009 163.519883 
L 171.413008 163.930587 
L 171.876392 164.793347 
L 173.362685 167.238687 
L 175.055588 170.641869 
L 177.24672 175.052312 
L 178.389393 176.946006 
L 179.943165 178.983041 
L 181.640099 180.593662 
L 183.574323 181.835203 
L 186.17753 182.821859 
L 188.802943 183.309109 
L 191.009417 183.470296 
L 194.634745 183.434436 
L 199.80295 183.028002 
L 206.698164 182.215767 
L 219.804741 180.658569 
L 224.65415 180.243845 
L 231.076608 179.943953 
L 237.649924 179.925995 
L 248.781383 179.935829 
L 277.022162 179.674391 
L 285.502926 179.865575 
L 291.462243 180.156526 
L 298.115312 180.71131 
L 302.687204 181.308689 
L 305.326682 181.777915 
L 307.863727 182.357753 
L 311.181517 183.425318 
L 313.268078 184.421363 
L 314.870525 185.522468 
L 316.016108 186.63389 
L 316.718147 187.515669 
L 317.96588 189.464097 
L 317.96588 189.464097 
" style="fill:none;stroke:#000000;stroke-linecap:square;stroke-opacity:0.7;stroke-width:1.2;"/>
   </g>
   <g id="line2d_8">
    <path clip-path="url(#p9d36143012)" d="M 301.783397 157.377605 
L 301.532392 156.274452 
L 306.151567 154.303479 
L 314.089331 152.347988 
L 315.407279 151.836777 
L 316.126621 150.914374 
L 315.840467 150.402059 
L 314.791753 149.580583 
L 312.612705 148.420647 
L 309.309035 146.981363 
L 303.968204 144.935117 
L 296.542828 142.375272 
L 289.159964 140.064999 
L 283.647155 138.486561 
L 277.118803 136.804814 
L 271.321268 135.538973 
L 266.547015 134.737783 
L 262.962166 134.141903 
L 248.270385 131.077133 
L 244.049221 130.505235 
L 240.173994 130.149588 
L 233.436505 129.824975 
L 224.496399 129.662521 
L 202.475457 129.352234 
L 194.752293 129.028659 
L 193.387601 128.956234 
L 193.451109 129.02937 
L 193.490667 129.196133 
L 193.275234 129.390843 
L 192.603408 129.660616 
L 190.599168 130.166924 
L 189.290648 130.583758 
L 189.279421 130.671487 
L 189.661628 130.842959 
L 191.421543 131.159964 
L 210.587241 134.043101 
L 223.107819 136.247254 
L 238.586312 139.186168 
L 258.432545 143.209674 
L 277.077257 147.232401 
L 292.563592 150.795654 
L 302.892931 153.357854 
L 308.934602 155.003108 
L 308.934602 155.003108 
" style="fill:none;stroke:#000000;stroke-linecap:square;stroke-opacity:0.7;stroke-width:1.2;"/>
   </g>
   <g id="line2d_9">
    <path clip-path="url(#p9d36143012)" d="M 312.767418 122.806738 
L 312.015214 122.445215 
L 311.120642 121.538848 
L 310.553175 119.708295 
L 310.480033 117.010851 
L 310.573793 114.175119 
L 310.447416 112.004528 
L 309.980784 110.179678 
L 309.151374 108.643026 
L 307.782684 107.127452 
L 306.301227 105.969564 
L 303.597363 104.357893 
L 300.374388 102.812129 
L 295.860129 100.964513 
L 290.31394 98.975599 
L 284.514622 97.139166 
L 279.864538 95.852463 
L 276.193399 94.982662 
L 271.301064 94.076867 
L 268.005597 93.643063 
L 262.468421 93.177008 
L 255.232168 92.863507 
L 243.473668 92.636929 
L 196.006289 92.177682 
L 196.222572 92.564153 
L 195.810419 92.875401 
L 195.062235 93.236874 
L 191.79893 94.49132 
L 185.856171 96.771924 
L 181.828923 98.611911 
L 180.459634 99.359383 
L 178.218327 100.897168 
L 177.225447 101.905085 
L 176.694563 102.815439 
L 176.590641 103.164179 
L 176.621021 104.15115 
L 176.938699 104.817629 
L 177.529887 105.480898 
L 178.316068 106.059548 
L 181.307162 107.286891 
L 183.604558 107.774263 
L 186.430828 108.087343 
L 188.878267 108.184107 
L 193.641104 108.059412 
L 198.727539 107.626136 
L 206.815881 106.593409 
L 224.784547 104.122831 
L 231.671966 103.436373 
L 238.63218 102.974239 
L 245.486678 102.763259 
L 252.249967 102.801951 
L 258.749355 103.081164 
L 266.031368 103.697123 
L 272.647548 104.564359 
L 278.58303 105.625428 
L 284.439461 106.974705 
L 289.080303 108.289516 
L 294.41464 110.110606 
L 299.188619 112.060845 
L 302.123614 113.426531 
L 306.462809 115.696646 
L 310.351791 118.001782 
L 313.490308 120.076148 
L 313.490308 120.076148 
" style="fill:none;stroke:#000000;stroke-linecap:square;stroke-opacity:0.7;stroke-width:1.2;"/>
   </g>
   <g id="line2d_10">
    <path clip-path="url(#p9d36143012)" d="M 286.252667 84.71162 
L 330.079991 83.76489 
L 321.101504 79.874958 
L 318.320723 79.38361 
L 307.548648 77.932055 
L 284.511729 75.846344 
L 270.525562 74.614853 
L 264.684588 73.848251 
L 262.280595 73.348002 
L 260.713031 72.807606 
L 259.851384 72.163205 
L 259.573529 69.834613 
L 258.927711 69.005192 
L 258.117387 68.452041 
L 256.845633 67.848282 
L 248.118867 65.623245 
L 240.773889 64.565769 
L 236.532419 64.141244 
L 229.494563 63.71211 
L 223.352477 63.643921 
L 219.474972 63.772874 
L 211.775128 64.494259 
L 207.44881 65.183449 
L 202.330739 66.209585 
L 192.062045 68.453207 
L 182.351206 70.084047 
L 179.702954 70.357979 
L 176.62714 70.505512 
L 175.378452 70.457286 
L 174.489899 70.278451 
L 174.334331 70.029446 
L 174.843926 69.71259 
L 175.713866 69.472802 
L 176.738369 69.327123 
L 177.857215 69.302469 
L 179.999715 69.923248 
L 180.605978 70.732001 
L 179.952893 73.934409 
L 176.12357 79.117946 
L 167.741286 87.515601 
L 163.948478 91.247721 
L 163.696569 91.679315 
L 163.721917 91.689205 
L 163.959645 91.604496 
L 165.684683 90.484428 
L 168.977763 88.412872 
L 172.125575 86.741858 
L 175.644994 85.168829 
L 179.292861 83.79081 
L 184.697734 82.104504 
L 187.104631 81.462463 
L 192.51384 80.216146 
L 195.843258 79.564599 
L 202.688186 78.453466 
L 206.587113 77.938901 
L 217.656031 76.864523 
L 227.280532 76.319023 
L 238.124728 76.063732 
L 247.650039 76.112441 
L 258.04912 76.425499 
L 267.914283 76.952152 
L 278.301762 77.732058 
L 282.416364 78.102182 
L 282.416364 78.102182 
" style="fill:none;stroke:#000000;stroke-linecap:square;stroke-opacity:0.7;stroke-width:1.2;"/>
   </g>
   <g id="line2d_11">
    <path clip-path="url(#p9d36143012)" d="M 420.367043 224.470184 
L 420.812291 224.236949 
L 428.566357 222.484302 
L 437.739848 220.00263 
L 439.083228 219.403552 
L 440.181134 217.371576 
L 437.407888 215.89942 
L 433.745617 214.867748 
L 427.116906 213.560955 
L 413.397943 211.688323 
L 401.547744 210.49754 
L 386.686818 209.295296 
L 372.152278 208.096501 
L 370.717404 207.913318 
L 368.58242 207.512109 
L 367.139711 206.898055 
L 365.580196 205.156126 
L 363.68746 204.177689 
L 362.794313 203.867513 
L 358.705749 202.88892 
L 354.432387 202.250922 
L 350.128524 201.842628 
L 344.937104 201.613673 
L 341.673271 201.627233 
L 337.709389 201.839768 
L 335.1443 202.107909 
L 332.685017 202.462224 
L 323.261456 204.328381 
L 320.042867 204.986103 
L 311.246647 206.577601 
L 299.113817 208.21753 
L 294.025217 208.702515 
L 289.418404 208.996065 
L 286.232693 208.936611 
L 287.467027 209.03534 
L 288.509144 209.477335 
L 288.996416 209.904753 
L 289.301117 210.371163 
L 289.469651 210.8522 
L 289.505344 212.05712 
L 289.017617 213.728689 
L 288.507556 214.779569 
L 286.674182 217.545696 
L 282.89031 222.527692 
L 282.902415 222.998112 
L 283.220942 223.301552 
L 283.877143 223.502947 
L 284.926362 223.610223 
L 287.949685 223.594236 
L 296.737654 223.141175 
L 316.279468 222.160983 
L 335.066702 221.46111 
L 355.899708 220.941625 
L 372.361901 220.733544 
L 388.625112 220.760825 
L 399.617416 220.999941 
L 406.608896 221.362269 
L 410.184527 221.74261 
L 410.184527 221.74261 
" style="fill:none;stroke:#000000;stroke-linecap:square;stroke-opacity:0.7;stroke-width:1.2;"/>
   </g>
   <g id="line2d_12">
    <path clip-path="url(#p9d36143012)" d="M 418.873564 192.908336 
L 419.599314 191.989475 
L 435.547534 189.683223 
L 438.031927 188.923634 
L 438.336922 188.529122 
L 436.973929 187.036437 
L 435.421135 186.214551 
L 432.263994 184.862614 
L 429.085524 183.682514 
L 423.043048 181.689653 
L 415.004006 179.347545 
L 405.700953 176.9359 
L 392.618289 173.7619 
L 391.488087 173.300382 
L 391.379077 173.183234 
L 391.551304 172.866823 
L 392.076313 172.420941 
L 392.015235 172.192792 
L 391.51031 171.884576 
L 389.369569 171.277668 
L 384.570543 170.446165 
L 378.247183 169.653709 
L 369.848705 168.86464 
L 361.151045 168.283442 
L 352.242975 167.873704 
L 329.000429 166.874494 
L 318.725025 166.270179 
L 316.823784 166.665796 
L 300.91459 170.526959 
L 295.614832 171.973455 
L 291.549015 173.303403 
L 289.793259 174.110207 
L 289.220556 174.57468 
L 289.119967 174.878264 
L 289.229474 175.087934 
L 289.782264 175.401363 
L 290.880964 175.684624 
L 293.150424 175.997715 
L 297.599021 176.360671 
L 331.219169 178.679373 
L 351.431762 180.426333 
L 370.214612 182.284394 
L 387.081987 184.16118 
L 402.211136 186.06026 
L 413.676759 187.711189 
L 420.931322 188.934062 
L 422.234405 189.180647 
L 422.234405 189.180647 
" style="fill:none;stroke:#000000;stroke-linecap:square;stroke-opacity:0.7;stroke-width:1.2;"/>
   </g>
   <g id="line2d_13">
    <path clip-path="url(#p9d36143012)" d="M 410.539589 155.90877 
L 410.988358 155.544737 
L 426.084029 154.042746 
L 436.709398 153.554085 
L 439.697977 153.155542 
L 440.640404 152.399141 
L 440.210737 151.930504 
L 438.303088 150.934714 
L 437.772032 150.716227 
L 434.756277 149.636567 
L 431.281958 148.570223 
L 422.505589 146.273299 
L 416.996462 145.007853 
L 405.796106 142.698796 
L 392.166671 139.957729 
L 391.145244 139.672513 
L 389.67298 139.064517 
L 389.193857 138.549814 
L 389.113221 138.056 
L 388.997216 137.544595 
L 388.642377 137.137884 
L 387.825421 136.692491 
L 387.587373 136.599509 
L 381.996069 135.41319 
L 377.965137 134.922159 
L 369.930855 134.239383 
L 354.754118 133.501628 
L 350.853605 133.300576 
L 340.174634 132.000275 
L 332.621595 131.315605 
L 329.249151 131.139613 
L 325.543909 131.172841 
L 322.866325 131.531321 
L 318.333977 133.292991 
L 292.430705 148.214264 
L 285.038557 152.557863 
L 281.739702 154.719881 
L 280.552389 155.738859 
L 280.428456 156.057863 
L 280.596473 156.150257 
L 281.041022 156.129773 
L 282.755165 155.714204 
L 290.081312 153.746213 
L 295.933987 152.49174 
L 300.948168 151.600943 
L 307.494392 150.633667 
L 319.829822 149.265332 
L 329.233953 148.532314 
L 339.171209 147.99671 
L 351.991149 147.625509 
L 362.557945 147.571507 
L 372.619527 147.727514 
L 383.226103 148.117712 
L 392.448075 148.659646 
L 402.017353 149.447343 
L 408.302785 150.110135 
L 408.302785 150.110135 
" style="fill:none;stroke:#000000;stroke-linecap:square;stroke-opacity:0.7;stroke-width:1.2;"/>
   </g>
   <g id="line2d_14">
    <path clip-path="url(#p9d36143012)" d="M 406.048871 119.8344 
L 406.99755 119.607878 
L 434.702792 116.061361 
L 441.652252 114.688734 
L 444.198065 112.576747 
L 443.492189 112.132032 
L 440.039826 111.056282 
L 439.555913 110.950156 
L 431.599203 109.726184 
L 421.263504 108.805474 
L 412.451224 108.294697 
L 405.810702 108.007327 
L 376.446769 106.959884 
L 372.619113 106.604259 
L 370.800184 106.164336 
L 370.444901 105.741709 
L 370.643992 105.348147 
L 371.259226 104.750001 
L 372.052289 103.769854 
L 372.118311 103.192237 
L 371.921045 102.761943 
L 371.265859 102.164935 
L 370.576265 101.772344 
L 368.266661 100.912705 
L 367.239663 100.631548 
L 364.342862 100.005544 
L 358.336673 99.170137 
L 351.674112 98.734134 
L 348.331239 98.690777 
L 343.70239 98.836112 
L 336.517818 99.572301 
L 315.02631 103.471484 
L 309.94348 104.079341 
L 295.132719 104.300877 
L 292.169916 103.62387 
L 291.912142 102.998588 
L 292.561074 102.704337 
L 294.845826 104.338514 
L 294.301582 105.555978 
L 289.273319 110.877003 
L 286.128356 113.418562 
L 278.685793 118.931349 
L 277.981011 119.714648 
L 278.11981 119.962821 
L 278.678458 120.042859 
L 279.798981 119.991856 
L 285.563233 119.36066 
L 291.240094 118.760921 
L 305.594795 117.52034 
L 316.577272 116.766288 
L 333.858419 115.832762 
L 344.547089 115.391417 
L 365.621924 114.829337 
L 376.905248 114.728348 
L 387.492659 114.817521 
L 396.577964 115.137092 
L 401.876844 115.553616 
L 401.927325 115.559285 
L 401.927325 115.559285 
" style="fill:none;stroke:#000000;stroke-linecap:square;stroke-opacity:0.7;stroke-width:1.2;"/>
   </g>
   <g id="line2d_15">
    <path clip-path="url(#p9d36143012)" d="M 413.567949 86.236494 
L 414.914705 85.738633 
L 441.108252 81.770973 
L 441.286204 81.400421 
L 440.856764 80.621547 
L 440.590123 80.404159 
L 435.808273 78.24373 
L 431.740817 76.966162 
L 426.516162 75.569635 
L 414.577443 72.911083 
L 406.388618 71.346811 
L 381.630409 66.866963 
L 380.840934 66.62356 
L 377.78293 65.585641 
L 376.871092 65.387744 
L 373.074382 64.845704 
L 366.91156 64.313848 
L 358.458298 63.837987 
L 353.036611 63.497282 
L 352.895865 63.2221 
L 352.101628 62.882766 
L 351.425572 62.689766 
L 342.615531 61.179895 
L 335.123868 60.454473 
L 331.532762 60.327558 
L 329.312689 60.374252 
L 325.471653 60.834854 
L 317.307642 63.986014 
L 287.704572 79.312295 
L 280.156383 83.306525 
L 278.871641 84.155865 
L 278.732215 84.418519 
L 278.970976 84.4464 
L 279.642791 84.332789 
L 289.337938 82.144628 
L 294.876739 81.220559 
L 300.490725 80.463275 
L 308.784304 79.588704 
L 317.985665 78.877997 
L 321.553888 78.662952 
L 336.754705 78.064245 
L 345.726714 77.92493 
L 350.018984 77.910043 
L 366.921654 78.166978 
L 378.963778 78.662547 
L 388.956259 79.289095 
L 399.174266 80.163083 
L 404.453845 80.724141 
L 404.453845 80.724141 
" style="fill:none;stroke:#000000;stroke-linecap:square;stroke-opacity:0.7;stroke-width:1.2;"/>
   </g>
   <g id="line2d_16">
    <path clip-path="url(#p9d36143012)" d="M 546.785548 229.319124 
L 544.57125 228.758138 
L 542.23143 227.819609 
L 539.873398 226.487723 
L 532.776738 220.459651 
L 529.50098 216.829197 
L 520.447319 205.82331 
L 518.836844 204.140046 
L 517.258354 202.677968 
L 514.422314 200.53292 
L 512.088273 199.191972 
L 509.874397 198.222492 
L 507.788536 197.542047 
L 505.269854 196.982122 
L 502.267335 196.62372 
L 498.897562 196.494394 
L 493.501839 196.538351 
L 469.502601 196.915693 
L 449.549233 196.986886 
L 420.035045 196.832351 
L 411.403354 196.90898 
L 409.818792 197.130999 
L 409.51709 197.319701 
L 409.466854 197.512812 
L 409.656016 197.941957 
L 410.861203 199.838771 
L 411.695394 201.657985 
L 412.599779 203.625454 
L 413.505457 205.127223 
L 414.452443 206.31403 
L 415.857571 207.653718 
L 417.317383 208.733972 
L 419.000741 209.741572 
L 421.538158 210.956604 
L 424.254404 211.989731 
L 427.746797 213.038328 
L 431.638623 213.935066 
L 435.579407 214.621979 
L 441.25508 215.320498 
L 447.064846 215.784831 
L 455.379711 216.190344 
L 464.869565 216.421392 
L 470.359589 216.3476 
L 477.104054 216.020888 
L 506.805693 214.253593 
L 516.365859 214.04439 
L 523.410805 214.105871 
L 530.33657 214.425476 
L 534.519789 214.800048 
L 539.570757 215.540112 
L 542.962711 216.328109 
L 544.863845 216.944807 
L 547.158892 217.984214 
L 548.97086 219.236428 
L 550.11707 220.435862 
L 550.597473 221.103668 
L 551.920719 223.631057 
L 551.920719 223.631057 
" style="fill:none;stroke:#000000;stroke-linecap:square;stroke-opacity:0.7;stroke-width:1.2;"/>
   </g>
   <g id="line2d_17">
    <path clip-path="url(#p9d36143012)" d="M 530.280306 191.936596 
L 531.127741 191.252459 
L 535.021349 189.888011 
L 544.558906 187.553417 
L 553.589173 185.09365 
L 554.8376 184.472077 
L 555.486004 183.666461 
L 554.859606 182.732713 
L 553.84944 182.171072 
L 550.60467 181.032658 
L 537.409278 178.270285 
L 530.346652 177.207772 
L 520.566047 176.007838 
L 514.134333 175.36271 
L 500.701851 174.342177 
L 488.305689 173.49673 
L 486.63418 173.163483 
L 485.829133 172.891988 
L 484.662541 172.299978 
L 482.529882 170.935936 
L 480.135826 169.64568 
L 476.594685 168.22341 
L 471.049681 166.70164 
L 463.473752 165.52822 
L 456.483375 165.084077 
L 445.818115 164.92596 
L 412.61747 164.816991 
L 394.82476 164.610842 
L 395.050249 164.691936 
L 397.338211 165.090463 
L 400.861717 165.575991 
L 406.181448 166.207787 
L 436.404825 169.212647 
L 448.527281 170.935964 
L 462.102511 173.098065 
L 487.157172 177.409296 
L 508.914978 181.384302 
L 530.111059 185.486402 
L 542.406323 188.090176 
L 544.863112 188.682302 
L 544.863112 188.682302 
" style="fill:none;stroke:#000000;stroke-linecap:square;stroke-opacity:0.7;stroke-width:1.2;"/>
   </g>
   <g id="line2d_18">
    <path clip-path="url(#p9d36143012)" d="M 555.980323 159.391629 
L 550.812057 159.264125 
L 548.37378 159.069948 
L 539.470423 157.233437 
L 534.290979 155.475405 
L 527.604246 152.668281 
L 524.136816 151.013087 
L 517.624439 147.570558 
L 511.367393 143.849493 
L 506.843933 140.873341 
L 502.299399 137.569372 
L 498.66307 134.585613 
L 497.18867 133.23452 
L 495.448943 131.451233 
L 493.642555 129.089091 
L 492.559316 127.415917 
L 491.97604 127.166034 
L 490.775332 126.919632 
L 488.873673 126.691577 
L 487.864702 126.609695 
L 481.016034 126.403391 
L 477.502199 126.397677 
L 457.370468 126.733479 
L 438.978957 127.339832 
L 422.360977 128.132432 
L 413.445292 128.714286 
L 404.412909 129.576907 
L 400.241216 130.326412 
L 399.377128 130.649448 
L 398.931791 131.172208 
L 399.250818 131.654156 
L 400.698791 132.585216 
L 404.114711 134.60457 
L 414.637174 141.287205 
L 419.268765 143.617957 
L 423.136596 145.165226 
L 425.564745 145.954023 
L 429.093193 146.859301 
L 431.465252 147.314356 
L 434.075078 147.679765 
L 437.075207 147.934163 
L 441.510188 148.011075 
L 444.412796 147.886292 
L 451.50167 147.08981 
L 456.71356 146.151315 
L 463.125842 144.722132 
L 480.042815 140.735703 
L 483.330119 140.322867 
L 484.97946 140.354618 
L 486.105223 140.616317 
L 486.874212 141.012279 
L 489.581633 142.713756 
L 490.57502 143.09448 
L 492.969732 143.742945 
L 497.634924 144.525767 
L 503.602325 145.164449 
L 515.685989 146.030196 
L 535.941425 147.307143 
L 544.100436 148.081874 
L 550.134112 149.100069 
L 551.532865 149.498468 
L 553.669612 150.533666 
L 554.732413 152.021776 
L 554.989676 153.580067 
L 554.989676 153.580067 
" style="fill:none;stroke:#000000;stroke-linecap:square;stroke-opacity:0.7;stroke-width:1.2;"/>
   </g>
   <g id="line2d_19">
    <path clip-path="url(#p9d36143012)" d="M 556.045419 126.873499 
L 551.734099 126.481764 
L 547.513602 125.683888 
L 540.956994 123.351904 
L 539.010765 122.462129 
L 533.684582 119.691182 
L 529.52775 117.246197 
L 524.632114 114.095492 
L 521.917762 112.229401 
L 516.491827 108.240446 
L 511.204472 103.979945 
L 506.818434 100.071745 
L 502.488179 95.626269 
L 500.50238 93.140188 
L 499.210172 91.493151 
L 498.655232 91.20613 
L 497.822454 91.020321 
L 495.81095 90.832164 
L 495.355554 90.807459 
L 488.82664 90.790445 
L 487.562174 90.833174 
L 473.373751 91.639868 
L 456.323937 92.93044 
L 435.437577 94.771105 
L 422.899807 96.029543 
L 410.883343 97.47444 
L 406.75771 98.194682 
L 405.508256 98.630013 
L 405.433237 99.005767 
L 405.976359 99.345195 
L 418.71919 104.586348 
L 425.523243 107.1438 
L 430.853313 108.860686 
L 432.97339 109.46916 
L 437.966617 110.728792 
L 445.018768 112.070568 
L 450.708529 112.745026 
L 452.93655 112.8998 
L 458.672449 112.982943 
L 462.421278 112.765316 
L 466.188903 112.302437 
L 470.929514 111.334023 
L 475.114889 110.092032 
L 479.246984 108.506421 
L 483.454787 106.585079 
L 487.346431 104.825931 
L 488.007948 104.727146 
L 488.180569 104.830456 
L 488.244327 105.291608 
L 488.212647 106.180272 
L 488.419722 106.892862 
L 488.847308 107.440105 
L 489.382501 107.843623 
L 490.460071 108.361731 
L 491.326765 108.651849 
L 494.830193 109.377255 
L 497.483495 109.708232 
L 500.747581 109.993581 
L 511.850553 110.510438 
L 538.734645 111.137198 
L 548.357966 111.713071 
L 551.513119 112.107355 
L 554.88727 112.918835 
L 555.564894 113.21449 
L 557.155208 115.195397 
L 557.225935 116.509858 
L 557.225935 116.509858 
" style="fill:none;stroke:#000000;stroke-linecap:square;stroke-opacity:0.7;stroke-width:1.2;"/>
   </g>
   <g id="line2d_20">
    <path clip-path="url(#p9d36143012)" d="M 548.516893 90.018301 
L 546.225428 89.660721 
L 540.412705 88.457778 
L 532.72207 86.318998 
L 528.001551 84.728489 
L 520.105467 81.551402 
L 514.793463 78.959895 
L 510.830858 76.689964 
L 506.546471 73.725445 
L 503.601297 71.124142 
L 501.624267 68.782002 
L 500.356412 66.477876 
L 499.847901 63.722699 
L 499.957752 62.809358 
L 500.649439 61.005464 
L 501.539963 59.756305 
L 503.373297 58.010516 
L 505.246195 56.362418 
L 505.348585 56.126645 
L 505.236532 55.841007 
L 505.148898 55.7778 
L 504.101996 55.509237 
L 502.276934 55.399385 
L 497.587217 55.415011 
L 478.393913 55.853135 
L 418.118912 57.337857 
L 410.084279 57.763365 
L 407.343223 58.111727 
L 406.458112 58.398004 
L 406.237981 58.787985 
L 406.895337 59.367034 
L 408.562269 60.14764 
L 411.091007 61.093327 
L 415.643625 62.585318 
L 420.120775 63.913994 
L 428.982747 66.229659 
L 436.021407 67.789383 
L 446.615052 70.073957 
L 461.201046 73.551686 
L 465.568759 74.297848 
L 469.726363 74.807131 
L 474.066717 75.107262 
L 478.303746 75.147276 
L 481.954631 74.971728 
L 486.626218 74.500881 
L 494.202014 73.426425 
L 506.146867 71.740562 
L 513.311351 70.950822 
L 519.52416 70.469352 
L 526.639144 70.233918 
L 532.181141 70.389114 
L 534.72797 70.607035 
L 538.595352 71.207363 
L 541.429057 71.970688 
L 543.811389 72.99291 
L 545.354105 73.996157 
L 546.752797 75.364791 
L 547.397931 76.272024 
L 548.498725 78.708974 
L 549.035789 80.736291 
L 549.833503 85.240338 
L 549.833503 85.240338 
" style="fill:none;stroke:#000000;stroke-linecap:square;stroke-opacity:0.7;stroke-width:1.2;"/>
   </g>
   <g id="line2d_21">
    <path clip-path="url(#p9d36143012)" d="M 660.825943 225.73437 
L 660.599238 225.518509 
L 660.376158 224.887358 
L 660.745877 222.739583 
L 661.904353 218.162188 
L 662.070211 216.063178 
L 661.535218 213.227552 
L 660.765434 211.771016 
L 659.148849 209.944606 
L 657.855577 208.915638 
L 653.105451 206.287776 
L 649.265789 204.730706 
L 645.039649 203.287758 
L 639.711734 201.718589 
L 633.479112 200.146187 
L 627.515946 198.898083 
L 622.968934 198.148234 
L 618.428483 197.610492 
L 614.066926 197.291298 
L 607.824921 197.079546 
L 598.487414 197.036656 
L 579.250871 197.284168 
L 526.303328 198.366688 
L 517.775082 198.647789 
L 518.050974 198.747046 
L 519.642322 199.195237 
L 519.95749 199.427962 
L 520.128222 199.727048 
L 520.174528 200.460156 
L 520.229306 201.380249 
L 520.497297 202.10661 
L 520.964102 202.755908 
L 522.026664 203.638758 
L 523.046192 204.193753 
L 524.162545 204.630239 
L 526.49173 205.189015 
L 528.622258 205.428076 
L 530.385233 205.491222 
L 532.817557 205.432462 
L 536.440558 205.12453 
L 541.680045 204.402156 
L 553.13805 202.617243 
L 558.653066 202.033684 
L 563.704139 201.789604 
L 566.894964 201.788504 
L 572.847276 202.082649 
L 576.508734 202.432822 
L 580.568106 202.948858 
L 587.665824 204.118296 
L 594.546686 205.509347 
L 603.746778 207.665806 
L 611.721125 209.742338 
L 623.025484 212.933102 
L 631.896965 215.600127 
L 644.643816 219.656433 
L 655.096902 223.225783 
L 660.206203 225.154227 
L 660.206203 225.154227 
" style="fill:none;stroke:#000000;stroke-linecap:square;stroke-opacity:0.7;stroke-width:1.2;"/>
   </g>
   <g id="line2d_22">
    <path clip-path="url(#p9d36143012)" d="M 672.338938 195.421948 
L 667.2596 195.11326 
L 662.780185 194.462257 
L 654.713024 191.986105 
L 652.978896 191.27673 
L 648.689904 189.318751 
L 642.919505 186.299293 
L 638.038218 183.447358 
L 631.826619 179.445836 
L 626.763848 175.856235 
L 621.431279 171.678533 
L 617.099012 167.828465 
L 614.120441 164.701348 
L 612.798252 163.020789 
L 611.739382 161.759002 
L 611.117023 161.462919 
L 610.110192 161.253155 
L 607.629727 161.012929 
L 606.741131 160.96282 
L 598.614673 160.921001 
L 596.663363 160.965374 
L 578.009751 161.707566 
L 565.043261 162.407623 
L 545.39564 163.685885 
L 533.334459 164.638012 
L 524.314798 165.53349 
L 522.803128 165.725557 
L 520.229923 166.186414 
L 519.830191 166.418673 
L 520.175571 166.629025 
L 523.831468 167.623799 
L 526.37873 168.613102 
L 530.701083 170.731147 
L 537.716561 174.249922 
L 540.699393 175.580342 
L 546.499788 177.777065 
L 550.312913 178.92121 
L 554.978481 179.984999 
L 561.749359 180.851258 
L 563.663043 180.947444 
L 566.347888 180.970372 
L 568.957464 180.867195 
L 574.36898 180.263563 
L 577.076075 179.771321 
L 581.099541 178.824557 
L 585.878061 177.415065 
L 594.103893 174.576218 
L 597.97786 173.341879 
L 599.71498 172.988807 
L 600.944423 173.071511 
L 601.406581 173.387534 
L 601.82534 174.064058 
L 602.414798 174.988916 
L 603.126715 175.652807 
L 604.291831 176.338271 
L 605.741133 176.912861 
L 609.119459 177.784928 
L 613.79087 178.550558 
L 619.94665 179.232352 
L 631.736222 180.10539 
L 659.640735 181.821916 
L 663.879252 182.282379 
L 667.651836 182.927629 
L 670.092211 183.680327 
L 671.347513 184.408792 
L 671.59247 184.623775 
L 672.495939 186.049515 
L 672.784797 186.882851 
L 672.784797 186.882851 
" style="fill:none;stroke:#000000;stroke-linecap:square;stroke-opacity:0.7;stroke-width:1.2;"/>
   </g>
   <g id="line2d_23">
    <path clip-path="url(#p9d36143012)" d="M 642.004485 155.742252 
L 644.73315 155.068543 
L 664.933013 151.631023 
L 675.490909 148.373459 
L 675.361839 147.316877 
L 672.440899 146.007396 
L 670.550759 145.524206 
L 665.777882 144.636885 
L 661.363513 144.030854 
L 651.752131 143.072197 
L 635.794593 142.054784 
L 619.364097 141.373352 
L 605.618248 140.778493 
L 602.532153 140.462781 
L 601.658673 140.240751 
L 601.429004 139.676156 
L 602.378047 138.581709 
L 602.447664 137.751605 
L 601.521591 136.821844 
L 599.922514 136.066248 
L 598.026086 135.46321 
L 594.821204 134.742541 
L 590.890756 134.146056 
L 586.910906 133.769713 
L 583.784107 133.612706 
L 578.20905 133.616416 
L 572.527924 133.962102 
L 567.153473 134.533127 
L 544.606549 137.496225 
L 531.69333 138.669533 
L 527.614919 138.875748 
L 521.64926 138.856763 
L 520.005138 138.56268 
L 519.814182 138.358358 
L 519.939676 138.154891 
L 520.823754 137.725596 
L 522.24504 137.339629 
L 522.460207 137.309555 
L 522.447935 137.424238 
L 521.503582 137.79635 
L 514.403779 140.265406 
L 513.438669 140.921484 
L 513.520884 141.16381 
L 514.392623 141.491638 
L 516.008342 141.759407 
L 520.784812 142.242742 
L 535.866262 143.445563 
L 574.167271 146.544872 
L 609.058837 149.599135 
L 632.377352 151.853314 
L 641.69075 152.949826 
L 641.69075 152.949826 
" style="fill:none;stroke:#000000;stroke-linecap:square;stroke-opacity:0.7;stroke-width:1.2;"/>
   </g>
   <g id="line2d_24">
    <path clip-path="url(#p9d36143012)" d="M 668.880683 123.712183 
L 665.862241 123.493812 
L 660.777817 122.802845 
L 658.438597 122.316994 
L 654.642708 121.326363 
L 651.877447 120.470033 
L 638.134429 114.953849 
L 629.581295 110.647543 
L 620.515444 105.316707 
L 617.311646 103.185913 
L 613.064646 100.050977 
L 610.366813 97.751282 
L 608.372939 95.716264 
L 607.286699 94.284954 
L 606.693137 93.11801 
L 606.155986 91.613303 
L 605.605803 91.423674 
L 604.281851 91.25183 
L 601.238118 91.118134 
L 594.261559 91.035692 
L 561.159684 91.019616 
L 529.894334 91.185968 
L 518.335246 91.395887 
L 513.326885 91.683318 
L 511.743561 91.981084 
L 511.216081 92.307268 
L 511.129051 92.498647 
L 511.220262 93.047289 
L 511.637996 93.811542 
L 513.370125 96.227518 
L 516.117644 99.63909 
L 518.821258 102.660192 
L 521.475951 105.306506 
L 523.971533 107.495677 
L 526.372161 109.317151 
L 529.690773 111.358611 
L 532.503533 112.651866 
L 535.655138 113.646351 
L 537.476634 114.022439 
L 541.066885 114.406628 
L 545.029703 114.408399 
L 548.149512 114.19511 
L 552.642432 113.679435 
L 562.059632 112.233649 
L 572.659871 110.614487 
L 577.711149 110.040535 
L 582.156795 109.76813 
L 585.136758 109.77381 
L 588.447993 109.986417 
L 598.515443 110.850555 
L 606.256118 111.142234 
L 643.111384 112.121298 
L 653.574687 112.906519 
L 659.242497 113.658106 
L 660.871388 113.961096 
L 664.577054 114.963899 
L 666.19897 115.713365 
L 667.350994 116.622047 
L 667.94261 117.513372 
L 668.35965 118.900297 
L 668.405527 119.124532 
L 668.405527 119.124532 
" style="fill:none;stroke:#000000;stroke-linecap:square;stroke-opacity:0.7;stroke-width:1.2;"/>
   </g>
   <g id="line2d_25">
    <path clip-path="url(#p9d36143012)" d="M 665.945744 85.171522 
L 665.006249 84.827935 
L 664.477958 84.538421 
L 662.412854 82.99279 
L 653.984986 75.575382 
L 651.204449 73.370858 
L 644.980828 69.188758 
L 640.090709 66.627414 
L 638.099219 65.74579 
L 634.61292 64.391266 
L 628.896286 62.579804 
L 622.759827 61.024194 
L 616.680042 59.734826 
L 608.331621 58.245939 
L 602.053304 57.369691 
L 597.761995 56.987584 
L 593.600855 56.820305 
L 586.471927 56.798693 
L 577.874977 56.931345 
L 551.495777 57.582631 
L 525.558038 58.407477 
L 523.910668 58.516046 
L 523.281638 58.708191 
L 524.693962 58.918937 
L 526.510488 58.928599 
L 528.158386 58.715859 
L 529.764809 58.451311 
L 530.144112 58.580164 
L 530.922297 59.135881 
L 534.018762 61.668378 
L 536.091474 60.915742 
L 537.946165 60.776016 
L 540.688037 60.878565 
L 544.685644 61.311081 
L 551.41183 62.356102 
L 562.591898 64.435422 
L 578.566793 67.682846 
L 603.382895 72.971042 
L 640.427266 81.104783 
L 658.819394 85.249234 
L 658.819394 85.249234 
" style="fill:none;stroke:#000000;stroke-linecap:square;stroke-opacity:0.7;stroke-width:1.2;"/>
   </g>
  </g>
 </g>
 <defs>
  <clipPath id="p9d36143012">
   <rect height="262.08" width="694.08" x="12.96" y="12.96"/>
  </clipPath>
 </defs>
</svg>
