<?xml version="1.0" encoding="utf-8" standalone="no"?>
<!DOCTYPE svg PUBLIC "-//W3C//DTD SVG 1.1//EN"
  "http://www.w3.org/Graphics/SVG/1.1/DTD/svg11.dtd">
<!-- Created with matplotlib (https://matplotlib.org/) -->
<svg height="288pt" version="1.1" viewBox="0 0 720 288" width="720pt" xmlns="http://www.w3.org/2000/svg" xmlns:xlink="http://www.w3.org/1999/xlink">
 <metadata>
  <rdf:RDF xmlns:cc="http://creativecommons.org/ns#" xmlns:dc="http://purl.org/dc/elements/1.1/" xmlns:rdf="http://www.w3.org/1999/02/22-rdf-syntax-ns#">
   <cc:Work>
    <dc:type rdf:resource="http://purl.org/dc/dcmitype/StillImage"/>
    <dc:date>2020-12-23T05:28:31.773117</dc:date>
    <dc:format>image/svg+xml</dc:format>
    <dc:creator>
     <cc:Agent>
      <dc:title>Matplotlib v3.3.2, https://matplotlib.org/</dc:title>
     </cc:Agent>
    </dc:creator>
   </cc:Work>
  </rdf:RDF>
 </metadata>
 <defs>
  <style type="text/css">*{stroke-linecap:butt;stroke-linejoin:round;}</style>
 </defs>
 <g id="figure_1">
  <g id="patch_1">
   <path d="M 0 288 
L 720 288 
L 720 0 
L 0 0 
z
" style="fill:#ffffff;"/>
  </g>
  <g id="axes_1">
   <g id="line2d_1">
    <path clip-path="url(#p873ce19965)" d="M 154.599612 225.428012 
L 136.658863 223.390022 
L 121.257387 221.893308 
L 111.964692 221.207339 
L 108.569431 221.088618 
L 102.051239 221.159208 
L 94.016176 221.539161 
L 82.165132 222.112332 
L 81.513474 222.085761 
L 77.924171 221.45635 
L 73.759125 221.479838 
L 69.089693 221.781991 
L 67.51804 222.000232 
L 68.482853 221.974985 
L 71.40401 221.637715 
L 73.214304 221.201733 
L 70.984861 221.225902 
L 67.369334 221.604692 
L 62.883951 222.280737 
L 58.589978 223.164642 
L 56.918886 223.606191 
L 54.057135 224.643977 
L 53.08536 225.228799 
L 52.673089 226.37388 
L 53.10773 226.770175 
L 54.305555 227.273779 
L 55.59907 227.582799 
L 58.108207 227.929353 
L 61.262087 228.133835 
L 66.861634 228.193522 
L 77.814922 227.961329 
L 99.373344 227.33557 
L 108.976996 226.775895 
L 121.681312 225.969663 
L 131.201987 225.920589 
L 152.3971 225.96233 
L 152.3971 225.96233 
" style="fill:none;stroke:#000000;stroke-linecap:square;stroke-opacity:0.7;stroke-width:1.2;"/>
   </g>
   <g id="line2d_2">
    <path clip-path="url(#p873ce19965)" d="M 155.010376 186.248927 
L 154.926646 186.221883 
L 136.743058 180.734093 
L 126.993484 178.017308 
L 120.03707 176.261975 
L 111.716416 174.677664 
L 103.573788 173.50317 
L 94.670143 172.299082 
L 91.865897 172.038571 
L 88.949484 171.914389 
L 84.836877 172.013601 
L 79.115094 172.667007 
L 74.446063 173.650724 
L 67.597826 175.339959 
L 65.922615 175.590488 
L 62.76528 175.796954 
L 60.855987 175.891068 
L 56.782199 177.727483 
L 50.042906 179.627913 
L 45.968353 180.786398 
L 44.844282 181.312779 
L 44.509091 181.896634 
L 44.636501 182.111203 
L 49.063235 183.924598 
L 58.477892 186.787703 
L 67.144211 188.924989 
L 77.368373 190.51948 
L 79.882644 190.760229 
L 88.29327 191.156267 
L 93.526455 191.120496 
L 107.513207 190.282055 
L 107.513207 190.282055 
L 120.108519 189.059046 
L 151.718154 185.923225 
L 151.718154 185.923225 
" style="fill:none;stroke:#000000;stroke-linecap:square;stroke-opacity:0.7;stroke-width:1.2;"/>
   </g>
   <g id="line2d_3">
    <path clip-path="url(#p873ce19965)" d="M 155.078826 147.459816 
L 144.239375 144.793546 
L 124.218129 140.212817 
L 110.641899 137.099364 
L 100.899377 134.792567 
L 96.727759 134.008282 
L 94.051594 133.752808 
L 91.040237 133.759542 
L 89.045162 133.906747 
L 83.832291 134.642264 
L 78.65937 135.652096 
L 71.548465 137.018549 
L 64.878611 138.083121 
L 63.878846 138.763164 
L 62.393319 139.302927 
L 56.809543 141.005956 
L 52.051371 143.253973 
L 51.61078 143.702094 
L 51.261109 144.372503 
L 51.257715 144.973326 
L 51.72404 145.79161 
L 52.620538 146.526272 
L 54.020171 147.267793 
L 55.8621 147.971559 
L 58.132576 148.63903 
L 61.980455 149.515704 
L 68.569629 150.651317 
L 71.21817 151.025919 
L 80.885484 152.050337 
L 85.478787 152.328922 
L 91.063219 152.454331 
L 96.704079 152.32889 
L 102.374917 151.970049 
L 110.881045 151.113233 
L 121.331502 149.918246 
L 145.477594 147.980515 
L 153.001807 147.384643 
L 153.001807 147.384643 
" style="fill:none;stroke:#000000;stroke-linecap:square;stroke-opacity:0.7;stroke-width:1.2;"/>
   </g>
   <g id="line2d_4">
    <path clip-path="url(#p873ce19965)" d="M 154.959296 108.503955 
L 146.635382 107.430137 
L 130.952626 105.627927 
L 120.811461 104.652119 
L 112.625568 104.135027 
L 107.433023 104.151743 
L 100.449429 104.268029 
L 95.925673 104.106723 
L 94.243373 103.918929 
L 92.120004 103.422637 
L 91.010729 102.880476 
L 89.978078 102.330523 
L 89.322462 102.135149 
L 87.709445 101.907464 
L 85.487512 101.819031 
L 82.187216 101.889547 
L 77.374247 102.278259 
L 73.404273 102.862554 
L 71.6369 103.21741 
L 67.516705 104.344464 
L 64.641073 105.435202 
L 57.560566 108.609443 
L 55.554104 109.64923 
L 54.804523 110.276729 
L 54.755278 110.547117 
L 54.959465 110.740585 
L 55.457897 110.892994 
L 56.282938 110.990512 
L 59.113691 111.019889 
L 70.564577 110.774006 
L 74.539862 110.911827 
L 79.006089 111.300369 
L 86.034722 111.944457 
L 90.463956 112.090046 
L 95.281724 112.069669 
L 106.313669 111.597055 
L 116.7796 110.834432 
L 132.197726 109.664255 
L 132.197726 109.664255 
L 152.348779 108.182567 
L 152.348779 108.182567 
" style="fill:none;stroke:#000000;stroke-linecap:square;stroke-opacity:0.7;stroke-width:1.2;"/>
   </g>
   <g id="line2d_5">
    <path clip-path="url(#p873ce19965)" d="M 155.396673 69.567574 
L 145.060048 68.035452 
L 134.280232 66.615671 
L 122.285944 65.31214 
L 118.731424 65.017811 
L 112.737646 64.763354 
L 110.0949 64.908685 
L 107.910303 65.06208 
L 106.486795 65.027916 
L 104.754723 64.798997 
L 101.360524 63.865205 
L 98.493594 62.948262 
L 95.895819 62.405234 
L 92.616482 62.106409 
L 88.341179 62.036451 
L 84.642544 62.147565 
L 78.922951 62.608093 
L 74.924316 63.175505 
L 71.212461 63.920717 
L 67.73613 64.815071 
L 62.480502 66.45067 
L 59.811251 67.439118 
L 57.427894 68.538776 
L 56.269395 69.236273 
L 55.203098 70.172866 
L 54.928521 70.706529 
L 54.974289 71.083479 
L 55.309544 71.401385 
L 56.933215 71.742182 
L 61.138896 71.535306 
L 67.849183 70.727452 
L 72.177551 70.247843 
L 78.475686 69.855927 
L 79.168254 69.84929 
L 85.892179 70.596883 
L 89.133123 71.427745 
L 91.830811 71.802405 
L 95.711135 72.046654 
L 104.762295 72.093881 
L 113.636179 71.795136 
L 119.738073 71.404234 
L 151.399061 68.526762 
L 151.399061 68.526762 
" style="fill:none;stroke:#000000;stroke-linecap:square;stroke-opacity:0.7;stroke-width:1.2;"/>
   </g>
   <g id="line2d_6">
    <path clip-path="url(#p873ce19965)" d="M 285.270632 225.524372 
L 285.032671 225.484365 
L 273.276641 223.691619 
L 262.309392 222.298521 
L 253.3293 221.376042 
L 244.069523 220.781748 
L 239.958152 220.824128 
L 233.103355 221.158093 
L 231.172586 221.118538 
L 227.132395 220.641417 
L 226.110636 220.391343 
L 221.782279 218.991106 
L 220.031931 218.764311 
L 215.83314 218.631444 
L 213.828621 218.674182 
L 208.247939 219.079253 
L 203.956343 219.715241 
L 201.727084 220.177926 
L 198.368987 221.051019 
L 194.234641 222.360567 
L 189.972489 223.904818 
L 187.225739 225.068958 
L 185.329444 226.108402 
L 184.614368 226.694506 
L 184.335232 227.19254 
L 184.504619 227.559059 
L 185.003507 227.768141 
L 185.758499 227.86178 
L 187.456194 227.80773 
L 188.161097 227.738127 
L 200.956796 226.043742 
L 204.927629 225.916485 
L 208.095251 226.087258 
L 210.73659 226.414028 
L 216.415204 227.138637 
L 219.054324 227.300641 
L 223.63017 227.402948 
L 228.212782 227.388039 
L 240.333607 227.046064 
L 281.262097 225.259638 
L 281.262097 225.259638 
" style="fill:none;stroke:#000000;stroke-linecap:square;stroke-opacity:0.7;stroke-width:1.2;"/>
   </g>
   <g id="line2d_7">
    <path clip-path="url(#p873ce19965)" d="M 285.476116 186.742577 
L 259.158799 183.297705 
L 249.651178 182.30562 
L 243.979383 181.883657 
L 240.436523 181.823454 
L 236.214699 181.776322 
L 231.450583 181.407809 
L 223.40854 180.426033 
L 219.406319 180.003714 
L 215.163186 179.84644 
L 211.34571 179.941793 
L 206.986285 180.321403 
L 204.029377 180.821976 
L 202.047968 181.343531 
L 199.544822 182.370833 
L 195.994657 184.24691 
L 193.221584 185.334381 
L 188.320088 187.206519 
L 187.533332 187.702857 
L 187.505164 187.941951 
L 187.892455 188.080177 
L 188.878208 188.140639 
L 191.801708 188.023232 
L 205.590586 187.241649 
L 218.668402 186.742867 
L 235.08768 186.598601 
L 253.588654 186.425228 
L 280.926297 186.847343 
L 280.926297 186.847343 
" style="fill:none;stroke:#000000;stroke-linecap:square;stroke-opacity:0.7;stroke-width:1.2;"/>
   </g>
   <g id="line2d_8">
    <path clip-path="url(#p873ce19965)" d="M 284.724909 147.400165 
L 275.726382 145.899036 
L 258.228477 143.245023 
L 245.75461 141.367695 
L 245.041204 141.228784 
L 232.587542 138.386985 
L 225.592356 137.189575 
L 223.369508 136.981108 
L 220.105281 136.98607 
L 218.213374 137.267401 
L 216.489645 137.736451 
L 212.768648 138.892338 
L 209.670727 139.598984 
L 204.832535 140.412257 
L 193.064485 142.247384 
L 193.527437 142.282609 
L 193.955943 142.273683 
L 193.805738 142.326919 
L 190.094792 143.087539 
L 185.606983 144.371115 
L 183.772377 145.147027 
L 182.646491 145.811704 
L 181.969381 146.39745 
L 181.573432 146.987412 
L 181.487387 147.773396 
L 181.64229 148.173794 
L 182.320686 148.922669 
L 183.365652 149.565855 
L 184.746968 150.137215 
L 187.220296 150.821164 
L 189.853448 151.294857 
L 192.906983 151.646738 
L 196.75385 151.896511 
L 203.344093 152.046239 
L 213.98354 151.9878 
L 222.192073 151.774865 
L 228.572008 151.443967 
L 235.801672 150.861512 
L 245.962605 149.780385 
L 250.561837 149.307725 
L 257.267644 148.9324 
L 282.887741 147.762645 
L 282.887741 147.762645 
" style="fill:none;stroke:#000000;stroke-linecap:square;stroke-opacity:0.7;stroke-width:1.2;"/>
   </g>
   <g id="line2d_9">
    <path clip-path="url(#p873ce19965)" d="M 284.823975 108.420352 
L 271.246605 106.545781 
L 243.859947 102.820268 
L 236.718858 101.550586 
L 231.135076 100.848052 
L 227.606706 100.569372 
L 223.36617 100.418237 
L 219.305291 100.486991 
L 215.008025 100.828248 
L 206.911389 101.651508 
L 200.483462 102.19553 
L 198.909534 102.544651 
L 198.875189 102.634156 
L 199.074483 102.738478 
L 200.039095 103.011585 
L 199.926539 103.089086 
L 198.216123 103.458746 
L 192.806436 104.493163 
L 188.193451 105.607002 
L 184.809674 106.708885 
L 183.057713 107.495132 
L 181.789343 108.338604 
L 181.438784 108.713332 
L 181.181817 109.278687 
L 181.185375 109.542808 
L 181.322988 109.884595 
L 181.568875 110.169865 
L 183.533071 111.092253 
L 184.865645 111.398787 
L 188.078372 111.799475 
L 191.554078 111.957787 
L 195.021363 111.962265 
L 209.843856 111.384302 
L 234.763928 110.175117 
L 253.342132 109.003115 
L 264.771648 108.908426 
L 264.771648 108.908426 
L 282.23454 108.816198 
L 282.23454 108.816198 
" style="fill:none;stroke:#000000;stroke-linecap:square;stroke-opacity:0.7;stroke-width:1.2;"/>
   </g>
   <g id="line2d_10">
    <path clip-path="url(#p873ce19965)" d="M 284.828587 69.49799 
L 274.091965 68.124969 
L 255.494054 65.96684 
L 245.29514 64.974444 
L 240.371235 64.682971 
L 234.121597 64.62445 
L 225.513982 64.552352 
L 222.339674 64.336523 
L 220.142032 63.944591 
L 217.62467 63.057888 
L 215.675425 62.862854 
L 213.303296 62.836526 
L 210.566657 62.940736 
L 206.430652 63.304282 
L 202.025639 63.973464 
L 198.404858 64.786733 
L 194.631332 65.949034 
L 191.375379 67.236557 
L 186.934324 69.26419 
L 185.797264 69.963065 
L 185.351804 70.516253 
L 185.390844 70.869508 
L 185.757439 71.186472 
L 186.388542 71.434963 
L 187.91415 71.743706 
L 190.10387 71.97962 
L 196.641291 72.361443 
L 204.290381 72.666576 
L 211.149239 72.717027 
L 220.663064 72.490152 
L 232.390014 71.996185 
L 242.732745 71.33722 
L 252.061729 70.707807 
L 273.997331 69.808025 
L 282.012653 69.489501 
L 282.012653 69.489501 
" style="fill:none;stroke:#000000;stroke-linecap:square;stroke-opacity:0.7;stroke-width:1.2;"/>
   </g>
   <g id="line2d_11">
    <path clip-path="url(#p873ce19965)" d="M 415.572774 225.639204 
L 408.544382 224.401664 
L 397.147133 222.622093 
L 387.638186 221.339562 
L 378.381192 220.327361 
L 371.013535 219.812885 
L 362.380179 219.45074 
L 354.338533 219.070572 
L 344.702184 218.416655 
L 341.102737 218.504079 
L 337.794035 218.784904 
L 334.503716 219.322896 
L 332.240981 219.906233 
L 330.00941 220.692414 
L 323.621419 223.277348 
L 316.154695 226.035947 
L 314.861118 226.74521 
L 314.462472 227.179799 
L 314.472091 227.375752 
L 314.667422 227.553889 
L 315.363839 227.764456 
L 316.563542 227.897989 
L 319.016931 227.9667 
L 335.57697 227.760632 
L 350.935665 227.506194 
L 362.665367 227.189289 
L 374.624101 226.604186 
L 382.192741 226.24767 
L 411.541464 225.493073 
L 411.541464 225.493073 
" style="fill:none;stroke:#000000;stroke-linecap:square;stroke-opacity:0.7;stroke-width:1.2;"/>
   </g>
   <g id="line2d_12">
    <path clip-path="url(#p873ce19965)" d="M 414.910441 186.509504 
L 395.443294 184.172521 
L 380.511163 182.677232 
L 375.123312 182.271967 
L 370.151849 182.145916 
L 364.776629 182.149363 
L 362.270317 181.998391 
L 360.170042 181.745663 
L 357.869512 181.281591 
L 355.718738 180.600627 
L 353.831185 179.948416 
L 352.631349 179.690072 
L 350.005923 179.447717 
L 345.692465 179.446363 
L 342.348277 179.635509 
L 337.412096 180.198968 
L 334.466939 180.713632 
L 330.752895 181.560077 
L 326.680059 182.703505 
L 321.801082 184.313661 
L 318.426818 185.675283 
L 316.583028 186.629136 
L 315.224322 187.631036 
L 314.800715 188.331194 
L 314.885699 188.625392 
L 315.241057 188.8476 
L 316.144136 188.977354 
L 317.567211 188.913878 
L 319.625219 188.662108 
L 326.189829 187.820075 
L 329.931704 187.599863 
L 332.797664 187.6165 
L 339.800041 188.16152 
L 344.74245 188.468639 
L 348.745155 188.529523 
L 358.280419 188.390898 
L 368.6658 188.036332 
L 393.798203 186.996952 
L 393.798203 186.996952 
L 411.525532 186.375751 
L 411.525532 186.375751 
" style="fill:none;stroke:#000000;stroke-linecap:square;stroke-opacity:0.7;stroke-width:1.2;"/>
   </g>
   <g id="line2d_13">
    <path clip-path="url(#p873ce19965)" d="M 415.219846 147.608115 
L 403.658112 146.017617 
L 386.97622 143.986564 
L 377.514664 143.052841 
L 372.339173 142.759054 
L 364.522898 142.642253 
L 361.482635 142.305229 
L 356.856791 141.469636 
L 352.923756 140.781561 
L 350.924098 140.602592 
L 346.469907 140.522522 
L 342.202403 140.694002 
L 338.997864 140.964621 
L 334.958246 141.511406 
L 331.174161 142.27676 
L 327.673327 143.217559 
L 323.202055 144.666265 
L 319.715897 145.954991 
L 318.047818 146.665649 
L 315.888236 147.842747 
L 315.24509 148.388829 
L 314.995944 148.825999 
L 315.073913 149.127797 
L 315.37147 149.323251 
L 315.888508 149.449844 
L 317.155546 149.503108 
L 319.202904 149.364293 
L 329.422636 148.327688 
L 333.465272 148.210988 
L 337.073708 148.353268 
L 347.206243 149.124226 
L 352.880723 149.211301 
L 363.398402 149.075878 
L 375.543952 148.616086 
L 387.382992 148.194926 
L 411.263947 147.493661 
L 411.263947 147.493661 
" style="fill:none;stroke:#000000;stroke-linecap:square;stroke-opacity:0.7;stroke-width:1.2;"/>
   </g>
   <g id="line2d_14">
    <path clip-path="url(#p873ce19965)" d="M 414.934803 108.538272 
L 407.397363 107.392095 
L 387.882923 104.692797 
L 375.787734 103.126414 
L 370.464 102.047493 
L 363.032413 100.442588 
L 360.234556 99.988186 
L 356.667442 99.654574 
L 354.085012 99.684947 
L 352.000489 99.931454 
L 349.179943 100.52886 
L 344.488436 101.568792 
L 339.10429 102.429504 
L 329.901188 103.770121 
L 326.501855 104.400701 
L 323.170516 105.287348 
L 321.926188 105.952675 
L 321.242634 106.421074 
L 319.409657 107.112631 
L 315.92574 108.332125 
L 314.19502 109.174485 
L 313.534836 109.747076 
L 313.419224 110.092787 
L 313.616221 110.460079 
L 313.826449 110.614495 
L 314.806908 110.997967 
L 316.892378 111.389259 
L 319.592908 111.654369 
L 325.625929 111.923183 
L 335.584229 112.075449 
L 347.691318 112.098016 
L 356.738678 111.888132 
L 367.184492 111.278855 
L 389.596042 109.652406 
L 412.350935 108.50678 
L 412.350935 108.50678 
" style="fill:none;stroke:#000000;stroke-linecap:square;stroke-opacity:0.7;stroke-width:1.2;"/>
   </g>
   <g id="line2d_15">
    <path clip-path="url(#p873ce19965)" d="M 414.502417 69.341991 
L 396.897487 65.748641 
L 376.4779 61.692885 
L 358.244481 57.263185 
L 357.610034 57.151303 
L 353.866944 56.714823 
L 351.121117 56.726941 
L 348.661335 56.986031 
L 343.909673 57.923542 
L 331.158719 60.919867 
L 326.563317 61.699823 
L 322.273986 62.147032 
L 321.670804 62.034751 
L 322.254811 61.847581 
L 322.849059 61.763813 
L 322.483109 61.893439 
L 316.222693 63.645601 
L 312.736788 65.061021 
L 311.70724 65.660899 
L 309.91419 67.795846 
L 309.905068 68.46319 
L 310.154638 69.132105 
L 310.741443 69.867433 
L 311.973065 70.7779 
L 313.530158 71.542916 
L 315.192123 72.144892 
L 317.672197 72.815695 
L 322.29859 73.669294 
L 328.842321 74.449154 
L 335.923922 75.015417 
L 343.395571 75.36752 
L 350.256248 75.424528 
L 355.730844 75.24579 
L 361.736072 74.815215 
L 369.134463 74.01289 
L 384.946121 72.049195 
L 413.759051 69.663629 
L 413.759051 69.663629 
" style="fill:none;stroke:#000000;stroke-linecap:square;stroke-opacity:0.7;stroke-width:1.2;"/>
   </g>
   <g id="line2d_16">
    <path clip-path="url(#p873ce19965)" d="M 544.782807 225.440144 
L 535.109983 223.710993 
L 505.765538 218.613708 
L 501.253793 217.44373 
L 493.485829 215.42128 
L 489.783851 214.633465 
L 486.188036 214.069302 
L 483.350641 213.830781 
L 481.133828 213.81043 
L 477.816764 214.085143 
L 474.248783 214.735927 
L 464.444787 216.824988 
L 455.390605 218.452577 
L 454.457414 218.860403 
L 454.515538 218.963704 
L 454.597371 219.09887 
L 454.282249 219.202212 
L 450.235364 220.108912 
L 447.641782 220.91255 
L 445.486997 221.856286 
L 443.716654 223.073211 
L 442.976711 223.967415 
L 442.804594 224.304235 
L 442.633563 224.899882 
L 442.687858 225.800234 
L 443.137323 226.723096 
L 443.99698 227.624221 
L 445.032908 228.339117 
L 446.033985 228.85762 
L 447.978649 229.598311 
L 450.09941 230.159779 
L 452.798279 230.640592 
L 456.527531 231.030031 
L 461.219759 231.251471 
L 467.595622 231.309233 
L 475.521122 231.194568 
L 484.59992 230.842567 
L 491.569575 230.345683 
L 500.082671 229.484133 
L 516.204248 227.690414 
L 543.501851 225.531788 
L 543.501851 225.531788 
" style="fill:none;stroke:#000000;stroke-linecap:square;stroke-opacity:0.7;stroke-width:1.2;"/>
   </g>
   <g id="line2d_17">
    <path clip-path="url(#p873ce19965)" d="M 545.065903 186.54965 
L 533.246898 184.904267 
L 520.720668 183.391506 
L 510.230357 182.348852 
L 505.181164 181.982713 
L 499.684416 181.812294 
L 494.706252 181.881493 
L 480.5094 182.229764 
L 476.516598 182.049304 
L 474.673272 181.735404 
L 472.320115 181.011847 
L 470.277996 180.855642 
L 466.803659 180.917998 
L 463.743464 181.118238 
L 457.370296 181.867468 
L 454.506457 182.382659 
L 451.908415 183.007784 
L 449.040894 184.097157 
L 447.260351 185.530428 
L 446.218967 185.905047 
L 442.89395 186.921824 
L 441.359044 187.628275 
L 440.910331 187.95039 
L 440.601484 188.313853 
L 440.541409 188.809051 
L 440.751435 189.134465 
L 441.409963 189.580957 
L 442.463239 189.991022 
L 444.496115 190.489476 
L 447.484004 190.954435 
L 451.769887 191.367793 
L 457.824231 191.674982 
L 464.503538 191.78248 
L 476.657445 191.652936 
L 484.212767 191.399037 
L 494.086513 190.766742 
L 502.99893 189.939965 
L 517.851422 188.488364 
L 543.12559 186.384204 
L 543.12559 186.384204 
" style="fill:none;stroke:#000000;stroke-linecap:square;stroke-opacity:0.7;stroke-width:1.2;"/>
   </g>
   <g id="line2d_18">
    <path clip-path="url(#p873ce19965)" d="M 544.909508 147.466321 
L 541.121788 146.938375 
L 529.088105 145.426528 
L 516.635221 144.109128 
L 507.730349 143.383342 
L 502.842653 143.148867 
L 498.642017 143.149662 
L 490.208364 143.520199 
L 485.996679 143.687823 
L 482.476154 143.684832 
L 480.833976 143.516058 
L 479.979807 142.738594 
L 480.159401 142.349012 
L 480.17815 141.872275 
L 480.018897 141.717925 
L 479.534641 141.516005 
L 477.564059 141.253149 
L 474.400389 141.2119 
L 471.333761 141.35002 
L 467.323851 141.729378 
L 462.596449 142.473931 
L 460.569882 142.902218 
L 456.154311 144.077005 
L 452.77385 145.185208 
L 448.607772 146.756685 
L 445.512114 148.134822 
L 444.192286 148.898981 
L 443.548322 149.524945 
L 443.555579 149.825439 
L 443.942289 150.040411 
L 444.888705 150.156509 
L 446.942631 150.104042 
L 451.194824 149.750222 
L 459.576555 149.213456 
L 463.086764 149.230907 
L 466.423263 149.454431 
L 477.164722 150.637984 
L 481.928054 150.747058 
L 487.595367 150.65297 
L 500.582063 149.982995 
L 525.423739 148.344299 
L 525.423739 148.344299 
L 542.158974 147.326834 
L 542.158974 147.326834 
" style="fill:none;stroke:#000000;stroke-linecap:square;stroke-opacity:0.7;stroke-width:1.2;"/>
   </g>
   <g id="line2d_19">
    <path clip-path="url(#p873ce19965)" d="M 545.335751 108.441469 
L 518.682033 103.264193 
L 504.883656 100.711047 
L 493.746987 98.02024 
L 491.345723 97.652302 
L 487.076018 97.222729 
L 484.200843 97.110852 
L 478.854976 97.509894 
L 476.290923 97.915277 
L 467.811249 98.545528 
L 466.292966 98.844142 
L 464.309278 99.348952 
L 460.73781 100.548978 
L 444.246124 107.062495 
L 443.505605 107.590779 
L 443.073446 108.186909 
L 443.07087 108.63455 
L 443.262432 108.957585 
L 444.174789 109.589115 
L 445.147354 109.977732 
L 448.110867 110.72106 
L 458.317851 112.020286 
L 468.604814 112.958284 
L 477.913115 113.567279 
L 483.359825 113.65335 
L 487.09649 113.584829 
L 499.198452 112.805203 
L 509.928639 111.70515 
L 527.090179 109.925249 
L 527.090179 109.925249 
L 542.895936 108.298904 
L 542.895936 108.298904 
" style="fill:none;stroke:#000000;stroke-linecap:square;stroke-opacity:0.7;stroke-width:1.2;"/>
   </g>
   <g id="line2d_20">
    <path clip-path="url(#p873ce19965)" d="M 544.970587 69.553392 
L 533.752117 68.17117 
L 515.473057 66.156872 
L 505.390709 65.2605 
L 500.630991 65.03386 
L 491.468178 64.798734 
L 487.896912 64.471327 
L 484.330257 63.882813 
L 480.15022 63.100798 
L 477.615014 62.960964 
L 473.734377 63.018506 
L 468.114622 63.421842 
L 464.078827 63.945813 
L 461.148661 64.498491 
L 458.412025 65.226889 
L 456.188401 66.107702 
L 451.573268 68.451371 
L 447.424281 70.103324 
L 446.466833 70.677279 
L 446.204947 71.020613 
L 446.282996 71.265643 
L 446.783956 71.508676 
L 447.773939 71.68917 
L 450.607811 71.858731 
L 458.406979 71.932316 
L 474.761453 72.021137 
L 486.90438 71.787923 
L 499.982322 71.220112 
L 515.315485 70.435426 
L 541.884916 69.60767 
L 541.884916 69.60767 
" style="fill:none;stroke:#000000;stroke-linecap:square;stroke-opacity:0.7;stroke-width:1.2;"/>
   </g>
   <g id="line2d_21">
    <path clip-path="url(#p873ce19965)" d="M 675.307388 225.639599 
L 660.967627 223.698569 
L 649.978197 222.382104 
L 638.837326 221.273903 
L 633.629991 220.945201 
L 630.273287 220.952709 
L 626.00913 221.035025 
L 624.108283 220.950328 
L 620.846502 220.589177 
L 617.404887 219.937971 
L 612.860768 219.00748 
L 611.003798 218.800798 
L 608.302613 218.674055 
L 603.560036 218.730795 
L 599.389848 218.989978 
L 594.91512 219.502123 
L 591.79833 220.036835 
L 588.339739 220.840822 
L 585.04693 221.82964 
L 581.37099 223.160564 
L 578.678173 224.290944 
L 576.629422 225.366651 
L 575.590772 226.228249 
L 575.401258 226.757998 
L 575.585967 227.047014 
L 576.085089 227.265161 
L 577.186018 227.389134 
L 579.443868 227.298969 
L 586.85011 226.730398 
L 591.046886 226.702592 
L 595.654191 226.992927 
L 603.346859 227.613155 
L 608.348114 227.741628 
L 615.999756 227.673471 
L 626.892357 227.312195 
L 659.613889 225.859519 
L 671.522475 225.400794 
L 671.522475 225.400794 
" style="fill:none;stroke:#000000;stroke-linecap:square;stroke-opacity:0.7;stroke-width:1.2;"/>
   </g>
   <g id="line2d_22">
    <path clip-path="url(#p873ce19965)" d="M 674.655631 186.289352 
L 674.250625 186.186515 
L 656.903865 182.001049 
L 640.298257 178.252388 
L 636.74207 177.489465 
L 624.937945 175.316211 
L 621.901913 174.868363 
L 614.730458 174.086877 
L 610.486692 173.923059 
L 609.742927 173.923853 
L 604.609741 174.169676 
L 601.379559 174.526035 
L 594.412631 175.746811 
L 589.092983 176.75684 
L 586.353682 177.104656 
L 582.718369 177.339211 
L 581.351425 177.472434 
L 580.534158 177.861714 
L 577.072398 179.087129 
L 574.624499 179.953271 
L 572.317347 180.972474 
L 571.225711 181.624331 
L 569.960592 182.822693 
L 569.620061 183.545454 
L 569.953143 185.229121 
L 570.784356 186.127168 
L 571.333606 186.538358 
L 573.278458 187.575644 
L 575.373299 188.345896 
L 576.253662 188.609892 
L 579.753245 189.449375 
L 584.74669 190.310087 
L 592.723506 191.270417 
L 598.91334 191.773226 
L 606.095028 192.082614 
L 611.62583 192.082507 
L 616.002279 191.920363 
L 622.756408 191.410265 
L 629.413696 190.674483 
L 643.145062 188.963085 
L 658.249563 187.839843 
L 658.249563 187.839843 
L 673.598478 186.729429 
L 673.598478 186.729429 
" style="fill:none;stroke:#000000;stroke-linecap:square;stroke-opacity:0.7;stroke-width:1.2;"/>
   </g>
   <g id="line2d_23">
    <path clip-path="url(#p873ce19965)" d="M 675.490909 147.693242 
L 661.593962 145.670416 
L 650.054885 144.193149 
L 639.347374 143.070791 
L 633.811783 142.712935 
L 630.789199 142.737309 
L 627.145525 142.888422 
L 625.481613 142.816921 
L 622.470634 142.431449 
L 618.173334 141.53738 
L 615.192469 140.973544 
L 612.211323 140.666219 
L 608.449468 140.552093 
L 604.33824 140.623502 
L 598.630024 140.999738 
L 593.867559 141.605966 
L 589.781455 142.396737 
L 586.081028 143.35046 
L 581.530802 144.789022 
L 578.102168 146.085634 
L 576.331522 146.935121 
L 575.729595 147.301116 
L 574.833809 148.137436 
L 574.763365 148.692858 
L 575.028223 148.981623 
L 575.67432 149.232448 
L 576.712858 149.359128 
L 578.785272 149.291909 
L 582.740893 148.814207 
L 587.108429 148.279843 
L 591.138217 148.005969 
L 593.946972 148.002131 
L 598.360821 148.333493 
L 605.181103 149.063297 
L 609.920426 149.259809 
L 616.886982 149.276117 
L 628.266813 148.997093 
L 671.181158 147.358012 
L 671.181158 147.358012 
" style="fill:none;stroke:#000000;stroke-linecap:square;stroke-opacity:0.7;stroke-width:1.2;"/>
   </g>
   <g id="line2d_24">
    <path clip-path="url(#p873ce19965)" d="M 674.746911 108.398004 
L 674.433037 108.338809 
L 655.686771 105.010489 
L 636.307656 101.66272 
L 630.953324 100.290683 
L 621.689008 97.755867 
L 619.732665 97.302562 
L 615.69842 96.591541 
L 612.784179 96.383273 
L 610.64225 96.456773 
L 608.573308 96.71723 
L 605.795409 97.298475 
L 594.550614 99.962259 
L 585.968595 101.364854 
L 588.045 101.185841 
L 585.443113 101.695868 
L 580.805073 102.695799 
L 576.773755 103.858218 
L 573.558536 105.319714 
L 572.761924 105.927674 
L 572.069315 107.353548 
L 572.233068 107.857344 
L 572.555929 108.28169 
L 573.558472 109.001606 
L 574.442133 109.408012 
L 576.506655 110.042312 
L 578.112702 110.371939 
L 582.82922 110.924439 
L 589.320564 111.210962 
L 598.632397 111.31934 
L 610.009329 111.234355 
L 619.434453 110.86149 
L 623.90296 110.563542 
L 641.845156 109.142489 
L 650.815738 109.052099 
L 672.4638 108.973783 
L 672.4638 108.973783 
" style="fill:none;stroke:#000000;stroke-linecap:square;stroke-opacity:0.7;stroke-width:1.2;"/>
   </g>
   <g id="line2d_25">
    <path clip-path="url(#p873ce19965)" d="M 674.78894 69.426419 
L 665.566139 68.206369 
L 647.580808 66.09056 
L 627.924671 63.909152 
L 622.427477 63.246177 
L 617.622627 62.874424 
L 612.684995 62.768655 
L 609.589622 62.925356 
L 606.822515 63.322394 
L 603.227509 63.948841 
L 595.866726 64.791896 
L 589.130137 65.647924 
L 586.4589 66.127963 
L 585.858221 66.395121 
L 586.010841 66.427422 
L 588.353693 66.319455 
L 589.266183 66.193065 
L 585.619946 66.729202 
L 581.901448 67.555846 
L 578.8258 68.526244 
L 577.422368 69.16408 
L 576.38364 69.907156 
L 576.056721 70.42773 
L 576.087989 70.928806 
L 576.624105 71.510026 
L 578.369869 72.250746 
L 579.785608 72.587537 
L 582.912276 73.027034 
L 586.726242 73.263883 
L 590.493432 73.312099 
L 599.558314 73.088414 
L 617.248942 72.384282 
L 630.228295 71.504147 
L 643.39839 70.515151 
L 662.45018 69.943178 
L 672.544461 69.657326 
L 672.544461 69.657326 
" style="fill:none;stroke:#000000;stroke-linecap:square;stroke-opacity:0.7;stroke-width:1.2;"/>
   </g>
  </g>
 </g>
 <defs>
  <clipPath id="p873ce19965">
   <rect height="262.08" width="694.08" x="12.96" y="12.96"/>
  </clipPath>
 </defs>
</svg>
