<?xml version="1.0" encoding="utf-8" standalone="no"?>
<!DOCTYPE svg PUBLIC "-//W3C//DTD SVG 1.1//EN"
  "http://www.w3.org/Graphics/SVG/1.1/DTD/svg11.dtd">
<!-- Created with matplotlib (https://matplotlib.org/) -->
<svg height="288pt" version="1.1" viewBox="0 0 720 288" width="720pt" xmlns="http://www.w3.org/2000/svg" xmlns:xlink="http://www.w3.org/1999/xlink">
 <metadata>
  <rdf:RDF xmlns:cc="http://creativecommons.org/ns#" xmlns:dc="http://purl.org/dc/elements/1.1/" xmlns:rdf="http://www.w3.org/1999/02/22-rdf-syntax-ns#">
   <cc:Work>
    <dc:type rdf:resource="http://purl.org/dc/dcmitype/StillImage"/>
    <dc:date>2020-12-23T06:14:46.747048</dc:date>
    <dc:format>image/svg+xml</dc:format>
    <dc:creator>
     <cc:Agent>
      <dc:title>Matplotlib v3.3.2, https://matplotlib.org/</dc:title>
     </cc:Agent>
    </dc:creator>
   </cc:Work>
  </rdf:RDF>
 </metadata>
 <defs>
  <style type="text/css">*{stroke-linecap:butt;stroke-linejoin:round;}</style>
 </defs>
 <g id="figure_1">
  <g id="patch_1">
   <path d="M 0 288 
L 720 288 
L 720 0 
L 0 0 
z
" style="fill:#ffffff;"/>
  </g>
  <g id="axes_1">
   <g id="line2d_1">
    <path clip-path="url(#pa2d83ef0c9)" d="M 146.301387 224.829967 
L 142.643424 224.753074 
L 135.914107 224.317261 
L 129.619176 223.68079 
L 126.603885 223.308816 
L 115.920735 221.618978 
L 111.852479 220.981727 
L 110.545636 220.869679 
L 105.735967 220.895118 
L 98.831234 221.595221 
L 93.30786 221.164977 
L 87.793851 220.664664 
L 83.043597 220.413441 
L 75.72085 220.406472 
L 70.324512 220.804443 
L 66.707192 221.341175 
L 64.155918 221.875825 
L 60.030777 223.020247 
L 57.053653 224.084239 
L 54.780018 225.155112 
L 53.496311 226.051223 
L 52.990868 226.641707 
L 52.800156 227.353885 
L 53.014567 227.841687 
L 53.409147 228.175031 
L 54.375564 228.563523 
L 55.553707 228.769393 
L 57.4739 228.851709 
L 60.399999 228.72593 
L 67.376877 228.27193 
L 71.361533 228.237365 
L 74.475159 228.427815 
L 78.551974 229.099818 
L 84.917841 230.610743 
L 87.963496 230.810901 
L 92.27484 230.754066 
L 92.729546 230.735179 
L 107.867677 229.473478 
L 145.416836 225.3219 
L 145.416836 225.3219 
" style="fill:none;stroke:#000000;stroke-linecap:square;stroke-opacity:0.7;stroke-width:1.2;"/>
   </g>
   <g id="line2d_2">
    <path clip-path="url(#pa2d83ef0c9)" d="M 146.044109 185.081325 
L 146.002476 185.074161 
L 140.036556 183.831387 
L 136.637054 182.974982 
L 123.878823 179.502254 
L 121.480032 179.12853 
L 116.975324 178.842347 
L 112.583226 178.879851 
L 104.788876 179.282716 
L 94.792269 179.847225 
L 91.453724 179.86319 
L 85.696643 179.299825 
L 84.446886 179.01026 
L 82.087512 178.177403 
L 78.684759 175.697323 
L 77.910354 175.094562 
L 77.227727 174.913744 
L 76.190325 174.989569 
L 71.036936 176.19349 
L 69.919233 176.104099 
L 70.082279 174.962552 
L 70.002901 174.807206 
L 68.866501 174.573015 
L 67.332972 174.73018 
L 64.182081 175.365581 
L 60.903701 176.228591 
L 55.02498 178.164754 
L 48.82662 180.947172 
L 46.980611 182.060674 
L 44.509091 188.602296 
L 45.699696 189.380477 
L 47.280528 190.062995 
L 49.244483 190.669929 
L 54.856828 191.903578 
L 59.796748 192.775322 
L 66.705843 193.637776 
L 70.10026 193.900233 
L 73.759017 194.072658 
L 82.828604 194.068207 
L 90.15896 193.703005 
L 95.412178 193.293809 
L 106.232435 192.180127 
L 114.943431 191.10103 
L 129.014417 189.07091 
L 147.287372 186.10686 
L 147.287372 186.10686 
" style="fill:none;stroke:#000000;stroke-linecap:square;stroke-opacity:0.7;stroke-width:1.2;"/>
   </g>
   <g id="line2d_3">
    <path clip-path="url(#pa2d83ef0c9)" d="M 146.526273 145.373179 
L 146.463777 145.365297 
L 139.351389 144.346476 
L 131.504217 142.974182 
L 124.470588 141.507771 
L 119.73969 140.426238 
L 114.785977 139.643056 
L 112.274243 139.486933 
L 108.881886 139.439121 
L 93.164644 139.563215 
L 88.561189 139.171006 
L 82.647302 138.561182 
L 80.957999 138.561777 
L 77.30161 138.876767 
L 73.132248 139.546237 
L 69.522313 140.280764 
L 65.159588 141.37467 
L 66.101743 141.337755 
L 66.802199 141.036333 
L 66.529952 140.988313 
L 65.926694 141.035529 
L 62.658978 141.610473 
L 59.295216 142.417688 
L 55.939532 143.411287 
L 53.69937 144.211592 
L 52.024167 144.916623 
L 50.194548 145.858368 
L 48.7888 146.82573 
L 47.553902 148.419826 
L 47.47364 149.02603 
L 47.72884 149.779831 
L 48.356735 150.448953 
L 49.210672 150.981172 
L 50.391667 151.471202 
L 52.722267 152.069556 
L 55.400377 152.446933 
L 58.995253 152.665231 
L 63.396454 152.686995 
L 75.954673 152.357877 
L 81.483159 152.153234 
L 93.620785 151.373518 
L 101.362045 150.571842 
L 113.014465 149.032434 
L 122.624561 147.76542 
L 126.739638 147.497184 
L 146.082336 146.714453 
L 146.082336 146.714453 
" style="fill:none;stroke:#000000;stroke-linecap:square;stroke-opacity:0.7;stroke-width:1.2;"/>
   </g>
   <g id="line2d_4">
    <path clip-path="url(#pa2d83ef0c9)" d="M 145.764734 106.413893 
L 143.3945 106.700889 
L 139.941882 107.044331 
L 133.371385 107.407406 
L 129.636672 107.394277 
L 126.880944 107.243803 
L 123.889481 106.895793 
L 122.853017 106.718228 
L 119.028453 105.785045 
L 115.005462 104.841111 
L 112.713156 104.558555 
L 109.642797 104.38317 
L 105.532303 104.353499 
L 96.684005 104.603528 
L 90.715312 104.72756 
L 89.056898 104.680726 
L 87.065725 104.397235 
L 84.647235 103.530403 
L 82.44926 103.387988 
L 77.340847 103.486749 
L 72.354822 103.801008 
L 68.280745 104.170234 
L 63.069202 104.822927 
L 59.578933 105.53579 
L 59.004891 105.825567 
L 59.084069 106.006972 
L 59.521616 106.237903 
L 59.473585 106.291596 
L 58.75949 106.516609 
L 53.695144 107.820734 
L 51.657816 108.553493 
L 49.950955 109.528478 
L 49.554086 110.016093 
L 49.473671 110.367541 
L 49.558268 110.68068 
L 49.796201 110.988744 
L 50.38783 111.406549 
L 51.488935 111.88224 
L 53.638796 112.477169 
L 56.798974 113.05669 
L 61.520635 113.647541 
L 68.658178 114.277889 
L 82.3238 115.28182 
L 84.073334 115.277084 
L 90.767188 114.959491 
L 95.180688 114.561912 
L 103.578155 113.53229 
L 114.056451 111.92922 
L 132.533511 108.956894 
L 146.695588 106.88438 
L 146.695588 106.88438 
" style="fill:none;stroke:#000000;stroke-linecap:square;stroke-opacity:0.7;stroke-width:1.2;"/>
   </g>
   <g id="line2d_5">
    <path clip-path="url(#pa2d83ef0c9)" d="M 146.091333 66.263376 
L 142.039483 66.140939 
L 134.397002 65.643576 
L 126.932706 64.890068 
L 124.243108 64.551553 
L 111.109008 62.649417 
L 106.987049 62.480048 
L 102.366451 62.516176 
L 93.691671 62.666318 
L 90.157628 61.93516 
L 84.816264 61.510507 
L 78.86444 61.41542 
L 74.025247 61.627965 
L 71.258955 61.908208 
L 68.853011 62.280612 
L 65.39419 63.092407 
L 62.803633 63.949939 
L 59.280922 65.429062 
L 57.095228 66.55242 
L 55.942816 67.296384 
L 55.072568 68.110823 
L 54.830425 68.624825 
L 54.877717 68.976175 
L 55.080557 69.231934 
L 55.67367 69.550787 
L 56.930415 69.840141 
L 58.962487 70.02517 
L 66.089371 70.167561 
L 70.870199 70.329261 
L 75.25251 70.707975 
L 82.728639 71.576952 
L 87.98317 71.607283 
L 91.889361 71.444527 
L 106.292338 70.229868 
L 125.933915 68.232528 
L 142.643594 67.350473 
L 145.168115 67.223214 
L 145.168115 67.223214 
" style="fill:none;stroke:#000000;stroke-linecap:square;stroke-opacity:0.7;stroke-width:1.2;"/>
   </g>
   <g id="line2d_6">
    <path clip-path="url(#pa2d83ef0c9)" d="M 276.936205 224.903254 
L 273.960009 225.223248 
L 268.850045 225.466997 
L 263.748642 225.375815 
L 259.160347 225.017727 
L 257.771352 224.855352 
L 252.160028 223.925854 
L 246.620172 222.791607 
L 243.637246 222.405766 
L 239.770136 222.178103 
L 234.45827 222.119726 
L 225.814237 222.061834 
L 225.485192 221.978818 
L 224.857202 221.556805 
L 223.982379 221.292914 
L 220.544735 220.892779 
L 216.068483 220.71123 
L 211.150979 220.735561 
L 207.472725 220.899632 
L 202.280911 221.390758 
L 198.422116 222.019832 
L 196.579693 222.426379 
L 193.672164 223.244922 
L 190.877916 224.268684 
L 187.44461 225.843912 
L 185.135294 227.179637 
L 184.297619 227.875329 
L 183.884704 228.524333 
L 183.931457 229.054039 
L 184.114379 229.297337 
L 184.767668 229.715272 
L 186.400539 230.204976 
L 189.441272 230.639192 
L 194.565612 231.003034 
L 205.263245 231.670966 
L 213.813032 232.415246 
L 217.078619 232.414018 
L 224.341057 231.988514 
L 232.289094 231.173344 
L 236.993688 230.583535 
L 250.765209 228.592661 
L 257.10669 227.717485 
L 269.148276 226.500322 
L 278.041279 225.639808 
L 278.041279 225.639808 
" style="fill:none;stroke:#000000;stroke-linecap:square;stroke-opacity:0.7;stroke-width:1.2;"/>
   </g>
   <g id="line2d_7">
    <path clip-path="url(#pa2d83ef0c9)" d="M 278.698141 185.246879 
L 264.71015 183.834376 
L 256.099381 182.704746 
L 249.920813 181.677973 
L 246.11997 181.08523 
L 243.14013 180.818108 
L 238.988714 180.66753 
L 236.082501 180.665163 
L 227.407198 180.943203 
L 223.412148 181.091627 
L 219.349809 180.997855 
L 217.149234 180.644335 
L 213.942001 180.120913 
L 210.875778 179.928697 
L 207.226377 179.947012 
L 204.322326 180.099973 
L 199.631595 180.620857 
L 197.277423 181.098565 
L 196.066485 181.498751 
L 195.338142 181.943963 
L 195.142838 182.329378 
L 195.300799 182.792037 
L 195.607452 183.432142 
L 195.478628 183.693335 
L 195.06153 183.983154 
L 193.946459 184.435297 
L 187.42673 186.656074 
L 186.251942 187.265212 
L 185.782848 187.598571 
L 185.392538 188.012413 
L 185.243533 188.376275 
L 185.429578 188.948238 
L 185.801533 189.275204 
L 186.907027 189.808447 
L 188.85436 190.359074 
L 192.444777 190.988864 
L 198.186372 191.63443 
L 207.23905 192.559293 
L 214.838925 193.640876 
L 219.37418 193.696365 
L 222.546928 193.572884 
L 232.34362 192.709838 
L 240.645903 191.63423 
L 255.778328 189.284004 
L 278.485613 185.832575 
L 278.485613 185.832575 
" style="fill:none;stroke:#000000;stroke-linecap:square;stroke-opacity:0.7;stroke-width:1.2;"/>
   </g>
   <g id="line2d_8">
    <path clip-path="url(#pa2d83ef0c9)" d="M 277.914522 145.504957 
L 274.668376 145.442468 
L 268.277651 145.058168 
L 261.990446 144.444919 
L 256.223682 143.698586 
L 251.449823 142.936437 
L 244.035294 141.731464 
L 239.739948 141.3612 
L 234.973297 141.17019 
L 226.43279 141.114956 
L 222.068604 141.073111 
L 209.43825 140.29177 
L 206.034687 140.327641 
L 204.700125 140.394553 
L 201.39193 140.824377 
L 200.372507 141.130629 
L 199.498078 141.588758 
L 198.008086 142.832851 
L 196.745688 143.476814 
L 194.397551 144.259913 
L 187.692722 146.163733 
L 185.271877 147.15261 
L 184.589326 147.698513 
L 184.50111 147.924818 
L 184.521039 148.071045 
L 184.692619 148.294452 
L 185.203208 148.568901 
L 186.780437 148.951593 
L 189.207271 149.230489 
L 193.44075 149.445145 
L 200.718794 149.522186 
L 208.199419 149.413765 
L 214.093609 149.195497 
L 227.044188 148.46402 
L 237.717649 147.598091 
L 248.798621 146.606207 
L 255.432811 146.32311 
L 264.57832 146.585012 
L 276.609732 147.141641 
L 276.609732 147.141641 
" style="fill:none;stroke:#000000;stroke-linecap:square;stroke-opacity:0.7;stroke-width:1.2;"/>
   </g>
   <g id="line2d_9">
    <path clip-path="url(#pa2d83ef0c9)" d="M 278.8218 105.385024 
L 278.808132 105.380404 
L 273.190638 103.724682 
L 265.65801 101.765073 
L 255.572473 99.406132 
L 250.947771 98.470309 
L 243.482814 97.384122 
L 239.048025 97.018715 
L 233.590812 96.776165 
L 215.860503 96.502046 
L 212.336971 96.616635 
L 208.617276 96.983314 
L 206.158476 97.408895 
L 203.821562 97.97806 
L 201.254352 98.874875 
L 200.347502 99.354885 
L 199.919727 99.821176 
L 200.279824 100.103411 
L 200.637772 100.127081 
L 197.829338 100.48304 
L 193.448936 101.316407 
L 190.813854 101.916011 
L 185.505652 103.369209 
L 181.38059 104.916359 
L 179.459399 106.239629 
L 179.335712 106.615733 
L 179.632797 107.084356 
L 180.616179 107.486482 
L 181.78917 107.697695 
L 184.654679 107.864473 
L 188.493053 107.758443 
L 193.177663 107.371391 
L 201.203667 106.624635 
L 205.461195 106.446421 
L 231.970541 105.839375 
L 248.70583 105.235113 
L 257.821673 105.602209 
L 272.091702 106.951873 
L 275.920403 107.344688 
L 275.920403 107.344688 
" style="fill:none;stroke:#000000;stroke-linecap:square;stroke-opacity:0.7;stroke-width:1.2;"/>
   </g>
   <g id="line2d_10">
    <path clip-path="url(#pa2d83ef0c9)" d="M 277.751522 66.154893 
L 273.336917 65.91178 
L 265.61467 65.273675 
L 255.776402 64.210729 
L 247.737195 63.107288 
L 243.06105 62.515967 
L 239.346086 62.317529 
L 235.553504 62.289342 
L 224.422145 62.494371 
L 221.17802 62.044803 
L 219.447839 61.924946 
L 213.758836 61.808078 
L 210.750447 61.881575 
L 206.301761 62.172945 
L 201.64304 62.775723 
L 199.302213 63.230339 
L 196.333152 63.990438 
L 193.686466 64.863346 
L 190.281799 66.299734 
L 188.396473 67.359285 
L 187.451052 68.115391 
L 187.043318 68.635503 
L 186.891445 69.027649 
L 186.958699 69.595688 
L 187.448386 70.137213 
L 188.123651 70.487441 
L 189.626884 70.873022 
L 191.162872 71.047258 
L 201.709918 71.690116 
L 204.128959 72.012025 
L 211.497825 73.1556 
L 214.956817 73.411798 
L 219.445437 73.387455 
L 225.025566 73.049503 
L 231.734196 72.412349 
L 237.357287 71.753251 
L 254.71721 69.409033 
L 268.685622 68.108032 
L 268.685622 68.108032 
L 277.665945 67.324959 
L 277.665945 67.324959 
" style="fill:none;stroke:#000000;stroke-linecap:square;stroke-opacity:0.7;stroke-width:1.2;"/>
   </g>
   <g id="line2d_11">
    <path clip-path="url(#pa2d83ef0c9)" d="M 411.09951 224.463469 
L 411.080887 224.455291 
L 397.150666 218.420427 
L 395.655589 217.828155 
L 389.911559 215.937752 
L 388.415589 215.607759 
L 386.775952 215.343431 
L 378.780348 215.147247 
L 373.590196 215.484774 
L 366.852033 216.00541 
L 361.001594 216.140064 
L 360.835276 216.134061 
L 356.614656 215.705191 
L 356.067278 215.604501 
L 352.985842 214.804994 
L 350.512529 213.839278 
L 346.783297 211.759981 
L 344.230442 210.214529 
L 343.120618 209.915124 
L 342.438268 209.908092 
L 340.563798 210.291145 
L 338.6528 210.88283 
L 336.428493 211.271495 
L 335.942787 210.98056 
L 335.119462 210.918709 
L 331.154852 211.540714 
L 328.243264 212.242065 
L 320.184504 214.727927 
L 315.539974 216.570498 
L 312.581826 218.004207 
L 311.244944 218.766863 
L 308.633616 220.743398 
L 307.660926 222.379577 
L 308.114179 223.642466 
L 310.896458 224.845418 
L 311.652541 224.996124 
L 325.00419 226.960409 
L 326.696339 227.200105 
L 334.253953 227.947177 
L 339.809813 228.199949 
L 349.652822 228.201441 
L 360.216027 227.793209 
L 372.723953 227.011885 
L 386.289242 226.149684 
L 398.886368 225.859357 
L 409.609231 225.672193 
L 409.609231 225.672193 
" style="fill:none;stroke:#000000;stroke-linecap:square;stroke-opacity:0.7;stroke-width:1.2;"/>
   </g>
   <g id="line2d_12">
    <path clip-path="url(#pa2d83ef0c9)" d="M 409.920984 185.182025 
L 408.458242 185.204416 
L 405.473812 185.145594 
L 398.888609 184.720631 
L 391.534651 183.930449 
L 387.62191 183.394221 
L 374.054034 181.210887 
L 371.853682 181.076805 
L 368.846669 181.034199 
L 359.098189 181.253726 
L 348.364589 180.517224 
L 341.287091 180.508657 
L 336.86773 180.790075 
L 334.191303 181.102695 
L 329.813824 181.889842 
L 325.545409 183.006729 
L 322.158634 184.166223 
L 319.669948 185.291253 
L 318.200198 186.278824 
L 317.581697 187.087481 
L 317.518592 187.629211 
L 317.605374 187.884079 
L 317.879964 188.241332 
L 318.653872 188.730235 
L 319.935632 189.121522 
L 321.650508 189.313209 
L 323.239715 189.283451 
L 326.95502 188.831064 
L 329.740207 188.550878 
L 331.830024 188.505235 
L 333.528336 188.57814 
L 335.60382 188.788178 
L 340.303098 189.622333 
L 344.717479 190.473825 
L 347.441559 190.79085 
L 351.28565 190.904067 
L 354.433128 190.805094 
L 358.427039 190.550773 
L 368.402234 189.614018 
L 389.381353 187.328092 
L 407.278666 186.245508 
L 409.295934 186.128655 
L 409.295934 186.128655 
" style="fill:none;stroke:#000000;stroke-linecap:square;stroke-opacity:0.7;stroke-width:1.2;"/>
   </g>
   <g id="line2d_13">
    <path clip-path="url(#pa2d83ef0c9)" d="M 410.213486 145.510727 
L 396.322839 144.344595 
L 387.984299 143.354247 
L 374.52367 141.484747 
L 369.586646 141.253797 
L 364.145354 141.281678 
L 357.266909 141.359954 
L 348.88702 140.718776 
L 344.504155 140.613833 
L 339.339075 140.705585 
L 335.273494 140.998467 
L 332.218436 141.40913 
L 328.729116 142.185726 
L 326.332901 142.991363 
L 323.827086 144.124833 
L 321.794761 145.263111 
L 320.244306 146.310643 
L 319.092343 147.404153 
L 318.800761 147.939067 
L 318.758335 148.312384 
L 318.912231 148.68649 
L 319.34453 149.035953 
L 320.307816 149.374291 
L 322.012675 149.621917 
L 326.14784 149.786252 
L 333.874801 150.00802 
L 338.987898 150.432732 
L 344.97108 150.976325 
L 348.331379 151.034256 
L 355.75441 150.732665 
L 364.651449 150.007948 
L 373.361544 149.076114 
L 386.186635 147.647978 
L 394.285853 147.214611 
L 409.113978 146.6363 
L 409.113978 146.6363 
" style="fill:none;stroke:#000000;stroke-linecap:square;stroke-opacity:0.7;stroke-width:1.2;"/>
   </g>
   <g id="line2d_14">
    <path clip-path="url(#pa2d83ef0c9)" d="M 410.047816 105.999769 
L 404.04807 105.767616 
L 396.693016 105.231213 
L 392.129954 104.72752 
L 387.005768 103.938788 
L 380.177105 102.717674 
L 376.816511 102.45776 
L 372.20603 102.40952 
L 365.728431 102.629561 
L 355.997214 103.039785 
L 351.222105 102.95424 
L 348.68521 102.647065 
L 343.589558 101.549729 
L 339.972826 101.70006 
L 336.401525 102.16877 
L 332.70752 102.797757 
L 327.43805 103.845014 
L 327.828939 103.678305 
L 329.018437 103.136317 
L 329.363582 102.736856 
L 329.173789 102.604463 
L 328.315427 102.516555 
L 326.800223 102.606654 
L 323.753447 103.064976 
L 320.542361 103.801276 
L 317.701599 104.69752 
L 316.255011 105.288691 
L 314.642239 106.145218 
L 313.697103 106.847475 
L 312.960599 107.714505 
L 312.684675 108.543814 
L 312.71433 109.010881 
L 312.834754 109.379362 
L 313.336832 110.10444 
L 314.3919 110.929479 
L 315.646172 111.565931 
L 318.666743 112.522353 
L 321.390502 113.024272 
L 325.146411 113.38079 
L 328.818373 113.476917 
L 336.324923 113.287906 
L 343.631818 112.945898 
L 355.501526 112.141293 
L 364.37213 111.220796 
L 375.360077 109.764214 
L 385.64713 108.325398 
L 391.239606 107.930622 
L 404.689634 107.488092 
L 404.689634 107.488092 
L 410.207442 107.326102 
L 410.207442 107.326102 
" style="fill:none;stroke:#000000;stroke-linecap:square;stroke-opacity:0.7;stroke-width:1.2;"/>
   </g>
   <g id="line2d_15">
    <path clip-path="url(#pa2d83ef0c9)" d="M 410.165104 66.393248 
L 406.048825 66.255119 
L 399.013275 65.784279 
L 391.770933 65.061146 
L 385.502142 64.23502 
L 377.120937 63.030299 
L 373.246284 62.800054 
L 368.331925 62.792744 
L 360.60145 63.079022 
L 352.536537 63.386323 
L 349.979638 63.263047 
L 345.026995 62.438571 
L 341.173291 62.202804 
L 336.546822 62.184507 
L 332.070341 62.411082 
L 329.743849 62.660475 
L 327.539624 63.041212 
L 325.196252 63.805645 
L 324.562355 64.207146 
L 323.986414 64.940163 
L 323.505912 65.883585 
L 323.220967 66.10805 
L 322.120756 66.574104 
L 318.769813 67.680351 
L 318.033011 68.075451 
L 317.536129 68.531464 
L 317.39478 69.002215 
L 317.532132 69.364707 
L 317.749284 69.614088 
L 318.553251 70.147126 
L 319.966947 70.721978 
L 322.786904 71.468452 
L 326.636168 72.134696 
L 330.795003 72.58162 
L 334.198685 72.758661 
L 337.747927 72.762982 
L 344.373696 72.435343 
L 355.900897 71.537904 
L 365.187441 70.614589 
L 379.666548 68.858779 
L 386.394971 68.126385 
L 390.048798 67.949726 
L 399.435669 67.842939 
L 409.450253 67.81229 
L 409.450253 67.81229 
" style="fill:none;stroke:#000000;stroke-linecap:square;stroke-opacity:0.7;stroke-width:1.2;"/>
   </g>
   <g id="line2d_16">
    <path clip-path="url(#pa2d83ef0c9)" d="M 543.420118 224.374185 
L 543.354813 224.354819 
L 534.492514 221.855539 
L 522.585913 218.706108 
L 515.378184 217.004179 
L 511.400875 216.323557 
L 508.312289 216.03417 
L 505.324888 215.93017 
L 499.876986 216.008762 
L 494.041442 216.09148 
L 488.615622 215.886146 
L 480.768463 215.355438 
L 476.708662 215.373792 
L 474.21816 215.649012 
L 471.495792 216.225742 
L 469.202416 216.945547 
L 467.044389 217.853189 
L 464.374588 219.276565 
L 463.303308 219.52266 
L 459.120184 220.075813 
L 455.411932 220.836975 
L 452.367637 221.699882 
L 449.344795 222.870879 
L 447.103126 224.172469 
L 446.217465 225.003329 
L 445.771805 225.764465 
L 445.674238 226.317931 
L 445.810522 226.947464 
L 446.135861 227.461785 
L 446.787954 228.056972 
L 447.627317 228.565811 
L 449.585498 229.336288 
L 452.088978 229.931761 
L 455.550774 230.373765 
L 458.466429 230.523252 
L 463.331591 230.499197 
L 480.009574 229.897177 
L 490.026702 229.335351 
L 498.170174 228.634527 
L 518.886374 226.512649 
L 530.222967 226.265438 
L 530.222967 226.265438 
L 541.306552 226.122477 
L 541.306552 226.122477 
" style="fill:none;stroke:#000000;stroke-linecap:square;stroke-opacity:0.7;stroke-width:1.2;"/>
   </g>
   <g id="line2d_17">
    <path clip-path="url(#pa2d83ef0c9)" d="M 542.160134 184.815778 
L 542.112375 184.805769 
L 515.101006 179.151592 
L 510.047526 178.604416 
L 505.448012 178.440851 
L 498.18585 178.497804 
L 491.197005 178.526916 
L 488.315672 178.366468 
L 486.382573 178.157509 
L 477.232856 176.825896 
L 476.363154 176.822693 
L 473.59231 177.013969 
L 470.201858 177.523522 
L 462.811033 178.928326 
L 463.272371 178.46257 
L 462.991543 178.389004 
L 461.92509 178.526014 
L 459.419799 179.081413 
L 454.981205 180.347458 
L 452.515257 181.182654 
L 448.889262 182.639621 
L 444.814949 184.963757 
L 444.077234 185.626548 
L 443.450826 186.515087 
L 443.318423 187.014069 
L 443.594722 187.877338 
L 443.984799 188.24405 
L 445.056804 188.782823 
L 446.20189 189.101262 
L 449.929441 189.511699 
L 453.953609 189.524067 
L 473.943446 188.968803 
L 485.272513 188.517641 
L 495.168016 187.803664 
L 511.400572 186.246991 
L 520.577219 185.836166 
L 531.77274 186.204214 
L 541.403089 186.618746 
L 541.403089 186.618746 
" style="fill:none;stroke:#000000;stroke-linecap:square;stroke-opacity:0.7;stroke-width:1.2;"/>
   </g>
   <g id="line2d_18">
    <path clip-path="url(#pa2d83ef0c9)" d="M 541.927107 145.605127 
L 539.053461 145.669167 
L 535.872292 145.658654 
L 529.218982 145.387989 
L 523.367643 144.866577 
L 519.10815 144.28676 
L 514.69981 143.474233 
L 510.467111 142.721173 
L 508.284651 142.500834 
L 503.429578 142.331639 
L 495.383679 142.460696 
L 487.004142 142.638511 
L 482.140718 142.459646 
L 473.751756 141.681641 
L 469.292462 141.714436 
L 464.071524 142.00542 
L 460.426746 142.396076 
L 456.979813 143.018351 
L 455.631809 143.414245 
L 454.528043 143.971122 
L 454.216567 144.418359 
L 454.383861 144.881569 
L 455.004166 145.572849 
L 454.491251 145.872557 
L 451.952198 146.810305 
L 451.125809 147.350107 
L 450.665783 148.037016 
L 450.718801 148.652147 
L 451.364976 149.462984 
L 452.398228 150.16062 
L 453.843979 150.853715 
L 456.164525 151.691116 
L 459.757897 152.655317 
L 461.928884 153.106368 
L 465.144132 153.614406 
L 468.849891 153.949024 
L 472.781623 154.016196 
L 479.167075 153.748107 
L 487.089731 153.128272 
L 495.077302 152.261149 
L 502.890451 151.209691 
L 522.90356 148.327956 
L 535.826038 147.333321 
L 542.331388 146.854949 
L 542.331388 146.854949 
" style="fill:none;stroke:#000000;stroke-linecap:square;stroke-opacity:0.7;stroke-width:1.2;"/>
   </g>
   <g id="line2d_19">
    <path clip-path="url(#pa2d83ef0c9)" d="M 542.455456 105.80567 
L 538.701132 105.315798 
L 530.245002 103.99992 
L 522.457249 102.537512 
L 514.118199 100.835253 
L 508.997822 100.331726 
L 505.269562 100.264127 
L 498.395974 100.429603 
L 490.663893 100.62082 
L 486.85068 100.490633 
L 483.827226 100.15036 
L 478.046014 99.172445 
L 475.558829 99.225509 
L 472.883682 99.559053 
L 469.316093 100.234717 
L 464.308964 101.333706 
L 462.008532 101.492118 
L 458.944424 101.629948 
L 455.818303 102.009543 
L 452.90962 102.551133 
L 451.802231 102.806269 
L 448.913747 103.629319 
L 445.986583 104.845278 
L 444.893571 105.53233 
L 444.037722 106.400712 
L 443.772133 107.079187 
L 443.768347 107.364333 
L 443.95436 107.923541 
L 444.583356 108.629923 
L 445.630163 109.292199 
L 447.484047 110.040492 
L 449.959837 110.697098 
L 453.540057 111.296041 
L 456.522378 111.589389 
L 460.882557 111.77195 
L 466.610135 111.726862 
L 481.000133 111.285334 
L 489.827039 110.752091 
L 497.543009 110.06393 
L 511.111388 108.525773 
L 518.000438 107.815584 
L 524.062285 107.580522 
L 541.502012 107.345492 
L 541.502012 107.345492 
" style="fill:none;stroke:#000000;stroke-linecap:square;stroke-opacity:0.7;stroke-width:1.2;"/>
   </g>
   <g id="line2d_20">
    <path clip-path="url(#pa2d83ef0c9)" d="M 542.443368 66.469518 
L 536.597575 66.490776 
L 528.324919 66.26416 
L 522.865824 65.88514 
L 518.952088 65.429547 
L 514.552139 64.647241 
L 512.985771 64.347025 
L 508.065941 63.753713 
L 504.577041 63.605532 
L 500.479762 63.601994 
L 494.062765 63.833487 
L 480.764277 64.500111 
L 480.345018 64.386793 
L 480.123122 64.150396 
L 479.973777 63.649634 
L 479.867015 63.526803 
L 479.357009 63.255595 
L 477.964951 62.985602 
L 476.708221 62.890253 
L 471.378123 62.938961 
L 466.690332 63.289981 
L 464.927574 63.49191 
L 461.442318 64.087757 
L 459.86259 64.626571 
L 458.718787 65.251023 
L 457.191074 65.630305 
L 453.564059 66.417487 
L 450.170593 67.349076 
L 448.65321 67.938031 
L 447.536965 68.628336 
L 447.218735 69.133134 
L 447.241811 69.403285 
L 447.377523 69.63194 
L 448.171805 70.169316 
L 449.576397 70.65434 
L 451.97439 71.163148 
L 456.11741 71.715776 
L 462.122039 72.229677 
L 479.536157 73.358252 
L 485.42071 73.200168 
L 489.73029 72.9224 
L 495.941901 72.3504 
L 504.630844 71.315364 
L 522.960674 68.956245 
L 542.111739 67.260439 
L 542.111739 67.260439 
" style="fill:none;stroke:#000000;stroke-linecap:square;stroke-opacity:0.7;stroke-width:1.2;"/>
   </g>
   <g id="line2d_21">
    <path clip-path="url(#pa2d83ef0c9)" d="M 673.358065 224.890403 
L 670.055258 225.126847 
L 665.580215 225.288631 
L 660.614364 225.24724 
L 655.610059 224.934817 
L 652.525352 224.576098 
L 648.117988 223.819895 
L 644.03578 223.080963 
L 641.205619 222.753475 
L 637.963495 222.569128 
L 631.890788 222.564028 
L 625.375995 222.814515 
L 613.106756 223.340381 
L 611.661503 223.254714 
L 610.957348 223.037268 
L 610.804519 222.690522 
L 610.679204 222.386571 
L 610.439315 222.243177 
L 608.402706 221.985341 
L 605.37691 222.015783 
L 601.990715 222.209842 
L 598.722669 222.504547 
L 594.57174 223.059112 
L 591.262422 223.726451 
L 589.153986 223.735881 
L 585.415384 224.042786 
L 581.108414 224.839889 
L 579.686204 225.303442 
L 578.463587 225.968659 
L 578.153653 226.294659 
L 578.007045 226.798103 
L 578.062263 227.014306 
L 578.566146 227.603573 
L 579.722337 228.247207 
L 581.49006 228.864036 
L 584.15905 229.498342 
L 588.359287 230.148204 
L 592.438742 230.514852 
L 597.540758 230.666523 
L 603.024213 230.53353 
L 614.764405 229.940801 
L 622.656807 229.366736 
L 629.120121 228.759799 
L 643.044953 227.164265 
L 649.877072 226.453007 
L 656.103657 226.249559 
L 670.93588 226.252848 
L 673.509721 226.262469 
L 673.509721 226.262469 
" style="fill:none;stroke:#000000;stroke-linecap:square;stroke-opacity:0.7;stroke-width:1.2;"/>
   </g>
   <g id="line2d_22">
    <path clip-path="url(#pa2d83ef0c9)" d="M 675.193434 184.240741 
L 675.066885 184.192543 
L 671.129295 182.85301 
L 664.268229 180.789408 
L 655.318338 178.35715 
L 650.333204 177.145787 
L 645.415734 176.149276 
L 643.158602 175.811784 
L 638.843431 175.444065 
L 634.719099 175.376284 
L 626.114273 175.33534 
L 619.449993 175.000733 
L 609.843278 174.513709 
L 606.155694 174.59298 
L 602.422555 175.067547 
L 600.929899 175.398242 
L 597.98355 176.296028 
L 595.940124 177.117997 
L 593.515578 178.377871 
L 592.090846 179.307317 
L 591.271999 179.458345 
L 588.879367 179.702876 
L 586.565907 180.192426 
L 584.246111 180.946339 
L 582.048128 182.006498 
L 580.370292 183.25843 
L 579.465679 184.356874 
L 579.029613 185.289188 
L 578.86301 186.192826 
L 579.035592 187.48216 
L 579.494286 188.461343 
L 580.420001 189.588148 
L 581.68493 190.574906 
L 583.859616 191.646629 
L 586.003017 192.280509 
L 587.963176 192.629983 
L 590.943782 192.891921 
L 594.960313 192.959979 
L 602.215459 192.781009 
L 609.312338 192.480758 
L 618.853232 191.866884 
L 627.260873 191.037604 
L 633.635947 190.237572 
L 651.885149 187.688329 
L 659.763231 187.198722 
L 674.078633 186.46884 
L 674.078633 186.46884 
" style="fill:none;stroke:#000000;stroke-linecap:square;stroke-opacity:0.7;stroke-width:1.2;"/>
   </g>
   <g id="line2d_23">
    <path clip-path="url(#pa2d83ef0c9)" d="M 674.171897 145.291868 
L 674.120619 145.284604 
L 662.109894 143.417822 
L 642.173888 140.20729 
L 638.65363 139.962271 
L 635.266323 139.871307 
L 627.019945 140.021028 
L 616.371603 140.372913 
L 613.432779 140.273325 
L 609.281275 140.018953 
L 606.800053 140.094001 
L 604.73377 140.268532 
L 598.326034 141.151976 
L 593.512756 142.055119 
L 591.709395 142.486739 
L 594.530689 141.732085 
L 594.745893 141.531374 
L 594.548606 141.449347 
L 593.187884 141.486393 
L 589.572451 142.021873 
L 586.137152 142.756408 
L 584.445132 143.193047 
L 581.576674 144.085067 
L 579.938971 144.728771 
L 577.815562 145.930091 
L 577.217269 146.565279 
L 577.041722 147.132014 
L 577.162645 147.533094 
L 577.596093 147.975511 
L 578.240422 148.3257 
L 580.333317 148.899554 
L 581.801374 149.101715 
L 585.75549 149.277127 
L 588.132446 149.224904 
L 605.618534 148.288084 
L 621.932106 147.631177 
L 628.233549 147.247267 
L 643.800474 146.13345 
L 650.719101 146.003848 
L 661.225331 146.515241 
L 672.569442 147.232505 
L 672.569442 147.232505 
" style="fill:none;stroke:#000000;stroke-linecap:square;stroke-opacity:0.7;stroke-width:1.2;"/>
   </g>
   <g id="line2d_24">
    <path clip-path="url(#pa2d83ef0c9)" d="M 675.490909 105.131021 
L 675.437522 105.107121 
L 673.000762 104.156722 
L 667.034993 102.172242 
L 659.282207 99.862768 
L 652.74723 98.106272 
L 645.955919 96.578849 
L 644.17905 96.269207 
L 638.685624 95.634741 
L 635.17214 95.446561 
L 629.841249 95.401293 
L 622.674523 95.334208 
L 609.071546 95.013238 
L 604.370662 95.274373 
L 601.770458 95.712725 
L 599.58617 96.399534 
L 598.039222 97.202604 
L 597.269383 97.796172 
L 596.244832 99.113123 
L 595.270452 99.677542 
L 592.255748 100.223835 
L 589.74201 100.694542 
L 586.59053 101.399042 
L 581.949452 102.721874 
L 579.290063 103.70596 
L 577.06208 104.778778 
L 575.926436 105.520549 
L 575.160337 106.235654 
L 574.697586 107.163241 
L 574.729012 107.646719 
L 574.84045 107.915774 
L 575.256626 108.417059 
L 575.99224 108.910957 
L 577.525391 109.515284 
L 579.92071 110.043465 
L 582.450827 110.340246 
L 585.509902 110.485451 
L 589.487439 110.444685 
L 597.97998 110.01407 
L 609.007182 109.556153 
L 621.248044 108.948615 
L 627.657328 108.472189 
L 649.227645 106.673418 
L 654.097821 106.712679 
L 664.678094 107.100395 
L 673.090948 107.462341 
L 673.090948 107.462341 
" style="fill:none;stroke:#000000;stroke-linecap:square;stroke-opacity:0.7;stroke-width:1.2;"/>
   </g>
   <g id="line2d_25">
    <path clip-path="url(#pa2d83ef0c9)" d="M 675.415494 65.784497 
L 675.392867 65.775822 
L 671.083991 64.268479 
L 662.790018 61.649538 
L 656.234291 59.741035 
L 649.847142 58.104423 
L 647.260238 57.575078 
L 640.576929 56.881789 
L 638.143626 56.855779 
L 631.291387 57.104625 
L 627.048659 57.191421 
L 624.285914 57.098753 
L 620.390121 56.782305 
L 608.248384 55.564806 
L 606.528349 55.58294 
L 603.274752 55.983401 
L 601.032002 56.582219 
L 598.580022 57.541485 
L 596.209351 58.821832 
L 595.732859 59.110776 
L 594.956167 59.430495 
L 588.021814 60.847727 
L 584.831835 61.744841 
L 580.870998 63.133054 
L 577.287536 64.862978 
L 575.702705 66.039231 
L 574.938505 67.107311 
L 574.839926 67.577774 
L 575.082383 68.378348 
L 575.715095 68.994266 
L 575.971293 69.160298 
L 578.205603 70.027347 
L 580.572689 70.49374 
L 583.002846 70.758086 
L 586.426558 70.91582 
L 592.606706 70.894123 
L 605.927257 70.833642 
L 609.463424 70.790942 
L 621.243672 70.304982 
L 629.807391 69.620553 
L 651.009047 67.608455 
L 657.580249 67.488725 
L 673.506806 67.423111 
L 673.506806 67.423111 
" style="fill:none;stroke:#000000;stroke-linecap:square;stroke-opacity:0.7;stroke-width:1.2;"/>
   </g>
  </g>
 </g>
 <defs>
  <clipPath id="pa2d83ef0c9">
   <rect height="262.08" width="694.08" x="12.96" y="12.96"/>
  </clipPath>
 </defs>
</svg>
