<svg viewBox="0 0 1496 400" xmlns="http://www.w3.org/2000/svg"><g><g><g><g><g><line x1="50" y1="378" x2="45" y2="378" style="visibility: inherit;" fill="rgb(0, 0, 0)" stroke="rgb(204, 204, 204)" stroke-width="1px"></line><line x1="50" y1="336" x2="45" y2="336" style="visibility: inherit;" fill="rgb(0, 0, 0)" stroke="rgb(204, 204, 204)" stroke-width="1px"></line><line x1="50" y1="294" x2="45" y2="294" style="visibility: inherit;" fill="rgb(0, 0, 0)" stroke="rgb(204, 204, 204)" stroke-width="1px"></line><line x1="50" y1="252" x2="45" y2="252" style="visibility: inherit;" fill="rgb(0, 0, 0)" stroke="rgb(204, 204, 204)" stroke-width="1px"></line><line x1="50" y1="210" x2="45" y2="210" style="visibility: inherit;" fill="rgb(0, 0, 0)" stroke="rgb(204, 204, 204)" stroke-width="1px"></line><line x1="50" y1="168" x2="45" y2="168" style="visibility: inherit;" fill="rgb(0, 0, 0)" stroke="rgb(204, 204, 204)" stroke-width="1px"></line><line x1="50" y1="126.00000000000001" x2="45" y2="126.00000000000001" style="visibility: inherit;" fill="rgb(0, 0, 0)" stroke="rgb(204, 204, 204)" stroke-width="1px"></line><line x1="50" y1="84.00000000000004" x2="45" y2="84.00000000000004" style="visibility: inherit;" fill="rgb(0, 0, 0)" stroke="rgb(204, 204, 204)" stroke-width="1px"></line><line x1="50" y1="42.00000000000002" x2="45" y2="42.00000000000002" style="visibility: inherit;" fill="rgb(0, 0, 0)" stroke="rgb(204, 204, 204)" stroke-width="1px"></line><line x1="50" y1="0" x2="45" y2="0" style="visibility: inherit;" fill="rgb(0, 0, 0)" stroke="rgb(204, 204, 204)" stroke-width="1px"></line></g><g transform="translate(40, 0)"><text x="0" y="378" dx="0em" dy="0.3em" style="text-anchor: end; visibility: hidden; font-family: Roboto, sans-serif; font-size: 12px; font-weight: 200;" fill="rgb(50, 49, 63)" stroke="none" stroke-width="1px">-0.2</text><text x="0" y="336" dx="0em" dy="0.3em" style="text-anchor: end; visibility: inherit; font-family: Roboto, sans-serif; font-size: 12px; font-weight: 200;" fill="rgb(50, 49, 63)" stroke="none" stroke-width="1px">0</text><text x="0" y="294" dx="0em" dy="0.3em" style="text-anchor: end; visibility: inherit; font-family: Roboto, sans-serif; font-size: 12px; font-weight: 200;" fill="rgb(50, 49, 63)" stroke="none" stroke-width="1px">0.2</text><text x="0" y="252" dx="0em" dy="0.3em" style="text-anchor: end; visibility: inherit; font-family: Roboto, sans-serif; font-size: 12px; font-weight: 200;" fill="rgb(50, 49, 63)" stroke="none" stroke-width="1px">0.4</text><text x="0" y="210" dx="0em" dy="0.3em" style="text-anchor: end; visibility: inherit; font-family: Roboto, sans-serif; font-size: 12px; font-weight: 200;" fill="rgb(50, 49, 63)" stroke="none" stroke-width="1px">0.6</text><text x="0" y="168" dx="0em" dy="0.3em" style="text-anchor: end; visibility: inherit; font-family: Roboto, sans-serif; font-size: 12px; font-weight: 200;" fill="rgb(50, 49, 63)" stroke="none" stroke-width="1px">0.8</text><text x="0" y="126.00000000000001" dx="0em" dy="0.3em" style="text-anchor: end; visibility: inherit; font-family: Roboto, sans-serif; font-size: 12px; font-weight: 200;" fill="rgb(50, 49, 63)" stroke="none" stroke-width="1px">1</text><text x="0" y="84.00000000000004" dx="0em" dy="0.3em" style="text-anchor: end; visibility: inherit; font-family: Roboto, sans-serif; font-size: 12px; font-weight: 200;" fill="rgb(50, 49, 63)" stroke="none" stroke-width="1px">1.2</text><text x="0" y="42.00000000000002" dx="0em" dy="0.3em" style="text-anchor: end; visibility: inherit; font-family: Roboto, sans-serif; font-size: 12px; font-weight: 200;" fill="rgb(50, 49, 63)" stroke="none" stroke-width="1px">1.4</text><text x="0" y="0" dx="0em" dy="0.3em" style="text-anchor: end; visibility: hidden; font-family: Roboto, sans-serif; font-size: 12px; font-weight: 200;" fill="rgb(50, 49, 63)" stroke="none" stroke-width="1px">1.6</text></g><line x1="50" y1="0" x2="50" y2="378" fill="rgb(0, 0, 0)" stroke="rgb(204, 204, 204)" stroke-width="1px"></line></g></g><g transform="translate(50, 0)" clip-path="url(#clip_0)"><clipPath id="clip_0"><rect width="1446" height="378"></rect></clipPath><g><g><g><line x1="0" y1="0" x2="0" y2="378" fill="rgb(0, 0, 0)" stroke="rgb(60, 60, 60)" stroke-width="1px" opacity="0.25"></line><line x1="120.5" y1="0" x2="120.5" y2="378" fill="rgb(0, 0, 0)" stroke="rgb(60, 60, 60)" stroke-width="1px" opacity="0.25"></line><line x1="241" y1="0" x2="241" y2="378" fill="rgb(0, 0, 0)" stroke="rgb(60, 60, 60)" stroke-width="1px" opacity="0.25"></line><line x1="361.5" y1="0" x2="361.5" y2="378" fill="rgb(0, 0, 0)" stroke="rgb(60, 60, 60)" stroke-width="1px" opacity="0.25"></line><line x1="482" y1="0" x2="482" y2="378" fill="rgb(0, 0, 0)" stroke="rgb(60, 60, 60)" stroke-width="1px" opacity="0.25"></line><line x1="602.5" y1="0" x2="602.5" y2="378" fill="rgb(0, 0, 0)" stroke="rgb(60, 60, 60)" stroke-width="1px" opacity="0.25"></line><line x1="723" y1="0" x2="723" y2="378" fill="rgb(0, 0, 0)" stroke="rgb(60, 60, 60)" stroke-width="1px" opacity="0.25"></line><line x1="843.5" y1="0" x2="843.5" y2="378" fill="rgb(0, 0, 0)" stroke="rgb(60, 60, 60)" stroke-width="1px" opacity="0.25"></line><line x1="964" y1="0" x2="964" y2="378" fill="rgb(0, 0, 0)" stroke="rgb(60, 60, 60)" stroke-width="1px" opacity="0.25"></line><line x1="1084.5" y1="0" x2="1084.5" y2="378" fill="rgb(0, 0, 0)" stroke="rgb(60, 60, 60)" stroke-width="1px" opacity="0.25"></line><line x1="1205" y1="0" x2="1205" y2="378" fill="rgb(0, 0, 0)" stroke="rgb(60, 60, 60)" stroke-width="1px" opacity="0.25"></line><line x1="1325.5" y1="0" x2="1325.5" y2="378" fill="rgb(0, 0, 0)" stroke="rgb(60, 60, 60)" stroke-width="1px" opacity="0.25"></line><line x1="1446" y1="0" x2="1446" y2="378" fill="rgb(0, 0, 0)" stroke="rgb(60, 60, 60)" stroke-width="1px" opacity="0.25"></line></g><g><line x1="0" y1="378" x2="1446" y2="378" fill="rgb(0, 0, 0)" stroke="rgb(60, 60, 60)" stroke-width="1px" opacity="0.25"></line><line x1="0" y1="336" x2="1446" y2="336" fill="rgb(0, 0, 0)" stroke="rgb(60, 60, 60)" stroke-width="1px" opacity="0.25"></line><line x1="0" y1="294" x2="1446" y2="294" fill="rgb(0, 0, 0)" stroke="rgb(60, 60, 60)" stroke-width="1px" opacity="0.25"></line><line x1="0" y1="252" x2="1446" y2="252" fill="rgb(0, 0, 0)" stroke="rgb(60, 60, 60)" stroke-width="1px" opacity="0.25"></line><line x1="0" y1="210" x2="1446" y2="210" fill="rgb(0, 0, 0)" stroke="rgb(60, 60, 60)" stroke-width="1px" opacity="0.25"></line><line x1="0" y1="168" x2="1446" y2="168" fill="rgb(0, 0, 0)" stroke="rgb(60, 60, 60)" stroke-width="1px" opacity="0.25"></line><line x1="0" y1="126.00000000000001" x2="1446" y2="126.00000000000001" fill="rgb(0, 0, 0)" stroke="rgb(60, 60, 60)" stroke-width="1px" opacity="0.25"></line><line x1="0" y1="84.00000000000004" x2="1446" y2="84.00000000000004" fill="rgb(0, 0, 0)" stroke="rgb(60, 60, 60)" stroke-width="1px" opacity="0.25"></line><line x1="0" y1="42.00000000000002" x2="1446" y2="42.00000000000002" fill="rgb(0, 0, 0)" stroke="rgb(60, 60, 60)" stroke-width="1px" opacity="0.25"></line><line x1="0" y1="0" x2="1446" y2="0" fill="rgb(0, 0, 0)" stroke="rgb(60, 60, 60)" stroke-width="1px" opacity="0.25"></line></g></g></g><g><g><line x1="0" y1="336" x2="1446" y2="336" fill="rgb(0, 0, 0)" stroke="rgb(153, 153, 153)" stroke-width="1.5px"></line></g></g><g><g><line x1="120.5" y1="0" x2="120.5" y2="378" fill="rgb(0, 0, 0)" stroke="rgb(153, 153, 153)" stroke-width="1.5px"></line></g></g><g><g><g><g><g><path stroke="rgb(255, 112, 67)" stroke-width="2px" d="M123.5125,98.32942342758179L124.115,106.1750135421753L126.52499999999999,136.66711664199832L127.12750000000001,143.2482669353485L128.33249999999998,150.0661758184433L128.935,148.86896467208862L129.5375,148.78864324092865L130.7425,159.5527789592743L131.345,161.0042599439621L131.9475,160.67422485351562L132.54999999999998,164.16214263439178L134.96,167.834072470665L140.3825,178.68784224987033L140.985,180.10445094108584L142.19,182.37932360172272L143.9975,185.19698238372803L144.6,182.37130022048953L145.805,185.6635901927948L147.01,187.17244899272922L147.6125,186.29502153396606L148.8175,191.10679721832275L150.02249999999998,192.31712615489963L150.625,191.5143249034882L152.4325,197.96374654769897L153.035,197.57754778862L153.6375,196.21263420581818L154.24,196.66982924938202L154.8425,197.54420256614685L156.65,201.0403314828873L157.2525,201.85794031620026L158.4575,202.48078501224518L159.6625,203.38002955913547L160.26500000000001,205.1296774148941L160.8675,205.29140925407413L161.47,204.170902132988L163.2775,208.3613727092743L163.88,210.1482084989548L164.48250000000002,208.90427148342133L165.085,209.05571436882022L166.29000000000002,208.84769475460052L168.0975,211.76055765151978L171.10999999999999,214.64017546176913L171.7125,217.0713350772858L172.315,216.99728465080264L172.9175,218.01778113842013L173.51999999999998,216.9879970550537L174.1225,219.5107058286667L177.135,221.11747241020203L181.95499999999998,226.08293151855472L183.7625,228.82064437866214L184.365,228.80268251895905L188.58249999999998,233.90956467390063L190.39,232.89196586608887L191.595,237.24458760023117L192.1975,237.7550548911095L192.8,237.85306280851367L195.21,238.04424083232877L195.8125,239.31518322229388L196.415,239.21663081645966L198.2225,241.186014175415L198.82500000000002,241.90563386678699L200.63250000000002,243.75061100721356L203.0425,245.8618867993355L204.24749999999997,247.51397109031677L205.45250000000001,249.0977189540863L206.05499999999998,249.9505881071091L206.6575,250.47522461414337L207.26000000000002,251.6641808152199L209.67,253.84247249364853L210.875,256.06341576576233L212.6825,253.65015542507172L213.285,257.7663502693176L213.8875,257.81662470102316L215.0925,256.3165653347969L215.695,256.3695809841156L216.2975,258.9010766744614L218.10500000000002,259.6688429117203L219.31,260.38868790864944L219.9125,262.76036059856415L221.1175,265.1918143630028L221.71999999999997,262.93530410528183L223.52749999999997,264.38455706834793L226.54000000000002,267.52711898088455L227.14249999999998,266.0838240981102L227.745,268.68112778663635L228.95,269.1106039881706L229.5525,270.45128470659256L230.7575,270.87207412719727L231.9625,272.98077768087387L232.565,273.6739490032196L233.16750000000002,272.67217791080475L233.76999999999998,272.46559774875647L234.975,274.3529072999954L235.5775,276.25844156742096L239.795,277.62189692258835L242.205,280.7345745563507L244.61499999999998,280.6527698636055L245.2175,281.75533390045166L245.82000000000002,281.4386293888092L248.23,283.7608788013458L250.0375,284.3476182818413L251.845,286.44931545853615L252.44750000000002,286.75036749243736L254.25500000000002,287.57406583428383L254.8575,286.1877450942993L256.0625,287.6411630809307L256.66499999999996,287.10525816679L257.2675,287.28197595477104L258.47249999999997,289.42078283429146L259.075,288.73472115397453L260.28,290.4107723236084L260.8825,289.02067145705223L261.485,290.91947785019875L263.2925,290.6175965666771L265.09999999999997,291.26754677295685L268.1125,293.644911557436L269.3175,294.9192022383213L270.5225,294.41682091355324L271.125,293.4430909752846L274.1375,295.79389786720276L275.945,295.11999955773354L276.5475,295.741533100605L277.15000000000003,295.9375270307064L277.7525,296.63778296113014L278.9575,297.7014817893505L281.3675,297.90160632133484L282.5725,299.3898997306824L283.77750000000003,297.91912069916725L284.9825,299.68632674217224L287.995,299.0548296868801L289.2,300.6147295832634L291.61,300.1303977370262L294.6225,301.4347760975361L295.8275,302.61315232515335L296.43,304.1371097266674L298.2375,301.99876910448074L299.4425,303.19192162156105L300.04499999999996,303.7742864191532L300.6475,304.62938046455383L301.85249999999996,303.39663049578667L302.455,304.2026579976082L303.0575,305.04262214899063L305.4675,304.44199508428574L306.07,305.5490401983261L307.275,305.4788011908531L309.0825,304.7985661625862L311.4925,305.47629153728485L312.09499999999997,306.57047232985497L312.6975,306.74845746159554L313.3,307.05093017220497L314.505,307.2014029920101L316.3125,305.8343239724636L316.915,307.41484558582306L317.5175,307.74269020557404L319.325,307.8238189816475L319.9275,307.32292091846466L321.1325,308.187117934227L324.7475,307.9845901429653L325.9525,309.3180955052376L327.76,308.9470235109329L328.3625,309.60304445028305L329.5675,308.1022152900696L330.17,309.25382083654404L333.1825,309.2773120701313L333.785,308.5606808066368L334.99,309.95020589232445L336.195,310.0921499580145L336.7975,310.2674032598734L337.4,309.23971420526505L339.2075,309.0728942155838L339.81,309.5410040616989L341.6175,310.30648751556873L342.21999999999997,310.4108587503433L343.425,310.88519579172134L344.0275,310.982942417264L345.23249999999996,310.190339371562L347.6425,310.9613068252802L348.245,310.4541768729687L348.84749999999997,310.4637116789818L350.0525,311.0715281814337L350.655,311.30568949878216L352.4625,311.2630113065243L353.065,312.0774502158165L353.6675,311.35610005259514L354.27,312.0057654976845L355.47499999999997,310.9491137266159L356.0775,311.0468196719885L356.68,311.17098650336266L357.28249999999997,312.4565612375736L362.70500000000004,311.4413437843323L363.30749999999995,311.87417140603065L364.5125,312.66531309485435L366.32000000000005,311.92899575829506L370.53749999999997,312.7238471657038L371.14,312.3296218961477L373.55,311.6880784034729L374.1525,312.22235611081123L374.755,312.6184385865927L375.96000000000004,312.40560306608677L377.16499999999996,312.5077853947878L379.575,312.06415405869484L384.9975,312.41155019402504L385.6,312.45709320902824L386.2025,313.3521727323532L386.805,312.61086425185204L388.01,313.1455456316471L388.6125,312.8682961910963L390.42,313.55850724875927L392.22749999999996,314.1634949147701L396.445,313.11694434285164L397.0475,312.6337890923023L397.65000000000003,313.26693995296955L398.25249999999994,313.34168350696564L399.4575,313.20292031764984L400.06,313.2640907764435L400.6625,313.69059732556343L401.86749999999995,313.94268295168877L402.46999999999997,313.68887624144554L403.0725,313.93849289417267L404.27750000000003,313.2232807427645L405.48249999999996,313.6687426865101L406.085,314.0635844171047L408.49499999999995,313.7047696709633L412.7125,314.251364082098L414.52000000000004,314.46562184393406L415.12250000000006,314.71228605508804L416.3275,314.8537184894085L417.5325,313.8692865371704L419.34,315.8508942872286L425.9675,315.8123983293772L427.775,315.2033974081278L428.3775,315.7005669772625L428.98,315.68398354947567L430.185,315.5980232208967L431.39,315.4451268017292L431.9925,315.9683864414692L433.1975,315.4412465393543L436.21000000000004,316.0008914619684L436.8125,316.023600384593L440.42749999999995,316.2371431142092L441.6325,315.6592750400305L442.235,316.1405417919159L442.83750000000003,315.72678378224373L443.43999999999994,315.875263273716L444.04249999999996,316.0285132974386L444.645,316.14890000224113L445.2475,315.89733070135117L445.85,315.9601846933365L446.45250000000004,315.5145209133625L447.05499999999995,316.21368004381657L448.26,316.1105996221304L450.06750000000005,316.14450185000896L450.66999999999996,316.4201350361109L451.2725,316.24715043604374L452.4775,316.5945794284344L454.8875,316.61778120696545L456.09250000000003,316.7410405576229L457.29749999999996,316.24058997631073L459.70750000000004,316.22333063185215L460.31000000000006,316.17540000379086L460.91249999999997,316.54649233818054L462.1175,316.3040072321892L463.32250000000005,316.9922969341278L464.5275,316.5416701734066L465.7325,316.4948566854L466.33500000000004,316.8815858513117L468.1425,316.4065901041031L469.3475,316.73808185756207L469.95,316.6816615909338L470.5525,316.7194299995899L471.155,316.13961397111416L471.7575,316.9107504040003L472.36,316.2724910527468L473.565,316.71408212184906L474.1675,316.6328985840082L477.18,316.9130347520113L477.7825,316.9321591258049L478.9875,316.8651948720217L479.59,317.24343909323215L480.1925,316.9167757630348L482,317.07143707573414L483.205,316.96542924642563L484.41,316.430319160223L485.61499999999995,316.90732231736183L486.82,317.3047707080841L488.02500000000003,316.40026277303696L488.62749999999994,317.0444160550833L489.22999999999996,316.6845561414957L491.0375,317.15029089152813L493.4475,316.90886503458023L494.05,317.05679377913475L495.25500000000005,317.0748166590929L495.85749999999996,317.1087188869715L497.0625,317.50544911623L499.47249999999997,317.1292451620102L502.48499999999996,317.64446264505386L506.7025,316.73945716023445L507.305,317.43222481012344L508.51000000000005,317.4875826984644L509.1125,317.1324307322502L509.715,317.83493189513683L510.3175,317.3641230762005L510.92,317.91934168338776L511.52250000000004,316.1177640259266L512.7275,316.3998903930187L513.3299999999999,316.496596544981L515.74,316.6133095175028L516.3425,316.0686740130186L517.5475,316.9820783883333L518.7525,316.0643102824688L520.56,316.6422018259764L521.765,316.3808771073818L522.3675000000001,316.39203129708767L522.97,317.19146704673767L524.7775,316.8053293079138L525.38,316.39952740073204L525.9825000000001,316.8395851403475L526.585,316.52968986332417L527.1875,316.7105476409197L528.3925,316.3075573593378L528.995,316.38954980671406L529.5975000000001,316.7014712691307L530.8025,316.66820114851L531.405,316.11617437005043L532.0075,316.688678920269L532.61,316.6120374798775L533.2125,317.18956603109837L533.8149999999999,317.1240115016699L535.02,317.5222954005003L535.6225000000001,316.7516674697399L537.43,317.390103623271L539.84,317.7526687681675L541.6475,317.8913161754608L542.25,317.7856666445732L542.8525,318.11218759417534L544.0575,317.9919057190418L544.66,317.56037986278534L545.2625,317.96321681141853L545.865,317.92461133003235L547.07,317.68471097946167L547.6725,317.82999551296234L548.275,317.75101809203625L550.6850000000001,317.86781868338585L553.095,317.69615149497986L553.6975,317.36558286845684L554.9024999999999,318.11895301938057L555.505,317.9544815272093L556.1075,317.83272421360016L556.71,318.21269734203815L557.3125,318.11465656757355L557.915,317.87017500400543L559.7225,317.9084706902504L560.325,317.9158760458231L563.94,318.0564980059862L565.145,318.29361802339554L565.7475,318.1535014361143L566.35,318.5600355863571L566.9525,318.34110586345196L568.1575,318.0822688937187L569.965,318.0879203081131L570.5675,318.15593442320824L572.375,318.1562223136425L572.9775,318.13759392499924L573.58,318.53483578562737L574.7850000000001,316.88281720876694L575.99,316.9059517085552L577.7975,317.60824947059155L578.4,316.9605710953474L579.605,317.1917893588543L581.4125,317.0958044975996L582.015,317.1911541223526L582.6175,317.31554782390594L583.8225,317.5271598100662L584.425,317.28509402275085L585.0275,317.3268084079027L586.2325,316.75851269066334L586.835,317.454389244318L587.4375,317.380817592144L590.45,317.3340197503567L592.86,317.30258962512016L593.4625,317.4988573640585L594.6675,318.3089137673378L595.8725000000001,317.65101058781147L597.0775,317.86348780989647L597.68,317.22821532189846L598.2825,317.2090518325567L598.885,317.3939729332924L599.4875000000001,317.36431239545345L600.0899999999999,317.32008992135525L601.295,317.403790935874L602.5,317.5007161349058L603.7049999999999,318.0048075914383L605.5125,317.7537295818329L606.7175,317.7758220434189L607.3199999999999,317.8765242397785L607.9225,317.59972697496414L610.3325,317.52084343135357L611.5375,317.4837947487831L612.14,317.56201019883156L613.345,317.4702498167753L615.1525,317.3497316837311L616.3575000000001,317.7833697795868L616.96,317.5305832028389L617.5625,317.5730517357588L619.37,317.83027245104313L621.1775,317.8789603561163L621.78,317.79525151848793L622.985,317.7853255569935L624.1899999999999,317.8249699473381L625.395,317.6176747530699L628.4075,317.9724778085947L629.6125,318.18611910939217L630.215,317.86468943953514L630.8175,318.3225384950638L631.42,317.8785488605499L633.2275,317.7731277644634L636.8425,318.41029500961304L638.0475,317.6699440777302L638.65,317.87648355960846L639.2524999999999,317.69946536421776L639.855,318.1719154715538L640.4575,317.5992810577154L642.8675,317.50632217526436L644.0725,317.71822518110275L644.6750000000001,318.35718704760075L646.4825,317.6800671815872L647.085,317.7399890720844L647.6875,317.51777520775795L648.29,318.35357120633125L648.8924999999999,317.98808804154396L650.0975,317.71504117548466L650.7,318.15795122087L651.3025,318.06685580313206L651.905,317.8967688828707L653.11,317.87899477779865L654.9175,318.14764192700386L656.1225,318.17449866235256L656.725,317.8574342876673L657.9300000000001,317.8844600021839L658.5325,317.91631257534027L660.34,318.4576686322689L660.9425,317.87551975250244L662.1475,317.9701136648655L662.75,317.6715493798256L666.9675,318.54825711250305L667.57,318.5011197477579L668.1725,317.9325643032789L668.775,317.83961637318134L669.3774999999999,318.037638053298L669.98,318.05357998609543L670.5825,317.74000784754753L671.7875,318.04071410000324L672.39,317.84143133461475L672.9925,318.13700249791145L674.8,318.0121268928051L675.4025,317.9098475575447L676.005,318.16111332178116L676.6075,318.1254587173462L677.8125,318.5377522408962L681.4275,318.35192835330963L682.03,318.0666727423668L682.6325,317.86942242085934L683.8375,318.0482696592808L686.2475000000001,318.16179236769676L688.055,318.3853361606598L689.8625000000001,318.19145603477955L692.2725,318.1718419343233L694.0799999999999,317.8062821030617L694.6825,317.92182160913944L695.285,318.44299091398716L696.49,318.014476954937L697.0925,318.6513297110796L697.6949999999999,318.01095029711723L699.5025,318.23739489912987L700.105,318.111544534564L701.31,318.22213827073574L702.515,318.42957428097725L703.1175000000001,318.55026921629906L704.3225,318.2104521095753L705.5275,318.35721834003925L706.13,318.7859638631344L707.335,318.27061338722706L708.54,318.12530851364136L709.1425,318.2624695301056L709.745,318.4906399101019L710.3475000000001,318.2068487852812L712.155,318.6453700661659L712.7575,318.13525481522083L713.36,318.5745177268982L715.1675,318.81182549893856L715.77,318.577456086874L720.59,318.05717861652374L722.3975,318.3705676943064L723,318.81463243067265L724.205,318.86517910659313L725.4100000000001,319.46498161554337L726.0125,319.1944663077593L727.8199999999999,319.29336293041706L728.4225,319.38710255920887L729.6275,319.50226029753685L730.23,319.3544207364321L730.8325,319.09367649257183L731.4350000000001,319.50233539938927L733.2425,319.3268067240715L738.0625,319.42871837317944L738.6650000000001,319.5306394100189L739.2674999999999,319.4777645766735L740.4725,319.67726638913155L741.6775,319.46522256731987L742.28,319.5277135670185L742.8825,319.47904443740845L744.0875,319.4654948115349L745.2924999999999,319.4328521043062L745.8950000000001,319.6052969098091L746.4975,319.42889204621315L748.305,319.47512036561966L748.9075,319.5771806538105L749.51,318.23879523575306L752.5224999999999,318.269608899951L753.7275,318.6028921455145L754.3299999999999,318.5782383978367L755.535,318.8306322544813L756.1375,318.5444284826517L757.3425000000001,318.4350144714117L760.9575,318.60843716561794L761.56,318.3517405986786L762.765,318.4229199439287L763.97,318.43272699415684L766.38,318.7118946611881L767.585,318.40696862339973L768.79,318.76395589113235L769.995,318.66130417585373L771.2,318.51999847590923L772.405,318.685821801424L773.0074999999999,318.56811685860157L773.61,318.4344152212143L774.2125,318.6094338297844L774.815,319.0063580721617L777.225,319.0416778475046L778.43,318.70943351089954L779.0324999999999,318.7829848229885L782.6475,318.5151591002941L783.8525000000001,318.63960286974907L785.0575000000001,318.707831338048L785.66,318.6477201282978L786.2624999999999,318.8187145292759L789.8775,318.51525297760963L791.685,318.70397923886776L792.89,318.77589708566666L794.6975,318.3717474192381L796.5049999999999,318.8981879353523L797.1075000000001,318.74960204958916L798.3125,318.5885774195194L798.915,319.0192333459854L799.5174999999999,318.5504069030285L800.12,318.93820314109325L801.325,318.81173788011074L801.9275,318.6670338213444L803.1325,318.7398904412985L803.7349999999999,318.5006487965584L804.3375,319.07621218264103L806.145,318.6877400279045L806.7475,318.75289714336395L807.9525,318.5446131080389L812.7725,319.04708518087864L813.375,318.82973885536194L813.9775,318.9148229956627L814.58,319.251610994339L816.3875,318.893143594265L816.9899999999999,318.9321261495352L817.5925,319.52729581296444L819.4,319.05891059339046L820.0025,319.0411724746227L820.605,318.5031615793705L822.4125,318.82503090798855L829.6424999999999,319.0410488694906L831.4499999999999,318.93756008148193L832.655,318.7598863095045L833.2575,318.7191638946533L834.4625,318.62951888144016L835.065,318.97429114580154L836.8725,318.78768964111805L838.68,318.9971893876791L839.2825,319.29913794994354L839.885,319.018613755703L840.4875000000001,318.75529883801937L841.09,318.8014066815376L841.6924999999999,318.6735692471266L842.2950000000001,318.55505226552486L842.8974999999999,318.92998261749744L844.1025,319.16178917884827L845.3075,319.24454203248024L845.91,319.07261042296886L847.115,318.8699527680874L848.32,318.7741149812937L849.525,318.6649919897318L850.1274999999999,319.2419212907553L850.73,319.0781742185354L851.3325,319.19575399160385L851.935,319.07416565716267L852.5375,318.8433072566986L854.9475000000001,319.0573756992817L857.96,318.7627323567867L858.5625,319.0900575220585L859.7675,318.81105257570744L860.37,319.17710526287556L862.78,318.77163818478584L863.3824999999999,319.0441202223301L863.985,318.8669299185276L865.19,319.1489858776331L866.9975000000001,319.07566925883293L868.805,318.83947080373764L870.01,319.0620179325342L871.215,319.03802601993084L871.8175,318.9888468235731L873.0225,318.949820458889L873.625,319.11621487140656L875.4325000000001,319.0991683155298L876.035,318.90353424847126L876.6374999999999,318.9117688536644L877.8425,319.036325275898L878.445,318.9372674971819L879.0475,318.9137981683016L880.2525,319.34309600293636L880.8549999999999,319.22710432112217L881.4575000000001,319.2833571732044L882.06,319.21006402373314L882.6625,318.8445730358362L883.265,318.9564309865236L886.2775,318.9195575416088L886.8799999999999,318.83686414361L888.0849999999999,319.1467641144991L890.495,318.8828953206539L891.0975,318.95830853283405L892.3025,318.89633855223656L894.7125,318.87616431713104L895.9175,319.2033611834049L897.1225,319.38139951229095L898.3275,319.09303656220436L898.9300000000001,319.8155445456505L899.5325,319.207551240921L900.1350000000001,319.25431779026985L901.3399999999999,318.7544289082289L903.1475,319.1342440098524L903.75,318.9732397198677L904.955,318.95274943113327L905.5575,319.23801286518574L906.1600000000001,319.16945895552635L907.3649999999999,319.2488588243723L909.775,319.1171379983425L910.98,319.35431434214115L911.5825,319.06755512952805L912.7875,319.08986507356167L913.3900000000001,319.27150985598564L915.1975,319.38275134563446L915.8,319.59314136207104L918.8125,319.26422810554504L919.4150000000001,319.0114743858576L920.0174999999999,319.1242460757494L920.6200000000001,319.544534817338L921.8249999999999,319.54833371937275L923.03,319.0255778878927L923.6325,318.9432850331068L924.235,319.1456923484802L924.8375,319.3972741663456L925.44,319.3390326797962L926.0424999999999,319.4055791795254L927.85,319.27987901866436L929.6575,319.22607792913914L930.8625000000001,319.26698809862137L932.0674999999999,319.16108353435993L932.6700000000001,319.18942353129387L933.2724999999999,319.1416180729866L933.875,318.94986583292484L934.4775,319.37141409516335L936.8875,319.21223571896553L939.2974999999999,319.869024887681L940.5024999999999,318.8913927823305L941.105,319.30755561590195L942.9125,318.82859042286873L943.515,319.1500169634819L944.1175000000001,319.2555162906647L945.925,319.0896710604429L947.7325,319.23660783469677L948.335,319.1810324639082L948.9375,319.6536280810833L950.1425,319.24319645762444L950.745,319.1555838882923L951.3475000000001,319.25163915753365L953.155,319.1982855498791L954.36,319.15159410238266L954.9625,319.2544007152319L955.565,319.27580630779266L956.1675,319.31225886940956L956.77,319.2801700383425L957.3725000000001,319.1400706619024L958.5775000000001,319.3729036152363L959.18,319.5099582374096L960.9875,319.10102708637714L964,319.1641658395529L971.2299999999999,319.44609819352627L971.8325000000001,319.4053898602724L972.435,319.10170613229275L973.0375,319.362680375576L975.4475,319.93339186906815L977.2549999999999,319.0045337229967L977.8575000000001,319.2947460561991L979.0625,319.4711180627346L979.665,319.4218215197325L980.2674999999999,319.3724248409271L980.87,319.2081536203623L982.075,319.29596020281315L983.2800000000001,319.379490673542L983.8825,319.6461491882801L984.4849999999999,319.4355166554451L985.6899999999999,319.38444896042347L986.2925,319.35251815617085L986.895,319.36990736424923L988.1,319.34080539643764L989.3050000000001,319.0890139192343L992.92,319.22806030511856L994.125,319.3683552592993L997.1375,320.2297328263521L997.7399999999999,320.0042817592621L1000.15,320.29613068699837L1003.1625,320.45386804640293L1003.7650000000001,320.28975485265255L1006.175,320.4572523236275L1008.585,320.3331230431795L1010.3924999999999,320.1165731102228L1012.1999999999999,320.2604400962591L1012.8025,320.2294903099537L1013.405,320.17279310524464L1015.2125,320.2417272180319L1015.815,320.15557600557804L1017.6225,320.1501608490944L1018.8275,320.4861978292465L1019.43,320.15904477238655L1020.0325,319.3600752800703L1024.25,319.2653045654297L1024.8525,319.46331372857094L1025.455,319.4916552901268L1026.0575000000001,319.344759196043L1027.2625,319.44326466321945L1027.865,319.6127523332834L1028.4675,319.53073485195637L1029.07,319.49321834743023L1029.6725,319.03634248673916L1030.275,319.4613188356161L1030.8775,319.3138281852007L1031.48,319.18065851926804L1032.0825,319.64686734974384L1033.8899999999999,319.54882031679153L1035.095,319.43437135219574L1038.1075,319.59169721603394L1038.71,319.85816641151905L1039.3125,319.93566839396954L1040.5175,319.4670563042164L1044.7350000000001,319.41079093515873L1045.94,319.5857719928026L1048.9525,319.85687716305256L1049.555,319.4955355525017L1051.9650000000001,319.41922268271446L1053.17,319.8692908734083L1053.7725,320.01178255677223L1054.9775,319.6008283495903L1055.58,319.628963381052L1056.785,319.5493929684162L1057.3875,320.0001417696476L1061.0025,319.3692580461502L1061.605,319.30725990235806L1062.2075,319.50305043160915L1065.22,319.58557485044L1065.8225,319.5386909544468L1071.2450000000001,319.8373913615942L1071.8474999999999,319.9280815422535L1073.655,319.54614324867725L1074.2575,319.37108083069324L1074.86,319.9028003811836L1076.065,319.67686428129673L1077.27,319.583374992013L1078.475,319.5174934566021L1080.2825,319.42123478651047L1080.885,320.07335825264454L1082.09,319.4056730568409L1082.6925,319.60542833805084L1083.8975,319.69137458503246L1085.1025,319.97057980298996L1085.705,319.6075124144554L1086.91,319.4859960526228L1087.5125,320.0318378806114L1089.9225000000001,319.8432602584362L1090.525,319.51102218031883L1091.73,319.79743717610836L1092.3325,319.60573187470436L1092.935,319.49373310804367L1093.5375,319.63854981958866L1094.7425,319.4051004052162L1095.345,319.5733301192522L1095.9475,319.641896545887L1096.55,319.6119418591261L1098.96,319.5222999751568L1100.165,319.52216228842735L1100.7675,320.0797872841358L1101.3700000000001,320.0153107792139L1102.575,319.5905910283327L1103.78,319.76357562839985L1104.985,319.82017582654953L1106.19,319.8101575523615L1106.7925,319.4152000397444L1107.395,319.62393468618393L1108.6000000000001,319.58192302286625L1109.2025,319.6046053469181L1109.8049999999998,319.63335214555264L1110.4075,319.5644853115082L1111.01,319.76382753252983L1111.6125,319.5248127579689L1112.8174999999999,319.6626575142145L1113.42,319.4272851794958L1115.2275,320.3627241253853L1115.83,319.94459925591946L1117.0349999999999,319.59323523938656L1117.6375,319.3878833055496L1119.445,319.76984037458897L1120.0475,319.74959103763103L1120.65,319.7260466068983L1121.2525,319.678178563714L1121.855,319.65140944719315L1123.06,319.45540300011635L1125.47,319.6217473447323L1126.675,319.53325232863426L1127.2775,319.62591080367565L1127.88,319.84707011282444L1129.6875,319.38476814329624L1130.29,319.90474520623684L1131.495,320.06044386327267L1133.905,320.09027494490147L1134.5075,320.31631430983543L1135.1100000000001,319.42035077512264L1135.7125,319.67986366152763L1136.9175,319.4472106397152L1139.3275,319.6051842570305L1139.93,319.6000335216522L1141.135,319.9374176412821L1141.7375,319.6648104339838L1142.3400000000001,319.3659238368273L1142.9424999999999,319.6187432706356L1144.1475,319.75225245952606L1145.955,319.4940491616726L1146.5575000000001,319.55897940695286L1147.16,319.8455978035927L1147.7625,319.92229713499546L1148.365,319.8228575885296L1150.1725,319.62046122550964L1150.7749999999999,319.9643479138613L1153.185,319.79122875630856L1153.7875000000001,319.7477307021618L1154.9924999999998,319.590479940176L1155.595,319.69924150407314L1156.1975,320.05201211571693L1158.6075,320.402072802186L1160.415,320.48318123817444L1161.6200000000001,320.35014612972736L1163.4275,320.6691193431616L1164.03,320.4668512791395L1164.6325,320.7783659398556L1165.235,319.7178495526314L1165.8375,319.4393562376499L1167.0425,319.79218474030495L1167.645,319.79931785166264L1168.2475,319.67375537753105L1170.055,320.21246096491814L1170.6575,319.84634882211685L1171.8625,319.8570445775986L1172.465,319.6512326449156L1173.0675,319.6061480641365L1174.875,319.90616588294506L1176.08,319.98985750973225L1176.6825,319.5361374914646L1177.285,319.8267159461975L1177.8875,319.5503536462784L1182.105,319.7873297184706L1182.7075,319.61919075250626L1184.515,319.73763263225555L1187.5275000000001,319.86330775916576L1189.9375,320.2608766257763L1191.1425,320.4747416675091L1192.3475,320.6354799717665L1193.5525,320.3492402136326L1194.155,320.65602189302444L1194.7575000000002,320.61087942123413L1195.36,320.3111291527748L1197.77,320.60563011467457L1198.3725,320.55809377133846L1198.9750000000001,320.590655118227L1200.1799999999998,320.6229426562786L1200.7825,320.5547689497471L1201.385,320.55822989344597L1203.795,320.4268235564232L1205,320.43468265235424L1206.205,320.55896839499474L1207.4099999999999,320.5404401421547L1208.0125,320.3999167531729L1209.2175,320.5549113303423L1211.6275,320.51137885451317L1212.8325,320.6539206057787L1213.435,320.7174849361181L1215.2425,320.6255446225405L1217.05,320.55263167619705L1219.46,320.35192197561264L1220.665,320.40656796097755L1221.2675,320.63048100471497L1223.075,320.53978925943375L1225.4850000000001,320.67014260590076L1226.0875,320.6123939752579L1226.69,320.7205625474453L1227.2925,320.5115603506565L1229.1,320.6776042878628L1229.7025,320.5586867630482L1230.305,320.6315871924162L1231.51,320.68425393104553L1232.1125,320.40551809966564L1232.7150000000001,320.7476352006197L1233.92,320.39949430525303L1234.5225,320.5200030505657L1236.33,320.59857523441315L1236.9325000000001,320.6003057062626L1238.1375,320.5929504185915L1239.3425,320.5247720181942L1239.9450000000002,320.5538505166769L1240.5475,320.5223484188318L1244.765,320.7448955476284L1245.3674999999998,320.5819464325905L1245.97,320.7553503513336L1246.5725,320.72711205482483L1250.1875,319.8565908372402L1250.79,319.72913360595703L1251.3925,319.8063868135214L1251.9950000000001,319.89086700975895L1252.5974999999999,319.7415739148855L1253.8025,319.8543878495693L1255.61,319.8962258398533L1257.4175,319.6261674016714L1259.8274999999999,319.8990953564644L1260.43,319.8145337998867L1261.0325,319.88275757431984L1261.635,319.636279553175L1262.2375,319.95498991012573L1263.4425,319.78757536411285L1264.045,319.7417820096016L1266.455,319.9839354157448L1268.2625,319.7848873436451L1268.865,320.0265917032957L1270.6725000000001,319.77833001315594L1271.275,319.6856793612242L1271.8775,320.0913999080658L1272.48,320.0951659530401L1273.0825,319.7362886220217L1274.2875,319.94189715385437L1274.89,319.9262665808201L1275.4925,319.9350315928459L1276.095,319.9705751091242L1276.6975,319.9094202965498L1279.1075,320.687492698431L1279.71,320.0670074522495L1280.3125,319.90321657061577L1282.1200000000001,319.87335263192654L1283.325,319.7365937232971L1283.9275,319.85801933705807L1284.53,319.921258226037L1285.735,319.697966337204L1286.3374999999999,319.9577952772379L1286.94,320.277001619339L1288.145,319.92801739275455L1288.7475,319.6428055912256L1290.5549999999998,320.0468191355467L1291.76,319.9121740311384L1292.965,320.3494811654091L1293.5674999999999,319.7975873798132L1294.7725,319.7048678845167L1296.58,319.7252689898014L1297.7849999999999,319.7313397228718L1298.3875,320.1126584261656L1298.99,320.0319646149874L1300.195,319.9141861349344L1301.4,319.9587700366974L1302.0025,319.91659408807755L1302.605,319.98606173694134L1305.0149999999999,320.09931376576424L1305.6175,320.25863921642303L1306.8225,319.9417438209057L1308.0275,320.1168328374624L1311.04,319.79095181822777L1313.45,319.7541174888611L1314.0525,320.05209973454475L1314.655,320.0305455029011L1315.2575,319.95876690745354L1322.4875,319.8381392508745L1323.6924999999999,319.9428734779358L1324.8975,319.99639293551445" style="fill: none;" fill="none"></path></g></g></g></g></g></g><g transform="translate(50, 378)" clip-path="url(#clip_1)"><clipPath id="clip_1"><rect width="1446" height="22"></rect></clipPath><g><g><line x1="0" y1="0" x2="0" y2="5" style="visibility: inherit;" fill="rgb(0, 0, 0)" stroke="rgb(204, 204, 204)" stroke-width="1px"></line><line x1="120.5" y1="0" x2="120.5" y2="5" style="visibility: inherit;" fill="rgb(0, 0, 0)" stroke="rgb(204, 204, 204)" stroke-width="1px"></line><line x1="241" y1="0" x2="241" y2="5" style="visibility: inherit;" fill="rgb(0, 0, 0)" stroke="rgb(204, 204, 204)" stroke-width="1px"></line><line x1="361.5" y1="0" x2="361.5" y2="5" style="visibility: inherit;" fill="rgb(0, 0, 0)" stroke="rgb(204, 204, 204)" stroke-width="1px"></line><line x1="482" y1="0" x2="482" y2="5" style="visibility: inherit;" fill="rgb(0, 0, 0)" stroke="rgb(204, 204, 204)" stroke-width="1px"></line><line x1="602.5" y1="0" x2="602.5" y2="5" style="visibility: inherit;" fill="rgb(0, 0, 0)" stroke="rgb(204, 204, 204)" stroke-width="1px"></line><line x1="723" y1="0" x2="723" y2="5" style="visibility: inherit;" fill="rgb(0, 0, 0)" stroke="rgb(204, 204, 204)" stroke-width="1px"></line><line x1="843.5" y1="0" x2="843.5" y2="5" style="visibility: inherit;" fill="rgb(0, 0, 0)" stroke="rgb(204, 204, 204)" stroke-width="1px"></line><line x1="964" y1="0" x2="964" y2="5" style="visibility: inherit;" fill="rgb(0, 0, 0)" stroke="rgb(204, 204, 204)" stroke-width="1px"></line><line x1="1084.5" y1="0" x2="1084.5" y2="5" style="visibility: inherit;" fill="rgb(0, 0, 0)" stroke="rgb(204, 204, 204)" stroke-width="1px"></line><line x1="1205" y1="0" x2="1205" y2="5" style="visibility: inherit;" fill="rgb(0, 0, 0)" stroke="rgb(204, 204, 204)" stroke-width="1px"></line><line x1="1325.5" y1="0" x2="1325.5" y2="5" style="visibility: inherit;" fill="rgb(0, 0, 0)" stroke="rgb(204, 204, 204)" stroke-width="1px"></line><line x1="1446" y1="0" x2="1446" y2="5" style="visibility: inherit;" fill="rgb(0, 0, 0)" stroke="rgb(204, 204, 204)" stroke-width="1px"></line></g><g transform="translate(0, 8)"><text x="0" y="0" dx="0em" dy="0.95em" style="text-anchor: middle; visibility: hidden; font-family: Roboto, sans-serif; font-size: 12px; font-weight: 200;" fill="rgb(50, 49, 63)" stroke="none" stroke-width="1px">-200</text><text x="120.5" y="0" dx="0em" dy="0.95em" style="text-anchor: middle; visibility: inherit; font-family: Roboto, sans-serif; font-size: 12px; font-weight: 200;" fill="rgb(50, 49, 63)" stroke="none" stroke-width="1px">0</text><text x="241" y="0" dx="0em" dy="0.95em" style="text-anchor: middle; visibility: inherit; font-family: Roboto, sans-serif; font-size: 12px; font-weight: 200;" fill="rgb(50, 49, 63)" stroke="none" stroke-width="1px">200</text><text x="361.5" y="0" dx="0em" dy="0.95em" style="text-anchor: middle; visibility: inherit; font-family: Roboto, sans-serif; font-size: 12px; font-weight: 200;" fill="rgb(50, 49, 63)" stroke="none" stroke-width="1px">400</text><text x="482" y="0" dx="0em" dy="0.95em" style="text-anchor: middle; visibility: inherit; font-family: Roboto, sans-serif; font-size: 12px; font-weight: 200;" fill="rgb(50, 49, 63)" stroke="none" stroke-width="1px">600</text><text x="602.5" y="0" dx="0em" dy="0.95em" style="text-anchor: middle; visibility: inherit; font-family: Roboto, sans-serif; font-size: 12px; font-weight: 200;" fill="rgb(50, 49, 63)" stroke="none" stroke-width="1px">800</text><text x="723" y="0" dx="0em" dy="0.95em" style="text-anchor: middle; visibility: inherit; font-family: Roboto, sans-serif; font-size: 12px; font-weight: 200;" fill="rgb(50, 49, 63)" stroke="none" stroke-width="1px">1k</text><text x="843.5" y="0" dx="0em" dy="0.95em" style="text-anchor: middle; visibility: inherit; font-family: Roboto, sans-serif; font-size: 12px; font-weight: 200;" fill="rgb(50, 49, 63)" stroke="none" stroke-width="1px">1.2k</text><text x="964" y="0" dx="0em" dy="0.95em" style="text-anchor: middle; visibility: inherit; font-family: Roboto, sans-serif; font-size: 12px; font-weight: 200;" fill="rgb(50, 49, 63)" stroke="none" stroke-width="1px">1.4k</text><text x="1084.5" y="0" dx="0em" dy="0.95em" style="text-anchor: middle; visibility: inherit; font-family: Roboto, sans-serif; font-size: 12px; font-weight: 200;" fill="rgb(50, 49, 63)" stroke="none" stroke-width="1px">1.6k</text><text x="1205" y="0" dx="0em" dy="0.95em" style="text-anchor: middle; visibility: inherit; font-family: Roboto, sans-serif; font-size: 12px; font-weight: 200;" fill="rgb(50, 49, 63)" stroke="none" stroke-width="1px">1.8k</text><text x="1325.5" y="0" dx="0em" dy="0.95em" style="text-anchor: middle; visibility: inherit; font-family: Roboto, sans-serif; font-size: 12px; font-weight: 200;" fill="rgb(50, 49, 63)" stroke="none" stroke-width="1px">2k</text><text x="1446" y="0" dx="0em" dy="0.95em" style="text-anchor: middle; visibility: hidden; font-family: Roboto, sans-serif; font-size: 12px; font-weight: 200;" fill="rgb(50, 49, 63)" stroke="none" stroke-width="1px">2.2k</text></g><line x1="0" y1="0" x2="1446" y2="0" fill="rgb(0, 0, 0)" stroke="rgb(204, 204, 204)" stroke-width="1px"></line></g></g></g></g></svg>