<svg viewBox="0 0 1496 400" xmlns="http://www.w3.org/2000/svg"><g><g><g><g><g><line x1="60" y1="378" x2="55" y2="378" style="visibility: inherit;" fill="rgb(0, 0, 0)" stroke="rgb(204, 204, 204)" stroke-width="1px"></line><line x1="60" y1="348.92307692307696" x2="55" y2="348.92307692307696" style="visibility: inherit;" fill="rgb(0, 0, 0)" stroke="rgb(204, 204, 204)" stroke-width="1px"></line><line x1="60" y1="319.84615384615387" x2="55" y2="319.84615384615387" style="visibility: inherit;" fill="rgb(0, 0, 0)" stroke="rgb(204, 204, 204)" stroke-width="1px"></line><line x1="60" y1="290.7692307692308" x2="55" y2="290.7692307692308" style="visibility: inherit;" fill="rgb(0, 0, 0)" stroke="rgb(204, 204, 204)" stroke-width="1px"></line><line x1="60" y1="261.6923076923077" x2="55" y2="261.6923076923077" style="visibility: inherit;" fill="rgb(0, 0, 0)" stroke="rgb(204, 204, 204)" stroke-width="1px"></line><line x1="60" y1="232.61538461538464" x2="55" y2="232.61538461538464" style="visibility: inherit;" fill="rgb(0, 0, 0)" stroke="rgb(204, 204, 204)" stroke-width="1px"></line><line x1="60" y1="203.53846153846158" x2="55" y2="203.53846153846158" style="visibility: inherit;" fill="rgb(0, 0, 0)" stroke="rgb(204, 204, 204)" stroke-width="1px"></line><line x1="60" y1="174.46153846153848" x2="55" y2="174.46153846153848" style="visibility: inherit;" fill="rgb(0, 0, 0)" stroke="rgb(204, 204, 204)" stroke-width="1px"></line><line x1="60" y1="145.38461538461542" x2="55" y2="145.38461538461542" style="visibility: inherit;" fill="rgb(0, 0, 0)" stroke="rgb(204, 204, 204)" stroke-width="1px"></line><line x1="60" y1="116.30769230769232" x2="55" y2="116.30769230769232" style="visibility: inherit;" fill="rgb(0, 0, 0)" stroke="rgb(204, 204, 204)" stroke-width="1px"></line><line x1="60" y1="87.23076923076925" x2="55" y2="87.23076923076925" style="visibility: inherit;" fill="rgb(0, 0, 0)" stroke="rgb(204, 204, 204)" stroke-width="1px"></line><line x1="60" y1="58.15384615384616" x2="55" y2="58.15384615384616" style="visibility: inherit;" fill="rgb(0, 0, 0)" stroke="rgb(204, 204, 204)" stroke-width="1px"></line><line x1="60" y1="29.076923076923098" x2="55" y2="29.076923076923098" style="visibility: inherit;" fill="rgb(0, 0, 0)" stroke="rgb(204, 204, 204)" stroke-width="1px"></line><line x1="60" y1="0" x2="55" y2="0" style="visibility: inherit;" fill="rgb(0, 0, 0)" stroke="rgb(204, 204, 204)" stroke-width="1px"></line></g><g transform="translate(50, 0)"><text x="0" y="378" dx="0em" dy="0.3em" style="text-anchor: end; visibility: hidden; font-family: Roboto, sans-serif; font-size: 12px; font-weight: 200;" fill="rgb(50, 49, 63)" stroke="none" stroke-width="1px">-0.24</text><text x="0" y="348.92307692307696" dx="0em" dy="0.3em" style="text-anchor: end; visibility: inherit; font-family: Roboto, sans-serif; font-size: 12px; font-weight: 200;" fill="rgb(50, 49, 63)" stroke="none" stroke-width="1px">-0.22</text><text x="0" y="319.84615384615387" dx="0em" dy="0.3em" style="text-anchor: end; visibility: inherit; font-family: Roboto, sans-serif; font-size: 12px; font-weight: 200;" fill="rgb(50, 49, 63)" stroke="none" stroke-width="1px">-0.2</text><text x="0" y="290.7692307692308" dx="0em" dy="0.3em" style="text-anchor: end; visibility: inherit; font-family: Roboto, sans-serif; font-size: 12px; font-weight: 200;" fill="rgb(50, 49, 63)" stroke="none" stroke-width="1px">-0.18</text><text x="0" y="261.6923076923077" dx="0em" dy="0.3em" style="text-anchor: end; visibility: inherit; font-family: Roboto, sans-serif; font-size: 12px; font-weight: 200;" fill="rgb(50, 49, 63)" stroke="none" stroke-width="1px">-0.16</text><text x="0" y="232.61538461538464" dx="0em" dy="0.3em" style="text-anchor: end; visibility: inherit; font-family: Roboto, sans-serif; font-size: 12px; font-weight: 200;" fill="rgb(50, 49, 63)" stroke="none" stroke-width="1px">-0.14</text><text x="0" y="203.53846153846158" dx="0em" dy="0.3em" style="text-anchor: end; visibility: inherit; font-family: Roboto, sans-serif; font-size: 12px; font-weight: 200;" fill="rgb(50, 49, 63)" stroke="none" stroke-width="1px">-0.12</text><text x="0" y="174.46153846153848" dx="0em" dy="0.3em" style="text-anchor: end; visibility: inherit; font-family: Roboto, sans-serif; font-size: 12px; font-weight: 200;" fill="rgb(50, 49, 63)" stroke="none" stroke-width="1px">-0.1</text><text x="0" y="145.38461538461542" dx="0em" dy="0.3em" style="text-anchor: end; visibility: inherit; font-family: Roboto, sans-serif; font-size: 12px; font-weight: 200;" fill="rgb(50, 49, 63)" stroke="none" stroke-width="1px">-0.08</text><text x="0" y="116.30769230769232" dx="0em" dy="0.3em" style="text-anchor: end; visibility: inherit; font-family: Roboto, sans-serif; font-size: 12px; font-weight: 200;" fill="rgb(50, 49, 63)" stroke="none" stroke-width="1px">-0.06</text><text x="0" y="87.23076923076925" dx="0em" dy="0.3em" style="text-anchor: end; visibility: inherit; font-family: Roboto, sans-serif; font-size: 12px; font-weight: 200;" fill="rgb(50, 49, 63)" stroke="none" stroke-width="1px">-0.04</text><text x="0" y="58.15384615384616" dx="0em" dy="0.3em" style="text-anchor: end; visibility: inherit; font-family: Roboto, sans-serif; font-size: 12px; font-weight: 200;" fill="rgb(50, 49, 63)" stroke="none" stroke-width="1px">-0.02</text><text x="0" y="29.076923076923098" dx="0em" dy="0.3em" style="text-anchor: end; visibility: inherit; font-family: Roboto, sans-serif; font-size: 12px; font-weight: 200;" fill="rgb(50, 49, 63)" stroke="none" stroke-width="1px">0</text><text x="0" y="0" dx="0em" dy="0.3em" style="text-anchor: end; visibility: hidden; font-family: Roboto, sans-serif; font-size: 12px; font-weight: 200;" fill="rgb(50, 49, 63)" stroke="none" stroke-width="1px">0.02</text></g><line x1="60" y1="0" x2="60" y2="378" fill="rgb(0, 0, 0)" stroke="rgb(204, 204, 204)" stroke-width="1px"></line></g></g><g transform="translate(60, 0)" clip-path="url(#clip_0)"><clipPath id="clip_0"><rect width="1436" height="378"></rect></clipPath><g><g><g><line x1="0" y1="0" x2="0" y2="378" fill="rgb(0, 0, 0)" stroke="rgb(60, 60, 60)" stroke-width="1px" opacity="0.25"></line><line x1="119.66666666666666" y1="0" x2="119.66666666666666" y2="378" fill="rgb(0, 0, 0)" stroke="rgb(60, 60, 60)" stroke-width="1px" opacity="0.25"></line><line x1="239.33333333333331" y1="0" x2="239.33333333333331" y2="378" fill="rgb(0, 0, 0)" stroke="rgb(60, 60, 60)" stroke-width="1px" opacity="0.25"></line><line x1="359" y1="0" x2="359" y2="378" fill="rgb(0, 0, 0)" stroke="rgb(60, 60, 60)" stroke-width="1px" opacity="0.25"></line><line x1="478.66666666666663" y1="0" x2="478.66666666666663" y2="378" fill="rgb(0, 0, 0)" stroke="rgb(60, 60, 60)" stroke-width="1px" opacity="0.25"></line><line x1="598.3333333333334" y1="0" x2="598.3333333333334" y2="378" fill="rgb(0, 0, 0)" stroke="rgb(60, 60, 60)" stroke-width="1px" opacity="0.25"></line><line x1="718" y1="0" x2="718" y2="378" fill="rgb(0, 0, 0)" stroke="rgb(60, 60, 60)" stroke-width="1px" opacity="0.25"></line><line x1="837.6666666666667" y1="0" x2="837.6666666666667" y2="378" fill="rgb(0, 0, 0)" stroke="rgb(60, 60, 60)" stroke-width="1px" opacity="0.25"></line><line x1="957.3333333333333" y1="0" x2="957.3333333333333" y2="378" fill="rgb(0, 0, 0)" stroke="rgb(60, 60, 60)" stroke-width="1px" opacity="0.25"></line><line x1="1077" y1="0" x2="1077" y2="378" fill="rgb(0, 0, 0)" stroke="rgb(60, 60, 60)" stroke-width="1px" opacity="0.25"></line><line x1="1196.6666666666667" y1="0" x2="1196.6666666666667" y2="378" fill="rgb(0, 0, 0)" stroke="rgb(60, 60, 60)" stroke-width="1px" opacity="0.25"></line><line x1="1316.3333333333333" y1="0" x2="1316.3333333333333" y2="378" fill="rgb(0, 0, 0)" stroke="rgb(60, 60, 60)" stroke-width="1px" opacity="0.25"></line><line x1="1436" y1="0" x2="1436" y2="378" fill="rgb(0, 0, 0)" stroke="rgb(60, 60, 60)" stroke-width="1px" opacity="0.25"></line></g><g><line x1="0" y1="378" x2="1436" y2="378" fill="rgb(0, 0, 0)" stroke="rgb(60, 60, 60)" stroke-width="1px" opacity="0.25"></line><line x1="0" y1="348.92307692307696" x2="1436" y2="348.92307692307696" fill="rgb(0, 0, 0)" stroke="rgb(60, 60, 60)" stroke-width="1px" opacity="0.25"></line><line x1="0" y1="319.84615384615387" x2="1436" y2="319.84615384615387" fill="rgb(0, 0, 0)" stroke="rgb(60, 60, 60)" stroke-width="1px" opacity="0.25"></line><line x1="0" y1="290.7692307692308" x2="1436" y2="290.7692307692308" fill="rgb(0, 0, 0)" stroke="rgb(60, 60, 60)" stroke-width="1px" opacity="0.25"></line><line x1="0" y1="261.6923076923077" x2="1436" y2="261.6923076923077" fill="rgb(0, 0, 0)" stroke="rgb(60, 60, 60)" stroke-width="1px" opacity="0.25"></line><line x1="0" y1="232.61538461538464" x2="1436" y2="232.61538461538464" fill="rgb(0, 0, 0)" stroke="rgb(60, 60, 60)" stroke-width="1px" opacity="0.25"></line><line x1="0" y1="203.53846153846158" x2="1436" y2="203.53846153846158" fill="rgb(0, 0, 0)" stroke="rgb(60, 60, 60)" stroke-width="1px" opacity="0.25"></line><line x1="0" y1="174.46153846153848" x2="1436" y2="174.46153846153848" fill="rgb(0, 0, 0)" stroke="rgb(60, 60, 60)" stroke-width="1px" opacity="0.25"></line><line x1="0" y1="145.38461538461542" x2="1436" y2="145.38461538461542" fill="rgb(0, 0, 0)" stroke="rgb(60, 60, 60)" stroke-width="1px" opacity="0.25"></line><line x1="0" y1="116.30769230769232" x2="1436" y2="116.30769230769232" fill="rgb(0, 0, 0)" stroke="rgb(60, 60, 60)" stroke-width="1px" opacity="0.25"></line><line x1="0" y1="87.23076923076925" x2="1436" y2="87.23076923076925" fill="rgb(0, 0, 0)" stroke="rgb(60, 60, 60)" stroke-width="1px" opacity="0.25"></line><line x1="0" y1="58.15384615384616" x2="1436" y2="58.15384615384616" fill="rgb(0, 0, 0)" stroke="rgb(60, 60, 60)" stroke-width="1px" opacity="0.25"></line><line x1="0" y1="29.076923076923098" x2="1436" y2="29.076923076923098" fill="rgb(0, 0, 0)" stroke="rgb(60, 60, 60)" stroke-width="1px" opacity="0.25"></line><line x1="0" y1="0" x2="1436" y2="0" fill="rgb(0, 0, 0)" stroke="rgb(60, 60, 60)" stroke-width="1px" opacity="0.25"></line></g></g></g><g><g><line x1="0" y1="29.076923076923098" x2="1436" y2="29.076923076923098" fill="rgb(0, 0, 0)" stroke="rgb(153, 153, 153)" stroke-width="1.5px"></line></g></g><g><g><line x1="119.66666666666666" y1="0" x2="119.66666666666666" y2="378" fill="rgb(0, 0, 0)" stroke="rgb(153, 153, 153)" stroke-width="1.5px"></line></g></g><g><g><g><g><g><path stroke="rgb(255, 112, 67)" stroke-width="2px" d="M122.65833333333333,211.60908684363736L123.25666666666666,163.22038562481222L125.64999999999999,173.49085279611444L126.24833333333333,168.59860258836014L127.445,147.8767305520865L128.04333333333335,246.10440753056452L128.64166666666668,139.46000818105847L129.83833333333334,129.74483255239636L130.43666666666667,130.01519922109753L131.035,118.76933229886569L131.63333333333333,116.50033202538124L134.02666666666667,106.9037017822266L139.41166666666666,93.07548654996432L140.01,111.07705395038313L141.20666666666665,108.0045793973483L143.00166666666667,91.05744200486406L143.6,214.52627387413614L144.79666666666665,94.77255733196554L145.99333333333334,89.18705925574673L146.59166666666667,95.57672485938443L147.78833333333333,94.86545254633978L148.98499999999999,95.4540199866662L149.58333333333334,93.13510586665228L151.37833333333333,96.9687665792612L151.97666666666666,90.32051952068625L152.575,85.37350273132328L153.17333333333335,88.8938154073862L153.77166666666668,82.28231048583989L155.56666666666666,80.58385320810174L156.165,103.92828193077675L157.36166666666668,83.19739767221307L158.55833333333334,82.31558638352617L159.15666666666667,90.21514584467963L159.755,86.43209222646861L160.35333333333332,85.78390546945428L162.14833333333334,81.35543808570279L162.74666666666667,104.39761073772726L163.345,96.52439469557544L163.94333333333333,74.1872551257794L165.14000000000001,83.68891041095442L166.935,81.7436568920429L169.92666666666668,92.25052158649153L170.525,82.10622552724986L171.12333333333333,85.13086597736067L171.72166666666666,76.07080958439757L172.32,81.28264705951399L172.91833333333335,84.57072169964133L175.91,88.25810711200423L180.69666666666666,94.84673485389126L182.49166666666665,78.20809276287375L183.09,76.2538270216722L187.2783333333333,76.6718554863563L189.07333333333332,85.56899863023027L190.27,80.09026072575499L190.8683333333333,75.40459838280312L191.46666666666667,102.00243935218228L193.86,86.0591248732347L194.45833333333331,91.02901884225702L195.05666666666667,84.62063554617076L196.85166666666666,87.01788667532115L197.45000000000002,77.83789840111366L199.245,74.86594478900618L201.63833333333332,80.40222226656404L202.83499999999998,79.13704490661625L204.03166666666667,84.89446845421425L204.63,80.88888227022615L205.22833333333332,99.36116497333235L205.82666666666668,85.38736768869256L208.22,71.56053895216724L209.41666666666669,88.21997847923866L211.21166666666667,86.86121265704817L211.81,83.20363690302923L212.40833333333333,75.8617953520555L213.605,70.1639911211454L214.20333333333335,73.39417956425596L214.80166666666668,72.04026647714471L216.5966666666667,67.95703653188853L217.79333333333335,70.63574629563554L218.39166666666665,72.32969746222867L219.58833333333334,68.81735713665304L220.18666666666664,74.42399927286004L221.98166666666665,71.35395108736482L224.97333333333336,86.42169350844165L225.57166666666666,71.70577438061056L226.17,74.28534969916714L227.36666666666665,76.20114018366888L227.965,78.64969165508566L229.16166666666666,70.00246436779318L230.35833333333335,68.92585042806773L230.95666666666665,68.20764563633848L231.555,73.9047566193801L232.1533333333333,76.9661392065195L233.35,76.17133052532492L233.94833333333332,69.99865150451664L238.13666666666666,71.0652133501493L240.53,73.24790426400995L242.92333333333332,63.94590436495271L243.52166666666668,79.73462456923266L244.12,66.33656963935269L246.51333333333332,72.4946904549232L248.30833333333334,75.8895252667941L250.10333333333332,69.75705462235673L250.70166666666668,72.31132639371432L252.49666666666667,62.82214957017167L253.095,72.60214387453523L254.29166666666669,77.39629950890175L254.89,64.29738103426423L255.48833333333334,67.67245828188386L256.685,73.88465243119462L257.28333333333336,79.36373695960415L258.48,67.80348212902365L259.0783333333333,73.23854541778569L259.6766666666667,66.5871787438026L261.4716666666667,74.5709678209745L263.26666666666665,69.46970338087817L266.2583333333333,74.54497102590709L267.455,67.80001588968133L268.65166666666664,71.64303544851451L269.25,72.06349028073825L272.2416666666667,72.43992387331453L274.03666666666663,69.02637136899509L274.635,65.63153655712424L275.23333333333335,63.03705640939569L275.83166666666665,60.74379246051497L277.0283333333333,77.523510492765L279.4216666666667,70.23747539520268L280.61833333333334,77.21570843916675L281.815,69.379927781912L283.01166666666666,70.90853933187633L286.00333333333333,72.07180925515985L287.2,70.32309150695805L289.5933333333333,69.87178714458761L292.585,68.98928260803227L293.7816666666667,63.71539944868824L294.38,67.05269468747653L296.175,76.49958339104286L297.37166666666667,69.11995983123784L297.96999999999997,71.67700459406927L298.5683333333333,71.26798835167519L299.765,75.0111802174495L300.36333333333334,63.430127950815084L300.9616666666667,79.70065542367792L303.355,65.43604065821722L303.9533333333333,74.92452423389143L305.15,64.97537744962253L306.945,67.98511307056135L309.33833333333337,67.73623708578258L309.93666666666667,63.34693820659933L310.535,67.52306336622974L311.1333333333333,68.78616098257213L312.33,71.99763173323413L314.125,72.85067323537974L314.72333333333336,76.01257676344653L315.32166666666666,75.16785423572249L317.1166666666667,71.60802643115706L317.715,64.85925843165472L318.91166666666663,73.17961934896617L322.50166666666667,66.12062292832597L323.6983333333333,68.25963922647333L325.49333333333334,88.28930326608514L326.09166666666664,73.32970751248874L327.2883333333333,78.74917272421031L327.88666666666666,70.67872766348033L330.87833333333333,66.99168887505165L331.4766666666667,69.10921448927661L332.67333333333335,71.91062912574185L333.87,75.72695864163913L334.4683333333333,73.95397721804109L335.06666666666666,80.36513350560118L336.8616666666667,79.69337632105902L337.46,75.34705880972056L339.255,63.86618086007928L339.85333333333335,68.72792816162114L341.05,67.32583434765158L341.6483333333333,69.01077329195466L342.84499999999997,73.91584858527554L345.23833333333334,74.10441200549788L345.8366666666667,75.96578253232516L346.435,71.2659086080698L347.63166666666666,73.32554802527798L348.23,76.48883804908169L350.025,77.90895630763129L350.62333333333333,81.5887159934411L351.2216666666667,82.15440625410815L351.82,70.63158680842474L353.01666666666665,75.83094582190884L353.615,71.7179062183087L354.21333333333337,68.6839069219736L354.81166666666667,70.24475449782153L360.1966666666667,75.94983783135048L360.79499999999996,70.70853732182432L361.9916666666667,83.2771211770865L363.7866666666667,71.49849326793966L367.97499999999997,66.90953900263861L368.5733333333333,82.79219429309553L370.9666666666667,72.24858746161831L371.565,81.28542005098787L372.1633333333333,78.81711101531987L373.36,76.36197368915266L374.5566666666666,85.70799482785739L376.95,87.40991834493785L382.335,92.49489146012529L382.93333333333334,93.13441261878384L383.5316666666667,89.2685158802913L384.13,85.12843960982104L385.32666666666665,100.79445494138278L385.925,83.41091801570013L387.72,96.88211059570317L389.515,84.49550430591292L393.7033333333333,101.34004101386441L394.3016666666667,95.96702340932994L394.90000000000003,109.64896334134616L395.4983333333333,79.72630559481111L396.695,98.11262556222772L397.29333333333335,98.39859030796934L397.8916666666667,90.05500558706431L399.0883333333333,92.25780068911043L399.68666666666667,102.47592764634355L400.285,88.70594523503233L401.4816666666667,76.59247860541714L402.6783333333333,93.92124894949107L403.27666666666664,108.34981683584361L405.66999999999996,113.34120148878833L409.8583333333333,102.40244337228631L411.65333333333336,110.16993911449728L412.2516666666667,101.57123917799731L413.4483333333333,100.66793720538801L414.645,104.7258636034452L416.44,89.18740587968095L423.02166666666665,94.51224275735711L424.81666666666666,94.26544651618374L425.415,89.46193203559292L426.0133333333334,109.38206291198735L427.21,109.7640424875113L428.4066666666667,119.84317324711729L429.005,79.76824709085321L430.20166666666665,100.10709967980019L433.1933333333334,107.68325901031498L433.79166666666663,113.76928204756518L437.38166666666666,99.68456510397105L438.5783333333333,112.27082677987909L439.1766666666667,106.38827199202319L439.77500000000003,113.53773725949802L440.3733333333333,97.07621999887323L440.97166666666664,119.43970298767094L441.57,115.08749286945051L442.16833333333335,107.83300054990329L442.7666666666667,128.17219976278454L443.365,122.05948668259843L443.9633333333333,98.73030941302962L445.16,100.97539263505205L446.95500000000004,139.8648649362418L447.5533333333333,121.03451970907359L448.15166666666664,140.71236045543966L449.34833333333336,96.15974631676308L451.7416666666667,146.0936970343957L452.93833333333333,129.50496878990762L454.135,131.02595461331882L456.52833333333336,154.41752419104947L457.1266666666667,122.35758326603819L457.72499999999997,136.25512328514688L458.9216666666667,142.13871794480545L460.11833333333334,123.44251618018521L461.315,120.8282784682054L462.51166666666666,116.2375910832332L463.11,140.79659007145813L464.905,129.62732703869162L466.1016666666667,124.33576605870176L466.7,143.58968573350174L467.29833333333335,136.49533367156985L467.89666666666665,132.04884184323825L468.495,130.28383277012756L469.0933333333333,129.33096357492303L470.29,131.8644379102267L470.8883333333334,131.04016619462234L473.88,134.41489681830777L474.47833333333335,146.70132879110486L475.675,124.37736093080964L476.2733333333333,110.53077463003306L476.87166666666667,103.82498799837556L478.66666666666663,114.47882124093866L479.86333333333334,127.92124403440036L481.06,126.4103103050819L482.25666666666666,141.80006636106052L483.4533333333333,114.42786752260652L484.65000000000003,122.88895775721625L485.2483333333333,118.44558554429277L485.84666666666664,116.95579587496248L487.6416666666667,109.00458944760837L490.035,123.6979780197144L490.6333333333333,112.27879913036642L491.83000000000004,119.42514478243318L492.4283333333333,113.10723033318153L493.625,127.64949086996226L496.0183333333333,126.58362227219804L499.01,119.47297888535722L503.1983333333333,130.43496080545282L503.7966666666667,109.88328112088718L504.99333333333334,124.98949879866382L505.5916666666667,121.77005569751448L506.19,149.86184582343472L506.7883333333333,120.89587013538069L507.38666666666666,122.5669441223145L507.985,123.26157848651594L509.1816666666666,110.40910962911754L509.78,139.26763189755954L512.1733333333334,138.00557415301984L512.7716666666666,118.61855088747468L513.9683333333334,125.8172367536105L515.165,127.18362830235411L516.96,157.83246319110577L518.1566666666666,122.08097736652083L518.755,162.6592014752902L519.3533333333334,132.0952894504254L521.1483333333333,118.27573981651894L521.7466666666667,157.91357319171613L522.345,160.032485301678L522.9433333333334,116.45943040114184L523.5416666666666,114.03756897266096L524.7383333333333,136.63952922821048L525.3366666666667,131.39268273573657L525.9350000000001,151.94921515538147L527.1316666666667,127.62453394669755L527.73,123.04979126270003L528.3283333333334,154.4920483369094L528.9266666666667,130.29908422323376L529.525,113.24068054786099L530.1233333333333,135.77227614476135L531.32,125.22728281754716L531.9183333333333,148.64242282280557L533.7133333333333,125.06332969665532L536.1066666666667,135.82080349555386L537.9016666666666,132.13757757040173L538.5,125.52884564032925L539.0983333333334,123.74685199444113L540.295,113.68678555121792L540.8933333333333,112.44240562732405L541.4916666666667,128.47098959409274L542.09,122.4480521128728L543.2866666666667,129.7150228940524L543.885,121.49344979799714L544.4833333333333,123.01894173255337L546.8766666666667,142.97130863483136L549.27,120.6435279112596L549.8683333333333,116.55856484633227L551.0649999999999,126.01307927645173L551.6633333333333,130.07065905057468L552.2616666666667,122.56555762657753L552.86,116.17658527080832L553.4583333333334,144.42158317565918L554.0566666666666,154.9263681265024L555.8516666666667,121.63001962808465L556.45,143.01740961808426L560.04,129.19058088155896L561.2366666666667,130.99510508317215L561.835,149.71453065138599L562.4333333333333,148.67153923328107L563.0316666666666,131.1715366656964L564.2283333333334,123.21825049473692L566.0233333333333,122.79467604710509L566.6216666666667,131.48141846290005L568.4166666666666,143.39003034738397L569.015,135.92929678696854L569.6133333333333,122.673704294058L570.8100000000001,126.94757740314192L572.0066666666667,121.7572306119479L573.8016666666667,137.91961141733026L574.4,121.46190701998201L575.5966666666667,140.90127049959628L577.3916666666667,144.9872734363263L577.99,113.35575969402609L578.5883333333333,136.85200969989484L579.785,144.5980147581834L580.3833333333333,136.2360589687641L580.9816666666667,134.8526828472431L582.1783333333333,126.89038445399359L582.7766666666666,126.48414120307339L583.375,109.1595303462102L586.3666666666667,158.1322928942167L588.76,104.0412813333365L589.3583333333333,139.46104805286114L590.555,116.64314108628496L591.7516666666667,135.0478321222159L592.9483333333333,131.6519574385423L593.5466666666666,108.14253572317271L594.145,140.13800459641678L594.7433333333333,120.56935038933388L595.3416666666667,113.53808388343228L595.9399999999999,137.11301752237176L597.1366666666667,154.2882334635808L598.3333333333334,139.0627771524283L599.53,144.90373706817627L601.325,122.06295292194075L602.5216666666666,125.34478833125189L603.12,130.1555819144616L603.7183333333334,151.23794284233682L606.1116666666667,138.5515068494357L607.3083333333333,144.9456785642184L607.9066666666666,123.597457078787L609.1033333333334,148.89199205545282L610.8983333333333,130.2897253770095L612.095,134.47590263073263L612.6933333333334,118.82271238473749L613.2916666666666,157.0289889115554L615.0866666666667,117.63829840146579L616.8816666666667,149.22648415198697L617.48,126.4907270578238L618.6766666666667,141.78308178828314L619.8733333333333,136.89568431560812L621.07,136.67592474130487L624.0616666666666,132.32891398209793L625.2583333333333,128.9985512219943L625.8566666666667,130.7216187990629L626.455,124.1277916981624L627.0533333333333,128.75175498082092L628.8483333333334,129.414499943073L632.4383333333334,137.84890013474686L633.635,127.30113381605884L634.2333333333333,131.12959516965427L634.8316666666667,129.40999383192798L635.43,129.11328374422519L636.0283333333333,146.00946741837723L638.4216666666666,144.89472484588623L639.6183333333333,142.90025072831375L640.2166666666667,128.3222879263071L642.0116666666667,108.4676689734826L642.61,141.2198178951557L643.2083333333334,142.1862054237953L643.8066666666666,144.2905593285194L644.405,149.4569890682514L645.6016666666667,134.11021438011758L646.2,131.29978752136233L646.7983333333334,140.36088378612814L647.3966666666666,116.5242490768433L648.5933333333334,142.02779828585116L650.3883333333333,133.59651770958536L651.585,142.57130461472732L652.1833333333333,153.27158546447754L653.38,163.79682122744052L653.9783333333334,109.80113124847416L655.7733333333333,134.63188340113715L656.3716666666667,143.44895641620343L657.5683333333334,114.89996932103087L658.1666666666666,121.97109757936921L662.355,144.4732301418598L662.9533333333334,140.37370887169473L663.5516666666667,113.38522272843583L664.15,134.20414946629455L664.7483333333333,134.02806450770453L665.3466666666667,132.96566214928262L665.945,117.35857288654036L667.1416666666667,129.90947892115668L667.74,134.47451613499572L668.3383333333333,128.91917434105508L670.1333333333333,125.56489452948941L670.7316666666667,136.16534768618075L671.33,139.99588878338156L671.9283333333333,111.12246168576755L673.125,114.88298474825349L676.715,143.75294560652515L677.3133333333334,134.48630134875958L677.9116666666667,122.23695813692537L679.1083333333333,114.15680760603686L681.5016666666667,168.337248141949L683.2966666666666,131.36495282099798L685.0916666666667,119.12739482292763L687.485,103.37680325141324L689.28,148.44519380422742L689.8783333333333,128.39403908069318L690.4766666666667,138.3605170616737L691.6733333333334,135.7064175972572L692.2716666666666,123.85985139700084L692.87,129.7722158432007L694.665,156.80784284151522L695.2633333333333,142.27598102276144L696.46,129.8287155444806L697.6566666666666,145.8361554512611L698.255,142.16679448347827L699.4516666666666,132.50950505183295L700.6483333333333,130.42560195922854L701.2466666666667,126.54722675910367L702.4433333333334,144.26213616591235L703.64,128.62801023629999L704.2383333333333,129.8280222966121L704.8366666666667,120.9946579566369L705.4350000000001,105.47214493384732L707.23,117.12945446601285L707.8283333333334,142.60977987142712L708.4266666666667,120.88720453702487L710.2216666666667,105.68843826880826L710.82,126.89211757366476L715.6066666666667,147.0788022554838L717.4016666666666,118.11802592644325L718,128.6443015612089L719.1966666666667,123.58393874535194L720.3933333333334,149.62267530881442L720.9916666666667,124.42484840979947L722.7866666666666,153.07123683049133L723.385,129.28486259167013L724.5816666666667,140.20316989605246L725.18,150.62164548727185L725.7783333333333,152.01680682255676L726.3766666666667,126.40164470672612L728.1716666666666,137.20417961707486L732.9583333333333,158.2761418269231L733.5566666666667,150.1991109114427L734.155,133.22805646749646L735.3516666666667,133.3833439900325L736.5483333333334,160.66403410984924L737.1466666666666,169.62564930549038L737.745,128.98780588003308L738.9416666666666,121.47230573800897L740.1383333333333,142.50336632361783L740.7366666666667,126.50632513486423L741.335,129.98088345160855L743.13,108.88361769456132L743.7283333333334,124.8841251226572L744.3266666666666,129.18850113795355L747.3183333333333,138.15670218834512L748.515,136.19411747272198L749.1133333333332,160.57425851088306L750.31,105.49190249809853L750.9083333333334,149.02648214193493L752.105,151.3589145953839L755.695,137.31995201110843L756.2933333333333,136.3573773457454L757.49,142.11168127793533L758.6866666666666,135.63258669926574L761.08,122.7055936960074L762.2766666666668,121.36173270298887L763.4733333333332,122.47994151482216L764.67,129.7375534497775L765.8666666666667,136.58129640725946L767.0633333333334,125.52953888819769L767.6616666666666,158.4629721274743L768.26,144.64862185258133L768.8583333333333,119.04177871117226L769.4566666666667,135.53657186948337L771.85,128.54343399634732L773.0466666666666,119.45044832963212L773.645,135.8544260171744L777.235,148.69892252408542L778.4316666666667,145.7051316041213L779.6283333333334,147.00531798142654L780.2266666666667,146.94812503227823L780.8249999999999,167.7795302317693L784.415,150.35405181004455L786.21,136.1972370881301L787.4066666666666,135.56360853635348L789.2016666666666,122.99537130502557L790.9966666666666,126.71429949540361L791.595,167.4748477935791L792.7916666666667,140.86348849076492L793.39,151.14088814075177L793.9883333333332,122.62517694326549L794.5866666666667,165.3975305557251L795.7833333333334,138.95012437380282L796.3816666666667,131.52162683927097L797.5783333333334,144.12071360074557L798.1766666666666,141.72207597585827L798.775,139.86694467984714L800.57,105.38306258274962L801.1683333333333,130.63600268730752L802.365,156.39917322305536L807.1516666666668,131.47171299274152L807.75,114.89061047480658L808.3483333333332,121.28512881352354L808.9466666666667,136.8707273923434L810.7416666666667,118.90243588961091L811.3399999999999,122.63522903735823L811.9383333333334,134.61489882835977L813.7333333333333,122.04839471670299L814.3316666666667,132.00516722752502L814.93,136.2017431992751L816.725,114.99841051835283L823.905,116.8410633527316L825.6999999999999,140.45897835951587L826.8966666666666,131.2821097007165L827.495,128.83321160536548L828.6916666666666,126.51984346829929L829.29,130.23253242786114L831.085,109.11758885016812L832.88,124.0428688342755L833.4783333333334,131.3198917095478L834.0766666666666,132.04953509110672L834.6750000000001,144.76404762268066L835.2733333333333,140.97960750873273L835.8716666666666,144.6881369810838L836.47,141.77718918140118L837.0683333333333,127.22383667872504L838.265,140.09363673283508L839.4616666666667,117.24141399676985L840.06,174.77682759211615L841.2566666666667,140.0177260912382L842.4533333333334,141.43992409339322L843.65,127.02660766014687L844.2483333333333,107.97962247408357L844.8466666666667,141.35881409278286L845.445,142.33109422830438L846.0433333333333,135.34592870565564L846.6416666666667,134.9265137452346L849.0350000000001,133.0322139446552L852.0266666666668,132.15178915170526L852.625,127.8689038203313L853.8216666666667,133.92685031890872L854.42,118.34367810762849L856.8133333333334,120.51527705559364L857.4116666666666,130.30359033437878L858.01,150.94504561791055L859.2066666666667,158.5745850342971L861.0016666666667,141.8069988397452L862.7966666666666,148.80013671288125L863.9933333333333,143.44791654440075L865.19,146.26804887331454L865.7883333333333,136.4041715768668L866.985,139.5224004892203L867.5833333333333,126.17599252554088L869.3783333333334,128.96388882857104L869.9766666666667,147.19006853837234L870.5749999999999,133.8623782671415L871.7716666666666,168.58404438312238L872.37,136.6849369635949L872.9683333333334,134.101895405696L874.165,127.6442915109488L874.7633333333333,115.56444740295414L875.3616666666667,145.96925904200629L875.96,137.5615488932683L876.5583333333334,137.0811281204224L877.1566666666666,119.27089713169981L880.1483333333333,130.27516717177173L880.7466666666666,146.15435622288635L881.9433333333333,146.78001242417557L884.3366666666667,147.39492328350363L884.935,111.78728639162507L886.1316666666667,130.04743524698114L888.525,132.3684291106004L889.7216666666667,149.13636192908658L890.9183333333333,146.4878084476178L892.115,142.5914088029128L892.7133333333334,133.04330591055066L893.3116666666666,146.68122460291937L893.9100000000001,122.00160048558165L895.1066666666666,126.49557979290304L896.9016666666668,127.44706249237065L897.5,123.82657549931456L898.6966666666667,140.82328011439398L899.295,120.88824440882757L899.8933333333334,121.72603445786699L901.0899999999999,148.33843363248386L903.4833333333333,129.98053682767429L904.68,134.93483271965616L905.2783333333333,148.96131684229925L906.475,125.16801012479343L907.0733333333334,134.1244259614211L908.8683333333333,148.74363701160138L909.4666666666666,121.26883748861461L912.4583333333333,121.10211137624889L913.0566666666667,141.29018255380487L913.655,147.04587298173172L914.2533333333334,129.81103772383472L915.4499999999999,128.19750330998352L916.6466666666666,144.8877923672016L917.245,134.21281506465033L917.8433333333334,140.61773212139425L918.4416666666666,144.10823513911322L919.04,119.82896166581376L919.6383333333333,128.60721280024603L921.4333333333334,136.34940499525806L923.2283333333334,119.01716841184177L924.4250000000001,155.6456127900344L925.6216666666666,121.83730074075555L926.22,138.819100526663L926.8183333333333,145.15919890770547L927.4166666666667,153.33813725985019L928.015,144.6319839037382L930.4083333333334,138.4156302672166L932.8016666666666,114.75542714045599L933.9983333333333,122.96070891160234L934.5966666666667,134.61905831557056L936.3916666666667,160.05640235314004L936.99,143.97651804410495L937.5883333333334,152.81820135850174L939.3833333333333,146.27636784773608L941.1783333333333,139.78340831169717L941.7766666666668,133.12198954362137L942.375,120.87091321211597L943.5716666666667,119.67644713475157L944.17,131.59095162611743L944.7683333333334,135.10918455857498L946.5633333333334,97.5344568399283L947.76,136.34316576444186L948.3583333333333,118.37452763777515L948.9566666666667,107.10335716834439L949.555,167.3455570661105L950.1533333333333,137.005910726694L950.7516666666667,134.68526348700894L951.9483333333334,129.58261255117566L952.5466666666666,134.0083069434533L954.3416666666666,170.84680542579068L957.3333333333333,143.84029483795166L964.5133333333333,133.5604688204252L965.1116666666667,158.52467118776767L965.71,125.45744110987738L966.3083333333334,124.02900387690619L968.7016666666666,148.5086259841919L970.4966666666666,143.6753018452571L971.095,144.03995022406949L972.2916666666667,137.13520145416263L972.89,153.1228837966919L973.4883333333332,137.56536175654486L974.0866666666667,130.9160748261672L975.2833333333334,122.67543741372918L976.48,153.79360110943136L977.0783333333334,119.07020187377934L977.6766666666666,131.62492077167218L978.8733333333333,150.56687890566317L979.4716666666667,143.85173342778137L980.07,171.83572351015536L981.2666666666667,138.89917065547064L982.4633333333334,152.12079400282641L986.0533333333333,155.1173579142644L987.25,174.75429703639105L990.2416666666667,132.05057496290942L990.8399999999999,127.97358424846945L993.2333333333333,149.88368313129132L996.225,153.2507880284236L996.8233333333334,144.5259169798631L999.2166666666666,131.0997855113103L1001.61,144.2399522341215L1003.405,139.64302561833313L1005.1999999999999,133.35249445988586L1005.7983333333334,151.34920912522537L1006.3966666666666,163.50115101154034L1008.1916666666666,128.6411819458008L1008.79,142.3248549974882L1010.585,132.26582842606766L1011.7816666666666,126.41758940770079L1012.38,143.72556231572082L1012.9783333333334,138.60835317464978L1017.1666666666667,150.22164146716779L1017.765,138.38339424133304L1018.3633333333332,132.44226000859192L1018.9616666666667,155.5672757808979L1020.1583333333334,126.91187513791598L1020.7566666666667,141.1522262279804L1021.355,145.9813908797044L1021.9533333333334,128.85296916961673L1022.5516666666666,142.4884614944458L1023.15,122.94684395423306L1023.7483333333333,151.26393963740423L1024.3466666666668,138.34734535217288L1024.945,140.6000543007484L1026.74,127.59507091228781L1027.9366666666667,104.09604791494517L1030.9283333333333,134.0727789952205L1031.5266666666666,140.49953335982104L1032.125,118.18561759361855L1033.3216666666667,139.7126970291138L1037.51,140.3088901959933L1038.7066666666667,150.67849181248596L1041.6983333333335,132.67692441206714L1042.2966666666666,138.2981247535119L1044.69,135.90711285517767L1045.8866666666668,143.09678649902344L1046.485,123.89832665370062L1047.6816666666666,141.26903849381668L1048.28,136.69706880129306L1049.4766666666667,146.62472490163952L1050.075,141.53177943596475L1053.665,146.13945139371432L1054.2633333333333,153.40884854243353L1054.8616666666667,125.21861721919134L1057.8533333333335,120.38633295205926L1058.4516666666666,127.67167480175314L1063.8366666666666,139.05168518653286L1064.435,129.7902402877808L1066.23,150.04763625218322L1066.8283333333334,140.33592686286343L1067.4266666666665,138.22048099224386L1068.6233333333332,126.55901197286754L1069.82,133.9826567723201L1071.0166666666667,140.53246263357312L1072.8116666666667,121.48305107997015L1073.41,137.67593479156497L1074.6066666666666,146.36059746375454L1075.205,158.15863631321838L1076.4016666666666,122.2182404444768L1077.5983333333334,123.85153242257928L1078.1966666666667,131.863398038424L1079.3933333333334,136.04680230067328L1079.9916666666666,165.79718795189493L1082.385,153.68718756162204L1082.9833333333333,139.18062929006726L1084.18,140.89676438845126L1084.7783333333332,154.25738393343417L1085.3766666666668,120.2975972248958L1085.975,143.45034291194037L1087.1716666666666,123.88619481600252L1087.77,132.70916043795077L1088.3683333333333,137.00972358997052L1088.9666666666667,130.34275883894702L1091.36,129.60375661116382L1092.5566666666666,116.32563356252818L1093.155,128.09594249725345L1093.7533333333333,155.12325052114636L1094.95,153.88892269134521L1096.1466666666665,152.95615768432617L1097.3433333333332,142.12485298743619L1098.54,116.26185475862947L1099.1383333333333,122.62621681506819L1099.7366666666667,140.34909857236423L1100.9333333333334,125.30076709160438L1101.5316666666668,138.96364270723788L1102.1299999999999,134.73795032501224L1102.7283333333335,118.92496644533601L1103.3266666666666,159.46783491281366L1103.925,146.06250088031476L1105.1216666666667,136.18025251535272L1105.72,158.19156558697043L1107.515,130.61797824272745L1108.1133333333332,141.75500524961032L1109.31,142.13594495333163L1109.9083333333333,143.49471077552212L1111.7033333333334,124.39989148653474L1112.3016666666665,155.53954586615933L1112.9,145.14602719820468L1113.4983333333332,123.66747511350192L1114.0966666666668,155.25392774435193L1115.2933333333333,140.66937908759488L1117.6866666666667,135.57712686978854L1118.8833333333334,141.90509341313293L1119.4816666666666,140.4742298126221L1120.08,150.92320831005392L1121.875,137.8149309891921L1122.4733333333334,157.60438464238098L1123.67,134.04470245654767L1126.0633333333333,130.65783999516418L1126.6616666666666,155.64491954216592L1127.26,122.50836467742924L1127.8583333333333,141.11167122767523L1129.055,127.3115325340858L1131.4483333333335,131.80516521747296L1132.0466666666666,133.64504506037787L1133.2433333333333,148.61434628413275L1133.8416666666667,122.53262835282548L1134.44,122.8078477566059L1135.0383333333334,138.46554411374606L1136.235,142.83577867654657L1138.03,140.54528771913974L1138.6283333333333,126.36767556117132L1139.2266666666667,158.15101058666525L1139.825,145.1248831382165L1140.4233333333334,133.1535323216365L1142.2183333333332,153.48198619255655L1142.8166666666666,109.07495410625754L1145.21,124.91358815706697L1145.8083333333334,155.8324430905856L1147.0049999999999,148.43583495800314L1147.6033333333335,147.1807096921481L1148.2016666666666,128.75556784409744L1150.595,134.00276096050558L1152.39,131.1812421358549L1153.5866666666666,167.24399625338046L1155.3816666666667,170.86240350283114L1155.98,151.3998162196233L1156.5783333333334,155.61857612316427L1157.1766666666665,147.5644223873432L1157.775,127.39680202190695L1158.9716666666668,137.94006222944995L1159.57,167.77121125734774L1160.1683333333333,145.89334840040942L1161.9633333333334,145.91483908433182L1162.5616666666667,147.2257708035983L1163.7583333333334,139.94493506504944L1164.3566666666666,139.57924681443436L1164.955,144.65278133979214L1166.75,120.43416705498329L1167.9466666666667,141.1165239627545L1168.545,142.03230439699618L1169.1433333333334,131.33999589773327L1169.7416666666666,134.91230216393106L1173.93,127.35382065406216L1174.5283333333332,149.5318598380456L1176.3233333333335,153.1260034121L1179.315,123.3211978032039L1181.7083333333333,144.1560692420373L1182.905,162.5198586537288L1184.1016666666667,137.01007021390475L1185.2983333333334,133.88525544680087L1185.8966666666665,144.2981850550725L1186.4950000000001,110.44099903106694L1187.0933333333332,128.8796592125526L1189.4866666666667,123.82692212324878L1190.085,118.25424913259654L1190.6833333333334,132.7160929166354L1191.8799999999999,120.45115162776068L1192.4783333333335,124.78845691680912L1193.0766666666666,133.09044676560623L1195.47,149.8552599686843L1196.6666666666667,148.14675059685342L1197.8633333333332,125.90423936110278L1199.06,128.17531937819263L1199.6583333333333,140.68844340397766L1200.855,133.19997992882364L1203.2483333333332,145.98589699084943L1204.445,151.92460485605096L1205.0433333333333,143.86386526547946L1206.8383333333334,133.16878377474276L1208.6333333333334,139.67664813995364L1211.0266666666666,138.44578654949484L1212.2233333333334,130.04466225550726L1212.8216666666667,126.60372646038351L1214.6166666666666,134.91334203573376L1217.01,170.65408251835754L1217.6083333333333,161.46022928678073L1218.2066666666667,134.05960728571966L1218.805,130.4048045231746L1220.6,144.0811984722431L1221.1983333333335,142.59972777733438L1221.7966666666666,136.7965498704177L1222.9933333333333,149.7866284297063L1223.5916666666667,138.25029065058783L1224.19,135.51993392064026L1225.3866666666668,150.8178346340473L1225.985,129.21623105269214L1227.78,140.0253518177913L1228.3783333333333,162.03493176973788L1229.575,144.1948911226713L1230.7716666666665,121.18599436833311L1231.3700000000001,148.24727153778076L1231.9683333333332,134.63292327293985L1236.1566666666668,142.011160337008L1236.7549999999999,133.57710676926834L1237.3533333333335,143.42226637326755L1237.9516666666666,130.67343807220462L1241.5416666666667,135.63327994713418L1242.14,144.31516962784988L1242.7383333333332,144.15468274630038L1243.3366666666666,166.75283013857333L1243.935,156.94579916733963L1245.1316666666667,139.16433796515835L1246.9266666666665,129.33962917327884L1248.7216666666668,153.92497158050537L1251.115,140.99555220970743L1251.7133333333334,134.136211175185L1252.3116666666667,122.73436348254866L1252.91,154.35305213928223L1253.5083333333334,150.62268535907452L1254.705,162.59611591925992L1255.3033333333333,127.69212561387285L1257.6966666666667,134.38092767275302L1259.4916666666666,133.1535323216365L1260.09,135.70191148611218L1261.885,147.8843562786396L1262.4833333333333,144.64862185258133L1263.0816666666667,146.19491122319153L1263.68,143.00909064366272L1264.2783333333332,141.55604311136102L1265.475,132.37882782862738L1266.0733333333335,130.92300730485184L1266.6716666666666,137.5126749185416L1267.27,145.0832882661086L1267.8683333333333,162.2935132246751L1270.2616666666668,161.553124501155L1270.86,129.82732904874362L1271.4583333333333,157.29796908451965L1273.2533333333333,161.3708003117488L1274.45,135.553903066195L1275.0483333333334,145.90859985351562L1275.6466666666665,141.90647990886984L1276.8433333333332,162.85643049386834L1277.4416666666666,126.08309731116665L1278.04,143.54150500664346L1279.2366666666667,138.41043090820315L1279.835,145.9588603239793L1281.6299999999999,143.21775825207052L1282.8266666666666,139.83921476510858L1284.0233333333333,134.5365618192233L1284.6216666666667,149.99044330303488L1285.8183333333334,157.27578515272876L1287.6133333333332,131.4914705569928L1288.81,123.49658951392544L1289.4083333333333,140.23991203308108L1290.0066666666667,144.61326621128967L1291.2033333333334,125.78257436018725L1292.4,135.23916853391208L1292.9983333333332,131.2318492302528L1293.5966666666668,141.12761592864993L1295.99,131.0557642716628L1296.5883333333334,150.69235676985522L1297.785,116.90206916515646L1298.9816666666666,135.33171712435214L1301.9733333333334,132.20655573331393L1304.3666666666666,141.42432601635275L1304.965,142.10994815826416L1305.5633333333333,160.1486043196458L1306.1616666666666,136.97298145294192L1313.3416666666667,140.62015848893387L1314.5383333333334,130.39024631793683L1315.735,147.25211422259991" style="fill: none;" fill="none"></path></g></g></g></g></g><g><g opacity="0.0843943"><span fill="rgb(0, 0, 0)" stroke="none" stroke-width="1px">Alt + Scroll to Zoom</span></g></g></g><g transform="translate(60, 378)" clip-path="url(#clip_1)"><clipPath id="clip_1"><rect width="1436" height="22"></rect></clipPath><g><g><line x1="0" y1="0" x2="0" y2="5" style="visibility: inherit;" fill="rgb(0, 0, 0)" stroke="rgb(204, 204, 204)" stroke-width="1px"></line><line x1="119.66666666666666" y1="0" x2="119.66666666666666" y2="5" style="visibility: inherit;" fill="rgb(0, 0, 0)" stroke="rgb(204, 204, 204)" stroke-width="1px"></line><line x1="239.33333333333331" y1="0" x2="239.33333333333331" y2="5" style="visibility: inherit;" fill="rgb(0, 0, 0)" stroke="rgb(204, 204, 204)" stroke-width="1px"></line><line x1="359" y1="0" x2="359" y2="5" style="visibility: inherit;" fill="rgb(0, 0, 0)" stroke="rgb(204, 204, 204)" stroke-width="1px"></line><line x1="478.66666666666663" y1="0" x2="478.66666666666663" y2="5" style="visibility: inherit;" fill="rgb(0, 0, 0)" stroke="rgb(204, 204, 204)" stroke-width="1px"></line><line x1="598.3333333333334" y1="0" x2="598.3333333333334" y2="5" style="visibility: inherit;" fill="rgb(0, 0, 0)" stroke="rgb(204, 204, 204)" stroke-width="1px"></line><line x1="718" y1="0" x2="718" y2="5" style="visibility: inherit;" fill="rgb(0, 0, 0)" stroke="rgb(204, 204, 204)" stroke-width="1px"></line><line x1="837.6666666666667" y1="0" x2="837.6666666666667" y2="5" style="visibility: inherit;" fill="rgb(0, 0, 0)" stroke="rgb(204, 204, 204)" stroke-width="1px"></line><line x1="957.3333333333333" y1="0" x2="957.3333333333333" y2="5" style="visibility: inherit;" fill="rgb(0, 0, 0)" stroke="rgb(204, 204, 204)" stroke-width="1px"></line><line x1="1077" y1="0" x2="1077" y2="5" style="visibility: inherit;" fill="rgb(0, 0, 0)" stroke="rgb(204, 204, 204)" stroke-width="1px"></line><line x1="1196.6666666666667" y1="0" x2="1196.6666666666667" y2="5" style="visibility: inherit;" fill="rgb(0, 0, 0)" stroke="rgb(204, 204, 204)" stroke-width="1px"></line><line x1="1316.3333333333333" y1="0" x2="1316.3333333333333" y2="5" style="visibility: inherit;" fill="rgb(0, 0, 0)" stroke="rgb(204, 204, 204)" stroke-width="1px"></line><line x1="1436" y1="0" x2="1436" y2="5" style="visibility: inherit;" fill="rgb(0, 0, 0)" stroke="rgb(204, 204, 204)" stroke-width="1px"></line></g><g transform="translate(0, 8)"><text x="0" y="0" dx="0em" dy="0.95em" style="text-anchor: middle; visibility: hidden; font-family: Roboto, sans-serif; font-size: 12px; font-weight: 200;" fill="rgb(50, 49, 63)" stroke="none" stroke-width="1px">-200</text><text x="119.66666666666666" y="0" dx="0em" dy="0.95em" style="text-anchor: middle; visibility: inherit; font-family: Roboto, sans-serif; font-size: 12px; font-weight: 200;" fill="rgb(50, 49, 63)" stroke="none" stroke-width="1px">0</text><text x="239.33333333333331" y="0" dx="0em" dy="0.95em" style="text-anchor: middle; visibility: inherit; font-family: Roboto, sans-serif; font-size: 12px; font-weight: 200;" fill="rgb(50, 49, 63)" stroke="none" stroke-width="1px">200</text><text x="359" y="0" dx="0em" dy="0.95em" style="text-anchor: middle; visibility: inherit; font-family: Roboto, sans-serif; font-size: 12px; font-weight: 200;" fill="rgb(50, 49, 63)" stroke="none" stroke-width="1px">400</text><text x="478.66666666666663" y="0" dx="0em" dy="0.95em" style="text-anchor: middle; visibility: inherit; font-family: Roboto, sans-serif; font-size: 12px; font-weight: 200;" fill="rgb(50, 49, 63)" stroke="none" stroke-width="1px">600</text><text x="598.3333333333334" y="0" dx="0em" dy="0.95em" style="text-anchor: middle; visibility: inherit; font-family: Roboto, sans-serif; font-size: 12px; font-weight: 200;" fill="rgb(50, 49, 63)" stroke="none" stroke-width="1px">800</text><text x="718" y="0" dx="0em" dy="0.95em" style="text-anchor: middle; visibility: inherit; font-family: Roboto, sans-serif; font-size: 12px; font-weight: 200;" fill="rgb(50, 49, 63)" stroke="none" stroke-width="1px">1k</text><text x="837.6666666666667" y="0" dx="0em" dy="0.95em" style="text-anchor: middle; visibility: inherit; font-family: Roboto, sans-serif; font-size: 12px; font-weight: 200;" fill="rgb(50, 49, 63)" stroke="none" stroke-width="1px">1.2k</text><text x="957.3333333333333" y="0" dx="0em" dy="0.95em" style="text-anchor: middle; visibility: inherit; font-family: Roboto, sans-serif; font-size: 12px; font-weight: 200;" fill="rgb(50, 49, 63)" stroke="none" stroke-width="1px">1.4k</text><text x="1077" y="0" dx="0em" dy="0.95em" style="text-anchor: middle; visibility: inherit; font-family: Roboto, sans-serif; font-size: 12px; font-weight: 200;" fill="rgb(50, 49, 63)" stroke="none" stroke-width="1px">1.6k</text><text x="1196.6666666666667" y="0" dx="0em" dy="0.95em" style="text-anchor: middle; visibility: inherit; font-family: Roboto, sans-serif; font-size: 12px; font-weight: 200;" fill="rgb(50, 49, 63)" stroke="none" stroke-width="1px">1.8k</text><text x="1316.3333333333333" y="0" dx="0em" dy="0.95em" style="text-anchor: middle; visibility: inherit; font-family: Roboto, sans-serif; font-size: 12px; font-weight: 200;" fill="rgb(50, 49, 63)" stroke="none" stroke-width="1px">2k</text><text x="1436" y="0" dx="0em" dy="0.95em" style="text-anchor: middle; visibility: hidden; font-family: Roboto, sans-serif; font-size: 12px; font-weight: 200;" fill="rgb(50, 49, 63)" stroke="none" stroke-width="1px">2.2k</text></g><line x1="0" y1="0" x2="1436" y2="0" fill="rgb(0, 0, 0)" stroke="rgb(204, 204, 204)" stroke-width="1px"></line></g></g></g></g></svg>