<svg viewBox="0 0 1496 400" xmlns="http://www.w3.org/2000/svg"><g><g><g><g><g><line x1="51.5625" y1="378" x2="46.5625" y2="378" style="visibility: inherit;" fill="rgb(0, 0, 0)" stroke="rgb(204, 204, 204)" stroke-width="1px"></line><line x1="51.5625" y1="346.5" x2="46.5625" y2="346.5" style="visibility: inherit;" fill="rgb(0, 0, 0)" stroke="rgb(204, 204, 204)" stroke-width="1px"></line><line x1="51.5625" y1="315" x2="46.5625" y2="315" style="visibility: inherit;" fill="rgb(0, 0, 0)" stroke="rgb(204, 204, 204)" stroke-width="1px"></line><line x1="51.5625" y1="283.5" x2="46.5625" y2="283.5" style="visibility: inherit;" fill="rgb(0, 0, 0)" stroke="rgb(204, 204, 204)" stroke-width="1px"></line><line x1="51.5625" y1="252.00000000000003" x2="46.5625" y2="252.00000000000003" style="visibility: inherit;" fill="rgb(0, 0, 0)" stroke="rgb(204, 204, 204)" stroke-width="1px"></line><line x1="51.5625" y1="220.49999999999997" x2="46.5625" y2="220.49999999999997" style="visibility: inherit;" fill="rgb(0, 0, 0)" stroke="rgb(204, 204, 204)" stroke-width="1px"></line><line x1="51.5625" y1="189" x2="46.5625" y2="189" style="visibility: inherit;" fill="rgb(0, 0, 0)" stroke="rgb(204, 204, 204)" stroke-width="1px"></line><line x1="51.5625" y1="157.5" x2="46.5625" y2="157.5" style="visibility: inherit;" fill="rgb(0, 0, 0)" stroke="rgb(204, 204, 204)" stroke-width="1px"></line><line x1="51.5625" y1="126.00000000000001" x2="46.5625" y2="126.00000000000001" style="visibility: inherit;" fill="rgb(0, 0, 0)" stroke="rgb(204, 204, 204)" stroke-width="1px"></line><line x1="51.5625" y1="94.5" x2="46.5625" y2="94.5" style="visibility: inherit;" fill="rgb(0, 0, 0)" stroke="rgb(204, 204, 204)" stroke-width="1px"></line><line x1="51.5625" y1="62.999999999999986" x2="46.5625" y2="62.999999999999986" style="visibility: inherit;" fill="rgb(0, 0, 0)" stroke="rgb(204, 204, 204)" stroke-width="1px"></line><line x1="51.5625" y1="31.500000000000014" x2="46.5625" y2="31.500000000000014" style="visibility: inherit;" fill="rgb(0, 0, 0)" stroke="rgb(204, 204, 204)" stroke-width="1px"></line><line x1="51.5625" y1="0" x2="46.5625" y2="0" style="visibility: inherit;" fill="rgb(0, 0, 0)" stroke="rgb(204, 204, 204)" stroke-width="1px"></line></g><g transform="translate(41.5625, 0)"><text x="0" y="378" dx="0em" dy="0.3em" style="text-anchor: end; visibility: hidden; font-family: Roboto, sans-serif; font-size: 12px; font-weight: 200;" fill="rgb(50, 49, 63)" stroke="none" stroke-width="1px">-0.5</text><text x="0" y="346.5" dx="0em" dy="0.3em" style="text-anchor: end; visibility: inherit; font-family: Roboto, sans-serif; font-size: 12px; font-weight: 200;" fill="rgb(50, 49, 63)" stroke="none" stroke-width="1px">0</text><text x="0" y="315" dx="0em" dy="0.3em" style="text-anchor: end; visibility: inherit; font-family: Roboto, sans-serif; font-size: 12px; font-weight: 200;" fill="rgb(50, 49, 63)" stroke="none" stroke-width="1px">0.5</text><text x="0" y="283.5" dx="0em" dy="0.3em" style="text-anchor: end; visibility: inherit; font-family: Roboto, sans-serif; font-size: 12px; font-weight: 200;" fill="rgb(50, 49, 63)" stroke="none" stroke-width="1px">1</text><text x="0" y="252.00000000000003" dx="0em" dy="0.3em" style="text-anchor: end; visibility: inherit; font-family: Roboto, sans-serif; font-size: 12px; font-weight: 200;" fill="rgb(50, 49, 63)" stroke="none" stroke-width="1px">1.5</text><text x="0" y="220.49999999999997" dx="0em" dy="0.3em" style="text-anchor: end; visibility: inherit; font-family: Roboto, sans-serif; font-size: 12px; font-weight: 200;" fill="rgb(50, 49, 63)" stroke="none" stroke-width="1px">2</text><text x="0" y="189" dx="0em" dy="0.3em" style="text-anchor: end; visibility: inherit; font-family: Roboto, sans-serif; font-size: 12px; font-weight: 200;" fill="rgb(50, 49, 63)" stroke="none" stroke-width="1px">2.5</text><text x="0" y="157.5" dx="0em" dy="0.3em" style="text-anchor: end; visibility: inherit; font-family: Roboto, sans-serif; font-size: 12px; font-weight: 200;" fill="rgb(50, 49, 63)" stroke="none" stroke-width="1px">3</text><text x="0" y="126.00000000000001" dx="0em" dy="0.3em" style="text-anchor: end; visibility: inherit; font-family: Roboto, sans-serif; font-size: 12px; font-weight: 200;" fill="rgb(50, 49, 63)" stroke="none" stroke-width="1px">3.5</text><text x="0" y="94.5" dx="0em" dy="0.3em" style="text-anchor: end; visibility: inherit; font-family: Roboto, sans-serif; font-size: 12px; font-weight: 200;" fill="rgb(50, 49, 63)" stroke="none" stroke-width="1px">4</text><text x="0" y="62.999999999999986" dx="0em" dy="0.3em" style="text-anchor: end; visibility: inherit; font-family: Roboto, sans-serif; font-size: 12px; font-weight: 200;" fill="rgb(50, 49, 63)" stroke="none" stroke-width="1px">4.5</text><text x="0" y="31.500000000000014" dx="0em" dy="0.3em" style="text-anchor: end; visibility: inherit; font-family: Roboto, sans-serif; font-size: 12px; font-weight: 200;" fill="rgb(50, 49, 63)" stroke="none" stroke-width="1px">5</text><text x="0" y="0" dx="0em" dy="0.3em" style="text-anchor: end; visibility: hidden; font-family: Roboto, sans-serif; font-size: 12px; font-weight: 200;" fill="rgb(50, 49, 63)" stroke="none" stroke-width="1px">5.5</text></g><line x1="51.5625" y1="0" x2="51.5625" y2="378" fill="rgb(0, 0, 0)" stroke="rgb(204, 204, 204)" stroke-width="1px"></line></g></g><g transform="translate(51, 0)" clip-path="url(#clip_0)"><clipPath id="clip_0"><rect width="1444" height="378"></rect></clipPath><g><g><g><line x1="0" y1="0" x2="0" y2="378" fill="rgb(0, 0, 0)" stroke="rgb(60, 60, 60)" stroke-width="1px" opacity="0.25"></line><line x1="120.36979166666666" y1="0" x2="120.36979166666666" y2="378" fill="rgb(0, 0, 0)" stroke="rgb(60, 60, 60)" stroke-width="1px" opacity="0.25"></line><line x1="240.73958333333331" y1="0" x2="240.73958333333331" y2="378" fill="rgb(0, 0, 0)" stroke="rgb(60, 60, 60)" stroke-width="1px" opacity="0.25"></line><line x1="361.109375" y1="0" x2="361.109375" y2="378" fill="rgb(0, 0, 0)" stroke="rgb(60, 60, 60)" stroke-width="1px" opacity="0.25"></line><line x1="481.47916666666663" y1="0" x2="481.47916666666663" y2="378" fill="rgb(0, 0, 0)" stroke="rgb(60, 60, 60)" stroke-width="1px" opacity="0.25"></line><line x1="601.8489583333334" y1="0" x2="601.8489583333334" y2="378" fill="rgb(0, 0, 0)" stroke="rgb(60, 60, 60)" stroke-width="1px" opacity="0.25"></line><line x1="722.21875" y1="0" x2="722.21875" y2="378" fill="rgb(0, 0, 0)" stroke="rgb(60, 60, 60)" stroke-width="1px" opacity="0.25"></line><line x1="842.5885416666667" y1="0" x2="842.5885416666667" y2="378" fill="rgb(0, 0, 0)" stroke="rgb(60, 60, 60)" stroke-width="1px" opacity="0.25"></line><line x1="962.9583333333333" y1="0" x2="962.9583333333333" y2="378" fill="rgb(0, 0, 0)" stroke="rgb(60, 60, 60)" stroke-width="1px" opacity="0.25"></line><line x1="1083.328125" y1="0" x2="1083.328125" y2="378" fill="rgb(0, 0, 0)" stroke="rgb(60, 60, 60)" stroke-width="1px" opacity="0.25"></line><line x1="1203.6979166666667" y1="0" x2="1203.6979166666667" y2="378" fill="rgb(0, 0, 0)" stroke="rgb(60, 60, 60)" stroke-width="1px" opacity="0.25"></line><line x1="1324.0677083333333" y1="0" x2="1324.0677083333333" y2="378" fill="rgb(0, 0, 0)" stroke="rgb(60, 60, 60)" stroke-width="1px" opacity="0.25"></line><line x1="1444.4375" y1="0" x2="1444.4375" y2="378" fill="rgb(0, 0, 0)" stroke="rgb(60, 60, 60)" stroke-width="1px" opacity="0.25"></line></g><g><line x1="0" y1="378" x2="1444.4375" y2="378" fill="rgb(0, 0, 0)" stroke="rgb(60, 60, 60)" stroke-width="1px" opacity="0.25"></line><line x1="0" y1="346.5" x2="1444.4375" y2="346.5" fill="rgb(0, 0, 0)" stroke="rgb(60, 60, 60)" stroke-width="1px" opacity="0.25"></line><line x1="0" y1="315" x2="1444.4375" y2="315" fill="rgb(0, 0, 0)" stroke="rgb(60, 60, 60)" stroke-width="1px" opacity="0.25"></line><line x1="0" y1="283.5" x2="1444.4375" y2="283.5" fill="rgb(0, 0, 0)" stroke="rgb(60, 60, 60)" stroke-width="1px" opacity="0.25"></line><line x1="0" y1="252.00000000000003" x2="1444.4375" y2="252.00000000000003" fill="rgb(0, 0, 0)" stroke="rgb(60, 60, 60)" stroke-width="1px" opacity="0.25"></line><line x1="0" y1="220.49999999999997" x2="1444.4375" y2="220.49999999999997" fill="rgb(0, 0, 0)" stroke="rgb(60, 60, 60)" stroke-width="1px" opacity="0.25"></line><line x1="0" y1="189" x2="1444.4375" y2="189" fill="rgb(0, 0, 0)" stroke="rgb(60, 60, 60)" stroke-width="1px" opacity="0.25"></line><line x1="0" y1="157.5" x2="1444.4375" y2="157.5" fill="rgb(0, 0, 0)" stroke="rgb(60, 60, 60)" stroke-width="1px" opacity="0.25"></line><line x1="0" y1="126.00000000000001" x2="1444.4375" y2="126.00000000000001" fill="rgb(0, 0, 0)" stroke="rgb(60, 60, 60)" stroke-width="1px" opacity="0.25"></line><line x1="0" y1="94.5" x2="1444.4375" y2="94.5" fill="rgb(0, 0, 0)" stroke="rgb(60, 60, 60)" stroke-width="1px" opacity="0.25"></line><line x1="0" y1="62.999999999999986" x2="1444.4375" y2="62.999999999999986" fill="rgb(0, 0, 0)" stroke="rgb(60, 60, 60)" stroke-width="1px" opacity="0.25"></line><line x1="0" y1="31.500000000000014" x2="1444.4375" y2="31.500000000000014" fill="rgb(0, 0, 0)" stroke="rgb(60, 60, 60)" stroke-width="1px" opacity="0.25"></line><line x1="0" y1="0" x2="1444.4375" y2="0" fill="rgb(0, 0, 0)" stroke="rgb(60, 60, 60)" stroke-width="1px" opacity="0.25"></line></g></g></g><g><g><line x1="0" y1="346.5" x2="1444.4375" y2="346.5" fill="rgb(0, 0, 0)" stroke="rgb(153, 153, 153)" stroke-width="1.5px"></line></g></g><g><g><line x1="120.36979166666666" y1="0" x2="120.36979166666666" y2="378" fill="rgb(0, 0, 0)" stroke="rgb(153, 153, 153)" stroke-width="1.5px"></line></g></g><g><g><g><g><g><path stroke="rgb(255, 112, 67)" stroke-width="2px" d="M123.37903645833333,133.6798553466797L123.98088541666667,124.32362151145934L126.38828124999999,151.03871726989746L126.99013020833334,119.36508178710938L128.19382812499998,167.65820145606995L128.79567708333335,75.75397682189943L129.39752604166668,142.32888507843018L130.60122395833335,190.1193480491638L131.20307291666666,220.49773192405704L131.804921875,237.54780507087708L132.40677083333333,228.56179332733151L134.81416666666667,202.57459974288938L140.23080729166665,235.45904231071472L140.83265625,228.588529586792L142.03635416666665,239.35137605667114L143.84190104166666,248.38877248764035L144.44375,109.87920713424684L145.64744791666666,258.55709767341614L146.85114583333333,227.29740858078006L147.45299479166667,252.9636769294739L148.65669270833334,260.8212983608246L149.86039062499998,249.9060401916504L150.46223958333334,258.13753366470337L152.26778645833335,227.72524881362915L152.86963541666668,231.48352575302124L153.471484375,294.72724628448486L154.07333333333335,228.29968786239624L154.67518229166666,274.17346143722534L156.48072916666666,284.42614102363586L157.082578125,261.88516116142273L158.28627604166667,247.7452397346497L159.48997395833334,253.62778759002688L160.09182291666667,294.03802156448364L160.693671875,245.46660447120664L161.29552083333334,296.01138281822205L163.10106770833332,233.56607007980347L163.70291666666665,259.74258041381836L164.30476562500002,276.06431579589844L164.90661458333332,287.37438440322876L166.11031250000002,268.9092721939087L167.915859375,278.49087166786194L170.92510416666667,216.21231508255005L171.526953125,290.2594220638275L172.12880208333334,243.45410013198853L172.73065104166668,292.4414613246918L173.33249999999998,295.3385603427887L173.93434895833335,258.6120271682739L176.94359375,274.3347952365875L181.75838541666664,257.38734126091003L183.56393229166665,271.3568866252899L184.16578125,285.00220227241516L188.37872395833332,262.42185401916504L190.18427083333333,282.87800645828247L191.38796875,285.3161880970001L191.9898177083333,279.3101727962494L192.59166666666667,272.98106932640076L194.9990625,273.2586908340454L195.60091145833331,218.65339565277097L196.20276041666668,284.8723211288452L198.00830729166668,258.27129006385803L198.61015625000002,244.12561583518985L200.41570312500002,278.29218220710754L202.82309895833333,288.03478503227234L204.02679687499997,292.69951128959656L205.23049479166667,225.287983417511L205.83234374999998,246.93876600265503L206.43419270833334,255.39957547187805L207.03604166666668,285.26025223731995L209.4434375,267.8923330307007L210.64713541666669,260.43915009498596L212.4526822916667,273.31672954559326L213.05453125,276.17666816711426L213.65638020833333,226.10729956626895L214.860078125,266.9092047214508L215.46192708333334,292.02485632896423L216.06377604166667,270.97161412239075L217.86932291666668,303.9808909893036L219.07302083333335,291.3457703590393L219.67486979166665,263.0736780166626L220.87856770833335,296.63095808029175L221.48041666666666,293.55748987197876L223.28596354166666,285.6717953681946L226.29520833333333,287.0922417640686L226.89705729166664,271.5202031135559L227.49890625,277.25361371040344L228.70260416666665,252.9250595569611L229.304453125,294.6916329860687L230.50815104166665,284.65225768089294L231.71184895833335,294.6655876636505L232.31369791666665,279.5919699668884L232.91554687500002,279.96698355674744L233.51739583333332,293.04033851623535L234.72109375,282.7980980873108L235.32294270833333,276.53750252723694L239.53588541666667,296.137193441391L241.94328125,284.0304443836212L244.35067708333332,300.46668004989624L244.95252604166666,283.94146370887756L245.55437500000002,298.5413839817047L247.96177083333333,302.45024013519287L249.76731770833334,268.8088610172272L251.57286458333334,292.1234350204468L252.17471354166668,285.112256526947L253.98026041666668,277.9382722377777L254.582109375,305.85259437561035L255.78580729166669,273.1548099517822L256.38765624999996,295.1666672229767L256.98950520833336,290.87419080734253L258.19320312499997,266.3297338485718L258.79505208333336,296.95777130126953L259.99875,304.47773480415344L260.60059895833336,291.59300565719604L261.2024479166667,282.95845556259155L263.0079947916667,297.7335133552551L264.81354166666665,285.22277641296387L267.8227864583333,300.7905492782593L269.026484375,288.63246059417725L270.23018229166667,301.8702435493469L270.83203125,314.4269428253174L273.8412760416667,290.32462549209595L275.6468229166667,307.51091837882996L276.248671875,279.11280512809753L276.85052083333335,300.6281940937042L277.4523697916667,307.0258355140686L278.6560677083333,304.0663719177246L281.06346354166664,305.1384057998657L282.2671614583333,301.68103194236755L283.47085937500003,300.22192311286926L284.67455729166664,307.52096700668335L287.6838020833333,317.17184042930603L288.8875,306.141991853714L291.2948958333333,313.2555642127991L294.304140625,307.97028636932373L295.5078385416667,315.78538513183594L296.1096875,301.64594435691833L297.915234375,305.47547793388367L299.1189322916667,298.55239391326904L299.72078124999996,302.31011509895325L300.32263020833335,304.4344310760498L301.52632812499996,276.7893340587616L302.12817708333336,310.28555631637573L302.7300260416667,292.9154591560364L305.137421875,319.84492564201355L305.73927083333336,298.99555492401123L306.94296875,290.5622777938843L308.748515625,307.1957309246063L311.1559114583333,297.934020280838L311.75776041666666,303.824453830719L312.359609375,304.40877628326416L312.9614583333333,312.93755292892456L314.16515625,298.2467143535614L315.970703125,307.97036147117615L316.57255208333333,305.9810335636139L317.17440104166667,306.9996099472046L318.9799479166667,300.75474071502686L319.581796875,316.790052652359L320.7854947916667,299.49432134628296L324.3965885416667,325.11323046684265L325.6002864583333,295.76348662376404L327.4058333333333,288.430917263031L328.00768229166664,309.34349370002747L329.2113802083333,303.2747383117676L329.81322916666664,316.20816349983215L332.8224739583333,313.4950039386749L333.42432291666665,311.1801846027374L334.6280208333333,298.61046266555786L335.83171875,309.8998181819916L336.4335677083333,320.0074610710144L337.03541666666666,318.94887042045593L338.84096354166667,315.75244545936584L339.4428125,311.9525771141052L341.248359375,313.3156006336212L341.85020833333334,309.0107023715973L343.05390625,308.2047543525696L343.65575520833335,306.1228859424591L344.85945312499996,310.86798620224L347.26684895833336,309.4954397678375L347.8686979166667,324.2380836009979L348.47054687499997,286.5608811378479L349.6742447916667,300.3769633769989L350.27609375,299.06268095970154L352.081640625,305.60711646080017L352.6834895833333,298.15880012512207L353.2853385416667,324.1155173778534L353.8871875,311.26921033859253L355.09088541666665,300.492214679718L355.692734375,313.5336513519287L356.2945833333333,320.55262541770935L356.89643229166666,303.77644872665405L362.31307291666667,313.8363268375397L362.91492187499995,306.5071220397949L364.1186197916667,307.4583921432495L365.9241666666667,317.7755992412567L370.13710937499997,322.1537218093872L370.7389583333333,315.7412703037262L373.1463541666667,316.439492225647L373.748203125,308.8798449039459L374.3500520833333,321.83438873291016L375.55375000000004,304.5906879901886L376.75744791666665,305.4093132019043L379.16484375,305.38247179985046L384.581484375,319.5514726638794L385.18333333333334,305.85340547561646L385.7851822916667,313.4941327571869L386.38703125,322.33715057373047L387.5907291666666,301.3578085899353L388.192578125,315.55078196525574L389.998125,303.0430040359497L391.80367187499996,309.73735785484314L396.01661458333336,317.8358008861542L396.6184635416667,310.8077394962311L397.22031250000003,309.72196197509766L397.8221614583333,312.3882579803467L399.025859375,314.09021615982056L399.6277083333333,315.73054575920105L400.2295572916667,304.7044973373413L401.4332552083333,309.3858962059021L402.03510416666666,309.6929576396942L402.636953125,321.1687910556793L403.8406510416667,315.63970255851746L405.04434895833333,298.2339770793915L405.64619791666667,306.8348665237427L408.05359374999995,319.8366644382477L412.2665364583333,318.27308893203735L414.07208333333335,309.5553410053253L414.6739322916667,300.50221824645996L415.8776302083333,312.75364351272583L417.081328125,306.49037432670593L418.886875,307.32317876815796L425.50721354166666,310.1257395744324L427.31276041666666,325.2568852901459L427.914609375,309.62369871139526L428.5164583333334,313.30660343170166L429.72015625,313.36052656173706L430.9238541666667,316.7093632221222L431.525703125,323.3580400943756L432.7294010416666,305.32384729385376L435.73864583333335,316.2457745075226L436.34049479166663,314.11384320259094L439.95158854166664,312.4409945011139L441.15528645833336,315.89856362342834L441.7571354166667,314.1021873950958L442.35898437500003,314.7170913219452L442.9608333333333,322.39389753341675L443.56268229166665,311.30817317962646L444.16453125,305.88020181655884L444.7663802083333,318.4843955039978L445.3682291666667,324.5851593017578L445.97007812500004,312.84248900413513L446.5719270833333,323.14853596687317L447.775625,310.35900592803955L449.58117187500005,310.7194948196411L450.18302083333333,308.9356155395508L450.78486979166667,315.2654700279236L451.98856770833333,316.87188363075256L454.3959635416667,297.15102338790894L455.59966145833334,313.5750024318695L456.80335937499996,318.90197682380676L459.21075520833335,321.4703550338745L459.8126041666667,322.8704037666321L460.41445312499997,313.46601462364197L461.61815104166664,315.5927188396454L462.82184895833336,321.2733027935028L464.025546875,314.9675409793854L465.22924479166664,315.8127372264862L465.83109375000004,308.84101724624634L467.636640625,321.3964397907257L468.84033854166665,311.2740168571472L469.4421875,308.97157430648804L470.0440364583334,313.40234327316284L470.64588541666666,313.0056402683258L471.247734375,308.3732979297638L471.8495833333333,314.9651827812195L473.05328125,310.5405421257019L473.6551302083334,313.92041087150574L476.664375,319.01030373573303L477.26622395833334,317.3811492919922L478.469921875,309.3985433578491L479.07177083333335,308.8565032482147L479.6736197916667,325.3668644428253L481.47916666666663,321.1635489463806L482.68286458333336,312.9247705936432L483.8865625,315.32640767097473L485.09026041666664,320.5316119194031L486.29395833333336,315.93521332740784L487.49765625000003,310.9325737953186L488.0995052083333,303.9155373573303L488.70135416666665,327.8662691116333L490.5069010416667,315.50660705566406L492.914296875,319.594806432724L493.5161458333333,327.10955786705017L494.71984375000005,320.9395201206207L495.32169270833333,314.5577402114868L496.525390625,309.17640709877014L498.9327864583333,323.4396607875824L501.94203124999996,308.17430806159973L506.1549739583333,312.9631326198578L506.75682291666664,317.4737799167633L507.96052083333336,312.6284487247467L508.5623697916667,329.2841920852661L509.16421875,320.40553092956543L509.7660677083333,327.3965220451355L510.36791666666664,306.34759068489075L510.96976562500004,321.59989070892334L512.1734635416666,311.74790954589844L512.7753124999999,315.51420736312866L515.1827083333334,321.2949321269989L515.7845572916666,323.37158846855164L516.9882552083333,320.88595747947693L518.191953125,320.1251757144928L519.9975,317.36606884002686L521.2011979166667,315.7321979999542L521.8030468750001,323.66373467445374L522.4048958333334,317.11246490478516L524.2104427083333,312.52263021469116L524.8122916666666,321.902370929718L525.4141406250001,316.6408553123474L526.0159895833334,324.35470175743103L526.6178385416666,320.7022433280945L527.8215364583333,316.67690420150757L528.4233854166666,310.40235471725464L529.0252343750001,316.9320251941681L530.2289322916666,315.4881019592285L530.83078125,324.73982405662537L531.4326302083333,317.0276448726654L532.0344791666666,325.6094434261322L532.636328125,312.94007635116577L533.2381770833333,318.9059271812439L534.441875,323.7032833099365L535.0437239583333,327.6708240509033L536.8492708333333,301.0051603317261L539.2566666666667,313.67864298820496L541.0622135416667,312.483847618103L541.6640625,322.10290789604187L542.2659114583333,319.732302904129L543.469609375,320.8353238105774L544.0714583333333,318.86544728279114L544.6733072916667,328.32991790771484L545.27515625,323.45400524139404L546.4788541666667,326.1467971801758L547.080703125,321.04670548439026L547.6825520833333,315.366902589798L550.0899479166667,315.0399992465973L552.49734375,319.3945698738098L553.0991927083334,310.2149906158447L554.3028906249999,316.66054701805115L554.9047395833334,324.4823749065399L555.5065885416667,326.67781233787537L556.1084375,311.3270387649536L556.7102864583334,320.04206800460815L557.3121354166666,322.07262682914734L559.1176822916667,306.3353490829468L559.71953125,311.70077562332153L563.330625,327.84594655036926L564.5343229166666,319.63330364227295L565.136171875,326.06203722953796L565.7380208333333,312.51846957206726L566.3398697916667,327.52222752571106L567.5435677083334,317.7520022392273L569.3491145833333,324.18829107284546L569.9509635416666,316.3221981525421L571.7565104166666,319.05245089530945L572.358359375,320.3579914569855L572.9602083333333,322.12745118141174L574.1639062500001,314.0332589149475L575.3676041666666,310.47688579559326L577.1731510416666,326.9588885307312L577.775,324.28635907173157L578.9786979166666,315.8850152492523L580.7842447916667,322.77796840667725L581.38609375,322.9830265045166L581.9879427083333,321.642698764801L583.191640625,320.45943903923035L583.7934895833333,312.32577323913574L584.3953385416667,313.07715225219727L585.5990364583333,316.18001532554626L586.2008854166667,320.07891297340393L586.802734375,323.7729477882385L589.8119791666667,319.7680513858795L592.219375,320.3490843772888L592.8212239583333,309.92724537849426L594.024921875,323.27918314933777L595.2286197916667,312.9708981513977L596.4323177083334,323.64245080947876L597.0341666666667,325.62188029289246L597.636015625,315.6257486343384L598.2378645833334,320.3445632457733L598.8397135416667,313.41951155662537L599.4415624999999,316.7248191833496L600.6452604166667,321.02617263793945L601.8489583333334,321.6474301815033L603.0526562499999,317.0219521522522L604.858203125,321.69752311706543L606.0619010416666,321.58285760879517L606.6637499999999,322.1306354999542L607.2655989583333,316.75933599472046L609.6729947916666,325.9943103790283L610.8766927083333,324.8690142631531L611.4785416666667,318.80924105644226L612.6822395833334,314.4165337085724L614.4877864583333,329.1838710308075L615.6914843750001,319.041996717453L616.2933333333334,318.4651243686676L616.8951822916666,312.9712736606598L618.7007291666666,322.89242362976074L620.5062760416666,317.34155559539795L621.108125,324.75257635116577L622.3118229166666,327.21886110305786L623.5155208333333,318.19209909439087L624.71921875,326.5439507961273L627.7284635416667,322.0277760028839L628.9321614583333,315.1893618106842L629.5340104166667,321.5814006328583L630.135859375,319.4304835796356L630.7377083333333,325.001629114151L632.5432552083333,316.9894781112671L636.1543489583333,311.02101373672485L637.358046875,321.85292387008667L637.9598958333333,325.7065050601959L638.5617447916667,324.74399971961975L639.16359375,326.32043266296387L639.7654427083334,317.66988587379456L642.1728385416667,322.054842710495L643.3765364583334,321.3767330646515L643.9783854166667,322.26515793800354L645.7839322916667,326.2077498435974L646.38578125,319.992005109787L646.9876302083334,326.339763879776L647.5894791666666,321.3549234867096L648.1913281249999,327.7381603717804L649.3950260416667,324.70861172676086L649.996875,325.4939818382263L650.5987239583334,327.16749143600464L651.2005729166666,307.13619017601013L652.4042708333333,320.9623210430145L654.2098177083334,321.7655203342438L655.413515625,324.4679253101349L656.0153645833333,321.369042634964L657.2190625000001,331.5149874687195L657.8209114583334,328.413476228714L659.6264583333333,321.27253675460815L660.2283072916666,328.1473903656006L661.4320052083334,316.25956320762634L662.0338541666666,324.2637083530426L666.246796875,306.185400724411L666.8486458333333,322.0922133922577L667.4504947916666,325.7156825065613L668.05234375,324.77088618278503L668.6541927083333,324.06007719039917L669.2560416666666,323.3231027126312L669.857890625,323.69475173950195L671.0615885416667,320.7607626914978L671.6634375,327.35296297073364L672.2652864583333,321.4256694316864L674.0708333333333,328.0438549518585L674.6726822916667,320.71621227264404L675.27453125,321.13873529434204L675.8763802083333,327.01737785339355L677.080078125,322.6330819129944L680.691171875,313.9874918460846L681.2930208333333,327.30320048332214L681.8948697916667,327.35332345962524L683.0985677083333,331.3342022895813L685.5059635416667,332.5213973522186L687.3115104166667,316.87904834747314L689.1170572916667,328.5241162776947L691.524453125,324.73186326026917L693.3299999999999,326.2796223163605L693.9318489583334,319.710147857666L694.5336979166667,320.57125067710876L695.7373958333334,317.19470143318176L696.3392447916666,321.8713688850403L696.9410937499999,320.4401078224182L698.746640625,332.3573899269104L699.3484895833334,325.96823501586914L700.5521875,326.29721117019653L701.7558854166667,325.0871250629425L702.3577343750001,327.38905692100525L703.5614322916666,325.47424507141113L704.7651302083333,324.114946603775L705.3669791666666,321.7696509361267L706.5706770833334,319.7927598953247L707.774375,329.5961501598358L708.3762239583333,324.7415363788605L708.9780729166666,321.8835504055023L709.5799218750001,326.5072560310364L711.38546875,325.9281756877899L711.9873177083333,323.20873761177063L712.5891666666666,325.8904445171356L714.3947135416666,315.25944685935974L714.9965625,322.7992823123932L719.8113541666667,323.5251717567444L721.6169010416667,320.8388385772705L722.21875,326.95044708251953L723.4224479166667,322.3973071575165L724.6261458333333,325.76628613471985L725.2279947916667,317.514319896698L727.0335416666666,324.14829182624817L727.635390625,328.80427622795105L728.8390885416667,318.9635753631592L729.4409375,328.8343770503998L730.0427864583332,325.91566371917725L730.6446354166667,318.1784756183624L732.4501822916667,322.37588810920715L737.2649739583333,324.45601415634155L737.8668229166667,324.66310000419617L738.4686718749999,320.5671651363373L739.6723697916667,317.1412889957428L740.8760677083334,317.9583671092987L741.4779166666666,322.1267902851105L742.079765625,333.2761859893799L743.2834635416666,325.132817029953L744.4871614583333,324.97080731391907L745.0890104166667,323.413765668869L745.690859375,319.48954367637634L747.49640625,323.5311198234558L748.0982552083334,332.1640326976776L748.7001041666666,320.5391821861267L751.7093489583333,319.5845024585724L752.913046875,330.59541034698486L753.5148958333333,320.1424641609192L754.71859375,329.2433817386627L755.3204427083334,328.8465585708618L756.5241406250001,319.7192952632904L760.135234375,322.07551074028015L760.7370833333333,328.230708360672L761.94078125,322.62063002586365L763.1444791666667,323.1670410633087L765.551875,326.784441947937L766.7555729166668,324.532963514328L767.9592708333332,328.6226649284363L769.16296875,316.60681915283203L770.3666666666667,324.6029884815216L771.5703645833333,317.4947633743286L772.1722135416666,330.0019404888153L772.7740625,325.66857862472534L773.3759114583333,316.8528528213501L773.9777604166667,316.14845752716064L776.38515625,319.41107726097107L777.5888541666667,323.08367800712585L778.1907031249999,300.27477979660034L781.801796875,327.35159611701965L783.0054947916667,329.5423171520233L784.2091927083334,325.2901403903961L784.8110416666667,332.57955622673035L785.4128906249999,314.1533467769623L789.023984375,319.3087134361267L790.82953125,323.23325085639954L792.0332291666667,334.1312355995178L793.8387760416666,316.5919940471649L795.6443229166666,326.1788957118988L796.2461718750001,328.95873069763184L797.4498697916667,332.24586367607117L798.05171875,319.98553133010864L798.6535677083333,320.66880798339844L799.2554166666666,314.40074729919434L800.4591145833334,326.4607379436493L801.0609635416666,320.5098924636841L802.2646614583333,329.3450696468353L802.8665104166666,326.407160282135L803.468359375,327.04406905174255L805.27390625,333.5737245082855L805.8757552083333,326.9957935810089L807.079453125,323.560334444046L811.8942447916668,325.7334065437317L812.49609375,331.56090474128723L813.0979427083332,324.8605878353119L813.6997916666667,321.47115111351013L815.5053385416667,326.36406683921814L816.1071874999999,323.70242714881897L816.7090364583333,314.7040536403656L818.5145833333333,323.6281063556671L819.1164322916667,329.69638109207153L819.71828125,322.1164562702179L821.523828125,325.3754711151123L828.7460156249999,315.8397889137268L830.5515624999999,319.88390350341797L831.7552604166666,327.287038564682L832.357109375,326.3844494819641L833.5608072916666,316.3012146949768L834.16265625,321.25823736190796L835.968203125,331.24664855003357L837.77375,316.46284890174866L838.3755989583334,324.61626648902893L838.9774479166666,327.95371770858765L839.5792968750001,327.5521631240845L840.1811458333333,330.1523394584656L840.7829947916666,325.9227683544159L841.3848437500001,331.5392904281616L841.9866927083333,315.755028963089L843.190390625,320.9758393764496L844.3940885416666,326.9754409790039L844.9959375,327.67686223983765L846.1996354166666,314.9209027290344L847.4033333333333,326.3823616504669L848.60703125,324.6481547355652L849.2088802083333,318.2292745113373L849.8107291666668,328.58027744293213L850.412578125,325.3505823612213L851.0144270833333,330.7203197479248L851.6162760416667,330.02993845939636L854.0236718750001,318.27744483947754L857.0329166666668,326.6091992855072L857.634765625,324.4162702560425L858.8384635416667,332.3009283542633L859.4403125,331.4963171482086L861.8477083333333,327.2945487499237L862.4495572916666,315.7101180553436L863.05140625,331.9225652217865L864.2551041666667,329.47712874412537L866.0606510416667,323.9218146800995L867.8661979166667,314.7200503349304L869.0698958333334,321.33598279953003L870.27359375,323.7844383716583L870.8754427083334,328.5261740684509L872.079140625,328.2458338737488L872.6809895833333,313.60562896728516L874.4865364583334,329.05507135391235L875.0883854166667,324.5391969680786L875.6902343749999,321.9004783630371L876.8939322916666,324.6242423057556L877.49578125,329.85649824142456L878.0976302083333,325.0001871585846L879.301328125,329.22091126441956L879.9031770833333,324.10117292404175L880.5050260416667,325.8554320335388L881.106875,318.71088767051697L881.7087239583334,323.1132080554962L882.3105729166667,322.65852642059326L885.3198177083333,328.80716013908386L885.9216666666666,320.63576316833496L887.1253645833333,328.76092743873596L889.5327604166666,329.5200569629669L890.134609375,325.89846539497375L891.3383072916666,323.4348542690277L893.745703125,323.0805537700653L894.9494010416668,320.54875016212463L896.1530989583333,328.04429054260254L897.356796875,324.0455074310303L897.9586458333334,322.77054834365845L898.5604947916667,328.8981235027313L899.1623437500001,325.06681752204895L900.3660416666667,328.3639090061188L902.1715885416668,324.2195484638214L902.7734375,330.9566652774811L903.9771354166667,328.5433874130249L904.578984375,326.4813458919525L905.1808333333333,325.357626914978L906.3845312499999,321.0978047847748L908.7919270833333,327.6767420768738L909.995625,329.6006863117218L910.5974739583332,320.24050211906433L911.801171875,330.3966007232666L912.4030208333334,322.81189942359924L914.2085677083334,327.36000752449036L914.8104166666666,331.6759307384491L917.8196614583333,333.3924436569214L918.4215104166667,329.4123909473419L919.0233593749999,328.87204813957214L919.6252083333334,318.6619062423706L920.8289062499999,324.464200258255L922.0326041666666,329.5889103412628L922.634453125,323.49796986579895L923.2363020833333,330.2520146369934L923.8381510416666,317.8184072971344L924.44,320.9033660888672L925.0418489583333,323.93097710609436L926.8473958333334,328.6968355178833L928.6529427083334,327.14541149139404L929.8566406250001,330.16602301597595L931.0603385416666,324.6841735839844L931.6621875000001,326.0127103328705L932.2640364583333,324.09211564064026L932.8658854166667,317.06381392478943L933.467734375,326.99052143096924L935.8751302083334,319.52192759513855L938.2825260416666,321.77068734169006L939.4862239583333,322.91585540771484L940.0880729166668,327.99232006073L941.8936197916667,333.9556324481964L942.49546875,319.76304960250854L943.0973177083334,330.1776337623596L944.9028645833333,321.92766523361206L946.7084114583333,326.9262492656708L947.3102604166668,326.6470055580139L947.912109375,327.26791763305664L949.1158072916667,325.93519020080566L949.71765625,325.1704580783844L950.3195052083333,325.3871269226074L952.1250520833333,328.6650674343109L953.32875,333.04042625427246L953.9305989583333,327.8219139575958L954.5324479166667,324.03078746795654L955.134296875,324.78191113471985L955.7361458333332,328.24578881263733L956.3379947916667,322.7624523639679L957.5416927083334,329.3825454711914L958.1435416666667,331.35378885269165L959.9490885416666,312.8199133872986L962.9583333333333,330.27657294273376L970.1805208333333,323.1986289024353L970.7823697916667,331.66459035873413L971.38421875,320.31719613075256L971.9860677083334,325.1326217651367L974.3934635416666,326.3926956653595L976.1990104166666,321.86291241645813L976.8008593750001,327.81997632980347L978.0045572916667,320.9186568260193L978.60640625,328.49240827560425L979.2082552083333,325.4221544265747L979.8101041666666,325.40195202827454L981.0138020833334,325.2057559490204L982.2175000000001,326.2255940437317L982.8193489583333,325.37426948547363L983.4211979166666,326.2440390586853L984.6248958333333,321.89003920555115L985.2267447916668,325.1941602230072L985.82859375,329.28974962234497L987.0322916666667,321.31034302711487L988.2359895833334,328.1115517616272L991.8470833333333,329.6099388599396L993.05078125,330.7054796218872L996.0600260416667,326.0619170665741L996.6618749999999,321.2184784412384L999.0692708333333,327.82305550575256L1002.078515625,326.58419036865234L1002.6803645833334,326.637407541275L1005.0877604166666,330.4318084716797L1007.49515625,328.5304398536682L1009.3007031249999,327.3840551376343L1011.1062499999999,321.0565438270569L1011.7080989583334,323.7750656604767L1012.3099479166666,325.7841453552246L1014.1154947916666,327.15087890625L1014.71734375,324.53981280326843L1016.522890625,327.68145847320557L1017.7265885416667,320.2466604709625L1018.3284375,334.06842041015625L1018.9302864583334,325.3993535041809L1023.1432291666667,320.2406973838806L1023.745078125,325.38557982444763L1024.3469270833332,329.5710210800171L1024.9487760416666,326.4876093864441L1026.1524739583333,327.496062040329L1026.7543229166668,326.54827666282654L1027.356171875,331.6704933643341L1027.9580208333334,327.2696750164032L1028.5598697916666,331.8875527381897L1029.16171875,330.5316939353943L1029.7635677083333,325.2279260158539L1030.3654166666668,325.47486090660095L1030.967265625,326.38913583755493L1032.7728124999999,319.68368196487427L1033.9765104166665,324.8385679721832L1036.9857552083333,325.70303535461426L1037.5876041666668,325.62063360214233L1038.189453125,326.3182246685028L1039.3931510416667,322.83552646636963L1043.6060937500001,324.82432866096497L1044.8097916666668,326.6090190410614L1047.8190364583334,325.1746337413788L1048.4208854166666,328.4059660434723L1050.8282812500001,323.575745344162L1052.0319791666668,316.87652492523193L1052.633828125,325.4480495452881L1053.8375260416667,329.0951907634735L1054.439375,324.16667675971985L1055.6430729166666,326.9323625564575L1056.244921875,328.8927011489868L1059.856015625,323.35493087768555L1060.4578645833333,330.8353908061981L1061.0597135416667,324.59699535369873L1064.0689583333333,327.7785201072693L1064.6708072916667,332.86597967147827L1070.0874479166666,322.16552782058716L1070.6892968749999,325.45857882499695L1072.49484375,323.14464569091797L1073.0966927083334,331.2392735481262L1073.6985416666666,327.70038414001465L1074.9022395833333,329.8849618434906L1076.1059375,329.96599674224854L1077.3096354166667,323.2867684364319L1079.1151822916665,328.11231780052185L1079.71703125,323.33122873306274L1080.9207291666667,327.76606822013855L1081.522578125,329.3929545879364L1082.7262760416668,330.841849565506L1083.9299739583332,330.7425799369812L1084.5318229166667,334.39840292930603L1085.7355208333333,328.2784731388092L1086.3373697916666,326.8951721191406L1088.7447656250001,327.08851432800293L1089.3466145833333,319.3599178791046L1090.5503125,330.90042901039124L1091.1521614583332,327.9583740234375L1091.7540104166667,335.3966717720032L1092.355859375,326.57740116119385L1093.5595572916666,331.27825140953064L1094.16140625,322.07968640327454L1094.7632552083332,330.601193189621L1095.3651041666667,328.91892671585083L1097.7725,326.0500810146332L1098.9761979166667,329.2613911628723L1099.578046875,324.5816595554352L1100.1798958333334,321.6398298740387L1101.38359375,334.46579933166504L1102.5872916666667,325.94687604904175L1103.7909895833334,326.7422797679901L1104.9946875,323.7224192619324L1105.5965364583333,326.98654103279114L1106.1983854166667,328.08047461509705L1107.4020833333334,324.77474641799927L1108.0039322916666,329.5021526813507L1108.6057812499998,332.2004871368408L1109.2076302083333,328.3118784427643L1109.8094791666667,328.20512866973877L1110.411328125,321.1230990886688L1111.6150260416666,334.1903557777405L1112.216875,331.6744587421417L1114.022421875,325.6723186969757L1114.6242708333332,333.65593099594116L1115.8279687499999,329.27816891670227L1116.4298177083333,321.4569869041443L1118.2353645833334,325.3859703540802L1118.8372135416666,325.11378622055054L1119.4390625,323.05698680877686L1120.0409114583333,325.6879699230194L1120.6427604166668,325.3052809238434L1121.8464583333332,323.8461720943451L1124.2538541666665,326.16689443588257L1125.4575520833334,322.9456708431244L1126.0594010416667,328.3366470336914L1126.66125,321.2332134246826L1128.466796875,327.2593410015106L1129.0686458333332,325.5442850589752L1130.27234375,323.40658593177795L1132.6797395833335,328.3986511230469L1133.2815885416667,322.2009608745575L1133.8834375000001,325.4559202194214L1134.4852864583333,327.07538652420044L1135.688984375,326.065146446228L1138.0963802083334,328.56387519836426L1138.6982291666666,327.5619113445282L1139.9019270833332,327.1448256969452L1140.5037760416667,333.7494628429413L1141.1056250000001,328.12281703948975L1141.7074739583334,323.28029465675354L1142.911171875,326.9019913673401L1144.71671875,324.06010723114014L1145.3185677083334,331.31036496162415L1145.9204166666666,330.55677795410156L1146.522265625,332.61836886405945L1147.1241145833333,329.8264124393463L1148.9296614583334,331.2544891834259L1149.5315104166666,327.293377161026L1151.93890625,323.1026487350464L1152.5407552083334,330.12503242492676L1153.7444531249998,328.3341386318207L1154.3463020833333,328.0403552055359L1154.9481510416667,327.21633768081665L1157.355546875,323.5186378955841L1159.16109375,325.5505335330963L1160.3647916666666,325.3841679096222L1162.1703385416668,320.55813789367676L1162.7721875,326.92265939712524L1163.3740364583334,327.84792923927307L1163.9758854166666,330.5956656932831L1164.577734375,326.93460059165955L1165.7814322916668,327.5951063632965L1166.38328125,327.78451323509216L1166.9851302083332,331.6369528770447L1168.7906770833333,331.39614629745483L1169.3925260416665,326.6349892616272L1170.5962239583334,330.17007851600647L1171.1980729166667,323.8740499019623L1171.799921875,333.19124579429626L1173.60546875,327.7773485183716L1174.8091666666667,332.9403004646301L1175.411015625,324.5689673423767L1176.0128645833333,326.2764530181885L1176.6147135416666,324.08235239982605L1180.82765625,321.4154706001282L1181.4295052083332,329.82427954673767L1183.2350520833334,326.45071935653687L1186.2442968750001,332.6200511455536L1188.6516927083333,326.08359146118164L1189.855390625,331.51159286499023L1191.0590885416666,329.7595868110657L1192.2627864583333,333.3796763420105L1192.8646354166667,318.53340697288513L1193.4664843750002,319.2984845638275L1194.0683333333334,323.0797426700592L1196.4757291666667,327.6930241584778L1197.077578125,329.2427659034729L1197.6794270833334,325.6598217487335L1198.8831249999998,331.5409126281738L1199.4849739583333,332.3899841308594L1200.0868229166667,328.22324323654175L1202.49421875,324.74870109558105L1203.6979166666667,331.7746596336365L1204.9016145833332,322.5274586677551L1206.1053124999999,329.97167444229126L1206.7071614583333,328.33552050590515L1207.910859375,331.1338756084442L1210.3182552083333,322.398628950119L1211.521953125,325.13529539108276L1212.1238020833332,319.8937568664551L1213.9293489583333,316.66741132736206L1215.7348958333334,330.951287984848L1218.1422916666668,332.84616780281067L1219.3459895833332,321.1920876502991L1219.9478385416667,329.835755109787L1221.7533854166666,330.55497550964355L1224.1607812500001,322.0972902774811L1224.7626302083333,329.08383536338806L1225.3644791666668,330.62238693237305L1225.966328125,335.0369188785553L1227.771875,332.5164406299591L1228.3737239583334,318.3959105014801L1228.9755729166666,327.1629252433777L1230.1792708333332,328.3757600784302L1230.7811197916667,334.74354100227356L1231.3829687500001,335.3465487957001L1232.5866666666668,320.6962652206421L1233.188515625,329.80383682250977L1234.9940625,330.2578125L1235.5959114583334,328.50517559051514L1236.799609375,333.90982031822205L1238.0033072916667,330.6066756248474L1238.6051562500002,327.43563508987427L1239.2070052083334,325.3260691165924L1243.4199479166666,329.23414421081543L1244.0217968749998,328.47040343284607L1244.6236458333333,323.67800402641296L1245.2254947916667,324.43692326545715L1248.8365885416667,327.8291988372803L1249.4384375,322.72332429885864L1250.0402864583332,332.5612163543701L1250.6421354166666,328.68112421035767L1251.2439843749999,328.0403401851654L1252.4476822916668,333.13877964019775L1254.2532291666666,332.66613364219666L1256.0587760416668,332.63573241233826L1258.4661718749999,330.7881667613983L1259.0680208333333,329.40052485466003L1259.6698697916665,323.6296534538269L1260.27171875,325.5449159145355L1260.8735677083334,322.3926959037781L1262.077265625,328.5993232727051L1262.6791145833333,329.20533514022827L1265.0865104166667,326.6639184951782L1266.8920572916666,324.2499797344208L1267.49390625,331.8522698879242L1269.2994531250001,327.7378749847412L1269.9013020833333,323.31233310699463L1270.5031510416668,326.7883472442627L1271.105,334.58241748809814L1271.7068489583332,328.3200044631958L1272.910546875,326.5234179496765L1273.5123958333334,319.2507348060608L1274.1142447916666,333.865510225296L1274.71609375,335.3463234901428L1275.3179427083332,328.7144093513489L1277.7253385416668,326.80848956108093L1278.3271875,331.73832535743713L1278.9290364583333,330.8982210159302L1280.7345833333334,328.1434099674225L1281.93828125,328.1615996360779L1282.5401302083333,318.91195034980774L1283.1419791666667,326.9893047809601L1284.3456770833334,334.47357988357544L1284.9475260416666,325.82779455184937L1285.549375,325.7822527885437L1286.7530729166667,334.79503083229065L1287.354921875,329.05697894096375L1289.1604687499998,334.4402346611023L1290.3641666666667,327.11347818374634L1291.5678645833334,320.5905818939209L1292.1697135416666,331.312783241272L1293.3734114583333,325.51286244392395L1295.1789583333332,333.1627821922302L1296.3826562499999,335.0934405326843L1296.9845052083333,329.9767062664032L1297.5863541666668,328.25229263305664L1298.7900520833334,326.8878571987152L1299.99375,330.5834541320801L1300.5955989583333,320.48893904685974L1301.1974479166668,328.1190769672394L1303.6048437499999,328.9355993270874L1304.2066927083333,320.6555299758911L1305.410390625,327.17887687683105L1306.6140885416667,329.0136151313782L1309.6233333333332,329.2444181442261L1312.0307291666666,334.0116584300995L1312.632578125,326.0208213329315L1313.2344270833335,322.9833719730377L1313.8362760416667,330.9305899143219L1321.0584635416667,329.92191195487976L1322.2621614583334,332.9769651889801L1323.465859375,331.3563423156738" style="fill: none;" fill="none"></path></g></g></g></g></g><g><g><span fill="rgb(0, 0, 0)" stroke="none" stroke-width="1px">Alt + Scroll to Zoom</span></g></g></g><g transform="translate(51, 378)" clip-path="url(#clip_1)"><clipPath id="clip_1"><rect width="1444" height="22"></rect></clipPath><g><g><line x1="0" y1="0" x2="0" y2="5" style="visibility: inherit;" fill="rgb(0, 0, 0)" stroke="rgb(204, 204, 204)" stroke-width="1px"></line><line x1="120.36979166666666" y1="0" x2="120.36979166666666" y2="5" style="visibility: inherit;" fill="rgb(0, 0, 0)" stroke="rgb(204, 204, 204)" stroke-width="1px"></line><line x1="240.73958333333331" y1="0" x2="240.73958333333331" y2="5" style="visibility: inherit;" fill="rgb(0, 0, 0)" stroke="rgb(204, 204, 204)" stroke-width="1px"></line><line x1="361.109375" y1="0" x2="361.109375" y2="5" style="visibility: inherit;" fill="rgb(0, 0, 0)" stroke="rgb(204, 204, 204)" stroke-width="1px"></line><line x1="481.47916666666663" y1="0" x2="481.47916666666663" y2="5" style="visibility: inherit;" fill="rgb(0, 0, 0)" stroke="rgb(204, 204, 204)" stroke-width="1px"></line><line x1="601.8489583333334" y1="0" x2="601.8489583333334" y2="5" style="visibility: inherit;" fill="rgb(0, 0, 0)" stroke="rgb(204, 204, 204)" stroke-width="1px"></line><line x1="722.21875" y1="0" x2="722.21875" y2="5" style="visibility: inherit;" fill="rgb(0, 0, 0)" stroke="rgb(204, 204, 204)" stroke-width="1px"></line><line x1="842.5885416666667" y1="0" x2="842.5885416666667" y2="5" style="visibility: inherit;" fill="rgb(0, 0, 0)" stroke="rgb(204, 204, 204)" stroke-width="1px"></line><line x1="962.9583333333333" y1="0" x2="962.9583333333333" y2="5" style="visibility: inherit;" fill="rgb(0, 0, 0)" stroke="rgb(204, 204, 204)" stroke-width="1px"></line><line x1="1083.328125" y1="0" x2="1083.328125" y2="5" style="visibility: inherit;" fill="rgb(0, 0, 0)" stroke="rgb(204, 204, 204)" stroke-width="1px"></line><line x1="1203.6979166666667" y1="0" x2="1203.6979166666667" y2="5" style="visibility: inherit;" fill="rgb(0, 0, 0)" stroke="rgb(204, 204, 204)" stroke-width="1px"></line><line x1="1324.0677083333333" y1="0" x2="1324.0677083333333" y2="5" style="visibility: inherit;" fill="rgb(0, 0, 0)" stroke="rgb(204, 204, 204)" stroke-width="1px"></line><line x1="1444.4375" y1="0" x2="1444.4375" y2="5" style="visibility: inherit;" fill="rgb(0, 0, 0)" stroke="rgb(204, 204, 204)" stroke-width="1px"></line></g><g transform="translate(0, 8)"><text x="0" y="0" dx="0em" dy="0.95em" style="text-anchor: middle; visibility: hidden; font-family: Roboto, sans-serif; font-size: 12px; font-weight: 200;" fill="rgb(50, 49, 63)" stroke="none" stroke-width="1px">-200</text><text x="120.36979166666666" y="0" dx="0em" dy="0.95em" style="text-anchor: middle; visibility: inherit; font-family: Roboto, sans-serif; font-size: 12px; font-weight: 200;" fill="rgb(50, 49, 63)" stroke="none" stroke-width="1px">0</text><text x="240.73958333333331" y="0" dx="0em" dy="0.95em" style="text-anchor: middle; visibility: inherit; font-family: Roboto, sans-serif; font-size: 12px; font-weight: 200;" fill="rgb(50, 49, 63)" stroke="none" stroke-width="1px">200</text><text x="361.109375" y="0" dx="0em" dy="0.95em" style="text-anchor: middle; visibility: inherit; font-family: Roboto, sans-serif; font-size: 12px; font-weight: 200;" fill="rgb(50, 49, 63)" stroke="none" stroke-width="1px">400</text><text x="481.47916666666663" y="0" dx="0em" dy="0.95em" style="text-anchor: middle; visibility: inherit; font-family: Roboto, sans-serif; font-size: 12px; font-weight: 200;" fill="rgb(50, 49, 63)" stroke="none" stroke-width="1px">600</text><text x="601.8489583333334" y="0" dx="0em" dy="0.95em" style="text-anchor: middle; visibility: inherit; font-family: Roboto, sans-serif; font-size: 12px; font-weight: 200;" fill="rgb(50, 49, 63)" stroke="none" stroke-width="1px">800</text><text x="722.21875" y="0" dx="0em" dy="0.95em" style="text-anchor: middle; visibility: inherit; font-family: Roboto, sans-serif; font-size: 12px; font-weight: 200;" fill="rgb(50, 49, 63)" stroke="none" stroke-width="1px">1k</text><text x="842.5885416666667" y="0" dx="0em" dy="0.95em" style="text-anchor: middle; visibility: inherit; font-family: Roboto, sans-serif; font-size: 12px; font-weight: 200;" fill="rgb(50, 49, 63)" stroke="none" stroke-width="1px">1.2k</text><text x="962.9583333333333" y="0" dx="0em" dy="0.95em" style="text-anchor: middle; visibility: inherit; font-family: Roboto, sans-serif; font-size: 12px; font-weight: 200;" fill="rgb(50, 49, 63)" stroke="none" stroke-width="1px">1.4k</text><text x="1083.328125" y="0" dx="0em" dy="0.95em" style="text-anchor: middle; visibility: inherit; font-family: Roboto, sans-serif; font-size: 12px; font-weight: 200;" fill="rgb(50, 49, 63)" stroke="none" stroke-width="1px">1.6k</text><text x="1203.6979166666667" y="0" dx="0em" dy="0.95em" style="text-anchor: middle; visibility: inherit; font-family: Roboto, sans-serif; font-size: 12px; font-weight: 200;" fill="rgb(50, 49, 63)" stroke="none" stroke-width="1px">1.8k</text><text x="1324.0677083333333" y="0" dx="0em" dy="0.95em" style="text-anchor: middle; visibility: inherit; font-family: Roboto, sans-serif; font-size: 12px; font-weight: 200;" fill="rgb(50, 49, 63)" stroke="none" stroke-width="1px">2k</text><text x="1444.4375" y="0" dx="0em" dy="0.95em" style="text-anchor: middle; visibility: hidden; font-family: Roboto, sans-serif; font-size: 12px; font-weight: 200;" fill="rgb(50, 49, 63)" stroke="none" stroke-width="1px">2.2k</text></g><line x1="0" y1="0" x2="1444.4375" y2="0" fill="rgb(0, 0, 0)" stroke="rgb(204, 204, 204)" stroke-width="1px"></line></g></g></g></g></svg>