<?xml version="1.0" encoding="utf-8" standalone="no"?>
<!DOCTYPE svg PUBLIC "-//W3C//DTD SVG 1.1//EN"
  "http://www.w3.org/Graphics/SVG/1.1/DTD/svg11.dtd">
<!-- Created with matplotlib (https://matplotlib.org/) -->
<svg height="288pt" version="1.1" viewBox="0 0 720 288" width="720pt" xmlns="http://www.w3.org/2000/svg" xmlns:xlink="http://www.w3.org/1999/xlink">
 <metadata>
  <rdf:RDF xmlns:cc="http://creativecommons.org/ns#" xmlns:dc="http://purl.org/dc/elements/1.1/" xmlns:rdf="http://www.w3.org/1999/02/22-rdf-syntax-ns#">
   <cc:Work>
    <dc:type rdf:resource="http://purl.org/dc/dcmitype/StillImage"/>
    <dc:date>2020-12-22T13:36:50.741677</dc:date>
    <dc:format>image/svg+xml</dc:format>
    <dc:creator>
     <cc:Agent>
      <dc:title>Matplotlib v3.3.2, https://matplotlib.org/</dc:title>
     </cc:Agent>
    </dc:creator>
   </cc:Work>
  </rdf:RDF>
 </metadata>
 <defs>
  <style type="text/css">*{stroke-linecap:butt;stroke-linejoin:round;}</style>
 </defs>
 <g id="figure_1">
  <g id="patch_1">
   <path d="M 0 288 
L 720 288 
L 720 0 
L 0 0 
z
" style="fill:#ffffff;"/>
  </g>
  <g id="axes_1">
   <g id="line2d_1">
    <path clip-path="url(#p8953090880)" d="M 57.754467 240.165071 
L 56.585997 239.979085 
L 54.93807 239.438028 
L 53.848413 238.873683 
L 53.288308 238.396365 
L 52.99238 237.874317 
L 52.942444 237.158981 
L 53.155705 236.285121 
L 53.800452 234.825328 
L 54.715859 233.312532 
L 55.749193 232.035285 
L 56.576971 231.354676 
L 56.972683 231.25414 
L 57.030522 231.420559 
L 56.890684 231.73526 
L 56.254825 232.521424 
L 54.829167 233.876272 
L 51.143049 236.971383 
L 48.906662 238.983797 
L 48.559825 239.522831 
L 48.647576 239.640592 
L 49.03034 239.62477 
L 50.197014 239.259593 
L 53.672563 237.835606 
L 57.572702 236.315869 
L 58.841459 235.96614 
L 59.824526 235.912375 
L 60.066175 236.01242 
L 60.248486 236.351984 
L 60.159428 236.882674 
L 59.743493 237.746013 
L 58.943185 238.958941 
L 57.903068 240.301084 
L 57.903068 240.301084 
" style="fill:none;stroke:#000000;stroke-linecap:square;stroke-opacity:0.7;stroke-width:1.2;"/>
   </g>
   <g id="line2d_2">
    <path clip-path="url(#p8953090880)" d="M 57.531797 193.995831 
L 52.072784 192.271192 
L 50.502703 191.529322 
L 49.908006 191.062008 
L 49.67588 190.607101 
L 49.736389 190.214792 
L 50.074973 189.733595 
L 50.873177 189.069458 
L 52.198533 188.239595 
L 55.547649 186.494769 
L 59.115478 184.608871 
L 59.488423 184.269321 
L 59.446075 184.265118 
L 58.945755 184.496437 
L 57.495205 185.50516 
L 53.369385 188.583219 
L 53.362032 188.573565 
L 53.507442 188.44087 
L 54.24838 188.099617 
L 55.133373 187.909527 
L 56.012691 187.964503 
L 56.560312 188.191233 
L 57.107727 188.71159 
L 57.453609 189.394867 
L 57.709633 190.527676 
L 57.801264 192.241218 
L 57.720606 194.122193 
L 57.720606 194.122193 
" style="fill:none;stroke:#000000;stroke-linecap:square;stroke-opacity:0.7;stroke-width:1.2;"/>
   </g>
   <g id="line2d_3">
    <path clip-path="url(#p8953090880)" d="M 57.725415 147.782507 
L 57.771952 147.267547 
L 58.217457 142.944185 
L 58.172979 141.132401 
L 57.981094 140.339685 
L 57.57083 139.688113 
L 57.061806 139.361852 
L 56.539226 139.252579 
L 55.775363 139.347205 
L 55.106182 139.654418 
L 54.382278 140.255072 
L 53.892718 140.925498 
L 53.648474 141.633804 
L 53.613662 142.46682 
L 53.789017 143.324975 
L 54.175764 144.150198 
L 54.522142 144.445593 
L 55.457516 144.772386 
L 58.124152 145.687137 
L 59.470288 146.322365 
L 59.936318 146.740631 
L 59.937544 147.018861 
L 59.694504 147.242361 
L 59.023943 147.528895 
L 57.83467 147.884648 
L 57.83467 147.884648 
" style="fill:none;stroke:#000000;stroke-linecap:square;stroke-opacity:0.7;stroke-width:1.2;"/>
   </g>
   <g id="line2d_4">
    <path clip-path="url(#p8953090880)" d="M 57.567233 101.63395 
L 57.207867 101.350614 
L 56.466724 100.438092 
L 55.511024 98.86869 
L 54.61207 96.942305 
L 53.894873 95.48789 
L 53.637127 95.29382 
L 53.679119 95.248612 
L 54.004227 95.149676 
L 55.332156 95.02635 
L 56.763562 95.102232 
L 57.300739 95.274941 
L 57.578341 95.537139 
L 57.644793 95.928957 
L 57.472235 96.573546 
L 56.480857 99.397416 
L 56.354157 100.524231 
L 56.463218 101.513487 
L 56.712477 101.935707 
L 57.003989 102.010412 
L 57.515883 101.87014 
L 57.729677 101.772173 
L 57.729677 101.772173 
" style="fill:none;stroke:#000000;stroke-linecap:square;stroke-opacity:0.7;stroke-width:1.2;"/>
   </g>
   <g id="line2d_5">
    <path clip-path="url(#p8953090880)" d="M 57.89614 55.659731 
L 58.223015 54.194431 
L 59.213431 49.486689 
L 59.207605 48.685115 
L 58.984865 48.15637 
L 58.54545 47.840748 
L 57.87566 47.662453 
L 56.294732 47.593791 
L 53.994668 47.80094 
L 51.708602 48.256955 
L 49.783597 48.896221 
L 48.189832 49.677605 
L 44.509091 51.746471 
L 45.782128 51.175937 
L 47.331776 50.860666 
L 49.298824 50.71643 
L 51.288026 50.780683 
L 53.350123 51.071468 
L 54.85424 51.49338 
L 55.83593 51.945735 
L 56.420195 52.345856 
L 57.124995 53.134013 
L 57.488905 53.906535 
L 57.822211 55.299238 
L 57.910296 55.59456 
L 57.910296 55.59456 
" style="fill:none;stroke:#000000;stroke-linecap:square;stroke-opacity:0.7;stroke-width:1.2;"/>
   </g>
   <g id="line2d_6">
    <path clip-path="url(#p8953090880)" d="M 211.683256 240.185092 
L 211.319878 240.021022 
L 210.467875 239.306115 
L 209.69362 238.412422 
L 209.533529 237.964226 
L 209.607103 237.369536 
L 209.960551 236.604859 
L 210.767334 235.475757 
L 211.375137 234.828411 
L 211.143877 234.904441 
L 208.772776 235.662121 
L 206.020618 236.596783 
L 205.034441 237.169806 
L 204.714792 237.554403 
L 204.640264 237.877492 
L 204.747419 238.24337 
L 205.181974 238.740294 
L 205.948458 239.256748 
L 207.388501 239.926891 
L 209.359624 240.590797 
L 211.382328 241.062791 
L 212.580896 241.158574 
L 212.835341 241.04473 
L 212.75857 240.863087 
L 212.284968 240.528754 
L 211.795022 240.312416 
L 211.795022 240.312416 
" style="fill:none;stroke:#000000;stroke-linecap:square;stroke-opacity:0.7;stroke-width:1.2;"/>
   </g>
   <g id="line2d_7">
    <path clip-path="url(#p8953090880)" d="M 211.633353 193.970197 
L 211.749649 193.478478 
L 212.763145 190.574287 
L 213.452211 188.254796 
L 213.569227 187.186827 
L 213.480386 186.704957 
L 213.094339 186.221263 
L 212.418466 185.993057 
L 211.426978 185.979904 
L 210.586334 186.096865 
L 209.3536 186.40686 
L 207.467743 187.1799 
L 205.911774 188.106599 
L 204.197997 189.099776 
L 203.902531 189.095088 
L 203.905204 189.068496 
L 204.065346 188.901592 
L 204.418794 188.745289 
L 204.9107 188.69057 
L 205.437404 188.814457 
L 206.005857 189.212548 
L 206.459893 189.830919 
L 206.805867 190.615761 
L 207.130891 191.879922 
L 207.343954 193.557408 
L 207.639408 196.099135 
L 207.885077 196.298211 
L 208.304001 196.248015 
L 209.113941 195.852534 
L 210.82444 194.752601 
L 211.695135 194.141433 
L 211.695135 194.141433 
" style="fill:none;stroke:#000000;stroke-linecap:square;stroke-opacity:0.7;stroke-width:1.2;"/>
   </g>
   <g id="line2d_8">
    <path clip-path="url(#p8953090880)" d="M 211.656799 147.834529 
L 210.793905 147.720494 
L 209.089959 147.267412 
L 207.894045 146.717409 
L 207.562575 146.361145 
L 207.463107 145.879297 
L 207.599733 145.115442 
L 208.283517 143.195944 
L 209.58199 140.279125 
L 210.775311 138.078621 
L 210.211032 138.784593 
L 207.196741 142.669494 
L 206.705889 143.465782 
L 206.101467 144.777317 
L 205.8748 145.87701 
L 205.934038 146.616545 
L 206.164021 147.199044 
L 206.558451 147.682741 
L 207.202126 148.099165 
L 207.967343 148.338648 
L 208.992773 148.419182 
L 210.217992 148.271032 
L 211.753694 147.973299 
L 211.753694 147.973299 
" style="fill:none;stroke:#000000;stroke-linecap:square;stroke-opacity:0.7;stroke-width:1.2;"/>
   </g>
   <g id="line2d_9">
    <path clip-path="url(#p8953090880)" d="M 211.650643 101.587222 
L 211.678909 101.195728 
L 212.085542 99.245934 
L 212.535823 96.823506 
L 212.437313 96.203978 
L 212.194853 96.019031 
L 211.838108 96.041538 
L 211.220952 96.339591 
L 210.049561 97.229489 
L 208.80884 98.096032 
L 208.10506 98.343008 
L 207.882471 98.271068 
L 207.852919 98.036328 
L 208.090482 97.556418 
L 208.54062 97.105862 
L 208.91837 97.002921 
L 209.355693 97.160684 
L 210.022847 97.688613 
L 211.221635 98.967572 
L 212.06732 100.153834 
L 212.338219 100.84608 
L 212.293466 101.319113 
L 212.038385 101.607145 
L 211.737245 101.738235 
L 211.737245 101.738235 
" style="fill:none;stroke:#000000;stroke-linecap:square;stroke-opacity:0.7;stroke-width:1.2;"/>
   </g>
   <g id="line2d_10">
    <path clip-path="url(#p8953090880)" d="M 211.585439 55.434433 
L 212.025386 53.821688 
L 212.691814 50.952253 
L 212.77212 49.993029 
L 212.653181 49.251942 
L 212.334794 48.828081 
L 211.843538 48.647865 
L 211.205508 48.661731 
L 210.164499 48.928896 
L 209.048132 49.401405 
L 207.395359 50.370867 
L 206.076046 51.412042 
L 205.000984 52.540535 
L 203.104301 54.971524 
L 203.147288 55.355121 
L 203.416231 55.809418 
L 204.168658 56.621227 
L 205.333229 57.593377 
L 206.405849 58.228759 
L 207.193999 58.420391 
L 207.82531 58.343984 
L 208.660698 57.972012 
L 209.73595 57.219841 
L 211.402761 55.759934 
L 211.606426 55.559793 
L 211.606426 55.559793 
" style="fill:none;stroke:#000000;stroke-linecap:square;stroke-opacity:0.7;stroke-width:1.2;"/>
   </g>
   <g id="line2d_11">
    <path clip-path="url(#p8953090880)" d="M 365.585052 240.125395 
L 365.525935 239.743052 
L 365.545138 238.066257 
L 365.76128 232.767048 
L 365.464563 232.294536 
L 364.994166 231.945666 
L 364.246955 231.684619 
L 363.98451 231.780494 
L 363.998243 231.797795 
L 364.069195 231.771783 
L 364.457716 231.421147 
L 365.286217 230.376785 
L 365.971018 229.172186 
L 366.13033 228.49896 
L 366.098051 228.453708 
L 366.048662 228.63421 
L 366.154305 229.362846 
L 366.70886 231.043826 
L 367.170426 232.698842 
L 367.306666 234.025343 
L 367.205289 235.451716 
L 366.835204 237.117965 
L 366.045457 239.439618 
L 365.741457 240.250021 
L 365.741457 240.250021 
" style="fill:none;stroke:#000000;stroke-linecap:square;stroke-opacity:0.7;stroke-width:1.2;"/>
   </g>
   <g id="line2d_12">
    <path clip-path="url(#p8953090880)" d="M 365.552123 194.002461 
L 365.453334 193.775415 
L 365.390373 192.858356 
L 365.315941 190.488628 
L 365.051543 189.801482 
L 364.718134 189.538622 
L 364.294527 189.489593 
L 363.674434 189.681004 
L 362.208341 190.29921 
L 362.182997 190.091062 
L 362.377066 189.572872 
L 363.04048 188.490891 
L 364.615446 186.428041 
L 365.695354 185.232293 
L 365.70365 185.272516 
L 365.483362 186.07963 
L 365.192262 187.615435 
L 365.094442 189.240877 
L 365.198888 191.272292 
L 365.542909 193.873639 
L 365.680409 194.161612 
L 365.680409 194.161612 
" style="fill:none;stroke:#000000;stroke-linecap:square;stroke-opacity:0.7;stroke-width:1.2;"/>
   </g>
   <g id="line2d_13">
    <path clip-path="url(#p8953090880)" d="M 365.508391 147.87745 
L 365.408519 147.500026 
L 365.289377 146.072702 
L 365.159348 143.494196 
L 364.77524 143.289176 
L 363.686159 143.096398 
L 361.987473 143.002455 
L 361.356849 143.095279 
L 361.521312 142.987367 
L 362.644889 142.052346 
L 366.053042 138.787276 
L 367.218306 137.772033 
L 367.210164 137.827039 
L 366.78576 138.487552 
L 364.75625 141.586114 
L 363.517926 143.896894 
L 363.115522 144.892504 
L 362.825996 146.203143 
L 362.9119 146.948034 
L 363.215394 147.449738 
L 363.794188 147.827069 
L 364.51017 148.013653 
L 365.628927 148.027577 
L 365.628927 148.027577 
" style="fill:none;stroke:#000000;stroke-linecap:square;stroke-opacity:0.7;stroke-width:1.2;"/>
   </g>
   <g id="line2d_14">
    <path clip-path="url(#p8953090880)" d="M 365.629243 101.666842 
L 365.680005 101.451353 
L 366.643561 97.902411 
L 366.361932 97.681117 
L 365.612459 97.547248 
L 363.479032 97.480271 
L 360.544592 97.569362 
L 359.144774 97.792241 
L 358.508368 98.072578 
L 358.466288 98.248271 
L 358.664535 98.293857 
L 359.332699 98.18817 
L 360.671453 97.713124 
L 362.689616 96.737737 
L 365.237804 95.49021 
L 365.562053 95.576958 
L 365.744045 95.895628 
L 365.867089 96.725083 
L 365.896666 98.823581 
L 365.739805 101.064429 
L 365.754809 101.770668 
L 365.754809 101.770668 
" style="fill:none;stroke:#000000;stroke-linecap:square;stroke-opacity:0.7;stroke-width:1.2;"/>
   </g>
   <g id="line2d_15">
    <path clip-path="url(#p8953090880)" d="M 365.65904 55.382922 
L 365.959737 54.518669 
L 367.515354 50.063038 
L 367.856269 48.64346 
L 367.897729 47.496855 
L 367.707063 47.069239 
L 367.34001 46.858386 
L 366.869748 46.845387 
L 365.999886 47.077102 
L 364.804002 47.62299 
L 362.707501 48.875605 
L 359.840339 50.964926 
L 357.79178 52.758128 
L 357.014082 53.691501 
L 356.891831 54.13509 
L 357.015205 54.348813 
L 357.288736 54.479008 
L 358.017442 54.523654 
L 359.134356 54.312816 
L 360.795701 53.715215 
L 361.951201 53.417125 
L 362.817854 53.384358 
L 364.069783 53.583677 
L 365.426635 54.050668 
L 366.816456 54.788071 
L 367.488291 55.375653 
L 367.51256 55.581055 
L 367.313245 55.669995 
L 366.774519 55.655579 
L 365.762389 55.503619 
L 365.762389 55.503619 
" style="fill:none;stroke:#000000;stroke-linecap:square;stroke-opacity:0.7;stroke-width:1.2;"/>
   </g>
   <g id="line2d_16">
    <path clip-path="url(#p8953090880)" d="M 519.664075 240.191883 
L 518.717402 239.516363 
L 517.434634 238.955483 
L 516.438226 238.768238 
L 515.147874 238.626726 
L 515.151783 238.595221 
L 515.359986 238.354534 
L 516.109609 237.918181 
L 517.06061 237.602867 
L 517.62283 237.615455 
L 517.627176 237.749415 
L 517.311061 238.02588 
L 516.374774 238.507966 
L 515.337552 238.823214 
L 515.19506 238.758051 
L 515.197556 238.722953 
L 515.303027 238.551713 
L 516.01409 237.925769 
L 517.49943 236.906143 
L 519.454951 235.817047 
L 520.899922 235.249948 
L 521.750202 235.140928 
L 522.173439 235.32524 
L 522.305462 235.647856 
L 522.253386 236.158128 
L 521.937212 236.987477 
L 521.04995 238.529452 
L 519.830007 240.247106 
L 519.830007 240.247106 
" style="fill:none;stroke:#000000;stroke-linecap:square;stroke-opacity:0.7;stroke-width:1.2;"/>
   </g>
   <g id="line2d_17">
    <path clip-path="url(#p8953090880)" d="M 519.532849 193.969958 
L 519.790239 193.23263 
L 521.893719 187.543641 
L 521.836007 187.090086 
L 521.628506 186.980695 
L 521.205607 187.034089 
L 519.955649 187.535224 
L 515.932763 189.516409 
L 511.154711 192.012921 
L 510.325458 192.646214 
L 510.260449 192.925626 
L 510.415316 193.058016 
L 511.114768 193.208853 
L 512.395704 193.212799 
L 515.64439 193.086676 
L 515.979575 193.348082 
L 516.299589 193.920015 
L 517.631497 196.929868 
L 517.842959 196.953516 
L 518.145168 196.751679 
L 518.592453 196.116976 
L 519.635442 194.139344 
L 519.635442 194.139344 
" style="fill:none;stroke:#000000;stroke-linecap:square;stroke-opacity:0.7;stroke-width:1.2;"/>
   </g>
   <g id="line2d_18">
    <path clip-path="url(#p8953090880)" d="M 519.627538 147.859631 
L 518.986359 147.706192 
L 517.07877 146.988649 
L 515.929129 146.394411 
L 515.640752 146.048342 
L 515.626234 145.665992 
L 515.823438 145.125695 
L 516.491257 143.974924 
L 517.844009 142.100582 
L 519.237696 140.550255 
L 519.601067 140.330768 
L 519.604631 140.363366 
L 519.488599 140.608076 
L 518.641046 141.743687 
L 515.738327 145.139957 
L 513.971042 147.326973 
L 513.804861 147.781024 
L 513.949166 147.939269 
L 514.431389 147.978027 
L 516.315341 147.746858 
L 519.679291 147.379152 
L 521.036309 147.418663 
L 521.080034 147.490764 
L 521.051257 147.523708 
L 520.656448 147.700538 
L 519.762024 147.973717 
L 519.762024 147.973717 
" style="fill:none;stroke:#000000;stroke-linecap:square;stroke-opacity:0.7;stroke-width:1.2;"/>
   </g>
   <g id="line2d_19">
    <path clip-path="url(#p8953090880)" d="M 519.507229 101.62119 
L 519.465245 101.163229 
L 519.551314 99.565837 
L 520.087265 95.040597 
L 520.263053 92.823615 
L 520.128629 92.026177 
L 519.959078 91.870679 
L 519.743019 91.938904 
L 519.172265 92.51794 
L 518.281658 93.275819 
L 517.042468 93.974588 
L 515.75373 94.695096 
L 515.753796 95.611381 
L 515.844029 100.548107 
L 516.153348 102.570047 
L 516.546571 103.866468 
L 516.936123 104.529614 
L 517.27745 104.749498 
L 517.591582 104.707472 
L 518.007951 104.368811 
L 518.504222 103.681939 
L 519.568663 101.800113 
L 519.568663 101.800113 
" style="fill:none;stroke:#000000;stroke-linecap:square;stroke-opacity:0.7;stroke-width:1.2;"/>
   </g>
   <g id="line2d_20">
    <path clip-path="url(#p8953090880)" d="M 519.46273 55.545193 
L 519.00568 55.352967 
L 518.195339 54.743821 
L 517.483248 53.985325 
L 516.927699 53.132438 
L 516.675198 52.420149 
L 516.673671 51.772737 
L 516.917941 51.253989 
L 517.380013 50.843002 
L 518.266383 50.439537 
L 519.419328 50.173579 
L 520.241522 50.171413 
L 520.227103 50.277669 
L 519.730127 50.540547 
L 517.811033 51.194963 
L 516.625706 51.714225 
L 515.805293 52.31894 
L 515.055773 53.134534 
L 514.389558 54.209552 
L 513.992102 55.3002 
L 513.886826 56.093474 
L 513.987462 56.804442 
L 514.267168 57.262156 
L 514.669671 57.49599 
L 515.298229 57.542226 
L 516.156876 57.346148 
L 517.340668 56.866331 
L 519.61252 55.664305 
L 519.61252 55.664305 
" style="fill:none;stroke:#000000;stroke-linecap:square;stroke-opacity:0.7;stroke-width:1.2;"/>
   </g>
   <g id="line2d_21">
    <path clip-path="url(#p8953090880)" d="M 673.500554 240.265971 
L 670.765407 240.457427 
L 667.567454 240.449685 
L 666.383618 240.276554 
L 666.000861 240.041315 
L 665.994748 239.656686 
L 666.240979 239.248301 
L 667.437303 237.95811 
L 670.360352 235.255356 
L 674.219043 231.96594 
L 675.490909 230.945139 
L 674.985053 231.230671 
L 672.759048 232.714403 
L 671.309052 233.913099 
L 670.280358 235.021688 
L 669.461395 236.287761 
L 669.006907 237.432604 
L 668.847877 238.379328 
L 668.952859 239.066342 
L 669.238347 239.465549 
L 669.686891 239.719055 
L 670.707097 239.95424 
L 673.537458 240.387197 
L 673.537458 240.387197 
" style="fill:none;stroke:#000000;stroke-linecap:square;stroke-opacity:0.7;stroke-width:1.2;"/>
   </g>
   <g id="line2d_22">
    <path clip-path="url(#p8953090880)" d="M 673.432252 194.020999 
L 673.212122 193.758261 
L 672.882947 193.037991 
L 672.537163 191.710092 
L 672.379844 190.153946 
L 672.450642 188.640457 
L 672.704971 187.341584 
L 673.222357 185.961858 
L 673.873091 184.87846 
L 673.479813 185.250079 
L 671.589459 187.062814 
L 671.068537 187.930371 
L 670.221021 190.007992 
L 670.193265 190.802592 
L 670.393483 191.647164 
L 670.909742 192.662741 
L 671.591305 193.486866 
L 672.272799 193.976151 
L 672.952475 194.194277 
L 673.544121 194.18594 
L 673.544121 194.18594 
" style="fill:none;stroke:#000000;stroke-linecap:square;stroke-opacity:0.7;stroke-width:1.2;"/>
   </g>
   <g id="line2d_23">
    <path clip-path="url(#p8953090880)" d="M 673.590401 147.799941 
L 674.154394 146.263207 
L 675.079126 143.484321 
L 675.241008 142.554597 
L 675.126984 142.082837 
L 674.813715 141.929941 
L 674.250364 141.994539 
L 672.854269 142.506859 
L 670.045361 143.837769 
L 665.519119 146.239357 
L 664.742915 146.795784 
L 664.775594 146.914004 
L 664.803556 146.920215 
L 665.502688 146.84996 
L 667.143306 146.451855 
L 670.050174 145.513805 
L 672.074838 144.86883 
L 672.294571 145.0147 
L 672.51002 145.526837 
L 673.398152 148.083457 
L 673.784815 148.818337 
L 673.776012 148.684395 
L 673.678449 147.982693 
L 673.678449 147.982693 
" style="fill:none;stroke:#000000;stroke-linecap:square;stroke-opacity:0.7;stroke-width:1.2;"/>
   </g>
   <g id="line2d_24">
    <path clip-path="url(#p8953090880)" d="M 673.607787 101.631303 
L 673.700424 101.216561 
L 674.528921 97.896489 
L 674.737872 96.225053 
L 674.663851 95.176357 
L 674.402555 94.462621 
L 674.011355 93.968491 
L 673.421033 93.573325 
L 672.781261 93.401341 
L 672.315624 93.489135 
L 671.826166 93.836046 
L 669.39658 95.844932 
L 663.595407 100.261871 
L 663.270916 100.871185 
L 663.265662 101.392419 
L 663.479599 101.850178 
L 664.082108 102.481294 
L 665.225765 103.24157 
L 666.777271 103.983789 
L 668.560179 104.611954 
L 670.417465 105.025914 
L 671.490989 105.094679 
L 672.384825 104.938508 
L 672.867437 104.644816 
L 673.19608 104.192714 
L 673.446315 103.399102 
L 673.689546 101.787419 
L 673.689546 101.787419 
" style="fill:none;stroke:#000000;stroke-linecap:square;stroke-opacity:0.7;stroke-width:1.2;"/>
   </g>
   <g id="line2d_25">
    <path clip-path="url(#p8953090880)" d="M 673.628656 55.390814 
L 673.682939 54.84747 
L 673.644662 53.73509 
L 673.410024 52.928086 
L 673.152087 52.566404 
L 672.578153 52.226292 
L 671.822664 52.11602 
L 670.876395 52.186635 
L 669.506915 52.316297 
L 669.160724 52.207427 
L 668.964731 52.330985 
L 668.930499 52.623759 
L 669.120934 53.04432 
L 669.543481 53.481573 
L 670.217298 53.919593 
L 671.506726 54.461358 
L 673.1777 54.907663 
L 674.757002 55.245055 
L 674.592447 55.306503 
L 673.707439 55.550248 
L 673.707439 55.550248 
" style="fill:none;stroke:#000000;stroke-linecap:square;stroke-opacity:0.7;stroke-width:1.2;"/>
   </g>
  </g>
 </g>
 <defs>
  <clipPath id="p8953090880">
   <rect height="262.08" width="694.08" x="12.96" y="12.96"/>
  </clipPath>
 </defs>
</svg>
