<?xml version="1.0" encoding="utf-8" standalone="no"?>
<!DOCTYPE svg PUBLIC "-//W3C//DTD SVG 1.1//EN"
  "http://www.w3.org/Graphics/SVG/1.1/DTD/svg11.dtd">
<!-- Created with matplotlib (https://matplotlib.org/) -->
<svg height="288pt" version="1.1" viewBox="0 0 720 288" width="720pt" xmlns="http://www.w3.org/2000/svg" xmlns:xlink="http://www.w3.org/1999/xlink">
 <metadata>
  <rdf:RDF xmlns:cc="http://creativecommons.org/ns#" xmlns:dc="http://purl.org/dc/elements/1.1/" xmlns:rdf="http://www.w3.org/1999/02/22-rdf-syntax-ns#">
   <cc:Work>
    <dc:type rdf:resource="http://purl.org/dc/dcmitype/StillImage"/>
    <dc:date>2020-12-22T13:04:54.441816</dc:date>
    <dc:format>image/svg+xml</dc:format>
    <dc:creator>
     <cc:Agent>
      <dc:title>Matplotlib v3.3.2, https://matplotlib.org/</dc:title>
     </cc:Agent>
    </dc:creator>
   </cc:Work>
  </rdf:RDF>
 </metadata>
 <defs>
  <style type="text/css">*{stroke-linecap:butt;stroke-linejoin:round;}</style>
 </defs>
 <g id="figure_1">
  <g id="patch_1">
   <path d="M 0 288 
L 720 288 
L 720 0 
L 0 0 
z
" style="fill:#ffffff;"/>
  </g>
  <g id="axes_1">
   <g id="line2d_1">
    <path clip-path="url(#pe329eb093f)" d="M 71.715763 216.10359 
L 74.423592 218.573583 
L 75.719791 219.835333 
L 81.32609 225.890474 
L 84.500757 229.761433 
L 87.946698 234.266126 
L 96.265932 245.354661 
L 98.376156 247.926783 
L 100.401599 250.229998 
L 104.049588 253.931129 
L 107.088466 256.578157 
L 108.52603 257.700855 
L 113.407559 260.946707 
L 115.360289 261.992454 
L 117.642536 262.929015 
L 118.947822 263.127273 
L 119.44995 262.938577 
L 119.642195 262.596012 
L 119.63319 262.047088 
L 119.263368 260.98969 
L 118.540239 259.68764 
L 117.004403 257.510924 
L 115.463036 255.629732 
L 112.749253 252.694968 
L 109.915888 249.969465 
L 107.687745 248.008668 
L 104.297981 245.273907 
L 100.671151 242.619994 
L 96.373626 239.760804 
L 90.767115 236.354072 
L 79.783298 229.816835 
L 76.87546 227.746713 
L 74.869324 226.025091 
L 73.362995 224.400585 
L 72.320224 222.911856 
L 71.676928 221.63488 
L 71.211452 220.176028 
L 71.016696 218.766757 
L 71.045366 217.434532 
L 71.324931 215.857803 
L 71.803236 214.396657 
L 72.58772 212.732394 
L 73.590184 211.112806 
L 74.949894 209.381283 
L 75.771694 208.529777 
L 76.867815 207.669603 
L 77.327793 207.50293 
L 77.548339 207.592394 
L 77.612374 207.847063 
L 77.536368 208.299521 
L 77.080075 209.431952 
L 75.932115 211.472759 
L 74.482801 213.654772 
L 72.422266 216.416366 
L 72.422266 216.416366 
" style="fill:none;stroke:#000000;stroke-linecap:square;stroke-opacity:0.7;stroke-width:1.2;"/>
   </g>
   <g id="line2d_2">
    <path clip-path="url(#pe329eb093f)" d="M 71.152914 176.884277 
L 81.176795 190.77605 
L 82.858233 193.361985 
L 83.450605 194.629298 
L 83.408568 194.967533 
L 83.162826 194.89685 
L 82.528847 194.405886 
L 80.254665 192.237447 
L 76.766971 188.705583 
L 76.571961 188.280063 
L 76.75219 188.207251 
L 77.454228 188.311851 
L 80.528862 188.875483 
L 82.645373 188.995743 
L 84.528033 188.862964 
L 86.248725 188.497612 
L 87.606419 187.985479 
L 88.603332 187.399685 
L 89.265992 186.757153 
L 89.484638 186.295369 
L 89.454245 185.831139 
L 89.204636 185.455161 
L 88.557245 184.98953 
L 87.28601 184.43824 
L 83.754853 183.287053 
L 80.151754 182.004909 
L 77.261227 180.745902 
L 75.161152 179.663708 
L 72.90608 178.284075 
L 71.507609 177.212611 
L 71.507609 177.212611 
" style="fill:none;stroke:#000000;stroke-linecap:square;stroke-opacity:0.7;stroke-width:1.2;"/>
   </g>
   <g id="line2d_3">
    <path clip-path="url(#pe329eb093f)" d="M 70.999455 137.027156 
L 71.605384 136.502168 
L 71.923884 135.942089 
L 72.095015 135.198506 
L 72.067823 134.183915 
L 71.788747 133.005893 
L 71.28947 131.814993 
L 70.378302 130.311389 
L 68.951514 128.542378 
L 67.206645 126.772977 
L 64.834485 124.715772 
L 62.570584 123.008919 
L 59.565623 121.037136 
L 56.516214 119.277518 
L 56.238362 119.260178 
L 56.312492 119.472577 
L 56.845212 120.173907 
L 58.423264 121.795099 
L 60.503385 123.577947 
L 62.764296 125.233526 
L 65.437089 126.915755 
L 68.548058 128.590249 
L 71.693999 130.046674 
L 76.054963 131.776491 
L 81.121428 133.519418 
L 87.979041 135.878098 
L 90.383075 136.97325 
L 91.512325 137.674738 
L 92.249917 138.31462 
L 92.744508 139.042392 
L 92.861404 139.643282 
L 92.751963 140.097401 
L 92.367794 140.616613 
L 91.693142 141.080436 
L 90.265448 141.582983 
L 88.077336 141.873436 
L 85.999216 141.872627 
L 82.893214 141.553598 
L 79.865685 140.965942 
L 76.902863 140.150425 
L 74.266106 139.175535 
L 72.351252 138.203237 
L 71.264367 137.407648 
L 71.264367 137.407648 
" style="fill:none;stroke:#000000;stroke-linecap:square;stroke-opacity:0.7;stroke-width:1.2;"/>
   </g>
   <g id="line2d_4">
    <path clip-path="url(#pe329eb093f)" d="M 71.862434 97.758062 
L 74.981276 101.738939 
L 75.51766 102.489625 
L 87.419984 118.772706 
L 90.391051 122.209667 
L 93.872313 125.887328 
L 95.797789 127.775527 
L 101.512891 132.860114 
L 103.817837 134.722535 
L 108.426829 138.185124 
L 116.957444 143.938544 
L 127.835456 151.028984 
L 131.300133 153.575673 
L 134.357478 156.13479 
L 135.640246 157.313621 
L 135.242721 156.816584 
L 125.966617 145.571471 
L 122.721085 141.852698 
L 114.640898 133.223343 
L 109.856222 128.505726 
L 103.558797 122.61241 
L 94.289656 113.969121 
L 89.520006 109.163878 
L 84.990247 104.615737 
L 83.231263 103.182204 
L 81.734124 102.204105 
L 79.853491 101.231753 
L 77.029717 100.100806 
L 72.711595 98.630053 
L 72.711595 98.630053 
" style="fill:none;stroke:#000000;stroke-linecap:square;stroke-opacity:0.7;stroke-width:1.2;"/>
   </g>
   <g id="line2d_5">
    <path clip-path="url(#pe329eb093f)" d="M 71.09273 58.219204 
L 72.232127 58.810875 
L 73.067676 59.659608 
L 76.510361 63.654543 
L 76.891815 63.817786 
L 77.145969 63.723919 
L 77.264451 63.388212 
L 77.210154 62.713154 
L 76.896607 61.755793 
L 76.319524 60.680415 
L 75.542334 59.629391 
L 74.049597 58.093938 
L 69.294549 53.660286 
L 68.055622 52.458205 
L 67.616288 52.26131 
L 67.235425 52.282249 
L 66.774576 52.562672 
L 66.158849 53.255982 
L 63.901365 56.087307 
L 62.701673 57.085304 
L 61.797582 57.579296 
L 60.798005 57.864354 
L 60.020438 57.84887 
L 59.532991 57.62161 
L 59.36007 57.322393 
L 59.411107 56.963155 
L 59.754653 56.507357 
L 60.307582 56.107424 
L 61.383103 55.645966 
L 62.628196 55.38175 
L 64.095047 55.343572 
L 65.653258 55.594245 
L 67.025196 56.054678 
L 68.531886 56.809663 
L 71.373302 58.417967 
L 71.373302 58.417967 
" style="fill:none;stroke:#000000;stroke-linecap:square;stroke-opacity:0.7;stroke-width:1.2;"/>
   </g>
   <g id="line2d_6">
    <path clip-path="url(#pe329eb093f)" d="M 202.891588 216.290417 
L 203.211325 216.544475 
L 211.485158 223.926952 
L 213.61639 226.380682 
L 215.337039 228.662371 
L 216.295712 230.09142 
L 218.469216 233.987767 
L 218.835772 234.786482 
L 219.96242 237.813842 
L 220.475615 240.091568 
L 220.552168 241.582355 
L 220.438457 242.242303 
L 220.149705 242.721227 
L 219.778951 242.840644 
L 219.213652 242.630902 
L 218.425239 241.968712 
L 217.27212 240.653964 
L 212.835422 235.266539 
L 211.152378 233.6291 
L 209.614932 232.407765 
L 207.75267 231.270689 
L 205.765278 230.411756 
L 203.67664 229.774883 
L 201.535577 229.088972 
L 201.001111 228.691899 
L 200.830392 228.307705 
L 200.857275 227.888142 
L 201.186184 227.140502 
L 202.018578 225.971646 
L 204.039024 223.62726 
L 206.622128 220.547937 
L 207.294269 219.447189 
L 207.491483 218.671127 
L 207.360116 218.199995 
L 207.012268 217.831562 
L 206.355815 217.46138 
L 204.486359 216.762245 
L 203.402972 216.358349 
L 203.402972 216.358349 
" style="fill:none;stroke:#000000;stroke-linecap:square;stroke-opacity:0.7;stroke-width:1.2;"/>
   </g>
   <g id="line2d_7">
    <path clip-path="url(#pe329eb093f)" d="M 201.728306 175.513004 
L 201.696859 174.532367 
L 201.275291 172.571969 
L 200.410832 169.882267 
L 199.199556 166.72858 
L 197.992759 163.892864 
L 195.080073 157.73107 
L 192.327702 152.485213 
L 188.769983 146.293352 
L 185.355704 140.846235 
L 181.776225 135.562378 
L 178.314257 130.795779 
L 174.162477 125.437144 
L 170.005928 120.383238 
L 165.645983 115.372376 
L 161.290063 110.698514 
L 158.280737 107.774738 
L 156.65186 106.469822 
L 156.156313 106.324072 
L 156.132905 106.528463 
L 156.445125 107.248187 
L 157.385946 108.773915 
L 160.783401 113.635733 
L 165.616998 120.60766 
L 168.647942 125.374384 
L 171.237834 129.824665 
L 174.011948 135.004457 
L 181.270091 148.872691 
L 183.580117 152.58182 
L 185.375135 155.130827 
L 187.699147 158.066858 
L 190.230931 160.921027 
L 194.400829 165.210445 
L 198.18971 169.185354 
L 199.865024 171.268891 
L 201.023908 173.136694 
L 201.66644 174.639549 
L 202.110754 176.066885 
L 202.110754 176.066885 
" style="fill:none;stroke:#000000;stroke-linecap:square;stroke-opacity:0.7;stroke-width:1.2;"/>
   </g>
   <g id="line2d_8">
    <path clip-path="url(#pe329eb093f)" d="M 204.043104 137.289913 
L 211.652443 147.1781 
L 237.513273 178.187229 
L 239.895852 180.774211 
L 246.62392 187.653446 
L 251.066749 191.773161 
L 256.423233 196.221489 
L 260.669824 199.340535 
L 266.277507 202.966524 
L 274.229 207.379826 
L 276.360995 208.437456 
L 279.471206 209.659007 
L 280.327236 209.001949 
L 279.911602 207.704627 
L 279.784306 207.423129 
L 278.26582 204.618463 
L 275.656484 200.459345 
L 268.52627 190.172156 
L 261.30585 180.413901 
L 257.135934 175.020616 
L 253.208595 170.185093 
L 248.916231 165.284662 
L 244.924112 161.157651 
L 241.784907 158.204859 
L 237.682972 154.685714 
L 233.470016 151.386636 
L 228.632201 147.880392 
L 223.972732 144.768523 
L 220.975398 143.017524 
L 218.919758 141.988613 
L 215.75818 140.681761 
L 212.851877 139.730626 
L 207.358439 138.417112 
L 204.54466 137.905139 
L 204.54466 137.905139 
" style="fill:none;stroke:#000000;stroke-linecap:square;stroke-opacity:0.7;stroke-width:1.2;"/>
   </g>
   <g id="line2d_9">
    <path clip-path="url(#pe329eb093f)" d="M 202.263306 97.362413 
L 199.921035 94.633448 
L 198.673194 92.86315 
L 197.125126 90.225397 
L 195.34796 86.629732 
L 193.12556 81.546523 
L 189.455155 73.102281 
L 187.482602 69.213626 
L 185.695381 66.260792 
L 184.311528 64.330048 
L 182.270412 61.954574 
L 180.848736 60.33842 
L 181.224257 60.421381 
L 183.183925 61.294618 
L 185.671871 62.654854 
L 187.972853 64.149065 
L 190.492841 66.079154 
L 192.517563 67.898935 
L 194.093923 69.54036 
L 195.672199 71.482088 
L 196.861947 73.274928 
L 197.914371 75.309368 
L 198.669236 77.294906 
L 199.304571 79.643932 
L 202.101569 92.53992 
L 202.231309 94.5843 
L 202.160543 96.34281 
L 202.032334 98.445846 
L 202.186569 98.465852 
L 202.463691 98.064426 
L 202.463691 98.064426 
" style="fill:none;stroke:#000000;stroke-linecap:square;stroke-opacity:0.7;stroke-width:1.2;"/>
   </g>
   <g id="line2d_10">
    <path clip-path="url(#pe329eb093f)" d="M 202.482082 57.509618 
L 203.038864 56.831095 
L 203.355411 56.232459 
L 203.799537 54.904072 
L 204.106039 52.235361 
L 203.970236 50.109109 
L 203.902558 49.637831 
L 202.955281 45.874978 
L 201.938373 43.223024 
L 200.588674 40.303402 
L 197.135581 33.809045 
L 192.787519 26.171454 
L 191.905188 24.976539 
L 191.77347 24.884164 
L 191.511215 24.968487 
L 191.374056 25.466502 
L 190.293466 32.637799 
L 189.289174 37.429506 
L 189.016805 39.849557 
L 189.017732 41.618988 
L 189.261593 43.368047 
L 189.744968 44.980871 
L 191.986725 50.779771 
L 192.929134 52.268928 
L 194.016616 53.558029 
L 194.996071 54.448513 
L 196.47101 55.448586 
L 198.069343 56.228586 
L 201.188994 57.380477 
L 203.015185 57.93723 
L 203.015185 57.93723 
" style="fill:none;stroke:#000000;stroke-linecap:square;stroke-opacity:0.7;stroke-width:1.2;"/>
   </g>
   <g id="line2d_11">
    <path clip-path="url(#pe329eb093f)" d="M 333.324868 215.342668 
L 332.343915 213.997788 
L 330.936476 212.00833 
L 329.060859 209.046095 
L 326.678289 204.832411 
L 323.785965 199.185956 
L 320.110063 191.463623 
L 314.922347 180.48557 
L 312.222959 175.282625 
L 310.518118 172.301566 
L 307.601972 167.777337 
L 306.223659 165.871832 
L 303.894825 162.943686 
L 300.972813 159.706882 
L 297.5243 156.402565 
L 296.445962 155.471425 
L 297.910607 156.595129 
L 306.429194 162.972495 
L 320.550695 173.402148 
L 323.623543 175.945642 
L 326.665553 178.765887 
L 328.634558 180.854026 
L 329.87061 182.325017 
L 331.941562 185.217232 
L 333.032382 187.076077 
L 334.417509 190.046601 
L 335.133111 192.078022 
L 335.804522 194.691253 
L 336.178991 196.953431 
L 336.407085 200.007727 
L 336.349552 202.922888 
L 336.019835 205.958344 
L 335.40212 209.069397 
L 334.785541 211.285366 
L 334.04862 213.404883 
L 332.705002 216.432257 
L 331.52365 218.471333 
L 331.035013 219.074286 
L 331.321487 218.569987 
L 333.319775 215.811463 
L 333.421673 215.668126 
L 333.421673 215.668126 
" style="fill:none;stroke:#000000;stroke-linecap:square;stroke-opacity:0.7;stroke-width:1.2;"/>
   </g>
   <g id="line2d_12">
    <path clip-path="url(#pe329eb093f)" d="M 334.766208 176.685996 
L 338.74865 182.115394 
L 341.151187 185.535719 
L 359.454724 213.028013 
L 365.0535 220.632523 
L 367.650681 223.608604 
L 370.031577 225.859267 
L 372.034387 227.262114 
L 373.253106 227.808179 
L 374.36901 228.013597 
L 375.301094 227.860505 
L 375.801128 227.584614 
L 376.529994 226.691356 
L 376.821411 225.888255 
L 376.937614 225.2148 
L 376.940762 223.852397 
L 376.410593 221.418707 
L 375.726899 219.724399 
L 374.373343 217.313746 
L 373.224771 215.684381 
L 371.136825 213.200728 
L 367.786094 209.898201 
L 364.494772 207.086647 
L 359.44064 203.163587 
L 351.956754 197.441137 
L 349.006834 194.932597 
L 346.325263 192.307356 
L 344.714872 190.429851 
L 343.372246 188.522506 
L 342.463718 186.86818 
L 341.799505 185.203312 
L 341.405566 183.636407 
L 341.227716 182.036592 
L 341.270789 180.299255 
L 341.59914 178.199354 
L 342.218492 175.841579 
L 343.062487 172.709581 
L 343.095711 172.218737 
L 342.89002 171.692875 
L 342.543606 171.624534 
L 342.098547 171.755079 
L 340.97636 172.422643 
L 339.671251 173.42816 
L 335.38182 177.089368 
L 335.38182 177.089368 
" style="fill:none;stroke:#000000;stroke-linecap:square;stroke-opacity:0.7;stroke-width:1.2;"/>
   </g>
   <g id="line2d_13">
    <path clip-path="url(#pe329eb093f)" d="M 334.047832 137.076898 
L 334.069222 136.181172 
L 334.382203 135.524606 
L 334.912468 134.97116 
L 335.495938 134.667351 
L 336.197379 134.536105 
L 337.275265 134.601367 
L 338.674604 134.95517 
L 339.998653 135.521264 
L 341.284466 136.34258 
L 342.453429 137.409371 
L 343.462195 138.636578 
L 344.640549 140.438925 
L 347.136181 144.474429 
L 347.745683 144.991358 
L 348.032978 144.987857 
L 348.114415 144.748099 
L 347.983743 144.349172 
L 347.571084 143.847795 
L 346.937001 143.40172 
L 345.851216 142.945223 
L 344.358628 142.5795 
L 340.2718 141.720352 
L 338.168041 140.964531 
L 334.290617 139.277391 
L 334.186061 139.000286 
L 334.25189 138.365757 
L 334.403278 137.5673 
L 334.403278 137.5673 
" style="fill:none;stroke:#000000;stroke-linecap:square;stroke-opacity:0.7;stroke-width:1.2;"/>
   </g>
   <g id="line2d_14">
    <path clip-path="url(#pe329eb093f)" d="M 333.811154 97.715991 
L 334.905276 98.877435 
L 336.715827 100.389029 
L 338.914344 101.841536 
L 345.060961 105.756135 
L 345.225056 105.897732 
L 344.471478 105.421762 
L 341.741071 103.428111 
L 339.30528 101.386381 
L 337.662054 99.735072 
L 336.197788 97.888212 
L 335.305904 96.454126 
L 334.180887 94.133641 
L 333.120623 91.408203 
L 333.089067 90.886426 
L 333.264335 90.798413 
L 333.795222 90.875483 
L 336.392251 91.661235 
L 338.103426 92.296127 
L 339.028795 92.865787 
L 339.439586 93.336302 
L 339.688347 94.03335 
L 339.673957 94.756436 
L 339.449973 95.591526 
L 338.846341 96.8581 
L 337.745653 98.5148 
L 336.598672 99.93045 
L 334.67807 101.937029 
L 332.826806 103.549161 
L 331.380356 104.567801 
L 330.264464 105.09799 
L 329.743245 105.111335 
L 329.569361 104.877538 
L 329.570338 104.613423 
L 329.745384 104.047204 
L 330.305671 102.991874 
L 331.794744 100.859032 
L 333.850034 98.346816 
L 334.101459 98.061531 
L 334.101459 98.061531 
" style="fill:none;stroke:#000000;stroke-linecap:square;stroke-opacity:0.7;stroke-width:1.2;"/>
   </g>
   <g id="line2d_15">
    <path clip-path="url(#pe329eb093f)" d="M 333.624511 57.90482 
L 333.853907 57.446354 
L 333.92909 56.320242 
L 333.709125 55.233162 
L 333.182715 53.857372 
L 331.750591 50.493289 
L 331.41108 49.103488 
L 331.187206 47.418733 
L 331.115669 44.977883 
L 331.238419 43.411322 
L 331.530161 42.232233 
L 331.975355 41.544956 
L 332.528823 41.261921 
L 333.228438 41.275626 
L 334.117322 41.589527 
L 335.196061 42.238623 
L 336.225008 43.101564 
L 337.065671 44.115727 
L 337.418292 44.808959 
L 337.573404 45.416505 
L 337.527539 46.390109 
L 337.311482 47.039925 
L 336.697913 48.085969 
L 335.704746 49.239213 
L 334.353006 50.453935 
L 332.495408 51.802921 
L 330.556106 52.952033 
L 328.283727 54.010094 
L 326.532114 54.586037 
L 325.281716 54.785655 
L 324.826318 54.66553 
L 324.922994 54.509739 
L 325.386183 54.284576 
L 326.375228 54.033028 
L 328.069998 53.85712 
L 329.89259 53.933078 
L 331.188945 54.191502 
L 332.200222 54.582382 
L 332.988956 55.097116 
L 333.583506 55.742882 
L 333.989807 56.531636 
L 334.199699 57.442449 
L 334.257427 58.390769 
L 334.257427 58.390769 
" style="fill:none;stroke:#000000;stroke-linecap:square;stroke-opacity:0.7;stroke-width:1.2;"/>
   </g>
   <g id="line2d_16">
    <path clip-path="url(#pe329eb093f)" d="M 465.37307 215.47427 
L 465.590807 215.154699 
L 466.412312 213.433396 
L 466.790243 211.898733 
L 466.905852 210.378417 
L 466.760477 208.621437 
L 466.475723 207.307473 
L 465.774511 205.294487 
L 464.815597 203.345528 
L 463.467492 201.19802 
L 462.221656 199.523165 
L 460.319322 197.282316 
L 457.370681 194.20513 
L 448.558419 185.336277 
L 445.123992 181.696001 
L 444.798606 181.678382 
L 444.62576 181.915788 
L 444.48297 182.504554 
L 444.345077 184.228591 
L 444.156845 191.037347 
L 444.156168 196.716913 
L 444.437326 200.075412 
L 444.749305 201.694488 
L 445.216828 203.200643 
L 445.799672 204.455858 
L 446.575959 205.632414 
L 447.66855 206.809223 
L 449.005844 207.849872 
L 450.445686 208.69558 
L 452.249113 209.518246 
L 455.29322 210.580012 
L 461.102808 212.444098 
L 462.830306 213.296642 
L 464.141588 214.236797 
L 465.340434 215.434173 
L 465.695966 215.778089 
L 465.695966 215.778089 
" style="fill:none;stroke:#000000;stroke-linecap:square;stroke-opacity:0.7;stroke-width:1.2;"/>
   </g>
   <g id="line2d_17">
    <path clip-path="url(#pe329eb093f)" d="M 466.036953 176.465942 
L 468.687986 177.272461 
L 471.355275 178.07327 
L 474.68527 179.342522 
L 477.146087 180.640125 
L 479.426827 182.275404 
L 481.75297 184.566293 
L 483.715483 187.146367 
L 484.646096 188.607322 
L 486.811243 192.614828 
L 488.832714 197.088633 
L 490.327413 200.836008 
L 491.459529 204.042181 
L 492.195374 206.971328 
L 492.247324 207.56797 
L 492.099274 208.647963 
L 491.848771 209.07668 
L 491.556059 209.340332 
L 491.119955 209.555263 
L 490.200948 209.71165 
L 488.847505 209.62019 
L 487.398464 209.309961 
L 484.824402 208.443657 
L 482.44539 207.385416 
L 479.693478 205.897454 
L 476.855656 204.058807 
L 474.426134 202.187275 
L 472.188833 200.111638 
L 470.974995 198.757001 
L 469.768241 197.117063 
L 468.953777 195.675663 
L 468.316627 194.01792 
L 468.075606 192.894953 
L 467.995682 191.606954 
L 468.157366 190.178417 
L 468.532584 188.879602 
L 469.134807 187.551097 
L 470.081316 186.0259 
L 471.436887 184.300799 
L 473.888247 181.289708 
L 474.073475 180.613386 
L 473.968079 180.128591 
L 473.76823 179.81999 
L 473.053114 179.229317 
L 471.893245 178.653448 
L 470.224741 178.076653 
L 466.448402 177.104368 
L 466.448402 177.104368 
" style="fill:none;stroke:#000000;stroke-linecap:square;stroke-opacity:0.7;stroke-width:1.2;"/>
   </g>
   <g id="line2d_18">
    <path clip-path="url(#pe329eb093f)" d="M 465.473066 136.875314 
L 468.614818 136.827887 
L 471.886015 136.77536 
L 472.627241 136.87379 
L 473.797573 137.341597 
L 474.383348 137.890194 
L 474.797104 138.534691 
L 475.222346 139.582977 
L 475.558949 140.929036 
L 475.830743 143.149842 
L 475.821526 144.831384 
L 475.554676 146.233988 
L 475.242762 146.883691 
L 474.762891 147.429048 
L 473.974074 147.908346 
L 473.565434 148.065257 
L 471.629546 148.47542 
L 468.395664 148.765454 
L 465.248696 149.10183 
L 465.214583 149.1118 
L 466.579067 148.822126 
L 474.543282 147.004623 
L 476.332293 146.826006 
L 476.431942 146.874009 
L 476.395934 146.908162 
L 475.927732 147.047417 
L 474.578837 147.19802 
L 472.920043 147.153596 
L 471.314668 146.86249 
L 469.911675 146.333838 
L 468.85019 145.676505 
L 467.976098 144.871731 
L 467.15636 143.750739 
L 466.642453 142.718654 
L 466.174589 141.294933 
L 465.851715 139.39382 
L 465.820071 137.175099 
L 465.820071 137.175099 
" style="fill:none;stroke:#000000;stroke-linecap:square;stroke-opacity:0.7;stroke-width:1.2;"/>
   </g>
   <g id="line2d_19">
    <path clip-path="url(#pe329eb093f)" d="M 465.208052 97.783239 
L 464.89674 103.385917 
L 465.28662 104.471599 
L 465.960655 105.398918 
L 466.285725 105.710762 
L 467.528026 106.553218 
L 468.946272 107.148094 
L 470.504882 107.525219 
L 472.158495 107.65309 
L 473.661132 107.479394 
L 474.775679 107.054744 
L 475.473081 106.491597 
L 475.781434 106.017261 
L 475.968656 105.358255 
L 475.94402 104.489509 
L 475.623953 103.247515 
L 475.232687 101.782066 
L 475.193525 100.644554 
L 475.432894 99.47611 
L 476.083704 97.732499 
L 477.108842 95.573605 
L 478.064793 94.036259 
L 478.980034 92.970618 
L 479.892714 91.998297 
L 479.635735 92.157704 
L 478.318279 93.33224 
L 472.938172 98.288967 
L 469.363617 101.193133 
L 466.053248 103.555919 
L 463.272915 105.256197 
L 461.15804 106.282 
L 459.978781 106.61834 
L 459.456616 106.546164 
L 459.314612 106.256893 
L 459.458637 105.72335 
L 460.002609 104.815081 
L 461.024127 103.49496 
L 463.709942 100.429131 
L 465.697562 98.178496 
L 465.697562 98.178496 
" style="fill:none;stroke:#000000;stroke-linecap:square;stroke-opacity:0.7;stroke-width:1.2;"/>
   </g>
   <g id="line2d_20">
    <path clip-path="url(#pe329eb093f)" d="M 465.895466 58.280281 
L 466.280707 59.239166 
L 468.531167 66.006828 
L 470.168559 69.745984 
L 473.252389 74.977781 
L 474.919509 77.204347 
L 476.269882 78.77299 
L 477.751249 80.269012 
L 479.545213 81.754475 
L 480.870109 82.579984 
L 481.951219 83.01511 
L 482.718717 83.116026 
L 483.338829 82.964028 
L 483.815386 82.555689 
L 484.116667 82.0319 
L 484.369606 81.312236 
L 484.686945 79.91528 
L 485.146798 76.821394 
L 485.365676 73.518763 
L 485.301843 71.079333 
L 484.995242 68.396416 
L 484.508292 66.056906 
L 483.921112 64.208438 
L 483.285035 62.917991 
L 482.735543 62.285178 
L 482.224994 62.042195 
L 481.606274 62.054982 
L 480.672109 62.095474 
L 480.001819 61.875699 
L 476.296923 60.333482 
L 474.155897 59.816351 
L 471.452012 59.414392 
L 467.376624 58.863866 
L 466.383824 58.590164 
L 466.383824 58.590164 
" style="fill:none;stroke:#000000;stroke-linecap:square;stroke-opacity:0.7;stroke-width:1.2;"/>
   </g>
   <g id="line2d_21">
    <path clip-path="url(#pe329eb093f)" d="M 596.181584 215.480074 
L 596.127109 215.224374 
L 594.895524 212.115164 
L 590.555629 202.913052 
L 584.022392 189.383686 
L 580.272089 182.0396 
L 576.339441 174.89184 
L 575.271051 173.068835 
L 571.333473 166.83112 
L 568.492984 162.793155 
L 562.34829 155.158607 
L 554.075748 145.956944 
L 554.061182 145.811954 
L 554.448765 145.922438 
L 555.800894 146.884118 
L 557.927337 148.725916 
L 561.004031 151.727219 
L 564.77597 155.735719 
L 570.30042 161.973848 
L 574.679557 167.203194 
L 577.687175 171.101729 
L 579.64011 173.907614 
L 581.167279 176.362582 
L 583.094882 180.02095 
L 584.212684 182.631905 
L 585.334145 185.920524 
L 585.952445 188.239829 
L 586.683409 191.910806 
L 587.16193 195.506804 
L 587.541258 200.216597 
L 588.135504 209.27614 
L 588.830368 212.645924 
L 589.394801 213.928075 
L 589.91221 214.672017 
L 590.387214 215.147419 
L 591.551216 215.826137 
L 592.366013 216.049215 
L 593.749979 216.139826 
L 594.821789 216.027239 
L 596.405486 215.59367 
L 596.405486 215.59367 
" style="fill:none;stroke:#000000;stroke-linecap:square;stroke-opacity:0.7;stroke-width:1.2;"/>
   </g>
   <g id="line2d_22">
    <path clip-path="url(#pe329eb093f)" d="M 598.234867 177.463163 
L 607.384217 192.326292 
L 614.409061 203.206668 
L 621.242017 213.155744 
L 624.588455 217.768201 
L 630.410725 225.307728 
L 635.044632 230.776082 
L 644.613815 240.051077 
L 647.661033 242.295156 
L 649.774907 243.626621 
L 653.04564 245.317079 
L 655.307904 246.221009 
L 656.689456 246.66163 
L 659.731276 247.275121 
L 660.785632 247.324281 
L 662.143872 247.136777 
L 662.463055 247.016667 
L 663.680348 245.388493 
L 663.76165 244.379854 
L 663.706119 243.500134 
L 662.835862 239.56206 
L 661.940272 236.858003 
L 660.089742 232.263781 
L 658.104111 228.063779 
L 655.456261 223.152569 
L 652.812237 218.799946 
L 650.646024 215.556684 
L 648.056596 212.003359 
L 645.974895 209.3738 
L 642.263954 205.129163 
L 638.929244 201.739255 
L 635.8269 198.894401 
L 632.980319 196.508752 
L 628.499695 193.115693 
L 624.352654 190.2921 
L 619.380693 187.201644 
L 606.783427 179.56214 
L 604.895885 178.474807 
L 603.619536 177.955746 
L 602.241872 177.658191 
L 600.467379 177.668436 
L 598.771705 178.023675 
L 598.771705 178.023675 
" style="fill:none;stroke:#000000;stroke-linecap:square;stroke-opacity:0.7;stroke-width:1.2;"/>
   </g>
   <g id="line2d_23">
    <path clip-path="url(#pe329eb093f)" d="M 597.184536 136.686135 
L 596.427902 135.593771 
L 594.62905 133.303663 
L 593.25706 131.227744 
L 592.049881 128.948369 
L 591.115755 126.695953 
L 590.31383 124.172889 
L 589.533135 120.885085 
L 588.519716 116.488107 
L 588.069874 115.483332 
L 587.968252 115.45491 
L 587.96713 115.516358 
L 588.116085 115.894919 
L 588.689169 116.653677 
L 589.638926 117.493518 
L 591.241497 118.557178 
L 594.183334 120.455684 
L 595.623309 121.663157 
L 597.093904 123.176686 
L 599.31046 125.836018 
L 601.877356 128.830595 
L 603.370323 130.215496 
L 604.818623 131.229241 
L 606.243206 132.220477 
L 606.403777 132.581029 
L 606.305597 132.980233 
L 606.007213 133.326679 
L 605.223845 133.862703 
L 602.875276 135.062306 
L 599.423093 136.706379 
L 598.242634 137.07032 
L 597.520885 137.129679 
L 597.520885 137.129679 
" style="fill:none;stroke:#000000;stroke-linecap:square;stroke-opacity:0.7;stroke-width:1.2;"/>
   </g>
   <g id="line2d_24">
    <path clip-path="url(#pe329eb093f)" d="M 597.460258 98.258522 
L 598.348163 99.286385 
L 601.70478 103.522601 
L 605.316325 108.629341 
L 607.262919 111.635927 
L 610.118733 116.45868 
L 612.752065 121.551638 
L 614.056482 124.483453 
L 615.34407 128.006284 
L 615.818229 129.822828 
L 615.970543 130.914459 
L 615.906369 131.591036 
L 615.711892 131.776045 
L 615.431561 131.673254 
L 615.049141 131.286862 
L 614.258092 130.053319 
L 613.294101 128.066546 
L 612.114377 125.070407 
L 610.851653 121.142952 
L 609.673354 116.620667 
L 608.049479 110.154349 
L 607.647353 108.681495 
L 607.808916 108.47122 
L 608.660861 108.012509 
L 609.782249 107.259897 
L 610.692478 106.399013 
L 611.578319 105.247045 
L 612.234399 104.015316 
L 612.609673 102.892844 
L 612.76838 101.885237 
L 612.746158 100.898532 
L 612.513971 99.909113 
L 612.125613 99.107964 
L 611.395245 98.231716 
L 610.570063 97.624941 
L 609.410749 97.106327 
L 608.128491 96.800367 
L 606.676178 96.67412 
L 604.702404 96.759993 
L 602.754711 97.050912 
L 599.692231 97.783586 
L 597.906533 98.304478 
L 597.906533 98.304478 
" style="fill:none;stroke:#000000;stroke-linecap:square;stroke-opacity:0.7;stroke-width:1.2;"/>
   </g>
   <g id="line2d_25">
    <path clip-path="url(#pe329eb093f)" d="M 597.098918 58.104854 
L 598.738133 59.442137 
L 600.898456 60.744078 
L 601.825984 61.147024 
L 601.830655 61.117197 
L 601.619554 60.857953 
L 599.37777 58.752482 
L 591.74529 51.543897 
L 589.061014 48.723512 
L 587.211468 46.449927 
L 585.8506 44.330609 
L 585.044203 42.536639 
L 584.734117 41.301503 
L 584.742464 40.549763 
L 584.89627 40.326625 
L 585.126684 40.352598 
L 585.504564 40.670323 
L 586.183181 41.567611 
L 590.846383 48.385135 
L 592.247342 49.902686 
L 593.758492 51.218566 
L 595.547012 52.368882 
L 596.927538 52.977583 
L 598.274574 53.360022 
L 600.070668 53.593852 
L 602.068752 53.590022 
L 604.323169 53.581275 
L 604.329968 53.723756 
L 603.925931 54.118233 
L 601.856513 55.656408 
L 599.173646 57.469075 
L 597.787931 58.163438 
L 597.528705 58.256345 
L 597.528705 58.256345 
" style="fill:none;stroke:#000000;stroke-linecap:square;stroke-opacity:0.7;stroke-width:1.2;"/>
   </g>
  </g>
 </g>
 <defs>
  <clipPath id="pe329eb093f">
   <rect height="262.08" width="694.08" x="12.96" y="12.96"/>
  </clipPath>
 </defs>
</svg>
