<?xml version="1.0" encoding="utf-8" standalone="no"?>
<!DOCTYPE svg PUBLIC "-//W3C//DTD SVG 1.1//EN"
  "http://www.w3.org/Graphics/SVG/1.1/DTD/svg11.dtd">
<!-- Created with matplotlib (https://matplotlib.org/) -->
<svg height="288pt" version="1.1" viewBox="0 0 720 288" width="720pt" xmlns="http://www.w3.org/2000/svg" xmlns:xlink="http://www.w3.org/1999/xlink">
 <metadata>
  <rdf:RDF xmlns:cc="http://creativecommons.org/ns#" xmlns:dc="http://purl.org/dc/elements/1.1/" xmlns:rdf="http://www.w3.org/1999/02/22-rdf-syntax-ns#">
   <cc:Work>
    <dc:type rdf:resource="http://purl.org/dc/dcmitype/StillImage"/>
    <dc:date>2020-12-22T13:21:03.241378</dc:date>
    <dc:format>image/svg+xml</dc:format>
    <dc:creator>
     <cc:Agent>
      <dc:title>Matplotlib v3.3.2, https://matplotlib.org/</dc:title>
     </cc:Agent>
    </dc:creator>
   </cc:Work>
  </rdf:RDF>
 </metadata>
 <defs>
  <style type="text/css">*{stroke-linecap:butt;stroke-linejoin:round;}</style>
 </defs>
 <g id="figure_1">
  <g id="patch_1">
   <path d="M 0 288 
L 720 288 
L 720 0 
L 0 0 
z
" style="fill:#ffffff;"/>
  </g>
  <g id="axes_1">
   <g id="line2d_1">
    <path clip-path="url(#pd6d08dcca0)" d="M 65.825601 244.18389 
L 65.35202 243.792495 
L 61.489008 240.754965 
L 59.602505 239.475333 
L 57.929156 238.613099 
L 57.088346 238.350447 
L 56.057618 238.254729 
L 55.211688 238.386574 
L 54.057899 238.837944 
L 52.089921 239.765973 
L 51.827726 239.637663 
L 51.535071 239.427448 
L 51.284241 239.615172 
L 50.856548 240.313239 
L 50.409111 241.482878 
L 50.213546 242.526107 
L 50.273968 243.397609 
L 50.557943 243.993514 
L 50.996917 244.374251 
L 51.615371 244.621264 
L 52.793893 244.762032 
L 54.460177 244.681758 
L 57.298317 244.283951 
L 67.207584 242.702306 
L 67.56594 242.851253 
L 67.505305 243.048194 
L 66.942087 243.51323 
L 65.782721 244.133015 
L 65.782721 244.133015 
" style="fill:none;stroke:#000000;stroke-linecap:square;stroke-opacity:0.7;stroke-width:1.2;"/>
   </g>
   <g id="line2d_2">
    <path clip-path="url(#pd6d08dcca0)" d="M 65.096138 198.336012 
L 65.032063 198.358753 
L 64.036152 198.044242 
L 62.255495 197.199173 
L 60.430476 196.08317 
L 58.854899 194.897645 
L 56.867968 193.072412 
L 54.985119 191.265266 
L 54.045072 190.6861 
L 53.273679 190.514005 
L 52.735456 190.551765 
L 51.786754 190.865992 
L 50.438068 191.657974 
L 47.284003 194.000202 
L 45.042771 195.512923 
L 44.509091 195.826936 
L 45.216544 195.522612 
L 49.400601 193.603048 
L 52.424099 191.983977 
L 54.969592 190.349752 
L 55.586761 190.073695 
L 55.667663 190.183358 
L 55.714941 190.900451 
L 55.763972 192.409079 
L 56.065365 194.491898 
L 56.359645 195.57648 
L 57.175544 197.395754 
L 58.014622 198.463999 
L 59.038837 199.191931 
L 59.754689 199.451637 
L 60.846942 199.568162 
L 61.655119 199.48714 
L 62.911026 199.142026 
L 64.263232 198.505642 
L 64.84472 198.100284 
L 64.84472 198.100284 
" style="fill:none;stroke:#000000;stroke-linecap:square;stroke-opacity:0.7;stroke-width:1.2;"/>
   </g>
   <g id="line2d_3">
    <path clip-path="url(#pd6d08dcca0)" d="M 65.58975 152.639987 
L 65.44793 152.475277 
L 64.468595 151.58937 
L 61.60419 149.434205 
L 58.874817 147.643224 
L 57.41039 146.915641 
L 56.678993 146.74343 
L 56.032514 146.79453 
L 55.239248 147.167509 
L 53.674516 148.122873 
L 52.773184 148.335537 
L 50.609172 148.656285 
L 49.925863 149.043924 
L 49.23666 149.698912 
L 48.636947 150.594754 
L 48.259307 151.564404 
L 48.196915 152.280477 
L 48.328473 152.665892 
L 48.647496 152.924096 
L 49.198788 153.0142 
L 50.345185 152.841434 
L 51.919913 152.385085 
L 59.975583 149.81454 
L 64.115609 148.837542 
L 66.245054 148.599376 
L 67.2613 148.682524 
L 67.843144 148.969804 
L 68.005318 149.282693 
L 67.963178 149.748066 
L 67.648987 150.393554 
L 66.907705 151.348754 
L 65.846249 152.378819 
L 65.537156 152.609107 
L 65.537156 152.609107 
" style="fill:none;stroke:#000000;stroke-linecap:square;stroke-opacity:0.7;stroke-width:1.2;"/>
   </g>
   <g id="line2d_4">
    <path clip-path="url(#pd6d08dcca0)" d="M 65.373418 107.293327 
L 64.819189 107.368296 
L 63.387337 107.366024 
L 61.669285 107.200007 
L 59.146759 106.709476 
L 56.839914 105.98448 
L 55.335477 105.314873 
L 54.148105 104.606924 
L 52.986174 103.607337 
L 52.425224 102.851254 
L 52.029906 101.888977 
L 51.916212 101.018155 
L 52.031768 99.822233 
L 52.431016 98.446898 
L 53.108947 96.523825 
L 52.978086 96.326344 
L 52.680739 96.311198 
L 52.116948 96.552655 
L 51.495286 97.068344 
L 51.032714 97.731968 
L 50.818864 98.387337 
L 50.804738 99.070639 
L 50.998311 99.885039 
L 51.606241 101.262094 
L 52.85381 103.457294 
L 54.181957 105.434558 
L 55.551302 107.126664 
L 56.34513 107.942831 
L 57.882117 109.162619 
L 58.753847 109.632346 
L 60.058919 110.017417 
L 61.161863 110.033844 
L 62.0452 109.839429 
L 63.163646 109.330718 
L 64.19756 108.601854 
L 65.129403 107.706008 
L 65.403181 107.360976 
L 65.403181 107.360976 
" style="fill:none;stroke:#000000;stroke-linecap:square;stroke-opacity:0.7;stroke-width:1.2;"/>
   </g>
   <g id="line2d_5">
    <path clip-path="url(#pd6d08dcca0)" d="M 65.589576 61.317852 
L 65.537555 61.125949 
L 65.093261 60.431608 
L 63.710316 59.030309 
L 62.191938 57.923563 
L 60.642614 57.140809 
L 59.502175 56.815631 
L 58.461856 56.751827 
L 57.605762 56.905147 
L 56.707986 57.319523 
L 54.917546 58.346666 
L 53.729408 58.411377 
L 52.575481 58.562842 
L 51.68604 58.891591 
L 50.902292 59.369829 
L 49.913268 60.244984 
L 49.134596 61.233663 
L 49.132437 61.373934 
L 49.180909 61.362246 
L 49.668929 61.072618 
L 51.868306 59.7579 
L 53.567285 58.962678 
L 55.750466 58.179771 
L 57.569196 57.712504 
L 58.633269 57.517189 
L 61.20307 57.318347 
L 62.68662 57.437851 
L 63.994106 57.786358 
L 64.905403 58.302566 
L 65.439871 58.885684 
L 65.690788 59.431582 
L 65.780101 60.086352 
L 65.694765 60.680014 
L 65.367152 61.26327 
L 65.367152 61.26327 
" style="fill:none;stroke:#000000;stroke-linecap:square;stroke-opacity:0.7;stroke-width:1.2;"/>
   </g>
   <g id="line2d_6">
    <path clip-path="url(#pd6d08dcca0)" d="M 217.879045 244.072002 
L 217.559327 244.029565 
L 215.940688 243.569961 
L 212.804635 242.454506 
L 208.850565 240.805324 
L 205.557846 239.181412 
L 202.128903 237.435122 
L 201.641652 237.392107 
L 201.619336 237.544447 
L 202.018337 238.1929 
L 202.34312 238.996762 
L 202.754854 240.165591 
L 203.095563 240.044385 
L 207.091552 237.834243 
L 209.122601 237.146978 
L 211.078728 236.787526 
L 212.726248 236.763061 
L 214.168242 237.032852 
L 215.136049 237.446284 
L 215.941824 238.023809 
L 216.615971 238.792379 
L 217.111673 239.685373 
L 217.492708 240.833279 
L 217.73369 242.401019 
L 217.761638 244.017521 
L 217.761638 244.017521 
" style="fill:none;stroke:#000000;stroke-linecap:square;stroke-opacity:0.7;stroke-width:1.2;"/>
   </g>
   <g id="line2d_7">
    <path clip-path="url(#pd6d08dcca0)" d="M 218.039988 198.573212 
L 217.783185 198.477371 
L 216.914442 197.953376 
L 214.804974 196.390702 
L 212.370109 194.369052 
L 208.670051 191.044027 
L 203.176588 185.737377 
L 200.319779 182.654755 
L 199.330795 181.227463 
L 199.091493 180.54031 
L 199.147979 180.124577 
L 199.51854 179.806818 
L 200.088567 179.723359 
L 200.505528 179.828102 
L 200.87117 180.291882 
L 200.883254 180.917982 
L 200.688006 181.761017 
L 199.831969 184.12393 
L 198.454163 187.987617 
L 198.017088 189.758579 
L 197.836603 191.359281 
L 197.921366 192.5831 
L 198.225179 193.599082 
L 198.631702 194.313878 
L 199.331831 195.077258 
L 200.265829 195.734386 
L 201.63614 196.375269 
L 203.156072 196.868079 
L 206.088453 197.517232 
L 210.413021 198.158641 
L 216.805084 198.806073 
L 217.964508 198.769474 
L 217.900995 198.700957 
L 217.900995 198.700957 
" style="fill:none;stroke:#000000;stroke-linecap:square;stroke-opacity:0.7;stroke-width:1.2;"/>
   </g>
   <g id="line2d_8">
    <path clip-path="url(#pd6d08dcca0)" d="M 217.621752 153.096634 
L 217.150377 152.963696 
L 215.698055 152.322577 
L 213.67045 151.177012 
L 211.678784 149.778721 
L 209.941892 148.267615 
L 208.574602 146.791369 
L 207.356426 145.165178 
L 204.888489 141.488848 
L 204.047738 140.64203 
L 203.322462 140.209957 
L 202.903271 140.09771 
L 202.062806 140.181228 
L 201.191759 140.62553 
L 200.289443 141.079927 
L 200.070913 140.987228 
L 200.020779 140.700782 
L 200.21217 140.083983 
L 200.611571 139.52034 
L 201.015883 139.259361 
L 201.440412 139.277043 
L 201.787969 139.538945 
L 202.196604 140.165483 
L 202.744106 141.513545 
L 204.832125 147.463408 
L 205.134787 148.11391 
L 206.465061 150.343906 
L 207.2188 151.247165 
L 208.148545 152.095047 
L 209.141782 152.745851 
L 210.115515 153.183657 
L 211.761148 153.582016 
L 213.460334 153.661027 
L 215.276904 153.476547 
L 217.394461 152.96792 
L 217.504414 152.923868 
L 217.504414 152.923868 
" style="fill:none;stroke:#000000;stroke-linecap:square;stroke-opacity:0.7;stroke-width:1.2;"/>
   </g>
   <g id="line2d_9">
    <path clip-path="url(#pd6d08dcca0)" d="M 217.745596 107.275114 
L 217.3519 107.113231 
L 215.901443 106.337433 
L 211.851847 103.837429 
L 208.011493 101.152272 
L 205.7294 99.277254 
L 204.778271 98.551321 
L 204.418148 98.490011 
L 204.156482 98.663811 
L 204.012481 99.03801 
L 204.083038 99.522713 
L 204.401786 100.163799 
L 205.823747 102.323612 
L 206.197281 102.552213 
L 206.734902 102.534821 
L 211.589623 101.760235 
L 213.630226 101.788898 
L 215.324887 102.095131 
L 216.286111 102.475847 
L 217.195387 103.139485 
L 217.704395 103.857536 
L 217.963474 104.639938 
L 218.02109 105.563435 
L 217.88926 106.454578 
L 217.622445 107.179458 
L 217.622445 107.179458 
" style="fill:none;stroke:#000000;stroke-linecap:square;stroke-opacity:0.7;stroke-width:1.2;"/>
   </g>
   <g id="line2d_10">
    <path clip-path="url(#pd6d08dcca0)" d="M 217.601932 61.67041 
L 217.201251 61.582007 
L 216.272761 61.198218 
L 214.788028 60.353406 
L 212.920507 59.02446 
L 210.447236 56.902389 
L 207.70706 54.129137 
L 203.653167 49.792087 
L 203.367404 49.889241 
L 203.031778 50.369768 
L 202.078283 52.47563 
L 201.875711 53.325322 
L 201.956337 53.601379 
L 202.3077 53.775945 
L 202.829453 53.745907 
L 204.581679 53.48291 
L 204.850642 53.712613 
L 205.047103 54.225363 
L 205.236801 55.520791 
L 205.698698 59.133343 
L 206.097655 60.79553 
L 206.520823 61.950999 
L 207.239705 63.207331 
L 207.93012 63.943289 
L 208.577828 64.375453 
L 209.438465 64.687601 
L 210.063116 64.776816 
L 211.443049 64.68166 
L 212.948324 64.248836 
L 214.497427 63.54632 
L 215.760588 62.81558 
L 217.44204 61.569387 
L 217.44204 61.569387 
" style="fill:none;stroke:#000000;stroke-linecap:square;stroke-opacity:0.7;stroke-width:1.2;"/>
   </g>
   <g id="line2d_11">
    <path clip-path="url(#pd6d08dcca0)" d="M 369.708053 244.073439 
L 369.404193 244.064672 
L 367.330703 243.771582 
L 364.688774 243.166192 
L 362.69267 242.456785 
L 361.565273 241.855996 
L 360.674304 241.123771 
L 360.196981 240.440955 
L 359.979865 239.722349 
L 360.019004 239.012968 
L 360.31024 238.365564 
L 360.782915 237.913954 
L 360.582222 237.918367 
L 358.697497 238.038832 
L 358.27729 238.279662 
L 357.830641 238.834606 
L 357.480319 239.708742 
L 357.255358 240.803861 
L 357.20465 242.061986 
L 357.336216 242.721107 
L 357.667052 243.244256 
L 358.154771 243.566485 
L 358.861805 243.796791 
L 360.511495 244.052759 
L 364.285782 244.348527 
L 368.695377 244.509809 
L 369.531125 244.359798 
L 369.643818 244.175899 
L 369.561613 244.01648 
L 369.561613 244.01648 
" style="fill:none;stroke:#000000;stroke-linecap:square;stroke-opacity:0.7;stroke-width:1.2;"/>
   </g>
   <g id="line2d_12">
    <path clip-path="url(#pd6d08dcca0)" d="M 369.871472 198.249641 
L 369.41738 198.198564 
L 366.635372 197.651396 
L 364.289908 197.003956 
L 362.660542 196.337324 
L 361.655171 195.704802 
L 361.038524 195.095703 
L 360.600304 194.333491 
L 360.419362 193.56007 
L 360.478329 192.561637 
L 360.744291 191.755521 
L 361.320837 190.818286 
L 361.576406 190.361937 
L 361.553531 190.350489 
L 361.175387 190.389417 
L 359.929415 190.819396 
L 358.438949 191.53609 
L 356.47362 192.708838 
L 354.124291 194.366984 
L 351.486956 196.501914 
L 349.454873 198.378355 
L 348.396263 199.619004 
L 348.295309 199.942618 
L 348.472898 200.067373 
L 348.963304 200.012438 
L 350.413846 199.546328 
L 363.578178 194.695094 
L 366.937599 193.784294 
L 369.230875 193.408945 
L 370.500724 193.419323 
L 371.41528 193.74923 
L 371.697821 194.098358 
L 371.79936 194.608688 
L 371.682058 195.282954 
L 371.23534 196.300496 
L 370.316985 197.68446 
L 369.899652 198.153343 
L 369.899652 198.153343 
" style="fill:none;stroke:#000000;stroke-linecap:square;stroke-opacity:0.7;stroke-width:1.2;"/>
   </g>
   <g id="line2d_13">
    <path clip-path="url(#pd6d08dcca0)" d="M 370.192122 152.912706 
L 369.952087 152.480629 
L 368.148935 149.588015 
L 366.090203 146.701105 
L 364.562735 144.857123 
L 363.189116 143.464657 
L 361.848413 142.391179 
L 360.353033 141.552717 
L 358.776803 141.062872 
L 357.553931 140.936567 
L 356.118352 141.067099 
L 355.014418 141.406793 
L 354.084789 141.915493 
L 353.287404 142.59693 
L 352.582807 143.498716 
L 351.947837 144.681832 
L 351.229931 146.555039 
L 350.682197 148.580278 
L 350.621983 149.513576 
L 350.765458 149.961205 
L 351.089882 150.270715 
L 351.744167 150.502894 
L 353.136566 150.700669 
L 357.264168 151.248729 
L 360.95875 151.990584 
L 368.250905 153.545609 
L 369.291148 153.538783 
L 369.879498 153.327067 
L 370.100472 153.01931 
L 370.113528 152.815841 
L 370.113528 152.815841 
" style="fill:none;stroke:#000000;stroke-linecap:square;stroke-opacity:0.7;stroke-width:1.2;"/>
   </g>
   <g id="line2d_14">
    <path clip-path="url(#pd6d08dcca0)" d="M 370.048305 107.08919 
L 370.007003 106.735976 
L 369.61428 105.367532 
L 368.870876 103.514395 
L 368.01128 101.921705 
L 367.134151 100.723653 
L 366.166885 99.813231 
L 365.374083 99.345978 
L 364.389025 99.066669 
L 363.283154 99.081888 
L 362.037109 99.419731 
L 360.446498 100.211379 
L 358.6986 101.435005 
L 357.116041 102.822232 
L 355.407675 104.637754 
L 354.176109 106.275143 
L 353.720917 107.194804 
L 353.677235 107.733709 
L 353.848187 108.062295 
L 354.196981 108.285228 
L 354.687559 108.364591 
L 355.293988 108.251873 
L 355.9191 107.921687 
L 356.661735 107.249877 
L 359.054928 104.745595 
L 359.888977 104.248064 
L 361.184935 103.770023 
L 362.564494 103.524752 
L 364.354252 103.482524 
L 366.154656 103.68928 
L 367.778282 104.096323 
L 368.915991 104.567023 
L 369.738073 105.124946 
L 370.127273 105.614933 
L 370.273673 106.146469 
L 370.165208 106.704857 
L 369.925303 107.053343 
L 369.925303 107.053343 
" style="fill:none;stroke:#000000;stroke-linecap:square;stroke-opacity:0.7;stroke-width:1.2;"/>
   </g>
   <g id="line2d_15">
    <path clip-path="url(#pd6d08dcca0)" d="M 369.977785 61.377773 
L 369.897529 61.261851 
L 368.978612 60.36574 
L 367.320568 59.038147 
L 365.663124 57.911443 
L 363.862182 56.906119 
L 362.39753 56.293316 
L 361.293102 55.988563 
L 359.968141 55.850883 
L 358.972292 55.943015 
L 357.561464 56.395489 
L 356.351126 57.088621 
L 354.992904 58.186756 
L 353.741572 59.54725 
L 353.476964 60.004695 
L 354.144604 58.846806 
L 355.938604 54.775162 
L 356.92929 53.230606 
L 357.819131 52.211417 
L 358.867208 51.350947 
L 359.992047 50.749889 
L 360.942283 50.461262 
L 361.841559 50.356818 
L 362.829236 50.42737 
L 363.713688 50.662056 
L 364.994184 51.327418 
L 365.948695 52.132035 
L 366.521122 52.77785 
L 367.431701 54.142665 
L 368.274608 55.921113 
L 369.036257 58.155423 
L 369.837775 61.293312 
L 369.837775 61.293312 
" style="fill:none;stroke:#000000;stroke-linecap:square;stroke-opacity:0.7;stroke-width:1.2;"/>
   </g>
   <g id="line2d_16">
    <path clip-path="url(#pd6d08dcca0)" d="M 522.680443 244.482249 
L 522.597857 244.39213 
L 521.131398 242.675643 
L 518.902981 239.81966 
L 515.320736 234.920339 
L 504.443172 219.543922 
L 500.734631 215.343352 
L 498.59933 213.653281 
L 498.046584 213.342826 
L 496.827294 212.894281 
L 496.152906 212.809221 
L 494.826012 213.051737 
L 493.774473 213.691855 
L 492.727139 214.770702 
L 491.878327 215.988777 
L 490.743315 218.165445 
L 489.9032 220.430165 
L 489.566999 221.784412 
L 489.367488 223.480562 
L 489.441004 224.862522 
L 489.770194 226.189866 
L 490.32653 227.367799 
L 491.009536 228.334516 
L 492.131053 229.469816 
L 493.492075 230.485647 
L 495.426191 231.584319 
L 497.409042 232.478982 
L 500.60817 233.658175 
L 505.616922 235.218984 
L 511.436166 237.083247 
L 514.113976 238.167695 
L 515.442878 238.823745 
L 518.117858 240.532689 
L 520.01554 242.116572 
L 522.534754 244.247882 
L 522.534754 244.247882 
" style="fill:none;stroke:#000000;stroke-linecap:square;stroke-opacity:0.7;stroke-width:1.2;"/>
   </g>
   <g id="line2d_17">
    <path clip-path="url(#pd6d08dcca0)" d="M 522.036893 198.546512 
L 521.465068 198.49988 
L 520.237203 198.239416 
L 518.044913 197.53695 
L 516.229678 196.771226 
L 513.882439 195.516149 
L 512.062374 194.271676 
L 510.678951 193.085222 
L 509.773086 192.142079 
L 507.726071 189.536295 
L 506.946746 188.667759 
L 506.323129 188.140353 
L 505.234534 187.558172 
L 504.318198 187.352377 
L 503.363643 187.38452 
L 502.593639 187.594959 
L 501.738064 187.966342 
L 501.804478 187.819968 
L 502.692363 186.581714 
L 504.367055 184.576023 
L 505.148991 183.891079 
L 505.50378 183.782359 
L 505.683407 183.940149 
L 505.769208 184.441057 
L 505.674731 185.939387 
L 505.369343 189.469306 
L 505.365007 191.483985 
L 505.519985 193.094003 
L 505.899758 194.751956 
L 506.026595 195.122758 
L 506.598997 196.346127 
L 507.806371 197.838499 
L 508.615382 198.45537 
L 509.413486 198.893978 
L 511.32847 199.515535 
L 512.915543 199.734991 
L 515.001549 199.764046 
L 517.3378 199.552043 
L 520.041377 199.056744 
L 521.663805 198.576409 
L 521.663805 198.576409 
" style="fill:none;stroke:#000000;stroke-linecap:square;stroke-opacity:0.7;stroke-width:1.2;"/>
   </g>
   <g id="line2d_18">
    <path clip-path="url(#pd6d08dcca0)" d="M 522.409393 152.847331 
L 521.967694 152.585313 
L 520.397882 151.407245 
L 518.539817 149.818027 
L 515.082015 146.456727 
L 512.631765 143.737158 
L 509.806136 140.13764 
L 505.853775 134.628933 
L 505.021502 133.989424 
L 504.344111 133.869202 
L 504.256929 133.881367 
L 503.41686 134.27996 
L 502.686873 134.941038 
L 501.502171 136.379598 
L 500.423323 138.03867 
L 499.862251 139.244244 
L 499.617174 140.202235 
L 499.60887 141.147892 
L 499.859562 142.020072 
L 500.301585 142.729069 
L 500.852317 143.267571 
L 501.754573 143.794052 
L 502.600936 144.060138 
L 503.993809 144.218654 
L 505.543888 144.162648 
L 508.832865 143.76425 
L 511.089763 143.564399 
L 512.775283 143.582089 
L 514.611235 143.866808 
L 516.346544 144.501663 
L 517.411517 145.131301 
L 518.440739 145.969389 
L 519.789937 147.532774 
L 520.680775 148.981547 
L 521.316698 150.324753 
L 522.19997 152.840313 
L 522.19997 152.840313 
" style="fill:none;stroke:#000000;stroke-linecap:square;stroke-opacity:0.7;stroke-width:1.2;"/>
   </g>
   <g id="line2d_19">
    <path clip-path="url(#pd6d08dcca0)" d="M 521.935427 107.093327 
L 521.44478 107.093251 
L 519.795198 106.843956 
L 517.918816 106.377925 
L 515.692816 105.470613 
L 514.656742 104.741204 
L 513.990342 103.942687 
L 513.66737 103.215456 
L 513.524592 102.251778 
L 513.6392 101.248055 
L 514.002346 100.244407 
L 514.515843 99.283386 
L 514.417596 99.294624 
L 513.689237 99.635054 
L 512.622123 100.35091 
L 511.970202 100.973232 
L 511.232466 101.965387 
L 510.583585 103.195788 
L 509.703636 105.440672 
L 509.684419 105.848611 
L 509.873296 105.943813 
L 510.810001 105.96216 
L 514.68427 106.005069 
L 518.846217 106.258632 
L 521.611794 106.624906 
L 522.333626 106.90343 
L 522.3238 107.05024 
L 522.010091 107.115818 
L 521.973282 107.105872 
L 521.973282 107.105872 
" style="fill:none;stroke:#000000;stroke-linecap:square;stroke-opacity:0.7;stroke-width:1.2;"/>
   </g>
   <g id="line2d_20">
    <path clip-path="url(#pd6d08dcca0)" d="M 522.163179 61.225741 
L 522.076903 60.935014 
L 521.458689 59.815919 
L 520.346082 58.279473 
L 518.926205 56.73733 
L 517.86252 55.867444 
L 516.958669 55.350605 
L 515.843218 55.041425 
L 515.049291 55.052308 
L 514.005721 55.318055 
L 512.788927 55.878813 
L 511.040202 56.954766 
L 508.651963 58.725444 
L 505.860201 61.117653 
L 505.047723 61.720286 
L 504.985993 61.552992 
L 505.066494 60.872404 
L 505.465511 59.514338 
L 506.05724 58.217335 
L 506.764593 57.09282 
L 507.701222 55.978529 
L 509.016299 54.843226 
L 510.182345 54.118284 
L 511.426888 53.56408 
L 512.982145 53.136583 
L 514.415593 52.978901 
L 515.976638 53.064212 
L 516.993008 53.277086 
L 518.371881 53.806521 
L 519.664246 54.649155 
L 520.494035 55.474783 
L 521.190644 56.490198 
L 521.701576 57.657293 
L 522.019312 59.039004 
L 522.08371 60.455042 
L 522.002286 61.208875 
L 522.002286 61.208875 
" style="fill:none;stroke:#000000;stroke-linecap:square;stroke-opacity:0.7;stroke-width:1.2;"/>
   </g>
   <g id="line2d_21">
    <path clip-path="url(#pd6d08dcca0)" d="M 674.418055 244.048253 
L 674.341711 243.860431 
L 673.704627 242.923704 
L 672.525757 241.605721 
L 671.058982 240.318534 
L 669.529261 239.310757 
L 668.389457 238.78691 
L 667.18442 238.46712 
L 666.40749 238.400545 
L 665.405828 238.48399 
L 664.054308 238.884791 
L 662.482264 239.677009 
L 660.359704 241.052881 
L 657.227621 243.208125 
L 657.256921 243.097711 
L 658.088679 241.6997 
L 660.095005 238.498015 
L 661.155543 237.254326 
L 662.080985 236.520407 
L 662.951557 236.102721 
L 663.891379 235.905618 
L 664.737225 235.920659 
L 665.567348 236.089281 
L 666.477985 236.429704 
L 667.714628 237.124019 
L 668.950269 238.056725 
L 670.468778 239.491956 
L 672.460176 241.776647 
L 674.182716 244.030998 
L 674.182716 244.030998 
" style="fill:none;stroke:#000000;stroke-linecap:square;stroke-opacity:0.7;stroke-width:1.2;"/>
   </g>
   <g id="line2d_22">
    <path clip-path="url(#pd6d08dcca0)" d="M 674.378756 198.484073 
L 673.633215 198.315836 
L 671.722933 197.677515 
L 669.337132 196.66075 
L 666.924718 195.38569 
L 663.502673 193.434023 
L 662.880296 193.519769 
L 661.628399 194.002648 
L 660.481675 194.366149 
L 659.972623 194.355764 
L 659.249322 194.093764 
L 656.492042 192.629537 
L 655.528216 191.917216 
L 655.200716 191.456298 
L 655.186744 191.182328 
L 655.390056 190.964123 
L 655.836492 190.865608 
L 656.640913 190.965571 
L 657.497618 191.25218 
L 658.838785 191.927046 
L 660.647833 193.127122 
L 663.263915 195.182849 
L 666.057281 197.353788 
L 667.651205 198.330492 
L 668.908535 198.856944 
L 669.886129 199.089021 
L 671.279136 199.149584 
L 672.673511 198.926949 
L 673.945907 198.494676 
L 674.103712 198.408651 
L 674.103712 198.408651 
" style="fill:none;stroke:#000000;stroke-linecap:square;stroke-opacity:0.7;stroke-width:1.2;"/>
   </g>
   <g id="line2d_23">
    <path clip-path="url(#pd6d08dcca0)" d="M 674.245481 152.814517 
L 673.904072 152.581053 
L 673.019877 151.805931 
L 670.790927 149.500422 
L 669.18731 147.926499 
L 668.421154 147.458698 
L 667.690566 147.276229 
L 666.982763 147.32129 
L 666.109099 147.613491 
L 664.818145 148.383806 
L 662.920524 149.878296 
L 661.447588 150.940896 
L 660.944715 151.113023 
L 660.931104 151.017621 
L 661.232718 150.702494 
L 665.039413 147.695757 
L 665.42392 147.972768 
L 666.883445 149.511257 
L 668.586289 151.151309 
L 670.26965 152.436511 
L 671.330093 153.017321 
L 672.346928 153.341393 
L 673.162565 153.365731 
L 673.786269 153.15572 
L 674.132836 152.810267 
L 674.14743 152.770036 
L 674.14743 152.770036 
" style="fill:none;stroke:#000000;stroke-linecap:square;stroke-opacity:0.7;stroke-width:1.2;"/>
   </g>
   <g id="line2d_24">
    <path clip-path="url(#pd6d08dcca0)" d="M 674.112243 107.119853 
L 673.850799 106.853771 
L 672.447882 105.028619 
L 670.183134 102.157494 
L 669.390209 101.395485 
L 668.637722 100.926418 
L 667.935282 100.776004 
L 667.384467 100.868123 
L 666.732277 101.202594 
L 666.255259 101.574053 
L 664.395202 103.471845 
L 662.759301 105.025535 
L 661.675757 105.759519 
L 660.985676 105.982477 
L 660.897571 105.896499 
L 660.905366 105.871428 
L 661.150296 105.603909 
L 662.025088 105.032248 
L 662.892398 104.634934 
L 663.572834 104.559065 
L 663.941444 104.74635 
L 664.277487 105.165875 
L 664.880145 106.390822 
L 666.065173 108.870182 
L 667.114695 110.583545 
L 668.227131 111.863688 
L 669.259797 112.51029 
L 669.993825 112.605376 
L 670.486355 112.478462 
L 671.230235 111.973362 
L 671.874544 111.223005 
L 672.68489 109.882451 
L 673.563348 107.963921 
L 673.881193 107.131788 
L 673.881193 107.131788 
" style="fill:none;stroke:#000000;stroke-linecap:square;stroke-opacity:0.7;stroke-width:1.2;"/>
   </g>
   <g id="line2d_25">
    <path clip-path="url(#pd6d08dcca0)" d="M 674.626506 61.623262 
L 674.316266 61.492469 
L 673.073996 60.63938 
L 671.583584 59.336176 
L 669.837522 57.5661 
L 667.366759 54.698335 
L 665.359776 52.079938 
L 662.053653 47.306805 
L 660.174154 44.652544 
L 659.246205 43.651024 
L 658.56631 43.264132 
L 658.361608 43.23603 
L 657.863725 43.383303 
L 657.416923 43.797847 
L 656.71359 44.962235 
L 656.01653 46.687435 
L 655.543001 48.403866 
L 655.254817 50.268865 
L 655.170647 52.06935 
L 655.281279 54.112707 
L 655.590751 55.926244 
L 656.073123 57.452188 
L 656.716259 58.723851 
L 657.44748 59.707142 
L 658.327019 60.550734 
L 659.386033 61.282044 
L 660.609304 61.888389 
L 662.527035 62.518937 
L 664.561121 62.91132 
L 666.926449 63.122492 
L 669.849276 63.10175 
L 672.535058 62.821241 
L 674.589569 62.36106 
L 675.394901 61.988204 
L 675.481721 61.786256 
L 675.292426 61.651497 
L 674.633008 61.509618 
L 674.633008 61.509618 
" style="fill:none;stroke:#000000;stroke-linecap:square;stroke-opacity:0.7;stroke-width:1.2;"/>
   </g>
  </g>
 </g>
 <defs>
  <clipPath id="pd6d08dcca0">
   <rect height="262.08" width="694.08" x="12.96" y="12.96"/>
  </clipPath>
 </defs>
</svg>
