<?xml version="1.0" encoding="utf-8" standalone="no"?>
<!DOCTYPE svg PUBLIC "-//W3C//DTD SVG 1.1//EN"
  "http://www.w3.org/Graphics/SVG/1.1/DTD/svg11.dtd">
<!-- Created with matplotlib (https://matplotlib.org/) -->
<svg height="288pt" version="1.1" viewBox="0 0 720 288" width="720pt" xmlns="http://www.w3.org/2000/svg" xmlns:xlink="http://www.w3.org/1999/xlink">
 <metadata>
  <rdf:RDF xmlns:cc="http://creativecommons.org/ns#" xmlns:dc="http://purl.org/dc/elements/1.1/" xmlns:rdf="http://www.w3.org/1999/02/22-rdf-syntax-ns#">
   <cc:Work>
    <dc:type rdf:resource="http://purl.org/dc/dcmitype/StillImage"/>
    <dc:date>2020-11-06T19:58:38.254076</dc:date>
    <dc:format>image/svg+xml</dc:format>
    <dc:creator>
     <cc:Agent>
      <dc:title>Matplotlib v3.3.2, https://matplotlib.org/</dc:title>
     </cc:Agent>
    </dc:creator>
   </cc:Work>
  </rdf:RDF>
 </metadata>
 <defs>
  <style type="text/css">*{stroke-linecap:butt;stroke-linejoin:round;}</style>
 </defs>
 <g id="figure_1">
  <g id="patch_1">
   <path d="M 0 288 
L 720 288 
L 720 0 
L 0 0 
z
" style="fill:#ffffff;"/>
  </g>
  <g id="axes_1">
   <g id="line2d_1">
    <path clip-path="url(#p1d48ee560c)" d="M 150.648911 224.840057 
L 128.910358 219.879636 
L 122.925327 218.809215 
L 116.624884 217.928627 
L 110.754482 217.350091 
L 104.509587 216.996065 
L 98.836481 216.906119 
L 92.560463 217.04789 
L 85.455671 217.463363 
L 76.664814 218.239261 
L 68.378953 219.188144 
L 61.316962 220.233775 
L 56.971252 221.057174 
L 52.950963 222.026536 
L 50.148579 222.911561 
L 48.218015 223.730209 
L 47.041605 224.450781 
L 46.482641 225.043764 
L 46.383983 225.594536 
L 46.633101 225.954744 
L 47.436094 226.358339 
L 48.215515 226.546346 
L 49.178764 226.672612 
L 52.509996 226.693117 
L 55.0134 226.474626 
L 59.009544 225.888004 
L 65.582274 224.62368 
L 73.467119 223.160849 
L 78.473948 222.470069 
L 83.195603 222.06909 
L 87.009553 221.950774 
L 91.006522 222.038066 
L 95.56811 222.403142 
L 100.574019 223.101768 
L 105.882366 224.100322 
L 118.522308 226.63016 
L 122.888854 227.241705 
L 127.543695 227.635229 
L 131.173594 227.747931 
L 136.122139 227.641839 
L 140.86234 227.290538 
L 145.637695 226.728789 
L 150.654677 225.959541 
L 150.654677 225.959541 
" style="fill:none;stroke:#000000;stroke-linecap:square;stroke-opacity:0.7;stroke-width:1.2;"/>
   </g>
   <g id="line2d_2">
    <path clip-path="url(#p1d48ee560c)" d="M 150.441054 187.296882 
L 140.693227 185.685976 
L 110.143477 180.376053 
L 103.750901 179.582902 
L 97.346027 179.035339 
L 91.866677 178.799373 
L 86.829092 178.778424 
L 80.602836 178.99159 
L 74.599982 179.416805 
L 67.993231 180.116612 
L 62.392787 180.916206 
L 57.572493 181.801662 
L 53.489444 182.778351 
L 50.590278 183.728629 
L 49.647135 184.141273 
L 48.424528 184.88533 
L 47.928231 185.409952 
L 47.7963 185.659918 
L 47.740251 186.221191 
L 47.995965 186.766079 
L 48.290142 187.09007 
L 49.221914 187.751226 
L 51.255969 188.642767 
L 53.612909 189.31549 
L 56.669537 189.869844 
L 59.960497 190.182818 
L 63.745308 190.281749 
L 68.220235 190.176465 
L 87.107705 189.482683 
L 93.341559 189.579773 
L 100.027486 189.918964 
L 119.321188 191.135814 
L 125.108244 191.126757 
L 129.364151 190.936097 
L 134.605437 190.489221 
L 140.422725 189.752043 
L 147.037804 188.685609 
L 150.424187 188.087885 
L 150.424187 188.087885 
" style="fill:none;stroke:#000000;stroke-linecap:square;stroke-opacity:0.7;stroke-width:1.2;"/>
   </g>
   <g id="line2d_3">
    <path clip-path="url(#p1d48ee560c)" d="M 150.039801 147.057221 
L 134.44573 145.566367 
L 119.959059 144.248525 
L 107.459375 143.346794 
L 88.33949 142.05449 
L 78.081716 141.049888 
L 70.023998 140.336395 
L 65.133665 140.151528 
L 61.457304 140.233979 
L 57.917489 140.561161 
L 55.27559 141.008172 
L 50.968888 142.243265 
L 48.985565 143.124582 
L 47.485245 144.041897 
L 46.421405 145.063467 
L 46.131032 145.700161 
L 46.133791 146.090023 
L 46.428158 146.629462 
L 46.759434 146.921204 
L 48.177094 147.62748 
L 49.752894 148.129565 
L 53.339019 148.993604 
L 60.531203 150.442384 
L 69.188308 151.980303 
L 75.971983 152.974324 
L 80.101764 153.448371 
L 85.599399 153.872163 
L 89.134186 153.985846 
L 93.66789 153.899677 
L 96.80173 153.65677 
L 100.427176 153.159555 
L 104.031722 152.422307 
L 107.380844 151.537187 
L 114.523669 149.287746 
L 118.472214 148.078105 
L 122.812919 146.970554 
L 125.189952 146.50046 
L 128.542826 146.023235 
L 132.220781 145.756299 
L 135.176423 145.730266 
L 138.514419 145.887807 
L 142.887395 146.360404 
L 146.378237 146.924388 
L 150.25979 147.718675 
L 150.25979 147.718675 
" style="fill:none;stroke:#000000;stroke-linecap:square;stroke-opacity:0.7;stroke-width:1.2;"/>
   </g>
   <g id="line2d_4">
    <path clip-path="url(#p1d48ee560c)" d="M 150.609498 107.479002 
L 139.302774 106.445145 
L 129.401644 105.738541 
L 119.451551 105.271633 
L 110.014796 105.068156 
L 95.520151 105.045665 
L 83.154295 104.930264 
L 67.57566 104.731021 
L 61.744182 104.883821 
L 56.237769 105.266639 
L 51.905756 105.800392 
L 48.749315 106.378175 
L 46.053203 107.116815 
L 45.367841 107.492684 
L 45.371526 107.60519 
L 45.79367 107.739741 
L 46.778646 107.795046 
L 51.235131 107.666164 
L 62.301107 107.280526 
L 72.677203 107.161282 
L 120.893437 107.115336 
L 132.053031 107.376255 
L 143.826482 107.891163 
L 150.625752 108.284972 
L 150.625752 108.284972 
" style="fill:none;stroke:#000000;stroke-linecap:square;stroke-opacity:0.7;stroke-width:1.2;"/>
   </g>
   <g id="line2d_5">
    <path clip-path="url(#p1d48ee560c)" d="M 149.925034 68.165741 
L 126.440279 61.711485 
L 118.875925 59.884075 
L 111.338495 58.312134 
L 105.078821 57.218916 
L 99.28527 56.398082 
L 93.317719 55.77405 
L 87.778786 55.433555 
L 83.03966 55.357803 
L 79.071091 55.469087 
L 74.278391 55.839948 
L 69.117717 56.558188 
L 65.491457 57.280304 
L 61.424201 58.32745 
L 57.633237 59.559763 
L 54.395717 60.845353 
L 52.072601 61.932843 
L 49.277819 63.492573 
L 48.849976 63.764427 
L 46.914688 65.168828 
L 45.387118 66.675989 
L 44.951357 67.295834 
L 44.664617 67.877262 
L 44.509869 68.897545 
L 44.716011 69.564439 
L 45.211723 70.190357 
L 46.020657 70.759523 
L 47.483472 71.360386 
L 49.11354 71.746859 
L 51.884074 72.041395 
L 54.895994 72.023153 
L 58.275689 71.695714 
L 60.192567 71.394004 
L 64.245484 70.539679 
L 69.812298 69.035702 
L 83.135834 65.16733 
L 87.184851 64.265988 
L 91.10413 63.660903 
L 94.823098 63.397012 
L 97.509971 63.421673 
L 100.594394 63.683787 
L 104.230435 64.298784 
L 107.314759 65.036623 
L 113.359603 66.795361 
L 119.233582 68.454153 
L 123.0703 69.319278 
L 127.203486 69.988726 
L 131.311275 70.373842 
L 134.944852 70.492935 
L 138.954666 70.402727 
L 143.404102 70.053684 
L 147.510034 69.512103 
L 149.986636 69.081051 
L 149.986636 69.081051 
" style="fill:none;stroke:#000000;stroke-linecap:square;stroke-opacity:0.7;stroke-width:1.2;"/>
   </g>
   <g id="line2d_6">
    <path clip-path="url(#p1d48ee560c)" d="M 281.725501 225.576504 
L 259.843333 220.389015 
L 248.009463 217.792569 
L 238.28904 215.895031 
L 229.728635 214.464596 
L 222.989125 213.55844 
L 217.731281 213.048176 
L 212.115549 212.768439 
L 207.98923 212.781248 
L 204.682666 212.944774 
L 200.229104 213.400366 
L 196.297026 214.04378 
L 192.282325 214.954759 
L 188.324115 216.137424 
L 185.987371 216.993375 
L 182.916562 218.351041 
L 181.467291 219.117449 
L 180.167586 219.906663 
L 178.345652 221.290891 
L 177.331672 222.383701 
L 176.73084 223.472578 
L 176.589748 224.12773 
L 176.680165 224.956577 
L 177.109156 225.780677 
L 178.121147 226.746371 
L 179.803547 227.707252 
L 182.029041 228.554892 
L 185.309347 229.405424 
L 188.062778 229.904038 
L 192.938463 230.470301 
L 197.340902 230.730006 
L 202.514654 230.817232 
L 209.069474 230.687105 
L 216.763764 230.293719 
L 225.255813 229.650738 
L 246.696108 227.872345 
L 256.339757 227.419741 
L 270.126004 227.061124 
L 281.6847 226.779702 
L 281.6847 226.779702 
" style="fill:none;stroke:#000000;stroke-linecap:square;stroke-opacity:0.7;stroke-width:1.2;"/>
   </g>
   <g id="line2d_7">
    <path clip-path="url(#p1d48ee560c)" d="M 282.063189 186.319318 
L 254.77817 178.554493 
L 249.93037 177.440576 
L 245.369858 176.565807 
L 240.588293 175.859022 
L 235.362423 175.355794 
L 230.672091 175.151189 
L 226.110146 175.170097 
L 221.106495 175.414963 
L 215.325855 175.939503 
L 208.538048 176.808604 
L 202.337446 177.81017 
L 196.640166 178.938541 
L 191.46098 180.214891 
L 187.389891 181.485099 
L 184.330228 182.711456 
L 182.570812 183.613505 
L 181.026747 184.6514 
L 180.079577 185.556909 
L 179.514939 186.408536 
L 179.275851 187.130106 
L 179.260276 187.920537 
L 179.508905 188.724943 
L 179.99913 189.483635 
L 180.569964 190.072325 
L 181.330382 190.653993 
L 182.272899 191.197725 
L 184.0886 191.917147 
L 186.057657 192.378396 
L 187.883904 192.594144 
L 189.904586 192.648051 
L 192.204426 192.520347 
L 194.832563 192.179246 
L 198.80026 191.371438 
L 204.020375 189.963508 
L 219.56903 185.436733 
L 223.53062 184.608656 
L 226.216492 184.201704 
L 229.144513 183.92841 
L 232.381758 183.857433 
L 235.422811 184.024049 
L 237.849807 184.315705 
L 241.340431 184.952535 
L 246.959549 186.333597 
L 254.008603 188.116625 
L 257.900724 188.885667 
L 261.120765 189.341476 
L 265.369061 189.665124 
L 268.912581 189.688089 
L 272.406582 189.493283 
L 275.87326 189.089887 
L 279.917446 188.353824 
L 282.01781 187.854496 
L 282.01781 187.854496 
" style="fill:none;stroke:#000000;stroke-linecap:square;stroke-opacity:0.7;stroke-width:1.2;"/>
   </g>
   <g id="line2d_8">
    <path clip-path="url(#p1d48ee560c)" d="M 282.097836 146.147913 
L 273.401823 145.109982 
L 259.015122 143.136367 
L 245.83417 141.409552 
L 238.084186 140.604033 
L 230.476183 140.048173 
L 223.947589 139.773076 
L 214.951484 139.664896 
L 207.140562 139.797884 
L 201.4923 140.055333 
L 195.370816 140.559889 
L 190.302865 141.242185 
L 186.707307 141.94651 
L 184.669399 142.464476 
L 181.4713 143.547534 
L 180.133765 144.156418 
L 178.416362 145.204493 
L 177.466788 146.072928 
L 176.936515 146.865172 
L 176.756463 147.386432 
L 176.744444 148.195346 
L 177.121245 149.077305 
L 177.473691 149.515522 
L 178.692158 150.472634 
L 179.666069 150.988549 
L 180.95326 151.504335 
L 183.037054 152.089263 
L 185.564276 152.516947 
L 187.682088 152.696656 
L 191.188649 152.714569 
L 195.202408 152.40499 
L 199.331707 151.820489 
L 203.508946 151.039996 
L 211.903324 149.152646 
L 222.87034 146.604451 
L 227.689641 145.659447 
L 231.471096 145.076979 
L 235.773676 144.649426 
L 239.258897 144.522745 
L 242.972068 144.614484 
L 247.043865 144.951862 
L 253.14764 145.745937 
L 261.990764 146.954823 
L 268.712698 147.603777 
L 274.125987 147.879131 
L 279.377705 147.916362 
L 282.2186 147.83542 
L 282.2186 147.83542 
" style="fill:none;stroke:#000000;stroke-linecap:square;stroke-opacity:0.7;stroke-width:1.2;"/>
   </g>
   <g id="line2d_9">
    <path clip-path="url(#p1d48ee560c)" d="M 282.134096 107.363887 
L 271.476357 105.102158 
L 261.114154 103.12303 
L 252.422469 101.677048 
L 243.777739 100.477733 
L 235.742782 99.603727 
L 227.55262 98.959235 
L 219.263171 98.54595 
L 212.642601 98.39634 
L 205.825284 98.477622 
L 200.234976 98.800476 
L 196.471108 99.186999 
L 191.914357 99.881679 
L 188.295059 100.653907 
L 186.004024 101.271651 
L 182.910304 102.321327 
L 181.123404 103.090375 
L 179.094306 104.222506 
L 177.926108 105.153483 
L 177.246862 106.04502 
L 177.074122 106.539995 
L 177.132407 107.300387 
L 177.552179 107.966614 
L 178.060768 108.418717 
L 178.886342 108.934756 
L 180.072564 109.48335 
L 182.532834 110.322028 
L 186.40639 111.302208 
L 190.892629 112.191024 
L 196.07631 112.996083 
L 200.853357 113.546985 
L 206.167447 113.94952 
L 211.030523 114.127311 
L 216.076157 114.120818 
L 221.963824 113.865715 
L 226.882719 113.448497 
L 233.08913 112.677436 
L 241.448762 111.346981 
L 252.185964 109.652973 
L 259.305143 108.825878 
L 264.641257 108.429072 
L 270.361409 108.228266 
L 276.228803 108.259353 
L 282.12454 108.528928 
L 282.12454 108.528928 
" style="fill:none;stroke:#000000;stroke-linecap:square;stroke-opacity:0.7;stroke-width:1.2;"/>
   </g>
   <g id="line2d_10">
    <path clip-path="url(#p1d48ee560c)" d="M 280.566268 68.536631 
L 260.429628 65.179654 
L 250.753778 63.837539 
L 241.17704 62.762022 
L 230.370216 61.816884 
L 220.046566 61.128607 
L 211.427705 60.742644 
L 205.137644 60.657188 
L 199.694155 60.803397 
L 195.30789 61.126456 
L 191.61216 61.57913 
L 187.343747 62.360157 
L 183.782615 63.289385 
L 181.105921 64.228379 
L 179.114647 65.151148 
L 178.420063 65.554614 
L 177.175932 66.55899 
L 176.841483 67.121079 
L 176.857968 67.639502 
L 177.194781 68.048174 
L 177.486028 68.234498 
L 179.010648 68.741785 
L 180.75578 69.030504 
L 184.598191 69.354562 
L 190.4793 69.57262 
L 198.602581 69.638397 
L 207.200306 69.467689 
L 214.81558 69.100755 
L 222.275987 68.531859 
L 231.72692 67.551791 
L 241.929941 66.491738 
L 247.807404 66.116137 
L 252.731127 66.01963 
L 257.096091 66.120443 
L 262.604521 66.496203 
L 268.422897 67.163779 
L 275.019602 68.181424 
L 280.76338 69.196687 
L 280.76338 69.196687 
" style="fill:none;stroke:#000000;stroke-linecap:square;stroke-opacity:0.7;stroke-width:1.2;"/>
   </g>
   <g id="line2d_11">
    <path clip-path="url(#p1d48ee560c)" d="M 413.333576 223.309988 
L 399.114118 220.586336 
L 391.264628 219.333185 
L 383.230208 218.295473 
L 376.341137 217.609445 
L 368.675269 217.076784 
L 360.991102 216.803697 
L 354.615981 216.785452 
L 347.590286 216.982995 
L 340.130283 217.435569 
L 332.963159 218.120766 
L 327.863935 218.787324 
L 321.872694 219.815591 
L 317.3807 220.818916 
L 313.472907 221.933712 
L 311.027219 222.828769 
L 309.448258 223.599189 
L 308.823141 224.077443 
L 308.711577 224.393021 
L 308.877864 224.551108 
L 309.749682 224.710478 
L 311.767485 224.698887 
L 315.616254 224.617316 
L 319.101425 224.812172 
L 321.550176 225.157959 
L 325.364894 225.990699 
L 330.799377 227.499373 
L 338.921838 229.7548 
L 343.939724 230.929076 
L 347.720938 231.646869 
L 351.154469 232.148347 
L 354.744478 232.496452 
L 358.277479 232.642197 
L 362.149034 232.560383 
L 366.291957 232.191975 
L 370.985735 231.463631 
L 376.673985 230.270082 
L 394.164679 226.325041 
L 400.059791 225.312275 
L 404.67864 224.683538 
L 411.109578 224.041208 
L 413.297472 223.878101 
L 413.297472 223.878101 
" style="fill:none;stroke:#000000;stroke-linecap:square;stroke-opacity:0.7;stroke-width:1.2;"/>
   </g>
   <g id="line2d_12">
    <path clip-path="url(#p1d48ee560c)" d="M 412.395771 187.165331 
L 407.322935 186.361537 
L 399.496066 184.889854 
L 370.075079 179.070372 
L 362.249491 177.890769 
L 355.095259 177.047068 
L 348.837546 176.530573 
L 343.787943 176.303562 
L 338.771724 176.291788 
L 334.12085 176.516479 
L 330.148874 176.921993 
L 325.950964 177.59739 
L 322.898944 178.268271 
L 319.248423 179.299901 
L 316.945131 180.103006 
L 314.059914 181.328829 
L 311.843305 182.529502 
L 310.246901 183.699116 
L 309.640152 184.331957 
L 309.144911 185.251209 
L 309.123469 185.864847 
L 309.456489 186.534577 
L 310.212444 187.17238 
L 311.152423 187.654905 
L 311.764825 187.893583 
L 314.142942 188.552452 
L 316.852442 189.034712 
L 321.132697 189.512857 
L 326.484915 189.862409 
L 336.351029 190.230437 
L 358.089194 190.776018 
L 366.316342 190.8185 
L 375.422138 190.627907 
L 384.957356 190.164893 
L 396.045079 189.371701 
L 412.447273 187.984445 
L 412.447273 187.984445 
" style="fill:none;stroke:#000000;stroke-linecap:square;stroke-opacity:0.7;stroke-width:1.2;"/>
   </g>
   <g id="line2d_13">
    <path clip-path="url(#p1d48ee560c)" d="M 413.420938 147.435128 
L 385.25762 140.362338 
L 378.288042 138.869115 
L 372.005136 137.744457 
L 366.556312 136.990834 
L 362.311924 136.574199 
L 357.371781 136.300662 
L 352.958143 136.260102 
L 348.676182 136.403456 
L 344.142039 136.736597 
L 338.668825 137.353376 
L 333.003091 138.20455 
L 327.750881 139.183072 
L 322.548755 140.371424 
L 319.52375 141.202454 
L 315.759429 142.466425 
L 314.235223 143.094336 
L 311.850126 144.339813 
L 310.551563 145.321253 
L 310.078469 145.830723 
L 309.646298 146.555739 
L 309.519024 147.447561 
L 309.95491 148.443882 
L 310.87056 149.270938 
L 311.464443 149.627829 
L 312.656251 150.157606 
L 314.921327 150.785385 
L 317.642134 151.15219 
L 320.824583 151.238502 
L 324.505812 151.046733 
L 329.966538 150.474744 
L 340.567115 149.289435 
L 344.737518 148.981801 
L 350.146511 148.808628 
L 354.027888 148.868646 
L 359.144039 149.1978 
L 363.84296 149.729212 
L 371.01516 150.798232 
L 378.532853 151.868983 
L 381.5454 152.184033 
L 386.103911 152.471731 
L 390.390513 152.505097 
L 394.497852 152.310611 
L 398.767699 151.87757 
L 403.210494 151.192502 
L 407.311328 150.368026 
L 413.361732 148.867029 
L 413.361732 148.867029 
" style="fill:none;stroke:#000000;stroke-linecap:square;stroke-opacity:0.7;stroke-width:1.2;"/>
   </g>
   <g id="line2d_14">
    <path clip-path="url(#p1d48ee560c)" d="M 412.975381 106.381687 
L 406.096692 104.919699 
L 395.566758 102.919064 
L 368.400815 98.113601 
L 358.372073 96.458593 
L 351.3167 95.517042 
L 346.012761 95.047249 
L 341.545248 94.878247 
L 337.631376 94.936699 
L 334.064719 95.177124 
L 330.273962 95.642467 
L 327.759317 96.076903 
L 323.409969 97.081779 
L 319.371009 98.335475 
L 315.852777 99.734545 
L 313.125566 101.086136 
L 310.376366 102.841871 
L 309.076474 103.964125 
L 308.525812 104.593377 
L 307.990132 105.652457 
L 307.971353 105.782872 
L 308.196161 106.487213 
L 308.665788 106.805281 
L 309.649029 107.04091 
L 310.760051 107.087052 
L 312.995967 106.927551 
L 321.950816 105.936796 
L 323.993238 105.858181 
L 328.733065 105.942078 
L 334.164203 106.351891 
L 352.367748 108.030745 
L 357.674932 108.263481 
L 364.817132 108.302133 
L 372.371479 108.076875 
L 396.116343 107.184213 
L 410.097019 107.058683 
L 412.893792 107.034369 
L 412.893792 107.034369 
" style="fill:none;stroke:#000000;stroke-linecap:square;stroke-opacity:0.7;stroke-width:1.2;"/>
   </g>
   <g id="line2d_15">
    <path clip-path="url(#p1d48ee560c)" d="M 411.939033 68.875966 
L 387.022685 64.710368 
L 371.345262 62.408431 
L 351.196762 59.629552 
L 344.840293 58.960738 
L 339.453249 58.616732 
L 334.829801 58.5459 
L 330.548561 58.702699 
L 326.291592 59.101163 
L 321.917857 59.799333 
L 318.276178 60.646193 
L 314.647891 61.802687 
L 311.992716 62.944454 
L 310.164436 63.994921 
L 308.973515 64.940498 
L 308.102629 66.115167 
L 307.932986 66.963993 
L 308.043558 67.480601 
L 308.310302 67.961615 
L 308.832244 68.510346 
L 309.950237 69.239647 
L 311.443204 69.883611 
L 314.682018 70.782223 
L 317.846158 71.342801 
L 322.161725 71.833954 
L 327.946113 72.194125 
L 335.222049 72.354553 
L 343.138014 72.286135 
L 351.060685 72.008369 
L 359.100311 71.507102 
L 369.119444 70.615474 
L 379.607376 69.696507 
L 386.344094 69.318455 
L 393.423223 69.165882 
L 401.170411 69.269349 
L 409.237926 69.612576 
L 411.867313 69.76227 
L 411.867313 69.76227 
" style="fill:none;stroke:#000000;stroke-linecap:square;stroke-opacity:0.7;stroke-width:1.2;"/>
   </g>
   <g id="line2d_16">
    <path clip-path="url(#p1d48ee560c)" d="M 543.812795 225.510467 
L 532.432231 222.274456 
L 519.4741 218.613055 
L 512.649401 216.886497 
L 506.411604 215.54147 
L 501.790479 214.73695 
L 496.960496 214.107833 
L 491.849686 213.709955 
L 487.445885 213.605146 
L 483.326286 213.710264 
L 478.281686 214.096488 
L 474.190889 214.60083 
L 469.414562 215.380958 
L 464.939621 216.276938 
L 458.954717 217.701749 
L 453.115159 219.34751 
L 448.393183 220.917005 
L 445.807396 221.923763 
L 443.099039 223.213932 
L 441.747742 224.085636 
L 441.284199 224.483708 
L 440.810991 225.04766 
L 440.533644 225.936245 
L 440.62178 226.393044 
L 440.893443 226.886124 
L 441.523001 227.529679 
L 442.262647 228.049138 
L 444.15791 228.974635 
L 446.299304 229.678099 
L 448.550086 230.166599 
L 451.739811 230.502893 
L 454.336227 230.507525 
L 456.828538 230.3191 
L 460.074526 229.851574 
L 464.481433 228.953961 
L 477.445014 226.04745 
L 482.038244 225.334167 
L 485.675773 224.992265 
L 488.142253 224.887416 
L 491.683659 224.921307 
L 496.405971 225.280955 
L 501.249918 225.93847 
L 516.592774 228.297337 
L 520.445814 228.603541 
L 524.551739 228.712681 
L 528.477545 228.598107 
L 531.717198 228.346472 
L 535.918739 227.824069 
L 540.989918 226.935038 
L 543.699048 226.36399 
L 543.699048 226.36399 
" style="fill:none;stroke:#000000;stroke-linecap:square;stroke-opacity:0.7;stroke-width:1.2;"/>
   </g>
   <g id="line2d_17">
    <path clip-path="url(#p1d48ee560c)" d="M 544.148138 186.752225 
L 523.810446 180.993764 
L 516.335761 179.096747 
L 509.510331 177.602035 
L 503.407081 176.509216 
L 497.441456 175.695623 
L 492.578109 175.234473 
L 487.687988 174.963379 
L 483.007709 174.889509 
L 478.367537 174.996847 
L 472.576691 175.382053 
L 467.699779 175.922473 
L 463.043936 176.626016 
L 458.237259 177.555886 
L 453.53884 178.691188 
L 450.532162 179.561429 
L 446.445019 180.999428 
L 443.966048 182.107296 
L 442.98981 182.632462 
L 441.323685 183.770183 
L 440.20042 185.066178 
L 439.986065 185.588734 
L 439.910719 186.048048 
L 440.101636 187.037166 
L 440.399634 187.570189 
L 441.413566 188.653582 
L 441.782693 188.947925 
L 443.796314 190.188818 
L 446.120252 191.218169 
L 448.03393 191.869545 
L 449.002231 192.144315 
L 451.980497 192.781823 
L 455.087528 193.13051 
L 457.602137 193.184691 
L 460.475001 193.009697 
L 462.925203 192.678649 
L 466.536922 191.93661 
L 469.938481 191.034729 
L 484.976553 186.738919 
L 489.250982 185.928299 
L 492.887914 185.488803 
L 496.500562 185.288886 
L 500.444278 185.321376 
L 504.4951 185.578651 
L 511.013274 186.284574 
L 521.245038 187.458419 
L 527.776958 187.941363 
L 533.754091 188.134403 
L 539.475192 188.108062 
L 544.125124 187.955412 
L 544.125124 187.955412 
" style="fill:none;stroke:#000000;stroke-linecap:square;stroke-opacity:0.7;stroke-width:1.2;"/>
   </g>
   <g id="line2d_18">
    <path clip-path="url(#p1d48ee560c)" d="M 543.698536 147.716557 
L 528.655188 145.587942 
L 517.982145 144.309167 
L 508.163961 143.386299 
L 498.573671 142.71134 
L 476.010973 141.450003 
L 467.314623 141.110385 
L 462.482975 141.095618 
L 458.120413 141.252467 
L 453.330407 141.668273 
L 449.849993 142.172972 
L 446.351859 142.905488 
L 444.217812 143.50309 
L 441.631869 144.476894 
L 439.98494 145.436165 
L 439.512977 145.947139 
L 439.420701 146.355054 
L 439.650855 146.698421 
L 440.35521 147.018507 
L 441.536684 147.233315 
L 443.945382 147.355735 
L 449.043082 147.237777 
L 460.526777 146.869163 
L 467.791065 146.882423 
L 475.051295 147.089426 
L 488.948087 147.767287 
L 498.829646 148.161589 
L 507.693871 148.292709 
L 543.672594 148.490577 
L 543.672594 148.490577 
" style="fill:none;stroke:#000000;stroke-linecap:square;stroke-opacity:0.7;stroke-width:1.2;"/>
   </g>
   <g id="line2d_19">
    <path clip-path="url(#p1d48ee560c)" d="M 544.233818 107.637081 
L 529.87828 105.519983 
L 512.880985 102.938476 
L 501.135659 100.920368 
L 491.68658 99.0935 
L 476.864544 96.165303 
L 472.454783 95.513599 
L 467.681192 95.025814 
L 464.518908 94.849056 
L 460.113797 94.830702 
L 456.782268 95.025501 
L 453.030245 95.515283 
L 450.842952 95.968292 
L 447.900349 96.839112 
L 445.336396 97.943815 
L 443.803481 98.839903 
L 443.159485 99.29455 
L 441.605861 100.70923 
L 440.930618 101.594103 
L 440.225271 103.293453 
L 440.193499 104.230589 
L 440.817827 105.725795 
L 441.671061 106.558411 
L 442.760552 107.226544 
L 443.765782 107.665666 
L 446.405691 108.427274 
L 449.29463 108.939187 
L 453.780976 109.450745 
L 459.875961 109.928355 
L 472.432766 110.678134 
L 483.122716 111.113487 
L 489.442947 111.179798 
L 496.194049 111.005358 
L 501.118435 110.715132 
L 511.590088 109.833862 
L 523.651258 108.864382 
L 531.206294 108.468724 
L 538.102381 108.29466 
L 544.197213 108.305513 
L 544.197213 108.305513 
" style="fill:none;stroke:#000000;stroke-linecap:square;stroke-opacity:0.7;stroke-width:1.2;"/>
   </g>
   <g id="line2d_20">
    <path clip-path="url(#p1d48ee560c)" d="M 542.744889 69.238107 
L 533.096313 67.762044 
L 500.494222 62.504129 
L 490.2846 61.262402 
L 481.570432 60.443608 
L 474.707641 59.997173 
L 468.405778 59.812635 
L 463.386398 59.88751 
L 459.217975 60.151343 
L 455.404367 60.598433 
L 452.699278 61.064221 
L 450.042907 61.671912 
L 447.174196 62.546235 
L 444.607009 63.608096 
L 443.171286 64.388115 
L 441.63969 65.506902 
L 441.039622 66.115829 
L 440.292785 67.378573 
L 440.174173 68.007923 
L 440.336934 68.953757 
L 440.776799 69.683661 
L 440.989964 69.923603 
L 442.119326 70.79929 
L 442.824509 71.179301 
L 445.031567 71.990916 
L 448.333184 72.628776 
L 450.630212 72.824916 
L 453.383842 72.871238 
L 457.264436 72.67436 
L 460.948067 72.277762 
L 466.527268 71.408749 
L 473.398908 70.067099 
L 487.165323 67.269958 
L 492.056179 66.543993 
L 497.087983 66.122242 
L 501.598413 66.066484 
L 505.912182 66.265663 
L 512.025857 66.830612 
L 538.186904 69.703813 
L 542.904203 70.042501 
L 542.904203 70.042501 
" style="fill:none;stroke:#000000;stroke-linecap:square;stroke-opacity:0.7;stroke-width:1.2;"/>
   </g>
   <g id="line2d_21">
    <path clip-path="url(#p1d48ee560c)" d="M 675.438914 227.042049 
L 667.252742 225.507002 
L 644.795386 221.09526 
L 638.23985 220.120315 
L 632.44332 219.465139 
L 626.37588 219.000379 
L 620.437669 218.758087 
L 613.212217 218.715369 
L 605.789665 218.910973 
L 598.30247 219.326088 
L 591.631561 219.906156 
L 585.698413 220.655667 
L 581.201953 221.451565 
L 577.691226 222.30762 
L 576.078891 222.821104 
L 574.032486 223.688803 
L 572.828896 224.463804 
L 572.321248 224.987345 
L 572.014978 225.791674 
L 572.203381 226.422519 
L 572.489021 226.767532 
L 573.008798 227.164106 
L 574.714061 227.892355 
L 577.040118 228.400748 
L 579.644242 228.676385 
L 583.536288 228.776744 
L 588.051619 228.641704 
L 607.272193 227.743637 
L 613.117542 227.804121 
L 618.495236 228.09391 
L 623.218185 228.542402 
L 629.642875 229.393056 
L 641.14366 231.003504 
L 646.129785 231.424677 
L 651.130225 231.549373 
L 655.773365 231.373308 
L 660.856107 230.870178 
L 664.905659 230.262869 
L 670.439093 229.192193 
L 675.490909 228.041371 
L 675.490909 228.041371 
" style="fill:none;stroke:#000000;stroke-linecap:square;stroke-opacity:0.7;stroke-width:1.2;"/>
   </g>
   <g id="line2d_22">
    <path clip-path="url(#p1d48ee560c)" d="M 675.067485 185.344938 
L 656.320586 181.5079 
L 646.524609 179.762539 
L 638.428607 178.537759 
L 630.667423 177.610501 
L 624.062337 177.063139 
L 618.635953 176.805413 
L 612.428419 176.728394 
L 606.731023 176.848284 
L 600.115818 177.199548 
L 593.852535 177.759472 
L 587.913792 178.553916 
L 583.496323 179.371283 
L 580.067106 180.18832 
L 577.254702 181.023986 
L 574.111466 182.238675 
L 572.605443 183.019141 
L 571.499841 183.80153 
L 571.116111 184.18786 
L 570.709662 185.025392 
L 570.826703 185.607807 
L 570.89356 185.722861 
L 571.706652 186.469871 
L 572.861695 187.079591 
L 574.081689 187.570545 
L 578.473603 188.955428 
L 585.023335 190.683761 
L 590.480547 191.901307 
L 595.13912 192.743174 
L 600.546118 193.472352 
L 605.949948 193.922575 
L 610.109154 194.067209 
L 615.016913 193.991642 
L 618.731582 193.742306 
L 623.023447 193.236783 
L 626.94357 192.575298 
L 631.900983 191.508476 
L 649.139693 187.450593 
L 653.379377 186.762008 
L 657.721521 186.272239 
L 662.276154 185.993989 
L 667.017637 185.933049 
L 672.550658 186.088236 
L 675.087129 186.21467 
L 675.087129 186.21467 
" style="fill:none;stroke:#000000;stroke-linecap:square;stroke-opacity:0.7;stroke-width:1.2;"/>
   </g>
   <g id="line2d_23">
    <path clip-path="url(#p1d48ee560c)" d="M 675.276173 146.54245 
L 652.466682 144.46065 
L 642.506602 143.837891 
L 633.8956 143.517667 
L 622.201509 143.342881 
L 607.070027 143.118585 
L 593.648797 142.904938 
L 587.636144 143.01809 
L 582.353456 143.325457 
L 577.482541 143.855699 
L 573.685962 144.517123 
L 571.256308 145.161309 
L 570.396159 145.534398 
L 570.28002 145.820508 
L 570.523357 145.900441 
L 571.692259 145.956927 
L 582.749125 145.60318 
L 586.056427 145.769406 
L 590.088868 146.179374 
L 595.846654 147.031298 
L 610.657494 149.410277 
L 616.349218 150.050107 
L 621.286756 150.376575 
L 626.018386 150.457663 
L 630.780644 150.305699 
L 635.528725 149.947205 
L 642.401517 149.180784 
L 653.961633 147.839022 
L 659.850172 147.397925 
L 665.117793 147.216185 
L 670.432413 147.24685 
L 675.243034 147.460759 
L 675.243034 147.460759 
" style="fill:none;stroke:#000000;stroke-linecap:square;stroke-opacity:0.7;stroke-width:1.2;"/>
   </g>
   <g id="line2d_24">
    <path clip-path="url(#p1d48ee560c)" d="M 675.398557 108.293849 
L 665.304311 105.972619 
L 653.727941 103.344768 
L 646.408292 101.905902 
L 639.478377 100.793715 
L 634.141618 100.127167 
L 628.395325 99.60249 
L 622.656493 99.27428 
L 615.440071 99.110282 
L 607.722264 99.17102 
L 600.128611 99.415667 
L 593.780366 99.826779 
L 588.697663 100.403991 
L 585.007217 101.031697 
L 581.580997 101.825907 
L 578.227719 102.866869 
L 575.756605 103.877528 
L 573.877772 104.890289 
L 573.066746 105.461098 
L 572.429965 106.048499 
L 571.932324 106.860981 
L 572.014855 107.663387 
L 572.466173 108.146831 
L 573.055938 108.487136 
L 574.38116 108.935683 
L 576.657484 109.345046 
L 578.835342 109.556482 
L 584.7753 109.787485 
L 603.430581 110.204761 
L 613.179562 110.705343 
L 634.420219 111.948057 
L 640.565626 112.053887 
L 646.722366 111.94024 
L 653.423906 111.568312 
L 660.690434 110.927141 
L 670.350399 109.840213 
L 675.406981 109.237817 
L 675.406981 109.237817 
" style="fill:none;stroke:#000000;stroke-linecap:square;stroke-opacity:0.7;stroke-width:1.2;"/>
   </g>
   <g id="line2d_25">
    <path clip-path="url(#p1d48ee560c)" d="M 675.15526 67.808069 
L 662.992182 65.150624 
L 652.975041 63.197064 
L 643.012516 61.491831 
L 632.905774 59.982955 
L 624.177298 58.869629 
L 616.581249 58.101122 
L 610.171571 57.678102 
L 604.485895 57.547176 
L 599.698261 57.658716 
L 595.686276 57.933224 
L 591.406205 58.433516 
L 587.428519 59.120733 
L 583.773252 59.980616 
L 581.170446 60.760934 
L 578.688004 61.679679 
L 576.494831 62.699185 
L 575.017195 63.570131 
L 573.733442 64.577915 
L 572.851862 65.714929 
L 572.637687 66.455413 
L 572.7139 67.086871 
L 573.053676 67.704424 
L 573.629604 68.26966 
L 574.362234 68.758629 
L 574.760909 68.973625 
L 576.935319 69.848838 
L 578.926514 70.4268 
L 582.080018 71.136746 
L 587.036857 71.98197 
L 593.466536 72.778112 
L 599.713642 73.297224 
L 605.770141 73.579883 
L 611.360935 73.640509 
L 617.41394 73.469976 
L 622.796059 73.105021 
L 629.284755 72.430416 
L 640.538052 70.955486 
L 649.589483 69.863624 
L 656.335339 69.257717 
L 662.255104 68.907422 
L 669.326884 68.714727 
L 675.132858 68.742287 
L 675.132858 68.742287 
" style="fill:none;stroke:#000000;stroke-linecap:square;stroke-opacity:0.7;stroke-width:1.2;"/>
   </g>
  </g>
 </g>
 <defs>
  <clipPath id="p1d48ee560c">
   <rect height="262.08" width="694.08" x="12.96" y="12.96"/>
  </clipPath>
 </defs>
</svg>
