<?xml version="1.0" encoding="utf-8" standalone="no"?>
<!DOCTYPE svg PUBLIC "-//W3C//DTD SVG 1.1//EN"
  "http://www.w3.org/Graphics/SVG/1.1/DTD/svg11.dtd">
<!-- Created with matplotlib (https://matplotlib.org/) -->
<svg height="288pt" version="1.1" viewBox="0 0 720 288" width="720pt" xmlns="http://www.w3.org/2000/svg" xmlns:xlink="http://www.w3.org/1999/xlink">
 <metadata>
  <rdf:RDF xmlns:cc="http://creativecommons.org/ns#" xmlns:dc="http://purl.org/dc/elements/1.1/" xmlns:rdf="http://www.w3.org/1999/02/22-rdf-syntax-ns#">
   <cc:Work>
    <dc:type rdf:resource="http://purl.org/dc/dcmitype/StillImage"/>
    <dc:date>2020-11-06T20:24:45.327414</dc:date>
    <dc:format>image/svg+xml</dc:format>
    <dc:creator>
     <cc:Agent>
      <dc:title>Matplotlib v3.3.2, https://matplotlib.org/</dc:title>
     </cc:Agent>
    </dc:creator>
   </cc:Work>
  </rdf:RDF>
 </metadata>
 <defs>
  <style type="text/css">*{stroke-linecap:butt;stroke-linejoin:round;}</style>
 </defs>
 <g id="figure_1">
  <g id="patch_1">
   <path d="M 0 288 
L 720 288 
L 720 0 
L 0 0 
z
" style="fill:#ffffff;"/>
  </g>
  <g id="axes_1">
   <g id="line2d_1">
    <path clip-path="url(#p6dd1c8767d)" d="M 149.259113 225.813542 
L 105.620385 219.950168 
L 96.278621 219.019235 
L 88.641984 218.475594 
L 81.99297 218.219117 
L 76.042099 218.209619 
L 71.249961 218.388596 
L 66.49691 218.7663 
L 62.024595 219.343932 
L 58.616864 219.962904 
L 55.492777 220.701799 
L 52.55335 221.592899 
L 49.76759 222.690329 
L 48.104075 223.535763 
L 46.474128 224.655552 
L 45.671086 225.543937 
L 45.433744 226.099264 
L 45.465571 226.687028 
L 45.658975 227.037593 
L 46.222149 227.533447 
L 47.291201 228.047732 
L 49.391559 228.620837 
L 52.224338 229.061517 
L 55.545101 229.35313 
L 60.580907 229.536028 
L 66.382548 229.495504 
L 73.00035 229.212687 
L 80.238269 228.680002 
L 90.45059 227.654903 
L 106.011737 226.050609 
L 113.350659 225.557331 
L 120.437935 225.33422 
L 128.102982 225.341717 
L 137.380822 225.584296 
L 149.257225 226.135353 
L 149.257225 226.135353 
" style="fill:none;stroke:#000000;stroke-linecap:square;stroke-opacity:0.7;stroke-width:1.2;"/>
   </g>
   <g id="line2d_2">
    <path clip-path="url(#p6dd1c8767d)" d="M 148.967116 186.764049 
L 139.86563 186.251426 
L 129.693909 185.45273 
L 119.528198 184.421225 
L 107.773241 182.985316 
L 83.709963 179.949302 
L 76.804366 179.393464 
L 72.083146 179.204164 
L 67.675742 179.211308 
L 62.927506 179.469351 
L 58.943193 179.941401 
L 55.775711 180.534341 
L 53.217252 181.201192 
L 50.757706 182.065355 
L 48.826961 182.980947 
L 47.106192 184.136593 
L 46.47892 184.739767 
L 45.791269 185.851187 
L 45.683519 186.556735 
L 45.857352 187.278414 
L 46.366383 188.038163 
L 47.182202 188.773109 
L 49.448566 190.101322 
L 51.566176 191.003862 
L 54.965248 192.139084 
L 58.908629 193.14494 
L 62.837617 193.885962 
L 66.701317 194.380375 
L 70.866884 194.652146 
L 74.370217 194.662089 
L 78.301857 194.422928 
L 81.53113 194.020939 
L 85.528369 193.264001 
L 89.964739 192.103361 
L 94.343212 190.675039 
L 100.067649 188.529338 
L 108.675162 185.277001 
L 112.772762 183.991609 
L 115.1102 183.399036 
L 119.000467 182.694733 
L 122.6551 182.382982 
L 125.429697 182.368645 
L 128.930902 182.594388 
L 132.874497 183.116866 
L 137.047321 183.904585 
L 142.196243 185.112197 
L 148.962738 186.955746 
L 148.962738 186.955746 
" style="fill:none;stroke:#000000;stroke-linecap:square;stroke-opacity:0.7;stroke-width:1.2;"/>
   </g>
   <g id="line2d_3">
    <path clip-path="url(#p6dd1c8767d)" d="M 149.360424 146.925267 
L 142.218278 144.221129 
L 135.709622 141.973336 
L 129.833482 140.156213 
L 124.342014 138.668377 
L 118.752928 137.377681 
L 112.786693 136.253677 
L 107.366679 135.458453 
L 101.190777 134.809753 
L 95.175608 134.435887 
L 88.961426 134.314315 
L 83.010181 134.458076 
L 78.261438 134.772009 
L 73.326522 135.312862 
L 68.724843 136.049585 
L 65.14655 136.807731 
L 61.587354 137.754751 
L 58.330096 138.824022 
L 55.468762 139.957773 
L 52.401242 141.42663 
L 50.313421 142.619913 
L 47.639317 144.485154 
L 46.571766 145.406611 
L 45.505313 146.576055 
L 45.057862 147.33928 
L 44.940123 148.043559 
L 45.139971 148.526125 
L 45.630554 148.940218 
L 46.633725 149.344336 
L 47.977354 149.627565 
L 49.697565 149.824329 
L 53.373677 149.980115 
L 59.27378 149.921769 
L 86.977723 149.24846 
L 95.741089 149.405488 
L 109.517734 149.685316 
L 116.941578 149.599023 
L 124.054326 149.306506 
L 132.721483 148.734297 
L 145.200709 147.66924 
L 149.342467 147.284385 
L 149.342467 147.284385 
" style="fill:none;stroke:#000000;stroke-linecap:square;stroke-opacity:0.7;stroke-width:1.2;"/>
   </g>
   <g id="line2d_4">
    <path clip-path="url(#p6dd1c8767d)" d="M 149.289014 107.368774 
L 135.180968 106.45245 
L 121.155442 105.33414 
L 89.032821 102.612975 
L 81.599524 102.297814 
L 75.736199 102.250601 
L 69.592887 102.43683 
L 64.709026 102.785059 
L 60.463421 103.255441 
L 55.372479 104.069978 
L 51.275707 104.991119 
L 48.199929 105.929262 
L 46.239204 106.744356 
L 45.147366 107.396346 
L 44.68199 107.845517 
L 44.51617 108.196072 
L 44.579799 108.590012 
L 44.942805 108.969585 
L 45.762192 109.387634 
L 46.994545 109.769701 
L 48.915323 110.161154 
L 52.453261 110.598768 
L 56.40288 110.850588 
L 61.623937 110.928823 
L 66.9298 110.769798 
L 71.75158 110.438726 
L 77.877686 109.779723 
L 84.801124 108.752444 
L 94.289772 107.051455 
L 102.686377 105.616034 
L 108.632065 104.855849 
L 113.320025 104.492508 
L 117.827291 104.371847 
L 122.483533 104.476909 
L 128.380453 104.886558 
L 135.056067 105.615485 
L 142.285073 106.611833 
L 149.257539 107.709297 
L 149.257539 107.709297 
" style="fill:none;stroke:#000000;stroke-linecap:square;stroke-opacity:0.7;stroke-width:1.2;"/>
   </g>
   <g id="line2d_5">
    <path clip-path="url(#p6dd1c8767d)" d="M 149.396064 67.739572 
L 129.240286 66.580654 
L 96.009245 64.899139 
L 85.743728 64.569098 
L 77.270161 64.52346 
L 70.147978 64.714249 
L 63.458867 65.129999 
L 58.49627 65.620904 
L 53.342406 66.352542 
L 49.154253 67.210506 
L 46.647664 67.966833 
L 45.661284 68.436716 
L 45.342029 68.727752 
L 45.306513 68.957631 
L 45.489449 69.163027 
L 45.917246 69.359787 
L 46.922681 69.599548 
L 49.148958 69.857086 
L 52.686725 70.002241 
L 57.038963 69.965809 
L 62.516204 69.707594 
L 68.925712 69.19187 
L 77.804192 68.237676 
L 90.648815 66.830979 
L 98.108189 66.277185 
L 103.883225 66.050836 
L 111.235081 66.009427 
L 118.232059 66.181722 
L 128.254083 66.668499 
L 145.903552 67.815601 
L 149.414072 68.046018 
L 149.414072 68.046018 
" style="fill:none;stroke:#000000;stroke-linecap:square;stroke-opacity:0.7;stroke-width:1.2;"/>
   </g>
   <g id="line2d_6">
    <path clip-path="url(#p6dd1c8767d)" d="M 280.982863 225.549044 
L 274.594303 223.522688 
L 267.820927 221.58391 
L 260.502415 219.720578 
L 253.563826 218.178852 
L 246.520106 216.84436 
L 239.368645 215.74378 
L 233.586672 215.059414 
L 227.362298 214.545336 
L 221.579315 214.286308 
L 215.647242 214.253453 
L 210.611062 214.430533 
L 205.775055 214.80665 
L 200.927973 215.427034 
L 197.350298 216.073817 
L 193.790559 216.909536 
L 190.435406 217.907795 
L 186.943906 219.213406 
L 184.264595 220.447309 
L 181.411041 222.059011 
L 179.158913 223.657333 
L 177.938252 224.741941 
L 176.999516 225.830337 
L 176.515718 226.73409 
L 176.432257 227.464995 
L 176.72316 228.075848 
L 177.390903 228.567922 
L 178.260289 228.902299 
L 180.013966 229.259334 
L 182.991981 229.509741 
L 187.444443 229.561981 
L 193.692 229.364617 
L 203.941008 228.779938 
L 218.535751 227.940117 
L 227.069206 227.683262 
L 235.128725 227.656884 
L 249.559113 227.654535 
L 258.138614 227.392325 
L 268.166823 226.838725 
L 279.402987 226.003713 
L 280.971641 225.872755 
L 280.971641 225.872755 
" style="fill:none;stroke:#000000;stroke-linecap:square;stroke-opacity:0.7;stroke-width:1.2;"/>
   </g>
   <g id="line2d_7">
    <path clip-path="url(#p6dd1c8767d)" d="M 280.630118 186.797499 
L 266.842916 185.558406 
L 239.349596 183.011524 
L 228.603516 182.271687 
L 219.413784 181.841043 
L 212.388686 181.70332 
L 206.016544 181.781735 
L 199.84132 182.08972 
L 194.153799 182.617387 
L 189.727623 183.226349 
L 185.70759 183.975223 
L 181.854531 184.95468 
L 179.619504 185.743096 
L 178.128031 186.523993 
L 177.565325 187.078168 
L 177.465076 187.435013 
L 177.648344 187.842376 
L 177.972138 188.113913 
L 178.766765 188.506512 
L 180.066422 188.915461 
L 182.982427 189.503059 
L 186.967563 190.017003 
L 192.474725 190.467649 
L 199.322338 190.778369 
L 207.251026 190.888034 
L 214.564545 190.774981 
L 221.775631 190.451371 
L 229.027496 189.900548 
L 237.219284 189.046228 
L 250.44785 187.60715 
L 256.762653 187.135678 
L 263.554143 186.85297 
L 270.273325 186.786381 
L 277.996549 186.952202 
L 280.628913 187.071445 
L 280.628913 187.071445 
" style="fill:none;stroke:#000000;stroke-linecap:square;stroke-opacity:0.7;stroke-width:1.2;"/>
   </g>
   <g id="line2d_8">
    <path clip-path="url(#p6dd1c8767d)" d="M 280.941547 146.585248 
L 258.925105 143.77665 
L 244.176966 142.091215 
L 233.251013 141.07767 
L 225.018625 140.527338 
L 218.257895 140.268561 
L 211.306742 140.238392 
L 205.162167 140.45115 
L 199.104813 140.916905 
L 194.444971 141.477536 
L 189.814886 142.248979 
L 186.009286 143.093477 
L 182.863195 144.000993 
L 180.57969 144.853333 
L 178.920294 145.665836 
L 177.805122 146.423303 
L 177.207268 147.050094 
L 176.952911 147.577845 
L 176.948505 148.076331 
L 177.201813 148.565503 
L 177.806965 149.0863 
L 178.647234 149.525078 
L 180.36123 150.102783 
L 182.354629 150.549674 
L 186.187591 151.102275 
L 190.697528 151.48295 
L 197.280901 151.751361 
L 204.298718 151.803288 
L 212.826374 151.635153 
L 221.044267 151.263693 
L 229.565595 150.670276 
L 240.385708 149.684813 
L 256.629617 148.192941 
L 267.207064 147.472153 
L 277.231171 147.004419 
L 280.938893 146.889504 
L 280.938893 146.889504 
" style="fill:none;stroke:#000000;stroke-linecap:square;stroke-opacity:0.7;stroke-width:1.2;"/>
   </g>
   <g id="line2d_9">
    <path clip-path="url(#p6dd1c8767d)" d="M 280.838341 107.377357 
L 274.668687 105.129781 
L 267.891146 102.865432 
L 260.647432 100.668746 
L 254.208894 98.918599 
L 247.019755 97.201447 
L 240.27867 95.832169 
L 234.171877 94.806687 
L 228.421087 94.039267 
L 222.339644 93.45068 
L 216.758189 93.131111 
L 212.115569 93.047585 
L 207.116791 93.174701 
L 202.496371 93.533249 
L 198.658288 94.047441 
L 195.486098 94.654345 
L 192.153958 95.51081 
L 188.996525 96.583215 
L 185.938831 97.940604 
L 183.369797 99.416538 
L 181.611944 100.680488 
L 179.959897 102.157202 
L 178.545624 103.811201 
L 177.634599 105.313613 
L 177.073434 106.963555 
L 177.018051 108.147141 
L 177.195357 108.938905 
L 177.656301 109.803496 
L 178.632211 110.756358 
L 179.480317 111.280458 
L 181.130229 111.970948 
L 183.179717 112.529492 
L 185.892769 113.012565 
L 189.899853 113.443949 
L 195.606247 113.74475 
L 202.366115 113.82046 
L 209.456384 113.667279 
L 217.182555 113.260226 
L 224.718527 112.622352 
L 232.355245 111.758242 
L 253.469966 109.218002 
L 261.227098 108.576359 
L 270.22452 108.065615 
L 279.555958 107.749732 
L 280.883308 107.720489 
L 280.883308 107.720489 
" style="fill:none;stroke:#000000;stroke-linecap:square;stroke-opacity:0.7;stroke-width:1.2;"/>
   </g>
   <g id="line2d_10">
    <path clip-path="url(#p6dd1c8767d)" d="M 280.933631 67.79142 
L 260.460892 65.036645 
L 231.004198 60.948242 
L 224.238723 60.264364 
L 218.28867 59.848823 
L 212.082347 59.642162 
L 205.872214 59.696304 
L 200.912604 59.946273 
L 196.028795 60.395775 
L 191.253436 61.069344 
L 186.929241 61.940817 
L 183.73982 62.810744 
L 181.18369 63.722208 
L 178.844353 64.842921 
L 177.387394 65.815403 
L 176.438664 66.730403 
L 175.8086 67.842731 
L 175.738416 68.776849 
L 176.069004 69.60725 
L 176.513249 70.147907 
L 176.806299 70.413231 
L 178.195604 71.293468 
L 179.741305 71.94775 
L 181.902266 72.607139 
L 185.354384 73.341446 
L 189.40462 73.924749 
L 194.247947 74.383005 
L 199.751513 74.683241 
L 205.086588 74.791426 
L 211.067053 74.710467 
L 217.011982 74.410722 
L 222.591407 73.921126 
L 228.886788 73.132874 
L 236.462392 71.924585 
L 250.381238 69.612241 
L 256.237676 68.883804 
L 262.424517 68.357269 
L 269.239848 68.045587 
L 275.875927 67.974976 
L 280.931235 68.066613 
L 280.931235 68.066613 
" style="fill:none;stroke:#000000;stroke-linecap:square;stroke-opacity:0.7;stroke-width:1.2;"/>
   </g>
   <g id="line2d_11">
    <path clip-path="url(#p6dd1c8767d)" d="M 412.2317 226.197822 
L 402.147856 224.111911 
L 392.576808 222.327472 
L 384.040423 220.960223 
L 376.92395 220.023524 
L 368.896793 219.211234 
L 361.491151 218.701199 
L 354.644656 218.444024 
L 348.389221 218.403123 
L 342.493894 218.55343 
L 336.781303 218.900005 
L 330.940414 219.497046 
L 325.952091 220.243193 
L 321.695223 221.093693 
L 317.628029 222.141418 
L 314.495208 223.157916 
L 311.887601 224.208068 
L 309.727693 225.333121 
L 308.832206 225.970661 
L 308.275099 226.60918 
L 308.190223 227.011008 
L 308.297264 227.266458 
L 308.662908 227.572275 
L 309.507236 227.908364 
L 311.42298 228.291397 
L 313.915907 228.562423 
L 318.52673 228.833259 
L 326.534272 229.041072 
L 344.671767 229.197708 
L 363.629969 229.211863 
L 372.234597 228.987574 
L 381.328645 228.50543 
L 412.248673 226.492761 
L 412.248673 226.492761 
" style="fill:none;stroke:#000000;stroke-linecap:square;stroke-opacity:0.7;stroke-width:1.2;"/>
   </g>
   <g id="line2d_12">
    <path clip-path="url(#p6dd1c8767d)" d="M 412.560748 185.866436 
L 402.416495 184.020726 
L 390.491506 182.070232 
L 381.199271 180.754565 
L 373.124312 179.808543 
L 364.665209 179.051226 
L 357.456971 178.610955 
L 349.979609 178.373243 
L 343.897996 178.373726 
L 337.348152 178.617128 
L 332.312107 179.016669 
L 327.836011 179.562519 
L 322.95768 180.410667 
L 319.123908 181.313352 
L 315.869712 182.297271 
L 313.759957 183.080076 
L 311.844708 183.929886 
L 309.659503 185.16006 
L 308.408035 186.129981 
L 307.68694 187.049839 
L 307.573383 187.493555 
L 307.626555 187.796951 
L 307.981343 188.238231 
L 308.558508 188.564242 
L 309.671427 188.917521 
L 311.504815 189.251105 
L 315.184552 189.611233 
L 320.534693 189.87267 
L 330.984288 190.097159 
L 363.658019 190.445455 
L 372.678348 190.323832 
L 380.228862 189.983565 
L 387.402953 189.430904 
L 395.206262 188.606825 
L 404.910171 187.343487 
L 412.552632 186.227165 
L 412.552632 186.227165 
" style="fill:none;stroke:#000000;stroke-linecap:square;stroke-opacity:0.7;stroke-width:1.2;"/>
   </g>
   <g id="line2d_13">
    <path clip-path="url(#p6dd1c8767d)" d="M 412.372816 147.044236 
L 405.925434 145.228507 
L 398.869834 143.43415 
L 391.433652 141.761983 
L 383.929735 140.32539 
L 376.71621 139.202565 
L 370.781348 138.481994 
L 365.318708 137.992521 
L 358.772539 137.641256 
L 352.849695 137.557828 
L 346.824111 137.712304 
L 340.821947 138.118671 
L 334.99275 138.774788 
L 329.999048 139.566626 
L 325.372911 140.51885 
L 320.88288 141.683653 
L 316.625136 143.066302 
L 313.475026 144.328503 
L 310.526439 145.804046 
L 308.596734 147.089739 
L 307.692993 147.999188 
L 307.453157 148.498143 
L 307.498359 148.928176 
L 307.697039 149.17109 
L 308.163774 149.433682 
L 308.983043 149.659613 
L 310.768175 149.861193 
L 313.617512 149.914446 
L 319.243641 149.716445 
L 338.105705 148.824796 
L 345.225838 148.791226 
L 352.567373 149.012125 
L 375.14011 149.984901 
L 381.056249 149.896391 
L 388.191457 149.550236 
L 396.735137 148.889234 
L 408.142204 147.771923 
L 412.382808 147.323165 
L 412.382808 147.323165 
" style="fill:none;stroke:#000000;stroke-linecap:square;stroke-opacity:0.7;stroke-width:1.2;"/>
   </g>
   <g id="line2d_14">
    <path clip-path="url(#p6dd1c8767d)" d="M 412.398877 107.201687 
L 382.964181 103.535161 
L 371.611551 102.370556 
L 360.147578 101.400351 
L 351.006905 100.811454 
L 343.486385 100.550667 
L 337.93198 100.55989 
L 331.935811 100.822694 
L 327.135288 101.263557 
L 323.125956 101.821669 
L 319.480622 102.512424 
L 315.80898 103.435157 
L 313.149762 104.300177 
L 310.701476 105.329062 
L 309.086364 106.245161 
L 308.016697 107.182321 
L 307.782635 107.584372 
L 307.735387 108.023621 
L 308.004062 108.483242 
L 308.646697 108.892462 
L 309.735217 109.258757 
L 311.295439 109.564449 
L 314.373373 109.876612 
L 317.621268 110.004235 
L 322.971314 109.964898 
L 329.452822 109.643854 
L 336.939003 109.010643 
L 346.701207 107.927976 
L 357.750731 106.717381 
L 364.590361 106.192937 
L 371.479173 105.930226 
L 378.414294 105.932771 
L 387.11206 106.215894 
L 402.293569 107.018789 
L 412.399793 107.542394 
L 412.399793 107.542394 
" style="fill:none;stroke:#000000;stroke-linecap:square;stroke-opacity:0.7;stroke-width:1.2;"/>
   </g>
   <g id="line2d_15">
    <path clip-path="url(#p6dd1c8767d)" d="M 412.143887 68.435373 
L 400.00567 65.975825 
L 390.548384 64.246503 
L 381.804967 62.881786 
L 375.048057 62.028929 
L 367.382564 61.298092 
L 360.563169 60.862408 
L 353.48055 60.620456 
L 346.266956 60.596812 
L 338.794084 60.833577 
L 332.871557 61.249673 
L 327.894722 61.797263 
L 323.464886 62.478748 
L 320.079596 63.157069 
L 316.32136 64.122 
L 313.390999 65.089828 
L 311.055848 66.06976 
L 309.280438 67.03677 
L 308.039821 68.008557 
L 307.658043 68.544097 
L 307.596581 68.98981 
L 307.795206 69.318015 
L 308.248821 69.597322 
L 309.112927 69.854885 
L 310.798252 70.08534 
L 313.32843 70.210233 
L 318.67325 70.186289 
L 343.643573 69.699952 
L 353.17487 69.897388 
L 367.23433 70.190394 
L 374.966366 70.111818 
L 385.850519 69.736523 
L 412.138499 68.737624 
L 412.138499 68.737624 
" style="fill:none;stroke:#000000;stroke-linecap:square;stroke-opacity:0.7;stroke-width:1.2;"/>
   </g>
   <g id="line2d_16">
    <path clip-path="url(#p6dd1c8767d)" d="M 543.751598 226.171666 
L 536.187535 223.957691 
L 526.590614 221.391817 
L 518.033744 219.343461 
L 510.746876 217.799934 
L 502.640223 216.323388 
L 494.620423 215.135987 
L 487.654013 214.348169 
L 481.55974 213.871552 
L 475.891504 213.642329 
L 470.986498 213.649858 
L 466.535607 213.862639 
L 462.742607 214.234703 
L 459.469242 214.727778 
L 456.218773 215.408677 
L 453.115964 216.275933 
L 450.240452 217.316038 
L 447.788807 218.432184 
L 445.527396 219.711435 
L 444.192187 220.621153 
L 442.298202 222.221915 
L 441.232313 223.420875 
L 440.397405 224.803061 
L 440.084335 225.975954 
L 440.204594 226.997907 
L 440.449305 227.511536 
L 440.701356 227.856025 
L 441.264792 228.38996 
L 442.525281 229.135561 
L 443.905228 229.660912 
L 445.455861 230.077326 
L 448.538656 230.617461 
L 452.086041 230.97868 
L 456.984248 231.224376 
L 462.960495 231.282987 
L 469.605086 231.135291 
L 476.921463 230.757773 
L 484.079867 230.173985 
L 491.653469 229.328613 
L 513.018893 226.676649 
L 518.176528 226.315484 
L 524.008353 226.099692 
L 531.873847 226.077143 
L 539.762397 226.298312 
L 543.722432 226.493156 
L 543.722432 226.493156 
" style="fill:none;stroke:#000000;stroke-linecap:square;stroke-opacity:0.7;stroke-width:1.2;"/>
   </g>
   <g id="line2d_17">
    <path clip-path="url(#p6dd1c8767d)" d="M 544.028774 185.878824 
L 524.582381 183.289767 
L 506.8683 180.680065 
L 494.015868 178.848638 
L 486.069794 177.941116 
L 479.282262 177.406457 
L 473.171094 177.172929 
L 467.42992 177.216805 
L 462.953332 177.4663 
L 459.778239 177.781112 
L 456.040001 178.329498 
L 452.951324 178.96073 
L 449.501014 179.914377 
L 446.531417 181.026978 
L 444.414543 182.069659 
L 442.937776 182.996957 
L 441.673214 184.030041 
L 440.779162 185.069835 
L 440.370038 185.829606 
L 440.17999 186.612945 
L 440.22936 187.31808 
L 440.63669 188.225747 
L 441.358789 189.027791 
L 442.640106 189.933219 
L 444.498505 190.839184 
L 447.060746 191.742266 
L 450.451712 192.610347 
L 453.933005 193.25357 
L 457.662199 193.73262 
L 462.130133 194.06201 
L 466.55486 194.142509 
L 471.184046 193.967185 
L 475.476678 193.563551 
L 480.217574 192.846871 
L 484.928542 191.865975 
L 489.358621 190.7334 
L 495.898674 188.81991 
L 504.318286 186.357037 
L 508.042592 185.443249 
L 512.026487 184.684543 
L 515.621715 184.232733 
L 519.654095 183.994006 
L 524.046922 184.015882 
L 528.848971 184.296294 
L 534.573651 184.871284 
L 541.279091 185.762791 
L 544.040296 186.179512 
L 544.040296 186.179512 
" style="fill:none;stroke:#000000;stroke-linecap:square;stroke-opacity:0.7;stroke-width:1.2;"/>
   </g>
   <g id="line2d_18">
    <path clip-path="url(#p6dd1c8767d)" d="M 544.092651 146.440837 
L 532.312818 144.325563 
L 518.950104 142.15435 
L 508.164765 140.615845 
L 499.645203 139.598994 
L 491.602469 138.872962 
L 484.625935 138.494968 
L 478.695279 138.405722 
L 472.978213 138.555207 
L 468.456454 138.855183 
L 463.654324 139.366904 
L 459.098008 140.057257 
L 454.689986 140.945728 
L 451.156084 141.84983 
L 447.373427 143.072419 
L 444.997776 144.040262 
L 442.989951 145.06867 
L 441.689808 145.944952 
L 440.831223 146.779654 
L 440.450641 147.46244 
L 440.401753 148.007361 
L 440.633887 148.54265 
L 441.093429 148.979737 
L 441.825756 149.388469 
L 442.943668 149.783762 
L 444.800745 150.188059 
L 448.151921 150.569925 
L 452.313831 150.755774 
L 458.526433 150.75879 
L 467.443578 150.515144 
L 492.446938 149.499269 
L 511.894993 148.593447 
L 544.071959 146.805372 
L 544.071959 146.805372 
" style="fill:none;stroke:#000000;stroke-linecap:square;stroke-opacity:0.7;stroke-width:1.2;"/>
   </g>
   <g id="line2d_19">
    <path clip-path="url(#p6dd1c8767d)" d="M 543.675376 107.892602 
L 512.532698 102.900907 
L 504.750984 102.030099 
L 498.102448 101.490194 
L 491.294879 101.136091 
L 484.102303 100.97238 
L 476.134002 101.028968 
L 468.831068 101.305512 
L 461.94147 101.810102 
L 455.96064 102.51993 
L 451.556172 103.28004 
L 447.742039 104.181983 
L 445.120673 105.002053 
L 442.679866 106.019352 
L 441.409441 106.750655 
L 440.716166 107.326021 
L 440.364809 107.974055 
L 440.438145 108.30391 
L 440.714476 108.601692 
L 441.26802 108.905179 
L 442.146251 109.200169 
L 444.113148 109.614223 
L 447.355648 110.047434 
L 452.908793 110.538521 
L 462.511513 111.118273 
L 474.249868 111.610199 
L 483.652189 111.795753 
L 491.403877 111.720554 
L 497.762191 111.467145 
L 506.009451 110.899282 
L 534.527901 108.621765 
L 543.691772 108.215151 
L 543.691772 108.215151 
" style="fill:none;stroke:#000000;stroke-linecap:square;stroke-opacity:0.7;stroke-width:1.2;"/>
   </g>
   <g id="line2d_20">
    <path clip-path="url(#p6dd1c8767d)" d="M 543.973978 67.773452 
L 537.709975 64.83677 
L 531.230761 62.019091 
L 525.832688 59.88229 
L 520.605417 58.032193 
L 515.786277 56.535609 
L 510.318392 55.088115 
L 505.624467 54.05709 
L 501.030027 53.232623 
L 495.164707 52.435262 
L 489.405284 51.919174 
L 484.366495 51.682299 
L 479.665996 51.651972 
L 474.495678 51.858481 
L 469.780508 52.305551 
L 465.239379 53.018109 
L 462.530159 53.598592 
L 459.108498 54.524878 
L 455.539519 55.756837 
L 452.814952 56.911159 
L 449.777576 58.458123 
L 446.792676 60.307472 
L 444.211366 62.256761 
L 442.805793 63.511374 
L 441.027263 65.424358 
L 439.955655 66.964472 
L 439.520034 67.908592 
L 439.366964 68.816901 
L 439.460665 69.272136 
L 439.778455 69.738673 
L 440.115991 69.990549 
L 440.966795 70.328287 
L 442.367326 70.557039 
L 444.921342 70.607976 
L 448.49011 70.362878 
L 452.925211 69.819984 
L 460.142134 68.653687 
L 478.708702 65.424881 
L 483.707339 64.881886 
L 487.339483 64.684767 
L 491.213354 64.681302 
L 495.968366 64.945329 
L 502.118745 65.579004 
L 516.24843 67.139565 
L 523.900092 67.704659 
L 531.384954 68.049929 
L 538.612423 68.200938 
L 543.968314 68.181251 
L 543.968314 68.181251 
" style="fill:none;stroke:#000000;stroke-linecap:square;stroke-opacity:0.7;stroke-width:1.2;"/>
   </g>
   <g id="line2d_21">
    <path clip-path="url(#p6dd1c8767d)" d="M 675.090438 226.493799 
L 663.263913 224.602761 
L 644.485313 221.587834 
L 635.767293 220.433022 
L 628.122687 219.619163 
L 620.037411 218.966755 
L 611.852175 218.526108 
L 605.135909 218.349757 
L 598.933318 218.376918 
L 592.880604 218.644567 
L 588.068374 219.094905 
L 583.762229 219.750065 
L 580.532145 220.461222 
L 578.163372 221.15129 
L 575.863545 222.018547 
L 573.932786 222.98147 
L 572.401991 224.030429 
L 571.284845 225.224631 
L 570.856873 226.204029 
L 570.878396 227.088815 
L 571.188843 227.776208 
L 571.817995 228.503869 
L 573.213657 229.510063 
L 575.466998 230.628593 
L 578.391256 231.736429 
L 582.517368 232.983535 
L 587.115468 234.098571 
L 592.169328 235.058762 
L 596.829398 235.713804 
L 600.955407 236.107719 
L 605.258104 236.325903 
L 610.258716 236.323277 
L 615.187557 236.046358 
L 619.413038 235.59753 
L 624.82894 234.764267 
L 630.962165 233.544714 
L 641.45587 231.140672 
L 648.629084 229.582215 
L 654.271879 228.552417 
L 659.966697 227.740863 
L 665.403151 227.185826 
L 671.852471 226.789776 
L 675.095619 226.692389 
L 675.095619 226.692389 
" style="fill:none;stroke:#000000;stroke-linecap:square;stroke-opacity:0.7;stroke-width:1.2;"/>
   </g>
   <g id="line2d_22">
    <path clip-path="url(#p6dd1c8767d)" d="M 675.488676 186.399224 
L 667.00264 184.561814 
L 656.802594 182.569112 
L 648.234809 181.102972 
L 640.541775 179.983744 
L 633.359084 179.140107 
L 626.042642 178.522012 
L 620.530644 178.247179 
L 614.855182 178.158404 
L 609.108379 178.283113 
L 603.055961 178.656719 
L 597.071 179.281709 
L 591.950118 180.035634 
L 587.495041 180.878588 
L 582.614689 182.043525 
L 579.411613 182.983373 
L 576.278481 184.089587 
L 573.823204 185.153515 
L 571.980016 186.175448 
L 571.128935 186.880835 
L 571.045025 187.175944 
L 571.147675 187.262774 
L 571.747242 187.319368 
L 573.299392 187.105071 
L 578.173654 186.057539 
L 587.139104 184.152671 
L 593.20825 183.095478 
L 597.689428 182.503027 
L 602.566045 182.101065 
L 606.44883 182.003372 
L 610.070104 182.114271 
L 613.430654 182.396806 
L 617.380424 182.931136 
L 622.030754 183.767725 
L 633.638248 185.990561 
L 638.328755 186.645387 
L 643.028351 187.092269 
L 648.26136 187.368902 
L 654.844495 187.464794 
L 662.618694 187.331335 
L 671.076681 186.984068 
L 675.490909 186.738171 
L 675.490909 186.738171 
" style="fill:none;stroke:#000000;stroke-linecap:square;stroke-opacity:0.7;stroke-width:1.2;"/>
   </g>
   <g id="line2d_23">
    <path clip-path="url(#p6dd1c8767d)" d="M 675.334125 147.110157 
L 656.313212 143.729828 
L 640.563671 141.130035 
L 629.707737 139.5543 
L 621.733695 138.613858 
L 614.612784 138.008447 
L 608.622506 137.719929 
L 604.079048 137.663042 
L 598.965759 137.797637 
L 594.072278 138.163731 
L 589.792934 138.720198 
L 586.448498 139.348183 
L 582.934285 140.243093 
L 579.910467 141.26973 
L 576.970036 142.598187 
L 575.356553 143.539351 
L 573.745344 144.744037 
L 572.905194 145.579144 
L 572.429511 146.20334 
L 571.981444 147.187687 
L 571.941416 147.880657 
L 572.119631 148.420114 
L 572.295072 148.688783 
L 573.135999 149.402232 
L 574.682877 150.080309 
L 576.566384 150.566649 
L 579.670284 151.041003 
L 583.599853 151.353953 
L 588.294988 151.490623 
L 593.982405 151.429322 
L 600.532926 151.128746 
L 607.672893 150.56813 
L 615.56161 149.704244 
L 627.989588 148.027313 
L 635.874043 147.064119 
L 642.162822 146.550667 
L 646.90877 146.353596 
L 652.987438 146.317998 
L 660.440179 146.520311 
L 669.463079 146.998992 
L 675.381889 147.411666 
L 675.381889 147.411666 
" style="fill:none;stroke:#000000;stroke-linecap:square;stroke-opacity:0.7;stroke-width:1.2;"/>
   </g>
   <g id="line2d_24">
    <path clip-path="url(#p6dd1c8767d)" d="M 675.375968 107.641961 
L 660.806942 104.942749 
L 649.376002 103.037394 
L 640.581322 101.792455 
L 633.093801 100.927436 
L 625.523152 100.264212 
L 618.510606 99.873714 
L 612.397318 99.742746 
L 605.854103 99.852861 
L 601.188219 100.106527 
L 594.949822 100.697167 
L 590.279156 101.349991 
L 586.038924 102.12494 
L 581.573864 103.171921 
L 577.496618 104.410368 
L 574.892213 105.419751 
L 572.338319 106.738399 
L 571.393635 107.437069 
L 570.768765 108.192503 
L 570.655487 108.641653 
L 570.782009 109.047416 
L 571.068394 109.351638 
L 571.845138 109.770061 
L 573.364441 110.196297 
L 576.405902 110.621485 
L 581.069376 110.905083 
L 586.63743 111.015979 
L 597.011974 110.96332 
L 614.464348 110.615345 
L 631.354507 110.094453 
L 644.594665 109.462301 
L 672.644707 108.023791 
L 675.39126 107.924274 
L 675.39126 107.924274 
" style="fill:none;stroke:#000000;stroke-linecap:square;stroke-opacity:0.7;stroke-width:1.2;"/>
   </g>
   <g id="line2d_25">
    <path clip-path="url(#p6dd1c8767d)" d="M 675.453563 67.875695 
L 653.264582 64.251639 
L 640.508682 62.352382 
L 630.947137 61.134357 
L 623.17072 60.350573 
L 617.028024 59.908272 
L 610.690449 59.65464 
L 604.405963 59.645507 
L 599.436973 59.839854 
L 594.852088 60.205761 
L 590.505783 60.749751 
L 586.309174 61.498828 
L 582.470813 62.431987 
L 579.442595 63.395404 
L 576.704231 64.520712 
L 574.423541 65.769531 
L 573.131481 66.737595 
L 572.258065 67.71357 
L 572.076798 68.035439 
L 571.906161 68.740394 
L 572.021854 69.245134 
L 572.436998 69.778523 
L 573.108631 70.228584 
L 574.675771 70.823538 
L 576.381884 71.216033 
L 579.829579 71.690991 
L 584.536878 72.021402 
L 590.616033 72.17508 
L 597.467688 72.127783 
L 605.715139 71.849235 
L 614.190776 71.346829 
L 624.203831 70.510282 
L 641.899596 68.92788 
L 650.025756 68.470431 
L 659.186836 68.209011 
L 669.835506 68.152285 
L 675.446783 68.207442 
L 675.446783 68.207442 
" style="fill:none;stroke:#000000;stroke-linecap:square;stroke-opacity:0.7;stroke-width:1.2;"/>
   </g>
  </g>
 </g>
 <defs>
  <clipPath id="p6dd1c8767d">
   <rect height="262.08" width="694.08" x="12.96" y="12.96"/>
  </clipPath>
 </defs>
</svg>
