<?xml version="1.0" encoding="utf-8" standalone="no"?>
<!DOCTYPE svg PUBLIC "-//W3C//DTD SVG 1.1//EN"
  "http://www.w3.org/Graphics/SVG/1.1/DTD/svg11.dtd">
<!-- Created with matplotlib (https://matplotlib.org/) -->
<svg height="288pt" version="1.1" viewBox="0 0 720 288" width="720pt" xmlns="http://www.w3.org/2000/svg" xmlns:xlink="http://www.w3.org/1999/xlink">
 <metadata>
  <rdf:RDF xmlns:cc="http://creativecommons.org/ns#" xmlns:dc="http://purl.org/dc/elements/1.1/" xmlns:rdf="http://www.w3.org/1999/02/22-rdf-syntax-ns#">
   <cc:Work>
    <dc:type rdf:resource="http://purl.org/dc/dcmitype/StillImage"/>
    <dc:date>2020-11-06T19:56:40.749781</dc:date>
    <dc:format>image/svg+xml</dc:format>
    <dc:creator>
     <cc:Agent>
      <dc:title>Matplotlib v3.3.2, https://matplotlib.org/</dc:title>
     </cc:Agent>
    </dc:creator>
   </cc:Work>
  </rdf:RDF>
 </metadata>
 <defs>
  <style type="text/css">*{stroke-linecap:butt;stroke-linejoin:round;}</style>
 </defs>
 <g id="figure_1">
  <g id="patch_1">
   <path d="M 0 288 
L 720 288 
L 720 0 
L 0 0 
z
" style="fill:#ffffff;"/>
  </g>
  <g id="axes_1">
   <g id="line2d_1">
    <path clip-path="url(#pa43ed9284f)" d="M 149.459331 225.281603 
L 147.064151 224.361084 
L 144.113482 223.396504 
L 139.727825 222.199745 
L 135.051941 221.167317 
L 130.062805 220.284151 
L 123.186926 219.346215 
L 116.489507 218.670007 
L 110.06835 218.206357 
L 102.482393 217.877298 
L 95.074614 217.774386 
L 87.964864 217.859735 
L 79.894214 218.155055 
L 72.086121 218.649966 
L 66.293397 219.18205 
L 60.429922 219.919404 
L 56.19303 220.625187 
L 51.468078 221.649854 
L 47.738872 222.721279 
L 45.617597 223.560338 
L 44.905347 223.976145 
L 44.641707 224.211764 
L 44.551781 224.653409 
L 44.894277 224.912904 
L 45.939059 225.190946 
L 48.176441 225.404191 
L 51.546885 225.478868 
L 69.979118 225.568655 
L 77.305927 226.027159 
L 90.798321 226.951354 
L 97.321259 227.147193 
L 102.80178 227.106386 
L 109.209511 226.807556 
L 117.632591 226.10216 
L 128.875506 225.12625 
L 137.959672 224.612878 
L 149.445875 224.029821 
L 149.445875 224.029821 
" style="fill:none;stroke:#000000;stroke-linecap:square;stroke-opacity:0.7;stroke-width:1.2;"/>
   </g>
   <g id="line2d_2">
    <path clip-path="url(#pa43ed9284f)" d="M 149.945269 188.392722 
L 146.297586 187.082734 
L 142.760478 186.022093 
L 139.312194 185.184865 
L 135.332768 184.4653 
L 131.747927 184.027104 
L 127.029933 183.689231 
L 120.079319 183.474451 
L 108.89008 183.163313 
L 102.66528 182.755078 
L 96.572725 182.120541 
L 88.30658 180.968606 
L 78.260339 179.562286 
L 72.606331 178.998396 
L 68.260321 178.748858 
L 63.824945 178.699804 
L 59.394287 178.902905 
L 57.116492 179.125816 
L 52.07217 180.000644 
L 50.010089 180.573818 
L 48.202609 181.251284 
L 46.26855 182.343617 
L 45.541046 183.024993 
L 45.067818 183.907155 
L 45.101121 184.837082 
L 45.377439 185.398717 
L 45.803514 185.917715 
L 47.357362 187.077443 
L 49.141763 187.970882 
L 51.604116 188.911069 
L 56.08929 190.215223 
L 61.266506 191.376146 
L 67.134613 192.398485 
L 72.644832 193.100949 
L 77.713875 193.51846 
L 82.634065 193.699702 
L 86.552692 193.675053 
L 91.707989 193.399321 
L 97.431275 192.758685 
L 102.31531 191.949156 
L 109.023518 190.548978 
L 118.753666 188.424544 
L 124.295277 187.449484 
L 128.61538 186.88705 
L 133.907766 186.450541 
L 139.053921 186.28375 
L 141.284092 186.288772 
L 147.198697 186.55994 
L 150.013391 186.89581 
L 150.013391 186.89581 
" style="fill:none;stroke:#000000;stroke-linecap:square;stroke-opacity:0.7;stroke-width:1.2;"/>
   </g>
   <g id="line2d_3">
    <path clip-path="url(#pa43ed9284f)" d="M 150.15279 148.454891 
L 148.652215 147.911648 
L 145.3238 147.003174 
L 140.658135 146.041373 
L 133.61491 144.8729 
L 122.370955 143.261484 
L 114.02368 142.279184 
L 108.419978 141.808754 
L 101.631168 141.501092 
L 95.057901 141.472097 
L 87.691062 141.683389 
L 77.051568 142.252663 
L 63.525915 143.202147 
L 59.007299 143.712645 
L 55.633181 144.290228 
L 52.344548 145.087608 
L 49.560827 146.03084 
L 47.784314 146.862511 
L 46.222413 147.969158 
L 45.672 148.678627 
L 45.50429 149.637939 
L 45.736044 150.189051 
L 46.245155 150.741776 
L 46.700145 151.071384 
L 48.135824 151.774209 
L 49.817235 152.315618 
L 52.987612 152.973292 
L 56.720791 153.42283 
L 60.180021 153.643508 
L 64.826726 153.72445 
L 69.380127 153.608243 
L 75.306061 153.20428 
L 80.375343 152.648863 
L 86.563425 151.723416 
L 92.562125 150.582934 
L 99.645876 148.969031 
L 114.738348 145.340496 
L 118.591311 144.744996 
L 122.254944 144.45508 
L 125.469489 144.432672 
L 128.903189 144.617424 
L 133.467376 145.107428 
L 139.680561 146.018809 
L 148.461845 147.303225 
L 150.131795 147.459164 
L 150.131795 147.459164 
" style="fill:none;stroke:#000000;stroke-linecap:square;stroke-opacity:0.7;stroke-width:1.2;"/>
   </g>
   <g id="line2d_4">
    <path clip-path="url(#pa43ed9284f)" d="M 149.869602 107.931954 
L 146.189169 107.158581 
L 140.474352 106.208499 
L 133.794654 105.341401 
L 125.637079 104.539946 
L 116.115166 103.857192 
L 104.638249 103.268446 
L 86.854371 102.615485 
L 75.122967 102.367491 
L 68.081817 102.41489 
L 62.073878 102.676588 
L 58.987922 102.933259 
L 54.240494 103.581097 
L 52.395451 103.953873 
L 49.367881 104.810464 
L 48.860538 104.998877 
L 46.286465 106.423413 
L 45.856042 106.873131 
L 45.537037 107.458818 
L 45.495666 108.108091 
L 45.734293 108.677153 
L 46.112153 109.124553 
L 46.922242 109.734293 
L 49.547223 110.873343 
L 51.907975 111.517074 
L 55.711226 112.231349 
L 60.226344 112.807138 
L 65.281388 113.279107 
L 74.568466 113.940443 
L 83.490724 114.352467 
L 90.615465 114.45208 
L 97.360355 114.310816 
L 103.171562 113.991739 
L 109.541316 113.442422 
L 117.627951 112.48825 
L 125.330785 111.357623 
L 136.398332 109.465474 
L 149.913391 107.154579 
L 149.913391 107.154579 
" style="fill:none;stroke:#000000;stroke-linecap:square;stroke-opacity:0.7;stroke-width:1.2;"/>
   </g>
   <g id="line2d_5">
    <path clip-path="url(#pa43ed9284f)" d="M 149.177214 70.039868 
L 139.560886 68.454143 
L 130.66205 67.202063 
L 118.110038 65.70247 
L 86.379009 62.195442 
L 80.880232 61.886937 
L 74.994153 61.754189 
L 67.819448 61.855403 
L 61.975576 62.1686 
L 57.573584 62.591945 
L 53.872552 63.170896 
L 50.806988 64.012438 
L 49.414747 64.642774 
L 48.919625 64.938415 
L 48.070449 65.629293 
L 47.622877 66.302936 
L 47.534691 66.858567 
L 47.631321 67.247569 
L 48.047635 67.837553 
L 48.598803 68.281521 
L 49.02884 68.541828 
L 50.240328 69.092889 
L 52.626668 69.820825 
L 54.799098 70.287197 
L 60.467829 71.093777 
L 66.976315 71.659241 
L 73.691687 72.032718 
L 82.220613 72.27187 
L 89.170278 72.252692 
L 95.234445 72.030971 
L 100.861429 71.596532 
L 106.124917 70.949014 
L 112.245828 69.954961 
L 119.135784 68.853123 
L 124.152183 68.275322 
L 128.444997 67.969462 
L 133.981098 67.810169 
L 138.925298 67.863372 
L 144.838689 68.154806 
L 149.285611 68.578692 
L 149.285611 68.578692 
" style="fill:none;stroke:#000000;stroke-linecap:square;stroke-opacity:0.7;stroke-width:1.2;"/>
   </g>
   <g id="line2d_6">
    <path clip-path="url(#pa43ed9284f)" d="M 281.091505 225.619486 
L 273.395271 225.472945 
L 266.064331 225.139607 
L 258.564398 224.545958 
L 247.869412 223.428649 
L 237.228071 222.398965 
L 231.42584 222.015354 
L 224.496162 221.800077 
L 219.015394 221.840743 
L 212.353451 222.144141 
L 205.663483 222.708992 
L 198.436952 223.585233 
L 192.215585 224.582119 
L 187.933553 225.467521 
L 184.29688 226.457718 
L 181.758694 227.403037 
L 180.170812 228.225402 
L 179.212498 228.952966 
L 178.838331 229.407348 
L 178.690772 230.146542 
L 178.861008 230.44281 
L 179.34044 230.777657 
L 180.057693 231.008735 
L 180.994389 231.139028 
L 182.502552 231.152275 
L 185.440428 230.808389 
L 188.642826 230.116634 
L 194.145403 228.621641 
L 199.127273 227.329997 
L 203.339342 226.407762 
L 209.595589 225.33469 
L 215.58567 224.612511 
L 221.381943 224.184312 
L 226.626189 224.028377 
L 231.899887 224.096665 
L 237.98071 224.434655 
L 247.404244 225.279461 
L 254.88657 225.892274 
L 260.692852 226.165155 
L 266.219936 226.199311 
L 271.489385 225.996252 
L 276.111556 225.594625 
L 280.118145 225.006369 
L 281.183596 224.786291 
L 281.183596 224.786291 
" style="fill:none;stroke:#000000;stroke-linecap:square;stroke-opacity:0.7;stroke-width:1.2;"/>
   </g>
   <g id="line2d_7">
    <path clip-path="url(#pa43ed9284f)" d="M 281.167072 186.510417 
L 277.161822 185.241892 
L 272.439056 184.003495 
L 267.872052 183.038696 
L 263.207752 182.259492 
L 257.116196 181.48635 
L 248.619214 180.695529 
L 235.09311 179.723447 
L 223.642972 179.076819 
L 215.406596 178.805081 
L 207.857126 178.763782 
L 200.368335 178.945089 
L 194.13465 179.286557 
L 188.112762 179.829572 
L 183.203777 180.506649 
L 179.486496 181.271447 
L 177.316223 181.961925 
L 176.640292 182.314064 
L 176.349328 182.616579 
L 176.473536 182.951468 
L 176.983361 183.172828 
L 178.345383 183.406115 
L 180.963964 183.558943 
L 192.334977 183.82125 
L 196.308952 184.234318 
L 200.167959 184.86693 
L 216.541318 187.959676 
L 221.964569 188.581335 
L 226.393749 188.840336 
L 230.222789 188.864623 
L 234.985565 188.629574 
L 239.986491 188.095192 
L 246.555707 187.105826 
L 254.949682 185.844008 
L 260.873498 185.21167 
L 266.868504 184.851611 
L 272.470998 184.751214 
L 278.286999 184.865884 
L 281.017221 185.000137 
L 281.017221 185.000137 
" style="fill:none;stroke:#000000;stroke-linecap:square;stroke-opacity:0.7;stroke-width:1.2;"/>
   </g>
   <g id="line2d_8">
    <path clip-path="url(#pa43ed9284f)" d="M 280.848492 146.819622 
L 276.213935 145.473887 
L 270.303726 143.986907 
L 263.127063 142.445904 
L 256.363381 141.211186 
L 248.578532 140.007423 
L 240.806299 139.021365 
L 234.098229 138.36829 
L 227.644448 137.973062 
L 223.260162 137.880455 
L 218.75936 137.973158 
L 213.654404 138.347501 
L 209.622511 138.862811 
L 205.636153 139.566682 
L 201.049853 140.610572 
L 197.312742 141.639742 
L 192.598871 143.159727 
L 187.414627 145.125824 
L 183.774541 146.735424 
L 181.508256 147.90036 
L 179.658156 149.084085 
L 178.834546 149.904973 
L 178.69541 150.286086 
L 178.877865 150.661615 
L 179.45506 150.9099 
L 180.796382 151.033836 
L 182.581457 150.93519 
L 187.001543 150.220263 
L 191.79058 149.072286 
L 201.683288 146.50431 
L 205.421391 145.867151 
L 209.183931 145.526947 
L 213.209349 145.469097 
L 217.166903 145.669108 
L 221.736209 146.15549 
L 226.945902 146.971209 
L 234.212118 148.40275 
L 241.818889 149.893154 
L 246.288361 150.544673 
L 250.282902 150.895182 
L 253.533928 150.999431 
L 257.784332 150.8921 
L 262.261462 150.502495 
L 266.332052 149.92875 
L 270.826684 149.076529 
L 275.459618 147.96242 
L 279.660416 146.692948 
L 280.88362 146.245319 
L 280.88362 146.245319 
" style="fill:none;stroke:#000000;stroke-linecap:square;stroke-opacity:0.7;stroke-width:1.2;"/>
   </g>
   <g id="line2d_9">
    <path clip-path="url(#pa43ed9284f)" d="M 281.79899 106.788568 
L 278.178207 105.969583 
L 272.131391 104.339892 
L 264.365295 101.999506 
L 254.476073 98.781411 
L 230.596394 90.838029 
L 227.141219 89.92844 
L 222.460898 88.968645 
L 219.182658 88.518039 
L 215.638538 88.249848 
L 212.224653 88.205187 
L 208.954944 88.353002 
L 204.606406 88.829832 
L 200.994956 89.467761 
L 197.183282 90.388625 
L 193.535684 91.53112 
L 189.993547 92.927433 
L 188.571258 93.58317 
L 185.563087 95.195836 
L 180.786177 98.686561 
L 178.12317 101.451412 
L 175.579987 104.653059 
L 174.459633 106.39553 
L 174.132539 107.199261 
L 174.006218 108.639753 
L 174.345895 109.703026 
L 174.685984 110.273034 
L 176.047317 111.718773 
L 177.47029 112.755759 
L 178.293819 113.255414 
L 182.545659 115.23483 
L 184.801378 116.027629 
L 190.6363 117.478312 
L 193.238546 117.798106 
L 195.569824 117.777609 
L 196.888614 117.55411 
L 198.567379 116.989715 
L 206.757876 113.275009 
L 209.617408 112.274987 
L 214.328474 110.94435 
L 218.374543 110.06067 
L 223.850236 109.173114 
L 228.936742 108.594712 
L 235.264921 108.083997 
L 254.896037 106.86231 
L 277.632319 105.523533 
L 281.641525 105.390341 
L 281.641525 105.390341 
" style="fill:none;stroke:#000000;stroke-linecap:square;stroke-opacity:0.7;stroke-width:1.2;"/>
   </g>
   <g id="line2d_10">
    <path clip-path="url(#pa43ed9284f)" d="M 280.823357 68.585229 
L 278.345797 68.24505 
L 275.108465 68.006096 
L 267.422952 67.759029 
L 258.820986 67.402748 
L 251.696946 66.840822 
L 244.616539 66.037167 
L 233.799824 64.522729 
L 224.321014 63.26409 
L 218.0073 62.631523 
L 211.428948 62.210041 
L 205.324897 62.049082 
L 199.001131 62.111475 
L 194.322266 62.302142 
L 188.678625 62.706629 
L 183.94336 63.262501 
L 180.782477 63.866617 
L 178.74097 64.506025 
L 177.566544 65.121886 
L 177.016047 65.612102 
L 176.864123 65.819626 
L 176.641969 66.514932 
L 176.763647 67.161393 
L 177.246942 67.937071 
L 178.026641 68.700733 
L 179.213305 69.556373 
L 180.196315 70.139591 
L 182.496556 71.275971 
L 186.333797 72.781322 
L 191.252372 74.294686 
L 195.633307 75.354451 
L 199.028096 76.007616 
L 203.920158 76.692403 
L 208.00362 77.026821 
L 212.439769 77.139767 
L 217.23519 76.966074 
L 221.740416 76.525553 
L 225.600596 75.940267 
L 229.564853 75.148959 
L 234.488406 73.920021 
L 240.910921 71.982753 
L 255.217328 67.421823 
L 259.752304 66.386565 
L 263.344841 65.832826 
L 266.999049 65.528827 
L 270.831142 65.490116 
L 274.214761 65.693936 
L 276.621463 65.982588 
L 279.97904 66.627974 
L 280.870903 66.863961 
L 280.870903 66.863961 
" style="fill:none;stroke:#000000;stroke-linecap:square;stroke-opacity:0.7;stroke-width:1.2;"/>
   </g>
   <g id="line2d_11">
    <path clip-path="url(#pa43ed9284f)" d="M 411.564506 226.891667 
L 406.605922 225.790931 
L 399.249747 224.396017 
L 370.096717 219.131471 
L 360.314118 217.401477 
L 354.190805 216.526468 
L 348.405405 215.949826 
L 345.205375 215.765318 
L 339.966574 215.713179 
L 336.151961 215.9006 
L 332.013686 216.352638 
L 328.454794 216.976801 
L 324.720989 217.898258 
L 321.325853 219.005012 
L 318.299952 220.237799 
L 315.138187 221.821272 
L 312.520629 223.438509 
L 311.748559 223.992815 
L 309.593869 225.889336 
L 308.789072 226.892513 
L 308.21089 228.042464 
L 308.085961 228.628435 
L 308.128084 229.359735 
L 308.379739 229.986095 
L 308.983554 230.695619 
L 309.914162 231.31906 
L 310.704282 231.677072 
L 313.458762 232.401072 
L 315.242296 232.636351 
L 317.721206 232.78447 
L 321.536535 232.730443 
L 325.69439 232.389744 
L 330.510279 231.717873 
L 334.730517 230.937655 
L 340.231593 229.719923 
L 348.636041 227.596772 
L 360.024968 224.693223 
L 365.818348 223.439419 
L 370.983577 222.591989 
L 374.335524 222.233552 
L 378.467117 222.044893 
L 381.894036 222.110757 
L 385.801771 222.403167 
L 391.035321 223.043612 
L 410.548598 225.715005 
L 411.567606 225.786684 
L 411.567606 225.786684 
" style="fill:none;stroke:#000000;stroke-linecap:square;stroke-opacity:0.7;stroke-width:1.2;"/>
   </g>
   <g id="line2d_12">
    <path clip-path="url(#pa43ed9284f)" d="M 412.010344 188.418655 
L 406.826618 187.031 
L 394.112208 183.568896 
L 386.804198 181.866796 
L 379.249524 180.370621 
L 372.837416 179.30298 
L 366.740412 178.471538 
L 361.706994 177.949386 
L 356.403502 177.599967 
L 350.927881 177.481543 
L 345.145957 177.61867 
L 339.718561 177.970115 
L 333.588514 178.602858 
L 327.811876 179.421224 
L 321.704983 180.543894 
L 316.115035 181.891312 
L 313.162688 182.840508 
L 311.210083 183.701769 
L 310.307499 184.242202 
L 309.272546 185.135103 
L 308.731422 186.006911 
L 308.601694 186.843277 
L 308.826227 187.657234 
L 309.424781 188.496139 
L 309.756829 188.817132 
L 310.617038 189.4679 
L 312.450306 190.454511 
L 314.991587 191.424313 
L 318.702192 192.452487 
L 323.961326 193.516914 
L 328.647804 194.249537 
L 335.138447 195.010884 
L 340.854651 195.427594 
L 345.944814 195.583928 
L 351.828968 195.497184 
L 356.780266 195.18719 
L 361.615747 194.66528 
L 367.39811 193.767914 
L 373.529372 192.573394 
L 385.661338 190.142648 
L 392.800249 188.989847 
L 400.550979 188.013697 
L 407.593152 187.368211 
L 411.964314 187.141547 
L 411.964314 187.141547 
" style="fill:none;stroke:#000000;stroke-linecap:square;stroke-opacity:0.7;stroke-width:1.2;"/>
   </g>
   <g id="line2d_13">
    <path clip-path="url(#pa43ed9284f)" d="M 412.58647 148.937754 
L 403.070424 147.577607 
L 393.885726 146.061009 
L 380.684363 143.621916 
L 365.429687 140.810054 
L 359.460858 139.944232 
L 353.07679 139.279585 
L 345.853724 138.80402 
L 337.240296 138.501001 
L 330.125619 138.440059 
L 326.437873 138.589511 
L 323.918231 138.93899 
L 320.764774 139.625648 
L 317.442032 140.561695 
L 314.748184 141.50855 
L 311.874886 142.84112 
L 310.705194 143.600126 
L 309.941681 144.313151 
L 309.605209 144.861751 
L 309.52352 145.384779 
L 309.675776 145.831188 
L 309.888267 146.101994 
L 311.12203 146.855699 
L 312.494361 147.297898 
L 315.03607 147.788136 
L 318.94231 148.206691 
L 325.520332 148.579254 
L 338.221736 148.998952 
L 346.854592 149.095018 
L 353.744188 148.959434 
L 359.459337 148.651023 
L 365.07504 148.151442 
L 372.41712 147.248613 
L 381.740272 146.106419 
L 386.543539 145.760532 
L 391.936615 145.658471 
L 397.266371 145.842907 
L 402.860179 146.312108 
L 407.482075 146.915637 
L 411.711614 147.695359 
L 412.625337 147.908939 
L 412.625337 147.908939 
" style="fill:none;stroke:#000000;stroke-linecap:square;stroke-opacity:0.7;stroke-width:1.2;"/>
   </g>
   <g id="line2d_14">
    <path clip-path="url(#pa43ed9284f)" d="M 411.979605 109.552423 
L 398.276011 106.317344 
L 387.23862 103.425495 
L 371.742897 99.374599 
L 364.813273 97.821736 
L 359.802942 96.918811 
L 356.030821 96.403555 
L 351.432451 95.988052 
L 346.262764 95.787255 
L 340.991862 95.837189 
L 336.220539 96.087422 
L 331.182132 96.578358 
L 325.661574 97.467714 
L 324.438501 97.735726 
L 320.744385 98.803825 
L 318.735937 99.646309 
L 316.170281 101.15489 
L 311.464057 104.454701 
L 309.499643 106.149235 
L 309.289133 106.37296 
L 308.464788 107.46394 
L 307.997915 108.838016 
L 308.027212 109.341914 
L 308.189996 109.839255 
L 308.456429 110.263749 
L 308.844091 110.665984 
L 309.835832 111.305267 
L 311.396723 111.883267 
L 313.86122 112.370808 
L 314.464968 112.446855 
L 319.78791 112.77865 
L 331.990538 113.184766 
L 338.700511 113.6415 
L 360.59951 115.404808 
L 365.50382 115.434534 
L 370.297814 115.172018 
L 374.593909 114.692438 
L 380.811001 113.692956 
L 391.111308 111.678833 
L 403.521309 109.284109 
L 409.695032 108.310657 
L 411.894589 108.065942 
L 411.894589 108.065942 
" style="fill:none;stroke:#000000;stroke-linecap:square;stroke-opacity:0.7;stroke-width:1.2;"/>
   </g>
   <g id="line2d_15">
    <path clip-path="url(#pa43ed9284f)" d="M 412.743114 69.74133 
L 405.548148 68.543343 
L 396.152397 66.753806 
L 374.58853 62.525405 
L 368.261 61.52962 
L 362.988795 60.90167 
L 357.166245 60.477239 
L 352.689544 60.340918 
L 347.177091 60.362482 
L 339.847325 60.650629 
L 333.522225 61.114922 
L 327.411708 61.788956 
L 323.005124 62.488933 
L 319.167795 63.338895 
L 314.872807 64.518322 
L 312.248887 65.407933 
L 310.662062 66.119438 
L 309.699794 66.740737 
L 309.383353 67.054562 
L 309.161552 67.670815 
L 309.310782 67.993043 
L 309.755846 68.338427 
L 310.53795 68.648776 
L 311.884221 68.934977 
L 314.236127 69.144584 
L 317.507185 69.139245 
L 322.100971 68.791185 
L 334.3457 67.490864 
L 338.873599 67.43424 
L 345.725633 67.625067 
L 369.600654 68.512555 
L 379.022335 68.570652 
L 390.737274 68.382377 
L 402.858958 68.203702 
L 407.958432 68.30368 
L 411.737945 68.561108 
L 412.706752 68.676094 
L 412.706752 68.676094 
" style="fill:none;stroke:#000000;stroke-linecap:square;stroke-opacity:0.7;stroke-width:1.2;"/>
   </g>
   <g id="line2d_16">
    <path clip-path="url(#pa43ed9284f)" d="M 543.322153 227.176032 
L 536.866024 225.034693 
L 525.891983 221.626712 
L 517.301689 219.203891 
L 508.353999 216.924918 
L 499.661575 214.960977 
L 493.472029 213.766434 
L 488.375288 212.97118 
L 483.579626 212.437747 
L 478.449097 212.165492 
L 474.80296 212.194997 
L 470.822792 212.462428 
L 467.030606 212.958365 
L 463.167253 213.71323 
L 460.419566 214.406801 
L 457.315283 215.351725 
L 452.647156 217.115012 
L 449.491406 218.56901 
L 446.82387 220.000797 
L 444.999683 221.120511 
L 442.196117 223.217906 
L 441.118555 224.300894 
L 440.438433 225.312284 
L 440.246007 226.030419 
L 440.265858 226.291494 
L 440.643813 226.927308 
L 441.220118 227.282593 
L 442.338114 227.602783 
L 443.607707 227.749869 
L 446.011353 227.760241 
L 449.8933 227.440384 
L 459.288034 226.386801 
L 464.629955 226.325287 
L 468.767851 226.607715 
L 475.439791 227.367819 
L 485.548015 228.538667 
L 490.794327 228.908135 
L 495.589288 229.004482 
L 500.178778 228.854529 
L 505.387006 228.424737 
L 512.517564 227.553633 
L 523.361379 226.199234 
L 530.057803 225.619013 
L 535.204033 225.378897 
L 540.7121 225.376717 
L 543.272535 225.506082 
L 543.272535 225.506082 
" style="fill:none;stroke:#000000;stroke-linecap:square;stroke-opacity:0.7;stroke-width:1.2;"/>
   </g>
   <g id="line2d_17">
    <path clip-path="url(#pa43ed9284f)" d="M 542.901845 185.863929 
L 538.096905 184.735356 
L 512.736695 179.004774 
L 492.824913 174.291602 
L 486.936692 173.153666 
L 482.151149 172.48109 
L 479.323546 172.234893 
L 475.276969 172.12614 
L 472.200878 172.260281 
L 468.723182 172.653489 
L 465.141663 173.32986 
L 461.168185 174.394146 
L 457.691928 175.583815 
L 453.771668 177.204633 
L 451.619494 178.221966 
L 448.699192 179.762602 
L 445.099746 182.002115 
L 442.701055 183.896786 
L 441.513593 185.161846 
L 441.069192 185.799221 
L 440.568384 186.983661 
L 440.515484 187.88898 
L 440.682966 188.545255 
L 441.275062 189.495408 
L 442.223825 190.356484 
L 443.547302 191.166227 
L 444.589056 191.652271 
L 447.188532 192.548115 
L 449.152029 193.025891 
L 453.140085 193.616934 
L 454.999834 193.740454 
L 459.00159 193.712648 
L 463.009888 193.376188 
L 476.568527 191.967591 
L 480.379903 191.753194 
L 488.060964 191.556202 
L 502.523026 191.319642 
L 507.942714 190.972911 
L 512.72481 190.466905 
L 517.758548 189.730991 
L 524.300957 188.514715 
L 532.100603 186.802632 
L 541.151707 184.576274 
L 542.747292 184.148132 
L 542.747292 184.148132 
" style="fill:none;stroke:#000000;stroke-linecap:square;stroke-opacity:0.7;stroke-width:1.2;"/>
   </g>
   <g id="line2d_18">
    <path clip-path="url(#pa43ed9284f)" d="M 543.981203 149.175692 
L 539.074223 147.389695 
L 520.849304 140.494773 
L 515.911622 138.915148 
L 509.70262 137.180249 
L 504.205224 135.865504 
L 498.111119 134.644575 
L 492.372914 133.74352 
L 487.515483 133.211959 
L 482.946324 132.957631 
L 479.190518 132.963641 
L 474.905108 133.236576 
L 470.880892 133.760045 
L 467.740665 134.343072 
L 463.229892 135.428872 
L 458.802692 136.753699 
L 454.287405 138.349738 
L 450.341492 139.951797 
L 446.312703 141.839678 
L 445.013086 142.529356 
L 442.716645 143.925455 
L 441.121719 145.194739 
L 440.379218 146.097138 
L 440.106345 146.814994 
L 440.23298 147.559847 
L 440.50588 147.93017 
L 441.552379 148.61456 
L 442.86217 149.06917 
L 445.959892 149.621248 
L 449.529007 149.877921 
L 454.847213 149.925517 
L 459.674488 149.955849 
L 462.816638 150.249027 
L 475.398745 151.985636 
L 480.960324 152.369599 
L 485.655319 152.46886 
L 490.555043 152.345602 
L 495.323726 152.000335 
L 500.989332 151.321363 
L 507.627496 150.268611 
L 516.668293 148.823814 
L 522.621245 148.098713 
L 528.531329 147.616078 
L 533.952877 147.37573 
L 540.078347 147.33759 
L 544.07126 147.486824 
L 544.07126 147.486824 
" style="fill:none;stroke:#000000;stroke-linecap:square;stroke-opacity:0.7;stroke-width:1.2;"/>
   </g>
   <g id="line2d_19">
    <path clip-path="url(#pa43ed9284f)" d="M 543.14358 108.990239 
L 538.511559 107.587375 
L 528.540127 104.866874 
L 516.02871 101.697236 
L 499.656835 97.803223 
L 491.86429 96.100059 
L 485.504392 94.925885 
L 480.818226 94.293069 
L 478.214892 94.061309 
L 473.595464 93.908887 
L 469.559798 94.08117 
L 465.914661 94.499181 
L 462.511034 95.119736 
L 458.71834 96.07482 
L 456.613115 96.725492 
L 452.26899 98.345988 
L 449.277851 99.691348 
L 445.853633 101.497043 
L 445.210299 101.87436 
L 442.652912 103.541256 
L 440.594247 105.229815 
L 439.631899 106.361396 
L 439.309671 107.002635 
L 439.217321 107.53365 
L 439.291963 107.945944 
L 439.46993 108.272425 
L 440.21505 108.890874 
L 441.554838 109.425012 
L 443.5784 109.851632 
L 445.041996 110.034021 
L 448.635093 110.244013 
L 453.116281 110.207164 
L 458.396764 109.858533 
L 463.546082 109.464845 
L 465.364113 109.517847 
L 467.068793 109.690018 
L 481.273034 111.593323 
L 486.270682 111.894559 
L 490.77489 111.923643 
L 495.666996 111.673674 
L 499.990518 111.221752 
L 506.595226 110.250545 
L 517.101864 108.643639 
L 523.844894 107.839692 
L 530.750028 107.266067 
L 535.966654 107.026006 
L 540.301566 106.995513 
L 543.109284 107.106328 
L 543.109284 107.106328 
" style="fill:none;stroke:#000000;stroke-linecap:square;stroke-opacity:0.7;stroke-width:1.2;"/>
   </g>
   <g id="line2d_20">
    <path clip-path="url(#pa43ed9284f)" d="M 543.769243 68.5401 
L 534.561338 66.582989 
L 525.447173 64.919125 
L 499.482558 60.377473 
L 479.494045 56.476341 
L 475.317752 56.020896 
L 471.248868 55.813952 
L 466.59618 55.857543 
L 462.454071 56.134241 
L 457.777897 56.711902 
L 453.657509 57.473963 
L 449.154054 58.65206 
L 445.524354 60.001735 
L 443.288194 61.107279 
L 441.116997 62.39532 
L 439.147984 63.820036 
L 438.302554 64.639031 
L 437.589089 65.647402 
L 437.29576 66.382431 
L 437.212681 66.793567 
L 437.37903 68.282357 
L 438.108943 69.59089 
L 439.209989 70.752802 
L 440.686848 71.871478 
L 442.890437 73.134546 
L 444.492935 73.879378 
L 448.4678 75.342156 
L 452.484855 76.435145 
L 456.475262 77.216807 
L 459.813476 77.621421 
L 463.002795 77.756143 
L 467.569236 77.68078 
L 475.561529 77.294259 
L 484.737836 76.609335 
L 491.907671 75.860135 
L 498.938542 74.892498 
L 507.001001 73.514188 
L 521.695725 70.68695 
L 541.286454 66.966957 
L 543.569204 66.592277 
L 543.569204 66.592277 
" style="fill:none;stroke:#000000;stroke-linecap:square;stroke-opacity:0.7;stroke-width:1.2;"/>
   </g>
   <g id="line2d_21">
    <path clip-path="url(#pa43ed9284f)" d="M 673.716019 224.840451 
L 670.513039 224.788626 
L 665.253364 224.463624 
L 658.83733 223.816185 
L 652.110092 222.923281 
L 643.372866 221.534181 
L 616.844031 217.105532 
L 611.98438 216.598023 
L 606.997462 216.304255 
L 602.895565 216.258406 
L 598.59379 216.414011 
L 594.153525 216.812995 
L 590.232041 217.40319 
L 587.623756 217.954608 
L 585.268554 218.601147 
L 582.6579 219.553809 
L 579.953653 220.916684 
L 576.821568 222.912014 
L 574.135199 224.847602 
L 572.818494 226.09567 
L 572.141764 227.140567 
L 571.985852 227.968243 
L 572.129205 228.514786 
L 572.601641 229.11963 
L 573.43632 229.661401 
L 574.558167 230.089009 
L 576.774797 230.541676 
L 579.399673 230.755109 
L 583.355648 230.730254 
L 588.342428 230.369224 
L 607.775573 228.540651 
L 612.973069 228.345071 
L 621.882046 228.263438 
L 633.46705 228.17566 
L 640.002052 227.875659 
L 644.522287 227.504226 
L 651.153946 226.728784 
L 658.90346 225.576474 
L 673.797503 223.165025 
L 673.797503 223.165025 
" style="fill:none;stroke:#000000;stroke-linecap:square;stroke-opacity:0.7;stroke-width:1.2;"/>
   </g>
   <g id="line2d_22">
    <path clip-path="url(#pa43ed9284f)" d="M 675.488486 186.997188 
L 664.906607 185.318088 
L 655.312965 184.01093 
L 645.036992 182.820219 
L 633.880308 181.753613 
L 625.256933 181.130225 
L 618.309578 180.832513 
L 611.813637 180.786201 
L 605.070523 180.994813 
L 598.213072 181.4549 
L 591.287945 182.149042 
L 583.691463 183.159846 
L 574.62428 184.445094 
L 572.052372 184.545482 
L 570.641409 184.415017 
L 570.521545 184.313549 
L 570.93636 184.146726 
L 572.948403 183.919664 
L 576.333361 183.858689 
L 580.393417 184.048573 
L 583.959619 184.38566 
L 591.062191 185.340346 
L 602.605486 186.972863 
L 608.46798 187.605341 
L 614.710025 188.040417 
L 619.277437 188.171812 
L 624.282239 188.111415 
L 629.131155 187.839803 
L 633.88037 187.383746 
L 641.988584 186.322422 
L 650.092458 185.283026 
L 656.32883 184.734873 
L 661.685462 184.494013 
L 666.754547 184.464545 
L 670.699389 184.582515 
L 675.490909 184.96201 
L 675.490909 184.96201 
" style="fill:none;stroke:#000000;stroke-linecap:square;stroke-opacity:0.7;stroke-width:1.2;"/>
   </g>
   <g id="line2d_23">
    <path clip-path="url(#pa43ed9284f)" d="M 672.731344 148.804123 
L 670.613722 148.088974 
L 668.266788 147.490626 
L 665.035248 146.849299 
L 660.316759 146.134884 
L 652.119459 145.174157 
L 628.641635 142.708504 
L 622.233947 142.228301 
L 615.975218 141.975687 
L 609.474243 141.974839 
L 603.454537 142.186897 
L 594.66579 142.749938 
L 586.044012 143.495355 
L 583.301735 143.802389 
L 579.419494 144.443789 
L 576.774441 145.214973 
L 575.816227 145.620767 
L 574.334932 146.475518 
L 572.944504 147.799358 
L 572.30697 149.105308 
L 572.22875 150.163249 
L 572.409156 150.93807 
L 572.526462 151.221501 
L 573.067491 152.089529 
L 574.239974 153.219669 
L 575.190224 153.855025 
L 577.667076 154.98886 
L 579.824719 155.628211 
L 582.033512 156.074479 
L 587.715844 156.623288 
L 593.665535 156.693903 
L 601.745113 156.481467 
L 616.718962 155.828189 
L 623.88855 155.325848 
L 630.282712 154.645333 
L 635.681679 153.863116 
L 643.418238 152.486857 
L 663.788337 148.462323 
L 672.984538 146.584167 
L 672.984538 146.584167 
" style="fill:none;stroke:#000000;stroke-linecap:square;stroke-opacity:0.7;stroke-width:1.2;"/>
   </g>
   <g id="line2d_24">
    <path clip-path="url(#pa43ed9284f)" d="M 672.550473 108.0586 
L 669.869067 108.024941 
L 654.769932 108.168664 
L 648.540949 107.915333 
L 642.721216 107.493818 
L 634.655771 106.665819 
L 625.113814 105.434654 
L 612.464194 103.773827 
L 607.020229 103.23404 
L 600.892681 102.865224 
L 595.374627 102.79985 
L 590.386215 102.999566 
L 585.987422 103.429101 
L 583.281756 103.846968 
L 580.815357 104.364233 
L 578.666046 104.955451 
L 574.708441 106.555266 
L 572.955122 107.601876 
L 571.847288 108.481482 
L 571.382174 108.965755 
L 570.862065 109.876724 
L 570.893337 110.420291 
L 571.105991 110.708963 
L 571.680161 111.023842 
L 572.626329 111.219865 
L 574.353729 111.259905 
L 577.295491 110.976008 
L 582.56219 110.068833 
L 593.427013 108.034524 
L 597.937394 107.415928 
L 602.797368 107.003103 
L 607.405538 106.882887 
L 611.627838 107.006066 
L 615.607643 107.313904 
L 621.187403 108.017091 
L 628.278972 109.239568 
L 637.058096 110.848014 
L 641.462402 111.444232 
L 644.512156 111.684787 
L 647.216518 111.755355 
L 651.256088 111.605659 
L 655.71333 111.12182 
L 659.698397 110.455456 
L 664.88764 109.314757 
L 669.988741 107.915974 
L 672.841563 107.002128 
L 672.841563 107.002128 
" style="fill:none;stroke:#000000;stroke-linecap:square;stroke-opacity:0.7;stroke-width:1.2;"/>
   </g>
   <g id="line2d_25">
    <path clip-path="url(#pa43ed9284f)" d="M 674.728521 67.599974 
L 671.071407 66.650228 
L 656.169161 62.562423 
L 649.07834 60.878232 
L 641.048461 59.208398 
L 632.709527 57.723839 
L 625.12486 56.595327 
L 619.367284 55.908689 
L 614.25018 55.467962 
L 608.571453 55.220725 
L 604.270946 55.222256 
L 598.728559 55.469305 
L 593.468139 55.963266 
L 589.685613 56.485381 
L 585.251951 57.302983 
L 581.071453 58.333975 
L 577.991855 59.329544 
L 575.146927 60.55858 
L 574.016666 61.199488 
L 572.590511 62.287157 
L 572.100855 62.821438 
L 571.487806 63.973978 
L 571.431582 64.677084 
L 571.604679 65.206626 
L 571.908927 65.614653 
L 572.631463 66.176436 
L 574.301989 66.956238 
L 576.4838 67.658014 
L 579.848499 68.50419 
L 601.189184 73.258726 
L 604.874933 73.807205 
L 609.713367 74.26872 
L 614.552298 74.436883 
L 618.987201 74.331706 
L 622.385773 74.081664 
L 626.158946 73.633039 
L 630.971863 72.813944 
L 635.727741 71.776743 
L 644.621774 69.540886 
L 651.559514 67.921961 
L 656.643734 66.969709 
L 661.374797 66.285155 
L 667.274417 65.663822 
L 674.569084 65.110999 
L 674.569084 65.110999 
" style="fill:none;stroke:#000000;stroke-linecap:square;stroke-opacity:0.7;stroke-width:1.2;"/>
   </g>
  </g>
 </g>
 <defs>
  <clipPath id="pa43ed9284f">
   <rect height="262.08" width="694.08" x="12.96" y="12.96"/>
  </clipPath>
 </defs>
</svg>
