<?xml version="1.0" encoding="utf-8" standalone="no"?>
<!DOCTYPE svg PUBLIC "-//W3C//DTD SVG 1.1//EN"
  "http://www.w3.org/Graphics/SVG/1.1/DTD/svg11.dtd">
<!-- Created with matplotlib (https://matplotlib.org/) -->
<svg height="288pt" version="1.1" viewBox="0 0 720 288" width="720pt" xmlns="http://www.w3.org/2000/svg" xmlns:xlink="http://www.w3.org/1999/xlink">
 <metadata>
  <rdf:RDF xmlns:cc="http://creativecommons.org/ns#" xmlns:dc="http://purl.org/dc/elements/1.1/" xmlns:rdf="http://www.w3.org/1999/02/22-rdf-syntax-ns#">
   <cc:Work>
    <dc:type rdf:resource="http://purl.org/dc/dcmitype/StillImage"/>
    <dc:date>2020-11-06T20:26:01.840899</dc:date>
    <dc:format>image/svg+xml</dc:format>
    <dc:creator>
     <cc:Agent>
      <dc:title>Matplotlib v3.3.2, https://matplotlib.org/</dc:title>
     </cc:Agent>
    </dc:creator>
   </cc:Work>
  </rdf:RDF>
 </metadata>
 <defs>
  <style type="text/css">*{stroke-linecap:butt;stroke-linejoin:round;}</style>
 </defs>
 <g id="figure_1">
  <g id="patch_1">
   <path d="M 0 288 
L 720 288 
L 720 0 
L 0 0 
z
" style="fill:#ffffff;"/>
  </g>
  <g id="axes_1">
   <g id="line2d_1">
    <path clip-path="url(#pc7ebdb9843)" d="M 148.756337 226.155511 
L 136.909149 223.44371 
L 127.180245 221.425592 
L 118.11379 219.74694 
L 109.625072 218.368699 
L 101.398946 217.264768 
L 95.461988 216.672292 
L 89.34392 216.305018 
L 83.635882 216.226422 
L 78.091265 216.412414 
L 73.044667 216.811945 
L 68.725919 217.334289 
L 63.715459 218.167768 
L 59.279025 219.145744 
L 56.10372 220.021546 
L 52.571925 221.234641 
L 49.7702 222.471038 
L 47.579387 223.745579 
L 46.206495 224.848179 
L 45.461835 225.734102 
L 45.128013 226.437695 
L 45.076934 227.141143 
L 45.266999 227.642122 
L 45.655816 228.089425 
L 46.473859 228.60262 
L 47.764635 229.063638 
L 49.374975 229.40661 
L 51.812227 229.698698 
L 55.640481 229.87787 
L 60.362527 229.840217 
L 66.844295 229.504811 
L 73.430559 228.927765 
L 81.762229 227.954913 
L 98.148121 225.942442 
L 103.874774 225.512356 
L 109.663123 225.310601 
L 116.745158 225.339625 
L 125.838861 225.64362 
L 148.754347 226.699701 
L 148.754347 226.699701 
" style="fill:none;stroke:#000000;stroke-linecap:square;stroke-opacity:0.7;stroke-width:1.2;"/>
   </g>
   <g id="line2d_2">
    <path clip-path="url(#pc7ebdb9843)" d="M 148.715474 186.673118 
L 129.096979 185.184479 
L 115.566248 184.396591 
L 98.845716 183.66328 
L 84.348991 183.233439 
L 74.978607 183.169133 
L 67.346217 183.328433 
L 61.402629 183.640442 
L 55.709617 184.168406 
L 51.951784 184.714447 
L 48.685156 185.430726 
L 46.742673 186.096349 
L 45.691134 186.685426 
L 45.32865 187.038205 
L 45.156614 187.420505 
L 45.292683 187.924606 
L 45.666675 188.289044 
L 46.388111 188.698157 
L 47.967601 189.266008 
L 50.3574 189.8542 
L 54.837659 190.660059 
L 61.884634 191.648205 
L 71.240237 192.726406 
L 79.289377 193.44177 
L 86.137132 193.815747 
L 92.123668 193.89752 
L 96.649294 193.778945 
L 101.730466 193.452826 
L 107.376591 192.873688 
L 115.229693 191.805412 
L 139.102694 188.362898 
L 148.728825 187.183473 
L 148.728825 187.183473 
" style="fill:none;stroke:#000000;stroke-linecap:square;stroke-opacity:0.7;stroke-width:1.2;"/>
   </g>
   <g id="line2d_3">
    <path clip-path="url(#pc7ebdb9843)" d="M 148.694891 147.227145 
L 136.646268 144.307757 
L 125.276372 141.759601 
L 114.796046 139.62111 
L 106.08622 138.063584 
L 100.05185 137.166693 
L 94.171125 136.492759 
L 88.425701 136.067282 
L 82.907153 135.902542 
L 78.149949 135.967119 
L 73.481851 136.230678 
L 69.171662 136.668366 
L 64.780736 137.33542 
L 61.123702 138.095586 
L 58.158519 138.881313 
L 54.692437 140.050129 
L 51.842811 141.291937 
L 49.487122 142.614545 
L 47.852183 143.80128 
L 46.718579 144.876256 
L 45.775685 146.18272 
L 45.375474 147.315357 
L 45.355623 148.023356 
L 45.527849 148.675254 
L 45.988563 149.400375 
L 46.768856 150.082903 
L 47.943495 150.721607 
L 49.760574 151.342958 
L 52.113166 151.837806 
L 55.370427 152.227815 
L 59.826287 152.456878 
L 64.270809 152.47356 
L 70.486091 152.259568 
L 77.321117 151.776498 
L 84.210796 151.059005 
L 91.706162 150.046153 
L 109.989703 147.388709 
L 114.82949 146.947337 
L 119.556667 146.700418 
L 125.681929 146.629865 
L 132.927386 146.81347 
L 142.607323 147.325356 
L 148.674648 147.74482 
L 148.674648 147.74482 
" style="fill:none;stroke:#000000;stroke-linecap:square;stroke-opacity:0.7;stroke-width:1.2;"/>
   </g>
   <g id="line2d_4">
    <path clip-path="url(#pc7ebdb9843)" d="M 148.739402 107.521844 
L 135.714088 105.27373 
L 120.917906 102.954961 
L 101.734195 100.173283 
L 93.784998 99.230409 
L 87.968317 98.741575 
L 82.146065 98.487185 
L 76.902281 98.489725 
L 71.538182 98.737826 
L 66.542722 99.210429 
L 61.91803 99.884616 
L 58.672098 100.522188 
L 55.167569 101.409015 
L 52.286968 102.354052 
L 50.194388 103.227196 
L 47.880621 104.51433 
L 46.357972 105.76116 
L 45.575647 106.778238 
L 45.288288 107.414103 
L 45.190958 108.635034 
L 45.481515 109.4132 
L 45.989885 110.069336 
L 46.665851 110.629943 
L 48.064673 111.386603 
L 49.851555 112.007825 
L 52.164913 112.53516 
L 56.069611 113.062025 
L 60.005998 113.340271 
L 65.30802 113.484173 
L 71.102027 113.438282 
L 77.768869 113.175798 
L 84.927715 112.655265 
L 91.835136 111.920068 
L 101.242535 110.642881 
L 111.658145 109.250342 
L 118.111957 108.618811 
L 124.873758 108.205498 
L 132.216288 107.996563 
L 141.732534 107.971952 
L 148.740312 108.071387 
L 148.740312 108.071387 
" style="fill:none;stroke:#000000;stroke-linecap:square;stroke-opacity:0.7;stroke-width:1.2;"/>
   </g>
   <g id="line2d_5">
    <path clip-path="url(#pc7ebdb9843)" d="M 148.507987 68.68343 
L 137.156771 66.716341 
L 126.721464 65.101215 
L 116.340272 63.720735 
L 105.846702 62.545609 
L 95.539434 61.604265 
L 88.748219 61.164076 
L 82.600019 60.966784 
L 77.667134 60.988198 
L 72.598717 61.202737 
L 67.880558 61.595113 
L 63.011105 62.215035 
L 59.226351 62.867931 
L 55.081264 63.790229 
L 51.566859 64.794956 
L 48.345956 65.993072 
L 46.953708 66.653159 
L 45.479593 67.557891 
L 44.786448 68.195457 
L 44.509091 68.808733 
L 44.638485 69.138499 
L 44.984835 69.372272 
L 45.565337 69.540748 
L 46.879769 69.660934 
L 49.679353 69.571423 
L 54.821548 69.093979 
L 65.787785 67.999813 
L 72.949065 67.534906 
L 78.372582 67.389347 
L 83.696728 67.435431 
L 90.967883 67.753819 
L 109.762143 68.802373 
L 119.770356 69.045162 
L 134.651535 69.150464 
L 148.544231 69.158328 
L 148.544231 69.158328 
" style="fill:none;stroke:#000000;stroke-linecap:square;stroke-opacity:0.7;stroke-width:1.2;"/>
   </g>
   <g id="line2d_6">
    <path clip-path="url(#pc7ebdb9843)" d="M 280.231954 226.507851 
L 270.108458 224.286994 
L 258.003806 221.861822 
L 246.751955 219.841588 
L 237.262624 218.366807 
L 230.137963 217.4674 
L 223.906011 216.887617 
L 218.108349 216.564304 
L 212.222201 216.480026 
L 206.794177 216.64151 
L 202.240162 216.970187 
L 197.202532 217.562642 
L 192.529894 218.360841 
L 187.986677 219.419589 
L 185.008313 220.308404 
L 182.653021 221.157021 
L 179.945341 222.35908 
L 178.127903 223.382392 
L 176.35776 224.742137 
L 175.721175 225.492391 
L 175.439771 226.048547 
L 175.369341 226.635841 
L 175.522377 227.077307 
L 176.001767 227.573712 
L 176.363903 227.794328 
L 177.999421 228.355668 
L 180.007504 228.693446 
L 182.918813 228.922954 
L 187.270249 228.995303 
L 193.482609 228.805298 
L 201.00496 228.301788 
L 210.609258 227.385835 
L 225.782582 225.883506 
L 231.34114 225.556266 
L 237.418106 225.405145 
L 244.484178 225.456092 
L 253.950553 225.76173 
L 272.07903 226.628761 
L 280.211083 227.047906 
L 280.211083 227.047906 
" style="fill:none;stroke:#000000;stroke-linecap:square;stroke-opacity:0.7;stroke-width:1.2;"/>
   </g>
   <g id="line2d_7">
    <path clip-path="url(#pc7ebdb9843)" d="M 280.139989 187.263775 
L 259.929994 183.838563 
L 251.758998 182.675075 
L 243.509597 181.725365 
L 235.05797 180.994417 
L 226.783737 180.512392 
L 218.885795 180.287636 
L 211.923086 180.313758 
L 205.245561 180.569355 
L 199.156861 181.032295 
L 193.506207 181.702028 
L 189.013191 182.44944 
L 184.466799 183.485642 
L 181.132779 184.539467 
L 179.176672 185.379432 
L 177.921502 186.108299 
L 177.243765 186.656167 
L 176.792316 187.2332 
L 176.654226 187.877818 
L 176.839691 188.330309 
L 177.335688 188.793051 
L 178.275334 189.275569 
L 180.138467 189.85007 
L 183.239605 190.450814 
L 188.200826 191.092441 
L 195.95256 191.812293 
L 207.533527 192.630455 
L 216.677053 193.061378 
L 222.833895 193.160305 
L 228.814587 193.040941 
L 234.606138 192.69905 
L 241.174287 192.078989 
L 252.630762 190.700255 
L 266.992438 189.011579 
L 280.158337 187.696982 
L 280.158337 187.696982 
" style="fill:none;stroke:#000000;stroke-linecap:square;stroke-opacity:0.7;stroke-width:1.2;"/>
   </g>
   <g id="line2d_8">
    <path clip-path="url(#pc7ebdb9843)" d="M 280.367085 147.083372 
L 259.808232 144.463214 
L 245.258686 142.855335 
L 230.651943 141.454211 
L 221.594854 140.777228 
L 214.597669 140.488205 
L 208.661348 140.478835 
L 202.949732 140.711744 
L 198.396362 141.084529 
L 193.882205 141.634888 
L 189.2804 142.409168 
L 184.806981 143.422938 
L 181.232158 144.505096 
L 178.74813 145.514537 
L 177.549711 146.16373 
L 176.670827 146.817799 
L 176.205927 147.386051 
L 176.06835 147.872672 
L 176.19787 148.310512 
L 176.520904 148.660432 
L 177.102106 149.00985 
L 177.978454 149.337817 
L 179.549337 149.700256 
L 182.572383 150.068801 
L 187.076576 150.281236 
L 193.369971 150.282779 
L 202.270926 150.015736 
L 214.240573 149.414582 
L 239.911673 148.013163 
L 250.564986 147.748055 
L 266.906568 147.613999 
L 280.352805 147.602935 
L 280.352805 147.602935 
" style="fill:none;stroke:#000000;stroke-linecap:square;stroke-opacity:0.7;stroke-width:1.2;"/>
   </g>
   <g id="line2d_9">
    <path clip-path="url(#pc7ebdb9843)" d="M 280.39992 107.53634 
L 267.524533 105.230823 
L 259.489021 104.014653 
L 252.159453 103.123452 
L 245.237199 102.486497 
L 237.43978 101.99535 
L 228.914492 101.704421 
L 221.190122 101.649632 
L 213.974914 101.792286 
L 206.308289 102.185745 
L 199.253574 102.808824 
L 193.347677 103.561104 
L 187.572876 104.553713 
L 182.892276 105.614163 
L 179.749757 106.5196 
L 177.258239 107.429041 
L 176.010097 108.098374 
L 175.96832 108.288853 
L 176.341911 108.424339 
L 177.725122 108.537977 
L 198.32316 109.376924 
L 205.754149 110.07516 
L 214.961742 111.213179 
L 225.95525 112.578129 
L 230.645936 112.993005 
L 236.317439 113.264373 
L 240.45712 113.285005 
L 245.870738 113.092387 
L 251.327071 112.676831 
L 258.273937 111.889165 
L 266.136342 110.728142 
L 273.718321 109.395237 
L 280.454844 108.062829 
L 280.454844 108.062829 
" style="fill:none;stroke:#000000;stroke-linecap:square;stroke-opacity:0.7;stroke-width:1.2;"/>
   </g>
   <g id="line2d_10">
    <path clip-path="url(#pc7ebdb9843)" d="M 280.157766 68.703824 
L 272.280321 66.029418 
L 263.881885 63.41245 
L 256.358501 61.308961 
L 248.940339 59.485855 
L 241.839103 57.994817 
L 236.003005 56.976587 
L 229.997195 56.152056 
L 224.129014 55.596781 
L 219.48647 55.353421 
L 214.869244 55.297932 
L 210.223721 55.442763 
L 205.664466 55.794817 
L 200.679112 56.44073 
L 196.893083 57.136264 
L 193.475467 57.940352 
L 189.790079 59.032141 
L 186.544612 60.237648 
L 184.455994 61.172245 
L 181.848025 62.584706 
L 179.58068 64.160829 
L 177.895256 65.751306 
L 177.258004 66.568287 
L 176.568239 67.926794 
L 176.419562 68.65341 
L 176.522219 69.582824 
L 176.765122 70.092975 
L 177.409416 70.79021 
L 178.805514 71.568132 
L 180.731325 72.16454 
L 182.712003 72.560887 
L 186.306743 73.04376 
L 192.553792 73.595377 
L 203.384475 74.279984 
L 216.189258 74.890078 
L 224.351044 75.078874 
L 230.397705 75.027052 
L 236.612684 74.74947 
L 242.112975 74.309181 
L 249.280214 73.513171 
L 260.789699 71.949438 
L 280.150001 69.143084 
L 280.150001 69.143084 
" style="fill:none;stroke:#000000;stroke-linecap:square;stroke-opacity:0.7;stroke-width:1.2;"/>
   </g>
   <g id="line2d_11">
    <path clip-path="url(#pc7ebdb9843)" d="M 411.910111 226.674458 
L 405.423149 224.286907 
L 398.42033 221.932707 
L 391.525545 219.886975 
L 385.076076 218.242579 
L 379.432223 217.022535 
L 373.79692 216.012259 
L 368.108551 215.215101 
L 363.131668 214.717163 
L 359.044318 214.458731 
L 353.31266 214.336998 
L 347.876002 214.484285 
L 342.047567 214.920564 
L 337.152643 215.506392 
L 332.604117 216.236721 
L 327.122783 217.383823 
L 322.931536 218.500011 
L 318.992713 219.79615 
L 315.310845 221.306838 
L 313.049745 222.441295 
L 310.813899 223.811571 
L 309.130863 225.195623 
L 308.558763 225.995041 
L 308.514183 226.447223 
L 308.753325 226.760899 
L 309.317311 227.01171 
L 310.789422 227.245878 
L 313.612172 227.351174 
L 320.175355 227.279481 
L 330.77168 227.195203 
L 337.705004 227.360033 
L 344.131754 227.721754 
L 352.218555 228.4235 
L 364.02992 229.481704 
L 369.572901 229.765516 
L 375.367911 229.84665 
L 382.055416 229.685902 
L 389.892324 229.229913 
L 398.806956 228.4725 
L 409.574197 227.33921 
L 411.907311 227.070867 
L 411.907311 227.070867 
" style="fill:none;stroke:#000000;stroke-linecap:square;stroke-opacity:0.7;stroke-width:1.2;"/>
   </g>
   <g id="line2d_12">
    <path clip-path="url(#pc7ebdb9843)" d="M 411.864364 186.860681 
L 393.064435 184.516181 
L 383.250967 183.511132 
L 372.855036 182.661459 
L 360.129051 181.862849 
L 350.334646 181.452045 
L 342.865474 181.350479 
L 336.982153 181.46156 
L 331.245512 181.773534 
L 325.625424 182.311524 
L 320.138308 183.105393 
L 315.626742 184.010858 
L 311.880748 185.003539 
L 309.339351 185.880007 
L 307.841372 186.632443 
L 307.766091 186.838263 
L 308.064134 186.915389 
L 309.052474 186.886026 
L 312.795756 186.463162 
L 323.354222 185.26017 
L 331.487605 184.587364 
L 337.992356 184.255386 
L 344.970343 184.142419 
L 351.012566 184.263107 
L 358.383252 184.639982 
L 386.775011 186.377249 
L 405.93089 187.145096 
L 411.89165 187.356781 
L 411.89165 187.356781 
" style="fill:none;stroke:#000000;stroke-linecap:square;stroke-opacity:0.7;stroke-width:1.2;"/>
   </g>
   <g id="line2d_13">
    <path clip-path="url(#pc7ebdb9843)" d="M 412.029612 147.11786 
L 406.076052 144.973879 
L 397.769969 142.229846 
L 389.513764 139.739727 
L 381.36256 137.496638 
L 374.42484 135.787511 
L 368.44722 134.517098 
L 362.31609 133.472526 
L 357.498586 132.874368 
L 353.044205 132.517824 
L 348.433256 132.363054 
L 343.744905 132.443313 
L 339.327677 132.753082 
L 335.593262 133.206597 
L 332.382429 133.750167 
L 328.300679 134.671107 
L 324.370657 135.84063 
L 320.880149 137.163796 
L 318.255104 138.381193 
L 315.411192 139.986195 
L 313.653158 141.182857 
L 311.817457 142.684677 
L 310.208337 144.373467 
L 309.228522 145.813977 
L 308.773347 146.893173 
L 308.633515 147.985201 
L 308.73534 148.559168 
L 309.04847 149.201157 
L 309.837544 149.979202 
L 310.99351 150.601218 
L 312.628328 151.120582 
L 314.88946 151.530589 
L 317.933646 151.795224 
L 321.765697 151.861608 
L 326.47052 151.684698 
L 331.022487 151.317799 
L 337.472152 150.540498 
L 343.706806 149.559439 
L 354.650419 147.548723 
L 360.92496 146.495901 
L 365.591627 145.904473 
L 370.530961 145.518305 
L 375.63609 145.384975 
L 381.099215 145.494449 
L 387.965665 145.873177 
L 402.060644 146.944513 
L 412.006218 147.693224 
L 412.006218 147.693224 
" style="fill:none;stroke:#000000;stroke-linecap:square;stroke-opacity:0.7;stroke-width:1.2;"/>
   </g>
   <g id="line2d_14">
    <path clip-path="url(#pc7ebdb9843)" d="M 411.913877 107.80323 
L 368.218988 102.151995 
L 357.467534 101.04013 
L 350.089391 100.499972 
L 344.247856 100.273399 
L 338.268764 100.266254 
L 332.878887 100.478877 
L 327.725418 100.902412 
L 322.91819 101.531349 
L 319.646307 102.126224 
L 316.534771 102.866992 
L 313.380901 103.890771 
L 311.384033 104.799953 
L 310.088958 105.627722 
L 309.240599 106.442707 
L 308.833842 107.135697 
L 308.721955 107.86439 
L 308.815055 108.285127 
L 309.250206 108.972181 
L 309.797355 109.448838 
L 310.93924 110.085149 
L 312.617033 110.679419 
L 315.052619 111.227462 
L 318.072316 111.646158 
L 322.289157 111.96718 
L 327.271188 112.109401 
L 333.235151 112.05315 
L 340.077221 111.745766 
L 346.824562 111.205204 
L 354.266134 110.349598 
L 366.550139 108.602103 
L 372.891141 107.806908 
L 378.435026 107.323482 
L 384.233626 107.077128 
L 389.976354 107.071277 
L 396.690675 107.287337 
L 405.972481 107.840784 
L 411.911015 108.303579 
L 411.911015 108.303579 
" style="fill:none;stroke:#000000;stroke-linecap:square;stroke-opacity:0.7;stroke-width:1.2;"/>
   </g>
   <g id="line2d_15">
    <path clip-path="url(#pc7ebdb9843)" d="M 412.109851 67.862221 
L 403.504606 65.585294 
L 392.392551 62.874956 
L 379.981091 60.085099 
L 371.13405 58.305867 
L 364.780387 57.215705 
L 358.467559 56.3547 
L 352.896102 55.819307 
L 347.292089 55.521695 
L 342.505396 55.478173 
L 338.703582 55.596058 
L 333.872246 55.96556 
L 329.386121 56.565503 
L 325.407998 57.349428 
L 321.732491 58.337275 
L 318.598783 59.435779 
L 316.069325 60.547851 
L 314.24502 61.515002 
L 312.302809 62.75408 
L 310.994339 63.764556 
L 309.498675 65.218285 
L 308.853509 66.036391 
L 308.165914 67.279001 
L 307.916105 68.261173 
L 307.926004 68.875543 
L 308.139606 69.574981 
L 308.693526 70.322533 
L 309.507555 70.926922 
L 310.635857 71.449107 
L 312.819543 72.041995 
L 315.949173 72.475821 
L 319.899241 72.706496 
L 325.067131 72.747759 
L 332.23317 72.554177 
L 341.227721 72.076785 
L 352.451658 71.22913 
L 372.94771 69.552425 
L 381.336906 69.153743 
L 395.01494 68.787957 
L 412.085522 68.384165 
L 412.085522 68.384165 
" style="fill:none;stroke:#000000;stroke-linecap:square;stroke-opacity:0.7;stroke-width:1.2;"/>
   </g>
   <g id="line2d_16">
    <path clip-path="url(#pc7ebdb9843)" d="M 543.615755 226.140049 
L 527.662317 224.644453 
L 503.011401 222.604399 
L 485.545233 221.281247 
L 478.237801 220.961386 
L 472.217607 220.909639 
L 466.745123 221.055555 
L 460.192136 221.484685 
L 454.560651 222.095701 
L 450.584625 222.694195 
L 447.287967 223.339061 
L 443.982687 224.213021 
L 441.938939 224.988796 
L 440.752073 225.659282 
L 440.039002 226.384534 
L 439.913738 226.802909 
L 440.040521 227.223475 
L 440.355639 227.545504 
L 440.621846 227.71633 
L 442.083326 228.241971 
L 444.534853 228.660406 
L 448.011902 228.945581 
L 453.451816 229.105693 
L 460.361476 229.053093 
L 467.822562 228.764045 
L 476.061619 228.188236 
L 486.119771 227.216257 
L 496.522556 226.239512 
L 503.251152 225.823376 
L 510.333877 225.632058 
L 517.88631 225.66561 
L 528.838585 225.976543 
L 543.657208 226.590155 
L 543.657208 226.590155 
" style="fill:none;stroke:#000000;stroke-linecap:square;stroke-opacity:0.7;stroke-width:1.2;"/>
   </g>
   <g id="line2d_17">
    <path clip-path="url(#pc7ebdb9843)" d="M 543.338568 187.329793 
L 531.476064 184.522215 
L 523.226362 182.772527 
L 515.73243 181.417912 
L 508.656497 180.381648 
L 501.986648 179.629828 
L 495.025396 179.087525 
L 489.047478 178.838876 
L 483.329537 178.812343 
L 477.334232 179.025789 
L 471.580123 179.469746 
L 466.060822 180.115826 
L 460.109945 181.059794 
L 455.398883 182.005282 
L 451.167946 183.030917 
L 447.015889 184.250551 
L 444.273434 185.229095 
L 442.024229 186.223756 
L 440.781118 186.967573 
L 440.223246 187.571124 
L 440.244665 187.901162 
L 440.378771 188.041164 
L 440.902687 188.281478 
L 442.2413 188.541756 
L 444.983082 188.774628 
L 452.037276 189.05266 
L 465.681659 189.603841 
L 476.925225 190.305545 
L 490.482603 191.16155 
L 496.386471 191.33832 
L 502.220373 191.309108 
L 508.481657 191.047817 
L 516.381768 190.458696 
L 528.96845 189.236213 
L 543.361404 187.795296 
L 543.361404 187.795296 
" style="fill:none;stroke:#000000;stroke-linecap:square;stroke-opacity:0.7;stroke-width:1.2;"/>
   </g>
   <g id="line2d_18">
    <path clip-path="url(#pc7ebdb9843)" d="M 543.507878 147.425723 
L 505.391536 141.693437 
L 495.681299 140.535291 
L 487.603753 139.804844 
L 481.747998 139.46568 
L 475.475267 139.313635 
L 468.9331 139.405978 
L 463.54251 139.691524 
L 458.479809 140.16223 
L 453.779366 140.826541 
L 449.52585 141.701424 
L 446.219877 142.673001 
L 444.348685 143.416516 
L 442.392495 144.477743 
L 441.431611 145.2144 
L 440.616185 146.144679 
L 440.237743 146.990493 
L 440.194653 147.725748 
L 440.44557 148.468568 
L 440.87436 149.047626 
L 442.171625 150.02903 
L 444.002263 150.857336 
L 445.862535 151.439565 
L 448.536758 152.041146 
L 451.978884 152.571187 
L 455.504843 152.923984 
L 460.503385 153.177424 
L 464.916202 153.194517 
L 469.438245 153.020556 
L 473.763182 152.671142 
L 478.220589 152.121284 
L 483.543922 151.221276 
L 489.240919 150.012941 
L 505.809396 146.273761 
L 510.591912 145.566882 
L 514.969937 145.203434 
L 518.726312 145.118681 
L 522.689521 145.236346 
L 528.225535 145.685592 
L 534.193325 146.433241 
L 541.141339 147.524233 
L 543.528893 147.937386 
L 543.528893 147.937386 
" style="fill:none;stroke:#000000;stroke-linecap:square;stroke-opacity:0.7;stroke-width:1.2;"/>
   </g>
   <g id="line2d_19">
    <path clip-path="url(#pc7ebdb9843)" d="M 543.37478 108.128096 
L 519.260623 106.59325 
L 472.063817 104.088484 
L 464.220915 103.982326 
L 458.553152 104.101069 
L 452.746071 104.469136 
L 448.487941 104.981713 
L 445.814792 105.479563 
L 443.678153 106.058167 
L 442.661204 106.443703 
L 441.565955 107.064391 
L 441.138704 107.524854 
L 441.022871 107.919355 
L 441.195545 108.395445 
L 441.716122 108.863496 
L 442.999501 109.48641 
L 444.828568 110.054028 
L 447.276104 110.602027 
L 451.825198 111.343198 
L 458.171498 112.090489 
L 465.740723 112.731976 
L 473.251738 113.138217 
L 479.546516 113.271716 
L 485.53127 113.182984 
L 491.19896 112.881852 
L 497.164726 112.349471 
L 505.630784 111.353468 
L 517.397281 110.004347 
L 525.88674 109.303215 
L 534.483109 108.847399 
L 543.409448 108.610026 
L 543.409448 108.610026 
" style="fill:none;stroke:#000000;stroke-linecap:square;stroke-opacity:0.7;stroke-width:1.2;"/>
   </g>
   <g id="line2d_20">
    <path clip-path="url(#pc7ebdb9843)" d="M 543.498525 68.513504 
L 531.952515 66.03326 
L 522.447486 64.199952 
L 514.3398 62.832461 
L 505.327868 61.539518 
L 497.27849 60.59583 
L 489.295831 59.898372 
L 483.538455 59.584181 
L 477.127568 59.46023 
L 471.193965 59.58336 
L 466.143424 59.885365 
L 461.355597 60.358172 
L 456.524578 61.050746 
L 452.950065 61.735592 
L 449.505524 62.578259 
L 446.516844 63.51199 
L 444.613427 64.250296 
L 442.716681 65.160044 
L 441.12865 66.153938 
L 439.870955 67.292959 
L 439.303234 68.191027 
L 439.151378 68.862805 
L 439.244144 69.44109 
L 439.543162 69.957289 
L 440.270883 70.587178 
L 441.444646 71.170334 
L 443.633177 71.81619 
L 445.864362 72.231589 
L 449.997582 72.712378 
L 455.600472 73.071436 
L 462.372802 73.275533 
L 471.100312 73.312039 
L 480.240929 73.115761 
L 488.655146 72.692343 
L 496.553584 72.072091 
L 521.642861 69.8674 
L 531.42394 69.359109 
L 542.359462 69.018027 
L 543.514381 68.993562 
L 543.514381 68.993562 
" style="fill:none;stroke:#000000;stroke-linecap:square;stroke-opacity:0.7;stroke-width:1.2;"/>
   </g>
   <g id="line2d_21">
    <path clip-path="url(#pc7ebdb9843)" d="M 675.490909 225.684503 
L 670.682156 223.832055 
L 663.239739 221.208186 
L 654.635593 218.463008 
L 647.176932 216.326191 
L 641.113109 214.781529 
L 635.358769 213.512874 
L 629.377634 212.443102 
L 624.361726 211.774191 
L 619.804352 211.365546 
L 614.76667 211.146596 
L 609.407649 211.190827 
L 604.518019 211.48912 
L 599.692619 212.03956 
L 595.223443 212.79977 
L 590.863744 213.810432 
L 587.750533 214.72717 
L 583.973436 216.114662 
L 581.812386 217.081602 
L 578.878725 218.67029 
L 576.740614 220.113167 
L 574.830091 221.7316 
L 573.828672 222.791042 
L 572.673701 224.398395 
L 572.14297 225.540535 
L 571.935148 226.471927 
L 571.993853 227.30278 
L 572.304221 227.967774 
L 572.765382 228.44325 
L 573.814773 229.021715 
L 575.320422 229.464581 
L 577.256925 229.796752 
L 581.907222 230.239158 
L 593.775497 230.952877 
L 623.679114 232.643199 
L 629.896868 232.700654 
L 636.03496 232.532847 
L 642.406889 232.103703 
L 648.373524 231.474747 
L 655.112809 230.524126 
L 662.131013 229.288313 
L 669.358812 227.765435 
L 675.455921 226.274003 
L 675.455921 226.274003 
" style="fill:none;stroke:#000000;stroke-linecap:square;stroke-opacity:0.7;stroke-width:1.2;"/>
   </g>
   <g id="line2d_22">
    <path clip-path="url(#pc7ebdb9843)" d="M 675.217815 186.861498 
L 662.916612 185.036297 
L 652.035336 183.638054 
L 642.418225 182.620013 
L 633.427409 181.878771 
L 625.167958 181.392913 
L 616.950739 181.130134 
L 610.028768 181.127969 
L 603.498451 181.349491 
L 597.430097 181.767678 
L 591.115988 182.430623 
L 585.448773 183.245367 
L 580.399419 184.197396 
L 576.435698 185.185503 
L 573.993669 186.015413 
L 572.498573 186.773601 
L 571.939163 187.331567 
L 571.900916 187.642596 
L 572.107902 187.916368 
L 572.83066 188.24401 
L 573.767036 188.459083 
L 576.615703 188.819858 
L 593.110296 190.439342 
L 618.850494 193.486766 
L 623.626962 193.761596 
L 629.199913 193.834385 
L 633.627407 193.687683 
L 639.130793 193.269933 
L 644.741848 192.626367 
L 652.251039 191.530008 
L 662.51681 189.771504 
L 673.886964 187.582743 
L 675.256375 187.299725 
L 675.256375 187.299725 
" style="fill:none;stroke:#000000;stroke-linecap:square;stroke-opacity:0.7;stroke-width:1.2;"/>
   </g>
   <g id="line2d_23">
    <path clip-path="url(#pc7ebdb9843)" d="M 675.089532 147.688099 
L 666.967579 145.296412 
L 658.82259 143.116564 
L 651.485382 141.369024 
L 643.920596 139.797315 
L 636.566164 138.502228 
L 629.424498 137.487367 
L 623.098297 136.822195 
L 617.271397 136.434747 
L 611.696798 136.287818 
L 605.999001 136.381583 
L 601.121307 136.675044 
L 596.422306 137.16711 
L 592.209465 137.811631 
L 587.8352 138.728087 
L 584.814344 139.543416 
L 581.295633 140.736865 
L 578.667251 141.857092 
L 576.303623 143.107587 
L 574.574044 144.253418 
L 573.354722 145.275518 
L 572.438371 146.314541 
L 571.924257 147.291702 
L 571.823951 147.975592 
L 571.909889 148.413045 
L 572.246352 148.962836 
L 572.910415 149.484295 
L 573.953455 149.940212 
L 575.685641 150.358644 
L 577.739218 150.61685 
L 580.397776 150.760889 
L 585.171718 150.741558 
L 590.764288 150.481645 
L 599.03278 149.867656 
L 628.04923 147.506632 
L 635.780477 147.207813 
L 643.184415 147.140089 
L 651.379 147.271871 
L 664.589422 147.729459 
L 675.082652 148.160404 
L 675.082652 148.160404 
" style="fill:none;stroke:#000000;stroke-linecap:square;stroke-opacity:0.7;stroke-width:1.2;"/>
   </g>
   <g id="line2d_24">
    <path clip-path="url(#pc7ebdb9843)" d="M 674.974487 108.382607 
L 665.323618 107.278834 
L 640.155891 104.306779 
L 625.039267 102.834957 
L 613.603923 101.918841 
L 606.600492 101.558074 
L 600.618701 101.4512 
L 594.857219 101.577109 
L 589.593183 101.938552 
L 584.789161 102.534373 
L 581.026274 103.243624 
L 577.828995 104.095011 
L 575.465813 104.964681 
L 573.917997 105.738843 
L 572.586425 106.710619 
L 572.078189 107.314842 
L 571.805578 107.998456 
L 571.850479 108.58046 
L 572.056818 108.99069 
L 572.470421 109.43497 
L 573.057163 109.843487 
L 574.408038 110.456278 
L 576.353856 111.024142 
L 578.918622 111.525117 
L 582.219741 111.959039 
L 586.94121 112.350692 
L 592.662789 112.606054 
L 599.157511 112.692715 
L 606.067006 112.578739 
L 613.330114 112.215292 
L 619.81388 111.657506 
L 626.761603 110.841441 
L 640.464902 109.144964 
L 646.975377 108.618046 
L 653.039676 108.363106 
L 659.033748 108.306782 
L 666.785069 108.451004 
L 675.025356 108.789323 
L 675.025356 108.789323 
" style="fill:none;stroke:#000000;stroke-linecap:square;stroke-opacity:0.7;stroke-width:1.2;"/>
   </g>
   <g id="line2d_25">
    <path clip-path="url(#pc7ebdb9843)" d="M 675.42962 67.764192 
L 650.646648 64.392232 
L 637.603804 62.852429 
L 626.496681 61.741941 
L 618.780139 61.15226 
L 611.457224 60.824929 
L 605.717565 60.782418 
L 599.830466 60.969048 
L 595.047004 61.31067 
L 589.458387 61.953456 
L 584.764011 62.736541 
L 581.466774 63.458123 
L 578.487817 64.277909 
L 576.281264 65.034161 
L 574.036637 66.018664 
L 572.779087 66.746594 
L 571.813878 67.506144 
L 571.199434 68.301219 
L 571.043416 68.8455 
L 571.112956 69.305057 
L 571.48664 69.842152 
L 572.301229 70.390521 
L 573.930432 70.993219 
L 576.079322 71.480192 
L 579.943703 72.051716 
L 585.678081 72.650043 
L 598.700793 73.736083 
L 609.575857 74.473639 
L 617.736746 74.811127 
L 623.88473 74.860022 
L 630.497012 74.660912 
L 636.234556 74.26711 
L 642.091708 73.676098 
L 650.574475 72.563242 
L 660.109684 71.072627 
L 671.821991 69.015984 
L 675.432282 68.339938 
L 675.432282 68.339938 
" style="fill:none;stroke:#000000;stroke-linecap:square;stroke-opacity:0.7;stroke-width:1.2;"/>
   </g>
  </g>
 </g>
 <defs>
  <clipPath id="pc7ebdb9843">
   <rect height="262.08" width="694.08" x="12.96" y="12.96"/>
  </clipPath>
 </defs>
</svg>
