<?xml version="1.0" encoding="utf-8" standalone="no"?>
<!DOCTYPE svg PUBLIC "-//W3C//DTD SVG 1.1//EN"
  "http://www.w3.org/Graphics/SVG/1.1/DTD/svg11.dtd">
<!-- Created with matplotlib (https://matplotlib.org/) -->
<svg height="288pt" version="1.1" viewBox="0 0 720 288" width="720pt" xmlns="http://www.w3.org/2000/svg" xmlns:xlink="http://www.w3.org/1999/xlink">
 <metadata>
  <rdf:RDF xmlns:cc="http://creativecommons.org/ns#" xmlns:dc="http://purl.org/dc/elements/1.1/" xmlns:rdf="http://www.w3.org/1999/02/22-rdf-syntax-ns#">
   <cc:Work>
    <dc:type rdf:resource="http://purl.org/dc/dcmitype/StillImage"/>
    <dc:date>2020-11-06T20:20:49.145691</dc:date>
    <dc:format>image/svg+xml</dc:format>
    <dc:creator>
     <cc:Agent>
      <dc:title>Matplotlib v3.3.2, https://matplotlib.org/</dc:title>
     </cc:Agent>
    </dc:creator>
   </cc:Work>
  </rdf:RDF>
 </metadata>
 <defs>
  <style type="text/css">*{stroke-linecap:butt;stroke-linejoin:round;}</style>
 </defs>
 <g id="figure_1">
  <g id="patch_1">
   <path d="M 0 288 
L 720 288 
L 720 0 
L 0 0 
z
" style="fill:#ffffff;"/>
  </g>
  <g id="axes_1">
   <g id="line2d_1">
    <path clip-path="url(#p675391508d)" d="M 149.193906 228.473147 
L 136.231605 225.497803 
L 118.387961 221.575172 
L 109.681876 219.883121 
L 103.462341 218.874202 
L 97.909443 218.172554 
L 93.153723 217.752352 
L 87.541982 217.494918 
L 82.020819 217.505187 
L 77.525876 217.710525 
L 72.686263 218.135259 
L 68.153485 218.736403 
L 63.20112 219.644049 
L 58.82349 220.704563 
L 55.168844 221.825776 
L 52.041452 223.019054 
L 49.200172 224.393618 
L 47.281937 225.612682 
L 46.200333 226.542706 
L 45.570394 227.340113 
L 45.316467 227.951207 
L 45.296975 228.417956 
L 45.44423 228.821289 
L 45.942951 229.325385 
L 46.874167 229.770231 
L 48.458337 230.154857 
L 49.977579 230.358187 
L 54.047259 230.602913 
L 60.059815 230.688845 
L 85.008819 230.857858 
L 111.827459 231.374667 
L 119.27114 231.163966 
L 126.793288 230.729408 
L 136.789889 229.914037 
L 149.188043 228.746088 
L 149.188043 228.746088 
" style="fill:none;stroke:#000000;stroke-linecap:square;stroke-opacity:0.7;stroke-width:1.2;"/>
   </g>
   <g id="line2d_2">
    <path clip-path="url(#p675391508d)" d="M 148.88832 190.006824 
L 134.645109 187.718761 
L 119.787979 185.356374 
L 112.038975 184.339414 
L 105.412629 183.670322 
L 98.998589 183.229126 
L 91.805279 182.986892 
L 84.772695 182.994899 
L 77.512575 183.230965 
L 69.99405 183.71397 
L 63.741429 184.330303 
L 58.845534 184.990021 
L 55.026733 185.652487 
L 51.119613 186.529895 
L 48.28846 187.380451 
L 46.60777 188.066554 
L 45.673531 188.634306 
L 45.461493 188.932694 
L 45.593502 189.099465 
L 46.031724 189.177464 
L 47.649141 189.124127 
L 53.720287 188.767942 
L 58.798875 188.725158 
L 63.594273 188.901457 
L 68.992272 189.321341 
L 75.815471 190.110948 
L 94.456053 192.502625 
L 100.539827 192.937335 
L 106.0835 193.087645 
L 112.309288 192.994208 
L 118.905666 192.659249 
L 128.757027 191.892075 
L 148.901426 190.158882 
L 148.901426 190.158882 
" style="fill:none;stroke:#000000;stroke-linecap:square;stroke-opacity:0.7;stroke-width:1.2;"/>
   </g>
   <g id="line2d_3">
    <path clip-path="url(#p675391508d)" d="M 149.114875 149.722429 
L 141.853181 147.225878 
L 132.254919 144.155167 
L 123.73565 141.648482 
L 116.529805 139.745332 
L 110.354516 138.324995 
L 104.455761 137.196126 
L 98.841817 136.367742 
L 93.811949 135.855808 
L 89.526475 135.605358 
L 84.283359 135.545515 
L 79.936873 135.71368 
L 75.031915 136.158592 
L 70.503648 136.831712 
L 66.266769 137.715102 
L 62.892703 138.614623 
L 59.687061 139.650684 
L 56.146481 141.032031 
L 53.51263 142.252333 
L 50.767092 143.74857 
L 48.894553 144.949438 
L 47.137833 146.290827 
L 45.888137 147.50735 
L 45.17719 148.553585 
L 45.021088 149.15728 
L 45.094723 149.540837 
L 45.477601 149.963621 
L 46.23263 150.270542 
L 47.306546 150.440707 
L 49.473001 150.486425 
L 52.564585 150.30864 
L 59.774996 149.608162 
L 68.49814 148.80277 
L 74.738908 148.447214 
L 79.448299 148.372688 
L 84.401892 148.518356 
L 89.204447 148.890413 
L 95.196001 149.610511 
L 107.348694 151.197027 
L 112.114094 151.603388 
L 117.064912 151.823842 
L 123.120313 151.825414 
L 129.228917 151.585515 
L 137.577556 150.9942 
L 149.130771 149.927398 
L 149.130771 149.927398 
" style="fill:none;stroke:#000000;stroke-linecap:square;stroke-opacity:0.7;stroke-width:1.2;"/>
   </g>
   <g id="line2d_4">
    <path clip-path="url(#p675391508d)" d="M 148.936656 110.669813 
L 139.415087 109.714133 
L 129.081915 108.456889 
L 108.707124 105.881222 
L 101.586619 105.225446 
L 94.38523 104.774502 
L 86.115714 104.508748 
L 78.15573 104.471516 
L 71.127816 104.624269 
L 64.171825 105.008828 
L 59.481379 105.455225 
L 55.067134 106.076818 
L 51.42238 106.816545 
L 49.331292 107.395561 
L 47.54788 108.058286 
L 46.129731 108.863943 
L 45.585846 109.487249 
L 45.51575 109.88779 
L 45.706923 110.307099 
L 46.011724 110.59691 
L 46.680737 110.998823 
L 48.139006 111.574703 
L 51.046689 112.366236 
L 55.220537 113.207236 
L 61.226677 114.123408 
L 67.308407 114.808129 
L 73.201526 115.26883 
L 79.643568 115.547498 
L 85.492251 115.590131 
L 91.395267 115.423794 
L 97.240688 115.057353 
L 104.614866 114.357029 
L 129.905295 111.65013 
L 138.051245 111.130189 
L 145.442038 110.86949 
L 148.935728 110.821262 
L 148.935728 110.821262 
" style="fill:none;stroke:#000000;stroke-linecap:square;stroke-opacity:0.7;stroke-width:1.2;"/>
   </g>
   <g id="line2d_5">
    <path clip-path="url(#p675391508d)" d="M 149.189115 70.714867 
L 137.447403 67.186293 
L 116.826562 61.146726 
L 108.680743 59.021647 
L 102.546785 57.653549 
L 96.683821 56.598425 
L 91.966052 55.962373 
L 87.368602 55.547592 
L 82.774607 55.353867 
L 78.004012 55.406666 
L 74.371155 55.635066 
L 69.878962 56.163549 
L 66.342211 56.790057 
L 63.144068 57.534778 
L 59.898846 58.486294 
L 56.476209 59.740867 
L 53.313083 61.185793 
L 51.039588 62.448418 
L 49.371553 63.539623 
L 47.559807 64.961492 
L 46.120878 66.398964 
L 45.171677 67.698434 
L 44.723764 68.632188 
L 44.509091 69.703054 
L 44.598079 70.423322 
L 44.919176 71.106344 
L 45.271329 71.528879 
L 45.801803 71.966892 
L 47.041953 72.620712 
L 48.902343 73.202307 
L 51.254512 73.634213 
L 53.592584 73.882938 
L 57.286922 74.053943 
L 62.114997 74.005331 
L 67.450336 73.691979 
L 73.372439 73.089485 
L 79.65712 72.212475 
L 90.424647 70.411126 
L 96.442972 69.505592 
L 101.562602 68.961946 
L 106.304793 68.701133 
L 111.228752 68.668998 
L 117.024308 68.866161 
L 126.556424 69.45859 
L 149.176216 70.954421 
L 149.176216 70.954421 
" style="fill:none;stroke:#000000;stroke-linecap:square;stroke-opacity:0.7;stroke-width:1.2;"/>
   </g>
   <g id="line2d_6">
    <path clip-path="url(#p675391508d)" d="M 280.439563 229.073391 
L 268.949338 227.436638 
L 252.381643 224.812159 
L 242.966441 223.410643 
L 235.437056 222.491776 
L 229.396441 221.93571 
L 222.073048 221.505958 
L 215.043806 221.351125 
L 207.711117 221.45814 
L 202.011853 221.743576 
L 195.937635 222.279719 
L 191.417839 222.876695 
L 187.298827 223.621842 
L 183.937781 224.435811 
L 182.332456 224.922003 
L 179.924117 225.850807 
L 178.25307 226.7967 
L 177.666286 227.321772 
L 177.385195 227.772572 
L 177.381178 228.284239 
L 177.648198 228.637988 
L 178.354999 229.034271 
L 179.687835 229.401713 
L 182.550369 229.768945 
L 187.030648 230.003719 
L 195.139979 230.140433 
L 210.66691 230.140626 
L 225.709717 229.922729 
L 240.976145 229.469949 
L 258.054779 228.992191 
L 266.765485 228.962969 
L 275.440334 229.15192 
L 280.41996 229.393874 
L 280.41996 229.393874 
" style="fill:none;stroke:#000000;stroke-linecap:square;stroke-opacity:0.7;stroke-width:1.2;"/>
   </g>
   <g id="line2d_7">
    <path clip-path="url(#p675391508d)" d="M 280.606092 189.298258 
L 270.04631 188.56055 
L 259.098843 187.557473 
L 226.607093 184.291439 
L 218.421354 183.82289 
L 208.958489 183.51038 
L 202.054306 183.466845 
L 195.972083 183.620366 
L 190.931498 183.945793 
L 186.32942 184.476269 
L 182.716396 185.141402 
L 180.076639 185.87767 
L 178.428796 186.564988 
L 177.467466 187.183525 
L 176.984193 187.740787 
L 176.861237 188.193691 
L 176.97981 188.611932 
L 177.445623 189.106128 
L 177.927967 189.406782 
L 179.030026 189.872755 
L 181.117618 190.443493 
L 184.361669 191.011494 
L 188.040489 191.426699 
L 192.587233 191.733231 
L 197.890924 191.874492 
L 203.232347 191.816119 
L 209.292499 191.52965 
L 215.384224 191.03274 
L 223.305985 190.151998 
L 238.447788 188.373305 
L 244.765833 187.900773 
L 250.861299 187.7093 
L 256.870341 187.768875 
L 263.186436 188.044142 
L 271.849063 188.678016 
L 280.583655 189.559808 
L 280.583655 189.559808 
" style="fill:none;stroke:#000000;stroke-linecap:square;stroke-opacity:0.7;stroke-width:1.2;"/>
   </g>
   <g id="line2d_8">
    <path clip-path="url(#p675391508d)" d="M 280.489159 149.969703 
L 257.792242 145.871586 
L 248.812903 144.446564 
L 240.505283 143.358423 
L 234.198187 142.727179 
L 227.055006 142.25189 
L 220.050576 142.058596 
L 214.221493 142.112571 
L 207.710261 142.40362 
L 202.031772 142.857322 
L 196.286139 143.517185 
L 190.137008 144.481972 
L 185.495273 145.438113 
L 181.422813 146.518725 
L 178.545918 147.533513 
L 176.838053 148.436965 
L 176.527679 148.765008 
L 176.529506 149.044584 
L 176.891779 149.258176 
L 177.996147 149.440183 
L 180.300312 149.522357 
L 201.774214 149.609795 
L 209.364081 150.000171 
L 218.050876 150.699565 
L 232.618094 151.941154 
L 239.476539 152.259524 
L 246.39677 152.317499 
L 252.754736 152.155224 
L 261.426751 151.687968 
L 274.899697 150.673754 
L 280.520169 150.229719 
L 280.520169 150.229719 
" style="fill:none;stroke:#000000;stroke-linecap:square;stroke-opacity:0.7;stroke-width:1.2;"/>
   </g>
   <g id="line2d_9">
    <path clip-path="url(#p675391508d)" d="M 280.644884 110.164182 
L 271.430764 109.392959 
L 262.604052 108.42692 
L 253.639288 107.187545 
L 241.333278 105.203388 
L 229.69173 103.389889 
L 223.070617 102.560549 
L 217.061249 102.010839 
L 211.14244 101.691637 
L 205.525501 101.609356 
L 200.772831 101.720022 
L 195.358207 102.073055 
L 190.886062 102.585074 
L 187.401818 103.164854 
L 184.306174 103.865772 
L 181.506941 104.730607 
L 179.149144 105.768801 
L 178.065414 106.444697 
L 177.123728 107.306836 
L 176.876493 107.654224 
L 176.591053 108.568258 
L 176.743173 109.241941 
L 177.106471 109.769474 
L 177.715184 110.294954 
L 179.198352 111.08656 
L 180.868772 111.675461 
L 183.179776 112.255148 
L 186.735974 112.855285 
L 190.329822 113.227291 
L 194.215297 113.422709 
L 199.028038 113.396225 
L 202.57825 113.190431 
L 206.782249 112.740753 
L 211.38988 111.991586 
L 215.569965 111.089994 
L 221.080151 109.626655 
L 237.278808 104.994303 
L 240.399938 104.401667 
L 243.475775 104.009827 
L 247.594703 103.810537 
L 250.541252 103.890319 
L 254.482408 104.248573 
L 259.244992 104.982686 
L 264.438837 106.04844 
L 270.787183 107.601079 
L 278.013472 109.599596 
L 280.524922 110.343651 
L 280.524922 110.343651 
" style="fill:none;stroke:#000000;stroke-linecap:square;stroke-opacity:0.7;stroke-width:1.2;"/>
   </g>
   <g id="line2d_10">
    <path clip-path="url(#p675391508d)" d="M 280.62557 70.990208 
L 272.899724 68.094135 
L 263.51518 64.824426 
L 256.362355 62.536076 
L 249.332609 60.502434 
L 243.599606 59.037275 
L 237.586269 57.726195 
L 232.595036 56.841764 
L 227.164521 56.113086 
L 222.881126 55.720238 
L 218.381649 55.486498 
L 213.874513 55.442899 
L 209.242833 55.609308 
L 204.463973 56.02906 
L 199.975948 56.687461 
L 196.609952 57.378902 
L 193.559964 58.178955 
L 190.742485 59.09243 
L 187.813063 60.259642 
L 184.751848 61.786982 
L 182.866859 62.940837 
L 181.196659 64.159526 
L 180.140631 65.068437 
L 178.678115 66.632049 
L 178.359006 67.055766 
L 177.444863 68.763903 
L 177.306617 69.292826 
L 177.299348 70.201722 
L 177.509419 70.761103 
L 178.030307 71.334341 
L 178.86921 71.776066 
L 179.836814 72.039736 
L 181.642024 72.246933 
L 184.477826 72.254055 
L 188.201993 72.015441 
L 194.106047 71.395138 
L 208.882132 69.484285 
L 215.124745 68.788189 
L 220.866098 68.366622 
L 226.047204 68.237819 
L 231.243893 68.355155 
L 237.56777 68.745035 
L 260.552722 70.402179 
L 273.500218 70.984414 
L 280.602813 71.237513 
L 280.602813 71.237513 
" style="fill:none;stroke:#000000;stroke-linecap:square;stroke-opacity:0.7;stroke-width:1.2;"/>
   </g>
   <g id="line2d_11">
    <path clip-path="url(#p675391508d)" d="M 411.843315 229.193681 
L 399.954895 228.301804 
L 379.653047 226.497509 
L 367.92034 225.568451 
L 358.183918 225.011514 
L 348.493405 224.667357 
L 338.584675 224.536303 
L 330.530897 224.670119 
L 324.493898 224.980119 
L 319.236255 225.456745 
L 314.517966 226.133202 
L 311.455349 226.800031 
L 309.663595 227.388835 
L 308.796446 227.85766 
L 308.48868 228.244639 
L 308.520567 228.497801 
L 308.706146 228.705292 
L 309.198602 228.978675 
L 310.508385 229.385132 
L 313.831471 230.001669 
L 319.451991 230.725001 
L 327.599626 231.536258 
L 336.780338 232.217472 
L 344.365277 232.561705 
L 351.758133 232.654807 
L 358.561444 232.497517 
L 365.841605 232.081578 
L 375.08866 231.312264 
L 388.987982 230.162768 
L 398.202447 229.645741 
L 406.492735 229.404483 
L 411.853172 229.379444 
L 411.853172 229.379444 
" style="fill:none;stroke:#000000;stroke-linecap:square;stroke-opacity:0.7;stroke-width:1.2;"/>
   </g>
   <g id="line2d_12">
    <path clip-path="url(#p675391508d)" d="M 412.267634 189.013731 
L 405.401263 186.839599 
L 394.83763 183.745646 
L 385.004197 181.087656 
L 377.711218 179.307335 
L 371.121525 177.900937 
L 365.290439 176.869321 
L 359.459199 176.088466 
L 354.21608 175.639579 
L 350.169511 175.476322 
L 345.119577 175.51336 
L 340.304853 175.810277 
L 335.481564 176.375634 
L 330.296226 177.300143 
L 327.105092 178.045293 
L 323.112337 179.189504 
L 320.057066 180.248747 
L 317.168763 181.429655 
L 314.14488 182.914061 
L 312.326887 183.982865 
L 310.383961 185.374108 
L 309.346184 186.322107 
L 308.4225 187.537292 
L 308.155008 188.42183 
L 308.238528 188.893492 
L 308.460144 189.235903 
L 308.848489 189.547312 
L 309.579716 189.871821 
L 310.693294 190.142426 
L 312.590376 190.381105 
L 317.24953 190.625211 
L 332.264852 191.205141 
L 340.711118 191.779856 
L 351.463539 192.763247 
L 361.635744 193.668777 
L 367.466441 193.998276 
L 372.59172 194.108826 
L 377.816751 194.030096 
L 383.663314 193.712197 
L 389.865937 193.123921 
L 395.319315 192.411329 
L 401.512795 191.402933 
L 408.319951 190.077566 
L 412.252584 189.219125 
L 412.252584 189.219125 
" style="fill:none;stroke:#000000;stroke-linecap:square;stroke-opacity:0.7;stroke-width:1.2;"/>
   </g>
   <g id="line2d_13">
    <path clip-path="url(#p675391508d)" d="M 412.160383 149.891392 
L 406.877046 147.948226 
L 398.78051 145.195369 
L 391.0711 142.810281 
L 384.131197 140.887609 
L 377.438059 139.272269 
L 371.438637 138.062648 
L 365.69074 137.155037 
L 360.807968 136.605995 
L 356.09641 136.288309 
L 350.836235 136.191385 
L 345.597596 136.368114 
L 341.08612 136.738598 
L 336.805977 137.279758 
L 332.750483 137.971543 
L 329.038281 138.771437 
L 324.541672 139.985777 
L 320.520396 141.350582 
L 317.351682 142.669512 
L 314.763536 143.968062 
L 312.164234 145.582706 
L 310.441468 146.972762 
L 309.362074 148.210852 
L 309.046889 148.86943 
L 309.065919 149.425631 
L 309.298438 149.699687 
L 309.718434 149.897307 
L 310.475237 150.037618 
L 312.428964 150.072081 
L 317.337606 149.765638 
L 326.0523 149.232514 
L 332.307064 149.081266 
L 338.403362 149.182665 
L 344.22691 149.528324 
L 349.896167 150.078021 
L 361.954248 151.579759 
L 369.519227 152.365233 
L 373.811608 152.651259 
L 379.434243 152.811304 
L 385.272058 152.720094 
L 391.619877 152.362682 
L 398.81256 151.713249 
L 408.454913 150.595629 
L 412.170492 150.131018 
L 412.170492 150.131018 
" style="fill:none;stroke:#000000;stroke-linecap:square;stroke-opacity:0.7;stroke-width:1.2;"/>
   </g>
   <g id="line2d_14">
    <path clip-path="url(#p675391508d)" d="M 412.177571 110.024226 
L 400.504701 109.307786 
L 389.26861 108.383706 
L 353.177117 105.134712 
L 341.586527 104.479482 
L 334.067566 104.242563 
L 328.460761 104.24587 
L 323.661328 104.435673 
L 319.237767 104.829719 
L 315.861382 105.334832 
L 312.90633 106.000999 
L 310.387355 106.862663 
L 309.102752 107.526557 
L 308.516661 107.956487 
L 307.910071 108.736191 
L 307.847012 109.312374 
L 308.118995 109.855208 
L 308.627065 110.306902 
L 309.373527 110.729187 
L 310.991907 111.331589 
L 313.297979 111.902519 
L 316.473865 112.44696 
L 320.921618 112.967854 
L 326.738658 113.395709 
L 333.058333 113.626538 
L 339.64393 113.64426 
L 346.561284 113.430306 
L 353.665095 112.97696 
L 362.224404 112.183555 
L 379.017838 110.549495 
L 386.279425 110.113955 
L 394.167091 109.892408 
L 402.152827 109.904917 
L 409.818202 110.128409 
L 412.172091 110.244782 
L 412.172091 110.244782 
" style="fill:none;stroke:#000000;stroke-linecap:square;stroke-opacity:0.7;stroke-width:1.2;"/>
   </g>
   <g id="line2d_15">
    <path clip-path="url(#p675391508d)" d="M 412.296379 70.431413 
L 403.486863 68.487361 
L 384.961029 64.679992 
L 372.530987 62.312402 
L 363.822889 60.892852 
L 356.97682 60.025113 
L 350.981158 59.515584 
L 345.683583 59.301298 
L 341.291213 59.310226 
L 336.65679 59.515292 
L 332.313732 59.900561 
L 327.813808 60.513512 
L 323.262678 61.385775 
L 319.444968 62.356433 
L 316.49276 63.30163 
L 314.139836 64.220415 
L 311.863525 65.312314 
L 310.43568 66.154416 
L 309.009198 67.211495 
L 308.176149 68.035542 
L 307.69016 68.711722 
L 307.415994 69.385228 
L 307.413215 70.043213 
L 307.665441 70.547467 
L 308.352221 71.101107 
L 309.47039 71.546114 
L 310.987617 71.87088 
L 312.930977 72.086875 
L 315.519748 72.197018 
L 319.448308 72.147235 
L 324.678411 71.8296 
L 330.825857 71.194134 
L 336.9697 70.329388 
L 345.14255 68.919959 
L 354.418125 67.327842 
L 359.233444 66.735563 
L 363.619311 66.426654 
L 368.31301 66.35031 
L 373.471839 66.528742 
L 379.250814 66.963629 
L 387.812819 67.851937 
L 412.286785 70.609004 
L 412.286785 70.609004 
" style="fill:none;stroke:#000000;stroke-linecap:square;stroke-opacity:0.7;stroke-width:1.2;"/>
   </g>
   <g id="line2d_16">
    <path clip-path="url(#p675391508d)" d="M 543.595596 228.817506 
L 529.245184 226.118931 
L 514.087911 223.429686 
L 505.775155 222.150229 
L 498.306647 221.227241 
L 491.695438 220.652498 
L 486.153014 220.378574 
L 480.263633 220.310927 
L 474.315053 220.476168 
L 468.658783 220.845264 
L 463.186307 221.401259 
L 457.672316 222.180165 
L 452.854662 223.08279 
L 449.496226 223.878704 
L 446.181539 224.867174 
L 444.108972 225.65288 
L 442.540312 226.407595 
L 441.27629 227.243955 
L 440.632201 227.950673 
L 440.468679 228.488828 
L 440.608727 228.89021 
L 441.067531 229.267036 
L 441.869777 229.573862 
L 443.153867 229.824057 
L 446.535401 230.077045 
L 452.39935 230.174631 
L 468.860386 230.388097 
L 486.282943 230.931303 
L 497.483613 231.170112 
L 505.875984 231.100785 
L 513.795675 230.804283 
L 525.685198 230.095679 
L 542.05499 229.110997 
L 543.612038 229.041708 
L 543.612038 229.041708 
" style="fill:none;stroke:#000000;stroke-linecap:square;stroke-opacity:0.7;stroke-width:1.2;"/>
   </g>
   <g id="line2d_17">
    <path clip-path="url(#p675391508d)" d="M 543.510374 189.193344 
L 533.087554 187.859222 
L 524.586947 186.581022 
L 514.597451 184.840972 
L 492.213821 180.790202 
L 485.355053 179.852827 
L 479.61302 179.280958 
L 474.204453 178.94466 
L 468.608384 178.824884 
L 464.059665 178.921145 
L 459.578929 179.217157 
L 454.97571 179.780725 
L 451.457435 180.444147 
L 448.501175 181.215571 
L 445.731184 182.193565 
L 443.716267 183.142384 
L 441.864385 184.319382 
L 440.511515 185.560207 
L 439.646209 186.860151 
L 439.324981 187.923427 
L 439.307135 188.690425 
L 439.497131 189.521836 
L 440.123159 190.643285 
L 441.126602 191.682493 
L 442.470083 192.639881 
L 444.914182 193.866512 
L 448.042758 194.967953 
L 450.886628 195.703703 
L 454.531612 196.38749 
L 458.721433 196.881737 
L 462.227072 197.080207 
L 466.378064 197.072529 
L 469.338613 196.908253 
L 473.259726 196.48914 
L 476.633388 195.948925 
L 481.0466 195.006977 
L 486.179016 193.624641 
L 494.430314 191.025799 
L 500.954276 189.027509 
L 504.567897 188.095799 
L 508.120082 187.371347 
L 511.652589 186.872458 
L 515.44498 186.59119 
L 518.874557 186.545748 
L 522.683277 186.688751 
L 527.674523 187.108545 
L 533.700257 187.854346 
L 540.994998 188.979392 
L 543.535176 189.412185 
L 543.535176 189.412185 
" style="fill:none;stroke:#000000;stroke-linecap:square;stroke-opacity:0.7;stroke-width:1.2;"/>
   </g>
   <g id="line2d_18">
    <path clip-path="url(#p675391508d)" d="M 543.604306 149.796477 
L 533.218427 148.97953 
L 522.873868 147.947405 
L 508.032754 146.206118 
L 495.921655 144.849257 
L 487.355847 144.098076 
L 479.724153 143.656711 
L 472.476154 143.488087 
L 465.689674 143.58849 
L 459.713268 143.913675 
L 454.336815 144.432058 
L 449.226958 145.185442 
L 446.35334 145.7707 
L 443.505695 146.542676 
L 441.781675 147.186079 
L 440.675184 147.771767 
L 440.003435 148.384827 
L 439.8718 148.754751 
L 439.920303 149.000732 
L 440.220308 149.35233 
L 440.851493 149.695924 
L 441.656065 149.962068 
L 443.544998 150.342907 
L 447.339232 150.741022 
L 452.811004 150.990155 
L 460.188526 151.047264 
L 467.965744 150.891964 
L 477.488875 150.478622 
L 504.773519 149.065229 
L 513.041545 148.976525 
L 522.419492 149.098362 
L 533.908908 149.479351 
L 543.593319 149.997752 
L 543.593319 149.997752 
" style="fill:none;stroke:#000000;stroke-linecap:square;stroke-opacity:0.7;stroke-width:1.2;"/>
   </g>
   <g id="line2d_19">
    <path clip-path="url(#p675391508d)" d="M 543.41199 110.571262 
L 528.439219 108.237248 
L 511.380677 105.293365 
L 499.638695 103.369236 
L 491.259841 102.230751 
L 484.27527 101.525461 
L 478.694837 101.177441 
L 472.962803 101.064182 
L 467.498836 101.217699 
L 462.412077 101.611869 
L 457.783787 102.2017 
L 453.311146 103.011275 
L 449.493422 103.930724 
L 446.515808 104.842427 
L 444.183441 105.728964 
L 442.126417 106.71575 
L 440.786093 107.556235 
L 439.834807 108.396552 
L 439.431127 108.989518 
L 439.307285 109.448562 
L 439.372373 109.849109 
L 439.603868 110.198799 
L 439.798097 110.373037 
L 441.077824 110.972427 
L 442.81642 111.360358 
L 446.075441 111.711625 
L 449.986275 111.876494 
L 455.992616 111.87652 
L 463.797853 111.602344 
L 471.276861 111.125068 
L 483.962491 110.036466 
L 492.853896 109.371928 
L 499.658925 109.107013 
L 506.764455 109.082377 
L 515.368243 109.294797 
L 527.483976 109.824257 
L 543.478794 110.754312 
L 543.478794 110.754312 
" style="fill:none;stroke:#000000;stroke-linecap:square;stroke-opacity:0.7;stroke-width:1.2;"/>
   </g>
   <g id="line2d_20">
    <path clip-path="url(#p675391508d)" d="M 543.772779 70.503884 
L 536.109643 68.789917 
L 524.541414 66.432054 
L 513.683075 64.408589 
L 503.216152 62.688483 
L 495.754687 61.671753 
L 489.49265 61.008263 
L 483.831649 60.600453 
L 478.147424 60.41498 
L 472.491342 60.489623 
L 467.894758 60.761758 
L 463.289019 61.241052 
L 458.925944 61.903709 
L 454.281562 62.86395 
L 450.622518 63.845346 
L 447.845547 64.761892 
L 445.009492 65.913429 
L 442.511552 67.223003 
L 441.05713 68.245248 
L 440.189096 69.106274 
L 439.751699 69.886041 
L 439.717049 70.368711 
L 439.847055 70.688959 
L 440.357423 71.124121 
L 441.147376 71.423529 
L 442.839253 71.709516 
L 445.901463 71.880429 
L 453.119279 71.936598 
L 463.171724 72.083198 
L 471.067548 72.422403 
L 480.203514 73.056545 
L 495.738577 74.216289 
L 501.424618 74.436563 
L 507.812765 74.455564 
L 514.170749 74.22228 
L 519.897112 73.815396 
L 527.502443 73.039226 
L 536.053876 71.927179 
L 543.789886 70.773879 
L 543.789886 70.773879 
" style="fill:none;stroke:#000000;stroke-linecap:square;stroke-opacity:0.7;stroke-width:1.2;"/>
   </g>
   <g id="line2d_21">
    <path clip-path="url(#p675391508d)" d="M 675.157217 228.569845 
L 654.44092 225.04471 
L 638.611439 222.346318 
L 630.001606 221.140497 
L 623.041504 220.40644 
L 616.039945 219.92094 
L 609.830631 219.709958 
L 604.021521 219.706406 
L 597.978495 219.92556 
L 592.301554 220.382426 
L 587.533114 221.004424 
L 583.085417 221.840859 
L 579.850456 222.656728 
L 576.674579 223.700143 
L 574.048005 224.853333 
L 572.679269 225.648415 
L 571.367145 226.740215 
L 570.889972 227.528641 
L 570.87513 228.086803 
L 571.186386 228.575321 
L 571.721235 228.939369 
L 572.69881 229.306238 
L 574.06793 229.60036 
L 576.998854 229.916763 
L 582.090939 230.105537 
L 591.91407 230.115915 
L 611.782973 230.093442 
L 640.744304 230.303812 
L 650.661478 229.965295 
L 675.162409 228.818308 
L 675.162409 228.818308 
" style="fill:none;stroke:#000000;stroke-linecap:square;stroke-opacity:0.7;stroke-width:1.2;"/>
   </g>
   <g id="line2d_22">
    <path clip-path="url(#p675391508d)" d="M 675.490909 188.218338 
L 662.638875 187.179336 
L 652.959417 186.183331 
L 641.235345 184.724154 
L 615.704914 181.39691 
L 607.820139 180.632465 
L 601.663344 180.231459 
L 596.164713 180.079114 
L 591.627956 180.143223 
L 587.565995 180.384074 
L 583.472567 180.850062 
L 579.98465 181.481329 
L 576.934503 182.28341 
L 574.340791 183.249718 
L 572.627774 184.134201 
L 571.183147 185.195998 
L 570.439207 186.032616 
L 570.107793 186.623014 
L 569.912543 187.657135 
L 570.114526 188.446282 
L 570.551777 189.110994 
L 571.166669 189.691328 
L 572.237911 190.378646 
L 574.171121 191.20063 
L 576.670756 191.901779 
L 579.633013 192.458719 
L 582.789103 192.854178 
L 587.42293 193.192152 
L 592.726525 193.329408 
L 598.59999 193.247862 
L 605.083392 192.929125 
L 611.121185 192.457157 
L 621.623109 191.381212 
L 634.155959 190.119435 
L 641.654729 189.566825 
L 650.69524 189.117289 
L 663.125746 188.75345 
L 675.464973 188.533885 
L 675.464973 188.533885 
" style="fill:none;stroke:#000000;stroke-linecap:square;stroke-opacity:0.7;stroke-width:1.2;"/>
   </g>
   <g id="line2d_23">
    <path clip-path="url(#p675391508d)" d="M 675.262216 149.665918 
L 667.05503 147.321863 
L 653.866118 143.790508 
L 643.265487 141.160547 
L 636.020649 139.554195 
L 630.114451 138.429665 
L 624.857213 137.618308 
L 620.258418 137.085973 
L 615.224145 136.716217 
L 610.422678 136.583531 
L 605.913484 136.660055 
L 601.001073 136.970751 
L 596.232436 137.510263 
L 592.022313 138.199461 
L 588.31202 138.995645 
L 585.279317 139.80158 
L 582.172736 140.805521 
L 578.889408 142.127115 
L 576.232292 143.487464 
L 574.297565 144.754358 
L 572.791565 146.061648 
L 571.998042 147.022025 
L 571.44171 148.127476 
L 571.324588 148.91259 
L 571.466609 149.583555 
L 571.888767 150.21351 
L 572.625445 150.770806 
L 573.422234 151.139834 
L 575.016835 151.588446 
L 577.761516 151.971247 
L 581.384938 152.149171 
L 585.891411 152.121828 
L 592.546466 151.817496 
L 601.733358 151.133008 
L 615.954335 150.042122 
L 622.21355 149.786553 
L 629.119136 149.742599 
L 641.580263 149.984905 
L 653.614794 150.118845 
L 666.000061 150.038018 
L 675.262542 149.880761 
L 675.262542 149.880761 
" style="fill:none;stroke:#000000;stroke-linecap:square;stroke-opacity:0.7;stroke-width:1.2;"/>
   </g>
   <g id="line2d_24">
    <path clip-path="url(#p675391508d)" d="M 674.933603 110.614614 
L 663.426265 108.840378 
L 653.855727 107.111996 
L 627.067291 101.992766 
L 620.904099 101.135126 
L 614.945103 100.528558 
L 609.747686 100.200629 
L 604.91474 100.075421 
L 599.257545 100.163039 
L 594.601008 100.442447 
L 589.576272 100.987028 
L 585.056003 101.742829 
L 581.816424 102.487555 
L 578.481109 103.503336 
L 576.490577 104.284844 
L 574.300078 105.392419 
L 572.628018 106.56858 
L 571.53056 107.762571 
L 571.06653 108.744516 
L 571.003493 109.590175 
L 571.130608 110.094545 
L 571.451741 110.677099 
L 572.168015 111.410626 
L 572.547581 111.68937 
L 574.236359 112.570005 
L 575.830611 113.138964 
L 578.079553 113.735698 
L 581.45018 114.386634 
L 585.286199 114.924948 
L 590.715425 115.456078 
L 596.73251 115.808641 
L 602.924061 115.946293 
L 608.950795 115.871476 
L 615.089255 115.589642 
L 622.626184 114.984499 
L 631.505125 114.012466 
L 647.212474 112.244422 
L 655.78011 111.519192 
L 664.433451 111.022778 
L 672.441066 110.781476 
L 674.964757 110.752159 
L 674.964757 110.752159 
" style="fill:none;stroke:#000000;stroke-linecap:square;stroke-opacity:0.7;stroke-width:1.2;"/>
   </g>
   <g id="line2d_25">
    <path clip-path="url(#p675391508d)" d="M 675.177095 70.759457 
L 654.765055 67.168351 
L 635.290656 63.711731 
L 627.733648 62.62291 
L 621.707136 61.980181 
L 616.637093 61.641306 
L 611.764737 61.507977 
L 606.701135 61.567456 
L 600.718745 61.878925 
L 595.620462 62.337355 
L 590.029249 63.051069 
L 584.815797 63.957617 
L 580.725216 64.902135 
L 577.872236 65.754978 
L 575.442234 66.701968 
L 573.742783 67.600665 
L 572.685044 68.39717 
L 572.149357 69.030662 
L 571.979752 69.393936 
L 571.993391 70.037307 
L 572.209206 70.36361 
L 572.354641 70.497999 
L 573.579022 71.078914 
L 574.949092 71.386949 
L 577.197938 71.65049 
L 579.527519 71.77861 
L 583.932306 71.826517 
L 590.417646 71.663081 
L 601.543604 71.104158 
L 613.951695 70.4979 
L 621.45119 70.35162 
L 628.910316 70.42176 
L 659.955546 71.010487 
L 675.206556 70.975575 
L 675.206556 70.975575 
" style="fill:none;stroke:#000000;stroke-linecap:square;stroke-opacity:0.7;stroke-width:1.2;"/>
   </g>
  </g>
 </g>
 <defs>
  <clipPath id="p675391508d">
   <rect height="262.08" width="694.08" x="12.96" y="12.96"/>
  </clipPath>
 </defs>
</svg>
