<?xml version="1.0" encoding="utf-8" standalone="no"?>
<!DOCTYPE svg PUBLIC "-//W3C//DTD SVG 1.1//EN"
  "http://www.w3.org/Graphics/SVG/1.1/DTD/svg11.dtd">
<!-- Created with matplotlib (https://matplotlib.org/) -->
<svg height="288pt" version="1.1" viewBox="0 0 720 288" width="720pt" xmlns="http://www.w3.org/2000/svg" xmlns:xlink="http://www.w3.org/1999/xlink">
 <metadata>
  <rdf:RDF xmlns:cc="http://creativecommons.org/ns#" xmlns:dc="http://purl.org/dc/elements/1.1/" xmlns:rdf="http://www.w3.org/1999/02/22-rdf-syntax-ns#">
   <cc:Work>
    <dc:type rdf:resource="http://purl.org/dc/dcmitype/StillImage"/>
    <dc:date>2020-11-06T20:05:30.416133</dc:date>
    <dc:format>image/svg+xml</dc:format>
    <dc:creator>
     <cc:Agent>
      <dc:title>Matplotlib v3.3.2, https://matplotlib.org/</dc:title>
     </cc:Agent>
    </dc:creator>
   </cc:Work>
  </rdf:RDF>
 </metadata>
 <defs>
  <style type="text/css">*{stroke-linecap:butt;stroke-linejoin:round;}</style>
 </defs>
 <g id="figure_1">
  <g id="patch_1">
   <path d="M 0 288 
L 720 288 
L 720 0 
L 0 0 
z
" style="fill:#ffffff;"/>
  </g>
  <g id="axes_1">
   <g id="line2d_1">
    <path clip-path="url(#p32357db3bd)" d="M 149.69006 226.371102 
L 126.611606 225.40834 
L 115.465443 224.670975 
L 84.084485 222.431383 
L 75.214289 222.069019 
L 69.005022 222.037052 
L 64.065037 222.222072 
L 59.141161 222.660259 
L 54.688733 223.345559 
L 51.60739 224.038345 
L 48.766811 224.910459 
L 46.688012 225.79016 
L 45.315739 226.6328 
L 44.715731 227.241746 
L 44.520261 227.681875 
L 44.548917 228.086975 
L 45.049541 228.702767 
L 45.745816 229.115849 
L 47.967845 229.892653 
L 50.945967 230.553843 
L 55.535165 231.246628 
L 61.066442 231.761602 
L 66.146261 231.965843 
L 70.132853 231.939196 
L 74.678218 231.694695 
L 79.175826 231.218441 
L 83.928779 230.462379 
L 88.864586 229.423627 
L 94.031683 228.113684 
L 111.863396 223.276109 
L 115.188153 222.605269 
L 119.206284 222.011353 
L 122.411356 221.739635 
L 125.936257 221.667367 
L 129.61947 221.846148 
L 132.932308 222.213291 
L 137.713262 223.037429 
L 142.731138 224.197875 
L 147.674586 225.557656 
L 149.665489 226.149607 
L 149.665489 226.149607 
" style="fill:none;stroke:#000000;stroke-linecap:square;stroke-opacity:0.7;stroke-width:1.2;"/>
   </g>
   <g id="line2d_2">
    <path clip-path="url(#p32357db3bd)" d="M 150.028379 187.587181 
L 142.159892 184.369342 
L 135.63875 181.899063 
L 129.167365 179.67045 
L 122.979564 177.755086 
L 116.790917 176.049104 
L 109.858464 174.392649 
L 103.677365 173.158671 
L 98.716447 172.350961 
L 92.782987 171.623466 
L 88.108532 171.253914 
L 82.34747 171.075231 
L 77.42033 171.19349 
L 72.680239 171.574014 
L 68.877216 172.093819 
L 65.200905 172.80497 
L 61.695821 173.706442 
L 58.582271 174.727516 
L 55.262196 176.105742 
L 52.293174 177.684029 
L 50.4872 178.878035 
L 48.787108 180.259016 
L 48.205786 180.818495 
L 46.616331 182.78925 
L 46.228343 183.469067 
L 45.674239 184.911993 
L 45.538055 185.619452 
L 45.514965 186.779201 
L 45.854866 188.210229 
L 46.472875 189.371383 
L 47.2824 190.347239 
L 48.562881 191.409781 
L 50.117895 192.305336 
L 52.237276 193.133044 
L 54.168566 193.632138 
L 56.974679 194.062358 
L 59.401976 194.229641 
L 63.089721 194.222773 
L 67.043891 193.961536 
L 72.208451 193.345501 
L 78.683792 192.291265 
L 95.847741 189.291989 
L 102.32063 188.528136 
L 107.592126 188.120672 
L 114.046144 187.840037 
L 122.522868 187.709759 
L 149.988807 187.516875 
L 149.988807 187.516875 
" style="fill:none;stroke:#000000;stroke-linecap:square;stroke-opacity:0.7;stroke-width:1.2;"/>
   </g>
   <g id="line2d_3">
    <path clip-path="url(#p32357db3bd)" d="M 149.797739 149.192561 
L 137.454374 144.901725 
L 129.710082 142.431839 
L 122.905175 140.512972 
L 117.100908 139.111805 
L 111.083406 137.918497 
L 106.426141 137.187793 
L 101.585229 136.611124 
L 96.435826 136.202618 
L 91.864659 136.016555 
L 86.856936 136.006216 
L 81.764157 136.21352 
L 77.256736 136.595804 
L 72.772015 137.181087 
L 67.97607 138.059799 
L 63.581611 139.124242 
L 60.494852 140.040647 
L 56.72525 141.380621 
L 53.45252 142.786074 
L 50.611549 144.257547 
L 48.789725 145.392135 
L 46.695063 147.08741 
L 46.057529 147.830496 
L 45.686872 148.462148 
L 45.507632 149.283068 
L 45.628257 149.801215 
L 45.981717 150.298884 
L 46.874885 150.899946 
L 48.821691 151.512699 
L 50.849606 151.806149 
L 53.689631 151.942518 
L 57.386564 151.838772 
L 61.598134 151.470394 
L 66.646348 150.792112 
L 73.142002 149.685103 
L 85.565816 147.508381 
L 89.694777 146.983072 
L 94.034836 146.627598 
L 99.216974 146.488486 
L 104.576445 146.63233 
L 111.525972 147.108411 
L 131.704917 148.723938 
L 139.904865 149.077619 
L 146.494383 149.167967 
L 149.833421 149.126272 
L 149.833421 149.126272 
" style="fill:none;stroke:#000000;stroke-linecap:square;stroke-opacity:0.7;stroke-width:1.2;"/>
   </g>
   <g id="line2d_4">
    <path clip-path="url(#p32357db3bd)" d="M 149.931298 108.127575 
L 142.214833 107.338931 
L 130.131628 106.339215 
L 111.23112 105.046517 
L 90.87938 103.5987 
L 80.939213 102.958919 
L 74.438496 102.751088 
L 68.735792 102.795473 
L 64.249742 103.022901 
L 59.330961 103.518186 
L 55.878594 104.061707 
L 52.740682 104.744064 
L 49.888533 105.588927 
L 48.096333 106.296339 
L 46.36532 107.247861 
L 45.577511 107.931385 
L 45.22794 108.532667 
L 45.218347 109.001297 
L 45.543612 109.520606 
L 46.300428 110.022948 
L 47.542971 110.486378 
L 49.240462 110.885375 
L 52.575319 111.359917 
L 56.913303 111.70471 
L 63.109346 111.953448 
L 72.284419 112.063529 
L 80.70814 111.976292 
L 89.922602 111.664757 
L 98.060572 111.179572 
L 109.170176 110.245785 
L 124.595162 108.899506 
L 132.65473 108.430747 
L 140.85005 108.189809 
L 149.918777 108.157373 
L 149.918777 108.157373 
" style="fill:none;stroke:#000000;stroke-linecap:square;stroke-opacity:0.7;stroke-width:1.2;"/>
   </g>
   <g id="line2d_5">
    <path clip-path="url(#p32357db3bd)" d="M 149.805392 69.559598 
L 138.929335 68.913298 
L 127.51911 67.995573 
L 91.286308 64.814084 
L 84.048784 64.471911 
L 77.245333 64.389238 
L 71.208663 64.558234 
L 66.173049 64.895643 
L 60.99153 65.450322 
L 57.354148 65.983741 
L 52.41752 66.949823 
L 49.138524 67.821042 
L 46.65329 68.735125 
L 45.387163 69.47566 
L 45.006737 69.974192 
L 45.061886 70.350413 
L 45.274853 70.568168 
L 45.785304 70.835754 
L 46.850507 71.137968 
L 48.871735 71.436975 
L 52.388222 71.661031 
L 56.369045 71.716668 
L 62.963438 71.574128 
L 71.437999 71.14781 
L 87.439055 70.053143 
L 105.028832 68.939288 
L 115.472251 68.460513 
L 123.604737 68.291575 
L 131.566773 68.363878 
L 139.721106 68.675179 
L 148.971807 69.266284 
L 149.840498 69.333484 
L 149.840498 69.333484 
" style="fill:none;stroke:#000000;stroke-linecap:square;stroke-opacity:0.7;stroke-width:1.2;"/>
   </g>
   <g id="line2d_6">
    <path clip-path="url(#p32357db3bd)" d="M 281.041031 227.588642 
L 272.280973 224.30436 
L 264.620566 221.649061 
L 258.125593 219.618921 
L 251.362963 217.748334 
L 245.759479 216.39792 
L 240.110393 215.233202 
L 234.266773 214.255364 
L 228.133698 213.502562 
L 223.20027 213.118565 
L 218.592648 212.952182 
L 214.322681 212.975528 
L 209.082789 213.256734 
L 204.638884 213.733813 
L 200.857598 214.330182 
L 197.102133 215.114693 
L 193.155557 216.17196 
L 189.822123 217.280297 
L 186.604665 218.576482 
L 183.619879 220.036643 
L 180.994407 221.623198 
L 179.385499 222.832649 
L 177.823585 224.387225 
L 177.068502 225.545798 
L 176.795036 226.298387 
L 176.739613 227.236459 
L 176.990329 228.016058 
L 177.40527 228.598728 
L 178.359644 229.359468 
L 179.969244 230.074078 
L 181.760311 230.52475 
L 184.200406 230.842035 
L 186.502357 230.953354 
L 190.712628 230.879584 
L 195.894941 230.520502 
L 218.271935 228.666469 
L 224.328187 228.525894 
L 230.849269 228.611458 
L 241.489011 229.038319 
L 251.189914 229.327863 
L 257.823594 229.313162 
L 264.933199 229.064754 
L 271.999662 228.584452 
L 278.978859 227.886536 
L 281.003815 227.637338 
L 281.003815 227.637338 
" style="fill:none;stroke:#000000;stroke-linecap:square;stroke-opacity:0.7;stroke-width:1.2;"/>
   </g>
   <g id="line2d_7">
    <path clip-path="url(#p32357db3bd)" d="M 280.898679 188.11463 
L 248.788207 183.37903 
L 239.313724 182.153093 
L 230.118215 181.200069 
L 222.779839 180.666112 
L 215.410842 180.373898 
L 209.451029 180.34638 
L 203.139226 180.558579 
L 197.457041 181.004814 
L 192.814042 181.590863 
L 188.755722 182.311094 
L 185.484493 183.080146 
L 182.357987 184.047037 
L 179.847709 185.112136 
L 178.564247 185.874595 
L 177.643439 186.699201 
L 177.494685 186.900269 
L 177.238268 187.496003 
L 177.290653 188.13274 
L 177.542357 188.570765 
L 177.98237 189.003241 
L 178.959425 189.608075 
L 180.701403 190.300297 
L 182.506178 190.803139 
L 186.253085 191.518325 
L 189.558241 191.934484 
L 195.463112 192.362764 
L 201.393359 192.492487 
L 206.950333 192.390648 
L 213.437073 192.029091 
L 219.064382 191.52196 
L 226.106647 190.665406 
L 235.458639 189.259962 
L 247.059544 187.510221 
L 253.407298 186.816752 
L 258.499707 186.504508 
L 263.631588 186.44267 
L 268.10329 186.593315 
L 273.028275 186.962126 
L 278.75559 187.635192 
L 280.891419 187.952238 
L 280.891419 187.952238 
" style="fill:none;stroke:#000000;stroke-linecap:square;stroke-opacity:0.7;stroke-width:1.2;"/>
   </g>
   <g id="line2d_8">
    <path clip-path="url(#p32357db3bd)" d="M 281.129851 149.159034 
L 273.110312 146.793055 
L 265.137496 144.654482 
L 258.114507 142.973717 
L 250.904307 141.481595 
L 243.889729 140.293764 
L 237.82891 139.504545 
L 231.51479 138.937001 
L 225.442732 138.64832 
L 220.225201 138.607082 
L 215.634329 138.732967 
L 209.514492 139.147616 
L 204.030415 139.77742 
L 199.187187 140.560013 
L 194.238453 141.612144 
L 189.817053 142.812008 
L 186.707377 143.842892 
L 183.523036 145.123453 
L 180.580371 146.659688 
L 178.90407 147.937799 
L 178.3879 148.574176 
L 178.147281 149.178649 
L 178.213168 149.769994 
L 178.469442 150.158268 
L 179.017361 150.583566 
L 179.302752 150.735337 
L 181.418024 151.374407 
L 183.847513 151.684256 
L 186.586001 151.793798 
L 190.978514 151.673308 
L 195.321436 151.33942 
L 203.315456 150.461915 
L 213.78246 149.316464 
L 219.243266 148.89602 
L 226.007377 148.62033 
L 232.23687 148.589635 
L 242.459362 148.819278 
L 258.137055 149.187753 
L 269.470184 149.197593 
L 281.159001 149.014021 
L 281.159001 149.014021 
" style="fill:none;stroke:#000000;stroke-linecap:square;stroke-opacity:0.7;stroke-width:1.2;"/>
   </g>
   <g id="line2d_9">
    <path clip-path="url(#p32357db3bd)" d="M 280.960335 109.458091 
L 272.243525 107.65941 
L 262.147996 105.798885 
L 253.103577 104.344908 
L 242.766115 102.919238 
L 231.623259 101.64324 
L 222.334429 100.820338 
L 215.187213 100.414012 
L 209.012878 100.303101 
L 204.163886 100.42675 
L 199.429652 100.772032 
L 194.706303 101.383833 
L 191.089763 102.067403 
L 187.882856 102.860278 
L 184.524199 103.923718 
L 181.329223 105.240834 
L 179.5568 106.175384 
L 177.707578 107.471702 
L 176.8086 108.427553 
L 176.365085 109.312612 
L 176.299245 109.82917 
L 176.451696 110.499252 
L 176.88919 111.150791 
L 177.968841 112.004887 
L 179.937646 112.926569 
L 182.747916 113.768586 
L 185.953317 114.418435 
L 189.560325 114.921731 
L 194.702922 115.366204 
L 200.533529 115.593464 
L 206.237705 115.594348 
L 212.247331 115.389569 
L 219.025356 114.915401 
L 224.950968 114.287035 
L 231.341798 113.398761 
L 254.264376 109.896775 
L 259.261471 109.431586 
L 265.195044 109.108924 
L 271.130602 109.03117 
L 277.88363 109.203492 
L 280.970863 109.354784 
L 280.970863 109.354784 
" style="fill:none;stroke:#000000;stroke-linecap:square;stroke-opacity:0.7;stroke-width:1.2;"/>
   </g>
   <g id="line2d_10">
    <path clip-path="url(#p32357db3bd)" d="M 280.860109 69.530135 
L 263.78239 67.832497 
L 249.200603 66.591571 
L 236.752778 65.746793 
L 222.920406 65.042101 
L 212.471871 64.70695 
L 206.065345 64.701646 
L 200.38305 64.919371 
L 195.916778 65.281547 
L 190.906581 65.927907 
L 186.918364 66.654827 
L 183.306135 67.508444 
L 179.712272 68.599264 
L 177.125944 69.657765 
L 176.355918 70.183365 
L 176.293419 70.360056 
L 176.452596 70.513606 
L 177.031785 70.64019 
L 178.909979 70.700886 
L 192.160029 70.629308 
L 199.436561 70.955177 
L 226.562532 72.499779 
L 232.932179 72.518431 
L 239.291777 72.333076 
L 247.437591 71.85594 
L 280.923231 69.493267 
L 280.923231 69.493267 
" style="fill:none;stroke:#000000;stroke-linecap:square;stroke-opacity:0.7;stroke-width:1.2;"/>
   </g>
   <g id="line2d_11">
    <path clip-path="url(#p32357db3bd)" d="M 412.433184 227.68936 
L 405.856462 225.695639 
L 398.8961 223.793896 
L 391.390146 221.961032 
L 384.021546 220.383446 
L 376.743477 219.061052 
L 370.051585 218.078272 
L 363.884898 217.391699 
L 357.592778 216.923951 
L 351.43112 216.707683 
L 346.301854 216.72333 
L 340.921269 216.948876 
L 336.130414 217.348766 
L 330.639689 218.065556 
L 326.472315 218.817811 
L 322.211854 219.802768 
L 318.253146 220.95477 
L 315.210236 222.041233 
L 313.109135 222.932189 
L 311.068575 223.96353 
L 308.909235 225.39922 
L 308.25098 226.00572 
L 307.617924 226.857337 
L 307.393275 227.545301 
L 307.453662 228.1709 
L 307.675241 228.612518 
L 308.391307 229.308809 
L 309.073568 229.719643 
L 310.8552 230.421699 
L 313.434059 231.038828 
L 317.460694 231.583527 
L 321.294765 231.849812 
L 327.299135 232.003791 
L 338.031782 231.96577 
L 354.482787 231.930941 
L 366.681018 231.880461 
L 375.179746 231.602057 
L 383.14926 231.096339 
L 392.648127 230.22541 
L 402.997427 229.035057 
L 412.402776 227.752483 
L 412.402776 227.752483 
" style="fill:none;stroke:#000000;stroke-linecap:square;stroke-opacity:0.7;stroke-width:1.2;"/>
   </g>
   <g id="line2d_12">
    <path clip-path="url(#p32357db3bd)" d="M 412.408977 187.81195 
L 374.439635 184.605943 
L 362.217177 183.933386 
L 350.039765 183.490844 
L 341.963301 183.400895 
L 335.941268 183.53023 
L 330.143357 183.880325 
L 325.690192 184.33764 
L 320.514017 185.12435 
L 316.813868 185.899001 
L 313.253008 186.876537 
L 310.876025 187.733703 
L 309.410492 188.468865 
L 308.998536 188.900503 
L 309.10639 189.077959 
L 309.606591 189.21068 
L 310.905332 189.264314 
L 314.623379 189.125715 
L 345.114999 187.378276 
L 360.513244 186.572994 
L 370.818804 186.256545 
L 381.087577 186.171957 
L 390.4782 186.341704 
L 399.292868 186.73044 
L 410.376135 187.460646 
L 412.507856 187.616077 
L 412.507856 187.616077 
" style="fill:none;stroke:#000000;stroke-linecap:square;stroke-opacity:0.7;stroke-width:1.2;"/>
   </g>
   <g id="line2d_13">
    <path clip-path="url(#p32357db3bd)" d="M 412.271534 148.959173 
L 404.683913 146.216512 
L 397.958638 143.997287 
L 392.220618 142.3017 
L 385.773772 140.638874 
L 379.308418 139.235762 
L 373.347274 138.175978 
L 367.647774 137.373052 
L 361.720978 136.761566 
L 355.825718 136.391887 
L 350.653225 136.281549 
L 345.924304 136.37771 
L 341.528082 136.660391 
L 336.652355 137.227186 
L 332.127338 138.031957 
L 327.766313 139.105183 
L 324.530829 140.119077 
L 321.011362 141.464048 
L 318.40991 142.643818 
L 314.891848 144.540927 
L 312.293663 146.235416 
L 310.483819 147.665317 
L 309.310351 148.891627 
L 308.897324 149.667033 
L 308.888339 150.108018 
L 309.113727 150.46732 
L 309.483106 150.709074 
L 310.666644 151.03472 
L 312.690533 151.191274 
L 315.118778 151.164277 
L 319.823492 150.869792 
L 332.900175 149.900703 
L 338.025644 149.766322 
L 343.017733 149.862621 
L 347.991735 150.20216 
L 352.212021 150.668723 
L 359.114332 151.683885 
L 370.571096 153.448223 
L 375.459528 153.991686 
L 380.640751 154.32012 
L 385.54969 154.349083 
L 390.077204 154.107512 
L 393.811858 153.706016 
L 398.287894 152.980411 
L 402.880315 151.958594 
L 406.620662 150.91815 
L 409.876285 149.857452 
L 412.280998 148.977426 
L 412.280998 148.977426 
" style="fill:none;stroke:#000000;stroke-linecap:square;stroke-opacity:0.7;stroke-width:1.2;"/>
   </g>
   <g id="line2d_14">
    <path clip-path="url(#p32357db3bd)" d="M 411.964481 109.405375 
L 404.502339 106.728741 
L 396.875597 104.226775 
L 389.344565 102.025762 
L 382.491775 100.273028 
L 376.039706 98.847576 
L 369.969354 97.714342 
L 363.657101 96.767323 
L 358.182614 96.159823 
L 353.208236 95.805418 
L 348.591792 95.671358 
L 343.676425 95.769357 
L 339.220299 96.108074 
L 334.653534 96.740256 
L 331.122006 97.452187 
L 327.723331 98.340713 
L 324.594979 99.350978 
L 320.898866 100.806741 
L 317.962194 102.191552 
L 314.807865 103.949871 
L 312.085388 105.776635 
L 310.139494 107.397664 
L 308.992291 108.674634 
L 308.481519 109.535886 
L 308.262802 110.441398 
L 308.318035 110.909541 
L 308.624521 111.531734 
L 308.882878 111.824821 
L 309.916206 112.533854 
L 311.166189 113.04 
L 313.332058 113.569401 
L 315.216702 113.840659 
L 317.719766 114.03314 
L 321.666408 114.068546 
L 325.837748 113.843537 
L 330.40721 113.35319 
L 334.113636 112.797165 
L 339.446415 111.787689 
L 346.448062 110.187456 
L 355.794868 107.967687 
L 359.964446 107.146065 
L 364.099085 106.532573 
L 367.51399 106.202315 
L 371.458565 106.021706 
L 376.225714 106.061752 
L 381.304601 106.347548 
L 388.423951 107.003109 
L 406.693279 108.843123 
L 411.959408 109.186149 
L 411.959408 109.186149 
" style="fill:none;stroke:#000000;stroke-linecap:square;stroke-opacity:0.7;stroke-width:1.2;"/>
   </g>
   <g id="line2d_15">
    <path clip-path="url(#p32357db3bd)" d="M 412.472142 69.211321 
L 389.72451 67.719261 
L 356.555397 65.551565 
L 341.12483 64.415619 
L 336.275657 64.235338 
L 331.230246 64.241778 
L 327.249057 64.425798 
L 323.030548 64.831405 
L 320.147711 65.256884 
L 316.768785 65.942613 
L 313.536005 66.843543 
L 311.274183 67.686409 
L 309.3679 68.679024 
L 308.6427 69.299184 
L 308.442713 69.73436 
L 308.493211 69.974341 
L 308.760611 70.252104 
L 309.208114 70.475342 
L 310.606991 70.829521 
L 313.614452 71.197551 
L 319.290801 71.602121 
L 336.461944 72.548477 
L 345.597691 72.825058 
L 351.627403 72.837198 
L 359.100985 72.607915 
L 366.224654 72.125869 
L 375.752639 71.196331 
L 387.881585 70.005532 
L 395.074987 69.51258 
L 402.124878 69.240145 
L 410.448376 69.153597 
L 412.522029 69.158563 
L 412.522029 69.158563 
" style="fill:none;stroke:#000000;stroke-linecap:square;stroke-opacity:0.7;stroke-width:1.2;"/>
   </g>
   <g id="line2d_16">
    <path clip-path="url(#p32357db3bd)" d="M 543.75242 226.259403 
L 532.565382 225.437915 
L 513.208592 223.9927 
L 487.559682 221.993729 
L 478.195358 221.507366 
L 471.112484 221.356325 
L 464.907512 221.473164 
L 459.723391 221.818694 
L 455.982217 222.245031 
L 451.425895 223.010981 
L 448.10781 223.778774 
L 445.0174 224.700959 
L 442.229679 225.779454 
L 440.590664 226.605634 
L 439.353453 227.479275 
L 438.913798 228.010687 
L 438.784398 228.473105 
L 438.978388 228.971514 
L 439.487101 229.403536 
L 440.149198 229.745012 
L 441.980934 230.35248 
L 444.483526 230.899696 
L 447.977703 231.431789 
L 452.354827 231.879666 
L 457.786189 232.196573 
L 463.306117 232.299622 
L 470.026103 232.174032 
L 476.785973 231.808342 
L 484.251641 231.158219 
L 492.441421 230.192027 
L 516.483737 227.080428 
L 523.23892 226.548014 
L 529.764846 226.252039 
L 537.813466 226.131843 
L 543.742724 226.15501 
L 543.742724 226.15501 
" style="fill:none;stroke:#000000;stroke-linecap:square;stroke-opacity:0.7;stroke-width:1.2;"/>
   </g>
   <g id="line2d_17">
    <path clip-path="url(#p32357db3bd)" d="M 543.615228 188.435606 
L 535.732279 186.325199 
L 527.878855 184.416293 
L 518.790448 182.425926 
L 509.493655 180.615192 
L 501.486617 179.244351 
L 494.047737 178.159011 
L 487.084355 177.35627 
L 481.04869 176.879734 
L 475.377989 176.671805 
L 471.170276 176.70304 
L 466.388361 176.969456 
L 461.785159 177.499811 
L 458.657927 178.038692 
L 455.355192 178.789333 
L 452.151234 179.724551 
L 448.715164 181.004535 
L 446.384536 182.083977 
L 443.58858 183.717062 
L 442.685034 184.370135 
L 441.246952 185.658957 
L 440.278328 186.963592 
L 439.897466 188.009709 
L 439.922937 189.029948 
L 440.180534 189.681516 
L 440.748832 190.424283 
L 441.857854 191.282969 
L 443.67192 192.158943 
L 445.900623 192.863388 
L 448.230746 193.369551 
L 451.579043 193.847528 
L 455.869156 194.18124 
L 461.059502 194.305464 
L 466.57213 194.200541 
L 472.879617 193.855764 
L 479.655368 193.271825 
L 488.21708 192.278656 
L 501.118315 190.47671 
L 511.200585 189.178687 
L 517.45995 188.574848 
L 524.214857 188.161431 
L 530.826115 188.011674 
L 536.742452 188.079482 
L 543.641158 188.364785 
L 543.641158 188.364785 
" style="fill:none;stroke:#000000;stroke-linecap:square;stroke-opacity:0.7;stroke-width:1.2;"/>
   </g>
   <g id="line2d_18">
    <path clip-path="url(#p32357db3bd)" d="M 543.52109 149.676292 
L 535.665023 146.928579 
L 527.196973 144.194207 
L 520.554048 142.258798 
L 515.055475 140.827884 
L 508.763835 139.403846 
L 503.25234 138.354017 
L 496.683047 137.351399 
L 490.415188 136.655273 
L 484.550602 136.249823 
L 479.550646 136.114139 
L 475.082323 136.182929 
L 470.760214 136.451547 
L 466.307558 136.976882 
L 462.978335 137.564394 
L 459.55632 138.370282 
L 455.763178 139.538542 
L 452.882407 140.646291 
L 449.124638 142.423214 
L 446.208342 144.110942 
L 443.945663 145.662534 
L 441.559861 147.681889 
L 440.548526 148.847629 
L 440.067288 149.805185 
L 440.066063 150.376223 
L 440.150476 150.566401 
L 440.689251 151.022467 
L 441.228496 151.219529 
L 443.128935 151.448181 
L 445.518076 151.381953 
L 449.020364 151.011406 
L 454.418639 150.143476 
L 462.058271 148.640759 
L 473.131265 146.446131 
L 477.781972 145.713643 
L 481.649602 145.276922 
L 486.056658 145.024904 
L 489.434108 145.02446 
L 493.725164 145.248943 
L 498.853412 145.771163 
L 509.825097 147.26995 
L 519.106533 148.422309 
L 525.20242 148.991165 
L 532.049961 149.414438 
L 537.797075 149.568478 
L 543.080391 149.49644 
L 543.647202 149.471467 
L 543.647202 149.471467 
" style="fill:none;stroke:#000000;stroke-linecap:square;stroke-opacity:0.7;stroke-width:1.2;"/>
   </g>
   <g id="line2d_19">
    <path clip-path="url(#p32357db3bd)" d="M 543.487525 109.223214 
L 520.049162 106.440683 
L 506.756166 105.107279 
L 494.197167 104.097274 
L 482.535464 103.386251 
L 473.309447 103.0386 
L 467.059983 103.010912 
L 462.332279 103.167724 
L 457.209812 103.575004 
L 452.818401 104.182125 
L 449.673427 104.807641 
L 446.193919 105.747674 
L 443.922598 106.556646 
L 442.002191 107.434078 
L 440.59354 108.342258 
L 440.196413 108.829676 
L 440.209999 109.149284 
L 440.503631 109.385419 
L 441.68769 109.684119 
L 443.963622 109.902704 
L 460.694543 111.052188 
L 473.023432 112.306018 
L 484.300307 113.401788 
L 490.337275 113.796431 
L 495.914901 113.955163 
L 501.238565 113.891479 
L 506.13465 113.652352 
L 512.803462 113.097045 
L 521.244247 112.141684 
L 535.689049 110.239929 
L 543.555257 109.132899 
L 543.555257 109.132899 
" style="fill:none;stroke:#000000;stroke-linecap:square;stroke-opacity:0.7;stroke-width:1.2;"/>
   </g>
   <g id="line2d_20">
    <path clip-path="url(#p32357db3bd)" d="M 544.07743 68.532977 
L 537.135963 67.570509 
L 524.862823 66.110748 
L 507.380831 64.27334 
L 493.097811 62.959169 
L 482.390578 62.187039 
L 473.942734 61.787469 
L 467.401613 61.668483 
L 461.965402 61.756619 
L 456.80378 62.07014 
L 452.88592 62.524207 
L 449.553136 63.123881 
L 446.75716 63.848687 
L 445.131846 64.405696 
L 443.086895 65.327626 
L 441.686034 66.202822 
L 440.822507 66.948308 
L 440.061919 68.001526 
L 439.845186 68.71924 
L 439.884353 69.441525 
L 440.23016 70.207374 
L 440.903293 70.955123 
L 441.55835 71.45317 
L 442.916529 72.208166 
L 444.883421 72.988518 
L 446.528975 73.487874 
L 450.2024 74.313134 
L 454.023937 74.908923 
L 458.350414 75.383603 
L 465.491509 75.871915 
L 472.476015 76.091847 
L 479.383791 76.076693 
L 484.985583 75.878224 
L 491.756543 75.398809 
L 498.774544 74.647553 
L 508.708705 73.302783 
L 527.951916 70.636857 
L 544.090038 68.619766 
L 544.090038 68.619766 
" style="fill:none;stroke:#000000;stroke-linecap:square;stroke-opacity:0.7;stroke-width:1.2;"/>
   </g>
   <g id="line2d_21">
    <path clip-path="url(#p32357db3bd)" d="M 675.490909 226.085724 
L 670.386881 224.738546 
L 663.246968 223.109457 
L 654.778574 221.459026 
L 646.157267 220.020804 
L 637.135628 218.757171 
L 629.837691 217.937653 
L 622.625487 217.340644 
L 615.575822 216.993647 
L 609.897291 216.906815 
L 604.134672 217.024864 
L 598.366651 217.399813 
L 593.684751 217.943546 
L 589.751753 218.609832 
L 585.691316 219.552115 
L 582.396369 220.561614 
L 579.439063 221.718451 
L 577.144083 222.84339 
L 576.52453 223.192795 
L 574.294681 224.688696 
L 573.243984 225.603349 
L 572.549793 226.373921 
L 571.970012 227.41765 
L 571.932896 227.942925 
L 572.096393 228.298557 
L 572.702004 228.704568 
L 573.461611 228.902596 
L 574.421268 229.004602 
L 576.453982 229.003947 
L 579.973036 228.717843 
L 585.026113 228.034509 
L 592.221245 226.804667 
L 605.199345 224.545032 
L 610.521381 223.880416 
L 615.095369 223.534325 
L 618.97095 223.41966 
L 624.839106 223.53151 
L 630.762414 223.909614 
L 641.285483 224.893415 
L 651.593151 225.799791 
L 658.350932 226.184732 
L 664.984813 226.329307 
L 670.765348 226.226777 
L 675.490233 225.93446 
L 675.490233 225.93446 
" style="fill:none;stroke:#000000;stroke-linecap:square;stroke-opacity:0.7;stroke-width:1.2;"/>
   </g>
   <g id="line2d_22">
    <path clip-path="url(#p32357db3bd)" d="M 675.198268 187.939796 
L 667.203105 186.017729 
L 659.400715 184.342854 
L 651.492512 182.876562 
L 643.97073 181.713563 
L 636.707186 180.816966 
L 629.515663 180.166506 
L 623.377069 179.816492 
L 617.178066 179.671936 
L 610.799052 179.756245 
L 605.118821 180.039269 
L 600.159661 180.453717 
L 593.986716 181.202772 
L 588.281735 182.15202 
L 583.98827 183.058648 
L 579.601305 184.200496 
L 575.814152 185.432474 
L 573.463216 186.391029 
L 571.965537 187.172502 
L 571.185093 187.736294 
L 570.826902 188.160642 
L 570.752652 188.602504 
L 570.952988 188.905725 
L 571.581882 189.262898 
L 573.544741 189.732475 
L 575.798752 189.989083 
L 580.136059 190.213544 
L 588.344286 190.328699 
L 598.599778 190.534682 
L 607.391266 190.977879 
L 632.12528 192.470215 
L 637.963081 192.529356 
L 643.083556 192.408942 
L 648.824877 192.065623 
L 655.049287 191.445756 
L 661.713482 190.521811 
L 669.069436 189.239353 
L 675.175507 188.002327 
L 675.175507 188.002327 
" style="fill:none;stroke:#000000;stroke-linecap:square;stroke-opacity:0.7;stroke-width:1.2;"/>
   </g>
   <g id="line2d_23">
    <path clip-path="url(#p32357db3bd)" d="M 675.21486 148.588918 
L 669.445605 147.04416 
L 661.478232 145.145884 
L 653.480213 143.487766 
L 644.897626 141.968937 
L 636.561626 140.753091 
L 628.837947 139.879023 
L 622.416687 139.370976 
L 616.192239 139.105113 
L 610.975753 139.080467 
L 605.649233 139.261718 
L 599.918307 139.707008 
L 595.212062 140.28012 
L 590.500381 141.058805 
L 585.907415 142.042887 
L 581.72975 143.172726 
L 577.815401 144.501607 
L 575.503823 145.462358 
L 573.018481 146.741554 
L 571.665424 147.676782 
L 571.128294 148.244169 
L 571.009151 148.649016 
L 571.189426 148.88426 
L 571.532546 149.015545 
L 572.338032 149.104231 
L 574.528407 149.010734 
L 588.803783 147.743711 
L 593.501251 147.702938 
L 598.28514 147.927495 
L 603.348125 148.435412 
L 608.247997 149.140568 
L 615.967639 150.505903 
L 626.00144 152.294432 
L 632.419637 153.190135 
L 637.125989 153.640783 
L 642.359404 153.894823 
L 646.60118 153.891121 
L 650.851329 153.689229 
L 655.350008 153.254726 
L 660.068146 152.554809 
L 664.426545 151.688966 
L 669.080046 150.535782 
L 674.118146 149.020064 
L 675.256529 148.637568 
L 675.256529 148.637568 
" style="fill:none;stroke:#000000;stroke-linecap:square;stroke-opacity:0.7;stroke-width:1.2;"/>
   </g>
   <g id="line2d_24">
    <path clip-path="url(#p32357db3bd)" d="M 675.224305 108.651938 
L 665.063462 106.939427 
L 653.604045 105.23826 
L 642.856987 103.877371 
L 633.309912 102.902126 
L 625.658336 102.307652 
L 617.435561 101.882576 
L 609.94229 101.728096 
L 604.000218 101.8046 
L 597.519525 102.140342 
L 592.508147 102.619317 
L 587.024662 103.408857 
L 582.44268 104.326226 
L 578.495951 105.35283 
L 574.977325 106.518786 
L 572.390736 107.620285 
L 570.666387 108.626998 
L 570.095994 109.132088 
L 569.80124 109.673366 
L 569.945448 110.149159 
L 570.572897 110.565304 
L 571.209947 110.786466 
L 572.825395 111.115424 
L 575.777317 111.423787 
L 580.996936 111.681392 
L 597.410247 112.328849 
L 609.705449 113.136606 
L 621.883158 113.870876 
L 629.281101 114.073721 
L 635.561756 114.019079 
L 641.274842 113.765351 
L 647.272388 113.289416 
L 653.944375 112.526168 
L 660.764972 111.523323 
L 667.640723 110.314653 
L 675.204663 108.762754 
L 675.204663 108.762754 
" style="fill:none;stroke:#000000;stroke-linecap:square;stroke-opacity:0.7;stroke-width:1.2;"/>
   </g>
   <g id="line2d_25">
    <path clip-path="url(#p32357db3bd)" d="M 675.406693 69.599607 
L 668.447107 66.979285 
L 661.704676 64.683208 
L 655.079902 62.690532 
L 649.136452 61.122253 
L 642.52034 59.609758 
L 635.600777 58.284082 
L 629.434941 57.322955 
L 623.256143 56.570286 
L 617.49101 56.064985 
L 611.613143 55.763925 
L 606.523539 55.704465 
L 601.762359 55.849087 
L 597.670167 56.155963 
L 593.90459 56.613151 
L 589.576585 57.383071 
L 585.29898 58.455512 
L 582.524379 59.355634 
L 580.085785 60.312699 
L 577.042509 61.791044 
L 575.361005 62.79304 
L 574.213373 63.584699 
L 572.233794 65.277709 
L 571.21099 66.459438 
L 570.281458 68.093244 
L 569.994867 69.180254 
L 570.025705 70.374216 
L 570.233921 71.066066 
L 570.663713 71.8419 
L 571.694792 72.924089 
L 572.553537 73.525423 
L 573.421514 73.996797 
L 575.468971 74.795496 
L 577.746319 75.375444 
L 579.956796 75.745879 
L 582.755352 76.031492 
L 585.873671 76.180299 
L 590.175381 76.184368 
L 596.269529 75.930208 
L 604.332865 75.317663 
L 615.912829 74.174236 
L 638.493002 71.898534 
L 649.119672 71.046896 
L 660.426377 70.377689 
L 675.347448 69.714404 
L 675.347448 69.714404 
" style="fill:none;stroke:#000000;stroke-linecap:square;stroke-opacity:0.7;stroke-width:1.2;"/>
   </g>
  </g>
 </g>
 <defs>
  <clipPath id="p32357db3bd">
   <rect height="262.08" width="694.08" x="12.96" y="12.96"/>
  </clipPath>
 </defs>
</svg>
