<svg viewBox="0 0 1496 400" xmlns="http://www.w3.org/2000/svg"><g><g><g><g><g><line x1="50" y1="378" x2="45" y2="378" style="visibility: inherit;" fill="rgb(0, 0, 0)" stroke="rgb(204, 204, 204)" stroke-width="1px"></line><line x1="50" y1="348.9230769230769" x2="45" y2="348.9230769230769" style="visibility: inherit;" fill="rgb(0, 0, 0)" stroke="rgb(204, 204, 204)" stroke-width="1px"></line><line x1="50" y1="319.8461538461538" x2="45" y2="319.8461538461538" style="visibility: inherit;" fill="rgb(0, 0, 0)" stroke="rgb(204, 204, 204)" stroke-width="1px"></line><line x1="50" y1="290.7692307692308" x2="45" y2="290.7692307692308" style="visibility: inherit;" fill="rgb(0, 0, 0)" stroke="rgb(204, 204, 204)" stroke-width="1px"></line><line x1="50" y1="261.6923076923077" x2="45" y2="261.6923076923077" style="visibility: inherit;" fill="rgb(0, 0, 0)" stroke="rgb(204, 204, 204)" stroke-width="1px"></line><line x1="50" y1="232.61538461538464" x2="45" y2="232.61538461538464" style="visibility: inherit;" fill="rgb(0, 0, 0)" stroke="rgb(204, 204, 204)" stroke-width="1px"></line><line x1="50" y1="203.53846153846155" x2="45" y2="203.53846153846155" style="visibility: inherit;" fill="rgb(0, 0, 0)" stroke="rgb(204, 204, 204)" stroke-width="1px"></line><line x1="50" y1="174.46153846153848" x2="45" y2="174.46153846153848" style="visibility: inherit;" fill="rgb(0, 0, 0)" stroke="rgb(204, 204, 204)" stroke-width="1px"></line><line x1="50" y1="145.38461538461542" x2="45" y2="145.38461538461542" style="visibility: inherit;" fill="rgb(0, 0, 0)" stroke="rgb(204, 204, 204)" stroke-width="1px"></line><line x1="50" y1="116.30769230769232" x2="45" y2="116.30769230769232" style="visibility: inherit;" fill="rgb(0, 0, 0)" stroke="rgb(204, 204, 204)" stroke-width="1px"></line><line x1="50" y1="87.23076923076928" x2="45" y2="87.23076923076928" style="visibility: inherit;" fill="rgb(0, 0, 0)" stroke="rgb(204, 204, 204)" stroke-width="1px"></line><line x1="50" y1="58.15384615384613" x2="45" y2="58.15384615384613" style="visibility: inherit;" fill="rgb(0, 0, 0)" stroke="rgb(204, 204, 204)" stroke-width="1px"></line><line x1="50" y1="29.076923076923038" x2="45" y2="29.076923076923038" style="visibility: inherit;" fill="rgb(0, 0, 0)" stroke="rgb(204, 204, 204)" stroke-width="1px"></line><line x1="50" y1="0" x2="45" y2="0" style="visibility: inherit;" fill="rgb(0, 0, 0)" stroke="rgb(204, 204, 204)" stroke-width="1px"></line></g><g transform="translate(40, 0)"><text x="0" y="378" dx="0em" dy="0.3em" style="text-anchor: end; visibility: hidden; font-family: &quot;Helvetica Neue&quot;, sans-serif; font-size: 12px; font-weight: 200;" fill="rgb(50, 49, 63)" stroke="none" stroke-width="1px">-0.1</text><text x="0" y="348.9230769230769" dx="0em" dy="0.3em" style="text-anchor: end; visibility: inherit; font-family: &quot;Helvetica Neue&quot;, sans-serif; font-size: 12px; font-weight: 200;" fill="rgb(50, 49, 63)" stroke="none" stroke-width="1px">0</text><text x="0" y="319.8461538461538" dx="0em" dy="0.3em" style="text-anchor: end; visibility: inherit; font-family: &quot;Helvetica Neue&quot;, sans-serif; font-size: 12px; font-weight: 200;" fill="rgb(50, 49, 63)" stroke="none" stroke-width="1px">0.1</text><text x="0" y="290.7692307692308" dx="0em" dy="0.3em" style="text-anchor: end; visibility: inherit; font-family: &quot;Helvetica Neue&quot;, sans-serif; font-size: 12px; font-weight: 200;" fill="rgb(50, 49, 63)" stroke="none" stroke-width="1px">0.2</text><text x="0" y="261.6923076923077" dx="0em" dy="0.3em" style="text-anchor: end; visibility: inherit; font-family: &quot;Helvetica Neue&quot;, sans-serif; font-size: 12px; font-weight: 200;" fill="rgb(50, 49, 63)" stroke="none" stroke-width="1px">0.3</text><text x="0" y="232.61538461538464" dx="0em" dy="0.3em" style="text-anchor: end; visibility: inherit; font-family: &quot;Helvetica Neue&quot;, sans-serif; font-size: 12px; font-weight: 200;" fill="rgb(50, 49, 63)" stroke="none" stroke-width="1px">0.4</text><text x="0" y="203.53846153846155" dx="0em" dy="0.3em" style="text-anchor: end; visibility: inherit; font-family: &quot;Helvetica Neue&quot;, sans-serif; font-size: 12px; font-weight: 200;" fill="rgb(50, 49, 63)" stroke="none" stroke-width="1px">0.5</text><text x="0" y="174.46153846153848" dx="0em" dy="0.3em" style="text-anchor: end; visibility: inherit; font-family: &quot;Helvetica Neue&quot;, sans-serif; font-size: 12px; font-weight: 200;" fill="rgb(50, 49, 63)" stroke="none" stroke-width="1px">0.6</text><text x="0" y="145.38461538461542" dx="0em" dy="0.3em" style="text-anchor: end; visibility: inherit; font-family: &quot;Helvetica Neue&quot;, sans-serif; font-size: 12px; font-weight: 200;" fill="rgb(50, 49, 63)" stroke="none" stroke-width="1px">0.7</text><text x="0" y="116.30769230769232" dx="0em" dy="0.3em" style="text-anchor: end; visibility: inherit; font-family: &quot;Helvetica Neue&quot;, sans-serif; font-size: 12px; font-weight: 200;" fill="rgb(50, 49, 63)" stroke="none" stroke-width="1px">0.8</text><text x="0" y="87.23076923076928" dx="0em" dy="0.3em" style="text-anchor: end; visibility: inherit; font-family: &quot;Helvetica Neue&quot;, sans-serif; font-size: 12px; font-weight: 200;" fill="rgb(50, 49, 63)" stroke="none" stroke-width="1px">0.9</text><text x="0" y="58.15384615384613" dx="0em" dy="0.3em" style="text-anchor: end; visibility: inherit; font-family: &quot;Helvetica Neue&quot;, sans-serif; font-size: 12px; font-weight: 200;" fill="rgb(50, 49, 63)" stroke="none" stroke-width="1px">1</text><text x="0" y="29.076923076923038" dx="0em" dy="0.3em" style="text-anchor: end; visibility: inherit; font-family: &quot;Helvetica Neue&quot;, sans-serif; font-size: 12px; font-weight: 200;" fill="rgb(50, 49, 63)" stroke="none" stroke-width="1px">1.1</text><text x="0" y="0" dx="0em" dy="0.3em" style="text-anchor: end; visibility: hidden; font-family: &quot;Helvetica Neue&quot;, sans-serif; font-size: 12px; font-weight: 200;" fill="rgb(50, 49, 63)" stroke="none" stroke-width="1px">1.2</text></g><line x1="50" y1="0" x2="50" y2="378" fill="rgb(0, 0, 0)" stroke="rgb(204, 204, 204)" stroke-width="1px"></line></g></g><g transform="translate(50, 0)" clip-path="url(#clip_0)"><clipPath id="clip_0"><rect width="1446" height="378"></rect></clipPath><g><g><g><line x1="0" y1="0" x2="0" y2="378" fill="rgb(0, 0, 0)" stroke="rgb(60, 60, 60)" stroke-width="1px" opacity="0.25"></line><line x1="120.5" y1="0" x2="120.5" y2="378" fill="rgb(0, 0, 0)" stroke="rgb(60, 60, 60)" stroke-width="1px" opacity="0.25"></line><line x1="241" y1="0" x2="241" y2="378" fill="rgb(0, 0, 0)" stroke="rgb(60, 60, 60)" stroke-width="1px" opacity="0.25"></line><line x1="361.5" y1="0" x2="361.5" y2="378" fill="rgb(0, 0, 0)" stroke="rgb(60, 60, 60)" stroke-width="1px" opacity="0.25"></line><line x1="482" y1="0" x2="482" y2="378" fill="rgb(0, 0, 0)" stroke="rgb(60, 60, 60)" stroke-width="1px" opacity="0.25"></line><line x1="602.5" y1="0" x2="602.5" y2="378" fill="rgb(0, 0, 0)" stroke="rgb(60, 60, 60)" stroke-width="1px" opacity="0.25"></line><line x1="723" y1="0" x2="723" y2="378" fill="rgb(0, 0, 0)" stroke="rgb(60, 60, 60)" stroke-width="1px" opacity="0.25"></line><line x1="843.5" y1="0" x2="843.5" y2="378" fill="rgb(0, 0, 0)" stroke="rgb(60, 60, 60)" stroke-width="1px" opacity="0.25"></line><line x1="964" y1="0" x2="964" y2="378" fill="rgb(0, 0, 0)" stroke="rgb(60, 60, 60)" stroke-width="1px" opacity="0.25"></line><line x1="1084.5" y1="0" x2="1084.5" y2="378" fill="rgb(0, 0, 0)" stroke="rgb(60, 60, 60)" stroke-width="1px" opacity="0.25"></line><line x1="1205" y1="0" x2="1205" y2="378" fill="rgb(0, 0, 0)" stroke="rgb(60, 60, 60)" stroke-width="1px" opacity="0.25"></line><line x1="1325.5" y1="0" x2="1325.5" y2="378" fill="rgb(0, 0, 0)" stroke="rgb(60, 60, 60)" stroke-width="1px" opacity="0.25"></line><line x1="1446" y1="0" x2="1446" y2="378" fill="rgb(0, 0, 0)" stroke="rgb(60, 60, 60)" stroke-width="1px" opacity="0.25"></line></g><g><line x1="0" y1="378" x2="1446" y2="378" fill="rgb(0, 0, 0)" stroke="rgb(60, 60, 60)" stroke-width="1px" opacity="0.25"></line><line x1="0" y1="348.9230769230769" x2="1446" y2="348.9230769230769" fill="rgb(0, 0, 0)" stroke="rgb(60, 60, 60)" stroke-width="1px" opacity="0.25"></line><line x1="0" y1="319.8461538461538" x2="1446" y2="319.8461538461538" fill="rgb(0, 0, 0)" stroke="rgb(60, 60, 60)" stroke-width="1px" opacity="0.25"></line><line x1="0" y1="290.7692307692308" x2="1446" y2="290.7692307692308" fill="rgb(0, 0, 0)" stroke="rgb(60, 60, 60)" stroke-width="1px" opacity="0.25"></line><line x1="0" y1="261.6923076923077" x2="1446" y2="261.6923076923077" fill="rgb(0, 0, 0)" stroke="rgb(60, 60, 60)" stroke-width="1px" opacity="0.25"></line><line x1="0" y1="232.61538461538464" x2="1446" y2="232.61538461538464" fill="rgb(0, 0, 0)" stroke="rgb(60, 60, 60)" stroke-width="1px" opacity="0.25"></line><line x1="0" y1="203.53846153846155" x2="1446" y2="203.53846153846155" fill="rgb(0, 0, 0)" stroke="rgb(60, 60, 60)" stroke-width="1px" opacity="0.25"></line><line x1="0" y1="174.46153846153848" x2="1446" y2="174.46153846153848" fill="rgb(0, 0, 0)" stroke="rgb(60, 60, 60)" stroke-width="1px" opacity="0.25"></line><line x1="0" y1="145.38461538461542" x2="1446" y2="145.38461538461542" fill="rgb(0, 0, 0)" stroke="rgb(60, 60, 60)" stroke-width="1px" opacity="0.25"></line><line x1="0" y1="116.30769230769232" x2="1446" y2="116.30769230769232" fill="rgb(0, 0, 0)" stroke="rgb(60, 60, 60)" stroke-width="1px" opacity="0.25"></line><line x1="0" y1="87.23076923076928" x2="1446" y2="87.23076923076928" fill="rgb(0, 0, 0)" stroke="rgb(60, 60, 60)" stroke-width="1px" opacity="0.25"></line><line x1="0" y1="58.15384615384613" x2="1446" y2="58.15384615384613" fill="rgb(0, 0, 0)" stroke="rgb(60, 60, 60)" stroke-width="1px" opacity="0.25"></line><line x1="0" y1="29.076923076923038" x2="1446" y2="29.076923076923038" fill="rgb(0, 0, 0)" stroke="rgb(60, 60, 60)" stroke-width="1px" opacity="0.25"></line><line x1="0" y1="0" x2="1446" y2="0" fill="rgb(0, 0, 0)" stroke="rgb(60, 60, 60)" stroke-width="1px" opacity="0.25"></line></g></g></g><g><g><line x1="0" y1="348.9230769230769" x2="1446" y2="348.9230769230769" fill="rgb(0, 0, 0)" stroke="rgb(153, 153, 153)" stroke-width="1.5px"></line></g></g><g><g><line x1="120.5" y1="0" x2="120.5" y2="378" fill="rgb(0, 0, 0)" stroke="rgb(153, 153, 153)" stroke-width="1.5px"></line></g></g><g><g><g><g><g><path stroke="rgb(255, 112, 67)" stroke-width="2px" d="M120.5,7.447825285104614L122.91000000000001,56.38356839693512L125.32000000000001,95.07153087395892L127.73,106.36696501878595L130.14,115.65847954383264L132.54999999999998,127.2731370008909L134.96,137.34519663223855L137.37,139.7413212336027L139.78,149.24372176023633L142.19,155.28660744887134L144.6,166.1939094433418L147.01,173.5570683662708L149.42,179.91096237989575L151.82999999999998,191.21636196283194L154.24,192.30023767397955L156.65,205.11615503751315L159.06,209.47597355108996L161.47,218.87256712179916L163.88,223.71723452898175L166.29000000000002,225.6156504887801L168.7,237.64288574915665L171.10999999999999,240.30214124459488L173.51999999999998,250.6638225041903L175.93,252.04784854558798L178.34,259.522698365725L180.75,263.87123427024255L183.16000000000003,266.23398765233844L185.57,265.76686857296875L187.98000000000002,276.32900245373065L190.39,277.28746529267386L192.8,283.2674040748523L195.21,285.6968479018945L197.61999999999998,291.69644026114395L200.03,294.49495192215994L202.44000000000003,297.35875886678696L204.85,300.3763151902419L207.26000000000002,302.0050187340149L209.67,304.8285609758817L212.08,304.36909795265933L214.49,303.1991425202443L216.9,307.58089799605887L219.31,309.7660889350451L221.71999999999997,311.21284091014127L224.13,310.9932893101986L226.54000000000002,314.0771092978807L228.95,312.94607323408127L231.36,315.2076687537707L233.76999999999998,313.1035206570075L236.18,314.292009637906L238.59,314.7766158947578L241,315.6337562249257L243.41,314.35917019156307L245.82000000000002,316.2860158131673L248.23,318.57397424945464L250.64000000000001,318.09253093600273L253.04999999999998,319.08859380621175L255.46,316.7901499959139L257.87,318.3275506290106L260.28,318.45342061152826L262.69,318.5806489265882L265.09999999999997,318.60865397407457L267.51,318.984543800354L269.92,317.8021705654951L272.33,318.5843318058894L274.74,318.7348662477273L277.15000000000003,320.5854892661938L279.56,321.35462394585977L281.97,320.6880812851282L284.38,321.3942733911367L286.79,320.8856027676509L289.2,320.7213788468104L291.61,322.83610330636685L294.02,321.0048847290186L296.43,320.7471438371218L298.84,323.1631213243191L301.25,322.1052814034315L303.65999999999997,322.54309342916196L306.07,322.84471041193376L308.48,319.4433699020973L310.89,323.8194754077838L313.3,322.26669550400516L315.71,321.2819109100562L318.12,321.75989015056535L320.53000000000003,323.65175058520754L322.94,322.54948430794934L325.35,324.2557947841974L327.76,322.5731673882558L330.17,322.197816995474L332.58000000000004,324.00856959590544L334.99,323.5548648627905L337.4,322.2094115660741L339.81,323.11371874809265L342.21999999999997,324.05325158742755L344.63,323.9704257983428L347.03999999999996,324.73358338154276L349.45,323.8132643401623L351.86,324.9949984871424L354.27,324.19250775300543L356.68,323.5734092432719L359.09,323.72326560203845L361.5,323.4609969350008L363.90999999999997,324.4287644601785L366.32000000000005,325.2117121036236L368.73,324.0538928417059L371.14,324.08857039992625L373.55,323.5243901197727L375.96000000000004,325.40347746243845L378.37,323.46633061078876L380.78,324.8317256157215L383.19,326.12540196226195L385.6,325.00709132964795L388.01,324.435534458894L390.42,323.05220599816397L392.83,326.01435231933226L395.23999999999995,324.6627486141829L397.65000000000003,324.4562257413681L400.06,325.7085130237616L402.46999999999997,324.29056333120053L404.88000000000005,325.30752762464374L407.29,323.8485701542634L409.7,326.24391268537596L412.10999999999996,325.60487896662494L414.52000000000004,325.2064109238295L416.93,325.4452716433085L419.34,325.6901289568498L421.75,325.08067309168666L424.16,325.23814434500844L426.57,324.0022415427061L428.98,326.392295892422L431.39,326.12445307924196L433.8,325.0263679531904L436.21000000000004,325.8202082537688L438.62,325.62145842267915L441.03,326.19061275628894L443.43999999999994,326.5232005875844L445.85,325.3329568230189L448.26,325.2930929041826L450.66999999999996,326.35769632458687L453.08000000000004,324.95267353837306L455.49,325.38665970242937L457.9,325.5859857958097L460.31000000000006,325.73439933245L462.72,326.8218604349173L465.13,325.81049195161233L467.53999999999996,326.78671926718494L469.95,325.0160493919483L472.36,326.78367547576244L474.77,325.4529298658554L477.18,325.34032691442053L479.59,323.70081303669855L482,327.0763798906253L484.41,325.6943815992429L486.82,323.4211893425538L489.22999999999996,326.2206325553931L491.64000000000004,326.3230360975632L494.05,327.0146526671373L496.46,326.54284766545663L498.86999999999995,324.20754039975316L501.28000000000003,325.7863539273922L503.69,326.8190592802488L506.09999999999997,327.284557892726L508.51000000000005,326.3962344068747L510.92,326.24148415143674L513.3299999999999,325.674036940703L515.74,324.7637223326243L518.15,325.95034171067755L520.56,326.19368037810693L522.97,326.7718187708121L525.38,325.6880123844513L527.79,327.2085042687563L530.1999999999999,327.11977937359075L532.61,326.3821484767474L535.02,327.4328934389811L537.43,327.1325091375754L539.84,327.18218034735094L542.25,325.3112711631335L544.66,325.11573626903385L547.07,327.1481397106097L549.48,326.73790378524706L551.89,326.23983335494995L554.3000000000001,326.60210086061403L556.71,327.0533922245869L559.12,326.68149290635034L561.53,323.8289902347785L563.94,327.12415766716003L566.35,324.7452516097289L568.76,325.7591266173583L571.1700000000001,325.7024666025088L573.58,326.7574143799452L575.99,327.6026850067652L578.4,326.821487814188L580.8100000000001,327.03308872763927L583.22,327.7405373454094L585.63,327.1669505582406L588.04,324.4971295320071L590.45,325.8074373281919L592.86,327.6757684968985L595.27,327.3510750257052L597.68,327.05743039342076L600.0899999999999,325.793069766118L602.5,327.05017295479774L604.91,325.01775218202516L607.3199999999999,326.2045145424513L609.73,327.58340188402394L612.14,326.8032553952474L614.55,325.081825616268L616.96,327.24671522470624L619.37,327.2620988281874L621.78,327.7014338328288L624.1899999999999,327.4528524783941L626.6,327.81947661363165L629.01,325.6062741279602L631.42,326.14217206148L633.83,327.5169389110345L636.24,325.79437393867056L638.65,326.81858917153795L641.0600000000001,327.4333093877022L643.47,327.39454383345753L645.88,327.60096921829074L648.29,327.76606836456517L650.7,324.9723769426346L653.11,328.05382905556604L655.52,327.88353488307735L657.9300000000001,326.6373221851312L660.34,327.9473830117629L662.75,326.92121152006666L665.1600000000001,327.7071964557354L667.57,326.2853949047052L669.98,327.30639736698225L672.39,327.10354220867157L674.8,327.2473023189948L677.21,328.1065310583665L679.62,326.8863498178812L682.03,327.335349131089L684.4399999999999,326.51421869488865L686.85,325.23004201054573L689.26,327.9606002156551L691.67,327.2989796147897L694.0799999999999,328.0651354950208L696.49,326.35979989858777L698.9,325.53071877589593L701.31,327.9617224106422L703.72,325.9864577582249L706.13,326.719136265608L708.54,326.6979662088247L710.9499999999999,327.81315289323146L713.36,326.39972014381334L715.77,328.16754120359053L718.18,327.9109723338714L720.59,327.3851329936431L723,327.93413331187685L725.4100000000001,327.5599527748732L727.8199999999999,327.9822533795467L730.23,325.8098008701435L732.6400000000001,326.4520040314931L735.05,327.4316694232134L737.46,327.97002838666623L739.8700000000001,327.46747567561954L742.28,326.3693407223775L744.69,327.6156270779096L747.1,328.3205215105644L749.51,328.1779572528142L751.9200000000001,327.44143121976117L754.3299999999999,327.6020025908947L756.74,326.7880516029321L759.15,326.7528346112141L761.56,327.584097298292L763.97,327.1011483371258L766.38,326.1355038835452L768.79,327.9033726041134L771.2,327.8622240103208L773.61,327.8391496882989L776.02,325.8959954105891L778.43,327.664724191794L780.84,328.2024375681694L783.25,327.86248181187193L785.66,328.1546251292412L788.07,327.88733474795634L790.4799999999999,326.2950288836773L792.89,326.3185018232235L795.3000000000001,327.2129952151042L797.7099999999999,328.3653204876643L800.12,325.67109713646084L802.5300000000001,327.15833045427615L804.9399999999999,327.61653263293783L807.35,327.4631125468474L809.7600000000001,326.1292104927393L812.17,326.65237216307565L814.58,327.2041866343755L816.9899999999999,327.25431712086385L819.4,327.2848156942771L821.8100000000001,328.3212017600353L824.2199999999999,328.0889312281058L826.63,327.7889758738188L829.0400000000001,327.77344712156514L831.4499999999999,328.0652459813998L833.86,327.6686757046443L836.2700000000001,327.89299338368266L838.68,326.402389148107L841.09,327.53338621671384L843.5,327.13679644236197L845.91,326.22134963365704L848.32,327.1413047199066L850.73,326.1710761647958L853.14,327.1053164899349L855.55,328.18306562304497L857.96,327.1955535320135L860.37,328.26671464397356L862.78,327.3457760123106L865.19,326.8154630569311L867.6,326.74568982536977L870.01,327.69916127966L872.4200000000001,326.58263142750815L874.8299999999999,328.01665147222L877.24,327.08040072826236L879.65,327.8033802646857L882.06,327.8805409188454L884.47,328.35528572476824L886.8799999999999,326.3916069773527L889.29,327.1546822373684L891.7,325.9823914261965L894.1099999999999,328.30518340147455L896.52,328.06627935400377L898.9300000000001,327.02530918671533L901.3399999999999,327.46011208341673L903.75,328.13391868197004L906.1600000000001,328.3268820597575L908.5699999999999,327.65441212975065L910.98,327.89228930381626L913.3900000000001,326.31311398744583L915.8,328.1190160191976L918.21,326.29751591040537L920.6200000000001,328.3825325323985L923.03,328.41982493492276L925.44,328.5744430399858L927.85,327.3320995317056L930.26,328.1162581925209L932.6700000000001,328.2068006969415L935.0799999999999,328.2908786649887L937.49,328.4517446664663L939.9,328.27504878319223L942.31,327.1403710016838L944.72,327.6985351901788L947.13,327.37909307158907L949.54,327.611287779533L951.95,328.5038314117835L954.36,328.35780308109065L956.77,326.78703556152493L959.18,328.3175015495374L961.59,328.3110240147664L964,328.461064517498L966.41,327.9851541885963L968.82,328.52188618595784L971.2299999999999,327.55836047117526L973.64,327.6318447452325L976.0500000000001,328.3655826220146L978.4599999999999,328.2676353637989L980.87,327.60594760454615L983.2800000000001,327.38351902594934L985.6899999999999,327.7995132414194L988.1,327.7108078438502L990.5100000000001,328.39354650790875L992.92,327.9446815114755L995.33,327.96594472344105L997.7399999999999,328.3544083329348L1000.15,328.4331829547882L1002.5600000000001,328.4845222922472L1004.9699999999999,327.0328915852767L1007.38,328.2560841211906L1009.7900000000001,328.1629809324558L1012.1999999999999,328.31221120174115L1014.61,328.4106177366697L1017.0200000000001,327.42371440392276L1019.43,328.40316965488284L1021.84,327.87365610095173L1024.25,328.588719613277L1026.6599999999999,328.4796370611741L1029.07,327.96604654422174L1031.48,327.79662109796817L1033.8899999999999,328.210429416253L1036.3,328.1748744661991L1038.71,328.3548177824571L1041.12,328.0602199343534L1043.53,327.7535595733386L1045.94,328.4641234737176L1048.35,328.22356429696083L1050.76,328.12075130526836L1053.17,326.9857117350285L1055.58,328.62616149737283L1057.99,326.8685701764547L1060.3999999999999,328.2142184491341L1062.81,327.5052901804447L1065.22,328.5723048035915L1067.6299999999999,327.6745574795283L1070.04,327.9790969353456L1072.45,328.0089694192776L1074.86,327.6067881675867L1077.27,327.9819024228133L1079.68,328.0645029063408L1082.09,327.47450347588614L1084.5,327.8037117238228L1086.91,327.7180067896843L1089.32,328.6295280823341L1091.73,328.1908040023767L1094.14,328.40380224356284L1096.55,328.6830143217857L1098.96,328.14196252364377L1101.3700000000001,328.6182151436806L1103.78,328.47854952858046L1106.19,328.0812188455692L1108.6000000000001,327.4695229232311L1111.01,328.10494525386736L1113.42,328.3330996265778L1115.83,328.2232306714241L1118.24,328.3778877716798L1120.65,328.61425279883235L1123.06,327.4081856516691L1125.47,328.4553083937902L1127.88,328.4177646889136L1130.29,328.2026108801365L1132.7,326.9760235960667L1135.1100000000001,328.2755080599051L1137.52,327.80655187368393L1139.93,328.4935908409266L1142.3400000000001,327.58167959635074L1144.75,328.41794883287866L1147.16,328.1625433197388L1149.5700000000002,328.05457646342427L1151.98,328.1200147294081L1154.39,328.2221713020251L1156.8,328.1624133357635L1159.21,328.06537813177476L1161.6200000000001,327.7697924054586L1164.03,328.42077815074185L1166.44,327.69478515249034L1168.85,328.04870985333736L1171.26,328.03677082520267L1173.67,327.23873204222093L1176.08,328.6528147115157L1178.49,328.2687185635933L1180.9,327.56920980031674L1183.31,327.1668357390624L1185.72,328.61915319470256L1188.1299999999999,327.7943940391907L1190.54,328.09977839084775L1192.95,328.2348490724197L1195.36,327.674343005969L1197.77,328.13061492259686L1200.1799999999998,328.2166144870795L1202.59,328.16471621852656L1205,328.64016727071544L1207.4099999999999,327.30394716904715L1209.82,327.65621240780905L1212.23,327.93159212515906L1214.6399999999999,328.12845718860626L1217.05,328.71781103198344L1219.46,328.55117374200086L1221.87,327.957285624284L1224.28,327.55125468052347L1226.69,327.50856361022363L1229.1,328.26655866320317L1231.51,327.9768222157772L1233.92,328.3830286379044L1236.33,327.82808155279895L1238.74,327.5723424141224L1241.1499999999999,328.3359679396336L1243.56,327.88885989326695L1245.97,328.55365643592984L1248.3799999999999,327.65926919762904L1250.79,328.0100157902791L1253.2,328.1783342063427L1255.61,328.57655311318547L1258.02,328.6004268366557L1260.43,326.6574588693105L1262.84,328.6737096355512L1265.25,328.23185294178813L1267.66,328.76925868942186L1270.07,328.40464930580214L1272.48,328.7719753545064L1274.89,327.8159865438938L1277.3,327.7857674360275L1279.71,328.55913959328944L1282.1200000000001,328.71704629292856L1284.53,328.7289268282743L1286.94,327.1088325564678L1289.3500000000001,327.914579389187L1291.76,328.4488763534106L1294.17,328.6729275652996L1296.58,326.7009948354501L1298.99,327.6209455889005L1301.4,328.66522601476083L1303.81,328.73902441675847L1306.22,328.67784745876605L1308.63,328.43995728630284L1311.04,328.4822649038755L1313.45,328.62111811912973L1315.8600000000001,328.58045479884515L1318.27,326.85803497525364L1320.68,327.18867737971823L1323.0900000000001,328.70291486840983" style="fill: none;" fill="none"></path></g></g></g></g></g></g><g transform="translate(50, 378)" clip-path="url(#clip_1)"><clipPath id="clip_1"><rect width="1446" height="22"></rect></clipPath><g><g><line x1="0" y1="0" x2="0" y2="5" style="visibility: inherit;" fill="rgb(0, 0, 0)" stroke="rgb(204, 204, 204)" stroke-width="1px"></line><line x1="120.5" y1="0" x2="120.5" y2="5" style="visibility: inherit;" fill="rgb(0, 0, 0)" stroke="rgb(204, 204, 204)" stroke-width="1px"></line><line x1="241" y1="0" x2="241" y2="5" style="visibility: inherit;" fill="rgb(0, 0, 0)" stroke="rgb(204, 204, 204)" stroke-width="1px"></line><line x1="361.5" y1="0" x2="361.5" y2="5" style="visibility: inherit;" fill="rgb(0, 0, 0)" stroke="rgb(204, 204, 204)" stroke-width="1px"></line><line x1="482" y1="0" x2="482" y2="5" style="visibility: inherit;" fill="rgb(0, 0, 0)" stroke="rgb(204, 204, 204)" stroke-width="1px"></line><line x1="602.5" y1="0" x2="602.5" y2="5" style="visibility: inherit;" fill="rgb(0, 0, 0)" stroke="rgb(204, 204, 204)" stroke-width="1px"></line><line x1="723" y1="0" x2="723" y2="5" style="visibility: inherit;" fill="rgb(0, 0, 0)" stroke="rgb(204, 204, 204)" stroke-width="1px"></line><line x1="843.5" y1="0" x2="843.5" y2="5" style="visibility: inherit;" fill="rgb(0, 0, 0)" stroke="rgb(204, 204, 204)" stroke-width="1px"></line><line x1="964" y1="0" x2="964" y2="5" style="visibility: inherit;" fill="rgb(0, 0, 0)" stroke="rgb(204, 204, 204)" stroke-width="1px"></line><line x1="1084.5" y1="0" x2="1084.5" y2="5" style="visibility: inherit;" fill="rgb(0, 0, 0)" stroke="rgb(204, 204, 204)" stroke-width="1px"></line><line x1="1205" y1="0" x2="1205" y2="5" style="visibility: inherit;" fill="rgb(0, 0, 0)" stroke="rgb(204, 204, 204)" stroke-width="1px"></line><line x1="1325.5" y1="0" x2="1325.5" y2="5" style="visibility: inherit;" fill="rgb(0, 0, 0)" stroke="rgb(204, 204, 204)" stroke-width="1px"></line><line x1="1446" y1="0" x2="1446" y2="5" style="visibility: inherit;" fill="rgb(0, 0, 0)" stroke="rgb(204, 204, 204)" stroke-width="1px"></line></g><g transform="translate(0, 8)"><text x="0" y="0" dx="0em" dy="0.95em" style="text-anchor: middle; visibility: hidden; font-family: &quot;Helvetica Neue&quot;, sans-serif; font-size: 12px; font-weight: 200;" fill="rgb(50, 49, 63)" stroke="none" stroke-width="1px">-50</text><text x="120.5" y="0" dx="0em" dy="0.95em" style="text-anchor: middle; visibility: inherit; font-family: &quot;Helvetica Neue&quot;, sans-serif; font-size: 12px; font-weight: 200;" fill="rgb(50, 49, 63)" stroke="none" stroke-width="1px">0</text><text x="241" y="0" dx="0em" dy="0.95em" style="text-anchor: middle; visibility: inherit; font-family: &quot;Helvetica Neue&quot;, sans-serif; font-size: 12px; font-weight: 200;" fill="rgb(50, 49, 63)" stroke="none" stroke-width="1px">50</text><text x="361.5" y="0" dx="0em" dy="0.95em" style="text-anchor: middle; visibility: inherit; font-family: &quot;Helvetica Neue&quot;, sans-serif; font-size: 12px; font-weight: 200;" fill="rgb(50, 49, 63)" stroke="none" stroke-width="1px">100</text><text x="482" y="0" dx="0em" dy="0.95em" style="text-anchor: middle; visibility: inherit; font-family: &quot;Helvetica Neue&quot;, sans-serif; font-size: 12px; font-weight: 200;" fill="rgb(50, 49, 63)" stroke="none" stroke-width="1px">150</text><text x="602.5" y="0" dx="0em" dy="0.95em" style="text-anchor: middle; visibility: inherit; font-family: &quot;Helvetica Neue&quot;, sans-serif; font-size: 12px; font-weight: 200;" fill="rgb(50, 49, 63)" stroke="none" stroke-width="1px">200</text><text x="723" y="0" dx="0em" dy="0.95em" style="text-anchor: middle; visibility: inherit; font-family: &quot;Helvetica Neue&quot;, sans-serif; font-size: 12px; font-weight: 200;" fill="rgb(50, 49, 63)" stroke="none" stroke-width="1px">250</text><text x="843.5" y="0" dx="0em" dy="0.95em" style="text-anchor: middle; visibility: inherit; font-family: &quot;Helvetica Neue&quot;, sans-serif; font-size: 12px; font-weight: 200;" fill="rgb(50, 49, 63)" stroke="none" stroke-width="1px">300</text><text x="964" y="0" dx="0em" dy="0.95em" style="text-anchor: middle; visibility: inherit; font-family: &quot;Helvetica Neue&quot;, sans-serif; font-size: 12px; font-weight: 200;" fill="rgb(50, 49, 63)" stroke="none" stroke-width="1px">350</text><text x="1084.5" y="0" dx="0em" dy="0.95em" style="text-anchor: middle; visibility: inherit; font-family: &quot;Helvetica Neue&quot;, sans-serif; font-size: 12px; font-weight: 200;" fill="rgb(50, 49, 63)" stroke="none" stroke-width="1px">400</text><text x="1205" y="0" dx="0em" dy="0.95em" style="text-anchor: middle; visibility: inherit; font-family: &quot;Helvetica Neue&quot;, sans-serif; font-size: 12px; font-weight: 200;" fill="rgb(50, 49, 63)" stroke="none" stroke-width="1px">450</text><text x="1325.5" y="0" dx="0em" dy="0.95em" style="text-anchor: middle; visibility: inherit; font-family: &quot;Helvetica Neue&quot;, sans-serif; font-size: 12px; font-weight: 200;" fill="rgb(50, 49, 63)" stroke="none" stroke-width="1px">500</text><text x="1446" y="0" dx="0em" dy="0.95em" style="text-anchor: middle; visibility: hidden; font-family: &quot;Helvetica Neue&quot;, sans-serif; font-size: 12px; font-weight: 200;" fill="rgb(50, 49, 63)" stroke="none" stroke-width="1px">550</text></g><line x1="0" y1="0" x2="1446" y2="0" fill="rgb(0, 0, 0)" stroke="rgb(204, 204, 204)" stroke-width="1px"></line></g></g></g></g></svg>