<svg viewBox="0 0 1496 400" xmlns="http://www.w3.org/2000/svg"><g><g><g><g><g><line x1="50" y1="378" x2="45" y2="378" style="visibility: inherit;" fill="rgb(0, 0, 0)" stroke="rgb(204, 204, 204)" stroke-width="1px"></line><line x1="50" y1="348.9230769230769" x2="45" y2="348.9230769230769" style="visibility: inherit;" fill="rgb(0, 0, 0)" stroke="rgb(204, 204, 204)" stroke-width="1px"></line><line x1="50" y1="319.8461538461538" x2="45" y2="319.8461538461538" style="visibility: inherit;" fill="rgb(0, 0, 0)" stroke="rgb(204, 204, 204)" stroke-width="1px"></line><line x1="50" y1="290.7692307692308" x2="45" y2="290.7692307692308" style="visibility: inherit;" fill="rgb(0, 0, 0)" stroke="rgb(204, 204, 204)" stroke-width="1px"></line><line x1="50" y1="261.6923076923077" x2="45" y2="261.6923076923077" style="visibility: inherit;" fill="rgb(0, 0, 0)" stroke="rgb(204, 204, 204)" stroke-width="1px"></line><line x1="50" y1="232.6153846153846" x2="45" y2="232.6153846153846" style="visibility: inherit;" fill="rgb(0, 0, 0)" stroke="rgb(204, 204, 204)" stroke-width="1px"></line><line x1="50" y1="203.53846153846152" x2="45" y2="203.53846153846152" style="visibility: inherit;" fill="rgb(0, 0, 0)" stroke="rgb(204, 204, 204)" stroke-width="1px"></line><line x1="50" y1="174.46153846153848" x2="45" y2="174.46153846153848" style="visibility: inherit;" fill="rgb(0, 0, 0)" stroke="rgb(204, 204, 204)" stroke-width="1px"></line><line x1="50" y1="145.38461538461536" x2="45" y2="145.38461538461536" style="visibility: inherit;" fill="rgb(0, 0, 0)" stroke="rgb(204, 204, 204)" stroke-width="1px"></line><line x1="50" y1="116.30769230769232" x2="45" y2="116.30769230769232" style="visibility: inherit;" fill="rgb(0, 0, 0)" stroke="rgb(204, 204, 204)" stroke-width="1px"></line><line x1="50" y1="87.23076923076923" x2="45" y2="87.23076923076923" style="visibility: inherit;" fill="rgb(0, 0, 0)" stroke="rgb(204, 204, 204)" stroke-width="1px"></line><line x1="50" y1="58.15384615384613" x2="45" y2="58.15384615384613" style="visibility: inherit;" fill="rgb(0, 0, 0)" stroke="rgb(204, 204, 204)" stroke-width="1px"></line><line x1="50" y1="29.076923076923038" x2="45" y2="29.076923076923038" style="visibility: inherit;" fill="rgb(0, 0, 0)" stroke="rgb(204, 204, 204)" stroke-width="1px"></line><line x1="50" y1="0" x2="45" y2="0" style="visibility: inherit;" fill="rgb(0, 0, 0)" stroke="rgb(204, 204, 204)" stroke-width="1px"></line></g><g transform="translate(40, 0)"><text x="0" y="378" dx="0em" dy="0.3em" style="text-anchor: end; visibility: hidden; font-family: &quot;Helvetica Neue&quot;, sans-serif; font-size: 12px; font-weight: 200;" fill="rgb(50, 49, 63)" stroke="none" stroke-width="1px">-0.5</text><text x="0" y="348.9230769230769" dx="0em" dy="0.3em" style="text-anchor: end; visibility: inherit; font-family: &quot;Helvetica Neue&quot;, sans-serif; font-size: 12px; font-weight: 200;" fill="rgb(50, 49, 63)" stroke="none" stroke-width="1px">0</text><text x="0" y="319.8461538461538" dx="0em" dy="0.3em" style="text-anchor: end; visibility: inherit; font-family: &quot;Helvetica Neue&quot;, sans-serif; font-size: 12px; font-weight: 200;" fill="rgb(50, 49, 63)" stroke="none" stroke-width="1px">0.5</text><text x="0" y="290.7692307692308" dx="0em" dy="0.3em" style="text-anchor: end; visibility: inherit; font-family: &quot;Helvetica Neue&quot;, sans-serif; font-size: 12px; font-weight: 200;" fill="rgb(50, 49, 63)" stroke="none" stroke-width="1px">1</text><text x="0" y="261.6923076923077" dx="0em" dy="0.3em" style="text-anchor: end; visibility: inherit; font-family: &quot;Helvetica Neue&quot;, sans-serif; font-size: 12px; font-weight: 200;" fill="rgb(50, 49, 63)" stroke="none" stroke-width="1px">1.5</text><text x="0" y="232.6153846153846" dx="0em" dy="0.3em" style="text-anchor: end; visibility: inherit; font-family: &quot;Helvetica Neue&quot;, sans-serif; font-size: 12px; font-weight: 200;" fill="rgb(50, 49, 63)" stroke="none" stroke-width="1px">2</text><text x="0" y="203.53846153846152" dx="0em" dy="0.3em" style="text-anchor: end; visibility: inherit; font-family: &quot;Helvetica Neue&quot;, sans-serif; font-size: 12px; font-weight: 200;" fill="rgb(50, 49, 63)" stroke="none" stroke-width="1px">2.5</text><text x="0" y="174.46153846153848" dx="0em" dy="0.3em" style="text-anchor: end; visibility: inherit; font-family: &quot;Helvetica Neue&quot;, sans-serif; font-size: 12px; font-weight: 200;" fill="rgb(50, 49, 63)" stroke="none" stroke-width="1px">3</text><text x="0" y="145.38461538461536" dx="0em" dy="0.3em" style="text-anchor: end; visibility: inherit; font-family: &quot;Helvetica Neue&quot;, sans-serif; font-size: 12px; font-weight: 200;" fill="rgb(50, 49, 63)" stroke="none" stroke-width="1px">3.5</text><text x="0" y="116.30769230769232" dx="0em" dy="0.3em" style="text-anchor: end; visibility: inherit; font-family: &quot;Helvetica Neue&quot;, sans-serif; font-size: 12px; font-weight: 200;" fill="rgb(50, 49, 63)" stroke="none" stroke-width="1px">4</text><text x="0" y="87.23076923076923" dx="0em" dy="0.3em" style="text-anchor: end; visibility: inherit; font-family: &quot;Helvetica Neue&quot;, sans-serif; font-size: 12px; font-weight: 200;" fill="rgb(50, 49, 63)" stroke="none" stroke-width="1px">4.5</text><text x="0" y="58.15384615384613" dx="0em" dy="0.3em" style="text-anchor: end; visibility: inherit; font-family: &quot;Helvetica Neue&quot;, sans-serif; font-size: 12px; font-weight: 200;" fill="rgb(50, 49, 63)" stroke="none" stroke-width="1px">5</text><text x="0" y="29.076923076923038" dx="0em" dy="0.3em" style="text-anchor: end; visibility: inherit; font-family: &quot;Helvetica Neue&quot;, sans-serif; font-size: 12px; font-weight: 200;" fill="rgb(50, 49, 63)" stroke="none" stroke-width="1px">5.5</text><text x="0" y="0" dx="0em" dy="0.3em" style="text-anchor: end; visibility: hidden; font-family: &quot;Helvetica Neue&quot;, sans-serif; font-size: 12px; font-weight: 200;" fill="rgb(50, 49, 63)" stroke="none" stroke-width="1px">6</text></g><line x1="50" y1="0" x2="50" y2="378" fill="rgb(0, 0, 0)" stroke="rgb(204, 204, 204)" stroke-width="1px"></line></g></g><g transform="translate(50, 0)" clip-path="url(#clip_0)"><clipPath id="clip_0"><rect width="1446" height="378"></rect></clipPath><g><g><g><line x1="0" y1="0" x2="0" y2="378" fill="rgb(0, 0, 0)" stroke="rgb(60, 60, 60)" stroke-width="1px" opacity="0.25"></line><line x1="120.5" y1="0" x2="120.5" y2="378" fill="rgb(0, 0, 0)" stroke="rgb(60, 60, 60)" stroke-width="1px" opacity="0.25"></line><line x1="241" y1="0" x2="241" y2="378" fill="rgb(0, 0, 0)" stroke="rgb(60, 60, 60)" stroke-width="1px" opacity="0.25"></line><line x1="361.5" y1="0" x2="361.5" y2="378" fill="rgb(0, 0, 0)" stroke="rgb(60, 60, 60)" stroke-width="1px" opacity="0.25"></line><line x1="482" y1="0" x2="482" y2="378" fill="rgb(0, 0, 0)" stroke="rgb(60, 60, 60)" stroke-width="1px" opacity="0.25"></line><line x1="602.5" y1="0" x2="602.5" y2="378" fill="rgb(0, 0, 0)" stroke="rgb(60, 60, 60)" stroke-width="1px" opacity="0.25"></line><line x1="723" y1="0" x2="723" y2="378" fill="rgb(0, 0, 0)" stroke="rgb(60, 60, 60)" stroke-width="1px" opacity="0.25"></line><line x1="843.5" y1="0" x2="843.5" y2="378" fill="rgb(0, 0, 0)" stroke="rgb(60, 60, 60)" stroke-width="1px" opacity="0.25"></line><line x1="964" y1="0" x2="964" y2="378" fill="rgb(0, 0, 0)" stroke="rgb(60, 60, 60)" stroke-width="1px" opacity="0.25"></line><line x1="1084.5" y1="0" x2="1084.5" y2="378" fill="rgb(0, 0, 0)" stroke="rgb(60, 60, 60)" stroke-width="1px" opacity="0.25"></line><line x1="1205" y1="0" x2="1205" y2="378" fill="rgb(0, 0, 0)" stroke="rgb(60, 60, 60)" stroke-width="1px" opacity="0.25"></line><line x1="1325.5" y1="0" x2="1325.5" y2="378" fill="rgb(0, 0, 0)" stroke="rgb(60, 60, 60)" stroke-width="1px" opacity="0.25"></line><line x1="1446" y1="0" x2="1446" y2="378" fill="rgb(0, 0, 0)" stroke="rgb(60, 60, 60)" stroke-width="1px" opacity="0.25"></line></g><g><line x1="0" y1="378" x2="1446" y2="378" fill="rgb(0, 0, 0)" stroke="rgb(60, 60, 60)" stroke-width="1px" opacity="0.25"></line><line x1="0" y1="348.9230769230769" x2="1446" y2="348.9230769230769" fill="rgb(0, 0, 0)" stroke="rgb(60, 60, 60)" stroke-width="1px" opacity="0.25"></line><line x1="0" y1="319.8461538461538" x2="1446" y2="319.8461538461538" fill="rgb(0, 0, 0)" stroke="rgb(60, 60, 60)" stroke-width="1px" opacity="0.25"></line><line x1="0" y1="290.7692307692308" x2="1446" y2="290.7692307692308" fill="rgb(0, 0, 0)" stroke="rgb(60, 60, 60)" stroke-width="1px" opacity="0.25"></line><line x1="0" y1="261.6923076923077" x2="1446" y2="261.6923076923077" fill="rgb(0, 0, 0)" stroke="rgb(60, 60, 60)" stroke-width="1px" opacity="0.25"></line><line x1="0" y1="232.6153846153846" x2="1446" y2="232.6153846153846" fill="rgb(0, 0, 0)" stroke="rgb(60, 60, 60)" stroke-width="1px" opacity="0.25"></line><line x1="0" y1="203.53846153846152" x2="1446" y2="203.53846153846152" fill="rgb(0, 0, 0)" stroke="rgb(60, 60, 60)" stroke-width="1px" opacity="0.25"></line><line x1="0" y1="174.46153846153848" x2="1446" y2="174.46153846153848" fill="rgb(0, 0, 0)" stroke="rgb(60, 60, 60)" stroke-width="1px" opacity="0.25"></line><line x1="0" y1="145.38461538461536" x2="1446" y2="145.38461538461536" fill="rgb(0, 0, 0)" stroke="rgb(60, 60, 60)" stroke-width="1px" opacity="0.25"></line><line x1="0" y1="116.30769230769232" x2="1446" y2="116.30769230769232" fill="rgb(0, 0, 0)" stroke="rgb(60, 60, 60)" stroke-width="1px" opacity="0.25"></line><line x1="0" y1="87.23076923076923" x2="1446" y2="87.23076923076923" fill="rgb(0, 0, 0)" stroke="rgb(60, 60, 60)" stroke-width="1px" opacity="0.25"></line><line x1="0" y1="58.15384615384613" x2="1446" y2="58.15384615384613" fill="rgb(0, 0, 0)" stroke="rgb(60, 60, 60)" stroke-width="1px" opacity="0.25"></line><line x1="0" y1="29.076923076923038" x2="1446" y2="29.076923076923038" fill="rgb(0, 0, 0)" stroke="rgb(60, 60, 60)" stroke-width="1px" opacity="0.25"></line><line x1="0" y1="0" x2="1446" y2="0" fill="rgb(0, 0, 0)" stroke="rgb(60, 60, 60)" stroke-width="1px" opacity="0.25"></line></g></g></g><g><g><line x1="0" y1="348.9230769230769" x2="1446" y2="348.9230769230769" fill="rgb(0, 0, 0)" stroke="rgb(153, 153, 153)" stroke-width="1.5px"></line></g></g><g><g><line x1="120.5" y1="0" x2="120.5" y2="378" fill="rgb(0, 0, 0)" stroke="rgb(153, 153, 153)" stroke-width="1.5px"></line></g></g><g><g><g><g><g><path stroke="rgb(255, 112, 67)" stroke-width="2px" d="M120.5,77.5427134587215L122.91000000000001,114.57709605877216L125.32000000000001,181.63575267791748L127.73,224.15383683718167L130.14,230.1985423014714L132.54999999999998,234.79196108304538L134.96,226.31306824317343L137.37,254.77089324364294L139.78,253.78248816270093L142.19,268.97426649240344L144.6,260.0561318030724L147.01,246.85893851060135L149.42,257.29098789508527L151.82999999999998,252.01919834430402L154.24,266.4316274202787L156.65,283.827746794774L159.06,273.26949163583606L161.47,274.6910934448242L163.88,230.37788552504318L166.29000000000002,293.8488596402682L168.7,287.26673456338733L171.10999999999999,271.5623826246995L173.51999999999998,267.566543505742L175.93,291.26817512512207L178.34,297.81185267521784L180.75,289.4472902738131L183.16000000000003,285.65222960252026L185.57,286.09212310497577L187.98000000000002,294.59301963219275L190.39,290.4748083994939L192.8,300.0348351551936L195.21,298.50751304626465L197.61999999999998,293.29521802755505L200.03,285.18488348447363L202.44000000000003,294.1866100017841L204.85,302.7163595052866L207.26000000000002,305.5463082240178L209.67,296.4150830048781L212.08,300.16373766385595L214.49,287.5223905123197L216.9,294.60100584763745L219.31,292.1232825059157L221.71999999999997,312.6190725473257L224.13,305.93412494659424L226.54000000000002,306.0718732980581L228.95,305.8976462437556L231.36,312.68964518033545L233.76999999999998,294.26013587071344L236.18,307.5045740054204L238.59,296.2476636446439L241,309.9888901343712L243.41,277.7437688387357L245.82000000000002,315.0461749296922L248.23,309.7301700298603L250.64000000000001,315.2012544778677L253.04999999999998,300.3442039489746L255.46,308.6851404630221L257.87,299.0441284913283L260.28,311.42543836740344L262.69,307.19722256293664L265.09999999999997,309.04074888962964L267.51,303.4207409345187L269.92,300.67418993436377L272.33,309.726592870859L274.74,313.91566790067236L277.15000000000003,296.5243042065547L279.56,294.84518161186804L281.97,318.56246676811804L284.38,313.4806271332961L286.79,290.54264963590185L289.2,296.60928946274976L291.61,320.1725626725417L294.02,292.05008246348456L296.43,309.4345136789175L298.84,317.7111306557289L301.25,297.91312232384314L303.65999999999997,311.95458060044507L306.07,300.97569729731634L308.48,311.4164261451134L310.89,302.62779015761157L313.3,312.688841012808L315.71,311.1042289000291L318.12,308.7977169843821L320.53000000000003,296.46996050614575L322.94,309.2115790293767L325.35,323.81487310849707L327.76,320.1911417154165L330.17,273.65494438318103L332.58000000000004,306.6214802081768L334.99,304.92674567149237L337.4,298.1150515629695L339.81,310.4217956983126L342.21999999999997,307.7258379275982L344.63,319.13869439638574L347.03999999999996,307.59235998300403L349.45,301.16744965773364L351.86,304.99495432927057L354.27,311.9532079696655L356.68,302.76151767143836L359.09,305.14623487912695L361.5,313.8323672367976L363.90999999999997,310.9740785452036L366.32000000000005,318.69462754176215L368.73,306.14824148324817L371.14,288.1402892699608L373.55,303.02938864781305L375.96000000000004,319.645819077125L378.37,307.01194513761084L380.78,312.47390644366925L383.19,310.74203461867114L385.6,310.5805910550631L388.01,303.70124288705676L390.42,285.7360432698176L392.83,306.58576407799353L395.23999999999995,311.5820846557617L397.65000000000003,313.9133385878343L400.06,321.2852809612568L402.46999999999997,297.28384736868054L404.88000000000005,313.98764089437634L407.29,307.92141701624945L409.7,309.47205998347357L412.10999999999996,313.0787513439472L414.52000000000004,313.8317017188439L416.93,309.4266245181744L419.34,314.1255764227647L421.75,303.55230551499585L424.16,300.56274340702936L426.57,310.1611067698552L428.98,302.11235343492945L431.39,307.5689836648794L433.8,315.7789032642658L436.21000000000004,305.3627084585337L438.62,302.3207229467539L441.03,316.53981905717114L443.43999999999994,293.9412279862624L445.85,300.620303777548L448.26,315.645307467534L450.66999999999996,314.7746020096999L453.08000000000004,311.4488146855281L455.49,304.94770255455603L457.9,318.9794553609995L460.31000000000006,310.4258304009071L462.72,314.99964413276086L465.13,316.52924009469837L467.53999999999996,299.8914021712083L469.95,313.66706921504095L472.36,318.48308988717883L474.77,307.1807371286245L477.18,305.52552465292126L479.59,305.40184923318714L482,317.5938608462994L484.41,317.64403812701886L486.82,310.3763325030987L489.22999999999996,319.858812552232L491.64000000000004,298.37687741793115L494.05,298.23362467839166L496.46,310.14609795350293L498.86999999999995,280.79264523432806L501.28000000000003,308.53175243964563L503.69,285.9331752336942L506.09999999999997,305.7220465586736L508.51000000000005,317.78454560499927L510.92,321.1325307259193L513.3299999999999,314.688251055204L515.74,303.67477468343884L518.15,319.9539816196148L520.56,305.26417020651013L522.97,311.42554928706244L525.38,312.9470481138963L527.79,309.04069342980017L530.1999999999999,319.9063000312218L532.61,284.33650060800403L535.02,304.2994464727549L537.43,293.44450202355017L539.84,325.2537367894099L542.25,314.9464442913349L544.66,319.7888222474318L547.07,290.9884912050687L549.48,320.4551027738131L551.89,307.0872179911687L554.3000000000001,308.20922580132117L556.71,317.3791342515212L559.12,300.85810859386737L561.53,308.4891038307777L563.94,320.946317415971L566.35,313.9017752133883L568.76,317.13877135056714L571.1700000000001,310.88441386589636L573.58,290.1268672943115L575.99,314.7571876232441L578.4,314.8399752836961L580.8100000000001,314.2200869046725L583.22,304.48199250147894L585.63,303.85517164377063L588.04,298.44215363722583L590.45,292.9507015668429L592.86,303.44619699624866L595.27,320.73907096569354L597.68,319.10110649695764L600.0899999999999,290.393379504864L602.5,319.94531602125903L604.91,315.266669346736L607.3199999999999,303.48639150766223L609.73,326.83007152263934L612.14,310.9617387331449L614.55,306.0736896074735L616.96,317.88910124852106L619.37,307.43511750147894L621.78,301.12857231727014L624.1899999999999,305.4202480316162L626.6,294.6856375474196L629.01,318.6626133551964L631.42,325.18144490168646L633.83,264.8685337213369L636.24,319.5132839496319L638.65,308.56168688260595L641.0600000000001,308.23875122803906L643.47,314.5227034642146L645.88,322.92126967356756L648.29,311.64978724259595L650.7,322.28683002178485L653.11,318.0682226327749L655.52,326.0244343097393L657.9300000000001,307.8182617334219L660.34,312.3685327676626L662.75,310.95003670912524L665.1600000000001,311.56450388981744L667.57,310.7188801398644L669.98,309.42441998995264L672.39,309.74958097017725L674.8,316.1556418859042L677.21,320.30989507528454L679.62,307.09577266986554L682.03,315.25236071073095L684.4399999999999,294.2141180772048L686.85,308.9424186119667L689.26,321.3021546143752L691.67,312.1843229440542L694.0799999999999,318.6582320286677L696.49,325.038719030527L698.9,293.36708703407874L701.31,310.30781188377966L703.72,317.39251393538257L706.13,319.72189609821027L708.54,319.1435194015503L710.9499999999999,319.0416535597581L713.36,323.64559584397534L715.77,331.03632523463324L718.18,308.5139498343834L720.59,289.3283566694993L723,322.4692096710205L725.4100000000001,310.488021667187L727.8199999999999,318.0437648479755L730.23,316.01010836087744L732.6400000000001,321.7285713782677L735.05,306.81610261476953L737.46,320.65395399240344L739.8700000000001,322.021468602694L742.28,310.8836235633263L744.69,318.9314826085017L747.1,314.114643903879L749.51,319.81544296558087L751.9200000000001,320.05719236227185L754.3299999999999,310.9508270116953L756.74,316.23380558307355L759.15,316.06169986724854L761.56,314.926062804002L763.97,313.8432027009817L766.38,309.0819000831017L768.79,301.3508275838999L771.2,324.9792383634127L773.61,319.15687135549695L776.02,313.6961024357722L778.43,311.172818844135L780.84,315.0131763311533L783.25,322.37742365323584L785.66,321.3191530521099L788.07,322.4744506249061L790.4799999999999,308.8164832041814L792.89,310.03957348603467L795.3000000000001,297.95141733609717L797.7099999999999,320.13821917313794L800.12,305.3739668039175L802.5300000000001,280.3056802016038L804.9399999999999,304.630333680373L807.35,313.6882964647733L809.7600000000001,319.86096162062427L812.17,276.5656911409818L814.58,307.10073632460376L816.9899999999999,307.90550004518946L819.4,296.9719690176157L821.8100000000001,321.56490248900195L824.2199999999999,310.8373007407555L826.63,309.33360451918384L829.0400000000001,326.4745878806481L831.4499999999999,309.48781057504505L833.86,313.90070067919214L836.2700000000001,314.91412507570703L838.68,307.2162175545326L841.09,317.1674718123216L843.5,315.4008682691134L845.91,316.6701011290917L848.32,318.15932926764856L850.73,323.4869668667133L853.14,313.55491557488074L855.55,318.73993822244495L857.96,323.06136813530554L860.37,324.00422683128943L862.78,302.6609551356389L865.19,316.97584423652063L867.6,299.4093453333928L870.01,309.8853743626521L872.4200000000001,238.53774569584772L874.8299999999999,321.86658316392163L877.24,312.8649675662701L879.65,314.66809140718897L882.06,320.6570736078115L884.47,310.47782399104193L886.8799999999999,322.50383046957165L889.29,309.8911699148325L891.7,320.8180596278264L894.1099999999999,300.71742087144116L896.52,302.2872529396644L898.9300000000001,316.318035199092L901.3399999999999,295.9955987196702L903.75,311.3333889154287L906.1600000000001,317.87104907402625L908.5699999999999,328.2716943300687L910.98,315.7848859933706L913.3900000000001,308.6318851617666L915.8,317.95444679260254L918.21,315.7785358428955L920.6200000000001,318.4240944935725L923.03,308.70180614177997L925.44,317.8073673248291L927.85,317.0047804025503L930.26,315.4098111666166L932.6700000000001,300.6007056603065L935.0799999999999,313.1102525270902L937.49,317.7040387300344L939.9,311.843744131235L942.31,315.0219112542959L944.72,322.33692411276013L947.13,320.33501837803766L949.54,309.9735554915208L951.95,314.3416409859291L954.36,315.5419580753033L956.77,320.9825812119704L959.18,319.74377500093897L961.59,322.2305660247803L964,322.2630654848539L966.41,303.65350583883435L968.82,322.54430228013257L971.2299999999999,317.8116931915283L973.64,325.8672472880437L976.0500000000001,321.0419370944683L978.4599999999999,320.50677746992847L980.87,315.143784229572L983.2800000000001,309.3723154801589L985.6899999999999,303.620604294997L988.1,315.71565826122577L990.5100000000001,321.2954439750084L992.92,322.3135339296781L995.33,323.1619722659771L997.7399999999999,319.93677520751953L1000.15,322.48819079765906L1002.5600000000001,291.93299983097955L1004.9699999999999,316.7774921563955L1007.38,311.08705021784857L1009.7900000000001,308.10778977320746L1012.1999999999999,324.7771427447979L1014.61,310.4017053750845L1017.0200000000001,321.0015484736516L1019.43,317.1096410751343L1021.84,324.7847407414363L1024.25,316.91517118307263L1026.6599999999999,288.29563918480505L1029.07,320.92678862351636L1031.48,318.948273071876L1033.8899999999999,312.1470816685603L1036.3,315.61358444507306L1038.71,326.8225567157452L1041.12,302.8226205385648L1043.53,306.44339176324695L1045.94,309.89476093879114L1048.35,314.7448894060575L1050.76,317.13200525137097L1053.17,313.05572164975683L1055.58,312.3970391200139L1057.99,318.0346555709839L1060.3999999999999,298.6083806111262L1062.81,322.1127138871413L1065.22,324.6398103420551L1067.6299999999999,329.81950191351086L1070.04,321.73465809455286L1072.45,313.68553733825684L1074.86,320.68620388324445L1077.27,323.65941920647253L1079.68,322.2549267548781L1082.09,316.5627655616173L1084.5,305.7997041848989L1086.91,310.06438482724707L1089.32,310.07859640855054L1091.73,322.8231889651372L1094.14,307.896321443411L1096.55,329.1354534442608L1098.96,324.12151050567627L1101.3700000000001,317.8155337847196L1103.78,314.20694985756506L1106.19,304.85690788122326L1108.6000000000001,303.38069200515747L1111.01,316.43084049224854L1113.42,314.9933078472431L1115.83,319.22386682950537L1118.24,320.70578120304987L1120.65,327.6259616705088L1123.06,325.74278156573956L1125.47,300.10985843951886L1127.88,324.1234377347506L1130.29,322.83514749086817L1132.7,319.85895120180567L1135.1100000000001,318.07177206186145L1137.52,321.3658502285297L1139.93,312.1764476482685L1142.3400000000001,309.5055923828712L1144.75,319.8209750835712L1147.16,315.6971901380099L1149.5700000000002,313.6826950219961L1151.98,286.94689772679254L1154.39,317.70702662834753L1156.8,314.9213071236244L1159.21,289.76036101121167L1161.6200000000001,323.8861805842473L1164.03,321.8696889143724L1166.44,320.0630849691538L1168.85,315.895694732666L1171.26,303.96213978987475L1173.67,313.7410456950848L1176.08,314.26485685201794L1178.49,325.4617666097788L1180.9,282.966864659236L1183.31,322.8500245901255L1185.72,305.5659063412593L1188.1299999999999,320.66013776339014L1190.54,323.1395803598257L1192.95,317.56797497089093L1195.36,307.86276131409863L1197.77,324.2232515628521L1200.1799999999998,321.6942140139066L1202.59,308.5134160335247L1205,307.0120560572698L1207.4099999999999,323.36130875807544L1209.82,318.75231962937573L1212.23,305.66214301035956L1214.6399999999999,302.8927217630239L1217.05,321.598337833698L1219.46,313.6044273376465L1221.87,306.74026129795953L1224.28,311.12886692927435L1226.69,328.13301702646106L1229.1,321.45781649076025L1231.51,328.54325338510364L1233.92,319.815110206604L1236.33,324.6483234258799L1238.74,324.15839129227857L1241.1499999999999,306.2293792137733L1243.56,314.54377819941595L1245.97,313.0048788510836L1248.3799999999999,292.57684685633734L1250.79,322.6979537376991L1253.2,310.42359814277063L1255.61,323.2278169485239L1258.02,309.2733751443716L1260.43,299.4781709817739L1262.84,307.6327347388634L1265.25,319.706755564763L1267.66,329.60842873499945L1270.07,323.8269494863657L1272.48,322.6512149664072L1274.89,324.85905691293567L1277.3,313.80783319473267L1279.71,325.75595327524036L1282.1200000000001,317.97969487997204L1284.53,316.2089595794678L1286.94,294.1507829519419L1289.3500000000001,322.8723887663621L1291.76,325.4292532847478L1294.17,323.2259590442364L1296.58,327.2238917717567L1298.99,320.1807707273043L1301.4,317.68665900597205L1303.81,323.25644808549146L1306.22,319.6809736765348L1308.63,309.539318891672L1311.04,320.461369734544L1313.45,321.54480523329516L1315.8600000000001,303.2029640491192L1318.27,323.84149382664606L1320.68,303.21659330221325L1323.0900000000001,326.1095651479868" style="fill: none;" fill="none"></path></g></g></g></g></g></g><g transform="translate(50, 378)" clip-path="url(#clip_1)"><clipPath id="clip_1"><rect width="1446" height="22"></rect></clipPath><g><g><line x1="0" y1="0" x2="0" y2="5" style="visibility: inherit;" fill="rgb(0, 0, 0)" stroke="rgb(204, 204, 204)" stroke-width="1px"></line><line x1="120.5" y1="0" x2="120.5" y2="5" style="visibility: inherit;" fill="rgb(0, 0, 0)" stroke="rgb(204, 204, 204)" stroke-width="1px"></line><line x1="241" y1="0" x2="241" y2="5" style="visibility: inherit;" fill="rgb(0, 0, 0)" stroke="rgb(204, 204, 204)" stroke-width="1px"></line><line x1="361.5" y1="0" x2="361.5" y2="5" style="visibility: inherit;" fill="rgb(0, 0, 0)" stroke="rgb(204, 204, 204)" stroke-width="1px"></line><line x1="482" y1="0" x2="482" y2="5" style="visibility: inherit;" fill="rgb(0, 0, 0)" stroke="rgb(204, 204, 204)" stroke-width="1px"></line><line x1="602.5" y1="0" x2="602.5" y2="5" style="visibility: inherit;" fill="rgb(0, 0, 0)" stroke="rgb(204, 204, 204)" stroke-width="1px"></line><line x1="723" y1="0" x2="723" y2="5" style="visibility: inherit;" fill="rgb(0, 0, 0)" stroke="rgb(204, 204, 204)" stroke-width="1px"></line><line x1="843.5" y1="0" x2="843.5" y2="5" style="visibility: inherit;" fill="rgb(0, 0, 0)" stroke="rgb(204, 204, 204)" stroke-width="1px"></line><line x1="964" y1="0" x2="964" y2="5" style="visibility: inherit;" fill="rgb(0, 0, 0)" stroke="rgb(204, 204, 204)" stroke-width="1px"></line><line x1="1084.5" y1="0" x2="1084.5" y2="5" style="visibility: inherit;" fill="rgb(0, 0, 0)" stroke="rgb(204, 204, 204)" stroke-width="1px"></line><line x1="1205" y1="0" x2="1205" y2="5" style="visibility: inherit;" fill="rgb(0, 0, 0)" stroke="rgb(204, 204, 204)" stroke-width="1px"></line><line x1="1325.5" y1="0" x2="1325.5" y2="5" style="visibility: inherit;" fill="rgb(0, 0, 0)" stroke="rgb(204, 204, 204)" stroke-width="1px"></line><line x1="1446" y1="0" x2="1446" y2="5" style="visibility: inherit;" fill="rgb(0, 0, 0)" stroke="rgb(204, 204, 204)" stroke-width="1px"></line></g><g transform="translate(0, 8)"><text x="0" y="0" dx="0em" dy="0.95em" style="text-anchor: middle; visibility: hidden; font-family: &quot;Helvetica Neue&quot;, sans-serif; font-size: 12px; font-weight: 200;" fill="rgb(50, 49, 63)" stroke="none" stroke-width="1px">-50</text><text x="120.5" y="0" dx="0em" dy="0.95em" style="text-anchor: middle; visibility: inherit; font-family: &quot;Helvetica Neue&quot;, sans-serif; font-size: 12px; font-weight: 200;" fill="rgb(50, 49, 63)" stroke="none" stroke-width="1px">0</text><text x="241" y="0" dx="0em" dy="0.95em" style="text-anchor: middle; visibility: inherit; font-family: &quot;Helvetica Neue&quot;, sans-serif; font-size: 12px; font-weight: 200;" fill="rgb(50, 49, 63)" stroke="none" stroke-width="1px">50</text><text x="361.5" y="0" dx="0em" dy="0.95em" style="text-anchor: middle; visibility: inherit; font-family: &quot;Helvetica Neue&quot;, sans-serif; font-size: 12px; font-weight: 200;" fill="rgb(50, 49, 63)" stroke="none" stroke-width="1px">100</text><text x="482" y="0" dx="0em" dy="0.95em" style="text-anchor: middle; visibility: inherit; font-family: &quot;Helvetica Neue&quot;, sans-serif; font-size: 12px; font-weight: 200;" fill="rgb(50, 49, 63)" stroke="none" stroke-width="1px">150</text><text x="602.5" y="0" dx="0em" dy="0.95em" style="text-anchor: middle; visibility: inherit; font-family: &quot;Helvetica Neue&quot;, sans-serif; font-size: 12px; font-weight: 200;" fill="rgb(50, 49, 63)" stroke="none" stroke-width="1px">200</text><text x="723" y="0" dx="0em" dy="0.95em" style="text-anchor: middle; visibility: inherit; font-family: &quot;Helvetica Neue&quot;, sans-serif; font-size: 12px; font-weight: 200;" fill="rgb(50, 49, 63)" stroke="none" stroke-width="1px">250</text><text x="843.5" y="0" dx="0em" dy="0.95em" style="text-anchor: middle; visibility: inherit; font-family: &quot;Helvetica Neue&quot;, sans-serif; font-size: 12px; font-weight: 200;" fill="rgb(50, 49, 63)" stroke="none" stroke-width="1px">300</text><text x="964" y="0" dx="0em" dy="0.95em" style="text-anchor: middle; visibility: inherit; font-family: &quot;Helvetica Neue&quot;, sans-serif; font-size: 12px; font-weight: 200;" fill="rgb(50, 49, 63)" stroke="none" stroke-width="1px">350</text><text x="1084.5" y="0" dx="0em" dy="0.95em" style="text-anchor: middle; visibility: inherit; font-family: &quot;Helvetica Neue&quot;, sans-serif; font-size: 12px; font-weight: 200;" fill="rgb(50, 49, 63)" stroke="none" stroke-width="1px">400</text><text x="1205" y="0" dx="0em" dy="0.95em" style="text-anchor: middle; visibility: inherit; font-family: &quot;Helvetica Neue&quot;, sans-serif; font-size: 12px; font-weight: 200;" fill="rgb(50, 49, 63)" stroke="none" stroke-width="1px">450</text><text x="1325.5" y="0" dx="0em" dy="0.95em" style="text-anchor: middle; visibility: inherit; font-family: &quot;Helvetica Neue&quot;, sans-serif; font-size: 12px; font-weight: 200;" fill="rgb(50, 49, 63)" stroke="none" stroke-width="1px">500</text><text x="1446" y="0" dx="0em" dy="0.95em" style="text-anchor: middle; visibility: hidden; font-family: &quot;Helvetica Neue&quot;, sans-serif; font-size: 12px; font-weight: 200;" fill="rgb(50, 49, 63)" stroke="none" stroke-width="1px">550</text></g><line x1="0" y1="0" x2="1446" y2="0" fill="rgb(0, 0, 0)" stroke="rgb(204, 204, 204)" stroke-width="1px"></line></g></g></g></g></svg>