<?xml version="1.0" encoding="utf-8" standalone="no"?>
<!DOCTYPE svg PUBLIC "-//W3C//DTD SVG 1.1//EN"
  "http://www.w3.org/Graphics/SVG/1.1/DTD/svg11.dtd">
<!-- Created with matplotlib (https://matplotlib.org/) -->
<svg height="288pt" version="1.1" viewBox="0 0 720 288" width="720pt" xmlns="http://www.w3.org/2000/svg" xmlns:xlink="http://www.w3.org/1999/xlink">
 <metadata>
  <rdf:RDF xmlns:cc="http://creativecommons.org/ns#" xmlns:dc="http://purl.org/dc/elements/1.1/" xmlns:rdf="http://www.w3.org/1999/02/22-rdf-syntax-ns#">
   <cc:Work>
    <dc:type rdf:resource="http://purl.org/dc/dcmitype/StillImage"/>
    <dc:date>2020-11-07T00:43:21.696910</dc:date>
    <dc:format>image/svg+xml</dc:format>
    <dc:creator>
     <cc:Agent>
      <dc:title>Matplotlib v3.3.2, https://matplotlib.org/</dc:title>
     </cc:Agent>
    </dc:creator>
   </cc:Work>
  </rdf:RDF>
 </metadata>
 <defs>
  <style type="text/css">*{stroke-linecap:butt;stroke-linejoin:round;}</style>
 </defs>
 <g id="figure_1">
  <g id="patch_1">
   <path d="M 0 288 
L 720 288 
L 720 0 
L 0 0 
z
" style="fill:#ffffff;"/>
  </g>
  <g id="axes_1">
   <g id="line2d_1">
    <path clip-path="url(#p09e7fb659d)" d="M 94.501864 245.981177 
L 94.041739 245.4418 
L 93.805028 244.788734 
L 93.696461 243.542392 
L 93.730729 241.275658 
L 93.648494 240.05767 
L 93.258611 238.413992 
L 92.679625 237.213634 
L 91.27444 235.529317 
L 89.893041 234.453863 
L 88.304807 233.527889 
L 86.961065 232.897009 
L 85.280839 232.237867 
L 82.491657 231.359202 
L 77.36817 230.192194 
L 74.463516 229.712483 
L 68.211034 229.059421 
L 63.761645 228.962705 
L 61.987324 229.046031 
L 59.901083 229.275195 
L 57.212977 229.901148 
L 55.293097 230.794588 
L 54.016452 231.924662 
L 53.353743 233.119448 
L 53.159335 233.901245 
L 53.110856 234.927347 
L 53.347806 236.370892 
L 53.714214 237.459323 
L 54.737837 239.472516 
L 55.35873 240.423024 
L 57.152437 242.673538 
L 59.098901 244.645213 
L 61.346992 246.547053 
L 63.094847 247.815846 
L 65.795573 249.47426 
L 67.700676 250.441059 
L 70.426551 251.537858 
L 72.270456 252.080611 
L 74.122673 252.448995 
L 76.262416 252.624027 
L 78.211196 252.504141 
L 79.853394 252.14385 
L 81.305576 251.569121 
L 82.748658 250.673348 
L 84.074777 249.42364 
L 85.129341 247.920725 
L 85.715372 246.679077 
L 86.092413 245.468604 
L 86.288575 244.310979 
L 86.309626 242.996255 
L 86.166846 242.028678 
L 85.729651 240.798213 
L 85.130458 239.881147 
L 84.428524 239.192666 
L 83.749578 238.727076 
L 82.360915 238.109618 
L 80.180809 237.595127 
L 77.371287 237.028281 
L 76.996611 236.737932 
L 76.985219 236.408446 
L 77.354991 235.9474 
L 78.1477 235.403466 
L 79.61071 234.696848 
L 81.661127 233.959203 
L 84.260968 233.269462 
L 87.05402 232.764867 
L 89.583029 232.538024 
L 81.609426 233.575532 
L 79.56363 234.261122 
L 77.702511 235.215167 
L 76.410548 236.229948 
L 75.626371 237.197501 
L 75.261714 237.97694 
L 75.132826 238.724743 
L 75.311159 239.636865 
L 75.835372 240.384733 
L 76.619577 240.950981 
L 78.207754 241.509455 
L 79.382743 241.690207 
L 80.853611 241.760118 
L 82.980119 241.663007 
L 86.233414 241.237163 
L 91.269368 240.240371 
L 97.334947 238.935804 
L 99.663433 238.532456 
L 99.663433 238.532456 
" style="fill:none;stroke:#000000;stroke-linecap:square;stroke-opacity:0.7;stroke-width:1.2;"/>
   </g>
   <g id="line2d_2">
    <path clip-path="url(#p09e7fb659d)" d="M 77.693438 210.058312 
L 74.301444 209.997556 
L 72.86804 209.449982 
L 72.826644 209.038996 
L 73.394612 208.134851 
L 74.56569 206.934457 
L 77.532577 203.998317 
L 79.398221 201.864214 
L 80.89325 199.863933 
L 82.420854 197.407606 
L 84.222136 193.469784 
L 84.357255 193.081949 
L 85.175456 189.784439 
L 85.331498 188.086113 
L 85.23985 186.315055 
L 85.100575 185.573029 
L 84.559648 184.081098 
L 84.436095 183.85405 
L 83.840335 183.018977 
L 83.217977 182.426316 
L 82.586117 181.998937 
L 81.169912 181.433984 
L 79.847097 181.222416 
L 77.689146 181.294324 
L 75.691525 181.684546 
L 73.967256 182.211808 
L 71.001952 183.462565 
L 69.099004 184.487015 
L 67.081851 185.820032 
L 66.00894 186.749301 
L 65.538057 187.63396 
L 65.89764 187.873327 
L 66.404434 187.889016 
L 68.163578 187.543065 
L 71.748533 186.311863 
L 75.309563 184.7811 
L 78.802266 183.047403 
L 81.818138 181.34613 
L 84.556649 179.592396 
L 87.745217 177.195032 
L 89.586027 175.553537 
L 91.513137 173.515569 
L 93.023303 171.548875 
L 93.871331 170.204293 
L 95.374417 166.876822 
L 96.001034 164.270653 
L 96.164745 162.563835 
L 96.132048 160.754526 
L 95.862848 158.802335 
L 95.3673 156.896927 
L 94.154597 153.975134 
L 93.657526 153.058275 
L 92.248089 150.892431 
L 91.035048 149.360682 
L 89.490657 147.704049 
L 87.684957 146.077416 
L 85.33364 144.361775 
L 83.531995 143.328586 
L 81.89053 142.610038 
L 79.929869 142.089627 
L 79.321356 142.025444 
L 78.141675 142.091356 
L 77.513232 142.272937 
L 76.665464 142.800193 
L 76.42997 143.04267 
L 75.842297 144.04714 
L 75.520088 145.267558 
L 75.380046 146.557117 
L 75.02704 153.560902 
L 74.90326 154.518679 
L 73.672778 161.28336 
L 72.887332 165.885323 
L 72.325357 171.761795 
L 72.279084 173.631981 
L 73.093373 182.459145 
L 73.903611 185.731809 
L 74.903765 188.61338 
L 75.686785 190.401998 
L 77.392511 193.456144 
L 79.195619 195.860753 
L 80.624244 197.336952 
L 83.543925 199.424459 
L 85.214491 200.110568 
L 86.320069 200.356554 
L 87.370682 200.421305 
L 88.531275 200.272766 
L 89.476986 199.949638 
L 91.530905 198.497072 
L 93.493661 196.352685 
L 96.017091 193.458935 
L 103.392977 185.599407 
L 103.392977 185.599407 
" style="fill:none;stroke:#000000;stroke-linecap:square;stroke-opacity:0.7;stroke-width:1.2;"/>
   </g>
   <g id="line2d_3">
    <path clip-path="url(#p09e7fb659d)" d="M 96.1191 159.067922 
L 93.575325 162.651089 
L 93.257067 163.589509 
L 93.411256 163.838021 
L 93.507819 163.886405 
L 94.041153 163.744289 
L 94.285692 163.252076 
L 94.412296 162.110937 
L 94.352101 160.243206 
L 93.915658 155.88253 
L 93.405752 152.386185 
L 92.65312 148.738683 
L 91.960814 146.41167 
L 91.094707 144.354079 
L 90.351961 143.077268 
L 89.541244 142.026557 
L 89.158739 141.623957 
L 87.029453 140.114902 
L 85.654503 139.58518 
L 83.624018 139.211905 
L 82.734552 139.171296 
L 80.821663 139.317595 
L 79.373567 139.670446 
L 78.283809 140.141025 
L 77.528941 140.652612 
L 77.085181 141.094926 
L 76.63845 141.808538 
L 76.468596 142.314297 
L 76.388087 143.275914 
L 76.634599 144.545036 
L 77.371121 146.196043 
L 78.381308 147.765134 
L 79.855117 149.608398 
L 82.057035 151.927195 
L 85.459952 154.977256 
L 88.425626 157.279996 
L 91.20814 159.171563 
L 93.110068 160.297743 
L 95.440342 161.435256 
L 97.083112 161.9963 
L 98.434996 162.182513 
L 99.012639 162.111449 
L 99.626648 161.79295 
L 99.792252 161.602 
L 100.040737 160.792216 
L 99.675508 158.988309 
L 99.059616 157.653124 
L 98.088869 156.039309 
L 96.776621 154.223345 
L 95.517781 152.690192 
L 92.638756 149.638369 
L 90.334268 147.51388 
L 87.477141 145.192471 
L 84.745375 143.285473 
L 84.077966 142.819033 
L 87.34739 143.629862 
L 90.152912 143.984928 
L 92.00475 144.046226 
L 94.607391 143.8849 
L 96.772858 143.501947 
L 98.94325 142.844957 
L 100.526216 142.152001 
L 102.484625 140.968221 
L 104.067361 139.655755 
L 105.603126 137.98776 
L 106.545428 137.016675 
L 106.767503 137.047425 
L 106.907584 137.321717 
L 107.077387 138.614585 
L 107.145189 141.35181 
L 107.041137 147.86317 
L 106.85521 156.048681 
L 106.969948 157.68304 
L 107.169522 158.499912 
L 107.420935 158.919894 
L 107.798161 159.145897 
L 108.79274 159.035586 
L 112.522393 157.556377 
L 112.522393 157.556377 
" style="fill:none;stroke:#000000;stroke-linecap:square;stroke-opacity:0.7;stroke-width:1.2;"/>
   </g>
   <g id="line2d_4">
    <path clip-path="url(#p09e7fb659d)" d="M 81.699444 101.77642 
L 77.967662 109.257151 
L 72.484632 121.298716 
L 72.156252 121.597786 
L 71.738128 121.463326 
L 71.40742 120.984399 
L 68.869338 116.183845 
L 67.775424 114.737699 
L 66.588465 113.667876 
L 65.870752 113.340805 
L 65.21787 113.390204 
L 64.877061 113.680401 
L 64.601461 114.326461 
L 64.538961 114.695667 
L 64.607568 116.335287 
L 64.947246 117.765246 
L 65.616605 119.424192 
L 66.346859 120.639948 
L 66.877675 121.302434 
L 68.647687 122.667326 
L 70.096636 123.148941 
L 71.062084 123.259239 
L 72.368837 123.213966 
L 74.624709 122.766097 
L 76.780654 122.051741 
L 79.825922 120.760478 
L 82.88897 119.271089 
L 89.983498 115.51018 
L 97.297867 111.389841 
L 99.917925 109.651426 
L 101.197653 108.480134 
L 101.648682 107.833184 
L 101.909818 107.128588 
L 101.954404 106.512819 
L 101.755132 105.567193 
L 101.251747 104.476165 
L 100.0471 102.608285 
L 97.356371 99.010508 
L 92.282389 92.239326 
L 91.344872 90.662857 
L 91.218721 90.09109 
L 91.37016 89.837897 
L 91.682125 89.741363 
L 92.506343 89.79424 
L 94.268099 90.197726 
L 97.259246 91.107895 
L 97.900142 91.484263 
L 97.851178 91.568887 
L 97.16775 91.748869 
L 94.514393 91.997743 
L 87.145341 92.646079 
L 81.504689 93.409163 
L 78.464166 94.006454 
L 75.441865 94.887898 
L 74.652789 95.222127 
L 73.757732 95.733197 
L 72.996044 96.540239 
L 72.861092 97.078241 
L 72.991941 97.647582 
L 74.092355 98.897535 
L 75.996518 100.108466 
L 79.165227 101.593773 
L 83.918856 103.405629 
L 90.968811 105.757823 
L 97.522378 107.952061 
L 99.797295 108.884266 
L 101.513037 109.889129 
L 102.103778 110.468444 
L 102.527484 112.135001 
L 101.953903 113.731693 
L 100.578798 115.959073 
L 90.253976 129.952735 
L 90.253976 129.952735 
" style="fill:none;stroke:#000000;stroke-linecap:square;stroke-opacity:0.7;stroke-width:1.2;"/>
   </g>
   <g id="line2d_5">
    <path clip-path="url(#p09e7fb659d)" d="M 81.213263 83.30119 
L 76.837719 78.644963 
L 75.543463 76.749493 
L 73.813022 73.387712 
L 72.751897 70.421178 
L 72.088136 67.785822 
L 71.369327 62.565356 
L 71.284474 57.798899 
L 71.468588 55.087395 
L 71.852898 52.312415 
L 72.444317 49.6918 
L 73.352446 47.099869 
L 74.537808 44.978727 
L 75.853783 43.590734 
L 76.734861 43.052752 
L 77.610271 42.759377 
L 78.257946 42.673892 
L 79.369003 42.752388 
L 80.833231 43.22957 
L 81.761619 43.724521 
L 82.695823 44.358757 
L 84.540829 45.983079 
L 86.960438 48.820899 
L 89.314136 52.36365 
L 90.321604 54.138142 
L 92.436803 58.456701 
L 93.720938 61.552614 
L 95.240991 65.831331 
L 96.272443 69.248883 
L 97.420916 73.836973 
L 98.046218 77.138179 
L 98.235531 79.216744 
L 98.08357 79.812798 
L 97.818492 79.735645 
L 97.439192 79.252985 
L 96.60871 77.704544 
L 95.212319 74.505498 
L 93.211609 69.246738 
L 91.897973 65.915628 
L 91.571457 65.55947 
L 91.060478 65.389573 
L 90.049336 65.128538 
L 89.163348 64.716985 
L 88.392727 64.236509 
L 86.520364 62.683241 
L 84.953186 60.98083 
L 83.652128 59.208954 
L 82.89107 57.924233 
L 82.063791 56.049295 
L 81.747258 54.90029 
L 81.611977 53.580429 
L 81.713314 52.660452 
L 82.085663 51.699382 
L 82.292995 51.393613 
L 82.809911 50.880036 
L 83.882779 50.344043 
L 84.92189 50.17059 
L 85.327306 50.163578 
L 86.747022 50.342942 
L 88.384491 50.87475 
L 90.315222 51.897155 
L 91.626399 52.841153 
L 92.453766 53.553581 
L 93.68624 54.815897 
L 95.280279 56.946001 
L 96.504204 59.302983 
L 97.190064 61.463834 
L 97.425727 63.123868 
L 97.384766 64.635318 
L 97.233216 65.4728 
L 96.7105 66.853899 
L 95.773423 68.104545 
L 94.726227 68.892004 
L 94.0724 69.21577 
L 92.96461 69.577624 
L 91.635393 69.800682 
L 90.41855 69.870414 
L 87.446366 69.75081 
L 83.220019 69.530349 
L 81.336809 69.64856 
L 80.357166 69.805803 
L 78.634541 70.285532 
L 77.448167 70.792871 
L 75.981884 71.650545 
L 74.180177 73.099963 
L 73.097699 74.206157 
L 71.766376 75.841551 
L 70.803598 77.24014 
L 69.397172 79.687919 
L 68.403865 81.811084 
L 67.589661 83.938429 
L 66.545361 87.823239 
L 66.134314 91.032041 
L 66.104886 92.873492 
L 66.596286 96.634152 
L 70.625654 104.180477 
L 75.001406 108.054596 
L 75.001406 108.054596 
" style="fill:none;stroke:#000000;stroke-linecap:square;stroke-opacity:0.7;stroke-width:1.2;"/>
   </g>
   <g id="line2d_6">
    <path clip-path="url(#p09e7fb659d)" d="M 220.123984 263.127273 
L 215.696905 253.304405 
L 213.658971 248.343126 
L 211.91109 243.672746 
L 210.510932 239.532298 
L 209.030632 234.650299 
L 206.165119 223.591648 
L 204.9028 217.999036 
L 204.765664 217.079094 
L 204.852999 216.365525 
L 205.005846 216.331326 
L 205.385886 216.536457 
L 206.490372 217.559591 
L 211.721547 222.718898 
L 215.613452 226.127868 
L 219.666401 229.318969 
L 224.433642 232.668923 
L 228.721281 235.336103 
L 231.844739 237.064867 
L 235.77849 238.924789 
L 237.543607 239.592753 
L 239.232266 240.058769 
L 240.381552 240.182367 
L 241.247573 239.977043 
L 241.58861 239.55786 
L 241.632007 238.900266 
L 241.442987 238.202331 
L 240.886187 237.091889 
L 240.267928 236.24571 
L 239.573428 235.681334 
L 239.223778 235.633835 
L 238.983839 235.751617 
L 238.782171 235.981372 
L 238.349768 236.956268 
L 237.243949 240.101936 
L 236.593305 241.219918 
L 235.910698 241.954215 
L 235.291259 242.356095 
L 234.290516 242.639031 
L 233.202628 242.585236 
L 232.436187 242.381373 
L 230.963321 241.699453 
L 229.436804 240.679878 
L 228.977373 240.321636 
L 226.456781 238.001951 
L 224.427591 235.747742 
L 221.933944 232.522652 
L 220.001034 229.630802 
L 218.170149 226.464949 
L 216.677822 223.397831 
L 215.66916 220.860599 
L 214.954108 218.549711 
L 214.415007 215.807221 
L 214.303599 213.90299 
L 214.386821 212.741633 
L 214.811301 211.146036 
L 215.205476 210.467325 
L 215.688491 210.000097 
L 216.105237 209.798617 
L 216.670392 209.753087 
L 217.257917 209.958597 
L 217.673369 210.269106 
L 218.015594 210.647578 
L 218.450772 211.342582 
L 218.992647 212.801999 
L 219.256028 214.1514 
L 219.397725 216.184624 
L 219.354209 217.903342 
L 219.102263 220.514281 
L 218.594258 224.736902 
L 218.627932 226.263881 
L 218.774497 226.988378 
L 219.285624 228.151668 
L 220.060891 229.278416 
L 221.09652 230.818252 
L 221.668403 232.016464 
L 221.980299 233.002951 
L 222.211224 234.356835 
L 222.256594 235.578234 
L 222.092954 237.379049 
L 221.280951 240.518729 
L 219.760482 243.993005 
L 217.804654 247.326502 
L 214.839625 251.520609 
L 212.651999 254.54765 
L 211.55768 256.629878 
L 211.797334 258.734329 
L 213.384328 259.929572 
L 213.384328 259.929572 
" style="fill:none;stroke:#000000;stroke-linecap:square;stroke-opacity:0.7;stroke-width:1.2;"/>
   </g>
   <g id="line2d_7">
    <path clip-path="url(#p09e7fb659d)" d="M 231.3768 212.794038 
L 228.429475 210.656604 
L 224.190559 207.031967 
L 221.414781 204.16586 
L 218.9075 201.052862 
L 217.798855 199.431056 
L 215.601506 195.337831 
L 214.742654 192.918398 
L 214.358038 191.048193 
L 214.325003 189.241488 
L 214.510495 188.407306 
L 215.094538 187.570254 
L 215.514469 187.390859 
L 229.102066 184.881978 
L 233.022447 184.015993 
L 235.147578 183.392275 
L 236.797982 182.706619 
L 237.634915 182.177866 
L 238.220769 181.515994 
L 238.357092 181.064619 
L 238.261878 180.530929 
L 237.691012 179.809946 
L 237.272213 179.499007 
L 235.710267 178.765935 
L 234.020736 178.339463 
L 232.206255 178.169587 
L 230.732943 178.253683 
L 229.233796 178.605528 
L 228.176354 179.104689 
L 227.332409 179.782268 
L 226.69471 180.682988 
L 226.404586 181.451334 
L 226.255106 182.631947 
L 226.357998 183.771779 
L 226.785698 185.291118 
L 227.294801 186.421045 
L 227.061905 186.099656 
L 225.237088 183.762961 
L 222.859666 181.092128 
L 221.208211 179.508928 
L 220.224535 178.772941 
L 219.502714 178.487362 
L 219.082867 178.670439 
L 218.91982 179.290382 
L 218.975856 180.285685 
L 219.378371 182.467311 
L 220.980653 190.238382 
L 221.365785 193.586142 
L 221.393114 196.155774 
L 221.227537 197.557078 
L 220.924633 198.553198 
L 220.597413 198.981014 
L 220.202657 198.937309 
L 219.9969 198.635681 
L 219.749116 197.672787 
L 219.709091 196.02969 
L 219.940168 194.252652 
L 220.410077 192.480942 
L 221.180387 190.69623 
L 222.083663 189.346891 
L 223.142899 188.318721 
L 223.873853 187.833271 
L 225.519189 187.165139 
L 227.149133 186.867091 
L 229.09938 186.78013 
L 231.131315 186.865243 
L 236.233048 187.395054 
L 239.869827 187.815421 
L 245.527367 188.295049 
L 250.649543 188.403863 
L 254.775583 188.183591 
L 259.546592 187.490564 
L 263.424652 186.488594 
L 266.93071 185.144069 
L 266.93071 185.144069 
" style="fill:none;stroke:#000000;stroke-linecap:square;stroke-opacity:0.7;stroke-width:1.2;"/>
   </g>
   <g id="line2d_8">
    <path clip-path="url(#p09e7fb659d)" d="M 210.895961 166.454181 
L 211.700986 170.737373 
L 213.302429 163.903931 
L 214.159068 161.144143 
L 215.190702 158.431699 
L 216.185266 156.223872 
L 217.339819 154.002531 
L 219.191964 150.963058 
L 221.808483 147.386115 
L 224.563162 144.192317 
L 225.65883 143.034683 
L 230.202052 138.692756 
L 233.693744 135.691384 
L 240.662644 130.144259 
L 248.832691 123.76545 
L 251.93801 121.120234 
L 254.430976 118.639519 
L 255.555727 117.206352 
L 256.255923 115.926093 
L 256.52934 114.754614 
L 256.18057 113.424023 
L 255.304257 112.531057 
L 254.220849 111.931338 
L 252.947834 111.476644 
L 251.622591 111.151724 
L 247.934068 110.666218 
L 245.429927 110.546153 
L 242.001454 110.558579 
L 236.762807 110.86822 
L 230.454557 111.604402 
L 223.935124 112.722188 
L 219.564643 113.665037 
L 212.523902 115.524642 
L 208.391119 116.836361 
L 203.077222 118.825729 
L 199.438782 120.458335 
L 196.380793 122.099728 
L 193.768438 123.855873 
L 192.333693 125.115667 
L 191.411121 126.209094 
L 190.805211 127.345763 
L 190.619652 128.176223 
L 190.679387 128.984355 
L 190.909756 129.602283 
L 191.523582 130.434022 
L 192.591084 131.271514 
L 195.433773 132.490559 
L 198.064846 133.103088 
L 200.784038 133.459018 
L 204.347786 133.624173 
L 207.352765 133.542297 
L 209.614233 133.354522 
L 213.162359 132.828332 
L 216.122285 132.126591 
L 217.794952 131.576345 
L 219.210291 130.943184 
L 219.728945 130.537242 
L 219.594023 130.490164 
L 218.717027 130.811189 
L 216.939142 131.874241 
L 215.078823 133.323391 
L 213.270865 135.061965 
L 211.839519 136.795489 
L 211.181671 137.926715 
L 211.061396 138.485993 
L 211.146861 138.699378 
L 211.782801 138.831355 
L 212.369219 138.723588 
L 219.323674 136.764346 
L 222.503391 136.246812 
L 224.731508 136.100015 
L 225.81581 136.126782 
L 226.713945 136.238283 
L 227.664079 136.577452 
L 227.924174 136.807188 
L 228.101042 137.221721 
L 227.956861 138.081102 
L 227.106772 139.783944 
L 225.763609 142.678497 
L 225.172669 144.938305 
L 224.946997 147.29819 
L 224.96185 148.975792 
L 225.212322 152.073075 
L 225.578788 155.065522 
L 225.578788 155.065522 
" style="fill:none;stroke:#000000;stroke-linecap:square;stroke-opacity:0.7;stroke-width:1.2;"/>
   </g>
   <g id="line2d_9">
    <path clip-path="url(#p09e7fb659d)" d="M 222.674821 139.115951 
L 223.007061 134.119003 
L 223.541023 127.796887 
L 224.804895 116.017773 
L 226.25684 103.352453 
L 226.391839 101.607236 
L 226.440867 99.508012 
L 226.294166 98.42205 
L 226.119173 98.125274 
L 225.801468 98.125007 
L 225.345697 98.597037 
L 224.787462 99.544356 
L 223.724571 102.029743 
L 222.982192 104.248688 
L 222.023108 108.078953 
L 221.622396 110.606761 
L 221.444976 113.226192 
L 221.556211 115.834433 
L 221.797446 119.013925 
L 221.567846 119.736117 
L 220.929422 120.373909 
L 220.334072 120.649202 
L 219.235403 120.89285 
L 217.465275 120.94995 
L 215.595473 120.756253 
L 213.372618 120.28701 
L 210.792772 119.465933 
L 208.37867 118.431413 
L 206.217467 117.253883 
L 204.12288 115.802559 
L 202.418491 114.229658 
L 201.429655 112.931243 
L 201.061647 112.226309 
L 200.777259 111.246984 
L 200.750707 110.767234 
L 201.041673 109.697566 
L 201.455461 109.142903 
L 202.133992 108.60111 
L 203.030042 108.155035 
L 204.455441 107.735152 
L 206.832992 107.424487 
L 209.622711 107.36942 
L 212.685882 107.322583 
L 213.167356 107.107903 
L 213.24887 106.831901 
L 213.11661 106.346914 
L 212.813094 105.368916 
L 212.853204 104.755893 
L 213.082307 104.338389 
L 213.633395 103.907988 
L 214.600669 103.569768 
L 215.539987 103.428727 
L 217.236597 103.398294 
L 219.410298 103.599848 
L 222.052233 104.064896 
L 226.165992 105.061352 
L 229.346031 105.79776 
L 230.28713 105.774478 
L 230.447751 105.661803 
L 230.513269 105.34824 
L 230.192192 104.61678 
L 229.311793 103.433998 
L 227.885944 101.856423 
L 226.334877 100.428387 
L 225.612619 100.045148 
L 225.454713 100.064846 
L 225.308613 100.246337 
L 225.265868 100.498124 
L 225.317552 101.198147 
L 225.876817 103.650051 
L 227.823429 110.518975 
L 229.70533 116.473689 
L 230.705753 119.054097 
L 231.865085 121.378679 
L 232.709106 122.63384 
L 234.944636 124.52451 
L 236.519706 124.950318 
L 238.290885 124.836648 
L 241.537003 123.571464 
L 245.20337 121.136293 
L 250.967161 116.10346 
L 250.967161 116.10346 
" style="fill:none;stroke:#000000;stroke-linecap:square;stroke-opacity:0.7;stroke-width:1.2;"/>
   </g>
   <g id="line2d_10">
    <path clip-path="url(#p09e7fb659d)" d="M 245.901815 95.59685 
L 243.690385 90.67802 
L 241.946289 87.263848 
L 239.907641 84.057692 
L 238.764679 82.500224 
L 236.491795 79.70808 
L 232.626625 75.472996 
L 221.826289 64.316278 
L 220.107468 62.367545 
L 217.004926 58.354955 
L 215.536935 55.918154 
L 214.569405 53.593669 
L 214.342921 52.6785 
L 214.218859 51.46094 
L 214.279126 50.629969 
L 214.733953 49.260414 
L 215.230172 48.540377 
L 215.675616 48.092111 
L 216.759937 47.367895 
L 218.694742 46.715999 
L 219.914267 46.550026 
L 222.209513 46.600754 
L 224.053186 46.960202 
L 225.487065 47.482963 
L 226.663157 48.201725 
L 226.997327 48.520485 
L 227.36512 49.121608 
L 227.423149 49.498889 
L 227.151887 50.180245 
L 226.491886 50.728656 
L 225.41166 51.225107 
L 223.405561 51.795381 
L 220.331608 52.622343 
L 219.645376 52.959544 
L 219.073299 53.497913 
L 218.907535 53.919714 
L 218.914943 54.44244 
L 219.236179 55.277587 
L 219.941523 56.291033 
L 221.024782 57.461987 
L 222.799799 59.054293 
L 225.477789 61.13176 
L 229.536868 63.918481 
L 233.81208 66.790614 
L 234.203119 67.255916 
L 234.169856 67.474519 
L 233.737923 67.659414 
L 232.792207 67.747554 
L 229.706626 67.69732 
L 223.524472 67.360041 
L 217.172463 66.836299 
L 212.473909 66.212762 
L 209.346775 65.558097 
L 208.969569 65.499096 
L 209.053055 65.570638 
L 210.97885 67.029785 
L 212.877059 68.806826 
L 216.816664 72.689111 
L 217.553572 73.080689 
L 218.097628 73.185074 
L 218.418106 73.153911 
L 218.918975 72.943898 
L 219.643705 72.239185 
L 220.128811 71.477568 
L 221.192628 69.137791 
L 222.30505 66.827454 
L 222.634672 66.347096 
L 223.762131 65.306306 
L 224.859411 64.851686 
L 225.71881 64.70548 
L 227.140386 64.692931 
L 229.49077 65.007331 
L 232.817302 65.775478 
L 235.659651 66.56229 
L 262.643693 74.780482 
L 262.643693 74.780482 
" style="fill:none;stroke:#000000;stroke-linecap:square;stroke-opacity:0.7;stroke-width:1.2;"/>
   </g>
   <g id="line2d_11">
    <path clip-path="url(#p09e7fb659d)" d="M 336.915572 234.507049 
L 346.469313 229.569378 
L 359.697736 220.703369 
L 365.079632 216.187397 
L 368.598565 212.806926 
L 374.596758 205.704767 
L 379.429918 195.083501 
L 379.567193 193.545891 
L 379.267277 190.749393 
L 375.587499 185.554141 
L 374.250512 184.702119 
L 371.990448 183.648673 
L 370.13861 183.023658 
L 366.480936 182.194641 
L 364.126121 181.861886 
L 361.503497 181.627148 
L 353.223066 181.552203 
L 347.991902 181.896391 
L 342.307686 182.628233 
L 341.693344 182.743087 
L 338.855442 183.530131 
L 338.186057 183.895937 
L 337.716111 184.415191 
L 337.615422 184.836007 
L 337.79935 185.62601 
L 339.780503 189.414663 
L 340.300405 191.294736 
L 340.372836 192.043692 
L 340.252754 193.477957 
L 339.792545 194.684319 
L 339.177227 195.481806 
L 338.367422 196.083702 
L 337.379464 196.492714 
L 335.620905 196.785845 
L 333.612001 196.800139 
L 328.17153 196.403652 
L 324.035588 196.208096 
L 319.958405 196.065013 
L 319.668093 195.81463 
L 319.749042 195.364851 
L 320.094407 194.78392 
L 321.349063 193.211095 
L 323.242298 191.237075 
L 324.657263 190.027591 
L 326.283505 188.943905 
L 327.523753 188.343449 
L 328.049328 188.147541 
L 330.328025 187.688486 
L 331.376096 187.682154 
L 333.804713 188.134908 
L 334.655959 188.442613 
L 337.428837 189.966291 
L 338.402521 190.691085 
L 340.253816 192.351203 
L 342.169208 194.488769 
L 343.798974 196.696708 
L 345.364649 199.244289 
L 346.599485 201.673689 
L 347.559156 204.030746 
L 348.043991 205.849812 
L 347.991235 206.290435 
L 347.806338 206.281198 
L 347.530789 206.063097 
L 344.643744 203.026016 
L 344.347558 202.77252 
L 340.892339 200.845658 
L 340.136569 200.666506 
L 338.70516 200.564361 
L 337.34441 200.775982 
L 335.88783 201.404913 
L 334.450094 202.629039 
L 334.161324 202.9921 
L 333.144976 205.011308 
L 332.839178 206.410638 
L 332.772622 207.859233 
L 332.947188 209.439842 
L 333.163277 210.379673 
L 335.514878 215.182783 
L 336.738409 216.731692 
L 339.070979 219.050937 
L 343.933257 222.425172 
L 349.26313 224.69393 
L 350.763694 225.091059 
L 352.480704 225.392091 
L 356.489002 225.001385 
L 357.898546 223.042939 
L 357.902698 222.285658 
L 357.730146 221.349962 
L 356.610165 218.715033 
L 353.444127 214.051484 
L 350.213905 210.153433 
L 347.084592 206.679029 
L 347.084592 206.679029 
" style="fill:none;stroke:#000000;stroke-linecap:square;stroke-opacity:0.7;stroke-width:1.2;"/>
   </g>
   <g id="line2d_12">
    <path clip-path="url(#p09e7fb659d)" d="M 359.6254 217.301236 
L 361.284008 215.497398 
L 363.176962 213.725384 
L 372.57682 205.453579 
L 374.994282 202.880689 
L 375.995498 201.5108 
L 376.509132 200.605514 
L 376.959515 199.466864 
L 377.170377 198.351292 
L 377.126919 197.071196 
L 376.616113 195.294315 
L 375.830831 193.701703 
L 373.171927 189.48611 
L 368.890445 182.873755 
L 368.126765 182.166858 
L 367.213969 181.75395 
L 366.418734 181.714489 
L 365.456822 181.947828 
L 363.774261 182.818195 
L 362.289888 183.899594 
L 361.051261 185.000996 
L 359.920857 186.264638 
L 359.306413 187.270489 
L 359.074975 188.176867 
L 359.165252 188.794916 
L 359.468363 189.350292 
L 360.284156 190.115516 
L 361.61354 190.91718 
L 364.778006 192.416173 
L 368.411413 194.217211 
L 370.822162 195.671538 
L 372.608525 196.777041 
L 372.687537 196.574516 
L 372.510538 195.621709 
L 371.835991 192.269778 
L 371.760733 190.922719 
L 371.915958 190.64056 
L 372.134281 190.668846 
L 372.576851 190.970262 
L 375.184793 193.086076 
L 376.773415 194.03055 
L 378.328662 194.667717 
L 379.737744 194.99252 
L 380.738844 195.062732 
L 382.015567 194.916193 
L 382.864008 194.618912 
L 383.839157 193.919129 
L 384.342861 193.149306 
L 384.52565 192.386948 
L 384.416699 191.429844 
L 383.95678 190.495956 
L 383.249314 189.72654 
L 382.460917 189.182008 
L 381.05423 188.631398 
L 380.517106 188.523638 
L 378.838282 188.490818 
L 377.426318 188.814698 
L 375.934373 189.563767 
L 375.310207 190.036709 
L 374.467321 190.883992 
L 373.336877 192.640755 
L 372.983563 193.473329 
L 372.419571 195.719665 
L 372.299744 196.982003 
L 372.325002 198.684703 
L 372.621302 200.754606 
L 373.165804 202.705861 
L 373.72736 204.101103 
L 374.957781 206.271533 
L 376.115617 207.701988 
L 377.02002 208.541924 
L 378.329645 209.41074 
L 379.811576 209.947408 
L 381.357883 209.993366 
L 382.836165 209.435704 
L 384.161529 208.107606 
L 384.161529 208.107606 
" style="fill:none;stroke:#000000;stroke-linecap:square;stroke-opacity:0.7;stroke-width:1.2;"/>
   </g>
   <g id="line2d_13">
    <path clip-path="url(#p09e7fb659d)" d="M 379.221562 175.238745 
L 377.320234 174.238895 
L 373.549121 171.193452 
L 371.307289 168.570565 
L 368.945689 165.078579 
L 364.895598 157.900484 
L 362.771206 154.374138 
L 361.640506 152.804654 
L 359.807716 150.826046 
L 358.831775 150.054421 
L 357.657787 149.358204 
L 355.6117 148.641001 
L 354.02639 148.404409 
L 351.089456 148.365963 
L 348.006687 148.34802 
L 346.973074 148.17373 
L 346.323024 147.928442 
L 345.823091 147.553084 
L 345.540867 147.058667 
L 345.483068 146.437644 
L 345.713079 145.50528 
L 346.444405 143.896721 
L 347.056536 142.251035 
L 347.137555 141.343669 
L 346.9865 140.586198 
L 346.537967 139.762706 
L 345.83358 139.017892 
L 344.667712 138.178265 
L 342.666937 137.108429 
L 340.868532 136.1187 
L 340.856639 135.961845 
L 341.072928 135.893408 
L 341.968665 135.908979 
L 343.507308 136.149934 
L 345.564998 136.680725 
L 347.88452 137.485551 
L 351.113659 138.853495 
L 365.921486 145.649819 
L 373.39567 148.721716 
L 373.57271 148.908679 
L 373.655932 149.216591 
L 373.347401 149.635193 
L 372.561929 150.087383 
L 370.297596 150.964818 
L 364.029635 153.243962 
L 361.276518 154.508948 
L 359.230413 155.707346 
L 357.736957 156.869999 
L 357.180668 157.42981 
L 356.5231 158.289478 
L 356.08058 159.192829 
L 355.881061 160.544047 
L 356.071387 161.497941 
L 356.700494 162.687086 
L 359.743092 165.282039 
L 362.373573 166.595809 
L 367.656828 168.309471 
L 372.181305 169.166915 
L 374.953211 169.456542 
L 378.966001 169.520675 
L 382.60218 169.044538 
L 384.973889 168.108267 
L 385.937911 167.208341 
L 384.895821 162.998112 
L 381.286027 159.830185 
L 376.658433 156.876654 
L 370.126363 153.43982 
L 370.126363 153.43982 
" style="fill:none;stroke:#000000;stroke-linecap:square;stroke-opacity:0.7;stroke-width:1.2;"/>
   </g>
   <g id="line2d_14">
    <path clip-path="url(#p09e7fb659d)" d="M 378.182486 99.780549 
L 367.914706 96.955152 
L 361.872672 95.068758 
L 355.413746 92.722696 
L 350.763459 90.612599 
L 346.554111 87.196386 
L 346.597682 86.962075 
L 347.140725 86.731745 
L 347.808238 86.8735 
L 348.785448 87.423573 
L 349.611354 88.198825 
L 350.733764 90.031704 
L 351.005286 90.789409 
L 351.338251 94.579112 
L 350.952917 96.66525 
L 350.649581 97.632268 
L 349.090934 100.703542 
L 348.156886 101.88472 
L 347.458153 102.570247 
L 346.55453 103.234066 
L 345.849272 103.573376 
L 344.236836 103.516136 
L 343.795736 103.06366 
L 343.447987 101.866507 
L 343.434226 101.410106 
L 343.66695 99.659832 
L 343.934713 98.630643 
L 345.569432 94.019936 
L 346.439885 91.440645 
L 346.994066 89.228789 
L 347.297328 86.936081 
L 347.231585 84.313194 
L 347.132431 83.62056 
L 346.65758 81.68185 
L 345.679609 79.376677 
L 344.443493 77.427711 
L 343.188719 75.950966 
L 341.496835 74.454468 
L 340.185238 73.608643 
L 339.027612 73.093669 
L 337.83154 72.859128 
L 336.869326 73.073997 
L 336.404757 73.552221 
L 336.311951 73.753646 
L 336.224471 75.061955 
L 336.324085 75.58162 
L 336.707909 76.759342 
L 337.770546 78.880096 
L 339.214421 81.055796 
L 340.73661 82.962677 
L 342.476131 84.81675 
L 343.888887 86.098353 
L 346.575634 87.942492 
L 347.910791 88.511099 
L 348.523625 88.677835 
L 349.51896 88.804086 
L 350.663739 88.70126 
L 352.05969 88.175852 
L 353.098111 87.487887 
L 354.458192 86.228642 
L 356.045246 84.351409 
L 358.081819 81.567358 
L 365.004672 71.857165 
L 368.005765 67.642212 
L 368.405407 66.833034 
L 368.466321 66.203341 
L 368.174523 65.92441 
L 367.444069 65.848617 
L 365.685451 66.153754 
L 362.974469 66.932842 
L 357.723633 68.755452 
L 352.226013 70.920129 
L 347.562277 73.009022 
L 342.359551 75.832838 
L 338.962486 78.263513 
L 337.232561 79.904502 
L 336.488444 80.780945 
L 335.398439 82.460541 
L 334.825689 83.822168 
L 334.497189 85.379749 
L 334.531259 87.131075 
L 334.622835 87.652604 
L 335.013514 88.948866 
L 335.882262 90.640013 
L 336.806372 91.894143 
L 338.814192 93.870883 
L 339.844817 94.665943 
L 346.213102 97.972314 
L 351.005623 99.402678 
L 354.412169 100.060198 
L 356.484111 100.339293 
L 362.295445 100.695688 
L 366.536643 100.586771 
L 369.256999 100.3477 
L 374.502206 99.356724 
L 376.156305 98.69409 
L 376.932908 98.046095 
L 376.896873 96.869061 
L 376.638191 96.503107 
L 376.638191 96.503107 
" style="fill:none;stroke:#000000;stroke-linecap:square;stroke-opacity:0.7;stroke-width:1.2;"/>
   </g>
   <g id="line2d_15">
    <path clip-path="url(#p09e7fb659d)" d="M 371.723508 106.760491 
L 369.144445 102.272391 
L 366.719359 96.384669 
L 365.672243 93.122755 
L 363.379264 83.474172 
L 362.711664 79.613938 
L 361.348614 68.515146 
L 359.92833 53.39365 
L 359.692025 52.9823 
L 359.455201 52.938451 
L 359.22787 53.114991 
L 358.614385 54.211824 
L 358.093149 55.585213 
L 357.31234 58.338942 
L 356.991814 60.056852 
L 356.876653 61.739375 
L 357.053892 63.159906 
L 357.397823 64.087858 
L 358.249155 65.377496 
L 359.142727 66.609836 
L 359.390838 67.360293 
L 359.257003 67.73332 
L 359.079966 67.841303 
L 358.653146 67.852254 
L 358.209498 67.686391 
L 357.43368 67.073479 
L 356.928542 66.403628 
L 356.376733 65.137829 
L 356.149489 63.861199 
L 356.138478 62.911025 
L 356.400158 61.165189 
L 356.972539 59.397847 
L 357.984523 57.281688 
L 359.671094 54.572937 
L 362.534226 50.655556 
L 364.649393 47.699871 
L 365.632804 46.060138 
L 366.102781 45.071894 
L 366.476884 43.938338 
L 366.58259 43.326676 
L 366.559978 42.329313 
L 366.110832 41.208998 
L 365.447146 40.527713 
L 364.625785 40.079864 
L 363.861956 39.867993 
L 362.558301 39.826647 
L 361.481199 40.067392 
L 360.495352 40.525704 
L 359.989914 40.865557 
L 358.852801 41.975124 
L 357.857688 43.545283 
L 357.18537 45.20026 
L 356.656846 47.193329 
L 355.788714 51.013035 
L 355.465899 51.387689 
L 355.107867 51.476626 
L 354.582542 51.339444 
L 353.497138 50.719677 
L 352.491484 50.159133 
L 352.162028 50.137177 
L 352.120293 50.185611 
L 352.241819 50.755917 
L 352.984587 51.980387 
L 354.91184 54.452548 
L 357.603629 57.483344 
L 360.394245 60.391768 
L 364.279781 64.201963 
L 369.775446 69.26094 
L 374.686246 73.52228 
L 380.001574 77.873779 
L 382.274477 79.641666 
L 386.145643 82.486544 
L 389.228911 84.538733 
L 392.655922 86.427734 
L 395.470494 87.331509 
L 397.354891 87.122661 
L 398.737737 85.751335 
L 399.311466 84.258123 
L 399.858865 80.431482 
L 399.95622 75.79679 
L 399.554715 64.813892 
L 399.554715 64.813892 
" style="fill:none;stroke:#000000;stroke-linecap:square;stroke-opacity:0.7;stroke-width:1.2;"/>
   </g>
   <g id="line2d_16">
    <path clip-path="url(#p09e7fb659d)" d="M 498.122182 248.772167 
L 493.94144 248.841085 
L 486.112105 245.424884 
L 485.598526 243.78539 
L 485.988524 241.28888 
L 486.641221 239.964634 
L 487.763547 238.407304 
L 489.26152 236.854621 
L 491.845766 234.809846 
L 492.950716 234.080891 
L 496.532882 232.083092 
L 498.663697 231.073718 
L 504.387552 228.589106 
L 507.267723 227.012027 
L 508.062433 226.351174 
L 508.52443 225.819387 
L 508.927084 225.099105 
L 509.13522 224.153862 
L 509.079354 223.302081 
L 508.735726 222.168307 
L 507.869255 220.569528 
L 507.114217 219.513283 
L 505.965186 218.139836 
L 503.433268 215.585424 
L 500.892073 213.365767 
L 497.900828 211.034735 
L 494.954168 209.044697 
L 493.419411 208.2791 
L 492.730327 208.12508 
L 492.294153 208.166189 
L 491.73682 208.486928 
L 491.163217 209.255562 
L 490.575658 210.572304 
L 490.103758 212.07229 
L 489.527999 214.73891 
L 489.130574 217.799673 
L 488.494409 223.858885 
L 488.062149 225.25801 
L 487.640622 225.942486 
L 487.287586 226.232188 
L 486.995527 226.151588 
L 487.066614 225.81762 
L 487.51463 225.135312 
L 488.640255 223.951471 
L 490.694309 222.155064 
L 499.317532 214.91633 
L 500.924419 213.236596 
L 501.249718 212.655536 
L 501.097576 212.623169 
L 500.375656 213.006437 
L 498.590434 214.306821 
L 496.099842 216.398612 
L 494.163098 218.376455 
L 493.227961 219.602082 
L 492.402705 221.086713 
L 491.974863 222.364185 
L 491.819341 223.490119 
L 491.917888 224.873402 
L 492.422673 226.431659 
L 493.04614 227.537057 
L 493.867301 228.599693 
L 495.592917 230.230138 
L 497.611974 231.64037 
L 500.002591 232.936639 
L 501.87748 233.767299 
L 507.921283 235.713435 
L 514.562233 236.932439 
L 516.893593 237.165249 
L 525.483382 237.040454 
L 528.980588 236.369996 
L 532.270259 235.13635 
L 534.278333 233.865941 
L 536.658251 231.20882 
L 537.873145 228.484372 
L 538.607248 224.074702 
L 538.630211 221.005045 
L 538.630211 221.005045 
" style="fill:none;stroke:#000000;stroke-linecap:square;stroke-opacity:0.7;stroke-width:1.2;"/>
   </g>
   <g id="line2d_17">
    <path clip-path="url(#p09e7fb659d)" d="M 498.010509 211.340078 
L 499.786526 208.274622 
L 503.119875 203.710097 
L 505.904024 200.615026 
L 510.099429 196.822002 
L 512.949041 194.735508 
L 515.593593 193.108949 
L 519.119556 191.362625 
L 523.972785 189.662577 
L 528.950065 188.321932 
L 529.286393 188.099889 
L 529.472031 187.819921 
L 529.324213 187.123346 
L 528.157436 185.792604 
L 525.794479 183.824224 
L 522.963834 181.761766 
L 519.511764 179.52427 
L 516.556486 177.876421 
L 513.636395 176.566412 
L 511.576403 175.897983 
L 510.359674 175.631726 
L 508.854926 175.467993 
L 507.717721 175.492668 
L 506.214468 175.773599 
L 505.246923 176.140523 
L 503.794894 177.045387 
L 502.37955 178.458628 
L 501.121579 180.279992 
L 500.047243 182.306055 
L 496.380674 190.091132 
L 495.365812 191.437969 
L 494.744842 191.916416 
L 494.299897 191.956341 
L 494.129087 191.614815 
L 494.226541 191.043545 
L 494.770449 189.992099 
L 495.784712 188.754882 
L 497.226776 187.467854 
L 498.66771 186.461332 
L 501.822626 184.542405 
L 501.9385 184.069318 
L 501.738276 183.466712 
L 500.510493 181.155372 
L 499.34684 179.072204 
L 498.603474 178.153621 
L 498.004486 177.779287 
L 497.318527 177.689958 
L 496.517399 177.893622 
L 495.602026 178.361601 
L 493.886184 179.546993 
L 490.211057 182.46535 
L 489.000688 183.685112 
L 488.607076 184.357334 
L 488.422725 185.271659 
L 488.469133 185.876853 
L 488.915834 187.332276 
L 489.750596 188.920508 
L 490.65929 190.244502 
L 492.09562 191.936996 
L 494.125674 193.838879 
L 496.080734 195.313325 
L 497.207959 196.04355 
L 500.300541 197.695124 
L 502.975588 198.785141 
L 505.219558 199.498284 
L 510.374816 200.53581 
L 514.840483 200.807925 
L 517.046055 200.723372 
L 522.543484 199.764061 
L 525.798441 198.496169 
L 528.205747 196.977614 
L 529.783191 195.498629 
L 531.500259 192.953809 
L 532.380889 190.694115 
L 532.954201 187.998192 
L 533.236136 184.44948 
L 533.236136 184.44948 
" style="fill:none;stroke:#000000;stroke-linecap:square;stroke-opacity:0.7;stroke-width:1.2;"/>
   </g>
   <g id="line2d_18">
    <path clip-path="url(#p09e7fb659d)" d="M 491.688998 192.926983 
L 486.553915 188.244013 
L 484.959211 184.420876 
L 483.966877 179.636301 
L 483.628005 176.458132 
L 483.38693 171.687139 
L 483.340049 165.622377 
L 483.610565 153.944135 
L 483.784605 150.29122 
L 484.248063 145.001233 
L 484.710333 142.247745 
L 485.073575 140.795724 
L 485.614025 139.23212 
L 486.256856 137.906108 
L 486.983719 136.815019 
L 487.938215 135.777359 
L 489.300293 134.761417 
L 491.266368 133.847466 
L 493.467525 133.267384 
L 495.432639 132.992246 
L 498.535687 132.86184 
L 501.47 132.98981 
L 502.439395 133.072635 
L 501.841429 132.947866 
L 498.602958 132.175939 
L 494.228951 130.92627 
L 488.286264 129.213959 
L 487.729984 129.2289 
L 487.722118 129.355533 
L 487.994909 129.64231 
L 488.959709 130.269203 
L 490.776184 131.166567 
L 493.20804 132.090173 
L 495.693047 132.760385 
L 497.338702 133.04581 
L 499.519157 133.201824 
L 501.866116 133.02304 
L 503.464071 132.630935 
L 504.691699 132.125702 
L 506.018227 131.3023 
L 506.157539 131.232312 
L 506.132294 131.313441 
L 501.173153 140.343763 
L 498.828072 144.331145 
L 497.572027 146.163853 
L 496.536301 147.308805 
L 496.076493 147.540417 
L 495.8811 147.449669 
L 495.834426 147.183366 
L 495.961658 146.975495 
L 496.143837 146.984446 
L 496.480609 147.298643 
L 497.149923 148.45988 
L 497.972967 150.340915 
L 500.271958 156.41693 
L 501.874133 160.527222 
L 502.498939 161.914032 
L 503.604679 163.715021 
L 504.045521 164.046652 
L 504.439881 164.03629 
L 505.011652 163.153701 
L 505.327045 161.751875 
L 505.496708 160.206325 
L 505.590667 155.739601 
L 505.335219 150.643735 
L 505.335219 150.643735 
" style="fill:none;stroke:#000000;stroke-linecap:square;stroke-opacity:0.7;stroke-width:1.2;"/>
   </g>
   <g id="line2d_19">
    <path clip-path="url(#p09e7fb659d)" d="M 501.569951 156.070586 
L 502.932646 147.876547 
L 504.223923 145.209753 
L 505.844049 142.484473 
L 513.503444 131.229998 
L 516.426446 125.849974 
L 517.492608 123.280477 
L 518.183235 121.24724 
L 519.207947 117.091143 
L 519.809728 112.62898 
L 519.964981 109.73994 
L 519.870733 105.324467 
L 519.411327 101.456597 
L 518.813527 98.880269 
L 518.564227 98.113986 
L 517.686634 96.194945 
L 516.740351 94.966922 
L 515.581239 94.168652 
L 514.838814 93.935067 
L 513.651009 93.882951 
L 512.327679 94.171201 
L 511.66058 94.422823 
L 509.685175 95.48299 
L 507.161778 97.333447 
L 504.954091 99.261957 
L 502.377635 101.759794 
L 497.697595 106.721047 
L 492.539623 112.559227 
L 491.861077 113.46769 
L 491.881692 113.477403 
L 492.513718 113.007491 
L 495.443805 110.377456 
L 498.496548 107.388671 
L 500.519946 105.127973 
L 501.937068 103.21962 
L 502.695259 101.9137 
L 503.297968 100.309414 
L 503.414249 99.312734 
L 503.307976 98.575555 
L 502.967516 97.92128 
L 502.639974 97.650945 
L 502.155633 97.544087 
L 501.699534 97.682941 
L 501.165389 98.106279 
L 500.597602 98.842362 
L 499.743052 100.430172 
L 498.489174 103.425137 
L 496.319008 108.656903 
L 495.176426 110.865272 
L 494.199969 112.368236 
L 493.077832 113.658482 
L 492.236696 114.432098 
L 492.320756 114.472905 
L 494.43497 115.097691 
L 496.494794 115.973167 
L 498.409185 116.95728 
L 501.540107 118.841375 
L 504.62602 120.978121 
L 508.18687 123.499755 
L 508.985435 123.868496 
L 509.528331 123.941162 
L 510.01179 123.748963 
L 510.465049 123.120764 
L 510.921523 121.599973 
L 511.160167 120.271849 
L 512.136468 113.011388 
L 512.136468 113.011388 
" style="fill:none;stroke:#000000;stroke-linecap:square;stroke-opacity:0.7;stroke-width:1.2;"/>
   </g>
   <g id="line2d_20">
    <path clip-path="url(#p09e7fb659d)" d="M 465.986125 122.680883 
L 471.849756 109.054395 
L 480.049035 92.828686 
L 487.099361 80.765731 
L 491.393491 74.100391 
L 495.214162 68.553438 
L 500.80786 61.041097 
L 504.167343 56.869565 
L 507.477017 53.018494 
L 511.381786 48.847947 
L 513.45284 46.845969 
L 515.92103 44.810344 
L 516.48354 44.500137 
L 516.731532 44.70832 
L 515.345814 46.67253 
L 513.586481 48.636599 
L 508.520728 53.774151 
L 498.052343 64.169637 
L 494.318808 67.896267 
L 493.619276 68.235151 
L 493.224337 68.018255 
L 492.916169 67.321091 
L 490.886343 60.252556 
L 489.638748 57.439794 
L 488.515112 55.406484 
L 486.653284 52.692281 
L 485.376328 51.173301 
L 483.411653 49.26001 
L 481.4888 47.823411 
L 480.110236 47.051249 
L 478.470223 46.438262 
L 477.681576 46.28079 
L 476.484971 46.255816 
L 475.949813 46.348862 
L 474.82244 46.84182 
L 474.140514 47.42882 
L 473.56282 48.216686 
L 473.060552 49.301365 
L 472.807477 50.131716 
L 472.499749 51.893957 
L 472.39932 53.626949 
L 472.508023 56.294399 
L 472.893892 59.160926 
L 473.575487 62.251393 
L 474.6358 65.692043 
L 476.911912 72.371683 
L 476.936094 72.945325 
L 476.783478 73.536835 
L 476.434595 73.844098 
L 476.035012 73.893232 
L 475.36392 73.693456 
L 474.456851 73.109992 
L 473.409589 72.120047 
L 473.083245 71.749335 
L 471.557377 69.595196 
L 470.51476 67.595461 
L 469.652442 65.294396 
L 469.19193 63.306527 
L 469.046473 61.592201 
L 469.188005 60.12445 
L 469.50379 59.172394 
L 470.077506 58.355343 
L 470.865322 57.843543 
L 471.899412 57.62729 
L 472.692626 57.648694 
L 474.500251 58.019753 
L 475.897231 58.474941 
L 482.293273 61.090791 
L 488.58447 63.592947 
L 490.937452 64.431908 
L 496.69513 66.211038 
L 502.187637 67.506207 
L 507.33718 68.318743 
L 513.396331 68.699177 
L 516.95034 68.585959 
L 521.596553 67.99816 
L 525.582128 67.039315 
L 531.116463 64.91494 
L 533.651603 63.613021 
L 542.543104 57.462758 
L 546.605787 53.945274 
L 546.605787 53.945274 
" style="fill:none;stroke:#000000;stroke-linecap:square;stroke-opacity:0.7;stroke-width:1.2;"/>
   </g>
   <g id="line2d_21">
    <path clip-path="url(#p09e7fb659d)" d="M 617.281113 257.506272 
L 608.812168 243.822454 
L 607.590652 240.145907 
L 607.00257 237.799022 
L 606.267168 233.419234 
L 605.958217 229.024624 
L 606.439558 220.408859 
L 606.769561 218.234475 
L 607.504647 214.599187 
L 608.697807 210.280608 
L 609.751864 207.335472 
L 612.100532 202.576892 
L 612.793928 201.536737 
L 614.167062 199.869692 
L 618.60128 197.106493 
L 619.777352 196.834318 
L 622.064466 196.649784 
L 624.696149 196.833358 
L 627.62201 197.353338 
L 630.476611 198.059345 
L 636.846926 199.998666 
L 654.051276 205.570185 
L 659.207825 206.876946 
L 661.901766 207.308151 
L 662.892674 207.339608 
L 663.324839 207.283374 
L 663.668649 207.00589 
L 663.58637 206.806908 
L 662.71799 206.170288 
L 661.330549 205.541391 
L 658.745652 204.675088 
L 656.653419 204.119591 
L 652.016827 203.171736 
L 648.981115 202.709472 
L 645.268351 202.282557 
L 640.136842 201.914709 
L 636.333164 201.797143 
L 632.599486 201.807801 
L 625.522536 202.184458 
L 622.528832 202.497985 
L 617.446514 203.281501 
L 613.147101 204.258529 
L 612.519899 204.432385 
L 609.827372 205.299377 
L 606.651005 206.697179 
L 605.797182 207.1954 
L 604.377216 208.294725 
L 603.620584 209.499318 
L 603.617234 209.830629 
L 603.74582 210.12361 
L 603.89011 210.270753 
L 604.548048 210.526133 
L 605.438805 210.5201 
L 606.637911 210.232603 
L 608.364579 209.500889 
L 610.422515 208.514042 
L 611.764402 208.194463 
L 612.544614 208.278327 
L 613.619217 208.775743 
L 614.540106 209.505649 
L 615.529794 210.506471 
L 617.831173 213.258158 
L 623.711976 220.523388 
L 627.723944 224.951035 
L 630.907808 228.068482 
L 633.089777 229.990622 
L 636.580013 232.677205 
L 639.095763 234.286561 
L 641.544431 235.543621 
L 643.250839 236.199797 
L 644.18246 236.464012 
L 645.447343 236.689349 
L 647.126582 236.657696 
L 649.077589 235.601642 
L 649.309434 235.270092 
L 649.584471 234.659598 
L 649.770401 233.121306 
L 649.547143 231.658772 
L 649.245013 230.667964 
L 648.56423 229.088087 
L 647.202983 226.786704 
L 645.554343 224.619258 
L 643.380515 222.308863 
L 641.714622 220.841315 
L 640.539486 219.947627 
L 638.198541 218.535092 
L 637.436891 218.19757 
L 635.807153 217.740239 
L 634.631697 217.714999 
L 633.127572 218.29836 
L 631.70617 220.147518 
L 631.202817 221.478977 
L 630.863825 222.796008 
L 630.264002 226.968658 
L 629.671584 238.239754 
L 628.869256 258.802511 
L 629.261363 261.670645 
L 629.876606 262.364985 
L 630.720528 262.274569 
L 630.720528 262.274569 
" style="fill:none;stroke:#000000;stroke-linecap:square;stroke-opacity:0.7;stroke-width:1.2;"/>
   </g>
   <g id="line2d_22">
    <path clip-path="url(#p09e7fb659d)" d="M 616.762687 219.219068 
L 621.888136 218.507956 
L 628.057452 215.816809 
L 631.313792 213.769909 
L 635.398376 210.684088 
L 642.856676 203.688045 
L 645.563217 200.713945 
L 649.713604 195.646909 
L 654.477753 188.869831 
L 655.666213 186.958005 
L 657.604532 183.561244 
L 659.277837 180.229131 
L 661.136307 175.723945 
L 662.270154 171.989281 
L 662.75294 170.205874 
L 663.010579 169.84781 
L 663.305491 169.841271 
L 664.965897 170.414741 
L 665.480358 170.391759 
L 665.873258 170.207429 
L 666.058219 169.979749 
L 666.147498 169.596582 
L 665.971589 168.935064 
L 665.554881 168.335785 
L 665.005007 167.8185 
L 663.726824 167.026769 
L 662.042712 166.403703 
L 659.999795 166.030178 
L 658.417463 165.960338 
L 656.257877 166.136972 
L 653.846896 166.699264 
L 652.215498 167.315607 
L 650.972435 167.931819 
L 649.297779 169.003132 
L 647.621052 170.438199 
L 646.824784 171.294557 
L 645.403065 173.256321 
L 644.456993 175.088426 
L 643.748638 177.079492 
L 643.338577 178.917608 
L 643.128822 180.801802 
L 643.146191 183.279616 
L 643.498212 185.841443 
L 644.166149 188.290093 
L 644.993511 190.287928 
L 645.96686 191.990459 
L 647.226009 193.580196 
L 647.977901 194.290427 
L 649.265175 195.174742 
L 650.454175 195.666575 
L 651.522357 195.862264 
L 652.53137 195.827689 
L 653.304827 195.583169 
L 653.245502 195.560896 
L 652.184253 195.542738 
L 651.802769 195.24687 
L 651.563883 194.712741 
L 651.42459 193.584847 
L 651.472656 191.610298 
L 651.783434 185.859665 
L 651.696303 182.479915 
L 651.477041 180.554612 
L 650.938683 178.112667 
L 650.173651 176.108726 
L 649.168243 174.449895 
L 648.204814 173.399953 
L 647.505079 172.856527 
L 646.068794 172.170606 
L 644.642401 171.958436 
L 643.364766 172.133837 
L 642.602875 172.412357 
L 641.825221 172.851231 
L 640.711994 173.82911 
L 639.074697 176.77565 
L 638.792619 177.830533 
L 638.516086 180.054754 
L 638.518538 181.487634 
L 638.817139 184.142863 
L 639.45714 186.904933 
L 640.792032 190.779024 
L 641.672961 192.87239 
L 645.132583 200.559354 
L 645.690899 202.30179 
L 645.871341 205.363308 
L 645.246964 206.98439 
L 643.695099 208.776926 
L 639.90026 211.236478 
L 639.90026 211.236478 
" style="fill:none;stroke:#000000;stroke-linecap:square;stroke-opacity:0.7;stroke-width:1.2;"/>
   </g>
   <g id="line2d_23">
    <path clip-path="url(#p09e7fb659d)" d="M 625.366272 164.882084 
L 626.933502 164.862816 
L 627.231718 164.679323 
L 628.279044 163.749003 
L 629.587713 161.869099 
L 630.300365 160.326292 
L 631.186964 156.99706 
L 631.405142 154.722666 
L 631.387727 152.915495 
L 631.187666 150.925235 
L 630.50392 147.750906 
L 629.403024 144.530126 
L 628.409117 142.200488 
L 625.935943 136.719662 
L 625.599268 135.827996 
L 624.764 132.420509 
L 624.692102 131.092181 
L 624.820821 129.55723 
L 625.282612 127.757878 
L 626.035241 126.074811 
L 627.55343 123.82701 
L 627.919425 123.391735 
L 630.818689 120.655686 
L 632.787482 119.231204 
L 636.076165 116.98756 
L 636.171314 116.663665 
L 635.965682 116.455042 
L 635.530268 116.30494 
L 634.431961 116.198364 
L 633.231655 116.289983 
L 632.08528 116.584107 
L 631.125653 117.089716 
L 630.493632 117.730441 
L 630.104324 118.680779 
L 630.061367 119.131889 
L 630.217885 120.231726 
L 630.488043 120.975222 
L 631.208393 122.272423 
L 631.934827 123.257298 
L 633.203362 124.65984 
L 635.054961 126.340362 
L 637.819885 128.422007 
L 640.974767 130.458085 
L 644.114165 132.453841 
L 644.850169 133.207621 
L 644.892577 133.36176 
L 644.767344 133.654216 
L 644.229467 133.916049 
L 643.414227 134.075595 
L 641.220321 134.193581 
L 639.125717 134.135986 
L 635.785686 133.844138 
L 632.253505 133.304282 
L 629.103304 132.597662 
L 626.491006 131.788621 
L 624.512454 130.953049 
L 623.064759 130.089936 
L 622.670533 129.77299 
L 621.927921 128.812935 
L 621.839226 128.418805 
L 621.894316 128.058538 
L 622.175975 127.643205 
L 622.562741 127.372562 
L 623.457111 127.084999 
L 623.849114 127.036247 
L 624.845813 127.056083 
L 625.975949 127.301574 
L 627.179951 127.855908 
L 628.049143 128.522824 
L 628.693442 129.258424 
L 629.075437 129.863304 
L 629.762214 131.771024 
L 629.985872 133.839394 
L 629.985114 134.581966 
L 629.767403 137.285168 
L 629.024765 143.009286 
L 629.024068 145.568955 
L 629.160845 146.443957 
L 629.633219 147.822379 
L 630.175771 148.669689 
L 631.536259 149.83409 
L 634.412638 150.944488 
L 637.714048 151.920914 
L 638.599302 152.405927 
L 639.136779 152.859313 
L 639.94592 154.180777 
L 640.216037 155.250276 
L 640.352847 156.950394 
L 640.0701 166.153612 
L 640.293416 170.008963 
L 643.372796 180.869982 
L 646.453958 185.991183 
L 646.453958 185.991183 
" style="fill:none;stroke:#000000;stroke-linecap:square;stroke-opacity:0.7;stroke-width:1.2;"/>
   </g>
   <g id="line2d_24">
    <path clip-path="url(#p09e7fb659d)" d="M 628.675046 110.052859 
L 631.263749 104.296804 
L 632.431096 100.940705 
L 633.150263 97.904931 
L 633.416088 95.896816 
L 632.682129 88.545902 
L 632.034763 86.768485 
L 630.276787 83.54092 
L 629.672416 82.695568 
L 627.925446 80.667452 
L 624.375839 77.705304 
L 622.988704 76.824323 
L 621.125752 75.822834 
L 617.022124 74.224302 
L 614.406797 73.597235 
L 612.380449 73.334525 
L 610.928876 73.303469 
L 609.773038 73.441904 
L 609.168095 73.680311 
L 609.007191 73.929717 
L 609.226071 74.236137 
L 609.783489 74.486158 
L 610.459951 74.64385 
L 612.280976 74.764385 
L 614.900038 74.463475 
L 616.831755 73.903918 
L 618.239458 73.23733 
L 618.958391 72.711962 
L 619.217791 72.239172 
L 618.692571 72.254412 
L 618.171702 72.510939 
L 617.006985 73.380492 
L 616.130177 74.250861 
L 614.954378 75.729851 
L 613.988146 77.29929 
L 613.62883 78.000539 
L 612.690199 80.367663 
L 612.235847 82.126044 
L 611.941206 84.229931 
L 611.907531 86.272821 
L 612.104569 88.184301 
L 612.66646 90.526414 
L 613.55177 92.721222 
L 614.51386 94.413157 
L 615.838475 96.177864 
L 617.32926 97.716064 
L 618.560122 98.880249 
L 618.563719 99.161429 
L 618.236707 99.290245 
L 614.307324 100.22443 
L 612.37678 101.225416 
L 611.291575 102.183372 
L 610.516839 103.314295 
L 610.075924 104.53213 
L 609.922091 105.804346 
L 610.042908 107.291667 
L 610.323256 108.456206 
L 610.881567 109.92609 
L 611.739417 111.531851 
L 612.365015 112.471115 
L 614.21585 114.629044 
L 616.005145 116.132831 
L 616.417664 116.415513 
L 618.269913 117.421217 
L 619.726305 117.924511 
L 621.614909 118.209966 
L 623.719154 118.037346 
L 625.64261 117.420862 
L 627.276311 116.553747 
L 629.716141 114.697548 
L 631.545337 112.916149 
L 634.589141 109.423245 
L 640.720032 101.961635 
L 643.483875 99.014316 
L 645.825463 96.850914 
L 649.121718 94.339049 
L 650.318956 93.574051 
L 652.771115 92.231997 
L 655.513627 91.05663 
L 657.824094 90.303826 
L 661.059135 89.577954 
L 662.001115 89.43661 
L 664.941546 89.243451 
L 665.940461 89.331812 
L 666.543058 89.518771 
L 666.889144 90.068164 
L 666.704055 90.642048 
L 662.03774 97.434971 
L 660.358615 100.365072 
L 657.820125 105.597858 
L 655.076723 112.529554 
L 653.803972 116.260863 
L 653.803972 116.260863 
" style="fill:none;stroke:#000000;stroke-linecap:square;stroke-opacity:0.7;stroke-width:1.2;"/>
   </g>
   <g id="line2d_25">
    <path clip-path="url(#p09e7fb659d)" d="M 658.051654 102.289495 
L 662.30396 90.015702 
L 663.033059 87.461202 
L 663.962314 83.685615 
L 665.039011 76.964755 
L 665.200824 73.7263 
L 665.120767 71.346887 
L 664.894462 69.358965 
L 662.512876 62.532564 
L 661.026126 60.411959 
L 660.148952 59.40951 
L 657.89551 57.32003 
L 655.625515 55.644601 
L 651.179751 52.999558 
L 646.878434 50.842573 
L 640.854715 48.154814 
L 637.436835 46.782874 
L 633.270205 45.357038 
L 631.829726 44.970577 
L 630.201736 44.641853 
L 628.331077 44.479897 
L 626.962983 44.597763 
L 626.399752 44.735793 
L 625.080762 45.391095 
L 624.456813 45.962181 
L 623.594533 47.315991 
L 623.109307 48.716958 
L 622.778707 50.524365 
L 622.647786 52.898721 
L 622.737753 54.480951 
L 623.033411 55.780687 
L 623.330468 56.243224 
L 623.676946 56.413703 
L 624.051891 56.374058 
L 624.735998 55.9951 
L 625.846735 54.974523 
L 627.328925 53.24252 
L 628.669609 51.445379 
L 630.853816 48.052419 
L 634.803069 41.478721 
L 636.487946 38.833679 
L 637.608293 36.747518 
L 638.536756 34.528954 
L 638.96308 33.114656 
L 639.283317 31.253913 
L 639.246138 29.433233 
L 638.933509 28.205175 
L 638.333793 27.102472 
L 637.651856 26.369482 
L 636.574239 25.665185 
L 634.904132 25.104668 
L 633.435037 24.904842 
L 631.296889 24.906551 
L 628.807393 25.190781 
L 625.940736 25.763425 
L 622.413527 26.706412 
L 617.411678 28.337088 
L 612.288626 30.254614 
L 607.346666 32.324638 
L 603.089999 34.363645 
L 600.568894 35.776023 
L 598.220601 37.361478 
L 596.010643 39.383611 
L 595.009388 40.746189 
L 594.475982 41.828192 
L 594.118351 43.121314 
L 594.050086 44.619002 
L 594.139624 45.347629 
L 594.963342 47.784192 
L 595.730891 49.121338 
L 596.8187 50.59283 
L 598.205121 52.109709 
L 600.418517 54.070412 
L 602.478412 55.569893 
L 604.586336 56.869509 
L 606.228377 57.74661 
L 609.076045 59.025085 
L 611.458531 59.882477 
L 614.90182 60.810332 
L 616.735741 61.16305 
L 618.901519 61.459052 
L 621.385749 61.643837 
L 624.706977 61.645476 
L 628.442872 61.337043 
L 632.990043 60.577331 
L 637.002669 59.642616 
L 644.170319 57.822961 
L 648.35838 57.240982 
L 651.609595 57.742085 
L 653.08789 58.626426 
L 655.824043 64.25664 
L 656.288428 70.062659 
L 656.288428 70.062659 
" style="fill:none;stroke:#000000;stroke-linecap:square;stroke-opacity:0.7;stroke-width:1.2;"/>
   </g>
  </g>
 </g>
 <defs>
  <clipPath id="p09e7fb659d">
   <rect height="262.08" width="694.08" x="12.96" y="12.96"/>
  </clipPath>
 </defs>
</svg>
