<?xml version="1.0" encoding="utf-8" standalone="no"?>
<!DOCTYPE svg PUBLIC "-//W3C//DTD SVG 1.1//EN"
  "http://www.w3.org/Graphics/SVG/1.1/DTD/svg11.dtd">
<!-- Created with matplotlib (https://matplotlib.org/) -->
<svg height="288pt" version="1.1" viewBox="0 0 720 288" width="720pt" xmlns="http://www.w3.org/2000/svg" xmlns:xlink="http://www.w3.org/1999/xlink">
 <metadata>
  <rdf:RDF xmlns:cc="http://creativecommons.org/ns#" xmlns:dc="http://purl.org/dc/elements/1.1/" xmlns:rdf="http://www.w3.org/1999/02/22-rdf-syntax-ns#">
   <cc:Work>
    <dc:type rdf:resource="http://purl.org/dc/dcmitype/StillImage"/>
    <dc:date>2020-11-07T00:33:57.995297</dc:date>
    <dc:format>image/svg+xml</dc:format>
    <dc:creator>
     <cc:Agent>
      <dc:title>Matplotlib v3.3.2, https://matplotlib.org/</dc:title>
     </cc:Agent>
    </dc:creator>
   </cc:Work>
  </rdf:RDF>
 </metadata>
 <defs>
  <style type="text/css">*{stroke-linecap:butt;stroke-linejoin:round;}</style>
 </defs>
 <g id="figure_1">
  <g id="patch_1">
   <path d="M 0 288 
L 720 288 
L 720 0 
L 0 0 
z
" style="fill:#ffffff;"/>
  </g>
  <g id="axes_1">
   <g id="line2d_1">
    <path clip-path="url(#pdc15dbceb8)" d="M 83.497983 243.139861 
L 84.927188 236.941421 
L 87.621236 227.613452 
L 93.194671 210.470148 
L 93.873423 207.869698 
L 94.241945 205.95257 
L 94.373083 204.453918 
L 94.17645 203.011111 
L 93.836473 202.470455 
L 93.402749 202.221173 
L 92.343062 202.306681 
L 91.561649 202.679145 
L 89.922473 203.984397 
L 88.985115 205.029663 
L 87.914795 206.596622 
L 87.106479 208.36081 
L 86.802293 209.529226 
L 86.519185 211.269392 
L 86.264634 211.307141 
L 85.573511 211.14158 
L 82.215174 210.257218 
L 79.791306 209.895681 
L 77.685234 209.827352 
L 75.900683 210.009549 
L 74.20715 210.462409 
L 73.862076 210.596551 
L 71.926512 211.677159 
L 69.984587 213.419473 
L 68.044097 215.809439 
L 62.036445 223.938887 
L 60.536515 225.427367 
L 59.457628 226.234288 
L 58.681256 226.620243 
L 57.908036 226.744167 
L 57.652806 226.6892 
L 57.302573 226.463759 
L 57.004949 225.931484 
L 56.894663 225.08152 
L 56.982026 224.130701 
L 57.404147 222.509899 
L 58.169443 220.669704 
L 58.985282 219.168969 
L 60.3034 217.22528 
L 61.57611 215.698558 
L 61.984742 215.2626 
L 64.361725 213.124903 
L 65.146704 212.542395 
L 67.41945 211.128478 
L 69.584989 210.096704 
L 71.396487 209.430505 
L 74.333846 208.674 
L 77.340529 208.257174 
L 80.25152 208.155428 
L 82.004788 208.225787 
L 85.664338 208.674808 
L 88.393772 209.271578 
L 91.354382 210.181255 
L 93.721188 211.124114 
L 96.14495 212.323994 
L 98.142083 213.538907 
L 100.100879 215.014148 
L 101.932413 216.836547 
L 102.685457 217.843438 
L 103.353658 219.079403 
L 103.664325 220.04904 
L 103.748768 220.62107 
L 103.662838 221.733188 
L 103.531048 222.141691 
L 103.069823 222.93484 
L 102.256157 223.695978 
L 100.523362 224.508951 
L 100.024757 224.642041 
L 98.62097 224.868769 
L 97.069662 224.928648 
L 94.238077 224.668865 
L 91.436033 224.062862 
L 88.244294 223.262899 
L 87.993277 223.342696 
L 87.939565 223.499006 
L 88.173797 224.119737 
L 89.112154 225.532308 
L 90.735887 227.699668 
L 95.045802 233.110496 
L 96.914415 235.242583 
L 98.590421 236.903903 
L 100.17913 238.04074 
L 101.512163 238.23214 
L 102.202776 237.486637 
L 102.40706 236.431019 
L 102.353684 235.77932 
L 101.894523 234.881775 
L 100.289279 235.246385 
L 99.631929 235.841124 
L 99.631929 235.841124 
" style="fill:none;stroke:#000000;stroke-linecap:square;stroke-opacity:0.7;stroke-width:1.2;"/>
   </g>
   <g id="line2d_2">
    <path clip-path="url(#pdc15dbceb8)" d="M 91.274813 222.471342 
L 87.17504 221.499387 
L 81.023944 218.564802 
L 78.938332 216.760859 
L 76.716385 213.436674 
L 75.908435 210.171551 
L 76.142663 207.014523 
L 76.601188 205.486769 
L 77.745796 203.225781 
L 79.484538 201.121046 
L 80.2427 200.459024 
L 81.348763 199.688919 
L 82.890153 198.936908 
L 85.895626 198.377589 
L 88.439947 198.739183 
L 89.799807 199.20903 
L 91.539623 200.033417 
L 99.245987 204.36127 
L 100.982078 205.076324 
L 103.28787 205.782758 
L 105.878358 206.234714 
L 107.68456 206.32805 
L 110.098948 206.13852 
L 111.185794 205.915584 
L 112.540878 205.482627 
L 113.557072 205.004251 
L 114.365354 204.477946 
L 115.36681 203.457122 
L 115.599949 203.074907 
L 115.921527 202.053267 
L 115.91893 201.382874 
L 115.648836 200.443049 
L 115.053559 199.486148 
L 114.079236 198.501071 
L 112.629356 197.485908 
L 110.85428 196.583969 
L 108.826587 195.820313 
L 105.346437 194.963382 
L 102.923098 194.679468 
L 101.139864 194.70712 
L 100.054965 194.952474 
L 99.594811 195.266596 
L 99.480201 195.728749 
L 99.736647 196.220439 
L 100.253828 196.705664 
L 101.123046 197.2392 
L 101.917795 197.558115 
L 102.777933 197.672508 
L 103.229407 197.420384 
L 103.311506 197.039133 
L 103.173657 196.412935 
L 102.713708 195.42644 
L 101.580314 193.632195 
L 99.769146 191.220279 
L 98.502488 189.845577 
L 98.009189 189.559684 
L 97.809562 189.607518 
L 97.636308 189.966267 
L 97.556108 190.950681 
L 97.415159 196.135967 
L 97.06759 198.313494 
L 96.91881 198.823776 
L 97.362429 197.460393 
L 98.227844 195.508573 
L 98.901768 194.342251 
L 99.832437 193.208984 
L 100.554322 192.682327 
L 101.22815 192.434231 
L 101.889214 192.387935 
L 102.653667 192.539762 
L 103.78926 193.09198 
L 105.238786 194.216534 
L 107.214204 196.237347 
L 115.668816 205.931275 
L 118.429962 208.169952 
L 120.775544 209.391567 
L 123.720608 209.927379 
L 126.274824 209.459211 
L 129.908977 207.333177 
L 132.899666 204.376966 
L 136.457414 199.56303 
L 139.239208 194.892439 
L 139.239208 194.892439 
" style="fill:none;stroke:#000000;stroke-linecap:square;stroke-opacity:0.7;stroke-width:1.2;"/>
   </g>
   <g id="line2d_3">
    <path clip-path="url(#pdc15dbceb8)" d="M 76.441533 138.419734 
L 80.92264 149.07837 
L 83.168501 152.309279 
L 86.251533 155.201907 
L 88.961894 156.318798 
L 93.294137 153.26457 
L 93.884126 150.157512 
L 93.676896 146.292927 
L 92.727774 142.169442 
L 91.884222 139.757054 
L 90.522533 136.706292 
L 88.152927 132.660643 
L 86.634567 130.616446 
L 84.642738 128.505986 
L 83.767856 127.886527 
L 83.538444 127.952935 
L 83.792792 128.371688 
L 84.594901 129.183859 
L 85.875678 130.196727 
L 88.514352 131.825315 
L 91.139317 133.054271 
L 91.927875 133.360193 
L 95.210342 134.337582 
L 98.268612 134.799886 
L 99.58659 134.847053 
L 102.167046 134.605373 
L 103.680637 134.190631 
L 105.515152 133.257104 
L 106.480472 132.441616 
L 107.009753 131.819342 
L 107.762971 130.479712 
L 107.995823 129.810455 
L 108.260732 128.374907 
L 108.241404 126.53467 
L 107.89612 124.620892 
L 107.564033 123.486335 
L 106.630296 121.146605 
L 105.254155 118.525032 
L 104.079649 116.591189 
L 105.385038 118.550265 
L 109.006083 124.362213 
L 112.554661 130.428108 
L 114.698944 134.489231 
L 116.117539 137.683267 
L 116.929002 140.136654 
L 117.325099 142.327096 
L 117.339298 143.678908 
L 117.07843 145.091676 
L 116.348488 146.565203 
L 115.429888 147.540366 
L 114.719775 148.036648 
L 113.562006 148.574524 
L 112.068028 148.930993 
L 110.534581 148.989266 
L 109.140753 148.792512 
L 107.662894 148.314317 
L 106.228634 147.56697 
L 104.6515 146.435404 
L 101.322703 143.64653 
L 99.172367 142.21975 
L 98.284017 141.767168 
L 94.929004 140.677502 
L 93.00156 140.407667 
L 91.721862 140.344085 
L 90.354356 140.367564 
L 87.867871 140.636694 
L 85.770195 141.092299 
L 83.317052 141.936528 
L 82.577897 142.276524 
L 81.172292 143.086015 
L 79.799706 144.236185 
L 79.080197 145.197457 
L 78.59724 146.584534 
L 78.600936 147.579745 
L 78.819352 148.45321 
L 79.153049 149.199668 
L 79.914426 150.355162 
L 80.916759 151.483218 
L 82.79095 153.14747 
L 86.605093 155.919472 
L 90.456161 158.825329 
L 91.098506 159.532853 
L 91.51943 160.781501 
L 91.062707 161.482318 
L 90.452854 161.862928 
L 89.0709 162.344212 
L 86.449045 162.808235 
L 81.532134 163.13595 
L 73.907968 163.068423 
L 64.520483 162.483047 
L 64.520483 162.483047 
" style="fill:none;stroke:#000000;stroke-linecap:square;stroke-opacity:0.7;stroke-width:1.2;"/>
   </g>
   <g id="line2d_4">
    <path clip-path="url(#pdc15dbceb8)" d="M 99.420316 129.617498 
L 98.564652 124.841275 
L 96.451235 111.62817 
L 93.735219 94.696608 
L 92.439728 88.138432 
L 92.038105 86.04258 
L 93.088924 87.604185 
L 94.457492 89.468363 
L 96.554317 91.916757 
L 99.139874 94.473669 
L 101.446657 96.434017 
L 104.591091 98.706312 
L 106.043971 99.679945 
L 105.97164 99.725695 
L 104.497947 99.466637 
L 102.181438 99.180194 
L 100.510713 99.172178 
L 99.384777 99.326788 
L 98.604802 99.567979 
L 98.186039 99.77448 
L 97.632682 100.195935 
L 97.150669 100.863258 
L 96.803979 102.074059 
L 96.755384 103.284121 
L 96.938137 105.372494 
L 97.531822 110.74539 
L 97.555743 112.752336 
L 97.390971 114.626361 
L 97.099333 115.994642 
L 96.564426 117.269639 
L 96.26684 117.535812 
L 96.210476 117.416845 
L 96.280374 117.100982 
L 96.638306 116.394838 
L 97.481001 115.301763 
L 98.627889 114.220334 
L 100.28073 113.091188 
L 101.443198 112.520383 
L 103.05143 112.003804 
L 104.513848 111.828397 
L 105.595014 111.926364 
L 105.929834 112.009362 
L 106.978593 112.527094 
L 107.524759 113.109133 
L 107.8177 113.76264 
L 107.882518 114.650078 
L 107.568443 115.712247 
L 107.010522 116.564711 
L 106.108077 117.41153 
L 105.109297 118.016862 
L 104.330465 118.338633 
L 103.407276 118.589614 
L 101.604112 118.74231 
L 100.616265 118.654545 
L 98.650838 118.123448 
L 97.964141 117.819091 
L 96.878373 117.196451 
L 95.000522 115.619283 
L 93.624415 113.8873 
L 92.409094 111.621147 
L 91.631032 109.341708 
L 91.339027 108.01997 
L 91.067446 105.670571 
L 91.079112 103.493387 
L 91.2774 101.716968 
L 91.780112 99.543077 
L 92.824269 97.095548 
L 93.263228 96.417391 
L 94.029253 95.539095 
L 95.516431 94.652459 
L 97.127707 94.604074 
L 97.950331 94.865068 
L 99.421165 95.698668 
L 100.583429 96.603049 
L 101.863263 97.759105 
L 109.314069 105.058208 
L 113.929359 108.936133 
L 118.050539 111.865294 
L 123.865022 115.261247 
L 128.261306 117.343666 
L 128.261306 117.343666 
" style="fill:none;stroke:#000000;stroke-linecap:square;stroke-opacity:0.7;stroke-width:1.2;"/>
   </g>
   <g id="line2d_5">
    <path clip-path="url(#pdc15dbceb8)" d="M 125.874152 72.306138 
L 124.515951 70.128161 
L 123.152214 66.968324 
L 122.283319 63.981629 
L 120.464736 55.715928 
L 119.33021 53.822118 
L 118.484437 53.287792 
L 117.198711 53.049929 
L 116.472181 53.079834 
L 113.858479 53.646346 
L 107.86972 55.815009 
L 98.718882 59.111235 
L 97.562798 59.474369 
L 90.718904 61.307557 
L 84.432828 62.476493 
L 81.500282 62.840228 
L 77.976356 63.105224 
L 75.0593 63.148902 
L 72.790998 63.01532 
L 71.547872 62.8257 
L 70.205707 62.357517 
L 69.758499 61.838204 
L 69.85326 61.224929 
L 70.370333 60.54914 
L 71.391445 59.668936 
L 73.980709 57.890596 
L 82.871404 52.185692 
L 89.057219 47.849029 
L 99.136986 40.535569 
L 100.376857 39.862279 
L 101.682025 39.38166 
L 102.559289 39.314763 
L 103.019298 39.532991 
L 103.038261 39.804981 
L 102.811072 40.020404 
L 102.254921 40.21102 
L 101.313316 40.283348 
L 99.777249 40.135891 
L 98.385394 39.841738 
L 96.101245 39.12526 
L 93.650579 38.06741 
L 91.485209 36.857584 
L 89.564386 35.498112 
L 88.494793 34.57318 
L 87.155116 33.140357 
L 86.180587 31.741578 
L 85.805761 31.03323 
L 85.266368 29.494322 
L 85.129691 28.029069 
L 85.344738 26.864733 
L 85.63977 26.216018 
L 86.330181 25.403093 
L 87.097528 24.978901 
L 87.926478 24.877734 
L 88.659979 25.089559 
L 89.216809 25.506251 
L 89.666708 26.136677 
L 90.007963 27.117063 
L 90.118089 28.277734 
L 89.936749 29.928826 
L 89.641527 31.069751 
L 88.787392 33.22097 
L 87.308468 35.838819 
L 85.963722 37.748354 
L 83.230087 40.986082 
L 79.909302 44.331605 
L 72.788672 51.153988 
L 71.653463 52.494629 
L 70.704596 53.892454 
L 70.161911 55.063876 
L 69.950486 55.999104 
L 70.253819 57.560109 
L 70.756194 58.193391 
L 71.188408 58.537132 
L 72.414746 59.128096 
L 73.91016 59.489864 
L 77.092885 59.685861 
L 79.728759 59.555421 
L 89.526659 58.59555 
L 91.571771 58.519985 
L 93.71854 58.558783 
L 97.17869 58.961699 
L 101.580999 60.281582 
L 107.323905 63.796046 
L 111.358551 67.735876 
L 115.930415 73.83789 
L 115.930415 73.83789 
" style="fill:none;stroke:#000000;stroke-linecap:square;stroke-opacity:0.7;stroke-width:1.2;"/>
   </g>
   <g id="line2d_6">
    <path clip-path="url(#pdc15dbceb8)" d="M 243.668803 232.166737 
L 240.267209 238.617271 
L 236.217323 244.777392 
L 232.872859 248.419396 
L 228.28894 251.14754 
L 225.573227 251.515877 
L 223.152689 251.06738 
L 217.98124 247.669442 
L 216.352826 245.896782 
L 215.114101 244.306705 
L 213.367181 241.669719 
L 211.229191 237.632243 
L 209.849551 234.184224 
L 208.988812 230.911272 
L 208.795486 229.306769 
L 208.854638 227.575566 
L 209.085072 226.567947 
L 209.83233 225.154709 
L 210.70672 224.315416 
L 211.455931 223.85394 
L 212.39295 223.453521 
L 214.698707 222.912319 
L 215.950522 222.767475 
L 219.853517 222.642408 
L 224.474868 222.792509 
L 236.702386 223.392588 
L 242.850069 223.397155 
L 245.790472 223.21839 
L 249.168454 222.740238 
L 251.02348 222.257929 
L 251.752251 221.996017 
L 253.29353 221.21014 
L 254.434717 220.223754 
L 255.06585 219.269608 
L 255.420121 218.261825 
L 255.565464 217.123095 
L 255.444745 215.292398 
L 255.168699 213.276049 
L 255.248084 213.324136 
L 255.554179 213.87106 
L 255.918454 214.862277 
L 256.218175 216.253511 
L 256.286661 217.193081 
L 256.133452 218.779778 
L 255.708085 220.122335 
L 255.033758 221.377955 
L 254.301803 222.360073 
L 252.015999 224.499873 
L 250.163068 225.767703 
L 248.034929 226.956277 
L 246.429287 227.720748 
L 243.249276 228.97389 
L 240.603748 229.772346 
L 238.009769 230.303108 
L 236.193529 230.452704 
L 234.649677 230.30564 
L 233.690064 229.918702 
L 233.215648 229.497276 
L 233.065196 229.283771 
L 232.724065 228.267614 
L 232.389649 225.886112 
L 231.968801 225.217905 
L 231.269799 224.715232 
L 230.364112 224.383284 
L 228.708804 224.101723 
L 226.741826 224.002011 
L 224.642099 224.118901 
L 223.941708 224.287576 
L 223.400702 224.681179 
L 223.303749 225.197187 
L 223.556247 226.117437 
L 225.05864 229.917723 
L 225.390076 231.049219 
L 225.754954 232.731357 
L 225.999972 234.851343 
L 226.030571 236.438448 
L 225.82445 238.910518 
L 225.5132 240.583562 
L 224.55094 243.769788 
L 223.140588 247.024217 
L 221.998003 249.502124 
L 221.533911 251.034179 
L 221.661089 252.612313 
L 222.549113 253.925726 
L 225.332202 255.937964 
L 225.332202 255.937964 
" style="fill:none;stroke:#000000;stroke-linecap:square;stroke-opacity:0.7;stroke-width:1.2;"/>
   </g>
   <g id="line2d_7">
    <path clip-path="url(#pdc15dbceb8)" d="M 232.368374 221.876817 
L 233.877106 220.051211 
L 235.40136 217.831775 
L 236.636472 215.754897 
L 238.731102 211.479915 
L 240.407897 206.824131 
L 241.6107 201.160293 
L 241.861958 197.274518 
L 241.743539 194.738717 
L 241.30084 191.842944 
L 239.916406 187.499764 
L 238.1188 184.147817 
L 236.382686 181.80421 
L 234.282194 179.586391 
L 231.921893 177.596648 
L 229.017621 175.629133 
L 223.934446 173.014354 
L 220.651529 171.706544 
L 218.284528 170.897204 
L 213.350673 169.473176 
L 203.666643 166.894975 
L 203.150136 166.574037 
L 203.020784 166.340544 
L 203.139051 166.125372 
L 203.28514 166.032946 
L 204.189706 165.812869 
L 205.220668 165.849171 
L 205.839949 166.142733 
L 205.880834 166.520883 
L 205.530474 166.969609 
L 204.631099 167.603273 
L 202.750922 168.574739 
L 199.439064 170.248059 
L 198.908221 170.756589 
L 198.909789 170.980928 
L 199.149062 171.15156 
L 200.05157 171.286754 
L 201.467439 171.224971 
L 204.338905 170.798314 
L 207.093533 170.405825 
L 208.411301 170.395758 
L 209.84311 170.630819 
L 211.421038 171.233518 
L 213.205815 172.299259 
L 215.600497 174.149277 
L 220.252763 178.205797 
L 223.870428 181.176478 
L 226.189047 182.819291 
L 228.015459 183.917646 
L 229.384009 184.612048 
L 232.157589 185.656706 
L 234.500244 186.161058 
L 236.607134 186.343442 
L 239.256489 186.267693 
L 241.267646 186.034203 
L 245.09592 185.32494 
L 251.081171 184.097262 
L 253.08574 183.937491 
L 253.82249 184.047494 
L 254.20861 184.272115 
L 254.345508 184.654898 
L 253.856922 185.685409 
L 252.671143 186.956134 
L 249.438499 189.665023 
L 245.050192 193.11205 
L 241.871732 195.916394 
L 239.982482 198.250515 
L 239.555263 199.29679 
L 239.891187 200.831774 
L 240.482068 201.296408 
L 241.566041 201.687258 
L 242.625817 201.83082 
L 245.914211 201.546868 
L 248.644279 200.750076 
L 250.468407 199.982493 
L 255.777115 196.784173 
L 259.131258 194.132284 
L 262.331783 191.280882 
L 266.630004 187.184751 
L 266.630004 187.184751 
" style="fill:none;stroke:#000000;stroke-linecap:square;stroke-opacity:0.7;stroke-width:1.2;"/>
   </g>
   <g id="line2d_8">
    <path clip-path="url(#pdc15dbceb8)" d="M 228.685074 201.479354 
L 230.917501 187.049648 
L 232.891249 177.99309 
L 233.821739 172.702161 
L 234.267817 169.259955 
L 234.643382 163.830777 
L 234.651697 160.769464 
L 233.53804 150.643834 
L 232.599695 146.365625 
L 230.446894 137.426641 
L 229.955536 134.359399 
L 229.776647 131.869308 
L 229.807073 129.978902 
L 229.930911 127.511643 
L 229.723541 127.57598 
L 229.501852 127.795395 
L 227.51351 130.328327 
L 218.138259 142.763657 
L 217.79816 143.555977 
L 217.891366 143.89578 
L 218.148699 144.048695 
L 218.95547 144.206169 
L 220.876188 144.332851 
L 222.038002 144.185795 
L 222.429897 144.016433 
L 222.983393 143.50255 
L 223.333903 142.69061 
L 223.490877 141.547523 
L 223.432906 139.590995 
L 223.125125 135.286434 
L 223.314386 134.626602 
L 223.519087 134.440397 
L 223.900687 134.414773 
L 224.581046 134.75276 
L 225.47982 135.528085 
L 226.575306 136.767381 
L 227.759304 138.435004 
L 228.602054 139.934469 
L 229.125096 141.184377 
L 229.446415 142.610773 
L 229.633569 144.241609 
L 230.229771 144.702797 
L 234.91566 147.65554 
L 238.454889 150.272886 
L 241.154522 152.539942 
L 243.474691 154.72291 
L 245.95316 157.409431 
L 247.950162 160.086475 
L 248.906117 161.786148 
L 249.531597 163.506864 
L 249.542577 165.64321 
L 248.976341 166.694935 
L 247.132054 167.907768 
L 245.204161 168.393493 
L 241.747712 168.608525 
L 239.05612 168.48927 
L 230.696299 167.383876 
L 226.231585 166.550596 
L 226.231585 166.550596 
" style="fill:none;stroke:#000000;stroke-linecap:square;stroke-opacity:0.7;stroke-width:1.2;"/>
   </g>
   <g id="line2d_9">
    <path clip-path="url(#pdc15dbceb8)" d="M 227.862701 148.474969 
L 227.956128 143.444443 
L 228.631889 139.256519 
L 229.081927 137.632401 
L 231.129492 132.873324 
L 232.101711 131.218185 
L 235.606266 126.007569 
L 237.916797 121.265588 
L 238.199652 119.540556 
L 238.203942 118.617898 
L 237.943435 116.872346 
L 236.906182 112.769895 
L 236.980601 111.706136 
L 236.981121 111.334762 
L 236.795058 111.308582 
L 235.864292 111.822159 
L 232.930343 113.516192 
L 231.303078 114.254027 
L 229.457355 114.786222 
L 228.294968 114.824861 
L 227.834276 114.721708 
L 227.170209 114.337375 
L 226.585855 113.340119 
L 226.42943 112.270493 
L 226.468771 111.18708 
L 226.783749 109.260219 
L 227.46237 106.642003 
L 229.191203 101.21272 
L 232.583912 91.236902 
L 232.918489 91.046273 
L 233.246826 91.225054 
L 233.74241 91.957955 
L 234.560889 93.781657 
L 235.89443 97.46519 
L 237.118811 101.414217 
L 237.981474 104.675978 
L 238.755031 108.316568 
L 239.241114 111.638778 
L 239.44343 114.689433 
L 239.421938 116.408915 
L 239.164184 118.831224 
L 238.690752 120.745699 
L 238.287286 121.774784 
L 237.513535 123.107944 
L 236.919121 123.808031 
L 236.023152 124.538088 
L 234.637277 125.157059 
L 234.266731 125.244319 
L 232.722636 125.332682 
L 231.424203 125.117295 
L 229.749591 124.501639 
L 228.327873 123.684214 
L 226.861304 122.481897 
L 226.191842 121.629456 
L 226.155839 121.397258 
L 226.255167 121.356861 
L 226.755632 121.566083 
L 228.203123 122.651184 
L 230.232315 124.466255 
L 238.25086 132.025236 
L 240.10325 133.6399 
L 242.94957 135.904983 
L 245.530453 137.639241 
L 248.01006 138.86688 
L 250.023383 139.333551 
L 251.609105 139.040473 
L 253.120017 136.957787 
L 253.373476 135.364532 
L 252.907556 130.225468 
L 252.114527 126.879763 
L 250.726436 122.39703 
L 249.099701 117.961996 
L 249.099701 117.961996 
" style="fill:none;stroke:#000000;stroke-linecap:square;stroke-opacity:0.7;stroke-width:1.2;"/>
   </g>
   <g id="line2d_10">
    <path clip-path="url(#pdc15dbceb8)" d="M 214.18226 109.69763 
L 215.09654 104.060217 
L 216.991404 95.215097 
L 218.704299 88.740346 
L 222.42152 76.834395 
L 226.3452 65.379549 
L 228.592871 58.457791 
L 229.941951 53.508769 
L 230.481441 50.897953 
L 230.796067 48.549295 
L 230.812432 45.767828 
L 230.144261 43.361875 
L 229.524426 42.557643 
L 227.935909 41.867921 
L 226.843057 41.962024 
L 225.854763 42.325492 
L 225.112577 42.766475 
L 224.047332 43.700804 
L 223.078798 45.063885 
L 222.598703 46.247515 
L 222.429111 47.076356 
L 222.392766 47.955985 
L 222.722313 49.565674 
L 223.324453 50.740636 
L 224.131939 51.745052 
L 224.785438 52.357202 
L 225.666163 53.022613 
L 226.682518 53.641197 
L 228.341528 54.426141 
L 232.446017 55.673255 
L 234.296292 56.150289 
L 232.999915 56.186483 
L 213.258085 56.125613 
L 205.401924 56.495264 
L 197.307321 56.920525 
L 195.557739 56.774958 
L 195.055332 56.64176 
L 194.278954 56.080948 
L 194.157732 55.3961 
L 194.501718 54.39308 
L 195.18574 53.318032 
L 196.121328 52.170975 
L 197.932734 50.325156 
L 199.90889 48.603228 
L 202.616055 46.570018 
L 205.385556 44.806705 
L 207.449514 43.681697 
L 210.833037 42.170522 
L 213.65643 41.218643 
L 213.931098 41.140832 
L 217.762275 40.324752 
L 220.348593 40.051976 
L 223.707464 40.017115 
L 226.318111 40.223111 
L 229.232967 40.66932 
L 232.749758 41.463183 
L 237.238885 42.763584 
L 247.68977 45.988674 
L 251.436988 46.850087 
L 253.827225 47.237182 
L 253.536544 47.274896 
L 251.560775 47.633892 
L 250.186182 48.060098 
L 248.982566 48.574347 
L 247.35106 49.550365 
L 246.108145 50.618663 
L 245.212707 51.691358 
L 244.054602 54.012448 
L 243.704104 55.528893 
L 243.595438 57.275701 
L 243.710448 58.780818 
L 244.167037 60.973856 
L 245.673649 64.875889 
L 247.829844 68.680332 
L 253.770952 76.928431 
L 253.969703 77.591978 
L 253.074921 77.764037 
L 251.10095 77.111348 
L 246.56055 75.142418 
L 240.284248 72.23227 
L 240.284248 72.23227 
" style="fill:none;stroke:#000000;stroke-linecap:square;stroke-opacity:0.7;stroke-width:1.2;"/>
   </g>
   <g id="line2d_11">
    <path clip-path="url(#pdc15dbceb8)" d="M 378.85729 245.269667 
L 382.911455 240.079796 
L 384.92999 237.114573 
L 386.431497 234.10458 
L 386.659054 233.365706 
L 386.850801 232.027421 
L 386.571542 230.54309 
L 385.939489 229.579179 
L 383.946177 228.248143 
L 382.676993 227.784165 
L 380.278965 227.216878 
L 377.569738 226.827026 
L 372.489099 226.421487 
L 352.641254 225.380107 
L 348.212542 224.913869 
L 343.483399 224.205786 
L 339.314317 223.332944 
L 335.801057 222.337445 
L 332.986586 221.273788 
L 331.189557 220.363026 
L 330.659933 219.98309 
L 331.711125 220.770914 
L 333.01319 222.141496 
L 334.363905 223.863841 
L 336.593202 226.744097 
L 337.576352 227.614772 
L 338.390212 228.02703 
L 338.736221 228.070587 
L 339.114515 227.903411 
L 339.307456 227.26211 
L 339.186021 226.297872 
L 338.60672 224.268539 
L 337.961888 221.808006 
L 337.879246 220.582461 
L 337.997977 219.952793 
L 338.433079 219.27741 
L 338.773289 219.049345 
L 339.794201 218.813588 
L 340.990315 218.890929 
L 342.850488 219.324147 
L 345.232694 220.128468 
L 355.858521 224.06472 
L 358.346504 224.723831 
L 361.042759 225.194412 
L 362.946919 225.306266 
L 364.39472 225.18396 
L 365.167335 224.894643 
L 365.147097 224.789089 
L 364.707475 224.76031 
L 363.688054 225.005718 
L 362.908734 225.308838 
L 360.841064 226.417942 
L 358.96412 227.720037 
L 357.122807 229.228301 
L 354.831668 231.446289 
L 353.691145 232.776839 
L 352.935126 233.904356 
L 352.641112 234.833892 
L 352.698296 235.060971 
L 353.083864 235.319749 
L 355.007368 235.004735 
L 357.402716 234.027 
L 363.538756 231.042305 
L 365.404846 230.427056 
L 365.913541 230.392689 
L 366.795548 230.874036 
L 367.025167 231.665827 
L 366.62194 234.993527 
L 364.102707 243.599862 
L 362.703585 247.854963 
L 362.703585 247.854963 
" style="fill:none;stroke:#000000;stroke-linecap:square;stroke-opacity:0.7;stroke-width:1.2;"/>
   </g>
   <g id="line2d_12">
    <path clip-path="url(#pdc15dbceb8)" d="M 328.761517 227.417858 
L 341.558131 217.486066 
L 355.254195 205.450975 
L 359.728061 200.456802 
L 361.713038 197.657297 
L 363.24244 194.662204 
L 363.680102 193.232916 
L 363.834243 191.182053 
L 363.329957 189.536033 
L 362.527625 188.560376 
L 359.39628 187.501524 
L 358.503129 187.573168 
L 357.436504 187.837379 
L 355.392007 189.00295 
L 354.706181 189.679811 
L 353.626376 191.330486 
L 353.259388 192.209352 
L 352.866855 193.549863 
L 352.313549 195.743612 
L 352.08706 196.026339 
L 351.820132 196.081142 
L 351.602471 196.011913 
L 350.8871 195.456012 
L 350.318867 194.837886 
L 347.999078 191.659821 
L 345.990277 188.353081 
L 344.396839 185.270764 
L 343.389662 182.919746 
L 342.721057 180.944456 
L 342.341593 179.383099 
L 342.118234 177.382894 
L 342.175939 176.220429 
L 342.640759 174.51146 
L 343.316072 173.401401 
L 344.449038 172.323389 
L 346.526333 171.207436 
L 348.287448 170.625548 
L 351.303057 169.965926 
L 357.360471 169.090598 
L 363.27874 168.219624 
L 367.044665 167.435787 
L 369.101779 166.799174 
L 370.093331 166.306166 
L 370.37267 166.045271 
L 370.393258 165.708203 
L 370.082382 165.488009 
L 369.446476 165.311983 
L 367.701668 165.1716 
L 365.600582 165.227667 
L 361.851191 165.600904 
L 357.277912 166.322824 
L 350.383454 167.69416 
L 342.800881 169.202948 
L 339.48777 169.692047 
L 335.906496 169.938231 
L 333.43083 169.822509 
L 332.619886 169.711637 
L 329.865297 168.955435 
L 329.15045 168.635708 
L 327.137544 167.35081 
L 325.142019 165.301973 
L 323.888976 163.447347 
L 323.020582 161.748565 
L 323.06023 161.738596 
L 327.159058 166.659962 
L 330.031975 169.47386 
L 333.933389 172.888956 
L 340.711779 178.285965 
L 349.881376 185.180626 
L 358.647776 191.496704 
L 361.123599 193.100246 
L 362.719617 194.008825 
L 364.826078 194.918201 
L 370.360599 193.100369 
L 372.361518 190.289165 
L 372.361518 190.289165 
" style="fill:none;stroke:#000000;stroke-linecap:square;stroke-opacity:0.7;stroke-width:1.2;"/>
   </g>
   <g id="line2d_13">
    <path clip-path="url(#pdc15dbceb8)" d="M 350.170176 187.794521 
L 350.101057 186.926399 
L 350.769827 185.863886 
L 355.906827 178.715037 
L 357.384526 176.427097 
L 359.133315 173.274657 
L 360.025931 171.224866 
L 360.715794 168.948008 
L 361.039117 166.893224 
L 361.161935 165.600179 
L 361.604336 163.364666 
L 362.27998 161.762959 
L 363.132952 160.272571 
L 364.923784 157.655987 
L 373.280051 146.142525 
L 374.398799 144.286886 
L 375.606438 141.854663 
L 376.158743 140.116375 
L 376.251946 139.062906 
L 376.068511 138.246252 
L 375.832946 137.872758 
L 375.124723 137.385596 
L 374.236019 137.208444 
L 373.218705 137.253585 
L 372.015659 137.499191 
L 370.587288 137.969157 
L 368.940001 138.687451 
L 366.457093 140.0523 
L 363.722556 141.899287 
L 361.049087 144.055849 
L 358.778863 146.215719 
L 357.161827 148.036559 
L 356.191731 149.436355 
L 356.166173 149.568358 
L 356.312919 149.427223 
L 356.799152 148.603518 
L 357.179326 147.528841 
L 357.234295 146.734049 
L 357.056397 146.390653 
L 356.762553 146.403929 
L 356.480224 146.679004 
L 356.186971 147.290274 
L 356.009335 148.173254 
L 356.02678 149.444843 
L 356.236438 150.56156 
L 356.726072 151.978303 
L 357.336905 153.192005 
L 358.125332 154.39444 
L 358.720596 155.144491 
L 360.113165 156.559161 
L 361.482972 157.617629 
L 363.050105 158.516242 
L 364.712581 159.150415 
L 366.127796 159.438794 
L 367.279095 159.492646 
L 368.375775 159.372426 
L 369.278688 159.12169 
L 370.118237 158.727612 
L 371.071535 157.992719 
L 371.6613 157.244065 
L 372.009625 156.51738 
L 372.213806 155.505195 
L 372.190393 154.900306 
L 371.901584 153.975883 
L 371.48175 153.448918 
L 370.907953 153.227628 
L 370.6723 153.271621 
L 370.103658 153.777462 
L 369.731241 154.593885 
L 369.290099 156.791088 
L 369.033067 160.20743 
L 368.926385 166.824535 
L 368.994629 169.236878 
L 369.186454 171.658288 
L 369.617514 174.012948 
L 370.218011 175.623657 
L 371.33007 177.083875 
L 374.638606 178.208714 
L 379.868448 177.427117 
L 385.725369 175.489449 
L 385.725369 175.489449 
" style="fill:none;stroke:#000000;stroke-linecap:square;stroke-opacity:0.7;stroke-width:1.2;"/>
   </g>
   <g id="line2d_14">
    <path clip-path="url(#pdc15dbceb8)" d="M 385.570471 137.74184 
L 382.61414 135.127447 
L 379.661437 131.762336 
L 376.961805 128.026511 
L 369.251666 116.684307 
L 364.494119 109.753675 
L 361.948573 105.548417 
L 359.81975 101.303697 
L 358.3178 97.434079 
L 357.543567 94.779445 
L 357.017928 92.235282 
L 356.765888 89.969285 
L 356.761813 88.240957 
L 356.816128 87.625913 
L 357.202092 85.96949 
L 357.759244 84.994877 
L 358.455081 84.433299 
L 358.826822 84.288132 
L 360.174258 84.288371 
L 361.457313 84.801789 
L 362.739894 85.700258 
L 364.1442 87.148275 
L 364.984118 88.326624 
L 365.996282 90.255245 
L 366.705334 92.149233 
L 367.439995 94.782021 
L 369.709798 104.01169 
L 371.113308 108.516036 
L 372.904298 113.262094 
L 374.464245 116.789549 
L 376.806689 121.394117 
L 377.286304 122.474479 
L 377.238629 122.506652 
L 376.586081 122.058315 
L 370.205313 116.807938 
L 362.377637 110.564316 
L 360.613056 108.878743 
L 359.768716 107.854084 
L 359.181978 106.628993 
L 359.164956 106.175988 
L 359.4407 105.597121 
L 359.883638 105.264951 
L 360.631579 104.995137 
L 361.704639 104.842863 
L 363.5221 104.871078 
L 365.703492 105.169651 
L 369.276744 105.860139 
L 369.161997 105.58716 
L 367.812476 104.117657 
L 365.94381 101.953494 
L 364.924109 100.559917 
L 363.99927 99.002092 
L 363.342907 97.227155 
L 363.300478 96.152613 
L 363.496821 95.56062 
L 363.865291 95.091213 
L 364.777929 94.574114 
L 365.500731 94.385289 
L 367.525888 94.23835 
L 369.481346 94.340682 
L 373.182928 94.824271 
L 378.472466 95.900544 
L 380.859866 96.512362 
L 383.970176 97.426385 
L 387.707996 98.701027 
L 391.184674 100.058886 
L 395.925571 102.174871 
L 399.219849 103.822231 
L 407.39098 108.525513 
L 412.847018 112.153896 
L 412.847018 112.153896 
" style="fill:none;stroke:#000000;stroke-linecap:square;stroke-opacity:0.7;stroke-width:1.2;"/>
   </g>
   <g id="line2d_15">
    <path clip-path="url(#pdc15dbceb8)" d="M 364.951151 105.491202 
L 375.361795 97.932044 
L 380.832647 93.598969 
L 383.857764 90.971391 
L 386.210935 88.675179 
L 388.431516 85.911332 
L 389.161021 84.35042 
L 389.251976 83.149292 
L 388.274763 81.654436 
L 386.491974 80.7528 
L 384.996808 80.31768 
L 380.96649 79.612992 
L 374.011438 78.895984 
L 361.613286 77.716083 
L 353.021442 76.853263 
L 351.261472 76.851941 
L 349.93011 77.108111 
L 349.420839 77.378018 
L 349.039713 77.75134 
L 348.634612 78.630993 
L 348.390429 80.084237 
L 348.114568 81.827469 
L 347.85491 82.656119 
L 347.395526 83.476525 
L 347.017156 83.878695 
L 346.381994 84.274885 
L 345.728701 84.462624 
L 344.852053 84.490956 
L 343.731962 84.257689 
L 342.72948 83.81582 
L 341.870303 83.163539 
L 341.544365 82.657605 
L 341.522262 82.217615 
L 341.886888 81.712086 
L 342.557442 81.316862 
L 343.734876 80.892436 
L 346.987066 80.093176 
L 352.741693 78.699029 
L 355.205669 77.920724 
L 356.679737 77.285727 
L 357.293725 76.791463 
L 357.32099 76.565725 
L 357.062797 76.294301 
L 356.363531 75.976161 
L 354.151908 75.06982 
L 353.720103 74.645211 
L 353.60923 74.198828 
L 353.451778 73.793386 
L 353.26001 73.727542 
L 352.92176 73.801503 
L 352.503896 74.091915 
L 352.126328 74.568103 
L 351.841392 75.201749 
L 351.692498 75.91331 
L 351.703789 76.972129 
L 352.037066 78.347348 
L 352.609806 79.615415 
L 353.227354 80.622025 
L 354.367354 82.084326 
L 355.895286 83.643732 
L 357.19553 84.763147 
L 363.380629 88.715187 
L 367.125232 90.415921 
L 369.925159 91.427051 
L 373.286567 92.354049 
L 376.254138 92.883957 
L 379.749216 93.040558 
L 382.543964 92.490699 
L 383.736737 91.746549 
L 384.326871 90.855513 
L 384.194322 88.62678 
L 383.351589 87.046685 
L 381.160309 84.464947 
L 377.213187 81.092875 
L 367.314658 74.705045 
L 367.314658 74.705045 
" style="fill:none;stroke:#000000;stroke-linecap:square;stroke-opacity:0.7;stroke-width:1.2;"/>
   </g>
   <g id="line2d_16">
    <path clip-path="url(#pdc15dbceb8)" d="M 499.842764 231.041905 
L 501.907009 229.941231 
L 510.314636 225.865575 
L 510.825078 225.349186 
L 510.515343 224.959896 
L 509.169315 224.687389 
L 506.732099 224.534117 
L 501.788644 224.489383 
L 496.165007 224.649173 
L 492.327928 224.999813 
L 490.874068 225.318585 
L 490.213658 225.62945 
L 489.975647 226.046552 
L 490.194564 226.45936 
L 490.95098 227.013951 
L 493.258517 228.031271 
L 496.180143 228.953263 
L 498.733341 229.576303 
L 501.429015 230.044452 
L 503.344594 230.210044 
L 504.730076 230.187673 
L 506.174666 229.925536 
L 506.94929 229.572846 
L 507.653257 228.864283 
L 507.942514 227.878702 
L 507.94265 227.483736 
L 507.6229 226.06804 
L 506.997513 224.710704 
L 506.263923 223.518633 
L 504.698929 221.503445 
L 502.751972 219.500925 
L 500.837669 217.874953 
L 498.498556 216.242003 
L 496.891947 215.316845 
L 493.843714 213.965545 
L 491.497016 213.274942 
L 489.361697 212.914944 
L 487.398005 212.824242 
L 486.394858 212.875388 
L 484.816828 213.108598 
L 483.393225 213.512914 
L 482.12833 214.084187 
L 480.990931 214.877678 
L 480.323764 215.595352 
L 479.984416 216.140502 
L 479.673513 217.116985 
L 479.663233 217.857748 
L 479.884483 218.741206 
L 480.41448 219.729568 
L 481.076487 220.564515 
L 482.41129 221.841051 
L 484.629374 223.567947 
L 488.704423 226.655802 
L 490.117048 227.901007 
L 491.596947 229.438424 
L 492.963461 231.255 
L 493.840313 232.851316 
L 494.422817 234.400078 
L 494.701286 235.584983 
L 494.854697 237.764395 
L 494.637983 239.563457 
L 494.243773 240.971451 
L 493.846916 241.94051 
L 492.951057 243.501756 
L 491.54158 245.122236 
L 491.239013 245.385098 
L 489.48415 246.4654 
L 488.951882 246.657109 
L 487.271595 246.851658 
L 486.259585 246.632186 
L 485.083105 245.952027 
L 484.4135 245.259379 
L 483.60211 243.78351 
L 483.41657 243.180858 
L 483.258668 242.257939 
L 483.290019 240.910906 
L 483.494707 240.033947 
L 484.116963 238.798133 
L 484.708923 238.121127 
L 485.261145 237.673976 
L 486.683949 236.948226 
L 487.971188 236.590406 
L 489.089221 236.416334 
L 490.99677 236.307626 
L 492.534065 236.33587 
L 497.289405 236.784445 
L 502.322789 237.547409 
L 509.192347 238.814025 
L 511.670662 239.38029 
L 513.491597 239.922522 
L 515.310933 240.919136 
L 515.176255 243.022577 
L 514.554771 243.764466 
L 513.06063 245.157636 
L 509.521127 247.927526 
L 489.727314 262.371589 
L 489.727314 262.371589 
" style="fill:none;stroke:#000000;stroke-linecap:square;stroke-opacity:0.7;stroke-width:1.2;"/>
   </g>
   <g id="line2d_17">
    <path clip-path="url(#pdc15dbceb8)" d="M 478.821067 219.685622 
L 475.002641 213.308487 
L 472.16303 206.584045 
L 471.318848 203.586873 
L 470.595239 197.099326 
L 470.702265 195.694343 
L 471.102735 193.683141 
L 471.446718 192.686726 
L 472.07632 191.442091 
L 475.00601 188.871147 
L 476.542875 188.368312 
L 477.703183 188.176201 
L 481.745375 188.220348 
L 485.329935 188.72367 
L 495.800888 190.596507 
L 500.26609 191.200283 
L 505.553859 191.644799 
L 511.39027 191.812627 
L 514.20129 191.914101 
L 515.319228 192.139911 
L 515.483119 192.220899 
L 515.786343 192.614766 
L 515.7842 192.856549 
L 515.551847 193.418203 
L 514.889583 194.28847 
L 513.532737 195.592175 
L 512.199807 196.589672 
L 510.675921 197.424076 
L 509.447393 197.833042 
L 508.223094 197.973446 
L 507.568417 197.927238 
L 506.615973 197.694314 
L 504.900254 196.712773 
L 503.799918 195.627556 
L 503.172573 194.808124 
L 502.0862 192.922572 
L 501.331856 191.082056 
L 500.668388 188.731163 
L 500.247868 186.238644 
L 500.045229 183.39227 
L 499.84438 178.12332 
L 499.43712 176.849701 
L 498.885844 176.033131 
L 497.898128 175.195653 
L 496.015208 174.26469 
L 494.684318 173.805163 
L 491.145456 172.899204 
L 486.966683 172.129973 
L 483.762724 171.708405 
L 480.07848 171.460102 
L 477.832421 171.513387 
L 476.075711 171.756823 
L 474.624345 172.226321 
L 473.581712 172.935929 
L 473.094362 173.621796 
L 472.918425 174.116235 
L 472.852812 175.169978 
L 473.234786 176.694687 
L 473.997102 178.250821 
L 474.915556 179.65676 
L 476.823094 181.998206 
L 478.819702 184.026562 
L 479.262829 184.435456 
L 482.536606 187.040631 
L 483.809468 187.827862 
L 485.372443 188.514769 
L 486.256033 188.64642 
L 486.806549 188.509886 
L 487.080306 188.29706 
L 487.514707 187.055638 
L 487.796746 184.398112 
L 487.857377 184.261849 
L 488.347847 183.768925 
L 488.936721 183.664739 
L 490.838475 184.259721 
L 491.288337 184.491331 
L 494.251594 186.394586 
L 497.624485 188.987313 
L 503.410933 193.889281 
L 514.560927 203.542465 
L 519.36547 207.297214 
L 522.04556 209.157263 
L 524.587397 210.708644 
L 527.03675 211.961306 
L 532.809512 213.689046 
L 535.465151 213.763034 
L 538.882009 213.050248 
L 541.502762 211.823657 
L 548.159192 205.886065 
L 549.942945 203.622371 
L 549.942945 203.622371 
" style="fill:none;stroke:#000000;stroke-linecap:square;stroke-opacity:0.7;stroke-width:1.2;"/>
   </g>
   <g id="line2d_18">
    <path clip-path="url(#pdc15dbceb8)" d="M 481.836882 186.55256 
L 488.481962 180.463258 
L 491.901665 174.233811 
L 492.381769 172.74187 
L 492.942568 170.278598 
L 493.215699 168.216387 
L 493.361715 164.866325 
L 493.355403 163.014611 
L 493.584459 159.376805 
L 493.799448 158.52735 
L 494.15852 157.615932 
L 494.90713 156.391852 
L 495.804244 155.367703 
L 496.645137 154.597816 
L 498.497362 153.201695 
L 501.533514 151.290792 
L 516.137134 142.811961 
L 518.932676 140.942495 
L 521.901441 138.69707 
L 523.913501 136.87478 
L 525.355133 135.183247 
L 526.131639 133.730538 
L 526.298364 132.830298 
L 526.058494 131.871729 
L 525.357923 131.125562 
L 524.208633 130.565828 
L 523.145829 130.287073 
L 521.23248 130.049327 
L 518.835082 130.014068 
L 516.552795 130.145408 
L 512.464081 130.649752 
L 508.853989 131.321709 
L 505.385211 132.163051 
L 501.412456 133.424749 
L 498.330183 134.740031 
L 496.081062 136.013901 
L 494.246473 137.3917 
L 492.844596 138.809923 
L 491.99923 139.949673 
L 491.246523 141.350131 
L 490.788132 142.71511 
L 490.61615 143.927756 
L 490.664135 144.811579 
L 490.985447 145.743487 
L 491.439576 146.209062 
L 491.946148 146.3591 
L 492.343037 146.315477 
L 492.739368 146.164484 
L 493.742094 145.389438 
L 494.193725 144.874927 
L 495.443354 142.932808 
L 496.304789 141.122394 
L 497.169927 138.850133 
L 498.056562 135.848104 
L 498.119258 135.493504 
L 497.89643 136.138189 
L 493.897695 149.737232 
L 493.706198 150.952025 
L 493.743972 151.016233 
L 493.884115 151.015344 
L 494.443445 150.5635 
L 496.793109 148.346153 
L 498.403387 147.148659 
L 500.599535 146.040989 
L 502.039316 145.658015 
L 503.659282 145.565191 
L 504.416025 145.648517 
L 506.356466 146.246918 
L 507.95699 147.178348 
L 509.020025 148.02893 
L 509.892737 148.872643 
L 511.74348 151.122105 
L 513.404293 153.712543 
L 515.553919 157.947087 
L 517.191257 161.888943 
L 519.241708 167.624787 
L 519.973046 169.729129 
L 521.022976 171.825211 
L 521.229972 171.477734 
L 521.343798 170.188753 
L 521.338879 168.439944 
L 521.022571 162.455311 
L 519.90472 150.567131 
L 519.90472 150.567131 
" style="fill:none;stroke:#000000;stroke-linecap:square;stroke-opacity:0.7;stroke-width:1.2;"/>
   </g>
   <g id="line2d_19">
    <path clip-path="url(#pdc15dbceb8)" d="M 501.095849 136.737917 
L 506.541484 130.0442 
L 509.928913 126.229789 
L 513.560872 122.28046 
L 513.74062 121.785038 
L 513.596788 121.671449 
L 513.048946 121.639925 
L 511.296187 121.882459 
L 499.48113 123.967126 
L 497.800139 124.453494 
L 496.739687 124.859972 
L 495.226809 125.689165 
L 494.010144 126.815406 
L 493.371876 127.854818 
L 493.051692 128.749484 
L 492.812947 130.503501 
L 492.880247 132.060695 
L 493.118966 133.518098 
L 493.125474 133.20189 
L 493.160475 132.122683 
L 493.455904 130.54957 
L 493.885535 129.458385 
L 494.536862 128.41304 
L 495.448333 127.445365 
L 496.686632 126.58792 
L 498.085145 126.000136 
L 499.32727 125.744845 
L 499.790736 125.724707 
L 499.512375 125.65419 
L 498.503619 125.221075 
L 497.44013 124.471861 
L 496.550628 123.544943 
L 496.010296 122.775145 
L 495.391207 121.5342 
L 494.953597 120.036546 
L 494.801394 118.578612 
L 494.877826 117.445859 
L 495.153396 116.417679 
L 495.53784 115.755486 
L 496.000422 115.371581 
L 496.482035 115.227854 
L 496.981129 115.250245 
L 497.952786 115.590857 
L 499.158956 116.317895 
L 500.23684 117.22542 
L 500.852157 118.05257 
L 501.044438 118.507215 
L 501.175345 119.574814 
L 500.986136 120.725353 
L 500.40762 122.418659 
L 497.871487 128.737994 
L 497.251385 130.987871 
L 496.950886 132.912814 
L 496.906738 134.02253 
L 497.126651 135.858773 
L 497.500004 136.920417 
L 499.020301 138.714524 
L 500.659453 139.391953 
L 502.019933 139.523375 
L 503.739852 139.320991 
L 505.52271 138.763161 
L 507.184938 137.949711 
L 508.757556 136.90478 
L 511.112385 134.691986 
L 512.513643 132.75572 
L 513.587694 130.473098 
L 514.162638 127.73355 
L 514.162638 127.73355 
" style="fill:none;stroke:#000000;stroke-linecap:square;stroke-opacity:0.7;stroke-width:1.2;"/>
   </g>
   <g id="line2d_20">
    <path clip-path="url(#pdc15dbceb8)" d="M 497.100087 110.327285 
L 494.753134 107.772186 
L 489.519256 101.032862 
L 486.146022 95.59068 
L 483.282485 89.900409 
L 481.902686 86.642472 
L 478.495892 76.134521 
L 477.80596 73.3125 
L 476.576989 67.342537 
L 475.954044 64.038598 
L 475.442133 62.031085 
L 474.879667 61.327025 
L 474.593412 61.362196 
L 472.000789 63.021457 
L 470.853249 63.254799 
L 470.135457 63.168462 
L 469.394764 62.862444 
L 468.563292 62.187132 
L 467.713234 60.928497 
L 467.188152 59.546164 
L 466.870744 57.981428 
L 466.758272 55.356226 
L 467.03004 52.651609 
L 467.798908 49.214051 
L 468.408141 47.266159 
L 469.932849 43.399949 
L 471.568579 40.025309 
L 473.816757 36.104139 
L 475.05855 34.370807 
L 475.226086 34.306559 
L 475.245069 34.353568 
L 475.157016 34.954088 
L 474.491033 38.072117 
L 474.451149 39.584491 
L 474.59983 40.298743 
L 474.918491 40.868206 
L 475.432944 41.197332 
L 476.074897 41.214257 
L 476.73242 40.973349 
L 477.529575 40.413673 
L 478.397804 39.4686 
L 479.106425 38.340707 
L 479.68011 36.943477 
L 480.031335 35.032844 
L 479.922871 33.370087 
L 479.629078 32.417734 
L 479.192258 31.674299 
L 478.532747 31.103785 
L 478.425253 31.049693 
L 477.635045 30.885096 
L 476.756775 31.063816 
L 475.933127 31.470673 
L 474.887412 32.20878 
L 473.45555 33.451419 
L 466.933322 39.481896 
L 464.579578 41.298512 
L 462.525169 42.642308 
L 460.199396 43.855538 
L 458.306321 44.570979 
L 457.352126 44.828468 
L 456.014802 45.060253 
L 454.102089 45.093352 
L 453.275658 44.980394 
L 451.645476 44.468603 
L 450.913978 44.068232 
L 450.041045 43.312087 
L 449.755839 42.637451 
L 449.884533 42.418163 
L 450.346722 42.299375 
L 451.076038 42.383143 
L 453.113968 43.006041 
L 464.783735 47.319478 
L 469.807979 48.734351 
L 474.351776 49.730059 
L 482.896703 50.920549 
L 489.756251 51.303251 
L 498.174332 51.183652 
L 510.531648 50.059874 
L 519.24442 48.732745 
L 528.831899 46.855745 
L 532.668388 45.988538 
L 543.317562 43.162467 
L 548.681333 41.367222 
L 552.23886 39.870794 
L 553.958068 38.959733 
L 553.958068 38.959733 
" style="fill:none;stroke:#000000;stroke-linecap:square;stroke-opacity:0.7;stroke-width:1.2;"/>
   </g>
   <g id="line2d_21">
    <path clip-path="url(#pdc15dbceb8)" d="M 607.233191 263.127273 
L 606.64225 252.891375 
L 605.917232 248.62531 
L 603.980714 240.64861 
L 601.798775 232.691459 
L 601.036688 229.450686 
L 600.497544 225.645029 
L 600.506688 224.365462 
L 601.017397 222.3957 
L 601.580051 221.68834 
L 602.214147 221.279674 
L 602.770932 221.085389 
L 604.167666 220.950764 
L 606.352429 221.245165 
L 607.584486 221.5537 
L 611.835132 223.002983 
L 617.724957 225.446149 
L 633.351772 232.157572 
L 634.319506 232.369281 
L 634.363262 232.273389 
L 633.982151 231.776275 
L 630.001994 227.905183 
L 628.335895 226.416427 
L 627.479983 225.912746 
L 626.942335 225.842279 
L 626.643479 225.975295 
L 626.373552 226.352489 
L 626.306201 226.842109 
L 626.401805 226.871523 
L 626.421944 226.850643 
L 626.605436 226.449915 
L 626.826921 225.470878 
L 626.993418 223.968936 
L 627.025723 221.2741 
L 626.710652 217.542557 
L 626.116531 211.911193 
L 626.18765 209.252637 
L 626.164077 208.411215 
L 626.044188 207.896286 
L 625.885727 207.604826 
L 625.535162 207.300259 
L 624.764506 207.105184 
L 623.683444 207.198882 
L 622.534908 207.512161 
L 620.192486 208.565272 
L 618.780713 209.432817 
L 616.644592 211.14089 
L 615.31932 212.551921 
L 614.446399 213.733308 
L 613.396762 215.690266 
L 613.051409 216.614202 
L 612.639109 218.298617 
L 612.502661 219.446566 
L 612.482622 221.006692 
L 612.796159 223.550374 
L 613.672633 226.815289 
L 616.162947 233.348226 
L 617.489127 237.046154 
L 618.010749 238.826431 
L 618.56418 241.249514 
L 619.600747 247.625668 
L 620.057177 248.401834 
L 620.597964 248.743154 
L 621.51657 248.801492 
L 626.836646 246.104143 
L 631.863982 242.284962 
L 631.863982 242.284962 
" style="fill:none;stroke:#000000;stroke-linecap:square;stroke-opacity:0.7;stroke-width:1.2;"/>
   </g>
   <g id="line2d_22">
    <path clip-path="url(#pdc15dbceb8)" d="M 636.02182 222.055547 
L 639.357912 216.41462 
L 641.439832 213.982966 
L 643.191485 212.291785 
L 648.605552 208.368199 
L 651.092321 207.025248 
L 655.155682 205.25987 
L 662.052581 202.810275 
L 662.974126 202.111822 
L 663.105337 201.754644 
L 663.072862 201.397233 
L 662.911822 201.019347 
L 662.398422 200.324777 
L 660.326518 198.419155 
L 656.744864 195.670399 
L 652.960106 193.04566 
L 649.301381 190.833978 
L 646.852755 189.608289 
L 644.611747 188.716931 
L 641.295081 187.880247 
L 639.100505 187.680949 
L 637.386424 187.733107 
L 634.783055 188.166264 
L 632.664078 188.83331 
L 630.831373 189.639658 
L 628.651195 190.901931 
L 627.33878 191.875167 
L 626.311375 192.88933 
L 625.959979 193.510843 
L 625.980288 193.847036 
L 626.321434 194.086616 
L 626.766285 194.15015 
L 627.953297 194.046378 
L 630.238165 193.484245 
L 632.863773 192.55318 
L 635.510049 191.334789 
L 637.435699 190.194216 
L 638.899039 189.069399 
L 640.075301 187.817456 
L 640.577173 187.053111 
L 640.936914 186.250728 
L 641.15569 185.209169 
L 641.047406 183.960499 
L 640.588263 182.852252 
L 640.122267 182.187563 
L 639.735462 181.765074 
L 638.355433 180.728688 
L 637.523472 180.325384 
L 636.109301 179.922756 
L 635.047329 179.865769 
L 634.248889 180.037355 
L 633.828725 180.296711 
L 633.550675 180.741634 
L 633.507645 181.216971 
L 633.663163 181.959736 
L 634.218098 184.121258 
L 634.235113 185.104437 
L 634.08074 186.054662 
L 633.605569 187.36795 
L 632.845398 188.674839 
L 631.721596 190.069683 
L 628.805231 193.231557 
L 628.129495 194.610219 
L 627.646249 196.33528 
L 627.374566 197.927251 
L 627.10222 200.967195 
L 627.051683 203.459616 
L 627.226243 206.930489 
L 627.470659 208.91409 
L 628.11248 212.0016 
L 628.475854 213.228799 
L 629.316919 215.410597 
L 630.570897 217.72917 
L 632.071157 219.703737 
L 634.709198 221.98842 
L 637.35476 223.318697 
L 638.78006 223.734476 
L 641.16842 224.010357 
L 643.456531 223.768706 
L 645.756187 222.915307 
L 647.189053 221.930022 
L 649.6205 218.191576 
L 650.019499 216.366499 
L 650.027935 213.152888 
L 649.090898 208.881111 
L 649.090898 208.881111 
" style="fill:none;stroke:#000000;stroke-linecap:square;stroke-opacity:0.7;stroke-width:1.2;"/>
   </g>
   <g id="line2d_23">
    <path clip-path="url(#pdc15dbceb8)" d="M 618.133137 158.382267 
L 610.564823 166.361507 
L 609.427757 167.082876 
L 607.394321 167.717509 
L 605.528467 167.139195 
L 603.551016 164.305315 
L 602.428196 160.745939 
L 601.555527 155.75158 
L 601.078006 150.16176 
L 601.072949 142.663199 
L 601.305399 139.534403 
L 601.911562 135.274662 
L 602.842722 131.452311 
L 603.698702 129.045337 
L 604.988737 126.409498 
L 607.506383 123.068317 
L 608.219155 122.389317 
L 609.435836 121.41773 
L 610.514405 120.71949 
L 612.350268 119.809682 
L 614.520699 119.091445 
L 616.219531 118.744526 
L 617.895851 118.556871 
L 620.006095 118.509914 
L 623.37479 118.817324 
L 626.418921 119.462223 
L 631.12558 121.147531 
L 633.361464 122.289397 
L 636.029278 124.063365 
L 637.431825 125.281048 
L 638.612726 126.605868 
L 639.448218 127.957362 
L 639.672897 128.50708 
L 639.883759 129.84052 
L 639.6106 130.852277 
L 639.316366 131.27902 
L 638.603277 131.859375 
L 637.953414 132.158474 
L 636.178937 132.491999 
L 634.688751 132.470586 
L 632.903631 132.221965 
L 630.277707 131.542012 
L 628.016508 130.723991 
L 625.326043 129.514038 
L 622.619348 128.044801 
L 620.250452 126.483362 
L 619.155723 125.48997 
L 619.117552 125.151318 
L 619.486291 125.12098 
L 620.705097 125.42965 
L 623.206689 126.37333 
L 627.927347 128.456716 
L 632.086776 130.492562 
L 636.120615 132.721923 
L 638.724005 134.43596 
L 640.132063 135.574582 
L 640.550346 135.972501 
L 641.744465 137.551982 
L 642.00138 138.883626 
L 641.67972 139.703035 
L 641.470231 139.970523 
L 640.741722 140.581675 
L 640.014335 140.985796 
L 638.653802 141.505119 
L 635.986445 142.099072 
L 633.377916 142.392484 
L 629.529141 142.510871 
L 625.378129 142.329797 
L 621.269869 141.879346 
L 617.608426 141.246017 
L 615.022167 140.645424 
L 612.274865 139.824394 
L 610.838543 139.290178 
L 608.199091 137.972179 
L 607.19735 137.232472 
L 606.359771 136.287198 
L 606.16939 135.941571 
L 605.979479 135.358277 
L 605.951145 134.682208 
L 606.053104 134.168204 
L 606.328777 133.485371 
L 607.57836 131.660186 
L 609.202461 129.583954 
L 610.357533 127.675732 
L 610.899102 126.288454 
L 611.254577 124.114833 
L 611.138867 122.269377 
L 610.578412 120.081755 
L 609.782023 118.222898 
L 609.412066 117.527626 
L 607.53409 114.780953 
L 606.555165 113.705231 
L 604.677268 112.340476 
L 603.986124 112.247554 
L 603.710827 112.362414 
L 603.408623 112.741846 
L 603.239044 113.374404 
L 603.210888 114.38861 
L 603.767995 117.790026 
L 604.704813 121.234028 
L 605.562555 123.924544 
L 607.781181 130.022431 
L 610.311374 136.017715 
L 611.531004 138.596736 
L 615.084129 144.983219 
L 616.952441 147.680881 
L 618.708744 149.825514 
L 620.691396 151.827861 
L 626.14772 155.452542 
L 631.958163 157.156315 
L 631.958163 157.156315 
" style="fill:none;stroke:#000000;stroke-linecap:square;stroke-opacity:0.7;stroke-width:1.2;"/>
   </g>
   <g id="line2d_24">
    <path clip-path="url(#pdc15dbceb8)" d="M 633.166161 132.109196 
L 633.945182 131.596087 
L 634.502701 130.874646 
L 635.076402 129.036416 
L 635.194232 127.410688 
L 635.03181 124.537913 
L 634.171483 119.384155 
L 633.619842 116.999942 
L 632.726368 113.702409 
L 631.522553 109.934765 
L 629.208462 104.055437 
L 627.929411 101.351548 
L 626.897951 99.392116 
L 624.675709 95.737075 
L 622.448928 92.752676 
L 620.380357 90.565139 
L 619.161065 89.576042 
L 618.418847 89.114396 
L 617.363416 88.726067 
L 616.625821 88.791435 
L 616.07593 89.383304 
L 615.906634 90.260238 
L 615.939159 91.052339 
L 616.461223 93.383484 
L 617.276134 95.627164 
L 618.476364 98.301618 
L 620.635174 102.415367 
L 623.805086 107.801059 
L 627.677214 114.302859 
L 628.719833 116.404284 
L 629.29534 118.09912 
L 629.383897 118.9955 
L 629.236531 119.588132 
L 629.021006 119.733441 
L 629.078233 119.553039 
L 629.445335 119.103499 
L 633.288953 115.223891 
L 633.946575 114.112426 
L 634.458716 112.809846 
L 634.776333 111.41924 
L 635.032532 108.965997 
L 635.280867 106.475353 
L 635.654818 104.8554 
L 636.051218 103.932985 
L 636.621431 103.18922 
L 636.960237 102.950334 
L 637.581167 102.812503 
L 638.077886 102.962508 
L 638.481266 103.268855 
L 638.928816 103.856612 
L 639.287796 104.631235 
L 639.579249 105.829077 
L 639.629494 106.940152 
L 639.416503 108.112514 
L 638.952778 108.987606 
L 638.63503 109.318113 
L 637.868939 109.75416 
L 636.992707 109.925286 
L 635.866491 109.875924 
L 635.451467 109.809594 
L 632.376224 108.958195 
L 630.512098 108.458035 
L 629.092368 108.359304 
L 628.414822 108.535421 
L 627.696636 109.123715 
L 627.361128 109.775388 
L 627.120432 110.917993 
L 627.078449 111.742076 
L 627.242656 113.993984 
L 627.634493 116.211439 
L 628.453004 119.418674 
L 629.552683 122.704987 
L 630.355373 124.66359 
L 631.130627 126.260496 
L 632.1373 127.916459 
L 632.836828 128.783997 
L 633.609191 129.461157 
L 635.158027 129.886343 
L 636.687746 129.040613 
L 638.184859 127.017091 
L 638.184859 127.017091 
" style="fill:none;stroke:#000000;stroke-linecap:square;stroke-opacity:0.7;stroke-width:1.2;"/>
   </g>
   <g id="line2d_25">
    <path clip-path="url(#pdc15dbceb8)" d="M 662.04868 54.364084 
L 648.453996 67.6164 
L 638.172384 76.997947 
L 636.257114 78.381681 
L 634.147411 79.43805 
L 630.932624 78.882893 
L 629.913373 77.97454 
L 623.70727 71.353639 
L 621.257085 69.26788 
L 617.96007 66.879079 
L 614.504477 64.754419 
L 609.339497 62.090899 
L 606.793174 60.948163 
L 599.44242 58.115577 
L 592.313895 55.866928 
L 587.236565 54.313081 
L 587.19274 54.174699 
L 587.835107 54.035607 
L 591.794952 53.84647 
L 602.236979 53.56942 
L 608.538793 53.687744 
L 610.857644 53.84522 
L 615.235704 54.366314 
L 618.950233 55.053577 
L 629.123164 57.25398 
L 629.876675 57.329182 
L 632.904349 57.266719 
L 634.208924 56.997595 
L 635.114898 56.696915 
L 636.740128 55.861813 
L 638.19681 54.660928 
L 639.131185 53.489261 
L 639.825644 51.911724 
L 639.860743 51.150327 
L 639.80118 50.933488 
L 639.413335 50.509086 
L 638.948213 50.42514 
L 638.294124 50.562711 
L 637.309846 51.068143 
L 636.224131 51.906953 
L 635.796278 52.307216 
L 634.741617 53.463707 
L 633.303339 55.526412 
L 632.512733 57.074213 
L 631.887185 58.923985 
L 631.691196 60.407675 
L 631.859203 61.674976 
L 632.198909 62.341048 
L 632.690833 62.746504 
L 633.025981 62.837167 
L 633.644248 62.677329 
L 633.82191 62.531019 
L 634.168321 61.925026 
L 634.25476 61.283905 
L 634.180299 60.650732 
L 633.860714 59.74248 
L 632.671347 58.078855 
L 631.3546 56.985928 
L 629.126646 55.900199 
L 627.22491 55.493164 
L 623.136437 55.966565 
L 621.731551 56.551494 
L 617.74174 59.577804 
L 615.978503 61.731248 
L 614.637681 63.852757 
L 613.118538 67.024563 
L 612.178288 69.690779 
L 611.415879 72.704457 
L 610.889547 76.140195 
L 610.71506 78.913419 
L 610.743235 81.314143 
L 611.061139 84.604262 
L 611.503035 86.965736 
L 612.313409 89.847658 
L 613.659334 93.118297 
L 616.022053 96.986699 
L 619.91555 101.020769 
L 623.723439 103.462539 
L 627.138554 104.830682 
L 629.304309 105.379969 
L 633.152762 105.826988 
L 638.298979 105.41959 
L 639.896764 105.041551 
L 642.904205 103.917363 
L 648.201044 96.592256 
L 647.569653 94.49021 
L 643.181859 89.574792 
L 637.643163 86.116688 
L 637.643163 86.116688 
" style="fill:none;stroke:#000000;stroke-linecap:square;stroke-opacity:0.7;stroke-width:1.2;"/>
   </g>
  </g>
 </g>
 <defs>
  <clipPath id="pdc15dbceb8">
   <rect height="262.08" width="694.08" x="12.96" y="12.96"/>
  </clipPath>
 </defs>
</svg>
