<svg viewBox="0 0 1108 400" xmlns="http://www.w3.org/2000/svg"><g><g><g><g><g><line x1="50" y1="378" x2="45" y2="378" style="visibility: inherit;" fill="rgb(0, 0, 0)" stroke="rgb(204, 204, 204)" stroke-width="1px"></line><line x1="50" y1="335.99999999999994" x2="45" y2="335.99999999999994" style="visibility: inherit;" fill="rgb(0, 0, 0)" stroke="rgb(204, 204, 204)" stroke-width="1px"></line><line x1="50" y1="294" x2="45" y2="294" style="visibility: inherit;" fill="rgb(0, 0, 0)" stroke="rgb(204, 204, 204)" stroke-width="1px"></line><line x1="50" y1="252" x2="45" y2="252" style="visibility: inherit;" fill="rgb(0, 0, 0)" stroke="rgb(204, 204, 204)" stroke-width="1px"></line><line x1="50" y1="210" x2="45" y2="210" style="visibility: inherit;" fill="rgb(0, 0, 0)" stroke="rgb(204, 204, 204)" stroke-width="1px"></line><line x1="50" y1="168" x2="45" y2="168" style="visibility: inherit;" fill="rgb(0, 0, 0)" stroke="rgb(204, 204, 204)" stroke-width="1px"></line><line x1="50" y1="125.99999999999997" x2="45" y2="125.99999999999997" style="visibility: inherit;" fill="rgb(0, 0, 0)" stroke="rgb(204, 204, 204)" stroke-width="1px"></line><line x1="50" y1="84" x2="45" y2="84" style="visibility: inherit;" fill="rgb(0, 0, 0)" stroke="rgb(204, 204, 204)" stroke-width="1px"></line><line x1="50" y1="42" x2="45" y2="42" style="visibility: inherit;" fill="rgb(0, 0, 0)" stroke="rgb(204, 204, 204)" stroke-width="1px"></line><line x1="50" y1="0" x2="45" y2="0" style="visibility: inherit;" fill="rgb(0, 0, 0)" stroke="rgb(204, 204, 204)" stroke-width="1px"></line></g><g transform="translate(40, 0)"><text x="0" y="378" dx="0em" dy="0.3em" style="text-anchor: end; visibility: hidden; font-family: &quot;Helvetica Neue&quot;, sans-serif; font-size: 12px; font-weight: 200;" fill="rgb(50, 49, 63)" stroke="none" stroke-width="1px">-1.6</text><text x="0" y="335.99999999999994" dx="0em" dy="0.3em" style="text-anchor: end; visibility: inherit; font-family: &quot;Helvetica Neue&quot;, sans-serif; font-size: 12px; font-weight: 200;" fill="rgb(50, 49, 63)" stroke="none" stroke-width="1px">-1.4</text><text x="0" y="294" dx="0em" dy="0.3em" style="text-anchor: end; visibility: inherit; font-family: &quot;Helvetica Neue&quot;, sans-serif; font-size: 12px; font-weight: 200;" fill="rgb(50, 49, 63)" stroke="none" stroke-width="1px">-1.2</text><text x="0" y="252" dx="0em" dy="0.3em" style="text-anchor: end; visibility: inherit; font-family: &quot;Helvetica Neue&quot;, sans-serif; font-size: 12px; font-weight: 200;" fill="rgb(50, 49, 63)" stroke="none" stroke-width="1px">-1</text><text x="0" y="210" dx="0em" dy="0.3em" style="text-anchor: end; visibility: inherit; font-family: &quot;Helvetica Neue&quot;, sans-serif; font-size: 12px; font-weight: 200;" fill="rgb(50, 49, 63)" stroke="none" stroke-width="1px">-0.8</text><text x="0" y="168" dx="0em" dy="0.3em" style="text-anchor: end; visibility: inherit; font-family: &quot;Helvetica Neue&quot;, sans-serif; font-size: 12px; font-weight: 200;" fill="rgb(50, 49, 63)" stroke="none" stroke-width="1px">-0.6</text><text x="0" y="125.99999999999997" dx="0em" dy="0.3em" style="text-anchor: end; visibility: inherit; font-family: &quot;Helvetica Neue&quot;, sans-serif; font-size: 12px; font-weight: 200;" fill="rgb(50, 49, 63)" stroke="none" stroke-width="1px">-0.4</text><text x="0" y="84" dx="0em" dy="0.3em" style="text-anchor: end; visibility: inherit; font-family: &quot;Helvetica Neue&quot;, sans-serif; font-size: 12px; font-weight: 200;" fill="rgb(50, 49, 63)" stroke="none" stroke-width="1px">-0.2</text><text x="0" y="42" dx="0em" dy="0.3em" style="text-anchor: end; visibility: inherit; font-family: &quot;Helvetica Neue&quot;, sans-serif; font-size: 12px; font-weight: 200;" fill="rgb(50, 49, 63)" stroke="none" stroke-width="1px">0</text><text x="0" y="0" dx="0em" dy="0.3em" style="text-anchor: end; visibility: hidden; font-family: &quot;Helvetica Neue&quot;, sans-serif; font-size: 12px; font-weight: 200;" fill="rgb(50, 49, 63)" stroke="none" stroke-width="1px">0.2</text></g><line x1="50" y1="0" x2="50" y2="378" fill="rgb(0, 0, 0)" stroke="rgb(204, 204, 204)" stroke-width="1px"></line></g></g><g transform="translate(50, 0)" clip-path="url(#clip_0)"><clipPath id="clip_0"><rect width="1058" height="378"></rect></clipPath><g><g><g><line x1="0" y1="0" x2="0" y2="378" fill="rgb(0, 0, 0)" stroke="rgb(60, 60, 60)" stroke-width="1px" opacity="0.25"></line><line x1="88.16666666666666" y1="0" x2="88.16666666666666" y2="378" fill="rgb(0, 0, 0)" stroke="rgb(60, 60, 60)" stroke-width="1px" opacity="0.25"></line><line x1="176.33333333333331" y1="0" x2="176.33333333333331" y2="378" fill="rgb(0, 0, 0)" stroke="rgb(60, 60, 60)" stroke-width="1px" opacity="0.25"></line><line x1="264.5" y1="0" x2="264.5" y2="378" fill="rgb(0, 0, 0)" stroke="rgb(60, 60, 60)" stroke-width="1px" opacity="0.25"></line><line x1="352.66666666666663" y1="0" x2="352.66666666666663" y2="378" fill="rgb(0, 0, 0)" stroke="rgb(60, 60, 60)" stroke-width="1px" opacity="0.25"></line><line x1="440.83333333333337" y1="0" x2="440.83333333333337" y2="378" fill="rgb(0, 0, 0)" stroke="rgb(60, 60, 60)" stroke-width="1px" opacity="0.25"></line><line x1="529" y1="0" x2="529" y2="378" fill="rgb(0, 0, 0)" stroke="rgb(60, 60, 60)" stroke-width="1px" opacity="0.25"></line><line x1="617.1666666666667" y1="0" x2="617.1666666666667" y2="378" fill="rgb(0, 0, 0)" stroke="rgb(60, 60, 60)" stroke-width="1px" opacity="0.25"></line><line x1="705.3333333333333" y1="0" x2="705.3333333333333" y2="378" fill="rgb(0, 0, 0)" stroke="rgb(60, 60, 60)" stroke-width="1px" opacity="0.25"></line><line x1="793.5" y1="0" x2="793.5" y2="378" fill="rgb(0, 0, 0)" stroke="rgb(60, 60, 60)" stroke-width="1px" opacity="0.25"></line><line x1="881.6666666666667" y1="0" x2="881.6666666666667" y2="378" fill="rgb(0, 0, 0)" stroke="rgb(60, 60, 60)" stroke-width="1px" opacity="0.25"></line><line x1="969.8333333333333" y1="0" x2="969.8333333333333" y2="378" fill="rgb(0, 0, 0)" stroke="rgb(60, 60, 60)" stroke-width="1px" opacity="0.25"></line><line x1="1058" y1="0" x2="1058" y2="378" fill="rgb(0, 0, 0)" stroke="rgb(60, 60, 60)" stroke-width="1px" opacity="0.25"></line></g><g><line x1="0" y1="378" x2="1058" y2="378" fill="rgb(0, 0, 0)" stroke="rgb(60, 60, 60)" stroke-width="1px" opacity="0.25"></line><line x1="0" y1="335.99999999999994" x2="1058" y2="335.99999999999994" fill="rgb(0, 0, 0)" stroke="rgb(60, 60, 60)" stroke-width="1px" opacity="0.25"></line><line x1="0" y1="294" x2="1058" y2="294" fill="rgb(0, 0, 0)" stroke="rgb(60, 60, 60)" stroke-width="1px" opacity="0.25"></line><line x1="0" y1="252" x2="1058" y2="252" fill="rgb(0, 0, 0)" stroke="rgb(60, 60, 60)" stroke-width="1px" opacity="0.25"></line><line x1="0" y1="210" x2="1058" y2="210" fill="rgb(0, 0, 0)" stroke="rgb(60, 60, 60)" stroke-width="1px" opacity="0.25"></line><line x1="0" y1="168" x2="1058" y2="168" fill="rgb(0, 0, 0)" stroke="rgb(60, 60, 60)" stroke-width="1px" opacity="0.25"></line><line x1="0" y1="125.99999999999997" x2="1058" y2="125.99999999999997" fill="rgb(0, 0, 0)" stroke="rgb(60, 60, 60)" stroke-width="1px" opacity="0.25"></line><line x1="0" y1="84" x2="1058" y2="84" fill="rgb(0, 0, 0)" stroke="rgb(60, 60, 60)" stroke-width="1px" opacity="0.25"></line><line x1="0" y1="42" x2="1058" y2="42" fill="rgb(0, 0, 0)" stroke="rgb(60, 60, 60)" stroke-width="1px" opacity="0.25"></line><line x1="0" y1="0" x2="1058" y2="0" fill="rgb(0, 0, 0)" stroke="rgb(60, 60, 60)" stroke-width="1px" opacity="0.25"></line></g></g></g><g><g><line x1="0" y1="42" x2="1058" y2="42" fill="rgb(0, 0, 0)" stroke="rgb(153, 153, 153)" stroke-width="1.5px"></line></g></g><g><g><line x1="88.16666666666666" y1="0" x2="88.16666666666666" y2="378" fill="rgb(0, 0, 0)" stroke="rgb(153, 153, 153)" stroke-width="1.5px"></line></g></g><g><g><g><g><g><path stroke="rgb(255, 112, 67)" stroke-width="2px" d="M88.16666666666666,63.602619141340256L89.93,118.70078963041306L91.69333333333334,157.15006542205808L93.45666666666666,196.0653419494629L95.22,199.05196738243103L96.98333333333332,173.5648770332336L98.74666666666667,198.1648142337799L100.51,178.1148977279663L102.27333333333333,198.59659981727597L104.03666666666666,182.5622291564941L105.80000000000001,208.0912263393402L107.56333333333333,195.75582218170166L109.32666666666667,216.49084281921387L111.08999999999999,186.1447627544403L112.85333333333334,203.3018935918808L114.61666666666667,205.7813937664032L116.38,201.4857931137085L118.14333333333333,188.4798045158386L119.90666666666667,184.33513355255127L121.67,198.48816525936127L123.43333333333334,197.95430374145508L125.19666666666666,197.42113065719602L126.96,206.9779164791107L128.72333333333333,187.65471053123474L130.48666666666668,206.20422971248627L132.25,195.72401654720304L134.01333333333335,215.01859617233274L135.77666666666667,221.4646382331848L137.54,213.36633038520813L139.3033333333333,217.88500857353208L141.06666666666666,175.24705839157102L142.83,187.73584556579587L144.59333333333333,214.849942445755L146.35666666666668,206.33625876903534L148.12,193.58781945705414L149.88333333333333,217.6838858127594L151.64666666666668,193.23704373836517L153.41,203.94785714149475L155.17333333333335,205.6294877529144L156.93666666666667,195.85458111762998L158.7,225.0151408910751L160.46333333333334,218.16446256637573L162.22666666666666,195.91462504863736L163.99,208.05079650878903L165.75333333333333,214.03210830688477L167.51666666666665,203.67125701904297L169.28,212.3518044948578L171.04333333333332,237.78532218933103L172.80666666666667,223.6842985153198L174.57000000000002,216.29345011711118L176.33333333333331,220.53710532188416L178.09666666666666,229.54654884338376L179.86,211.9558299779892L181.62333333333333,216.54251289367676L183.38666666666668,230.88289868831635L185.14999999999998,225.9479559659958L186.91333333333333,213.01465344429016L188.67666666666668,203.07544898986814L190.44,207.88895201683044L192.20333333333335,217.85738360881803L193.96666666666664,216.07802045345306L195.73,206.08631980419156L197.49333333333334,232.02280712127686L199.25666666666666,200.12612414360044L201.02,227.68551242351532L202.78333333333336,219.27281570434567L204.54666666666665,219.98255324363706L206.31,212.26005506515503L208.07333333333332,218.31261348724362L209.83666666666667,223.09058082103726L211.60000000000002,202.2278745174408L213.36333333333332,217.7224881649017L215.12666666666667,213.32897973060608L216.89,216.77756917476654L218.65333333333334,224.41148471832275L220.41666666666669,221.98449325561523L222.17999999999998,244.41979479789734L223.94333333333333,219.21423625946042L225.70666666666668,230.04757833480835L227.47,225.2144612073898L229.23333333333335,230.0050957202911L230.99666666666667,212.10652184486386L232.76,212.47940254211423L234.52333333333334,205.33421230316162L236.28666666666666,223.6183841228485L238.05,218.48127973079679L239.81333333333333,231.54109132289884L241.57666666666665,200.97955656051636L243.34,237.4029285907745L245.10333333333332,233.0165548324585L246.86666666666667,211.09155786037445L248.63,223.22421205043793L250.39333333333332,244.54506468772888L252.15666666666667,201.52488362789154L253.92,226.84687507152555L255.68333333333334,223.46053254604337L257.44666666666666,241.37207400798795L259.21,222.46895027160645L260.97333333333336,225.06787490844727L262.7366666666667,237.24087131023404L264.5,222.38851618766785L266.2633333333333,229.77479588985443L268.0266666666667,214.99038290977478L269.79,212.89574217796326L271.55333333333334,225.13093543052673L273.3166666666667,219.98461854457855L275.08,214.1803843975067L276.8433333333333,224.71697402000427L278.6066666666666,220.97770285606381L280.37,225.53784978389737L282.1333333333333,219.05555856227872L283.89666666666665,227.43698787689206L285.66,225.51230263710022L287.42333333333335,221.73926067352292L289.18666666666667,217.67188203334808L290.95000000000005,230.14531087875366L292.71333333333337,220.42665553092954L294.47666666666663,236.88490104675293L296.24,196.0275281667709L298.00333333333333,225.74449253082273L299.76666666666665,228.59463286399838L301.53,211.85038697719574L303.29333333333335,186.49199616909024L305.0566666666667,207.66801488399506L306.82,213.39204025268555L308.58333333333337,251.62654352188108L310.3466666666667,225.4248340129852L312.10999999999996,235.26615571975705L313.87333333333333,214.54529178142548L315.63666666666666,244.3737949132919L317.4,244.51004219055173L319.16333333333336,221.42851424217224L320.9266666666667,208.83273196220398L322.69,212.80284118652344L324.4533333333333,229.2514486312866L326.2166666666667,227.90231895446775L327.98,225.86469304561612L329.74333333333334,224.11271703243253L331.50666666666666,209.33831763267517L333.27,223.9282668828964L335.0333333333333,227.0763738155365L336.7966666666667,233.59843146800995L338.56,246.97051656246182L340.3233333333333,240.59510779380795L342.08666666666664,234.3734200000763L343.85,245.93272161483765L345.61333333333334,233.02917194366455L347.37666666666667,244.93619513511658L349.14000000000004,244.35493183135986L350.9033333333333,234.91380286216733L352.66666666666663,202.63297390937805L354.43,226.74812865257263L356.1933333333333,200.60605001449582L357.95666666666665,227.71977138519284L359.72,235.6672872304916L361.48333333333335,237.44145584106442L363.24666666666667,232.50635039806366L365.01,231.04966235160828L366.77333333333337,223.84849619865417L368.53666666666663,244.92243897914884L370.29999999999995,218.95178031921384L372.06333333333333,230.62310886383054L373.82666666666665,224.67489194869995L375.59,220.76030802726743L377.35333333333335,229.906311750412L379.1166666666667,232.4225242137909L380.88,242.02034068107602L382.6433333333334,212.8663773536682L384.4066666666667,225.95511567592618L386.17,249.55732476711273L387.9333333333333,207.0880283117294L389.69666666666666,222.06894528865814L391.46,240.08017194271085L393.2233333333333,243.70849263668057L394.9866666666667,244.94630885124207L396.75,229.68652617931366L398.5133333333333,224.52501368522644L400.2766666666667,222.30089735984802L402.04,227.1983642578125L403.80333333333334,222.23617208003995L405.5666666666667,221.8322743177414L407.33,230.8897705078125L409.0933333333333,247.95952033996582L410.8566666666666,226.60836410522458L412.62,234.34719693660736L414.3833333333333,218.7986100912094L416.14666666666665,216.75098311901093L417.91,224.66441524028778L419.67333333333335,225.2143235206604L421.43666666666667,216.78162467479706L423.20000000000005,199.4320328235626L424.96333333333337,224.71603524684906L426.72666666666663,217.69975733757016L428.49,251.6558332443237L430.25333333333333,211.02230143547058L432.01666666666665,242.89224815368652L433.78,213.63286685943604L435.54333333333335,213.31317079067227L437.3066666666667,234.2896564006805L439.07,210.05655419826508L440.83333333333337,249.5240671634674L442.5966666666667,232.53944528102872L444.35999999999996,229.65953958034513L446.12333333333333,223.79770231246945L447.88666666666666,241.08788859844208L449.65,220.9043283462524L451.41333333333336,223.0208362340927L453.1766666666667,228.20820879936215L454.94,238.94837450981137L456.7033333333333,232.84174275398254L458.4666666666667,232.8558619022369L460.23,236.7790950536728L461.99333333333334,237.71632862091062L463.75666666666666,251.20326948165894L465.52,207.98159015178678L467.2833333333333,233.07613563537598L469.0466666666667,234.40918099880216L470.81,233.8448281288147L472.5733333333333,245.4844136238098L474.33666666666664,250.0376386642456L476.1,226.16483759880066L477.86333333333334,243.0019344091415L479.62666666666667,252.13503313064575L481.39000000000004,246.1858398914337L483.1533333333333,219.28042602539062L484.91666666666663,259.8244614601135L486.68,201.87897634506226L488.4433333333333,238.3840717077255L490.20666666666665,231.93726611137387L491.97,237.23507595062253L493.73333333333335,247.85780739784238L495.49666666666667,250.72324347496033L497.26,239.7029603719711L499.02333333333337,229.14599311351776L500.78666666666663,215.1995290517807L502.54999999999995,250.3754467964172L504.31333333333333,221.71857011318207L506.07666666666665,218.02579951286313L507.84,225.11614036560056L509.60333333333335,201.1911685466766L511.3666666666667,236.6056222915649L513.13,243.41693472862244L514.8933333333333,243.30794942378995L516.6566666666666,228.36982798576352L518.42,248.10410392284393L520.1833333333333,229.1417498588562L521.9466666666667,253.1633276939392L523.71,241.56638753414154L525.4733333333334,248.11953735351562L527.2366666666667,239.9984611272812L529,243.17698431015015L530.7633333333333,229.76910066604614L532.5266666666666,224.30594158172605L534.29,243.11770391464233L536.0533333333334,245.12194705009458L537.8166666666666,225.42628598213196L539.58,238.53478860855103L541.3433333333334,206.4740456342697L543.1066666666667,233.4280128479004L544.87,232.2560484409332L546.6333333333334,240.1695806980133L548.3966666666666,227.08474767208097L550.16,228.1698567867279L551.9233333333333,232.49042880535126L553.6866666666666,245.08462142944336L555.45,249.44516015052793L557.2133333333333,239.24838137626648L558.9766666666667,202.7560908794403L560.74,253.9906497001648L562.5033333333333,234.70174026489255L564.2666666666667,211.83212471008298L566.0300000000001,270.45981001853943L567.7933333333333,240.25379490852353L569.5566666666666,228.32703244686127L571.32,236.20588016510007L573.0833333333333,222.70497035980222L574.8466666666667,237.05518198013306L576.61,252.03920316696167L578.3733333333333,235.68275821208954L580.1366666666667,260.4974241256714L581.9000000000001,249.5422042608261L583.6633333333333,227.12213587760925L585.4266666666667,262.7218909263611L587.19,227.64311742782593L588.9533333333333,258.9616162776947L590.7166666666667,228.16666495800015L592.48,250.02756249904633L594.2433333333333,256.48798656463623L596.0066666666667,253.91101670265198L597.77,241.3747901916504L599.5333333333333,249.31043994426724L601.2966666666667,239.244576215744L603.06,266.9458694458008L604.8233333333333,231.9880349636078L606.5866666666667,248.39889121055603L608.3499999999999,221.29164111614227L610.1133333333333,257.86665630340576L611.8766666666667,218.92788541316986L613.64,234.4083173274994L615.4033333333333,258.2116742134094L617.1666666666667,253.15128636360168L618.93,255.42254161834717L620.6933333333334,231.9094533920288L622.4566666666667,255.1942820549011L624.2199999999999,245.60507726669312L625.9833333333333,228.41905725002286L627.7466666666667,242.41383683681485L629.51,238.5516114234924L631.2733333333333,245.8963723182678L633.0366666666667,252.4623019695282L634.8,246.95691061019897L636.5633333333334,240.9024245738983L638.3266666666667,274.91820645332336L640.09,257.7616138458252L641.8533333333334,248.691312789917L643.6166666666666,220.47562193870544L645.38,263.97601675987244L647.1433333333333,254.79178619384766L648.9066666666666,245.8295316696167L650.67,246.04886662960052L652.4333333333334,268.1472487449646L654.1966666666666,242.02652406692502L655.96,244.64021873474118L657.7233333333334,250.66100907325745L659.4866666666667,225.269185423851L661.25,228.4926570653915L663.0133333333333,246.41399931907654L664.7766666666666,245.14764440059662L666.54,236.80633199214935L668.3033333333334,252.4817533493042L670.0666666666666,226.07818257808685L671.83,272.7350206375122L673.5933333333334,237.11781692504883L675.3566666666667,252.29227137565613L677.12,267.5001711845398L678.8833333333334,239.92820334434506L680.6466666666666,253.93049311637878L682.41,234.0522969961166L684.1733333333333,238.55300080776212L685.9366666666666,257.9743022918701L687.7,263.00149512290955L689.4633333333333,262.01012563705444L691.2266666666667,254.14305639266968L692.99,229.75297880172727L694.7533333333333,256.21837091445923L696.5166666666667,215.48908424377439L698.2800000000001,219.96865940093994L700.0433333333333,262.04509806632996L701.8066666666666,252.51069259643555L703.57,258.78555250167847L705.3333333333333,270.95365476608276L707.0966666666667,259.4548351764679L708.86,278.6107392311096L710.6233333333333,263.8946313858032L712.3866666666667,257.8619499206543L714.1500000000001,260.0443346500397L715.9133333333333,263.14035844802856L717.6766666666667,262.5059480667114L719.44,260.1469237804413L721.2033333333333,236.95609760284424L722.9666666666667,272.6814980506897L724.73,248.10091209411618L726.4933333333333,242.53664088249207L728.2566666666667,248.56517922878263L730.02,245.7600874900818L731.7833333333333,175.9271181821823L733.5466666666667,236.94688510894775L735.31,255.5388994216919L737.0733333333333,260.14404487609863L738.8366666666667,242.94071388244626L740.5999999999999,237.59085845947263L742.3633333333333,246.89344954490662L744.1266666666667,272.03917694091797L745.89,243.91512286663053L747.6533333333333,245.62873435020447L749.4166666666667,257.3341841697693L751.18,271.6206843852997L752.9433333333334,219.24471509456635L754.7066666666667,235.3838653564453L756.4699999999999,261.1215705871582L758.2333333333333,259.1670949459076L759.9966666666667,262.65234661102295L761.76,286.84190225601196L763.5233333333333,241.67633664608002L765.2866666666667,278.2772870063782L767.05,267.67273020744324L768.8133333333334,270.12836050987244L770.5766666666667,254.22897291183472L772.34,261.28664445877075L774.1033333333334,266.15069103240967L775.8666666666666,261.72949504852295L777.63,247.26310086250305L779.3933333333333,252.77635288238525L781.1566666666666,257.5499267578125L782.92,259.80996680259705L784.6833333333334,230.73363375663757L786.4466666666666,191.430330991745L788.21,256.72718596458435L789.9733333333334,267.78067660331726L791.7366666666667,268.02363109588623L793.5,269.7886748313904L795.2633333333333,264.66547679901123L797.0266666666666,241.3895977735519L798.79,253.0241389274597L800.5533333333334,234.6739776134491L802.3166666666666,259.9237711429596L804.08,233.5588277578354L805.8433333333334,236.64791715145108L807.6066666666667,260.80183696746826L809.37,245.6466211080551L811.1333333333334,228.49846494197845L812.8966666666666,210.50666463375092L814.66,263.7958974838257L816.4233333333333,264.23116278648376L818.1866666666666,255.67596030235288L819.95,247.25163531303406L821.7133333333333,250.597172498703L823.4766666666667,270.3076286315918L825.24,288.3756573200226L827.0033333333333,223.3722503185272L828.7666666666667,281.7048604488373L830.5300000000001,229.3645395040512L832.2933333333333,262.2799165248871L834.0566666666666,237.70065736770627L835.82,278.6602313518524L837.5833333333333,253.8550658226013L839.3466666666667,259.17087507247925L841.11,272.662397146225L842.8733333333333,256.5272147655487L844.6366666666667,264.1318280696869L846.4000000000001,245.48084628582L848.1633333333333,227.0144898891449L849.9266666666667,276.78055715560913L851.69,280.3227610588074L853.4533333333333,301.85626459121704L855.2166666666667,235.569855093956L856.98,243.7031854391098L858.7433333333333,255.15375208854675L860.5066666666667,285.4600281715393L862.27,258.02747440338135L864.0333333333333,294.0157814025879L865.7966666666667,279.6467442512512L867.56,241.475764632225L869.3233333333333,272.2652835845947L871.0866666666667,263.7487335205078L872.8499999999999,251.33022916316986L874.6133333333333,272.52083015441895L876.3766666666667,260.89058232307434L878.14,268.13776087760925L879.9033333333333,261.11343455314636L881.6666666666667,273.4558482170105L883.43,230.77564072608945L885.1933333333334,286.37559485435486L886.9566666666667,273.25975728034973L888.7199999999999,260.1179094314575L890.4833333333333,266.7771406173706L892.2466666666667,275.0738925933838L894.01,234.04692721366882L895.7733333333333,230.98352265357968L897.5366666666667,258.46464228630066L899.3,287.4803931713104L901.0633333333334,283.87798261642456L902.8266666666667,256.4534397125244L904.59,248.941539645195L906.3533333333334,279.4632453918457L908.1166666666666,248.91651821136472L909.88,252.95194101333618L911.6433333333333,245.87026190757751L913.4066666666666,266.009073972702L915.17,265.79308104515076L916.9333333333334,269.6153898239136L918.6966666666666,238.99295997619626L920.46,283.87522888183594L922.2233333333334,259.4434447288513L923.9866666666667,274.9533290863037L925.75,289.72223353385925L927.5133333333333,247.11447429656982L929.2766666666666,266.8182463645935L931.04,268.6056954860687L932.8033333333334,277.83653926849365L934.5666666666666,264.95732259750366L936.33,261.9936032295227L938.0933333333334,253.19449496269226L939.8566666666667,271.0820789337158L941.62,258.84508323669434L943.3833333333334,293.714848279953L945.1466666666666,256.1505789756775L946.91,254.9918074607849L948.6733333333333,234.01560974121094L950.4366666666666,252.30528903007507L952.2,249.77145266532898L953.9633333333333,281.93634939193726L955.7266666666667,212.38340985774994L957.49,261.6509385108948L959.2533333333333,250.06810498237607L961.0166666666667,260.80010962486267L962.7800000000001,293.3528573513031L964.5433333333333,247.05153894424438L966.3066666666666,263.65435552597046L968.07,281.8790216445923" style="fill: none;" fill="none"></path></g></g></g></g></g></g><g transform="translate(50, 378)" clip-path="url(#clip_1)"><clipPath id="clip_1"><rect width="1058" height="22"></rect></clipPath><g><g><line x1="0" y1="0" x2="0" y2="5" style="visibility: inherit;" fill="rgb(0, 0, 0)" stroke="rgb(204, 204, 204)" stroke-width="1px"></line><line x1="88.16666666666666" y1="0" x2="88.16666666666666" y2="5" style="visibility: inherit;" fill="rgb(0, 0, 0)" stroke="rgb(204, 204, 204)" stroke-width="1px"></line><line x1="176.33333333333331" y1="0" x2="176.33333333333331" y2="5" style="visibility: inherit;" fill="rgb(0, 0, 0)" stroke="rgb(204, 204, 204)" stroke-width="1px"></line><line x1="264.5" y1="0" x2="264.5" y2="5" style="visibility: inherit;" fill="rgb(0, 0, 0)" stroke="rgb(204, 204, 204)" stroke-width="1px"></line><line x1="352.66666666666663" y1="0" x2="352.66666666666663" y2="5" style="visibility: inherit;" fill="rgb(0, 0, 0)" stroke="rgb(204, 204, 204)" stroke-width="1px"></line><line x1="440.83333333333337" y1="0" x2="440.83333333333337" y2="5" style="visibility: inherit;" fill="rgb(0, 0, 0)" stroke="rgb(204, 204, 204)" stroke-width="1px"></line><line x1="529" y1="0" x2="529" y2="5" style="visibility: inherit;" fill="rgb(0, 0, 0)" stroke="rgb(204, 204, 204)" stroke-width="1px"></line><line x1="617.1666666666667" y1="0" x2="617.1666666666667" y2="5" style="visibility: inherit;" fill="rgb(0, 0, 0)" stroke="rgb(204, 204, 204)" stroke-width="1px"></line><line x1="705.3333333333333" y1="0" x2="705.3333333333333" y2="5" style="visibility: inherit;" fill="rgb(0, 0, 0)" stroke="rgb(204, 204, 204)" stroke-width="1px"></line><line x1="793.5" y1="0" x2="793.5" y2="5" style="visibility: inherit;" fill="rgb(0, 0, 0)" stroke="rgb(204, 204, 204)" stroke-width="1px"></line><line x1="881.6666666666667" y1="0" x2="881.6666666666667" y2="5" style="visibility: inherit;" fill="rgb(0, 0, 0)" stroke="rgb(204, 204, 204)" stroke-width="1px"></line><line x1="969.8333333333333" y1="0" x2="969.8333333333333" y2="5" style="visibility: inherit;" fill="rgb(0, 0, 0)" stroke="rgb(204, 204, 204)" stroke-width="1px"></line><line x1="1058" y1="0" x2="1058" y2="5" style="visibility: inherit;" fill="rgb(0, 0, 0)" stroke="rgb(204, 204, 204)" stroke-width="1px"></line></g><g transform="translate(0, 8)"><text x="0" y="0" dx="0em" dy="0.95em" style="text-anchor: middle; visibility: hidden; font-family: &quot;Helvetica Neue&quot;, sans-serif; font-size: 12px; font-weight: 200;" fill="rgb(50, 49, 63)" stroke="none" stroke-width="1px">-50</text><text x="88.16666666666666" y="0" dx="0em" dy="0.95em" style="text-anchor: middle; visibility: inherit; font-family: &quot;Helvetica Neue&quot;, sans-serif; font-size: 12px; font-weight: 200;" fill="rgb(50, 49, 63)" stroke="none" stroke-width="1px">0</text><text x="176.33333333333331" y="0" dx="0em" dy="0.95em" style="text-anchor: middle; visibility: inherit; font-family: &quot;Helvetica Neue&quot;, sans-serif; font-size: 12px; font-weight: 200;" fill="rgb(50, 49, 63)" stroke="none" stroke-width="1px">50</text><text x="264.5" y="0" dx="0em" dy="0.95em" style="text-anchor: middle; visibility: inherit; font-family: &quot;Helvetica Neue&quot;, sans-serif; font-size: 12px; font-weight: 200;" fill="rgb(50, 49, 63)" stroke="none" stroke-width="1px">100</text><text x="352.66666666666663" y="0" dx="0em" dy="0.95em" style="text-anchor: middle; visibility: inherit; font-family: &quot;Helvetica Neue&quot;, sans-serif; font-size: 12px; font-weight: 200;" fill="rgb(50, 49, 63)" stroke="none" stroke-width="1px">150</text><text x="440.83333333333337" y="0" dx="0em" dy="0.95em" style="text-anchor: middle; visibility: inherit; font-family: &quot;Helvetica Neue&quot;, sans-serif; font-size: 12px; font-weight: 200;" fill="rgb(50, 49, 63)" stroke="none" stroke-width="1px">200</text><text x="529" y="0" dx="0em" dy="0.95em" style="text-anchor: middle; visibility: inherit; font-family: &quot;Helvetica Neue&quot;, sans-serif; font-size: 12px; font-weight: 200;" fill="rgb(50, 49, 63)" stroke="none" stroke-width="1px">250</text><text x="617.1666666666667" y="0" dx="0em" dy="0.95em" style="text-anchor: middle; visibility: inherit; font-family: &quot;Helvetica Neue&quot;, sans-serif; font-size: 12px; font-weight: 200;" fill="rgb(50, 49, 63)" stroke="none" stroke-width="1px">300</text><text x="705.3333333333333" y="0" dx="0em" dy="0.95em" style="text-anchor: middle; visibility: inherit; font-family: &quot;Helvetica Neue&quot;, sans-serif; font-size: 12px; font-weight: 200;" fill="rgb(50, 49, 63)" stroke="none" stroke-width="1px">350</text><text x="793.5" y="0" dx="0em" dy="0.95em" style="text-anchor: middle; visibility: inherit; font-family: &quot;Helvetica Neue&quot;, sans-serif; font-size: 12px; font-weight: 200;" fill="rgb(50, 49, 63)" stroke="none" stroke-width="1px">400</text><text x="881.6666666666667" y="0" dx="0em" dy="0.95em" style="text-anchor: middle; visibility: inherit; font-family: &quot;Helvetica Neue&quot;, sans-serif; font-size: 12px; font-weight: 200;" fill="rgb(50, 49, 63)" stroke="none" stroke-width="1px">450</text><text x="969.8333333333333" y="0" dx="0em" dy="0.95em" style="text-anchor: middle; visibility: inherit; font-family: &quot;Helvetica Neue&quot;, sans-serif; font-size: 12px; font-weight: 200;" fill="rgb(50, 49, 63)" stroke="none" stroke-width="1px">500</text><text x="1058" y="0" dx="0em" dy="0.95em" style="text-anchor: middle; visibility: hidden; font-family: &quot;Helvetica Neue&quot;, sans-serif; font-size: 12px; font-weight: 200;" fill="rgb(50, 49, 63)" stroke="none" stroke-width="1px">550</text></g><line x1="0" y1="0" x2="1058" y2="0" fill="rgb(0, 0, 0)" stroke="rgb(204, 204, 204)" stroke-width="1px"></line></g></g></g></g></svg>